<svg viewBox="0 0 200 200" xmlns="http://www.w3.org/2000/svg">
  <ellipse cx="50" cy="60" rx="25" ry="35" fill="#FF69B4" opacity="0.9"/>
  <ellipse cx="100" cy="50" rx="25" ry="35" fill="#87CEEB" opacity="0.9"/>
  <ellipse cx="150" cy="60" rx="25" ry="35" fill="#FFD700" opacity="0.9"/>
  <path d="M 50 95 Q 50 100 52 105" stroke="#333" stroke-width="1" fill="none"/>
  <path d="M 100 85 Q 100 90 102 95" stroke="#333" stroke-width="1" fill="none"/>
  <path d="M 150 95 Q 150 100 152 105" stroke="#333" stroke-width="1" fill="none"/>
  <path d="M 52 105 C 52 130, 52 150, 52 180" stroke="#333" stroke-width="1" fill="none"/>
  <path d="M 102 95 C 102 120, 102 140, 102 180" stroke="#333" stroke-width="1" fill="none"/>
  <path d="M 152 105 C 152 130, 152 150, 152 180" stroke="#333" stroke-width="1" fill="none"/>
  <ellipse cx="42" cy="55" rx="8" ry="10" fill="#FFF" opacity="0.5"/>
  <ellipse cx="92" cy="45" rx="8" ry="10" fill="#FFF" opacity="0.5"/>
  <ellipse cx="142" cy="55" rx="8" ry="10" fill="#FFF" opacity="0.5"/>
</svg>