<svg viewBox="0 0 200 200" xmlns="http://www.w3.org/2000/svg">
  <rect x="30" y="40" width="15" height="5" fill="#FF69B4" transform="rotate(45 37.5 42.5)"/>
  <rect x="60" y="30" width="15" height="5" fill="#FFD700" transform="rotate(-30 67.5 32.5)"/>
  <rect x="90" y="50" width="15" height="5" fill="#87CEEB" transform="rotate(60 97.5 52.5)"/>
  <rect x="120" y="35" width="15" height="5" fill="#FF1493" transform="rotate(-45 127.5 37.5)"/>
  <rect x="150" y="45" width="15" height="5" fill="#32CD32" transform="rotate(30 157.5 47.5)"/>
  <rect x="40" y="80" width="15" height="5" fill="#FF6347" transform="rotate(-60 47.5 82.5)"/>
  <rect x="70" y="90" width="15" height="5" fill="#9370DB" transform="rotate(15 77.5 92.5)"/>
  <rect x="100" y="85" width="15" height="5" fill="#FFD700" transform="rotate(-15 107.5 87.5)"/>
  <rect x="130" y="95" width="15" height="5" fill="#FF69B4" transform="rotate(75 137.5 97.5)"/>
  <rect x="160" y="80" width="15" height="5" fill="#87CEEB" transform="rotate(-75 167.5 82.5)"/>
  <rect x="35" y="120" width="15" height="5" fill="#32CD32" transform="rotate(20 42.5 122.5)"/>
  <rect x="65" y="130" width="15" height="5" fill="#FF1493" transform="rotate(-20 72.5 132.5)"/>
  <rect x="95" y="125" width="15" height="5" fill="#FF6347" transform="rotate(50 102.5 127.5)"/>
  <rect x="125" y="135" width="15" height="5" fill="#9370DB" transform="rotate(-50 132.5 137.5)"/>
  <rect x="155" y="120" width="15" height="5" fill="#FFD700" transform="rotate(10 162.5 122.5)"/>
  <circle cx="50" cy="60" r="3" fill="#FF69B4"/>
  <circle cx="80" cy="70" r="3" fill="#FFD700"/>
  <circle cx="110" cy="65" r="3" fill="#87CEEB"/>
  <circle cx="140" cy="60" r="3" fill="#FF1493"/>
  <circle cx="170" cy="70" r="3" fill="#32CD32"/>
  <circle cx="45" cy="100" r="3" fill="#FF6347"/>
  <circle cx="75" cy="110" r="3" fill="#9370DB"/>
  <circle cx="105" cy="105" r="3" fill="#FFD700"/>
  <circle cx="135" cy="115" r="3" fill="#FF69B4"/>
  <circle cx="165" cy="100" r="3" fill="#87CEEB"/>
  <circle cx="60" cy="150" r="3" fill="#32CD32"/>
  <circle cx="90" cy="160" r="3" fill="#FF1493"/>
  <circle cx="120" cy="155" r="3" fill="#FF6347"/>
  <circle cx="150" cy="165" r="3" fill="#9370DB"/>
</svg>