<svg viewBox="0 0 200 200" xmlns="http://www.w3.org/2000/svg">
  <rect x="50" y="80" width="100" height="80" fill="#4169E1" rx="5"/>
  <rect x="50" y="60" width="100" height="25" fill="#DC143C" rx="5"/>
  <rect x="95" y="40" width="10" height="120" fill="#FFD700"/>
  <rect x="40" y="55" width="120" height="10" fill="#FFD700"/>
  <path d="M 100 40 Q 80 30, 70 20 Q 65 15, 70 10 Q 75 5, 80 10 Q 90 20, 100 40" fill="#FFD700"/>
  <path d="M 100 40 Q 120 30, 130 20 Q 135 15, 130 10 Q 125 5, 120 10 Q 110 20, 100 40" fill="#FFD700"/>
  <circle cx="70" cy="100" r="5" fill="#FFF" opacity="0.3"/>
  <circle cx="130" cy="100" r="5" fill="#FFF" opacity="0.3"/>
  <circle cx="100" cy="130" r="5" fill="#FFF" opacity="0.3"/>
  <circle cx="70" cy="130" r="3" fill="#FFF" opacity="0.3"/>
  <circle cx="130" cy="130" r="3" fill="#FFF" opacity="0.3"/>
</svg>