<svg viewBox="0 0 200 200" xmlns="http://www.w3.org/2000/svg">
  <path d="M 100 30 L 60 150 L 140 150 Z" fill="#FF69B4"/>
  <ellipse cx="100" cy="150" rx="40" ry="10" fill="#FFD700"/>
  <circle cx="100" cy="30" r="12" fill="#FFD700"/>
  <circle cx="85" cy="70" r="8" fill="#87CEEB"/>
  <circle cx="115" cy="70" r="8" fill="#87CEEB"/>
  <circle cx="90" cy="100" r="8" fill="#FFD700"/>
  <circle cx="110" cy="100" r="8" fill="#FFD700"/>
  <circle cx="95" cy="130" r="8" fill="#87CEEB"/>
  <circle cx="105" cy="130" r="8" fill="#87CEEB"/>
  <path d="M 85 70 L 90 75 L 85 80 L 80 75 Z" fill="#FFF" opacity="0.5"/>
  <path d="M 115 70 L 120 75 L 115 80 L 110 75 Z" fill="#FFF" opacity="0.5"/>
  <path d="M 90 100 L 95 105 L 90 110 L 85 105 Z" fill="#FFF" opacity="0.5"/>
  <path d="M 110 100 L 115 105 L 110 110 L 105 105 Z" fill="#FFF" opacity="0.5"/>
</svg>