<svg xmlns="http://www.w3.org/2000/svg" viewBox="0 0 48 48" width="48" height="48">
  <title>Hello Kitty Pattern</title>
  <defs>
    <!-- Define pattern for repeating Hello Kitty faces -->
    <pattern id="kitty-pattern" x="0" y="0" width="16" height="16" patternUnits="userSpaceOnUse">
      <!-- Small Hello Kitty face -->
      <g transform="translate(8, 8)">
        <!-- Face -->
        <ellipse cx="0" cy="0" rx="6" ry="5" fill="#ffffff" stroke="#000000" stroke-width="0.8"/>
        
        <!-- Left ear -->
        <path d="M -4 -4 Q -5 -5, -6 -3 Q -7 -1, -5 0 L -3 -1 Z" fill="#ffffff" stroke="#000000" stroke-width="0.8"/>
        
        <!-- Right ear -->
        <path d="M 4 -4 Q 5 -5, 6 -3 Q 7 -1, 5 0 L 3 -1 Z" fill="#ffffff" stroke="#000000" stroke-width="0.8"/>
        
        <!-- Bow -->
        <path d="M 2 -5 Q 3 -5.5, 4 -5 Q 4.5 -4.5, 4 -4 Q 3 -3.5, 2 -4 Q 1 -3.5, 0 -4 Q -0.5 -4.5, 0 -5 Q 1 -5.5, 2 -5 Z" fill="#FF69B4" stroke="#000000" stroke-width="0.5"/>
        <circle cx="2" cy="-4.5" r="0.8" fill="#FF1493"/>
        
        <!-- Eyes -->
        <ellipse cx="-2" cy="0" rx="0.5" ry="1" fill="#000000"/>
        <ellipse cx="2" cy="0" rx="0.5" ry="1" fill="#000000"/>
        
        <!-- Nose -->
        <ellipse cx="0" cy="1.5" rx="1" ry="0.5" fill="#FFD700"/>
        
        <!-- Whiskers -->
        <line x1="-6" y1="-0.5" x2="-4" y2="0" stroke="#000000" stroke-width="0.3"/>
        <line x1="-6" y1="0.5" x2="-4" y2="0.5" stroke="#000000" stroke-width="0.3"/>
        <line x1="4" y1="0" x2="6" y2="-0.5" stroke="#000000" stroke-width="0.3"/>
        <line x1="4" y1="0.5" x2="6" y2="0.5" stroke="#000000" stroke-width="0.3"/>
      </g>
    </pattern>
    
    <!-- Alternating pattern with bows and hearts -->
    <pattern id="accessories-pattern" x="0" y="0" width="32" height="32" patternUnits="userSpaceOnUse">
      <!-- Bow at (8,8) -->
      <path d="M 8 8 Q 10 7, 11 8 Q 12 9, 11 10 Q 10 11, 8 10 Q 6 11, 5 10 Q 4 9, 5 8 Q 6 7, 8 8 Z" fill="#FF69B4" stroke="#FF1493" stroke-width="0.5"/>
      <circle cx="8" cy="9" r="1" fill="#FF1493"/>
      
      <!-- Heart at (24,8) -->
      <path d="M 24 12 C 24 12, 20 9, 20 7 C 20 6, 21 5, 22 5 C 22.5 5, 23 5.5, 24 6 C 25 5.5, 25.5 5, 26 5 C 27 5, 28 6, 28 7 C 28 9, 24 12, 24 12 Z" fill="#FFB6C1" stroke="#FF69B4" stroke-width="0.5"/>
      
      <!-- Star at (8,24) -->
      <path d="M 8 22 L 9 24 L 11 24 L 9.5 25.5 L 10 27.5 L 8 26 L 6 27.5 L 6.5 25.5 L 5 24 L 7 24 Z" fill="#FFD700" stroke="#FFA500" stroke-width="0.5"/>
      
      <!-- Flower at (24,24) -->
      <circle cx="24" cy="24" r="1.5" fill="#FFD700"/>
      <circle cx="24" cy="22" r="1.2" fill="#FFB6C1"/>
      <circle cx="26" cy="24" r="1.2" fill="#FFB6C1"/>
      <circle cx="24" cy="26" r="1.2" fill="#FFB6C1"/>
      <circle cx="22" cy="24" r="1.2" fill="#FFB6C1"/>
    </pattern>
  </defs>
  
  <!-- Background with kitty pattern -->
  <rect x="0" y="0" width="48" height="48" fill="#FFE4E1"/>
  
  <!-- Apply Hello Kitty face pattern -->
  <rect x="0" y="0" width="48" height="48" fill="url(#kitty-pattern)" opacity="0.4"/>
  
  <!-- Apply accessories pattern overlay -->
  <rect x="0" y="0" width="48" height="48" fill="url(#accessories-pattern)" opacity="0.6"/>
  
  <!-- Border -->
  <rect x="0" y="0" width="48" height="48" fill="none" stroke="#FF69B4" stroke-width="2"/>
  
  <!-- Corner decorations -->
  <circle cx="4" cy="4" r="3" fill="#FF69B4"/>
  <circle cx="44" cy="4" r="3" fill="#FF69B4"/>
  <circle cx="4" cy="44" r="3" fill="#FF69B4"/>
  <circle cx="44" cy="44" r="3" fill="#FF69B4"/>
</svg>