<svg xmlns="http://www.w3.org/2000/svg" viewBox="0 0 48 48" width="48" height="48">
  <title>Hello Kitty Face</title>
  <!-- Face -->
  <ellipse cx="24" cy="26" rx="18" ry="16" fill="#ffffff" stroke="#000000" stroke-width="2"/>
  
  <!-- Left ear -->
  <path d="M 10 10 Q 8 8, 6 12 Q 4 16, 8 18 L 12 16 Z" fill="#ffffff" stroke="#000000" stroke-width="2"/>
  
  <!-- Right ear -->
  <path d="M 38 10 Q 40 8, 42 12 Q 44 16, 40 18 L 36 16 Z" fill="#ffffff" stroke="#000000" stroke-width="2"/>
  
  <!-- Left eye -->
  <ellipse cx="16" cy="26" rx="2" ry="3" fill="#000000"/>
  
  <!-- Right eye -->
  <ellipse cx="32" cy="26" rx="2" ry="3" fill="#000000"/>
  
  <!-- Nose -->
  <ellipse cx="24" cy="30" rx="3" ry="2" fill="#FFD700"/>
  
  <!-- Bow -->
  <path d="M 30 8 Q 35 6, 38 8 Q 40 10, 38 12 Q 35 14, 30 12 Q 25 14, 22 12 Q 20 10, 22 8 Q 25 6, 30 8 Z" fill="#FF69B4" stroke="#000000" stroke-width="1"/>
  <circle cx="30" cy="10" r="2" fill="#FF1493"/>
  
  <!-- Left whisker -->
  <line x1="4" y1="24" x2="10" y2="25" stroke="#000000" stroke-width="1"/>
  <line x1="4" y1="28" x2="10" y2="28" stroke="#000000" stroke-width="1"/>
  
  <!-- Right whisker -->
  <line x1="38" y1="25" x2="44" y2="24" stroke="#000000" stroke-width="1"/>
  <line x1="38" y1="28" x2="44" y2="28" stroke="#000000" stroke-width="1"/>
</svg>