<svg xmlns="http://www.w3.org/2000/svg" viewBox="0 0 48 48" width="48" height="48">
  <title>Hello Kitty with Bow</title>
  <!-- Face -->
  <ellipse cx="24" cy="28" rx="16" ry="14" fill="#ffffff" stroke="#000000" stroke-width="2"/>
  
  <!-- Left ear -->
  <path d="M 12 14 Q 10 12, 8 15 Q 6 18, 10 20 L 14 18 Z" fill="#ffffff" stroke="#000000" stroke-width="2"/>
  
  <!-- Right ear -->
  <path d="M 36 14 Q 38 12, 40 15 Q 42 18, 38 20 L 34 18 Z" fill="#ffffff" stroke="#000000" stroke-width="2"/>
  
  <!-- Large bow -->
  <path d="M 24 6 Q 32 4, 36 8 Q 40 12, 36 16 Q 32 20, 24 16 Q 16 20, 12 16 Q 8 12, 12 8 Q 16 4, 24 6 Z" fill="#FF69B4" stroke="#000000" stroke-width="2"/>
  <circle cx="24" cy="12" r="4" fill="#FF1493" stroke="#000000" stroke-width="1"/>
  <circle cx="24" cy="12" r="2" fill="#FFB6C1"/>
  
  <!-- Left eye -->
  <ellipse cx="17" cy="28" rx="1.5" ry="2.5" fill="#000000"/>
  
  <!-- Right eye -->
  <ellipse cx="31" cy="28" rx="1.5" ry="2.5" fill="#000000"/>
  
  <!-- Nose -->
  <ellipse cx="24" cy="32" rx="2.5" ry="1.5" fill="#FFD700"/>
  
  <!-- Left whisker -->
  <line x1="6" y1="26" x2="12" y2="27" stroke="#000000" stroke-width="1"/>
  <line x1="6" y1="30" x2="12" y2="30" stroke="#000000" stroke-width="1"/>
  
  <!-- Right whisker -->
  <line x1="36" y1="27" x2="42" y2="26" stroke="#000000" stroke-width="1"/>
  <line x1="36" y1="30" x2="42" y2="30" stroke="#000000" stroke-width="1"/>
</svg>