<svg xmlns="http://www.w3.org/2000/svg" viewBox="0 0 48 48" width="48" height="48">
  <title>Hello Kitty with Stars</title>
  <!-- Stars around -->
  <path d="M 8 8 L 9 10 L 11 10 L 9.5 11.5 L 10 13.5 L 8 12 L 6 13.5 L 6.5 11.5 L 5 10 L 7 10 Z" fill="#FFD700"/>
  <path d="M 40 8 L 41 10 L 43 10 L 41.5 11.5 L 42 13.5 L 40 12 L 38 13.5 L 38.5 11.5 L 37 10 L 39 10 Z" fill="#FFD700"/>
  <path d="M 6 35 L 7 37 L 9 37 L 7.5 38.5 L 8 40.5 L 6 39 L 4 40.5 L 4.5 38.5 L 3 37 L 5 37 Z" fill="#FFD700"/>
  <path d="M 42 35 L 43 37 L 45 37 L 43.5 38.5 L 44 40.5 L 42 39 L 40 40.5 L 40.5 38.5 L 39 37 L 41 37 Z" fill="#FFD700"/>
  
  <!-- Face -->
  <ellipse cx="24" cy="24" rx="14" ry="12" fill="#ffffff" stroke="#000000" stroke-width="2"/>
  
  <!-- Left ear -->
  <path d="M 12 14 Q 10 12, 8 15 Q 6 18, 10 20 L 14 18 Z" fill="#ffffff" stroke="#000000" stroke-width="2"/>
  
  <!-- Right ear -->
  <path d="M 36 14 Q 38 12, 40 15 Q 42 18, 38 20 L 34 18 Z" fill="#ffffff" stroke="#000000" stroke-width="2"/>
  
  <!-- Star bow -->
  <path d="M 30 12 L 32 16 L 36 16 L 33 18.5 L 34 22.5 L 30 20 L 26 22.5 L 27 18.5 L 24 16 L 28 16 Z" fill="#FF69B4" stroke="#000000" stroke-width="1"/>
  <circle cx="30" cy="17" r="2" fill="#FFD700"/>
  
  <!-- Left eye with star reflection -->
  <ellipse cx="18" cy="24" rx="1.5" ry="2.5" fill="#000000"/>
  <path d="M 18 23 L 18.3 23.6 L 19 23.6 L 18.5 24 L 18.7 24.6 L 18 24.2 L 17.3 24.6 L 17.5 24 L 17 23.6 L 17.7 23.6 Z" fill="#ffffff" transform="scale(0.5) translate(18, 18)"/>
  
  <!-- Right eye with star reflection -->
  <ellipse cx="30" cy="24" rx="1.5" ry="2.5" fill="#000000"/>
  <path d="M 30 23 L 30.3 23.6 L 31 23.6 L 30.5 24 L 30.7 24.6 L 30 24.2 L 29.3 24.6 L 29.5 24 L 29 23.6 L 29.7 23.6 Z" fill="#ffffff" transform="scale(0.5) translate(30, 18)"/>
  
  <!-- Nose -->
  <ellipse cx="24" cy="27" rx="2.5" ry="1.5" fill="#FFD700"/>
  
  <!-- Left whisker -->
  <line x1="8" y1="23" x2="13" y2="24" stroke="#000000" stroke-width="1"/>
  <line x1="8" y1="26" x2="13" y2="26" stroke="#000000" stroke-width="1"/>
  
  <!-- Right whisker -->
  <line x1="35" y1="24" x2="40" y2="23" stroke="#000000" stroke-width="1"/>
  <line x1="35" y1="26" x2="40" y2="26" stroke="#000000" stroke-width="1"/>
  
  <!-- Sparkles -->
  <circle cx="15" cy="32" r="0.8" fill="#FFD700"/>
  <circle cx="33" cy="32" r="0.8" fill="#FFD700"/>
  <circle cx="24" cy="38" r="0.8" fill="#FFD700"/>
</svg>