<svg xmlns="http://www.w3.org/2000/svg" viewBox="0 0 48 48" width="48" height="48">
  <title>Hello Kitty Waving</title>
  <!-- Body -->
  <ellipse cx="24" cy="36" rx="10" ry="8" fill="#ffffff" stroke="#000000" stroke-width="2"/>
  
  <!-- Left arm waving -->
  <ellipse cx="12" cy="32" rx="4" ry="6" fill="#ffffff" stroke="#000000" stroke-width="2" transform="rotate(-30 12 32)"/>
  <ellipse cx="8" cy="26" rx="3.5" ry="5" fill="#ffffff" stroke="#000000" stroke-width="2" transform="rotate(-45 8 26)"/>
  
  <!-- Right arm -->
  <ellipse cx="36" cy="34" rx="4" ry="6" fill="#ffffff" stroke="#000000" stroke-width="2" transform="rotate(20 36 34)"/>
  
  <!-- Face -->
  <ellipse cx="24" cy="18" rx="13" ry="11" fill="#ffffff" stroke="#000000" stroke-width="2"/>
  
  <!-- Left ear -->
  <path d="M 13 8 Q 11 6, 9 9 Q 7 12, 11 14 L 15 12 Z" fill="#ffffff" stroke="#000000" stroke-width="2"/>
  
  <!-- Right ear -->
  <path d="M 35 8 Q 37 6, 39 9 Q 41 12, 37 14 L 33 12 Z" fill="#ffffff" stroke="#000000" stroke-width="2"/>
  
  <!-- Bow -->
  <path d="M 29 6 Q 33 5, 35 7 Q 37 9, 35 11 Q 33 13, 29 11 Q 25 13, 23 11 Q 21 9, 23 7 Q 25 5, 29 6 Z" fill="#FF69B4" stroke="#000000" stroke-width="1"/>
  <circle cx="29" cy="9" r="2" fill="#FF1493"/>
  
  <!-- Left eye (winking) -->
  <path d="M 16 18 Q 19 16, 20 18" stroke="#000000" stroke-width="1.5" fill="none"/>
  
  <!-- Right eye -->
  <ellipse cx="29" cy="18" rx="1.5" ry="2.5" fill="#000000"/>
  
  <!-- Nose -->
  <ellipse cx="24" cy="21" rx="2.5" ry="1.5" fill="#FFD700"/>
  
  <!-- Smile -->
  <path d="M 19 23 Q 24 25, 29 23" stroke="#000000" stroke-width="1" fill="none"/>
  
  <!-- Left whisker -->
  <line x1="9" y1="17" x2="13" y2="18" stroke="#000000" stroke-width="1"/>
  <line x1="9" y1="20" x2="13" y2="20" stroke="#000000" stroke-width="1"/>
  
  <!-- Right whisker -->
  <line x1="35" y1="18" x2="39" y2="17" stroke="#000000" stroke-width="1"/>
  <line x1="35" y1="20" x2="39" y2="20" stroke="#000000" stroke-width="1"/>
  
  <!-- Motion lines for waving -->
  <path d="M 5 22 Q 6 21, 7 22" stroke="#333333" stroke-width="0.5" fill="none"/>
  <path d="M 4 24 Q 5 23, 6 24" stroke="#333333" stroke-width="0.5" fill="none"/>
  <path d="M 5 26 Q 6 25, 7 26" stroke="#333333" stroke-width="0.5" fill="none"/>
</svg>