<svg viewBox="0 0 200 200" xmlns="http://www.w3.org/2000/svg">
  <defs>
    <linearGradient id="loveGradient" x1="0%" y1="0%" x2="0%" y2="100%">
      <stop offset="0%" style="stop-color:#FF69B4;stop-opacity:1" />
      <stop offset="100%" style="stop-color:#FF1493;stop-opacity:1" />
    </linearGradient>
  </defs>
  <path d="M 100 60 C 75 35, 25 35, 25 75 C 25 95, 40 110, 100 170 C 160 110, 175 95, 175 75 C 175 35, 125 35, 100 60 Z" fill="url(#loveGradient)"/>
  <text x="100" y="105" font-family="Georgia, serif" font-size="26" font-weight="bold" text-anchor="middle" fill="#FFF">Mama</text>
  <path d="M 50 70 C 45 65, 35 65, 35 70 C 35 75, 40 80, 50 90 C 60 80, 65 75, 65 70 C 65 65, 55 65, 50 70 Z" fill="#FFF" opacity="0.3"/>
  <path d="M 150 70 C 145 65, 135 65, 135 70 C 135 75, 140 80, 150 90 C 160 80, 165 75, 165 70 C 165 65, 155 65, 150 70 Z" fill="#FFF" opacity="0.3"/>
  <circle cx="80" cy="120" r="2" fill="#FFF" opacity="0.5"/>
  <circle cx="120" cy="120" r="2" fill="#FFF" opacity="0.5"/>
  <circle cx="100" cy="130" r="3" fill="#FFF" opacity="0.4"/>
</svg>