<svg viewBox="0 0 200 200" xmlns="http://www.w3.org/2000/svg">
  <path d="M 100 50 C 75 25, 25 25, 25 65 C 25 85, 40 100, 100 160 C 160 100, 175 85, 175 65 C 175 25, 125 25, 100 50 Z" fill="#FF69B4"/>
  <path d="M 100 50 C 85 35, 45 35, 45 65 C 45 75, 50 85, 100 140 C 150 85, 155 75, 155 65 C 155 35, 115 35, 100 50 Z" fill="#FF1493" opacity="0.7"/>
  <text x="100" y="95" font-family="Brush Script MT, cursive" font-size="32" font-weight="bold" text-anchor="middle" fill="#FFF">Mama</text>
  <circle cx="60" cy="60" r="3" fill="#FFF" opacity="0.6"/>
  <circle cx="140" cy="60" r="3" fill="#FFF" opacity="0.6"/>
  <circle cx="70" cy="70" r="2" fill="#FFF" opacity="0.5"/>
  <circle cx="130" cy="70" r="2" fill="#FFF" opacity="0.5"/>
</svg>