<svg viewBox="0 0 200 200" xmlns="http://www.w3.org/2000/svg">
  <g fill="#2C2C2C">
    <circle cx="80" cy="50" r="20"/>
    <path d="M 80 70 C 80 70, 70 75, 65 85 L 60 120 L 55 160 L 65 160 L 68 130 L 75 130 L 78 160 L 88 160 L 85 120 L 95 85 C 90 75, 80 70, 80 70 Z"/>
    <path d="M 65 85 Q 55 90, 50 95 L 55 100 Q 60 95, 65 90"/>
    <path d="M 95 85 Q 105 90, 110 95 L 105 100 Q 100 95, 95 90"/>
    <circle cx="120" cy="90" r="15"/>
    <path d="M 120 105 C 120 105, 115 108, 112 115 L 110 135 L 108 150 L 115 150 L 116 140 L 120 140 L 122 150 L 128 150 L 127 135 L 125 115 C 122 108, 120 105, 120 105 Z"/>
    <path d="M 110 95 Q 100 95, 95 100 L 98 105 Q 102 100, 110 100"/>
  </g>
  <path d="M 80 40 Q 90 30, 100 35" stroke="#2C2C2C" stroke-width="2" fill="none"/>
  <path d="M 120 80 Q 125 75, 130 78" stroke="#2C2C2C" stroke-width="1.5" fill="none"/>
  <text x="100" y="180" font-family="Arial" font-size="16" font-weight="bold" text-anchor="middle" fill="#FF69B4">Mother & Child</text>
</svg>