<svg viewBox="0 0 200 200" xmlns="http://www.w3.org/2000/svg">
  <path d="M 60 80 L 50 150 L 70 140 L 100 180 L 130 140 L 150 150 L 140 80 C 140 80, 120 70, 100 70 C 80 70, 60 80, 60 80 Z" fill="#DC143C"/>
  <path d="M 70 85 L 65 130 L 75 125 L 100 160 L 125 125 L 135 130 L 130 85 C 130 85, 115 80, 100 80 C 85 80, 70 85, 70 85 Z" fill="#FF0000" opacity="0.8"/>
  <circle cx="100" cy="50" r="25" fill="#FDBCB4"/>
  <circle cx="90" cy="45" r="3" fill="#000"/>
  <circle cx="110" cy="45" r="3" fill="#000"/>
  <path d="M 95 55 Q 100 58 105 55" stroke="#000" stroke-width="2" fill="none"/>
  <ellipse cx="100" cy="30" rx="25" ry="15" fill="#8B4513"/>
  <path d="M 75 30 Q 100 20, 125 30" stroke="#8B4513" stroke-width="3" fill="none"/>
  <text x="100" y="110" font-family="Arial" font-size="24" font-weight="bold" text-anchor="middle" fill="#FFD700">SUPER</text>
  <text x="100" y="135" font-family="Arial" font-size="24" font-weight="bold" text-anchor="middle" fill="#FFD700">MAMA</text>
</svg>