<svg viewBox="0 0 48 48" fill="none" xmlns="http://www.w3.org/2000/svg">
  <!-- Briefcase -->
  <g transform="translate(2, 2)">
    <rect x="0" y="6" width="18" height="12" rx="2" stroke="currentColor" stroke-width="2"/>
    <path d="M4 6V4C4 2.89543 4.89543 2 6 2H12C13.1046 2 14 2.89543 14 4V6" stroke="currentColor" stroke-width="2"/>
    <path d="M0 10H18" stroke="currentColor" stroke-width="2"/>
  </g>
  
  <!-- Chart -->
  <g transform="translate(26, 2)">
    <rect x="0" y="0" width="18" height="18" rx="2" stroke="currentColor" stroke-width="2"/>
    <path d="M4 14V8M9 14V5M14 14V10" stroke="currentColor" stroke-width="2" stroke-linecap="round"/>
  </g>
  
  <!-- Calendar -->
  <g transform="translate(2, 26)">
    <rect x="0" y="2" width="18" height="16" rx="2" stroke="currentColor" stroke-width="2"/>
    <path d="M0 6H18M5 0V4M13 0V4" stroke="currentColor" stroke-width="2" stroke-linecap="round"/>
    <rect x="4" y="10" width="2" height="2" fill="currentColor"/>
    <rect x="8" y="10" width="2" height="2" fill="currentColor"/>
    <rect x="12" y="10" width="2" height="2" fill="currentColor"/>
  </g>
  
  <!-- Users -->
  <g transform="translate(26, 26)">
    <circle cx="6" cy="6" r="3" stroke="currentColor" stroke-width="2"/>
    <path d="M0 18C0 14.6863 2.68629 12 6 12C9.31371 12 12 14.6863 12 18" stroke="currentColor" stroke-width="2" stroke-linecap="round"/>
    <circle cx="14" cy="4" r="2" stroke="currentColor" stroke-width="2"/>
    <path d="M18 15C18 12.7909 16.2091 11 14 11" stroke="currentColor" stroke-width="2" stroke-linecap="round"/>
  </g>
</svg>