<svg viewBox="0 0 24 24" fill="none" xmlns="http://www.w3.org/2000/svg">
  <path d="M12 2C13.1046 2 14 2.89543 14 4C17.3137 4 20 6.68629 20 10V16L22 18V19H2V18L4 16V10C4 6.68629 6.68629 4 10 4C10 2.89543 10.8954 2 12 2Z" stroke="currentColor" stroke-width="2" stroke-linecap="round" stroke-linejoin="round"/>
  <path d="M9 19C9 19.7956 9.31607 20.5587 9.87868 21.1213C10.4413 21.6839 11.2044 22 12 22C12.7956 22 13.5587 21.6839 14.1213 21.1213C14.6839 20.5587 15 19.7956 15 19" stroke="currentColor" stroke-width="2" stroke-linecap="round" stroke-linejoin="round"/>
  <circle cx="17" cy="6" r="3" fill="#FF4444"/>
</svg>