<svg viewBox="0 0 48 48" fill="none" xmlns="http://www.w3.org/2000/svg">
  <!-- Facebook -->
  <rect x="2" y="2" width="18" height="18" rx="3" stroke="currentColor" stroke-width="2"/>
  <path d="M12 20V12H14C15.1046 12 16 11.1046 16 10V8" stroke="currentColor" stroke-width="2" stroke-linecap="round"/>
  
  <!-- Twitter/X -->
  <rect x="26" y="2" width="18" height="18" rx="3" stroke="currentColor" stroke-width="2"/>
  <path d="M30 8L40 16M40 8L30 16" stroke="currentColor" stroke-width="2" stroke-linecap="round"/>
  
  <!-- Instagram -->
  <rect x="2" y="26" width="18" height="18" rx="3" stroke="currentColor" stroke-width="2"/>
  <circle cx="11" cy="35" r="3" stroke="currentColor" stroke-width="2"/>
  <circle cx="16.5" cy="30.5" r="1" fill="currentColor"/>
  
  <!-- LinkedIn -->
  <rect x="26" y="26" width="18" height="18" rx="3" stroke="currentColor" stroke-width="2"/>
  <path d="M32 44V36C32 34.8954 32.8954 34 34 34H36C37.1046 34 38 34.8954 38 36V44" stroke="currentColor" stroke-width="2" stroke-linecap="round"/>
  <circle cx="32" cy="31" r="1" fill="currentColor"/>
</svg>