<svg viewBox="0 0 48 48" fill="none" xmlns="http://www.w3.org/2000/svg">
  <!-- Sun -->
  <g transform="translate(2, 2)">
    <circle cx="9" cy="9" r="4" stroke="currentColor" stroke-width="2"/>
    <path d="M9 0V2M9 16V18M0 9H2M16 9H18M3.34 3.34L4.76 4.76M13.24 13.24L14.66 14.66M3.34 14.66L4.76 13.24M13.24 4.76L14.66 3.34" stroke="currentColor" stroke-width="2" stroke-linecap="round"/>
  </g>
  
  <!-- Cloud -->
  <g transform="translate(26, 2)">
    <path d="M14 10C14 7.79086 12.2091 6 10 6C8.134 6 6.5 7.134 6 8.5C3.79086 8.5 2 10.2909 2 12.5C2 14.7091 3.79086 16.5 6 16.5H13.5C15.433 16.5 17 14.933 17 13C17 11.343 15.8 10 14.2 9.7C14.0685 9.8772 14 10 14 10Z" stroke="currentColor" stroke-width="2" stroke-linecap="round" stroke-linejoin="round"/>
  </g>
  
  <!-- Rain -->
  <g transform="translate(2, 26)">
    <path d="M14 10C14 7.79086 12.2091 6 10 6C8.134 6 6.5 7.134 6 8.5C3.79086 8.5 2 10.2909 2 12.5C2 14.7091 3.79086 16.5 6 16.5H13.5C15.433 16.5 17 14.933 17 13C17 11.343 15.8 10 14.2 9.7" stroke="currentColor" stroke-width="2" stroke-linecap="round" stroke-linejoin="round"/>
    <path d="M6 19V21M10 19V22M14 19V21" stroke="currentColor" stroke-width="2" stroke-linecap="round"/>
  </g>
  
  <!-- Snow -->
  <g transform="translate(26, 26)">
    <path d="M9 2V16M3 5L15 13M3 13L15 5" stroke="currentColor" stroke-width="2" stroke-linecap="round"/>
    <circle cx="9" cy="5" r="1" fill="currentColor"/>
    <circle cx="9" cy="9" r="1" fill="currentColor"/>
    <circle cx="9" cy="13" r="1" fill="currentColor"/>
    <circle cx="5" cy="7" r="1" fill="currentColor"/>
    <circle cx="13" cy="7" r="1" fill="currentColor"/>
    <circle cx="5" cy="11" r="1" fill="currentColor"/>
    <circle cx="13" cy="11" r="1" fill="currentColor"/>
  </g>
</svg>