<svg viewBox="0 0 200 200" xmlns="http://www.w3.org/2000/svg">
  <ellipse cx="100" cy="130" rx="45" ry="40" fill="#8B4513"/>
  <ellipse cx="70" cy="80" rx="25" ry="30" fill="#8B4513" transform="rotate(-25 70 80)"/>
  <ellipse cx="130" cy="80" rx="25" ry="30" fill="#8B4513" transform="rotate(25 130 80)"/>
  <ellipse cx="50" cy="50" rx="20" ry="25" fill="#8B4513" transform="rotate(-45 50 50)"/>
  <ellipse cx="150" cy="50" rx="20" ry="25" fill="#8B4513" transform="rotate(45 150 50)"/>
  <ellipse cx="100" cy="30" rx="15" ry="20" fill="#8B4513"/>
  <path d="M 50 45 Q 50 40, 45 35" stroke="#654321" stroke-width="4" fill="none" stroke-linecap="round"/>
  <path d="M 70 75 Q 70 70, 65 65" stroke="#654321" stroke-width="4" fill="none" stroke-linecap="round"/>
  <path d="M 100 25 Q 100 20, 100 15" stroke="#654321" stroke-width="4" fill="none" stroke-linecap="round"/>
  <path d="M 130 75 Q 130 70, 135 65" stroke="#654321" stroke-width="4" fill="none" stroke-linecap="round"/>
  <path d="M 150 45 Q 150 40, 155 35" stroke="#654321" stroke-width="4" fill="none" stroke-linecap="round"/>
</svg>