<svg viewBox="0 0 300 300" xmlns="http://www.w3.org/2000/svg">
  <defs>
    <pattern id="pawPattern" x="0" y="0" width="100" height="100" patternUnits="userSpaceOnUse">
      <g transform="translate(50, 50) scale(0.3)">
        <ellipse cx="100" cy="130" rx="35" ry="30" fill="#333" opacity="0.3"/>
        <ellipse cx="75" cy="85" rx="20" ry="25" fill="#333" opacity="0.3" transform="rotate(-30 75 85)"/>
        <ellipse cx="125" cy="85" rx="20" ry="25" fill="#333" opacity="0.3" transform="rotate(30 125 85)"/>
        <ellipse cx="60" cy="60" rx="15" ry="20" fill="#333" opacity="0.3" transform="rotate(-45 60 60)"/>
        <ellipse cx="140" cy="60" rx="15" ry="20" fill="#333" opacity="0.3" transform="rotate(45 140 60)"/>
      </g>
    </pattern>
  </defs>
  <rect x="0" y="0" width="300" height="300" fill="#F5F5F5"/>
  <rect x="0" y="0" width="300" height="300" fill="url(#pawPattern)"/>
  <g transform="translate(150, 150)">
    <ellipse cx="0" cy="20" rx="35" ry="30" fill="#333"/>
    <ellipse cx="-25" cy="-25" rx="20" ry="25" fill="#333" transform="rotate(-30 -25 -25)"/>
    <ellipse cx="25" cy="-25" rx="20" ry="25" fill="#333" transform="rotate(30 25 -25)"/>
    <ellipse cx="-40" cy="-50" rx="15" ry="20" fill="#333" transform="rotate(-45 -40 -50)"/>
    <ellipse cx="40" cy="-50" rx="15" ry="20" fill="#333" transform="rotate(45 40 -50)"/>
  </g>
</svg>