<svg viewBox="0 0 200 200" xmlns="http://www.w3.org/2000/svg">
  <g transform="translate(60, 60) scale(0.4)">
    <ellipse cx="100" cy="130" rx="35" ry="30" fill="#D2691E"/>
    <ellipse cx="75" cy="85" rx="20" ry="25" fill="#D2691E" transform="rotate(-30 75 85)"/>
    <ellipse cx="125" cy="85" rx="20" ry="25" fill="#D2691E" transform="rotate(30 125 85)"/>
    <ellipse cx="60" cy="60" rx="15" ry="20" fill="#D2691E" transform="rotate(-45 60 60)"/>
    <ellipse cx="140" cy="60" rx="15" ry="20" fill="#D2691E" transform="rotate(45 140 60)"/>
  </g>
  <g transform="translate(140, 60) scale(0.4) rotate(15)">
    <ellipse cx="100" cy="130" rx="35" ry="30" fill="#8B4513"/>
    <ellipse cx="75" cy="85" rx="20" ry="25" fill="#8B4513" transform="rotate(-30 75 85)"/>
    <ellipse cx="125" cy="85" rx="20" ry="25" fill="#8B4513" transform="rotate(30 125 85)"/>
    <ellipse cx="60" cy="60" rx="15" ry="20" fill="#8B4513" transform="rotate(-45 60 60)"/>
    <ellipse cx="140" cy="60" rx="15" ry="20" fill="#8B4513" transform="rotate(45 140 60)"/>
  </g>
  <g transform="translate(60, 140) scale(0.4) rotate(-10)">
    <ellipse cx="100" cy="130" rx="35" ry="30" fill="#654321"/>
    <ellipse cx="75" cy="85" rx="20" ry="25" fill="#654321" transform="rotate(-30 75 85)"/>
    <ellipse cx="125" cy="85" rx="20" ry="25" fill="#654321" transform="rotate(30 125 85)"/>
    <ellipse cx="60" cy="60" rx="15" ry="20" fill="#654321" transform="rotate(-45 60 60)"/>
    <ellipse cx="140" cy="60" rx="15" ry="20" fill="#654321" transform="rotate(45 140 60)"/>
  </g>
  <g transform="translate(140, 140) scale(0.4) rotate(20)">
    <ellipse cx="100" cy="130" rx="35" ry="30" fill="#A0522D"/>
    <ellipse cx="75" cy="85" rx="20" ry="25" fill="#A0522D" transform="rotate(-30 75 85)"/>
    <ellipse cx="125" cy="85" rx="20" ry="25" fill="#A0522D" transform="rotate(30 125 85)"/>
    <ellipse cx="60" cy="60" rx="15" ry="20" fill="#A0522D" transform="rotate(-45 60 60)"/>
    <ellipse cx="140" cy="60" rx="15" ry="20" fill="#A0522D" transform="rotate(45 140 60)"/>
  </g>
</svg>