<svg viewBox="0 0 48 48" xmlns="http://www.w3.org/2000/svg">
  <title>Academic Graduation Cap</title>
  <!-- Mortarboard top with perspective -->
  <polygon points="24,8 6,18 24,28 42,18" fill="#000" stroke="none"/>
  <!-- Mortarboard edge with shading -->
  <rect x="6" y="18" width="36" height="5" fill="#000"/>
  <rect x="6" y="20" width="36" height="3" fill="#1a1a1a"/>
  <!-- Cap button with highlight -->
  <circle cx="24" cy="18" r="2.5" fill="#FFD700"/>
  <circle cx="24.5" cy="17.5" r="1" fill="#FFF4B3" opacity="0.6"/>
  <!-- Elegant tassel -->
  <path d="M24,18 Q28,23 30,28" stroke="#FFD700" stroke-width="2" fill="none"/>
  <ellipse cx="30" cy="29" rx="3" ry="4" fill="#FFD700"/>
  <path d="M30,33 L29,38 L30,38 L31,38 L30,33" fill="#FFD700"/>
  <!-- Laurel branches -->
  <path d="M12,32 Q10,30 8,32 Q10,34 12,32 Q10,36 8,38 Q10,36 12,38" stroke="#0066CC" stroke-width="1.5" fill="none"/>
  <path d="M36,32 Q38,30 40,32 Q38,34 36,32 Q38,36 40,38 Q38,36 36,38" stroke="#0066CC" stroke-width="1.5" fill="none"/>
</svg>