<svg viewBox="0 0 48 48" xmlns="http://www.w3.org/2000/svg">
  <!-- Playful dog with toy -->
  <g>
    <!-- Ball toy -->
    <circle cx="36" cy="36" r="6" fill="#FFC107" stroke="#F57C00" stroke-width="2"/>
    <path d="M32 34 L40 38" stroke="#F57C00" stroke-width="1.5"/>
    <path d="M32 38 L40 34" stroke="#F57C00" stroke-width="1.5"/>
    
    <!-- Dog in play position -->
    <g transform="rotate(-15 24 24)">
      <!-- Body -->
      <ellipse cx="24" cy="28" rx="12" ry="8" fill="#4E9FDB" stroke="#2D5F8B" stroke-width="2"/>
      
      <!-- Head -->
      <circle cx="24" cy="16" r="9" fill="#4E9FDB" stroke="#2D5F8B" stroke-width="2"/>
      
      <!-- Ears -->
      <ellipse cx="17" cy="12" rx="4" ry="7" fill="#4E9FDB" stroke="#2D5F8B" stroke-width="2" transform="rotate(-30 17 12)"/>
      <ellipse cx="31" cy="12" rx="4" ry="7" fill="#4E9FDB" stroke="#2D5F8B" stroke-width="2" transform="rotate(30 31 12)"/>
      
      <!-- Eyes (excited) -->
      <path d="M20 15 Q 20 17 20 15" fill="none" stroke="black" stroke-width="2" stroke-linecap="round"/>
      <path d="M28 15 Q 28 17 28 15" fill="none" stroke="black" stroke-width="2" stroke-linecap="round"/>
      
      <!-- Nose -->
      <ellipse cx="24" cy="19" rx="2" ry="1.5" fill="black"/>
      
      <!-- Mouth (open, happy) -->
      <path d="M22 20 Q 24 22 26 20" fill="none" stroke="black" stroke-width="1.5" stroke-linecap="round"/>
      
      <!-- Tail (wagging) -->
      <path d="M36 26 Q 42 18 40 12" fill="none" stroke="#4E9FDB" stroke-width="4" stroke-linecap="round"/>
      
      <!-- Front legs (stretched) -->
      <rect x="16" y="30" width="4" height="10" rx="2" fill="#4E9FDB" stroke="#2D5F8B" stroke-width="2" transform="rotate(-30 18 35)"/>
      <rect x="28" y="30" width="4" height="10" rx="2" fill="#4E9FDB" stroke="#2D5F8B" stroke-width="2" transform="rotate(-10 30 35)"/>
      
      <!-- Back legs -->
      <rect x="20" y="32" width="4" height="8" rx="2" fill="#4E9FDB" stroke="#2D5F8B" stroke-width="2"/>
      <rect x="28" y="32" width="4" height="8" rx="2" fill="#4E9FDB" stroke="#2D5F8B" stroke-width="2"/>
    </g>
  </g>
</svg>