<svg viewBox="0 0 48 48" xmlns="http://www.w3.org/2000/svg">
  <!-- Dog bone in cartoon style -->
  <g>
    <!-- Bone shape -->
    <path d="M 12 20 
             Q 8 16 8 20 
             Q 8 24 12 24 
             L 36 24 
             Q 40 24 40 20 
             Q 40 16 36 20 
             L 36 28 
             Q 40 32 40 28 
             Q 40 24 36 24 
             L 12 24 
             Q 8 24 8 28 
             Q 8 32 12 28 
             Z" 
          fill="#FFF8E1" 
          stroke="#F4B942" 
          stroke-width="2"/>
    
    <!-- Center section -->
    <rect x="12" y="20" width="24" height="8" fill="#FFF8E1"/>
    
    <!-- Left ends -->
    <circle cx="12" cy="20" r="6" fill="#FFF8E1" stroke="#F4B942" stroke-width="2"/>
    <circle cx="12" cy="28" r="6" fill="#FFF8E1" stroke="#F4B942" stroke-width="2"/>
    
    <!-- Right ends -->
    <circle cx="36" cy="20" r="6" fill="#FFF8E1" stroke="#F4B942" stroke-width="2"/>
    <circle cx="36" cy="28" r="6" fill="#FFF8E1" stroke="#F4B942" stroke-width="2"/>
    
    <!-- Highlight -->
    <ellipse cx="20" cy="22" rx="3" ry="2" fill="white" opacity="0.7"/>
    
    <!-- Small bite marks -->
    <circle cx="15" cy="24" r="1.5" fill="#F4B942" opacity="0.3"/>
    <circle cx="33" cy="24" r="1.5" fill="#F4B942" opacity="0.3"/>
  </g>
</svg>