<svg viewBox="0 0 48 48" xmlns="http://www.w3.org/2000/svg">
  <!-- Dog with balloons -->
  <g>
    <!-- Balloon strings -->
    <line x1="24" y1="28" x2="12" y2="8" stroke="#666" stroke-width="1"/>
    <line x1="24" y1="28" x2="24" y2="6" stroke="#666" stroke-width="1"/>
    <line x1="24" y1="28" x2="36" y2="8" stroke="#666" stroke-width="1"/>
    
    <!-- Balloons -->
    <ellipse cx="12" cy="8" rx="6" ry="8" fill="#E91E63" stroke="#C2185B" stroke-width="1.5"/>
    <ellipse cx="24" cy="6" rx="6" ry="8" fill="#FFC107" stroke="#F57C00" stroke-width="1.5"/>
    <ellipse cx="36" cy="8" rx="6" ry="8" fill="#4CAF50" stroke="#388E3C" stroke-width="1.5"/>
    
    <!-- Balloon highlights -->
    <ellipse cx="10" cy="6" rx="2" ry="3" fill="white" opacity="0.6"/>
    <ellipse cx="22" cy="4" rx="2" ry="3" fill="white" opacity="0.6"/>
    <ellipse cx="34" cy="6" rx="2" ry="3" fill="white" opacity="0.6"/>
    
    <!-- Dog holding balloons -->
    <g transform="translate(0, 6)">
      <!-- Body -->
      <ellipse cx="24" cy="28" rx="10" ry="8" fill="#4E9FDB" stroke="#2D5F8B" stroke-width="2"/>
      
      <!-- Head -->
      <circle cx="24" cy="18" r="8" fill="#4E9FDB" stroke="#2D5F8B" stroke-width="2"/>
      
      <!-- Ears (flopping) -->
      <ellipse cx="18" cy="14" rx="3" ry="6" fill="#4E9FDB" stroke="#2D5F8B" stroke-width="2" transform="rotate(-25 18 14)"/>
      <ellipse cx="30" cy="14" rx="3" ry="6" fill="#4E9FDB" stroke="#2D5F8B" stroke-width="2" transform="rotate(25 30 14)"/>
      
      <!-- Happy eyes -->
      <path d="M21 17 Q 21 19 21 17" fill="none" stroke="black" stroke-width="2" stroke-linecap="round"/>
      <path d="M27 17 Q 27 19 27 17" fill="none" stroke="black" stroke-width="2" stroke-linecap="round"/>
      
      <!-- Nose -->
      <ellipse cx="24" cy="20" rx="1.5" ry="1" fill="black"/>
      
      <!-- Big smile -->
      <path d="M20 21 Q 24 24 28 21" fill="none" stroke="black" stroke-width="1.5" stroke-linecap="round"/>
      
      <!-- Paw holding strings -->
      <ellipse cx="24" cy="26" rx="3" ry="2" fill="#2D5F8B"/>
      
      <!-- Legs -->
      <rect x="20" y="32" width="3" height="6" rx="1.5" fill="#4E9FDB" stroke="#2D5F8B" stroke-width="2"/>
      <rect x="25" y="32" width="3" height="6" rx="1.5" fill="#4E9FDB" stroke="#2D5F8B" stroke-width="2"/>
    </g>
  </g>
</svg>