<svg viewBox="0 0 48 48" xmlns="http://www.w3.org/2000/svg">
  <!-- Cartoon dog with hearts -->
  <g>
    <!-- Floating hearts around -->
    <path d="M 8 10 C 8 8, 6 6, 4 6 C 2 6, 0 8, 0 10 C 0 8, 2 6, 4 6 C 6 6, 8 8, 8 10 L 4 14 Z" 
          fill="#E91E63" opacity="0.7" transform="translate(6, 6)"/>
    
    <path d="M 8 10 C 8 8, 6 6, 4 6 C 2 6, 0 8, 0 10 C 0 8, 2 6, 4 6 C 6 6, 8 8, 8 10 L 4 14 Z" 
          fill="#F06292" opacity="0.6" transform="translate(34, 8) scale(0.8)"/>
    
    <path d="M 8 10 C 8 8, 6 6, 4 6 C 2 6, 0 8, 0 10 C 0 8, 2 6, 4 6 C 6 6, 8 8, 8 10 L 4 14 Z" 
          fill="#E91E63" opacity="0.5" transform="translate(36, 28) scale(0.6)"/>
    
    <path d="M 8 10 C 8 8, 6 6, 4 6 C 2 6, 0 8, 0 10 C 0 8, 2 6, 4 6 C 6 6, 8 8, 8 10 L 4 14 Z" 
          fill="#F06292" opacity="0.6" transform="translate(8, 26) scale(0.7)"/>
    
    <!-- Happy dog in center -->
    <g transform="translate(0, 2)">
      <!-- Body -->
      <ellipse cx="24" cy="28" rx="11" ry="9" fill="#4E9FDB" stroke="#2D5F8B" stroke-width="2"/>
      
      <!-- Head -->
      <circle cx="24" cy="18" r="9" fill="#4E9FDB" stroke="#2D5F8B" stroke-width="2"/>
      
      <!-- Ears (perked up) -->
      <ellipse cx="17" cy="14" rx="4" ry="7" fill="#4E9FDB" stroke="#2D5F8B" stroke-width="2" transform="rotate(-15 17 14)"/>
      <ellipse cx="31" cy="14" rx="4" ry="7" fill="#4E9FDB" stroke="#2D5F8B" stroke-width="2" transform="rotate(15 31 14)"/>
      
      <!-- Heart-shaped eyes -->
      <path d="M 20 17 C 20 16, 19 15, 18 15 C 17 15, 16 16, 16 17 C 16 16, 17 15, 18 15 C 19 15, 20 16, 20 17 L 18 19 Z" 
            fill="#E91E63"/>
      <path d="M 28 17 C 28 16, 27 15, 26 15 C 25 15, 24 16, 24 17 C 24 16, 25 15, 26 15 C 27 15, 28 16, 28 17 L 26 19 Z" 
            fill="#E91E63"/>
      
      <!-- Nose -->
      <ellipse cx="24" cy="21" rx="1.5" ry="1" fill="black"/>
      
      <!-- Blushing cheeks -->
      <circle cx="16" cy="20" r="2" fill="#FFB3E6" opacity="0.6"/>
      <circle cx="32" cy="20" r="2" fill="#FFB3E6" opacity="0.6"/>
      
      <!-- Happy mouth -->
      <path d="M20 22 Q 24 24 28 22" fill="none" stroke="black" stroke-width="1.5" stroke-linecap="round"/>
      
      <!-- Tail wagging with heart -->
      <path d="M35 26 Q 40 20 38 14" fill="none" stroke="#4E9FDB" stroke-width="4" stroke-linecap="round"/>
      <path d="M 38 14 C 38 13, 37 12, 36 12 C 35 12, 34 13, 34 14 C 34 13, 35 12, 36 12 C 37 12, 38 13, 38 14 L 36 16 Z" 
            fill="#E91E63" transform="translate(2, -2) scale(0.5)"/>
      
      <!-- Front paws together -->
      <ellipse cx="20" cy="34" rx="3" ry="2" fill="#4E9FDB" stroke="#2D5F8B" stroke-width="2"/>
      <ellipse cx="28" cy="34" rx="3" ry="2" fill="#4E9FDB" stroke="#2D5F8B" stroke-width="2"/>
      
      <!-- Paws holding small heart -->
      <path d="M 24 32 C 24 31, 23 30, 22 30 C 21 30, 20 31, 20 32 C 20 31, 21 30, 22 30 C 23 30, 24 31, 24 32 L 22 34 Z" 
            fill="#E91E63" transform="translate(2, 2) scale(0.8)"/>
    </g>
  </g>
</svg>