<svg viewBox="0 0 48 48" xmlns="http://www.w3.org/2000/svg">
  <!-- Family of cartoon dogs -->
  <g>
    <!-- Dad (left) -->
    <g transform="translate(-8, 0)">
      <ellipse cx="16" cy="30" rx="7" ry="6" fill="#4E9FDB" stroke="#2D5F8B" stroke-width="1.5"/>
      <circle cx="16" cy="22" r="6" fill="#4E9FDB" stroke="#2D5F8B" stroke-width="1.5"/>
      <ellipse cx="12" cy="20" rx="2.5" ry="4" fill="#4E9FDB" stroke="#2D5F8B" stroke-width="1.5" transform="rotate(-20 12 20)"/>
      <ellipse cx="20" cy="20" rx="2.5" ry="4" fill="#4E9FDB" stroke="#2D5F8B" stroke-width="1.5" transform="rotate(20 20 20)"/>
      <circle cx="14" cy="22" r="1" fill="black"/>
      <circle cx="18" cy="22" r="1" fill="black"/>
      <ellipse cx="16" cy="24" rx="1" ry="0.7" fill="black"/>
    </g>
    
    <!-- Mom (right) -->
    <g transform="translate(8, 0)">
      <ellipse cx="32" cy="30" rx="7" ry="6" fill="#FF8C42" stroke="#D66A2C" stroke-width="1.5"/>
      <circle cx="32" cy="22" r="6" fill="#FF8C42" stroke="#D66A2C" stroke-width="1.5"/>
      <ellipse cx="28" cy="20" rx="2.5" ry="4" fill="#FF8C42" stroke="#D66A2C" stroke-width="1.5" transform="rotate(-20 28 20)"/>
      <ellipse cx="36" cy="20" rx="2.5" ry="4" fill="#FF8C42" stroke="#D66A2C" stroke-width="1.5" transform="rotate(20 36 20)"/>
      <circle cx="30" cy="22" r="1" fill="black"/>
      <circle cx="34" cy="22" r="1" fill="black"/>
      <ellipse cx="32" cy="24" rx="1" ry="0.7" fill="black"/>
    </g>
    
    <!-- Kid 1 (front left) -->
    <g transform="translate(0, 5)">
      <ellipse cx="18" cy="34" rx="5" ry="4" fill="#4E9FDB" stroke="#2D5F8B" stroke-width="1.5"/>
      <circle cx="18" cy="29" r="4" fill="#4E9FDB" stroke="#2D5F8B" stroke-width="1.5"/>
      <ellipse cx="15" cy="28" rx="2" ry="3" fill="#4E9FDB" stroke="#2D5F8B" stroke-width="1.5" transform="rotate(-15 15 28)"/>
      <ellipse cx="21" cy="28" rx="2" ry="3" fill="#4E9FDB" stroke="#2D5F8B" stroke-width="1.5" transform="rotate(15 21 28)"/>
      <circle cx="17" cy="29" r="0.7" fill="black"/>
      <circle cx="19" cy="29" r="0.7" fill="black"/>
    </g>
    
    <!-- Kid 2 (front right) -->
    <g transform="translate(0, 5)">
      <ellipse cx="30" cy="34" rx="5" ry="4" fill="#FF8C42" stroke="#D66A2C" stroke-width="1.5"/>
      <circle cx="30" cy="29" r="4" fill="#FF8C42" stroke="#D66A2C" stroke-width="1.5"/>
      <ellipse cx="27" cy="28" rx="2" ry="3" fill="#FF8C42" stroke="#D66A2C" stroke-width="1.5" transform="rotate(-15 27 28)"/>
      <ellipse cx="33" cy="28" rx="2" ry="3" fill="#FF8C42" stroke="#D66A2C" stroke-width="1.5" transform="rotate(15 33 28)"/>
      <circle cx="29" cy="29" r="0.7" fill="black"/>
      <circle cx="31" cy="29" r="0.7" fill="black"/>
    </g>
  </g>
</svg>