<svg version="1.1" xmlns="http://www.w3.org/2000/svg" style="display: block;" viewBox="0 0 2048 2048" width="512" height="512">
<path transform="translate(0,0)" fill="rgb(55,74,107)" d="M 862.249 237.535 C 1353.43 230.426 1675.85 780.238 1399.91 1206.22 C 1516.51 1327.82 1638.51 1444.23 1755.17 1565.1 C 1867.81 1681.81 1722.03 1842.37 1601.28 1769.84 C 1580.59 1757.41 1563.4 1738.25 1546.55 1721.18 L 1506.36 1680.86 C 1470.83 1645.25 1434.46 1610.38 1399.91 1573.81 C 1373.48 1549.46 1348.78 1523.06 1323.36 1497.65 L 1213.72 1389.04 C 975.396 1538.9 662.039 1521.93 452.721 1326.87 C 47.6723 949.393 295.312 255.624 862.249 237.535 z M 845.547 327.953 C 542.434 353.208 320.385 606.145 346.72 913.623 C 370.289 1188.8 597.651 1395.66 872.385 1397.81 C 884.509 1397.91 896.631 1397.14 908.751 1397.52 C 936.789 1394.22 964.721 1390.97 992.288 1384.69 C 1260.66 1323.55 1440.08 1072.68 1406.97 798.235 C 1373.38 519.744 1122.96 316.773 845.547 327.953 z M 1343.55 1279.64 C 1323.77 1302.75 1306.78 1315.76 1286.71 1335.9 C 1348.67 1399.77 1413.44 1461.06 1476.38 1523.96 L 1557.7 1605.3 C 1576.6 1624.5 1633.41 1686.01 1653.29 1696.24 C 1687.46 1706.29 1721.4 1671.23 1701.77 1641.15 C 1693.87 1629.04 1680.01 1617.93 1669.78 1607.54 L 1369.72 1305.27 C 1361.47 1297.06 1352.79 1286.48 1343.55 1279.64 z"/>
<path transform="translate(0,0)" fill="rgb(70,159,250)" d="M 653.387 728.162 L 1052.6 728.129 C 1071.31 728.133 1090.76 727.148 1109.35 729.109 C 1162.57 734.721 1157.77 814.39 1103.7 817.331 L 706.627 817.342 C 687.998 817.344 668.48 818.419 649.969 816.309 C 597.329 810.306 596.666 734.018 653.387 728.162 z"/>
<path transform="translate(0,0)" fill="rgb(70,159,250)" d="M 665.82 909.013 L 1058.52 908.978 C 1075.4 908.97 1093.28 907.672 1109.94 910.363 C 1159.68 918.396 1164.43 1001.24 1091.26 1001.03 L 709.646 1001.09 C 685.392 1001.11 646.886 1006.45 626.406 990.366 C 588.982 960.98 613.416 913.089 665.82 909.013 z"/>
</svg>