<svg preserveAspectRatio="xMidYMid meet" version="1.1" xmlns="http://www.w3.org/2000/svg" style="display: block;" viewBox="0 0 2048 2048" width="512" height="512">
<defs>
	<linearGradient id="Gradient1" gradientUnits="userSpaceOnUse" x1="1587.43" y1="420.795" x2="1353.37" y2="253.487">
		<stop class="stop0" offset="0" stop-opacity="1" stop-color="rgb(143,186,245)"/>
		<stop class="stop1" offset="1" stop-opacity="1" stop-color="rgb(188,227,244)"/>
	</linearGradient>
	<linearGradient id="Gradient2" gradientUnits="userSpaceOnUse" x1="664.345" y1="1491.59" x2="487.422" y2="1262.22">
		<stop class="stop0" offset="0" stop-opacity="1" stop-color="rgb(151,190,244)"/>
		<stop class="stop1" offset="1" stop-opacity="1" stop-color="rgb(186,226,244)"/>
	</linearGradient>
	<linearGradient id="Gradient3" gradientUnits="userSpaceOnUse" x1="679.057" y1="438.977" x2="475.454" y2="234.51">
		<stop class="stop0" offset="0" stop-opacity="1" stop-color="rgb(157,189,244)"/>
		<stop class="stop1" offset="1" stop-opacity="1" stop-color="rgb(197,222,243)"/>
	</linearGradient>
	<linearGradient id="Gradient4" gradientUnits="userSpaceOnUse" x1="1562.91" y1="1495.38" x2="1381.91" y2="1260.69">
		<stop class="stop0" offset="0" stop-opacity="1" stop-color="rgb(153,192,244)"/>
		<stop class="stop1" offset="1" stop-opacity="1" stop-color="rgb(190,230,243)"/>
	</linearGradient>
	<linearGradient id="Gradient5" gradientUnits="userSpaceOnUse" x1="677.76" y1="1875.59" x2="463.437" y2="1531.15">
		<stop class="stop0" offset="0" stop-opacity="1" stop-color="rgb(123,184,245)"/>
		<stop class="stop1" offset="1" stop-opacity="1" stop-color="rgb(172,225,243)"/>
	</linearGradient>
	<linearGradient id="Gradient6" gradientUnits="userSpaceOnUse" x1="1588.97" y1="1872.48" x2="1349.43" y2="1536.29">
		<stop class="stop0" offset="0" stop-opacity="1" stop-color="rgb(120,179,245)"/>
		<stop class="stop1" offset="1" stop-opacity="1" stop-color="rgb(180,231,243)"/>
	</linearGradient>
	<linearGradient id="Gradient7" gradientUnits="userSpaceOnUse" x1="1467.26" y1="1405.11" x2="589.268" y2="499.499">
		<stop class="stop0" offset="0" stop-opacity="1" stop-color="rgb(174,200,244)"/>
		<stop class="stop1" offset="1" stop-opacity="1" stop-color="rgb(230,240,247)"/>
	</linearGradient>
	<linearGradient id="Gradient8" gradientUnits="userSpaceOnUse" x1="1592.81" y1="834.439" x2="1343.19" y2="499.946">
		<stop class="stop0" offset="0" stop-opacity="1" stop-color="rgb(122,178,245)"/>
		<stop class="stop1" offset="1" stop-opacity="1" stop-color="rgb(172,231,243)"/>
	</linearGradient>
	<linearGradient id="Gradient9" gradientUnits="userSpaceOnUse" x1="699.499" y1="836.929" x2="443.256" y2="503.283">
		<stop class="stop0" offset="0" stop-opacity="1" stop-color="rgb(123,180,244)"/>
		<stop class="stop1" offset="1" stop-opacity="1" stop-color="rgb(170,229,244)"/>
	</linearGradient>
	<linearGradient id="Gradient10" gradientUnits="userSpaceOnUse" x1="1188.71" y1="1255.21" x2="808.553" y2="803.082">
		<stop class="stop0" offset="0" stop-opacity="1" stop-color="rgb(125,164,243)"/>
		<stop class="stop1" offset="1" stop-opacity="1" stop-color="rgb(142,201,245)"/>
	</linearGradient>
</defs>
<path transform="translate(0,0)" fill="url(#Gradient1)" d="M 1453.48 483.014 C 1397.96 479.069 1345.03 426.947 1330.14 374.997 C 1294.42 250.411 1429.6 148.348 1542.97 211.704 C 1658.92 276.506 1635.29 444.162 1499.83 481.056 C 1490.93 480.515 1461.14 480.798 1453.48 483.014 z"/>
<path transform="translate(0,0)" fill="url(#Gradient2)" d="M 536.338 1520.92 C 487.945 1498.31 458.594 1484.24 437.95 1427.64 C 393.017 1304.45 521.442 1188.36 639.685 1245.3 C 762.784 1304.57 749.284 1476.47 613.039 1520.92 C 602.694 1518.9 548.752 1520.21 536.338 1520.92 z"/>
<path transform="translate(0,0)" fill="url(#Gradient3)" d="M 547.948 483.014 C 541.679 482.362 535.684 480.003 529.802 477.847 C 360.008 415.615 426.12 170.448 593.609 189.761 C 759.647 208.906 769.564 443.25 609.494 483.014 C 595.384 480.473 563.278 482.767 547.948 483.014 z"/>
<path transform="translate(0,0)" fill="url(#Gradient4)" d="M 1430.16 1520.92 C 1294.06 1463.1 1288.4 1289.69 1414.88 1239.1 C 1493.41 1207.7 1580.68 1247.96 1611.04 1326.15 C 1641.11 1403.62 1600.96 1491.32 1523.84 1520.16 L 1521.79 1520.92 C 1485.38 1523.58 1474 1533.74 1430.16 1520.92 z"/>
<path transform="translate(0,0)" fill="url(#Gradient5)" d="M 536.338 1520.92 C 548.752 1520.21 602.694 1518.9 613.039 1520.92 C 620.49 1522.6 631.154 1520.96 639.205 1521.5 C 705.663 1525.99 764.445 1574.82 774.565 1642.06 C 778.177 1666.05 780.059 1768.75 775.422 1794.06 C 764.834 1851.83 711.165 1845.09 667.335 1845.04 L 476.854 1845.08 C 434.889 1845.23 382.784 1847.78 374.947 1789.83 C 370.382 1756.07 372.643 1652.14 380.594 1624.14 C 395.718 1570.87 443.829 1530.22 498.559 1523.82 C 510.769 1522.39 523.33 1522.67 535.401 1521.06 L 536.338 1520.92 z"/>
<path transform="translate(0,0)" fill="url(#Gradient6)" d="M 1430.16 1520.92 C 1474 1533.74 1485.38 1523.58 1521.79 1520.92 C 1530.28 1522.59 1539.49 1522.71 1548.13 1523.67 C 1610.32 1530.59 1664.7 1582.39 1674.68 1644.27 C 1679.84 1676.33 1683.23 1794.34 1664.88 1818.95 C 1640.55 1851.58 1593.8 1844.97 1558.03 1845 L 1383.97 1844.98 C 1337.27 1844.94 1280.69 1848.65 1272.14 1785.79 C 1268.17 1756.64 1269.2 1653.21 1274.74 1629.8 C 1287.64 1575.25 1336.75 1530.02 1392.54 1523.35 C 1404.69 1521.89 1417.04 1522.61 1429.17 1521.06 L 1430.16 1520.92 z"/>
<path transform="translate(0,0)" fill="url(#Gradient7)" d="M 682.124 491.198 C 685.957 482.393 699.268 471.877 706.49 465.172 C 908.444 277.684 1181.48 296.219 1364.56 491.198 C 1399.4 480.438 1426.87 488.698 1453.48 483.014 C 1461.14 480.798 1490.93 480.515 1499.83 481.056 C 1515.2 484.676 1531.02 482.604 1546.6 483.976 C 1587.77 487.602 1629.99 512.457 1653.08 546.865 C 1680.53 587.767 1683.59 704.404 1674.42 756.106 L 1675.94 756.288 C 1682.52 757.05 1689.17 756.752 1695.74 757.792 C 1882.31 787.321 1912.32 1102.76 1688.22 1151.54 C 1659.73 1157.74 1628.67 1156.45 1599.62 1156.45 L 1367.95 1156.41 C 1346.25 1156.41 1324.15 1157.23 1302.5 1156.42 C 1293.74 1163.37 1286.49 1173.36 1278.77 1181.48 C 1189.45 1275.39 1087.9 1254.28 973.408 1257.03 C 965.749 1263.99 959 1272.49 951.969 1280.12 L 909.51 1325.99 C 900.477 1335.71 890.384 1348.52 878.653 1354.9 C 855.469 1367.52 821.652 1359.26 809.492 1334.96 C 799.596 1315.18 799.372 1240.64 807.787 1215.67 C 784.254 1198.34 762.322 1177.35 744.868 1153.87 C 728.464 1160.81 704.325 1156.5 686.739 1156.48 L 593.91 1156.4 C 529.861 1156.37 450.767 1161.73 387.989 1153.74 C 243.305 1135.31 162.227 981.327 233.389 854.199 C 252.53 820.004 307.055 769.105 346.513 758.306 L 354.391 756.106 C 359.044 757.312 363.939 758.283 368.43 759.98 C 368.076 755.687 368.355 751.276 368.43 746.969 L 368.329 671.801 C 368.235 575.082 395.51 491.764 509.629 484.23 C 520.405 483.518 538.405 487.05 547.948 483.014 C 563.278 482.767 595.384 480.473 609.494 483.014 C 633.143 487.22 644.418 478.31 682.124 491.198 z"/>
<path transform="translate(0,0)" fill="url(#Gradient8)" d="M 1453.48 483.014 C 1461.14 480.798 1490.93 480.515 1499.83 481.056 C 1515.2 484.676 1531.02 482.604 1546.6 483.976 C 1587.77 487.602 1629.99 512.457 1653.08 546.865 C 1680.53 587.767 1683.59 704.404 1674.42 756.106 C 1657.13 816.351 1612.54 808.915 1564.21 808.896 L 1377.7 808.881 C 1328.96 808.977 1273.54 813.222 1265.1 745.78 C 1262.4 724.253 1263.92 701.255 1263.98 679.567 C 1264.2 584.892 1268.38 535.438 1364.56 491.198 C 1399.4 480.438 1426.87 488.698 1453.48 483.014 z"/>
<path transform="translate(0,0)" fill="url(#Gradient9)" d="M 547.948 483.014 C 563.278 482.767 595.384 480.473 609.494 483.014 C 633.143 487.22 644.418 478.31 682.124 491.198 C 783.483 532.895 783.061 606.97 782.941 700.892 C 782.912 723.206 786.363 749.027 777.631 770.234 C 758.19 817.447 694.644 808.867 652.68 808.888 L 480.226 808.9 C 435.322 808.89 383.983 814.93 368.43 759.98 C 368.076 755.687 368.355 751.276 368.43 746.969 L 368.329 671.801 C 368.235 575.082 395.51 491.764 509.629 484.23 C 520.405 483.518 538.405 487.05 547.948 483.014 z"/>
<path transform="translate(0,0)" fill="url(#Gradient10)" d="M 744.868 1153.87 C 647.724 1014.28 720.61 800.2 893.631 767.06 C 938.875 758.394 1113.01 758.66 1158.35 767.119 C 1289.18 791.529 1370.76 928.19 1346.44 1055.77 C 1337.37 1103.37 1320.79 1118.7 1302.5 1156.42 C 1293.74 1163.37 1286.49 1173.36 1278.77 1181.48 C 1189.45 1275.39 1087.9 1254.28 973.408 1257.03 C 965.749 1263.99 959 1272.49 951.969 1280.12 L 909.51 1325.99 C 900.477 1335.71 890.384 1348.52 878.653 1354.9 C 855.469 1367.52 821.652 1359.26 809.492 1334.96 C 799.596 1315.18 799.372 1240.64 807.787 1215.67 C 784.254 1198.34 762.322 1177.35 744.868 1153.87 z"/>
</svg>