<svg preserveAspectRatio="xMidYMid meet" version="1.1" xmlns="http://www.w3.org/2000/svg" style="display: block;" viewBox="0 0 2048 2048" width="512" height="512">
<defs>
	<linearGradient id="Gradient1" gradientUnits="userSpaceOnUse" x1="595.324" y1="942.024" x2="670.061" y2="1254.41">
		<stop class="stop0" offset="0" stop-opacity="1" stop-color="rgb(211,1,252)"/>
		<stop class="stop1" offset="1" stop-opacity="1" stop-color="rgb(127,21,254)"/>
	</linearGradient>
	<linearGradient id="Gradient2" gradientUnits="userSpaceOnUse" x1="1625.81" y1="1417.51" x2="949.888" y2="1062.21">
		<stop class="stop0" offset="0" stop-opacity="1" stop-color="rgb(64,14,255)"/>
		<stop class="stop1" offset="1" stop-opacity="1" stop-color="rgb(153,13,253)"/>
	</linearGradient>
	<linearGradient id="Gradient3" gradientUnits="userSpaceOnUse" x1="1111.27" y1="846.079" x2="683.131" y2="434.541">
		<stop class="stop0" offset="0" stop-opacity="1" stop-color="rgb(147,13,254)"/>
		<stop class="stop1" offset="1" stop-opacity="1" stop-color="rgb(210,8,249)"/>
	</linearGradient>
</defs>
<path transform="translate(0,0)" fill="rgb(36,0,238)" d="M 1611.6 1561.84 C 1619.98 1562.11 1697.41 1643.11 1701.62 1653.82 C 1704.96 1662.32 1696.41 1668.87 1689.69 1671.9 C 1671.89 1664.48 1606.76 1594.81 1599.18 1580.47 C 1594.22 1571.11 1604.29 1564.99 1611.6 1561.84 z"/>
<path transform="translate(0,0)" fill="rgb(36,0,238)" d="M 1632.11 755.979 C 1642.63 755.343 1645.84 759.759 1649.93 769.085 C 1643.54 785.12 1534.49 888.879 1522.07 895.609 C 1513.8 895.939 1501.83 889.558 1505.32 879.71 C 1507.92 872.373 1620.58 762.901 1632.11 755.979 z"/>
<path transform="translate(0,0)" fill="rgb(36,0,238)" d="M 683.543 1295.97 L 838.385 1296.01 C 860.592 1296.02 883.403 1294.5 905.516 1295.62 C 926.727 1296.69 927.323 1317.49 908.548 1322.11 C 894.829 1322.87 880.684 1322.14 866.929 1322.12 L 718.217 1322.13 C 706.597 1322.12 694.475 1322.82 682.923 1321.82 C 662.549 1320.04 665.771 1298.22 683.543 1295.97 z"/>
<path transform="translate(0,0)" fill="rgb(36,0,238)" d="M 854.511 1051.6 C 865.776 1051.7 914.377 1048.88 921.853 1054.66 C 934.234 1064.25 923.487 1077.66 911.457 1079.15 C 899.911 1080.58 874.9 1079 861.556 1079 L 740.5 1079 C 734.965 1079 644.901 1086.94 672.248 1055.98 C 680.06 1047.13 727.721 1051.57 739.696 1051.58 L 854.511 1051.6 z"/>
<path transform="translate(0,0)" fill="rgb(36,0,238)" d="M 896.5 1396.92 C 918.416 1398.69 911.968 1421.76 911.941 1437.68 L 911.831 1500.33 C 986.898 1523.28 974.466 1624.04 899.748 1627.4 C 819.088 1624.35 808.148 1517.61 884.835 1500.33 C 884.884 1474.28 873.784 1406.54 896.5 1396.92 z M 891.544 1526.11 C 843.967 1536.99 851.465 1603.08 903.226 1599.94 C 950.722 1589.44 942.604 1522.97 891.544 1526.11 z"/>
<path transform="translate(0,0)" fill="url(#Gradient1)" d="M 353.189 997.85 C 369.327 997.982 395.383 1031.6 406.431 1042.49 L 497.61 1132.91 C 511.184 1146.52 523.381 1161.79 539.497 1172.45 L 867.156 1172.37 C 881.529 1172.34 896.45 1171.51 910.755 1172.81 C 926.01 1174.2 926.003 1192.56 915.168 1199.79 C 897.471 1201.07 878.802 1199.84 861.005 1199.83 L 612.371 1199.77 C 510.424 1199.94 535.742 1210.97 465.79 1139.74 L 364.637 1038.84 C 352.022 1026.43 331.735 1013.75 353.189 997.85 z"/>
<path transform="translate(0,0)" fill="rgb(36,0,238)" d="M 444.685 1328.2 C 469.269 1330.62 460.234 1352.18 460.085 1369.75 L 460.066 1457.09 C 460.113 1471.12 462.796 1486.63 460.039 1500.33 C 532.319 1509.9 531.138 1614.47 451.292 1627.4 C 361.596 1622.33 364.643 1508.54 434.135 1500.33 C 434.466 1471.77 423.807 1336.16 444.685 1328.2 z M 440.456 1526.11 C 392.87 1539.55 405.083 1602.65 456.129 1599.94 C 507.706 1570.63 483.236 1519.48 440.456 1526.11 z"/>
<path transform="translate(0,0)" fill="rgb(212,0,241)" d="M 440.456 358.415 C 509.931 360.069 534.486 443.223 460.039 487.459 L 460.039 652.833 C 478.204 652.826 554.296 646.118 556.063 663.786 C 557.203 675.179 548.938 677.453 539.497 678.227 C 537.508 678.349 535.516 678.452 533.524 678.463 L 479.612 678.333 C 427.181 678.321 434.146 679.829 434.128 629.499 L 434.079 521.596 C 433.961 510.231 433.262 498.802 434.135 487.459 C 349.243 461.307 364.707 364.232 440.456 358.415 z M 440.456 385.328 C 391.091 391.368 393.517 457.132 444.685 461.245 C 494.484 446.28 488.268 386.708 440.456 385.328 z"/>
<path transform="translate(0,0)" fill="rgb(36,0,238)" d="M 1527.73 358.415 C 1586.85 343.722 1640.22 452.977 1545.63 487.459 L 1545.67 602.77 C 1545.68 665.251 1560.77 672.825 1496.6 672.268 C 1472.48 672.059 1448.24 671.463 1424.14 672.118 C 1389.68 699.095 1357.49 752.106 1320.7 778.155 C 1315.03 779.654 1310.08 778.52 1305.7 774.045 C 1290.89 758.885 1336.65 723.517 1345.61 714.304 C 1431.09 626.425 1390.27 645.314 1518.18 645.5 L 1518.18 487.459 C 1441.35 463.209 1453.57 362.544 1527.73 358.415 z M 1531.04 385.328 C 1477.25 390.008 1482.9 461.432 1535.63 461.245 C 1589.85 449.806 1572.19 375.314 1531.04 385.328 z"/>
<path transform="translate(0,0)" fill="url(#Gradient2)" d="M 1320.7 1704.55 C 1299.88 1697.28 1280.23 1683.57 1261.39 1672.19 C 1126.29 1590.65 1003.61 1483.27 987.118 1315.86 C 984.969 1294.05 986.048 1271.49 986.052 1249.57 L 986.034 1044.76 C 985.922 956.92 981.443 982.905 1055.52 981.408 C 1139.1 979.72 1222.79 933.759 1278.45 873.494 C 1287.12 864.112 1314.01 819.858 1329.38 828.189 C 1337.54 832.615 1366.67 870.798 1376.14 880.517 C 1444.76 950.917 1526.02 980.984 1622.34 980.35 C 1630.82 980.294 1651.18 977.384 1656.16 986.792 C 1663.1 999.896 1658.76 1147.11 1658.76 1171.63 C 1658.75 1240.15 1663.99 1309.54 1649.93 1377.05 C 1647.65 1377.82 1647.43 1379.77 1646.34 1381.85 L 1645.24 1381.55 C 1641.05 1370.06 1652.53 1350.07 1642.8 1339.77 C 1638.31 1339.9 1638.31 1345.91 1633.24 1345.35 C 1631.55 1342.28 1636.24 1341.1 1635.61 1337.38 L 1633.04 1336.12 C 1632.12 1337.82 1631.39 1338.81 1629.7 1339.71 C 1634.73 1299.45 1632.11 1257.8 1632.1 1217.21 L 1632.11 1008.01 C 1522.26 1008.08 1437.8 979.707 1357.15 899.287 C 1345.33 887.5 1335.2 874.324 1323.79 862.196 C 1263.62 935.379 1174.78 998.141 1077.91 1007.25 C 1056.57 1009.26 1035.63 1008.05 1014.29 1008.01 L 1014.28 1202.69 C 1014.28 1240.93 1012.09 1280.77 1015.61 1318.82 C 1028.58 1458.9 1135.9 1565.51 1250.45 1635.05 C 1261.97 1642.05 1305.78 1664.18 1311.96 1671.9 L 1311.25 1673.04 C 1326.68 1680.6 1300.44 1685.83 1331.1 1700.76 C 1327.77 1702.35 1324.2 1703.4 1320.7 1704.55 z"/>
<path transform="translate(0,0)" fill="url(#Gradient3)" d="M 877.011 343.971 C 1139.08 334.09 1292.32 628.347 1128.65 831.258 C 1075.83 896.73 1000.77 930.173 918.593 939.019 C 795.453 942.167 680.391 880.132 627.077 767.509 C 579.209 666.39 588.937 548.92 659.281 459.577 C 715.76 387.844 787.221 354.547 877.011 343.971 z M 877.011 370.016 C 721.59 388.944 606.126 514.198 626.847 673.626 C 645.159 814.526 776.853 922.263 918.593 912.019 C 1069.31 901.627 1178.38 766.852 1167.54 618.362 C 1157.21 476.839 1018.35 355.283 877.011 370.016 z"/>
<path transform="translate(0,0)" fill="rgb(212,0,241)" d="M 899.748 447.406 C 983.418 447.764 999.413 516.135 999.162 584.34 C 1014.19 584.33 1047.7 581.647 1060.11 588.177 C 1068.38 605.149 1064.97 766.178 1064.3 793.777 C 1051.34 812.195 1022.69 804.291 1002.91 804.271 L 896.5 804.229 L 796.665 804.275 C 781.502 804.286 751.303 806.471 737.946 802.629 C 721.457 797.886 729.048 715.785 729.034 699.295 C 729.01 672.519 723.761 610.823 732.479 587.624 C 740.615 581.323 783.31 584.269 796 584.34 C 796.026 507.627 811.45 453.584 899.748 447.406 z M 756.954 611.028 L 756.954 778.155 L 1038.07 778.155 L 1038.07 611.028 L 756.954 611.028 z M 891.544 475.218 C 825.906 485.764 822.704 527.617 822.947 584.34 L 908.548 584.34 L 972.012 584.34 C 972.167 528.059 964.998 469.792 891.544 475.218 z"/>
<path transform="translate(0,0)" fill="rgb(36,0,238)" d="M 1629.7 1339.71 C 1631.39 1338.81 1632.12 1337.82 1633.04 1336.12 L 1635.61 1337.38 C 1636.24 1341.1 1631.55 1342.28 1633.24 1345.35 C 1638.31 1345.91 1638.31 1339.9 1642.8 1339.77 C 1652.53 1350.07 1641.05 1370.06 1645.24 1381.55 L 1646.34 1381.85 C 1647.43 1379.77 1647.65 1377.82 1649.93 1377.05 C 1603.64 1509.18 1514.33 1590.84 1395.64 1663.01 C 1374.51 1675.86 1353.7 1690.6 1331.1 1700.76 C 1300.44 1685.83 1326.68 1680.6 1311.25 1673.04 L 1311.96 1671.9 L 1320.7 1676.13 C 1463.99 1601.22 1593.16 1503.34 1629.7 1339.71 z"/>
<path transform="translate(0,0)" fill="rgb(36,0,238)" d="M 1320.7 1056.37 C 1404.33 1049.69 1454.96 1160.63 1419.48 1161.42 C 1404.29 1161.75 1402.08 1140.26 1397.07 1129.82 C 1374.71 1083.21 1314.95 1064.28 1275.51 1104.57 C 1256.47 1124.02 1256.72 1145.65 1256.73 1171.14 L 1256.83 1212.8 C 1295.95 1213.43 1335.17 1212.72 1374.3 1212.74 C 1434.64 1212.77 1459.1 1229.35 1459.09 1292.9 L 1459 1328.2 C 1459.09 1349.97 1461.28 1386.45 1458.1 1406.48 C 1448.7 1465.72 1376.08 1452.64 1333.82 1452.61 L 1280.65 1452.59 C 1241.8 1452.67 1199.35 1453.39 1191.53 1403.53 C 1188.81 1386.19 1189.04 1274.74 1191.81 1260.69 C 1196.49 1236.93 1211.43 1225.56 1230.35 1212.8 L 1230.15 1167.79 C 1229.87 1105.5 1254.21 1063.54 1320.7 1056.37 z M 1245.98 1240.02 C 1204.01 1245.75 1216.87 1308.14 1216.96 1340.22 C 1217.03 1364.83 1206.88 1419.72 1241.94 1425.84 C 1274.53 1431.53 1369.15 1427.6 1404.79 1426.88 C 1422.46 1420.13 1430.15 1413.15 1431.55 1394.41 C 1432.94 1375.96 1433.65 1273.01 1428.87 1260.19 C 1416.68 1227.5 1331.05 1239.95 1300.71 1239.96 C 1286.32 1239.96 1258.98 1238.32 1245.98 1240.02 z"/>
<path transform="translate(0,0)" fill="rgb(36,0,238)" d="M 1320.7 1292.27 C 1353.32 1292.28 1356.67 1318.66 1338.98 1339.71 C 1338.64 1351.13 1342.74 1369.95 1331.1 1377.05 C 1308.07 1377.06 1311.81 1357.12 1311.96 1339.71 C 1297.54 1323.85 1294.22 1298.79 1320.7 1292.27 z"/>
</svg>