<svg version="1.1" xmlns="http://www.w3.org/2000/svg" style="display: block;" viewBox="0 0 2048 2048" width="512" height="512">
<path transform="translate(0,0)" fill="rgb(51,50,49)" d="M 1621.68 305.397 C 1691.87 306.114 1681.08 374.393 1681.06 421.421 L 1681.11 1312.92 C 1681.2 1328.01 1681.83 1343.29 1680.43 1358.32 C 1661.63 1560.42 1431.35 1668.79 1260.93 1566.94 C 1199.73 1530.36 1150.25 1463.12 1133.2 1394.5 C 1078.51 1174.27 1307.88 974.894 1517.06 1072.07 C 1533.15 1079.54 1547.99 1089.16 1563.02 1098.5 L 1563.02 704.748 L 926.304 897.757 C 919.383 900.509 922.796 952.812 922.808 963.479 L 922.854 1418.92 C 922.87 1539.53 891.559 1635.69 774.414 1696.96 C 607.951 1784.02 407.42 1684.79 369.747 1503.27 C 339.093 1355.57 437.846 1206.52 585.481 1176.28 C 669.941 1158.98 735.915 1179.93 804.98 1225.39 L 804.948 645.146 C 804.949 557.944 788.262 551.612 880.487 523.994 L 1510.96 335.437 C 1546.98 324.778 1584.31 309.873 1621.68 305.397 z M 1563.02 443.233 C 1468.38 467.216 1375.4 498.143 1282 526.416 L 922.801 634.736 C 922.802 680.761 921.693 727.114 922.801 773.101 C 970.173 760.279 1016.77 744.361 1063.77 730.231 L 1367.18 638.304 C 1428.74 619.273 1500.59 593.952 1563.02 579.766 C 1563.02 566.605 1564.12 445.457 1563.02 443.233 z M 639.618 1287.02 C 598.228 1287.52 558.376 1303.85 529.21 1333.52 C 427.745 1436.75 506.07 1612.89 648.159 1608.89 L 649.715 1608.84 C 880.043 1585.91 830.789 1275.76 639.618 1287.02 z M 1391.45 1165.39 C 1345.05 1170.59 1305.3 1191.09 1276.11 1227.99 C 1189.7 1337.23 1281.29 1500.98 1419.24 1485.86 C 1459.49 1483.47 1500.27 1459.88 1526.61 1430.11 C 1620.59 1323.91 1528.98 1151 1391.45 1165.39 z"/>
<path transform="translate(0,0)" fill="rgb(229,228,105)" d="M 1391.45 1165.39 C 1528.98 1151 1620.59 1323.91 1526.61 1430.11 C 1500.27 1459.88 1459.49 1483.47 1419.24 1485.86 C 1281.29 1500.98 1189.7 1337.23 1276.11 1227.99 C 1305.3 1191.09 1345.05 1170.59 1391.45 1165.39 z M 1396.63 1255.31 C 1298.1 1269.93 1316.65 1404.15 1409.31 1397.47 C 1506.32 1382.15 1484.51 1244.51 1396.63 1255.31 z"/>
<path transform="translate(0,0)" fill="rgb(229,228,105)" d="M 639.618 1287.02 C 830.789 1275.76 880.043 1585.91 649.715 1608.84 L 648.159 1608.89 C 506.07 1612.89 427.745 1436.75 529.21 1333.52 C 558.376 1303.85 598.228 1287.52 639.618 1287.02 z M 634.618 1381.21 C 545.235 1398.78 564.443 1529.95 657.765 1517.69 C 743.47 1496.84 729.808 1374.42 634.618 1381.21 z"/>
</svg>