<svg preserveAspectRatio="xMidYMid meet" version="1.1" xmlns="http://www.w3.org/2000/svg" style="display: block;" viewBox="0 0 2048 2048" width="512" height="512">
<defs>
	<linearGradient id="Gradient1" gradientUnits="userSpaceOnUse" x1="1795.35" y1="881.78" x2="1270.57" y2="446.311">
		<stop class="stop0" offset="0" stop-opacity="1" stop-color="rgb(118,153,245)"/>
		<stop class="stop1" offset="1" stop-opacity="1" stop-color="rgb(164,223,241)"/>
	</linearGradient>
	<linearGradient id="Gradient2" gradientUnits="userSpaceOnUse" x1="1627.79" y1="787.942" x2="1393.55" y2="511.209">
		<stop class="stop0" offset="0" stop-opacity="1" stop-color="rgb(201,235,246)"/>
		<stop class="stop1" offset="1" stop-opacity="1" stop-color="rgb(240,251,251)"/>
	</linearGradient>
	<linearGradient id="Gradient3" gradientUnits="userSpaceOnUse" x1="912.184" y1="1066.55" x2="205.685" y2="1434.12">
		<stop class="stop0" offset="0" stop-opacity="1" stop-color="rgb(141,185,241)"/>
		<stop class="stop1" offset="1" stop-opacity="1" stop-color="rgb(175,226,242)"/>
	</linearGradient>
	<linearGradient id="Gradient4" gradientUnits="userSpaceOnUse" x1="1667.19" y1="1623.59" x2="588.828" y2="498.825">
		<stop class="stop0" offset="0" stop-opacity="1" stop-color="rgb(108,162,245)"/>
		<stop class="stop1" offset="1" stop-opacity="1" stop-color="rgb(243,246,241)"/>
	</linearGradient>
	<linearGradient id="Gradient5" gradientUnits="userSpaceOnUse" x1="1426.96" y1="1562.53" x2="1411.85" y2="1225.51">
		<stop class="stop0" offset="0" stop-opacity="1" stop-color="rgb(176,220,246)"/>
		<stop class="stop1" offset="1" stop-opacity="1" stop-color="rgb(245,254,249)"/>
	</linearGradient>
</defs>
<path transform="translate(0,0)" fill="url(#Gradient1)" d="M 1185.11 479.045 C 1195.85 341.728 1300.84 352.257 1409.14 353.585 C 1431.06 352.9 1453.14 353.577 1475.08 353.577 L 1674.48 353.591 C 1821.09 353.735 1823.79 423.197 1823.76 550.073 L 1823.75 765.551 C 1823.74 790.668 1825.49 817.41 1819.63 841.965 C 1796.21 940.067 1686.52 927.871 1610.81 927.861 L 1440 927.871 L 1357.51 927.876 C 1214.79 927.853 1188.32 896.136 1185.11 754.66 C 1186.31 739.484 1185.19 723.364 1185.16 708.101 L 1185.11 614.584 L 1185.11 479.045 z"/>
<path transform="translate(0,0)" fill="rgb(176,211,248)" d="M 1185.11 479.045 C 1195.85 341.728 1300.84 352.257 1409.14 353.585 C 1403.31 355.59 1393.74 353.042 1390.03 358.498 C 1392.32 360.491 1396.63 359.34 1397.64 361.427 C 1393.26 366.075 1373.78 374.977 1383.64 381.342 C 1379.56 386.985 1337.73 439.931 1335.5 441.183 C 1330.26 444.123 1322.59 444.247 1317.1 447.045 C 1313.81 448.719 1282.45 479.767 1276.06 485.323 C 1258.97 500.177 1238.93 516.134 1219.04 527.301 C 1202.21 536.751 1190.57 533.534 1189.91 555.527 C 1189.06 555.55 1187.86 554.92 1187.06 554.621 C 1184.49 574.797 1188.88 599.709 1185.11 614.584 L 1185.11 479.045 z"/>
<path transform="translate(0,0)" fill="url(#Gradient2)" d="M 1503.61 436.22 C 1537.06 434.791 1561.01 508.057 1584.49 534.083 C 1613.98 544.744 1722.3 540.137 1694.27 604.192 C 1681.07 634.352 1645.59 652.165 1629.13 681.069 C 1629.99 712.491 1663.7 813.052 1594.1 802.779 C 1566.74 798.741 1537.27 770.431 1506.66 764.82 C 1473 770.668 1397.89 847.57 1380.19 787.839 C 1373.17 764.143 1391.19 716.79 1387.16 690.013 C 1383.38 664.852 1328.57 622.042 1320.52 596.715 C 1302.68 540.595 1411.61 551.716 1435.3 530.59 C 1459.07 509.396 1472.71 443.753 1503.61 436.22 z"/>
<path transform="translate(0,0)" fill="url(#Gradient3)" d="M 514.678 931.514 C 572.67 930.609 630.814 931.542 688.819 931.516 L 739.342 931.373 C 810.117 930.552 859.018 946.332 889.093 1019.89 C 897.869 1044.94 897.806 1067.75 897.773 1094.06 L 897.755 1156.33 C 897.747 1213.82 896.228 1271.71 897.698 1329.14 C 898.043 1342.63 894.742 1362.93 897.73 1375.28 C 897.82 1426.89 904.977 1484.44 866.121 1525.15 C 814.064 1579.69 732.729 1565.84 662.571 1565.85 L 384.742 1565.84 C 294.683 1565.8 227.454 1542.01 226.025 1439.43 C 224.763 1348.85 225.947 1258.1 225.951 1167.51 L 225.937 1092.51 C 225.644 1023.24 234.313 961.673 315.534 937.756 C 344.516 929.222 383.895 931.46 414.254 931.483 L 514.678 931.514 z"/>
<path transform="translate(0,0)" fill="rgb(115,148,247)" d="M 439.911 1120.98 C 498.288 1115.03 508.124 1146.11 543.729 1172.87 C 551.966 1168.3 558.546 1161.21 565.354 1154.8 C 661.15 1064.55 770.178 1177.43 724.788 1264.69 C 714.177 1285.08 692.89 1302.61 676.762 1318.76 L 628.368 1367.14 C 611.736 1383.77 570.554 1432.4 551.279 1437 C 527.008 1442.79 509.645 1417.04 494.83 1402.26 L 423.811 1330.38 C 406.86 1313.29 386.126 1297.16 371.702 1277.97 C 325.057 1215.94 363.9 1134.63 439.911 1120.98 z"/>
<path transform="translate(0,0)" fill="url(#Gradient4)" d="M 514.678 931.514 C 513.158 899.393 514.609 867.281 514.669 835.141 L 514.697 666.925 C 514.945 609.497 522.765 563.726 565.574 521.678 C 610.201 477.845 663.9 478.984 721.775 479.013 L 1185.11 479.045 L 1185.11 614.584 L 1185.16 708.101 C 1185.19 723.364 1186.31 739.484 1185.11 754.66 C 1188.32 896.136 1214.79 927.853 1357.51 927.876 L 1440 927.871 L 1440 1120.98 L 1510.42 1120.91 C 1557.12 1120.87 1591.28 1118.95 1627.12 1154.68 C 1674.47 1201.89 1661.45 1280.33 1661.46 1341.49 L 1661.42 1563.09 C 1660.86 1667.95 1609.1 1694.96 1511.6 1695.01 L 1188.44 1694.98 C 1062.12 1694.16 1053.62 1614.6 1053.6 1510.49 L 1053.63 1375.28 L 897.73 1375.28 C 894.742 1362.93 898.043 1342.63 897.698 1329.14 C 896.228 1271.71 897.747 1213.82 897.755 1156.33 L 897.773 1094.06 C 897.806 1067.75 897.869 1044.94 889.093 1019.89 C 859.018 946.332 810.117 930.552 739.342 931.373 L 688.819 931.516 C 630.814 931.542 572.67 930.609 514.678 931.514 z"/>
<path transform="translate(0,0)" fill="rgb(167,202,247)" d="M 1016.01 781.292 C 987.577 803.768 899.911 934.463 870.927 861.579 C 860.069 834.273 896.132 810.146 912.28 793.466 C 931.246 773.875 949.956 751.918 970.627 734.198 C 999.368 709.56 1040.55 736.398 1022.82 772.289 C 1020.56 775.051 1017.47 778.066 1016.01 781.292 z"/>
<path transform="translate(0,0)" fill="rgb(150,185,247)" d="M 1066.97 813.362 C 1109.87 786.091 1134.46 831.379 1114.77 854.911 C 1091.04 883.257 1053.68 916.785 1027.09 943.569 C 1008.9 961.895 965.653 1017.73 942.437 967.035 C 929.816 937.87 962.378 917.992 980.012 899.887 C 1008.5 870.64 1036.39 840.459 1066.97 813.362 z"/>
<path transform="translate(0,0)" fill="rgb(182,229,248)" d="M 1185.11 1341.84 L 1280.93 1341.84 L 1280.93 1568.2 L 1185.11 1568.2 L 1185.11 1341.84 z"/>
<path transform="translate(0,0)" fill="url(#Gradient5)" d="M 1399.08 1225.12 C 1456.8 1221.01 1442.53 1310.98 1425.17 1345.01 C 1464.52 1343.92 1530.94 1344.86 1541.88 1394.02 C 1543.02 1399.12 1536.54 1438.73 1534.94 1451.03 C 1532.47 1469.96 1524.99 1475.71 1525.21 1498.17 C 1525.58 1535.38 1497.4 1556.48 1463.74 1563.89 C 1386.17 1562.34 1370.16 1575.34 1303.96 1532.62 L 1303.96 1371.59 L 1306.06 1370.59 C 1406.33 1322.35 1351.77 1245.72 1399.08 1225.12 z"/>
</svg>