<svg version="1.1" xmlns="http://www.w3.org/2000/svg" style="display: block;" viewBox="0 0 2048 2048" width="512" height="512">
<path transform="translate(0,0)" fill="rgb(71,35,34)" d="M 1394.32 256.168 L 1534.79 256.146 C 1567.43 256.16 1601.11 249.799 1629.42 269.411 C 1663.69 293.146 1673.25 345.213 1648.86 379.34 C 1629.92 405.847 1604.33 408.73 1574.86 408.567 L 1461.1 408.548 C 1447.86 408.55 1411.87 411.928 1401.09 403.281 C 1389.85 394.264 1388.32 377.053 1398.23 366.668 C 1410.08 354.248 1453.02 360.074 1468.71 360.07 L 1600.07 360.017 C 1612.47 349.608 1619.33 332.51 1609.54 317.858 C 1599.28 302.512 1578.62 305.683 1562.77 305.807 L 1431.16 305.959 C 1362.72 306.021 1353.89 308.488 1343.38 372.766 L 1322.99 492.886 C 1318.36 520.618 1314.46 548.407 1309.35 576.072 C 1350.87 577.069 1392.74 576.169 1434.29 576.033 C 1521.21 575.75 1526.2 575.696 1525.87 674.283 C 1525.74 713.283 1527.61 751.425 1476.5 754.889 C 1472.84 788.039 1471.13 821.34 1468.71 854.593 L 1417.47 1484.07 C 1413.32 1532 1406.81 1677.88 1390.9 1718.08 C 1360.37 1795.2 1295.91 1794.41 1229.04 1794.42 L 995.217 1794.38 C 929.99 1794.39 860.111 1805.59 828.851 1730.68 C 789.051 1767.83 720.733 1808.51 665.672 1778.76 C 643.215 1787.75 626.126 1790.22 602.219 1786.97 C 563.627 1787.53 525.013 1755.92 498.868 1730.55 C 419.072 1653.13 345.074 1484.98 406.107 1378.12 C 447.632 1305.42 560.638 1251.41 637.072 1295.63 C 636.919 1284.47 637.068 1273.28 637.072 1262.12 C 554.964 1256.6 491.294 1207.52 465.228 1128.19 C 459.228 1109.94 446.922 1048.76 456.011 1032.35 C 464.741 1016.6 485.566 1020.31 500.39 1020.34 C 602.092 1020.53 668.995 1048.61 697.462 1155.32 C 718.274 1138.51 765.558 1116.21 764.622 1161.98 C 763.85 1199.74 684.443 1175.97 685.943 1295.63 C 744.97 1278.03 754.693 1287.42 802.458 1281 L 763.733 815.271 C 761.993 795.22 759.204 775.031 759.731 754.889 C 736.464 753.453 712.682 736.667 711.192 711.712 C 710.069 692.89 709.214 628.126 712.592 612.424 C 722.157 567.953 767.111 576.037 801.54 576.043 L 1137.62 576.075 C 1178.46 576.075 1219.48 576.968 1260.31 576.072 C 1261.85 538.724 1273.76 492.497 1280.02 454.917 L 1293.42 372.482 C 1304.16 307.763 1318.02 262.661 1394.32 256.168 z M 1205.35 754.889 L 809.443 754.889 C 807.122 817.673 822.374 891.842 823.418 957.495 C 906.726 955.753 987.688 962.016 1068.56 982.191 C 1143.4 1000.86 1180.4 1009.74 1260.31 1009.14 C 1312.43 1010.26 1357.33 1002.9 1407.78 991.402 C 1409.98 975.181 1410.85 958.685 1412.18 942.363 L 1418.47 862.182 C 1421.03 826.654 1425.32 790.493 1424.86 754.889 L 1276.54 754.889 C 1265.14 821.135 1251.31 887.239 1241.6 953.733 C 1224.02 953.777 1209.65 950.067 1193.52 943.159 L 1225.39 754.889 C 1218.72 754.789 1212.02 754.551 1205.35 754.889 z M 809.443 625.714 L 759.731 625.714 C 759.722 652.69 759.305 679.73 759.731 706.698 L 1431.25 706.698 L 1476.5 706.698 C 1476.51 679.739 1477.08 652.659 1476.5 625.714 C 1452.09 625.02 1427.57 625.703 1403.15 625.709 L 809.443 625.714 z M 868.267 1699 C 886.639 1752.11 934.607 1745.02 979.674 1745.04 L 1201.1 1745.04 C 1253.38 1745.02 1317.47 1755.97 1344.64 1699 C 1236.04 1700.4 1127.22 1699.02 1018.59 1699.01 L 919.679 1698.99 C 903.462 1698.99 885.319 1700.62 869.374 1698 L 868.267 1699 z M 828.851 1006.91 C 829.947 1022.68 830.741 1038.6 833.273 1054.22 C 841.008 1053.5 849.183 1054.18 856.98 1054.18 L 1071.72 1054.24 C 1090.02 1054.22 1126.1 1056.42 1142.53 1052.17 C 1102.66 1043.05 1061.34 1030.61 1022.32 1022.34 C 958.626 1008.84 893.864 1004.92 828.851 1006.91 z"/>
<path transform="translate(0,0)" fill="rgb(169,200,169)" d="M 515.336 1068.82 C 570.481 1067.23 620.986 1088.9 642.905 1143.15 C 647.393 1154.26 661.901 1211.82 641.166 1211.88 C 556.81 1207.91 511.615 1150.77 503.663 1068.82 L 515.336 1068.82 z"/>
<path transform="translate(0,0)" fill="rgb(253,102,101)" d="M 759.731 1331.1 C 850.5 1321.89 918.006 1415.19 896.948 1502.82 C 878.621 1579.08 828.563 1679.91 759.902 1721.77 C 696.147 1760.65 693.885 1716.07 643.273 1733.83 C 614.111 1744.07 606.126 1737.58 577.484 1730.68 C 562.142 1717.31 545.247 1706.4 530.525 1692.15 C 476.774 1640.12 434.275 1549.37 433.207 1473.71 C 431.786 1373.17 521.898 1308.36 618.273 1339.17 C 678.8 1358.52 656.257 1359.06 716.978 1338.08 C 731.194 1333.17 744.739 1331.22 759.731 1331.1 z"/>
<path transform="translate(0,0)" fill="rgb(71,35,34)" d="M 795.118 1440.18 C 845.341 1436.49 828.442 1510.28 819.99 1539.47 C 802.722 1599.11 765.964 1650.61 710.995 1680.87 C 693.166 1681.56 671.809 1671.66 677.33 1649.74 C 683.037 1627.08 776.826 1597.99 777.547 1486.91 C 777.685 1465.76 772.081 1450.19 795.118 1440.18 z"/>
<path transform="translate(0,0)" fill="rgb(245,184,171)" d="M 1142.53 1052.17 C 1230.03 1065.52 1317.24 1060.13 1403.91 1045.2 L 1355.41 1619.3 C 1353.31 1642.58 1353.14 1677.57 1344.64 1699 C 1236.04 1700.4 1127.22 1699.02 1018.59 1699.01 L 919.679 1698.99 C 903.462 1698.99 885.319 1700.62 869.374 1698 L 868.267 1699 C 862.965 1687.85 876.67 1673.78 882.192 1664.38 C 954.901 1540.51 1002.77 1395.82 854.273 1302.92 L 839.85 1129.02 C 838.038 1107.91 832.366 1073.28 833.273 1054.22 C 841.008 1053.5 849.183 1054.18 856.98 1054.18 L 1071.72 1054.24 C 1090.02 1054.22 1126.1 1056.42 1142.53 1052.17 z"/>
<path transform="translate(0,0)" fill="rgb(71,35,34)" d="M 1248.53 1574.94 L 1298.78 1574.94 C 1298.07 1608.54 1298.77 1642.31 1298.78 1675.93 C 1257.06 1676.5 1215.23 1675.93 1173.5 1675.93 L 1122.98 1675.93 L 1122.98 1627.01 L 1248.53 1627.01 L 1248.53 1574.94 z"/>
<path transform="translate(0,0)" fill="rgb(230,37,58)" d="M 1090.87 1306.37 C 1194.79 1297.77 1217.67 1451.44 1110.24 1466.81 C 998.354 1471.61 990.066 1319.59 1090.87 1306.37 z"/>
<path transform="translate(0,0)" fill="rgb(254,254,254)" d="M 1101.88 1353.34 C 1144.32 1357.61 1144.82 1411.08 1101.88 1420.19 C 1055.76 1416.58 1053.2 1359.53 1101.88 1353.34 z"/>
</svg>