<svg version="1.1" xmlns="http://www.w3.org/2000/svg" style="display: block;" viewBox="0 0 2048 2048" width="512" height="512">
<path transform="translate(0,0)" fill="rgb(0,0,0)" d="M 412.438 473.593 C 441.957 472.92 471.661 473.578 501.198 473.578 L 1593.01 473.569 C 1609.49 473.56 1626.74 472.55 1643.13 474.082 C 1750.89 484.156 1763.37 646.812 1640.25 665.324 L 453.843 665.39 C 416.255 665.44 383.612 667.177 352.984 640.787 C 287.793 584.616 324.388 477.894 412.438 473.593 z"/>
<path transform="translate(0,0)" fill="rgb(0,0,0)" d="M 402.893 924.968 C 418.051 923.272 435.172 924.884 450.56 924.904 L 1560.26 924.963 C 1604.3 924.966 1654.02 915.987 1691.19 944.979 C 1758.71 997.633 1728.4 1108.8 1647.75 1117.09 C 1636.87 1118.9 1624.6 1117.27 1613.52 1117.18 L 497.192 1117.1 C 467.211 1117.12 436.622 1118.67 406.744 1117.34 C 304.239 1112.79 283.247 947.882 402.893 924.968 z"/>
<path transform="translate(0,0)" fill="rgb(0,0,0)" d="M 412.438 1379.77 C 432.846 1378.51 454.003 1379.72 474.504 1379.73 L 1565.17 1379.77 C 1603.07 1379.74 1645.66 1373.39 1680.14 1392.75 C 1760.06 1437.61 1741.56 1547.05 1643.86 1572.98 C 1546.11 1571.86 1448.23 1572.98 1350.47 1572.98 L 445.708 1573.02 C 431.74 1573.02 417.071 1573.92 403.208 1572.3 C 294.934 1559.6 290.343 1385.02 412.438 1379.77 z"/>
</svg>