<svg version="1.1" xmlns="http://www.w3.org/2000/svg" style="display: block;" viewBox="0 0 2048 2048" width="512" height="512">
<path transform="translate(0,0)" fill="rgb(10,183,206)" d="M 561.183 1253.4 C 571.233 1258.88 599.501 1270.77 610.564 1275.44 C 632.037 1284.52 704.766 1304.3 718.772 1302.1 L 719.491 1301.18 C 722.499 1312.22 739.477 1398.99 738.995 1404.56 C 681.029 1376.07 599.534 1305.26 561.183 1253.4 z"/>
<path transform="translate(0,0)" fill="rgb(24,143,81)" d="M 256.811 559.218 C 259.758 563.183 259.442 568.983 259.988 573.875 C 264.743 616.409 304.008 613.095 336.383 613.117 L 390.014 613.134 C 431.934 613.144 483.358 627.169 500.814 580.157 C 509.234 596.134 501.53 615.47 495.68 631.105 C 486.02 639.394 477.509 646.768 465.602 651.693 C 447.336 656.311 307.632 657.85 283.202 652.937 C 240.549 644.359 229.607 589.028 256.811 559.218 z"/>
<path transform="translate(0,0)" fill="rgb(54,179,110)" d="M 256.811 559.218 C 274.759 537.657 302.839 541.076 327.931 541.053 L 387.357 541.018 C 440.576 541.014 453.896 530.221 495.68 563.017 L 500.814 580.157 C 483.358 627.169 431.934 613.144 390.014 613.134 L 336.383 613.117 C 304.008 613.095 264.743 616.409 259.988 573.875 C 259.442 568.983 259.758 563.183 256.811 559.218 z"/>
<path transform="translate(0,0)" fill="rgb(37,59,128)" d="M 885.975 1530.63 C 904.255 1527.78 919.588 1528 937.87 1530.63 C 1013.23 1551.48 1055.08 1629.44 1015.49 1702.2 C 985.145 1757.96 911.571 1776.59 856.798 1745.97 C 762.19 1693.08 785.309 1557.37 885.975 1530.63 z"/>
<path transform="translate(0,0)" fill="rgb(24,143,81)" d="M 975.02 1669.46 C 950.885 1724.59 868.629 1725.25 850.418 1664.42 C 840.109 1629.98 859.02 1591.3 893.977 1581.21 C 859.874 1654.5 902.634 1679.95 975.02 1669.46 z"/>
<path transform="translate(0,0)" fill="rgb(54,179,110)" d="M 893.977 1581.21 C 945.409 1560.18 993.873 1620.35 975.02 1669.46 C 902.634 1679.95 859.874 1654.5 893.977 1581.21 z"/>
<path transform="translate(0,0)" fill="rgb(37,59,128)" d="M 1406.01 1530.63 C 1428.76 1524.85 1448.11 1525.93 1471 1530.63 C 1540.33 1550.99 1576.21 1629.19 1543.44 1695.25 C 1515.53 1751.49 1442.8 1776.16 1386.64 1747.99 C 1287.1 1698.05 1303.71 1563.35 1406.01 1530.63 z"/>
<path transform="translate(0,0)" fill="rgb(24,143,81)" d="M 1493.78 1678.12 C 1442.77 1762.59 1311.64 1663.51 1397.37 1589.69 C 1401.58 1649.97 1432.95 1680.22 1493.78 1678.12 z"/>
<path transform="translate(0,0)" fill="rgb(54,179,110)" d="M 1397.37 1589.69 C 1460.36 1544.5 1535.13 1622.53 1493.78 1678.12 C 1432.95 1680.22 1401.58 1649.97 1397.37 1589.69 z"/>
<path transform="translate(0,0)" fill="rgb(254,254,254)" d="M 873.444 1445.64 L 1177.7 1445.68 C 1204.85 1445.72 1231.48 1447.27 1258.02 1440.52 C 1264.45 1446.7 1477.05 1443.74 1497.36 1443.77 C 1536.61 1443.82 1621.62 1429.38 1639.22 1472.18 C 1646.32 1493.32 1637.09 1517.88 1615.28 1525.14 C 1585.22 1535.15 1491.04 1520.93 1471 1530.63 C 1448.11 1525.93 1428.76 1524.85 1406.01 1530.63 C 1396.82 1524.19 1267.96 1527.55 1249.81 1527.55 L 1070.23 1527.56 C 1049.7 1527.55 953.848 1523.78 937.87 1530.63 C 919.588 1528 904.255 1527.78 885.975 1530.63 C 852.823 1509.3 769.803 1563.67 757.161 1480.27 C 760.522 1476.15 763.343 1471.48 766.298 1467.06 C 776.708 1443.47 801.006 1446.72 822.927 1445.64 L 873.444 1445.64 z"/>
<path transform="translate(0,0)" fill="rgb(185,191,208)" d="M 757.161 1480.27 C 760.522 1476.15 763.343 1471.48 766.298 1467.06 C 774.703 1487.4 783.096 1491.6 804.349 1492.04 C 833.42 1492.64 862.851 1490.85 892.005 1490.88 L 1457.02 1490.92 C 1503.29 1490.92 1549.8 1492.04 1596.04 1490.96 C 1615.94 1490.5 1625.51 1486.71 1639.22 1472.18 C 1646.32 1493.32 1637.09 1517.88 1615.28 1525.14 C 1585.22 1535.15 1491.04 1520.93 1471 1530.63 C 1448.11 1525.93 1428.76 1524.85 1406.01 1530.63 C 1396.82 1524.19 1267.96 1527.55 1249.81 1527.55 L 1070.23 1527.56 C 1049.7 1527.55 953.848 1523.78 937.87 1530.63 C 919.588 1528 904.255 1527.78 885.975 1530.63 C 852.823 1509.3 769.803 1563.67 757.161 1480.27 z"/>
<path transform="translate(0,0)" fill="rgb(85,205,210)" d="M 495.68 631.105 L 539.907 631.105 L 584.196 631.105 C 588.706 659.991 595.568 688.691 601.492 717.328 C 607.792 738.425 611.04 761.379 615.428 783.022 L 711.122 1257.43 C 714.082 1271.89 717.611 1286.54 719.491 1301.18 L 718.772 1302.1 C 704.766 1304.3 632.037 1284.52 610.564 1275.44 C 599.501 1270.77 571.233 1258.88 561.183 1253.4 C 549.741 1244.59 537.339 1221.43 529.002 1209 C 448.931 1089.55 416.109 946.011 430.316 803.847 C 429.514 769.12 450.939 681.132 465.602 651.693 C 477.509 646.768 486.02 639.394 495.68 631.105 z"/>
<path transform="translate(0,0)" fill="rgb(165,227,231)" d="M 495.68 631.105 L 539.907 631.105 L 584.196 631.105 C 588.706 659.991 595.568 688.691 601.492 717.328 L 600.436 718.538 C 594.569 696.934 589.522 648.542 582.565 633.517 C 572.187 631.235 537.864 630.726 527.653 632.308 C 535.367 647.385 528.117 640.135 523.558 649.505 C 510.152 677.055 471.014 673.807 456.749 694.02 L 455.245 694.366 L 452.715 691.853 C 443.804 714.352 434.716 776.684 432.338 800.139 C 432.168 801.817 432.513 803.43 430.316 803.847 C 429.514 769.12 450.939 681.132 465.602 651.693 C 477.509 646.768 486.02 639.394 495.68 631.105 z"/>
<path transform="translate(0,0)" fill="rgb(165,227,231)" d="M 511.176 563.017 C 547.169 475.781 675.086 369.095 754.89 328.722 C 1072.2 168.198 1468.15 310.587 1604.5 639.814 C 1620.46 678.347 1634.6 719.513 1640.24 760.935 C 1640.94 766.01 1641.75 767.914 1646.68 768.966 L 1417.54 768.966 L 890.146 768.966 C 821.981 770.056 753.635 768.99 685.452 768.966 C 677.136 729.142 669.352 689.224 660.621 649.486 C 654.238 620.439 651.395 573.148 616.279 564.351 C 597.69 559.694 533.671 563.335 511.176 563.017 z"/>
<path transform="translate(0,0)" fill="rgb(253,198,21)" d="M 1285.08 438.018 L 1381.23 437.938 C 1403.23 437.935 1447.52 430.006 1447.26 464.605 C 1447.09 486.935 1441.11 509.028 1441.2 531.677 C 1424.23 530.678 1406.6 531.619 1389.56 531.616 L 1285.08 531.677 C 1285.06 503.277 1287.91 465.145 1285.08 438.018 z"/>
<path transform="translate(0,0)" fill="rgb(253,198,21)" d="M 1073.98 438.018 C 1088.55 435.852 1105.76 437.982 1120.67 438.007 L 1237.26 438.018 L 1285.08 438.018 C 1287.91 465.145 1285.06 503.277 1285.08 531.677 L 1389.56 531.616 C 1406.6 531.619 1424.23 530.678 1441.2 531.677 C 1439.34 547.837 1437.74 564.085 1435.23 580.157 C 1430.65 640.78 1418.55 709.502 1417.54 768.966 L 890.146 768.966 C 887.468 755.372 887.548 740.623 885.696 726.799 C 877.063 662.355 869.66 597.72 860.624 533.34 C 847.588 440.466 841.138 437.952 924.885 437.952 L 1023.86 438.018 C 1040.46 438.05 1057.43 438.861 1073.98 438.018 z"/>
<path transform="translate(0,0)" fill="rgb(248,173,14)" d="M 1285.08 531.677 L 1389.56 531.616 C 1406.6 531.619 1424.23 530.678 1441.2 531.677 C 1439.34 547.837 1437.74 564.085 1435.23 580.157 C 1388.53 579.208 1293.07 586.602 1251.96 580.157 C 1267.74 565.145 1285.08 556.49 1285.08 531.677 z"/>
<path transform="translate(0,0)" fill="rgb(232,155,18)" d="M 1073.98 438.018 C 1088.55 435.852 1105.76 437.982 1120.67 438.007 L 1237.26 438.018 L 1285.08 438.018 C 1287.91 465.145 1285.06 503.277 1285.08 531.677 C 1285.08 556.49 1267.74 565.145 1251.96 580.157 C 1220.92 583.563 1176.32 580.082 1143.66 580.106 C 1058.3 580.169 1023.49 592.577 1023.75 499.001 L 1023.86 438.018 C 1040.46 438.05 1057.43 438.861 1073.98 438.018 z"/>
<path transform="translate(0,0)" fill="rgb(254,254,254)" d="M 1073.98 438.018 C 1088.55 435.852 1105.76 437.982 1120.67 438.007 L 1237.26 438.018 L 1237.26 527.933 L 1073.98 527.933 L 1073.98 438.018 z"/>
<path transform="translate(0,0)" fill="rgb(56,118,206)" d="M 511.176 563.017 C 533.671 563.335 597.69 559.694 616.279 564.351 C 651.395 573.148 654.238 620.439 660.621 649.486 C 669.352 689.224 677.136 729.142 685.452 768.966 C 753.635 768.99 821.981 770.056 890.146 768.966 L 1417.54 768.966 L 1646.68 768.966 L 1725.18 768.873 C 1739.87 768.856 1756.75 767.132 1771.08 770.261 C 1846.15 786.642 1781.62 901.548 1767.22 940.019 L 1653.51 1248.59 C 1626.94 1320.65 1640.66 1327.95 1556.15 1327.86 C 1523.13 1327.82 1489.98 1327.18 1456.97 1327.8 C 1399.05 1378.32 1330.65 1416.12 1258.02 1440.52 C 1231.48 1447.27 1204.85 1445.72 1177.7 1445.68 L 873.444 1445.64 L 822.927 1445.64 C 801.006 1446.72 776.708 1443.47 766.298 1467.06 C 763.343 1471.48 760.522 1476.15 757.161 1480.27 C 755.221 1467.48 744.277 1414.51 738.995 1404.56 C 739.477 1398.99 722.499 1312.22 719.491 1301.18 C 717.611 1286.54 714.082 1271.89 711.122 1257.43 L 615.428 783.022 C 611.04 761.379 607.792 738.425 601.492 717.328 C 595.568 688.691 588.706 659.991 584.196 631.105 L 539.907 631.105 L 495.68 631.105 C 501.53 615.47 509.234 596.134 500.814 580.157 L 495.68 563.017 L 500.814 563.017 L 511.176 563.017 z"/>
<path transform="translate(0,0)" fill="rgb(37,59,128)" d="M 495.68 563.017 L 500.814 563.017 C 502.277 573.584 539.626 605.427 539.907 631.105 L 495.68 631.105 C 501.53 615.47 509.234 596.134 500.814 580.157 L 495.68 563.017 z"/>
<path transform="translate(0,0)" fill="rgb(85,205,210)" d="M 799.291 1327.8 L 1415.89 1327.75 C 1426.75 1327.73 1447.35 1325.71 1456.97 1327.8 C 1399.05 1378.32 1330.65 1416.12 1258.02 1440.52 C 1231.48 1447.27 1204.85 1445.72 1177.7 1445.68 L 873.444 1445.64 L 822.927 1445.64 C 823.26 1425.49 815.146 1404.38 812.384 1384.35 C 804.906 1367.28 802.714 1346.14 799.291 1327.8 z"/>
<path transform="translate(0,0)" fill="rgb(10,183,206)" d="M 812.384 1384.35 C 830.769 1392.22 847.815 1406.06 865.519 1415.73 C 885.753 1426.78 906.563 1434.14 927.238 1443.82 C 909.37 1445.58 891.235 1442.03 873.444 1445.64 L 822.927 1445.64 C 823.26 1425.49 815.146 1404.38 812.384 1384.35 z"/>
<path transform="translate(0,0)" fill="rgb(116,202,252)" d="M 698.577 828.339 C 713.882 827.641 729.523 828.326 744.859 828.328 L 1516.08 828.345 C 1544.78 828.344 1723.93 822.802 1737.78 832.628 C 1743.1 846.796 1720.43 891.867 1715 905.628 C 1683.1 986.492 1653.33 1068.27 1623.96 1150.08 L 1581.34 1264.95 L 787.153 1264.95 C 757.394 1137.1 736.567 1007.48 708.28 879.355 C 704.628 862.815 700.105 846.077 697.502 829.372 L 698.577 828.339 z"/>
<path transform="translate(0,0)" fill="rgb(56,118,206)" d="M 1524.23 870.161 C 1562.51 866.325 1552.95 928.948 1552.96 951.447 L 1552.98 1150.03 C 1552.97 1176.58 1562.28 1219.92 1524.23 1222.95 C 1484.93 1220.49 1493.73 1177.75 1493.74 1150.42 L 1493.77 955.993 C 1493.78 923.529 1482.34 873.844 1524.23 870.161 z"/>
<path transform="translate(0,0)" fill="rgb(56,118,206)" d="M 893.977 870.161 C 937.682 863.269 927.245 927.133 927.251 951.614 L 927.274 1143.51 C 927.369 1171.74 936.307 1212.58 901.568 1222.95 C 861.421 1225.07 866.823 1188 866.822 1160.95 L 866.85 961.496 C 866.857 929.116 854.266 876.213 893.977 870.161 z"/>
<path transform="translate(0,0)" fill="rgb(56,118,206)" d="M 1310.88 870.161 C 1324.04 869.104 1339.75 875.332 1344.08 888.851 C 1347.95 900.94 1345.75 1019.41 1345.76 1044.19 L 1345.83 1140.54 C 1345.84 1170.39 1355.26 1212.29 1321.01 1222.95 C 1273.78 1226.01 1285.08 1165.52 1285.06 1135.69 L 1285.07 949.754 C 1285.07 919.917 1274.98 878.354 1310.88 870.161 z"/>
<path transform="translate(0,0)" fill="rgb(56,118,206)" d="M 1097.04 870.161 C 1146.43 866.649 1134.61 924.272 1134.62 956.202 L 1134.64 1141.08 C 1134.64 1169.28 1143.39 1207.5 1112.81 1222.95 C 1063.74 1231.99 1073.97 1168.45 1073.96 1139.91 L 1073.97 946.616 C 1073.96 919.114 1064.72 881.907 1097.04 870.161 z"/>
</svg>