<svg version="1.1" xmlns="http://www.w3.org/2000/svg" style="display: block;" viewBox="0 0 2048 2048" width="512" height="512">
<defs>
	<linearGradient id="Gradient1" gradientUnits="userSpaceOnUse" x1="1109.89" y1="607.504" x2="736.083" y2="604.307">
		<stop class="stop0" offset="0" stop-opacity="1" stop-color="rgb(152,183,187)"/>
		<stop class="stop1" offset="1" stop-opacity="1" stop-color="rgb(109,198,209)"/>
	</linearGradient>
</defs>
<path transform="translate(0,0)" fill="rgb(121,197,205)" d="M 501.772 411.657 C 515.725 409.781 544.197 411.644 560.296 411.668 L 1156.56 411.657 C 1128.41 417.586 1072.38 404.967 1049.88 415.731 L 1049.79 416.557 C 1054.11 420.27 1054.22 420.784 1052.35 426.271 C 1037.16 470.812 1133.01 446.076 1163.38 455.111 L 764.735 455.115 C 696.424 455.116 628.023 455.884 559.72 455.111 C 557.496 453.809 552.107 453.684 549.506 453.284 C 599.916 451.042 654.516 458.521 702.206 454.159 L 699.026 454.204 L 702.234 453.991 L 702.01 452.341 C 697.46 448.587 689.705 449.009 684.447 445.545 L 683.244 446.591 C 667.606 442.487 686.891 411.689 701.812 414.527 L 701.511 413.271 C 685.637 411.242 663.375 412.974 646.957 413.151 C 602.678 413.629 545.614 415.912 502.918 411.776 L 501.772 411.657 z"/>
<path transform="translate(0,0)" fill="rgb(212,170,132)" d="M 1156.56 411.657 L 1644.83 411.657 C 1693.58 411.589 1754.14 404.149 1764.08 470.898 C 1767.36 492.874 1765.67 516.72 1765.67 538.962 L 1765.74 1051.87 C 1765.73 1054.32 1765.75 1056.76 1765.62 1059.21 C 1756.3 1038.29 1773.91 909.988 1761.01 898.146 C 1750.71 894.589 1734.42 910.049 1726.29 900.194 L 1724.68 900.626 L 1726.14 900.083 L 1725.24 901.028 L 1725.05 899.562 C 1723.26 903.472 1723.07 1122.62 1722.09 1151.17 L 1722.1 802.268 C 1722.1 744.614 1720.82 686.665 1722.09 629.038 C 1634.62 629.011 1547 630.113 1459.54 629.038 C 1448.65 626.998 1416.76 629.092 1403.03 628.968 L 1140.32 627.354 C 1131.9 627.383 1107.03 631.297 1103.62 621.191 C 1108.6 612.215 1114.9 596.607 1109.03 586.951 L 1106.94 586.532 C 1107.71 586.209 1222.44 584.332 1245.5 584.59 C 1267.66 584.838 1373.85 590.23 1390.63 584.479 C 1402.24 583.709 1414.35 584.446 1426.03 584.457 L 1722.09 584.479 L 1722.15 520.763 C 1722.14 439.479 1704.55 455.048 1633.12 455.09 L 1163.38 455.111 C 1133.01 446.076 1037.16 470.812 1052.35 426.271 C 1054.22 420.784 1054.11 420.27 1049.79 416.557 L 1049.88 415.731 C 1072.38 404.967 1128.41 417.586 1156.56 411.657 z"/>
<path transform="translate(0,0)" fill="rgb(86,179,222)" d="M 1762.31 1580.42 C 1753.89 1613.31 1721.4 1634.32 1688.59 1634.59 L 406.613 1633.85 C 357.924 1633.99 292.16 1638.4 284.73 1570.85 C 283.134 1556.34 283.838 1541.28 283.875 1526.69 L 283.502 481.974 C 283.328 405.457 346.698 411.639 402.082 411.623 L 501.772 411.657 L 502.918 411.776 C 545.614 415.912 602.678 413.629 646.957 413.151 C 663.375 412.974 685.637 411.242 701.511 413.271 L 701.812 414.527 C 686.891 411.689 667.606 442.487 683.244 446.591 L 684.447 445.545 C 689.705 449.009 697.46 448.587 702.01 452.341 L 702.234 453.991 L 699.026 454.204 L 702.206 454.159 C 654.516 458.521 599.916 451.042 549.506 453.284 C 552.107 453.684 557.496 453.809 559.72 455.111 L 420.938 455.072 C 399.268 455.075 360.815 452.45 341.029 457.613 C 318.053 479.017 327.932 552.218 327.842 584.479 C 346.797 584.455 366.121 583.603 385.032 584.479 L 375.585 585.505 C 409.487 583.711 442.33 585.95 476.016 586.219 L 561.824 586.475 C 578.771 586.628 595.602 585.159 612.511 584.633 C 665.828 582.974 719.262 587.408 772.523 585.963 C 773.182 587.359 773.103 586.639 772.789 588.12 L 774.305 587.711 L 774.528 586.063 L 776.502 586.65 C 771.446 589.267 765.114 589.699 760.399 592.498 C 736.059 606.95 718.274 623.419 762.211 626.884 C 745.06 629.863 706.532 628.195 683.989 629.011 C 603.822 631.912 513.898 630.419 433.579 628.95 C 407.96 628.481 349.251 620.935 327.842 629.038 C 325.923 639.206 327.824 671.022 327.833 683.343 L 327.859 1506.66 C 327.856 1580.7 314.593 1589.75 397.113 1589.87 L 1690 1590.7 C 1699.59 1590.68 1705.87 1586.39 1712.71 1580.42 C 1726.63 1562.7 1722.06 1539.91 1722.08 1518.51 L 1722.09 1151.17 C 1723.07 1122.62 1723.26 903.472 1725.05 899.562 L 1725.24 901.028 L 1726.14 900.083 L 1724.68 900.626 L 1726.29 900.194 C 1734.42 910.049 1750.71 894.589 1761.01 898.146 C 1773.91 909.988 1756.3 1038.29 1765.62 1059.21 L 1765.64 1506.4 C 1765.64 1525.36 1769.98 1563.16 1762.31 1580.42 z"/>
<path transform="translate(0,0)" fill="rgb(101,149,214)" d="M 1722.09 1151.17 C 1723.07 1122.62 1723.26 903.472 1725.05 899.562 L 1725.24 901.028 L 1726.14 900.083 L 1724.68 900.626 L 1726.29 900.194 C 1734.42 910.049 1750.71 894.589 1761.01 898.146 C 1773.91 909.988 1756.3 1038.29 1765.62 1059.21 L 1765.64 1506.4 C 1765.64 1525.36 1769.98 1563.16 1762.31 1580.42 C 1760.53 1580.72 1742.71 1611.38 1731.38 1620.18 C 1708.45 1637.99 1674.23 1632.41 1647.48 1632.6 C 1604.49 1632.9 1562.89 1635.28 1520.05 1629.42 L 1519.33 1626.09 C 1509.22 1624.82 1505.85 1619.9 1501.36 1620.44 C 1481.2 1622.88 1486.66 1615.29 1481.97 1614.98 C 1466.39 1613.96 1472.6 1614.67 1475.31 1597.38 L 1474.53 1596.55 C 1471.16 1597.67 1468.04 1599.55 1464.64 1600.45 L 1464.81 1598.55 C 1480.7 1585.48 1637.29 1593.61 1664.33 1593.49 C 1679.09 1593.43 1703.44 1596.51 1713.28 1582.57 L 1712.71 1580.42 C 1726.63 1562.7 1722.06 1539.91 1722.08 1518.51 L 1722.09 1151.17 z"/>
<path transform="translate(0,0)" fill="rgb(121,197,205)" d="M 385.032 502.486 C 395.732 502.321 415.068 499.799 423.933 506.471 C 437.21 516.463 427.397 536.153 412.785 537.863 C 402.116 537.929 380.399 541.113 372.074 534.427 C 360.697 525.289 365.85 504.459 385.032 502.486 z"/>
<path transform="translate(0,0)" fill="rgb(121,197,205)" d="M 467.223 502.486 C 477.433 502.345 494.845 500.798 504.427 503.199 C 524.012 508.107 525.594 528.739 508.925 537.863 C 495.398 538.919 480.735 539.093 467.223 537.863 C 453.322 527.007 451.465 511.796 467.223 502.486 z"/>
<path transform="translate(0,0)" fill="rgb(121,197,205)" d="M 556.548 502.486 C 567.218 501.644 589.824 499.449 599.163 504.032 C 615.29 511.947 612.687 533.377 595.957 537.863 C 584.386 538.479 570.375 540.516 559.133 537.507 C 541.439 532.771 539.946 509.121 556.548 502.486 z"/>
<path transform="translate(0,0)" fill="rgb(212,170,132)" d="M 1541.89 482.309 C 1569.72 480.602 1641.82 478.302 1660.75 491.721 C 1691.02 513.171 1673.32 557.219 1640.02 561.806 L 1572.45 561.81 C 1554.84 561.828 1535.3 565.172 1519.89 554.626 C 1487.24 532.282 1506.66 486.514 1541.89 482.309 z"/>
<path transform="translate(0,0)" fill="rgb(101,149,214)" d="M 1233.86 1412.41 C 1314.38 1408.31 1335.18 1523.87 1241.84 1542.99 C 1155.93 1545.23 1142.03 1421.96 1233.86 1412.41 z M 1233.86 1456.18 C 1205.36 1466.57 1210.33 1500.54 1241.84 1498.91 C 1267.19 1488.98 1263.49 1452.66 1233.86 1456.18 z"/>
<path transform="translate(0,0)" fill="rgb(101,149,214)" d="M 859.182 1409.23 C 924.47 1402.61 980.752 1497.51 880.815 1542.99 C 791.142 1546.28 771.345 1429.11 859.182 1409.23 z M 864.822 1456.18 C 834.987 1459.82 844.701 1500.57 872.246 1498.91 C 899.719 1488.7 893.117 1448.68 864.822 1456.18 z"/>
<path transform="translate(0,0)" fill="url(#Gradient1)" d="M 385.032 584.479 C 431.09 583.353 477.401 584.511 523.494 584.515 L 1193.08 584.477 C 1258.91 584.475 1324.81 583.76 1390.63 584.479 C 1373.85 590.23 1267.66 584.838 1245.5 584.59 C 1222.44 584.332 1107.71 586.209 1106.94 586.532 L 1109.03 586.951 C 1114.9 596.607 1108.6 612.215 1103.62 621.191 C 1107.03 631.297 1131.9 627.383 1140.32 627.354 L 1403.03 628.968 C 1416.76 629.092 1448.65 626.998 1459.54 629.038 C 1445.69 629.683 1431.56 629.09 1417.69 629.079 L 327.842 629.038 C 349.251 620.935 407.96 628.481 433.579 628.95 C 513.898 630.419 603.822 631.912 683.989 629.011 C 706.532 628.195 745.06 629.863 762.211 626.884 C 718.274 623.419 736.059 606.95 760.399 592.498 C 765.114 589.699 771.446 589.267 776.502 586.65 L 774.528 586.063 L 774.305 587.711 L 772.789 588.12 C 773.103 586.639 773.182 587.359 772.523 585.963 C 719.262 587.408 665.828 582.974 612.511 584.633 C 595.602 585.159 578.771 586.628 561.824 586.475 L 476.016 586.219 C 442.33 585.95 409.487 583.711 375.585 585.505 L 385.032 584.479 z"/>
<path transform="translate(0,0)" fill="rgb(86,179,222)" d="M 556.548 733.268 C 571.547 733.285 648.85 730.732 657.063 735.988 C 664.077 745.213 683.356 821.512 685.452 836.899 L 1356.82 836.897 C 1384.29 836.893 1412.05 835.928 1439.49 836.899 C 1444.5 840.589 1447.48 844.28 1450.79 849.521 C 1452.02 877.311 1411.51 1014.99 1403.32 1047.15 C 1396.67 1073.25 1391.78 1100.12 1383.89 1125.86 C 1374.82 1155.44 1337.89 1145.77 1310.81 1145.77 L 815.866 1145.73 C 799.304 1145.73 782.598 1145.03 766.061 1145.74 C 771.995 1172.9 777.802 1200.29 785.282 1227.06 L 786.574 1226.9 C 820.382 1223.05 854.987 1222.55 888.967 1220.18 L 1238.48 1195.01 C 1258.44 1193.38 1340.13 1181.6 1353.75 1193.26 C 1368.4 1205.8 1359.64 1227.03 1342.64 1230.8 C 1316.24 1236.67 1234.81 1239.76 1207.25 1239.97 C 1172.25 1243.12 1137.21 1244.98 1102.17 1247.57 L 829.722 1267.46 C 805.932 1269.26 779.263 1266.28 765.387 1289.48 C 750.935 1313.64 762.741 1346.98 790.01 1355.07 C 804.027 1359.23 884.943 1356.92 904.263 1356.91 L 1319.47 1356.99 C 1335.43 1357.03 1382.89 1349.48 1386.79 1372.06 C 1393.65 1411.74 1342.66 1399.99 1319.17 1399.99 L 841.189 1400.05 C 787.484 1400.03 726.833 1399.26 716.954 1328.02 C 712.001 1292.3 724.693 1271.31 745.285 1243.96 C 729.43 1189.74 719.036 1133.67 705.406 1078.83 L 627.788 775.149 C 600.016 774.201 516.349 782.171 497.896 766.259 C 482.691 726.914 533.14 733.315 556.548 733.268 z M 700.117 880.948 C 702.988 896.245 706.18 911.597 710.459 926.57 L 912.938 926.57 C 913.506 911.406 913.042 896.124 912.938 880.948 L 771.31 880.912 C 747.631 880.906 723.778 880.303 700.117 880.948 z M 1188.39 880.948 L 1185.9 882.154 C 1183.22 891.715 1185.21 915.488 1185.29 926.57 L 1347.32 926.591 C 1354.89 926.6 1386.44 929.714 1390.63 926.57 C 1392.02 910.889 1395.81 896.128 1399.71 880.948 L 1188.39 880.948 z M 965.603 880.948 C 949.185 882.664 957.995 908.415 956.932 926.57 L 1138.09 926.57 C 1150.58 926.757 1145.08 892.285 1144.56 880.948 L 965.603 880.948 z M 1185.29 968.954 L 1185.29 1014.47 C 1204.12 1014.47 1361.92 1015.77 1365.48 1014.36 C 1366.92 1012.71 1366.97 1011.59 1367.2 1009.46 C 1370.4 996.003 1373.81 982.554 1376.34 968.954 L 1185.29 968.954 z M 956.932 968.954 C 956.622 984.128 956.804 999.3 956.932 1014.47 L 1144.56 1014.47 L 1144.56 968.954 L 956.932 968.954 z M 722.337 968.954 L 734.706 1014.47 L 912.938 1014.47 L 912.938 968.954 L 722.337 968.954 z M 956.932 1059.21 C 954.819 1072.89 957.216 1088.9 956.932 1102.95 L 1144.56 1102.95 L 1144.56 1059.21 L 956.932 1059.21 z M 1241.84 1059.21 L 1185.29 1059.21 L 1185.29 1102.95 L 1297.25 1102.95 C 1312.88 1102.83 1328.78 1102.16 1344.38 1102.95 C 1347.83 1088.51 1351.5 1073.91 1353.61 1059.21 L 1241.84 1059.21 z M 766.061 1059.21 C 759.134 1059.29 752.212 1059.4 745.285 1059.21 C 748.604 1073.77 753.261 1088.3 755.945 1102.95 L 892.337 1102.95 L 912.938 1102.95 L 912.938 1059.21 L 766.061 1059.21 z"/>
</svg>