<svg version="1.1" xmlns="http://www.w3.org/2000/svg" style="display: block;" viewBox="0 0 2048 2048" width="512" height="512">
<defs>
	<linearGradient id="Gradient1" gradientUnits="userSpaceOnUse" x1="1123.15" y1="1792.29" x2="923.518" y2="510.141">
		<stop class="stop0" offset="0" stop-opacity="1" stop-color="rgb(255,72,60)"/>
		<stop class="stop1" offset="1" stop-opacity="1" stop-color="rgb(156,166,233)"/>
	</linearGradient>
</defs>
<path transform="translate(0,0)" fill="rgb(136,136,224)" d="M 557.946 473.273 C 590.106 470.253 621.704 498.288 605.586 531.985 C 600.941 541.696 518.426 609.655 499.141 631.836 C 482.781 650.653 474.015 668.063 449.549 677.194 C 411.369 680.601 385.155 641.037 404.433 608.331 C 428.015 568.322 511.973 485.358 557.946 473.273 z"/>
<path transform="translate(0,0)" fill="rgb(136,136,224)" d="M 1470.32 473.273 C 1507.57 468.575 1737.24 634.058 1619.74 677.194 C 1580.89 683.618 1562.42 645.999 1539.88 621.7 C 1519.36 599.581 1439.71 542.779 1435.1 526.153 C 1427.44 498.527 1444.58 479.471 1470.32 473.273 z"/>
<path transform="translate(0,0)" fill="rgb(136,136,224)" d="M 898.811 229.011 C 915.578 228.37 932.599 228.974 949.395 228.973 L 1110.39 228.981 C 1143.16 228.985 1184.84 226.399 1185.72 273.778 C 1186.78 330.855 1106.03 317.008 1070.62 316.958 C 1070.2 326.287 1070.46 335.619 1070.62 344.951 L 1070.62 424.059 L 978.025 424.059 L 978.025 316.958 C 951.002 314.187 904.606 323.804 882.04 309.444 C 846.508 286.833 860.549 237.19 898.811 229.011 z"/>
<path transform="translate(0,0)" fill="url(#Gradient1)" d="M 547.764 712.51 C 561.665 698.148 575.949 683.744 590.765 670.328 C 822.566 460.434 1181.45 444.799 1423.62 643.531 C 1439.25 656.36 1456.73 669.12 1470.32 684.16 C 1506.83 717.934 1619.67 862.939 1623.65 912.964 C 1634.53 930.602 1639.24 954.659 1644.96 974.341 C 1739.3 1299.04 1571.61 1635.23 1256.04 1757.34 C 1039.12 1841.29 791.91 1796.95 612.868 1651.48 C 417.448 1492.69 340.1 1243.98 397.587 1000.55 C 404.467 971.412 412.651 940.287 424.869 912.964 C 447.588 846.115 502.054 764.119 547.764 712.51 z M 717.352 771.723 C 664.9 821.428 630.942 854.42 594.521 920.445 C 590.588 927.576 587.035 935.331 582.575 942.117 C 580.705 948.07 577.323 954.114 574.786 959.868 C 437.29 1271.82 660.959 1634.87 1007.66 1644.86 C 1234.64 1651.39 1442.33 1493.85 1500.92 1275.55 C 1527.05 1178.22 1488.9 1185.61 1401.75 1185.64 L 1231.92 1185.61 C 1167.76 1185.12 1154.61 1149.85 1110.38 1105.06 C 1093.65 1088.12 1069.99 1071.74 1062.33 1048.26 C 1055.92 1028.59 1058.32 953.879 1058.65 929.12 C 1057.09 908.312 1058.65 886.377 1058.65 865.426 L 1058.65 728.981 C 1058.99 677.941 1048.11 666.235 996.706 667.784 C 891.344 670.957 801.68 710.413 717.352 771.723 z"/>
<path transform="translate(0,0)" fill="rgb(254,137,113)" d="M 1006.73 1124.32 C 1044.48 1123.08 1073.12 1162.65 1049.1 1193 C 1038.31 1206.63 1024.49 1217.97 1012.19 1230.2 L 881.72 1360.88 C 862.852 1379.81 848.587 1400.47 820.517 1403.91 C 795.841 1404.55 772.52 1389.14 768.894 1363.57 C 764.504 1332.62 788.947 1317.23 808.552 1298.22 L 943.451 1167.43 C 963.25 1148.48 977.741 1127.48 1006.73 1124.32 z"/>
</svg>