<svg preserveAspectRatio="xMidYMid meet" version="1.1" xmlns="http://www.w3.org/2000/svg" style="display: block;" viewBox="0 0 2048 2048" width="512" height="512">
<path transform="translate(0,0)" fill="rgb(0,0,0)" d="M 917.435 492.72 C 917.18 415.463 924.574 344.678 1019.12 335.393 C 1047.27 332.702 1079.98 348.066 1099.42 367.734 C 1134.31 403.029 1129.17 447.093 1129.04 492.72 C 1189.26 505.431 1262.75 551.751 1306.71 594.298 C 1408.8 693.09 1433.35 798.248 1433.33 932.119 L 1433.29 1034.62 C 1433.25 1135.45 1440.75 1204.78 1494.17 1291.76 C 1515.12 1325.87 1552.98 1354.81 1553.29 1394.64 C 1553.56 1428.68 1528.64 1465.37 1494.58 1473.45 C 1470.76 1479.1 1432.14 1476.36 1406.87 1476.36 L 1261.25 1476.3 C 1254.36 1603.04 1159.97 1711.27 1029.12 1710.72 C 908.533 1713.24 775.363 1598.6 788.727 1476.3 C 719.611 1474.25 624.903 1483.25 559.727 1475.21 C 509.402 1469.01 480.525 1412.65 499.913 1367.25 C 507.844 1348.68 524.599 1333.98 536.479 1317.79 C 601.92 1228.59 616.526 1152.26 616.507 1042.7 L 616.455 937.457 C 616.443 917 615.93 896.409 616.967 875.979 C 626.066 696.793 741.36 540.993 917.435 492.72 z M 1013.02 377.182 C 956.791 389.252 957.083 435.256 957.085 482.876 C 984.207 479.808 1010.4 477.638 1037.75 478.123 C 1054.85 479.272 1072.5 480.026 1089.41 482.876 C 1089.92 426.233 1086.09 372.349 1013.02 377.182 z M 1009.55 518.747 C 909.451 521.556 821.483 566.854 753.895 638.412 L 753.068 639.288 C 668.877 728.885 656.853 822.16 656.901 936.809 L 656.945 1043.87 C 656.969 1153.75 643.673 1238.4 577.452 1329.69 C 563.329 1349.16 534.264 1373.03 534.583 1399.11 C 535.131 1444.06 591.702 1435.6 621.146 1435.59 L 1037.75 1435.54 L 1429.65 1435.63 C 1459.48 1435.67 1514.54 1442.56 1512.3 1395.06 C 1511.14 1370.52 1490.38 1357.54 1477.15 1339.27 C 1406.24 1241.33 1392.44 1155.29 1392.49 1037.24 L 1392.52 933.821 C 1392.53 802.323 1370.19 701.315 1263.56 608.442 C 1197.3 550.729 1098.46 510.006 1009.55 518.747 z M 828.29 1476.3 L 827.144 1477.45 C 856.486 1728.24 1163.57 1728 1215.76 1515.1 C 1218.39 1502.27 1220.53 1489.39 1221.27 1476.3 L 1180.62 1476.3 C 1165.62 1628.12 993.844 1684.08 904.219 1573.75 C 879.082 1542.81 871.756 1514.77 866.872 1476.3 C 854.007 1476.12 841.152 1475.86 828.29 1476.3 z M 917.435 1476.3 C 898.073 1477.67 915.704 1514.6 920.463 1524.38 C 955.236 1595.85 1043.2 1610.54 1102.3 1558.85 C 1126.02 1536.23 1137.04 1508.87 1138.57 1476.3 L 917.435 1476.3 z"/>
<path transform="translate(0,0)" fill="rgb(0,0,0)" d="M 622.604 594.034 C 599.974 593.998 528.537 513.862 524.949 505.414 C 519.446 492.457 528.759 481.663 540.299 477.162 C 560.069 475.984 635.212 559.909 638.271 568.497 C 642.619 580.705 633.557 590.458 622.604 594.034 z"/>
<path transform="translate(0,0)" fill="rgb(0,0,0)" d="M 1435.25 594.034 C 1420.5 594.715 1406.06 584.539 1411.72 568.02 C 1415.34 557.447 1482.39 485.203 1498.08 477.162 C 1576.69 473.063 1445.13 586.6 1435.25 594.034 z"/>
<path transform="translate(0,0)" fill="rgb(0,0,0)" d="M 788.727 948.81 C 752.691 976.831 753.87 918.696 754.183 900.742 C 756.705 756.016 855.887 636.42 1003.29 623.406 C 1021.97 620.874 1057.39 629.125 1040.72 652.219 C 1030.09 666.959 1007.52 661.967 991.509 664.723 C 863.835 686.697 793.881 788.527 793.859 912.622 C 793.856 924.884 796.127 938.243 788.727 948.81 z"/>
<path transform="translate(0,0)" fill="rgb(0,0,0)" d="M 531.568 726 C 520.771 724.033 422.35 671.111 409.481 661.117 C 394.836 649.744 403.145 631.831 418.279 626.935 C 434.917 625.858 540.573 685.533 545.323 693.257 C 553.305 706.236 542.592 719.406 531.568 726 z"/>
<path transform="translate(0,0)" fill="rgb(0,0,0)" d="M 1526.39 726 C 1516.9 725.796 1509.35 720.917 1505.87 711.703 C 1496.92 688.044 1549.79 667.117 1564.56 658.508 C 1583.13 647.685 1600.64 634.717 1620.85 626.935 C 1629.23 627.177 1636.95 631.173 1640.53 639.102 C 1650.82 661.917 1612.34 676.756 1597.8 685.432 C 1575.88 698.521 1549.86 716.748 1526.39 726 z"/>
<path transform="translate(0,0)" fill="rgb(0,0,0)" d="M 362.782 855.893 C 345.201 842.023 347.77 819.519 370.684 816.416 C 401.594 815.094 461.644 813.688 491.796 816.828 C 519.73 819.737 517.398 853.161 491.88 855.893 C 449.721 856.948 404.91 857.499 362.782 855.893 z"/>
<path transform="translate(0,0)" fill="rgb(0,0,0)" d="M 1679.89 861.184 C 1666.16 862.376 1561.01 861.929 1554.71 859.758 C 1534.77 852.888 1541.14 827.944 1558.01 820.942 C 1580.44 820.59 1684.29 814.164 1693.36 830.949 C 1700.1 843.446 1690.89 855.402 1679.89 861.184 z"/>
<path transform="translate(0,0)" fill="rgb(0,0,0)" d="M 1626.83 1048.96 C 1619.4 1048.52 1457.31 981.556 1520.14 953.094 C 1539.75 952.064 1634.28 1008.68 1639.09 1017.33 C 1646.21 1030.16 1637.54 1041.86 1626.83 1048.96 z"/>
<path transform="translate(0,0)" fill="rgb(0,0,0)" d="M 423.016 1048.96 C 408.375 1049.34 395.892 1031.89 403.554 1018.62 C 409.016 1009.16 505.029 962.291 521.775 957.08 C 535.384 957.389 549.24 969.005 542.476 983.772 C 535.874 998.189 441.073 1042.72 423.016 1048.96 z"/>
<path transform="translate(0,0)" fill="rgb(0,0,0)" d="M 778.902 1069.14 C 740.175 1071.34 747.229 997.039 769.147 986.12 C 802.936 984.038 794.393 1035.74 793.71 1057.07 C 789.398 1062.97 785.507 1066.01 778.902 1069.14 z"/>
</svg>