<svg preserveAspectRatio="xMidYMid meet" version="1.1" xmlns="http://www.w3.org/2000/svg" style="display: block;" viewBox="0 0 2048 2048" width="512" height="512">
<path transform="translate(0,0)" fill="rgb(253,201,1)" d="M 1457.62 644.827 C 1420.39 603.555 1446.32 592.684 1478.57 561.067 C 1539.12 501.689 1530.59 509.92 1590.21 569.953 L 1622.6 602.861 C 1641.69 622.087 1670.99 642.818 1647.85 670.946 C 1639.49 681.11 1589.03 729.545 1579.23 734.673 C 1560.39 744.533 1546.2 735.765 1532.04 723.26 C 1511.64 698.213 1473.06 668.719 1457.62 644.827 z"/>
<path transform="translate(0,0)" fill="rgb(253,201,1)" d="M 515.873 723.26 C 507.256 730.117 501.167 742.905 489.261 744.604 C 466.659 747.828 438.784 710.423 424.976 696.625 C 406.181 677.842 374.68 658.059 397.944 629.839 C 415.13 608.992 439.686 587.402 459.035 568.151 C 480.206 547.086 508.429 500.827 538.318 527.175 C 555.879 542.657 592.147 578.023 606.001 596.603 C 620.277 615.748 608.726 630.011 593.938 644.827 C 605.546 655.984 618.684 667.027 628.034 680.168 C 607.443 694.689 565.58 737.212 550.364 757.231 C 538.793 746.292 526.011 735.512 515.873 723.26 z"/>
<path transform="translate(0,0)" fill="rgb(238,128,24)" d="M 593.938 644.827 C 605.546 655.984 618.684 667.027 628.034 680.168 C 607.443 694.689 565.58 737.212 550.364 757.231 C 538.793 746.292 526.011 735.512 515.873 723.26 C 536.469 707.113 577.83 664.431 593.938 644.827 z"/>
<path transform="translate(0,0)" fill="rgb(253,201,1)" d="M 962.994 452.141 C 960.114 446.433 904.286 467.3 898.425 422.234 C 896.735 409.239 896.381 331.669 898.518 318.924 C 904.255 284.702 940.58 292.736 966.263 292.719 L 1098.74 292.733 C 1124.58 292.755 1149.57 289.976 1150.84 324.94 C 1151.56 344.828 1150.77 365.042 1150.65 384.961 C 1150.3 447.194 1152.34 452.095 1087.9 452.141 C 1072.46 453.503 965.379 450.55 963.269 451.787 C 963.141 451.863 963.086 452.023 962.994 452.141 z"/>
<path transform="translate(0,0)" fill="rgb(253,201,1)" d="M 962.994 532.995 C 982.795 529.956 1003.97 528.71 1023.96 530.093 L 1023.96 680.168 C 770.229 676.054 566.628 888.484 562.923 1138.74 C 559.27 1385.52 775.485 1615.34 1023.96 1604.69 L 1023.96 1750.94 C 1004.91 1751.39 985.81 1749.27 966.865 1747.49 C 666.317 1719.28 429.425 1463.21 417.719 1162.33 C 412.949 1039.73 463.588 850.865 550.364 757.231 C 565.58 737.212 607.443 694.689 628.034 680.168 C 698.827 602.879 863.609 542.977 962.994 532.995 z"/>
<path transform="translate(0,0)" fill="rgb(227,57,19)" d="M 962.994 452.141 C 963.086 452.023 963.141 451.863 963.269 451.787 C 965.379 450.55 1072.46 453.503 1087.9 452.141 C 1087.92 479.015 1088.76 506.151 1087.9 532.995 C 1182.64 535.186 1314.69 601.606 1387.98 656.045 C 1398.97 664.206 1409.64 673.158 1421.42 680.168 C 1433.85 668.768 1445.01 656.085 1457.62 644.827 C 1473.06 668.719 1511.64 698.213 1532.04 723.26 C 1518.84 733.491 1507.28 745.879 1495.04 757.231 C 1510.06 774.503 1522.87 794.512 1535.08 813.83 C 1788.09 1213.86 1497.74 1757.96 1023.96 1750.94 L 1023.96 1604.69 C 1254.51 1606.72 1449.12 1426.95 1477.18 1201.04 C 1496.98 1041.68 1436.11 890.272 1314.18 784.799 C 1241.96 722.335 1120.19 673.265 1023.96 680.168 L 1023.96 530.093 C 1003.97 528.71 982.795 529.956 962.994 532.995 C 962.909 506.058 963.637 479.065 962.994 452.141 z"/>
<path transform="translate(0,0)" fill="rgb(222,222,222)" d="M 1023.96 680.168 C 1120.19 673.265 1241.96 722.335 1314.18 784.799 C 1436.11 890.272 1496.98 1041.68 1477.18 1201.04 C 1449.12 1426.95 1254.51 1606.72 1023.96 1604.69 C 775.485 1615.34 559.27 1385.52 562.923 1138.74 C 566.628 888.484 770.229 676.054 1023.96 680.168 z"/>
<path transform="translate(0,0)" fill="rgb(11,10,8)" d="M 645.891 1118.09 L 730.732 1118.09 L 730.732 1180.79 C 721.284 1179.35 710.542 1180.62 700.918 1180.69 L 645.891 1180.79 L 645.891 1118.09 z"/>
<path transform="translate(0,0)" fill="rgb(254,254,254)" d="M 993.845 751.345 C 1009.95 751.505 1055.93 743.548 1057.74 759.997 C 1059.39 745.914 1104.08 761.02 1118.01 764.109 C 1117.36 773.03 1116.21 782.676 1118.01 791.53 L 1118.01 764.109 C 1174.71 779.891 1259.46 826.299 1298.79 873.132 C 1367.93 948.266 1397.01 1025.53 1405.93 1124.54 C 1406.51 1214.13 1388.02 1291.06 1336.67 1365.61 C 1325.25 1382.19 1309.95 1396.15 1298.79 1412.61 C 1172.69 1553.84 958.856 1565.9 804.244 1462.02 C 792.841 1454.35 766.994 1439.14 760.333 1426.8 C 778.638 1409.35 795.87 1390.48 813.966 1372.74 C 800.143 1358.14 785.172 1342 769.319 1329.67 C 750.611 1345.34 736.12 1364.77 716.347 1379.67 C 678.494 1349.11 641.001 1226.29 640.866 1180.79 C 657.738 1182.24 713.93 1182.81 730.732 1180.79 L 730.732 1118.09 L 645.891 1118.09 C 629.029 1119 639.912 1085.22 641.978 1073.22 C 656.885 986.608 686.78 945.464 733.614 878.149 C 739.817 868.8 769.449 831.099 781.676 837.173 C 832.435 789.929 927.573 761.64 993.845 751.345 C 993.118 757.875 992.949 819.961 993.845 821.759 C 994.906 814.314 994.01 805.79 993.97 798.231 L 993.845 751.345 z"/>
<path transform="translate(0,0)" fill="rgb(11,10,8)" d="M 733.614 878.149 C 739.817 868.8 769.449 831.099 781.676 837.173 C 792.83 853.912 809.774 867.889 824.241 881.86 C 810.299 896.545 795.885 910.778 781.676 925.204 C 766.1 910.004 750.408 891.654 733.614 878.149 z"/>
<path transform="translate(0,0)" fill="rgb(11,10,8)" d="M 993.845 1421.84 L 1054.1 1421.84 L 1054.1 1504.06 L 993.845 1504.06 L 993.845 1421.84 z"/>
<path transform="translate(0,0)" fill="rgb(11,10,8)" d="M 993.845 751.345 C 1009.95 751.505 1055.93 743.548 1057.74 759.997 L 1057.74 830.093 C 1040.91 830.116 994.318 838.148 993.845 821.759 C 994.906 814.314 994.01 805.79 993.97 798.231 L 993.845 751.345 z"/>
<path transform="translate(0,0)" fill="rgb(227,57,19)" d="M 962.994 1131.09 C 944.938 1114.68 844.992 984.41 844.748 966.728 C 855.79 953.198 908.65 1006.3 917.193 1013.89 C 946.414 1039.85 976.479 1067.46 1007.77 1090.79 C 983.977 1096.91 970.882 1108.36 962.994 1131.09 z"/>
<path transform="translate(0,0)" fill="rgb(253,201,1)" d="M 1007.77 1090.79 C 1013.14 1093.55 1020.42 1090.93 1026.23 1091.11 C 1088.86 1093.11 1112.86 1179.32 1057.1 1209 C 1010.26 1233.94 948.656 1196.97 959.926 1143.04 C 960.723 1139.22 962.682 1134.83 962.994 1131.09 C 970.882 1108.36 983.977 1096.91 1007.77 1090.79 z"/>
<path transform="translate(0,0)" fill="rgb(227,57,19)" d="M 1292.08 1124.54 L 1405.93 1124.54 C 1406.51 1214.13 1388.02 1291.06 1336.67 1365.61 C 1325.25 1382.19 1309.95 1396.15 1298.79 1412.61 C 1287.53 1402.45 1277.28 1391.15 1266.66 1380.33 L 1216.02 1329.67 C 1273.59 1274.87 1294.56 1201.58 1292.08 1124.54 z"/>
<path transform="translate(0,0)" fill="rgb(253,201,1)" d="M 1118.01 764.109 C 1174.71 779.891 1259.46 826.299 1298.79 873.132 C 1367.93 948.266 1397.01 1025.53 1405.93 1124.54 L 1292.08 1124.54 C 1280.04 1069.64 1282.09 1046.24 1244.86 994.038 C 1236.16 981.842 1225.55 971.255 1216.95 959.067 L 1216.02 957.738 C 1177.07 932.507 1166.75 918.408 1118.01 896.888 L 1118.01 791.53 L 1118.01 764.109 z"/>
</svg>