<svg preserveAspectRatio="xMidYMid meet" version="1.1" xmlns="http://www.w3.org/2000/svg" style="display: block;" viewBox="0 0 2048 2048" width="512" height="512">
<defs>
	<linearGradient id="Gradient1" gradientUnits="userSpaceOnUse" x1="305.455" y1="562.737" x2="1324.71" y2="1099.1">
		<stop class="stop0" offset="0" stop-opacity="1" stop-color="rgb(245,0,232)"/>
		<stop class="stop1" offset="1" stop-opacity="1" stop-color="rgb(123,14,239)"/>
	</linearGradient>
	<linearGradient id="Gradient2" gradientUnits="userSpaceOnUse" x1="472.163" y1="629.536" x2="1233.5" y2="1072.58">
		<stop class="stop0" offset="0" stop-opacity="1" stop-color="rgb(234,0,231)"/>
		<stop class="stop1" offset="1" stop-opacity="1" stop-color="rgb(137,16,241)"/>
	</linearGradient>
</defs>
<path transform="translate(0,0)" fill="rgb(36,0,238)" d="M 1666.5 1499 C 1690.2 1519.8 1712.09 1543.56 1734.43 1565.85 C 1770.24 1601.6 1813.8 1632.42 1817.3 1686.83 C 1824.16 1793.61 1696.66 1849.38 1620.58 1779.87 C 1612.6 1772.58 1573.55 1736.67 1569.75 1729.5 L 1569.92 1728.27 C 1575.64 1730.3 1622.4 1780.77 1635.86 1789.57 L 1636.83 1788.84 C 1635.05 1780.75 1618.3 1776.69 1634.34 1773.39 C 1640.7 1767.04 1637.68 1760.7 1647.37 1757.4 C 1627.11 1727.87 1577.83 1697.13 1553.17 1663.35 L 1554.58 1662.71 C 1588.27 1691.39 1627.8 1744.74 1662.14 1764.95 C 1726.93 1803.08 1810.57 1726.98 1771.99 1660.27 C 1756.44 1633.38 1696.07 1581.02 1672.3 1554.37 L 1673.51 1553.79 C 1683.64 1558.69 1702.83 1586.99 1710.88 1590.31 C 1706.43 1568.5 1718.85 1578.9 1721.27 1562.2 C 1721.6 1559.88 1721.57 1560.41 1723.25 1559 L 1721.41 1557.46 L 1723.31 1558.51 C 1712.75 1545.83 1668.82 1510.96 1666.5 1499 z"/>
<path transform="translate(0,0)" fill="rgb(115,12,234)" d="M 1325.61 318.962 C 1341.22 318.665 1356.87 341.133 1366.74 351.066 C 1437.88 422.706 1495.03 510.923 1530.73 605.426 C 1539.7 629.154 1586.48 748.54 1554.58 760.047 C 1546.58 760.084 1540.97 758.39 1534.16 754.222 C 1525.53 739.885 1526.16 719.497 1522.68 703.316 C 1494.65 573.179 1419.44 448.863 1323.09 357.991 C 1308.1 343.855 1303.98 328.029 1325.61 318.962 z"/>
<path transform="translate(0,0)" fill="url(#Gradient1)" d="M 1228.04 1345.16 C 1217.81 1354.94 1205.64 1362.93 1193.74 1370.56 C 909.28 1552.78 509.993 1471.86 326.943 1185.2 C 34.9954 727.998 446.17 125.275 988.682 247.664 C 1247.38 306.026 1451.48 532.007 1473.88 797.347 C 1477.92 845.178 1477.17 913.83 1466.75 959.538 C 1463 948.944 1473.06 892.075 1474.15 876.112 C 1477.16 832.338 1471.35 773.699 1460.5 731.205 C 1453.62 727.799 1449.17 735.339 1443.29 737.452 L 1441.78 743.013 L 1442.38 742.729 C 1439.86 742.126 1439.92 741.354 1438.42 739.364 C 1438.35 742.998 1439.01 747.374 1435.45 749.215 L 1435.24 747.135 L 1434.86 747.721 C 1424.51 715.503 1434.98 766.618 1435.79 772.638 C 1440.85 809.988 1443.98 850.781 1440.56 888.312 C 1439.19 885.672 1439.35 882.913 1439.16 879.984 C 1447.33 593.393 1252.09 336.975 969.367 280.723 C 741.359 235.358 501.595 329.148 370.217 523.518 C 218.075 748.607 234.003 1049.47 424.401 1248.83 C 565.593 1396.68 779.932 1463.39 979.512 1419.01 C 998.729 1414.74 1017.63 1407.64 1036.94 1404.13 L 1039.12 1405.37 C 1046.17 1401.55 1042.52 1410.89 1049.69 1407.68 C 1064.49 1401.04 1072.08 1395.58 1087.96 1401.25 L 1084.38 1404.15 L 1084.88 1405.53 C 1098.85 1416.63 1125.52 1403.21 1108.16 1390.77 C 1116.24 1386.95 1119.81 1385.33 1121.15 1376.21 C 1122.2 1369.09 1129.1 1369.32 1134.01 1365.17 C 1135.23 1366.46 1135.8 1367.19 1136.39 1368.91 L 1138.53 1369.32 C 1144.39 1362.67 1150 1362.74 1156.1 1372.1 C 1158.56 1396.69 1219.56 1350.16 1228.04 1340.97 C 1247.97 1361.28 1268.97 1380.83 1288.27 1401.72 L 1288.18 1404.13 C 1279.64 1399.2 1238.91 1355.55 1228.04 1345.16 z"/>
<path transform="translate(0,0)" fill="rgb(115,12,234)" d="M 1439.16 879.984 C 1439.35 882.913 1439.19 885.672 1440.56 888.312 C 1443.98 850.781 1440.85 809.988 1435.79 772.638 C 1434.98 766.618 1424.51 715.503 1434.86 747.721 L 1435.24 747.135 L 1435.45 749.215 C 1439.01 747.374 1438.35 742.998 1438.42 739.364 C 1439.92 741.354 1439.86 742.126 1442.38 742.729 L 1441.78 743.013 L 1443.29 737.452 C 1449.17 735.339 1453.62 727.799 1460.5 731.205 C 1471.35 773.699 1477.16 832.338 1474.15 876.112 C 1473.06 892.075 1463 948.944 1466.75 959.538 C 1462.45 1039.4 1393.38 1167.19 1348.57 1229.84 C 1384 1260.53 1412.71 1298.7 1449.42 1328.17 C 1471.87 1302.77 1478.97 1312.22 1500.5 1333.39 L 1651.51 1483.9 C 1656.26 1488.63 1662.53 1493.7 1666.5 1499 C 1668.82 1510.96 1712.75 1545.83 1723.31 1558.51 L 1721.41 1557.46 L 1723.25 1559 C 1721.57 1560.41 1721.6 1559.88 1721.27 1562.2 C 1718.85 1578.9 1706.43 1568.5 1710.88 1590.31 C 1702.83 1586.99 1683.64 1558.69 1673.51 1553.79 L 1672.3 1554.37 C 1696.07 1581.02 1756.44 1633.38 1771.99 1660.27 C 1810.57 1726.98 1726.93 1803.08 1662.14 1764.95 C 1627.8 1744.74 1588.27 1691.39 1554.58 1662.71 L 1553.17 1663.35 C 1577.83 1697.13 1627.11 1727.87 1647.37 1757.4 C 1637.68 1760.7 1640.7 1767.04 1634.34 1773.39 C 1618.3 1776.69 1635.05 1780.75 1636.83 1788.84 L 1635.86 1789.57 C 1622.4 1780.77 1575.64 1730.3 1569.92 1728.27 L 1569.75 1729.5 C 1557.65 1720.74 1547.98 1708.43 1537.47 1697.89 L 1362.45 1524.63 C 1333.37 1495.71 1298.54 1483.05 1330.91 1447.33 C 1316.58 1433.1 1301.8 1419.04 1288.18 1404.13 L 1288.27 1401.72 C 1268.97 1380.83 1247.97 1361.28 1228.04 1340.97 C 1219.56 1350.16 1158.56 1396.69 1156.1 1372.1 C 1150 1362.74 1144.39 1362.67 1138.53 1369.32 L 1136.39 1368.91 C 1135.8 1367.19 1135.23 1366.46 1134.01 1365.17 C 1129.1 1369.32 1122.2 1369.09 1121.15 1376.21 C 1119.81 1385.33 1116.24 1386.95 1108.16 1390.77 C 1125.52 1403.21 1098.85 1416.63 1084.88 1405.53 L 1084.38 1404.15 L 1087.96 1401.25 C 1072.08 1395.58 1064.49 1401.04 1049.69 1407.68 C 1042.52 1410.89 1046.17 1401.55 1039.12 1405.37 L 1036.94 1404.13 C 1048.76 1398.67 1061.91 1394.8 1074.1 1390.11 C 1230.63 1329.78 1333.3 1215.27 1399.4 1065.93 C 1418.01 994.616 1434.22 962.486 1439.16 879.984 z M 1475.03 1359.19 C 1441.61 1385.03 1389.41 1442.06 1359.81 1473.69 C 1377.49 1487.11 1393.14 1503.09 1408.99 1518.59 L 1486.74 1596.09 C 1507.81 1617 1536.08 1640.12 1554.58 1662.71 C 1588.27 1691.39 1627.8 1744.74 1662.14 1764.95 C 1726.93 1803.08 1810.57 1726.98 1771.99 1660.27 C 1756.44 1633.38 1696.07 1581.02 1672.3 1554.37 C 1652.88 1538.25 1635.25 1518.72 1617.37 1500.86 L 1541.88 1426.5 C 1522.83 1407.56 1489.9 1379.49 1475.03 1359.19 z M 1325.61 1258.61 C 1304.3 1280.72 1282.91 1301.96 1259.82 1322.23 L 1356.54 1420.05 C 1357.65 1421.17 1357.4 1420.81 1359.25 1421.44 L 1359.81 1421.3 L 1400.15 1381.3 C 1407.84 1373.76 1415.23 1365.61 1423.92 1359.19 C 1394.12 1322.44 1353.69 1293.25 1325.61 1258.61 z"/>
<path transform="translate(0,0)" fill="url(#Gradient2)" d="M 822.771 410.955 C 1057.26 397.361 1268.93 568.621 1293.15 804.831 C 1319.87 1065.51 1136.05 1264.57 880.249 1290.25 C 797.052 1291.75 729.496 1281.34 653.997 1244.18 C 267.51 1053.96 366.567 474.783 786.295 415.158 C 798.411 413.437 810.652 412.667 822.771 410.955 z M 834.734 447.14 C 718.241 457.227 616.751 502.4 539.803 593.794 C 402.03 757.432 419.35 1017.77 584.721 1156.43 C 656.565 1216.67 774.768 1263.78 870.465 1253.11 C 974.093 1251.43 1077.14 1202.9 1148.85 1128.78 C 1303.67 968.734 1288.99 710.03 1130.68 558.336 C 1049.53 480.58 946.181 444.974 834.734 447.14 z"/>
<path transform="translate(0,0)" fill="rgb(212,0,241)" d="M 727.327 1049.09 C 740.873 1048.33 866.461 1047.76 872.993 1050.94 C 891.11 1059.76 883.892 1082.34 867.253 1087.32 C 833.9 1088.96 757.51 1090.64 725.352 1086.6 C 703.782 1083.88 705.678 1053.78 727.327 1049.09 z"/>
<path transform="translate(0,0)" fill="rgb(212,0,241)" d="M 711.953 914.15 C 770.614 920.167 697.212 976.461 686.355 987.195 L 646.746 1026.69 C 635.993 1037.48 630.276 1048.26 614.21 1049.09 C 602.248 1052.31 587.857 1042.01 593.267 1028.74 C 596.339 1021.21 695.183 922.074 711.953 914.15 z"/>
<path transform="translate(0,0)" fill="rgb(212,0,241)" d="M 840.963 512.994 C 964.666 506.74 1087.51 579.399 1147.11 686.795 C 1160.31 710.59 1205.75 805.323 1169.98 822.648 C 1142.24 828.539 1144.56 791.177 1140.69 773.994 C 1114.14 656.056 997.928 558.665 877.366 550.29 C 861.874 549.214 821.739 553.601 829.319 525.988 C 831.183 519.2 835.016 516.29 840.963 512.994 z"/>
</svg>