<svg preserveAspectRatio="xMidYMid meet" version="1.1" xmlns="http://www.w3.org/2000/svg" style="display: block;" viewBox="0 0 2048 2048" width="512" height="512">
<path transform="translate(0,0)" fill="rgb(179,0,0)" d="M 1087.38 1309.06 L 1504.77 1308.99 C 1530.9 1308.96 1564.41 1303.16 1584.53 1323.96 C 1603.54 1343.62 1604.22 1374.34 1583.84 1393.3 C 1562.72 1412.95 1538.27 1406.63 1511.58 1406.54 C 1479.65 1406.43 1447.71 1406.86 1415.78 1406.51 C 1411.28 1403.44 1381.31 1392.21 1374.84 1390.24 C 1337.1 1378.77 1303.93 1388.74 1270.36 1406.51 C 1217.59 1411.8 1142.85 1405.46 1087.38 1406.51 C 1085.16 1378.9 1086.61 1336.99 1087.38 1309.06 z"/>
<path transform="translate(0,0)" fill="rgb(161,64,16)" d="M 1270.36 1406.51 C 1303.93 1388.74 1337.1 1378.77 1374.84 1390.24 C 1381.31 1392.21 1411.28 1403.44 1415.78 1406.51 L 1413.34 1406.69 L 1413.15 1407.79 C 1420.16 1415.67 1429.95 1421.12 1437.36 1429.03 C 1550.11 1549.4 1355.95 1722.75 1246.81 1597.58 C 1205.23 1549.89 1202.01 1472.95 1247.35 1426.28 C 1254.43 1418.99 1262.62 1413.06 1270.36 1406.51 z"/>
<path transform="translate(0,0)" fill="rgb(253,201,1)" d="M 1338.18 1454.24 C 1413.02 1447.05 1426.63 1562.7 1344.9 1571.59 C 1270.36 1578.93 1259.18 1460.77 1338.18 1454.24 z"/>
<path transform="translate(0,0)" fill="rgb(161,64,16)" d="M 759.88 1406.51 C 811.642 1377.99 848.889 1380.45 902.89 1406.51 C 1051.04 1519.35 883.778 1715.01 754.172 1612.25 C 681.776 1554.84 693.004 1462.78 759.88 1406.51 z"/>
<path transform="translate(0,0)" fill="rgb(253,201,1)" d="M 823.176 1454.24 C 896.359 1448.35 923.751 1544.14 840.781 1571.59 C 758.304 1570.71 751.29 1467.94 823.176 1454.24 z"/>
<path transform="translate(0,0)" fill="rgb(227,57,19)" d="M 464.313 507.535 C 444.922 506.295 424.758 507.466 405.275 507.497 L 293.312 507.567 C 260.283 507.685 205.233 517.157 193.469 474.749 C 174.381 405.944 271.835 417.964 307.938 418.1 L 474.674 417.965 C 544.871 417.612 541.769 424.896 552.964 486.181 L 567.287 566.996 C 569.628 580.733 571.206 594.705 574.325 608.283 L 658.816 1056.89 C 665.279 1098.5 673.979 1139.96 681.523 1181.4 C 688.277 1224.09 698.767 1266.28 705.205 1309.06 L 1087.38 1309.06 C 1086.61 1336.99 1085.16 1378.9 1087.38 1406.51 L 902.89 1406.51 C 848.889 1380.45 811.642 1377.99 759.88 1406.51 C 620.708 1408.93 627.536 1415.07 603.543 1280.2 L 484.367 619.1 C 478.137 581.907 472.267 544.404 464.313 507.535 z"/>
<path transform="translate(0,0)" fill="rgb(253,201,1)" d="M 574.325 608.283 C 616.35 608.92 658.467 608.284 700.504 608.288 L 1047.84 608.216 C 1060.36 608.185 1075.17 606.266 1087.38 608.283 C 1088.02 651.647 1087.37 695.103 1087.37 738.478 L 1087.35 996.269 C 1087.35 1037.16 1086.48 1078.26 1087.38 1119.13 L 1512.06 1119.09 C 1528.12 1119.06 1544.99 1117.86 1560.95 1119.13 C 1561.04 1139.99 1558.46 1160.56 1560.95 1181.4 L 1082.94 1181.4 C 949.175 1181.41 815.271 1182.78 681.523 1181.4 C 673.979 1139.96 665.279 1098.5 658.816 1056.89 L 574.325 608.283 z"/>
<path transform="translate(0,0)" fill="rgb(227,57,19)" d="M 958.941 742.379 C 982.592 741.317 998.465 755.22 1003.77 777.793 C 1015.29 826.784 1021.69 877.763 1029.96 927.378 C 1036.74 968.006 1065.55 1039.26 1005.06 1051.1 C 966.07 1051.41 961.57 1017.53 955.911 988.133 C 944.049 926.504 933.271 864.38 923.043 802.468 C 918.091 772.498 925.157 747.244 958.941 742.379 z"/>
<path transform="translate(0,0)" fill="rgb(227,57,19)" d="M 781.389 976.285 C 776.386 953.342 772.744 929.98 768.361 906.902 L 748.829 808.989 C 731.757 722.657 814.662 729.759 828.726 767.517 C 842.295 803.948 860.302 921.749 866.218 962.11 C 870.115 982.761 880.621 1013.57 867.575 1031.99 C 853.54 1051.8 824.473 1056.18 805.265 1041.31 C 785.907 1026.33 787.224 997.864 781.389 976.285 z"/>
<path transform="translate(0,0)" fill="rgb(222,222,222)" d="M 1565.94 608.283 L 1566.09 607.021 C 1570.09 571.866 1564.97 549.583 1596.44 524.638 C 1625.68 501.459 1669.55 507.532 1704.32 507.488 C 1749.19 507.431 1810.84 497.594 1840.7 536.86 C 1860.38 562.746 1853.77 627.886 1853.77 662.813 L 1853.75 1034.91 C 1853.91 1169.84 1856.02 1181.42 1725.89 1181.44 L 1616.56 1181.37 C 1598.14 1181.36 1579.31 1180.45 1560.95 1181.4 C 1558.46 1160.56 1561.04 1139.99 1560.95 1119.13 C 1544.99 1117.86 1528.12 1119.06 1512.06 1119.09 L 1087.38 1119.13 C 1086.48 1078.26 1087.35 1037.16 1087.35 996.269 L 1087.37 738.478 C 1087.37 695.103 1088.02 651.647 1087.38 608.283 L 1335.21 608.644 C 1341.58 608.686 1347.8 607.837 1354.17 608.283 L 1494.82 608.249 C 1518.43 608.242 1542.37 607.378 1565.94 608.283 z"/>
<path transform="translate(0,0)" fill="rgb(254,254,254)" d="M 1641.06 608.283 L 1791.97 608.283 C 1791.92 628.936 1792.54 649.648 1791.97 670.291 C 1741.68 670.27 1691.34 670.824 1641.06 670.291 L 1641.06 608.283 z"/>
<path transform="translate(0,0)" fill="rgb(254,254,254)" d="M 1641.06 864.031 L 1791.97 864.031 L 1791.97 926.827 L 1692.06 926.817 C 1675.11 926.784 1657.95 925.431 1641.06 926.827 L 1641.06 864.031 z"/>
<path transform="translate(0,0)" fill="rgb(254,254,254)" d="M 1641.06 991.25 L 1791.97 991.25 C 1791.98 1011.9 1793.15 1033.24 1791.97 1053.83 L 1641.06 1053.83 C 1640.36 1033.04 1640.99 1012.06 1641.06 991.25 z"/>
<path transform="translate(0,0)" fill="rgb(254,254,254)" d="M 1641.06 736.078 L 1791.97 736.078 L 1791.97 798.564 L 1641.06 798.564 L 1641.06 736.078 z"/>
<path transform="translate(0,0)" fill="rgb(253,201,1)" d="M 1211.42 742.379 C 1275.33 746.368 1249.33 816.551 1243.74 856.279 L 1228.16 960.028 C 1222.51 997.082 1224.1 1048.17 1174.65 1051.1 C 1113.46 1049.9 1134.24 987.626 1140.06 952.747 L 1154.65 863.19 C 1161.85 819.248 1156.38 748.008 1211.42 742.379 z"/>
<path transform="translate(0,0)" fill="rgb(227,57,19)" d="M 1343.04 783.895 C 1366.51 715.854 1433.91 740.443 1432.71 785.02 C 1432.24 802.568 1427.54 821.393 1424.42 838.728 L 1408.44 926.827 C 1408.3 930.201 1408.03 933.588 1408.44 936.949 C 1398.83 965.094 1399.82 1007.74 1388.48 1030.87 C 1372.21 1064.08 1321.42 1064.33 1306.91 1028.81 C 1299.66 1011.07 1312.35 959.156 1315.88 938.878 C 1326.04 894.409 1338.33 827.94 1343.04 783.895 z"/>
<path transform="translate(0,0)" fill="rgb(253,201,1)" d="M 1354.17 608.283 L 1494.82 608.249 C 1518.43 608.242 1542.37 607.378 1565.94 608.283 C 1566.6 641.76 1567.1 676.127 1565.75 709.564 C 1562.74 783.691 1562.16 852.31 1562.19 926.827 L 1408.44 926.827 L 1424.42 838.728 C 1427.54 821.393 1432.24 802.568 1432.71 785.02 C 1433.91 740.443 1366.51 715.854 1343.04 783.895 C 1337.83 761.499 1344.11 636.233 1345.31 610.18 C 1347.65 608.517 1351.29 608.623 1354.17 608.283 z"/>
</svg>