<?xml version="1.0" encoding="UTF-8"?>
<svg width="800" height="500" viewBox="0 0 800 500" xmlns="http://www.w3.org/2000/svg">
  <!-- Background gradient -->
  <defs>
    <linearGradient id="bg-gradient" x1="0%" y1="0%" x2="100%" y2="100%">
      <stop offset="0%" stop-color="#f0f9ff" />
      <stop offset="100%" stop-color="#bae6fd" />
    </linearGradient>
    
    <!-- Card gradients -->
    <linearGradient id="prompt-gradient" x1="0%" y1="0%" x2="0%" y2="100%">
      <stop offset="0%" stop-color="#dbeafe" />
      <stop offset="100%" stop-color="#bfdbfe" />
    </linearGradient>
    
    <linearGradient id="result-gradient" x1="0%" y1="0%" x2="0%" y2="100%">
      <stop offset="0%" stop-color="#c7d2fe" />
      <stop offset="100%" stop-color="#a5b4fc" />
    </linearGradient>
    
    <linearGradient id="tips-gradient" x1="0%" y1="0%" x2="0%" y2="100%">
      <stop offset="0%" stop-color="#dcfce7" />
      <stop offset="100%" stop-color="#bbf7d0" />
    </linearGradient>
    
    <!-- Code background -->
    <linearGradient id="code-bg" x1="0%" y1="0%" x2="0%" y2="100%">
      <stop offset="0%" stop-color="#1e293b" />
      <stop offset="100%" stop-color="#0f172a" />
    </linearGradient>
    
    <!-- SVG result gradients -->
    <linearGradient id="result-text-gradient" x1="0%" y1="0%" x2="100%" y2="0%">
      <stop offset="0%" stop-color="#3b82f6" />
      <stop offset="100%" stop-color="#8b5cf6" />
    </linearGradient>
  </defs>
  
  <!-- Background -->
  <rect width="800" height="500" fill="url(#bg-gradient)" />
  
  <!-- Title -->
  <text x="400" y="40" font-family="Arial, sans-serif" font-size="24" font-weight="bold" text-anchor="middle" fill="#0c4a6e">Effective Prompt Writing for SVG Generation</text>
  
  <!-- Prompt Section -->
  <g transform="translate(200, 150)">
    <rect x="-180" y="-80" width="360" height="260" rx="8" ry="8" fill="white" stroke="#94a3b8" stroke-width="1" />
    <rect x="-180" y="-80" width="360" height="40" rx="8" ry="8" fill="#3b82f6" />
    <text x="0" y="-55" font-family="Arial, sans-serif" font-size="16" font-weight="bold" text-anchor="middle" fill="white">Input Prompt</text>
    
    <rect x="-160" y="-30" width="320" height="200" rx="4" ry="4" fill="url(#prompt-gradient)" />
    
    <!-- Bad Prompt Example -->
    <g transform="translate(0, 0)">
      <rect x="-140" y="-20" width="280" height="60" rx="4" ry="4" fill="#f1f5f9" stroke="#cbd5e1" stroke-width="1" />
      <text x="-130" y="-5" font-family="Arial, sans-serif" font-size="12" font-weight="bold" fill="#ef4444">❌ Weak Prompt:</text>
      <text x="-130" y="15" font-family="monospace" font-size="11" fill="#334155">"Make a logo"</text>
      
      <text x="-130" y="40" font-family="Arial, sans-serif" font-size="10" fill="#64748b">Too vague, lacks specifics</text>
    </g>
    
    <!-- Good Prompt Example -->
    <g transform="translate(0, 100)">
      <rect x="-140" y="-20" width="280" height="100" rx="4" ry="4" fill="#f1f5f9" stroke="#cbd5e1" stroke-width="1" />
      <text x="-130" y="-5" font-family="Arial, sans-serif" font-size="12" font-weight="bold" fill="#22c55e">✓ Strong Prompt:</text>
      <text x="-130" y="15" font-family="monospace" font-size="11" fill="#334155">"Create a minimalist mountain logo</text>
      <text x="-130" y="30" font-family="monospace" font-size="11" fill="#334155">with blue gradient, clean lines,</text>
      <text x="-130" y="45" font-family="monospace" font-size="11" fill="#334155">suitable for a tech startup"</text>
      
      <text x="-130" y="70" font-family="Arial, sans-serif" font-size="10" fill="#64748b">Specific style, colors, purpose</text>
    </g>
  </g>
  
  <!-- Result Section -->
  <g transform="translate(600, 150)">
    <rect x="-180" y="-80" width="360" height="260" rx="8" ry="8" fill="white" stroke="#94a3b8" stroke-width="1" />
    <rect x="-180" y="-80" width="360" height="40" rx="8" ry="8" fill="#8b5cf6" />
    <text x="0" y="-55" font-family="Arial, sans-serif" font-size="16" font-weight="bold" text-anchor="middle" fill="white">AI-Generated Result</text>
    
    <rect x="-160" y="-30" width="320" height="200" rx="4" ry="4" fill="url(#result-gradient)" />
    
    <!-- Bad Result -->
    <g transform="translate(-90, 0)">
      <circle cx="0" cy="0" r="40" fill="white" stroke="#e2e8f0" stroke-width="1" />
      
      <!-- Generic shape -->
      <rect x="-20" y="-20" width="40" height="40" fill="#94a3b8" />
      <text x="0" y="50" font-family="Arial, sans-serif" font-size="10" text-anchor="middle" fill="#64748b">Generic Result</text>
    </g>
    
    <!-- Good Result -->
    <g transform="translate(90, 0)">
      <circle cx="0" cy="0" r="40" fill="white" stroke="#e2e8f0" stroke-width="1" />
      
      <!-- Mountain logo -->
      <path d="M-30,30 L-10,-15 L0,0 L10,-25 L30,30 Z" fill="url(#result-text-gradient)" />
      <path d="M-30,30 L-20,15 L-10,20 L0,10 L10,20 L20,15 L30,30 Z" fill="white" opacity="0.3" />
      <text x="0" y="50" font-family="Arial, sans-serif" font-size="10" text-anchor="middle" fill="#64748b">Specific Result</text>
    </g>
    
    <!-- Arrow connecting the two -->
    <path d="M-50,0 L50,0" stroke="#94a3b8" stroke-width="2" stroke-dasharray="4 2" />
    <polygon points="50,-5 60,0 50,5" fill="#94a3b8" />
    
    <!-- SVG Code Snippet -->
    <g transform="translate(0, 100)">
      <rect x="-140" y="-20" width="280" height="80" rx="4" ry="4" fill="url(#code-bg)" />
      <text x="-130" y="0" font-family="monospace" font-size="10" fill="#e2e8f0">&lt;svg width="100" height="100"&gt;</text>
      <text x="-130" y="15" font-family="monospace" font-size="10" fill="#e2e8f0">  &lt;path d="M10,80 L40,20 L50,40</text>
      <text x="-130" y="30" font-family="monospace" font-size="10" fill="#e2e8f0">         L60,10 L90,80 Z"</text>
      <text x="-130" y="45" font-family="monospace" font-size="10" fill="#e2e8f0">    fill="url(#gradient)" /&gt;</text>
      <text x="-130" y="60" font-family="monospace" font-size="10" fill="#e2e8f0">&lt;/svg&gt;</text>
    </g>
  </g>
  
  <!-- Tips Section -->
  <g transform="translate(400, 400)">
    <rect x="-350" y="-50" width="700" height="130" rx="8" ry="8" fill="white" stroke="#94a3b8" stroke-width="1" />
    <rect x="-350" y="-50" width="700" height="40" rx="8" ry="8" fill="#10b981" />
    <text x="0" y="-25" font-family="Arial, sans-serif" font-size="16" font-weight="bold" text-anchor="middle" fill="white">Prompt Engineering Tips</text>
    
    <rect x="-330" y="0" width="660" height="70" rx="4" ry="4" fill="url(#tips-gradient)" />
    
    <!-- Tips -->
    <g transform="translate(-220, 35)">
      <circle cx="0" cy="0" r="15" fill="#10b981" opacity="0.2" />
      <text x="0" y="0" font-family="Arial, sans-serif" font-size="14" font-weight="bold" text-anchor="middle" dominant-baseline="middle" fill="#047857">1</text>
      <text x="25" y="-10" font-family="Arial, sans-serif" font-size="12" font-weight="bold" dominant-baseline="middle" fill="#0c4a6e">Be Specific</text>
      <text x="25" y="10" font-family="Arial, sans-serif" font-size="10" dominant-baseline="middle" fill="#334155">Include style, colors, purpose</text>
    </g>
    
    <g transform="translate(0, 35)">
      <circle cx="0" cy="0" r="15" fill="#10b981" opacity="0.2" />
      <text x="0" y="0" font-family="Arial, sans-serif" font-size="14" font-weight="bold" text-anchor="middle" dominant-baseline="middle" fill="#047857">2</text>
      <text x="25" y="-10" font-family="Arial, sans-serif" font-size="12" font-weight="bold" dominant-baseline="middle" fill="#0c4a6e">Use Design Terms</text>
      <text x="25" y="10" font-family="Arial, sans-serif" font-size="10" dominant-baseline="middle" fill="#334155">"Minimalist", "gradient", "3D"</text>
    </g>
    
    <g transform="translate(220, 35)">
      <circle cx="0" cy="0" r="15" fill="#10b981" opacity="0.2" />
      <text x="0" y="0" font-family="Arial, sans-serif" font-size="14" font-weight="bold" text-anchor="middle" dominant-baseline="middle" fill="#047857">3</text>
      <text x="25" y="-10" font-family="Arial, sans-serif" font-size="12" font-weight="bold" dominant-baseline="middle" fill="#0c4a6e">Iterate & Refine</text>
      <text x="25" y="10" font-family="Arial, sans-serif" font-size="10" dominant-baseline="middle" fill="#334155">Adjust prompts based on results</text>
    </g>
  </g>
</svg>
