<svg xmlns="http://www.w3.org/2000/svg" display="block" viewBox="0 0 2048 2048"><path fill="#fefefe" d="M0 0h2048v2048H0z"/><path d="M1009.89 185.574c26.82-2.674 55.71 2.088 82.33 5.174 6.54.758 13.03.29 19.54.825 8.3.682 16.52 3.099 24.51 5.353 41.14 11.605 83.29 30.672 117.02 57.178 10.2 8.015 19.67 17.371 29.04 26.33 12.16 11.615 26.96 21.134 38.2 33.398 9.42 10.281 16.68 23.035 24.28 34.674 18.48 28.292 35.65 56.756 51.49 86.636 7.72 14.558 14.03 29.814 22.1 44.187 59.94-7.495 102.44-11.348 163.2-2.131 42.67 6.472 84.74 17.296 126.34 28.662 54.91 15.002 138.43 47.384 193.71 37.577 33.19-5.889 48.66-34.954 66.56-60.025 2.87-4.018 5.76-7.436 10.82-8.275 2.08.435 3.16.765 4.81 2.191 2.37 2.038 2.85 5.253 3.1 8.189 1.79 21.018-7.87 59.086-18.79 77.045-8.07 13.262-41.43 32.082-55.22 42.121-14.02 10.204-27.58 21.111-38.55 34.642-17.77 21.908-32.49 46.443-46.86 70.653-27.13 45.722-52.82 93.938-86.68 135.087 8.89-.168 43.16-6.22 48.65-2.624 3.48 2.285 4.8 8.743 5.44 12.5 5.33 31.515-7.86 81.931-11.05 115.274-2.85 29.805-1.82 59.905.61 89.695 1.04 12.81 8.39 57.47 2.64 65.31-3.06 1.62-5.99 2.44-9.41 2.98-20.35 3.19-42.03 3.19-62.62 4.85-69.06 5.59-138.32 8.33-207.37 13.6.1 12.69-1.86 25.32-1.7 37.99.26 22.49 3.08 45.33 1.15 67.83-1.07 12.53-5.76 24.54-6.79 37.13-.88 10.86 1.57 21.86 1.29 32.75-.46 17.77-4.87 47.41-8.41 65.33-3.28 16.62-12.29 31.04-17.49 46.97-12.19 37.33-21.08 75.75-36 112.23-6 14.68-16.41 26.96-23.97 40.76-8.18 14.93-15.04 30.71-22.81 45.88a385 385 0 0 1-37.32 58.79c-5.67 7.29-11.8 14.93-18.66 21.16-7.45 6.76-15.78 12.72-22.87 19.85-9.59 9.67-17.04 21.38-26.56 31.07-7.05 7.18-15.57 13.26-23.16 19.89-43.32 37.92-61.54 47.83-112.76 71.42-17.85 8.22-34.68 17.99-54 22.63-22.49 5.39-46.49 2.57-69.43 5.43-30.307 2.17-69.382-8.07-98.921-15.35-15.605-3.85-30.174-9.63-45.038-15.64-17.237-6.96-34.417-14.09-50.5-23.51-27.888-16.32-51.253-36.5-74.597-58.65-13.408-12.73-26.999-24.98-39.343-38.77-29.647-33.13-63.437-84.73-85.29-123.37-7.864-13.9-14.432-27.81-20.495-42.59-4.381-10.68-8.329-23.26-14.4-33.06-.147-.24-.301-.47-.452-.71-42.458 5.17-81.875 11.09-124.859 6.69-49.128-5.02-98.605-16.2-146.728-27.16-44.333-10.11-130.247-39.25-171.756-32.54-56.744 9.18-81.235 70.93-89.472 72.61-2.647.54-4.27-.51-6.44-1.84-1.2-1.61-1.437-2.84-1.6-4.8-.532-6.39.117-13.13.38-19.53.818-20 3.044-37.17 12.702-55.04 20.345-37.65 65.987-54.67 90.794-92.85 15.475-23.82 26.522-49.65 37.893-75.56 24.657-56.19 48.453-115.05 89.16-161.9-16.557-3.17-34.869-.91-50.761-4.48-3.794-.85-6.851-2.3-8.802-5.87-2.426-4.45-1.464-58.46-1.551-66.88a3633 3633 0 0 0-3.256-111.51c-.968-21.855-6.465-77.696-2.213-95.586 3.041-2.626 8.391-2.404 12.327-2.561 30.448-1.208 61.685.674 92.212.94a8111 8111 0 0 1 153.514 1.404c.541-13.204-.192-26.487.569-39.669.625-10.837 2.588-21.653 3.634-32.464 2.45-25.31 4.588-50.464 9.429-75.467 6.034-31.167 16.075-60.35 26.295-90.319 6.46-18.946 12.475-38.252 20.6-56.561 6.613-14.904 15.134-28.736 22.153-43.406 7.914-16.541 14.829-33.82 23.747-49.842 5.39-9.682 12.743-17.787 18.88-26.916 7.61-11.322 14.18-23.401 21.594-34.869 9.381-14.512 20.75-29.527 31.843-42.894 10.665-12.849 24.425-23.219 36.212-34.981 53.75-53.635 112.602-97.023 186.002-119.394 13.303-4.054 27.145-6.453 40.639-9.817 8.973-2.237 17.21-7.235 26.26-8.825 10.324-1.813 20.958-1.06 31.38-1.708 9.96-.62 19.971-1.934 29.905-2.941"/><path fill="#fefefe" d="M1397.66 825.974c2.52.341 4.77 2.699 6.79 4.271 12.13 9.448 73.59 21.753 90.09 25.114-28.42 3.572-58.62 2.095-87.29 2.638-32.33.004-64.77 1.282-97.11 1.94 29.85-10.015 58.67-21.337 87.52-33.963M310.183 1140.94c34.405-.55 69.334 2.94 103.732 4.39a5836 5836 0 0 0 219.675 6.88c-23.933 11.35-48.442 21.59-72.041 33.63-18.666-9.03-45.483-11.08-65.965-14.86-24.308-4.5-48.009-10.05-72.746-12.33-10.676-.98-21.838-.89-32.515.08-4.264.38-7.691 1.55-10.329 5.13-1.546 2.09-1.873 3.94-1.513 6.49 1.62 2.03 2.012 2.55 4.659 3.25 9.445 2.51 29.654-2.21 42.074-.69 39.368 4.83 77.483 14.4 116.202 22.59-35.619 23.09-74.98 41.9-109.177 67.11-36.232-10.64-108.922-13.61-144.81-2.39-3.943 1.23-6.68 2.64-8.634 6.4-.106 2.67.242 3.62 1.707 5.85 6.094 4.1 19.652.16 26.875-.93 36.317-5.44 71.472-5.57 107.532 1.89-44.278 27.9-108.853 73.18-159.877 82.42-13.537 2.45-26.802-.05-40.222 1.41-3.068.34-5.578 1.34-7.293 4.02-1.385 2.17-1.216 4.08-.734 6.44 2.176 2.4 3.842 3.27 6.923 4 6.394 1.52 13.768.85 20.326.74 7.904-.14 15.95.05 23.749-1.42 54.474-10.26 126.494-61.18 174.224-90.4 15.861-9.11 30.963-20.38 46.659-29.97 47.624-29.07 95.095-55.56 146.3-77.97 13.527-5.92 28.066-14.08 42.504-17.16 12.32-2.63 26.284-1.55 38.848-1.59-29.649 9.91-60.256 20.26-88.969 32.57-29.316 12.58-57.897 27.79-85.565 43.66-21.787 12.5-42.849 27.14-64.194 40.49a2915 2915 0 0 1-91.136 54.39c-18.495 10.78-37.195 20.82-56.234 30.61-10.121 5.2-20.752 11.25-31.579 14.77-5.113 1.67-10.563 2.29-15.806 3.46-15.619 3.5-32.353 15.05-46.577 22.46-60.031 31.31-114.547 59.07-152.157 118.34 1.675-11.6 3.665-23.11 8.808-33.75 10.786-22.33 32.221-36.35 50.602-51.91 15.477-13.09 30.634-27.18 42.034-44.06 14.719-21.79 24.928-46.32 35.569-70.25 21.381-48.1 41.421-100.13 72.544-142.84 8.046-11.04 17.288-20.91 26.527-30.95"/><path fill="#fefefe" d="m1964.08 522.304 2.84.806.65 2.513c-1.09 5.951-4.14 11.339-6.89 16.683-15.41 30.005-44.02 41.026-69.19 60.603-13.5 10.504-25.15 23.361-35.83 36.683-32.57 40.641-55.07 88.943-81.73 133.413a495.5 495.5 0 0 1-53.87 73.399 7278 7278 0 0 1-120.11 5.997c-18.19.874-41.97 3.812-59.75 2.235-10.42-.924-21.54-6.025-31.75-8.704-31.51-8.268-65.85-13.816-95.9-26.268 32.99-20.365 68.25-38.11 102.3-56.692 36.77 11.928 122.22 47.132 157.69 44.447 2.51-.19 5.03-1.385 6.47-3.542 1.55-2.334 1.23-3.658.86-6.223-3.88-5.141-11.94-5.118-17.91-5.823-44.45-5.255-88.42-23.759-130.3-38.991a1171 1171 0 0 1 107.38-54.636c33.34 10.685 65.86 18.278 100.83 20.846 7.47.548 15.91 1.664 23.3.312 3.29-.603 5.49-1.563 7.53-4.342.47-2.402.32-4.101-.96-6.28-1.02-1.733-2.87-2.988-4.82-3.413-8.81-1.912-20.55-.487-29.75-1.338-26.07-2.412-50.35-7.658-75.44-15.017 17.55-7.018 35.07-14.206 53.06-20.026 24.89-9.169 54.47-16.115 80.86-18.366 10.01-.855 20.57.757 30.4-1.31 2.15-1.679 3.3-2.445 3.86-5.321.51-2.574-.66-4.393-2.01-6.423-7.15-5.048-28.99-2.279-37.4-1.58-37.12 3.089-72.8 14.349-107.39 27.682-36.51 14.073-73.17 30.596-107.68 49.005-49.19 26.241-96.43 55.896-145.76 81.925-28.34 14.947-57.15 27.335-86.83 39.303-18.96 7.641-49.25 22.685-68.13 25.398-10.66 1.532-22.24.716-33.01.7 37.57-12.014 75.1-25.027 110.9-41.652 91.63-42.555 176.6-98.804 269.34-138.894 37.29-16.12 72.08-26.935 110.86-38.249 13.39-3.91 27.17-6.981 40.42-11.332 24.28-7.978 47.96-19.419 71.82-28.686 17.02-6.611 34.54-12.121 50.9-20.319 29.09-14.581 49.09-34.302 70.14-58.523m-504.49 626.116 11.62-.09c.19.53.39 1.06.58 1.59 6.6 18.59 4.86 38.5 4.77 57.9-.09 18.07.43 36.45-.72 54.46-2.24 35.15-8.06 69.63-13.77 104.32-4.77 28.9-10.09 59.19-18.73 87.25-5.38 17.5-16.6 32.83-23.84 49.54-8.82 20.36-15 41.6-25.01 61.57-5.99 11.94-13.89 23.01-20.69 34.5-7.04 11.9-13.17 24.44-20.75 36-20.73 31.59-46.11 60.1-71.23 88.21-13.83 15.47-27.08 31.25-43.58 44.04-44.41 34.43-99.28 59.64-152.35 77.23-5.17 1.67-10.44 3.1-15.65 4.63 8.95-10.83 19.44-20.4 28.78-30.91a1257 1257 0 0 0 59.83-73.09c154.26-205.57 134.84-350.08 138.53-591.44 25.45.12 51.18-1.57 76.62-2.55 28.53-1.1 57.07-1.7 85.59-3.16M955.823 224.287l1.584.706c-2.259 9.864-25.76 40.461-32.63 51.174a7144 7144 0 0 0-52.132 82.771C806.769 467.41 750.985 586.35 719.428 709.529c-12.508 48.824-20.828 97.82-27.297 147.751-21.043.818-42.323.036-63.388-.083l-114.753-.642-1.873-.345c-.531-.732-.722-.888-1.001-1.886-2.803-10.031 3.257-64.729 5.262-78.253 4.39-29.621 7.833-59.616 13.449-89.031 6.845-35.859 17.583-72.533 30.961-106.496 8.829-22.415 19.949-43.76 30.305-65.476 9.979-20.925 18.946-44.232 32.236-63.232 5.986-8.559 13.276-16.103 19.68-24.339 7.887-10.144 15.337-20.562 23.802-30.248a546 546 0 0 1 233.982-156.195c17.838-6.129 36.429-13.364 55.03-16.767"/><path fill="#fefefe" d="M1497.6 487.447c13.98-2.462 31.44.022 45.67 1.03 55.15 3.91 119.45 20.542 172.72 35.597 47.69 13.476 102.2 33.661 151.45 36.021 12.42.596 24.93-.465 37.3-1.582-19.34 11.752-39.13 17.485-59.82 25.842-25.18 10.175-50.62 22.566-77.04 29.137 8.29-12.396 18.79-23.766 29.56-34.068 4.12-3.944 9.66-7.476 13.21-11.811 1.35-1.661 2.39-4.508 2.36-6.697-.04-2.67-.62-3.88-2.37-5.814-2.48-.74-3.73-.898-6.17.193-9.79 4.374-47.07 44.916-54.65 55.313-2.31 3.173-3.8 6.621-5.14 10.288-37.53 8.623-75.12 22.012-111.38 34.987 8.04-22.792 38.35-52.027 57.41-67.02 8.96-7.043 19.57-12.973 27.73-20.866 2.55-2.464 3.98-4.355 4.06-8.052-.97-2.924-1.82-3.9-4.02-5.895-6.74-1.22-14.15 6.852-19.59 10.699-27.4 19.36-53.32 44.067-72.59 71.747-6.51 9.359-11.15 23.53-19.73 30.851-10.32 8.794-25.85 12.989-37.89 19.331-24.31 12.81-56.42 33.737-81.46 42.877 7.84-44.878 47.02-112.442 76.91-146.424a183 183 0 0 1 12.99-13.505c5.47-5.063 27.47-20.519 27.52-27.236.02-2.574-.74-3.329-2.32-5.125-1.92-.676-3.59-1.38-5.68-1.049-5.67.902-10.52 7.362-14.71 10.956-7.28 6.243-14.94 12.14-21.64 19.015-21.11 21.659-38.03 50.244-53.76 76.004-3.85-7.538-16.48-33.235-22.92-37.204-1.86-1.142-3.7-1.356-5.61-.215-1.7 1.023-2.69 2.491-3.31 4.328-2.06 6.037 20.42 40.848 24.58 48.533-13.1 26.423-24.17 51.972-27.77 81.54-13.15 5.72-25.86 14.145-38.51 21.016-37.68 20.465-76.47 42.834-117.16 56.852-4.12-30.882-.07-80.602 10.64-109.137 12.52-33.32 47.18-80.976 70.72-108.062 8.14-9.36 31.19-27.775 35.5-35.423.35-3.02.01-4.589-.88-7.406-1.92-1.657-2.54-2.348-5.3-1.875-12.88 2.209-45.74 42.344-55.54 54.48-12.92 16.625-24.5 34.259-35.72 52.056-7.56 11.988-15.37 23.999-21.08 37.004-16.92 38.522-13.8 82.911-10.97 123.856-37.4 15.306-92.27 35.488-132.09 36.648 12.45-56.843 26.27-115.31 53.32-167.255 5.99-11.517 11.68-24 18.71-34.879 5.65-8.746 15.39-17.203 19.09-26.874.48-1.251 1.12-3.03 1.01-4.395-.27-3.081-1.02-3.603-3.13-5.613-2.6-.503-3.79-.233-6.11 1.098-5.81 3.324-10.71 11.062-14.58 16.386-29.19 40.191-50.07 91.102-62.12 139.159-6.34-6.611-12.74-13.093-20.1-18.584-5.89-4.392-17.57-14.283-25.39-12.026-2.85.824-3.31 1.446-4.87 3.764.09 3.606 1.16 5.765 3.84 8.114 4.16 3.656 10.95 5.433 15.67 8.657 9.69 6.632 17.6 16.968 25.53 25.538a746 746 0 0 0-15.03 67.586c-12.22.777-24.38-.188-36.61-.267a3293 3293 0 0 0-71.07.313c2.45-28.411 5.03-61.395 16.72-87.689 6.52-14.682 30.34-53.776 32.38-65.374.56-3.213.12-5.333-1.66-7.997-3.62-.22-5.67.767-8.34 3.223-7.69 7.091-11.98 19.054-16.69 28.276-7.47 14.622-15.54 29.135-21.3 44.545-9.56 25.591-14.04 57.773-15.61 85.031-24.22-.074-48.874 1.383-73.021-.175 6.215-16.629 33.372-61.528 31.695-77.647-.282-2.703-.974-3.495-3.025-5.146-1.728-.137-3.195-.322-4.807.515-2.741 1.423-4.642 4.427-5.995 7.087-4.305 8.464-6.251 18.15-10.154 26.835-7.336 16.329-18.161 30.949-21.925 48.604l-45.399.133c4.342-15.013 6.346-30.904 10.05-46.122 9.308-38.248 27.333-75.542 53.419-105.214 26.616-30.275 61.742-52.444 95.442-73.972 16.79-10.723 33.36-22.047 50.7-31.866a913.4 913.4 0 0 1 385.85-115.504M751.699 1155.27c16.93-1.34 34.602-.35 51.588-.27-2.61 25.5-3.464 51.73-7.678 76.98-5.061 30.34-16.537 61.4-28.728 89.53-6.985 16.11-17.278 31.81-23.72 47.07-1.334 3.16-3.044 7.67-1.806 11.08.542 1.5 2.173 1.91 3.476 2.65 2.876-.03 4.542-.61 6.718-2.46 9.121-7.75 15.683-24.38 20.759-35.28 16.613-35.68 31.025-73.18 37.401-112.21 2.284-13.98 2.996-28.28 4.381-42.38 1.132-11.51 2.636-22.95 3.291-34.51 36.295 1.26 72.894 1.51 109.207 1.43-4.336 30.13-10.492 61.24-19.85 90.27-2.871 8.91-20.483 49.51-19.951 53.37.381 2.76 2.186 4.12 4.146 5.81 2.551.64 3.238.87 5.724-.42 6.331-3.31 10.702-18.22 13.109-24.73 5.693-15.41 12.088-31.4 16.181-47.32 6.433-25.03 10.281-51 15.552-76.31a2054 2054 0 0 1 72.751.42c-8.64 18.67-36.776 62.96-39.778 78.34.425 1.67.333 2.37 1.652 3.61 1.96 1.85 3.631 2.38 6.328 1.95 2.538-.41 3.7-1.3 5.239-3.29 5.119-6.59 8.661-14.98 12.519-22.37 9.72-18.64 18.8-38.6 30.04-56.3l.85-1.32a934 934 0 0 1 45.98-.46c-2.9 39.69-10.24 77.55-29.78 112.78-30.32 54.67-86.056 88.19-135.127 123.99-58.334 42.57-123.969 69.57-192.185 91.88-67.023 21.92-143.206 40.56-214.08 38.85-35.182-.84-70.549-7.26-104.995-14.03a2195 2195 0 0 1-121.589-27.37c-32.874-8.15-66.939-18.74-100.825-21.07-15.323-1.05-30.242 1.64-44.909 5.88 18.467-15.29 40.933-27.18 61.625-39.15a570 570 0 0 1 66.11-33.61c-8.798 18-23.483 29.93-36.373 44.61-1.847 2.1-2.537 4.1-2.188 6.95.337 2.74 1.821 4.54 3.901 6.23 2.017.28 2.676.59 4.671-.13 9.871-3.55 33.658-35.02 39.618-44.42 3.552-5.6 6.304-11.48 8.972-17.54 25.355-13.4 51.142-25.96 76.587-39.18 11.959-6.21 23.431-13.3 35.504-19.28-9.268 20.6-20.39 41.93-34.194 59.89-5.653 7.35-12.256 13.95-18.244 21.03-4.063 4.8-7.703 10-11.883 14.69-4.577 5.14-10.655 9.79-14.494 15.49-1.825 2.71-2.317 5.08-2.378 8.28 1.188 2.61 1.198 2.64 3.742 3.96 2.707.01 4.588-.23 6.996-1.55 9.699-5.31 17.021-16.85 24.065-25.23 7.442-8.85 15.518-17.16 22.609-26.31 17.711-22.85 35.383-53.87 43.068-81.76 20.278-13.84 42.628-25.29 63.649-38.04 18.089-10.97 35.191-23.58 53.531-34.13-6.697 35.98-21.946 67.6-35.558 101.19-8.083 19.95-14.946 40.56-25.542 59.39-8.804 15.65-26.449 39.5-40.141 50.69-2.7 2.21-4.417 4.02-4.505 7.7-.06 2.5 1.633 4.69 3.305 6.33 2.406.51 3.292.75 5.686-.15 15.458-5.79 46.645-52.07 54.223-67.43 7.459-15.12 12.406-31.01 18.891-46.51 4.189 9.03 15.509 31.68 22.991 37.34 2.004 1.51 4.502 2.14 7.014 1.56 2.635-.62 3.286-1.86 4.569-3.95.15-1.76.355-3.36-.329-5.05-2.334-5.75-7.422-11.81-10.786-17.13-6.468-10.21-11.108-20.81-14.727-32.32 11.841-37.21 25.551-58.53 30.131-100.47 29.537-21.39 97.82-49.7 132.791-61.45 3.648 14.89 3.569 31.41 4.335 46.7 1.025 20.47 2.812 41.06-1.269 61.32-6.403 31.78-54.551 109.11-74.164 138.83-6.657 10.08-23.161 19.82-26.968 28.09-.057 3.23.401 4.36 1.977 7.03 2.16 1.41 2.794 1.97 5.499 1.72 8.933-.82 23.077-18.48 28.374-25.11 5.036-6.29 8.78-13.14 13.194-19.85 11.82-17.96 22.871-35.88 33.125-54.8 10.248-18.92 22.481-38.46 29.708-58.75 12.224-34.33 4.505-93.62.331-130.38 19.971-7.11 40.733-13.07 61.06-19.13M1776.32 858.42c1.33.056 1.96.601 3.08 1.26 4.79 12.927-6.59 72.353-8.85 89.908a628 628 0 0 0-3.64 38.076c-2.49 41.276 1.11 84.386 7.71 125.136a9577 9577 0 0 1-956.619 28.15 11970 11970 0 0 1-315.261-8.03c-80.945-3.17-162.012-8.6-242.99-10.17-5.086.07-9.985-.38-15.028-.92-1.056-8.17-.752-16.52-.965-24.74-.556-21.48-.324-42.98-.959-64.45l-4.206-117.095c-.605-15.552-2.006-31.062-2.119-46.63 17.175-1.122 34.813.563 52.026.695 32.862.251 65.617-.072 98.5.558L630 873.077a29474 29474 0 0 0 711.74.177 7187 7187 0 0 0 434.58-14.834"/><path d="M440.187 994.101c1.593-.014 3.227-.033 4.807.187 3.746.523 7.62 2.835 9.803 5.922 2.125 3 2.686 6.61 1.835 10.15-1.334 5.55-5.138 8.02-9.855 10.64-2.155 0-4.409.04-6.506-.52a14.4 14.4 0 0 1-8.987-6.98 12.64 12.64 0 0 1-.708-10.49c1.763-4.788 5.171-6.884 9.611-8.909m1122.823 1.02c1.51.295 3.02.567 4.49 1.027 4.34 1.359 7.96 4.152 9.86 8.352 1.41 3.12 1.51 6.51.22 9.7-2.16 5.31-6.43 7.48-11.46 9.55-2.04-.19-4.14-.35-6.14-.8-3.59-.82-6.91-3.66-8.54-6.92-1.71-3.4-1.68-7.44-.23-10.92 2.35-5.652 6.41-7.722 11.8-9.989M810.952 969.18c3.566-.491 7.541-1.007 11.089-.111 2.229.562 4.143 1.901 5.093 4.061.932 2.119.652 3.973-.239 5.985-2.588 2.282-5.838 2.281-9.064 3.072-31.756 7.788-21.59 85.623-26.383 91.763-1.861 2.39-2.664 2.5-5.458 2.93-3.091-1.18-4.438-2.47-6.577-4.96-.895-3.66.66-7.9 1.507-11.51-1.06-18.3-1.754-36.63-2.924-54.93-.592-9.258-3.604-22.737-2.021-31.739.459-2.612 1.295-2.754 3.41-3.938 3.084.233 3.542.463 6.094 2.234 3.297 5.216 2.627 25.974 2.926 32.943 4.886-13.14 10-28.179 22.547-35.8m57.425-37.545c2.39-.002 5.894-.088 7.754 1.597 5.434 4.924 1.877 35.856 1.821 44.99 8.862-1.064 19.774-6.395 28.235-5.612 2.156.199 2.197.249 3.689 1.938-.073 1.367-.221 2.481-.9 3.701-5.47 9.822-21.049 10.369-30.99 12.94-.16 17.681-1.211 53.441 5.883 68.481 1.601 3.39 4.484 6.09 7.074 8.74 4.857-3.71 9.594-7.69 15.158-10.29 1.725 1.36 4.093 3.24 4.148 5.63.065 2.77-1.424 5.17-3.299 7.1-4.438 4.58-12.143 7.94-18.521 8.02-3.884.06-7.405-1.55-10.156-4.25-14.506-14.23-12.008-62.9-12.32-83.57-4.217.432-9.236 1.265-13.269-.365-2.811-1.137-4.215-2.613-5.352-5.35.47-1.64.882-2.283 2.174-3.489 4.129-3.854 11.154-2.968 16.391-2.984.408-10.97-2.907-39.641 2.48-47.227m-143.614 38.534c4.369.076 8.191.343 11.781 3.047 12.685 9.558 10.373 53.274 12.732 69.554 1.159 8 5.362 15.54 6.247 23.48.349 3.13-.172 5.48-1.973 7.96-3.044.04-4.448-.95-6.631-3.08-10.703-10.45-10.208-36.91-10.084-51.24l-.929 2.32c-6.689 16.63-17.615 44.27-35.882 51.35-2.918 1.14-5.729 1.23-8.516-.45-4.735-2.84-6.941-8.57-8.575-13.54-.008-4.88-.187-10.61 1.458-15.26 1.934-5.45 3.842-10.63 9.353-13.23 5.129 2.32-1.867 23.7 2.555 30.07 1.634.26 1.433.53 2.66-.08 12.812-6.32 27.813-39.23 31.477-52.57 1.928-7.01 3.743-19.957-1.131-26.219-1.571-2.019-2.251-2.13-4.594-2.527-11.72 2.888-17.026 17.261-24.401 25.446-1.816 2.02-3.005 2.8-5.672 2.92-.482-.77-.974-1.5-1.294-2.37-1.515-4.12-.079-8.613 2.08-12.166 7.052-11.603 15.73-20.475 29.339-23.415m628.667.262 2.57 1.474c4.24 8.412 2.05 34.925 2.15 45.615 5-14.79 10.49-35.944 25.37-43.929 3.46-1.858 7.44-2.655 11.25-1.446 4.6 1.458 7.89 5.407 9.97 9.593 9.19 18.462 5.63 49.292 4.54 69.382-.44 8.07-.12 16.91-2.66 24.63-1.61 1.71-2.6 3.06-5.16 3.23-2.64.17-3.65-.96-5.44-2.56-1.92-5.12 1.75-30.15 2.08-37.33.2-14 1.13-29.97-1.42-43.747-.87-4.712-1.83-7.809-5.89-10.705-2.87-.1-4.1.064-6.32 2.011-10.26 8.992-20.61 41.301-22.36 54.531-1.34 10.19-.91 20.65-2.3 30.8-.44 3.21-1.74 5.28-4.32 7.12-1.87-.56-1.99-.38-3.41-1.98-2.32-2.6-4.1-6.99-4.41-10.48-.75-8.37 1.11-17.88 1.11-26.46 0-19.15-2.87-39.9-.75-58.812.6-5.333 1.23-7.484 5.4-10.937m-754.062-33.438c13.124 1.704 57.308-1.189 64.076 2.22 1.547.78 1.224 1.179 1.594 2.695-.516 1.774-.884 3.477-2.054 4.949-1.474 1.854-2.485 2.644-4.896 2.954-5.982.77-13.289-.454-19.363-.616a204 204 0 0 0-31.668 1.756 2014 2014 0 0 0 1.022 50.999c11.301.13 22.501-1.56 33.767-1.61 4.339-.02 8.157-.22 11.36 2.97-.038 1.93-.391 2.77-1.72 4.21-6.808 7.37-31.89 6.29-42.446 6.83-.058 7.78-.373 15.56-.576 23.33.019 6.63-.164 13.41.72 20 .142 1.05.646 4.02 1.485 4.82 5.677 5.43 45.837-6.14 53.715-.27.565 2.28.652 3.04-.572 5.25-1.486 2.67-3.824 3.75-6.622 4.52-8.461 2.3-18.545 1.17-27.299 1.76-7.514.5-14.942 2.17-22.513 1.96-2.634-.07-4.732-.3-7.067-1.62-4.835-10.78-3.297-93.282-4.171-111.898-.265-5.648-3.062-14.387-1.576-19.634.881-3.112 2.399-3.785 4.804-5.575m599.252 31.19c4.55-.247 8.76.213 12.91 2.216 3.6 1.742 6.45 4.259 7.73 8.143 2.47 7.489-.83 16.886-4.28 23.538-8.75 16.89-22.67 25.12-40.3 30.64.78 8.45 1.61 18.94 8.12 25.19 14.05 13.5 33.84-17.48 43.76-18.1 2.82.96 3.86 2.95 5.45 5.29-.3.96-.29 1.03-.8 2.08-5.04 10.51-21.68 21.65-32.4 25.3-6.62 2.26-13.88 2.59-20.16-.87-7.74-4.27-12.24-12.9-14.45-21.15-5.21-19.42.16-45.24 10.04-62.423 5.89-10.234 12.91-16.773 24.38-19.854"/><path fill="#fefefe" d="M1197.29 978.86c4.16-.327 6.46-.349 9.86 2.49 1.24 2.448 1.65 4.206 1.08 6.898-2.51 11.952-13.5 23.212-23.35 29.682l-9.69 4.8c2.96-17.37 6.96-33.025 22.1-43.87"/><path d="M940.117 930.524c2.097.484 3.978.814 5.744 2.142 1.512 1.138 2.348 2.262 2.749 4.114 1.616 7.471-.776 18.81-.641 26.85.265 15.902 1.445 31.877 2.306 47.76 5.121-11.809 10.619-25.978 21.285-33.917 4.82-3.588 10.9-5.372 16.874-4.232 5.523 1.054 9.654 4.656 12.516 9.369 8.21 13.539 11.14 72.53 7 87.65-.85 3.1-2.13 4.41-4.83 6.02-2.73.09-3.861-.02-6.175-1.51-1.2-1.89-1.747-3.48-1.713-5.75.066-4.45 1.493-8.97 1.789-13.46.65-9.87.171-19.93-.011-29.81-.896-11.07-1.169-28.188-7.344-37.775-1.406-2.182-2.857-3.268-5.404-3.853-2.171.275-3.66.605-5.474 1.896-13.595 9.675-22.51 39.862-24.504 55.972-1.145 9.26.339 19.22-1.686 28.3-.758 3.39-2.081 5.84-5.28 7.49-2.421 1.25-3.108 1.19-5.479.36-3.572-4.1-2.202-35.43-2.559-43.11-.939-20.22-1.67-40.485-2.861-60.689-.69-11.692-2.948-25.065-1.722-36.563.371-3.479 2.916-5.16 5.42-7.254m344.953 38.61c2.54-.343 5.47-.844 7.98-.204 4.69 1.193 8.31 7.141 10.94 10.867 1.62-2.375 1.75-2.662 4.4-3.697 1.18.392 2.13.354 2.75 1.547.41.771.16 62.023 1.53 72.963.49 3.98 1.14 8.04 2.34 11.87 1.46 4.63 6.14 10.38 5.28 15.15-2.32 1.63-3.58 1.97-6.4 2.19-13.25-4.03-7.16-23.72-12.78-32.21l-1.48 1.65c-3.96 9.36-9.65 18.59-18.11 24.52-5.34 3.74-12.96 6.47-19.52 4.9-3.74-.9-6.48-3.37-8.28-6.71-7.08-13.19-1.16-35.73 2.58-49.25 4.83-17.42 11.95-44.134 28.77-53.586"/><path fill="#fefefe" d="M1287.2 979.545c2.44.301 3.64.864 5.19 2.703 6.23 7.404 5.07 19.122 4.08 28.172-2 18.34-9.88 45.04-24.75 56.87-2.51-.22-4.76-.37-6.74-2.2-3.79-3.52-3.64-10.76-3.27-15.47 1.5-19.03 10.97-57.463 25.49-70.075"/><path d="M1086.92 934.375c3.82-.467 7.64-.515 11.48-.463 11.75.158 23.84 3.564 32.03 12.423 6.87 7.416 9.59 17.342 9.06 27.291-.87 16.44-9.88 26.167-21.41 36.524 10.62 2.89 20.5 6.98 27.26 16.16 4.12 5.59 6.45 12.6 5.35 19.55-1.49 9.5-8.25 15.43-15.52 20.87-11.82 6.58-25.41 9.25-38.78 10.36-8.27.69-17.55 1.87-24.31-3.85-5.6-10.79-6.53-99.115-7.35-119.203-1.49-1.62-3.3-3.355-4.44-5.231-1.41-2.305-.65-4.199.07-6.552 6.04-6.447 18.22-6.707 26.56-7.879"/><path fill="#fefefe" d="M1099.18 1019.44c6.83-.07 13.67.15 20.18 2.44 7.22 2.54 14.52 7.32 17.63 14.6 1.76 4.13 1.85 8.67-.15 12.73-3.75 7.66-12.26 10.57-19.72 13.22-11.59 2.35-23.27 3.29-35.08 3.66-1.07-15.24-1.41-30.56-1.99-45.82zm-10.35-74.108c4.85-.365 9.57-.567 14.4.187 7.65 1.194 14.69 4.874 19.16 11.326 4.26 6.168 5.74 14.33 4.35 21.66-2.14 11.317-9.91 17.561-18.92 23.605-9.1 4.38-19.18 5.21-28.9 7.66-.52-11.756-4.66-52.839-2.45-61.395 3.84-1.989 8.14-2.358 12.36-3.043"/></svg>