<svg preserveAspectRatio="xMidYMid meet" version="1.1" xmlns="http://www.w3.org/2000/svg" style="display: block;" viewBox="0 0 2048 2048" width="1024" height="1024">
<path transform="translate(0,0)" fill="rgb(254,254,254)" d="M 0 0 L 2048 0 L 2048 2048 L 0 2048 L 0 0 z"/>
<path transform="translate(0,0)" fill="rgb(0,0,0)" d="M 1009.89 185.574 C 1036.71 182.9 1065.6 187.662 1092.22 190.748 C 1098.76 191.506 1105.25 191.038 1111.76 191.573 C 1120.06 192.255 1128.28 194.672 1136.27 196.926 C 1177.41 208.531 1219.56 227.598 1253.29 254.104 C 1263.49 262.119 1272.96 271.475 1282.33 280.434 C 1294.49 292.049 1309.29 301.568 1320.53 313.832 C 1329.95 324.113 1337.21 336.867 1344.81 348.506 C 1363.29 376.798 1380.46 405.262 1396.3 435.142 C 1404.02 449.7 1410.33 464.956 1418.4 479.329 C 1478.34 471.834 1520.84 467.981 1581.6 477.198 C 1624.27 483.67 1666.34 494.494 1707.94 505.86 C 1762.85 520.862 1846.37 553.244 1901.65 543.437 C 1934.84 537.548 1950.31 508.483 1968.21 483.412 C 1971.08 479.394 1973.97 475.976 1979.03 475.137 C 1981.11 475.572 1982.19 475.902 1983.84 477.328 C 1986.21 479.366 1986.69 482.581 1986.94 485.517 C 1988.73 506.535 1979.07 544.603 1968.15 562.562 C 1960.08 575.824 1926.72 594.644 1912.93 604.683 C 1898.91 614.887 1885.35 625.794 1874.38 639.325 C 1856.61 661.233 1841.89 685.768 1827.52 709.978 C 1800.39 755.7 1774.7 803.916 1740.84 845.065 C 1749.73 844.897 1784 838.845 1789.49 842.441 C 1792.97 844.726 1794.29 851.184 1794.93 854.941 C 1800.26 886.456 1787.07 936.872 1783.88 970.215 C 1781.03 1000.02 1782.06 1030.12 1784.49 1059.91 C 1785.53 1072.72 1792.88 1117.38 1787.13 1125.22 C 1784.07 1126.84 1781.14 1127.66 1777.72 1128.2 C 1757.37 1131.39 1735.69 1131.39 1715.1 1133.05 C 1646.04 1138.64 1576.78 1141.38 1507.73 1146.65 C 1507.83 1159.34 1505.87 1171.97 1506.03 1184.64 C 1506.29 1207.13 1509.11 1229.97 1507.18 1252.47 C 1506.11 1265 1501.42 1277.01 1500.39 1289.6 C 1499.51 1300.46 1501.96 1311.46 1501.68 1322.35 C 1501.22 1340.12 1496.81 1369.76 1493.27 1387.68 C 1489.99 1404.3 1480.98 1418.72 1475.78 1434.65 C 1463.59 1471.98 1454.7 1510.4 1439.78 1546.88 C 1433.78 1561.56 1423.37 1573.84 1415.81 1587.64 C 1407.63 1602.57 1400.77 1618.35 1393 1633.52 A 385.157 385.157 0 0 1 1355.68 1692.31 C 1350.01 1699.6 1343.88 1707.24 1337.02 1713.47 C 1329.57 1720.23 1321.24 1726.19 1314.15 1733.32 C 1304.56 1742.99 1297.11 1754.7 1287.59 1764.39 C 1280.54 1771.57 1272.02 1777.65 1264.43 1784.28 C 1221.11 1822.2 1202.89 1832.11 1151.67 1855.7 C 1133.82 1863.92 1116.99 1873.69 1097.67 1878.33 C 1075.18 1883.72 1051.18 1880.9 1028.24 1883.76 C 997.933 1885.93 958.858 1875.69 929.319 1868.41 C 913.714 1864.56 899.145 1858.78 884.281 1852.77 C 867.044 1845.81 849.864 1838.68 833.781 1829.26 C 805.893 1812.94 782.528 1792.76 759.184 1770.61 C 745.776 1757.88 732.185 1745.63 719.841 1731.84 C 690.194 1698.71 656.404 1647.11 634.551 1608.47 C 626.687 1594.57 620.119 1580.66 614.056 1565.88 C 609.675 1555.2 605.727 1542.62 599.656 1532.82 C 599.509 1532.58 599.355 1532.35 599.204 1532.11 C 556.746 1537.28 517.329 1543.2 474.345 1538.8 C 425.217 1533.78 375.74 1522.6 327.617 1511.64 C 283.284 1501.53 197.37 1472.39 155.861 1479.1 C 99.1171 1488.28 74.6261 1550.03 66.3892 1551.71 C 63.7416 1552.25 62.1196 1551.2 59.9487 1549.87 C 58.7491 1548.26 58.5118 1547.03 58.3487 1545.07 C 57.8165 1538.68 58.4662 1531.94 58.7282 1525.54 C 59.5467 1505.54 61.773 1488.37 71.4311 1470.5 C 91.7759 1432.85 137.418 1415.83 162.225 1377.65 C 177.7 1353.83 188.747 1328 200.118 1302.09 C 224.775 1245.9 248.571 1187.04 289.278 1140.19 C 272.721 1137.02 254.409 1139.28 238.517 1135.71 C 234.723 1134.86 231.666 1133.41 229.715 1129.84 C 227.289 1125.39 228.251 1071.38 228.164 1062.96 A 3633.29 3633.29 0 0 0 224.908 951.45 C 223.94 929.595 218.443 873.754 222.695 855.864 C 225.736 853.238 231.086 853.46 235.022 853.303 C 265.47 852.095 296.707 853.977 327.234 854.243 A 8111.2 8111.2 0 0 1 480.748 855.647 C 481.289 842.443 480.556 829.16 481.317 815.978 C 481.942 805.141 483.905 794.325 484.951 783.514 C 487.401 758.204 489.539 733.05 494.38 708.047 C 500.414 676.88 510.455 647.697 520.675 617.728 C 527.135 598.782 533.15 579.476 541.275 561.167 C 547.888 546.263 556.409 532.431 563.428 517.761 C 571.342 501.22 578.257 483.941 587.175 467.919 C 592.565 458.237 599.918 450.132 606.055 441.003 C 613.665 429.681 620.235 417.602 627.649 406.134 C 637.03 391.622 648.399 376.607 659.492 363.24 C 670.157 350.391 683.917 340.021 695.704 328.259 C 749.454 274.624 808.306 231.236 881.706 208.865 C 895.009 204.811 908.851 202.412 922.345 199.048 C 931.318 196.811 939.555 191.813 948.605 190.223 C 958.929 188.41 969.563 189.163 979.985 188.515 C 989.945 187.895 999.956 186.581 1009.89 185.574 z"/>
<path transform="translate(0,0)" fill="rgb(254,254,254)" d="M 1397.66 825.974 C 1400.18 826.315 1402.43 828.673 1404.45 830.245 C 1416.58 839.693 1478.04 851.998 1494.54 855.359 C 1466.12 858.931 1435.92 857.454 1407.25 857.997 C 1374.92 858.001 1342.48 859.279 1310.14 859.937 C 1339.99 849.922 1368.81 838.6 1397.66 825.974 z"/>
<path transform="translate(0,0)" fill="rgb(254,254,254)" d="M 310.183 1140.94 C 344.588 1140.39 379.517 1143.88 413.915 1145.33 A 5835.47 5835.47 0 0 0 633.59 1152.21 C 609.657 1163.56 585.148 1173.8 561.549 1185.84 C 542.883 1176.81 516.066 1174.76 495.584 1170.98 C 471.276 1166.48 447.575 1160.93 422.838 1158.65 C 412.162 1157.67 401 1157.76 390.323 1158.73 C 386.059 1159.11 382.632 1160.28 379.994 1163.86 C 378.448 1165.95 378.121 1167.8 378.481 1170.35 C 380.101 1172.38 380.493 1172.9 383.14 1173.6 C 392.585 1176.11 412.794 1171.39 425.214 1172.91 C 464.582 1177.74 502.697 1187.31 541.416 1195.5 C 505.797 1218.59 466.436 1237.4 432.239 1262.61 C 396.007 1251.97 323.317 1249 287.429 1260.22 C 283.486 1261.45 280.749 1262.86 278.795 1266.62 C 278.689 1269.29 279.037 1270.24 280.502 1272.47 C 286.596 1276.57 300.154 1272.63 307.377 1271.54 C 343.694 1266.1 378.849 1265.97 414.909 1273.43 C 370.631 1301.33 306.056 1346.61 255.032 1355.85 C 241.495 1358.3 228.23 1355.8 214.81 1357.26 C 211.742 1357.6 209.232 1358.6 207.517 1361.28 C 206.132 1363.45 206.301 1365.36 206.783 1367.72 C 208.959 1370.12 210.625 1370.99 213.706 1371.72 C 220.1 1373.24 227.474 1372.57 234.032 1372.46 C 241.936 1372.32 249.982 1372.51 257.781 1371.04 C 312.255 1360.78 384.275 1309.86 432.005 1280.64 C 447.866 1271.53 462.968 1260.26 478.664 1250.67 C 526.288 1221.6 573.759 1195.11 624.964 1172.7 C 638.491 1166.78 653.03 1158.62 667.468 1155.54 C 679.788 1152.91 693.752 1153.99 706.316 1153.95 C 676.667 1163.86 646.06 1174.21 617.347 1186.52 C 588.031 1199.1 559.45 1214.31 531.782 1230.18 C 509.995 1242.68 488.933 1257.32 467.588 1270.67 A 2915.02 2915.02 0 0 1 376.452 1325.06 C 357.957 1335.84 339.257 1345.88 320.218 1355.67 C 310.097 1360.87 299.466 1366.92 288.639 1370.44 C 283.526 1372.11 278.076 1372.73 272.833 1373.9 C 257.214 1377.4 240.48 1388.95 226.256 1396.36 C 166.225 1427.67 111.709 1455.43 74.0989 1514.7 C 75.7741 1503.1 77.7644 1491.59 82.9074 1480.95 C 93.6927 1458.62 115.128 1444.6 133.509 1429.04 C 148.986 1415.95 164.143 1401.86 175.543 1384.98 C 190.262 1363.19 200.471 1338.66 211.112 1314.73 C 232.493 1266.63 252.533 1214.6 283.656 1171.89 C 291.702 1160.85 300.944 1150.98 310.183 1140.94 z"/>
<path transform="translate(0,0)" fill="rgb(254,254,254)" d="M 1964.08 522.304 L 1966.92 523.11 L 1967.57 525.623 C 1966.48 531.574 1963.43 536.962 1960.68 542.306 C 1945.27 572.311 1916.66 583.332 1891.49 602.909 C 1877.99 613.413 1866.34 626.27 1855.66 639.592 C 1823.09 680.233 1800.59 728.535 1773.93 773.005 A 495.496 495.496 0 0 1 1720.06 846.404 A 7277.7 7277.7 0 0 1 1599.95 852.401 C 1581.76 853.275 1557.98 856.213 1540.2 854.636 C 1529.78 853.712 1518.66 848.611 1508.45 845.932 C 1476.94 837.664 1442.6 832.116 1412.55 819.664 C 1445.54 799.299 1480.8 781.554 1514.85 762.972 C 1551.62 774.9 1637.07 810.104 1672.54 807.419 C 1675.05 807.229 1677.57 806.034 1679.01 803.877 C 1680.56 801.543 1680.24 800.219 1679.87 797.654 C 1675.99 792.513 1667.93 792.536 1661.96 791.831 C 1617.51 786.576 1573.54 768.072 1531.66 752.84 A 1171.15 1171.15 0 0 1 1639.04 698.204 C 1672.38 708.889 1704.9 716.482 1739.87 719.05 C 1747.34 719.598 1755.78 720.714 1763.17 719.362 C 1766.46 718.759 1768.66 717.799 1770.7 715.02 C 1771.17 712.618 1771.02 710.919 1769.74 708.74 C 1768.72 707.007 1766.87 705.752 1764.92 705.327 C 1756.11 703.415 1744.37 704.84 1735.17 703.989 C 1709.1 701.577 1684.82 696.331 1659.73 688.972 C 1677.28 681.954 1694.8 674.766 1712.79 668.946 C 1737.68 659.777 1767.26 652.831 1793.65 650.58 C 1803.66 649.725 1814.22 651.337 1824.05 649.27 C 1826.2 647.591 1827.35 646.825 1827.91 643.949 C 1828.42 641.375 1827.25 639.556 1825.9 637.526 C 1818.75 632.478 1796.91 635.247 1788.5 635.946 C 1751.38 639.035 1715.7 650.295 1681.11 663.628 C 1644.6 677.701 1607.94 694.224 1573.43 712.633 C 1524.24 738.874 1477 768.529 1427.67 794.558 C 1399.33 809.505 1370.52 821.893 1340.84 833.861 C 1321.88 841.502 1291.59 856.546 1272.71 859.259 C 1262.05 860.791 1250.47 859.975 1239.7 859.959 C 1277.27 847.945 1314.8 834.932 1350.6 818.307 C 1442.23 775.752 1527.2 719.503 1619.94 679.413 C 1657.23 663.293 1692.02 652.478 1730.8 641.164 C 1744.19 637.254 1757.97 634.183 1771.22 629.832 C 1795.5 621.854 1819.18 610.413 1843.04 601.146 C 1860.06 594.535 1877.58 589.025 1893.94 580.827 C 1923.03 566.246 1943.03 546.525 1964.08 522.304 z"/>
<path transform="translate(0,0)" fill="rgb(254,254,254)" d="M 1459.59 1148.42 L 1471.21 1148.33 C 1471.4 1148.86 1471.6 1149.39 1471.79 1149.92 C 1478.39 1168.51 1476.65 1188.42 1476.56 1207.82 C 1476.47 1225.89 1476.99 1244.27 1475.84 1262.28 C 1473.6 1297.43 1467.78 1331.91 1462.07 1366.6 C 1457.3 1395.5 1451.98 1425.79 1443.34 1453.85 C 1437.96 1471.35 1426.74 1486.68 1419.5 1503.39 C 1410.68 1523.75 1404.5 1544.99 1394.49 1564.96 C 1388.5 1576.9 1380.6 1587.97 1373.8 1599.46 C 1366.76 1611.36 1360.63 1623.9 1353.05 1635.46 C 1332.32 1667.05 1306.94 1695.56 1281.82 1723.67 C 1267.99 1739.14 1254.74 1754.92 1238.24 1767.71 C 1193.83 1802.14 1138.96 1827.35 1085.89 1844.94 C 1080.72 1846.61 1075.45 1848.04 1070.24 1849.57 C 1079.19 1838.74 1089.68 1829.17 1099.02 1818.66 A 1257.28 1257.28 0 0 0 1158.85 1745.57 C 1313.11 1540 1293.69 1395.49 1297.38 1154.13 C 1322.83 1154.25 1348.56 1152.56 1374 1151.58 C 1402.53 1150.48 1431.07 1149.88 1459.59 1148.42 z"/>
<path transform="translate(0,0)" fill="rgb(254,254,254)" d="M 955.823 224.287 L 957.407 224.993 C 955.148 234.857 931.647 265.454 924.777 276.167 A 7144.15 7144.15 0 0 0 872.645 358.938 C 806.769 467.41 750.985 586.35 719.428 709.529 C 706.92 758.353 698.6 807.349 692.131 857.28 C 671.088 858.098 649.808 857.316 628.743 857.197 L 513.99 856.555 L 512.117 856.21 C 511.586 855.478 511.395 855.322 511.116 854.324 C 508.313 844.293 514.373 789.595 516.378 776.071 C 520.768 746.45 524.211 716.455 529.827 687.04 C 536.672 651.181 547.41 614.507 560.788 580.544 C 569.617 558.129 580.737 536.784 591.093 515.068 C 601.072 494.143 610.039 470.836 623.329 451.836 C 629.315 443.277 636.605 435.733 643.009 427.497 C 650.896 417.353 658.346 406.935 666.811 397.249 A 545.978 545.978 0 0 1 900.793 241.054 C 918.631 234.925 937.222 227.69 955.823 224.287 z"/>
<path transform="translate(0,0)" fill="rgb(254,254,254)" d="M 1497.6 487.447 C 1511.58 484.985 1529.04 487.469 1543.27 488.477 C 1598.42 492.387 1662.72 509.019 1715.99 524.074 C 1763.68 537.55 1818.19 557.735 1867.44 560.095 C 1879.86 560.691 1892.37 559.63 1904.74 558.513 C 1885.4 570.265 1865.61 575.998 1844.92 584.355 C 1819.74 594.53 1794.3 606.921 1767.88 613.492 C 1776.17 601.096 1786.67 589.726 1797.44 579.424 C 1801.56 575.48 1807.1 571.948 1810.65 567.613 C 1812 565.952 1813.04 563.105 1813.01 560.916 C 1812.97 558.246 1812.39 557.036 1810.64 555.102 C 1808.16 554.362 1806.91 554.204 1804.47 555.295 C 1794.68 559.669 1757.4 600.211 1749.82 610.608 C 1747.51 613.781 1746.02 617.229 1744.68 620.896 C 1707.15 629.519 1669.56 642.908 1633.3 655.883 C 1641.34 633.091 1671.65 603.856 1690.71 588.863 C 1699.67 581.82 1710.28 575.89 1718.44 567.997 C 1720.99 565.533 1722.42 563.642 1722.5 559.945 C 1721.53 557.021 1720.68 556.045 1718.48 554.05 C 1711.74 552.83 1704.33 560.902 1698.89 564.749 C 1671.49 584.109 1645.57 608.816 1626.3 636.496 C 1619.79 645.855 1615.15 660.026 1606.57 667.347 C 1596.25 676.141 1580.72 680.336 1568.68 686.678 C 1544.37 699.488 1512.26 720.415 1487.22 729.555 C 1495.06 684.677 1534.24 617.113 1564.13 583.131 A 183.347 183.347 0 0 1 1577.12 569.626 C 1582.59 564.563 1604.59 549.107 1604.64 542.39 C 1604.66 539.816 1603.9 539.061 1602.32 537.265 C 1600.4 536.589 1598.73 535.885 1596.64 536.216 C 1590.97 537.118 1586.12 543.578 1581.93 547.172 C 1574.65 553.415 1566.99 559.312 1560.29 566.187 C 1539.18 587.846 1522.26 616.431 1506.53 642.191 C 1502.68 634.653 1490.05 608.956 1483.61 604.987 C 1481.75 603.845 1479.91 603.631 1478 604.772 C 1476.3 605.795 1475.31 607.263 1474.69 609.1 C 1472.63 615.137 1495.11 649.948 1499.27 657.633 C 1486.17 684.056 1475.1 709.605 1471.5 739.173 C 1458.35 744.893 1445.64 753.318 1432.99 760.189 C 1395.31 780.654 1356.52 803.023 1315.83 817.041 C 1311.71 786.159 1315.76 736.439 1326.47 707.904 C 1338.99 674.584 1373.65 626.928 1397.19 599.842 C 1405.33 590.482 1428.38 572.067 1432.69 564.419 C 1433.04 561.399 1432.7 559.83 1431.81 557.013 C 1429.89 555.356 1429.27 554.665 1426.51 555.138 C 1413.63 557.347 1380.77 597.482 1370.97 609.618 C 1358.05 626.243 1346.47 643.877 1335.25 661.674 C 1327.69 673.662 1319.88 685.673 1314.17 698.678 C 1297.25 737.2 1300.37 781.589 1303.2 822.534 C 1265.8 837.84 1210.93 858.022 1171.11 859.182 C 1183.56 802.339 1197.38 743.872 1224.43 691.927 C 1230.42 680.41 1236.11 667.927 1243.14 657.048 C 1248.79 648.302 1258.53 639.845 1262.23 630.174 C 1262.71 628.923 1263.35 627.144 1263.24 625.779 C 1262.97 622.698 1262.22 622.176 1260.11 620.166 C 1257.51 619.663 1256.32 619.933 1254 621.264 C 1248.19 624.588 1243.29 632.326 1239.42 637.65 C 1210.23 677.841 1189.35 728.752 1177.3 776.809 C 1170.96 770.198 1164.56 763.716 1157.2 758.225 C 1151.31 753.833 1139.63 743.942 1131.81 746.199 C 1128.96 747.023 1128.5 747.645 1126.94 749.963 C 1127.03 753.569 1128.1 755.728 1130.78 758.077 C 1134.94 761.733 1141.73 763.51 1146.45 766.734 C 1156.14 773.366 1164.05 783.702 1171.98 792.272 A 745.467 745.467 0 0 0 1156.95 859.858 C 1144.73 860.635 1132.57 859.67 1120.34 859.591 A 3293.06 3293.06 0 0 0 1049.27 859.904 C 1051.72 831.493 1054.3 798.509 1065.99 772.215 C 1072.51 757.533 1096.33 718.439 1098.37 706.841 C 1098.93 703.628 1098.49 701.508 1096.71 698.844 C 1093.09 698.624 1091.04 699.611 1088.37 702.067 C 1080.68 709.158 1076.39 721.121 1071.68 730.343 C 1064.21 744.965 1056.14 759.478 1050.38 774.888 C 1040.82 800.479 1036.34 832.661 1034.77 859.919 C 1010.55 859.845 985.896 861.302 961.749 859.744 C 967.964 843.115 995.121 798.216 993.444 782.097 C 993.162 779.394 992.47 778.602 990.419 776.951 C 988.691 776.814 987.224 776.629 985.612 777.466 C 982.871 778.889 980.97 781.893 979.617 784.553 C 975.312 793.017 973.366 802.703 969.463 811.388 C 962.127 827.717 951.302 842.337 947.538 859.992 L 902.139 860.125 C 906.481 845.112 908.485 829.221 912.189 814.003 C 921.497 775.755 939.522 738.461 965.608 708.789 C 992.224 678.514 1027.35 656.345 1061.05 634.817 C 1077.84 624.094 1094.41 612.77 1111.75 602.951 A 913.382 913.382 0 0 1 1497.6 487.447 z"/>
<path transform="translate(0,0)" fill="rgb(254,254,254)" d="M 751.699 1155.27 C 768.629 1153.93 786.301 1154.92 803.287 1155 C 800.677 1180.5 799.823 1206.73 795.609 1231.98 C 790.548 1262.32 779.072 1293.38 766.881 1321.51 C 759.896 1337.62 749.603 1353.32 743.161 1368.58 C 741.827 1371.74 740.117 1376.25 741.355 1379.66 C 741.897 1381.16 743.528 1381.57 744.831 1382.31 C 747.707 1382.28 749.373 1381.7 751.549 1379.85 C 760.67 1372.1 767.232 1355.47 772.308 1344.57 C 788.921 1308.89 803.333 1271.39 809.709 1232.36 C 811.993 1218.38 812.705 1204.08 814.09 1189.98 C 815.222 1178.47 816.726 1167.03 817.381 1155.47 C 853.676 1156.73 890.275 1156.98 926.588 1156.9 C 922.252 1187.03 916.096 1218.14 906.738 1247.17 C 903.867 1256.08 886.255 1296.68 886.787 1300.54 C 887.168 1303.3 888.973 1304.66 890.933 1306.35 C 893.484 1306.99 894.171 1307.22 896.657 1305.93 C 902.988 1302.62 907.359 1287.71 909.766 1281.2 C 915.459 1265.79 921.854 1249.8 925.947 1233.88 C 932.38 1208.85 936.228 1182.88 941.499 1157.57 A 2053.97 2053.97 0 0 1 1014.25 1157.99 C 1005.61 1176.66 977.474 1220.95 974.472 1236.33 C 974.897 1238 974.805 1238.7 976.124 1239.94 C 978.084 1241.79 979.755 1242.32 982.452 1241.89 C 984.99 1241.48 986.152 1240.59 987.691 1238.6 C 992.81 1232.01 996.352 1223.62 1000.21 1216.23 C 1009.93 1197.59 1019.01 1177.63 1030.25 1159.93 L 1031.1 1158.61 A 933.487 933.487 0 0 1 1077.08 1158.15 C 1074.18 1197.84 1066.84 1235.7 1047.3 1270.93 C 1016.98 1325.6 961.244 1359.12 912.173 1394.92 C 853.839 1437.49 788.204 1464.49 719.988 1486.8 C 652.965 1508.72 576.782 1527.36 505.908 1525.65 C 470.726 1524.81 435.359 1518.39 400.913 1511.62 A 2194.48 2194.48 0 0 1 279.324 1484.25 C 246.45 1476.1 212.385 1465.51 178.499 1463.18 C 163.176 1462.13 148.257 1464.82 133.59 1469.06 C 152.057 1453.77 174.523 1441.88 195.215 1429.91 A 570.201 570.201 0 0 1 261.325 1396.3 C 252.527 1414.3 237.842 1426.23 224.952 1440.91 C 223.105 1443.01 222.415 1445.01 222.764 1447.86 C 223.101 1450.6 224.585 1452.4 226.665 1454.09 C 228.682 1454.37 229.341 1454.68 231.336 1453.96 C 241.207 1450.41 264.994 1418.94 270.954 1409.54 C 274.506 1403.94 277.258 1398.06 279.926 1392 C 305.281 1378.6 331.068 1366.04 356.513 1352.82 C 368.472 1346.61 379.944 1339.52 392.017 1333.54 C 382.749 1354.14 371.627 1375.47 357.823 1393.43 C 352.17 1400.78 345.567 1407.38 339.579 1414.46 C 335.516 1419.26 331.876 1424.46 327.696 1429.15 C 323.119 1434.29 317.041 1438.94 313.202 1444.64 C 311.377 1447.35 310.885 1449.72 310.824 1452.92 C 312.012 1455.53 312.022 1455.56 314.566 1456.88 C 317.273 1456.89 319.154 1456.65 321.562 1455.33 C 331.261 1450.02 338.583 1438.48 345.627 1430.1 C 353.069 1421.25 361.145 1412.94 368.236 1403.79 C 385.947 1380.94 403.619 1349.92 411.304 1322.03 C 431.582 1308.19 453.932 1296.74 474.953 1283.99 C 493.042 1273.02 510.144 1260.41 528.484 1249.86 C 521.787 1285.84 506.538 1317.46 492.926 1351.05 C 484.843 1371 477.98 1391.61 467.384 1410.44 C 458.58 1426.09 440.935 1449.94 427.243 1461.13 C 424.543 1463.34 422.826 1465.15 422.738 1468.83 C 422.678 1471.33 424.371 1473.52 426.043 1475.16 C 428.449 1475.67 429.335 1475.91 431.729 1475.01 C 447.187 1469.22 478.374 1422.94 485.952 1407.58 C 493.411 1392.46 498.358 1376.57 504.843 1361.07 C 509.032 1370.1 520.352 1392.75 527.834 1398.41 C 529.838 1399.92 532.336 1400.55 534.848 1399.97 C 537.483 1399.35 538.134 1398.11 539.417 1396.02 C 539.567 1394.26 539.772 1392.66 539.088 1390.97 C 536.754 1385.22 531.666 1379.16 528.302 1373.84 C 521.834 1363.63 517.194 1353.03 513.575 1341.52 C 525.416 1304.31 539.126 1282.99 543.706 1241.05 C 573.243 1219.66 641.526 1191.35 676.497 1179.6 C 680.145 1194.49 680.066 1211.01 680.832 1226.3 C 681.857 1246.77 683.644 1267.36 679.563 1287.62 C 673.16 1319.4 625.012 1396.73 605.399 1426.45 C 598.742 1436.53 582.238 1446.27 578.431 1454.54 C 578.374 1457.77 578.832 1458.9 580.408 1461.57 C 582.568 1462.98 583.202 1463.54 585.907 1463.29 C 594.84 1462.47 608.984 1444.81 614.281 1438.18 C 619.317 1431.89 623.061 1425.04 627.475 1418.33 C 639.295 1400.37 650.346 1382.45 660.6 1363.53 C 670.848 1344.61 683.081 1325.07 690.308 1304.78 C 702.532 1270.45 694.813 1211.16 690.639 1174.4 C 710.61 1167.29 731.372 1161.33 751.699 1155.27 z"/>
<path transform="translate(0,0)" fill="rgb(254,254,254)" d="M 1776.32 858.42 C 1777.65 858.476 1778.28 859.021 1779.4 859.68 C 1784.19 872.607 1772.81 932.033 1770.55 949.588 A 627.725 627.725 0 0 0 1766.91 987.664 C 1764.42 1028.94 1768.02 1072.05 1774.62 1112.8 A 9577.23 9577.23 0 0 1 818.001 1140.95 A 11969.9 11969.9 0 0 1 502.74 1132.92 C 421.795 1129.75 340.728 1124.32 259.75 1122.75 C 254.664 1122.82 249.765 1122.37 244.722 1121.83 C 243.666 1113.66 243.97 1105.31 243.757 1097.09 C 243.201 1075.61 243.433 1054.11 242.798 1032.64 L 238.592 915.545 C 237.987 899.993 236.586 884.483 236.473 868.915 C 253.648 867.793 271.286 869.478 288.499 869.61 C 321.361 869.861 354.116 869.538 386.999 870.168 L 630 873.077 A 29473.6 29473.6 0 0 0 1341.74 873.254 A 7187.16 7187.16 0 0 0 1776.32 858.42 z"/>
<path transform="translate(0,0)" fill="rgb(0,0,0)" d="M 440.187 994.101 C 441.78 994.087 443.414 994.068 444.994 994.288 C 448.74 994.811 452.614 997.123 454.797 1000.21 C 456.922 1003.21 457.483 1006.82 456.632 1010.36 C 455.298 1015.91 451.494 1018.38 446.777 1021 C 444.622 1021 442.368 1021.04 440.271 1020.48 A 14.3915 14.3915 0 0 1 431.284 1013.5 A 12.6441 12.6441 0 0 1 430.576 1003.01 C 432.339 998.222 435.747 996.126 440.187 994.101 z"/>
<path transform="translate(0,0)" fill="rgb(0,0,0)" d="M 1563.01 995.121 C 1564.52 995.416 1566.03 995.688 1567.5 996.148 C 1571.84 997.507 1575.46 1000.3 1577.36 1004.5 C 1578.77 1007.62 1578.87 1011.01 1577.58 1014.2 C 1575.42 1019.51 1571.15 1021.68 1566.12 1023.75 C 1564.08 1023.56 1561.98 1023.4 1559.98 1022.95 C 1556.39 1022.13 1553.07 1019.29 1551.44 1016.03 C 1549.73 1012.63 1549.76 1008.59 1551.21 1005.11 C 1553.56 999.458 1557.62 997.388 1563.01 995.121 z"/>
<path transform="translate(0,0)" fill="rgb(0,0,0)" d="M 810.952 969.18 C 814.518 968.689 818.493 968.173 822.041 969.069 C 824.27 969.631 826.184 970.97 827.134 973.13 C 828.066 975.249 827.786 977.103 826.895 979.115 C 824.307 981.397 821.057 981.396 817.831 982.187 C 786.075 989.975 796.241 1067.81 791.448 1073.95 C 789.587 1076.34 788.784 1076.45 785.99 1076.88 C 782.899 1075.7 781.552 1074.41 779.413 1071.92 C 778.518 1068.26 780.073 1064.02 780.92 1060.41 C 779.86 1042.11 779.166 1023.78 777.996 1005.48 C 777.404 996.222 774.392 982.743 775.975 973.741 C 776.434 971.129 777.27 970.987 779.385 969.803 C 782.469 970.036 782.927 970.266 785.479 972.037 C 788.776 977.253 788.106 998.011 788.405 1004.98 C 793.291 991.84 798.405 976.801 810.952 969.18 z"/>
<path transform="translate(0,0)" fill="rgb(0,0,0)" d="M 868.377 931.635 C 870.767 931.633 874.271 931.547 876.131 933.232 C 881.565 938.156 878.008 969.088 877.952 978.222 C 886.814 977.158 897.726 971.827 906.187 972.61 C 908.343 972.809 908.384 972.859 909.876 974.548 C 909.803 975.915 909.655 977.029 908.976 978.249 C 903.506 988.071 887.927 988.618 877.986 991.189 C 877.826 1008.87 876.775 1044.63 883.869 1059.67 C 885.47 1063.06 888.353 1065.76 890.943 1068.41 C 895.8 1064.7 900.537 1060.72 906.101 1058.12 C 907.826 1059.48 910.194 1061.36 910.249 1063.75 C 910.314 1066.52 908.825 1068.92 906.95 1070.85 C 902.512 1075.43 894.807 1078.79 888.429 1078.87 C 884.545 1078.93 881.024 1077.32 878.273 1074.62 C 863.767 1060.39 866.265 1011.72 865.953 991.05 C 861.736 991.482 856.717 992.315 852.684 990.685 C 849.873 989.548 848.469 988.072 847.332 985.335 C 847.802 983.695 848.214 983.052 849.506 981.846 C 853.635 977.992 860.66 978.878 865.897 978.862 C 866.305 967.892 862.99 939.221 868.377 931.635 z"/>
<path transform="translate(0,0)" fill="rgb(0,0,0)" d="M 724.763 970.169 C 729.132 970.245 732.954 970.512 736.544 973.216 C 749.229 982.774 746.917 1026.49 749.276 1042.77 C 750.435 1050.77 754.638 1058.31 755.523 1066.25 C 755.872 1069.38 755.351 1071.73 753.55 1074.21 C 750.506 1074.25 749.102 1073.26 746.919 1071.13 C 736.216 1060.68 736.711 1034.22 736.835 1019.89 L 735.906 1022.21 C 729.217 1038.84 718.291 1066.48 700.024 1073.56 C 697.106 1074.7 694.295 1074.79 691.508 1073.11 C 686.773 1070.27 684.567 1064.54 682.933 1059.57 C 682.925 1054.69 682.746 1048.96 684.391 1044.31 C 686.325 1038.86 688.233 1033.68 693.744 1031.08 C 698.873 1033.4 691.877 1054.78 696.299 1061.15 C 697.933 1061.41 697.732 1061.68 698.959 1061.07 C 711.771 1054.75 726.772 1021.84 730.436 1008.5 C 732.364 1001.49 734.179 988.543 729.305 982.281 C 727.734 980.262 727.054 980.151 724.711 979.754 C 712.991 982.642 707.685 997.015 700.31 1005.2 C 698.494 1007.22 697.305 1008 694.638 1008.12 C 694.156 1007.35 693.664 1006.62 693.344 1005.75 C 691.829 1001.63 693.265 997.137 695.424 993.584 C 702.476 981.981 711.154 973.109 724.763 970.169 z"/>
<path transform="translate(0,0)" fill="rgb(0,0,0)" d="M 1353.43 970.431 L 1356 971.905 C 1360.24 980.317 1358.05 1006.83 1358.15 1017.52 C 1363.15 1002.73 1368.64 981.576 1383.52 973.591 C 1386.98 971.733 1390.96 970.936 1394.77 972.145 C 1399.37 973.603 1402.66 977.552 1404.74 981.738 C 1413.93 1000.2 1410.37 1031.03 1409.28 1051.12 C 1408.84 1059.19 1409.16 1068.03 1406.62 1075.75 C 1405.01 1077.46 1404.02 1078.81 1401.46 1078.98 C 1398.82 1079.15 1397.81 1078.02 1396.02 1076.42 C 1394.1 1071.3 1397.77 1046.27 1398.1 1039.09 C 1398.3 1025.09 1399.23 1009.12 1396.68 995.343 C 1395.81 990.631 1394.85 987.534 1390.79 984.638 C 1387.92 984.538 1386.69 984.702 1384.47 986.649 C 1374.21 995.641 1363.86 1027.95 1362.11 1041.18 C 1360.77 1051.37 1361.2 1061.83 1359.81 1071.98 C 1359.37 1075.19 1358.07 1077.26 1355.49 1079.1 C 1353.62 1078.54 1353.5 1078.72 1352.08 1077.12 C 1349.76 1074.52 1347.98 1070.13 1347.67 1066.64 C 1346.92 1058.27 1348.78 1048.76 1348.78 1040.18 C 1348.78 1021.03 1345.91 1000.28 1348.03 981.368 C 1348.63 976.035 1349.26 973.884 1353.43 970.431 z"/>
<path transform="translate(0,0)" fill="rgb(0,0,0)" d="M 599.368 936.993 C 612.492 938.697 656.676 935.804 663.444 939.213 C 664.991 939.993 664.668 940.392 665.038 941.908 C 664.522 943.682 664.154 945.385 662.984 946.857 C 661.51 948.711 660.499 949.501 658.088 949.811 C 652.106 950.581 644.799 949.357 638.725 949.195 A 203.987 203.987 0 0 0 607.057 950.951 A 2013.78 2013.78 0 0 0 608.079 1001.95 C 619.38 1002.08 630.58 1000.39 641.846 1000.34 C 646.185 1000.32 650.003 1000.12 653.206 1003.31 C 653.168 1005.24 652.815 1006.08 651.486 1007.52 C 644.678 1014.89 619.596 1013.81 609.04 1014.35 C 608.982 1022.13 608.667 1029.91 608.464 1037.68 C 608.483 1044.31 608.3 1051.09 609.184 1057.68 C 609.326 1058.73 609.83 1061.7 610.669 1062.5 C 616.346 1067.93 656.506 1056.36 664.384 1062.23 C 664.949 1064.51 665.036 1065.27 663.812 1067.48 C 662.326 1070.15 659.988 1071.23 657.19 1072 C 648.729 1074.3 638.645 1073.17 629.891 1073.76 C 622.377 1074.26 614.949 1075.93 607.378 1075.72 C 604.744 1075.65 602.646 1075.42 600.311 1074.1 C 595.476 1063.32 597.014 980.818 596.14 962.202 C 595.875 956.554 593.078 947.815 594.564 942.568 C 595.445 939.456 596.963 938.783 599.368 936.993 z"/>
<path transform="translate(0,0)" fill="rgb(0,0,0)" d="M 1198.62 968.183 C 1203.17 967.936 1207.38 968.396 1211.53 970.399 C 1215.13 972.141 1217.98 974.658 1219.26 978.542 C 1221.73 986.031 1218.43 995.428 1214.98 1002.08 C 1206.23 1018.97 1192.31 1027.2 1174.68 1032.72 C 1175.46 1041.17 1176.29 1051.66 1182.8 1057.91 C 1196.85 1071.41 1216.64 1040.43 1226.56 1039.81 C 1229.38 1040.77 1230.42 1042.76 1232.01 1045.1 C 1231.71 1046.06 1231.72 1046.13 1231.21 1047.18 C 1226.17 1057.69 1209.53 1068.83 1198.81 1072.48 C 1192.19 1074.74 1184.93 1075.07 1178.65 1071.61 C 1170.91 1067.34 1166.41 1058.71 1164.2 1050.46 C 1158.99 1031.04 1164.36 1005.22 1174.24 988.037 C 1180.13 977.803 1187.15 971.264 1198.62 968.183 z"/>
<path transform="translate(0,0)" fill="rgb(254,254,254)" d="M 1197.29 978.86 C 1201.45 978.533 1203.75 978.511 1207.15 981.35 C 1208.39 983.798 1208.8 985.556 1208.23 988.248 C 1205.72 1000.2 1194.73 1011.46 1184.88 1017.93 L 1175.19 1022.73 C 1178.15 1005.36 1182.15 989.705 1197.29 978.86 z"/>
<path transform="translate(0,0)" fill="rgb(0,0,0)" d="M 940.117 930.524 C 942.214 931.008 944.095 931.338 945.861 932.666 C 947.373 933.804 948.209 934.928 948.61 936.78 C 950.226 944.251 947.834 955.59 947.969 963.63 C 948.234 979.532 949.414 995.507 950.275 1011.39 C 955.396 999.581 960.894 985.412 971.56 977.473 C 976.38 973.885 982.46 972.101 988.434 973.241 C 993.957 974.295 998.088 977.897 1000.95 982.61 C 1009.16 996.149 1012.09 1055.14 1007.95 1070.26 C 1007.1 1073.36 1005.82 1074.67 1003.12 1076.28 C 1000.39 1076.37 999.259 1076.26 996.945 1074.77 C 995.745 1072.88 995.198 1071.29 995.232 1069.02 C 995.298 1064.57 996.725 1060.05 997.021 1055.56 C 997.671 1045.69 997.192 1035.63 997.01 1025.75 C 996.114 1014.68 995.841 997.562 989.666 987.975 C 988.26 985.793 986.809 984.707 984.262 984.122 C 982.091 984.397 980.602 984.727 978.788 986.018 C 965.193 995.693 956.278 1025.88 954.284 1041.99 C 953.139 1051.25 954.623 1061.21 952.598 1070.29 C 951.84 1073.68 950.517 1076.13 947.318 1077.78 C 944.897 1079.03 944.21 1078.97 941.839 1078.14 C 938.267 1074.04 939.637 1042.71 939.28 1035.03 C 938.341 1014.81 937.61 994.545 936.419 974.341 C 935.729 962.649 933.471 949.276 934.697 937.778 C 935.068 934.299 937.613 932.618 940.117 930.524 z"/>
<path transform="translate(0,0)" fill="rgb(0,0,0)" d="M 1285.07 969.134 C 1287.61 968.791 1290.54 968.29 1293.05 968.93 C 1297.74 970.123 1301.36 976.071 1303.99 979.797 C 1305.61 977.422 1305.74 977.135 1308.39 976.1 C 1309.57 976.492 1310.52 976.454 1311.14 977.647 C 1311.55 978.418 1311.3 1039.67 1312.67 1050.61 C 1313.16 1054.59 1313.81 1058.65 1315.01 1062.48 C 1316.47 1067.11 1321.15 1072.86 1320.29 1077.63 C 1317.97 1079.26 1316.71 1079.6 1313.89 1079.82 C 1300.64 1075.79 1306.73 1056.1 1301.11 1047.61 L 1299.63 1049.26 C 1295.67 1058.62 1289.98 1067.85 1281.52 1073.78 C 1276.18 1077.52 1268.56 1080.25 1262 1078.68 C 1258.26 1077.78 1255.52 1075.31 1253.72 1071.97 C 1246.64 1058.78 1252.56 1036.24 1256.3 1022.72 C 1261.13 1005.3 1268.25 978.586 1285.07 969.134 z"/>
<path transform="translate(0,0)" fill="rgb(254,254,254)" d="M 1287.2 979.545 C 1289.64 979.846 1290.84 980.409 1292.39 982.248 C 1298.62 989.652 1297.46 1001.37 1296.47 1010.42 C 1294.47 1028.76 1286.59 1055.46 1271.72 1067.29 C 1269.21 1067.07 1266.96 1066.92 1264.98 1065.09 C 1261.19 1061.57 1261.34 1054.33 1261.71 1049.62 C 1263.21 1030.59 1272.68 992.157 1287.2 979.545 z"/>
<path transform="translate(0,0)" fill="rgb(0,0,0)" d="M 1086.92 934.375 C 1090.74 933.908 1094.56 933.86 1098.4 933.912 C 1110.15 934.07 1122.24 937.476 1130.43 946.335 C 1137.3 953.751 1140.02 963.677 1139.49 973.626 C 1138.62 990.066 1129.61 999.793 1118.08 1010.15 C 1128.7 1013.04 1138.58 1017.13 1145.34 1026.31 C 1149.46 1031.9 1151.79 1038.91 1150.69 1045.86 C 1149.2 1055.36 1142.44 1061.29 1135.17 1066.73 C 1123.35 1073.31 1109.76 1075.98 1096.39 1077.09 C 1088.12 1077.78 1078.84 1078.96 1072.08 1073.24 C 1066.48 1062.45 1065.55 974.125 1064.73 954.037 C 1063.24 952.417 1061.43 950.682 1060.29 948.806 C 1058.88 946.501 1059.64 944.607 1060.36 942.254 C 1066.4 935.807 1078.58 935.547 1086.92 934.375 z"/>
<path transform="translate(0,0)" fill="rgb(254,254,254)" d="M 1099.18 1019.44 C 1106.01 1019.37 1112.85 1019.59 1119.36 1021.88 C 1126.58 1024.42 1133.88 1029.2 1136.99 1036.48 C 1138.75 1040.61 1138.84 1045.15 1136.84 1049.21 C 1133.09 1056.87 1124.58 1059.78 1117.12 1062.43 C 1105.53 1064.78 1093.85 1065.72 1082.04 1066.09 C 1080.97 1050.85 1080.63 1035.53 1080.05 1020.27 L 1099.18 1019.44 z"/>
<path transform="translate(0,0)" fill="rgb(254,254,254)" d="M 1088.83 945.332 C 1093.68 944.967 1098.4 944.765 1103.23 945.519 C 1110.88 946.713 1117.92 950.393 1122.39 956.845 C 1126.65 963.013 1128.13 971.175 1126.74 978.505 C 1124.6 989.822 1116.83 996.066 1107.82 1002.11 C 1098.72 1006.49 1088.64 1007.32 1078.92 1009.77 C 1078.4 998.014 1074.26 956.931 1076.47 948.375 C 1080.31 946.386 1084.61 946.017 1088.83 945.332 z"/>
</svg>