<svg xmlns="http://www.w3.org/2000/svg" display="block" viewBox="0 0 2048 1536"><path fill="#fefefe" d="M0 0h2046.25c3.25 5.686 1.75 17.701 1.75 24.337l.02 1191.133-.02 239.4c0 11.49 1.75 71.94-.62 78.94-.26.76-.74 1.51-1.13 2.19H0z"/><path fill="#010101" d="M1443.69 1069.73c3.57-.03 7.67.03 10.28 2.89 1.41 1.54 2.02 3.17 2.02 5.25-.01 3.93-2.75 6.38-5.42 8.86-3.2.04-6.4-.21-8.8-2.58a8.02 8.02 0 0 1-2.42-5.68c-.01-3.87 1.77-6.07 4.34-8.74m209.1-220.237c2.17-.568 4.54-1.126 6.79-.693 2.36.456 5.06 2.554 6.27 4.605 1.18 1.993 1.53 4.554.58 6.708-1.17 2.673-3.28 3.297-5.71 4.39-.39.208-.76.454-1.17.623-1.97.825-4.15.436-6.02-.352-1.08-1.095-1.84-1.904-2.34-3.389-1.63-4.852-.72-7.488 1.6-11.892m5.1 437.007c2.73-.45 5.01-.61 7.76-.27 2.06 1.15 3.19 2.18 4.31 4.3 1.13 2.15 1.13 4.53.26 6.79-1.24 3.23-3.01 4.12-5.92 5.48-3.17.66-5.21.36-8.03-1.21-1.19-1.49-1.94-2.54-2.15-4.48-.47-4.3 1.25-7.31 3.77-10.61m206.63-217c2.27-.41 4.4-.73 6.64.07 2.48.9 4.56 2.96 5.52 5.41.92 2.32.73 4.81-.5 6.98-1.58 2.81-3.85 3.85-6.86 4.55-2.97-.11-4.66-.88-7.27-2.27-1.53-2.18-2.14-2.87-2.26-5.61-.18-4.2 2-6.29 4.73-9.13m-209.48-165.006c2.4-.26 4.83-.592 7.11.397 2.75 1.189 5.02 3.669 5.99 6.496.83 2.423.44 5.036-.87 7.218-1.65 2.745-4.18 3.416-7.11 4.186-.87.057-1.75.107-2.62.068-2.62-.115-4.96-1.311-6.58-3.378-1.65-2.108-2.14-4.877-1.64-7.474.7-3.677 2.69-5.569 5.72-7.513"/><path fill="#010101" d="M1624.75 869.48c1.64-.345 3.27-.51 4.93-.7 7.69 4.636 1.92 35.501 3.57 44.575 2.72 14.946 19.85 18.636 23.97 30.208 2.9-1.093 5.08-2.838 7.46-4.768 26.92-21.859 16.62-37.973 19.64-67.513 1.46-2.097 1.37-1.906 3.91-2.37l2 1.636c4.14 8.123 3.16 38.9.66 48.084-3.01 11.054-18.36 27.306-28.08 33.27 2.63 7.259 2.54 35.606-.26 42.461 5.39.755 10.68 3.586 15.66 5.757 6.44-4.661 15.29-7.146 20.96-12.486 13.2-16.031.7-38.244 1.39-56.019.35-9.14 5.81-16.568 8.04-25.196 1.52-5.87.96-12.41 3.63-17.992.96-1.998 1.15-2.394 3.18-3.152 2.26 2.073 2.67 5.15 2.96 8.074.89 9.114-3.99 27.868-10.19 34.82-.31.347-.63.677-.95 1.015 4.82 9.413 3.14 20.79 7.14 30.647 2.22 2.211 3.51 3.374 6.59 4.091 15.2-5.717 10.34-47.531 15.92-56.799 2.61-1.173 2.99-1.09 5.68-.713 9.36 8.896-12.21 55.731-6.75 70.042.82 2.172 1.44 2.221 3.43 3.157 8.6-1.687 17.15-12.951 23.13-19.04l.32-.609c-.24-1.81-.5-3.644-.57-5.47-.23-5.641.4-8.739 4.44-12.828 3.2-3.245 7.24-5.355 11.87-5.14 4.54.211 8.63 2.573 11.58 5.964 3.23 3.721 5.26 9.193 4.59 14.141-.51 3.755-2.36 6.832-5.52 8.944-6.65 4.445-12.65 3.265-19.99 2.024-4.03 6.677-15.28 17.902-21.87 22.178 4.53 1.969 8.21 5.841 12.84 7.696 6.32 2.531 28.83-5.924 36.82-6.868 6.86-.808 20.19-2.47 25.84 1.996 1.04 2.577 1 2.904.48 5.643-5.65 5-20.73.899-28.31 1.537-8.02.673-16.35 3.633-24.4 4.893 1.29 3.72-.82 8.5-.84 12.36-.01 2.68.85 3.65 2.57 5.58 7.9-1.47 16.01-3.29 24.04-3.67 8.68-.41 41.96-2.09 47 2.47.2 2.57-.19 3.13-1.27 5.39-9.76 4.06-38.14-.04-50.4.75-4.93.32-9.78 1.74-14.53 3.03l.41.56c2.64 3.57 4.18 7.51 5.78 11.62 2.3 5.92 6.2 16.03 3.49 22.17l1.36-.49c8.63-3.02 20.89-11.95 26.55-19.32 9.94-.09 39.17-3.03 46.67 2.21l.35 2.12-1.68 2.25c-9.73 5.2-29.84 2.43-40.87 2.35-2.33 3.56-8.94 7.01-12.77 8.93 4.41 1.87 10.19 6.12 12.17 10.64 3.21 7.31-3.17 13.71-4.55 20.54-.68 3.32 2.74 5.45 4.04 8.34.16.34.3.69.45 1.04 11.58.26 25.18-1.49 36.42.55 3.25.58 4.79 1.16 6.69 3.8l-.73 2.54c-6.98 4.67-36.32 1.75-45.46 1.58-.06-.28-.08-.57-.19-.83-1.72-4.13-7.05-9.78-10.87-12-5.48.07-10.87-.59-16.32-1.19-.11 6.45-2.88 16.48-7.28 21.28 11.47 2.2 23.42 6.96 35.05 7.8 7.28.52 19.09-2.34 25.6.59 1.75.78 1.85 1.71 2.58 3.36-.56 1.59-.58 2.4-1.91 3.54-9.76 8.36-51.2-5.78-63.34-7.13-2.2 2.15-5.46 4.41-6.98 7.01-1.19 2.04-1.25 3.92-.57 6.13 7.74 25.4 35.33 6.03 51.94 14.97 1.38 2.28 1.49 2.36 1.22 5-.85.37-1.09.51-1.93.75-7.15 2.09-34.87 2.48-41.9.03-3.75-1.31-7.07-4.41-10.59-6.29l-1.23-.65a32.2 32.2 0 0 1-12.05 15.23c7.27 3.86 13.85 12.33 19.18 18.5 3.24-.87 6.96-2.01 10.31-1.37 4.57.86 9.98 3.88 12.41 7.9 1.99 3.28 2.3 7.39 1.28 11.06a18.48 18.48 0 0 1-9.44 11.66c-3.91 1.95-8.43 2.29-12.49.59-12.04-5.05-8-12.56-12.12-21.09-.16-.32-.32-.63-.48-.94-3.67-5.88-11.66-12.74-17.88-15.71-3.2 4.92-14.28 9.08-19.78 10.89 2.39 1 4.71 2.37 7.02 3.55 3.5 1.78 6.18 3.3 8.02 6.94 2.23 4.43 2.42 39.12.49 44-.86 2.2-1.57 2.1-3.66 2.9-8.34-3.69-1.27-35.31-5.41-44.87-.06-.2-.1-.41-.18-.59-1.63-3.47-7.78-5.76-11.12-7.34l-15.96 1.95.51.33c4.13 2.89 9.36 6.92 10.36 12.08 2.65 6.57 2.45 47.22-.21 53.6-.85 2.03-1.16 2.26-3.06 3.12-6.66-5.51-2.34-41.79-3.73-52.07-.47-3.54-1.27-5.03-4.08-7.22-6.44-1.76-12.06 4.43-17.58 7.21l-.85.42c-2.01-1.03-4.83-1.45-7.03-2-4.56-1.15-14.27-4.12-18.41-1.64 1.1 12.31 21.55 12.36 28.96 20.21.24.25.46.52.69.78 3.13 6.18 2.59 42.08.91 49.87-.58 2.69-1.23 3.53-3.43 5.02l-1.99-.82c-6.99-10.48 2.16-36.69-3.41-48.21-.21-.43-.45-.85-.68-1.28-4.42-4.88-15.72-8.6-22.04-10.47.38.73.53.94.79 1.65 1.7 4.58 2.13 21.2.15 25.55-2.19 1.19-2.49 1.18-4.99 1-6.52-7.32.3-19.19-3.59-27.7-.1-.23-.22-.44-.34-.67-4.08 4.14-14.51 7.9-20.01 10.36.2.39.43.76.59 1.17 1.59 4.01 1.5 42.67-.22 46.54-.8 1.79-2.11 1.74-3.82 2.26-7.27-3.32-.55-45.01-4.42-54-.08-.19-.18-.37-.26-.56 4.38-2.01 10.08-4.78 13.62-8.03 5.21-1.84 10.51-3.66 15.3-6.45.93-1.89 1.26-2.88 1.11-5.02-.14-2.12-.38-1.99-2-3.39-15.26-2.03-31.29 12.32-44.29 18.42-.27.13-.54.24-.81.37.73 1.4 1.28 2.59 1.39 4.19.5 7.37 2.36 29.68-2.13 34.63l-2.52-.18c-9.2-7.76.54-30.57-4.02-41.29-.17-.41-.37-.81-.56-1.22 3.87-1.92 9.55-5.42 11.71-9.19-.08-.27-.12-.55-.23-.8-1.98-4.78-14.54-14.48-19.32-16.74-1.2 3.57-7.2 6.88-10.35 8.58 1.21 2.68 1.26 5.49 1.34 8.39.26 10.2 2.9 31.66-4.16 39.17l-1.56-.42c-8.66-11.97 1.2-34.94-3.03-49.07-.14-.47-.3-.94-.46-1.41 4.78-2.67 9.63-7.67 13.05-11.94 5.44-6.8 36.35-55.01 38.88-61.89 5.94 2.23 11.04 6.56 17.12 8.97 3.54 1.4 7.48 3.02 11.18 1.42 1.26-3.39.17-6.03-.88-9.4-10.41-2.95-20.2-7.54-30.32-11.31-.1.45-.14.91-.3 1.34-2.73 7.21-61.5 66.07-69.87 71.01.45 1.02.7 1.89.77 3 .31 5.27 1.1 12.21-2.81 16.37-3.11 3.3-8.35 4.32-12.71 4.13-5.46-.24-10.29-2.7-13.89-6.78-2.48-2.82-4.11-6.43-3.6-10.25.63-4.79 4.93-8.99 8.74-11.62 4.73-3.28 9.05-2.4 14.34-1.54 7.49-5.35 66.56-65.95 67.55-71.14-1.1-4.58-4.54-7.72-8.18-10.49-.36 1.15-.78 2.01-1.57 2.94-7.58 8.9-24.07 26.52-34.55 30.97-4.33 1.84-10.02 1.67-14.66 1.94-.12 2.57-1.43 4.84-2.51 7.14-1.42 3-2.33 4.47-1.76 7.84 1.46 2.81 3.18 4.39 5.9 6.04.06.03.13.05.2.07-.71.62-1.29 1.42-2.12 1.84-2.86 1.44-43.81 1.27-49.55.84-4.19-.32-7.34-.7-10.13-3.98l.63-2.5c4.44-3.65 36.69-2.35 44.21-2.45 3.09-3.3 6.64-11.95 6.49-16.39-5.23-6.54-8.91-13.68-12.75-21.07l-14.24 23.16c-13.98-.07-30.68 1.93-44.35-.33-1.31-.21-2.08-1.97-2.85-3.03.18-1.13 0-2.06.97-2.81 6.31-4.86 33.66-2.62 42.53-2.48 4.88-7.07 9.27-14.63 13.85-21.92l-3.01-9.64c3.09-5.07 6.57-9.95 9.87-14.88l-12.63.24c-8.21 9.45-14.3 20.55-22.81 29.74-9.06.18-32.67 2.93-39.84-2.44.04-1.94-.16-2.44 1.41-3.81 5.66-4.95 26.82-2.06 34.65-1.71 4.94-7.71 10.03-15.23 16.19-22.03-5.43.1-11.23.53-16.62-.11-3.6-.42-7.77-1.2-10.09-4.08.35-.59.36-.7.98-1.21 6.27-5.21 20.57-3.7 28.28-3.57a799 799 0 0 1-16.74-21.41c-8.96-.24-35.99 2.52-41.91-2.31-.18-1.35-.73-2.18.3-3.27 5.54-5.87 37.89-3 46.59-2.92 5.72 8.04 15.37 25.61 24.37 29.43 1.91.81 2.33.82 4.14.09-.29-4.87-5.05-10.75-7.55-14.99 2.45-6.8 6.79-12.68 9.25-19.43 1.54-4.22 2.01-7.42.07-11.56-8.78-8.24-43.09-.24-56.43-3.81-1.9-.51-2.69-2.36-3.65-3.95l.73-1.09c9.02-5.11 43.47-2.86 55.26-2.85 3.72 2.47 8.19 5.33 10.23 9.4 3.05-1.76 6.03-4.88 7.23-8.21.13-4.5-2.58-13.72-5.24-17.3-9.2.04-38.23 2.17-45.85-1.128-1.69-2.246-1.59-2.155-1.35-4.967 7.44-7.619 57.14 2.624 67.33-4.312 1.56-1.066 1.17-1.519 1.43-3.265-3.04-6.888-12.22-14.127-17.69-19.437-2.26 1.058-5.24 2.083-7.73 2.334-3.86.388-7.84-.782-10.63-3.533-3.41-3.359-6.11-9.118-5.72-13.98.32-3.962 2.45-7.349 5.5-9.808a19.6 19.6 0 0 1 14.76-4.116c3.83.526 7.73 2.43 10.04 5.61 3.15 4.352 3.11 10.851 2.19 15.931 6.51 5.418 19.07 16.028 23.93 22.617.83-.692.87-.684 1.74-1.625 2.86-3.107 6.08-8.024 5.74-12.387-2.6-8.754-10.46-15.07-11.98-24.225-1.18-7.123-4.12-30.095.51-35.626 1.08-1.285 1.65-.986 3.21-1.195 1.65 1.136 2.06 1.454 2.63 3.496.86 3.095.47 7.151.62 10.396.45 9.766 1.18 19.616 5.09 28.698 1.8 4.194 5.78 12.069 10.36 13.573 2.15.707 2.67.165 4.58-.772 3.59-4.348 4.45-9.895 5.36-15.3.86-5.085 2.19-11.273 1.75-16.42-1.12-13.116-10.75-25.557-9.89-39.117.22-3.45 1.44-4.875 4.03-7.034 1.01-.08 1.68-.454 2.47.351 2.81 2.853 2.5 9.342 2.81 13.059.98 11.482 8.57 21.241 9.15 32.431.5 9.625-2.9 20.202-3.37 30.012-.36 7.866 1.54 15.817 1.08 23.134 6.8 4.431 16.63 8.951 21.4 15.58 5.88-1.631 13.77-3.015 18.9-6.212.5-1.027 1.04-2.089 1.32-3.207 1.6-6.529 1.74-33.134-.99-38.435-2.4-6.476-13.45-14.145-18.42-19.283-15.47-15.983-10.21-42.642-10.04-63.088"/><path fill="#fefefe" d="m1652.78 1045.49 3.62-.56c4.32 1.28 9.22 3.82 12.08 7.39-1.45 4.63-7.48 8.97-11.55 11.19-.15.02-.31.06-.46.06-3.43-.19-11.26-9.95-13.82-12.67 3.5-1.54 7.24-2.86 10.13-5.41m-20.17 17.01c.43.11.87.18 1.28.34 3.14 1.2 8.88 8.06 9.99 11.22-.89 4.46-6.72 10.61-10.18 13.46-.13 1.12-.53 1.73-1.06 2.71-3.46-2.07-4.9-11.2-8.13-14.76 3.58-2.95 6.18-8.77 8.1-12.97m29.42 31.99c5.31.55 11.56 7.63 15.32 11.51 1.95 2.01 5.41 5.32 5.31 8.08l-3.44 1.42c-4.4 3.64-12.58 4.2-18.01 4.98.21-.37.44-.72.64-1.09 2.66-5.03 1.6-19.46.18-24.9m26.4 26.01c.81.22.78.18 1.67.61 2.71 1.29 5.4 5.18 6.44 7.95-8.74 4.3-17.56 8.89-27.33 10.21-2.68.7-3.24 1.24-5.84.05-.82-2.52-.82-3.82-.25-6.4 4.45-6.86 17.24-7.28 24.47-11.88zm105.88-50c2.6-.46 6.06-1.19 8.6-.27 3.23 1.17 6.21 4.3 7.46 7.47.94 2.4.69 5.11-.46 7.4-1.52 3.05-3.64 4.13-6.72 5.26-1.82 1.17-4.83 1.41-6.95 1.16-1.66-.19-2.8-1.04-3.79-2.32-2.7-3.5-2.51-8.23-1.83-12.37.62-3.75.74-4.18 3.69-6.33m-118.78-8.01c.24-.01.47-.02.7-.02 1.42.03 2.82.24 3.83 1.27 3.49 3.53 5.88 7.97 5.82 13.02.78 3.13.09 7.77-1.2 10.75-.95 2.22-1.79 3.07-3.92 4.01l-3.17-2.01c-1.75-5.01-9.76-12.44-13.93-15.6 4.21-2.59 9.23-7.24 11.87-11.42m-23.06 24 1.46 2.03c.56 9.12 2.31 23.18-.99 31.7-4.26-2.59-10.68-2.14-13.34-6.95l-1.74-.43c-.46.63-1.25 1.16-1.85 1.67-2.02-.47-2.95-.42-4.41-1.94 4.82-9.77 16.26-15.96 20.87-26.08m61.94-25 3.18.58c4.65 6.25 10.68 11 15.34 16.94-5.44 4.76-9.53 10.19-14.58 15.26 0 .39.04.77 0 1.15-.25 2.16-1.83 3.73-3.41 4.98-1.74-.31-1.31.11-2.23-1.18-1.71-2.37-1.24-31.28-.7-35.95z"/><path fill="#fefefe" d="m1691.22 1046.49 2.52.41c1.87 1.87 3.24 3.77 4.51 6.09 6.31 11.61 7.75 27.74 3.94 40.36-1.05 3.47-3 7.99-6.47 9.63-2.33 1.11-3.11.47-5.36-.25-4.57-9.85 6.33-16.39 3.61-27.29.3-1 .41-1.79.34-2.84-.35-5.41-7.31-15.3-11.43-18.41 3.4-1.91 6.23-4.42 8.34-7.7m-38.57-24c2.01-.41 4.15-.86 6.18-.34 6.49 1.66 22.36 9.82 25.43 15.54-.08.28-.13.58-.24.85-1.31 3.14-4.47 5.24-7.4 6.71-6.3-3.15-12.36-6.3-18.23-10.22-1.75-.77-18.82 9.09-22.53 10.51-.58-3.37-5.83-7.68-8.45-9.6 8.27-3.57 17.61-8.65 25.24-13.45m-36.07 23.99c1.56-.04 2.56-.05 4 .66 2.56 1.26 4.45 4.17 5.31 6.77.03.24.1.47.1.71 0 4.43-8.07 17.5-11.46 20.68 4.69 6.45 8.26 16.21 10.29 23.94-.03.19-.01.4-.08.59-1.05 2.72-3.38 4.11-5.67 5.69l-1.14-.25c-4.28-4.32-7.88-10.32-10.48-15.78-11.37-23.88 2.9-23.27 8.77-41.81.13-.4.24-.8.36-1.2m87.88 58.01c.28-.02.56-.06.85-.05 8.39.24 14.31 8.6 19.65 14.08 11.02 11.32 22.02 14.57 37.53 14.8 1.88 2.92 1.83 7.7 1.18 11.03-1.13 5.7-4.62 11.35-9.44 14.62-.26 1.38-1.04 2.32-1.77 3.5-6.44.25-44.35-44.91-52.77-51.77 2.22-1.93 4.16-3.22 4.77-6.21m-144.62-108.051c3.27-.435 7.68-1.411 10.8-.019 5.23 2.329 38.5 37.62 40.39 42.38-.15.98-.09.84-.45 1.97-1.08 3.45-3.47 6.16-6.56 7.89l-3.26-1.14c-.29-1.04-.61-1.63-1.38-2.41-8.36-8.57-20.88-20.66-32.8-23.73-3.75-.97-8.58-.53-12.46-.51.08-.36.17-.72.23-1.08.86-5.49-4.38-16.39-7.62-20.786 4.39-.721 8.75-1.665 13.11-2.565m181.99.056c1.01-.145 1.87-.269 2.9-.115 4.77.717 11.72 3.375 14.82 7.13.53.73.58.74.99 1.71 1.81 4.24 1.32 9.57-.46 13.69-26.99 1.97-23.85 7.77-38.06 26.25-2.05 2.67-3.65 4.84-6.65 6.51-1.5 1.45-2.33 2.01-4.36 2.51-5.24-3.1-6.77-10.48-12.47-14.25 7.05-3.54 40.87-37.34 43.29-43.435m-39.4 138.005 1.67.45c5.26 4.86 34.65 33.95 36.42 38.4-.1.21-.16.42-.28.62-2.68 4.37-12.28 7.54-17.07 8.53-.96.22-1.93.42-2.91.53-19.74 2.38-23.29-29.01-36.03-38.97 6.45-1.46 13.59-4.76 18.2-9.56m11.08-166.004c10.33 3.817 7.92-.113 13.49.335.06.526.23 2 .23 2.42-.13 6.222 4.72 9.899 5.68 15.878-1.28 4.528-38.04 39.981-43.24 42.981-3.08-4.5-11.13-8.57-16.12-10.61-3.43-3.77-9.09-3.93-12.39-7.95-.17-1.52-.4-3.05.18-4.51.84-2.12 1.17-2.14 3.14-2.9 5.18 1.47 10.21 2.89 15.12 5.14 1.41 1.05.97.57 1.9 1.76 1.84 2.34 3.54 4.15 6.02 5.84 2.1 1.42 4.49 2.97 7.01 2.47.79-1.09.8-1.5.83-2.86.12-4.56-4.17-9.67-7.16-12.8 8.03-4.306 15.75-8.807 20.82-16.619 2.94-4.527 5.67-13.276 4.49-18.575m-113.97 1.005 1.96.583c1.64 6.055 6.85 15.308 6.24 21.259 5.57 2.743 12.36 6.128 16.44 10.827.07 1.22.19.84-.21 1.87-1.32 3.47-2.94 5.62-1.67 9.25.9.56 2.2 1.7 3.28 1.73 5.69.14 19.72-11.2 29.2-11.91l1.21 1.37c.51 3 .45 4.94-.43 7.87-4.3 2-8.9 3.28-13.41 4.71-4.25 4.44-15.22 8.94-20.92 11.84-1.4-4.68-34.28-36.145-40.19-40.11 6.23-4.154 6.68-11.837 11.53-17.108 1.72.064 3.41.06 5.12.004zm75.78 176.999c.52.03 1.06.03 1.56.19 3.39 1.07 25.3 39.67 27.71 44.98-.03 1.08.08.89-.27 1.78-2.35 6.08-9.5 9.07-15.09 11.53-3.1 2.62-22.23-2.02-27.13-2.4.27-.61.7-1.51.88-2.19 2.18-8.04 2.02-44.89-1.51-51.88 4.81-.29 9.18-.83 13.85-2.01m67.97-62c11.47-1.66 23.82-.73 35.36-.38.79 1.41 1.26 2.48 1.4 4.13.95 11.29-3.37 26.26-11.21 34.6-3.79 4.04-7.89 4.12-13.03 4.21-13.56-3.85-23.84-13.66-35.14-21.46 1.88-1.73 3.21-4.27 4.73-6.34 4.93-6.73 10.65-10.82 17.89-14.76"/><path fill="#fefefe" d="M1750.5 1027.5c4.41-.45 8.67-1.17 13.03-.08 5.86 4.7 9.28 13.56 11.76 20.45 2.28 6.36 7.11 19.2 4.03 25.73-8.38 1.58-18.02.68-26.57.64-2.57.01-5.23.05-7.73-.62-6.15-1.62-12.86-4.94-15.96-10.71-2.25-4.18-2.28-8.61-.65-13 3.7-10.02 12.48-18.29 22.09-22.41m-171.76 56 13.96-.27c3.12 3.2 5.98 7.68 6.11 12.27-1.1 4.04-8.22 9.94-11.26 12.98-10.35 10.33-20.29 21.56-35.8 21.55l-2.68-.14c-5.18-3.4-13.37-23.65-16.61-30.29 3.08-4.32 9.02-10.67 9.89-15.85zm-30.86-55.08c6.82-1.25 13.8-.57 20.11 2.28 8.22 3.73 26.68 18.73 29.85 26.93.9 4.37-3.27 12.79-5.15 16.95l-11.94.05-39.6.04c-.15-3.99-7.33-11.33-9.89-14.55 4.17-9.12 16.34-21.97 16.62-31.7m80.23 113.07c3.17-.58 20.86 6.11 25.57 7.46 2.18 5.72 3.25 46.22.86 51.77-11.06 1.17-20.8 3.83-31.16 7.68l-1.35 1.32c-4.5-.56-18.95-15.32-24.46-18.39 3-2.53 29.9-46.3 30.54-49.84"/><path fill="#010101" d="M1649.62 233.495c4.13-.513 8.39-1.256 12.45.052 5.12 1.655 9.61 5.463 11.92 10.347 2.05 4.324 2.48 9.425.79 13.941-2.27 6.074-7.08 9.49-12.7 12.105 1.41 8.611 2.11 61.574-1.05 68.042l53.29.122c6.43-4.797 24.61-40.446 29.27-49.705.32-.703-.48-2.406-.76-3.19-.62-1.732-1.35-3.454-1.73-5.262-.91-4.306-.11-10.139 2.26-13.876 2.74-4.316 6.97-7.195 12.03-8.005 5.3-.85 10.79.708 15.02 3.969 4.12 3.175 6.77 7.801 7.2 12.999.37 4.419-.83 9.151-3.79 12.523-5.07 5.794-12.57 6.555-19.73 6.983-4.65 10.1-19.55 36.244-26.33 44.294l.83.146c13.68 2.482 27.16 12.17 34.91 23.653 2.83 4.208 6.11 10.492 5.09 15.639 12.66-4.468 33.43-18.01 45.59-25.413 1.46-1.819 1.12-8.58 2.06-11.349 1.67-4.898 5.12-7.747 9.68-9.871 4.49-2.09 9.56-2.449 14.14-.416 4.87 2.163 8.58 6.407 10.46 11.356 1.82 4.816 1.84 10.483-.43 15.158-1.77 3.654-5.07 6.318-8.88 7.627-7.88 2.7-14.13.968-21.4-2.438-12.79 7.716-36.29 22.395-49.76 26.883 2.07 8.904 2.71 45.665-.49 52.963 23.97.141 47.86 1.983 71.83 2.35 6.56-4.944 6.95-10.171 16.55-11.792 4.52-.762 9.26-.358 13.04 2.431 4.27 3.142 6.73 8.271 7.4 13.442.75 5.698-.98 11.771-4.71 16.164-2.9 3.427-6.7 5.399-11.23 5.451-10.37.119-14.59-6.853-20.86-13.353l-.47-.486c-23.19-3.148-48.23-2.292-71.67-2.836.54.858.54.79.96 1.901 2.05 5.411 1.62 46.139-.5 51.035 12.93 4.673 40.43 24.048 53.85 32.179 3.78-1.133 5.9-3.693 10.31-3.898 5.63-.26 12.92 1.064 17.09 4.98 2.96 2.781 4.16 6.747 4.21 10.721a22.12 22.12 0 0 1-6.85 16.29c-3.43 3.207-7.95 5.359-12.72 5.084-5.56-.32-10.01-3.876-13.38-8.045-.29-.359-.57-.731-.86-1.092-2.95-3.712-3.11-8.83-3.77-13.399-4.61-6.564-38.3-24.908-46.91-28.776-.28-.126-.56-.245-.85-.368.07.216.16.426.2.647 1.27 6.414-3.61 16.793-7.23 21.978-8.82 12.64-22.02 20.559-37.07 23.299 8.77 6.95 23.03 35.997 29.56 46.842 3.79.278 7.49.663 11.26 1.259 3.41 1.876 6.06 3.897 8.41 7.048 2.74 3.653 4.19 7.861 3.44 12.43-.93 5.652-4.57 10.8-9.36 13.881-4.85 3.127-10.97 4.485-16.6 2.852-4.54-1.319-7.77-4.476-9.98-8.573-6-11.135-.66-12.596 1.71-22.185.06-.247.09-.502.13-.752-3.08-8.946-25.11-47.191-31.96-52.432l-52.52-.038c2.44 4.146 2.64 65.101.97 71.644.87.654 1.72 1.312 2.56 2.006 5.73 4.739 9.38 10.381 9.89 17.973.34 4.898-1.1 9.913-4.57 13.482-4.57 4.707-9.73 5.563-15.93 5.77-4.67-.849-9.84-4.124-12.86-7.823-2.21-2.718-2.7-6.115-2.39-9.507.85-9.39 5.97-16.516 13.04-22.366 1.05-10.344 2.21-63.253-1.26-70.923l-46.43-.292c-.22 5.67-27.97 44.172-33.41 51.313 1.97 2.5 3.39 5.13 4.11 8.258 1.15 4.962 1.19 11.32-1.68 15.683-2.59 3.93-7.03 6.118-11.54 6.979-5.87 1.12-11.88-.165-16.66-3.779-3.69-2.781-6.61-6.701-7.19-11.372-.64-5.136 1.97-9.679 5.06-13.549 3.93-4.925 7.4-6.98 13.73-7.599l3.88-.393c6.8-7.809 28.66-36.025 30.02-45.191-2.77-1.644-6.67-2.128-9.72-3.404-11.47-4.803-20.9-11.731-27.22-22.6-2.72-4.675-3.75-12.046-7.06-15.988-.28-.333-.57-.652-.86-.979-5.94 5.596-35.54 19.059-45.18 24.489-.18 3.37-.53 6.782-1.8 9.94-1.93 4.755-5.83 9.637-10.74 11.49-4.32 1.635-9.28.905-13.3-1.219a20.47 20.47 0 0 1-10.02-12.166c-1.45-4.733-1.07-10.16 1.59-14.412 3.88-6.216 9.55-8.055 16.22-9.753 4.65 1.376 8.61 3.125 12.87 5.427 11.47-6.046 41.74-19.036 49.54-26.625.23-.593.53-1.272.69-1.906 1.66-6.779 1.63-49.368-1.19-54.362a7040 7040 0 0 1-73.07.395c-1.83 2.993-3.93 5.906-6.52 8.29-3.75 3.445-8.77 5.588-13.9 5.002-5.2-.594-9.93-3.923-12.9-8.13-3.1-4.373-4.48-10.037-3.45-15.323.9-4.656 3.48-8.385 7.48-10.92 4.09-2.597 9.94-4.127 14.72-2.885 6.74 1.749 10.49 6.92 13.99 12.442l73.54.101c.47-.699.69-.98 1.03-1.83 2.43-6.18 1.9-41.703-.53-47.425-7.07-7.505-41.52-25.066-53.18-31.618a47 47 0 0 1-7.31 2.724c-4.85 1.35-10.9 1.07-15.27-1.634-4.48-2.773-7.1-7.524-7.94-12.635-.86-5.25.45-10.94 3.62-15.229 2.76-3.73 6.76-6.246 11.41-6.706 5.05-.499 11.25 1.383 15.06 4.767 5.38 4.763 5.9 11.409 6.17 18.079 10.79 7.326 42.1 21.663 48.49 29.924 3.24-3.708 4.54-9.074 6.57-13.546 7.42-16.321 20.27-23.087 35.92-30.019.12-4.748-24.3-40.156-29.04-46.069-5.32-.744-10.21-1.531-14.82-4.561-3.52-2.316-5.5-5.361-6.14-9.527-.89-5.863-.26-13.201 3.54-17.947 2.87-3.578 7.16-5.33 11.66-5.643a21.05 21.05 0 0 1 16.11 6.031c3.41 3.363 5.68 7.546 5.63 12.419-.04 4.888-2.73 10.538-6.09 14.009 4.47 4.039 30.3 45.227 30.68 50.313 16.92.211 33.87.001 50.79-.022.38-.654.78-1.25 1.03-1.965 2.04-5.866 1.7-60.308-.67-66.102-.68-1.584-2.5-3.021-3.7-4.197-3.28-3.219-8.58-10.728-8.33-15.445.33-6.299 7.21-13.262 11.87-16.88"/><path fill="#fefefe" d="M1591.9 346.492c19.1-2.549 44.88-.715 64.68-.727 21.05-.012 47.56-1.887 68.01.63 6.81.838 13.65 2.39 19.3 6.459 9.82 7.073 18 17.711 19.84 29.916 3.14 20.787 1.05 48.742 1.02 70.223-.02 22.262 2 46.647-1.06 68.58-1 7.169-2.85 13.222-7.22 19.082-7.47 10.031-18.09 15.464-30.26 17.221-19.13 1.411-39.41.12-58.67.088-23.03-.039-46.79 1.152-69.71-.614-6.03-.465-12.63-1.576-18.14-4.181-10.19-4.817-18.88-15.175-22.46-25.788-3.83-11.333-3.46-120.018-1.95-137.153.58-6.572 1.91-14.395 5.06-20.259 7.08-13.164 17.68-19.208 31.56-23.477"/><path fill="#010101" d="M1672.92 358.5c18.38-.215 55.67-4.645 69.23 7.876 7.19 6.644 10.73 15.705 11.02 25.381.87 28.847.66 58.009.7 86.882.02 13.671 1.79 30.664-1.01 44.044-1.12 5.394-4.15 10.593-8.01 14.523-4.32 4.414-10.13 6.456-16.07 7.575-12.14 2.287-25.87 1.009-38.2.767a1767 1767 0 0 0-45.83-.45c-18.72.079-53.95 4.407-67.78-8.735-8.9-8.462-10.5-17.169-10.7-29.063-.38-21.819.33-43.712.25-65.547-.06-15.08-2.17-45.566.77-58.509 1.27-5.611 4.73-11.147 8.76-15.232 4.28-4.332 9.5-6.863 15.38-8.18 15.9-3.561 62.41-1.259 81.49-1.332"/><path fill="#fefefe" d="M1718.13 500.498c3.18-.189 6.75.23 9.58 1.731 3.46 1.826 5.93 4.932 6.83 8.755a11.8 11.8 0 0 1-1.6 9.147c-2.62 4.054-6.18 5.618-10.75 6.54-2.21.34-4.54.278-6.67-.452-3.66-1.249-6.45-3.741-7.87-7.357-1.38-3.513-1.24-7.765.41-11.166 2.14-4.386 5.66-5.795 10.07-7.198"/><path fill="#010101" d="M1717.08 505.496c1.92-.223 4.11-.297 5.98.275 2.44.749 4.95 2.84 5.96 5.209.9 2.095.88 4.4-.22 6.415-1.39 2.553-3.88 3.472-6.5 4.241-1.13.238-2.12.346-3.28.168-2.64-.407-5-1.418-6.48-3.746-1.21-1.905-1.47-4.19-.96-6.368.73-3.101 2.99-4.542 5.5-6.194"/><path fill="#fefefe" d="M1634.53 463.493c3.78-.695 7.36-1.311 11.05.202 3.85 1.577 7.1 5.189 8.49 9.086 1.29 3.619 1.01 7.47-.9 10.809-2.16 3.772-4.93 5.27-8.98 6.436-1.19.74-1.98.978-3.39.979-3.86.002-6.58-.6-9.28-3.446-3.08-3.244-4.4-8.262-4.15-12.654.31-5.384 3.33-8.177 7.16-11.412"/><path fill="#010101" d="M1635.79 468.491c2.6-.556 5.14-1.122 7.73-.179 2.66.971 5.16 3.194 6.24 5.838.84 2.079.74 4.272-.22 6.293-1.35 2.824-3.53 3.756-6.33 4.759-.35.18-.67.419-1.05.541-1.48.486-4.34.269-5.69-.533-2.25-1.344-3.21-3.909-3.66-6.377-.87-4.675.28-6.58 2.98-10.342"/><path fill="#fefefe" d="M1676.37 463.495c4.63-.719 8.69-.927 12.75 1.804 3.25 2.185 5.65 5.79 6.28 9.665.55 3.455-.23 6.784-2.28 9.62-2.64 3.661-5.61 4.807-9.9 5.673-1.51.734-3.57.645-5.23.448-3.54-.424-6.08-1.609-8.2-4.538-2.56-3.517-3.18-8.41-2.25-12.597 1.11-5.03 4.79-7.507 8.83-10.075"/><path fill="#010101" d="M1676.77 468.495c2.23-.352 4.62-.809 6.85-.2 2.87.787 5.52 3.241 6.74 5.934.85 1.884.89 4.173.04 6.06-1.36 3.006-3.62 4.206-6.61 5.216-.22.09-.45.206-.68.27-3.12.84-5.8-.093-8.37-1.801-1.65-2.192-2.32-3.947-2.38-6.728-.1-4.042 1.7-5.969 4.41-8.751"/><path fill="#fefefe" d="M1634.74 425.494c4.19-.515 7.9-1.018 11.86.953 3.42 1.706 6.26 5.078 7.44 8.71a12.98 12.98 0 0 1-1.18 10.81c-2.46 4.054-6 5.599-10.45 6.539-1.35.445-2.31.523-3.73.402-3.66-.316-7.1-1.159-9.47-4.205-2.67-3.447-3.17-8.591-2.46-12.767.85-5.043 4.15-7.6 7.99-10.442"/><path fill="#010101" d="M1635.17 430.494c2.61-.56 5.25-.98 7.86-.182 2.68.819 5.41 3.322 6.47 5.912.77 1.909.78 3.976-.08 5.853-1.36 2.971-3.31 4.104-6.22 5.318-.62.374-.87.577-1.67.727-2.13.398-4.71.207-6.47-1.053-2.42-1.729-3.06-4.899-3.37-7.679-.42-3.908 1.2-5.878 3.48-8.896"/><path fill="#fefefe" d="M1717 463.497c4.01-.423 7.4-.598 11.07 1.329a13.56 13.56 0 0 1 6.77 8.485 13.8 13.8 0 0 1-1.68 11.038c-2.64 4.144-6.34 5.793-10.98 6.739-1.57.262-2.76.384-4.34.056-4.02-.835-7.47-2.672-9.52-6.352-1.95-3.485-2.07-8.063-.93-11.831 1.55-5.129 5.19-7.171 9.61-9.464"/><path fill="#010101" d="M1717.01 468.497c2.74-.361 5.42-.534 8.01.648 2.49 1.132 4.63 3.431 5.47 6.046a7.6 7.6 0 0 1-.69 6.158c-1.79 3.038-4.33 4.031-7.58 4.91-1.01.426-2.36.453-3.46.28-2.06-.323-4.09-1.408-5.34-3.091-1.76-2.356-2.41-5.839-1.79-8.688.67-3.091 2.91-4.578 5.38-6.263"/><path fill="#fefefe" d="M1676.07 387.497c3.91-.479 7.36-.772 11 1.041 3.77 1.885 6.72 5.721 7.75 9.796.92 3.652.37 7.466-1.72 10.617-2.47 3.729-5.68 5.1-9.92 5.973-2.1.153-4.3.359-6.38-.061-3.63-.734-6.73-2.783-8.62-6.003-1.91-3.278-2.07-7.442-1.08-11.05 1.44-5.291 4.54-7.636 8.97-10.313"/><path fill="#010101" d="M1675.94 392.495c2.31-.394 5.26-1.107 7.55-.438 2.75.802 5.2 3.197 6.29 5.801 1.04 2.466.8 4.991-.4 7.351-1.61 3.168-3.88 4.017-7.15 4.93-.44.115-.87.287-1.32.343-2.05.252-5.41-.498-6.93-1.971-2.1-2.034-2.5-4.838-2.55-7.641-.06-3.919 1.91-5.668 4.51-8.375"/><path fill="#fefefe" d="M1594.56 463.489c4.49-.752 8.89-1.182 13.04 1.076 3.55 1.937 6.46 5.682 7.32 9.654.72 3.299.2 6.634-1.63 9.478-2.48 3.842-5.74 5.514-10.09 6.423-1.9.906-3.24.973-5.36.794-3.48-.295-5.7-1.303-7.88-4.065-2.75-3.483-3.92-8.917-3.29-13.267.74-5.114 3.96-7.392 7.89-10.093"/><path fill="#010101" d="M1594.9 468.489c2.47-.542 5.19-1.005 7.68-.379 2.64.661 5.55 2.807 6.85 5.207 1.19 2.192 1.3 4.641.27 6.915-1.28 2.783-3.8 3.972-6.5 4.964-.29.172-.55.412-.86.516-2.88.946-5.11.206-7.62-.999-1.91-2.333-2.75-4.321-3.14-7.334-.51-3.899 1.04-5.868 3.32-8.89"/><path fill="#fefefe" d="M1716.82 425.497c4.33-.459 7.95-.507 11.84 1.719a14.82 14.82 0 0 1 6.99 9.204 12.62 12.62 0 0 1-1.53 9.781c-2.63 4.195-6.26 5.795-10.94 6.748-1.94.212-4.02.161-5.91-.355-3.93-1.073-7.43-3.121-9.39-6.797-1.76-3.272-1.8-7.608-.7-11.101 1.55-4.937 5.41-6.911 9.64-9.199"/><path fill="#010101" d="M1715.94 430.496c2.66-.496 5.48-1.153 8.11-.18 2.87 1.063 5.64 3.484 6.76 6.374a7.2 7.2 0 0 1-.32 5.969c-1.43 2.68-3.52 3.825-6.26 4.845-.83.227-1.39.412-2.22.537-2.41.365-5.6-.184-7.54-1.752-2.19-1.773-2.74-4.346-2.87-7.043-.2-4.02 1.75-5.88 4.34-8.75"/><path fill="#fefefe" d="M1593.41 425.491c4.46-.695 8.67-1.437 12.91.664 3.93 1.944 7.19 5.84 8.27 10.101.86 3.383.38 6.824-1.53 9.765-2.47 3.811-5.55 5.216-9.84 6.191-1.6.837-3.08.648-4.81.539-3.86-.244-6.31-.896-8.87-4.015-2.82-3.442-4.1-9.033-3.45-13.397.71-4.762 3.79-7.078 7.32-9.848"/><path fill="#010101" d="M1596.28 429.487c2.7-.139 5.46-.411 7.89.993 2.65 1.534 4.71 4.334 5.23 7.368.41 2.399-.3 4.911-1.82 6.795-2.05 2.54-4.41 2.996-7.5 3.452-2.87-.226-5.44-1.301-7.38-3.504-1.88-2.131-2.35-4.707-2-7.473.49-3.857 2.57-5.479 5.58-7.631"/><path fill="#fefefe" d="M1633.87 387.495c4.06-.545 7.7-1.121 11.59.61 4.04 1.797 7.32 5.402 8.64 9.638 1.11 3.579.74 7.379-1.2 10.599-2.27 3.757-5.58 5.586-9.7 6.685-1.42.681-2.31.925-3.93.88-3.82-.107-6.46-.701-9.05-3.592-3.12-3.465-4.28-8.849-3.86-13.428.49-5.357 3.68-8.174 7.51-11.392"/><path fill="#010101" d="M1634 392.494c2.62-.502 5.43-1.147 8.08-.468 2.99.767 5.99 3.221 7.43 5.943a7.08 7.08 0 0 1 .35 5.839c-1.16 3.07-3.66 4.651-6.51 5.927-.25.114-.48.257-.73.344-3.13 1.072-6.03.325-8.8-1.2-1.57-1.664-2.42-3.058-2.88-5.33-.99-4.828.33-7.12 3.06-11.055"/><path fill="#fefefe" d="M1675.08 425.497c3.93-.567 7.5-.982 11.22.748 3.97 1.845 7.15 5.36 8.43 9.569a12.34 12.34 0 0 1-.94 9.619c-2.1 3.801-5.65 5.992-9.74 7.071-1.77.652-3.47.999-5.37.844-3.69-.3-6.85-1.145-9.28-4.066-2.96-3.544-3.57-8.902-2.79-13.322.91-5.196 4.44-7.673 8.47-10.463"/><path fill="#010101" d="M1676.11 430.495c2.18-.327 4.63-.829 6.8-.21 2.8.798 5.48 3.099 6.69 5.736.97 2.1 1.04 4.68.02 6.776-1.58 3.228-4.14 4.371-7.42 5.33-.66.378-1.88.59-2.59.625-1.93.095-4.01-.532-5.39-1.859-2.32-2.233-3-6.115-2.8-9.195.21-3.18 2.52-5.134 4.69-7.203"/><path fill="#fefefe" d="M1596.28 387.489c4.37-.515 8.63-.625 12.49 1.838a14.13 14.13 0 0 1 6.37 9.365 13.4 13.4 0 0 1-2.69 10.813c-3.1 3.886-6.65 4.964-11.41 5.517-1.62.06-3.07.085-4.66-.289-3.79-.891-7.41-2.934-9.38-6.392-1.91-3.336-1.87-7.565-.66-11.14 1.73-5.125 5.48-7.304 9.94-9.712"/><path fill="#010101" d="M1595.42 392.489c2.75-.429 5.9-1.124 8.58-.078 2.72 1.062 5.33 3.516 6.26 6.327a7.24 7.24 0 0 1-.68 6.035c-1.68 2.79-4.23 3.913-7.24 4.756-1.04.291-1.13.368-2.38.41-2.97.098-5.31-.939-7.52-2.798-1.31-2.162-1.76-3.712-1.69-6.278.11-3.839 2.04-5.805 4.67-8.374"/><path fill="#fefefe" d="M1717.61 387.498c4.74-.034 8.82.007 12.81 3.003 2.98 2.243 5.06 5.667 5.55 9.38a12.65 12.65 0 0 1-2.61 9.463c-3.11 3.977-7.04 5.278-11.87 5.938-2.48.466-5.99-.176-8.25-1.318-3.33-1.684-5.7-5.06-6.6-8.632-.96-3.826-.61-8.272 1.48-11.685 2.24-3.67 5.51-5.034 9.49-6.149"/><path fill="#010101" d="M1715.57 392.496c2.86-.399 5.78-.934 8.56.089 2.85 1.045 5.58 3.416 6.74 6.246a7.1 7.1 0 0 1-.25 5.961c-1.6 3.168-4.21 4.256-7.41 5.326-1 .514-1.96.597-3.08.647-2.27.104-4.5-.399-6.14-2.011-2.02-1.984-2.66-5.247-2.72-7.969-.09-3.84 1.74-5.657 4.3-8.289"/><path fill="#fefefe" d="M1675.45 500.496c4.12-.49 7.86-1.126 11.77.719a15.08 15.08 0 0 1 8.01 9.525 13.43 13.43 0 0 1-1.71 10.942c-2.5 3.862-5.8 5.722-10.15 6.822-1.53.55-3.48.599-5.08.381-3.75-.514-6.44-1.587-8.7-4.707-2.68-3.714-3.38-9.139-2.53-13.572.96-5.021 4.47-7.434 8.39-10.11"/><path fill="#010101" d="M1675.62 505.495c2.62-.438 6.1-1.337 8.63-.272 2.77 1.164 5.15 3.643 6.19 6.461.87 2.363.45 5.027-.79 7.18-1.53 2.676-3.44 3.723-6.29 4.641-.7.338-.97.524-1.84.609-2.34.227-4.92-.325-6.76-1.747-2.42-1.866-2.89-5.062-3.1-7.932-.29-3.997 1.52-5.952 3.96-8.94"/><path fill="#fefefe" d="M1635.53 500.494c4.36-.497 7.97-.979 11.98 1.3 3.83 2.174 6.64 6.176 7.57 10.458a13.8 13.8 0 0 1-1.98 10.734c-2.51 3.733-5.66 5.108-9.91 6.03-1.55.094-3.14.199-4.68.032-3.73-.405-7.6-2.611-9.82-5.628-2.63-3.582-3.08-8.244-2.09-12.506 1.21-5.243 4.71-7.702 8.93-10.42"/><path fill="#010101" d="M1635.83 505.493c2.75-.421 5.78-1.158 8.43.013 2.84 1.251 5.3 3.714 6.33 6.66.74 2.115.54 4.419-.44 6.421-1.49 3.064-3.84 4.332-6.94 5.384-.7.216-1.1.372-1.79.477-2.06.311-4.98-.13-6.66-1.435-2.51-1.961-3.15-5.118-3.29-8.14-.21-4.252 1.63-6.329 4.36-9.38"/><path fill="#fefefe" d="M1597.78 499.495c4.36-.165 8.67.639 12.09 3.47 3.14 2.597 5 6.241 5.38 10.287a14.17 14.17 0 0 1-3.47 10.665c-3.28 3.737-7.04 4.687-11.82 5.071-1.82-.082-3.7-.42-5.42-1.078-3.66-1.406-6.76-4.617-8.17-8.251a15.3 15.3 0 0 1 .75-12.543c2.36-4.431 6.02-6.282 10.66-7.621"/><path fill="#010101" d="M1598.51 504.495c2.2-.002 4.17.05 6.21.975 2.53 1.148 4.44 3.402 5.37 5.993.87 2.432.66 4.926-.54 7.212-1.62 3.097-4.06 4.111-7.28 4.976-1.56.145-3.16.288-4.69-.184-2.84-.88-4.96-2.817-6.1-5.558a10.27 10.27 0 0 1 .37-8.781c1.49-2.854 3.71-3.791 6.66-4.633M379.784 242.401c21.307-2.529 44.646 1.888 64.171 10.414 40.466 17.671 66.766 53.199 82.522 93.245 22.683 1.845 42.604 7.418 59.441 23.683a81.57 81.57 0 0 1 25.033 58.265 77.96 77.96 0 0 1-22.325 54.639c-10.272 10.357-23.731 18.564-37.865 22.322-20.114 5.349-44.389 2.898-65.12 2.886l-86.645.105c-.292 19.343-.128 38.716-.185 58.063a6580 6580 0 0 0 97.532.028c3.546-8.698 9.045-16.558 17.947-20.439 6.685-2.914 14.085-2.477 20.699.378 7.267 3.139 12.91 9.3 15.813 16.612 2.94 7.406 3.056 16.515-.424 23.769-3.226 6.726-9.564 11.126-16.534 13.303-7.826 2.446-16.15 2.344-23.421-1.783-8.271-4.694-12.165-11.731-14.591-20.628-32.329-.147-64.704.427-97.033.714-.071 8.779.093 17.574.153 26.354 8.097 4.021 14.689 8.803 18.75 17.138 3.32 6.814 3.752 15.164 1.06 22.248-3.266 8.591-9.895 13.465-18.038 16.904-5.697.585-10.844 1.07-16.431-.624-7.088-2.148-13.098-6.809-16.472-13.478a28.53 28.53 0 0 1-1.407-22.019c3.625-10.532 11.547-15.151 21.141-19.676.331-9.03.3-18.099.407-27.136a6637 6637 0 0 0-102.776.353c-2.104 7.933-4.975 14.054-12.33 18.344-6.919 4.035-15.109 5.903-22.943 3.512-7.135-2.177-13-7.42-16.51-13.929a29.02 29.02 0 0 1-1.912-23.115c2.229-6.608 6.679-12.088 13.005-15.133 7.109-3.422 16.85-3.974 24.196-.987 8.889 3.614 13.148 10.923 16.656 19.337a6571 6571 0 0 0 101.748-.1l.062-58.173c-32.685-.66-65.49-.081-98.188-.074-17.946.004-37.677 1.525-55.272-2.108a74.05 74.05 0 0 1-33.309-16.274 80.67 80.67 0 0 1-27.958-55.468 82.48 82.48 0 0 1 19.79-59.753c17.025-19.603 38.539-26.658 63.67-28.374 7.243-17.929 17.357-35.64 29.573-50.66 23.858-29.335 56.36-48.791 94.32-52.685"/><path fill="#fefefe" d="M253.043 557.134c2.385-.192 4.85-.416 7.234-.124 4.357.533 8.48 3.33 10.922 6.935 2.348 3.467 3.036 7.695 2.235 11.775-1.253 6.378-5.146 9.842-10.341 13.116-2.478.169-5 .352-7.462-.069-4.49-.767-8.525-3.61-10.956-7.444a15.44 15.44 0 0 1-1.884-12.305c1.583-6.076 5.143-8.888 10.252-11.884m136.14 59.902c2.669-.119 5.246-.206 7.83.592a16.68 16.68 0 0 1 10.12 8.736c1.943 4.007 2.235 8.423.682 12.611-1.91 5.149-5.633 7.942-10.526 10.016-2.48.096-5.134.291-7.591-.104-4.376-.704-8.49-3.632-10.898-7.302-2.303-3.51-2.8-7.922-1.686-11.935 1.839-6.621 6.4-9.603 12.069-12.614m132.109-60.917c2.567-.141 5.408-.353 7.917.268 4.307 1.066 8.215 4.29 10.198 8.232 2.106 4.186 2.284 9.132.741 13.531-2.205 6.287-6.344 9.193-12.118 11.736-2.527-.051-5.27-.006-7.728-.637-4.368-1.121-8.316-4.353-10.5-8.26-2.249-4.026-2.471-8.842-.993-13.168 2.172-6.357 6.741-9.097 12.483-11.702M382.426 254.332c19.67-2.286 41.164 2.228 58.891 10.742 38.691 18.583 61.691 53.345 75.478 92.545 21.131.841 40.414 3.918 57.356 17.734 13.865 11.308 22.329 28.598 23.897 46.324a65.9 65.9 0 0 1-15.624 48.649c-14.809 17.577-33.022 23.417-55.183 25.401.176-51.572-17.614-106.892-45.523-150.02-18.733-28.947-45.132-61.956-80.488-69.541a157 157 0 0 0-7.585-.876c-18.635-1.576-37.128 10.197-50.628 21.788-19.801 17-34.071 37.382-46.652 60.069-24.39 43.982-37.484 88.257-41.464 138.412-18.537-.539-35.809-4.784-49.486-18.119-13.061-12.734-20.629-31.28-20.639-49.467a69.85 69.85 0 0 1 21.034-49.972c16.794-16.581 36.848-19.992 59.491-19.775 6.327-19.176 15.37-36.284 27.542-52.364 22.293-29.452 53.252-46.458 89.583-51.53"/><path fill="#fefefe" d="M388.079 287.173a39 39 0 0 1 1.797-.13c17.526-.799 34.916 11.813 47.129 23.069 37.134 34.224 63.485 89.214 73.15 138.278 3.091 15.689 4.016 31.052 4.599 47.012a10765 10765 0 0 0-118.245-.058 11436 11436 0 0 0-129.38.044c2.899-50.161 19.26-97.861 44.909-140.851 17.472-29.285 41.56-58.709 76.041-67.364"/><path fill="#010101" d="M906.009 233.9c4.401.217 8.072.753 11.421 3.868 1.97 1.834 3.127 4.35 3.11 7.057-.029 4.528-2.829 7.059-5.791 10.024l-.185 54.048 43.182.046c.265-17.991.169-36 .211-53.994-2.566-2.112-4.879-4.33-5.863-7.608-.778-2.592-.813-5.431.656-7.795 1.705-2.743 5.028-4.188 8.114-4.638 3.65-.533 7.924.147 10.89 2.46 2 1.559 3.178 3.771 3.285 6.31.204 4.807-2.74 8.239-5.919 11.437.667 17.921.527 35.934.69 53.87l41.23.024c.66-17.954.3-36.039.32-54.01-2.53-2.502-4.88-5.361-5.72-8.903-.57-2.381-.43-4.909.99-6.979 1.7-2.469 4.9-3.696 7.76-4.05 3.71-.458 8.04.379 10.97 2.806 1.95 1.619 3.1 3.775 3.14 6.328.08 4.731-2.67 7.674-5.86 10.778l-.01 53.982 41.7-.133c.53-18.078.15-36.281.19-54.372-2.88-2.344-5.65-5.39-6.31-9.188-.41-2.333.36-4.598 1.94-6.327 2.19-2.382 6.18-3.331 9.27-3.449 3.67-.14 8.21.7 10.86 3.464 1.35 1.411 2.03 3.469 1.9 5.378-.29 4.579-3.42 7.92-6.77 10.666 1.05 17.908.55 35.995.54 53.931l41.21.195a1753 1753 0 0 0 .12-54.588c-2.4-2.235-4.83-4.833-5.75-8.048-.68-2.354-.6-4.814.77-6.917 1.63-2.512 4.75-3.908 7.6-4.413 3.57-.632 7.82-.094 10.79 2.103 1.96 1.444 3.15 3.571 3.3 6.002.28 4.75-2.33 8.16-5.35 11.497.61 18.685.33 37.463.36 56.16 6.72 3.084 13.01 6.975 18.36 12.096 12.57 12.016 15.96 26.009 16.23 42.855l55.51.298c.21-.17.43-.343.65-.511.36-.279.74-.547 1.1-.829 1.92-1.488 3.45-2.714 5.86-3.341 2.95-.767 6.52-.835 9.13.957 2.52 1.732 3.73 4.651 4.03 7.626.35 3.638-.67 7.715-3.16 10.458a8.75 8.75 0 0 1-6.74 2.894c-4.55-.135-7.28-2.883-10.2-5.948-18.83.753-37.74.753-56.59 1.054l-.04 41.611c18.5 1.222 37.39.525 55.93.446 1.52-1.471 3.11-3.094 4.99-4.096 2.64-1.402 6.02-1.822 8.82-.65 2.87 1.197 4.92 4.006 5.85 6.886 1.09 3.348.96 7.46-.95 10.499-1.32 2.085-3.65 3.37-6.07 3.68-5.64.725-9.77-2.673-13.97-5.831-18.14-.207-36.31.121-54.45.203l.17 41.941 55.02.186c.45-.318.9-.624 1.34-.957 1.67-1.275 3.22-2.767 5.23-3.502 2.99-1.094 6.93-1.187 9.73.478 2.27 1.352 3.67 3.651 4.31 6.176.91 3.623.26 7.889-1.94 10.943-1.49 2.056-3.68 3.408-6.19 3.753-5.11.7-8.86-2.273-12.58-5.237l-55.31.003.2 43.244 56.85-.104c1.75-1.813 3.41-3.522 5.75-4.546 2.77-1.21 5.76-1.585 8.57-.265 2.49 1.172 4.09 3.551 4.93 6.108 1.11 3.424.88 7.666-1.02 10.779-1.39 2.271-3.49 3.733-6.1 4.214-5.03.922-8.61-1.791-12.43-4.541-18.77-.44-37.64-.05-56.42-.016-.2 4.582-.97 9.426-2.12 13.867-4.74 18.381-16.48 28.334-32.24 37.433-1.81 18.968-.71 38.578-.41 57.618 1.84 1.945 3.84 3.94 5.03 6.372 1.92 3.92.77 6.929-.56 10.856-1.85 1.738-3.66 3.274-6.08 4.152-3.33 1.208-7.6 1.231-10.74-.56-2.86-1.64-4.71-5.139-5.26-8.307-.68-3.893 1.37-6.182 3.64-9.085 4.45-5.677 2.2-48.016 2.14-58.059l-41.73-.225a3448 3448 0 0 0 .24 54.591l.51.673c.28.377.55.761.82 1.138 1.55 2.088 2.97 3.925 3.7 6.473.86 3.023.94 6.571-.78 9.323-1.65 2.639-4.59 4.145-7.63 4.531-3.76.48-7.69-.416-10.56-2.962-2.16-1.908-3.16-4.168-3.25-7.037-.13-4.691 2.18-7.317 5.16-10.586.75-18.626.43-37.331.43-55.97l-41.47-.074-.07 55.544c2.4 2.488 5.01 5.394 5.91 8.805.66 2.493.51 5.241-.93 7.444-1.8 2.778-5.07 4.265-8.25 4.77-3.53.56-7.7-.081-10.53-2.392a8.4 8.4 0 0 1-3.05-5.766c-.45-4.796 2.01-9.081 4.97-12.598a3228 3228 0 0 0 .21-55.745 2714 2714 0 0 0-41.555.136 3885 3885 0 0 0 .157 53.96c2.227 2.435 4.574 5.119 5.658 8.275.95 2.766 1.222 6.219-.291 8.847-1.608 2.791-4.605 4.493-7.691 5.133-3.573.742-7.677.177-10.656-2.029a8.87 8.87 0 0 1-3.62-6.477c-.409-4.82 2.251-8.287 4.985-11.885.682-18.447-.6-37.456-.708-55.974-13.336-.099-26.685.068-40.023.116l.141 55.347c2.88 2.929 4.775 5.614 5.558 9.725.497 2.61.195 5.449-1.455 7.62-1.915 2.521-5.043 3.7-8.094 4.065-3.721.446-8.012-.483-10.866-3.014-1.966-1.743-3.048-4.058-3.094-6.688-.078-4.555 2.412-8.035 5.311-11.269a2162 2162 0 0 1 .629-57.371 51.44 51.44 0 0 1-20.926-12.609c-12.02-11.953-14.108-24.955-14.098-41.142l-53.763.036c-2.724 2.022-5.585 3.727-9.034 4.1-2.739.297-5.552-.283-7.659-2.143-2.12-1.87-3.208-4.773-3.369-7.55-.179-3.091.79-6.523 2.902-8.838 1.727-1.893 4.186-2.916 6.736-2.947 4.704-.057 7.595 2.341 10.887 5.268l52.711-.024c.507-13.899.409-27.777.315-41.681-9.987-.036-49.365-1.964-56.16 1.553-1.642.85-3.38 1.951-5.179 2.421-2.397.628-5.605.168-7.693-1.181-2.349-1.517-3.866-3.948-4.387-6.679-.599-3.133-.105-6.57 1.717-9.225 1.532-2.234 3.787-3.671 6.488-3.995 4.552-.546 7.471 1.435 10.788 4.174l.886.738 53.74-.043.099-40.124c-17.99-.383-36.029-.208-54.025-.298-1.874 1.691-4.027 3.413-6.463 4.189-2.633.84-5.362 1.056-7.867-.284-2.286-1.224-3.753-3.447-4.418-5.908-.884-3.269-.666-6.775 1.089-9.723 1.309-2.2 3.264-3.65 5.809-4.075 4.583-.764 8.167 1.627 11.712 4.096l54.03-.034a1523 1523 0 0 0 .065-41.382c-18.225-.66-36.658-.147-54.906-.184-2.472 2.509-5.263 4.411-8.855 4.78-2.72.28-5.309-.385-7.402-2.189-2.279-1.964-3.363-5.067-3.315-8.024.05-3.097 1.271-6.175 3.57-8.288 1.971-1.812 4.832-3.061 7.532-3.002 4.097.089 5.898 4.082 9.726 4.423 17.583 1.567 36.06.534 53.748.47.01-8.067.435-16.015 2.905-23.751 4.961-15.537 16.121-24.516 30.124-31.767.178-19.055-.027-38.129-.06-57.186-1.103-1.099-2.158-2.16-3.024-3.463-1.716-2.58-2.667-5.517-1.89-8.608 1.091-4.334 4.528-6.453 8.037-8.678"/><path fill="#fefefe" d="M918.983 320.238c41.469-1.381 83.377.206 124.897.441 23.34.132 48.02-1.899 71.17.387 6.54.645 13.39 2.347 18.91 6.056 7.58 5.098 13.95 14.014 15.7 22.989 1.97 10.165 1.1 22.046 1.12 32.399l.02 52.483.09 69.484c0 13.762.77 28.066-.81 41.747-.84 7.238-2.35 12.79-6.62 18.779-6.73 9.435-15.91 15.003-27.21 16.995l-136.255.688c-21.007.028-43.853 1.823-64.6-.482-6.487-.721-12.566-2.521-18-6.216-7.139-4.854-12.371-11.507-13.953-20.026-2.615-14.071-1.469-29.345-1.472-43.647l-.043-69.908-.206-52.141c-.079-11.398-.674-23.115.557-34.462.753-6.945 2.398-12.209 6.414-17.957 7.355-10.527 17.985-15.465 30.291-17.609"/><path fill="#010101" d="M928.667 336.354c33.712-1.177 67.808-.169 101.553-.188 23.89-.013 49.14-1.67 72.9.481 4.76.43 8.71 1.389 12.91 3.765 8.3 4.693 14.17 12.184 16.52 21.443 2.96 11.702 1.14 25.197 1.09 37.235l.08 48.626c.09 25.816 2.14 59.744.01 84.788-.52 6.228-1.62 13.064-5.03 18.434-5.7 8.976-15.33 13.382-25.37 15.534-35.67 1.271-71.71-.129-107.435.019-19.66.081-50.38 2.194-68.71.098a31.94 31.94 0 0 1-14.25-5.143c-7.208-4.819-13.192-13.32-14.507-21.981-2.186-14.391-.452-49.461-.476-66.006l-.067-67.963c-.006-13.803-.869-28.283.975-41.96.742-5.503 2.771-10.019 6.083-14.458 6.026-8.077 14.096-11.207 23.724-12.724"/><path fill="#fefefe" d="M929.383 348.18c36.397-1.494 73.337-.463 109.787-.269 19.04.102 38.63-1.18 57.56-.244 3.33.165 6.88.643 10.02 1.774 6.45 2.317 11.64 6.857 14.3 13.252 1.12 2.692 1.5 5.561 1.63 8.453 1.18 27.222.08 54.942.06 82.221-.03 24.284 1.16 49.092-.15 73.315-.27 5.063-.5 10.751-2.62 15.438-3.14 6.901-8.7 10.486-15.38 13.255-26.06 2.366-59-.125-85.81-.278-28.913-.165-58.498 1.699-87.308.164-3.452-.184-6.873-.905-10.001-2.416-4.724-2.283-8.746-6.877-10.362-11.88-2.074-6.42-2.297-151.834-.828-171.692.274-3.7.761-6.715 2.638-9.983 3.675-6.395 9.665-9.288 16.464-11.11"/><path fill="#010101" d="M1007.88 364.355c3.53-.043 7.07-.095 10.6.002 4.52.123 9.13 1.142 12.24 4.694 4.42 5.044 3.91 13.476 3.7 19.776l14.45 4.703c6.01-4.93 11.43-7.976 18.81-10.518a120 120 0 0 1 6.54 4.295c4.51 3.179 9.24 7.165 9.99 12.972.93 7.25-4.35 12.715-8.48 17.987l4.86 15.136c7.54 1.55 17 2.399 21.37 9.709 3.54 5.904 2.22 16.195.11 22.491-3.2 9.537-14.77 6.582-21.8 10.52-1.98 1.113-3.35 2.822-3.97 5.014-1.93 6.857 3.82 11.858 6.36 17.598 1.29 2.94 1.28 5.907-.11 8.812-2.28 4.77-10.63 12.272-15.77 13.517-6.45 1.566-15.01-5.346-20.27-8.465l-11.76 4.717c-.22 3.343-.34 6.821-.94 10.118-1 5.503-3.99 8.099-8.35 11.077-5.56 1.161-15.19 2.272-20.25-.913-6.309-3.971-7.31-12.146-8.886-18.781-4.09-2.882-8.413-5.009-12.892-7.206-4.272 3.043-9.23 8.949-14.322 10.406-2.92.835-6.191-.185-8.763-1.577-5.08-2.75-10.168-8.256-11.792-13.821-1.841-6.311 2.397-10.587 5.194-15.709 1.675-3.067 2.613-6.07 1.464-9.502-2.38-7.11-12.963-6.564-18.818-10.014-2.98-1.756-4.056-4.798-4.787-8.009-1.484-6.527-2.19-18.451 1.916-24.124 3.096-4.278 12.755-4.743 17.687-5.512l4.622-12.032c-2.239-5.242-6.367-9.721-8.297-14.963-1.316-3.576-.066-7.381 1.717-10.571 2.504-4.478 7.176-9.173 12.23-10.557 6.715-1.838 16.967 5.235 22.813 8.35l10.781-5.793c.461-5.874.298-13.46 3.658-18.468 2.325-3.459 5.225-4.496 9.145-5.359"/><path fill="#fefefe" d="M1011.3 380.069c1.94-.106 4.3-.435 6.16.216 5.29 1.853 1.99 10.134 4.15 14.506 3.84 7.799 19.19 11.322 26.91 13.982 6.24-2.454 11.73-6.491 18.61-6.935l.71 1.584c-1.39 5.763-5.17 11.078-7.7 16.497 2.37 6.322 3.43 14.578 6.98 20.248 4.39 7.01 11.45 8.195 18.95 9.864 1.47 1.998 1.13 3.138 1.17 5.577-3.39 6.388-9.75 3.722-15.53 6.027-4.8 1.913-10.16 15.241-11.7 20.356-2.27 7.559 5.32 13.428 8.71 19.623-1.15 1.537-1.39 2.269-3.39 2.654-4.92.947-14.01-6.328-18.06-8.919-6.33 2.991-14.65 5.684-20.06 10.057-6.06 4.895-6.13 9.921-6.66 17.148-3.01.755-4.99 1.43-7.96.284-2.61-2.808-2.58-7.061-3.52-10.669-2.62-10.14-15.796-11.096-23.793-16.046l-1.153-.723c-4.27 2.28-8.161 6.189-12.838 7.562-2.478.727-3.57.816-5.736-.458-1.082-5.901 4.872-12.454 8.101-17.135-3.458-7.527-7.629-21.599-16.093-23.891-2.949-.799-7.332-.796-9.884-2.345-.979-.595-1.348-.967-1.485-2.095-1.638-13.513 12.244-5.92 17.905-13.76 5.628-7.796 7.765-19.214 4.322-28.23-1.513-3.961-3.794-7.584-4.606-11.774l1.429-.737c6.564.853 12.29 3.998 18.348 6.539 5.597-2.362 12.22-4.519 17.293-7.833 7.92-5.18 8.75-12.713 10.42-21.174"/><path fill="#010101" d="M1006.45 407.185c9.61-.674 18.44-.082 27.21 4.187a45.3 45.3 0 0 1 23.08 26.338c3.83 11.149 3.67 23.178-1.61 33.826-6.31 12.726-16.84 20.381-30.06 24.753-9.87 1.355-19.38.789-28.512-3.502-10.682-5.021-18.512-14.264-22.29-25.379-4.055-11.929-2.645-25.415 3.078-36.565 6.151-11.984 16.424-19.648 29.104-23.658M361.646 874.409c3.91-.205 7.957-.055 11.86.201 34.947 2.295 64.704 20.273 87.094 46.341 15.315-7.017 30.035-10.669 46.909-7.76a70.24 70.24 0 0 1 46.181 28.948c12.087 17.426 15.75 38.63 12.158 59.341 9.832 4.41 18.434 9.95 26.236 17.43 15.012 14.41 23.624 33.71 23.768 54.61.14 20.17-8.153 40.95-22.39 55.28a72.44 72.44 0 0 1-34.585 19.31c-18.045 4.26-39.477 1.92-58.038 1.95l-95.963.32-16.67 59.47c8.789 3.27 15.846 8.22 21.249 15.98a44.88 44.88 0 0 1 7.036 34.06c-2.5 12.73-10.044 21.34-20.464 28.49-6.488 3.21-12.873 5.56-20.145 6.17-11.689.99-22.768-2.99-31.551-10.68-8.715-7.63-14.306-18.08-15.066-29.7-.773-11.82 2.914-24.06 10.928-32.89 9.112-10.06 21.321-13.86 34.498-14.54 6.878-18.41 12.004-37.64 17.592-56.49l-93.58-.04c-18.873.06-39.66 1.89-58.21-1.32a82 82 0 0 1-31.75-12.75 83.84 83.84 0 0 1-36.771-55.13c-4.21-21.82.9-46.04 13.483-64.38 14.941-21.778 37.3-31.375 62.413-36.058 5.02-24.606 12.654-46.713 29.649-65.906 21.64-24.439 51.742-38.298 84.129-40.257"/><path fill="#fefefe" d="M365.127 1220.17c7.39-.69 13.96-.96 20.866 2.29a32.6 32.6 0 0 1 16.936 18.5 30.74 30.74 0 0 1-1.392 23.9c-4.24 8.73-11.365 13.02-20.203 16.1-6.672 1.39-13.323 1.12-19.723-1.32a30.34 30.34 0 0 1-17.095-16.68 31.62 31.62 0 0 1 .209-24.89c4.092-9.37 11.103-14.37 20.402-17.9m-6.483-332.793a179 179 0 0 1 4.651-.247c28.041-1.088 53.968 9.23 74.467 28.23 7.51 6.96 13.982 14.915 21.492 21.887 11.153-6.89 21.823-12.297 35.218-12.648 14.983-.392 30.853 5.35 41.68 15.802a58.34 58.34 0 0 1 17.946 46.636c-.431 6.162-1.942 12.916-1.634 19.043.02.37.043 2.59.25 2.9 2.544 3.76 15.514 7.72 19.853 10.21a65.4 65.4 0 0 1 12.039 9.08c11.842 11.3 18.277 29.25 18.52 45.44.259 17.16-7.041 33.95-19.093 46.07a61.5 61.5 0 0 1-27.993 16.41c-15.087 3.94-33.239 2.06-48.823 2.03l-61.717-.14H311.025c-20.628.02-49.801 2.26-69.453-1.41-11.035-2.06-21.441-7.06-30.312-13.88-15.463-11.9-24.722-29.81-27.159-49.05-3.38-26.69 9.468-57.3 33.817-70.37 6.187-3.32 39.536-11.86 40.229-12.823 3.939-5.475 3.139-17.218 4.957-23.911 3.645-13.426 10.681-26.654 19.255-37.563 19.166-24.384 45.738-38.14 76.285-41.696"/><path fill="#010101" d="M1024.68 834.177c8.55-.839 17.16.826 23.95 6.358 9.16 7.471 11.48 18.323 12.35 29.528a7283 7283 0 0 0 67.69 39.633c18.06 10.638 35.97 21.737 54.79 30.996 7.65-3.377 14.53-5.511 22.94-3.837 7.93 1.576 14.78 6.533 19.23 13.213 4.63 6.957 6.61 15.623 4.69 23.841-2.61 11.186-10.41 17.586-19.72 23.296l-.37 142.705c8.3 4.13 14.92 9.23 18.72 17.96 3.31 7.61 3.18 16.48.06 24.12a30.23 30.23 0 0 1-16.74 16.8c-9.67 3.86-18.09 1.67-27.3-2.25-16.84 7.18-33.04 17.77-48.93 26.85-25.24 14.45-50.72 28.6-75.53 43.77-.7 7.77-1.74 14.79-5.46 21.76-4.73 8.87-12 13.05-21.37 15.79-2.37.1-4.82.14-7.18-.07-7.59-.67-15.21-4.79-19.97-10.65-6.21-7.64-7.644-16.65-6.701-26.17-10.902-5.3-20.972-12.59-31.521-18.6a3790 3790 0 0 1-91.597-53.26c-8.89 4.38-17.438 6.89-27.242 3.76a28.57 28.57 0 0 1-16.937-14.95c-3.737-7.79-4.341-17.1-1.311-25.23 3.499-9.38 9.938-13.96 18.708-18.04a13128 13128 0 0 1-.079-142.231c-8.946-5.213-16.504-10.565-20.093-20.697-2.925-8.258-2.102-17.474 1.773-25.28a31.48 31.48 0 0 1 18.402-16.075c9.394-3.098 18.453-1.546 27.061 2.898 16.374-7.984 32.217-18.835 47.868-28.215 24.485-14.676 49.218-28.917 73.535-43.873.748-6.649 1.944-13.15 5.184-19.085 4.71-8.617 12.1-12.048 21.1-14.765"/><path fill="#fefefe" d="M1027.99 907.446c9.61 9.689 22.83 42.693 29.75 56.294l-25.24-.179-29.83-.22c6.43-19.042 17.78-37.05 25.32-55.895m-27.52 264.504a2408 2408 0 0 1 57.27-.22l-18.7 42.15-9.59 21.12c-10.57-20.42-19.59-42.04-28.98-63.05m-22.515-51.51c12.686 7.74 22.755 14.97 37.775 17.98 25.83 5.18 44.99-3.14 65.93-17.16l-6.23 13.99c-3.66 7.99-7.57 15.88-11.35 23.81l-68.828-.12c-6.627-12.29-11.732-25.68-17.297-38.5m17.759-144.406c22.156-.66 44.456-.216 66.626-.285 6.85 12.528 12.45 25.841 18.25 38.891-7.53-5.27-15.59-9.52-24.06-13.05a92 92 0 0 0-13.8-3.472c-24.04-4.343-45.338 2.652-65.09 16.242 5.803-12.9 11.678-25.701 18.074-38.326M1105.7 1097.06c8.63 2.13 15.82 2.05 24.4-.16 16.33 17.41 30.93 36.55 46.22 54.88-1.65 2.29-3.08 4.81-4.59 7.2l-21.23.09-72.86.06c8.74-20.92 18.62-41.45 28.06-62.07m-178.072-2.38c10.117 3.99 16.927 4.9 27.727 3.21 6.734 20.83 17.247 41.27 26.587 61.08l-45.631.11-49.501-.15-4.927-9.02a2883 2883 0 0 1 45.745-55.23m-34.725-118.876c29.461-1.098 59.343-.32 88.825-.045-7.974 16.672-14.727 33.961-22.604 50.701l-6.717 12.48c-9.805-1.37-16.462-.1-25.452 3.93-14.886-16.25-29.49-34.39-42.289-52.311 3.584-4.732 5.975-9.272 8.237-14.755m182.547-.137c31.33-1.02 63.09-.287 94.44.228 1.95 4.35 4.61 8.548 6.96 12.707-7.44 10.006-15.78 19.308-23.96 28.708-6.85 7.87-14.43 14.98-21.95 22.2-9.11-2.62-15.26-2.41-24.66-1.09a5211 5211 0 0 1-30.83-62.753m-201.26 22.502c4.186 1.841 38.34 46.331 44.485 53.661a103 103 0 0 0-.942 2.55c-3.94 11.12-3.691 19.97 1.355 30.61a878 878 0 0 1-27.806 33.92 768 768 0 0 0-19.394 23.69l-9.923-2.53.046-138.58zm312.31-1.58c3.88.173 7.7 1.168 11.49 1.962a7013 7013 0 0 1-.41 140.219l-12.99 4.11-17.18-21.3c-8.5-10.96-17.65-21.42-26.64-31.97 2.74-3.86 5.22-8.35 6.46-12.93 2.8-10.34-.32-19.19-5.53-28.1 14.62-17.59 30.51-34.17 44.8-51.991m-130.2-114.478c13.04 5.675 25.61 14.261 37.99 21.325 27.02 15.409 54.12 30.848 80.44 47.436-1.94 4.154-3.48 8.583-5.15 12.859l-10.57.06-88.06.109c-3.09-8.182-7.77-16.175-11.63-24.046a1032 1032 0 0 1-20.95-44.353c7.67-3.674 12.68-6.637 17.93-13.39m-54.19-1.311c4.32 2.02 12.99 12.126 17.56 15.659-8.34 21.437-20.211 48.013-32.211 67.462a4193 4193 0 0 1-78.862-.608l-15.203-.12c-1.488-5.508-3.557-9.542-6.674-14.258 12.83-8.594 26.721-15.968 39.993-23.901 25.039-14.966 49.93-29.989 75.397-44.234m-108.69 290.71c31.384-.46 63.005-1.06 94.376-.21 3.877 7.32 6.558 15.51 9.955 23.11 7.549 16.87 15.389 33.57 22.519 50.63-5.11 2.52-9.03 5.3-13.12 9.23-.57.76-1.31 1.01-2.13 1.44-11.922-3.13-102.835-58.73-120.476-69.39 2.387-4.62 2.711-10.02 5.611-14.31zm178.95-.1a5417 5417 0 0 1 96.59-.08c1.36 5.55 3.28 10.46 5.63 15.65-19.66 13.91-42.5 24.99-63.49 36.9-18.78 10.4-37.03 22.54-56.42 31.69-4.98-4.33-9.98-7.72-15.67-11.09 10.28-24.34 20.53-49.98 33.36-73.07"/><path fill="#fefefe" d="M1023.08 1008.37a66.1 66.1 0 0 1 22.57 1.95c20.53 5.53 35.79 20.06 46.14 38.17a62 62 0 0 0-2.52 6.05c-4.73 13.46-.91 22.99 5.03 35.18-16.55 20.33-29.74 34.65-57.06 38-6.54.4-13.05.32-19.51-.91-22.949-4.33-37.1-19.05-49.683-37.52 3.556-4.51 6.274-8.72 7.445-14.46 2.167-10.61-1.703-19.1-7.465-27.68 3.011-5.05 6.075-10.06 9.755-14.66 11.659-14.56 26.998-21.97 45.298-24.12"/></svg>