<svg preserveAspectRatio="xMidYMid meet" version="1.1" xmlns="http://www.w3.org/2000/svg" style="display: block;" viewBox="0 0 2048 1536" width="1365" height="1024">
<path transform="translate(0,0)" fill="rgb(254,254,254)" d="M 0 0 L 2046.25 0 C 2049.5 5.68581 2048 17.701 2048 24.3373 L 2048.02 1215.47 L 2048 1454.87 C 2048 1466.36 2049.75 1526.81 2047.38 1533.81 C 2047.12 1534.57 2046.64 1535.32 2046.25 1536 L 0 1536 L 0 0 z"/>
<path transform="translate(0,0)" fill="rgb(1,1,1)" d="M 1443.69 1069.73 C 1447.26 1069.7 1451.36 1069.76 1453.97 1072.62 C 1455.38 1074.16 1455.99 1075.79 1455.99 1077.87 C 1455.98 1081.8 1453.24 1084.25 1450.57 1086.73 C 1447.37 1086.77 1444.17 1086.52 1441.77 1084.15 A 8.01694 8.01694 0 0 1 1439.35 1078.47 C 1439.34 1074.6 1441.12 1072.4 1443.69 1069.73 z"/>
<path transform="translate(0,0)" fill="rgb(1,1,1)" d="M 1652.79 849.493 C 1654.96 848.925 1657.33 848.367 1659.58 848.8 C 1661.94 849.256 1664.64 851.354 1665.85 853.405 C 1667.03 855.398 1667.38 857.959 1666.43 860.113 C 1665.26 862.786 1663.15 863.41 1660.72 864.503 C 1660.33 864.711 1659.96 864.957 1659.55 865.126 C 1657.58 865.951 1655.4 865.562 1653.53 864.774 C 1652.45 863.679 1651.69 862.87 1651.19 861.385 C 1649.56 856.533 1650.47 853.897 1652.79 849.493 z"/>
<path transform="translate(0,0)" fill="rgb(1,1,1)" d="M 1657.89 1286.5 C 1660.62 1286.05 1662.9 1285.89 1665.65 1286.23 C 1667.71 1287.38 1668.84 1288.41 1669.96 1290.53 C 1671.09 1292.68 1671.09 1295.06 1670.22 1297.32 C 1668.98 1300.55 1667.21 1301.44 1664.3 1302.8 C 1661.13 1303.46 1659.09 1303.16 1656.27 1301.59 C 1655.08 1300.1 1654.33 1299.05 1654.12 1297.11 C 1653.65 1292.81 1655.37 1289.8 1657.89 1286.5 z"/>
<path transform="translate(0,0)" fill="rgb(1,1,1)" d="M 1864.52 1069.5 C 1866.79 1069.09 1868.92 1068.77 1871.16 1069.57 C 1873.64 1070.47 1875.72 1072.53 1876.68 1074.98 C 1877.6 1077.3 1877.41 1079.79 1876.18 1081.96 C 1874.6 1084.77 1872.33 1085.81 1869.32 1086.51 C 1866.35 1086.4 1864.66 1085.63 1862.05 1084.24 C 1860.52 1082.06 1859.91 1081.37 1859.79 1078.63 C 1859.61 1074.43 1861.79 1072.34 1864.52 1069.5 z"/>
<path transform="translate(0,0)" fill="rgb(1,1,1)" d="M 1655.04 904.494 C 1657.44 904.234 1659.87 903.902 1662.15 904.891 C 1664.9 906.08 1667.17 908.56 1668.14 911.387 C 1668.97 913.81 1668.58 916.423 1667.27 918.605 C 1665.62 921.35 1663.09 922.021 1660.16 922.791 C 1659.29 922.848 1658.41 922.898 1657.54 922.859 C 1654.92 922.744 1652.58 921.548 1650.96 919.481 C 1649.31 917.373 1648.82 914.604 1649.32 912.007 C 1650.02 908.33 1652.01 906.438 1655.04 904.494 z"/>
<path transform="translate(0,0)" fill="rgb(1,1,1)" d="M 1624.75 869.48 C 1626.39 869.135 1628.02 868.97 1629.68 868.78 C 1637.37 873.416 1631.6 904.281 1633.25 913.355 C 1635.97 928.301 1653.1 931.991 1657.22 943.563 C 1660.12 942.47 1662.3 940.725 1664.68 938.795 C 1691.6 916.936 1681.3 900.822 1684.32 871.282 C 1685.78 869.185 1685.69 869.376 1688.23 868.912 L 1690.23 870.548 C 1694.37 878.671 1693.39 909.448 1690.89 918.632 C 1687.88 929.686 1672.53 945.938 1662.81 951.902 C 1665.44 959.161 1665.35 987.508 1662.55 994.363 C 1667.94 995.118 1673.23 997.949 1678.21 1000.12 C 1684.65 995.459 1693.5 992.974 1699.17 987.634 C 1712.37 971.603 1699.87 949.39 1700.56 931.615 C 1700.91 922.475 1706.37 915.047 1708.6 906.419 C 1710.12 900.549 1709.56 894.009 1712.23 888.427 C 1713.19 886.429 1713.38 886.033 1715.41 885.275 C 1717.67 887.348 1718.08 890.425 1718.37 893.349 C 1719.26 902.463 1714.38 921.217 1708.18 928.169 C 1707.87 928.516 1707.55 928.846 1707.23 929.184 C 1712.05 938.597 1710.37 949.974 1714.37 959.831 C 1716.59 962.042 1717.88 963.205 1720.96 963.922 C 1736.16 958.205 1731.3 916.391 1736.88 907.123 C 1739.49 905.95 1739.87 906.033 1742.56 906.41 C 1751.92 915.306 1730.35 962.141 1735.81 976.452 C 1736.63 978.624 1737.25 978.673 1739.24 979.609 C 1747.84 977.922 1756.39 966.658 1762.37 960.569 L 1762.69 959.96 C 1762.45 958.15 1762.19 956.316 1762.12 954.49 C 1761.89 948.849 1762.52 945.751 1766.56 941.662 C 1769.76 938.417 1773.8 936.307 1778.43 936.522 C 1782.97 936.733 1787.06 939.095 1790.01 942.486 C 1793.24 946.207 1795.27 951.679 1794.6 956.627 C 1794.09 960.382 1792.24 963.459 1789.08 965.571 C 1782.43 970.016 1776.43 968.836 1769.09 967.595 C 1765.06 974.272 1753.81 985.497 1747.22 989.773 C 1751.75 991.742 1755.43 995.614 1760.06 997.469 C 1766.38 1000 1788.89 991.545 1796.88 990.601 C 1803.74 989.793 1817.07 988.131 1822.72 992.597 C 1823.76 995.174 1823.72 995.501 1823.2 998.24 C 1817.55 1003.24 1802.47 999.139 1794.89 999.777 C 1786.87 1000.45 1778.54 1003.41 1770.49 1004.67 C 1771.78 1008.39 1769.67 1013.17 1769.65 1017.03 C 1769.64 1019.71 1770.5 1020.68 1772.22 1022.61 C 1780.12 1021.14 1788.23 1019.32 1796.26 1018.94 C 1804.94 1018.53 1838.22 1016.85 1843.26 1021.41 C 1843.46 1023.98 1843.07 1024.54 1841.99 1026.8 C 1832.23 1030.86 1803.85 1026.76 1791.59 1027.55 C 1786.66 1027.87 1781.81 1029.29 1777.06 1030.58 L 1777.47 1031.14 C 1780.11 1034.71 1781.65 1038.65 1783.25 1042.76 C 1785.55 1048.68 1789.45 1058.79 1786.74 1064.93 L 1788.1 1064.44 C 1796.73 1061.42 1808.99 1052.49 1814.65 1045.12 C 1824.59 1045.03 1853.82 1042.09 1861.32 1047.33 L 1861.67 1049.45 L 1859.99 1051.7 C 1850.26 1056.9 1830.15 1054.13 1819.12 1054.05 C 1816.79 1057.61 1810.18 1061.06 1806.35 1062.98 C 1810.76 1064.85 1816.54 1069.1 1818.52 1073.62 C 1821.73 1080.93 1815.35 1087.33 1813.97 1094.16 C 1813.29 1097.48 1816.71 1099.61 1818.01 1102.5 C 1818.17 1102.84 1818.31 1103.19 1818.46 1103.54 C 1830.04 1103.8 1843.64 1102.05 1854.88 1104.09 C 1858.13 1104.67 1859.67 1105.25 1861.57 1107.89 L 1860.84 1110.43 C 1853.86 1115.1 1824.52 1112.18 1815.38 1112.01 C 1815.32 1111.73 1815.3 1111.44 1815.19 1111.18 C 1813.47 1107.05 1808.14 1101.4 1804.32 1099.18 C 1798.84 1099.25 1793.45 1098.59 1788 1097.99 C 1787.89 1104.44 1785.12 1114.47 1780.72 1119.27 C 1792.19 1121.47 1804.14 1126.23 1815.77 1127.07 C 1823.05 1127.59 1834.86 1124.73 1841.37 1127.66 C 1843.12 1128.44 1843.22 1129.37 1843.95 1131.02 C 1843.39 1132.61 1843.37 1133.42 1842.04 1134.56 C 1832.28 1142.92 1790.84 1128.78 1778.7 1127.43 C 1776.5 1129.58 1773.24 1131.84 1771.72 1134.44 C 1770.53 1136.48 1770.47 1138.36 1771.15 1140.57 C 1778.89 1165.97 1806.48 1146.6 1823.09 1155.54 C 1824.47 1157.82 1824.58 1157.9 1824.31 1160.54 C 1823.46 1160.91 1823.22 1161.05 1822.38 1161.29 C 1815.23 1163.38 1787.51 1163.77 1780.48 1161.32 C 1776.73 1160.01 1773.41 1156.91 1769.89 1155.03 L 1768.66 1154.38 A 32.2133 32.2133 0 0 1 1756.61 1169.61 C 1763.88 1173.47 1770.46 1181.94 1775.79 1188.11 C 1779.03 1187.24 1782.75 1186.1 1786.1 1186.74 C 1790.67 1187.6 1796.08 1190.62 1798.51 1194.64 C 1800.5 1197.92 1800.81 1202.03 1799.79 1205.7 A 18.4771 18.4771 0 0 1 1790.35 1217.36 C 1786.44 1219.31 1781.92 1219.65 1777.86 1217.95 C 1765.82 1212.9 1769.86 1205.39 1765.74 1196.86 C 1765.58 1196.54 1765.42 1196.23 1765.26 1195.92 C 1761.59 1190.04 1753.6 1183.18 1747.38 1180.21 C 1744.18 1185.13 1733.1 1189.29 1727.6 1191.1 C 1729.99 1192.1 1732.31 1193.47 1734.62 1194.65 C 1738.12 1196.43 1740.8 1197.95 1742.64 1201.59 C 1744.87 1206.02 1745.06 1240.71 1743.13 1245.59 C 1742.27 1247.79 1741.56 1247.69 1739.47 1248.49 C 1731.13 1244.8 1738.2 1213.18 1734.06 1203.62 C 1734 1203.42 1733.96 1203.21 1733.88 1203.03 C 1732.25 1199.56 1726.1 1197.27 1722.76 1195.69 L 1706.8 1197.64 C 1706.97 1197.75 1707.14 1197.86 1707.31 1197.97 C 1711.44 1200.86 1716.67 1204.89 1717.67 1210.05 C 1720.32 1216.62 1720.12 1257.27 1717.46 1263.65 C 1716.61 1265.68 1716.3 1265.91 1714.4 1266.77 C 1707.74 1261.26 1712.06 1224.98 1710.67 1214.7 C 1710.2 1211.16 1709.4 1209.67 1706.59 1207.48 C 1700.15 1205.72 1694.53 1211.91 1689.01 1214.69 L 1688.16 1215.11 C 1686.15 1214.08 1683.33 1213.66 1681.13 1213.11 C 1676.57 1211.96 1666.86 1208.99 1662.72 1211.47 C 1663.82 1223.78 1684.27 1223.83 1691.68 1231.68 C 1691.92 1231.93 1692.14 1232.2 1692.37 1232.46 C 1695.5 1238.64 1694.96 1274.54 1693.28 1282.33 C 1692.7 1285.02 1692.05 1285.86 1689.85 1287.35 L 1687.86 1286.53 C 1680.87 1276.05 1690.02 1249.84 1684.45 1238.32 C 1684.24 1237.89 1684 1237.47 1683.77 1237.04 C 1679.35 1232.16 1668.05 1228.44 1661.73 1226.57 C 1662.11 1227.3 1662.26 1227.51 1662.52 1228.22 C 1664.22 1232.8 1664.65 1249.42 1662.67 1253.77 C 1660.48 1254.96 1660.18 1254.95 1657.68 1254.77 C 1651.16 1247.45 1657.98 1235.58 1654.09 1227.07 C 1653.99 1226.84 1653.87 1226.63 1653.75 1226.4 C 1649.67 1230.54 1639.24 1234.3 1633.74 1236.76 C 1633.94 1237.15 1634.17 1237.52 1634.33 1237.93 C 1635.92 1241.94 1635.83 1280.6 1634.11 1284.47 C 1633.31 1286.26 1632 1286.21 1630.29 1286.73 C 1623.02 1283.41 1629.74 1241.72 1625.87 1232.73 C 1625.79 1232.54 1625.69 1232.36 1625.61 1232.17 C 1629.99 1230.16 1635.69 1227.39 1639.23 1224.14 C 1644.44 1222.3 1649.74 1220.48 1654.53 1217.69 C 1655.46 1215.8 1655.79 1214.81 1655.64 1212.67 C 1655.5 1210.55 1655.26 1210.68 1653.64 1209.28 C 1638.38 1207.25 1622.35 1221.6 1609.35 1227.7 C 1609.08 1227.83 1608.81 1227.94 1608.54 1228.07 C 1609.27 1229.47 1609.82 1230.66 1609.93 1232.26 C 1610.43 1239.63 1612.29 1261.94 1607.8 1266.89 L 1605.28 1266.71 C 1596.08 1258.95 1605.82 1236.14 1601.26 1225.42 C 1601.09 1225.01 1600.89 1224.61 1600.7 1224.2 C 1604.57 1222.28 1610.25 1218.78 1612.41 1215.01 C 1612.33 1214.74 1612.29 1214.46 1612.18 1214.21 C 1610.2 1209.43 1597.64 1199.73 1592.86 1197.47 C 1591.66 1201.04 1585.66 1204.35 1582.51 1206.05 C 1583.72 1208.73 1583.77 1211.54 1583.85 1214.44 C 1584.11 1224.64 1586.75 1246.1 1579.69 1253.61 L 1578.13 1253.19 C 1569.47 1241.22 1579.33 1218.25 1575.1 1204.12 C 1574.96 1203.65 1574.8 1203.18 1574.64 1202.71 C 1579.42 1200.04 1584.27 1195.04 1587.69 1190.77 C 1593.13 1183.97 1624.04 1135.76 1626.57 1128.88 C 1632.51 1131.11 1637.61 1135.44 1643.69 1137.85 C 1647.23 1139.25 1651.17 1140.87 1654.87 1139.27 C 1656.13 1135.88 1655.04 1133.24 1653.99 1129.87 C 1643.58 1126.92 1633.79 1122.33 1623.67 1118.56 C 1623.57 1119.01 1623.53 1119.47 1623.37 1119.9 C 1620.64 1127.11 1561.87 1185.97 1553.5 1190.91 C 1553.95 1191.93 1554.2 1192.8 1554.27 1193.91 C 1554.58 1199.18 1555.37 1206.12 1551.46 1210.28 C 1548.35 1213.58 1543.11 1214.6 1538.75 1214.41 C 1533.29 1214.17 1528.46 1211.71 1524.86 1207.63 C 1522.38 1204.81 1520.75 1201.2 1521.26 1197.38 C 1521.89 1192.59 1526.19 1188.39 1530 1185.76 C 1534.73 1182.48 1539.05 1183.36 1544.34 1184.22 C 1551.83 1178.87 1610.9 1118.27 1611.89 1113.08 C 1610.79 1108.5 1607.35 1105.36 1603.71 1102.59 C 1603.35 1103.74 1602.93 1104.6 1602.14 1105.53 C 1594.56 1114.43 1578.07 1132.05 1567.59 1136.5 C 1563.26 1138.34 1557.57 1138.17 1552.93 1138.44 C 1552.81 1141.01 1551.5 1143.28 1550.42 1145.58 C 1549 1148.58 1548.09 1150.05 1548.66 1153.42 C 1550.12 1156.23 1551.84 1157.81 1554.56 1159.46 C 1554.62 1159.49 1554.69 1159.51 1554.76 1159.53 C 1554.05 1160.15 1553.47 1160.95 1552.64 1161.37 C 1549.78 1162.81 1508.83 1162.64 1503.09 1162.21 C 1498.9 1161.89 1495.75 1161.51 1492.96 1158.23 L 1493.59 1155.73 C 1498.03 1152.08 1530.28 1153.38 1537.8 1153.28 C 1540.89 1149.98 1544.44 1141.33 1544.29 1136.89 C 1539.06 1130.35 1535.38 1123.21 1531.54 1115.82 L 1517.3 1138.98 C 1503.32 1138.91 1486.62 1140.91 1472.95 1138.65 C 1471.64 1138.44 1470.87 1136.68 1470.1 1135.62 C 1470.28 1134.49 1470.1 1133.56 1471.07 1132.81 C 1477.38 1127.95 1504.73 1130.19 1513.6 1130.33 C 1518.48 1123.26 1522.87 1115.7 1527.45 1108.41 L 1524.44 1098.77 C 1527.53 1093.7 1531.01 1088.82 1534.31 1083.89 L 1521.68 1084.13 C 1513.47 1093.58 1507.38 1104.68 1498.87 1113.87 C 1489.81 1114.05 1466.2 1116.8 1459.03 1111.43 C 1459.07 1109.49 1458.87 1108.99 1460.44 1107.62 C 1466.1 1102.67 1487.26 1105.56 1495.09 1105.91 C 1500.03 1098.2 1505.12 1090.68 1511.28 1083.88 C 1505.85 1083.98 1500.05 1084.41 1494.66 1083.77 C 1491.06 1083.35 1486.89 1082.57 1484.57 1079.69 C 1484.92 1079.1 1484.93 1078.99 1485.55 1078.48 C 1491.82 1073.27 1506.12 1074.78 1513.83 1074.91 A 799.241 799.241 0 0 1 1497.09 1053.5 C 1488.13 1053.26 1461.1 1056.02 1455.18 1051.19 C 1455 1049.84 1454.45 1049.01 1455.48 1047.92 C 1461.02 1042.05 1493.37 1044.92 1502.07 1045 C 1507.79 1053.04 1517.44 1070.61 1526.44 1074.43 C 1528.35 1075.24 1528.77 1075.25 1530.58 1074.52 C 1530.29 1069.65 1525.53 1063.77 1523.03 1059.53 C 1525.48 1052.73 1529.82 1046.85 1532.28 1040.1 C 1533.82 1035.88 1534.29 1032.68 1532.35 1028.54 C 1523.57 1020.3 1489.26 1028.3 1475.92 1024.73 C 1474.02 1024.22 1473.23 1022.37 1472.27 1020.78 L 1473 1019.69 C 1482.02 1014.58 1516.47 1016.83 1528.26 1016.84 C 1531.98 1019.31 1536.45 1022.17 1538.49 1026.24 C 1541.54 1024.48 1544.52 1021.36 1545.72 1018.03 C 1545.85 1013.53 1543.14 1004.31 1540.48 1000.73 C 1531.28 1000.77 1502.25 1002.9 1494.63 999.602 C 1492.94 997.356 1493.04 997.447 1493.28 994.635 C 1500.72 987.016 1550.42 997.259 1560.61 990.323 C 1562.17 989.257 1561.78 988.804 1562.04 987.058 C 1559 980.17 1549.82 972.931 1544.35 967.621 C 1542.09 968.679 1539.11 969.704 1536.62 969.955 C 1532.76 970.343 1528.78 969.173 1525.99 966.422 C 1522.58 963.063 1519.88 957.304 1520.27 952.442 C 1520.59 948.48 1522.72 945.093 1525.77 942.634 A 19.5987 19.5987 0 0 1 1540.53 938.518 C 1544.36 939.044 1548.26 940.948 1550.57 944.128 C 1553.72 948.48 1553.68 954.979 1552.76 960.059 C 1559.27 965.477 1571.83 976.087 1576.69 982.676 C 1577.52 981.984 1577.56 981.992 1578.43 981.051 C 1581.29 977.944 1584.51 973.027 1584.17 968.664 C 1581.57 959.91 1573.71 953.594 1572.19 944.439 C 1571.01 937.316 1568.07 914.344 1572.7 908.813 C 1573.78 907.528 1574.35 907.827 1575.91 907.618 C 1577.56 908.754 1577.97 909.072 1578.54 911.114 C 1579.4 914.209 1579.01 918.265 1579.16 921.51 C 1579.61 931.276 1580.34 941.126 1584.25 950.208 C 1586.05 954.402 1590.03 962.277 1594.61 963.781 C 1596.76 964.488 1597.28 963.946 1599.19 963.009 C 1602.78 958.661 1603.64 953.114 1604.55 947.709 C 1605.41 942.624 1606.74 936.436 1606.3 931.289 C 1605.18 918.173 1595.55 905.732 1596.41 892.172 C 1596.63 888.722 1597.85 887.297 1600.44 885.138 C 1601.45 885.058 1602.12 884.684 1602.91 885.489 C 1605.72 888.342 1605.41 894.831 1605.72 898.548 C 1606.7 910.03 1614.29 919.789 1614.87 930.979 C 1615.37 940.604 1611.97 951.181 1611.5 960.991 C 1611.14 968.857 1613.04 976.808 1612.58 984.125 C 1619.38 988.556 1629.21 993.076 1633.98 999.705 C 1639.86 998.074 1647.75 996.69 1652.88 993.493 C 1653.38 992.466 1653.92 991.404 1654.2 990.286 C 1655.8 983.757 1655.94 957.152 1653.21 951.851 C 1650.81 945.375 1639.76 937.706 1634.79 932.568 C 1619.32 916.585 1624.58 889.926 1624.75 869.48 z"/>
<path transform="translate(0,0)" fill="rgb(254,254,254)" d="M 1652.78 1045.49 L 1656.4 1044.93 C 1660.72 1046.21 1665.62 1048.75 1668.48 1052.32 C 1667.03 1056.95 1661 1061.29 1656.93 1063.51 C 1656.78 1063.53 1656.62 1063.57 1656.47 1063.57 C 1653.04 1063.38 1645.21 1053.62 1642.65 1050.9 C 1646.15 1049.36 1649.89 1048.04 1652.78 1045.49 z"/>
<path transform="translate(0,0)" fill="rgb(254,254,254)" d="M 1632.61 1062.5 C 1633.04 1062.61 1633.48 1062.68 1633.89 1062.84 C 1637.03 1064.04 1642.77 1070.9 1643.88 1074.06 C 1642.99 1078.52 1637.16 1084.67 1633.7 1087.52 C 1633.57 1088.64 1633.17 1089.25 1632.64 1090.23 C 1629.18 1088.16 1627.74 1079.03 1624.51 1075.47 C 1628.09 1072.52 1630.69 1066.7 1632.61 1062.5 z"/>
<path transform="translate(0,0)" fill="rgb(254,254,254)" d="M 1662.03 1094.49 C 1667.34 1095.04 1673.59 1102.12 1677.35 1106 C 1679.3 1108.01 1682.76 1111.32 1682.66 1114.08 L 1679.22 1115.5 C 1674.82 1119.14 1666.64 1119.7 1661.21 1120.48 C 1661.42 1120.11 1661.65 1119.76 1661.85 1119.39 C 1664.51 1114.36 1663.45 1099.93 1662.03 1094.49 z"/>
<path transform="translate(0,0)" fill="rgb(254,254,254)" d="M 1688.43 1120.5 C 1689.24 1120.72 1689.21 1120.68 1690.1 1121.11 C 1692.81 1122.4 1695.5 1126.29 1696.54 1129.06 C 1687.8 1133.36 1678.98 1137.95 1669.21 1139.27 C 1666.53 1139.97 1665.97 1140.51 1663.37 1139.32 C 1662.55 1136.8 1662.55 1135.5 1663.12 1132.92 C 1667.57 1126.06 1680.36 1125.64 1687.59 1121.04 C 1687.87 1120.86 1688.15 1120.68 1688.43 1120.5 z"/>
<path transform="translate(0,0)" fill="rgb(254,254,254)" d="M 1794.31 1070.5 C 1796.91 1070.04 1800.37 1069.31 1802.91 1070.23 C 1806.14 1071.4 1809.12 1074.53 1810.37 1077.7 C 1811.31 1080.1 1811.06 1082.81 1809.91 1085.1 C 1808.39 1088.15 1806.27 1089.23 1803.19 1090.36 C 1801.37 1091.53 1798.36 1091.77 1796.24 1091.52 C 1794.58 1091.33 1793.44 1090.48 1792.45 1089.2 C 1789.75 1085.7 1789.94 1080.97 1790.62 1076.83 C 1791.24 1073.08 1791.36 1072.65 1794.31 1070.5 z"/>
<path transform="translate(0,0)" fill="rgb(254,254,254)" d="M 1675.53 1062.49 C 1675.77 1062.48 1676 1062.47 1676.23 1062.47 C 1677.65 1062.5 1679.05 1062.71 1680.06 1063.74 C 1683.55 1067.27 1685.94 1071.71 1685.88 1076.76 C 1686.66 1079.89 1685.97 1084.53 1684.68 1087.51 C 1683.73 1089.73 1682.89 1090.58 1680.76 1091.52 L 1677.59 1089.51 C 1675.84 1084.5 1667.83 1077.07 1663.66 1073.91 C 1667.87 1071.32 1672.89 1066.67 1675.53 1062.49 z"/>
<path transform="translate(0,0)" fill="rgb(254,254,254)" d="M 1652.47 1086.49 L 1653.93 1088.52 C 1654.49 1097.64 1656.24 1111.7 1652.94 1120.22 C 1648.68 1117.63 1642.26 1118.08 1639.6 1113.27 L 1637.86 1112.84 C 1637.4 1113.47 1636.61 1114 1636.01 1114.51 C 1633.99 1114.04 1633.06 1114.09 1631.6 1112.57 C 1636.42 1102.8 1647.86 1096.61 1652.47 1086.49 z"/>
<path transform="translate(0,0)" fill="rgb(254,254,254)" d="M 1714.41 1061.49 L 1717.59 1062.07 C 1722.24 1068.32 1728.27 1073.07 1732.93 1079.01 C 1727.49 1083.77 1723.4 1089.2 1718.35 1094.27 C 1718.35 1094.66 1718.39 1095.04 1718.35 1095.42 C 1718.1 1097.58 1716.52 1099.15 1714.94 1100.4 C 1713.2 1100.09 1713.63 1100.51 1712.71 1099.22 C 1711 1096.85 1711.47 1067.94 1712.01 1063.27 L 1714.41 1061.49 z"/>
<path transform="translate(0,0)" fill="rgb(254,254,254)" d="M 1691.22 1046.49 L 1693.74 1046.9 C 1695.61 1048.77 1696.98 1050.67 1698.25 1052.99 C 1704.56 1064.6 1706 1080.73 1702.19 1093.35 C 1701.14 1096.82 1699.19 1101.34 1695.72 1102.98 C 1693.39 1104.09 1692.61 1103.45 1690.36 1102.73 C 1685.79 1092.88 1696.69 1086.34 1693.97 1075.44 C 1694.27 1074.44 1694.38 1073.65 1694.31 1072.6 C 1693.96 1067.19 1687 1057.3 1682.88 1054.19 C 1686.28 1052.28 1689.11 1049.77 1691.22 1046.49 z"/>
<path transform="translate(0,0)" fill="rgb(254,254,254)" d="M 1652.65 1022.49 C 1654.66 1022.08 1656.8 1021.63 1658.83 1022.15 C 1665.32 1023.81 1681.19 1031.97 1684.26 1037.69 C 1684.18 1037.97 1684.13 1038.27 1684.02 1038.54 C 1682.71 1041.68 1679.55 1043.78 1676.62 1045.25 C 1670.32 1042.1 1664.26 1038.95 1658.39 1035.03 C 1656.64 1034.26 1639.57 1044.12 1635.86 1045.54 C 1635.28 1042.17 1630.03 1037.86 1627.41 1035.94 C 1635.68 1032.37 1645.02 1027.29 1652.65 1022.49 z"/>
<path transform="translate(0,0)" fill="rgb(254,254,254)" d="M 1616.58 1046.48 C 1618.14 1046.44 1619.14 1046.43 1620.58 1047.14 C 1623.14 1048.4 1625.03 1051.31 1625.89 1053.91 C 1625.92 1054.15 1625.99 1054.38 1625.99 1054.62 C 1625.99 1059.05 1617.92 1072.12 1614.53 1075.3 C 1619.22 1081.75 1622.79 1091.51 1624.82 1099.24 C 1624.79 1099.43 1624.81 1099.64 1624.74 1099.83 C 1623.69 1102.55 1621.36 1103.94 1619.07 1105.52 L 1617.93 1105.27 C 1613.65 1100.95 1610.05 1094.95 1607.45 1089.49 C 1596.08 1065.61 1610.35 1066.22 1616.22 1047.68 C 1616.35 1047.28 1616.46 1046.88 1616.58 1046.48 z"/>
<path transform="translate(0,0)" fill="rgb(254,254,254)" d="M 1704.46 1104.49 C 1704.74 1104.47 1705.02 1104.43 1705.31 1104.44 C 1713.7 1104.68 1719.62 1113.04 1724.96 1118.52 C 1735.98 1129.84 1746.98 1133.09 1762.49 1133.32 C 1764.37 1136.24 1764.32 1141.02 1763.67 1144.35 C 1762.54 1150.05 1759.05 1155.7 1754.23 1158.97 C 1753.97 1160.35 1753.19 1161.29 1752.46 1162.47 C 1746.02 1162.72 1708.11 1117.56 1699.69 1110.7 C 1701.91 1108.77 1703.85 1107.48 1704.46 1104.49 z"/>
<path transform="translate(0,0)" fill="rgb(254,254,254)" d="M 1559.84 996.439 C 1563.11 996.004 1567.52 995.028 1570.64 996.42 C 1575.87 998.749 1609.14 1034.04 1611.03 1038.8 C 1610.88 1039.78 1610.94 1039.64 1610.58 1040.77 C 1609.5 1044.22 1607.11 1046.93 1604.02 1048.66 L 1600.76 1047.52 C 1600.47 1046.48 1600.15 1045.89 1599.38 1045.11 C 1591.02 1036.54 1578.5 1024.45 1566.58 1021.38 C 1562.83 1020.41 1558 1020.85 1554.12 1020.87 C 1554.2 1020.51 1554.29 1020.15 1554.35 1019.79 C 1555.21 1014.3 1549.97 1003.4 1546.73 999.004 C 1551.12 998.283 1555.48 997.339 1559.84 996.439 z"/>
<path transform="translate(0,0)" fill="rgb(254,254,254)" d="M 1741.83 996.495 C 1742.84 996.35 1743.7 996.226 1744.73 996.38 C 1749.5 997.097 1756.45 999.755 1759.55 1003.51 C 1760.08 1004.24 1760.13 1004.25 1760.54 1005.22 C 1762.35 1009.46 1761.86 1014.79 1760.08 1018.91 C 1733.09 1020.88 1736.23 1026.68 1722.02 1045.16 C 1719.97 1047.83 1718.37 1050 1715.37 1051.67 C 1713.87 1053.12 1713.04 1053.68 1711.01 1054.18 C 1705.77 1051.08 1704.24 1043.7 1698.54 1039.93 C 1705.59 1036.39 1739.41 1002.59 1741.83 996.495 z"/>
<path transform="translate(0,0)" fill="rgb(254,254,254)" d="M 1702.43 1134.5 L 1704.1 1134.95 C 1709.36 1139.81 1738.75 1168.9 1740.52 1173.35 C 1740.42 1173.56 1740.36 1173.77 1740.24 1173.97 C 1737.56 1178.34 1727.96 1181.51 1723.17 1182.5 C 1722.21 1182.72 1721.24 1182.92 1720.26 1183.03 C 1700.52 1185.41 1696.97 1154.02 1684.23 1144.06 C 1690.68 1142.6 1697.82 1139.3 1702.43 1134.5 z"/>
<path transform="translate(0,0)" fill="rgb(254,254,254)" d="M 1713.51 968.496 C 1723.84 972.313 1721.43 968.383 1727 968.831 C 1727.06 969.357 1727.23 970.831 1727.23 971.251 C 1727.1 977.473 1731.95 981.15 1732.91 987.129 C 1731.63 991.657 1694.87 1027.11 1689.67 1030.11 C 1686.59 1025.61 1678.54 1021.54 1673.55 1019.5 C 1670.12 1015.73 1664.46 1015.57 1661.16 1011.55 C 1660.99 1010.03 1660.76 1008.5 1661.34 1007.04 C 1662.18 1004.92 1662.51 1004.9 1664.48 1004.14 C 1669.66 1005.61 1674.69 1007.03 1679.6 1009.28 C 1681.01 1010.33 1680.57 1009.85 1681.5 1011.04 C 1683.34 1013.38 1685.04 1015.19 1687.52 1016.88 C 1689.62 1018.3 1692.01 1019.85 1694.53 1019.35 C 1695.32 1018.26 1695.33 1017.85 1695.36 1016.49 C 1695.48 1011.93 1691.19 1006.82 1688.2 1003.69 C 1696.23 999.384 1703.95 994.883 1709.02 987.071 C 1711.96 982.544 1714.69 973.795 1713.51 968.496 z"/>
<path transform="translate(0,0)" fill="rgb(254,254,254)" d="M 1599.54 969.501 L 1601.5 970.084 C 1603.14 976.139 1608.35 985.392 1607.74 991.343 C 1613.31 994.086 1620.1 997.471 1624.18 1002.17 C 1624.25 1003.39 1624.37 1003.01 1623.97 1004.04 C 1622.65 1007.51 1621.03 1009.66 1622.3 1013.29 C 1623.2 1013.85 1624.5 1014.99 1625.58 1015.02 C 1631.27 1015.16 1645.3 1003.82 1654.78 1003.11 L 1655.99 1004.48 C 1656.5 1007.48 1656.44 1009.42 1655.56 1012.35 C 1651.26 1014.35 1646.66 1015.63 1642.15 1017.06 C 1637.9 1021.5 1626.93 1026 1621.23 1028.9 C 1619.83 1024.22 1586.95 992.755 1581.04 988.79 C 1587.27 984.636 1587.72 976.953 1592.57 971.682 C 1594.29 971.746 1595.98 971.742 1597.69 971.686 L 1599.54 969.501 z"/>
<path transform="translate(0,0)" fill="rgb(254,254,254)" d="M 1675.32 1146.5 C 1675.84 1146.53 1676.38 1146.53 1676.88 1146.69 C 1680.27 1147.76 1702.18 1186.36 1704.59 1191.67 C 1704.56 1192.75 1704.67 1192.56 1704.32 1193.45 C 1701.97 1199.53 1694.82 1202.52 1689.23 1204.98 C 1686.13 1207.6 1667 1202.96 1662.1 1202.58 C 1662.37 1201.97 1662.8 1201.07 1662.98 1200.39 C 1665.16 1192.35 1665 1155.5 1661.47 1148.51 C 1666.28 1148.22 1670.65 1147.68 1675.32 1146.5 z"/>
<path transform="translate(0,0)" fill="rgb(254,254,254)" d="M 1743.29 1084.5 C 1754.76 1082.84 1767.11 1083.77 1778.65 1084.12 C 1779.44 1085.53 1779.91 1086.6 1780.05 1088.25 C 1781 1099.54 1776.68 1114.51 1768.84 1122.85 C 1765.05 1126.89 1760.95 1126.97 1755.81 1127.06 C 1742.25 1123.21 1731.97 1113.4 1720.67 1105.6 C 1722.55 1103.87 1723.88 1101.33 1725.4 1099.26 C 1730.33 1092.53 1736.05 1088.44 1743.29 1084.5 z"/>
<path transform="translate(0,0)" fill="rgb(254,254,254)" d="M 1750.5 1027.5 C 1754.91 1027.05 1759.17 1026.33 1763.53 1027.42 C 1769.39 1032.12 1772.81 1040.98 1775.29 1047.87 C 1777.57 1054.23 1782.4 1067.07 1779.32 1073.6 C 1770.94 1075.18 1761.3 1074.28 1752.75 1074.24 C 1750.18 1074.25 1747.52 1074.29 1745.02 1073.62 C 1738.87 1072 1732.16 1068.68 1729.06 1062.91 C 1726.81 1058.73 1726.78 1054.3 1728.41 1049.91 C 1732.11 1039.89 1740.89 1031.62 1750.5 1027.5 z"/>
<path transform="translate(0,0)" fill="rgb(254,254,254)" d="M 1578.74 1083.5 L 1592.7 1083.23 C 1595.82 1086.43 1598.68 1090.91 1598.81 1095.5 C 1597.71 1099.54 1590.59 1105.44 1587.55 1108.48 C 1577.2 1118.81 1567.26 1130.04 1551.75 1130.03 L 1549.07 1129.89 C 1543.89 1126.49 1535.7 1106.24 1532.46 1099.6 C 1535.54 1095.28 1541.48 1088.93 1542.35 1083.75 L 1578.74 1083.5 z"/>
<path transform="translate(0,0)" fill="rgb(254,254,254)" d="M 1547.88 1028.42 C 1554.7 1027.17 1561.68 1027.85 1567.99 1030.7 C 1576.21 1034.43 1594.67 1049.43 1597.84 1057.63 C 1598.74 1062 1594.57 1070.42 1592.69 1074.58 L 1580.75 1074.63 L 1541.15 1074.67 C 1541 1070.68 1533.82 1063.34 1531.26 1060.12 C 1535.43 1051 1547.6 1038.15 1547.88 1028.42 z"/>
<path transform="translate(0,0)" fill="rgb(254,254,254)" d="M 1628.11 1141.49 C 1631.28 1140.91 1648.97 1147.6 1653.68 1148.95 C 1655.86 1154.67 1656.93 1195.17 1654.54 1200.72 C 1643.48 1201.89 1633.74 1204.55 1623.38 1208.4 L 1622.03 1209.72 C 1617.53 1209.16 1603.08 1194.4 1597.57 1191.33 C 1600.57 1188.8 1627.47 1145.03 1628.11 1141.49 z"/>
<path transform="translate(0,0)" fill="rgb(1,1,1)" d="M 1649.62 233.495 C 1653.75 232.982 1658.01 232.239 1662.07 233.547 C 1667.19 235.202 1671.68 239.01 1673.99 243.894 C 1676.04 248.218 1676.47 253.319 1674.78 257.835 C 1672.51 263.909 1667.7 267.325 1662.08 269.94 C 1663.49 278.551 1664.19 331.514 1661.03 337.982 L 1714.32 338.104 C 1720.75 333.307 1738.93 297.658 1743.59 288.399 C 1743.91 287.696 1743.11 285.993 1742.83 285.209 C 1742.21 283.477 1741.48 281.755 1741.1 279.947 C 1740.19 275.641 1740.99 269.808 1743.36 266.071 C 1746.1 261.755 1750.33 258.876 1755.39 258.066 C 1760.69 257.216 1766.18 258.774 1770.41 262.035 C 1774.53 265.21 1777.18 269.836 1777.61 275.034 C 1777.98 279.453 1776.78 284.185 1773.82 287.557 C 1768.75 293.351 1761.25 294.112 1754.09 294.54 C 1749.44 304.64 1734.54 330.784 1727.76 338.834 L 1728.59 338.98 C 1742.27 341.462 1755.75 351.15 1763.5 362.633 C 1766.33 366.841 1769.61 373.125 1768.59 378.272 C 1781.25 373.804 1802.02 360.262 1814.18 352.859 C 1815.64 351.04 1815.3 344.279 1816.24 341.51 C 1817.91 336.612 1821.36 333.763 1825.92 331.639 C 1830.41 329.549 1835.48 329.19 1840.06 331.223 C 1844.93 333.386 1848.64 337.63 1850.52 342.579 C 1852.34 347.395 1852.36 353.062 1850.09 357.737 C 1848.32 361.391 1845.02 364.055 1841.21 365.364 C 1833.33 368.064 1827.08 366.332 1819.81 362.926 C 1807.02 370.642 1783.52 385.321 1770.05 389.809 C 1772.12 398.713 1772.76 435.474 1769.56 442.772 C 1793.53 442.913 1817.42 444.755 1841.39 445.122 C 1847.95 440.178 1848.34 434.951 1857.94 433.33 C 1862.46 432.568 1867.2 432.972 1870.98 435.761 C 1875.25 438.903 1877.71 444.032 1878.38 449.203 C 1879.13 454.901 1877.4 460.974 1873.67 465.367 C 1870.77 468.794 1866.97 470.766 1862.44 470.818 C 1852.07 470.937 1847.85 463.965 1841.58 457.465 L 1841.11 456.979 C 1817.92 453.831 1792.88 454.687 1769.44 454.143 C 1769.98 455.001 1769.98 454.933 1770.4 456.044 C 1772.45 461.455 1772.02 502.183 1769.9 507.079 C 1782.83 511.752 1810.33 531.127 1823.75 539.258 C 1827.53 538.125 1829.65 535.565 1834.06 535.36 C 1839.69 535.1 1846.98 536.424 1851.15 540.34 C 1854.11 543.121 1855.31 547.087 1855.36 551.061 A 22.1147 22.1147 0 0 1 1848.51 567.351 C 1845.08 570.558 1840.56 572.71 1835.79 572.435 C 1830.23 572.115 1825.78 568.559 1822.41 564.39 C 1822.12 564.031 1821.84 563.659 1821.55 563.298 C 1818.6 559.586 1818.44 554.468 1817.78 549.899 C 1813.17 543.335 1779.48 524.991 1770.87 521.123 C 1770.59 520.997 1770.31 520.878 1770.02 520.755 C 1770.09 520.971 1770.18 521.181 1770.22 521.402 C 1771.49 527.816 1766.61 538.195 1762.99 543.38 C 1754.17 556.02 1740.97 563.939 1725.92 566.679 C 1734.69 573.629 1748.95 602.676 1755.48 613.521 C 1759.27 613.799 1762.97 614.184 1766.74 614.78 C 1770.15 616.656 1772.8 618.677 1775.15 621.828 C 1777.89 625.481 1779.34 629.689 1778.59 634.258 C 1777.66 639.91 1774.02 645.058 1769.23 648.139 C 1764.38 651.266 1758.26 652.624 1752.63 650.991 C 1748.09 649.672 1744.86 646.515 1742.65 642.418 C 1736.65 631.283 1741.99 629.822 1744.36 620.233 C 1744.42 619.986 1744.45 619.731 1744.49 619.481 C 1741.41 610.535 1719.38 572.29 1712.53 567.049 L 1660.01 567.011 C 1662.45 571.157 1662.65 632.112 1660.98 638.655 C 1661.85 639.309 1662.7 639.967 1663.54 640.661 C 1669.27 645.4 1672.92 651.042 1673.43 658.634 C 1673.77 663.532 1672.33 668.547 1668.86 672.116 C 1664.29 676.823 1659.13 677.679 1652.93 677.886 C 1648.26 677.037 1643.09 673.762 1640.07 670.063 C 1637.86 667.345 1637.37 663.948 1637.68 660.556 C 1638.53 651.166 1643.65 644.04 1650.72 638.19 C 1651.77 627.846 1652.93 574.937 1649.46 567.267 L 1603.03 566.975 C 1602.81 572.645 1575.06 611.147 1569.62 618.288 C 1571.59 620.788 1573.01 623.418 1573.73 626.546 C 1574.88 631.508 1574.92 637.866 1572.05 642.229 C 1569.46 646.159 1565.02 648.347 1560.51 649.208 C 1554.64 650.328 1548.63 649.043 1543.85 645.429 C 1540.16 642.648 1537.24 638.728 1536.66 634.057 C 1536.02 628.921 1538.63 624.378 1541.72 620.508 C 1545.65 615.583 1549.12 613.528 1555.45 612.909 L 1559.33 612.516 C 1566.13 604.707 1587.99 576.491 1589.35 567.325 C 1586.58 565.681 1582.68 565.197 1579.63 563.921 C 1568.16 559.118 1558.73 552.19 1552.41 541.321 C 1549.69 536.646 1548.66 529.275 1545.35 525.333 C 1545.07 525 1544.78 524.681 1544.49 524.354 C 1538.55 529.95 1508.95 543.413 1499.31 548.843 C 1499.13 552.213 1498.78 555.625 1497.51 558.783 C 1495.58 563.538 1491.68 568.42 1486.77 570.273 C 1482.45 571.908 1477.49 571.178 1473.47 569.054 A 20.4737 20.4737 0 0 1 1463.45 556.888 C 1462 552.155 1462.38 546.728 1465.04 542.476 C 1468.92 536.26 1474.59 534.421 1481.26 532.723 C 1485.91 534.099 1489.87 535.848 1494.13 538.15 C 1505.6 532.104 1535.87 519.114 1543.67 511.525 C 1543.9 510.932 1544.2 510.253 1544.36 509.619 C 1546.02 502.84 1545.99 460.251 1543.17 455.257 A 7040.16 7040.16 0 0 1 1470.1 455.652 C 1468.27 458.645 1466.17 461.558 1463.58 463.942 C 1459.83 467.387 1454.81 469.53 1449.68 468.944 C 1444.48 468.35 1439.75 465.021 1436.78 460.814 C 1433.68 456.441 1432.3 450.777 1433.33 445.491 C 1434.23 440.835 1436.81 437.106 1440.81 434.571 C 1444.9 431.974 1450.75 430.444 1455.53 431.686 C 1462.27 433.435 1466.02 438.606 1469.52 444.128 L 1543.06 444.229 C 1543.53 443.53 1543.75 443.249 1544.09 442.399 C 1546.52 436.219 1545.99 400.696 1543.56 394.974 C 1536.49 387.469 1502.04 369.908 1490.38 363.356 A 47.0974 47.0974 0 0 1 1483.07 366.08 C 1478.22 367.43 1472.17 367.15 1467.8 364.446 C 1463.32 361.673 1460.7 356.922 1459.86 351.811 C 1459 346.561 1460.31 340.871 1463.48 336.582 C 1466.24 332.852 1470.24 330.336 1474.89 329.876 C 1479.94 329.377 1486.14 331.259 1489.95 334.643 C 1495.33 339.406 1495.85 346.052 1496.12 352.722 C 1506.91 360.048 1538.22 374.385 1544.61 382.646 C 1547.85 378.938 1549.15 373.572 1551.18 369.1 C 1558.6 352.779 1571.45 346.013 1587.1 339.081 C 1587.22 334.333 1562.8 298.925 1558.06 293.012 C 1552.74 292.268 1547.85 291.481 1543.24 288.451 C 1539.72 286.135 1537.74 283.09 1537.1 278.924 C 1536.21 273.061 1536.84 265.723 1540.64 260.977 C 1543.51 257.399 1547.8 255.647 1552.3 255.334 A 21.0512 21.0512 0 0 1 1568.41 261.365 C 1571.82 264.728 1574.09 268.911 1574.04 273.784 C 1574 278.672 1571.31 284.322 1567.95 287.793 C 1572.42 291.832 1598.25 333.02 1598.63 338.106 C 1615.55 338.317 1632.5 338.107 1649.42 338.084 C 1649.8 337.43 1650.2 336.834 1650.45 336.119 C 1652.49 330.253 1652.15 275.811 1649.78 270.017 C 1649.1 268.433 1647.28 266.996 1646.08 265.82 C 1642.8 262.601 1637.5 255.092 1637.75 250.375 C 1638.08 244.076 1644.96 237.113 1649.62 233.495 z"/>
<path transform="translate(0,0)" fill="rgb(254,254,254)" d="M 1591.9 346.492 C 1611 343.943 1636.78 345.777 1656.58 345.765 C 1677.63 345.753 1704.14 343.878 1724.59 346.395 C 1731.4 347.233 1738.24 348.785 1743.89 352.854 C 1753.71 359.927 1761.89 370.565 1763.73 382.77 C 1766.87 403.557 1764.78 431.512 1764.75 452.993 C 1764.73 475.255 1766.75 499.64 1763.69 521.573 C 1762.69 528.742 1760.84 534.795 1756.47 540.655 C 1749 550.686 1738.38 556.119 1726.21 557.876 C 1707.08 559.287 1686.8 557.996 1667.54 557.964 C 1644.51 557.925 1620.75 559.116 1597.83 557.35 C 1591.8 556.885 1585.2 555.774 1579.69 553.169 C 1569.5 548.352 1560.81 537.994 1557.23 527.381 C 1553.4 516.048 1553.77 407.363 1555.28 390.228 C 1555.86 383.656 1557.19 375.833 1560.34 369.969 C 1567.42 356.805 1578.02 350.761 1591.9 346.492 z"/>
<path transform="translate(0,0)" fill="rgb(1,1,1)" d="M 1672.92 358.5 C 1691.3 358.285 1728.59 353.855 1742.15 366.376 C 1749.34 373.02 1752.88 382.081 1753.17 391.757 C 1754.04 420.604 1753.83 449.766 1753.87 478.639 C 1753.89 492.31 1755.66 509.303 1752.86 522.683 C 1751.74 528.077 1748.71 533.276 1744.85 537.206 C 1740.53 541.62 1734.72 543.662 1728.78 544.781 C 1716.64 547.068 1702.91 545.79 1690.58 545.548 A 1766.86 1766.86 0 0 0 1644.75 545.098 C 1626.03 545.177 1590.8 549.505 1576.97 536.363 C 1568.07 527.901 1566.47 519.194 1566.27 507.3 C 1565.89 485.481 1566.6 463.588 1566.52 441.753 C 1566.46 426.673 1564.35 396.187 1567.29 383.244 C 1568.56 377.633 1572.02 372.097 1576.05 368.012 C 1580.33 363.68 1585.55 361.149 1591.43 359.832 C 1607.33 356.271 1653.84 358.573 1672.92 358.5 z"/>
<path transform="translate(0,0)" fill="rgb(254,254,254)" d="M 1718.13 500.498 C 1721.31 500.309 1724.88 500.728 1727.71 502.229 C 1731.17 504.055 1733.64 507.161 1734.54 510.984 A 11.8027 11.8027 0 0 1 1732.94 520.131 C 1730.32 524.185 1726.76 525.749 1722.19 526.671 C 1719.98 527.011 1717.65 526.949 1715.52 526.219 C 1711.86 524.97 1709.07 522.478 1707.65 518.862 C 1706.27 515.349 1706.41 511.097 1708.06 507.696 C 1710.2 503.31 1713.72 501.901 1718.13 500.498 z"/>
<path transform="translate(0,0)" fill="rgb(1,1,1)" d="M 1717.08 505.496 C 1719 505.273 1721.19 505.199 1723.06 505.771 C 1725.5 506.52 1728.01 508.611 1729.02 510.98 C 1729.92 513.075 1729.9 515.38 1728.8 517.395 C 1727.41 519.948 1724.92 520.867 1722.3 521.636 C 1721.17 521.874 1720.18 521.982 1719.02 521.804 C 1716.38 521.397 1714.02 520.386 1712.54 518.058 C 1711.33 516.153 1711.07 513.868 1711.58 511.69 C 1712.31 508.589 1714.57 507.148 1717.08 505.496 z"/>
<path transform="translate(0,0)" fill="rgb(254,254,254)" d="M 1634.53 463.493 C 1638.31 462.798 1641.89 462.182 1645.58 463.695 C 1649.43 465.272 1652.68 468.884 1654.07 472.781 C 1655.36 476.4 1655.08 480.251 1653.17 483.59 C 1651.01 487.362 1648.24 488.86 1644.19 490.026 C 1643 490.766 1642.21 491.004 1640.8 491.005 C 1636.94 491.007 1634.22 490.405 1631.52 487.559 C 1628.44 484.315 1627.12 479.297 1627.37 474.905 C 1627.68 469.521 1630.7 466.728 1634.53 463.493 z"/>
<path transform="translate(0,0)" fill="rgb(1,1,1)" d="M 1635.79 468.491 C 1638.39 467.935 1640.93 467.369 1643.52 468.312 C 1646.18 469.283 1648.68 471.506 1649.76 474.15 C 1650.6 476.229 1650.5 478.422 1649.54 480.443 C 1648.19 483.267 1646.01 484.199 1643.21 485.202 C 1642.86 485.382 1642.54 485.621 1642.16 485.743 C 1640.68 486.229 1637.82 486.012 1636.47 485.21 C 1634.22 483.866 1633.26 481.301 1632.81 478.833 C 1631.94 474.158 1633.09 472.253 1635.79 468.491 z"/>
<path transform="translate(0,0)" fill="rgb(254,254,254)" d="M 1676.37 463.495 C 1681 462.776 1685.06 462.568 1689.12 465.299 C 1692.37 467.484 1694.77 471.089 1695.4 474.964 C 1695.95 478.419 1695.17 481.748 1693.12 484.584 C 1690.48 488.245 1687.51 489.391 1683.22 490.257 C 1681.71 490.991 1679.65 490.902 1677.99 490.705 C 1674.45 490.281 1671.91 489.096 1669.79 486.167 C 1667.23 482.65 1666.61 477.757 1667.54 473.57 C 1668.65 468.54 1672.33 466.063 1676.37 463.495 z"/>
<path transform="translate(0,0)" fill="rgb(1,1,1)" d="M 1676.77 468.495 C 1679 468.143 1681.39 467.686 1683.62 468.295 C 1686.49 469.082 1689.14 471.536 1690.36 474.229 C 1691.21 476.113 1691.25 478.402 1690.4 480.289 C 1689.04 483.295 1686.78 484.495 1683.79 485.505 C 1683.57 485.595 1683.34 485.711 1683.11 485.775 C 1679.99 486.615 1677.31 485.682 1674.74 483.974 C 1673.09 481.782 1672.42 480.027 1672.36 477.246 C 1672.26 473.204 1674.06 471.277 1676.77 468.495 z"/>
<path transform="translate(0,0)" fill="rgb(254,254,254)" d="M 1634.74 425.494 C 1638.93 424.979 1642.64 424.476 1646.6 426.447 C 1650.02 428.153 1652.86 431.525 1654.04 435.157 A 12.9782 12.9782 0 0 1 1652.86 445.967 C 1650.4 450.021 1646.86 451.566 1642.41 452.506 C 1641.06 452.951 1640.1 453.029 1638.68 452.908 C 1635.02 452.592 1631.58 451.749 1629.21 448.703 C 1626.54 445.256 1626.04 440.112 1626.75 435.936 C 1627.6 430.893 1630.9 428.336 1634.74 425.494 z"/>
<path transform="translate(0,0)" fill="rgb(1,1,1)" d="M 1635.17 430.494 C 1637.78 429.934 1640.42 429.514 1643.03 430.312 C 1645.71 431.131 1648.44 433.634 1649.5 436.224 C 1650.27 438.133 1650.28 440.2 1649.42 442.077 C 1648.06 445.048 1646.11 446.181 1643.2 447.395 C 1642.58 447.769 1642.33 447.972 1641.53 448.122 C 1639.4 448.52 1636.82 448.329 1635.06 447.069 C 1632.64 445.34 1632 442.17 1631.69 439.39 C 1631.27 435.482 1632.89 433.512 1635.17 430.494 z"/>
<path transform="translate(0,0)" fill="rgb(254,254,254)" d="M 1717 463.497 C 1721.01 463.074 1724.4 462.899 1728.07 464.826 A 13.5605 13.5605 0 0 1 1734.84 473.311 A 13.8014 13.8014 0 0 1 1733.16 484.349 C 1730.52 488.493 1726.82 490.142 1722.18 491.088 C 1720.61 491.35 1719.42 491.472 1717.84 491.144 C 1713.82 490.309 1710.37 488.472 1708.32 484.792 C 1706.37 481.307 1706.25 476.729 1707.39 472.961 C 1708.94 467.832 1712.58 465.79 1717 463.497 z"/>
<path transform="translate(0,0)" fill="rgb(1,1,1)" d="M 1717.01 468.497 C 1719.75 468.136 1722.43 467.963 1725.02 469.145 C 1727.51 470.277 1729.65 472.576 1730.49 475.191 A 7.61335 7.61335 0 0 1 1729.8 481.349 C 1728.01 484.387 1725.47 485.38 1722.22 486.259 C 1721.21 486.685 1719.86 486.712 1718.76 486.539 C 1716.7 486.216 1714.67 485.131 1713.42 483.448 C 1711.66 481.092 1711.01 477.609 1711.63 474.76 C 1712.3 471.669 1714.54 470.182 1717.01 468.497 z"/>
<path transform="translate(0,0)" fill="rgb(254,254,254)" d="M 1676.07 387.497 C 1679.98 387.018 1683.43 386.725 1687.07 388.538 C 1690.84 390.423 1693.79 394.259 1694.82 398.334 C 1695.74 401.986 1695.19 405.8 1693.1 408.951 C 1690.63 412.68 1687.42 414.051 1683.18 414.924 C 1681.08 415.077 1678.88 415.283 1676.8 414.863 C 1673.17 414.129 1670.07 412.08 1668.18 408.86 C 1666.27 405.582 1666.11 401.418 1667.1 397.81 C 1668.54 392.519 1671.64 390.174 1676.07 387.497 z"/>
<path transform="translate(0,0)" fill="rgb(1,1,1)" d="M 1675.94 392.495 C 1678.25 392.101 1681.2 391.388 1683.49 392.057 C 1686.24 392.859 1688.69 395.254 1689.78 397.858 C 1690.82 400.324 1690.58 402.849 1689.38 405.209 C 1687.77 408.377 1685.5 409.226 1682.23 410.139 C 1681.79 410.254 1681.36 410.426 1680.91 410.482 C 1678.86 410.734 1675.5 409.984 1673.98 408.511 C 1671.88 406.477 1671.48 403.673 1671.43 400.87 C 1671.37 396.951 1673.34 395.202 1675.94 392.495 z"/>
<path transform="translate(0,0)" fill="rgb(254,254,254)" d="M 1594.56 463.489 C 1599.05 462.737 1603.45 462.307 1607.6 464.565 C 1611.15 466.502 1614.06 470.247 1614.92 474.219 C 1615.64 477.518 1615.12 480.853 1613.29 483.697 C 1610.81 487.539 1607.55 489.211 1603.2 490.12 C 1601.3 491.026 1599.96 491.093 1597.84 490.914 C 1594.36 490.619 1592.14 489.611 1589.96 486.849 C 1587.21 483.366 1586.04 477.932 1586.67 473.582 C 1587.41 468.468 1590.63 466.19 1594.56 463.489 z"/>
<path transform="translate(0,0)" fill="rgb(1,1,1)" d="M 1594.9 468.489 C 1597.37 467.947 1600.09 467.484 1602.58 468.11 C 1605.22 468.771 1608.13 470.917 1609.43 473.317 C 1610.62 475.509 1610.73 477.958 1609.7 480.232 C 1608.42 483.015 1605.9 484.204 1603.2 485.196 C 1602.91 485.368 1602.65 485.608 1602.34 485.712 C 1599.46 486.658 1597.23 485.918 1594.72 484.713 C 1592.81 482.38 1591.97 480.392 1591.58 477.379 C 1591.07 473.48 1592.62 471.511 1594.9 468.489 z"/>
<path transform="translate(0,0)" fill="rgb(254,254,254)" d="M 1716.82 425.497 C 1721.15 425.038 1724.77 424.99 1728.66 427.216 A 14.8196 14.8196 0 0 1 1735.65 436.42 A 12.6189 12.6189 0 0 1 1734.12 446.201 C 1731.49 450.396 1727.86 451.996 1723.18 452.949 C 1721.24 453.161 1719.16 453.11 1717.27 452.594 C 1713.34 451.521 1709.84 449.473 1707.88 445.797 C 1706.12 442.525 1706.08 438.189 1707.18 434.696 C 1708.73 429.759 1712.59 427.785 1716.82 425.497 z"/>
<path transform="translate(0,0)" fill="rgb(1,1,1)" d="M 1715.94 430.496 C 1718.6 430 1721.42 429.343 1724.05 430.316 C 1726.92 431.379 1729.69 433.8 1730.81 436.69 A 7.19921 7.19921 0 0 1 1730.49 442.659 C 1729.06 445.339 1726.97 446.484 1724.23 447.504 C 1723.4 447.731 1722.84 447.916 1722.01 448.041 C 1719.6 448.406 1716.41 447.857 1714.47 446.289 C 1712.28 444.516 1711.73 441.943 1711.6 439.246 C 1711.4 435.226 1713.35 433.366 1715.94 430.496 z"/>
<path transform="translate(0,0)" fill="rgb(254,254,254)" d="M 1593.41 425.491 C 1597.87 424.796 1602.08 424.054 1606.32 426.155 C 1610.25 428.099 1613.51 431.995 1614.59 436.256 C 1615.45 439.639 1614.97 443.08 1613.06 446.021 C 1610.59 449.832 1607.51 451.237 1603.22 452.212 C 1601.62 453.049 1600.14 452.86 1598.41 452.751 C 1594.55 452.507 1592.1 451.855 1589.54 448.736 C 1586.72 445.294 1585.44 439.703 1586.09 435.339 C 1586.8 430.577 1589.88 428.261 1593.41 425.491 z"/>
<path transform="translate(0,0)" fill="rgb(1,1,1)" d="M 1596.28 429.487 C 1598.98 429.348 1601.74 429.076 1604.17 430.48 C 1606.82 432.014 1608.88 434.814 1609.4 437.848 C 1609.81 440.247 1609.1 442.759 1607.58 444.643 C 1605.53 447.183 1603.17 447.639 1600.08 448.095 C 1597.21 447.869 1594.64 446.794 1592.7 444.591 C 1590.82 442.46 1590.35 439.884 1590.7 437.118 C 1591.19 433.261 1593.27 431.639 1596.28 429.487 z"/>
<path transform="translate(0,0)" fill="rgb(254,254,254)" d="M 1633.87 387.495 C 1637.93 386.95 1641.57 386.374 1645.46 388.105 C 1649.5 389.902 1652.78 393.507 1654.1 397.743 C 1655.21 401.322 1654.84 405.122 1652.9 408.342 C 1650.63 412.099 1647.32 413.928 1643.2 415.027 C 1641.78 415.708 1640.89 415.952 1639.27 415.907 C 1635.45 415.8 1632.81 415.206 1630.22 412.315 C 1627.1 408.85 1625.94 403.466 1626.36 398.887 C 1626.85 393.53 1630.04 390.713 1633.87 387.495 z"/>
<path transform="translate(0,0)" fill="rgb(1,1,1)" d="M 1634 392.494 C 1636.62 391.992 1639.43 391.347 1642.08 392.026 C 1645.07 392.793 1648.07 395.247 1649.51 397.969 A 7.08322 7.08322 0 0 1 1649.86 403.808 C 1648.7 406.878 1646.2 408.459 1643.35 409.735 C 1643.1 409.849 1642.87 409.992 1642.62 410.079 C 1639.49 411.151 1636.59 410.404 1633.82 408.879 C 1632.25 407.215 1631.4 405.821 1630.94 403.549 C 1629.95 398.721 1631.27 396.429 1634 392.494 z"/>
<path transform="translate(0,0)" fill="rgb(254,254,254)" d="M 1675.08 425.497 C 1679.01 424.93 1682.58 424.515 1686.3 426.245 C 1690.27 428.09 1693.45 431.605 1694.73 435.814 A 12.3406 12.3406 0 0 1 1693.79 445.433 C 1691.69 449.234 1688.14 451.425 1684.05 452.504 C 1682.28 453.156 1680.58 453.503 1678.68 453.348 C 1674.99 453.048 1671.83 452.203 1669.4 449.282 C 1666.44 445.738 1665.83 440.38 1666.61 435.96 C 1667.52 430.764 1671.05 428.287 1675.08 425.497 z"/>
<path transform="translate(0,0)" fill="rgb(1,1,1)" d="M 1676.11 430.495 C 1678.29 430.168 1680.74 429.666 1682.91 430.285 C 1685.71 431.083 1688.39 433.384 1689.6 436.021 C 1690.57 438.121 1690.64 440.701 1689.62 442.797 C 1688.04 446.025 1685.48 447.168 1682.2 448.127 C 1681.54 448.505 1680.32 448.717 1679.61 448.752 C 1677.68 448.847 1675.6 448.22 1674.22 446.893 C 1671.9 444.66 1671.22 440.778 1671.42 437.698 C 1671.63 434.518 1673.94 432.564 1676.11 430.495 z"/>
<path transform="translate(0,0)" fill="rgb(254,254,254)" d="M 1596.28 387.489 C 1600.65 386.974 1604.91 386.864 1608.77 389.327 A 14.1293 14.1293 0 0 1 1615.14 398.692 A 13.4009 13.4009 0 0 1 1612.45 409.505 C 1609.35 413.391 1605.8 414.469 1601.04 415.022 C 1599.42 415.082 1597.97 415.107 1596.38 414.733 C 1592.59 413.842 1588.97 411.799 1587 408.341 C 1585.09 405.005 1585.13 400.776 1586.34 397.201 C 1588.07 392.076 1591.82 389.897 1596.28 387.489 z"/>
<path transform="translate(0,0)" fill="rgb(1,1,1)" d="M 1595.42 392.489 C 1598.17 392.06 1601.32 391.365 1604 392.411 C 1606.72 393.473 1609.33 395.927 1610.26 398.738 A 7.24427 7.24427 0 0 1 1609.58 404.773 C 1607.9 407.563 1605.35 408.686 1602.34 409.529 C 1601.3 409.82 1601.21 409.897 1599.96 409.939 C 1596.99 410.037 1594.65 409 1592.44 407.141 C 1591.13 404.979 1590.68 403.429 1590.75 400.863 C 1590.86 397.024 1592.79 395.058 1595.42 392.489 z"/>
<path transform="translate(0,0)" fill="rgb(254,254,254)" d="M 1717.61 387.498 C 1722.35 387.464 1726.43 387.505 1730.42 390.501 C 1733.4 392.744 1735.48 396.168 1735.97 399.881 A 12.6516 12.6516 0 0 1 1733.36 409.344 C 1730.25 413.321 1726.32 414.622 1721.49 415.282 C 1719.01 415.748 1715.5 415.106 1713.24 413.964 C 1709.91 412.28 1707.54 408.904 1706.64 405.332 C 1705.68 401.506 1706.03 397.06 1708.12 393.647 C 1710.36 389.977 1713.63 388.613 1717.61 387.498 z"/>
<path transform="translate(0,0)" fill="rgb(1,1,1)" d="M 1715.57 392.496 C 1718.43 392.097 1721.35 391.562 1724.13 392.585 C 1726.98 393.63 1729.71 396.001 1730.87 398.831 A 7.10706 7.10706 0 0 1 1730.62 404.792 C 1729.02 407.96 1726.41 409.048 1723.21 410.118 C 1722.21 410.632 1721.25 410.715 1720.13 410.765 C 1717.86 410.869 1715.63 410.366 1713.99 408.754 C 1711.97 406.77 1711.33 403.507 1711.27 400.785 C 1711.18 396.945 1713.01 395.128 1715.57 392.496 z"/>
<path transform="translate(0,0)" fill="rgb(254,254,254)" d="M 1675.45 500.496 C 1679.57 500.006 1683.31 499.37 1687.22 501.215 A 15.0749 15.0749 0 0 1 1695.23 510.74 A 13.4272 13.4272 0 0 1 1693.52 521.682 C 1691.02 525.544 1687.72 527.404 1683.37 528.504 C 1681.84 529.054 1679.89 529.103 1678.29 528.885 C 1674.54 528.371 1671.85 527.298 1669.59 524.178 C 1666.91 520.464 1666.21 515.039 1667.06 510.606 C 1668.02 505.585 1671.53 503.172 1675.45 500.496 z"/>
<path transform="translate(0,0)" fill="rgb(1,1,1)" d="M 1675.62 505.495 C 1678.24 505.057 1681.72 504.158 1684.25 505.223 C 1687.02 506.387 1689.4 508.866 1690.44 511.684 C 1691.31 514.047 1690.89 516.711 1689.65 518.864 C 1688.12 521.54 1686.21 522.587 1683.36 523.505 C 1682.66 523.843 1682.39 524.029 1681.52 524.114 C 1679.18 524.341 1676.6 523.789 1674.76 522.367 C 1672.34 520.501 1671.87 517.305 1671.66 514.435 C 1671.37 510.438 1673.18 508.483 1675.62 505.495 z"/>
<path transform="translate(0,0)" fill="rgb(254,254,254)" d="M 1635.53 500.494 C 1639.89 499.997 1643.5 499.515 1647.51 501.794 C 1651.34 503.968 1654.15 507.97 1655.08 512.252 A 13.8067 13.8067 0 0 1 1653.1 522.986 C 1650.59 526.719 1647.44 528.094 1643.19 529.016 C 1641.64 529.11 1640.05 529.215 1638.51 529.048 C 1634.78 528.643 1630.91 526.437 1628.69 523.42 C 1626.06 519.838 1625.61 515.176 1626.6 510.914 C 1627.81 505.671 1631.31 503.212 1635.53 500.494 z"/>
<path transform="translate(0,0)" fill="rgb(1,1,1)" d="M 1635.83 505.493 C 1638.58 505.072 1641.61 504.335 1644.26 505.506 C 1647.1 506.757 1649.56 509.22 1650.59 512.166 C 1651.33 514.281 1651.13 516.585 1650.15 518.587 C 1648.66 521.651 1646.31 522.919 1643.21 523.971 C 1642.51 524.187 1642.11 524.343 1641.42 524.448 C 1639.36 524.759 1636.44 524.318 1634.76 523.013 C 1632.25 521.052 1631.61 517.895 1631.47 514.873 C 1631.26 510.621 1633.1 508.544 1635.83 505.493 z"/>
<path transform="translate(0,0)" fill="rgb(254,254,254)" d="M 1597.78 499.495 C 1602.14 499.33 1606.45 500.134 1609.87 502.965 C 1613.01 505.562 1614.87 509.206 1615.25 513.252 A 14.1663 14.1663 0 0 1 1611.78 523.917 C 1608.5 527.654 1604.74 528.604 1599.96 528.988 C 1598.14 528.906 1596.26 528.568 1594.54 527.91 C 1590.88 526.504 1587.78 523.293 1586.37 519.659 A 15.3 15.3 0 0 1 1587.12 507.116 C 1589.48 502.685 1593.14 500.834 1597.78 499.495 z"/>
<path transform="translate(0,0)" fill="rgb(1,1,1)" d="M 1598.51 504.495 C 1600.71 504.493 1602.68 504.545 1604.72 505.47 C 1607.25 506.618 1609.16 508.872 1610.09 511.463 C 1610.96 513.895 1610.75 516.389 1609.55 518.675 C 1607.93 521.772 1605.49 522.786 1602.27 523.651 C 1600.71 523.796 1599.11 523.939 1597.58 523.467 C 1594.74 522.587 1592.62 520.65 1591.48 517.909 A 10.2669 10.2669 0 0 1 1591.85 509.128 C 1593.34 506.274 1595.56 505.337 1598.51 504.495 z"/>
<path transform="translate(0,0)" fill="rgb(1,1,1)" d="M 379.784 242.401 C 401.091 239.872 424.43 244.289 443.955 252.815 C 484.421 270.486 510.721 306.014 526.477 346.06 C 549.16 347.905 569.081 353.478 585.918 369.743 A 81.5692 81.5692 0 0 1 610.951 428.008 A 77.9601 77.9601 0 0 1 588.626 482.647 C 578.354 493.004 564.895 501.211 550.761 504.969 C 530.647 510.318 506.372 507.867 485.641 507.855 L 398.996 507.96 C 398.704 527.303 398.868 546.676 398.811 566.023 A 6579.62 6579.62 0 0 0 496.343 566.051 C 499.889 557.353 505.388 549.493 514.29 545.612 C 520.975 542.698 528.375 543.135 534.989 545.99 C 542.256 549.129 547.899 555.29 550.802 562.602 C 553.742 570.008 553.858 579.117 550.378 586.371 C 547.152 593.097 540.814 597.497 533.844 599.674 C 526.018 602.12 517.694 602.018 510.423 597.891 C 502.152 593.197 498.258 586.16 495.832 577.263 C 463.503 577.116 431.128 577.69 398.799 577.977 C 398.728 586.756 398.892 595.551 398.952 604.331 C 407.049 608.352 413.641 613.134 417.702 621.469 C 421.022 628.283 421.454 636.633 418.762 643.717 C 415.496 652.308 408.867 657.182 400.724 660.621 C 395.027 661.206 389.88 661.691 384.293 659.997 C 377.205 657.849 371.195 653.188 367.821 646.519 A 28.5268 28.5268 0 0 1 366.414 624.5 C 370.039 613.968 377.961 609.349 387.555 604.824 C 387.886 595.794 387.855 586.725 387.962 577.688 A 6636.99 6636.99 0 0 0 285.186 578.041 C 283.082 585.974 280.211 592.095 272.856 596.385 C 265.937 600.42 257.747 602.288 249.913 599.897 C 242.778 597.72 236.913 592.477 233.403 585.968 A 29.0233 29.0233 0 0 1 231.491 562.853 C 233.72 556.245 238.17 550.765 244.496 547.72 C 251.605 544.298 261.346 543.746 268.692 546.733 C 277.581 550.347 281.84 557.656 285.348 566.07 A 6571.32 6571.32 0 0 0 387.096 565.97 L 387.158 507.797 C 354.473 507.137 321.668 507.716 288.97 507.723 C 271.024 507.727 251.293 509.248 233.698 505.615 A 74.0498 74.0498 0 0 1 200.389 489.341 A 80.6729 80.6729 0 0 1 172.431 433.873 A 82.48 82.48 0 0 1 192.221 374.12 C 209.246 354.517 230.76 347.462 255.891 345.746 C 263.134 327.817 273.248 310.106 285.464 295.086 C 309.322 265.751 341.824 246.295 379.784 242.401 z"/>
<path transform="translate(0,0)" fill="rgb(254,254,254)" d="M 253.043 557.134 C 255.428 556.942 257.893 556.718 260.277 557.01 C 264.634 557.543 268.757 560.34 271.199 563.945 C 273.547 567.412 274.235 571.64 273.434 575.72 C 272.181 582.098 268.288 585.562 263.093 588.836 C 260.615 589.005 258.093 589.188 255.631 588.767 C 251.141 588 247.106 585.157 244.675 581.323 A 15.4347 15.4347 0 0 1 242.791 569.018 C 244.374 562.942 247.934 560.13 253.043 557.134 z"/>
<path transform="translate(0,0)" fill="rgb(254,254,254)" d="M 389.183 617.036 C 391.852 616.917 394.429 616.83 397.013 617.628 A 16.6844 16.6844 0 0 1 407.133 626.364 C 409.076 630.371 409.368 634.787 407.815 638.975 C 405.905 644.124 402.182 646.917 397.289 648.991 C 394.809 649.087 392.155 649.282 389.698 648.887 C 385.322 648.183 381.208 645.255 378.8 641.585 C 376.497 638.075 376 633.663 377.114 629.65 C 378.953 623.029 383.514 620.047 389.183 617.036 z"/>
<path transform="translate(0,0)" fill="rgb(254,254,254)" d="M 521.292 556.119 C 523.859 555.978 526.7 555.766 529.209 556.387 C 533.516 557.453 537.424 560.677 539.407 564.619 C 541.513 568.805 541.691 573.751 540.148 578.15 C 537.943 584.437 533.804 587.343 528.03 589.886 C 525.503 589.835 522.76 589.88 520.302 589.249 C 515.934 588.128 511.986 584.896 509.802 580.989 C 507.553 576.963 507.331 572.147 508.809 567.821 C 510.981 561.464 515.55 558.724 521.292 556.119 z"/>
<path transform="translate(0,0)" fill="rgb(254,254,254)" d="M 382.426 254.332 C 402.096 252.046 423.59 256.56 441.317 265.074 C 480.008 283.657 503.008 318.419 516.795 357.619 C 537.926 358.46 557.209 361.537 574.151 375.353 C 588.016 386.661 596.48 403.951 598.048 421.677 A 65.9005 65.9005 0 0 1 582.424 470.326 C 567.615 487.903 549.402 493.743 527.241 495.727 C 527.417 444.155 509.627 388.835 481.718 345.707 C 462.985 316.76 436.586 283.751 401.23 276.166 A 156.642 156.642 0 0 0 393.645 275.29 C 375.01 273.714 356.517 285.487 343.017 297.078 C 323.216 314.078 308.946 334.46 296.365 357.147 C 271.975 401.129 258.881 445.404 254.901 495.559 C 236.364 495.02 219.092 490.775 205.415 477.44 C 192.354 464.706 184.786 446.16 184.776 427.973 A 69.8481 69.8481 0 0 1 205.81 378.001 C 222.604 361.42 242.658 358.009 265.301 358.226 C 271.628 339.05 280.671 321.942 292.843 305.862 C 315.136 276.41 346.095 259.404 382.426 254.332 z"/>
<path transform="translate(0,0)" fill="rgb(254,254,254)" d="M 388.079 287.173 A 38.9484 38.9484 0 0 1 389.876 287.043 C 407.402 286.244 424.792 298.856 437.005 310.112 C 474.139 344.336 500.49 399.326 510.155 448.39 C 513.246 464.079 514.171 479.442 514.754 495.402 A 10764.8 10764.8 0 0 0 396.509 495.344 A 11436.1 11436.1 0 0 0 267.129 495.388 C 270.028 445.227 286.389 397.527 312.038 354.537 C 329.51 325.252 353.598 295.828 388.079 287.173 z"/>
<path transform="translate(0,0)" fill="rgb(1,1,1)" d="M 906.009 233.9 C 910.41 234.117 914.081 234.653 917.43 237.768 C 919.4 239.602 920.557 242.118 920.54 244.825 C 920.511 249.353 917.711 251.884 914.749 254.849 L 914.564 308.897 L 957.746 308.943 C 958.011 290.952 957.915 272.943 957.957 254.949 C 955.391 252.837 953.078 250.619 952.094 247.341 C 951.316 244.749 951.281 241.91 952.75 239.546 C 954.455 236.803 957.778 235.358 960.864 234.908 C 964.514 234.375 968.788 235.055 971.754 237.368 C 973.754 238.927 974.932 241.139 975.039 243.678 C 975.243 248.485 972.299 251.917 969.12 255.115 C 969.787 273.036 969.647 291.049 969.81 308.985 L 1011.04 309.009 C 1011.7 291.055 1011.34 272.97 1011.36 254.999 C 1008.83 252.497 1006.48 249.638 1005.64 246.096 C 1005.07 243.715 1005.21 241.187 1006.63 239.117 C 1008.33 236.648 1011.53 235.421 1014.39 235.067 C 1018.1 234.609 1022.43 235.446 1025.36 237.873 C 1027.31 239.492 1028.46 241.648 1028.5 244.201 C 1028.58 248.932 1025.83 251.875 1022.64 254.979 L 1022.63 308.961 L 1064.33 308.828 C 1064.86 290.75 1064.48 272.547 1064.52 254.456 C 1061.64 252.112 1058.87 249.066 1058.21 245.268 C 1057.8 242.935 1058.57 240.67 1060.15 238.941 C 1062.34 236.559 1066.33 235.61 1069.42 235.492 C 1073.09 235.352 1077.63 236.192 1080.28 238.956 C 1081.63 240.367 1082.31 242.425 1082.18 244.334 C 1081.89 248.913 1078.76 252.254 1075.41 255 C 1076.46 272.908 1075.96 290.995 1075.95 308.931 L 1117.16 309.126 A 1752.97 1752.97 0 0 0 1117.28 254.538 C 1114.88 252.303 1112.45 249.705 1111.53 246.49 C 1110.85 244.136 1110.93 241.676 1112.3 239.573 C 1113.93 237.061 1117.05 235.665 1119.9 235.16 C 1123.47 234.528 1127.72 235.066 1130.69 237.263 C 1132.65 238.707 1133.84 240.834 1133.99 243.265 C 1134.27 248.015 1131.66 251.425 1128.64 254.762 C 1129.25 273.447 1128.97 292.225 1129 310.922 C 1135.72 314.006 1142.01 317.897 1147.36 323.018 C 1159.93 335.034 1163.32 349.027 1163.59 365.873 L 1219.1 366.171 C 1219.31 366.001 1219.53 365.828 1219.75 365.66 C 1220.11 365.381 1220.49 365.113 1220.85 364.831 C 1222.77 363.343 1224.3 362.117 1226.71 361.49 C 1229.66 360.723 1233.23 360.655 1235.84 362.447 C 1238.36 364.179 1239.57 367.098 1239.87 370.073 C 1240.22 373.711 1239.2 377.788 1236.71 380.531 A 8.75359 8.75359 0 0 1 1229.97 383.425 C 1225.42 383.29 1222.69 380.542 1219.77 377.477 C 1200.94 378.23 1182.03 378.23 1163.18 378.531 L 1163.14 420.142 C 1181.64 421.364 1200.53 420.667 1219.07 420.588 C 1220.59 419.117 1222.18 417.494 1224.06 416.492 C 1226.7 415.09 1230.08 414.67 1232.88 415.842 C 1235.75 417.039 1237.8 419.848 1238.73 422.728 C 1239.82 426.076 1239.69 430.188 1237.78 433.227 C 1236.46 435.312 1234.13 436.597 1231.71 436.907 C 1226.07 437.632 1221.94 434.234 1217.74 431.076 C 1199.6 430.869 1181.43 431.197 1163.29 431.279 L 1163.46 473.22 L 1218.48 473.406 C 1218.93 473.088 1219.38 472.782 1219.82 472.449 C 1221.49 471.174 1223.04 469.682 1225.05 468.947 C 1228.04 467.853 1231.98 467.76 1234.78 469.425 C 1237.05 470.777 1238.45 473.076 1239.09 475.601 C 1240 479.224 1239.35 483.49 1237.15 486.544 C 1235.66 488.6 1233.47 489.952 1230.96 490.297 C 1225.85 490.997 1222.1 488.024 1218.38 485.06 L 1163.07 485.063 L 1163.27 528.307 L 1220.12 528.203 C 1221.87 526.39 1223.53 524.681 1225.87 523.657 C 1228.64 522.447 1231.63 522.072 1234.44 523.392 C 1236.93 524.564 1238.53 526.943 1239.37 529.5 C 1240.48 532.924 1240.25 537.166 1238.35 540.279 C 1236.96 542.55 1234.86 544.012 1232.25 544.493 C 1227.22 545.415 1223.64 542.702 1219.82 539.952 C 1201.05 539.512 1182.18 539.902 1163.4 539.936 C 1163.2 544.518 1162.43 549.362 1161.28 553.803 C 1156.54 572.184 1144.8 582.137 1129.04 591.236 C 1127.23 610.204 1128.33 629.814 1128.63 648.854 C 1130.47 650.799 1132.47 652.794 1133.66 655.226 C 1135.58 659.146 1134.43 662.155 1133.1 666.082 C 1131.25 667.82 1129.44 669.356 1127.02 670.234 C 1123.69 671.442 1119.42 671.465 1116.28 669.674 C 1113.42 668.034 1111.57 664.535 1111.02 661.367 C 1110.34 657.474 1112.39 655.185 1114.66 652.282 C 1119.11 646.605 1116.86 604.266 1116.8 594.223 L 1075.07 593.998 A 3447.96 3447.96 0 0 0 1075.31 648.589 C 1075.48 648.814 1075.65 649.036 1075.82 649.262 C 1076.1 649.639 1076.37 650.023 1076.64 650.4 C 1078.19 652.488 1079.61 654.325 1080.34 656.873 C 1081.2 659.896 1081.28 663.444 1079.56 666.196 C 1077.91 668.835 1074.97 670.341 1071.93 670.727 C 1068.17 671.207 1064.24 670.311 1061.37 667.765 C 1059.21 665.857 1058.21 663.597 1058.12 660.728 C 1057.99 656.037 1060.3 653.411 1063.28 650.142 C 1064.03 631.516 1063.71 612.811 1063.71 594.172 L 1022.24 594.098 L 1022.17 649.642 C 1024.57 652.13 1027.18 655.036 1028.08 658.447 C 1028.74 660.94 1028.59 663.688 1027.15 665.891 C 1025.35 668.669 1022.08 670.156 1018.9 670.661 C 1015.37 671.221 1011.2 670.58 1008.37 668.269 A 8.39334 8.39334 0 0 1 1005.32 662.503 C 1004.87 657.707 1007.33 653.422 1010.29 649.905 A 3228.41 3228.41 0 0 0 1010.5 594.16 A 2713.68 2713.68 0 0 0 968.945 594.296 A 3885.07 3885.07 0 0 0 969.102 648.256 C 971.329 650.691 973.676 653.375 974.76 656.531 C 975.71 659.297 975.982 662.75 974.469 665.378 C 972.861 668.169 969.864 669.871 966.778 670.511 C 963.205 671.253 959.101 670.688 956.122 668.482 A 8.87378 8.87378 0 0 1 952.502 662.005 C 952.093 657.185 954.753 653.718 957.487 650.12 C 958.169 631.673 956.887 612.664 956.779 594.146 C 943.443 594.047 930.094 594.214 916.756 594.262 L 916.897 649.609 C 919.777 652.538 921.672 655.223 922.455 659.334 C 922.952 661.944 922.65 664.783 921 666.954 C 919.085 669.475 915.957 670.654 912.906 671.019 C 909.185 671.465 904.894 670.536 902.04 668.005 C 900.074 666.262 898.992 663.947 898.946 661.317 C 898.868 656.762 901.358 653.282 904.257 650.048 A 2162.24 2162.24 0 0 1 904.886 592.677 A 51.4372 51.4372 0 0 1 883.96 580.068 C 871.94 568.115 869.852 555.113 869.862 538.926 L 816.099 538.962 C 813.375 540.984 810.514 542.689 807.065 543.062 C 804.326 543.359 801.513 542.779 799.406 540.919 C 797.286 539.049 796.198 536.146 796.037 533.369 C 795.858 530.278 796.827 526.846 798.939 524.531 C 800.666 522.638 803.125 521.615 805.675 521.584 C 810.379 521.527 813.27 523.925 816.562 526.852 L 869.273 526.828 C 869.78 512.929 869.682 499.051 869.588 485.147 C 859.601 485.111 820.223 483.183 813.428 486.7 C 811.786 487.55 810.048 488.651 808.249 489.121 C 805.852 489.749 802.644 489.289 800.556 487.94 C 798.207 486.423 796.69 483.992 796.169 481.261 C 795.57 478.128 796.064 474.691 797.886 472.036 C 799.418 469.802 801.673 468.365 804.374 468.041 C 808.926 467.495 811.845 469.476 815.162 472.215 L 816.048 472.953 L 869.788 472.91 L 869.887 432.786 C 851.897 432.403 833.858 432.578 815.862 432.488 C 813.988 434.179 811.835 435.901 809.399 436.677 C 806.766 437.517 804.037 437.733 801.532 436.393 C 799.246 435.169 797.779 432.946 797.114 430.485 C 796.23 427.216 796.448 423.71 798.203 420.762 C 799.512 418.562 801.467 417.112 804.012 416.687 C 808.595 415.923 812.179 418.314 815.724 420.783 L 869.754 420.749 A 1522.82 1522.82 0 0 0 869.819 379.367 C 851.594 378.707 833.161 379.22 814.913 379.183 C 812.441 381.692 809.65 383.594 806.058 383.963 C 803.338 384.243 800.749 383.578 798.656 381.774 C 796.377 379.81 795.293 376.707 795.341 373.75 C 795.391 370.653 796.612 367.575 798.911 365.462 C 800.882 363.65 803.743 362.401 806.443 362.46 C 810.54 362.549 812.341 366.542 816.169 366.883 C 833.752 368.45 852.229 367.417 869.917 367.353 C 869.927 359.286 870.352 351.338 872.822 343.602 C 877.783 328.065 888.943 319.086 902.946 311.835 C 903.124 292.78 902.919 273.706 902.886 254.649 C 901.783 253.55 900.728 252.489 899.862 251.186 C 898.146 248.606 897.195 245.669 897.972 242.578 C 899.063 238.244 902.5 236.125 906.009 233.9 z"/>
<path transform="translate(0,0)" fill="rgb(254,254,254)" d="M 918.983 320.238 C 960.452 318.857 1002.36 320.444 1043.88 320.679 C 1067.22 320.811 1091.9 318.78 1115.05 321.066 C 1121.59 321.711 1128.44 323.413 1133.96 327.122 C 1141.54 332.22 1147.91 341.136 1149.66 350.111 C 1151.63 360.276 1150.76 372.157 1150.78 382.51 L 1150.8 434.993 L 1150.89 504.477 C 1150.89 518.239 1151.66 532.543 1150.08 546.224 C 1149.24 553.462 1147.73 559.014 1143.46 565.003 C 1136.73 574.438 1127.55 580.006 1116.25 581.998 L 979.995 582.686 C 958.988 582.714 936.142 584.509 915.395 582.204 C 908.908 581.483 902.829 579.683 897.395 575.988 C 890.256 571.134 885.024 564.481 883.442 555.962 C 880.827 541.891 881.973 526.617 881.97 512.315 L 881.927 442.407 L 881.721 390.266 C 881.642 378.868 881.047 367.151 882.278 355.804 C 883.031 348.859 884.676 343.595 888.692 337.847 C 896.047 327.32 906.677 322.382 918.983 320.238 z"/>
<path transform="translate(0,0)" fill="rgb(1,1,1)" d="M 928.667 336.354 C 962.379 335.177 996.475 336.185 1030.22 336.166 C 1054.11 336.153 1079.36 334.496 1103.12 336.647 C 1107.88 337.077 1111.83 338.036 1116.03 340.412 C 1124.33 345.105 1130.2 352.596 1132.55 361.855 C 1135.51 373.557 1133.69 387.052 1133.64 399.09 L 1133.72 447.716 C 1133.81 473.532 1135.86 507.46 1133.73 532.504 C 1133.21 538.732 1132.11 545.568 1128.7 550.938 C 1123 559.914 1113.37 564.32 1103.33 566.472 C 1067.66 567.743 1031.62 566.343 995.895 566.491 C 976.235 566.572 945.515 568.685 927.185 566.589 A 31.9395 31.9395 0 0 1 912.935 561.446 C 905.727 556.627 899.743 548.126 898.428 539.465 C 896.242 525.074 897.976 490.004 897.952 473.459 L 897.885 405.496 C 897.879 391.693 897.016 377.213 898.86 363.536 C 899.602 358.033 901.631 353.517 904.943 349.078 C 910.969 341.001 919.039 337.871 928.667 336.354 z"/>
<path transform="translate(0,0)" fill="rgb(254,254,254)" d="M 929.383 348.18 C 965.78 346.686 1002.72 347.717 1039.17 347.911 C 1058.21 348.013 1077.8 346.731 1096.73 347.667 C 1100.06 347.832 1103.61 348.31 1106.75 349.441 C 1113.2 351.758 1118.39 356.298 1121.05 362.693 C 1122.17 365.385 1122.55 368.254 1122.68 371.146 C 1123.86 398.368 1122.76 426.088 1122.74 453.367 C 1122.71 477.651 1123.9 502.459 1122.59 526.682 C 1122.32 531.745 1122.09 537.433 1119.97 542.12 C 1116.83 549.021 1111.27 552.606 1104.59 555.375 C 1078.53 557.741 1045.59 555.25 1018.78 555.097 C 989.867 554.932 960.282 556.796 931.472 555.261 C 928.02 555.077 924.599 554.356 921.471 552.845 C 916.747 550.562 912.725 545.968 911.109 540.965 C 909.035 534.545 908.812 389.131 910.281 369.273 C 910.555 365.573 911.042 362.558 912.919 359.29 C 916.594 352.895 922.584 350.002 929.383 348.18 z"/>
<path transform="translate(0,0)" fill="rgb(1,1,1)" d="M 1007.88 364.355 C 1011.41 364.312 1014.95 364.26 1018.48 364.357 C 1023 364.48 1027.61 365.499 1030.72 369.051 C 1035.14 374.095 1034.63 382.527 1034.42 388.827 L 1048.87 393.53 C 1054.88 388.6 1060.3 385.554 1067.68 383.012 A 120.201 120.201 0 0 1 1074.22 387.307 C 1078.73 390.486 1083.46 394.472 1084.21 400.279 C 1085.14 407.529 1079.86 412.994 1075.73 418.266 L 1080.59 433.402 C 1088.13 434.952 1097.59 435.801 1101.96 443.111 C 1105.5 449.015 1104.18 459.306 1102.07 465.602 C 1098.87 475.139 1087.3 472.184 1080.27 476.122 C 1078.29 477.235 1076.92 478.944 1076.3 481.136 C 1074.37 487.993 1080.12 492.994 1082.66 498.734 C 1083.95 501.674 1083.94 504.641 1082.55 507.546 C 1080.27 512.316 1071.92 519.818 1066.78 521.063 C 1060.33 522.629 1051.77 515.717 1046.51 512.598 L 1034.75 517.315 C 1034.53 520.658 1034.41 524.136 1033.81 527.433 C 1032.81 532.936 1029.82 535.532 1025.46 538.51 C 1019.9 539.671 1010.27 540.782 1005.21 537.597 C 998.901 533.626 997.9 525.451 996.324 518.816 C 992.234 515.934 987.911 513.807 983.432 511.61 C 979.16 514.653 974.202 520.559 969.11 522.016 C 966.19 522.851 962.919 521.831 960.347 520.439 C 955.267 517.689 950.179 512.183 948.555 506.618 C 946.714 500.307 950.952 496.031 953.749 490.909 C 955.424 487.842 956.362 484.839 955.213 481.407 C 952.833 474.297 942.25 474.843 936.395 471.393 C 933.415 469.637 932.339 466.595 931.608 463.384 C 930.124 456.857 929.418 444.933 933.524 439.26 C 936.62 434.982 946.279 434.517 951.211 433.748 L 955.833 421.716 C 953.594 416.474 949.466 411.995 947.536 406.753 C 946.22 403.177 947.47 399.372 949.253 396.182 C 951.757 391.704 956.429 387.009 961.483 385.625 C 968.198 383.787 978.45 390.86 984.296 393.975 L 995.077 388.182 C 995.538 382.308 995.375 374.722 998.735 369.714 C 1001.06 366.255 1003.96 365.218 1007.88 364.355 z"/>
<path transform="translate(0,0)" fill="rgb(254,254,254)" d="M 1011.3 380.069 C 1013.24 379.963 1015.6 379.634 1017.46 380.285 C 1022.75 382.138 1019.45 390.419 1021.61 394.791 C 1025.45 402.59 1040.8 406.113 1048.52 408.773 C 1054.76 406.319 1060.25 402.282 1067.13 401.838 L 1067.84 403.422 C 1066.45 409.185 1062.67 414.5 1060.14 419.919 C 1062.51 426.241 1063.57 434.497 1067.12 440.167 C 1071.51 447.177 1078.57 448.362 1086.07 450.031 C 1087.54 452.029 1087.2 453.169 1087.24 455.608 C 1083.85 461.996 1077.49 459.33 1071.71 461.635 C 1066.91 463.548 1061.55 476.876 1060.01 481.991 C 1057.74 489.55 1065.33 495.419 1068.72 501.614 C 1067.57 503.151 1067.33 503.883 1065.33 504.268 C 1060.41 505.215 1051.32 497.94 1047.27 495.349 C 1040.94 498.34 1032.62 501.033 1027.21 505.406 C 1021.15 510.301 1021.08 515.327 1020.55 522.554 C 1017.54 523.309 1015.56 523.984 1012.59 522.838 C 1009.98 520.03 1010.01 515.777 1009.07 512.169 C 1006.45 502.029 993.274 501.073 985.277 496.123 L 984.124 495.4 C 979.854 497.68 975.963 501.589 971.286 502.962 C 968.808 503.689 967.716 503.778 965.55 502.504 C 964.468 496.603 970.422 490.05 973.651 485.369 C 970.193 477.842 966.022 463.77 957.558 461.478 C 954.609 460.679 950.226 460.682 947.674 459.133 C 946.695 458.538 946.326 458.166 946.189 457.038 C 944.551 443.525 958.433 451.118 964.094 443.278 C 969.722 435.482 971.859 424.064 968.416 415.048 C 966.903 411.087 964.622 407.464 963.81 403.274 L 965.239 402.537 C 971.803 403.39 977.529 406.535 983.587 409.076 C 989.184 406.714 995.807 404.557 1000.88 401.243 C 1008.8 396.063 1009.63 388.53 1011.3 380.069 z"/>
<path transform="translate(0,0)" fill="rgb(1,1,1)" d="M 1006.45 407.185 C 1016.06 406.511 1024.89 407.103 1033.66 411.372 A 45.3098 45.3098 0 0 1 1056.74 437.71 C 1060.57 448.859 1060.41 460.888 1055.13 471.536 C 1048.82 484.262 1038.29 491.917 1025.07 496.289 C 1015.2 497.644 1005.69 497.078 996.558 492.787 C 985.876 487.766 978.046 478.523 974.268 467.408 C 970.213 455.479 971.623 441.993 977.346 430.843 C 983.497 418.859 993.77 411.195 1006.45 407.185 z"/>
<path transform="translate(0,0)" fill="rgb(1,1,1)" d="M 361.646 874.409 C 365.556 874.204 369.603 874.354 373.506 874.61 C 408.453 876.905 438.21 894.883 460.6 920.951 C 475.915 913.934 490.635 910.282 507.509 913.191 A 70.2376 70.2376 0 0 1 553.69 942.139 C 565.777 959.565 569.44 980.769 565.848 1001.48 C 575.68 1005.89 584.282 1011.43 592.084 1018.91 C 607.096 1033.32 615.708 1052.62 615.852 1073.52 C 615.992 1093.69 607.699 1114.47 593.462 1128.8 A 72.4437 72.4437 0 0 1 558.877 1148.11 C 540.832 1152.37 519.4 1150.03 500.839 1150.06 L 404.876 1150.38 L 388.206 1209.85 C 396.995 1213.12 404.052 1218.07 409.455 1225.83 A 44.878 44.878 0 0 1 416.491 1259.89 C 413.991 1272.62 406.447 1281.23 396.027 1288.38 C 389.539 1291.59 383.154 1293.94 375.882 1294.55 C 364.193 1295.54 353.114 1291.56 344.331 1283.87 C 335.616 1276.24 330.025 1265.79 329.265 1254.17 C 328.492 1242.35 332.179 1230.11 340.193 1221.28 C 349.305 1211.22 361.514 1207.42 374.691 1206.74 C 381.569 1188.33 386.695 1169.1 392.283 1150.25 L 298.703 1150.21 C 279.83 1150.27 259.043 1152.1 240.493 1148.89 A 82.011 82.011 0 0 1 208.743 1136.14 A 83.8397 83.8397 0 0 1 171.972 1081.01 C 167.762 1059.19 172.872 1034.97 185.455 1016.63 C 200.396 994.852 222.755 985.255 247.868 980.572 C 252.888 955.966 260.522 933.859 277.517 914.666 C 299.157 890.227 329.259 876.368 361.646 874.409 z"/>
<path transform="translate(0,0)" fill="rgb(254,254,254)" d="M 365.127 1220.17 C 372.517 1219.48 379.087 1219.21 385.993 1222.46 A 32.593 32.593 0 0 1 402.929 1240.96 A 30.7422 30.7422 0 0 1 401.537 1264.86 C 397.297 1273.59 390.172 1277.88 381.334 1280.96 C 374.662 1282.35 368.011 1282.08 361.611 1279.64 A 30.3436 30.3436 0 0 1 344.516 1262.96 A 31.6235 31.6235 0 0 1 344.725 1238.07 C 348.817 1228.7 355.828 1223.7 365.127 1220.17 z"/>
<path transform="translate(0,0)" fill="rgb(254,254,254)" d="M 358.644 887.377 A 178.453 178.453 0 0 1 363.295 887.13 C 391.336 886.042 417.263 896.36 437.762 915.36 C 445.272 922.32 451.744 930.275 459.254 937.247 C 470.407 930.357 481.077 924.95 494.472 924.599 C 509.455 924.207 525.325 929.949 536.152 940.401 A 58.3379 58.3379 0 0 1 554.098 987.037 C 553.667 993.199 552.156 999.953 552.464 1006.08 C 552.484 1006.45 552.507 1008.67 552.714 1008.98 C 555.258 1012.74 568.228 1016.7 572.567 1019.19 A 65.4344 65.4344 0 0 1 584.606 1028.27 C 596.448 1039.57 602.883 1057.52 603.126 1073.71 C 603.385 1090.87 596.085 1107.66 584.033 1119.78 A 61.5187 61.5187 0 0 1 556.04 1136.19 C 540.953 1140.13 522.801 1138.25 507.217 1138.22 L 445.5 1138.08 L 311.025 1138.08 C 290.397 1138.1 261.224 1140.34 241.572 1136.67 C 230.537 1134.61 220.131 1129.61 211.26 1122.79 C 195.797 1110.89 186.538 1092.98 184.101 1073.74 C 180.721 1047.05 193.569 1016.44 217.918 1003.37 C 224.105 1000.05 257.454 991.51 258.147 990.547 C 262.086 985.072 261.286 973.329 263.104 966.636 C 266.749 953.21 273.785 939.982 282.359 929.073 C 301.525 904.689 328.097 890.933 358.644 887.377 z"/>
<path transform="translate(0,0)" fill="rgb(1,1,1)" d="M 1024.68 834.177 C 1033.23 833.338 1041.84 835.003 1048.63 840.535 C 1057.79 848.006 1060.11 858.858 1060.98 870.063 A 7282.76 7282.76 0 0 0 1128.67 909.696 C 1146.73 920.334 1164.64 931.433 1183.46 940.692 C 1191.11 937.315 1197.99 935.181 1206.4 936.855 C 1214.33 938.431 1221.18 943.388 1225.63 950.068 C 1230.26 957.025 1232.24 965.691 1230.32 973.909 C 1227.71 985.095 1219.91 991.495 1210.6 997.205 L 1210.23 1139.91 C 1218.53 1144.04 1225.15 1149.14 1228.95 1157.87 C 1232.26 1165.48 1232.13 1174.35 1229.01 1181.99 A 30.2249 30.2249 0 0 1 1212.27 1198.79 C 1202.6 1202.65 1194.18 1200.46 1184.97 1196.54 C 1168.13 1203.72 1151.93 1214.31 1136.04 1223.39 C 1110.8 1237.84 1085.32 1251.99 1060.51 1267.16 C 1059.81 1274.93 1058.77 1281.95 1055.05 1288.92 C 1050.32 1297.79 1043.05 1301.97 1033.68 1304.71 C 1031.31 1304.81 1028.86 1304.85 1026.5 1304.64 C 1018.91 1303.97 1011.29 1299.85 1006.53 1293.99 C 1000.32 1286.35 998.886 1277.34 999.829 1267.82 C 988.927 1262.52 978.857 1255.23 968.308 1249.22 A 3790.18 3790.18 0 0 1 876.711 1195.96 C 867.821 1200.34 859.273 1202.85 849.469 1199.72 A 28.5682 28.5682 0 0 1 832.532 1184.77 C 828.795 1176.98 828.191 1167.67 831.221 1159.54 C 834.72 1150.16 841.159 1145.58 849.929 1141.5 A 13127.8 13127.8 0 0 1 849.85 999.269 C 840.904 994.056 833.346 988.704 829.757 978.572 C 826.832 970.314 827.655 961.098 831.53 953.292 A 31.4834 31.4834 0 0 1 849.932 937.217 C 859.326 934.119 868.385 935.671 876.993 940.115 C 893.367 932.131 909.21 921.28 924.861 911.9 C 949.346 897.224 974.079 882.983 998.396 868.027 C 999.144 861.378 1000.34 854.877 1003.58 848.942 C 1008.29 840.325 1015.68 836.894 1024.68 834.177 z"/>
<path transform="translate(0,0)" fill="rgb(254,254,254)" d="M 1027.99 907.446 C 1037.6 917.135 1050.82 950.139 1057.74 963.74 L 1032.5 963.561 L 1002.67 963.341 C 1009.1 944.299 1020.45 926.291 1027.99 907.446 z"/>
<path transform="translate(0,0)" fill="rgb(254,254,254)" d="M 1000.47 1171.95 A 2408.1 2408.1 0 0 1 1057.74 1171.73 L 1039.04 1213.88 L 1029.45 1235 C 1018.88 1214.58 1009.86 1192.96 1000.47 1171.95 z"/>
<path transform="translate(0,0)" fill="rgb(254,254,254)" d="M 977.955 1120.44 C 990.641 1128.18 1000.71 1135.41 1015.73 1138.42 C 1041.56 1143.6 1060.72 1135.28 1081.66 1121.26 L 1075.43 1135.25 C 1071.77 1143.24 1067.86 1151.13 1064.08 1159.06 L 995.252 1158.94 C 988.625 1146.65 983.52 1133.26 977.955 1120.44 z"/>
<path transform="translate(0,0)" fill="rgb(254,254,254)" d="M 995.714 976.034 C 1017.87 975.374 1040.17 975.818 1062.34 975.749 C 1069.19 988.277 1074.79 1001.59 1080.59 1014.64 C 1073.06 1009.37 1065 1005.12 1056.53 1001.59 A 91.8384 91.8384 0 0 0 1042.73 998.118 C 1018.69 993.775 997.392 1000.77 977.64 1014.36 C 983.443 1001.46 989.318 988.659 995.714 976.034 z"/>
<path transform="translate(0,0)" fill="rgb(254,254,254)" d="M 1105.7 1097.06 C 1114.33 1099.19 1121.52 1099.11 1130.1 1096.9 C 1146.43 1114.31 1161.03 1133.45 1176.32 1151.78 C 1174.67 1154.07 1173.24 1156.59 1171.73 1158.98 L 1150.5 1159.07 L 1077.64 1159.13 C 1086.38 1138.21 1096.26 1117.68 1105.7 1097.06 z"/>
<path transform="translate(0,0)" fill="rgb(254,254,254)" d="M 927.628 1094.68 C 937.745 1098.67 944.555 1099.58 955.355 1097.89 C 962.089 1118.72 972.602 1139.16 981.942 1158.97 L 936.311 1159.08 L 886.81 1158.93 L 881.883 1149.91 A 2882.88 2882.88 0 0 1 927.628 1094.68 z"/>
<path transform="translate(0,0)" fill="rgb(254,254,254)" d="M 892.903 975.804 C 922.364 974.706 952.246 975.484 981.728 975.759 C 973.754 992.431 967.001 1009.72 959.124 1026.46 L 952.407 1038.94 C 942.602 1037.57 935.945 1038.84 926.955 1042.87 C 912.069 1026.62 897.465 1008.48 884.666 990.559 C 888.25 985.827 890.641 981.287 892.903 975.804 z"/>
<path transform="translate(0,0)" fill="rgb(254,254,254)" d="M 1075.45 975.667 C 1106.78 974.647 1138.54 975.38 1169.89 975.895 C 1171.84 980.245 1174.5 984.443 1176.85 988.602 C 1169.41 998.608 1161.07 1007.91 1152.89 1017.31 C 1146.04 1025.18 1138.46 1032.29 1130.94 1039.51 C 1121.83 1036.89 1115.68 1037.1 1106.28 1038.42 A 5210.89 5210.89 0 0 1 1075.45 975.667 z"/>
<path transform="translate(0,0)" fill="rgb(254,254,254)" d="M 874.19 998.169 C 878.376 1000.01 912.53 1044.5 918.675 1051.83 A 103.073 103.073 0 0 0 917.733 1054.38 C 913.793 1065.5 914.042 1074.35 919.088 1084.99 A 878.407 878.407 0 0 1 891.282 1118.91 A 767.787 767.787 0 0 0 871.888 1142.6 L 861.965 1140.07 L 862.011 1001.49 L 874.19 998.169 z"/>
<path transform="translate(0,0)" fill="rgb(254,254,254)" d="M 1186.5 996.589 C 1190.38 996.762 1194.2 997.757 1197.99 998.551 A 7013.13 7013.13 0 0 1 1197.58 1138.77 L 1184.59 1142.88 L 1167.41 1121.58 C 1158.91 1110.62 1149.76 1100.16 1140.77 1089.61 C 1143.51 1085.75 1145.99 1081.26 1147.23 1076.68 C 1150.03 1066.34 1146.91 1057.49 1141.7 1048.58 C 1156.32 1030.99 1172.21 1014.41 1186.5 996.589 z"/>
<path transform="translate(0,0)" fill="rgb(254,254,254)" d="M 1056.3 882.111 C 1069.34 887.786 1081.91 896.372 1094.29 903.436 C 1121.31 918.845 1148.41 934.284 1174.73 950.872 C 1172.79 955.026 1171.25 959.455 1169.58 963.731 L 1159.01 963.791 L 1070.95 963.9 C 1067.86 955.718 1063.18 947.725 1059.32 939.854 A 1031.49 1031.49 0 0 1 1038.37 895.501 C 1046.04 891.827 1051.05 888.864 1056.3 882.111 z"/>
<path transform="translate(0,0)" fill="rgb(254,254,254)" d="M 1002.11 880.8 C 1006.43 882.82 1015.1 892.926 1019.67 896.459 C 1011.33 917.896 999.459 944.472 987.459 963.921 A 4193.36 4193.36 0 0 1 908.597 963.313 L 893.394 963.193 C 891.906 957.685 889.837 953.651 886.72 948.935 C 899.55 940.341 913.441 932.967 926.713 925.034 C 951.752 910.068 976.643 895.045 1002.11 880.8 z"/>
<path transform="translate(0,0)" fill="rgb(254,254,254)" d="M 893.42 1171.51 C 924.804 1171.05 956.425 1170.45 987.796 1171.3 C 991.673 1178.62 994.354 1186.81 997.751 1194.41 C 1005.3 1211.28 1013.14 1227.98 1020.27 1245.04 C 1015.16 1247.56 1011.24 1250.34 1007.15 1254.27 C 1006.58 1255.03 1005.84 1255.28 1005.02 1255.71 C 993.098 1252.58 902.185 1196.98 884.544 1186.32 C 886.931 1181.7 887.255 1176.3 890.155 1172.01 L 893.42 1171.51 z"/>
<path transform="translate(0,0)" fill="rgb(254,254,254)" d="M 1072.37 1171.41 A 5416.47 5416.47 0 0 1 1168.96 1171.33 C 1170.32 1176.88 1172.24 1181.79 1174.59 1186.98 C 1154.93 1200.89 1132.09 1211.97 1111.1 1223.88 C 1092.32 1234.28 1074.07 1246.42 1054.68 1255.57 C 1049.7 1251.24 1044.7 1247.85 1039.01 1244.48 C 1049.29 1220.14 1059.54 1194.5 1072.37 1171.41 z"/>
<path transform="translate(0,0)" fill="rgb(254,254,254)" d="M 1023.08 1008.37 A 66.0829 66.0829 0 0 1 1045.65 1010.32 C 1066.18 1015.85 1081.44 1030.38 1091.79 1048.49 A 61.5562 61.5562 0 0 0 1089.27 1054.54 C 1084.54 1068 1088.36 1077.53 1094.3 1089.72 C 1077.75 1110.05 1064.56 1124.37 1037.24 1127.72 C 1030.7 1128.12 1024.19 1128.04 1017.73 1126.81 C 994.781 1122.48 980.63 1107.76 968.047 1089.29 C 971.603 1084.78 974.321 1080.57 975.492 1074.83 C 977.659 1064.22 973.789 1055.73 968.027 1047.15 C 971.038 1042.1 974.102 1037.09 977.782 1032.49 C 989.441 1017.93 1004.78 1010.52 1023.08 1008.37 z"/>
</svg>