<svg preserveAspectRatio="xMidYMid meet" version="1.1" xmlns="http://www.w3.org/2000/svg" style="display: block;" viewBox="0 0 2048 2048" width="1024" height="1024">
<path transform="translate(0,0)" fill="rgb(246,246,244)" d="M 0 0 L 2048 0 L 2048 2048 L 0 2048 L 0 0 z"/>
<path transform="translate(0,0)" fill="rgb(13,21,63)" d="M 1656.01 921.214 C 1664.08 921.999 1687.39 920.063 1692.88 924.466 C 1692.53 924.941 1692.02 925.348 1691.88 925.92 L 1692.44 926.81 C 1689.16 940.264 1684.01 953.634 1679.8 966.858 C 1667.34 1005.94 1653.56 1044.77 1639.71 1083.38 C 1627.64 1084.26 1615.4 1083.89 1603.29 1083.91 C 1598.83 1073.46 1595.5 1062.29 1591.74 1051.56 A 1808.13 1808.13 0 0 0 1571.48 995.755 C 1562.68 971.422 1551.68 946.706 1544.54 921.95 L 1585.02 921.956 C 1598.02 955.217 1608.45 989.66 1620.43 1023.33 C 1626.86 1006.69 1649.23 928.722 1656.01 921.214 z"/>
<path transform="translate(0,0)" fill="rgb(13,21,63)" d="M 1033.11 916.402 C 1054.57 915.883 1069.66 922.49 1087.62 933.506 C 1083.83 943.812 1081.48 956.286 1076.14 965.801 C 1075.95 966.15 1074.42 968.421 1074.06 968.456 C 1068.35 969.006 1049.63 950.626 1023.61 957.892 A 38.8356 38.8356 0 0 0 999.691 976.844 C 991.946 990.878 991.06 1007.12 996.051 1022.25 C 999.351 1032.26 1005.44 1040.88 1015.22 1045.33 C 1036.51 1055.01 1051.86 1043.82 1071.25 1037 C 1077.35 1040.17 1080.32 1050.03 1083.06 1055.96 L 1088.42 1067.03 C 1076.04 1080.51 1059.75 1088.15 1041.51 1089.7 C 1020.65 1091.46 998.258 1085.86 982.246 1071.98 C 964.646 1056.71 955.346 1035 953.679 1012 C 951.898 987.425 957.988 962.638 974.438 943.862 C 990.362 925.686 1009.4 918.014 1033.11 916.402 z"/>
<path transform="translate(0,0)" fill="rgb(13,21,63)" d="M 695.826 859.304 C 725.603 858.606 755.487 859.092 785.282 859.084 C 801.737 859.079 823.603 856.976 839.544 860.418 C 840.412 861.466 841.023 862.446 841.361 863.785 C 843 870.29 843.094 893.525 839.73 899.066 C 833.21 903.436 794.652 900.981 784.219 900.94 L 784.543 1030.25 C 784.392 1040.24 787.007 1075 781.86 1081.14 C 780.774 1082.44 779.262 1082.66 777.654 1082.82 C 770.513 1083.52 750.326 1084.52 744.829 1079.92 C 741.785 1063.98 743.953 1036.29 744 1018.82 A 8124.47 8124.47 0 0 0 743.541 901.303 C 735.746 901.259 700.149 902.854 695.416 899.142 C 692.224 891.254 693.282 867.681 695.826 859.304 z"/>
<path transform="translate(0,0)" fill="rgb(13,21,63)" d="M 1325.58 917.381 C 1327.37 917.23 1326.86 917.233 1328.74 917.243 C 1343.82 917.324 1357.96 922.003 1368.66 933.105 C 1375.95 940.665 1380.74 950.182 1383.14 960.357 C 1388.07 981.262 1385.37 1005.73 1385.26 1027.22 C 1385.18 1043.78 1385.77 1060.4 1385.33 1076.94 C 1385.23 1080.71 1385.15 1083.19 1382.34 1085.86 C 1374.53 1088.24 1354.18 1088.43 1346.67 1085.49 C 1339.25 1075.15 1348.63 998.676 1342.73 977.269 C 1340.87 970.535 1337.08 964.051 1330.77 960.654 C 1322.79 956.362 1313.07 957.508 1304.82 960.272 L 1303.52 960.721 C 1301.37 962.068 1299.38 963.382 1297.56 965.175 C 1293.16 969.516 1290.82 975.165 1289.46 981.125 C 1287.06 991.584 1287.92 1003.4 1287.93 1014.07 C 1287.94 1034.14 1288.66 1054.31 1288.38 1074.36 C 1288.32 1078.97 1288.34 1082.61 1284.89 1085.96 C 1277.34 1088.12 1264.63 1088.1 1256.74 1086.8 C 1253.55 1086.28 1250.31 1085.18 1248.61 1082.19 C 1246.12 1077.78 1248.26 1044.65 1248.25 1037.23 L 1248.38 955.217 C 1248.35 946.101 1246.12 932.994 1248.37 924.365 C 1248.74 922.953 1248.81 922.303 1250.23 921.668 C 1258.26 918.078 1277.6 918.676 1285.91 921.344 C 1288.01 924.048 1288.13 928.867 1288.66 932.205 C 1300.68 923.399 1310.56 918.944 1325.58 917.381 z"/>
<path transform="translate(0,0)" fill="rgb(13,21,63)" d="M 866.546 918.275 C 882.966 916.295 899.315 919.836 913.172 928.987 C 930.762 940.605 940.054 960.126 943.95 980.303 C 945.605 988.871 949.142 1007.82 942.873 1014.91 C 941.107 1016.9 939.508 1017.38 936.967 1017.71 C 927.075 1019 915.792 1017.99 905.756 1018 A 5179.91 5179.91 0 0 1 837.455 1017.75 C 840.437 1027.16 844.756 1035.95 852.762 1042.1 C 865.775 1052.09 887.279 1051.77 902.064 1045.61 C 908.19 1043.06 913.704 1038.06 920.419 1037.23 C 923.516 1038.78 924.08 1040.16 925.978 1042.99 C 929.288 1051.2 933.236 1059.17 937.009 1067.18 C 925.719 1077.57 910.308 1084.86 895.302 1087.86 C 874.67 1091.99 851.87 1088.86 834.299 1076.87 C 816.88 1064.99 804.697 1044.72 801.024 1024.1 C 796.481 998.602 801.147 969.185 816.259 947.8 C 828.638 930.284 845.858 921.861 866.546 918.275 z"/>
<path transform="translate(0,0)" fill="rgb(246,246,244)" d="M 867.582 957.095 C 875.189 956.445 882.262 956.71 889.329 959.933 C 899.897 964.753 905.482 973.861 909.441 984.281 C 900.935 984.694 892.361 984.613 883.844 984.737 L 839.281 984.912 C 839.648 984.05 840.011 983.185 840.421 982.342 C 846.558 969.762 854.111 961.596 867.582 957.095 z"/>
<path transform="translate(0,0)" fill="rgb(13,21,63)" d="M 1100.77 862.28 C 1109.01 862.082 1130.3 859.702 1137.18 862.938 C 1141.33 875.999 1138.83 916.464 1138.75 932.139 C 1153.93 921.698 1167.87 914.743 1187.01 917.483 A 52.9139 52.9139 0 0 1 1223 939.689 C 1228.76 947.866 1232.07 957.406 1233.74 967.205 C 1236.09 980.972 1236.8 1070.35 1234.53 1084.58 C 1233.32 1085.49 1232.2 1086.19 1230.69 1086.54 C 1224.24 1088.02 1200.92 1088.34 1195.56 1085.25 C 1191.98 1077.96 1194.44 1020.47 1194.5 1008.8 A 1154.13 1154.13 0 0 0 1194.51 992.511 C 1194.42 982.555 1193.15 972.823 1185.44 965.669 C 1179.67 960.309 1171.42 957.972 1163.65 958.47 C 1133.41 960.412 1137.81 997.847 1137.98 1019.04 A 2369.93 2369.93 0 0 0 1138.59 1062.1 C 1138.75 1068.81 1140.52 1080.18 1135.91 1085.49 C 1128.19 1088.53 1107.65 1088.27 1099.65 1086.02 C 1097.77 1084.33 1097.13 1082.53 1096.97 1080.05 C 1096.25 1068.18 1097.16 1055.67 1097.15 1043.71 L 1097.18 958.634 L 1097.08 900.87 C 1097.04 890.617 1096.23 879.597 1097.28 869.434 C 1097.64 865.921 1098.39 864.855 1100.77 862.28 z"/>
<path transform="translate(0,0)" fill="rgb(13,21,63)" d="M 1473.59 916.428 C 1493 915.918 1511.98 921.685 1526.76 934.506 C 1544.42 949.816 1554.62 972.831 1556.08 995.963 C 1557.61 1020.1 1550.87 1044.93 1534.62 1063.21 C 1519.08 1080.71 1500.58 1088.96 1477.45 1090.32 C 1457.4 1090.49 1439.2 1084.18 1423.81 1071.22 C 1406.23 1056.41 1396.36 1034.8 1394.67 1012.06 C 1392.76 986.432 1398.61 961.746 1415.85 942.151 C 1431.41 924.47 1450.67 917.924 1473.59 916.428 z"/>
<path transform="translate(0,0)" fill="rgb(246,246,244)" d="M 1467.87 958.201 C 1476.75 957.337 1485.39 958.244 1493.45 962.33 C 1503.95 967.654 1511.38 977.316 1514.65 988.541 A 51.4159 51.4159 0 0 1 1509.92 1027.69 C 1503.72 1038.45 1494.58 1044.46 1482.86 1047.8 C 1473.96 1049.32 1465.93 1048.56 1457.74 1044.45 C 1447.18 1039.14 1439.54 1029.86 1435.99 1018.62 C 1432.03 1006.07 1432.68 990.698 1439.1 979.053 C 1445.53 967.371 1455.4 961.581 1467.87 958.201 z"/>
<path transform="translate(0,0)" fill="rgb(13,21,63)" d="M 1760.61 918.444 C 1779.71 918.525 1792.77 923.462 1808.64 933.847 C 1808.98 931.23 1809.23 927.023 1810.88 924.87 C 1815.89 918.325 1836.94 921.265 1844.95 921.395 C 1847.34 946.608 1845.67 973.378 1845.67 998.787 C 1845.67 1027.19 1847.15 1056.57 1845.1 1084.85 C 1834.18 1085.43 1820.98 1086.66 1810.38 1084.25 C 1808.33 1081.78 1808.43 1077.51 1808.01 1074.29 C 1801.38 1079.31 1794.76 1083 1787.19 1086.37 C 1780.76 1088.25 1774.26 1089.78 1767.58 1090.35 C 1747.96 1092.01 1729.07 1086.23 1714.05 1073.45 A 88.6166 88.6166 0 0 1 1682.92 1011.81 C 1681.25 987.632 1688.55 961.77 1704.89 943.53 C 1720.14 926.504 1738.17 919.686 1760.61 918.444 z"/>
<path transform="translate(0,0)" fill="rgb(246,246,244)" d="M 1759.77 959.226 C 1768.27 958.515 1776.43 959.646 1784.04 963.727 C 1794.12 969.138 1801.25 979.076 1804.28 989.994 A 49.5318 49.5318 0 0 1 1799.17 1028.67 C 1792.44 1039.82 1783.39 1045.19 1771.17 1048.43 C 1762.31 1049.62 1753.71 1048.26 1745.92 1043.73 C 1735.65 1037.76 1728.78 1027.33 1725.82 1015.97 A 47.879 47.879 0 0 1 1730.92 978.987 C 1737.78 967.721 1747.19 962.008 1759.77 959.226 z"/>
<path transform="translate(0,0)" fill="rgb(13,21,63)" d="M 762.119 626.888 C 769.444 625.248 822.947 619.022 827.456 621.217 C 832.318 623.585 844.596 684.194 846.741 692.759 C 862.609 694.367 877.945 697.497 892.885 703.113 C 901.972 690.154 927.088 648.143 937.083 641.033 C 946.283 641.503 990.486 666.393 997.407 673.454 A 5830.93 5830.93 0 0 0 972.238 744.141 C 979.413 751.036 995.638 763.49 997.075 773.251 C 995.612 776.313 994.239 776.568 991.333 778.192 C 981.495 778.811 971.212 787.026 961.915 790.27 C 959.671 792.555 958.16 794.274 954.942 795.128 C 952.837 794.949 951.361 794.689 949.555 793.539 C 945.294 790.826 941.714 786.715 937.802 783.503 C 931.298 778.164 923.623 773.716 916.306 769.607 A 200.317 200.317 0 0 0 688.553 789.724 C 645.911 825.351 616.184 877.138 611.42 932.904 C 610.508 943.572 610.677 954.198 611.206 964.879 C 619.848 969.691 631.152 975.125 634.321 985.316 C 636.385 991.954 634.448 999.172 631.144 1005.05 C 628.29 1010.13 624.371 1014.41 619.363 1017.42 C 620.438 1026.52 623.973 1035.22 627.486 1043.62 A 208.885 208.885 0 0 0 691.216 1128.22 C 736.809 1164 793.146 1179.02 850.568 1172 C 888.454 1167.37 922.957 1152.1 954.374 1130.92 L 965.033 1137.33 C 970.392 1138.85 985.081 1149.97 988.787 1148.67 C 991.983 1151.09 993.257 1152.52 993.852 1156.46 C 991.628 1164.11 980.389 1170.08 974.173 1174.77 C 978.732 1191.01 995.866 1238.53 995.176 1251.54 C 988.901 1259.24 944.629 1278.76 933.316 1282.09 C 919.281 1267.29 900.567 1235.56 889.341 1217.38 C 875.585 1220.99 861.661 1222.95 847.581 1224.74 C 845.073 1237.03 832.973 1291.67 826.314 1298.33 C 815.321 1301.52 772.203 1296.38 760.009 1292.47 C 756.568 1267.77 754.326 1242.66 751.673 1217.84 C 736.021 1214.64 721.742 1208.34 707.503 1201.34 C 697.258 1216.93 673.327 1247.07 659.796 1259.36 C 646.363 1253.26 617.741 1232.96 606.335 1223.01 C 610.931 1203.13 622.74 1175.64 630.218 1155.93 C 618.987 1143.94 608.281 1133.29 599.022 1119.59 C 574.173 1125.77 548.735 1129.91 523.568 1134.6 C 516.47 1124.05 499.395 1078.55 497.142 1066.04 C 504.494 1059.16 513.655 1053.72 521.948 1047.98 A 2608.76 2608.76 0 0 0 557.017 1023.12 C 553.43 1012.45 551.114 1001.54 549.221 990.458 C 519.385 986.002 489.284 976.092 460.149 968.303 C 452.5 974.354 438.016 991.195 428.415 991.593 C 418.611 984.042 401.798 952.209 394.147 939.871 A 1078 1078 0 0 0 382.831 967.049 C 389.371 1002.25 385.58 1015.71 376.624 1049.95 C 400.182 1086.75 438.544 1149.68 449.06 1190.95 C 456.598 1220.54 459.962 1256.47 465.901 1287.41 A 4282.79 4282.79 0 0 0 478.174 1347.62 C 480.704 1359.52 483.855 1371.45 485.44 1383.51 C 491.351 1385.99 497.485 1388.69 503.115 1391.77 C 512.542 1396.91 521.651 1404.18 524.508 1414.99 C 525.321 1418.07 525.932 1421.21 524.235 1424.07 C 511.999 1433.75 476.076 1434.18 460.882 1433.71 C 452.731 1433.45 430.296 1433.02 425.108 1425.64 C 420.461 1419.04 425.221 1403.71 426.728 1396.21 C 412.289 1359.44 401.325 1319.99 389.712 1282.23 C 384.43 1265.05 380.409 1245.2 371.951 1229.38 C 363.021 1212.68 349.73 1197.86 337.994 1183.11 A 3904.52 3904.52 0 0 1 304.274 1139.43 C 297.51 1130.57 271.275 1092.08 266.279 1088.37 C 265.069 1087.47 264.467 1087.96 263.096 1088.19 L 262.301 1090.27 C 265.084 1103.47 316.762 1166.49 329.043 1180.94 C 325.367 1201.59 321.367 1222.96 314.286 1242.73 C 306.807 1263.61 294.905 1283.49 284.913 1303.26 A 7121.84 7121.84 0 0 0 242.194 1390.7 C 252.243 1395.51 262.6 1400.84 270.633 1408.71 C 273.541 1411.55 277.243 1415.95 276.78 1420.33 C 276.558 1422.44 275.467 1424.09 273.929 1425.47 C 262.298 1435.96 223.036 1434.43 208.216 1433.31 C 198.062 1432.54 182.852 1431.66 175.792 1423.49 C 172.03 1413.43 182.491 1389.88 185.693 1379.8 C 194.715 1351.4 202.669 1322.92 212.867 1294.88 C 221.771 1270.4 242.937 1226.78 246.04 1203.46 C 248.035 1188.46 247.152 1172.7 246.806 1157.61 C 245.517 1101.29 235.327 1029.96 254.926 976.379 C 253.487 971.573 251.723 966.553 251.511 961.511 C 251.178 953.603 252.926 945.105 256.323 937.952 C 260.767 928.594 267.164 919.886 272.789 911.195 A 3463.97 3463.97 0 0 0 297.515 872.401 C 311.485 850.243 329.661 813.658 346.779 795.925 C 362.612 779.522 378.318 776.289 400.253 775.949 L 406.801 761.994 C 403.583 755.901 401.711 749.01 399.568 742.475 C 393.914 738.09 386.634 733.304 384.729 725.981 C 383.737 722.168 384.257 718.401 386.233 715.026 C 387.208 713.361 387.877 712.204 388.289 710.27 C 387.856 707.735 387.507 706.2 386.022 704.069 C 384.829 702.355 383.964 700.847 383.096 698.948 C 383.302 693.372 389.75 688.167 393.477 684.424 C 393.701 679.011 393.423 673.175 397.41 668.949 C 402.746 663.293 412.864 664.132 419.993 663.869 C 436.145 635.304 439.449 660.983 456.217 655.878 C 462.64 653.923 465.778 645.705 471.627 644.571 C 477.435 643.446 482.435 647.689 486.889 650.757 C 489.023 649.787 491.178 648.777 493.394 648.009 C 496.447 646.952 500.965 646.235 503.752 648.356 C 507.621 651.301 509.378 657.547 512.804 661.166 C 518.397 667.077 532.232 671.873 532.998 681.015 C 533.586 688.033 527.56 694.769 523.239 699.615 C 524.531 704.834 526.36 710.501 523.911 715.685 C 521.095 721.645 514.616 723.681 508.856 725.672 L 504.019 739.361 L 504.785 741.093 C 506.759 745.658 509.505 751.885 507.158 756.807 C 505.695 759.873 502.903 762.407 501.098 765.331 C 494.536 775.959 488.374 789.635 475.777 794.217 C 466.11 797.733 457.614 794.122 448.79 790.281 A 727.024 727.024 0 0 1 437.008 818.938 A 1075.3 1075.3 0 0 1 506.258 926.131 A 1098.72 1098.72 0 0 0 550.783 922.122 C 551.688 913.313 552.901 904.72 554.603 896.028 C 534.985 881.395 513.407 868.426 492.887 855.042 C 496.079 843.899 518.586 795.01 525.721 788.046 C 536.949 785.722 582.678 799.816 596.292 804.039 C 606.799 789.665 617.608 776.484 630.406 764.097 C 619.783 742.234 609.975 719.282 601.767 696.393 C 617.34 684.279 640.099 670.272 658.024 661.935 C 673.778 675.451 693.273 698.635 706.693 715.094 C 721.629 707.674 736.201 701.981 752.612 698.812 C 757.109 675.102 756.849 650.462 762.119 626.888 z"/>
<path transform="translate(0,0)" fill="rgb(246,246,244)" d="M 376.255 1004.64 C 377.049 1005.3 377.364 1005.4 377.783 1006.38 C 381.21 1014.34 373.547 1033.18 370.39 1040.91 C 369.649 1038.97 368.888 1036.95 368.669 1034.86 C 367.936 1027.86 371.953 1010.18 376.255 1004.64 z"/>
<path transform="translate(0,0)" fill="rgb(246,246,244)" d="M 192.04 1392.5 C 192.125 1392.57 192.219 1392.64 192.293 1392.72 C 193.756 1394.38 195.124 1396.15 196.683 1397.73 C 203.644 1404.75 219.321 1402 228.473 1401.94 C 230.682 1404.56 232.443 1406.79 233.822 1409.94 L 232.999 1411.62 C 221.629 1411.07 203.52 1412.31 193.737 1406.45 C 191.406 1405.06 189.764 1403.17 189.288 1400.41 C 188.707 1397.05 190.347 1395.1 192.04 1392.5 z"/>
<path transform="translate(0,0)" fill="rgb(246,246,244)" d="M 438.12 1393.44 C 444.906 1394.7 446.692 1401.53 454.28 1402.01 C 461.994 1402.51 470.657 1396.11 477.534 1397.78 C 482.326 1398.94 484.527 1402.34 487.325 1406.07 L 486.636 1407.42 C 481.497 1408.53 476.098 1408.48 470.857 1408.7 C 461.971 1409.07 448.168 1410.65 441.357 1403.74 C 438.455 1400.8 438.034 1397.38 438.12 1393.44 z"/>
<path transform="translate(0,0)" fill="rgb(246,246,244)" d="M 290.743 1258.58 L 293.18 1260.25 L 293.479 1262.42 C 286.671 1276.73 230.315 1323.72 215.438 1332.76 C 213.452 1331.34 213.076 1331.18 212.203 1328.94 C 214.936 1324.81 220.764 1321.31 224.803 1318.23 C 248.555 1300.14 269.4 1279.34 290.743 1258.58 z"/>
<path transform="translate(0,0)" fill="rgb(246,246,244)" d="M 421.874 760.552 C 423.522 761.484 423.442 762.074 424.098 763.912 C 427.52 773.508 432.723 779.763 439.556 787.233 C 437.087 794.295 434.832 801.563 431.686 808.348 L 430.369 808.394 C 423.177 799.298 415.936 790.554 409.788 780.683 C 413.413 773.773 417.762 767.186 421.874 760.552 z"/>
<path transform="translate(0,0)" fill="rgb(246,246,244)" d="M 484.042 929.037 C 496.532 935.583 508.502 944.1 520.503 951.579 C 534.763 960.466 549.502 968.756 563.395 978.197 L 563.759 980.795 L 562.206 982.294 C 558.345 983.094 554.48 981.7 550.73 980.783 C 522.179 974.929 494.181 966.033 465.837 959.165 C 472.889 949.588 478.563 939.558 484.042 929.037 z"/>
<path transform="translate(0,0)" fill="rgb(161,183,214)" d="M 322.94 898.905 L 324.171 899.18 C 325.901 902.468 325.169 907.4 325.008 911.146 C 324.239 928.952 316.79 944.774 303.508 956.702 C 297.269 962.306 277.081 976.081 269.3 975.666 C 266.555 973.361 265.263 969.982 263.718 966.824 C 275.07 958.088 292.377 952.602 300.059 940.267 L 299.748 939.013 C 291.22 938.505 277.37 948.259 270.286 952.554 L 259.34 960.553 C 260.969 956.419 262.776 952.586 264.936 948.703 C 281.993 938.201 299.282 929.68 313.86 915.663 C 297.79 921.983 282.33 927.238 267.631 936.551 C 270.124 931.996 272.39 926.675 275.923 922.843 C 286.051 911.861 309.035 905.527 322.94 898.905 z"/>
<path transform="translate(0,0)" fill="rgb(246,246,244)" d="M 282.515 1007.37 C 283.451 1007.74 284.02 1007.9 284.873 1008.57 C 290.158 1012.71 318.381 1055.94 326.526 1065.99 C 353.877 1099.71 389.967 1134.37 411.974 1171.14 C 424.999 1192.91 428.287 1218.08 433.608 1242.49 A 2069.28 2069.28 0 0 0 447.384 1303.16 A 1461 1461 0 0 0 458.222 1345.47 C 461.126 1355.9 464.787 1366.49 466.797 1377.1 L 461.478 1377.2 C 452.623 1370.07 424.426 1216.39 414.895 1190.36 C 403.911 1160.36 357.524 1112.58 335.868 1086.84 C 319.814 1067.77 304.244 1047.8 290.438 1027.02 C 286.621 1021.28 281.072 1014.54 282.515 1007.37 z"/>
<path transform="translate(0,0)" fill="rgb(246,246,244)" d="M 468.258 705.285 A 268.151 268.151 0 0 1 473.858 706.728 C 481.463 708.78 493.086 710.867 497.056 718.528 C 501.078 726.289 496.638 736.168 494.26 743.745 C 494.908 745.823 495.578 747.902 496.156 750 C 496.38 750.811 497.308 753.841 497.227 754.508 C 497.121 755.386 488.732 768.463 487.66 770.341 C 483.926 776.884 479.079 784.675 471.212 786.492 C 463.487 788.277 456.903 783.99 450.555 780.252 C 447.088 777.94 443.4 775.084 440.549 772.017 C 435.953 767.074 430.526 758.278 431.297 751.207 C 432.223 742.72 437.705 746.297 442.529 742.338 C 443.16 735.344 432.617 728.711 432.389 720.707 C 432.316 718.116 432.778 717.729 434.418 715.962 C 437.182 714.962 438.738 714.961 441.588 715.188 L 443.011 717.06 C 442.983 720.802 442.739 724.014 444.327 727.469 L 445.58 727.682 C 449.223 724.789 450.648 720.178 451.636 715.823 C 451.728 715.417 451.812 715.009 451.899 714.602 C 456.928 710.83 462.689 708.158 468.258 705.285 z"/>
<path transform="translate(0,0)" fill="rgb(161,183,214)" d="M 381.203 788.317 C 385.035 787.988 388.992 788.187 392.842 788.187 L 403.716 795.026 C 395.269 793.643 387.058 793.849 379.061 797.217 C 368.276 801.76 359.689 811.276 355.499 822.115 C 342.418 855.947 366.3 893.567 379.226 923.632 C 370.402 946.293 366.709 969.895 363.13 993.812 C 341.908 997.76 309.079 998.363 288.802 992.054 C 283.496 990.403 278.633 987.548 273.792 984.872 C 279.851 982.839 286.121 981.25 292.271 979.504 C 308.481 974.092 324.418 969.044 339.623 961.12 A 585.82 585.82 0 0 1 310.654 965.516 C 314.594 961.114 318.424 956.366 321.729 951.471 C 332.26 935.875 335.852 918.393 332.252 899.897 C 331.38 895.414 330.914 891.908 326.967 889.219 C 314.276 891.763 300.679 898.536 288.507 903.22 C 298.889 885.356 311.128 868.386 322.038 850.816 C 330.241 837.603 337.11 823.248 346.292 810.696 C 355.764 797.749 364.989 790.751 381.203 788.317 z"/>
<path transform="translate(0,0)" fill="rgb(161,183,214)" d="M 387.242 805.142 C 394.483 804.561 402.207 804.309 409.162 806.648 C 441.969 817.682 431.301 873.564 445.44 900.952 L 446.078 902.16 C 456.445 908.342 466.481 913.946 475.041 922.616 C 468.141 946.868 451.548 964.56 431.248 978.922 L 423.877 966.595 A 615.321 615.321 0 0 0 446.122 940.835 C 436.197 945.911 427.899 951.834 419.271 958.899 L 401.895 931.544 L 399.684 927.512 C 401.16 925.33 434.465 902.572 440.074 897.685 C 422.871 901.641 410.156 911.917 393.963 917.257 C 391.486 916.597 391.601 916.391 390.14 914.236 C 394.115 907.439 422.178 895.017 430.982 886.952 C 433.686 884.474 435.964 882.319 436.064 878.539 L 434.373 877.165 C 421.656 875.5 391.787 892.738 381.297 900.293 C 377.02 891.683 372.733 883.062 369.157 874.13 C 363.282 859.453 357.945 839.125 364.873 824.021 C 369.349 814.264 377.64 808.979 387.242 805.142 z"/>
<path transform="translate(0,0)" fill="rgb(13,21,63)" d="M 424.992 843.196 L 429.949 843.303 C 429.595 844.952 385.942 869.05 381.123 872.183 C 379.818 871.339 378.694 869.988 377.605 868.897 C 377.236 867.48 376.622 866.713 377.409 865.343 C 382.317 856.801 414.933 845.325 424.992 843.196 z"/>
<path transform="translate(0,0)" fill="rgb(158,243,224)" d="M 560.445 991.976 C 565.944 993.859 571.564 995.636 576.653 998.483 C 585.935 1003.68 594.729 1012.12 605.108 1014.8 C 616.711 1048.94 629.176 1078.72 652.517 1106.82 C 690.068 1152.04 744.548 1178.93 802.795 1184.26 C 857.998 1189.32 921.822 1173.08 965.033 1137.33 C 970.392 1138.85 985.081 1149.97 988.787 1148.67 C 979.286 1155.03 970.36 1163.53 961.51 1170.83 A 2123.13 2123.13 0 0 0 983.262 1246.47 A 3943.7 3943.7 0 0 1 937.09 1269.19 A 7426.64 7426.64 0 0 1 894.816 1204.33 C 876.416 1209.39 858.08 1211.47 839.277 1214.14 C 832.161 1238.57 826.035 1263.43 819.993 1288.14 L 770.927 1283.9 C 767.339 1258.91 764.593 1233.81 761.309 1208.77 C 741.461 1204.07 723.129 1196.02 704.577 1187.77 C 689.601 1207.23 674.203 1226.3 657.395 1244.21 C 644.1 1236.81 631.526 1227.27 618.698 1219.01 A 4473.39 4473.39 0 0 1 643.965 1153.66 C 628.503 1139.48 615.583 1124.84 603.892 1107.45 C 579.357 1110.68 553.53 1117.83 528.906 1122.36 C 523.188 1104.78 516.296 1087.62 510.077 1070.22 A 372.343 372.343 0 0 1 538.3 1049.65 C 548.331 1042.96 561.403 1036.09 569.403 1027.1 C 565.441 1015.33 561.793 1004.39 560.445 991.976 z"/>
<path transform="translate(0,0)" fill="rgb(158,243,224)" d="M 770.131 635.575 C 787.229 635.211 804.527 632.079 821.572 632.534 C 827.684 655.462 832.211 678.891 837.119 702.101 C 858.028 704.488 877.619 709.121 897.676 715.365 L 939.862 652.479 A 2969.56 2969.56 0 0 0 984.125 676.923 C 977.372 701.042 967.734 724.835 959.342 748.461 C 970.603 756.471 981.977 772.32 991.333 778.192 C 981.495 778.811 971.212 787.026 961.915 790.27 A 82.6741 82.6741 0 0 0 959.039 787.24 C 922.366 750.136 866.868 731.394 815.502 731.702 A 213.892 213.892 0 0 0 665.147 796 C 616.806 844.742 598.703 898.212 599.033 965.983 C 592.236 966.465 585.655 967.162 578.951 968.386 C 570.133 960.843 559.7 958.398 549.623 953.08 C 540.143 948.077 531.04 942.231 521.914 936.613 C 534.833 935.25 547.756 933.96 560.616 932.107 C 562.049 917.814 563.704 904.037 567.638 890.159 C 560.859 884.525 552.707 880.152 545.286 875.39 A 2047.75 2047.75 0 0 0 506.854 850.933 C 514.113 833.341 522.348 815.714 530.853 798.69 C 553.799 805.702 578.039 810.409 601.354 816.293 C 613.548 798.006 627.98 782.497 643 766.552 C 635.169 744.379 624.256 722.516 615.019 700.81 C 628.209 692.581 642.104 681.872 656.374 675.883 C 673.792 692.387 687.911 712.269 705.412 728.61 C 714.941 723.73 724.543 718.687 734.694 715.214 C 744.237 711.948 754.054 709.726 763.412 705.898 C 766.325 682.614 768.375 658.976 770.131 635.575 z"/>
</svg>