<svg xmlns="http://www.w3.org/2000/svg" display="block" viewBox="0 0 2048 2048"><path fill="#f6f6f4" d="M0 0h2048v2048H0z"/><path fill="#0d153f" d="M1656.01 921.214c8.07.785 31.38-1.151 36.87 3.252-.35.475-.86.882-1 1.454l.56.89c-3.28 13.454-8.43 26.824-12.64 40.048-12.46 39.082-26.24 77.912-40.09 116.522-12.07.88-24.31.51-36.42.53-4.46-10.45-7.79-21.62-11.55-32.35a1808 1808 0 0 0-20.26-55.805c-8.8-24.333-19.8-49.049-26.94-73.805l40.48.006c13 33.261 23.43 67.704 35.41 101.374 6.43-16.64 28.8-94.608 35.58-102.116m-622.9-4.812c21.46-.519 36.55 6.088 54.51 17.104-3.79 10.306-6.14 22.78-11.48 32.295-.19.349-1.72 2.62-2.08 2.655-5.71.55-24.43-17.83-50.45-10.564a38.84 38.84 0 0 0-23.919 18.952c-7.745 14.034-8.631 30.276-3.64 45.406 3.3 10.01 9.389 18.63 19.169 23.08 21.29 9.68 36.64-1.51 56.03-8.33 6.1 3.17 9.07 13.03 11.81 18.96l5.36 11.07c-12.38 13.48-28.67 21.12-46.91 22.67-20.86 1.76-43.252-3.84-59.264-17.72-17.6-15.27-26.9-36.98-28.567-59.98-1.781-24.575 4.309-49.362 20.759-68.138 15.924-18.176 34.962-25.848 58.672-27.46m-337.284-57.098c29.777-.698 59.661-.212 89.456-.22 16.455-.005 38.321-2.108 54.262 1.334.868 1.048 1.479 2.028 1.817 3.367 1.639 6.505 1.733 29.74-1.631 35.281-6.52 4.37-45.078 1.915-55.511 1.874l.324 129.31c-.151 9.99 2.464 44.75-2.683 50.89-1.086 1.3-2.598 1.52-4.206 1.68-7.141.7-27.328 1.7-32.825-2.9-3.044-15.94-.876-43.63-.829-61.1a8125 8125 0 0 0-.459-117.517c-7.795-.044-43.392 1.551-48.125-2.161-3.192-7.888-2.134-31.461.41-39.838m629.754 58.077c1.79-.151 1.28-.148 3.16-.138 15.08.081 29.22 4.76 39.92 15.862 7.29 7.56 12.08 17.077 14.48 27.252 4.93 20.905 2.23 45.373 2.12 66.863-.08 16.56.51 33.18.07 49.72-.1 3.77-.18 6.25-2.99 8.92-7.81 2.38-28.16 2.57-35.67-.37-7.42-10.34 1.96-86.814-3.94-108.221-1.86-6.734-5.65-13.218-11.96-16.615-7.98-4.292-17.7-3.146-25.95-.382l-1.3.449c-2.15 1.347-4.14 2.661-5.96 4.454-4.4 4.341-6.74 9.99-8.1 15.95-2.4 10.459-1.54 22.275-1.53 32.945.01 20.07.73 40.24.45 60.29-.06 4.61-.04 8.25-3.49 11.6-7.55 2.16-20.26 2.14-28.15.84-3.19-.52-6.43-1.62-8.13-4.61-2.49-4.41-.35-37.54-.36-44.96l.13-82.013c-.03-9.116-2.26-22.223-.01-30.852.37-1.412.44-2.062 1.86-2.697 8.03-3.59 27.37-2.992 35.68-.324 2.1 2.704 2.22 7.523 2.75 10.861 12.02-8.806 21.9-13.261 36.92-14.824"/><path fill="#0d153f" d="M866.546 918.275c16.42-1.98 32.769 1.561 46.626 10.712 17.59 11.618 26.882 31.139 30.778 51.316 1.655 8.568 5.192 27.517-1.077 34.607-1.766 1.99-3.365 2.47-5.906 2.8-9.892 1.29-21.175.28-31.211.29a5180 5180 0 0 1-68.301-.25c2.982 9.41 7.301 18.2 15.307 24.35 13.013 9.99 34.517 9.67 49.302 3.51 6.126-2.55 11.64-7.55 18.355-8.38 3.097 1.55 3.661 2.93 5.559 5.76 3.31 8.21 7.258 16.18 11.031 24.19-11.29 10.39-26.701 17.68-41.707 20.68-20.632 4.13-43.432 1-61.003-10.99-17.419-11.88-29.602-32.15-33.275-52.77-4.543-25.498.123-54.915 15.235-76.3 12.379-17.516 29.599-25.939 50.287-29.525"/><path fill="#f6f6f4" d="M867.582 957.095c7.607-.65 14.68-.385 21.747 2.838 10.568 4.82 16.153 13.928 20.112 24.348-8.506.413-17.08.332-25.597.456l-44.563.175c.367-.862.73-1.727 1.14-2.57 6.137-12.58 13.69-20.746 27.161-25.247"/><path fill="#0d153f" d="M1100.77 862.28c8.24-.198 29.53-2.578 36.41.658 4.15 13.061 1.65 53.526 1.57 69.201 15.18-10.441 29.12-17.396 48.26-14.656a52.9 52.9 0 0 1 35.99 22.206c5.76 8.177 9.07 17.717 10.74 27.516 2.35 13.767 3.06 103.145.79 117.375-1.21.91-2.33 1.61-3.84 1.96-6.45 1.48-29.77 1.8-35.13-1.29-3.58-7.29-1.12-64.78-1.06-76.45a1154 1154 0 0 0 .01-16.289c-.09-9.956-1.36-19.688-9.07-26.842-5.77-5.36-14.02-7.697-21.79-7.199-30.24 1.942-25.84 39.377-25.67 60.57a2370 2370 0 0 0 .61 43.06c.16 6.71 1.93 18.08-2.68 23.39-7.72 3.04-28.26 2.78-36.26.53-1.88-1.69-2.52-3.49-2.68-5.97-.72-11.87.19-24.38.18-36.34l.03-85.076-.1-57.764c-.04-10.253-.85-21.273.2-31.436.36-3.513 1.11-4.579 3.49-7.154m372.82 54.148c19.41-.51 38.39 5.257 53.17 18.078 17.66 15.31 27.86 38.325 29.32 61.457 1.53 24.137-5.21 48.967-21.46 67.247-15.54 17.5-34.04 25.75-57.17 27.11-20.05.17-38.25-6.14-53.64-19.1-17.58-14.81-27.45-36.42-29.14-59.16-1.91-25.628 3.94-50.314 21.18-69.909 15.56-17.681 34.82-24.227 57.74-25.723"/><path fill="#f6f6f4" d="M1467.87 958.201c8.88-.864 17.52.043 25.58 4.129 10.5 5.324 17.93 14.986 21.2 26.211a51.42 51.42 0 0 1-4.73 39.149c-6.2 10.76-15.34 16.77-27.06 20.11-8.9 1.52-16.93.76-25.12-3.35-10.56-5.31-18.2-14.59-21.75-25.83-3.96-12.55-3.31-27.922 3.11-39.567 6.43-11.682 16.3-17.472 28.77-20.852"/><path fill="#0d153f" d="M1760.61 918.444c19.1.081 32.16 5.018 48.03 15.403.34-2.617.59-6.824 2.24-8.977 5.01-6.545 26.06-3.605 34.07-3.475 2.39 25.213.72 51.983.72 77.392 0 28.403 1.48 57.783-.57 86.063-10.92.58-24.12 1.81-34.72-.6-2.05-2.47-1.95-6.74-2.37-9.96-6.63 5.02-13.25 8.71-20.82 12.08-6.43 1.88-12.93 3.41-19.61 3.98-19.62 1.66-38.51-4.12-53.53-16.9a88.62 88.62 0 0 1-31.13-61.64c-1.67-24.178 5.63-50.04 21.97-68.28 15.25-17.026 33.28-23.844 55.72-25.086"/><path fill="#f6f6f4" d="M1759.77 959.226c8.5-.711 16.66.42 24.27 4.501 10.08 5.411 17.21 15.349 20.24 26.267a49.53 49.53 0 0 1-5.11 38.676c-6.73 11.15-15.78 16.52-28 19.76-8.86 1.19-17.46-.17-25.25-4.7-10.27-5.97-17.14-16.4-20.1-27.76a47.88 47.88 0 0 1 5.1-36.983c6.86-11.266 16.27-16.979 28.85-19.761"/><path fill="#0d153f" d="M762.119 626.888c7.325-1.64 60.828-7.866 65.337-5.671 4.862 2.368 17.14 62.977 19.285 71.542 15.868 1.608 31.204 4.738 46.144 10.354 9.087-12.959 34.203-54.97 44.198-62.08 9.2.47 53.403 25.36 60.324 32.421a5831 5831 0 0 0-25.169 70.687c7.175 6.895 23.4 19.349 24.837 29.11-1.463 3.062-2.836 3.317-5.742 4.941-9.838.619-20.121 8.834-29.418 12.078-2.244 2.285-3.755 4.004-6.973 4.858-2.105-.179-3.581-.439-5.387-1.589-4.261-2.713-7.841-6.824-11.753-10.036-6.504-5.339-14.179-9.787-21.496-13.896a200.32 200.32 0 0 0-227.753 20.117c-42.642 35.627-72.369 87.414-77.133 143.18-.912 10.668-.743 21.294-.214 31.975 8.642 4.812 19.946 10.246 23.115 20.437 2.064 6.638.127 13.856-3.177 19.734-2.854 5.08-6.773 9.36-11.781 12.37 1.075 9.1 4.61 17.8 8.123 26.2a208.9 208.9 0 0 0 63.73 84.6c45.593 35.78 101.93 50.8 159.352 43.78 37.886-4.63 72.389-19.9 103.806-41.08l10.659 6.41c5.359 1.52 20.048 12.64 23.754 11.34 3.196 2.42 4.47 3.85 5.065 7.79-2.224 7.65-13.463 13.62-19.679 18.31 4.559 16.24 21.693 63.76 21.003 76.77-6.275 7.7-50.547 27.22-61.86 30.55-14.035-14.8-32.749-46.53-43.975-64.71-13.756 3.61-27.68 5.57-41.76 7.36-2.508 12.29-14.608 66.93-21.267 73.59-10.993 3.19-54.111-1.95-66.305-5.86-3.441-24.7-5.683-49.81-8.336-74.63-15.652-3.2-29.931-9.5-44.17-16.5-10.245 15.59-34.176 45.73-47.707 58.02-13.433-6.1-42.055-26.4-53.461-36.35 4.596-19.88 16.405-47.37 23.883-67.08-11.231-11.99-21.937-22.64-31.196-36.34-24.849 6.18-50.287 10.32-75.454 15.01-7.098-10.55-24.173-56.05-26.426-68.56 7.352-6.88 16.513-12.32 24.806-18.06a2609 2609 0 0 0 35.069-24.86c-3.587-10.67-5.903-21.58-7.796-32.662-29.836-4.456-59.937-14.366-89.072-22.155-7.649 6.051-22.133 22.892-31.734 23.29-9.804-7.551-26.617-39.384-34.268-51.722a1078 1078 0 0 0-11.316 27.178c6.54 35.201 2.749 48.661-6.207 82.901 23.558 36.8 61.92 99.73 72.436 141 7.538 29.59 10.902 65.52 16.841 96.46a4283 4283 0 0 0 12.273 60.21c2.53 11.9 5.681 23.83 7.266 35.89 5.911 2.48 12.045 5.18 17.675 8.26 9.427 5.14 18.536 12.41 21.393 23.22.813 3.08 1.424 6.22-.273 9.08-12.236 9.68-48.159 10.11-63.353 9.64-8.151-.26-30.586-.69-35.774-8.07-4.647-6.6.113-21.93 1.62-29.43-14.439-36.77-25.403-76.22-37.016-113.98-5.282-17.18-9.303-37.03-17.761-52.85-8.93-16.7-22.221-31.52-33.957-46.27a3905 3905 0 0 1-33.72-43.68c-6.764-8.86-32.999-47.35-37.995-51.06-1.21-.9-1.812-.41-3.183-.18l-.795 2.08c2.783 13.2 54.461 76.22 66.742 90.67-3.676 20.65-7.676 42.02-14.757 61.79-7.479 20.88-19.381 40.76-29.373 60.53a7122 7122 0 0 0-42.719 87.44c10.049 4.81 20.406 10.14 28.439 18.01 2.908 2.84 6.61 7.24 6.147 11.62-.222 2.11-1.313 3.76-2.851 5.14-11.631 10.49-50.893 8.96-65.713 7.84-10.154-.77-25.364-1.65-32.424-9.82-3.762-10.06 6.699-33.61 9.901-43.69 9.022-28.4 16.976-56.88 27.174-84.92 8.904-24.48 30.07-68.1 33.173-91.42 1.995-15 1.112-30.76.766-45.85-1.289-56.32-11.479-127.65 8.12-181.231-1.439-4.806-3.203-9.826-3.415-14.868-.333-7.908 1.415-16.406 4.812-23.559 4.444-9.358 10.841-18.066 16.466-26.757a3464 3464 0 0 0 24.726-38.794c13.97-22.158 32.146-58.743 49.264-76.476 15.833-16.403 31.539-19.636 53.474-19.976l6.548-13.955c-3.218-6.093-5.09-12.984-7.233-19.519-5.654-4.385-12.934-9.171-14.839-16.494-.992-3.813-.472-7.58 1.504-10.955.975-1.665 1.644-2.822 2.056-4.756-.433-2.535-.782-4.07-2.267-6.201a31 31 0 0 1-2.926-5.121c.206-5.576 6.654-10.781 10.381-14.524.224-5.413-.054-11.249 3.933-15.475 5.336-5.656 15.454-4.817 22.583-5.08 16.152-28.565 19.456-2.886 36.224-7.991 6.423-1.955 9.561-10.173 15.41-11.307 5.808-1.125 10.808 3.118 15.262 6.186 2.134-.97 4.289-1.98 6.505-2.748 3.053-1.057 7.571-1.774 10.358.347 3.869 2.945 5.626 9.191 9.052 12.81 5.593 5.911 19.428 10.707 20.194 19.849.588 7.018-5.438 13.754-9.759 18.6 1.292 5.219 3.121 10.886.672 16.07-2.816 5.96-9.295 7.996-15.055 9.987l-4.837 13.689.766 1.732c1.974 4.565 4.72 10.792 2.373 15.714-1.463 3.066-4.255 5.6-6.06 8.524-6.562 10.628-12.724 24.304-25.321 28.886-9.667 3.516-18.163-.095-26.987-3.936a727 727 0 0 1-11.782 28.657 1075 1075 0 0 1 69.25 107.193 1099 1099 0 0 0 44.525-4.009c.905-8.809 2.118-17.402 3.82-26.094-19.618-14.633-41.196-27.602-61.716-40.986 3.192-11.143 25.699-60.032 32.834-66.996 11.228-2.324 56.957 11.77 70.571 15.993 10.507-14.374 21.316-27.555 34.114-39.942-10.623-21.863-20.431-44.815-28.639-67.704 15.573-12.114 38.332-26.121 56.257-34.458 15.754 13.516 35.249 36.7 48.669 53.159 14.936-7.42 29.508-13.113 45.919-16.282 4.497-23.71 4.237-48.35 9.507-71.924"/><path fill="#f6f6f4" d="M376.255 1004.64c.794.66 1.109.76 1.528 1.74 3.427 7.96-4.236 26.8-7.393 34.53-.741-1.94-1.502-3.96-1.721-6.05-.733-7 3.284-24.68 7.586-30.22M192.04 1392.5c.085.07.179.14.253.22 1.463 1.66 2.831 3.43 4.39 5.01 6.961 7.02 22.638 4.27 31.79 4.21 2.209 2.62 3.97 4.85 5.349 8l-.823 1.68c-11.37-.55-29.479.69-39.262-5.17-2.331-1.39-3.973-3.28-4.449-6.04-.581-3.36 1.059-5.31 2.752-7.91m246.08.94c6.786 1.26 8.572 8.09 16.16 8.57 7.714.5 16.377-5.9 23.254-4.23 4.792 1.16 6.993 4.56 9.791 8.29l-.689 1.35c-5.139 1.11-10.538 1.06-15.779 1.28-8.886.37-22.689 1.95-29.5-4.96-2.902-2.94-3.323-6.36-3.237-10.3m-147.377-134.86 2.437 1.67.299 2.17c-6.808 14.31-63.164 61.3-78.041 70.34-1.986-1.42-2.362-1.58-3.235-3.82 2.733-4.13 8.561-7.63 12.6-10.71 23.752-18.09 44.597-38.89 65.94-59.65m131.131-498.028c1.648.932 1.568 1.522 2.224 3.36 3.422 9.596 8.625 15.851 15.458 23.321-2.469 7.062-4.724 14.33-7.87 21.115l-1.317.046c-7.192-9.096-14.433-17.84-20.581-27.711 3.625-6.91 7.974-13.497 12.086-20.131m62.168 168.485c12.49 6.546 24.46 15.063 36.461 22.542 14.26 8.887 28.999 17.177 42.892 26.618l.364 2.598-1.553 1.499c-3.861.8-7.726-.594-11.476-1.511-28.551-5.854-56.549-14.75-84.893-21.618 7.052-9.577 12.726-19.607 18.205-30.128"/><path fill="#a1b7d6" d="m322.94 898.905 1.231.275c1.73 3.288.998 8.22.837 11.966-.769 17.806-8.218 33.628-21.5 45.556-6.239 5.604-26.427 19.379-34.208 18.964-2.745-2.305-4.037-5.684-5.582-8.842 11.352-8.736 28.659-14.222 36.341-26.557l-.311-1.254c-8.528-.508-22.378 9.246-29.462 13.541l-10.946 7.999a98 98 0 0 1 5.596-11.85c17.057-10.502 34.346-19.023 48.924-33.04-16.07 6.32-31.53 11.575-46.229 20.888 2.493-4.555 4.759-9.876 8.292-13.708 10.128-10.982 33.112-17.316 47.017-23.938"/><path fill="#f6f6f4" d="M282.515 1007.37c.936.37 1.505.53 2.358 1.2 5.285 4.14 33.508 47.37 41.653 57.42 27.351 33.72 63.441 68.38 85.448 105.15 13.025 21.77 16.313 46.94 21.634 71.35a2069 2069 0 0 0 13.776 60.67 1461 1461 0 0 0 10.838 42.31c2.904 10.43 6.565 21.02 8.575 31.63l-5.319.1c-8.855-7.13-37.052-160.81-46.583-186.84-10.984-30-57.371-77.78-79.027-103.52-16.054-19.07-31.624-39.04-45.43-59.82-3.817-5.74-9.366-12.48-7.923-19.65m185.743-302.085a268 268 0 0 1 5.6 1.443c7.605 2.052 19.228 4.139 23.198 11.8 4.022 7.761-.418 17.64-2.796 25.217.648 2.078 1.318 4.157 1.896 6.255.224.811 1.152 3.841 1.071 4.508-.106.878-8.495 13.955-9.567 15.833-3.734 6.543-8.581 14.334-16.448 16.151-7.725 1.785-14.309-2.502-20.657-6.24-3.467-2.312-7.155-5.168-10.006-8.235-4.596-4.943-10.023-13.739-9.252-20.81.926-8.487 6.408-4.91 11.232-8.869.631-6.994-9.912-13.627-10.14-21.631-.073-2.591.389-2.978 2.029-4.745 2.764-1 4.32-1.001 7.17-.774l1.423 1.872c-.028 3.742-.272 6.954 1.316 10.409l1.253.213c3.643-2.893 5.068-7.504 6.056-11.859.092-.406.176-.814.263-1.221 5.029-3.772 10.79-6.444 16.359-9.317"/><path fill="#a1b7d6" d="M381.203 788.317c3.832-.329 7.789-.13 11.639-.13l10.874 6.839c-8.447-1.383-16.658-1.177-24.655 2.191-10.785 4.543-19.372 14.059-23.562 24.898-13.081 33.832 10.801 71.452 23.727 101.517-8.824 22.661-12.517 46.263-16.096 70.18-21.222 3.948-54.051 4.551-74.328-1.758-5.306-1.651-10.169-4.506-15.01-7.182 6.059-2.033 12.329-3.622 18.479-5.368 16.21-5.412 32.147-10.46 47.352-18.384a586 586 0 0 1-28.969 4.396c3.94-4.402 7.77-9.15 11.075-14.045 10.531-15.596 14.123-33.078 10.523-51.574-.872-4.483-1.338-7.989-5.285-10.678-12.691 2.544-26.288 9.317-38.46 14.001 10.382-17.864 22.621-34.834 33.531-52.404 8.203-13.213 15.072-27.568 24.254-40.12 9.472-12.947 18.697-19.945 34.911-22.379"/><path fill="#a1b7d6" d="M387.242 805.142c7.241-.581 14.965-.833 21.92 1.506 32.807 11.034 22.139 66.916 36.278 94.304l.638 1.208c10.367 6.182 20.403 11.786 28.963 20.456-6.9 24.252-23.493 41.944-43.793 56.306l-7.371-12.327a615 615 0 0 0 22.245-25.76c-9.925 5.076-18.223 10.999-26.851 18.064l-17.376-27.355-2.211-4.032c1.476-2.182 34.781-24.94 40.39-29.827-17.203 3.956-29.918 14.232-46.111 19.572-2.477-.66-2.362-.866-3.823-3.021 3.975-6.797 32.038-19.219 40.842-27.284 2.704-2.478 4.982-4.633 5.082-8.413l-1.691-1.374c-12.717-1.665-42.586 15.573-53.076 23.128-4.277-8.61-8.564-17.231-12.14-26.163-5.875-14.677-11.212-35.005-4.284-50.109 4.476-9.757 12.767-15.042 22.369-18.879"/><path fill="#0d153f" d="m424.992 843.196 4.957.107c-.354 1.649-44.007 25.747-48.826 28.88-1.305-.844-2.429-2.195-3.518-3.286-.369-1.417-.983-2.184-.196-3.554 4.908-8.542 37.524-20.018 47.583-22.147"/><path fill="#9ef3e0" d="M560.445 991.976c5.499 1.883 11.119 3.66 16.208 6.507 9.282 5.197 18.076 13.637 28.455 16.317 11.603 34.14 24.068 63.92 47.409 92.02 37.551 45.22 92.031 72.11 150.278 77.44 55.203 5.06 119.027-11.18 162.238-46.93 5.359 1.52 20.048 12.64 23.754 11.34-9.501 6.36-18.427 14.86-27.277 22.16a2123 2123 0 0 0 21.752 75.64 3944 3944 0 0 1-46.172 22.72 7427 7427 0 0 1-42.274-64.86c-18.4 5.06-36.736 7.14-55.539 9.81-7.116 24.43-13.242 49.29-19.284 74l-49.066-4.24c-3.588-24.99-6.334-50.09-9.618-75.13-19.848-4.7-38.18-12.75-56.732-21-14.976 19.46-30.374 38.53-47.182 56.44-13.295-7.4-25.869-16.94-38.697-25.2a4473 4473 0 0 1 25.267-65.35c-15.462-14.18-28.382-28.82-40.073-46.21-24.535 3.23-50.362 10.38-74.986 14.91-5.718-17.58-12.61-34.74-18.829-52.14a372 372 0 0 1 28.223-20.57c10.031-6.69 23.103-13.56 31.103-22.55-3.962-11.77-7.61-22.71-8.958-35.124m209.686-356.401c17.098-.364 34.396-3.496 51.441-3.041 6.112 22.928 10.639 46.357 15.547 69.567 20.909 2.387 40.5 7.02 60.557 13.264l42.186-62.886a2970 2970 0 0 0 44.263 24.444c-6.753 24.119-16.391 47.912-24.783 71.538 11.261 8.01 22.635 23.859 31.991 29.731-9.838.619-20.121 8.834-29.418 12.078a83 83 0 0 0-2.876-3.03c-36.673-37.104-92.171-55.846-143.537-55.538A213.9 213.9 0 0 0 665.147 796c-48.341 48.742-66.444 102.212-66.114 169.983-6.797.482-13.378 1.179-20.082 2.403-8.818-7.543-19.251-9.988-29.328-15.306-9.48-5.003-18.583-10.849-27.709-16.467 12.919-1.363 25.842-2.653 38.702-4.506 1.433-14.293 3.088-28.07 7.022-41.948-6.779-5.634-14.931-10.007-22.352-14.769a2048 2048 0 0 0-38.432-24.457c7.259-17.592 15.494-35.219 23.999-52.243 22.946 7.012 47.186 11.719 70.501 17.603 12.194-18.287 26.626-33.796 41.646-49.741-7.831-22.173-18.744-44.036-27.981-65.742 13.19-8.229 27.085-18.938 41.355-24.927 17.418 16.504 31.537 36.386 49.038 52.727 9.529-4.88 19.131-9.923 29.282-13.396 9.543-3.266 19.36-5.488 28.718-9.316 2.913-23.284 4.963-46.922 6.719-70.323"/></svg>