<svg version="1.1" xmlns="http://www.w3.org/2000/svg" style="display: block;" viewBox="0 0 2048 1365" width="1536" height="1024">
<defs>
	<linearGradient id="Gradient1" gradientUnits="userSpaceOnUse" x1="1767.49" y1="1174.93" x2="1728.77" y2="1200.62">
		<stop class="stop0" offset="0" stop-opacity="1" stop-color="rgb(233,213,213)"/>
		<stop class="stop1" offset="1" stop-opacity="1" stop-color="rgb(253,242,232)"/>
	</linearGradient>
</defs>
<path transform="translate(0,0)" fill="rgb(252,249,235)" d="M 0 0 L 579.381 0 L 594.77 0 L 934.486 0 L 951.56 0 L 1124.15 0 L 1140.64 0 L 1290.87 0 L 1573.62 0 L 1590.62 0 L 1885.66 0 L 1902.63 0 L 2046.7 0 L 2047.67 0 C 2049.6 34.6767 2048.01 70.3155 2048 105.074 L 2048 308.654 L 2048.08 409.446 C 2048.09 421.588 2049.92 444.229 2047.25 454.837 C 2049.94 468.224 2048.04 506.354 2048.03 522.245 L 2048.01 586.611 C 2048 597.961 2048.59 609.694 2047.75 621 C 2048.9 652.779 2048.03 684.864 2048.03 716.671 L 2048.04 895.761 L 2048.03 1134.3 C 2048.03 1175.1 2048.73 1216.03 2047.96 1256.81 C 2047.91 1259.49 2047.75 1261.51 2046.65 1264.01 C 2049.05 1269.42 2049.43 1356.67 2047.38 1362.74 C 2047.11 1363.55 2046.7 1364.28 2046.25 1365 L 0 1365 L 0 1362.05 L 0 1260.1 L 0 1256.28 L 0 1171.9 L 0 1167.21 L 0 1090.3 L 0 1085.16 L 0 1021.29 L 0 1015.88 L 0 973.103 L 0 965.714 L 0 922.009 L 0 727.818 L 0 629.097 L 0 572.694 L 0 548.763 L 0 480.247 L 0 471.471 L 0 0 z"/>
<path transform="translate(0,0)" fill="rgb(67,57,96)" d="M 377.945 336.17 C 382.991 335.894 388.177 336.111 393.123 337.206 C 397.387 338.151 401.326 339.467 403.803 343.296 C 403.843 345.726 403.913 346.868 402.077 348.785 C 395.47 355.679 380.879 354.21 372.25 354.101 C 361.558 353.825 350.907 353.555 340.215 353.963 C 352.203 346.035 363.816 339.611 377.945 336.17 z"/>
<path transform="translate(0,0)" fill="rgb(67,57,96)" d="M 199.819 138.003 C 203.243 138.099 206.382 140.181 209.012 142.223 C 209.648 143.945 210.066 144.743 209.672 146.607 C 206.599 161.125 171.21 183.263 158.783 190.693 C 156.61 191.719 154.805 192.521 152.414 192.855 C 152.396 191.352 152.789 190.45 153.49 189.154 C 162.75 172.015 180.965 143.459 199.819 138.003 z"/>
<path transform="translate(0,0)" fill="rgb(67,57,96)" d="M 691.808 692.222 C 695.261 692.261 699.526 692.141 702.492 694.128 C 704.528 695.493 705.962 698.17 706.145 700.603 C 706.302 702.694 705.13 704.809 703.787 706.323 C 693.901 717.475 666.277 721.473 652.25 722.045 L 632.877 722.382 C 651.077 710.698 670.151 696.124 691.808 692.222 z"/>
<path transform="translate(0,0)" fill="rgb(67,57,96)" d="M 139.391 231.257 L 140.282 230.596 C 156.369 218.447 181.496 182.154 204.496 185.146 C 206.543 185.412 208.536 186.131 210.499 186.744 C 211.295 191.434 211.077 194.121 208.26 198.068 C 197.123 213.668 158.134 228.469 139.835 231.204 C 139.688 231.226 139.539 231.24 139.391 231.257 z"/>
<path transform="translate(0,0)" fill="rgb(67,57,96)" d="M 193.968 229.152 C 198.052 228.758 203.428 228.283 207.261 229.999 C 210.159 231.297 211.498 232.974 212.536 235.91 C 212.614 238.352 212.22 240.106 210.902 242.201 C 202.312 255.851 165.534 266.84 150.235 270.801 C 144.56 272.25 138.739 273.305 133.006 274.517 C 150.533 254.672 167.75 236.847 193.968 229.152 z"/>
<path transform="translate(0,0)" fill="rgb(67,57,96)" d="M 1246.46 734.742 C 1247.12 732.069 1247.42 729.138 1249.56 727.25 C 1253.93 726.418 1259.87 729.076 1263.4 731.63 C 1266.5 733.871 1268.59 737.064 1269.09 740.881 C 1270.22 749.413 1264.62 759.876 1261.54 767.745 A 138.883 138.883 0 0 1 1232.22 808.472 C 1228.2 812.397 1218.73 818.039 1216.3 822.651 C 1215.62 823.944 1215.36 826.9 1215.07 828.404 L 1212.22 829.876 C 1209.65 829.812 1209.58 830.026 1207.6 828.162 C 1207.17 826.872 1206.79 825.568 1206.92 824.193 C 1207.46 818.73 1212.63 815.421 1216.35 812.023 C 1229.29 800.229 1241.47 775.003 1244.83 757.938 C 1246.35 750.207 1246.09 742.567 1246.46 734.742 z"/>
<path transform="translate(0,0)" fill="rgb(67,57,96)" d="M 653.847 741.382 C 658.879 740.662 664.647 740.578 669.731 740.917 C 677.002 741.401 686.46 743.355 691.307 749.326 C 693.056 751.481 694.066 754.118 693.707 756.915 C 693.272 760.297 691.089 762.833 688.424 764.775 C 675.897 773.897 652.592 770.211 638.128 767.704 C 623.426 765.005 608.827 760.571 594.382 756.731 C 614.036 749.851 633.097 744.027 653.847 741.382 z"/>
<path transform="translate(0,0)" fill="rgb(67,57,96)" d="M 402.445 714.303 C 411.487 704.071 432.133 689.758 444.667 683.425 C 460.971 675.187 483.291 671.656 500.939 677.638 C 505.593 679.215 512.226 683.041 514.122 687.781 C 515.029 690.047 515.052 692.224 513.929 694.413 C 512.025 698.122 507.253 700.053 503.432 700.973 C 492.238 703.669 480.244 702.999 468.808 703.571 C 450.901 704.468 433.315 706.694 415.998 711.415 C 412.715 712.577 406.317 715.703 403.049 715.052 L 402.445 714.303 z"/>
<path transform="translate(0,0)" fill="rgb(67,57,96)" d="M 1269.88 706.612 C 1275.95 704.335 1280.83 700.132 1286.87 697.953 C 1290.16 696.765 1292.7 698.22 1295.66 699.592 C 1295.93 699.892 1296.2 700.196 1296.47 700.491 C 1300.05 704.302 1305.77 705.873 1309.21 709.936 C 1320.11 722.814 1329.87 759.795 1329.62 776.347 C 1329.54 782.213 1328.1 788.668 1323.76 792.888 C 1319.35 797.169 1310.08 799.424 1304.02 799.024 C 1302.59 798.93 1301.22 798.699 1299.84 798.384 C 1299.53 797.866 1298.76 796.821 1298.64 796.252 C 1294.97 776.035 1290.07 734.293 1280.48 717.756 C 1277.76 713.062 1274.08 709.97 1269.88 706.612 z"/>
<path transform="translate(0,0)" fill="rgb(67,57,96)" d="M 1246.2 713.111 C 1245.01 708.765 1245.37 702.075 1242.3 698.886 C 1240.15 698.719 1237.47 698.732 1235.49 697.832 C 1233.3 696.833 1232.09 694.815 1231.49 692.542 C 1231 690.716 1230.52 688.193 1231.11 686.334 C 1232.05 683.37 1234.47 680.808 1235.73 677.934 C 1238.14 672.415 1238.51 666.539 1241.78 661.219 C 1244.09 657.471 1247.43 654.395 1251.84 653.486 C 1260.19 651.769 1270.26 657.541 1276.89 662.031 C 1278.49 664.892 1279.74 668.022 1281.1 671.01 C 1283.69 671.916 1286.92 668.688 1289.83 668.297 C 1292.81 667.897 1295.68 669.451 1297.83 671.388 C 1300.6 673.896 1302.63 677.748 1302.6 681.54 C 1302.56 687.544 1297.22 690.671 1293.35 694.379 C 1288.98 694.391 1285.76 694.254 1282.46 690.929 C 1280.58 689.03 1279.04 686.714 1277.53 684.517 C 1272.64 692.912 1267.22 698.405 1258.79 703.257 C 1269.58 708.374 1277.88 715.633 1282.08 727.069 C 1288.8 745.399 1292.25 773.391 1295.83 793.229 A 2322.3 2322.3 0 0 0 1264.98 765.327 C 1267.66 758.482 1274.49 745.829 1271.61 738.552 C 1269.27 732.644 1263 727.482 1257.12 725.303 C 1253.94 724.122 1251.32 723.929 1248.18 725.254 C 1245.89 727.343 1244.93 729.805 1244.88 732.931 C 1244.87 733.256 1244.89 733.582 1244.89 733.907 C 1243.27 740.19 1244.37 747.247 1243.56 753.718 C 1243.26 756.121 1243.08 758.378 1241.09 759.855 C 1239.29 758.269 1238.52 756.732 1237.6 754.56 C 1231.76 740.702 1241.1 725.914 1246.2 713.111 z"/>
<path transform="translate(0,0)" fill="rgb(246,180,174)" d="M 1783.76 733.092 C 1796.05 738.598 1818.69 758.224 1831.76 766.528 C 1839.44 771.408 1855.18 777.038 1860.83 783.054 C 1860.55 783.641 1860.42 784.326 1859.99 784.816 C 1859.05 785.89 1811.52 813.578 1804.86 817.904 C 1763.11 844.994 1724.54 874.899 1686.7 907.188 C 1676.54 915.851 1666.9 924.957 1657.21 934.125 C 1652.53 938.553 1647.44 944.516 1642.05 947.948 C 1622.73 951.067 1601.84 950.395 1582.19 951.714 L 1528.25 955.462 C 1517.96 956.179 1506.99 957.527 1496.71 957.044 C 1526.01 931.605 1554.06 904.818 1583.65 879.65 C 1621.23 847.685 1660.27 818.32 1700.49 789.822 C 1710.65 782.621 1780.87 738.43 1783.06 735.433 C 1783.54 734.775 1783.53 733.872 1783.76 733.092 z"/>
<path transform="translate(0,0)" fill="rgb(246,180,174)" d="M 579.381 0 L 594.77 0 C 604.423 39.8479 615.056 79.0523 630.391 117.167 A 627.855 627.855 0 0 0 885.466 416.33 A 640.625 640.625 0 0 0 1368.91 494.033 C 1372.72 493.101 1383.99 491.311 1385.87 488.225 C 1384.52 484.028 1372.13 472.807 1368.27 468.598 C 1357.33 456.656 1347.36 444.198 1338.9 430.363 C 1386.11 442.865 1435.17 452.674 1484.14 454.152 C 1471.68 464.592 1425.78 477.509 1408.37 482.925 C 1402.41 484.78 1392.99 486.398 1387.96 489.926 C 1394.09 492.771 1398.19 498.077 1403.94 501.144 C 1411.57 500.472 1420.42 496.905 1427.68 494.495 A 676.472 676.472 0 0 0 1527.01 452.805 C 1545.11 455.424 1563.89 456.949 1581.82 460.175 C 1586.95 466.297 1599.7 499.715 1604.45 509.678 C 1615.01 531.814 1627.13 554.443 1640.66 574.912 C 1643.84 579.717 1662.81 605.253 1662.57 609.046 A 449.784 449.784 0 0 1 1443.02 531.694 C 1429.31 522.404 1417.05 511.753 1403.94 501.737 C 1396.69 502.08 1387.9 505.677 1380.79 507.634 C 1368.92 510.903 1357.07 514.085 1344.97 516.411 A 657.718 657.718 0 0 1 846.367 411.206 A 636.587 636.587 0 0 1 579.381 0 z"/>
<path transform="translate(0,0)" fill="rgb(252,249,235)" d="M 594.77 0 L 934.486 0 C 938.058 20.9702 945.506 41.7676 952.446 61.8358 A 583.3 583.3 0 0 0 1164.28 344.622 A 568.388 568.388 0 0 0 1284.48 411.106 A 690.374 690.374 0 0 0 1318.8 423.52 C 1325.3 425.673 1332.79 427.386 1338.9 430.363 C 1347.36 444.198 1357.33 456.656 1368.27 468.598 C 1372.13 472.807 1384.52 484.028 1385.87 488.225 C 1383.99 491.311 1372.72 493.101 1368.91 494.033 A 640.625 640.625 0 0 1 885.466 416.33 A 627.855 627.855 0 0 1 630.391 117.167 C 615.056 79.0523 604.423 39.8479 594.77 0 z"/>
<path transform="translate(0,0)" fill="rgb(67,57,96)" d="M 145.821 192.378 C 147.645 185.784 150.623 178.411 151.256 171.593 C 152.043 163.127 150.546 153.987 150.229 145.446 C 149.42 123.707 152.862 95.9916 166.355 78.2628 C 168.731 75.1406 170.847 73.2293 174.824 72.6445 C 178.157 73.2028 180.71 74.8542 182.605 77.7109 C 196.626 98.8514 161.283 151.178 153.6 172.321 C 146.889 190.787 142.842 211.9 139.391 231.257 C 133.673 245.021 127.802 305.836 126.885 322.265 C 145.999 302.29 171.63 272.708 201.893 271.804 C 205.629 271.693 210.372 272.217 213.083 275.048 C 214.574 276.605 215.411 278.122 215.428 280.339 C 215.463 284.863 211.513 289.126 208.261 291.889 C 186.476 310.4 153.657 316.759 126.617 323.031 L 126.13 335.212 C 126.051 348.942 126.204 362.715 125.817 376.437 C 139.28 353.548 162.952 330.421 189.162 323.428 C 194.915 321.894 202.334 320.948 207.818 323.862 C 209.882 324.959 211.6 326.608 212.312 328.88 C 213.282 331.976 212.139 335.214 210.533 337.882 C 198.511 357.837 146.895 375.808 126.012 382.784 C 126.932 402.926 127.599 423.237 129.354 443.319 C 140.246 415.88 161.266 391.171 188.709 379.103 C 196.492 375.68 208.667 371.907 216.973 375.512 C 218.726 376.273 219.55 377.15 220.629 378.682 C 221.666 381.887 221.2 384.437 219.734 387.456 C 210.126 407.239 151.151 439.804 130.062 450.972 C 136.514 492.106 145.874 533.623 162.946 571.792 C 184.108 523.487 209.033 478.782 244.213 439.15 C 250.182 432.425 256.994 424.008 264.177 418.603 A 429.161 429.161 0 0 1 273.614 409.577 C 272.09 395.346 266.405 355.398 274.629 344.23 C 276.201 342.095 277.233 341.819 279.745 341.292 C 283.305 342.971 284.957 346.364 286.237 349.92 C 292.273 366.692 286.141 386.096 280.907 402.322 C 289.633 393.61 299.572 386.197 308.214 377.549 C 308.044 371.238 307.878 364.889 306.977 358.633 C 305.414 347.79 296.221 317.244 304.877 308.772 C 306.282 307.396 307.851 306.712 309.685 306.097 C 312.333 306.432 313.73 307.034 315.325 309.269 C 323.37 320.544 323.024 339.836 320.24 352.697 C 318.666 359.967 315.227 367.347 312.697 374.352 L 334.293 355.357 C 338.031 341.306 336.794 291.888 348.788 285.786 C 350.159 285.088 351.458 285.586 352.669 286.309 C 355.668 288.101 358.061 292.704 358.746 296.038 C 362.423 313.938 348.962 337.844 338.678 352.195 C 331.509 362.199 322.253 369.619 312.592 377.032 C 331.109 370.863 351.735 364.628 370.405 373.824 C 374.023 375.606 378.689 378.746 379.967 382.788 C 380.51 384.505 380.029 384.934 379.474 386.554 C 375.605 389.944 370.414 390.728 365.408 390.407 C 347.74 389.272 330.381 381.057 312.797 378.154 C 302.553 387.538 291.325 396.748 282.377 407.389 C 299.48 400.817 321.328 393.825 339.196 401.574 C 342.959 403.206 346.364 405.553 347.848 409.536 C 348.257 410.636 347.859 412.263 347.757 413.44 C 345.786 416.859 343.073 418.323 339.303 419.298 C 323.653 423.348 295.235 414.453 280.028 409.371 C 276.477 413.033 272.999 416.941 269.1 420.225 C 258.586 432.505 247.628 444.427 237.7 457.196 C 207.666 495.826 185.743 538.076 168.053 583.524 C 175.021 602.806 184.243 622.682 193.802 640.838 C 205.501 626.234 218.718 612.247 233.131 600.29 C 232.308 578.727 229.047 527.251 243.206 510.815 C 245.126 508.586 246.892 507.517 249.813 507.255 C 253.204 508.43 254.778 510.29 256.317 513.526 C 264.792 531.346 255.76 564.659 249.133 582.525 A 319.3 319.3 0 0 1 245.014 592.925 C 255.504 581.938 266.403 571.071 278.197 561.475 C 278.447 549.783 278.819 538.058 278.748 526.363 C 278.678 514.726 276.666 501.456 279.188 490.102 C 279.726 487.681 281.101 485.294 282.913 483.603 C 284.925 481.724 287.487 480.933 290.217 481.201 C 292.496 481.424 294.365 482.348 295.805 484.14 C 302.185 492.082 299.589 510.708 298.104 520.403 A 136.088 136.088 0 0 1 289.297 551.878 C 292.19 549.545 295.191 547.279 297.942 544.78 C 302.331 541.069 306.648 537.146 311.232 533.683 C 316.326 514.951 315.459 491.068 320.864 475.031 C 322.047 471.521 324.028 467.994 327.325 466.112 C 328.896 465.214 330.072 465.388 331.84 465.343 C 334.81 466.779 336.225 468.808 337.217 471.945 C 341.764 486.332 332.881 504.574 326.009 516.763 C 323.998 520.331 321.815 523.819 319.85 527.409 C 329.745 519.858 339.599 512.266 349.808 505.143 C 354.076 494.954 360.86 460.563 370.033 456.53 C 372.064 455.637 372.451 455.961 374.401 456.695 C 376.77 459.804 376.97 462.928 376.44 466.727 C 374.575 480.087 364.328 491.814 355.798 501.689 C 372.401 490.128 389.242 466.67 405.568 458.453 C 409.973 456.235 416.082 455.254 420.961 455.924 C 424.149 456.363 425.835 457.201 427.641 459.753 C 427.527 462.636 426.114 464.316 424.008 466.213 C 414.521 474.763 400.903 479.637 389.45 484.991 C 376.066 491.248 363.401 497.921 351.875 507.268 C 366.36 502.077 390.031 491.787 405.122 498.651 C 407.187 499.59 408.573 500.684 410.045 502.387 C 410.638 504.615 411.145 505.771 409.715 507.898 C 407.486 511.212 401.989 512.492 398.222 512.905 C 382.83 514.595 365.792 509.426 350.26 508.656 A 957.788 957.788 0 0 1 324.907 528.044 C 342.861 526.912 369.415 523.386 384.249 535.714 C 386.088 537.242 387.548 539.248 387.804 541.687 C 388.047 543.991 387.378 546.548 385.858 548.3 C 384.634 549.711 382.717 550.534 380.853 550.673 C 371.3 551.386 352.2 541.837 342.247 538.75 A 292.971 292.971 0 0 0 319.777 532.935 C 313.127 537.858 306.753 542.993 300.441 548.339 C 296.999 551.329 290.241 555.799 288.988 560.156 C 310.117 555.615 337.808 550.761 357.204 563.264 C 360.976 565.695 365.295 569.602 366.3 574.113 C 366.713 575.971 366.356 577.186 365.72 578.929 C 364.027 580.914 362.329 582.405 359.641 582.765 C 353.317 583.614 295.689 567.161 286.479 564.005 C 278.779 563.937 260.442 584.542 254.879 589.942 C 277.522 585.601 306.867 580.426 327.22 594.506 C 331.103 597.191 334.936 601.247 335.587 606.103 C 335.946 608.783 335.453 611.461 333.741 613.603 C 332.125 615.625 329.942 616.514 327.422 616.736 C 312.693 618.034 287.564 609.787 272.517 606.743 C 262.935 604.804 253.154 603.688 243.433 602.7 C 232.48 610.254 208.77 637.643 200.14 648.738 C 215.771 653.518 233.146 654.94 249.168 658.555 C 271.234 663.533 293.083 670.008 314.851 676.145 C 336.802 682.333 359.523 688.11 380.535 697.024 C 375.879 681.325 356.332 636.661 357.64 624.31 C 357.899 621.863 359.022 619.152 361.099 617.705 C 363.142 616.282 365.693 616.133 368.072 616.587 C 375.004 617.912 380.693 623.831 384.511 629.429 C 401.407 654.203 397.723 684.396 392.398 712.118 C 404.521 696.41 414.544 679.28 426.72 663.709 C 418.506 646.468 394.465 601.892 394.083 584.82 C 394.018 581.905 394.507 579.374 396.658 577.262 C 398.36 575.59 400.71 574.59 403.108 574.691 C 407.968 574.896 411.859 578.6 414.889 582.058 C 431.463 600.982 430.811 635.2 429.337 658.997 C 432.28 653.625 435.931 648.58 439.336 643.49 C 445.489 634.01 451.93 624.603 457.289 614.646 C 450.582 603.135 424.465 560.139 427.785 549.046 C 428.459 546.794 429.581 544.268 431.752 543.104 C 433.878 541.964 436.622 541.984 438.842 542.837 C 446.158 545.649 451.476 553.24 454.207 560.272 C 461.182 578.233 457.636 597.259 458.003 615.876 C 463.838 601.487 471.811 588.252 479.537 574.819 C 474.678 561.989 455.815 524.176 460.682 512.561 C 461.448 510.733 462.33 510.31 463.874 509.149 C 466.595 508.828 468.421 509.284 470.597 511.02 C 478.553 517.367 479.737 530.291 480.438 539.631 C 481.297 551.084 480.438 562.787 480.04 574.255 C 484.67 565.993 487.327 557.68 489.422 548.503 C 492.747 533.941 493.446 502.479 507.532 494.078 C 510.276 493.724 510.634 494.077 513.024 495.263 C 515.441 498.295 515.708 501.258 515.291 505.024 C 513.282 523.169 499.215 538.78 491.242 554.581 C 487.968 561.071 485.851 567.952 483.976 574.953 C 496.622 559.535 513.322 539.163 534.63 536.914 C 537.429 536.618 541.754 536.283 544.103 538.049 C 545.696 539.248 545.47 540.389 545.72 542.207 C 543.942 548.193 538.652 551.879 533.411 554.747 C 520.501 561.813 498.967 569.576 484.5 572.441 C 477.007 584.69 470.225 597.883 463.961 610.806 C 478.906 594.882 497.902 578.164 520.977 577.336 C 526.264 577.147 532.384 578.049 536.391 581.791 C 537.915 583.214 538.972 585.067 539.037 587.188 C 539.116 589.76 537.597 592.071 535.713 593.695 C 526.266 601.834 477.894 608.603 462.492 613.996 A 1584.13 1584.13 0 0 0 441.558 649.311 C 458.356 634.914 482.212 624.245 504.618 625.998 C 511.033 626.5 518.823 628.426 523.077 633.644 C 524.673 635.602 525.629 637.932 525.198 640.482 C 524.66 643.67 522.24 645.838 519.64 647.494 C 515.904 649.873 511.109 650.959 506.782 651.577 C 496.121 653.098 452.957 654.04 443.106 651.595 C 442.036 651.329 441.242 650.884 440.339 650.273 C 429.84 672.075 412.308 690.974 402.179 712.909 L 402.445 714.303 L 403.049 715.052 C 406.317 715.703 412.715 712.577 415.998 711.415 C 428.191 720.39 471.4 731.583 488.415 738.322 C 491.889 730.699 495.191 721.712 503.923 718.826 C 506.818 717.869 509.929 718.03 512.561 719.642 C 515.282 721.309 516.818 724.32 517.434 727.37 C 518.847 734.37 516.029 742.419 513.068 748.698 C 521.069 752.04 529.369 754.242 537.379 757.396 C 537.215 744.723 534.356 716.479 543.043 706.987 C 544.826 705.038 547.177 703.94 549.833 704.038 C 553.036 704.155 556.167 705.576 558.209 708.061 C 562.646 713.459 561.986 722.838 561.073 729.3 C 559.517 740.302 555.783 751.435 551.536 761.675 C 557.088 762.113 562.27 762.866 567.681 764.192 C 574.769 761.034 581.287 757.292 587.818 753.114 C 584.128 737.468 571.901 699.718 579.848 686.369 C 580.546 685.197 581.321 684.58 582.424 683.819 C 585.24 683.477 586.479 683.426 588.989 685.13 C 595.437 689.51 598.208 700.074 599.092 707.317 C 600.858 721.798 598.032 735.417 593.733 749.134 C 606.054 739.364 617.017 728.911 627.814 717.493 C 617.572 704.46 604.152 682.244 606.44 665.222 C 606.876 661.977 607.881 658.986 610.612 657.006 C 612.077 655.943 613.064 656.071 614.819 655.929 C 619.222 657.553 621.714 660.68 623.642 664.855 C 630.354 679.384 629.205 701.029 628.072 716.774 C 634.663 708.909 641.47 701.133 647.344 692.71 C 644.099 682.84 629.264 635.327 632.46 628.217 C 633.082 626.835 634.228 625.769 635.332 624.768 C 637.753 624.096 638.979 623.67 641.366 624.973 C 645.95 627.476 648.114 635.12 649.063 639.893 C 652.392 656.637 650.337 676.53 647.254 693.207 C 655.051 680.543 668.572 643.162 682.457 640.594 C 683.688 640.366 684.611 640.633 685.781 640.991 C 688.142 643.766 688.975 646.059 688.548 649.869 C 687.77 656.806 683.612 664.142 679.364 669.523 C 670.408 680.869 658.332 686.836 648.489 696.731 C 643.172 702.075 638.864 709.087 634.339 715.127 C 625.468 726.967 615.342 737.719 603.475 746.605 C 592.181 755.062 579.829 762.186 567.81 769.556 L 559.39 773.408 C 552.339 776.67 545.238 779.6 537.987 782.389 C 522.931 787.357 507.639 791.917 492.683 797.146 C 522.334 800.023 555.175 805.981 575.361 830.369 C 578.371 834.004 582.146 839.905 581.691 844.803 C 581.45 847.395 580.425 849.386 578.284 850.898 C 574.666 853.453 568.359 852.458 564.331 851.399 C 541.425 845.374 503.55 814.165 482.72 799.459 C 460.15 805.343 436.754 808.863 414.638 816.347 C 379.095 829.371 349.614 841.992 317.397 862.254 C 310.238 866.756 301.19 871.828 295.556 878.204 C 282.805 892.635 264.712 931.902 255.875 950.982 C 236.875 992.006 223.632 1034.81 208.072 1077.1 C 204.946 1085.6 188.914 1120.29 190.371 1127.45 L 190.524 1128.22 C 190.65 1128.83 190.813 1129.44 190.976 1130.04 C 161.568 1149.97 136.921 1183.93 121.611 1215.57 C 111.733 1187.56 103.722 1159.36 92.7105 1131.68 C 98.809 1112.49 106.686 1093.44 117.331 1076.3 C 124.031 1065.51 132.683 1055.21 138.003 1043.68 L 137.013 1042.45 L 138.563 1041.41 L 138.108 1043.18 L 136.781 1042.63 C 114.69 1062.56 100.001 1096.75 89.9361 1124.15 C 85.022 1114.28 81.1635 1103.65 76.653 1093.57 A 593.615 593.615 0 0 0 52.5511 1045.8 C 53.0133 1028.61 55.9891 1011.17 62.0202 995.024 C 64.2461 989.066 67.7061 983.678 69.4181 977.531 L 68.3048 976.764 C 67.5358 977.077 66.9279 977.324 66.3137 977.903 C 55.741 987.883 49.3478 1025.02 48.1297 1039.45 C 34.6686 1013.58 18.6916 988.144 0 965.714 L 0 922.009 L 0 727.818 L 0 629.097 L 0 572.694 L 0 548.763 L 0 480.247 L 0 471.471 C 45.8312 517.286 78.1384 570.002 87.2926 634.904 C 105.778 635.824 124.041 637.464 142.438 639.507 C 146.475 622.629 152.307 606.083 157.72 589.599 C 141.032 545.942 126.851 500.264 123.899 453.361 C 96.4951 440.021 64.3197 419.246 47.2144 393.266 C 43.5363 387.68 39.8018 380.229 41.4869 373.35 C 42.185 370.5 43.9537 368.071 46.6108 366.762 C 50.204 364.994 54.575 365.557 58.2532 366.754 C 89.9519 377.065 109.561 422.028 123.406 449.506 C 120.43 427.13 120.493 404.523 120.968 382.002 C 101.727 372.895 84.0422 363.656 67.9873 349.492 C 60.5192 342.904 46.3503 330.4 46.5079 319.771 C 46.5528 316.744 47.5064 315.788 49.3998 313.682 C 52.5609 312.378 54.9945 312.289 58.3214 313.131 C 85.3737 319.979 107.049 351.384 120.256 374.096 A 359.811 359.811 0 0 1 122.647 331.56 C 123.117 328.927 123.307 327.035 122.8 324.397 C 102.519 313.999 83.3507 298.849 70.1758 280.11 C 66.0894 274.298 59.7891 264.346 61.7136 256.814 C 62.4306 254.007 63.6824 253.246 65.892 251.682 C 68.3283 251.184 70.2884 251.154 72.674 251.966 C 97.3472 260.36 113.718 301.064 123.603 322.937 C 124.86 306.9 126.558 291.1 128.975 275.197 C 109.707 264.925 89.001 248.115 78.9297 228.343 C 76.908 224.374 74.6982 218.323 76.5716 213.995 C 77.5354 211.769 79.1639 210.316 81.5235 209.732 C 84.133 209.086 87.2483 210.298 89.5205 211.483 C 109.999 222.16 122.333 254.46 129.165 275.313 C 130.119 261.32 133.407 247.178 135.624 233.31 C 133.74 232.037 131.936 230.684 130.256 229.149 C 117.316 217.326 96.3565 194.177 96.1621 176.13 C 96.1249 172.674 96.9371 169.92 99.2765 167.374 C 101.514 166.718 102.237 166.402 104.541 167.206 C 115.226 170.933 124.412 195.199 127.529 205.638 C 129.764 213.125 130.785 221.644 134.243 228.643 L 135.613 228.843 C 141.044 220.949 143.002 204.069 145.294 194.404 A 135.865 135.865 0 0 1 130.695 176.07 C 123.747 165.646 110.728 144.404 114.294 131.644 C 115.026 129.024 115.898 128.393 118.196 127.178 C 120.597 127.303 122.152 127.692 124.165 129.073 C 137.836 138.458 142.449 176.996 145.821 192.378 z"/>
<path transform="translate(0,0)" fill="rgb(246,211,200)" d="M 551.536 761.675 C 557.088 762.113 562.27 762.866 567.681 764.192 L 555.988 769.989 L 546.528 773.929 C 548.287 769.887 549.884 765.762 551.536 761.675 z"/>
<path transform="translate(0,0)" fill="rgb(252,249,235)" d="M 153.544 640.639 A 565.019 565.019 0 0 1 162.768 605.51 C 167.883 618.138 173.009 630.715 178.485 643.191 C 170.111 642.654 161.862 641.744 153.544 640.639 z"/>
<path transform="translate(0,0)" fill="rgb(246,180,174)" d="M 153.544 640.639 C 161.862 641.744 170.111 642.654 178.485 643.191 L 180.978 652.893 C 167.332 668.938 156.485 687.336 145.461 705.224 C 146.822 683.514 150.13 662.098 153.544 640.639 z"/>
<path transform="translate(0,0)" fill="rgb(246,180,174)" d="M 472.476 795.974 C 487.621 780.708 502.074 767.561 513.068 748.698 C 521.069 752.04 529.369 754.242 537.379 757.396 L 537.657 778.229 C 515.701 783.431 494.6 791.057 472.476 795.974 z"/>
<path transform="translate(0,0)" fill="rgb(246,211,200)" d="M 0 572.694 C 16.6273 589.032 32.9766 606.911 47.0809 625.504 C 31.5094 627.69 15.4131 626.434 0 629.097 L 0 572.694 z"/>
<path transform="translate(0,0)" fill="rgb(233,120,147)" d="M 312.94 850.647 C 323.582 831.449 335.518 812.88 347.113 794.248 C 360.788 798.758 387.804 805.393 398.519 812.969 C 367.647 821.93 339.945 832.966 312.94 850.647 z"/>
<path transform="translate(0,0)" fill="rgb(246,180,174)" d="M 87.2926 634.904 C 105.778 635.824 124.041 637.464 142.438 639.507 C 134.202 668.22 131.098 698.274 127.521 727.85 C 121.02 714.362 114.647 700.701 107.327 687.636 C 102.332 678.721 92.7295 666.61 89.8208 657.316 C 87.6955 650.524 87.8398 642.013 87.2926 634.904 z"/>
<path transform="translate(0,0)" fill="rgb(246,180,174)" d="M 187.745 667.489 C 198.609 697.233 206.937 726.76 213.727 757.67 C 190.933 753.042 167.724 749.186 145.147 743.642 C 154.501 720.282 170.18 685.53 187.745 667.489 z"/>
<path transform="translate(0,0)" fill="rgb(252,249,235)" d="M 0 480.247 C 28.2925 515.378 43.4396 541.723 58.223 584.438 C 63.2646 599.005 68.1092 613.915 71.4629 628.974 C 49.0541 600.341 25.8264 574.388 0 548.763 L 0 480.247 z"/>
<path transform="translate(0,0)" fill="rgb(233,120,147)" d="M 233.243 763.147 C 257.219 767.917 280.51 774.267 303.881 781.425 C 314.35 784.631 325.331 789.602 335.999 791.648 C 300.406 835.63 271.353 883.945 242.371 932.37 C 243.244 919.351 244.653 906.377 245.007 893.323 C 246.204 849.231 241.096 806.438 233.243 763.147 z"/>
<path transform="translate(0,0)" fill="rgb(246,180,174)" d="M 47.0809 625.504 C 72.5979 660.156 93.7461 696.163 109.699 736.19 C 106.203 737.577 53.2376 730.005 44.4955 729.312 C 29.6535 728.135 14.8763 727.887 0 727.818 L 0 629.097 C 15.4131 626.434 31.5094 627.69 47.0809 625.504 z"/>
<path transform="translate(0,0)" fill="rgb(246,180,174)" d="M 402.445 714.303 L 403.049 715.052 C 406.317 715.703 412.715 712.577 415.998 711.415 C 428.191 720.39 471.4 731.583 488.415 738.322 C 480.178 757.785 474.149 778.12 465.75 797.477 C 442.842 800.593 420.594 806.186 398.519 812.969 C 387.804 805.393 360.788 798.758 347.113 794.248 C 364.722 766.806 385.753 740.993 402.179 712.909 L 402.445 714.303 z"/>
<path transform="translate(0,0)" fill="rgb(246,180,174)" d="M 200.14 648.738 C 215.771 653.518 233.146 654.94 249.168 658.555 C 271.234 663.533 293.083 670.008 314.851 676.145 C 336.802 682.333 359.523 688.11 380.535 697.024 C 383.089 705.493 384.471 713.62 385.121 722.451 L 335.999 791.648 C 325.331 789.602 314.35 784.631 303.881 781.425 C 280.51 774.267 257.219 767.917 233.243 763.147 C 227.71 741.983 223.505 720.739 216.644 699.894 C 211.571 684.481 203.87 669.379 199.587 653.838 C 198.84 651.13 198.724 651.244 200.14 648.738 z"/>
<path transform="translate(0,0)" fill="rgb(233,120,147)" d="M 138.368 762.913 A 693.121 693.121 0 0 0 145.147 743.642 C 167.724 749.186 190.933 753.042 213.727 757.67 C 218.434 783.802 222.705 809.561 224.291 836.122 C 229.368 921.129 213.077 1019.51 176.478 1096.69 C 169.139 1084.77 161.959 1072.72 153.828 1061.32 C 182.535 955.464 171.094 866.023 138.368 762.913 z"/>
<path transform="translate(0,0)" fill="rgb(233,120,147)" d="M 0 727.818 C 14.8763 727.887 29.6535 728.135 44.4955 729.312 C 53.2376 730.005 106.203 737.577 109.699 736.19 A 477.51 477.51 0 0 1 129.856 1030.37 C 93.696 987.907 47.5568 951.001 0 922.009 L 0 727.818 z"/>
<path transform="translate(0,0)" fill="rgb(252,249,235)" d="M 934.486 0 L 951.56 0 L 1124.15 0 L 1140.64 0 L 1290.87 0 L 1573.62 0 L 1590.62 0 L 1885.66 0 L 1902.63 0 L 2046.7 0 L 2047.67 0 C 2049.6 34.6767 2048.01 70.3155 2048 105.074 L 2048 308.654 L 2048.08 409.446 C 2048.09 421.588 2049.92 444.229 2047.25 454.837 C 2049.94 468.224 2048.04 506.354 2048.03 522.245 L 2048.01 586.611 C 2048 597.961 2048.59 609.694 2047.75 621 L 2046.75 621.158 C 2042.27 619.539 2028.71 625.437 2023.79 627.031 A 1221.55 1221.55 0 0 0 1880.47 683.415 C 1863.54 691.37 1847.17 700.147 1830.84 709.271 C 1821.75 714.35 1811.55 721.76 1801.85 725.042 C 1814.14 734.101 1826.54 743.132 1839.52 751.197 C 1847.78 756.33 1870.08 767.675 1875.77 773.189 L 1875.45 775.443 C 1871 778.121 1865.85 781.657 1860.83 783.054 C 1855.18 777.038 1839.44 771.408 1831.76 766.528 C 1818.69 758.224 1796.05 738.598 1783.76 733.092 C 1783.3 731.973 1733.55 688.651 1726.83 681.952 A 507.386 507.386 0 0 1 1699.55 652.177 C 1691.45 642.536 1671.47 615.043 1662.57 609.046 C 1662.81 605.253 1643.84 579.717 1640.66 574.912 C 1627.13 554.443 1615.01 531.814 1604.45 509.678 C 1599.7 499.715 1586.95 466.297 1581.82 460.175 C 1563.89 456.949 1545.11 455.424 1527.01 452.805 A 676.472 676.472 0 0 1 1427.68 494.495 C 1420.42 496.905 1411.57 500.472 1403.94 501.144 C 1398.19 498.077 1394.09 492.771 1387.96 489.926 C 1392.99 486.398 1402.41 484.78 1408.37 482.925 C 1425.78 477.509 1471.68 464.592 1484.14 454.152 C 1435.17 452.674 1386.11 442.865 1338.9 430.363 C 1332.79 427.386 1325.3 425.673 1318.8 423.52 A 690.374 690.374 0 0 1 1284.48 411.106 A 568.388 568.388 0 0 1 1164.28 344.622 A 583.3 583.3 0 0 1 952.446 61.8358 C 945.506 41.7676 938.058 20.9702 934.486 0 z"/>
<path transform="translate(0,0)" fill="rgb(155,128,168)" d="M 1124.15 0 L 1140.64 0 C 1158.88 85.0156 1182.24 143.433 1232.13 215.119 C 1243.47 231.408 1256.33 250.1 1270.54 263.991 C 1323.83 323.17 1386.26 374.522 1459.23 407.667 C 1469.73 412.435 1520.8 429.849 1524.81 433.087 C 1524.01 435.543 1522.69 436.016 1520.44 437.111 C 1508.9 442.739 1499.46 438.381 1487.9 437.166 C 1487.73 437.272 1487.56 437.403 1487.37 437.484 C 1483.94 438.941 1474.57 437.351 1470.47 437.066 C 1424.37 433.857 1367.17 424.54 1323.9 408.448 C 1324.42 407.316 1324.31 406.153 1323.83 404.996 C 1319.4 394.175 1312.33 383.759 1307.39 372.99 C 1296.17 348.551 1287.44 323.47 1279.47 297.821 C 1274.5 290.193 1266.09 282.994 1259.89 276.145 A 553.543 553.543 0 0 1 1231.87 242.127 C 1178.44 171.97 1137.96 87.4829 1124.15 0 z"/>
<path transform="translate(0,0)" fill="rgb(246,180,174)" d="M 1279.47 297.821 C 1323.03 343.185 1374.43 383.247 1430.52 411.971 A 548.542 548.542 0 0 0 1459.61 425.752 C 1466.38 428.649 1483 433.224 1487.9 437.166 C 1487.73 437.272 1487.56 437.403 1487.37 437.484 C 1483.94 438.941 1474.57 437.351 1470.47 437.066 C 1424.37 433.857 1367.17 424.54 1323.9 408.448 C 1324.42 407.316 1324.31 406.153 1323.83 404.996 C 1319.4 394.175 1312.33 383.759 1307.39 372.99 C 1296.17 348.551 1287.44 323.47 1279.47 297.821 z"/>
<path transform="translate(0,0)" fill="rgb(252,249,235)" d="M 1140.64 0 L 1290.87 0 C 1264.46 65.0708 1255.61 141.756 1262.33 211.394 C 1264.04 229.134 1268.23 246.384 1270.54 263.991 C 1256.33 250.1 1243.47 231.408 1232.13 215.119 C 1182.24 143.433 1158.88 85.0156 1140.64 0 z"/>
<path transform="translate(0,0)" fill="rgb(233,120,147)" d="M 934.486 0 L 951.56 0 A 565.298 565.298 0 0 0 1201.59 350.653 C 1239.69 374.484 1281.02 394.836 1323.9 408.448 C 1367.17 424.54 1424.37 433.857 1470.47 437.066 C 1474.57 437.351 1483.94 438.941 1487.37 437.484 C 1487.56 437.403 1487.73 437.272 1487.9 437.166 C 1499.46 438.381 1508.9 442.739 1520.44 437.111 C 1522.69 436.016 1524.01 435.543 1524.81 433.087 C 1526.35 433.121 1527.91 433.011 1529.39 432.556 C 1535.62 430.637 1563.6 417.637 1565.95 412.948 C 1567.06 412.926 1567.97 412.773 1569.02 412.373 C 1572.61 410.993 1578.27 408.479 1579.83 404.959 C 1588.55 403.185 1601.13 393.219 1608.66 388.362 C 1676.05 344.893 1739.65 283.316 1785.87 217.665 C 1826.88 159.427 1854.59 101.374 1877.02 33.9778 C 1879.78 25.6839 1887.07 8.07967 1885.66 0 L 1902.63 0 C 1904.12 8.56809 1896.36 28.3431 1893.4 37.0053 C 1870.2 105.011 1839.57 169.706 1798.01 228.559 C 1759.77 282.712 1704.49 338.957 1651.17 378.658 C 1629.76 394.601 1607.02 407.969 1585.09 423.056 C 1580.99 426.161 1576.66 428.515 1571.83 430.318 C 1565.12 433.638 1558.54 436.979 1552.12 440.85 C 1544.59 446.174 1534.05 447.202 1527.01 452.805 A 676.472 676.472 0 0 1 1427.68 494.495 C 1420.42 496.905 1411.57 500.472 1403.94 501.144 C 1398.19 498.077 1394.09 492.771 1387.96 489.926 C 1392.99 486.398 1402.41 484.78 1408.37 482.925 C 1425.78 477.509 1471.68 464.592 1484.14 454.152 C 1435.17 452.674 1386.11 442.865 1338.9 430.363 C 1332.79 427.386 1325.3 425.673 1318.8 423.52 A 690.374 690.374 0 0 1 1284.48 411.106 A 568.388 568.388 0 0 1 1164.28 344.622 A 583.3 583.3 0 0 1 952.446 61.8358 C 945.506 41.7676 938.058 20.9702 934.486 0 z"/>
<path transform="translate(0,0)" fill="rgb(246,180,174)" d="M 1590.62 0 L 1885.66 0 C 1887.07 8.07967 1879.78 25.6839 1877.02 33.9778 C 1854.59 101.374 1826.88 159.427 1785.87 217.665 C 1739.65 283.316 1676.05 344.893 1608.66 388.362 C 1601.13 393.219 1588.55 403.185 1579.83 404.959 C 1580.38 398.86 1571.83 374.518 1570.07 367.2 C 1566.86 353.774 1563.86 340.109 1561.53 326.503 A 655.033 655.033 0 0 1 1552.28 183.092 A 581.373 581.373 0 0 1 1574.05 52.5142 C 1576.59 43.79 1591.24 3.31463 1590.62 0 z"/>
<path transform="translate(0,0)" fill="rgb(246,180,174)" d="M 1290.87 0 L 1573.62 0 L 1590.62 0 C 1591.24 3.31463 1576.59 43.79 1574.05 52.5142 A 581.373 581.373 0 0 0 1552.28 183.092 A 655.033 655.033 0 0 0 1561.53 326.503 C 1563.86 340.109 1566.86 353.774 1570.07 367.2 C 1571.83 374.518 1580.38 398.86 1579.83 404.959 C 1578.27 408.479 1572.61 410.993 1569.02 412.373 C 1567.97 412.773 1567.06 412.926 1565.95 412.948 C 1563.6 417.637 1535.62 430.637 1529.39 432.556 C 1527.91 433.011 1526.35 433.121 1524.81 433.087 C 1520.8 429.849 1469.73 412.435 1459.23 407.667 C 1386.26 374.522 1323.83 323.17 1270.54 263.991 C 1268.23 246.384 1264.04 229.134 1262.33 211.394 C 1255.61 141.756 1264.46 65.0708 1290.87 0 z"/>
<path transform="translate(0,0)" fill="rgb(155,128,168)" d="M 1573.62 0 L 1590.62 0 C 1591.24 3.31463 1576.59 43.79 1574.05 52.5142 A 581.373 581.373 0 0 0 1552.28 183.092 A 655.033 655.033 0 0 0 1561.53 326.503 C 1563.86 340.109 1566.86 353.774 1570.07 367.2 C 1571.83 374.518 1580.38 398.86 1579.83 404.959 C 1578.27 408.479 1572.61 410.993 1569.02 412.373 C 1567.97 412.773 1567.06 412.926 1565.95 412.948 C 1566.26 410.474 1549.78 350.429 1548.06 341.006 C 1531.8 251.88 1530.78 160.448 1552.54 72.025 C 1558.08 49.5302 1566.01 28.0259 1572.92 5.97351 C 1573.61 3.75791 1573.91 2.35089 1573.62 0 z"/>
<path transform="translate(0,0)" fill="rgb(246,180,174)" d="M 1902.63 0 L 2046.7 0 L 2047.67 0 C 2049.6 34.6767 2048.01 70.3155 2048 105.074 L 2048 308.654 L 2048.08 409.446 C 2048.09 421.588 2049.92 444.229 2047.25 454.837 C 2049.94 468.224 2048.04 506.354 2048.03 522.245 L 2048.01 586.611 C 2048 597.961 2048.59 609.694 2047.75 621 L 2046.75 621.158 C 2042.27 619.539 2028.71 625.437 2023.79 627.031 A 1221.55 1221.55 0 0 0 1880.47 683.415 C 1863.54 691.37 1847.17 700.147 1830.84 709.271 C 1821.75 714.35 1811.55 721.76 1801.85 725.042 C 1814.14 734.101 1826.54 743.132 1839.52 751.197 C 1847.78 756.33 1870.08 767.675 1875.77 773.189 L 1875.45 775.443 C 1871 778.121 1865.85 781.657 1860.83 783.054 C 1855.18 777.038 1839.44 771.408 1831.76 766.528 C 1818.69 758.224 1796.05 738.598 1783.76 733.092 C 1783.3 731.973 1733.55 688.651 1726.83 681.952 A 507.386 507.386 0 0 1 1699.55 652.177 C 1691.45 642.536 1671.47 615.043 1662.57 609.046 C 1662.81 605.253 1643.84 579.717 1640.66 574.912 C 1627.13 554.443 1615.01 531.814 1604.45 509.678 C 1599.7 499.715 1586.95 466.297 1581.82 460.175 C 1563.89 456.949 1545.11 455.424 1527.01 452.805 C 1534.05 447.202 1544.59 446.174 1552.12 440.85 C 1558.54 436.979 1565.12 433.638 1571.83 430.318 C 1576.66 428.515 1580.99 426.161 1585.09 423.056 C 1607.02 407.969 1629.76 394.601 1651.17 378.658 C 1704.49 338.957 1759.77 282.712 1798.01 228.559 C 1839.57 169.706 1870.2 105.011 1893.4 37.0053 C 1896.36 28.3431 1904.12 8.56809 1902.63 0 z"/>
<path transform="translate(0,0)" fill="rgb(155,128,168)" d="M 1592.03 444.847 C 1632.74 445.685 1672.78 447.043 1713.43 442.865 C 1836.43 430.221 1951.78 373.801 2044.81 293.817 L 2045.87 294.14 C 2047.41 299.368 2048.05 308.949 2045.52 313.863 C 2042.52 319.582 2027.87 329.376 2021.94 333.921 A 629.802 629.802 0 0 1 1822.15 436.683 C 1749.39 459.412 1675.18 464.848 1599.36 461.395 C 1605.37 468.427 1609.61 483.842 1613.88 492.802 C 1622.39 510.666 1631.43 528.733 1641.33 545.874 C 1648.66 558.565 1657.21 570.902 1665.71 582.853 C 1670.95 590.217 1681.71 602.052 1684.72 610.051 C 1691.82 616.837 1697.84 625.212 1704.12 632.765 A 468.75 468.75 0 0 0 1729.14 660.62 A 509.473 509.473 0 0 0 1769.68 699.129 C 1780.22 707.995 1791.41 716.09 1801.85 725.042 C 1814.14 734.101 1826.54 743.132 1839.52 751.197 C 1847.78 756.33 1870.08 767.675 1875.77 773.189 L 1875.45 775.443 C 1871 778.121 1865.85 781.657 1860.83 783.054 C 1855.18 777.038 1839.44 771.408 1831.76 766.528 C 1818.69 758.224 1796.05 738.598 1783.76 733.092 C 1783.3 731.973 1733.55 688.651 1726.83 681.952 A 507.386 507.386 0 0 1 1699.55 652.177 C 1691.45 642.536 1671.47 615.043 1662.57 609.046 C 1662.81 605.253 1643.84 579.717 1640.66 574.912 C 1627.13 554.443 1615.01 531.814 1604.45 509.678 C 1599.7 499.715 1586.95 466.297 1581.82 460.175 C 1563.89 456.949 1545.11 455.424 1527.01 452.805 C 1534.05 447.202 1544.59 446.174 1552.12 440.85 C 1558.54 436.979 1565.12 433.638 1571.83 430.318 C 1576.66 428.515 1580.99 426.161 1585.09 423.056 C 1585.95 423.861 1586.57 424.471 1587.19 425.482 C 1589.85 429.825 1593.32 440 1592.03 444.847 z"/>
<path transform="translate(0,0)" fill="rgb(246,180,174)" d="M 1552.12 440.85 C 1558.54 436.979 1565.12 433.638 1571.83 430.318 C 1573.92 433.357 1577.46 439.709 1577.38 443.241 L 1552.12 440.85 z"/>
<path transform="translate(0,0)" fill="rgb(252,249,235)" d="M 2045.7 455 L 2047.25 454.837 C 2049.94 468.224 2048.04 506.354 2048.03 522.245 L 2048.01 586.611 C 2048 597.961 2048.59 609.694 2047.75 621 L 2046.75 621.158 C 2042.27 619.539 2028.71 625.437 2023.79 627.031 A 1221.55 1221.55 0 0 0 1880.47 683.415 C 1863.54 691.37 1847.17 700.147 1830.84 709.271 C 1821.75 714.35 1811.55 721.76 1801.85 725.042 C 1791.41 716.09 1780.22 707.995 1769.68 699.129 A 509.473 509.473 0 0 1 1729.14 660.62 A 468.75 468.75 0 0 1 1704.12 632.765 C 1697.84 625.212 1691.82 616.837 1684.72 610.051 C 1693.87 607.762 1706.49 610.001 1716.15 609.629 A 391.475 391.475 0 0 0 1765.3 604.518 C 1857.84 589.63 1930.3 557.283 2002.01 496.886 C 2016.8 484.426 2034.39 470.661 2045.7 455 z"/>
<path transform="translate(0,0)" fill="rgb(246,180,174)" d="M 1902.63 0 L 2046.7 0 L 2047.67 0 C 2049.6 34.6767 2048.01 70.3155 2048 105.074 L 2048 308.654 L 2048.08 409.446 C 2048.09 421.588 2049.92 444.229 2047.25 454.837 L 2045.7 455 C 2045.93 454.569 2046.31 453.91 2046.47 453.41 C 2048.14 448.169 2047.62 332.315 2046.86 318.616 C 2046.76 316.831 2046.33 315.455 2045.52 313.863 C 2048.05 308.949 2047.41 299.368 2045.87 294.14 L 2044.81 293.817 C 1951.78 373.801 1836.43 430.221 1713.43 442.865 C 1672.78 447.043 1632.74 445.685 1592.03 444.847 C 1593.32 440 1589.85 429.825 1587.19 425.482 C 1586.57 424.471 1585.95 423.861 1585.09 423.056 C 1607.02 407.969 1629.76 394.601 1651.17 378.658 C 1704.49 338.957 1759.77 282.712 1798.01 228.559 C 1839.57 169.706 1870.2 105.011 1893.4 37.0053 C 1896.36 28.3431 1904.12 8.56809 1902.63 0 z"/>
<path transform="translate(0,0)" fill="rgb(252,249,235)" d="M 2046.7 0 L 2047.67 0 C 2049.6 34.6767 2048.01 70.3155 2048 105.074 L 2048 308.654 L 2048.08 409.446 C 2048.09 421.588 2049.92 444.229 2047.25 454.837 L 2045.7 455 C 2045.93 454.569 2046.31 453.91 2046.47 453.41 C 2048.14 448.169 2047.62 332.315 2046.86 318.616 C 2046.76 316.831 2046.33 315.455 2045.52 313.863 C 2048.05 308.949 2047.41 299.368 2045.87 294.14 C 2048.87 282.491 2046.95 226.857 2046.96 210.343 C 2047.02 140.281 2048.01 70.042 2046.7 0 z"/>
<path transform="translate(0,0)" fill="rgb(155,128,168)" d="M 1801.85 725.042 C 1811.55 721.76 1821.75 714.35 1830.84 709.271 C 1847.17 700.147 1863.54 691.37 1880.47 683.415 A 1221.55 1221.55 0 0 1 2023.79 627.031 C 2028.71 625.437 2042.27 619.539 2046.75 621.158 L 2047.75 621 C 2048.9 652.779 2048.03 684.864 2048.03 716.671 L 2048.04 895.761 L 2048.03 1134.3 C 2048.03 1175.1 2048.73 1216.03 2047.96 1256.81 C 2047.91 1259.49 2047.75 1261.51 2046.65 1264.01 C 2049.05 1269.42 2049.43 1356.67 2047.38 1362.74 C 2047.11 1363.55 2046.7 1364.28 2046.25 1365 L 0 1365 L 0 1362.05 L 0 1260.1 L 0 1256.28 L 0 1171.9 L 0 1167.21 L 0 1090.3 L 0 1085.16 L 0 1021.29 L 0 1015.88 L 0 973.103 L 0 965.714 C 18.6916 988.144 34.6686 1013.58 48.1297 1039.45 C 49.3478 1025.02 55.741 987.883 66.3137 977.903 C 66.9279 977.324 67.5358 977.077 68.3048 976.764 L 69.4181 977.531 C 67.7061 983.678 64.2461 989.066 62.0202 995.024 C 55.9891 1011.17 53.0133 1028.61 52.5511 1045.8 A 593.615 593.615 0 0 1 76.653 1093.57 C 81.1635 1103.65 85.022 1114.28 89.9361 1124.15 C 100.001 1096.75 114.69 1062.56 136.781 1042.63 L 138.108 1043.18 L 138.563 1041.41 L 137.013 1042.45 L 138.003 1043.68 C 132.683 1055.21 124.031 1065.51 117.331 1076.3 C 106.686 1093.44 98.809 1112.49 92.7105 1131.68 C 103.722 1159.36 111.733 1187.56 121.611 1215.57 C 136.921 1183.93 161.568 1149.97 190.976 1130.04 C 190.813 1129.44 190.65 1128.83 190.524 1128.22 L 190.371 1127.45 C 188.914 1120.29 204.946 1085.6 208.072 1077.1 C 223.632 1034.81 236.875 992.006 255.875 950.982 C 264.712 931.902 282.805 892.635 295.556 878.204 C 301.19 871.828 310.238 866.756 317.397 862.254 C 349.614 841.992 379.095 829.371 414.638 816.347 C 436.754 808.863 460.15 805.343 482.72 799.459 C 503.55 814.165 541.425 845.374 564.331 851.399 C 568.359 852.458 574.666 853.453 578.284 850.898 C 580.425 849.386 581.45 847.395 581.691 844.803 C 582.146 839.905 578.371 834.004 575.361 830.369 C 555.175 805.981 522.334 800.023 492.683 797.146 C 507.639 791.917 522.931 787.357 537.987 782.389 C 545.238 779.6 552.339 776.67 559.39 773.408 L 567.81 769.556 C 577.812 773.497 588.347 775.921 598.386 779.915 C 617.719 783.417 633.333 786.468 648.953 799.242 C 688.087 812.417 725.702 833.468 762.072 852.821 C 803.337 811.961 859.144 774.893 919.251 775.162 C 1020.96 775.618 1053.02 863.008 1133.99 900.378 C 1160.92 912.808 1191.45 917.794 1220.97 918.202 C 1221 893.971 1224.29 827.005 1235.5 808.816 C 1244.87 793.599 1256.2 786.701 1263.01 768.269 C 1275.91 775.447 1285.93 788.665 1297.52 797.83 C 1302.85 826.074 1296.69 858.899 1296.7 887.787 C 1303.31 895.083 1309.6 902.571 1315.81 910.208 C 1357.36 911.908 1384.38 921.248 1415.4 950.103 C 1415.65 951.083 1415.93 951.878 1415.85 952.895 C 1419.27 954.38 1423.15 956.149 1424.7 959.81 C 1424.87 960.212 1425.02 960.627 1425.17 961.036 C 1425.36 960.817 1425.55 960.599 1425.73 960.378 C 1432.36 952.378 1436.14 943.703 1444.8 937.244 C 1449.08 934.049 1454.5 932.12 1458.55 928.807 C 1458.05 933.483 1444.03 955.328 1440.22 958.577 C 1440 958.767 1439.76 958.942 1439.53 959.124 C 1449.98 954.431 1458.76 949.552 1470.01 946.616 C 1468.8 951.279 1459.58 958.005 1455.46 960.623 C 1462.3 960.22 1492.77 959.549 1496.71 957.044 C 1506.99 957.527 1517.96 956.179 1528.25 955.462 L 1582.19 951.714 C 1601.84 950.395 1622.73 951.067 1642.05 947.948 C 1647.44 944.516 1652.53 938.553 1657.21 934.125 C 1666.9 924.957 1676.54 915.851 1686.7 907.188 C 1724.54 874.899 1763.11 844.994 1804.86 817.904 C 1811.52 813.578 1859.05 785.89 1859.99 784.816 C 1860.42 784.326 1860.55 783.641 1860.83 783.054 C 1865.85 781.657 1871 778.121 1875.45 775.443 L 1875.77 773.189 C 1870.08 767.675 1847.78 756.33 1839.52 751.197 C 1826.54 743.132 1814.14 734.101 1801.85 725.042 z"/>
<path transform="translate(0,0)" fill="rgb(67,57,96)" d="M 1882.85 1040.05 C 1887.36 1040.37 1890.78 1042.51 1893.75 1045.85 C 1894.36 1046.53 1894.2 1046.35 1894.63 1047.17 C 1935.76 1046.7 1976.38 1046.64 2017.27 1051.84 C 2026.63 1053.03 2036.07 1053.87 2045.2 1056.33 C 2046.15 1058.42 2046.05 1058.31 2045.3 1060.5 C 2043.1 1061.79 2041.34 1062.07 2038.8 1061.97 C 2030.52 1061.63 2022.06 1059.32 2013.84 1058.19 C 2002.02 1056.57 1989.66 1055.89 1977.75 1055.15 C 1952.7 1053.58 1927.43 1054.01 1902.33 1053.91 C 1914.41 1061.15 1945.16 1088.77 1952.86 1100.6 L 1952.84 1103.07 C 1952.87 1103.24 1952.92 1103.42 1952.93 1103.59 C 1953.2 1109.03 1941.61 1130.72 1938.98 1136.85 C 1930.4 1156.88 1923.43 1177.98 1914.34 1197.69 C 1913.59 1199.31 1912.48 1200.75 1911.35 1202.11 C 1911.39 1201.65 1911.49 1200.89 1911.44 1200.39 C 1910.63 1192.87 1875.42 1124.03 1869.5 1119.37 C 1871.66 1115.6 1883.71 1045.1 1882.85 1040.05 z"/>
<path transform="translate(0,0)" fill="rgb(67,57,96)" d="M 1833.96 1007.49 C 1854.19 1002.16 1873.9 993.168 1893.78 986.53 C 1914.82 979.503 1936.23 973.828 1957.57 967.825 C 1979.15 961.756 2000.77 955.316 2022.7 950.675 C 2030.26 949.075 2037.38 945.206 2045.05 944.442 C 2046.49 946.227 2046.07 947.331 2046.06 949.576 C 2042.39 954.201 2011.74 960.107 2004.2 962.179 C 1974.93 970.217 1945.23 977.591 1916.26 986.599 C 1890.93 994.474 1865.75 1004.37 1840.09 1010.95 C 1847.39 1013.61 1868.89 1026.06 1873.16 1031.44 C 1888.13 1028.59 1902.42 1022.95 1917.2 1019.33 A 649.413 649.413 0 0 1 2016.77 1002.72 C 2025.6 1001.89 2036.35 999.502 2045.04 1000.45 L 2046.05 1002.12 L 2045.36 1004.49 C 2040.98 1008.15 2000.73 1011.13 1992.33 1012.28 C 1964 1016.16 1936.23 1022.15 1908.52 1029.15 C 1899.28 1031.48 1890.35 1035.13 1881.05 1037.05 C 1880 1037.64 1879.38 1037.61 1879.04 1038.82 C 1875.45 1051.68 1870.19 1103.13 1865.1 1109.73 C 1864.04 1098.5 1805.83 1010.61 1796.45 1003.17 C 1795.61 1002.5 1795.6 1002.55 1794.62 1002.01 L 1793.54 1003.25 C 1797.05 1014.33 1807.44 1025.69 1814 1035.32 C 1821.43 1046.2 1862.79 1106.72 1861.79 1116.37 C 1855.11 1112.61 1793.19 1092.72 1788.82 1092.49 L 1787.24 1093.99 C 1795.05 1102.86 1853.43 1114.16 1864.83 1122.49 C 1870.57 1127.46 1907.09 1197.96 1908.27 1206.31 C 1908.36 1206.96 1908.27 1207.99 1908.24 1208.59 C 1893.42 1200.94 1820.76 1179.58 1805.01 1177.56 L 1803.95 1178.32 C 1811.47 1185.08 1876.29 1202.35 1891.03 1207.27 C 1897.07 1209.29 1904.92 1211.01 1909.96 1214.88 C 1915.52 1220.67 1944.13 1293.93 1943.45 1302.67 C 1943.37 1303.71 1943.06 1304.68 1942.76 1305.67 C 1932.85 1300.7 1919.6 1298.15 1908.92 1294.98 A 1959.1 1959.1 0 0 0 1818.93 1270.06 C 1817.77 1275.62 1821.6 1279.8 1816.25 1283.86 C 1817.81 1285.65 1818.88 1287.16 1821.23 1287.81 L 1822.02 1285.79 C 1821.29 1281.96 1820.77 1278.34 1818.68 1274.98 C 1846.28 1279.73 1877.84 1290.4 1904.72 1298.6 C 1917.96 1302.64 1932.48 1305.89 1945.08 1311.45 C 1945.69 1312.08 1945.68 1312.03 1946.27 1312.89 C 1949.4 1317.47 1961.96 1356.76 1961.04 1362.02 L 1809.02 1362.02 C 1805.82 1356.14 1767.85 1328.46 1760.19 1324.56 C 1761.87 1320.5 1751.13 1279.45 1749.09 1273.62 C 1747.64 1269.47 1744.64 1262.93 1740.51 1260.97 C 1742.62 1273.96 1756.85 1311.34 1753.64 1321.19 C 1753.57 1321.41 1753.47 1321.63 1753.39 1321.84 C 1753.19 1321.45 1753 1321.05 1752.79 1320.66 C 1745.12 1306.82 1644.38 1255.11 1625.32 1249.64 C 1625.41 1249.19 1625.61 1248.45 1625.61 1247.95 C 1625.6 1241.84 1600.14 1177.8 1595.87 1172.86 C 1603.52 1170.48 1627.29 1176.77 1636.09 1178.51 C 1636.91 1173.83 1603.87 1082.38 1599.73 1075.62 C 1599.22 1074.79 1598.58 1074.14 1597.9 1073.44 C 1548.64 1074.75 1499.24 1073.69 1450.05 1075.33 C 1318.03 1079.76 1209.29 1106.39 1098.31 1180.43 C 1049.79 1212.81 1007.01 1252.74 957.937 1284.4 C 926.747 1304.52 894.609 1322.84 860.586 1337.75 C 850.951 1341.97 841.283 1346.24 831.44 1349.96 C 821.805 1353.59 807.938 1356.29 799.614 1362.03 L 798.78 1362.24 C 791.112 1361.65 783.217 1361.88 775.51 1361.62 C 804.096 1352.15 832.716 1342.27 860.225 1329.94 C 908.838 1308.15 955.542 1278.63 998.301 1247.05 C 1016.34 1233.73 1033.32 1218.98 1051.07 1205.27 C 1152.23 1127.2 1258.69 1082.7 1386.26 1071.34 C 1455.37 1065.19 1525.7 1066.85 1595.05 1066 C 1595.22 1065.4 1595.53 1064.47 1595.56 1063.8 C 1595.83 1058.61 1588.94 1039.94 1585.24 1036.41 C 1602.44 1039.96 1646.61 1054.16 1659.83 1064.11 C 1689.31 1055.52 1719.21 1048.51 1748.67 1039.81 C 1758.44 1036.92 1769.67 1034.49 1778.81 1030.09 C 1781.29 1024.04 1774.54 976.395 1771.37 968.797 C 1781.31 972.017 1826.71 1000.53 1833.96 1007.49 z"/>
<path transform="translate(0,0)" fill="rgb(155,128,168)" d="M 1782.03 1100.5 L 1784.79 1100.4 L 1786.21 1101.77 C 1788.12 1109.93 1793.37 1139.61 1790.21 1146.05 C 1787.66 1140.75 1776.6 1133.01 1771.36 1130.27 C 1768.68 1125.68 1751.26 1113.91 1746.02 1111.4 C 1757.71 1108.78 1771.26 1105.83 1782.03 1100.5 z"/>
<path transform="translate(0,0)" fill="url(#Gradient1)" d="M 1816.25 1283.86 C 1812.46 1275.38 1803.39 1267.34 1797.82 1259.79 C 1755.33 1202.24 1710.52 1148.19 1657.14 1100.36 C 1646.91 1091.18 1636.36 1080.74 1624.94 1073.1 C 1625.29 1073.26 1625.64 1073.43 1625.99 1073.59 C 1639.04 1079.34 1651.04 1090.01 1662.46 1098.57 C 1707.11 1132.05 1749.53 1166.82 1787 1208.4 C 1803.38 1226.57 1820.33 1243.53 1818.93 1270.06 C 1817.77 1275.62 1821.6 1279.8 1816.25 1283.86 z"/>
<path transform="translate(0,0)" fill="rgb(155,128,168)" d="M 1776.99 1036.5 L 1779.49 1036.61 C 1780.04 1037.19 1780.17 1037.24 1780.53 1038.08 C 1782.88 1043.58 1786.1 1088.41 1783.87 1093.21 C 1779.81 1097.42 1747.21 1105.31 1739.57 1107.4 C 1736.2 1100.99 1709.28 1086.6 1702.17 1084.02 C 1697.96 1078.7 1676.99 1070.43 1670.11 1067.74 C 1683.67 1066.21 1698.53 1060.68 1711.68 1056.92 C 1732.93 1050.85 1756.79 1045.47 1776.99 1036.5 z"/>
<path transform="translate(0,0)" fill="rgb(155,128,168)" d="M 799.614 1362.03 C 807.938 1356.29 821.805 1353.59 831.44 1349.96 C 841.283 1346.24 850.951 1341.97 860.586 1337.75 C 894.609 1322.84 926.747 1304.52 957.937 1284.4 C 1007.01 1252.74 1049.79 1212.81 1098.31 1180.43 C 1209.29 1106.39 1318.03 1079.76 1450.05 1075.33 C 1499.24 1073.69 1548.64 1074.75 1597.9 1073.44 C 1598.58 1074.14 1599.22 1074.79 1599.73 1075.62 C 1603.87 1082.38 1636.91 1173.83 1636.09 1178.51 C 1627.29 1176.77 1603.52 1170.48 1595.87 1172.86 C 1595.43 1171.96 1594.84 1171.77 1594.02 1171.23 L 1590.86 1172.98 L 1590.57 1171.96 C 1580.2 1166.52 1501.67 1164.13 1488.6 1168 C 1487.22 1167.26 1486.08 1167.81 1484.57 1168.08 C 1474.84 1162.94 1399.47 1180.61 1383.13 1183.28 C 1387.04 1185.69 1407.25 1204.1 1408.15 1207.48 C 1401.08 1212.54 1389.09 1215.34 1380.86 1218.47 A 562.434 562.434 0 0 0 1343.62 1233.75 C 1285.61 1259.98 1233.29 1290.76 1180.79 1326.67 C 1164.84 1337.58 1146.33 1349.25 1132.76 1362.92 C 1121.77 1361.32 1109.79 1362.19 1098.67 1362.21 L 1040.62 1362.28 L 888.471 1362.34 C 858.904 1362.36 829.16 1363.03 799.614 1362.03 z"/>
<path transform="translate(0,0)" fill="rgb(252,249,235)" d="M 2046.75 621.158 L 2047.75 621 C 2048.9 652.779 2048.03 684.864 2048.03 716.671 L 2048.04 895.761 L 2048.03 1134.3 C 2048.03 1175.1 2048.73 1216.03 2047.96 1256.81 C 2047.91 1259.49 2047.75 1261.51 2046.65 1264.01 C 2049.05 1269.42 2049.43 1356.67 2047.38 1362.74 C 2047.11 1363.55 2046.7 1364.28 2046.25 1365 L 0 1365 L 0 1362.05 L 0 1260.1 L 0 1256.28 L 0 1171.9 L 0 1167.21 L 0 1090.3 L 0 1085.16 L 0 1021.29 L 0 1015.88 L 0 973.103 L 0 965.714 C 18.6916 988.144 34.6686 1013.58 48.1297 1039.45 C 49.3478 1025.02 55.741 987.883 66.3137 977.903 C 66.9279 977.324 67.5358 977.077 68.3048 976.764 L 69.4181 977.531 C 67.7061 983.678 64.2461 989.066 62.0202 995.024 C 55.9891 1011.17 53.0133 1028.61 52.5511 1045.8 A 593.615 593.615 0 0 1 76.653 1093.57 C 81.1635 1103.65 85.022 1114.28 89.9361 1124.15 C 100.001 1096.75 114.69 1062.56 136.781 1042.63 L 138.108 1043.18 L 138.563 1041.41 L 137.013 1042.45 L 138.003 1043.68 C 132.683 1055.21 124.031 1065.51 117.331 1076.3 C 106.686 1093.44 98.809 1112.49 92.7105 1131.68 C 103.722 1159.36 111.733 1187.56 121.611 1215.57 C 136.921 1183.93 161.568 1149.97 190.976 1130.04 C 192.417 1131.46 193.404 1132.28 193.68 1134.4 A 729.212 729.212 0 0 1 206.163 1165.34 C 208.272 1159.79 210.78 1151.33 216.68 1148.63 C 218.562 1147.77 220.638 1147.77 222.554 1148.52 C 233.968 1152.99 240.281 1167.66 244.357 1178.26 C 256.923 1210.93 257.73 1244.15 256.289 1278.77 C 264.408 1259.72 273.279 1241.28 282.716 1222.84 C 261.742 1195.24 237.797 1142.64 242.753 1106.98 C 243.473 1101.8 245.328 1096.59 249.581 1093.25 C 251.679 1091.6 254.2 1090.62 256.891 1091.06 C 261.668 1091.86 265.057 1096.6 267.505 1100.4 C 277.611 1116.11 282.753 1135.66 285.465 1153.97 C 286.774 1162.81 287.869 1171.95 288.173 1180.87 C 288.385 1187.11 285.903 1208.32 288.132 1211.65 L 289.539 1209.79 C 295.29 1206.89 295.63 1197.03 300.838 1194.27 C 300.776 1198.09 292.054 1207.35 294.591 1210.24 A 998.06 998.06 0 0 0 286.529 1226.58 C 294.45 1223.86 302.202 1219.27 309.72 1215.58 C 326.533 1207.31 344.307 1200.14 362.98 1197.52 C 377.346 1195.51 391.084 1196.3 402.982 1205.2 C 412.095 1200.24 421.156 1195.07 430.579 1190.72 C 473.942 1168.03 525.264 1158.51 573.814 1157.45 C 558.672 1194.9 543.963 1231.55 526.128 1267.86 C 518.41 1283.14 504.72 1309.26 493.562 1321.89 L 491.15 1326.31 C 453.336 1312.18 414.921 1313.85 376.413 1323.22 C 366.591 1336.91 353.558 1348.23 343.815 1362.06 L 415.519 1362.04 C 427.811 1362.03 440.373 1362.61 452.619 1361.88 L 716.648 1362.35 C 733.253 1362.32 786.115 1365.09 798.78 1362.24 L 799.614 1362.03 C 829.16 1363.03 858.904 1362.36 888.471 1362.34 L 1040.62 1362.28 L 1098.67 1362.21 C 1109.79 1362.19 1121.77 1361.32 1132.76 1362.92 C 1146.33 1349.25 1164.84 1337.58 1180.79 1326.67 C 1233.29 1290.76 1285.61 1259.98 1343.62 1233.75 A 562.434 562.434 0 0 1 1380.86 1218.47 C 1389.09 1215.34 1401.08 1212.54 1408.15 1207.48 C 1407.25 1204.1 1387.04 1185.69 1383.13 1183.28 C 1399.47 1180.61 1474.84 1162.94 1484.57 1168.08 C 1486.08 1167.81 1487.22 1167.26 1488.6 1168 C 1501.67 1164.13 1580.2 1166.52 1590.57 1171.96 L 1590.86 1172.98 L 1594.02 1171.23 C 1594.84 1171.77 1595.43 1171.96 1595.87 1172.86 C 1600.14 1177.8 1625.6 1241.84 1625.61 1247.95 C 1625.61 1248.45 1625.41 1249.19 1625.32 1249.64 C 1644.38 1255.11 1745.12 1306.82 1752.79 1320.66 C 1753 1321.05 1753.19 1321.45 1753.39 1321.84 C 1753.47 1321.63 1753.57 1321.41 1753.64 1321.19 C 1756.85 1311.34 1742.62 1273.96 1740.51 1260.97 C 1744.64 1262.93 1747.64 1269.47 1749.09 1273.62 C 1751.13 1279.45 1761.87 1320.5 1760.19 1324.56 C 1767.85 1328.46 1805.82 1356.14 1809.02 1362.02 L 1961.04 1362.02 C 1961.96 1356.76 1949.4 1317.47 1946.27 1312.89 C 1945.68 1312.03 1945.69 1312.08 1945.08 1311.45 C 1932.48 1305.89 1917.96 1302.64 1904.72 1298.6 C 1877.84 1290.4 1846.28 1279.73 1818.68 1274.98 C 1820.77 1278.34 1821.29 1281.96 1822.02 1285.79 L 1821.23 1287.81 C 1818.88 1287.16 1817.81 1285.65 1816.25 1283.86 C 1821.6 1279.8 1817.77 1275.62 1818.93 1270.06 A 1959.1 1959.1 0 0 1 1908.92 1294.98 C 1919.6 1298.15 1932.85 1300.7 1942.76 1305.67 C 1943.06 1304.68 1943.37 1303.71 1943.45 1302.67 C 1944.13 1293.93 1915.52 1220.67 1909.96 1214.88 C 1904.92 1211.01 1897.07 1209.29 1891.03 1207.27 C 1876.29 1202.35 1811.47 1185.08 1803.95 1178.32 L 1805.01 1177.56 C 1820.76 1179.58 1893.42 1200.94 1908.24 1208.59 C 1908.27 1207.99 1908.36 1206.96 1908.27 1206.31 C 1907.09 1197.96 1870.57 1127.46 1864.83 1122.49 C 1853.43 1114.16 1795.05 1102.86 1787.24 1093.99 L 1788.82 1092.49 C 1793.19 1092.72 1855.11 1112.61 1861.79 1116.37 C 1862.79 1106.72 1821.43 1046.2 1814 1035.32 C 1807.44 1025.69 1797.05 1014.33 1793.54 1003.25 L 1794.62 1002.01 C 1795.6 1002.55 1795.61 1002.5 1796.45 1003.17 C 1805.83 1010.61 1864.04 1098.5 1865.1 1109.73 C 1870.19 1103.13 1875.45 1051.68 1879.04 1038.82 C 1879.38 1037.61 1880 1037.64 1881.05 1037.05 C 1882.03 1038.08 1882.61 1038.62 1882.85 1040.05 C 1883.71 1045.1 1871.66 1115.6 1869.5 1119.37 C 1875.42 1124.03 1910.63 1192.87 1911.44 1200.39 C 1911.49 1200.89 1911.39 1201.65 1911.35 1202.11 C 1912.48 1200.75 1913.59 1199.31 1914.34 1197.69 C 1923.43 1177.98 1930.4 1156.88 1938.98 1136.85 C 1941.61 1130.72 1953.2 1109.03 1952.93 1103.59 C 1952.92 1103.42 1952.87 1103.24 1952.84 1103.07 L 1955.97 1104.16 C 1955.98 1105.2 1956.02 1106 1955.75 1107.01 C 1962.87 1108.15 1981.33 1135.21 1986.11 1141.8 C 1992.76 1150.96 2018.28 1190.8 2019.33 1200.33 C 2018.58 1200.92 2017.85 1201.58 2017.01 1202.04 C 2018.01 1202.78 2019.08 1203.46 2019.93 1204.38 C 2020.57 1204.81 2021.78 1205.38 2022.27 1205.93 C 2025.96 1210.08 2043.45 1257.12 2044.57 1263.69 C 2044.64 1264.09 2044.63 1264.51 2044.65 1264.93 C 2045.63 1262.82 2045.94 1262.55 2045.51 1260.17 C 2045.66 1259.78 2045.83 1259.4 2045.97 1259.01 C 2048.68 1251.46 2046.4 1101.65 2046.41 1078.65 L 2046.37 973.014 C 2046.6 943.441 2047.55 913.652 2046.59 884.093 C 2046.51 881.846 2046.24 880.225 2045.32 878.171 C 2046.38 876.232 2046.87 874.219 2046.95 872.009 C 2048.03 844.682 2046.66 817.038 2046.71 789.662 A 15973 15973 0 0 0 2046.75 621.158 z"/>
<path transform="translate(0,0)" fill="rgb(67,57,96)" d="M 0 973.103 C 14.3889 992.394 27.1164 1012.51 40.0545 1032.78 A 2156.46 2156.46 0 0 1 0 1015.88 L 0 973.103 z"/>
<path transform="translate(0,0)" fill="rgb(67,57,96)" d="M 0 1021.29 C 14.9996 1026.95 29.2971 1034.28 44.2802 1039.86 C 59.9599 1066.64 73.9218 1096.25 84.7669 1125.31 C 57.9353 1107.35 29.7817 1096.77 0 1085.16 L 0 1021.29 z"/>
<path transform="translate(0,0)" fill="rgb(67,57,96)" d="M 427.844 1271.05 C 448.225 1266.85 468.858 1262.7 489.777 1262.94 C 498.846 1263.05 517.242 1268.37 524.85 1265.96 L 526.128 1267.86 C 518.41 1283.14 504.72 1309.26 493.562 1321.89 C 454.188 1308.96 422.569 1308.73 382.616 1317.07 C 396.243 1300.57 412.471 1285.89 427.844 1271.05 z"/>
<path transform="translate(0,0)" fill="rgb(67,57,96)" d="M 1488.6 1168 C 1501.67 1164.13 1580.2 1166.52 1590.57 1171.96 L 1590.86 1172.98 C 1595.96 1179.03 1619.77 1239.38 1619.31 1246.67 C 1611.91 1239.72 1529.32 1213.76 1515.35 1210.86 C 1515.1 1206.62 1492.44 1171.76 1488.6 1168 z"/>
<path transform="translate(0,0)" fill="rgb(67,57,96)" d="M 0 1090.3 C 31.0448 1100.12 61.2585 1114.05 87.9704 1132.81 C 100.066 1160.02 109.891 1190.15 117.055 1219.02 C 81.3004 1195.08 42.1659 1176.62 0 1167.21 L 0 1090.3 z"/>
<path transform="translate(0,0)" fill="rgb(67,57,96)" d="M 430.579 1190.72 C 473.942 1168.03 525.264 1158.51 573.814 1157.45 C 558.672 1194.9 543.963 1231.55 526.128 1267.86 L 524.85 1265.96 C 524.703 1264.52 524.521 1264.17 523.814 1262.97 C 500.634 1254.89 458.106 1260 434.353 1265.79 C 442.67 1257.98 451.094 1250.28 460.046 1243.2 C 469.135 1236.02 479.122 1229.45 487.321 1221.26 A 324.351 324.351 0 0 1 519.991 1214.51 C 526.813 1213.43 542.644 1213.54 548.267 1210.85 C 548.917 1210.54 549.355 1209.9 549.899 1209.43 L 549.068 1207.83 C 539.927 1203.46 505.722 1212.03 495.217 1215.41 C 518.087 1196.29 543.161 1179.27 567.716 1162.43 C 546.705 1169.54 511.239 1197.7 492.247 1211.79 L 495.753 1196.9 C 497.219 1190.56 501.961 1176.07 498.575 1170.64 L 496.879 1171.2 C 492.404 1179.55 488.44 1207.19 485.466 1218.43 C 465.809 1231.54 447.924 1246.86 430.401 1262.64 C 430.809 1258.9 431.463 1255.17 431.997 1251.45 C 433.54 1240.69 439.382 1199.5 433.342 1191.44 L 430.851 1191.66 L 430.579 1190.72 z"/>
<path transform="translate(0,0)" fill="rgb(67,57,96)" d="M 1955.75 1107.01 C 1962.87 1108.15 1981.33 1135.21 1986.11 1141.8 C 1992.76 1150.96 2018.28 1190.8 2019.33 1200.33 C 2018.58 1200.92 2017.85 1201.58 2017.01 1202.04 C 2014.28 1209.09 1999.18 1226.21 1993.86 1233.4 A 833.383 833.383 0 0 0 1966.64 1272.46 C 1961.52 1280.38 1954.81 1294.84 1947.24 1300.17 C 1947.5 1299.24 1947.69 1298.37 1947.66 1297.4 C 1947.35 1288.26 1920.16 1214.57 1914.63 1209.66 C 1915.58 1208.51 1916.38 1207.46 1916.99 1206.08 C 1922.39 1193.89 1926.15 1180.73 1931.14 1168.31 C 1938.68 1149.52 1947.42 1131.16 1954.71 1112.28 C 1955.45 1110.37 1955.77 1109.06 1955.75 1107.01 z"/>
<path transform="translate(0,0)" fill="rgb(67,57,96)" d="M 0 1171.9 C 42.0128 1181.88 85.342 1199.67 119.24 1226.88 C 122.714 1242.21 126.177 1257.55 128.725 1273.06 C 131.038 1287.13 132.434 1301.62 135.463 1315.54 C 94.5088 1285.85 50.201 1264.94 0 1256.28 L 0 1171.9 z"/>
<path transform="translate(0,0)" fill="rgb(67,57,96)" d="M 2019.93 1204.38 C 2020.57 1204.81 2021.78 1205.38 2022.27 1205.93 C 2025.96 1210.08 2043.45 1257.12 2044.57 1263.69 C 2044.64 1264.09 2044.63 1264.51 2044.65 1264.93 C 2045.27 1265.99 2045.96 1267.23 2046.28 1268.41 C 2048.23 1275.53 2047.67 1346.77 2046.74 1357.58 C 2046.6 1359.24 2046.07 1360.55 2045.2 1361.94 L 1965.86 1362.1 C 1966.12 1361.12 1966.12 1361.22 1966.25 1360.03 C 1966.92 1353.76 1953.77 1313.23 1949.72 1308.05 C 1954.91 1303.64 1966.22 1281.48 1970.89 1274.18 C 1976.57 1265.3 2019.12 1207.88 2019.67 1206.16 C 2019.83 1205.67 2019.88 1204.83 2019.93 1204.38 z"/>
<path transform="translate(0,0)" fill="rgb(67,57,96)" d="M 0 1260.1 C 51.036 1271.78 95.1643 1289.19 135.972 1322.37 A 1512.97 1512.97 0 0 1 137.883 1362 L 0 1362.05 L 0 1260.1 z"/>
<path transform="translate(0,0)" fill="rgb(67,57,96)" d="M 1383.13 1183.28 C 1399.47 1180.61 1474.84 1162.94 1484.57 1168.08 C 1489.81 1173.79 1507.35 1203.11 1507.36 1209.84 C 1500.11 1205.69 1426.16 1188.77 1418.18 1190.25 L 1418.35 1191.16 L 1418.25 1190.99 C 1445.53 1198.83 1483.4 1205.31 1508.31 1214.92 C 1507.97 1215.18 1507.63 1215.45 1507.29 1215.71 C 1495.52 1224.52 1457.39 1234.79 1447.35 1245.83 L 1447.94 1247.13 C 1450.88 1247.06 1453.32 1246.05 1455.99 1244.92 C 1461.94 1242.4 1512.04 1219.14 1513.43 1217.89 C 1513.83 1217.53 1514.29 1216.88 1514.6 1216.48 C 1532.36 1220.31 1621.42 1247.67 1629.73 1258.33 C 1616.89 1261.66 1603.78 1263.79 1590.9 1266.92 A 457.698 457.698 0 0 0 1532.43 1285.48 C 1522.55 1289.28 1512.26 1293.19 1503.4 1299.07 L 1502.88 1300.61 C 1504.83 1301.69 1505.76 1301.4 1507.94 1300.8 C 1514.79 1298.9 1521.5 1295.03 1528.09 1292.34 A 540.932 540.932 0 0 1 1565.87 1278.91 C 1590.07 1271.41 1615.02 1268.3 1639.24 1261.53 C 1653.75 1265.84 1736.93 1309.81 1742.98 1320.26 C 1743.05 1320.37 1743.1 1320.49 1743.16 1320.61 C 1726.34 1323.35 1709.37 1325.05 1692.53 1327.75 A 707.696 707.696 0 0 0 1607.53 1346.6 C 1600.02 1348.73 1589.35 1350.6 1583.16 1355.41 L 1583.51 1356.72 C 1592.09 1357.96 1626.97 1345.92 1638.51 1343.31 C 1675.94 1334.85 1713.09 1329.18 1751.17 1324.72 C 1758.16 1327.74 1796.81 1355.53 1799.46 1362.06 L 1658.69 1361.93 C 1631.95 1362 1604.68 1363.16 1578.01 1361.79 C 1576.26 1358.89 1554.59 1345.91 1549.59 1342.42 A 573.765 573.765 0 0 1 1497.34 1301.1 A 596.18 596.18 0 0 1 1462.6 1267.62 C 1453.18 1257.63 1421.64 1218.7 1413.25 1214 C 1397.95 1219.89 1382.38 1225.28 1367.29 1231.68 C 1305.93 1257.71 1245.09 1290.6 1190.39 1328.7 C 1175 1339.43 1159.05 1350.31 1145.24 1363.04 C 1141.17 1363.43 1136.85 1363.04 1132.76 1362.92 C 1146.33 1349.25 1164.84 1337.58 1180.79 1326.67 C 1233.29 1290.76 1285.61 1259.98 1343.62 1233.75 A 562.434 562.434 0 0 1 1380.86 1218.47 C 1389.09 1215.34 1401.08 1212.54 1408.15 1207.48 C 1407.25 1204.1 1387.04 1185.69 1383.13 1183.28 z"/>
<path transform="translate(0,0)" fill="rgb(155,128,168)" d="M 1145.24 1363.04 C 1159.05 1350.31 1175 1339.43 1190.39 1328.7 C 1245.09 1290.6 1305.93 1257.71 1367.29 1231.68 C 1382.38 1225.28 1397.95 1219.89 1413.25 1214 C 1421.64 1218.7 1453.18 1257.63 1462.6 1267.62 A 596.18 596.18 0 0 0 1497.34 1301.1 A 573.765 573.765 0 0 0 1549.59 1342.42 C 1554.59 1345.91 1576.26 1358.89 1578.01 1361.79 A 7342.01 7342.01 0 0 1 1460.2 1362.23 L 1269.9 1362.38 C 1228.4 1362.37 1186.72 1361.68 1145.24 1363.04 z"/>
<path transform="translate(0,0)" fill="rgb(67,57,96)" d="M 282.716 1222.84 C 261.742 1195.24 237.797 1142.64 242.753 1106.98 C 243.473 1101.8 245.328 1096.59 249.581 1093.25 C 251.679 1091.6 254.2 1090.62 256.891 1091.06 C 261.668 1091.86 265.057 1096.6 267.505 1100.4 C 277.611 1116.11 282.753 1135.66 285.465 1153.97 C 286.774 1162.81 287.869 1171.95 288.173 1180.87 C 288.385 1187.11 285.903 1208.32 288.132 1211.65 L 289.539 1209.79 C 295.29 1206.89 295.63 1197.03 300.838 1194.27 C 300.776 1198.09 292.054 1207.35 294.591 1210.24 A 998.06 998.06 0 0 0 286.529 1226.58 C 294.45 1223.86 302.202 1219.27 309.72 1215.58 C 326.533 1207.31 344.307 1200.14 362.98 1197.52 C 377.346 1195.51 391.084 1196.3 402.982 1205.2 C 412.095 1200.24 421.156 1195.07 430.579 1190.72 L 430.851 1191.66 C 429.042 1196.33 430.476 1220.37 429.985 1227.79 C 429.073 1241.55 427.215 1255.44 423.419 1268.72 C 406.455 1284.99 389.77 1300.66 375.029 1319.05 C 376.014 1297.48 373.956 1279.91 370.78 1258.81 C 369.766 1252.08 369.245 1241.65 365.196 1236.03 L 363.946 1236.1 C 361.05 1244.36 368.047 1268.08 368.942 1278.27 C 370.263 1293.3 370.294 1308.31 370.884 1323.37 C 364.669 1330.07 341.239 1361.18 334.455 1361.95 C 332.876 1360.29 332.356 1358.7 331.856 1356.51 C 330.658 1351.25 330.909 1345.56 330.157 1340.21 C 328.69 1329.75 325.994 1318.08 322.818 1308.06 C 321.368 1303.48 318.584 1293.7 314.072 1291.37 C 313.438 1294.73 314.87 1299.33 315.783 1302.55 C 322.391 1325.85 325.509 1338.08 328.068 1361.97 C 297.245 1362.19 265.659 1363.39 234.927 1361.46 L 234.826 1359.08 L 234.035 1358.77 C 233.696 1359.33 233.088 1360.37 232.683 1360.84 C 232.635 1360.89 231.413 1362.02 231.178 1362.09 C 227.16 1363.27 153.463 1362.04 143 1362.03 C 143.125 1349.21 142.202 1336.11 140.685 1323.38 C 157.271 1297.13 175.147 1274.64 198.899 1254.43 C 208.533 1246.23 222.284 1239.5 229.735 1229.36 C 194.137 1241.99 160.682 1285.4 139.9 1315.38 A 1043.34 1043.34 0 0 0 123.632 1224.14 C 136.304 1189.91 163.828 1155.27 193.68 1134.4 A 729.212 729.212 0 0 1 206.163 1165.34 C 208.272 1159.79 210.78 1151.33 216.68 1148.63 C 218.562 1147.77 220.638 1147.77 222.554 1148.52 C 233.968 1152.99 240.281 1167.66 244.357 1178.26 C 256.923 1210.93 257.73 1244.15 256.289 1278.77 C 264.408 1259.72 273.279 1241.28 282.716 1222.84 z"/>
<path transform="translate(0,0)" fill="rgb(233,120,147)" d="M 229.888 1248.6 C 237.381 1262.04 244.216 1275.6 252.106 1288.89 C 246.794 1303.58 240.714 1317.94 235.692 1332.75 C 234.241 1337.9 232.53 1342.97 230.888 1348.06 C 230.929 1328.99 232.315 1310.02 232.001 1290.91 C 231.769 1276.78 229.877 1262.72 229.888 1248.6 z"/>
<path transform="translate(0,0)" fill="rgb(233,120,147)" d="M 256.389 1292.56 C 274.809 1295.33 291.723 1297.86 310.336 1295.81 C 305.349 1305.09 300.017 1314.22 294.846 1323.4 C 288.832 1325.49 282.734 1327.38 276.683 1329.36 C 262.63 1334.37 249.388 1341.26 235.875 1347.54 A 1326.35 1326.35 0 0 1 256.389 1292.56 z"/>
<path transform="translate(0,0)" fill="rgb(233,120,147)" d="M 285.04 1228.32 C 312.613 1233.38 334.226 1236.08 362.432 1235.68 C 357.094 1239.69 352.845 1245.26 347.226 1248.85 C 336.88 1255.47 319.634 1257.79 307.651 1263.01 A 395.089 395.089 0 0 0 257.443 1290 C 265.311 1269.04 275.187 1248.43 285.04 1228.32 z"/>
<path transform="translate(0,0)" fill="rgb(67,57,96)" d="M 1801.85 725.042 C 1811.55 721.76 1821.75 714.35 1830.84 709.271 C 1847.17 700.147 1863.54 691.37 1880.47 683.415 A 1221.55 1221.55 0 0 1 2023.79 627.031 C 2028.71 625.437 2042.27 619.539 2046.75 621.158 A 15973 15973 0 0 1 2046.71 789.662 C 2046.66 817.038 2048.03 844.682 2046.95 872.009 C 2046.87 874.219 2046.38 876.232 2045.32 878.171 C 2045.76 876.85 2044.96 875.377 2044.57 874.051 C 2038.55 880.985 2017.81 888.417 2009.06 892.613 C 1886.37 951.466 1744.11 962.493 1610.44 977.25 A 7447.63 7447.63 0 0 0 1448.75 996.538 C 1301.13 1015.76 1149.35 1044.14 1024.29 1130.24 C 999.674 1147.19 978.109 1167.47 954.843 1186.09 C 906.007 1225.16 851.783 1260.13 793.914 1284.3 A 888.366 888.366 0 0 1 568.788 1347.27 C 545.862 1350.45 522.786 1353.42 499.771 1355.86 C 483.963 1357.53 468.041 1357.7 452.619 1361.88 C 440.373 1362.61 427.811 1362.03 415.519 1362.04 L 343.815 1362.06 C 353.558 1348.23 366.591 1336.91 376.413 1323.22 C 414.921 1313.85 453.336 1312.18 491.15 1326.31 L 493.562 1321.89 C 504.72 1309.26 518.41 1283.14 526.128 1267.86 C 543.963 1231.55 558.672 1194.9 573.814 1157.45 C 525.264 1158.51 473.942 1168.03 430.579 1190.72 C 421.156 1195.07 412.095 1200.24 402.982 1205.2 C 391.084 1196.3 377.346 1195.51 362.98 1197.52 C 344.307 1200.14 326.533 1207.31 309.72 1215.58 C 302.202 1219.27 294.45 1223.86 286.529 1226.58 A 998.06 998.06 0 0 1 294.591 1210.24 C 292.054 1207.35 300.776 1198.09 300.838 1194.27 C 295.63 1197.03 295.29 1206.89 289.539 1209.79 L 288.132 1211.65 C 285.903 1208.32 288.385 1187.11 288.173 1180.87 C 287.869 1171.95 286.774 1162.81 285.465 1153.97 C 282.753 1135.66 277.611 1116.11 267.505 1100.4 C 265.057 1096.6 261.668 1091.86 256.891 1091.06 C 254.2 1090.62 251.679 1091.6 249.581 1093.25 C 245.328 1096.59 243.473 1101.8 242.753 1106.98 C 237.797 1142.64 261.742 1195.24 282.716 1222.84 C 273.279 1241.28 264.408 1259.72 256.289 1278.77 C 257.73 1244.15 256.923 1210.93 244.357 1178.26 C 240.281 1167.66 233.968 1152.99 222.554 1148.52 C 220.638 1147.77 218.562 1147.77 216.68 1148.63 C 210.78 1151.33 208.272 1159.79 206.163 1165.34 A 729.212 729.212 0 0 0 193.68 1134.4 C 193.404 1132.28 192.417 1131.46 190.976 1130.04 C 190.813 1129.44 190.65 1128.83 190.524 1128.22 L 190.371 1127.45 C 188.914 1120.29 204.946 1085.6 208.072 1077.1 C 223.632 1034.81 236.875 992.006 255.875 950.982 C 264.712 931.902 282.805 892.635 295.556 878.204 C 301.19 871.828 310.238 866.756 317.397 862.254 C 349.614 841.992 379.095 829.371 414.638 816.347 C 436.754 808.863 460.15 805.343 482.72 799.459 C 503.55 814.165 541.425 845.374 564.331 851.399 C 568.359 852.458 574.666 853.453 578.284 850.898 C 580.425 849.386 581.45 847.395 581.691 844.803 C 582.146 839.905 578.371 834.004 575.361 830.369 C 555.175 805.981 522.334 800.023 492.683 797.146 C 507.639 791.917 522.931 787.357 537.987 782.389 C 545.238 779.6 552.339 776.67 559.39 773.408 L 567.81 769.556 C 577.812 773.497 588.347 775.921 598.386 779.915 C 617.719 783.417 633.333 786.468 648.953 799.242 C 688.087 812.417 725.702 833.468 762.072 852.821 C 803.337 811.961 859.144 774.893 919.251 775.162 C 1020.96 775.618 1053.02 863.008 1133.99 900.378 C 1160.92 912.808 1191.45 917.794 1220.97 918.202 C 1221 893.971 1224.29 827.005 1235.5 808.816 C 1244.87 793.599 1256.2 786.701 1263.01 768.269 C 1275.91 775.447 1285.93 788.665 1297.52 797.83 C 1302.85 826.074 1296.69 858.899 1296.7 887.787 C 1303.31 895.083 1309.6 902.571 1315.81 910.208 C 1357.36 911.908 1384.38 921.248 1415.4 950.103 C 1415.65 951.083 1415.93 951.878 1415.85 952.895 C 1419.27 954.38 1423.15 956.149 1424.7 959.81 C 1424.87 960.212 1425.02 960.627 1425.17 961.036 C 1425.36 960.817 1425.55 960.599 1425.73 960.378 C 1432.36 952.378 1436.14 943.703 1444.8 937.244 C 1449.08 934.049 1454.5 932.12 1458.55 928.807 C 1458.05 933.483 1444.03 955.328 1440.22 958.577 C 1440 958.767 1439.76 958.942 1439.53 959.124 C 1449.98 954.431 1458.76 949.552 1470.01 946.616 C 1468.8 951.279 1459.58 958.005 1455.46 960.623 C 1462.3 960.22 1492.77 959.549 1496.71 957.044 C 1506.99 957.527 1517.96 956.179 1528.25 955.462 L 1582.19 951.714 C 1601.84 950.395 1622.73 951.067 1642.05 947.948 C 1647.44 944.516 1652.53 938.553 1657.21 934.125 C 1666.9 924.957 1676.54 915.851 1686.7 907.188 C 1724.54 874.899 1763.11 844.994 1804.86 817.904 C 1811.52 813.578 1859.05 785.89 1859.99 784.816 C 1860.42 784.326 1860.55 783.641 1860.83 783.054 C 1865.85 781.657 1871 778.121 1875.45 775.443 L 1875.77 773.189 C 1870.08 767.675 1847.78 756.33 1839.52 751.197 C 1826.54 743.132 1814.14 734.101 1801.85 725.042 z"/>
<path transform="translate(0,0)" fill="rgb(252,249,235)" d="M 1244.45 916.22 C 1245.8 903.263 1259 848.716 1264.33 839.848 C 1265.34 843.702 1263.05 849.713 1262.67 853.816 C 1260.72 874.498 1277.16 898.608 1289.92 913.787 C 1284.5 915.929 1251.61 918.752 1245.37 917.705 L 1244.45 916.22 z"/>
<path transform="translate(0,0)" fill="rgb(246,211,200)" d="M 1315.81 910.208 C 1357.36 911.908 1384.38 921.248 1415.4 950.103 C 1415.65 951.083 1415.93 951.878 1415.85 952.895 C 1408.99 949.201 1398.47 947.942 1390.89 949.845 C 1390.03 950.063 1389.33 950.392 1388.53 950.787 C 1390.08 951.382 1391.61 952.012 1393.15 952.62 C 1397.7 954.414 1405.08 959.077 1407.12 963.68 C 1407.32 964.131 1407.41 964.742 1407.5 965.203 C 1382.62 969.266 1357.42 971.055 1332.52 975.438 C 1299.1 981.845 1265.76 986.853 1232.6 994.773 C 1233.2 981.865 1235.99 968.812 1238.15 956.095 C 1240.4 942.82 1242.28 929.503 1244.45 916.22 L 1245.37 917.705 C 1251.61 918.752 1284.5 915.929 1289.92 913.787 C 1302.26 925.611 1314.54 936.716 1329.21 945.614 C 1328.36 952.342 1325.3 968.877 1329.31 974.053 C 1337.55 967.516 1343.23 954.461 1347.99 945.084 C 1333.65 937.467 1325.27 922.969 1315.81 910.208 z"/>
<path transform="translate(0,0)" fill="rgb(233,120,147)" d="M 1801.85 725.042 C 1811.55 721.76 1821.75 714.35 1830.84 709.271 C 1847.17 700.147 1863.54 691.37 1880.47 683.415 A 1221.55 1221.55 0 0 1 2023.79 627.031 C 2028.71 625.437 2042.27 619.539 2046.75 621.158 A 15973 15973 0 0 1 2046.71 789.662 C 2046.66 817.038 2048.03 844.682 2046.95 872.009 C 2046.87 874.219 2046.38 876.232 2045.32 878.171 C 2045.76 876.85 2044.96 875.377 2044.57 874.051 C 2044.98 873.322 2045.36 872.568 2045.61 871.763 C 2047.5 865.657 2047.19 805.521 2044.65 799.872 C 2034.5 797.491 2012.78 809.452 2003.71 815.098 C 1993.41 821.516 1984.18 831.867 1973.58 837.021 C 1977.05 832.66 1984.02 811.201 1983.1 805.694 C 1982.95 804.779 1982.69 803.93 1982.35 803.07 C 1979.48 811.439 1970.96 817.209 1966.66 824.929 C 1962.59 832.226 1963.14 840.834 1959.16 847.985 C 1961.55 840.147 1955.25 826.616 1954.8 818.104 C 1954.28 808.515 1959.78 796.698 1955.73 787.902 C 1956.79 795.899 1949.26 805.459 1947.28 813.24 C 1944.69 823.399 1948.8 837.332 1944.65 846.352 C 1938.87 839.132 1925.63 835.178 1916.78 834.179 C 1902.89 832.611 1889.32 836.303 1875.99 839.7 C 1890.94 840.343 1917.88 842.668 1929.17 853.174 C 1929.35 853.349 1929.51 853.556 1929.68 853.748 L 1929.12 854.029 C 1923.68 856.691 1917.21 858.008 1912.11 861.23 C 1904.12 866.28 1898.15 874.386 1890.17 879.322 C 1907.14 873.74 1920.9 869.185 1939.03 870.112 C 1935.04 873.325 1930.3 875.228 1926.19 878.286 C 1918.92 883.691 1912 892.096 1904.21 896.256 C 1918.02 891.591 1929.66 887.438 1944.32 886.288 C 1942.02 893.001 1934.38 897.36 1928.39 900.327 C 1909.89 909.484 1888.6 914.013 1868.61 918.743 C 1805.35 933.711 1743.09 942.199 1678.2 946.089 C 1666.49 946.79 1653.73 948.655 1642.05 947.948 C 1647.44 944.516 1652.53 938.553 1657.21 934.125 C 1666.9 924.957 1676.54 915.851 1686.7 907.188 C 1724.54 874.899 1763.11 844.994 1804.86 817.904 C 1811.52 813.578 1859.05 785.89 1859.99 784.816 C 1860.42 784.326 1860.55 783.641 1860.83 783.054 C 1865.85 781.657 1871 778.121 1875.45 775.443 L 1875.77 773.189 C 1870.08 767.675 1847.78 756.33 1839.52 751.197 C 1826.54 743.132 1814.14 734.101 1801.85 725.042 z"/>
<path transform="translate(0,0)" fill="rgb(246,180,174)" d="M 1801.85 725.042 C 1811.55 721.76 1821.75 714.35 1830.84 709.271 C 1847.17 700.147 1863.54 691.37 1880.47 683.415 A 1221.55 1221.55 0 0 1 2023.79 627.031 C 2028.71 625.437 2042.27 619.539 2046.75 621.158 A 15973 15973 0 0 1 2046.71 789.662 C 2046.66 817.038 2048.03 844.682 2046.95 872.009 C 2046.87 874.219 2046.38 876.232 2045.32 878.171 C 2045.76 876.85 2044.96 875.377 2044.57 874.051 C 2044.98 873.322 2045.36 872.568 2045.61 871.763 C 2047.5 865.657 2047.19 805.521 2044.65 799.872 C 2044.77 799.577 2044.91 799.287 2045.02 798.987 C 2047.08 793.65 2046.87 714.454 2044.52 709.435 C 2044.2 709.681 2043.9 709.973 2043.55 710.174 C 2037.98 713.332 2011.76 719.753 2003.82 722.461 C 1974.03 732.632 1944.12 743.902 1915.38 756.773 C 1905.93 761.005 1885.06 774.574 1875.77 773.189 C 1870.08 767.675 1847.78 756.33 1839.52 751.197 C 1826.54 743.132 1814.14 734.101 1801.85 725.042 z"/>
<path transform="translate(0,0)" fill="rgb(246,211,200)" d="M 762.072 852.821 C 803.337 811.961 859.144 774.893 919.251 775.162 C 1020.96 775.618 1053.02 863.008 1133.99 900.378 C 1160.92 912.808 1191.45 917.794 1220.97 918.202 A 1355.57 1355.57 0 0 0 1222.15 986.613 C 1217.1 988.588 1201.71 992.947 1199.54 997.689 C 1201.61 998.924 1203.6 999.702 1205.89 1000.48 C 1202.7 1004.45 1166.81 1011.63 1159.25 1014.03 C 1121.59 1025.97 1082.35 1039.54 1047.21 1057.75 C 1050.58 1050.57 1054.33 1045.83 1060.07 1040.42 C 1047.19 1044.22 1038.81 1049.28 1028.67 1058.1 C 1033.17 1044.35 1038.26 1035.92 1048.29 1025.47 C 1034.34 1030.62 1024.45 1037.82 1017.96 1051.6 C 1016.21 1055.31 1014.72 1059.16 1013.02 1062.9 C 1012.07 1037.99 1016.75 1020.73 1034.13 1002.11 A 88.2881 88.2881 0 0 1 1037.75 998.427 C 1023.35 1003.88 1011.93 1012.04 1002.06 1023.85 C 993.965 1019.33 986.376 1008.75 979.185 1002.48 C 961.163 986.767 941.94 971.509 923.138 956.713 C 905.669 942.966 887.08 930.697 868.631 918.324 A 1302.36 1302.36 0 0 0 762.072 852.821 z"/>
<path transform="translate(0,0)" fill="rgb(246,180,174)" d="M 559.39 773.408 L 567.81 769.556 C 577.812 773.497 588.347 775.921 598.386 779.915 C 617.719 783.417 633.333 786.468 648.953 799.242 C 688.087 812.417 725.702 833.468 762.072 852.821 A 1302.36 1302.36 0 0 1 868.631 918.324 C 887.08 930.697 905.669 942.966 923.138 956.713 C 941.94 971.509 961.163 986.767 979.185 1002.48 C 986.376 1008.75 993.965 1019.33 1002.06 1023.85 C 994.361 1035.76 989.381 1045.87 989.927 1060.38 C 978.339 1053.38 966.848 1048.48 953.074 1052.02 C 944.887 1054.12 938.694 1058.45 932.016 1063.44 C 945.903 1061.07 958.648 1061.49 970.544 1069.9 C 977.347 1074.71 981.536 1080.54 986.039 1087.42 C 972 1084.29 962.051 1084.32 948.963 1090.86 C 958.788 1091.02 966.799 1092.33 975.704 1096.65 C 954.699 1109.29 934.947 1123.2 915.071 1137.51 C 895.552 1118 876.146 1098.42 855.603 1079.98 C 762.731 996.595 657.74 929.473 546.108 874.11 C 519.561 860.944 492.133 848.704 464.899 837.017 C 453.674 832.2 421.836 822.203 414.638 816.347 C 436.754 808.863 460.15 805.343 482.72 799.459 C 503.55 814.165 541.425 845.374 564.331 851.399 C 568.359 852.458 574.666 853.453 578.284 850.898 C 580.425 849.386 581.45 847.395 581.691 844.803 C 582.146 839.905 578.371 834.004 575.361 830.369 C 555.175 805.981 522.334 800.023 492.683 797.146 C 507.639 791.917 522.931 787.357 537.987 782.389 C 545.238 779.6 552.339 776.67 559.39 773.408 z"/>
<path transform="translate(0,0)" fill="rgb(67,57,96)" d="M 598.386 779.915 C 617.719 783.417 633.333 786.468 648.953 799.242 C 650.744 801.799 652.164 804.164 653.084 807.192 C 654.078 810.464 654.251 812.895 652.617 815.944 C 650.652 817.822 648.838 818.668 646.139 819.088 C 619.725 823.204 587.704 805.625 564.032 795.54 C 555.921 792.084 545.25 788.934 538.153 783.794 C 557.864 780.586 578.465 779.766 598.386 779.915 z"/>
<path transform="translate(0,0)" fill="rgb(233,120,147)" d="M 190.976 1130.04 C 190.813 1129.44 190.65 1128.83 190.524 1128.22 L 190.371 1127.45 C 188.914 1120.29 204.946 1085.6 208.072 1077.1 C 223.632 1034.81 236.875 992.006 255.875 950.982 C 264.712 931.902 282.805 892.635 295.556 878.204 C 301.19 871.828 310.238 866.756 317.397 862.254 C 349.614 841.992 379.095 829.371 414.638 816.347 C 421.836 822.203 453.674 832.2 464.899 837.017 C 492.133 848.704 519.561 860.944 546.108 874.11 C 657.74 929.473 762.731 996.595 855.603 1079.98 C 876.146 1098.42 895.552 1118 915.071 1137.51 C 899.015 1149.93 883.069 1162.6 866.615 1174.48 C 852.05 1185 836.817 1194.72 822.617 1205.72 C 824.172 1191.49 825.687 1179.49 834.592 1167.73 C 820.226 1175.46 812.883 1184.43 808.057 1200.07 L 807.834 1200.81 C 798.579 1178.58 790.992 1170.29 769.169 1159.77 C 784.111 1172.85 790.625 1190.97 791.981 1210.57 A 170.739 170.739 0 0 1 792.282 1216.73 C 785.606 1209.33 778.997 1204.45 768.728 1203.96 C 763.553 1203.71 758.318 1204.14 753.161 1204.54 C 768.806 1208.54 776.13 1213.76 785.839 1226.85 C 772.507 1223.6 764.808 1223.84 751.729 1228.13 C 760.207 1229.25 767.679 1230.64 775.545 1234.21 C 760.3 1242.04 744.264 1248.31 728.584 1255.21 C 697.974 1268.66 667.7 1281.9 636.178 1293.18 C 639.576 1280.25 643.133 1270.36 651.872 1259.95 C 636.22 1267.72 627.191 1277.37 619.454 1293.06 C 613.97 1274.28 610.386 1262.74 592.379 1252.89 A 139.153 139.153 0 0 0 590.628 1251.95 C 604.077 1267.23 602.697 1283.37 602.076 1302.47 C 593.521 1291.66 586.204 1284.93 571.975 1283.31 A 197.186 197.186 0 0 0 563.432 1282.59 C 576.133 1289.08 583.312 1295.52 589.281 1308.61 C 554.81 1320.28 519.683 1327.58 484.476 1336.51 L 491.15 1326.31 L 493.562 1321.89 C 504.72 1309.26 518.41 1283.14 526.128 1267.86 C 543.963 1231.55 558.672 1194.9 573.814 1157.45 C 525.264 1158.51 473.942 1168.03 430.579 1190.72 C 421.156 1195.07 412.095 1200.24 402.982 1205.2 C 391.084 1196.3 377.346 1195.51 362.98 1197.52 C 344.307 1200.14 326.533 1207.31 309.72 1215.58 C 302.202 1219.27 294.45 1223.86 286.529 1226.58 A 998.06 998.06 0 0 1 294.591 1210.24 C 292.054 1207.35 300.776 1198.09 300.838 1194.27 C 295.63 1197.03 295.29 1206.89 289.539 1209.79 L 288.132 1211.65 C 285.903 1208.32 288.385 1187.11 288.173 1180.87 C 287.869 1171.95 286.774 1162.81 285.465 1153.97 C 282.753 1135.66 277.611 1116.11 267.505 1100.4 C 265.057 1096.6 261.668 1091.86 256.891 1091.06 C 254.2 1090.62 251.679 1091.6 249.581 1093.25 C 245.328 1096.59 243.473 1101.8 242.753 1106.98 C 237.797 1142.64 261.742 1195.24 282.716 1222.84 C 273.279 1241.28 264.408 1259.72 256.289 1278.77 C 257.73 1244.15 256.923 1210.93 244.357 1178.26 C 240.281 1167.66 233.968 1152.99 222.554 1148.52 C 220.638 1147.77 218.562 1147.77 216.68 1148.63 C 210.78 1151.33 208.272 1159.79 206.163 1165.34 A 729.212 729.212 0 0 0 193.68 1134.4 C 193.404 1132.28 192.417 1131.46 190.976 1130.04 z"/>
<path transform="translate(0,0)" fill="rgb(67,57,96)" d="M 471.225 1002.16 C 470.806 987.933 471.164 974.533 474.908 960.708 C 477.326 951.777 481.655 940.173 490.477 935.648 C 493.543 934.075 495.211 934.519 498.217 935.575 C 499.635 937.088 500.613 938.441 501.119 940.491 C 506.212 961.121 485.372 985.209 475.483 1001.43 L 483.625 997.07 C 496.233 986.255 523.947 964.386 541.428 965.852 C 545.115 966.161 549.401 967.239 551.888 970.198 C 553.238 971.804 553.668 973.48 553.466 975.561 C 553.009 980.269 549.624 984.094 545.967 986.783 C 532.812 996.453 503.811 1004.02 487.463 1001.52 A 35.9198 35.9198 0 0 1 483.624 1000.74 C 478.844 1004.26 474.116 1008.09 469.103 1011.26 C 460.632 1017.89 451.617 1024.28 443.628 1031.46 C 468.303 1027.6 504.068 1017.88 525.942 1034.66 C 528.488 1036.61 530.886 1039.13 531.314 1042.45 C 531.589 1044.59 530.978 1046.65 529.648 1048.33 C 526.503 1052.3 520.612 1053.65 515.776 1053.98 C 492.837 1055.55 461.289 1044.95 441.892 1033.07 C 428.558 1044.31 415.268 1055.58 402.761 1067.75 C 428.72 1064.16 466.283 1053.64 489.176 1071.48 C 492.037 1073.71 494.825 1076.8 495.295 1080.54 C 495.6 1082.97 494.777 1085.26 493.167 1087.08 C 488.875 1091.93 480.771 1092.98 474.673 1093.06 C 448.741 1093.42 422.562 1082.2 399.783 1070.97 A 877.856 877.856 0 0 0 361.056 1111.75 C 388.366 1103.78 423.845 1093.84 450.669 1108.18 C 454.441 1110.19 458.46 1113.25 459.833 1117.47 C 460.622 1119.89 460.368 1122.36 459.069 1124.56 C 456.385 1129.1 450.482 1131.19 445.567 1132.21 C 416.122 1138.33 384.142 1127.53 357.27 1116.55 C 344.175 1133.43 332.01 1150.52 320.405 1168.47 C 348.454 1155.69 385.836 1139.7 416.795 1151.12 C 421.948 1153.02 427.763 1155.98 430.058 1161.31 C 430.848 1163.14 431.139 1165.2 430.34 1167.08 C 428.211 1172.08 422.237 1174.65 417.44 1176.35 C 386.444 1187.31 350.049 1181 319.365 1172.04 C 317.534 1171.51 316.426 1173.54 315.449 1174.89 L 294.591 1210.24 C 292.054 1207.35 300.776 1198.09 300.838 1194.27 C 295.63 1197.03 295.29 1206.89 289.539 1209.79 C 294.251 1197.22 303.909 1184.05 311.667 1173.09 L 315.338 1166.94 A 175.515 175.515 0 0 1 312.773 1162.98 C 295.134 1134.88 276.844 1086.16 284.833 1052.88 C 286.316 1046.7 289.019 1039.31 294.931 1036.02 C 296.763 1035.01 298.754 1034.76 300.76 1035.4 C 306.229 1037.16 311.736 1045.66 314.392 1050.43 C 331.727 1081.56 327.211 1129.8 317.591 1162.76 C 329.025 1146.74 340.13 1131.12 353.071 1116.27 A 48.823 48.823 0 0 1 351.033 1112.48 C 337.016 1083.73 331.08 1038.63 341.888 1007.98 C 343.744 1002.72 346.927 996.676 352.366 994.418 C 354.207 993.654 356.116 993.749 357.925 994.539 C 363.812 997.109 368.257 1005.08 370.595 1010.75 C 383.775 1042.69 370.33 1079.08 358.009 1108.85 C 370.018 1094.72 383.111 1081.39 396.338 1068.41 C 388.259 1042.23 383.468 1010.18 391.93 983.514 C 393.851 977.458 397.218 969.309 403.387 966.472 C 405.381 965.556 407.594 965.41 409.637 966.254 C 412.638 967.494 414.589 970.503 415.82 973.382 C 426.517 998.406 411.688 1039.12 402.342 1062.93 C 413.006 1052.19 423.986 1042.23 435.791 1032.75 C 428.992 1010.65 426.822 986.247 433.729 963.815 C 435.458 958.201 438.954 949.393 444.808 946.923 C 446.798 946.084 448.519 945.99 450.489 946.808 C 452.962 947.834 454.448 950.604 455.282 953.011 C 463.273 976.089 447.947 1010.29 438.01 1031.07 C 447.47 1023.19 456.901 1015.42 466.904 1008.23 C 469.442 1005.94 470.155 1005.36 471.225 1002.16 z"/>
</svg>