<svg xmlns="http://www.w3.org/2000/svg" display="block" viewBox="0 0 2048 1365"><defs><linearGradient id="a" x1="1767.49" x2="1728.77" y1="1174.93" y2="1200.62" gradientUnits="userSpaceOnUse"><stop class="stop0" offset="0" stop-color="#e9d5d5"/><stop class="stop1" offset="1" stop-color="#fdf2e8"/></linearGradient></defs><path fill="#fcf9eb" d="M0 0h2047.67c1.93 34.677.34 70.316.33 105.074v203.58l.08 100.792c.01 12.142 1.84 34.783-.83 45.391 2.69 13.387.79 51.517.78 67.408l-.02 64.366c-.01 11.35.58 23.083-.26 34.389 1.15 31.779.28 63.864.28 95.671l.01 179.09-.01 238.539c0 40.8.7 81.73-.07 122.51-.05 2.68-.21 4.7-1.31 7.2 2.4 5.41 2.78 92.66.73 98.73-.27.81-.68 1.54-1.13 2.26H0z"/><path fill="#433960" d="M377.945 336.17c5.046-.276 10.232-.059 15.178 1.036 4.264.945 8.203 2.261 10.68 6.09.04 2.43.11 3.572-1.726 5.489-6.607 6.894-21.198 5.425-29.827 5.316-10.692-.276-21.343-.546-32.035-.138 11.988-7.928 23.601-14.352 37.73-17.793M199.819 138.003c3.424.096 6.563 2.178 9.193 4.22.636 1.722 1.054 2.52.66 4.384-3.073 14.518-38.462 36.656-50.889 44.086-2.173 1.026-3.978 1.828-6.369 2.162-.018-1.503.375-2.405 1.076-3.701 9.26-17.139 27.475-45.695 46.329-51.151m491.989 554.219c3.453.039 7.718-.081 10.684 1.906 2.036 1.365 3.47 4.042 3.653 6.475.157 2.091-1.015 4.206-2.358 5.72-9.886 11.152-37.51 15.15-51.537 15.722l-19.373.337c18.2-11.684 37.274-26.258 58.931-30.16M139.391 231.257l.891-.661c16.087-12.149 41.214-48.442 64.214-45.45 2.047.266 4.04.985 6.003 1.598.796 4.69.578 7.377-2.239 11.324-11.137 15.6-50.126 30.401-68.425 33.136-.147.022-.296.036-.444.053m54.577-2.105c4.084-.394 9.46-.869 13.293.847 2.898 1.298 4.237 2.975 5.275 5.911.078 2.442-.316 4.196-1.634 6.291-8.59 13.65-45.368 24.639-60.667 28.6-5.675 1.449-11.496 2.504-17.229 3.716 17.527-19.845 34.744-37.67 60.962-45.365m1052.492 505.59c.66-2.673.96-5.604 3.1-7.492 4.37-.832 10.31 1.826 13.84 4.38 3.1 2.241 5.19 5.434 5.69 9.251 1.13 8.532-4.47 18.995-7.55 26.864a138.9 138.9 0 0 1-29.32 40.727c-4.02 3.925-13.49 9.567-15.92 14.179-.68 1.293-.94 4.249-1.23 5.753l-2.85 1.472c-2.57-.064-2.64.15-4.62-1.714-.43-1.29-.81-2.594-.68-3.969.54-5.463 5.71-8.772 9.43-12.17 12.94-11.794 25.12-37.02 28.48-54.085 1.52-7.731 1.26-15.371 1.63-23.196m-592.613 6.64c5.032-.72 10.8-.804 15.884-.465 7.271.484 16.729 2.438 21.576 8.409 1.749 2.155 2.759 4.792 2.4 7.589-.435 3.382-2.618 5.918-5.283 7.86-12.527 9.122-35.832 5.436-50.296 2.929-14.702-2.699-29.301-7.133-43.746-10.973 19.654-6.88 38.715-12.704 59.465-15.349m-251.402-27.079c9.042-10.232 29.688-24.545 42.222-30.878 16.304-8.238 38.624-11.769 56.272-5.787 4.654 1.577 11.287 5.403 13.183 10.143.907 2.266.93 4.443-.193 6.632-1.904 3.709-6.676 5.64-10.497 6.56-11.194 2.696-23.188 2.026-34.624 2.598-17.907.897-35.493 3.123-52.81 7.844-3.283 1.162-9.681 4.288-12.949 3.637zm867.435-7.691c6.07-2.277 10.95-6.48 16.99-8.659 3.29-1.188 5.83.267 8.79 1.639.27.3.54.604.81.899 3.58 3.811 9.3 5.382 12.74 9.445 10.9 12.878 20.66 49.859 20.41 66.411-.08 5.866-1.52 12.321-5.86 16.541-4.41 4.281-13.68 6.536-19.74 6.136-1.43-.094-2.8-.325-4.18-.64-.31-.518-1.08-1.563-1.2-2.132-3.67-20.217-8.57-61.959-18.16-78.496-2.72-4.694-6.4-7.786-10.6-11.144"/><path fill="#433960" d="M1246.2 713.111c-1.19-4.346-.83-11.036-3.9-14.225-2.15-.167-4.83-.154-6.81-1.054-2.19-.999-3.4-3.017-4-5.29-.49-1.826-.97-4.349-.38-6.208.94-2.964 3.36-5.526 4.62-8.4 2.41-5.519 2.78-11.395 6.05-16.715 2.31-3.748 5.65-6.824 10.06-7.733 8.35-1.717 18.42 4.055 25.05 8.545 1.6 2.861 2.85 5.991 4.21 8.979 2.59.906 5.82-2.322 8.73-2.713 2.98-.4 5.85 1.154 8 3.091 2.77 2.508 4.8 6.36 4.77 10.152-.04 6.004-5.38 9.131-9.25 12.839-4.37.012-7.59-.125-10.89-3.45-1.88-1.899-3.42-4.215-4.93-6.412-4.89 8.395-10.31 13.888-18.74 18.74 10.79 5.117 19.09 12.376 23.29 23.812 6.72 18.33 10.17 46.322 13.75 66.16a2322 2322 0 0 0-30.85-27.902c2.68-6.845 9.51-19.498 6.63-26.775-2.34-5.908-8.61-11.07-14.49-13.249-3.18-1.181-5.8-1.374-8.94-.049-2.29 2.089-3.25 4.551-3.3 7.677-.01.325.01.651.01.976-1.62 6.283-.52 13.34-1.33 19.811-.3 2.403-.48 4.66-2.47 6.137-1.8-1.586-2.57-3.123-3.49-5.295-5.84-13.858 3.5-28.646 8.6-41.449"/><path fill="#f6b4ae" d="M1783.76 733.092c12.29 5.506 34.93 25.132 48 33.436 7.68 4.88 23.42 10.51 29.07 16.526-.28.587-.41 1.272-.84 1.762-.94 1.074-48.47 28.762-55.13 33.088-41.75 27.09-80.32 56.995-118.16 89.284-10.16 8.663-19.8 17.769-29.49 26.937-4.68 4.428-9.77 10.391-15.16 13.823-19.32 3.119-40.21 2.447-59.86 3.766l-53.94 3.748c-10.29.717-21.26 2.065-31.54 1.582 29.3-25.439 57.35-52.226 86.94-77.394 37.58-31.965 76.62-61.33 116.84-89.828 10.16-7.201 80.38-51.392 82.57-54.389.48-.658.47-1.561.7-2.341M579.381 0h15.389c9.653 39.848 20.286 79.052 35.621 117.167A627.86 627.86 0 0 0 885.466 416.33a640.63 640.63 0 0 0 483.444 77.703c3.81-.932 15.08-2.722 16.96-5.808-1.35-4.197-13.74-15.418-17.6-19.627-10.94-11.942-20.91-24.4-29.37-38.235 47.21 12.502 96.27 22.311 145.24 23.789-12.46 10.44-58.36 23.357-75.77 28.773-5.96 1.855-15.38 3.473-20.41 7.001 6.13 2.845 10.23 8.151 15.98 11.218 7.63-.672 16.48-4.239 23.74-6.649a676.5 676.5 0 0 0 99.33-41.69c18.1 2.619 36.88 4.144 54.81 7.37 5.13 6.122 17.88 39.54 22.63 49.503 10.56 22.136 22.68 44.765 36.21 65.234 3.18 4.805 22.15 30.341 21.91 34.134a449.8 449.8 0 0 1-219.55-77.352c-13.71-9.29-25.97-19.941-39.08-29.957-7.25.343-16.04 3.94-23.15 5.897-11.87 3.269-23.72 6.451-35.82 8.777a657.72 657.72 0 0 1-498.603-105.205A636.6 636.6 0 0 1 579.381 0"/><path fill="#fcf9eb" d="M594.77 0h339.716c3.572 20.97 11.02 41.768 17.96 61.836a583.3 583.3 0 0 0 211.834 282.786 568.4 568.4 0 0 0 120.2 66.484 690 690 0 0 0 34.32 12.414c6.5 2.153 13.99 3.866 20.1 6.843 8.46 13.835 18.43 26.293 29.37 38.235 3.86 4.209 16.25 15.43 17.6 19.627-1.88 3.086-13.15 4.876-16.96 5.808a640.63 640.63 0 0 1-483.444-77.703 627.86 627.86 0 0 1-255.075-299.163C615.056 79.052 604.423 39.847 594.77 0"/><path fill="#433960" d="M145.821 192.378c1.824-6.594 4.802-13.967 5.435-20.785.787-8.466-.71-17.606-1.027-26.147-.809-21.739 2.633-49.454 16.126-67.183 2.376-3.122 4.492-5.034 8.469-5.619 3.333.559 5.886 2.21 7.781 5.067 14.021 21.14-21.322 73.467-29.005 94.61-6.711 18.466-10.758 39.579-14.209 58.936-5.718 13.764-11.589 74.579-12.506 91.008 19.114-19.975 44.745-49.557 75.008-50.461 3.736-.111 8.479.413 11.19 3.244 1.491 1.557 2.328 3.074 2.345 5.291.035 4.524-3.915 8.787-7.167 11.55-21.785 18.511-54.604 24.87-81.644 31.142l-.487 12.181c-.079 13.73.074 27.503-.313 41.225 13.463-22.889 37.135-46.016 63.345-53.009 5.753-1.534 13.172-2.48 18.656.434 2.064 1.097 3.782 2.746 4.494 5.018.97 3.096-.173 6.334-1.779 9.002-12.022 19.955-63.638 37.926-84.521 44.902.92 20.142 1.587 40.453 3.342 60.535 10.892-27.439 31.912-52.148 59.355-64.216 7.783-3.423 19.958-7.196 28.264-3.591 1.753.761 2.577 1.638 3.656 3.17 1.037 3.205.571 5.755-.895 8.774-9.608 19.783-68.583 52.348-89.672 63.516 6.452 41.134 15.812 82.651 32.884 120.82 21.162-48.305 46.087-93.01 81.267-132.642 5.969-6.725 12.781-15.142 19.964-20.547a429 429 0 0 1 9.437-9.026c-1.524-14.231-7.209-54.179 1.015-65.347 1.572-2.135 2.604-2.411 5.116-2.938 3.56 1.679 5.212 5.072 6.492 8.628 6.036 16.772-.096 36.176-5.33 52.402 8.726-8.712 18.665-16.125 27.307-24.773-.17-6.311-.336-12.66-1.237-18.916-1.563-10.843-10.756-41.389-2.1-49.861 1.405-1.376 2.974-2.06 4.808-2.675 2.648.335 4.045.937 5.64 3.172 8.045 11.275 7.699 30.567 4.915 43.428-1.574 7.27-5.013 14.65-7.543 21.655l21.596-18.995c3.738-14.051 2.501-63.469 14.495-69.571 1.371-.698 2.67-.2 3.881.523 2.999 1.792 5.392 6.395 6.077 9.729 3.677 17.9-9.784 41.806-20.068 56.157-7.169 10.004-16.425 17.424-26.086 24.837 18.517-6.169 39.143-12.404 57.813-3.208 3.618 1.782 8.284 4.922 9.562 8.964.543 1.717.062 2.146-.493 3.766-3.869 3.39-9.06 4.174-14.066 3.853-17.668-1.135-35.027-9.35-52.611-12.253-10.244 9.384-21.472 18.594-30.42 29.235 17.103-6.572 38.951-13.564 56.819-5.815 3.763 1.632 7.168 3.979 8.652 7.962.409 1.1.011 2.727-.091 3.904-1.971 3.419-4.684 4.883-8.454 5.858-15.65 4.05-44.068-4.845-59.275-9.927-3.551 3.662-7.029 7.57-10.928 10.854-10.514 12.28-21.472 24.202-31.4 36.971-30.034 38.63-51.957 80.88-69.647 126.328 6.968 19.282 16.19 39.158 25.749 57.314 11.699-14.604 24.916-28.591 39.329-40.548-.823-21.563-4.084-73.039 10.075-89.475 1.92-2.229 3.686-3.298 6.607-3.56 3.391 1.175 4.965 3.035 6.504 6.271 8.475 17.82-.557 51.133-7.184 68.999a319 319 0 0 1-4.119 10.4c10.49-10.987 21.389-21.854 33.183-31.45.25-11.692.622-23.417.551-35.112-.07-11.637-2.082-24.907.44-36.261.538-2.421 1.913-4.808 3.725-6.499 2.012-1.879 4.574-2.67 7.304-2.402 2.279.223 4.148 1.147 5.588 2.939 6.38 7.942 3.784 26.568 2.299 36.263a136 136 0 0 1-8.807 31.475c2.893-2.333 5.894-4.599 8.645-7.098 4.389-3.711 8.706-7.634 13.29-11.097 5.094-18.732 4.227-42.615 9.632-58.652 1.183-3.51 3.164-7.037 6.461-8.919 1.571-.898 2.747-.724 4.515-.769 2.97 1.436 4.385 3.465 5.377 6.602 4.547 14.387-4.336 32.629-11.208 44.818-2.011 3.568-4.194 7.056-6.159 10.646 9.895-7.551 19.749-15.143 29.958-22.266 4.268-10.189 11.052-44.58 20.225-48.613 2.031-.893 2.418-.569 4.368.165 2.369 3.109 2.569 6.233 2.039 10.032-1.865 13.36-12.112 25.087-20.642 34.962 16.603-11.561 33.444-35.019 49.77-43.236 4.405-2.218 10.514-3.199 15.393-2.529 3.188.439 4.874 1.277 6.68 3.829-.114 2.883-1.527 4.563-3.633 6.46-9.487 8.55-23.105 13.424-34.558 18.778-13.384 6.257-26.049 12.93-37.575 22.277 14.485-5.191 38.156-15.481 53.247-8.617 2.065.939 3.451 2.033 4.923 3.736.593 2.228 1.1 3.384-.33 5.511-2.229 3.314-7.726 4.594-11.493 5.007-15.392 1.69-32.43-3.479-47.962-4.249a958 958 0 0 1-25.353 19.388c17.954-1.132 44.508-4.658 59.342 7.67 1.839 1.528 3.299 3.534 3.555 5.973.243 2.304-.426 4.861-1.946 6.613-1.224 1.411-3.141 2.234-5.005 2.373-9.553.713-28.653-8.836-38.606-11.923a293 293 0 0 0-22.47-5.815c-6.65 4.923-13.024 10.058-19.336 15.404-3.442 2.99-10.2 7.46-11.453 11.817 21.129-4.541 48.82-9.395 68.216 3.108 3.772 2.431 8.091 6.338 9.096 10.849.413 1.858.056 3.073-.58 4.816-1.693 1.985-3.391 3.476-6.079 3.836-6.324.849-63.952-15.604-73.162-18.76-7.7-.068-26.037 20.537-31.6 25.937 22.643-4.341 51.988-9.516 72.341 4.564 3.883 2.685 7.716 6.741 8.367 11.597.359 2.68-.134 5.358-1.846 7.5-1.616 2.022-3.799 2.911-6.319 3.133-14.729 1.298-39.858-6.949-54.905-9.993-9.582-1.939-19.363-3.055-29.084-4.043-10.953 7.554-34.663 34.943-43.293 46.038 15.631 4.78 33.006 6.202 49.028 9.817 22.066 4.978 43.915 11.453 65.683 17.59 21.951 6.188 44.672 11.965 65.684 20.879-4.656-15.699-24.203-60.363-22.895-72.714.259-2.447 1.382-5.158 3.459-6.605 2.043-1.423 4.594-1.572 6.973-1.118 6.932 1.325 12.621 7.244 16.439 12.842 16.896 24.774 13.212 54.967 7.887 82.689 12.123-15.708 22.146-32.838 34.322-48.409-8.214-17.241-32.255-61.817-32.637-78.889-.065-2.915.424-5.446 2.575-7.558 1.702-1.672 4.052-2.672 6.45-2.571 4.86.205 8.751 3.909 11.781 7.367 16.574 18.924 15.922 53.142 14.448 76.939 2.943-5.372 6.594-10.417 9.999-15.507 6.153-9.48 12.594-18.887 17.953-28.844-6.707-11.511-32.824-54.507-29.504-65.6.674-2.252 1.796-4.778 3.967-5.942 2.126-1.14 4.87-1.12 7.09-.267 7.316 2.812 12.634 10.403 15.365 17.435 6.975 17.961 3.429 36.987 3.796 55.604 5.835-14.389 13.808-27.624 21.534-41.057-4.859-12.83-23.722-50.643-18.855-62.258.766-1.828 1.648-2.251 3.192-3.412 2.721-.321 4.547.135 6.723 1.871 7.956 6.347 9.14 19.271 9.841 28.611.859 11.453 0 23.156-.398 34.624 4.63-8.262 7.287-16.575 9.382-25.752 3.325-14.562 4.024-46.024 18.11-54.425 2.744-.354 3.102-.001 5.492 1.185 2.417 3.032 2.684 5.995 2.267 9.761-2.009 18.145-16.076 33.756-24.049 49.557-3.274 6.49-5.391 13.371-7.266 20.372 12.646-15.418 29.346-35.79 50.654-38.039 2.799-.296 7.124-.631 9.473 1.135 1.593 1.199 1.367 2.34 1.617 4.158-1.778 5.986-7.068 9.672-12.309 12.54-12.91 7.066-34.444 14.829-48.911 17.694-7.493 12.249-14.275 25.442-20.539 38.365 14.945-15.924 33.941-32.642 57.016-33.47 5.287-.189 11.407.713 15.414 4.455 1.524 1.423 2.581 3.276 2.646 5.397.079 2.572-1.44 4.883-3.324 6.507-9.447 8.139-57.819 14.908-73.221 20.301a1584 1584 0 0 0-20.934 35.315c16.798-14.397 40.654-25.066 63.06-23.313 6.415.502 14.205 2.428 18.459 7.646 1.596 1.958 2.552 4.288 2.121 6.838-.538 3.188-2.958 5.356-5.558 7.012-3.736 2.379-8.531 3.465-12.858 4.083-10.661 1.521-53.825 2.463-63.676.018-1.07-.266-1.864-.711-2.767-1.322-10.499 21.802-28.031 40.701-38.16 62.636l.266 1.394.604.749c3.268.651 9.666-2.475 12.949-3.637 12.193 8.975 55.402 20.168 72.417 26.907 3.474-7.623 6.776-16.61 15.508-19.496 2.895-.957 6.006-.796 8.638.816 2.721 1.667 4.257 4.678 4.873 7.728 1.413 7-1.405 15.049-4.366 21.328 8.001 3.342 16.301 5.544 24.311 8.698-.164-12.673-3.023-40.917 5.664-50.409 1.783-1.949 4.134-3.047 6.79-2.949 3.203.117 6.334 1.538 8.376 4.023 4.437 5.398 3.777 14.777 2.864 21.239-1.556 11.002-5.29 22.135-9.537 32.375 5.552.438 10.734 1.191 16.145 2.517 7.088-3.158 13.606-6.9 20.137-11.078-3.69-15.646-15.917-53.396-7.97-66.745.698-1.172 1.473-1.789 2.576-2.55 2.816-.342 4.055-.393 6.565 1.311 6.448 4.38 9.219 14.944 10.103 22.187 1.766 14.481-1.06 28.1-5.359 41.817 12.321-9.77 23.284-20.223 34.081-31.641-10.242-13.033-23.662-35.249-21.374-52.271.436-3.245 1.441-6.236 4.172-8.216 1.465-1.063 2.452-.935 4.207-1.077 4.403 1.624 6.895 4.751 8.823 8.926 6.712 14.529 5.563 36.174 4.43 51.919 6.591-7.865 13.398-15.641 19.272-24.064-3.245-9.87-18.08-57.383-14.884-64.493.622-1.382 1.768-2.448 2.872-3.449 2.421-.672 3.647-1.098 6.034.205 4.584 2.503 6.748 10.147 7.697 14.92 3.329 16.744 1.274 36.637-1.809 53.314 7.797-12.664 21.318-50.045 35.203-52.613 1.231-.228 2.154.039 3.324.397 2.361 2.775 3.194 5.068 2.767 8.878-.778 6.937-4.936 14.273-9.184 19.654-8.956 11.346-21.032 17.313-30.875 27.208-5.317 5.344-9.625 12.356-14.15 18.396-8.871 11.84-18.997 22.592-30.864 31.478-11.294 8.457-23.646 15.581-35.665 22.951l-8.42 3.852c-7.051 3.262-14.152 6.192-21.403 8.981-15.056 4.968-30.348 9.528-45.304 14.757 29.651 2.877 62.492 8.835 82.678 33.223 3.01 3.635 6.785 9.536 6.33 14.434-.241 2.592-1.266 4.583-3.407 6.095-3.618 2.555-9.925 1.56-13.953.501-22.906-6.025-60.781-37.234-81.611-51.94-22.57 5.884-45.966 9.404-68.082 16.888-35.543 13.024-65.024 25.645-97.241 45.907-7.159 4.502-16.207 9.574-21.841 15.95-12.751 14.431-30.844 53.698-39.681 72.778-19 41.024-32.243 83.828-47.803 126.118-3.126 8.5-19.158 43.19-17.701 50.35l.153.77c.126.61.289 1.22.452 1.82-29.408 19.93-54.055 53.89-69.365 85.53-9.878-28.01-17.889-56.21-28.9-83.89 6.098-19.19 13.975-38.24 24.62-55.38 6.7-10.79 15.352-21.09 20.672-32.62l-.99-1.23 1.55-1.04-.455 1.77-1.327-.55c-22.091 19.93-36.78 54.12-46.845 81.52-4.914-9.87-8.773-20.5-13.283-30.58a594 594 0 0 0-24.102-47.77c.462-17.19 3.438-34.63 9.47-50.776 2.225-5.958 5.685-11.346 7.397-17.493l-1.113-.767c-.77.313-1.377.56-1.991 1.139-10.573 9.98-16.966 47.117-18.184 61.547-13.461-25.87-29.438-51.306-48.13-73.736V471.471c45.831 45.815 78.138 98.531 87.293 163.433 18.485.92 36.748 2.56 55.145 4.603 4.037-16.878 9.869-33.424 15.282-49.908-16.688-43.657-30.869-89.335-33.821-136.238-27.404-13.34-59.58-34.115-76.685-60.095-3.678-5.586-7.412-13.037-5.727-19.916.698-2.85 2.467-5.279 5.124-6.588 3.593-1.768 7.964-1.205 11.642-.008 31.699 10.311 51.308 55.274 65.153 82.752-2.976-22.376-2.913-44.983-2.438-67.504-19.241-9.107-36.926-18.346-52.98-32.51-7.469-6.588-21.638-19.092-21.48-29.721.045-3.027.998-3.983 2.892-6.089 3.16-1.304 5.595-1.393 8.921-.551 27.053 6.848 48.728 38.253 61.935 60.965a360 360 0 0 1 2.391-42.536c.47-2.633.66-4.525.153-7.163-20.281-10.398-39.45-25.548-52.624-44.287-4.087-5.812-10.387-15.764-8.462-23.296.717-2.807 1.968-3.568 4.178-5.132 2.436-.498 4.396-.528 6.782.284 24.673 8.394 41.044 49.098 50.929 70.971 1.257-16.037 2.955-31.837 5.372-47.74-19.268-10.272-39.974-27.082-50.045-46.854-2.022-3.969-4.232-10.02-2.358-14.348.963-2.226 2.592-3.679 4.951-4.263 2.61-.646 5.725.566 7.998 1.751 20.478 10.677 32.812 42.977 39.644 63.83.954-13.993 4.242-28.135 6.459-42.003-1.884-1.273-3.688-2.626-5.368-4.161-12.94-11.823-33.9-34.972-34.094-53.019-.037-3.456.775-6.21 3.114-8.756 2.238-.656 2.961-.972 5.265-.168 10.685 3.727 19.871 27.993 22.988 38.432 2.235 7.487 3.256 16.006 6.714 23.005l1.37.2c5.431-7.894 7.389-24.774 9.681-34.439a136 136 0 0 1-14.599-18.334c-6.948-10.424-19.967-31.666-16.401-44.426.732-2.62 1.604-3.251 3.902-4.466 2.401.125 3.956.514 5.969 1.895 13.671 9.385 18.284 47.923 21.656 63.305"/><path fill="#f6d3c8" d="M551.536 761.675c5.552.438 10.734 1.191 16.145 2.517l-11.693 5.797-9.46 3.94c1.759-4.042 3.356-8.167 5.008-12.254"/><path fill="#fcf9eb" d="M153.544 640.639a565 565 0 0 1 9.224-35.129c5.115 12.628 10.241 25.205 15.717 37.681-8.374-.537-16.623-1.447-24.941-2.552"/><path fill="#f6b4ae" d="M153.544 640.639c8.318 1.105 16.567 2.015 24.941 2.552l2.493 9.702c-13.646 16.045-24.493 34.443-35.517 52.331 1.361-21.71 4.669-43.126 8.083-64.585m318.932 155.335c15.145-15.266 29.598-28.413 40.592-47.276 8.001 3.342 16.301 5.544 24.311 8.698l.278 20.833c-21.956 5.202-43.057 12.828-65.181 17.745"/><path fill="#f6d3c8" d="M0 572.694c16.627 16.338 32.977 34.217 47.08 52.81-15.57 2.186-31.667.93-47.08 3.593z"/><path fill="#e97893" d="M312.94 850.647c10.642-19.198 22.578-37.767 34.173-56.399 13.675 4.51 40.691 11.145 51.406 18.721-30.872 8.961-58.574 19.997-85.579 37.678"/><path fill="#f6b4ae" d="M87.293 634.904c18.485.92 36.748 2.56 55.145 4.603-8.236 28.713-11.34 58.767-14.917 88.343-6.501-13.488-12.874-27.149-20.194-40.214-4.995-8.915-14.597-21.026-17.506-30.32-2.126-6.792-1.981-15.303-2.528-22.412m100.452 32.585c10.864 29.744 19.192 59.271 25.982 90.181-22.794-4.628-46.003-8.484-68.58-14.028 9.354-23.36 25.033-58.112 42.598-76.153"/><path fill="#fcf9eb" d="M0 480.247c28.293 35.131 43.44 61.476 58.223 104.191 5.042 14.567 9.886 29.477 13.24 44.536C49.054 600.341 25.826 574.388 0 548.763z"/><path fill="#e97893" d="M233.243 763.147c23.976 4.77 47.267 11.12 70.638 18.278 10.469 3.206 21.45 8.177 32.118 10.223-35.593 43.982-64.646 92.297-93.628 140.722.873-13.019 2.282-25.993 2.636-39.047 1.197-44.092-3.911-86.885-11.764-130.176"/><path fill="#f6b4ae" d="M47.08 625.504c25.518 34.652 46.666 70.659 62.619 110.686-3.496 1.387-56.461-6.185-65.203-6.878-14.843-1.177-29.62-1.425-44.496-1.494v-98.721c15.413-2.663 31.51-1.407 47.08-3.593m355.365 88.799.604.749c3.268.651 9.666-2.475 12.949-3.637 12.193 8.975 55.402 20.168 72.417 26.907-8.237 19.463-14.266 39.798-22.665 59.155-22.908 3.116-45.156 8.709-67.231 15.492-10.715-7.576-37.731-14.211-51.406-18.721 17.609-27.442 38.64-53.255 55.066-81.339zM200.14 648.738c15.631 4.78 33.006 6.202 49.028 9.817 22.066 4.978 43.915 11.453 65.683 17.59 21.951 6.188 44.672 11.965 65.684 20.879 2.554 8.469 3.936 16.596 4.586 25.427l-49.122 69.197c-10.668-2.046-21.649-7.017-32.118-10.223-23.371-7.158-46.662-13.508-70.638-18.278-5.533-21.164-9.738-42.408-16.599-63.253-5.073-15.413-12.774-30.515-17.057-46.056-.747-2.708-.863-2.594.553-5.1"/><path fill="#e97893" d="M138.368 762.913a693 693 0 0 0 6.779-19.271c22.577 5.544 45.786 9.4 68.58 14.028 4.707 26.132 8.978 51.891 10.564 78.452 5.077 85.007-11.214 183.388-47.813 260.568-7.339-11.92-14.519-23.97-22.65-35.37 28.707-105.856 17.266-195.297-15.46-298.407"/><path fill="#e97893" d="M0 727.818c14.876.069 29.654.317 44.496 1.494 8.742.693 61.707 8.265 65.203 6.878a477.5 477.5 0 0 1 20.157 294.18C93.696 987.907 47.556 951.001 0 922.009z"/><path fill="#fcf9eb" d="M934.486 0H2047.67c1.93 34.677.34 70.316.33 105.074v203.58l.08 100.792c.01 12.142 1.84 34.783-.83 45.391 2.69 13.387.79 51.517.78 67.408l-.02 64.366c-.01 11.35.58 23.083-.26 34.389l-1 .158c-4.48-1.619-18.04 4.279-22.96 5.873a1222 1222 0 0 0-143.32 56.384c-16.93 7.955-33.3 16.732-49.63 25.856-9.09 5.079-19.29 12.489-28.99 15.771 12.29 9.059 24.69 18.09 37.67 26.155 8.26 5.133 30.56 16.478 36.25 21.992l-.32 2.254c-4.45 2.678-9.6 6.214-14.62 7.611-5.65-6.016-21.39-11.646-29.07-16.526-13.07-8.304-35.71-27.93-48-33.436-.46-1.119-50.21-44.441-56.93-51.14a507 507 0 0 1-27.28-29.775c-8.1-9.641-28.08-37.134-36.98-43.131.24-3.793-18.73-29.329-21.91-34.134-13.53-20.469-25.65-43.098-36.21-65.234-4.75-9.963-17.5-43.381-22.63-49.503-17.93-3.226-36.71-4.751-54.81-7.37a676.5 676.5 0 0 1-99.33 41.69c-7.26 2.41-16.11 5.977-23.74 6.649-5.75-3.067-9.85-8.373-15.98-11.218 5.03-3.528 14.45-5.146 20.41-7.001 17.41-5.416 63.31-18.333 75.77-28.773-48.97-1.478-98.03-11.287-145.24-23.789-6.11-2.977-13.6-4.69-20.1-6.843a690 690 0 0 1-34.32-12.414 568.4 568.4 0 0 1-120.2-66.484A583.3 583.3 0 0 1 952.446 61.836C945.506 41.768 938.058 20.97 934.486 0"/><path fill="#9b80a8" d="M1124.15 0h16.49c18.24 85.016 41.6 143.433 91.49 215.119 11.34 16.289 24.2 34.981 38.41 48.872 53.29 59.179 115.72 110.531 188.69 143.676 10.5 4.768 61.57 22.182 65.58 25.42-.8 2.456-2.12 2.929-4.37 4.024-11.54 5.628-20.98 1.27-32.54.055-.17.106-.34.237-.53.318-3.43 1.457-12.8-.133-16.9-.418-46.1-3.209-103.3-12.526-146.57-28.618.52-1.132.41-2.295-.07-3.452-4.43-10.821-11.5-21.237-16.44-32.006-11.22-24.439-19.95-49.52-27.92-75.169-4.97-7.628-13.38-14.827-19.58-21.676a554 554 0 0 1-28.02-34.018C1178.44 171.97 1137.96 87.483 1124.15 0"/><path fill="#f6b4ae" d="M1279.47 297.821c43.56 45.364 94.96 85.426 151.05 114.15a549 549 0 0 0 29.09 13.781c6.77 2.897 23.39 7.472 28.29 11.414-.17.106-.34.237-.53.318-3.43 1.457-12.8-.133-16.9-.418-46.1-3.209-103.3-12.526-146.57-28.618.52-1.132.41-2.295-.07-3.452-4.43-10.821-11.5-21.237-16.44-32.006-11.22-24.439-19.95-49.52-27.92-75.169"/><path fill="#fcf9eb" d="M1140.64 0h150.23c-26.41 65.07-35.26 141.756-28.54 211.394 1.71 17.74 5.9 34.99 8.21 52.597-14.21-13.891-27.07-32.583-38.41-48.872-49.89-71.686-73.25-130.103-91.49-215.119"/><path fill="#e97893" d="M934.486 0h17.074a565.3 565.3 0 0 0 250.03 350.653c38.1 23.831 79.43 44.183 122.31 57.795 43.27 16.092 100.47 25.409 146.57 28.618 4.1.285 13.47 1.875 16.9.418.19-.081.36-.212.53-.318 11.56 1.215 21 5.573 32.54-.055 2.25-1.095 3.57-1.568 4.37-4.024 1.54.034 3.1-.076 4.58-.531 6.23-1.919 34.21-14.919 36.56-19.608 1.11-.022 2.02-.175 3.07-.575 3.59-1.38 9.25-3.894 10.81-7.414 8.72-1.774 21.3-11.74 28.83-16.597 67.39-43.469 130.99-105.046 177.21-170.697 41.01-58.238 68.72-116.291 91.15-183.687 2.76-8.294 10.05-25.898 8.64-33.978h16.97c1.49 8.568-6.27 28.343-9.23 37.005-23.2 68.006-53.83 132.701-95.39 191.554-38.24 54.153-93.52 110.398-146.84 150.099-21.41 15.943-44.15 29.311-66.08 44.398-4.1 3.105-8.43 5.459-13.26 7.262-6.71 3.32-13.29 6.661-19.71 10.532-7.53 5.324-18.07 6.352-25.11 11.955a676.5 676.5 0 0 1-99.33 41.69c-7.26 2.41-16.11 5.977-23.74 6.649-5.75-3.067-9.85-8.373-15.98-11.218 5.03-3.528 14.45-5.146 20.41-7.001 17.41-5.416 63.31-18.333 75.77-28.773-48.97-1.478-98.03-11.287-145.24-23.789-6.11-2.977-13.6-4.69-20.1-6.843a690 690 0 0 1-34.32-12.414 568.4 568.4 0 0 1-120.2-66.484A583.3 583.3 0 0 1 952.446 61.836C945.506 41.768 938.058 20.97 934.486 0"/><path fill="#f6b4ae" d="M1590.62 0h295.04c1.41 8.08-5.88 25.684-8.64 33.978-22.43 67.396-50.14 125.449-91.15 183.687-46.22 65.651-109.82 127.228-177.21 170.697-7.53 4.857-20.11 14.823-28.83 16.597.55-6.099-8-30.441-9.76-37.759-3.21-13.426-6.21-27.091-8.54-40.697a655 655 0 0 1-9.25-143.411 581.4 581.4 0 0 1 21.77-130.578c2.54-8.724 17.19-49.2 16.57-52.514"/><path fill="#f6b4ae" d="M1290.87 0h299.75c.62 3.315-14.03 43.79-16.57 52.514a581.4 581.4 0 0 0-21.77 130.578 655 655 0 0 0 9.25 143.411c2.33 13.606 5.33 27.271 8.54 40.697 1.76 7.318 10.31 31.66 9.76 37.759-1.56 3.52-7.22 6.034-10.81 7.414-1.05.4-1.96.553-3.07.575-2.35 4.689-30.33 17.689-36.56 19.608-1.48.455-3.04.565-4.58.531-4.01-3.238-55.08-20.652-65.58-25.42-72.97-33.145-135.4-84.497-188.69-143.676-2.31-17.607-6.5-34.857-8.21-52.597-6.72-69.638 2.13-146.323 28.54-211.394"/><path fill="#9b80a8" d="M1573.62 0h17c.62 3.315-14.03 43.79-16.57 52.514a581.4 581.4 0 0 0-21.77 130.578 655 655 0 0 0 9.25 143.411c2.33 13.606 5.33 27.271 8.54 40.697 1.76 7.318 10.31 31.66 9.76 37.759-1.56 3.52-7.22 6.034-10.81 7.414-1.05.4-1.96.553-3.07.575.31-2.474-16.17-62.519-17.89-71.942-16.26-89.126-17.28-180.558 4.48-268.981 5.54-22.495 13.47-44 20.38-66.051.69-2.216.99-3.623.7-5.974"/><path fill="#f6b4ae" d="M1902.63 0h145.04c1.93 34.677.34 70.316.33 105.074v203.58l.08 100.792c.01 12.142 1.84 34.783-.83 45.391 2.69 13.387.79 51.517.78 67.408l-.02 64.366c-.01 11.35.58 23.083-.26 34.389l-1 .158c-4.48-1.619-18.04 4.279-22.96 5.873a1222 1222 0 0 0-143.32 56.384c-16.93 7.955-33.3 16.732-49.63 25.856-9.09 5.079-19.29 12.489-28.99 15.771 12.29 9.059 24.69 18.09 37.67 26.155 8.26 5.133 30.56 16.478 36.25 21.992l-.32 2.254c-4.45 2.678-9.6 6.214-14.62 7.611-5.65-6.016-21.39-11.646-29.07-16.526-13.07-8.304-35.71-27.93-48-33.436-.46-1.119-50.21-44.441-56.93-51.14a507 507 0 0 1-27.28-29.775c-8.1-9.641-28.08-37.134-36.98-43.131.24-3.793-18.73-29.329-21.91-34.134-13.53-20.469-25.65-43.098-36.21-65.234-4.75-9.963-17.5-43.381-22.63-49.503-17.93-3.226-36.71-4.751-54.81-7.37 7.04-5.603 17.58-6.631 25.11-11.955 6.42-3.871 13-7.212 19.71-10.532 4.83-1.803 9.16-4.157 13.26-7.262 21.93-15.087 44.67-28.455 66.08-44.398 53.32-39.701 108.6-95.946 146.84-150.099 41.56-58.853 72.19-123.548 95.39-191.554 2.96-8.662 10.72-28.437 9.23-37.005"/><path fill="#9b80a8" d="M1592.03 444.847c40.71.838 80.75 2.196 121.4-1.982 123-12.644 238.35-69.064 331.38-149.048l1.06.323c1.54 5.228 2.18 14.809-.35 19.723-3 5.719-17.65 15.513-23.58 20.058a629.8 629.8 0 0 1-199.79 102.762c-72.76 22.729-146.97 28.165-222.79 24.712 6.01 7.032 10.25 22.447 14.52 31.407 8.51 17.864 17.55 35.931 27.45 53.072 7.33 12.691 15.88 25.028 24.38 36.979 5.24 7.364 16 19.199 19.01 27.198 7.1 6.786 13.12 15.161 19.4 22.714a469 469 0 0 0 25.02 27.855 510 510 0 0 0 40.54 38.509c10.54 8.866 21.73 16.961 32.17 25.913 12.29 9.059 24.69 18.09 37.67 26.155 8.26 5.133 30.56 16.478 36.25 21.992l-.32 2.254c-4.45 2.678-9.6 6.214-14.62 7.611-5.65-6.016-21.39-11.646-29.07-16.526-13.07-8.304-35.71-27.93-48-33.436-.46-1.119-50.21-44.441-56.93-51.14a507 507 0 0 1-27.28-29.775c-8.1-9.641-28.08-37.134-36.98-43.131.24-3.793-18.73-29.329-21.91-34.134-13.53-20.469-25.65-43.098-36.21-65.234-4.75-9.963-17.5-43.381-22.63-49.503-17.93-3.226-36.71-4.751-54.81-7.37 7.04-5.603 17.58-6.631 25.11-11.955 6.42-3.871 13-7.212 19.71-10.532 4.83-1.803 9.16-4.157 13.26-7.262.86.805 1.48 1.415 2.1 2.426 2.66 4.343 6.13 14.518 4.84 19.365"/><path fill="#f6b4ae" d="M1552.12 440.85c6.42-3.871 13-7.212 19.71-10.532 2.09 3.039 5.63 9.391 5.55 12.923z"/><path fill="#fcf9eb" d="m2045.7 455 1.55-.163c2.69 13.387.79 51.517.78 67.408l-.02 64.366c-.01 11.35.58 23.083-.26 34.389l-1 .158c-4.48-1.619-18.04 4.279-22.96 5.873a1222 1222 0 0 0-143.32 56.384c-16.93 7.955-33.3 16.732-49.63 25.856-9.09 5.079-19.29 12.489-28.99 15.771-10.44-8.952-21.63-17.047-32.17-25.913a510 510 0 0 1-40.54-38.509 469 469 0 0 1-25.02-27.855c-6.28-7.553-12.3-15.928-19.4-22.714 9.15-2.289 21.77-.05 31.43-.422a392 392 0 0 0 49.15-5.111c92.54-14.888 165-47.235 236.71-107.632 14.79-12.46 32.38-26.225 43.69-41.886"/><path fill="#f6b4ae" d="M1902.63 0h145.04c1.93 34.677.34 70.316.33 105.074v203.58l.08 100.792c.01 12.142 1.84 34.783-.83 45.391l-1.55.163c.23-.431.61-1.09.77-1.59 1.67-5.241 1.15-121.095.39-134.794-.1-1.785-.53-3.161-1.34-4.753 2.53-4.914 1.89-14.495.35-19.723l-1.06-.323c-93.03 79.984-208.38 136.404-331.38 149.048-40.65 4.178-80.69 2.82-121.4 1.982 1.29-4.847-2.18-15.022-4.84-19.365-.62-1.011-1.24-1.621-2.1-2.426 21.93-15.087 44.67-28.455 66.08-44.398 53.32-39.701 108.6-95.946 146.84-150.099 41.56-58.853 72.19-123.548 95.39-191.554 2.96-8.662 10.72-28.437 9.23-37.005"/><path fill="#fcf9eb" d="M2046.7 0h.97c1.93 34.677.34 70.316.33 105.074v203.58l.08 100.792c.01 12.142 1.84 34.783-.83 45.391l-1.55.163c.23-.431.61-1.09.77-1.59 1.67-5.241 1.15-121.095.39-134.794-.1-1.785-.53-3.161-1.34-4.753 2.53-4.914 1.89-14.495.35-19.723 3-11.649 1.08-67.283 1.09-83.797.06-70.062 1.05-140.301-.26-210.343"/><path fill="#9b80a8" d="M1801.85 725.042c9.7-3.282 19.9-10.692 28.99-15.771 16.33-9.124 32.7-17.901 49.63-25.856a1222 1222 0 0 1 143.32-56.384c4.92-1.594 18.48-7.492 22.96-5.873l1-.158c1.15 31.779.28 63.864.28 95.671l.01 179.09-.01 238.539c0 40.8.7 81.73-.07 122.51-.05 2.68-.21 4.7-1.31 7.2 2.4 5.41 2.78 92.66.73 98.73-.27.81-.68 1.54-1.13 2.26H0V965.714c18.692 22.43 34.669 47.866 48.13 73.736 1.218-14.43 7.611-51.567 18.184-61.547.614-.579 1.222-.826 1.99-1.139l1.114.767c-1.712 6.147-5.172 11.535-7.398 17.493-6.03 16.146-9.007 33.586-9.469 50.776a594 594 0 0 1 24.102 47.77c4.51 10.08 8.369 20.71 13.283 30.58 10.065-27.4 24.754-61.59 46.845-81.52l1.327.55.455-1.77-1.55 1.04.99 1.23c-5.32 11.53-13.972 21.83-20.672 32.62-10.645 17.14-18.522 36.19-24.62 55.38 11.011 27.68 19.022 55.88 28.9 83.89 15.31-31.64 39.957-65.6 69.365-85.53-.163-.6-.326-1.21-.452-1.82l-.153-.77c-1.457-7.16 14.575-41.85 17.701-50.35 15.56-42.29 28.803-85.094 47.803-126.118 8.837-19.08 26.93-58.347 39.681-72.778 5.634-6.376 14.682-11.448 21.841-15.95 32.217-20.262 61.698-32.883 97.241-45.907 22.116-7.484 45.512-11.004 68.082-16.888 20.83 14.706 58.705 45.915 81.611 51.94 4.028 1.059 10.335 2.054 13.953-.501 2.141-1.512 3.166-3.503 3.407-6.095.455-4.898-3.32-10.799-6.33-14.434-20.186-24.388-53.027-30.346-82.678-33.223 14.956-5.229 30.248-9.789 45.304-14.757 7.251-2.789 14.352-5.719 21.403-8.981l8.42-3.852c10.002 3.941 20.537 6.365 30.576 10.359 19.333 3.502 34.947 6.553 50.567 19.327 39.134 13.175 76.749 34.226 113.119 53.579 41.265-40.86 97.072-77.928 157.179-77.659 101.709.456 133.769 87.846 214.739 125.216 26.93 12.43 57.46 17.416 86.98 17.824.03-24.231 3.32-91.197 14.53-109.386 9.37-15.217 20.7-22.115 27.51-40.547 12.9 7.178 22.92 20.396 34.51 29.561 5.33 28.244-.83 61.069-.82 89.957 6.61 7.296 12.9 14.784 19.11 22.421 41.55 1.7 68.57 11.04 99.59 39.895.25.98.53 1.775.45 2.792 3.42 1.485 7.3 3.254 8.85 6.915.17.402.32.817.47 1.226.19-.219.38-.437.56-.658 6.63-8 10.41-16.675 19.07-23.134 4.28-3.195 9.7-5.124 13.75-8.437-.5 4.676-14.52 26.521-18.33 29.77-.22.19-.46.365-.69.547 10.45-4.693 19.23-9.572 30.48-12.508-1.21 4.663-10.43 11.389-14.55 14.007 6.84-.403 37.31-1.074 41.25-3.579 10.28.483 21.25-.865 31.54-1.582l53.94-3.748c19.65-1.319 40.54-.647 59.86-3.766 5.39-3.432 10.48-9.395 15.16-13.823 9.69-9.168 19.33-18.274 29.49-26.937 37.84-32.289 76.41-62.194 118.16-89.284 6.66-4.326 54.19-32.014 55.13-33.088.43-.49.56-1.175.84-1.762 5.02-1.397 10.17-4.933 14.62-7.611l.32-2.254c-5.69-5.514-27.99-16.859-36.25-21.992-12.98-8.065-25.38-17.096-37.67-26.155"/><path fill="#433960" d="M1882.85 1040.05c4.51.32 7.93 2.46 10.9 5.8.61.68.45.5.88 1.32 41.13-.47 81.75-.53 122.64 4.67 9.36 1.19 18.8 2.03 27.93 4.49.95 2.09.85 1.98.1 4.17-2.2 1.29-3.96 1.57-6.5 1.47-8.28-.34-16.74-2.65-24.96-3.78-11.82-1.62-24.18-2.3-36.09-3.04-25.05-1.57-50.32-1.14-75.42-1.24 12.08 7.24 42.83 34.86 50.53 46.69l-.02 2.47c.03.17.08.35.09.52.27 5.44-11.32 27.13-13.95 33.26-8.58 20.03-15.55 41.13-24.64 60.84-.75 1.62-1.86 3.06-2.99 4.42.04-.46.14-1.22.09-1.72-.81-7.52-36.02-76.36-41.94-81.02 2.16-3.77 14.21-74.27 13.35-79.32"/><path fill="#433960" d="M1833.96 1007.49c20.23-5.33 39.94-14.322 59.82-20.96 21.04-7.027 42.45-12.702 63.79-18.705 21.58-6.069 43.2-12.509 65.13-17.15 7.56-1.6 14.68-5.469 22.35-6.233 1.44 1.785 1.02 2.889 1.01 5.134-3.67 4.625-34.32 10.531-41.86 12.603-29.27 8.038-58.97 15.412-87.94 24.42-25.33 7.875-50.51 17.771-76.17 24.351 7.3 2.66 28.8 15.11 33.07 20.49 14.97-2.85 29.26-8.49 44.04-12.11a649.4 649.4 0 0 1 99.57-16.61c8.83-.83 19.58-3.218 28.27-2.27l1.01 1.67-.69 2.37c-4.38 3.66-44.63 6.64-53.03 7.79-28.33 3.88-56.1 9.87-83.81 16.87-9.24 2.33-18.17 5.98-27.47 7.9-1.05.59-1.67.56-2.01 1.77-3.59 12.86-8.85 64.31-13.94 70.91-1.06-11.23-59.27-99.12-68.65-106.56-.84-.67-.85-.62-1.83-1.16l-1.08 1.24c3.51 11.08 13.9 22.44 20.46 32.07 7.43 10.88 48.79 71.4 47.79 81.05-6.68-3.76-68.6-23.65-72.97-23.88l-1.58 1.5c7.81 8.87 66.19 20.17 77.59 28.5 5.74 4.97 42.26 75.47 43.44 83.82.09.65 0 1.68-.03 2.28-14.82-7.65-87.48-29.01-103.23-31.03l-1.06.76c7.52 6.76 72.34 24.03 87.08 28.95 6.04 2.02 13.89 3.74 18.93 7.61 5.56 5.79 34.17 79.05 33.49 87.79-.08 1.04-.39 2.01-.69 3-9.91-4.97-23.16-7.52-33.84-10.69a1959 1959 0 0 0-89.99-24.92c-1.16 5.56 2.67 9.74-2.68 13.8 1.56 1.79 2.63 3.3 4.98 3.95l.79-2.02c-.73-3.83-1.25-7.45-3.34-10.81 27.6 4.75 59.16 15.42 86.04 23.62 13.24 4.04 27.76 7.29 40.36 12.85.61.63.6.58 1.19 1.44 3.13 4.58 15.69 43.87 14.77 49.13h-152.02c-3.2-5.88-41.17-33.56-48.83-37.46 1.68-4.06-9.06-45.11-11.1-50.94-1.45-4.15-4.45-10.69-8.58-12.65 2.11 12.99 16.34 50.37 13.13 60.22-.07.22-.17.44-.25.65-.2-.39-.39-.79-.6-1.18-7.67-13.84-108.41-65.55-127.47-71.02.09-.45.29-1.19.29-1.69-.01-6.11-25.47-70.15-29.74-75.09 7.65-2.38 31.42 3.91 40.22 5.65.82-4.68-32.22-96.13-36.36-102.89-.51-.83-1.15-1.48-1.83-2.18-49.26 1.31-98.66.25-147.85 1.89-132.02 4.43-240.76 31.06-351.74 105.1-48.52 32.38-91.3 72.31-140.373 103.97-31.19 20.12-63.328 38.44-97.351 53.35-9.635 4.22-19.303 8.49-29.146 12.21-9.635 3.63-23.502 6.33-31.826 12.07l-.834.21c-7.668-.59-15.563-.36-23.27-.62 28.586-9.47 57.206-19.35 84.715-31.68 48.613-21.79 95.317-51.31 138.076-82.89 18.039-13.32 35.019-28.07 52.769-41.78 101.16-78.07 207.62-122.57 335.19-133.93 69.11-6.15 139.44-4.49 208.79-5.34.17-.6.48-1.53.51-2.2.27-5.19-6.62-23.86-10.32-27.39 17.2 3.55 61.37 17.75 74.59 27.7 29.48-8.59 59.38-15.6 88.84-24.3 9.77-2.89 21-5.32 30.14-9.72 2.48-6.05-4.27-53.695-7.44-61.293 9.94 3.22 55.34 31.733 62.59 38.693"/><path fill="#9b80a8" d="m1782.03 1100.5 2.76-.1 1.42 1.37c1.91 8.16 7.16 37.84 4 44.28-2.55-5.3-13.61-13.04-18.85-15.78-2.68-4.59-20.1-16.36-25.34-18.87 11.69-2.62 25.24-5.57 36.01-10.9"/><path fill="url(#a)" d="M1816.25 1283.86c-3.79-8.48-12.86-16.52-18.43-24.07-42.49-57.55-87.3-111.6-140.68-159.43-10.23-9.18-20.78-19.62-32.2-27.26.35.16.7.33 1.05.49 13.05 5.75 25.05 16.42 36.47 24.98 44.65 33.48 87.07 68.25 124.54 109.83 16.38 18.17 33.33 35.13 31.93 61.66-1.16 5.56 2.67 9.74-2.68 13.8"/><path fill="#9b80a8" d="m1776.99 1036.5 2.5.11c.55.58.68.63 1.04 1.47 2.35 5.5 5.57 50.33 3.34 55.13-4.06 4.21-36.66 12.1-44.3 14.19-3.37-6.41-30.29-20.8-37.4-23.38-4.21-5.32-25.18-13.59-32.06-16.28 13.56-1.53 28.42-7.06 41.57-10.82 21.25-6.07 45.11-11.45 65.31-20.42m-977.376 325.53c8.324-5.74 22.191-8.44 31.826-12.07 9.843-3.72 19.511-7.99 29.146-12.21 34.023-14.91 66.161-33.23 97.351-53.35 49.073-31.66 91.853-71.59 140.373-103.97 110.98-74.04 219.72-100.67 351.74-105.1 49.19-1.64 98.59-.58 147.85-1.89.68.7 1.32 1.35 1.83 2.18 4.14 6.76 37.18 98.21 36.36 102.89-8.8-1.74-32.57-8.03-40.22-5.65-.44-.9-1.03-1.09-1.85-1.63l-3.16 1.75-.29-1.02c-10.37-5.44-88.9-7.83-101.97-3.96-1.38-.74-2.52-.19-4.03.08-9.73-5.14-85.1 12.53-101.44 15.2 3.91 2.41 24.12 20.82 25.02 24.2-7.07 5.06-19.06 7.86-27.29 10.99a562 562 0 0 0-37.24 15.28c-58.01 26.23-110.33 57.01-162.83 92.92-15.95 10.91-34.46 22.58-48.03 36.25-10.99-1.6-22.97-.73-34.09-.71l-58.05.07-152.149.06c-29.567.02-59.311.69-88.857-.31"/><path fill="#fcf9eb" d="m2046.75 621.158 1-.158c1.15 31.779.28 63.864.28 95.671l.01 179.09-.01 238.539c0 40.8.7 81.73-.07 122.51-.05 2.68-.21 4.7-1.31 7.2 2.4 5.41 2.78 92.66.73 98.73-.27.81-.68 1.54-1.13 2.26H0V965.714c18.692 22.43 34.669 47.866 48.13 73.736 1.218-14.43 7.611-51.567 18.184-61.547.614-.579 1.222-.826 1.99-1.139l1.114.767c-1.712 6.147-5.172 11.535-7.398 17.493-6.03 16.146-9.007 33.586-9.469 50.776a594 594 0 0 1 24.102 47.77c4.51 10.08 8.369 20.71 13.283 30.58 10.065-27.4 24.754-61.59 46.845-81.52l1.327.55.455-1.77-1.55 1.04.99 1.23c-5.32 11.53-13.972 21.83-20.672 32.62-10.645 17.14-18.522 36.19-24.62 55.38 11.011 27.68 19.022 55.88 28.9 83.89 15.31-31.64 39.957-65.6 69.365-85.53 1.441 1.42 2.428 2.24 2.704 4.36a729 729 0 0 1 12.483 30.94c2.109-5.55 4.617-14.01 10.517-16.71 1.882-.86 3.958-.86 5.874-.11 11.414 4.47 17.727 19.14 21.803 29.74 12.566 32.67 13.373 65.89 11.932 100.51 8.119-19.05 16.99-37.49 26.427-55.93-20.974-27.6-44.919-80.2-39.963-115.86.72-5.18 2.575-10.39 6.828-13.73 2.098-1.65 4.619-2.63 7.31-2.19 4.777.8 8.166 5.54 10.614 9.34 10.106 15.71 15.248 35.26 17.96 53.57 1.309 8.84 2.404 17.98 2.708 26.9.212 6.24-2.27 27.45-.041 30.78l1.407-1.86c5.751-2.9 6.091-12.76 11.299-15.52-.062 3.82-8.784 13.08-6.247 15.97a998 998 0 0 0-8.062 16.34c7.921-2.72 15.673-7.31 23.191-11 16.813-8.27 34.587-15.44 53.26-18.06 14.366-2.01 28.104-1.22 40.002 7.68 9.113-4.96 18.174-10.13 27.597-14.48 43.363-22.69 94.685-32.21 143.235-33.27-15.142 37.45-29.851 74.1-47.686 110.41-7.718 15.28-21.408 41.4-32.566 54.03l-2.412 4.42c-37.814-14.13-76.229-12.46-114.737-3.09-9.822 13.69-22.855 25.01-32.598 38.84l71.704-.02c12.292-.01 24.854.57 37.1-.16l264.029.47c16.605-.03 69.467 2.74 82.132-.11l.834-.21c29.546 1 59.29.33 88.857.31l152.149-.06 58.05-.07c11.12-.02 23.1-.89 34.09.71 13.57-13.67 32.08-25.34 48.03-36.25 52.5-35.91 104.82-66.69 162.83-92.92a562 562 0 0 1 37.24-15.28c8.23-3.13 20.22-5.93 27.29-10.99-.9-3.38-21.11-21.79-25.02-24.2 16.34-2.67 91.71-20.34 101.44-15.2 1.51-.27 2.65-.82 4.03-.08 13.07-3.87 91.6-1.48 101.97 3.96l.29 1.02 3.16-1.75c.82.54 1.41.73 1.85 1.63 4.27 4.94 29.73 68.98 29.74 75.09 0 .5-.2 1.24-.29 1.69 19.06 5.47 119.8 57.18 127.47 71.02.21.39.4.79.6 1.18.08-.21.18-.43.25-.65 3.21-9.85-11.02-47.23-13.13-60.22 4.13 1.96 7.13 8.5 8.58 12.65 2.04 5.83 12.78 46.88 11.1 50.94 7.66 3.9 45.63 31.58 48.83 37.46h152.02c.92-5.26-11.64-44.55-14.77-49.13-.59-.86-.58-.81-1.19-1.44-12.6-5.56-27.12-8.81-40.36-12.85-26.88-8.2-58.44-18.87-86.04-23.62 2.09 3.36 2.61 6.98 3.34 10.81l-.79 2.02c-2.35-.65-3.42-2.16-4.98-3.95 5.35-4.06 1.52-8.24 2.68-13.8a1959 1959 0 0 1 89.99 24.92c10.68 3.17 23.93 5.72 33.84 10.69.3-.99.61-1.96.69-3 .68-8.74-27.93-82-33.49-87.79-5.04-3.87-12.89-5.59-18.93-7.61-14.74-4.92-79.56-22.19-87.08-28.95l1.06-.76c15.75 2.02 88.41 23.38 103.23 31.03.03-.6.12-1.63.03-2.28-1.18-8.35-37.7-78.85-43.44-83.82-11.4-8.33-69.78-19.63-77.59-28.5l1.58-1.5c4.37.23 66.29 20.12 72.97 23.88 1-9.65-40.36-70.17-47.79-81.05-6.56-9.63-16.95-20.99-20.46-32.07l1.08-1.24c.98.54.99.49 1.83 1.16 9.38 7.44 67.59 95.33 68.65 106.56 5.09-6.6 10.35-58.05 13.94-70.91.34-1.21.96-1.18 2.01-1.77.98 1.03 1.56 1.57 1.8 3 .86 5.05-11.19 75.55-13.35 79.32 5.92 4.66 41.13 73.5 41.94 81.02.05.5-.05 1.26-.09 1.72 1.13-1.36 2.24-2.8 2.99-4.42 9.09-19.71 16.06-40.81 24.64-60.84 2.63-6.13 14.22-27.82 13.95-33.26-.01-.17-.06-.35-.09-.52l3.13 1.09c.01 1.04.05 1.84-.22 2.85 7.12 1.14 25.58 28.2 30.36 34.79 6.65 9.16 32.17 49 33.22 58.53-.75.59-1.48 1.25-2.32 1.71 1 .74 2.07 1.42 2.92 2.34.64.43 1.85 1 2.34 1.55 3.69 4.15 21.18 51.19 22.3 57.76.07.4.06.82.08 1.24.98-2.11 1.29-2.38.86-4.76.15-.39.32-.77.46-1.16 2.71-7.55.43-157.36.44-180.36l-.04-105.636c.23-29.573 1.18-59.362.22-88.921-.08-2.247-.35-3.868-1.27-5.922 1.06-1.939 1.55-3.952 1.63-6.162 1.08-27.327-.29-54.971-.24-82.347a15973 15973 0 0 0 .04-168.504"/><path fill="#433960" d="M0 973.103c14.389 19.291 27.116 39.407 40.055 59.677A2157 2157 0 0 1 0 1015.88zm0 48.187c15 5.66 29.297 12.99 44.28 18.57 15.68 26.78 29.642 56.39 40.487 85.45-26.832-17.96-54.985-28.54-84.767-40.15zm427.844 249.76c20.381-4.2 41.014-8.35 61.933-8.11 9.069.11 27.465 5.43 35.073 3.02l1.278 1.9c-7.718 15.28-21.408 41.4-32.566 54.03-39.374-12.93-70.993-13.16-110.946-4.82 13.627-16.5 29.855-31.18 45.228-46.02M1488.6 1168c13.07-3.87 91.6-1.48 101.97 3.96l.29 1.02c5.1 6.05 28.91 66.4 28.45 73.69-7.4-6.95-89.99-32.91-103.96-35.81-.25-4.24-22.91-39.1-26.75-42.86M0 1090.3c31.045 9.82 61.259 23.75 87.97 42.51 12.096 27.21 21.921 57.34 29.085 86.21-35.755-23.94-74.89-42.4-117.055-51.81z"/><path fill="#433960" d="M430.579 1190.72c43.363-22.69 94.685-32.21 143.235-33.27-15.142 37.45-29.851 74.1-47.686 110.41l-1.278-1.9c-.147-1.44-.329-1.79-1.036-2.99-23.18-8.08-65.708-2.97-89.461 2.82 8.317-7.81 16.741-15.51 25.693-22.59 9.089-7.18 19.076-13.75 27.275-21.94a324 324 0 0 1 32.67-6.75c6.822-1.08 22.653-.97 28.276-3.66.65-.31 1.088-.95 1.632-1.42l-.831-1.6c-9.141-4.37-43.346 4.2-53.851 7.58 22.87-19.12 47.944-36.14 72.499-52.98-21.011 7.11-56.477 35.27-75.469 49.36l3.506-14.89c1.466-6.34 6.208-20.83 2.822-26.26l-1.696.56c-4.475 8.35-8.439 35.99-11.413 47.23-19.657 13.11-37.542 28.43-55.065 44.21.408-3.74 1.062-7.47 1.596-11.19 1.543-10.76 7.385-51.95 1.345-60.01l-2.491.22zm1525.171-83.71c7.12 1.14 25.58 28.2 30.36 34.79 6.65 9.16 32.17 49 33.22 58.53-.75.59-1.48 1.25-2.32 1.71-2.73 7.05-17.83 24.17-23.15 31.36a833 833 0 0 0-27.22 39.06c-5.12 7.92-11.83 22.38-19.4 27.71.26-.93.45-1.8.42-2.77-.31-9.14-27.5-82.83-33.03-87.74.95-1.15 1.75-2.2 2.36-3.58 5.4-12.19 9.16-25.35 14.15-37.77 7.54-18.79 16.28-37.15 23.57-56.03.74-1.91 1.06-3.22 1.04-5.27M0 1171.9c42.013 9.98 85.342 27.77 119.24 54.98 3.474 15.33 6.937 30.67 9.485 46.18 2.313 14.07 3.709 28.56 6.738 42.48-40.954-29.69-85.262-50.6-135.463-59.26zm2019.93 32.48c.64.43 1.85 1 2.34 1.55 3.69 4.15 21.18 51.19 22.3 57.76.07.4.06.82.08 1.24.62 1.06 1.31 2.3 1.63 3.48 1.95 7.12 1.39 78.36.46 89.17-.14 1.66-.67 2.97-1.54 4.36l-79.34.16c.26-.98.26-.88.39-2.07.67-6.27-12.48-46.8-16.53-51.98 5.19-4.41 16.5-26.57 21.17-33.87 5.68-8.88 48.23-66.3 48.78-68.02.16-.49.21-1.33.26-1.78"/><path fill="#433960" d="M0 1260.1c51.036 11.68 95.164 29.09 135.972 62.27a1513 1513 0 0 1 1.911 39.63L0 1362.05zm1383.13-76.82c16.34-2.67 91.71-20.34 101.44-15.2 5.24 5.71 22.78 35.03 22.79 41.76-7.25-4.15-81.2-21.07-89.18-19.59l.17.91-.1-.17c27.28 7.84 65.15 14.32 90.06 23.93-.34.26-.68.53-1.02.79-11.77 8.81-49.9 19.08-59.94 30.12l.59 1.3c2.94-.07 5.38-1.08 8.05-2.21 5.95-2.52 56.05-25.78 57.44-27.03.4-.36.86-1.01 1.17-1.41 17.76 3.83 106.82 31.19 115.13 41.85-12.84 3.33-25.95 5.46-38.83 8.59a458 458 0 0 0-58.47 18.56c-9.88 3.8-20.17 7.71-29.03 13.59l-.52 1.54c1.95 1.08 2.88.79 5.06.19 6.85-1.9 13.56-5.77 20.15-8.46a541 541 0 0 1 37.78-13.43c24.2-7.5 49.15-10.61 73.37-17.38 14.51 4.31 97.69 48.28 103.74 58.73.07.11.12.23.18.35-16.82 2.74-33.79 4.44-50.63 7.14a708 708 0 0 0-85 18.85c-7.51 2.13-18.18 4-24.37 8.81l.35 1.31c8.58 1.24 43.46-10.8 55-13.41 37.43-8.46 74.58-14.13 112.66-18.59 6.99 3.02 45.64 30.81 48.29 37.34l-140.77-.13c-26.74.07-54.01 1.23-80.68-.14-1.75-2.9-23.42-15.88-28.42-19.37a574 574 0 0 1-52.25-41.32 596 596 0 0 1-34.74-33.48c-9.42-9.99-40.96-48.92-49.35-53.62-15.3 5.89-30.87 11.28-45.96 17.68-61.36 26.03-122.2 58.92-176.9 97.02-15.39 10.73-31.34 21.61-45.15 34.34-4.07.39-8.39 0-12.48-.12 13.57-13.67 32.08-25.34 48.03-36.25 52.5-35.91 104.82-66.69 162.83-92.92a562 562 0 0 1 37.24-15.28c8.23-3.13 20.22-5.93 27.29-10.99-.9-3.38-21.11-21.79-25.02-24.2"/><path fill="#9b80a8" d="M1145.24 1363.04c13.81-12.73 29.76-23.61 45.15-34.34 54.7-38.1 115.54-70.99 176.9-97.02 15.09-6.4 30.66-11.79 45.96-17.68 8.39 4.7 39.93 43.63 49.35 53.62a596 596 0 0 0 34.74 33.48 574 574 0 0 0 52.25 41.32c5 3.49 26.67 16.47 28.42 19.37a7342 7342 0 0 1-117.81.44l-190.3.15c-41.5-.01-83.18-.7-124.66.66"/><path fill="#433960" d="M282.716 1222.84c-20.974-27.6-44.919-80.2-39.963-115.86.72-5.18 2.575-10.39 6.828-13.73 2.098-1.65 4.619-2.63 7.31-2.19 4.777.8 8.166 5.54 10.614 9.34 10.106 15.71 15.248 35.26 17.96 53.57 1.309 8.84 2.404 17.98 2.708 26.9.212 6.24-2.27 27.45-.041 30.78l1.407-1.86c5.751-2.9 6.091-12.76 11.299-15.52-.062 3.82-8.784 13.08-6.247 15.97a998 998 0 0 0-8.062 16.34c7.921-2.72 15.673-7.31 23.191-11 16.813-8.27 34.587-15.44 53.26-18.06 14.366-2.01 28.104-1.22 40.002 7.68 9.113-4.96 18.174-10.13 27.597-14.48l.272.94c-1.809 4.67-.375 28.71-.866 36.13-.912 13.76-2.77 27.65-6.566 40.93-16.964 16.27-33.649 31.94-48.39 50.33.985-21.57-1.073-39.14-4.249-60.24-1.014-6.73-1.535-17.16-5.584-22.78l-1.25.07c-2.896 8.26 4.101 31.98 4.996 42.17 1.321 15.03 1.352 30.04 1.942 45.1-6.215 6.7-29.645 37.81-36.429 38.58-1.579-1.66-2.099-3.25-2.599-5.44-1.198-5.26-.947-10.95-1.699-16.3-1.467-10.46-4.163-22.13-7.339-32.15-1.45-4.58-4.234-14.36-8.746-16.69-.634 3.36.798 7.96 1.711 11.18 6.608 23.3 9.726 35.53 12.285 59.42-30.823.22-62.409 1.42-93.141-.51l-.101-2.38-.791-.31c-.339.56-.947 1.6-1.352 2.07-.048.05-1.27 1.18-1.505 1.25-4.018 1.18-77.715-.05-88.178-.06.125-12.82-.798-25.92-2.315-38.65 16.586-26.25 34.462-48.74 58.214-68.95 9.634-8.2 23.385-14.93 30.836-25.07-35.598 12.63-69.053 56.04-89.835 86.02a1043 1043 0 0 0-16.268-91.24c12.672-34.23 40.196-68.87 70.048-89.74a729 729 0 0 1 12.483 30.94c2.109-5.55 4.617-14.01 10.517-16.71 1.882-.86 3.958-.86 5.874-.11 11.414 4.47 17.727 19.14 21.803 29.74 12.566 32.67 13.373 65.89 11.932 100.51 8.119-19.05 16.99-37.49 26.427-55.93"/><path fill="#e97893" d="M229.888 1248.6c7.493 13.44 14.328 27 22.218 40.29-5.312 14.69-11.392 29.05-16.414 43.86-1.451 5.15-3.162 10.22-4.804 15.31.041-19.07 1.427-38.04 1.113-57.15-.232-14.13-2.124-28.19-2.113-42.31m26.501 43.96c18.42 2.77 35.334 5.3 53.947 3.25-4.987 9.28-10.319 18.41-15.49 27.59-6.014 2.09-12.112 3.98-18.163 5.96-14.053 5.01-27.295 11.9-40.808 18.18a1326 1326 0 0 1 20.514-54.98m28.651-64.24c27.573 5.06 49.186 7.76 77.392 7.36-5.338 4.01-9.587 9.58-15.206 13.17-10.346 6.62-27.592 8.94-39.575 14.16a395 395 0 0 0-50.208 26.99c7.868-20.96 17.744-41.57 27.597-61.68"/><path fill="#433960" d="M1801.85 725.042c9.7-3.282 19.9-10.692 28.99-15.771 16.33-9.124 32.7-17.901 49.63-25.856a1222 1222 0 0 1 143.32-56.384c4.92-1.594 18.48-7.492 22.96-5.873a15973 15973 0 0 1-.04 168.504c-.05 27.376 1.32 55.02.24 82.347-.08 2.21-.57 4.223-1.63 6.162.44-1.321-.36-2.794-.75-4.12-6.02 6.934-26.76 14.366-35.51 18.562-122.69 58.853-264.95 69.88-398.62 84.637a7448 7448 0 0 0-161.69 19.288c-147.62 19.222-299.4 47.602-424.46 133.702-24.616 16.95-46.181 37.23-69.447 55.85-48.836 39.07-103.06 74.04-160.929 98.21a888.4 888.4 0 0 1-225.126 62.97c-22.926 3.18-46.002 6.15-69.017 8.59-15.808 1.67-31.73 1.84-47.152 6.02-12.246.73-24.808.15-37.1.16l-71.704.02c9.743-13.83 22.776-25.15 32.598-38.84 38.508-9.37 76.923-11.04 114.737 3.09l2.412-4.42c11.158-12.63 24.848-38.75 32.566-54.03 17.835-36.31 32.544-72.96 47.686-110.41-48.55 1.06-99.872 10.58-143.235 33.27-9.423 4.35-18.484 9.52-27.597 14.48-11.898-8.9-25.636-9.69-40.002-7.68-18.673 2.62-36.447 9.79-53.26 18.06-7.518 3.69-15.27 8.28-23.191 11a998 998 0 0 1 8.062-16.34c-2.537-2.89 6.185-12.15 6.247-15.97-5.208 2.76-5.548 12.62-11.299 15.52l-1.407 1.86c-2.229-3.33.253-24.54.041-30.78-.304-8.92-1.399-18.06-2.708-26.9-2.712-18.31-7.854-37.86-17.96-53.57-2.448-3.8-5.837-8.54-10.614-9.34-2.691-.44-5.212.54-7.31 2.19-4.253 3.34-6.108 8.55-6.828 13.73-4.956 35.66 18.989 88.26 39.963 115.86-9.437 18.44-18.308 36.88-26.427 55.93 1.441-34.62.634-67.84-11.932-100.51-4.076-10.6-10.389-25.27-21.803-29.74-1.916-.75-3.992-.75-5.874.11-5.9 2.7-8.408 11.16-10.517 16.71a729 729 0 0 0-12.483-30.94c-.276-2.12-1.263-2.94-2.704-4.36-.163-.6-.326-1.21-.452-1.82l-.153-.77c-1.457-7.16 14.575-41.85 17.701-50.35 15.56-42.29 28.803-85.094 47.803-126.118 8.837-19.08 26.93-58.347 39.681-72.778 5.634-6.376 14.682-11.448 21.841-15.95 32.217-20.262 61.698-32.883 97.241-45.907 22.116-7.484 45.512-11.004 68.082-16.888 20.83 14.706 58.705 45.915 81.611 51.94 4.028 1.059 10.335 2.054 13.953-.501 2.141-1.512 3.166-3.503 3.407-6.095.455-4.898-3.32-10.799-6.33-14.434-20.186-24.388-53.027-30.346-82.678-33.223 14.956-5.229 30.248-9.789 45.304-14.757 7.251-2.789 14.352-5.719 21.403-8.981l8.42-3.852c10.002 3.941 20.537 6.365 30.576 10.359 19.333 3.502 34.947 6.553 50.567 19.327 39.134 13.175 76.749 34.226 113.119 53.579 41.265-40.86 97.072-77.928 157.179-77.659 101.709.456 133.769 87.846 214.739 125.216 26.93 12.43 57.46 17.416 86.98 17.824.03-24.231 3.32-91.197 14.53-109.386 9.37-15.217 20.7-22.115 27.51-40.547 12.9 7.178 22.92 20.396 34.51 29.561 5.33 28.244-.83 61.069-.82 89.957 6.61 7.296 12.9 14.784 19.11 22.421 41.55 1.7 68.57 11.04 99.59 39.895.25.98.53 1.775.45 2.792 3.42 1.485 7.3 3.254 8.85 6.915.17.402.32.817.47 1.226.19-.219.38-.437.56-.658 6.63-8 10.41-16.675 19.07-23.134 4.28-3.195 9.7-5.124 13.75-8.437-.5 4.676-14.52 26.521-18.33 29.77-.22.19-.46.365-.69.547 10.45-4.693 19.23-9.572 30.48-12.508-1.21 4.663-10.43 11.389-14.55 14.007 6.84-.403 37.31-1.074 41.25-3.579 10.28.483 21.25-.865 31.54-1.582l53.94-3.748c19.65-1.319 40.54-.647 59.86-3.766 5.39-3.432 10.48-9.395 15.16-13.823 9.69-9.168 19.33-18.274 29.49-26.937 37.84-32.289 76.41-62.194 118.16-89.284 6.66-4.326 54.19-32.014 55.13-33.088.43-.49.56-1.175.84-1.762 5.02-1.397 10.17-4.933 14.62-7.611l.32-2.254c-5.69-5.514-27.99-16.859-36.25-21.992-12.98-8.065-25.38-17.096-37.67-26.155"/><path fill="#fcf9eb" d="M1244.45 916.22c1.35-12.957 14.55-67.504 19.88-76.372 1.01 3.854-1.28 9.865-1.66 13.968-1.95 20.682 14.49 44.792 27.25 59.971-5.42 2.142-38.31 4.965-44.55 3.918z"/><path fill="#f6d3c8" d="M1315.81 910.208c41.55 1.7 68.57 11.04 99.59 39.895.25.98.53 1.775.45 2.792-6.86-3.694-17.38-4.953-24.96-3.05-.86.218-1.56.547-2.36.942 1.55.595 3.08 1.225 4.62 1.833 4.55 1.794 11.93 6.457 13.97 11.06.2.451.29 1.062.38 1.523-24.88 4.063-50.08 5.852-74.98 10.235-33.42 6.407-66.76 11.415-99.92 19.335.6-12.908 3.39-25.961 5.55-38.678 2.25-13.275 4.13-26.592 6.3-39.875l.92 1.485c6.24 1.047 39.13-1.776 44.55-3.918 12.34 11.824 24.62 22.929 39.29 31.827-.85 6.728-3.91 23.263.1 28.439 8.24-6.537 13.92-19.592 18.68-28.969-14.34-7.617-22.72-22.115-32.18-34.876"/><path fill="#e97893" d="M1801.85 725.042c9.7-3.282 19.9-10.692 28.99-15.771 16.33-9.124 32.7-17.901 49.63-25.856a1222 1222 0 0 1 143.32-56.384c4.92-1.594 18.48-7.492 22.96-5.873a15973 15973 0 0 1-.04 168.504c-.05 27.376 1.32 55.02.24 82.347-.08 2.21-.57 4.223-1.63 6.162.44-1.321-.36-2.794-.75-4.12.41-.729.79-1.483 1.04-2.288 1.89-6.106 1.58-66.242-.96-71.891-10.15-2.381-31.87 9.58-40.94 15.226-10.3 6.418-19.53 16.769-30.13 21.923 3.47-4.361 10.44-25.82 9.52-31.327-.15-.915-.41-1.764-.75-2.624-2.87 8.369-11.39 14.139-15.69 21.859-4.07 7.297-3.52 15.905-7.5 23.056 2.39-7.838-3.91-21.369-4.36-29.881-.52-9.589 4.98-21.406.93-30.202 1.06 7.997-6.47 17.557-8.45 25.338-2.59 10.159 1.52 24.092-2.63 33.112-5.78-7.22-19.02-11.174-27.87-12.173-13.89-1.568-27.46 2.124-40.79 5.521 14.95.643 41.89 2.968 53.18 13.474.18.175.34.382.51.574l-.56.281c-5.44 2.662-11.91 3.979-17.01 7.201-7.99 5.05-13.96 13.156-21.94 18.092 16.97-5.582 30.73-10.137 48.86-9.21-3.99 3.213-8.73 5.116-12.84 8.174-7.27 5.405-14.19 13.81-21.98 17.97 13.81-4.665 25.45-8.818 40.11-9.968-2.3 6.713-9.94 11.072-15.93 14.039-18.5 9.157-39.79 13.686-59.78 18.416-63.26 14.968-125.52 23.456-190.41 27.346-11.71.701-24.47 2.566-36.15 1.859 5.39-3.432 10.48-9.395 15.16-13.823 9.69-9.168 19.33-18.274 29.49-26.937 37.84-32.289 76.41-62.194 118.16-89.284 6.66-4.326 54.19-32.014 55.13-33.088.43-.49.56-1.175.84-1.762 5.02-1.397 10.17-4.933 14.62-7.611l.32-2.254c-5.69-5.514-27.99-16.859-36.25-21.992-12.98-8.065-25.38-17.096-37.67-26.155"/><path fill="#f6b4ae" d="M1801.85 725.042c9.7-3.282 19.9-10.692 28.99-15.771 16.33-9.124 32.7-17.901 49.63-25.856a1222 1222 0 0 1 143.32-56.384c4.92-1.594 18.48-7.492 22.96-5.873a15973 15973 0 0 1-.04 168.504c-.05 27.376 1.32 55.02.24 82.347-.08 2.21-.57 4.223-1.63 6.162.44-1.321-.36-2.794-.75-4.12.41-.729.79-1.483 1.04-2.288 1.89-6.106 1.58-66.242-.96-71.891.12-.295.26-.585.37-.885 2.06-5.337 1.85-84.533-.5-89.552-.32.246-.62.538-.97.739-5.57 3.158-31.79 9.579-39.73 12.287-29.79 10.171-59.7 21.441-88.44 34.312-9.45 4.232-30.32 17.801-39.61 16.416-5.69-5.514-27.99-16.859-36.25-21.992-12.98-8.065-25.38-17.096-37.67-26.155"/><path fill="#f6d3c8" d="M762.072 852.821c41.265-40.86 97.072-77.928 157.179-77.659 101.709.456 133.769 87.846 214.739 125.216 26.93 12.43 57.46 17.416 86.98 17.824a1356 1356 0 0 0 1.18 68.411c-5.05 1.975-20.44 6.334-22.61 11.076 2.07 1.235 4.06 2.013 6.35 2.791-3.19 3.97-39.08 11.15-46.64 13.55-37.66 11.94-76.9 25.51-112.04 43.72 3.37-7.18 7.12-11.92 12.86-17.33-12.88 3.8-21.26 8.86-31.4 17.68 4.5-13.75 9.59-22.18 19.62-32.63-13.95 5.15-23.84 12.35-30.33 26.13-1.75 3.71-3.24 7.56-4.94 11.3-.95-24.91 3.73-42.17 21.11-60.79a88 88 0 0 1 3.62-3.683c-14.4 5.453-25.82 13.613-35.69 25.423-8.095-4.52-15.684-15.1-22.875-21.37-18.022-15.713-37.245-30.971-56.047-45.767-17.469-13.747-36.058-26.016-54.507-38.389a1302 1302 0 0 0-106.559-65.503"/><path fill="#f6b4ae" d="m559.39 773.408 8.42-3.852c10.002 3.941 20.537 6.365 30.576 10.359 19.333 3.502 34.947 6.553 50.567 19.327 39.134 13.175 76.749 34.226 113.119 53.579a1302 1302 0 0 1 106.559 65.503c18.449 12.373 37.038 24.642 54.507 38.389 18.802 14.796 38.025 30.054 56.047 45.767 7.191 6.27 14.78 16.85 22.875 21.37-7.699 11.91-12.679 22.02-12.133 36.53-11.588-7-23.079-11.9-36.853-8.36-8.187 2.1-14.38 6.43-21.058 11.42 13.887-2.37 26.632-1.95 38.528 6.46 6.803 4.81 10.992 10.64 15.495 17.52-14.039-3.13-23.988-3.1-37.076 3.44 9.825.16 17.836 1.47 26.741 5.79-21.005 12.64-40.757 26.55-60.633 40.86-19.519-19.51-38.925-39.09-59.468-57.53-92.872-83.385-197.863-150.507-309.495-205.87-26.547-13.166-53.975-25.406-81.209-37.093-11.225-4.817-43.063-14.814-50.261-20.67 22.116-7.484 45.512-11.004 68.082-16.888 20.83 14.706 58.705 45.915 81.611 51.94 4.028 1.059 10.335 2.054 13.953-.501 2.141-1.512 3.166-3.503 3.407-6.095.455-4.898-3.32-10.799-6.33-14.434-20.186-24.388-53.027-30.346-82.678-33.223 14.956-5.229 30.248-9.789 45.304-14.757 7.251-2.789 14.352-5.719 21.403-8.981"/><path fill="#433960" d="M598.386 779.915c19.333 3.502 34.947 6.553 50.567 19.327 1.791 2.557 3.211 4.922 4.131 7.95.994 3.272 1.167 5.703-.467 8.752-1.965 1.878-3.779 2.724-6.478 3.144-26.414 4.116-58.435-13.463-82.107-23.548-8.111-3.456-18.782-6.606-25.879-11.746 19.711-3.208 40.312-4.028 60.233-3.879"/><path fill="#e97893" d="M190.976 1130.04c-.163-.6-.326-1.21-.452-1.82l-.153-.77c-1.457-7.16 14.575-41.85 17.701-50.35 15.56-42.29 28.803-85.094 47.803-126.118 8.837-19.08 26.93-58.347 39.681-72.778 5.634-6.376 14.682-11.448 21.841-15.95 32.217-20.262 61.698-32.883 97.241-45.907 7.198 5.856 39.036 15.853 50.261 20.67 27.234 11.687 54.662 23.927 81.209 37.093 111.632 55.363 216.623 122.485 309.495 205.87 20.543 18.44 39.949 38.02 59.468 57.53-16.056 12.42-32.002 25.09-48.456 36.97-14.565 10.52-29.798 20.24-43.998 31.24 1.555-14.23 3.07-26.23 11.975-37.99-14.366 7.73-21.709 16.7-26.535 32.34l-.223.74c-9.255-22.23-16.842-30.52-38.665-41.04 14.942 13.08 21.456 31.2 22.812 50.8a171 171 0 0 1 .301 6.16c-6.676-7.4-13.285-12.28-23.554-12.77-5.175-.25-10.41.18-15.567.58 15.645 4 22.969 9.22 32.678 22.31-13.332-3.25-21.031-3.01-34.11 1.28 8.478 1.12 15.95 2.51 23.816 6.08-15.245 7.83-31.281 14.1-46.961 21-30.61 13.45-60.884 26.69-92.406 37.97 3.398-12.93 6.955-22.82 15.694-33.23-15.652 7.77-24.681 17.42-32.418 33.11-5.484-18.78-9.068-30.32-27.075-40.17a139 139 0 0 0-1.751-.94c13.449 15.28 12.069 31.42 11.448 50.52-8.555-10.81-15.872-17.54-30.101-19.16a197 197 0 0 0-8.543-.72c12.701 6.49 19.88 12.93 25.849 26.02-34.471 11.67-69.598 18.97-104.805 27.9l6.674-10.2 2.412-4.42c11.158-12.63 24.848-38.75 32.566-54.03 17.835-36.31 32.544-72.96 47.686-110.41-48.55 1.06-99.872 10.58-143.235 33.27-9.423 4.35-18.484 9.52-27.597 14.48-11.898-8.9-25.636-9.69-40.002-7.68-18.673 2.62-36.447 9.79-53.26 18.06-7.518 3.69-15.27 8.28-23.191 11a998 998 0 0 1 8.062-16.34c-2.537-2.89 6.185-12.15 6.247-15.97-5.208 2.76-5.548 12.62-11.299 15.52l-1.407 1.86c-2.229-3.33.253-24.54.041-30.78-.304-8.92-1.399-18.06-2.708-26.9-2.712-18.31-7.854-37.86-17.96-53.57-2.448-3.8-5.837-8.54-10.614-9.34-2.691-.44-5.212.54-7.31 2.19-4.253 3.34-6.108 8.55-6.828 13.73-4.956 35.66 18.989 88.26 39.963 115.86-9.437 18.44-18.308 36.88-26.427 55.93 1.441-34.62.634-67.84-11.932-100.51-4.076-10.6-10.389-25.27-21.803-29.74-1.916-.75-3.992-.75-5.874.11-5.9 2.7-8.408 11.16-10.517 16.71a729 729 0 0 0-12.483-30.94c-.276-2.12-1.263-2.94-2.704-4.36"/><path fill="#433960" d="M471.225 1002.16c-.419-14.227-.061-27.627 3.683-41.452 2.418-8.931 6.747-20.535 15.569-25.06 3.066-1.573 4.734-1.129 7.74-.073 1.418 1.513 2.396 2.866 2.902 4.916 5.093 20.63-15.747 44.718-25.636 60.939l8.142-4.36c12.608-10.815 40.322-32.684 57.803-31.218 3.687.309 7.973 1.387 10.46 4.346 1.35 1.606 1.78 3.282 1.578 5.363-.457 4.708-3.842 8.533-7.499 11.222-13.155 9.67-42.156 17.237-58.504 14.737a36 36 0 0 1-3.839-.78c-4.78 3.52-9.508 7.35-14.521 10.52-8.471 6.63-17.486 13.02-25.475 20.2 24.675-3.86 60.44-13.58 82.314 3.2 2.546 1.95 4.944 4.47 5.372 7.79.275 2.14-.336 4.2-1.666 5.88-3.145 3.97-9.036 5.32-13.872 5.65-22.939 1.57-54.487-9.03-73.884-20.91-13.334 11.24-26.624 22.51-39.131 34.68 25.959-3.59 63.522-14.11 86.415 3.73 2.861 2.23 5.649 5.32 6.119 9.06.305 2.43-.518 4.72-2.128 6.54-4.292 4.85-12.396 5.9-18.494 5.98-25.932.36-52.111-10.86-74.89-22.09a878 878 0 0 0-38.727 40.78c27.31-7.97 62.789-17.91 89.613-3.57 3.772 2.01 7.791 5.07 9.164 9.29.789 2.42.535 4.89-.764 7.09-2.684 4.54-8.587 6.63-13.502 7.65-29.445 6.12-61.425-4.68-88.297-15.66-13.095 16.88-25.26 33.97-36.865 51.92 28.049-12.78 65.431-28.77 96.39-17.35 5.153 1.9 10.968 4.86 13.263 10.19.79 1.83 1.081 3.89.282 5.77-2.129 5-8.103 7.57-12.9 9.27-30.996 10.96-67.391 4.65-98.075-4.31-1.831-.53-2.939 1.5-3.916 2.85l-20.858 35.35c-2.537-2.89 6.185-12.15 6.247-15.97-5.208 2.76-5.548 12.62-11.299 15.52 4.712-12.57 14.37-25.74 22.128-36.7l3.671-6.15a176 176 0 0 1-2.565-3.96c-17.639-28.1-35.929-76.82-27.94-110.1 1.483-6.18 4.186-13.57 10.098-16.86 1.832-1.01 3.823-1.26 5.829-.62 5.469 1.76 10.976 10.26 13.632 15.03 17.335 31.13 12.819 79.37 3.199 112.33 11.434-16.02 22.539-31.64 35.48-46.49a49 49 0 0 1-2.038-3.79c-14.017-28.75-19.953-73.85-9.145-104.5 1.856-5.26 5.039-11.304 10.478-13.562 1.841-.764 3.75-.669 5.559.121 5.887 2.57 10.332 10.541 12.67 16.211 13.18 31.94-.265 68.33-12.586 98.1 12.009-14.13 25.102-27.46 38.329-40.44-8.079-26.18-12.87-58.23-4.408-84.896 1.921-6.056 5.288-14.205 11.457-17.042 1.994-.916 4.207-1.062 6.25-.218 3.001 1.24 4.952 4.249 6.183 7.128 10.697 25.024-4.132 65.738-13.478 89.548 10.664-10.74 21.644-20.7 33.449-30.18-6.799-22.1-8.969-46.503-2.062-68.935 1.729-5.614 5.225-14.422 11.079-16.892 1.99-.839 3.711-.933 5.681-.115 2.473 1.026 3.959 3.796 4.793 6.203 7.991 23.078-7.335 57.279-17.272 78.059 9.46-7.88 18.891-15.65 28.894-22.84 2.538-2.29 3.251-2.87 4.321-6.07"/></svg>