<svg xmlns="http://www.w3.org/2000/svg" display="block" viewBox="0 0 2048 2048"><path fill="#fefefe" d="M0 0h2048v2048H0z"/><path fill="#215d45" d="M789.496 1077.99c3.421 7.69-25.451 59.11-15.865 70.26 4.319 1.07 11.897.74 15.908-1.28 2.35-1.18 2.378-3.04 3.502-5.14.346-.65.885-1.2 1.371-1.74-.019.32-.022.64-.057.95-.313 2.8-.911 6.77-3.225 8.56-22.077 4.25-78.493 1.81-101.333-2.08 25.009-3.43 53.612-2.97 79.2-4.62 4.008-21.06 10.49-45.85 20.499-64.91"/><path fill="#2775b1" d="M379.957 1154.46c.547.31 1.111.59 1.641.92 5.899 3.72 29.828 24.11 30.868 30.25-2.336 1.52-3.66.87-6.335.63a1325 1325 0 0 1-37.555-2.87c2.469-10.08 6.984-19.57 11.381-28.93"/><path fill="#30864c" d="M1327.71 1130.36c3.84 3.76 7.75 25.12 9.33 31.49-8.96-.51-19.91-2.08-28.64.29l-.26 1.02-1.27.31c-4.22-5.82-5.42-19.73-7.08-27.03 9-2.71 18.62-4.76 27.92-6.08"/><path fill="#2775b1" d="M886.015 489.871c.12.083.254.148.361.248 4.144 3.879 7.536 9.124 10.94 13.674 18.085 24.169 31.788 50.908 37.019 80.89 1.996 11.44 5.331 61.033-.913 69.942-3.027.752-4.076-.201-6.898-1.386-1.144-.422-2.289-1.257-3.341-1.883-2.529-8.106-.046-21.751.12-30.482.877-46.288-17.509-88.906-49.306-121.939 4.138-2.842 8.057-5.982 12.018-9.064M475.741 596.529c3.877 3.235 7.516 5.155 12.186 7.091-2.977 16.115-7.227 31.464-8.686 47.913a191.53 191.53 0 0 0 34.415 127.272c5.644 7.984 12.95 15.068 19.238 22.573-.521 2.632-1.907 3.309-3.786 5.11-1.53.993-2.885 1.499-4.625 2.033-12.783-4.378-31.609-34.922-38.159-46.844-28.431-51.754-26.911-109.862-10.583-165.148m25.458-77.253a40.1 40.1 0 0 1 22.215 6.666 38.53 38.53 0 0 1 16.841 25.274c1.922 10.219-.096 20.974-6.331 29.388-7.034 9.493-17.339 13.588-28.676 15.086-8.322.058-17.184-1.969-24.171-6.614-8.172-5.433-13.405-14.276-15.216-23.839a38.84 38.84 0 0 1 6.732-30.055c7.183-9.788 16.976-14.019 28.606-15.906"/><path fill="#fefefe" d="M497.283 529.185c5.311-.309 9.731-.224 14.738 1.767 7.123 2.833 13.034 8.06 16.002 15.214a30.34 30.34 0 0 1-.146 23.295c-3.828 8.898-10.439 12.635-18.985 15.93-4.422.608-8.495.678-12.841-.525-7.289-2.018-13.381-6.8-16.807-13.577a28.94 28.94 0 0 1-1.443-22.687c3.416-9.706 10.429-15.241 19.482-19.417"/><path fill="#2775b1" d="M901.844 664.034c8.563-.536 16.589.376 24.344 4.322 8.697 4.425 14.985 12.004 17.914 21.296 3.198 10.148 2.358 20.996-2.912 30.295-5.919 10.442-15.095 15.865-26.413 18.758-8.959 1.195-15.961 1.111-24.318-3.145a38.14 38.14 0 0 1-19.13-22.935c-2.903-9.574-2.33-19.672 2.451-28.545 6.113-11.344 16.33-16.402 28.064-20.046"/><path fill="#fefefe" d="M908.249 674.253c4.724.331 9.125 1.163 13.302 3.517 6.149 3.467 10.525 8.999 12.404 15.815a27.65 27.65 0 0 1-3.044 21.794c-4.882 8.09-11.72 11.482-20.528 13.769-6.137-.218-11.022-.702-16.433-3.938a26.53 26.53 0 0 1-12.59-17.726c-1.494-7.428-.009-15.366 4.548-21.484 5.676-7.62 13.352-10.31 22.341-11.747"/><path fill="#2775b1" d="m497.538 848.665-1.966 2.446c-.248 1.578-.159 2.295.578 3.729.812 1.579 1.75 3.111 2.423 4.759 4.507 11.038 3.976 26.178-1.257 36.723-4.472 9.012-12.132 15.516-21.687 18.621a40.44 40.44 0 0 1-32.143-3.4c-9.506-5.325-16.561-13.924-19.292-24.527a36.45 36.45 0 0 1 4.641-29.011c7.661-11.935 26.63-21.794 41.074-19.029 4.846.927 14.399 8.286 18.664 7.285l2.219-4.446 1.131 7.095c1.935.093 3.431-.068 5.318-.29.099-.011.198.03.297.045"/><path fill="#fefefe" d="M461.24 849.22c5.785-.381 11.359.604 16.435 3.48a27.8 27.8 0 0 1 13.312 17.91 29.52 29.52 0 0 1-3.791 22.406c-4.928 7.787-11.999 11.765-20.762 13.855-6.571.205-12.587-.989-18.259-4.48a28.17 28.17 0 0 1-12.934-18.618c-1.531-7.631-.277-15.572 4.196-22.024 5.32-7.672 12.958-10.762 21.803-12.529"/><path fill="#2775b1" d="M705.41 442.5c46.876-2.506 97.429 5.226 138.478 28.857-3.315 3.664-6.492 7.468-9.721 11.209-58.021-29.563-127.544-30.28-189.396-13.828-37.925 10.873-71.395 28.991-102.037 53.728-3.017-2.101-6.529-4.01-8.154-7.419.371-2.842 1.777-4.723 3.695-6.769 6.186-6.6 14.688-12.14 22.204-17.194 41.908-28.183 94.569-45.583 144.931-48.584m172.236 301.949 12.585 5.063a269.46 269.46 0 0 1-155.616 109.651c-60.422 15.254-122.221 9.065-176.008-23.087-2.992-1.705-7.505-3.971-9.731-6.538-1.803-2.078-1.408-3.02-1.046-5.488 6.007-6.552 14.836-.891 21.393 2.428 7.651 3.872 15.244 8.162 23.199 11.363 37.133 14.942 78.854 17.433 118.11 11.235 65.835-10.394 128.013-50.944 167.114-104.627"/><path fill="#2775b1" d="M490.792 841.815c1.419-6.24 16.516-14.178 21.999-17.635 23.251-14.662 47.342-25.872 72.455-36.885 19.462-8.535 38.693-17.244 58.817-24.137 67.956-23.279 154.923-37.591 226.321-27.56-3.462 3.843-6.573 7.583-9.455 11.895-26.814-.74-53.566-.919-80.318 1.383-72.872 6.271-144.918 29.021-210.799 60.108-9.758 4.604-19.555 9.157-28.93 14.51-9.569 5.463-35.24 22.886-43.344 25.171-.099-.015-.198-.056-.297-.045-1.887.222-3.383.383-5.318.29z"/><path fill="#30864c" d="M1486.15 1243.13c13.85-.89 26.44 1.46 37.95 9.68a55.22 55.22 0 0 1 22.34 37.16c1.99 14.1-2.21 28.52-10.76 39.81-8.31 10.98-19.92 17.24-33.43 19.25-13.89 1.29-26.03.16-38.35-6.98-12.04-6.98-20.43-18.01-23.72-31.55a53.93 53.93 0 0 1 6.91-42.08c9.11-13.98 23.12-21.73 39.06-25.29"/><path fill="#fefefe" d="M1484.96 1259.23c8.59-.84 16.22-.72 24.25 3.01a38.5 38.5 0 0 1 20.34 22.73 38.38 38.38 0 0 1-2.77 30.64c-5.53 9.89-14.1 15.16-24.67 18.19-10.1.92-19.17.68-28.29-4.48a37.12 37.12 0 0 1-17.74-22.7c-2.67-10.08-1.28-21.3 4.2-30.21 5.66-9.18 14.36-14.68 24.68-17.18"/><path fill="#30864c" d="M1489.5 1420.37c12.56-.84 25.11 1.7 35.72 8.79a50.2 50.2 0 0 1 21.23 32.4c2.83 14.56.06 29.71-8.41 41.98-9.65 13.99-23.58 20.5-39.81 23.34-13.37 1.13-27.62-3.13-38.38-11.03a51.03 51.03 0 0 1-20.62-34.36 55.27 55.27 0 0 1 11.55-41.63c10.04-12.48 23.19-17.9 38.72-19.49"/><path fill="#fefefe" d="M1488.73 1435.43c9.49.19 17.93 1.51 25.88 7.1a37.7 37.7 0 0 1 15.5 24.67 37.88 37.88 0 0 1-6.24 28.46c-6.47 9.15-15.8 13.91-26.62 15.85-10.17.53-20.14-1.45-28.33-7.8-8.28-6.42-13.02-15.99-13.92-26.35-.94-10.78 1.99-21.98 9.14-30.25 6.96-8.06 14.39-10.8 24.59-11.68"/><path fill="#30864c" d="M1253.19 1208.32c.41-.05.83-.11 1.24-.14 12.74-1.23 26.65 3.68 36.32 11.82 11.26 9.47 19.49 23.59 20.74 38.33 1.23 14.41-3.92 28.51-13.37 39.33-9.92 11.36-22.04 16.86-36.87 17.9-11.87 1.08-25.13-1.82-34.96-8.52-12.38-8.45-19.77-22.54-22.36-37.05-2.54-14.28 1.03-28.3 9.55-40 9.79-13.44 23.78-19.45 39.71-21.67"/><path fill="#fefefe" d="M1256.58 1222.38c8.7-.28 17.96 2.52 24.86 7.84 8.44 6.52 13.74 16.89 15.02 27.39a39.8 39.8 0 0 1-8.62 29.63c-7.46 9.21-17 13-28.41 14.4-8.85-.14-18.04-2.69-25.28-7.86-8.61-6.14-13.81-15.55-15.12-25.99-1.43-11.38 1.44-23.22 8.9-32.07 7.66-9.1 17.28-12.12 28.65-13.34"/><path fill="#2775b1" d="M865.675 1246.21c3.163 8.9 2.287 22.71 2.816 32.28a455 455 0 0 1-86.953 9.65c-6.811.09-33.016 2.69-36.308-3.39-1.868-3.45-1.324-6.83-4.424-9.85-1.828-.68-3.237-1.04-5.173-.78-3.447.46-7.613 2.58-9.403 5.69-4.855 8.46.246 75.44 3.331 89.31-14.411.02-29.146-1.31-43.472-2.84a1420 1420 0 0 1-20.137-1.57l1.783-107.4c66.265 7.85 133.408 7.85 197.94-11.1m51.811-845.069c7.843-.152 16.44 1.874 23.173 5.958 8.412 5.102 13.912 13.561 16.173 23.047a38.35 38.35 0 0 1-5.146 30.119 34.84 34.84 0 0 1-23.103 15.403c-12.346 2.327-22.365-1.61-32.464-8.266-85.168 54.124-164.351 121.765-234.328 194.394-33.826 35.107-65.737 72.333-97.434 109.357-6.699 7.123-13.33 14.191-20.652 20.691l-8.742-5.62c9.576-16.8 31.011-38.949 44.125-54.543a1496.2 1496.2 0 0 1 246.224-233.412c19.555-14.787 40.435-28.205 60.48-42.356-1.006-2.896-2.027-5.94-2.551-8.965-1.763-10.178.004-20.522 5.923-29.086 6.914-10.004 16.751-14.567 28.322-16.721"/><path fill="#fefefe" d="M919.749 411.34c4.999.456 9.488 1.249 13.886 3.815a27.72 27.72 0 0 1 13.124 17.837c1.735 7.543.38 15.366-4.056 21.748-5.303 7.63-12.334 10.447-21.164 12.067-6.144-.467-10.563-1.335-15.75-4.813a28.35 28.35 0 0 1-12.224-19.07 27.82 27.82 0 0 1 5.589-21.439c5.518-6.971 12.139-8.996 20.595-10.145"/><path fill="#30864c" d="M1296.29 667.858c26.39-.144 53.05 1.927 79.41 3.181 3.89 29.7 10.72 59.252 13.66 89.033 23.85 4.619 48.21 10.719 71.2 18.588 17.78-26.693 34.38-54.149 52.34-80.767 30.13 13.917 60.98 26.388 91.34 39.842L1569 827.977c10.01 7.718 21.17 14.164 31.45 21.559 10.52 7.561 20.32 16.125 30.44 24.203 2.89.797 5.06-.579 7.64-1.725 14.9-7.394 28.65-16.899 43.71-24.016-6.93 26.722-18.1 51.154-29.16 76.311a528.48 528.48 0 0 0-292.26-145.46c-21.09-3.084-42.5-3.84-63.77-4.936-.08-35.277-1.49-70.812-.76-106.055"/><path fill="#2775b1" d="m1271.55 877.527 1.27-.065c.27.839.47 1.265.39 2.241-.7 8.685-10.03 33.213-13.46 42.845a545.3 545.3 0 0 1-97.69 169.022c-12.27 14.44-25.94 27.56-38.58 41.67 16.93 21.99 32.6 45.04 49.17 67.32-21.38 28.99-44.75 46.5-73.74 67.02a3164 3164 0 0 1-64.75-68.12 356.2 356.2 0 0 1-74.584 40.97c4.709 24.9 10.263 49.58 15.563 74.36a604 604 0 0 0 3.779 16.38c-25.357 11.63-58.354 20.06-85.846 25.48-1.287-38.73-3.519-77.55-5.312-116.26a468 468 0 0 0 125.23-54.2c109.31-67.99 200.62-178.85 230.37-305.825z"/><path fill="#2775b1" d="m1197.95 889.088 1.01.043.46 1.415c-2.21 6.993-5.27 13.599-7.88 20.443a479.4 479.4 0 0 1-147.46 204.021 486.86 486.86 0 0 1-268.838 104.46c-34.028 2.05-67.212-.2-100.997-4.06-1.427-2.81 2.192-46.43 2.425-53.66 15.171 3.26 30.923 4.55 46.397 5.44 64.514 3.68 125.379-8.07 185.064-32.55 99.969-41.01 187.909-125.81 229.669-225.833a1221 1221 0 0 1 60.15-19.719"/><path fill="#30864c" d="M1064.28 709.985c23.79-14.521 57.8-26.46 84.84-33.156.83 38.877 5.62 77.79 8.21 116.586a512.4 512.4 0 0 0-314.671 234.465c-13.651 22.84-25.593 48.45-34.765 73.45-4.639 12.65-7.878 26.64-13.482 38.76-.486.54-1.025 1.09-1.371 1.74-1.124 2.1-1.152 3.96-3.502 5.14-4.011 2.02-11.589 2.35-15.908 1.28-9.586-11.15 19.286-62.57 15.865-70.26l2.219-6.04c-5.82-8.72-64.155-52.54-76.556-61.56 19.276-26.963 41.838-57.8 59.435-85.486 24.525 14.32 49.298 29.388 72.83 45.278a1659 1659 0 0 1 63.611-69.186c-19.006-24.054-32.132-52.747-51.346-76.664 27.076-19.808 52.899-42.416 81.133-60.488 22.041 23.376 44.905 47.057 64.768 72.304 25.01-14.812 50.77-29.567 77.88-40.199-5.17-28.809-12.89-57.362-19.19-85.964"/><path fill="#2775b1" d="M323.171 1094.6c16.255 15.69 31.752 32.2 47.495 48.4-7.118 19.95-15.019 39.42-20.207 60.03a395.52 395.52 0 0 0 21.051 251.67 422.74 422.74 0 0 0 236.232 228.67c21.006 8.35 43.214 15.39 65.417 19.7 63.112 12.25 145.244 10.46 204.849-15.2 15.323 15.4 30.418 30.1 47.049 44.12-5.934 3.89-12.705 6.14-19.297 8.66a989 989 0 0 1-23.432 7.93c-113.972 36.53-236.875 21.32-342.605-33.17a490.48 490.48 0 0 1-239.837-284.97 463.4 463.4 0 0 1 5.382-291.53c5.263-14.98 10.624-30.17 17.903-44.31"/><path fill="#30864c" d="M1270.09 814.447c117.79-4.719 239.4 38.771 328.4 115.867 93.59 81.076 155.96 199.746 164.52 323.736 8.58 124.25-33.36 253.89-115.54 347.82a475.85 475.85 0 0 1-325.01 163.81 452.2 452.2 0 0 1-332.717-113.36c-99.202-87.27-155.524-210.33-163.789-341.54a3828 3828 0 0 1 40.977-4.2c-.154 37.88 7.489 78.81 17.707 115.18a435.6 435.6 0 0 0 209.182 262.16c11.52 6.5 23.9 12.13 36.06 17.33 104.69 44.83 217.88 44.46 323.3 2.15a450.47 450.47 0 0 0 243.33-240.45c42.97-101.16 50.32-221.87 8.5-324.81-46.07-113.41-114.58-194.711-228.61-242.794-106.19-44.781-234.09-45.458-340.71-1.937-108.3 44.206-193.598 119.701-239.415 228.771a937 937 0 0 1-58.362 17.91 452 452 0 0 1 101.495-172.747c84.542-90.739 206.512-148.393 330.682-152.896"/><path fill="#30864c" d="M1483.4 1034.3c10.93-1.77 24.12.11 34.71 3.07a96.9 96.9 0 0 1 58.6 45.38 91.5 91.5 0 0 1 8.71 69.38c-7.44 26.4-25.98 47.67-49.55 60.99 14.88 10.27 27.37 20.47 36.83 36.11 12.9 21.33 18.15 46.56 12.12 70.95-7.53 30.5-27.63 49.2-53.41 64.94a91 91 0 0 1 4.02 1.71c22.07 10.04 38.99 31.48 47.19 53.91 8.75 23.93 8.7 49.53-2.41 72.69-11.23 23.42-33.71 41.91-58.14 50.24-33.44 11.4-59.3.17-89.18-14.39-3.31.83-2.03 2.86-4.64 4.69-1.32-.94-1.79-1.57-2.36-3.11-8.95-24.09-15.74-49.28-23.66-73.76l-49.42-151.48c-5.35-16.33-9.76-35.17-17.17-50.6-1.6-3.33-4.03-3.07-7.4-4.22-2.45-6.47-.57-15.09-1.84-22.08-3.42-18.77-17.45-37.34-33.37-47.39-15.05-9.5-33.41-11.99-50.64-8.02-18.41 4.25-34.57 15.12-44.48 31.3a72.7 72.7 0 0 0-8.23 55.09c4.63 18.12 16.2 34.48 32.39 44.04 15.49 9.14 35.75 11.36 53.06 6.86 24.33-6.32 37.57-22.41 49.9-43.17 15.37 41.84 27.91 84.83 41.79 127.18l58.12 174.64a1994 1994 0 0 0-55.37-.16c-5.76-19.77-12.9-39.36-19.34-58.93-5.16-15.7-9.48-33.32-17-48-10.88 17.52-28.41 30.88-47.63 38.2a93.92 93.92 0 0 1-72.03-2.61c-22.02-10.09-40.97-29.31-49.19-52.29-9.49-26.52-7.26-52.99 4.62-78.24 9.97-17.84 23.39-32.17 41.29-42.08-18.57-11.67-31.3-26.81-38.66-47.63a97.5 97.5 0 0 1 4.24-75.04c11.3-23.39 28.37-39.65 53.14-48.05 27.95-9.46 52.04-3.09 77.54 9.53 1.83-2.7 3.7-5.81 6.13-8.01 6.08-5.48 20.35-1.17 28.08-.69a2617 2617 0 0 0 30.55 103.2c8.27 26.87 16.08 53.87 24.59 80.68 6.56 20.63 13.7 41.02 19.95 61.78 2.48 8.25 5.65 16.87 6.94 25.39 1.67 10.96-.72 21.68-.36 32.65.57 17.57 9.28 34.06 22.23 45.74 14.45 13.05 32.87 19.87 52.33 18.82 19.13-1.02 36.52-8.86 49.26-23.31 13.15-14.92 18.78-34.51 17.45-54.2a65.38 65.38 0 0 0-22.71-45.85c-14.94-12.84-33.9-18.81-53.51-17.28-23.48 1.82-38.67 12.91-53.57 30.24-8.76-34.95-21.39-69.96-32.26-104.34-8.45-26.71-16.18-53.6-24.41-80.37-12.06-39.17-24.37-78.19-35.01-117.77 10.51-3.3 21.72-5.45 32.45-8.02.72 7.66 2.96 15.3 5.06 22.68 6.39 22.45 14.55 44.44 21.48 66.73 3.13 10.04 13.42 47.77 17 53.99 1.39 2.41 4.43 1.59 7.01 2.59.75 5.11-1.98 11.96-2.63 17.22-.83 6.67-.58 13.66.36 20.3a70.47 70.47 0 0 0 28.18 47.3c15.19 11.27 34.35 15.48 52.96 12.69a68.67 68.67 0 0 0 45.65-27.19c10.96-14.88 15.35-34.52 12.28-52.72-3.2-18.95-14.54-35.97-30.19-46.98-15.42-10.84-33.76-14.17-52.19-10.81-19.74 3.61-37.32 13.53-48.63 30.33l-.76 1.14c-4.33-19.82-42.41-127.69-40.34-137.16.82.1 2.14.29 2.93.26 2.4-.1 3.32-.61 4.28-2.88 1.64-3.87 2.11-9.67 3.23-13.88a104.4 104.4 0 0 1 17.88-36.13c16.26-21.4 38.88-32.09 65.16-35.79"/><path fill="#fefefe" d="M1247.77 1361.41c16.75-.94 34.07 3.84 47.46 14.06 15.11 11.55 24.12 28.85 26.37 47.58 2.35 19.5-2.22 38.29-14.49 53.81-12.47 15.76-29.66 23.89-49.34 26.09-17.29.35-34.84-4.07-48.82-14.55-14.64-10.98-25.19-29.32-27.48-47.47-2.37-18.91 3.47-39.04 15.36-53.86 13.33-16.62 30.26-23.37 50.94-25.66"/><path fill="#30864c" d="M1249.71 1377.39a53.67 53.67 0 0 1 31.41 8.38 56.1 56.1 0 0 1 24.71 35.82 54.16 54.16 0 0 1-8.9 42.18c-9.81 13.94-22.93 19.56-39.08 22.43-14.57.42-27.78-1.75-39.71-10.93-11.65-8.97-19.02-23.19-20.5-37.74-1.51-14.82 3.59-30.03 13.19-41.33 10.29-12.12 23.46-17.37 38.88-18.81"/><path fill="#fefefe" d="M1244.73 1393.2c9.34-.99 17.77-.25 26.14 4.36 9.56 5.26 16.25 14 19.03 24.54 2.66 10.12 1.9 21.26-3.5 30.37-6.22 10.5-16.19 15.32-27.53 18.33-8.91.31-16.64-.1-24.81-4.28a38.7 38.7 0 0 1-19.47-23.3c-3.02-9.96-1.54-21.58 3.41-30.68 5.73-10.53 15.52-16.25 26.73-19.34m243.11-336.8c17.1-1.29 34.5 3.13 48.36 13.45 15.34 11.42 25.53 30.52 28.16 49.32a71.06 71.06 0 0 1-13.75 52.62c-12.77 16.93-29.56 25.35-50.29 28.13-19.9.39-37.81-3.17-53.79-15.7-14.56-11.4-22.92-27.41-25.06-45.7-2.28-19.5 3.32-40.94 15.57-56.39 12.95-16.31 30.58-23.45 50.8-25.73"/><path fill="#30864c" d="M1492.26 1072.4c13.56-.8 29.78 5.95 39.75 14.96 10.69 9.67 16.3 23.44 17.1 37.67a55.38 55.38 0 0 1-14.83 41.43c-10.91 11.61-24.45 16.05-39.88 16.82-13.89.41-26.29-2.29-37.44-11.04a52.9 52.9 0 0 1-20.18-35.72c-1.76-15.52 2.54-32.42 12.76-44.4 11.25-13.18 26.05-18.28 42.72-19.72"/><path fill="#fefefe" d="M1485.5 1088.16c8.68-.74 16.95-.8 25.03 2.98 9.85 4.6 16.9 13.48 20.29 23.69a42.13 42.13 0 0 1-2.61 33.29c-5.84 10.9-15.29 16.39-26.78 19.66-10.74 1.34-20.47.76-30.11-4.81a38 38 0 0 1-18.21-24.62c-2.51-11.17-.14-23.74 6.12-33.3 6.44-9.84 15.15-14.41 26.27-16.89"/><path fill="#30864c" d="M1265.29 120.906a1860 1860 0 0 1 95.45 1.034c1.75 32.878 7.1 65.651 8.45 98.614a481.7 481.7 0 0 1 80.26 18.212c16.82-27.825 32.22-56.266 50-83.552 12.19 6.076 25.01 11.092 37.45 16.655l52.46 24.044c-10.54 29.143-21.15 61.508-29.17 91.379 22.27 14.26 45.17 27.977 65.18 45.356a5558 5558 0 0 0 75.24-57.613c23.43 23.213 47.35 46.175 70.09 70.056-19 25.027-36.35 51.471-54.87 76.882 16.74 20.67 29.67 42.824 44.04 65.066 30.1-11.303 62.77-18.793 93.71-27.713 5.14 12.671 11.65 24.932 17.47 37.317a4099 4099 0 0 1 23.55 52.173c-28 18.055-57.82 33.107-85.56 51.771 8.57 24.905 13.29 51.863 17.19 77.858 33.47.634 66.96 3.66 100.41 3.617 4.21 33.867 5.14 66.541 1.48 100.542-11.4 3.116-23.68 4.309-35.37 5.892-20.22 2.738-40.49 5.142-60.52 9.066-1.7 26.767-6.79 54.376-13.54 80.33 31.89 12.652 62.38 30.709 94.35 44.113-10.29 34.168-24.1 67.876-37.36 101.005-31.35-13.95-63.21-26.455-94.75-39.931-6.69 12.239-13.15 24.651-20.88 36.281 7.38 13.58 14.32 27.07 20.65 41.17 32.43-8.54 64.16-21.17 96.27-30.98 13.26 31.23 24.57 63.49 36.97 95.09-32.56 12.3-64.76 29.27-96.13 44.43a536 536 0 0 1 12.43 81.66c30.24 6.63 64.37 9.33 95.28 13.63.12 32.18-1.93 64.34-1.36 96.5-33.19 3.81-66.83 6.03-99.8 11.38-3.28 27.04-10.74 53.23-17.67 79.5 13.28 8.6 28 15.25 42.11 22.37a1011 1011 0 0 1 44.11 23.54c-11.98 32.32-26.87 65-43.79 95.06-29.02-12.93-58.56-24.57-87.92-36.73-12.12 26.18-31 50.58-49.17 72.84 18.87 24.9 40.55 48.79 60.91 72.55a1034 1034 0 0 1-70.28 70.22c-25.19-19.52-50.64-38.67-75.52-58.59-22.27 17.82-44.85 33.29-69.05 48.34 9.3 29.77 20.08 59.38 29.85 89.05-27.66 17.27-59.2 27.2-87.48 42.99-15.65-28.5-32.71-56.37-48.88-84.59-26.53 9.77-53.81 15.36-81.67 19.66-.2 32.88-6.38 65.81-8.04 98.71-31.92 2.38-64.52 1.46-96.55 1.81-5.82-31.99-7.03-65.14-14.74-96.76a511.6 511.6 0 0 1-80.65-13.86c-14.67 30.72-27.66 62.21-42.89 92.67-30.33-7.82-60.5-21.84-89.72-33.27 7.48-34.33 10.52-69.5 16.18-104.15-10.63.94-21.28 2.47-31.88 3.77-17.59-12.09-35.901-23.11-53.222-35.6-19.407-14-38.195-30.53-55.61-46.94-30.121-28.38-55.409-60.85-77.632-95.67-56.555-88.6-85.581-182.67-88.666-287.8l42.284 2.54c.409 106.21 40.349 206.22 101.352 291.79a502.5 502.5 0 0 0 43.937 50.57c90.997 93.16 218.977 152.23 349.837 153.73a519.7 519.7 0 0 0 365.64-147.81 520.92 520.92 0 0 0 157.37-366.93 513.3 513.3 0 0 0-144.74-361.341c8.76-15.685 15.96-32.054 22.44-48.795 37.56-96.993 29.86-207.967-12.05-302.194a425.44 425.44 0 0 0-232.6-220.614c-68.49-26.102-139.63-33.42-211.79-20.393-22.95 4.144-45.14 9.701-66.5 19.287-14.89-15.071-29.71-29.998-45.68-43.93 22.12-9.937 45.67-18.388 69.23-24.15a462 462 0 0 1 348.28 53.306c108.27 66.203 192.31 177.07 221.8 301.157a457.05 457.05 0 0 1-15.94 263.381c-6.16 16.299-12.92 33.128-22.09 47.968a2359 2359 0 0 0 29.07 38.408c5.02-10.983 10.94-21.552 15.93-32.57a553.4 553.4 0 0 0 33.08-93.855c31.23-124.924 8.47-266.751-57.79-376.969-70.59-117.436-187.25-208.381-320.92-241.525a490.86 490.86 0 0 0-271.03 9.544c-22.85 7.573-45.33 16.567-65.99 29.012-6.17-3.804-12.23-7.574-18.8-10.643-5.3-24.945-10.67-49.752-17.06-74.448-2.77-10.7-5.2-21.745-9.07-32.095 30.33-11.233 60.01-23.827 90.71-34.119 15.4 30.254 31.7 60.046 47.05 90.345 24.01-6.734 51.15-10.603 76.04-12.219 7.07-31.899 11.16-64.701 16.8-96.892"/><path fill="#2775b1" d="M749.094 120.554c10.51-.707 21.144-.641 31.679-.871 4.927 31.83 9.187 63.861 13.695 95.759 10.99 2.883 22.815 3.899 34.026 5.936 15.963 2.899 31.794 6.618 47.622 10.174a4748 4748 0 0 1 47.497-93.456c31.413 9.794 61.452 24.612 92.787 34.901-2.35 10.529-6.32 20.74-9.51 31.041-7.616 24.593-15.58 49.348-21.29 74.451l17.9 11.499c4.99-7.418 10.25-14.678 15.38-22 15.44 9.544 31.16 18.86 46.17 29.07 17.82 12.115 33.55 25.52 49.67 39.745 92.77 81.883 151.88 188.981 175.12 310.427l-14.76-2.616a2809 2809 0 0 1 3.04 128.407c-33.75.458-68.74 7.333-101.53 14.819-2.48-35.322-2.32-71.141-6.6-106.286-5.65-46.317-24.26-96.682-46.35-137.577-53.47-99.015-144.087-182-253.363-214.218-109.529-32.292-224.441-17.167-324.332 37.032-101.979 55.333-178.462 153.711-211.063 264.494-31.186 105.979-23.919 222.908 29.682 320.738A451.6 451.6 0 0 0 587.136 1153.7c20.559 8.62 42.345 14.91 63.703 21.18-1.429 11.26-2.074 22.45-2.482 33.78-20.052-4.24-39.449-10.89-58.59-18.12-58.528-22.1-109.454-52.93-155.951-94.98a456.54 456.54 0 0 1-150.604-317.408c-6.155-127.945 39.584-247.46 125.367-341.902a467.03 467.03 0 0 1 324.217-154.941 451.3 451.3 0 0 1 324.284 117.093c107.5 97.915 158.43 218.83 165.1 362.756 12.96-1.42 26.06-2.317 38.94-4.354-.07-40.315-6.54-83.877-17.06-122.797-39.6-146.527-124.1-258.884-256.087-334.679-107.946-61.989-243.116-77.694-362.957-45.018a531.67 531.67 0 0 0-318.091 248.21 518.67 518.67 0 0 0-49.041 387.473c12.121 40.087 28.109 80.41 50.047 116.197 12.633 20.61 25.825 41.29 40.815 60.29 16.021 20.31 34.134 38.27 52.999 55.92 72.288 67.61 146.094 105.3 241.894 128.24.477 7.89-.309 15.96-.728 23.85a466 466 0 0 1-53.51-13.52c-16.528 28.53-35.993 56.11-53.736 83.95-28.966-14.32-58.09-28.94-87.578-42.12 9.165-30.69 16.864-61.83 26.324-92.41-54.19-36.19-94.541-69.7-137.09-119.45-12.1-14.15-22.288-29.93-34.55-43.91l-.854-.96c-7.282 9.72-12.396 21.62-17.375 32.67-58.818 130.52-62.025 266.56-11.184 400.03 47.722 125.28 149.914 231.67 272.199 286.28 110.417 49.31 230.615 60.17 346.887 24.74 25.13-7.65 48.615-19.32 73.088-28.7 14.51 11.64 32.685 20.44 45.828 33.38-.26-.09-.52-.19-.79-.28-6.21-2.14-11.471-5.19-17.106-8.52 4.348 31.01 14.866 60.99 20.236 91.82-29.461 12.66-59.946 23.4-89.987 34.6-15.388-31.98-30.571-64.47-47.061-95.87-25.792 5.75-51.4 11.22-77.55 15.15-7.057 32.41-14.278 66.14-18.606 99.02-31.787-.48-63.591-.96-95.272-3.69-3.853-33.18-6.787-66.97-8.595-100.31-25.562-2.01-54.539-9.8-78.634-18.59-15.304 29.38-32.73 57.89-49.279 86.6-31.278-10.15-61.974-26.76-90.85-42.36 8.144-29.81 17.685-62.61 28.819-91.34-22.482-15.79-45.531-30.4-67.745-46.66-23.865 19.29-48.604 37.51-72.486 56.81-24.179-15.97-52.207-47.77-71.553-69.54 6.507-9.43 14.403-18.23 21.579-27.19l36.745-46.36c-18.813-20.27-33.207-44.12-47.577-67.6-30.642 7.39-60.697 18.54-91.113 26.97-17.185-27.21-29.809-59.46-41.797-89.2 27.959-17.83 56.715-34.36 85.221-51.3-6.273-25.07-10.631-49.93-15.491-75.27-32.771-2.86-65.579-6.87-98.271-10.57-.492-31.83-2.301-63.61-3.677-95.41 31.951-3.46 63.321-11.69 95.178-15.84 2.955-27.28 6.87-54.52 13.616-81.16-32.115-12.1-62.093-30.37-94.059-43.01 4.812-13.86 11.128-27.38 16.484-41.06 7.134-18.22 13.122-38.25 22.877-55.18a1816 1816 0 0 0 96.25 28.13c4.99-12.28 12.061-23.59 17.223-35.83-7.955-11.62-14.781-24.132-21.873-36.302-31.335 11.585-61.229 29.112-93.049 39.232-11.813-33.826-26.398-66.564-37.971-100.519 30.988-15.757 62.652-31.747 94.794-44.985-5.741-26.935-10.664-53.884-11.543-81.455-21.159-2.603-42.261-5.842-63.395-8.659-12.749-1.7-25.714-2.651-38.351-4.992 2.577-32.018 5.945-64.617 6.217-96.726 32.587-1.049 65.114-6.761 97.694-7.153 2.193-11.118 3.77-22.299 6.243-33.372 3.586-16.052 8.164-31.873 11.867-47.903-12.374-8.101-25.812-14.791-38.695-22.067-15.878-8.966-31.502-18.4-47.351-27.43l42.467-89.729 59.879 16.754c11.553 3.273 23.353 7.341 35.209 9.282 12.774-21.186 25.594-44.38 42.248-62.838-18.668-25.882-38.432-50.916-56.165-77.462 22.633-24.044 46.645-46.602 69.564-70.346 26.16 18.555 50.062 40.238 76.107 58.986 20.479-15.885 41.169-31.736 63.356-45.176-4.968-14.506-8.843-29.517-13.236-44.221-4.885-16.351-10.534-32.855-13.911-49.577 30.713-12.701 59.054-31.063 90.807-41.322 18.553 27.684 33.703 57.464 51.489 85.606 23.541-8.346 48.707-13.736 73.142-18.744 2.642-32.353 7.428-64.742 10.536-97.111 21.635-.391 43.259-2.201 64.926-2.647"/></svg>