<svg version="1.1" xmlns="http://www.w3.org/2000/svg" style="display: block;" viewBox="0 0 2048 2048" width="1024" height="1024">
<path transform="translate(0,0)" fill="rgb(254,254,254)" d="M 0 0 L 2048 0 L 2048 2048 L 0 2048 L 0 0 z"/>
<path transform="translate(0,0)" fill="rgb(33,93,69)" d="M 789.496 1077.99 C 792.917 1085.68 764.045 1137.1 773.631 1148.25 C 777.95 1149.32 785.528 1148.99 789.539 1146.97 C 791.889 1145.79 791.917 1143.93 793.041 1141.83 C 793.387 1141.18 793.926 1140.63 794.412 1140.09 C 794.393 1140.41 794.39 1140.73 794.355 1141.04 C 794.042 1143.84 793.444 1147.81 791.13 1149.6 C 769.053 1153.85 712.637 1151.41 689.797 1147.52 C 714.806 1144.09 743.409 1144.55 768.997 1142.9 C 773.005 1121.84 779.487 1097.05 789.496 1077.99 z"/>
<path transform="translate(0,0)" fill="rgb(39,117,177)" d="M 379.957 1154.46 C 380.504 1154.77 381.068 1155.05 381.598 1155.38 C 387.497 1159.1 411.426 1179.49 412.466 1185.63 C 410.13 1187.15 408.806 1186.5 406.131 1186.26 A 1324.57 1324.57 0 0 1 368.576 1183.39 C 371.045 1173.31 375.56 1163.82 379.957 1154.46 z"/>
<path transform="translate(0,0)" fill="rgb(48,134,76)" d="M 1327.71 1130.36 C 1331.55 1134.12 1335.46 1155.48 1337.04 1161.85 C 1328.08 1161.34 1317.13 1159.77 1308.4 1162.14 L 1308.14 1163.16 L 1306.87 1163.47 C 1302.65 1157.65 1301.45 1143.74 1299.79 1136.44 C 1308.79 1133.73 1318.41 1131.68 1327.71 1130.36 z"/>
<path transform="translate(0,0)" fill="rgb(39,117,177)" d="M 886.015 489.871 C 886.135 489.954 886.269 490.019 886.376 490.119 C 890.52 493.998 893.912 499.243 897.316 503.793 C 915.401 527.962 929.104 554.701 934.335 584.683 C 936.331 596.123 939.666 645.716 933.422 654.625 C 930.395 655.377 929.346 654.424 926.524 653.239 C 925.38 652.817 924.235 651.982 923.183 651.356 C 920.654 643.25 923.137 629.605 923.303 620.874 C 924.18 574.586 905.794 531.968 873.997 498.935 C 878.135 496.093 882.054 492.953 886.015 489.871 z"/>
<path transform="translate(0,0)" fill="rgb(39,117,177)" d="M 475.741 596.529 C 479.618 599.764 483.257 601.684 487.927 603.62 C 484.95 619.735 480.7 635.084 479.241 651.533 A 191.529 191.529 0 0 0 513.656 778.805 C 519.3 786.789 526.606 793.873 532.894 801.378 C 532.373 804.01 530.987 804.687 529.108 806.488 C 527.578 807.481 526.223 807.987 524.483 808.521 C 511.7 804.143 492.874 773.599 486.324 761.677 C 457.893 709.923 459.413 651.815 475.741 596.529 z"/>
<path transform="translate(0,0)" fill="rgb(39,117,177)" d="M 501.199 519.276 A 40.1017 40.1017 0 0 1 523.414 525.942 A 38.5342 38.5342 0 0 1 540.255 551.216 C 542.177 561.435 540.159 572.19 533.924 580.604 C 526.89 590.097 516.585 594.192 505.248 595.69 C 496.926 595.748 488.064 593.721 481.077 589.076 C 472.905 583.643 467.672 574.8 465.861 565.237 A 38.8429 38.8429 0 0 1 472.593 535.182 C 479.776 525.394 489.569 521.163 501.199 519.276 z"/>
<path transform="translate(0,0)" fill="rgb(254,254,254)" d="M 497.283 529.185 C 502.594 528.876 507.014 528.961 512.021 530.952 C 519.144 533.785 525.055 539.012 528.023 546.166 A 30.3423 30.3423 0 0 1 527.877 569.461 C 524.049 578.359 517.438 582.096 508.892 585.391 C 504.47 585.999 500.397 586.069 496.051 584.866 C 488.762 582.848 482.67 578.066 479.244 571.289 A 28.9403 28.9403 0 0 1 477.801 548.602 C 481.217 538.896 488.23 533.361 497.283 529.185 z"/>
<path transform="translate(0,0)" fill="rgb(39,117,177)" d="M 901.844 664.034 C 910.407 663.498 918.433 664.41 926.188 668.356 C 934.885 672.781 941.173 680.36 944.102 689.652 C 947.3 699.8 946.46 710.648 941.19 719.947 C 935.271 730.389 926.095 735.812 914.777 738.705 C 905.818 739.9 898.816 739.816 890.459 735.56 A 38.1398 38.1398 0 0 1 871.329 712.625 C 868.426 703.051 868.999 692.953 873.78 684.08 C 879.893 672.736 890.11 667.678 901.844 664.034 z"/>
<path transform="translate(0,0)" fill="rgb(254,254,254)" d="M 908.249 674.253 C 912.973 674.584 917.374 675.416 921.551 677.77 C 927.7 681.237 932.076 686.769 933.955 693.585 A 27.6505 27.6505 0 0 1 930.911 715.379 C 926.029 723.469 919.191 726.861 910.383 729.148 C 904.246 728.93 899.361 728.446 893.95 725.21 A 26.5341 26.5341 0 0 1 881.36 707.484 C 879.866 700.056 881.351 692.118 885.908 686 C 891.584 678.38 899.26 675.69 908.249 674.253 z"/>
<path transform="translate(0,0)" fill="rgb(39,117,177)" d="M 497.538 848.665 L 495.572 851.111 C 495.324 852.689 495.413 853.406 496.15 854.84 C 496.962 856.419 497.9 857.951 498.573 859.599 C 503.08 870.637 502.549 885.777 497.316 896.322 C 492.844 905.334 485.184 911.838 475.629 914.943 A 40.4368 40.4368 0 0 1 443.486 911.543 C 433.98 906.218 426.925 897.619 424.194 887.016 A 36.4465 36.4465 0 0 1 428.835 858.005 C 436.496 846.07 455.465 836.211 469.909 838.976 C 474.755 839.903 484.308 847.262 488.573 846.261 L 490.792 841.815 L 491.923 848.91 C 493.858 849.003 495.354 848.842 497.241 848.62 C 497.34 848.609 497.439 848.65 497.538 848.665 z"/>
<path transform="translate(0,0)" fill="rgb(254,254,254)" d="M 461.24 849.22 C 467.025 848.839 472.599 849.824 477.675 852.7 A 27.798 27.798 0 0 1 490.987 870.61 A 29.5167 29.5167 0 0 1 487.196 893.016 C 482.268 900.803 475.197 904.781 466.434 906.871 C 459.863 907.076 453.847 905.882 448.175 902.391 A 28.1742 28.1742 0 0 1 435.241 883.773 C 433.71 876.142 434.964 868.201 439.437 861.749 C 444.757 854.077 452.395 850.987 461.24 849.22 z"/>
<path transform="translate(0,0)" fill="rgb(39,117,177)" d="M 705.41 442.5 C 752.286 439.994 802.839 447.726 843.888 471.357 C 840.573 475.021 837.396 478.825 834.167 482.566 C 776.146 453.003 706.623 452.286 644.771 468.738 C 606.846 479.611 573.376 497.729 542.734 522.466 C 539.717 520.365 536.205 518.456 534.58 515.047 C 534.951 512.205 536.357 510.324 538.275 508.278 C 544.461 501.678 552.963 496.138 560.479 491.084 C 602.387 462.901 655.048 445.501 705.41 442.5 z"/>
<path transform="translate(0,0)" fill="rgb(39,117,177)" d="M 877.646 744.449 L 890.231 749.512 A 269.465 269.465 0 0 1 734.615 859.163 C 674.193 874.417 612.394 868.228 558.607 836.076 C 555.615 834.371 551.102 832.105 548.876 829.538 C 547.073 827.46 547.468 826.518 547.83 824.05 C 553.837 817.498 562.666 823.159 569.223 826.478 C 576.874 830.35 584.467 834.64 592.422 837.841 C 629.555 852.783 671.276 855.274 710.532 849.076 C 776.367 838.682 838.545 798.132 877.646 744.449 z"/>
<path transform="translate(0,0)" fill="rgb(39,117,177)" d="M 490.792 841.815 C 492.211 835.575 507.308 827.637 512.791 824.18 C 536.042 809.518 560.133 798.308 585.246 787.295 C 604.708 778.76 623.939 770.051 644.063 763.158 C 712.019 739.879 798.986 725.567 870.384 735.598 C 866.922 739.441 863.811 743.181 860.929 747.493 C 834.115 746.753 807.363 746.574 780.611 748.876 C 707.739 755.147 635.693 777.897 569.812 808.984 C 560.054 813.588 550.257 818.141 540.882 823.494 C 531.313 828.957 505.642 846.38 497.538 848.665 C 497.439 848.65 497.34 848.609 497.241 848.62 C 495.354 848.842 493.858 849.003 491.923 848.91 L 490.792 841.815 z"/>
<path transform="translate(0,0)" fill="rgb(48,134,76)" d="M 1486.15 1243.13 C 1500 1242.24 1512.59 1244.59 1524.1 1252.81 A 55.2192 55.2192 0 0 1 1546.44 1289.97 C 1548.43 1304.07 1544.23 1318.49 1535.68 1329.78 C 1527.37 1340.76 1515.76 1347.02 1502.25 1349.03 C 1488.36 1350.32 1476.22 1349.19 1463.9 1342.05 C 1451.86 1335.07 1443.47 1324.04 1440.18 1310.5 A 53.9305 53.9305 0 0 1 1447.09 1268.42 C 1456.2 1254.44 1470.21 1246.69 1486.15 1243.13 z"/>
<path transform="translate(0,0)" fill="rgb(254,254,254)" d="M 1484.96 1259.23 C 1493.55 1258.39 1501.18 1258.51 1509.21 1262.24 A 38.4995 38.4995 0 0 1 1529.55 1284.97 A 38.3773 38.3773 0 0 1 1526.78 1315.61 C 1521.25 1325.5 1512.68 1330.77 1502.11 1333.8 C 1492.01 1334.72 1482.94 1334.48 1473.82 1329.32 A 37.1153 37.1153 0 0 1 1456.08 1306.62 C 1453.41 1296.54 1454.8 1285.32 1460.28 1276.41 C 1465.94 1267.23 1474.64 1261.73 1484.96 1259.23 z"/>
<path transform="translate(0,0)" fill="rgb(48,134,76)" d="M 1489.5 1420.37 C 1502.06 1419.53 1514.61 1422.07 1525.22 1429.16 A 50.2046 50.2046 0 0 1 1546.45 1461.56 C 1549.28 1476.12 1546.51 1491.27 1538.04 1503.54 C 1528.39 1517.53 1514.46 1524.04 1498.23 1526.88 C 1484.86 1528.01 1470.61 1523.75 1459.85 1515.85 A 51.0334 51.0334 0 0 1 1439.23 1481.49 A 55.2695 55.2695 0 0 1 1450.78 1439.86 C 1460.82 1427.38 1473.97 1421.96 1489.5 1420.37 z"/>
<path transform="translate(0,0)" fill="rgb(254,254,254)" d="M 1488.73 1435.43 C 1498.22 1435.62 1506.66 1436.94 1514.61 1442.53 A 37.7066 37.7066 0 0 1 1530.11 1467.2 A 37.8793 37.8793 0 0 1 1523.87 1495.66 C 1517.4 1504.81 1508.07 1509.57 1497.25 1511.51 C 1487.08 1512.04 1477.11 1510.06 1468.92 1503.71 C 1460.64 1497.29 1455.9 1487.72 1455 1477.36 C 1454.06 1466.58 1456.99 1455.38 1464.14 1447.11 C 1471.1 1439.05 1478.53 1436.31 1488.73 1435.43 z"/>
<path transform="translate(0,0)" fill="rgb(48,134,76)" d="M 1253.19 1208.32 C 1253.6 1208.27 1254.02 1208.21 1254.43 1208.18 C 1267.17 1206.95 1281.08 1211.86 1290.75 1220 C 1302.01 1229.47 1310.24 1243.59 1311.49 1258.33 C 1312.72 1272.74 1307.57 1286.84 1298.12 1297.66 C 1288.2 1309.02 1276.08 1314.52 1261.25 1315.56 C 1249.38 1316.64 1236.12 1313.74 1226.29 1307.04 C 1213.91 1298.59 1206.52 1284.5 1203.93 1269.99 C 1201.39 1255.71 1204.96 1241.69 1213.48 1229.99 C 1223.27 1216.55 1237.26 1210.54 1253.19 1208.32 z"/>
<path transform="translate(0,0)" fill="rgb(254,254,254)" d="M 1256.58 1222.38 C 1265.28 1222.1 1274.54 1224.9 1281.44 1230.22 C 1289.88 1236.74 1295.18 1247.11 1296.46 1257.61 A 39.8016 39.8016 0 0 1 1287.84 1287.24 C 1280.38 1296.45 1270.84 1300.24 1259.43 1301.64 C 1250.58 1301.5 1241.39 1298.95 1234.15 1293.78 C 1225.54 1287.64 1220.34 1278.23 1219.03 1267.79 C 1217.6 1256.41 1220.47 1244.57 1227.93 1235.72 C 1235.59 1226.62 1245.21 1223.6 1256.58 1222.38 z"/>
<path transform="translate(0,0)" fill="rgb(39,117,177)" d="M 865.675 1246.21 C 868.838 1255.11 867.962 1268.92 868.491 1278.49 A 455.124 455.124 0 0 1 781.538 1288.14 C 774.727 1288.23 748.522 1290.83 745.23 1284.75 C 743.362 1281.3 743.906 1277.92 740.806 1274.9 C 738.978 1274.22 737.569 1273.86 735.633 1274.12 C 732.186 1274.58 728.02 1276.7 726.23 1279.81 C 721.375 1288.27 726.476 1355.25 729.561 1369.12 C 715.15 1369.14 700.415 1367.81 686.089 1366.28 A 1420.11 1420.11 0 0 1 665.952 1364.71 L 667.735 1257.31 C 734 1265.16 801.143 1265.16 865.675 1246.21 z"/>
<path transform="translate(0,0)" fill="rgb(39,117,177)" d="M 917.486 401.141 C 925.329 400.989 933.926 403.015 940.659 407.099 C 949.071 412.201 954.571 420.66 956.832 430.146 A 38.352 38.352 0 0 1 951.686 460.265 A 34.837 34.837 0 0 1 928.583 475.668 C 916.237 477.995 906.218 474.058 896.119 467.402 C 810.951 521.526 731.768 589.167 661.791 661.796 C 627.965 696.903 596.054 734.129 564.357 771.153 C 557.658 778.276 551.027 785.344 543.705 791.844 L 534.963 786.224 C 544.539 769.424 565.974 747.275 579.088 731.681 A 1496.21 1496.21 0 0 1 825.312 498.269 C 844.867 483.482 865.747 470.064 885.792 455.913 C 884.786 453.017 883.765 449.973 883.241 446.948 C 881.478 436.77 883.245 426.426 889.164 417.862 C 896.078 407.858 905.915 403.295 917.486 401.141 z"/>
<path transform="translate(0,0)" fill="rgb(254,254,254)" d="M 919.749 411.34 C 924.748 411.796 929.237 412.589 933.635 415.155 A 27.7155 27.7155 0 0 1 946.759 432.992 C 948.494 440.535 947.139 448.358 942.703 454.74 C 937.4 462.37 930.369 465.187 921.539 466.807 C 915.395 466.34 910.976 465.472 905.789 461.994 A 28.3446 28.3446 0 0 1 893.565 442.924 A 27.8243 27.8243 0 0 1 899.154 421.485 C 904.672 414.514 911.293 412.489 919.749 411.34 z"/>
<path transform="translate(0,0)" fill="rgb(48,134,76)" d="M 1296.29 667.858 C 1322.68 667.714 1349.34 669.785 1375.7 671.039 C 1379.59 700.739 1386.42 730.291 1389.36 760.072 C 1413.21 764.691 1437.57 770.791 1460.56 778.66 C 1478.34 751.967 1494.94 724.511 1512.9 697.893 C 1543.03 711.81 1573.88 724.281 1604.24 737.735 L 1569 827.977 C 1579.01 835.695 1590.17 842.141 1600.45 849.536 C 1610.97 857.097 1620.77 865.661 1630.89 873.739 C 1633.78 874.536 1635.95 873.16 1638.53 872.014 C 1653.43 864.62 1667.18 855.115 1682.24 847.998 C 1675.31 874.72 1664.14 899.152 1653.08 924.309 A 528.475 528.475 0 0 0 1360.82 778.849 C 1339.73 775.765 1318.32 775.009 1297.05 773.913 C 1296.97 738.636 1295.56 703.101 1296.29 667.858 z"/>
<path transform="translate(0,0)" fill="rgb(39,117,177)" d="M 1271.55 877.527 L 1272.82 877.462 C 1273.09 878.301 1273.29 878.727 1273.21 879.703 C 1272.51 888.388 1263.18 912.916 1259.75 922.548 A 545.294 545.294 0 0 1 1162.06 1091.57 C 1149.79 1106.01 1136.12 1119.13 1123.48 1133.24 C 1140.41 1155.23 1156.08 1178.28 1172.65 1200.56 C 1151.27 1229.55 1127.9 1247.06 1098.91 1267.58 A 3164.04 3164.04 0 0 1 1034.16 1199.46 A 356.215 356.215 0 0 1 959.576 1240.43 C 964.285 1265.33 969.839 1290.01 975.139 1314.79 A 603.45 603.45 0 0 0 978.918 1331.17 C 953.561 1342.8 920.564 1351.23 893.072 1356.65 C 891.785 1317.92 889.553 1279.1 887.76 1240.39 A 468.018 468.018 0 0 0 1012.99 1186.19 C 1122.3 1118.2 1213.61 1007.34 1243.36 880.365 L 1271.55 877.527 z"/>
<path transform="translate(0,0)" fill="rgb(39,117,177)" d="M 1197.95 889.088 L 1198.96 889.131 L 1199.42 890.546 C 1197.21 897.539 1194.15 904.145 1191.54 910.989 A 479.419 479.419 0 0 1 1044.08 1115.01 A 486.861 486.861 0 0 1 775.242 1219.47 C 741.214 1221.52 708.03 1219.27 674.245 1215.41 C 672.818 1212.6 676.437 1168.98 676.67 1161.75 C 691.841 1165.01 707.593 1166.3 723.067 1167.19 C 787.581 1170.87 848.446 1159.12 908.131 1134.64 C 1008.1 1093.63 1096.04 1008.83 1137.8 908.807 A 1220.53 1220.53 0 0 1 1197.95 889.088 z"/>
<path transform="translate(0,0)" fill="rgb(48,134,76)" d="M 1064.28 709.985 C 1088.07 695.464 1122.08 683.525 1149.12 676.829 C 1149.95 715.706 1154.74 754.619 1157.33 793.415 A 512.411 512.411 0 0 0 842.659 1027.88 C 829.008 1050.72 817.066 1076.33 807.894 1101.33 C 803.255 1113.98 800.016 1127.97 794.412 1140.09 C 793.926 1140.63 793.387 1141.18 793.041 1141.83 C 791.917 1143.93 791.889 1145.79 789.539 1146.97 C 785.528 1148.99 777.95 1149.32 773.631 1148.25 C 764.045 1137.1 792.917 1085.68 789.496 1077.99 L 791.715 1071.95 C 785.895 1063.23 727.56 1019.41 715.159 1010.39 C 734.435 983.427 756.997 952.59 774.594 924.904 C 799.119 939.224 823.892 954.292 847.424 970.182 A 1658.69 1658.69 0 0 1 911.035 900.996 C 892.029 876.942 878.903 848.249 859.689 824.332 C 886.765 804.524 912.588 781.916 940.822 763.844 C 962.863 787.22 985.727 810.901 1005.59 836.148 C 1030.6 821.336 1056.36 806.581 1083.47 795.949 C 1078.3 767.14 1070.58 738.587 1064.28 709.985 z"/>
<path transform="translate(0,0)" fill="rgb(39,117,177)" d="M 323.171 1094.6 C 339.426 1110.29 354.923 1126.8 370.666 1143 C 363.548 1162.95 355.647 1182.42 350.459 1203.03 A 395.52 395.52 0 0 0 371.51 1454.7 A 422.735 422.735 0 0 0 607.742 1683.37 C 628.748 1691.72 650.956 1698.76 673.159 1703.07 C 736.271 1715.32 818.403 1713.53 878.008 1687.87 C 893.331 1703.27 908.426 1717.97 925.057 1731.99 C 919.123 1735.88 912.352 1738.13 905.76 1740.65 A 988.791 988.791 0 0 1 882.328 1748.58 C 768.356 1785.11 645.453 1769.9 539.723 1715.41 A 490.484 490.484 0 0 1 299.886 1430.44 A 463.403 463.403 0 0 1 305.268 1138.91 C 310.531 1123.93 315.892 1108.74 323.171 1094.6 z"/>
<path transform="translate(0,0)" fill="rgb(48,134,76)" d="M 1270.09 814.447 C 1387.88 809.728 1509.49 853.218 1598.49 930.314 C 1692.08 1011.39 1754.45 1130.06 1763.01 1254.05 C 1771.59 1378.3 1729.65 1507.94 1647.47 1601.87 A 475.847 475.847 0 0 1 1322.46 1765.68 A 452.207 452.207 0 0 1 989.743 1652.32 C 890.541 1565.05 834.219 1441.99 825.954 1310.78 A 3828.43 3828.43 0 0 1 866.931 1306.58 C 866.777 1344.46 874.42 1385.39 884.638 1421.76 A 435.595 435.595 0 0 0 1093.82 1683.92 C 1105.34 1690.42 1117.72 1696.05 1129.88 1701.25 C 1234.57 1746.08 1347.76 1745.71 1453.18 1703.4 A 450.473 450.473 0 0 0 1696.51 1462.95 C 1739.48 1361.79 1746.83 1241.08 1705.01 1138.14 C 1658.94 1024.73 1590.43 943.429 1476.4 895.346 C 1370.21 850.565 1242.31 849.888 1135.69 893.409 C 1027.39 937.615 942.092 1013.11 896.275 1122.18 A 936.903 936.903 0 0 1 837.913 1140.09 A 452.009 452.009 0 0 1 939.408 967.343 C 1023.95 876.604 1145.92 818.95 1270.09 814.447 z"/>
<path transform="translate(0,0)" fill="rgb(48,134,76)" d="M 1483.4 1034.3 C 1494.33 1032.53 1507.52 1034.41 1518.11 1037.37 A 96.8922 96.8922 0 0 1 1576.71 1082.75 A 91.4894 91.4894 0 0 1 1585.42 1152.13 C 1577.98 1178.53 1559.44 1199.8 1535.87 1213.12 C 1550.75 1223.39 1563.24 1233.59 1572.7 1249.23 C 1585.6 1270.56 1590.85 1295.79 1584.82 1320.18 C 1577.29 1350.68 1557.19 1369.38 1531.41 1385.12 A 90.9083 90.9083 0 0 1 1535.43 1386.83 C 1557.5 1396.87 1574.42 1418.31 1582.62 1440.74 C 1591.37 1464.67 1591.32 1490.27 1580.21 1513.43 C 1568.98 1536.85 1546.5 1555.34 1522.07 1563.67 C 1488.63 1575.07 1462.77 1563.84 1432.89 1549.28 C 1429.58 1550.11 1430.86 1552.14 1428.25 1553.97 C 1426.93 1553.03 1426.46 1552.4 1425.89 1550.86 C 1416.94 1526.77 1410.15 1501.58 1402.23 1477.1 L 1352.81 1325.62 C 1347.46 1309.29 1343.05 1290.45 1335.64 1275.02 C 1334.04 1271.69 1331.61 1271.95 1328.24 1270.8 C 1325.79 1264.33 1327.67 1255.71 1326.4 1248.72 C 1322.98 1229.95 1308.95 1211.38 1293.03 1201.33 C 1277.98 1191.83 1259.62 1189.34 1242.39 1193.31 C 1223.98 1197.56 1207.82 1208.43 1197.91 1224.61 A 72.6978 72.6978 0 0 0 1189.68 1279.7 C 1194.31 1297.82 1205.88 1314.18 1222.07 1323.74 C 1237.56 1332.88 1257.82 1335.1 1275.13 1330.6 C 1299.46 1324.28 1312.7 1308.19 1325.03 1287.43 C 1340.4 1329.27 1352.94 1372.26 1366.82 1414.61 L 1424.94 1589.25 A 1993.59 1993.59 0 0 0 1369.57 1589.09 C 1363.81 1569.32 1356.67 1549.73 1350.23 1530.16 C 1345.07 1514.46 1340.75 1496.84 1333.23 1482.16 C 1322.35 1499.68 1304.82 1513.04 1285.6 1520.36 A 93.9167 93.9167 0 0 1 1213.57 1517.75 C 1191.55 1507.66 1172.6 1488.44 1164.38 1465.46 C 1154.89 1438.94 1157.12 1412.47 1169 1387.22 C 1178.97 1369.38 1192.39 1355.05 1210.29 1345.14 C 1191.72 1333.47 1178.99 1318.33 1171.63 1297.51 A 97.5081 97.5081 0 0 1 1175.87 1222.47 C 1187.17 1199.08 1204.24 1182.82 1229.01 1174.42 C 1256.96 1164.96 1281.05 1171.33 1306.55 1183.95 C 1308.38 1181.25 1310.25 1178.14 1312.68 1175.94 C 1318.76 1170.46 1333.03 1174.77 1340.76 1175.25 A 2616.58 2616.58 0 0 0 1371.31 1278.45 C 1379.58 1305.32 1387.39 1332.32 1395.9 1359.13 C 1402.46 1379.76 1409.6 1400.15 1415.85 1420.91 C 1418.33 1429.16 1421.5 1437.78 1422.79 1446.3 C 1424.46 1457.26 1422.07 1467.98 1422.43 1478.95 C 1423 1496.52 1431.71 1513.01 1444.66 1524.69 C 1459.11 1537.74 1477.53 1544.56 1496.99 1543.51 C 1516.12 1542.49 1533.51 1534.65 1546.25 1520.2 C 1559.4 1505.28 1565.03 1485.69 1563.7 1466 A 65.3808 65.3808 0 0 0 1540.99 1420.15 C 1526.05 1407.31 1507.09 1401.34 1487.48 1402.87 C 1464 1404.69 1448.81 1415.78 1433.91 1433.11 C 1425.15 1398.16 1412.52 1363.15 1401.65 1328.77 C 1393.2 1302.06 1385.47 1275.17 1377.24 1248.4 C 1365.18 1209.23 1352.87 1170.21 1342.23 1130.63 C 1352.74 1127.33 1363.95 1125.18 1374.68 1122.61 C 1375.4 1130.27 1377.64 1137.91 1379.74 1145.29 C 1386.13 1167.74 1394.29 1189.73 1401.22 1212.02 C 1404.35 1222.06 1414.64 1259.79 1418.22 1266.01 C 1419.61 1268.42 1422.65 1267.6 1425.23 1268.6 C 1425.98 1273.71 1423.25 1280.56 1422.6 1285.82 C 1421.77 1292.49 1422.02 1299.48 1422.96 1306.12 A 70.4709 70.4709 0 0 0 1451.14 1353.42 C 1466.33 1364.69 1485.49 1368.9 1504.1 1366.11 A 68.6691 68.6691 0 0 0 1549.75 1338.92 C 1560.71 1324.04 1565.1 1304.4 1562.03 1286.2 C 1558.83 1267.25 1547.49 1250.23 1531.84 1239.22 C 1516.42 1228.38 1498.08 1225.05 1479.65 1228.41 C 1459.91 1232.02 1442.33 1241.94 1431.02 1258.74 L 1430.26 1259.88 C 1425.93 1240.06 1387.85 1132.19 1389.92 1122.72 C 1390.74 1122.82 1392.06 1123.01 1392.85 1122.98 C 1395.25 1122.88 1396.17 1122.37 1397.13 1120.1 C 1398.77 1116.23 1399.24 1110.43 1400.36 1106.22 A 104.4 104.4 0 0 1 1418.24 1070.09 C 1434.5 1048.69 1457.12 1038 1483.4 1034.3 z"/>
<path transform="translate(0,0)" fill="rgb(254,254,254)" d="M 1247.77 1361.41 C 1264.52 1360.47 1281.84 1365.25 1295.23 1375.47 C 1310.34 1387.02 1319.35 1404.32 1321.6 1423.05 C 1323.95 1442.55 1319.38 1461.34 1307.11 1476.86 C 1294.64 1492.62 1277.45 1500.75 1257.77 1502.95 C 1240.48 1503.3 1222.93 1498.88 1208.95 1488.4 C 1194.31 1477.42 1183.76 1459.08 1181.47 1440.93 C 1179.1 1422.02 1184.94 1401.89 1196.83 1387.07 C 1210.16 1370.45 1227.09 1363.7 1247.77 1361.41 z"/>
<path transform="translate(0,0)" fill="rgb(48,134,76)" d="M 1249.71 1377.39 A 53.6657 53.6657 0 0 1 1281.12 1385.77 A 56.1075 56.1075 0 0 1 1305.83 1421.59 A 54.1557 54.1557 0 0 1 1296.93 1463.77 C 1287.12 1477.71 1274 1483.33 1257.85 1486.2 C 1243.28 1486.62 1230.07 1484.45 1218.14 1475.27 C 1206.49 1466.3 1199.12 1452.08 1197.64 1437.53 C 1196.13 1422.71 1201.23 1407.5 1210.83 1396.2 C 1221.12 1384.08 1234.29 1378.83 1249.71 1377.39 z"/>
<path transform="translate(0,0)" fill="rgb(254,254,254)" d="M 1244.73 1393.2 C 1254.07 1392.21 1262.5 1392.95 1270.87 1397.56 C 1280.43 1402.82 1287.12 1411.56 1289.9 1422.1 C 1292.56 1432.22 1291.8 1443.36 1286.4 1452.47 C 1280.18 1462.97 1270.21 1467.79 1258.87 1470.8 C 1249.96 1471.11 1242.23 1470.7 1234.06 1466.52 A 38.6966 38.6966 0 0 1 1214.59 1443.22 C 1211.57 1433.26 1213.05 1421.64 1218 1412.54 C 1223.73 1402.01 1233.52 1396.29 1244.73 1393.2 z"/>
<path transform="translate(0,0)" fill="rgb(254,254,254)" d="M 1487.84 1056.4 C 1504.94 1055.11 1522.34 1059.53 1536.2 1069.85 C 1551.54 1081.27 1561.73 1100.37 1564.36 1119.17 A 71.0641 71.0641 0 0 1 1550.61 1171.79 C 1537.84 1188.72 1521.05 1197.14 1500.32 1199.92 C 1480.42 1200.31 1462.51 1196.75 1446.53 1184.22 C 1431.97 1172.82 1423.61 1156.81 1421.47 1138.52 C 1419.19 1119.02 1424.79 1097.58 1437.04 1082.13 C 1449.99 1065.82 1467.62 1058.68 1487.84 1056.4 z"/>
<path transform="translate(0,0)" fill="rgb(48,134,76)" d="M 1492.26 1072.4 C 1505.82 1071.6 1522.04 1078.35 1532.01 1087.36 C 1542.7 1097.03 1548.31 1110.8 1549.11 1125.03 A 55.3812 55.3812 0 0 1 1534.28 1166.46 C 1523.37 1178.07 1509.83 1182.51 1494.4 1183.28 C 1480.51 1183.69 1468.11 1180.99 1456.96 1172.24 A 52.8923 52.8923 0 0 1 1436.78 1136.52 C 1435.02 1121 1439.32 1104.1 1449.54 1092.12 C 1460.79 1078.94 1475.59 1073.84 1492.26 1072.4 z"/>
<path transform="translate(0,0)" fill="rgb(254,254,254)" d="M 1485.5 1088.16 C 1494.18 1087.42 1502.45 1087.36 1510.53 1091.14 C 1520.38 1095.74 1527.43 1104.62 1530.82 1114.83 A 42.1259 42.1259 0 0 1 1528.21 1148.12 C 1522.37 1159.02 1512.92 1164.51 1501.43 1167.78 C 1490.69 1169.12 1480.96 1168.54 1471.32 1162.97 A 37.9851 37.9851 0 0 1 1453.11 1138.35 C 1450.6 1127.18 1452.97 1114.61 1459.23 1105.05 C 1465.67 1095.21 1474.38 1090.64 1485.5 1088.16 z"/>
<path transform="translate(0,0)" fill="rgb(48,134,76)" d="M 1265.29 120.906 A 1859.5 1859.5 0 0 1 1360.74 121.94 C 1362.49 154.818 1367.84 187.591 1369.19 220.554 A 481.652 481.652 0 0 1 1449.45 238.766 C 1466.27 210.941 1481.67 182.5 1499.45 155.214 C 1511.64 161.29 1524.46 166.306 1536.9 171.869 L 1589.36 195.913 C 1578.82 225.056 1568.21 257.421 1560.19 287.292 C 1582.46 301.552 1605.36 315.269 1625.37 332.648 A 5558.22 5558.22 0 0 0 1700.61 275.035 C 1724.04 298.248 1747.96 321.21 1770.7 345.091 C 1751.7 370.118 1734.35 396.562 1715.83 421.973 C 1732.57 442.643 1745.5 464.797 1759.87 487.039 C 1789.97 475.736 1822.64 468.246 1853.58 459.326 C 1858.72 471.997 1865.23 484.258 1871.05 496.643 A 4099.21 4099.21 0 0 1 1894.6 548.816 C 1866.6 566.871 1836.78 581.923 1809.04 600.587 C 1817.61 625.492 1822.33 652.45 1826.23 678.445 C 1859.7 679.079 1893.19 682.105 1926.64 682.062 C 1930.85 715.929 1931.78 748.603 1928.12 782.604 C 1916.72 785.72 1904.44 786.913 1892.75 788.496 C 1872.53 791.234 1852.26 793.638 1832.23 797.562 C 1830.53 824.329 1825.44 851.938 1818.69 877.892 C 1850.58 890.544 1881.07 908.601 1913.04 922.005 C 1902.75 956.173 1888.94 989.881 1875.68 1023.01 C 1844.33 1009.06 1812.47 996.555 1780.93 983.079 C 1774.24 995.318 1767.78 1007.73 1760.05 1019.36 C 1767.43 1032.94 1774.37 1046.43 1780.7 1060.53 C 1813.13 1051.99 1844.86 1039.36 1876.97 1029.55 C 1890.23 1060.78 1901.54 1093.04 1913.94 1124.64 C 1881.38 1136.94 1849.18 1153.91 1817.81 1169.07 A 536.207 536.207 0 0 1 1830.24 1250.73 C 1860.48 1257.36 1894.61 1260.06 1925.52 1264.36 C 1925.64 1296.54 1923.59 1328.7 1924.16 1360.86 C 1890.97 1364.67 1857.33 1366.89 1824.36 1372.24 C 1821.08 1399.28 1813.62 1425.47 1806.69 1451.74 C 1819.97 1460.34 1834.69 1466.99 1848.8 1474.11 A 1010.45 1010.45 0 0 1 1892.91 1497.65 C 1880.93 1529.97 1866.04 1562.65 1849.12 1592.71 C 1820.1 1579.78 1790.56 1568.14 1761.2 1555.98 C 1749.08 1582.16 1730.2 1606.56 1712.03 1628.82 C 1730.9 1653.72 1752.58 1677.61 1772.94 1701.37 A 1034.35 1034.35 0 0 1 1702.66 1771.59 C 1677.47 1752.07 1652.02 1732.92 1627.14 1713 C 1604.87 1730.82 1582.29 1746.29 1558.09 1761.34 C 1567.39 1791.11 1578.17 1820.72 1587.94 1850.39 C 1560.28 1867.66 1528.74 1877.59 1500.46 1893.38 C 1484.81 1864.88 1467.75 1837.01 1451.58 1808.79 C 1425.05 1818.56 1397.77 1824.15 1369.91 1828.45 C 1369.71 1861.33 1363.53 1894.26 1361.87 1927.16 C 1329.95 1929.54 1297.35 1928.62 1265.32 1928.97 C 1259.5 1896.98 1258.29 1863.83 1250.58 1832.21 A 511.571 511.571 0 0 1 1169.93 1818.35 C 1155.26 1849.07 1142.27 1880.56 1127.04 1911.02 C 1096.71 1903.2 1066.54 1889.18 1037.32 1877.75 C 1044.8 1843.42 1047.84 1808.25 1053.5 1773.6 C 1042.87 1774.54 1032.22 1776.07 1021.62 1777.37 C 1004.03 1765.28 985.719 1754.26 968.398 1741.77 C 948.991 1727.77 930.203 1711.24 912.788 1694.83 C 882.667 1666.45 857.379 1633.98 835.156 1599.16 C 778.601 1510.56 749.575 1416.49 746.49 1311.36 L 788.774 1313.9 C 789.183 1420.11 829.123 1520.12 890.126 1605.69 A 502.485 502.485 0 0 0 934.063 1656.26 C 1025.06 1749.42 1153.04 1808.49 1283.9 1809.99 A 519.693 519.693 0 0 0 1649.54 1662.18 A 520.92 520.92 0 0 0 1806.91 1295.25 A 513.297 513.297 0 0 0 1662.17 933.909 C 1670.93 918.224 1678.13 901.855 1684.61 885.114 C 1722.17 788.121 1714.47 677.147 1672.56 582.92 A 425.437 425.437 0 0 0 1439.96 362.306 C 1371.47 336.204 1300.33 328.886 1228.17 341.913 C 1205.22 346.057 1183.03 351.614 1161.67 361.2 C 1146.78 346.129 1131.96 331.202 1115.99 317.27 C 1138.11 307.333 1161.66 298.882 1185.22 293.12 A 461.992 461.992 0 0 1 1533.5 346.426 C 1641.77 412.629 1725.81 523.496 1755.3 647.583 A 457.053 457.053 0 0 1 1739.36 910.964 C 1733.2 927.263 1726.44 944.092 1717.27 958.932 A 2359.4 2359.4 0 0 0 1746.34 997.34 C 1751.36 986.357 1757.28 975.788 1762.27 964.77 A 553.401 553.401 0 0 0 1795.35 870.915 C 1826.58 745.991 1803.82 604.164 1737.56 493.946 C 1666.97 376.51 1550.31 285.565 1416.64 252.421 A 490.864 490.864 0 0 0 1145.61 261.965 C 1122.76 269.538 1100.28 278.532 1079.62 290.977 C 1073.45 287.173 1067.39 283.403 1060.82 280.334 C 1055.52 255.389 1050.15 230.582 1043.76 205.886 C 1040.99 195.186 1038.56 184.141 1034.69 173.791 C 1065.02 162.558 1094.7 149.964 1125.4 139.672 C 1140.8 169.926 1157.1 199.718 1172.45 230.017 C 1196.46 223.283 1223.6 219.414 1248.49 217.798 C 1255.56 185.899 1259.65 153.097 1265.29 120.906 z"/>
<path transform="translate(0,0)" fill="rgb(39,117,177)" d="M 749.094 120.554 C 759.604 119.847 770.238 119.913 780.773 119.683 C 785.7 151.513 789.96 183.544 794.468 215.442 C 805.458 218.325 817.283 219.341 828.494 221.378 C 844.457 224.277 860.288 227.996 876.116 231.552 A 4747.54 4747.54 0 0 1 923.613 138.096 C 955.026 147.89 985.065 162.708 1016.4 172.997 C 1014.05 183.526 1010.08 193.737 1006.89 204.038 C 999.274 228.631 991.31 253.386 985.6 278.489 L 1003.5 289.988 C 1008.49 282.57 1013.75 275.31 1018.88 267.988 C 1034.32 277.532 1050.04 286.848 1065.05 297.058 C 1082.87 309.173 1098.6 322.578 1114.72 336.803 C 1207.49 418.686 1266.6 525.784 1289.84 647.23 L 1275.08 644.614 A 2808.75 2808.75 0 0 1 1278.12 773.021 C 1244.37 773.479 1209.38 780.354 1176.59 787.84 C 1174.11 752.518 1174.27 716.699 1169.99 681.554 C 1164.34 635.237 1145.73 584.872 1123.64 543.977 C 1070.17 444.962 979.553 361.977 870.277 329.759 C 760.748 297.467 645.836 312.592 545.945 366.791 C 443.966 422.124 367.483 520.502 334.882 631.285 C 303.696 737.264 310.963 854.193 364.564 952.023 A 451.605 451.605 0 0 0 587.136 1153.7 C 607.695 1162.32 629.481 1168.61 650.839 1174.88 C 649.41 1186.14 648.765 1197.33 648.357 1208.66 C 628.305 1204.42 608.908 1197.77 589.767 1190.54 C 531.239 1168.44 480.313 1137.61 433.816 1095.56 A 456.54 456.54 0 0 1 283.212 778.152 C 277.057 650.207 322.796 530.692 408.579 436.25 A 467.032 467.032 0 0 1 732.796 281.309 A 451.286 451.286 0 0 1 1057.08 398.402 C 1164.58 496.317 1215.51 617.232 1222.18 761.158 C 1235.14 759.738 1248.24 758.841 1261.12 756.804 C 1261.05 716.489 1254.58 672.927 1244.06 634.007 C 1204.46 487.48 1119.96 375.123 987.973 299.328 C 880.027 237.339 744.857 221.634 625.016 254.31 A 531.673 531.673 0 0 0 306.925 502.52 A 518.669 518.669 0 0 0 257.884 889.993 C 270.005 930.08 285.993 970.403 307.931 1006.19 C 320.564 1026.8 333.756 1047.48 348.746 1066.48 C 364.767 1086.79 382.88 1104.75 401.745 1122.4 C 474.033 1190.01 547.839 1227.7 643.639 1250.64 C 644.116 1258.53 643.33 1266.6 642.911 1274.49 A 466.383 466.383 0 0 1 589.401 1260.97 C 572.873 1289.5 553.408 1317.08 535.665 1344.92 C 506.699 1330.6 477.575 1315.98 448.087 1302.8 C 457.252 1272.11 464.951 1240.97 474.411 1210.39 C 420.221 1174.2 379.87 1140.69 337.321 1090.94 C 325.221 1076.79 315.033 1061.01 302.771 1047.03 L 301.917 1046.07 C 294.635 1055.79 289.521 1067.69 284.542 1078.74 C 225.724 1209.26 222.517 1345.3 273.358 1478.77 C 321.08 1604.05 423.272 1710.44 545.557 1765.05 C 655.974 1814.36 776.172 1825.22 892.444 1789.79 C 917.574 1782.14 941.059 1770.47 965.532 1761.09 C 980.042 1772.73 998.217 1781.53 1011.36 1794.47 C 1011.1 1794.38 1010.84 1794.28 1010.57 1794.19 C 1004.36 1792.05 999.099 1789 993.464 1785.67 C 997.812 1816.68 1008.33 1846.66 1013.7 1877.49 C 984.239 1890.15 953.754 1900.89 923.713 1912.09 C 908.325 1880.11 893.142 1847.62 876.652 1816.22 C 850.86 1821.97 825.252 1827.44 799.102 1831.37 C 792.045 1863.78 784.824 1897.51 780.496 1930.39 C 748.709 1929.91 716.905 1929.43 685.224 1926.7 C 681.371 1893.52 678.437 1859.73 676.629 1826.39 C 651.067 1824.38 622.09 1816.59 597.995 1807.8 C 582.691 1837.18 565.265 1865.69 548.716 1894.4 C 517.438 1884.25 486.742 1867.64 457.866 1852.04 C 466.01 1822.23 475.551 1789.43 486.685 1760.7 C 464.203 1744.91 441.154 1730.3 418.94 1714.04 C 395.075 1733.33 370.336 1751.55 346.454 1770.85 C 322.275 1754.88 294.247 1723.08 274.901 1701.31 C 281.408 1691.88 289.304 1683.08 296.48 1674.12 L 333.225 1627.76 C 314.412 1607.49 300.018 1583.64 285.648 1560.16 C 255.006 1567.55 224.951 1578.7 194.535 1587.13 C 177.35 1559.92 164.726 1527.67 152.738 1497.93 C 180.697 1480.1 209.453 1463.57 237.959 1446.63 C 231.686 1421.56 227.328 1396.7 222.468 1371.36 C 189.697 1368.5 156.889 1364.49 124.197 1360.79 C 123.705 1328.96 121.896 1297.18 120.52 1265.38 C 152.471 1261.92 183.841 1253.69 215.698 1249.54 C 218.653 1222.26 222.568 1195.02 229.314 1168.38 C 197.199 1156.28 167.221 1138.01 135.255 1125.37 C 140.067 1111.51 146.383 1097.99 151.739 1084.31 C 158.873 1066.09 164.861 1046.06 174.616 1029.13 A 1815.65 1815.65 0 0 0 270.866 1057.26 C 275.856 1044.98 282.927 1033.67 288.089 1021.43 C 280.134 1009.81 273.308 997.298 266.216 985.128 C 234.881 996.713 204.987 1014.24 173.167 1024.36 C 161.354 990.534 146.769 957.796 135.196 923.841 C 166.184 908.084 197.848 892.094 229.99 878.856 C 224.249 851.921 219.326 824.972 218.447 797.401 C 197.288 794.798 176.186 791.559 155.052 788.742 C 142.303 787.042 129.338 786.091 116.701 783.75 C 119.278 751.732 122.646 719.133 122.918 687.024 C 155.505 685.975 188.032 680.263 220.612 679.871 C 222.805 668.753 224.382 657.572 226.855 646.499 C 230.441 630.447 235.019 614.626 238.722 598.596 C 226.348 590.495 212.91 583.805 200.027 576.529 C 184.149 567.563 168.525 558.129 152.676 549.099 L 195.143 459.37 L 255.022 476.124 C 266.575 479.397 278.375 483.465 290.231 485.406 C 303.005 464.22 315.825 441.026 332.479 422.568 C 313.811 396.686 294.047 371.652 276.314 345.106 C 298.947 321.062 322.959 298.504 345.878 274.76 C 372.038 293.315 395.94 314.998 421.985 333.746 C 442.464 317.861 463.154 302.01 485.341 288.57 C 480.373 274.064 476.498 259.053 472.105 244.349 C 467.22 227.998 461.571 211.494 458.194 194.772 C 488.907 182.071 517.248 163.709 549.001 153.45 C 567.554 181.134 582.704 210.914 600.49 239.056 C 624.031 230.71 649.197 225.32 673.632 220.312 C 676.274 187.959 681.06 155.57 684.168 123.201 C 705.803 122.81 727.427 121 749.094 120.554 z"/>
</svg>