<svg version="1.1" xmlns="http://www.w3.org/2000/svg" style="display: block;" viewBox="0 0 2048 2048" width="1024" height="1024">
<path transform="translate(0,0)" fill="rgb(254,254,254)" d="M 0 0 L 2048 0 L 2048 2048 L 0 2048 L 0 0 z"/>
<path transform="translate(0,0)" fill="rgb(1,1,1)" d="M 1677.24 159.156 C 1677.65 159.108 1678.06 159.054 1678.47 159.011 C 1687.53 158.059 1696.06 159.231 1703.21 165.31 C 1711.49 172.345 1713.61 181.833 1714.55 192.084 C 1732.74 194.43 1754.68 195.043 1772.1 200.855 C 1779.65 203.373 1786.75 207.263 1790.23 214.782 C 1793.44 221.685 1792.84 230.014 1789.91 236.903 C 1786.09 245.884 1778.4 252.509 1768.85 254.651 C 1758.12 257.059 1729.91 252.549 1717.49 251.447 C 1690.02 249.011 1580.89 242.193 1561.89 249.465 C 1560.46 251.627 1560.73 252.105 1560.86 254.74 C 1563.17 258.224 1565.6 259.152 1569.73 259.485 C 1577.38 260.102 1585.25 259.146 1592.96 259.428 C 1610.88 260.083 1628.93 261.428 1646.8 263.01 C 1696.25 267.39 1744.62 276.237 1793.35 285.331 C 1808.24 288.109 1824.47 289.262 1838.88 293.55 C 1843.28 294.857 1847.37 296.446 1850.97 299.355 A 25.9184 25.9184 0 0 1 1860.69 317.388 A 29.725 29.725 0 0 1 1853.71 339.291 C 1848.52 345.362 1841.76 348.227 1833.97 349.187 C 1815.22 351.5 1777.13 345.059 1756.51 343.819 A 864.035 864.035 0 0 0 1647.85 345.208 L 1647.8 360.315 A 1288.4 1288.4 0 0 1 1732 361.59 C 1760.05 363.153 1787.64 367.673 1815.44 371.326 C 1828.84 373.086 1842.9 373.778 1856.07 376.626 C 1861.15 377.726 1867 379.377 1871.1 382.657 C 1877.64 387.879 1881.55 396.716 1882.04 404.964 C 1882.66 415.151 1879.27 423.957 1872.36 431.402 C 1867.13 437.026 1860.17 441.433 1852.47 442.546 C 1840.74 444.242 1827.27 439.762 1815.33 439.209 A 1088.42 1088.42 0 0 0 1721.68 439.009 L 1722.1 454.178 C 1756.48 454.973 1912.49 464.525 1936.75 481.732 C 1942.54 485.843 1946.62 491.722 1947.7 498.814 C 1948.82 506.17 1946.88 515.338 1942.27 521.267 C 1935.87 529.514 1926.78 531.087 1917.1 532.432 C 1926.86 542.005 1935.23 551.877 1942.06 563.791 C 1950.65 578.76 1962.2 620.756 1957.15 637.304 A 28.6089 28.6089 0 0 1 1942.58 654.401 A 27.5072 27.5072 0 0 1 1920.52 655.695 C 1900.98 648.344 1905.17 624.161 1903.34 607.513 C 1902.32 598.137 1900.04 588.992 1895.94 580.472 C 1888.86 565.771 1877.14 554.45 1861.51 549.141 C 1820.01 535.045 1763.18 567.945 1726.54 585.918 L 1650.65 623.66 C 1650.43 627.268 1650.14 631.053 1649.12 634.534 C 1646.96 641.893 1641.7 648.409 1634.82 651.832 C 1624.64 656.906 1615.49 654.697 1605.4 651.211 C 1577.97 667.367 1548.86 681.628 1520.59 696.303 C 1464.58 725.379 1408.39 753.481 1350.39 778.366 C 1365.82 792.937 1384.39 805.765 1401.21 818.754 A 7294.33 7294.33 0 0 1 1479.55 880.071 C 1501.19 897 1524.08 914.061 1541.22 935.783 C 1566.01 967.182 1574.96 1005.36 1570.26 1044.89 C 1567.41 1068.92 1558.31 1093.31 1544.14 1112.96 C 1525.45 1138.87 1496.77 1159.82 1472.02 1179.73 C 1431.68 1212.18 1390.07 1242.82 1349.29 1274.7 C 1359.09 1280.58 1370.04 1285.1 1380.41 1289.94 L 1440.34 1317.37 A 9786.54 9786.54 0 0 1 1606.3 1395.22 C 1611.14 1393.23 1616.22 1391.43 1621.46 1391.03 C 1629.88 1390.38 1638.08 1392.64 1644.31 1398.47 C 1652.13 1405.77 1653.51 1414.72 1653.78 1424.81 A 5941.03 5941.03 0 0 1 1738.62 1469.67 C 1758.44 1480.11 1778.69 1491.23 1799.83 1498.79 C 1815.97 1504.57 1835.66 1509.7 1852.95 1508.08 C 1885.24 1505.06 1899.97 1470.79 1904.22 1442.9 C 1906.24 1429.61 1902.84 1411 1912.08 1400.33 C 1916.27 1395.5 1922.35 1393.04 1928.66 1392.69 C 1935.97 1392.27 1943.5 1394.61 1948.94 1399.61 C 1954.11 1404.36 1956.89 1410.86 1957.12 1417.84 C 1958.42 1456.57 1945.24 1490.33 1918.63 1517.93 C 1925.12 1518.25 1931.31 1518.6 1936.97 1522.13 C 1943.63 1526.29 1948.24 1532.69 1949.82 1540.41 A 25.5441 25.5441 0 0 1 1945.99 1559.94 C 1942.31 1565.34 1936.89 1569.02 1930.85 1571.36 C 1910.17 1579.34 1857.92 1586.28 1833.56 1590.43 L 1840.34 1603.91 C 1851.75 1603.86 1860.75 1605.33 1869.5 1613.23 C 1877.38 1620.35 1883.97 1630.62 1884.27 1641.52 C 1884.47 1648.64 1881.67 1655.39 1876.69 1660.45 C 1872.85 1664.33 1868.07 1667.04 1862.88 1668.66 C 1852.91 1671.76 1841.24 1672.16 1830.85 1673.79 C 1789.08 1680.33 1747.26 1686.21 1704.99 1688.35 C 1684.99 1689.37 1665.01 1689.03 1644.99 1688.69 C 1645.06 1695.39 1644.93 1702.1 1644.88 1708.8 C 1684.22 1709.28 1722.76 1709.29 1761.99 1705.76 C 1785.13 1703.67 1808.84 1698.24 1831.97 1697.51 C 1841.05 1697.23 1848.84 1700.19 1855.41 1706.52 C 1860.5 1711.43 1863.48 1717.84 1863.32 1724.96 C 1863.14 1732.65 1859.45 1739.73 1853.66 1744.7 C 1849.98 1747.86 1845.39 1750.09 1840.76 1751.48 C 1823.32 1756.71 1803.54 1758.65 1785.57 1761.99 C 1739.92 1770.48 1687.37 1781.29 1641.51 1784.92 C 1613.92 1787.11 1587.68 1786.95 1560.11 1784.93 C 1560.76 1789.26 1561.15 1793.64 1561.62 1797.99 C 1608.29 1806.27 1667.39 1800.7 1714.58 1796.43 C 1730.6 1794.98 1747.93 1791.6 1763.95 1792.03 C 1770.03 1792.19 1775.54 1793.37 1780.75 1796.67 A 26.0294 26.0294 0 0 1 1792.2 1813.33 A 28.0762 28.0762 0 0 1 1787.76 1835.33 C 1784.43 1840.13 1779.78 1843.67 1774.43 1845.95 C 1764.22 1850.32 1728.31 1854.06 1714.85 1856.15 C 1714.75 1860.49 1714.71 1864.79 1713.39 1868.97 C 1710.87 1876.93 1705.57 1883.98 1697.86 1887.49 A 29.8127 29.8127 0 0 1 1673.88 1887.71 C 1663.09 1883.04 1658.78 1874.06 1654.49 1863.89 C 1616.61 1867.21 1578.8 1869.11 1540.93 1864.5 C 1387.43 1845.84 1281.81 1734.47 1180.27 1628.92 C 1160.98 1608.87 1142.33 1588.09 1122.2 1568.88 C 1089.09 1537.3 1054.46 1509.16 1016.27 1483.93 C 961.04 1525.21 914.569 1579.3 867.978 1629.73 A 1655.86 1655.86 0 0 1 763.496 1734 C 688.348 1801.89 602.594 1854.82 499.753 1864.51 C 463.805 1867.9 428.224 1866.27 392.228 1864.47 C 390.35 1868.62 388.574 1872.74 385.537 1876.19 C 379.216 1883.39 371.965 1885.53 362.646 1885.94 C 357.202 1885 351.903 1883.21 347.386 1879.96 C 338.743 1873.72 336.87 1864.15 335.05 1854.36 C 319.492 1851.94 283.792 1849.98 271.47 1844.45 C 264.701 1841.41 260.287 1835.95 257.714 1829.09 C 255.192 1822.36 256.235 1815.24 259.315 1808.87 C 263.081 1801.08 270.478 1794.15 279.082 1792.24 C 296.924 1788.28 325.272 1794.46 343.821 1796.33 C 365.197 1798.49 462.859 1803.74 479.604 1797.55 C 482.414 1796.51 484.442 1795.18 485.662 1792.34 L 484.609 1790.47 C 482.11 1789.46 387.098 1783.09 375.514 1781.65 C 336.035 1776.75 297.42 1769.17 258.417 1761.68 C 241.562 1758.44 222.538 1756.59 206.394 1750.86 C 201.001 1748.95 196.081 1746.47 192.633 1741.75 C 188.172 1735.63 187.152 1727.5 188.664 1720.21 C 190.855 1709.64 198.739 1699.89 209.472 1697.26 C 223.152 1693.9 263.614 1701.84 279.519 1703.66 C 303.154 1706.36 386.033 1711.02 403.763 1699.88 L 403.657 1696.19 C 400.894 1694.45 396.919 1693.83 393.744 1693.39 C 383.68 1692 372.871 1692.56 362.695 1692.05 A 967.799 967.799 0 0 1 303.788 1687.25 C 271.992 1683.78 240.213 1678.51 208.582 1673.73 C 193.902 1671.51 176.382 1668.88 167.243 1655.75 A 27.2996 27.2996 0 0 1 162.953 1634.16 C 165.462 1622.86 175.355 1611.38 186.201 1607.29 C 191.05 1605.46 195.962 1604.76 200.4 1601.93 C 200.302 1599.22 199.931 1596.14 201.318 1593.7 C 202.013 1592.47 202.718 1591.29 203.39 1590.05 L 204.192 1588.59 C 197.284 1581.41 125.16 1583.77 107.445 1568.48 A 27.3033 27.3033 0 0 1 98.0341 1548.26 C 97.8687 1539.85 101.463 1531.69 107.47 1525.85 C 115.58 1517.98 124.144 1516.65 134.876 1516.85 C 126.983 1510.53 120.364 1503.6 114.909 1495.06 C 104.794 1479.22 86.1604 1428.96 90.4277 1411.4 C 92.0845 1404.59 96.5845 1399.01 102.683 1395.63 A 28.3382 28.3382 0 0 1 124.896 1393.41 C 145.124 1399.88 140.619 1420.94 143.305 1437.27 C 145.588 1451.15 148.988 1464.81 155.593 1477.32 C 162.541 1490.48 172.78 1501.24 187.485 1505.43 C 232.441 1518.24 355.417 1447.02 397.844 1422.98 C 398.484 1419.33 399.197 1415.53 400.615 1412.09 C 403.669 1404.67 409.843 1398.15 417.294 1395.12 C 426.458 1391.39 434.591 1393.45 443.242 1397.36 C 483.156 1377.95 521.631 1355.92 562.046 1337.38 C 588.982 1325.02 616.107 1312.68 643.464 1301.29 C 662.737 1293.26 682.563 1286.31 701.474 1277.46 C 681.68 1261.99 660.991 1247.48 640.928 1232.34 A 1878.01 1878.01 0 0 1 559.012 1167.38 C 542.361 1153.63 523.959 1140.28 510.089 1123.69 C 482.634 1090.83 475.833 1050.02 479.586 1008.36 C 481.641 985.558 489.165 962.338 502.291 943.448 C 522.415 914.486 553.628 892.746 580.933 870.88 C 619.378 840.094 659.093 810.59 697.022 779.234 C 655.838 761.511 615.685 740.48 575.665 720.286 A 3470.57 3470.57 0 0 1 491.311 676.125 C 474.496 667.121 457.385 658.463 441.082 648.556 C 437.024 651.235 432.875 652.986 427.992 653.487 C 420.859 654.219 413.836 652.208 408.352 647.541 C 401.513 641.722 399.235 634.937 398.565 626.246 C 350.607 602.962 256.694 543.985 205.105 546.346 C 171.605 547.879 151.976 573.585 146.472 604.673 C 143.832 619.588 146.93 639.738 135.367 651.42 C 130.716 656.119 121.179 657.816 114.835 657.607 C 108.529 657.398 103.033 654.965 98.7639 650.294 C 92.1721 643.083 89.7104 633.584 90.035 623.998 A 130.887 130.887 0 0 1 131.706 532.712 C 122.892 531.465 115.698 530.282 108.806 524.124 A 28.0365 28.0365 0 0 1 99.2585 503.872 C 99.0759 496.757 101.914 490.335 106.886 485.305 C 111.396 480.742 117.084 477.669 123.172 475.77 C 137.554 471.284 154.615 470.351 169.586 468.285 C 198.532 464.292 227.441 460.124 256.606 458.068 C 281.821 456.29 307.154 456.247 332.421 456.15 C 331.288 451.276 330.708 446.222 329.956 441.274 C 296.906 439.44 263.897 437.739 230.773 438.486 C 221.202 438.702 212.38 443.672 202.745 443.255 C 193.102 442.839 183.627 437.835 177.15 430.803 A 35.7156 35.7156 0 0 1 167.667 404.869 C 168.047 396.354 172.199 387.6 178.661 382.001 C 182.172 378.959 185.86 377.635 190.333 376.63 C 199.963 374.466 210.739 374.501 220.614 373.209 C 259.582 368.107 298.606 363.63 337.907 362.18 C 360.254 361.355 383.025 361.128 405.329 362.833 L 405.002 348.922 C 365.038 340.611 306.502 342.11 265.482 345.213 C 250.471 346.349 234.927 349.651 219.907 349.339 C 213.191 349.2 206.185 348.295 200.531 344.359 C 193.923 339.76 188.993 330.492 187.906 322.616 C 187.034 316.293 188.824 310.424 192.748 305.428 C 197.036 299.967 203.081 296.578 209.502 294.223 C 224.675 288.657 242.812 287.05 258.729 283.924 C 309.371 273.981 358.759 264.33 410.354 260.389 A 802.048 802.048 0 0 1 457.021 258.141 C 467.021 258.018 477.359 258.844 487.284 257.571 C 488.56 255.908 488.573 255.747 488.674 253.645 C 481.556 242.036 372.743 246.732 357.544 248.02 C 335.824 249.861 308.321 255.666 287.431 255.438 C 280.661 255.364 274.556 254.51 268.794 250.728 C 262.184 246.389 257.785 239.445 256.207 231.746 C 254.841 225.085 255.397 218.009 259.433 212.339 C 271.214 195.785 317.023 195.414 336.502 192.586 C 336.673 188.836 336.947 185.021 338.19 181.45 C 340.749 174.099 345.906 167.839 353.006 164.503 A 28.7056 28.7056 0 0 1 375.71 163.908 C 385.752 167.92 390.582 175.625 394.689 185.045 C 420.316 184.149 446.103 182.69 471.742 183.504 C 610.222 187.901 708.219 257.648 803.847 351.905 A 2058.38 2058.38 0 0 1 879.301 429.659 L 1019.67 582.264 C 1068.47 537.358 1114.93 489.178 1160.29 440.818 C 1210.67 387.106 1260.98 331.826 1318.06 285.089 C 1422.9 199.245 1519.11 171.567 1653.82 185.012 C 1654.84 181.854 1655.94 178.581 1657.38 175.592 C 1661.59 166.837 1668.49 162.566 1677.24 159.156 z"/>
<path transform="translate(0,0)" fill="rgb(254,254,254)" d="M 666.873 937.333 C 667.804 937.521 669.193 937.754 670.033 938.147 C 672.6 939.349 673.008 940.48 673.998 942.905 C 673.647 946.373 672.557 948.112 670.587 950.946 C 669.205 950.659 667.228 950.425 665.998 949.761 C 663.655 948.497 663.48 947.486 662.731 945.148 C 663.439 941.698 664.639 940.02 666.873 937.333 z"/>
<path transform="translate(0,0)" fill="rgb(254,254,254)" d="M 695.704 1526.09 L 696.08 1526.3 C 695.334 1529.31 649.542 1574.5 644.823 1577.45 L 642.207 1576.55 C 640.062 1574.57 638.548 1573.24 637.601 1570.36 C 653.749 1555.27 677.587 1539.73 695.704 1526.09 z"/>
<path transform="translate(0,0)" fill="rgb(254,254,254)" d="M 1346.68 1519.6 C 1355.68 1523.87 1403.39 1561.65 1406.65 1570.11 L 1405.25 1572.82 C 1403.25 1574.34 1402.79 1575.1 1400.24 1575.42 C 1381.68 1558.29 1362.87 1538.98 1346.68 1519.6 z"/>
<path transform="translate(0,0)" fill="rgb(254,254,254)" d="M 801.014 485.927 C 803.338 485.866 805.914 485.92 808.176 486.517 C 812.087 487.55 815.572 490.354 817.6 493.822 A 14.2839 14.2839 0 0 1 819.107 504.97 C 817.536 510.641 814.136 513.195 809.131 515.8 A 28.2422 28.2422 0 0 1 802.704 515.504 C 798.785 514.866 795.344 512.343 793.129 509.087 C 790.726 505.557 790.085 501.148 791.098 497.031 C 792.542 491.165 796.013 488.833 801.014 485.927 z"/>
<path transform="translate(0,0)" fill="rgb(254,254,254)" d="M 1236.09 486.155 C 1238.35 486.014 1240.76 485.79 1243.01 486.096 C 1246.82 486.615 1250.74 489.344 1252.85 492.51 A 13.7331 13.7331 0 0 1 1254.68 503.363 C 1253.29 509.083 1249.9 511.987 1245.07 514.938 C 1242.25 515.204 1239.28 515.376 1236.49 514.791 C 1232.93 514.044 1229.38 511.372 1227.46 508.315 C 1225.43 505.072 1225.02 501.237 1225.93 497.556 C 1227.37 491.701 1231.1 489.029 1236.09 486.155 z"/>
<path transform="translate(0,0)" fill="rgb(254,254,254)" d="M 925.486 1037.95 C 935.186 1037.88 955.619 1035.58 963.882 1040.17 L 964.365 1042.05 C 963.708 1042.95 963.391 1043.49 962.488 1044.25 C 959.536 1046.76 953.996 1045.87 950.363 1045.75 L 950.227 1081.68 A 275.724 275.724 0 0 1 950.03 1095.52 C 948.845 1097.48 948.906 1097.41 946.712 1098.1 C 944.653 1097.62 944.428 1097.09 942.922 1095.7 C 939.941 1088.4 941.857 1055.62 941.9 1045.57 C 937.132 1045.28 932.342 1046.44 927.753 1044.83 C 925.497 1042.51 925.847 1041.11 925.486 1037.95 z"/>
<path transform="translate(0,0)" fill="rgb(254,254,254)" d="M 1052.94 1038.11 C 1062.29 1037.95 1083.02 1035.74 1090.78 1039.41 C 1092.76 1040.35 1092.07 1039.78 1092.93 1042.01 C 1092.35 1042.9 1092.09 1043.42 1091.22 1044.15 C 1088.13 1046.75 1082.17 1045.73 1078.39 1045.57 L 1078.56 1085.25 C 1078.58 1088.98 1079.41 1094.21 1077.55 1097.48 C 1075.29 1097.96 1074.17 1097.72 1071.93 1097.32 C 1068.39 1093.18 1070.15 1053.13 1070.11 1045.71 C 1064.97 1045.58 1059.65 1046.65 1054.74 1044.83 C 1052.47 1042.44 1053.02 1041.33 1052.94 1038.11 z"/>
<path transform="translate(0,0)" fill="rgb(254,254,254)" d="M 1592.79 1429.75 C 1595.5 1431.79 1597.61 1435.98 1599.54 1438.83 C 1573.53 1454.96 1549.47 1471.93 1525.53 1490.96 C 1524.08 1491.37 1522.81 1491.01 1521.34 1490.81 L 1520.68 1489.27 C 1526.63 1477.24 1578.72 1439.14 1592.79 1429.75 z"/>
<path transform="translate(0,0)" fill="rgb(254,254,254)" d="M 524.46 554.761 C 526.707 555.171 528.758 556.005 530.23 557.717 C 520.014 567.984 507.533 576.891 496.367 586.151 C 482.407 597.728 468.945 609.996 454.73 621.243 C 454.597 621.196 454.454 621.17 454.33 621.102 C 451.88 619.761 450.445 614.664 449.375 612.077 C 473.416 591.921 499.548 573.874 524.46 554.761 z"/>
<path transform="translate(0,0)" fill="rgb(254,254,254)" d="M 719.16 1651.04 C 721.964 1650.98 725.026 1650.88 727.759 1651.57 C 732.204 1652.71 736.093 1655.76 738.383 1659.71 C 740.652 1663.63 741.117 1668.58 739.74 1672.88 C 737.694 1679.26 733.693 1682.08 727.894 1684.9 C 725.68 1684.99 723.398 1685.09 721.208 1684.7 C 716.313 1683.83 711.569 1680.87 708.999 1676.57 C 706.583 1672.52 706.237 1667.74 707.604 1663.27 C 709.516 1657.02 713.737 1654.16 719.16 1651.04 z"/>
<path transform="translate(0,0)" fill="rgb(254,254,254)" d="M 801.953 1528.12 C 804.742 1527.83 807.776 1527.54 810.552 1528.05 C 815.536 1528.95 820.21 1532.62 822.699 1536.97 C 824.978 1540.95 825.638 1545.9 824.211 1550.29 C 822.278 1556.22 818.118 1559.43 812.699 1562.06 C 809.472 1562.6 805.8 1562.94 802.621 1562.02 C 798.243 1560.76 794.39 1557.55 792.281 1553.53 A 17.7164 17.7164 0 0 1 791.168 1540.04 C 793.054 1534 796.627 1531.14 801.953 1528.12 z"/>
<path transform="translate(0,0)" fill="rgb(254,254,254)" d="M 1240.16 1528.06 C 1242.57 1527.98 1245.23 1528.09 1247.58 1528.65 C 1252.44 1529.81 1257.02 1533.49 1259.4 1537.84 A 16.9257 16.9257 0 0 1 1260.67 1551.19 C 1258.57 1557.71 1253.77 1560.18 1247.93 1562.94 C 1245.02 1563.1 1241.65 1563.25 1238.83 1562.38 C 1234.4 1561.01 1230.38 1557.55 1228.3 1553.41 C 1226.16 1549.14 1225.99 1544.25 1227.58 1539.78 C 1229.82 1533.5 1234.37 1530.72 1240.16 1528.06 z"/>
<path transform="translate(0,0)" fill="rgb(254,254,254)" d="M 716.967 356.991 C 719.788 356.713 722.453 356.523 725.265 357.028 C 730.146 357.903 734.727 361.244 737.29 365.461 A 18.4182 18.4182 0 0 1 739.171 380.216 C 737.303 386.567 733.311 389.533 727.719 392.558 C 725.026 392.958 722.269 393.111 719.575 392.599 C 714.956 391.721 710.714 389.088 708.064 385.184 C 705.146 380.883 704.264 375.314 705.557 370.294 C 707.272 363.635 711.281 360.349 716.967 356.991 z"/>
<path transform="translate(0,0)" fill="rgb(254,254,254)" d="M 901.229 1037.11 C 906.56 1036.86 911.672 1036.84 916.383 1039.7 C 919.068 1041.33 921.65 1043.57 921.963 1046.93 C 922.223 1049.74 921.574 1050.59 919.891 1052.53 C 914.771 1053.17 914.057 1047.44 909.903 1045.15 C 907.541 1043.85 905.096 1043.64 902.519 1044.46 C 900.145 1045.21 897.953 1046.94 897.081 1049.33 C 892.184 1062.77 919.73 1064.28 923.99 1075.25 C 925.62 1079.45 925.014 1085.57 923.036 1089.57 C 920.545 1094.6 915.786 1096.66 910.727 1098.25 C 902.213 1098.48 897.02 1097.14 889.837 1092.23 C 886.945 1090.26 885.804 1088.81 885.139 1085.39 C 886.262 1083.05 886.284 1082.48 888.514 1081.25 C 894.114 1082.17 898.316 1088.47 903.515 1090.84 C 905.594 1091.78 908.161 1092.32 910.299 1091.29 C 913.239 1089.88 915.254 1086.8 916.188 1083.73 C 919.73 1072.11 893.804 1068.49 889.178 1058.22 C 887.534 1054.58 888.034 1050.59 889.414 1046.94 C 891.445 1041.57 896.311 1039.31 901.229 1037.11 z"/>
<path transform="translate(0,0)" fill="rgb(254,254,254)" d="M 1099 1037.79 C 1101.56 1037.74 1103.44 1037.79 1105.94 1038.49 C 1111.55 1049.53 1102.65 1072.22 1109.18 1085.25 C 1110.72 1088.33 1113.9 1091.82 1117.37 1092.6 C 1120.15 1093.23 1122.59 1092.03 1124.7 1090.31 C 1137.54 1079.84 1129.94 1053.9 1131.75 1039.08 C 1132.42 1038.67 1133.1 1038.21 1133.88 1038.01 C 1136.01 1037.5 1137.61 1038.35 1139.37 1039.38 L 1139.76 1042.75 C 1139.73 1056.28 1144.2 1082.35 1134.64 1092.87 C 1130.84 1097.06 1125.5 1098.6 1119.98 1098.74 C 1114.66 1098.86 1109.41 1097.59 1105.54 1093.75 C 1094.67 1083 1098.8 1052.06 1099 1037.79 z"/>
<path transform="translate(0,0)" fill="rgb(254,254,254)" d="M 1148.26 789.122 C 1151.78 788.89 1155.52 788.566 1158.95 789.546 C 1163.92 790.965 1168.46 794.88 1170.74 799.491 C 1172.76 803.563 1173.16 808.535 1171.6 812.826 C 1169.29 819.145 1164.71 822.078 1158.87 824.774 C 1155.32 825.038 1151.89 825.188 1148.43 824.208 C 1143.52 822.815 1139 819.345 1136.6 814.807 A 16.9365 16.9365 0 0 1 1135.51 801.294 C 1137.69 794.833 1142.37 791.877 1148.26 789.122 z"/>
<path transform="translate(0,0)" fill="rgb(254,254,254)" d="M 980.626 1037.87 C 982.874 1037.73 984.617 1037.72 986.811 1038.26 C 991.394 1043.38 1007.19 1088.98 1008.54 1096.84 C 1006.83 1098.37 1006.28 1098.47 1004.13 1099 C 998.632 1097.28 998.279 1090.01 995.165 1085.95 C 994.066 1084.52 991.965 1084.84 990.25 1084.68 L 973.773 1084.4 A 234.374 234.374 0 0 1 971.492 1091.78 C 970.287 1095.36 969.156 1097.18 965.739 1098.88 C 963.627 1098.32 963.258 1097.98 961.661 1096.46 C 966.588 1076.94 976.48 1058.67 980.426 1038.94 C 980.497 1038.58 980.56 1038.22 980.626 1037.87 z"/>
<path transform="translate(0,0)" fill="rgb(1,1,1)" d="M 984.418 1052.76 C 985.493 1053.93 985.184 1053.4 985.826 1054.9 C 987.79 1059.49 993.866 1071.81 991.798 1076.73 L 988.25 1077.19 C 986.067 1077.28 983.374 1077.65 981.234 1077.32 C 978.959 1076.97 978.753 1076.08 977.779 1074.27 C 977.326 1068.07 982.314 1058.77 984.418 1052.76 z"/>
<path transform="translate(0,0)" fill="rgb(254,254,254)" d="M 1150.32 1037.91 C 1160.88 1037.7 1172.73 1036.49 1181.39 1043.88 C 1184.85 1046.83 1187.34 1051 1187.57 1055.61 C 1187.81 1060.16 1185.68 1064.34 1182.46 1067.45 C 1175.55 1074.14 1168.33 1074.16 1159.36 1074.18 C 1158.58 1080.98 1161.08 1090.24 1157.95 1096.24 C 1155.59 1097.67 1155.2 1097.59 1152.41 1097.51 C 1148.41 1093.59 1150.5 1046.89 1150.32 1037.91 z"/>
<path transform="translate(0,0)" fill="rgb(1,1,1)" d="M 1158.83 1044.81 C 1162.43 1044.77 1166.37 1044.57 1169.84 1045.65 C 1173.28 1046.71 1176.86 1048.69 1178.12 1052.29 C 1179.55 1056.37 1178.04 1060.03 1176.4 1063.74 C 1170.54 1066.98 1165.33 1067.13 1158.79 1067.44 L 1158.83 1044.81 z"/>
<path transform="translate(0,0)" fill="rgb(254,254,254)" d="M 1015.39 1038.01 C 1023.33 1037.79 1031.79 1036.97 1039.54 1039.05 C 1043.87 1040.2 1048.23 1042.34 1050.44 1046.43 C 1052.74 1050.71 1052.13 1055.56 1050.59 1059.98 C 1048.37 1066.36 1045.11 1068.73 1039.22 1071.65 C 1042.39 1078.04 1051.29 1090.37 1051.27 1097.25 C 1049.43 1098.48 1048.76 1098.68 1046.42 1097.98 C 1043.2 1097.01 1042.81 1095.96 1041.22 1093.23 C 1038.3 1087.28 1035.44 1079.39 1031.37 1074.19 C 1029.88 1072.29 1028.74 1071.38 1026.34 1070.98 C 1020.29 1077.08 1027.3 1091.09 1021.73 1097.71 C 1019.43 1098.05 1018.18 1098 1015.97 1097.3 C 1013.93 1087.55 1015.49 1050.28 1015.39 1038.01 z"/>
<path transform="translate(0,0)" fill="rgb(1,1,1)" d="M 1023.71 1045 C 1028.09 1044.9 1033.3 1044.46 1037.48 1045.91 C 1039.89 1046.75 1042.09 1048.31 1043.12 1050.69 C 1044.92 1054.88 1043.06 1059.23 1041.44 1063.15 C 1036.06 1066.1 1029.46 1065.54 1023.52 1065.5 L 1023.71 1045 z"/>
<path transform="translate(0,0)" fill="rgb(254,254,254)" d="M 421.371 602.162 C 424.954 602.197 428.514 602.221 431.971 603.278 A 21.2931 21.2931 0 0 1 444.899 614.468 A 24.0791 24.0791 0 0 1 445.211 633.794 C 442.208 641.05 437.391 644.486 430.373 647.439 C 425.236 648.063 420.254 647.944 415.578 645.451 C 410.175 642.57 406.368 637.622 404.652 631.775 C 402.749 625.287 403.52 617.91 407.002 612.091 C 410.425 606.371 415.056 603.723 421.371 602.162 z"/>
<path transform="translate(0,0)" fill="rgb(254,254,254)" d="M 1617.24 603.076 C 1621.51 602.813 1626.22 602.678 1630.29 604.167 A 22.9951 22.9951 0 0 1 1643.31 616.353 A 23.212 23.212 0 0 1 1643.83 634.079 C 1640.73 642.025 1634.64 646.124 1627.1 649.38 C 1622.59 650.232 1618.74 650.049 1614.4 648.406 C 1608.65 646.227 1604.25 642.083 1601.82 636.415 A 24.7609 24.7609 0 0 1 1601.95 616.766 C 1605.15 609.36 1610.04 606.133 1617.24 603.076 z"/>
<path transform="translate(0,0)" fill="rgb(254,254,254)" d="M 520.853 1512.78 C 523.68 1514.6 526.28 1517.25 528.836 1519.45 C 485.997 1550.53 440.934 1578.13 391.298 1596.78 L 389.531 1597.17 C 386.874 1595.75 386.773 1595.68 385.489 1592.96 C 386.538 1588.68 388.782 1588.07 392.6 1586.39 C 438.323 1566.26 478.835 1539.49 520.853 1512.78 z"/>
<path transform="translate(0,0)" fill="rgb(254,254,254)" d="M 703.68 386.865 C 705.505 388.739 707.052 391.5 708.558 393.674 C 680.653 422.366 651.047 449.847 621.909 477.282 C 600.715 497.237 579.824 517.809 557.858 536.902 C 555.969 535.702 554.824 535.13 553.979 532.997 C 556.046 526.156 688.224 401.943 703.68 386.865 z"/>
<path transform="translate(0,0)" fill="rgb(254,254,254)" d="M 521.421 227.189 C 524.542 227.619 527.922 228.397 530.752 229.808 C 536.955 232.901 541.862 238.418 543.851 245.086 C 545.765 251.501 544.78 258.501 541.566 264.332 C 537.381 271.927 531.694 275.181 523.576 277.377 C 519.572 276.929 515.808 276.167 512.252 274.164 A 25.5937 25.5937 0 0 1 500.02 258.442 A 24.8845 24.8845 0 0 1 502.932 238.882 C 507.305 231.851 513.585 228.819 521.421 227.189 z"/>
<path transform="translate(0,0)" fill="rgb(254,254,254)" d="M 428.054 1672.25 C 432.211 1671.59 436.228 1671.4 440.33 1672.56 C 446.562 1674.34 451.736 1678.3 454.779 1684.05 C 458.042 1690.22 458.496 1697.78 456.24 1704.36 C 453.413 1712.6 448.039 1716.83 440.518 1720.62 C 436.191 1721.2 431.708 1721.61 427.477 1720.26 A 23.1021 23.1021 0 0 1 414.054 1708.73 A 27.2331 27.2331 0 0 1 412.419 1688.09 C 415.165 1679.81 420.469 1675.9 428.054 1672.25 z"/>
<path transform="translate(0,0)" fill="rgb(254,254,254)" d="M 1652.81 454.969 L 1654.68 455.116 C 1657.26 457.555 1658.43 462.291 1659.7 465.573 C 1610.41 487.334 1570.4 509.602 1525.4 538.968 L 1518.53 531.887 C 1558.4 500.766 1606.1 474.378 1652.81 454.969 z"/>
<path transform="translate(0,0)" fill="rgb(254,254,254)" d="M 356.638 1585.16 C 359.97 1585.11 362.835 1585.32 365.974 1586.55 C 372.648 1589.16 377.729 1594.03 380.279 1600.76 A 26.8069 26.8069 0 0 1 379.178 1622.25 C 375.376 1629.72 369.931 1632.85 362.156 1635.18 C 357.802 1635.18 353.771 1634.9 349.734 1633.11 A 24.3685 24.3685 0 0 1 336.413 1618.39 A 25.3331 25.3331 0 0 1 338.16 1598.72 C 342.351 1590.89 348.511 1587.73 356.638 1585.16 z"/>
<path transform="translate(0,0)" fill="rgb(254,254,254)" d="M 516.701 1769.1 C 519.79 1769.48 523.053 1770.14 525.93 1771.35 A 25.9632 25.9632 0 0 1 540.03 1786.13 A 26.0225 26.0225 0 0 1 539.029 1806.77 C 535.079 1814.65 529.379 1817.8 521.254 1820.27 C 517.563 1819.91 513.973 1819.31 510.545 1817.82 C 503.834 1814.91 498.463 1808.87 496.209 1801.93 C 494.058 1795.32 494.579 1788.02 498.026 1781.95 C 502.222 1774.55 508.839 1771.37 516.701 1769.1 z"/>
<path transform="translate(0,0)" fill="rgb(254,254,254)" d="M 358.183 167.221 C 364.236 166.598 369.225 166.159 374.872 168.8 C 381.126 171.724 385.867 176.821 388.196 183.341 C 390.405 189.527 390.245 196.705 387.276 202.615 C 383.877 209.381 378.509 212.528 371.623 215.007 C 367.582 215.578 363.583 215.711 359.582 214.711 A 24.7639 24.7639 0 0 1 343.903 202.71 A 24.6371 24.6371 0 0 1 342.318 183.126 C 345.185 174.811 350.556 170.942 358.183 167.221 z"/>
<path transform="translate(0,0)" fill="rgb(254,254,254)" d="M 1529.84 1773.09 C 1534.04 1773.16 1537.87 1773.72 1541.64 1775.68 C 1547.08 1778.5 1550.85 1783.36 1552.56 1789.2 C 1554.65 1796.32 1553.77 1804.27 1549.9 1810.63 C 1545.26 1818.24 1539.16 1821.19 1530.77 1823.34 C 1527.27 1822.94 1523.82 1822.34 1520.55 1820.96 C 1514.18 1818.26 1508.7 1813.53 1506.23 1806.94 A 22.0284 22.0284 0 0 1 1507.2 1789.4 C 1511.91 1779.9 1520.33 1776.14 1529.84 1773.09 z"/>
<path transform="translate(0,0)" fill="rgb(254,254,254)" d="M 431.512 329.123 C 437.028 328.995 441.33 329.122 446.208 331.921 A 25.3067 25.3067 0 0 1 458.043 347.942 C 459.669 354.659 458.631 362.085 454.899 367.946 C 451.034 374.017 445.879 377.105 438.989 378.626 C 433.966 378.596 428.894 378.535 424.268 376.319 A 23.7947 23.7947 0 0 1 412.129 362.564 C 409.863 355.97 410.326 348.38 413.653 342.225 C 417.648 334.833 423.742 331.533 431.512 329.123 z"/>
<path transform="translate(0,0)" fill="rgb(254,254,254)" d="M 363.849 1831.22 C 368.569 1831.47 372.836 1832.2 377.024 1834.52 C 382.567 1837.6 386.381 1842.53 388.037 1848.64 A 25.3551 25.3551 0 0 1 385.161 1868.22 C 380.728 1875.59 374.63 1878.85 366.555 1880.96 C 360.88 1880.94 356.179 1880.29 351.298 1877.13 C 345.911 1873.65 342.401 1868.22 341.066 1861.98 C 339.634 1855.29 340.785 1847.95 344.627 1842.24 C 349.431 1835.09 355.651 1832.7 363.849 1831.22 z"/>
<path transform="translate(0,0)" fill="rgb(254,254,254)" d="M 1620.26 1397.08 C 1625.3 1396.92 1629.36 1396.89 1633.99 1399.09 C 1640.18 1402.03 1644.66 1407.07 1646.86 1413.56 A 25.3867 25.3867 0 0 1 1645.25 1433.68 C 1641.4 1440.9 1635.61 1444.68 1628.04 1447.17 C 1624.09 1447.3 1620.17 1447.27 1616.4 1445.91 A 24.2544 24.2544 0 0 1 1602.09 1432.49 A 25.1174 25.1174 0 0 1 1602.19 1412.33 C 1605.89 1404.18 1612.27 1400.34 1620.26 1397.08 z"/>
<path transform="translate(0,0)" fill="rgb(254,254,254)" d="M 1493.42 551.758 C 1496.61 552.592 1498.96 555.027 1501.49 557.096 C 1449.17 594.703 1416.16 626.806 1352.33 648.31 C 1351.54 648.557 1350.72 648.827 1349.9 648.997 C 1348.34 649.325 1346.8 649.998 1345.49 648.918 C 1343.85 647.564 1342.86 645.496 1343.07 643.335 C 1343.59 637.762 1352.57 636.125 1357.07 634.476 A 363.189 363.189 0 0 0 1439.45 590.951 C 1457.64 578.116 1474.82 564.075 1493.42 551.758 z"/>
<path transform="translate(0,0)" fill="rgb(254,254,254)" d="M 356.527 418.112 C 360.782 418.038 364.544 418.138 368.527 419.801 A 24.8037 24.8037 0 0 1 382.358 434.227 C 384.757 440.667 384.685 448.071 381.644 454.287 C 377.664 462.426 371.099 465.915 362.819 468.62 C 357.975 468.501 353.889 468.041 349.487 465.882 C 343.268 462.831 338.516 457.531 336.456 450.876 A 25.257 25.257 0 0 1 338.682 430.789 C 342.775 423.677 348.881 420.309 356.527 418.112 z"/>
<path transform="translate(0,0)" fill="rgb(254,254,254)" d="M 1611.54 1672.11 C 1616.55 1672.11 1621.22 1672.54 1625.73 1674.91 A 23.1214 23.1214 0 0 1 1637.38 1689.06 A 27.3923 27.3923 0 0 1 1634.75 1710.58 C 1630.45 1717.81 1624.46 1720.87 1616.58 1722.97 C 1611.14 1723 1606.62 1722.62 1601.79 1719.9 A 23.2757 23.2757 0 0 1 1590.62 1705.4 A 26.9992 26.9992 0 0 1 1593.51 1685.08 C 1597.79 1677.8 1603.6 1674.35 1611.54 1672.11 z"/>
<path transform="translate(0,0)" fill="rgb(254,254,254)" d="M 1529.38 225.348 C 1534.37 225.837 1538.74 226.79 1543.03 229.536 A 23.5206 23.5206 0 0 1 1553.43 244.565 C 1554.88 251.35 1553.74 258.747 1549.9 264.574 C 1544.99 272.03 1538.68 274.475 1530.36 276.279 C 1528.22 275.952 1526.06 275.624 1523.95 275.115 C 1514.68 272.875 1509.65 266.833 1505.08 258.894 C 1504.5 250.871 1504.85 242.566 1509.61 235.742 C 1514.35 228.949 1521.61 226.681 1529.38 225.348 z"/>
<path transform="translate(0,0)" fill="rgb(254,254,254)" d="M 1683.7 163.318 C 1688.79 163.649 1692.94 164.529 1697.28 167.298 C 1703.19 171.076 1707.25 176.73 1708.58 183.676 A 26.4725 26.4725 0 0 1 1704.46 203.511 C 1699.49 210.754 1693.58 213.217 1685.25 214.957 C 1680.61 214.607 1676.05 213.517 1671.97 211.219 C 1666.06 207.892 1661.99 202.078 1660.47 195.515 C 1658.8 188.297 1660.03 180.276 1664.31 174.162 C 1669.25 167.089 1675.42 164.619 1683.7 163.318 z"/>
<path transform="translate(0,0)" fill="rgb(254,254,254)" d="M 1611.57 326.181 C 1615.53 326.233 1619.26 326.405 1622.97 327.979 C 1629.94 330.941 1635.01 336.966 1637.41 344.067 C 1639.63 350.623 1639.37 358.015 1636.15 364.199 C 1632.2 371.787 1626.13 374.933 1618.26 377.419 C 1612.63 377.36 1607.73 377.148 1602.7 374.347 A 26.3989 26.3989 0 0 1 1589.98 358.215 A 24.6245 24.6245 0 0 1 1592.8 338.856 C 1597.06 331.861 1603.84 328.106 1611.57 326.181 z"/>
<path transform="translate(0,0)" fill="rgb(254,254,254)" d="M 1431.65 1591.33 C 1441.6 1592.74 1475.95 1625.11 1486.28 1633 C 1495.36 1639.95 1505.03 1646.54 1514.78 1652.5 C 1537.45 1666.35 1561.18 1674.54 1586.28 1682.66 L 1583.17 1693.25 A 448.291 448.291 0 0 1 1574.72 1690.79 C 1525.79 1675.98 1485.5 1651.01 1448.97 1615.48 C 1443.33 1609.99 1434.45 1603.19 1431.01 1596.01 C 1430 1593.89 1430.85 1593.39 1431.65 1591.33 z"/>
<path transform="translate(0,0)" fill="rgb(254,254,254)" d="M 1683.87 1833.23 C 1688.02 1833.5 1691.74 1833.96 1695.56 1835.71 C 1701.85 1838.62 1706.44 1843.57 1708.63 1850.17 A 26.5922 26.5922 0 0 1 1707.14 1870.51 C 1702.86 1878.87 1696.52 1882.53 1687.83 1885.19 C 1682.9 1885.18 1678.43 1884.54 1674 1882.22 A 26.2823 26.2823 0 0 1 1660.61 1865.41 A 24.9445 24.9445 0 0 1 1663.46 1845.85 C 1668.19 1838.23 1675.39 1834.97 1683.87 1833.23 z"/>
<path transform="translate(0,0)" fill="rgb(254,254,254)" d="M 1685.48 421.203 C 1690.05 421.015 1694.22 421.196 1698.53 422.837 A 23.6991 23.6991 0 0 1 1712.4 436.69 A 26.6964 26.6964 0 0 1 1711.92 456.899 C 1708.08 465.473 1701.46 469.389 1693.01 472.475 C 1687.75 472.652 1683.1 472.377 1678.25 470.075 A 25.0483 25.0483 0 0 1 1665.13 454.955 A 26.1656 26.1656 0 0 1 1667 434.761 C 1671.15 427.093 1677.42 423.678 1685.48 421.203 z"/>
<path transform="translate(0,0)" fill="rgb(254,254,254)" d="M 1837.96 1610.29 C 1842.62 1609.73 1847.73 1609.19 1852.32 1610.36 C 1859.5 1612.19 1865.84 1616.89 1869.36 1623.45 A 24.5817 24.5817 0 0 1 1871.06 1642.93 C 1868.13 1651.52 1861.44 1656.03 1853.56 1659.66 C 1848.14 1661.12 1843.05 1661.3 1837.71 1659.3 C 1830.66 1656.66 1825.11 1650.88 1822.33 1643.93 C 1819.73 1637.43 1819.65 1630.11 1822.55 1623.7 C 1825.76 1616.62 1830.97 1613.13 1837.96 1610.29 z"/>
<path transform="translate(0,0)" fill="rgb(254,254,254)" d="M 1683.4 1582.21 C 1689.32 1581.78 1694.84 1581.76 1700.21 1584.65 C 1706.28 1587.91 1710.52 1593.43 1712.35 1600.05 C 1714.35 1607.3 1713.41 1615.41 1709.47 1621.87 C 1705.16 1628.95 1699.21 1632.03 1691.38 1633.92 C 1686.62 1633.98 1681.95 1633.8 1677.5 1631.9 A 25.2323 25.2323 0 0 1 1663.71 1617.34 A 26.375 26.375 0 0 1 1664.73 1597.02 C 1668.7 1588.8 1675.03 1585 1683.4 1582.21 z"/>
<path transform="translate(0,0)" fill="rgb(254,254,254)" d="M 1821.63 1591.48 L 1823.83 1591.7 C 1825.2 1597.78 1825.71 1602.5 1829.17 1607.92 L 1822 1614.47 C 1808.72 1613.48 1795.19 1614.02 1781.87 1613.97 A 1082.47 1082.47 0 0 1 1727.25 1612.36 L 1718.28 1611.79 C 1717.69 1605.82 1716.83 1599.97 1715.79 1594.06 C 1751.43 1594.88 1786.11 1594.71 1821.63 1591.48 z"/>
<path transform="translate(0,0)" fill="rgb(254,254,254)" d="M 197.388 1609.25 C 202.433 1608.84 207.727 1609.32 212.444 1611.25 A 23.6005 23.6005 0 0 1 225.93 1625.27 A 26.2496 26.2496 0 0 1 224.59 1645.72 C 220.292 1654.38 213.297 1658.72 204.516 1661.82 C 199.565 1662.1 194.458 1660.96 190 1658.82 A 26.3675 26.3675 0 0 1 176.612 1643.79 A 25.7269 25.7269 0 0 1 177.963 1623.55 C 182.207 1615.28 188.879 1611.86 197.388 1609.25 z"/>
<path transform="translate(0,0)" fill="rgb(254,254,254)" d="M 1841.74 381.088 C 1847.52 380.769 1852.86 381.553 1858.07 384.211 A 25.2384 25.2384 0 0 1 1870.75 399.28 A 26.2708 26.2708 0 0 1 1868.69 419.316 C 1864.56 427.079 1857.83 431.494 1849.61 433.969 C 1844.38 434.291 1839.49 433.694 1834.69 431.546 C 1828.24 428.668 1823.13 423.546 1820.84 416.809 C 1818.55 410.094 1819.34 402.45 1822.46 396.133 C 1826.67 387.623 1832.98 383.846 1841.74 381.088 z"/>
<path transform="translate(0,0)" fill="rgb(254,254,254)" d="M 201.723 380.062 C 207.197 379.81 212.578 380.574 217.405 383.335 C 223.653 386.909 227.886 393.064 229.67 399.971 C 231.562 407.298 230.775 415.347 226.737 421.835 C 222.328 428.919 216.175 431.978 208.291 433.815 C 203.868 434.013 198.991 433.367 194.974 431.445 C 187.774 428.001 182.443 421.993 180.002 414.386 C 177.902 407.841 178.219 400.614 181.564 394.534 C 186.026 386.421 193.165 382.672 201.723 380.062 z"/>
<path transform="translate(0,0)" fill="rgb(254,254,254)" d="M 615.019 1594.99 C 617.219 1596.75 619.273 1598.86 621.346 1600.79 C 576.431 1645.18 529.793 1675.02 468.25 1691.29 L 466.038 1691.52 C 464.154 1689.31 463.935 1686.89 463.269 1684.12 C 519.135 1660.97 567.199 1632.08 615.019 1594.99 z"/>
<path transform="translate(0,0)" fill="rgb(254,254,254)" d="M 464.395 354.14 A 466.917 466.917 0 0 1 481.541 359.32 C 527.382 374.449 565.262 400.62 602.7 430.295 C 608.426 434.833 619.322 441.477 622.494 447.75 L 617.737 452.902 C 616.866 453.625 617.338 453.301 616.053 453.957 C 613.132 455.448 602.118 445.452 599.578 443.395 C 557.719 409.505 513.895 382.53 462.518 365.749 L 464.395 354.14 z"/>
<path transform="translate(0,0)" fill="rgb(254,254,254)" d="M 1364.73 1659.71 C 1385.87 1678.43 1405.18 1699.88 1424.86 1720.13 C 1437.11 1732.73 1449.19 1745.74 1463.77 1755.72 C 1476.85 1764.67 1491.68 1770.98 1505.99 1777.65 L 1500.64 1786.57 A 181.251 181.251 0 0 1 1451.18 1761.7 C 1423.81 1742.01 1380.31 1693.65 1357.3 1667.37 C 1359.6 1664.68 1362.23 1662.22 1364.73 1659.71 z"/>
<path transform="translate(0,0)" fill="rgb(254,254,254)" d="M 215.742 1589.01 C 253.415 1594.18 292.182 1595.1 330.163 1596.49 C 328.853 1601.03 328.485 1605.64 326.305 1609.9 L 323.841 1610.56 C 293.279 1615.27 261.877 1616.91 230.978 1616.71 C 226.478 1611.36 217.506 1606.82 214.701 1600.87 C 212.849 1596.95 214.512 1592.83 215.742 1589.01 z"/>
<path transform="translate(0,0)" fill="rgb(254,254,254)" d="M 550.523 258.242 C 597.861 277.853 634.558 318.489 668.436 355.596 C 676.018 363.9 685.093 371.765 691.612 380.901 C 690.937 383.998 689.148 385.135 686.964 387.375 L 685.924 388.144 C 680.707 387.945 667.613 371.832 663.3 367.46 C 627.685 331.364 594.136 295.468 548.987 271.122 C 549.734 266.869 550.076 262.535 550.523 258.242 z"/>
<path transform="translate(0,0)" fill="rgb(254,254,254)" d="M 683.946 1659.61 C 687.988 1661.06 691.873 1665.48 695.025 1668.34 C 651.737 1711.41 614.084 1756.96 557.402 1783 C 554.676 1784.3 551.898 1786.07 548.784 1785.12 C 546.574 1784.45 546.533 1783.42 545.392 1781.57 C 548.74 1774.61 579.37 1758.66 587.711 1751.85 C 622.1 1723.8 652.707 1691.05 683.946 1659.61 z"/>
<path transform="translate(0,0)" fill="rgb(254,254,254)" d="M 1494.02 261.955 L 1495.44 261.944 C 1498.49 263.881 1500.33 268.362 1502.1 271.457 C 1446.12 299.195 1404.61 345.682 1361.62 389.789 C 1357.94 387.352 1354.87 384.285 1351.67 381.276 C 1360.65 371.352 1371.18 362.517 1380.42 352.729 C 1417.31 313.631 1442.09 282.957 1494.02 261.955 z"/>
<path transform="translate(0,0)" fill="rgb(254,254,254)" d="M 1578.05 357.211 L 1580 357.233 C 1582.83 360.63 1584.1 366.121 1585.59 370.281 C 1543.55 382.705 1506.18 399.893 1471.66 427.081 C 1459.35 436.769 1447.78 447.358 1435.52 457.112 A 829.889 829.889 0 0 1 1426.47 449.105 C 1469.18 406.98 1518.77 371.04 1578.05 357.211 z"/>
<path transform="translate(0,0)" fill="rgb(254,254,254)" d="M 1488.47 1511.75 C 1490.82 1513.09 1492.45 1514.41 1494.4 1516.24 C 1490.05 1523.2 1437.1 1571.35 1427.44 1580.53 A 3730.64 3730.64 0 0 0 1344.31 1663.33 C 1344.55 1667.23 1345.18 1671.83 1343.79 1675.58 C 1342.49 1679.11 1340.02 1682.55 1336.43 1683.98 C 1331.28 1686.03 1325.41 1684.38 1320.63 1682.16 C 1319.2 1680.68 1317.7 1679.17 1316.48 1677.51 C 1313.7 1673.7 1312.15 1668.4 1312.95 1663.71 C 1314.14 1656.68 1318.49 1653.24 1324.12 1649.49 C 1327.63 1651.64 1331.25 1653.65 1334.81 1655.72 C 1350.55 1639.01 1367.99 1623.38 1384.65 1607.57 A 4212.95 4212.95 0 0 1 1488.47 1511.75 z"/>
<path transform="translate(0,0)" fill="rgb(254,254,254)" d="M 460.004 632.2 C 471.806 637.095 483.278 644.431 494.447 650.657 A 2096.2 2096.2 0 0 0 551.991 681.867 C 578.37 695.531 604.938 709.262 631.798 721.957 C 654.832 732.844 678.275 742.758 701.179 753.942 C 701.359 757.801 702.383 763.489 699.947 766.661 L 697.325 766.151 A 5052.98 5052.98 0 0 1 540.316 687.474 C 511.075 672.215 481.364 657.286 452.873 640.662 L 460.004 632.2 z"/>
<path transform="translate(0,0)" fill="rgb(254,254,254)" d="M 752.582 1405.41 C 773.844 1403.18 796.173 1405.35 817.546 1405.77 C 813.4 1409.24 809.488 1413.05 805.507 1416.71 C 731.333 1399.62 655.996 1440.91 594.164 1477.05 C 581.343 1485.01 568.603 1493.21 555.401 1500.53 L 546.578 1492.5 C 607.633 1449.45 677.107 1412.24 752.582 1405.41 z"/>
<path transform="translate(0,0)" fill="rgb(254,254,254)" d="M 1337 1282.03 C 1368.84 1299.72 1402.4 1314.1 1435.54 1329.12 C 1489.43 1353.56 1543.9 1377.73 1596.67 1404.5 C 1595.86 1407.93 1595.28 1411.48 1593.37 1414.49 C 1590.45 1415.31 1589.38 1414.47 1586.58 1413.46 C 1498 1374.39 1414.49 1322.41 1321.85 1293.01 C 1326.68 1289.06 1331.88 1285.59 1337 1282.03 z"/>
<path transform="translate(0,0)" fill="rgb(254,254,254)" d="M 1587.48 633.979 C 1591 635.852 1593.62 639.066 1596.35 641.919 C 1577.02 655.369 1553.57 664.871 1532.69 675.836 C 1471.96 707.736 1411.44 738.361 1348.63 766.022 C 1346.38 767.052 1347.57 766.711 1345.05 767.019 C 1342.82 763.568 1343.95 756.334 1344.08 752.192 A 2236.43 2236.43 0 0 0 1587.48 633.979 z"/>
<path transform="translate(0,0)" fill="rgb(254,254,254)" d="M 1322.92 364.106 C 1326.25 363.696 1330.49 363.307 1333.7 364.486 C 1348.88 370.068 1340.29 383.569 1343.87 389.644 C 1348.98 398.327 1376.62 420.203 1385.64 428.248 L 1524.25 552.857 C 1545.58 572.003 1568.3 590.221 1588.88 610.125 C 1590.8 611.984 1592.68 614.382 1593.64 616.904 C 1594.53 619.246 1594.29 620.318 1593.18 622.451 C 1590.24 622.471 1589.69 621.536 1587.4 619.802 C 1570.88 604.23 1553.56 589.584 1536.72 574.363 L 1428.74 476.834 A 5873.43 5873.43 0 0 1 1336.33 394.097 C 1332.7 395.391 1329.02 396.404 1325.13 395.895 C 1320.67 395.311 1316.38 392.973 1313.79 389.24 C 1311.36 385.722 1310.8 381.358 1311.82 377.252 C 1313.39 370.961 1317.6 367.344 1322.92 364.106 z"/>
<path transform="translate(0,0)" fill="rgb(254,254,254)" d="M 717.572 1284.97 C 721.363 1286.23 725.156 1290.66 728.181 1293.35 C 707.955 1302.58 686.324 1309.76 665.623 1317.99 A 1275.01 1275.01 0 0 0 599.377 1347.16 A 1342.46 1342.46 0 0 0 524.188 1384.2 C 504.272 1394.7 484.687 1406.09 464.316 1415.69 L 462.046 1415.83 C 458.382 1413.3 456.261 1409.31 453.845 1405.65 A 1951.7 1951.7 0 0 1 717.572 1284.97 z"/>
<path transform="translate(0,0)" fill="rgb(254,254,254)" d="M 390.363 453.194 A 649.955 649.955 0 0 1 506.743 514.98 C 534.483 533.685 560.943 554.288 587.719 574.328 C 606.66 588.505 625.363 603.227 646.43 614.184 C 664.168 623.408 682.699 629.805 702.134 634.346 C 702.172 638.77 702.941 645.318 700.643 649.053 C 676.036 641.589 648.531 629.369 627.007 615.37 C 595.098 594.616 566.654 568.419 535.096 547.108 C 504.124 526.193 472.803 505.982 439.658 488.652 C 422.304 479.578 404.191 471.742 386.391 463.58 L 390.363 453.194 z"/>
<path transform="translate(0,0)" fill="rgb(254,254,254)" d="M 1139.02 851.832 C 1148.73 851.735 1158.45 851.917 1168.16 851.974 C 1169.45 904.12 1168.18 956.619 1168.16 1008.8 L 1139.55 1008.77 L 1139.02 851.832 z"/>
<path transform="translate(0,0)" fill="rgb(254,254,254)" d="M 423.431 1399.08 A 27.4608 27.4608 0 0 1 435.506 1401.34 C 443.364 1404.74 445.846 1411.7 448.73 1419.15 C 449.573 1421.33 450.322 1423.95 451.795 1425.8 C 455.299 1430.21 464.847 1435.83 469.736 1439.92 C 482.812 1450.87 495.353 1462.72 508.192 1473.98 L 623.675 1575.33 C 651.989 1600.08 683.601 1626.45 709.623 1653.35 L 704.206 1660.76 L 688.401 1646.06 C 643.912 1606.15 600.167 1565.49 555.004 1526.33 A 3743.01 3743.01 0 0 1 482.141 1462.35 C 471.307 1452.61 458.26 1442.62 449.377 1431.06 C 445.964 1436.32 442.217 1441.61 436.573 1444.63 C 431.623 1447.28 426.235 1447.98 420.876 1446.14 C 414.351 1443.91 409.301 1438.67 406.612 1432.39 C 404.029 1426.36 403.78 1419.36 406.404 1413.3 C 409.74 1405.59 415.909 1401.96 423.431 1399.08 z"/>
<path transform="translate(0,0)" fill="rgb(254,254,254)" d="M 1235.66 1405.05 C 1265.59 1404.53 1295.53 1404.26 1325.17 1409.13 C 1393.55 1420.38 1461.76 1462.55 1517.22 1502.35 C 1571.72 1541.47 1600.95 1563.42 1666.79 1584.94 L 1659.83 1595.4 L 1658.69 1596.56 C 1652.83 1596.28 1646.05 1593.02 1640.52 1590.85 C 1624.81 1584.7 1609.38 1577.38 1595.03 1568.47 C 1582.72 1560.82 1571.33 1551.05 1559.69 1542.39 C 1546.92 1532.89 1533.65 1524.21 1520.26 1515.61 C 1473.26 1485.4 1381.67 1430.99 1328.4 1417.79 C 1300.78 1410.95 1273.94 1409.98 1246.16 1416.02 C 1242.27 1412.73 1239.02 1408.87 1235.66 1405.05 z"/>
<path transform="translate(0,0)" fill="rgb(254,254,254)" d="M 111.114 1403.17 C 114.766 1402.95 118.972 1402.72 122.498 1403.84 C 126.029 1404.95 128.482 1407.53 129.807 1410.94 C 132.943 1419.01 132.548 1429.74 133.334 1438.33 C 134.665 1452.89 138.768 1468.1 145.227 1481.24 C 152.975 1496.99 165.732 1509.99 182.694 1515.48 C 235.549 1532.58 348.282 1462.04 397.045 1437.06 C 399.424 1440.27 403.244 1443.16 402.852 1447.3 L 399.508 1449.77 C 382.55 1460.24 364.846 1469.88 347.278 1479.27 C 293.465 1508.05 231.157 1536.79 168.867 1521.98 C 148.621 1517.17 133.102 1505.36 122.426 1487.51 C 113.788 1473.08 96.3888 1427.78 101.079 1412.38 C 102.63 1407.29 106.634 1405.36 111.114 1403.17 z"/>
<path transform="translate(0,0)" fill="rgb(254,254,254)" d="M 1924.71 1404.09 C 1928.9 1403.47 1933.67 1403.26 1937.62 1405.03 C 1941.33 1406.7 1944.03 1409.99 1945.34 1413.81 C 1951.18 1430.81 1939.29 1469.01 1931.06 1484.66 C 1921.66 1502.55 1907.63 1514.57 1888.21 1520.43 C 1871.31 1525.53 1832.17 1529.78 1814.97 1527.09 C 1767.96 1519.73 1696.94 1476.78 1653.43 1453.75 C 1648.96 1451.64 1644.92 1448.95 1640.78 1446.28 L 1649.66 1435.65 A 5595.58 5595.58 0 0 0 1732.29 1480.43 C 1751.08 1490.3 1770.25 1500.68 1790.27 1507.84 A 192.107 192.107 0 0 0 1830.76 1517.42 C 1850.22 1519.9 1868.5 1518.55 1884.47 1505.92 C 1911.95 1484.21 1912.75 1450.11 1916.84 1418.38 C 1917.65 1412.15 1918.82 1408.56 1923.88 1404.7 C 1924.15 1404.49 1924.43 1404.29 1924.71 1404.09 z"/>
<path transform="translate(0,0)" fill="rgb(254,254,254)" d="M 1841.71 519.437 C 1857.82 518.593 1875.79 521.769 1890.49 528.441 C 1912.91 538.612 1929.69 559.195 1938.27 581.948 C 1943.56 595.981 1950.98 622.967 1944.02 637.05 C 1942.25 640.638 1939.32 643.585 1935.4 644.681 C 1931.66 645.727 1927.08 645.216 1923.7 643.301 C 1920.67 641.59 1917.58 638.159 1916.63 634.786 C 1914.98 628.926 1915.63 621.223 1915.29 615.107 A 115.143 115.143 0 0 0 1910.54 587.606 C 1904.76 568.381 1891.85 551.52 1873.99 542.168 C 1848.35 528.74 1819.26 534.047 1792.97 542.484 C 1742.76 561.296 1694.79 588.098 1646.83 611.978 L 1640.02 602.232 C 1655.02 592.58 1672.82 585.313 1688.79 577.273 C 1736.72 553.136 1787.16 522.996 1841.71 519.437 z"/>
<path transform="translate(0,0)" fill="rgb(254,254,254)" d="M 191.528 519.392 C 238.879 513.029 305.489 549.92 347.099 571.603 A 3041.45 3041.45 0 0 1 406.145 602.909 L 400.433 613.641 C 386.274 607.268 372.505 599.194 358.742 591.946 C 329.356 576.472 299.956 561.082 269.282 548.28 C 245.229 538.482 214.709 529.441 188.812 536.773 C 158.924 545.235 138.684 574.694 134.481 604.563 C 132.985 615.198 134.869 629.16 129.102 638.629 C 127.042 642.012 123.836 644.491 119.894 645.191 C 115.639 645.946 111.321 644.542 107.915 641.992 C 104.195 639.207 101.546 635.1 100.931 630.469 C 100.035 623.718 101.886 616.638 103.218 610.06 C 107.582 588.516 113.297 570.237 127.508 552.943 C 144.737 531.976 164.81 521.929 191.528 519.392 z"/>
<path transform="translate(0,0)" fill="rgb(254,254,254)" d="M 1071.19 1279.12 A 10600.1 10600.1 0 0 0 1319.43 1279.96 A 872.526 872.526 0 0 1 1269.61 1315.25 A 1814.56 1814.56 0 0 1 1188.13 1364.17 A 1626.61 1626.61 0 0 0 1115.84 1310.18 C 1101.1 1299.83 1085.12 1290.5 1071.19 1279.12 z"/>
<path transform="translate(0,0)" fill="rgb(254,254,254)" d="M 1273.66 1424.43 C 1322.55 1419.53 1370.33 1445.84 1412.05 1467.83 C 1434.7 1479.77 1457.02 1491.95 1479.09 1504.91 C 1466.24 1516.56 1453.17 1527.9 1440.51 1539.77 C 1432.47 1547.01 1424.72 1554.66 1416.87 1562.11 C 1397.24 1542.25 1374.38 1524.96 1351.17 1509.51 C 1338.7 1501.22 1325.47 1493.73 1313.69 1484.48 C 1304.97 1477.64 1297.54 1468.62 1289.92 1460.58 A 1069.02 1069.02 0 0 0 1255.88 1425.81 C 1261.74 1425.06 1267.76 1424.84 1273.66 1424.43 z"/>
<path transform="translate(0,0)" fill="rgb(254,254,254)" d="M 767.029 1425.42 C 776.135 1424.89 785.145 1425.73 794.219 1426.42 C 783.444 1437.14 771.321 1446.96 759.985 1457.12 A 1347.54 1347.54 0 0 1 627.711 1563.37 C 621.86 1557.23 615.058 1551.87 608.626 1546.35 A 2936.65 2936.65 0 0 1 564.601 1509.13 C 579.504 1502.09 592.989 1491.7 607.123 1483.22 C 657.234 1453.17 707.877 1429.6 767.029 1425.42 z"/>
<path transform="translate(0,0)" fill="rgb(254,254,254)" d="M 641.306 475.746 C 658.681 484.192 726.961 556.492 747.651 576.313 C 763.406 591.405 780.331 605.241 795.951 620.435 C 771.849 621.238 747.62 620.866 723.5 620.918 C 661.46 621.793 615.699 579.331 568.689 544.813 C 576.571 535.849 585.927 527.837 594.607 519.635 L 641.306 475.746 z"/>
<path transform="translate(0,0)" fill="rgb(254,254,254)" d="M 1407.92 474.827 C 1433.82 497.064 1458.61 520.577 1484.52 542.81 C 1466.51 554.54 1450.23 568.443 1432.77 580.903 A 377.021 377.021 0 0 1 1366.08 618.228 C 1360.2 620.809 1350.43 625.948 1343.96 625.237 L 1342.5 621.472 L 1340.25 620.667 C 1311.97 620.279 1283.63 621.341 1255.37 620.203 C 1270.18 602.258 1293.24 583.973 1310.58 567.703 L 1407.92 474.827 z"/>
<path transform="translate(0,0)" fill="rgb(254,254,254)" d="M 539.412 565.834 C 548.383 569.71 557.103 579.684 565.285 585.467 C 584.356 598.947 602.481 614.236 621.917 627.1 C 645.793 642.903 674.144 653.924 701.513 661.742 L 701.212 738.849 C 685.586 733.63 670.226 725.612 655.311 718.648 C 633.401 709.297 612.094 697.881 590.846 687.121 A 2679.7 2679.7 0 0 1 472.346 623.826 C 493.757 603.588 517.305 585.323 539.412 565.834 z"/>
<path transform="translate(0,0)" fill="rgb(254,254,254)" d="M 1510.22 566.812 C 1513.51 568.029 1570.65 619.9 1577.64 625.979 C 1559.89 635.933 1541.43 644.702 1523.42 654.188 C 1480.81 676.631 1438.33 698.874 1394.07 717.973 L 1344.85 739.055 C 1344.54 713.865 1344.87 688.636 1344.91 663.442 C 1378.58 654.745 1413.32 636.996 1441.95 617.212 C 1452.78 609.732 1462.87 601.145 1473.35 593.189 A 1011.39 1011.39 0 0 1 1510.22 566.812 z"/>
<path transform="translate(0,0)" fill="rgb(254,254,254)" d="M 982.715 797.465 A 761.36 761.36 0 0 1 1012.93 798.287 C 1025.27 824.173 1035.66 851.172 1046.71 877.634 L 1102.1 1008.78 C 1092.36 1008.92 1082.6 1008.81 1072.86 1008.81 C 1066.76 992.257 1059.04 976.118 1051.97 959.954 C 1038.09 959.57 1024.14 959.767 1010.25 959.694 L 937.086 960.005 C 930.315 976.123 923.096 992.081 916.091 1008.1 L 888.028 1008.09 C 896.33 984.193 908.196 961.672 918.552 938.623 L 982.715 797.465 z"/>
<path transform="translate(0,0)" fill="rgb(1,1,1)" d="M 996.301 824.681 C 1000.52 829.576 1038.2 925.489 1043.18 938.556 C 1026.5 938.944 1009.72 938.477 993.034 938.362 C 977.199 938.342 961.35 938.635 945.515 938.779 A 6307.99 6307.99 0 0 0 974.743 872.966 C 981.799 856.831 988.423 840.436 996.301 824.681 z"/>
<path transform="translate(0,0)" fill="rgb(254,254,254)" d="M 300.74 467.45 C 312.322 467.146 324.029 467.768 335.582 468.526 C 341.561 473.306 347.284 477.301 355.021 478.728 C 364.185 480.418 371.342 477.295 378.827 472.338 C 400.133 484.027 422.623 493.489 444.086 504.967 C 467.953 517.73 490.615 532.727 513.42 547.267 C 491.098 566.913 465.321 582.994 442.337 601.956 C 433.577 597.775 427.458 596.749 417.774 596.95 C 399.933 583.024 376.522 573.099 356.505 562.495 C 324.419 545.561 290.976 527.273 256.363 516.137 C 216.714 503.381 180.196 503.028 142.849 522.129 C 133.739 521.652 124.482 522.022 116.814 516.271 C 113.281 513.621 110.447 509.683 109.995 505.197 C 109.571 501.001 111.499 497.042 114.346 494.067 C 117.917 490.336 122.721 487.988 127.595 486.462 C 139.435 482.754 153.642 481.91 165.96 480.12 C 210.995 473.577 255.29 469.373 300.74 467.45 z"/>
<path transform="translate(0,0)" fill="rgb(254,254,254)" d="M 1717.44 466.482 C 1779.57 464.942 1850.83 472.352 1911.88 484.901 C 1919.03 486.371 1930.36 488.431 1934.4 495.078 C 1936.65 498.773 1937.33 503.662 1936.1 507.821 C 1928.82 532.386 1889.9 515.223 1873.42 511.022 C 1865.63 509.035 1857.5 508.187 1849.48 507.792 C 1801.85 505.445 1753.62 530.754 1712.32 551.945 C 1687.54 565.203 1662.25 578.26 1636.86 590.322 C 1625.21 595.856 1612.71 598.115 1602.04 605.549 A 1811.75 1811.75 0 0 1 1535.98 547.197 C 1572.06 519.622 1625.61 491.326 1668.12 474.955 C 1674.79 478.51 1681.69 481.152 1689.35 481.047 C 1701.22 480.884 1709.44 474.44 1717.44 466.482 z"/>
<path transform="translate(0,0)" fill="rgb(254,254,254)" d="M 538.125 1527.79 C 542.523 1528.96 597.501 1579.86 607.04 1587.74 C 557.063 1620.23 515.61 1653.57 457.586 1672.88 C 454.224 1669.73 450.797 1666.75 446.701 1664.57 C 439.847 1660.92 431.907 1660.04 424.511 1662.49 C 415.109 1665.6 409.176 1672.73 404.865 1681.3 A 866.841 866.841 0 0 1 285.998 1673.88 C 265.84 1673.14 236.629 1666.68 215.67 1663.65 C 227.332 1652.39 230.966 1643.98 232.016 1627.87 C 265.836 1628.32 298.549 1625.53 332.113 1621.58 C 336.846 1629.72 342.086 1636.85 351.64 1639.47 A 27.6731 27.6731 0 0 0 373.71 1636.01 C 382.955 1630.06 386.682 1620.74 388.7 1610.44 C 443.773 1592.97 490.741 1559.82 538.125 1527.79 z"/>
<path transform="translate(0,0)" fill="rgb(254,254,254)" d="M 1605.25 1449.19 C 1614.54 1454.03 1623.55 1451.87 1632.48 1456.18 C 1686.91 1482.45 1749.51 1527.68 1809.37 1537.97 A 140.566 140.566 0 0 0 1843.95 1539.56 C 1859.87 1538.28 1920.62 1525.68 1931.33 1531.19 C 1935.51 1533.34 1941.01 1538.74 1941.95 1543.52 C 1942.46 1546.14 1941.58 1548.64 1940.08 1550.75 C 1929.85 1565.05 1891.15 1568.71 1873.78 1572 A 1097.94 1097.94 0 0 1 1831.39 1578.9 C 1803.6 1582.74 1776.31 1583.31 1748.28 1583.12 C 1736.38 1583.04 1723.41 1583.45 1711.68 1581.45 C 1706.29 1580.53 1702.15 1576.27 1696.83 1575.03 C 1689.36 1573.28 1681.5 1576.62 1673.72 1574.81 C 1665.64 1572.94 1657.42 1569.48 1649.64 1566.55 C 1607.31 1550.62 1570.92 1526.7 1535.07 1499.54 C 1556.7 1479.94 1580.53 1464.55 1605.25 1449.19 z"/>
<path transform="translate(0,0)" fill="rgb(254,254,254)" d="M 1507.03 1522.99 A 497.179 497.179 0 0 1 1552.47 1552.02 C 1566.9 1562.44 1580.83 1573.81 1596.08 1583.03 C 1614.96 1594.45 1635.46 1601.76 1655.68 1610.32 C 1658.69 1618.97 1661.94 1626.43 1669.35 1632.32 A 29.9872 29.9872 0 0 0 1692.93 1638.58 C 1702.45 1637.01 1709.38 1630.97 1714.75 1623.3 C 1748.21 1625.15 1781.7 1624.89 1815.2 1624.84 A 146.905 146.905 0 0 0 1814.96 1631.33 C 1814.73 1645.22 1820.51 1652.85 1829.73 1662.44 A 974.774 974.774 0 0 1 1767.19 1671.34 C 1726.31 1678.65 1680.87 1678.38 1639.47 1676.57 C 1633.5 1670.3 1626.9 1664.31 1617.99 1663.01 C 1608.4 1661.61 1601 1666.77 1593.71 1672.11 C 1547.22 1660.47 1510.28 1637.4 1473.55 1607.38 C 1463.6 1599.25 1453.31 1591.19 1444.38 1581.93 C 1458.73 1566.8 1491.01 1533.62 1507.03 1522.99 z"/>
<path transform="translate(0,0)" fill="rgb(254,254,254)" d="M 357.482 373.469 C 374.438 372.96 391.331 374.117 408.283 373.986 C 414.712 380.425 422.082 386.349 431.526 387.129 C 441.831 387.981 448.923 382.498 456.268 376.214 C 521.544 399.047 552.079 421.791 606.823 463.022 C 585.841 483.975 563.952 503.887 543.722 525.608 C 528.229 515.236 513.027 504.631 497.186 494.768 A 482.741 482.741 0 0 0 390.659 440.925 C 387.345 431.273 383.218 422.57 374.194 416.962 C 367.764 412.966 359.771 411.536 352.425 413.561 C 343.309 416.074 338.261 421.94 333.837 429.856 C 299.65 426.79 265.47 426.07 231.17 426.113 C 232.729 422.989 234.117 419.57 234.845 416.152 C 237.501 403.688 233.579 393.678 226.791 383.463 A 1245.99 1245.99 0 0 1 357.482 373.469 z"/>
<path transform="translate(0,0)" fill="rgb(254,254,254)" d="M 1665.62 371.462 C 1719.1 371.353 1771.58 375.956 1824.49 383.441 C 1817.25 394.703 1814.94 402.621 1814.65 416.046 L 1820.54 427.027 C 1784.73 427.012 1749.54 425.885 1713.69 428.058 C 1710.24 424.498 1706.23 421.283 1701.68 419.264 C 1693.67 415.712 1684.51 415.387 1676.42 418.881 C 1666.24 423.281 1661.46 431.348 1657.37 441.062 C 1627.68 451.941 1600.08 466.091 1572.83 482.071 C 1551.49 495.278 1530.74 509.299 1509.53 522.704 C 1487.24 504.742 1466.14 484.989 1445.03 465.655 C 1456.24 456.567 1466.59 446.422 1477.92 437.408 C 1512.2 410.144 1550.9 391.246 1593.12 379.826 C 1600.63 384.357 1607.81 387.922 1616.89 387.409 C 1628.16 386.773 1636.05 380.153 1643.16 372.08 L 1665.62 371.462 z"/>
<path transform="translate(0,0)" fill="rgb(254,254,254)" d="M 449.856 1448.93 C 470.009 1464.73 492.016 1486.79 511.946 1504.21 C 499.168 1511.52 486.991 1520.17 474.57 1528.1 C 442.271 1548.7 409.02 1568.55 372.535 1580.82 C 368.902 1578.96 365.509 1577.35 361.409 1576.82 C 351.476 1575.54 343.899 1580.63 336.546 1586.53 C 317.415 1583.63 297.001 1584.16 277.588 1582.89 A 1213.39 1213.39 0 0 1 178.574 1572.66 C 161.709 1570.37 144.482 1568.61 127.78 1565.43 C 121.603 1564.25 114.939 1561.76 111.519 1556.13 C 109.05 1552.06 108.797 1547.03 109.924 1542.49 C 111.249 1537.15 116.901 1529.95 122.572 1528.84 C 135.136 1526.39 167.514 1534.8 182.099 1536.51 C 195.283 1538.06 208.982 1538.11 222.233 1537.21 C 284.642 1532.94 361.154 1485.57 414.263 1454.35 C 429.172 1458.04 436.532 1456.37 449.856 1448.93 z"/>
<path transform="translate(0,0)" fill="rgb(254,254,254)" d="M 1310.09 1302.83 C 1355.07 1312.95 1418.66 1345.93 1461.36 1366.93 A 4601.91 4601.91 0 0 0 1578.92 1423.35 C 1569.61 1431.29 1559.58 1438.44 1550.13 1446.21 C 1536.42 1457.5 1523.27 1469.48 1510.12 1481.39 C 1501.1 1475.37 1491.76 1469.81 1482.51 1464.13 C 1429.4 1430.42 1373.17 1400.33 1309.46 1393.68 C 1280.28 1390.63 1251.41 1391.83 1222.2 1393.4 C 1214.05 1386.9 1206.18 1380.27 1198.46 1373.27 C 1215.5 1362.44 1233.2 1352.56 1250.34 1341.84 C 1270.53 1329.21 1290.11 1315.77 1310.09 1302.83 z"/>
<path transform="translate(0,0)" fill="rgb(254,254,254)" d="M 740.325 1301.97 C 747.96 1304.64 778.001 1328.44 787.195 1334.73 A 3632.31 3632.31 0 0 0 852.095 1377.53 C 845.911 1382.54 839.348 1387.16 832.962 1391.92 C 808.088 1393.99 782.825 1390.47 757.809 1391.88 C 689.859 1395.71 625.157 1428.28 568.611 1463.86 A 637.961 637.961 0 0 0 537.262 1484.54 C 515.608 1464.82 493.34 1445.84 471.892 1425.87 C 495.657 1410.68 522.535 1397.89 547.823 1385.29 C 610.162 1354.22 674.618 1325.23 740.325 1301.97 z"/>
<path transform="translate(0,0)" fill="rgb(254,254,254)" d="M 1419.73 1604.7 C 1430.72 1614.47 1440.34 1626.04 1451.3 1635.98 A 295.741 295.741 0 0 0 1583.57 1705.7 C 1585.54 1710 1587.42 1714.38 1590.51 1718.02 C 1596.09 1724.58 1603.71 1729.1 1612.4 1729.67 C 1621.93 1730.29 1629.99 1726.34 1637.09 1720.32 C 1680.85 1721.67 1723.9 1720.77 1767.5 1716.65 C 1788.71 1714.65 1810.25 1710.29 1831.42 1708.99 C 1835.98 1708.71 1840.82 1709.85 1844.73 1712.22 C 1848.64 1714.59 1851.87 1718.32 1852.87 1722.87 C 1853.64 1726.39 1852.91 1729.77 1850.73 1732.66 C 1842.24 1743.95 1812.6 1745.67 1798.78 1748.01 C 1727.36 1761.13 1654.46 1777.73 1581.48 1773.89 C 1571.41 1773.36 1560.84 1773.15 1551.03 1770.63 C 1546.64 1769.5 1542.83 1767.07 1538.68 1765.35 C 1530.46 1761.95 1521.51 1766.28 1513.82 1769.38 C 1499.4 1760.02 1482.71 1754.74 1468.72 1744.56 C 1455.18 1734.7 1443.56 1722.28 1431.87 1710.38 C 1412.42 1690.58 1393.46 1669.99 1373.06 1651.19 A 2837.84 2837.84 0 0 1 1419.73 1604.7 z"/>
<path transform="translate(0,0)" fill="rgb(254,254,254)" d="M 629.998 1608.83 C 644.589 1618.92 662.598 1638.82 675.876 1651.51 C 634.312 1694.03 591.969 1740.51 538.916 1768.67 C 536.816 1767.08 534.688 1765.41 532.441 1764.03 C 525.747 1759.93 517.856 1758.02 510.126 1759.94 C 500.655 1762.3 493.748 1769.41 488.842 1777.5 C 408.139 1776.12 334.157 1765.39 255.234 1749.84 C 241.104 1747.29 217.386 1745.32 205.508 1738.25 A 13.6227 13.6227 0 0 1 199.154 1729.32 C 198.127 1724.39 198.527 1718.52 201.525 1714.33 C 205.333 1708.99 212.498 1707.47 218.662 1707.27 C 234.759 1706.77 262.451 1713.32 279.969 1715.33 A 531.503 531.503 0 0 0 408.814 1713.57 C 412.62 1717.39 416.289 1721.21 421.169 1723.68 C 428.211 1727.24 435.9 1728 443.377 1725.33 C 453.395 1721.76 458.932 1713.86 463.148 1704.62 C 516.446 1693.26 561.541 1668.77 602.772 1633.8 C 612.09 1625.9 621.739 1617.84 629.998 1608.83 z"/>
<path transform="translate(0,0)" fill="rgb(254,254,254)" d="M 1557.68 270.94 C 1639.75 269.827 1718.94 283.543 1799.39 297.5 C 1808.93 299.155 1835.6 300.968 1842.57 306.516 C 1846.84 309.908 1849.45 315.444 1849.86 320.83 C 1850.23 325.538 1848.58 329.134 1845.5 332.61 C 1841.12 337.554 1835.56 338.736 1829.2 338.977 C 1808.31 339.771 1786.2 334.432 1765.14 333.098 C 1723.41 330.452 1682.76 331.36 1641.08 333.911 C 1637.33 329.981 1633.54 326.51 1628.57 324.183 C 1620.52 320.418 1611.5 319.825 1603.15 322.993 C 1593.92 326.492 1586.01 334.82 1581.99 343.775 C 1520.49 354.733 1462.09 398.317 1418.38 440.874 C 1401.83 426.798 1385.88 411.942 1369.98 397.142 C 1414.43 355.03 1453.09 305.974 1510.36 280.484 C 1517.44 283.706 1524.75 286.18 1532.65 285.641 C 1543.61 284.893 1550.64 278.602 1557.68 270.94 z"/>
<path transform="translate(0,0)" fill="rgb(254,254,254)" d="M 442.14 270.545 A 937.467 937.467 0 0 1 492.393 270.131 C 498.064 278.015 506.174 285.921 515.978 287.93 C 525.403 289.862 533.506 286.054 541.099 280.821 C 591.233 304.445 636.814 358.294 676.648 397.346 C 662.329 411.976 647.379 425.758 632.052 439.324 C 592.456 406.452 551.655 374.921 504.098 354.465 A 326.636 326.636 0 0 0 462.485 341.159 C 459.91 337.576 457.239 333.994 453.875 331.1 C 448.011 326.055 440.333 323.251 432.586 323.863 C 422.527 324.659 415.104 330.311 408.609 337.552 A 641.074 641.074 0 0 0 277.356 333.265 C 259.061 334.469 240.453 338.167 222.199 338.295 C 216.899 338.333 209.844 338.008 205.56 334.495 C 202.009 331.583 199.265 327.36 198.942 322.702 C 198.629 318.183 199.518 313.643 202.689 310.249 C 205.079 307.691 208.43 306.025 211.703 304.91 C 224.617 300.511 240.091 298.911 253.522 296.198 C 290.493 288.729 327.269 281.079 364.75 276.544 A 787.774 787.774 0 0 1 442.14 270.545 z"/>
<path transform="translate(0,0)" fill="rgb(254,254,254)" d="M 700.836 791.871 C 703.148 809.969 701.124 837.529 701.158 856.595 L 701.149 1003.68 C 681.377 991.748 667.567 978.97 661.541 956.189 C 663.075 956.358 664.617 956.525 666.16 956.574 C 670.314 956.706 675.823 955.072 678.631 951.802 C 680.381 949.764 680.998 947.072 680.761 944.446 C 680.366 940.082 677.859 935.775 674.366 933.158 C 671.333 930.884 667.574 929.665 663.792 930.403 C 659.721 931.198 656.747 934.238 654.745 937.717 A 37.6811 37.6811 0 0 0 651.594 967.665 C 658.893 990.598 680.942 1006.8 701.379 1017.29 C 702.095 1099.23 702.301 1181.33 701.379 1263.27 C 689.728 1253.43 677.498 1244.31 665.345 1235.12 A 2601.62 2601.62 0 0 1 569.941 1160.24 C 553.132 1146.52 534.397 1133.04 520.3 1116.47 C 494.656 1086.32 488.919 1048.43 492.383 1009.98 C 494.32 988.462 501.112 967.047 513.614 949.264 C 530.951 924.604 556.467 907.081 579.603 888.332 C 619.683 855.853 661.331 824.98 700.836 791.871 z"/>
<path transform="translate(0,0)" fill="rgb(254,254,254)" d="M 1343.6 789.582 C 1361.8 801.143 1378.86 816.492 1395.95 829.72 A 7562.56 7562.56 0 0 1 1463.21 882.497 C 1487.16 901.44 1514.51 920.52 1533.04 945.009 C 1554.93 973.936 1563.27 1010.92 1558.12 1046.67 C 1555.35 1065.91 1548.11 1085.72 1537 1101.72 C 1517.8 1129.4 1487.32 1151.36 1461.29 1172.33 A 2498.31 2498.31 0 0 1 1369.5 1243.41 L 1344.61 1261.84 C 1342.82 1182.72 1343.95 1103.25 1344.16 1024.1 C 1358.98 1015.73 1374.06 1006.82 1384.6 993.094 C 1393.08 982.057 1399.49 965.344 1397.34 951.332 C 1396.43 945.435 1393.61 939.371 1388.54 935.946 C 1385.85 934.126 1382.77 933.359 1379.57 934.154 C 1375.62 935.135 1371.98 938.532 1370.14 942.096 C 1368.55 945.182 1368.46 948.736 1369.56 951.997 C 1370.51 954.824 1372.43 957.126 1375.25 958.198 C 1377.08 958.891 1378.89 958.944 1380.52 957.937 C 1378.62 955.846 1375.09 952.51 1374.29 949.76 C 1373.58 947.324 1373.87 945.27 1375.62 943.312 C 1377.45 941.269 1379.3 941.285 1381.79 941.068 C 1384.27 942.216 1385.1 942.569 1386.45 945.129 C 1389.03 950.044 1388.09 957.982 1386.75 963.092 C 1380.79 985.862 1363.48 999.116 1343.89 1010.12 L 1343.6 789.582 z"/>
<path transform="translate(0,0)" fill="rgb(254,254,254)" d="M 417.44 195.416 C 441.599 192.925 469.964 194.596 494.289 196.636 C 667.531 211.164 782.748 344.162 893.506 463.071 L 987.636 564.907 C 1004.29 583.039 1021.41 600.814 1037.28 619.636 C 1009.21 620.639 980.866 620.004 952.757 620.007 A 13371.1 13371.1 0 0 1 811.627 619.588 C 794.464 603.027 776.276 587.55 759.195 570.919 C 726.918 539.493 695.782 507.317 662.319 477.085 C 658.564 473.844 654.986 470.369 651.352 466.992 C 670.972 447.383 692.09 429.045 711.091 408.879 C 723.78 422.719 736.175 436.862 749.192 450.395 C 762.237 463.954 775.891 477.007 788.365 491.096 C 787.939 499.23 788.461 509.05 794.171 515.5 C 796.32 517.927 799.246 519.449 802.53 519.498 C 807.836 519.579 813.24 516.935 816.88 513.169 C 820.82 509.094 823.016 503.165 822.543 497.498 C 822.236 493.829 820.61 490.476 817.74 488.13 C 812.086 483.509 804.627 482.54 797.644 483.027 C 770.755 456.124 741.184 427.622 717.95 397.564 C 720.641 397.253 723.385 396.958 726.002 396.235 C 732.108 394.55 738.569 390.454 741.44 384.62 C 744.06 379.295 744.036 372.891 741.906 367.409 A 22.8276 22.8276 0 0 0 729.297 354.604 C 724.193 352.527 718.424 352.353 713.368 354.674 C 705.803 358.147 702.503 364.943 699.715 372.302 C 663.563 332.835 627.227 289.094 581.145 260.814 C 571.245 254.738 560.608 250.199 550.163 245.175 C 546.804 237.756 543.339 231.412 536.378 226.679 A 26.5768 26.5768 0 0 0 516.053 222.511 C 505.576 224.599 498.902 231.534 493.113 239.933 C 457.918 234.971 423.147 233.48 387.604 234.572 A 558.414 558.414 0 0 0 331.473 239.171 C 316.521 241.243 300.446 244.962 285.341 244.844 C 281.32 244.813 278.195 244.286 274.784 242.059 C 270.102 239.003 267.371 234.615 266.427 229.139 C 265.754 225.239 266.557 221.418 269.073 218.31 C 278.275 206.944 324.36 205.494 339.499 204.252 C 343.966 210.837 348.553 216.084 356.196 219.043 A 26.7406 26.7406 0 0 0 376.625 218.595 C 386.266 214.282 390.737 206.397 394.433 197.073 L 417.44 195.416 z"/>
<path transform="translate(0,0)" fill="rgb(254,254,254)" d="M 862.486 1385.78 C 869.186 1386.17 991.636 1464.42 1006.52 1476.38 C 951.207 1516.38 905.55 1571.56 859.457 1621.37 C 816.167 1668.15 770.322 1713.73 720.97 1754.14 C 622.054 1835.13 521.381 1864.47 394.37 1851.89 C 391.216 1843.25 387.61 1835.96 379.54 1830.91 C 373.031 1826.84 364.91 1825.83 357.522 1827.74 C 348.761 1830.01 342.993 1835.92 338.704 1843.58 C 326.078 1842.24 279.494 1838.87 271.374 1831.55 C 268.497 1828.96 267.111 1824.91 267.176 1821.11 A 19.0814 19.0814 0 0 1 273.42 1807.41 A 18.4654 18.4654 0 0 1 283.871 1802.7 C 301.51 1800.96 323.542 1805.97 341.519 1807.86 A 1052.84 1052.84 0 0 0 394.923 1811.78 C 426.873 1813.07 457.583 1811.5 489.402 1808.71 C 494.747 1816.28 501.486 1822.14 510.666 1824.41 C 518.007 1826.22 526.083 1825.42 532.566 1821.37 C 540.614 1816.33 543.915 1809.02 546.08 1800.19 C 613.265 1778.67 655.981 1723.48 703.79 1675.59 C 704.048 1675.89 704.309 1676.2 704.564 1676.5 C 709.163 1682.05 713.333 1686.49 720.72 1687.86 A 18.5054 18.5054 0 0 0 735.661 1684.26 C 740.032 1680.9 742.885 1675.64 743.587 1670.2 C 744.249 1665.06 743.097 1659.87 739.765 1655.84 C 734.191 1649.09 726.973 1648.09 718.811 1647.58 C 731.796 1633.39 745.64 1619.87 758.865 1605.89 C 771.857 1592.15 784.291 1577.91 797.537 1564.41 C 799.833 1564.99 802.147 1565.56 804.516 1565.75 C 810.351 1566.23 816.865 1565.21 821.269 1561.06 C 825.465 1557.11 828.027 1550.49 828.087 1544.78 A 19.2733 19.2733 0 0 0 822.307 1530.83 A 21.9047 21.9047 0 0 0 806.424 1524.52 C 800.954 1524.63 795.892 1526.81 792.297 1530.97 C 786.188 1538.05 786.645 1546.9 787.527 1555.55 C 763.923 1584.11 737.101 1610.36 712.432 1638.04 C 692.228 1621.49 672.736 1603.56 653.465 1585.91 A 2830.79 2830.79 0 0 0 711.191 1528.54 C 759.516 1478.41 806.412 1427.54 862.486 1385.78 z"/>
<path transform="translate(0,0)" fill="rgb(254,254,254)" d="M 1559.75 194.589 C 1591.15 192.003 1623.46 193.641 1654.72 197.163 C 1658.19 203.766 1661.77 209.67 1667.94 214.16 C 1674.36 218.834 1682.11 220.823 1689.95 219.333 C 1699.87 217.45 1706.23 210.965 1711.68 202.992 C 1723.44 204.372 1766.76 207.219 1775.48 213.632 C 1778.75 216.039 1780.73 219.752 1781.31 223.739 C 1781.95 228.204 1780.97 232.668 1778.2 236.255 C 1774.33 241.265 1768.15 243.447 1762.02 243.853 C 1744.68 245.002 1717.97 239.918 1699.82 238.272 C 1668.81 235.459 1637.4 234.849 1606.28 235.02 C 1590.55 235.107 1574.15 234.839 1558.53 236.713 L 1557.4 236.858 L 1556.44 235.416 C 1551.98 228.613 1547.39 223.723 1539.46 221.059 C 1531.67 218.443 1522.89 219.398 1515.68 223.286 C 1505.56 228.746 1501.54 237.334 1498.49 247.805 C 1427.89 272.424 1396.89 321.787 1345.68 370.435 C 1342.62 366.051 1339.25 362.698 1333.98 361.174 C 1328.87 359.699 1323.55 360.463 1318.96 363.108 A 21.6689 21.6689 0 0 0 1308.63 377.328 C 1304.37 397.749 1325.6 396.986 1330.5 405.005 C 1324.26 414.992 1306.51 429.082 1297.5 437.678 A 3377.71 3377.71 0 0 0 1250.73 483.455 C 1243.07 482.422 1235.16 481.835 1228.67 486.868 C 1224.98 489.731 1222.99 494.047 1222.73 498.667 A 19.665 19.665 0 0 0 1228.08 513.313 C 1231.22 516.593 1235.56 518.653 1240.13 518.666 C 1245.09 518.681 1250.63 516.179 1253.91 512.456 C 1258.76 506.942 1258.65 499.373 1258.11 492.505 C 1284.31 465.414 1312.67 440.37 1339.01 413.385 A 1353.32 1353.32 0 0 1 1372.33 442.64 A 2390.66 2390.66 0 0 1 1399.54 466.989 C 1388.48 478.349 1376.31 488.798 1364.84 499.769 C 1322.83 539.949 1279.57 579.046 1238.39 620.071 L 1054.11 619.821 C 1045.86 609.545 1036.31 600.014 1027.49 590.205 C 1040.17 576.921 1054.66 564.995 1067.85 552.157 A 3174.15 3174.15 0 0 0 1152.93 465.853 C 1269 343.851 1378.88 206.548 1559.75 194.589 z"/>
<path transform="translate(0,0)" fill="rgb(254,254,254)" d="M 731.661 1279.98 L 1046.9 1279.55 C 1073.24 1293.94 1098.65 1312.69 1122.8 1330.52 A 1149.88 1149.88 0 0 1 1226.11 1415.03 C 1284.09 1468.97 1336.66 1528.91 1392.33 1585.24 C 1374.81 1603.16 1355.57 1619.94 1337.37 1637.22 C 1311.72 1611.3 1287.06 1584.3 1262.12 1557.7 C 1262.96 1554.27 1263.82 1550.8 1263.91 1547.25 C 1264.06 1541.37 1262.35 1534.6 1258.01 1530.39 C 1254.15 1526.66 1248.73 1525.02 1243.43 1525.24 A 21.6926 21.6926 0 0 0 1227.87 1532.89 C 1224.37 1537.05 1222.6 1542.26 1223.25 1547.7 C 1223.93 1553.48 1227.6 1559.83 1232.29 1563.28 C 1238.38 1567.75 1245.61 1567.26 1252.71 1566.35 C 1278.31 1592.05 1303.46 1619.05 1328.08 1645.71 C 1323.08 1647.25 1319.06 1648.7 1314.62 1651.58 C 1311.49 1656.39 1309.61 1661.08 1309.75 1666.94 C 1309.89 1672.86 1312.26 1678.63 1316.68 1682.64 A 19.4324 19.4324 0 0 0 1331.12 1687.7 C 1339.3 1687.2 1344.14 1682.81 1349.31 1676.98 C 1379.33 1710.09 1423.09 1761.39 1460.91 1783.05 C 1472.57 1789.72 1485.14 1793.86 1497.79 1798.17 C 1500.9 1809.25 1505.74 1819.64 1516.26 1825.47 C 1524.31 1829.93 1532.45 1829.65 1541.1 1827.39 C 1549.93 1823.39 1555 1817.92 1559.92 1809.79 C 1586 1813.59 1612.97 1814.46 1639.31 1813.75 C 1666.23 1813.02 1693.18 1810.39 1719.93 1807.42 C 1733.36 1805.93 1747 1803.27 1760.48 1802.89 C 1764.78 1802.77 1769.75 1802.51 1773.54 1804.81 A 19.254 19.254 0 0 1 1782.56 1817.44 C 1783.39 1821.26 1782.59 1825 1780.24 1828.12 C 1771.38 1839.88 1727.81 1843.37 1712.63 1845.36 L 1711.72 1844.01 C 1707.77 1838.09 1703.96 1833.65 1697.36 1830.59 A 29.0396 29.0396 0 0 0 1674.78 1829.86 C 1664.24 1833.83 1659 1842.06 1654.44 1851.71 C 1475.21 1874.62 1359.27 1794.8 1238.85 1672.13 C 1181.51 1613.72 1128.22 1552.82 1063.41 1502.19 C 958.444 1420.18 837.343 1361.25 731.661 1279.98 z"/>
</svg>