<svg xmlns="http://www.w3.org/2000/svg" display="block" viewBox="0 0 2048 2048"><path fill="#fefefe" d="M0 0h2048v2048H0z"/><path fill="#010101" d="M1677.24 159.156c.41-.048.82-.102 1.23-.145 9.06-.952 17.59.22 24.74 6.299 8.28 7.035 10.4 16.523 11.34 26.774 18.19 2.346 40.13 2.959 57.55 8.771 7.55 2.518 14.65 6.408 18.13 13.927 3.21 6.903 2.61 15.232-.32 22.121-3.82 8.981-11.51 15.606-21.06 17.748-10.73 2.408-38.94-2.102-51.36-3.204-27.47-2.436-136.6-9.254-155.6-1.982-1.43 2.162-1.16 2.64-1.03 5.275 2.31 3.484 4.74 4.412 8.87 4.745 7.65.617 15.52-.339 23.23-.057 17.92.655 35.97 2 53.84 3.582 49.45 4.38 97.82 13.227 146.55 22.321 14.89 2.778 31.12 3.931 45.53 8.219 4.4 1.307 8.49 2.896 12.09 5.805a25.92 25.92 0 0 1 9.72 18.033 29.73 29.73 0 0 1-6.98 21.903c-5.19 6.071-11.95 8.936-19.74 9.896-18.75 2.313-56.84-4.128-77.46-5.368a864 864 0 0 0-108.66 1.389l-.05 15.107a1288 1288 0 0 1 84.2 1.275c28.05 1.563 55.64 6.083 83.44 9.736 13.4 1.76 27.46 2.452 40.63 5.3 5.08 1.1 10.93 2.751 15.03 6.031 6.54 5.222 10.45 14.059 10.94 22.307.62 10.187-2.77 18.993-9.68 26.438-5.23 5.624-12.19 10.031-19.89 11.144-11.73 1.696-25.2-2.784-37.14-3.337a1088 1088 0 0 0-93.65-.2l.42 15.169c34.38.795 190.39 10.347 214.65 27.554 5.79 4.111 9.87 9.99 10.95 17.082 1.12 7.356-.82 16.524-5.43 22.453-6.4 8.247-15.49 9.82-25.17 11.165 9.76 9.573 18.13 19.445 24.96 31.359 8.59 14.969 20.14 56.965 15.09 73.513a28.6 28.6 0 0 1-14.57 17.097 27.5 27.5 0 0 1-22.06 1.294c-19.54-7.351-15.35-31.534-17.18-48.182-1.02-9.376-3.3-18.521-7.4-27.041-7.08-14.701-18.8-26.022-34.43-31.331-41.5-14.096-98.33 18.804-134.97 36.777l-75.89 37.742c-.22 3.608-.51 7.393-1.53 10.874-2.16 7.359-7.42 13.875-14.3 17.298-10.18 5.074-19.33 2.865-29.42-.621-27.43 16.156-56.54 30.417-84.81 45.092-56.01 29.076-112.2 57.178-170.2 82.063 15.43 14.571 34 27.399 50.82 40.388a7294 7294 0 0 1 78.34 61.317c21.64 16.929 44.53 33.99 61.67 55.712 24.79 31.399 33.74 69.577 29.04 109.107-2.85 24.03-11.95 48.42-26.12 68.07-18.69 25.91-47.37 46.86-72.12 66.77-40.34 32.45-81.95 63.09-122.73 94.97 9.8 5.88 20.75 10.4 31.12 15.24l59.93 27.43a9787 9787 0 0 1 165.96 77.85c4.84-1.99 9.92-3.79 15.16-4.19 8.42-.65 16.62 1.61 22.85 7.44 7.82 7.3 9.2 16.25 9.47 26.34a5941 5941 0 0 1 84.84 44.86c19.82 10.44 40.07 21.56 61.21 29.12 16.14 5.78 35.83 10.91 53.12 9.29 32.29-3.02 47.02-37.29 51.27-65.18 2.02-13.29-1.38-31.9 7.86-42.57 4.19-4.83 10.27-7.29 16.58-7.64 7.31-.42 14.84 1.92 20.28 6.92 5.17 4.75 7.95 11.25 8.18 18.23 1.3 38.73-11.88 72.49-38.49 100.09 6.49.32 12.68.67 18.34 4.2 6.66 4.16 11.27 10.56 12.85 18.28a25.54 25.54 0 0 1-3.83 19.53c-3.68 5.4-9.1 9.08-15.14 11.42-20.68 7.98-72.93 14.92-97.29 19.07l6.78 13.48c11.41-.05 20.41 1.42 29.16 9.32 7.88 7.12 14.47 17.39 14.77 28.29.2 7.12-2.6 13.87-7.58 18.93-3.84 3.88-8.62 6.59-13.81 8.21-9.97 3.1-21.64 3.5-32.03 5.13-41.77 6.54-83.59 12.42-125.86 14.56-20 1.02-39.98.68-60 .34.07 6.7-.06 13.41-.11 20.11 39.34.48 77.88.49 117.11-3.04 23.14-2.09 46.85-7.52 69.98-8.25 9.08-.28 16.87 2.68 23.44 9.01 5.09 4.91 8.07 11.32 7.91 18.44-.18 7.69-3.87 14.77-9.66 19.74-3.68 3.16-8.27 5.39-12.9 6.78-17.44 5.23-37.22 7.17-55.19 10.51-45.65 8.49-98.2 19.3-144.06 22.93-27.59 2.19-53.83 2.03-81.4.01.65 4.33 1.04 8.71 1.51 13.06 46.67 8.28 105.77 2.71 152.96-1.56 16.02-1.45 33.35-4.83 49.37-4.4 6.08.16 11.59 1.34 16.8 4.64a26.03 26.03 0 0 1 11.45 16.66 28.08 28.08 0 0 1-4.44 22c-3.33 4.8-7.98 8.34-13.33 10.62-10.21 4.37-46.12 8.11-59.58 10.2-.1 4.34-.14 8.64-1.46 12.82-2.52 7.96-7.82 15.01-15.53 18.52a29.8 29.8 0 0 1-23.98.22c-10.79-4.67-15.1-13.65-19.39-23.82-37.88 3.32-75.69 5.22-113.56.61-153.5-18.66-259.12-130.03-360.66-235.58-19.29-20.05-37.94-40.83-58.07-60.04-33.11-31.58-67.74-59.72-105.93-84.95-55.23 41.28-101.701 95.37-148.292 145.8A1656 1656 0 0 1 763.496 1734c-75.148 67.89-160.902 120.82-263.743 130.51-35.948 3.39-71.529 1.76-107.525-.04-1.878 4.15-3.654 8.27-6.691 11.72-6.321 7.2-13.572 9.34-22.891 9.75-5.444-.94-10.743-2.73-15.26-5.98-8.643-6.24-10.516-15.81-12.336-25.6-15.558-2.42-51.258-4.38-63.58-9.91-6.769-3.04-11.183-8.5-13.756-15.36-2.522-6.73-1.479-13.85 1.601-20.22 3.766-7.79 11.163-14.72 19.767-16.63 17.842-3.96 46.19 2.22 64.739 4.09 21.376 2.16 119.038 7.41 135.783 1.22 2.81-1.04 4.838-2.37 6.058-5.21l-1.053-1.87c-2.499-1.01-97.511-7.38-109.095-8.82-39.479-4.9-78.094-12.48-117.097-19.97-16.855-3.24-35.879-5.09-52.023-10.82-5.393-1.91-10.313-4.39-13.761-9.11-4.461-6.12-5.481-14.25-3.969-21.54 2.191-10.57 10.075-20.32 20.808-22.95 13.68-3.36 54.142 4.58 70.047 6.4 23.635 2.7 106.514 7.36 124.244-3.78l-.106-3.69c-2.763-1.74-6.738-2.36-9.913-2.8-10.064-1.39-20.873-.83-31.049-1.34a968 968 0 0 1-58.907-4.8c-31.796-3.47-63.575-8.74-95.206-13.52-14.68-2.22-32.2-4.85-41.339-17.98a27.3 27.3 0 0 1-4.29-21.59c2.509-11.3 12.402-22.78 23.248-26.87 4.849-1.83 9.761-2.53 14.199-5.36-.098-2.71-.469-5.79.918-8.23.695-1.23 1.4-2.41 2.072-3.65l.802-1.46c-6.908-7.18-79.032-4.82-96.747-20.11a27.3 27.3 0 0 1-9.41-20.22c-.166-8.41 3.428-16.57 9.435-22.41 8.11-7.87 16.674-9.2 27.406-9-7.893-6.32-14.512-13.25-19.967-21.79-10.115-15.84-28.749-66.1-24.481-83.66 1.657-6.81 6.157-12.39 12.255-15.77a28.34 28.34 0 0 1 22.213-2.22c20.228 6.47 15.723 27.53 18.409 43.86 2.283 13.88 5.683 27.54 12.288 40.05 6.948 13.16 17.187 23.92 31.892 28.11 44.956 12.81 167.932-58.41 210.359-82.45.64-3.65 1.353-7.45 2.771-10.89 3.054-7.42 9.228-13.94 16.679-16.97 9.164-3.73 17.297-1.67 25.948 2.24 39.914-19.41 78.389-41.44 118.804-59.98 26.936-12.36 54.061-24.7 81.418-36.09 19.273-8.03 39.099-14.98 58.01-23.83-19.794-15.47-40.483-29.98-60.546-45.12a1878 1878 0 0 1-81.916-64.96c-16.651-13.75-35.053-27.1-48.923-43.69-27.455-32.86-34.256-73.67-30.503-115.33 2.055-22.802 9.579-46.022 22.705-64.912 20.124-28.962 51.337-50.702 78.642-72.568 38.445-30.786 78.16-60.29 116.089-91.646-41.184-17.723-81.337-38.754-121.357-58.948a3471 3471 0 0 1-84.354-44.161c-16.815-9.004-33.926-17.662-50.229-27.569-4.058 2.679-8.207 4.43-13.09 4.931-7.133.732-14.156-1.279-19.64-5.946-6.839-5.819-9.117-12.604-9.787-21.295-47.958-23.284-141.871-82.261-193.46-79.9-33.5 1.533-53.129 27.239-58.633 58.327-2.64 14.915.458 35.065-11.105 46.747-4.651 4.699-14.188 6.396-20.532 6.187-6.306-.209-11.802-2.642-16.071-7.313-6.592-7.211-9.054-16.71-8.729-26.296a130.9 130.9 0 0 1 41.671-91.286c-8.814-1.247-16.008-2.43-22.9-8.588a28.04 28.04 0 0 1-9.547-20.252c-.183-7.115 2.655-13.537 7.627-18.567 4.51-4.563 10.198-7.636 16.286-9.535 14.382-4.486 31.443-5.419 46.414-7.485 28.946-3.993 57.855-8.161 87.02-10.217 25.215-1.778 50.548-1.821 75.815-1.918-1.133-4.874-1.713-9.928-2.465-14.876-33.05-1.834-66.059-3.535-99.183-2.788-9.571.216-18.393 5.186-28.028 4.769-9.643-.416-19.118-5.42-25.595-12.452a35.72 35.72 0 0 1-9.483-25.934c.38-8.515 4.532-17.269 10.994-22.868 3.511-3.042 7.199-4.366 11.672-5.371 9.63-2.164 20.406-2.129 30.281-3.421 38.968-5.102 77.992-9.579 117.293-11.029 22.347-.825 45.118-1.052 67.422.653l-.327-13.911c-39.964-8.311-98.5-6.812-139.52-3.709-15.011 1.136-30.555 4.438-45.575 4.126-6.716-.139-13.722-1.044-19.376-4.98-6.608-4.599-11.538-13.867-12.625-21.743-.872-6.323.918-12.192 4.842-17.188 4.288-5.461 10.333-8.85 16.754-11.205 15.173-5.566 33.31-7.173 49.227-10.299 50.642-9.943 100.03-19.594 151.625-23.535a802 802 0 0 1 46.667-2.248c10-.123 20.338.703 30.263-.57 1.276-1.663 1.289-1.824 1.39-3.926-7.118-11.609-115.931-6.913-131.13-5.625-21.72 1.841-49.223 7.646-70.113 7.418-6.77-.074-12.875-.928-18.637-4.71-6.61-4.339-11.009-11.283-12.587-18.982-1.366-6.661-.81-13.737 3.226-19.407 11.781-16.554 57.59-16.925 77.069-19.753.171-3.75.445-7.565 1.688-11.136 2.559-7.351 7.716-13.611 14.816-16.947a28.7 28.7 0 0 1 22.704-.595c10.042 4.012 14.872 11.717 18.979 21.137 25.627-.896 51.414-2.355 77.053-1.541 138.48 4.397 236.477 74.144 332.105 168.401a2058 2058 0 0 1 75.454 77.754l140.369 152.605c48.8-44.906 95.26-93.086 140.62-141.446 50.38-53.712 100.69-108.992 157.77-155.729 104.84-85.844 201.05-113.522 335.76-100.077 1.02-3.158 2.12-6.431 3.56-9.42 4.21-8.755 11.11-13.026 19.86-16.436"/><path fill="#fefefe" d="M666.873 937.333c.931.188 2.32.421 3.16.814 2.567 1.202 2.975 2.333 3.965 4.758-.351 3.468-1.441 5.207-3.411 8.041-1.382-.287-3.359-.521-4.589-1.185-2.343-1.264-2.518-2.275-3.267-4.613.708-3.45 1.908-5.128 4.142-7.815m28.831 588.757.376.21c-.746 3.01-46.538 48.2-51.257 51.15l-2.616-.9c-2.145-1.98-3.659-3.31-4.606-6.19 16.148-15.09 39.986-30.63 58.103-44.27m650.976-6.49c9 4.27 56.71 42.05 59.97 50.51l-1.4 2.71c-2 1.52-2.46 2.28-5.01 2.6-18.56-17.13-37.37-36.44-53.56-55.82M801.014 485.927c2.324-.061 4.9-.007 7.162.59 3.911 1.033 7.396 3.837 9.424 7.305a14.28 14.28 0 0 1 1.507 11.148c-1.571 5.671-4.971 8.225-9.976 10.83a28.2 28.2 0 0 1-6.427-.296c-3.919-.638-7.36-3.161-9.575-6.417-2.403-3.53-3.044-7.939-2.031-12.056 1.444-5.866 4.915-8.198 9.916-11.104m435.076.228c2.26-.141 4.67-.365 6.92-.059 3.81.519 7.73 3.248 9.84 6.414a13.73 13.73 0 0 1 1.83 10.853c-1.39 5.72-4.78 8.624-9.61 11.575-2.82.266-5.79.438-8.58-.147-3.56-.747-7.11-3.419-9.03-6.476-2.03-3.243-2.44-7.078-1.53-10.759 1.44-5.855 5.17-8.527 10.16-11.401M925.486 1037.95c9.7-.07 30.133-2.37 38.396 2.22l.483 1.88c-.657.9-.974 1.44-1.877 2.2-2.952 2.51-8.492 1.62-12.125 1.5l-.136 35.93a276 276 0 0 1-.197 13.84c-1.185 1.96-1.124 1.89-3.318 2.58-2.059-.48-2.284-1.01-3.79-2.4-2.981-7.3-1.065-40.08-1.022-50.13-4.768-.29-9.558.87-14.147-.74-2.256-2.32-1.906-3.72-2.267-6.88m127.454.16c9.35-.16 30.08-2.37 37.84 1.3 1.98.94 1.29.37 2.15 2.6-.58.89-.84 1.41-1.71 2.14-3.09 2.6-9.05 1.58-12.83 1.42l.17 39.68c.02 3.73.85 8.96-1.01 12.23-2.26.48-3.38.24-5.62-.16-3.54-4.14-1.78-44.19-1.82-51.61-5.14-.13-10.46.94-15.37-.88-2.27-2.39-1.72-3.5-1.8-6.72m539.85 391.64c2.71 2.04 4.82 6.23 6.75 9.08-26.01 16.13-50.07 33.1-74.01 52.13-1.45.41-2.72.05-4.19-.15l-.66-1.54c5.95-12.03 58.04-50.13 72.11-59.52M524.46 554.761c2.247.41 4.298 1.244 5.77 2.956-10.216 10.267-22.697 19.174-33.863 28.434-13.96 11.577-27.422 23.845-41.637 35.092-.133-.047-.276-.073-.4-.141-2.45-1.341-3.885-6.438-4.955-9.025 24.041-20.156 50.173-38.203 75.085-57.316m194.7 1096.279c2.804-.06 5.866-.16 8.599.53 4.445 1.14 8.334 4.19 10.624 8.14 2.269 3.92 2.734 8.87 1.357 13.17-2.046 6.38-6.047 9.2-11.846 12.02-2.214.09-4.496.19-6.686-.2-4.895-.87-9.639-3.83-12.209-8.13-2.416-4.05-2.762-8.83-1.395-13.3 1.912-6.25 6.133-9.11 11.556-12.23m82.793-122.92c2.789-.29 5.823-.58 8.599-.07 4.984.9 9.658 4.57 12.147 8.92 2.279 3.98 2.939 8.93 1.512 13.32-1.933 5.93-6.093 9.14-11.512 11.77-3.227.54-6.899.88-10.078-.04-4.378-1.26-8.231-4.47-10.34-8.49a17.72 17.72 0 0 1-1.113-13.49c1.886-6.04 5.459-8.9 10.785-11.92m438.207-.06c2.41-.08 5.07.03 7.42.59 4.86 1.16 9.44 4.84 11.82 9.19a16.93 16.93 0 0 1 1.27 13.35c-2.1 6.52-6.9 8.99-12.74 11.75-2.91.16-6.28.31-9.1-.56-4.43-1.37-8.45-4.83-10.53-8.97-2.14-4.27-2.31-9.16-.72-13.63 2.24-6.28 6.79-9.06 12.58-11.72M716.967 356.991c2.821-.278 5.486-.468 8.298.037 4.881.875 9.462 4.216 12.025 8.433a18.42 18.42 0 0 1 1.881 14.755c-1.868 6.351-5.86 9.317-11.452 12.342-2.693.4-5.45.553-8.144.041-4.619-.878-8.861-3.511-11.511-7.415-2.918-4.301-3.8-9.87-2.507-14.89 1.715-6.659 5.724-9.945 11.41-13.303m184.262 680.119c5.331-.25 10.443-.27 15.154 2.59 2.685 1.63 5.267 3.87 5.58 7.23.26 2.81-.389 3.66-2.072 5.6-5.12.64-5.834-5.09-9.988-7.38-2.362-1.3-4.807-1.51-7.384-.69-2.374.75-4.566 2.48-5.438 4.87-4.897 13.44 22.649 14.95 26.909 25.92 1.63 4.2 1.024 10.32-.954 14.32-2.491 5.03-7.25 7.09-12.309 8.68-8.514.23-13.707-1.11-20.89-6.02-2.892-1.97-4.033-3.42-4.698-6.84 1.123-2.34 1.145-2.91 3.375-4.14 5.6.92 9.802 7.22 15.001 9.59 2.079.94 4.646 1.48 6.784.45 2.94-1.41 4.955-4.49 5.889-7.56 3.542-11.62-22.384-15.24-27.01-25.51-1.644-3.64-1.144-7.63.236-11.28 2.031-5.37 6.897-7.63 11.815-9.83m197.771.68c2.56-.05 4.44 0 6.94.7 5.61 11.04-3.29 33.73 3.24 46.76 1.54 3.08 4.72 6.57 8.19 7.35 2.78.63 5.22-.57 7.33-2.29 12.84-10.47 5.24-36.41 7.05-51.23.67-.41 1.35-.87 2.13-1.07 2.13-.51 3.73.34 5.49 1.37l.39 3.37c-.03 13.53 4.44 39.6-5.12 50.12-3.8 4.19-9.14 5.73-14.66 5.87-5.32.12-10.57-1.15-14.44-4.99-10.87-10.75-6.74-41.69-6.54-55.96m49.26-248.668c3.52-.232 7.26-.556 10.69.424 4.97 1.419 9.51 5.334 11.79 9.945 2.02 4.072 2.42 9.044.86 13.335-2.31 6.319-6.89 9.252-12.73 11.948-3.55.264-6.98.414-10.44-.566-4.91-1.393-9.43-4.863-11.83-9.401a16.94 16.94 0 0 1-1.09-13.513c2.18-6.461 6.86-9.417 12.75-12.172M980.626 1037.87c2.248-.14 3.991-.15 6.185.39 4.583 5.12 20.379 50.72 21.729 58.58-1.71 1.53-2.26 1.63-4.41 2.16-5.498-1.72-5.851-8.99-8.965-13.05-1.099-1.43-3.2-1.11-4.915-1.27l-16.477-.28a234 234 0 0 1-2.281 7.38c-1.205 3.58-2.336 5.4-5.753 7.1-2.112-.56-2.481-.9-4.078-2.42 4.927-19.52 14.819-37.79 18.765-57.52.071-.36.134-.72.2-1.07"/><path fill="#010101" d="M984.418 1052.76c1.075 1.17.766.64 1.408 2.14 1.964 4.59 8.04 16.91 5.972 21.83l-3.548.46c-2.183.09-4.876.46-7.016.13-2.275-.35-2.481-1.24-3.455-3.05-.453-6.2 4.535-15.5 6.639-21.51"/><path fill="#fefefe" d="M1150.32 1037.91c10.56-.21 22.41-1.42 31.07 5.97 3.46 2.95 5.95 7.12 6.18 11.73.24 4.55-1.89 8.73-5.11 11.84-6.91 6.69-14.13 6.71-23.1 6.73-.78 6.8 1.72 16.06-1.41 22.06-2.36 1.43-2.75 1.35-5.54 1.27-4-3.92-1.91-50.62-2.09-59.6"/><path fill="#010101" d="M1158.83 1044.81c3.6-.04 7.54-.24 11.01.84 3.44 1.06 7.02 3.04 8.28 6.64 1.43 4.08-.08 7.74-1.72 11.45-5.86 3.24-11.07 3.39-17.61 3.7z"/><path fill="#fefefe" d="M1015.39 1038.01c7.94-.22 16.4-1.04 24.15 1.04 4.33 1.15 8.69 3.29 10.9 7.38 2.3 4.28 1.69 9.13.15 13.55-2.22 6.38-5.48 8.75-11.37 11.67 3.17 6.39 12.07 18.72 12.05 25.6-1.84 1.23-2.51 1.43-4.85.73-3.22-.97-3.61-2.02-5.2-4.75-2.92-5.95-5.78-13.84-9.85-19.04-1.49-1.9-2.63-2.81-5.03-3.21-6.05 6.1.96 20.11-4.61 26.73-2.3.34-3.55.29-5.76-.41-2.04-9.75-.48-47.02-.58-59.29"/><path fill="#010101" d="M1023.71 1045c4.38-.1 9.59-.54 13.77.91 2.41.84 4.61 2.4 5.64 4.78 1.8 4.19-.06 8.54-1.68 12.46-5.38 2.95-11.98 2.39-17.92 2.35z"/><path fill="#fefefe" d="M421.371 602.162c3.583.035 7.143.059 10.6 1.116a21.3 21.3 0 0 1 12.928 11.19 24.08 24.08 0 0 1 .312 19.326c-3.003 7.256-7.82 10.692-14.838 13.645-5.137.624-10.119.505-14.795-1.988-5.403-2.881-9.21-7.829-10.926-13.676-1.903-6.488-1.132-13.865 2.35-19.684 3.423-5.72 8.054-8.368 14.369-9.929m1195.869.914c4.27-.263 8.98-.398 13.05 1.091a23 23 0 0 1 13.02 12.186 23.2 23.2 0 0 1 .52 17.726c-3.1 7.946-9.19 12.045-16.73 15.301-4.51.852-8.36.669-12.7-.974-5.75-2.179-10.15-6.323-12.58-11.991a24.76 24.76 0 0 1 .13-19.649c3.2-7.406 8.09-10.633 15.29-13.69M520.853 1512.78c2.827 1.82 5.427 4.47 7.983 6.67-42.839 31.08-87.902 58.68-137.538 77.33l-1.767.39c-2.657-1.42-2.758-1.49-4.042-4.21 1.049-4.28 3.293-4.89 7.111-6.57 45.723-20.13 86.235-46.9 128.253-73.61M703.68 386.865c1.825 1.874 3.372 4.635 4.878 6.809-27.905 28.692-57.511 56.173-86.649 83.608-21.194 19.955-42.085 40.527-64.051 59.62-1.889-1.2-3.034-1.772-3.879-3.905 2.067-6.841 134.245-131.054 149.701-146.132M521.421 227.189c3.121.43 6.501 1.208 9.331 2.619 6.203 3.093 11.11 8.61 13.099 15.278 1.914 6.415.929 13.415-2.285 19.246-4.185 7.595-9.872 10.849-17.99 13.045-4.004-.448-7.768-1.21-11.324-3.213a25.6 25.6 0 0 1-12.232-15.722 24.9 24.9 0 0 1 2.912-19.56c4.373-7.031 10.653-10.063 18.489-11.693M428.054 1672.25c4.157-.66 8.174-.85 12.276.31 6.232 1.78 11.406 5.74 14.449 11.49 3.263 6.17 3.717 13.73 1.461 20.31-2.827 8.24-8.201 12.47-15.722 16.26-4.327.58-8.81.99-13.041-.36a23.1 23.1 0 0 1-13.423-11.53 27.23 27.23 0 0 1-1.635-20.64c2.746-8.28 8.05-12.19 15.635-15.84M1652.81 454.969l1.87.147c2.58 2.439 3.75 7.175 5.02 10.457-49.29 21.761-89.3 44.029-134.3 73.395l-6.87-7.081c39.87-31.121 87.57-57.509 134.28-76.918M356.638 1585.16c3.332-.05 6.197.16 9.336 1.39 6.674 2.61 11.755 7.48 14.305 14.21a26.8 26.8 0 0 1-1.101 21.49c-3.802 7.47-9.247 10.6-17.022 12.93-4.354 0-8.385-.28-12.422-2.07a24.37 24.37 0 0 1-13.321-14.72 25.33 25.33 0 0 1 1.747-19.67c4.191-7.83 10.351-10.99 18.478-13.56m160.063 183.94c3.089.38 6.352 1.04 9.229 2.25a25.96 25.96 0 0 1 14.1 14.78 26.02 26.02 0 0 1-1.001 20.64c-3.95 7.88-9.65 11.03-17.775 13.5-3.691-.36-7.281-.96-10.709-2.45-6.711-2.91-12.082-8.95-14.336-15.89-2.151-6.61-1.63-13.91 1.817-19.98 4.196-7.4 10.813-10.58 18.675-12.85M358.183 167.221c6.053-.623 11.042-1.062 16.689 1.579 6.254 2.924 10.995 8.021 13.324 14.541 2.209 6.186 2.049 13.364-.92 19.274-3.399 6.766-8.767 9.913-15.653 12.392-4.041.571-8.04.704-12.041-.296a24.76 24.76 0 0 1-15.679-12.001 24.64 24.64 0 0 1-1.585-19.584c2.867-8.315 8.238-12.184 15.865-15.905M1529.84 1773.09c4.2.07 8.03.63 11.8 2.59 5.44 2.82 9.21 7.68 10.92 13.52 2.09 7.12 1.21 15.07-2.66 21.43-4.64 7.61-10.74 10.56-19.13 12.71-3.5-.4-6.95-1-10.22-2.38-6.37-2.7-11.85-7.43-14.32-14.02a22.03 22.03 0 0 1 .97-17.54c4.71-9.5 13.13-13.26 22.64-16.31M431.512 329.123c5.516-.128 9.818-.001 14.696 2.798a25.3 25.3 0 0 1 11.835 16.021c1.626 6.717.588 14.143-3.144 20.004-3.865 6.071-9.02 9.159-15.91 10.68-5.023-.03-10.095-.091-14.721-2.307a23.8 23.8 0 0 1-12.139-13.755c-2.266-6.594-1.803-14.184 1.524-20.339 3.995-7.392 10.089-10.692 17.859-13.102M363.849 1831.22c4.72.25 8.987.98 13.175 3.3 5.543 3.08 9.357 8.01 11.013 14.12a25.36 25.36 0 0 1-2.876 19.58c-4.433 7.37-10.531 10.63-18.606 12.74-5.675-.02-10.376-.67-15.257-3.83-5.387-3.48-8.897-8.91-10.232-15.15-1.432-6.69-.281-14.03 3.561-19.74 4.804-7.15 11.024-9.54 19.222-11.02m1256.411-434.14c5.04-.16 9.1-.19 13.73 2.01 6.19 2.94 10.67 7.98 12.87 14.47a25.4 25.4 0 0 1-1.61 20.12c-3.85 7.22-9.64 11-17.21 13.49-3.95.13-7.87.1-11.64-1.26a24.25 24.25 0 0 1-14.31-13.42 25.12 25.12 0 0 1 .1-20.16c3.7-8.15 10.08-11.99 18.07-15.25m-126.84-845.322c3.19.834 5.54 3.269 8.07 5.338-52.32 37.607-85.33 69.71-149.16 91.214-.79.247-1.61.517-2.43.687-1.56.328-3.1 1.001-4.41-.079-1.64-1.354-2.63-3.422-2.42-5.583.52-5.573 9.5-7.21 14-8.859a363.2 363.2 0 0 0 82.38-43.525c18.19-12.835 35.37-26.876 53.97-39.193M356.527 418.112c4.255-.074 8.017.026 12 1.689a24.8 24.8 0 0 1 13.831 14.426c2.399 6.44 2.327 13.844-.714 20.06-3.98 8.139-10.545 11.628-18.825 14.333-4.844-.119-8.93-.579-13.332-2.738-6.219-3.051-10.971-8.351-13.031-15.006a25.26 25.26 0 0 1 2.226-20.087c4.093-7.112 10.199-10.48 17.845-12.677M1611.54 1672.11c5.01 0 9.68.43 14.19 2.8a23.12 23.12 0 0 1 11.65 14.15 27.4 27.4 0 0 1-2.63 21.52c-4.3 7.23-10.29 10.29-18.17 12.39-5.44.03-9.96-.35-14.79-3.07a23.28 23.28 0 0 1-11.17-14.5 27 27 0 0 1 2.89-20.32c4.28-7.28 10.09-10.73 18.03-12.97m-82.16-1446.762c4.99.489 9.36 1.442 13.65 4.188a23.52 23.52 0 0 1 10.4 15.029c1.45 6.785.31 14.182-3.53 20.009-4.91 7.456-11.22 9.901-19.54 11.705-2.14-.327-4.3-.655-6.41-1.164-9.27-2.24-14.3-8.282-18.87-16.221-.58-8.023-.23-16.328 4.53-23.152 4.74-6.793 12-9.061 19.77-10.394m154.32-62.03c5.09.331 9.24 1.211 13.58 3.98 5.91 3.778 9.97 9.432 11.3 16.378a26.47 26.47 0 0 1-4.12 19.835c-4.97 7.243-10.88 9.706-19.21 11.446-4.64-.35-9.2-1.44-13.28-3.738-5.91-3.327-9.98-9.141-11.5-15.704-1.67-7.218-.44-15.239 3.84-21.353 4.94-7.073 11.11-9.543 19.39-10.844m-72.13 162.863c3.96.052 7.69.224 11.4 1.798 6.97 2.962 12.04 8.987 14.44 16.088 2.22 6.556 1.96 13.948-1.26 20.132-3.95 7.588-10.02 10.734-17.89 13.22-5.63-.059-10.53-.271-15.56-3.072a26.4 26.4 0 0 1-12.72-16.132 24.63 24.63 0 0 1 2.82-19.359c4.26-6.995 11.04-10.75 18.77-12.675M1431.65 1591.33c9.95 1.41 44.3 33.78 54.63 41.67 9.08 6.95 18.75 13.54 28.5 19.5 22.67 13.85 46.4 22.04 71.5 30.16l-3.11 10.59a448 448 0 0 1-8.45-2.46c-48.93-14.81-89.22-39.78-125.75-75.31-5.64-5.49-14.52-12.29-17.96-19.47-1.01-2.12-.16-2.62.64-4.68m252.22 241.9c4.15.27 7.87.73 11.69 2.48 6.29 2.91 10.88 7.86 13.07 14.46a26.6 26.6 0 0 1-1.49 20.34c-4.28 8.36-10.62 12.02-19.31 14.68-4.93-.01-9.4-.65-13.83-2.97a26.28 26.28 0 0 1-13.39-16.81 24.95 24.95 0 0 1 2.85-19.56c4.73-7.62 11.93-10.88 20.41-12.62m1.61-1412.027c4.57-.188 8.74-.007 13.05 1.634a23.7 23.7 0 0 1 13.87 13.853 26.7 26.7 0 0 1-.48 20.209c-3.84 8.574-10.46 12.49-18.91 15.576-5.26.177-9.91-.098-14.76-2.4a25.05 25.05 0 0 1-13.12-15.12 26.17 26.17 0 0 1 1.87-20.194c4.15-7.668 10.42-11.083 18.48-13.558m152.48 1189.087c4.66-.56 9.77-1.1 14.36.07 7.18 1.83 13.52 6.53 17.04 13.09a24.58 24.58 0 0 1 1.7 19.48c-2.93 8.59-9.62 13.1-17.5 16.73-5.42 1.46-10.51 1.64-15.85-.36-7.05-2.64-12.6-8.42-15.38-15.37-2.6-6.5-2.68-13.82.22-20.23 3.21-7.08 8.42-10.57 15.41-13.41m-154.56-28.08c5.92-.43 11.44-.45 16.81 2.44 6.07 3.26 10.31 8.78 12.14 15.4 2 7.25 1.06 15.36-2.88 21.82-4.31 7.08-10.26 10.16-18.09 12.05-4.76.06-9.43-.12-13.88-2.02a25.23 25.23 0 0 1-13.79-14.56 26.38 26.38 0 0 1 1.02-20.32c3.97-8.22 10.3-12.02 18.67-14.81m138.23 9.27 2.2.22c1.37 6.08 1.88 10.8 5.34 16.22l-7.17 6.55c-13.28-.99-26.81-.45-40.13-.5a1083 1083 0 0 1-54.62-1.61l-8.97-.57c-.59-5.97-1.45-11.82-2.49-17.73 35.64.82 70.32.65 105.84-2.58m-1624.242 17.77c5.045-.41 10.339.07 15.056 2a23.6 23.6 0 0 1 13.486 14.02 26.25 26.25 0 0 1-1.34 20.45c-4.298 8.66-11.293 13-20.074 16.1-4.951.28-10.058-.86-14.516-3a26.37 26.37 0 0 1-13.388-15.03 25.73 25.73 0 0 1 1.351-20.24c4.244-8.27 10.916-11.69 19.425-14.3M1841.74 381.088c5.78-.319 11.12.465 16.33 3.123a25.24 25.24 0 0 1 12.68 15.069 26.27 26.27 0 0 1-2.06 20.036c-4.13 7.763-10.86 12.178-19.08 14.653-5.23.322-10.12-.275-14.92-2.423-6.45-2.878-11.56-8-13.85-14.737-2.29-6.715-1.5-14.359 1.62-20.676 4.21-8.51 10.52-12.287 19.28-15.045m-1640.017-1.026c5.474-.252 10.855.512 15.682 3.273 6.248 3.574 10.481 9.729 12.265 16.636 1.892 7.327 1.105 15.376-2.933 21.864-4.409 7.084-10.562 10.143-18.446 11.98-4.423.198-9.3-.448-13.317-2.37-7.2-3.444-12.531-9.452-14.972-17.059-2.1-6.545-1.783-13.772 1.562-19.852 4.462-8.113 11.601-11.862 20.159-14.472M615.019 1594.99c2.2 1.76 4.254 3.87 6.327 5.8-44.915 44.39-91.553 74.23-153.096 90.5l-2.212.23c-1.884-2.21-2.103-4.63-2.769-7.4 55.866-23.15 103.93-52.04 151.75-89.13M464.395 354.14a467 467 0 0 1 17.146 5.18c45.841 15.129 83.721 41.3 121.159 70.975 5.726 4.538 16.622 11.182 19.794 17.455l-4.757 5.152c-.871.723-.399.399-1.684 1.055-2.921 1.491-13.935-8.505-16.475-10.562-41.859-33.89-85.683-60.865-137.06-77.646zm900.335 1305.57c21.14 18.72 40.45 40.17 60.13 60.42 12.25 12.6 24.33 25.61 38.91 35.59 13.08 8.95 27.91 15.26 42.22 21.93l-5.35 8.92a181.3 181.3 0 0 1-49.46-24.87c-27.37-19.69-70.87-68.05-93.88-94.33 2.3-2.69 4.93-5.15 7.43-7.66m-1148.988-70.7c37.673 5.17 76.44 6.09 114.421 7.48-1.31 4.54-1.678 9.15-3.858 13.41l-2.464.66c-30.562 4.71-61.964 6.35-92.863 6.15-4.5-5.35-13.472-9.89-16.277-15.84-1.852-3.92-.189-8.04 1.041-11.86M550.523 258.242c47.338 19.611 84.035 60.247 117.913 97.354 7.582 8.304 16.657 16.169 23.176 25.305-.675 3.097-2.464 4.234-4.648 6.474l-1.04.769c-5.217-.199-18.311-16.312-22.624-20.684-35.615-36.096-69.164-71.992-114.313-96.338.747-4.253 1.089-8.587 1.536-12.88M683.946 1659.61c4.042 1.45 7.927 5.87 11.079 8.73-43.288 43.07-80.941 88.62-137.623 114.66-2.726 1.3-5.504 3.07-8.618 2.12-2.21-.67-2.251-1.7-3.392-3.55 3.348-6.96 33.978-22.91 42.319-29.72 34.389-28.05 64.996-60.8 96.235-92.24M1494.02 261.955l1.42-.011c3.05 1.937 4.89 6.418 6.66 9.513-55.98 27.738-97.49 74.225-140.48 118.332-3.68-2.437-6.75-5.504-9.95-8.513 8.98-9.924 19.51-18.759 28.75-28.547 36.89-39.098 61.67-69.772 113.6-90.774m84.03 95.256 1.95.022c2.83 3.397 4.1 8.888 5.59 13.048-42.04 12.424-79.41 29.612-113.93 56.8-12.31 9.688-23.88 20.277-36.14 30.031a830 830 0 0 1-9.05-8.007c42.71-42.125 92.3-78.065 151.58-91.894m-89.58 1154.539c2.35 1.34 3.98 2.66 5.93 4.49-4.35 6.96-57.3 55.11-66.96 64.29a3731 3731 0 0 0-83.13 82.8c.24 3.9.87 8.5-.52 12.25-1.3 3.53-3.77 6.97-7.36 8.4-5.15 2.05-11.02.4-15.8-1.82-1.43-1.48-2.93-2.99-4.15-4.65-2.78-3.81-4.33-9.11-3.53-13.8 1.19-7.03 5.54-10.47 11.17-14.22 3.51 2.15 7.13 4.16 10.69 6.23 15.74-16.71 33.18-32.34 49.84-48.15a4213 4213 0 0 1 103.82-95.82M460.004 632.2c11.802 4.895 23.274 12.231 34.443 18.457a2096 2096 0 0 0 57.544 31.21c26.379 13.664 52.947 27.395 79.807 40.09 23.034 10.887 46.477 20.801 69.381 31.985.18 3.859 1.204 9.547-1.232 12.719l-2.622-.51a5053 5053 0 0 1-157.009-78.677c-29.241-15.259-58.952-30.188-87.443-46.812zm292.578 773.21c21.262-2.23 43.591-.06 64.964.36-4.146 3.47-8.058 7.28-12.039 10.94-74.174-17.09-149.511 24.2-211.343 60.34-12.821 7.96-25.561 16.16-38.763 23.48l-8.823-8.03c61.055-43.05 130.529-80.26 206.004-87.09M1337 1282.03c31.84 17.69 65.4 32.07 98.54 47.09 53.89 24.44 108.36 48.61 161.13 75.38-.81 3.43-1.39 6.98-3.3 9.99-2.92.82-3.99-.02-6.79-1.03-88.58-39.07-172.09-91.05-264.73-120.45 4.83-3.95 10.03-7.42 15.15-10.98m250.48-648.051c3.52 1.873 6.14 5.087 8.87 7.94-19.33 13.45-42.78 22.952-63.66 33.917-60.73 31.9-121.25 62.525-184.06 90.186-2.25 1.03-1.06.689-3.58.997-2.23-3.451-1.1-10.685-.97-14.827a2236 2236 0 0 0 243.4-118.213"/><path fill="#fefefe" d="M1322.92 364.106c3.33-.41 7.57-.799 10.78.38 15.18 5.582 6.59 19.083 10.17 25.158 5.11 8.683 32.75 30.559 41.77 38.604l138.61 124.609c21.33 19.146 44.05 37.364 64.63 57.268 1.92 1.859 3.8 4.257 4.76 6.779.89 2.342.65 3.414-.46 5.547-2.94.02-3.49-.915-5.78-2.649-16.52-15.572-33.84-30.218-50.68-45.439l-107.98-97.529a5873 5873 0 0 1-92.41-82.737c-3.63 1.294-7.31 2.307-11.2 1.798-4.46-.584-8.75-2.922-11.34-6.655-2.43-3.518-2.99-7.882-1.97-11.988 1.57-6.291 5.78-9.908 11.1-13.146M717.572 1284.97c3.791 1.26 7.584 5.69 10.609 8.38-20.226 9.23-41.857 16.41-62.558 24.64a1275 1275 0 0 0-66.246 29.17 1343 1343 0 0 0-75.189 37.04c-19.916 10.5-39.501 21.89-59.872 31.49l-2.27.14c-3.664-2.53-5.785-6.52-8.201-10.18a1952 1952 0 0 1 263.727-120.68M390.363 453.194a650 650 0 0 1 116.38 61.786c27.74 18.705 54.2 39.308 80.976 59.348 18.941 14.177 37.644 28.899 58.711 39.856 17.738 9.224 36.269 15.621 55.704 20.162.038 4.424.807 10.972-1.491 14.707-24.607-7.464-52.112-19.684-73.636-33.683-31.909-20.754-60.353-46.951-91.911-68.262-30.972-20.915-62.293-41.126-95.438-58.456-17.354-9.074-35.467-16.91-53.267-25.072zm748.657 398.638c9.71-.097 19.43.085 29.14.142 1.29 52.146.02 104.645 0 156.826l-28.61-.03zM423.431 1399.08a27.46 27.46 0 0 1 12.075 2.26c7.858 3.4 10.34 10.36 13.224 17.81.843 2.18 1.592 4.8 3.065 6.65 3.504 4.41 13.052 10.03 17.941 14.12 13.076 10.95 25.617 22.8 38.456 34.06l115.483 101.35c28.314 24.75 59.926 51.12 85.948 78.02l-5.417 7.41-15.805-14.7c-44.489-39.91-88.234-80.57-133.397-119.73a3743 3743 0 0 1-72.863-63.98c-10.834-9.74-23.881-19.73-32.764-31.29-3.413 5.26-7.16 10.55-12.804 13.57-4.95 2.65-10.338 3.35-15.697 1.51-6.525-2.23-11.575-7.47-14.264-13.75-2.583-6.03-2.832-13.03-.208-19.09 3.336-7.71 9.505-11.34 17.027-14.22m812.229 5.97c29.93-.52 59.87-.79 89.51 4.08 68.38 11.25 136.59 53.42 192.05 93.22 54.5 39.12 83.73 61.07 149.57 82.59l-6.96 10.46-1.14 1.16c-5.86-.28-12.64-3.54-18.17-5.71-15.71-6.15-31.14-13.47-45.49-22.38-12.31-7.65-23.7-17.42-35.34-26.08-12.77-9.5-26.04-18.18-39.43-26.78-47-30.21-138.59-84.62-191.86-97.82-27.62-6.84-54.46-7.81-82.24-1.77-3.89-3.29-7.14-7.15-10.5-10.97m-1124.546-1.88c3.652-.22 7.858-.45 11.384.67 3.531 1.11 5.984 3.69 7.309 7.1 3.136 8.07 2.741 18.8 3.527 27.39 1.331 14.56 5.434 29.77 11.893 42.91 7.748 15.75 20.505 28.75 37.467 34.24 52.855 17.1 165.588-53.44 214.351-78.42 2.379 3.21 6.199 6.1 5.807 10.24l-3.344 2.47c-16.958 10.47-34.662 20.11-52.23 29.5-53.813 28.78-116.121 57.52-178.411 42.71-20.246-4.81-35.765-16.62-46.441-34.47-8.638-14.43-26.037-59.73-21.347-75.13 1.551-5.09 5.555-7.02 10.035-9.21m1813.596.92c4.19-.62 8.96-.83 12.91.94 3.71 1.67 6.41 4.96 7.72 8.78 5.84 17-6.05 55.2-14.28 70.85-9.4 17.89-23.43 29.91-42.85 35.77-16.9 5.1-56.04 9.35-73.24 6.66-47.01-7.36-118.03-50.31-161.54-73.34-4.47-2.11-8.51-4.8-12.65-7.47l8.88-10.63a5596 5596 0 0 0 82.63 44.78c18.79 9.87 37.96 20.25 57.98 27.41a192 192 0 0 0 40.49 9.58c19.46 2.48 37.74 1.13 53.71-11.5 27.48-21.71 28.28-55.81 32.37-87.54.81-6.23 1.98-9.82 7.04-13.68.27-.21.55-.41.83-.61m-83-884.653c16.11-.844 34.08 2.332 48.78 9.004 22.42 10.171 39.2 30.754 47.78 53.507 5.29 14.033 12.71 41.019 5.75 55.102-1.77 3.588-4.7 6.535-8.62 7.631-3.74 1.046-8.32.535-11.7-1.38-3.03-1.711-6.12-5.142-7.07-8.515-1.65-5.86-1-13.563-1.34-19.679a115 115 0 0 0-4.75-27.501c-5.78-19.225-18.69-36.086-36.55-45.438-25.64-13.428-54.73-8.121-81.02.316-50.21 18.812-98.18 45.614-146.14 69.494l-6.81-9.746c15-9.652 32.8-16.919 48.77-24.959 47.93-24.137 98.37-54.277 152.92-57.836m-1650.182-.045c47.351-6.363 113.961 30.528 155.571 52.211a3042 3042 0 0 1 59.046 31.306l-5.712 10.732c-14.159-6.373-27.928-14.447-41.691-21.695-29.386-15.474-58.786-30.864-89.46-43.666-24.053-9.798-54.573-18.839-80.47-11.507-29.888 8.462-50.128 37.921-54.331 67.79-1.496 10.635.388 24.597-5.379 34.066-2.06 3.383-5.266 5.862-9.208 6.562-4.255.755-8.573-.649-11.979-3.199-3.72-2.785-6.369-6.892-6.984-11.523-.896-6.751.955-13.831 2.287-20.409 4.364-21.544 10.079-39.823 24.29-57.117 17.229-20.967 37.302-31.014 64.02-33.551m879.662 759.728a10600 10600 0 0 0 248.24.84 873 873 0 0 1-49.82 35.29 1815 1815 0 0 1-81.48 48.92 1627 1627 0 0 0-72.29-53.99c-14.74-10.35-30.72-19.68-44.65-31.06"/><path fill="#fefefe" d="M1273.66 1424.43c48.89-4.9 96.67 21.41 138.39 43.4 22.65 11.94 44.97 24.12 67.04 37.08-12.85 11.65-25.92 22.99-38.58 34.86-8.04 7.24-15.79 14.89-23.64 22.34-19.63-19.86-42.49-37.15-65.7-52.6-12.47-8.29-25.7-15.78-37.48-25.03-8.72-6.84-16.15-15.86-23.77-23.9a1069 1069 0 0 0-34.04-34.77c5.86-.75 11.88-.97 17.78-1.38m-506.631.99c9.106-.53 18.116.31 27.19 1-10.775 10.72-22.898 20.54-34.234 30.7a1348 1348 0 0 1-132.274 106.25c-5.851-6.14-12.653-11.5-19.085-17.02a2937 2937 0 0 1-44.025-37.22c14.903-7.04 28.388-17.43 42.522-25.91 50.111-30.05 100.754-53.62 159.906-57.8M641.306 475.746c17.375 8.446 85.655 80.746 106.345 100.567 15.755 15.092 32.68 28.928 48.3 44.122-24.102.803-48.331.431-72.451.483-62.04.875-107.801-41.587-154.811-76.105 7.882-8.964 17.238-16.976 25.918-25.178zm766.614-.919c25.9 22.237 50.69 45.75 76.6 67.983-18.01 11.73-34.29 25.633-51.75 38.093a377 377 0 0 1-66.69 37.325c-5.88 2.581-15.65 7.72-22.12 7.009l-1.46-3.765-2.25-.805c-28.28-.388-56.62.674-84.88-.464 14.81-17.945 37.87-36.23 55.21-52.5zm-868.508 91.007c8.971 3.876 17.691 13.85 25.873 19.633 19.071 13.48 37.196 28.769 56.632 41.633 23.876 15.803 52.227 26.824 79.596 34.642l-.301 77.107c-15.626-5.219-30.986-13.237-45.901-20.201-21.91-9.351-43.217-20.767-64.465-31.527a2680 2680 0 0 1-118.5-63.295c21.411-20.238 44.959-38.503 67.066-57.992m970.808.978c3.29 1.217 60.43 53.088 67.42 59.167-17.75 9.954-36.21 18.723-54.22 28.209-42.61 22.443-85.09 44.686-129.35 63.785l-49.22 21.082c-.31-25.19.02-50.419.06-75.613 33.67-8.697 68.41-26.446 97.04-46.23 10.83-7.48 20.92-16.067 31.4-24.023a1011 1011 0 0 1 36.87-26.377M982.715 797.465a761 761 0 0 1 30.215.822c12.34 25.886 22.73 52.885 33.78 79.347l55.39 131.146c-9.74.14-19.5.03-29.24.03-6.1-16.553-13.82-32.692-20.89-48.856-13.88-.384-27.83-.187-41.72-.26l-73.164.311c-6.771 16.118-13.99 32.076-20.995 48.095l-28.063-.01c8.302-23.897 20.168-46.418 30.524-69.467z"/><path fill="#010101" d="M996.301 824.681c4.219 4.895 41.899 100.808 46.879 113.875-16.68.388-33.46-.079-50.146-.194-15.835-.02-31.684.273-47.519.417a6308 6308 0 0 0 29.228-65.813c7.056-16.135 13.68-32.53 21.558-48.285"/><path fill="#fefefe" d="M300.74 467.45c11.582-.304 23.289.318 34.842 1.076 5.979 4.78 11.702 8.775 19.439 10.202 9.164 1.69 16.321-1.433 23.806-6.39 21.306 11.689 43.796 21.151 65.259 32.629 23.867 12.763 46.529 27.76 69.334 42.3-22.322 19.646-48.099 35.727-71.083 54.689-8.76-4.181-14.879-5.207-24.563-5.006-17.841-13.926-41.252-23.851-61.269-34.455-32.086-16.934-65.529-35.222-100.142-46.358-39.649-12.756-76.167-13.109-113.514 5.992-9.11-.477-18.367-.107-26.035-5.858-3.533-2.65-6.367-6.588-6.819-11.074-.424-4.196 1.504-8.155 4.351-11.13 3.571-3.731 8.375-6.079 13.249-7.605 11.84-3.708 26.047-4.552 38.365-6.342 45.035-6.543 89.33-10.747 134.78-12.67m1416.7-.968c62.13-1.54 133.39 5.87 194.44 18.419 7.15 1.47 18.48 3.53 22.52 10.177 2.25 3.695 2.93 8.584 1.7 12.743-7.28 24.565-46.2 7.402-62.68 3.201-7.79-1.987-15.92-2.835-23.94-3.23-47.63-2.347-95.86 22.962-137.16 44.153-24.78 13.258-50.07 26.315-75.46 38.377-11.65 5.534-24.15 7.793-34.82 15.227a1812 1812 0 0 1-66.06-58.352c36.08-27.575 89.63-55.871 132.14-72.242 6.67 3.555 13.57 6.197 21.23 6.092 11.87-.163 20.09-6.607 28.09-14.565M538.125 1527.79c4.398 1.17 59.376 52.07 68.915 59.95-49.977 32.49-91.43 65.83-149.454 85.14-3.362-3.15-6.789-6.13-10.885-8.31-6.854-3.65-14.794-4.53-22.19-2.08-9.402 3.11-15.335 10.24-19.646 18.81a867 867 0 0 1-118.867-7.42c-20.158-.74-49.369-7.2-70.328-10.23 11.662-11.26 15.296-19.67 16.346-35.78 33.82.45 66.533-2.34 100.097-6.29 4.733 8.14 9.973 15.27 19.527 17.89a27.67 27.67 0 0 0 22.07-3.46c9.245-5.95 12.972-15.27 14.99-25.57 55.073-17.47 102.041-50.62 149.425-82.65m1067.125-78.6c9.29 4.84 18.3 2.68 27.23 6.99 54.43 26.27 117.03 71.5 176.89 81.79a140.6 140.6 0 0 0 34.58 1.59c15.92-1.28 76.67-13.88 87.38-8.37 4.18 2.15 9.68 7.55 10.62 12.33.51 2.62-.37 5.12-1.87 7.23-10.23 14.3-48.93 17.96-66.3 21.25a1098 1098 0 0 1-42.39 6.9c-27.79 3.84-55.08 4.41-83.11 4.22-11.9-.08-24.87.33-36.6-1.67-5.39-.92-9.53-5.18-14.85-6.42-7.47-1.75-15.33 1.59-23.11-.22-8.08-1.87-16.3-5.33-24.08-8.26-42.33-15.93-78.72-39.85-114.57-67.01 21.63-19.6 45.46-34.99 70.18-50.35m-98.22 73.8a497 497 0 0 1 45.44 29.03c14.43 10.42 28.36 21.79 43.61 31.01 18.88 11.42 39.38 18.73 59.6 27.29 3.01 8.65 6.26 16.11 13.67 22a30 30 0 0 0 23.58 6.26c9.52-1.57 16.45-7.61 21.82-15.28 33.46 1.85 66.95 1.59 100.45 1.54a147 147 0 0 0-.24 6.49c-.23 13.89 5.55 21.52 14.77 31.11a975 975 0 0 1-62.54 8.9c-40.88 7.31-86.32 7.04-127.72 5.23-5.97-6.27-12.57-12.26-21.48-13.56-9.59-1.4-16.99 3.76-24.28 9.1-46.49-11.64-83.43-34.71-120.16-64.73-9.95-8.13-20.24-16.19-29.17-25.45 14.35-15.13 46.63-48.31 62.65-58.94"/><path fill="#fefefe" d="M357.482 373.469c16.956-.509 33.849.648 50.801.517 6.429 6.439 13.799 12.363 23.243 13.143 10.305.852 17.397-4.631 24.742-10.915 65.276 22.833 95.811 45.577 150.555 86.808-20.982 20.953-42.871 40.865-63.101 62.586-15.493-10.372-30.695-20.977-46.536-30.84a482.7 482.7 0 0 0-106.527-53.843c-3.314-9.652-7.441-18.355-16.465-23.963-6.43-3.996-14.423-5.426-21.769-3.401-9.116 2.513-14.164 8.379-18.588 16.295-34.187-3.066-68.367-3.786-102.667-3.743 1.559-3.124 2.947-6.543 3.675-9.961 2.656-12.464-1.266-22.474-8.054-32.689a1246 1246 0 0 1 130.691-9.994m1308.138-2.007c53.48-.109 105.96 4.494 158.87 11.979-7.24 11.262-9.55 19.18-9.84 32.605l5.89 10.981c-35.81-.015-71-1.142-106.85 1.031-3.45-3.56-7.46-6.775-12.01-8.794-8.01-3.552-17.17-3.877-25.26-.383-10.18 4.4-14.96 12.467-19.05 22.181-29.69 10.879-57.29 25.029-84.54 41.009-21.34 13.207-42.09 27.228-63.3 40.633-22.29-17.962-43.39-37.715-64.5-57.049 11.21-9.088 21.56-19.233 32.89-28.247 34.28-27.264 72.98-46.162 115.2-57.582 7.51 4.531 14.69 8.096 23.77 7.583 11.27-.636 19.16-7.256 26.27-15.329zM449.856 1448.93c20.153 15.8 42.16 37.86 62.09 55.28-12.778 7.31-24.955 15.96-37.376 23.89-32.299 20.6-65.55 40.45-102.035 52.72-3.633-1.86-7.026-3.47-11.126-4-9.933-1.28-17.51 3.81-24.863 9.71-19.131-2.9-39.545-2.37-58.958-3.64a1213 1213 0 0 1-99.014-10.23c-16.865-2.29-34.092-4.05-50.794-7.23-6.177-1.18-12.841-3.67-16.261-9.3-2.469-4.07-2.722-9.1-1.595-13.64 1.325-5.34 6.977-12.54 12.648-13.65 12.564-2.45 44.942 5.96 59.527 7.67 13.184 1.55 26.883 1.6 40.134.7 62.409-4.27 138.921-51.64 192.03-82.86 14.909 3.69 22.269 2.02 35.593-5.42m860.234-146.1c44.98 10.12 108.57 43.1 151.27 64.1a4602 4602 0 0 0 117.56 56.42c-9.31 7.94-19.34 15.09-28.79 22.86-13.71 11.29-26.86 23.27-40.01 35.18-9.02-6.02-18.36-11.58-27.61-17.26-53.11-33.71-109.34-63.8-173.05-70.45-29.18-3.05-58.05-1.85-87.26-.28-8.15-6.5-16.02-13.13-23.74-20.13 17.04-10.83 34.74-20.71 51.88-31.43 20.19-12.63 39.77-26.07 59.75-39.01m-569.765-.86c7.635 2.67 37.676 26.47 46.87 32.76a3632 3632 0 0 0 64.9 42.8c-6.184 5.01-12.747 9.63-19.133 14.39-24.874 2.07-50.137-1.45-75.153-.04-67.95 3.83-132.652 36.4-189.198 71.98a638 638 0 0 0-31.349 20.68c-21.654-19.72-43.922-38.7-65.37-58.67 23.765-15.19 50.643-27.98 75.931-40.58 62.339-31.07 126.795-60.06 192.502-83.32m679.405 302.73c10.99 9.77 20.61 21.34 31.57 31.28a295.74 295.74 0 0 0 132.27 69.72c1.97 4.3 3.85 8.68 6.94 12.32 5.58 6.56 13.2 11.08 21.89 11.65 9.53.62 17.59-3.33 24.69-9.35 43.76 1.35 86.81.45 130.41-3.67 21.21-2 42.75-6.36 63.92-7.66 4.56-.28 9.4.86 13.31 3.23s7.14 6.1 8.14 10.65c.77 3.52.04 6.9-2.14 9.79-8.49 11.29-38.13 13.01-51.95 15.35-71.42 13.12-144.32 29.72-217.3 25.88-10.07-.53-20.64-.74-30.45-3.26-4.39-1.13-8.2-3.56-12.35-5.28-8.22-3.4-17.17.93-24.86 4.03-14.42-9.36-31.11-14.64-45.1-24.82-13.54-9.86-25.16-22.28-36.85-34.18-19.45-19.8-38.41-40.39-58.81-59.19a2838 2838 0 0 1 46.67-46.49m-789.732 4.13c14.591 10.09 32.6 29.99 45.878 42.68-41.564 42.52-83.907 89-136.96 117.16-2.1-1.59-4.228-3.26-6.475-4.64-6.694-4.1-14.585-6.01-22.315-4.09-9.471 2.36-16.378 9.47-21.284 17.56-80.703-1.38-154.685-12.11-233.608-27.66-14.13-2.55-37.848-4.52-49.726-11.59a13.62 13.62 0 0 1-6.354-8.93c-1.027-4.93-.627-10.8 2.371-14.99 3.808-5.34 10.973-6.86 17.137-7.06 16.097-.5 43.789 6.05 61.307 8.06a531.5 531.5 0 0 0 128.845-1.76c3.806 3.82 7.475 7.64 12.355 10.11 7.042 3.56 14.731 4.32 22.208 1.65 10.018-3.57 15.555-11.47 19.771-20.71 53.298-11.36 98.393-35.85 139.624-70.82 9.318-7.9 18.967-15.96 27.226-24.97"/><path fill="#fefefe" d="M1557.68 270.94c82.07-1.113 161.26 12.603 241.71 26.56 9.54 1.655 36.21 3.468 43.18 9.016 4.27 3.392 6.88 8.928 7.29 14.314.37 4.708-1.28 8.304-4.36 11.78-4.38 4.944-9.94 6.126-16.3 6.367-20.89.794-43-4.545-64.06-5.879-41.73-2.646-82.38-1.738-124.06.813-3.75-3.93-7.54-7.401-12.51-9.728-8.05-3.765-17.07-4.358-25.42-1.19-9.23 3.499-17.14 11.827-21.16 20.782-61.5 10.958-119.9 54.542-163.61 97.099-16.55-14.076-32.5-28.932-48.4-43.732 44.45-42.112 83.11-91.168 140.38-116.658 7.08 3.222 14.39 5.696 22.29 5.157 10.96-.748 17.99-7.039 25.03-14.701m-1115.54-.395a938 938 0 0 1 50.253-.414c5.671 7.884 13.781 15.79 23.585 17.799 9.425 1.932 17.528-1.876 25.121-7.109 50.134 23.624 95.715 77.473 135.549 116.525-14.319 14.63-29.269 28.412-44.596 41.978-39.596-32.872-80.397-64.403-127.954-84.859a327 327 0 0 0-41.613-13.306c-2.575-3.583-5.246-7.165-8.61-10.059-5.864-5.045-13.542-7.849-21.289-7.237-10.059.796-17.482 6.448-23.977 13.689a641 641 0 0 0-131.253-4.287c-18.295 1.204-36.903 4.902-55.157 5.03-5.3.038-12.355-.287-16.639-3.8-3.551-2.912-6.295-7.135-6.618-11.793-.313-4.519.576-9.059 3.747-12.453 2.39-2.558 5.741-4.224 9.014-5.339 12.914-4.399 28.388-5.999 41.819-8.712 36.971-7.469 73.747-15.119 111.228-19.654a788 788 0 0 1 77.39-5.999m258.696 521.326c2.312 18.098.288 45.658.322 64.724l-.009 147.085c-19.772-11.932-33.582-24.71-39.608-47.491 1.534.169 3.076.336 4.619.385 4.154.132 9.663-1.502 12.471-4.772 1.75-2.038 2.367-4.73 2.13-7.356-.395-4.364-2.902-8.671-6.395-11.288-3.033-2.274-6.792-3.493-10.574-2.755-4.071.795-7.045 3.835-9.047 7.314a37.68 37.68 0 0 0-3.151 29.948c7.299 22.933 29.348 39.135 49.785 49.625.716 81.94.922 164.04 0 245.98-11.651-9.84-23.881-18.96-36.034-28.15a2602 2602 0 0 1-95.404-74.88c-16.809-13.72-35.544-27.2-49.641-43.77-25.644-30.15-31.381-68.04-27.917-106.49 1.937-21.518 8.729-42.933 21.231-60.716 17.337-24.66 42.853-42.183 65.989-60.932 40.08-32.479 81.728-63.352 121.233-96.461m642.764-2.289c18.2 11.561 35.26 26.91 52.35 40.138a7563 7563 0 0 1 67.26 52.777c23.95 18.943 51.3 38.023 69.83 62.512 21.89 28.927 30.23 65.911 25.08 101.661-2.77 19.24-10.01 39.05-21.12 55.05-19.2 27.68-49.68 49.64-75.71 70.61a2498 2498 0 0 1-91.79 71.08l-24.89 18.43c-1.79-79.12-.66-158.59-.45-237.74 14.82-8.37 29.9-17.28 40.44-31.006 8.48-11.037 14.89-27.75 12.74-41.762-.91-5.897-3.73-11.961-8.8-15.386-2.69-1.82-5.77-2.587-8.97-1.792-3.95.981-7.59 4.378-9.43 7.942-1.59 3.086-1.68 6.64-.58 9.901.95 2.827 2.87 5.129 5.69 6.201 1.83.693 3.64.746 5.27-.261-1.9-2.091-5.43-5.427-6.23-8.177-.71-2.436-.42-4.49 1.33-6.448 1.83-2.043 3.68-2.027 6.17-2.244 2.48 1.148 3.31 1.501 4.66 4.061 2.58 4.915 1.64 12.853.3 17.963-5.96 22.77-23.27 36.024-42.86 47.028z"/><path fill="#fefefe" d="M417.44 195.416c24.159-2.491 52.524-.82 76.849 1.22 173.242 14.528 288.459 147.526 399.217 266.435l94.13 101.836c16.654 18.132 33.774 35.907 49.644 54.729-28.07 1.003-56.414.368-84.523.371a13371 13371 0 0 1-141.13-.419c-17.163-16.561-35.351-32.038-52.432-48.669-32.277-31.426-63.413-63.602-96.876-93.834-3.755-3.241-7.333-6.716-10.967-10.093 19.62-19.609 40.738-37.947 59.739-58.113 12.689 13.84 25.084 27.983 38.101 41.516 13.045 13.559 26.699 26.612 39.173 40.701-.426 8.134.096 17.954 5.806 24.404 2.149 2.427 5.075 3.949 8.359 3.998 5.306.081 10.71-2.563 14.35-6.329 3.94-4.075 6.136-10.004 5.663-15.671-.307-3.669-1.933-7.022-4.803-9.368-5.654-4.621-13.113-5.59-20.096-5.103-26.889-26.903-56.46-55.405-79.694-85.463 2.691-.311 5.435-.606 8.052-1.329 6.106-1.685 12.567-5.781 15.438-11.615 2.62-5.325 2.596-11.729.466-17.211a22.83 22.83 0 0 0-12.609-12.805c-5.104-2.077-10.873-2.251-15.929.07-7.565 3.473-10.865 10.269-13.653 17.628-36.152-39.467-72.488-83.208-118.57-111.488-9.9-6.076-20.537-10.615-30.982-15.639-3.359-7.419-6.824-13.763-13.785-18.496a26.58 26.58 0 0 0-20.325-4.168c-10.477 2.088-17.151 9.023-22.94 17.422-35.195-4.962-69.966-6.453-105.509-5.361a558 558 0 0 0-56.131 4.599c-14.952 2.072-31.027 5.791-46.132 5.673-4.021-.031-7.146-.558-10.557-2.785-4.682-3.056-7.413-7.444-8.357-12.92-.673-3.9.13-7.721 2.646-10.829 9.202-11.366 55.287-12.816 70.426-14.058 4.467 6.585 9.054 11.832 16.697 14.791a26.74 26.74 0 0 0 20.429-.448c9.641-4.313 14.112-12.198 17.808-21.522zM862.486 1385.78c6.7.39 129.15 78.64 144.034 90.6-55.313 40-100.97 95.18-147.063 144.99-43.29 46.78-89.135 92.36-138.487 132.77-98.916 80.99-199.589 110.33-326.6 97.75-3.154-8.64-6.76-15.93-14.83-20.98-6.509-4.07-14.63-5.08-22.018-3.17-8.761 2.27-14.529 8.18-18.818 15.84-12.626-1.34-59.21-4.71-67.33-12.03-2.877-2.59-4.263-6.64-4.198-10.44a19.08 19.08 0 0 1 6.244-13.7 18.47 18.47 0 0 1 10.451-4.71c17.639-1.74 39.671 3.27 57.648 5.16a1053 1053 0 0 0 53.404 3.92c31.95 1.29 62.66-.28 94.479-3.07 5.345 7.57 12.084 13.43 21.264 15.7 7.341 1.81 15.417 1.01 21.9-3.04 8.048-5.04 11.349-12.35 13.514-21.18 67.185-21.52 109.901-76.71 157.71-124.6.258.3.519.61.774.91 4.599 5.55 8.769 9.99 16.156 11.36a18.5 18.5 0 0 0 14.941-3.6c4.371-3.36 7.224-8.62 7.926-14.06.662-5.14-.49-10.33-3.822-14.36-5.574-6.75-12.792-7.75-20.954-8.26 12.985-14.19 26.829-27.71 40.054-41.69 12.992-13.74 25.426-27.98 38.672-41.48 2.296.58 4.61 1.15 6.979 1.34 5.835.48 12.349-.54 16.753-4.69 4.196-3.95 6.758-10.57 6.818-16.28a19.27 19.27 0 0 0-5.78-13.95 21.9 21.9 0 0 0-15.883-6.31c-5.47.11-10.532 2.29-14.127 6.45-6.109 7.08-5.652 15.93-4.77 24.58-23.604 28.56-50.426 54.81-75.095 82.49-20.204-16.55-39.696-34.48-58.967-52.13a2831 2831 0 0 0 57.726-57.37c48.325-50.13 95.221-101 151.295-142.76M1559.75 194.589c31.4-2.586 63.71-.948 94.97 2.574 3.47 6.603 7.05 12.507 13.22 16.997 6.42 4.674 14.17 6.663 22.01 5.173 9.92-1.883 16.28-8.368 21.73-16.341 11.76 1.38 55.08 4.227 63.8 10.64 3.27 2.407 5.25 6.12 5.83 10.107.64 4.465-.34 8.929-3.11 12.516-3.87 5.01-10.05 7.192-16.18 7.598-17.34 1.149-44.05-3.935-62.2-5.581-31.01-2.813-62.42-3.423-93.54-3.252-15.73.087-32.13-.181-47.75 1.693l-1.13.145-.96-1.442c-4.46-6.803-9.05-11.693-16.98-14.357-7.79-2.616-16.57-1.661-23.78 2.227-10.12 5.46-14.14 14.048-17.19 24.519-70.6 24.619-101.6 73.982-152.81 122.63-3.06-4.384-6.43-7.737-11.7-9.261-5.11-1.475-10.43-.711-15.02 1.934a21.67 21.67 0 0 0-10.33 14.22c-4.26 20.421 16.97 19.658 21.87 27.677-6.24 9.987-23.99 24.077-33 32.673a3378 3378 0 0 0-46.77 45.777c-7.66-1.033-15.57-1.62-22.06 3.413-3.69 2.863-5.68 7.179-5.94 11.799a19.67 19.67 0 0 0 5.35 14.646c3.14 3.28 7.48 5.34 12.05 5.353 4.96.015 10.5-2.487 13.78-6.21 4.85-5.514 4.74-13.083 4.2-19.951 26.2-27.091 54.56-52.135 80.9-79.12a1353 1353 0 0 1 33.32 29.255 2391 2391 0 0 1 27.21 24.349c-11.06 11.36-23.23 21.809-34.7 32.78-42.01 40.18-85.27 79.277-126.45 120.302l-184.28-.25c-8.25-10.276-17.8-19.807-26.62-29.616 12.68-13.284 27.17-25.21 40.36-38.048a3174 3174 0 0 0 85.08-86.304c116.07-122.002 225.95-259.305 406.82-271.264"/><path fill="#fefefe" d="m731.661 1279.98 315.239-.43c26.34 14.39 51.75 33.14 75.9 50.97a1150 1150 0 0 1 103.31 84.51c57.98 53.94 110.55 113.88 166.22 170.21-17.52 17.92-36.76 34.7-54.96 51.98-25.65-25.92-50.31-52.92-75.25-79.52.84-3.43 1.7-6.9 1.79-10.45.15-5.88-1.56-12.65-5.9-16.86-3.86-3.73-9.28-5.37-14.58-5.15a21.7 21.7 0 0 0-15.56 7.65c-3.5 4.16-5.27 9.37-4.62 14.81.68 5.78 4.35 12.13 9.04 15.58 6.09 4.47 13.32 3.98 20.42 3.07 25.6 25.7 50.75 52.7 75.37 79.36-5 1.54-9.02 2.99-13.46 5.87-3.13 4.81-5.01 9.5-4.87 15.36.14 5.92 2.51 11.69 6.93 15.7a19.43 19.43 0 0 0 14.44 5.06c8.18-.5 13.02-4.89 18.19-10.72 30.02 33.11 73.78 84.41 111.6 106.07 11.66 6.67 24.23 10.81 36.88 15.12 3.11 11.08 7.95 21.47 18.47 27.3 8.05 4.46 16.19 4.18 24.84 1.92 8.83-4 13.9-9.47 18.82-17.6 26.08 3.8 53.05 4.67 79.39 3.96 26.92-.73 53.87-3.36 80.62-6.33 13.43-1.49 27.07-4.15 40.55-4.53 4.3-.12 9.27-.38 13.06 1.92a19.25 19.25 0 0 1 9.02 12.63c.83 3.82.03 7.56-2.32 10.68-8.86 11.76-52.43 15.25-67.61 17.24l-.91-1.35c-3.95-5.92-7.76-10.36-14.36-13.42a29.04 29.04 0 0 0-22.58-.73c-10.54 3.97-15.78 12.2-20.34 21.85-179.23 22.91-295.17-56.91-415.59-179.58-57.34-58.41-110.63-119.31-175.44-169.94-104.966-82.01-226.067-140.94-331.749-222.21"/></svg>