<svg version="1.1" xmlns="http://www.w3.org/2000/svg" style="display: block;" viewBox="0 0 2048 1152" width="1820" height="1024">
<path transform="translate(0,0)" fill="rgb(254,254,254)" d="M 0 0 L 2046.25 0 C 2048.65 3.7775 2047.99 9.25049 2047.99 13.5932 L 2048 835.128 L 2048.01 1061.94 L 2048 1122.09 C 2047.99 1130.36 2049.11 1140.48 2047.72 1148.51 C 2047.5 1149.77 2046.93 1150.93 2046.25 1152 L 0 1152 L 0 0 z"/>
<path transform="translate(0,0)" fill="rgb(95,151,247)" d="M 197.284 228.967 C 200.005 228.964 203.014 229.455 205.512 230.597 A 16.7369 16.7369 0 0 1 214.166 240.022 A 14.77 14.77 0 0 1 213.596 251.573 C 211.262 256.368 207.8 258.407 202.938 260.138 C 200.278 260.195 197.517 260.032 194.983 259.151 A 15.6475 15.6475 0 0 1 185.734 250.661 A 14.9405 14.9405 0 0 1 185.739 239.034 C 188.065 233.39 191.918 231.297 197.284 228.967 z"/>
<path transform="translate(0,0)" fill="rgb(95,151,247)" d="M 1975.53 1048.5 C 1980.55 1047.66 1984.78 1047.91 1989.25 1050.49 A 18.0592 18.0592 0 0 1 1997.84 1062.09 A 17.4499 17.4499 0 0 1 1995.48 1075.7 C 1992.38 1080.34 1988.13 1082.44 1982.8 1083.5 C 1980.78 1084.17 1978 1083.83 1975.93 1083.31 C 1971.45 1082.18 1967.79 1079.89 1965.45 1075.82 C 1962.8 1071.17 1962.47 1065.31 1963.99 1060.24 C 1965.85 1054.09 1970.18 1051.47 1975.53 1048.5 z"/>
<path transform="translate(0,0)" fill="rgb(250,172,73)" d="M 1946.23 1102.5 C 1951.71 1102.1 1957.02 1103.3 1961.24 1106.99 A 17.9542 17.9542 0 0 1 1967.29 1119.7 A 17.8311 17.8311 0 0 1 1962.51 1132.87 C 1958.65 1136.96 1954.18 1137.99 1948.75 1138.25 C 1946.45 1138.22 1943.87 1137.65 1941.78 1136.66 C 1937.53 1134.65 1933.92 1131.4 1932.34 1126.87 C 1930.59 1121.87 1931.18 1116.5 1933.57 1111.81 C 1936.33 1106.38 1940.7 1104.37 1946.23 1102.5 z"/>
<path transform="translate(0,0)" fill="rgb(250,172,73)" d="M 189.228 68.1131 C 193.089 67.8652 197.174 67.4482 200.889 68.7456 C 206.209 70.603 210.783 74.5114 213.083 79.6967 A 18.6907 18.6907 0 0 1 213.384 94.1687 C 210.897 100.455 206.107 103.643 200.178 106.316 C 196.981 106.733 193.934 107.094 190.753 106.361 C 185.879 105.238 181.376 102.431 178.704 98.1428 C 175.826 93.5255 175.203 87.8259 176.58 82.6082 C 178.499 75.3373 182.974 71.757 189.228 68.1131 z"/>
<path transform="translate(0,0)" fill="rgb(250,172,73)" d="M 148.102 145.281 C 154.252 145.784 159.635 147.084 164.788 150.641 C 170.967 154.907 174.975 161.608 176.28 168.963 C 177.617 176.492 176.016 184.293 171.468 190.484 C 165.996 197.935 159.034 200.421 150.246 201.886 C 144.089 201.858 137.767 200.016 132.693 196.517 A 27.3996 27.3996 0 0 1 121.219 178.273 A 27.841 27.841 0 0 1 126.196 157.123 C 131.685 149.668 139.225 146.646 148.102 145.281 z"/>
<path transform="translate(0,0)" fill="rgb(18,29,92)" d="M 872.41 51.3628 C 879.717 50.2371 888.257 50.814 895.564 51.9148 C 931.823 57.3768 962.49 84.9617 983.537 113.416 C 979.14 120.781 973.189 127.732 967.356 134.002 C 945.852 157.118 918.048 174.099 885.908 175.297 C 879.895 176.509 872.082 175.497 865.998 174.595 C 829.742 169.216 797.153 142.806 775.891 114.136 C 801.33 82.8376 831.037 56.2727 872.41 51.3628 z"/>
<path transform="translate(0,0)" fill="rgb(254,254,254)" d="M 875.713 122.001 C 878.15 113.035 881.27 99.6825 887.469 92.6417 C 889.981 92.1719 892.273 91.4229 894.704 92.5003 C 895.477 95.7756 893.093 99.3471 891.726 102.286 C 888.765 108.979 881.468 133.166 876.491 136.174 L 874.263 135.498 C 866.022 127.815 859.529 103.343 855.411 92.0232 C 858.064 91.8189 860.151 91.5837 862.716 92.5051 C 869.828 98.9638 872.668 113.155 875.713 122.001 z"/>
<path transform="translate(0,0)" fill="rgb(254,254,254)" d="M 834.458 91.1708 A 51.5466 51.5466 0 0 1 838.258 91.3636 C 843.339 91.828 848.653 92.569 851.993 96.6404 C 851.829 98.8813 851.297 99.843 849.969 101.634 C 845.38 102.88 842.73 99.7519 838.418 99.464 C 835.702 99.2827 834.824 100.325 832.929 101.979 C 832.879 102.706 832.502 103.486 832.777 104.161 C 833.612 106.206 852.256 112.341 855.636 121.026 C 856.557 123.394 856.573 125.405 855.424 127.683 C 853.189 132.112 845.584 135.201 841.074 136.335 C 838.062 136.084 834.697 135.948 831.848 134.897 C 828.717 133.741 823.638 131.331 822.159 128.291 C 826.462 122.094 837.339 129.397 844.007 126.726 C 845.43 124.341 844.891 123.994 844.241 121.391 C 841.183 118.023 835.796 116.887 831.692 115.104 C 828.346 113.651 823.848 111.394 822.711 107.617 C 822.06 105.453 822.654 103.222 823.641 101.275 C 826.453 95.7266 828.565 93.1733 834.458 91.1708 z"/>
<path transform="translate(0,0)" fill="rgb(254,254,254)" d="M 919.478 91.3079 C 922.69 91.7821 928.467 92.0774 931.043 93.9684 C 933.409 95.7058 934.433 97.458 934.949 100.236 C 930.172 105.473 923.224 98.6941 917.013 99.6887 A 13.3151 13.3151 0 0 0 907.864 105.537 C 905.497 109.141 904.936 113.728 906.025 117.864 C 906.989 121.527 909.705 125.37 913.162 127.061 C 916.287 128.589 922.675 128.633 925.883 127.423 C 928.881 126.292 929.232 125.787 930.584 122.939 C 927.578 119.725 922.645 119.066 918.968 116.685 C 918.666 114.584 918.888 114.153 919.636 112.244 L 922.75 111.876 L 936.632 112.041 C 936.672 116.108 937.988 128.486 936.124 131.24 C 933.467 135.165 927.206 136.014 922.863 136.507 C 916.296 137.252 909.609 135.888 904.397 131.668 C 899.649 127.824 896.81 122.003 896.265 115.958 C 895.72 109.904 897.518 103.704 901.49 99.0662 C 906.48 93.241 912.11 91.8233 919.478 91.3079 z"/>
<path transform="translate(0,0)" fill="rgb(18,29,92)" d="M 337.461 146.082 A 62.1229 62.1229 0 0 1 339.25 140.397 C 345.9 122.083 358.072 110.31 375.48 102.23 C 402.246 89.8062 432.818 86.1112 460.889 96.5659 C 482.609 104.656 504.492 122.184 514.223 143.533 C 511.314 151.788 507.468 157.958 502.026 164.689 C 502.158 177.669 498.857 187.639 493.854 199.367 C 495.294 206.209 497.891 212.315 499.598 219.001 C 500.504 222.548 500.525 225.693 498.605 228.943 C 495.84 231.646 491.925 231.98 488.28 232.717 C 486.12 242.961 482.88 260.072 474.498 266.891 C 466.126 273.702 452.968 270.581 443.163 269.547 C 442.396 279.963 443.747 290.889 444.704 301.282 C 447.008 303.973 449 306.718 450.945 309.678 C 469.069 316.815 483.585 328.245 495.009 344.139 C 501.204 329.778 509.129 315.984 516.398 302.14 A 4419.93 4419.93 0 0 0 548.331 240.325 L 583.675 171.21 C 589.498 159.866 594.777 147.589 601.73 136.905 C 617.85 140.586 633.757 147.606 649.51 152.834 L 770.741 193.655 C 786.438 198.899 803.525 207.209 819.841 209.355 C 836.471 211.543 866.753 209.159 885.058 209.167 L 1047.85 209.21 L 1628.95 209.088 L 1804.23 209.135 L 1860.15 209.046 C 1871.42 209.034 1882.99 208.47 1894.2 209.594 C 1911.39 211.316 1925.09 221.143 1934.25 235.566 C 1940.36 245.164 1942.06 254.113 1942.51 265.276 C 1943.46 289.039 1942.78 313.064 1942.72 336.851 L 1942.41 461.414 L 1942.14 819.784 L 1942.14 985.337 C 1942.14 1002.64 1944.32 1042.44 1940.85 1057.68 C 1938.13 1069.66 1930.44 1080.82 1919.91 1087.23 C 1911.12 1092.57 1902.44 1094.36 1892.31 1094.63 C 1870.58 1095.21 1848.7 1094.27 1826.94 1094.32 L 1649.92 1094.35 L 1157.51 1094.5 L 924.719 1094.66 L 864.17 1094.75 C 851.326 1094.77 835.838 1096.37 823.429 1093.17 C 810.691 1089.87 798.795 1080.36 792.396 1068.93 C 788.984 1062.83 787.409 1056.6 786.926 1049.66 C 785.424 1028.09 786.532 1005.84 786.51 984.163 L 786.434 857.745 L 786.904 473.519 C 781.396 477.686 775.886 481.287 769.589 484.18 C 752.865 512.831 735.339 541.629 720.333 571.195 C 689.889 558.885 658.994 547.003 627.907 536.419 C 600.813 548.514 570.803 564.614 540.781 553.378 C 516.782 544.396 496.695 524.135 479.191 506.032 C 478.913 518.738 476.862 533.06 478.374 545.513 C 480.995 567.094 489.573 589.621 495.263 610.632 A 1982.04 1982.04 0 0 1 523.867 731.82 C 528.584 755.345 534.103 780.07 534.238 804.131 C 534.376 828.555 528.296 854.382 524.192 878.408 C 518.238 913.274 512.431 948.586 505.294 983.217 C 503.754 990.691 499.105 995.99 497.842 1003.51 C 495.812 1015.6 492.787 1032.17 495.954 1044.1 C 496.899 1047.66 498.546 1051.02 501.107 1053.7 C 515.793 1069.05 568.522 1064.32 581.066 1086.49 C 582.198 1088.49 583.497 1091.24 583.317 1093.58 C 583.21 1094.99 582.793 1096.31 581.582 1097.07 C 578.416 1099.03 422.733 1098.32 406.091 1097.75 C 404.737 1067.79 414.844 1068.39 417.544 1046.35 C 419.265 1032.3 420.046 1016.72 419.699 1002.58 C 419.544 996.239 418.384 990.027 418.06 983.71 C 417.645 975.626 418.604 967.358 419.424 959.32 C 421.572 938.254 423.776 917.08 426.789 896.121 C 429.018 880.614 439.958 825.631 438.443 815.003 C 435.687 795.666 420.374 781.864 414.497 765.886 C 409.145 759.431 404.678 751.508 399.967 744.535 A 830.165 830.165 0 0 0 373.443 706.944 C 354.696 753.546 331.652 798.533 311.248 844.437 A 997.827 997.827 0 0 0 257.86 992.825 L 245.139 992.6 C 240.154 1009.33 230.187 1029.21 232.031 1046.93 C 232.262 1049.16 232.61 1051.84 234.215 1053.52 C 246 1065.92 288.215 1066.46 302.278 1078.82 C 306.915 1082.9 306.54 1091.61 306.914 1097.34 C 290.122 1099.62 270.869 1097.88 253.858 1097.86 A 7747.94 7747.94 0 0 0 138.786 1098.03 C 138.502 1069.2 152.186 1045.67 160.258 1018.57 C 164.137 1005.55 166.524 992.272 170.072 979.2 A 2426.9 2426.9 0 0 1 198.486 884.901 C 206.385 860.982 216.595 838.074 225.18 814.438 C 233.619 791.203 240.355 766.627 246.252 742.61 C 253.824 711.769 260.407 679.466 261.957 647.687 C 263.052 625.242 260.804 602.042 264.487 579.836 C 268.372 556.413 288.167 523.59 286.451 502.978 C 278.884 455.891 266.529 351.042 286.432 308.93 C 297.71 285.066 318.051 279.879 340.824 271.676 C 345.066 265.783 349.567 260.159 354.167 254.543 L 349.344 247.148 C 344.079 248.64 338.893 249.676 333.397 249.712 C 317.481 249.817 300.794 243.71 289.542 232.268 A 48.0198 48.0198 0 0 1 275.64 197.517 A 48.584 48.584 0 0 1 291.268 162.737 C 303.722 151.015 320.561 145.538 337.461 146.082 z"/>
<path transform="translate(0,0)" fill="rgb(95,151,247)" d="M 406.58 199.23 C 407.019 200.85 407.32 203.549 407.129 205.205 C 406.957 206.703 406.398 207.699 405.194 208.574 C 399.449 212.754 388.098 210.611 381.324 209.632 L 380.394 208.027 L 381.272 205.414 C 385.969 202.347 400.302 200.816 406.58 199.23 z"/>
<path transform="translate(0,0)" fill="rgb(254,254,254)" d="M 555.776 447.684 C 564.441 450.383 592.575 457.264 598.324 462.696 C 588.341 464.197 579.212 464.327 569.29 462.502 C 563.832 458.443 559.612 453.246 555.776 447.684 z"/>
<path transform="translate(0,0)" fill="rgb(95,151,247)" d="M 380.795 184.677 C 397.045 183.112 412.993 181.195 428.784 176.874 L 428.315 179.1 C 419.567 181.491 414.411 185.709 409.31 193.067 C 400.171 195.649 391.396 198.783 381.918 199.921 C 381.99 194.709 381.521 189.827 380.795 184.677 z"/>
<path transform="translate(0,0)" fill="rgb(254,254,254)" d="M 536.565 375.964 L 537.325 376.097 C 545.926 382.165 552.338 406.738 554.504 416.812 C 550.585 420.167 546.562 424.253 541.877 426.468 C 534.348 412.421 526.26 398.268 520.151 383.543 L 536.565 375.964 z"/>
<path transform="translate(0,0)" fill="rgb(95,151,247)" d="M 334.349 150.954 C 347.092 152.901 356.915 154.743 366.311 164.343 C 373.212 174.043 377.419 184.96 376.423 197.064 L 373.107 199.163 C 372.671 188.015 366.812 176.07 358.958 168.314 C 352.713 162.147 344.503 157.642 335.542 157.795 C 323.204 158.007 310.606 166.593 304.431 177.041 C 301.812 181.473 299.959 186.852 296.365 190.574 L 294.966 190.266 C 294.131 188.269 293.923 186.475 293.765 184.334 C 293.228 177.063 294.173 169.76 299.14 164.096 C 307.276 154.818 322.485 151.612 334.349 150.954 z"/>
<path transform="translate(0,0)" fill="rgb(95,151,247)" d="M 368.495 194.512 L 371.158 198.948 L 373.107 199.163 L 376.423 197.064 C 374.572 211.666 373.02 226.188 360.462 235.876 C 350.959 243.209 337.768 245.74 326.035 244.066 C 318.803 243.034 311.96 240.557 305.319 237.577 C 327.377 233.049 350.287 223.615 363.124 203.96 C 365.097 200.941 366.795 197.691 368.495 194.512 z"/>
<path transform="translate(0,0)" fill="rgb(95,151,247)" d="M 356.784 259.609 C 383.46 270.007 412.078 274.518 438.187 286.874 C 438.822 290.085 439.609 293.293 439.426 296.585 C 439.375 297.501 438.701 297.724 438.038 298.298 L 434.761 297.342 C 405.505 286.606 373.89 287.927 345.966 272.658 C 349.433 268.215 353.176 263.942 356.784 259.609 z"/>
<path transform="translate(0,0)" fill="rgb(95,151,247)" d="M 379.404 214.706 C 388.731 215.327 397.43 215.036 406.692 213.851 C 409.228 219.434 411.186 224.454 416.463 227.917 C 410.444 236.977 403.193 243.781 394.467 250.207 C 389.339 253.391 382.511 255.973 376.58 257.019 C 372.872 257.673 368.841 257.033 365.796 254.712 C 361.755 251.631 361.989 246.116 361.516 241.475 C 371.986 233.69 375.832 226.927 379.404 214.706 z"/>
<path transform="translate(0,0)" fill="rgb(95,151,247)" d="M 428.784 176.874 C 458.02 167.035 477.909 150.843 493.654 124.115 C 499.414 130.179 504.462 136.551 508.979 143.6 C 500.741 161.036 486.929 172.309 468.953 178.748 C 461.376 181.463 453.681 182.979 445.694 183.916 C 440.238 181.45 434.443 178.863 428.315 179.1 L 428.784 176.874 z"/>
<path transform="translate(0,0)" fill="rgb(254,254,254)" d="M 562.422 416.65 C 570.702 417.975 579.688 421.716 587.694 424.321 A 1846.87 1846.87 0 0 1 655.456 447.972 C 650.01 450.043 644.304 451.568 638.73 453.262 L 612.319 460.652 A 2319.55 2319.55 0 0 0 555.289 441.358 C 553.051 437.025 550.996 432.579 548.863 428.192 C 553.933 424.579 558.112 421.14 562.422 416.65 z"/>
<path transform="translate(0,0)" fill="rgb(95,151,247)" d="M 760.464 485.492 L 761.447 485.503 C 761.629 488.205 722.154 555.581 717.089 563.969 A 2465.14 2465.14 0 0 0 644.269 536.442 L 633.727 533.709 C 639.258 531.362 644.651 528.598 650.07 526 C 669.157 532.443 687.705 540.359 706.921 546.424 C 717.037 526.523 728.583 507.226 739.578 487.795 L 760.464 485.492 z"/>
<path transform="translate(0,0)" fill="rgb(254,254,254)" d="M 585.531 353.157 C 592.166 352.372 604.62 352.841 610.542 356.148 C 612.673 357.338 612.963 357.817 613.629 360.11 C 608.454 363.859 595.627 357.906 588.832 363.91 C 588.143 368.507 587.946 373.397 590.842 377.317 C 593.381 378.015 593.32 377.695 595.566 376.577 C 601.851 373.447 612.48 373.164 619.56 372.092 C 613.721 374.896 607.016 376.233 600.998 378.877 C 595.736 381.189 588.832 383.949 586.658 389.514 L 587.867 391.515 C 588.605 391.71 589.322 392.198 590.079 392.102 C 593.634 391.647 601.183 384.956 605.017 383.17 C 609.859 380.914 615.614 379.632 620.753 378.138 C 622.035 377.579 623.281 377.557 624.653 377.47 C 623.725 382.251 593.771 400.2 587.534 405.467 C 581.86 405.913 562.037 410.092 559.63 409.812 C 557.077 404.855 555.708 399.236 553.616 394.058 C 550.583 386.551 546.671 379.592 542.624 372.597 C 556.835 363.736 569.019 357 585.531 353.157 z"/>
<path transform="translate(0,0)" fill="rgb(95,151,247)" d="M 151.363 1058.4 A 149.254 149.254 0 0 0 183.104 1067.46 C 201.329 1070.6 217.592 1070.99 233.338 1059.86 C 249.983 1067.89 289.499 1075.86 298.468 1082.64 C 301.023 1084.57 301.242 1089.56 301.732 1092.56 C 286.535 1093.81 270.322 1092.44 255.005 1092.49 A 4591.07 4591.07 0 0 1 143.531 1092.24 C 144.821 1080.53 147.139 1069.41 151.363 1058.4 z"/>
<path transform="translate(0,0)" fill="rgb(95,151,247)" d="M 453.803 99.7783 C 467.762 103.318 478.852 111.225 489.4 120.648 C 488.151 122.889 486.678 125.045 485.275 127.194 C 465.724 157.128 442.084 169.152 407.742 176.348 A 402.006 402.006 0 0 1 379.774 180.053 C 378.516 175.726 376.723 171.511 375.106 167.304 C 408.996 155.232 434.221 128.96 453.803 99.7783 z"/>
<path transform="translate(0,0)" fill="rgb(95,151,247)" d="M 331.883 163.003 C 339.332 162.024 347.234 164.488 353.296 168.874 C 358.44 172.596 362.116 178.617 363.012 184.908 C 364.052 192.204 361.06 198.826 356.629 204.476 C 342.814 222.092 319.833 230.758 298.272 233.123 C 295.799 230.997 293.428 228.719 291.018 226.52 C 286.79 221.247 283.354 214.571 281.624 208.041 C 278.083 194.675 282.528 183.915 289.181 172.568 C 289.117 177.235 288.518 182.422 289.121 187.013 C 289.71 191.505 292.98 199.487 296.671 202.215 L 298.607 201.888 C 302.532 196.358 303.392 189.34 306.223 183.257 C 311.059 172.869 321.508 166.71 331.883 163.003 z"/>
<path transform="translate(0,0)" fill="rgb(95,151,247)" d="M 419.449 1060.26 C 422.607 1061.98 425.837 1063.64 429.168 1065.01 C 451.695 1074.27 478.827 1069.95 500.616 1060.93 C 509.373 1063.72 518.036 1066.75 526.9 1069.2 C 540.71 1073 557.961 1075.46 570.282 1082.77 C 574.277 1085.14 576.525 1087.93 578.889 1091.86 C 561.604 1093.94 542.572 1092.63 525.127 1092.7 L 410.974 1092.54 C 410.812 1080.05 413.898 1071.19 419.449 1060.26 z"/>
<path transform="translate(0,0)" fill="rgb(95,151,247)" d="M 344.248 146.964 C 342.821 141.44 346.423 136.37 349.176 131.684 C 360.299 112.747 380.186 104.191 400.587 98.9413 C 417.154 94.6779 431.827 94.5599 448.562 97.8931 C 442.955 106.323 437.287 114.509 430.527 122.068 C 417.939 136.145 391.408 159.198 372.664 163.278 C 371.688 163.491 370.794 162.593 369.962 162.074 C 369.792 161.793 369.629 161.507 369.452 161.23 C 363.925 152.572 353.74 149.012 344.248 146.964 z"/>
<path transform="translate(0,0)" fill="rgb(254,254,254)" d="M 172.946 992.208 L 239.743 992.281 C 234.986 1005.81 227.818 1022.51 226.86 1036.81 C 226.437 1043.11 227.348 1050.07 227.652 1056.43 C 225.777 1059.25 223.548 1059.86 220.554 1061.36 C 199.934 1068.26 174.117 1061.33 154.565 1053.79 A 1089.66 1089.66 0 0 0 172.946 992.208 z"/>
<path transform="translate(0,0)" fill="rgb(254,254,254)" d="M 427.619 992.51 C 449.865 992.257 472.134 992.479 494.383 992.492 C 492.33 1006.57 487.681 1027.66 489.952 1041.23 C 490.798 1046.28 493.242 1051.73 494.918 1056.59 C 493.15 1058.89 491.228 1059.2 488.593 1060.24 A 291.044 291.044 0 0 1 477.335 1062.76 C 461.516 1065.85 437.671 1066.3 423.962 1056.98 C 423.365 1055.5 423.075 1054.03 422.96 1052.44 C 422.412 1044.8 424.322 996.241 427.619 992.51 z"/>
<path transform="translate(0,0)" fill="rgb(254,254,254)" d="M 745.277 407.243 C 750.452 407.003 758.142 405.761 762.821 408.242 C 764.733 409.256 764.755 409.493 765.329 411.562 C 761.969 418.603 752.713 417.189 748.526 421.948 C 747.522 423.088 747.919 423.395 748.048 424.818 C 758.667 430.1 788.738 411.637 800.826 414.506 C 802.36 414.87 802.318 415.284 803.116 416.62 C 801.662 425.48 786.371 428.078 782.85 435.584 L 784.131 436.722 C 787.788 437.382 789.931 435.157 793.204 434.044 C 795.456 433.277 796.207 432.922 798.421 434.006 C 799.478 437.129 798.666 440.175 797.715 443.232 C 796.451 447.299 796.846 449.768 797.878 453.892 C 791.297 461.354 784.765 469.11 776.151 474.32 C 763.263 482.116 734.848 481.659 730.294 486.057 C 730.305 486.457 730.32 486.856 730.321 487.256 C 730.324 487.824 730.288 488.392 730.323 488.958 C 730.618 493.663 728.273 496.498 725.83 500.306 C 719.21 513.809 711.24 526.916 703.977 540.105 C 688.434 534.992 673.475 528.302 657.799 523.46 C 670.565 517.098 683.799 511.648 696.581 505.282 C 705.345 500.917 714.648 495.714 717.845 485.808 C 722.762 470.572 716.239 450.274 709.107 436.552 C 721.297 423.897 725.812 410.292 745.277 407.243 z"/>
<path transform="translate(0,0)" fill="rgb(254,254,254)" d="M 445.16 190.2 C 465.464 185.596 481.451 181.209 498.043 168.017 C 496.092 178.949 493.119 188.215 488.36 198.238 C 490.595 207.191 493.421 216.178 495.284 225.196 C 491.479 226.592 487.46 227.828 483.777 229.502 C 481.473 239.976 479.136 257.608 469.3 263.881 C 461.885 268.611 451.233 265.572 443.384 263.472 A 83.9123 83.9123 0 0 1 438.19 261.915 L 437.812 280.687 A 459.024 459.024 0 0 0 379.66 261.472 C 385.245 259.786 390.694 258.152 395.98 255.637 C 394.649 253.29 394.318 252.863 394.467 250.207 C 403.193 243.781 410.444 236.977 416.463 227.917 C 418.524 228.665 419.61 229.477 421.08 231.096 C 424.122 232.149 424.697 232.548 427.873 231.454 L 429.002 229.748 C 427.185 227.517 424.626 227.293 422.097 226.008 C 414.598 222.199 411.026 212.712 411.901 204.707 C 412.576 198.534 415.506 192.505 420.506 188.711 C 424.1 185.983 429.233 184.617 433.702 185.332 C 437.805 185.989 441.605 188.162 445.16 190.2 z"/>
<path transform="translate(0,0)" fill="rgb(18,29,92)" d="M 430.633 196.64 C 432.642 198.508 432.723 199.116 433.442 201.816 C 434.493 205.764 435.804 209.921 433.681 213.58 L 431.377 213.666 C 429.784 209.322 425.039 205.153 424.767 200.916 C 426.149 198.41 428.15 197.768 430.633 196.64 z"/>
<path transform="translate(0,0)" fill="rgb(18,29,92)" d="M 416.463 227.917 C 418.524 228.665 419.61 229.477 421.08 231.096 C 412.879 240.447 406.406 248.614 395.98 255.637 C 394.649 253.29 394.318 252.863 394.467 250.207 C 403.193 243.781 410.444 236.977 416.463 227.917 z"/>
<path transform="translate(0,0)" fill="rgb(95,151,247)" d="M 604.284 142.703 C 641.782 156.861 680.071 169.184 718.063 181.957 A 4149.98 4149.98 0 0 0 888.484 236.981 L 790.661 409.392 C 784.255 412.262 777.054 414.179 770.382 416.416 C 770.899 412.978 771.204 409.116 772.415 405.856 C 777.416 392.398 787.226 378.525 794.378 366.005 L 840.253 285.565 C 845.916 275.642 853.51 264.847 857.539 254.25 C 858.588 251.492 858.578 250.319 857.964 247.481 C 855.961 244.894 854.05 244.081 851.126 242.919 C 795.01 224.609 739.373 204.866 683.355 186.258 C 663.306 179.599 643.241 172.035 622.943 166.23 C 619.724 165.31 611.774 162.806 608.802 163.931 C 605.782 165.074 601.765 173.449 600.14 176.397 C 586.968 200.296 575.352 225.287 562.956 249.62 L 506.015 360.442 C 503.721 356.279 501.061 352.309 498.5 348.307 C 502.474 339.323 507.628 330.63 512.165 321.907 L 536.882 274.072 A 8307.62 8307.62 0 0 0 604.284 142.703 z"/>
<path transform="translate(0,0)" fill="rgb(254,254,254)" d="M 444.704 301.282 C 447.008 303.973 449 306.718 450.945 309.678 C 469.069 316.815 483.585 328.245 495.009 344.139 L 494.247 344.505 C 490.166 343.578 488.249 338.064 484.466 335.615 L 483.023 337.179 A 301.835 301.835 0 0 1 512.177 380.385 C 524.079 402.092 541.765 443.625 558.884 460.465 C 564.098 465.595 570.206 468.105 577.451 468.799 C 612.617 472.167 669.796 448.819 704.651 438.579 C 712.33 455.192 715.605 471.115 711.954 489.303 C 688.633 504.904 602.944 544.463 574.993 550.956 C 567.7 552.65 560.417 553.095 553.053 551.574 C 525.663 545.915 512.033 526.393 491.008 510.837 C 490.841 510.773 490.675 510.705 490.507 510.645 C 484.838 508.598 480.47 501.65 475.556 497.951 L 474.697 499.764 C 460.517 491.875 420.948 425.748 414.495 409.239 C 405.581 386.435 401.784 356.535 412.063 333.575 C 420.553 314.614 426.918 314.606 444.343 307.966 L 444.862 307.762 C 445.97 305.444 445.181 303.723 444.704 301.282 z"/>
<path transform="translate(0,0)" fill="rgb(18,29,92)" d="M 444.704 301.282 C 447.008 303.973 449 306.718 450.945 309.678 C 469.069 316.815 483.585 328.245 495.009 344.139 L 494.247 344.505 C 490.166 343.578 488.249 338.064 484.466 335.615 L 483.023 337.179 C 471.848 327.05 457.584 313.755 441.398 314.476 C 434.838 314.769 429.443 318.09 425.191 322.948 C 413.102 336.764 410.039 356.899 411.48 374.669 C 415.492 424.151 458.938 475.177 491.008 510.837 C 490.841 510.773 490.675 510.705 490.507 510.645 C 484.838 508.598 480.47 501.65 475.556 497.951 L 474.697 499.764 C 460.517 491.875 420.948 425.748 414.495 409.239 C 405.581 386.435 401.784 356.535 412.063 333.575 C 420.553 314.614 426.918 314.606 444.343 307.966 L 444.862 307.762 C 445.97 305.444 445.181 303.723 444.704 301.282 z"/>
<path transform="translate(0,0)" fill="rgb(254,254,254)" d="M 343.541 277.199 C 375.087 295.497 417.775 290.405 444.862 307.762 L 444.343 307.966 C 426.918 314.606 420.553 314.614 412.063 333.575 C 401.784 356.535 405.581 386.435 414.495 409.239 C 420.948 425.748 460.517 491.875 474.697 499.764 C 473.899 511.828 472.904 523.969 473.079 536.063 C 415.058 554.41 348.474 533.842 296.534 506.752 C 294.449 505.664 292.46 504.48 291.197 502.442 C 290.646 486.478 287.41 469.819 285.586 453.923 C 281.161 415.359 274.138 341.914 292.71 308.45 C 304.157 287.824 322.58 283.141 343.541 277.199 z"/>
<path transform="translate(0,0)" fill="rgb(254,254,254)" d="M 611.302 168.651 C 626.348 171.569 641.911 178.297 656.48 183.195 L 743.562 212.506 L 811.566 235.611 C 825.51 240.279 839.978 244.295 853.461 250.177 C 825.796 301.348 794.933 350.867 767.737 402.251 C 756.64 401.895 736.359 399.656 727.284 407.365 C 723.216 410.821 720.012 415.998 716.46 420.024 C 712.539 424.468 708.234 429.116 703.224 432.313 C 692.907 438.897 673.016 442.81 660.979 446.481 L 611.737 429.058 C 595.707 423.226 579.279 418.497 563.151 412.93 C 572.068 411.943 580.896 412.142 589.796 410.622 C 599.666 402.668 616.065 394.508 623.632 386.907 C 628.514 382.002 632.008 371.424 634.702 368.905 C 635.304 368.342 637.768 367.594 638.618 367.23 L 638.832 365.746 C 633.248 361.321 624.786 360.912 618.64 357.274 C 614.977 355.106 613.079 351.393 608.813 349.81 C 602.623 347.514 595.276 347.287 588.82 345.852 C 579.623 343.807 570.152 340.433 561.276 337.278 C 558.849 336.416 556.568 335.528 554.002 335.141 C 556.507 340.307 577.504 345.602 583.391 347.812 C 574.089 349.836 565.921 353.107 557.373 357.203 C 554.661 356.316 551.838 355.271 548.993 354.963 C 547.296 354.78 545.917 354.404 544.553 355.51 C 547.043 357.772 550.56 358.484 553.71 359.438 C 541.723 367.062 530.536 373.39 517.249 378.503 L 509.167 365.188 C 518.797 349.238 526.896 331.886 535.466 315.327 A 8043.31 8043.31 0 0 0 580.986 226.172 C 588.374 211.348 601.704 180.451 611.302 168.651 z"/>
<path transform="translate(0,0)" fill="rgb(18,29,92)" d="M 622.872 229.115 C 632.691 228.084 642.094 228.692 651.069 233.18 C 658.933 237.112 665.689 243.619 668.458 252.116 C 670.942 259.738 669.899 268.001 666.137 275.018 C 659.802 286.831 647.666 292.747 635.323 296.328 C 625.224 297.644 615.27 296.515 606.079 291.896 C 598.036 287.854 591.24 281.097 588.498 272.381 C 586.191 265.05 587.099 257.276 590.744 250.539 C 597.636 237.803 609.781 232.998 622.872 229.115 z"/>
<path transform="translate(0,0)" fill="rgb(254,254,254)" d="M 625.101 267.148 C 631.272 273.91 636.914 281.219 642.69 288.322 C 634.938 290.848 628.97 291.958 620.79 291.262 C 613.415 289.266 607.116 286.427 600.62 282.474 C 608.928 277.626 616.986 272.312 625.101 267.148 z"/>
<path transform="translate(0,0)" fill="rgb(250,172,73)" d="M 604.718 242.69 C 610.601 247.835 616.197 256.533 621.546 262.544 L 605.863 272.844 L 596.46 278.468 C 594.278 273.351 592.79 268.38 591.46 263.004 C 594.172 253.874 597.75 248.944 604.718 242.69 z"/>
<path transform="translate(0,0)" fill="rgb(254,254,254)" d="M 631.388 233.309 C 640.692 233.864 647.627 237.334 655.356 242.109 L 629.512 256.9 L 627.023 258.223 C 621.298 256.814 613.165 244.305 609.296 239.469 C 616.579 236.04 623.428 234.205 631.388 233.309 z"/>
<path transform="translate(0,0)" fill="rgb(95,151,247)" d="M 658.932 245.854 C 659.601 246.363 660.226 247.045 660.755 247.692 C 664.032 251.702 665.408 257.351 664.684 262.44 C 663.221 272.725 656.057 280.132 648.102 286.029 L 643.26 280.053 L 629.527 263.775 L 658.932 245.854 z"/>
<path transform="translate(0,0)" fill="rgb(18,29,92)" d="M 737.666 253.311 C 750.789 252.515 763.495 254.156 774.747 261.436 C 783.469 267.079 790.524 275.791 792.684 286.103 C 794.783 296.125 792.039 306.668 786.354 315.058 C 778.204 327.089 765.702 333.163 751.821 335.878 C 736.877 336.949 723.493 335.279 710.985 326.198 C 702.249 319.857 695.773 310.72 694.224 299.899 A 37.2178 37.2178 0 0 1 701.657 271.87 C 710.33 260.636 723.962 255.099 737.666 253.311 z"/>
<path transform="translate(0,0)" fill="rgb(95,151,247)" d="M 766.624 263.3 C 769.352 264.61 771.887 266.008 774.274 267.887 C 780.939 273.133 788.389 283.339 789.043 292.054 C 789.282 295.232 788.561 296.422 786.643 298.708 C 782.792 299.674 780.69 298.701 776.885 297.72 C 768.873 295.151 760.482 293.364 752.321 291.298 C 756.39 281.734 761.794 272.511 766.624 263.3 z"/>
<path transform="translate(0,0)" fill="rgb(250,172,73)" d="M 738.309 258.34 C 746.176 257.692 754.156 259.101 761.822 260.73 C 758.064 268.778 746.666 284.828 746.812 292.901 C 747.991 294.778 748.259 295.376 750.32 296.373 C 757.242 299.719 777.156 303.114 785.824 305.575 C 779.458 316.743 771.511 323.258 759.92 328.372 A 74.1518 74.1518 0 0 1 750.512 330.549 C 738.088 332.588 724.362 329.859 714.21 322.261 C 706.727 316.662 700.787 308.44 699.464 299.033 A 32.2762 32.2762 0 0 1 706.091 274.705 C 714.022 264.486 725.875 260.032 738.309 258.34 z"/>
<path transform="translate(0,0)" fill="rgb(95,151,247)" d="M 287.68 525.957 C 346.211 554.425 410.045 573.776 475.16 556.798 A 2876.4 2876.4 0 0 1 516.182 720.833 C 522.135 748.511 529.994 779.47 529.04 807.917 C 528.272 830.795 523.227 854.309 519.243 876.829 L 499.223 986.935 C 473.714 986.993 448.18 987.298 422.673 987.095 A 1135.43 1135.43 0 0 1 430.28 912.194 C 432.638 894.575 445.384 824.058 443.714 813.773 C 440.948 796.727 423.061 766.665 412.315 753.856 C 412.052 753.543 411.76 753.256 411.476 752.961 C 408.345 744.195 395.569 727.768 389.58 719.642 C 367.824 690.124 332.429 648.35 322.597 613.151 C 320.275 604.838 320.631 595.869 318.836 587.382 L 317.609 586.754 L 315.764 587.618 C 315.417 588.598 315.146 589.364 315.06 590.41 C 311.873 628.799 348.215 673.561 370.413 702.126 C 327.503 795.098 280.898 887.803 254.082 986.986 C 227.189 986.988 200.246 986.689 173.359 987.165 C 182.965 953.105 192.603 918.589 204.215 885.149 C 212.471 861.373 222.824 838.398 231.122 814.707 C 241.013 786.471 248.797 756.467 255.561 727.342 A 477.898 477.898 0 0 0 267.625 638.736 C 268.235 620.688 266.33 601.896 269.269 584.049 C 272.519 564.311 280.684 544.658 287.68 525.957 z"/>
<path transform="translate(0,0)" fill="rgb(254,254,254)" d="M 963.781 214.497 L 1596.82 214.142 L 1794.86 214.182 L 1857.38 214.191 C 1869.08 214.205 1881.4 213.555 1893.03 214.782 A 49.9692 49.9692 0 0 1 1922.17 228.545 C 1932.63 238.65 1936.95 251.542 1937.15 265.847 C 1937.86 319.224 1936.97 372.772 1936.99 426.17 L 1936.91 793.608 L 1936.79 972.699 C 1936.75 996.086 1938.99 1030.63 1936.55 1052.72 C 1935.59 1061.4 1930.8 1070.82 1924.66 1076.99 C 1916.12 1085.58 1904.27 1089.56 1892.42 1089.67 L 1217.38 1089.58 L 962.779 1089.7 L 879.528 1089.83 C 865.215 1089.85 850.312 1090.68 836.062 1089.52 C 824.396 1088.57 813.585 1084.9 805.171 1076.49 C 799.179 1070.5 793.993 1062.44 792.752 1053.92 C 790.586 1039.05 791.937 1022.62 791.963 1007.53 L 792.089 921.534 L 792.107 613.25 C 792.095 564.985 791.264 516.571 792.409 468.326 L 803.314 455.502 C 803.154 454.326 803.041 453.14 802.869 451.967 C 801.955 445.719 805.086 442.513 806.221 436.578 C 806.77 433.707 803.762 430.434 802.174 428.204 C 804.29 425.594 807.069 422.499 808.254 419.317 C 808.993 417.33 808.945 415.643 808.101 413.738 C 806.528 410.187 801.571 408.796 798.244 407.441 C 809.714 387.245 821.902 367.453 833.121 347.115 C 834.633 393.674 833.876 440.427 833.878 487.013 L 833.926 737.897 L 1890.97 738.27 C 1893.07 734.96 1892.84 731.716 1892.92 727.944 C 1893.66 694.765 1893.03 661.435 1893.03 628.242 L 1893.06 434.254 L 1893.19 312.538 C 1893.24 289.146 1894.29 265.286 1892.78 241.969 C 1891.29 240.195 1889.51 239.987 1887.25 239.782 C 1870.36 238.251 1848.5 239.897 1831.13 239.897 L 1703.24 239.796 L 1146.66 239.92 L 978.052 239.961 C 950.546 239.967 921.436 242.125 894.144 239.373 C 893.692 238.245 893.223 237.124 892.665 236.043 C 891.842 234.445 890.803 232.628 889.2 231.706 C 880.285 226.573 850.087 218.77 838.795 215.235 C 880.243 213.52 922.268 214.686 963.781 214.497 z"/>
<path transform="translate(0,0)" fill="rgb(18,29,92)" d="M 857.253 779.277 L 1054.47 779.219 L 1119.97 779.129 C 1131.58 779.112 1143.55 778.481 1155.12 779.342 C 1160.86 779.77 1168.46 780.935 1173.36 784.172 C 1178.61 787.642 1183.51 794.75 1184.66 800.958 C 1186.95 813.278 1185.55 828.238 1185.57 840.805 L 1185.54 926.128 L 1185.52 992.964 C 1185.57 1006.96 1186.37 1021.39 1185.03 1035.31 C 1184.44 1041.44 1182.88 1046.36 1179.22 1051.42 C 1174.23 1058.32 1167.49 1061.85 1159.22 1063.21 C 1158.95 1063.32 1158.68 1063.43 1158.41 1063.53 C 1152.06 1065.83 1007.73 1063.91 989.193 1063.92 L 907.879 1064.05 C 893.498 1064.08 878.897 1064.65 864.547 1063.93 C 858.477 1063.63 851.69 1062.54 846.175 1059.87 C 840.373 1057.06 834.994 1049.85 833.016 1043.81 C 830.081 1034.86 830.628 833.052 831.821 810.183 C 832.084 805.142 832.257 800.638 834.682 796.093 C 839.635 786.811 847.452 782.241 857.253 779.277 z"/>
<path transform="translate(0,0)" fill="rgb(254,254,254)" d="M 863.465 784.453 L 1057.98 784.359 L 1121.26 784.164 C 1132.26 784.138 1143.81 783.427 1154.75 784.438 C 1160.62 784.981 1168.79 786.362 1173.19 790.635 C 1178.18 795.485 1179.92 800.629 1180.08 807.417 C 1181.34 858.445 1180.25 909.726 1180.16 960.777 C 1180.12 982.76 1182.41 1017.37 1179.49 1038.06 C 1178.8 1042.96 1176.25 1047.46 1172.79 1050.97 C 1167.09 1056.77 1159.95 1058.95 1152 1058.96 C 1089.41 1060.08 1026.59 1058.87 963.976 1058.95 L 895.427 1059.05 C 883.294 1059.06 870.486 1059.88 858.446 1058.6 C 853.701 1058.09 849.625 1056.31 845.885 1053.36 C 839.93 1048.66 837.757 1041.86 836.976 1034.54 C 835.676 1022.33 836.72 1009.09 836.823 996.782 A 5724.76 5724.76 0 0 0 836.927 934.37 L 836.887 851.656 C 836.879 837.59 835.907 822.907 837.185 808.931 C 837.702 803.266 838.987 798.349 842.7 793.904 C 848.015 787.541 855.523 785.256 863.465 784.453 z"/>
<path transform="translate(0,0)" fill="rgb(18,29,92)" d="M 995.877 931.28 C 997.286 930.933 998.693 931.241 1000.11 931.423 L 1000.98 933.165 C 998.521 941.374 991.82 950.418 987.551 958.026 A 4390.93 4390.93 0 0 1 954.801 1015.95 C 944.604 1010.98 936.232 1003.32 928.15 995.515 C 924.228 991.22 920.541 986.876 917.24 982.08 C 912.685 975.464 901.375 959.382 902.87 951.326 L 904.303 951.579 L 903.954 950.706 C 913.193 946.642 925.449 945.531 935.447 943.51 L 995.877 931.28 z"/>
<path transform="translate(0,0)" fill="rgb(250,172,73)" d="M 988.613 938.172 L 991 937.999 L 991.996 938.932 A 3356.91 3356.91 0 0 0 952.867 1008.88 C 944.615 1003.87 937.581 996.942 930.752 990.193 C 920.738 979.525 914.577 967.647 908.471 954.474 A 3222.01 3222.01 0 0 0 988.613 938.172 z"/>
<path transform="translate(0,0)" fill="rgb(18,29,92)" d="M 1011.06 930.627 C 1044.75 942.481 1075.66 963.79 1109.71 974.597 C 1097.16 997.767 1077.41 1013.16 1053.36 1023.06 C 1023.15 1034.45 989.771 1032.32 960.55 1019.36 C 965.979 1007.73 973.205 996.345 979.47 985.104 C 989.63 966.876 999.468 947.972 1011.06 930.627 z"/>
<path transform="translate(0,0)" fill="rgb(254,254,254)" d="M 1013.31 937.649 C 1031.29 945.144 1048.94 953.875 1066.67 961.99 C 1078.23 967.279 1090.59 971.909 1101.67 978.079 C 1087.03 997.545 1072.67 1008.87 1050.27 1018.47 C 1022.81 1027.57 995.024 1027.52 968.076 1016.73 C 983.008 990.51 996.561 962.714 1013.31 937.649 z"/>
<path transform="translate(0,0)" fill="rgb(18,29,92)" d="M 1067.38 831.31 C 1068.47 831.399 1069.44 831.614 1070.46 832.038 C 1086.73 838.796 1108.31 865.843 1115.37 882.01 C 1127.75 910.37 1125.78 940.104 1114.58 968.43 C 1104.86 965.045 1095.26 960.469 1085.75 956.468 C 1062.11 945.631 1038.1 935.636 1014.47 924.799 C 1018.36 914.608 1025.35 904.53 1030.79 894.982 L 1067.38 831.31 z"/>
<path transform="translate(0,0)" fill="rgb(95,151,247)" d="M 1070.13 837.59 C 1086.65 850.894 1100.83 863.958 1109.94 883.542 C 1122.08 909.643 1120.78 935.398 1111.05 961.95 C 1101.95 956.951 1091.93 953.13 1082.43 948.944 L 1022 922.199 A 2182.15 2182.15 0 0 1 1070.13 837.59 z"/>
<path transform="translate(0,0)" fill="rgb(18,29,92)" d="M 898.261 935.165 C 897.307 918.117 898.578 902.36 904.679 886.271 C 914.907 859.294 934.914 838.866 961.219 827.187 C 993.153 813.009 1025.54 813.1 1057.93 825.48 C 1058.85 826.414 1060.35 827.4 1060.38 828.734 C 1060.44 831.882 1012.33 914.548 1006.66 922.658 C 994.675 925.925 908 943.962 901.352 943.683 C 898.871 941.13 898.716 938.626 898.261 935.165 z"/>
<path transform="translate(0,0)" fill="rgb(254,254,254)" d="M 902.686 931.037 C 904.664 917.25 903.454 904.559 908.426 891.012 C 918.294 864.127 937.296 844.235 963.165 832.327 C 992.964 818.609 1023.16 818.239 1053.68 829.501 C 1036.86 858.579 1021.88 889.014 1003.82 917.34 C 981.609 922.702 959.091 926.998 936.717 931.628 C 926.991 933.641 915.247 937.498 905.388 937.549 C 903.476 935.513 903.343 933.664 902.686 931.037 z"/>
<path transform="translate(0,0)" fill="rgb(18,29,92)" d="M 1861.43 779.5 C 1871.41 780.073 1880.48 781.929 1887.94 789.098 C 1896.26 797.086 1897.26 807.079 1897.4 817.999 A 11082.4 11082.4 0 0 1 1897.25 957.984 L 1897.42 1006.26 C 1897.45 1015.73 1898.13 1025.84 1896.77 1035.23 C 1895.81 1041.93 1893.3 1049.06 1888.42 1053.92 C 1883.19 1059.12 1875.87 1062.56 1868.56 1063.38 C 1847.28 1065.77 1823.96 1063.99 1802.49 1063.98 L 1672.77 1063.93 L 1246.75 1063.98 C 1237.67 1064.25 1228.07 1060.94 1221.33 1054.8 C 1214.24 1048.33 1212.38 1039.28 1211.97 1030.03 C 1211.32 1015.44 1211.89 1000.58 1211.94 985.967 L 1212.08 899.589 L 1211.86 839.977 C 1211.81 829.113 1211.03 817.655 1212.31 806.863 C 1213.05 800.563 1214.89 793.953 1219.33 789.231 C 1223.69 784.596 1229.63 781.077 1236.01 780.317 C 1255.2 778.029 1276.06 779.547 1295.41 779.59 L 1401.84 779.672 L 1704.77 779.722 L 1804.85 779.723 C 1823.67 779.738 1842.64 780.344 1861.43 779.5 z"/>
<path transform="translate(0,0)" fill="rgb(254,254,254)" d="M 1233.76 785.495 C 1250.2 782.72 1274.73 784.643 1291.85 784.642 L 1416.65 784.654 L 1702.15 784.644 C 1752.16 784.643 1802.26 784.034 1852.26 784.736 C 1858.97 784.83 1870.43 784.05 1876.36 787.349 L 1878.18 788.351 C 1884.58 791.911 1888.81 797.229 1890.7 804.334 C 1894.07 817.039 1892.02 833.95 1892.02 847.163 L 1892.04 923.989 L 1892.16 991.61 C 1892.22 1004.89 1892.84 1018.48 1892.01 1031.72 C 1891.69 1036.82 1890.92 1041.36 1888.23 1045.76 C 1884.25 1052.25 1878.37 1055.36 1871.19 1057.1 C 1871.02 1057.22 1870.86 1057.36 1870.68 1057.45 C 1867.91 1058.84 1863.59 1058.87 1860.56 1058.96 C 1842.31 1059.52 1823.86 1058.93 1805.59 1058.94 L 1693 1058.99 L 1375.36 1059.07 L 1278.6 1059.07 C 1267.08 1059.05 1249.23 1060.87 1238.32 1058.32 C 1232.79 1057.03 1225.43 1053.72 1222.41 1048.66 C 1219.1 1043.12 1217.66 1036.61 1217.21 1030.23 C 1216.29 1017.32 1217.03 1003.85 1217.06 990.878 L 1217.47 910.469 C 1217.53 890.052 1214.87 814.355 1218.6 800.943 C 1220.73 793.32 1227.23 789.112 1233.76 785.495 z"/>
<path transform="translate(0,0)" fill="rgb(18,29,92)" d="M 1603.96 892.499 C 1613.67 891.225 1624.37 891.917 1634.2 891.908 L 1687.32 891.898 C 1734.23 891.903 1781.56 890.43 1828.42 891.743 C 1831.18 891.82 1833.79 891.726 1836.24 893.133 L 1835.08 895.501 C 1834.65 895.998 1833.62 896.44 1833.04 896.772 C 1807.47 896.672 1610.05 898.367 1605.03 895.873 L 1603.96 892.499 z"/>
<path transform="translate(0,0)" fill="rgb(18,29,92)" d="M 1604.26 941.499 C 1620.71 940.494 1637.51 941.215 1654 941.22 L 1745.69 941.262 A 4962.87 4962.87 0 0 0 1801.58 941.136 C 1811.08 941.055 1821.61 940.103 1831.01 941.055 C 1833.06 941.263 1834.19 941.418 1835.54 943.028 L 1834.11 945.501 C 1834.01 945.536 1833.91 945.578 1833.81 945.607 C 1825.45 947.926 1780.25 946.273 1768.49 946.278 C 1715.14 946.301 1661.53 947.402 1608.21 946.281 C 1606.77 946.25 1606.27 946.1 1605.07 945.401 L 1604.26 941.499 z"/>
<path transform="translate(0,0)" fill="rgb(18,29,92)" d="M 1604.36 991.499 C 1621 990.281 1638.24 991.066 1654.94 991.07 L 1746.54 991.131 L 1804.56 991.177 C 1814.43 991.186 1825.42 990.282 1835.12 991.851 L 1835.66 993.293 L 1834.09 995.502 C 1831.57 996.561 1610.36 996.978 1605.42 995.827 L 1604.36 991.499 z"/>
<path transform="translate(0,0)" fill="rgb(18,29,92)" d="M 1604.81 842.5 C 1629.55 841.81 1832.94 841.236 1835.95 843.369 C 1835.72 845.788 1835.02 845.876 1833.25 847.435 C 1826.82 848.437 1818.95 847.597 1812.38 847.554 L 1766.53 847.346 L 1612.39 847.934 C 1609.3 847.93 1607.4 847.766 1604.91 845.971 L 1604.81 842.5 z"/>
<path transform="translate(0,0)" fill="rgb(18,29,92)" d="M 1298.94 890.494 C 1299.13 890.478 1299.32 890.466 1299.52 890.448 C 1306.93 889.75 1389.72 916.687 1395.74 921.508 C 1391.15 927.587 1364.06 941.977 1356.2 944.989 C 1354.89 947.133 1309.66 973.855 1306.43 974.609 C 1304.69 975.015 1304.37 974.42 1302.94 973.501 C 1293.96 959.035 1290.23 935.251 1292.99 918.687 C 1294.52 909.52 1297.81 900.212 1298.87 891.103 C 1298.9 890.9 1298.92 890.697 1298.94 890.494 z"/>
<path transform="translate(0,0)" fill="rgb(95,151,247)" d="M 1302.65 896.49 C 1309.13 895.943 1376.18 918.6 1384.09 922.835 C 1382.13 926.327 1356.5 939.311 1351.35 941.718 C 1345.48 947.938 1313.99 965.08 1305.36 968.565 C 1306 965.115 1301.44 956.574 1300.31 952.946 C 1298.72 947.784 1297.95 942.022 1297.54 936.642 C 1296.27 919.813 1302.77 908.908 1302.67 897.009 C 1302.67 896.836 1302.66 896.663 1302.65 896.49 z"/>
<path transform="translate(0,0)" fill="rgb(18,29,92)" d="M 1413.67 918.616 C 1422.52 909.266 1439.83 877.255 1447.72 864.487 C 1454.84 852.956 1463.57 841.266 1469.63 829.265 C 1474.46 830.826 1479.06 833.882 1483.17 836.813 C 1486.37 839.099 1492.1 842.868 1492.78 846.956 C 1502.75 850.985 1511.02 867.549 1515.13 877.21 A 107.272 107.272 0 0 1 1515.46 959.145 C 1510.55 971.287 1502.09 987.172 1490.62 994.179 C 1487.84 988.609 1477.93 979.554 1472.67 976.056 C 1469.57 970.337 1456.17 959.317 1450.71 955.03 C 1448.11 949.892 1419.6 923.97 1413.67 918.616 z"/>
<path transform="translate(0,0)" fill="rgb(254,254,254)" d="M 1470.71 835.868 C 1476.51 837.545 1486.26 844.966 1489.71 850.058 C 1505.11 861.626 1514.79 886.273 1517.37 904.888 C 1520.72 928.979 1514.7 957.699 1499.85 977.248 C 1497.09 980.883 1494.39 984.183 1490.49 986.665 C 1488.61 982.746 1481.55 975.802 1477.55 974.228 C 1477.29 974.128 1477.03 974.048 1476.78 973.958 L 1476.33 972.042 C 1470.28 965.62 1461.71 955.475 1453.77 952.017 L 1453.47 950.467 C 1445.79 941.808 1429.07 923.99 1419.68 918.16 C 1419.88 918.037 1420.09 917.921 1420.29 917.79 C 1423.49 915.652 1470.02 839.875 1470.71 835.868 z"/>
<path transform="translate(0,0)" fill="rgb(18,29,92)" d="M 1391.39 813.498 C 1396.11 812.937 1400.97 812.903 1405.72 812.856 C 1420.32 812.71 1451.93 816.211 1462.53 826.612 C 1462.58 827.195 1462.64 827.391 1462.56 827.937 C 1462.08 831.44 1410.21 915.658 1405.72 919.514 C 1398.69 914.702 1386.44 912.344 1378.18 910.086 C 1371.63 905.307 1310 885.929 1297.39 881.898 C 1302.59 876.963 1305.81 868.533 1309.93 862.568 C 1329.49 834.246 1358.37 819.709 1391.39 813.498 z"/>
<path transform="translate(0,0)" fill="rgb(254,254,254)" d="M 1391.78 818.498 C 1408.07 816.716 1441.1 817.997 1454.69 828.247 C 1454.73 828.634 1454.82 829.385 1454.75 829.82 C 1454.01 834.653 1408.16 909.543 1403.91 912.693 C 1396.87 908.333 1384.38 906.079 1376.23 903.549 C 1372.63 900.5 1312.72 881.142 1304.38 879.063 C 1309.98 874.418 1313.92 865.557 1318.69 859.806 C 1338.2 836.247 1362.14 824.363 1391.78 818.498 z"/>
<path transform="translate(0,0)" fill="rgb(18,29,92)" d="M 1405.02 923.497 C 1407.43 923.371 1408.83 923.911 1410.7 925.393 C 1422.04 934.338 1431.97 945.769 1442.39 955.801 C 1455.98 968.877 1471.11 981.627 1483.57 995.726 C 1484.76 997.066 1485.28 997.826 1485.47 999.641 C 1484.87 1001.69 1483.98 1002.93 1482.4 1004.33 C 1469.06 1016.17 1438.87 1025.83 1421.24 1027.71 C 1411.39 1028.76 1401.27 1028.09 1391.41 1027.5 C 1369.01 1023.17 1345.83 1015.08 1328.24 999.994 C 1321.96 994.604 1316.09 987.314 1308.94 983.189 C 1308.68 983.043 1308.43 982.903 1308.17 982.761 C 1314.86 980.388 1402.12 927.256 1405.02 923.497 z"/>
<path transform="translate(0,0)" fill="rgb(254,254,254)" d="M 1404.78 930.496 L 1407.53 930.34 C 1412.9 932.97 1476.55 994.646 1478.35 999.36 C 1477.44 1001.45 1475.46 1002.67 1473.63 1003.92 C 1452.34 1018.38 1417.64 1026.86 1392.2 1022.14 C 1369.71 1018.02 1353.5 1011.43 1335.01 997.862 C 1329.21 993.612 1323.7 988.241 1317.5 984.669 C 1317.28 984.547 1317.07 984.43 1316.85 984.311 C 1323.37 981.757 1400.52 934.303 1404.78 930.496 z"/>
<path transform="translate(0,0)" fill="rgb(254,254,254)" d="M 889.958 245.185 L 1886.24 245.051 C 1886.71 245.971 1887.28 246.943 1887.55 247.951 C 1889.61 255.628 1888.01 274.22 1888.01 282.971 L 1887.99 373.415 L 1887.82 611.475 C 1887.77 649.687 1888.72 688.153 1887.72 726.334 C 1887.65 728.899 1887.48 730.716 1886.13 732.957 L 1835.75 732.945 L 839.083 732.597 L 838.982 492.322 A 9515.42 9515.42 0 0 0 838.531 337.667 C 857.048 307.831 873.28 276.096 889.958 245.185 z"/>
<path transform="translate(0,0)" fill="rgb(18,29,92)" d="M 1771.8 278.112 C 1776.66 273.663 1781.16 270.381 1788.04 270.684 C 1793.3 270.916 1798.5 273.027 1802.07 276.979 C 1804.45 279.616 1806.07 283.084 1805.66 286.702 C 1805.34 289.565 1803.37 293.357 1801.05 295.098 C 1800.69 295.373 1800.18 295.676 1799.81 295.908 L 1800.69 292.836 C 1798.79 293.393 1796.92 293.717 1794.97 294.021 C 1797.26 292.576 1799.57 290.188 1800.4 287.511 C 1801.07 285.368 1800.97 283.877 1799.92 281.923 C 1798.38 279.038 1795.06 277.703 1792.05 276.939 C 1784.92 275.13 1780.87 277.328 1774.83 280.968 L 1774.42 279.352 L 1771.8 278.112 z"/>
<path transform="translate(0,0)" fill="rgb(18,29,92)" d="M 1771.8 278.112 L 1774.42 279.352 L 1774.83 280.968 C 1774.85 286.582 1775.15 289.673 1779.31 293.787 C 1781.4 295.86 1783.93 297.099 1786.94 296.945 C 1789.56 296.811 1793.02 295.807 1794.97 294.021 C 1796.92 293.717 1798.79 293.393 1800.69 292.836 L 1799.81 295.908 C 1798.86 298.336 1798.03 299.059 1795.55 300.203 C 1788 303.679 1780.73 300.135 1772.87 305.012 C 1771.84 305.267 1770.88 305.542 1769.91 305.948 L 1769.02 306.325 C 1770.11 304.659 1771.64 303.225 1773 301.775 L 1772.91 299.061 C 1773.44 298.398 1773.65 298.021 1773.88 297.181 C 1774.2 295.982 1771.31 293.097 1770.62 291.738 C 1768.47 287.467 1770.54 282.333 1771.8 278.112 z"/>
<path transform="translate(0,0)" fill="rgb(254,254,254)" d="M 1774.83 280.968 C 1780.87 277.328 1784.92 275.13 1792.05 276.939 C 1795.06 277.703 1798.38 279.038 1799.92 281.923 C 1800.97 283.877 1801.07 285.368 1800.4 287.511 C 1799.57 290.188 1797.26 292.576 1794.97 294.021 C 1793.02 295.807 1789.56 296.811 1786.94 296.945 C 1783.93 297.099 1781.4 295.86 1779.31 293.787 C 1775.15 289.673 1774.85 286.582 1774.83 280.968 z"/>
<path transform="translate(0,0)" fill="rgb(18,29,92)" d="M 1141.99 635.951 C 1161.53 635.205 1181.8 635.205 1201.34 636.081 C 1201.78 636.797 1202.14 637.308 1202.29 638.158 C 1203.25 643.679 1203.45 676.711 1201.96 681.397 C 1201.71 682.162 1200.61 683.375 1200.13 684.086 L 1199.5 684.719 C 1190.5 687.356 1153.84 685.336 1142.13 685.247 C 1141.03 669.053 1141.67 652.204 1141.99 635.951 z"/>
<path transform="translate(0,0)" fill="rgb(250,172,73)" d="M 1147.13 640.884 C 1163.16 641.081 1179.21 640.959 1195.24 640.982 C 1196.22 642.561 1196.67 643.834 1196.83 645.677 C 1197.39 652.007 1198.98 675.33 1195.07 679.82 C 1185.24 681.968 1158.45 680.22 1147.13 680.118 L 1147.13 640.884 z"/>
<path transform="translate(0,0)" fill="rgb(18,29,92)" d="M 1186.01 563.096 C 1195.34 557.1 1262.93 506.097 1265.17 500.951 C 1266.83 497.146 1263.5 488.216 1266.76 481.414 C 1268.74 477.298 1272.17 474.479 1276.44 472.961 C 1282.77 470.706 1291.11 469.777 1297.25 473.122 C 1299.94 474.589 1301.11 476.111 1301.9 478.961 A 8.62269 8.62269 0 0 1 1304.77 481.012 A 10.0734 10.0734 0 0 1 1307.47 488.244 L 1379.77 487.962 C 1383.05 485.154 1385.34 478.575 1388.66 474.865 L 1388.95 477.674 C 1387.76 479.138 1386.6 479.865 1386.7 481.794 C 1388.01 480.472 1388.59 479.269 1390.49 479.162 C 1398.28 475.664 1403.32 474.683 1411.47 477.931 C 1414.31 479.061 1417.26 481.179 1418.53 484.036 C 1419.75 486.782 1419.77 491.361 1418.5 494.101 C 1418.23 494.693 1418.01 494.964 1417.63 495.54 L 1419.19 497.956 L 1418.47 500.29 L 1420.35 500.144 C 1420.18 502.838 1417.57 505.238 1415.65 506.985 C 1412.32 510.02 1407.49 510.902 1403.11 510.51 C 1393.26 509.627 1387.78 505.473 1381.71 498.011 L 1380.9 494.539 C 1375.21 491.076 1318.04 493.182 1307.34 493.255 C 1307.52 495.659 1307.33 497.98 1305.74 499.942 C 1305.07 500.778 1304.09 501.435 1303.21 502.034 C 1303.12 502.85 1303.17 502.931 1302.78 503.796 C 1301.55 506.574 1297.05 509.477 1294.25 510.429 C 1285.4 513.444 1276.6 509.73 1268.68 505.96 C 1266.7 510.687 1198.74 560.59 1189.6 566.729 C 1190.31 568.087 1190.81 569.766 1191.23 571.244 C 1192.67 576.24 1192.52 582.084 1189.81 586.634 A 20.0483 20.0483 0 0 1 1177.21 595.734 C 1171.91 597.017 1166.04 596.256 1161.42 593.288 C 1157.32 590.651 1154.83 586.322 1153.93 581.589 C 1153.01 576.683 1153.5 571.339 1156.42 567.162 C 1159.62 562.604 1165.17 559.581 1170.59 558.684 C 1176.59 557.692 1181.23 559.645 1186.01 563.096 z"/>
<path transform="translate(0,0)" fill="rgb(254,254,254)" d="M 1166.9 564.471 C 1170.79 563.727 1174.62 563.277 1178.34 564.944 C 1182.06 566.613 1185.22 570.031 1186.47 573.932 A 11.8024 11.8024 0 0 1 1185.52 583.47 C 1183.35 587.296 1180.26 588.973 1176.18 590.145 C 1174.49 591.175 1172.99 591.292 1171.04 591.267 C 1167.65 591.224 1164.92 589.958 1162.64 587.424 C 1160.07 584.564 1159.19 580.732 1159.33 576.966 C 1159.55 571.175 1162.93 568.096 1166.9 564.471 z"/>
<path transform="translate(0,0)" fill="rgb(254,254,254)" d="M 1390.49 479.162 C 1398.28 475.664 1403.32 474.683 1411.47 477.931 C 1414.31 479.061 1417.26 481.179 1418.53 484.036 C 1419.75 486.782 1419.77 491.361 1418.5 494.101 C 1418.23 494.693 1418.01 494.964 1417.63 495.54 C 1417.38 498.135 1415 501.449 1413 503.116 C 1410.66 505.056 1407.3 505.76 1404.33 505.491 C 1395.3 504.676 1390.32 500.673 1384.82 493.836 C 1385.97 488.483 1387.8 483.926 1390.49 479.162 z"/>
<path transform="translate(0,0)" fill="rgb(254,254,254)" d="M 1299 499.873 C 1298.83 500.241 1298.68 500.62 1298.44 500.951 C 1296.31 503.898 1292 505.715 1288.53 506.13 C 1283.64 506.716 1277.72 506.585 1273.83 503.131 C 1271.13 500.726 1269.95 496.996 1269.83 493.466 C 1269.66 488.407 1271.87 483.439 1275.39 479.866 C 1278.31 476.909 1282.02 474.881 1286.29 475.018 C 1290.57 475.155 1295.42 477.747 1298.21 480.93 C 1301.07 483.774 1303.27 487.34 1303.18 491.532 C 1303.09 495.189 1301.61 497.493 1299 499.873 z"/>
<path transform="translate(0,0)" fill="rgb(18,29,92)" d="M 1772.91 299.061 L 1773 301.775 C 1771.64 303.225 1770.11 304.659 1769.02 306.325 L 1769.91 305.948 C 1770.88 305.542 1771.84 305.267 1772.87 305.012 C 1771.69 307.806 1671.49 397.192 1665.97 399.996 C 1668.43 402.321 1670.38 404.705 1670.53 408.255 C 1670.57 409.293 1670.52 410.33 1670.46 411.366 C 1671.42 415.074 1670.54 419.125 1668.57 422.401 C 1665.06 428.244 1657.75 431.357 1651.37 432.676 A 61.1654 61.1654 0 0 1 1647.45 433.345 C 1640.36 430.618 1633.71 428.959 1629.72 421.768 C 1628.36 419.323 1627.32 416.538 1625.5 414.379 C 1598.78 411.041 1571.95 407.687 1545.14 405.183 C 1545.14 408.783 1542.82 414.352 1540.25 416.865 C 1536.06 420.965 1528.61 421.748 1523.06 421.381 C 1518.87 421.104 1508.84 416.713 1506.49 416.927 C 1501.44 417.386 1433.96 472.122 1421.73 479.404 C 1424.15 484.529 1425.65 490.583 1423.56 496.1 C 1422.84 498.011 1422.07 499.083 1420.35 500.144 L 1418.47 500.29 L 1419.19 497.956 L 1417.63 495.54 C 1418.01 494.964 1418.23 494.693 1418.5 494.101 C 1419.77 491.361 1419.75 486.782 1418.53 484.036 C 1417.26 481.179 1414.31 479.061 1411.47 477.931 C 1403.32 474.683 1398.28 475.664 1390.49 479.162 C 1388.59 479.269 1388.01 480.472 1386.7 481.794 C 1386.6 479.865 1387.76 479.138 1388.95 477.674 L 1388.66 474.865 C 1394 471.496 1399.2 469.723 1405.62 470.241 C 1409.74 470.573 1414.41 472.528 1417.15 475.649 C 1428.58 470.063 1439.71 460 1449.92 452.298 C 1467.56 438.994 1485.64 425.985 1502.51 411.719 L 1502.89 410.852 C 1502.37 408.831 1501.83 406.773 1501.6 404.694 C 1500.98 399.045 1501.85 393.313 1505.5 388.801 C 1509.19 384.242 1515.04 381.623 1520.79 380.996 C 1527.03 380.314 1534.18 381.916 1539.09 385.977 C 1543.15 389.331 1545.76 394.516 1546.33 399.719 C 1556.7 400.895 1621.17 410.386 1625.89 408.005 C 1630.75 405.559 1633.31 393.383 1644.92 391.153 C 1650.76 390.032 1658.27 392.984 1663.03 396.291 C 1669.53 391.805 1675.43 385.532 1681.35 380.226 L 1719.46 346.141 A 4118.96 4118.96 0 0 1 1754.43 315.565 C 1760.55 310.247 1767.45 305.035 1772.91 299.061 z"/>
<path transform="translate(0,0)" fill="rgb(254,254,254)" d="M 1642.79 397.499 C 1647.91 396.797 1652.78 396.598 1657.47 399.146 C 1661.48 401.329 1664.86 405.16 1665.94 409.664 C 1666.72 412.905 1666.28 416.323 1664.54 419.177 C 1661.73 423.78 1657.22 425.756 1652.17 426.919 C 1649.52 427.669 1646.76 427.607 1644.08 426.972 C 1640.06 426.019 1636.42 423.512 1634.33 419.922 C 1632.19 416.268 1631.72 411.541 1632.95 407.499 C 1634.54 402.238 1638.29 400.014 1642.79 397.499 z"/>
<path transform="translate(0,0)" fill="rgb(254,254,254)" d="M 1516.81 386.498 C 1521.76 385.687 1526.17 385.347 1530.87 387.464 C 1535.14 389.383 1538.79 393.064 1540.32 397.521 C 1541.52 401.017 1541.34 404.863 1539.52 408.119 C 1536.81 412.977 1532.37 414.994 1527.22 416.366 C 1525.33 417.237 1523.04 416.963 1521.01 416.73 C 1516.65 416.228 1512.79 414.544 1510.06 410.972 C 1507.36 407.433 1506.57 402.912 1507.26 398.565 C 1508.16 392.809 1512.38 389.674 1516.81 386.498 z"/>
<path transform="translate(0,0)" fill="rgb(18,29,92)" d="M 1022.29 531.761 A 100.253 100.253 0 0 1 1055.38 553.434 C 1068.75 566.844 1077.68 584.421 1077.55 603.673 C 1077.4 624.65 1067.5 642.772 1053.03 657.242 C 1049.04 654.867 1045.14 652.327 1041.22 649.855 C 1021.42 635.605 999.889 622.767 979.229 609.768 C 984.257 598.781 990.686 588.087 996.447 577.45 C 1004.74 562.138 1012.81 546.356 1022.29 531.761 z"/>
<path transform="translate(0,0)" fill="rgb(95,151,247)" d="M 1024.6 538.318 C 1031.14 541.724 1037.52 545.394 1043.37 549.91 C 1058.04 561.242 1069.63 577.744 1071.88 596.463 C 1074.34 616.943 1065.25 635.163 1052.93 650.71 L 1042.12 643.857 C 1023.63 631.501 1005.22 618.912 986.352 607.149 C 999.604 584.565 1011.76 561.162 1024.6 538.318 z"/>
<path transform="translate(0,0)" fill="rgb(18,29,92)" d="M 1371.69 561.498 C 1385.86 559.491 1415.12 560.36 1429.58 561.68 C 1430.58 563.342 1430.94 564.671 1431.07 566.595 C 1432.4 587.233 1431.08 608.555 1430.99 629.259 C 1430.92 645.571 1432.15 662.394 1431.09 678.647 C 1430.88 681.878 1430.87 682.593 1428.38 684.722 C 1409.5 686.629 1388.94 685.021 1369.89 684.977 C 1373.63 677.459 1370.71 579.591 1371.69 561.498 z"/>
<path transform="translate(0,0)" fill="rgb(250,172,73)" d="M 1376.5 566.499 A 1610.95 1610.95 0 0 1 1424.52 566.472 C 1426.84 570.598 1427.3 665.179 1425.73 676.132 C 1425.38 678.592 1425.19 678.496 1423.29 679.921 L 1375.19 679.871 C 1378.29 674.976 1376.93 579.74 1376.5 566.499 z"/>
<path transform="translate(0,0)" fill="rgb(18,29,92)" d="M 1255.58 561.497 C 1267.36 560.26 1301.51 559.552 1311.99 562.17 C 1312.52 562.739 1312.56 562.722 1312.96 563.539 C 1315.16 568.037 1315.58 677.223 1313.57 682.596 C 1312.95 684.26 1311.74 684.393 1310.2 685.128 A 5403.64 5403.64 0 0 1 1253.07 685.056 C 1258.41 674.295 1249.42 574.84 1255.58 561.497 z"/>
<path transform="translate(0,0)" fill="rgb(250,172,73)" d="M 1259.41 566.498 C 1275.35 565.872 1291.43 566.414 1307.37 566.667 C 1308 567.786 1308.6 569.088 1308.86 570.361 C 1310.08 576.441 1310.1 673.432 1308.81 676.974 C 1308.5 677.833 1307.61 678.896 1307.11 679.697 C 1291.66 681.659 1273.84 680.002 1258.14 679.916 C 1261.73 673.412 1260.27 578.791 1259.41 566.498 z"/>
<path transform="translate(0,0)" fill="rgb(18,29,92)" d="M 1617.19 480.5 C 1636.77 479.221 1656.88 480.154 1676.51 480.251 C 1677.15 481.263 1677.71 482.342 1677.89 483.538 C 1679.06 491.156 1678.17 500.02 1678.16 507.785 L 1678.04 559.788 A 7270.44 7270.44 0 0 0 1678.11 633.395 C 1678.19 647.728 1678.88 662.364 1678.09 676.663 C 1677.9 680.292 1677.89 681.583 1675.67 684.501 C 1668.91 687.159 1626.2 684.925 1615.82 684.796 C 1619.18 678.164 1616.24 505.321 1617.19 480.5 z"/>
<path transform="translate(0,0)" fill="rgb(250,172,73)" d="M 1622.14 485.5 L 1671.51 485.287 A 14.2895 14.2895 0 0 1 1672.92 490.496 C 1673.75 502.94 1673.1 515.84 1673.09 528.321 L 1673.06 601.487 L 1673.04 651.575 C 1673.06 659.009 1673.84 667.087 1673.13 674.45 C 1672.83 677.52 1672.61 678.07 1670.25 679.974 L 1620.9 679.897 C 1624.75 673.64 1622.48 503.061 1622.14 485.5 z"/>
<path transform="translate(0,0)" fill="rgb(18,29,92)" d="M 1493.62 466.497 C 1507.41 463.778 1536.09 465.551 1551.21 465.855 C 1552.57 467.69 1552.8 469.418 1552.9 471.626 C 1554.46 505.719 1553.02 540.515 1553 574.685 C 1552.98 608.846 1554.36 643.556 1553.02 677.658 C 1552.88 681.221 1552.98 682.446 1550.32 684.887 C 1530.95 685.645 1511.41 685.147 1492.02 685.133 C 1492.78 683.664 1493.29 682.154 1493.45 680.5 C 1494.43 670.187 1493.42 658.875 1493.41 648.419 L 1493.64 585.39 L 1493.86 508.254 C 1493.9 494.436 1494.69 480.247 1493.62 466.497 z"/>
<path transform="translate(0,0)" fill="rgb(250,172,73)" d="M 1498.03 471.497 C 1509.8 468.901 1533.36 470.824 1546.4 470.9 C 1547 471.886 1547.5 472.95 1547.7 474.096 C 1548.76 480.314 1547.94 487.977 1547.94 494.332 L 1547.98 541.256 L 1548 628.949 C 1547.99 643.909 1548.66 659.212 1547.86 674.129 C 1547.76 676.153 1547.36 677.528 1546.21 679.222 C 1542.46 681.607 1504.65 679.907 1497.14 679.863 C 1497.33 679.573 1497.53 679.294 1497.7 678.995 C 1499.09 676.549 1500.57 479.63 1498.03 471.497 z"/>
<path transform="translate(0,0)" fill="rgb(18,29,92)" d="M 956.232 534.324 C 965.305 533.038 975.45 533.699 984.489 535.06 C 990.659 535.989 1000.79 537.355 1004.66 542.573 C 1004.55 550.154 975.5 600.083 969.885 611.154 L 1034.33 652.751 C 1023.54 666.164 1007.22 674.815 991.251 680.348 C 987.214 681.626 982.77 682.592 978.586 683.24 C 955.655 686.792 931.526 681.752 912.697 667.952 A 71.6287 71.6287 0 0 1 883.834 620.867 C 881.07 602.041 886.531 581.865 897.946 566.704 C 912.063 547.956 933.377 537.609 956.232 534.324 z"/>
<path transform="translate(0,0)" fill="rgb(250,172,73)" d="M 958.775 539.355 C 972.595 537.795 985.652 540.117 998.825 544.121 C 987.198 567.237 974.553 589.843 962.577 612.781 C 982.305 627.775 1005.05 640.527 1025.95 653.956 C 1014.82 664.513 1001.4 671.321 986.965 676.047 C 984.495 676.73 982.004 677.389 979.486 677.874 C 958.287 681.957 935.018 676.747 917.42 664.408 C 903.104 654.37 892.722 639.749 889.777 622.345 A 67.8826 67.8826 0 0 1 902.063 570.629 C 915.846 551.849 936.33 542.668 958.775 539.355 z"/>
<path transform="translate(0,0)" fill="rgb(18,29,92)" d="M 1752.73 344.499 C 1766.86 341.899 1796.42 343.867 1812.12 344.075 C 1812.84 345.125 1813.45 346.275 1813.7 347.538 C 1815.38 356.071 1814.04 367.153 1814.05 376.018 L 1814.04 445.442 L 1814.05 612.274 C 1814.04 633.19 1814.81 654.325 1814.4 675.205 C 1814.33 679.164 1814.45 681.265 1812.06 684.501 C 1804.1 687.172 1763.17 685.198 1751.69 685.109 C 1752.67 683.36 1752.9 682.028 1752.99 680.046 C 1753.69 664.105 1753.12 647.877 1753.12 631.906 L 1753.15 538.911 C 1753.15 474.205 1754.46 409.163 1752.73 344.499 z"/>
<path transform="translate(0,0)" fill="rgb(250,172,73)" d="M 1757.63 349.499 C 1772.91 347.013 1791.47 348.913 1807.12 348.951 A 10.0295 10.0295 0 0 1 1808.38 352.331 C 1809.9 361.144 1808.63 372.03 1808.63 381.134 L 1808.62 448.16 C 1808.62 523.122 1810.14 598.316 1808.86 673.24 C 1808.83 675.277 1809.08 676.461 1807.9 678.195 L 1807.01 679.501 C 1792.46 681.807 1772.07 679.976 1756.94 679.936 C 1758.34 677.355 1758.52 675.17 1758.59 672.295 C 1759.15 648.085 1758.47 623.729 1758.43 599.501 L 1758.37 451.972 C 1758.38 437.046 1760.36 359.127 1757.63 349.499 z"/>
<path transform="translate(0,0)" fill="rgb(18,29,92)" d="M 876.211 296.762 C 901.275 295.243 927.447 296.757 952.628 296.772 L 1106.95 296.726 L 1229.08 296.885 C 1239.64 296.973 1257.16 295.414 1266.49 296.311 C 1268.86 296.539 1271.27 297.372 1272.76 299.323 C 1274.28 301.315 1274.86 304.065 1275.08 306.523 C 1276.18 318.696 1274.92 332.261 1274.93 344.55 C 1274.95 364.254 1276.9 393.509 1274.3 411.877 C 1272.51 414.148 1271.75 413.911 1268.99 414.501 C 1250.08 415.272 1230.85 414.543 1211.91 414.512 L 1100.12 414.445 L 953.563 414.663 C 929.424 414.711 905.123 415.406 881.007 414.847 C 879.646 414.815 878.496 414.485 877.264 413.941 C 874.45 408.896 874.854 308.717 876.211 296.762 z"/>
<path transform="translate(0,0)" fill="rgb(250,172,73)" d="M 881.019 301.939 L 1268.12 302.021 C 1268.61 302.851 1269.1 303.778 1269.33 304.722 C 1271.08 312.063 1270.31 392.942 1269.49 404.001 C 1269.39 405.399 1268.88 406.523 1268.15 407.711 L 1267.5 408.638 C 1263.37 410.674 924.533 409.295 881.039 409.293 L 881.019 301.939 z"/>
<path transform="translate(0,0)" fill="rgb(254,254,254)" d="M 893.947 313.393 C 938.576 314.033 983.272 313.38 1027.91 313.391 L 1257.3 313.786 C 1257.78 314.543 1258.19 315.178 1258.4 316.062 C 1260.11 323.178 1259.99 393.14 1257.34 397.509 C 1252.9 399.516 927.923 398.258 893.623 398.068 A 3065.28 3065.28 0 0 1 893.947 313.393 z"/>
<path transform="translate(0,0)" fill="rgb(18,29,92)" d="M 1090.97 337.11 C 1103 336.489 1228.46 335.595 1235.13 337.757 L 1235.79 339.208 L 1234.07 341.777 C 1224.88 343.728 1200.65 342.138 1189.66 342.146 C 1158.11 342.172 1124.39 343.975 1093.09 341.797 C 1091.22 340.241 1091.42 339.442 1090.97 337.11 z"/>
<path transform="translate(0,0)" fill="rgb(18,29,92)" d="M 908.664 337.275 C 917.552 336.296 1054.12 335.984 1058.37 337.378 C 1060.3 338.009 1060.74 339.786 1061.63 341.444 C 1056.34 342.952 914.633 342.739 910.376 341.334 L 908.664 337.275 z"/>
<path transform="translate(0,0)" fill="rgb(18,29,92)" d="M 909.718 370.065 C 931.819 368.418 954.914 369.683 977.118 369.689 L 1110.11 369.749 L 1197.7 369.693 C 1208.12 369.692 1224.69 367.993 1234.41 370.268 L 1234.9 371.827 L 1233.15 374.655 C 1232.96 374.702 1232.77 374.759 1232.58 374.795 C 1222.11 376.744 1208.44 375.084 1197.59 375.024 L 1123.74 374.943 L 980.246 374.965 C 966.493 374.959 952.723 374.724 938.974 374.878 C 931.471 374.962 923.819 375.761 916.332 375.171 C 914.671 375.04 912.519 375.016 911.13 373.986 C 909.912 373.081 910.001 371.502 909.718 370.065 z"/>
</svg>