<svg xmlns="http://www.w3.org/2000/svg" display="block" viewBox="0 0 2048 1152"><path fill="#fefefe" d="M0 0h2046.25c2.4 3.778 1.74 9.25 1.74 13.593l.01 821.535.01 226.812-.01 60.15c-.01 8.27 1.11 18.39-.28 26.42-.22 1.26-.79 2.42-1.47 3.49H0z"/><path fill="#5f97f7" d="M197.284 228.967c2.721-.003 5.73.488 8.228 1.63a16.74 16.74 0 0 1 8.654 9.425 14.77 14.77 0 0 1-.57 11.551c-2.334 4.795-5.796 6.834-10.658 8.565-2.66.057-5.421-.106-7.955-.987a15.65 15.65 0 0 1-9.249-8.49 14.94 14.94 0 0 1 .005-11.627c2.326-5.644 6.179-7.737 11.545-10.067M1975.53 1048.5c5.02-.84 9.25-.59 13.72 1.99a18.06 18.06 0 0 1 8.59 11.6 17.45 17.45 0 0 1-2.36 13.61c-3.1 4.64-7.35 6.74-12.68 7.8-2.02.67-4.8.33-6.87-.19-4.48-1.13-8.14-3.42-10.48-7.49-2.65-4.65-2.98-10.51-1.46-15.58 1.86-6.15 6.19-8.77 11.54-11.74"/><path fill="#faac49" d="M1946.23 1102.5c5.48-.4 10.79.8 15.01 4.49a17.95 17.95 0 0 1 6.05 12.71 17.83 17.83 0 0 1-4.78 13.17c-3.86 4.09-8.33 5.12-13.76 5.38-2.3-.03-4.88-.6-6.97-1.59-4.25-2.01-7.86-5.26-9.44-9.79-1.75-5-1.16-10.37 1.23-15.06 2.76-5.43 7.13-7.44 12.66-9.31M189.228 68.113c3.861-.248 7.946-.665 11.661.633 5.32 1.857 9.894 5.765 12.194 10.95a18.7 18.7 0 0 1 .301 14.473c-2.487 6.286-7.277 9.474-13.206 12.147-3.197.417-6.244.778-9.425.045-4.874-1.123-9.377-3.93-12.049-8.218-2.878-4.618-3.501-10.317-2.124-15.535 1.919-7.27 6.394-10.851 12.648-14.495m-41.126 77.168c6.15.503 11.533 1.803 16.686 5.36 6.179 4.266 10.187 10.967 11.492 18.322 1.337 7.529-.264 15.33-4.812 21.521-5.472 7.451-12.434 9.937-21.222 11.402-6.157-.028-12.479-1.87-17.553-5.369a27.4 27.4 0 0 1-11.474-18.244 27.84 27.84 0 0 1 4.977-21.15c5.489-7.455 13.029-10.477 21.906-11.842"/><path fill="#121d5c" d="M872.41 51.363c7.307-1.126 15.847-.549 23.154.552 36.259 5.462 66.926 33.047 87.973 61.501-4.397 7.365-10.348 14.316-16.181 20.586-21.504 23.116-49.308 40.097-81.448 41.295-6.013 1.212-13.826.2-19.91-.702-36.256-5.379-68.845-31.789-90.107-60.459 25.439-31.298 55.146-57.863 96.519-62.773"/><path fill="#fefefe" d="M875.713 122.001c2.437-8.966 5.557-22.318 11.756-29.36 2.512-.47 4.804-1.218 7.235-.14.773 3.275-1.611 6.846-2.978 9.785-2.961 6.693-10.258 30.88-15.235 33.888l-2.228-.676c-8.241-7.683-14.734-32.155-18.852-43.475 2.653-.204 4.74-.44 7.305.482 7.112 6.459 9.952 20.65 12.997 29.496M834.458 91.17a52 52 0 0 1 3.8.194c5.081.464 10.395 1.205 13.735 5.276-.164 2.241-.696 3.203-2.024 4.994-4.589 1.246-7.239-1.882-11.551-2.17-2.716-.181-3.594.861-5.489 2.515-.05.727-.427 1.507-.152 2.182.835 2.045 19.479 8.18 22.859 16.865.921 2.368.937 4.379-.212 6.657-2.235 4.429-9.84 7.518-14.35 8.652-3.012-.251-6.377-.387-9.226-1.438-3.131-1.156-8.21-3.566-9.689-6.606 4.303-6.197 15.18 1.106 21.848-1.565 1.423-2.385.884-2.732.234-5.335-3.058-3.368-8.445-4.504-12.549-6.287-3.346-1.453-7.844-3.71-8.981-7.487-.651-2.164-.057-4.395.93-6.342 2.812-5.548 4.924-8.102 10.817-10.104m85.02.137c3.212.474 8.989.77 11.565 2.66 2.366 1.738 3.39 3.49 3.906 6.268-4.777 5.237-11.725-1.542-17.936-.547a13.32 13.32 0 0 0-9.149 5.848c-2.367 3.604-2.928 8.191-1.839 12.327.964 3.663 3.68 7.506 7.137 9.197 3.125 1.528 9.513 1.572 12.721.362 2.998-1.131 3.349-1.636 4.701-4.484-3.006-3.214-7.939-3.873-11.616-6.254-.302-2.101-.08-2.532.668-4.441l3.114-.368 13.882.165c.04 4.067 1.356 16.445-.508 19.199-2.657 3.925-8.918 4.774-13.261 5.267-6.567.745-13.254-.619-18.466-4.839-4.748-3.844-7.587-9.665-8.132-15.71-.545-6.054 1.253-12.254 5.225-16.892 4.99-5.825 10.62-7.243 17.988-7.758"/><path fill="#121d5c" d="M337.461 146.082a62 62 0 0 1 1.789-5.685c6.65-18.314 18.822-30.087 36.23-38.167 26.766-12.424 57.338-16.119 85.409-5.664 21.72 8.09 43.603 25.618 53.334 46.967-2.909 8.255-6.755 14.425-12.197 21.156.132 12.98-3.169 22.95-8.172 34.678 1.44 6.842 4.037 12.948 5.744 19.634.906 3.547.927 6.692-.993 9.942-2.765 2.703-6.68 3.037-10.325 3.774-2.16 10.244-5.4 27.355-13.782 34.174-8.372 6.811-21.53 3.69-31.335 2.656-.767 10.416.584 21.342 1.541 31.735 2.304 2.691 4.296 5.436 6.241 8.396 18.124 7.137 32.64 18.567 44.064 34.461 6.195-14.361 14.12-28.155 21.389-41.999a4420 4420 0 0 0 31.933-61.815l35.344-69.115c5.823-11.344 11.102-23.621 18.055-34.305 16.12 3.681 32.027 10.701 47.78 15.929l121.231 40.821c15.697 5.244 32.784 13.554 49.1 15.7 16.63 2.188 46.912-.196 65.217-.188l162.792.043 581.1-.122 175.28.047 55.92-.089c11.27-.012 22.84-.576 34.05.548 17.19 1.722 30.89 11.549 40.05 25.972 6.11 9.598 7.81 18.547 8.26 29.71.95 23.763.27 47.788.21 71.575l-.31 124.563-.27 358.37v165.553c0 17.303 2.18 57.103-1.29 72.343-2.72 11.98-10.41 23.14-20.94 29.55-8.79 5.34-17.47 7.13-27.6 7.4-21.73.58-43.61-.36-65.37-.31l-177.02.03-492.41.15-232.791.16-60.549.09c-12.844.02-28.332 1.62-40.741-1.58-12.738-3.3-24.634-12.81-31.033-24.24-3.412-6.1-4.987-12.33-5.47-19.27-1.502-21.57-.394-43.82-.416-65.497l-.076-126.418.47-384.226c-5.508 4.167-11.018 7.768-17.315 10.661-16.724 28.651-34.25 57.449-49.256 87.015-30.444-12.31-61.339-24.192-92.426-34.776-27.094 12.095-57.104 28.195-87.126 16.959-23.999-8.982-44.086-29.243-61.59-47.346-.278 12.706-2.329 27.028-.817 39.481 2.621 21.581 11.199 44.108 16.889 65.119a1982 1982 0 0 1 28.604 121.188c4.717 23.525 10.236 48.25 10.371 72.311.138 24.424-5.942 50.251-10.046 74.277-5.954 34.866-11.761 70.178-18.898 104.809-1.54 7.474-6.189 12.773-7.452 20.293-2.03 12.09-5.055 28.66-1.888 40.59.945 3.56 2.592 6.92 5.153 9.6 14.686 15.35 67.415 10.62 79.959 32.79 1.132 2 2.431 4.75 2.251 7.09-.107 1.41-.524 2.73-1.735 3.49-3.166 1.96-158.849 1.25-175.491.68-1.354-29.96 8.753-29.36 11.453-51.4 1.721-14.05 2.502-29.63 2.155-43.77-.155-6.341-1.315-12.553-1.639-18.87-.415-8.084.544-16.352 1.364-24.39 2.148-21.066 4.352-42.24 7.365-63.199 2.229-15.507 13.169-70.49 11.654-81.118-2.756-19.337-18.069-33.139-23.946-49.117-5.352-6.455-9.819-14.378-14.53-21.351a830 830 0 0 0-26.524-37.591c-18.747 46.602-41.791 91.589-62.195 137.493a998 998 0 0 0-53.388 148.388l-12.721-.225c-4.985 16.73-14.952 36.61-13.108 54.33.231 2.23.579 4.91 2.184 6.59 11.785 12.4 54 12.94 68.063 25.3 4.637 4.08 4.262 12.79 4.636 18.52-16.792 2.28-36.045.54-53.056.52a7748 7748 0 0 0-115.072.17c-.284-28.83 13.4-52.36 21.472-79.46 3.879-13.02 6.266-26.298 9.814-39.37a2427 2427 0 0 1 28.414-94.299c7.899-23.919 18.109-46.827 26.694-70.463 8.439-23.235 15.175-47.811 21.072-71.828 7.572-30.841 14.155-63.144 15.705-94.923 1.095-22.445-1.153-45.645 2.53-67.851 3.885-23.423 23.68-56.246 21.964-76.858-7.567-47.087-19.922-151.936-.019-194.048 11.278-23.864 31.619-29.051 54.392-37.254 4.242-5.893 8.743-11.517 13.343-17.133l-4.823-7.395c-5.265 1.492-10.451 2.528-15.947 2.564-15.916.105-32.603-6.002-43.855-17.444a48.02 48.02 0 0 1-13.902-34.751 48.58 48.58 0 0 1 15.628-34.78c12.454-11.722 29.293-17.199 46.193-16.655"/><path fill="#5f97f7" d="M406.58 199.23c.439 1.62.74 4.319.549 5.975-.172 1.498-.731 2.494-1.935 3.369-5.745 4.18-17.096 2.037-23.87 1.058l-.93-1.605.878-2.613c4.697-3.067 19.03-4.598 25.308-6.184"/><path fill="#fefefe" d="M555.776 447.684c8.665 2.699 36.799 9.58 42.548 15.012-9.983 1.501-19.112 1.631-29.034-.194-5.458-4.059-9.678-9.256-13.514-14.818"/><path fill="#5f97f7" d="M380.795 184.677c16.25-1.565 32.198-3.482 47.989-7.803l-.469 2.226c-8.748 2.391-13.904 6.609-19.005 13.967-9.139 2.582-17.914 5.716-27.392 6.854.072-5.212-.397-10.094-1.123-15.244"/><path fill="#fefefe" d="m536.565 375.964.76.133c8.601 6.068 15.013 30.641 17.179 40.715-3.919 3.355-7.942 7.441-12.627 9.656-7.529-14.047-15.617-28.2-21.726-42.925z"/><path fill="#5f97f7" d="M334.349 150.954c12.743 1.947 22.566 3.789 31.962 13.389 6.901 9.7 11.108 20.617 10.112 32.721l-3.316 2.099c-.436-11.148-6.295-23.093-14.149-30.849-6.245-6.167-14.455-10.672-23.416-10.519-12.338.212-24.936 8.798-31.111 19.246-2.619 4.432-4.472 9.811-8.066 13.533l-1.399-.308c-.835-1.997-1.043-3.791-1.201-5.932-.537-7.271.408-14.574 5.375-20.238 8.136-9.278 23.345-12.484 35.209-13.142"/><path fill="#5f97f7" d="m368.495 194.512 2.663 4.436 1.949.215 3.316-2.099c-1.851 14.602-3.403 29.124-15.961 38.812-9.503 7.333-22.694 9.864-34.427 8.19-7.232-1.032-14.075-3.509-20.716-6.489 22.058-4.528 44.968-13.962 57.805-33.617 1.973-3.019 3.671-6.269 5.371-9.448m-11.711 65.097c26.676 10.398 55.294 14.909 81.403 27.265.635 3.211 1.422 6.419 1.239 9.711-.051.916-.725 1.139-1.388 1.713l-3.277-.956c-29.256-10.736-60.871-9.415-88.795-24.684 3.467-4.443 7.21-8.716 10.818-13.049m22.62-44.903c9.327.621 18.026.33 27.288-.855 2.536 5.583 4.494 10.603 9.771 14.066-6.019 9.06-13.27 15.864-21.996 22.29-5.128 3.184-11.956 5.766-17.887 6.812-3.708.654-7.739.014-10.784-2.307-4.041-3.081-3.807-8.596-4.28-13.237 10.47-7.785 14.316-14.548 17.888-26.769m49.38-37.832c29.236-9.839 49.125-26.031 64.87-52.759 5.76 6.064 10.808 12.436 15.325 19.485-8.238 17.436-22.05 28.709-40.026 35.148-7.577 2.715-15.272 4.231-23.259 5.168-5.456-2.466-11.251-5.053-17.379-4.816z"/><path fill="#fefefe" d="M562.422 416.65c8.28 1.325 17.266 5.066 25.272 7.671a1847 1847 0 0 1 67.762 23.651c-5.446 2.071-11.152 3.596-16.726 5.29l-26.411 7.39a2320 2320 0 0 0-57.03-19.294c-2.238-4.333-4.293-8.779-6.426-13.166 5.07-3.613 9.249-7.052 13.559-11.542"/><path fill="#5f97f7" d="m760.464 485.492.983.011c.182 2.702-39.293 70.078-44.358 78.466a2465 2465 0 0 0-72.82-27.527l-10.542-2.733c5.531-2.347 10.924-5.111 16.343-7.709 19.087 6.443 37.635 14.359 56.851 20.424 10.116-19.901 21.662-39.198 32.657-58.629z"/><path fill="#fefefe" d="M585.531 353.157c6.635-.785 19.089-.316 25.011 2.991 2.131 1.19 2.421 1.669 3.087 3.962-5.175 3.749-18.002-2.204-24.797 3.8-.689 4.597-.886 9.487 2.01 13.407 2.539.698 2.478.378 4.724-.74 6.285-3.13 16.914-3.413 23.994-4.485-5.839 2.804-12.544 4.141-18.562 6.785-5.262 2.312-12.166 5.072-14.34 10.637l1.209 2.001c.738.195 1.455.683 2.212.587 3.555-.455 11.104-7.146 14.938-8.932 4.842-2.256 10.597-3.538 15.736-5.032 1.282-.559 2.528-.581 3.9-.668-.928 4.781-30.882 22.73-37.119 27.997-5.674.446-25.497 4.625-27.904 4.345-2.553-4.957-3.922-10.576-6.014-15.754-3.033-7.507-6.945-14.466-10.992-21.461 14.211-8.861 26.395-15.597 42.907-19.44"/><path fill="#5f97f7" d="M151.363 1058.4a149.3 149.3 0 0 0 31.741 9.06c18.225 3.14 34.488 3.53 50.234-7.6 16.645 8.03 56.161 16 65.13 22.78 2.555 1.93 2.774 6.92 3.264 9.92-15.197 1.25-31.41-.12-46.727-.07a4591 4591 0 0 1-111.474-.25c1.29-11.71 3.608-22.83 7.832-33.84m302.44-958.622c13.959 3.54 25.049 11.447 35.597 20.87-1.249 2.241-2.722 4.397-4.125 6.546-19.551 29.934-43.191 41.958-77.533 49.154a402 402 0 0 1-27.968 3.705c-1.258-4.327-3.051-8.542-4.668-12.749 33.89-12.072 59.115-38.344 78.697-67.526m-121.92 63.225c7.449-.979 15.351 1.485 21.413 5.871 5.144 3.722 8.82 9.743 9.716 16.034 1.04 7.296-1.952 13.918-6.383 19.568-13.815 17.616-36.796 26.282-58.357 28.647-2.473-2.126-4.844-4.404-7.254-6.603-4.228-5.273-7.664-11.949-9.394-18.479-3.541-13.366.904-24.126 7.557-35.473-.064 4.667-.663 9.854-.06 14.445.589 4.492 3.859 12.474 7.55 15.202l1.936-.327c3.925-5.53 4.785-12.548 7.616-18.631 4.836-10.388 15.285-16.547 25.66-20.254m87.566 897.257c3.158 1.72 6.388 3.38 9.719 4.75 22.527 9.26 49.659 4.94 71.448-4.08 8.757 2.79 17.42 5.82 26.284 8.27 13.81 3.8 31.061 6.26 43.382 13.57 3.995 2.37 6.243 5.16 8.607 9.09-17.285 2.08-36.317.77-53.762.84l-114.153-.16c-.162-12.49 2.924-21.35 8.475-32.28"/><path fill="#5f97f7" d="M344.248 146.964c-1.427-5.524 2.175-10.594 4.928-15.28 11.123-18.937 31.01-27.493 51.411-32.743 16.567-4.263 31.24-4.381 47.975-1.048-5.607 8.43-11.275 16.616-18.035 24.175-12.588 14.077-39.119 37.13-57.863 41.21-.976.213-1.87-.685-2.702-1.204-.17-.281-.333-.567-.51-.844-5.527-8.658-15.712-12.218-25.204-14.266"/><path fill="#fefefe" d="m172.946 992.208 66.797.073c-4.757 13.529-11.925 30.229-12.883 44.529-.423 6.3.488 13.26.792 19.62-1.875 2.82-4.104 3.43-7.098 4.93-20.62 6.9-46.437-.03-65.989-7.57a1090 1090 0 0 0 18.381-61.582m254.673.302c22.246-.253 44.515-.031 66.764-.018-2.053 14.078-6.702 35.168-4.431 48.738.846 5.05 3.29 10.5 4.966 15.36-1.768 2.3-3.69 2.61-6.325 3.65a291 291 0 0 1-11.258 2.52c-15.819 3.09-39.664 3.54-53.373-5.78-.597-1.48-.887-2.95-1.002-4.54-.548-7.64 1.362-56.199 4.659-59.93m317.658-585.267c5.175-.24 12.865-1.482 17.544.999 1.912 1.014 1.934 1.251 2.508 3.32-3.36 7.041-12.616 5.627-16.803 10.386-1.004 1.14-.607 1.447-.478 2.87 10.619 5.282 40.69-13.181 52.778-10.312 1.534.364 1.492.778 2.29 2.114-1.454 8.86-16.745 11.458-20.266 18.964l1.281 1.138c3.657.66 5.8-1.565 9.073-2.678 2.252-.767 3.003-1.122 5.217-.038 1.057 3.123.245 6.169-.706 9.226-1.264 4.067-.869 6.536.163 10.66-6.581 7.462-13.113 15.218-21.727 20.428-12.888 7.796-41.303 7.339-45.857 11.737.011.4.026.799.027 1.199.003.568-.033 1.136.002 1.702.295 4.705-2.05 7.54-4.493 11.348-6.62 13.503-14.59 26.61-21.853 39.799-15.543-5.113-30.502-11.803-46.178-16.645 12.766-6.362 26-11.812 38.782-18.178 8.764-4.365 18.067-9.568 21.264-19.474 4.917-15.236-1.606-35.534-8.738-49.256 12.19-12.655 16.705-26.26 36.17-29.309M445.16 190.2c20.304-4.604 36.291-8.991 52.883-22.183-1.951 10.932-4.924 20.198-9.683 30.221 2.235 8.953 5.061 17.94 6.924 26.958-3.805 1.396-7.824 2.632-11.507 4.306-2.304 10.474-4.641 28.106-14.477 34.379-7.415 4.73-18.067 1.691-25.916-.409a84 84 0 0 1-5.194-1.557l-.378 18.772a459 459 0 0 0-58.152-19.215c5.585-1.686 11.034-3.32 16.32-5.835-1.331-2.347-1.662-2.774-1.513-5.43 8.726-6.426 15.977-13.23 21.996-22.29 2.061.748 3.147 1.56 4.617 3.179 3.042 1.053 3.617 1.452 6.793.358l1.129-1.706c-1.817-2.231-4.376-2.455-6.905-3.74-7.499-3.809-11.071-13.296-10.196-21.301.675-6.173 3.605-12.202 8.605-15.996 3.594-2.728 8.727-4.094 13.196-3.379 4.103.657 7.903 2.83 11.458 4.868"/><path fill="#121d5c" d="M430.633 196.64c2.009 1.868 2.09 2.476 2.809 5.176 1.051 3.948 2.362 8.105.239 11.764l-2.304.086c-1.593-4.344-6.338-8.513-6.61-12.75 1.382-2.506 3.383-3.148 5.866-4.276m-14.17 31.277c2.061.748 3.147 1.56 4.617 3.179-8.201 9.351-14.674 17.518-25.1 24.541-1.331-2.347-1.662-2.774-1.513-5.43 8.726-6.426 15.977-13.23 21.996-22.29"/><path fill="#5f97f7" d="M604.284 142.703c37.498 14.158 75.787 26.481 113.779 39.254a4150 4150 0 0 0 170.421 55.024l-97.823 172.411c-6.406 2.87-13.607 4.787-20.279 7.024.517-3.438.822-7.3 2.033-10.56 5.001-13.458 14.811-27.331 21.963-39.851l45.875-80.44c5.663-9.923 13.257-20.718 17.286-31.315 1.049-2.758 1.039-3.931.425-6.769-2.003-2.587-3.914-3.4-6.838-4.562-56.116-18.31-111.753-38.053-167.771-56.661-20.049-6.659-40.114-14.223-60.412-20.028-3.219-.92-11.169-3.424-14.141-2.299-3.02 1.143-7.037 9.518-8.662 12.466-13.172 23.899-24.788 48.89-37.184 73.223l-56.941 110.822c-2.294-4.163-4.954-8.133-7.515-12.135 3.974-8.984 9.128-17.677 13.665-26.4l24.717-47.835a8308 8308 0 0 0 67.402-131.369"/><path fill="#fefefe" d="M444.704 301.282c2.304 2.691 4.296 5.436 6.241 8.396 18.124 7.137 32.64 18.567 44.064 34.461l-.762.366c-4.081-.927-5.998-6.441-9.781-8.89l-1.443 1.564a302 302 0 0 1 29.154 43.206c11.902 21.707 29.588 63.24 46.707 80.08 5.214 5.13 11.322 7.64 18.567 8.334 35.166 3.368 92.345-19.98 127.2-30.22 7.679 16.613 10.954 32.536 7.303 50.724-23.321 15.601-109.01 55.16-136.961 61.653-7.293 1.694-14.576 2.139-21.94.618-27.39-5.659-41.02-25.181-62.045-40.737-.167-.064-.333-.132-.501-.192-5.669-2.047-10.037-8.995-14.951-12.694l-.859 1.813c-14.18-7.889-53.749-74.016-60.202-90.525-8.914-22.804-12.711-52.704-2.432-75.664 8.49-18.961 14.855-18.969 32.28-25.609l.519-.204c1.108-2.318.319-4.039-.158-6.48"/><path fill="#121d5c" d="M444.704 301.282c2.304 2.691 4.296 5.436 6.241 8.396 18.124 7.137 32.64 18.567 44.064 34.461l-.762.366c-4.081-.927-5.998-6.441-9.781-8.89l-1.443 1.564c-11.175-10.129-25.439-23.424-41.625-22.703-6.56.293-11.955 3.614-16.207 8.472-12.089 13.816-15.152 33.951-13.711 51.721 4.012 49.482 47.458 100.508 79.528 136.168-.167-.064-.333-.132-.501-.192-5.669-2.047-10.037-8.995-14.951-12.694l-.859 1.813c-14.18-7.889-53.749-74.016-60.202-90.525-8.914-22.804-12.711-52.704-2.432-75.664 8.49-18.961 14.855-18.969 32.28-25.609l.519-.204c1.108-2.318.319-4.039-.158-6.48"/><path fill="#fefefe" d="M343.541 277.199c31.546 18.298 74.234 13.206 101.321 30.563l-.519.204c-17.425 6.64-23.79 6.648-32.28 25.609-10.279 22.96-6.482 52.86 2.432 75.664 6.453 16.509 46.022 82.636 60.202 90.525-.798 12.064-1.793 24.205-1.618 36.299-58.021 18.347-124.605-2.221-176.545-29.311-2.085-1.088-4.074-2.272-5.337-4.31-.551-15.964-3.787-32.623-5.611-48.519-4.425-38.564-11.448-112.009 7.124-145.473 11.447-20.626 29.87-25.309 50.831-31.251m267.761-108.548c15.046 2.918 30.609 9.646 45.178 14.544l87.082 29.311 68.004 23.105c13.944 4.668 28.412 8.684 41.895 14.566-27.665 51.171-58.528 100.69-85.724 152.074-11.097-.356-31.378-2.595-40.453 5.114-4.068 3.456-7.272 8.633-10.824 12.659-3.921 4.444-8.226 9.092-13.236 12.289-10.317 6.584-30.208 10.497-42.245 14.168l-49.242-17.423c-16.03-5.832-32.458-10.561-48.586-16.128 8.917-.987 17.745-.788 26.645-2.308 9.87-7.954 26.269-16.114 33.836-23.715 4.882-4.905 8.376-15.483 11.07-18.002.602-.563 3.066-1.311 3.916-1.675l.214-1.484c-5.584-4.425-14.046-4.834-20.192-8.472-3.663-2.168-5.561-5.881-9.827-7.464-6.19-2.296-13.537-2.523-19.993-3.958-9.197-2.045-18.668-5.419-27.544-8.574-2.427-.862-4.708-1.75-7.274-2.137 2.505 5.166 23.502 10.461 29.389 12.671-9.302 2.024-17.47 5.295-26.018 9.391-2.712-.887-5.535-1.932-8.38-2.24-1.697-.183-3.076-.559-4.44.547 2.49 2.262 6.007 2.974 9.157 3.928-11.987 7.624-23.174 13.952-36.461 19.065l-8.082-13.315c9.63-15.95 17.729-33.302 26.299-49.861a8043 8043 0 0 0 45.52-89.155c7.388-14.824 20.718-45.721 30.316-57.521"/><path fill="#121d5c" d="M622.872 229.115c9.819-1.031 19.222-.423 28.197 4.065 7.864 3.932 14.62 10.439 17.389 18.936 2.484 7.622 1.441 15.885-2.321 22.902-6.335 11.813-18.471 17.729-30.814 21.31-10.099 1.316-20.053.187-29.244-4.432-8.043-4.042-14.839-10.799-17.581-19.515-2.307-7.331-1.399-15.105 2.246-21.842 6.892-12.736 19.037-17.541 32.128-21.424"/><path fill="#fefefe" d="M625.101 267.148c6.171 6.762 11.813 14.071 17.589 21.174-7.752 2.526-13.72 3.636-21.9 2.94-7.375-1.996-13.674-4.835-20.17-8.788 8.308-4.848 16.366-10.162 24.481-15.326"/><path fill="#faac49" d="M604.718 242.69c5.883 5.145 11.479 13.843 16.828 19.854l-15.683 10.3-9.403 5.624c-2.182-5.117-3.67-10.088-5-15.464 2.712-9.13 6.29-14.06 13.258-20.314"/><path fill="#fefefe" d="M631.388 233.309c9.304.555 16.239 4.025 23.968 8.8L629.512 256.9l-2.489 1.323c-5.725-1.409-13.858-13.918-17.727-18.754 7.283-3.429 14.132-5.264 22.092-6.16"/><path fill="#5f97f7" d="M658.932 245.854c.669.509 1.294 1.191 1.823 1.838 3.277 4.01 4.653 9.659 3.929 14.748-1.463 10.285-8.627 17.692-16.582 23.589l-4.842-5.976-13.733-16.278z"/><path fill="#121d5c" d="M737.666 253.311c13.123-.796 25.829.845 37.081 8.125 8.722 5.643 15.777 14.355 17.937 24.667 2.099 10.022-.645 20.565-6.33 28.955-8.15 12.031-20.652 18.105-34.533 20.82-14.944 1.071-28.328-.599-40.836-9.68-8.736-6.341-15.212-15.478-16.761-26.299a37.22 37.22 0 0 1 7.433-28.029c8.673-11.234 22.305-16.771 36.009-18.559"/><path fill="#5f97f7" d="M766.624 263.3c2.728 1.31 5.263 2.708 7.65 4.587 6.665 5.246 14.115 15.452 14.769 24.167.239 3.178-.482 4.368-2.4 6.654-3.851.966-5.953-.007-9.758-.988-8.012-2.569-16.403-4.356-24.564-6.422 4.069-9.564 9.473-18.787 14.303-27.998"/><path fill="#faac49" d="M738.309 258.34c7.867-.648 15.847.761 23.513 2.39-3.758 8.048-15.156 24.098-15.01 32.171 1.179 1.877 1.447 2.475 3.508 3.472 6.922 3.346 26.836 6.741 35.504 9.202-6.366 11.168-14.313 17.683-25.904 22.797a74 74 0 0 1-9.408 2.177c-12.424 2.039-26.15-.69-36.302-8.288-7.483-5.599-13.423-13.821-14.746-23.228a32.28 32.28 0 0 1 6.627-24.328c7.931-10.219 19.784-14.673 32.218-16.365"/><path fill="#5f97f7" d="M287.68 525.957c58.531 28.468 122.365 47.819 187.48 30.841a2876 2876 0 0 1 41.022 164.035c5.953 27.678 13.812 58.637 12.858 87.084-.768 22.878-5.813 46.392-9.797 68.912l-20.02 110.106c-25.509.058-51.043.363-76.55.16a1135 1135 0 0 1 7.607-74.901c2.358-17.619 15.104-88.136 13.434-98.421-2.766-17.046-20.653-47.108-31.399-59.917-.263-.313-.555-.6-.839-.895-3.131-8.766-15.907-25.193-21.896-33.319-21.756-29.518-57.151-71.292-66.983-106.491-2.322-8.313-1.966-17.282-3.761-25.769l-1.227-.628-1.845.864c-.347.98-.618 1.746-.704 2.792-3.187 38.389 33.155 83.151 55.353 111.716-42.91 92.972-89.515 185.677-116.331 284.86-26.893.002-53.836-.297-80.723.179 9.606-34.06 19.244-68.576 30.856-102.016 8.256-23.776 18.609-46.751 26.907-70.442 9.891-28.236 17.675-58.24 24.439-87.365a478 478 0 0 0 12.064-88.606c.61-18.048-1.295-36.84 1.644-54.687 3.25-19.738 11.415-39.391 18.411-58.092"/><path fill="#fefefe" d="m963.781 214.497 633.039-.355 198.04.04 62.52.009c11.7.014 24.02-.636 35.65.591a49.97 49.97 0 0 1 29.14 13.763c10.46 10.105 14.78 22.997 14.98 37.302.71 53.377-.18 106.925-.16 160.323l-.08 367.438-.12 179.091c-.04 23.387 2.2 57.931-.24 80.021-.96 8.68-5.75 18.1-11.89 24.27-8.54 8.59-20.39 12.57-32.24 12.68l-675.04-.09-254.601.12-83.251.13c-14.313.02-29.216.85-43.466-.31-11.666-.95-22.477-4.62-30.891-13.03-5.992-5.99-11.178-14.05-12.419-22.57-2.166-14.87-.815-31.3-.789-46.39l.126-85.996.018-308.284c-.012-48.265-.843-96.679.302-144.924l10.905-12.824c-.16-1.176-.273-2.362-.445-3.535-.914-6.248 2.217-9.454 3.352-15.389.549-2.871-2.459-6.144-4.047-8.374 2.116-2.61 4.895-5.705 6.08-8.887.739-1.987.691-3.674-.153-5.579-1.573-3.551-6.53-4.942-9.857-6.297 11.47-20.196 23.658-39.988 34.877-60.326 1.512 46.559.755 93.312.757 139.898l.048 250.884 1057.044.373c2.1-3.31 1.87-6.554 1.95-10.326.74-33.179.11-66.509.11-99.702l.03-193.988.13-121.716c.05-23.392 1.1-47.252-.41-70.569-1.49-1.774-3.27-1.982-5.53-2.187-16.89-1.531-38.75.115-56.12.115l-127.89-.101-556.58.124-168.608.041c-27.506.006-56.616 2.164-83.908-.588-.452-1.128-.921-2.249-1.479-3.33-.823-1.598-1.862-3.415-3.465-4.337-8.915-5.133-39.113-12.936-50.405-16.471 41.448-1.715 83.473-.549 124.986-.738"/><path fill="#121d5c" d="m857.253 779.277 197.217-.058 65.5-.09c11.61-.017 23.58-.648 35.15.213 5.74.428 13.34 1.593 18.24 4.83 5.25 3.47 10.15 10.578 11.3 16.786 2.29 12.32.89 27.28.91 39.847l-.03 85.323-.02 66.836c.05 13.996.85 28.426-.49 42.346-.59 6.13-2.15 11.05-5.81 16.11-4.99 6.9-11.73 10.43-20 11.79-.27.11-.54.22-.81.32-6.35 2.3-150.68.38-169.217.39l-81.314.13c-14.381.03-28.982.6-43.332-.12-6.07-.3-12.857-1.39-18.372-4.06-5.802-2.81-11.181-10.02-13.159-16.06-2.935-8.95-2.388-210.758-1.195-233.627.263-5.041.436-9.545 2.861-14.09 4.953-9.282 12.77-13.852 22.571-16.816"/><path fill="#fefefe" d="m863.465 784.453 194.515-.094 63.28-.195c11-.026 22.55-.737 33.49.274 5.87.543 14.04 1.924 18.44 6.197 4.99 4.85 6.73 9.994 6.89 16.782 1.26 51.028.17 102.309.08 153.36-.04 21.983 2.25 56.593-.67 77.283-.69 4.9-3.24 9.4-6.7 12.91-5.7 5.8-12.84 7.98-20.79 7.99-62.59 1.12-125.41-.09-188.024-.01l-68.549.1c-12.133.01-24.941.83-36.981-.45-4.745-.51-8.821-2.29-12.561-5.24-5.955-4.7-8.128-11.5-8.909-18.82-1.3-12.21-.256-25.45-.153-37.758a5725 5725 0 0 0 .104-62.412l-.04-82.714c-.008-14.066-.98-28.749.298-42.725.517-5.665 1.802-10.582 5.515-15.027 5.315-6.363 12.823-8.648 20.765-9.451"/><path fill="#121d5c" d="M995.877 931.28c1.409-.347 2.816-.039 4.233.143l.87 1.742c-2.459 8.209-9.16 17.253-13.429 24.861a4391 4391 0 0 1-32.75 57.924c-10.197-4.97-18.569-12.63-26.651-20.435-3.922-4.295-7.609-8.639-10.91-13.435-4.555-6.616-15.865-22.698-14.37-30.754l1.433.253-.349-.873c9.239-4.064 21.495-5.175 31.493-7.196z"/><path fill="#faac49" d="m988.613 938.172 2.387-.173.996.933a3357 3357 0 0 0-39.129 69.948c-8.252-5.01-15.286-11.938-22.115-18.687-10.014-10.668-16.175-22.546-22.281-35.719a3222 3222 0 0 0 80.142-16.302"/><path fill="#121d5c" d="M1011.06 930.627c33.69 11.854 64.6 33.163 98.65 43.97-12.55 23.17-32.3 38.563-56.35 48.463-30.21 11.39-63.589 9.26-92.81-3.7 5.429-11.63 12.655-23.015 18.92-34.256 10.16-18.228 19.998-37.132 31.59-54.477"/><path fill="#fefefe" d="M1013.31 937.649c17.98 7.495 35.63 16.226 53.36 24.341 11.56 5.289 23.92 9.919 35 16.089-14.64 19.466-29 30.791-51.4 40.391-27.46 9.1-55.246 9.05-82.194-1.74 14.932-26.22 28.485-54.016 45.234-79.081"/><path fill="#121d5c" d="M1067.38 831.31c1.09.089 2.06.304 3.08.728 16.27 6.758 37.85 33.805 44.91 49.972 12.38 28.36 10.41 58.094-.79 86.42-9.72-3.385-19.32-7.961-28.83-11.962-23.64-10.837-47.65-20.832-71.28-31.669 3.89-10.191 10.88-20.269 16.32-29.817z"/><path fill="#5f97f7" d="M1070.13 837.59c16.52 13.304 30.7 26.368 39.81 45.952 12.14 26.101 10.84 51.856 1.11 78.408-9.1-4.999-19.12-8.82-28.62-13.006L1022 922.199a2182 2182 0 0 1 48.13-84.609"/><path fill="#121d5c" d="M898.261 935.165c-.954-17.048.317-32.805 6.418-48.894 10.228-26.977 30.235-47.405 56.54-59.084 31.934-14.178 64.321-14.087 96.711-1.707.92.934 2.42 1.92 2.45 3.254.06 3.148-48.05 85.814-53.72 93.924-11.985 3.267-98.66 21.304-105.308 21.025-2.481-2.553-2.636-5.057-3.091-8.518"/><path fill="#fefefe" d="M902.686 931.037c1.978-13.787.768-26.478 5.74-40.025 9.868-26.885 28.87-46.777 54.739-58.685 29.799-13.718 59.995-14.088 90.515-2.826-16.82 29.078-31.8 59.513-49.86 87.839-22.211 5.362-44.729 9.658-67.103 14.288-9.726 2.013-21.47 5.87-31.329 5.921-1.912-2.036-2.045-3.885-2.702-6.512"/><path fill="#121d5c" d="M1861.43 779.5c9.98.573 19.05 2.429 26.51 9.598 8.32 7.988 9.32 17.981 9.46 28.901a11082 11082 0 0 1-.15 139.985l.17 48.276c.03 9.47.71 19.58-.65 28.97-.96 6.7-3.47 13.83-8.35 18.69-5.23 5.2-12.55 8.64-19.86 9.46-21.28 2.39-44.6.61-66.07.6l-129.72-.05-426.02.05c-9.08.27-18.68-3.04-25.42-9.18-7.09-6.47-8.95-15.52-9.36-24.77-.65-14.59-.08-29.45-.03-44.063l.14-86.378-.22-59.612c-.05-10.864-.83-22.322.45-33.114.74-6.3 2.58-12.91 7.02-17.632 4.36-4.635 10.3-8.154 16.68-8.914 19.19-2.288 40.05-.77 59.4-.727l106.43.082 302.93.05 100.08.001c18.82.015 37.79.621 56.58-.223"/><path fill="#fefefe" d="M1233.76 785.495c16.44-2.775 40.97-.852 58.09-.853l124.8.012 285.5-.01c50.01-.001 100.11-.61 150.11.092 6.71.094 18.17-.686 24.1 2.613l1.82 1.002c6.4 3.56 10.63 8.878 12.52 15.983 3.37 12.705 1.32 29.616 1.32 42.829l.02 76.826.12 67.621c.06 13.28.68 26.87-.15 40.11-.32 5.1-1.09 9.64-3.78 14.04-3.98 6.49-9.86 9.6-17.04 11.34-.17.12-.33.26-.51.35-2.77 1.39-7.09 1.42-10.12 1.51-18.25.56-36.7-.03-54.97-.02l-112.59.05-317.64.08h-96.76c-11.52-.02-29.37 1.8-40.28-.75-5.53-1.29-12.89-4.6-15.91-9.66-3.31-5.54-4.75-12.05-5.2-18.43-.92-12.91-.18-26.38-.15-39.352l.41-80.409c.06-20.417-2.6-96.114 1.13-109.526 2.13-7.623 8.63-11.831 15.16-15.448"/><path fill="#121d5c" d="M1603.96 892.499c9.71-1.274 20.41-.582 30.24-.591l53.12-.01c46.91.005 94.24-1.468 141.1-.155 2.76.077 5.37-.017 7.82 1.39l-1.16 2.368c-.43.497-1.46.939-2.04 1.271-25.57-.1-222.99 1.595-228.01-.899zm.3 49c16.45-1.005 33.25-.284 49.74-.279l91.69.042a4963 4963 0 0 0 55.89-.126c9.5-.081 20.03-1.033 29.43-.081 2.05.208 3.18.363 4.53 1.973l-1.43 2.473c-.1.035-.2.077-.3.106-8.36 2.319-53.56.666-65.32.671-53.35.023-106.96 1.124-160.28.003-1.44-.031-1.94-.181-3.14-.88zm.1 50c16.64-1.218 33.88-.433 50.58-.429l91.6.061 58.02.046c9.87.009 20.86-.895 30.56.674l.54 1.442-1.57 2.209c-2.52 1.059-223.73 1.476-228.67.325zm.45-148.999c24.74-.69 228.13-1.264 231.14.869-.23 2.419-.93 2.507-2.7 4.066-6.43 1.002-14.3.162-20.87.119l-45.85-.208-154.14.588c-3.09-.004-4.99-.168-7.48-1.963zm-305.87 47.994c.19-.016.38-.028.58-.046 7.41-.698 90.2 26.239 96.22 31.06-4.59 6.079-31.68 20.469-39.54 23.481-1.31 2.144-46.54 28.866-49.77 29.62-1.74.406-2.06-.189-3.49-1.108-8.98-14.466-12.71-38.25-9.95-54.814 1.53-9.167 4.82-18.475 5.88-27.584.03-.203.05-.406.07-.609"/><path fill="#5f97f7" d="M1302.65 896.49c6.48-.547 73.53 22.11 81.44 26.345-1.96 3.492-27.59 16.476-32.74 18.883-5.87 6.22-37.36 23.362-45.99 26.847.64-3.45-3.92-11.991-5.05-15.619-1.59-5.162-2.36-10.924-2.77-16.304-1.27-16.829 5.23-27.734 5.13-39.633 0-.173-.01-.346-.02-.519"/><path fill="#121d5c" d="M1413.67 918.616c8.85-9.35 26.16-41.361 34.05-54.129 7.12-11.531 15.85-23.221 21.91-35.222 4.83 1.561 9.43 4.617 13.54 7.548 3.2 2.286 8.93 6.055 9.61 10.143 9.97 4.029 18.24 20.593 22.35 30.254a107.27 107.27 0 0 1 .33 81.935c-4.91 12.142-13.37 28.027-24.84 35.034-2.78-5.57-12.69-14.625-17.95-18.123-3.1-5.719-16.5-16.739-21.96-21.026-2.6-5.138-31.11-31.06-37.04-36.414"/><path fill="#fefefe" d="M1470.71 835.868c5.8 1.677 15.55 9.098 19 14.19 15.4 11.568 25.08 36.215 27.66 54.83 3.35 24.091-2.67 52.811-17.52 72.36-2.76 3.635-5.46 6.935-9.36 9.417-1.88-3.919-8.94-10.863-12.94-12.437-.26-.1-.52-.18-.77-.27l-.45-1.916c-6.05-6.422-14.62-16.567-22.56-20.025l-.3-1.55c-7.68-8.659-24.4-26.477-33.79-32.307.2-.123.41-.239.61-.37 3.2-2.138 49.73-77.915 50.42-81.922"/><path fill="#121d5c" d="M1391.39 813.498c4.72-.561 9.58-.595 14.33-.642 14.6-.146 46.21 3.355 56.81 13.756.05.583.11.779.03 1.325-.48 3.503-52.35 87.721-56.84 91.577-7.03-4.812-19.28-7.17-27.54-9.428-6.55-4.779-68.18-24.157-80.79-28.188 5.2-4.935 8.42-13.365 12.54-19.33 19.56-28.322 48.44-42.859 81.46-49.07"/><path fill="#fefefe" d="M1391.78 818.498c16.29-1.782 49.32-.501 62.91 9.749.04.387.13 1.138.06 1.573-.74 4.833-46.59 79.723-50.84 82.873-7.04-4.36-19.53-6.614-27.68-9.144-3.6-3.049-63.51-22.407-71.85-24.486 5.6-4.645 9.54-13.506 14.31-19.257 19.51-23.559 43.45-35.443 73.09-41.308"/><path fill="#121d5c" d="M1405.02 923.497c2.41-.126 3.81.414 5.68 1.896 11.34 8.945 21.27 20.376 31.69 30.408 13.59 13.076 28.72 25.826 41.18 39.925 1.19 1.34 1.71 2.1 1.9 3.915-.6 2.049-1.49 3.289-3.07 4.689-13.34 11.84-43.53 21.5-61.16 23.38-9.85 1.05-19.97.38-29.83-.21-22.4-4.33-45.58-12.42-63.17-27.506-6.28-5.39-12.15-12.68-19.3-16.805-.26-.146-.51-.286-.77-.428 6.69-2.373 93.95-55.505 96.85-59.264"/><path fill="#fefefe" d="m1404.78 930.496 2.75-.156c5.37 2.63 69.02 64.306 70.82 69.02-.91 2.09-2.89 3.31-4.72 4.56-21.29 14.46-55.99 22.94-81.43 18.22-22.49-4.12-38.7-10.71-57.19-24.278-5.8-4.25-11.31-9.621-17.51-13.193-.22-.122-.43-.239-.65-.358 6.52-2.554 83.67-50.008 87.93-53.815M889.958 245.185l996.282-.134c.47.92 1.04 1.892 1.31 2.9 2.06 7.677.46 26.269.46 35.02l-.02 90.444-.17 238.06c-.05 38.212.9 76.678-.1 114.859-.07 2.565-.24 4.382-1.59 6.623l-50.38-.012-996.667-.348-.101-240.275a9515 9515 0 0 0-.451-154.655c18.517-29.836 34.749-61.571 51.427-92.482"/><path fill="#121d5c" d="M1771.8 278.112c4.86-4.449 9.36-7.731 16.24-7.428 5.26.232 10.46 2.343 14.03 6.295 2.38 2.637 4 6.105 3.59 9.723-.32 2.863-2.29 6.655-4.61 8.396-.36.275-.87.578-1.24.81l.88-3.072c-1.9.557-3.77.881-5.72 1.185 2.29-1.445 4.6-3.833 5.43-6.51.67-2.143.57-3.634-.48-5.588-1.54-2.885-4.86-4.22-7.87-4.984-7.13-1.809-11.18.389-17.22 4.029l-.41-1.616z"/><path fill="#121d5c" d="m1771.8 278.112 2.62 1.24.41 1.616c.02 5.614.32 8.705 4.48 12.819 2.09 2.073 4.62 3.312 7.63 3.158 2.62-.134 6.08-1.138 8.03-2.924 1.95-.304 3.82-.628 5.72-1.185l-.88 3.072c-.95 2.428-1.78 3.151-4.26 4.295-7.55 3.476-14.82-.068-22.68 4.809-1.03.255-1.99.53-2.96.936l-.89.377c1.09-1.666 2.62-3.1 3.98-4.55l-.09-2.714c.53-.663.74-1.04.97-1.88.32-1.199-2.57-4.084-3.26-5.443-2.15-4.271-.08-9.405 1.18-13.626"/><path fill="#fefefe" d="M1774.83 280.968c6.04-3.64 10.09-5.838 17.22-4.029 3.01.764 6.33 2.099 7.87 4.984 1.05 1.954 1.15 3.445.48 5.588-.83 2.677-3.14 5.065-5.43 6.51-1.95 1.786-5.41 2.79-8.03 2.924-3.01.154-5.54-1.085-7.63-3.158-4.16-4.114-4.46-7.205-4.48-12.819"/><path fill="#121d5c" d="M1141.99 635.951c19.54-.746 39.81-.746 59.35.13.44.716.8 1.227.95 2.077.96 5.521 1.16 38.553-.33 43.239-.25.765-1.35 1.978-1.83 2.689l-.63.633c-9 2.637-45.66.617-57.37.528-1.1-16.194-.46-33.043-.14-49.296"/><path fill="#faac49" d="M1147.13 640.884c16.03.197 32.08.075 48.11.098.98 1.579 1.43 2.852 1.59 4.695.56 6.33 2.15 29.653-1.76 34.143-9.83 2.148-36.62.4-47.94.298z"/><path fill="#121d5c" d="M1186.01 563.096c9.33-5.996 76.92-56.999 79.16-62.145 1.66-3.805-1.67-12.735 1.59-19.537 1.98-4.116 5.41-6.935 9.68-8.453 6.33-2.255 14.67-3.184 20.81.161 2.69 1.467 3.86 2.989 4.65 5.839a8.6 8.6 0 0 1 2.87 2.051 10.07 10.07 0 0 1 2.7 7.232l72.3-.282c3.28-2.808 5.57-9.387 8.89-13.097l.29 2.809c-1.19 1.464-2.35 2.191-2.25 4.12 1.31-1.322 1.89-2.525 3.79-2.632 7.79-3.498 12.83-4.479 20.98-1.231 2.84 1.13 5.79 3.248 7.06 6.105 1.22 2.746 1.24 7.325-.03 10.065-.27.592-.49.863-.87 1.439l1.56 2.416-.72 2.334 1.88-.146c-.17 2.694-2.78 5.094-4.7 6.841-3.33 3.035-8.16 3.917-12.54 3.525-9.85-.883-15.33-5.037-21.4-12.499l-.81-3.472c-5.69-3.463-62.86-1.357-73.56-1.284.18 2.404-.01 4.725-1.6 6.687-.67.836-1.65 1.493-2.53 2.092-.09.816-.04.897-.43 1.762-1.23 2.778-5.73 5.681-8.53 6.633-8.85 3.015-17.65-.699-25.57-4.469-1.98 4.727-69.94 54.63-79.08 60.769.71 1.358 1.21 3.037 1.63 4.515 1.44 4.996 1.29 10.84-1.42 15.39a20.05 20.05 0 0 1-12.6 9.1c-5.3 1.283-11.17.522-15.79-2.446-4.1-2.637-6.59-6.966-7.49-11.699-.92-4.906-.43-10.25 2.49-14.427 3.2-4.558 8.75-7.581 14.17-8.478 6-.992 10.64.961 15.42 4.412"/><path fill="#fefefe" d="M1166.9 564.471c3.89-.744 7.72-1.194 11.44.473 3.72 1.669 6.88 5.087 8.13 8.988a11.8 11.8 0 0 1-.95 9.538c-2.17 3.826-5.26 5.503-9.34 6.675-1.69 1.03-3.19 1.147-5.14 1.122-3.39-.043-6.12-1.309-8.4-3.843-2.57-2.86-3.45-6.692-3.31-10.458.22-5.791 3.6-8.87 7.57-12.495m223.59-85.309c7.79-3.498 12.83-4.479 20.98-1.231 2.84 1.13 5.79 3.248 7.06 6.105 1.22 2.746 1.24 7.325-.03 10.065-.27.592-.49.863-.87 1.439-.25 2.595-2.63 5.909-4.63 7.576-2.34 1.94-5.7 2.644-8.67 2.375-9.03-.815-14.01-4.818-19.51-11.655 1.15-5.353 2.98-9.91 5.67-14.674M1299 499.873c-.17.368-.32.747-.56 1.078-2.13 2.947-6.44 4.764-9.91 5.179-4.89.586-10.81.455-14.7-2.999-2.7-2.405-3.88-6.135-4-9.665-.17-5.059 2.04-10.027 5.56-13.6 2.92-2.957 6.63-4.985 10.9-4.848 4.28.137 9.13 2.729 11.92 5.912 2.86 2.844 5.06 6.41 4.97 10.602-.09 3.657-1.57 5.961-4.18 8.341"/><path fill="#121d5c" d="m1772.91 299.061.09 2.714c-1.36 1.45-2.89 2.884-3.98 4.55l.89-.377c.97-.406 1.93-.681 2.96-.936-1.18 2.794-101.38 92.18-106.9 94.984 2.46 2.325 4.41 4.709 4.56 8.259.04 1.038-.01 2.075-.07 3.111.96 3.708.08 7.759-1.89 11.035-3.51 5.843-10.82 8.956-17.2 10.275a61 61 0 0 1-3.92.669c-7.09-2.727-13.74-4.386-17.73-11.577-1.36-2.445-2.4-5.23-4.22-7.389-26.72-3.338-53.55-6.692-80.36-9.196 0 3.6-2.32 9.169-4.89 11.682-4.19 4.1-11.64 4.883-17.19 4.516-4.19-.277-14.22-4.668-16.57-4.454-5.05.459-72.53 55.195-84.76 62.477 2.42 5.125 3.92 11.179 1.83 16.696-.72 1.911-1.49 2.983-3.21 4.044l-1.88.146.72-2.334-1.56-2.416c.38-.576.6-.847.87-1.439 1.27-2.74 1.25-7.319.03-10.065-1.27-2.857-4.22-4.975-7.06-6.105-8.15-3.248-13.19-2.267-20.98 1.231-1.9.107-2.48 1.31-3.79 2.632-.1-1.929 1.06-2.656 2.25-4.12l-.29-2.809c5.34-3.369 10.54-5.142 16.96-4.624 4.12.332 8.79 2.287 11.53 5.408 11.43-5.586 22.56-15.649 32.77-23.351 17.64-13.304 35.72-26.313 52.59-40.579l.38-.867c-.52-2.021-1.06-4.079-1.29-6.158-.62-5.649.25-11.381 3.9-15.893 3.69-4.559 9.54-7.178 15.29-7.805 6.24-.682 13.39.92 18.3 4.981 4.06 3.354 6.67 8.539 7.24 13.742 10.37 1.176 74.84 10.667 79.56 8.286 4.86-2.446 7.42-14.622 19.03-16.852 5.84-1.121 13.35 1.831 18.11 5.138 6.5-4.486 12.4-10.759 18.32-16.065l38.11-34.085a4119 4119 0 0 1 34.97-30.576c6.12-5.318 13.02-10.53 18.48-16.504"/><path fill="#fefefe" d="M1642.79 397.499c5.12-.702 9.99-.901 14.68 1.647 4.01 2.183 7.39 6.014 8.47 10.518.78 3.241.34 6.659-1.4 9.513-2.81 4.603-7.32 6.579-12.37 7.742-2.65.75-5.41.688-8.09.053-4.02-.953-7.66-3.46-9.75-7.05-2.14-3.654-2.61-8.381-1.38-12.423 1.59-5.261 5.34-7.485 9.84-10m-125.98-11.001c4.95-.811 9.36-1.151 14.06.966 4.27 1.919 7.92 5.6 9.45 10.057 1.2 3.496 1.02 7.342-.8 10.598-2.71 4.858-7.15 6.875-12.3 8.247-1.89.871-4.18.597-6.21.364-4.36-.502-8.22-2.186-10.95-5.758-2.7-3.539-3.49-8.06-2.8-12.407.9-5.756 5.12-8.891 9.55-12.067"/><path fill="#121d5c" d="M1022.29 531.761a100.3 100.3 0 0 1 33.09 21.673c13.37 13.41 22.3 30.987 22.17 50.239-.15 20.977-10.05 39.099-24.52 53.569-3.99-2.375-7.89-4.915-11.81-7.387-19.8-14.25-41.331-27.088-61.991-40.087 5.028-10.987 11.457-21.681 17.218-32.318 8.293-15.312 16.363-31.094 25.843-45.689"/><path fill="#5f97f7" d="M1024.6 538.318c6.54 3.406 12.92 7.076 18.77 11.592 14.67 11.332 26.26 27.834 28.51 46.553 2.46 20.48-6.63 38.7-18.95 54.247l-10.81-6.853c-18.49-12.356-36.9-24.945-55.768-36.708 13.252-22.584 25.408-45.987 38.248-68.831"/><path fill="#121d5c" d="M1371.69 561.498c14.17-2.007 43.43-1.138 57.89.182 1 1.662 1.36 2.991 1.49 4.915 1.33 20.638.01 41.96-.08 62.664-.07 16.312 1.16 33.135.1 49.388-.21 3.231-.22 3.946-2.71 6.075-18.88 1.907-39.44.299-58.49.255 3.74-7.518.82-105.386 1.8-123.479"/><path fill="#faac49" d="M1376.5 566.499a1611 1611 0 0 1 48.02-.027c2.32 4.126 2.78 98.707 1.21 109.66-.35 2.46-.54 2.364-2.44 3.789l-48.1-.05c3.1-4.895 1.74-100.131 1.31-113.372"/><path fill="#121d5c" d="M1255.58 561.497c11.78-1.237 45.93-1.945 56.41.673.53.569.57.552.97 1.369 2.2 4.498 2.62 113.684.61 119.057-.62 1.664-1.83 1.797-3.37 2.532a5404 5404 0 0 1-57.13-.072c5.34-10.761-3.65-110.216 2.51-123.559"/><path fill="#faac49" d="M1259.41 566.498c15.94-.626 32.02-.084 47.96.169.63 1.119 1.23 2.421 1.49 3.694 1.22 6.08 1.24 103.071-.05 106.613-.31.859-1.2 1.922-1.7 2.723-15.45 1.962-33.27.305-48.97.219 3.59-6.504 2.13-101.125 1.27-113.418"/><path fill="#121d5c" d="M1617.19 480.5c19.58-1.279 39.69-.346 59.32-.249.64 1.012 1.2 2.091 1.38 3.287 1.17 7.618.28 16.482.27 24.247l-.12 52.003a7270 7270 0 0 0 .07 73.607c.08 14.333.77 28.969-.02 43.268-.19 3.629-.2 4.92-2.42 7.838-6.76 2.658-49.47.424-59.85.295 3.36-6.632.42-179.475 1.37-204.296"/><path fill="#faac49" d="m1622.14 485.5 49.37-.213a14.3 14.3 0 0 1 1.41 5.209c.83 12.444.18 25.344.17 37.825l-.03 73.166-.02 50.088c.02 7.434.8 15.512.09 22.875-.3 3.07-.52 3.62-2.88 5.524l-49.35-.077c3.85-6.257 1.58-176.836 1.24-194.397"/><path fill="#121d5c" d="M1493.62 466.497c13.79-2.719 42.47-.946 57.59-.642 1.36 1.835 1.59 3.563 1.69 5.771 1.56 34.093.12 68.889.1 103.059-.02 34.161 1.36 68.871.02 102.973-.14 3.563-.04 4.788-2.7 7.229-19.37.758-38.91.26-58.3.246.76-1.469 1.27-2.979 1.43-4.633.98-10.313-.03-21.625-.04-32.081l.23-63.029.22-77.136c.04-13.818.83-28.007-.24-41.757"/><path fill="#faac49" d="M1498.03 471.497c11.77-2.596 35.33-.673 48.37-.597.6.986 1.1 2.05 1.3 3.196 1.06 6.218.24 13.881.24 20.236l.04 46.924.02 87.693c-.01 14.96.66 30.263-.14 45.18-.1 2.024-.5 3.399-1.65 5.093-3.75 2.385-41.56.685-49.07.641.19-.29.39-.569.56-.868 1.39-2.446 2.87-199.365.33-207.498"/><path fill="#121d5c" d="M956.232 534.324c9.073-1.286 19.218-.625 28.257.736 6.17.929 16.301 2.295 20.171 7.513-.11 7.581-29.16 57.51-34.775 68.581l64.445 41.597c-10.79 13.413-27.11 22.064-43.079 27.597-4.037 1.278-8.481 2.244-12.665 2.892-22.931 3.552-47.06-1.488-65.889-15.288a71.63 71.63 0 0 1-28.863-47.085c-2.764-18.826 2.697-39.002 14.112-54.163 14.117-18.748 35.431-29.095 58.286-32.38"/><path fill="#faac49" d="M958.775 539.355c13.82-1.56 26.877.762 40.05 4.766-11.627 23.116-24.272 45.722-36.248 68.66 19.728 14.994 42.473 27.746 63.373 41.175-11.13 10.557-24.55 17.365-38.985 22.091-2.47.683-4.961 1.342-7.479 1.827-21.199 4.083-44.468-1.127-62.066-13.466-14.316-10.038-24.698-24.659-27.643-42.063a67.88 67.88 0 0 1 12.286-51.716c13.783-18.78 34.267-27.961 56.712-31.274"/><path fill="#121d5c" d="M1752.73 344.499c14.13-2.6 43.69-.632 59.39-.424.72 1.05 1.33 2.2 1.58 3.463 1.68 8.533.34 19.615.35 28.48l-.01 69.424.01 166.832c-.01 20.916.76 42.051.35 62.931-.07 3.959.05 6.06-2.34 9.296-7.96 2.671-48.89.697-60.37.608.98-1.749 1.21-3.081 1.3-5.063.7-15.941.13-32.169.13-48.14l.03-92.995c0-64.706 1.31-129.748-.42-194.412"/><path fill="#faac49" d="M1757.63 349.499c15.28-2.486 33.84-.586 49.49-.548a10 10 0 0 1 1.26 3.38c1.52 8.813.25 19.699.25 28.803l-.01 67.026c0 74.962 1.52 150.156.24 225.08-.03 2.037.22 3.221-.96 4.955l-.89 1.306c-14.55 2.306-34.94.475-50.07.435 1.4-2.581 1.58-4.766 1.65-7.641.56-24.21-.12-48.566-.16-72.794l-.06-147.529c.01-14.926 1.99-92.845-.74-102.473"/><path fill="#121d5c" d="M876.211 296.762c25.064-1.519 51.236-.005 76.417.01l154.322-.046 122.13.159c10.56.088 28.08-1.471 37.41-.574 2.37.228 4.78 1.061 6.27 3.012 1.52 1.992 2.1 4.742 2.32 7.2 1.1 12.173-.16 25.738-.15 38.027.02 19.704 1.97 48.959-.63 67.327-1.79 2.271-2.55 2.034-5.31 2.624-18.91.771-38.14.042-57.08.011l-111.79-.067-146.557.218c-24.139.048-48.44.743-72.556.184-1.361-.032-2.511-.362-3.743-.906-2.814-5.045-2.41-105.224-1.053-117.179"/><path fill="#faac49" d="m881.019 301.939 387.101.082c.49.83.98 1.757 1.21 2.701 1.75 7.341.98 88.22.16 99.279-.1 1.398-.61 2.522-1.34 3.71l-.65.927c-4.13 2.036-342.967.657-386.461.655z"/><path fill="#fefefe" d="M893.947 313.393c44.629.64 89.325-.013 133.963-.002l229.39.395c.48.757.89 1.392 1.1 2.276 1.71 7.116 1.59 77.078-1.06 81.447-4.44 2.007-329.417.749-363.717.559a3065 3065 0 0 1 .324-84.675"/><path fill="#121d5c" d="M1090.97 337.11c12.03-.621 137.49-1.515 144.16.647l.66 1.451-1.72 2.569c-9.19 1.951-33.42.361-44.41.369-31.55.026-65.27 1.829-96.57-.349-1.87-1.556-1.67-2.355-2.12-4.687m-182.306.165c8.888-.979 145.456-1.291 149.706.103 1.93.631 2.37 2.408 3.26 4.066-5.29 1.508-146.997 1.295-151.254-.11zm1.054 32.79c22.101-1.647 45.196-.382 67.4-.376l132.992.06 87.59-.056c10.42-.001 26.99-1.7 36.71.575l.49 1.559-1.75 2.828c-.19.047-.38.104-.57.14-10.47 1.949-24.14.289-34.99.229l-73.85-.081-143.494.022c-13.753-.006-27.523-.241-41.272-.087-7.503.084-15.155.883-22.642.293-1.661-.131-3.813-.155-5.202-1.185-1.218-.905-1.129-2.484-1.412-3.921"/></svg>