<svg xmlns="http://www.w3.org/2000/svg" display="block" viewBox="0 0 2048 2048"><path fill="#fefefe" d="M0 0h2048v2048H0z"/><path fill="#2d5eb3" d="M1035.99 110.479c63.38-1.042 136.34 5.138 198.4 18.654a972.4 972.4 0 0 1 173.42 53.957c149.59 63.623 286.32 174.755 374.13 312.176 7.77 12.164 14.67 24.768 21.87 37.262 6.92 12.012 14.35 23.763 20.93 35.969 14.85 27.535 27.84 57.17 38.84 86.458a754.8 754.8 0 0 1 28.14 425.485 805.78 805.78 0 0 1-356.11 504.83c-60.66 38.35-124.6 67.45-192.53 90.32a991 991 0 0 1-88.24 25.99c-148.35 34.8-306.429 31.25-454.563-2.31-48.145 50.11-104.608 89.28-164.909 123.33-144.741 81.01-323.825 123.99-489.472 119.69 18.389-16.35 35.019-34.79 51.963-52.61a1460.8 1460.8 0 0 0 211.211-283.5c16.391-28.05 32.851-56.14 47.128-85.34-17.385-13.68-34.657-27.6-50.537-43.03-145.815-141.63-238.962-335.98-241.663-540.909-.341-25.856-.25-52.061 1.825-77.836a797.1 797.1 0 0 1 228.776-492.24c137.96-141.424 330.376-225.858 525.068-249.798 38.742-4.763 77.341-6.075 116.323-6.548"/><path fill="#fefefe" d="M1017.68 154.442c88.73-3.193 191.45 9.928 276.22 35.715 217.12 66.049 383.57 196.036 490.5 397.317a712.57 712.57 0 0 1 74.74 423.996 746 746 0 0 1-26.97 117.71 757.2 757.2 0 0 1-370.95 448.1c-170.05 90.11-356.82 120.78-547.162 97.18-42.278-5.24-87.023-11.7-127.769-24.31-31.366 36.54-68.386 66.76-107.789 94.14-115.709 85.14-286.663 137.52-428.371 151.95 24.91-25.5 47.069-53.57 69.028-81.59a1544.5 1544.5 0 0 0 137.956-203.95c19.203-33.31 37.993-67.13 52.912-102.62a906 906 0 0 1-60.274-49.93 725.7 725.7 0 0 1-228.969-406.68c-5.745-30.77-10.206-62.258-11.596-93.55-9.099-204.752 62.033-391.689 200.227-542.303 78.409-85.457 184.345-155.881 292.037-198.564 67.2-26.635 139.936-44.81 211.549-54.652 34.827-4.786 69.6-6.437 104.681-7.959"/><path fill="#2d5eb3" d="M1092.81 333.436c26.54-.34 53.24-.294 79.67 2.406 88.92 9.083 183.81 42.735 255.61 96.379 26.71 19.956 51.98 41.962 74 67.063 10.86 12.375 20.65 26.192 29.94 39.776a423.3 423.3 0 0 1 58.28 121.986c30.42 105.306 19.29 225.551-17.01 327.814-22.56 63.55-61.4 105.09-67.74 175.99-3.78 42.38 2.83 90.56 20.61 129.28 3.83 8.34 15.36 26.27 16.43 33.77-1.11 4.12-4.45 7.38-7.37 10.38-23.19 23.85-52.63 44.03-79.92 62.95a741.15 741.15 0 0 1-355.04 129.03c-27.18 2.44-54.15 1.73-81.37 2.33 1.59-34.59-2.09-63.84-13.81-96.48-1.49-3.55-3.22-7.01-4.85-10.5-33.016 21.64-68.009 36.22-105.89 46.96-49.656 14.07-156.639 32.09-201.543 5.88-10.532-6.15-17.408-15.7-19.275-27.83-1.604-10.43.528-21.41 2.359-31.67 4.72-26.45 11.029-53.33 4.014-79.99-9.878-37.55-38.64-61.52-70.893-80.3 13.567-12.26 25.631-26.84 40.528-37.5-23.159-5.42-42.221-12.15-62.658-24.69 6.412-3.69 12.4-7.8 17.91-12.75 18.221-16.35 25.087-34.5 26.445-58.53-31.184-1.59-64.036-3.99-88.073-26.39-10.537-9.82-17.29-22.96-17.619-37.55-.679-30.16 25.95-37.39 46.274-51.05 6.655-4.47 12.735-10.285 18.128-16.191 39.544-43.307 46.454-105.067 37.889-160.882-3.935-25.647-10.915-50.032-11.998-76.182-4.127-99.615 41.193-190.999 107.484-262.776 19.202-20.792 40.739-38.324 63.486-55.064 90.508-66.606 193.887-101.189 306.002-105.669"/><path fill="#fefefe" d="M1173.79 967.309c7.1.347 13.42 1.154 19.76 4.616a36.42 36.42 0 0 1 17.66 21.733 35.2 35.2 0 0 1-3.63 27.232c-5.81 9.87-15.01 15.12-25.73 18.07-7.8.27-14.46-.51-21.46-4.31a34.44 34.44 0 0 1-17.09-21.65c-2.59-9.89-.43-20.596 5.07-29.131 6.2-9.635 14.54-14.234 25.42-16.56m226.96-104.133c6.51-.363 12.05.147 18.03 2.966 9.45 4.445 16.41 12.899 19.55 22.803a38.3 38.3 0 0 1-3.32 30.543c-6.14 10.875-15.7 16.241-27.32 19.552-6.17.232-11.62-.831-17.28-3.397a37.46 37.46 0 0 1-20.01-22.523 37.98 37.98 0 0 1 2.92-30.734c6.18-10.995 15.77-15.915 27.43-19.21m-202.89-128.042c6.93-.677 13.04.104 19.44 2.906a39.5 39.5 0 0 1 21.3 23.124 35.83 35.83 0 0 1-2.16 28.309c-5.62 10.954-14.97 16.904-26.34 20.53-7.34.998-14.24.005-21.02-3.063a38.8 38.8 0 0 1-20.7-22.858 37.62 37.62 0 0 1 2.89-30.105c5.9-10.612 15.24-15.81 26.59-18.843m-37.8 74.933c4.7 4.757 9.94 8.993 15.03 13.333 2.38 40.446.75 81.685 1.18 122.232-12.06 1.405-21.42 5.663-31.67 11.931-10.39-7.127-20.31-15.172-30.34-22.805l-37.85-29.019c2.76-8.335 4.13-16.548 4.72-25.291a660.6 660.6 0 0 1 78.93-70.381m152.47-183.906c27.61 22.903 57.15 45.425 82.64 70.625-3.43 8.203-5.15 15.409-5.7 24.289-26.29 6.287-52.64 11.299-79.25 15.98a1920 1920 0 0 0-53.57 11.123c-5.03-8.048-10.78-15.052-17.38-21.856a1401 1401 0 0 1 39.96-89.048c12.86-1.538 22.52-3.548 33.3-11.113m82.68 115.125c.74.116 1.56-.028 2.21.347 2.2 1.284 15.65 16.905 18.9 19.939-3.39 27.798-9.36 55.4-11.67 83.286-18.06-.202-30.01 5.314-43.35 17.172l-45.9-32.764a2328 2328 0 0 0-56.64-39.279c.64-7.238 1.07-14.419 1.27-21.682 12.82-3.551 26.68-5.348 39.74-8.086a2755 2755 0 0 1 95.44-18.933m-437.838-22.642c18.023 2.7 37.869 10.726 55.628 15.805 44.22 12.651 88.62 25.198 132.64 38.535a902 902 0 0 0 3.78 17.871 767 767 0 0 0-37.15 32.91 3209 3209 0 0 1-34.81 31.451c-4.41-5.927-8.59-11.297-14.69-15.643-13.19-9.396-28.68-9.623-43.97-7.082a1282 1282 0 0 0-67.624-105.071zm292.218 88.955c32.93 25.037 68.65 46.433 101.35 71.773-3.2 13.814-4.34 27.951.24 41.619 5.62 16.729 18.45 27.966 33.85 35.512-3.09 40.749-11.07 80.997-17.14 121.377-.38 4.85-.97 9.69-1.49 14.53-19.69-40.24-36.21-82.51-54.36-123.502-5.89-13.281-12.43-26.233-18.35-39.486-10.32-23.1-20.12-46.415-30.85-69.331-6.79-14.494-14.23-28.666-20.93-43.206zm-147.51-257.751c19.75 7.718 42.49 11.095 63.11 16.013 23.29 5.554 46.27 12.311 69.59 17.71 3.11 24.676 5.79 30.422 22.48 48.301a1970 1970 0 0 1-32.31 74.352l-4.51 9.436c-19.76-2.732-31.5-.754-49.1 8.918-10.97-22.844-23.36-45.115-35.1-67.586l-46.09-89.585c.06-.056.12-.113.19-.168 6.3-5.353 8.96-9.799 11.74-17.391m-62.99 23.243c12.72 5.053 22.46 4.816 35.82 3.685 3.95 13.094 11.45 26.149 17.39 38.488a3269 3269 0 0 0 45.67 89.104c6.17 11.759 12.85 23.263 18.56 35.255l-5.73 11.948c-21.02-4.391-41.36-10.18-61.93-16.278-20.87-6.927-42.54-12.092-63.69-18.133-20.21-5.77-40.683-12.86-61.306-16.865-.808-12.197-4.535-21.671-8.875-32.903a2778 2778 0 0 0 84.091-94.301"/><path fill="#fefefe" d="M1066.6 451.419c19-2.362 41.21-.302 60.29 1.462a526.8 526.8 0 0 1 113.56 22.541c75.66 24.049 157.01 72.207 207.89 134.012 58.35 70.889 87.17 142.207 78.07 234.794-8.7 88.516-63.36 196.472-132.71 253.362 5.84 16.99 12.75 33.63 18.76 50.56l73.26 202.99c-6.3 5.69-13.4 10.72-20.11 15.93-4.39-8.47-7.25-18.64-10.55-27.64a4310 4310 0 0 1-22.45-62.9 6918 6918 0 0 1-37.76-105.9c-7.26-20.43-15.11-40.84-21.36-61.59 3.67-2.32 6.91-4.93 10.21-7.74 1.39-18.39 6.32-37.11 9.29-55.35 4.56-28.06 7.84-56.238 12.15-84.31 6.95-1.646 13.99-3.633 20.48-6.641 15.04-6.974 27.31-19.025 32.84-34.881 4.96-14.241 4.37-30.355-2.46-43.9-6.32-12.533-17.02-22.598-30.46-26.934 2.53-28.024 6.08-57.136 11.9-84.678 9.22-1.23 17.15-3.196 25.09-8.435a45.43 45.43 0 0 0 19.69-30.615 48.18 48.18 0 0 0-8.9-36.095c-7.45-10.057-18.57-17.078-31.06-18.718-12.83-1.686-22.98 2.413-33.08 9.857-27.8-23.699-57.23-45.487-83.83-70.614 3.19-10.445 4.85-21.519 2.66-32.347a43.77 43.77 0 0 0-19.12-28.312c-10.7-7.083-23.84-10.524-36.55-7.793-13.85 2.977-22.51 11.683-30.06 23.045-45.2-9.774-89.49-23.42-134.66-33.398.26-8.411-.43-15.04-4.21-22.811-5.4-11.128-15.37-20.251-27.22-23.983a48.26 48.26 0 0 0-36.44 3.354c-11.17 5.808-19.79 15.663-23.35 27.801-4.92 16.804-.25 32.008 7.54 46.94-29.175 27.828-56.216 62.417-82.397 93.3-12.829-6.674-26.851-9.128-40.89-4.698-12.172 3.841-21.689 13.393-27.195 24.728a47.94 47.94 0 0 0-1.982 37.748c4.329 11.925 13.529 22.189 25.246 27.22 13.34 5.726 27.579 4.513 40.732-.744 11.519 16.778 21.847 34.425 33.078 51.42 11.099 16.417 22.5 32.65 32.068 50.026-3.437 4.499-6.724 8.965-9.278 14.035-6.492 12.887-8.481 27.519-3.68 41.365a45 45 0 0 0 24.078 26.488c16.71 7.372 32.65 2.646 48.55-3.892 9.92 6.277 18.99 14.847 27.95 22.447a2677 2677 0 0 0 39.05 32.674c-4.7 8.538-7.96 17.015-8.24 26.881a55.92 55.92 0 0 0 15.72 40.44c10.34 10.57 24.84 17.13 39.7 17.02 18.39-.14 32.28-8.43 44.9-20.95 27.44 22.8 56.95 42.48 85.98 63.04 6.55 4.63 20.63 17.05 27.73 18.87 3.28.84 7.49.59 10.39-1.34 2.37-1.57 3.17-2.73 3.92-5.42-.37-3.81-2.55-5.88-5.31-8.26-7.43-6.42-16.72-11.37-24.65-17.27l-50-37.72c-13.06-9.75-26.54-19.06-38.9-29.69 4.21-15.04 3.78-29.843-3.36-43.982-6.13-12.111-17.24-22.606-30.11-27.048l-.84-118.81c9.5-.506 18.58-2.172 27.78-4.518 29.61 58.484 55.15 119.411 81.59 179.368 15.61 35.39 33.29 69.77 47.16 105.95 12.87 33.58 24.01 67.49 35.85 101.4a5771 5771 0 0 0 59.84 165.04c-5.72 3.73-11.22 7.76-16.77 11.72-8.62-19.97-14.92-41.31-22.25-61.81l-45.03-126.46c-6.76-19.18-15.67-53.31-26.63-69.31-4.23-6.19-13.18-6.73-20.06-6.79-17.24-.14-34.74 1.07-51.94-.21a518.2 518.2 0 0 1-289.707-118.32c-86.175-72.561-162.899-173.412-172.355-289.286-4.959-60.759 10.859-125.498 50.947-172.507 54.563-63.982 131.118-86.77 211.975-93.208"/><path fill="#fefefe" d="M1088.77 357.428c58.01-4.83 125.79 6.015 181.37 22.72 106.07 31.879 206.9 102.532 259.94 201.301a462.45 462.45 0 0 1 37.09 342.025c-5.36 19.659-12.72 38.868-20.14 57.828-17.33 44.298-42.73 85.938-56.36 131.548-23.04 77.15-12.76 143.42 25.05 213.78-4.99 2.71-9.28 6.46-13.69 10-5.07-10.54-8.2-22.53-12.16-33.59-7.66-21.37-15.47-42.63-22.85-64.09-15.48-45.05-32.28-89.65-47.87-134.66 16.33-15.8 29.9-33.15 43.36-51.38 37.15-50.3 64.26-100.462 77.39-162.234 4.44-20.869 8.2-41.572 9.29-62.931a313.47 313.47 0 0 0-48.91-182.277c-68.63-105.261-183.27-177.681-305.57-203.288-100.46-21.035-214.11-15.848-302.108 42.066A241.66 241.66 0 0 0 788.185 638.9c-20.223 99.842 14.339 190.673 69.008 272.51a614.3 614.3 0 0 0 112.436 117.5c94.121 76.19 230.671 129.37 353.381 116.37 6.45 16.46 11.41 33.47 17.32 50.13 8.08 22.8 16.89 45.34 24.85 68.18 16 45.88 31.37 92.28 50.24 137.06a739 739 0 0 1-370.26 109.63c-1.78-49.15-15.64-78.36-35.49-121.22-39.838 37.18-108.867 59.5-162.047 69.36-29.427 5.45-119.996 14.81-142.978-2.26-3.732-2.77-5.355-7.21-5.736-11.73-.807-9.54 1.848-20.16 3.298-29.62 3.367-21.98 6.106-43.33 3.429-65.62-4.908-40.87-26.952-69.29-58.343-94.1 18.989-16.58 39.572-34.39 56.505-53.08-23.913.38-49.147-2.92-71.859-10.48 2.113-2.64 3.986-5.44 5.835-8.26 16.823-25.74 19.274-55.85 12.992-85.51l-.983.1c-26.597 2.55-68.104 2.35-89.66-16.21-5.812-5-9.386-11.58-9.744-19.31-.799-17.25 25.107-24.57 36.886-32.59 8.085-5.51 15.28-12.28 21.693-19.65 43.875-50.37 52.152-117.041 43.019-180.974-3.268-22.878-9.099-45.031-10.589-68.21-5.718-88.941 32.077-173.051 90.019-238.776 92.017-104.377 220.318-156.101 357.363-164.712"/></svg>