<svg preserveAspectRatio="xMidYMid meet" version="1.1" xmlns="http://www.w3.org/2000/svg" style="display: block;" viewBox="0 0 2048 2048" width="1024" height="1024">
<path transform="translate(0,0)" fill="rgb(254,254,254)" d="M 0 0 L 2048 0 L 2048 2048 L 0 2048 L 0 0 z"/>
<path transform="translate(0,0)" fill="rgb(45,94,179)" d="M 1035.99 110.479 C 1099.37 109.437 1172.33 115.617 1234.39 129.133 A 972.395 972.395 0 0 1 1407.81 183.09 C 1557.4 246.713 1694.13 357.845 1781.94 495.266 C 1789.71 507.43 1796.61 520.034 1803.81 532.528 C 1810.73 544.54 1818.16 556.291 1824.74 568.497 C 1839.59 596.032 1852.58 625.667 1863.58 654.955 A 754.816 754.816 0 0 1 1891.72 1080.44 A 805.779 805.779 0 0 1 1535.61 1585.27 C 1474.95 1623.62 1411.01 1652.72 1343.08 1675.59 A 990.785 990.785 0 0 1 1254.84 1701.58 C 1106.49 1736.38 948.411 1732.83 800.277 1699.27 C 752.132 1749.38 695.669 1788.55 635.368 1822.6 C 490.627 1903.61 311.543 1946.59 145.896 1942.29 C 164.285 1925.94 180.915 1907.5 197.859 1889.68 A 1460.84 1460.84 0 0 0 409.07 1606.18 C 425.461 1578.13 441.921 1550.04 456.198 1520.84 C 438.813 1507.16 421.541 1493.24 405.661 1477.81 C 259.846 1336.18 166.699 1141.83 163.998 936.901 C 163.657 911.045 163.748 884.84 165.823 859.065 A 797.089 797.089 0 0 1 394.599 366.825 C 532.559 225.401 724.975 140.967 919.667 117.027 C 958.409 112.264 997.008 110.952 1035.99 110.479 z"/>
<path transform="translate(0,0)" fill="rgb(254,254,254)" d="M 1017.68 154.442 C 1106.41 151.249 1209.13 164.37 1293.9 190.157 C 1511.02 256.206 1677.47 386.193 1784.4 587.474 A 712.565 712.565 0 0 1 1859.14 1011.47 A 746.328 746.328 0 0 1 1832.17 1129.18 A 757.211 757.211 0 0 1 1461.22 1577.28 C 1291.17 1667.39 1104.4 1698.06 914.058 1674.46 C 871.78 1669.22 827.035 1662.76 786.289 1650.15 C 754.923 1686.69 717.903 1716.91 678.5 1744.29 C 562.791 1829.43 391.837 1881.81 250.129 1896.24 C 275.039 1870.74 297.198 1842.67 319.157 1814.65 A 1544.48 1544.48 0 0 0 457.113 1610.7 C 476.316 1577.39 495.106 1543.57 510.025 1508.08 A 905.902 905.902 0 0 1 449.751 1458.15 A 725.708 725.708 0 0 1 220.782 1051.47 C 215.037 1020.7 210.576 989.212 209.186 957.92 C 200.087 753.168 271.219 566.231 409.413 415.617 C 487.822 330.16 593.758 259.736 701.45 217.053 C 768.65 190.418 841.386 172.243 912.999 162.401 C 947.826 157.615 982.599 155.964 1017.68 154.442 z"/>
<path transform="translate(0,0)" fill="rgb(45,94,179)" d="M 1092.81 333.436 C 1119.35 333.096 1146.05 333.142 1172.48 335.842 C 1261.4 344.925 1356.29 378.577 1428.09 432.221 C 1454.8 452.177 1480.07 474.183 1502.09 499.284 C 1512.95 511.659 1522.74 525.476 1532.03 539.06 A 423.317 423.317 0 0 1 1590.31 661.046 C 1620.73 766.352 1609.6 886.597 1573.3 988.86 C 1550.74 1052.41 1511.9 1093.95 1505.56 1164.85 C 1501.78 1207.23 1508.39 1255.41 1526.17 1294.13 C 1530 1302.47 1541.53 1320.4 1542.6 1327.9 C 1541.49 1332.02 1538.15 1335.28 1535.23 1338.28 C 1512.04 1362.13 1482.6 1382.31 1455.31 1401.23 A 741.151 741.151 0 0 1 1100.27 1530.26 C 1073.09 1532.7 1046.12 1531.99 1018.9 1532.59 C 1020.49 1498 1016.81 1468.75 1005.09 1436.11 C 1003.6 1432.56 1001.87 1429.1 1000.24 1425.61 C 967.224 1447.25 932.231 1461.83 894.35 1472.57 C 844.694 1486.64 737.711 1504.66 692.807 1478.45 C 682.275 1472.3 675.399 1462.75 673.532 1450.62 C 671.928 1440.19 674.06 1429.21 675.891 1418.95 C 680.611 1392.5 686.92 1365.62 679.905 1338.96 C 670.027 1301.41 641.265 1277.44 609.012 1258.66 C 622.579 1246.4 634.643 1231.82 649.54 1221.16 C 626.381 1215.74 607.319 1209.01 586.882 1196.47 C 593.294 1192.78 599.282 1188.67 604.792 1183.72 C 623.013 1167.37 629.879 1149.22 631.237 1125.19 C 600.053 1123.6 567.201 1121.2 543.164 1098.8 C 532.627 1088.98 525.874 1075.84 525.545 1061.25 C 524.866 1031.09 551.495 1023.86 571.819 1010.2 C 578.474 1005.73 584.554 999.915 589.947 994.009 C 629.491 950.702 636.401 888.942 627.836 833.127 C 623.901 807.48 616.921 783.095 615.838 756.945 C 611.711 657.33 657.031 565.946 723.322 494.169 C 742.524 473.377 764.061 455.845 786.808 439.105 C 877.316 372.499 980.695 337.916 1092.81 333.436 z"/>
<path transform="translate(0,0)" fill="rgb(254,254,254)" d="M 1173.79 967.309 C 1180.89 967.656 1187.21 968.463 1193.55 971.925 A 36.4242 36.4242 0 0 1 1211.21 993.658 A 35.2041 35.2041 0 0 1 1207.58 1020.89 C 1201.77 1030.76 1192.57 1036.01 1181.85 1038.96 C 1174.05 1039.23 1167.39 1038.45 1160.39 1034.65 A 34.4387 34.4387 0 0 1 1143.3 1013 C 1140.71 1003.11 1142.87 992.404 1148.37 983.869 C 1154.57 974.234 1162.91 969.635 1173.79 967.309 z"/>
<path transform="translate(0,0)" fill="rgb(254,254,254)" d="M 1400.75 863.176 C 1407.26 862.813 1412.8 863.323 1418.78 866.142 C 1428.23 870.587 1435.19 879.041 1438.33 888.945 A 38.3062 38.3062 0 0 1 1435.01 919.488 C 1428.87 930.363 1419.31 935.729 1407.69 939.04 C 1401.52 939.272 1396.07 938.209 1390.41 935.643 A 37.4621 37.4621 0 0 1 1370.4 913.12 A 37.9824 37.9824 0 0 1 1373.32 882.386 C 1379.5 871.391 1389.09 866.471 1400.75 863.176 z"/>
<path transform="translate(0,0)" fill="rgb(254,254,254)" d="M 1197.86 735.134 C 1204.79 734.457 1210.9 735.238 1217.3 738.04 A 39.4849 39.4849 0 0 1 1238.6 761.164 A 35.829 35.829 0 0 1 1236.44 789.473 C 1230.82 800.427 1221.47 806.377 1210.1 810.003 C 1202.76 811.001 1195.86 810.008 1189.08 806.94 A 38.7927 38.7927 0 0 1 1168.38 784.082 A 37.6164 37.6164 0 0 1 1171.27 753.977 C 1177.17 743.365 1186.51 738.167 1197.86 735.134 z"/>
<path transform="translate(0,0)" fill="rgb(254,254,254)" d="M 1160.06 810.067 C 1164.76 814.824 1170 819.06 1175.09 823.4 C 1177.47 863.846 1175.84 905.085 1176.27 945.632 C 1164.21 947.037 1154.85 951.295 1144.6 957.563 C 1134.21 950.436 1124.29 942.391 1114.26 934.758 L 1076.41 905.739 C 1079.17 897.404 1080.54 889.191 1081.13 880.448 A 660.63 660.63 0 0 1 1160.06 810.067 z"/>
<path transform="translate(0,0)" fill="rgb(254,254,254)" d="M 1312.53 626.161 C 1340.14 649.064 1369.68 671.586 1395.17 696.786 C 1391.74 704.989 1390.02 712.195 1389.47 721.075 C 1363.18 727.362 1336.83 732.374 1310.22 737.055 A 1919.66 1919.66 0 0 0 1256.65 748.178 C 1251.62 740.13 1245.87 733.126 1239.27 726.322 A 1400.72 1400.72 0 0 1 1279.23 637.274 C 1292.09 635.736 1301.75 633.726 1312.53 626.161 z"/>
<path transform="translate(0,0)" fill="rgb(254,254,254)" d="M 1395.21 741.286 C 1395.95 741.402 1396.77 741.258 1397.42 741.633 C 1399.62 742.917 1413.07 758.538 1416.32 761.572 C 1412.93 789.37 1406.96 816.972 1404.65 844.858 C 1386.59 844.656 1374.64 850.172 1361.3 862.03 L 1315.4 829.266 A 2327.63 2327.63 0 0 0 1258.76 789.987 C 1259.4 782.749 1259.83 775.568 1260.03 768.305 C 1272.85 764.754 1286.71 762.957 1299.77 760.219 A 2755.32 2755.32 0 0 1 1395.21 741.286 z"/>
<path transform="translate(0,0)" fill="rgb(254,254,254)" d="M 957.372 718.644 C 975.395 721.344 995.241 729.37 1013 734.449 C 1057.22 747.1 1101.62 759.647 1145.64 772.984 A 901.92 901.92 0 0 0 1149.42 790.855 A 766.827 766.827 0 0 0 1112.27 823.765 A 3208.68 3208.68 0 0 1 1077.46 855.216 C 1073.05 849.289 1068.87 843.919 1062.77 839.573 C 1049.58 830.177 1034.09 829.95 1018.8 832.491 A 1282.32 1282.32 0 0 0 951.176 727.42 L 957.372 718.644 z"/>
<path transform="translate(0,0)" fill="rgb(254,254,254)" d="M 1249.59 807.599 C 1282.52 832.636 1318.24 854.032 1350.94 879.372 C 1347.74 893.186 1346.6 907.323 1351.18 920.991 C 1356.8 937.72 1369.63 948.957 1385.03 956.503 C 1381.94 997.252 1373.96 1037.5 1367.89 1077.88 C 1367.51 1082.73 1366.92 1087.57 1366.4 1092.41 C 1346.71 1052.17 1330.19 1009.9 1312.04 968.908 C 1306.15 955.627 1299.61 942.675 1293.69 929.422 C 1283.37 906.322 1273.57 883.007 1262.84 860.091 C 1256.05 845.597 1248.61 831.425 1241.91 816.885 L 1249.59 807.599 z"/>
<path transform="translate(0,0)" fill="rgb(254,254,254)" d="M 1102.08 549.848 C 1121.83 557.566 1144.57 560.943 1165.19 565.861 C 1188.48 571.415 1211.46 578.172 1234.78 583.571 C 1237.89 608.247 1240.57 613.993 1257.26 631.872 A 1970.38 1970.38 0 0 1 1224.95 706.224 L 1220.44 715.66 C 1200.68 712.928 1188.94 714.906 1171.34 724.578 C 1160.37 701.734 1147.98 679.463 1136.24 656.992 L 1090.15 567.407 C 1090.21 567.351 1090.27 567.294 1090.34 567.239 C 1096.64 561.886 1099.3 557.44 1102.08 549.848 z"/>
<path transform="translate(0,0)" fill="rgb(254,254,254)" d="M 1039.09 573.091 C 1051.81 578.144 1061.55 577.907 1074.91 576.776 C 1078.86 589.87 1086.36 602.925 1092.3 615.264 A 3268.88 3268.88 0 0 0 1137.97 704.368 C 1144.14 716.127 1150.82 727.631 1156.53 739.623 L 1150.8 751.571 C 1129.78 747.18 1109.44 741.391 1088.87 735.293 C 1068 728.366 1046.33 723.201 1025.18 717.16 C 1004.97 711.39 984.497 704.3 963.874 700.295 C 963.066 688.098 959.339 678.624 954.999 667.392 A 2778.2 2778.2 0 0 0 1039.09 573.091 z"/>
<path transform="translate(0,0)" fill="rgb(254,254,254)" d="M 1066.6 451.419 C 1085.6 449.057 1107.81 451.117 1126.89 452.881 A 526.746 526.746 0 0 1 1240.45 475.422 C 1316.11 499.471 1397.46 547.629 1448.34 609.434 C 1506.69 680.323 1535.51 751.641 1526.41 844.228 C 1517.71 932.744 1463.05 1040.7 1393.7 1097.59 C 1399.54 1114.58 1406.45 1131.22 1412.46 1148.15 L 1485.72 1351.14 C 1479.42 1356.83 1472.32 1361.86 1465.61 1367.07 C 1461.22 1358.6 1458.36 1348.43 1455.06 1339.43 A 4310.36 4310.36 0 0 1 1432.61 1276.53 A 6917.89 6917.89 0 0 1 1394.85 1170.63 C 1387.59 1150.2 1379.74 1129.79 1373.49 1109.04 C 1377.16 1106.72 1380.4 1104.11 1383.7 1101.3 C 1385.09 1082.91 1390.02 1064.19 1392.99 1045.95 C 1397.55 1017.89 1400.83 989.712 1405.14 961.64 C 1412.09 959.994 1419.13 958.007 1425.62 954.999 C 1440.66 948.025 1452.93 935.974 1458.46 920.118 C 1463.42 905.877 1462.83 889.763 1456 876.218 C 1449.68 863.685 1438.98 853.62 1425.54 849.284 C 1428.07 821.26 1431.62 792.148 1437.44 764.606 C 1446.66 763.376 1454.59 761.41 1462.53 756.171 A 45.4259 45.4259 0 0 0 1482.22 725.556 A 48.1826 48.1826 0 0 0 1473.32 689.461 C 1465.87 679.404 1454.75 672.383 1442.26 670.743 C 1429.43 669.057 1419.28 673.156 1409.18 680.6 C 1381.38 656.901 1351.95 635.113 1325.35 609.986 C 1328.54 599.541 1330.2 588.467 1328.01 577.639 A 43.7652 43.7652 0 0 0 1308.89 549.327 C 1298.19 542.244 1285.05 538.803 1272.34 541.534 C 1258.49 544.511 1249.83 553.217 1242.28 564.579 C 1197.08 554.805 1152.79 541.159 1107.62 531.181 C 1107.88 522.77 1107.19 516.141 1103.41 508.37 C 1098.01 497.242 1088.04 488.119 1076.19 484.387 A 48.2561 48.2561 0 0 0 1039.75 487.741 C 1028.58 493.549 1019.96 503.404 1016.4 515.542 C 1011.48 532.346 1016.15 547.55 1023.94 562.482 C 994.765 590.31 967.724 624.899 941.543 655.782 C 928.714 649.108 914.692 646.654 900.653 651.084 C 888.481 654.925 878.964 664.477 873.458 675.812 A 47.9373 47.9373 0 0 0 871.476 713.56 C 875.805 725.485 885.005 735.749 896.722 740.78 C 910.062 746.506 924.301 745.293 937.454 740.036 C 948.973 756.814 959.301 774.461 970.532 791.456 C 981.631 807.873 993.032 824.106 1002.6 841.482 C 999.163 845.981 995.876 850.447 993.322 855.517 C 986.83 868.404 984.841 883.036 989.642 896.882 A 44.9996 44.9996 0 0 0 1013.72 923.37 C 1030.43 930.742 1046.37 926.016 1062.27 919.478 C 1072.19 925.755 1081.26 934.325 1090.22 941.925 A 2676.58 2676.58 0 0 0 1129.27 974.599 C 1124.57 983.137 1121.31 991.614 1121.03 1001.48 A 55.921 55.921 0 0 0 1136.75 1041.92 C 1147.09 1052.49 1161.59 1059.05 1176.45 1058.94 C 1194.84 1058.8 1208.73 1050.51 1221.35 1037.99 C 1248.79 1060.79 1278.3 1080.47 1307.33 1101.03 C 1313.88 1105.66 1327.96 1118.08 1335.06 1119.9 C 1338.34 1120.74 1342.55 1120.49 1345.45 1118.56 C 1347.82 1116.99 1348.62 1115.83 1349.37 1113.14 C 1349 1109.33 1346.82 1107.26 1344.06 1104.88 C 1336.63 1098.46 1327.34 1093.51 1319.41 1087.61 L 1269.41 1049.89 C 1256.35 1040.14 1242.87 1030.83 1230.51 1020.2 C 1234.72 1005.16 1234.29 990.357 1227.15 976.218 C 1221.02 964.107 1209.91 953.612 1197.04 949.17 L 1196.2 830.36 C 1205.7 829.854 1214.78 828.188 1223.98 825.842 C 1253.59 884.326 1279.13 945.253 1305.57 1005.21 C 1321.18 1040.6 1338.86 1074.98 1352.73 1111.16 C 1365.6 1144.74 1376.74 1178.65 1388.58 1212.56 A 5771.4 5771.4 0 0 0 1448.42 1377.6 C 1442.7 1381.33 1437.2 1385.36 1431.65 1389.32 C 1423.03 1369.35 1416.73 1348.01 1409.4 1327.51 L 1364.37 1201.05 C 1357.61 1181.87 1348.7 1147.74 1337.74 1131.74 C 1333.51 1125.55 1324.56 1125.01 1317.68 1124.95 C 1300.44 1124.81 1282.94 1126.02 1265.74 1124.74 A 518.193 518.193 0 0 1 976.033 1006.42 C 889.858 933.859 813.134 833.008 803.678 717.134 C 798.719 656.375 814.537 591.636 854.625 544.627 C 909.188 480.645 985.743 457.857 1066.6 451.419 z"/>
<path transform="translate(0,0)" fill="rgb(254,254,254)" d="M 1088.77 357.428 C 1146.78 352.598 1214.56 363.443 1270.14 380.148 C 1376.21 412.027 1477.04 482.68 1530.08 581.449 A 462.452 462.452 0 0 1 1567.17 923.474 C 1561.81 943.133 1554.45 962.342 1547.03 981.302 C 1529.7 1025.6 1504.3 1067.24 1490.67 1112.85 C 1467.63 1190 1477.91 1256.27 1515.72 1326.63 C 1510.73 1329.34 1506.44 1333.09 1502.03 1336.63 C 1496.96 1326.09 1493.83 1314.1 1489.87 1303.04 C 1482.21 1281.67 1474.4 1260.41 1467.02 1238.95 C 1451.54 1193.9 1434.74 1149.3 1419.15 1104.29 C 1435.48 1088.49 1449.05 1071.14 1462.51 1052.91 C 1499.66 1002.61 1526.77 952.448 1539.9 890.676 C 1544.34 869.807 1548.1 849.104 1549.19 827.745 A 313.474 313.474 0 0 0 1500.28 645.468 C 1431.65 540.207 1317.01 467.787 1194.71 442.18 C 1094.25 421.145 980.6 426.332 892.602 484.246 A 241.656 241.656 0 0 0 788.185 638.9 C 767.962 738.742 802.524 829.573 857.193 911.41 A 614.335 614.335 0 0 0 969.629 1028.91 C 1063.75 1105.1 1200.3 1158.28 1323.01 1145.28 C 1329.46 1161.74 1334.42 1178.75 1340.33 1195.41 C 1348.41 1218.21 1357.22 1240.75 1365.18 1263.59 C 1381.18 1309.47 1396.55 1355.87 1415.42 1400.65 A 739.021 739.021 0 0 1 1045.16 1510.28 C 1043.38 1461.13 1029.52 1431.92 1009.67 1389.06 C 969.832 1426.24 900.803 1448.56 847.623 1458.42 C 818.196 1463.87 727.627 1473.23 704.645 1456.16 C 700.913 1453.39 699.29 1448.95 698.909 1444.43 C 698.102 1434.89 700.757 1424.27 702.207 1414.81 C 705.574 1392.83 708.313 1371.48 705.636 1349.19 C 700.728 1308.32 678.684 1279.9 647.293 1255.09 C 666.282 1238.51 686.865 1220.7 703.798 1202.01 C 679.885 1202.39 654.651 1199.09 631.939 1191.53 C 634.052 1188.89 635.925 1186.09 637.774 1183.27 C 654.597 1157.53 657.048 1127.42 650.766 1097.76 L 649.783 1097.86 C 623.186 1100.41 581.679 1100.21 560.123 1081.65 C 554.311 1076.65 550.737 1070.07 550.379 1062.34 C 549.58 1045.09 575.486 1037.77 587.265 1029.75 C 595.35 1024.24 602.545 1017.47 608.958 1010.1 C 652.833 959.73 661.11 893.059 651.977 829.126 C 648.709 806.248 642.878 784.095 641.388 760.916 C 635.67 671.975 673.465 587.865 731.407 522.14 C 823.424 417.763 951.725 366.039 1088.77 357.428 z"/>
</svg>