<svg xmlns="http://www.w3.org/2000/svg" display="block" viewBox="0 0 1536 2048"><path fill="#fefefe" d="M0 0h1536v2046.25c-.68.39-1.43.87-2.19 1.13-7 2.37-67.45.62-78.94.62l-239.4.02L24.337 2048c-6.636 0-18.651 1.5-24.337-1.75z"/><path fill="#020302" d="M375.786 185.162c15.712-.783 32.053 1.384 47.678 3.017a5584 5584 0 0 1 69.044 7.81 15166 15166 0 0 1 262.768 32.562 10306 10306 0 0 0 462.114 44.048 12127 12127 0 0 1 154.25 12.764l59.19 4.801c9.5.762 19.2.962 28.64 2.236 3.44.464 6.34 1.204 9.18 3.298 4.51 10.666-1.8 63.881-2.86 78.35-5.78 78.46-9.84 165.351-23.17 242.258-15.76 90.952-41.79 179.745-57.74 270.623-10.95 62.404-17.41 125.601-25.25 188.451-6.58 52.7-15.36 105.04-23.57 157.49-6.94 44.27-11.2 88.9-20.86 132.73-4.21 19.11-10.88 37.18-16.07 55.96-4.05 14.64-5.35 37.55-18.71 47.22-7.03 5.09-16.57 6.84-25.07 6.9-18.42.13-37.66-5.43-55.74-8.72-19.07-3.47-38.33-6.21-57.49-9.15-.52 47.22 15.88 96.36 30.26 140.87 9.9 30.65 19.7 61.43 30.28 91.85 8.43 24.24 17.91 48.45 25.21 73.04.9 3.02 4.4 14.71 2.85 17.09-4.04 6.18-13.01 10.51-19.27 14.08-32.22 18.37-67.55 32.54-104.03 39.84-17.45 3.5-95.98 15.37-109.051 6.74-4.869-6.65-30.455-117.09-34.725-133.97-8.587-33.95-16.8-68.82-28.138-101.96-9.079-26.54-27.908-38.58-43.8-59.86-17.742-23.75-34.317-48.63-47.883-75.03a603 603 0 0 1-24.556-53.43c-32.942-5.19-65.738-9.34-98.495-15.94-31.242-6.31-61.989-14.92-93.278-21.06-48.797-9.57-97.924-17.24-146.784-26.42-10.899 13.75-22.236 27.32-36.628 37.57-34.728 24.73-73.531 31.01-99.414 68.79-25.446 37.13-49.841 91.24-67.433 133.55a3543 3543 0 0 0-24.368 61.03c-3.835 10.14-6.829 20.7-11.201 30.61-1.002 2.27-2.8 6.37-4.924 7.69-7.988 4.95-60.869-3.74-72.317-5.61-17.362-2.84-34.638-6.84-51.876-10.38-11.332-2.33-23.746-3.98-34.672-7.68-4.006-1.36-9.05-3.4-11.445-7.04-4.554-6.91 9.028-34.22 11.81-42.66 14.305-43.45 28.331-87.25 44.85-129.92 14.261-36.83 31.161-72.48 44.39-109.75 7.502-21.14 13.622-43.43 18.272-65.38-24.168-6.26-80.13-7.39-95.58-25.8-10.23-12.18-7.59-33.8-8.947-48.59-.918-10-3.45-19.62-2.761-29.78 1.083-15.98 16.017-47.87 23.024-62.86 19.156-40.98 42.929-79.95 63.419-120.29l63.005-121.567c18.596-35.819 40.546-79.196 62.572-112.498 6.697-10.127 15.353-18.114 24.384-26.081 1.53-18.869.679-38.169 1.067-57.105a3758 3758 0 0 1 3.536-90.622l-42.954 15.32c-2.46 28.571-.444 79.742-11.301 104.257-4.876 11.01-12.891 17.53-24.086 21.762-28.271 10.686-76.026 8.073-103.413-4.534-8.034-3.698-16.118-9.532-19.018-18.282-2.298-6.933-.615-13.816 2.719-20.054 15.969-29.888 111.857-80.201 144.599-94.571 17.962-7.883 36.455-14.136 55.196-19.874 2.672-23.397 4.392-46.705 8.042-70.021 5.643-36.047 13.366-71.617 16.893-107.996 2.512-25.918 3.152-52.29 3.627-78.319.698-38.251-.903-114.194 12.014-146.867 2.918-7.379 6.708-11.731 13.995-14.936"/><path fill="#fefefe" d="M282.215 1086.94c1.292.23 2.615.43 3.883.77 2.581.68 2.812 1.07 4.064 3.44.431 5.25-3.047 11.56-5.036 16.44l-1.276 1.88-1.081-.41c-2.084-7.07-1.461-14.91-.554-22.12m848.495 63.9c2.5.57 3.13.49 4.94 2.42 2.54 10.76-2.01 24.1-4.78 34.58l-.84 1.25-.65-.36c.88-12.63 1.07-25.25 1.33-37.89M292.288 939.324l21.327 4.82c-8.188 3.861-15.08 8.035-21.771 14.182-4.242 4.274-8.621 8.424-12.938 12.623 4.744-10.391 8.951-21.093 13.382-31.625m183.488 98.306c3.488.67 6.594 1.36 9.867 2.82-1.502 4.57-8.498 10.18-11.583 14.35-6.661 9.01-11.74 18.96-16.937 28.85-1.641 3.35-4.011 6.36-6.157 9.41 5.759-18.92 13.813-38.92 24.81-55.43m19.004 153.3c8.665 2.41 17.657 3.92 26.473 5.71a550 550 0 0 0-19.275 12.16c-5.613 3.89-10.858 8.07-16.122 12.41 2.432-10.28 5.664-20.25 8.924-30.28m-183.734-178.2c1.337 1.11 1.982 1.85 2.715 3.44-2.785 7.53-16.791 54.42-18.363 56.63-.827 1.17-3.256 1.18-4.632 1.44-1.682-.85-2.584-1.39-3.689-2.93.941-9.4 18.698-48.85 23.969-58.58m745.194 125.49c4.83.85 9.8 1.2 14.67 1.71-.48 13.81-2.4 27.21-4.49 40.85-.5 1.28-1.29 1.92-2.24 2.9-2.53-.13-2.56-.39-4.49-2.09-4.26-8.46-3.02-32.87-3.45-43.37M332.43 948.503c7.406.655 14.813 1.946 22.174 3.004-11.258 12.049-20.62 24.467-28.453 39.033-1.255 2.62-2.518 5.845-4.517 7.967-1.333 1.415-1.91 1.823-3.775 1.933-1.155-9.511 14.557-33.968 14.571-51.937m786.95 127.947c6.23 1.05 12.33 2.52 18.47 4.02a1005 1005 0 0 1-1.07 56.21c-2.38.47-3.44.65-5.82-.2-2.78-4.95-4.17-26.99-5.5-34.13a264 264 0 0 0-6.08-25.9m-69.92-12.03c3.32.53 6.35 1.25 9.53 2.33 5.67 9.02 8.82 46.64 10.16 58.56l-14.19-2.89c-2.89-19.06-3.91-38.78-5.5-58m-825.785 19.35c1.196 6.67-8.095 50.08-9.792 60.31l-19.621-4.59-3.213-.81-.678-1.43c7.032-16.43 22.759-38.56 33.304-53.48m635.851 173.12a376 376 0 0 0 36.165 6.41l-9.336 33.7c-1.234 3.81-2.719 7.53-4.147 11.26-6.039-18.12-13.716-34.53-22.682-51.37m-476.909-234.63c6.164 1.11 12.27 2.96 18.331 4.54-7.679 15.76-14.545 31.65-20.968 47.96-1.095 3.18-1.869 7.01-4.521 9.22-2.395-.07-3.829-.11-5.899-1.51-2.852-9.94 9.16-48.47 13.057-60.21m520.569 91.78c2.933-.09 5.274-.4 7.849 1.17 2.809 9.13-2.473 43.71-3.236 55.35l-16.565-1.93c-2.9-.83-6.398-1.01-9.41-1.46 7.446-17.56 14.279-35.43 21.362-53.13m70.595 7.36c4.883.31 9.67 1.12 14.496 1.89 2.371 20.23 4.703 41.43 4.828 61.76-4.484-.41-10.891.06-13.944-3.61-9.408-11.34-6.272-45.44-5.38-60.04M432.614 957.124c5.631 1.754 12.004 2.413 17.826 3.484-15.56 16.663-28.352 33.661-41.547 52.142-6.791-1.27-13.546-2.95-20.295-4.45 10.689-20.336 27.501-35.68 44.016-51.176m517.217 87.526c10.224 2.24 20.626 3.93 30.901 5.96 1.6 19.65 4.431 39.17 5.865 58.84l-13.675-1.79c-4.41-21.89-14.313-42.58-23.091-63.01m-423.148-73.905a804 804 0 0 1 32.667 6.095c-19.101 8.631-36.633 25.73-51.759 39.98l-9.84 9.79c-4.534-.96-9.161-1.52-13.744-2.19 13.63-18.31 27.295-36.782 42.676-53.675m637.547 330.705c9.3 1.13 18.61 2.87 27.87 4.34a2611 2611 0 0 1-11.75 45.97c-.43.99-.14.6-1.11 1.39-2.74 2.22-19.28-.92-23.33-1.41 3.36-16.57 5.52-33.59 8.32-50.29M422.485 894.387a966 966 0 0 1 67.554 10.228c-8.236 15.293-18.916 30.063-29.489 43.821-3.924 1.235-13.264-2.281-17.324-3.309l3.102-4.327c4.392-6.21 9.395-13.943 7.683-21.968-.831-3.894-3.346-6.862-6.799-8.756-11.117-6.099-25.242-.977-36.418 2.257zm753.205 339.403a912 912 0 0 1 30.3 3.47c-2.94 17.94-5.84 35.85-10.17 53.51-8.6 1.18-20.57-2.26-29.37-3.4 2.38-17.89 6.5-35.7 9.24-53.58m13.22-70.86c10.3.89 20.64 1.46 30.95 2.16-4.47 18.86-8.08 37.57-11.3 56.69-3.77 1.56-25.04-2.42-30.28-3.06a651 651 0 0 0 10.63-55.79M506.224 907.623c25.478 3.093 51.578 9.109 76.819 13.989-5.279 13.925-12.327 27.325-18.606 40.833l-8.684-1.722-18.255-3.34c2.269-2.98 4.723-6.354 6.25-9.778 2.249-5.043 2.575-11.997.362-17.108-1.616-3.734-4.635-6.517-8.408-7.988-13.483-5.256-31.099 3.262-43.556 8.218 4.239-7.971 9.22-15.503 14.078-23.104M181.605 1151.7a2281 2281 0 0 1 29.781 6.05l-7.028 48.72c-4.896-1.18-9.846-2.18-14.768-3.25-10.723-2.12-21.609-3.6-32.377-5.52a550 550 0 0 1 24.392-46m898.485-144.01c25.72 4.61 52.22 7.7 77.59 13.81-5.79 12.74-10.62 16.57-18.81 26.9-1.79 5.12-2.48 10.3-3.25 15.65-7.14-1.5-14.34-2.72-21.51-4.03-6.19-11.58-12.85-26.53-22.36-35.69-3.67-3.54-9.29-6.44-13.64-9.2-.76-1.98 1.18-5.39 1.98-7.44m108.07 77.03c15.98 1.16 32.24 4.94 47.81 8.59l-10.16 44.59-2.84 11.45a516 516 0 0 0-32.36-1.31c.9-21.68.52-41.81-2.45-63.32m-311.153 96.06c9.888 1.24 19.775 3.06 29.628 4.59-1.433 21.53-3.608 42.97-8.121 64.09l-9.652-2.18c-11.528-2.13-23.126-4.09-34.491-6.99 6.597-19.94 14.54-40.14 22.636-59.51m-14.362-209.446c23.208 2.923 46.267 5.87 69.188 10.64a207 207 0 0 1-10.154 22.116c-7.492-3.74-12.871-5.328-21.129-2.58-.18.16-.362.31-.541.47-6.364 5.62-7.363 10.93-7.926 18.99a1106 1106 0 0 0-46.024-7.87c5.979-13.575 12.027-27.656 16.586-41.766m-81.839 192.996c27.048 4.23 53.495 10.54 80.753 14.06a1573 1573 0 0 0-16.604 45.96l-2.098 5.75-1.611.19c-3.054-1.82-4.472-4.61-6.686-7.28-3.358-4.06-7.766-7.51-11.765-10.94-16.044-13.72-30.344-21.3-51.582-23.08 2.842-8.39 5.733-16.68 9.593-24.66M609.739 984.927c13.447 3.311 27.118 5.787 40.702 8.47-9.873 19.123-20.406 37.893-29.788 57.263l-10.063-1.89c-15.184-2.88-30.271-5.87-45.311-9.45 17.034-17.49 35.795-30.5 44.46-54.393m83.547-42.131c22.688 4.702 45.883 7.308 68.429 12.612-6.35 12.983-12.167 26.302-18.923 39.073-23.315-2.698-46.623-7.982-69.775-11.958 5.484-13.67 13.237-26.788 20.269-39.727m83.638 14.854c23.114 4.121 46.384 7.35 69.524 11.336-2.386 7.884-11.547 37.754-17.676 41.054-23.524-4.62-47.267-8.39-70.904-12.396 6.339-13.319 13.832-26.176 19.056-39.994m169.827 28.089c12.043 1.211 24.317 4.132 36.307 6.054 27.212 4.362 54.242 8.567 81.312 13.807-2.4 8.57-7.99 15.53-10.3 23.67-1.61 5.67-.7 13.58-.58 19.45-1.62 1.14-1.7 1.02-3.71.88-5.84-4.1-7.33-17.61-9.59-24.31-1.18-3.1-2.67-6.01-4.35-8.86-4.43-7.53-11.26-13.95-19.94-16.03-6.74-1.6-14.22-.463-20.076 3.27-10.922 6.97-13.757 19.88-16.081 31.68-11.5-2.44-23.629-4.52-35.327-5.62l-9.875-14.24a1782 1782 0 0 0 12.21-29.751m-348.792-61.016a2310 2310 0 0 1 79.064 14.739c-5.258 12.446-11.983 28.02-19.845 38.974l-2.548.272c-14.301-3.513-29.159-5.216-43.605-8.295-2.249-3.667-4.571-8.605-8.476-10.706-6.098-3.279-17.077 2.468-23.348 4.274 7.07-12.873 13.988-25.317 18.758-39.258m-44.155 128.307a1256 1256 0 0 0 59.907 10.59c-4.506 7.64-21.976 46.27-26.813 48.79-20.68-5.06-41.959-8.57-62.836-12.85 8.23-16.5 17.86-32.4 29.742-46.53m618.366-30.5a2152 2152 0 0 1 77.41 8.34c-2.04 15.94-6.27 31.29-10.3 46.83-.38.81-1 1.1-1.71 1.62-17.59-5.81-35.11-7.91-53.35-10.39-5.47-10.88-11.33-20.03-19.37-29.2zm-573.78 106.93c23.883 5.43 48.184 9.26 72.18 14.25-3.049 7.65-23.59 55.6-27.341 58.64-1.011.82-4.122.13-5.453.03-7.132-1.5-14.181-2.29-21.419-2.99 3.976-8.06 9.185-18.79 5.826-27.87-1.404-3.8-4.258-6.64-7.94-8.25-11.908-5.22-26.097 1.88-37.094 6.4 6.781-13.54 14.13-26.84 21.241-40.21m30.114-62.61c23.85 2.44 48.192 8.25 71.626 13.3-7.285 16.5-15.142 32.91-22.812 49.24-24.3-5.32-49.005-9.03-73.398-13.96 7.213-16.44 16.022-32.79 24.584-48.58m-110.77 47.05c20.839 5.05 42.744 7.99 63.843 11.97-8.409 17.93-17.241 35.52-25.274 53.64-4.024 1.98-8.116 3.84-12.175 5.75-15.772-2.41-31.416-6.36-47.314-7.78 4.558-21.64 13.072-42.92 20.92-63.58m197.668-30.98c24.998 6.16 50.693 9.71 76.097 13.81-6.197 14.76-12.895 37.24-20.785 50.4a7133 7133 0 0 0-77.947-15.08c7.128-16.53 14.997-32.82 22.635-49.13M325.777 876.893c26.988 5.234 54.737 8.331 81.403 14.786-8.228 11.387-15.924 22.449-22.161 35.064l-8.488 5.524-9.057 6.581c-21.907-2.45-45.635-7.82-66.993-13.309 9.259-15.814 16.901-32.384 25.296-48.646M665.58 996.677c23.462 2.073 47.182 8.133 70.47 11.873-7.987 19.49-19.889 38-28.892 57.16a2425 2425 0 0 0-71.318-12.75c9.502-18.97 20.208-37.32 29.74-56.283m141.986 103.073c26.707 3.84 53.342 8.58 80.005 12.76a1625 1625 0 0 1-21.66 52.02 864 864 0 0 1-79.949-15.08c4.994-16.58 13.776-34.23 21.604-49.7m34.004-72.4c17.484 2.55 35.162 6.16 52.445 9.86 2.326 12.21 6.859 24.11 10.803 35.87-2.957 8.76-6.548 17.07-10.344 25.49l-16.304-2.7c-21.389-2.65-42.756-6.93-64.014-10.53 6.877-17.56 17.199-42.68 27.414-57.99m-89.573-15.69a3017 3017 0 0 0 72.447 12.46c-3.511 8.51-22.833 56.04-27.675 58.64-25.074-3.5-50.194-8.37-74.966-13.62 9.237-19.45 20.152-38.41 30.194-57.48m-65.59 134.25 79.113 15.59c-4.665 10.71-17.263 51.31-21.786 57.07l-2.992-.02c-27.201-4.17-54.758-7.67-81.705-13.2 8.675-19.97 18.32-39.63 27.37-59.44m-427.974-503.1 1.771.625c1.202 9.112-3.597 75.11-6.994 84.928-2.785 8.046-8.037 14.181-15.839 17.781-22.897 10.563-68.706 6.339-91.787-2.352-3.932-2-9.11-4.293-11.293-8.32-1.469-2.712-1.378-6.166-.392-9.018 8.492-24.584 98.694-71.004 124.534-83.644m277.595 626.68 172.416 30.5c27.881 4.83 56.229 8.44 83.897 14.27a2985 2985 0 0 1 7.456 39.39l-15.022-2.65-268.997-51.08c6.068-10.45 13.483-20.4 20.25-30.43m68.189-56.56c29.18 3.9 58.289 8.86 87.377 13.41 26.234 4.1 52.737 7.72 78.764 12.98 8.145 18.85 12.771 39.49 17.711 59.37a1711 1711 0 0 0-45.317-8.14c-33.492-4.48-66.891-11.51-100.151-17.48-31.742-5.69-63.699-10.39-95.229-17.2 16.68-16.61 38.831-27.62 56.845-42.94"/><path fill="#fefefe" d="M325.389 778.961c28.206 7.538 64.12 10.165 93.385 14.068a7071 7071 0 0 1 179.851 24.589c69.047 10.308 137.646 23.241 206.792 32.952 49.395 6.936 99.188 10.47 148.55 18.051 60.323 9.264 120.073 21.613 180.453 30.583 74.84 11.119 150.24 18.462 224.99 30.402-2.51 16.995-3.64 34.454-5.4 51.553a3691 3691 0 0 1-12.3 113.461c-6.3 49.89-16.75 99.22-24.16 148.97-9.25 62.05-14.82 113.6-34.33 174.01-47.5 9.32-90.04-6.61-136.49-12.35 1.63-12.68 3.72-25.19 6.04-37.76 14.66 2.55 64.29 11.31 76.37 5.28 1.92-2.58 2.94-5.42 3.71-8.52 1.97-7.96 2.9-16.26 4.73-24.29 4.24-18.56 8.96-37.03 12.68-55.69 10.27-51.47 17.91-103.48 25.95-155.33 5.44-35.1 13.55-71.75 14.82-107.26.32-8.99 1.03-18.83-3.95-26.684-8.98-14.169-31.15-18.144-46.32-21.626-36.55-6.628-74.06-7.716-110.82-13.328-23.79-3.631-46.92-9.566-70.44-14.496a1939 1939 0 0 0-108.841-19.83 2222 2222 0 0 0-119.802-15.398c-36.858-3.838-73.718-6.554-110.379-12.18-44.461-6.823-87.574-19.241-131.508-28.53-59.903-12.664-119.941-21.993-180.611-30.056-23.232-3.087-57.621-10.551-79.732-4.001-17.391 5.15-29.653 34.152-37.712 49.337-18.202 34.301-33.867 69.88-50.699 104.844-20.407 42.388-41.644 84.228-61.266 127.018a2336 2336 0 0 1-24.598 52.33c-4.809 10.01-10.38 20.12-14.381 30.47-1.048 2.71-1.243 4.33-.393 7.11 6.522 5.92 51.022 11.43 62.672 13.93-1.494 12.67-2.734 25.45-4.861 38.04-18.901-4.35-38.34-7.32-57.417-10.91-9.03-1.7-18.803-2.95-27.443-6.1-5.698-2.08-11.569-5.13-15.24-10.12-3.697-5.04-4.074-12.33-3.314-18.35 2.344-18.55 13.43-42.12 21.399-59.24 11.27-24.21 24.819-47.21 37.608-70.63a3105 3105 0 0 0 35.404-67.77c23.677-45.846 47.11-91.715 71.564-137.156 12.326-22.904 24.313-46.605 38.298-68.53 7.552-11.84 15.916-22.296 27.141-30.863"/><path fill="#fefefe" d="M431.889 922.219c2.213-.259 3.837-.503 5.993.297l.652 1.8c-2.416 11.517-28.998 33.27-37.761 42.536-32.869 34.758-39.096 68.698-46.793 114.128-1.707 10.08-5.439 21.36-4.885 31.59.21 3.89.995 7.15 4.136 9.72 3.42 2.8 8.217 3.45 12.478 2.93 4.164-.51 8.55-2.49 11.035-5.99 6.676-9.42 10.792-23.93 15.153-34.69 11.765-29.05 24.35-59.83 43.811-84.693 19.905-25.428 56.216-61.429 89.977-64.013 2.536-.194 3.724-.375 5.604 1.297-.334 4.191-2.657 7.785-5.029 11.159-5.554 7.9-12.821 14.749-19.104 22.097a585 585 0 0 0-35.041 44.813 268.5 268.5 0 0 0-28.493 53.62c-4.265 10.74-18.542 44.6-13.433 54.84 1.516 3.03 5.342 4.93 8.428 5.93 9.703 3.15 15.182-8.22 19.079-15.24 9.652-17.39 18.355-35.81 29.664-52.19 20.366-29.5 64.992-67.973 97.037-83.52 3.275-1.588 5.892-2.638 9.367-1.403.444.86.911 1.684 1.027 2.665 1.572 13.305-35.676 43.328-45.301 54.198-29.814 33.66-49.528 74.33-61.567 117.5-5.694 20.42-9.664 41.24-15.7 61.6-3.399 11.46-14.266 33.04-13.623 43.6 1.229 2.24 1.668 3.27 3.957 4.6 7.568 4.38 12.303-4.34 15.796-9.54 6.227-9.26 12.514-15.96 21.414-22.8 15.565-11.96 82.037-48.1 99.799-51.47 3.297-.63 4.75-.67 7.491 1.17l.298 2.58c-8.575 26.27-53.854 45.26-72.585 65.45-8.361 9.02-15.104 19.67-22.104 29.74-19.136 27.53-36.322 56.99-57.711 82.8-31.359 35.58-80.71 43.3-112.566 77.5-31.312 33.61-76.045 137.5-93.492 181.86a2020 2020 0 0 0-14.666 38.68c-2.111 5.67-3.901 12.64-6.963 17.83-.237.4-.486.8-.73 1.19-1.513.69-2.733 1.05-4.404 1.03-16.692-.23-128.04-16.39-138.044-26.33 7.198-8.66 30.225-86.2 36.136-103.62 6.853-20.2 13.968-40.47 21.934-60.26 20.038-49.77 41.714-96.86 55-149.18 15.891-62.56 23.298-126.38 32.979-190.09 3.136-20.64 5.34-41.72 9.794-62.11 10.411-47.65 34.218-100.058 76.292-127.182-4.332 13.54-10.645 26.397-16.272 39.433-6.144 14.239-11.803 28.689-17.888 42.949-5.849 13.72-12.437 27.75-15.441 42.42-3.161 15.44-2.908 32.01-.802 47.61 1.051 7.78 2.99 20.59 9.989 25.43 2.193 1.51 4.928 1.99 7.531 1.46 3.463-.7 5.217-2.98 6.705-6.01 5.326-10.87 7.235-24.97 10.349-36.72 7.194-27.14 14.135-55.28 23.373-81.77a232 232 0 0 1 24.269-50.069c17.852-27.57 51.102-54.134 83.851-61.162m476.566 92.291c4.725 1.74 8.631 4.87 11.758 8.76 12.383 15.41 34.599 67.82 37.501 87.01 4.877 32.25-7.911 57.57 13.427 87.5 5.71 8.01 14.079 15.65 24.193 17.02 3.534.48 7.496.34 10.326-2.11 1.78-1.54 2.94-3.74 3.41-6.03 1.95-9.54-.29-22.03-.91-31.72a1618 1618 0 0 0-6.45-75.79c-2.461-22.35-8.311-46.54-5.408-69.01.744-5.77 2.989-10.92 7.848-14.35 2.19-1.54 4.5-2.56 7.2-1.94 21.33 4.89 25.27 81.37 26.88 100.15 1.2 14.07 2.85 28.12 3.65 42.22.76 13.5.3 49.18 6.38 58.9 1.36 2.16 3.36 3.79 5.95 4.1 4.25.51 8.79-2.18 11.93-4.8 9.53-7.96 12.31-20.26 15.01-31.82 9.67-41.4 3.85-74.01-6.1-114.55-2.49-10.18-7.42-23.33-6.15-33.76.32-2.65.26-3 2.36-4.58 1.17.02 2.36-.01 3.5.32 6.69 1.95 12.61 12.99 15.78 18.69 21.9 39.39 26.7 88.33 24.66 132.77-.48 10.55-3.33 21.77-3.27 32.07.02 3.11.64 6.37 2.41 8.97 1.5 2.21 3.82 3.91 6.51 4.22 2.76.32 5.32-.84 7.42-2.54 4.34-3.52 7.26-9.9 9.57-14.87 22.15-47.62 12.83-102.48 20.27-153.09 30.72 34.3 13.51 113.68 5.73 154.75l-10.89 58.7c-3.89 22-6.21 44.26-9.99 66.28-5.98 34.82-14.21 69.37-15.91 104.8a327.2 327.2 0 0 0 15.2 112.42c3.42 16.78 9.47 33.73 14.7 50.04a2862 2862 0 0 0 29.51 88.18c9.08 26.36 16.43 55 28.53 80.09-7.69 12.26-51.46 29.57-65.8 34.95-36.44 13.69-76.51 19.27-115.23 21.03-6.62.3-16.56 1.69-22.54-1.02-5.08-7.75-19.754-74.88-22.981-88.13a2520 2520 0 0 0-25.164-96.85c-4.119-14.47-7.947-29.29-13.176-43.41-10.735-28.98-35.107-47.63-53.118-71.87-19.878-26.75-37.464-56.77-51.257-87.07a439.7 439.7 0 0 1-26.416-73.42c-15.689-60.68-18.034-102.9-48.009-161.21 46.109 6.6 81.259 61.73 94.255 103.32 2.285 7.31 5.711 31.75 9.67 36.12 1.585 1.75 3.288 2.88 5.722 2.89 2.341.01 4.134-1.14 5.842-2.6 4.036-3.46 6.746-19.76 8.418-25.14 6.565-21.14 13.758-41.53 18.454-63.24 5.551-25.68 6.983-52.27 9.217-78.39 2.136-24.99 5.691-51 3.37-76.04-2.588-27.92-20.574-59.32-17.905-85.87zM379.733 199.084c14.413.25 29.31 2.289 43.663 3.691a3156 3156 0 0 1 98.906 11.325l277.305 34.518a13699 13699 0 0 0 521.123 46.915l133.6 11.61c-9.25 100.629-10.27 202.332-26.27 302.276-16.52 103.179-47.03 203.937-67.58 306.324a4154 4154 0 0 0-106.43-15.906c-50.77-6.948-101.6-13.084-152.23-21.097-52.5-8.309-104.685-18.446-157.268-26.275-47.549-7.08-95.535-10.422-143.092-17.138-79.603-11.242-158.75-25.749-238.215-37.946a6796 6796 0 0 0-126.729-17.079c-35.399-4.323-71.184-8.18-106.265-14.656 1.324-50.831 1.116-101.154 5.511-151.913 11.878-3.879 22.892-7.18 30.915-17.454 4.751-6.084 7.614-13.332 9.207-20.838 3.615-17.037.051-34.204 2.477-51.1 1.506-10.492 9.88-26.997 8.801-36.39-.998-1.619-1.339-2.64-3.177-3.399-1.909-.789-4.436-.394-6.266.449-4.891 2.252-5.981 7.406-7.663 12.058-2.752 7.611-5.623 15.957-6.538 24.016-2.15 18.937 1.747 41.387-5.682 59.219-4.25 10.202-11.528 14.227-21.258 18.107 5.829-54.937 17.783-108.924 23.658-163.73a711 711 0 0 0 3.968-57.959c1.011-35.626-2.377-153.17 15.529-177.628"/><path fill="#020302" d="M530.942 332.71c10.317-.698 22.271 2.053 32.511 3.46l66.324 9.553c25.281 3.52 55.201 4.875 79.412 11.615l.425.797 1.952.13c.369 1.805.57 3.491.537 5.334-.361 20.094-4.387 41.288-6.725 61.321-2.503 21.451-3.458 46.577-8.833 67.318-.765 2.955-2.087 4.625-4.25 6.73-12.091.468-175.245-23.492-179.53-26.914-1.687-1.348-1.859-5.067-1.925-7.034-.686-20.344 9.954-108.37 15.901-125.988.87-2.577 2.35-4.378 4.201-6.322"/><path fill="#fefefe" d="m693.872 386.856.645.636c1.283 6.137-9.376 81.461-11.259 93.309-7.296-8.472-15.168-16.525-22.798-24.701l-26.594-27.694c21.454-12.926 41.22-24.84 60.006-41.55m-84.917 43.284c1.322-.05 2.717-.135 4.033.008 5.756.627 43.206 42.813 49.765 50.15a1856 1856 0 0 1-55.802-7.557c-20.204-1.364-41.281-5.326-61.363-8.213 19.805-7.259 46.009-22.337 63.367-34.388m-70.476-69.64c10.054 7.186 20.511 22.063 28.839 31.499 8.902 10.087 18.291 19.738 27.02 29.971a2296 2296 0 0 1-28.793 17.391c-12.74 7.038-26.114 13.747-39.766 18.813.77-32.209 6.801-66.01 12.7-97.674m10.356-11.463c15.639 2.812 31.738 4.4 47.487 6.583l96.178 13.338a1245 1245 0 0 1-25.226 21.145c-12.863 9.74-27.334 17.668-41.188 25.911a119 119 0 0 1-18.225-1.198 8777 8777 0 0 1-59.026-65.779"/><path fill="#020302" d="M764.096 359.071c57.713 7.814 115.857 12.089 173.476 20.95 3.868.595 9.775.984 12.175 4.253 2.418 17.012-13.705 123.928-22.443 140.499-.864.418-.61.33-1.737.67a11.7 11.7 0 0 1-4.047.464c-13.112-.913-172.425-23.983-177.917-27.179-1.922-14.599 2.334-32.128 4.091-46.815 3.247-27.144 5.967-54.801 10.871-81.692.88-4.826 1.279-8.191 5.531-11.15"/><path fill="#fefefe" d="M778.437 375.966c19.475.028 40.081 3.43 59.41 5.745 30.563 3.661 61.598 7.101 91.848 12.853-8.183 7.642-17.452 14.246-26.621 20.636-18.821 11.627-42.014 22.929-64.097 25.701a282.7 282.7 0 0 1-60.54-64.935"/><path fill="#fefefe" d="M770.561 391.604c5.445 3.742 10.627 12.826 15.009 17.978 9.258 10.888 39.568 44.255 53.86 45.562 7.838.717 15.983-2.262 23.288-4.767 27.059-9.282 48.353-22.246 70.792-39.772a860 860 0 0 1-8.678 60.211 754 754 0 0 1-7.528 40.207c-20.812-4.321-42.313-6.68-63.373-9.621l-95.401-13.753c2.375-31.899 7.031-64.451 12.031-96.045"/><path fill="#020302" d="M741.71 535.007c16.855-.401 35.345 4.034 52.115 6.285a2762 2762 0 0 1 86.096 12.318c10.916 1.773 23.396 2.727 33.748 6.564 5.911 11.223-6.739 93.609-9.677 109.701-1.897 10.391-6.072 39.321-14.676 45.254-18.521-1.853-165.889-21.946-173.496-29.899-.651-12.62 3.859-27.081 5.519-39.695 4.179-31.751 6.882-64.208 12.772-95.694 1.202-6.424 1.935-10.944 7.599-14.834"/><path fill="#fefefe" d="M749.445 550.066c15.017 2.684 30.5 4.033 45.647 6.08 35.212 4.759 70.267 9.563 105.119 16.565-1.003 40.859-7.586 86.831-18.165 126.254-18.123-4.151-44.301-5.668-63.52-8.382-29.111-4.113-57.933-10.078-87.074-13.967 6.398-42.147 11.171-84.458 17.993-126.55"/><path fill="#020302" d="M507.035 507.204a1537 1537 0 0 1 69.848 5.533c13.704 1.505 106.619 12.396 109.825 17.923 4.337 7.481-8.659 98.572-10.901 113.367-1.436 9.473-3.001 33.056-11.026 38.965-10.574-.396-21.767-2.939-32.276-4.498l-63.348-9.356a3888 3888 0 0 0-49.663-7.037c-9.639-1.289-20.087-1.906-29.476-4.295-2.148-.547-3.847-1.451-4.969-3.416-3.873-6.788 12.536-124.065 16.571-139.44.995-3.791 2-5.717 5.415-7.746"/><path fill="#fefefe" d="M515.39 521.865c21.653.52 43.276 3.367 64.749 6.037a1410 1410 0 0 1 91.666 13.639c-.246 39.855-8.097 85.959-14.897 125.454-23.91-3.742-48.067-6.502-72.036-9.976-28.381-4.115-56.684-8.913-85.139-12.478.57-20.652 3.91-41.606 6.496-62.093 2.523-19.983 4.411-41.025 9.161-60.583"/><path fill="#020302" d="M560.897 552.75c1.214.058 2.43.142 3.619.413 6.65 1.517 16.112 19.151 19.945 24.907 7.075-4.915 17.227-16.042 25.636-17.501 2.977-.516 3.99.195 6.331 1.746.984 2.049 1.693 3.009 1.362 5.412-1.101 7.985-18.304 17.485-24.818 22.155 4.551 6.017 14.354 16.659 14.426 24.434.024 2.666-.932 3.553-2.724 5.338-3.314 1.168-5.487 1.317-8.959.818a559 559 0 0 0-14.952-21.083c-7.69 5.487-20.696 17.982-29.672 19.722-3.736.724-6.222.06-9.244-2.126-.668-1.556-1.139-1.943-.796-3.685 1.635-8.305 24.356-20.924 31.723-25.912-5.739-8.054-14.172-17.473-16.059-27.377.409-3.424 1.871-4.806 4.182-7.261M1077.2 385.017c25.09 1.431 166.64 13.073 182.74 21.59 1.71.906 2.97 1.229 3.43 3.227 1.52 6.642-14.49 121.265-17.06 134.237-1.24 6.312-2.18 12.682-5.8 18.13-10.07.545-21.16-1.699-31.2-2.961a2440 2440 0 0 1-82.33-12.227c-19.98-3.121-40.73-4.669-60.5-8.547-3.65-.716-8.13-1.457-11.15-3.74-1.14-2.468-1.05-4.692-.87-7.341.83-12.61 3.2-25.51 4.92-38.068 3.78-27.634 7.89-55.086 11.2-82.79.83-6.943.79-16.925 6.62-21.51"/><path fill="#fefefe" d="M1086.44 400.897c21.06.411 42.41 3.553 63.36 5.691 32.33 3.297 64.66 6.149 96.72 11.592-2.87 42.869-9.06 85.857-16.07 128.227-53.52-4.914-106.54-15.718-159.93-22.084 3.88-41.255 11.62-82.189 15.92-123.426"/><path fill="#020302" d="M1151.63 427.18a55 55 0 0 1 3.85-.21c10.25-.262 21.71 3.094 29.16 10.408 5.87 5.761 9.02 14.036 9.1 22.21.14 15.921-9.7 28.133-20.36 38.758 2 4.802 4.6 11.015 3.37 16.252-.48 2.053-1.48 3.419-3.25 4.558-3.35 2.154-8.02.756-11.64.012-3.1-1.195-7.72-4.532-11.02-4.276-4.24.327-7.64 4.13-12.11 1.738-19.31-10.336-3.32-20.185-5.7-27.129-1.66-4.815-7.63-8.682-9.38-14.156-2.99-9.378-2.37-19.955 2.23-28.707 5.6-10.65 14.58-16.067 25.75-19.458"/><path fill="#fefefe" d="M1152.17 442.051c2.24-.17 4.44-.168 6.68-.017 5.96.401 12.3 2.611 16.11 7.407 3.16 3.989 3.95 9.022 3.11 13.955-1.56 9.228-8.22 17.153-15.67 22.377-2.64.728-4.75.932-7.44.294-5.94-1.408-11.11-5.045-14.16-10.352-3.4-5.907-4.58-12.718-2.48-19.303 2.35-7.414 7.33-10.979 13.85-14.361"/><path fill="#020302" d="M1047.16 576.894c25.61-.705 165.71 11.771 182.82 20.859.8 1.561 1.07 2.923 1.25 4.644 2.4 22.031-14.19 142.57-26.61 158.166-2.56.781-4.77 1.094-7.45.812-30.08-3.161-60.3-9.303-90.31-13.454-16.6-2.296-67.78-6.582-79.37-10.966-5.39-2.037-2.26-1.898-4.03-5.603l-.15.496c.6-29.853 7.75-60.848 12.09-90.395 2.51-17.056 4.6-43.649 9.04-59.512.56-1.983 1.38-3.504 2.72-5.047"/><path fill="#fefefe" d="M1058 591.803c13.04.097 26.36 1.719 39.36 2.796a1197 1197 0 0 1 118.61 15.386c-1.9 17.925-2.72 35.927-5.04 53.823-3.54 27.281-9.16 54.089-14.87 80.975-8 1.162-34.3-4.134-44.01-5.458a4704 4704 0 0 0-113.58-15.059c1.61-19.643 5.6-39.445 8.76-58.902a2404 2404 0 0 0 10.77-73.561"/><path fill="#020302" d="M1089.73 614.024c14.79.959 84.12 11.34 93.62 17.947.95 1.878 1.45 3.394 1.58 5.516.69 11.593-10.09 66.711-17.43 75.034-10.34 1.869-85.59-10.984-93.79-16.251-2.53-7.63 5.74-65.724 8.98-74.788 1.49-4.183 3.1-5.486 7.04-7.458"/></svg>