<svg version="1.1" xmlns="http://www.w3.org/2000/svg" style="display: block;" viewBox="0 0 1536 2048" width="1024" height="1365">
<path transform="translate(0,0)" fill="rgb(254,254,254)" d="M 0 0 L 1536 0 L 1536 2046.25 C 1535.32 2046.64 1534.57 2047.12 1533.81 2047.38 C 1526.81 2049.75 1466.36 2048 1454.87 2048 L 1215.47 2048.02 L 24.3373 2048 C 17.701 2048 5.68581 2049.5 0 2046.25 L 0 0 z"/>
<path transform="translate(0,0)" fill="rgb(2,3,2)" d="M 375.786 185.162 C 391.498 184.379 407.839 186.546 423.464 188.179 A 5583.94 5583.94 0 0 1 492.508 195.989 A 15166.4 15166.4 0 0 1 755.276 228.551 A 10305.6 10305.6 0 0 0 1217.39 272.599 A 12127.1 12127.1 0 0 1 1371.64 285.363 L 1430.83 290.164 C 1440.33 290.926 1450.03 291.126 1459.47 292.4 C 1462.91 292.864 1465.81 293.604 1468.65 295.698 C 1473.16 306.364 1466.85 359.579 1465.79 374.048 C 1460.01 452.508 1455.95 539.399 1442.62 616.306 C 1426.86 707.258 1400.83 796.051 1384.88 886.929 C 1373.93 949.333 1367.47 1012.53 1359.63 1075.38 C 1353.05 1128.08 1344.27 1180.42 1336.06 1232.87 C 1329.12 1277.14 1324.86 1321.77 1315.2 1365.6 C 1310.99 1384.71 1304.32 1402.78 1299.13 1421.56 C 1295.08 1436.2 1293.78 1459.11 1280.42 1468.78 C 1273.39 1473.87 1263.85 1475.62 1255.35 1475.68 C 1236.93 1475.81 1217.69 1470.25 1199.61 1466.96 C 1180.54 1463.49 1161.28 1460.75 1142.12 1457.81 C 1141.6 1505.03 1158 1554.17 1172.38 1598.68 C 1182.28 1629.33 1192.08 1660.11 1202.66 1690.53 C 1211.09 1714.77 1220.57 1738.98 1227.87 1763.57 C 1228.77 1766.59 1232.27 1778.28 1230.72 1780.66 C 1226.68 1786.84 1217.71 1791.17 1211.45 1794.74 C 1179.23 1813.11 1143.9 1827.28 1107.42 1834.58 C 1089.97 1838.08 1011.44 1849.95 998.369 1841.32 C 993.5 1834.67 967.914 1724.23 963.644 1707.35 C 955.057 1673.4 946.844 1638.53 935.506 1605.39 C 926.427 1578.85 907.598 1566.81 891.706 1545.53 C 873.964 1521.78 857.389 1496.9 843.823 1470.5 C 834.715 1452.98 826.639 1435.39 819.267 1417.07 C 786.325 1411.88 753.529 1407.73 720.772 1401.13 C 689.53 1394.82 658.783 1386.21 627.494 1380.07 C 578.697 1370.5 529.57 1362.83 480.71 1353.65 C 469.811 1367.4 458.474 1380.97 444.082 1391.22 C 409.354 1415.95 370.551 1422.23 344.668 1460.01 C 319.222 1497.14 294.827 1551.25 277.235 1593.56 A 3542.83 3542.83 0 0 0 252.867 1654.59 C 249.032 1664.73 246.038 1675.29 241.666 1685.2 C 240.664 1687.47 238.866 1691.57 236.742 1692.89 C 228.754 1697.84 175.873 1689.15 164.425 1687.28 C 147.063 1684.44 129.787 1680.44 112.549 1676.9 C 101.217 1674.57 88.8033 1672.92 77.8775 1669.22 C 73.8707 1667.86 68.8273 1665.82 66.4318 1662.18 C 61.8782 1655.27 75.4602 1627.96 78.2417 1619.52 C 92.547 1576.07 106.573 1532.27 123.092 1489.6 C 137.353 1452.77 154.253 1417.12 167.482 1379.85 C 174.984 1358.71 181.104 1336.42 185.754 1314.47 C 161.586 1308.21 105.624 1307.08 90.1738 1288.67 C 79.944 1276.49 82.5846 1254.87 81.2273 1240.08 C 80.3095 1230.08 77.7768 1220.46 78.4656 1210.3 C 79.5488 1194.32 94.4831 1162.43 101.49 1147.44 C 120.646 1106.46 144.419 1067.49 164.909 1027.15 L 227.914 905.583 C 246.51 869.764 268.46 826.387 290.486 793.085 C 297.183 782.958 305.839 774.971 314.87 767.004 C 316.4 748.135 315.549 728.835 315.937 709.899 A 3758.36 3758.36 0 0 1 319.473 619.277 L 276.519 634.597 C 274.059 663.168 276.075 714.339 265.218 738.854 C 260.342 749.864 252.327 756.384 241.132 760.616 C 212.861 771.302 165.106 768.689 137.719 756.082 C 129.685 752.384 121.601 746.55 118.701 737.8 C 116.403 730.867 118.086 723.984 121.42 717.746 C 137.389 687.858 233.277 637.545 266.019 623.175 C 283.981 615.292 302.474 609.039 321.215 603.301 C 323.887 579.904 325.607 556.596 329.257 533.28 C 334.9 497.233 342.623 461.663 346.15 425.284 C 348.662 399.366 349.302 372.994 349.777 346.965 C 350.475 308.714 348.874 232.771 361.791 200.098 C 364.709 192.719 368.499 188.367 375.786 185.162 z"/>
<path transform="translate(0,0)" fill="rgb(254,254,254)" d="M 282.215 1086.94 C 283.507 1087.17 284.83 1087.37 286.098 1087.71 C 288.679 1088.39 288.91 1088.78 290.162 1091.15 C 290.593 1096.4 287.115 1102.71 285.126 1107.59 L 283.85 1109.47 L 282.769 1109.06 C 280.685 1101.99 281.308 1094.15 282.215 1086.94 z"/>
<path transform="translate(0,0)" fill="rgb(254,254,254)" d="M 1130.71 1150.84 C 1133.21 1151.41 1133.84 1151.33 1135.65 1153.26 C 1138.19 1164.02 1133.64 1177.36 1130.87 1187.84 L 1130.03 1189.09 L 1129.38 1188.73 C 1130.26 1176.1 1130.45 1163.48 1130.71 1150.84 z"/>
<path transform="translate(0,0)" fill="rgb(254,254,254)" d="M 292.288 939.324 L 313.615 944.144 C 305.427 948.005 298.535 952.179 291.844 958.326 C 287.602 962.6 283.223 966.75 278.906 970.949 C 283.65 960.558 287.857 949.856 292.288 939.324 z"/>
<path transform="translate(0,0)" fill="rgb(254,254,254)" d="M 475.776 1037.63 C 479.264 1038.3 482.37 1038.99 485.643 1040.45 C 484.141 1045.02 477.145 1050.63 474.06 1054.8 C 467.399 1063.81 462.32 1073.76 457.123 1083.65 C 455.482 1087 453.112 1090.01 450.966 1093.06 C 456.725 1074.14 464.779 1054.14 475.776 1037.63 z"/>
<path transform="translate(0,0)" fill="rgb(254,254,254)" d="M 494.78 1190.93 C 503.445 1193.34 512.437 1194.85 521.253 1196.64 A 549.627 549.627 0 0 0 501.978 1208.8 C 496.365 1212.69 491.12 1216.87 485.856 1221.21 C 488.288 1210.93 491.52 1200.96 494.78 1190.93 z"/>
<path transform="translate(0,0)" fill="rgb(254,254,254)" d="M 311.046 1012.73 C 312.383 1013.84 313.028 1014.58 313.761 1016.17 C 310.976 1023.7 296.97 1070.59 295.398 1072.8 C 294.571 1073.97 292.142 1073.98 290.766 1074.24 C 289.084 1073.39 288.182 1072.85 287.077 1071.31 C 288.018 1061.91 305.775 1022.46 311.046 1012.73 z"/>
<path transform="translate(0,0)" fill="rgb(254,254,254)" d="M 1056.24 1138.22 C 1061.07 1139.07 1066.04 1139.42 1070.91 1139.93 C 1070.43 1153.74 1068.51 1167.14 1066.42 1180.78 C 1065.92 1182.06 1065.13 1182.7 1064.18 1183.68 C 1061.65 1183.55 1061.62 1183.29 1059.69 1181.59 C 1055.43 1173.13 1056.67 1148.72 1056.24 1138.22 z"/>
<path transform="translate(0,0)" fill="rgb(254,254,254)" d="M 332.43 948.503 C 339.836 949.158 347.243 950.449 354.604 951.507 C 343.346 963.556 333.984 975.974 326.151 990.54 C 324.896 993.16 323.633 996.385 321.634 998.507 C 320.301 999.922 319.724 1000.33 317.859 1000.44 C 316.704 990.929 332.416 966.472 332.43 948.503 z"/>
<path transform="translate(0,0)" fill="rgb(254,254,254)" d="M 1119.38 1076.45 C 1125.61 1077.5 1131.71 1078.97 1137.85 1080.47 A 1005.13 1005.13 0 0 1 1136.78 1136.68 C 1134.4 1137.15 1133.34 1137.33 1130.96 1136.48 C 1128.18 1131.53 1126.79 1109.49 1125.46 1102.35 A 264.374 264.374 0 0 0 1119.38 1076.45 z"/>
<path transform="translate(0,0)" fill="rgb(254,254,254)" d="M 1049.46 1064.42 C 1052.78 1064.95 1055.81 1065.67 1058.99 1066.75 C 1064.66 1075.77 1067.81 1113.39 1069.15 1125.31 L 1054.96 1122.42 C 1052.07 1103.36 1051.05 1083.64 1049.46 1064.42 z"/>
<path transform="translate(0,0)" fill="rgb(254,254,254)" d="M 223.675 1083.77 C 224.871 1090.44 215.58 1133.85 213.883 1144.08 L 194.262 1139.49 L 191.049 1138.68 L 190.371 1137.25 C 197.403 1120.82 213.13 1098.69 223.675 1083.77 z"/>
<path transform="translate(0,0)" fill="rgb(254,254,254)" d="M 859.526 1256.89 A 375.743 375.743 0 0 0 895.691 1263.3 L 886.355 1297 C 885.121 1300.81 883.636 1304.53 882.208 1308.26 C 876.169 1290.14 868.492 1273.73 859.526 1256.89 z"/>
<path transform="translate(0,0)" fill="rgb(254,254,254)" d="M 382.617 1022.26 C 388.781 1023.37 394.887 1025.22 400.948 1026.8 C 393.269 1042.56 386.403 1058.45 379.98 1074.76 C 378.885 1077.94 378.111 1081.77 375.459 1083.98 C 373.064 1083.91 371.63 1083.87 369.56 1082.47 C 366.708 1072.53 378.72 1034 382.617 1022.26 z"/>
<path transform="translate(0,0)" fill="rgb(254,254,254)" d="M 903.186 1114.04 C 906.119 1113.95 908.46 1113.64 911.035 1115.21 C 913.844 1124.34 908.562 1158.92 907.799 1170.56 L 891.234 1168.63 C 888.334 1167.8 884.836 1167.62 881.824 1167.17 C 889.27 1149.61 896.103 1131.74 903.186 1114.04 z"/>
<path transform="translate(0,0)" fill="rgb(254,254,254)" d="M 973.781 1121.4 C 978.664 1121.71 983.451 1122.52 988.277 1123.29 C 990.648 1143.52 992.98 1164.72 993.105 1185.05 C 988.621 1184.64 982.214 1185.11 979.161 1181.44 C 969.753 1170.1 972.889 1136 973.781 1121.4 z"/>
<path transform="translate(0,0)" fill="rgb(254,254,254)" d="M 432.614 957.124 C 438.245 958.878 444.618 959.537 450.44 960.608 C 434.88 977.271 422.088 994.269 408.893 1012.75 C 402.102 1011.48 395.347 1009.8 388.598 1008.3 C 399.287 987.964 416.099 972.62 432.614 957.124 z"/>
<path transform="translate(0,0)" fill="rgb(254,254,254)" d="M 949.831 1044.65 C 960.055 1046.89 970.457 1048.58 980.732 1050.61 C 982.332 1070.26 985.163 1089.78 986.597 1109.45 L 972.922 1107.66 C 968.512 1085.77 958.609 1065.08 949.831 1044.65 z"/>
<path transform="translate(0,0)" fill="rgb(254,254,254)" d="M 526.683 970.745 A 803.584 803.584 0 0 1 559.35 976.84 C 540.249 985.471 522.717 1002.57 507.591 1016.82 L 497.751 1026.61 C 493.217 1025.65 488.59 1025.09 484.007 1024.42 C 497.637 1006.11 511.302 987.638 526.683 970.745 z"/>
<path transform="translate(0,0)" fill="rgb(254,254,254)" d="M 1164.23 1301.45 C 1173.53 1302.58 1182.84 1304.32 1192.1 1305.79 A 2611.18 2611.18 0 0 1 1180.35 1351.76 C 1179.92 1352.75 1180.21 1352.36 1179.24 1353.15 C 1176.5 1355.37 1159.96 1352.23 1155.91 1351.74 C 1159.27 1335.17 1161.43 1318.15 1164.23 1301.45 z"/>
<path transform="translate(0,0)" fill="rgb(254,254,254)" d="M 422.485 894.387 C 444.918 896.969 467.85 900.44 490.039 904.615 C 481.803 919.908 471.123 934.678 460.55 948.436 C 456.626 949.671 447.286 946.155 443.226 945.127 L 446.328 940.8 C 450.72 934.59 455.723 926.857 454.011 918.832 C 453.18 914.938 450.665 911.97 447.212 910.076 C 436.095 903.977 421.97 909.099 410.794 912.333 L 422.485 894.387 z"/>
<path transform="translate(0,0)" fill="rgb(254,254,254)" d="M 1175.69 1233.79 A 911.805 911.805 0 0 1 1205.99 1237.26 C 1203.05 1255.2 1200.15 1273.11 1195.82 1290.77 C 1187.22 1291.95 1175.25 1288.51 1166.45 1287.37 C 1168.83 1269.48 1172.95 1251.67 1175.69 1233.79 z"/>
<path transform="translate(0,0)" fill="rgb(254,254,254)" d="M 1188.91 1162.93 C 1199.21 1163.82 1209.55 1164.39 1219.86 1165.09 C 1215.39 1183.95 1211.78 1202.66 1208.56 1221.78 C 1204.79 1223.34 1183.52 1219.36 1178.28 1218.72 A 650.556 650.556 0 0 0 1188.91 1162.93 z"/>
<path transform="translate(0,0)" fill="rgb(254,254,254)" d="M 506.224 907.623 C 531.702 910.716 557.802 916.732 583.043 921.612 C 577.764 935.537 570.716 948.937 564.437 962.445 L 555.753 960.723 L 537.498 957.383 C 539.767 954.403 542.221 951.029 543.748 947.605 C 545.997 942.562 546.323 935.608 544.11 930.497 C 542.494 926.763 539.475 923.98 535.702 922.509 C 522.219 917.253 504.603 925.771 492.146 930.727 C 496.385 922.756 501.366 915.224 506.224 907.623 z"/>
<path transform="translate(0,0)" fill="rgb(254,254,254)" d="M 181.605 1151.7 A 2280.97 2280.97 0 0 1 211.386 1157.75 L 204.358 1206.47 C 199.462 1205.29 194.512 1204.29 189.59 1203.22 C 178.867 1201.1 167.981 1199.62 157.213 1197.7 A 549.685 549.685 0 0 1 181.605 1151.7 z"/>
<path transform="translate(0,0)" fill="rgb(254,254,254)" d="M 1080.09 1007.69 C 1105.81 1012.3 1132.31 1015.39 1157.68 1021.5 C 1151.89 1034.24 1147.06 1038.07 1138.87 1048.4 C 1137.08 1053.52 1136.39 1058.7 1135.62 1064.05 C 1128.48 1062.55 1121.28 1061.33 1114.11 1060.02 C 1107.92 1048.44 1101.26 1033.49 1091.75 1024.33 C 1088.08 1020.79 1082.46 1017.89 1078.11 1015.13 C 1077.35 1013.15 1079.29 1009.74 1080.09 1007.69 z"/>
<path transform="translate(0,0)" fill="rgb(254,254,254)" d="M 1188.16 1084.72 C 1204.14 1085.88 1220.4 1089.66 1235.97 1093.31 L 1225.81 1137.9 L 1222.97 1149.35 A 516.072 516.072 0 0 0 1190.61 1148.04 C 1191.51 1126.36 1191.13 1106.23 1188.16 1084.72 z"/>
<path transform="translate(0,0)" fill="rgb(254,254,254)" d="M 877.007 1180.78 C 886.895 1182.02 896.782 1183.84 906.635 1185.37 C 905.202 1206.9 903.027 1228.34 898.514 1249.46 L 888.862 1247.28 C 877.334 1245.15 865.736 1243.19 854.371 1240.29 C 860.968 1220.35 868.911 1200.15 877.007 1180.78 z"/>
<path transform="translate(0,0)" fill="rgb(254,254,254)" d="M 862.645 971.334 C 885.853 974.257 908.912 977.204 931.833 981.974 A 207.184 207.184 0 0 1 921.679 1004.09 C 914.187 1000.35 908.808 998.762 900.55 1001.51 C 900.37 1001.67 900.188 1001.82 900.009 1001.98 C 893.645 1007.6 892.646 1012.91 892.083 1020.97 A 1105.88 1105.88 0 0 0 846.059 1013.1 C 852.038 999.525 858.086 985.444 862.645 971.334 z"/>
<path transform="translate(0,0)" fill="rgb(254,254,254)" d="M 780.806 1164.33 C 807.854 1168.56 834.301 1174.87 861.559 1178.39 A 1572.9 1572.9 0 0 0 844.955 1224.35 L 842.857 1230.1 L 841.246 1230.29 C 838.192 1228.47 836.774 1225.68 834.56 1223.01 C 831.202 1218.95 826.794 1215.5 822.795 1212.07 C 806.751 1198.35 792.451 1190.77 771.213 1188.99 C 774.055 1180.6 776.946 1172.31 780.806 1164.33 z"/>
<path transform="translate(0,0)" fill="rgb(254,254,254)" d="M 609.739 984.927 C 623.186 988.238 636.857 990.714 650.441 993.397 C 640.568 1012.52 630.035 1031.29 620.653 1050.66 L 610.59 1048.77 C 595.406 1045.89 580.319 1042.9 565.279 1039.32 C 582.313 1021.83 601.074 1008.82 609.739 984.927 z"/>
<path transform="translate(0,0)" fill="rgb(254,254,254)" d="M 693.286 942.796 C 715.974 947.498 739.169 950.104 761.715 955.408 C 755.365 968.391 749.548 981.71 742.792 994.481 C 719.477 991.783 696.169 986.499 673.017 982.523 C 678.501 968.853 686.254 955.735 693.286 942.796 z"/>
<path transform="translate(0,0)" fill="rgb(254,254,254)" d="M 776.924 957.65 C 800.038 961.771 823.308 965 846.448 968.986 C 844.062 976.87 834.901 1006.74 828.772 1010.04 C 805.248 1005.42 781.505 1001.65 757.868 997.644 C 764.207 984.325 771.7 971.468 776.924 957.65 z"/>
<path transform="translate(0,0)" fill="rgb(254,254,254)" d="M 946.751 985.739 C 958.794 986.95 971.068 989.871 983.058 991.793 C 1010.27 996.155 1037.3 1000.36 1064.37 1005.6 C 1061.97 1014.17 1056.38 1021.13 1054.07 1029.27 C 1052.46 1034.94 1053.37 1042.85 1053.49 1048.72 C 1051.87 1049.86 1051.79 1049.74 1049.78 1049.6 C 1043.94 1045.5 1042.45 1031.99 1040.19 1025.29 C 1039.01 1022.19 1037.52 1019.28 1035.84 1016.43 C 1031.41 1008.9 1024.58 1002.48 1015.9 1000.4 C 1009.16 998.8 1001.68 999.937 995.824 1003.67 C 984.902 1010.64 982.067 1023.55 979.743 1035.35 C 968.243 1032.91 956.114 1030.83 944.416 1029.73 L 934.541 1015.49 A 1782.2 1782.2 0 0 0 946.751 985.739 z"/>
<path transform="translate(0,0)" fill="rgb(254,254,254)" d="M 597.959 924.723 A 2310.27 2310.27 0 0 1 677.023 939.462 C 671.765 951.908 665.04 967.482 657.178 978.436 L 654.63 978.708 C 640.329 975.195 625.471 973.492 611.025 970.413 C 608.776 966.746 606.454 961.808 602.549 959.707 C 596.451 956.428 585.472 962.175 579.201 963.981 C 586.271 951.108 593.189 938.664 597.959 924.723 z"/>
<path transform="translate(0,0)" fill="rgb(254,254,254)" d="M 553.804 1053.03 A 1255.81 1255.81 0 0 0 613.711 1063.62 C 609.205 1071.26 591.735 1109.89 586.898 1112.41 C 566.218 1107.35 544.939 1103.84 524.062 1099.56 C 532.292 1083.06 541.922 1067.16 553.804 1053.03 z"/>
<path transform="translate(0,0)" fill="rgb(254,254,254)" d="M 1172.17 1022.53 A 2151.47 2151.47 0 0 1 1249.58 1030.87 C 1247.54 1046.81 1243.31 1062.16 1239.28 1077.7 C 1238.9 1078.51 1238.28 1078.8 1237.57 1079.32 C 1219.98 1073.51 1202.46 1071.41 1184.22 1068.93 C 1178.75 1058.05 1172.89 1048.9 1164.85 1039.73 L 1172.17 1022.53 z"/>
<path transform="translate(0,0)" fill="rgb(254,254,254)" d="M 598.39 1129.46 C 622.273 1134.89 646.574 1138.72 670.57 1143.71 C 667.521 1151.36 646.98 1199.31 643.229 1202.35 C 642.218 1203.17 639.107 1202.48 637.776 1202.38 C 630.644 1200.88 623.595 1200.09 616.357 1199.39 C 620.333 1191.33 625.542 1180.6 622.183 1171.52 C 620.779 1167.72 617.925 1164.88 614.243 1163.27 C 602.335 1158.05 588.146 1165.15 577.149 1169.67 C 583.93 1156.13 591.279 1142.83 598.39 1129.46 z"/>
<path transform="translate(0,0)" fill="rgb(254,254,254)" d="M 628.504 1066.85 C 652.354 1069.29 676.696 1075.1 700.13 1080.15 C 692.845 1096.65 684.988 1113.06 677.318 1129.39 C 653.018 1124.07 628.313 1120.36 603.92 1115.43 C 611.133 1098.99 619.942 1082.64 628.504 1066.85 z"/>
<path transform="translate(0,0)" fill="rgb(254,254,254)" d="M 517.734 1113.9 C 538.573 1118.95 560.478 1121.89 581.577 1125.87 C 573.168 1143.8 564.336 1161.39 556.303 1179.51 C 552.279 1181.49 548.187 1183.35 544.128 1185.26 C 528.356 1182.85 512.712 1178.9 496.814 1177.48 C 501.372 1155.84 509.886 1134.56 517.734 1113.9 z"/>
<path transform="translate(0,0)" fill="rgb(254,254,254)" d="M 715.402 1082.92 C 740.4 1089.08 766.095 1092.63 791.499 1096.73 C 785.302 1111.49 778.604 1133.97 770.714 1147.13 A 7133.34 7133.34 0 0 0 692.767 1132.05 C 699.895 1115.52 707.764 1099.23 715.402 1082.92 z"/>
<path transform="translate(0,0)" fill="rgb(254,254,254)" d="M 325.777 876.893 C 352.765 882.127 380.514 885.224 407.18 891.679 C 398.952 903.066 391.256 914.128 385.019 926.743 L 376.531 932.267 L 367.474 938.848 C 345.567 936.398 321.839 931.028 300.481 925.539 C 309.74 909.725 317.382 893.155 325.777 876.893 z"/>
<path transform="translate(0,0)" fill="rgb(254,254,254)" d="M 665.58 996.677 C 689.042 998.75 712.762 1004.81 736.05 1008.55 C 728.063 1028.04 716.161 1046.55 707.158 1065.71 A 2425.12 2425.12 0 0 0 635.84 1052.96 C 645.342 1033.99 656.048 1015.64 665.58 996.677 z"/>
<path transform="translate(0,0)" fill="rgb(254,254,254)" d="M 807.566 1099.75 C 834.273 1103.59 860.908 1108.33 887.571 1112.51 A 1624.5 1624.5 0 0 1 865.911 1164.53 A 864.313 864.313 0 0 1 785.962 1149.45 C 790.956 1132.87 799.738 1115.22 807.566 1099.75 z"/>
<path transform="translate(0,0)" fill="rgb(254,254,254)" d="M 841.57 1027.35 C 859.054 1029.9 876.732 1033.51 894.015 1037.21 C 896.341 1049.42 900.874 1061.32 904.818 1073.08 C 901.861 1081.84 898.27 1090.15 894.474 1098.57 L 878.17 1095.87 C 856.781 1093.22 835.414 1088.94 814.156 1085.34 C 821.033 1067.78 831.355 1042.66 841.57 1027.35 z"/>
<path transform="translate(0,0)" fill="rgb(254,254,254)" d="M 751.997 1011.66 A 3016.8 3016.8 0 0 0 824.444 1024.12 C 820.933 1032.63 801.611 1080.16 796.769 1082.76 C 771.695 1079.26 746.575 1074.39 721.803 1069.14 C 731.04 1049.69 741.955 1030.73 751.997 1011.66 z"/>
<path transform="translate(0,0)" fill="rgb(254,254,254)" d="M 686.407 1145.91 L 765.52 1161.5 C 760.855 1172.21 748.257 1212.81 743.734 1218.57 L 740.742 1218.55 C 713.541 1214.38 685.984 1210.88 659.037 1205.35 C 667.712 1185.38 677.357 1165.72 686.407 1145.91 z"/>
<path transform="translate(0,0)" fill="rgb(254,254,254)" d="M 258.433 642.81 L 260.204 643.435 C 261.406 652.547 256.607 718.545 253.21 728.363 C 250.425 736.409 245.173 742.544 237.371 746.144 C 214.474 756.707 168.665 752.483 145.584 743.792 C 141.652 741.792 136.474 739.499 134.291 735.472 C 132.822 732.76 132.913 729.306 133.899 726.454 C 142.391 701.87 232.593 655.45 258.433 642.81 z"/>
<path transform="translate(0,0)" fill="rgb(254,254,254)" d="M 536.028 1269.49 L 708.444 1299.99 C 736.325 1304.82 764.673 1308.43 792.341 1314.26 A 2985.14 2985.14 0 0 1 799.797 1353.65 L 784.775 1351 L 515.778 1299.92 C 521.846 1289.47 529.261 1279.52 536.028 1269.49 z"/>
<path transform="translate(0,0)" fill="rgb(254,254,254)" d="M 604.217 1212.93 C 633.397 1216.83 662.506 1221.79 691.594 1226.34 C 717.828 1230.44 744.331 1234.06 770.358 1239.32 C 778.503 1258.17 783.129 1278.81 788.069 1298.69 A 1711.37 1711.37 0 0 0 742.752 1290.55 C 709.26 1286.07 675.861 1279.04 642.601 1273.07 C 610.859 1267.38 578.902 1262.68 547.372 1255.87 C 564.052 1239.26 586.203 1228.25 604.217 1212.93 z"/>
<path transform="translate(0,0)" fill="rgb(254,254,254)" d="M 325.389 778.961 C 353.595 786.499 389.509 789.126 418.774 793.029 A 7070.63 7070.63 0 0 1 598.625 817.618 C 667.672 827.926 736.271 840.859 805.417 850.57 C 854.812 857.506 904.605 861.04 953.967 868.621 C 1014.29 877.885 1074.04 890.234 1134.42 899.204 C 1209.26 910.323 1284.66 917.666 1359.41 929.606 C 1356.9 946.601 1355.77 964.06 1354.01 981.159 A 3690.89 3690.89 0 0 1 1341.71 1094.62 C 1335.41 1144.51 1324.96 1193.84 1317.55 1243.59 C 1308.3 1305.64 1302.73 1357.19 1283.22 1417.6 C 1235.72 1426.92 1193.18 1410.99 1146.73 1405.25 C 1148.36 1392.57 1150.45 1380.06 1152.77 1367.49 C 1167.43 1370.04 1217.06 1378.8 1229.14 1372.77 C 1231.06 1370.19 1232.08 1367.35 1232.85 1364.25 C 1234.82 1356.29 1235.75 1347.99 1237.58 1339.96 C 1241.82 1321.4 1246.54 1302.93 1250.26 1284.27 C 1260.53 1232.8 1268.17 1180.79 1276.21 1128.94 C 1281.65 1093.84 1289.76 1057.19 1291.03 1021.68 C 1291.35 1012.69 1292.06 1002.85 1287.08 994.996 C 1278.1 980.827 1255.93 976.852 1240.76 973.37 C 1204.21 966.742 1166.7 965.654 1129.94 960.042 C 1106.15 956.411 1083.02 950.476 1059.5 945.546 A 1938.72 1938.72 0 0 0 950.659 925.716 A 2222.09 2222.09 0 0 0 830.857 910.318 C 793.999 906.48 757.139 903.764 720.478 898.138 C 676.017 891.315 632.904 878.897 588.97 869.608 C 529.067 856.944 469.029 847.615 408.359 839.552 C 385.127 836.465 350.738 829.001 328.627 835.551 C 311.236 840.701 298.974 869.703 290.915 884.888 C 272.713 919.189 257.048 954.768 240.216 989.732 C 219.809 1032.12 198.572 1073.96 178.95 1116.75 A 2336.19 2336.19 0 0 1 154.352 1169.08 C 149.543 1179.09 143.972 1189.2 139.971 1199.55 C 138.923 1202.26 138.728 1203.88 139.578 1206.66 C 146.1 1212.58 190.6 1218.09 202.25 1220.59 C 200.756 1233.26 199.516 1246.04 197.389 1258.63 C 178.488 1254.28 159.049 1251.31 139.972 1247.72 C 130.942 1246.02 121.169 1244.77 112.529 1241.62 C 106.831 1239.54 100.96 1236.49 97.2894 1231.5 C 93.592 1226.46 93.2151 1219.17 93.975 1213.15 C 96.3189 1194.6 107.405 1171.03 115.374 1153.91 C 126.644 1129.7 140.193 1106.7 152.982 1083.28 A 3105.36 3105.36 0 0 0 188.386 1015.51 C 212.063 969.664 235.496 923.795 259.95 878.354 C 272.276 855.45 284.263 831.749 298.248 809.824 C 305.8 797.984 314.164 787.528 325.389 778.961 z"/>
<path transform="translate(0,0)" fill="rgb(254,254,254)" d="M 431.889 922.219 C 434.102 921.96 435.726 921.716 437.882 922.516 L 438.534 924.316 C 436.118 935.833 409.536 957.586 400.773 966.852 C 367.904 1001.61 361.677 1035.55 353.98 1080.98 C 352.273 1091.06 348.541 1102.34 349.095 1112.57 C 349.305 1116.46 350.09 1119.72 353.231 1122.29 C 356.651 1125.09 361.448 1125.74 365.709 1125.22 C 369.873 1124.71 374.259 1122.73 376.744 1119.23 C 383.42 1109.81 387.536 1095.3 391.897 1084.54 C 403.662 1055.49 416.247 1024.71 435.708 999.847 C 455.613 974.419 491.924 938.418 525.685 935.834 C 528.221 935.64 529.409 935.459 531.289 937.131 C 530.955 941.322 528.632 944.916 526.26 948.29 C 520.706 956.19 513.439 963.039 507.156 970.387 A 585.429 585.429 0 0 0 472.115 1015.2 A 268.524 268.524 0 0 0 443.622 1068.82 C 439.357 1079.56 425.08 1113.42 430.189 1123.66 C 431.705 1126.69 435.531 1128.59 438.617 1129.59 C 448.32 1132.74 453.799 1121.37 457.696 1114.35 C 467.348 1096.96 476.051 1078.54 487.36 1062.16 C 507.726 1032.66 552.352 994.187 584.397 978.64 C 587.672 977.052 590.289 976.002 593.764 977.237 C 594.208 978.097 594.675 978.921 594.791 979.902 C 596.363 993.207 559.115 1023.23 549.49 1034.1 C 519.676 1067.76 499.962 1108.43 487.923 1151.6 C 482.229 1172.02 478.259 1192.84 472.223 1213.2 C 468.824 1224.66 457.957 1246.24 458.6 1256.8 C 459.829 1259.04 460.268 1260.07 462.557 1261.4 C 470.125 1265.78 474.86 1257.06 478.353 1251.86 C 484.58 1242.6 490.867 1235.9 499.767 1229.06 C 515.332 1217.1 581.804 1180.96 599.566 1177.59 C 602.863 1176.96 604.316 1176.92 607.057 1178.76 L 607.355 1181.34 C 598.78 1207.61 553.501 1226.6 534.77 1246.79 C 526.409 1255.81 519.666 1266.46 512.666 1276.53 C 493.53 1304.06 476.344 1333.52 454.955 1359.33 C 423.596 1394.91 374.245 1402.63 342.389 1436.83 C 311.077 1470.44 266.344 1574.33 248.897 1618.69 A 2020.07 2020.07 0 0 0 234.231 1657.37 C 232.12 1663.04 230.33 1670.01 227.268 1675.2 C 227.031 1675.6 226.782 1676 226.538 1676.39 C 225.025 1677.08 223.805 1677.44 222.134 1677.42 C 205.442 1677.19 94.0947 1661.03 84.0901 1651.09 C 91.2883 1642.43 114.315 1564.89 120.226 1547.47 C 127.079 1527.27 134.194 1507 142.16 1487.21 C 162.198 1437.44 183.874 1390.35 197.16 1338.03 C 213.051 1275.47 220.458 1211.65 230.139 1147.94 C 233.275 1127.3 235.479 1106.22 239.933 1085.83 C 250.344 1038.18 274.151 985.772 316.225 958.648 C 311.893 972.188 305.58 985.045 299.953 998.081 C 293.809 1012.32 288.15 1026.77 282.065 1041.03 C 276.216 1054.75 269.628 1068.78 266.624 1083.45 C 263.463 1098.89 263.716 1115.46 265.822 1131.06 C 266.873 1138.84 268.812 1151.65 275.811 1156.49 C 278.004 1158 280.739 1158.48 283.342 1157.95 C 286.805 1157.25 288.559 1154.97 290.047 1151.94 C 295.373 1141.07 297.282 1126.97 300.396 1115.22 C 307.59 1088.08 314.531 1059.94 323.769 1033.45 A 232.115 232.115 0 0 1 348.038 983.381 C 365.89 955.811 399.14 929.247 431.889 922.219 z"/>
<path transform="translate(0,0)" fill="rgb(254,254,254)" d="M 908.455 1014.51 C 913.18 1016.25 917.086 1019.38 920.213 1023.27 C 932.596 1038.68 954.812 1091.09 957.714 1110.28 C 962.591 1142.53 949.803 1167.85 971.141 1197.78 C 976.851 1205.79 985.22 1213.43 995.334 1214.8 C 998.868 1215.28 1002.83 1215.14 1005.66 1212.69 C 1007.44 1211.15 1008.6 1208.95 1009.07 1206.66 C 1011.02 1197.12 1008.78 1184.63 1008.16 1174.94 A 1617.98 1617.98 0 0 0 1001.71 1099.15 C 999.249 1076.8 993.399 1052.61 996.302 1030.14 C 997.046 1024.37 999.291 1019.22 1004.15 1015.79 C 1006.34 1014.25 1008.65 1013.23 1011.35 1013.85 C 1032.68 1018.74 1036.62 1095.22 1038.23 1114 C 1039.43 1128.07 1041.08 1142.12 1041.88 1156.22 C 1042.64 1169.72 1042.18 1205.4 1048.26 1215.12 C 1049.62 1217.28 1051.62 1218.91 1054.21 1219.22 C 1058.46 1219.73 1063 1217.04 1066.14 1214.42 C 1075.67 1206.46 1078.45 1194.16 1081.15 1182.6 C 1090.82 1141.2 1085 1108.59 1075.05 1068.05 C 1072.56 1057.87 1067.63 1044.72 1068.9 1034.29 C 1069.22 1031.64 1069.16 1031.29 1071.26 1029.71 C 1072.43 1029.73 1073.62 1029.7 1074.76 1030.03 C 1081.45 1031.98 1087.37 1043.02 1090.54 1048.72 C 1112.44 1088.11 1117.24 1137.05 1115.2 1181.49 C 1114.72 1192.04 1111.87 1203.26 1111.93 1213.56 C 1111.95 1216.67 1112.57 1219.93 1114.34 1222.53 C 1115.84 1224.74 1118.16 1226.44 1120.85 1226.75 C 1123.61 1227.07 1126.17 1225.91 1128.27 1224.21 C 1132.61 1220.69 1135.53 1214.31 1137.84 1209.34 C 1159.99 1161.72 1150.67 1106.86 1158.11 1056.25 C 1188.83 1090.55 1171.62 1169.93 1163.84 1211 L 1152.95 1269.7 C 1149.06 1291.7 1146.74 1313.96 1142.96 1335.98 C 1136.98 1370.8 1128.75 1405.35 1127.05 1440.78 A 327.223 327.223 0 0 0 1142.25 1553.2 C 1145.67 1569.98 1151.72 1586.93 1156.95 1603.24 A 2861.58 2861.58 0 0 0 1186.46 1691.42 C 1195.54 1717.78 1202.89 1746.42 1214.99 1771.51 C 1207.3 1783.77 1163.53 1801.08 1149.19 1806.46 C 1112.75 1820.15 1072.68 1825.73 1033.96 1827.49 C 1027.34 1827.79 1017.4 1829.18 1011.42 1826.47 C 1006.34 1818.72 991.666 1751.59 988.439 1738.34 A 2519.75 2519.75 0 0 0 963.275 1641.49 C 959.156 1627.02 955.328 1612.2 950.099 1598.08 C 939.364 1569.1 914.992 1550.45 896.981 1526.21 C 877.103 1499.46 859.517 1469.44 845.724 1439.14 A 439.724 439.724 0 0 1 819.308 1365.72 C 803.619 1305.04 801.274 1262.82 771.299 1204.51 C 817.408 1211.11 852.558 1266.24 865.554 1307.83 C 867.839 1315.14 871.265 1339.58 875.224 1343.95 C 876.809 1345.7 878.512 1346.83 880.946 1346.84 C 883.287 1346.85 885.08 1345.7 886.788 1344.24 C 890.824 1340.78 893.534 1324.48 895.206 1319.1 C 901.771 1297.96 908.964 1277.57 913.66 1255.86 C 919.211 1230.18 920.643 1203.59 922.877 1177.47 C 925.013 1152.48 928.568 1126.47 926.247 1101.43 C 923.659 1073.51 905.673 1042.11 908.342 1015.56 L 908.455 1014.51 z"/>
<path transform="translate(0,0)" fill="rgb(254,254,254)" d="M 379.733 199.084 C 394.146 199.334 409.043 201.373 423.396 202.775 A 3155.59 3155.59 0 0 1 522.302 214.1 L 799.607 248.618 A 13698.6 13698.6 0 0 0 1320.73 295.533 L 1454.33 307.143 C 1445.08 407.772 1444.06 509.475 1428.06 609.419 C 1411.54 712.598 1381.03 813.356 1360.48 915.743 A 4154.18 4154.18 0 0 0 1254.05 899.837 C 1203.28 892.889 1152.45 886.753 1101.82 878.74 C 1049.32 870.431 997.135 860.294 944.552 852.465 C 897.003 845.385 849.017 842.043 801.46 835.327 C 721.857 824.085 642.71 809.578 563.245 797.381 A 6795.58 6795.58 0 0 0 436.516 780.302 C 401.117 775.979 365.332 772.122 330.251 765.646 C 331.575 714.815 331.367 664.492 335.762 613.733 C 347.64 609.854 358.654 606.553 366.677 596.279 C 371.428 590.195 374.291 582.947 375.884 575.441 C 379.499 558.404 375.935 541.237 378.361 524.341 C 379.867 513.849 388.241 497.344 387.162 487.951 C 386.164 486.332 385.823 485.311 383.985 484.552 C 382.076 483.763 379.549 484.158 377.719 485.001 C 372.828 487.253 371.738 492.407 370.056 497.059 C 367.304 504.67 364.433 513.016 363.518 521.075 C 361.368 540.012 365.265 562.462 357.836 580.294 C 353.586 590.496 346.308 594.521 336.578 598.401 C 342.407 543.464 354.361 489.477 360.236 434.671 A 710.732 710.732 0 0 0 364.204 376.712 C 365.215 341.086 361.827 223.542 379.733 199.084 z"/>
<path transform="translate(0,0)" fill="rgb(2,3,2)" d="M 530.942 332.71 C 541.259 332.012 553.213 334.763 563.453 336.17 L 629.777 345.723 C 655.058 349.243 684.978 350.598 709.189 357.338 L 709.614 358.135 L 711.566 358.265 C 711.935 360.07 712.136 361.756 712.103 363.599 C 711.742 383.693 707.716 404.887 705.378 424.92 C 702.875 446.371 701.92 471.497 696.545 492.238 C 695.78 495.193 694.458 496.863 692.295 498.968 C 680.204 499.436 517.05 475.476 512.765 472.054 C 511.078 470.706 510.906 466.987 510.84 465.02 C 510.154 444.676 520.794 356.65 526.741 339.032 C 527.611 336.455 529.091 334.654 530.942 332.71 z"/>
<path transform="translate(0,0)" fill="rgb(254,254,254)" d="M 693.872 386.856 L 694.517 387.492 C 695.8 393.629 685.141 468.953 683.258 480.801 C 675.962 472.329 668.09 464.276 660.46 456.1 L 633.866 428.406 C 655.32 415.48 675.086 403.566 693.872 386.856 z"/>
<path transform="translate(0,0)" fill="rgb(254,254,254)" d="M 608.955 430.14 C 610.277 430.09 611.672 430.005 612.988 430.148 C 618.744 430.775 656.194 472.961 662.753 480.298 A 1856.1 1856.1 0 0 1 606.951 472.741 C 586.747 471.377 565.67 467.415 545.588 464.528 C 565.393 457.269 591.597 442.191 608.955 430.14 z"/>
<path transform="translate(0,0)" fill="rgb(254,254,254)" d="M 538.479 360.5 C 548.533 367.686 558.99 382.563 567.318 391.999 C 576.22 402.086 585.609 411.737 594.338 421.97 A 2296.08 2296.08 0 0 1 565.545 439.361 C 552.805 446.399 539.431 453.108 525.779 458.174 C 526.549 425.965 532.58 392.164 538.479 360.5 z"/>
<path transform="translate(0,0)" fill="rgb(254,254,254)" d="M 548.835 349.037 C 564.474 351.849 580.573 353.437 596.322 355.62 L 692.5 368.958 A 1244.48 1244.48 0 0 1 667.274 390.103 C 654.411 399.843 639.94 407.771 626.086 416.014 C 619.875 416.079 614.011 415.685 607.861 414.816 A 8777.06 8777.06 0 0 1 548.835 349.037 z"/>
<path transform="translate(0,0)" fill="rgb(2,3,2)" d="M 764.096 359.071 C 821.809 366.885 879.953 371.16 937.572 380.021 C 941.44 380.616 947.347 381.005 949.747 384.274 C 952.165 401.286 936.042 508.202 927.304 524.773 C 926.44 525.191 926.694 525.103 925.567 525.443 A 11.7351 11.7351 0 0 1 921.52 525.907 C 908.408 524.994 749.095 501.924 743.603 498.728 C 741.681 484.129 745.937 466.6 747.694 451.913 C 750.941 424.769 753.661 397.112 758.565 370.221 C 759.445 365.395 759.844 362.03 764.096 359.071 z"/>
<path transform="translate(0,0)" fill="rgb(254,254,254)" d="M 778.437 375.966 C 797.912 375.994 818.518 379.396 837.847 381.711 C 868.41 385.372 899.445 388.812 929.695 394.564 C 921.512 402.206 912.243 408.81 903.074 415.2 C 884.253 426.827 861.06 438.129 838.977 440.901 A 282.674 282.674 0 0 1 778.437 375.966 z"/>
<path transform="translate(0,0)" fill="rgb(254,254,254)" d="M 770.561 391.604 C 776.006 395.346 781.188 404.43 785.57 409.582 C 794.828 420.47 825.138 453.837 839.43 455.144 C 847.268 455.861 855.413 452.882 862.718 450.377 C 889.777 441.095 911.071 428.131 933.51 410.605 A 859.557 859.557 0 0 1 924.832 470.816 A 753.997 753.997 0 0 1 917.304 511.023 C 896.492 506.702 874.991 504.343 853.931 501.402 L 758.53 487.649 C 760.905 455.75 765.561 423.198 770.561 391.604 z"/>
<path transform="translate(0,0)" fill="rgb(2,3,2)" d="M 741.71 535.007 C 758.565 534.606 777.055 539.041 793.825 541.292 A 2761.71 2761.71 0 0 1 879.921 553.61 C 890.837 555.383 903.317 556.337 913.669 560.174 C 919.58 571.397 906.93 653.783 903.992 669.875 C 902.095 680.266 897.92 709.196 889.316 715.129 C 870.795 713.276 723.427 693.183 715.82 685.23 C 715.169 672.61 719.679 658.149 721.339 645.535 C 725.518 613.784 728.221 581.327 734.111 549.841 C 735.313 543.417 736.046 538.897 741.71 535.007 z"/>
<path transform="translate(0,0)" fill="rgb(254,254,254)" d="M 749.445 550.066 C 764.462 552.75 779.945 554.099 795.092 556.146 C 830.304 560.905 865.359 565.709 900.211 572.711 C 899.208 613.57 892.625 659.542 882.046 698.965 C 863.923 694.814 837.745 693.297 818.526 690.583 C 789.415 686.47 760.593 680.505 731.452 676.616 C 737.85 634.469 742.623 592.158 749.445 550.066 z"/>
<path transform="translate(0,0)" fill="rgb(2,3,2)" d="M 507.035 507.204 A 1536.69 1536.69 0 0 1 576.883 512.737 C 590.587 514.242 683.502 525.133 686.708 530.66 C 691.045 538.141 678.049 629.232 675.807 644.027 C 674.371 653.5 672.806 677.083 664.781 682.992 C 654.207 682.596 643.014 680.053 632.505 678.494 L 569.157 669.138 A 3887.73 3887.73 0 0 0 519.494 662.101 C 509.855 660.812 499.407 660.195 490.018 657.806 C 487.87 657.259 486.171 656.355 485.049 654.39 C 481.176 647.602 497.585 530.325 501.62 514.95 C 502.615 511.159 503.62 509.233 507.035 507.204 z"/>
<path transform="translate(0,0)" fill="rgb(254,254,254)" d="M 515.39 521.865 C 537.043 522.385 558.666 525.232 580.139 527.902 A 1410.38 1410.38 0 0 1 671.805 541.541 C 671.559 581.396 663.708 627.5 656.908 666.995 C 632.998 663.253 608.841 660.493 584.872 657.019 C 556.491 652.904 528.188 648.106 499.733 644.541 C 500.303 623.889 503.643 602.935 506.229 582.448 C 508.752 562.465 510.64 541.423 515.39 521.865 z"/>
<path transform="translate(0,0)" fill="rgb(2,3,2)" d="M 560.897 552.75 C 562.111 552.808 563.327 552.892 564.516 553.163 C 571.166 554.68 580.628 572.314 584.461 578.07 C 591.536 573.155 601.688 562.028 610.097 560.569 C 613.074 560.053 614.087 560.764 616.428 562.315 C 617.412 564.364 618.121 565.324 617.79 567.727 C 616.689 575.712 599.486 585.212 592.972 589.882 C 597.523 595.899 607.326 606.541 607.398 614.316 C 607.422 616.982 606.466 617.869 604.674 619.654 C 601.36 620.822 599.187 620.971 595.715 620.472 A 558.764 558.764 0 0 0 580.763 599.389 C 573.073 604.876 560.067 617.371 551.091 619.111 C 547.355 619.835 544.869 619.171 541.847 616.985 C 541.179 615.429 540.708 615.042 541.051 613.3 C 542.686 604.995 565.407 592.376 572.774 587.388 C 567.035 579.334 558.602 569.915 556.715 560.011 C 557.124 556.587 558.586 555.205 560.897 552.75 z"/>
<path transform="translate(0,0)" fill="rgb(2,3,2)" d="M 1077.2 385.017 C 1102.29 386.448 1243.84 398.09 1259.94 406.607 C 1261.65 407.513 1262.91 407.836 1263.37 409.834 C 1264.89 416.476 1248.88 531.099 1246.31 544.071 C 1245.07 550.383 1244.13 556.753 1240.51 562.201 C 1230.44 562.746 1219.35 560.502 1209.31 559.24 A 2439.79 2439.79 0 0 1 1126.98 547.013 C 1107 543.892 1086.25 542.344 1066.48 538.466 C 1062.83 537.75 1058.35 537.009 1055.33 534.726 C 1054.19 532.258 1054.28 530.034 1054.46 527.385 C 1055.29 514.775 1057.66 501.875 1059.38 489.317 C 1063.16 461.683 1067.27 434.231 1070.58 406.527 C 1071.41 399.584 1071.37 389.602 1077.2 385.017 z"/>
<path transform="translate(0,0)" fill="rgb(254,254,254)" d="M 1086.44 400.897 C 1107.5 401.308 1128.85 404.45 1149.8 406.588 C 1182.13 409.885 1214.46 412.737 1246.52 418.18 C 1243.65 461.049 1237.46 504.037 1230.45 546.407 C 1176.93 541.493 1123.91 530.689 1070.52 524.323 C 1074.4 483.068 1082.14 442.134 1086.44 400.897 z"/>
<path transform="translate(0,0)" fill="rgb(2,3,2)" d="M 1151.63 427.18 C 1152.91 427.058 1154.19 427.003 1155.48 426.97 C 1165.73 426.708 1177.19 430.064 1184.64 437.378 C 1190.51 443.139 1193.66 451.414 1193.74 459.588 C 1193.88 475.509 1184.04 487.721 1173.38 498.346 C 1175.38 503.148 1177.98 509.361 1176.75 514.598 C 1176.27 516.651 1175.27 518.017 1173.5 519.156 C 1170.15 521.31 1165.48 519.912 1161.86 519.168 C 1158.76 517.973 1154.14 514.636 1150.84 514.892 C 1146.6 515.219 1143.2 519.022 1138.73 516.63 C 1119.42 506.294 1135.41 496.445 1133.03 489.501 C 1131.37 484.686 1125.4 480.819 1123.65 475.345 C 1120.66 465.967 1121.28 455.39 1125.88 446.638 C 1131.48 435.988 1140.46 430.571 1151.63 427.18 z"/>
<path transform="translate(0,0)" fill="rgb(254,254,254)" d="M 1152.17 442.051 C 1154.41 441.881 1156.61 441.883 1158.85 442.034 C 1164.81 442.435 1171.15 444.645 1174.96 449.441 C 1178.12 453.43 1178.91 458.463 1178.07 463.396 C 1176.51 472.624 1169.85 480.549 1162.4 485.773 C 1159.76 486.501 1157.65 486.705 1154.96 486.067 C 1149.02 484.659 1143.85 481.022 1140.8 475.715 C 1137.4 469.808 1136.22 462.997 1138.32 456.412 C 1140.67 448.998 1145.65 445.433 1152.17 442.051 z"/>
<path transform="translate(0,0)" fill="rgb(2,3,2)" d="M 1047.16 576.894 C 1072.77 576.189 1212.87 588.665 1229.98 597.753 C 1230.78 599.314 1231.05 600.676 1231.23 602.397 C 1233.63 624.428 1217.04 744.967 1204.62 760.563 C 1202.06 761.344 1199.85 761.657 1197.17 761.375 C 1167.09 758.214 1136.87 752.072 1106.86 747.921 C 1090.26 745.625 1039.08 741.339 1027.49 736.955 C 1022.1 734.918 1025.23 735.057 1023.46 731.352 L 1023.31 731.848 C 1023.91 701.995 1031.06 671 1035.4 641.453 C 1037.91 624.397 1040 597.804 1044.44 581.941 C 1045 579.958 1045.82 578.437 1047.16 576.894 z"/>
<path transform="translate(0,0)" fill="rgb(254,254,254)" d="M 1058 591.803 C 1071.04 591.9 1084.36 593.522 1097.36 594.599 A 1196.57 1196.57 0 0 1 1215.97 609.985 C 1214.07 627.91 1213.25 645.912 1210.93 663.808 C 1207.39 691.089 1201.77 717.897 1196.06 744.783 C 1188.06 745.945 1161.76 740.649 1152.05 739.325 A 4704.19 4704.19 0 0 0 1038.47 724.266 C 1040.08 704.623 1044.07 684.821 1047.23 665.364 A 2403.63 2403.63 0 0 0 1058 591.803 z"/>
<path transform="translate(0,0)" fill="rgb(2,3,2)" d="M 1089.73 614.024 C 1104.52 614.983 1173.85 625.364 1183.35 631.971 C 1184.3 633.849 1184.8 635.365 1184.93 637.487 C 1185.62 649.08 1174.84 704.198 1167.5 712.521 C 1157.16 714.39 1081.91 701.537 1073.71 696.27 C 1071.18 688.64 1079.45 630.546 1082.69 621.482 C 1084.18 617.299 1085.79 615.996 1089.73 614.024 z"/>
</svg>