<svg xmlns="http://www.w3.org/2000/svg" display="block" viewBox="0 0 2048 2048"><path fill="#fefefe" d="M0 0h2048v2048H0z"/><path d="M815.562 45.427a380 380 0 0 1 18.701-.442 666.9 666.9 0 0 1 482.077 194.599 613.68 613.68 0 0 1 178.85 431.924 638.88 638.88 0 0 1-141.2 400.722c-22.25 28.06-47.15 53.34-72.27 78.79a148 148 0 0 1 2.3 5.4c5.24 13.06 6.46 24.01.88 37.21 4.51 7.08 9.96 13.65 15.09 20.3 18.41-6.54 37.85-11.2 56.59-2.77 9.44 4.24 17.29 11.63 20.64 21.57 4.28 12.73 1.2 26.87-4.43 38.67 11.34 14.37 23.62 27.99 35.37 42.02l66.47 79.92 322.8 381.8c6.86.67 13.78 1.31 20.5 2.91 11.51 2.73 22.18 8.55 28.28 19.03 5.98 10.27 6.45 22.55 3.33 33.82-9.68 35.08-50.08 78.22-78.38 100.88-12.73 10.19-26.65 18.84-40.86 26.78a355 355 0 0 1-42.29 20.54c-22.61 8.94-71.61 23.51-95.28 16.26-11.26-3.45-20.45-11.63-25.85-22.03-6.85-13.2-6.85-27.69-2.48-41.56-12.35-16.78-25.23-33.17-37.49-50.02a19368 19368 0 0 0-188.29-250.22 9278 9278 0 0 1-125.1-163.88c-15.95-21.22-33.37-41.77-48.44-63.58-7.02-2.1-13.57-4.43-19.56-8.8-8.84-6.43-14.66-15.57-16.09-26.47-2.01-15.34 4.73-27.4 13.44-39.24-4.99-7.66-9.69-15.24-13.89-23.36-22.62-.52-41.5-7.85-58.98-22-61.23 21.44-121.867 36.21-186.777 40.13-178.145 10.75-343.095-50.21-476.056-168.46-121.745-108.27-201.519-267.879-210.775-431.047-9.956-175.512 52.619-337.808 169.19-467.955 114.51-127.846 279.605-201.847 449.98-211.44"/><path fill="#fefefe" d="M1274.43 1214.51c5.96 5.45 10.73 14.22 15.06 21.02-4.8 19.35-15.2 34.04-29.83 47.36-27.02 24.61-59.99 37.93-96.51 36.1-5.8-4.24-10.88-11.8-15.33-17.41 7.89-2.04 15.88-3.58 23.75-5.75 44.17-12.18 80.51-41.72 102.86-81.32m-10.88-48.76 1.31 1.38c2.07 8.62-.79 20.15-3.8 28.35-12.3 33.47-43.44 59.38-74.99 74.05-26.43 12.29-58.67 20.18-87.03 9.89-2.2-1.03-3.96-2.23-5.93-3.64.94-3.2 25.85-13.15 30.24-15.17 51.39-23.65 97.39-58.37 140.2-94.86"/><path fill="#fefefe" d="M1325.79 1227.18c8.83-.82 19.29.1 26.59 5.65 3.79 2.88 5.99 6.95 6.59 11.65 2.38 18.65-15.51 43.34-26.65 56.86-36.03 43.68-91.84 77.05-148.61 82.72-8.87.35-17.47.08-25.3-4.73-4.54-2.79-8.09-7.06-9.15-12.36-1.99-10.03 3.9-18.89 9.3-26.73 37.76 3.13 75.55-10.12 104.85-34.01 23.39-19.08 43.84-42.28 47.12-73.25 5.03-2.36 9.96-4.16 15.26-5.8M1796 1794.26c9.46.49 19.8.61 27.79 6.4a19.9 19.9 0 0 1 8.16 13.32c2.5 15.95-12.2 37.62-21.18 49.91-46.16 63.17-118.05 102.05-194.53 113.86-5.57.79-10.3 1.09-15.76-.65-7.31-2.33-13.61-7.24-16.92-14.26-4.63-9.84-2.48-18.99 1.07-28.63 22.64-1.62 44-5.87 65.54-12.95 62.03-20.38 116.66-69.06 145.83-127M816.58 65.418c.271-.028.54-.068.811-.085 152.805-9.78 324.359 49.074 440.929 147.826 125.44 106.269 201.26 249.639 214.84 413.836 13.5 163.294-43.28 324.9-148.9 449.215-87.41 102.89-203.44 180.2-335.472 211.95-37.146 8.93-74.772 13.59-112.799 16.66-37.291 1.07-74.605.43-111.669-4.09a635.2 635.2 0 0 1-336.533-151.6c-118.155-102.15-199.403-256.149-210.766-412.516a618.17 618.17 0 0 1 151.892-453.889 630.92 630.92 0 0 1 364.431-207.79c27.559-5.022 55.321-7.517 83.236-9.517"/><path d="m838.145 118.45 2.788-.066c151.987-3.195 297.527 58.467 406.547 163.209 104.95 100.835 163.94 244.395 166.55 389.284 2.06 114.406-35.09 225.228-98.7 319.697-15.49 23.006-32.17 45.856-51.47 65.826-18.31 18.95-37.3 37.78-57.67 54.53-98.96 81.32-226.572 132.13-355.066 134.31a562.94 562.94 0 0 1-398.585-154.49 557.54 557.54 0 0 1-178.091-387.891c-4.833-152.31 51.341-293.728 155.302-404.35A583.9 583.9 0 0 1 838.145 118.45"/><path fill="#fefefe" d="M827.33 168.564c91.81-4.725 189.16 18.445 269.72 62.604 34.58 18.957 67.24 42.688 97.29 68.168 75.31 63.858 131.09 158.609 154.63 254.166 7.09 28.825 10.81 58.908 13.16 88.462 11.06 138.901-36.96 268.2-126.79 373.216-28.46 33.27-61.19 61.03-97.21 85.74-11.66 7.99-23.25 16.36-35.42 23.56-74.12 43.84-157.471 65.85-242.823 72.41a516.7 516.7 0 0 1-276.015-68c-31.423-17.67-60.754-37.72-87.401-62.07-106.537-97.373-165.681-216.926-172.082-361.318-6.133-138.342 43.838-266.545 137.049-368.099A527.97 527.97 0 0 1 827.33 168.564"/><path d="M925.704 1174.4c1.369-.24 1.988.24 3.265.71l.256 1.83c-4.178 4.22-18.437 3.91-24.467 4.38l-3.077-.21-.265-1.04c7.14-3.71 16.384-4.67 24.288-5.67m172.056-928.929c1.77.154 3.55.501 5.23 1.103 13.56 4.869 68.12 38.95 72.55 51.552.95 2.7-.15 4.737-1.23 7.137-1.66-.058-2.95-.236-4.53-.815-7.73-2.848-26.1-18.809-33.77-24.316-7.09-5.088-14.48-9.608-21.98-14.051-4.9-2.899-15.77-7.617-18.06-12.518-.33-3.136.65-5.258 1.79-8.092m179.99 171.027c1.14.313 2.16.893 3.22 1.405 11.79 15.654 39.77 70.632 41.72 89.864-1.43 2.461-4.08 3.348-6.53 4.742-.48-.264-.99-.471-1.44-.792-3.62-2.609-5.89-11.483-7.52-15.536-6.6-16.46-14.01-32.08-22.24-47.794-3.95-7.544-12.6-18.204-13.42-26.368 1.42-3.194 3.28-3.717 6.21-5.521m-93.99-110.087c15.11 6.925 71.39 67.337 77.29 82.277 1 2.518.68 3.412-.42 5.791-2.8-.149-4.98-.497-7.67-1.285-14.39-13.112-26.67-30.856-40.43-45.101-6.95-7.194-28.59-23.451-31.17-31.464-1.16-3.592.86-7.098 2.4-10.218M679.533 1152.98c28.149 5.53 55.089 15.45 83.743 19.56 8.895 1.28 38.15 2.08 43.638 6.97.019 2.97-.795 4-2.176 6.58-12.715 1.54-28.821-1.38-41.588-3.21-15.14-2.18-78.869-13.2-86.023-22.72-.126-3.3.833-4.34 2.406-7.18m205.686-973.125h.54c12.015.039 24.573 2.539 36.42 4.5 44.495 7.366 84.771 19.144 125.971 37.448 8.38 3.724 19.38 7.264 25.87 13.797.63 2.959-.61 4.349-1.85 7.05-1.22.107-1.19.155-2.63-.012-9.01-1.046-36.47-14.779-46.91-18.877a531 531 0 0 0-43.22-14.486c-19.706-5.758-39.243-10.109-59.483-13.464-9.976-1.654-20.554-2.343-30.368-4.626-2.857-.665-3.126-.908-4.858-3.138-.614-3.145-.278-5.11.518-8.192M345.802 785.938c3.255-.03 5.978-.762 8.51 1.76 1.214 1.209 13.723 43.668 15.484 48.799a520.3 520.3 0 0 0 41.587 91.588c3.831 6.683 18.986 27.469 19.093 32.971.036 1.845-2.567 4.025-3.749 5.41-1.669.213-2.661.23-4.26-.445-5.2-2.192-10.798-12.294-13.786-16.967-25.094-39.241-45.248-84.289-58.053-129.045-2.543-8.892-9.396-25.856-4.826-34.071m16.255-261.349c2.255.849 4.557 1.568 6.278 3.335 3.431 3.524-1.338 13.33-2.647 17.754-15.433 52.126-19.806 108.61-17.588 162.765.322 7.868.563 15.828 1.376 23.662.805 7.749 4.1 17.827 3.184 25.392-.368 3.048-2.585 3.934-4.823 5.698-2.674-.029-4.314.173-6.605-1.39-5.664-9.8-5.538-33.227-6.033-45.162-2.274-54.794 1.758-107.469 15.123-160.663 2.538-10.103 4.541-23.574 11.735-31.391m962.193 1.983c2.23.019 3.96.198 6.1.821 4.38 3.723 6.38 9.776 7.93 15.178 16.46 57.446 17.57 121.379 9.31 180.182-1.39 9.9-1.79 22.953-6.75 31.767-.64.09-1.29.187-1.93.27-3.67.474-5.67.023-8.57-2.292-1.27-3.49 7.37-59.804 8.16-69.152 2.39-28.096.82-59.756-3.51-87.618-2.22-14.27-14.38-58.831-10.74-69.156M448.264 990.536l1.069.006c1.943.022 4.859-.133 6.57.876 4.609 2.716 24.713 27.252 31.222 33.882a513 513 0 0 0 44.442 40.75c21.705 17.47 45.523 32.34 69.657 46.21 8.648 4.96 47.15 22.71 50.8 26.48.125 3.69-1.806 6.75-3.402 9.97-1.412-.21-2.732-.44-4.104-.84-11.799-3.46-24.072-10.98-34.944-16.76-53.744-28.59-100.707-62.67-141.922-107.54-6.685-7.28-15.698-15.62-19.953-24.625-1.676-3.546-.704-5.139.565-8.409"/><path d="M1012.71 228.747c17.21.626 79.8 34.274 97.98 45.128a513 513 0 0 1 38.19 25.514c96.03 69.892 156.71 178.16 174.79 294.774 2.14 13.806 8.54 58.208.65 69.034l-4.87.058c-2.33-1.309-3.56-2.023-4.59-4.59-.57-1.42-3.66-50.947-4.75-59.08a471.7 471.7 0 0 0-30.36-111.848c-27.01-65.571-76.86-129.77-132.23-173.926-19.2-15.308-40.82-28.742-62.35-40.501-16.34-8.924-33.96-17.319-51.15-24.457-5.29-2.195-10.87-3.624-16.12-5.87-4.23-1.809-7.11-2.964-8.9-7.37.71-3.634 1.35-4.177 3.71-6.866M357.46 618.858c1.855-.015 4.341-.269 6.122.172 2.148.532 3.445 1.681 4.066 3.817 2.044 7.029-2.22 38.115-2.409 47.824-.22 11.29.392 22.691 1.173 33.953 5.218 75.288 28.333 146.561 65.385 212.144a475.74 475.74 0 0 0 237.96 210.442c21.168 8.33 42.709 13.22 64.481 19.46 3.282.94 4.042.75 5.694 3.76-.145 3.13-1.165 4.64-2.848 7.13-19.955 3.67-72.005-17.03-91.646-25.8-122.06-54.5-212.999-158.08-260.685-281.883a478.4 478.4 0 0 1-32.254-195.278c.59-11.203.429-25.541 4.961-35.741"/><path d="M796.968 398.5c24.413-1.365 49.279-.662 73.732-.129 100.305 2.188 272.73 14.983 360.64 60.043 13.12 6.722 28.42 16.463 32.82 31.413 2.15 7.314.77 14.6-2.21 21.475-7.38 17.013-30.36 46.664-41.88 63.319a8216 8216 0 0 1-132.08 184.442c-12.93 17.861-31.72 38.446-41.46 57.779l-.67 1.355c.74 3.823 1.6 7.735 1.93 11.617.32 3.84-.17 7.781-1.77 11.304-6.17 13.537-18.03 26.776-26.36 39.202-13.04 19.432-24.878 41.654-39.856 59.62 3.822 4.226 7.727 8.688 9.208 14.332.814 3.104.963 6.728-.055 9.803-4.159 12.556-16.13 27.772-23.139 39.265-8.099 13.28-15.426 27-23.736 40.15 3.217 3.09 6.406 6.43 8.494 10.42 2.649 5.06 3.254 10.71 1.187 16.09-4.565 11.87-17.092 16.98-27.865 21.59-7.428 12.37-25.812 49.78-35.334 56.39-5.95 2.76-11.832 4.8-18.24 6.2-12.83 2.8-28.554 3.6-39.907-3.98-18.515-12.38-23.869-40.42-39.036-56.19-11.093-11.54-25.973-13.81-29.052-32.54-1.296-7.89 2.532-12.85 6.979-18.81-8.698-17.38-19.005-34.24-29.709-50.446-5.066-7.671-11.147-14.947-15.561-22.997-1.676-3.057-3.372-6.229-3.202-9.8.491-10.341 8.081-17.299 15.1-23.894-15.038-22.213-32.668-42.924-47.948-65.031l-160.78-227.73-57.409-80.847c-8.591-12.075-16.757-27.176-27.669-37.14-9.378-8.565-17.202-16.736-17.459-30.38-.167-8.835 4.9-16.866 10.897-22.971 34.994-35.621 162.475-56.86 214.983-63.093 48.336-5.738 97.762-8.821 146.417-9.831"/><path fill="#fefefe" d="M804.922 1096c36.245 7.13 69.07 6.13 105.351.31l-14.235 24.27c-3.157 5.34-6.841 10.46-10.298 15.62-19.22 5.88-34.353 7.86-53.591 1.16-9.465-13.44-18.114-27.65-27.227-41.36m153.726-104.835c.726 5.841-20.316 38.435-24.616 45.245-7.669-5.43-16.848-9.08-25.824-11.7-40.448-11.78-92.502-9.44-129.858 10.81-2.538-5.2-6.208-10.01-9.42-14.82-5.804-9.81-12.053-19.37-18.158-28.991a326.74 326.74 0 0 0 207.876-.544M697.354 864.71c6.182 2.105 12.245 5.232 18.342 7.66 71.35 28.418 175.431 28.988 249.514 10.517 17.75-4.425 34.489-10.795 51.25-17.978-7.78 13.341-16.851 26.128-25.358 39.026-6.487 9.892-12.997 19.655-20.11 29.114-10.792-5.206-21.71-10.432-33.156-14.052-58.815-18.601-138.465-17.18-193.72 11.319-15.052-22.207-32.848-42.627-46.762-65.606"/><path fill="#fefefe" d="M840.803 1028.41c27.067-3 58.348 1.02 82.836 13.27 6.479 3.25 17.46 9.26 19.122 16.84.693 3.16.116 5.99-1.832 8.55-9.992 13.13-48.351 17.8-64.33 19.81-27.835 1.43-73.404 1.66-96.324-16.48-3.269-2.59-7.663-6.92-7.786-11.36-.087-3.17 1.548-6.06 3.551-8.4 13.763-16.08 45.135-20.67 64.763-22.23m386.877-487.377.82 1.306a2762 2762 0 0 1-98.6 138.117c.21-10.014-.48-17.759-6.86-26.016-26.27-33.994-114.16-47.82-156.31-53.179-27.012-3.134-54.461-4.667-81.631-5.754 27.582-3.592 61.937-2.82 90.582-4.621 81.769-5.139 176.279-18.58 251.999-49.853m-761.081-.886c39.14 18.17 78.253 26.82 120.561 34.26 80.228 14.109 160.848 17.73 242.122 20.073-18.976 3.159-41.128 2.251-60.651 3.75a669.4 669.4 0 0 0-107.943 17.334c-20.022 5.181-40.861 13.123-57.937 24.96-9.039 6.264-19.226 15.025-20.893 26.504-2.523 17.366 18.357 56.318 28.466 70.493 2.039 2.86 6.11 7.834 6.039 11.279-5.573-4.353-10.165-14.189-14.483-20.133l-79.795-111.129c-16.705-23.272-34.567-45.836-51.098-69.183-1.894-2.674-3.276-5.118-4.388-8.208"/><path fill="#fefefe" d="M604.949 707.462c13.408 5.655 25.209 14.169 39.171 18.99 103.559 35.756 300.127 34.801 405.77 6.103 20.75-5.636 40.63-13.968 59.91-23.4-12.14 21.111-36.59 50.76-51.89 71.193a1511 1511 0 0 0-19.81 25.961c-9.75-11.271-23.02-18.739-36.53-24.607-77.596-33.711-207.838-34.11-286.178-2.483-19.169 7.739-37.22 19.267-45.48 38.982-7.911-10.189-31.72-49.92-39.057-55.105-1.877-1.327-4.097-2.472-6.083-3.656.833-.284 2.03-.664 2.788-1.054 2.415-1.242 2.636-1.74 3.47-4.154-1.529-11.456-19.807-35.271-26.081-46.77m231.089 209.951c.28-.035.558-.082.839-.106 37.085-3.175 107.444 4.674 136.194 29.63 3.653 3.17 8.02 8.075 7.912 13.264-.061 2.929-1.601 5.655-3.553 7.747-17.541 18.8-76.041 25.045-102.047 26.272-39.257 3.42-95.124-2.474-130.399-19.45-5.226-2.516-12.234-6.427-13.647-12.593-1.022-4.458 1.37-8.864 4.088-12.208 20.315-24.99 70.691-29.968 100.613-32.556"/><path fill="#fefefe" d="M826.402 766.583c52.56-3.809 151.686 2.407 193.478 35.636 7.26 5.77 15.84 15.098 16.62 24.724.42 5.195-1.69 9.708-5.08 13.543-26.02 29.45-107.553 36.639-146.248 39.327-52.664 2.164-155.022-2.207-196.287-36.607-5.033-4.196-9.752-9.583-10.185-16.423-.444-7.018 3.705-13.876 8.21-18.921 25.794-28.888 101.233-38.954 139.492-41.279m19.673-162.122c72.222-.864 163.645 4.399 231.035 31.544 10.55 4.249 22.07 9.154 30.86 16.55 5.98 5.028 11.42 11.653 11.96 19.773.4 6.128-2.85 11.473-6.99 15.712-40 40.917-190.591 49.488-246.93 49.966-64.723.226-212.867-5.015-263.049-47.64-5.447-4.627-10.669-10.738-11.035-18.221-.318-6.492 3.262-12.236 7.661-16.703 42.887-43.556 185.98-49.985 246.488-50.981m-16.287-196.989c109.553-.962 252.342 9.241 356.662 43.111 19.83 6.44 42.73 13.827 58.43 28.046 4.96 4.493 9.42 10.458 9.6 17.42.16 6.473-3.3 11.937-7.72 16.373-54.78 54.991-306.036 66.133-385.51 66.527-110.072 1.02-223.789-3.99-330.99-30.517-28.042-6.939-61.902-15.921-84.418-34.456-5.845-4.811-11.622-11.422-12.154-19.349-.421-6.261 2.744-11.525 7.004-15.849 9.065-9.199 22.783-15.131 34.393-20.299 37.192-16.557 78.377-25.271 118.337-32.036 78.685-13.32 156.765-17.423 236.366-18.971"/></svg>