<svg preserveAspectRatio="xMidYMid meet" version="1.1" xmlns="http://www.w3.org/2000/svg" style="display: block;" viewBox="0 0 2048 2048" width="1024" height="1024">
<path transform="translate(0,0)" fill="rgb(254,254,254)" d="M 0 0 L 2048 0 L 2048 2048 L 0 2048 L 0 0 z"/>
<path transform="translate(0,0)" fill="rgb(0,0,0)" d="M 815.562 45.4273 A 379.576 379.576 0 0 1 834.263 44.9846 A 666.895 666.895 0 0 1 1316.34 239.584 A 613.681 613.681 0 0 1 1495.19 671.508 A 638.876 638.876 0 0 1 1353.99 1072.23 C 1331.74 1100.29 1306.84 1125.57 1281.72 1151.02 A 147.684 147.684 0 0 1 1284.02 1156.42 C 1289.26 1169.48 1290.48 1180.43 1284.9 1193.63 C 1289.41 1200.71 1294.86 1207.28 1299.99 1213.93 C 1318.4 1207.39 1337.84 1202.73 1356.58 1211.16 C 1366.02 1215.4 1373.87 1222.79 1377.22 1232.73 C 1381.5 1245.46 1378.42 1259.6 1372.79 1271.4 C 1384.13 1285.77 1396.41 1299.39 1408.16 1313.42 L 1474.63 1393.34 L 1797.43 1775.14 C 1804.29 1775.81 1811.21 1776.45 1817.93 1778.05 C 1829.44 1780.78 1840.11 1786.6 1846.21 1797.08 C 1852.19 1807.35 1852.66 1819.63 1849.54 1830.9 C 1839.86 1865.98 1799.46 1909.12 1771.16 1931.78 C 1758.43 1941.97 1744.51 1950.62 1730.3 1958.56 A 355.357 355.357 0 0 1 1688.01 1979.1 C 1665.4 1988.04 1616.4 2002.61 1592.73 1995.36 C 1581.47 1991.91 1572.28 1983.73 1566.88 1973.33 C 1560.03 1960.13 1560.03 1945.64 1564.4 1931.77 C 1552.05 1914.99 1539.17 1898.6 1526.91 1881.75 A 19368.2 19368.2 0 0 0 1338.62 1631.53 A 9278.32 9278.32 0 0 1 1213.52 1467.65 C 1197.57 1446.43 1180.15 1425.88 1165.08 1404.07 C 1158.06 1401.97 1151.51 1399.64 1145.52 1395.27 C 1136.68 1388.84 1130.86 1379.7 1129.43 1368.8 C 1127.42 1353.46 1134.16 1341.4 1142.87 1329.56 C 1137.88 1321.9 1133.18 1314.32 1128.98 1306.2 C 1106.36 1305.68 1087.48 1298.35 1070 1284.2 C 1008.77 1305.64 948.133 1320.41 883.223 1324.33 C 705.078 1335.08 540.128 1274.12 407.167 1155.87 C 285.422 1047.6 205.648 887.991 196.392 724.823 C 186.436 549.311 249.011 387.015 365.582 256.868 C 480.092 129.022 645.187 55.0205 815.562 45.4273 z"/>
<path transform="translate(0,0)" fill="rgb(254,254,254)" d="M 1274.43 1214.51 C 1280.39 1219.96 1285.16 1228.73 1289.49 1235.53 C 1284.69 1254.88 1274.29 1269.57 1259.66 1282.89 C 1232.64 1307.5 1199.67 1320.82 1163.15 1318.99 C 1157.35 1314.75 1152.27 1307.19 1147.82 1301.58 C 1155.71 1299.54 1163.7 1298 1171.57 1295.83 C 1215.74 1283.65 1252.08 1254.11 1274.43 1214.51 z"/>
<path transform="translate(0,0)" fill="rgb(254,254,254)" d="M 1263.55 1165.75 L 1264.86 1167.13 C 1266.93 1175.75 1264.07 1187.28 1261.06 1195.48 C 1248.76 1228.95 1217.62 1254.86 1186.07 1269.53 C 1159.64 1281.82 1127.4 1289.71 1099.04 1279.42 C 1096.84 1278.39 1095.08 1277.19 1093.11 1275.78 C 1094.05 1272.58 1118.96 1262.63 1123.35 1260.61 C 1174.74 1236.96 1220.74 1202.24 1263.55 1165.75 z"/>
<path transform="translate(0,0)" fill="rgb(254,254,254)" d="M 1325.79 1227.18 C 1334.62 1226.36 1345.08 1227.28 1352.38 1232.83 C 1356.17 1235.71 1358.37 1239.78 1358.97 1244.48 C 1361.35 1263.13 1343.46 1287.82 1332.32 1301.34 C 1296.29 1345.02 1240.48 1378.39 1183.71 1384.06 C 1174.84 1384.41 1166.24 1384.14 1158.41 1379.33 C 1153.87 1376.54 1150.32 1372.27 1149.26 1366.97 C 1147.27 1356.94 1153.16 1348.08 1158.56 1340.24 C 1196.32 1343.37 1234.11 1330.12 1263.41 1306.23 C 1286.8 1287.15 1307.25 1263.95 1310.53 1232.98 C 1315.56 1230.62 1320.49 1228.82 1325.79 1227.18 z"/>
<path transform="translate(0,0)" fill="rgb(254,254,254)" d="M 1796 1794.26 C 1805.46 1794.75 1815.8 1794.87 1823.79 1800.66 A 19.889 19.889 0 0 1 1831.95 1813.98 C 1834.45 1829.93 1819.75 1851.6 1810.77 1863.89 C 1764.61 1927.06 1692.72 1965.94 1616.24 1977.75 C 1610.67 1978.54 1605.94 1978.84 1600.48 1977.1 C 1593.17 1974.77 1586.87 1969.86 1583.56 1962.84 C 1578.93 1953 1581.08 1943.85 1584.63 1934.21 C 1607.27 1932.59 1628.63 1928.34 1650.17 1921.26 C 1712.2 1900.88 1766.83 1852.2 1796 1794.26 z"/>
<path transform="translate(0,0)" fill="rgb(254,254,254)" d="M 816.58 65.4181 C 816.851 65.3897 817.12 65.3503 817.391 65.3329 C 970.196 55.5533 1141.75 114.407 1258.32 213.159 C 1383.76 319.428 1459.58 462.798 1473.16 626.995 C 1486.66 790.289 1429.88 951.895 1324.26 1076.21 C 1236.85 1179.1 1120.82 1256.41 988.788 1288.16 C 951.642 1297.09 914.016 1301.75 875.989 1304.82 C 838.698 1305.89 801.384 1305.25 764.32 1300.73 A 635.221 635.221 0 0 1 427.787 1149.13 C 309.632 1046.98 228.384 892.981 217.021 736.614 A 618.167 618.167 0 0 1 368.913 282.725 A 630.92 630.92 0 0 1 733.344 74.9347 C 760.903 69.9131 788.665 67.4177 816.58 65.4181 z"/>
<path transform="translate(0,0)" fill="rgb(0,0,0)" d="M 838.145 118.45 L 840.933 118.384 C 992.92 115.189 1138.46 176.851 1247.48 281.593 C 1352.43 382.428 1411.42 525.988 1414.03 670.877 C 1416.09 785.283 1378.94 896.105 1315.33 990.574 C 1299.84 1013.58 1283.16 1036.43 1263.86 1056.4 C 1245.55 1075.35 1226.56 1094.18 1206.19 1110.93 C 1107.23 1192.25 979.618 1243.06 851.124 1245.24 A 562.936 562.936 0 0 1 452.539 1090.75 A 557.545 557.545 0 0 1 274.448 702.859 C 269.615 550.549 325.789 409.131 429.75 298.509 A 583.909 583.909 0 0 1 838.145 118.45 z"/>
<path transform="translate(0,0)" fill="rgb(254,254,254)" d="M 827.33 168.564 C 919.14 163.839 1016.49 187.009 1097.05 231.168 C 1131.63 250.125 1164.29 273.856 1194.34 299.336 C 1269.65 363.194 1325.43 457.945 1348.97 553.502 C 1356.06 582.327 1359.78 612.41 1362.13 641.964 C 1373.19 780.865 1325.17 910.164 1235.34 1015.18 C 1206.88 1048.45 1174.15 1076.21 1138.13 1100.92 C 1126.47 1108.91 1114.88 1117.28 1102.71 1124.48 C 1028.59 1168.32 945.239 1190.33 859.887 1196.89 A 516.688 516.688 0 0 1 583.872 1128.89 C 552.449 1111.22 523.118 1091.17 496.471 1066.82 C 389.934 969.447 330.79 849.894 324.389 705.502 C 318.256 567.16 368.227 438.957 461.438 337.403 A 527.97 527.97 0 0 1 827.33 168.564 z"/>
<path transform="translate(0,0)" fill="rgb(0,0,0)" d="M 925.704 1174.4 C 927.073 1174.16 927.692 1174.64 928.969 1175.11 L 929.225 1176.94 C 925.047 1181.16 910.788 1180.85 904.758 1181.32 L 901.681 1181.11 L 901.416 1180.07 C 908.556 1176.36 917.8 1175.4 925.704 1174.4 z"/>
<path transform="translate(0,0)" fill="rgb(0,0,0)" d="M 1097.76 245.471 C 1099.53 245.625 1101.31 245.972 1102.99 246.574 C 1116.55 251.443 1171.11 285.524 1175.54 298.126 C 1176.49 300.826 1175.39 302.863 1174.31 305.263 C 1172.65 305.205 1171.36 305.027 1169.78 304.448 C 1162.05 301.6 1143.68 285.639 1136.01 280.132 C 1128.92 275.044 1121.53 270.524 1114.03 266.081 C 1109.13 263.182 1098.26 258.464 1095.97 253.563 C 1095.64 250.427 1096.62 248.305 1097.76 245.471 z"/>
<path transform="translate(0,0)" fill="rgb(0,0,0)" d="M 1277.75 416.498 C 1278.89 416.811 1279.91 417.391 1280.97 417.903 C 1292.76 433.557 1320.74 488.535 1322.69 507.767 C 1321.26 510.228 1318.61 511.115 1316.16 512.509 C 1315.68 512.245 1315.17 512.038 1314.72 511.717 C 1311.1 509.108 1308.83 500.234 1307.2 496.181 C 1300.6 479.721 1293.19 464.101 1284.96 448.387 C 1281.01 440.843 1272.36 430.183 1271.54 422.019 C 1272.96 418.825 1274.82 418.302 1277.75 416.498 z"/>
<path transform="translate(0,0)" fill="rgb(0,0,0)" d="M 1183.76 306.411 C 1198.87 313.336 1255.15 373.748 1261.05 388.688 C 1262.05 391.206 1261.73 392.1 1260.63 394.479 C 1257.83 394.33 1255.65 393.982 1252.96 393.194 C 1238.57 380.082 1226.29 362.338 1212.53 348.093 C 1205.58 340.899 1183.94 324.642 1181.36 316.629 C 1180.2 313.037 1182.22 309.531 1183.76 306.411 z"/>
<path transform="translate(0,0)" fill="rgb(0,0,0)" d="M 679.533 1152.98 C 707.682 1158.51 734.622 1168.43 763.276 1172.54 C 772.171 1173.82 801.426 1174.62 806.914 1179.51 C 806.933 1182.48 806.119 1183.51 804.738 1186.09 C 792.023 1187.63 775.917 1184.71 763.15 1182.88 C 748.01 1180.7 684.281 1169.68 677.127 1160.16 C 677.001 1156.86 677.96 1155.82 679.533 1152.98 z"/>
<path transform="translate(0,0)" fill="rgb(0,0,0)" d="M 885.219 179.855 L 885.759 179.855 C 897.774 179.894 910.332 182.394 922.179 184.355 C 966.674 191.721 1006.95 203.499 1048.15 221.803 C 1056.53 225.527 1067.53 229.067 1074.02 235.6 C 1074.65 238.559 1073.41 239.949 1072.17 242.65 C 1070.95 242.757 1070.98 242.805 1069.54 242.638 C 1060.53 241.592 1033.07 227.859 1022.63 223.761 A 530.609 530.609 0 0 0 979.41 209.275 C 959.704 203.517 940.167 199.166 919.927 195.811 C 909.951 194.157 899.373 193.468 889.559 191.185 C 886.702 190.52 886.433 190.277 884.701 188.047 C 884.087 184.902 884.423 182.937 885.219 179.855 z"/>
<path transform="translate(0,0)" fill="rgb(0,0,0)" d="M 345.802 785.938 C 349.057 785.908 351.78 785.176 354.312 787.698 C 355.526 788.907 368.035 831.366 369.796 836.497 A 520.289 520.289 0 0 0 411.383 928.085 C 415.214 934.768 430.369 955.554 430.476 961.056 C 430.512 962.901 427.909 965.081 426.727 966.466 C 425.058 966.679 424.066 966.696 422.467 966.021 C 417.267 963.829 411.669 953.727 408.681 949.054 C 383.587 909.813 363.433 864.765 350.628 820.009 C 348.085 811.117 341.232 794.153 345.802 785.938 z"/>
<path transform="translate(0,0)" fill="rgb(0,0,0)" d="M 362.057 524.589 C 364.312 525.438 366.614 526.157 368.335 527.924 C 371.766 531.448 366.997 541.254 365.688 545.678 C 350.255 597.804 345.882 654.288 348.1 708.443 C 348.422 716.311 348.663 724.271 349.476 732.105 C 350.281 739.854 353.576 749.932 352.66 757.497 C 352.292 760.545 350.075 761.431 347.837 763.195 C 345.163 763.166 343.523 763.368 341.232 761.805 C 335.568 752.005 335.694 728.578 335.199 716.643 C 332.925 661.849 336.957 609.174 350.322 555.98 C 352.86 545.877 354.863 532.406 362.057 524.589 z"/>
<path transform="translate(0,0)" fill="rgb(0,0,0)" d="M 1324.25 526.572 C 1326.48 526.591 1328.21 526.77 1330.35 527.393 C 1334.73 531.116 1336.73 537.169 1338.28 542.571 C 1354.74 600.017 1355.85 663.95 1347.59 722.753 C 1346.2 732.653 1345.8 745.706 1340.84 754.52 C 1340.2 754.61 1339.55 754.707 1338.91 754.79 C 1335.24 755.264 1333.24 754.813 1330.34 752.498 C 1329.07 749.008 1337.71 692.694 1338.5 683.346 C 1340.89 655.25 1339.32 623.59 1334.99 595.728 C 1332.77 581.458 1320.61 536.897 1324.25 526.572 z"/>
<path transform="translate(0,0)" fill="rgb(0,0,0)" d="M 448.264 990.536 L 449.333 990.542 C 451.276 990.564 454.192 990.409 455.903 991.418 C 460.512 994.134 480.616 1018.67 487.125 1025.3 A 513.215 513.215 0 0 0 531.567 1066.05 C 553.272 1083.52 577.09 1098.39 601.224 1112.26 C 609.872 1117.22 648.374 1134.97 652.024 1138.74 C 652.149 1142.43 650.218 1145.49 648.622 1148.71 C 647.21 1148.5 645.89 1148.27 644.518 1147.87 C 632.719 1144.41 620.446 1136.89 609.574 1131.11 C 555.83 1102.52 508.867 1068.44 467.652 1023.57 C 460.967 1016.29 451.954 1007.95 447.699 998.945 C 446.023 995.399 446.995 993.806 448.264 990.536 z"/>
<path transform="translate(0,0)" fill="rgb(0,0,0)" d="M 1012.71 228.747 C 1029.92 229.373 1092.51 263.021 1110.69 273.875 A 512.659 512.659 0 0 1 1148.88 299.389 C 1244.91 369.281 1305.59 477.549 1323.67 594.163 C 1325.81 607.969 1332.21 652.371 1324.32 663.197 L 1319.45 663.255 C 1317.12 661.946 1315.89 661.232 1314.86 658.665 C 1314.29 657.245 1311.2 607.718 1310.11 599.585 A 471.68 471.68 0 0 0 1279.75 487.737 C 1252.74 422.166 1202.89 357.967 1147.52 313.811 C 1128.32 298.503 1106.7 285.069 1085.17 273.31 C 1068.83 264.386 1051.21 255.991 1034.02 248.853 C 1028.73 246.658 1023.15 245.229 1017.9 242.983 C 1013.67 241.174 1010.79 240.019 1009 235.613 C 1009.71 231.979 1010.35 231.436 1012.71 228.747 z"/>
<path transform="translate(0,0)" fill="rgb(0,0,0)" d="M 357.46 618.858 C 359.315 618.843 361.801 618.589 363.582 619.03 C 365.73 619.562 367.027 620.711 367.648 622.847 C 369.692 629.876 365.428 660.962 365.239 670.671 C 365.019 681.961 365.631 693.362 366.412 704.624 C 371.63 779.912 394.745 851.185 431.797 916.768 A 475.735 475.735 0 0 0 669.757 1127.21 C 690.925 1135.54 712.466 1140.43 734.238 1146.67 C 737.52 1147.61 738.28 1147.42 739.932 1150.43 C 739.787 1153.56 738.767 1155.07 737.084 1157.56 C 717.129 1161.23 665.079 1140.53 645.438 1131.76 C 523.378 1077.26 432.439 973.68 384.753 849.877 A 478.422 478.422 0 0 1 352.499 654.599 C 353.089 643.396 352.928 629.058 357.46 618.858 z"/>
<path transform="translate(0,0)" fill="rgb(0,0,0)" d="M 796.968 398.5 C 821.381 397.135 846.247 397.838 870.7 398.371 C 971.005 400.559 1143.43 413.354 1231.34 458.414 C 1244.46 465.136 1259.76 474.877 1264.16 489.827 C 1266.31 497.141 1264.93 504.427 1261.95 511.302 C 1254.57 528.315 1231.59 557.966 1220.07 574.621 A 8216.15 8216.15 0 0 1 1087.99 759.063 C 1075.06 776.924 1056.27 797.509 1046.53 816.842 L 1045.86 818.197 C 1046.6 822.02 1047.46 825.932 1047.79 829.814 C 1048.11 833.654 1047.62 837.595 1046.02 841.118 C 1039.85 854.655 1027.99 867.894 1019.66 880.32 C 1006.62 899.752 994.782 921.974 979.804 939.94 C 983.626 944.166 987.531 948.628 989.012 954.272 C 989.826 957.376 989.975 961 988.957 964.075 C 984.798 976.631 972.827 991.847 965.818 1003.34 C 957.719 1016.62 950.392 1030.34 942.082 1043.49 C 945.299 1046.58 948.488 1049.92 950.576 1053.91 C 953.225 1058.97 953.83 1064.62 951.763 1070 C 947.198 1081.87 934.671 1086.98 923.898 1091.59 C 916.47 1103.96 898.086 1141.37 888.564 1147.98 C 882.614 1150.74 876.732 1152.78 870.324 1154.18 C 857.494 1156.98 841.77 1157.78 830.417 1150.2 C 811.902 1137.82 806.548 1109.78 791.381 1094.01 C 780.288 1082.47 765.408 1080.2 762.329 1061.47 C 761.033 1053.58 764.861 1048.62 769.308 1042.66 C 760.61 1025.28 750.303 1008.42 739.599 992.214 C 734.533 984.543 728.452 977.267 724.038 969.217 C 722.362 966.16 720.666 962.988 720.836 959.417 C 721.327 949.076 728.917 942.118 735.936 935.523 C 720.898 913.31 703.268 892.599 687.988 870.492 L 527.208 642.762 L 469.799 561.915 C 461.208 549.84 453.042 534.739 442.13 524.775 C 432.752 516.21 424.928 508.039 424.671 494.395 C 424.504 485.56 429.571 477.529 435.568 471.424 C 470.562 435.803 598.043 414.564 650.551 408.331 C 698.887 402.593 748.313 399.51 796.968 398.5 z"/>
<path transform="translate(0,0)" fill="rgb(254,254,254)" d="M 804.922 1096 C 841.167 1103.13 873.992 1102.13 910.273 1096.31 L 896.038 1120.58 C 892.881 1125.92 889.197 1131.04 885.74 1136.2 C 866.52 1142.08 851.387 1144.06 832.149 1137.36 C 822.684 1123.92 814.035 1109.71 804.922 1096 z"/>
<path transform="translate(0,0)" fill="rgb(254,254,254)" d="M 958.648 991.165 C 959.374 997.006 938.332 1029.6 934.032 1036.41 C 926.363 1030.98 917.184 1027.33 908.208 1024.71 C 867.76 1012.93 815.706 1015.27 778.35 1035.52 C 775.812 1030.32 772.142 1025.51 768.93 1020.7 C 763.126 1010.89 756.877 1001.33 750.772 991.709 A 326.74 326.74 0 0 0 958.648 991.165 z"/>
<path transform="translate(0,0)" fill="rgb(254,254,254)" d="M 697.354 864.71 C 703.536 866.815 709.599 869.942 715.696 872.37 C 787.046 900.788 891.127 901.358 965.21 882.887 C 982.96 878.462 999.699 872.092 1016.46 864.909 C 1008.68 878.25 999.609 891.037 991.102 903.935 C 984.615 913.827 978.105 923.59 970.992 933.049 C 960.2 927.843 949.282 922.617 937.836 918.997 C 879.021 900.396 799.371 901.817 744.116 930.316 C 729.064 908.109 711.268 887.689 697.354 864.71 z"/>
<path transform="translate(0,0)" fill="rgb(254,254,254)" d="M 840.803 1028.41 C 867.87 1025.41 899.151 1029.43 923.639 1041.68 C 930.118 1044.93 941.099 1050.94 942.761 1058.52 C 943.454 1061.68 942.877 1064.51 940.929 1067.07 C 930.937 1080.2 892.578 1084.87 876.599 1086.88 C 848.764 1088.31 803.195 1088.54 780.275 1070.4 C 777.006 1067.81 772.612 1063.48 772.489 1059.04 C 772.402 1055.87 774.037 1052.98 776.04 1050.64 C 789.803 1034.56 821.175 1029.97 840.803 1028.41 z"/>
<path transform="translate(0,0)" fill="rgb(254,254,254)" d="M 1227.68 541.033 L 1228.5 542.339 A 2762.18 2762.18 0 0 1 1129.9 680.456 C 1130.11 670.442 1129.42 662.697 1123.04 654.44 C 1096.77 620.446 1008.88 606.62 966.73 601.261 C 939.718 598.127 912.269 596.594 885.099 595.507 C 912.681 591.915 947.036 592.687 975.681 590.886 C 1057.45 585.747 1151.96 572.306 1227.68 541.033 z"/>
<path transform="translate(0,0)" fill="rgb(254,254,254)" d="M 466.599 540.147 C 505.739 558.317 544.852 566.967 587.16 574.407 C 667.388 588.516 748.008 592.137 829.282 594.48 C 810.306 597.639 788.154 596.731 768.631 598.23 A 669.351 669.351 0 0 0 660.688 615.564 C 640.666 620.745 619.827 628.687 602.751 640.524 C 593.712 646.788 583.525 655.549 581.858 667.028 C 579.335 684.394 600.215 723.346 610.324 737.521 C 612.363 740.381 616.434 745.355 616.363 748.8 C 610.79 744.447 606.198 734.611 601.88 728.667 L 522.085 617.538 C 505.38 594.266 487.518 571.702 470.987 548.355 C 469.093 545.681 467.711 543.237 466.599 540.147 z"/>
<path transform="translate(0,0)" fill="rgb(254,254,254)" d="M 604.949 707.462 C 618.357 713.117 630.158 721.631 644.12 726.452 C 747.679 762.208 944.247 761.253 1049.89 732.555 C 1070.64 726.919 1090.52 718.587 1109.8 709.155 C 1097.66 730.266 1073.21 759.915 1057.91 780.348 A 1510.72 1510.72 0 0 0 1038.1 806.309 C 1028.35 795.038 1015.08 787.57 1001.57 781.702 C 923.974 747.991 793.732 747.592 715.392 779.219 C 696.223 786.958 678.172 798.486 669.912 818.201 C 662.001 808.012 638.192 768.281 630.855 763.096 C 628.978 761.769 626.758 760.624 624.772 759.44 C 625.605 759.156 626.802 758.776 627.56 758.386 C 629.975 757.144 630.196 756.646 631.03 754.232 C 629.501 742.776 611.223 718.961 604.949 707.462 z"/>
<path transform="translate(0,0)" fill="rgb(254,254,254)" d="M 836.038 917.413 C 836.318 917.378 836.596 917.331 836.877 917.307 C 873.962 914.132 944.321 921.981 973.071 946.937 C 976.724 950.107 981.091 955.012 980.983 960.201 C 980.922 963.13 979.382 965.856 977.43 967.948 C 959.889 986.748 901.389 992.993 875.383 994.22 C 836.126 997.64 780.259 991.746 744.984 974.77 C 739.758 972.254 732.75 968.343 731.337 962.177 C 730.315 957.719 732.707 953.313 735.425 949.969 C 755.74 924.979 806.116 920.001 836.038 917.413 z"/>
<path transform="translate(0,0)" fill="rgb(254,254,254)" d="M 826.402 766.583 C 878.962 762.774 978.088 768.99 1019.88 802.219 C 1027.14 807.989 1035.72 817.317 1036.5 826.943 C 1036.92 832.138 1034.81 836.651 1031.42 840.486 C 1005.4 869.936 923.867 877.125 885.172 879.813 C 832.508 881.977 730.15 877.606 688.885 843.206 C 683.852 839.01 679.133 833.623 678.7 826.783 C 678.256 819.765 682.405 812.907 686.91 807.862 C 712.704 778.974 788.143 768.908 826.402 766.583 z"/>
<path transform="translate(0,0)" fill="rgb(254,254,254)" d="M 846.075 604.461 C 918.297 603.597 1009.72 608.86 1077.11 636.005 C 1087.66 640.254 1099.18 645.159 1107.97 652.555 C 1113.95 657.583 1119.39 664.208 1119.93 672.328 C 1120.33 678.456 1117.08 683.801 1112.94 688.04 C 1072.94 728.957 922.349 737.528 866.01 738.006 C 801.287 738.232 653.143 732.991 602.961 690.366 C 597.514 685.739 592.292 679.628 591.926 672.145 C 591.608 665.653 595.188 659.909 599.587 655.442 C 642.474 611.886 785.567 605.457 846.075 604.461 z"/>
<path transform="translate(0,0)" fill="rgb(254,254,254)" d="M 829.788 407.472 C 939.341 406.51 1082.13 416.713 1186.45 450.583 C 1206.28 457.023 1229.18 464.41 1244.88 478.629 C 1249.84 483.122 1254.3 489.087 1254.48 496.049 C 1254.64 502.522 1251.18 507.986 1246.76 512.422 C 1191.98 567.413 940.724 578.555 861.25 578.949 C 751.178 579.969 637.461 574.959 530.26 548.432 C 502.218 541.493 468.358 532.511 445.842 513.976 C 439.997 509.165 434.22 502.554 433.688 494.627 C 433.267 488.366 436.432 483.102 440.692 478.778 C 449.757 469.579 463.475 463.647 475.085 458.479 C 512.277 441.922 553.462 433.208 593.422 426.443 C 672.107 413.123 750.187 409.02 829.788 407.472 z"/>
</svg>