<svg preserveAspectRatio="xMidYMid meet" version="1.1" xmlns="http://www.w3.org/2000/svg" style="display: block;" viewBox="0 0 2048 2048" width="1024" height="1024">
<defs>
	<linearGradient id="Gradient1" gradientUnits="userSpaceOnUse" x1="300.942" y1="1673.94" x2="414.018" y2="1676.12">
		<stop class="stop0" offset="0" stop-opacity="1" stop-color="rgb(133,155,199)"/>
		<stop class="stop1" offset="1" stop-opacity="1" stop-color="rgb(162,188,214)"/>
	</linearGradient>
</defs>
<path transform="translate(0,0)" fill="rgb(101,111,145)" d="M 0 0 L 2048 0 L 2048 2048 L 0 2048 L 0 0 z"/>
<path transform="translate(0,0)" fill="rgb(249,247,244)" d="M 1449.8 1146.83 C 1450.92 1146.86 1451.37 1146.85 1452.57 1147.03 C 1455.94 1147.54 1458.38 1148.66 1460.3 1151.58 C 1462.04 1154.25 1462.49 1157.4 1461.58 1160.46 C 1460.36 1164.55 1458 1166.39 1454.4 1168.39 C 1453.02 1168.3 1451.53 1168.2 1450.18 1167.91 C 1447.51 1167.33 1444.63 1165.61 1443.23 1163.18 C 1441.81 1160.7 1441.37 1158.32 1442.1 1155.55 C 1443.22 1151.25 1446.23 1149.1 1449.8 1146.83 z"/>
<path transform="translate(0,0)" fill="rgb(249,247,244)" d="M 1416.09 211.914 C 1416.5 211.923 1416.91 211.912 1417.32 211.94 C 1420.63 212.172 1424.03 213.276 1426.15 215.987 C 1428.34 218.803 1429.23 221.927 1428.4 225.464 C 1427.37 229.882 1424.8 231.75 1421.11 233.999 C 1419.94 233.956 1419.17 233.956 1417.97 233.765 C 1414.51 233.215 1411.74 231.908 1409.81 228.814 C 1408.26 226.331 1408.01 223.606 1408.68 220.825 C 1409.82 216.145 1412.24 214.396 1416.09 211.914 z"/>
<path transform="translate(0,0)" fill="rgb(249,247,244)" d="M 1906.55 1168.99 C 1911.6 1168.71 1915.54 1168.63 1919.41 1172.28 C 1921.68 1174.41 1923.2 1177.01 1922.87 1180.25 C 1922.45 1184.49 1919.73 1186.79 1916.55 1189.2 C 1915.12 1189.48 1915.06 1189.52 1913.44 1189.66 C 1909.78 1189.98 1906.31 1189.03 1903.74 1186.29 C 1901.8 1184.23 1901.01 1181.68 1901.15 1178.9 C 1901.38 1174.47 1903.46 1171.94 1906.55 1168.99 z"/>
<path transform="translate(0,0)" fill="rgb(249,247,244)" d="M 103.006 533.136 C 104.672 532.922 106.362 532.7 108.044 532.681 C 111.333 532.644 114.319 534.102 116.444 536.584 C 118.504 538.989 119.37 541.725 118.876 544.881 C 118.19 549.266 115.847 551.778 112.467 554.406 C 111.52 554.53 110.574 554.671 109.621 554.732 C 106.121 554.958 102.588 553.906 100.04 551.444 C 98.0025 549.474 96.8932 546.84 96.9447 544.003 C 97.0332 539.122 99.5257 536.22 103.006 533.136 z"/>
<path transform="translate(0,0)" fill="rgb(249,247,244)" d="M 326.884 114.884 C 331.195 114.942 335.245 115.377 338.147 118.996 C 340.106 121.44 340.585 124.523 339.886 127.52 C 338.654 132.803 335.434 135.343 331.064 138.159 C 329.549 138.177 327.979 138.207 326.479 137.97 C 323.896 137.564 321.009 135.851 319.59 133.595 C 317.888 130.889 317.478 128.096 318.269 124.996 C 319.542 120.008 322.661 117.459 326.884 114.884 z"/>
<path transform="translate(0,0)" fill="rgb(249,247,244)" d="M 1695.1 987.026 C 1696.98 987.075 1698.96 987.063 1700.8 987.463 C 1703.94 988.145 1706.91 990.732 1708.37 993.542 C 1709.82 996.333 1709.89 999.568 1708.71 1002.46 C 1707.01 1006.64 1704.12 1008.04 1700.21 1009.72 C 1698.88 1009.69 1697.55 1009.68 1696.24 1009.46 C 1692.85 1008.88 1689.2 1006.99 1687.56 1003.83 C 1686.21 1001.2 1685.94 998.718 1686.75 995.888 C 1688.07 991.273 1691.17 989.366 1695.1 987.026 z"/>
<path transform="translate(0,0)" fill="rgb(249,247,244)" d="M 183.955 1906.93 C 184.924 1906.93 185.895 1906.91 186.862 1906.97 C 190.438 1907.2 193.841 1908.62 196.166 1911.42 C 197.976 1913.6 198.766 1916.21 198.461 1919.03 C 197.893 1924.27 194.995 1926.78 191.045 1929.89 C 188.873 1930.02 186.59 1930.23 184.419 1930.03 C 181.708 1929.79 179.354 1927.97 177.652 1925.97 C 175.564 1923.51 174.977 1920.13 175.603 1917.04 C 176.64 1911.92 179.745 1909.59 183.955 1906.93 z"/>
<path transform="translate(0,0)" fill="rgb(249,247,244)" d="M 1830.82 641.108 C 1832.71 641.023 1834.66 640.906 1836.55 641.058 C 1839.7 641.311 1842.64 643.081 1844.65 645.465 C 1846.78 647.98 1847.56 650.475 1847.2 653.798 C 1846.73 658.137 1843.68 660.851 1840.41 663.305 C 1838.45 663.622 1836.42 663.992 1834.43 664.038 C 1831.88 664.098 1828.95 662.746 1827.24 660.845 C 1824.75 658.077 1823.89 654.941 1824.38 651.315 C 1825.04 646.437 1827.08 644.122 1830.82 641.108 z"/>
<path transform="translate(0,0)" fill="rgb(249,247,244)" d="M 1848.14 156.085 C 1850.02 155.992 1852.21 155.74 1854.05 156.022 C 1856.96 156.464 1859.71 158.67 1861.29 161.109 C 1863.12 163.927 1863.61 167.259 1862.75 170.502 C 1861.61 174.808 1859 176.914 1855.36 179.173 C 1853.58 179.215 1851.74 179.287 1849.97 179.077 C 1846.93 178.716 1843.85 176.818 1842.01 174.384 C 1840.25 172.054 1839.61 169.321 1840.09 166.448 C 1840.98 161.131 1843.97 158.973 1848.14 156.085 z"/>
<path transform="translate(0,0)" fill="rgb(249,247,244)" d="M 569.604 115 C 571.869 114.767 574.171 114.596 576.442 114.875 C 579.547 115.257 582.388 117.362 584.187 119.871 C 586.112 122.558 586.763 125.703 586.135 128.936 C 585.197 133.773 582.21 136.46 578.248 139.021 C 576.264 139.176 574.187 139.231 572.203 139.051 C 568.84 138.746 566.045 136.664 564.108 133.973 A 11.3211 11.3211 0 0 1 562.132 125.078 C 563.034 120.278 565.682 117.619 569.604 115 z"/>
<path transform="translate(0,0)" fill="rgb(249,247,244)" d="M 1294.81 1116.46 L 1297.37 1118.12 C 1301.75 1125.62 1301.05 1137.38 1301.45 1145.97 C 1308.9 1145.91 1320.59 1144.82 1326.51 1149.84 L 1326.13 1151.51 C 1318.79 1155.99 1309.77 1155.25 1301.45 1155.47 C 1300.93 1164.47 1301.16 1174.86 1298.84 1183.55 C 1298.04 1186.53 1297.26 1187.07 1294.65 1188.6 C 1289.73 1180.27 1290.49 1165.18 1289.84 1155.74 C 1280.86 1155.16 1270.96 1155.16 1262.78 1151 L 1262.52 1149.59 C 1269.82 1144.96 1281.58 1145.72 1290.05 1145.47 C 1291.33 1135.6 1290.14 1125.59 1294.81 1116.46 z"/>
<path transform="translate(0,0)" fill="rgb(249,247,244)" d="M 1589.81 214.204 L 1593.44 214.861 C 1598.52 220.733 1593.95 231.424 1596.65 238.257 C 1599.41 245.232 1617.16 243.056 1623.97 245.837 C 1626.13 246.722 1626.31 247.062 1627.16 249.09 C 1622.04 253.361 1604.15 253.75 1597.02 254.89 C 1596.1 265.74 1595.89 276.832 1594.08 287.563 L 1591.66 287.402 C 1585.04 280.747 1589.4 265.141 1586.43 256.281 C 1580.92 250.566 1566.1 252.805 1558.38 250.491 L 1557.54 247.418 L 1556.44 248.961 L 1557.57 247.383 C 1566.18 243.739 1576.75 243.227 1585.96 242.112 C 1586.58 232.846 1586.74 223.049 1589.81 214.204 z"/>
<path transform="translate(0,0)" fill="rgb(249,247,244)" d="M 1034.5 1738.25 C 1037.75 1738.46 1041.31 1738.73 1044.23 1740.28 C 1048.89 1742.75 1052.44 1747.37 1053.81 1752.43 A 20.612 20.612 0 0 1 1051.23 1768.98 C 1047.59 1774.59 1042.64 1776.55 1036.34 1777.91 C 1032.04 1777.33 1028.06 1776.81 1024.4 1774.31 C 1020.03 1771.34 1016.8 1766.55 1015.88 1761.33 A 18.7864 18.7864 0 0 1 1019.14 1747.02 C 1023.08 1741.53 1028.08 1739.47 1034.5 1738.25 z"/>
<path transform="translate(0,0)" fill="rgb(249,247,244)" d="M 1444.2 117.176 C 1447.84 116.86 1452.09 116.474 1455.6 117.593 C 1460.52 119.158 1465.02 122.993 1467.28 127.631 A 18.5998 18.5998 0 0 1 1467.93 142.424 C 1465.29 149.352 1459.94 152.512 1453.41 155.231 C 1450.11 155.521 1446.77 155.776 1443.52 154.971 C 1438.56 153.742 1434.2 150.74 1431.64 146.273 C 1429.01 141.685 1428.63 136.233 1430.23 131.232 C 1432.59 123.876 1437.5 120.378 1444.2 117.176 z"/>
<path transform="translate(0,0)" fill="rgb(249,247,244)" d="M 174.398 1134.25 C 177.449 1134.4 180.938 1134.58 183.841 1135.54 C 188.513 1137.09 192.533 1141.24 194.464 1145.69 C 196.838 1151.15 196.597 1157.64 194.118 1163.03 C 191.066 1169.66 186.201 1172.9 179.487 1175.18 C 174.795 1175.25 170.818 1175.26 166.61 1172.95 A 20.2746 20.2746 0 0 1 156.707 1160.36 A 20.4507 20.4507 0 0 1 158.872 1144.65 C 162.461 1138.61 167.797 1135.89 174.398 1134.25 z"/>
<path transform="translate(0,0)" fill="rgb(249,247,244)" d="M 1880.39 1873.18 C 1885.03 1873.05 1888.99 1873.49 1893.04 1875.92 A 20.1709 20.1709 0 0 1 1902.64 1889.67 A 19.9362 19.9362 0 0 1 1899.37 1904.99 C 1895.69 1910.32 1890.62 1912.45 1884.49 1913.72 C 1881.07 1913.66 1877.62 1913.38 1874.44 1912.03 C 1869.53 1909.94 1865.45 1906.28 1863.51 1901.25 C 1861.6 1896.28 1861.93 1890.76 1864.16 1885.96 C 1867.58 1878.61 1873.17 1875.86 1880.39 1873.18 z"/>
<path transform="translate(0,0)" fill="rgb(249,247,244)" d="M 949.219 73.0803 C 953.178 72.7766 957.601 72.4404 961.389 73.8494 C 966.342 75.6916 970.52 79.8298 972.548 84.6812 A 20.7575 20.7575 0 0 1 972.229 101.475 C 969.317 107.812 964.594 110.761 958.286 113.129 C 955.084 113.377 951.331 113.532 948.199 112.752 C 942.719 111.386 937.482 107.376 934.911 102.343 A 18.8815 18.8815 0 0 1 934.087 87.0946 C 936.839 79.7737 942.485 76.344 949.219 73.0803 z"/>
<path transform="translate(0,0)" fill="rgb(249,247,244)" d="M 1572.48 486.102 C 1576.75 485.904 1580.63 486.016 1584.58 487.846 A 20.1113 20.1113 0 0 1 1595.12 499.408 A 21.3815 21.3815 0 0 1 1593.69 516.76 C 1590.35 522.799 1585.34 525.634 1578.97 527.68 C 1575.6 527.703 1571.97 527.412 1568.81 526.156 C 1563.51 524.047 1559.03 519.296 1556.96 514.017 A 20.3999 20.3999 0 0 1 1557.28 498.057 C 1560.37 491.285 1565.75 488.429 1572.48 486.102 z"/>
<path transform="translate(0,0)" fill="rgb(249,247,244)" d="M 674.301 1881.17 C 678.379 1881.01 682.531 1881.16 686.393 1882.65 C 691.801 1884.72 696.262 1889.34 698.234 1894.78 C 700.24 1900.31 699.856 1906.77 697.017 1911.95 C 693.885 1917.65 688.953 1920.91 682.91 1922.9 C 678.731 1922.97 674.681 1922.53 670.815 1920.83 A 22.1491 22.1491 0 0 1 658.686 1907.87 A 20.0342 20.0342 0 0 1 659.829 1891.95 C 663.05 1885.82 667.996 1883.35 674.301 1881.17 z"/>
<path transform="translate(0,0)" fill="rgb(249,247,244)" d="M 150.554 1529.16 C 154.477 1529.01 157.961 1529.35 161.598 1530.97 C 166.485 1533.14 170.185 1537.01 171.895 1542.1 A 22.0316 22.0316 0 0 1 170.331 1559.42 C 166.792 1566.12 161.656 1568.97 154.651 1571.11 C 150.889 1571.08 147.193 1570.74 143.681 1569.28 C 138.625 1567.17 134.274 1563.43 132.21 1558.28 A 19.253 19.253 0 0 1 132.656 1542.91 C 136.34 1535.01 142.814 1531.94 150.554 1529.16 z"/>
<path transform="translate(0,0)" fill="rgb(249,247,244)" d="M 1866.06 384.1 C 1870.33 383.712 1874.79 383.286 1878.87 384.93 C 1883.76 386.899 1887.77 391.128 1889.73 395.979 C 1892 401.57 1891.95 408.273 1889.51 413.797 C 1886.63 420.284 1882.27 423.26 1875.92 425.909 C 1871.86 426.185 1867.67 426.54 1863.77 425.135 C 1858.73 423.32 1854.43 419.323 1852.18 414.47 C 1849.68 409.052 1849.59 402.452 1851.86 396.943 C 1854.67 390.127 1859.47 386.844 1866.06 384.1 z"/>
<path transform="translate(0,0)" fill="rgb(249,247,244)" d="M 197.805 132.805 C 199.724 132.949 202.592 132.944 204.053 134.233 C 210.04 139.516 207.49 178.993 207.441 188.126 C 221.907 188.039 239.419 186.088 253.558 188.685 C 256.453 189.217 259.27 189.912 261.078 192.406 C 260.913 194.838 260.809 195.397 258.86 197.154 C 252.778 202.636 217.142 199.989 207.066 199.92 C 207.203 212.758 209.719 246.911 206.428 257.132 C 205.72 259.332 204.669 260.622 203.229 262.373 L 199.028 260.862 C 191.89 253.809 194.807 212.268 194.737 201.004 C 181.496 200.197 151.145 203.331 141.065 196.362 C 139.874 194.231 139.724 194.282 140.222 191.922 C 148.725 185.412 183.127 188.23 194.974 188.332 C 195.041 176.572 191.719 141.516 197.805 132.805 z"/>
<path transform="translate(0,0)" fill="rgb(249,247,244)" d="M 1440.03 722.083 C 1441.69 722.253 1442.79 722.253 1444.18 723.298 C 1449.06 726.96 1450.66 769.515 1451.3 778.042 C 1465.93 779.036 1481.76 778.467 1495.96 782.388 C 1498.97 783.22 1502.97 784.253 1504.63 787.113 L 1503.48 788.899 C 1489.73 796.54 1466.79 795.163 1451.06 796.079 C 1450.32 814.263 1449.85 833.423 1447.06 851.398 C 1444.55 852.31 1442.97 852.835 1440.47 851.752 C 1435.94 844.952 1434.82 807.44 1433.8 796.793 C 1422.47 796.073 1410.92 796.771 1399.65 795.339 C 1394.65 794.702 1387.59 793.543 1384.3 789.356 L 1384.93 787.457 C 1396.53 779.028 1418.94 779.647 1432.82 778.279 C 1434.32 760.668 1433.77 738.543 1440.03 722.083 z"/>
<path transform="translate(0,0)" fill="rgb(249,247,244)" d="M 1778.03 1048.22 C 1779.48 1048.62 1780.2 1048.91 1781.39 1049.91 C 1786.74 1054.43 1788.12 1098.72 1789.21 1108.53 C 1798.88 1108.8 1830.15 1109.6 1836.56 1116.17 C 1837.69 1117.32 1837.25 1117.14 1837.05 1119.01 C 1828.51 1126.84 1800.61 1126.02 1789.07 1126 C 1788.84 1138.77 1788.38 1173.45 1783.48 1183.91 C 1782.04 1186.98 1780.3 1187.08 1777.34 1187.97 C 1770.27 1173.62 1771.14 1143.27 1770.79 1126.85 C 1756.37 1126.45 1733.64 1126.63 1720.51 1121.73 C 1717.92 1120.77 1717.19 1119.89 1716.19 1117.4 L 1717.3 1115.74 C 1730.24 1110.03 1756.18 1110.14 1770.97 1108.86 C 1770.98 1093.37 1770.6 1077.43 1772.22 1062.02 C 1772.85 1056.06 1773.16 1052.19 1778.03 1048.22 z"/>
<path transform="translate(0,0)" fill="rgb(41,42,102)" d="M 1548.28 1315.5 C 1562.71 1313.76 1578.61 1314.55 1593.03 1315.69 C 1675.3 1322.24 1742.41 1363.46 1795.2 1425.35 C 1822.85 1412.59 1854.35 1401.23 1884.22 1394.99 C 1901.67 1391.35 1927.35 1388.01 1942.94 1398.7 C 1950.14 1403.63 1955.14 1410.93 1956.72 1419.55 C 1963.98 1459.15 1912.91 1529.6 1888.36 1560.31 C 1878.55 1572.59 1867.05 1583.92 1857.99 1596.73 L 1857.3 1597.73 C 1853.85 1675.61 1835.43 1743.05 1781.7 1802.04 C 1724.7 1864.62 1658.47 1891.83 1575.25 1895.62 C 1538.81 1897.76 1494.15 1890.28 1461.33 1874.52 C 1411.32 1897.58 1337.51 1932.26 1282.93 1930.45 C 1268 1929.95 1249.48 1927.09 1239.01 1915.39 C 1231.81 1907.33 1228.89 1895.18 1229.4 1884.61 C 1231.6 1838.74 1285.44 1780.31 1318.16 1750.58 C 1299.1 1710.58 1284.2 1671.34 1280.49 1626.74 A 290.96 290.96 0 0 1 1347.59 1415.76 C 1397.71 1356.7 1471.58 1321.74 1548.28 1315.5 z"/>
<path transform="translate(0,0)" fill="rgb(199,133,121)" d="M 1804.46 1646 L 1836.65 1614.88 C 1836 1626.2 1834.56 1637.37 1833.09 1648.61 L 1831.42 1660.61 C 1826.86 1658.31 1822.37 1656.21 1817.6 1654.36 C 1813.3 1651.39 1809.04 1648.53 1804.46 1646 z"/>
<path transform="translate(0,0)" fill="rgb(224,154,133)" d="M 1740.23 1812.46 L 1739.79 1813.98 C 1722.72 1832.04 1696.16 1846.06 1673.48 1855.93 C 1673.36 1851.27 1677.31 1846.12 1680.25 1842.68 C 1693.6 1827.09 1719.86 1814.18 1740.23 1812.46 z"/>
<path transform="translate(0,0)" fill="rgb(101,111,145)" d="M 1839.73 1466.31 C 1844.29 1465.56 1852.6 1465.55 1856.64 1467.85 C 1858.91 1469.13 1860.02 1471.12 1860.57 1473.59 C 1863.05 1484.73 1849.46 1499.54 1843.01 1507.81 C 1841.73 1509.63 1840.72 1510.63 1838.87 1511.86 C 1832.8 1500.06 1828.94 1482.63 1824.24 1469.6 C 1829.28 1468.08 1834.56 1467.29 1839.73 1466.31 z"/>
<path transform="translate(0,0)" fill="rgb(101,111,145)" d="M 1350.88 1796.72 C 1362.28 1806.28 1372.46 1819.24 1382.81 1830.08 C 1376.78 1832.13 1370.65 1833.85 1364.53 1835.62 C 1357.31 1837.27 1344.39 1840.77 1337.71 1836.7 C 1335.38 1835.28 1334.39 1833.34 1334.01 1830.72 C 1332.54 1820.59 1345.33 1804.93 1350.88 1796.72 z"/>
<path transform="translate(0,0)" fill="rgb(199,133,121)" d="M 1521.04 1841.88 C 1525.94 1842.23 1531.64 1843.81 1536.16 1845.6 C 1550.14 1851.18 1557.59 1862.81 1563.12 1876.08 C 1551.41 1875.23 1539.87 1873.85 1528.24 1872.25 C 1512.44 1870.5 1497.17 1867.09 1481.85 1862.94 C 1494.5 1855.09 1507.67 1848.41 1521.04 1841.88 z"/>
<path transform="translate(0,0)" fill="rgb(199,133,121)" d="M 1600.27 1336.67 C 1634.07 1341.48 1662.56 1349.29 1692.16 1366.68 L 1684.03 1372.95 C 1681.03 1374.68 1678.02 1376.35 1674.79 1377.62 C 1661 1382.99 1645.58 1381.33 1632.33 1375.24 C 1615.21 1367.38 1606.59 1353.49 1600.27 1336.67 z"/>
<path transform="translate(0,0)" fill="rgb(199,133,121)" d="M 1303.76 1549.95 A 119.577 119.577 0 0 1 1314.38 1557.41 A 75.202 75.202 0 0 1 1341.69 1607.32 C 1344.08 1628.38 1337.95 1646.95 1324.84 1663.31 C 1320.3 1668.5 1314.71 1672.44 1309.04 1676.27 C 1298.58 1636.94 1294.54 1589.68 1303.76 1549.95 z"/>
<path transform="translate(0,0)" fill="rgb(199,133,121)" d="M 1782.19 1441.66 C 1782.54 1441.81 1782.94 1441.87 1783.25 1442.1 C 1796.58 1452.03 1816.98 1511.7 1822.19 1531.09 C 1819 1534.65 1815.41 1537.9 1811.99 1541.24 L 1801.32 1540.83 C 1791.46 1539.15 1783.08 1535.78 1776.04 1528.4 C 1765.35 1517.19 1760.06 1499.21 1760.5 1483.91 C 1761.02 1466.04 1769.58 1453.38 1782.19 1441.66 z"/>
<path transform="translate(0,0)" fill="rgb(199,133,121)" d="M 1652.75 1644.32 C 1669.49 1642.99 1681.28 1645.47 1696.56 1652.56 C 1672.08 1673.43 1643.78 1691.28 1616.99 1709.08 A 1385.07 1385.07 0 0 0 1591.98 1725.78 C 1590.54 1722.1 1589.45 1718.4 1588.9 1714.49 C 1586.91 1700.29 1591.96 1685.2 1600.33 1673.78 C 1612.78 1656.78 1632.31 1647.4 1652.75 1644.32 z"/>
<path transform="translate(0,0)" fill="rgb(199,133,121)" d="M 1739 1700.14 L 1739.84 1701.49 C 1740.77 1712.57 1738.35 1723.99 1734.78 1734.42 C 1727.48 1755.79 1710.47 1776.85 1689.89 1786.63 C 1669.12 1796.51 1647.53 1795.85 1626.28 1788.16 L 1619.29 1785.13 C 1660.64 1758.92 1699.66 1729.21 1739 1700.14 z"/>
<path transform="translate(0,0)" fill="rgb(199,133,121)" d="M 1445.99 1363.89 C 1447.51 1364.97 1447.32 1364.58 1448.14 1365.94 C 1456.27 1379.53 1457.59 1397.39 1453.75 1412.56 C 1448.28 1434.13 1433.33 1453.14 1414.13 1464.21 C 1394.16 1475.72 1373.98 1477.23 1352.03 1471.25 C 1346.73 1469.24 1342.12 1467.09 1337.29 1464.1 C 1365.96 1419.7 1399.07 1388.3 1445.99 1363.89 z"/>
<path transform="translate(0,0)" fill="rgb(224,154,133)" d="M 1794.9 1652.88 C 1805.48 1662.36 1815.1 1667.16 1829.15 1669.81 A 267.137 267.137 0 0 1 1752.82 1801.39 C 1744.08 1802.35 1735.18 1803.4 1726.63 1805.52 C 1693.51 1813.71 1672.62 1833.64 1655.47 1862.07 C 1628.01 1870.58 1601.39 1874.48 1572.74 1875.86 L 1569.29 1864.9 C 1561.97 1848.81 1550.46 1841.15 1534.62 1834.62 C 1557.76 1822.2 1587.64 1807.04 1608.22 1791.14 C 1630.54 1801.71 1649.28 1807.12 1674.02 1801.59 C 1699.58 1795.87 1720.24 1779.57 1733.93 1757.46 C 1745.63 1738.55 1752.25 1714.9 1747.11 1692.84 C 1762.58 1679.01 1778.86 1666.04 1794.9 1652.88 z"/>
<path transform="translate(0,0)" fill="rgb(224,154,133)" d="M 1913.63 1405.45 C 1920.86 1404.86 1930.38 1406.08 1936.47 1410.32 C 1940.97 1413.45 1943.13 1418.19 1943.79 1423.51 C 1948.39 1460.56 1901.98 1518.13 1879.78 1546.48 C 1869.53 1559.57 1857.69 1571.4 1846.14 1583.32 C 1818.88 1611.46 1795.87 1632.55 1765.95 1657.62 C 1750.73 1670.37 1735.84 1683.52 1720.2 1695.76 C 1624.84 1770.4 1514.6 1836.85 1401.97 1881.5 C 1369.15 1894.52 1333.24 1908.24 1297.99 1912.33 C 1284.26 1913.93 1265.79 1914.41 1254.63 1905 C 1250.45 1901.48 1247.66 1896.6 1247.24 1891.11 C 1245 1861.84 1276.36 1822.47 1294.2 1801.45 C 1305.07 1788.7 1315.99 1775.89 1328.17 1764.36 C 1332.42 1770.14 1336.31 1776.18 1340.26 1782.18 A 258.562 258.562 0 0 0 1327.71 1798.68 C 1320.13 1809.71 1311.38 1825.37 1314.48 1839.17 C 1315.69 1844.57 1318.71 1849.31 1323.44 1852.26 C 1334.31 1859.07 1351.17 1856.12 1363.01 1853.44 C 1474.87 1828.14 1662.22 1704.51 1750.08 1628.62 A 726.554 726.554 0 0 0 1840.66 1534.19 C 1849.52 1523.32 1858.85 1512.47 1866.3 1500.56 C 1871.74 1491.86 1877.82 1480.07 1874.98 1469.59 C 1873.58 1464.45 1869.92 1460.66 1865.32 1458.16 C 1850.94 1450.36 1832.13 1455.01 1817.49 1459.68 A 520.738 520.738 0 0 1 1803.94 1435.32 C 1840.09 1421.2 1874.55 1408.72 1913.63 1405.45 z"/>
<path transform="translate(0,0)" fill="rgb(224,154,133)" d="M 1556.26 1335.43 C 1567.74 1334.34 1579.69 1335.45 1591.2 1336.07 C 1594.1 1347.37 1598.14 1357.48 1605.7 1366.54 A 64.6261 64.6261 0 0 0 1649.71 1389.54 C 1670.88 1391.37 1685.8 1384.26 1701.69 1370.9 C 1729.1 1387.25 1755.02 1409.44 1776.27 1433.25 C 1763.16 1443.52 1754.76 1457.51 1751.86 1473.93 C 1748.54 1492.67 1753.45 1513.23 1764.41 1528.73 C 1774.47 1542.95 1787.61 1550.48 1804.7 1553.32 C 1775.14 1588.47 1739.9 1618.11 1703.99 1646.54 C 1699.8 1643.89 1695.47 1641.48 1690.88 1639.59 C 1670.3 1631.1 1647.49 1632.41 1627.15 1641 C 1607.68 1649.22 1591.71 1663.6 1583.78 1683.42 C 1577.43 1699.26 1576.74 1716.14 1583.56 1731.94 C 1558.49 1747.25 1533.46 1762.11 1507.5 1775.93 C 1475.34 1793.66 1442.19 1810.29 1407.68 1823 C 1364.05 1787.62 1329.35 1738.7 1311.92 1685.19 C 1322.09 1679.04 1331.03 1672.22 1337.77 1662.26 C 1349.77 1644.56 1354.14 1621.43 1349.95 1600.52 C 1344.43 1573.03 1328.9 1555.81 1306.17 1540.72 C 1312.32 1516.22 1321.89 1493.69 1333.74 1471.49 C 1338.79 1474.59 1343.84 1477.25 1349.41 1479.31 C 1370.01 1486.95 1392.39 1484.95 1412.15 1475.71 A 94.5767 94.5767 0 0 0 1460.61 1422.86 C 1468.98 1399.61 1465.08 1380.99 1454.89 1359.18 C 1487.97 1344.61 1520.25 1337.4 1556.26 1335.43 z"/>
<path transform="translate(0,0)" fill="rgb(41,42,102)" d="M 1436.38 1653.34 C 1451.29 1651.92 1467.46 1655.9 1480.17 1663.79 C 1495.89 1673.57 1506.27 1689.21 1510.3 1707.18 C 1514.15 1724.38 1511.15 1741.89 1501.46 1756.67 C 1489.98 1774.17 1474.38 1780.88 1454.54 1784.89 C 1435.94 1785.82 1421.03 1783.35 1405.74 1772.22 A 72.5397 72.5397 0 0 1 1376.83 1725.09 C 1374.28 1708.66 1378.48 1690.85 1388.66 1677.6 C 1400.48 1662.22 1417.85 1655.95 1436.38 1653.34 z"/>
<path transform="translate(0,0)" fill="rgb(199,133,121)" d="M 1440.47 1662.42 C 1454.39 1662.91 1467.12 1665.54 1478.54 1674 C 1491.52 1683.6 1499.59 1698.45 1501.64 1714.34 C 1503.57 1729.26 1499.92 1744.1 1490.4 1755.91 C 1479.13 1769.87 1464.7 1774.88 1447.58 1777 C 1432.9 1775.88 1420.06 1771.88 1408.52 1762.5 C 1395.7 1752.08 1386.88 1736.55 1385.44 1720 A 51.4711 51.4711 0 0 1 1397.54 1681.81 C 1409.02 1668.5 1423.55 1663.67 1440.47 1662.42 z"/>
<path transform="translate(0,0)" fill="rgb(41,42,102)" d="M 1571.6 1428.25 C 1590.91 1427.06 1609.1 1430.41 1625.48 1441.18 C 1642.07 1452.08 1652.83 1468.63 1656.83 1488.01 C 1661.01 1508.28 1656.18 1529.03 1644.67 1546.1 C 1632.36 1564.36 1613.68 1575.78 1592.25 1579.96 C 1571.17 1580.78 1553.76 1578.86 1535.74 1566.94 C 1519.11 1555.95 1506.41 1538.42 1502.44 1518.76 C 1498.68 1500.14 1503.11 1479.61 1513.8 1463.96 C 1527.68 1443.64 1547.8 1432.6 1571.6 1428.25 z"/>
<path transform="translate(0,0)" fill="rgb(199,133,121)" d="M 1575.53 1437.31 C 1592.12 1435.61 1610.29 1440.45 1623.66 1450.45 A 64.2976 64.2976 0 0 1 1648.62 1493.73 A 67.2205 67.2205 0 0 1 1634.35 1544.33 C 1621.74 1560.33 1605.31 1568.42 1585.39 1570.87 C 1568.3 1571.08 1552.63 1567.35 1538.68 1557.12 C 1524.39 1546.64 1514.11 1530.66 1511.69 1512.97 C 1509.37 1495.96 1515.72 1477.67 1525.91 1464.12 C 1538.35 1447.6 1555.54 1440.25 1575.53 1437.31 z"/>
<path transform="translate(0,0)" fill="rgb(41,42,102)" d="M 434.314 1132.62 L 433.288 1132.13 C 422.858 1127.22 411.856 1123.57 401.295 1118.93 C 384.278 1111.46 367.59 1102.69 351.4 1093.58 C 277.263 1051.85 221.909 982.219 192.813 902.52 C 151.603 789.637 161.257 660.558 211.954 552.387 A 601.899 601.899 0 0 1 551.631 243.462 C 673.809 199.398 811.832 195.227 930.893 251.396 C 961.466 265.82 992.373 285.332 1017.02 308.573 C 1026.56 317.565 1033.73 329.628 1044.43 337.24 C 1054.95 344.734 1083.18 353.588 1097.59 361.411 C 1167.66 399.435 1223.24 458.404 1250.33 534.077 C 1268.94 586.08 1273.49 646.521 1263.63 700.799 C 1259.9 721.35 1253.63 741.125 1248.76 761.39 C 1243.23 784.431 1240.56 806.634 1230.17 828.398 C 1207.57 875.77 1142.08 928.891 1099.48 958.924 C 1085.76 968.589 1071.2 976.865 1057.36 986.271 C 1068.26 1001.19 1076.02 1018.39 1082.99 1035.45 C 1114.78 1113.29 1122.41 1200.36 1116.92 1283.65 A 829.945 829.945 0 0 1 1111.51 1336.96 C 1109.62 1351.35 1107.09 1365.77 1106.61 1380.28 L 1107.24 1381.52 C 1116.06 1398.65 1137.14 1415.5 1130.9 1437.08 C 1127.06 1450.36 1114.67 1462.09 1102.71 1468.28 C 1079.65 1480.2 1050.97 1478.06 1026.98 1470.18 C 1015.91 1466.55 1005.9 1461.56 996.019 1455.43 C 937.685 1577.29 827.842 1667.38 718.306 1741.77 C 682.548 1766.05 641.285 1793.74 600.445 1808.04 C 589.285 1811.95 577.794 1814.63 566.249 1817.1 C 545.19 1839.4 501.831 1890.95 470.196 1891.41 C 451.794 1891.68 434.853 1880.22 422.438 1867.58 C 396.83 1841.52 387.261 1808.19 379.287 1773.6 L 378.333 1774.25 C 354.377 1790.79 330.453 1820.33 297.826 1815.09 C 279.838 1812.19 263.624 1798.02 253.589 1783.36 C 229.386 1747.98 221.706 1693.17 230.027 1651.69 C 232.89 1637.42 239.731 1627.19 251.899 1619.22 C 269.117 1607.95 289.624 1603.32 306.497 1591.45 C 357.046 1555.87 395.006 1500.5 427.552 1448.85 C 435.294 1436.57 444.703 1423.38 450.475 1410.05 L 449.692 1408.76 L 450.852 1405.84 C 449.114 1405.98 447.528 1406.24 445.82 1406.57 L 439.284 1408.46 C 425.748 1412.35 412.108 1412.07 399.647 1404.88 C 396.333 1402.96 393.337 1400.72 390.335 1398.36 A 101.682 101.682 0 0 1 316.463 1416.21 C 296.979 1413.21 278.413 1402.39 266.858 1386.32 C 256.442 1371.83 251.063 1352.73 253.92 1334.98 C 255.778 1323.43 261.139 1312.51 268.715 1303.65 C 283.367 1286.52 304.225 1277.32 320.264 1262.03 C 337.823 1245.28 351.295 1223.88 367.44 1205.74 C 389.267 1181.22 414.75 1159.06 434.314 1132.62 z"/>
<path transform="translate(0,0)" fill="rgb(101,111,145)" d="M 445.82 1406.57 C 463.068 1392.76 460.281 1383.64 470.896 1368.14 C 473.865 1363.8 478.459 1360.09 482.308 1356.48 C 473.357 1376.1 462.066 1392.11 450.475 1410.05 L 449.692 1408.76 L 450.852 1405.84 C 449.114 1405.98 447.528 1406.24 445.82 1406.57 z"/>
<path transform="translate(0,0)" fill="rgb(158,176,203)" d="M 483.794 1709.78 C 484.362 1710 485.004 1710.07 485.5 1710.42 C 487.506 1711.84 492.772 1722.2 494.806 1725.05 C 498.566 1730.32 502.986 1735.19 507.306 1740.01 C 527.763 1762.81 550.662 1781.52 578.001 1795.52 L 566.25 1800.12 C 564.858 1800.23 563.701 1800.16 562.355 1799.75 C 529.832 1789.94 488.908 1745.42 472.327 1716.73 C 476.22 1714.55 479.99 1712.12 483.794 1709.78 z"/>
<path transform="translate(0,0)" fill="url(#Gradient1)" d="M 304.658 1615.58 C 309.763 1619.33 323.163 1642.82 328.519 1649.97 C 335.536 1659.35 342.973 1668.03 351.129 1676.42 C 362.182 1687.79 374.174 1699.36 386.824 1708.92 C 391.351 1712.34 415.126 1727.15 416.464 1728.69 C 415.606 1731.47 413.924 1731.77 411.534 1733.24 L 408.508 1734.08 C 387.436 1729.2 357.762 1701.58 342.882 1686 C 332.099 1674.72 299.557 1634.91 300.998 1619.38 C 301.145 1617.79 303.453 1616.56 304.658 1615.58 z"/>
<path transform="translate(0,0)" fill="rgb(249,247,244)" d="M 1038.12 1303.32 C 1056.56 1307.21 1074.8 1312.4 1093.4 1315.51 C 1092.67 1325.77 1091.91 1336.92 1089.64 1346.93 L 1088.02 1347.73 C 1068.79 1343.85 1049.74 1338.75 1030.62 1334.27 L 1038.12 1303.32 z"/>
<path transform="translate(0,0)" fill="rgb(224,154,133)" d="M 1047.63 1252.4 C 1063.02 1258.88 1080.89 1262.35 1097.08 1266.62 C 1096.7 1276.08 1097.3 1298.85 1094.14 1306.66 L 1091.77 1306.95 C 1074.67 1301.24 1058.15 1297.18 1040.33 1294.58 A 2039.71 2039.71 0 0 0 1047.63 1252.4 z"/>
<path transform="translate(0,0)" fill="rgb(246,188,152)" d="M 354.6 858.367 C 371.631 855.247 392.021 858.826 408.172 864.4 C 443.048 876.438 469.939 902.387 485.687 935.428 C 499.575 964.569 507.864 1003.04 496.536 1034.36 C 487.813 1058.48 473.334 1073.48 450.304 1084.19 C 466.555 1068.44 477.564 1054.07 484.88 1032.43 C 490.201 1016.43 491.192 998.995 488.485 982.396 C 482.934 948.348 463.019 914.205 434.84 894.047 C 408.819 875.433 376.168 865.726 344.276 871.102 C 321.341 874.968 303.895 885.51 290.48 904.482 C 293.472 897.691 296.705 891.144 301.193 885.195 C 314.046 868.158 334.184 861.142 354.6 858.367 z"/>
<path transform="translate(0,0)" fill="rgb(249,247,244)" d="M 389.885 1208.71 C 435.647 1242.68 461.553 1277.53 490.536 1325.82 C 483.576 1333.24 476.628 1340.68 468.547 1346.9 C 465.114 1346.95 461.351 1337.21 459.846 1334.29 C 440.706 1297.17 401.689 1259.36 368.108 1234.36 C 374.816 1225.39 382.484 1217.11 389.885 1208.71 z"/>
<path transform="translate(0,0)" fill="rgb(224,154,133)" d="M 385.705 836.424 C 415.528 833.148 446.048 844.88 469.253 863.19 C 498.194 886.024 518.507 919.135 522.787 955.984 C 525.892 982.722 522.402 1013.55 505.091 1035.21 C 508.554 1020.89 509.147 1007.41 508.791 992.754 C 507.526 978.799 505.634 965.489 501.269 952.129 C 489.221 915.252 463.753 882.211 428.786 864.517 C 394.739 847.288 360.394 847.749 324.816 859.268 C 343.323 844.817 362.416 838.329 385.705 836.424 z"/>
<path transform="translate(0,0)" fill="rgb(224,154,133)" d="M 422.792 1169.67 C 466.806 1202.5 495.84 1241.89 525.225 1287.5 C 515.914 1297.02 507.32 1307.08 498.683 1317.21 C 472.803 1272.72 440.373 1228.26 395.728 1200.97 C 404.868 1190.64 414.092 1180.38 422.792 1169.67 z"/>
<path transform="translate(0,0)" fill="rgb(101,111,145)" d="M 466.226 776.669 C 472.033 782.916 488.393 821.619 495.738 833.339 C 514.266 862.901 539.426 888.368 557.189 918.2 C 563.92 929.504 569.721 941.742 572.595 954.641 C 576.011 969.975 575.226 985.88 566.637 999.461 C 563.216 1002.66 559.808 1004.67 555.643 1006.79 C 548.218 999.692 542.064 991.077 534.964 983.595 C 534.647 970.824 534.011 957.865 531.947 945.25 A 149.296 149.296 0 0 0 471.785 848.668 C 465.731 826.205 462.541 799.759 466.226 776.669 z"/>
<path transform="translate(0,0)" fill="rgb(224,154,133)" d="M 656.066 1563.51 C 667.049 1568.68 676.636 1578.92 687.353 1585.13 C 731.427 1610.65 774.465 1627.87 824.7 1636.57 C 815.884 1644.7 806.628 1652.22 797.318 1659.77 C 794.734 1661.87 791.968 1663.78 789.279 1665.74 C 732.53 1655.73 675.241 1625.55 631.228 1588.99 C 640.018 1580.93 648.453 1572.7 656.066 1563.51 z"/>
<path transform="translate(0,0)" fill="rgb(158,176,203)" d="M 802.652 1353.55 C 818.948 1356.99 835.233 1360.39 851.368 1364.54 C 838.976 1401.48 813.237 1459.78 787.103 1488.78 C 782.013 1494.43 779.452 1494.17 772.248 1494.57 A 3095.31 3095.31 0 0 1 728.248 1497.76 C 764.523 1457.81 789.803 1405.81 802.652 1353.55 z"/>
<path transform="translate(0,0)" fill="rgb(249,247,244)" d="M 1039.87 995.87 C 1040.13 996.068 1040.41 996.248 1040.66 996.464 C 1048.6 1003.3 1054.11 1018.47 1058.27 1028 C 1088.76 1097.96 1096.69 1173.96 1097.86 1249.61 C 1097.9 1252.26 1097.85 1253.7 1096.01 1255.62 L 1092.78 1254.96 A 896.029 896.029 0 0 0 1049.44 1243.38 C 1060.25 1184.74 1061.32 1116.92 1052.61 1058.03 C 1050.18 1041.59 1040 1009.31 1039.87 995.87 z"/>
<path transform="translate(0,0)" fill="rgb(224,154,133)" d="M 443.105 1459.52 C 457.404 1471.11 470.659 1483.85 485.155 1495.27 C 527.426 1528.57 579.336 1555.89 632.769 1564.49 A 787.872 787.872 0 0 1 610.651 1587.8 C 608.975 1589.47 608.007 1590.39 605.542 1590.45 C 597.457 1590.65 586.699 1586.5 578.877 1584.39 C 533.787 1572.21 487.645 1546.68 451.922 1516.4 C 442.182 1508.15 433.238 1498.85 424.18 1489.86 C 430.045 1479.55 436.8 1469.57 443.105 1459.52 z"/>
<path transform="translate(0,0)" fill="rgb(249,247,244)" d="M 1027.8 1343.87 C 1047.96 1349.79 1068.74 1353.64 1088.89 1359.74 C 1087.09 1367.73 1085.22 1375.63 1084.41 1383.79 C 1090.17 1397.11 1101.6 1407.05 1107.52 1420.15 C 1109.78 1425.15 1110.79 1430.52 1108.66 1435.76 C 1105.02 1444.7 1094.01 1449.82 1085.61 1453.29 C 1084.26 1453.69 1082.95 1454.06 1081.57 1454.35 C 1055.56 1459.76 1023.24 1450.28 1001.5 1435.91 C 1004.95 1420.97 1010.83 1406.39 1015.34 1391.74 C 1020.18 1376 1023.9 1359.87 1027.8 1343.87 z"/>
<path transform="translate(0,0)" fill="rgb(158,176,203)" d="M 911.633 1055.03 L 912.288 1055.94 C 912.969 1069.99 909.531 1086.45 907.806 1100.57 C 899.835 1165.75 888.234 1238.47 869.309 1301.36 A 2361.96 2361.96 0 0 0 829.69 1292.85 C 825.2 1291.86 820.74 1290.58 816.286 1289.43 C 830.309 1234.78 843.596 1180.36 852.915 1124.66 C 855.638 1108.39 857 1091.97 859.33 1075.64 A 945.738 945.738 0 0 0 911.633 1055.03 z"/>
<path transform="translate(0,0)" fill="rgb(41,42,102)" d="M 848.03 1265.01 C 849.871 1265 851.626 1265.15 853.427 1265.53 C 857.572 1266.42 861.218 1268.73 863.467 1272.38 C 865.263 1275.3 865.679 1278.78 864.805 1282.07 C 863.442 1287.22 860.143 1289.32 855.731 1291.82 C 854.295 1291.85 852.909 1291.86 851.495 1291.56 C 847.13 1290.62 843.347 1287.69 841.117 1283.84 C 839.224 1280.57 838.747 1276.48 839.949 1272.89 C 841.389 1268.58 844.239 1266.99 848.03 1265.01 z"/>
<path transform="translate(0,0)" fill="rgb(158,176,203)" d="M 848.305 1272.45 C 849.34 1272.54 850.494 1272.61 851.492 1272.9 C 853.854 1273.6 854.832 1274.88 855.986 1276.92 C 856.373 1280.26 855.745 1281.79 854.307 1284.68 C 851.797 1283.71 849.255 1282.6 848.025 1280.02 C 846.747 1277.34 847.532 1275.08 848.305 1272.45 z"/>
<path transform="translate(0,0)" fill="rgb(41,42,102)" d="M 883.964 1090.14 C 885.959 1090.12 888.026 1090.06 890.008 1090.31 C 893.733 1090.8 897.309 1093.4 899.362 1096.47 C 901.658 1099.9 902.225 1103.99 901.363 1108 C 900.092 1113.91 896.964 1116.82 892.003 1119.9 C 889.672 1119.81 887.231 1119.67 884.965 1119.07 C 880.88 1117.98 877.194 1114.36 875.322 1110.67 C 873.533 1107.15 873.178 1103.1 874.503 1099.36 C 876.299 1094.29 879.31 1092.43 883.964 1090.14 z"/>
<path transform="translate(0,0)" fill="rgb(158,176,203)" d="M 883.873 1097.36 C 884.271 1097.51 884.678 1097.64 885.069 1097.81 C 888.421 1099.27 890.082 1100.81 891.455 1104.25 C 891.551 1107.71 890.756 1109.44 889.099 1112.44 C 888.798 1112.35 888.497 1112.27 888.197 1112.17 C 885.353 1111.29 882.324 1110.24 881.214 1107.13 C 879.93 1103.53 882.02 1100.24 883.873 1097.36 z"/>
<path transform="translate(0,0)" fill="rgb(41,42,102)" d="M 859.062 1210.78 C 860.462 1210.82 861.797 1211 863.181 1211.24 C 868.354 1212.17 873.042 1215.69 875.729 1220.15 C 877.991 1223.9 878.811 1228.19 877.474 1232.43 C 875.963 1237.23 872.616 1239.85 868.329 1242.08 C 866.152 1242.13 863.89 1242.16 861.738 1241.76 C 857.769 1241.01 854.063 1238.27 851.855 1234.94 C 849.385 1231.21 848.543 1226.88 849.635 1222.52 C 851.049 1216.87 854.284 1213.78 859.062 1210.78 z"/>
<path transform="translate(0,0)" fill="rgb(158,176,203)" d="M 860.072 1220.13 C 860.355 1220.18 860.641 1220.21 860.921 1220.27 C 864.121 1221.01 865.681 1222.15 867.364 1224.93 C 868.054 1228.34 867.352 1230.49 866.312 1233.77 C 865.903 1233.72 865.49 1233.69 865.083 1233.62 C 861.545 1233 860.34 1231.81 858.482 1228.97 C 858.125 1225.42 858.754 1223.41 860.072 1220.13 z"/>
<path transform="translate(0,0)" fill="rgb(41,42,102)" d="M 874.087 1146 C 876.602 1146.15 878.926 1146.56 881.299 1147.41 A 16.4611 16.4611 0 0 1 890.959 1156.74 C 892.424 1160.36 892.448 1164.37 890.849 1167.96 C 888.563 1173.09 884.736 1175.26 879.67 1177.07 C 878.416 1176.94 877.208 1176.76 875.972 1176.51 C 871.158 1175.52 867.066 1173.15 864.515 1168.83 C 862.293 1165.07 861.735 1160.74 863.131 1156.58 C 865.026 1150.92 868.923 1148.41 874.087 1146 z"/>
<path transform="translate(0,0)" fill="rgb(158,176,203)" d="M 873.871 1154.3 C 875.064 1154.73 876.475 1155.16 877.574 1155.83 C 879.685 1157.11 881.25 1158.92 881.632 1161.43 C 882.07 1164.32 879.936 1167.4 878.543 1169.79 C 876.976 1169.16 875.063 1168.52 873.672 1167.58 C 871.431 1166.05 870.691 1164.68 870.103 1162.12 C 870.567 1158.64 871.723 1157.03 873.871 1154.3 z"/>
<path transform="translate(0,0)" fill="rgb(249,247,244)" d="M 460.32 1722.91 C 463.527 1724.08 479.266 1748.61 483.672 1753.49 C 502.911 1774.79 524.087 1792.3 549.796 1805.32 C 541.061 1812.94 532.147 1820.49 523.998 1828.74 C 511.349 1841.54 500.487 1856.62 485.044 1866.19 C 481.693 1868.04 478.267 1869.99 474.443 1870.63 C 463.96 1872.37 453.676 1868.36 445.388 1862.17 C 414.376 1839.01 403.115 1793.15 398.208 1756.95 C 417.852 1744.26 440.053 1734.83 460.32 1722.91 z"/>
<path transform="translate(0,0)" fill="rgb(249,247,244)" d="M 290.773 1623.23 C 292.356 1624.9 298.894 1645.24 302.225 1650.61 C 325.04 1687.38 358.543 1717.05 394.804 1739.92 C 374.368 1752.07 355.226 1767.44 335.721 1781.12 C 330.099 1784.96 324.412 1789.25 318.303 1792.28 C 310.582 1796.1 301.799 1796.32 293.692 1793.54 C 278.959 1788.48 268.125 1773.51 261.646 1759.93 C 249.486 1734.44 241.791 1677.57 252.013 1651.04 C 258.036 1635.42 276.505 1629.15 290.773 1623.23 z"/>
<path transform="translate(0,0)" fill="rgb(224,154,133)" d="M 1221.85 784.876 L 1222.18 785.193 C 1223.53 790.528 1216.6 803.857 1214.43 809.101 C 1155.01 850.981 1096.54 895.883 1032.33 930.419 C 995.726 950.104 958.585 969.225 920.378 985.623 C 824.655 1026.7 666.281 1077.2 562.493 1069.95 C 540.765 1068.44 520.571 1063.11 499.834 1056.87 C 504.177 1052.1 507.952 1047.12 511.711 1041.88 C 519.861 1028.77 525.655 1015.03 530.853 1000.56 C 557.74 1028.32 581.907 1040.33 620.756 1043.21 C 723.192 1050.81 898.849 978.617 989.538 932.861 C 1065.38 894.595 1158.2 839.868 1221.85 784.876 z"/>
<path transform="translate(0,0)" fill="rgb(249,247,244)" d="M 363.119 1241.55 C 366.424 1243.09 369.3 1245.62 372.185 1247.83 C 400.874 1269.86 448.547 1318.33 452.712 1355 C 453.915 1365.58 452.066 1376.67 445.196 1385.1 C 440.034 1391.43 433.611 1394.97 425.43 1395.49 C 413.154 1396.28 404.115 1389.16 395.408 1381.54 C 402.221 1373.92 408.541 1366.17 413.685 1357.31 C 405.95 1362.23 399.258 1368.34 392.396 1374.37 C 378.546 1386.87 362.609 1396.06 343.906 1398.53 C 326.184 1400.88 308.525 1398.15 294.186 1386.94 C 282.631 1377.91 273.841 1364.39 272.462 1349.59 C 270.478 1328.32 285.985 1309.88 303.309 1299.59 C 311.864 1294.51 321.822 1290.91 329.263 1284.18 C 335.82 1278.26 340.716 1269.79 346.054 1262.74 C 351.52 1255.52 357.378 1248.56 363.119 1241.55 z"/>
<path transform="translate(0,0)" fill="rgb(158,176,203)" d="M 580.43 1255.06 C 603.943 1260.32 628.269 1262.98 651.957 1267.66 L 760.281 1290.04 C 843.739 1306.48 927.281 1322.62 1009 1346.49 A 358.311 358.311 0 0 1 997.738 1389.84 L 976.202 1383.91 A 2665.63 2665.63 0 0 0 837.424 1350.44 C 795.21 1341.76 752.389 1335.1 709.967 1327.42 L 541.226 1296.34 C 554.495 1282.76 566.863 1268.38 580.43 1255.06 z"/>
<path transform="translate(0,0)" fill="rgb(101,111,145)" d="M 869.05 410.1 L 869.848 411.104 C 869.724 417.678 867.091 424.993 865.384 431.338 C 857.041 462.352 845.28 485.492 823.559 509.134 A 122.159 122.159 0 0 0 827.956 496.591 C 830.654 487.54 838.159 458.574 833.665 450.24 C 832.32 449.78 831.813 449.148 830.483 449.988 C 826.669 452.397 825.528 458.978 824.211 463.077 C 809.016 510.361 782.419 560.57 736.291 583.983 C 730.693 586.824 720.554 591.301 714.367 588.257 C 712.102 587.143 711.168 586.164 710.154 583.884 C 708.275 579.657 708.38 574.26 708.349 569.69 C 708.191 545.906 715.335 526.271 723.613 504.451 C 724.785 501.362 725.556 498.341 724.194 495.294 C 719.773 495.557 715.616 501.184 712.82 504.45 C 704.219 514.496 696.76 525.59 688.396 535.859 C 667.263 561.802 645.657 583.971 619.812 605.206 C 585.718 631.566 544.939 656.636 503.136 668.117 C 510.536 653.601 521.665 639.224 531.982 626.576 C 609.013 532.14 755.812 451.424 869.05 410.1 z"/>
<path transform="translate(0,0)" fill="rgb(249,247,244)" d="M 620.823 1601.64 C 630.844 1607.81 640.154 1615.99 650.154 1622.46 C 689.114 1647.67 729.531 1665.76 774.989 1675.65 C 734.909 1710.91 677.468 1745.15 630.503 1771.77 C 619.014 1778.72 605.49 1787.19 592.598 1790.88 A 232.745 232.745 0 0 1 583.836 1787.52 C 551.139 1774.02 507.289 1736.35 493.707 1703.17 A 836.074 836.074 0 0 0 620.823 1601.64 z"/>
<path transform="translate(0,0)" fill="rgb(249,247,244)" d="M 1207.31 824.873 L 1208.05 825.057 L 1208.45 826.53 C 1200.48 843.111 1186.39 857.038 1173.79 870.226 C 1109.37 937.651 1031.81 980.917 947.507 1019.3 C 827.463 1073.95 670.542 1119.89 538.37 1124.71 C 515.574 1125.54 491.233 1126.13 468.681 1122.45 C 451.159 1119.6 433.461 1111.2 416.833 1104.99 L 407.753 1101.3 A 165.057 165.057 0 0 0 410.781 1101.27 C 445.524 1100.53 468.297 1088.26 491.77 1063.79 C 507.736 1068.74 523.582 1073.66 540.186 1076.03 C 655.299 1092.47 824.472 1036.97 929.652 991.124 C 967.061 974.819 1003.9 955.981 1039.53 936.07 C 1097.1 903.901 1154.53 864.335 1207.31 824.873 z"/>
<path transform="translate(0,0)" fill="rgb(224,154,133)" d="M 1004.18 327.37 C 1005.04 327.168 1005.54 326.997 1006.49 327.075 C 1013.69 327.672 1021.64 339.297 1025.55 344.921 C 1007.37 350.199 988.539 353.305 970.122 357.669 C 879.378 379.171 793.172 415.884 711.74 460.888 C 675.007 481.19 638.614 503.176 605.841 529.565 C 563.144 563.945 524.416 605.487 495.649 652.283 C 461.095 708.491 445.136 776.259 460.607 841.248 C 453.477 837.848 446.351 834.741 438.976 831.908 C 426.428 827.547 414.072 825.047 400.783 824.855 C 400.873 749.284 428.951 675.614 472.818 614.725 C 557.597 497.051 727.192 403.59 863.263 359.87 C 909.397 345.046 956.382 335.097 1004.18 327.37 z"/>
<path transform="translate(0,0)" fill="rgb(249,247,244)" d="M 416.708 1501.58 C 427.359 1509.41 435.869 1521.22 446.215 1529.78 C 477.196 1555.42 514.315 1578.84 552.669 1591.54 C 566.339 1596.06 580.704 1598.99 594.81 1601.8 C 585.739 1611 575.332 1619.16 565.401 1627.42 C 534.292 1653.28 501.873 1676.3 467.79 1698.1 C 454.356 1707.04 440.323 1715.07 426.393 1723.21 C 414.735 1716.96 403.165 1710.6 392.607 1702.58 C 364.743 1681.4 329.072 1641.5 314.96 1609.47 C 324.968 1600.55 336.616 1593.59 346.578 1584.57 C 373.615 1560.08 394.522 1530.32 416.708 1501.58 z"/>
<path transform="translate(0,0)" fill="rgb(249,247,244)" d="M 352.662 877.324 C 379.395 873.647 407.811 884.359 429.098 899.987 C 455.968 919.716 476.126 953.457 481.041 986.387 C 485.11 1013.66 478.457 1039.48 461.885 1061.53 C 449.776 1077.63 437.237 1086.06 416.972 1089.01 A 120.119 120.119 0 0 1 343.83 1067.93 C 314.216 1047.49 292.085 1011.67 285.748 976.345 C 281.662 953.572 284.08 926.497 297.839 907.151 C 310.521 889.319 331.749 880.678 352.662 877.324 z"/>
<path transform="translate(0,0)" fill="rgb(41,42,102)" d="M 352.26 895.374 C 373.296 894.068 394.211 903.584 410.396 916.377 C 437.957 938.161 457.566 968.684 461.675 1003.96 C 463.932 1023.34 461.038 1045.03 448.224 1060.51 C 437.457 1073.52 422.804 1077.12 406.819 1078.83 C 384.12 1078.78 364.079 1070.33 346.564 1056.21 C 319.138 1034.1 299.156 1001.74 295.541 966.268 C 293.742 948.608 296.768 928.644 308.604 914.767 C 320.124 901.261 335.365 896.984 352.26 895.374 z"/>
<path transform="translate(0,0)" fill="rgb(249,247,244)" d="M 353.693 908.414 C 372.226 908.707 387.941 914.389 402.761 925.52 C 427.792 944.318 446.279 974.044 450.616 1005.18 C 452.692 1020.08 451.945 1038.12 442.261 1050.38 C 433.384 1061.62 420.61 1064.51 407.164 1066.05 C 388.101 1065.85 371.059 1059.59 355.873 1048.09 C 331.797 1029.86 312.174 1001.41 308.095 971.046 C 306.004 955.483 307.224 937.452 317.422 924.77 C 326.585 913.373 339.77 909.633 353.693 908.414 z"/>
<path transform="translate(0,0)" fill="rgb(249,247,244)" d="M 1026.82 999.881 L 1028.62 1000.12 C 1028.81 1000.4 1029.03 1000.67 1029.19 1000.97 C 1032.85 1008 1032.26 1021.07 1033.79 1029.32 C 1038.7 1055.7 1040.06 1082.82 1040.68 1109.6 C 1042.48 1187.75 1033.11 1262.21 1012.23 1337.52 C 984.341 1326.5 953.8 1320.12 924.83 1312.57 C 911.422 1309.8 898.084 1306.98 884.839 1303.5 C 893.585 1269.74 902.744 1235.19 908.853 1200.87 C 917.946 1149.79 923.051 1098.11 930.486 1046.8 C 941.144 1042.31 951.529 1036.79 961.992 1031.82 C 983.785 1021.49 1005.51 1011.19 1026.82 999.881 z"/>
<path transform="translate(0,0)" fill="rgb(41,42,102)" d="M 958.089 1113.3 C 971.615 1113.54 987.003 1115.46 999.799 1119.95 C 1006.1 1122.16 1011.96 1125.03 1014.9 1131.36 C 1022.44 1147.59 1010.9 1186.97 1004.54 1203.86 C 1000.66 1214.16 996.464 1220.8 986.225 1225.38 C 972.224 1228.83 952.924 1226.08 940.076 1219.3 C 934.723 1216.47 930.653 1212.07 929.138 1206.12 C 924.7 1188.7 937.305 1136.33 946.692 1120.59 C 949.574 1115.76 952.807 1114.61 958.089 1113.3 z"/>
<path transform="translate(0,0)" fill="rgb(224,154,133)" d="M 960.291 1127.77 C 971.224 1128.74 988.73 1130.08 997.631 1136.9 C 1000.52 1139.11 1001.26 1142.45 1001.49 1145.88 C 1002.55 1161.78 994.711 1198.49 984.417 1210.18 C 977.243 1213.52 963.243 1212.63 955.88 1210.02 C 951.732 1208.56 948.201 1205.61 946.315 1201.61 C 939.749 1187.68 954.421 1142.46 960.291 1127.77 z"/>
<path transform="translate(0,0)" fill="rgb(249,247,244)" d="M 860.854 1366.6 C 905.721 1376.12 949.393 1387.56 993.319 1400.79 C 973.439 1486.05 901.256 1572.07 834.719 1626.59 C 810.062 1623.9 785.905 1616.53 762.666 1608.13 C 727.911 1594.34 693.4 1576.83 663.324 1554.48 C 674.23 1539.43 686.71 1525.28 698.495 1510.89 C 748.21 1510.16 803.97 1509.89 848.918 1486.05 C 831.973 1489.3 814.999 1490.73 797.835 1492.34 C 805.295 1479.48 814.141 1467.35 821.669 1454.48 C 837.993 1426.56 850.308 1397.13 860.854 1366.6 z"/>
<path transform="translate(0,0)" fill="rgb(249,247,244)" d="M 845.981 1080.01 L 847.138 1081.07 C 847.197 1094.29 843.948 1108.81 841.736 1121.86 C 832.245 1177.83 815.931 1232.27 803.804 1287.65 C 774.638 1280.74 744.764 1275.83 715.326 1270.15 C 673.474 1262.09 631.823 1253.64 589.815 1246.35 C 597.865 1235.47 607.536 1225.7 616.649 1215.71 A 3749.27 3749.27 0 0 0 660.032 1167.69 C 665.798 1161.15 674.065 1153.54 678.354 1146 C 680.242 1142.68 680.558 1136.92 679.005 1133.44 C 677.86 1130.86 676.841 1130.4 674.288 1129.51 C 671.512 1130.09 669.793 1130.98 667.696 1132.93 C 660.681 1139.45 654.668 1147.67 648.173 1154.78 A 7082.19 7082.19 0 0 0 599.673 1207.96 C 577.614 1232.58 554.646 1257.2 531.43 1280.74 C 504.456 1232.17 471.382 1196.85 427.804 1162.75 C 434.443 1154.5 441.466 1146.63 448.52 1138.74 C 469.837 1140 490.98 1143.72 512.408 1143.78 C 618.444 1144.08 746.319 1115.95 845.981 1080.01 z"/>
<path transform="translate(0,0)" fill="rgb(41,42,102)" d="M 702.396 1128.03 C 703.572 1127.84 704.71 1127.77 705.902 1127.78 C 720.308 1127.85 780.858 1138.6 790.34 1148 C 790.766 1149.4 790.911 1150.55 790.771 1152.01 C 789.329 1167.08 774.255 1219.09 767.255 1233.13 C 765.778 1236.09 764.14 1238.03 761.663 1240.2 C 755.356 1241.65 750.116 1241.64 743.75 1240.71 C 731.075 1238.86 681.494 1229.76 675.622 1219.36 C 671.885 1212.75 674.799 1200.57 676.399 1193.47 C 679.408 1180.12 685.988 1144.45 693.555 1134.67 C 695.707 1131.89 699.452 1129.89 702.396 1128.03 z"/>
<path transform="translate(0,0)" fill="rgb(224,154,133)" d="M 692.516 1174.81 C 698.926 1178.24 708.111 1179.55 715.237 1181.29 C 732.302 1185.43 750.021 1188.82 766.382 1195.24 L 763.335 1205.55 C 738.473 1200.96 713.314 1194.45 688.673 1188.65 L 692.516 1174.81 z"/>
<path transform="translate(0,0)" fill="rgb(224,154,133)" d="M 686.877 1195.52 C 711.048 1202.99 736.396 1206.66 760.727 1213.67 C 759.202 1220.05 757.658 1226.16 755.167 1232.25 C 741.914 1233.34 696.032 1221.64 684.628 1214.95 C 681.594 1209.37 685.237 1201.19 686.877 1195.52 z"/>
<path transform="translate(0,0)" fill="rgb(224,154,133)" d="M 704.297 1138.63 C 724.893 1139.67 757.452 1149.55 778.526 1154.52 A 895.235 895.235 0 0 1 768.443 1188.3 C 744.021 1179.37 717.695 1176.32 693.335 1167.51 C 696.032 1157.66 697.211 1146.35 704.297 1138.63 z"/>
<path transform="translate(0,0)" fill="rgb(249,247,244)" d="M 531.873 1304.69 C 556.02 1308.36 579.983 1313.84 604.049 1318.1 L 793.822 1352.07 C 788.416 1365.02 784.768 1378.83 779.802 1391.99 C 766.128 1428.23 743.977 1471.56 715.157 1497.52 C 688.73 1498.98 662.319 1496.64 636.104 1493.56 C 642.704 1496.68 649.219 1499.61 656.107 1502.04 L 680.269 1508.97 C 668.106 1524.93 654.874 1539.79 641.198 1554.45 C 567.552 1537.61 505.393 1500.45 449.628 1450.38 C 467.141 1423.8 483.789 1395.97 498.554 1367.75 C 509.464 1346.9 518.85 1324.28 531.873 1304.69 z"/>
<path transform="translate(0,0)" fill="rgb(101,111,145)" d="M 1036.57 361.359 C 1041.87 360.591 1046 361.72 1050.99 363.431 C 1063.81 367.826 1076.03 374.629 1087.92 381.095 C 1141.94 410.476 1189.31 452.325 1216.73 508.354 C 1246.39 568.958 1252.92 635.706 1241.66 701.681 C 1239.34 715.246 1236.94 729.718 1232.43 742.722 C 1230.56 748.1 1227.96 753.131 1224 757.272 C 1210.91 770.963 1139.01 824.825 1120.96 833.578 L 1120.96 832.819 C 1137.31 815.633 1148.91 789.36 1156.16 767.071 C 1166.39 735.588 1168.88 694.718 1153.14 664.569 C 1142.17 643.566 1125.89 632.359 1103.71 625.365 C 1100.17 611.397 1096.6 597.366 1091.67 583.813 C 1070.46 525.543 1033.17 470.245 990.289 425.73 C 976.468 411.384 960.578 399.379 946.744 385.152 C 975.44 374.206 1006.09 365.399 1036.57 361.359 z"/>
<path transform="translate(0,0)" fill="rgb(249,247,244)" d="M 714.357 231.419 C 714.67 231.383 714.981 231.332 715.296 231.311 C 814.988 224.54 922.346 254.752 999.554 319.038 A 840.996 840.996 0 0 0 862.103 350.524 C 740.051 389.576 598.445 466.146 509.015 558.731 C 440.164 630.012 391.328 724.231 393.12 825.069 C 358.493 826.358 334.606 837.692 307.656 858.814 C 291.397 874.302 279.295 891.54 272.802 913.242 C 262.22 948.613 266.125 983.319 283.513 1015.58 C 226.11 949.54 194.276 868.531 188.598 781.463 C 180.041 650.23 232.739 525.432 318.628 427.952 A 571.717 571.717 0 0 1 714.357 231.419 z"/>
<path transform="translate(0,0)" fill="rgb(41,42,102)" d="M 364.413 464.286 C 370.012 464.281 375.131 465.612 380.109 468.129 C 387.439 471.836 392.577 478.178 394.811 486.086 C 397.185 494.488 395.706 503.508 391.509 511.077 C 385.431 522.039 376.499 527.28 364.839 530.561 C 357.367 530.696 350.371 529.031 344.245 524.572 C 337.319 519.532 333.11 511.697 332.06 503.257 A 35.9977 35.9977 0 0 1 339.561 476.676 C 346.255 468.228 354.199 465.634 364.413 464.286 z"/>
<path transform="translate(0,0)" fill="rgb(224,154,133)" d="M 362.441 474.205 C 365.339 474.368 368.249 474.851 370.948 475.967 C 375.792 477.972 379.833 482.015 381.585 486.97 C 383.638 492.777 382.78 499.211 379.937 504.599 C 376.027 512.011 370.062 515.599 362.292 518.008 C 358.683 517.834 355.326 517.351 352.009 515.821 C 347.822 513.889 344.512 510.106 343.039 505.75 C 340.903 499.433 342.02 492.241 345.256 486.502 C 349.301 479.327 354.71 476.293 362.441 474.205 z"/>
<path transform="translate(0,0)" fill="rgb(41,42,102)" d="M 287.431 600.214 C 296.271 599.585 304.681 601.394 312.369 605.835 C 328.458 615.129 337.93 635.355 342.354 652.714 C 352.06 690.802 346.696 737.557 326.331 771.413 C 315.126 790.04 301.036 804.803 279.439 810.137 C 268.1 810.761 257.991 808.872 248.524 802.157 C 232.304 790.65 223.827 769.899 220.347 750.973 C 213.141 711.777 220.321 663.156 243.626 630.173 C 254.504 614.777 268.481 603.449 287.431 600.214 z"/>
<path transform="translate(0,0)" fill="rgb(224,154,133)" d="M 285.805 611.164 C 292.286 610.882 297.639 610.984 303.606 613.979 C 316.827 620.615 324.196 634.898 328.782 648.36 C 340.822 683.699 336.32 725.645 319.763 758.827 C 311.093 776.203 298.589 790.501 279.734 796.713 C 271.901 797.295 265.356 796.551 258.412 792.623 C 245.849 785.518 239.011 771.258 235.098 757.916 C 224.581 722.061 228.497 678.617 246.698 645.816 C 255.734 629.531 267.47 616.47 285.805 611.164 z"/>
<path transform="translate(0,0)" fill="rgb(249,247,244)" d="M 918.354 392.238 C 918.82 392.439 919.301 392.609 919.753 392.842 C 934.324 400.361 950.398 415.457 962.535 426.814 C 1010.5 471.697 1050.57 529.905 1073.45 591.621 C 1079.84 608.848 1084.35 626.415 1088.72 644.239 C 1103.18 647.202 1119.23 652.586 1129.38 663.847 C 1142.27 678.146 1145.29 702.266 1144.55 720.762 C 1142.35 775.381 1108.65 829.288 1068.77 865.246 C 1051.3 881.003 1026.26 891.666 1005.55 902.783 C 907.113 955.628 727.916 1032.52 615.5 1026.19 C 597.204 1025.45 581.62 1020.64 565.132 1012.93 C 572.106 1007.53 577.961 1002.74 581.831 994.505 C 585.403 986.904 586.282 978.165 586.048 969.846 C 584.538 916.239 533.931 875.176 506.825 832.94 C 490.207 807.046 479.181 779.435 468.108 750.905 C 473.679 727.282 482.586 706.049 492.364 683.96 C 507.248 680.331 521.803 676.117 535.971 670.201 C 595.887 645.179 664.388 594.995 701.886 541.66 C 699.096 556.875 694.071 576.89 703.098 590.848 C 706.441 596.016 711.538 599.884 717.679 600.883 C 739.095 604.368 773.859 572.267 787.011 557.787 C 794.301 549.761 800.393 539.929 808.237 532.564 C 813.944 527.206 821.351 523.221 827.657 518.567 C 862.257 493.029 878.312 444.85 884.56 404.038 C 895.871 400.238 907.223 396.544 918.354 392.238 z"/>
<path transform="translate(0,0)" fill="rgb(224,154,133)" d="M 1098.39 668.306 C 1105.54 667.557 1113.83 668.643 1120.39 671.605 C 1124.73 673.563 1127.98 676.836 1129.63 681.331 C 1132.01 687.819 1130.8 695.289 1127.75 701.334 C 1120.41 715.854 1106.39 724.607 1091.35 729.209 C 1085.17 729.889 1078.64 730.64 1072.54 729.072 C 1064.89 727.102 1060.92 722.411 1057.13 715.806 C 1056.41 705.346 1057.57 695.995 1063.78 687.22 C 1072 675.599 1084.82 670.343 1098.39 668.306 z"/>
<path transform="translate(0,0)" fill="rgb(224,154,133)" d="M 671.194 875.165 C 682.203 874.309 693.466 874.285 703.387 879.939 C 709.524 883.437 713.836 888.786 715.346 895.744 C 717.437 905.383 714.15 915.084 708.864 923.107 C 698.083 939.469 681.84 947.014 663.228 950.81 C 652.573 952.209 641.426 951.93 631.788 946.56 C 625.611 943.119 621.463 937.726 619.781 930.863 C 617.595 921.942 619.647 912.696 624.42 904.979 C 634.849 888.121 652.752 879.927 671.194 875.165 z"/>
<path transform="translate(0,0)" fill="rgb(41,42,102)" d="M 924.438 711.804 C 925.55 711.839 926.507 712.178 927.573 712.476 C 936.255 723.501 940.026 741.949 942.401 755.437 C 945.891 775.263 946.335 796.354 933.899 813.424 C 928.233 821.201 920.659 826.987 910.889 828.085 C 895.219 829.845 881.23 820.945 869.442 811.788 C 854.777 798.458 839.564 782.303 833.322 763.048 C 855.044 755.553 875.848 747.499 894.697 734.023 C 904.44 727.057 913.419 718.937 923.466 712.422 L 924.438 711.804 z"/>
<path transform="translate(0,0)" fill="rgb(249,247,244)" d="M 922.319 725.78 L 923.095 726.034 C 927.428 730.85 929.671 740.5 931.225 746.752 C 935.7 764.756 938.383 786.941 927.881 803.394 C 923.829 809.742 917.918 814.842 910.337 816.214 C 897.152 818.6 884.686 809.428 874.382 802.441 C 861.362 793.171 852.12 781.876 843.356 768.657 C 876.896 760.072 896.853 749.578 922.319 725.78 z"/>
<path transform="translate(0,0)" fill="rgb(41,42,102)" d="M 961.858 539.164 C 969.048 539.012 975.791 540.273 982.448 542.938 C 1009.74 553.867 1031.57 580.449 1042.75 606.982 C 1050.19 624.641 1057.69 650.211 1049.56 668.721 C 1044.89 679.349 1037.09 684.471 1026.67 688.357 C 1013.51 690.574 1001.67 688.313 990.22 681.364 C 965.028 666.076 944.271 630.381 937.422 602.372 C 933.748 587.343 931.836 566.512 940.628 552.956 C 945.869 544.873 952.735 541.358 961.858 539.164 z"/>
<path transform="translate(0,0)" fill="rgb(249,247,244)" d="M 944.672 575.86 C 951.824 575.948 956.701 577.57 962.233 582.243 C 969.957 588.767 976.041 599.374 976.574 609.596 C 976.913 616.081 975.362 621.01 970.944 625.743 C 963.21 625.835 957.289 622.625 951.684 617.37 C 944.318 610.464 938.945 600.125 938.887 589.894 C 938.853 583.678 940.314 580.203 944.672 575.86 z"/>
<path transform="translate(0,0)" fill="rgb(41,42,102)" d="M 649.306 694.198 C 660.887 692.845 671.065 694.588 681.495 699.816 C 709.81 714.011 733.83 746.405 743.631 776.038 C 749.023 792.341 750.55 812.806 742.219 828.392 C 736.695 838.729 728.341 844.337 717.469 847.768 C 707.666 848.772 699.065 847.592 689.942 843.857 C 660.914 831.972 639.025 803.96 627.264 775.628 C 619.723 757.461 615.421 735.297 623.675 716.614 C 628.909 704.769 637.688 698.768 649.306 694.198 z"/>
<path transform="translate(0,0)" fill="rgb(249,247,244)" d="M 637.557 724.963 C 639.48 725.442 641.43 725.93 643.286 726.634 C 652.771 730.232 660.204 740.03 663.748 749.217 C 666.466 756.263 668.173 764.948 664.663 772.024 C 662.282 776.824 659.607 778.307 654.647 779.919 C 652.945 779.602 651.22 779.264 649.579 778.704 C 639.712 775.338 631.737 765.547 627.738 756.258 C 624.777 749.381 622.96 741.129 626.026 733.962 C 628.272 728.712 632.596 727.123 637.557 724.963 z"/>
</svg>