<svg xmlns="http://www.w3.org/2000/svg" display="block" viewBox="0 0 2048 2048"><defs><linearGradient id="a" x1="300.942" x2="414.018" y1="1673.94" y2="1676.12" gradientUnits="userSpaceOnUse"><stop class="stop0" offset="0" stop-color="#859bc7"/><stop class="stop1" offset="1" stop-color="#a2bcd6"/></linearGradient></defs><path fill="#656f91" d="M0 0h2048v2048H0z"/><path fill="#f9f7f4" d="M1449.8 1146.83c1.12.03 1.57.02 2.77.2 3.37.51 5.81 1.63 7.73 4.55 1.74 2.67 2.19 5.82 1.28 8.88-1.22 4.09-3.58 5.93-7.18 7.93-1.38-.09-2.87-.19-4.22-.48-2.67-.58-5.55-2.3-6.95-4.73-1.42-2.48-1.86-4.86-1.13-7.63 1.12-4.3 4.13-6.45 7.7-8.72m-33.71-934.916c.41.009.82-.002 1.23.026 3.31.232 6.71 1.336 8.83 4.047 2.19 2.816 3.08 5.94 2.25 9.477-1.03 4.418-3.6 6.286-7.29 8.535-1.17-.043-1.94-.043-3.14-.234-3.46-.55-6.23-1.857-8.16-4.951-1.55-2.483-1.8-5.208-1.13-7.989 1.14-4.68 3.56-6.429 7.41-8.911m490.46 957.076c5.05-.28 8.99-.36 12.86 3.29 2.27 2.13 3.79 4.73 3.46 7.97-.42 4.24-3.14 6.54-6.32 8.95-1.43.28-1.49.32-3.11.46-3.66.32-7.13-.63-9.7-3.37-1.94-2.06-2.73-4.61-2.59-7.39.23-4.43 2.31-6.96 5.4-9.91M103.006 533.136c1.666-.214 3.356-.436 5.038-.455 3.289-.037 6.275 1.421 8.4 3.903 2.06 2.405 2.926 5.141 2.432 8.297-.686 4.385-3.029 6.897-6.409 9.525-.947.124-1.893.265-2.846.326-3.5.226-7.033-.826-9.581-3.288-2.038-1.97-3.147-4.604-3.095-7.441.088-4.881 2.58-7.783 6.061-10.867m223.878-418.252c4.311.058 8.361.493 11.263 4.112 1.959 2.444 2.438 5.527 1.739 8.524-1.232 5.283-4.452 7.823-8.822 10.639-1.515.018-3.085.048-4.585-.189-2.583-.406-5.47-2.119-6.889-4.375-1.702-2.706-2.112-5.499-1.321-8.599 1.273-4.988 4.392-7.537 8.615-10.112M1695.1 987.026c1.88.049 3.86.037 5.7.437 3.14.682 6.11 3.269 7.57 6.079 1.45 2.791 1.52 6.026.34 8.918-1.7 4.18-4.59 5.58-8.5 7.26-1.33-.03-2.66-.04-3.97-.26-3.39-.58-7.04-2.47-8.68-5.63-1.35-2.63-1.62-5.112-.81-7.942 1.32-4.615 4.42-6.522 8.35-8.862M183.955 1906.93c.969 0 1.94-.02 2.907.04 3.576.23 6.979 1.65 9.304 4.45 1.81 2.18 2.6 4.79 2.295 7.61-.568 5.24-3.466 7.75-7.416 10.86-2.172.13-4.455.34-6.626.14-2.711-.24-5.065-2.06-6.767-4.06-2.088-2.46-2.675-5.84-2.049-8.93 1.037-5.12 4.142-7.45 8.352-10.11M1830.82 641.108c1.89-.085 3.84-.202 5.73-.05 3.15.253 6.09 2.023 8.1 4.407 2.13 2.515 2.91 5.01 2.55 8.333-.47 4.339-3.52 7.053-6.79 9.507-1.96.317-3.99.687-5.98.733-2.55.06-5.48-1.292-7.19-3.193-2.49-2.768-3.35-5.904-2.86-9.53.66-4.878 2.7-7.193 6.44-10.207m17.32-485.023c1.88-.093 4.07-.345 5.91-.063 2.91.442 5.66 2.648 7.24 5.087 1.83 2.818 2.32 6.15 1.46 9.393-1.14 4.306-3.75 6.412-7.39 8.671-1.78.042-3.62.114-5.39-.096-3.04-.361-6.12-2.259-7.96-4.693-1.76-2.33-2.4-5.063-1.92-7.936.89-5.317 3.88-7.475 8.05-10.363M569.604 115c2.265-.233 4.567-.404 6.838-.125 3.105.382 5.946 2.487 7.745 4.996 1.925 2.687 2.576 5.832 1.948 9.065-.938 4.837-3.925 7.524-7.887 10.085-1.984.155-4.061.21-6.045.03-3.363-.305-6.158-2.387-8.095-5.078a11.32 11.32 0 0 1-1.976-8.895c.902-4.8 3.55-7.459 7.472-10.078m725.206 1001.46 2.56 1.66c4.38 7.5 3.68 19.26 4.08 27.85 7.45-.06 19.14-1.15 25.06 3.87l-.38 1.67c-7.34 4.48-16.36 3.74-24.68 3.96-.52 9-.29 19.39-2.61 28.08-.8 2.98-1.58 3.52-4.19 5.05-4.92-8.33-4.16-23.42-4.81-32.86-8.98-.58-18.88-.58-27.06-4.74l-.26-1.41c7.3-4.63 19.06-3.87 27.53-4.12 1.28-9.87.09-19.88 4.76-29.01m295-902.256 3.63.657c5.08 5.872.51 16.563 3.21 23.396 2.76 6.975 20.51 4.799 27.32 7.58 2.16.885 2.34 1.225 3.19 3.253-5.12 4.271-23.01 4.66-30.14 5.8-.92 10.85-1.13 21.942-2.94 32.673l-2.42-.161c-6.62-6.655-2.26-22.261-5.23-31.121-5.51-5.715-20.33-3.476-28.05-5.79l-.84-3.073-1.1 1.543 1.13-1.578c8.61-3.644 19.18-4.156 28.39-5.271.62-9.266.78-19.063 3.85-27.908M1034.5 1738.25c3.25.21 6.81.48 9.73 2.03 4.66 2.47 8.21 7.09 9.58 12.15a20.6 20.6 0 0 1-2.58 16.55c-3.64 5.61-8.59 7.57-14.89 8.93-4.3-.58-8.28-1.1-11.94-3.6-4.37-2.97-7.6-7.76-8.52-12.98a18.8 18.8 0 0 1 3.26-14.31c3.94-5.49 8.94-7.55 15.36-8.77m409.7-1621.074c3.64-.316 7.89-.702 11.4.417 4.92 1.565 9.42 5.4 11.68 10.038a18.6 18.6 0 0 1 .65 14.793c-2.64 6.928-7.99 10.088-14.52 12.807-3.3.29-6.64.545-9.89-.26-4.96-1.229-9.32-4.231-11.88-8.698-2.63-4.588-3.01-10.04-1.41-15.041 2.36-7.356 7.27-10.854 13.97-14.056M174.398 1134.25c3.051.15 6.54.33 9.443 1.29 4.672 1.55 8.692 5.7 10.623 10.15 2.374 5.46 2.133 11.95-.346 17.34-3.052 6.63-7.917 9.87-14.631 12.15-4.692.07-8.669.08-12.877-2.23a20.27 20.27 0 0 1-9.903-12.59 20.45 20.45 0 0 1 2.165-15.71c3.589-6.04 8.925-8.76 15.526-10.4m1705.992 738.93c4.64-.13 8.6.31 12.65 2.74a20.17 20.17 0 0 1 9.6 13.75 19.94 19.94 0 0 1-3.27 15.32c-3.68 5.33-8.75 7.46-14.88 8.73-3.42-.06-6.87-.34-10.05-1.69-4.91-2.09-8.99-5.75-10.93-10.78-1.91-4.97-1.58-10.49.65-15.29 3.42-7.35 9.01-10.1 16.23-12.78M949.219 73.08c3.959-.303 8.382-.64 12.17.77 4.953 1.842 9.131 5.98 11.159 10.831a20.76 20.76 0 0 1-.319 16.794c-2.912 6.337-7.635 9.286-13.943 11.654-3.202.248-6.955.403-10.087-.377-5.48-1.366-10.717-5.376-13.288-10.409a18.88 18.88 0 0 1-.824-15.248c2.752-7.321 8.398-10.751 15.132-14.015m623.261 413.022c4.27-.198 8.15-.086 12.1 1.744a20.1 20.1 0 0 1 10.54 11.562 21.38 21.38 0 0 1-1.43 17.352c-3.34 6.039-8.35 8.874-14.72 10.92-3.37.023-7-.268-10.16-1.524-5.3-2.109-9.78-6.86-11.85-12.139a20.4 20.4 0 0 1 .32-15.96c3.09-6.772 8.47-9.628 15.2-11.955M674.301 1881.17c4.078-.16 8.23-.01 12.092 1.48 5.408 2.07 9.869 6.69 11.841 12.13 2.006 5.53 1.622 11.99-1.217 17.17-3.132 5.7-8.064 8.96-14.107 10.95-4.179.07-8.229-.37-12.095-2.07a22.15 22.15 0 0 1-12.129-12.96 20.03 20.03 0 0 1 1.143-15.92c3.221-6.13 8.167-8.6 14.472-10.78m-523.747-352.01c3.923-.15 7.407.19 11.044 1.81 4.887 2.17 8.587 6.04 10.297 11.13a22.03 22.03 0 0 1-1.564 17.32c-3.539 6.7-8.675 9.55-15.68 11.69-3.762-.03-7.458-.37-10.97-1.83-5.056-2.11-9.407-5.85-11.471-11a19.25 19.25 0 0 1 .446-15.37c3.684-7.9 10.158-10.97 17.898-13.75M1866.06 384.1c4.27-.388 8.73-.814 12.81.83 4.89 1.969 8.9 6.198 10.86 11.049 2.27 5.591 2.22 12.294-.22 17.818-2.88 6.487-7.24 9.463-13.59 12.112-4.06.276-8.25.631-12.15-.774-5.04-1.815-9.34-5.812-11.59-10.665-2.5-5.418-2.59-12.018-.32-17.527 2.81-6.816 7.61-10.099 14.2-12.843M197.805 132.805c1.919.144 4.787.139 6.248 1.428 5.987 5.283 3.437 44.76 3.388 53.893 14.466-.087 31.978-2.038 46.117.559 2.895.532 5.712 1.227 7.52 3.721-.165 2.432-.269 2.991-2.218 4.748-6.082 5.482-41.718 2.835-51.794 2.766.137 12.838 2.653 46.991-.638 57.212-.708 2.2-1.759 3.49-3.199 5.241l-4.201-1.511c-7.138-7.053-4.221-48.594-4.291-59.858-13.241-.807-43.592 2.327-53.672-4.642-1.191-2.131-1.341-2.08-.843-4.44 8.503-6.51 42.905-3.692 54.752-3.59.067-11.76-3.255-46.816 2.831-55.527M1440.03 722.083c1.66.17 2.76.17 4.15 1.215 4.88 3.662 6.48 46.217 7.12 54.744 14.63.994 30.46.425 44.66 4.346 3.01.832 7.01 1.865 8.67 4.725l-1.15 1.786c-13.75 7.641-36.69 6.264-52.42 7.18-.74 18.184-1.21 37.344-4 55.319-2.51.912-4.09 1.437-6.59.354-4.53-6.8-5.65-44.312-6.67-54.959-11.33-.72-22.88-.022-34.15-1.454-5-.637-12.06-1.796-15.35-5.983l.63-1.899c11.6-8.429 34.01-7.81 47.89-9.178 1.5-17.611.95-39.736 7.21-56.196m338 326.137c1.45.4 2.17.69 3.36 1.69 5.35 4.52 6.73 48.81 7.82 58.62 9.67.27 40.94 1.07 47.35 7.64 1.13 1.15.69.97.49 2.84-8.54 7.83-36.44 7.01-47.98 6.99-.23 12.77-.69 47.45-5.59 57.91-1.44 3.07-3.18 3.17-6.14 4.06-7.07-14.35-6.2-44.7-6.55-61.12-14.42-.4-37.15-.22-50.28-5.12-2.59-.96-3.32-1.84-4.32-4.33l1.11-1.66c12.94-5.71 38.88-5.6 53.67-6.88.01-15.49-.37-31.43 1.25-46.84.63-5.96.94-9.83 5.81-13.8"/><path fill="#292a66" d="M1548.28 1315.5c14.43-1.74 30.33-.95 44.75.19 82.27 6.55 149.38 47.77 202.17 109.66 27.65-12.76 59.15-24.12 89.02-30.36 17.45-3.64 43.13-6.98 58.72 3.71 7.2 4.93 12.2 12.23 13.78 20.85 7.26 39.6-43.81 110.05-68.36 140.76-9.81 12.28-21.31 23.61-30.37 36.42l-.69 1c-3.45 77.88-21.87 145.32-75.6 204.31-57 62.58-123.23 89.79-206.45 93.58-36.44 2.14-81.1-5.34-113.92-21.1-50.01 23.06-123.82 57.74-178.4 55.93-14.93-.5-33.45-3.36-43.92-15.06-7.2-8.06-10.12-20.21-9.61-30.78 2.2-45.87 56.04-104.3 88.76-134.03-19.06-40-33.96-79.24-37.67-123.84a290.96 290.96 0 0 1 67.1-210.98c50.12-59.06 123.99-94.02 200.69-100.26"/><path fill="#c78579" d="m1804.46 1646 32.19-31.12c-.65 11.32-2.09 22.49-3.56 33.73l-1.67 12c-4.56-2.3-9.05-4.4-13.82-6.25-4.3-2.97-8.56-5.83-13.14-8.36"/><path fill="#e09a85" d="m1740.23 1812.46-.44 1.52c-17.07 18.06-43.63 32.08-66.31 41.95-.12-4.66 3.83-9.81 6.77-13.25 13.35-15.59 39.61-28.5 59.98-30.22"/><path fill="#656f91" d="M1839.73 1466.31c4.56-.75 12.87-.76 16.91 1.54 2.27 1.28 3.38 3.27 3.93 5.74 2.48 11.14-11.11 25.95-17.56 34.22-1.28 1.82-2.29 2.82-4.14 4.05-6.07-11.8-9.93-29.23-14.63-42.26 5.04-1.52 10.32-2.31 15.49-3.29m-488.85 330.41c11.4 9.56 21.58 22.52 31.93 33.36-6.03 2.05-12.16 3.77-18.28 5.54-7.22 1.65-20.14 5.15-26.82 1.08-2.33-1.42-3.32-3.36-3.7-5.98-1.47-10.13 11.32-25.79 16.87-34"/><path fill="#c78579" d="M1521.04 1841.88c4.9.35 10.6 1.93 15.12 3.72 13.98 5.58 21.43 17.21 26.96 30.48-11.71-.85-23.25-2.23-34.88-3.83-15.8-1.75-31.07-5.16-46.39-9.31 12.65-7.85 25.82-14.53 39.19-21.06m79.23-505.21c33.8 4.81 62.29 12.62 91.89 30.01l-8.13 6.27c-3 1.73-6.01 3.4-9.24 4.67-13.79 5.37-29.21 3.71-42.46-2.38-17.12-7.86-25.74-21.75-32.06-38.57m-296.51 213.28a120 120 0 0 1 10.62 7.46 75.2 75.2 0 0 1 27.31 49.91c2.39 21.06-3.74 39.63-16.85 55.99-4.54 5.19-10.13 9.13-15.8 12.96-10.46-39.33-14.5-86.59-5.28-126.32m478.43-108.29c.35.15.75.21 1.06.44 13.33 9.93 33.73 69.6 38.94 88.99-3.19 3.56-6.78 6.81-10.2 10.15l-10.67-.41c-9.86-1.68-18.24-5.05-25.28-12.43-10.69-11.21-15.98-29.19-15.54-44.49.52-17.87 9.08-30.53 21.69-42.25m-129.44 202.66c16.74-1.33 28.53 1.15 43.81 8.24-24.48 20.87-52.78 38.72-79.57 56.52a1385 1385 0 0 0-25.01 16.7c-1.44-3.68-2.53-7.38-3.08-11.29-1.99-14.2 3.06-29.29 11.43-40.71 12.45-17 31.98-26.38 52.42-29.46m86.25 55.82.84 1.35c.93 11.08-1.49 22.5-5.06 32.93-7.3 21.37-24.31 42.43-44.89 52.21-20.77 9.88-42.36 9.22-63.61 1.53l-6.99-3.03c41.35-26.21 80.37-55.92 119.71-84.99m-293.01-336.25c1.52 1.08 1.33.69 2.15 2.05 8.13 13.59 9.45 31.45 5.61 46.62-5.47 21.57-20.42 40.58-39.62 51.65-19.97 11.51-40.15 13.02-62.1 7.04-5.3-2.01-9.91-4.16-14.74-7.15 28.67-44.4 61.78-75.8 108.7-100.21"/><path fill="#e09a85" d="M1794.9 1652.88c10.58 9.48 20.2 14.28 34.25 16.93a267.14 267.14 0 0 1-76.33 131.58c-8.74.96-17.64 2.01-26.19 4.13-33.12 8.19-54.01 28.12-71.16 56.55-27.46 8.51-54.08 12.41-82.73 13.79l-3.45-10.96c-7.32-16.09-18.83-23.75-34.67-30.28 23.14-12.42 53.02-27.58 73.6-43.48 22.32 10.57 41.06 15.98 65.8 10.45 25.56-5.72 46.22-22.02 59.91-44.13 11.7-18.91 18.32-42.56 13.18-64.62 15.47-13.83 31.75-26.8 47.79-39.96m118.73-247.43c7.23-.59 16.75.63 22.84 4.87 4.5 3.13 6.66 7.87 7.32 13.19 4.6 37.05-41.81 94.62-64.01 122.97-10.25 13.09-22.09 24.92-33.64 36.84-27.26 28.14-50.27 49.23-80.19 74.3-15.22 12.75-30.11 25.9-45.75 38.14-95.36 74.64-205.6 141.09-318.23 185.74-32.82 13.02-68.73 26.74-103.98 30.83-13.73 1.6-32.2 2.08-43.36-7.33-4.18-3.52-6.97-8.4-7.39-13.89-2.24-29.27 29.12-68.64 46.96-89.66 10.87-12.75 21.79-25.56 33.97-37.09 4.25 5.78 8.14 11.82 12.09 17.82a259 259 0 0 0-12.55 16.5c-7.58 11.03-16.33 26.69-13.23 40.49 1.21 5.4 4.23 10.14 8.96 13.09 10.87 6.81 27.73 3.86 39.57 1.18 111.86-25.3 299.21-148.93 387.07-224.82a726.6 726.6 0 0 0 90.58-94.43c8.86-10.87 18.19-21.72 25.64-33.63 5.44-8.7 11.52-20.49 8.68-30.97-1.4-5.14-5.06-8.93-9.66-11.43-14.38-7.8-33.19-3.15-47.83 1.52a521 521 0 0 1-13.55-24.36c36.15-14.12 70.61-26.6 109.69-29.87"/><path fill="#e09a85" d="M1556.26 1335.43c11.48-1.09 23.43.02 34.94.64 2.9 11.3 6.94 21.41 14.5 30.47a64.63 64.63 0 0 0 44.01 23c21.17 1.83 36.09-5.28 51.98-18.64 27.41 16.35 53.33 38.54 74.58 62.35-13.11 10.27-21.51 24.26-24.41 40.68-3.32 18.74 1.59 39.3 12.55 54.8 10.06 14.22 23.2 21.75 40.29 24.59-29.56 35.15-64.8 64.79-100.71 93.22-4.19-2.65-8.52-5.06-13.11-6.95-20.58-8.49-43.39-7.18-63.73 1.41-19.47 8.22-35.44 22.6-43.37 42.42-6.35 15.84-7.04 32.72-.22 48.52-25.07 15.31-50.1 30.17-76.06 43.99-32.16 17.73-65.31 34.36-99.82 47.07-43.63-35.38-78.33-84.3-95.76-137.81 10.17-6.15 19.11-12.97 25.85-22.93 12-17.7 16.37-40.83 12.18-61.74-5.52-27.49-21.05-44.71-43.78-59.8 6.15-24.5 15.72-47.03 27.57-69.23 5.05 3.1 10.1 5.76 15.67 7.82 20.6 7.64 42.98 5.64 62.74-3.6a94.58 94.58 0 0 0 48.46-52.85c8.37-23.25 4.47-41.87-5.72-63.68 33.08-14.57 65.36-21.78 101.37-23.75"/><path fill="#292a66" d="M1436.38 1653.34c14.91-1.42 31.08 2.56 43.79 10.45 15.72 9.78 26.1 25.42 30.13 43.39 3.85 17.2.85 34.71-8.84 49.49-11.48 17.5-27.08 24.21-46.92 28.22-18.6.93-33.51-1.54-48.8-12.67a72.54 72.54 0 0 1-28.91-47.13c-2.55-16.43 1.65-34.24 11.83-47.49 11.82-15.38 29.19-21.65 47.72-24.26"/><path fill="#c78579" d="M1440.47 1662.42c13.92.49 26.65 3.12 38.07 11.58 12.98 9.6 21.05 24.45 23.1 40.34 1.93 14.92-1.72 29.76-11.24 41.57-11.27 13.96-25.7 18.97-42.82 21.09-14.68-1.12-27.52-5.12-39.06-14.5-12.82-10.42-21.64-25.95-23.08-42.5a51.47 51.47 0 0 1 12.1-38.19c11.48-13.31 26.01-18.14 42.93-19.39"/><path fill="#292a66" d="M1571.6 1428.25c19.31-1.19 37.5 2.16 53.88 12.93 16.59 10.9 27.35 27.45 31.35 46.83 4.18 20.27-.65 41.02-12.16 58.09-12.31 18.26-30.99 29.68-52.42 33.86-21.08.82-38.49-1.1-56.51-13.02-16.63-10.99-29.33-28.52-33.3-48.18-3.76-18.62.67-39.15 11.36-54.8 13.88-20.32 34-31.36 57.8-35.71"/><path fill="#c78579" d="M1575.53 1437.31c16.59-1.7 34.76 3.14 48.13 13.14a64.3 64.3 0 0 1 24.96 43.28 67.22 67.22 0 0 1-14.27 50.6c-12.61 16-29.04 24.09-48.96 26.54-17.09.21-32.76-3.52-46.71-13.75-14.29-10.48-24.57-26.46-26.99-44.15-2.32-17.01 4.03-35.3 14.22-48.85 12.44-16.52 29.63-23.87 49.62-26.81"/><path fill="#292a66" d="m434.314 1132.62-1.026-.49c-10.43-4.91-21.432-8.56-31.993-13.2-17.017-7.47-33.705-16.24-49.895-25.35-74.137-41.73-129.491-111.361-158.587-191.06-41.21-112.883-31.556-241.962 19.141-350.133a601.9 601.9 0 0 1 339.677-308.925c122.178-44.064 260.201-48.235 379.262 7.934 30.573 14.424 61.48 33.936 86.127 57.177 9.54 8.992 16.71 21.055 27.41 28.667 10.52 7.494 38.75 16.348 53.16 24.171 70.07 38.024 125.65 96.993 152.74 172.666 18.61 52.003 23.16 112.444 13.3 166.722-3.73 20.551-10 40.326-14.87 60.591-5.53 23.041-8.2 45.244-18.59 67.008-22.6 47.372-88.09 100.493-130.69 130.526-13.72 9.665-28.28 17.941-42.12 27.347 10.9 14.919 18.66 32.119 25.63 49.179 31.79 77.84 39.42 164.91 33.93 248.2a830 830 0 0 1-5.41 53.31c-1.89 14.39-4.42 28.81-4.9 43.32l.63 1.24c8.82 17.13 29.9 33.98 23.66 55.56-3.84 13.28-16.23 25.01-28.19 31.2-23.06 11.92-51.74 9.78-75.73 1.9-11.07-3.63-21.08-8.62-30.961-14.75-58.334 121.86-168.177 211.95-277.713 286.34-35.758 24.28-77.021 51.97-117.861 66.27-11.16 3.91-22.651 6.59-34.196 9.06-21.059 22.3-64.418 73.85-96.053 74.31-18.402.27-35.343-11.19-47.758-23.83-25.608-26.06-35.177-59.39-43.151-93.98l-.954.65c-23.956 16.54-47.88 46.08-80.507 40.84-17.988-2.9-34.202-17.07-44.237-31.73-24.203-35.38-31.883-90.19-23.562-131.67 2.863-14.27 9.704-24.5 21.872-32.47 17.218-11.27 37.725-15.9 54.598-27.77 50.549-35.58 88.509-90.95 121.055-142.6 7.742-12.28 17.151-25.47 22.923-38.8l-.783-1.29 1.16-2.92c-1.738.14-3.324.4-5.032.73l-6.536 1.89c-13.536 3.89-27.176 3.61-39.637-3.58-3.314-1.92-6.31-4.16-9.312-6.52a101.68 101.68 0 0 1-73.872 17.85c-19.484-3-38.05-13.82-49.605-29.89-10.416-14.49-15.795-33.59-12.938-51.34 1.858-11.55 7.219-22.47 14.795-31.33 14.652-17.13 35.51-26.33 51.549-41.62 17.559-16.75 31.031-38.15 47.176-56.29 21.827-24.52 47.31-46.68 66.874-73.12"/><path fill="#656f91" d="M445.82 1406.57c17.248-13.81 14.461-22.93 25.076-38.43 2.969-4.34 7.563-8.05 11.412-11.66-8.951 19.62-20.242 35.63-31.833 53.57l-.783-1.29 1.16-2.92c-1.738.14-3.324.4-5.032.73"/><path fill="#9eb0cb" d="M483.794 1709.78c.568.22 1.21.29 1.706.64 2.006 1.42 7.272 11.78 9.306 14.63 3.76 5.27 8.18 10.14 12.5 14.96 20.457 22.8 43.356 41.51 70.695 55.51l-11.751 4.6c-1.392.11-2.549.04-3.895-.37-32.523-9.81-73.447-54.33-90.028-83.02 3.893-2.18 7.663-4.61 11.467-6.95"/><path fill="url(#a)" d="M304.658 1615.58c5.105 3.75 18.505 27.24 23.861 34.39 7.017 9.38 14.454 18.06 22.61 26.45 11.053 11.37 23.045 22.94 35.695 32.5 4.527 3.42 28.302 18.23 29.64 19.77-.858 2.78-2.54 3.08-4.93 4.55l-3.026.84c-21.072-4.88-50.746-32.5-65.626-48.08-10.783-11.28-43.325-51.09-41.884-66.62.147-1.59 2.455-2.82 3.66-3.8"/><path fill="#f9f7f4" d="M1038.12 1303.32c18.44 3.89 36.68 9.08 55.28 12.19-.73 10.26-1.49 21.41-3.76 31.42l-1.62.8c-19.23-3.88-38.28-8.98-57.4-13.46z"/><path fill="#e09a85" d="M1047.63 1252.4c15.39 6.48 33.26 9.95 49.45 14.22-.38 9.46.22 32.23-2.94 40.04l-2.37.29c-17.1-5.71-33.62-9.77-51.44-12.37a2040 2040 0 0 0 7.3-42.18"/><path fill="#f6bc98" d="M354.6 858.367c17.031-3.12 37.421.459 53.572 6.033 34.876 12.038 61.767 37.987 77.515 71.028 13.888 29.141 22.177 67.612 10.849 98.932-8.723 24.12-23.202 39.12-46.232 49.83 16.251-15.75 27.26-30.12 34.576-51.76 5.321-16 6.312-33.435 3.605-50.034-5.551-34.048-25.466-68.191-53.645-88.349-26.021-18.614-58.672-28.321-90.564-22.945-22.935 3.866-40.381 14.408-53.796 33.38 2.992-6.791 6.225-13.338 10.713-19.287 12.853-17.037 32.991-24.053 53.407-26.828"/><path fill="#f9f7f4" d="M389.885 1208.71c45.762 33.97 71.668 68.82 100.651 117.11-6.96 7.42-13.908 14.86-21.989 21.08-3.433.05-7.196-9.69-8.701-12.61-19.14-37.12-58.157-74.93-91.738-99.93 6.708-8.97 14.376-17.25 21.777-25.65"/><path fill="#e09a85" d="M385.705 836.424c29.823-3.276 60.343 8.456 83.548 26.766 28.941 22.834 49.254 55.945 53.534 92.794 3.105 26.738-.385 57.566-17.696 79.226 3.463-14.32 4.056-27.8 3.7-42.456-1.265-13.955-3.157-27.265-7.522-40.625-12.048-36.877-37.516-69.918-72.483-87.612-34.047-17.229-68.392-16.768-103.97-5.249 18.507-14.451 37.6-20.939 60.889-22.844m37.087 333.246c44.014 32.83 73.048 72.22 102.433 117.83-9.311 9.52-17.905 19.58-26.542 29.71-25.88-44.49-58.31-88.95-102.955-116.24 9.14-10.33 18.364-20.59 27.064-31.3"/><path fill="#656f91" d="M466.226 776.669c5.807 6.247 22.167 44.95 29.512 56.67 18.528 29.562 43.688 55.029 61.451 84.861 6.731 11.304 12.532 23.542 15.406 36.441 3.416 15.334 2.631 31.239-5.958 44.82-3.421 3.199-6.829 5.209-10.994 7.329-7.425-7.098-13.579-15.713-20.679-23.195-.317-12.771-.953-25.73-3.017-38.345a149.3 149.3 0 0 0-60.162-96.582c-6.054-22.463-9.244-48.909-5.559-71.999"/><path fill="#e09a85" d="M656.066 1563.51c10.983 5.17 20.57 15.41 31.287 21.62 44.074 25.52 87.112 42.74 137.347 51.44-8.816 8.13-18.072 15.65-27.382 23.2-2.584 2.1-5.35 4.01-8.039 5.97-56.749-10.01-114.038-40.19-158.051-76.75 8.79-8.06 17.225-16.29 24.838-25.48"/><path fill="#9eb0cb" d="M802.652 1353.55c16.296 3.44 32.581 6.84 48.716 10.99-12.392 36.94-38.131 95.24-64.265 124.24-5.09 5.65-7.651 5.39-14.855 5.79a3095 3095 0 0 1-44 3.19c36.275-39.95 61.555-91.95 74.404-144.21"/><path fill="#f9f7f4" d="M1039.87 995.87c.26.198.54.378.79.594 7.94 6.836 13.45 22.006 17.61 31.536 30.49 69.96 38.42 145.96 39.59 221.61.04 2.65-.01 4.09-1.85 6.01l-3.23-.66a896 896 0 0 0-43.34-11.58c10.81-58.64 11.88-126.46 3.17-185.35-2.43-16.44-12.61-48.72-12.74-62.16"/><path fill="#e09a85" d="M443.105 1459.52c14.299 11.59 27.554 24.33 42.05 35.75 42.271 33.3 94.181 60.62 147.614 69.22a788 788 0 0 1-22.118 23.31c-1.676 1.67-2.644 2.59-5.109 2.65-8.085.2-18.843-3.95-26.665-6.06-45.09-12.18-91.232-37.71-126.955-67.99-9.74-8.25-18.684-17.55-27.742-26.54 5.865-10.31 12.62-20.29 18.925-30.34"/><path fill="#f9f7f4" d="M1027.8 1343.87c20.16 5.92 40.94 9.77 61.09 15.87-1.8 7.99-3.67 15.89-4.48 24.05 5.76 13.32 17.19 23.26 23.11 36.36 2.26 5 3.27 10.37 1.14 15.61-3.64 8.94-14.65 14.06-23.05 17.53-1.35.4-2.66.77-4.04 1.06-26.01 5.41-58.33-4.07-80.07-18.44 3.45-14.94 9.33-29.52 13.84-44.17 4.84-15.74 8.56-31.87 12.46-47.87"/><path fill="#9eb0cb" d="m911.633 1055.03.655.91c.681 14.05-2.757 30.51-4.482 44.63-7.971 65.18-19.572 137.9-38.497 200.79a2362 2362 0 0 0-39.619-8.51c-4.49-.99-8.95-2.27-13.404-3.42 14.023-54.65 27.31-109.07 36.629-164.77 2.723-16.27 4.085-32.69 6.415-49.02a946 946 0 0 0 52.303-20.61"/><path fill="#292a66" d="M848.03 1265.01c1.841-.01 3.596.14 5.397.52 4.145.89 7.791 3.2 10.04 6.85 1.796 2.92 2.212 6.4 1.338 9.69-1.363 5.15-4.662 7.25-9.074 9.75-1.436.03-2.822.04-4.236-.26-4.365-.94-8.148-3.87-10.378-7.72-1.893-3.27-2.37-7.36-1.168-10.95 1.44-4.31 4.29-5.9 8.081-7.88"/><path fill="#9eb0cb" d="M848.305 1272.45c1.035.09 2.189.16 3.187.45 2.362.7 3.34 1.98 4.494 4.02.387 3.34-.241 4.87-1.679 7.76-2.51-.97-5.052-2.08-6.282-4.66-1.278-2.68-.493-4.94.28-7.57"/><path fill="#292a66" d="M883.964 1090.14c1.995-.02 4.062-.08 6.044.17 3.725.49 7.301 3.09 9.354 6.16 2.296 3.43 2.863 7.52 2.001 11.53-1.271 5.91-4.399 8.82-9.36 11.9-2.331-.09-4.772-.23-7.038-.83-4.085-1.09-7.771-4.71-9.643-8.4-1.789-3.52-2.144-7.57-.819-11.31 1.796-5.07 4.807-6.93 9.461-9.22"/><path fill="#9eb0cb" d="M883.873 1097.36c.398.15.805.28 1.196.45 3.352 1.46 5.013 3 6.386 6.44.096 3.46-.699 5.19-2.356 8.19-.301-.09-.602-.17-.902-.27-2.844-.88-5.873-1.93-6.983-5.04-1.284-3.6.806-6.89 2.659-9.77"/><path fill="#292a66" d="M859.062 1210.78c1.4.04 2.735.22 4.119.46 5.173.93 9.861 4.45 12.548 8.91 2.262 3.75 3.082 8.04 1.745 12.28-1.511 4.8-4.858 7.42-9.145 9.65-2.177.05-4.439.08-6.591-.32-3.969-.75-7.675-3.49-9.883-6.82-2.47-3.73-3.312-8.06-2.22-12.42 1.414-5.65 4.649-8.74 9.427-11.74"/><path fill="#9eb0cb" d="M860.072 1220.13c.283.05.569.08.849.14 3.2.74 4.76 1.88 6.443 4.66.69 3.41-.012 5.56-1.052 8.84-.409-.05-.822-.08-1.229-.15-3.538-.62-4.743-1.81-6.601-4.65-.357-3.55.272-5.56 1.59-8.84"/><path fill="#292a66" d="M874.087 1146c2.515.15 4.839.56 7.212 1.41a16.46 16.46 0 0 1 9.66 9.33c1.465 3.62 1.489 7.63-.11 11.22-2.286 5.13-6.113 7.3-11.179 9.11a39 39 0 0 1-3.698-.56c-4.814-.99-8.906-3.36-11.457-7.68-2.222-3.76-2.78-8.09-1.384-12.25 1.895-5.66 5.792-8.17 10.956-10.58"/><path fill="#9eb0cb" d="M873.871 1154.3c1.193.43 2.604.86 3.703 1.53 2.111 1.28 3.676 3.09 4.058 5.6.438 2.89-1.696 5.97-3.089 8.36-1.567-.63-3.48-1.27-4.871-2.21-2.241-1.53-2.981-2.9-3.569-5.46.464-3.48 1.62-5.09 3.768-7.82"/><path fill="#f9f7f4" d="M460.32 1722.91c3.207 1.17 18.946 25.7 23.352 30.58 19.239 21.3 40.415 38.81 66.124 51.83-8.735 7.62-17.649 15.17-25.798 23.42-12.649 12.8-23.511 27.88-38.954 37.45-3.351 1.85-6.777 3.8-10.601 4.44-10.483 1.74-20.767-2.27-29.055-8.46-31.012-23.16-42.273-69.02-47.18-105.22 19.644-12.69 41.845-22.12 62.112-34.04m-169.547-99.68c1.583 1.67 8.121 22.01 11.452 27.38 22.815 36.77 56.318 66.44 92.579 89.31-20.436 12.15-39.578 27.52-59.083 41.2-5.622 3.84-11.309 8.13-17.418 11.16-7.721 3.82-16.504 4.04-24.611 1.26-14.733-5.06-25.567-20.03-32.046-33.61-12.16-25.49-19.855-82.36-9.633-108.89 6.023-15.62 24.492-21.89 38.76-27.81"/><path fill="#e09a85" d="m1221.85 784.876.33.317c1.35 5.335-5.58 18.664-7.75 23.908-59.42 41.88-117.89 86.782-182.1 121.318-36.604 19.685-73.745 38.806-111.952 55.204-95.723 41.077-254.097 91.577-357.885 84.327-21.728-1.51-41.922-6.84-62.659-13.08 4.343-4.77 8.118-9.75 11.877-14.99 8.15-13.11 13.944-26.85 19.142-41.32 26.887 27.76 51.054 39.77 89.903 42.65 102.436 7.6 278.093-64.593 368.782-110.349 75.842-38.266 168.662-92.993 232.312-147.985"/><path fill="#f9f7f4" d="M363.119 1241.55c3.305 1.54 6.181 4.07 9.066 6.28 28.689 22.03 76.362 70.5 80.527 107.17 1.203 10.58-.646 21.67-7.516 30.1-5.162 6.33-11.585 9.87-19.766 10.39-12.276.79-21.315-6.33-30.022-13.95 6.813-7.62 13.133-15.37 18.277-24.23-7.735 4.92-14.427 11.03-21.289 17.06-13.85 12.5-29.787 21.69-48.49 24.16-17.722 2.35-35.381-.38-49.72-11.59-11.555-9.03-20.345-22.55-21.724-37.35-1.984-21.27 13.523-39.71 30.847-50 8.555-5.08 18.513-8.68 25.954-15.41 6.557-5.92 11.453-14.39 16.791-21.44 5.466-7.22 11.324-14.18 17.065-21.19"/><path fill="#9eb0cb" d="M580.43 1255.06c23.513 5.26 47.839 7.92 71.527 12.6l108.324 22.38c83.458 16.44 167 32.58 248.719 56.45a358 358 0 0 1-11.262 43.35l-21.536-5.93a2666 2666 0 0 0-138.778-33.47c-42.214-8.68-85.035-15.34-127.457-23.02l-168.741-31.08c13.269-13.58 25.637-27.96 39.204-41.28"/><path fill="#656f91" d="m869.05 410.1.798 1.004c-.124 6.574-2.757 13.889-4.464 20.234-8.343 31.014-20.104 54.154-41.825 77.796a122 122 0 0 0 4.397-12.543c2.698-9.051 10.203-38.017 5.709-46.351-1.345-.46-1.852-1.092-3.182-.252-3.814 2.409-4.955 8.99-6.272 13.089-15.195 47.284-41.792 97.493-87.92 120.906-5.598 2.841-15.737 7.318-21.924 4.274-2.265-1.114-3.199-2.093-4.213-4.373-1.879-4.227-1.774-9.624-1.805-14.194-.158-23.784 6.986-43.419 15.264-65.239 1.172-3.089 1.943-6.11.581-9.157-4.421.263-8.578 5.89-11.374 9.156-8.601 10.046-16.06 21.14-24.424 31.409-21.133 25.943-42.739 48.112-68.584 69.347-34.094 26.36-74.873 51.43-116.676 62.911 7.4-14.516 18.529-28.893 28.846-41.541C609.013 532.14 755.812 451.424 869.05 410.1"/><path fill="#f9f7f4" d="M620.823 1601.64c10.021 6.17 19.331 14.35 29.331 20.82 38.96 25.21 79.377 43.3 124.835 53.19-40.08 35.26-97.521 69.5-144.486 96.12-11.489 6.95-25.013 15.42-37.905 19.11a233 233 0 0 1-8.762-3.36c-32.697-13.5-76.547-51.17-90.129-84.35a836 836 0 0 0 127.116-101.53m586.487-776.767.74.184.4 1.473c-7.97 16.581-22.06 30.508-34.66 43.696-64.42 67.425-141.98 110.691-226.283 149.074-120.044 54.65-276.965 100.59-409.137 105.41-22.796.83-47.137 1.42-69.689-2.26-17.522-2.85-35.22-11.25-51.848-17.46l-9.08-3.69a165 165 0 0 0 3.028-.03c34.743-.74 57.516-13.01 80.989-37.48 15.966 4.95 31.812 9.87 48.416 12.24 115.113 16.44 284.286-39.06 389.466-84.906 37.409-16.305 74.248-35.143 109.878-55.054 57.57-32.169 115-71.735 167.78-111.197"/><path fill="#e09a85" d="M1004.18 327.37c.86-.202 1.36-.373 2.31-.295 7.2.597 15.15 12.222 19.06 17.846-18.18 5.278-37.011 8.384-55.428 12.748-90.744 21.502-176.95 58.215-258.382 103.219-36.733 20.302-73.126 42.288-105.899 68.677-42.697 34.38-81.425 75.922-110.192 122.718-34.554 56.208-50.513 123.976-35.042 188.965-7.13-3.4-14.256-6.507-21.631-9.34-12.548-4.361-24.904-6.861-38.193-7.053.09-75.571 28.168-149.241 72.035-210.13C557.597 497.051 727.192 403.59 863.263 359.87c46.134-14.824 93.119-24.773 140.917-32.5"/><path fill="#f9f7f4" d="M416.708 1501.58c10.651 7.83 19.161 19.64 29.507 28.2 30.981 25.64 68.1 49.06 106.454 61.76 13.67 4.52 28.035 7.45 42.141 10.26-9.071 9.2-19.478 17.36-29.409 25.62-31.109 25.86-63.528 48.88-97.611 70.68-13.434 8.94-27.467 16.97-41.397 25.11-11.658-6.25-23.228-12.61-33.786-20.63-27.864-21.18-63.535-61.08-77.647-93.11 10.008-8.92 21.656-15.88 31.618-24.9 27.037-24.49 47.944-54.25 70.13-82.99m-64.046-624.256c26.733-3.677 55.149 7.035 76.436 22.663 26.87 19.729 47.028 53.47 51.943 86.4 4.069 27.273-2.584 53.093-19.156 75.143-12.109 16.1-24.648 24.53-44.913 27.48a120.12 120.12 0 0 1-73.142-21.08c-29.614-20.44-51.745-56.26-58.082-91.585-4.086-22.773-1.668-49.848 12.091-69.194 12.682-17.832 33.91-26.473 54.823-29.827"/><path fill="#292a66" d="M352.26 895.374c21.036-1.306 41.951 8.21 58.136 21.003 27.561 21.784 47.17 52.307 51.279 87.583 2.257 19.38-.637 41.07-13.451 56.55-10.767 13.01-25.42 16.61-41.405 18.32-22.699-.05-42.74-8.5-60.255-22.62-27.426-22.11-47.408-54.47-51.023-89.942-1.799-17.66 1.227-37.624 13.063-51.501 11.52-13.506 26.761-17.783 43.656-19.393"/><path fill="#f9f7f4" d="M353.693 908.414c18.533.293 34.248 5.975 49.068 17.106 25.031 18.798 43.518 48.524 47.855 79.66 2.076 14.9 1.329 32.94-8.355 45.2-8.877 11.24-21.651 14.13-35.097 15.67-19.063-.2-36.105-6.46-51.291-17.96-24.076-18.23-43.699-46.68-47.778-77.044-2.091-15.563-.871-33.594 9.327-46.276 9.163-11.397 22.348-15.137 36.271-16.356m673.127 91.467 1.8.239c.19.28.41.55.57.85 3.66 7.03 3.07 20.1 4.6 28.35 4.91 26.38 6.27 53.5 6.89 80.28 1.8 78.15-7.57 152.61-28.45 227.92-27.889-11.02-58.43-17.4-87.4-24.95-13.408-2.77-26.746-5.59-39.991-9.07 8.746-33.76 17.905-68.31 24.014-102.63 9.093-51.08 14.198-102.76 21.633-154.07 10.658-4.49 21.043-10.01 31.506-14.98 21.793-10.33 43.518-20.63 64.828-31.939"/><path fill="#292a66" d="M958.089 1113.3c13.526.24 28.914 2.16 41.71 6.65 6.301 2.21 12.161 5.08 15.101 11.41 7.54 16.23-4 55.61-10.36 72.5-3.88 10.3-8.076 16.94-18.315 21.52-14.001 3.45-33.301.7-46.149-6.08-5.353-2.83-9.423-7.23-10.938-13.18-4.438-17.42 8.167-69.79 17.554-85.53 2.882-4.83 6.115-5.98 11.397-7.29"/><path fill="#e09a85" d="M960.291 1127.77c10.933.97 28.439 2.31 37.34 9.13 2.889 2.21 3.629 5.55 3.859 8.98 1.06 15.9-6.779 52.61-17.073 64.3-7.174 3.34-21.174 2.45-28.537-.16-4.148-1.46-7.679-4.41-9.565-8.41-6.566-13.93 8.106-59.15 13.976-73.84"/><path fill="#f9f7f4" d="M860.854 1366.6c44.867 9.52 88.539 20.96 132.465 34.19-19.88 85.26-92.063 171.28-158.6 225.8-24.657-2.69-48.814-10.06-72.053-18.46-34.755-13.79-69.266-31.3-99.342-53.65 10.906-15.05 23.386-29.2 35.171-43.59 49.715-.73 105.475-1 150.423-24.84-16.945 3.25-33.919 4.68-51.083 6.29 7.46-12.86 16.306-24.99 23.834-37.86 16.324-27.92 28.639-57.35 39.185-87.88m-14.873-286.59 1.157 1.06c.059 13.22-3.19 27.74-5.402 40.79-9.491 55.97-25.805 110.41-37.932 165.79-29.166-6.91-59.04-11.82-88.478-17.5-41.852-8.06-83.503-16.51-125.511-23.8 8.05-10.88 17.721-20.65 26.834-30.64a3749 3749 0 0 0 43.383-48.02c5.766-6.54 14.033-14.15 18.322-21.69 1.888-3.32 2.204-9.08.651-12.56-1.145-2.58-2.164-3.04-4.717-3.93-2.776.58-4.495 1.47-6.592 3.42-7.015 6.52-13.028 14.74-19.523 21.85a7082 7082 0 0 0-48.5 53.18c-22.059 24.62-45.027 49.24-68.243 72.78-26.974-48.57-60.048-83.89-103.626-117.99 6.639-8.25 13.662-16.12 20.716-24.01 21.317 1.26 42.46 4.98 63.888 5.04 106.036.3 233.911-27.83 333.573-63.77"/><path fill="#292a66" d="M702.396 1128.03c1.176-.19 2.314-.26 3.506-.25 14.406.07 74.956 10.82 84.438 20.22.426 1.4.571 2.55.431 4.01-1.442 15.07-16.516 67.08-23.516 81.12-1.477 2.96-3.115 4.9-5.592 7.07-6.307 1.45-11.547 1.44-17.913.51-12.675-1.85-62.256-10.95-68.128-21.35-3.737-6.61-.823-18.79.777-25.89 3.009-13.35 9.589-49.02 17.156-58.8 2.152-2.78 5.897-4.78 8.841-6.64"/><path fill="#e09a85" d="M692.516 1174.81c6.41 3.43 15.595 4.74 22.721 6.48 17.065 4.14 34.784 7.53 51.145 13.95l-3.047 10.31c-24.862-4.59-50.021-11.1-74.662-16.9zm-5.639 20.71c24.171 7.47 49.519 11.14 73.85 18.15-1.525 6.38-3.069 12.49-5.56 18.58-13.253 1.09-59.135-10.61-70.539-17.3-3.034-5.58.609-13.76 2.249-19.43m17.42-56.89c20.596 1.04 53.155 10.92 74.229 15.89a895 895 0 0 1-10.083 33.78c-24.422-8.93-50.748-11.98-75.108-20.79 2.697-9.85 3.876-21.16 10.962-28.88"/><path fill="#f9f7f4" d="M531.873 1304.69c24.147 3.67 48.11 9.15 72.176 13.41l189.773 33.97c-5.406 12.95-9.054 26.76-14.02 39.92-13.674 36.24-35.825 79.57-64.645 105.53-26.427 1.46-52.838-.88-79.053-3.96 6.6 3.12 13.115 6.05 20.003 8.48l24.162 6.93c-12.163 15.96-25.395 30.82-39.071 45.48-73.646-16.84-135.805-54-191.57-104.07 17.513-26.58 34.161-54.41 48.926-82.63 10.91-20.85 20.296-43.47 33.319-63.06"/><path fill="#656f91" d="M1036.57 361.359c5.3-.768 9.43.361 14.42 2.072 12.82 4.395 25.04 11.198 36.93 17.664 54.02 29.381 101.39 71.23 128.81 127.259 29.66 60.604 36.19 127.352 24.93 193.327-2.32 13.565-4.72 28.037-9.23 41.041-1.87 5.378-4.47 10.409-8.43 14.55-13.09 13.691-84.99 67.553-103.04 76.306v-.759c16.35-17.186 27.95-43.459 35.2-65.748 10.23-31.483 12.72-72.353-3.02-102.502-10.97-21.003-27.25-32.21-49.43-39.204-3.54-13.968-7.11-27.999-12.04-41.552-21.21-58.27-58.5-113.568-101.381-158.083-13.821-14.346-29.711-26.351-43.545-40.578 28.696-10.946 59.346-19.753 89.826-23.793"/><path fill="#f9f7f4" d="M714.357 231.419c.313-.036.624-.087.939-.108 99.692-6.771 207.05 23.441 284.258 87.727a841 841 0 0 0-137.451 31.486c-122.052 39.052-263.658 115.622-353.088 208.207-68.851 71.281-117.687 165.5-115.895 266.338-34.627 1.289-58.514 12.623-85.464 33.745-16.259 15.488-28.361 32.726-34.854 54.428-10.582 35.371-6.677 70.077 10.711 102.338-57.403-66.04-89.237-147.049-94.915-234.117-8.557-131.233 44.141-256.031 130.03-353.511a571.72 571.72 0 0 1 395.729-196.533"/><path fill="#292a66" d="M364.413 464.286c5.599-.005 10.718 1.326 15.696 3.843 7.33 3.707 12.468 10.049 14.702 17.957 2.374 8.402.895 17.422-3.302 24.991-6.078 10.962-15.01 16.203-26.67 19.484-7.472.135-14.468-1.53-20.594-5.989-6.926-5.04-11.135-12.875-12.185-21.315a36 36 0 0 1 7.501-26.581c6.694-8.448 14.638-11.042 24.852-12.39"/><path fill="#e09a85" d="M362.441 474.205c2.898.163 5.808.646 8.507 1.762 4.844 2.005 8.885 6.048 10.637 11.003 2.053 5.807 1.195 12.241-1.648 17.629-3.91 7.412-9.875 11-17.645 13.409-3.609-.174-6.966-.657-10.283-2.187-4.187-1.932-7.497-5.715-8.97-10.071-2.136-6.317-1.019-13.509 2.217-19.248 4.045-7.175 9.454-10.209 17.185-12.297"/><path fill="#292a66" d="M287.431 600.214c8.84-.629 17.25 1.18 24.938 5.621 16.089 9.294 25.561 29.52 29.985 46.879 9.706 38.088 4.342 84.843-16.023 118.699-11.205 18.627-25.295 33.39-46.892 38.724-11.339.624-21.448-1.265-30.915-7.98-16.22-11.507-24.697-32.258-28.177-51.184-7.206-39.196-.026-87.817 23.279-120.8 10.878-15.396 24.855-26.724 43.805-29.959"/><path fill="#e09a85" d="M285.805 611.164c6.481-.282 11.834-.18 17.801 2.815 13.221 6.636 20.59 20.919 25.176 34.381 12.04 35.339 7.538 77.285-9.019 110.467-8.67 17.376-21.174 31.674-40.029 37.886-7.833.582-14.378-.162-21.322-4.09-12.563-7.105-19.401-21.365-23.314-34.707-10.517-35.855-6.601-79.299 11.6-112.1 9.036-16.285 20.772-29.346 39.107-34.652"/><path fill="#f9f7f4" d="M918.354 392.238c.466.201.947.371 1.399.604 14.571 7.519 30.645 22.615 42.782 33.972 47.965 44.883 88.035 103.091 110.915 164.807 6.39 17.227 10.9 34.794 15.27 52.618 14.46 2.963 30.51 8.347 40.66 19.608 12.89 14.299 15.91 38.419 15.17 56.915-2.2 54.619-35.9 108.526-75.78 144.484-17.47 15.757-42.51 26.42-63.22 37.537-98.437 52.845-277.634 129.737-390.05 123.407-18.296-.74-33.88-5.55-50.368-13.26 6.974-5.4 12.829-10.19 16.699-18.425 3.572-7.601 4.451-16.34 4.217-24.659-1.51-53.607-52.117-94.67-79.223-136.906-16.618-25.894-27.644-53.505-38.717-82.035 5.571-23.623 14.478-44.856 24.256-66.945 14.884-3.629 29.439-7.843 43.607-13.759 59.916-25.022 128.417-75.206 165.915-128.541-2.79 15.215-7.815 35.23 1.212 49.188 3.343 5.168 8.44 9.036 14.581 10.035 21.416 3.485 56.18-28.616 69.332-43.096 7.29-8.026 13.382-17.858 21.226-25.223 5.707-5.358 13.114-9.343 19.42-13.997 34.6-25.538 50.655-73.717 56.903-114.529 11.311-3.8 22.663-7.494 33.794-11.8"/><path fill="#e09a85" d="M1098.39 668.306c7.15-.749 15.44.337 22 3.299 4.34 1.958 7.59 5.231 9.24 9.726 2.38 6.488 1.17 13.958-1.88 20.003-7.34 14.52-21.36 23.273-36.4 27.875-6.18.68-12.71 1.431-18.81-.137-7.65-1.97-11.62-6.661-15.41-13.266-.72-10.46.44-19.811 6.65-28.586 8.22-11.621 21.04-16.877 34.61-18.914M671.194 875.165c11.009-.856 22.272-.88 32.193 4.774 6.137 3.498 10.449 8.847 11.959 15.805 2.091 9.639-1.196 19.34-6.482 27.363-10.781 16.362-27.024 23.907-45.636 27.703-10.655 1.399-21.802 1.12-31.44-4.25-6.177-3.441-10.325-8.834-12.007-15.697-2.186-8.921-.134-18.167 4.639-25.884 10.429-16.858 28.332-25.052 46.774-29.814"/><path fill="#292a66" d="M924.438 711.804c1.112.035 2.069.374 3.135.672 8.682 11.025 12.453 29.473 14.828 42.961 3.49 19.826 3.934 40.917-8.502 57.987-5.666 7.777-13.24 13.563-23.01 14.661-15.67 1.76-29.659-7.14-41.447-16.297-14.665-13.33-29.878-29.485-36.12-48.74 21.722-7.495 42.526-15.549 61.375-29.025 9.743-6.966 18.722-15.086 28.769-21.601z"/><path fill="#f9f7f4" d="m922.319 725.78.776.254c4.333 4.816 6.576 14.466 8.13 20.718 4.475 18.004 7.158 40.189-3.344 56.642-4.052 6.348-9.963 11.448-17.544 12.82-13.185 2.386-25.651-6.786-35.955-13.773-13.02-9.27-22.262-20.565-31.026-33.784 33.54-8.585 53.497-19.079 78.963-42.877"/><path fill="#292a66" d="M961.858 539.164c7.19-.152 13.933 1.109 20.59 3.774 27.292 10.929 49.122 37.511 60.302 64.044 7.44 17.659 14.94 43.229 6.81 61.739-4.67 10.628-12.47 15.75-22.89 19.636-13.16 2.217-25-.044-36.45-6.993-25.192-15.288-45.949-50.983-52.798-78.992-3.674-15.029-5.586-35.86 3.206-49.416 5.241-8.083 12.107-11.598 21.23-13.792"/><path fill="#f9f7f4" d="M944.672 575.86c7.152.088 12.029 1.71 17.561 6.383 7.724 6.524 13.808 17.131 14.341 27.353.339 6.485-1.212 11.414-5.63 16.147-7.734.092-13.655-3.118-19.26-8.373-7.366-6.906-12.739-17.245-12.797-27.476-.034-6.216 1.427-9.691 5.785-14.034"/><path fill="#292a66" d="M649.306 694.198c11.581-1.353 21.759.39 32.189 5.618 28.315 14.195 52.335 46.589 62.136 76.222 5.392 16.303 6.919 36.768-1.412 52.354-5.524 10.337-13.878 15.945-24.75 19.376-9.803 1.004-18.404-.176-27.527-3.911-29.028-11.885-50.917-39.897-62.678-68.229-7.541-18.167-11.843-40.331-3.589-59.014 5.234-11.845 14.013-17.846 25.631-22.416"/><path fill="#f9f7f4" d="M637.557 724.963c1.923.479 3.873.967 5.729 1.671 9.485 3.598 16.918 13.396 20.462 22.583 2.718 7.046 4.425 15.731.915 22.807-2.381 4.8-5.056 6.283-10.016 7.895-1.702-.317-3.427-.655-5.068-1.215-9.867-3.366-17.842-13.157-21.841-22.446-2.961-6.877-4.778-15.129-1.712-22.296 2.246-5.25 6.57-6.839 11.531-8.999"/></svg>