<svg xmlns="http://www.w3.org/2000/svg" display="block" viewBox="0 0 2048 2048"><defs><linearGradient id="b" x1="1686.9" x2="1667.05" y1="441.866" y2="447.094" gradientUnits="userSpaceOnUse"><stop class="stop0" offset="0" stop-color="#412e25"/><stop class="stop1" offset="1" stop-color="#333929"/></linearGradient><linearGradient id="a" x1="690.537" x2="772.929" y1="1651.6" y2="1694.17" gradientUnits="userSpaceOnUse"><stop class="stop0" offset="0" stop-color="#226a24"/><stop class="stop1" offset="1" stop-color="#18522a"/></linearGradient></defs><path fill="#f8f7e2" d="M0 0h2048v2048H0z"/><path fill="#2f0f12" d="M1246.78 1600.07c-.09-30.5 4.29-57.91 13.7-86.93 15.33-47.24 36.38-92.59 57.36-137.52l77.79-163.21c5.03-10.74 9.54-21.71 13.52-32.88 4.34-12.52 7.75-25.28 13.81-37.14 3.52-6.88 8.21-13.04 13.64-18.53 22.61-22.87 53.93-29.79 85.07-29.88 40.18-.12 74.29 18.12 102.14 46 59.17 59.26 125.23 217.44 145.98 298.31 8.57 33.38 13.72 65.8 13.56 100.33-.05 10.56-.02 21.24-.75 31.77-.53 7.75-2.14 15.87-1.54 23.61.88 11.48 10.56 25.13 18.46 33.22 6.95 7.1 13.85 9.99 23.34 12.04 15.15-3.73 24.72-13.72 32.59-26.69 4.94-8.14 9.38-26.82 19.99-28.76 3.41-.63 7.37.81 10 2.99 3.03 2.54 4.86 6.25 5.02 10.21.1 2.41-.42 5.16-1.69 7.23-3.65 5.93-9.96 10.68-14.58 15.86-3.66 4.11-6.78 8.61-10.66 12.55-10.74 10.9-24.65 20.29-40.54 20.21-13.92-.08-26.35-7.26-35.71-17.14-5.13-5.4-9.35-11.73-13.2-18.09-21.35 73.41-50.6 119.46-119.55 157.45-19.12 10.54-50.82 25.83-71.66 28.52-.78 23.14-1.1 46.29-.97 69.44 27.09.04 53.5.69 80.49 3.18 18.42 1.7 82.13 8.07 91.84 23.58 1.57 2.49 1.24 3.05.54 5.71-5.77 6.17-16.91 8.09-24.85 9.98-42.42 10.07-88.11 13.1-131.57 15.54-65.69 3.69-303.77 7.66-349.4-22.36-3.24-2.13-5.14-4.18-5.93-8.1.36-1.91.69-2.84 2-4.36 16.17-18.8 129.32-22.51 157.63-24.4.64-21.82.36-43.65 1.47-65.46-33.95-8.2-67.28-24.98-93.45-48.26-42.31-37.65-61.51-89.34-64.81-144.87-13.15-.81-26.79-2.19-39.91-.71-17.98 2.02-31.56 9.88-46.34 19.72-3.84 2.56-8.43 4.98-11.31 8.63l.78.04c16.07-3.24 36.88 3.08 50.33 11.92 13.95 9.16 23.15 22.24 26.5 38.61 2.74 13.38 1.9 27.47-1.72 40.6-8.26 29.87-27.88 58.49-43.02 85.47-7.88 14.05-15.26 29.04-24.16 42.43-2.2 3.31-4.43 7.25-8.59 8.08-12.65-2.65-25.17-9.5-36.97-14.79-33.66-15.09-69.91-30.05-99.79-51.89-9.22-6.75-17.207-14.76-23.406-24.38-10.786-16.76-14.157-35.8-9.766-55.25 3.749-16.61 13.229-31.81 27.862-40.83 12.52-7.71 30.26-11.44 44.65-7.75 9.9 2.53 19.62 8.36 28.46 13.34 1.96 1.1 1.04.8 2.99 1.09-2.68-11.1-5.93-22.28-9.43-33.15-1.46-4.55-3.95-9.13-4.96-13.76-.46-2.1-.35-5.29.58-7.28 1.07-2.28 2.8-3.21 5.19-3.63 12.8-2.2 6.99 15.22 12.03 19.73.46-.3.93-.6 1.38-.92 9.68-6.65 17.4-16.04 27.56-22.52 36.35-23.17 89.6-30.87 131.98-25.95"/><path fill="#e1df78" d="M1566.99 1808.26c.25-.3.47-.62.75-.9 3.69-3.71 10.29-3.54 15.13-3.76-.78 23.14-1.1 46.29-.97 69.44 27.09.04 53.5.69 80.49 3.18 18.42 1.7 82.13 8.07 91.84 23.58 1.57 2.49 1.24 3.05.54 5.71-5.77 6.17-16.91 8.09-24.85 9.98-42.42 10.07-88.11 13.1-131.57 15.54-65.69 3.69-303.77 7.66-349.4-22.36-3.24-2.13-5.14-4.18-5.93-8.1.36-1.91.69-2.84 2-4.36 16.17-18.8 129.32-22.51 157.63-24.4-.01 4.07-.15 8.17.14 12.22 2.16 1.95 4.02 4.12 5.93 6.3l2.79-1.71 1.64.84c1.93 6.47-.81 13.8 2.74 19.61 5.31-7.31 3.05-27.77 3-36.85 49.26 1.34 98.8-.36 148.13.37z"/><path fill="#310f15" d="M1566.99 1808.26c.25-.3.47-.62.75-.9 3.69-3.71 10.29-3.54 15.13-3.76-.78 23.14-1.1 46.29-.97 69.44l.05 14.48c6.51-2.82 13.39-6.05 20.43-7.28 7.15-1.25 12.82-.05 18.63 4.22 1.34.89 1.25.7 2.17 1.69 3.3 3.54 4.78 7.54 4.26 12.39-.36 3.37-2.09 6.24-4.78 8.28-11.36 8.59-40.5 3.91-54.14 1.74-1.34-11.9-1.41-24.02-1.5-35.97z"/><path fill="#180109" d="M1581.95 1887.52c6.51-2.82 13.39-6.05 20.43-7.28 7.15-1.25 12.82-.05 18.63 4.22-15.71.04-26.6.95-39.73 10.07l-1.55-.12c-.46-2.42.02-3.63.89-5.9z"/><path fill="#310f15" d="M1357.17 1889.64c.48-.88.71-1.35 1.23-2.13 12.82-18.87 32.69-.89 44.39-3.48 2.16 1.95 4.02 4.12 5.93 6.3l2.79-1.71 1.64.84c1.93 6.47-.81 13.8 2.74 19.61-14.31-.37-41.79 6.53-53.69-.55-3.65-2.17-5.37-5.13-6.29-9.18-.84-3.74-.78-6.32 1.26-9.7"/><path fill="#180109" d="M1357.17 1889.64c.48-.88.71-1.35 1.23-2.13 12.82-18.87 32.69-.89 44.39-3.48 2.16 1.95 4.02 4.12 5.93 6.3-11 2-26.4-12.18-45.03-3.25-1.55.75-2.97 1.39-4.61 1.93z"/><path fill="#f8f7e2" d="M1418.85 1808.65c49.89 9.36 98.17 7.06 148.14-.39l.03 64.33c-49.33-.73-98.87.97-148.13-.37.11-21.19.09-42.38-.04-63.57"/><path fill="#180109" d="M1141.78 1640.58c2.11-.14 3.47-.15 5.47.57l1.05-.29.78.04.26 1.27-1.33 1.85c-2.95 1.22-5.01 2.07-8.3 1.83-.64-1.16-1.13-1.64-2.09-2.52l1.51 1.4-1.22-1.81c1.32-.66 2.6-1.57 3.87-2.34"/><path fill="#3e9334" d="M1509.61 1107.9c25.24-6.27 56.17 4.88 77.66 17.72 26.31 13.86 49.6 44.06 64.6 69.48 10.24 13.35 44.01 75.18 46.89 89.61 4.66 9.06 9.02 18.53 12.86 27.98 2.51 5.27 5.49 10.65 7.55 16.1 10.69 23.62 28.23 66.55 33.06 91.58 13.62 40.67 24.8 114.01 17.35 156.72-2.64-9.24-9.93-28.85-18.96-33.5-1.82-.93-3.14-1.04-5.14-1.11-2.63 1.35-4.11 2.68-4.98 5.62-3.2 10.83 6.36 24.95 11.77 33.83 2.83 4.64 5.7 10.42 9.08 14.58 4.86 12.74-4.84 37.66-10.1 49.6l-.55 1.22c-7.77 29.36-26.29 56.32-47.83 77.25-5.59 5.44-11.96 10.04-17.51 15.39-17.56 20.19-39.38 32.8-64.85 40.46-4.88 1.47-10.04 3.53-15.13 3.96-.27.02-.53.02-.8.03l-1.74.4c-10.45 2.48-20.3 7.28-30.86 9.71-35.62 8.18-74.53 12.05-111 8.84-4.32-.38-9.56.07-13.39-2.08l-.36-1.56c-2.38-1.62-5.46-2.18-8.22-3-7.71-2.85-17.92-3.66-26.12-5.64-29.23-7.06-56.28-17.69-80.19-36.24-41.93-32.54-65.99-75.63-72.41-128.24a237 237 0 0 1 3.58-77.2c11.55-53.15 36.19-104.56 58.9-153.7 26.83-58.06 55.27-115.36 82.33-173.3 11.77-25.22 18.66-62.32 34.88-82.69 16.72-21.01 38.37-27.24 63.99-30.25l.5-.83z"/><path fill="#286530" d="M1509.61 1107.9c25.24-6.27 56.17 4.88 77.66 17.72 26.31 13.86 49.6 44.06 64.6 69.48 10.24 13.35 44.01 75.18 46.89 89.61 4.66 9.06 9.02 18.53 12.86 27.98 2.51 5.27 5.49 10.65 7.55 16.1 10.69 23.62 28.23 66.55 33.06 91.58 13.62 40.67 24.8 114.01 17.35 156.72-2.64-9.24-9.93-28.85-18.96-33.5-1.82-.93-3.14-1.04-5.14-1.11-2.63 1.35-4.11 2.68-4.98 5.62-3.2 10.83 6.36 24.95 11.77 33.83 2.83 4.64 5.7 10.42 9.08 14.58 4.86 12.74-4.84 37.66-10.1 49.6l-.55 1.22c-7.77 29.36-26.29 56.32-47.83 77.25-5.59 5.44-11.96 10.04-17.51 15.39-17.56 20.19-39.38 32.8-64.85 40.46-4.88 1.47-10.04 3.53-15.13 3.96-.27.02-.53.02-.8.03l-1.74.4c-10.45 2.48-20.3 7.28-30.86 9.71-35.62 8.18-74.53 12.05-111 8.84-4.32-.38-9.56.07-13.39-2.08l-.36-1.56c6.09.95 12.3 1.34 18.45 1.75 61.76 4.19 132.03-15.87 178.89-57.02 50.38-44.25 79.05-112.33 83.03-178.5 1.62-28.1-.13-56.3-5.2-83.98-14.48-82.12-47.78-171.48-82.7-247.23-8.28-17.96-16.35-36.39-26.69-53.29a223.4 223.4 0 0 0-23.44-31.13c-21.95-24.55-46.55-40.48-79.96-42.43"/><path fill="#224c26" d="M1642.77 1191.55c-10.66-14.69-20.88-30.86-34.07-43.45-6.89-6.58-16.31-14.22-24.34-19.34-2.07-1.31-7.36-3.57-8.27-5.57 3.52.01 6.1 2.49 9.65 2.48.51 0 1.02-.03 1.53-.05 26.31 13.86 49.6 44.06 64.6 69.48 10.24 13.35 44.01 75.18 46.89 89.61 4.66 9.06 9.02 18.53 12.86 27.98 2.51 5.27 5.49 10.65 7.55 16.1 10.69 23.62 28.23 66.55 33.06 91.58-5.89-7.04-14.36-40.77-18.44-51.44-2.55-6.66-5.81-12.97-7.9-19.81-.1-.32-.2-.65-.29-.98l-.24.23c.07 4.05 22.34 68.38 25.42 79.33 4.6 16.35 9.31 33.43 11.89 50.2.83 5.4.29 10.83 1.04 16.16.61 4.38 3.25 11.05 1.01 15.05l-.64-.16c-2.09-5.62-1.56-11.7-2.58-17.57a626 626 0 0 0-10.87-49.93c-6.59-25.58-14.42-51.3-23.31-76.18-4.09-11.46-9.25-22.57-13.13-34.09-2.37-3.76-4.2-7.97-6.13-11.98-5.15-11.64-10.16-23.38-15.75-34.83-15.02-32.14-30.41-62.91-49.54-92.82m105.67 445.22c2.47-11.95 6.66-30.04 12.91-40.26 4.86 12.74-4.84 37.66-10.1 49.6l-.55 1.22c-7.77 29.36-26.29 56.32-47.83 77.25-5.59 5.44-11.96 10.04-17.51 15.39l-3-1.2c4.04-4.04 8.79-7.22 12.83-11.35a228.1 228.1 0 0 0 45.03-67.77c2.96-6.93 4.56-14.41 7.53-21.29z"/><path fill="#310f15" d="m1682.36 1738.77 3 1.2c-17.56 20.19-39.38 32.8-64.85 40.46-4.88 1.47-10.04 3.53-15.13 3.96-.27.02-.53.02-.8.03 7.09-3.6 14.68-6.37 21.86-9.85 19.57-9.47 39.54-21.47 55.92-35.8"/><path fill="#040204" d="M1509.61 1107.9c33.41 1.95 58.01 17.88 79.96 42.43 8.7 9.67 16.55 20.09 23.44 31.13 10.34 16.9 18.41 35.33 26.69 53.29 34.92 75.75 68.22 165.11 82.7 247.23 5.07 27.68 6.82 55.88 5.2 83.98-3.98 66.17-32.65 134.25-83.03 178.5-46.86 41.15-117.13 61.21-178.89 57.02-6.15-.41-12.36-.8-18.45-1.75-2.38-1.62-5.46-2.18-8.22-3 7.71.88 15.43 1.77 23.18 2.16 65.07 3.34 133.75-14.28 182.85-58.82 50.72-46.01 76.56-115.18 79.67-182.48 1.12-23.47-.27-46.99-4.16-70.16-13.57-80.68-65.88-231.03-107.51-300.8a228.2 228.2 0 0 0-27.98-37.32c-23.17-25.28-46.51-38.46-81.09-39.84l.5-.83z"/><path fill="#e1df78" d="M1506.74 1124.51c23.05 1.4 43.98 8.88 60.62 25.4 59.24 58.77 122.78 256.83 136.92 341.94 2.68 16.19 3.96 32.58 3.84 48.98-.03 65.74-26.15 140.99-73.51 187.8-41.25 40.77-105.39 57.66-161.89 57.3-52.06-1.48-104.6-16.7-144.18-51.74a174.96 174.96 0 0 1-57.57-121.56c-1.94-33.73 4.3-67.92 14.45-100.01 12.63-39.9 31.14-77.24 48.69-115.13l72.78-155.63c10.97-23.52 16.71-49.05 27.56-72.44 3.43-7.38 7.61-14.35 13.09-20.4 16.19-17.86 35.9-23.46 59.2-24.51"/><path fill="#310f15" d="M1497.5 1451.41c20.39-1.92 41.62 4.84 57.86 17.2 22.14 16.86 34.87 43.91 38.46 71.06 5.19 40.53-6.25 81.44-31.72 113.4a139.37 139.37 0 0 1-92.86 52.79c-24.28 1.07-46.1-2.99-65.37-18.69-19.52-15.91-29.56-39.33-32.03-64.03-4.27-42.7 12.98-92 40.13-124.78 22.01-26.59 51.06-43.71 85.53-46.95"/><path fill="#6a3f2f" d="M1500.3 1463.39c15.13-.94 31.87 4.07 44.07 13.01 19.19 14.05 29.46 38.05 32.89 60.99 5.54 36.55-3.8 73.8-25.93 103.41-20.37 27.48-49.25 45.21-83.08 50.16-20.17 1.16-39.11-2.48-55.14-15.47-16.83-13.64-24.94-33.76-26.93-54.93-3.83-40.62 11.17-84.39 37.08-115.65 20.02-24.15 45.77-38.67 77.04-41.52"/><path fill="#d8443e" d="M1374.62 1382.28c3.23 0 6.43.02 9.59.76 5.24 1.24 10.22 4.11 12.99 8.86 2.35 4.04 2.7 8.77 1.31 13.21-2.56 8.19-8.86 11.93-16.01 15.57-5.56.72-9.45 1.11-14.42-1.82a22.3 22.3 0 0 1-10.3-14.34c-1.13-5.24-.47-10.66 2.69-15.08 3.58-5.01 8.37-6.2 14.15-7.16"/><path fill="#d73232" d="M1620.28 1393.14c3.55-.26 6.96-.44 10.45.42 5.61 1.38 10.86 5.08 13.59 10.24 2.16 4.09 2.47 8.5 1.03 12.87-2.12 6.41-6.99 9.12-12.76 11.87-2.93.37-5.72.04-8.56-.75-5.94-1.63-11.42-5.42-14.35-10.93-2.15-4.04-2.73-8.74-1.17-13.09 2.03-5.69 6.62-8.15 11.77-10.63"/><path fill="#310f15" d="M1549.56 1337.55c1.06.16 3.67.23 4.5.7 2.86 1.63 7.07 20.12 11.28 25.16 4.07 4.88 10.01 7.44 16.28 7.86 6.85.4 13.55-2.05 18.52-6.77 6.25-5.86 7.72-12.01 8-20.21.12-3.31.56-4.65 2.96-6.91 2.13.22 2.54.7 4 2.32 2.41 2.67 2.12 4.77 2.17 8.1l-.4 1.44c-3.1 11.16-8.16 21.55-18.83 27.22a32.35 32.35 0 0 1-25.31 2.09c-9.61-3.17-17.56-11.04-21.64-20.22-3.09-6.98-4.13-13.58-1.53-20.78m-159.98-2.99c1.5.42 3.83.7 4.93 1.84 4.38 4.54 4.58 20.03 12.09 28.1 3.03 3.26 6.75 5.12 11.23 5.21 4.42.08 9.21-1.28 13.1-3.33 17.04-9.01 8.89-21.14 17.46-29.52 2.52-.25 2.6.15 4.71 1.63 1.66 2.75 1.01 5.68.76 8.75a43.6 43.6 0 0 1-7.06 16.98c-4.94 7.02-12.44 11.94-21 13.14-9.04 1.27-18.02-1.75-25.11-7.35-7.54-5.95-13.37-14.91-14.16-24.6-.39-4.7.05-7.15 3.05-10.85"/><path fill="#180109" d="m1497.5 1395.46 1.4.15c6.28.65 10.62.6 15.65-3.6 3.89-3.26 7.59-11.85 11.57-13.56 1.25.83 1.94.84 2.27 2.44.89 4.31-1.73 9.32-4.27 12.65-4.41 5.81-10.82 9.62-18.13 10.25-6.42.54-14.14-2.69-18.81-7-.5-.45-.97-.92-1.46-1.39 3.77-.73 7.77.58 11.78.06"/><path fill="#2f0f12" d="M1485.72 1395.4c-2.12-1.96-3.78-4.86-4.38-7.69-.58-2.76-.17-5.25 1.37-7.55 5.96 1.13 8.85 11.02 14.01 14.75.26.18.52.36.78.55-4.01.52-8.01-.79-11.78-.06"/><path fill="#d8443e" d="M1153.2 1652.2c12.32-1.12 24.25.45 35.21 6.49a49.9 49.9 0 0 1 24.63 31.82c3.45 13.4 1.93 27.51-1.92 40.64-5.58 18.97-16.4 35.7-25.89 52.87-12.98 23.47-25.94 46.8-39.74 69.81-28.45-10.51-55.77-23.88-82.87-37.43-18.25-9.64-39.14-19.07-54.4-33.11-11.954-11-19.232-25.98-19.67-42.29-.421-15.65 5.307-32.13 16.44-43.28a47.2 47.2 0 0 1 24.7-13.06c37.04-7.04 48.25 27.99 66.96 27.84 11.89-4.64 14.9-27.72 22.25-38.54 8.42-12.42 19.85-18.86 34.3-21.76"/><path fill="#f8f7e2" d="M1186 1710.9c3.42.59 6.03 1.19 8.21 4.21 2.74 3.8 3.04 9.03 2.24 13.51-1.58 8.92-5.29 15.47-12.8 20.46-1.51-.01-2.9-.07-4.36-.54-2.66-.86-4.29-2.46-5.6-4.88-2.3-4.25-1.48-10.55-.26-14.97 2.24-8.04 5.33-13.55 12.57-17.79m-173.94.11c1.74-.23 3.42-.34 5.16-.21 3.45.25 7.25 1.73 9.14 4.82.91 1.48 1.24 3.1.95 4.78-.75 4.25-3.21 6-6.55 8.27-4.36.58-9.96.42-13.45-2.66a6.97 6.97 0 0 1-2.36-6.09c.53-4.2 4.04-6.53 7.11-8.91"/><path fill="#286530" d="M1134.79 1631.33c3.31-3.45 13.03-7.69 17.6-9.57 3.32-1.37 8.08-3.38 11.5-1.93-2.21 4.59-7.87 7.67-12.01 10.4-2.86 1.97-6.11 3.84-8.75 6.07-3.18 2.39-6.34 5.23-9.72 7.3l-4.09 2.33c1.9-4.05 6.14-10.27 5.47-14.6"/><path fill="#3e9334" d="M1133.41 1643.6c.21-1.35.07-.85.75-2.5 2.36-5.69 7.33-10.51 12.91-12.94 2.79.2 2.82.13 4.81 2.07-2.86 1.97-6.11 3.84-8.75 6.07-3.18 2.39-6.34 5.23-9.72 7.3"/><path fill="#4c9938" d="M1134.79 1631.33c.67 4.33-3.57 10.55-5.47 14.6-6.59 4.58-12.22 10.73-17.78 16.49 3.72-7.61 7.27-15.01 9.8-23.13 4.87-2.07 9.07-5.03 13.45-7.96"/><path fill="#f8f7e2" d="M1106.29 1650.36c-3.88 10.26-8.03 20.51-11.31 30.99-1.59-6.16-3.24-12.29-4.95-18.42 5.94-2.91 11.26-8.3 16.26-12.57"/><path fill="#2f0f12" d="M332.021 1443.34c10.851-27.52 25.087-53.88 38.273-80.34l62.079-125.56c8.696-17.95 17.398-36.05 25.39-54.33 6.82-15.6 12.39-33.03 21.952-47.14a84.5 84.5 0 0 1 37.565-30.81c31.831-13.67 70.712-12.3 102.508.64 22.339 9.09 42.034 23.9 58.481 41.44 43.86 46.78 81.476 130.21 105.991 189.27 25.472 61.36 48.85 129.11 48.519 196.39 26.858 34.76 55.669 76.55 50.039 122.82-1.533 12.59-6.297 24.88-16.358 33.13a27.07 27.07 0 0 1-20.615 5.96c-3.441-.42-6.073-1.35-8.622-3.76-.339-2.14.127-3.61.708-5.67-.897-2.49-2.704-3.96-4.566-5.74-.458-2.32-.542-2.78.21-5l3.08-1.13c-.628-3.91-4.06-2.98-.891-7.62 3.087-4.53 9.895-6.13 14.983-6.68 5.663-.61 9.505 1.77 14.386 4.27 8.633-26.57 1.976-49.31-10.281-73.51a220 220 0 0 0-22.703-35.99c-5.338 78.45-30.414 141.7-91.168 194.49-31.844 27.67-69.127 44.59-109.409 55.8.784 27.05 1.463 54.02 1.335 81.08 9.413-5.57 18.236-10.32 29.548-7.65 4.111.96 7.586 2.75 11.238 4.81.266-.03.532-.07.8-.1 21.072-2.06 112.062 5.35 125.064 19.23 1.863 1.99 1.903 2.49 1.661 4.98-1.926 2.99-4.791 4.48-8.008 5.81-29.868 12.3-107.232 17.65-140.106 19.16-63.771 2.91-287.971 1.8-337.273-19.81-3.414-1.49-5.878-3.1-7.249-6.73.472-2.78.982-4.24 3.103-6.22 11.949-11.16 83.202-20.95 100.155-19.13.34.04.679.09 1.018.13 7.976-1.61 16.858-3.63 24.452.47q3.98 1.965 8.071 3.69c1.908-10.02-.137-23.01-.113-33.46.039-16.73.939-33.52 1.584-50.25-7.523-.25-16.834-4.12-23.758-6.93-48.928-19.91-92.983-57.51-113.615-106.91-22.857-54.73-22.589-117.55-5.837-173.84 5.51-18.51 13.231-36.24 20.592-54.07-32.779-10.39-52.414-19.86-77.544-43.93 2.727 17.63 15.523 78.14 8.625 91.68-2.234 2.11-5.083 3.16-8.018 3.96-5.138 1.4-11.164 1.22-15.763-1.7-3.141-1.99-5.128-4.59-6.089-8.17-5.228-19.48-6.739-42.91-9.639-63.05-4.966-35-10.202-69.96-15.708-104.89-3.008-19.38-5.447-39.08-9.585-58.24a147 147 0 0 1-17.65-5.34 74.6 74.6 0 0 1-21.331-15.56c-14.842-15.5-19.903-34.04-19.517-55.04 3.26-20.25 10.888-37.57 27.998-49.83a68.95 68.95 0 0 1 51.062-11.59 70.37 70.37 0 0 1 45.949 28.99c10.455 15.12 13.812 32.89 10.502 50.89-3.273 17.79-12.347 33.46-27.322 43.88-4.123 2.87-8.79 5.17-13.229 7.5 1.613 20.27 11.732 104.74 18.217 118.89 4.551 9.92 14.132 18.73 22.314 25.71 18.443 15.72 40.992 25.41 64.515 30.65"/><path fill="#e1df78" d="M459.717 1877.35c29.402-.62 58.681-1.44 88.098-1.28 23.433.13 46.876 1.17 70.307 1.11-.05 7.33-1.852 22.56 2.117 28.58l1.835 1.05c8.779 2.8 33.942 3.96 43.077 2.22 3.349-.23 7.155-1.52 9.748-3.72 2.638-2.24 4.129-5.39 4.423-8.82.517-6.04-1.759-9.61-5.629-13.98.266-.03.532-.07.8-.1 21.072-2.06 112.062 5.35 125.064 19.23 1.863 1.99 1.903 2.49 1.661 4.98-1.926 2.99-4.791 4.48-8.008 5.81-29.868 12.3-107.232 17.65-140.106 19.16-63.771 2.91-287.971 1.8-337.273-19.81-3.414-1.49-5.878-3.1-7.249-6.73.472-2.78.982-4.24 3.103-6.22 11.949-11.16 83.202-20.95 100.155-19.13.34.04.679.09 1.018.13 7.976-1.61 16.858-3.63 24.452.47.506 2.33 14.241 16.6 17.801 23.39l-8.951 2.81.011.79c1.998.37 3.986.71 6 1 2.134-.22 3.49-.85 5.388-1.82 4.504-6.54 2.206-21.28 2.158-29.12"/><path fill="#310f15" d="M412.858 1879.83c7.976-1.61 16.858-3.63 24.452.47.506 2.33 14.241 16.6 17.801 23.39l-8.951 2.81.011.79c1.998.37 3.986.71 6 1-10.633 1.79-25.8 2.68-36.437 1.09-4.981-.75-10.719-2.68-13.604-7.12-1.851-2.84-2.189-6.4-1.437-9.66 1.452-6.29 7.039-9.65 12.165-12.77"/><path fill="#f8f7e2" d="M463.132 1804.66c32.87 14.46 117.651 11.46 153.778 3.03l1.212 69.49c-23.431.06-46.874-.98-70.307-1.11-29.417-.16-58.696.66-88.098 1.28.087-11.85-1.362-65.56 3.415-72.69"/><path fill="#3e9334" d="M219.028 1179.81c-3.906.36-8.337 2.07-12.262 2.84-15.867 3.1-40.144 7.95-55.745 2.23-2.683-.99-2.664-1.44-3.617-3.93.853-5.81 4.857-10.61 8.679-14.87a57.94 57.94 0 0 1 41.444-19.38c18.607-.58 34.679 7.75 47.753 20.35-4.704 2.96-9.597 5.7-14.385 8.53-4.086 1.16-7.94 2.62-11.867 4.23"/><path fill="#d6d25d" d="M196.821 1212.83c14.177-1.5 32.075-5.93 44.982-12.21 4.832-2.36 9.264-7.43 14.351-8.82 1.003 2.44.369 3.78-.058 6.31l2.335 1.85c-.303 1.95.091 1.3-.602 2.19-.222 4.92-1.005 9.3-2.099 14.07-27.317 16.87-59.824 19.08-91.189 20.76-2.846.02-6.501.3-9.214-.66-5.691-2-8.038-8.66-10.527-13.62l-.557-.11c-1.617-1.36-2.039-2.11-2.627-4.14l1.417-.72 3.315 1.41c-1.341-2-3.08-3.58-4.772-5.28l2.057-.52c9.552 3.41 41.86 1.09 53.188-.51"/><path fill="#5a0e13" d="M196.821 1212.83c14.177-1.5 32.075-5.93 44.982-12.21 4.832-2.36 9.264-7.43 14.351-8.82 1.003 2.44.369 3.78-.058 6.31-13.666 15.93-43.237 20.87-63.131 22.41-10.486.81-37.211 2.08-46.617-1.38-1.341-2-3.08-3.58-4.772-5.28l2.057-.52c9.552 3.41 41.86 1.09 53.188-.51"/><path fill="#040204" d="m256.096 1198.11 2.335 1.85c-.303 1.95.091 1.3-.602 2.19-24.392 20.13-68.684 26.29-99.347 23.44-4.739-.44-9.19-1.28-13.682-2.89l-.557-.11c-1.617-1.36-2.039-2.11-2.627-4.14l1.417-.72 3.315 1.41c9.406 3.46 36.131 2.19 46.617 1.38 19.894-1.54 49.465-6.48 63.131-22.41"/><path fill="#310f15" d="M132.015 1198.25c2.021-.17 3.273.02 5.172.59 2.361.72 3.523.57 5.896.01-.691 3.04-1.756 5.87-.517 8.88 9.808 6.69 39.582 3.83 51.26 2.07l2.995 3.03c-11.328 1.6-43.636 3.92-53.188.51l-2.057.52c1.692 1.7 3.431 3.28 4.772 5.28l-3.315-1.41-1.417.72c.588 2.03 1.01 2.78 2.627 4.14l.557.11c2.489 4.96 4.836 11.62 10.527 13.62 2.713.96 6.368.68 9.214.66l-1.084 1.73c5.3 2.08 14.283.82 20.174 1.12l-1.041.1c-6.907.62-14.594-.48-21.204 1.47l-.722 1.23.524.92c.433 2.17 1.173 2.97 2.684 4.54 5.343 1.89 10.783.29 16.181 1.53l-14.592.64c7.436 4.82 13.794 8.67 22.745 10.16l2.634 2.67c-5.869 3.5-13.915-.78-17.977 5.76a74.6 74.6 0 0 1-21.331-15.56c-14.842-15.5-19.903-34.04-19.517-55.04"/><path fill="#e3b153" d="M247.249 1183.67c2.969-1.28 3.612-2.14 6.768-1.1 1.523 2.08 1.357 2.21 1.21 4.81-5.219 9.2-24.18 13.84-33.848 16.48a282 282 0 0 1-27.553 5.94c-11.678 1.76-41.452 4.62-51.26-2.07-1.239-3.01-.174-5.84.517-8.88 4.138-.64 8.063 1.19 12.145 1.75.061.02.119.05.182.06 23.683 4.46 72.057-3.18 91.839-16.99"/><path fill="#3e9334" d="M180.053 1249.62c23.278-.29 48.326-6.41 69.576-15.43-3.173 3.76-6.59 7.35-9.894 10.99-16.314 6.22-31.206 11.46-48.398 14.81l-3.131.43c-8.951-1.49-15.309-5.34-22.745-10.16z"/><path fill="#310f15" d="m230.895 1175.58 1.641-.21c2.071-.28 3.867-.92 5.854-1.51 1.307-.39.807-.29 2.274 0-22.216 12.23-46.424 17.26-71.662 17.06-4.901-.03-10.862.32-15.593-1.19-2.647-.85-5.186-2.29-7.83-3.27-1.381 2.38-2.348 3.56-2.364 6.41 6.711 5.27 39.45 4.85 48.283 3.8 19.162-2.27 39.901-8.72 57.096-17.62.1 1.79.284.86-.575 2.44-.799 1.46-.612.83-.77 2.18-19.782 13.81-68.156 21.45-91.839 16.99-.063-.01-.121-.04-.182-.06-1.248-4.87-9.431-4.17-13.275-6.84-1.342-.93-1.007-1.58-1.191-3.07 1.134-1.73 2.724-5.61 4.941-5.53 4.012.14 8.83 3.52 13.081 4.12 14.926 2.1 39.254-1.26 53.848-5.44 2.983-.85 4.878-1.24 6.396-4.03 3.927-1.61 7.781-3.07 11.867-4.23"/><path fill="#5a0e13" d="M183.631 1239.83c11.065-1.66 22.834-2.76 33.657-5.47 7.816-1.96 23.548-8.27 30.775-8.59l.923 1.07c-2.594 5.23-8.211 7.21-13.442 9-19.065 6.52-54.789 14.02-74.356 7.71l-.524-.92.722-1.23c6.61-1.95 14.297-.85 21.204-1.47z"/><path fill="#354828" d="M191.337 1259.99c17.192-3.35 32.084-8.59 48.398-14.81-8.22 10.11-21.309 16.87-34.342 18.25-3.789.4-9.894.26-12.906-2.34-.4-.35-.766-.73-1.15-1.1"/><path fill="#040204" d="M622.074 1906.81c7.336-4.56 29.291-2.05 37.708-.29 2.148.45 3.589 1.26 5.369 2.51-9.135 1.74-34.298.58-43.077-2.22"/><path fill="#3e9334" d="m554.823 1110.84.562-2.07c2.712-1.08 5.479.74 8.433.87.37.01.74-.02 1.11-.03 28.294-3.84 60.851 9.33 83.072 26.27 49.087 37.42 80.659 107.21 105.391 162.22 28.619 63.65 55.723 129.68 64.863 199.38.965 7.36 1.654 14.56 1.547 21.99-1.44 1.35-.591.95-2.335 1.24-2.793.45-4.888.53-6.933 2.69-1.169 2.98-.919 5.69.215 8.65.094.24.222.48.333.71 2.874 2.52 5.709 5.02 8.789 7.29 4.877 57.26-22.463 125.42-59.072 168.62-35.023 41.33-82.111 68.75-133.725 83.74-14.221 4.13-29.132 7.83-43.921 9.04-.771.07-1.544.09-2.317.12l-.292-.85.234-.34q-16.046 1.125-32.076 2.49l-.712-1.03-1.908.67 1.361-.62.628.77.802-1.15 1.717-.23c-60.774 1.91-132.177-14.65-179.41-54.46-40.216-33.9-61.125-81.37-65.535-133.26a268.1 268.1 0 0 1 11.195-99.91c17.736-56.7 50.695-117.53 77.895-170.73 6.956-13.61 13.071-27.63 19.791-41.35 10.305-21.05 21.07-41.87 31.156-63.02a2705 2705 0 0 0 23.552-50.89c6.6-14.91 12.409-36.5 23.258-48.63 17.004-19.02 37.473-26.14 62.332-28.19"/><path fill="#286530" d="M564.928 1109.61c28.294-3.84 60.851 9.33 83.072 26.27 49.087 37.42 80.659 107.21 105.391 162.22 28.619 63.65 55.723 129.68 64.863 199.38.965 7.36 1.654 14.56 1.547 21.99-1.44 1.35-.591.95-2.335 1.24-2.793.45-4.888.53-6.933 2.69-1.169 2.98-.919 5.69.215 8.65.094.24.222.48.333.71 2.874 2.52 5.709 5.02 8.789 7.29 4.877 57.26-22.463 125.42-59.072 168.62-35.023 41.33-82.111 68.75-133.725 83.74-14.221 4.13-29.132 7.83-43.921 9.04-.771.07-1.544.09-2.317.12l-.292-.85.234-.34c37.775-5.62 72.198-23.09 102.482-45.72 10.409-9.27 20.805-18.64 29.883-29.25 32.475-37.94 49.132-87.27 57.01-136.01a368 368 0 0 0 1.875-98.32c-11.603-94.64-70.662-246.08-126.421-323.22-21.694-30.01-42.918-52.2-80.678-58.25"/><path fill="url(#a)" d="M811.081 1532.76c2.874 2.52 5.709 5.02 8.789 7.29 4.877 57.26-22.463 125.42-59.072 168.62-35.023 41.33-82.111 68.75-133.725 83.74-14.221 4.13-29.132 7.83-43.921 9.04-.771.07-1.544.09-2.317.12l-.292-.85.234-.34c37.775-5.62 72.198-23.09 102.482-45.72l.945 1.82 2.091.07c17.136-9.79 40.603-33.25 54.984-47.68 15.364-15.42 30.276-34.18 40.623-53.4 19.119-35.51 29.211-82.51 29.179-122.71"/><path fill="#040204" d="m554.823 1110.84.562-2.07c2.712-1.08 5.479.74 8.433.87.37.01.74-.02 1.11-.03 37.76 6.05 58.984 28.24 80.678 58.25 55.759 77.14 114.818 228.58 126.421 323.22a368 368 0 0 1-1.875 98.32c-7.878 48.74-24.535 98.07-57.01 136.01-9.078 10.61-19.474 19.98-29.883 29.25-30.284 22.63-64.707 40.1-102.482 45.72q-16.046 1.125-32.076 2.49l-.712-1.03-1.908.67 1.361-.62.628.77.802-1.15 1.717-.23c46.248-3.05 89.818-17.4 126.679-46.11 55.777-43.45 82.835-108.46 90.957-177.16a391.4 391.4 0 0 0-1.258-98.48c-13.485-92.79-74.281-248.88-132.218-321.69-22.921-28.8-43.181-42.89-79.926-47"/><path fill="#e1df78" d="M540.746 1124.38c23.148-1.24 42.694 1.22 61.465 15.92 59.096 46.29 117.029 205.87 135.704 277.3a508 508 0 0 1 13.148 70.41c9.008 77.96-6.18 164.27-56.106 226.68-28.808 36-73.426 59.45-118.482 67.39-15 2.65-29.868 2.78-44.879 4.53l-.941.12c-52.46-4.06-91.756-7.51-137.222-38.42-39.931-27.14-66.637-71.21-75.421-118.41-6.279-33.73-2.506-70.14 6.727-103.06 13.211-47.11 36.435-91.14 57.706-135.02l76.992-158.94c11.671-24.43 24.342-63.27 38.572-83.42 9.872-13.98 26.213-22.16 42.737-25.08"/><path fill="#310f15" d="M536.208 1451.29a92.34 92.34 0 0 1 63.226 15.5c23.039 16.05 34.948 41.65 39.81 68.68 6.92 38.49.282 82.85-22.561 115.16-21.178 29.97-51.602 48.94-87.617 55.12-25.122 3.54-49.542-1.7-70.517-16.21-19.945-13.8-32.114-33.67-36.151-57.48-7.465-44.04 6.871-89.78 32.348-125.67 20.392-28.73 46.243-49.19 81.462-55.1"/><path fill="#6a3f2f" d="m472.875 1684.59-1.718.73c-1.645-.46-3.001-.94-4.482-1.81-17.107-10.15-26.29-25.23-31.252-44.11-10.242-38.96-1.338-82.02 18.932-116.24 16.042-27.08 42.844-53.3 74.282-60.99a76.14 76.14 0 0 1 58.394 8.78c23.138 14.36 36.939 38.44 43.014 64.57 7.107 30.56 1.429 71.65-15.514 98.31-3.182 5.01-9.091 15.41-15.049 16.78l-1.03.82c-6.855 5.58-12.338 13.2-19.08 19.08-20.368 17.79-49.061 25.76-75.726 23.32-13.35-1.22-20.333-7.23-30.771-9.24"/><path fill="#040204" d="m472.875 1684.59-1.718.73c-1.645-.46-3.001-.94-4.482-1.81-17.107-10.15-26.29-25.23-31.252-44.11-10.242-38.96-1.338-82.02 18.932-116.24 16.042-27.08 42.844-53.3 74.282-60.99a76.14 76.14 0 0 1 58.394 8.78c23.138 14.36 36.939 38.44 43.014 64.57 7.107 30.56 1.429 71.65-15.514 98.31-3.182 5.01-9.091 15.41-15.049 16.78 23.309-31.65 35.138-67.53 28.987-107.06-3.92-25.19-15.804-51.53-37.003-66.69-15.781-11.28-35.582-16.72-54.822-13.35-29.639 5.19-56.821 27.12-73.505 51.4-23.192 33.75-34.916 76.59-27.064 117.24 3.44 17.8 11.948 36.4 27.5 46.78 3.014 2.01 6.171 3.83 9.3 5.66m56.289-310.17c14.13-.93 32.004-.3 45.24 5.24 4.7 1.97 9.228 5.1 11.017 10.08 1.739 4.85.677 10.01-1.777 14.4-6.179 11.07-18.934 17.93-30.657 21.49a54 54 0 0 1-20.491 1.18c-11.561-1.58-23.025-7.03-30.074-16.56-7.032-9.51-7.768-18.96-5.905-30.15 10.669-4.16 21.309-4.87 32.647-5.68"/><path fill="#d8443e" d="M537.49 1398.16c.673-.05 1.344-.12 2.018-.15 8.812-.51 17.719-.43 24.59 5.82.968 2.36 1.74 3.53.434 6.06-2.654 5.12-10.974 7.17-16.037 8.91-4.778.42-9.802.87-14.551.05-5.798-.99-10.633-3.04-14.104-7.88-.462-2.76-.668-3.59.938-6.1 2.89-4.54 11.864-5.7 16.712-6.71m-101.716-20.8c6.934-.21 13.475.64 19.787 3.69 5.242 2.54 10.613 6.93 12.233 12.76.907 3.27.449 6.42-1.333 9.29-4.088 6.58-11.97 8.23-18.944 10.01-9.542.28-18.797-.45-26.965-5.9-4.262-2.84-8.226-7.28-9.052-12.5-.486-3.08.348-6.06 2.301-8.48 5.252-6.5 14.198-7.83 21.973-8.87m205.084 4.82c8.197-.55 15.701-.87 23.237 3.05 4.728 2.47 8.904 6.44 10.437 11.67 1.129 3.74.582 7.79-1.499 11.11-4.061 6.39-10.951 8.41-17.879 10-7.05.42-14.416.19-21.082-2.34-5.497-2.08-11.066-5.84-13.226-11.55-1.298-3.43-1.104-7.12.651-10.36 3.634-6.72 12.507-9.7 19.361-11.58"/><path fill="#180109" d="M447.824 1325.61c8.279.54 29.302 10.62 37.586 14.22 2.33 1.01 6.724 2.4 7.244 5.19.942 5.04-2.44 9.84-5.614 13.35-8.577 9.51-18.765 14.96-31.544 15.75-3.681-.95-6.156-1.71-8.713-4.76-1.752-2.09-2.259-2.29-1.982-5 6.244-4.33 13.487-.2 20.073-1.59 6.388-1.35 11.224-8 14.547-13.18-9.659-4.58-26.728-7.81-32.758-16.7-.72-2.92.113-4.63 1.161-7.28m146.688 15.86c13.1 2.43 8.036 16.69 19.365 20.52 12.963 4.38 15.423-11.41 24.417-15.49 2.166.43 3.129.66 4.486 2.65 1.472 2.16.715 4.46.181 6.75-4.526 6.71-8.638 12.09-16.684 14.77-6.678 2.22-13.732 1.48-19.886-1.9-6.405-3.52-10.835-8.89-12.896-15.88-1.369-4.65-1.399-7.15 1.017-11.42"/><path fill="#f9755f" d="M210.526 1273.24c1.306-.16.427-.12 2.613.37 5.067 12.58 6.437 32.76 8.44 46.45l13.63 96.19 7.923 51.62c1.427 9.21 3.812 19.19 3.687 28.5-1.76 2.66-3.123 3.09-5.907 4.55-1.922-1.48-3.629-2.8-4.545-5.14-4.889-12.48-9.165-58.93-11.274-74.46a4603 4603 0 0 0-17.23-112.77c-1.068-6.37-6.496-29.6-4.052-34.33z"/><path fill="#2f0f12" d="M1195.82 588.652c6.71-29.308 15.91-56.637 27.35-84.433 26.26-63.82 60.51-124.379 89.27-187.125a1380 1380 0 0 0 30.86-72.261c6.54-16.668 11.9-34.113 20.14-50.046 4.98-9.624 11.36-17.041 19.66-23.954 21.9-18.245 57.63-24.155 85.27-21.464 44.85 4.363 82.72 32.362 110.6 66.269 63.36 77.062 133.29 237.242 147.14 335.671 3.88 27.59 3.33 54.457.67 82.115 10.53 17.56 18.83 37.351 32 53.127 15.16 18.162 26.84 26.619 50.51 17.505 4.91-1.891 9.87-4.082 15.27-3.368 4.48.594 7.86 3.339 10.31 7.045 2.2 3.341 2.58 7.468 1.48 11.289-1.23 4.289-5.23 8.05-9.15 9.972-9.93 4.88-23.77 2.189-33.89-1.252-36.87-12.543-54.8-42.408-70.88-75.674-2.59 29.168-13.22 59.79-27.33 85.402-23.69 42.995-66.46 78.804-111.15 98.362-13.38 5.855-27.24 9.767-41.24 13.795 16.18 24.102 32.43 50.528 52 71.94 4.5-8.993 9.7-21.97 19.74-25.935 2.73-1.077 6.11-1.465 8.74.094 2.49 1.475 3.77 4.328 4.35 7.044 2.51 11.757-6.47 22.947-12.67 31.971.25.28.46.598.75.838 8.14 6.87 62.43 7.848 66.71 24.452-2.23 4.647-7.79 6.4-12.45 8.016-28.27 9.799-59.73 12.76-89.43 15.207-41.69 3.437-84 3.795-125.81 3.739-57.63-.077-115.93-1.263-172.93-10.272-12.42-1.964-26.92-3.527-38.29-9.077-2.68-1.307-5.53-2.998-6.69-5.889-.5-1.258-.33-2.672.27-3.888 4.06-8.282 20.44-10.437 28.56-11.927 8.13-1.492 16.1-2.382 24.35-2.81.32-3.528.61-7.061 2.41-10.195 3.1-5.374 9.31-6.729 14.82-8.297 10.42 2.228 20.48 4.759 30.49 8.437 4.58-26.252 7.82-52.897 12.06-79.24-43.7-11.886-86.67-33.405-115.86-68.947-43.33-52.764-47.02-116.78-40.54-181.843-2.45-.474-4.9-.979-7.33-1.516-24.38-5.413-47.57-18.195-61.03-39.783-12.53-20.113-16.04-46.15-10.65-69.117 1.89-8.06 6.05-16.624 13.54-20.884 3.16-1.796 7.11-2.407 10.58-1.158 4.18 1.503 7.42 4.956 9.07 9.017 2.45 5.993 1.3 12.45-1.31 18.18-4.08 8.995-10.88 15.325-20.07 18.729l-1.31.472c2.51 14.845 5.6 28.271 14.46 40.78 13.72 19.37 33.93 27.097 56.58 30.887"/><path fill="#e1df78" d="M1582.72 931.088c4.22 5.935 8.16 13.542 15.39 15.975 6.87-.484 10.61-5.257 14.91-10.169.62-.713 1.24-1.431 1.85-2.153.25.28.46.598.75.838 8.14 6.87 62.43 7.848 66.71 24.452-2.23 4.647-7.79 6.4-12.45 8.016-28.27 9.799-59.73 12.76-89.43 15.207-41.69 3.437-84 3.795-125.81 3.739-57.63-.077-115.93-1.263-172.93-10.272-12.42-1.964-26.92-3.527-38.29-9.077-2.68-1.307-5.53-2.998-6.69-5.889-.5-1.258-.33-2.672.27-3.888 4.06-8.282 20.44-10.437 28.56-11.927 8.13-1.492 16.1-2.382 24.35-2.81 2.92 4 5.98 5.933 10.63 7.607 8.52 3.07 35.83 10.37 43.91 5.155 6.16-3.972 6.15-16.07 6.98-22.675a3454 3454 0 0 1 82.62-2.278c22.26-.169 44.53-.072 66.8.292 10.7.204 74.91 2.594 80.21 1.083.66-.189 1.1-.817 1.66-1.226"/><path fill="#f8f7e2" d="M1363.36 857.287c55.91 12.406 109.66 8.328 165.05-4.335 16.22 27.219 37.2 51.46 54.31 78.136-.56.409-1 1.037-1.66 1.226-5.3 1.511-69.51-.879-80.21-1.083-22.27-.364-44.54-.461-66.8-.292q-41.325.645-82.62 2.278c2.97-25.047 6.29-51.37 11.93-75.93"/><path fill="#3e9334" d="M1526.95 837.597a324.1 324.1 0 0 1-137.45 9.694c-62.28-9.629-115.87-31.285-154.12-83.682-34.43-47.168-36.41-110.375-27.36-166.033 10.8-66.454 45.49-130.762 74.67-190.833a2756 2756 0 0 0 48.08-103.456 1406 1406 0 0 0 21.75-50.959c6.61-16.607 12.36-34.026 21.42-49.475 4.72-8.046 11.58-14.253 19.15-19.597 19.13-13.503 43.43-20.31 66.65-15.967 32.37 6.055 60.91 33.929 78.84 60.107 48.67 71.07 114.39 232.072 126.7 316.999 5 35.314 4.21 71.206-2.34 106.266-11.1 58.246-37.34 114.17-84.4 151.849-14.65 11.727-31.08 20.437-46.54 30.936-2.33 1.075-3.38 2.272-5.05 4.151"/><path fill="#e1df78" d="M1435.15 178.353c1-.083 1.99-.17 2.99-.198 25.41-.703 47.61 9.152 65.89 26.698 23.46 22.528 37.06 53.415 51.53 81.996 36.38 71.868 67.49 145.692 86.87 224.046 5.86 23.718 11.17 46.625 11.7 71.229 1.41 66.488-22.06 141.264-68.65 189.812-40.05 41.725-90.71 62.669-148.34 63.905-52.11.462-108.88-11.059-152.38-41.072-35.04-24.174-57.89-62.706-65.38-104.286-17.37-96.491 27.13-184.759 68.05-268.67a5919 5919 0 0 0 49.6-105.055 930 930 0 0 0 21.57-51.168c7.57-19.387 14.19-42.881 26.58-59.788 11.61-15.83 31.12-24.39 49.97-27.449"/><path fill="#310f15" d="M1434.01 499.327c23.07-2.097 43.59 2.046 62.05 16.688 22.45 17.807 33.94 45.037 37.06 72.972 4.99 44.707-4.06 88.954-32.55 124.494-21.62 26.975-49.12 39.629-83 43.384-22.18.138-43.07-3.769-61.52-16.734-20.39-14.331-33.51-37.316-37.76-61.68-7.45-42.701 9.5-90.552 34.13-125.07 20.1-28.153 47.13-48.298 81.59-54.054"/><path fill="#6a3f2f" d="M1436.99 513.346c.31-.044.62-.1.94-.133 17.22-1.83 36.71 3.168 50.11 14.321 19.33 16.092 28.59 41.418 30.83 65.855 3.51 38.362-4.22 80.224-29.55 110.344-19.17 22.789-44.49 35.79-74.03 38.247-19.68.083-37.85-4.996-53.72-16.846-16.73-12.497-26.32-30.547-29.28-51.032-5.59-38.731 9.99-84.125 33.36-114.788 17.98-23.583 41.42-41.952 71.34-45.968"/><path fill="#d8443e" d="M1325.93 438.285c6.39-.301 12.64-.689 18.83 1.301 6.24 2.007 12.54 5.985 15.46 12.069 1.75 3.649 2.05 7.561.67 11.381-2.58 7.2-9.18 11.365-15.66 14.653-7.31 1.76-13.91 1.735-20.84-1.528-6.21-2.92-11.54-8.057-13.65-14.704-1.34-4.215-1.24-8.976.96-12.888 3.07-5.445 8.48-8.445 14.23-10.284"/><path fill="#d73232" d="M1528.48 445.821c6.24-4.405 11.48-6.316 19.14-4.924 6.69 1.215 13.57 4.038 17.6 9.766 2.51 3.563 3.42 8.347 2.49 12.598-1.29 5.848-5.45 10.801-10.61 13.703-6.24 3.511-13.01 3.834-19.75 1.643-3.1-1.011-5.74-2.462-8.35-4.396-4.07-4.569-7.6-8.726-7.54-15.161.05-5.551 3.32-9.473 7.02-13.229"/><path fill="#d8443e" d="M1528.48 445.821c4.55 1.689 7.21 7.363 9.31 11.73 1.7 3.526 3.2 9.002 1.54 12.783-.81 1.874-2.43 2.89-4.01 4.061-2.23.252-4.1.106-6.32-.184-4.07-4.569-7.6-8.726-7.54-15.161.05-5.551 3.32-9.473 7.02-13.229"/><path fill="#310f15" d="M1341.81 387.784c.86.1 1.97.2 2.78.445 7.46 2.261 6.98 12.813 10.91 18.536 2.29 3.346 5.72 4.949 9.66 5.535 19.22 2.86 12.66-13.239 23.56-20.064 2-1.257 3.56-1.436 5.79-.968.92.771 1.51 1.443 1.97 2.57 2.02 4.883.97 8.084-.88 12.771-1.4 2.384-2.87 4.791-4.54 6.984a29.38 29.38 0 0 1-19.99 11.382 31.07 31.07 0 0 1-24.17-7.221c-5.42-4.626-9.69-11.087-9.96-18.37-.19-5.294 1.27-7.922 4.87-11.6m190.93 2.954c2.46.016 4.28.268 6.63 1 2.4 2.32 3.34 4.156 3.34 7.469.01 7.671-4.12 14.962-9.71 20.002a28.13 28.13 0 0 1-21.81 7.278c-10.63-1.087-17.81-7.822-24.43-15.525-2.19-3.86-4.73-8.704-3.8-13.278.49-2.4 2.18-4.432 4.07-5.854 9.26.556 13.48 18.949 23.71 22.761 2.95 1.099 5.89.775 8.65-.723 9.22-5.016 10.42-14.159 13.35-23.13"/><path fill="#180109" d="M1424.46 423.904c10.95-.8 7.61 5.674 15.25 9.139 3.48-2.316 6.35-5.433 9.8-7.723 2.34-1.558 3.38-1.738 6.1-1.249.19.278.4.537.55.834 1.62 3.173-.06 7.521-.96 10.701-2.28 3.241-4.65 5.917-8.32 7.576-4.36 1.972-9.71 1.759-14.13.048-4.09-1.587-7.37-4.582-8.95-8.715-1.54-4.043-1.02-6.751.66-10.611"/><path fill="#286530" d="M1481.21 172.154c-2.34-3.898-6.87-4.94-10.92-6.546 5.24.598 8.7 2.56 14.23 1.728.33-.05.66-.115.99-.173 8.29-2.351 15.59 6.115 23.86 5.393 13.7 7.174 27.97 14.253 39.4 24.842 15.73 15.454 27.87 32.814 41.18 50.254 18.65 22.25 29.24 51.402 44.16 76.111 17.16 22.55 27.52 53.344 37.33 79.654 20.36 54.581 40.53 109.24 45.12 167.81.43 5.512 2.35 14.924 1.1 19.96-.11.477-.39.9-.58 1.35l-1.32-.767c-.4-2.149-.84-4.293-1.3-6.431l-.79 2.32c.58 6.101 1.25 12.192 2.02 18.272-3.39-6.434-8.23-21.993-15.76-23.853-1.85-.459-3.52.132-5.3.613-2.03 1.89-2.64 2.393-2.99 5.313-1.11 9.154 13.76 28.453 16.74 38.209 3.02 9.902.93 21.47-.9 31.43a224.15 224.15 0 0 1-60.82 116.008c-31.22 32.139-74.79 57.711-119.71 63.946 1.67-1.879 2.72-3.076 5.05-4.151 1.01.06 1.46.15 2.54-.154 7.14-2.008 15.39-7.633 21.73-11.457 36.54-22.037 63.65-50.929 83.3-89.06 31.23-60.596 39.3-131.985 27.28-198.732-4.84-26.831-13.09-53.653-21.45-79.564-22.36-69.319-74.45-198.65-122.64-251.408-11.84-12.957-26-22.928-41.55-30.917"/><path fill="url(#b)" d="M1634.11 323.763c17.16 22.55 27.52 53.344 37.33 79.654 20.36 54.581 40.53 109.24 45.12 167.81.43 5.512 2.35 14.924 1.1 19.96-.11.477-.39.9-.58 1.35l-1.32-.767c-.4-2.149-.84-4.293-1.3-6.431l-.79 2.32c-1.11-6.242-1.29-12.699-2.12-19.008a552 552 0 0 0-7.58-44.619c-13.87-64.174-44.2-140.665-74.21-199.055z"/><path fill="#354828" d="M1589.95 247.652c18.65 22.25 29.24 51.402 44.16 76.111l-4.35 1.214c-13.76-24.384-28.05-48.777-43.87-71.885 1.19-1.908 2.69-3.66 4.06-5.44"/><path fill="#224c26" d="M1537.88 194.93c2.71.327 1.27-.194 3.25 1.26 2.02 1.48 3.1 1.892 5.57 1.491.43-.07.85-.204 1.29-.264.26-.035.52-.013.78-.019 15.73 15.454 27.87 32.814 41.18 50.254-1.37 1.78-2.87 3.532-4.06 5.44-8.71-13.912-18.68-27-29.77-39.1-5.72-6.153-13.67-12.141-18.24-19.062"/><path fill="#354828" d="M1485.51 167.163c8.29-2.351 15.59 6.115 23.86 5.393 13.7 7.174 27.97 14.253 39.4 24.842-.26.006-.52-.016-.78.019-.44.06-.86.194-1.29.264-2.47.401-3.55-.011-5.57-1.491-1.98-1.454-.54-.933-3.25-1.26-6.24-3.425-11.99-8.359-18.19-12.055-10.96-6.52-22.41-10.966-34.18-15.712"/><path fill="#224c26" d="M1481.21 172.154c-18.92-7.906-39.24-10.982-59.11-4.629-5.04 1.609-11.58 4.836-16.76 4.667 13.09-10.88 50.86-12.703 67.27-11.186 12.37 1.144 26.31 4.598 36.76 11.55-8.27.722-15.57-7.744-23.86-5.393-.33.058-.66.123-.99.173-5.53.832-8.99-1.13-14.23-1.728 4.05 1.606 8.58 2.648 10.92 6.546"/><path fill="#2f0f12" d="M339.178 477.188a3988 3988 0 0 0 87.783-176.239c5.87-12.64 11.919-25.281 17.236-38.165 8.654-20.969 15.654-43.508 29.117-62.02 13.483-18.539 29.029-31.056 51.021-37.962 33.843-10.627 69.406-5.957 100.626 10.419 26.784 14.049 48.111 35.018 66.629 58.673 31.53 40.277 54.166 87.924 75.218 134.253 17.469 38.446 34.001 77.401 46.438 117.813 13.364 43.424 24.203 93.126 18.54 138.586 21.953 39.237 47.257 86.546 33.888 132.884-2.896 10.04-8.184 22.902-17.651 28.229-3.188 1.794-7.373 2.873-10.947 1.782-3.574-1.09-6.5-3.492-8.093-6.884-2.515-5.357-3.27-11.402-.94-16.954 3.913-9.323 13.152-14.96 22.233-18.323 2.032-.752 3.973-.78 5.013-2.777 5.503-10.573-7.748-55.204-12.231-66.835a245 245 0 0 0-13.14-28.639c-3.243 13.545-6.297 27.27-10.738 40.481-19.04 56.641-55.515 105.068-106.735 136.422-21.39 13.093-45.081 24.173-69.245 30.98 13.724 25.555 28.865 50.361 42.213 76.099 7.541-9.051 17.414-18.976 29.789-20.191 4.561-.448 9.451.591 12.973 3.664 2.608 2.276 4.176 5.538 4.11 9.02-.099 5.193-3.092 10.472-6.916 13.858-1.349 1.194-2.812 2.264-4.27 3.32 5.833 3.136 13.401 2.105 19.893 2.827 15.746 1.751 38.919 4.422 52.332 12.839 2.83 1.775 3.982 3.187 4.739 6.414-1.029 2.187-2.088 3.331-4.22 4.523-51.121 28.597-295.422 23.653-363.546 17.482-28.242-2.558-55.869-6.742-83.147-14.592-5.044-1.452-11.691-2.897-14.402-7.804.257-2.803.694-4.031 2.784-6.021 8.577-8.168 58.365-17.145 71.111-16.099.301.024.6.062.9.094 2.862-4.787 6.094-7.581 11.631-8.878 10.859-2.544 23.682 1.785 34.093 4.836.596-25.745 1.159-51.812.313-77.549-56.393-15.137-104.27-42.025-134.083-93.727-32.858-56.982-30.522-133.539-13.594-195.311 7.25-26.456 18.254-50.935 27.405-76.692-38.31-25.607-77.151-63.046-86.23-110.212-3.743-19.452-1.714-39.469 9.639-56.107 5.636-8.26 15.242-18.528 25.342-20.458 4.775-.912 9.261.914 13.031 3.837 2.354 1.826 4.201 4.556 4.411 7.594.347 5.02-3.117 9.948-6.569 13.229-4.523 4.298-11.889 8.465-18.342 8.102-2.017-.113-4-.538-5.989-.862-.447-.073-.897-.132-1.346-.198-8.84 20.563-8.597 39.786-.292 60.524 13.159 32.857 43.016 61.484 72.215 80.715"/><path fill="#e1df78" d="M467 932.073c68.034-2.512 136.789-3.505 204.781.515 3.608 6.631 7.017 13.572 11.621 19.572 15.57-3.172 25.234-10.288 37.697-13.478 5.833 3.136 13.401 2.105 19.893 2.827 15.746 1.751 38.919 4.422 52.332 12.839 2.83 1.775 3.982 3.187 4.739 6.414-1.029 2.187-2.088 3.331-4.22 4.523-51.121 28.597-295.422 23.653-363.546 17.482-28.242-2.558-55.869-6.742-83.147-14.592-5.044-1.452-11.691-2.897-14.402-7.804.257-2.803.694-4.031 2.784-6.021 8.577-8.168 58.365-17.145 71.111-16.099.301.024.6.062.9.094-.056.276-.131.549-.169.829-.564 4.195.19 8.92 2.989 12.213 4.001 4.708 11.184 6.567 17.094 6.981 8.084.566 32.643.035 37.816-6.408 3.043-3.789 1.747-15.144 1.727-19.887"/><path fill="#f8f7e2" d="M629.382 856.761c7.854 14.402 15.161 29.085 23.254 43.358 6.185 10.91 13.219 21.441 19.145 32.469-67.992-4.02-136.747-3.027-204.781-.515l-.06-70.92c50.053 12.732 112.648 9.466 162.442-4.392"/><path fill="#3e9334" d="M534.783 173.176c30.717-8.071 63.421-.87 90.406 15.03 61.496 36.236 101.903 123.703 130.636 186.921 19.106 42.037 37.424 85.391 48.786 130.273 8.618 34.04 16.087 69.402 15.389 104.671-5.209-7.249-21.109-29.993-29.091-32.344-1.094-.322-1.844-.21-2.914-.155-2.043 1.594-2.227 1.727-2.986 4.188 2.755 13.129 24.025 34.442 33.764 44.862-10.784 67.704-42.44 130.75-98.724 171.638-41.186 29.92-88.096 45.403-138.101 52.381-9.09 1.269-20.577 3.799-29.604 2.418a30 30 0 0 1-2.193-.44c-44.025 6.524-110.228-11.502-149.084-31.701-38.854-20.199-70.357-53.708-83.425-95.937-24.803-80.153.302-170.499 34.03-244.125 17.937-39.155 39.863-76.458 58.417-115.323a2634 2634 0 0 0 37.539-80.805c9.019-20.611 16.95-42.103 27.56-61.948 14.413-26.958 30.417-40.664 59.595-49.604"/><path fill="#286530" d="M534.783 173.176c30.717-8.071 63.421-.87 90.406 15.03 61.496 36.236 101.903 123.703 130.636 186.921 19.106 42.037 37.424 85.391 48.786 130.273 8.618 34.04 16.087 69.402 15.389 104.671-5.209-7.249-21.109-29.993-29.091-32.344-1.094-.322-1.844-.21-2.914-.155-2.043 1.594-2.227 1.727-2.986 4.188 2.755 13.129 24.025 34.442 33.764 44.862-10.784 67.704-42.44 130.75-98.724 171.638-41.186 29.92-88.096 45.403-138.101 52.381-9.09 1.269-20.577 3.799-29.604 2.418a30 30 0 0 1-2.193-.44c21.883-4.827 43.711-8.573 65.124-15.421 53.52-17.116 100.88-54.933 126.597-105.195 44.008-86.01 37.754-186.379 8.671-275.799-4.144-12.739-9.587-25.104-14.608-37.522-11.706-28.953-24.214-57.31-37.24-85.689-16.067-35.005-30.899-71.906-53.122-103.543-12.101-17.227-25.418-31.07-43.498-41.985-6.804-4.107-14.334-7.654-22.132-9.353-10.292-2.244-37.166-.327-43.442-3.895-.582-.331-1.145-.694-1.718-1.041"/><path fill="#e1df78" d="M531.681 189.36c28.691-1.728 55.606 3.069 78.443 21.593 41.914 33.999 114.369 213.113 131.522 270.395a496.4 496.4 0 0 1 16.959 84.92c6.466 63.2-16.529 148.629-56.829 197.449-38.648 46.817-94.295 69.257-153.546 74.853-55.71 2.595-113.517-8.24-159.486-41.363-36.158-26.053-60.092-62.388-67.146-106.619-12.22-76.63 15.398-154.776 48.576-222.823 19.809-40.628 42.635-79.677 61.308-120.896C449 308.2 470.024 242.695 493.706 210.648c9.475-12.822 22.606-18.945 37.975-21.288"/><path fill="#d6d25d" d="M548.51 515.5c1.618-.519 2.959-.854 4.677-.885 15.751-.279 33.228 10.401 43.998 21.341 22.499 22.854 33.815 59.754 33.36 91.304a138.96 138.96 0 0 1-42.329 96.713c-23.214 22.603-51.08 35.921-83.716 35.517-18.259.574-31.706-6.967-46.541-16.516-2.697-1.736-4.955-3.395-7.225-5.689-18.684-18.887-28.699-47.086-28.229-73.453.733-41.107 18.164-83.507 47.976-112.09 19.161-18.371 50.637-36.866 78.029-36.242"/><path fill="#2f0f12" d="M502.002 435.814c2.313-1.879 3.423-2.03 6.409-1.825 7.745.531 15.258 2.86 22.895 4 9.825 1.466 21.298 1.212 31.16.58 3.786-.243 27.117-3.636 28.281-2.243 3.351 4.013 2.177 15.81 1.298 20.815-2.247 12.791-8.979 23.683-19.777 30.98-10.307 6.965-23.084 10.636-35.442 8.169-9.601-1.917-20.983-8.531-26.174-17.123-.176-.291-.315-.604-.472-.906-8.998-10.852-8.189-29.083-8.178-42.447"/><path fill="#d8443e" d="M557.562 460.738c6.521 2.058 15.853 5.644 19.306 11.97.924 1.693.714 2.353.722 4.209l-1.766 2.379c-9.553 7.954-19.953 13.253-32.753 11.991-7.821-.772-15.185-3.746-21.89-7.72-1.532-.694-3.078-1.959-4.5-2.889a27.6 27.6 0 0 1 4.584-7.443c9.126-10.55 23.292-11.991 36.297-12.497"/><path fill="#5a0e13" d="M557.562 460.738c6.521 2.058 15.853 5.644 19.306 11.97.924 1.693.714 2.353.722 4.209l-1.766 2.379c-7.889-7.039-15.949-12.283-27.025-11.511-11.151.776-20.57 7.509-27.618 15.782-1.532-.694-3.078-1.959-4.5-2.889a27.6 27.6 0 0 1 4.584-7.443c9.126-10.55 23.292-11.991 36.297-12.497"/><path fill="#040204" d="M502.002 435.814c2.313-1.879 3.423-2.03 6.409-1.825 7.745.531 15.258 2.86 22.895 4 9.825 1.466 21.298 1.212 31.16.58 3.786-.243 27.117-3.636 28.281-2.243 3.351 4.013 2.177 15.81 1.298 20.815-2.247 12.791-8.979 23.683-19.777 30.98-10.307 6.965-23.084 10.636-35.442 8.169-9.601-1.917-20.983-8.531-26.174-17.123-.176-.291-.315-.604-.472-.906 2.968-.538 3.772.231 6.167 2.08.125.096.223.224.334.337 1.422.93 2.968 2.195 4.5 2.889 6.705 3.974 14.069 6.948 21.89 7.72 12.8 1.262 23.2-4.037 32.753-11.991l1.766-2.379c-.008-1.856.202-2.516-.722-4.209-3.453-6.326-12.785-9.912-19.306-11.97-2.092-.499-4.138-.97-6.27-1.267l-1.723-.233c1.973-.094 5.38.33 6.805-.982-2.822-.171-5.575-.099-8.394.008l-.111-.913c1.329-.897 1.777-1.499 3.438-1.575 10.973-.502 23.904 8.544 31.699 15.332 5.618-10.308 5.051-20.256 4.992-31.644q-1.922.453-3.857.854c-16.639 3.441-68.126 4.748-82.139-4.504"/><path fill="#2f0f12" d="M606.106 371.601c2.122-2.731 4.352-4.935 7.202-6.921 7.834-5.46 16.232-6.825 25.528-5.331 10.009 2.344 18.773 7.78 24.143 16.762 5.275 8.824 6.585 20.092 3.823 29.957a37.67 37.67 0 0 1-19.014 23.518c-7.755 3.962-17.017 5.093-25.367 2.403-6.526-2.103-13.041-6.334-17.209-11.807-5.155-7.358-8.061-14.797-8.154-23.867-.092-8.928 2.83-18.171 9.048-24.714"/><path fill="#310f15" d="M609.879 419.337c1.256-.768 45.328-10.9 47.459-10.818.472 2.675-.978 6.103-1.727 8.748-5.893 6.848-11.916 10.947-21.115 11.815-6.841.646-15.343-.987-20.672-5.564-1.465-1.258-2.73-2.683-3.945-4.181"/><path fill="#040204" d="M638.836 359.349c10.009 2.344 18.773 7.78 24.143 16.762 5.275 8.824 6.585 20.092 3.823 29.957a37.67 37.67 0 0 1-19.014 23.518c-7.755 3.962-17.017 5.093-25.367 2.403-6.526-2.103-13.041-6.334-17.209-11.807 1.802-.725 2.764-.776 4.667-.845 1.215 1.498 2.48 2.923 3.945 4.181 5.329 4.577 13.831 6.21 20.672 5.564 9.199-.868 15.222-4.967 21.115-11.815.114-.131.233-.258.34-.395 7.932-10.059 9.335-18.679 7.87-31.035-6.887-10.079-12.696-20.059-25.522-22.822l-.838-2.326z"/><path fill="#310f15" d="M606.106 371.601c2.122-2.731 4.352-4.935 7.202-6.921 7.834-5.46 16.232-6.825 25.528-5.331l-1.375 1.34.838 2.326c-12.128.379-19.558-.828-28.799 7.952z"/><path fill="#f8f7e2" d="M618.205 371.921c.484.021.968.019 1.45.065 2.832.268 4.612.953 6.401 3.228 1.313 1.67 1.703 3.757 1.321 5.855-.923 5.074-3.939 7.376-8.069 10.021-2.879-.714-5.408-1.576-7.361-3.96-1.836-2.24-2.201-4.307-1.62-7.095.888-4.256 4.427-6.158 7.878-8.114"/><path fill="#2f0f12" d="M456.549 361.4c5.903-3.915 11.222-5.236 18.218-5.841 10.1.968 18.925 3.796 25.726 11.826 7.33 8.656 10.598 21.796 9.319 32.947-1.019 8.886-5.043 16.981-12.256 22.425-7.655 5.776-17.67 7.951-27.087 6.39a35.8 35.8 0 0 1-23.651-15.241c-5.923-8.793-7.095-19.717-4.697-29.907.791-3.361 1.902-6.767 3.447-9.857 2.656-5.464 6.119-9.144 10.981-12.742"/><path fill="#040204" d="M474.767 355.559c10.1.968 18.925 3.796 25.726 11.826 7.33 8.656 10.598 21.796 9.319 32.947-1.019 8.886-5.043 16.981-12.256 22.425-7.655 5.776-17.67 7.951-27.087 6.39a35.8 35.8 0 0 1-23.651-15.241c-5.923-8.793-7.095-19.717-4.697-29.907.791-3.361 1.902-6.767 3.447-9.857 1.799 3.309-1.338 17.344 1.468 26.252 1.551 4.921 4.888 8.485 7.247 12.908 1.898-.078 3.798-.204 5.696-.256 12.089-.332 32.797-8.828 43.027-4.86.817-1.765 1.333-3.504 1.738-5.4a38.8 38.8 0 0 0-6.4-30.464c-4.899-6.954-11.075-11.125-19.423-12.609z"/><path fill="#310f15" d="M454.283 413.302c1.898-.078 3.798-.204 5.696-.256 12.089-.332 32.797-8.828 43.027-4.86-3.839 7.904-8.396 12.399-16.783 15.445-7.468 2.713-16.499 2.984-23.655-.806-4.186-2.216-6.123-5.471-8.285-9.523"/><path fill="#180109" d="M456.549 361.4c5.903-3.915 11.222-5.236 18.218-5.841l4.154 4.154c-7.172.637-15.227 2.216-22.372 1.687"/><path fill="#f8f7e2" d="M464.281 369.659a8.889 8.889 0 1 1 4.41 17.222 8.889 8.889 0 0 1-4.41-17.222"/><path fill="#d8443e" d="M433.527 439.282c7.998-.224 18.711 2.326 25.872 5.884 3.785 1.881 8.866 5.283 9.95 9.7.617 2.516.427 4.681-1.108 6.846-4.182 5.903-13.114 7.179-19.762 8.097-9.546.192-19.243.145-28.023-4.189-4.216-2.081-9.187-5.787-10.149-10.708-.53-2.714.425-4.863 2.106-6.931 4.515-5.553 14.361-7.734 21.114-8.699m215.192 5.143c7.452.227 15.02.154 22.079 2.885 4.546 1.759 9.769 5.091 11.242 10.044.717 2.412.309 4.727-1.144 6.772-4.262 6-13.006 6.805-19.686 7.751-10.27.27-21.14-.029-29.961-6.02-3.792-2.575-6.012-5.284-6.789-9.812.418-1.968.717-3.192 2.061-4.768 4.812-5.64 15.331-6.295 22.198-6.852"/><path fill="#d73232" d="M865.382 1258.18c1.549-.09 3.094-.18 4.647-.11 10.454.46 16.767 8.1 23.429 15.16 1.355-1.66 2.738-3.3 4.15-4.91 5.142-5.85 12.137-10.18 20.117-10.51 4.256-.18 8.584 1.05 11.702 4.06 3.902 3.75 5.525 9.32 5.383 14.62-.397 14.77-12.778 26.53-22.704 36.03-8.212 7.13-15.525 13.57-21.485 22.72-13.251-16.55-32.868-29.22-39.776-50.23-1.8-5.47-2.791-11.97.196-17.22 3.163-5.55 8.489-7.89 14.341-9.61"/><path fill="#d8443e" d="M374.668 114.885c3.489 3.92 6.552 20.655 8.039 26.234 3.176 11.91 12.714 37.015 5.893 47.934-3.815 6.106-10.715 9.735-17.609 11.172-5.734 1.195-13.793 1.483-18.678-2.366-2.586-2.038-3.864-5.082-4.206-8.276-.357-3.332.824-6.431 2.892-8.989 6.612-8.177 16.892-8.707 26.588-9.739-3.142-12.118-5.238-24.541-9.275-36.41-17.61 7.65-34.845 17.964-51.968 26.789l3.121 13.303c3.087 10.778 13.643 37.806 8.34 47.883-3.1 5.89-11.935 11.517-18.274 13.116-5.002 1.262-10.518.776-14.867-2.153-3.082-2.077-5.222-5.286-5.69-8.995-.467-3.711.794-7.534 3.182-10.382 6.05-7.216 14.746-7.682 23.42-8.159-4.267-17.083-9.3-33.887-14.155-50.805 23.27-14.982 49.902-24.992 73.247-40.157"/><path fill="#d73232" d="M1187.02 1161.22c21.19-12.49 49.76-26.71 72.65-36.08 7.09 16.66 38.13 65.61 31.79 81.43-1.27 3.18-3.59 5.4-6.73 6.71-4.31 1.81-9.47 1.62-13.72-.28-3.61-1.62-6.75-4.64-8.19-8.36-1.09-2.82-.9-5.43.4-8.13 2.37-4.93 7.44-7.4 12.27-9.23-7.34-14.2-13.01-29.9-21.75-43.27-16.79 6.91-32.43 16.45-48.95 23.95 6.67 19.44 17.99 36.56 24.86 55.77-.39 2.16-1.01 3.8-2.13 5.67-2.82 4.74-6.63 8.23-12.14 9.39-4.3.9-9.11.21-12.68-2.46-2.61-1.95-3.92-4.48-4.33-7.71-.41-3.31 1.07-7.85 3.28-10.34 2.08-2.34 3.82-3.24 6.97-3.55l1.92-1.9c-1.2-8.25-18.88-40.46-23.52-51.61"/><path fill="#d8443e" d="M1229.65 1223.73c-.39 2.16-1.01 3.8-2.13 5.67-2.82 4.74-6.63 8.23-12.14 9.39-4.3.9-9.11.21-12.68-2.46-2.61-1.95-3.92-4.48-4.33-7.71-.41-3.31 1.07-7.85 3.28-10.34 2.08-2.34 3.82-3.24 6.97-3.55 8.48 1.49 11.66 8.93 21.03 9m-42.42 81.09c1.71-.02 3.56-.08 5.24.27 3.33.68 6.45 4.11 8.15 6.86 9.67 15.63 1.56 42.8-2.12 59.31-12.94-.44-24.36-3.18-36.74-6.9-7.59-2.86-15.37-6.56-19.95-13.58-2.53-3.87-3.76-8.58-2.56-13.13.95-3.64 3.36-6.58 6.61-8.43 8.01-4.54 17.13-1.5 25.31.79.63-3.43 1.25-6.9 2.32-10.23 2.47-7.67 6.79-11.3 13.74-14.96m660-21.88c4.75-.22 7.63-.24 11.4 3.08 5.56 4.91 6.76 12.87 7.37 19.86 7.75-3.72 15.51-7.66 24.39-6.07 3.92.7 7.79 2.66 10.04 6.05 1.79 2.71 2.19 5.97 1.39 9.09-2.17 8.42-10 12.98-17.01 16.97-9.23 5.12-27.37 15.27-38.23 13.98-2.32-.27-3.66-1.36-4.91-3.25-6.42-9.76-7.45-34.25-4.97-45.4 1.65-7.4 4.2-10.34 10.53-14.31"/><path fill="#3e9334" d="M779.501 148.544c10.644-1.596 21.297-.334 31.794-1.688 6.872-.887 15.91-8.343 22.059-4.158 1.659 3.127 2.446 5.643 1.454 9.264-1.029 3.759-3.859 6.466-7.272 8.145-9.195 4.525-21.053 4.05-31.08 3.791 2.924 14.244 14.76 45.572 6.994 58.245-3.531 5.761-10.134 9.189-16.595 10.496-5.979 1.21-12.866.611-17.971-2.976-3.738-2.627-5.705-6.266-6.446-10.729-.061-.364-.09-.733-.135-1.1-.256-1.277.292-2.883.534-4.164.545-4.423 2.21-8.301 5.709-11.227 4.304-3.599 10.985-4.781 16.43-4.124 1.947.235 3.877.636 5.795 1.037-3.186-17.036-8.601-33.752-11.27-50.812"/><path fill="#4c9938" d="M762.837 213.67c.325-.146.671-.252.975-.439 2.611-1.603 3.677-4.809 5.635-7.069 3.464-3.999 12.635-5.033 17.604-4.276 2.107.322 4.985 1.377 6.037 3.363 1.124 2.119 1.029 4.092 1.234 6.41.2 2.255.032.838.725 3.345.827 2.986-.263 5.383-1.766 7.926-1.54 2.608-3.601 4.56-5.823 6.576-4.712.09-14.084 1.404-17.468-2.421-2.249-2.54-3.77-6.725-5.263-9.796-1.838-.071-1.046-.314-2.424.545-.256-1.277.292-2.883.534-4.164"/><path fill="#d8443e" d="M327.771 1122.08c.879-.08 1.759-.15 2.639-.22 10.197-.68 15.266 4.07 22.524 10.39 4.828-3.87 10.037-8.74 16.473-9.31 3.138-.28 6.117.36 8.431 2.67 2.2 2.19 3.003 5.6 2.919 8.63-.244 8.8-6.074 14.77-11.921 20.55-5.9 5.38-11.4 11.25-16.999 16.95-5.869-4.64-11.769-9.42-16.955-14.82-6.183-6.43-13.934-15.86-13.292-25.28.31-4.54 2.951-6.79 6.181-9.56"/><path fill="#d73232" d="M897.57 283.355c3.436-8.217 14.837-47.315 19.186-50.801 2.336-.762 4.269-1.32 6.617-.127 1.053.535 2.325 1.507 2.591 2.725 1.051 4.813-19.052 62.369-23.99 69.2-2.421 3.351-6.545 4.924-10.525 5.53-5.104.776-10.164.218-14.927-1.719-4.044-.844-7.083-3.023-9.697-6.122-2.067-2.889-3.618-5.618-3.911-9.244-.31-3.843.878-7.39 3.548-10.188 3.631-3.804 9.388-5.515 14.541-5.435 5.769.09 12.392 2.122 16.567 6.181"/><path fill="#d8443e" d="M880.847 278.087c7.371 4.241 12.501 7.433 16.959 14.901-.746 3.853-1.628 9.125-4.979 11.721-3.065 2.374-8.245 2.437-11.921 2.465-1.691.013-2.892.211-4.384.989-4.044-.844-7.083-3.023-9.697-6.122-.865-8.629-2.121-11.693 2.488-19.639 3.779-1.595 7.679-2.916 11.534-4.315"/><path fill="#d73232" d="M803.134 1110.65c4.4.59 7.263 1.6 10.613 4.63 1.895 1.71 3.663 3.12 5.782 4.54 4.728-2.71 10.035-5.66 15.466-6.53 3.2-.52 5.007.03 7.608 1.85.915 1.92 1.287 3.34 1.205 5.44-.308 7.82-4.04 12.16-9.515 17.28-5.456 4.5-10.298 9.8-15.238 14.85-7.514-8.08-22.233-20.88-21.75-32.56.181-4.37 2.859-6.73 5.829-9.5"/><path fill="#d8443e" d="M1871.52 1493.05c3.55-.63 6.85-1.36 10.27-2.5l2.5.69 1.3 5.12c-1.44 3.32-3.26 6.7-5.28 9.7-4.7 7.01-11.03 14.26-19.83 15.64-5 .8-10.1-.56-14.04-3.74-3.3-2.7-5.43-6.35-5.6-10.65-.1-2.84 1.21-5.71 3.16-7.71 5.63-5.78 19.77-6.71 27.52-6.55m23.71-38.39c2.26-.33 2.59-.22 4.53 1.22 11.83 8.79 22.58 26.29 24.04 40.82.57 5.7.28 12.82-3.78 17.33-2.14 2.37-4.78 3.56-7.84 4.32l-1.55-.65c.19-1.88.62-3.3 1.23-5.06 2.69-7.74-.27-16.11-3.82-23.1-3.17-6.25-7.11-12-11.11-17.73l1.03-.33c-1.24-5.64-2.37-11.04-2.73-16.82"/><path fill="#d73232" d="M1895.23 1454.66c.36 5.78 1.49 11.18 2.73 16.82l-1.03.33c-5.19 7.09-8.09 16.41-11.34 24.55l-1.3-5.12-2.5-.69c-3.42 1.14-6.72 1.87-10.27 2.5 11.28-10.65 17.57-24.38 23.71-38.39"/></svg>