<svg preserveAspectRatio="xMidYMid meet" version="1.1" xmlns="http://www.w3.org/2000/svg" style="display: block;" viewBox="0 0 2048 2048" width="1024" height="1024">
<defs>
	<linearGradient id="Gradient1" gradientUnits="userSpaceOnUse" x1="1686.9" y1="441.866" x2="1667.05" y2="447.094">
		<stop class="stop0" offset="0" stop-opacity="1" stop-color="rgb(65,46,37)"/>
		<stop class="stop1" offset="1" stop-opacity="1" stop-color="rgb(51,57,41)"/>
	</linearGradient>
	<linearGradient id="Gradient2" gradientUnits="userSpaceOnUse" x1="690.537" y1="1651.6" x2="772.929" y2="1694.17">
		<stop class="stop0" offset="0" stop-opacity="1" stop-color="rgb(34,106,36)"/>
		<stop class="stop1" offset="1" stop-opacity="1" stop-color="rgb(24,82,42)"/>
	</linearGradient>
</defs>
<path transform="translate(0,0)" fill="rgb(248,247,226)" d="M 0 0 L 2048 0 L 2048 2048 L 0 2048 L 0 0 z"/>
<path transform="translate(0,0)" fill="rgb(47,15,18)" d="M 1246.78 1600.07 C 1246.69 1569.57 1251.07 1542.16 1260.48 1513.14 C 1275.81 1465.9 1296.86 1420.55 1317.84 1375.62 L 1395.63 1212.41 C 1400.66 1201.67 1405.17 1190.7 1409.15 1179.53 C 1413.49 1167.01 1416.9 1154.25 1422.96 1142.39 C 1426.48 1135.51 1431.17 1129.35 1436.6 1123.86 C 1459.21 1100.99 1490.53 1094.07 1521.67 1093.98 C 1561.85 1093.86 1595.96 1112.1 1623.81 1139.98 C 1682.98 1199.24 1749.04 1357.42 1769.79 1438.29 C 1778.36 1471.67 1783.51 1504.09 1783.35 1538.62 C 1783.3 1549.18 1783.33 1559.86 1782.6 1570.39 C 1782.07 1578.14 1780.46 1586.26 1781.06 1594 C 1781.94 1605.48 1791.62 1619.13 1799.52 1627.22 C 1806.47 1634.32 1813.37 1637.21 1822.86 1639.26 C 1838.01 1635.53 1847.58 1625.54 1855.45 1612.57 C 1860.39 1604.43 1864.83 1585.75 1875.44 1583.81 C 1878.85 1583.18 1882.81 1584.62 1885.44 1586.8 C 1888.47 1589.34 1890.3 1593.05 1890.46 1597.01 C 1890.56 1599.42 1890.04 1602.17 1888.77 1604.24 C 1885.12 1610.17 1878.81 1614.92 1874.19 1620.1 C 1870.53 1624.21 1867.41 1628.71 1863.53 1632.65 C 1852.79 1643.55 1838.88 1652.94 1822.99 1652.86 C 1809.07 1652.78 1796.64 1645.6 1787.28 1635.72 C 1782.15 1630.32 1777.93 1623.99 1774.08 1617.63 C 1752.73 1691.04 1723.48 1737.09 1654.53 1775.08 C 1635.41 1785.62 1603.71 1800.91 1582.87 1803.6 C 1582.09 1826.74 1581.77 1849.89 1581.9 1873.04 C 1608.99 1873.08 1635.4 1873.73 1662.39 1876.22 C 1680.81 1877.92 1744.52 1884.29 1754.23 1899.8 C 1755.8 1902.29 1755.47 1902.85 1754.77 1905.51 C 1749 1911.68 1737.86 1913.6 1729.92 1915.49 C 1687.5 1925.56 1641.81 1928.59 1598.35 1931.03 C 1532.66 1934.72 1294.58 1938.69 1248.95 1908.67 C 1245.71 1906.54 1243.81 1904.49 1243.02 1900.57 C 1243.38 1898.66 1243.71 1897.73 1245.02 1896.21 C 1261.19 1877.41 1374.34 1873.7 1402.65 1871.81 C 1403.29 1849.99 1403.01 1828.16 1404.12 1806.35 C 1370.17 1798.15 1336.84 1781.37 1310.67 1758.09 C 1268.36 1720.44 1249.16 1668.75 1245.86 1613.22 C 1232.71 1612.41 1219.07 1611.03 1205.95 1612.51 C 1187.97 1614.53 1174.39 1622.39 1159.61 1632.23 C 1155.77 1634.79 1151.18 1637.21 1148.3 1640.86 L 1149.08 1640.9 C 1165.15 1637.66 1185.96 1643.98 1199.41 1652.82 C 1213.36 1661.98 1222.56 1675.06 1225.91 1691.43 C 1228.65 1704.81 1227.81 1718.9 1224.19 1732.03 C 1215.93 1761.9 1196.31 1790.52 1181.17 1817.5 C 1173.29 1831.55 1165.91 1846.54 1157.01 1859.93 C 1154.81 1863.24 1152.58 1867.18 1148.42 1868.01 C 1135.77 1865.36 1123.25 1858.51 1111.45 1853.22 C 1077.79 1838.13 1041.54 1823.17 1011.66 1801.33 C 1002.44 1794.58 994.453 1786.57 988.254 1776.95 C 977.468 1760.19 974.097 1741.15 978.488 1721.7 C 982.237 1705.09 991.717 1689.89 1006.35 1680.87 C 1018.87 1673.16 1036.61 1669.43 1051 1673.12 C 1060.9 1675.65 1070.62 1681.48 1079.46 1686.46 C 1081.42 1687.56 1080.5 1687.26 1082.45 1687.55 C 1079.77 1676.45 1076.52 1665.27 1073.02 1654.4 C 1071.56 1649.85 1069.07 1645.27 1068.06 1640.64 C 1067.6 1638.54 1067.71 1635.35 1068.64 1633.36 C 1069.71 1631.08 1071.44 1630.15 1073.83 1629.73 C 1086.63 1627.53 1080.82 1644.95 1085.86 1649.46 C 1086.32 1649.16 1086.79 1648.86 1087.24 1648.54 C 1096.92 1641.89 1104.64 1632.5 1114.8 1626.02 C 1151.15 1602.85 1204.4 1595.15 1246.78 1600.07 z"/>
<path transform="translate(0,0)" fill="rgb(225,223,120)" d="M 1566.99 1808.26 C 1567.24 1807.96 1567.46 1807.64 1567.74 1807.36 C 1571.43 1803.65 1578.03 1803.82 1582.87 1803.6 C 1582.09 1826.74 1581.77 1849.89 1581.9 1873.04 C 1608.99 1873.08 1635.4 1873.73 1662.39 1876.22 C 1680.81 1877.92 1744.52 1884.29 1754.23 1899.8 C 1755.8 1902.29 1755.47 1902.85 1754.77 1905.51 C 1749 1911.68 1737.86 1913.6 1729.92 1915.49 C 1687.5 1925.56 1641.81 1928.59 1598.35 1931.03 C 1532.66 1934.72 1294.58 1938.69 1248.95 1908.67 C 1245.71 1906.54 1243.81 1904.49 1243.02 1900.57 C 1243.38 1898.66 1243.71 1897.73 1245.02 1896.21 C 1261.19 1877.41 1374.34 1873.7 1402.65 1871.81 C 1402.64 1875.88 1402.5 1879.98 1402.79 1884.03 C 1404.95 1885.98 1406.81 1888.15 1408.72 1890.33 L 1411.51 1888.62 L 1413.15 1889.46 C 1415.08 1895.93 1412.34 1903.26 1415.89 1909.07 C 1421.2 1901.76 1418.94 1881.3 1418.89 1872.22 C 1468.15 1873.56 1517.69 1871.86 1567.02 1872.59 L 1566.99 1808.26 z"/>
<path transform="translate(0,0)" fill="rgb(49,15,21)" d="M 1566.99 1808.26 C 1567.24 1807.96 1567.46 1807.64 1567.74 1807.36 C 1571.43 1803.65 1578.03 1803.82 1582.87 1803.6 C 1582.09 1826.74 1581.77 1849.89 1581.9 1873.04 L 1581.95 1887.52 C 1588.46 1884.7 1595.34 1881.47 1602.38 1880.24 C 1609.53 1878.99 1615.2 1880.19 1621.01 1884.46 C 1622.35 1885.35 1622.26 1885.16 1623.18 1886.15 C 1626.48 1889.69 1627.96 1893.69 1627.44 1898.54 C 1627.08 1901.91 1625.35 1904.78 1622.66 1906.82 C 1611.3 1915.41 1582.16 1910.73 1568.52 1908.56 C 1567.18 1896.66 1567.11 1884.54 1567.02 1872.59 L 1566.99 1808.26 z"/>
<path transform="translate(0,0)" fill="rgb(24,1,9)" d="M 1581.95 1887.52 C 1588.46 1884.7 1595.34 1881.47 1602.38 1880.24 C 1609.53 1878.99 1615.2 1880.19 1621.01 1884.46 C 1605.3 1884.5 1594.41 1885.41 1581.28 1894.53 L 1579.73 1894.41 C 1579.27 1891.99 1579.75 1890.78 1580.62 1888.51 L 1581.95 1887.52 z"/>
<path transform="translate(0,0)" fill="rgb(49,15,21)" d="M 1357.17 1889.64 C 1357.65 1888.76 1357.88 1888.29 1358.4 1887.51 C 1371.22 1868.64 1391.09 1886.62 1402.79 1884.03 C 1404.95 1885.98 1406.81 1888.15 1408.72 1890.33 L 1411.51 1888.62 L 1413.15 1889.46 C 1415.08 1895.93 1412.34 1903.26 1415.89 1909.07 C 1401.58 1908.7 1374.1 1915.6 1362.2 1908.52 C 1358.55 1906.35 1356.83 1903.39 1355.91 1899.34 C 1355.07 1895.6 1355.13 1893.02 1357.17 1889.64 z"/>
<path transform="translate(0,0)" fill="rgb(24,1,9)" d="M 1357.17 1889.64 C 1357.65 1888.76 1357.88 1888.29 1358.4 1887.51 C 1371.22 1868.64 1391.09 1886.62 1402.79 1884.03 C 1404.95 1885.98 1406.81 1888.15 1408.72 1890.33 C 1397.72 1892.33 1382.32 1878.15 1363.69 1887.08 C 1362.14 1887.83 1360.72 1888.47 1359.08 1889.01 L 1357.17 1889.64 z"/>
<path transform="translate(0,0)" fill="rgb(248,247,226)" d="M 1418.85 1808.65 C 1468.74 1818.01 1517.02 1815.71 1566.99 1808.26 L 1567.02 1872.59 C 1517.69 1871.86 1468.15 1873.56 1418.89 1872.22 C 1419 1851.03 1418.98 1829.84 1418.85 1808.65 z"/>
<path transform="translate(0,0)" fill="rgb(24,1,9)" d="M 1141.78 1640.58 C 1143.89 1640.44 1145.25 1640.43 1147.25 1641.15 L 1148.3 1640.86 L 1149.08 1640.9 L 1149.34 1642.17 L 1148.01 1644.02 C 1145.06 1645.24 1143 1646.09 1139.71 1645.85 C 1139.07 1644.69 1138.58 1644.21 1137.62 1643.33 L 1139.13 1644.73 L 1137.91 1642.92 C 1139.23 1642.26 1140.51 1641.35 1141.78 1640.58 z"/>
<path transform="translate(0,0)" fill="rgb(62,147,52)" d="M 1509.61 1107.9 C 1534.85 1101.63 1565.78 1112.78 1587.27 1125.62 C 1613.58 1139.48 1636.87 1169.68 1651.87 1195.1 C 1662.11 1208.45 1695.88 1270.28 1698.76 1284.71 C 1703.42 1293.77 1707.78 1303.24 1711.62 1312.69 C 1714.13 1317.96 1717.11 1323.34 1719.17 1328.79 C 1729.86 1352.41 1747.4 1395.34 1752.23 1420.37 C 1765.85 1461.04 1777.03 1534.38 1769.58 1577.09 C 1766.94 1567.85 1759.65 1548.24 1750.62 1543.59 C 1748.8 1542.66 1747.48 1542.55 1745.48 1542.48 C 1742.85 1543.83 1741.37 1545.16 1740.5 1548.1 C 1737.3 1558.93 1746.86 1573.05 1752.27 1581.93 C 1755.1 1586.57 1757.97 1592.35 1761.35 1596.51 C 1766.21 1609.25 1756.51 1634.17 1751.25 1646.11 L 1750.7 1647.33 C 1742.93 1676.69 1724.41 1703.65 1702.87 1724.58 C 1697.28 1730.02 1690.91 1734.62 1685.36 1739.97 C 1667.8 1760.16 1645.98 1772.77 1620.51 1780.43 C 1615.63 1781.9 1610.47 1783.96 1605.38 1784.39 C 1605.11 1784.41 1604.85 1784.41 1604.58 1784.42 L 1602.84 1784.82 C 1592.39 1787.3 1582.54 1792.1 1571.98 1794.53 C 1536.36 1802.71 1497.45 1806.58 1460.98 1803.37 C 1456.66 1802.99 1451.42 1803.44 1447.59 1801.29 L 1447.23 1799.73 C 1444.85 1798.11 1441.77 1797.55 1439.01 1796.73 C 1431.3 1793.88 1421.09 1793.07 1412.89 1791.09 C 1383.66 1784.03 1356.61 1773.4 1332.7 1754.85 C 1290.77 1722.31 1266.71 1679.22 1260.29 1626.61 C 1257.25 1600.86 1258.46 1574.78 1263.87 1549.41 C 1275.42 1496.26 1300.06 1444.85 1322.77 1395.71 C 1349.6 1337.65 1378.04 1280.35 1405.1 1222.41 C 1416.87 1197.19 1423.76 1160.09 1439.98 1139.72 C 1456.7 1118.71 1478.35 1112.48 1503.97 1109.47 L 1504.47 1108.64 L 1509.61 1107.9 z"/>
<path transform="translate(0,0)" fill="rgb(40,101,48)" d="M 1509.61 1107.9 C 1534.85 1101.63 1565.78 1112.78 1587.27 1125.62 C 1613.58 1139.48 1636.87 1169.68 1651.87 1195.1 C 1662.11 1208.45 1695.88 1270.28 1698.76 1284.71 C 1703.42 1293.77 1707.78 1303.24 1711.62 1312.69 C 1714.13 1317.96 1717.11 1323.34 1719.17 1328.79 C 1729.86 1352.41 1747.4 1395.34 1752.23 1420.37 C 1765.85 1461.04 1777.03 1534.38 1769.58 1577.09 C 1766.94 1567.85 1759.65 1548.24 1750.62 1543.59 C 1748.8 1542.66 1747.48 1542.55 1745.48 1542.48 C 1742.85 1543.83 1741.37 1545.16 1740.5 1548.1 C 1737.3 1558.93 1746.86 1573.05 1752.27 1581.93 C 1755.1 1586.57 1757.97 1592.35 1761.35 1596.51 C 1766.21 1609.25 1756.51 1634.17 1751.25 1646.11 L 1750.7 1647.33 C 1742.93 1676.69 1724.41 1703.65 1702.87 1724.58 C 1697.28 1730.02 1690.91 1734.62 1685.36 1739.97 C 1667.8 1760.16 1645.98 1772.77 1620.51 1780.43 C 1615.63 1781.9 1610.47 1783.96 1605.38 1784.39 C 1605.11 1784.41 1604.85 1784.41 1604.58 1784.42 L 1602.84 1784.82 C 1592.39 1787.3 1582.54 1792.1 1571.98 1794.53 C 1536.36 1802.71 1497.45 1806.58 1460.98 1803.37 C 1456.66 1802.99 1451.42 1803.44 1447.59 1801.29 L 1447.23 1799.73 C 1453.32 1800.68 1459.53 1801.07 1465.68 1801.48 C 1527.44 1805.67 1597.71 1785.61 1644.57 1744.46 C 1694.95 1700.21 1723.62 1632.13 1727.6 1565.96 C 1729.22 1537.86 1727.47 1509.66 1722.4 1481.98 C 1707.92 1399.86 1674.62 1310.5 1639.7 1234.75 C 1631.42 1216.79 1623.35 1198.36 1613.01 1181.46 C 1606.12 1170.42 1598.27 1160 1589.57 1150.33 C 1567.62 1125.78 1543.02 1109.85 1509.61 1107.9 z"/>
<path transform="translate(0,0)" fill="rgb(34,76,38)" d="M 1642.77 1191.55 C 1632.11 1176.86 1621.89 1160.69 1608.7 1148.1 C 1601.81 1141.52 1592.39 1133.88 1584.36 1128.76 C 1582.29 1127.45 1577 1125.19 1576.09 1123.19 C 1579.61 1123.2 1582.19 1125.68 1585.74 1125.67 C 1586.25 1125.67 1586.76 1125.64 1587.27 1125.62 C 1613.58 1139.48 1636.87 1169.68 1651.87 1195.1 C 1662.11 1208.45 1695.88 1270.28 1698.76 1284.71 C 1703.42 1293.77 1707.78 1303.24 1711.62 1312.69 C 1714.13 1317.96 1717.11 1323.34 1719.17 1328.79 C 1729.86 1352.41 1747.4 1395.34 1752.23 1420.37 C 1746.34 1413.33 1737.87 1379.6 1733.79 1368.93 C 1731.24 1362.27 1727.98 1355.96 1725.89 1349.12 C 1725.79 1348.8 1725.69 1348.47 1725.6 1348.14 L 1725.36 1348.37 C 1725.43 1352.42 1747.7 1416.75 1750.78 1427.7 C 1755.38 1444.05 1760.09 1461.13 1762.67 1477.9 C 1763.5 1483.3 1762.96 1488.73 1763.71 1494.06 C 1764.32 1498.44 1766.96 1505.11 1764.72 1509.11 L 1764.08 1508.95 C 1761.99 1503.33 1762.52 1497.25 1761.5 1491.38 C 1758.56 1474.6 1754.93 1457.94 1750.63 1441.45 C 1744.04 1415.87 1736.21 1390.15 1727.32 1365.27 C 1723.23 1353.81 1718.07 1342.7 1714.19 1331.18 C 1711.82 1327.42 1709.99 1323.21 1708.06 1319.2 C 1702.91 1307.56 1697.9 1295.82 1692.31 1284.37 C 1677.29 1252.23 1661.9 1221.46 1642.77 1191.55 z"/>
<path transform="translate(0,0)" fill="rgb(34,76,38)" d="M 1748.44 1636.77 C 1750.91 1624.82 1755.1 1606.73 1761.35 1596.51 C 1766.21 1609.25 1756.51 1634.17 1751.25 1646.11 L 1750.7 1647.33 C 1742.93 1676.69 1724.41 1703.65 1702.87 1724.58 C 1697.28 1730.02 1690.91 1734.62 1685.36 1739.97 L 1682.36 1738.77 C 1686.4 1734.73 1691.15 1731.55 1695.19 1727.42 C 1714.14 1707.71 1729.39 1684.76 1740.22 1659.65 C 1743.18 1652.72 1744.78 1645.24 1747.75 1638.36 L 1748.44 1636.77 z"/>
<path transform="translate(0,0)" fill="rgb(49,15,21)" d="M 1682.36 1738.77 L 1685.36 1739.97 C 1667.8 1760.16 1645.98 1772.77 1620.51 1780.43 C 1615.63 1781.9 1610.47 1783.96 1605.38 1784.39 C 1605.11 1784.41 1604.85 1784.41 1604.58 1784.42 C 1611.67 1780.82 1619.26 1778.05 1626.44 1774.57 C 1646.01 1765.1 1665.98 1753.1 1682.36 1738.77 z"/>
<path transform="translate(0,0)" fill="rgb(4,2,4)" d="M 1509.61 1107.9 C 1543.02 1109.85 1567.62 1125.78 1589.57 1150.33 C 1598.27 1160 1606.12 1170.42 1613.01 1181.46 C 1623.35 1198.36 1631.42 1216.79 1639.7 1234.75 C 1674.62 1310.5 1707.92 1399.86 1722.4 1481.98 C 1727.47 1509.66 1729.22 1537.86 1727.6 1565.96 C 1723.62 1632.13 1694.95 1700.21 1644.57 1744.46 C 1597.71 1785.61 1527.44 1805.67 1465.68 1801.48 C 1459.53 1801.07 1453.32 1800.68 1447.23 1799.73 C 1444.85 1798.11 1441.77 1797.55 1439.01 1796.73 C 1446.72 1797.61 1454.44 1798.5 1462.19 1798.89 C 1527.26 1802.23 1595.94 1784.61 1645.04 1740.07 C 1695.76 1694.06 1721.6 1624.89 1724.71 1557.59 C 1725.83 1534.12 1724.44 1510.6 1720.55 1487.43 C 1706.98 1406.75 1654.67 1256.4 1613.04 1186.63 C 1605.01 1173.27 1595.64 1160.76 1585.06 1149.31 C 1561.89 1124.03 1538.55 1110.85 1503.97 1109.47 L 1504.47 1108.64 L 1509.61 1107.9 z"/>
<path transform="translate(0,0)" fill="rgb(225,223,120)" d="M 1506.74 1124.51 C 1529.79 1125.91 1550.72 1133.39 1567.36 1149.91 C 1626.6 1208.68 1690.14 1406.74 1704.28 1491.85 C 1706.96 1508.04 1708.24 1524.43 1708.12 1540.83 C 1708.09 1606.57 1681.97 1681.82 1634.61 1728.63 C 1593.36 1769.4 1529.22 1786.29 1472.72 1785.93 C 1420.66 1784.45 1368.12 1769.23 1328.54 1734.19 C 1293.92 1702.96 1273.2 1659.21 1270.97 1612.63 C 1269.03 1578.9 1275.27 1544.71 1285.42 1512.62 C 1298.05 1472.72 1316.56 1435.38 1334.11 1397.49 L 1406.89 1241.86 C 1417.86 1218.34 1423.6 1192.81 1434.45 1169.42 C 1437.88 1162.04 1442.06 1155.07 1447.54 1149.02 C 1463.73 1131.16 1483.44 1125.56 1506.74 1124.51 z"/>
<path transform="translate(0,0)" fill="rgb(49,15,21)" d="M 1497.5 1451.41 C 1517.89 1449.49 1539.12 1456.25 1555.36 1468.61 C 1577.5 1485.47 1590.23 1512.52 1593.82 1539.67 C 1599.01 1580.2 1587.57 1621.11 1562.1 1653.07 C 1539.39 1682.3 1505.98 1701.29 1469.24 1705.86 C 1444.96 1706.93 1423.14 1702.87 1403.87 1687.17 C 1384.35 1671.26 1374.31 1647.84 1371.84 1623.14 C 1367.57 1580.44 1384.82 1531.14 1411.97 1498.36 C 1433.98 1471.77 1463.03 1454.65 1497.5 1451.41 z"/>
<path transform="translate(0,0)" fill="rgb(106,63,47)" d="M 1500.3 1463.39 C 1515.43 1462.45 1532.17 1467.46 1544.37 1476.4 C 1563.56 1490.45 1573.83 1514.45 1577.26 1537.39 C 1582.8 1573.94 1573.46 1611.19 1551.33 1640.8 C 1530.96 1668.28 1502.08 1686.01 1468.25 1690.96 C 1448.08 1692.12 1429.14 1688.48 1413.11 1675.49 C 1396.28 1661.85 1388.17 1641.73 1386.18 1620.56 C 1382.35 1579.94 1397.35 1536.17 1423.26 1504.91 C 1443.28 1480.76 1469.03 1466.24 1500.3 1463.39 z"/>
<path transform="translate(0,0)" fill="rgb(216,68,62)" d="M 1374.62 1382.28 C 1377.85 1382.28 1381.05 1382.3 1384.21 1383.04 C 1389.45 1384.28 1394.43 1387.15 1397.2 1391.9 C 1399.55 1395.94 1399.9 1400.67 1398.51 1405.11 C 1395.95 1413.3 1389.65 1417.04 1382.5 1420.68 C 1376.94 1421.4 1373.05 1421.79 1368.08 1418.86 C 1362.82 1415.7 1359.09 1410.51 1357.78 1404.52 C 1356.65 1399.28 1357.31 1393.86 1360.47 1389.44 C 1364.05 1384.43 1368.84 1383.24 1374.62 1382.28 z"/>
<path transform="translate(0,0)" fill="rgb(215,50,50)" d="M 1620.28 1393.14 C 1623.83 1392.88 1627.24 1392.7 1630.73 1393.56 C 1636.34 1394.94 1641.59 1398.64 1644.32 1403.8 C 1646.48 1407.89 1646.79 1412.3 1645.35 1416.67 C 1643.23 1423.08 1638.36 1425.79 1632.59 1428.54 C 1629.66 1428.91 1626.87 1428.58 1624.03 1427.79 C 1618.09 1426.16 1612.61 1422.37 1609.68 1416.86 C 1607.53 1412.82 1606.95 1408.12 1608.51 1403.77 C 1610.54 1398.08 1615.13 1395.62 1620.28 1393.14 z"/>
<path transform="translate(0,0)" fill="rgb(49,15,21)" d="M 1549.56 1337.55 C 1550.62 1337.71 1553.23 1337.78 1554.06 1338.25 C 1556.92 1339.88 1561.13 1358.37 1565.34 1363.41 C 1569.41 1368.29 1575.35 1370.85 1581.62 1371.27 C 1588.47 1371.67 1595.17 1369.22 1600.14 1364.5 C 1606.39 1358.64 1607.86 1352.49 1608.14 1344.29 C 1608.26 1340.98 1608.7 1339.64 1611.1 1337.38 C 1613.23 1337.6 1613.64 1338.08 1615.1 1339.7 C 1617.51 1342.37 1617.22 1344.47 1617.27 1347.8 L 1616.87 1349.24 C 1613.77 1360.4 1608.71 1370.79 1598.04 1376.46 C 1590.24 1380.58 1581.1 1381.33 1572.73 1378.55 C 1563.12 1375.38 1555.17 1367.51 1551.09 1358.33 C 1548 1351.35 1546.96 1344.75 1549.56 1337.55 z"/>
<path transform="translate(0,0)" fill="rgb(49,15,21)" d="M 1389.58 1334.56 C 1391.08 1334.98 1393.41 1335.26 1394.51 1336.4 C 1398.89 1340.94 1399.09 1356.43 1406.6 1364.5 C 1409.63 1367.76 1413.35 1369.62 1417.83 1369.71 C 1422.25 1369.79 1427.04 1368.43 1430.93 1366.38 C 1447.97 1357.37 1439.82 1345.24 1448.39 1336.86 C 1450.91 1336.61 1450.99 1337.01 1453.1 1338.49 C 1454.76 1341.24 1454.11 1344.17 1453.86 1347.24 C 1452.74 1353.33 1450.34 1359.12 1446.8 1364.22 C 1441.86 1371.24 1434.36 1376.16 1425.8 1377.36 C 1416.76 1378.63 1407.78 1375.61 1400.69 1370.01 C 1393.15 1364.06 1387.32 1355.1 1386.53 1345.41 C 1386.14 1340.71 1386.58 1338.26 1389.58 1334.56 z"/>
<path transform="translate(0,0)" fill="rgb(24,1,9)" d="M 1497.5 1395.46 L 1498.9 1395.61 C 1505.18 1396.26 1509.52 1396.21 1514.55 1392.01 C 1518.44 1388.75 1522.14 1380.16 1526.12 1378.45 C 1527.37 1379.28 1528.06 1379.29 1528.39 1380.89 C 1529.28 1385.2 1526.66 1390.21 1524.12 1393.54 C 1519.71 1399.35 1513.3 1403.16 1505.99 1403.79 C 1499.57 1404.33 1491.85 1401.1 1487.18 1396.79 C 1486.68 1396.34 1486.21 1395.87 1485.72 1395.4 C 1489.49 1394.67 1493.49 1395.98 1497.5 1395.46 z"/>
<path transform="translate(0,0)" fill="rgb(47,15,18)" d="M 1485.72 1395.4 C 1483.6 1393.44 1481.94 1390.54 1481.34 1387.71 C 1480.76 1384.95 1481.17 1382.46 1482.71 1380.16 C 1488.67 1381.29 1491.56 1391.18 1496.72 1394.91 C 1496.98 1395.09 1497.24 1395.27 1497.5 1395.46 C 1493.49 1395.98 1489.49 1394.67 1485.72 1395.4 z"/>
<path transform="translate(0,0)" fill="rgb(216,68,62)" d="M 1153.2 1652.2 C 1165.52 1651.08 1177.45 1652.65 1188.41 1658.69 C 1200.73 1665.37 1209.66 1676.92 1213.04 1690.51 C 1216.49 1703.91 1214.97 1718.02 1211.12 1731.15 C 1205.54 1750.12 1194.72 1766.85 1185.23 1784.02 C 1172.25 1807.49 1159.29 1830.82 1145.49 1853.83 C 1117.04 1843.32 1089.72 1829.95 1062.62 1816.4 C 1044.37 1806.76 1023.48 1797.33 1008.22 1783.29 C 996.266 1772.29 988.988 1757.31 988.55 1741 C 988.129 1725.35 993.857 1708.87 1004.99 1697.72 C 1011.72 1690.97 1020.33 1686.42 1029.69 1684.66 C 1066.73 1677.62 1077.94 1712.65 1096.65 1712.5 C 1108.54 1707.86 1111.55 1684.78 1118.9 1673.96 C 1127.32 1661.54 1138.75 1655.1 1153.2 1652.2 z"/>
<path transform="translate(0,0)" fill="rgb(248,247,226)" d="M 1186 1710.9 C 1189.42 1711.49 1192.03 1712.09 1194.21 1715.11 C 1196.95 1718.91 1197.25 1724.14 1196.45 1728.62 C 1194.87 1737.54 1191.16 1744.09 1183.65 1749.08 C 1182.14 1749.07 1180.75 1749.01 1179.29 1748.54 C 1176.63 1747.68 1175 1746.08 1173.69 1743.66 C 1171.39 1739.41 1172.21 1733.11 1173.43 1728.69 C 1175.67 1720.65 1178.76 1715.14 1186 1710.9 z"/>
<path transform="translate(0,0)" fill="rgb(248,247,226)" d="M 1012.06 1711.01 C 1013.8 1710.78 1015.48 1710.67 1017.22 1710.8 C 1020.67 1711.05 1024.47 1712.53 1026.36 1715.62 C 1027.27 1717.1 1027.6 1718.72 1027.31 1720.4 C 1026.56 1724.65 1024.1 1726.4 1020.76 1728.67 C 1016.4 1729.25 1010.8 1729.09 1007.31 1726.01 C 1005.56 1724.5 1004.68 1722.21 1004.95 1719.92 C 1005.48 1715.72 1008.99 1713.39 1012.06 1711.01 z"/>
<path transform="translate(0,0)" fill="rgb(40,101,48)" d="M 1134.79 1631.33 C 1138.1 1627.88 1147.82 1623.64 1152.39 1621.76 C 1155.71 1620.39 1160.47 1618.38 1163.89 1619.83 C 1161.68 1624.42 1156.02 1627.5 1151.88 1630.23 C 1149.02 1632.2 1145.77 1634.07 1143.13 1636.3 C 1139.95 1638.69 1136.79 1641.53 1133.41 1643.6 L 1129.32 1645.93 C 1131.22 1641.88 1135.46 1635.66 1134.79 1631.33 z"/>
<path transform="translate(0,0)" fill="rgb(62,147,52)" d="M 1133.41 1643.6 C 1133.62 1642.25 1133.48 1642.75 1134.16 1641.1 C 1136.52 1635.41 1141.49 1630.59 1147.07 1628.16 C 1149.86 1628.36 1149.89 1628.29 1151.88 1630.23 C 1149.02 1632.2 1145.77 1634.07 1143.13 1636.3 C 1139.95 1638.69 1136.79 1641.53 1133.41 1643.6 z"/>
<path transform="translate(0,0)" fill="rgb(76,153,56)" d="M 1134.79 1631.33 C 1135.46 1635.66 1131.22 1641.88 1129.32 1645.93 C 1122.73 1650.51 1117.1 1656.66 1111.54 1662.42 C 1115.26 1654.81 1118.81 1647.41 1121.34 1639.29 C 1126.21 1637.22 1130.41 1634.26 1134.79 1631.33 z"/>
<path transform="translate(0,0)" fill="rgb(248,247,226)" d="M 1106.29 1650.36 C 1102.41 1660.62 1098.26 1670.87 1094.98 1681.35 C 1093.39 1675.19 1091.74 1669.06 1090.03 1662.93 C 1095.97 1660.02 1101.29 1654.63 1106.29 1650.36 z"/>
<path transform="translate(0,0)" fill="rgb(47,15,18)" d="M 332.021 1443.34 C 342.872 1415.82 357.108 1389.46 370.294 1363 L 432.373 1237.44 C 441.069 1219.49 449.771 1201.39 457.763 1183.11 C 464.583 1167.51 470.153 1150.08 479.715 1135.97 C 488.954 1122.24 502.015 1111.53 517.28 1105.16 C 549.111 1091.49 587.992 1092.86 619.788 1105.8 C 642.127 1114.89 661.822 1129.7 678.269 1147.24 C 722.129 1194.02 759.745 1277.45 784.26 1336.51 C 809.732 1397.87 833.11 1465.62 832.779 1532.9 C 859.637 1567.66 888.448 1609.45 882.818 1655.72 C 881.285 1668.31 876.521 1680.6 866.46 1688.85 C 860.702 1693.59 853.244 1695.75 845.845 1694.81 C 842.404 1694.39 839.772 1693.46 837.223 1691.05 C 836.884 1688.91 837.35 1687.44 837.931 1685.38 C 837.034 1682.89 835.227 1681.42 833.365 1679.64 C 832.907 1677.32 832.823 1676.86 833.575 1674.64 L 836.655 1673.51 C 836.027 1669.6 832.595 1670.53 835.764 1665.89 C 838.851 1661.36 845.659 1659.76 850.747 1659.21 C 856.41 1658.6 860.252 1660.98 865.133 1663.48 C 873.766 1636.91 867.109 1614.17 854.852 1589.97 C 848.466 1577.27 840.862 1565.21 832.149 1553.98 C 826.811 1632.43 801.735 1695.68 740.981 1748.47 C 709.137 1776.14 671.854 1793.06 631.572 1804.27 C 632.356 1831.32 633.035 1858.29 632.907 1885.35 C 642.32 1879.78 651.143 1875.03 662.455 1877.7 C 666.566 1878.66 670.041 1880.45 673.693 1882.51 C 673.959 1882.48 674.225 1882.44 674.493 1882.41 C 695.565 1880.35 786.555 1887.76 799.557 1901.64 C 801.42 1903.63 801.46 1904.13 801.218 1906.62 C 799.292 1909.61 796.427 1911.1 793.21 1912.43 C 763.342 1924.73 685.978 1930.08 653.104 1931.59 C 589.333 1934.5 365.133 1933.39 315.831 1911.78 C 312.417 1910.29 309.953 1908.68 308.582 1905.05 C 309.054 1902.27 309.564 1900.81 311.685 1898.83 C 323.634 1887.67 394.887 1877.88 411.84 1879.7 C 412.18 1879.74 412.519 1879.79 412.858 1879.83 C 420.834 1878.22 429.716 1876.2 437.31 1880.3 C 439.963 1881.61 442.655 1882.84 445.381 1883.99 C 447.289 1873.97 445.244 1860.98 445.268 1850.53 C 445.307 1833.8 446.207 1817.01 446.852 1800.28 C 439.329 1800.03 430.018 1796.16 423.094 1793.35 C 374.166 1773.44 330.111 1735.84 309.479 1686.44 C 286.622 1631.71 286.89 1568.89 303.642 1512.6 C 309.152 1494.09 316.873 1476.36 324.234 1458.53 C 291.455 1448.14 271.82 1438.67 246.69 1414.6 C 249.417 1432.23 262.213 1492.74 255.315 1506.28 C 253.081 1508.39 250.232 1509.44 247.297 1510.24 C 242.159 1511.64 236.133 1511.46 231.534 1508.54 C 228.393 1506.55 226.406 1503.95 225.445 1500.37 C 220.217 1480.89 218.706 1457.46 215.806 1437.32 C 210.84 1402.32 205.604 1367.36 200.098 1332.43 C 197.09 1313.05 194.651 1293.35 190.513 1274.19 C 184.435 1272.75 178.715 1271.03 172.863 1268.85 C 164.885 1264.97 157.662 1259.71 151.532 1253.29 C 136.69 1237.79 131.629 1219.25 132.015 1198.25 C 135.275 1178 142.903 1160.68 160.013 1148.42 C 174.85 1137.99 193.193 1133.83 211.075 1136.83 C 229.655 1139.95 246.207 1150.4 257.024 1165.82 C 267.479 1180.94 270.836 1198.71 267.526 1216.71 C 264.253 1234.5 255.179 1250.17 240.204 1260.59 C 236.081 1263.46 231.414 1265.76 226.975 1268.09 C 228.588 1288.36 238.707 1372.83 245.192 1386.98 C 249.743 1396.9 259.324 1405.71 267.506 1412.69 C 285.949 1428.41 308.498 1438.1 332.021 1443.34 z"/>
<path transform="translate(0,0)" fill="rgb(225,223,120)" d="M 459.717 1877.35 C 489.119 1876.73 518.398 1875.91 547.815 1876.07 C 571.248 1876.2 594.691 1877.24 618.122 1877.18 C 618.072 1884.51 616.27 1899.74 620.239 1905.76 L 622.074 1906.81 C 630.853 1909.61 656.016 1910.77 665.151 1909.03 C 668.5 1908.8 672.306 1907.51 674.899 1905.31 C 677.537 1903.07 679.028 1899.92 679.322 1896.49 C 679.839 1890.45 677.563 1886.88 673.693 1882.51 C 673.959 1882.48 674.225 1882.44 674.493 1882.41 C 695.565 1880.35 786.555 1887.76 799.557 1901.64 C 801.42 1903.63 801.46 1904.13 801.218 1906.62 C 799.292 1909.61 796.427 1911.1 793.21 1912.43 C 763.342 1924.73 685.978 1930.08 653.104 1931.59 C 589.333 1934.5 365.133 1933.39 315.831 1911.78 C 312.417 1910.29 309.953 1908.68 308.582 1905.05 C 309.054 1902.27 309.564 1900.81 311.685 1898.83 C 323.634 1887.67 394.887 1877.88 411.84 1879.7 C 412.18 1879.74 412.519 1879.79 412.858 1879.83 C 420.834 1878.22 429.716 1876.2 437.31 1880.3 C 437.816 1882.63 451.551 1896.9 455.111 1903.69 L 446.16 1906.5 L 446.171 1907.29 C 448.169 1907.66 450.157 1908 452.171 1908.29 C 454.305 1908.07 455.661 1907.44 457.559 1906.47 C 462.063 1899.93 459.765 1885.19 459.717 1877.35 z"/>
<path transform="translate(0,0)" fill="rgb(49,15,21)" d="M 412.858 1879.83 C 420.834 1878.22 429.716 1876.2 437.31 1880.3 C 437.816 1882.63 451.551 1896.9 455.111 1903.69 L 446.16 1906.5 L 446.171 1907.29 C 448.169 1907.66 450.157 1908 452.171 1908.29 C 441.538 1910.08 426.371 1910.97 415.734 1909.38 C 410.753 1908.63 405.015 1906.7 402.13 1902.26 C 400.279 1899.42 399.941 1895.86 400.693 1892.6 C 402.145 1886.31 407.732 1882.95 412.858 1879.83 z"/>
<path transform="translate(0,0)" fill="rgb(248,247,226)" d="M 463.132 1804.66 C 496.002 1819.12 580.783 1816.12 616.91 1807.69 L 618.122 1877.18 C 594.691 1877.24 571.248 1876.2 547.815 1876.07 C 518.398 1875.91 489.119 1876.73 459.717 1877.35 C 459.804 1865.5 458.355 1811.79 463.132 1804.66 z"/>
<path transform="translate(0,0)" fill="rgb(62,147,52)" d="M 219.028 1179.81 C 215.122 1180.17 210.691 1181.88 206.766 1182.65 C 190.899 1185.75 166.622 1190.6 151.021 1184.88 C 148.338 1183.89 148.357 1183.44 147.404 1180.95 C 148.257 1175.14 152.261 1170.34 156.083 1166.08 C 166.652 1154.21 181.638 1147.2 197.527 1146.7 C 216.134 1146.12 232.206 1154.45 245.28 1167.05 C 240.576 1170.01 235.683 1172.75 230.895 1175.58 C 226.809 1176.74 222.955 1178.2 219.028 1179.81 z"/>
<path transform="translate(0,0)" fill="rgb(214,210,93)" d="M 196.821 1212.83 C 210.998 1211.33 228.896 1206.9 241.803 1200.62 C 246.635 1198.26 251.067 1193.19 256.154 1191.8 C 257.157 1194.24 256.523 1195.58 256.096 1198.11 L 258.431 1199.96 C 258.128 1201.91 258.522 1201.26 257.829 1202.15 C 257.607 1207.07 256.824 1211.45 255.73 1216.22 C 228.413 1233.09 195.906 1235.3 164.541 1236.98 C 161.695 1237 158.04 1237.28 155.327 1236.32 C 149.636 1234.32 147.289 1227.66 144.8 1222.7 L 144.243 1222.59 C 142.626 1221.23 142.204 1220.48 141.616 1218.45 L 143.033 1217.73 L 146.348 1219.14 C 145.007 1217.14 143.268 1215.56 141.576 1213.86 L 143.633 1213.34 C 153.185 1216.75 185.493 1214.43 196.821 1212.83 z"/>
<path transform="translate(0,0)" fill="rgb(90,14,19)" d="M 196.821 1212.83 C 210.998 1211.33 228.896 1206.9 241.803 1200.62 C 246.635 1198.26 251.067 1193.19 256.154 1191.8 C 257.157 1194.24 256.523 1195.58 256.096 1198.11 C 242.43 1214.04 212.859 1218.98 192.965 1220.52 C 182.479 1221.33 155.754 1222.6 146.348 1219.14 C 145.007 1217.14 143.268 1215.56 141.576 1213.86 L 143.633 1213.34 C 153.185 1216.75 185.493 1214.43 196.821 1212.83 z"/>
<path transform="translate(0,0)" fill="rgb(4,2,4)" d="M 256.096 1198.11 L 258.431 1199.96 C 258.128 1201.91 258.522 1201.26 257.829 1202.15 C 233.437 1222.28 189.145 1228.44 158.482 1225.59 C 153.743 1225.15 149.292 1224.31 144.8 1222.7 L 144.243 1222.59 C 142.626 1221.23 142.204 1220.48 141.616 1218.45 L 143.033 1217.73 L 146.348 1219.14 C 155.754 1222.6 182.479 1221.33 192.965 1220.52 C 212.859 1218.98 242.43 1214.04 256.096 1198.11 z"/>
<path transform="translate(0,0)" fill="rgb(49,15,21)" d="M 132.015 1198.25 C 134.036 1198.08 135.288 1198.27 137.187 1198.84 C 139.548 1199.56 140.71 1199.41 143.083 1198.85 C 142.392 1201.89 141.327 1204.72 142.566 1207.73 C 152.374 1214.42 182.148 1211.56 193.826 1209.8 L 196.821 1212.83 C 185.493 1214.43 153.185 1216.75 143.633 1213.34 L 141.576 1213.86 C 143.268 1215.56 145.007 1217.14 146.348 1219.14 L 143.033 1217.73 L 141.616 1218.45 C 142.204 1220.48 142.626 1221.23 144.243 1222.59 L 144.8 1222.7 C 147.289 1227.66 149.636 1234.32 155.327 1236.32 C 158.04 1237.28 161.695 1237 164.541 1236.98 L 163.457 1238.71 C 168.757 1240.79 177.74 1239.53 183.631 1239.83 L 182.59 1239.93 C 175.683 1240.55 167.996 1239.45 161.386 1241.4 L 160.664 1242.63 L 161.188 1243.55 C 161.621 1245.72 162.361 1246.52 163.872 1248.09 C 169.215 1249.98 174.655 1248.38 180.053 1249.62 L 165.461 1250.26 C 172.897 1255.08 179.255 1258.93 188.206 1260.42 L 190.84 1263.09 C 184.971 1266.59 176.925 1262.31 172.863 1268.85 C 164.885 1264.97 157.662 1259.71 151.532 1253.29 C 136.69 1237.79 131.629 1219.25 132.015 1198.25 z"/>
<path transform="translate(0,0)" fill="rgb(227,177,83)" d="M 247.249 1183.67 C 250.218 1182.39 250.861 1181.53 254.017 1182.57 C 255.54 1184.65 255.374 1184.78 255.227 1187.38 C 250.008 1196.58 231.047 1201.22 221.379 1203.86 C 212.3 1206.3 203.104 1208.28 193.826 1209.8 C 182.148 1211.56 152.374 1214.42 142.566 1207.73 C 141.327 1204.72 142.392 1201.89 143.083 1198.85 C 147.221 1198.21 151.146 1200.04 155.228 1200.6 C 155.289 1200.62 155.347 1200.65 155.41 1200.66 C 179.093 1205.12 227.467 1197.48 247.249 1183.67 z"/>
<path transform="translate(0,0)" fill="rgb(62,147,52)" d="M 180.053 1249.62 C 203.331 1249.33 228.379 1243.21 249.629 1234.19 C 246.456 1237.95 243.039 1241.54 239.735 1245.18 C 223.421 1251.4 208.529 1256.64 191.337 1259.99 L 188.206 1260.42 C 179.255 1258.93 172.897 1255.08 165.461 1250.26 L 180.053 1249.62 z"/>
<path transform="translate(0,0)" fill="rgb(49,15,21)" d="M 230.895 1175.58 L 232.536 1175.37 C 234.607 1175.09 236.403 1174.45 238.39 1173.86 C 239.697 1173.47 239.197 1173.57 240.664 1173.86 C 218.448 1186.09 194.24 1191.12 169.002 1190.92 C 164.101 1190.89 158.14 1191.24 153.409 1189.73 C 150.762 1188.88 148.223 1187.44 145.579 1186.46 C 144.198 1188.84 143.231 1190.02 143.215 1192.87 C 149.926 1198.14 182.665 1197.72 191.498 1196.67 C 210.66 1194.4 231.399 1187.95 248.594 1179.05 C 248.694 1180.84 248.878 1179.91 248.019 1181.49 C 247.22 1182.95 247.407 1182.32 247.249 1183.67 C 227.467 1197.48 179.093 1205.12 155.41 1200.66 C 155.347 1200.65 155.289 1200.62 155.228 1200.6 C 153.98 1195.73 145.797 1196.43 141.953 1193.76 C 140.611 1192.83 140.946 1192.18 140.762 1190.69 C 141.896 1188.96 143.486 1185.08 145.703 1185.16 C 149.715 1185.3 154.533 1188.68 158.784 1189.28 C 173.71 1191.38 198.038 1188.02 212.632 1183.84 C 215.615 1182.99 217.51 1182.6 219.028 1179.81 C 222.955 1178.2 226.809 1176.74 230.895 1175.58 z"/>
<path transform="translate(0,0)" fill="rgb(90,14,19)" d="M 183.631 1239.83 C 194.696 1238.17 206.465 1237.07 217.288 1234.36 C 225.104 1232.4 240.836 1226.09 248.063 1225.77 L 248.986 1226.84 C 246.392 1232.07 240.775 1234.05 235.544 1235.84 C 216.479 1242.36 180.755 1249.86 161.188 1243.55 L 160.664 1242.63 L 161.386 1241.4 C 167.996 1239.45 175.683 1240.55 182.59 1239.93 L 183.631 1239.83 z"/>
<path transform="translate(0,0)" fill="rgb(53,72,40)" d="M 191.337 1259.99 C 208.529 1256.64 223.421 1251.4 239.735 1245.18 C 231.515 1255.29 218.426 1262.05 205.393 1263.43 C 201.604 1263.83 195.499 1263.69 192.487 1261.09 C 192.087 1260.74 191.721 1260.36 191.337 1259.99 z"/>
<path transform="translate(0,0)" fill="rgb(4,2,4)" d="M 622.074 1906.81 C 629.41 1902.25 651.365 1904.76 659.782 1906.52 C 661.93 1906.97 663.371 1907.78 665.151 1909.03 C 656.016 1910.77 630.853 1909.61 622.074 1906.81 z"/>
<path transform="translate(0,0)" fill="rgb(62,147,52)" d="M 554.823 1110.84 L 555.385 1108.77 C 558.097 1107.69 560.864 1109.51 563.818 1109.64 C 564.188 1109.65 564.558 1109.62 564.928 1109.61 C 593.222 1105.77 625.779 1118.94 648 1135.88 C 697.087 1173.3 728.659 1243.09 753.391 1298.1 C 782.01 1361.75 809.114 1427.78 818.254 1497.48 C 819.219 1504.84 819.908 1512.04 819.801 1519.47 C 818.361 1520.82 819.21 1520.42 817.466 1520.71 C 814.673 1521.16 812.578 1521.24 810.533 1523.4 C 809.364 1526.38 809.614 1529.09 810.748 1532.05 C 810.842 1532.29 810.97 1532.53 811.081 1532.76 C 813.955 1535.28 816.79 1537.78 819.87 1540.05 C 824.747 1597.31 797.407 1665.47 760.798 1708.67 C 725.775 1750 678.687 1777.42 627.073 1792.41 C 612.852 1796.54 597.941 1800.24 583.152 1801.45 C 582.381 1801.52 581.608 1801.54 580.835 1801.57 L 580.543 1800.72 L 580.777 1800.38 C 570.08 1801.13 559.387 1801.96 548.701 1802.87 L 547.989 1801.84 L 546.081 1802.51 L 547.442 1801.89 L 548.07 1802.66 L 548.872 1801.51 L 550.589 1801.28 C 489.815 1803.19 418.412 1786.63 371.179 1746.82 C 330.963 1712.92 310.054 1665.45 305.644 1613.56 C 303.042 1579.85 306.841 1545.95 316.839 1513.65 C 334.575 1456.95 367.534 1396.12 394.734 1342.92 C 401.69 1329.31 407.805 1315.29 414.525 1301.57 C 424.83 1280.52 435.595 1259.7 445.681 1238.55 C 453.708 1221.67 461.559 1204.7 469.233 1187.66 C 475.833 1172.75 481.642 1151.16 492.491 1139.03 C 509.495 1120.01 529.964 1112.89 554.823 1110.84 z"/>
<path transform="translate(0,0)" fill="rgb(40,101,48)" d="M 564.928 1109.61 C 593.222 1105.77 625.779 1118.94 648 1135.88 C 697.087 1173.3 728.659 1243.09 753.391 1298.1 C 782.01 1361.75 809.114 1427.78 818.254 1497.48 C 819.219 1504.84 819.908 1512.04 819.801 1519.47 C 818.361 1520.82 819.21 1520.42 817.466 1520.71 C 814.673 1521.16 812.578 1521.24 810.533 1523.4 C 809.364 1526.38 809.614 1529.09 810.748 1532.05 C 810.842 1532.29 810.97 1532.53 811.081 1532.76 C 813.955 1535.28 816.79 1537.78 819.87 1540.05 C 824.747 1597.31 797.407 1665.47 760.798 1708.67 C 725.775 1750 678.687 1777.42 627.073 1792.41 C 612.852 1796.54 597.941 1800.24 583.152 1801.45 C 582.381 1801.52 581.608 1801.54 580.835 1801.57 L 580.543 1800.72 L 580.777 1800.38 C 618.552 1794.76 652.975 1777.29 683.259 1754.66 C 693.668 1745.39 704.064 1736.02 713.142 1725.41 C 745.617 1687.47 762.274 1638.14 770.152 1589.4 C 775.172 1556.86 775.803 1523.79 772.027 1491.08 C 760.424 1396.44 701.365 1245 645.606 1167.86 C 623.912 1137.85 602.688 1115.66 564.928 1109.61 z"/>
<path transform="translate(0,0)" fill="url(#Gradient2)" d="M 811.081 1532.76 C 813.955 1535.28 816.79 1537.78 819.87 1540.05 C 824.747 1597.31 797.407 1665.47 760.798 1708.67 C 725.775 1750 678.687 1777.42 627.073 1792.41 C 612.852 1796.54 597.941 1800.24 583.152 1801.45 C 582.381 1801.52 581.608 1801.54 580.835 1801.57 L 580.543 1800.72 L 580.777 1800.38 C 618.552 1794.76 652.975 1777.29 683.259 1754.66 L 684.204 1756.48 L 686.295 1756.55 C 703.431 1746.76 726.898 1723.3 741.279 1708.87 C 756.643 1693.45 771.555 1674.69 781.902 1655.47 C 801.021 1619.96 811.113 1572.96 811.081 1532.76 z"/>
<path transform="translate(0,0)" fill="rgb(4,2,4)" d="M 554.823 1110.84 L 555.385 1108.77 C 558.097 1107.69 560.864 1109.51 563.818 1109.64 C 564.188 1109.65 564.558 1109.62 564.928 1109.61 C 602.688 1115.66 623.912 1137.85 645.606 1167.86 C 701.365 1245 760.424 1396.44 772.027 1491.08 C 775.803 1523.79 775.172 1556.86 770.152 1589.4 C 762.274 1638.14 745.617 1687.47 713.142 1725.41 C 704.064 1736.02 693.668 1745.39 683.259 1754.66 C 652.975 1777.29 618.552 1794.76 580.777 1800.38 C 570.08 1801.13 559.387 1801.96 548.701 1802.87 L 547.989 1801.84 L 546.081 1802.51 L 547.442 1801.89 L 548.07 1802.66 L 548.872 1801.51 L 550.589 1801.28 C 596.837 1798.23 640.407 1783.88 677.268 1755.17 C 733.045 1711.72 760.103 1646.71 768.225 1578.01 C 771.954 1545.26 771.531 1512.17 766.967 1479.53 C 753.482 1386.74 692.686 1230.65 634.749 1157.84 C 611.828 1129.04 591.568 1114.95 554.823 1110.84 z"/>
<path transform="translate(0,0)" fill="rgb(225,223,120)" d="M 540.746 1124.38 C 563.894 1123.14 583.44 1125.6 602.211 1140.3 C 661.307 1186.59 719.24 1346.17 737.915 1417.6 C 743.95 1440.73 748.343 1464.26 751.063 1488.01 C 760.071 1565.97 744.883 1652.28 694.957 1714.69 C 666.149 1750.69 621.531 1774.14 576.475 1782.08 C 561.475 1784.73 546.607 1784.86 531.596 1786.61 L 530.655 1786.73 C 478.195 1782.67 438.899 1779.22 393.433 1748.31 C 353.502 1721.17 326.796 1677.1 318.012 1629.9 C 311.733 1596.17 315.506 1559.76 324.739 1526.84 C 337.95 1479.73 361.174 1435.7 382.445 1391.82 L 459.437 1232.88 C 471.108 1208.45 483.779 1169.61 498.009 1149.46 C 507.881 1135.48 524.222 1127.3 540.746 1124.38 z"/>
<path transform="translate(0,0)" fill="rgb(49,15,21)" d="M 536.208 1451.29 C 558.467 1448.61 580.942 1454.12 599.434 1466.79 C 622.473 1482.84 634.382 1508.44 639.244 1535.47 C 646.164 1573.96 639.526 1618.32 616.683 1650.63 C 595.505 1680.6 565.081 1699.57 529.066 1705.75 C 503.944 1709.29 479.524 1704.05 458.549 1689.54 C 438.604 1675.74 426.435 1655.87 422.398 1632.06 C 414.933 1588.02 429.269 1542.28 454.746 1506.39 C 475.138 1477.66 500.989 1457.2 536.208 1451.29 z"/>
<path transform="translate(0,0)" fill="rgb(106,63,47)" d="M 472.875 1684.59 L 471.157 1685.32 C 469.512 1684.86 468.156 1684.38 466.675 1683.51 C 449.568 1673.36 440.385 1658.28 435.423 1639.4 C 425.181 1600.44 434.085 1557.38 454.355 1523.16 C 470.397 1496.08 497.199 1469.86 528.637 1462.17 C 548.491 1457.12 569.538 1460.29 587.031 1470.95 C 610.169 1485.31 623.97 1509.39 630.045 1535.52 C 637.152 1566.08 631.474 1607.17 614.531 1633.83 C 611.349 1638.84 605.44 1649.24 599.482 1650.61 L 598.452 1651.43 C 591.597 1657.01 586.114 1664.63 579.372 1670.51 C 559.004 1688.3 530.311 1696.27 503.646 1693.83 C 490.296 1692.61 483.313 1686.6 472.875 1684.59 z"/>
<path transform="translate(0,0)" fill="rgb(4,2,4)" d="M 472.875 1684.59 L 471.157 1685.32 C 469.512 1684.86 468.156 1684.38 466.675 1683.51 C 449.568 1673.36 440.385 1658.28 435.423 1639.4 C 425.181 1600.44 434.085 1557.38 454.355 1523.16 C 470.397 1496.08 497.199 1469.86 528.637 1462.17 C 548.491 1457.12 569.538 1460.29 587.031 1470.95 C 610.169 1485.31 623.97 1509.39 630.045 1535.52 C 637.152 1566.08 631.474 1607.17 614.531 1633.83 C 611.349 1638.84 605.44 1649.24 599.482 1650.61 C 622.791 1618.96 634.62 1583.08 628.469 1543.55 C 624.549 1518.36 612.665 1492.02 591.466 1476.86 C 575.685 1465.58 555.884 1460.14 536.644 1463.51 C 507.005 1468.7 479.823 1490.63 463.139 1514.91 C 439.947 1548.66 428.223 1591.5 436.075 1632.15 C 439.515 1649.95 448.023 1668.55 463.575 1678.93 C 466.589 1680.94 469.746 1682.76 472.875 1684.59 z"/>
<path transform="translate(0,0)" fill="rgb(4,2,4)" d="M 529.164 1374.42 C 543.294 1373.49 561.168 1374.12 574.404 1379.66 C 579.104 1381.63 583.632 1384.76 585.421 1389.74 C 587.16 1394.59 586.098 1399.75 583.644 1404.14 C 577.465 1415.21 564.71 1422.07 552.987 1425.63 C 546.295 1427.33 539.339 1427.73 532.496 1426.81 C 520.935 1425.23 509.471 1419.78 502.422 1410.25 C 495.39 1400.74 494.654 1391.29 496.517 1380.1 C 507.186 1375.94 517.826 1375.23 529.164 1374.42 z"/>
<path transform="translate(0,0)" fill="rgb(216,68,62)" d="M 537.49 1398.16 C 538.163 1398.11 538.834 1398.04 539.508 1398.01 C 548.32 1397.5 557.227 1397.58 564.098 1403.83 C 565.066 1406.19 565.838 1407.36 564.532 1409.89 C 561.878 1415.01 553.558 1417.06 548.495 1418.8 C 543.717 1419.22 538.693 1419.67 533.944 1418.85 C 528.146 1417.86 523.311 1415.81 519.84 1410.97 C 519.378 1408.21 519.172 1407.38 520.778 1404.87 C 523.668 1400.33 532.642 1399.17 537.49 1398.16 z"/>
<path transform="translate(0,0)" fill="rgb(216,68,62)" d="M 435.774 1377.36 C 442.708 1377.15 449.249 1378 455.561 1381.05 C 460.803 1383.59 466.174 1387.98 467.794 1393.81 C 468.701 1397.08 468.243 1400.23 466.461 1403.1 C 462.373 1409.68 454.491 1411.33 447.517 1413.11 C 437.975 1413.39 428.72 1412.66 420.552 1407.21 C 416.29 1404.37 412.326 1399.93 411.5 1394.71 C 411.014 1391.63 411.848 1388.65 413.801 1386.23 C 419.053 1379.73 427.999 1378.4 435.774 1377.36 z"/>
<path transform="translate(0,0)" fill="rgb(216,68,62)" d="M 640.858 1382.18 C 649.055 1381.63 656.559 1381.31 664.095 1385.23 C 668.823 1387.7 672.999 1391.67 674.532 1396.9 C 675.661 1400.64 675.114 1404.69 673.033 1408.01 C 668.972 1414.4 662.082 1416.42 655.154 1418.01 C 648.104 1418.43 640.738 1418.2 634.072 1415.67 C 628.575 1413.59 623.006 1409.83 620.846 1404.12 C 619.548 1400.69 619.742 1397 621.497 1393.76 C 625.131 1387.04 634.004 1384.06 640.858 1382.18 z"/>
<path transform="translate(0,0)" fill="rgb(24,1,9)" d="M 447.824 1325.61 C 456.103 1326.15 477.126 1336.23 485.41 1339.83 C 487.74 1340.84 492.134 1342.23 492.654 1345.02 C 493.596 1350.06 490.214 1354.86 487.04 1358.37 C 478.463 1367.88 468.275 1373.33 455.496 1374.12 C 451.815 1373.17 449.34 1372.41 446.783 1369.36 C 445.031 1367.27 444.524 1367.07 444.801 1364.36 C 451.045 1360.03 458.288 1364.16 464.874 1362.77 C 471.262 1361.42 476.098 1354.77 479.421 1349.59 C 469.762 1345.01 452.693 1341.78 446.663 1332.89 C 445.943 1329.97 446.776 1328.26 447.824 1325.61 z"/>
<path transform="translate(0,0)" fill="rgb(24,1,9)" d="M 594.512 1341.47 C 607.612 1343.9 602.548 1358.16 613.877 1361.99 C 626.84 1366.37 629.3 1350.58 638.294 1346.5 C 640.46 1346.93 641.423 1347.16 642.78 1349.15 C 644.252 1351.31 643.495 1353.61 642.961 1355.9 C 638.435 1362.61 634.323 1367.99 626.277 1370.67 C 619.599 1372.89 612.545 1372.15 606.391 1368.77 C 599.986 1365.25 595.556 1359.88 593.495 1352.89 C 592.126 1348.24 592.096 1345.74 594.512 1341.47 z"/>
<path transform="translate(0,0)" fill="rgb(249,117,95)" d="M 210.526 1273.24 C 211.832 1273.08 210.953 1273.12 213.139 1273.61 C 218.206 1286.19 219.576 1306.37 221.579 1320.06 L 235.209 1416.25 L 243.132 1467.87 C 244.559 1477.08 246.944 1487.06 246.819 1496.37 C 245.059 1499.03 243.696 1499.46 240.912 1500.92 C 238.99 1499.44 237.283 1498.12 236.367 1495.78 C 231.478 1483.3 227.202 1436.85 225.093 1421.32 C 219.816 1383.66 214.072 1346.07 207.863 1308.55 C 206.795 1302.18 201.367 1278.95 203.811 1274.22 L 210.526 1273.24 z"/>
<path transform="translate(0,0)" fill="rgb(47,15,18)" d="M 1195.82 588.652 C 1202.53 559.344 1211.73 532.015 1223.17 504.219 C 1249.43 440.399 1283.68 379.84 1312.44 317.094 C 1323.41 293.307 1333.7 269.21 1343.3 244.833 C 1349.84 228.165 1355.2 210.72 1363.44 194.787 C 1368.42 185.163 1374.8 177.746 1383.1 170.833 C 1405 152.588 1440.73 146.678 1468.37 149.369 C 1513.22 153.732 1551.09 181.731 1578.97 215.638 C 1642.33 292.7 1712.26 452.88 1726.11 551.309 C 1729.99 578.899 1729.44 605.766 1726.78 633.424 C 1737.31 650.984 1745.61 670.775 1758.78 686.551 C 1773.94 704.713 1785.62 713.17 1809.29 704.056 C 1814.2 702.165 1819.16 699.974 1824.56 700.688 C 1829.04 701.282 1832.42 704.027 1834.87 707.733 C 1837.07 711.074 1837.45 715.201 1836.35 719.022 C 1835.12 723.311 1831.12 727.072 1827.2 728.994 C 1817.27 733.874 1803.43 731.183 1793.31 727.742 C 1756.44 715.199 1738.51 685.334 1722.43 652.068 C 1719.84 681.236 1709.21 711.858 1695.1 737.47 C 1671.41 780.465 1628.64 816.274 1583.95 835.832 C 1570.57 841.687 1556.71 845.599 1542.71 849.627 C 1558.89 873.729 1575.14 900.155 1594.71 921.567 C 1599.21 912.574 1604.41 899.597 1614.45 895.632 C 1617.18 894.555 1620.56 894.167 1623.19 895.726 C 1625.68 897.201 1626.96 900.054 1627.54 902.77 C 1630.05 914.527 1621.07 925.717 1614.87 934.741 C 1615.12 935.021 1615.33 935.339 1615.62 935.579 C 1623.76 942.449 1678.05 943.427 1682.33 960.031 C 1680.1 964.678 1674.54 966.431 1669.88 968.047 C 1641.61 977.846 1610.15 980.807 1580.45 983.254 C 1538.76 986.691 1496.45 987.049 1454.64 986.993 C 1397.01 986.916 1338.71 985.73 1281.71 976.721 C 1269.29 974.757 1254.79 973.194 1243.42 967.644 C 1240.74 966.337 1237.89 964.646 1236.73 961.755 C 1236.23 960.497 1236.4 959.083 1237 957.867 C 1241.06 949.585 1257.44 947.43 1265.56 945.94 C 1273.69 944.448 1281.66 943.558 1289.91 943.13 C 1290.23 939.602 1290.52 936.069 1292.32 932.935 C 1295.42 927.561 1301.63 926.206 1307.14 924.638 C 1317.56 926.866 1327.62 929.397 1337.63 933.075 C 1342.21 906.823 1345.45 880.178 1349.69 853.835 C 1305.99 841.949 1263.02 820.43 1233.83 784.888 C 1190.5 732.124 1186.81 668.108 1193.29 603.045 C 1190.84 602.571 1188.39 602.066 1185.96 601.529 C 1161.58 596.116 1138.39 583.334 1124.93 561.746 C 1112.4 541.633 1108.89 515.596 1114.28 492.629 C 1116.17 484.569 1120.33 476.005 1127.82 471.745 C 1130.98 469.949 1134.93 469.338 1138.4 470.587 C 1142.58 472.09 1145.82 475.543 1147.47 479.604 C 1149.92 485.597 1148.77 492.054 1146.16 497.784 C 1142.08 506.779 1135.28 513.109 1126.09 516.513 L 1124.78 516.985 C 1127.29 531.83 1130.38 545.256 1139.24 557.765 C 1152.96 577.135 1173.17 584.862 1195.82 588.652 z"/>
<path transform="translate(0,0)" fill="rgb(225,223,120)" d="M 1582.72 931.088 C 1586.94 937.023 1590.88 944.63 1598.11 947.063 C 1604.98 946.579 1608.72 941.806 1613.02 936.894 C 1613.64 936.181 1614.26 935.463 1614.87 934.741 C 1615.12 935.021 1615.33 935.339 1615.62 935.579 C 1623.76 942.449 1678.05 943.427 1682.33 960.031 C 1680.1 964.678 1674.54 966.431 1669.88 968.047 C 1641.61 977.846 1610.15 980.807 1580.45 983.254 C 1538.76 986.691 1496.45 987.049 1454.64 986.993 C 1397.01 986.916 1338.71 985.73 1281.71 976.721 C 1269.29 974.757 1254.79 973.194 1243.42 967.644 C 1240.74 966.337 1237.89 964.646 1236.73 961.755 C 1236.23 960.497 1236.4 959.083 1237 957.867 C 1241.06 949.585 1257.44 947.43 1265.56 945.94 C 1273.69 944.448 1281.66 943.558 1289.91 943.13 C 1292.83 947.13 1295.89 949.063 1300.54 950.737 C 1309.06 953.807 1336.37 961.107 1344.45 955.892 C 1350.61 951.92 1350.6 939.822 1351.43 933.217 C 1378.96 932.128 1406.5 931.369 1434.05 930.939 C 1456.31 930.77 1478.58 930.867 1500.85 931.231 C 1511.55 931.435 1575.76 933.825 1581.06 932.314 C 1581.72 932.125 1582.16 931.497 1582.72 931.088 z"/>
<path transform="translate(0,0)" fill="rgb(248,247,226)" d="M 1363.36 857.287 C 1419.27 869.693 1473.02 865.615 1528.41 852.952 C 1544.63 880.171 1565.61 904.412 1582.72 931.088 C 1582.16 931.497 1581.72 932.125 1581.06 932.314 C 1575.76 933.825 1511.55 931.435 1500.85 931.231 C 1478.58 930.867 1456.31 930.77 1434.05 930.939 C 1406.5 931.369 1378.96 932.128 1351.43 933.217 C 1354.4 908.17 1357.72 881.847 1363.36 857.287 z"/>
<path transform="translate(0,0)" fill="rgb(62,147,52)" d="M 1526.95 837.597 C 1482.36 850.643 1435.48 853.949 1389.5 847.291 C 1327.22 837.662 1273.63 816.006 1235.38 763.609 C 1200.95 716.441 1198.97 653.234 1208.02 597.576 C 1218.82 531.122 1253.51 466.814 1282.69 406.743 C 1299.43 372.591 1315.46 338.098 1330.77 303.287 C 1338.35 286.444 1345.61 269.455 1352.52 252.328 C 1359.13 235.721 1364.88 218.302 1373.94 202.853 C 1378.66 194.807 1385.52 188.6 1393.09 183.256 C 1412.22 169.753 1436.52 162.946 1459.74 167.289 C 1492.11 173.344 1520.65 201.218 1538.58 227.396 C 1587.25 298.466 1652.97 459.468 1665.28 544.395 C 1670.28 579.709 1669.49 615.601 1662.94 650.661 C 1651.84 708.907 1625.6 764.831 1578.54 802.51 C 1563.89 814.237 1547.46 822.947 1532 833.446 C 1529.67 834.521 1528.62 835.718 1526.95 837.597 z"/>
<path transform="translate(0,0)" fill="rgb(225,223,120)" d="M 1435.15 178.353 C 1436.15 178.27 1437.14 178.183 1438.14 178.155 C 1463.55 177.452 1485.75 187.307 1504.03 204.853 C 1527.49 227.381 1541.09 258.268 1555.56 286.849 C 1591.94 358.717 1623.05 432.541 1642.43 510.895 C 1648.29 534.613 1653.6 557.52 1654.13 582.124 C 1655.54 648.612 1632.07 723.388 1585.48 771.936 C 1545.43 813.661 1494.77 834.605 1437.14 835.841 C 1385.03 836.303 1328.26 824.782 1284.76 794.769 C 1249.72 770.595 1226.87 732.063 1219.38 690.483 C 1202.01 593.992 1246.51 505.724 1287.43 421.813 C 1304.31 386.955 1320.84 351.935 1337.03 316.758 C 1344.73 299.919 1351.92 282.855 1358.6 265.59 C 1366.17 246.203 1372.79 222.709 1385.18 205.802 C 1396.79 189.972 1416.3 181.412 1435.15 178.353 z"/>
<path transform="translate(0,0)" fill="rgb(49,15,21)" d="M 1434.01 499.327 C 1457.08 497.23 1477.6 501.373 1496.06 516.015 C 1518.51 533.822 1530 561.052 1533.12 588.987 C 1538.11 633.694 1529.06 677.941 1500.57 713.481 C 1478.95 740.456 1451.45 753.11 1417.57 756.865 C 1395.39 757.003 1374.5 753.096 1356.05 740.131 C 1335.66 725.8 1322.54 702.815 1318.29 678.451 C 1310.84 635.75 1327.79 587.899 1352.42 553.381 C 1372.52 525.228 1399.55 505.083 1434.01 499.327 z"/>
<path transform="translate(0,0)" fill="rgb(106,63,47)" d="M 1436.99 513.346 C 1437.3 513.302 1437.61 513.246 1437.93 513.213 C 1455.15 511.383 1474.64 516.381 1488.04 527.534 C 1507.37 543.626 1516.63 568.952 1518.87 593.389 C 1522.38 631.751 1514.65 673.613 1489.32 703.733 C 1470.15 726.522 1444.83 739.523 1415.29 741.98 C 1395.61 742.063 1377.44 736.984 1361.57 725.134 C 1344.84 712.637 1335.25 694.587 1332.29 674.102 C 1326.7 635.371 1342.28 589.977 1365.65 559.314 C 1383.63 535.731 1407.07 517.362 1436.99 513.346 z"/>
<path transform="translate(0,0)" fill="rgb(216,68,62)" d="M 1325.93 438.285 C 1332.32 437.984 1338.57 437.596 1344.76 439.586 C 1351 441.593 1357.3 445.571 1360.22 451.655 C 1361.97 455.304 1362.27 459.216 1360.89 463.036 C 1358.31 470.236 1351.71 474.401 1345.23 477.689 C 1337.92 479.449 1331.32 479.424 1324.39 476.161 C 1318.18 473.241 1312.85 468.104 1310.74 461.457 C 1309.4 457.242 1309.5 452.481 1311.7 448.569 C 1314.77 443.124 1320.18 440.124 1325.93 438.285 z"/>
<path transform="translate(0,0)" fill="rgb(215,50,50)" d="M 1528.48 445.821 C 1534.72 441.416 1539.96 439.505 1547.62 440.897 C 1554.31 442.112 1561.19 444.935 1565.22 450.663 C 1567.73 454.226 1568.64 459.01 1567.71 463.261 C 1566.42 469.109 1562.26 474.062 1557.1 476.964 C 1550.86 480.475 1544.09 480.798 1537.35 478.607 C 1534.25 477.596 1531.61 476.145 1529 474.211 C 1524.93 469.642 1521.4 465.485 1521.46 459.05 C 1521.51 453.499 1524.78 449.577 1528.48 445.821 z"/>
<path transform="translate(0,0)" fill="rgb(216,68,62)" d="M 1528.48 445.821 C 1533.03 447.51 1535.69 453.184 1537.79 457.551 C 1539.49 461.077 1540.99 466.553 1539.33 470.334 C 1538.52 472.208 1536.9 473.224 1535.32 474.395 C 1533.09 474.647 1531.22 474.501 1529 474.211 C 1524.93 469.642 1521.4 465.485 1521.46 459.05 C 1521.51 453.499 1524.78 449.577 1528.48 445.821 z"/>
<path transform="translate(0,0)" fill="rgb(49,15,21)" d="M 1341.81 387.784 C 1342.67 387.884 1343.78 387.984 1344.59 388.229 C 1352.05 390.49 1351.57 401.042 1355.5 406.765 C 1357.79 410.111 1361.22 411.714 1365.16 412.3 C 1384.38 415.16 1377.82 399.061 1388.72 392.236 C 1390.72 390.979 1392.28 390.8 1394.51 391.268 C 1395.43 392.039 1396.02 392.711 1396.48 393.838 C 1398.5 398.721 1397.45 401.922 1395.6 406.609 C 1394.2 408.993 1392.73 411.4 1391.06 413.593 C 1386.22 419.948 1379 424.057 1371.07 424.975 C 1362.35 426.093 1353.57 423.469 1346.9 417.754 C 1341.48 413.128 1337.21 406.667 1336.94 399.384 C 1336.75 394.09 1338.21 391.462 1341.81 387.784 z"/>
<path transform="translate(0,0)" fill="rgb(49,15,21)" d="M 1532.74 390.738 C 1535.2 390.754 1537.02 391.006 1539.37 391.738 C 1541.77 394.058 1542.71 395.894 1542.71 399.207 C 1542.72 406.878 1538.59 414.169 1533 419.209 C 1527.1 424.63 1519.17 427.278 1511.19 426.487 C 1500.56 425.4 1493.38 418.665 1486.76 410.962 C 1484.57 407.102 1482.03 402.258 1482.96 397.684 C 1483.45 395.284 1485.14 393.252 1487.03 391.83 C 1496.29 392.386 1500.51 410.779 1510.74 414.591 C 1513.69 415.69 1516.63 415.366 1519.39 413.868 C 1528.61 408.852 1529.81 399.709 1532.74 390.738 z"/>
<path transform="translate(0,0)" fill="rgb(24,1,9)" d="M 1424.46 423.904 C 1435.41 423.104 1432.07 429.578 1439.71 433.043 C 1443.19 430.727 1446.06 427.61 1449.51 425.32 C 1451.85 423.762 1452.89 423.582 1455.61 424.071 C 1455.8 424.349 1456.01 424.608 1456.16 424.905 C 1457.78 428.078 1456.1 432.426 1455.2 435.606 C 1452.92 438.847 1450.55 441.523 1446.88 443.182 C 1442.52 445.154 1437.17 444.941 1432.75 443.23 C 1428.66 441.643 1425.38 438.648 1423.8 434.515 C 1422.26 430.472 1422.78 427.764 1424.46 423.904 z"/>
<path transform="translate(0,0)" fill="rgb(40,101,48)" d="M 1481.21 172.154 C 1478.87 168.256 1474.34 167.214 1470.29 165.608 C 1475.53 166.206 1478.99 168.168 1484.52 167.336 C 1484.85 167.286 1485.18 167.221 1485.51 167.163 C 1493.8 164.812 1501.1 173.278 1509.37 172.556 C 1523.07 179.73 1537.34 186.809 1548.77 197.398 C 1564.5 212.852 1576.64 230.212 1589.95 247.652 C 1608.6 269.902 1619.19 299.054 1634.11 323.763 C 1651.27 346.313 1661.63 377.107 1671.44 403.417 C 1691.8 457.998 1711.97 512.657 1716.56 571.227 C 1716.99 576.739 1718.91 586.151 1717.66 591.187 C 1717.55 591.664 1717.27 592.087 1717.08 592.537 L 1715.76 591.77 C 1715.36 589.621 1714.92 587.477 1714.46 585.339 L 1713.67 587.659 C 1714.25 593.76 1714.92 599.851 1715.69 605.931 C 1712.3 599.497 1707.46 583.938 1699.93 582.078 C 1698.08 581.619 1696.41 582.21 1694.63 582.691 C 1692.6 584.581 1691.99 585.084 1691.64 588.004 C 1690.53 597.158 1705.4 616.457 1708.38 626.213 C 1711.4 636.115 1709.31 647.683 1707.48 657.643 C 1699.21 701.506 1678.03 741.9 1646.66 773.651 C 1615.44 805.79 1571.87 831.362 1526.95 837.597 C 1528.62 835.718 1529.67 834.521 1532 833.446 C 1533.01 833.506 1533.46 833.596 1534.54 833.292 C 1541.68 831.284 1549.93 825.659 1556.27 821.835 C 1592.81 799.798 1619.92 770.906 1639.57 732.775 C 1670.8 672.179 1678.87 600.79 1666.85 534.043 C 1662.01 507.212 1653.76 480.39 1645.4 454.479 C 1623.04 385.16 1570.95 255.829 1522.76 203.071 C 1510.92 190.114 1496.76 180.143 1481.21 172.154 z"/>
<path transform="translate(0,0)" fill="url(#Gradient1)" d="M 1634.11 323.763 C 1651.27 346.313 1661.63 377.107 1671.44 403.417 C 1691.8 457.998 1711.97 512.657 1716.56 571.227 C 1716.99 576.739 1718.91 586.151 1717.66 591.187 C 1717.55 591.664 1717.27 592.087 1717.08 592.537 L 1715.76 591.77 C 1715.36 589.621 1714.92 587.477 1714.46 585.339 L 1713.67 587.659 C 1712.56 581.417 1712.38 574.96 1711.55 568.651 C 1709.63 553.681 1707.11 538.796 1703.97 524.032 C 1690.1 459.858 1659.77 383.367 1629.76 324.977 L 1634.11 323.763 z"/>
<path transform="translate(0,0)" fill="rgb(53,72,40)" d="M 1589.95 247.652 C 1608.6 269.902 1619.19 299.054 1634.11 323.763 L 1629.76 324.977 C 1616 300.593 1601.71 276.2 1585.89 253.092 C 1587.08 251.184 1588.58 249.432 1589.95 247.652 z"/>
<path transform="translate(0,0)" fill="rgb(34,76,38)" d="M 1537.88 194.93 C 1540.59 195.257 1539.15 194.736 1541.13 196.19 C 1543.15 197.67 1544.23 198.082 1546.7 197.681 C 1547.13 197.611 1547.55 197.477 1547.99 197.417 C 1548.25 197.382 1548.51 197.404 1548.77 197.398 C 1564.5 212.852 1576.64 230.212 1589.95 247.652 C 1588.58 249.432 1587.08 251.184 1585.89 253.092 C 1577.18 239.18 1567.21 226.092 1556.12 213.992 C 1550.4 207.839 1542.45 201.851 1537.88 194.93 z"/>
<path transform="translate(0,0)" fill="rgb(53,72,40)" d="M 1485.51 167.163 C 1493.8 164.812 1501.1 173.278 1509.37 172.556 C 1523.07 179.73 1537.34 186.809 1548.77 197.398 C 1548.51 197.404 1548.25 197.382 1547.99 197.417 C 1547.55 197.477 1547.13 197.611 1546.7 197.681 C 1544.23 198.082 1543.15 197.67 1541.13 196.19 C 1539.15 194.736 1540.59 195.257 1537.88 194.93 C 1531.64 191.505 1525.89 186.571 1519.69 182.875 C 1508.73 176.355 1497.28 171.909 1485.51 167.163 z"/>
<path transform="translate(0,0)" fill="rgb(34,76,38)" d="M 1481.21 172.154 C 1462.29 164.248 1441.97 161.172 1422.1 167.525 C 1417.06 169.134 1410.52 172.361 1405.34 172.192 C 1418.43 161.312 1456.2 159.489 1472.61 161.006 C 1484.98 162.15 1498.92 165.604 1509.37 172.556 C 1501.1 173.278 1493.8 164.812 1485.51 167.163 C 1485.18 167.221 1484.85 167.286 1484.52 167.336 C 1478.99 168.168 1475.53 166.206 1470.29 165.608 C 1474.34 167.214 1478.87 168.256 1481.21 172.154 z"/>
<path transform="translate(0,0)" fill="rgb(47,15,18)" d="M 339.178 477.188 C 369.885 419.173 399.155 360.409 426.961 300.949 C 432.831 288.309 438.88 275.668 444.197 262.784 C 452.851 241.815 459.851 219.276 473.314 200.764 C 486.797 182.225 502.343 169.708 524.335 162.802 C 558.178 152.175 593.741 156.845 624.961 173.221 C 651.745 187.27 673.072 208.239 691.59 231.894 C 723.12 272.171 745.756 319.818 766.808 366.147 C 784.277 404.593 800.809 443.548 813.246 483.96 C 826.61 527.384 837.449 577.086 831.786 622.546 C 853.739 661.783 879.043 709.092 865.674 755.43 C 862.778 765.47 857.49 778.332 848.023 783.659 C 844.835 785.453 840.65 786.532 837.076 785.441 C 833.502 784.351 830.576 781.949 828.983 778.557 C 826.468 773.2 825.713 767.155 828.043 761.603 C 831.956 752.28 841.195 746.643 850.276 743.28 C 852.308 742.528 854.249 742.5 855.289 740.503 C 860.792 729.93 847.541 685.299 843.058 673.668 C 839.298 663.85 834.909 654.283 829.918 645.029 C 826.675 658.574 823.621 672.299 819.18 685.51 C 800.14 742.151 763.665 790.578 712.445 821.932 C 691.055 835.025 667.364 846.105 643.2 852.912 C 656.924 878.467 672.065 903.273 685.413 929.011 C 692.954 919.96 702.827 910.035 715.202 908.82 C 719.763 908.372 724.653 909.411 728.175 912.484 C 730.783 914.76 732.351 918.022 732.285 921.504 C 732.186 926.697 729.193 931.976 725.369 935.362 C 724.02 936.556 722.557 937.626 721.099 938.682 C 726.932 941.818 734.5 940.787 740.992 941.509 C 756.738 943.26 779.911 945.931 793.324 954.348 C 796.154 956.123 797.306 957.535 798.063 960.762 C 797.034 962.949 795.975 964.093 793.843 965.285 C 742.722 993.882 498.421 988.938 430.297 982.767 C 402.055 980.209 374.428 976.025 347.15 968.175 C 342.106 966.723 335.459 965.278 332.748 960.371 C 333.005 957.568 333.442 956.34 335.532 954.35 C 344.109 946.182 393.897 937.205 406.643 938.251 C 406.944 938.275 407.243 938.313 407.543 938.345 C 410.405 933.558 413.637 930.764 419.174 929.467 C 430.033 926.923 442.856 931.252 453.267 934.303 C 453.863 908.558 454.426 882.491 453.58 856.754 C 397.187 841.617 349.31 814.729 319.497 763.027 C 286.639 706.045 288.975 629.488 305.903 567.716 C 313.153 541.26 324.157 516.781 333.308 491.024 C 294.998 465.417 256.157 427.978 247.078 380.812 C 243.335 361.36 245.364 341.343 256.717 324.705 C 262.353 316.445 271.959 306.177 282.059 304.247 C 286.834 303.335 291.32 305.161 295.09 308.084 C 297.444 309.91 299.291 312.64 299.501 315.678 C 299.848 320.698 296.384 325.626 292.932 328.907 C 288.409 333.205 281.043 337.372 274.59 337.009 C 272.573 336.896 270.59 336.471 268.601 336.147 C 268.154 336.074 267.704 336.015 267.255 335.949 C 258.415 356.512 258.658 375.735 266.963 396.473 C 280.122 429.33 309.979 457.957 339.178 477.188 z"/>
<path transform="translate(0,0)" fill="rgb(225,223,120)" d="M 467 932.073 C 535.034 929.561 603.789 928.568 671.781 932.588 C 675.389 939.219 678.798 946.16 683.402 952.16 C 698.972 948.988 708.636 941.872 721.099 938.682 C 726.932 941.818 734.5 940.787 740.992 941.509 C 756.738 943.26 779.911 945.931 793.324 954.348 C 796.154 956.123 797.306 957.535 798.063 960.762 C 797.034 962.949 795.975 964.093 793.843 965.285 C 742.722 993.882 498.421 988.938 430.297 982.767 C 402.055 980.209 374.428 976.025 347.15 968.175 C 342.106 966.723 335.459 965.278 332.748 960.371 C 333.005 957.568 333.442 956.34 335.532 954.35 C 344.109 946.182 393.897 937.205 406.643 938.251 C 406.944 938.275 407.243 938.313 407.543 938.345 C 407.487 938.621 407.412 938.894 407.374 939.174 C 406.81 943.369 407.564 948.094 410.363 951.387 C 414.364 956.095 421.547 957.954 427.457 958.368 C 435.541 958.934 460.1 958.403 465.273 951.96 C 468.316 948.171 467.02 936.816 467 932.073 z"/>
<path transform="translate(0,0)" fill="rgb(248,247,226)" d="M 629.382 856.761 C 637.236 871.163 644.543 885.846 652.636 900.119 C 658.821 911.029 665.855 921.56 671.781 932.588 C 603.789 928.568 535.034 929.561 467 932.073 L 466.94 861.153 C 516.993 873.885 579.588 870.619 629.382 856.761 z"/>
<path transform="translate(0,0)" fill="rgb(62,147,52)" d="M 534.783 173.176 C 565.5 165.105 598.204 172.306 625.189 188.206 C 686.685 224.442 727.092 311.909 755.825 375.127 C 774.931 417.164 793.249 460.518 804.611 505.4 C 813.229 539.44 820.698 574.802 820 610.071 C 814.791 602.822 798.891 580.078 790.909 577.727 C 789.815 577.405 789.065 577.517 787.995 577.572 C 785.952 579.166 785.768 579.299 785.009 581.76 C 787.764 594.889 809.034 616.202 818.773 626.622 C 807.989 694.326 776.333 757.372 720.049 798.26 C 678.863 828.18 631.953 843.663 581.948 850.641 C 572.858 851.91 561.371 854.44 552.344 853.059 C 551.607 852.946 550.877 852.787 550.151 852.619 C 506.126 859.143 439.923 841.117 401.067 820.918 C 362.213 800.719 330.71 767.21 317.642 724.981 C 292.839 644.828 317.944 554.482 351.672 480.856 C 369.609 441.701 391.535 404.398 410.089 365.533 C 423.057 338.811 435.572 311.872 447.628 284.728 C 456.647 264.117 464.578 242.625 475.188 222.78 C 489.601 195.822 505.605 182.116 534.783 173.176 z"/>
<path transform="translate(0,0)" fill="rgb(40,101,48)" d="M 534.783 173.176 C 565.5 165.105 598.204 172.306 625.189 188.206 C 686.685 224.442 727.092 311.909 755.825 375.127 C 774.931 417.164 793.249 460.518 804.611 505.4 C 813.229 539.44 820.698 574.802 820 610.071 C 814.791 602.822 798.891 580.078 790.909 577.727 C 789.815 577.405 789.065 577.517 787.995 577.572 C 785.952 579.166 785.768 579.299 785.009 581.76 C 787.764 594.889 809.034 616.202 818.773 626.622 C 807.989 694.326 776.333 757.372 720.049 798.26 C 678.863 828.18 631.953 843.663 581.948 850.641 C 572.858 851.91 561.371 854.44 552.344 853.059 C 551.607 852.946 550.877 852.787 550.151 852.619 C 572.034 847.792 593.862 844.046 615.275 837.198 C 668.795 820.082 716.155 782.265 741.872 732.003 C 785.88 645.993 779.626 545.624 750.543 456.204 C 746.399 443.465 740.956 431.1 735.935 418.682 C 724.229 389.729 711.721 361.372 698.695 332.993 C 682.628 297.988 667.796 261.087 645.573 229.45 C 633.472 212.223 620.155 198.38 602.075 187.465 C 595.271 183.358 587.741 179.811 579.943 178.112 C 569.651 175.868 542.777 177.785 536.501 174.217 C 535.919 173.886 535.356 173.523 534.783 173.176 z"/>
<path transform="translate(0,0)" fill="rgb(225,223,120)" d="M 531.681 189.36 C 560.372 187.632 587.287 192.429 610.124 210.953 C 652.038 244.952 724.493 424.066 741.646 481.348 C 749.762 509.106 755.436 537.521 758.605 566.268 C 765.071 629.468 742.076 714.897 701.776 763.717 C 663.128 810.534 607.481 832.974 548.23 838.57 C 492.52 841.165 434.713 830.33 388.744 797.207 C 352.586 771.154 328.652 734.819 321.598 690.588 C 309.378 613.958 336.996 535.812 370.174 467.765 C 389.983 427.137 412.809 388.088 431.482 346.869 C 449 308.2 470.024 242.695 493.706 210.648 C 503.181 197.826 516.312 191.703 531.681 189.36 z"/>
<path transform="translate(0,0)" fill="rgb(214,210,93)" d="M 548.51 515.5 C 550.128 514.981 551.469 514.646 553.187 514.615 C 568.938 514.336 586.415 525.016 597.185 535.956 C 619.684 558.81 631 595.71 630.545 627.26 C 629.707 663.811 614.499 698.559 588.216 723.973 C 565.002 746.576 537.136 759.894 504.5 759.49 C 486.241 760.064 472.794 752.523 457.959 742.974 C 455.262 741.238 453.004 739.579 450.734 737.285 C 432.05 718.398 422.035 690.199 422.505 663.832 C 423.238 622.725 440.669 580.325 470.481 551.742 C 489.642 533.371 521.118 514.876 548.51 515.5 z"/>
<path transform="translate(0,0)" fill="rgb(47,15,18)" d="M 502.002 435.814 C 504.315 433.935 505.425 433.784 508.411 433.989 C 516.156 434.52 523.669 436.849 531.306 437.989 C 541.131 439.455 552.604 439.201 562.466 438.569 C 566.252 438.326 589.583 434.933 590.747 436.326 C 594.098 440.339 592.924 452.136 592.045 457.141 C 589.798 469.932 583.066 480.824 572.268 488.121 C 561.961 495.086 549.184 498.757 536.826 496.29 C 527.225 494.373 515.843 487.759 510.652 479.167 C 510.476 478.876 510.337 478.563 510.18 478.261 C 501.182 467.409 501.991 449.178 502.002 435.814 z"/>
<path transform="translate(0,0)" fill="rgb(216,68,62)" d="M 557.562 460.738 C 564.083 462.796 573.415 466.382 576.868 472.708 C 577.792 474.401 577.582 475.061 577.59 476.917 L 575.824 479.296 C 566.271 487.25 555.871 492.549 543.071 491.287 C 535.25 490.515 527.886 487.541 521.181 483.567 C 519.649 482.873 518.103 481.608 516.681 480.678 C 517.804 477.969 519.351 475.457 521.265 473.235 C 530.391 462.685 544.557 461.244 557.562 460.738 z"/>
<path transform="translate(0,0)" fill="rgb(90,14,19)" d="M 557.562 460.738 C 564.083 462.796 573.415 466.382 576.868 472.708 C 577.792 474.401 577.582 475.061 577.59 476.917 L 575.824 479.296 C 567.935 472.257 559.875 467.013 548.799 467.785 C 537.648 468.561 528.229 475.294 521.181 483.567 C 519.649 482.873 518.103 481.608 516.681 480.678 C 517.804 477.969 519.351 475.457 521.265 473.235 C 530.391 462.685 544.557 461.244 557.562 460.738 z"/>
<path transform="translate(0,0)" fill="rgb(4,2,4)" d="M 502.002 435.814 C 504.315 433.935 505.425 433.784 508.411 433.989 C 516.156 434.52 523.669 436.849 531.306 437.989 C 541.131 439.455 552.604 439.201 562.466 438.569 C 566.252 438.326 589.583 434.933 590.747 436.326 C 594.098 440.339 592.924 452.136 592.045 457.141 C 589.798 469.932 583.066 480.824 572.268 488.121 C 561.961 495.086 549.184 498.757 536.826 496.29 C 527.225 494.373 515.843 487.759 510.652 479.167 C 510.476 478.876 510.337 478.563 510.18 478.261 C 513.148 477.723 513.952 478.492 516.347 480.341 C 516.472 480.437 516.57 480.565 516.681 480.678 C 518.103 481.608 519.649 482.873 521.181 483.567 C 527.886 487.541 535.25 490.515 543.071 491.287 C 555.871 492.549 566.271 487.25 575.824 479.296 L 577.59 476.917 C 577.582 475.061 577.792 474.401 576.868 472.708 C 573.415 466.382 564.083 462.796 557.562 460.738 C 555.47 460.239 553.424 459.768 551.292 459.471 L 549.569 459.238 C 551.542 459.144 554.949 459.568 556.374 458.256 C 553.552 458.085 550.799 458.157 547.98 458.264 L 547.869 457.351 C 549.198 456.454 549.646 455.852 551.307 455.776 C 562.28 455.274 575.211 464.32 583.006 471.108 C 588.624 460.8 588.057 450.852 587.998 439.464 C 586.717 439.766 585.431 440.051 584.141 440.318 C 567.502 443.759 516.015 445.066 502.002 435.814 z"/>
<path transform="translate(0,0)" fill="rgb(47,15,18)" d="M 606.106 371.601 C 608.228 368.87 610.458 366.666 613.308 364.68 C 621.142 359.22 629.54 357.855 638.836 359.349 C 648.845 361.693 657.609 367.129 662.979 376.111 C 668.254 384.935 669.564 396.203 666.802 406.068 C 664.027 416.219 657.132 424.746 647.788 429.586 C 640.033 433.548 630.771 434.679 622.421 431.989 C 615.895 429.886 609.38 425.655 605.212 420.182 C 600.057 412.824 597.151 405.385 597.058 396.315 C 596.966 387.387 599.888 378.144 606.106 371.601 z"/>
<path transform="translate(0,0)" fill="rgb(49,15,21)" d="M 609.879 419.337 C 611.135 418.569 655.207 408.437 657.338 408.519 C 657.81 411.194 656.36 414.622 655.611 417.267 C 649.718 424.115 643.695 428.214 634.496 429.082 C 627.655 429.728 619.153 428.095 613.824 423.518 C 612.359 422.26 611.094 420.835 609.879 419.337 z"/>
<path transform="translate(0,0)" fill="rgb(4,2,4)" d="M 638.836 359.349 C 648.845 361.693 657.609 367.129 662.979 376.111 C 668.254 384.935 669.564 396.203 666.802 406.068 C 664.027 416.219 657.132 424.746 647.788 429.586 C 640.033 433.548 630.771 434.679 622.421 431.989 C 615.895 429.886 609.38 425.655 605.212 420.182 C 607.014 419.457 607.976 419.406 609.879 419.337 C 611.094 420.835 612.359 422.26 613.824 423.518 C 619.153 428.095 627.655 429.728 634.496 429.082 C 643.695 428.214 649.718 424.115 655.611 417.267 C 655.725 417.136 655.844 417.009 655.951 416.872 C 663.883 406.813 665.286 398.193 663.821 385.837 C 656.934 375.758 651.125 365.778 638.299 363.015 L 637.461 360.689 L 638.836 359.349 z"/>
<path transform="translate(0,0)" fill="rgb(49,15,21)" d="M 606.106 371.601 C 608.228 368.87 610.458 366.666 613.308 364.68 C 621.142 359.22 629.54 357.855 638.836 359.349 L 637.461 360.689 L 638.299 363.015 C 626.171 363.394 618.741 362.187 609.5 370.967 L 606.106 371.601 z"/>
<path transform="translate(0,0)" fill="rgb(248,247,226)" d="M 618.205 371.921 C 618.689 371.942 619.173 371.94 619.655 371.986 C 622.487 372.254 624.267 372.939 626.056 375.214 C 627.369 376.884 627.759 378.971 627.377 381.069 C 626.454 386.143 623.438 388.445 619.308 391.09 C 616.429 390.376 613.9 389.514 611.947 387.13 C 610.111 384.89 609.746 382.823 610.327 380.035 C 611.215 375.779 614.754 373.877 618.205 371.921 z"/>
<path transform="translate(0,0)" fill="rgb(47,15,18)" d="M 456.549 361.4 C 462.452 357.485 467.771 356.164 474.767 355.559 C 484.867 356.527 493.692 359.355 500.493 367.385 C 507.823 376.041 511.091 389.181 509.812 400.332 C 508.793 409.218 504.769 417.313 497.556 422.757 C 489.901 428.533 479.886 430.708 470.469 429.147 C 460.836 427.508 452.291 422.002 446.818 413.906 C 440.895 405.113 439.723 394.189 442.121 383.999 C 442.912 380.638 444.023 377.232 445.568 374.142 C 448.224 368.678 451.687 364.998 456.549 361.4 z"/>
<path transform="translate(0,0)" fill="rgb(4,2,4)" d="M 474.767 355.559 C 484.867 356.527 493.692 359.355 500.493 367.385 C 507.823 376.041 511.091 389.181 509.812 400.332 C 508.793 409.218 504.769 417.313 497.556 422.757 C 489.901 428.533 479.886 430.708 470.469 429.147 C 460.836 427.508 452.291 422.002 446.818 413.906 C 440.895 405.113 439.723 394.189 442.121 383.999 C 442.912 380.638 444.023 377.232 445.568 374.142 C 447.367 377.451 444.23 391.486 447.036 400.394 C 448.587 405.315 451.924 408.879 454.283 413.302 C 456.181 413.224 458.081 413.098 459.979 413.046 C 472.068 412.714 492.776 404.218 503.006 408.186 C 503.823 406.421 504.339 404.682 504.744 402.786 C 506.957 392.183 504.637 381.138 498.344 372.322 C 493.445 365.368 487.269 361.197 478.921 359.713 L 474.767 355.559 z"/>
<path transform="translate(0,0)" fill="rgb(49,15,21)" d="M 454.283 413.302 C 456.181 413.224 458.081 413.098 459.979 413.046 C 472.068 412.714 492.776 404.218 503.006 408.186 C 499.167 416.09 494.61 420.585 486.223 423.631 C 478.755 426.344 469.724 426.615 462.568 422.825 C 458.382 420.609 456.445 417.354 454.283 413.302 z"/>
<path transform="translate(0,0)" fill="rgb(24,1,9)" d="M 456.549 361.4 C 462.452 357.485 467.771 356.164 474.767 355.559 L 478.921 359.713 C 471.749 360.35 463.694 361.929 456.549 361.4 z"/>
<path transform="translate(0,0)" fill="rgb(248,247,226)" d="M 464.281 369.659 C 468.838 368.492 473.515 371.077 474.951 375.557 C 476.386 380.037 474.083 384.859 469.696 386.558 C 466.617 387.75 463.132 387.137 460.644 384.967 C 458.157 382.797 457.077 379.427 457.84 376.215 C 458.603 373.003 461.083 370.479 464.281 369.659 z"/>
<path transform="translate(0,0)" fill="rgb(216,68,62)" d="M 433.527 439.282 C 441.525 439.058 452.238 441.608 459.399 445.166 C 463.184 447.047 468.265 450.449 469.349 454.866 C 469.966 457.382 469.776 459.547 468.241 461.712 C 464.059 467.615 455.127 468.891 448.479 469.809 C 438.933 470.001 429.236 469.954 420.456 465.62 C 416.24 463.539 411.269 459.833 410.307 454.912 C 409.777 452.198 410.732 450.049 412.413 447.981 C 416.928 442.428 426.774 440.247 433.527 439.282 z"/>
<path transform="translate(0,0)" fill="rgb(216,68,62)" d="M 648.719 444.425 C 656.171 444.652 663.739 444.579 670.798 447.31 C 675.344 449.069 680.567 452.401 682.04 457.354 C 682.757 459.766 682.349 462.081 680.896 464.126 C 676.634 470.126 667.89 470.931 661.21 471.877 C 650.94 472.147 640.07 471.848 631.249 465.857 C 627.457 463.282 625.237 460.573 624.46 456.045 C 624.878 454.077 625.177 452.853 626.521 451.277 C 631.333 445.637 641.852 444.982 648.719 444.425 z"/>
<path transform="translate(0,0)" fill="rgb(215,50,50)" d="M 865.382 1258.18 C 866.931 1258.09 868.476 1258 870.029 1258.07 C 880.483 1258.53 886.796 1266.17 893.458 1273.23 C 894.813 1271.57 896.196 1269.93 897.608 1268.32 C 902.75 1262.47 909.745 1258.14 917.725 1257.81 C 921.981 1257.63 926.309 1258.86 929.427 1261.87 C 933.329 1265.62 934.952 1271.19 934.81 1276.49 C 934.413 1291.26 922.032 1303.02 912.106 1312.52 C 903.894 1319.65 896.581 1326.09 890.621 1335.24 C 877.37 1318.69 857.753 1306.02 850.845 1285.01 C 849.045 1279.54 848.054 1273.04 851.041 1267.79 C 854.204 1262.24 859.53 1259.9 865.382 1258.18 z"/>
<path transform="translate(0,0)" fill="rgb(216,68,62)" d="M 374.668 114.885 C 378.157 118.805 381.22 135.54 382.707 141.119 C 385.883 153.029 395.421 178.134 388.6 189.053 C 384.785 195.159 377.885 198.788 370.991 200.225 C 365.257 201.42 357.198 201.708 352.313 197.859 C 349.727 195.821 348.449 192.777 348.107 189.583 C 347.75 186.251 348.931 183.152 350.999 180.594 C 357.611 172.417 367.891 171.887 377.587 170.855 C 374.445 158.737 372.349 146.314 368.312 134.445 C 350.702 142.095 333.467 152.409 316.344 161.234 L 319.465 174.537 C 322.552 185.315 333.108 212.343 327.805 222.42 C 324.705 228.31 315.87 233.937 309.531 235.536 C 304.529 236.798 299.013 236.312 294.664 233.383 C 291.582 231.306 289.442 228.097 288.974 224.388 C 288.507 220.677 289.768 216.854 292.156 214.006 C 298.206 206.79 306.902 206.324 315.576 205.847 C 311.309 188.764 306.276 171.96 301.421 155.042 C 324.691 140.06 351.323 130.05 374.668 114.885 z"/>
<path transform="translate(0,0)" fill="rgb(215,50,50)" d="M 1187.02 1161.22 C 1208.21 1148.73 1236.78 1134.51 1259.67 1125.14 C 1266.76 1141.8 1297.8 1190.75 1291.46 1206.57 C 1290.19 1209.75 1287.87 1211.97 1284.73 1213.28 C 1280.42 1215.09 1275.26 1214.9 1271.01 1213 C 1267.4 1211.38 1264.26 1208.36 1262.82 1204.64 C 1261.73 1201.82 1261.92 1199.21 1263.22 1196.51 C 1265.59 1191.58 1270.66 1189.11 1275.49 1187.28 C 1268.15 1173.08 1262.48 1157.38 1253.74 1144.01 C 1236.95 1150.92 1221.31 1160.46 1204.79 1167.96 C 1211.46 1187.4 1222.78 1204.52 1229.65 1223.73 C 1229.26 1225.89 1228.64 1227.53 1227.52 1229.4 C 1224.7 1234.14 1220.89 1237.63 1215.38 1238.79 C 1211.08 1239.69 1206.27 1239 1202.7 1236.33 C 1200.09 1234.38 1198.78 1231.85 1198.37 1228.62 C 1197.96 1225.31 1199.44 1220.77 1201.65 1218.28 C 1203.73 1215.94 1205.47 1215.04 1208.62 1214.73 L 1210.54 1212.83 C 1209.34 1204.58 1191.66 1172.37 1187.02 1161.22 z"/>
<path transform="translate(0,0)" fill="rgb(216,68,62)" d="M 1229.65 1223.73 C 1229.26 1225.89 1228.64 1227.53 1227.52 1229.4 C 1224.7 1234.14 1220.89 1237.63 1215.38 1238.79 C 1211.08 1239.69 1206.27 1239 1202.7 1236.33 C 1200.09 1234.38 1198.78 1231.85 1198.37 1228.62 C 1197.96 1225.31 1199.44 1220.77 1201.65 1218.28 C 1203.73 1215.94 1205.47 1215.04 1208.62 1214.73 C 1217.1 1216.22 1220.28 1223.66 1229.65 1223.73 z"/>
<path transform="translate(0,0)" fill="rgb(216,68,62)" d="M 1187.23 1304.82 C 1188.94 1304.8 1190.79 1304.74 1192.47 1305.09 C 1195.8 1305.77 1198.92 1309.2 1200.62 1311.95 C 1210.29 1327.58 1202.18 1354.75 1198.5 1371.26 C 1185.56 1370.82 1174.14 1368.08 1161.76 1364.36 C 1154.17 1361.5 1146.39 1357.8 1141.81 1350.78 C 1139.28 1346.91 1138.05 1342.2 1139.25 1337.65 C 1140.2 1334.01 1142.61 1331.07 1145.86 1329.22 C 1153.87 1324.68 1162.99 1327.72 1171.17 1330.01 C 1171.8 1326.58 1172.42 1323.11 1173.49 1319.78 C 1175.96 1312.11 1180.28 1308.48 1187.23 1304.82 z"/>
<path transform="translate(0,0)" fill="rgb(216,68,62)" d="M 1847.23 1282.94 C 1851.98 1282.72 1854.86 1282.7 1858.63 1286.02 C 1864.19 1290.93 1865.39 1298.89 1866 1305.88 C 1873.75 1302.16 1881.51 1298.22 1890.39 1299.81 C 1894.31 1300.51 1898.18 1302.47 1900.43 1305.86 C 1902.22 1308.57 1902.62 1311.83 1901.82 1314.95 C 1899.65 1323.37 1891.82 1327.93 1884.81 1331.92 C 1875.58 1337.04 1857.44 1347.19 1846.58 1345.9 C 1844.26 1345.63 1842.92 1344.54 1841.67 1342.65 C 1835.25 1332.89 1834.22 1308.4 1836.7 1297.25 C 1838.35 1289.85 1840.9 1286.91 1847.23 1282.94 z"/>
<path transform="translate(0,0)" fill="rgb(62,147,52)" d="M 779.501 148.544 C 790.145 146.948 800.798 148.21 811.295 146.856 C 818.167 145.969 827.205 138.513 833.354 142.698 C 835.013 145.825 835.8 148.341 834.808 151.962 C 833.779 155.721 830.949 158.428 827.536 160.107 C 818.341 164.632 806.483 164.157 796.456 163.898 C 799.38 178.142 811.216 209.47 803.45 222.143 C 799.919 227.904 793.316 231.332 786.855 232.639 C 780.876 233.849 773.989 233.25 768.884 229.663 C 765.146 227.036 763.179 223.397 762.438 218.934 C 762.377 218.57 762.348 218.201 762.303 217.834 C 762.047 216.557 762.595 214.951 762.837 213.67 C 763.382 209.247 765.047 205.369 768.546 202.443 C 772.85 198.844 779.531 197.662 784.976 198.319 C 786.923 198.554 788.853 198.955 790.771 199.356 C 787.585 182.32 782.17 165.604 779.501 148.544 z"/>
<path transform="translate(0,0)" fill="rgb(76,153,56)" d="M 762.837 213.67 C 763.162 213.524 763.508 213.418 763.812 213.231 C 766.423 211.628 767.489 208.422 769.447 206.162 C 772.911 202.163 782.082 201.129 787.051 201.886 C 789.158 202.208 792.036 203.263 793.088 205.249 C 794.212 207.368 794.117 209.341 794.322 211.659 C 794.522 213.914 794.354 212.497 795.047 215.004 C 795.874 217.99 794.784 220.387 793.281 222.93 C 791.741 225.538 789.68 227.49 787.458 229.506 C 782.746 229.596 773.374 230.91 769.99 227.085 C 767.741 224.545 766.22 220.36 764.727 217.289 C 762.889 217.218 763.681 216.975 762.303 217.834 C 762.047 216.557 762.595 214.951 762.837 213.67 z"/>
<path transform="translate(0,0)" fill="rgb(216,68,62)" d="M 327.771 1122.08 C 328.65 1122 329.53 1121.93 330.41 1121.86 C 340.607 1121.18 345.676 1125.93 352.934 1132.25 C 357.762 1128.38 362.971 1123.51 369.407 1122.94 C 372.545 1122.66 375.524 1123.3 377.838 1125.61 C 380.038 1127.8 380.841 1131.21 380.757 1134.24 C 380.513 1143.04 374.683 1149.01 368.836 1154.79 C 362.936 1160.17 357.436 1166.04 351.837 1171.74 C 345.968 1167.1 340.068 1162.32 334.882 1156.92 C 328.699 1150.49 320.948 1141.06 321.59 1131.64 C 321.9 1127.1 324.541 1124.85 327.771 1122.08 z"/>
<path transform="translate(0,0)" fill="rgb(215,50,50)" d="M 897.57 283.355 C 901.006 275.138 912.407 236.04 916.756 232.554 C 919.092 231.792 921.025 231.234 923.373 232.427 C 924.426 232.962 925.698 233.934 925.964 235.152 C 927.015 239.965 906.912 297.521 901.974 304.352 C 899.553 307.703 895.429 309.276 891.449 309.882 C 886.345 310.658 881.285 310.1 876.522 308.163 C 872.478 307.319 869.439 305.14 866.825 302.041 C 864.758 299.152 863.207 296.423 862.914 292.797 C 862.604 288.954 863.792 285.407 866.462 282.609 C 870.093 278.805 875.85 277.094 881.003 277.174 C 886.772 277.264 893.395 279.296 897.57 283.355 z"/>
<path transform="translate(0,0)" fill="rgb(216,68,62)" d="M 880.847 278.087 C 888.218 282.328 893.348 285.52 897.806 292.988 C 897.06 296.841 896.178 302.113 892.827 304.709 C 889.762 307.083 884.582 307.146 880.906 307.174 C 879.215 307.187 878.014 307.385 876.522 308.163 C 872.478 307.319 869.439 305.14 866.825 302.041 C 865.96 293.412 864.704 290.348 869.313 282.402 C 873.092 280.807 876.992 279.486 880.847 278.087 z"/>
<path transform="translate(0,0)" fill="rgb(215,50,50)" d="M 803.134 1110.65 C 807.534 1111.24 810.397 1112.25 813.747 1115.28 C 815.642 1116.99 817.41 1118.4 819.529 1119.82 C 824.257 1117.11 829.564 1114.16 834.995 1113.29 C 838.195 1112.77 840.002 1113.32 842.603 1115.14 C 843.518 1117.06 843.89 1118.48 843.808 1120.58 C 843.5 1128.4 839.768 1132.74 834.293 1137.86 C 828.837 1142.36 823.995 1147.66 819.055 1152.71 C 811.541 1144.63 796.822 1131.83 797.305 1120.15 C 797.486 1115.78 800.164 1113.42 803.134 1110.65 z"/>
<path transform="translate(0,0)" fill="rgb(216,68,62)" d="M 1871.52 1493.05 C 1875.07 1492.42 1878.37 1491.69 1881.79 1490.55 L 1884.29 1491.24 L 1885.59 1496.36 C 1884.15 1499.68 1882.33 1503.06 1880.31 1506.06 C 1875.61 1513.07 1869.28 1520.32 1860.48 1521.7 C 1855.48 1522.5 1850.38 1521.14 1846.44 1517.96 C 1843.14 1515.26 1841.01 1511.61 1840.84 1507.31 C 1840.74 1504.47 1842.05 1501.6 1844 1499.6 C 1849.63 1493.82 1863.77 1492.89 1871.52 1493.05 z"/>
<path transform="translate(0,0)" fill="rgb(216,68,62)" d="M 1895.23 1454.66 C 1897.49 1454.33 1897.82 1454.44 1899.76 1455.88 C 1911.59 1464.67 1922.34 1482.17 1923.8 1496.7 C 1924.37 1502.4 1924.08 1509.52 1920.02 1514.03 C 1917.88 1516.4 1915.24 1517.59 1912.18 1518.35 L 1910.63 1517.7 C 1910.82 1515.82 1911.25 1514.4 1911.86 1512.64 C 1914.55 1504.9 1911.59 1496.53 1908.04 1489.54 C 1904.87 1483.29 1900.93 1477.54 1896.93 1471.81 L 1897.96 1471.48 C 1896.72 1465.84 1895.59 1460.44 1895.23 1454.66 z"/>
<path transform="translate(0,0)" fill="rgb(215,50,50)" d="M 1895.23 1454.66 C 1895.59 1460.44 1896.72 1465.84 1897.96 1471.48 L 1896.93 1471.81 C 1891.74 1478.9 1888.84 1488.22 1885.59 1496.36 L 1884.29 1491.24 L 1881.79 1490.55 C 1878.37 1491.69 1875.07 1492.42 1871.52 1493.05 C 1882.8 1482.4 1889.09 1468.67 1895.23 1454.66 z"/>
</svg>