<svg xmlns="http://www.w3.org/2000/svg" display="block" viewBox="0 0 2048 2048"><defs><linearGradient id="a" x1="547.944" x2="338.381" y1="583.732" y2="494.555" gradientUnits="userSpaceOnUse"><stop class="stop0" offset="0" stop-color="#00012c"/><stop class="stop1" offset="1" stop-color="#26284d"/></linearGradient><linearGradient id="b" x1="492.638" x2="493.264" y1="1366.97" y2="1309.09" gradientUnits="userSpaceOnUse"><stop class="stop0" offset="0"/><stop class="stop1" offset="1" stop-color="#030015"/></linearGradient><linearGradient id="c" x1="724.905" x2="727.627" y1="1453.96" y2="1432.92" gradientUnits="userSpaceOnUse"><stop class="stop0" offset="0" stop-color="#010000"/><stop class="stop1" offset="1" stop-color="#0b071e"/></linearGradient><linearGradient id="d" x1="442.902" x2="411.785" y1="1655.5" y2="1733.77" gradientUnits="userSpaceOnUse"><stop class="stop0" offset="0" stop-color="#010111"/><stop class="stop1" offset="1" stop-color="#050326"/></linearGradient><linearGradient id="e" x1="683.17" x2="682.616" y1="1684.61" y2="1664.7" gradientUnits="userSpaceOnUse"><stop class="stop0" offset="0" stop-color="#00020a"/><stop class="stop1" offset="1" stop-color="#10092e"/></linearGradient><linearGradient id="f" x1="402.746" x2="408.523" y1="1514.25" y2="1543.09" gradientUnits="userSpaceOnUse"><stop class="stop0" offset="0" stop-color="#010013"/><stop class="stop1" offset="1" stop-color="#06052f"/></linearGradient><linearGradient id="g" x1="380.556" x2="405.721" y1="1563.27" y2="1536.59" gradientUnits="userSpaceOnUse"><stop class="stop0" offset="0" stop-color="#010000"/><stop class="stop1" offset="1" stop-color="#050526"/></linearGradient><linearGradient id="h" x1="582.793" x2="595.373" y1="1673.73" y2="1617.53" gradientUnits="userSpaceOnUse"><stop class="stop0" offset="0" stop-color="#03020c"/><stop class="stop1" offset="1" stop-color="#03021e"/></linearGradient><linearGradient id="i" x1="1440.22" x2="1170.5" y1="961.938" y2="892.504" gradientUnits="userSpaceOnUse"><stop class="stop0" offset="0" stop-color="#020015"/><stop class="stop1" offset="1" stop-color="#05033a"/></linearGradient><linearGradient id="j" x1="1278.99" x2="1352.6" y1="744.387" y2="789.434" gradientUnits="userSpaceOnUse"><stop class="stop0" offset="0" stop-color="#02001b"/><stop class="stop1" offset="1" stop-color="#090231"/></linearGradient><linearGradient id="k" x1="1290.75" x2="1303.52" y1="773.696" y2="808.573" gradientUnits="userSpaceOnUse"><stop class="stop0" offset="0" stop-color="#eaebff"/><stop class="stop1" offset="1" stop-color="#fff"/></linearGradient><linearGradient id="l" x1="1570.72" x2="1526.63" y1="1376.78" y2="1440.71" gradientUnits="userSpaceOnUse"><stop class="stop0" offset="0" stop-color="#01000b"/><stop class="stop1" offset="1" stop-color="#030227"/></linearGradient><linearGradient id="m" x1="1465.58" x2="1474.43" y1="1363.38" y2="1362.62" gradientUnits="userSpaceOnUse"><stop class="stop0" offset="0" stop-color="#010000"/><stop class="stop1" offset="1" stop-color="#010018"/></linearGradient><linearGradient id="n" x1="1617.56" x2="1480.54" y1="1196.93" y2="976.626" gradientUnits="userSpaceOnUse"><stop class="stop0" offset="0"/><stop class="stop1" offset="1" stop-color="#020123"/></linearGradient><linearGradient id="o" x1="1623.47" x2="1474.26" y1="942.886" y2="1010.52" gradientUnits="userSpaceOnUse"><stop class="stop0" offset="0" stop-color="#00000b"/><stop class="stop1" offset="1" stop-color="#03011e"/></linearGradient><linearGradient id="p" x1="1063.73" x2="1017.38" y1="876.517" y2="942.479" gradientUnits="userSpaceOnUse"><stop class="stop0" offset="0" stop-color="#01000b"/><stop class="stop1" offset="1" stop-color="#05053c"/></linearGradient><linearGradient id="q" x1="930.58" x2="1156.55" y1="951.183" y2="1085.92" gradientUnits="userSpaceOnUse"><stop class="stop0" offset="0" stop-color="#010008"/><stop class="stop1" offset="1" stop-color="#030123"/></linearGradient><linearGradient id="r" x1="1054.32" x2="1026.27" y1="1052.81" y2="1197.3" gradientUnits="userSpaceOnUse"><stop class="stop0" offset="0" stop-color="#010016"/><stop class="stop1" offset="1" stop-color="#07052a"/></linearGradient></defs><path fill="#fefefe" d="M0 0h2048v2048H0z"/><path fill="#020112" d="m383.388 1125.67 3.439 1.88c.305.11.613.21.914.33 1.443.57.927.34 2.233 1.56 1.86-.04 3.38-.12 5.164-.67l1.518.61c-1.883 1.42-4.023 3.11-6.328 3.75-4.88 1.35-9.322-1.29-13.464-3.53z"/><path fill="#080528" d="M1226.65 1639.33c2.98-.5 6.36-.46 9.39-.57 20.8-.74 45.95 5.55 61.31 20.33 4.44 4.27 8.28 9.66 9.85 15.69 3.51 13.48 1.35 31.39 1.37 45.42.06 31.37-.37 62.83.47 94.18 18.1 12.64 38.71 22.73 57.73 34.01 6.38 3.78 14.75 7.83 19.89 13.11 1.84 1.9 2 2.86 1.93 5.42-3.8 6.3-123.46 75.97-140.07 85.96-3.22 1.85-6.64 3.43-9.96 5.09-14.71-7.09-142.93-83.33-147.02-88.01-2.18-2.51-2.04-4.61-1.7-7.74 5.43-7.48 65-40.25 76.94-47.03l.33-87.93c0-14.76-1.32-30.86.41-45.48.73-6.08 2.22-12.28 6.02-17.21 11.63-15.09 35.01-22.63 53.11-25.24"/><path fill="#07072c" d="M1329.09 1844.98c1.25-2.16 1.36-4.28 1.74-6.72l1.22.24.15 1.24.1-1.11c7.26 6.04 40.21 22.89 42.24 27.25-5.63 5.8-22.58 12.91-30.55 17.68-32.1 19.2-63.54 39.63-96.08 58.06-2.88 1.63-6.35 3.66-9.67 3.92-2.35.19-126.91-72.96-135.84-80.01 4.24-4.54 48.24-30.12 56.19-33.36 1.67-.68 2.81-1.06 4.26-2.17 1.06-.81 1.79-1.27 3.01-1.81l1.07 1.67c-.45 2.16 0 3.97.37 6.11-17.11 9.59-34.8 18.84-51 29.91l85.35 50.33c11.87 6.94 23.85 15.21 36.21 21.09 17.55-8.9 34.34-19.65 51.36-29.53 24.2-14.07 48.98-27.84 72.37-43.18a2071 2071 0 0 1-32.5-19.61"/><path fill="#f5798a" d="M1179.35 1825.56c3.05 2.78 6.07 5.66 9.31 8.22 17.87 14.08 45.37 16.27 67.18 13.33 17.06-2.3 32.21-8.44 42.92-22.41.03 11.13 1.97 24.7-1.4 35.29-3.09 5.6-7.24 9.95-12.53 13.52-18.81 12.73-46.41 14.17-68.04 9.62-15.43-3.25-28.55-10.22-37.39-23.71a1579 1579 0 0 1-.05-33.86"/><path fill="#f5798a" d="M1297.45 1777.88c.13 12.39.54 24.79-.63 37.13-1.54 2.6-3.38 5.15-5.47 7.34-12.53 13.19-31.78 17.85-49.37 18.12-23.52.35-43.33-5.98-60.28-22.53-3.61-6.35-1.7-31.45-1.65-40.18 16.14 15.42 35.66 21.98 57.8 22.22 23.65.26 42.57-5.31 59.6-22.1"/><path fill="#fefefe" d="M1230.11 1653.36c16.76-2.45 40.07 2.43 53.69 12.76 5.37 4.08 10.23 9.78 11.01 16.71.61 5.47-1.56 10.66-5 14.81-10.03 12.08-28.6 16.65-43.59 17.79-10.14.82-21.1-.07-30.93-2.75-15.63-4.25-27.2-12.76-35.22-26.89 1.35-4.13 2.67-8.02 5.36-11.49 10.54-13.6 28.41-18.63 44.68-20.94"/><path fill="#fefefe" d="M1295.61 1700.89c2.45 3.82.73 57.68.65 66.56-1.1 1.52-2.22 3.03-3.46 4.44-11.6 13.21-30 18.65-46.98 19.81-24.9 1.7-45.5-5.3-64.27-21.59-4.45-8.5-.96-55.97-.66-68.08 17.69 15.79 39.19 22.33 62.8 21.5 20.66-.72 37.75-7.45 51.92-22.64m12.48 133.19c6.99 3.59 14.19 6.98 21 10.9a2071 2071 0 0 0 32.5 19.61c-23.39 15.34-48.17 29.11-72.37 43.18-17.02 9.88-33.81 20.63-51.36 29.53-12.36-5.88-24.34-14.15-36.21-21.09l-85.35-50.33c16.2-11.07 33.89-20.32 51-29.91.15.5.3 1 .44 1.5 1.28 4.62 1.04 10.08 1.48 14.87 1.21 13.49 11.16 23.06 22.3 29.62 21.82 12.84 50.81 14.73 74.93 8.19 14.57-3.95 30.19-11.69 37.73-25.38 4.79-8.7 3.8-20.95 3.91-30.69"/><path fill="url(#a)" d="M525.258 365.251c1.44.159 2.851.31 4.265.635 9.572 2.197 14.551 7.155 19.388 15.358 1.695 35.823.145 72.435.108 108.334-.031 29.656 1.669 60.174.021 89.72-.282 5.064-.877 9.694-2.663 14.487-2.907 7.805-8.067 16.223-14.478 21.529-9.071 7.509-20.336 12.965-30.536 18.784l-44.595 25.603-56.696 33.086c-11.854 6.995-23.742 14.928-36.242 20.664-4.23.64-7.68.339-11.519-1.668-4.739-2.478-9.199-6.983-10.467-12.319-3.089-12.992-1.152-30.507-1.15-43.955l.053-84.047-.083-54.717c-.009-9.536-.701-19.87.577-29.301.921-6.801 4.766-14.652 8.548-20.405 2.913-4.432 7.552-7.804 11.962-10.65 21.981-14.185 45.91-26.142 68.632-39.162 19.826-11.36 76.788-47.97 94.875-51.976"/><path fill="#fefefe" d="M530.885 376.822q1.186.053 2.364.203c2.543.322 5.127 1.731 6.434 4.019 1.117 1.955 1.275 4.512 1.364 6.71 1.368 33.639-.015 67.941-.06 101.651-.039 29.533 1.339 59.626.072 89.068-.189 4.41-.764 8.768-2.102 12.99-2.299 7.25-6.829 13.466-12.748 18.194-8.473 6.768-18.89 11.623-28.358 16.841a1668 1668 0 0 0-37.235 21.058 4148 4148 0 0 0-58.95 34.979c-12.276 7.39-24.432 15.346-37.27 21.726-3.493.334-4.626-.28-7.245-2.414-1.605-3.552-1.797-7.257-1.918-11.103-1.211-38.602.473-77.599.506-116.246.016-18.803-2.84-70.316 1.001-85.602 1.486-5.91 5.384-12.803 10.042-16.8 13.184-11.315 47.877-28.38 64.595-37.808 33.356-18.81 66.267-38.441 99.508-57.466"/><path fill="#07072c" d="M458.696 451.207c6.419-.195 12.818 1.306 17.883 5.475 4.597 3.785 6.49 9.44 7.38 15.153 3.278 21.039-9.559 40.601-8.768 46.999 2.961 1.995 6.551.865 9.936.865 4.778-.001 8.89 1.747 12.247 5.13 12.986 13.085 9.474 41.189 9.571 58.478-9.118 7.167-20.897 12.598-31.028 18.309a2566 2566 0 0 0-49.374 28.509c-7.397 4.276-18.485 12.539-26.822 13.464-1.999-1.352-2.877-2.055-3.141-4.597-.54-5.211.186-11.494.172-16.826-.096-36.726 9.001-49.038 32.91-76.527-7.235-5.266-11.838-10.622-14.313-19.408-4.128-14.651.718-31.803 7.862-44.794 8.049-14.636 19.255-25.39 35.485-30.23"/><path fill="#fefefe" d="M459.721 459.137c2.704.072 5.312.467 7.756 1.692 4.243 2.125 7.48 6.254 8.805 10.766 3.545 12.08-.715 28.793-6.365 39.709-6.235 12.047-15.456 21.772-28.598 25.972-2.972.009-6.38.245-9.154-.973-4.591-2.018-8.187-6.256-9.653-11.006-3.813-12.345 1.39-30.356 7.575-41.32 6.697-11.873 16.31-21.07 29.634-24.84"/><path fill="#f5798a" d="M473.722 527.257a119 119 0 0 1 5.364-.274c5.395-.113 10.5 1.536 14.285 5.524 9.293 9.789 5.995 32.777 5.844 45.305-24.694 16.215-50.91 30.337-76.539 45.026-5.74 3.708-11.768 7.011-17.696 10.412-.088-20.779-1.138-37.048 9.496-55.677 5.306-9.296 15.408-24.81 25.494-29.324 4.918-2.2 11.148-3.25 15.486-6.47 5.92-4.396 11.047-12.566 18.266-14.522"/><path fill="#07072c" d="M775.674 80.026c7.956.019 16.653 3.62 22.403 9.096 3.253 3.098 5.75 7.248 6.443 11.721 2.948 19.035.869 52.537.837 73.346l.028 150.024c-39.227 23.888-80.207 45.37-120.678 67.062-20.138 10.794-41.082 24.322-62.539 31.927-4.501.464-8.605.442-12.865-1.311-6.44-2.651-11.923-8.483-14.214-15.073-3.294-9.479-2.401-179.516-1.089-199.355.429-6.498 1.367-15.162 4.428-20.946 3.215-6.077 8.68-11.114 14.236-15.039 9.66-6.823 20.657-12.247 30.923-18.126l67.651-38.064c16.848-9.473 47.525-30.465 64.436-35.262"/><path fill="#fefefe" d="M784.568 92.127c3.228.653 6.736 2.032 9.167 4.334 2.442 2.313 3.211 4.881 3.583 8.127 2.382 20.775.234 50.801.191 72.657l-.028 141.719c-32.834 21.902-72.545 41.632-107.505 60.487-22.125 11.933-45.084 26.556-68.484 35.511-2.721.305-6.726.757-9.247-.406-1.907-.879-3.115-2.618-3.756-4.554-1.132-3.416-1.354-7.429-1.44-11.017-.725-30.241.654-60.872.65-91.162-.004-31.247-1.481-63.193.145-94.321.316-6.064.989-12.194 3.663-17.729 2.381-4.928 5.83-9.296 10.289-12.496 8.087-5.804 17.684-10.233 26.409-15.053l48.662-27.126a3677 3677 0 0 0 49.495-28.723c12.403-7.265 24.66-15.273 38.206-20.248"/><path fill="#07072c" d="M705.322 168.25c7.002-.828 12.924-.74 19.179 2.989 5.609 3.342 8.666 9.033 10.188 15.212 5.256 21.341-3.807 40.895-14.392 58.895 3.585-.424 7.221-.858 10.83-1.001 5.671-.226 11.562 1.239 15.758 5.279 10.35 9.963 6.138 45.222 5.955 58.935-13.456 11.352-56.595 32.318-74.757 42.324-5.675 3.348-20.262 14.088-26.521 12.675-4.898-6.135-3.078-29.179-2.617-37.432 1.367-24.451 20.65-47.681 38.004-63.341-2.351-.654-4.698-1.338-6.932-2.333-7.221-3.219-12.943-8.949-15.626-16.453-4.624-12.931-.496-28.66 5.06-40.706 7.79-16.891 18.224-28.422 35.871-35.043"/><path fill="#fefefe" d="M709.752 176.177c3.849.151 7.794.904 10.947 3.233 4.954 3.658 7.302 9.204 8.007 15.177 1.949 16.52-5.895 34.949-16.164 47.609-6.769 8.346-12.626 12.452-23.304 13.66-2.555-.498-5.16-1.135-7.429-2.454-5.936-3.453-9.954-8.764-11.37-15.49-2.717-12.896 2.598-28.477 9.651-39.35 7.039-10.852 16.773-19.558 29.662-22.385"/><path fill="#f5798a" d="M730.937 252.376c3.013-.034 6.943-.006 9.328 2.045 7.319 6.293 4.488 39.384 4.63 49.887-23.756 16.294-51.27 28.743-76.3 43.132l-10.666 6.366c-1.865-31.204-1.331-45.741 19.111-70.527 13.817-16.752 32.136-28.789 53.897-30.903"/><path fill="#07072c" d="m403.118 1441.02.53-175.51.072-53.64c.021-10.91-.615-22.35.831-33.16.682-5.09 2.859-9.69 6.631-13.22 4.792-4.49 11.156-6.5 17.662-5.9 5.353.48 10.448 2.58 15.17 5.06 16.765 8.79 32.858 19.48 49.386 28.83a14198 14198 0 0 1 168.658 97.51l121.475 70.24c26.953 15.25 54.3 29.86 80.747 45.99 4.303 2.62 13.148 7.83 15.707 12.13 2.215 3.72 2.001 11.2 2.119 15.56.705 25.93 1.435 298.82-2.014 305.23-1.868 3.47-10.455 8.1-13.93 10.2-54.443 32.8-110.425 63.41-165.395 95.36-23.483 13.65-107.068 66.52-127.322 71.45-17.078-4.96-42.733-23.68-58.85-33.41l-82.278-48.86-217.435-125.84c-31.74-18.37-64.021-36.05-95.294-55.17-2.555-1.57-5.486-3.22-6.791-6.08-1.256-2.76-.631-7.11-.477-10.07-.45-9.63.879-19.43-.535-29.01 1.316-1.88 2.453-3.4 4.399-4.68 8.724-5.74 18.452-10.52 27.566-15.68l55.976-31.64c67.793-38.35 136.499-75.85 203.392-115.69"/><path fill="#080528" d="M528.365 1880.67c7.955-.58 15.211 6.64 22.592 5.94 5.48 2.38 11.114 5.64 15.99 9.1-2.192-.09-26.03-7.92-28.954-9.21-3.415-1.51-6.575-3.69-9.628-5.83"/><path fill="#2b2e64" d="M111.785 1608.71c1.273 2.76 1.68 3.82 4.548 5 3.073 1.27 5.463.82 7.146 4.07 2.653 5.12.655 17.59.335 23.52-1.373-4.5-2.189-10.62-5.516-14.06-2.181-.65-2.117-1.01-4.367-.15-.606 3.25.157 8.13-1.611 10.63-.45-9.63.879-19.43-.535-29.01"/><path fill="#020112" d="M507.177 1860.47c14.638 7.55 30.393 16.53 43.78 26.14-7.381.7-14.637-6.52-22.592-5.94-4.339-2.38-8.634-4.65-12.805-7.33l.652-4.21c-1.543-2.48-2.312-2.63-4.761-3.96-2.738-1.49-3.393-1.63-4.274-4.7"/><path fill="#2b2e64" d="m870.58 1424.64-1.103-.84c-23.237-17.6-51.528-30.82-76.765-45.48L616.11 1276.8c-26.635-15.23-52.71-31.51-79.27-46.94-21.093-12.25-42.592-23.65-63.854-35.58-15.368-8.62-30.184-20.21-46.894-25.87l-.286-1.24c1.621-.98 2.134-.73 3.935-.32 12.449 2.82 33.873 18.84 45.835 25.72l138.61 80.38 144.068 83.35c26.146 14.92 53.066 28.63 78.823 44.21 12.13 7.33 27.405 15.22 36.595 26 .949 26.18.349 52.54.332 78.74-.01 15.83.985 32.4-.135 48.17.756 13.67.066 27.74.035 41.45a4762 4762 0 0 1-.481 83.26c-.217 20.49 2.052 41.82-.327 62.16-4.964-20.46-3.356-60.37-3.296-82.27l.406-111.61c-.536-40.56 1.411-81.23.374-121.77"/><path fill="#fefefe" d="m860.319 1712.69 2.027.87c1.359 5.36.674 11.32.54 16.81-14.611 11.16-31.37 19.99-47.273 29.15l-65.969 37.97c-56.739 32.74-112.631 67.28-170.055 98.76l-2.016-.63c-1.423-5.71-.627-12.81-.53-18.71 94.762-54.14 188.017-110.98 283.276-164.22m-729.473-92.33c66.127 35.55 130.446 74.38 195.366 112.05a10186 10186 0 0 1 168.69 99.45c24.647 14.7 49.586 28.71 73.948 43.89.093 6.13.657 12.58-.521 18.6l-1.382 1.36c-4.876-3.46-10.51-6.72-15.99-9.1-13.387-9.61-29.142-18.59-43.78-26.14-13.824-9.95-29.427-18.22-44.076-26.97a3518 3518 0 0 0-91.092-53.09l-152.459-88.55-53.78-31.28c-11.664-6.81-23.712-13.13-34.784-20.88zm289.105-170.99.186-191.87c.02-14.42-1.872-71.49 1.131-80.71l1.802-.62c13.398 3.41 56.403 30.88 71.711 39.43 92.948 51.92 184.312 106.74 277.041 159.1 29.24 16.51 57.644 35.24 87.652 50.28l-5.337 3.55c-3.681.31-6.166-1.29-9.393-2.99-12.5-6.56-24.556-14.21-36.812-21.23-15.158-8.69-30.631-16.92-45.885-25.44l-175.652-98.72c-23.812-13.63-47.547-30.26-72.465-41.67-.446.04-.89.1-1.338.12-8.445.4-37.573-24.84-46.946-24.13.497 2.47 2.609 3.53 4.688 4.86 10.943 7.03 24.239 11.84 34.353 19.94l-1.543.4c10.309 7.76 22.992 13.89 34.228 20.32l67.18 38.2 143.296 81.03c35.006 19.6 70.316 38.52 104.978 58.74l10.08-6.01c2.665 32.3.813 66.02.777 98.46a8414 8414 0 0 1-.956 174.09l-310.199-177.89c-44.251-25.44-87.716-52.99-132.577-77.24"/><path fill="#020112" d="M503.144 1239.67c-18.189-8.69-41.901-21.98-58.949-32.86-3.644-2.33-8.396-5.27-9.366-9.76l1.495-1.36c10.792 1.98 65.005 34.84 77.606 42.79-.446.04-.89.1-1.338.12-8.445.4-37.573-24.84-46.946-24.13.497 2.47 2.609 3.53 4.688 4.86 10.943 7.03 24.239 11.84 34.353 19.94z"/><path fill="#080528" d="M435.114 1216.26c11.931 2.74 73.077 41.6 89.82 51.19l208.513 117.86 80.737 45.3c10.938 6.23 22.576 11.66 32.885 18.89 2.196 44.75.534 91.57.677 136.52l.186 51.52c.025 11.04.841 23.05-1.188 33.91L568.52 1509.78l-91.807-52.36c-14.123-8.14-28.585-15.86-42.26-24.73-.732-13.85-.182-28.03-.236-41.9l-.319-78.62.033-61.69c-.031-9.45-.825-19.14-.305-28.55.108-1.95.77-3.87 1.488-5.67"/><path fill="#fefefe" d="M442.222 1227.58c12.632 10.6 28.917 18.18 43.198 26.35l70.588 40.27 150.734 85.19c44.314 24.68 89.138 48.47 132.565 74.71l.689 202.71c-16.244-6.43-32.512-18.04-47.662-26.99a5311 5311 0 0 1-89.584-53.05c-39.138-23.4-79.801-44.6-119.341-67.4-22.2-12.81-44.587-25.36-66.66-38.37-24.79-14.61-49.212-29.58-74.635-43.11a16761 16761 0 0 1 .108-200.31"/><path fill="#080528" d="M552.62 1343.52c9.303 1.87 107.862 59.16 113.115 65.48 1.947 2.34 1.056 4.86.805 7.64-5.378-1.84-111.659-64.31-113.09-65.86-1.941-2.11-1.052-4.67-.83-7.26"/><path fill="#020112" d="M552.652 1371.3c5.206 1.13 110.67 62.75 113.326 66.12 1.917 2.43 1.13 4.47.85 7.3-6.016-.98-104.296-58.67-113.237-65.48-1.506-3.19-1.171-4.49-.939-7.94m1.088 28.91c4.421.9 105.49 60.44 112.977 66.75 1.04 3.13.276 4.52-.513 7.66-4.781-1.9-110.335-64.28-113.199-67.06-.85-3.15-.176-4.28.735-7.35m-.703 28.16c7.038 2.54 112.865 66.15 114.905 69.07.929 1.32.061 3.72-.184 5.27-.425.08-1.561.3-1.907.3-3.51-.04-106.645-61.18-113.248-66.9-1.177-2.73-.258-5.01.434-7.74"/><path fill="url(#b)" d="M478.846 1307.94c1.75-.27 3.57-.38 5.335-.22 9.479.91 18.782 7.72 24.436 15.06 5.707 7.4 9.538 17.31 8.149 26.75-1.181 8.03-5.2 13.02-11.683 17.59-2.725 1.1-5.726 2.09-8.713 1.86-6.059-.45-11.886-4.49-15.805-8.91-8.103-9.13-12.63-23.01-11.335-35.17.844-7.92 3.614-11.97 9.616-16.96"/><path fill="#fefefe" d="M481.992 1314.88c7.781 1.15 14.487 4.5 19.895 10.25 5.229 5.57 8.895 13.31 8.328 21.07-.491 6.7-3.58 10.34-8.479 14.59-1.458.41-3.233 1.02-4.744 1.04-4.94.06-9.988-4.13-13.023-7.69-6.035-7.09-9.517-17.86-8.648-27.13.519-5.54 2.549-8.54 6.671-12.13"/><path fill="#020112" d="M468.08 1358.79c1.827.67 3.285 1.33 4.922 2.4 6.012 3.94 11.965 8.76 18.482 11.77 6.146 2.85 12.978 4.39 18.835 7.86 6.09 3.61 9.468 8.14 10.899 15.02 1.792 8.62 3.388 26.86-1.53 34.35-2.935 1.71-3.731 1.5-7.028 1.41-6.619-6.81-22.098-17.5-30.789-20.83-2.568-.98-5.427-.94-8.117-1.34-5.951-.89-11.389-6.68-15.658-10.63-.401-9.89-2.943-22 .109-31.48 1.632-5.07 5.451-6.35 9.875-8.53"/><path fill="#fb8b93" d="M503.131 1385.16c4.48 2.01 8.011 3.87 9.859 8.68 3.132 8.15 1.578 19.74 1.6 28.41l-12.324-9.98c2.448-8.76-1.697-17.97.865-27.11"/><path fill="#f5798a" d="m486.985 1379.97 6.044 1.67c3.18 1.27 6.722 3.08 10.102 3.52-2.562 9.14 1.583 18.35-.865 27.11-1.202.76-2.399 1.36-3.675 1.99-3.961-.71-6.55-4.24-9.248-7-.595-1.07-1.511-1.7-2.423-2.5 2.689-6.92.69-17.56.065-24.79"/><path fill="#080528" d="m486.985 1379.97 6.044 1.67c1.147 8.41 1.656 16.87 2.268 25.34l-.599.77.823.27-1.379.61c-.479-.21-.954-.43-1.438-.62-2.042-.84-1.198-.62-3.361-.75-.595-1.07-1.511-1.7-2.423-2.5 2.689-6.92.69-17.56.065-24.79"/><path fill="#fb8b93" d="M464.74 1366.9c8.496 2.1 15.821 7.31 22.245 13.07.625 7.23 2.624 17.87-.065 24.79-2.915-1.63-5.019-2.82-8.444-2.67l-1.397.07c-5.098.23-8.677-4.21-12.185-7.41-.188-9.28-.106-18.57-.154-27.85"/><path fill="#020112" d="M721.465 1420.18c11.029-.94 20.89.97 31.032 5.23 24.631 10.35 44.044 32.62 54.002 57.05 8.391 20.58 13.451 46.66 4.101 67.81-5.513 12.47-15.255 21.66-27.984 26.36-11.398 2.95-22.391 1.07-32.944-3.85-25.364-11.81-45.635-37.94-54.97-63.83-7.134-19.79-10.551-47.63-.838-67.14 5.788-11.62 15.843-17.47 27.601-21.63"/><path fill="#fb8b93" d="M725.413 1471.26c4.372 5.78 6.759 16.98 9.441 23.89 1.526 3.15 3.642 6.59 4.597 9.94-2.059 5.35.147 13.52.206 19.32-2.022 2.52-3.984 5.18-6.212 7.51-1.955 2.54-3.831 4.91-6.174 7.1-3.526-21.16-2.854-46.25-1.858-67.76"/><path fill="#cd3146" d="M734.854 1495.15c1.526 3.15 3.642 6.59 4.597 9.94-2.059 5.35.147 13.52.206 19.32-2.022 2.52-3.984 5.18-6.212 7.51-.408-12.17 1.63-24.5 1.409-36.77"/><path fill="#fb8b93" d="m777.622 1486.97 1.032-2.11c7.893 10.36 9.55 38.7 7.894 51.56-.694 5.39-2.194 11.38-6.377 15.14l-1.133.22c-2.599-1.18-2.661-1.32-4.067-3.82.439-20.34.078-40.72-.016-61.06z"/><path fill="#020112" d="m774.955 1486.9 2.667.07c2.962 9.42 2.424 53.33 1.416 64.81-2.599-1.18-2.661-1.32-4.067-3.82.439-20.34.078-40.72-.016-61.06"/><path fill="#fefefe" d="M733.086 1448.84c1.828.15 3.681.3 5.482.65 7.08 1.4 10.6 7.43 14.509 12.86.028 13.88 1.947 42.42-.439 54.85l-.832-.64c-6.383-13.62-23.085-44.98-22.896-58.83.054-4.01 1.259-6.23 4.176-8.89"/><path fill="#fdd9e0" d="M761.233 1470.87c3.393-.08 6.146-.29 9.394-1.31 3.83 6.14 4.359 10.15 4.328 17.34.094 20.34.455 40.72.016 61.06l-.364 7.4c-1.391-5.53-2.504-11.1-3.615-16.69-2.217-.69-4.279-1.99-6.331-3.08-1.977-.31-1.988-.06-3.725.68-.325-19.44-1.789-38.57-1.17-58.13.082-2.57-.444-5.47 1.467-7.27"/><path fill="#fbb1b6" d="M770.627 1469.56c3.83 6.14 4.359 10.15 4.328 17.34.094 20.34.455 40.72.016 61.06l-.364 7.4c-1.391-5.53-2.504-11.1-3.615-16.69-2.217-.69-4.279-1.99-6.331-3.08 3.697-8.86 3.289-29.56 4.298-40.05-.13-8.79.697-17.27 1.668-25.98"/><path fill="#fefefe" d="M739.657 1524.41c-.059-5.8-2.265-13.97-.206-19.32 3.076 6.12 10.707 28.7 16.996 30.78 1.353.44 3.077.36 4.489.4 1.737-.74 1.748-.99 3.725-.68 2.052 1.09 4.114 2.39 6.331 3.08 1.111 5.59 2.224 11.16 3.615 16.69-1.395 2.55-4.758 4.6-7.427 5.74-5.62 2.4-12.446 1.21-17.918-.96-9.917-3.94-17.739-11.41-21.991-21.12 2.343-2.19 4.219-4.56 6.174-7.1 2.228-2.33 4.19-4.99 6.212-7.51"/><path fill="#fbf7fb" d="M720.729 1441.27c-.713 7.16-2.522 16.52-.988 23.55-.806 24.11-.586 48.48.228 72.58-4.138-5.2-7.759-10.49-10.838-16.38-8.753-16.76-16.429-39.38-10.568-58.04 3.869-10.32 13.041-16.43 22.166-21.71"/><path fill="#fb8b93" d="M698.394 1455.06c-.036-6.09 3.862-12.98 8.117-17.16 6.249-6.13 14.713-9.75 23.495-9.48 19.454.61 37.067 12.22 49.914 26.2 16.285 17.72 28.305 47.14 27.162 71.38-.61 12.94-5.48 27.54-15.364 36.24-3.379 2.98-8.529 6.29-13.191 6.08-1.91-7.3 8.948-12.5 11.543-19.42 2.674-7.13 3.295-16.8 3.287-24.38-.034-30.09-11.258-56.03-32.339-77.13-4.008-1.09-7.686-1.89-11.838-2.12-.256-.07-.523-.11-.767-.22-3.029-1.3-5.853-2.61-9-3.69-6.349-2.16-12.441-3.16-18.684-.09-9.125 5.28-18.297 11.39-22.166 21.71z"/><path fill="url(#c)" d="M698.394 1455.06c1.418-3.93 2.902-7.31 5.74-10.44a36.35 36.35 0 0 1 25.395-12.13c12.87-.56 22.483 6.74 31.489 14.9-4.008-1.09-7.686-1.89-11.838-2.12-.256-.07-.523-.11-.767-.22-3.029-1.3-5.853-2.61-9-3.69-6.349-2.16-12.441-3.16-18.684-.09-9.125 5.28-18.297 11.39-22.166 21.71z"/><path fill="#fefefe" d="M412.603 1454.89c3.844.71 156.418 91.1 173.756 101.05l191.305 108.76c24.65 14.16 49.808 27.69 73.987 42.64-20.479 14.01-43.214 25.85-64.727 38.2l-85.361 49.68c-42.409 24.37-83.636 51.31-127.245 73.53-.763.04-1.573.37-2.289.11-4.21-1.56-17.145-11.48-22.288-14.59-22.697-13.7-45.951-26.54-68.735-40.14a24023 24023 0 0 0-344.942-201.49c22.499-14.25 46.064-26.81 69.297-39.81l73.785-41.81c44.634-25.05 88.451-51.77 133.457-76.13"/><path fill="url(#d)" d="M418.101 1644.79c1.337-.01 1.852-.1 3.272.41 3.693 1.33 85.81 50.4 89.667 53.81 1.745 1.54 2.574 1.86 2.758 4.2-10.965 9.97-59.514 34.17-75.504 42.27-1.788-.11-3.257-.28-4.913-1.02-15.143-6.73-30.037-16.99-44.378-25.37-13.163-7.7-27.499-14.69-39.959-23.44-2.779-1.95-5.58-3.68-6.795-6.93 6.19-9.33 62.397-37.05 75.852-43.93"/><path fill="#fefefe" d="M417.178 1653.89c8.019 2.95 16.313 8.58 23.79 12.77a1855 1855 0 0 1 60.97 35.71c-21.083 10.74-41.415 22.94-62.616 33.42-.539.13-.823.22-1.489.19-7.039-.29-75.587-40.61-82.729-47.18 20.033-12.42 41.242-23.87 62.074-34.91"/><path fill="#020112" d="M410.308 1490.94c11.094 3.97 22.333 13.41 32.442 19.58 19.246 11.76 39.175 22.88 58.727 34.15l96.522 55.55c27.439 15.48 55.105 30.38 82.287 46.33 17.857 10.47 44.03 23.31 59.758 35.48.832 2.08.674 2.43.231 4.66-11.461 9.91-43.396 26.38-57.747 34.83-16.83 9.91-33.783 21.99-51.463 30.19-4.61 2.13-8.683 3.04-13.723 3.49-7.685-.19-15.323-.81-22.53-3.74-10.21-4.14-68.659-38.17-75.929-45.33-1.977-1.95-2.393-2.95-2.422-5.67 2.306-2.84 5.869-3.12 9.035-4.69-15.645-12.54-40.031-24.23-57.922-34.57-37.513-21.66-74.927-43.79-112.72-64.94-12.984-7.26-53.027-28.19-60.544-37.31 3.573-5.02 100.46-58.6 115.998-68.01"/><path fill="#fefefe" d="M409.782 1500.88c3.341.14 65.023 37.66 74.155 43.08 81.004 48.13 164.733 91.74 245.171 140.78-19.956 11.08-94.484 59.3-110.677 62.63-5.02-.07-9.523-.54-14.328-2.08-12.485-4.01-24.018-11.76-35.268-18.34-13.281-7.77-26.468-15.39-40.221-22.31 3.439-1.18 6.85-2.15 9.861-4.24 1.116-2.56 1.003-2.85.479-5.62-6.25-8.09-64.886-39.01-78.668-46.9l-85.339-49.63c-22.279-12.72-45.091-24.62-66.547-38.72 13.417-8.15 27.306-15.51 40.864-23.43 20.156-11.78 40.032-24.02 60.518-35.22"/><path fill="#020112" d="M492.747 1586.81c4.07 2.58 8.188 5.01 12.378 7.4l-.329.79-5.604 1.63c-3.857-2.08-7.486-4.73-11.139-7.15 1.417-1.71 2.548-2.17 4.694-2.67m-20.534-10.89c4.583 2.53 9.198 5.36 13.929 7.58-1.983 1.9-3.27 3.44-6.149 3.77l-1.809-1.3c-2.979-2.45-6.465-4.31-9.768-6.29zm60.946 34.78c4.853 2.49 9.736 4.91 14.444 7.67l-.243 1.6c-2.072-.62-4.674-1.98-6.742-.67-.514.33-.89.83-1.335 1.25l-12.968-7.15zm-85.244-47.04 3.049-.35 13.901 8.84c-2.458 1.65-3.953 1.51-6.784 1.77-.082 0-.158.04-.237.07-4.534-2.13-8.539-4.98-12.675-7.77zm-5.827-26.82-1.576-1.32c2.08-2.03 2.479-2.15 5.332-2.79 3.142.6 5.392 2.36 7.982 4.12l.953 1.97c-2.257 3-6.742 3.68-10.228 4.67-.402-2.69-.532-4.57-2.463-6.65m213.871 116.28c5.511 3.09 11.001 6.5 16.649 9.32-1.41 1.45-2.79 3.23-4.577 4.18-4.958-2.42-9.588-5.57-14.266-8.49zm29.77 36.36 2.841.83 4.999-2.81c2.336.76 2.161.77 3.341 2.95-1.587 3.53-6.376 6-9.657 7.81-3.436-2.12-7.02-4.14-10.346-6.42.515-.14 1.018-.33 1.545-.41 3.22-.47 4.313-.3 7.277-1.95M336.79 1548.66c.666.17 1.328.35 1.978.58 4.252 1.45 10.324 3.19 12.184 7.64.746 1.78-.63 4.04-1.258 5.81-4.332-2.28-10.788-4.81-13.457-9.05-1.083-1.72.015-3.17.553-4.98m124.866.2-4.14-2.53-.27-1.18 1.307-.39 3.457 2.17c1.576-1.13 2.049-1.67 3.104-3.2 4.094.24 7.293 2.18 9.961 5.25.919 1.05 1.28 2.03 1.589 3.37-1.63 1.77-1.559 1.7-3.858 1.77-2.344.07-5.122-.62-7.357-1.33zm18.939 80.8c3.373 1.47 9.586 3.4 11.698 6.53 1.786 2.64.616 5.14.051 7.99-4.886-3.26-12.172-4.64-14.27-10.5zm65.976-34.31.591-1.78-.869-.12c-2.796-.43-4.846-1.07-7.403-2.27l-.601-1.5 1.721-2.45c1.896.26 2.842.96 4.421 1.96 3.613 2.29 14.484 6 15.276 9.39-3.827 2.52-7.409 1.68-11.56 2.97l-1.11-1.5c.257-1.87.107-2.91-.466-4.7m-23.292 45.18c1.345-3.19 1.494-3.72 4.591-5.01 5.163 2.74 10.424 5.37 15.378 8.48l-4.531 5.87zm-28.027-2.37c4.436 1.62 11.963 4.82 14.881 8.52 2.203 2.8 1.435 3.99.956 7.23-5.27-2.24-13.291-4.55-16.332-9.73-.958-1.63.124-4.21.495-6.02m-141.649-80.79c4.732 2.36 11.238 4.75 14.563 8.96 1.835 2.33 1.438 4.63 1.171 7.37-5.299-2.13-14.295-5.58-16.725-11.04-.686-1.54.501-3.73.991-5.29m58.82 33.41c3.816 1.81 9.755 3.88 12.468 7.09 2.886 3.42 2.109 4.82 1.697 9.08-5.401-2.96-14.329-5.99-16.713-12z"/><path fill="#020112" d="M656.561 1681.66c.824-1.1 1.642-2.13 2.575-3.15 1.291-1.41 1.809-.98 3.635-1.06a407 407 0 0 1 22.958 12.03c-2.964 1.65-4.057 1.48-7.277 1.95-.527.08-1.03.27-1.545.41a146 146 0 0 0-20.346-10.18"/><path fill="#080528" d="M442.088 1536.84c1.931 2.08 2.061 3.96 2.463 6.65-4.024 3.12-8.753 5.82-13.346 8.04l-3.077.08-1.898-1.49c-2.1-.23-4.128-.63-6.198-1.04-1.541-1.59-2.292-2.39-2.724-4.59 1.587.78 3.786 2.05 5.551 2.19 5.346.42 15.48-6.04 19.229-9.84m228.857 164.74c1.764-2.74 2.098-2.93 5.073-4.29 2.988.22 3.14.1 5.332 2.1-.069 1.35.224 2.16-.826 3.2-1.926 1.91-6.983 3.7-9.639 3.87-3.686 2.75-14.968 12.59-19.589 11.81-.408-.07-.787-.25-1.181-.38 2.32-1.39 2.532-2.13 3.827-4.56.207-.44.378-.89.62-1.3 2.419-4.14 7.131-5.16 11.418-6.48l.06-.26c1.775-.37 2.79-.73 4.383-1.5z"/><path fill="#020112" d="M638.867 1691.65c1.525-1.62 3.194-2.39 5.141-3.42 9.462 3.67 17.639 9.59 26.937 13.35l-.522 2.21c-1.593.77-2.608 1.13-4.383 1.5-9.213-3.95-18.477-8.65-27.173-13.64m-62.036.56c-7.145-4.09-25.885-11.94-29.132-18.98.865-.96.547-.97 1.84-1.04 7.537-.43 19.827 7.06 25.501 11.74 2.791 2.3 2.47 4.04 2.791 7.41zm-61.34-41.92c7.355 2.03 28.036 13.61 31.836 19.73l-.945 3.67c-6.776-.61-24.808-12.33-29.54-17.01-2.082-2.06-1.419-3.66-1.351-6.39m79.303 33.53c9.731-4.09 18.818-9.86 27.946-15.14 1.752 2.02 3.469 4.06 5.336 5.97-7.702 5.55-16.813 9.83-25.131 14.43zm-222.292-114.17c.923.04 2.44.04 3.411.27 5.647 1.35 28.987 15.62 32.36 20.06l-1.163 3.55-1.096.79c-3.701-1.5-26.716-14.37-29.263-16.35-3.251-2.54-3.624-4.5-4.249-8.32m117.178 50.96c1.698-1.58 3.546-2.98 5.358-4.42 2.875 1.5 6.014 3.56 9.222 4.08 1.016 1.11 2.118 2.64 3.335 3.49l15.142 8.63 3.383-2.43c3.145 2.05 4.278 1.57 7.945 1.42l-6.195 4.14c-3.097 1.29-3.246 1.82-4.591 5.01l-5.622-3.56z"/><path fill="#080528" d="M613.87 1698.72c5.785-4.66 29.816-20.16 36.074-19.85.312.02.611.14.923.16.679.03 1.36-.01 2.039-.01l1.793 1.33c-3.418 2.62-7.549 5.01-10.691 7.88-1.947 1.03-3.616 1.8-5.141 3.42-4.368 1.24-8.24 3.85-12.149 6.11l-.376 1.1c-.746 1.74-1.396 3.79-2.385 5.4-3.483-1.53-6.788-3.65-10.087-5.54m14.579-34.46c6.906.41 13.982-9.04 20.312-11.79 3.189-1.38 4.129-.76 7.198.65l-2.194 5.01c-4.006 3.18-7.991 6.84-12.389 9.45.913.65 1.515 1.48 2.662 1.36l1.248 1.52c-6.302.96-11.872.02-17.21 4.19-1.867-1.91-3.584-3.95-5.336-5.97l.324-1.25c1.873-.9 3.617-2.08 5.385-3.17"/><path fill="#fefefe" d="M507.595 1623.76c4.96-3.19 13.001-9.65 18.72-10.36l12.968 7.15c-4.046 3.83-8.936 5.95-13.163 9.41l-3.383 2.43zm40.133.68c2.664 1.43 5.473 3.45 8.512 3.48l2.795 2.72c-1.204 5-11.533 10.48-15.787 13.36-4.954-3.11-10.215-5.74-15.378-8.48l6.195-4.14c4.479-1.12 9.536-4.72 13.663-6.94"/><path fill="#020112" d="M430.404 1601.6c9.008 5.13 43.68 21.26 48.203 27.7-.976 1.96-1.658 3.37-3.352 4.79-9.205-5.42-19.643-9.72-28.364-15.82-4.914-3.44-1.43-2.89-2.216-6.94-3.086.26-3.397 3.24-7.056 2.86-3.299-.35-5.848-3.87-7.519-6.46-1.271-1.97-.189-3.91.304-6.13"/><path fill="#080528" d="m461.656 1548.86 3.793 3.93c-3.12 5.28-9.21 7.76-14.485 10.52l-3.049.35-2.746 2.56c-4.095 2.51-14.504 7.52-16.466 11.65l.365.55c-1.694 1.58-2.539 3.4-3.627 5.41l-7.216-4.04c2.042-1.75 3.809-3.56 5.627-5.53l-1.026-.55c4.216-4.5 10.56-7.72 15.805-10.98l4.426-2.35.041-.63c5.922-4.12 12.213-7.47 18.558-10.89"/><path fill="#fefefe" d="M445.169 1566.22c4.136 2.79 8.141 5.64 12.675 7.77-5.013 4.39-10.929 7.58-16.631 10.98-1.516 1.58-3.182 3.12-4.511 4.86-3.815-1.86-7.525-3.98-11.261-6 1.088-2.01 1.933-3.83 3.627-5.41l-.365-.55c1.962-4.13 12.371-9.14 16.466-11.65"/><path fill="#020112" d="M425.441 1583.83c1.088-2.01 1.933-3.83 3.627-5.41l12.145 6.55c-1.516 1.58-3.182 3.12-4.511 4.86-3.815-1.86-7.525-3.98-11.261-6"/><path fill="#fefefe" d="m428.128 1551.61 3.077-.08c3.936 2.39 8.868 4.73 11.893 8.22l-.041.63-4.426 2.35c-5.245 3.26-11.589 6.48-15.805 10.98-5.622-1.09-10.851-5.42-15.119-9.06 5.346-3.93 11.204-7.89 17.414-10.31z"/><path fill="#020112" d="m428.128 1551.61 3.077-.08c3.936 2.39 8.868 4.73 11.893 8.22l-.041.63-4.426 2.35c-4.561-2.69-9.019-5.58-13.51-8.39z"/><path fill="url(#e)" d="M672.608 1662.44c6.818 3.89 33.098 15.94 35.61 21.16-.658 2.19-.604 2.09-2.572 3.27-10.735-2.97-22.335-10.45-32.259-15.7-3.457 1.86-7.724 3.63-10.616 6.28-1.826.08-2.344-.35-3.635 1.06-.933 1.02-1.751 2.05-2.575 3.15l-1.862-1.31-1.793-1.33c-.202-.49-.524-.94-.606-1.46-.711-4.51 13.059-6.59 15.731-10.94 1.787-.95 3.167-2.73 4.577-4.18"/><path fill="#080528" d="M547.603 1618.37c7.727-4.47 15.509-8.3 20.664-15.85.039-.05.087-.11.13-.16 4.09 1.93 8.697 3.57 11.822 6.92l-.25 1.65c-7.392 4.5-18.422 3.48-23.345 11.75l.522 1.14c.838 1.47.645 1.7 2.289 2.38l-3.195 1.72c-3.039-.03-5.848-2.05-8.512-3.48-4.127 2.22-9.184 5.82-13.663 6.94-3.667.15-4.8.63-7.945-1.42 4.227-3.46 9.117-5.58 13.163-9.41.445-.42.821-.92 1.335-1.25 2.068-1.31 4.67.05 6.742.67z"/><path fill="#020112" d="m577.831 1691.34 3.915-2.95c19.686 9.26 39.053 21.72 57.583 33.17l.54 2.24c-2.714 1.49-4.84 1.3-7.818.48-7.933-2.2-46.598-26.2-55.22-32.07z"/><path fill="#fefefe" d="m626.342 1698.86.376-1.1c3.909-2.26 7.781-4.87 12.149-6.11 8.696 4.99 17.96 9.69 27.173 13.64l-.06.26c-4.287 1.32-8.999 2.34-11.418 6.48-.242.41-.413.86-.62 1.3-1.295 2.43-1.507 3.17-3.827 4.56l-6.488-3.1-19.67-10.53c.989-1.61 1.639-3.66 2.385-5.4"/><path fill="#020112" d="m647.188 1710.18 6.754 3.15c-1.295 2.43-1.507 3.17-3.827 4.56l-6.488-3.1zm-20.846-11.32c6.414 4.45 13.89 7.77 20.846 11.32l-3.561 4.61-19.67-10.53c.989-1.61 1.639-3.66 2.385-5.4"/><path fill="url(#f)" d="M409.491 1510.73c2.121 1.04 4.235 2.06 6.191 3.4 1.948 1.32 2.885 1.47 3.359 3.84-1.861 1.04-1.095.9-3.104.97-9.729.29-16.453 6.07-24.667 10.88l13.026 7.06c6.229-4.65 13.867-12.3 21.591-13.85 4.246-.86 7.32 1.71 10.72 3.86-8.019 3.76-17.143 7.93-23.949 13.61l.813 1.14-.975 5.6a83 83 0 0 0-2.021-1c-4.085-1.93-6.109-2.37-10.452-.83-2.522-.18-1.534-.28-3.993.23-2.401.5-2.603.01-4.794-.93 1.623-1.14 2.645-2.06 3.791-3.69-2.833-6.23-10.048-4.73-15.193-7.9-1.343-.83-1.084-1.3-1.399-2.71 3.08-6.04 23.878-15.41 31.056-19.68"/><path fill="#080528" d="M510.003 1592.75c3.572-2.56 7.124-4.96 10.265-8.06 2.219-2.18 4.515-3.97 7.778-3.89 2.643.07 7.212 3.6 9.524 5.09-7.971 3.92-15.989 7.89-23.097 13.27 4.1 2.51 8.447 4.88 12.296 7.76 6.521-3.9 13.021-8.17 19.802-11.57.573 1.79.723 2.83.466 4.7l1.11 1.5c-4.074 3.66-10.062 6.72-14.988 9.15l-6.844 2.7c-5.719.71-13.76 7.17-18.72 10.36-1.217-.85-2.319-2.38-3.335-3.49-3.208-.52-6.347-2.58-9.222-4.08-2.121-1.48-3.662-1.79-4.16-4.43 2.817-4.47 9.04-5.47 12.969-8.9.433-.38.85-.78 1.275-1.16-.725-2.36-.491-4.27-.326-6.7l.329-.79z"/><path fill="#07072c" d="m505.125 1594.21 4.878-1.46c1.355 4.11 1.405 6.03.151 10.26l-5.032-1.31c-.725-2.36-.491-4.27-.326-6.7z"/><path fill="#fefefe" d="m505.122 1601.7 5.032 1.31 7.882 5.78c-4.225 3.99-9.973 7.37-13.776 11.48-3.208-.52-6.347-2.58-9.222-4.08-2.121-1.48-3.662-1.79-4.16-4.43 2.817-4.47 9.04-5.47 12.969-8.9.433-.38.85-.78 1.275-1.16"/><path fill="url(#g)" d="M418.225 1579.79c-15.023-7.98-29.188-17.66-44.18-25.83l.665-1.26-1.2.96c-7.316-4.33-15.012-8.61-20.392-15.36l2.299-1.89c9.861 2.79 18.748 8.96 27.52 14.14 2.687-2.03 5.533-3.91 8.299-5.84 2.191.94 2.393 1.43 4.794.93 2.459-.51 1.471-.41 3.993-.23 4.343-1.54 6.367-1.1 10.452.83a83 83 0 0 1 2.021 1l.975-5.6 3.837 2.85c.432 2.2 1.183 3 2.724 4.59 2.07.41 4.098.81 6.198 1.04l1.898 1.49-3.007 2.73c-6.21 2.42-12.068 6.38-17.414 10.31 4.268 3.64 9.497 7.97 15.119 9.06l1.026.55c-1.818 1.97-3.585 3.78-5.627 5.53"/><path fill="#fefefe" d="M400.023 1545.41c4.343-1.54 6.367-1.1 10.452.83a83 83 0 0 1 2.021 1c1.855 1.14 2.852 1.21 3.639 3.31-3.232 4.45-8.526 6.51-12.379 10.56-.243.26-.479.52-.719.77l-15.629-8.93a919 919 0 0 0 12.615-7.54"/><path fill="#080528" d="M466.531 1570.52c4.952-3.24 12.304-6.57 15.994-11.02-.583-1.97-1.004-2.38-2.369-3.83l1.622-1.18c4.062 1.25 9.758 2.26 12.89 5.17-.166 2.02-.184 2.45-1.825 3.87-5.496 4.72-14.356 8.09-20.63 12.39l-3.797 3.76c3.303 1.98 6.789 3.84 9.768 6.29l1.809 1.3c2.879-.33 4.166-1.87 6.149-3.77 5.9-5.51 14.457-9.07 18.543-16.05 4.197-.23 8.252 2.99 11.47 5.51l.537 1.77-1.778 2.06c-1.895.09-3.46-.14-5.319-.51-5.752 3.27-10.976 7.58-16.848 10.53-2.146.5-3.277.96-4.694 2.67 3.653 2.42 7.282 5.07 11.139 7.15l5.604-1.63c-.165 2.43-.399 4.34.326 6.7-.425.38-.842.78-1.275 1.16-3.929 3.43-10.152 4.43-12.969 8.9.498 2.64 2.039 2.95 4.16 4.43-1.812 1.44-3.66 2.84-5.358 4.42a5338 5338 0 0 1-52.978-30.78c1.329-1.74 2.995-3.28 4.511-4.86 5.702-3.4 11.618-6.59 16.631-10.98.079-.03.155-.07.237-.07 2.831-.26 4.326-.12 6.784-1.77z"/><path fill="#fefefe" d="m466.716 1579.09 1.7.59c3.303 1.98 6.789 3.84 9.768 6.29l-16.093 10.45-14.327-7.77c5.757-3.38 12.379-8.31 18.952-9.56m.93 21.35c5.958-3.93 13.315-9.57 20.407-10.96 3.653 2.42 7.282 5.07 11.139 7.15-.735 3.69-13.067 9.42-16.649 12.2z"/><path fill="url(#h)" d="M568.455 1629.06c5.844-3.8 19-15 26.207-13.22 1.108.28 1.994.91 2.938 1.49l.668 1.85c-2.804 5.34-17.338 10.6-23.136 14.14l11.983 7.1c3.592-2.25 7.321-4.47 10.717-7 2.563-1.92 4.615-4.8 7.361-6.37 1.362-.79 3.06-1.04 4.6-.79 3.771.62 8.382 4.22 11.63 6.23-10.264 1.3-17.507 5.91-26.354 10.92l12.972 8.11c6.296-3.42 14.659-6.98 19.559-12.19-.351-.32-.706-.64-1.051-.97-1.565-1.49-.989-.88-2.345-2.78 3.23.02 9.403 2.63 11.768 4.87 1.161 1.09.732.97.758 2.87-4.041 5.67-14.933 9.93-21.078 13.63l12.797 7.31c-1.768 1.09-3.512 2.27-5.385 3.17-3.473-3.3-7.999-5.54-12.109-7.97-8.834 5.56-17.466 11.1-25.729 17.5-15.297-9.36-31.262-17.56-46.509-27.09l4.531-5.87c4.254-2.88 14.583-8.36 15.787-13.36l-2.795-2.72 3.195-1.72c-1.644-.68-1.451-.91-2.289-2.38 4.135 1.33 7.576 3.03 11.309 5.24"/><path fill="#fefefe" d="M569.031 1634.97c4.607 2.29 8.632 5.33 12.79 8.34-6.608 3.91-13.384 7.65-19.251 12.65l-13.671-8.42c6.532-4.43 13.42-8.42 20.132-12.57m19.092 12.14c4.957 2.19 9.846 5.39 14.585 8.06-6.316 4.36-12.566 8.73-19.249 12.51-5.547-1.94-10.072-5.09-14.75-8.53 6.02-4.78 12.66-8.43 19.414-12.04"/><path fill="#07072c" d="m1166.65 367.266 176.87 101.91 56.92 32.169c12.02 6.858 26.77 13.865 36.85 23.385-.69 57.258-.29 114.555-.27 171.818.02 32.678-1.58 66.309.51 98.858 17.11-6.819 32.49-18.772 48.4-28.011 36.97-21.479 74.19-42.348 110.79-64.494 18.19-11.01 36.55-21.64 54.9-32.374 8.48-4.959 16.86-11.065 25.94-14.837 16.34 7.747 31.91 17.374 47.52 26.48a5552 5552 0 0 0 60.53 34.784l97.82 55.407c19.2 10.944 46.8 24.385 62.49 39.366l-.52 449.223-.04 127.07c.09 21.51 1.95 44.71-.14 66.05-22.54 11.72-44.05 25.45-65.79 38.56-20.35 12.27-41.09 24-61.06 36.87l1.17.74c24.94 15.56 53.25 28.29 79.67 41.25 9.9 4.86 20.43 9.33 29.83 15.07 3.28 2.01 8.89 5.38 10.04 9.25 1.26 4.22-.57 10.36-2.85 13.93-2.31 3.62-7.43 6.75-11.06 9.05-24.96 15.79-51.04 30.35-76.54 45.31l-84.3 50.17a2762 2762 0 0 0-51.39 30.77c-10.56 6.46-21.06 13.57-32.05 19.28-5.74 2.99-11.59 4.68-18 5.44-10.74 1.27-21.16-.78-31.04-5.04-12.42-5.36-23.95-13.3-35.62-20.13-17.48-10.23-35.21-20.09-52.84-30.07l-153.44-87.23c-38.7-22.47-77.01-46.3-116.69-67-11.59 2.27-23.34.81-33.42-5.78-10.04-6.56-14.26-16.26-17.54-27.29-10.73-6.94-22.2-12.62-33.37-18.77l-50.96-28.13c-38.41-21.01-76.51-43.12-114.52-64.87l-228.446-129.56c-56.627-32.19-112.829-65.3-170.4-95.8-5.769 1.55-13.971 2.93-19.305-.79-2.992-2.09-4.831-4.97-5.368-8.57-.799-5.36.907-10.69 4.151-14.96 3.534-4.65 9.166-8.39 15.106-8.79 5.059-.34 9.726 2.5 13.151 6 2.553 2.61 3.923 5.93 5.372 9.22a7389 7389 0 0 0 142.472 80.88l210.765 119.57 129.732 73.54c36.23 20.82 72.42 42.99 110.28 60.73 9.32-4.94 17.79-6.96 28.31-3.92a40.3 40.3 0 0 1 24.24 19.76c3.6 6.66 4.79 13.58 5.94 20.96a11126 11126 0 0 0 232.33 134.81l80.06 45.99c11.86 6.67 23.68 14.43 36.16 19.87 6.75 2.95 15.92 6.06 23.27 4.07 14.9-4.04 42.02-23 56.29-31.61l76.87-46.01c37.82-22.55 77.59-43.41 114.08-67.95-16.64-11.56-36.25-20.38-54.19-29.92-18.03-9.59-36.29-20.65-55.03-28.65-27.38 10.55-56.07 31.94-81.05 47.69-9.69 6.11-19.26 12.8-29.91 17.15-17.54-8.31-34.29-19.03-51.04-28.83l-89.73-52.9-80.05-46.45c-12.76-7.35-26.18-14.16-38.48-22.24-4.37-2.87-12.82-8.17-14.37-13.21-3.67-11.97-1.26-92.37-1.6-111.18-27.13-18.67-57.49-34.16-85.92-50.87-10.13-5.95-20.77-11.62-30.2-18.62-17 9.34-104.55 61.26-115.59 62.76-22.18-7.15-64.22-36.38-86.5-49.08l-109.961-63.18c-25.17-14.14-52.034-27.48-76.184-43.17-4.267-2.77-8.429-6.9-10.634-11.53-2.184-4.59-3.215-9.85-3.644-14.89-1.149-13.47-.049-27.61.135-41.15a1950 1950 0 0 0-.345-65.45l-109.563-61.773c-20.532-11.624-48.012-30.38-69.742-36.966-13.11 4.943-25.465 13.392-37.563 20.456l-70.969 42.203c-32.071 19.04-63.833 38.64-96.034 57.44-38.057 22.23-77.246 44.11-113.69 68.85l-1.518-.61c-1.784.55-3.304.63-5.164.67-1.306-1.22-.79-.99-2.233-1.56-.301-.12-.609-.22-.914-.33l-3.439-1.88-6.524 3.93c-.423-.28-.858-.54-1.269-.83-2.792-2.01-4.038-3.64-4.672-7.01 1.931-5.69 8.071-7.79 13.04-10.3 15.785-11.65 35.132-20.7 52.061-30.81a12843 12843 0 0 1 119.363-71.11l94.297-55.164c16.28-9.675 32.385-21.346 49.514-29.351 7.601-3.553 16.501-5.201 24.858-4.147 4.444.56 8.5 2.757 12.427 4.803 13.348 6.954 25.97 15.576 39.044 23.07 39.218 22.481 78.85 45.702 119.496 65.479l-.111-121.126c-63.595-37.837-129.002-72.728-192.388-110.943L372.141 979.958c-17.726 10.714-83.67 46.872-95.647 59.202-.456 3.27-.391 5.27.332 8.49 13.295 11.48 43.004 25 59.345 34.06 5.297 2.94 11.538 5.7 16.123 9.63 2.037 1.75 3.761 3.99 4.16 6.72.3 2.06-.337 3.89-.893 5.84-6.424 6.73-79.629 46.22-95.884 55.73-16.716 9.79-33.281 21.34-50.527 29.95-15.383-10.14-31.696-18.84-47.681-27.99a4925 4925 0 0 1-60.76-35.71c-9.943-5.95-21.816-11.53-30.984-18.43-2.443-1.84-3.231-3.18-4.091-6.05 2.516-8.45 63.734-39.14 75.574-48.7-5.226-31.6-2.253-68.834-2.303-101.191-.023-14.536-1.774-29.823-.139-44.206.649-5.713 2.235-10.869 5.494-15.653 9.625-14.127 27.997-20.36 44.135-22.955 24.431-3.927 54.485-1.205 74.943 13.982 6.132 4.552 13.164 12.105 14.15 20.022 1.467 11.778.137 24.385-.114 36.247a2986 2986 0 0 0-.191 57.268c29.491-19.753 61.595-36.522 92.222-54.558 20.575-12.116 40.812-26.4 61.927-37.363l-.36-163.014c-.273-.265-.55-.527-.819-.796-4.271-4.255-5.599-7.743-5.656-13.788-.089-9.437 5.007-19.654 11.649-26.184 4.329-4.255 9.959-7.476 16.18-7.452 4.066.015 7.902 1.588 10.708 4.546 3.283 3.461 5.942 9.761 5.82 14.579-.235 9.272-5.862 18.113-6.339 27.714-.634 12.773.338 26.033.288 38.883l.027 107.399c25.549-15.905 51.544-30.815 77.374-46.228l143.495-87.093-.527-282.714c-5.762-3.446-9.128-6.375-10.769-13.124-1.983-8.152 1.409-17.39 5.953-24.099 4.307-6.36 10.705-12.134 18.487-13.544 4.267-.773 8.848-.252 12.435 2.332 4.664 3.361 6.918 9.429 7.458 14.969.537 5.513-1.413 13.64-5.123 17.86-.78.887-1.375 1.391-2.28 2.239l.723 292.373c16.034 9.779 32.885 18.326 49.29 27.47l74.312 42.349c20.466 11.538 41.298 22.539 61.394 34.711l.879-234.184.041-61.167c0-10.815-1.055-23.02.795-33.642 18.532-13.465 39.625-24.487 59.489-35.898l78.504-45.852 90.07-53.245c13.12-7.597 27.52-17.71 41.82-22.427"/><path fill="#020112" d="m383.963 1111.46.442 2.27-.422.36-1.072-1.23-.151 1.86c-3.543 1.8-7.202 3.32-9.964 6.26l.694 1.63c4.537-2.22 8.42-5.48 13.22-7.09l1.451 1.07c-2.595 1.68-5.112 3.12-7.91 4.43l-.399 1.48c1.138 1.17 2.222 2.2 3.536 3.17l-6.524 3.93c-.423-.28-.858-.54-1.269-.83-2.792-2.01-4.038-3.64-4.672-7.01 1.931-5.69 8.071-7.79 13.04-10.3"/><path fill="#2b2e64" d="m1177.7 1259.75 1.38-.47c1.79 1.82.85 7.26 1.07 9.99l1.53.23.38-2.25 1.09-.34 1.07 1.05c-.4 12.51-1.15 24.73-1.05 37.29l-.44 1.69-1.62.65c-4.25-7.02-1.41-32.17-2.93-41.83-.33-2.06-.46-3.92-.48-6.01m-274.801-723.3 1.977 1.665c4.181 9.6 2.842 55.751 3.144 68.957l-.467-.027c-.408-4.993-.283-12.266-2.318-16.803L905 598.5c.015 7.21.731 15.272-.49 22.347-.324-28.055-2.128-56.394-1.611-84.397m279.391 147.347a825 825 0 0 0-.69 14.06l-.62.185c-1.19-4.906-3.33-7.899-7.08-11.195-14.51-12.767-34.65-22.398-51.55-31.868-25.34-14.206-50.86-27.984-76.04-42.446-12.35-7.098-25.05-13.353-37.19-20.878l1.34-.644c12.55 3.738 39.47 21.19 51.66 28.087l95.65 53.373c7.29 4.975 16.62 7.068 24.52 11.326"/><path fill="#fb8b93" d="M447.684 700.977c3.994-.241 6.582-.232 9.825 2.541 2.821 2.413 4.189 6.935 4.137 10.532-.077 5.346-2.466 8.813-6.273 12.297-3.142-.008-6.346-.169-9.384.758-.581.177-1.154.377-1.731.566-2.129 1.916-4.402 4.49-7.268 5.142-1.524.347-1.937-.336-3.132-1.09-1.012-2.485-.93-4.375-.518-6.967 1.518-9.542 6.54-18.156 14.344-23.779m249.845-274.306c3.864.925 7.505 2.558 9.728 6.031 2.037 3.183 2.072 6.93.972 10.424-1.78 5.656-5.737 9.6-10.866 12.288-2.184-.198-3.841-.567-5.905.35-.363.162-.69.396-1.036.594-2.01 2.018-3.32 3.58-6.25 4.138-1.313-.533-2.19-.524-2.888-1.868-1.825-3.513-.578-8.859.513-12.451 2.783-9.163 7.439-14.996 15.732-19.506"/><path fill="#2b2e64" d="M1179.05 1071.58c-.21-7.17-1.67-28.97 1.38-34.7l.26 1.1.14-.4c2.91 21.54 1.74 47.95 1.05 69.75 1.7 27.79-.57 56.17.22 84.05.22 7.71 3.62 24.56 1.4 30.92l-1.3.26c-.17-2.51.24-3.97-1.48-5.91-2.12 3.03-1.62 9.25-1.92 13.07l-1.17-.54c-1.57-9.69.95-28.25.98-39.18.13-39.47-.55-78.95.44-118.42"/><path fill="#f5798a" d="M1310.25 1257.77c5.08.76 97.74 52.75 101.34 57.63 2.1 2.84 1.44 4.78 1.24 8.06l-2.09.68-67.28-39.31c-12.38-7.18-25.53-13.88-37.28-22.02l-.15-1.21z"/><path fill="#414683" d="M1421.1 930.549c-.55-16.382-3.87-95.246.54-105.485l.25-.198-.93 2.559 1.76.231c1.6 26.314 1.21 53.195 1.24 79.578.02 22.237.53 44.619-.11 66.84.17 19.542 1.35 39.866-.06 59.316a3733 3733 0 0 1 .02 73.51c-1.49 14.96 1.44 87.38-2.8 94.1-.89-27.03-.19-54.01-.11-81.04.1-33.9-.23-67.84.32-101.74-.91-29.127-.31-58.515-.12-87.671"/><path fill="#2b2e64" d="M1423.81 1106.9c1.13 112.17-1.95 224.52.48 336.65 10.95 10.57 39.65 24.12 54.19 32.49 39.35 22.67 78.02 46.53 117.39 69.12l54.05 30.92c8.45 4.81 17.5 9.17 25.65 14.45 2.67 1.73 4.54 4.28 6.46 6.77a14500 14500 0 0 1-151.58-88.83c-19.91-11.56-98.37-53.1-109.05-65.59a7164 7164 0 0 1-.81-177.86c.09-17.77-1.84-48.01.42-64.02 4.24-6.72 1.31-79.14 2.8-94.1M1164.3 376.622c4.86.474 194.06 111.158 218.49 125.267 11.88 6.857 36.7 23.947 47.33 26.967.63 18.409-.59 36.973-.84 55.399-.38 29.018-.17 58.069-.14 87.091l.73 85.829c.04 12.466.66 25.242-.09 37.67-.24 3.951-1.26 7.012-2.88 10.6l-.93-145.945.03-129.705c-69.23-40.839-138.28-82.328-208.77-120.968-17.26-9.462-34.28-22.886-52.42-30.2-31.66 14.015-64.64 39.167-96.2 55.477l-.54-.734c11.81-8.884 25.74-15.789 38.51-23.301 19.15-11.269 38.02-23.167 57.72-33.447M905 834.688c2.624 8.416.963 42.174.994 52.787.206 70.667-1.526 141.375-.245 212.015.309 17.02-2.205 38.3.783 54.77.845 4.65 4.266 7.08 7.974 9.73 22.018 15.74 48.008 27.44 71.561 40.83 46.003 26.15 91.633 53.22 137.213 80.1 17.65 10.4 36.18 19.42 53.37 30.55 16.19 1.37 33.49-18.72 42.36-17.48-3.24 4.43-27.01 16.45-33.17 20.06-2.05.52-4.92 1.46-7.02 1.09-6.21-1.1-177.53-103.02-197.54-114.57-21.263-12.27-43.232-23.32-64.235-36.07-4.213-2.56-9.848-5.78-12.345-10.12-4.074-7.09-5.099-53.32-2.606-61.53.81 5.48.336 11.42 2.111 16.66 1.192-5 .871-10.62.822-15.75-.028-2.85-.585-18.12-2.018-19.52l-.246 10.76c-1.477-1.98-2.095-4.51-2.174-7-.156-4.96 1.362-10.17 1.359-15.32-.018-29.47.603-58.89.902-88.352.28-27.561.817-55.169.805-82.727-.009-19.489-.897-39.016.08-58.488l.641 7.871c.741-3.314.567-6.903.624-10.296"/><path fill="#f5798a" d="M388.161 1116.59c33.175-17.53 64.98-38.27 97.117-57.64a16350 16350 0 0 1 149.521-88.239c21.034-12.159 46.739-29.593 67.873-39.489 6.004-2.811 12.419-5.939 19.117-4.056 16.124 4.532 32.163 16.996 46.722 25.316l79.611 44.881c13.36 7.467 34.632 16.757 46.315 25.297.721 2.3.638 3.67.278 6.04-3.138 1.06-5.313-.04-8.209-1.48-12.722-6.32-24.906-14.24-37.309-21.21l-78.737-44.298c-13.259-7.516-26.524-16.325-40.423-22.512-5.125-2.281-12.696-5.757-18.27-4.003-15.09 4.748-30.13 15.563-43.778 23.552a3825 3825 0 0 0-75.923 44.991l-113.448 67.63c-30.733 18.18-62.293 36.05-91.791 56.18l-3.439-1.88c-1.314-.97-2.398-2-3.536-3.17l.399-1.48c2.798-1.31 5.315-2.75 7.91-4.43m-236.858-56.08c10.792 11.01 25.221 16.87 40.243 19.45 27.041 4.65 52.881-1.42 75.205-17.04.359 11.99 2.103 24.07-4.781 34.59-3.8 4.38-8.196 8.52-13.081 11.66-17.662 11.36-41.097 13.23-61.23 8.48-14.628-3.46-28.377-11.34-36.431-24.31-.725-10.88-.131-21.93.075-32.83"/><path fill="#f5798a" d="M150.906 1011.35c13.154 9.52 24.39 15.66 40.656 18.33 26.552 4.37 52.958-1.45 74.837-16.98.197 10.88 2.805 29.66-2.852 38.82a115 115 0 0 1-4.669 4.87c-13.426 13.06-34.261 17.01-52.333 16.62-15.98-.35-37.635-4.67-48.858-16.95-10.613-11.61-7.159-30.13-6.781-44.71"/><path fill="#fefefe" d="M1412.89 1201.21c2.3 8 .58 24.7.54 33.43l-.38 72.44c-18.69-11.35-37.96-21.69-56.52-33.3-11.89-7.16-24.2-13.6-36.1-20.75 29.93-18.46 61.22-35.68 92.46-51.82M198.67 882.365c15.785-1.711 35.068.22 49.17 8.003 10.293 5.682 14.536 12.488 17.888 23.274-1.193 3.64-2.423 7.355-4.735 10.455-9.381 12.582-25.121 16.436-39.747 18.785-19.004 2.031-40.732.423-56.953-10.736-5.73-3.942-10.458-9.49-11.57-16.545-.82-5.208.821-10.42 3.959-14.577 9.156-12.129 27.623-16.901 41.988-18.659m76.439 185.955c18.643 8.8 37.074 19.76 55.012 29.98-35.406 24.8-82.981 49.21-120.941 70.8-24.943-12.43-48.152-28.3-72.604-41.7-14.86-8.25-29.399-16.68-43.779-25.75 16.036-10.74 33.06-19.95 50.09-28.99-.142 13.15-.985 24.24 8.633 34.65 13.395 14.49 35.642 20.51 54.763 20.9 20.218.41 43.998-6.05 58.622-20.7 11.779-11.8 10.514-23.97 10.204-39.19"/><path fill="#fefefe" d="M151.48 931.622c12.304 12.015 28.291 17.87 45.215 19.621 24.42 2.526 49.158-2.551 68.417-18.234.079 15.867 2.516 56.565-2.089 69.011-3.215 3.72-6.467 6.77-10.625 9.45-18.209 11.72-44.3 13.54-64.991 8.95-14.159-3.14-27.876-9.44-35.897-22.026-1.034-22.092-.184-44.641-.03-66.772"/><path fill="#f5798a" d="M616.314 1164.89c1.981 0 3.758 0 5.665.67 4.669 1.65 5.796 6.37 7.416 10.55 35.517 21.23 72.586 40.63 108.652 60.98l244.579 138.49a9413 9413 0 0 0 160.154 91.1c29.41 16.57 59.29 35.53 90.29 48.84.51-.42 1.01-.84 1.53-1.26 5.41-4.3 11.48-5.93 18.34-5.04 8.68 1.13 16.93 6.37 22.14 13.32 5.72 7.62 6.51 14.07 4.97 23.22 29.57 19.51 61.39 36.98 92.14 54.61l119.35 68.78 83.64 47.48c19.54 11.27 39.13 24.39 59.9 33.24 12.42 5.29 21.75 7.95 34.78 2.62 21.94-8.99 51.26-29.86 72.41-42.24l83.43-49.89c28.94-16.99 58.42-33.34 86.59-51.58 3.76-2.43 9.94-5.83 11.71-10.05-3.37-3.91-13.55-4.01-18.45-6.46-20.72-10.35-40.72-22.09-61.21-32.85-12.38-6.5-25.76-12-37.6-19.38-1.27-.79-.81-.25-1.21-1.91 1.84-1.84 3.07-2.71 5.51-3.61 4.17.16 7.62 2.58 11.2 4.54 24.4 14.05 49.78 26.45 74.86 39.22 10.9 5.55 24.49 10.75 34.01 18.3 1.29 2.55.87 4.34.45 7.04-1.88 3.31-4.69 5.31-7.86 7.33-57.31 36.64-117 70.34-175.61 104.92l-47.86 28.71c-10.12 6.05-20.59 13.07-31.6 17.38-8.74 3.43-23.29 1.08-31.62-2.26-11.85-4.76-23.07-12.19-34.08-18.61l-53.98-31.34-168.05-95.4c-35.77-20.66-71.35-43.91-108.59-61.77a120 120 0 0 1-2.97.4c-10.09 1.23-21.19-.38-29.2-7.09-7.19-6.02-9.39-13.74-10.28-22.69-32.77-15.84-64.47-35.16-96.17-53.1l-163.994-92.86-220.566-125.41c-41.753-23.72-84.716-46.05-125.341-71.62-3.301 2.29-6.114 4.64-10.402 4.05-2.42-.33-4.657-1.49-5.872-3.65-1.337-2.37-1.508-4.63-.621-7.23 1.561-4.57 5.459-6.37 9.42-8.49m83.928-703.076.61.203c.356.51.839.953 1.068 1.532 1.934 4.886 1.023 256.846 1.087 289.592 13.431 10.985 31.435 18.738 46.629 27.29l91.779 52.152c17.909 10.082 37.264 19.179 53.834 31.343l-.044 20.307c-26.588-17.106-55.005-31.645-82.381-47.447-36.935-21.319-73.309-43.82-110.441-64.747-37.431 25.936-80.87 48.707-120.287 72.244L364.565 975.137a5786 5786 0 0 1-89.179 52.273c-.325-6.24-.167-12.57-.191-18.82 21.474-17.184 47.549-30.011 71.246-43.851a6215 6215 0 0 0 93.427-56.397c-2.445-55.497-.767-111.632-.788-167.191 2.906-1.905 6.625-4.561 9.986-5.459 2.519-.673 2.986-.543 4.938.815 1.086 13.683.381 27.538.353 41.259l.014 72.074c.011 16.434-.428 33.021.821 49.412 21.766-10.412 42.09-24.978 63.024-37.12a8600 8600 0 0 0 173.519-104.46l-.112-290.635z"/><path fill="#fefefe" d="M1677.01 676.026c7.91 2.909 15.72 8.755 23.07 12.97l55.59 31.893c55.61 31.726 112.26 61.853 167.25 94.641-47.14 30.08-96.34 57.248-144.4 85.828l-61.88 36.894c-10.34 6.169-20.39 12.924-31.3 18.06-1.41.245-2.83-.109-4.14-.67-8.52-3.656-16.83-9.127-24.89-13.715l-45.38-25.835a8516 8516 0 0 1-171.07-99.232c32.32-20.212 65.35-39.092 98.19-58.434z"/><path fill="#07072c" d="M1678.81 710.286c16.69 8.765 32.7 19.216 48.85 28.96 32.31 19.506 64.72 39.168 98.32 56.395 7.79 3.992 26.77 11.136 31 18.262-.02 2.04.21 2.77-1.28 4.351-6.24 6.646-33.87 21.188-43.38 26.825-43.05 25.509-86.89 50.065-129.39 76.412-57.91-31.563-116.36-69.184-173.32-103.177-1.7-1.016-3.24-2.338-4-4.217-.5-1.261.1-1.804.59-2.95 7.93-6.457 17.31-11.055 26.22-15.991 16.32-9.041 33.16-17.696 48.54-28.29-.17-3.621-.67-7.409.52-10.885.24-.654.49-1.309.77-1.949 1.74-3.971 5.13-6.682 9.21-8.058 7.84-2.642 15.94-.3 22.98 3.421 20.2-13.52 42.31-28.953 64.37-39.109"/><path fill="#020112" d="M1581.48 755.981c.24-.654.49-1.309.77-1.949 1.74-3.971 5.13-6.682 9.21-8.058 7.84-2.642 15.94-.3 22.98 3.421 2.36 2.261 4.36 3.601 7.3 5.023l1.48 1.139c-2.07 1.066-3.99 1.878-5.45 3.78-7.62-7.148-14.52-6.383-24.38-6.211l-.4-.961c5.88-1.931 12.18.057 17.85-2.61l-.48-1.003c-5.37-1.355-13.53-2.983-18.61-.201-3.54 1.941-6.46 6.751-10.27 7.63"/><path fill="#fb8b93" d="M1593.39 753.126c9.86-.172 16.76-.937 24.38 6.211.4 2.988 1.25 5.867-.57 8.569-1.87 2.783-5.43 4.617-8.6 5.399-5.01 1.235-11.07.674-15.51-2.098-2.54-1.589-4.51-4.074-4.72-7.177-.3-4.612 1.86-7.858 5.02-10.904m79.56 49.047c4.37-.418 9.39-1.005 13.65.207 4.22 1.202 8.32 4.275 10.36 8.192 1.76 3.381 2.25 7.189.93 10.81-2.34 6.385-5.04 8.589-11.05 11.421-4.19.197-8.44.56-12.45-.908-4.97-1.817-9.34-5.628-11.45-10.522-1.41-3.266-1.51-6.755-.17-10.065 2.07-5.134 5.32-6.929 10.18-9.135"/><path fill="#fefefe" d="M1621.74 754.418c18.27-12.105 37.64-23.768 57.12-33.766 26.14 12.445 51.16 29.282 76.18 43.94a1333 1333 0 0 0-58.46 33.325c-12.11-3.867-21.25-4.814-33.39.087-12.26-8.818-25.09-15.952-38.6-22.648.6-4.996 2.91-15.054-.63-19.238-.2-.235-.49-.374-.74-.561zm38.17 78.571c3.25 2.207 6.78 4.321 10.53 5.533 10.24 3.311 19.81 1.011 29.04-3.944a815 815 0 0 1 57.44 34.13 3243 3243 0 0 1-57.49 33.202l-16.7 10.219c-26.39-13.834-51.21-30.976-77.2-45.614 18.02-11.314 36.71-21.692 54.38-33.526m-76.22-58.023c1.68 1.242 3.39 2.521 5.22 3.543 8.4 4.688 18.32 2.424 27.04.133 13.42 7.329 28.77 14.296 40.09 24.711l-.07 22.641c-12.76 8.989-26.66 16.389-40.11 24.277-4.1 2.404-16.09 11.012-20.44 9.877-25.01-16.792-52.03-32.209-78.35-46.807 22.39-11.817 45.49-24.467 66.62-38.375m178.63-5.13c10.04 3.211 24.64 14.009 34.36 19.594a780 780 0 0 0 49.1 25.932l-64.84 38.776-16.43 9.896c-19.44-12.609-40.37-22.847-59.57-35.861.63-8.26.33-16.641.3-24.923 17.81-13.081 37.58-23.141 57.08-33.414m-597.08-383.605c49.69 27.48 98.04 57.664 147.36 85.848 22.1 12.633 44.49 24.773 66.55 37.493 11 6.348 23.05 12.68 33.17 20.373-26.61 18.354-54.27 34.465-82 51.045-51.33 30.697-103.48 60.742-153.25 93.924l-8.79-4.814a8308 8308 0 0 0-159.07-89.856c-26.127-17.617-61.552-33.799-89.757-48.771 12.249-10.052 27.498-17.603 41.267-25.362a3028 3028 0 0 0 52.4-30.139l111.44-65.368c13.57-7.887 26.74-17.264 40.68-24.373"/><path fill="#07072c" d="M1165.7 422.767c13.6 3.712 53.23 29.204 67.75 37.451 34.28 19.477 69.89 37.642 103.16 58.77 3.75 2.38 7.73 4.767 10.41 8.375l-.66 2.649c-1.52 1.793-2.81 2.984-4.8 4.27-24.1 15.553-50.03 28.997-74.72 43.643l-61.24 36.682c-10.82 6.438-23.2 15.617-35.26 19.174-21.1-11.6-173.556-97.487-178.533-103.983-1.252-1.634-.957-.869-.609-3.004 7.92-6.744 18.312-11.555 27.362-16.676 20.02-11.336 40.69-22.156 59.98-34.676-1.02-5.072-2.11-9.678-.24-14.707 1.39-3.75 4.12-6.843 7.77-8.512 8.46-3.868 17.4-1.797 25.71 1.155 18.4-9.526 35.82-20.592 53.92-30.611"/><path fill="#fb8b93" d="M1093.42 457.946c1.2-.039 2.4-.069 3.6-.018 4.77.203 13.37 2.964 16.26 7.035 1.78 2.487 1.57 3.197 1.17 6.036-2.04 2.879-4.37 3.795-7.46 5.219-2.91.428-6.07.622-9.01.373-4.82-.411-9.14-2.776-12.18-6.46-.41-1.622-.91-2.535-.46-4.215 1.16-4.328 4.47-5.865 8.08-7.97"/><path fill="#fbb1b6" d="M1154.84 509.131c5.72-.272 11.19-.513 16.65 1.619 4.86 1.895 9.83 5.331 11.72 10.395.98 2.632.93 5.369-.26 7.924-2.81 6.008-10.11 8.723-15.91 10.783-5.75 1.163-11.61.817-16.99-1.631-4.78-2.179-9.3-5.914-11.08-11.01-1.12-3.199-.89-6.388.76-9.369 3.05-5.508 9.47-7.195 15.11-8.711"/><path fill="#fefefe" d="M1141.06 542.067c2.03 1.122 4.09 2.151 6.26 2.975 11.99 4.535 21.89 2.707 33.23-2.345 19.83 14.466 43.46 26.462 64.99 38.339-19.4 11.731-38.61 23.685-58.17 35.151l-15.27 9.315a2566 2566 0 0 1-87.83-50.274c18.33-11.829 37.82-22.368 56.79-33.161m105.01-64.881c30.82 14.395 60.43 33.5 89.94 50.473-22.88 14.219-46.23 27.774-69.39 41.524l-13.29 7.615c-21.33-13.407-43.99-24.68-65.13-38.439 1.16-2.65 2.26-5.285 2.86-8.125 1.63-7.643-.7-12.627-4.88-18.9a1624 1624 0 0 1 59.89-34.148m-79.48-45.108c9.04 3.491 17.74 9.186 26.16 13.99a2550 2550 0 0 1 44.43 25.744c-18.99 11.97-38.47 23.137-57.65 34.791-2.83-1.343-5.66-2.711-8.65-3.679-9.21-2.982-20.26-1.874-28.84 2.652-5.54 2.925-9.99 7.538-11.76 13.64-1.92 6.687.22 11.628 3.32 17.532-17.9 12.349-38.49 24.446-58.26 33.519a6039 6039 0 0 0-72.48-41.652c26.94-16.436 56.46-29.919 82.23-48.135l.48.222c2.29 1.074 4.61 2.219 7 3.054 6.55 2.284 16.34.839 22.34-2.47 3.45-1.9 6.03-4.703 6.99-8.579 1.31-5.301-.68-8.73-3.39-13.178 15.59-9.884 31.91-18.57 48.08-27.451m250.82 116.854.87.236c1.77 4.925.68 230.704.74 260.185l-6.31 6.319.29 364.408c-42.14 24.83-85.57 47.67-128.36 71.37-31.49 17.44-62.38 36-93.94 53.3l-.61-.23c-1.24-2.31-.94-5-.96-7.55-.56-62.78.66-125.68.74-188.48l.03-421.325c19.49-13.378 40.67-24.968 60.87-37.295 55.43-33.827 111.65-66.37 166.64-100.938"/><path fill="url(#i)" d="m1389.06 601.84 2.25 1.998c3.45 9.632 1.46 134.626 1.48 153.164.16 133.813 1.8 267.868-.32 401.648-11.05 7.9-23.52 14.07-35.38 20.64l-72.87 39.63c-17.22 9.52-45.58 28.55-62.93 34.57l-2.14-2.07c-3.8-9.77-2.16-153.47-2.18-178.14l-.04-367.129c12.59-11.133 29.52-18.355 43.78-27.166a8692 8692 0 0 1 128.35-77.145"/><path fill="#fefefe" d="M1383.91 614.166c2.43 7.805.88 96.522.93 110.445.57 142.956 1.8 286.199-.03 429.139-10.15 7.14-21.63 12.86-32.47 18.92a2540 2540 0 0 1-67.01 36.46c-20.23 10.86-39.59 23.74-60.05 34.02-1.63-27.93-.35-56.7-.47-84.74a11885 11885 0 0 1-.35-166.151l.15-167.744c-.1-38.237-.82-76.567.24-114.788l97.2-58.371c20.58-12.484 40.81-25.478 61.86-37.19"/><path fill="url(#j)" d="M1367.16 674.76c2.28.048 3.22.692 5.09 1.958 4.32 7.262 1.53 72.239 1.24 85.774-11.3 10.042-26.91 17.651-39.84 25.674-30.54 18.956-61.28 38.003-92.23 56.272-2.44.461-2.04.307-4.06-.697-4.17-7.659-2-23.488-1.84-32.247 15.56-11.389 33.03-21.072 49.58-31.014a3214 3214 0 0 0 60.91-37.54 2644 2644 0 0 1 .22-53.832c6.63-5.346 13.7-9.88 20.93-14.348"/><path fill="#bdbcf7" d="M1354.1 693.068c3.94-2.971 7.85-5.989 11.9-8.817l-.42 73.841-7.52 5.04a248 248 0 0 0-5.24-14.863c3.78-7.688 1.05-44.208 1.28-55.201"/><path fill="url(#k)" d="M1352.82 748.269a248 248 0 0 1 5.24 14.863c-21.28 15.322-44.57 28.274-67.08 41.679-16.18 9.634-31.91 19.896-47.97 29.698-.05-6.313.1-12.638.17-18.951z"/><path fill="#020112" d="M1326.09 770.274c3.44-2.31 6.71-4.983 10.86-5.781l1.84.667c-.31 2.747-1.32 4.499-3.5 6.272-2.97 2.419-6.64 4.182-10.01 5.974l-.57-.821 2.2-4.036z"/><path fill="#080528" d="m1326.09 770.274.82 2.275-2.2 4.036.57.821c-9.81 8.166-27.29 16.531-38.75 23.587-9.51 5.858-18.74 13.129-28.54 18.359-2.35 1.255-5.27 2.17-7.91 2.504-2.19.278-3.69.397-5.41-1.081 4.61-8.778 68.66-43.641 81.42-50.501"/><path fill="#fefefe" d="M1925.93 835.064c.35.636.87 1.202 1.05 1.907 1.47 5.955.27 26.123.35 33.357a9899 9899 0 0 1 .72 117.479l-.06 274.713a8264 8264 0 0 1-.15 180.44c-16.37 10.54-33.26 20.27-49.84 30.48l-182.01 110.7-.72-.65c-2.72-6.68-.57-157.78-.54-180.18l.35-430.014c17.55-12.335 36.96-22.51 55.3-33.683 58.14-35.412 117.86-68.456 175.55-104.549"/><path fill="#080528" d="M1894.13 892.692c1.32.3 2.11.804 3.27 1.481 2.28 4.695 1.79 11.987 1.89 17.142 1.47 77.534-.52 155.205.07 232.755a17190 17190 0 0 1 .62 185.56c.06 30.75 1.25 61.81.22 92.52-15.85 11.89-40.44 24.83-57.91 35.44-37.45 22.75-74.85 46-112.88 67.77-2.36.45-2.62.14-4.81-.56-.46-.76-1.11-1.43-1.37-2.28-1.8-5.91-.26-106.35-.26-120.52l.09-408.346c12.16-11.039 44.4-26.974 59.8-35.922 37.15-21.595 73.88-43.831 111.27-65.04"/><path fill="#fefefe" d="M1890.72 903.881c2.14 12.751.75 27.906.88 40.988.4 39.645-.5 79.231-.56 118.871l.83 353.99c-17.79 12.32-37.34 22.85-55.88 34.06a4761 4761 0 0 1-103.24 61.33l-1.18-.77c-2.49-12.41-.55-30.42-.51-43.36l.04-93.64.23-379.058c13.89-6.275 27.31-15.111 40.57-22.732 39.76-22.854 78.46-47.96 118.82-69.679"/><path fill="#07072c" d="M1863.13 1051.71c1.93-.05 3.03.22 4.81.97 4.3 6.24 2.44 21.35 2.34 28.97-14.6 12.79-49.32 28.93-67.68 39.64-15.18 8.86-29.29 19.85-45.24 27.32-2.26-.04-2.44-.49-4.27-1.67-4.16-7.13-2.23-22.05-2.14-30.34 23.83-11.66 46.69-26.46 69.52-39.95 14.11-8.34 29.19-15.66 42.66-24.94"/><path fill="#fefefe" d="M1861 1062.93c2.83 3.04 1.66 10.36 1.52 14.28-16.41 12.7-37.63 22.22-55.72 32.55-15.33 8.75-29.9 18.74-45.33 27.31l-1.67-.45c-1.48-4.36-.79-9.85-.72-14.43 33.3-20.23 67.16-41.74 101.92-59.26"/><path fill="#07072c" d="M1865.48 1108.63c1.55.43 2.29.98 3.58 1.9 3.55 7.34.99 22.13.48 30.39-14.07 11.35-38.45 22.54-54.6 32.24-20.05 12.04-37.79 26.06-59.13 36.21-.31-.28-.64-.55-.94-.84-6.14-6.15-3.59-24.03-3.45-32.23 19.68-10.73 38.04-23.45 57.41-34.67 17.22-9.97 41.87-20.48 56.65-33"/><path fill="#fefefe" d="m1860.03 1120.8 1.11.41c1.61 4.31.77 10.36.7 14.96-17.27 10.88-35.77 19.86-53.12 30.63-16.1 9.99-30.86 21.66-47.26 31.3l-1.36-1c-1.2-4.83-.72-10.05-.66-15 13.6-8.08 26.53-17.13 40.01-25.34 20.04-12.21 40.51-23.78 60.58-35.96"/><path fill="#07072c" d="M1863.71 1169.82c2.26-.13 2.41-.08 4.34 1.11 4.07 7.68 2.12 21.75 1.96 30.41-9.63 7.29-22.04 12.02-32.52 18.19-27.08 15.94-53.61 32.57-81.09 47.84-2.52.47-2.31.97-4.57-.57-2.96-8.27-1.27-20.6-1.08-29.48 35.89-25.13 75.08-45.63 112.96-67.5"/><path fill="#fefefe" d="m1859.4 1181.78 1.42.51c1.41 4.47.92 9.3.83 13.94-12.88 8.13-26.38 15.41-39.45 23.26-20.6 12.38-40.93 25.23-61.85 37.08l-1.61-.06c-1.59-3.81-.72-9.52-.63-13.64 31.47-23.32 67.11-42.06 101.29-61.09m-428.25-348.404c22.28 10.778 42.97 24.655 64.47 36.858 60.56 34.371 120.13 70.102 181.45 103.177l.17 609.519c-12.47-5.31-24.5-14.05-36.23-20.94a8237 8237 0 0 1-80.98-47.9c-28.96-17.07-58.46-33.22-87.54-50.1-13.76-7.99-27.97-15.73-41.07-24.79.95-64.32-.47-128.57-.47-192.88z"/><path fill="url(#l)" d="M1449.01 1316.36c16.38 2.57 179.24 97.24 200.55 112.59.03 17.7 2.73 57.83-1.4 72.96-.69.23-1.46.51-2.18.62-3.56.54-5.81-1.14-8.83-2.76-19.52-10.46-38.35-22.31-57.39-33.62l-75.44-44.3c-16.29-9.64-41.4-21.17-55.08-32.46-1.04-23.89-1.19-49.16-.23-73.03"/><path fill="#fefefe" d="M1456.54 1326.2c26.68 14.06 52.25 30.07 78.6 44.71 26.63 14.78 53.45 29.16 79.41 45.11 9.23 5.66 19.2 11.08 27.49 18.02.04 9.1 1.87 52.85-1.22 58.05-23.65-14.89-48.81-28.45-73.12-42.32l-111.01-63.22a3225 3225 0 0 1-.15-60.35"/><path fill="#020112" d="M1469.44 1341.25c3.44 1.69 6.6 2.98 7.96 6.87.82 2.34.64 4.1.1 6.52l-1.57 1.46c-1.31-.37-1.89-.2-2.65-1.46-1.1-1.82-1.31-3.66-1.71-5.72.09-.23.21-.45.27-.69.58-2.77-1.12-4.63-2.4-6.98"/><path fill="#fa605e" d="M1585.38 1425.91c-2.8 6.05.61 13.15-2.07 18.97l-1.66.46c-1.77-1.79-2.53-3.27-2.81-5.77-.63-5.75-1.52-30.93 1.68-34.65 2.26.23 2.29.23 3.92 1.81.1 1.72.18 3.34.01 5.06-.18 1.84-.56 3.38.13 5.16.11.3.31.56.46.84-1.22 1.83-2.06 2.8-1.33 5.16.26.83 1.19 2.2 1.67 2.96"/><path fill="#ed3f3d" d="m1585.04 1417.79.25-.88c.81-2.97 1.06-5.38 1.06-8.45 1.61.29 1.76-.03 2.64 1.14 3.77 5.01 2.68 35.21 1.9 42.54l-1.46 1c-1.89-1.08-2-1.2-2.63-3.22-2.34-7.51.1-16.22-1.42-24.01-.48-.76-1.41-2.13-1.67-2.96-.73-2.36.11-3.33 1.33-5.16"/><path fill="#a3092f" d="M1509.78 1365.59c2.47.95 4.31 1.81 6.49 3.37 3.05 8.36.97 32.92.9 42.84l-6.03-2.4c-2.95-3.45-1.43-36.94-1.36-43.81"/><path fill="#020112" d="M1545.95 1385.55c2.02.87 3.81 1.59 5.45 3.1 4.87 4.5 2.84 35.62 2.89 44.11-2.23-1.02-4.57-1.87-6.29-3.68-2.02-2.12-1.84-37.9-2.05-43.53m-52.98-28.35c1.89.27 3.07.59 4.71 1.56 3.57 7.93 2.17 33.97.91 42.95-4.93.88-5.46-3.33-9-5.46-.41-.24-.84-.43-1.26-.65-.86-2.45-1.68-5.51-1.65-8.13.03-2.38.51-3.69 2.26-5.3 2.29 2.47 2.72 6.77 3.45 10.02 2.09-6.8.59-26.84.58-34.99"/><path fill="#07072c" d="M1561.15 1393.72c2.38 1.02 3.96 1.95 5.89 3.68 4.42 10.26 1.75 31.49 1.71 43.35-2.32-.98-4.96-1.82-6.74-3.65-2.84-2.92-.94-37.03-.86-43.38"/><path fill="#080528" d="M1614.57 1425.59c2.33.91 3.84 1.86 5.76 3.47 4.71 9.34 1.95 32.14 1.86 43.39-2.09-.81-3.84-1.85-5.75-3-5.03-8.16-2.15-33.83-1.87-43.86"/><path fill="#020112" d="M1479.11 1347.17c.79.23 1.16.3 1.94.77 4.03 2.43 10.74 7.73 11.49 12.62.38 2.43-.58 3.42-1.92 5.19l-1.52-.3a150 150 0 0 0-3.46-6.66l-.8.61.66 7.38c2.66 3.11 5.66 5.92 6.34 10.09l-1.1.76c-2.94-1.56-3.24-2.55-4.9-5.34-2.41 4.03.1 15.05-.53 20.05-.23 1.79-.12 2.22-1.62 3.32l-1.62-.76c-4.51-8.46-2.77-36.97-2.96-47.73"/><path fill="#07072c" d="M1599.24 1415.15c3.08 1.05 5.28 1.97 7.81 4.02 2.17 5.63.57 34.55.9 43.49-2.51.18-4.2-.57-6.25-1.87-4.75-7.55-2.48-36.05-2.46-45.64"/><path fill="#ed3f3d" d="m1526.97 1374.73 9.29 5.17c-.01 4.3-.38 8.6 1.16 12.67l-.94 4.27c-2.28.97-3.2.82-5.62.67 3.94 3.56 5.43 5.11 5.75 10.61.3 5.13-.08 10.27.18 15.4l-9-5.6-.21-15.43c-.7-9.21-.53-18.53-.61-27.76"/><path fill="url(#m)" d="M1465.79 1383.35c-.3-12.14-1.16-24.78-.56-36.89.13-2.54-.01-4.27 1.9-6.11l2.31.9c1.28 2.35 2.98 4.21 2.4 6.98-.06.24-.18.46-.27.69-2.06 3.55-1.22 10.93-.33 14.85 1.65.84 2.66-2.78 5.07-3.39 3.92 5.21 1.91 22.44 1.97 29.14-3.87-2.64-8.21-4.31-12.49-6.17"/><path fill="url(#n)" d="M1449.55 992.306c8.96 2.674 188.21 104.614 201.17 115.514.03 15.02 2.74 65.59-1.8 75.05-1.86 0-3.63-.19-5.35-.98-11.52-5.32-25.25-15.8-36.89-22.43l-110.13-62.81c-15.28-8.86-34.48-17.66-47.72-29.29.08-15.19-2.97-63.73.72-75.054"/><path fill="#fefefe" d="M1456.1 1004.41c23.07 10.76 45.56 25.65 67.72 38.33 39.79 22.76 79.77 45.01 119.05 68.66l.04 61.09c-23.65-16.16-49.57-29.41-74.46-43.55a6693 6693 0 0 1-111.94-65.17c-.42-19.76-.28-39.59-.41-59.36"/><path fill="#fa605e" d="m1584.29 1119.82 6.77 3.89c.1 3.16.55 5.54-1.49 8.05l-1.73-.82c-2.89-3.77-3.29-6.44-3.55-11.12"/><path fill="#07072c" d="m1480 1043.94 1.24.33c.92-2.73 1.3-3.77 3.7-5.57.43 9.74 2.26 22.54-.19 31.87l-1.56.4c-4.6-7.8-4.21-18.27-3.19-27.03"/><path fill="#ed3f3d" d="M1530.96 1078.45c-1.12 3.53-.57 16.63-2.9 18.72-2.01-1.13-2.04-1.39-2.65-3.67-1.05-3.99-1.09-37.45.69-39.98l2.19.66c.18 4.64.27 13.38 2.71 17.31l-.18 1.44c-.21 1.57-.48 3.11-.79 4.67z"/><path fill="#080528" d="M1494.61 1034.22c1.86.67 2.32 1.03 3.72 2.33 4.29 11.74 1.85 30.02 1.73 42.73l-4.84-3.08c-2.45-3.99-1.16-35.63-.61-41.98m-14.61 9.72c-.27-4.83-1.93-13.45 1.39-17.34.97-1.15 1.82-.81 3.2-.89 1.92 1.23 3.27 2.35 4.64 4.2 1.06 1.44 2.52 3.39 2.92 5.17.55 2.42-.38 33.72-.91 37.51-4.53-2.57-2.1-33.72-4.86-41.24-1.52 2.02-1.22 4.85-1.44 7.35-2.4 1.8-2.78 2.84-3.7 5.57z"/><path fill="#fa605e" d="m1528.29 1054.18 9.31 6.19.1 21.23c.23 6.27.94 13.76-.85 19.78l-1.28-.02c-4.56-4.37-2.91-15.98-4.39-22.07-.07-.28-.15-.56-.22-.84l-.93-.85c.31-1.56.58-3.1.79-4.67l.18-1.44c-2.44-3.93-2.53-12.67-2.71-17.31"/><path fill="#080528" d="M1546.51 1064.69c2.2.88 3.6 1.68 5.37 3.25 4.69 12.51 2 31.44 2.38 44.94-2.07-1.19-3.75-2.42-5.55-4-4.62-9.57-2.1-32.6-2.2-44.19m12.5 6.67c2.42.93 5.18 1.7 7.03 3.59 3.04 3.09 1.82 40.47 1.8 46.58-1.7-.6-2.77-1.12-4.24-2.23-5.64-4.3-3.06-37.83-4.38-46.54z"/><path fill="#07072c" d="M1509.22 1042.13c2.37.82 4.82 1.44 6.62 3.28 2.77 2.84 1.17 40.19 1.11 45.98-2.14-1.09-3.73-2.2-5.54-3.79-4.77-10.08-2.16-33.42-2.19-45.47"/><path fill="#080528" d="M1600.58 1094.06c1.64.56 4.19 1.35 5.52 2.42 4.25 3.41 2.43 39.22 2.34 46.66l-5.87-2.65c-3.75-5.07-2.73-38.78-1.99-46.43m14.07 8.81c2.28.94 4.89 1.73 6.61 3.56 2.67 2.85 1.55 40.76 1.56 46.35-1.78-.57-4.3-1.17-5.69-2.46-5.41-5.07-2.63-38.81-2.48-47.45"/><path fill="#07072c" d="M1467.14 1017.49c1.13.52 2.23 1.04 3.34 1.61 4.3 2.18 7.78 4.9 9.33 9.66-.52 2.39-.77 2.23-2.42 3.85-2.03-1.4-2.12-3.34-2.87-5.63-2.43 2.2-2.08 9.17-2.24 12.39l.88.79c1.2-1.77 1.68-3.34 3.77-3.97 2.03 3.36 1.52 6.98.94 10.71l-1.37.87-2.8-2.45c-1.6 1.88-1.17 5.9-1.29 8.43l.99 2.95 1.26.47 1.04-4.69.69-.12c2.04 4.93 1.96 9.23 1.92 14.45l-11.4-6.8c-.5-14.12-1.49-28.47.23-42.52"/><path fill="#ed3f3d" d="m1578.67 1082 11.49 7.13c2.03 10.84.94 23.52.9 34.58l-6.77-3.89c-.16-3.89.25-7.95-2.3-11.1-.13 5.97-.05 11.98-.98 17.89l-.86-.56c-3.11-10.78-1.33-32.22-1.48-44.05"/><path fill="#020112" d="M1450.74 1208.62c9.47 3.45 18.71 8.94 27.67 13.58 30.72 15.88 60.46 33.97 90.59 50.95 17.27 9.73 68.08 35.89 79.36 46.4 3.39 7.71 3.54 68.91.64 77.66-2.12.02-3.93-.6-5.79-1.57-14.38-7.54-28.37-16.42-42.41-24.59l-83.39-48.37c-22.54-13.07-45.1-26.61-68.42-38.24-.09-15.55-2.74-65.15 1.75-75.82"/><path fill="#fefefe" d="M1456.53 1219.41c33.59 17.34 66.36 36.84 99.28 55.44 28.97 16.37 58.56 32 87 49.27l.19 61.78-186.2-107.18a1606 1606 0 0 1-.27-59.31"/><path fill="#020112" d="m1493.06 1248.48 4.22 2.03c4.35 7.8 1.8 36.03 1.71 46.03l-4.07-2.69c-4.6-6.66-2.02-36.53-1.86-45.37"/><path fill="#020112" d="M1478.4 1239.06c5.35 2.39 11.09 5.45 13.38 11.34.55 1.41.48 1.68.56 3l-1.54 2.54-1.23.11c-1.4-2.46-2.01-4.79-4.66-5.95-.7 2.85-.31 5.38.01 8.25l1.04 1.24 3.32-1.54c3.25 3.78 2.52 15.01 1.8 19.95-.24 1.64-.34 1.78-.78 3.14-1.86-2.65-2.87-4.93-2.38-8.22.3-2.06.43-3.72.28-5.83-.85-1.4-1.07-2.65-2.69-3.11-1.97 1.88-2.1 4.26-2.62 6.82l-.26 1.31c-1.41-5.49-2.11-11.14-3.13-16.71a429 429 0 0 0-1.1-16.34"/><path fill="#080528" d="M1479.5 1255.4c1.02 5.57 1.72 11.22 3.13 16.71l.26-1.31c.52-2.56.65-4.94 2.62-6.82 1.62.46 1.84 1.71 2.69 3.11.15 2.11.02 3.77-.28 5.83-.49 3.29.52 5.57 2.38 8.22l1.32 1.3c.66 2.24.47 3.26-.19 5.48l-1.51.31c-1.18-1.36-2.27-2.69-3.29-4.18-.3-.43-.58-.87-.87-1.3l-.96 3.71c-1.76.89-.95.85-2.9.32-3.64-.99-6.19-3.48-7.93-6.71-.02-3.77-1.66-7.55-.99-11.21l1.48-1c2.64 3.07 3.44 8.08 4.54 11.94 1.25-7.92-.74-16.21.5-24.4m30.56 3.78c2.24.87 3.64 1.68 5.44 3.28 4 9.7.9 31.11 1.46 42.36-2-.72-3.55-1.65-5.32-2.81-4.58-9.13-1.83-32.17-1.58-42.83m-44.13-26.74 4.16 2.39c4.58 6.73 1.88 36.02 1.72 45.5-2.11-.85-3.48-1.64-5.19-3.15-4.1-9.8-2.12-33.94-.69-44.74m80.48 46.23 7.64 3.79a2032 2032 0 0 0 .31 43.23c-1.79-.85-4.28-1.72-5.81-2.94-3.6-2.86-1.97-37.44-2.14-44.08m14.47 7.37c2.41 1.08 5.19 2.03 7.1 3.9 2.96 2.88 1.18 38.34 1.17 44.9-1.91-.82-3.24-1.43-4.78-2.88-5.78-5.41-3.26-37.22-3.49-45.92m54.18 31.42c2.35.79 4.91 1.4 6.77 3.13 2.9 2.71 1.36 40.15 1.39 46.26-2.54-1.07-4.18-1.82-6.22-3.74-4.81-9.99-2.08-33.96-1.94-45.65"/><path fill="#07072c" d="M1599.93 1307.98c1.7.69 4.18 1.44 5.62 2.54 3.92 3.02 2.65 40.35 2.79 47.43-1.98-.83-4.73-1.77-6.42-3.05-3.62-2.72-2.04-40.2-1.99-46.92"/><path fill="#ed3f3d" d="M1579.06 1297.68c4.05 1.96 7.97 4.31 11.91 6.49.13 12.08 2.15 32.16.19 43.43l-1.66.49c-5.61-4.19-3.04-10.22-6.38-15.47l-1.47.13-1.4 2.05c.5 2.56.68 4.85.74 7.44-.46-1.14-.77-2.19-.92-3.41-.46-3.63-2.36-15.3-.29-17.96a295 295 0 0 0 4.14 8.31l.71-.44c.48-3.27 1.01-7.6.37-10.82-.77-3.8-2.54-2.11-5.33-3.88-1.94-4.88-.85-11.17-.61-16.36m-53.12 3.6a2639 2639 0 0 0-.78-31.76c.77-1.32.48-1.56.3-3.02l.61-.12c5.63 3.7 1.58 10.81 4.33 16.18 2.07-3.34.2-7.83.97-11.88l1.63-.62 2.75 1.57c1.94 3.09 1.29 6.32 1.07 9.8l.22 35.65c-3.8-2.25-8.4-4.24-10.7-8.12-.48-2.71-.51-4.96-.4-7.68"/><path fill="#020112" d="M1451.8 1098.47c45.98 27.87 93.56 53.72 140.23 80.47 18.93 10.84 40.63 20.75 57.94 33.84 0 14.51 3.24 65.75-3.14 75.83-7.91-3.31-15.49-8.5-23.04-12.62a1924 1924 0 0 1-52.3-29c-40.96-23.5-82.83-46.53-122.67-71.86-.11-17.18-2.67-56.09.03-70.81.44-2.35 1.56-3.95 2.95-5.85"/><path fill="#fefefe" d="M1455.7 1110.02c22.95 12.41 45.14 26.28 67.88 39.1 39.64 22.36 80.03 44.22 118.73 68.15a1684 1684 0 0 1-.06 59.96c-27.04-14.3-53.03-30.37-79.65-45.38-35.61-20.08-72.3-39.62-106.6-61.79-.24-19.99-.84-40.06-.3-60.04"/><path fill="#07072c" d="M1486.13 1155.05c1.73 8.57 1.28 17.83 1.44 26.56-5.32-2.33-12.23-5.89-14.13-11.9-.75-2.4.09-3.48 1.17-5.49 2.41.56 3.42 2.64 4.98 4.5 1.49-1.46 1.18-1.62 1.46-3.58-1.46-2.47-3.14-3.52-5.47-5.03l-.25-1.85 1.48-.76 2.08 1.74 1.05-.25c2.35-.91 4.17-2.46 6.19-3.94m6.83-15.85c2.15.86 3.33 1.68 4.99 3.29 3.41 8.73 2.69 35.25 1.59 45.1-.94-.52-1.88-1.04-2.79-1.62-.73-.47-2.73-1.78-3.18-2.34-2.59-3.25-.3-31.15-1.96-37.93-.58-2.36.57-4.23 1.35-6.5"/><path fill="#020112" d="m1546.42 1169.44 7.61 4.49-.03 45.37-5.44-2.54c-4.17-5.79-1.71-38.09-2.14-47.32"/><path fill="#07072c" d="m1559.88 1177.61 8.04 4.19-.07 45.35c-1.8-.92-3.35-1.63-4.82-3.04-4.42-4.21-2.93-38.69-3.15-46.5m39.94 24.4c2.78 1.04 5.3 2.65 7.88 4.12l.09 44.52c-2.49-1.07-3.97-1.96-5.99-3.86-4.62-9.99-1.93-32.82-1.98-44.78"/><path fill="#020112" d="M1614.34 1209.5a424 424 0 0 1 5.66 2.44c3.56 5.17 2.25 39.67 1.54 47.44-2.55-1.53-4.93-3.26-7.33-4.99-.01-14.56-1.79-30.55.13-44.89"/><path fill="#07072c" d="M1508.85 1150.34c2.55.42 4.23.87 6.56 2.11 3.43 5.22 1.48 37.98 1.43 46.18-2.37-.91-3.95-1.89-5.92-3.48-5.02-8.88-2.25-34.23-2.07-44.81"/><path fill="#ed3f3d" d="M1577.93 1189.04c4.59 2.2 8.83 5.35 13.07 8.15-.29 8.96 1.06 35.06-1.11 41.8l-1.43.44 1.75-1.06-2.44.67c-.21-.22-.44-.41-.63-.64-4.16-5.11-2.19-22.28-2.2-29.03.11-3.31 0-7.34-1.96-10.11-3.31 4.24-1.2 26.66-3.09 34.4-2.93-5.78-1.84-36.06-1.96-44.62"/><path fill="#fa605e" d="M1528.46 1201.44c.58-5.91 1.98-13.31 1.09-19.13-.28-1.84-.23-2.53-1.78-3.66-2.26 7.29.44 15.58-2.76 23.5-1.77-6.09-2.57-35.68-.41-41.27.68-1.75.26-1.15 2.11-1.96 2.19 1.8 4.48 2.97 6.99 4.24 3.65 4.72 1.46 29 1.3 35.88-.07 3.9.55 5.9-1.89 9.03l-2.09.05c-1.55-1.61-2.66-2.85-2.7-5.22-.01-.49.09-.98.14-1.46"/><path fill="#080528" d="M1465.19 1123.74c5.3 2.91 19.85 8.88 22.12 14.1-1.17 5.89.23 14.21-1.18 17.21-2.02 1.48-3.84 3.03-6.19 3.94l-.41-3.4c-2.28-1-3.61-1.57-5.09-3.61-.63-2.95-.75-4.49-.02-7.51l1.48-.55c1.64 1.33 2.25 2.17 2.81 4.17.17.63.33 1.25.49 1.88l.56-.39-.14 1.94c.4-2.62.61-5.12.34-7.77-.45-4.45-4.79-6.9-8.07-9.44l.75 20.04c.14 4.74 1.18 12.29-2.28 15.94l-2.06-.49c-.77-.87-1.75-1.59-2.31-2.61-2.02-3.68-.76-37.16-.8-43.45"/><path fill="url(#o)" d="M1448.38 880.627c9.83 3.574 19.6 10.215 28.72 15.415l58.78 34.07 71.96 40.687c13.93 7.824 31.57 15.361 43.24 26.091-1.22 20.43 1.93 58.83-1.82 75.85-1.15.29-2.64.75-3.86.75-4.28.01-183.1-101.788-194.61-111.855-4.32-8.841-3.5-68.106-2.41-81.008"/><path fill="#fefefe" d="M1455.3 892.662c62.06 36.572 125.35 70.952 187.46 107.398l.12 64.23c-38.84-22.76-78.26-44.65-117.33-67.033-23.33-13.365-46.16-27.475-69.74-40.402z"/><path fill="#ed3f3d" d="M1577.79 971.881c.57.239 1.46.577 1.92.964 2.84 2.37 1.78 38.225 1.89 44.585-2.04-.63-1.79-.66-3.06-2.14-1.84-11.52-2.33-31.866-.75-43.409"/><path fill="#020112" d="M1476.44 945.217c1 3.451 1.71 7.583 3.55 10.652l1.27-1.103c.06-2.953-.41-6.586 1.24-9.144l3.36-.698c.61 6.989 1.05 14.039 1.88 21.002-5.57-2.709-12.07-4.766-14.3-11.053-.12-2.304-.31-4.537.1-6.826.33-1.823 1.43-1.899 2.9-2.83"/><path fill="#fa605e" d="M1534.93 949.168c2.48 1.923 3.66 2.599 4.18 5.786 2.12 13.105-.29 27.455.49 40.793-2.84-1.857-5.79-3.644-8.48-5.711l1.72-.424c3.48-6.439-.03-30.831 2.09-40.444"/><path fill="#ed3f3d" d="M1584.05 976.243c1.97.689 3.12 1.514 4.71 2.859 3.98 10.175 1.6 32.768 1.46 44.498-1.46-.8-2.64-1.81-3.94-2.85-4.88-9.06-2.35-33.673-2.23-44.507"/><path fill="#080528" d="M1546.98 955.144c2.12.693 4.26 1.203 5.91 2.787 2.83 2.707 1.09 38.671 1.04 44.869-2.06-.76-4.5-1.38-6.1-2.933-2.64-2.567-.89-38.708-.85-44.723"/><path fill="#ed3f3d" d="M1524.27 943.822c3.61 1.496 7.16 3.584 10.66 5.346-2.12 9.613 1.39 34.005-2.09 40.444l-1.72.424-1.89-1.368c-2.42-4.16-1.46-32.012-2.38-39.278l-.7.401c-1.34 11.875.36 23.762-.62 35.65l-.63-.471c-2.38-11.068-.58-29.322-.63-41.148"/><path fill="#080528" d="M1559.49 962.335c3.08.475 4.54.378 7 2.371 1.9 15.293.59 31.977.46 47.444-1.69-.74-3.03-1.55-4.57-2.54-5.18-8.88-2.83-36.577-2.89-47.275m-49.13-28.578c1.66.833 3.17 1.821 4.75 2.798 5.22 7.982 2.39 35.195 4.01 46.158l.26 1.714c-2.09-1.052-5.14-2.28-6.85-3.826-4.23-3.822-2.19-39.416-2.17-46.844"/><path fill="#07072c" d="M1599.65 984.115c1.94.663 3.85 1.587 5.74 2.382 4.29 5.772 2.25 40.423 2.42 49.833-2.32-.88-4.51-1.99-6.74-3.09-3.81-4.5-1.62-41.004-1.42-49.125"/><path fill="#080528" d="M1614.19 992.269c2.12.678 4.12 1.576 6.16 2.452 4.12 5.359 1.84 41.759 1.81 50.059l-6.18-2.76c-4.54-6.2-1.95-40.09-1.79-49.751"/><path fill="#020112" d="M1487.49 919.67c4.27 1.727 7.9 3.826 11.74 6.346.08 7.626 1.94 38.324-1.29 43.018-2.02-.65-2.21-.459-3.67-2.171-1.05-12.382.34-24.908-1.05-37.229l-.5-.173c-1.99 9.056.13 33.719-2.2 37.367-3.53-5.976-1.74-32.322-3.53-41.711z"/><path fill="#07072c" d="M1464.34 904.27c4.95 2.687 9.32 6.28 13.77 9.704 4.06 1.183 5.88 2.915 9.1 5.527.08.069.19.113.28.169l-.5 5.447-1.68.911c-1.15 5.282.47 10.775 1.51 15.997l-.96 2.899-3.36.698c-1.65 2.558-1.18 6.191-1.24 9.144l-1.27 1.103c-1.84-3.069-2.55-7.201-3.55-10.652-1.47.931-2.57 1.007-2.9 2.83-.41 2.289-.22 4.522-.1 6.826l-1.56 1.389c-2.54.256-2.53.187-4.68-1.218-5.24-8.349-2.86-39.505-2.86-50.774"/><path fill="#fefefe" d="M914.003 547.486c27.483 13.876 54.374 29.904 81.213 45.027 58.854 33.163 117.344 67.184 176.584 99.632l.02 150.062.43 462.713c-24.49-15.78-50.19-29.81-75.4-44.39a7132 7132 0 0 0-107.299-61.73l-44.06-24.81c-9.836-5.49-20.089-10.6-29.324-17.07-2.678-4.18-2.86-13.84-3.003-18.87-1.586-55.71.695-111.79.56-167.55z"/><path fill="#020112" d="M937.432 995.971c-1.853-17.918-1.062-40.968-.624-59.243.103-4.276-.26-9.795 3.08-12.951 2.794-.487 2.871-.233 5.395 1.15-.255 2.936-.423 5.747-.305 8.693-3.111 11.208-.371 46.741-.071 60.527 14.051 8.743 28.437 16.743 42.895 24.783 6.732 3.74 15.438 7.45 21.308 12.28-1.2 2.29-2.09 4.35-2.87 6.84-20.509-11.83-52.492-26.29-68.808-42.079m-1.17-106.851 1.198-1.841 6.386-.306c7.407 5.553 16.08 9.781 24.136 14.322l40.168 22.692a5539 5539 0 0 1 127.68 74.173c.77 2.68.84 4.39 2.96 6.26 1.97-.21 3.22-.41 5.1-1.12-.32 1.44-.78 2.55-1.37 3.9-.87.33-1.35.59-2.37.58-2.41-.04-4.9-1.21-6.98-2.31-27.2-14.44-53.49-31.503-80.2-46.932-18.33-10.587-106.036-58.085-116.708-69.418"/><path fill="url(#p)" d="M936.262 889.12c-1.411-8.809-1.497-64.712 1.781-71.6 2.438-.93 4.196-.03 6.523.954 17.901 7.572 40.529 22.851 58.214 32.574l94.79 52.503c14.78 8.279 32.23 16.272 45.53 26.715.23 20.65-1.48 53.668.79 73.034-1.88.71-3.13.91-5.1 1.12-2.12-1.87-2.19-3.58-2.96-6.26.95-21.117.15-42.706.14-63.866-29.9-16.29-59.33-33.428-89.07-49.999-34.57-19.258-69.276-37.93-103.284-58.201a4753 4753 0 0 1 .23 60.879l-6.386.306z"/><path fill="url(#q)" d="M945.283 924.927c28.841 17.256 58.917 32.609 88.247 49.034 17.87 10.008 35.19 20.967 53.03 31.039 18.61 10.5 38.9 20.09 56.62 31.87.16 12.03 2.99 71.32-.59 78-2.97.84-4.51.54-7.21-1.02-43.21-24.97-85.7-51.21-129.14-75.8.78-2.49 1.67-4.55 2.87-6.84 43.68 21.9 84.28 50.4 127.24 73.71a3002 3002 0 0 0-.31-63.68c-64.14-34.99-126.4-73.641-191.062-107.62-.118-2.946.05-5.757.305-8.693"/><path fill="#fefefe" d="M943.616 826.094c34.008 20.271 68.714 38.943 103.284 58.201 29.74 16.571 59.17 33.709 89.07 49.999.01 21.16.81 42.749-.14 63.866a5539 5539 0 0 0-127.68-74.173l-40.168-22.692c-8.056-4.541-16.729-8.769-24.136-14.322a4753 4753 0 0 0-.23-60.879"/><path fill="#020112" d="m978.429 885.564 6.355-.066.121 17.981c-2.513-1.648-5.445-3.083-7.127-5.59l-.706-4.378c.611-2.609.939-5.3 1.357-7.947"/><path fill="#07072c" d="M1111.86 928.412c3.5 2.324 5.15 3.955 6 8.289.96 4.945.43 10.633.34 15.671-.64-1.469-1.28-2.989-2.07-4.386-1.26-2.226-1.85-3.442-4.4-4.242l-.75 2.076c-.95-.264-2.55-.657-3.38-1.126-2.41-1.351-2.56-2.392-3-4.833 1.02-2.051 2.45-4.271 4.32-5.674.51-.379 1.11-.601 1.67-.902z"/><path fill="#020112" d="M978.429 885.564c-.54-9.168-2.898-22.515.697-31.04l1.357-.345c5.499 8.263 4.227 21.676 4.301 31.319z"/><path fill="#fa605e" d="M1012.02 875.453c2.53 1.454 4.82 2.035 5.73 5.043 1.57 5.164 2.22 34.954-.41 39.023-1.98-.918-2.87-2.054-3.44-4.188-.51-1.921-.17-4.161-.75-5.993.22-10.792 1.5-23.45-1.13-33.885m26.67 13.392c1.48.704 3.93 1.653 4.87 3.043 3.89 5.759 1.51 35.923 1.33 43.771-1.36-.503-2.37-1.181-3.59-1.959-4.6-9.39-2.47-33.442-2.61-44.855m27.25 17.257c2.51 1.007 4.69 1.766 6.65 3.713 1.82 13.134.48 27.586.34 40.882-2.02-.706-3.45-1.687-5.18-2.928-4.42-8.324-1.89-31.409-1.81-41.667"/><path fill="#020112" d="M1053.71 898.154c2.21.597 4.2.989 5.95 2.572 3 2.707 1.21 37.159 1.13 43.458-2.21-.868-3.65-1.758-5.47-3.274-4.7-10.71-2.24-30.953-1.61-42.756"/><path fill="#a3092f" d="M1026.87 882.072c2.71.788 4.73 1.567 7.16 3.007 3.62 6.717 1.32 36.445 1.24 45.594-2.16-.923-4.23-1.713-6.03-3.263-3.71-3.179-2.32-39.179-2.37-45.338"/><path fill="#080528" d="M1086.29 914.374c8.57 3.752 17.58 8.101 24.94 13.92-1.84 1.917-2.28 3.165-5.04 3.454-.9-1.777-1.8-3.549-2.77-5.288l.9 3.627-2.02-1.867-1.43 2.537c-2.89-2.793-5.66-5.465-8.95-7.78.25 3.255.45 6.425.45 9.688-.01 2.361.38 3.513 1.21 5.664l4.48 3.471c-2.34 5.697-3.73 12.694-1.95 18.715.5 1.693.49 2.955.44 4.699l-9.81-5.407a1994 1994 0 0 1-.45-45.433"/><path fill="#a3092f" d="m998.774 865.1 8.546 6.47 4.7 3.883c2.63 10.435 1.35 23.093 1.13 33.885-2.02-1.02-4.15-1.801-6.24-2.648-.01 2.416-.12 4.574-.51 6.971l-1.65.742-3.11-1.613c-5.302-6.725-2.75-37.898-2.866-47.69"/><path fill="#fbf7fb" d="m1007.32 871.57 4.7 3.883c2.63 10.435 1.35 23.093 1.13 33.885-2.02-1.02-4.15-1.801-6.24-2.648-.21-11.64-.96-23.541.41-35.12"/><path fill="#07072c" d="M1091.92 922.977c3.29 2.315 6.06 4.987 8.95 7.78l1.43-2.537 2.02 1.867-.9-3.627c.97 1.739 1.87 3.511 2.77 5.288 2.76-.289 3.2-1.537 5.04-3.454l.63.118-1.27 4.873c-.56.301-1.16.523-1.67.902-1.87 1.403-3.3 3.623-4.32 5.674.44 2.441.59 3.482 3 4.833.83.469 2.43.862 3.38 1.126l.75-2.076c2.55.8 3.14 2.016 4.4 4.242.79 1.397 1.43 2.917 2.07 4.386.37 7.14 2.19 16.002-1.94 22.172-2.44.943-3.74 1.21-6.27.213-4.3-1.696-10-6.434-13.44-9.543.05-1.744.06-3.006-.44-4.699-1.78-6.021-.39-13.018 1.95-18.715l-4.48-3.471c-.83-2.151-1.22-3.303-1.21-5.664 0-3.263-.2-6.433-.45-9.688"/><path fill="#fbf7fb" d="M1091.92 922.977c3.29 2.315 6.06 4.987 8.95 7.78l1.43-2.537 2.02 1.867-.9-3.627c.97 1.739 1.87 3.511 2.77 5.288 2.76-.289 3.2-1.537 5.04-3.454l.63.118-1.27 4.873c-.56.301-1.16.523-1.67.902-1.87 1.403-3.3 3.623-4.32 5.674.44 2.441.59 3.482 3 4.833.83.469 2.43.862 3.38 1.126-1.72 1.485-.96 1.049-3 1.953-.47.209-.95.397-1.43.595-1.09 1.718-1.47 3.005-1.61 5.006-.23 3.385.05 6.7 2.38 9.321 2.2-.47 1.16-.332 3.11-.475l-.28 4.208-1.44.504c-2.61-1.233-4.4-3.655-5.52-6.276-1.32-3.075-1.78-5.99-.38-9.149.6-1.358 1.23-2.631 1.77-4.02-.31-4.912-1.53-11.496-4.76-15.341l-1.96.861c-.72 3.207-.36 5.578.2 8.793l-4.48-3.471c-.83-2.151-1.22-3.303-1.21-5.664 0-3.263-.2-6.433-.45-9.688"/><path fill="#080528" d="M954.657 839.584c9.056 4.442 18.503 8.866 22.56 18.719l-1.065 1.298c-6.15-.346-10.82-5.858-15.241-9.724.177 10.446-.718 23.659 1.627 33.785 1.507-4.174 1.286-8.172 1.272-12.541-.82-2.098-1.161-5.693-.646-7.886.477-2.033.591-2.098 2.444-3.148 2.139 1.527 2.48 2.768 3.616 5.098l3.801-2.29c2.07 1.346 2.569 2.297 2.937 4.711 1.301 8.535-1.733 17.551 1.11 25.905l.706 4.378c-7.485-3.546-15.894-8.156-22.872-12.683-.206-15.2-.584-30.424-.249-45.622"/><path fill="#07072c" d="M963.81 871.121c-.82-2.098-1.161-5.693-.646-7.886.477-2.033.591-2.098 2.444-3.148 2.139 1.527 2.48 2.768 3.616 5.098-.023.416-.055.832-.068 1.249-.16 5.069 3.087 10.213.369 14.976l-1.079-.388a541 541 0 0 1-3.395-9.574z"/><path fill="#fefefe" d="M944.978 933.62c64.662 33.979 126.922 72.63 191.062 107.62a3002 3002 0 0 1 .31 63.68c-42.96-23.31-83.56-51.81-127.24-73.71-5.87-4.83-14.576-8.54-21.308-12.28-14.458-8.04-28.844-16.04-42.895-24.783-.3-13.786-3.04-49.319.071-60.527"/><path fill="#020112" d="M977.342 958.837c2.303 1.177 4.892 1.861 5.717 4.62.34 1.135.249 2.782.273 3.99a301 301 0 0 1 .105 5.143l-6.039-.311.109-4.535z"/><path fill="#07072c" d="M963.413 986.205c2.429.383 2.765.044 4.586 1.859.639 2.814.62 2.587 3.067 4.159.477-.092.952-.193 1.43-.276 2.019-.353 1.206-.298 3.206-.105.305 3.127 1.25 7.044-.526 9.808-3.746.33-8.749-4.05-12.062-5.997 1.585-2.648.548-6.381.299-9.448m148.907 71.535 4.75 2.68c0 5.72 1.82 18.83-.56 23.59-1.81-.17-2.27-.42-3.77-1.6-3.68-2.92.46-17.86-.17-22.89-.07-.6-.17-1.19-.25-1.78"/><path fill="#080528" d="m977.398 972.279 6.039.311c.152 6.043 2.047 31.23-.112 35.03-2.63-.81-3.376-.83-4.739-3.43-3.359-6.413.869-16.684-1.808-24.042-.534-1.827 2.129-3.104.62-7.869"/><path fill="#f5798a" d="M1064.89 1009.91c1.67.65 3.21 1.61 4.77 2.48 6.1 7.81 1.68 32.08.89 41.77-2.06.93-2.15 1.45-4.41.82-3.74-6.77-1.25-35.77-1.25-45.07"/><path fill="#23162a" d="M1033.84 1036.62c-.64-.34-1.28-.68-1.89-1.06-2.64-1.64-4.25-2.21-4.67-5.49-.89-6.9-2.24-35.751 1.65-40.045 2.75.714 3.23 1.446 5.27 3.487-.5 4.285-.99 8.238-.54 12.558.29 7.39 2.64 24.18.18 30.55"/><path fill="#020112" d="M1053.07 1002.44c1.8.9 3.18 1.54 4.65 2.98 5.25 5.13 2.41 35.87 2.2 44.22-2.85-.39-4.02-.26-6.28-2.11-2.34-13.29-.54-31.37-.57-45.09"/><path fill="#a3092f" d="M997.951 972.062c3.079 1.625 6.059 3.472 9.069 5.219-.04 8.085 1.46 37.619-1.06 42.629-1.39-.62-3.2-1.26-4.39-2.18-.35-.26-1.827-1.62-2.108-2.19-1.914-3.94-1.081-36.016-1.511-43.478"/><path fill="#fbf7fb" d="M1007.02 977.281c1.9 3.822 2.53 3.941 6.21 5.957 1.89 1.031 2.45 2.005 3.52 3.788.31 13.284-.43 26.564-.26 39.854-3.42-2.74-6.44-5.25-10.53-6.97 2.52-5.01 1.02-34.544 1.06-42.629"/><path fill="#fa605e" d="m1034.2 993.512 9.45 4.697c.29 11.571 2.81 31.621-.3 42.401l-1.51.79c-1.05-.73-1.84-1.18-2.57-2.25-.61-.94-1.31-1.7-2.05-2.54l-2.23 1-1.15-.99c2.46-6.37.11-23.16-.18-30.55-.45-4.32.04-8.273.54-12.558"/><path fill="#fdd9e0" d="m1033.66 1006.07 1.96-4.87 1.81-.42c4.02 5.77 2.02 30.11 1.84 38.37-.61-.94-1.31-1.7-2.05-2.54l-2.23 1-1.15-.99c2.46-6.37.11-23.16-.18-30.55"/><path fill="#080528" d="m1100.9 1034.44 1.18-2.68c3.67-.15 5.81 1.36 8.48 3.77 1.83 1.66 2.89 3.02 3.96 5.22 4.07 4.72 2.65 13.72 2.55 19.67l-4.75-2.68-.76-.06c-1.56 5.94.65 17.52-3.05 22.14l-2.12-.9c-3.65-6.17 1-12.54-.1-19.21a212 212 0 0 0-1.27-6.83l.13-2.72c-1.14-.75-1.7-.88-2.31-2.15-2.36-4.93-3.8-8.33-1.94-13.57"/><path fill="#07072c" d="m1100.9 1034.44 1.18-2.68c3.67-.15 5.81 1.36 8.48 3.77 1.83 1.66 2.89 3.02 3.96 5.22-.05 3.69.45 8.32-1.1 11.72a117 117 0 0 0-4.85-4.91l-1.94.26-1.48 2.34c-1.14-.75-1.7-.88-2.31-2.15-2.36-4.93-3.8-8.33-1.94-13.57"/><path fill="#07072c" d="M1085.98 1020.59c3.4 1.68 7.02 3.3 10.1 5.52 3.36 2.4 4.1 4.34 4.82 8.33-1.86 5.24-.42 8.64 1.94 13.57.61 1.27 1.17 1.4 2.31 2.15l-.13 2.72c-.42 2.26-.72 3.9-1.99 5.84l-1.65-.14c-2.33-2.73-4.81-5.2-7.38-7.69l.37 21.52c-2.57-2.17-5.28-4.13-7.98-6.11.11-15.23-.26-30.48-.41-45.71m-130.738-74.991c7.668 3.87 14.863 8.629 22.1 13.238l.165 8.907-.109 4.535c1.509 4.765-1.154 6.042-.62 7.869-2.409 3.667-1.624 7.566-1.076 11.694-2-.193-1.187-.248-3.206.105-.478.083-.953.184-1.43.276-2.447-1.572-2.428-1.345-3.067-4.159-1.821-1.815-2.157-1.476-4.586-1.859.249 3.067 1.286 6.8-.299 9.448-1.972-1.077-4.855-2.376-6.194-4.22-4.911-6.759-2.019-36.318-1.678-45.834"/><path fill="#080528" d="m963.413 986.205-1.114-.401c-.271-.575-.622-1.119-.812-1.726-.941-3.004-.658-23.961.907-26.51l1.379.473c.64 2.315 1.407 4.265 2.486 6.41 1.396-1.208 1.261-1.326 3.223-1.675 1.727 2.201 1.521 3.902 1.866 6.608l1.372.692 4.787-2.332-.109 4.535c1.509 4.765-1.154 6.042-.62 7.869-2.409 3.667-1.624 7.566-1.076 11.694-2-.193-1.187-.248-3.206.105-.478.083-.953.184-1.43.276-2.447-1.572-2.428-1.345-3.067-4.159-1.821-1.815-2.157-1.476-4.586-1.859m-23.984-275.761c.17.024.34.052.51.073 2.374.301 4.207.714 6.415 1.677 20.041 8.743 43.377 23.591 63.026 34.519 30.18 16.788 59.87 34.405 89.81 51.614 14.49 8.328 29.39 15.936 43.72 24.538-.03 13.595 2.7 67.363-2.35 76.247-18.2-7.657-39.21-21.614-56.95-31.29-49.02-26.741-98.622-53.599-146.225-82.803-1.217-12.597-3.008-65.182 2.044-74.575"/><path fill="#fbf7fb" d="M945.081 720.552c11.12 4.951 21.806 12.081 32.569 17.904a2287 2287 0 0 1 91.32 51.409c22.03 12.938 45.26 24.444 66.74 38.221.43 19.501.17 39.137-.19 58.637-10.13-.98-167.19-92.912-190.494-106.189a3757 3757 0 0 1 .055-59.982"/><path fill="#23162a" d="M1052.52 801.363c-.12-3.341-.88-8.261 1.03-11.001 1.9.338 3.15.738 4.73 1.827 1.96 1.359 1.5 1.307 1.92 3.473z"/><path fill="#07072c" d="M1111.06 866.195c-1.42-.793-3.2-1.575-4.1-2.994-1.72-2.682-1.48-6.563-.88-9.515l1.62-1.052c2.67 1.863 2.93 3.617 4.17 6.575-.26 2.325-.47 4.671-.81 6.986"/><path fill="#020112" d="M1097.49 828.96c2.97.172 3.81.11 6.29 1.686 2.03 3.292 1.34 7.433 1.25 11.162l-1.94-2.9c-1.19 1.422-.82 1.654-.79 3.429-1.42-5.034-4.48-7.645-4.81-13.377"/><path fill="#080528" d="m1113.96 853.094 3.9.512c.15 4.482 1.13 10.515-.79 14.614-2.19.744-1.36.958-3.01.101-1.22-.629-2.01-1.22-3-2.126.34-2.315.55-4.661.81-6.986z"/><path fill="#020112" d="M1102.3 842.337c-.03-1.775-.4-2.007.79-3.429l1.94 2.9c.2 5.54 1.16 11.973-.5 17.3-1.12.844-1.39 1.568-2.9 1.211-3.07-.728-6.18-3.458-8.74-5.262.09-1.205.18-2.418.34-3.616.34-2.458.89-4.452 2.92-5.976.53 1.778.82 2.811 1.95 4.323l1.45-.572a61 61 0 0 0 2.75-6.879"/><path fill="#fa605e" d="M1039.16 780.988c2.56 1.917 3.91 2.526 4.39 5.939 1.14 8.048.19 16.58.19 24.691.17 5.519.57 10.718-1.37 16.003l-2.07-.357c-1.2-2.505-1.26-4.892-1.45-7.61l.68-.549c-.98-12.479-.29-25.568-.37-38.117"/><path fill="#020112" d="M973.463 743.968c2.667 2.374 2.814 2.848 2.949 6.362.453 11.806-1.83 24.612 1.702 36.048l-1.167 4.123c-1.381-.427-2.347-1.096-3.562-1.861-3.994-8.069-1.398-27.971-1.667-37.666.27-2.462.993-4.662 1.745-7.006"/><path fill="#fa605e" d="m1064.62 797.362 3.43 1.821c3.6 4.786 1.81 34.241 1.93 42.376l-3.65-1.923c-3.62-7.103-1.58-32.471-1.71-42.274m-51.73-29.094c1.45.635 2.6 1.46 3.9 2.351 5.06 9.37 2.26 29.188 2.06 39.955-1.34-.478-2.4-1.125-3.62-1.849-4.04-9.092-2.24-30.199-2.34-40.457"/><path fill="#fdd9e0" d="M1033.35 778.223c1.85 1.083 3.66 2.501 5.81 2.765.08 12.549-.61 25.638.37 38.117l-.68.549c-1.58 1.151-3.39 2.829-5.12 3.661z"/><path fill="#07072c" d="M978.114 786.378c1.559-6.956-1.321-35.091.701-38.17l1.912-.201c2.549 2.067 3.232 3.917 3.626 7.179.775 6.427 1.864 33.614-.834 37.681-2.738.312-4.206-1.085-6.572-2.366z"/><path fill="#411236" d="m1052.52 801.363 7.68-5.701c-.18 8.345 1.78 33.879-1.63 39.954-2.26-.541-2.85-.881-4.28-2.921-4.51-6.44-1.55-23.419-1.77-31.332"/><path fill="#07072c" d="M1101.27 815.548c5.51 3.624 11.35 7.089 16.54 11.126.06 3.622.65 8.009-.89 11.349l-1.38.252c-1.78-1.89-1.86-4.367-2.27-6.828l-.77-.367c-1.19 3.988-1.93 7.724-.37 11.729 1.61.063 2.9.001 4.48-.182 2.08 3.193 1.39 7.234 1.25 10.979l-3.9-.512c-1.86-1.45-4.19-3.007-5.59-4.89-4.12-5.528-1.11-13.142 0-19.092-1.02-3.865-6.55-7.103-9.55-9.614z"/><path fill="#411236" d="M1033.73 823.315c-1.9-1.257-5.42-3.096-6.63-5.001-2.5-3.935-1.69-36.769-.96-42.807 2.73-.177 4.81 1.482 7.21 2.716z"/><path fill="#a3092f" d="M997.863 759.074c3.057 1.41 6.017 3.272 8.967 4.909l.22 42.561c-2.8-1.36-5.54-2.817-8.299-4.253a4038 4038 0 0 1-.888-43.217"/><path fill="#080528" d="M954.94 732.303c3.805 2.195 15.119 11.617 18.523 11.665-.752 2.344-1.475 4.544-1.745 7.006l-2 1.362c-3.381-1.14-6.684-7.079-8.826-9.865-.056 3.545-.223 7.163-.044 10.701.151 2.978-.116 4.82 2.121 6.845l-.218-.778 2.619-4.082 1.651-.298c1.49 1.467 2.165 2.71 2.796 4.669 1.167 3.619 1.471 6.719-.203 10.117-3.343-1.232-5.786-4.02-8.422-6.38-.068 5.73 3.285 13.612 1.878 18.526-3.314.189-5.333-1.581-8.209-3.154-.209-15.426-.719-30.924.079-46.334m131.21 74.833c5.39 2.401 10.16 5.254 15.12 8.412l-2.45 3.95c-1.36 3.454-1.51 5.773-1.33 9.462.33 5.732 3.39 8.343 4.81 13.377a61 61 0 0 1-2.75 6.879l-1.45.572c-1.13-1.512-1.42-2.545-1.95-4.323-2.03 1.524-2.58 3.518-2.92 5.976-.16 1.198-.25 2.411-.34 3.616-1.75-.766-3.13-1.628-4.67-2.753-4.15-9.401-2.03-33.897-2.07-45.168"/><path fill="url(#r)" d="M938.345 1028.42c2.366.21 4.484.8 6.577 1.93 10.425 5.61 20.484 12.27 30.732 18.25l77.286 44.78 58.77 33.59c10.63 6.09 22.41 11.8 32.05 19.29.37 12.01 2.53 67.64-1.34 75-2.25-.09-4.14-.09-6.22-1.11-11.3-5.54-22.15-12.75-33-19.14a3224 3224 0 0 0-50.45-28.9c-37.96-21.46-78.286-41.12-114.34-65.69-1.435-13.94-3.338-66.3-.065-78"/><path fill="#fefefe" d="M944.98 1038.61c41.136 26.45 84.06 50.37 126.56 74.55 21.8 12.4 44.11 24.45 65.16 38.1a4038 4038 0 0 1 .06 60.43c-13.75-5.44-26.47-15.73-39.44-22.92a7177 7177 0 0 1-152.312-87.43z"/><path fill="#07072c" d="m969.42 1079.28 2.684-2.24 2.135.33c2.831 4.07 1.935 10.73 1.793 15.46l-3.049-.58-2.296-6.73z"/><path fill="#07072c" d="m970.687 1085.52-3.216 1.82-2.178-.62c-.799-1.13-1.357-2.12-1.674-3.47-.931-4-.853-7.65 1.339-11.2l1.623.18c1.662 2.12 2.154 3.61 2.674 6.18.058.29.11.58.165.87z"/><path fill="#080528" d="m972.983 1092.25 3.049.58c.117 4.26 1.689 12.03.03 15.69l-1.934.68c-1.691-.83-3.346-1.65-4.987-2.58-2.479-1.46-3.891-2.9-4.96-5.59-.25-.63-.482-1.26-.722-1.9l-.968.73-.41-2.61c1.226-2.25 1.985-4.15 4.436-5.29 2.267.94 2.109 1.29 3.034 3.46 1.071 2.52.581 4.6 2.413 6.85.572-3.28.716-6.71 1.019-10.02"/><path fill="#fa605e" d="M1038.05 1104.68c2.22 1.03 3.79 2.04 5.63 3.65 4.49 9.59 1.55 31.38 1.24 42.53l-4.35-2.48c-4.58-7.31-1.51-33.66-2.52-43.7m-27-15.39c1.82.55 3.15 1.39 4.75 2.42 4.28 8.7 1.95 31.41 2.06 42.12-2.13-.49-3.42-1.21-5.22-2.44-4.4-8.67-1.75-31.66-1.59-42.1m54.99 30.83c2.3.85 3.76 1.59 5.61 3.2 4.15 9.86 1.45 30.2 1.54 41.68l-7.07-4.05a821 821 0 0 0-.08-40.83"/><path fill="#23162a" d="M1054.66 1113.19c2.04.76 3.45 1.47 5.16 2.82 4.2 9.76 1.57 31.28 1.53 42.69-1.99-.73-3.44-1.46-5.15-2.72-4.26-9.72-1.65-31.5-1.54-42.79"/><path fill="#a3092f" d="M998.769 1081.1c2.281.58 3.751 1.08 5.651 2.48 4.63 9.77 1.37 32.34 2.14 43.95-2.85-.14-5.29-2.4-7.569-3.99z"/><path fill="#411236" d="M1027.17 1096.29c2.32 1.01 4.66 1.86 6.52 3.63 2.6 2.49 1.51 38.71 1.58 44.96-2.15-.92-4.22-1.93-6.3-2.96-3.69-6.33-1.79-36.59-1.8-45.63"/><path fill="#080528" d="M1085.5 1127.87a534 534 0 0 1 28.34 15.82c-1.63.98-3.5 1.89-4.96 3.09-5.05-.47-7.69-4.55-10.52-4.23-1.08 2.82-1.46 5.2-1.72 8.2l-1.91-.83c-.31-3.15-.38-6.23-.38-9.39l-1.36-1.1c-1.71 1.83-1.58 3.62-1.56 6.04.02 1.99.15 4.33.64 6.25.15 7 1.65 17.99-2.13 23.96l-.3-.19 1.91-1.76-2.17 1.55c-7.62-9.01-4.08-35.55-3.88-47.41"/><path fill="#07072c" d="M954.745 1051.45c10.333 5.1 20.044 12.23 30.204 17.83-.067 7.04 1.242 36.18.213 40.68-.499 2.18-.979 2.38-2.741 3.52l-3.118-.68c-1.8-3.46-.426-32.63-1.451-40.12-2.756-1.95-1.526.13-3.748-.08-3.78-.34-7.683-7.08-12.419-7.42-1.37 2.67.466 26.44.396 32.07l.41 2.61-.751 1.52-1.7.22c-1.021-.7-2.527-1.58-3.397-2.52-3.199-3.44-1.907-40.54-1.898-47.63m137.325 100.27c-.49-1.92-.62-4.26-.64-6.25-.02-2.42-.15-4.21 1.56-6.04l1.36 1.1c0 3.16.07 6.24.38 9.39l1.91.83c.26-3 .64-5.38 1.72-8.2 2.83-.32 5.47 3.76 10.52 4.23 1.46-1.2 3.33-2.11 4.96-3.09.96 1.42 1.81 2.66 2.04 4.39.5 3.91.35 30.44-.26 34.69-.34 2.38-.75 2.94-2.36 4.57-2.14-.46-4.29-.98-5.56-3.03-1.38-2.22-1.92-5.26-2.5-7.78-.42 2.52-.14 4.12-2.11 5.88-1.4-.88-2.68-1.14-3.12-2.84-.67-2.57-.72-8.44.48-10.79.12-.24.31-.45.47-.68l-1.68-9.23c-.58 1.65-2.48 5.05-2.6 6.65-.34 4.44 3.08 9.18.6 13.49l-1.7-.1c-4.64-5.5-1.16-18.78-3.19-26.2-.09-.33-.19-.66-.28-.99"/><path fill="#fefefe" d="M1096.64 1150.75c.26-3 .64-5.38 1.72-8.2 2.83-.32 5.47 3.76 10.52 4.23-.17 3.99-.09 8.14-.68 12.09-6.15-9.46-5.74-4.55-11.56-8.12"/><path fill="#080528" d="M937.38 597.498c3.437.398 6.228 1.347 9.331 2.893 17.771 8.855 34.871 19.646 52.118 29.512 25.551 14.615 51.271 28.836 76.701 43.676 19.25 11.234 39.54 20.802 58.59 32.341 3.3 1.998 6.12 4.113 8.7 7.008 1.09 14.583 2.84 67.769-.55 79.924-7.85-2.902-15.53-8.187-22.87-12.242-23.11-12.768-45.54-26.531-68.43-39.669-26.38-15.143-53.113-29.649-79.375-45.005-10.971-6.415-23.114-12.401-33.092-20.286-3.745-9.109-2.943-67.32-1.123-78.152"/><path fill="#fefefe" d="M944.397 607.628c44.286 24.627 88.003 50.329 132.063 75.336 19.45 11.035 42.27 20.227 59.69 34.166a3355 3355 0 0 1 .52 64.065c-26.36-13.579-51.24-29.273-76.79-44.218-38.07-22.263-76.656-44.196-115.307-65.426-.861-21.248-.288-42.658-.176-63.923"/><path fill="#2b2e64" d="M960.987 648.853c.286-.126.573-.249.858-.378 1.042-.475 2.013-1.007 3.005-1.575 3.619.741 4.765 3.211 7.14 5.954l.779 1.727-.803 2.688c-1.031.151-.343.003-2.054.856l-1.548.783c-3.796-.54-5.111-3.249-7.537-6.051z"/><path fill="#080528" d="m972.769 654.581 3.478.607c2.017 4.44 2.027 18.921.144 23.582-.612 1.516-.579 1.099-2.209 2.069-2.142-2.272-3.004-3.42-3.12-6.633-.2-5.572 1.056-11.249.904-16.937z"/><path fill="#080528" d="M979.112 643.815c.131.638.271 1.274.391 1.914.814 4.34-.433 17.647 2.245 19.954l-1.326-.172 2.781-.537c1.442-4.867-1.502-9.903.346-14.567l1.311-.375c.257 6.81 3.36 28.433-1.027 33.591-2.386-.147-2.378-.302-4.166-1.93-2.005-11.753-1.77-26.027-.555-37.878"/><path fill="#fa605e" d="m1072.57 688.658 2.93 2.091c4.08 8.461 1.63 34.042 1.12 44.219-.43-.36-1.39-1.139-1.7-1.494-4.91-5.701-3.36-36.527-2.35-44.816"/><path fill="#080528" d="M1093.03 704.767c.17 10.973 2.71 23.844 1.08 34.578-.39 2.542-.84 3.657-2.82 5.252l-2.76-.63c-2.53-3.585-1.47-39.741-.65-45.989l1.32-.799 3.21 1.851c.19 1.876.23 3.9.62 5.737"/><path fill="#fa605e" d="m1012.03 654.611 7.29 5.522a3456 3456 0 0 1-.09 44.42l-4.2-2.446c-4.55-6.495-2.85-38.539-3-47.496"/><path fill="#411236" d="m1025 662.186 7.9 4.891.16 9.777c.15 7.506 2.13 31.381-.05 37.001l-4.36-2.53c-5.27-8.279-1.82-36.421-3.44-47.737z"/><path fill="#790d38" d="M998.297 648.905c2.713 1.053 5.193 2.693 7.703 4.155a3468 3468 0 0 1 .89 43.368c-2.85-1.214-5.48-2.958-8.13-4.548-.031-14.327-.617-28.645-.463-42.975"/><path fill="#07072c" d="M1092.41 699.03c5.9 3.571 12.32 6.952 17.72 11.224-1.45 1.344-1.85 1.743-2.63 3.642-3.35 4.906-.61 25.05-1.66 32.404-.29 2.032-.81 4.897-2.47 6.196-2.66-7.03-.08-15.645-1.78-22.98-1.23 1.043-2.47 1.753-3.86 2.564l-1.36-.652c-.38-1.143-.71-2.107-.83-3.315-.28-2.727-.74-9.054.83-11.003 1.96 2.043 3.72 4.176 5.48 6.381l1.12-.562c.26-3.639.3-6.766-.29-10.373l-1.17-.816c-1.21 1.307-2.36 2.28-3.83 3.284l-1.32-1.036c-.33-2.698-.39-5.985-2.27-8.115-.34-.384-.71-.737-1.06-1.106-.39-1.837-.43-3.861-.62-5.737"/><path fill="#a3092f" d="M1051.93 678.165c2.39 1.096 5.6 2.137 7.3 4.187 2.12 2.555.08 38.595-.01 44.426-2.97-.218-3.48-.256-5.89-1.95-4.31-9.366-1.61-35.328-1.4-46.663"/><path fill="#080528" d="M1110.13 710.254c3.04 1.542 6.03 2.67 7.36 6.051 3.08 7.819 1.55 20.462.66 28.866.48 3.398.63 7.595.33 11.021-.17 1.936.01 2.5-1.55 3.777-.82-.222-1.83-.437-2.54-.919-4.4-2.981-.96-4.099-2.38-7.889-1.82 1.308-.48 2.656-1.48 4.847l-1.94-.033-1.35-1.605c-.67-4.334.02-8.137.67-12.416-.65-2.989-1.83-7.471-.2-10.106 1.93-.082 3.27-.242 5.06-.996.61-1.251.81-1.518 1.16-3.025.68-2.934.07-5.808-1.38-8.369l-.91.474c.13 2.81.2 5.581.16 8.393l-1.32.961c-5.48-2.074-.51-10.336-2.98-15.39.78-1.899 1.18-2.298 2.63-3.642"/><path fill="#fb8b93" d="M1032.9 667.077c4.35 2.086 8.56 4.159 12.63 6.771-.09 9.737 1.8 37.795-2.25 45.051l-1.92.409c-1.61-2.151-2.63-3.962-3.68-6.437l-4.67.984c2.18-5.62.2-29.495.05-37.001z"/><path fill="#fdd9e0" d="M1033.06 676.854c5.1 5.204 5.75 10.627 5.7 17.703-.04 5.896.07 12.558-1.08 18.314l-4.67.984c2.18-5.62.2-29.495.05-37.001"/><path fill="#07072c" d="M954.604 623.077c10.423 4.343 20.461 11.164 30.271 16.842.167 3.342 0 6.763-.015 10.113l-1.311.375c-1.848 4.664 1.096 9.7-.346 14.567l-2.781.537 1.326.172c-2.678-2.307-1.431-15.614-2.245-19.954-.12-.64-.26-1.276-.391-1.914l-2.4-.241c-1.935 3.096-.808 8.087-.465 11.614l-3.478-.607-.779-1.727c-2.375-2.743-3.521-5.213-7.14-5.954-.992.568-1.963 1.1-3.005 1.575-.285.129-.572.252-.858.378l-.16 4.004c-.008 4.741 1.845 11.377.916 15.689-.329 1.526-.492 1.145-2.028 2.212l-2.698-.54c-.639-.687-1.553-1.195-1.917-2.06-2.193-5.218-.727-37.09-.496-45.081"/><path fill="#fbf7fb" d="M960.987 648.853c-.13-4.171-.872-9.281.454-13.254 3.279.99 6.627 6.297 9.279 8.591l.488-1.526c.236 3.387.363 6.822.782 10.19-2.375-2.743-3.521-5.213-7.14-5.954-.992.568-1.963 1.1-3.005 1.575-.285.129-.572.252-.858.378"/></svg>