<svg xmlns="http://www.w3.org/2000/svg" display="block" viewBox="0 0 2048 2048"><path fill="#fdfdfd" d="M0 0h2048v2048H0z"/><path fill="#5b3a3e" d="M723.101 95.668c.596.767 1.509 1.37 1.789 2.3 1.426 4.745-.006 76.172-.014 88.159l-.619 338.823-1.035 1.302c-3.492-9.629-1.183-110.668-1.181-127.993l.256-302.228z"/><path d="M1058.75 85.136c11.73 2.853 23.93 3.925 35.41 7.664 4.54 6.608 1.25 79.563 1.47 93.946a2150 2150 0 0 0 73.09-23.153l39.08-13.467c-.29-8.391-2.03-20.406.56-28.409l2.24-.607c9.06 3.145 29.85 5.281 35.76 12.141 3.43 3.246 4.94 3.447 9.68 3.475 11-1.303 41.96 15.422 53.71 20.062.19.073.39.076.58.114 1.72.94 6.46 2.932 7.02 4.589-7.53 3.668-38.72 12.185-47.36 13.695-3.82 1.228-10.65 4.481-14.46 3.844-2.44.771-4.85 1.638-7.37 2.13l-2.35 1.482c-2.3 17.725-.31 44.612-.31 63.367l-.03 141.394 1.96.343-.13-1.591 1.65 1.471c42.44-6.147 84.32-18.511 126.99-23.187 2.09-4.938.57-158.869.57-178.837 7.75 4.565 41.12 15.167 42.87 22.007 2.73 10.712 1.2 24.67 1.18 35.763-.02 13.987-2.16 104.186 1.42 110.917 12.38-.432 25.57-4.877 37.88-7.025 32.56-5.684 65.42-10.824 97.73-17.821 1.97-2.392.93-41.294.92-47.789 9.03 8.766 20.92 15.722 32.1 21.392 3.65 1.855 8.57 3.509 11.85 5.835 1.25.882 1.89 2.229 2.64 3.504l.33 4.708c1.87.932 2.07.81 4.06.745 2.49-.081 3.83.26 6.15.98.12.035.24.032.36.048 8.98 5.876 16.9 13.428 25.01 20.428 18.19 15.703 35.6 32.019 52.97 48.636 110.68 105.905 194.34 221.277 240.1 368.616 6.48 20.858 12.84 41.86 17.34 63.244 37.25 176.737 10.08 383.75-90.32 535.97-5.18 7.85-21.15 31.04-28.24 35.71l-1.11 2.19c-4.03-6.03-1.95-24.9-1.93-32.85-1.48-.25-2.7-.85-4.07-1.43-22.89-3.46-45.7-8.11-68.47-12.31-21.7-4.01-43.63-7.61-65.18-12.31-2.03 40.89-5.08 81.94-5.05 122.89 15.13 1.49 30.16 4.97 45.13 7.65 11.38 2.04 23.34 3.37 34.48 6.28l1.02.92c-7.18 1.4-38.03 31.24-47.63 38.29-10.39 7.63-22.61 15.11-34.74 19.51 12.8 17.39 30.2 31.2 40.79 50.21 11.65 20.92 21.18 43.23 30.91 65.08 14.76 33.13 29.28 66.24 46.16 98.37 6.22 11.85 12.33 25.99 20.81 36.36-2.19 2.22-4.81 4.28-5.68 7.36 2.4 5.16 13.21 9.86 17.45 14.93 16.08 19.24 28.44 36.91 38.24 60.22-12.88 18.9-70.46 73.49-89.29 85.28-8.23 5.15-16.41 8.28-25.95 10.09-13.53 2.56-56.93 5.74-68.07-1.24-1.72-1.08-2.35-1.83-3.3-3.55-.45-5.52 1.16-9.33 4.71-13.58 5.62-6.72 13.96-11.56 21.15-16.44 31.63-21.47 35.68-33.74 45.64-69.49 2.27-8.14 8.26-19.38 7.54-27.51-.26-2.96-1-5.57-2.01-8.35-2.27-.28-1.13-.32-3.43.13l-1.61-2.38-.31.54c-10.71-12.41-20.46-25.78-30.68-38.61a3244 3244 0 0 1-84.84-110.33c-18.3-24.47-38.82-48.11-54.87-74.12-9.47 3.73-17.88 9.9-27.07 14.26-25.22 11.96-53.45 23.4-80.58 30.15-3 35.48-8.64 70.62-13.23 105.9-2.87 22.06-4.85 44.3-6.99 66.45-.94 9.67-3.51 56.39-5.85 60.49-2.88 2.07-4.89 2.74-5.65 6.5-1.06 5.17 6.37 10.24 7.55 15.66 4.79 22 6.62 44.85 6.71 67.31-39.12 9.4-160.29 29.75-194.09 10.2-3.5-2.03-5.5-4.29-6.74-8.18.69-4.78 4.06-7.29 7.73-9.99 17.88-13.2 39.51-18.29 58.35-29.35 14.29-8.39 26.55-20.89 39.75-30.92 4.47-3.4 13.74-7.89 16.22-12.77.18-3.31.15-4.58-2.17-7.22-.84-.97-1.74-1.89-2.63-2.81-3.23-12.53-3.8-38.79-5.04-53.1-4.43-51.24-8.86-102.7-10.49-154.12-22.49 1.87-44.8 5.54-67.36 7.19a2066 2066 0 0 1-255.75 1.53 1832 1832 0 0 1-97.646-9.47c-14.75-1.88-29.988-5.77-44.737-6.59l-1.448 1.29c2.232 17.97 5.885 36.25 9.449 54.01 1.138 5.67 4.215 12.87 4.128 18.52-1.157 1.44-2.268 2.66-2.199 4.63.13 3.71 1.96 8.39 2.936 12.06 7.092 26.62 21.152 44.36 36.088 66.92 5.132 7.75 10.519 18.18 17.167 24.59 8.878 8.57 23.007 11.07 31.624 20.47 2.231 2.43 4.218 5.97 3.518 9.38-.497 2.44-1.315 3.7-3.349 5.03-10.877 7.13-54.127 3.41-67.934.9-4.025-.73-8.816-1.72-12.346-3.77-10.269-5.99-20.149-30.57-27.403-41.07l-1.109-1.6c.242 10.22 1.259 22.99.449 32.97-.098 1.22.057 1.15-.973 1.83-2.478 1.64-7.651 1.98-10.394.78-.411-.18-2.507-1.26-2.929-1.77-3.293-3.97-15.997-59.99-15.821-66.69.505-19.35 12.813-25.79 7.346-52.71-1.806-8.88-5.904-17.55-8.939-26.1a1952 1952 0 0 0-25.144-67.2c-27.67-6.75-128.675-20.87-143.796-35.52-16.344 17.53-19.457 68.85-18.853 92.33 5.551 4.91 23.297 16.56 24.415 23.35.419 2.54.052 4.68-1.728 6.65-3.559 3.94-10.735 4.82-15.696 4.99-14.102.48-37.428-4.96-47.857-14.91-2.131-2.03-3.74-4.3-4.538-7.16-3.422-12.28-.453-39.04-.954-53.52-6.739 7.78-13.94 22.2-24.457 24.89-2.63-.98-2.497-1.18-3.875-3.68.848-9.26 20.85-37.75 25.524-50.18 3.115-8.28 1.798-16.33 8.476-23.31 8.711-9.11 22.118-10.59 30.961-19.82.217-.22.427-.46.641-.69-6.047-4.56-31.14-11.04-40.062-14.38-20.552-7.71-41.165-15.81-61.332-24.47-9.129-3.91-25.432-15.04-34.432-15.42-.836 34.56.685 69.05.923 103.6.261 37.86-1.175 86.83 4.565 123.58 4.145 26.54 15.222 52.63 24.122 77.91 3.074 8.74 5.643 18.95 9.91 27.05 3.422 6.49 9.621 11.44 13.434 17.73 2.013 3.32 3.836 8.3 2.397 12.13-1.299 3.45-4.7 5.32-8.044 6.34-17.44 5.3-43.552-.06-59.301-8.56-4.809-2.6-8.844-5.32-11.468-10.23-8.29-15.53-23.211-74.82-21.098-91.58 2.299-18.24 11.929-31.42 7.848-50.85-11.85-56.41-49.871-120.21-55.42-175.6-2.234-22.3.983-45.04 6.855-66.57 2.097-7.7 6.216-16.45 6.128-24.48-.084-7.64-3.065-15.56-5.215-22.85-35.862 33.39-69.07 69.3-103.695 103.94-25.261 25.27-59.706 55.4-80.629 83.54-1.995 2.69-3.75 5.49-4.466 8.8-4.33 20.02 2.53 59.82 5.714 80.79 5.555 4.56 11.426 8.82 16.864 13.5 3.319 2.85 8.349 8.2 8.005 12.97-.109 1.51-.697 2.95-1.788 3.99-5.381 5.14-17.585 4.52-24.603 4.59-17.885.18-40.816-2.77-54.118-15.69-4.748-20.44-8.823-40.51-11.702-61.3-3.992 10.42-11.197 36.68-21.993 41.32-1.568.67-1.078.43-2.926-.28-.676-1-1.367-1.98-1.776-3.13-3.8-10.73 11.445-57.89 16.847-69.54 2.58-5.56 5.906-11.05 10.144-15.49 5.722-6 13.092-8.98 20.066-13.22 13.77-8.35 24.39-20.54 33.471-33.67 22.148-32.02 38.132-68.5 55.805-103.11-30.035 1.8-66.111 3.05-93.572-11.11 24.604-26.6 44.638-54.68 62.28-86.35-6.338-7.27-14.581-13.64-21.625-20.28-63.937-60.24-103.908-144.6-125.535-228.67-4.096-15.92-9.905-33.09-10.417-49.57l-.168-.72c-4.616-12.67-2.569-28.42-5.589-41.76-3.179-14.09-2.147-33.69-2.285-48.34-.826-88.189 7.959-166.402 26.824-252.524 5.261-24.016 10.556-52.081 22.119-73.85-1.793-2.363-3.673-5.345-4.507-8.208-2.167-7.443 3.304-15.041 6.794-21.249-6.876-9.701-18.746-17.239-21.432-29.527-2.405-11.001 3.738-20.317 9.352-29.131-3.658-4.965-6.071-9.387-7.231-15.53-5.229-27.696 24.193-26.762 30.631-33.231.99-.994-.866-25.604 7.767-37.651 2.846-3.972 6.439-6.813 11.359-7.565 9.508-1.453 17.736 3.644 25.047 8.926 1.574-4.363 3.324-8.732 5.719-12.718 4.964-8.265 12.194-11.627 21.09-14.096 7.352-4.458 17.538-26.76 22.52-34.891 18.566-30.3 39.923-59.368 62.024-87.152 82.382-103.566 176.969-176.342 299.685-226.359 34.083-13.892 66.664-25.434 102.48-34.053l-.256 302.228c-.002 17.325-2.311 118.364 1.181 127.993l1.035-1.302c24.926-14.511 64.297-29.63 93.59-21.272 17.6 5.021 28.409 25.188 36.336 40.292 5.641 10.75 8.781 28.042 14.574 36.37 3.208 4.612 9.307 6.555 12.729 11.259l.67.583a61 61 0 0 1 1.927 1.604c8.066 7.066 3.404 18.291 4.064 27.74.582.694 3.015 3.401 2.879 4.342-.462 3.192-3.119 6.903-3.888 10.277-1.8 7.895.004 18.643-.301 26.926-.204 5.542-.85 11.018-5.336 14.801-7.037 5.934-24.78 3.199-33.535 2.789-2.239 13.522-3.198 26.936-3.621 40.611 45.296-19.235 97.443-27.613 145.415-38.53-19.572-18.818-38.29-38.649-57.624-57.733-19.212-18.963-48.699-42.316-62.115-64.833-5.099-8.556-5.665-18.984-6.798-28.653-3.011-.793-6.535-2.513-8.293-5.128l.614-2.058c3.25-2.759 6.748-3.86 10.692-5.233a475 475 0 0 1-4.764-1.112c-3.705-.882-9.636-1.629-11.698-4.979l.801-.89c1.947.386 3.177.639 5.173.41-1.061-1.184-2.205-2.383-3.118-3.685-1.422-2.03-1.733-2.879-1.163-5.261.789-.617 1.197-1.033 2.252-1.332 8.478-2.404 44.68 8.764 52.696 13.896 15.329 9.814 8.75 36.071 12.205 51.782.088.399.187.796.28 1.195 8.288 6.567 18.708 11.568 27.971 16.651l46.525 25.525c22.844 12.758 44.084 28.34 64.804 44.242l-.34-388.037-.45-120.249c-.08-19.201-1.28-39.196-.05-58.295.1-1.49.62-2.584 1.39-3.829"/><path fill="#875c5e" d="M904.552 787.952c1.242 5.031 2.56 10.035 3.39 15.153-2.047-2.649-4.177-5.261-6.024-8.054 2.08-2.529 2.06-3.927 2.634-7.099"/><path fill="#a1688a" d="M1652.18 1199.76c1.39.94 3.04 2.33 4.12 3.61 1.87 2.24 1.6 3.74 1.27 6.48-3.06-2.24-5.89-3.48-7.04-7.14z"/><path fill="#87505e" d="M871.735 630.831c4.42-1.249 7.922-1.749 11.943.458.998 2.257.278 4.453-.151 6.779l-1.82.218-.452-1.283c-1.947-2.398-4.568-5.053-7.551-5.775z"/><path fill="#843b73" d="M770.903 1037.96c.386-.02.772-.07 1.158-.07 3.799.01 6.732.89 9.465 3.51l.018 2.26c-3.453.86-4.548 1.44-8.011.34-1.757-2.12-2.2-3.32-2.63-6.04"/><path fill="#e8e1e7" d="M1368.92 1897.51c4.04-3.92 7.66-7.65 13.4-8.57l-.63 1.3c-1.47 1.53-2.26 2.18-1.88 4.54.1.63.38 1.21.58 1.81-3.64 1.16-7.68.87-11.47.92M871.735 630.831l1.969.397c-3.082 2.87-7.12 3.522-9.99 6.299-2.273-1.366-4.586-2.331-5.59-4.938 3.484-2.152 9.473-1.529 13.611-1.758"/><path fill="#a88583" d="m740.254 610.911 4.656 1.3c-.348 2.703-.787 5.418-.949 8.139-.236 2.861-.186 5.692-1.317 8.352-2.77-5.835-4.022-11.481-2.39-17.791m133.45 20.317c2.983.722 5.604 3.377 7.551 5.775-5.767 1.095-11.696.648-17.541.524 2.87-2.777 6.908-3.429 9.99-6.299m-6.767-16.362c3.025-4.1 11.883-5.729 16.8-7.382l.877.566c-5.316 5.446-10.241 7.195-17.317 9.33zm10.971-83.484c-3.104-2.288-4.226-3.392-5.247-7.11l1.277-1.985c3.139-1.547 5.933-.848 9.253-.405.021 3.106.489 5.022-1.145 7.713z"/><path fill="#e6d4e6" d="M1763.61 1882.66c3.2 1.14 6.38 2.35 9.61 3.41-1.89 4.05-3.62 9.15-6.97 12.17-1.29-.82-1.58-.96-2.32-2.36 2.22-3.86-.07-7.29-.26-11.43z"/><path fill="#87505e" d="M1567.91 617.217c-.26.553-.5 1.111-.76 1.657-1.82 3.73-6.18 6.312-9.43 8.74 4.07 1.328 11.72-2.714 16.4-3.138-9.75 4.826-20.26 7.239-30.8 9.697 8.62-5.233 16.64-10.728 24.59-16.956"/><path fill="#9c6664" d="M880.882 537.127c-2.84.824-8.542 1.664-11.367.499-2.497-1.03-2.657-1.797-3.63-4.114.38-2.652.282-3.404 1.991-5.407 2.13-.018 3.002.466 4.658 1.665 2.487 1.801 5.046 3.309 7.71 4.832z"/><path fill="#f2cc96" d="m621.111 1640.77 1.479 12.36-7.353 10.7-3.027-4.87c2.918-6.08 5.729-12.25 8.901-18.19"/><path fill="#c98562" d="M615.237 1663.83c-3.989 5.96-8.21 11.51-12.434 17.27-.376.52-.712 1.06-1.067 1.59-1.349-6.89 6.812-17.9 10.474-23.73z"/><path fill="#9c6664" d="M883.191 521.882c4.173 2.054 7.358 4.711 8.695 9.355.925 3.215.826 6.882.13 10.117-2.676-1.572-3.829-4.191-5.335-6.792l-.759-.976c-2.122-.423-4.124-.878-6.176-1.573l-1.838-.631 4.138-1.787c1.634-2.691 1.166-4.607 1.145-7.713"/><path fill="#fdfdfd" d="M1751.28 1890.55c1.32-3.44 2.38-7.28 5.08-9.89 3.17-.44 4.4.63 7.25 2l.06 1.79c.19 4.14 2.48 7.57.26 11.43-4.02-3.5-7.53-4.28-12.65-5.33"/><path fill="#87505e" d="M1418.54 1116.23c1.68.23 3.07.68 4.6 1.38 2.29 1.04 4.38 2.42 5.1 4.96 1.39 4.93-1.4 8.86-3.6 13.06-.42.79-1.23 1.68-1.78 2.39-2.94-5.07-3.22-15.8-4.32-21.79"/><path fill="#fdfdfd" d="M503.604 650.907c-.4.19-.786.412-1.199.571-4.723 1.82-13.261 2.022-17.91-.065-2.063-.926-2.904-1.707-3.577-3.89 1.297-.676 2.452-1.168 3.936-1.262 5.911-.372 10.819-.672 16.574-2.325l1.633-.479c.035 2.533.046 4.952.543 7.45"/><path fill="#875c5e" d="M753.11 1002.31c5.928-1.78 12.41-2.13 17.997.98 1.59.88 2.998 1.89 4.178 3.28-.567 2.84-.617 3.17-2.633 5.22-3.111-.15-4.195-.5-6.405-2.87-.229-.25-.439-.51-.659-.77-3.456-1.24-5.557-1.3-9.186-.86l-5.307-1.12z"/><path fill="#87505e" d="M730.507 1026.51c6.096-10.6 12.062-17.79 22.603-24.2l-2.015 3.86 5.307 1.12c-9.453 5.08-16.1 14.16-25.895 19.22"/><path fill="#fdfdfd" d="M1750.34 1893.36c1.74.43 1.31.29 3 .85 4.91 1.64 8.41 2.63 10.82 7.47.6 3.54-.99 5.75-2.61 8.73-1.97-1.99-3.84-3.9-6.22-5.41-2.93-1.86-5.99-3.57-7.33-6.83zM467.308 765.509c2.629.622 4.367 1.405 6.506 3.021 11.036 8.342 12.669 21.243 14.716 33.999-4.928-5.618-7.933-16.221-11.544-22.999-2.683-5.036-6.203-9.514-9.678-14.021m417.593-151.476c.122 1.228.252 2.468.291 3.702.062 1.941-.305 4.08-1.835 5.403-3.842 3.323-11.747 2.213-16.561 2.185l1.183.084-1.301.944.248.435-2.246 1.761-2.928-1.723-.037-1.841c3.809-5.636 15.857-7.176 22.057-10.356.379-.194.753-.396 1.129-.594"/><path fill="#87505e" d="M1619.87 568.487c1.57.173 3.99.312 5.41 1.092 2.15 1.192 2.42 1.857 2.92 4.048-1.65 5.265-5.72 7.283-10.26 9.892-2.02.375-3.39.476-5.41.104l-1.12-1.92c.67-5.242 4.71-9.742 8.46-13.216"/><path fill="#fdfdfd" d="M1380.39 1896.59c5.17 4.32 10.14 8.48 16.01 11.84l-9.38 5.36c-5.88-5.99-12.94-9.58-19.06-15.03l.96-1.25c3.79-.05 7.83.24 11.47-.92m379.88-32.22c4.3 2.31 12.51 3.64 15.53 7.03.73 3.4-1.35 6.78-2.72 9.85-5.92-.59-10.98-3.1-16.28-5.59z"/><path fill="#87505e" d="m1646.86 1206.79 9.65 8.39c-1.82 4.84-3.91 9.42-6.17 14.07-4.46-1.87-8.51-8.93-11.36-12.79z"/><path fill="#e8e1e7" d="M1339.4 1921.09c5.56 3.21 10.41 8.14 15.13 12.45-2.91 2.19-6.08 4.1-9.13 6.08-5.43-5.54-10.39-8.14-17.5-10.87z"/><path fill="#fdfdfd" d="M1350.25 1912.73c2.76 1.03 5.26 2.42 7.82 3.87 4.25 2.42 7.11 3.69 8.51 8.77-1.34 3.27-3.2 3.7-6.18 5.49l-.8.16c-5.1-1.95-11.79-9.02-16.65-12.34zm167.19-517.93c.36.51.76 1 1.08 1.55 2.54 4.36 7.48 22.22 5.95 26.53l-2.76-.02c-3.87-.96-7.79-1.75-11.68-2.61a672 672 0 0 1 7.41-25.45m253.67 438.82c6.31.42 12.65 1.28 18.95 1.94-1.64 4.53-3.42 8.83-5.47 13.19-6.5-.37-12.25-1.75-18.49-3.47 1.19-4.43 2.43-7.84 5.01-11.66m-5.4 13.31c5.64 4.44 11.35 4.7 18.23 5.43l-5.46 15.32c-5.53-2.29-11.17-4.38-16.76-6.54 1.16-4.78 2.6-9.49 3.99-14.21"/><path fill="#87505e" d="M1629.58 560.019c2.19-.053 3.48.108 5.5.955 1.62 1.877 2.63 3.343 2.98 5.868.74 5.282-1.74 10.881-5 14.916-3.4 4.231-7.94 7.161-13.46 7.43-3.9.19-6.55-.212-9.55-2.754 3 .393 5.5.498 8.4-.516 4.56-1.595 9.64-4.435 11.55-9.123 1.04-2.55.59-4.197-.41-6.596-2.43-2.261-4.69-3.123-7.79-4.266l-1.23-.445.02-.844c2.59-2.321 5.81-3.343 8.99-4.625"/><path fill="#fdfdfd" d="M1509.19 570.943c10.6.643 30.38.692 39.25 6.754l.2 2.05c-13.02 1.439-25.91 1.534-38.99 1.466.02-3.452-.19-6.829-.46-10.27"/><path fill="#875c5e" d="M737.402 642.059c.107-3.871-.514-7.683 1.737-10.899 5.125 9.047 10.892 7.86 17.883 13.647 5.477 4.533 10.139 12.029 14.149 17.893-13.051-5.423-23.769-10.522-33.769-20.641"/><path fill="#fdfdfd" d="M1362.88 1901.97c8.37 2.86 15.29 7.98 20.87 14.78l-10.48 6.46-1.53.34c-5.51-5.95-11.03-10.14-18.3-13.72zm19.44-13.03c2.19-1.99 3.14-3.02 6.18-3.45 8.6 1.81 16.38 7.56 23.08 13.07-4.35 3.6-8.69 6.13-13.66 8.75-4.8-4.25-14.37-11.01-16.23-17.07z"/><path fill="#692a49" d="M1452.01 1056.7c3.14.51 5.76.91 8.6 2.45 2.16 6.69.62 17.63.56 24.84l-1.76 1.32 1.32-.33.43.5-.47 1.19-4.99-3.52a1006 1006 0 0 1-12.61-6.32c1.57-8.12 3.2-13.88 8.92-20.13"/><path fill="#875c5e" d="M856.438 505.921c15.091.451 32.771 6.371 46.847 11.826-4.221 8.248-5.19 17.593-9.115 25.994.455-6.791-.316-14.302-2.783-20.71-2.716-7.056-17.046-2.897-24.753-5.918 2.029-.172 4.026-.414 6.042-.701-1.793-2.253-6.79-2.603-9.439-4.04-2.444-1.325-4.903-4.424-6.799-6.451"/><path fill="#f2cc96" d="M864.883 1805.74c5.571 4.6 11.362 8.88 17.164 13.18 1.301 13.19 1.14 26.69 1.424 39.95-1.341-.41-2.657-.94-3.975-1.42-6.762-9.45-11.26-38.95-14.613-51.71"/><path fill="#a1688a" d="m1546.38 592.02.36.075.42.849c-8.15 8.478-21.83 19.273-33.72 20.907-6.24.859-10.01-.911-14.92-4.579-.62-2.874-.97-7.274-.13-10.093.62-2.074 1.32-2.259 3.07-3.263 4.96.426 7.07 2.923 10.62 6.039 11.56-2.097 23.52-5.225 34.3-9.935"/><path fill="#fdfdfd" d="M1530.6 583.591c7.58-.558 14.89-.824 22.48-.431-10.46 8.83-20.6 11.98-33.64 15.214-.64.08-2.66.378-3.44.318-3.69-.284-10.78-5.421-12.78-8.498-.98-1.506-.49-2.004-.18-3.63 5.96-5.103 20.12-3.093 27.56-2.973"/><path fill="#875c5e" d="M1510.67 551.049c5.07-.016 10.02.212 15.04.946 10.07 1.472 22.68 7.1 28.49 15.831 2.26 3.393 3.23 7.656 2.22 11.582l-1.24.418-1.8-1.944c-16.97-17.742-28.53-13.589-50.46-20.801l-.52-1.41c2.24-2.662 5.12-3.441 8.27-4.622"/><path fill="#692a49" d="m572.4 1379.07 1.059.42c-14.634 16.04-31.793 28.87-49.299 41.56-2.447-4.55-1.577-12.67-1.62-17.83 15.663-9.24 33.398-16.35 49.86-24.15"/><path fill="#87505e" d="M1609.73 1158.55c5.54 4.68 10.47 10.87 15.73 15.96 8.24 7.96 17.06 15.43 25.63 23.04l-9.75 10.84-4.69 4.99a284.4 284.4 0 0 1-25.75-35.45c-5.93-9.74-3.55-9.43-1.17-19.38"/><path fill="#692a49" d="M1387.83 1872.89c18.37 2.19 36.14 3.04 54.6 1.31l1.41 1.62c.82 5.64-2.23 10.56-4.98 15.23-.37.37-.73.75-1.11 1.11-5.94 5.76-15.09 4.64-22.69 4.5-5.38-3.59-11.05-6.52-16.47-9.99-6.38-4.08-9.07-6.02-10.76-13.78"/><path fill="#87505e" d="M1402.72 1113.01c4.49.26 8.99.86 13.46 1.32 2.06 30.82-.06 37.6-10.15 66.44l-3.69 9.26c-1.04-15.79-5.77-64.3.38-77.02"/><path fill="#f2cc96" d="M1466.02 1063.92c14.41.94 28.75 1.9 43.19 2.17-.43 8.87-1.61 17.8-2.45 26.65-7.27 1.42-32.81-3.12-41.97-4.06a742 742 0 0 1 1.23-24.76"/><path fill="#692a49" d="M1810.4 1794.96c4.01-.23 6.24-.03 9.27 2.68 1.17 2.98 1.54 5.51 1.14 8.71-.91 7.31-5.96 15.3-11.71 19.78-8.79 6.84-18.56 6.09-28.88 4.52-3.39-.88-6.94-2.11-9.11-5.09-1.7-2.35-1.6-3.07-1.3-5.76 5.48-5.09 15.5-8.59 22.19-12.31 6.57-3.66 12.5-7.88 18.4-12.53m-297.33-728.68c12.86 1.39 24.5.3 37.26 3.52 2.11 6.34 9.92 22.9 9.43 28.54l-2 .55c-15.9-2.21-32-1.75-47.92-4.32a1251 1251 0 0 1 3.23-28.29"/><path fill="#fdfdfd" d="M400.072 668.115c5.546 1.262 10.142.408 15.611-.616.093 34.405 1.655 68.974 1.193 103.337-5.759-1.086-11.209-2.624-16.802-4.358-.228-13.143.48-26.328.578-39.478.146-19.602-.438-39.274-.58-58.885"/><path d="M406.308 738.381c1.604.527 2.89 1.236 4.368 2.04l.539 1.973-1.991 2.572-4.299-2.088-.584-1.724zm-3.558-33.06 6.358-.516c2.331 1.666 1.794 2.015 2.315 4.694-.357.019-.714.059-1.071.057-3.962-.032-5.185-1.619-7.602-4.235"/><path fill="#fdfdfd" d="M1455.08 1945.19c1.32-.34 1.83-.2 3.14.05 1.51 3.21.77 7.44.58 10.94-40 11.7-145.73 24.99-185.76 11.08-2.38-1.75-4.03-3-5.03-5.79l1.33-.92c45.99 16.42 138.54-4.11 185.74-15.36"/><path fill="#f2cc96" d="M632.507 1612.69c2.512 15.09 4.015 31.83 3.642 47.07-.342 14.01-2.073 27.75-.952 41.79 8.761 6.21 21.548 5.23 31.853 5.48 4.951 5.03 18.803 14.37 20.259 20.42-.913 3.15-1.92 3.79-4.236 6.03-14.615 2.08-38.184-2.83-50.086-11.83-2.456-1.86-4.603-3.76-4.952-6.86-1.963-17.43.128-35.21-.464-52.72-.382-11.31-3.783-23.89-2.446-35.04.638-5.33 4.108-10.3 7.382-14.34"/><path fill="#fdfdfd" d="M758.985 983.809C811.2 999.948 864.389 1005 918.722 1005.06c.846 3.82 1.482 7.36 1.667 11.27l-1.36 1.14c-39.719 1.94-80.539-3.76-119.469-11.14-14.571-2.76-28.503-8.662-43.399-9.519.866-4.346 1.878-8.672 2.824-13.002M1861.45 1848.69c3.63 3.65 5.35 9.01 7.25 13.7-12.47 17.85-56.23 59.33-74.16 73.32-28.21 22.02-60.82 24.35-95.66 20.02-.48-.12-.98-.21-1.46-.35-3.03-.9-4.94-2.18-6.38-5.01l.45-.9c5.13-2.13 10.95 1.16 16.51 1.21 12.87.09 26.22-1.31 38.89-3.42a83.1 83.1 0 0 0 32.96-13.28c18.94-12.71 67.55-65.66 81.6-85.29"/><path fill="#f2cc96" d="M485.179 1787.57c9.117 17.54 10.187 71.33 24.719 81.07 12.146 8.15 35.624 3.17 48.971.69 6.66 8.46 15.638 17.76 16.337 28.98-12.229 4.82-27.813 3.73-40.475 1.01-10.284-2.21-24.515-6.62-30.132-16.12-7.907-13.39-19.51-61.9-20.788-77.72-.509-6.3-.033-11.78 1.368-17.91"/><path fill="#4a2633" d="M1603.01 559.998c-.13 2.593-1.72 4.833-3.06 7.018-19.01 30.977-40.44 64.458-78.68 72.623-9.82 2.098-16 .514-24.18-5.048-2.01-2.164-3.6-4.675-5.29-7.086 2.39-3.666 4.27-7.587 6.24-11.492 3.06 1.04 6.28 2.163 9.5 2.586 4.08.536 9.58-.115 13.25-1.935 15.11-7.481 26.47-20.2 40.16-29.628 13.77-9.479 28.75-16.769 42.06-27.038"/><path fill="#f2cc96" d="M194.112 1643.72c2.909 2.37 3.008 12.74 3.587 17.08 3.591 26.91 7.451 53.47 16.101 79.31a1383 1383 0 0 1 42.089-3.36c5.333 3.81 15.635 9.86 18.514 15.81 1.263 2.61 1.132 3.05.191 5.57-1.665 1.3-3.078 2.05-5.132 2.48-16.435 3.4-47.399-1.01-61.71-10.12-12.512-20.27-10.964-60.91-16.658-84.88-1.581 6.65-3.281 13.25-5.408 19.76-2.495 7.63-11.737 34.76-17.9 37.87-1.526-2.13-1.287-3.7-1.068-6.22 1.289-14.92 12.914-51.83 20.02-64.72 1.914-3.48 4.441-5.96 7.374-8.58m674.135 132.88c14.839 14.22 27.513 33.32 38.524 50.65 2.932 4.61 9.647 18.06 14.275 20.36 11.332 5.61 32.059-1.19 42.999-5.6 8.398 4.05 17.708 8.71 24.98 14.56 4.529 3.64 6.358 5.75 6.942 11.62-19.884 5.03-56.888 2.94-76.429-3.1-12.763-12.19-17.398-30.66-29.023-43.94-7.152-8.17-23.219-13.92-26.675-24.68-2.368-7.37 1.305-13.41 4.407-19.87"/><path fill="#fdfdfd" d="M1533.09 662.335c1.02 1.215-3.36 22.528-3.99 26.3-8.47 51.244-17.98 102.713-9.33 154.731-5.77-11.87-8.42-27.322-11.86-40.132-4.09-18.328-9.55-36.348-13.84-54.645 5.06-7.718 11.49-14.458 17.84-21.111-2.63-5.967-7.06-11.181-10.11-17.086 5.3-6.232 5.37-13.851 5.46-21.545-2.55-1.791-5.79-3.432-7-6.412 5.58-6.778 13.1 1.444 17.57.38l.92-1.744c-1.59-3.386-5.01-4.895-6.44-8.207-.58-1.341-.07-1.786.4-3.036 5.39-5.253 13.3-6.038 20.38-7.493"/><path fill="#87505e" d="M390.531 973.407c17.453-1.055 35.334 1.33 52.744 2.713 24.623 1.955 48.951 3.317 73.656 2.446.047 4.934 1.588 13.987-.944 18.283-1.505 2.556-4.135 2.482-6.742 3.043-35.12 4.668-80.987-1.922-116.567-5.619-4.031-4.15-12.093-14.499-12.611-20.165 3.436-.586 6.984-.574 10.464-.701"/><path fill="#fdfdfd" d="M1645.1 650.379c9.19 3.264 19.5 12.237 27.39 18.041-8.34 19.335-12.27 39.379-16.53 59.886-7.21-.838-14.48-1.371-21.72-2.021-9.87-1.048-19.61-1.273-29.53-1.373 12.24-24.976 24.99-51.355 40.39-74.533"/><path fill="#e8e1e7" d="M1687.03 1459.26c22.66 2.17 59.48 13.51 79.63 12.32l1.02.92c-7.18 1.4-38.03 31.24-47.63 38.29-10.39 7.63-22.61 15.11-34.74 19.51 2.1-23.25.76-47.61 1.72-71.04"/><path fill="#875c5e" d="M662.855 1593c5.482 9.59 10.426 13.52 20.203 18.08-17.21 26.83-15.335 59.69-18.223 90.17-3.012 1.41-7.692.68-10.988.59-4.817-.41-9.633-.5-13.762-3.23-2.346-3.36-1.453-7.88-1.114-11.74 1.207-13.73 2.731-27.07 1.455-40.87-1.129-12.22-4.234-24.1-4.111-36.43 9.655-4.84 18.499-9.17 26.54-16.57"/><path fill="#fdfdfd" d="M1603.13 727.548c9.02 11.148 18.84 21.222 29.07 31.23-9.25 14.076-19.47 27.517-28.54 41.73-13.77 21.584-25.56 44.404-37.17 67.196a394 394 0 0 1-9.77 19.181c8.58-53.308 22.04-110.914 46.41-159.337"/><path fill="#a1688a" d="M1461.58 946.744c1.22 10.432.01 21.582-.33 32.077-.81 24.839-2.33 49.689-.15 74.489-4.18-.68-8.36-1.11-12.57-1.53-1.06 1.42-2.06 2.86-2.95 4.4-3.42 5.88-7.11 13.76-4.91 20.59 1.53 4.77 6.14 6.49 10.22 8.67-8.06 10.35-13.92 21.49-19.44 33.34-2.46-2.37-5.01-4.14-7.88-6-7.1-1.91-14.08-4.01-21.47-4.28 4.29-20.6 13.18-40.99 20.66-60.62 12.85-33.76 26.23-67.267 38.82-101.136m39.77-252.682c.45 2.471-1.12 6.751-1.68 9.246l1.76-1.996c-.17.956 0 .471-.75 1.535-1.51 2.125-2.75 3.838-3.63 6.339.7 7.213 5.87 11.657 10.5 16.792-7.4 6.523-12.96 15.209-18.42 23.335 1.45 6.758 4.32 13.574 3.73 20.577-.88 10.335-6.52 21.236-8.9 31.489-7.21 31.021-14.05 63.776-17.7 95.383-.44 4.897-1.33 9.724-2.15 14.568-.91 1.118-.66.62-.98 1.359l.91-1.237-1.35.279c-4.92-47.649-4.21-149.464 11.65-193.607 5.15-14.343 14.35-17.842 27.01-24.062"/><path fill="#875c5e" d="M869.61 1732.71c11.794.73 23.589.44 35.378-.14 2.759 12.86 5.36 25.63 11.171 37.53 10.967 22.46 27.213 40.46 40.029 61.06 1.511 2.43 2.874 4.4 3.073 7.33l-2.392 1.69c-7.853 2.56-17.134 4.45-25.42 4.52-2.659.03-6.13-.22-8.471-1.65-3.901-2.39-12.911-19.13-16.081-23.96-10.639-16.22-22.353-32.58-36.262-46.14.839-13.56.005-26.73-1.025-40.24"/><path fill="#fdfdfd" d="m713.877 853.379 1.701.64c10.731 25.242 19.799 50.954 28.831 76.836 3.981 11.406 9.789 24.333 11.182 36.355 1.189 10.262-2.4 22.539-5.229 32.316-20.231 13.214-19.488 31.114-34.088 42.724l-1.73-1.11c-1.51-13.21-.49-27.3-.498-40.66l-.097-80.124c-.036-14.097-2.535-55.866-.072-66.977M1447.66 1887.4l2.4 1.47c5.32 9.65 7.2 37.44 8.02 49.32-10.59 4.65-23.04 6.92-34.34 9.39-42.74 9.36-108.37 20.75-150.84 9.54 14.56-12.85 33.81-19.16 51.68-26 7.91 4.07 14.09 8.46 18.9 16.1 23.19-16.9 49.39-28.78 72.9-45.2 4.05.13 8.39-.01 12.38-.73 9.12-1.64 13.77-6.77 18.9-13.89m378-87.82c12.82 8.7 26.7 30.61 33.41 44.41-5.03 7.1-10.7 13.86-16.39 20.44-11.53 13.32-24.07 25.88-36.3 38.56-31.02 32.15-42.81 39.98-88.26 43.16-7.24.61-14.83.72-22.09.32l-.32-1.17c5.38-11.81 24.7-21.22 35.04-29.1 5.17-3.94 9.83-8.22 14.39-12.84 5.61 4.23 10.74 8.95 16.51 13.03 14.96-15.09 25.92-59.93 32.69-80.67 7.41-.71 13.2-1.78 19.01-6.76 8.51-7.3 11.38-18.66 12.31-29.38"/><path fill="#875c5e" d="M891.004 941.601c4.951-.501 9.981-.59 14.952-.831 5.419 19.083 7.736 39.838 11.688 59.34-42.302.29-80.921-3.389-122.381-11.868-11.939-2.232-23.772-5-35.271-8.939l.017-21.383c43.399-9.042 86.875-13.22 130.995-16.319"/><path fill="#e8e1e7" d="m709.733 857.087 4.144-3.708c-2.463 11.111.036 52.88.072 66.977l.097 80.124c.008 13.36-1.012 27.45.498 40.66l1.73 1.11c-2.652 3.19-5.907 5.78-9.046 8.48-11.459-19.35-25.029-37.25-37.928-55.642a2223 2223 0 0 1-35.644-53.254c7.196-9.143 15.987-17.601 23.862-26.195 17.669-19.283 35.489-38.436 52.215-58.552"/><path fill="#4a2633" d="m709.733 857.087 4.144-3.708c-2.463 11.111.036 52.88.072 66.977l.097 80.124c.008 13.36-1.012 27.45.498 40.66l-1.412 1.53c-4.24-5.54-.495-161.299-3.399-185.583"/><path fill="#875c5e" d="M1561.63 455.745c14.52 2.29 33.71 10.813 45.5 19.622 4.9 3.654 10.23 8.71 10.89 15.151.85 8.251-5.39 15.065-6.74 22.944-1.97 11.529 5 24.512-3.2 34.773-6.86 8.574-38.35 34.303-48.67 35.38.43-1.4.89-2.79 1.13-4.237 2.55-14.913-17.33-25.793-29.02-29-6.98-1.915-15.42-1.555-22.02-4.402-2.69-1.164-4.9-3.652-6.54-6.022-1.69-2.445-2.7-5.361-1.62-8.289 2.43-6.573 17.01-9.487 23.1-11.217 10.07-10.615 12.86-26.16 18.96-39.134 4.6-9.781 10.73-17.849 18.23-25.569"/><path d="M1539.18 502.238c8.61 1.743 17.45 2.64 25.63 5.964 4.91 1.994 12.5 7.322 14.62 12.33-2.05-.864-3.95-2.008-5.82-3.207-9.26-5.923-18.83-6.71-28.84-10.414-2.93-1.086-4.23-1.884-5.59-4.673m6.52 12.701c4.66.27 9.58.62 13.83 2.755 2.37 1.192 2.92 2.073 3.66 4.537-1.63 3.077-3.12 3.662-6 5.521-12.82-.362-4.95-4.965-10.48-9.595l-2.13 3.219-1.06.183c-.59-2.952.73-4.058 2.18-6.62m6.03-24.665c.94-.052 1.87-.108 2.81-.101 7.3.059 13.65 3.129 18.65 8.439 4.28 4.543 7.46 10.345 7.1 16.716l-.98.421-1.55-2.172c-1.43-4.01-3.34-7.976-5.96-11.357-6.46-8.336-17.96-6.918-27.41-7.819l-.78-1.085c2.43-1.858 5.21-2.32 8.12-3.042"/><path fill="#fdfdfd" d="M1495.16 774.589c1.25 2.343 21.94 73.811 22.06 76.21.76 16.058-5.54 37.873-7.52 54.395l-12.45 108.086c-1.46 13.43-1.73 35.52-5.18 47.14l-1.87.82-23.76-.77c-.17-1.15-.32-2.31-.49-3.46-2.86-18.62-1.29-38.82-.93-57.654.58-30.518 1.31-60.851 4.5-91.229 4.65-44.401 14.32-90.398 25.64-133.538"/><path fill="#875c5e" d="M391.733 660.685c.139.113.289.214.417.34 2.732 2.702 3.589 5.612 4.207 9.343 1.65 9.963.857 20.745.789 30.83-.145 21.923-.953 43.793-1.274 65.703a121 121 0 0 0 2.966 1.751c5.202 3.002 15.395 8.386 21.267 6.767 3.636-12.054.768-70.853.653-87.591 15.197 1.787 29.797 4.788 44.585 8.66-5.319 10.98-14.203 20.228-17.053 32.337-1.289 5.476-3.484 32.354-.678 36.448 2.946 4.298 8.635 2.424 13.091 3.302.361.071.721.15 1.075.248 3.135.867 5.202 3.06 6.986 5.649 7.626 11.068 11.393 24.233 18.264 35.737 11.917 19.953 26.548 37.358 39.981 56.193.676 1.326 1.241 2.705 1.838 4.067-16.846-9.672-34.024-18.871-50.876-28.595-.437-5.844-.363-12.302-3.43-17.462-2.999-5.048-5.89-10.348-9.291-15.13-1.233-1.732-2.23-3.657-4.363-4.031-1.466 6.134 7.579 16.08 9.957 21.83 1.528 3.693 1.804 8.565 2.359 12.528-12.357-5.009-23.995-12.425-35.315-19.415-31.53-19.47-60.664-41.891-90.929-63.196 10.414-.391 21.384-2.116 29.5-9.228 7.397-6.481 10.259-16.064 10.474-25.635.206-9.193-1.391-26.227-7.713-33.032-1.764-.655-3.229-1.258-4.877-2.19-.036-.466-.11-.93-.109-1.396.034-9.047 11.571-18.627 17.499-24.832"/><path fill="#f2cc96" d="M772.302 1399.77c2.319 2.59 3.113 6.05 4.286 9.29 9.27 25.57 6.777 51.64 7.291 78.36-12.467 15.46-89.014 113.26-97.3 118.22-1.733 1.03-2.405.35-4.275-.09-7.828-4.32-12.218-8.12-15.765-16.46 14.527-25.58 26.172-54.63 37.292-81.91 10.106-24.79 19.188-49.49 34.931-71.47 9.693-13.54 21.32-24.75 33.54-35.94"/><path fill="#e8e1e7" d="M784.745 1493.8c4.318 36.72 16.763 70.06 29.345 104.56 5.888 16.15 11.327 32.49 17.584 48.5-27.67-6.75-128.675-20.87-143.796-35.52 13.71-12.47 25.041-29.42 36.83-43.84 20.12-24.61 40.751-48.37 60.037-73.7m-680.404-440.62c11.65 4.62 31.208 5.48 44.238 7.7a6423 6423 0 0 1 123.017 22.43c20.335 3.86 43.571 5.14 62.367 13.86-2.139 16.35 1.505 30.9 6.198 46.49-28.752-4.15-223.537-50.4-230.231-48.72-4.616-12.67-2.569-28.42-5.589-41.76"/><path fill="#875c5e" d="M406.779 606.839c8.108-12.503 29.566-19.626 25.276-37.841-.968-4.107-4.124-8.077-3.591-12.157 5.927-4.173 19.721-2.587 27.035-2.601 7.508 5.272 15.849 10.782 20.516 18.93 4.245 7.411 2.624 17.352 8.694 23.956 5.011 5.451 15.855 3.529 17.531 11.783.55 2.712-.08 5.404-1.693 7.66-2.348 3.282-8.718 6.196-8.706 10.367 2.933.787 6.613.686 8.21 3.468 1.421 2.475 2.033 6.051 2.754 8.838-14.202 5.905-14.593 4.716-28.805 2.079-.73 2.089-.437 3.151.571 5.074 6.98 13.325 29.422 20.474 32.066 35.903-.946 3.12-1.78 4.617-4.739 6.18-25.535 13.493-55.253-1.865-81.904-3.652-.061-5.168-.791-11.31.494-16.309 2.658-1.535 3.774-1.744 5.091-4.587-.368-2.297-.357-3.151-1.843-5.017-1.051 1.54-2.082 3.073-3.043 4.67-6.72 1.109-15.017 3.299-20.849-.958-7.492-5.469-19.52-17.325-20.732-26.801-.493-3.861.046-7.835 2.473-10.979 2.344-3.036 6.801-6.342 10.774-6.483 7.405-.263 19.722 12.791 23.566 9.794-1.09-4.822-3.453-5.752-7.491-8.314l-1.202-.755z"/><path d="M472.273 597.934c1.586.289 2.45.874 3.822 1.683l.07 2.012c-2.368 2.928-4.626 3.892-8.052 5.344-2.411-.626-3.637-.978-5.379-2.797l.083-1.613c2.719-2.711 5.873-3.465 9.456-4.629m-6.641-18.13c3.698.239 5.608 1.15 8.189 3.835 1.119 1.163.926.643.864 1.967-1.996 1.952-5.389 1.642-8.149 1.965-8.427.988-16.724 7.202-24.009 11.421-2.14.988-2.562 1.846-4.869 1.02 3.114-6.131 21.412-17.427 27.974-20.208m-76.925 45.218c5.226-.276 10.771-.045 15.055 3.304 5.193 4.06 12.15 11.424 12.451 18.427.103 2.403-.864 4.649-2.67 6.248-1.729 1.532-4.086 2.178-6.354 2.198a9.14 9.14 0 0 1-6.915-3.058c-2.386-2.722-2.744-5.343-2.512-8.758 1.742-1.586 3.426-2.664 5.436-3.86 2.913-.079 4.466 1.511 6.671 3.18l1.019.785.443-.893c-1.717-3.538-3.502-7.311-6.372-10.082-2.503-2.417-6.281-4.758-9.91-4.131-4.192.725-6.296 4.481-8.462 7.706l-.805 1.217c-.123-.607-.259-1.211-.37-1.821-.79-4.338.993-7.026 3.295-10.462"/><path fill="#e8e1e7" d="M555.526 1126.39a9408 9408 0 0 1 138.972 23.36c2.979 29.05 13.259 57.8 21.927 85.57-48.464-11.7-98.013-22.85-147.059-31.77-2.451-16.7-5.913-33.34-9.194-49.89-1.681-8.48-4.932-18.66-4.646-27.27M320.302 883.588c4.558 4.234 8.347 10.876 11.697 16.118 14.279 22.34 25.608 46.884 38.904 69.875 5.042 8.719 9.909 17.945 16.328 25.737-14.67 23.112-24.297 48.892-39.976 71.612l-7.926-7.1c-24.665-23.85-58.719-57.51-74.983-87.77 22.36-27.315 38.644-57.892 55.956-88.472"/><path fill="#fdfdfd" d="M1614.7 695.05c-1 8.876-16.19 29.74-20.69 39.665-8.71 19.208-14.24 48.209-23.69 64.435-7.64 13.132-21.45 20.415-27.35 34.975 8.83-9.124 17.9-18.1 26.11-27.797-5.92 24.097-12.47 48.312-16.06 72.898-5.66 38.689-6.02 79.488-6.3 118.584-.08 12.46-.42 25.01.21 37.46.44 8.84 3.61 20.3 2.28 28.84l-1.59-.05c-15.2-4.38-34.89-1.5-50.9-1.9a4636 4636 0 0 1 15.49-139.901c2.48-20.036 5.47-52.642 11.22-71.529 2.22-7.293 5.77-14.504 8.57-21.63 19.68-49.946 48.13-93.169 82.7-134.05"/><path fill="#a1688a" d="M1501.35 1330.73c4.97 8.07 12.03 44.32 14.79 56.09-5.02 12.28-8.52 25.34-12.47 38-7.75 24.85-15.26 49.87-24.01 74.39-2.04 5.7-3.34 13.54-6.6 18.52l-4.04-.31c-1.83 4.12.07 9.49 1 13.75 4.87 22.3 7.57 44.14 7.84 66.99.22 19-1.27 38.22-3.12 57.12-5.07 51.69-13.48 102.99-18.32 154.78-.88 9.38-3.01 53.05-5.38 57.43l-3.31.76c-5.39 1.25-10.88 2-16.35 2.84-.54-28.29 4.59-62.43 7-91.04 6.39-75.66 14.65-151.19 19.77-226.96-1.69-2.31-3.48-4.65-4.93-7.11-2.71-4.61-4.62-9.5-4.4-14.92.71-17.48 7.54-36.88 12.02-53.86 12.89-48.95 28.98-97.23 40.51-146.47"/><path fill="#875c5e" d="M1567.91 617.217c4.84-5.673 10.52-11.128 14.61-17.366 10.67-16.286 22.46-46.395 44.61-47.994 2.79-.202 4.82.504 7.39 1.503l1.09 1.63-.9 1.399c-.38.062-.76.12-1.14.186-9.43 1.647-16.13 6.898-21.46 14.752-2.42 3.564-5.47 8.89-4.84 13.381.38 2.726 1.7 4.779 4 6.277 3.4 2.224 9.71 1.168 13.65 1 1.09 21.931-1.47 38.958 16.46 54.936.25.221.51.434.76.651-7.13 11.092-14.08 22.488-21.98 33.057-14.75 19.748-31.1 38.443-45.21 58.648a476 476 0 0 0-45.73 83.476c2.86-18.504 9.64-39.123 9.04-57.696l-.79.307c-7.66 24.935-6.76 51.714-14.4 76.577-.14-24.473-2.22-48.942-1.05-73.403 1.2-25.195 6.13-50.271 10.36-75.095 1.3-7.653 2.3-15.584 4.46-23.042 2.62-9.041 8.67-19.087 9.08-28.4.06-1.329.13-2.645.17-3.976 23.09-5.847 47.91-12.562 64.76-30.443-12.42 3.985-23.96 15.088-36.73 16.894-4.68.424-12.33 4.466-16.4 3.138 3.25-2.428 7.61-5.01 9.43-8.74.26-.546.5-1.104.76-1.657"/><path fill="#a1688a" d="M1732.94 1115.8c8.5 6.25 16.24 14.04 24.37 20.8 21.41 17.8 51.88 36.71 64.85 61.8-21.68 27.55-52.83 44.89-83.13 61.37-5.86 3.02-11.88 5.59-17.93 8.19-22.38-20.34-43.92-47.81-64.45-70.61 14.8-11.27 26.47-26.77 38.66-40.73a865 865 0 0 1 37.63-40.82"/><path fill="#4a2633" d="M1587.02 428.331c33.21.637 95.3 30.815 118.04 54.297 7.48 7.72 11.28 16.522 10.89 27.324-1.39 38.426-36.73 75.835-63.13 100.601-7.08 5.5-12.74 7.942-21.52 9.677-.68-9.906-1.58-19.811-2.37-29.71 3.49-2.729 6.62-5.202 8.75-9.171 3.74-6.972 5.29-15.944 2.63-23.546-1.18-3.382-3.34-6.198-6.64-7.714-7.54-3.462-15.65-.019-22.84 2.681l.39-.865.6-1.453c5.36-12.606 1.28-23.203 3.2-35.891.99-6.56 5.36-12.333 6.46-18.942.99-5.952-1.15-12.005-4.8-16.676-11.15-14.288-37.91-23.48-55.38-25.79-.96-5.76-1.48-9.677 2.18-14.64 5.39-7.307 15.09-9.108 23.54-10.182"/><path fill="#e8e1e7" d="M1509.59 1421.94c5.6 1.09 11.1 2.69 16.61 4.15 4.74 12.5 8.35 25.5 12.42 38.24 14.11 44.16 27.22 88.34 50.05 128.94-9.47 3.73-17.88 9.9-27.07 14.26-25.22 11.96-53.45 23.4-80.58 30.15 2.34-41.66.91-70.02-6.54-111.32 6.25-11.54 9.78-25.27 13.87-37.74z"/><path fill="#875c5e" d="M432.193 1446.88c2.211.04 2.692-.01 4.548 1.14-.131 2-.253 2.42-1.599 4.02-10.072 11.98-23.43 22.61-34.547 33.82l-91.159 92.95c-19.055 19.25-39.724 36.9-56.432 58.38-2.071 2.67-4.329 5.71-5.344 8.95-6.073 19.41 1.708 64.82 4.544 86.13-10.025.64-20.262 2.62-30.262 2.71-3.12.03-4.399-.12-6.696-2.23-8.444-30.15-12.055-61.01-16.433-91.93 10.96-8.49 23.317-15.18 33.001-25.22 23.241-24.12 37.863-57.91 52.899-87.42 6.063-11.91 13.612-24.43 17.416-37.24 28.843-5.01 58.749-11.79 85.899-22.87 15.062-6.14 29.584-13.98 44.165-21.19"/><path fill="#a1688a" d="M1662.4 1210.48c11.46 9.27 21.64 24.37 30.71 36.21.37 26.46-3.22 53.9-4.55 80.4-3.43 68.41-7.24 136.7-7.23 205.23 12.15 17.39 28.71 31.05 39.71 49.31 9.94 16.5 17.7 34.51 25.6 52.04 13.2 29.34 25.75 59.1 40.08 87.9 3.51 7.06 30.31 55.71 30.75 58.87.23 1.71-.94 2.17-2.02 3.31l-8.63 7.39c-9.63-14.33-17.69-29.49-26-44.61-37.78-68.68-67.98-143.28-122.48-200.89-1.59-25.89-.63-52.41-.87-78.39l-1.33-100.04c-.25-44.67 0-89.31-2.81-133.92 3.58-7.36 6.25-15.13 9.07-22.81"/><path fill="#f2cc96" d="M729.427 749.67c.525.111 1.054.204 1.574.334 2.713.673 4.81 2.272 6.879 4.084 6.52 5.709 12.196 12.517 18.508 18.49 10.457 9.897 21.536 19.274 32.46 28.655 21.55 18.507 45.31 35.117 64.769 55.933 9.33 9.982 16.204 22.982 23.488 34.513 3.633-8.754 6.884-17.462 7.739-26.965 1.181-13.117-1.424-26.977-2.565-40.061-2.017-23.127-2.603-45.923-8.079-68.605 7.737 11.476 13.57 24.349 20.838 36.162 7.753 12.601 19.596 25.103 25.108 38.772 5.298 13.138-4.077 36.383-9.515 48.387-.675.459-1.348.923-2.039 1.358-28.279 17.812-67.044 25.191-99.706 17.652-10.742-3.694-21.545-9.362-30.015-16.969l-1.168-1.062-1.797.393-.654 1.448c.183.417.331.85.548 1.249 4.366 8.065 20.131 15.303 28.648 18.105 33.707 11.09 74.513-.279 105.046-15.491-1.941 16.882-3.249 33.587-3.332 50.589-49.048 2.84-100.873 4.784-148.395 18.144-10.579-27.284-18.607-55.364-29.836-82.425 8.026-1.015 13.093-2.732 18.67-8.962 10.501-11.734 11.126-28.788 10.126-43.675-1.097-16.343-3.155-39.668-11.994-53.954-3.926-6.345-9.738-11.255-15.306-16.099"/><path fill="#875c5e" d="M892.035 560.038c1.97-5.083 12.898-38.468 13.731-39.29 2.173.916 2.628 2.609 3.414 4.736 5.092 13.771-.785 31.94 6.268 44.179 1.552 2.693 3.857 5.155 6.418 6.917 7.763 5.338 16.953 9.684 25.244 14.235 22.86 12.547 46.225 24.063 68.06 38.389 22.45 14.726 44.19 30.959 62.25 50.949-31.94 50.198-115.58 84.867-170.534 103.293-2.442-11.033-4.761-21.866-9.463-32.208.281 12.366 4.134 24.751 7.129 36.714-.574 3.172-.554 4.57-2.634 7.099-11.342-17.239-26.339-50.813-39.719-64.126-3.091-3.077-7.04-5.48-10.665-7.885 26.088-12.06 56-17.494 83.95-23.652l58.509-13.216c4.97 3.363 9.757 7.105 15.667 8.582-1.14-5.623-18.014-16.286-22.783-20.779-18.051-17.003-34.678-35.757-52.495-53.092-16.124-15.687-34.307-30.321-49.064-47.231-6.67-7.643-12.965-16.311-16.515-25.887-1.151-3.104-1.456-4.635-.057-7.647l1.819.374 1.694 2.974c3.654-2.263 7.821-3.362 11.895-4.622l.548-1.054-3.82-.663-.638-2.525 6.437-.04c1.506 2.601 2.659 5.22 5.335 6.792 1.828 6.016.33 12.492.019 18.684M713.966 752.147c6.362-.22 10.815-.206 16.293 3.447 11.957 7.975 16.154 22.305 18.541 35.694 3.457 19.401 7.973 49.53-4.468 66.644-5.062 6.963-9.766 8.778-18.077 9.987-2.69-6.596-5.52-13.04-8.651-19.438 6.62-6.511 13.802-12.344 20.279-19.034-8.964 4.131-16.024 9.786-23.132 16.558-10.202 9.719-19.01 21.29-28.41 31.811a3033 3033 0 0 1-57.005 62.735c6.001 12.467 14.716 24.256 22.316 35.799a2730 2730 0 0 0 54.746 79.47c11.26-6.7 17.697-17.39 26.886-26.3 7.468-7.25 16.624-13.35 25.424-18.86 6.669 5.49 16.398 10.88 21.334 17.92l-1.415 1.75c-7.953 2.65-13.16-8.17-21.119-8.33-3.937-.08-5.689 1.73-8.233 4.38-.253.26-.5.53-.75.79l3.034 1.02 3.393-1.85c4.939.53 11.886 6.01 16.831 8.35-1.992 1.99-4.274-1.39-7.184-.4l2.278 4.23c-1.101-.1-1.933-.29-2.944-.74-5.947-2.68-12.931-4.22-19.449-4.48l-2.16 2.5.273 1.82c3.646 2.34 13.725 2.02 18.637 2.88 1.98 2.02 3.987 3.13 4.261 6.02-3.89 2.24-13.297.43-17.948.17-10.7 10.31-16.27 24.01-31.259 29.61-4.206 1.57-11.835 3.44-16.063 1.28-10.786-5.52-22.514-20.71-31.844-29.41-18.699-17.44-94.687-80.782-100.419-102.378-1.418-5.344.983-10.86 3.752-15.268 6.761-10.763 14.843-20.95 22.154-31.373a6529 6529 0 0 1 43.468-62.058c13.924-19.682 38.095-58.062 54.269-73.243 6.723-6.311 13.423-9.657 22.361-11.703"/><path fill="#fdfdfd" d="M330.364 757.027c3.033.085 6.278.015 9.14 1.147 12.973 5.132 29.909 20.284 41.753 28.785 23.278 16.706 46.613 33.36 71.522 47.592 18.502 10.571 64.738 31.518 78.24 43.756 4.732 4.289 7.318 10.849 7.411 17.188.138 9.441-4.728 17.921-9.833 25.514-4.515 6.716-9.217 14.267-15.544 19.423-15.072 12.283-62.938 16.732-67.927 21.828l1.691 1.29c17.521 1.274 53.998-11.303 69.533-19.199-.307 9.779.229 19.631.503 29.41-31.02 3.442-63.934-.851-94.977-3.353-11.975-1.359-23.814-.608-35.812-.617-3.748-.003-8.052.301-10.819-2.469.946-2.02 2.479-2.772 4.427-3.692 7.413-3.5 15.944-5.475 23.678-8.252 16.443-5.903 33.794-12.765 49.091-21.211 12.527-6.917 40.163-23.693 44.172-37.522-.976.192-34.725 26.386-40.198 29.737-26.925 16.488-55.814 24.485-85.107 35.135-10.535-18.476-20.473-37.151-30.297-56.007 6.716-1.776 10.35-3.778 14.165-9.793 13.39-21.106 9.417-68.157 3.851-91.359-4.379-18.252-12.1-37.262-28.663-47.331"/><path fill="#5b3a3e" d="M748.956 680.823c-4.921-2.075-11.359-2.133-16.678-3.206-12.999-2.623-20.951-10.937-27.995-21.583-13.246-20.017-21.121-47.28-16.214-71.181 4.418-21.517 17.476-42.836 35.981-54.953 24.166-15.824 62.906-28.597 91.954-21.846 13.945 3.241 19.614 14.131 26.738 25.383-4.864.327-9.642.767-14.426 1.742-12.09 2.465-24.336 7.636-31.077 18.542-5.186 8.391-9.704 22.945-8.901 32.822.29 3.569 2.041 6.865 2.714 10.358.627 3.258-.071 5.904-2.029 8.533-8.103 10.875-29.684-6.687-41.249-4.695-3.168.546-5.522 2.488-7.154 5.182-4.902 8.092-3.819 16.642-1.481 25.239-2.251 3.216-1.63 7.028-1.737 10.899l-.917-.999c-12.233-13.49-23.882-30.784-23.203-49.777.529-14.813 8.163-31.243 19.26-41.185 3.213-2.879 6.732-5.485 10.171-8.089l.027-.768c-12.698 5.183-22.212 16.799-27.494 29.194-6.415 15.053-6.039 31.803.353 46.761 4.594 10.748 12.285 23.002 20.805 31.03 8.564 8.068 33.591 15.366 32.719 25.322-5.239 6.869-12.047 3.271-18.223 7.483.063 4.214-.729 5.604-3.416 8.92-.192.368-.339.763-.577 1.103-6.385 9.094-10.194 5.653-19.096 7.67-3.625.821-5.041 4.35-7.025 7.184-6.873-1.426-13.334-1.928-20.342-1.965-3.133 2.42-5.623 4.804-9.673 4.789-.221-.28-.437-.565-.663-.841-.32-.389-.654-.768-.978-1.156-4.447-5.323-12.538-7.088-18.038-11.32-2.167-1.667-2.768-2.702-3.027-5.354 8.35-.553 16.465 8.584 24.786 7.682-6.038-2.13-12.735-4.233-17.766-8.315-6.781-5.502-9.323-13.693-17.701-18.033-7.343-3.804-13.548 2.721-22.647-1.454-4.273-1.961-7.167-5.583-8.625-10.006-2.717-8.246-.153-13.356 3.435-20.641-1.648-.378-3.209-.751-4.75-1.468-7.821-3.634-11.302-10.008-14.164-17.777-1.644-3.017-1.99-6.183-1.257-9.552 1.456-6.695 6.846-10.868 12.172-14.518-1.722 6.955-3.827 13.107-7.047 19.505 5.201-5.317 7.378-10.858 7.417-18.312.072-14.061-5.886-28.829 5.419-40.536 5.289-5.476 12.453-8.461 19.463-11.075 2.793 2.203 5.068 4.803 8.656 5.181 7.864-2.582 9.708-9.225 19.026-8.937 1.005.031 2.012.014 3.018.021l.723-1.033c-1.72-1.287-3.02-1.929-5.259-1.692-7.128.757-12.211 6.119-17.028 10.822-3.978-4.738-7.322-8.395-6.931-15.028.307-5.226 2.536-10.324 6.628-13.683a15.82 15.82 0 0 1 12.668-3.394c3.856.652 6.497 2.93 9.322 5.462 4.101-4.556 8.548-10.709 15.258-11.03 3.97-.19 6.766 1.339 9.427 4.101 4.832 5.015 7.339 12.086 10.006 18.397-16.708 17.482-29.203 40.102-28.62 64.905.33 14.038 4.728 29.653 10.356 42.443 1.878 4.268 8.132 11.65 8.343 15.617-1.645-1.427-2.681-2.746-3.937-4.521-13.856-19.589-14.689-9.628-20.169-37.199-1.819 2.692-1.262 5.737-.655 8.809 3.364 17.038 23.528 39.012 38.186 48.105 10.323 6.403 19.488 6.085 30.127 9.994z"/><path fill="#4a2633" d="M638.359 571.694c.628 2.998-.103 5.384-.667 8.346l-.557-.269c-.648-2.85.462-5.308 1.224-8.077m42.744-30.227c3.452-1.574 7.595-.529 11.187.04-3.419.501-6.615 1.461-10.098 1.692zm-41.639 49.197c.925.928 1.585 1.716 2.88 2.114.968.298 1.964.494 2.94.76 1.405 3.587-.39 10.19-1.117 13.918l-1.209.793c-1.088-1.077-1.966-1.851-3.25-2.717l-.218 7.507c.856.939 1.537 1.801 2.103 2.947.966 1.956 1.486 2.136.738 4.298l-1.621.183c-.242-.21-.518-.386-.726-.629-4.868-5.666-.476-22.237-.52-29.174m34.557 69.695c4.701 2.583 5.946 9.621 8.595 14.103 1.363 2.305 2.987 3.611 5.55 4.414.47-.213 1.998-.938 2.458-1.002 3.614-.501 8.538 5.34 11.979 6.759 2.749 1.133 3.367.445 5.832-.784l1.884.493-.182.93c-1.377 1.452-2.743 2.64-4.756 3.125-4.435 1.069-9.902-1.376-13.711-3.412-11.664-6.237-13.821-12.663-17.649-24.626m-22.423-14.36 1.576.065c4.678 6.599 12.088 11.601 16.117 18.439 1.11 1.884 1.546 3.682 1.019 5.829l-1.981.445c-5.429-2.433-10.404-5.996-14.759-10.036-2.844-2.638-5.944-6.703-5.831-10.782.045-1.64 2.606-2.968 3.859-3.96"/><path fill="#875c5e" d="M317.344 760.057c3.95-.19 7.849-.221 11.552 1.38 10.212 4.413 16.051 16.082 20.18 25.809 10.323 24.32 15.269 77.9 4.451 102.093-2.266 5.066-6.18 10.225-11.47 12.245-6.467-1.17-14.447-16.934-19.099-22.566 6.549-10.83 14.841-22.242 18.606-34.311-17.092 14.672-39.456 62.918-52.12 84.433-9.083 15.432-19.011 29.673-30.692 43.255 16.951 26.09 64.134 82.025 88.38 99.315 6.83 4.87 15.507 6.91 22.607 11.35 9.699 6.07 14.374 15.04 16.728 26.02 3.929 18.33 3.997 28.2-6.387 44.16-1.35-5.85-3.322-20.47-8.092-24.43l-2.737.35c1.444 7.61 5.411 14.99 6.142 22.62.766 8-2.547 11.58-7.501 17.19-4.077-10.27-5.796-28.88-13.749-36.43-2.872 2.57 6.732 28.17 7.697 34.11.694 4.28.169 8.93-.125 13.24-8.403-15.21-23.095-44.84-24.382-61.88-.424-5.62 2.466-15.1.882-20.05-.739-2.31-6.079-5.57-8.177-6.84-8.479-5.11-17.745-9.19-26.449-13.97-16.517-9.09-32.98-19.45-48.339-30.35-17.844-12.68-41.065-30.87-52.04-49.943a97 97 0 0 1 1.97-7.331c9.381-30.176 26.499-66.387 39-96.001a4734 4734 0 0 1 27.675-64.195c7.449-16.998 14.65-35.163 24.974-50.667 5.461-8.201 11.793-14.011 20.515-18.606m422.91-149.146c1.475-1.599 3.114-3.438 4.916-4.664 9.63-6.555 24.837 4.801 34.836 6.09 3.312.427 6.592-.221 9.193-2.427 8.156-6.912 1.838-22.703 3.061-32.267 1.368-10.696 4.871-22.375 13.784-29.128 6.939-5.256 24.699-12.532 33.531-10.405 16.329 3.933 17.375 31.919 25.74 43.871 3.114 4.45 9.331 8.997 14.835 9.54.444.043.89.052 1.336.078l.67.583c-1.098 4.855 4.477 7.763-.803 11.196-5.274 3.429-13.932 4.766-17.991 9.522l.551 1.494 3.024.472.36 2.514c-7.902 2.539-9.787 9.454-16.116 14.148 3.335 3.388 6.389 6.463 10.502 8.943 5.779.114 15.195 1.375 20.024-2.185l1.82-.218c.322 2.774 1.139 5.946-.72 8.297-1.194 1.51-2.701 2.878-4.079 4.221 1.326 2.182 2.151.757 3.557 1.996 1.506 1.328 1.028 13.26.564 15.356-.665 3.009-2.174 4.874-4.896 6.338-13.746 7.392-45.525-1.006-61.854-.307 9.034 3.062 18.172 4.667 27.596 6.014-3.716 25.983-8.915 52.102 6.007 75.595-1.547-8.031-7.295-22.328-4.192-29.735 1.27-.792 1.526-1.43 3.112-.965 7.691 2.257 16.239 15.581 19.438 22.692 4.822 10.722 13.058 103.112 12.024 118.944-.331 5.072-1.975 9.623-3.778 14.331-2.807-4.029-6.207-8.32-7.805-12.991-6.296-18.407-2.839-36.142-15.981-52.71-2.356-2.971-5.318-6.302-9.091-7.195 3.224 6.034 8.247 10.852 11.36 17.081 5.912 11.831 5.61 25.071 8.848 37.593-17.974-21.597-38.137-36.903-59.692-54.419-12.121-9.849-23.914-20.184-35.701-30.431-11.564-10.053-21.637-22.806-33.976-31.753 14.843-6.449 36.757-12.47 43.258-28.86 5.256-13.253 1.057-24.918 1.248-38.3.099-6.948 4.28-15.459 2.558-22.009l-1.592-1.025c-1.875.476-3.666.975-5.476 1.66-3.812-2.084-6.645-4.647-9.766-7.645l.027-1.044c1.689-.737 3.67-1.385 5.224-2.351-6.211-4.811-10.968-6.033-18.484-7.735-3.378-3.117-5.994-6.24-8.621-10.009 1.131-2.66 1.081-5.491 1.317-8.352.162-2.721.601-5.436.949-8.139z"/><path d="M773.837 639.04c2.224 4.47.822 9.262-.556 13.788l-1.079 1.112c-1.489-2.276-1.168-5.472-1.186-8.117zm65.528-82.048c2.837-.153 5.32-.569 7.892.896-3.548 4.367-13.462 6.965-18.61 10.299-3.144 2.036-6.073 4.496-8.981 6.854-1.664 1.485-1.818 1.932-4.084 2.435l-.238-1.484c5.403-8.888 14.957-14.496 24.021-19m2.911 18.103c1.067.02 3.125-.108 4.216.231 3.276 1.018 5.711 6.132 7.128 9.023 1.806 3.683 3.066 6.99 1.618 10.956-2.159 1.141-1.984 1.509-4.528 1.029-.69-3.013 1.059-7.64 1.679-10.751l-2.073.24c-.746 1.543-.495.803-.892 2.714-.101.483-.189.968-.283 1.453l-1.917.928c-1.915 1.093-2.227 1.008-3.386 3.016l.939-1.304c-.58 1.485-.74 2.168-1.968 3.239-2.561.351-4.489.263-7.038-.278-3.16-.671-8.09-1.713-9.94-4.601 1.203-3.114 2.718-3.309 5.566-4.912a134 134 0 0 1 1.201-2.937c2.326-5.424 4.389-5.939 9.678-8.046"/><path fill="#fdfdfd" d="M839.185 582.634c1.047.277.532-.016 1.318 1.192-1.244 1.646-2.762 3.312-3.26 5.353-.344 1.407.951 2.578 1.676 3.723l-1.361 1.96c-2.831-1.118-4.199-1.131-5.776-3.807.868-3.443 4.832-6.113 7.403-8.421"/><path fill="#9c6664" d="M744.91 612.211c7.223 1.821 16.445 4.873 20.509 11.614 1.844 3.06 2.393 6.658 2.234 10.177 2.019 1.73 3.997 3.518 6.184 5.038l-2.821 6.783-1.267.623c-6.211-4.811-10.968-6.033-18.484-7.735-3.378-3.117-5.994-6.24-8.621-10.009 1.131-2.66 1.081-5.491 1.317-8.352.162-2.721.601-5.436.949-8.139"/><path fill="#875c5e" d="M748.033 617.104c2.313 2.334 2.244 3.465 2.926 6.611l-3.319.248-1.801-2.099z"/><path d="M744.91 612.211c7.223 1.821 16.445 4.873 20.509 11.614 1.844 3.06 2.393 6.658 2.234 10.177-2.633-1.326-4.614-2.818-6.847-4.735l1.121-5.327c-3.525-3.047-8.261-7.334-12.94-8.091l-.954 1.255-2.194 4.76-1.878-1.514c.162-2.721.601-5.436.949-8.139"/><path fill="#875c5e" d="m515.325 1404.78 1.688.74c.295 22.42 7.822 44.07 7.98 66.21.068 9.58-1.538 19.44-2.469 28.98a815 815 0 0 0-2.641 38.95c-1.41 37.04 1.012 74.66 1.828 111.74.875 39.77-1.07 81.88 6.267 121.1 5.982 31.97 20.93 61.73 30 92.86-11.146 2.51-31.711 7.03-41.984 1.29-9.46-5.29-11.185-18.81-13.573-28.41-3.885-17.09-11.507-35.95-12.832-53.27-.558-7.3 1.579-14.25 2.659-21.41 1.58-10.47-.866-21.3-3.47-31.42-8.488-32.98-22.25-65.18-33.948-97.13-7.462-20.38-14.958-40.79-17.799-62.43-2.801-21.34-1.458-44.77 4.128-65.58 2.673-9.97 7.866-21.1 7.505-31.45-.389-11.17-5.236-21.97-9.143-32.3z"/><path fill="#fdfdfd" d="M1138.01 642.161c27.73-1.4 56.05-6.051 83.67-9.147l176.51-19.871c32.22-3.666 64.78-8.547 97.12-10.685.15 3.323.57 7.331-.15 10.581-1.61 7.196-5.98 12.568-3.73 20.424 1.03 3.563 3.48 6.308 6.86 7.839 14.72 6.676 30.22-1.212 43.87-6.785-.28 5.238-.1 11.419-1.71 16.421-3.14 9.815-17.9 8.391-26.05 12.554-3.15 1.612-3.38 3.395-4.31 6.597-2.42 8.353-7.47 4.761-13.19 8.795-1.32.93-1.08 1.773-1.35 3.241.73 2.117 1.71 3.363 3.15 5.028 1.45 1.671 1.79 1.938 2.4 4.15l-3.69 2.19c-4.28-1.059-23.57-.803-27.14 1.174-17.01.406-34.04 2.362-50.99 3.831a5681 5681 0 0 1-74.97 6.077 8330 8330 0 0 0-130.25 10.866c-25.27 2.187-50.94 3.595-76.07 6.956zm578.77 41.444c22.13-2.811 44.46-4.118 66.69-6.006 14.82-1.259 29.89-3.33 44.75-3.824l.39 122.892c.18 16.061-.59 32.803.57 48.771l-.16 159.562c.03 29.38-1.14 59.4.27 88.72l1.03-1.69c.2-12.85-.01-25.69.25-38.54l.14 102.39c0 13.48-2.07 32.02.83 44.7l.31 136.17c.17 18.24 1.18 36.49 1.01 54.72l-1.11 2.19c-4.03-6.03-1.95-24.9-1.93-32.85-1.48-.25-2.7-.85-4.07-1.43l.43-.58c-5.19-3.3-119.25-23.12-134.24-25.12.1-4.46.38-8.68 1.13-13.09l.43-1.91c-2.33-15.45 1.91-52.1 2.83-69.87 8.11 7.47 15.07 16.09 23.3 23.45 32.61-8.9 88.66-47.02 106.99-74.45-10.76-27.62-67.62-62.96-91.28-84.39 27.15-32.47 64.55-62.36 80.15-102.72-1.91-16.383-5.22-32.787-7.65-49.111a8541 8541 0 0 0-19.48-128.105c-4.25-27.662-7.84-55.365-12.59-82.956-1.9-11.037-3.1-23.774-7.41-34.117-5.19-12.476-38.59-27.585-51.58-32.806"/><path fill="#5b3a3e" d="m1829.29 1093.72 1.03-1.69c.2-12.85-.01-25.69.25-38.54l.14 102.39c0 13.48-2.07 32.02.83 44.7l.31 136.17c.17 18.24 1.18 36.49 1.01 54.72l-1.11 2.19c-4.03-6.03-1.95-24.9-1.93-32.85l-.86-14.93c-45.01-8.6-90.48-19.28-135.89-25.29l.43-1.91c12.32-.25 121.32 21.22 135.53 25.81z"/><path fill="#e6d4e6" d="M1693.07 1320.59c45.41 6.01 90.88 16.69 135.89 25.29l.86 14.93c-1.48-.25-2.7-.85-4.07-1.43l.43-.58c-5.19-3.3-119.25-23.12-134.24-25.12.1-4.46.38-8.68 1.13-13.09"/><path fill="#e8e1e7" d="M110.098 1095.66a13658 13658 0 0 0 134.472 29.96c31.673 6.9 63.453 14.48 95.411 19.84-4.005 76.36-33.013 182.68-72.306 248.72-6.338-7.27-14.581-13.64-21.625-20.28-63.937-60.24-103.908-144.6-125.535-228.67-4.096-15.92-9.905-33.09-10.417-49.57"/><path fill="#fdfdfd" d="M921.77 1189.56c6.67.78 13.251 1.79 19.868 2.94l70.992 11.44c15.02 2.37 30.28 4.27 45.12 7.6-.01 11.7.33 23.51-.42 35.18 20.63 3.71 41.12 8.5 61.62 12.9a519 519 0 0 0 25.89-10.19c14.69 1.72 29.63 5.19 44.27 6.24 63.15 11.62 126.37 23.82 189.78 33.86-5.85 32.56-9.5 65.38-13.99 98.13-35.72-10.17-73.1-16.51-109.34-24.79l-247.6-56.73-66.405-15.56c-13.818-3.23-27.916-5.95-41.414-10.35 7.787-30.04 15.667-60.22 21.629-90.67"/><path fill="#e8e1e7" d="M150.999 678.466c.249.189.494.381.745.566 5.583 4.12 21.145 7.885 23.165 14.134-.477 8.734-6.294 22.784.729 29.996 3.839 3.942 12.179 4.182 17.369 3.71 3.981-.362 7.851-1.45 11.656-2.626 5.337 4.926 10.488 9.797 18.313 9.449 4.789-.213 8.162-1.806 11.99-4.571 3.932 4.803 10.817 12.442 17.235 13.466 2.468.393 4.589-.295 6.406-1.973 3.482-3.217 4.347-9.74 8.399-11.871 6.094 2.94 10.134 8.29 17.611 5.983 4.924-1.519 7.867-4.586 10.656-8.751 6.891 1.816 17.837 6.038 24.661 2.317 3.137-1.71 4.894-4.808 5.456-8.247.336-2.055.473-4.158.625-6.233 7.034-.539 25.596-1.076 29.876-7.635 2.623-4.019 2.265-7.441 5.886-11.362 2.754-.194 5.995 1.052 8.393.768 3.329-.396 3.478-4.666 7.172-3.944 5.163 11.383 6.762 32.357 2.103 44.037-2.351 5.895-6.64 10.257-12.496 12.722-9.371 3.945-20.729 3.285-30.691 3.952-9.923.664-20.982 2.794-29.276 8.508-15.08 10.389-27.932 41.506-35.44 58.649-17.05 38.933-34.303 78.011-50.228 117.411-6.375 15.774-13.935 32.04-18.748 48.335-1.203 4.073-3.204 11.598-1.58 15.764 2.475 6.35 9.586 13.03 14.372 17.74 30.322 29.88 66.858 52.18 104.261 72.09-21.31-5-207.529-40.77-215.278-37.67-3.179-14.09-2.147-33.69-2.285-48.34-.826-88.189 7.959-166.402 26.824-252.524 5.261-24.016 10.556-52.081 22.119-73.85"/><path fill="#5b3a3e" d="M145.085 798.253a5128 5128 0 0 1 65.027.001l-.496 70.516c-13.162-.003-56.32 2.042-66.45-1.731l8.229-1.119c18.059-1.502 37.58.174 55.783.422.009-21.878.427-43.775.716-65.651-20.501-.674-41.011.077-61.509-.605z"/><path fill="#fdfdfd" d="m145.085 798.253 1.3 1.833c20.498.682 41.008-.069 61.509.605-.289 21.876-.707 43.773-.716 65.651-18.203-.248-37.724-1.924-55.783-.422l-8.229 1.119c-.002-11.447-1.563-61.229 1.919-68.786"/><path fill="#6a4a69" d="m145.085 798.253 1.3 1.833c-2.016 16.962-1.729 46.307-.489 63.697 1.652 2.075 2.988 1.72 5.499 2.137l-8.229 1.119c-.002-11.447-1.563-61.229 1.919-68.786"/><path fill="#5b3a3e" d="M251.308 493.184c4.066-4.133 8.456-9.122 13.357-12.26 3.307-2.117 7.027-3.559 10.949-2.345 5.983 1.852 8.313 8.204 10.758 13.348 8.252-2.211 15.875-4.082 24.397-1.601 15.646 4.555 12.933 22.675 19.35 34.204l5.155.369c1.022.069 2.041.095 3.054.268 7.257 1.239 10.776 6.291 14.742 11.834 20.016-11.657 41.03-17.789 64.633-15.649 12.061 1.094 27.773 6.796 35.317 16.523 2.298 2.961 3.51 6.051 2.982 9.814-.839 5.992-23.368.61-29.703 5.746.928 9.18 2.137 18.391 1.725 27.631-.251.304-.506.605-.752.914-6.457 8.08-15.833 12.82-22.078 20.972-2.651-.604-5.515-1.127-8.015-2.211-9.843-4.266-5.818-22.581-9.374-32.103-.147.368-.387.712-.441 1.105-1.293 9.4.155 24.285 4.829 32.45a384 384 0 0 1 11.391 3.146c.377 2.868.551 5.701 1.85 8.329.687-2.198.953-4.559 1.345-6.829l.453 12.248c-1.402-.477-2.791-.937-4.217-1.339-6.603-1.863-13.603-2.756-19.768.947-6.916 4.154-8.56 10.91-10.177 18.202 4.333 8.221 9.005 14.609 15.552 21.21-3.348 4.015-7.252 7.754-10.866 11.543-2.137-.117-4.273-.261-6.412-.302 1.016 2.208 1.438 1.91 3.542 2.896.024.08-4.324 15.892-4.5 19.997-7.861-3.365-15.647-6.958-22.919-11.484-19.306-12.017-31.11-29.248-36.201-51.415-7.466-32.509.651-59.225 17.904-86.59l-.438-.59c-2.04 1.863-3.939 3.771-5.687 5.917-15.508 19.05-19.38 47.344-16.522 71.086 2.353 19.55 11.823 41.645 26.912 54.816 5.63 4.914 12.56 8.11 18.232 12.912 3.51 2.973 5.581 6.387 5.991 10.957-.577 1.933-1.003 3.158-2.422 4.666-6.278 6.677-22.789 7.562-31.441 7.002-.516 3.221-.803 7.362-2.119 10.346-1.145 2.595-4.04 4.427-6.606 5.318-6.314 2.194-15.247-2.252-20.843-5.09-3.387 4.416-7.591 10.548-13.734 11.014-5.043.382-7.516-3.998-11.053-6.713-2.109-1.619-3.323-1.432-5.794-.955-1.849 1.484-2.251 2.606-2.916 4.787-.705 2.308-1.439 4.142-2.589 6.259-2.13 1.738-3.853 2.387-6.606 2.199-6.919-.474-11.919-7.288-16.239-12.006-2.787 1.563-5.96 3.622-9.147 4.146-8.622 1.417-15.54-3.925-21.968-8.823-4.944 1.141-10.467 2.858-15.541 2.912-3.982.043-7.227-1.2-9.974-4.106-8.152-8.623 1.61-16.382 1.05-25.477-.676-10.985-18.758-11.803-25.602-17.795-12.459-10.907 4.757-18.451 1.209-29.514-3.812-11.888-20.381-16.091-21.015-30.253-.402-8.999 5.962-18.581 11.639-25.147-2.903-3.857-5.844-7.649-7.261-12.331-8.409-27.775 20.889-24.759 27.891-33.081 7.097-8.434.258-24.542 5.937-34.545 3.728-6.568 10.891-9.134 17.71-11.107 7.626 1.828 12.043 7.562 19.016 9.942 5.908-4.033 9.187-18.093 17.381-24.307 2.65-2.009 5.874-3.341 9.26-2.75 6.637 1.159 11.46 5.684 15.427 10.743"/><path fill="#e8e1e7" d="M569.844 1205.59a3342 3342 0 0 1 91.939 19.49c18.359 4.03 37.336 7.37 55.409 12.48a6848 6848 0 0 1 34.185 97.19c7.11 20.18 14.881 40.35 20.947 60.88-40.828 29.6-55.32 67.84-73.667 112.56-11.382 27.74-23.238 56.39-38.72 82.09-6.047-4.56-31.14-11.04-40.062-14.38-20.552-7.71-41.165-15.81-61.332-24.47-9.129-3.91-25.432-15.04-34.432-15.42a1033 1033 0 0 1 2.362-34.47c.935-10.13 2.601-20.61 2.32-30.79-.392-14.23-3.771-28.73-6.264-42.73 25.265-17.07 46.698-34.23 65.383-58.63-1.563-54.87-10.558-109.49-18.068-163.8"/><path fill="#fdfdfd" d="M1465.27 705.5c3.32-.687 6.93-.72 10.32-.986-21.39 47.22-20.82 131.554-18.49 182.943.69 15.184 5.47 32.792 3.09 47.72-2.32 14.537-9.65 29.402-15 43.133a7738 7738 0 0 0-30.14 77.65c-5.57 14.7-11.97 29.67-15.67 44.95-5.72 23.64-3.94 52.22-2.55 76.41.36 6.36 2.49 13 2.01 19.3-.75 9.59-4.72 20.23-6.96 29.69a1578 1578 0 0 0-10.21 48.28c-15.86-3.39-31.97-5.69-47.91-8.66l-27.08-4.5-.72-542.408c53.21-3.992 106.23-7.941 159.31-13.522"/><path fill="#f2cc96" d="M778.187 1006.07c46.85 12.96 95.475 15.96 143.832 16.98 4.067 30.98 6.26 62.2 4.671 93.45-4.052 79.7-30.558 163.89-56.324 239.08-.962-33.88-.73-67.67-2.507-101.55-.596-11.38-6.255-64.51-4.398-69.48 5.594-14.99 37.245-39.56 48.107-53.44 1.566-2 1.473-2.11 1.14-4.51l-1.737-.98c-5.946 2.02-28.54 31-35.597 37.35-.279.25-.564.49-.845.74 9.715-26.64 11.577-53.14 12.296-81.21.131-5.1 1.21-12.31-.547-17.11l-1.685-.59c-2.313 4.14-4.171 58.82-6.206 70.21-2.907 16.27-8.653 30.58-16.472 45.08-6.291-20.61-11.818-65.29-22.621-81.86-1.136-1.74-1.312-1.93-3.371-2.44-.491 2.3.017 4.15.614 6.41 2.693 10.2 6.562 20.16 9.57 30.28 4.384 14.75 7.767 29.93 10.544 45.06 7.538 41.05 6.726 85.01 8.229 126.72a2155.7 2155.7 0 0 0 40.532 423.54c-9.603 1.29-27.69 3.61-36.617-.23-2.163-.93-2.809-2.35-3.777-4.39-5.23-11.02-8.578-23.74-12.798-35.25-7.066-19.26-14.713-38.31-21.86-57.54-5.064-13.63-9.645-27.43-14.664-41.07-9.645-26.23-21.348-54.35-24.657-82.28a359 359 0 0 1-2.479-38.74c-.219-14.92 1.042-30.69-2.778-45.25-6.511-24.81-15.97-49.38-24.51-73.57l-33.074-94.5c-11.804-33.48-24.398-68.44-29.098-103.81-2.878-21.67-2.393-48.06 6.854-68.23 27.652-6.02 23.666-11.04 39.816-29.89l.827-.95c9.266-1.36 18.787-1.07 28.131-1.04 2.866-1.69 6.045-3.41 8.54-5.62 1.68-1.48 2.253-1.69 2.405-4-2.864-2.02-4.969-3.21-6.09-6.73.614-4.05 2.763-5.98 5.212-9.12-3.707-3.9-7.79-6.76-12.19-9.8 3.301-3.08 5.185-5.08 5.582-9.72"/><path fill="#a1688a" d="M1676.21 669.468c19.88 9.546 64.09 27.032 79.77 39.145 5.65 4.359 7.81 7.726 9.92 14.48 9.05 28.966 10.86 61.856 15.52 91.814a9700 9700 0 0 1 29.41 195.503c-19.56 44.6-70.54 89-103.49 125.84-17.06 19.06-32.88 40.34-51.13 58.13-17.09-8.7-32.17-26.71-44.56-41.29 18.1-31.62 38.24-62.17 56.64-93.66 7.32-12.52 21.28-42.4 29.48-51.94-5.83-13.633-8.57-28.441-11.92-42.826a4769 4769 0 0 0-12.45-52.454 4221 4221 0 0 0-14.72-58.02c-4.17-16.065-10.8-34.518-10.79-51.169.02-18.208 29.55-49.558 42.24-62.902 15.08-14.936 33.06-23.457 47.37-37.037-34.42 13.963-70.17 48.399-87.82 80.962-3.76 6.942-6.84 14.56-6.47 22.572.91 19.382 14.91 63.363 20.17 84.309 9.67 38.541 17.32 78.177 28.56 116.245a2516 2516 0 0 1-49.16 86.24c-13.2 22.18-27.59 43.73-38.13 67.35-19.46-22.32-44.14-66.12-49.44-94.73-5.36-28.92-4.58-60.21-3.65-89.49.68-21.313-.1-56.41 4.2-75.862 2.69-12.142 10.55-24.273 16.39-35.206 11.72-21.935 23.41-43.663 36.79-64.65 9.13-14.331 19.24-27.956 28.92-41.91a1209 1209 0 0 1-28.1-30.112c16.48.906 33.03 2.875 49.47 4.374 5.09-21.306 8.84-43.309 16.98-63.706"/><path d="M1735.59 1000.36c5.65-.443 14.51-1.536 19.59 1.14l-.44 2.28c-3.22 1.49-8.94-.26-12.65-.48-6.15-.35-13.58 1.59-19.71 2.61-5.6 1.3-11.11 2.81-16.87 3.01 7.48-5.61 20.93-7.49 30.08-8.56m1.85-23.079c4.14-.643 10.69-1.162 14.71.021 2.17.637 4.9 1.268 6.08 3.232-14.77-.271-26.73 1.126-40.96 5.37-4.94 1.603-9.59 4.09-14.26 6.339l-.63-.81c.63-1.095.8-1.454 1.46-2.394 5.59-7.987 24.46-10.179 33.6-11.758m-148.62 61.539c16.36 2.37 49.15 7.76 63.26 14.26-21.29.68-41.61-7.78-62.65-9.52 2.28 6.13 4.54 10.97 9.05 15.81 7.87 5.01 15.48 8.01 24.48 10.51 4.85 1.35 18.12 2.23 20.99 5.43-.6.33-1.15.76-1.8.97-6.45 2.06-29.57-5.1-35.9-8.22-7.53-3.71-15.9-9.73-18.4-18.16-1.24-4.19-.97-7.29.97-11.08"/><path fill="#fdfdfd" d="M390.11 997.873c29.379 6.217 98.206 10.137 127.889 4.627 11.272 23.25 16.458 51.93 22.202 77.04 11.922 52.12 21.138 104.3 29.103 157.16 6.466 42.92 12.464 86.43 14.333 129.84-23.271 17.31-70.562 35.49-98.727 49.17-31.81 15.46-66.545 35.85-98.934 48.64-19.83 7.83-39.963 13.02-60.75 17.62-38.459 8.87-74.59 9.55-112.268-3.06 65.371-66.83 103.967-173.06 121.592-263.04 4.107-20.97 8.568-42.25 8.862-63.68 3.975 9.3 8.01 22.83 14.885 30.18 2.644.37 2.774.49 5.079-.81 2.317-3.9 2.422-8.64 2.987-13.07.784 1.2 1.805 1.99 2.864 2.94l1.893-.24c10.527-7.74 19.584-26.31 23.336-38.75-2.67-11.75-2.696-24.72-7.62-35.83-6.983-15.77-21.93-21.39-36.718-27.41 17.26-20.95 25.327-48.64 39.992-71.327"/><path d="m518.904 1154.52 2.696.93c3.5 4.97 3.818 17.97 4.636 24.22a890 890 0 0 1 7.919 111.51c.252 15.94.893 32.97-1.61 48.75-1.36-.6-2.076-1.14-3.202-2.08-1.749-7.44.679-23.27.721-31.96a1058 1058 0 0 0-1.617-56.12c-.952-17.39-1.99-34.92-3.931-52.23-1.438-12.84-7.075-30.87-5.612-43.02m-88.578-24.37c1.293.6 2.522.64 2.903 2.15 1.698 6.74-2.524 19.29-3.9 26.24-15.09 76.26-46.758 159.66-77.912 230.91-8.812 20.15-17.185 41.67-29.307 60.09l-2.328-1.32c-.907-3.44 8.508-18.53 10.536-22.62 26.899-54.13 48.557-112.81 67.508-170.13 6.483-19.61 13.475-39.28 18.752-59.25 5.74-21.73 9.687-43.98 13.748-66.07m72.497-121.6 1.778 2.02c2.571 17.76 2.155 36.37 2.29 54.3.174 23.08.402 46.06 1.555 69.12 2.411 48.21 4.84 96.54 8.032 144.71a2706 2706 0 0 1 3.501 59.22c.521 10.53 1.847 21.83.659 32.32-1.287-.53-1.833-.76-2.662-1.95-1.431-2.04-14.035-226.69-14.78-247.17a2405 2405 0 0 1-1.164-78.86c-.034-10.65-1.495-23.38.791-33.71m-27.022 5.95c1.362 1.18 1.8 1.53 2.183 3.39 5.102 24.75-14.071 127.98-20.659 157.57-5.314 23.87-12.354 47.45-18.677 71.07-14.315 53.48-29.391 107.3-48.979 159.1-3.595 9.51-6.893 21.21-12.487 29.67-3.922-5.4.319-11.89 2.592-17.53 19.159-47.55 33.307-96.36 47.259-145.66 14.832-52.39 29.096-104.76 37.754-158.59a906 906 0 0 0 7.377-57.08c1.255-13.58 1.626-27.41 3.488-40.9z"/><path fill="#a1688a" d="M1453.04 1088.49c2.79 1.53 5.49 2.89 8.63 3.52 12.21 2.46 24.87 3 37.15 5.27 9.62 1.77 19.36 5.43 29.14 6.07 14.03.92 18.93-2.48 35.56.61 12.07 20.68 24.82 40.16 37.7 60.3.84 1.3 1.23 2.52 1.5 4.04 2.62 14.92 35.93 57.89 47.82 69.68 1.98 37.09 1.39 74.29 1.54 111.42l1.48 125.19c.31 24.37-.33 49.08 1.25 73.39 39.9 37.82 64.01 89.34 89.13 137.33 19.29 36.86 38.61 73.83 60.87 109.01-10.54 9.56-26.73 17.95-40.28 21.97-7.06-7.05-12.7-16.07-18.81-23.97-9.35-12.09-19.07-23.91-28.51-35.92-25.53-32.48-50.05-65.62-75.11-98.44-19.07-24.96-40.64-49.86-55.75-77.4-14.83-27.02-23.95-57.11-33.48-86.34-22.54-69.1-39.8-139.52-59.38-209.48-1.98-7.09-3.61-14.63-6.12-21.53-1.87-5.15-5.19-9.67-7.31-14.72-4.08-9.69-6.71-20.8-8.66-31.11-4.12-21.9-3.78-43.44-1.14-65.48 1.51-10.97 9.86-41.86 8.18-49.75-.25.42-.5.82-.73 1.24-4.07 7.33-5.56 17.94-7.34 26.13-9.44 43.21-7.42 78.03 6.02 119.84-15.94-12.45-31.15-34.75-47.47-44.15.12.22.25.45.38.67.21.37.44.73.65 1.11 10.63 18.6 35.41 38.61 52.03 52.46 5.19 13.75 16.61 51.73 16.91 65.57.29 13.52-6.97 30.91-10.83 43.89-11.12 37.36-22.28 74.56-32.26 112.25-4.23 15.99-11.27 35.81-10.89 52.37.2 8.77 4.3 14.76 10.3 20.76-6.51 57.47-10.09 115.31-15.54 172.9a6663 6663 0 0 0-8.12 90.89c-1.51 17.63-3.75 35.25-3.77 52.96-10.52-.18-31.62 1.32-40.72-3-2.21-1.04-2.8-2.18-3.44-4.46-3.55-12.81-3.05-29.13-4.08-42.43l-7.1-94.39c-3.5-49.28-4.9-98.68-7.37-148.02a3269 3269 0 0 0-2.67-48.72c-.73-11.3-2.05-22.79-1.93-34.1.39-37.55 5.35-76.2 9.64-113.49 12.28-106.82 26.59-200.21 82.93-293.94"/><path fill="#e8e1e7" d="M899.375 1282.09c32.547 10 67.681 16.32 100.975 24.13l250.31 57.11c37.93 8.64 76.89 15.45 114.31 26.04-4.45 32.64-9.16 78.4-8.93 111.17.08 11.3 1.41 22.65 2.16 33.92a3120 3120 0 0 1 2.59 49.36c1.25 25.88 1.52 52.12 3.66 77.91-22.49 1.87-44.8 5.54-67.36 7.19a2066 2066 0 0 1-255.75 1.53 1832 1832 0 0 1-97.646-9.47c-14.75-1.88-29.988-5.77-44.737-6.59l-1.448 1.29c-5.039-24.06-7.336-49.14-10.479-73.51a1804 1804 0 0 1-15.717-175.76c-.391-12.84-1.757-27.25.209-39.96 1.8-11.64 8.03-23.94 11.93-35.21 5.628-16.26 10.7-32.75 15.923-49.15"/><path fill="#6a4a69" d="M1446.37 594.476c16.91-2.932 35.69-6.385 52.8-6.783-1.36 4.148-2.61 8.375-4.16 12.453-30.49 4.039-61.19 7.01-91.75 10.498l-183.56 20.723c-15.39 1.709-86.34 7.848-93.7 11.277 3.33.108 6.82-.112 9.95 1.065 1.82 26.522.28 53.944.15 80.575 24.27-4.107 53.63-4.97 78.57-7.183l199.45-16.3 49.09-4.005c7.39-.548 14.98-.529 22.31-1.449-5.1-.376-10.14-.757-15.25-.68 3.57-1.977 22.86-2.233 27.14-1.174-5.92 4.652-14.54 7.319-21.87 8.865-15.85 3.348-32.87 3.731-49.03 5.316a3551 3551 0 0 1-122.6 9.537l.16 364.159.19 117.66c.07 20.98.76 42.17.07 63.13 25.6 4.93 51.63 8.5 77.08 13.92l-2.23 11.73c-63.18-11.78-126.65-23.34-190.02-34.01-.18 1.61-.31 1.01-.05 1.87-14.64-1.05-29.58-4.52-44.27-6.24a519 519 0 0 1-25.89 10.19c-20.5-4.4-40.99-9.19-61.62-12.9.75-11.67.41-23.48.42-35.18-14.84-3.33-30.1-5.23-45.12-7.6l-70.992-11.44-.29-2.3-18.953-2.96c8.086-44.67 11.127-88.51 7.476-133.86-3.16-39.26-13.724-75.625-19.917-114.11-.399-2.476-.202-3.937.549-6.275 1.728-5.378 1.32-31.093 2.838-40.615 3.124-19.597 15.385-38.496 12.265-58.893-1.115-7.291-7.282-13.604-10.174-20.407-3.458-8.135-5-17.386-6.926-25.979 53.276-17.233 104.184-40.97 148.244-75.967l3.13-2.465c.85 69.41.22 138.877.14 208.293l.21 327.318c19.39 4.21 38.81 9.33 58.42 12.34 1.14-55.29.24-110.79.3-166.1l-.81-459.322 328.47-39.029z"/><path fill="#e6d4e6" d="M1446.37 594.476c16.91-2.932 35.69-6.385 52.8-6.783-1.36 4.148-2.61 8.375-4.16 12.453-30.49 4.039-61.19 7.01-91.75 10.498l-183.56 20.723c-15.39 1.709-86.34 7.848-93.7 11.277 3.33.108 6.82-.112 9.95 1.065 1.82 26.522.28 53.944.15 80.575 24.27-4.107 53.63-4.97 78.57-7.183l199.45-16.3 49.09-4.005c7.39-.548 14.98-.529 22.31-1.449-5.1-.376-10.14-.757-15.25-.68 3.57-1.977 22.86-2.233 27.14-1.174-5.92 4.652-14.54 7.319-21.87 8.865-15.85 3.348-32.87 3.731-49.03 5.316a3551 3551 0 0 1-122.6 9.537l.16 364.159.19 117.66c.07 20.98.76 42.17.07 63.13 25.6 4.93 51.63 8.5 77.08 13.92l-2.23 11.73c-63.18-11.78-126.65-23.34-190.02-34.01-8.09-3.98-39.52-6.78-50.25-8.35l-.02-13c20.79 5.64 42.58 8.67 63.81 12.38a4642 4642 0 0 0 93.31 15.95l.74-543.101c-18.46.311-37.26 2.748-55.68 4.17a5108 5108 0 0 0-105.38 8.653c-1.37 16.262-.26 33.185-.12 49.514l.35 83.124-.3 272.23c-.03 13.81-1.82 105.7.84 111.37.57 1.22 3.26 1.48 4.53 1.83-5.89 3.29-13.44 5.36-19.8 7.78l.26-367.816c-.3-84.168-2.57-168.66-.44-252.781l.27-1.653c4.11-2.355 288.69-35.068 325.09-39.624"/><path fill="#fdfdfd" d="M1056.75 711.134c1.5 21.392 1.07 42.981 1.06 64.417l-.22 93.297-.21 219.322c.01 40.21-.7 80.55.21 120.74-23.68-4.35-47.56-7.76-71.331-11.56-14.877-2.38-29.944-5.55-44.911-7.15l-18.953-2.96c8.086-44.67 11.127-88.51 7.476-133.86-3.16-39.26-13.724-75.625-19.917-114.11-.399-2.476-.202-3.937.549-6.275 1.728-5.378 1.32-31.093 2.838-40.615 3.124-19.597 15.385-38.496 12.265-58.893-1.115-7.291-7.282-13.604-10.174-20.407-3.458-8.135-5-17.386-6.926-25.979 53.276-17.233 104.184-40.97 148.244-75.967m232.92 9.346 3.05.051c1.49 2.727 1.3 5.825 1.35 8.857.88 53.66-.34 107.601-.39 161.297l-.62 367.175c-42.69-8.51-86.11-14.08-128.93-22.11-8.33-2.46-17.46-3.73-25.99-5.51-.86-54.22-.26-108.55-.15-162.78a20931 20931 0 0 0-.22-335.28c50.6-2.293 101.34-8.137 151.9-11.7"/><path fill="#e8e1e7" d="M235.588 478.486c7.352-4.458 17.538-26.76 22.52-34.891 18.566-30.3 39.923-59.368 62.024-87.152 82.382-103.566 176.969-176.342 299.685-226.359 34.083-13.892 66.664-25.434 102.48-34.053l-.256 302.228c-.002 17.325-2.311 118.364 1.181 127.993-2.695 1.676-5.444 3.275-7.926 5.261-3.562-8.74-7.459-19.063-16.851-23.084-3.636-1.556-7.282-1.445-10.923.037-4.619 1.879-7.125 4.935-10.163 8.769-7.499-1.599-15.455-5.229-22.633-.533-5.354 3.503-8.659 11.693-9.414 17.816-.263 2.135-.123 4.268-.15 6.408-.006.512-.038 1.024-.057 1.536-10.351 3.437-20.707 7.168-25.813 17.703-5.023 10.365-3.095 23.407-1.769 34.467-5.731 3.294-10.417 7.979-12.358 14.461-1.737 5.798-.581 12.217 2.343 17.428 4.1 7.308 10.035 11.087 17.067 15.105-3.269 5.781-6.469 12.018-4.433 18.806 1.758 5.862 9.876 11.022 15.164 13.2 6.973 2.873 27.191 1.192 29.578 9.142 1.544 5.141-3.189 11.768 2.337 15.939 2.387 1.802 21.95 14.253 24.651 14.755.326.06 1.994-.249 2.445-.377 3.343-.953 7.068-3.935 9.893-5.963 4.697.775 11.52 2.842 16.089 1.549.168-.259.331-.521.503-.777 1.883-2.811 3.514-4.148 6.467-5.743l1.187.176c6.142.868 11.347 1.275 16.49-2.752 11.623-9.103 2.614-17.715 19.084-19.287 3.551-.339 5.519-1.027 7.855-3.889 1.031-1.263 1.977-2.624 2.886-3.976 1.197 14.692 4.845 37.819-5.005 50.053-7.956 9.879-33.581 17.932-45.664 25.723-12.898-.722-24.766 2.986-34.482 11.844-16.398 14.948-45.78 60.885-59.901 80.801l-40.068 57.113c-6.801 9.585-14.489 18.769-20.748 28.691-2.321 3.68-5.424 8.413-5.679 12.848-.982 17.07 22.137 37.348 33.3 48.531 21.849 21.887 45.255 41.977 67.964 62.937 9.579 8.84 18.231 19.3 28.138 27.61 2.627 2.2 5.793 3.69 8.873 5.14-6.892 20.87-10.547 41.9-7.667 63.9l-95.308-16.17c-14.515-2.42-29.905-3.99-44.174-7.48-6.57-30.42-12.947-61.09-20.918-91.18-3.281-12.38-9.547-24.57-11.509-37.161-2.704-17.349-1.488-38.044-.663-55.626 10.503-15.708 25.345-31.351 20.954-51.855-6.343-29.619-40.15-52.101-47.529-75.994-5.03-16.287-.894-35.413-17.917-46.225-7.739-4.915-17.189-2.894-25.83-3.076.143-34.65.848-35.974 18.224-65.668 11.197.755 27.697 1.409 36.818-6.253 2.449-2.058 3.893-4.738 3.948-7.954.124-7.186-5.526-12.87-10.062-17.779 3.001-4.231 5.277-7.905 5.052-13.232l-1.314-1.06c-.497-2.498-.508-4.917-.543-7.45 1.428-2.093 3.023-5.003 3.035-7.6.015-3.344-.977-4.671-3.306-6.866-1.149-1.083-2.037-1.829-2.895-3.193-1.809-2.881 7.298-8.581 8.143-13 1.667-8.717-4.798-11.655-11.612-13.777-3.271-1.019-7.323-2.057-9.776-4.602-5.184-5.378-2.237-15.965-6.084-22.623-4.978-8.619-15.607-13.257-19.965-20.649-2.572-4.362-1.276-11.587-4.458-16.557-5.319-8.306-18.387-13.55-27.705-15.479-23.821-4.93-53.619-1.104-74.032 12.317-3.379-3.458-6.77-6.357-10.626-9.263-3.912-.291-7.862-.351-11.783-.506-.58-4.192-1.167-8.603-2.327-12.684-2.364-8.318-7.334-16.268-15.049-20.535-8.265-4.571-16.275-3.716-24.907-1.161-1.81-2.498-3.67-4.943-5.855-7.133-3.193-3.2-7.627-5.257-12.21-5.054-8.079.357-13.769 6.514-18.927 11.972-5.532-4.582-10.089-7.018-17.134-8.578"/><path fill="#fdfdfd" d="M418.49 355.49c20.344.124 40.65.957 61.02.945a4378 4378 0 0 1-.102 63.111c-20.358-.075-40.583.443-60.918.96zm203 22h59.02v66.02h-59.02zm-111.231 97h58.251c.287 20.802-1.753 41.578-.524 62.399l.103 1.623-1.839.054-60.76-.081c.006-8.72-1.688-56.52.026-61.07.928-2.463 2.487-2.185 4.743-2.925"/><path fill="#5b3a3e" d="M551.735 733.485c21.878.569 43.693.099 65.569-.253.038 10.805 2.622 66.48-.172 72.418-22.102 1.238-44.692 1.069-66.832.876.253-16.687-2.434-59.563 1.435-73.041"/><path fill="#fdfdfd" d="M553.046 735.874a2248 2248 0 0 0 61.914-.321 2745 2745 0 0 0 .534 67.375c-20.83.19-41.644.972-62.488 1.092z"/><path fill="#5b3a3e" d="M610.541 262.883a4132 4132 0 0 1 72.505.768l-.014 69.342-72.905.136c-.081-23.333-.731-46.943.414-70.246"/><path fill="#fdfdfd" d="M612.819 265.113c22.391.931 44.947.692 67.363.921-.261 19.015 2.067 46.674-.627 64.479a3867 3867 0 0 0-66.953.017 3176 3176 0 0 1 .217-65.417"/><path fill="#e8e1e7" d="M1058.75 85.136c11.73 2.853 23.93 3.925 35.41 7.664 4.54 6.608 1.25 79.563 1.47 93.946a2150 2150 0 0 0 73.09-23.153l39.08-13.467c-.29-8.391-2.03-20.406.56-28.409l2.24-.607c9.06 3.145 29.85 5.281 35.76 12.141 3.43 3.246 4.94 3.447 9.68 3.475 11-1.303 41.96 15.422 53.71 20.062.19.073.39.076.58.114 1.72.94 6.46 2.932 7.02 4.589-7.53 3.668-38.72 12.185-47.36 13.695-3.82 1.228-10.65 4.481-14.46 3.844-2.44.771-4.85 1.638-7.37 2.13l-2.35 1.482c-2.3 17.725-.31 44.612-.31 63.367l-.03 141.394 1.96.343-.13-1.591 1.65 1.471c42.44-6.147 84.32-18.511 126.99-23.187 2.09-4.938.57-158.869.57-178.837 7.75 4.565 41.12 15.167 42.87 22.007 2.73 10.712 1.2 24.67 1.18 35.763-.02 13.987-2.16 104.186 1.42 110.917 12.38-.432 25.57-4.877 37.88-7.025 32.56-5.684 65.42-10.824 97.73-17.821 1.97-2.392.93-41.294.92-47.789 9.03 8.766 20.92 15.722 32.1 21.392 3.65 1.855 8.57 3.509 11.85 5.835 1.25.882 1.89 2.229 2.64 3.504l.33 4.708c1.87.932 2.07.81 4.06.745 2.49-.081 3.83.26 6.15.98.12.035.24.032.36.048 8.98 5.876 16.9 13.428 25.01 20.428 18.19 15.703 35.6 32.019 52.97 48.636 110.68 105.905 194.34 221.277 240.1 368.616 6.48 20.858 12.84 41.86 17.34 63.244 37.25 176.737 10.08 383.75-90.32 535.97-5.18 7.85-21.15 31.04-28.24 35.71.17-18.23-.84-36.48-1.01-54.72l-.31-136.17c-2.9-12.68-.83-31.22-.83-44.7l-.14-102.39c-.26 12.85-.05 25.69-.25 38.54l-1.03 1.69c-1.41-29.32-.24-59.34-.27-88.72l.16-159.562c-1.16-15.968-.39-32.71-.57-48.771l-.39-122.892c-14.86.494-29.93 2.565-44.75 3.824-22.23 1.888-44.56 3.195-66.69 6.006-1.38-.469-2.88-1.77-4.11-2.585-7.19-2.499-14.1-5.381-21.05-8.476-1.41-2.443-2.47-2.257-5.01-3.159-17.6-6.281-40.22-22.022-52.18-36.425-2.46-2.962-3.52-4.904-3.07-8.765 2.68-2.245 7.18-2.008 10.54-2.66 15.1-2.932 42.24-35.029 50.6-47.808l.74-1.15 2-2.73 6.6-9.59a2350 2350 0 0 0 83.48-9.639c13.53-1.674 27.08-2.315 40.41-5.38-14.91-.014-30.11 2.355-44.91 4.079a4836 4836 0 0 1-77.71 9.177c10.12-17.487 21.21-40.49 16.11-61.339-4.66-19.017-33.33-35.136-48.94-44.058-27.66-15.811-65.29-35.034-97.96-25.775-5.31 1.506-10.47 4.072-13.32 9.02-3.61 6.27-2.88 11.207-.85 17.783l.42 1.348c-12.71 12.438-18.96 23.933-24.61 40.696-2.04 6.061-3.77 12.824-7.89 17.854-6.86 8.364-29.4 6.341-29.05 19.397.17 6.149 6.57 11.742 10.66 15.748-3.03 1.851-6.13 3.615-8.99 5.727 3.07 13.878 5.36 16.863.26 30.67-17.34 1.734-34.99 6.114-52.34 6.604l-328.47 39.029.81 459.322c-.06 55.31.84 110.81-.3 166.1-19.61-3.01-39.03-8.13-58.42-12.34l-.21-327.318c.08-69.416.71-138.883-.14-208.293 8.21-8.829 15.21-17.911 21.83-28-5.71-9.172-13.98-16.517-21.64-24.045-1.34-64.65-.22-129.622-.18-194.297 25.28-2.82 50.77-8.714 75.82-13.258l142.09-25.782 174.4-31.414c58.89-10.092 118.08-19.336 176.77-30.466 6.13-1.163 23.84-3.569 27.94-6.88-4.67-.548-81.91 14.499-92.2 16.276l-364.15 64.844c-46.78 8.227-93.62 18.942-140.65 25.344l-.1-267.082c0-14.413 1.78-100.482-1.06-108.773"/><path fill="#e6d4e6" d="M1246.36 133.251c3.43 3.246 4.94 3.447 9.68 3.475-3.64 1.061-9.01 3.418-12.6 2.219.05-2.438 1.5-3.864 2.92-5.694"/><path fill="#e8e1e7" d="m1605.1 312.385.33 4.708c1.87.932 2.07.81 4.06.745 2.49-.081 3.83.26 6.15.98.12.035.24.032.36.048-3.54.955-7.65 2.553-11.34 2.287-1.33-2.893-.12-5.683.44-8.768"/><path fill="#e6d4e6" d="M1199.14 190.009c2.9-.505 5.63-1.106 8.46-1.913 1.61.551 1.84.178 2.43 1.466.83 1.847.41 3.853.21 5.804l-2.4 1.797c-2.71-.589-3.25-.501-5.91.308l-1.6-1.129c-1.56-1.171-2.79-2.589-4.12-4.01zm63.61-20.04c1.72.659 4.13 1.091 5.15 2.609.65.955 1.32 1.759 2.09 2.608-3.82 1.228-10.65 4.481-14.46 3.844-2.44.771-4.85 1.638-7.37 2.13-1.64-.968-.8-.596-3.01-1.232-2.14-.613-1.37.024-2.44-1.403l6.24-3.349c4.74-1.181 9.3-3.325 13.8-5.207"/><path fill="#edcff2" d="M1310.33 156.902c1.72.94 6.46 2.932 7.02 4.589-7.53 3.668-38.72 12.185-47.36 13.695-.77-.849-1.44-1.653-2.09-2.608-1.02-1.518-3.43-1.95-5.15-2.609 14.93-5.45 31.99-9.96 47.58-13.067m-217.82 68.038c25.77-6.722 51.29-16.813 76.76-24.775 8.69-2.719 17.99-6.406 26.94-7.833 1.33 1.421 2.56 2.839 4.12 4.01l1.6 1.129c-15.87 4.396-98.11 28.229-106.6 35.568l-1.11 3.33-1.01.077c-1.53-2.812-.71-8.215-.7-11.506"/><path fill="#843b73" d="M1094.16 92.8c4.54 6.608 1.25 79.563 1.47 93.946a2150 2150 0 0 0 73.09-23.153l39.08-13.467c-.29-8.391-2.03-20.406.56-28.409l2.24-.607c.82 11.069.5 22.171 1.3 33.236-34.83 12.48-69.71 24.142-104.9 35.548-4.93 1.597-9.61 3.879-14.51 5.419l-1.11-1.077c.77-1.165 1.38-1.721 2.68-2.271 10.45-4.415 22.4-6.489 33.26-9.875 10.21-3.185 77.34-25.175 80.34-28.589l-.03.754 1.13-1.684c-9.03-.356-29.28 9.585-39.31 12.429-25.43 9.416-51.62 16.771-77.59 24.523.13-10.355-.38-91.625.81-94.886.27-.742.99-1.225 1.49-1.837"/><path fill="#692a49" d="M1695.24 569.847c12.79.406 26.75-2.407 39.5-3.863 32.13-3.672 64.35-8.423 96.51-11.54.98 64.088-.37 128.275-.21 192.381.11 41.656 2.43 83.764.8 125.375.57 24.568 1.4 50.67-.08 75.191.47 84.349.89 168.849-.22 253.189-2.9-12.68-.83-31.22-.83-44.7l-.14-102.39c-.26 12.85-.05 25.69-.25 38.54l-1.03 1.69c-1.41-29.32-.24-59.34-.27-88.72l.16-159.562c-1.16-15.968-.39-32.71-.57-48.771l-.39-122.892c-14.86.494-29.93 2.565-44.75 3.824-22.23 1.888-44.56 3.195-66.69 6.006-1.38-.469-2.88-1.77-4.11-2.585-7.19-2.499-14.1-5.381-21.05-8.476-1.41-2.443-2.47-2.257-5.01-3.159 17.88-.195 35.93-2.509 53.74-4.142l88.3-8.032.01-100.786c-45.06 6.815-90.17 10.986-135.42 16.152z"/><path fill="#e6d4e6" d="m1828.2 659.718-.05 12.033-75.64 6.227c-12.94 1.126-26.91 3.457-39.84 3.042-7.19-2.499-14.1-5.381-21.05-8.476 15.91-3.939 34.81-3.997 51.19-5.474 28.39-2.558 56.95-5.837 85.39-7.352"/><path fill="#fdfdfd" d="M1693.24 572.577c45.25-5.166 90.36-9.337 135.42-16.152l-.01 100.786-88.3 8.032c-17.81 1.633-35.86 3.947-53.74 4.142-17.6-6.281-40.22-22.022-52.18-36.425-2.46-2.962-3.52-4.904-3.07-8.765 2.68-2.245 7.18-2.008 10.54-2.66 15.1-2.932 42.24-35.029 50.6-47.808zm-491.31-375.106c2.66-.809 3.2-.897 5.91-.308-1.1 18.136-.36 36.587-.36 54.77l.09 97.007c.03 10.925 1.89 36.134-.46 45.44-6.12 3.158-101.34 21.104-110.17 20.855-2.53-9.591-.54-23.277-.62-33.461-.15-16.807-.18-140.709-2.1-145.405l1.11-3.33c8.49-7.339 90.73-31.172 106.6-35.568"/></svg>