<svg xmlns="http://www.w3.org/2000/svg" display="block" viewBox="0 0 2048 2048"><defs><linearGradient id="a" x1="1175.65" x2="1160.93" y1="1505.48" y2="1480.58" gradientUnits="userSpaceOnUse"><stop class="stop0" offset="0" stop-color="#360713"/><stop class="stop1" offset="1" stop-color="#5f151d"/></linearGradient><linearGradient id="b" x1="1274.56" x2="1253.98" y1="1182.69" y2="1208.37" gradientUnits="userSpaceOnUse"><stop class="stop0" offset="0" stop-color="#2e0b06"/><stop class="stop1" offset="1" stop-color="#4a0d22"/></linearGradient><linearGradient id="c" x1="1710.9" x2="1706.73" y1="745.283" y2="737.846" gradientUnits="userSpaceOnUse"><stop class="stop0" offset="0" stop-color="#310009"/><stop class="stop1" offset="1" stop-color="#481211"/></linearGradient><linearGradient id="d" x1="535.351" x2="560.593" y1="1709.01" y2="1688.09" gradientUnits="userSpaceOnUse"><stop class="stop0" offset="0" stop-color="#390310"/><stop class="stop1" offset="1" stop-color="#500c2e"/></linearGradient><linearGradient id="e" x1="1824.65" x2="1828.75" y1="1518.7" y2="1515.07" gradientUnits="userSpaceOnUse"><stop class="stop0" offset="0" stop-color="#3d070f"/><stop class="stop1" offset="1" stop-color="#480024"/></linearGradient><linearGradient id="f" x1="1935.35" x2="1950.01" y1="1882.52" y2="1869.52" gradientUnits="userSpaceOnUse"><stop class="stop0" offset="0" stop-color="#3d0b15"/><stop class="stop1" offset="1" stop-color="#4d072f"/></linearGradient></defs><path fill="#dae6d7" d="M0 0h2048v2048H0z"/><path fill="#44091f" d="m1614.34 1198.03 10.35 14.44-1.79 4.58c-2.96-2.92-7.3-6.27-8.85-10.16.38-2.86.24-5.95.29-8.86"/><path fill="#3a050f" d="M1210.77 1151.93c.1-3.07.44-5.98 1.1-8.97 1.36-6.24 4.36-20.02 9.81-23.53.34 7.55-3.25 15.54-3.95 23.27-.04.43-.07.87-.11 1.31-3.03 2.43-4.37 4.88-6.16 8.3z"/><path fill="#2a0c15" d="M1058.1 1297.37c7.58-2.92 16.84-7.67 25.07-6.84 3.98.4 5.69 2.45 8.05 5.33l-4.23.34c-3.78-2.03-5.2-2.44-9.34-1.22-6.29 1.86-12.18 4.8-18.4 6.78zm-16.67-282.01c7.69-1.92 15.29-5.11 22.76-7.76-1.41 2.41-2.68 4.76-4.47 6.92-6.38 1.97-15.52 5.68-22.08 4.34-2.07-.42-2.04-.56-3.17-2.42.6-3.55 2.85-5.71 5.1-8.35.38 2.46.74 4.91 1.31 7.34z"/><path fill="#3a050f" d="M1712.64 718.622c2.08-2.155 4.19-4.023 6.7-5.676 5.87-3.866 11.23-3.832 17.92-2.476l-4.78 4.623c-5.65-.246-8.54.173-13.23 3.425l-.55-1.58-.96-.36c-.85.732-1.96 1.849-2.97 2.42-.14.083-2.01.997-2.41 1.006-6.22.148-14.14-2.487-20.49-3.266-5.51-.676-10.96-.635-16.44-1.649 4.94-.012 10.04.239 14.96-.194 7.51-.057 15.02 1.881 22.25 3.727m-534.06 359.758c-.69 5.99-2.72 11.8-4.3 17.6-3.9 14.3-5.43 25.48-3.79 40.22l-3.39 2.96c-3.41-21.99.9-41.36 11.48-60.78m-8.09 57.82a1231 1231 0 0 1 3.79 16.12l1.89-14.99a294 294 0 0 0 1.85 7.25l.78.43c.19-1.95.33-3.87.38-5.83l1.14 4.53a1622 1622 0 0 1-2.2 23.8c-6.36-8.89-9.03-17.81-11.02-28.35zm793.13-35.64 1.54 2.47c-7.53 16.35-12.95 33.58-17.2 51.05l-1.1-.08c.22-3.29.72-6.15 1.65-9.32l.3-.98-1.37.03-1.25 4.17-1.59-.06c2.87-15.97 10.52-33.54 19.02-47.28"/><path fill="#0b0000" d="M989.291 1104.56c15.959 11.43 53.769 1.54 73.739 2.71-3.55 2.25-7.06 4.67-10.86 6.48l-1.12-3.75c-.67.13-1.35.26-2.03.36-17.03 2.47-46.49 7.74-60.912-3.07z"/><path fill="#3a050f" d="M1920.36 1144.64c12.98-23.8 33.89-40.92 54.76-57.35-3.07 5.37-6.61 10.54-9.96 15.74l-1.54-2.47c-15.34 10.26-26.47 28.93-37.34 43.63-1.02-.11-.37.02-1.84-.76l2.74-3.03-.06-.86-1.11.04c-1.22 1.94-2.49 3.65-3.95 5.4zM170.933 1559.19c10.067 3.2 19.35 7.38 28.679 12.32-4.241 1.77-5.018-2.15-9.283 1.07 9.022 14.01 19.016 27.37 26.796 42.16l-1.624 2.94c-12.823-20.47-26.409-42.45-44.568-58.49M1759.21 156.495c9.57-10.169 21.32-14.895 34.63-18.091 7.58-1.822 21.9-3.542 28.72.675-2.31 3.157-11.14 5.385-15.07 6.921l-3.22-1.595c-3.66-2.553-7.4-2.27-11.78-1.442-11.81 2.235-24.62 11.795-33.15 19.938z"/><path fill="#44091f" d="m1210.77 1151.93.69.38c1.79-3.42 3.13-5.87 6.16-8.3-.11 16.87 1.39 28.63 7.36 44.41 2.39 6.3 5.11 12.48 6.84 19.01-12.06-9.16-19.8-23.52-21.67-38.58-.63-5.06-.86-12.01.62-16.92m507.71-1019.287 6.51 9.013c-1.71.911-.83.488-2.65 1.262 4.29 4.669 9.21 8.692 13.45 13.426 3.24 3.617 6.24 8.977 9.76 12.05 1.14.989 2.51 1.256 3.89 1.7 1.83 1.277 1.75 1.643 4.1 1.581 1.83 2.603 3.21 3.915 6.28 4.911 1.66.54 3.17 1.019 4.71 1.852 1.84.988 1.22.285 1.84 2.338-1.35 1.9-2.56 3.392-4.97 3.939-5.54 1.262-12.38-3.912-16.84-6.713-3.2.197-6.85.69-9.98-.176-2.63-.728-4.51-2.488-5.96-4.711l.58-2.214c.88-.68 1.46-1.204 2.54-1.65 3.3-1.37 8.03 1.099 11.21 2.287-2.19-3.736-4.47-7.616-7.41-10.818-4.84-5.277-18.83-14.991-19.79-21.693 2.27-1.218 1.33-.46 2.9-2.177l-2.24-2.869z"/><path fill="#3a050f" d="M80.497 1561.23c8.326 1.44 16.472 2.98 24.617 5.25l-4.274 1.01.581 1.29-1.004.46-4.634-.77-.212.82c4.778 6.23 12.099 10.78 17.605 16.48 16.873 17.47 34.735 38.81 46.618 60-2.51.84-3.682.75-6.246.14-21.234-30.14-45.556-59.98-73.05-84.68"/><path fill="#44091f" d="M1131.35 953.453c1.63 2.052 1.88 2.696 4.63 3.005.85.096 2.35.037 3.24.017-31.72 19.71-71.04 32.207-97.79 58.885l-.55.07c-.57-2.43-.93-4.88-1.31-7.34 20.45-22.698 64.22-41.467 91.78-54.637m58.74 138.297c-1.56 30.51-6.29 49.39 7.64 79 2.01 4.27 20.78 27.89 20.51 29.34-.08.43-.63.61-.95.91-4.76-.75-20.37-15.92-23.65-20.51-8.45-11.82-7.92-28.18-13.32-36.78l-1.14-4.53c-.05 1.96-.19 3.88-.38 5.83l-.78-.43a294 294 0 0 1-1.85-7.25c.6-14.55 7.96-32.48 13.92-45.58"/><path fill="#3a050f" d="M1724.17 1146.88c11.44 5.89 21.4 8.97 34.01 11.58l-2.52 2.37-13.68-3.55c43.46 28.46 78.17 79.11 97.64 127.12-5.31-7.48-9.53-15.12-18.47-18.55-26.53-7.63-71.82-20.28-99.24-17.7l.39.48-.72 3.34 2.1 3.02c-3.75-2.24-7.76-4.12-10.26-7.8l.29-1.96c10.3-6.19 64.49 3.02 76.45 6.01a227 227 0 0 1 33.58 11.46c-4.24-9.59-11.44-19.07-17.27-27.78-16.36-24.43-33.49-45.33-55.4-65.03-8.77-7.9-18.22-15.01-26.9-23.01"/><path fill="#2a0c15" d="M1692.72 112.198c14.3-.666 26.79.264 38 10.419 11.25 10.203 18.53 26.358 23.48 40.453l5.01-6.575.13 6.406c8.53-8.143 21.34-17.703 33.15-19.938 4.38-.828 8.12-1.111 11.78 1.442l3.22 1.595a463 463 0 0 1-11.33 5.346c1.09.749 1.66.756 2.94.933-2.5 5.361-17.12 13.299-22.85 15.274-5.95 2.052-11.73 3.014-17.85 1.318-2.09.721-3.38 1.121-4.86 2.804-2.35.062-2.27-.304-4.1-1.581-1.38-.444-2.75-.711-3.89-1.7-3.52-3.073-6.52-8.433-9.76-12.05-4.24-4.734-9.16-8.757-13.45-13.426 1.82-.774.94-.351 2.65-1.262l-6.51-9.013-2.07 1.338c-7.46-8.151-14.24-15.815-23.69-21.783"/><path fill="#723745" d="M1759.34 162.901c8.53-8.143 21.34-17.703 33.15-19.938 4.38-.828 8.12-1.111 11.78 1.442-15.63 5.534-27.96 16.288-44.28 21.276-.37-.815-.47-1.897-.65-2.78m-59.17-49.632c17.93 4.695 29.89 11.335 39.44 27.765 5.1 8.762 8.89 18.924 9.83 29.06-1.38-.444-2.75-.711-3.89-1.7-3.52-3.073-6.52-8.433-9.76-12.05-4.24-4.734-9.16-8.757-13.45-13.426 1.82-.774.94-.351 2.65-1.262l-6.51-9.013c-5.4-7.118-11.85-13.237-18.31-19.374"/><path fill="#44091f" d="M1737.26 710.47c7.6 5.293 11.33 10.763 13.04 19.949 3.27 17.545.7 34.333-9.7 49.012-33.48 47.225-141.51 68.784-130.9 132.233 4.75 28.394 26.12 53.319 47.28 71.459 3.95 3.385 14.12 9.604 15.93 14.231-2.01 2.565-3.37 3.516-6.68 3.856-10.27 1.07-18.92-3.447-28.66-4.697-2.62-3.3-5.03-6.907-5.88-11.061 7.67 3.13 15.26 5.684 23.26 7.879-21.59-18.69-39.11-36.427-48.57-64.07-17.58-51.368 15.46-74.434 54.38-98.7 15.95-9.948 31.92-19.803 47.15-30.847 12.36-8.961 24.8-19.026 31.33-33.217 6.57-14.28 6.36-30.131.89-44.635l-1.96-3.212c-1.98-.709-3.93-2.376-5.69-3.557zM476.758 622.896c5.253-1.401 10.129-3.726 15.226-5.573-64.724 60.409-107.964 140.644-110.921 230.351-2.605 79.064 30.139 155.386 83.908 212.626 21.671 23.07 44.912 42.24 70.522 60.74a546.3 546.3 0 0 1 147.742-20.78c43.814-.05 86.974 5.12 130.618 7.65 61.043 3.54 123.538-1.42 182.064-19.75 16.153-5.05 32.543-10.87 47.883-18.04 29.19-13.65 56.54-31.11 85.48-45.17-20.69 31.05-80.65 55.94-115.55 69.44-6.68 2.59-14.281 3.78-20.692 6.54-2.431 1.05-2.738 1.33-3.747 3.63l-1.183 2.73c-1.855-2-2.454-3.47-5.363-3.62-6.655-.34-25.198 5.75-33.715 7.17-28.595 4.76-57.014 8.29-86.032 8.49-46.281.33-88.889-5.04-134.672-7.1-95.297-4.29-196.078 5.92-276.283 62.1-13.248 9.28-24.951 19.92-36.754 30.91-9.346 10.96-21.143 21.64-28.559 33.98 1.337 3.15-2.809 48.46-2.678 58.05 3.354-2.17 6.677-4.41 10.121-6.43l-11.574 15.26c4.449 12.82-2.972 38.01 3.801 53.4.278 2.8-.796 4.72-1.918 7.19-6.291 13.5-12.751 26.83-16.83 41.21-8.745 30.83-11.239 81.82.484 111.97.943 2.42 2.072 3.9 3.973 5.65 2.364-.03 2.719-.69 4.381-2.32 9.709-9.52 9.574-28.55 16.041-40.81l.849-1.64c.028 11.29-.811 22.49-.091 33.77 2.38 37.31 18.388 70.36 39.221 100.75 2.948-11.41 2.733-23.24 4.408-34.84l7.843.74c10.512 38.46 35.863 79.57 66.036 105.76l.871-7.22c3.223.25 6.581.33 9.758.9l-1.154 7.89c5.517-2.97 10.827-5.57 16.727-7.7 3.19.51 3.736.62 6.208 2.66 12.31 10.88 23.58 24.05 24.742 41.24.557 8.24-4.421 18.08-2.142 25.45 13.69 8.31 30.575 32.19 42.029 44.6-3.632 1.51-103.708 22.32-107.226 22.32.49 6.61.485 13.02.258 19.64-10.702 16.83-32.566 23.98-51 28.06-27.686 6.14-71.016 5.55-95.62-10.14-7.583-4.84-12.647-11.48-16.305-19.6-25.191-63.73-.252-133.18 32.747-189.11 11.621-19.7 25.273-36.23 33.496-57.9l-5.24-13.04c-36.783 7.53-72.49 19.26-107.944 31.43-12.715 4.36-27.534 8.15-38.991 15.23-13.189-18.91-40.115-40.75-61.682-49.06 4.265-3.22 5.042.7 9.283-1.07 20.453 7.24 42.256 25.47 54.808 42.99 14.907-9.32 31.56-14.97 47.997-20.99 30.723-11.25 61.069-21.15 93.204-27.52-4.388-12.24-6.027-25.11-10.399-37.21l-1.13-.29c-1.053 1.26-2.125 2.53-3.328 3.65-2.53 2.35-6.478 4.73-10.069 4.28-2.478-.31-4.112-1.8-5.645-3.64-16.219-19.48-12.906-79.99-9.399-105.09-2.241 3.35-4.649 7.46-8.171 9.57-2.77 1.65-5.453 1.87-8.571 1.24-2.481-1.51-3.7-2.91-4.72-5.61-6.758-17.91 1.544-53.27 8.015-70.86 3.094-8.41 7.3-16.64 11.06-24.78-4.8 1.46-8.406 2.02-13.368 1.04-.627-1.4-1.302-2.79-1.609-4.3-1.763-8.67 2.377-21.62 5.123-29.83 10.385-31.08 27.93-60.67 48.914-85.73 8.597-10.26 18.263-19.59 26.395-30.25l1.051-1.39 1.173 1.38c5.035-7.15 11.735-13.11 18.851-18.13 7.947-2.73 18.584-12.62 26.362-17.26a329 329 0 0 1 58.457-27.7c-41.254-26.74-72.691-55.03-100.97-95.23-49.212-69.944-65.047-146.565-50.438-230.478-18.161 10.632-28.168 26.538-36.371 45.442-.89-1.383-1.838-1.924-3.164-2.861.767-3.068 2.343-6.447 3.64-9.343 7.05-15.743 20.45-30.412 36.713-36.499 10.488-53.749 37.258-106.171 73.27-147.292 6.525-7.451 15.146-13.002 21.614-20.435l1.241-1.453c1.637-2.06 4.281-2.939 6.61-4.035"/><path fill="#560a26" d="M511.668 1679.71c3.223.25 6.581.33 9.758.9l-1.154 7.89h-.672l-.717-.72c-2.753-.13-5.361-.43-8.086-.85z"/><path fill="#fbfbea" d="M386.73 1239.22c1.337 3.15-2.809 48.46-2.678 58.05-7.756 6.63-15.286 13.38-22.611 20.48-4.812 4.67-9.654 10.58-15.083 14.41-.045-.26-.106-.52-.134-.79-2.529-23.1 26.763-73.93 40.506-92.15m-4.131 66.88c4.449 12.82-2.972 38.01 3.801 53.4-17.386 12.34-25.2 56.32-41.216 69.52l-1.61-.22c-1.678-2.03-2.03-3.9-2.292-6.45-3.951-38.56 16.698-87.35 41.317-116.25"/><path fill="#e7d3a2" d="M409.235 1596.05c5.556 8.69 13.386 24.55 23.21 28.25 2.739-.33 3.438-.39 5.28-2.72 4.02-5.09 3.421-16.06 3.725-22.26 12.549 34.23 31.171 62.65 57.382 88.1l-3.601.79c-20.456-.15-40.574-5.7-57.727-16.69-5.609-4.85-10.916-9.65-15.839-15.2-9.847-11.28-16.356-26.64-20.891-40.74 1.246-6.69 5.353-13.49 8.461-19.53"/><path fill="#c0ca89" d="M543.207 1683.46c12.31 10.88 23.58 24.05 24.742 41.24.557 8.24-4.421 18.08-2.142 25.45 13.69 8.31 30.575 32.19 42.029 44.6-3.632 1.51-103.708 22.32-107.226 22.32-.747-3.14-1.484-6.33-2.549-9.39-7.52-21.57-18.927-24.74-37.232-33.66-2.071-3.78-2.178-7.3-1.104-11.43 2.058-7.91 7.647-15.29 12.441-21.76 19.422-26.22 42.895-41.7 71.041-57.37"/><path fill="#c0ca89" d="m399.78 1619.55.994-3.97c4.535 14.1 11.044 29.46 20.891 40.74 4.923 5.55 10.23 10.35 15.839 15.2 17.153 10.99 37.271 16.54 57.727 16.69l3.601-.79c2.718 2.75 6.509 4.81 9.729 6.95-14.335 8.45-27.567 20.1-37.517 33.47-5.124 6.88-22.586 33.07-20.775 41.61.126.6.304 1.18.446 1.77.132.55.245 1.1.377 1.65.094.39.2.78.299 1.17-6.599 1.41-13.323 1.5-19.928 2.8-18.143 3.57-41.109 11.93-54.215 25.39 21.835-6.96 60.271-25.81 82.888-18.2 11.017 3.71 19.189 12.14 24.084 22.49 3.934 8.32 8.462 23.97 4.995 32.69-2.072 5.21-8.718 6.78-13.48 8.68-.249-4.38-.431-8.85-1.06-13.19-1.842-12.74-7.433-25.45-17.943-33.3-3.705-2.77-6.667-5.34-11.525-4.63-1.888 3.28 7.15 9.19 9.058 12.78 7.251 13.66 10.998 25.15 13.032 40.46-12.486 3.13-25.176 5.28-37.832 7.6-.048-12.42-1.641-23.87-8.901-34.34-3.19-4.59-10.696-12.81-16.438-13.85l-1.056 1.1c1.411 6.49 9.215 11.74 11.908 18.19 4.067 9.74 6.449 18.26 7.445 28.79-18.266.06-50.458-1.13-65.558-12.41-11.276-8.43-14.427-30.33-16.08-43.57-6.705-53.67 16.766-113.57 43.214-159.39 4.409-7.63 8.659-16.12 14.035-23.1z"/><path fill="#3a050f" d="m416.549 1657.45 5.116-1.13c4.923 5.55 10.23 10.35 15.839 15.2l-2.635 3.26c-6.964-4.98-12.743-10.88-18.32-17.33"/><path fill="#3a050f" d="m399.78 1619.55.994-3.97c4.535 14.1 11.044 29.46 20.891 40.74l-5.116 1.13c-8.767-11.83-15.13-23.06-16.769-37.9m37.724 51.97c17.153 10.99 37.271 16.54 57.727 16.69l.465 1.27a173 173 0 0 1-3.885.64c-19.52 2.96-41.215-3.79-56.942-15.34z"/><path fill="#fbfbea" d="M1141.93 938.016c8.76 2.378 33.18 7.556 39.76 10.691 22.25 4.818 45.32 7.406 67.99 9.32 3.93 5.637 7.79 9.767 13.67 13.362 25.83 19.57 55.59 35.211 84.47 49.751 52.67 26.51 107.54 51.28 165.95 62.15 2.51.47 20.55 3.22 21.03 4.08l2.15.37-4.76 5.03c-10.24 9.26-15.77 20.2-16.23 34.22-.19 5.96.58 12.24 2.86 17.78 1.89 1.54 2.75 3.59 3.83 5.71 7.54 11.31 24.76 13.02 35.48 27.77l1.25-.49c-2.55-6.24-3.4-13.57-4.73-20.17.82-1.89.74-2.71.32-4.7l-3.09-1.02-.06-2.69c9.56 2.33 14.71 4.28 24.65 1.64l-1.42-2.04c2.21.08 3.6.14 5.78-.32l.7-.4c7.95 6.4 10.15 19.3 13.52 28.81 2.12 1.48 4.11 2.81 5.95 4.65 5.17 4.81 9.6 10.52 13.34 16.51-.05 2.91.09 6-.29 8.86 1.55 3.89 5.89 7.24 8.85 10.16l1.79-4.58c3.54 5.17 9.16 11.47 8.27 18.16-.43 3.22-2.49 5.51-5.15 7.16-5.33 3.29-13.12 4.29-19.25 5.25-1.71.29-3.79.25-5.09 1.4 5.04 29.5 7.45 57.86-.43 87.2-3.57-27.57-14.04-52.51-33.74-72.65 10.64 45.39 13.53 79.74-4.79 123.91.16 2.17.28 4.29.26 6.47 1.58-1.98 2.13-3.67 4.74-4.02-3.34 7.07-9.83 13.45-14.3 20.03-.02-9.84.19-19.73-.79-29.53-.76-5.43-1.29-10.58-1.29-16.08l-1.82.55c-1.81 8.15-5.2 16.02-8.15 23.81-4.95 20.61-9.38 41.2-16.15 61.32-12.21 36.25-34.41 79.16-54.11 112.08-11.1 18.55-26 35.56-35.72 54.8 4.85 13.81 12.78 24.3 19.01 37.15 5.39.08 13.58-3.41 18.89-4.91 16.63.47 29.98 2.99 41.88 15.79 10.52 11.31 19.36 28.72 18.71 44.44-.36 8.58-3.85 15.05-10.31 20.62-24.35 20.99-84.72 36.07-116.82 33-51.17-4.91-92.42-50.11-126.68-84.68-24.79-26.14-46.6-55.41-68.35-84.09-.99-1.68-2.01-2.76-3.35-4.16-20.35 17.82-43.68 27.13-70.16 31.69-2.2 1.46-4.33 2.73-6.68 3.94-7.79-.08-18.85 2.54-25.71-1.8-.54-2.34-.37-2.67.93-4.84 3.33-5.57 9.75-9.76 14.28-14.41-17.86 10.25-35.16 19.93-55.88 22.95-7.63 1.11-15.54.56-23.08 2.04.37-2.07.8-4.12 1.23-6.17 7.12-4.99 14.13-9.91 20.65-15.68l-2.97-4.13c-4.86.3-10.48 2.97-15.24 4.2-16.72 4.32-40.24 9.54-57.46 6.45-3.381-.61-4.995-1.55-6.968-4.32.314-.56.537-1.19.943-1.69.315-.39 25.615-14.73 32.965-22.39.3-.32.59-.64.88-.95 2.96-1.36 4.59-3.46 6.45-6-5.58-.21-11.18-.71-16.75-1.07-16.563-.95-33.198-3.15-49.703-4.85a1996 1996 0 0 1-147.132-20.89c2.184-23.99 2.871-45.08-2.421-68.82 20.965 3.38 41.669 6.8 62.919 8.04 44.397 2.59 94.509-2.86 136.707-16.58 19.86-6.46 50.28-16.41 60.44-36.38-1.71.07-3.34-.13-5.04-.29.76-1.74 22.87-23.81 26.74-28.61 3.11-4.11 5.9-8.28 8.63-12.64-.7-.71-.31-.2-.76-1.77 3.9-6.56 9.47-13.86 12.42-20.73 2.23-5.17 3-10.39 6.08-15.23l1.19.29c1.09 2.52 1 5.33.79 8.02-.68 9.08-6.49 27.32-13.48 33.14-2.49 2.08-3.93 4.94-5.55 7.71-.59 1-1.16 2.02-1.77 3.01-5.08 8.25-12.67 14.77-19.53 21.5-16.43 16.1-32.45 33.04-55.95 38.72-12.56 3.04-24.634 8.26-37.212 11.44-31.142 7.88-72.92 11.3-104.989 10.28-10.582-.34-65.862-7.81-68.708-7.28-.901 3.97 1.533 9.18 1.959 13.36.839 8.23 2.456 42.77-.708 49.95-.113.25-.282.48-.422.72.523.31 1.013.68 1.569.92 11.136 4.89 199.991 29.3 208.761 25.92 7.52-2.9 9.91-14.74 18.74-17.69l.51 1.94c-4.18 20.01-23.61 33.32-39.42 44.49 17.88.71 42.2-3.88 58.65-11.05 4.94-2.15 9.7-5.17 14.52-7.62 6.6-3.36 10.23-12.33 16.71-14.78l1.89 1.31c.23.81.39 1.15.28 2.09-1.3 11.74-25.8 34.03-35.01 40-2.49 1.62-4.76 3.51-7.07 5.36l.5.81c6.9-4.19 16.08-1.61 22.98-5.75 6.98-4.19 15.83-5.68 23.35-8.98 5.72-2.5 18.45-9.75 24.53-13.1 7.67-4.23 12.65-14.39 21.84-14.71l1.15 1.51c-2.3 12.71-17.78 27.62-26.3 36.98l.69.73c7.48-2.05 13.88-6.33 21.12-8.94 12.11-4.37 18.23-19.66 29.28-25.15 2.14-1.06 2.44-.88 4.55-.1l.77 2.01c-1.16 8.48-13.05 21.8-19.39 27.19-1.89 1.61-4.06 2.33-5.91 3.98 2.14-.09 3.47-.14 5.48-.92 1.38-.53 2.39-.81 3.88-1.06 2.6-.44 5.41-.55 7.67-2 8.88-5.7 19.05-9.37 28.35-14.35 4.07-2.18 6.86-3.62 8.26-8.29-.18-2.74-.69-4.6-2.16-6.95-6.05-9.69-15.31-17.42-22.19-26.61-2.58-3.44-13.22-20.63-15.15-21.84-.96-.6-4.88-1.05-6.18-1.34-5.79-1.29-18.04-3.06-21.34-8.26 1.9-6.99 23.02-12.71 29.29-17.65 2.22-1.75 4.38-2.77 6.94-3.9l.45-1.34c-9.86-.14-24.68.32-33.11-5.48-1.65-1.14-1.74-1.27-2.14-3.28 2.43-3.39 15.29-6.21 20.06-8.69 12.06-6.28 19.99-14.04 29.88-22.96 2.39-2.15 4.74-3.96 8.08-3.78l1.14 1.46c-.06.86-.06 1.29-.29 2.17-.78 3.02-3.78 5.95-5.71 8.32-8.09 9.93-15.39 16.14-26.73 21.99l.95.05-1.71.43.48.42c6.2.33 11.66-1.76 17.72-2.45 3.47-.4 5.15-1.26 8.07-3.22 2.52-1.7 5.58-4.12 8.53-4.94 2.1-.59 2.56-.21 4.36.75l.11 1.36c-6.59 11.65-20.97 27.59-33.46 32.86-3.21 1.35-7.09 2.76-8.77 6.04l1.28.66c11.92-1.76 26.93-2.03 38.22-6.18 2.62-.96 5.08-2.35 7.7-1.23.14 1.11.51 2.87.35 4.02-1.07 7.69-7.18 5.76-11.93 9.76-3.77 3.16-9.75 3.06-14.53 3.69l.22.47-3.16-.05c57.96 66.14 103.83 143.13 176.62 195.16 6.94 4.95 15.68 12.53 23.86 14.99 8.11 2.45 16.68 5.75 24.92 7.37 11.26 2.21 36.79-.31 47.8-4.4 2.45-.92 3.54-1.46 4.53-3.88-.88-8.57-7.85-30.92-14.35-36.52-3.8-3.29-10.34-6.07-13.26-9.97-1.51-2.04-1.4-2.78-1.11-5.09l2.2-.56c5.53 1.16 13.08 4.54 17.61 7.91 11.44 8.49 16.52 27.65 17.82 41.18l.14 1.56 1.86.8c5.44-.78 28.46-9.38 31.51-13.37 2.48-3.24 2.67-7.6 2.22-11.49-1.2-10.4-7.47-26.92-15.23-34.09-2.79-2.57-6.47-4.07-9.22-6.63-1.83-1.71-2.75-2.85-2.66-5.41 2.89-.94 5.21-.49 7.93.88 12.92 6.52 23.25 15.79 26.52 30.63 1.25 5.66 1.63 11.3 3.64 16.79.11.3.24.59.34.89.02.05.01.11.01.17l1.97-1.67 1.67-.07c2.13-1.48 3.41-2.99 4.23-5.47 2.91-8.89-1.53-20.85-5.41-29-4.55-9.56-17.21-20.84-27.08-24.3-13.5-4.72-35.24 4.19-47.48 10.75-3.62 1.93-6.17 5.05-9.89 6.74a137 137 0 0 0-18 9.83c-5.35 3.38-11.31 10.3-17.5 11.53-1.65.33-1.18.21-2.54-.91-.01-.36-.06-.72-.02-1.08 1.26-11.38 23.34-22.97 31.68-29.24 7.39-5.56 17.02-8.05 24.02-13.81-24.83-33.61-37.8-81.94-41.97-123.44-2.44-24.35-2.44-49.21-3.49-73.68-3.35-77.79-17.61-148.35-72.61-207.34-9.95-10.68-22.53-19.01-33.31-28.89 1.96 6.24 6.97 11.77 4.95 18.5l-2.21 1.15c-13.28.04-27.38-7.93-37.59-15.99-12.72-10.04-19.82-19.28-27.18-33.59-2-3.89-4.48-8.04-4.87-12.47-.78-8.78-1.21-19.99 1.64-28.42.8-2.38 1.68-2.98 3.86-4.01l1.86 1.15c-.02.29-.05.58-.07.86-1.02 20.14 9.87 41.73 23.14 56.17 5.93 6.43 21.27 21.54 29.87 21.9-.77-4.3-5.14-9.12-7.24-13.16-5.66-10.87-16.69-35.27-17.29-46.77-.14-2.47.2-3.3 1.87-5.05l1.81.74c6.03 8.89 7.57 19.28 14.61 28.19 16.84 21.32 45.42 38.62 64.49 60.55 47.4 54.54 63.88 123.95 68.83 194.34 1.31 18.69.02 38.49 2.42 56.94l.13-1.49 1.88-1.48.98 2.22c.27-.18.53-.37.79-.56 7.21-5.26 13.77-11.79 20.18-18.01 10.69-10.38 20.83-20.89 29.56-33.04 12.06-16.78 25.47-47.28 30.73-67.28 3.4-12.96 4.17-25.55 6.4-38.61.72-4.21 1.32-8.07 5.02-10.68l1.24.27c3.82 13.89-.67 42.25-3.57 56.46-1.48 7.22-11.28 35.02-9.22 40.19 3.48-2.01 6.7-7.63 9.1-10.92 15.98-21.8 28.87-48.93 31.54-76.06.94-9.53-3.95-30.09-.5-36.74l1.48-.18 2.11 1.93c1 3.81 2.7 7.23 3.72 11.01 2.67 9.83 7.01 31.12 7.98 41.17.88 9.16.39 18.79.45 28 14.28-27.15 19.48-67.48 12.95-97.62-1.73-7.96-6.92-20.22-5.65-27.96.84-.07 1.41-.17 2.28.05 6.7 1.64 12.96 16.25 16.85 21.6 7.5 10.33 14.08 25.47 14.7 38.31.09 1.94-.23.88 1.15 2.85l.8-.82c1.59-19.13 4.74-38.45.57-57.57-1.01-4.62-.68-12.02-3.04-15.91-1.96 1.17-1.16.98-2.99 1.25-7.71 1.16-15.33 3.22-23.04 4.54-10.78 1.85-28.41 5.45-37.8-1.8-6.55-5.05-14.98-33.19-15.63-41.7-1.38-18.05 11.03-13.83 19.52-23.79 2.2-2.59 3.07-3.72 6.44-4.81 1.79-.58 3.38-.93 4.96-2.01 1.51-1.04.98-.42 1.39-2.5-2.92-5.27-27.9-21.05-34.67-23.67-6.68-2.59-26.78-2.89-35.35-4.23-17.98-2.81-35.11-7.23-52.44-12.76-80.92-25.82-202.76-90.75-262-152.464-5.87-6.119-15.15-13.972-18.89-21.497-.12-.244-.97-2.078-1.15-2.372-1.36-2.196-2.55-3.026-4.94-3.776-8.61 2.132-17.69 10.04-25.63 14.285-16.09 8.599-55.66 25.361-66.18 38.374l8.8-2.42-1.12-1.65c1.02.81 1.52 1.53 2.85 1.66 3.74-2.43 8.79-3.29 12.92-5.05 8.3-3.523 15.26-6.624 24.18-8.828 5.71-1.409 11.74-2.007 17.36-3.595 2.65-.749 4.12-1.924 7-1.93 1.52-.003 2.14.061 3.64-.549 1.69-.689 2.36-.247 4.17.087.73 1.46 1.14 1.504.65 3.19-3.96 13.725-38.53 36.665-50.64 42.545l-1.56-.69c-14.53 7.38-37.36 17.94-53.87 16.7-2.71-.21-5.38-.21-7.21-2.26 1.94-7.1 17.73-16.16 23.92-20.35 4.98-3.87 10.66-6.5 15.26-10.91 1.79-2.16 3.06-4.51 4.47-6.92-7.47 2.65-15.07 5.84-22.76 7.76 26.75-26.678 66.07-39.175 97.79-58.885 2.39-.789 5-2.386 7.28-3.494l3.06-4.449c-2.55-3.477-5.27-6.909-7.63-10.516"/><path fill="#560a26" d="M1547.71 1333.91c.62 5.31 3.51 9.14 4.48 14.1.17 3.95.49 7.83.94 11.76l-1.82.55c-2.43-1.96-4.17-5.03-5.94-7.59 1.28-6.19 1.73-12.53 2.34-18.82"/><path fill="#3a050f" d="M1547.71 1333.91c-.58-10.7-1.95-21.67-1.89-32.36 4.89 12.22 9.38 26.9 10.28 40.14-1.33 2.09-2.74 4.14-3.91 6.32-.97-4.96-3.86-8.79-4.48-14.1m-395.61 152.58c21.47-9.22 29.55-20.15 46.65-34.11-8.12 16.27-21.06 30.15-38.8 35.94a50 50 0 0 1-3.37.96zm406.15-307.51 3.71.7.76 1.13c-.8.96-1.4 1.83-2.47 2.51-11.44 4.29-24.02 11.87-31.16 21.97.59 4.36.94 8.93 2.19 13.15l-5.67.77c-1.23-4.74-1.83-9.56-2.51-14.4 8.03-12.5 22.29-19.43 35.15-25.83"/><path fill="#0b0000" d="m1532.33 1237.45 5.22.34c1.86 4.57 2.9 8.43 7.87 10.39 12.52 4.93 33.98-1.25 46.49-5.01 2.74 1.04 5.45 2.04 8.28 2.84-12.81 4.09-44.84 11.53-57.33 6.64-6.15-2.41-8.12-9.6-10.53-15.2"/><path fill="#2a0c15" d="M1556.1 1341.69c1.72 8.6 3.15 17.05 3.56 25.81.32 6.73-.61 15.12.89 21.57 1.64-2.02 2.77-3.88 3.96-6.17.16 2.17.28 4.29.26 6.47 1.58-1.98 2.13-3.67 4.74-4.02-3.34 7.07-9.83 13.45-14.3 20.03-.02-9.84.19-19.73-.79-29.53-.76-5.43-1.29-10.58-1.29-16.08-.45-3.93-.77-7.81-.94-11.76 1.17-2.18 2.58-4.23 3.91-6.32"/><path fill="#3a050f" d="M1098.73 1392.29c.39-.48.78-.94 1.16-1.42 6.21-7.92 12.09-26.64 17.67-31.78 1.31 15.1-15.09 39.55-24.37 50.66-7.69 9.2-16.19 15.99-24.79 24.08-1.71.07-3.34-.13-5.04-.29.76-1.74 22.87-23.81 26.74-28.61 3.11-4.11 5.9-8.28 8.63-12.64"/><path fill="#44091f" d="m1153.72 1519.06 1.19.3c10.14 2.44 23.88 1.44 34.11-.74 5.46-1.16 12.26-4.88 17.76-4.09.44 2.29.19 2.85-.55 5.11-5.48 5.09-14.31 8.2-21.71 8.27-6.1-2.43-12.53-.74-18.82.18-7.38-.07-19.78-2.02-25.24-7.31l.31-1.43c3.91-.21 9.26-1.44 12.95-.29"/><path fill="url(#a)" d="M1156.58 1489.28c15.05 3.54 28.95-.18 41.84-8.21a428 428 0 0 0 6.6-4.22c-11.42 18.22-29.97 36.49-51.3 42.21-3.69-1.15-9.04.08-12.95.29 14.15-5.91 29.46-13.97 41.15-23.9-15.97 2.24-27.7.8-42.73-5.06 4.22-1.51 8.61-2.64 12.91-3.9z"/><path fill="#44091f" d="M1064.19 1007.6c22.84-9.181 48.49-20.272 73.53-19.88-9.48 6.012-20.5 9.242-30.93 13.31-17.79 6.94-35.36 13.97-51.99 23.43-4.77-.09-7.68 2.71-11.72 4.86.31-1.55.7-2.49 1.38-3.89 4.98-3.87 10.66-6.5 15.26-10.91 1.79-2.16 3.06-4.51 4.47-6.92"/><path fill="#3a050f" d="M1032.29 1039.76c22.43-6.66 44.48-12.67 64.99-24.34 10.95-6.23 20.84-16.066 32.49-20.71-14.42 14.68-30.96 25.56-48.15 36.63-14.53 7.38-37.36 17.94-53.87 16.7-2.71-.21-5.38-.21-7.21-2.26 1.94-7.1 17.73-16.16 23.92-20.35-.68 1.4-1.07 2.34-1.38 3.89 4.04-2.15 6.95-4.95 11.72-4.86-7.62 4.95-15.14 9.97-22.51 15.3"/><path fill="url(#b)" d="M1236.27 1141.89c1.17 9.22 2.23 18.42 4.89 27.35 8.36 28.12 29.77 44.78 54.56 58.15-3.34-7.9-7.73-15.42-11.39-23.2 2.7.41 3.13.39 5.14 2.18 4.14 7.56 12.19 18.88 13 27.32l-1.5 1.49c-2.38.35-4.41.11-6.71-.53-22.08-6.15-43.81-23.17-54.55-43.46-8.29-15.66-8.54-32.65-3.44-49.3"/><path fill="#44091f" d="M1024.34 1574.38c6.13-7.15 11.93-14.92 18.63-21.52-9.7 23.66-27.1 37.42-48.489 50.36 24.409-.88 62.959-4.62 83.149-19.82 5.2-3.91 8.91-9.6 13.93-13.6l.66 1.83c-6.33 13.43-15.29 22.14-26.48 31.58l-2.97-4.13c-4.86.3-10.48 2.97-15.24 4.2-16.72 4.32-40.24 9.54-57.46 6.45-3.381-.61-4.995-1.55-6.968-4.32.314-.56.537-1.19.943-1.69.315-.39 25.615-14.73 32.965-22.39.3-.32.59-.64.88-.95 2.96-1.36 4.59-3.46 6.45-6m20.75 44.51c34.82-.06 77.26-24.28 102.26-47.28-6.97 18.31-21.74 35.35-37.68 46.43 19.91-3.85 35.71-10.8 50.5-24.99 5.1-4.89 9.49-10.23 15.04-14.66.33-.27.67-.52 1-.78-7.28 21.51-17.86 26.42-34.63 38.42l-1.58 1.15c-2.2 1.46-4.33 2.73-6.68 3.94-7.79-.08-18.85 2.54-25.71-1.8-.54-2.34-.37-2.67.93-4.84 3.33-5.57 9.75-9.76 14.28-14.41-17.86 10.25-35.16 19.93-55.88 22.95-7.63 1.11-15.54.56-23.08 2.04.37-2.07.8-4.12 1.23-6.17m104.47-670.358c7.98 9.775 16.13 19.217 24.69 28.495l.49-.086c37.84 36.559 82.39 63.639 128.27 88.729 57.83 31.63 117.65 59.37 182.5 73.06 10.66 2.25 22.44 5.37 33.31 6.04 1.89 1.54 2.75 3.59 3.83 5.71-3.34.25-6.77.1-10.11-.08-98.64-5.1-277.22-98.24-343.37-170.996-8.37-6.516-16.38-17.819-22.67-26.423z"/><path fill="#3a050f" d="M1149.56 948.532c7.98 9.775 16.13 19.217 24.69 28.495l-1.37.978c-7.11-5.123-11.78-13.716-18.37-19.607l-.57.833c5.51 6.596 12.13 12.54 17.1 19.496l-1.87.677c-8.37-6.516-16.38-17.819-22.67-26.423z"/><path fill="#fdcc68" d="m1580.83 1148.46.7-.4c7.95 6.4 10.15 19.3 13.52 28.81 2.12 1.48 4.11 2.81 5.95 4.65 5.17 4.81 9.6 10.52 13.34 16.51-.05 2.91.09 6-.29 8.86 1.55 3.89 5.89 7.24 8.85 10.16l1.79-4.58c3.54 5.17 9.16 11.47 8.27 18.16-.43 3.22-2.49 5.51-5.15 7.16-5.33 3.29-13.12 4.29-19.25 5.25-1.71.29-3.79.25-5.09 1.4l-3.28 1.57c-2.83-.8-5.54-1.8-8.28-2.84-12.51 3.76-33.97 9.94-46.49 5.01-4.97-1.96-6.01-5.82-7.87-10.39l-5.22-.34-6.72-18.24 5.67-.77c-1.25-4.22-1.6-8.79-2.19-13.15 7.14-10.1 19.72-17.68 31.16-21.97 1.07-.68 1.67-1.55 2.47-2.51l-.76-1.13-3.71-.7-.12-.73 1.25-.49c-2.55-6.24-3.4-13.57-4.73-20.17.82-1.89.74-2.71.32-4.7l-3.09-1.02-.06-2.69c9.56 2.33 14.71 4.28 24.65 1.64l-1.42-2.04c2.21.08 3.6.14 5.78-.32"/><path fill="#3a050f" d="m1525.61 1219.21 5.67-.77c1.75 6.62 3.86 12.94 6.27 19.35l-5.22-.34z"/><path fill="#fbfbea" d="M1555.55 1209.72c3.66 2.87 6.21 6.86 8.96 10.58.01.44.02.87.02 1.31l-.01 1.92c0 1.52.17 3.44-.24 4.9-.84 3.03-3.51 4.33-6.02 5.82-1.02-.9-2.65-2.12-3.33-3.29-2.04-3.55.24-8.33 1.32-11.95-1.5-2.26-3.93-1.26-6.28-3.03 1.23-2.67 3.43-4.34 5.58-6.26"/><path fill="#3a050f" d="m1622.9 1217.05 1.79-4.58c3.54 5.17 9.16 11.47 8.27 18.16-.43 3.22-2.49 5.51-5.15 7.16-5.33 3.29-13.12 4.29-19.25 5.25-1.71.29-3.79.25-5.09 1.4l-3.28 1.57c-2.83-.8-5.54-1.8-8.28-2.84 12.17-5.25 25.8-7.49 37.51-13.52l.45-1.4c-1.47-4.18-4.39-7.63-6.97-11.2"/><path fill="#e7d3a2" d="M1562.07 1200.62c5.32.25 8.86-.26 13.63-2.69 1.69-.86 2.82-1.4 4.76-1.56 3.26 2.51 5.41 3.58 6.05 7.84.07.44.11.89.16 1.34-2.36.51-4.76.72-6.61 2.39-2.4 2.2-2.91 2.37-3.56 5.5l1.87 5.69-1.23 1.27c-2.04.25-3.77.21-5.75-.48-4.14-1.46-8.58-5.92-10.16-10.01-1.46-3.79-.65-5.79.84-9.29"/><path fill="#44091f" d="m1593.47 1184.8-1.75-4.31.67-1.12c1.69 1.52 2.68 2.59 3.65 4.65l1.3-2.07 3.66-.43c5.17 4.81 9.6 10.52 13.34 16.51-.05 2.91.09 6-.29 8.86l-3.72-2.21c-8.87 5.21-1.32 27.66-20.48 22.36-3.59-1-6.21-3.6-9.01-5.91l-2.47-2-1.87-5.69c.65-3.13 1.16-3.3 3.56-5.5 1.85-1.67 4.25-1.88 6.61-2.39-.05-.45-.09-.9-.16-1.34-.64-4.26-2.79-5.33-6.05-7.84l.1-.37c-1.77-3.44-4.13-9.52-3.69-13.42.17-1.56.9-1.69 2.02-2.59 5.22-.43 10.19 2.29 14.58 4.81"/><path fill="#f7bb55" d="m1593.47 1184.8-1.75-4.31.67-1.12c1.69 1.52 2.68 2.59 3.65 4.65 3.87 5.72 8.01 10.36 8.39 17.51l-8.74 1.51c-2.9-1 1.09-11.65-2.22-18.24"/><path fill="#f9f1eb" d="m1595.69 1203.04 8.74-1.51c.25 5.59-.6 13.78-4.43 18.1-1.61 1.8-3.56 3.28-6.04 3.6-3.25.42-6.17-1.01-8.47-3.18-3.5-3.32-4.53-7.53-5.43-12.11 1.85-1.67 4.25-1.88 6.61-2.39 4.27 2.08 9.2 5.72 13.98 5.84.29-1.86-3.79-5.11-4.67-7.33-.13-.33-.19-.68-.29-1.02"/><path fill="#fdcc68" d="m1580.46 1196.37.1-.37c-1.77-3.44-4.13-9.52-3.69-13.42.17-1.56.9-1.69 2.02-2.59 5.22-.43 10.19 2.29 14.58 4.81 3.31 6.59-.68 17.24 2.22 18.24.1.34.16.69.29 1.02.88 2.22 4.96 5.47 4.67 7.33-4.78-.12-9.71-3.76-13.98-5.84-.05-.45-.09-.9-.16-1.34-.64-4.26-2.79-5.33-6.05-7.84"/><path fill="#3a050f" d="m1580.83 1148.46.7-.4c7.95 6.4 10.15 19.3 13.52 28.81 2.12 1.48 4.11 2.81 5.95 4.65l-3.66.43-1.3 2.07c-.97-2.06-1.96-3.13-3.65-4.65l-.67 1.12 1.75 4.31c-4.39-2.52-9.36-5.24-14.58-4.81-1.12.9-1.85 1.03-2.02 2.59-.44 3.9 1.92 9.98 3.69 13.42l-.1.37c-1.94.16-3.07.7-4.76 1.56-4.77 2.43-8.31 2.94-13.63 2.69-.63-1.24-1.25-2.46-1.79-3.74-2.15-5.18-2.13-8.41-.03-13.56 1.07-.68 1.67-1.55 2.47-2.51l-.76-1.13-3.71-.7-.12-.73 1.25-.49c-2.55-6.24-3.4-13.57-4.73-20.17.82-1.89.74-2.71.32-4.7l-3.09-1.02-.06-2.69c9.56 2.33 14.71 4.28 24.65 1.64l-1.42-2.04c2.21.08 3.6.14 5.78-.32"/><path fill="#e7d3a2" d="M1572.5 1159.97c2.09-.04 4.82-.28 6.79.44 3.07 1.12 7 5.7 8.25 8.7.96 2.29 1 3.42-.04 5.61l-3.99-.18a75 75 0 0 1-2.56-1.19c-3.78-1.87-5.33-3.51-6.75-7.57 1.76-.53.9-.44 3.08-.21.56.06 1.12.14 1.68.21-1.42-2.66-4.06-4.05-6.46-5.81"/><path fill="#f9f1eb" d="M1562.85 1182.35c3.55 1.36 6.98 2.53 10.07 4.78 1.77 2.86 1.08 5.61.75 8.77-1.84.23-3.87.6-5.72.49-2.74-.16-3.84-1.32-5.54-3.27-1.04-3.73-.2-7.02.44-10.77m-11.03-33.17c9.56 2.33 14.71 4.28 24.65 1.64l2.52 1.68c-2 2.32-3.64 3.15-6.77 3.38-4.87.35-8.45-.92-12.18 2.71-2.06 6.72 3.02 13.41 1.44 18.9l-2.1.27c-2.55-6.24-3.4-13.57-4.73-20.17.82-1.89.74-2.71.32-4.7l-3.09-1.02z"/><path fill="#44091f" d="M1165.7 1528.09c6.29-.92 12.72-2.61 18.82-.18-2.61.49-5.02.53-7.09 2.28 8.77 10.75 18.65 20.43 27.2 31.41 42.4 54.51 130.19 179.94 203 187.8 16.96 1.83 35.21-.78 51.59-5.23-.67-17.55-5.26-32.93-18.44-45.29-4.27-4.01-9.36-7.44-13.99-11.02 12.63 3.52 22.93 8.14 29.91 19.99 6.12 10.37 8.15 22.57 9.62 34.34 13.05-4.67 27.03-8.82 38.64-16.56-1.23-18.31-5.06-37.33-19.86-49.82-3.4-2.87-7.26-5.16-11.07-7.43 12.47 2.66 21.5 7.72 28.48 18.89 6.39 10.23 9.02 22.12 9.61 34.04 4.58-3.24 9.19-6.3 12.97-10.49-1.88-19.21-6.41-35.63-22.14-48.28-8.23-6.62-17.53-9.71-28.08-8.24-30.18 4.18-56.87 27.16-82.33 42.28 15.67-20.8 37.19-33.96 60.53-44.89l3.12-2.21c5.39.08 13.58-3.41 18.89-4.91 16.63.47 29.98 2.99 41.88 15.79 10.52 11.31 19.36 28.72 18.71 44.44-.36 8.58-3.85 15.05-10.31 20.62-24.35 20.99-84.72 36.07-116.82 33-51.17-4.91-92.42-50.11-126.68-84.68-24.79-26.14-46.6-55.41-68.35-84.09-.99-1.68-2.01-2.76-3.35-4.16-10.22-13.13-21.44-25.53-31.37-38.88-3.89-5.24-8.08-14.83-13.09-18.52"/><path fill="#44091f" d="M1267.44 1154.84c4.48 8.79 7.24 19.06 12.55 27.25 15.08 23.27 41.95 38.01 61.04 57.92 68.04 70.95 77.03 169.26 78.27 262.42 43.45-26.3 75.84-76.17 87.88-124.96 3.63-14.71 3.98-30.9 8.46-45.16l1.41-.28c1.42 3.71.79 8.35.68 12.31-.86 31.34-10.85 59.03-16.81 89.37a164.2 164.2 0 0 0 44.45-80.98c1.77 2.56 3.51 5.63 5.94 7.59-1.81 8.15-5.2 16.02-8.15 23.81-4.95 20.61-9.38 41.2-16.15 61.32-12.21 36.25-34.41 79.16-54.11 112.08-11.1 18.55-26 35.56-35.72 54.8 4.85 13.81 12.78 24.3 19.01 37.15l-3.12 2.21c-49.94-61.45-43-151.71-48.83-225.69-2.58-32.79-7.68-65.5-19.35-96.41-12.19-32.3-30.3-62.96-54.96-87.31-7.19-7.1-15.38-13.39-22.94-20.14-5.02-4.5-11.73-13.15-17.52-15.77-2.01-1.79-2.44-1.77-5.14-2.18-8.04-9.35-14.96-36.84-16.89-49.35"/><path fill="#e7c4b8" d="M1531.64 1404.79c.77 7.02-5.46 19.64-8.13 26.46-24.1 61.58-54.55 114.22-88.85 170.41-2.55-7.09-4.04-14.54-5.72-21.87-4.81-23.79-7.81-46.94-9.24-71.14 35.6-15.52 55.47-47.89 78.53-76.97-.03 6.63-1.26 13.22-2.22 19.77 10.24-16.7 24.47-28.49 35.63-46.66"/><path fill="#da6855" d="M1141.93 938.016c8.76 2.378 33.18 7.556 39.76 10.691 22.25 4.818 45.32 7.406 67.99 9.32 3.93 5.637 7.79 9.767 13.67 13.362 25.83 19.57 55.59 35.211 84.47 49.751 52.67 26.51 107.54 51.28 165.95 62.15 2.51.47 20.55 3.22 21.03 4.08l2.15.37-4.76 5.03c-10.24 9.26-15.77 20.2-16.23 34.22-.19 5.96.58 12.24 2.86 17.78-10.87-.67-22.65-3.79-33.31-6.04-64.85-13.69-124.67-41.43-182.5-73.06-45.88-25.09-90.43-52.17-128.27-88.729l-.49.086c-8.56-9.278-16.71-18.72-24.69-28.495-2.55-3.477-5.27-6.909-7.63-10.516"/><path fill="#3a050f" d="M1221.43 967.654c1.06.982.54.303 1.13 2.308-1.94 7.751-5.23 15.683-9.4 22.509-.83-1.303-1.58-2.43-1.62-4.047-.2-7.437 5.47-15.22 9.89-20.77m264.76 128.896c2.28 1.88 2.61 4.09 2.89 6.87.58 5.74.97 13.15-2.8 17.82-1-.88-1.71-1.66-2.19-2.96-2.27-6.21-.6-15.89 2.1-21.73m-179.98-75.79.77.42c.56 7.77-5.12 21.65-7.5 29.16-1.65-1.73-1.63-3.43-1.77-5.74-.54-9.32 2.55-16.84 8.5-23.84m-37.91-16.06.72.87c1.55 6.04-2.71 28.65-3.54 36.29-.38-.95-.45-1.06-.76-2.21-3.22-11.68-2.74-24.44 3.58-34.95m-23.66-16.71c-.11 4.553-7.8 29.48-9.99 34.36-.72-3.08-1.21-6.07-1.2-9.25.05-10.51 3.88-17.846 11.19-25.11"/><path fill="#44091f" d="M1428.35 1077.59c1.7 1.15 2.22 1.61 3.02 3.61 3.44 8.54 1.64 19.08-1.94 27.2-.94.3-1.74.19-2.72.15-1.89-6.05 1.45-23.64 1.64-30.96"/><path fill="#3a050f" d="m1348.45 1037.72 1.17 1.43c1.66 9.59-1.24 23.39-4.86 32.32-1.58-1.43-1.51-1.72-1.78-3.88-1.07-8.67.34-22.76 5.47-29.87"/><path fill="#44091f" d="M1381.64 1053.57c2.63 1.85 3.5 5.89 3.95 8.94 1.34 9.04-3.6 17.82-8.58 24.92l-3.02.41-.68-1.12c3.94-10.9 6.49-21.73 8.33-33.15"/><path fill="#fbfbea" d="M1456.73 997.504c-20.13-4.346-39.85-15.38-55.56-28.504-13.86-11.581-30.89-28.435-32.41-47.252-1.64-20.342 2.9-42.371 9.3-61.58 21.31-63.958 58.05-98.976 100.1-148.458 13.02 24.873 43.26 44.479 67.74 56.465 24.19 11.849 61.44 20.248 87.75 11.196 3.43-4.418 14.92-3.879 20.26-6.587 4.29-2.178 9.27-2.614 13.77-4.325 4.33-1.644 8-4.436 12.44-6.039.3-.107.6-.207.9-.311l.34-.922c-8.01 1.208-24.43 10.363-31.13 7.443a1224 1224 0 0 0 24.38-7.823c2.38-.722 3.73-2.251 5.57-3.869 7.87-.707 26.52-13.431 33.81-17.889l-.89-.923c1.72-4.235 1.34-9.531 1.5-14.069 1.62-1.782 3.13-3.671 4.65-5.539 4.69-3.252 7.58-3.671 13.23-3.425 1.76 1.181 3.71 2.848 5.69 3.557l1.96 3.212c5.47 14.504 5.68 30.355-.89 44.635-6.53 14.191-18.97 24.256-31.33 33.217-15.23 11.044-31.2 20.899-47.15 30.847-38.92 24.266-71.96 47.332-54.38 98.7 9.46 27.643 26.98 45.38 48.57 64.07-8-2.195-15.59-4.749-23.26-7.879.85 4.154 3.26 7.761 5.88 11.061 11.4 26.557 23.19 61.317 11.42 89.907-1.16 2.84-2.5 4.67-4.7 6.78l-1.8.49c-5.08-4.27-9.24-27.15-12.51-34.87-.25-.59-.49-1.19-.73-1.79l-.46-1.07c-2.58 25.25-9.34 67.24-30.11 83.98-3.34 2.69-6.74 4.03-10.85 5.07-2.84.22-4.16 1.38-6.3 3.05l-.7.4c-2.18.46-3.57.4-5.78.32l1.42 2.04c-9.94 2.64-15.09.69-24.65-1.64l.06 2.69 3.09 1.02c.42 1.99.5 2.81-.32 4.7 1.33 6.6 2.18 13.93 4.73 20.17l-1.25.49c-10.72-14.75-27.94-16.46-35.48-27.77-1.08-2.12-1.94-4.17-3.83-5.71-2.28-5.54-3.05-11.82-2.86-17.78.46-14.02 5.99-24.96 16.23-34.22l4.76-5.03-2.15-.37c-.48-.86-18.52-3.61-21.03-4.08-58.41-10.87-113.28-35.64-165.95-62.15-28.88-14.54-58.64-30.181-84.47-49.751.34-.412.38-1.003.51-1.52-2.94-2.288-5.95-4.345-8.02-7.499.42-1.791-.06-.984 1.76-2.201l-.03.028c3.7 3.386 7.76 7.496 12.71 8.903.61.176 1.24.323 1.86.484a516 516 0 0 0-14.18-11.705c19.2.985 37.81 2.058 56.95-.427 6.8 8.795 19.83 21.592 30.93 23.921l2.06-.836c.79-2.382.25-4.323-.84-6.509-1.17-2.362-2.6-4.641-3.97-6.898 13.98 12.764 30.17 25.828 49.36 29.266 2.45.439 6.54 1.341 9 .812 1.17-.253 1.31-.436 2.18-1.008l.36-1.632c-2.22-2.26-5.18-3.119-7.26-5.309-4.68-4.931-13.2-23.653-16.84-30.698 20 20.057 38.09 35.244 65.53 44.179 7.97 2.6 16.51 5.02 24.95 5.25 1.65.05 2.93-.2 4.47-.77l.87-1.64c-1.11-3.55-3.58-5.646-6.13-8.247-3.72.36-9.31.925-12.85.171"/><path fill="#560a26" d="M1448.63 987.2c1.94-.958 3.13-1.448 4.52-3.151 1.47-1.796.19-.689 2.21-2.115l1.03 1.526c2.31 4.924 9.18 10.075 13.19 13.873-3.72.36-9.31.925-12.85.171l.34-.47c-.82-3.444-5.87-7.233-8.44-9.834"/><path fill="url(#c)" d="M1719.25 718.518c4.69-3.252 7.58-3.671 13.23-3.425 1.76 1.181 3.71 2.848 5.69 3.557l1.96 3.212c-24.14 28.529-69.46 52.575-106.48 57.509 3.43-4.418 14.92-3.879 20.26-6.587 4.29-2.178 9.27-2.614 13.77-4.325 4.33-1.644 8-4.436 12.44-6.039.3-.107.6-.207.9-.311l.34-.922c-8.01 1.208-24.43 10.363-31.13 7.443a1224 1224 0 0 0 24.38-7.823c2.38-.722 3.73-2.251 5.57-3.869 7.87-.707 26.52-13.431 33.81-17.889l-.89-.923c1.72-4.235 1.34-9.531 1.5-14.069 1.62-1.782 3.13-3.671 4.65-5.539"/><path fill="#e88a7f" d="M1719.25 718.518c4.69-3.252 7.58-3.671 13.23-3.425 1.76 1.181 3.71 2.848 5.69 3.557-8.98 5.108-15.38 14.525-24.18 20.399l-.89-.923c1.72-4.235 1.34-9.531 1.5-14.069 1.62-1.782 3.13-3.671 4.65-5.539"/><path fill="#44091f" d="M1472.85 944.581c17.09 9.462 31.58 23.109 49.12 32.462 10.4 5.547 25.56 7.29 34.45 14.257l-.22 1.565c-2.41 1.72-4.71 2.63-7.55 3.489-34.33 10.406-61.66 3.194-92.26-12.894l-1.03-1.526c-2.02 1.426-.74.319-2.21 2.115-1.39 1.703-2.58 2.193-4.52 3.151-9.23-10.467-16.84-22.681-23.71-34.794 7.7 4.62 14.55 11.197 22.03 16.276 28.71 19.483 52.94 25.324 87.01 22.679-26.47-9.383-45.21-23.396-61.11-46.78m-209.5 26.808c.34-.412.38-1.003.51-1.52-2.94-2.288-5.95-4.345-8.02-7.499.42-1.791-.06-.984 1.76-2.201l-.03.028c3.7 3.386 7.76 7.496 12.71 8.903.61.176 1.24.323 1.86.484l1.4.677c17.22 8.487 35.77 23.112 53.29 32.849 73.28 40.71 166.17 83.87 251.85 80.54 10.29-.4 21.14-2.39 31.26-4.26l-.94 1.54a274 274 0 0 1-6.7 1.65c.05.55.15 1.09.15 1.64 0 .36-.1.71-.15 1.07 2.74-.59 3.25-.99 5.75.14-11.65 5.26-23.78 1.18-35.55 4.17.14 4.68-.87 5.96-3.06 9.97l-2.35-1.71.37-2.88-1.01-1.01.91-3.07c-.25-.22-.48-.47-.76-.66-5.39-3.6-16.73-1.23-22.74.12-4.17.29-7.52 2.51-11.67 2.41l4.76-5.03-2.15-.37c-.48-.86-18.52-3.61-21.03-4.08-58.41-10.87-113.28-35.64-165.95-62.15-28.88-14.54-58.64-30.181-84.47-49.751"/><path fill="#3a050f" d="M1643.62 1074.38c1.12-25.28-1.6-51.32-15.13-73.48-4.82-7.901-11.55-15.209-15.33-23.636l1.69-.673c5.89 1.32 11.6 5.788 16.84 8.861.85 4.154 3.26 7.761 5.88 11.061 11.4 26.557 23.19 61.317 11.42 89.907-1.16 2.84-2.5 4.67-4.7 6.78l-1.8.49c-5.08-4.27-9.24-27.15-12.51-34.87-.25-.59-.49-1.19-.73-1.79l-.46-1.07c-2.58 25.25-9.34 67.24-30.11 83.98-3.34 2.69-6.74 4.03-10.85 5.07-1.03-2.06-1.12-2.04-.6-4.26.09-7.24.31-13.83-2.4-20.71-3.9-7.38-10.14-13.99-15.39-20.47 2.19-4.01 3.2-5.29 3.06-9.97 11.77-2.99 23.9 1.09 35.55-4.17-2.5-1.13-3.01-.73-5.75-.14.05-.36.15-.71.15-1.07 0-.55-.1-1.09-.15-1.64a274 274 0 0 0 6.7-1.65l.94-1.54c2.06-.8 4.23-1.58 6.14-2.7 3.47-2.05 4.85-6.03 5.55-9.78 3.82-20.54-10.42-38.9-21.52-54.15l1.75.86c23.31 11.67 33.95 37.49 41.76 60.76"/><path fill="#da6855" d="M1608.05 1085.43c3.37-.86 6.77-1.66 10.09-2.68-6.53 21.07-15.01 42.19-30.91 58 .09-7.24.31-13.83-2.4-20.71-3.9-7.38-10.14-13.99-15.39-20.47 2.19-4.01 3.2-5.29 3.06-9.97 11.77-2.99 23.9 1.09 35.55-4.17"/><path fill="#3a050f" d="M1543.86 1090.36c6.01-1.35 17.35-3.72 22.74-.12.28.19.51.44.76.66l-.91 3.07 1.01 1.01-.37 2.88 2.35 1.71c5.25 6.48 11.49 13.09 15.39 20.47 2.71 6.88 2.49 13.47 2.4 20.71-.52 2.22-.43 2.2.6 4.26-2.84.22-4.16 1.38-6.3 3.05l-.7.4c-2.18.46-3.57.4-5.78.32l1.42 2.04c-9.94 2.64-15.09.69-24.65-1.64l.06 2.69 3.09 1.02c.42 1.99.5 2.81-.32 4.7 1.33 6.6 2.18 13.93 4.73 20.17l-1.25.49c-10.72-14.75-27.94-16.46-35.48-27.77-1.08-2.12-1.94-4.17-3.83-5.71-2.28-5.54-3.05-11.82-2.86-17.78.46-14.02 5.99-24.96 16.23-34.22 4.15.1 7.5-2.12 11.67-2.41"/><path fill="#e7d3a2" d="M1572.2 1110.24c3.39 3.82 6.94 7.48 9.48 11.93l3.15-2.13c2.71 6.88 2.49 13.47 2.4 20.71-.52 2.22-.43 2.2.6 4.26-2.84.22-4.16 1.38-6.3 3.05l-.7.4c-2.18.46-3.57.4-5.78.32-1.45-4.11 1.27-9.59 2.48-13.79l-6.22-20.05c-.02-1.72.44-3.06.89-4.7"/><path fill="#560a26" d="M1584.83 1120.04c2.71 6.88 2.49 13.47 2.4 20.71-.52 2.22-.43 2.2.6 4.26-2.84.22-4.16 1.38-6.3 3.05l-.7.4c.54-9.54 2.57-16.36.85-26.29z"/><path fill="#da6855" d="M1571.31 1114.94c-.65 6.62 2.23 12.56 2.53 19.1.16 3.4-.4 7.64-3.15 9.98-2.21 1.88-5.24 2.49-8.08 2.45-6.56-.08-14.32-2.74-18.93-7.56-2.87-3-4.3-6.97-4.23-11.11.17-9.05 6.88-19.6 13.72-25.35 2.29-1.94 5.21-3.16 8.25-2.48 5.01 1.12 7.98 6.4 10.78 10.27-.45 1.64-.91 2.98-.89 4.7"/><path fill="#3a050f" d="M1543.86 1090.36c6.01-1.35 17.35-3.72 22.74-.12.28.19.51.44.76.66l-.91 3.07-2.46.15-2-2.06c-6.03.1-12.13 4.47-16.22 8.59-6.94 6.99-12.53 17.93-12.2 27.96a20.9 20.9 0 0 0 7.21 15.3c3.11 2.65 7.19 4.08 11.04 5.27l.06 2.69 3.09 1.02c.42 1.99.5 2.81-.32 4.7 1.33 6.6 2.18 13.93 4.73 20.17l-1.25.49c-10.72-14.75-27.94-16.46-35.48-27.77-1.08-2.12-1.94-4.17-3.83-5.71-2.28-5.54-3.05-11.82-2.86-17.78.46-14.02 5.99-24.96 16.23-34.22 4.15.1 7.5-2.12 11.67-2.41"/><path fill="#fbfbea" d="M1543.86 1090.36c6.01-1.35 17.35-3.72 22.74-.12.28.19.51.44.76.66l-.91 3.07-2.46.15-2-2.06c-6.03.1-12.13 4.47-16.22 8.59-6.94 6.99-12.53 17.93-12.2 27.96a20.9 20.9 0 0 0 7.21 15.3c3.11 2.65 7.19 4.08 11.04 5.27l.06 2.69c-3.93.82-7.98 1.19-11.96 1.67-3.97-2.66-8.13-5.29-11.12-9.1-5.15-6.57-6.55-14.77-5.24-22.88 2.14-13.24 9.56-23.59 20.3-31.2m-1339.583-54.84c-24.335-25.38-47.608-58.931-51.848-94.661-1.277-10.754-1.032-26.854 5.851-35.668 3.208-1.386 5.435-.448 8.837.107-1.241-14.109-7.31-27.251-7.887-41.556-.483-11.961 1.632-31.676 10.069-40.551 1.884-1.982 3.095-2.242 5.827-2.327.653-.02 1.403.296 1.958-.047 3.011-1.86-3.714-26.459 11.407-40.662 2.411-2.265 4.244-3.091 7.521-3.026 1.928 1.665 3.103 2.826 5.571 3.669 1.932-5.4.91-12.352 1.449-18.084.508-5.397 1.717-10.888 2.968-16.158 4.909-20.69 18.4-52.977 37.719-64.237 3.854-2.246 7.146-2.923 11.454-1.771.833.223 2.805.923 3.575.772 6.711-1.31 30.418-40.834 58.336-42.2 2.658-.13 3.665.406 5.628 2.083.345 1.878.692 3.422 1.509 5.154 4.365-1.467 8.274-4.925 11.933-7.679 17.319-13.03 55.135-24.897 76.374-27.684 20.512-2.692 47.142-1.307 64.23 11.902-2.329 1.096-4.973 1.975-6.61 4.035l-1.241 1.453c-6.468 7.433-15.089 12.984-21.614 20.435-36.012 41.121-62.782 93.543-73.27 147.292-16.263 6.087-29.663 20.756-36.713 36.499-1.297 2.896-2.873 6.275-3.64 9.343 1.326.937 2.274 1.478 3.164 2.861 8.203-18.904 18.21-34.81 36.371-45.442-14.609 83.913 1.226 160.534 50.438 230.478 28.279 40.2 59.716 68.49 100.97 95.23a329 329 0 0 0-58.457 27.7c-7.778 4.64-18.415 14.53-26.362 17.26-7.116 5.02-13.816 10.98-18.851 18.13l-1.173-1.38 6.109-9.16c-23.79 7.5-50.911 15.72-75.986 14.11-12.291-.78-20.022-4.45-27.946-13.58 9.544-5.22 18.805-10.55 27.901-16.54-19.931 1.38-39.699.68-58.977-5.01-14.271-4.22-31.857-11.28-38.945-25.32-1.073-2.12-1.881-4.94-.826-7.22 2.063-4.46 7.94-6.09 12.187-7.83-26.296-5.46-51.099-21.26-68.725-41.31-6.508-7.4-14.093-17.37-13.023-27.77.422-4.1 2.476-9.25 6.021-11.66 4.942-3.35 11.379-1.19 16.717.02"/><path fill="#2a0c15" d="M301.367 1114.55c6.075.43 12.15.75 18.157 1.79-7.646 1.44-15.092 2.67-22.883 2.88.182-1.12.614-2.27.937-3.37z"/><path fill="#3a050f" d="M296.912 814.216c6.311 5.487 11.226 11.016 15.702 18.114l-4.158-1.542-1.104 2.111c-3.594-4.657-7.257-8.999-11.351-13.225.794-2.018.821-3.319.911-5.458"/><path fill="#0b0000" d="M263.76 998.938c-4.346-3.775-12.904-10.56-13.523-16.626-.259-2.538.815-3.898 2.731-5.371 6.488-4.986 26.7-2.083 34.699-1.46l4.887 1.134.533 2.183c-9.479-.023-29.943-3.94-37.624.8-.634 1.505-1.135 1.791-.554 3.47 1.49 4.3 6.319 7.903 9.568 10.894z"/><path fill="#2a0c15" d="M287.662 881.98c-4.398-14.512-4.832-45.72 1.289-59.791 1.909-4.388 3.572-6.137 7.961-7.973-.09 2.139-.117 3.44-.911 5.458-8.803 9.075-7.121 43.383-6.884 56.606.05 2.801.507 5.07-.762 7.622z"/><path fill="#3a050f" d="M292.583 915.714c-8.68-12.94-31.444-28.746-34.187-43.228-.701-3.702.863-6.933 2.802-9.962l.714.382c-.297 1.624-.693 3.371-.739 5.022-.162 5.78 11.683 15.112 15.635 19.804 5.659 6.953 17.129 17.955 17.659 27.174-1.167 1.831-1.264 2.361-3.544 2.788-10.145 1.902-27.378-8.871-35.656-3.539-1.611 8.087 4.113 17.736 8.517 24.266 6.007 8.907 29.785 30.873 30.692 39.269l-1.389 1.108-.533-2.183-4.887-1.134c-2.913-8.378-18.633-20.556-24.745-28.087-6.687-8.241-12.618-18.555-11.013-29.59.37-2.542 1.429-4.695 3.718-6.055 8.126-4.826 27.697 2.625 36.956 3.965"/><path fill="#44091f" d="M204.277 1035.52c-24.335-25.38-47.608-58.931-51.848-94.661-1.277-10.754-1.032-26.854 5.851-35.668 3.208-1.386 5.435-.448 8.837.107-1.241-14.109-7.31-27.251-7.887-41.556-.483-11.961 1.632-31.676 10.069-40.551 1.884-1.982 3.095-2.242 5.827-2.327.653-.02 1.403.296 1.958-.047 3.011-1.86-3.714-26.459 11.407-40.662 2.411-2.265 4.244-3.091 7.521-3.026 1.928 1.665 3.103 2.826 5.571 3.669 1.932-5.4.91-12.352 1.449-18.084.508-5.397 1.717-10.888 2.968-16.158 4.909-20.69 18.4-52.977 37.719-64.237 3.854-2.246 7.146-2.923 11.454-1.771.833.223 2.805.923 3.575.772 6.711-1.31 30.418-40.834 58.336-42.2 2.658-.13 3.665.406 5.628 2.083.345 1.878.692 3.422 1.509 5.154 4.365-1.467 8.274-4.925 11.933-7.679 17.319-13.03 55.135-24.897 76.374-27.684 20.512-2.692 47.142-1.307 64.23 11.902-2.329 1.096-4.973 1.975-6.61 4.035-15.356-5.74-43.695 5.019-57.969 11.494-9.582 4.348-18.816 9.619-28.502 13.688 18.405-19.225 37.829-26.876 63.373-32.796-44.316-4.848-93.545 12.134-128.028 39.853-15.011 12.065-28.562 25.054-39.996 40.62 5.19-11.461 12.121-21.225 20.158-30.874 5.305-6.37 13.018-13.492 16.308-21.077l-.761-1.284c-12.247.662-28.191 17.366-35.772 25.895-13.05 14.684-23.757 30.821-33.516 47.809-4.426 7.705-8.357 15.945-13.296 23.309 4.938-20.184 14.509-39.209 22.851-58.173-17.66 8.152-26.711 21.765-33.26 39.522-9.517 25.804-11.361 50.479-8.583 77.753-3.617-4.814-9.642-14.87-16.228-15.758-2.619-.354-3.95.238-5.884 2.012-8.822 8.094-3.552 51.694-2.477 64.507-4.692-8.688-8.063-17.892-14.207-25.685-11.645 27.207-3.468 59.893 5.849 86.633 3.594 10.315 8.053 20.388 10.732 30.993-5.55-8.854-15.111-31.162-25.541-34.402-.942-.293-1.43-.165-2.314-.063-6.13 10.94-1.414 34.201 1.735 45.647 7.628 27.722 29.656 60.476 50.554 80.116 8.375 7.87 18.346 14.1 26.485 22.14l-1.404-.52c-11.702-4.38-36.96-21.73-48.882-16.26-1.411.65-1.534 1.3-2.294 2.54-.463 7.74 8.444 17.63 13.358 23.24 29.851 34.04 56.143 40.02 98.73 46.74l-3.789 1.3c-.323 1.1-.755 2.25-.937 3.37l-1.533.33c-9.115 1.85-29.681.04-35.243 7.66.13 2.78 1.605 4.52 3.585 6.35 18.769 17.26 55.28 21.17 79.582 19.33 6.884-.52 18.335-3.62 24.732-2.04.426 1.96.578 1.1-.55 2.98-6.601 10.99-24.382 20.63-35.468 26.31 25.294 7.55 73.682-1.74 96.539-13.71 4.882-2.56 8.457-6 11.582-10.51l1.145 1.09c-2.135 2.57-7.562 7.42-7.604 10.53 1.967 1.51 4.034 1.91 6.386 2.5-7.116 5.02-13.816 10.98-18.851 18.13l-1.173-1.38 6.109-9.16c-23.79 7.5-50.911 15.72-75.986 14.11-12.291-.78-20.022-4.45-27.946-13.58 9.544-5.22 18.805-10.55 27.901-16.54-19.931 1.38-39.699.68-58.977-5.01-14.271-4.22-31.857-11.28-38.945-25.32-1.073-2.12-1.881-4.94-.826-7.22 2.063-4.46 7.94-6.09 12.187-7.83-26.296-5.46-51.099-21.26-68.725-41.31-6.508-7.4-14.093-17.37-13.023-27.77.422-4.1 2.476-9.25 6.021-11.66 4.942-3.35 11.379-1.19 16.717.02"/><path fill="#e7d3a2" d="M336.834 844.814c8.203-18.904 18.21-34.81 36.371-45.442-14.609 83.913 1.226 160.534 50.438 230.478 28.279 40.2 59.716 68.49 100.97 95.23a329 329 0 0 0-58.457 27.7c-7.778 4.64-18.415 14.53-26.362 17.26-2.352-.59-4.419-.99-6.386-2.5.042-3.11 5.469-7.96 7.604-10.53l-1.145-1.09c-4.212.5-8.452 1.04-12.702.92-7.39-.2-16.46-1.64-21.597-7.52-3.337-3.82-3.805-7.57-3.44-12.46 1.579-4.03 3.622-5.64 6.983-8.27 1.434-1.13 1.433-1.8 2.085-3.46l.063.1c-.609 0-1.912.02-2.466-.1-4.661-.97-9.218-.34-14.036-.83-14.224-1.44-35.233-5.69-46.652-14.92-2.664-2.16-3.933-4.1-4.366-7.58 1.523-6.78 13.002-13.95 18.31-18.37-14.223-1.32-28.037-3.8-41.733-7.93-12.368-3.73-37.244-12.62-43.532-24.36-.055-1.68-.439-2.93.488-4.43 5.324-8.63 32.242-13.32 41.541-15.39-20.575-7.01-39.502-16.99-55.053-32.382l.717-4.976c-3.249-2.991-8.078-6.594-9.568-10.894-.581-1.679-.08-1.965.554-3.47 7.681-4.74 28.145-.823 37.624-.8l1.389-1.108c-.907-8.396-24.685-30.362-30.692-39.269-4.404-6.53-10.128-16.179-8.517-24.266 8.278-5.332 25.511 5.441 35.656 3.539 2.28-.427 2.377-.957 3.544-2.788-.53-9.219-12-20.221-17.659-27.174 4.092-1.957 6.198-4.671 10.854-5.752l.693 1.922c1.269-2.552.812-4.821.762-7.622-.237-13.223-1.919-47.531 6.884-56.606 4.094 4.226 7.757 8.568 11.351 13.225l1.104-2.111 4.158 1.542c5.649 9.607 9.982 19.814 15.424 29.486 1.551-6.794 3.247-13.31 5.632-19.863 1.326.937 2.274 1.478 3.164 2.861"/><path fill="#0b0000" d="M402.128 1136.86c3.526 7.4 6.723 11.6 14.695 14.37 7.583 2.62 23.426-.76 27.111 1.16-.8 1.81-1.656 3.09-2.922 4.62l-1.145-1.09c-4.212.5-8.452 1.04-12.702.92-7.39-.2-16.46-1.64-21.597-7.52-3.337-3.82-3.805-7.57-3.44-12.46"/><path fill="#3a050f" d="m307.352 832.899 1.104-2.111 4.158 1.542c5.649 9.607 9.982 19.814 15.424 29.486 1.551-6.794 3.247-13.31 5.632-19.863 1.326.937 2.274 1.478 3.164 2.861-3.43 9.463-5.472 18.817-6.891 28.77a2365 2365 0 0 1-22.591-40.685m-42.875 161.063c24.294 23.338 38.701 22.768 64.013 38.318-16.191.81-35.219 7.85-48.889 16.38 12.813 14 39.31 22.94 57.333 27.09 7.232 1.66 23.8 2.26 29.326 6.9-2.014 1.15-2.04.89-4.211.78-14.223-1.32-28.037-3.8-41.733-7.93-12.368-3.73-37.244-12.62-43.532-24.36-.055-1.68-.439-2.93.488-4.43 5.324-8.63 32.242-13.32 41.541-15.39-20.575-7.01-39.502-16.99-55.053-32.382z"/><path fill="#44091f" d="M1269.17 645.982a127 127 0 0 1 1.6-1.774c47.56-51.845 118.81-105.344 193.13-81.225 12.34 4.003 33.9 17.134 46.13 16.036 17.69-1.588 40.02-45.784 49.14-59.776 7.33-11.252 15.24-22.557 24.17-32.589 15.06-16.924 34.93-33.335 58.57-34.486 14.84-.723 28.67 4.284 39.33 14.719 4.82 4.72 7.51 11.759 11.07 17.473 17.73 28.465 27.9 42.161 27.43 77.704-.55 41.88-19.59 78.786-49.31 107.738 1.76 8.008 2.63 15.197 2.42 23.385.38 6.964-.55 13.879-1.26 20.797 6.26.046 12.63-.228 18.8.911-4.92.433-10.02.182-14.96.194 5.48 1.014 10.93.973 16.44 1.649 6.35.779 14.27 3.414 20.49 3.266.4-.009 2.27-.923 2.41-1.006 1.01-.571 2.12-1.688 2.97-2.42l.96.36.55 1.58c-1.52 1.868-3.03 3.757-4.65 5.539-.16 4.538.22 9.834-1.5 14.069l.89.923c-7.29 4.458-25.94 17.182-33.81 17.889-1.84 1.618-3.19 3.147-5.57 3.869a1224 1224 0 0 1-24.38 7.823c6.7 2.92 23.12-6.235 31.13-7.443l-.34.922c-.3.104-.6.204-.9.311-4.44 1.603-8.11 4.395-12.44 6.039-4.5 1.711-9.48 2.147-13.77 4.325-5.34 2.708-16.83 2.169-20.26 6.587-26.31 9.052-63.56.653-87.75-11.196-24.48-11.986-54.72-31.592-67.74-56.465-42.05 49.482-78.79 84.5-100.1 148.458-6.4 19.209-10.94 41.238-9.3 61.58 1.52 18.817 18.55 35.671 32.41 47.252 15.71 13.124 35.43 24.158 55.56 28.504 3.54.754 9.13.189 12.85-.171 2.55 2.601 5.02 4.697 6.13 8.247l-.87 1.64c-1.54.57-2.82.82-4.47.77-8.44-.23-16.98-2.65-24.95-5.25-27.44-8.935-45.53-24.122-65.53-44.179 3.64 7.045 12.16 25.767 16.84 30.698 2.08 2.19 5.04 3.049 7.26 5.309l-.36 1.632c-.87.572-1.01.755-2.18 1.008-2.46.529-6.55-.373-9-.812-19.19-3.438-35.38-16.502-49.36-29.266 1.37 2.257 2.8 4.536 3.97 6.898 1.09 2.186 1.63 4.127.84 6.509l-2.06.836c-11.1-2.329-24.13-15.126-30.93-23.921-19.14 2.485-37.75 1.412-56.95.427a516 516 0 0 1 14.18 11.705c-.62-.161-1.25-.308-1.86-.484-4.95-1.407-9.01-5.517-12.71-8.903l.03-.028c-1.82 1.217-1.34.41-1.76 2.201 2.07 3.154 5.08 5.211 8.02 7.499-.13.517-.17 1.108-.51 1.52-5.88-3.595-9.74-7.725-13.67-13.362-22.67-1.914-45.74-4.502-67.99-9.32-6.58-3.135-31-8.313-39.76-10.691 2.36 3.607 5.08 7.039 7.63 10.516l-3.06 4.449c-2.28 1.108-4.89 2.705-7.28 3.494-.89.02-2.39.079-3.24-.017-2.75-.309-3-.953-4.63-3.005 2.5-1.331 4.55-2.219 6.45-4.367-1.07-2.209-2.38-4.517-2.76-6.962-.16-1.048-.19-4.857-.64-5.587-1.25-2.033-10.87-4.783-13.64-5.833-55.84-21.168-108.41-53.095-146.901-99.646-14.412-17.428-32.142-43.632-29.397-67.513 1.151-10.011 5.576-17.869 13.643-23.971 39.396-29.806 168.885 7.509 218.375 14.695 4.47.65 11.8 2.099 15.59-.753l.16-1.919c-32.6-35.989-53.37-85.854-55.47-134.434-.89-20.667 1.15-59.445 16.47-75.188 3.33-3.426 7.29-5.227 12.08-5.191 6.38.049 11.86 2.856 16.7 6.815 19.05 15.584 33.12 39.649 48.35 58.944 12.02 15.225 25.45 29.398 38.81 43.439"/><path fill="#fbfbea" d="M1323.92 957.907c3.04-.373 5.55-.615 8.4.9 5.31 2.829 6.39 9.246 7.75 14.551-5.57-4.932-10.82-10.258-16.15-15.451"/><path fill="#44091f" d="M1264.74 868.063c6.79-.049 13.7.141 20.46-.529l1.35 2.569c-1.63 2.476-3.99 2.427-5.71 5.057-3.36.26-9.9 1.472-12.81-.339-2.7-1.68-2.62-3.926-3.29-6.758"/><path fill="#e7c4b8" d="M1618.35 750.243c.29-3.404 1.64-7.092 3.32-10.058 5-8.813 15.19-14.053 24.63-16.624 13.74-3.739 51.99-5.162 64.09 1.68-5.59 2.656-11.64 1.599-17.62 1.131-31.93-2.502-48.87-6.137-69.18 22.674-1.8.743-3.31.993-5.24 1.197"/><path fill="#e88a7f" d="M1563.67 769.026c27.87-11.413 51.64-12.564 81.32-10.794 9.83.587 19.89.981 29.62 2.575a1224 1224 0 0 1-24.38 7.823c-30.23 8.248-56.6 11.044-86.56.396m54.68-18.783c1.93-.204 3.44-.454 5.24-1.197 20.31-28.811 37.25-25.176 69.18-22.674 5.98.468 12.03 1.525 17.62-1.131.12 3.846-.14 8.061 1.22 11.699l1.49 1.186.89.923c-7.29 4.458-25.94 17.182-33.81 17.889-17.72-7.445-42.64-5.876-61.83-6.695"/><path fill="#723745" d="M1556.55 765.837c-9.41-3.257-38.34-18.129-46.04-24.193 13.32 1.701 25.27 14.895 38.01 19.698 3.84 1.448 7.91 2.08 11.97 1.322 8.1-1.509 15.81-6.411 23.88-8.56 7.79-2.078 16.79-1.25 24.12-4.638l-1.39-1.771c-1.49.094-2.78.13-4.25-.217-3.34-.793-5.58-.731-8.98-.214-2.58.391-5.16.729-7.74 1.089-10.59-5.878-23.52-8.04-34.89-12.684-3.01-1.228-4.21-1.844-6.2-4.522-5.42-7.304-12.01-2.554-17.57-7.258 7.97-.922 16.81 2.086 25.03 1.422 27.72-2.241 59.23-15.238 82.5-30.075 11-7.017 21.25-15.327 31.86-22.924 1.95 6.698 2.59 14.838 5.99 20.875.38 6.964-.55 13.879-1.26 20.797 6.26.046 12.63-.228 18.8.911-4.92.433-10.02.182-14.96.194-11.63-1.741-26.4 1.135-37.08 5.948-14.22 6.406-22.42 15.896-27.95 30.317-19.54 1.787-35.69 7.491-53.85 14.483"/><path fill="#c0ca89" d="M1163.99 544.87c5.59.966 9.49 2.725 13.78 6.504 16.37 14.423 28.86 34.711 42.02 52.023a523 523 0 0 0 43.57 50.124c-15.71 19.976-31.34 39.885-45.52 60.998a936 936 0 0 1-20.79 31.777c-34.26-50.047-55.53-95.978-49.52-158.519 1.44-15.075 4.23-32.726 16.46-42.907"/><path fill="#e7c4b8" d="M1312.95 927.015c-21.54-.349-43.88-2.407-65.29-5.037-70.52-8.663-137.42-29.45-196.67-69.417-18.61-12.554-36.75-26.899-50.56-44.745-6.112-7.896-18.723-27.185-16.264-37.578.576-2.437 1.772-4.422 4.101-5.545 26.583-12.824 178.363 53.821 214.123 67.366 24.3 9.204 49.7 18.389 74.95 24.479 5.36 1.504 12.32 1.621 16.85 4.765l.96 2.129c-.68 1.661-.31 1.75-2.1 2.514-2.46 1.051-5.22 1.251-7.85 1.588-6.76.67-13.67.48-20.46.529-3.1-.504-5.45-.951-8.56-.065l-.61 1.451c4.01 4.542 9.99 7.003 15.42 9.478l15.98-1.316c3.35-.457 6.67-1.338 9.89.004l1.17 2.219.24 4.236 2.48 5.893c.43 2.688 1.59 5.584.25 7.993l-1.95.782c2.11.574 3.29.419 4.7 2.171 2.98 8.515 6.97 17.416 9.2 26.106"/><path fill="#2a0c15" d="m1298.03 879.834.24 4.236a38.2 38.2 0 0 1-24.54-1.049c3.97-3.68 17.79-1.632 23.49-2.979.27-.064.54-.139.81-.208"/><path fill="#3a050f" d="M1249.42 887.541c16.85 6.596 31.35 11.144 49.63 11.197 2.11.574 3.29.419 4.7 2.171-4.3 2.027-8.8 2.145-13.47 1.783-12.47-.967-32.49-5.343-40.86-15.151"/><path fill="#f9f1eb" d="M1249.42 887.541c4.29-1.925 33.67 4.23 44.09 3.142l7.24-.72c.43 2.688 1.59 5.584.25 7.993l-1.95.782c-18.28-.053-32.78-4.601-49.63-11.197"/><path fill="#fbfbea" d="M1601.37 478.261a59.83 59.83 0 0 1 40.94-21.895c11.18-.978 21.18 3.11 29.56 10.396 8.22 7.145 12.31 15.911 16.23 25.83-2.86 5.561-6.47 9.543-11.09 13.684 3.3-1.609 4.22-2.546 7.93-1.944l5.7-6.834c18.16 29.096 24.74 58.289 17.01 92.154-10.15 44.425-40.18 76.325-78.01 99.837-34.92 21.708-76.68 36.42-118 26.784a129 129 0 0 1-28.53-10.464c18.33-23.528 36.03-49.487 41.82-79.281-20.51-3.784-39.12-11.402-57.89-20.234-12.67-5.963-25.18-12.506-38.84-15.951-8.58-2.165-16.9-2.537-25.69-3.061 3.37-1.092 7.44-1.972 10.43-3.852-1.61-1.337-2.34-1.041-4.35-.877-10.89.886-28 7.346-34.74 15.984-4.27 5.466-5.13 11.34-5.84 18.037-1.52.512-2.5.368-3.26 1.848-29.91 14.435-59.56 29.937-91.74 38.808 8.32-14.721 24.11-29.784 36.9-40.757 40.69-34.902 95.05-62.825 149.44-46.516 15.08 4.523 31.55 14.423 47.28 15.142 8.08.37 16.57-2.941 22.69-8.142 11.65-9.909 19.6-25.691 27.67-38.553 12.97-20.654 26.79-43.107 44.38-60.143"/><path fill="#44091f" d="M1677.01 506.276c3.3-1.609 4.22-2.546 7.93-1.944-14.45 15.479-35.38 27.721-56.98 28.53-8.53.319-16.92-1.484-23.9-6.542 5.06-2.509 24.93 1.358 33.39-.161 14.45-2.595 27.63-11.903 39.56-19.883"/><path fill="#723745" d="M1601.37 478.261a59.83 59.83 0 0 1 40.94-21.895c11.18-.978 21.18 3.11 29.56 10.396 8.22 7.145 12.31 15.911 16.23 25.83-2.86 5.561-6.47 9.543-11.09 13.684-11.93 7.98-25.11 17.288-39.56 19.883-8.46 1.519-28.33-2.348-33.39.161-3-2.119-5.52-4.483-7.66-7.492-9.34-13.119 3.1-25.828 4.75-38.633.09-.643.14-1.289.22-1.934"/><path fill="#f9f1eb" d="m1626.98 473.802 2.06.395c.93 1.54 1.18 1.169.81 2.599-1.56 5.921-7.82 10.89-12.92 13.673-2.28-2.305-2.91-2.606-3.52-5.897 2.19-5.812 8.42-8.045 13.57-10.77"/><path fill="#e7d3a2" d="M1368.01 616.574c4.74-1.234 15.71-20.473 33.04-24.885 25.26-6.427 54.45 13.168 76.84 22.701 14.56 6.204 28.97 11.43 44.77 13.137-17.88 58.865-57.42 91.074-94.36 136.972a325.8 325.8 0 0 0-45.24 74.282c-7.83 18.228-14.17 37.17-16.74 56.903-3.52 26.972-1.13 52.783 11.76 77.084 2.66 5.02 5.84 9.778 8.95 14.524-29.42-11.48-51.95-34.249-64.62-63.017-9.76-22.173-17.66-49.876-20.02-74.192 6.2-3.207 12.91-6.23 15.36-13.339.77-2.224 1.11-3.884.37-6.181-1.77-.204-1.72-.663-2.74.288-2.55 2.364-3.35 7.021-5.44 9.935-4.4 6.153-19.01 5.642-25.95 6.832-20.73-3.713-40.67-9.757-60.45-16.906-38.36-13.864-211.66-90.284-240.568-71.699-3.035 1.952-5.088 5.273-6.983 8.253 1.741 27.57 19.193 48.78 39.141 66.491 20.38 18.095 43.39 32.686 67.4 45.418 57.53 30.501 116.67 46.605 181.51 51.615 16.44 1.27 33.55 2.605 50.02 1.607 4.43 2.205 9.42 13.777 12.03 18.395-26.41 2.984-52.17 1.794-78.59-.18-95.29-7.118-200.04-47.89-263.178-121.865-12.882-15.095-32.677-42.005-30.378-63.095.851-7.812 5.189-14.319 11.491-18.879 7.974-5.771 17.985-8.136 27.657-8.946 46.618-3.904 130.438 17.579 179.868 25.927 32.08 5.418 90.08 13.08 117.26-6.538l1.16-.855c-29.4 9.709-62.35 6.883-92.33 1.257 24.8-31.908 45.48-66.924 71.78-97.797 21.56-5.25 78.21-26.883 93.92-41.399.76-1.48 1.74-1.336 3.26-1.848"/><path fill="#44091f" d="M1421.26 620.268c9.11-.473 17.07.988 25.4 4.561 11.29 4.846 28.71 17.439 32.92 29.287 1.1 3.075.71 5.287-.74 8.201-3.31-.915-18.14-17.708-26.98-21.665-6.57-2.943-13.12-3.323-19.83-.6-6.2 2.519-7.95 7.646-10.5 13.324-2.38 12.212-.2 23.235 6.42 33.661 1.84 2.915 4.16 5.982 4.86 9.42.57 2.803.33 4.809-1.28 7.132-1.54.508-2.74.204-4.2-.489-11.09-5.248-19.52-20.841-23.37-32.086-3.88-11.351-5.62-26.258.07-37.193 3.71-7.118 9.72-11.318 17.23-13.553"/><path fill="#fbfbea" d="M937.78 59.44c20.929-.355 41.486 2.944 60.2 12.702 24.21 12.623 41.94 35.348 50.02 61.235 13.12 42.09 3.67 86.896-16.42 124.969 11.18-8.859 22.59-15.824 35.58-21.743 24.44-11.14 50.36-17.307 76.39-7.419 10.83 4.115 19.63 11.105 24.24 21.955 8.51 20.026 2.97 39.336-5.13 58.282 45.99-11.688 91.83-19.339 139.47-17.242 10.83.477 25.48 1.023 35.03 6.659 1.94 1.146 4.48 3.083 4.82 5.456.43 2.987-1.03 5.488-2.83 7.736-11.72 14.645-45.33 24.715-63.07 30.892-78.75 27.426-160.96 46.506-241.57 67.609a12534 12534 0 0 1-387.998 95.662c-41.394 9.2-83.026 17.199-124.488 26.052-61.98 13.233-125.018 27.142-188.012 34.481-25.232 4.266-51.16 6.222-76.605 9.137-40.536 4.644-82.608 11.398-123.488 8.964-11.539-.688-21.954-2.872-32.779-6.872 1.065-3.72 2.191-7.508 4.165-10.866 14.026-23.868 61.127-39.234 86.371-45.009 12.485-2.857 25.491-3.989 37.794-7.435.344-.096.687-.199 1.03-.299-19.007-4.379-37.146-9.784-52.574-22.215-16.172-13.031-27.557-30.692-29.708-51.617-2.944-28.653 8.031-56.858 26.067-78.842 19.581-23.869 50.073-37.818 80.51-40.611 26.015-2.387 52.1 3.635 72.525 20.458-3.511-12.541-6.543-25.096-7.104-38.163-1.869-43.523 18.052-91.961 47.549-123.589 41.525-44.523 102.899-76.867 164.191-78.842 39.151-1.262 75.377 9.554 104.273 36.765 25.461 23.976 38.07 57.156 39.098 91.621 8.812-18.05 21.336-34.753 34.813-49.578 59.172-65.089 137.858-115.79 227.64-120.293"/><path fill="#e7d3a2" d="M415.289 1205.24c11.803-10.99 23.506-21.63 36.754-30.91 80.205-56.18 180.986-66.39 276.283-62.1 45.783 2.06 88.391 7.43 134.672 7.1 29.018-.2 57.437-3.73 86.032-8.49 8.517-1.42 27.06-7.51 33.715-7.17 2.909.15 3.508 1.62 5.363 3.62 14.422 10.81 43.882 5.54 60.912 3.07.68-.1 1.36-.23 2.03-.36l1.12 3.75c-33.62 20.59-53.062 41.41-76.104 72.56 15.168-7.53 50.234-16.95 66.304-11.32 1.47.51 2.44 1.39 3.52 2.46.78 3.13-.32 4.36-1.92 7.16-6.59 11.54-16.85 21.93-25.36 32.16-10.95 13.18-19.98 26.64-27.94 41.83 10.96-5.46 45.88-25.25 57.73-21.72 2.12.63 3.58 2.04 4.38 4.09 4.3 11.14-10.01 41.02-16.07 51-4.38 7.23-9.31 13.86-14.72 20.34 12.45-3.75 24.27-9.62 36.11-14.94l1.15 4.39c6.22-1.98 12.11-4.92 18.4-6.78 4.14-1.22 5.56-.81 9.34 1.22l4.23-.34c-4.92 24.83-20.88 42.74-39.72 58.63l1.53-.54c14.39-5.11 38.12-26.39 51.76-24.26 2.1 1.61 2.92 1.99 3.43 4.77 2.61 14.21-11.11 42.9-20.48 53.47-1.71 1.93-3.5 3.82-5.43 5.54 2.16 4.55 3.65 8.33 7.79 11.46-3.87 4.8-25.98 26.87-26.74 28.61 1.7.16 3.33.36 5.04.29-10.16 19.97-40.58 29.92-60.44 36.38-42.198 13.72-92.31 19.17-136.707 16.58-21.25-1.24-41.954-4.66-62.919-8.04 5.292 23.74 4.605 44.83 2.421 68.82a1996 1996 0 0 0 147.132 20.89c16.505 1.7 33.14 3.9 49.703 4.85 5.57.36 11.17.86 16.75 1.07-1.86 2.54-3.49 4.64-6.45 6-4.67-.55-9.45-.72-14.15-1.05-23.738-.41-47.553-2.81-71.206-4.82-37.508-3.2-87.082-7.32-122.887-17.19-11.865 43.08-33.884 84.58-68.963 113.47 1.844 32.52 12.487 65.23 31.788 91.62l9.382 11.81c17.329-2.11 32.424.68 46.346 11.64 13.74 10.82 24.563 28.65 26.642 46.15.493 4.14.381 8.34.097 12.5-34.998 30.63-84.116 42.41-129.9 39.53-47.131-2.98-73.748-40.76-102.839-73.32-4.669-5.23-9.244-11.22-14.364-15.97-11.454-12.41-28.339-36.29-42.029-44.6-2.279-7.37 2.699-17.21 2.142-25.45-1.162-17.19-12.432-30.36-24.742-41.24-2.472-2.04-3.018-2.15-6.208-2.66-5.9 2.13-11.21 4.73-16.727 7.7l1.154-7.89c-3.177-.57-6.535-.65-9.758-.9l-.871 7.22c-30.173-26.19-55.524-67.3-66.036-105.76l-7.843-.74c-1.675 11.6-1.46 23.43-4.408 34.84-20.833-30.39-36.841-63.44-39.221-100.75-.72-11.28.119-22.48.091-33.77l-.849 1.64c-6.467 12.26-6.332 31.29-16.041 40.81-1.662 1.63-2.017 2.29-4.381 2.32-1.901-1.75-3.03-3.23-3.973-5.65-11.723-30.15-9.229-81.14-.484-111.97 4.079-14.38 10.539-27.71 16.83-41.21 1.122-2.47 2.196-4.39 1.918-7.19-6.773-15.39.648-40.58-3.801-53.4l11.574-15.26c-3.444 2.02-6.767 4.26-10.121 6.43-.131-9.59 4.015-54.9 2.678-58.05 7.416-12.34 19.213-23.02 28.559-33.98"/><path fill="#3a050f" d="M1091.22 1295.86c-4.92 24.83-20.88 42.74-39.72 58.63l1.53-.54c14.39-5.11 38.12-26.39 51.76-24.26 2.1 1.61 2.92 1.99 3.43 4.77 2.61 14.21-11.11 42.9-20.48 53.47-1.71 1.93-3.5 3.82-5.43 5.54-6.64 5.06-13.61 9.27-21.03 13.1 5.42-6.2 12.52-11.03 18.36-16.91 11.24-11.33 25.29-36.98 24.84-53.09-.07-2.43-.12-2.71-1.83-4.25-10.92 5.01-20.73 11.75-31.31 17.36-5.14 2.73-21.66 10.83-26.69 9.29.95-5.18 22-24.21 27.02-31.08 7.17-9.79 11.43-20.26 15.32-31.69zM1051.05 1110l1.12 3.75c-33.62 20.59-53.062 41.41-76.104 72.56 15.168-7.53 50.234-16.95 66.304-11.32 1.47.51 2.44 1.39 3.52 2.46.78 3.13-.32 4.36-1.92 7.16-6.59 11.54-16.85 21.93-25.36 32.16-10.95 13.18-19.98 26.64-27.94 41.83 10.96-5.46 45.88-25.25 57.73-21.72 2.12.63 3.58 2.04 4.38 4.09 4.3 11.14-10.01 41.02-16.07 51-4.38 7.23-9.31 13.86-14.72 20.34 12.45-3.75 24.27-9.62 36.11-14.94l1.15 4.39c-9 4.14-31.53 16.1-40.94 13.36l-.48-1.36 1.46-2.99c10.74-15.77 22.06-32.07 26.94-50.76 1.3-4.98 4.47-14.58 1.83-19.1-10.74-1.98-51.857 18.88-62.856 23.7 10.314-36.66 37.976-55.12 57.586-84.95-.39-.07-.77-.15-1.15-.22l-1.91-.32c-22.56-3.91-46.818 4.14-67.718 12.01 13.199-37.24 46.698-61.13 79.038-81.13"/><path fill="#fbfbea" d="M695.36 1318.01c30.462 21.66 72.795 73.09 91.09 105.84a217.8 217.8 0 0 1 21.884 54.9c5.292 23.74 4.605 44.83 2.421 68.82a1996 1996 0 0 0 147.132 20.89c16.505 1.7 33.14 3.9 49.703 4.85 5.57.36 11.17.86 16.75 1.07-1.86 2.54-3.49 4.64-6.45 6-4.67-.55-9.45-.72-14.15-1.05-23.738-.41-47.553-2.81-71.206-4.82-37.508-3.2-87.082-7.32-122.887-17.19-11.865 43.08-33.884 84.58-68.963 113.47 1.844 32.52 12.487 65.23 31.788 91.62l9.382 11.81c17.329-2.11 32.424.68 46.346 11.64 13.74 10.82 24.563 28.65 26.642 46.15.493 4.14.381 8.34.097 12.5-34.998 30.63-84.116 42.41-129.9 39.53-47.131-2.98-73.748-40.76-102.839-73.32-4.669-5.23-9.244-11.22-14.364-15.97-11.454-12.41-28.339-36.29-42.029-44.6-2.279-7.37 2.699-17.21 2.142-25.45-1.162-17.19-12.432-30.36-24.742-41.24-2.472-2.04-3.018-2.15-6.208-2.66-5.9 2.13-11.21 4.73-16.727 7.7l1.154-7.89c-3.177-.57-6.535-.65-9.758-.9l-.871 7.22c-30.173-26.19-55.524-67.3-66.036-105.76l-7.843-.74c-1.675 11.6-1.46 23.43-4.408 34.84-20.833-30.39-36.841-63.44-39.221-100.75-.72-11.28.119-22.48.091-33.77l-.849 1.64c-6.467 12.26-6.332 31.29-16.041 40.81-1.662 1.63-2.017 2.29-4.381 2.32-1.901-1.75-3.03-3.23-3.973-5.65-11.723-30.15-9.229-81.14-.484-111.97 4.079-14.38 10.539-27.71 16.83-41.21.251.4.513.8.752 1.21 3.086 5.31 3.826 21.22 5.138 28.03a660 660 0 0 0 15.175 61.53c7.085 23.74 18.982 44.62 31.457 65.81 7.725 13.13 15.555 26.55 24.643 38.79 42.82 57.67 103.326 97.69 171.463 118.98a222 222 0 0 0 36.807 8.41c4.189.62 11.663.44 14.826 2.99 3.626-2.24 8.704-3.44 12.679-5.21 11.73-5.21 21.578-11.21 31.394-19.47 38.925-32.74 68.365-79.62 72.561-131.03 7.427-90.99-51.134-154.6-106.017-218.72"/><path fill="#3a050f" d="M436.918 1580.43c.185-4.29.225-9.15 3.139-12.56l1.967-.05c.285.16.491.43.728.66.208 4.04.666 7.65 1.702 11.56l.307 1.13z"/><path fill="url(#d)" d="M511.668 1679.71c.298-5.17-.35-15.9 3.339-19.77 1.173-1.23 2.61-1.04 4.21-.88 4.195.41 9.772 4.34 13.396 6.46 14.295 8.33 27.205 16.29 36.325 30.48 5.952 9.26 10.11 20.34 7.818 31.45-1.365 6.62-4.991 12.74-6.291 19.18-1.528 1.54-2.689 2.58-4.658 3.52-2.279-7.37 2.699-17.21 2.142-25.45-1.162-17.19-12.432-30.36-24.742-41.24-2.472-2.04-3.018-2.15-6.208-2.66-5.9 2.13-11.21 4.73-16.727 7.7l1.154-7.89c-3.177-.57-6.535-.65-9.758-.9"/><path fill="#fbfbea" d="m521.426 1680.61 1.034-9.62c4.893 3.21 9.81 6.37 14.539 9.81-5.9 2.13-11.21 4.73-16.727 7.7z"/><path fill="#44091f" d="M695.36 1318.01c30.462 21.66 72.795 73.09 91.09 105.84a217.8 217.8 0 0 1 21.884 54.9c5.292 23.74 4.605 44.83 2.421 68.82a1996 1996 0 0 0 147.132 20.89c16.505 1.7 33.14 3.9 49.703 4.85 5.57.36 11.17.86 16.75 1.07-1.86 2.54-3.49 4.64-6.45 6-4.67-.55-9.45-.72-14.15-1.05-23.738-.41-47.553-2.81-71.206-4.82-37.508-3.2-87.082-7.32-122.887-17.19-11.865 43.08-33.884 84.58-68.963 113.47 1.844 32.52 12.487 65.23 31.788 91.62l9.382 11.81c17.329-2.11 32.424.68 46.346 11.64 13.74 10.82 24.563 28.65 26.642 46.15.493 4.14.381 8.34.097 12.5-34.998 30.63-84.116 42.41-129.9 39.53-47.131-2.98-73.748-40.76-102.839-73.32-4.669-5.23-9.244-11.22-14.364-15.97-11.454-12.41-28.339-36.29-42.029-44.6 1.969-.94 3.13-1.98 4.658-3.52 13.529 2.41 85.908 87.94 102.666 103.18 28.651 26.07 52.603 25.79 89.743 24.14l-.29-1.49c-4.652-22.93-13.261-33.83-32.812-46.47 6.989 1.75 13.073 3.56 19.155 7.65 14.261 9.58 18.623 23.39 21.788 39.35 14.836-3.45 29.885-7.17 43.543-14.03-.482-7.58-1.87-15.33-4.272-22.54-5.608-16.83-17.92-30.02-33.579-37.92l-.451-1.35-1.775-.01c1.207-1.03.952-1.13 2.372-1.34 6.048-.92 16.413 6.18 21.309 9.67 17.347 12.36 24.123 28.79 27.541 49.15 6.322-3.07 11.771-6.46 17.043-11.1-.661-13.37-3.611-24.12-10.901-35.38-7.834-12.09-18.228-21.07-32.741-23.94-31.981-6.32-72.698 19.44-97.998 36.51 18.469-22.97 45.167-35.65 72.398-45.51-22.387-30.85-39.678-59.7-40.339-98.75-8.008 5.22-16.003 9.94-24.957 13.37-6.778 2.6-16.288 5.65-23.165 2.62 3.626-2.24 8.704-3.44 12.679-5.21 11.73-5.21 21.578-11.21 31.394-19.47 38.925-32.74 68.365-79.62 72.561-131.03 7.427-90.99-51.134-154.6-106.017-218.72"/><path fill="#560a26" d="M1007.59 1573.31c5.57.36 11.17.86 16.75 1.07-1.86 2.54-3.49 4.64-6.45 6-4.67-.55-9.45-.72-14.15-1.05 3.39-.51 6.69-1.23 10.03-2l-.26-1.38c-1.58-.56-3.02-1.14-4.52-1.91-.47-.23-.94-.49-1.4-.73"/><path fill="#c0ca89" d="M1926.28 1144.19c10.87-14.7 22-33.37 37.34-43.63-8.5 13.74-16.15 31.31-19.02 47.28l1.59.06 1.25-4.17 1.37-.03-.3.98c-.93 3.17-1.43 6.03-1.65 9.32l1.1.08c-5.02 27.38-9.42 55.6-10.78 83.42 22.74-6.99 45.31-12.91 68.67-17.44 13.96-2.7 28.3-4.35 42.15-7.41V2048H0v-341.27c8.249-3.12 16.32-7.5 24.38-11.16a1749 1749 0 0 1 51.214-22.33c15.612-6.39 31.467-12.54 47.483-17.85 10.091-3.34 20.483-5.85 30.471-9.48 2.564.61 3.736.7 6.246-.14-11.883-21.19-29.745-42.53-46.618-60-5.506-5.7-12.827-10.25-17.605-16.48l.212-.82 4.634.77 1.004-.46-.581-1.29 4.274-1.01c31.816 9.88 61.514 19.83 89.961 37.71 2.15 1.35 18.184 13.97 19.093 14 .475.01.889-.34 1.333-.51l1.624-2.94c-7.78-14.79-17.774-28.15-26.796-42.16 21.567 8.31 48.493 30.15 61.682 49.06 11.457-7.08 26.276-10.87 38.991-15.23 35.454-12.17 71.161-23.9 107.944-31.43l5.24 13.04c-8.223 21.67-21.875 38.2-33.496 57.9-32.999 55.93-57.938 125.38-32.747 189.11 3.658 8.12 8.722 14.76 16.305 19.6 24.604 15.69 67.934 16.28 95.62 10.14 18.434-4.08 40.298-11.23 51-28.06.227-6.62.232-13.03-.258-19.64 3.518 0 103.594-20.81 107.226-22.32 5.12 4.75 9.695 10.74 14.364 15.97 29.091 32.56 55.708 70.34 102.839 73.32 45.784 2.88 94.902-8.9 129.9-39.53.284-4.16.396-8.36-.097-12.5-2.079-17.5-12.902-35.33-26.642-46.15-13.922-10.96-29.017-13.75-46.346-11.64l-9.382-11.81c-19.301-26.39-29.944-59.1-31.788-91.62 35.079-28.89 57.098-70.39 68.963-113.47 35.805 9.87 85.379 13.99 122.887 17.19 23.653 2.01 47.468 4.41 71.206 4.82 4.7.33 9.48.5 14.15 1.05-.29.31-.58.63-.88.95-7.35 7.66-32.65 22-32.965 22.39-.406.5-.629 1.13-.943 1.69 1.973 2.77 3.587 3.71 6.968 4.32 17.22 3.09 40.74-2.13 57.46-6.45 4.76-1.23 10.38-3.9 15.24-4.2l2.97 4.13c-6.52 5.77-13.53 10.69-20.65 15.68-.43 2.05-.86 4.1-1.23 6.17 7.54-1.48 15.45-.93 23.08-2.04 20.72-3.02 38.02-12.7 55.88-22.95-4.53 4.65-10.95 8.84-14.28 14.41-1.3 2.17-1.47 2.5-.93 4.84 6.86 4.34 17.92 1.72 25.71 1.8 2.35-1.21 4.48-2.48 6.68-3.94 26.48-4.56 49.81-13.87 70.16-31.69 1.34 1.4 2.36 2.48 3.35 4.16 21.75 28.68 43.56 57.95 68.35 84.09 34.26 34.57 75.51 79.77 126.68 84.68 32.1 3.07 92.47-12.01 116.82-33 6.46-5.57 9.95-12.04 10.31-20.62.65-15.72-8.19-33.13-18.71-44.44-11.9-12.8-25.25-15.32-41.88-15.79-5.31 1.5-13.5 4.99-18.89 4.91-6.23-12.85-14.16-23.34-19.01-37.15 9.72-19.24 24.62-36.25 35.72-54.8 19.7-32.92 41.9-75.83 54.11-112.08 6.77-20.12 11.2-40.71 16.15-61.32 2.95-7.79 6.34-15.66 8.15-23.81l1.82-.55c0 5.5.53 10.65 1.29 16.08.98 9.8.77 19.69.79 29.53 4.47-6.58 10.96-12.96 14.3-20.03-2.61.35-3.16 2.04-4.74 4.02.02-2.18-.1-4.3-.26-6.47 18.32-44.17 15.43-78.52 4.79-123.91 19.7 20.14 30.17 45.08 33.74 72.65 7.88-29.34 5.47-57.7.43-87.2 1.3-1.15 3.38-1.11 5.09-1.4 4.22 16.14 7.82 32.49 8.29 49.23 21.38-5.09 107.31-25.94 123.26-22.86l4.65-2.24c-7.31-3.43-14.6-7.34-21.08-12.18l-2.1-3.02.72-3.34-.39-.48c27.42-2.58 72.71 10.07 99.24 17.7 8.94 3.43 13.16 11.07 18.47 18.55-19.47-48.01-54.18-98.66-97.64-127.12l13.68 3.55 2.52-2.37c11.98 2.57 23.33 7.51 34.47 12.53 36.79 16.58 68.73 38.55 91.18 72.61.03-26.26 18.28-80.63 36.53-98.96l1.7.34c1.46-1.75 2.73-3.46 3.95-5.4l1.11-.04.06.86-2.74 3.03c1.47.78.82.65 1.84.76"/><path fill="#3a050f" d="m1069.47 1959.16 1.79.35c.49 1.53 1.08 2.99 1.68 4.47l.55-.3c-.99-3.34-2.87-7.9-2.25-11.39.1-.54.24-1.06.36-1.6 3.6 11.16 8.11 21.64 12.97 32.28-4.43-4.13-8.61-7.8-13.74-11.06 1.96-1.12 2.11-.66 2.76-2.99-1.68-3.22-3.01-6.3-4.12-9.76"/><path fill="#44091f" d="M1040.11 1954.29c11.79 3.79 22.09 7.68 32.66 14.12l.82.51c-.65 2.33-.8 1.87-2.76 2.99-10.39-5.42-21.31-9.41-32.38-13.14zm-103.251-14.03c12.107-.75 25.014-.64 36.977 1.32l.003 2.8 4.807 1.65-.691.65c-2.289.91-4.553 1.78-6.762 2.88l-9.558-2.85c-8.01-2.86-16.613-3.9-24.776-6.45"/><path fill="#560a26" d="M961.635 1946.71c4.63-2.97 6.765-3.5 12.204-2.33l4.807 1.65-.691.65c-2.289.91-4.553 1.78-6.762 2.88z"/><path fill="#3a050f" d="M93.24 1762.59c-1.867-.42-2.702-.68-4.05-2.06l1.553-1.44c21.102-6.39 44.76 0 63.709 9.62-15.36-3.79-29.724-6.77-45.572-7.74-2.708-1.83-5.664-1.77-8.902-1.2-2.637.47-4.578 1.19-6.738 2.82m880.596 178.99c22.582 1.73 44.724 5.6 66.274 12.71l-1.66 4.48a319 319 0 0 0-59.804-12.74l-4.807-1.65z"/><path fill="#3a050f" d="M93.24 1762.59c2.16-1.63 4.1-2.35 6.738-2.82 3.238-.57 6.194-.63 8.902 1.2l1.501.89c19.864 11.52 35.684 16.65 49.302 36.73-20.03-14.6-40.779-33.04-66.443-36"/><path fill="url(#e)" d="M1853.49 1546.65c-13.36-10.5-23.27-24.92-36.01-36.22-7.27-6.46-14.34-8.52-21.21-13.68l.77-1.56c3.35-1.39 7.03-1.18 10.61-1.26l1.17 3.74c3.75 3.26 8.46 5.6 12.4 8.72 14.1 11.18 23.69 24.61 32.27 40.26"/><path fill="#44091f" d="M977.955 1946.68c27.995 10.66 63.245 23.24 82.535 47.26-10.91-5.18-20.96-12.16-31.52-18.02-18.25-10.14-38.153-19.23-57.777-26.36 2.209-1.1 4.473-1.97 6.762-2.88m57.825-95.07c-.74-2.01-1.08-3.42-1.08-5.58 2.58-.38 4.1 1.07 6.34 2.28l4.17 2.93-2.28 1.83c.99 1.06.47.78 1.38 1.12 13.86 30.44 19.99 64 27.29 96.5-.12.54-.26 1.06-.36 1.6-.62 3.49 1.26 8.05 2.25 11.39l-.55.3c-.6-1.48-1.19-2.94-1.68-4.47l-1.79-.35c-5.62-11.32-8.12-24.95-11.19-37.18-6.14-24.5-11.7-47.39-22.5-70.37"/><path fill="#3a050f" d="M1991.04 1881.95c15.16 15.19 20.01 38.02 19.98 58.84-.01 6.7-.2 16.12-4.46 21.56l-1.37.54-4.5-.9c.2-5.15.15-10.33.2-15.49l-2.05-.1-1.16-2.24c-.91-21.27.29-41.73-6.64-62.21"/><path fill="#c0ca89" d="M2000.89 1946.5c.32-13.75-.59-27.28-.79-41.01 4.91 19.6 5.22 37.31 5.09 57.4l-4.5-.9c.2-5.15.15-10.33.2-15.49"/><path fill="#44091f" d="M105.114 1566.48c31.816 9.88 61.514 19.83 89.961 37.71 2.15 1.35 18.184 13.97 19.093 14 .475.01.889-.34 1.333-.51l1.624-2.94a415 415 0 0 1 11.259 24.02c-8.424-6.49-16.085-13.86-24.486-20.36-18.283-14.14-38.449-24.53-59.816-33.11-13.906-5.58-30.734-8.91-43.665-16.05l1.004-.46-.581-1.29zm1849.866-99.54c-13.36 9.75-26.94 19.44-37.98 31.89-4.96 5.6-13.27 20.93-17.43 23.94-5.3-3.16-10.89-14.73-14.75-20-9.72-13.25-21.87-25-36.55-32.6 9.56 18.73 14.28 37.24 15.98 58.06-13.32-16.32-27.01-27.89-48.8-30.17-2.22-.23-4.39-.47-6.63-.39l-1.17-3.74c17.3.23 33.71 5.07 46.22 17.62 2.21 2.22 4.25 4.63 6.29 7.01-1.92-8.74-3.91-17.28-6.86-25.75-2.17-6.26-5.48-12.94-6.92-19.34-.48-2.13-.33-2.54.58-4.41 3.73-1.09 6.58.27 9.88 2.14 18.54 10.47 32.79 30.29 42.49 48.8a89.28 89.28 0 0 1 47.44-49.68 205 205 0 0 1 8.21-3.38m-10.38-319.1 1.59.06 1.25-4.17 1.37-.03-.3.98c-.93 3.17-1.43 6.03-1.65 9.32l1.1.08c-5.02 27.38-9.42 55.6-10.78 83.42 22.74-6.99 45.31-12.91 68.67-17.44 13.96-2.7 28.3-4.35 42.15-7.41v8.57a1103 1103 0 0 0-111.1 21.43c-.23 5.44.44 17.78-2.68 22.28-6.05-22.83 2.05-95.81 10.38-117.09"/><path fill="url(#f)" d="M2000.69 1961.99c-8.73-14.34-14.9-30.12-23.23-44.71-16.58-29.06-42.71-57.39-68.2-78.79-16.39-13.76-38.8-26.31-53.06-39.94-.33-.32-.65-.64-.98-.96 51.67 21.28 96.91 62.84 125.14 110.68 6.8 11.52 11.58 23.86 17.32 35.89l1.16 2.24 2.05.1c-.05 5.16 0 10.34-.2 15.49"/><path fill="#44091f" d="m1920.36 1144.64 1.7.34c1.46-1.75 2.73-3.46 3.95-5.4l1.11-.04.06.86-2.74 3.03c1.47.78.82.65 1.84.76-14.04 24-44.04 83.51-36.67 110.95 2.1 7.8 5.55 15.16 7.55 23.01l-.67-.93c-11.09-15.43-19.76-32.27-31.79-47.17-24.51-30.34-72.1-56.95-109.04-69.22l2.52-2.37c11.98 2.57 23.33 7.51 34.47 12.53 36.79 16.58 68.73 38.55 91.18 72.61.03-26.26 18.28-80.63 36.53-98.96"/><path fill="#3a050f" d="M1045.21 1851.24c39.95 25.67 68.39 55.14 85.32 99.97 2.63-31.44 21.5-60.06 45.02-80.15-15.43 31.81-20.06 48.13-14.92 83.8 18-35.08 28.59-42.91 65.41-58.93-22.02 22.43-32.45 39.82-40.97 70.13-.01-23.7 10.14-42.13 26.06-59.01-25.87 15.58-39.37 28.66-51.32 57.03-4.8-28.12-7.59-49.93 3.4-77.13-22.18 24.58-30.71 54.73-30.32 87.19-12.21-43.14-32.73-72.05-66.25-101.63-6.78-5.98-14.57-13.8-22.33-18.32-.91-.34-.39-.06-1.38-1.12z"/><path fill="#560a26" d="M153.548 1645.91c2.564.61 3.736.7 6.246-.14 2.211 3.51 5.888 8.61 5.824 12.87-2.046-.7-2.924-1.61-4.524-3.02-7.853.78-15.76 4.4-23.306 6.74-31.493 9.79-62.646 22.46-92.682 36.04-15.085 6.83-29.84 14.57-45.106 20.95v-12.62c8.249-3.12 16.32-7.5 24.38-11.16a1749 1749 0 0 1 51.214-22.33c15.612-6.39 31.467-12.54 47.483-17.85 10.091-3.34 20.483-5.85 30.471-9.48"/><path fill="#44091f" d="M1837.75 1782.77c.35.14.71.25 1.04.42 8.04 4.05 15.97 15.63 21.46 22.6 26.9 34.13 42.84 71.42 54.56 112.91 3.16 11.21 4.66 23.24 8.64 34.15 4.45 12.2 13.88 21.64 18.33 34.35-10.82-11.8-19.38-25.2-30.79-36.8-53.11-54.01-119.93-85.49-191.98-106.08-19.28-5.92-39.18-9.92-58.93-13.93 3.71-.18 7.39-.27 11.1-.01 64.23 4.49 152.97 37.91 204.31 76.64 14.23 10.73 26.15 22.9 37.74 36.33-12.53-43.09-26.27-85.48-49.88-123.99-7.81-12.73-17.29-24.22-25.6-36.59m-234.28-538.33c1.3-1.15 3.38-1.11 5.09-1.4 4.22 16.14 7.82 32.49 8.29 49.23 21.38-5.09 107.31-25.94 123.26-22.86l4.65-2.24c-7.31-3.43-14.6-7.34-21.08-12.18l-2.1-3.02.72-3.34c9.38 5 18.83 10.03 27.55 16.15 17.67 10.97 36.44 23.54 50.99 38.53-15.08-5.43-33.45-19.79-46.66-29.24-5.11.74-10.39 1.83-15.54 2.05-17.38 4.23-36.3 5.96-54 9.13-23 4.11-45.78 9.55-68.82 13.37-1.68 17.74-5.9 36.14-14.6 51.84l-1.36.64c-3.57-4.79-4.5-23.62-6.16-30.62-3.9 1.3-6.15 2.24-9 5.24.82 17.94-3.5 43.93-14.37 58.75-.23.33-.55.59-.82.88-2.61.35-3.16 2.04-4.74 4.02.02-2.18-.1-4.3-.26-6.47 18.32-44.17 15.43-78.52 4.79-123.91 19.7 20.14 30.17 45.08 33.74 72.65 7.88-29.34 5.47-57.7.43-87.2"/><path fill="#e7d3a2" d="M1584.7 1325.72c.21-5.62.02-11.03 3.32-15.87l1.74.07c2.6 2.95 3.07 6.82 3.94 10.56-3.9 1.3-6.15 2.24-9 5.24"/><path fill="#44091f" d="M1641.5 1823.92c1.11.13 1.38.11 2.59.52 10.03 3.36 20.56 11.04 29.5 16.73 50.99 32.47 103.34 81.81 131.14 136.09 1.81 3.55 4.81 8.42 3.49 12.45l-1.37.17c-51.72-43.61-134.4-64.11-199.15-78.23-9.83-2.15-40.96-8.77-49.64-8.28l1.21.53 1.78.76c13.74 5.92 28.59 9.18 42.51 15.22a390.3 390.3 0 0 1 100.15 63.25c4.03 3.53 9.93 7.75 12.63 12.24-4.86-1.69-9.21-5.31-13.44-8.2-63.83-43.4-135.2-81.06-211.9-94.22 15.09-1.73 32.39 1.28 47.51 2.56 76.37 6.44 187.42 26.32 249.98 72.1-21.35-37.22-69.26-86.53-104.05-112.73-12.38-9.33-33.17-20.69-42.94-30.96"/><path fill="#98986b" d="M809.647 1557.32c35.805 9.87 85.379 13.99 122.887 17.19 23.653 2.01 47.468 4.41 71.206 4.82 4.7.33 9.48.5 14.15 1.05-.29.31-.58.63-.88.95-7.35 7.66-32.65 22-32.965 22.39-.406.5-.629 1.13-.943 1.69 1.973 2.77 3.587 3.71 6.968 4.32 17.22 3.09 40.74-2.13 57.46-6.45 4.76-1.23 10.38-3.9 15.24-4.2l2.97 4.13c-6.52 5.77-13.53 10.69-20.65 15.68-.43 2.05-.86 4.1-1.23 6.17 7.54-1.48 15.45-.93 23.08-2.04 20.72-3.02 38.02-12.7 55.88-22.95-4.53 4.65-10.95 8.84-14.28 14.41-1.3 2.17-1.47 2.5-.93 4.84 6.86 4.34 17.92 1.72 25.71 1.8 2.35-1.21 4.48-2.48 6.68-3.94 26.48-4.56 49.81-13.87 70.16-31.69 1.34 1.4 2.36 2.48 3.35 4.16 21.75 28.68 43.56 57.95 68.35 84.09 34.26 34.57 75.51 79.77 126.68 84.68 32.1 3.07 92.47-12.01 116.82-33 6.46-5.57 9.95-12.04 10.31-20.62.65-15.72-8.19-33.13-18.71-44.44-11.9-12.8-25.25-15.32-41.88-15.79 3.19-.58 6.29-1.16 9.38-2.15 30.71-9.89 169.68-12.04 197.69 1.94 4.18 2.09 8.66 5.32 10.19 9.95 1.02 3.07.64 5.98-1.02 8.71-18.61 30.5-144.39 65.84-180.24 77.39-10.99 3.54-21.64 8.02-32.58 11.69-12.59 4.23-25.57 7.68-38.38 11.17a4056 4056 0 0 1-207.14 48.74 6233 6233 0 0 1-142.46 27.36c-10.87 2-41.35 5.23-49.48 8.94-2.24-1.21-3.76-2.66-6.34-2.28 0 2.16.34 3.57 1.08 5.58-18.49 1.49-37.392 5.75-55.684 8.93-46.378 8.05-92.279 17.8-138.523 26.45-67.848 12.68-135.971 21.99-204.339 31.2-72.963 9.84-145.453 18.51-219.026 22.15-47.711 2.36-97.396 3.68-144.612-4.56-14.258-2.49-43.287-6.23-51.493-19.01-1.961-3.06-2.342-6.31-1.474-9.8 5.774-23.21 51.471-44.56 71.732-52.83 14.15-5.77 31.127-10.22 44.142-18.2.484-.3.96-.61 1.44-.91 3.658 8.12 8.722 14.76 16.305 19.6 24.604 15.69 67.934 16.28 95.62 10.14 18.434-4.08 40.298-11.23 51-28.06.227-6.62.232-13.03-.258-19.64 3.518 0 103.594-20.81 107.226-22.32 5.12 4.75 9.695 10.74 14.364 15.97 29.091 32.56 55.708 70.34 102.839 73.32 45.784 2.88 94.902-8.9 129.9-39.53.284-4.16.396-8.36-.097-12.5-2.079-17.5-12.902-35.33-26.642-46.15-13.922-10.96-29.017-13.75-46.346-11.64l-9.382-11.81c-19.301-26.39-29.944-59.1-31.788-91.62 35.079-28.89 57.098-70.39 68.963-113.47"/><path fill="#c0ca89" d="M809.647 1557.32c35.805 9.87 85.379 13.99 122.887 17.19 23.653 2.01 47.468 4.41 71.206 4.82 4.7.33 9.48.5 14.15 1.05-.29.31-.58.63-.88.95-7.35 7.66-32.65 22-32.965 22.39-.406.5-.629 1.13-.943 1.69 1.973 2.77 3.587 3.71 6.968 4.32 17.22 3.09 40.74-2.13 57.46-6.45 4.76-1.23 10.38-3.9 15.24-4.2l2.97 4.13c-6.52 5.77-13.53 10.69-20.65 15.68-.43 2.05-.86 4.1-1.23 6.17 7.54-1.48 15.45-.93 23.08-2.04 20.72-3.02 38.02-12.7 55.88-22.95-4.53 4.65-10.95 8.84-14.28 14.41-1.3 2.17-1.47 2.5-.93 4.84 6.86 4.34 17.92 1.72 25.71 1.8 2.35-1.21 4.48-2.48 6.68-3.94 26.48-4.56 49.81-13.87 70.16-31.69 1.34 1.4 2.36 2.48 3.35 4.16 21.75 28.68 43.56 57.95 68.35 84.09-42.77 6.08-85.19 13.71-127.81 20.61a11274 11274 0 0 0-222.934 37.31c-47.048 8.46-95.191 14.25-141.775 24.77-5.941 1.35-11.815 2.41-16.869 5.98-19.301-26.39-29.944-59.1-31.788-91.62 35.079-28.89 57.098-70.39 68.963-113.47"/><path fill="#2a0c15" d="M1043.86 1625.06c-1.49-.42-2.95-.95-4.42-1.44l-.69-2.07c3.6-8.74 16.86-16.21 24.02-22.47l2.97 4.13c-6.52 5.77-13.53 10.69-20.65 15.68-.43 2.05-.86 4.1-1.23 6.17"/><path fill="#44091f" d="M1210.16 1585.49c1.34 1.4 2.36 2.48 3.35 4.16-15.43 17.23-44.54 32.06-67.8 33.49-4.47.27-8.37.15-12.39-2.02 2.35-1.21 4.48-2.48 6.68-3.94 26.48-4.56 49.81-13.87 70.16-31.69"/></svg>