<svg preserveAspectRatio="xMidYMid meet" version="1.1" xmlns="http://www.w3.org/2000/svg" style="display: block;" viewBox="0 0 2048 2048" width="1024" height="1024">
<path transform="translate(0,0)" fill="rgb(248,247,234)" d="M 0 0 L 261.304 0 L 346.782 0 L 2048 0 L 2048 809.649 L 2048 822.908 L 2048 1008.97 L 2048 1022.63 L 2048 1083.65 L 2048 1097.44 L 2048 2048 L 0 2048 L 0 1503.27 L 0 1479.53 L 0 1312.32 L 0 1296.73 L 0 0 z"/>
<path transform="translate(0,0)" fill="rgb(253,253,253)" d="M 177.623 241.912 C 252.725 240.902 327.949 241.82 403.061 241.836 L 870.237 242.197 L 1401.1 242.838 C 1479.84 242.856 1558.72 241.265 1637.43 242.092 C 1661.19 264.816 1678.69 299.93 1709.24 314.482 C 1712.92 314.079 1716.9 313.796 1720.41 312.579 C 1738.69 306.238 1757.38 284.641 1769.14 270.12 C 1775.82 261.88 1781.79 250.999 1789.09 243.635 C 1815.5 243.898 1841.91 243.975 1868.32 243.865 L 1867.94 280.835 C 1863.14 283.203 1859.17 285.448 1853.72 285.589 C 1844.26 285.833 1834.73 286.56 1827.92 293.956 C 1822.33 300.009 1820.16 310.157 1820.61 318.175 C 1820.86 322.629 1821.99 326.96 1825.6 329.866 C 1829.05 332.643 1833.73 332.882 1837.88 331.958 C 1843.97 330.662 1849.24 326.871 1852.4 321.507 C 1857.66 312.692 1858.4 290.218 1859.97 288.853 C 1861.49 287.537 1865.43 286.303 1867.32 285.478 C 1870.64 304.864 1869.28 326.158 1869.44 345.801 L 1869.85 455.431 L 1869.8 840.285 C 1849.86 841.067 1829.68 840.344 1809.7 840.337 L 1697.69 840.429 L 1329.71 840.226 L 177.289 840.821 L 176.977 472.614 C 176.982 395.776 175.906 318.712 177.623 241.912 z"/>
<path transform="translate(0,0)" fill="rgb(217,83,51)" d="M 337.005 352.534 C 337.112 352.563 337.237 352.552 337.324 352.619 C 343.104 357.134 366.845 438.465 370.762 451.626 C 382.634 418.874 393.599 385.817 404.991 352.896 L 435.646 352.924 C 442.928 402.081 453.253 450.852 459.402 500.126 L 427.217 500.14 C 424.717 488.257 423.592 475.874 421.771 463.842 C 419.283 447.403 416.222 430.902 414.579 414.359 L 413.269 412.135 C 410.289 415.861 387.469 489.117 384.008 499.673 L 359.436 500.03 C 348.631 470.205 338.472 440.15 328.966 409.886 C 324.779 439.976 320.262 469.857 315.082 499.793 L 284.564 499.762 C 288.756 484.061 290.48 467.007 293.026 450.954 C 298.209 418.259 302.987 385.424 309.141 352.896 C 318.43 353.032 327.722 352.912 337.005 352.534 z"/>
<path transform="translate(0,0)" fill="rgb(41,67,107)" d="M 867.97 585.952 C 896.828 585.63 931.023 581.15 954.571 601.583 C 967.364 612.684 973.368 628.836 974.603 645.382 C 976.193 666.674 971.241 686.452 957.183 702.699 C 932.605 726.36 899.612 721.116 868.186 720.98 C 868.347 675.971 868.275 630.961 867.97 585.952 z"/>
<path transform="translate(0,0)" fill="rgb(253,253,253)" d="M 896.525 609.554 C 909.913 609.701 922.647 611.052 933.186 620.33 C 941.966 628.059 946.343 639.388 946.825 650.919 C 947.369 663.934 943.654 676.176 934.8 685.829 C 923.318 694.767 910.46 695.132 896.583 695.83 C 895.479 667.22 896.461 638.212 896.525 609.554 z"/>
<path transform="translate(0,0)" fill="rgb(217,83,51)" d="M 740.087 581.213 C 753.607 580.02 766.989 580.031 779.071 587.228 C 791.422 594.585 798.614 606.921 801.946 620.599 C 807.445 643.178 807.896 680.605 794.779 700.856 C 787.245 712.487 776.924 718.433 763.748 721.536 C 750.312 723.95 737.072 723.481 725.025 716.36 C 711.848 708.571 704.554 694.755 700.69 680.411 C 694.547 657.612 695.139 624.365 707.523 603.61 C 715.257 590.647 725.836 584.591 740.087 581.213 z"/>
<path transform="translate(0,0)" fill="rgb(253,253,253)" d="M 745.988 607.217 C 749.772 607.005 753.699 606.68 757.319 608.019 C 763.744 610.397 768.204 616.248 770.606 622.465 C 776.777 638.435 776.433 668.55 768.97 683.921 C 765.95 690.141 762.243 692.784 755.849 695.028 C 752.454 695.254 748.993 695.479 745.715 694.368 C 740.332 692.544 736.058 687.716 733.55 682.765 C 726.099 668.06 726.235 640.597 731.299 625.077 C 734.136 616.38 737.86 611.383 745.988 607.217 z"/>
<path transform="translate(0,0)" fill="rgb(217,83,51)" d="M 942.592 353.841 C 964.997 353.947 998.927 349.516 1018.99 359.335 C 1028.64 364.055 1036.34 371.717 1039.78 382.031 C 1043.53 393.288 1042.76 407.045 1037.06 417.529 C 1030.14 430.267 1018.65 435.821 1005.48 439.914 C 1025.61 457.279 1042.4 480.064 1059.67 500.314 L 1037.41 500.368 L 1019.2 500.369 L 973.475 441.592 C 972.56 461.046 973.109 480.732 973.058 500.215 L 941.849 500.04 L 942.592 353.841 z"/>
<path transform="translate(0,0)" fill="rgb(253,253,253)" d="M 973.749 381.041 C 983.399 380.87 993.965 380.142 1002.25 386.065 C 1005.53 388.406 1008.28 391.819 1008.86 395.907 C 1009.78 402.32 1006.36 409.239 1002.61 414.163 C 993.567 420.188 984.243 419.912 973.796 419.96 C 973.624 406.988 973.608 394.014 973.749 381.041 z"/>
<path transform="translate(0,0)" fill="rgb(217,83,51)" d="M 520.805 352.818 L 548.636 352.886 C 568.981 401.883 588.825 451.087 608.166 500.489 C 596.369 500.295 584.548 500.434 572.748 500.437 C 569.022 490.289 565.431 480.093 561.974 469.851 L 547.75 469.822 L 507.673 469.874 C 503.632 479.975 499.745 490.136 496.014 500.355 C 484.914 499.742 473.676 500.038 462.556 499.993 C 481.015 450.566 502.628 402.393 520.805 352.818 z"/>
<path transform="translate(0,0)" fill="rgb(253,253,253)" d="M 534.587 393.79 C 540.022 399.216 549.224 433.925 552.334 443.659 L 535.805 443.896 L 516.605 443.93 C 523.097 427.394 527.942 410.273 534.587 393.79 z"/>
<path transform="translate(0,0)" fill="rgb(41,67,107)" d="M 391.67 586.102 C 401.088 585.867 410.543 585.995 419.966 585.953 C 440.735 615.033 460.45 644.952 480.883 674.281 L 480.336 585.977 L 508.358 586.081 C 508.508 630.113 507.396 674.24 508.849 718.249 L 508.713 719.766 C 503.564 723.539 485.612 721.177 478.864 721.012 C 471.396 711.245 464.859 700.389 457.913 690.214 L 420.778 636.388 C 420.845 664.548 420.7 692.709 420.34 720.867 L 392.038 720.835 C 391.759 676.037 390.254 630.859 391.67 586.102 z"/>
<path transform="translate(0,0)" fill="rgb(217,83,51)" d="M 1127.25 353.997 C 1150.8 354.193 1192.37 348.564 1210.76 365.316 C 1220.1 373.824 1225.35 386.545 1225.8 399.075 C 1226.21 410.356 1222.84 421.975 1214.68 430.055 C 1201.65 442.941 1182.65 441.858 1165.75 441.887 C 1164.17 441.908 1162.54 442.114 1160.96 442.235 C 1157.87 447.104 1159.27 491.338 1159.11 500.241 L 1127.7 500.397 L 1127.25 353.997 z"/>
<path transform="translate(0,0)" fill="rgb(253,253,253)" d="M 1160.18 379.094 C 1169.95 378.891 1179.19 378.604 1187.1 385.455 C 1190.24 388.176 1192.84 391.851 1193.06 396.118 C 1193.36 401.979 1190.69 407.598 1186.76 411.764 C 1178.42 416.982 1169.69 416.687 1160.24 416.739 L 1160.18 379.094 z"/>
<path transform="translate(0,0)" fill="rgb(217,83,51)" d="M 665.064 351.217 C 665.369 351.184 665.674 351.143 665.979 351.116 C 685.752 349.344 701.125 354.112 716.344 366.861 C 710.579 375.718 704.733 384.523 698.808 393.275 C 692.251 386.309 685.563 380.321 675.536 379.638 C 670.048 379.265 663.531 380.622 659.522 384.641 C 657.273 386.896 656.338 389.821 656.741 392.971 C 658.753 408.679 693.382 416.245 705.493 426.985 C 714.634 435.092 718.981 445.944 719.663 458.034 C 720.298 469.31 716.824 480.858 709.008 489.176 C 698.51 500.348 684.429 502.831 669.866 503.517 C 648.074 502.96 634.25 497.766 616.704 484.924 L 631.509 458.052 C 634.401 460.467 637.298 462.914 640.354 465.12 C 649.585 471.781 659.871 476.662 671.545 474.42 C 676.78 473.414 681.382 470.769 684.339 466.25 C 685.896 463.871 686.543 461.245 685.728 458.435 C 682.165 446.154 660.215 438.887 650.026 432.866 C 639.084 426.4 629.919 416.909 626.916 404.224 C 624.314 393.236 626.201 380.473 632.211 370.859 C 639.731 358.83 651.82 354.05 665.064 351.217 z"/>
<path transform="translate(0,0)" fill="rgb(41,67,107)" d="M 1030.95 586.045 C 1039.39 585.904 1047.85 586.137 1056.29 586.242 C 1061.57 597.956 1065.69 610.386 1070.57 622.299 L 1110.35 720.494 C 1100.31 720.726 1090.23 720.558 1080.18 720.555 C 1075.8 710.186 1071.95 699.506 1067.82 689.027 L 1057.59 688.973 L 1019.99 689.098 C 1015.6 699.565 1011.87 710.355 1007.92 720.997 L 976.934 720.986 C 986.362 694.179 998.558 668.102 1008.94 641.631 C 1015.18 625.73 1022.58 599.523 1030.95 586.045 z"/>
<path transform="translate(0,0)" fill="rgb(253,253,253)" d="M 1043.38 622.68 C 1047.14 626.615 1055.32 655.26 1058.16 662.997 L 1042.75 663.079 L 1028.95 663.021 C 1033.23 649.355 1038.29 636.061 1043.38 622.68 z"/>
<path transform="translate(0,0)" fill="rgb(217,83,51)" d="M 838.235 353.48 C 864.393 354.043 890.699 353.332 916.87 353.19 C 916.819 362.506 916.645 371.669 915.763 380.956 L 870.49 380.995 C 870.479 391.948 870.542 402.9 870.681 413.851 L 914.024 413.747 L 914.056 441.781 L 870.013 441.86 L 870.01 455.801 L 870.012 472.754 L 916.914 472.2 L 916.846 500.333 C 890.692 499.938 864.487 500.277 838.328 500.285 L 837.938 399.786 C 837.875 384.908 836.17 368.103 838.235 353.48 z"/>
<path transform="translate(0,0)" fill="rgb(217,83,51)" d="M 1575.9 396.387 C 1604.15 393.464 1629.49 413.827 1632.72 442.045 C 1635.95 470.264 1615.86 495.821 1587.67 499.351 C 1569.17 501.668 1550.85 493.867 1539.7 478.922 C 1528.55 463.977 1526.29 444.194 1533.78 427.117 C 1541.27 410.041 1557.35 398.306 1575.9 396.387 z"/>
<path transform="translate(0,0)" fill="rgb(253,253,253)" d="M 1579.5 421.141 C 1583.34 421.319 1586.86 421.724 1590.4 423.336 C 1596.81 426.25 1601.43 431.827 1603.52 438.502 C 1605.82 445.96 1605.01 454.033 1601.28 460.886 C 1597.3 468.071 1591.56 471.581 1583.82 473.645 C 1580.45 473.458 1577.03 473.345 1573.88 472.022 C 1566.91 469.1 1561.52 463.355 1559.05 456.221 C 1556.76 449.616 1557.21 442.367 1560.32 436.102 C 1564.46 427.772 1570.99 424.014 1579.5 421.141 z"/>
<path transform="translate(0,0)" fill="rgb(217,83,51)" d="M 1418.59 349.952 L 1447.91 349.747 L 1448.05 415.303 C 1449.41 413.586 1450.83 411.91 1452.29 410.278 C 1458.83 403.069 1467.28 398.7 1477.08 398.502 C 1485.73 398.327 1494.69 400.384 1500.99 406.648 C 1504.62 410.252 1507 414.846 1508.28 419.772 C 1512.39 435.636 1509.94 477.479 1509.89 495.833 L 1480.25 495.92 L 1480.43 467.417 C 1480.7 457.423 1481.96 446.12 1480.1 436.288 C 1479.24 431.748 1477.28 427.215 1473.16 424.762 C 1469.88 422.815 1465.38 422.525 1461.73 423.442 C 1454.88 425.165 1450.96 430.967 1447.68 436.748 C 1447.48 456.44 1447.49 476.132 1447.7 495.823 L 1418.86 495.86 L 1418.59 349.952 z"/>
<path transform="translate(0,0)" fill="rgb(217,83,51)" d="M 620.927 582.203 C 628.061 581.357 635.596 581.312 642.661 582.72 C 653.861 584.953 664.368 590.851 670.452 600.748 C 674.888 607.964 676.776 617.065 674.65 625.352 C 672.096 635.312 665.347 641.65 656.904 646.793 C 662.821 649.439 668.182 652.506 672.53 657.42 C 679.276 665.045 681.048 674.9 680.116 684.815 C 679.087 695.753 674.014 705.516 665.258 712.236 C 652.426 722.086 633.116 724.19 617.471 721.66 C 604.072 719.493 591.514 712.937 583.585 701.651 C 580.743 697.605 576.647 691.708 577.498 686.768 L 580.204 685.187 L 604.62 677.549 C 605.822 680.527 607.25 683.443 609.167 686.035 C 612.955 691.232 618.668 694.693 625.027 695.646 C 631.455 696.559 638.417 695.034 643.432 690.779 C 647.047 687.712 649.526 683.312 649.817 678.538 C 650.05 674.712 648.827 671.042 646.249 668.191 C 639.552 660.785 628.667 661.125 619.525 660.802 L 620.031 639.056 C 628.001 638.461 636.111 638.511 641.659 631.759 C 644.105 628.754 645.128 624.837 644.464 621.02 C 643.726 616.561 641.11 612.632 637.279 610.233 C 633.423 607.797 628.716 607.103 624.321 608.323 C 616.11 610.633 613.156 616.599 609.183 623.455 C 600.576 621.024 591.996 618.811 583.9 614.942 C 585.757 610.365 587.745 605.777 590.387 601.59 C 597.57 590.204 608.301 585.05 620.927 582.203 z"/>
<path transform="translate(0,0)" fill="rgb(41,67,107)" d="M 1253.21 583.371 C 1268.39 583.589 1279.36 586.401 1292.14 595.005 C 1289.93 603.101 1286.15 610.745 1281.98 617.987 C 1273.66 613.675 1265.02 608.825 1255.42 608.43 C 1250.01 608.207 1244.81 609.291 1240.82 613.19 C 1238.68 615.277 1237.04 618.209 1237.32 621.29 C 1238.48 634.138 1276.88 642.926 1288.02 654.143 C 1295.58 661.759 1298.31 672.472 1297.96 682.969 C 1297.59 694.271 1294.2 704.207 1285.57 711.938 C 1272.75 723.433 1255.66 723.668 1239.52 722.751 C 1225.41 720.388 1213.99 714.878 1201.63 707.822 C 1206.89 699.638 1211.41 690.895 1216.15 682.4 C 1224.99 689.965 1234.44 696.614 1246.45 697.479 C 1253.19 697.964 1260.38 696.841 1265.48 692.065 C 1267.99 689.705 1270.4 686.307 1270.23 682.708 C 1269.54 668.052 1234.12 659.307 1223.38 650.774 C 1215.64 644.63 1210.16 636.389 1209.25 626.4 C 1208.37 616.835 1212.11 605.796 1218.31 598.505 C 1227.41 587.81 1239.8 584.35 1253.21 583.371 z"/>
<path transform="translate(0,0)" fill="rgb(217,83,51)" d="M 730.035 353.916 L 825.576 353.591 C 825.298 362.731 825.485 371.916 825.488 381.062 L 792.979 381.015 L 792.875 466.5 L 792.946 500.197 L 760.443 500.047 L 760.116 381.183 C 750.1 381.109 740.071 381.253 730.054 381.297 L 730.035 353.916 z"/>
<path transform="translate(0,0)" fill="rgb(217,83,51)" d="M 1706.88 398.192 C 1709.7 398.05 1712.51 397.97 1715.33 397.953 C 1723.03 397.981 1730.38 401.131 1735.71 406.681 C 1740.11 411.265 1742.86 417.149 1744.37 423.27 C 1748.51 440.01 1746.02 476.702 1745.96 495.973 L 1717.05 495.915 C 1716.27 480.686 1720.15 435.206 1710.02 425.569 C 1707.42 423.098 1704.39 422.397 1700.9 422.51 C 1694.47 422.719 1690.61 426.244 1686.54 430.818 C 1679.24 443.953 1682.09 480.77 1682.07 496.288 L 1652.99 496.175 C 1653.17 464.068 1652.61 431.939 1652.53 399.829 L 1682.44 399.954 L 1683.07 415.221 C 1689.57 405.457 1695.28 400.621 1706.88 398.192 z"/>
<path transform="translate(0,0)" fill="rgb(217,83,51)" d="M 1306.94 399.641 C 1317.58 399.805 1328.25 399.626 1338.9 399.599 C 1330.65 424.555 1310.67 458.867 1298.42 483.653 C 1288.61 501.704 1278.5 519.59 1268.08 537.302 C 1257.77 532.846 1247.94 527.772 1238.04 522.486 C 1242.55 516.405 1248.19 510.99 1252.93 505.047 C 1259.99 496.209 1266.29 486.703 1272.71 477.395 C 1260.15 451.855 1244.84 426.54 1234.19 400.22 L 1267.15 400.068 C 1273.12 416.644 1280.23 433.116 1287.07 449.358 C 1294.7 433.102 1301.04 416.594 1306.94 399.641 z"/>
<path transform="translate(0,0)" fill="rgb(41,67,107)" d="M 1174.37 585.448 L 1206.35 585.715 C 1193.81 609.032 1176.38 630.798 1161.13 652.417 L 1160.98 720.587 C 1151.27 720.378 1141.55 720.409 1131.84 720.343 L 1131.9 663.75 C 1132 659.547 1132.26 655.355 1130.67 651.378 C 1125.06 637.354 1095 601.077 1084.44 585.847 C 1096.19 585.563 1107.98 585.745 1119.74 585.755 C 1130.25 598.502 1138.54 613.028 1146.39 627.52 C 1155.28 613.25 1165 599.411 1174.37 585.448 z"/>
<path transform="translate(0,0)" fill="rgb(217,83,51)" d="M 1383.68 369.204 C 1386.04 372.71 1385.3 394.896 1385.61 400.336 L 1402.23 400.054 L 1402.16 424.103 L 1385.11 424.125 C 1384.99 435.971 1382.64 458.718 1386.76 469.02 C 1390.03 477.18 1395.45 472.075 1401.28 474.928 C 1401.82 481.163 1401.75 487.427 1401.78 493.68 C 1394.12 496.386 1387.35 497.633 1379.26 497.604 C 1373.54 496.641 1367.82 494.433 1363.64 490.282 C 1351.78 478.491 1355.98 440.85 1355.88 424.091 L 1341.96 424.081 C 1341.76 415.811 1341.39 407.538 1341.1 399.27 L 1355.12 399.35 L 1355.11 377.293 C 1364.67 374.726 1374.19 372.03 1383.68 369.204 z"/>
<path transform="translate(0,0)" fill="rgb(41,67,107)" d="M 331.557 586.019 L 360.978 585.98 C 362.327 605.678 361.511 625.825 361.462 645.566 C 361.399 670.55 361.866 695.675 360.931 720.639 L 331.517 720.689 C 331.24 675.8 331.254 630.909 331.557 586.019 z"/>
<path transform="translate(0,0)" fill="rgb(248,247,234)" d="M 0 1312.32 C 30.9547 1294.44 58.2598 1291.05 93.0345 1300.34 C 147.384 1314.85 191.02 1356.84 218.33 1404.63 C 238.343 1439.65 249.779 1480.35 238.647 1520.32 C 232.853 1541.12 219.645 1559.12 200.608 1569.62 C 175.514 1583.47 145.229 1582.69 118.358 1574.61 C 68.7903 1559.71 28.19 1521.7 0 1479.53 L 0 1312.32 z"/>
<path transform="translate(0,0)" fill="rgb(253,253,253)" d="M 53.4817 1351.28 C 71.29 1349.86 85.1846 1352.51 101.318 1360.43 C 139.479 1379.17 171.021 1415.09 184.47 1455.56 C 189.798 1471.59 193.434 1492.11 185.117 1507.67 C 179.123 1518.88 170.081 1523.5 158.471 1527.02 C 137.291 1528.95 122.361 1522.01 104.284 1511.57 C 67.8343 1490.51 34.8479 1452.85 24.0434 1411.52 C 20.4012 1397.58 19.5444 1381.04 27.439 1368.38 C 33.4715 1358.71 42.7572 1353.89 53.4817 1351.28 z"/>
<path transform="translate(0,0)" fill="rgb(248,247,234)" d="M 62.3304 1363.29 C 83.4938 1364.46 100.794 1373.46 117.485 1386.08 C 144.622 1406.6 172.334 1443.98 176.828 1478.46 C 178.016 1487.57 177.789 1498.09 171.622 1505.5 C 165.863 1512.42 158.842 1513.79 150.387 1514.35 C 129.182 1513.3 109.226 1501.8 93.0047 1488.8 C 68.4006 1469.09 38.3462 1430.98 34.9764 1398.53 C 34.0523 1389.63 34.5783 1379.58 40.6502 1372.47 C 46.434 1365.69 53.9545 1364.13 62.3304 1363.29 z"/>
<path transform="translate(0,0)" fill="rgb(251,181,45)" d="M 1621.83 227.707 C 1627.1 232.427 1632.3 237.222 1637.43 242.092 C 1558.72 241.265 1479.84 242.856 1401.1 242.838 L 870.237 242.197 L 403.061 241.836 C 327.949 241.82 252.725 240.902 177.623 241.912 C 175.906 318.712 176.982 395.776 176.977 472.614 L 177.289 840.821 L 1329.71 840.226 L 1697.69 840.429 L 1809.7 840.337 C 1829.68 840.344 1849.86 841.067 1869.8 840.285 L 1869.85 455.431 L 1869.44 345.801 C 1869.28 326.158 1870.64 304.864 1867.32 285.478 C 1872.15 283.316 1876.79 280.92 1881.46 278.44 L 1881.06 625.485 L 1881.07 779.258 C 1881.04 799.512 1882.13 819.918 1881.54 840.148 C 1881.45 843.247 1881.69 846.645 1879.49 849.096 C 1873.77 855.467 1859.53 853.628 1851.8 853.565 C 1836.95 853.33 1822.07 853.479 1807.22 853.451 L 596.48 853.773 L 285.338 853.761 L 216.078 853.507 C 200.74 853.512 183.26 855.144 168.277 851.943 C 165.551 845.67 166.213 835.931 166.097 829.115 C 165.334 784.36 165.794 739.519 165.651 694.753 L 165.668 392.913 L 165.726 287.152 C 165.66 270.972 163.641 248.477 166.337 233.167 C 167.137 228.627 179.52 229.948 183.057 229.984 L 328.623 230.154 L 1047.21 230.514 L 1411.33 230.887 C 1475.74 230.862 1540.43 232.029 1604.81 230.295 C 1610.3 230.147 1617.23 230.855 1621.83 227.707 z"/>
<path transform="translate(0,0)" fill="rgb(251,181,45)" d="M 1554.36 128.441 C 1557.15 123.343 1560.37 117.785 1563.95 113.221 C 1573.59 100.932 1618.71 94.4125 1633.57 93.1326 C 1682.55 88.9133 1732.54 103.53 1774.58 128.164 C 1782.38 132.736 1790.81 137.519 1797.74 143.321 C 1802.85 144.863 1807.03 148.476 1811.17 151.746 C 1839.07 150.365 1865.85 154.963 1887.27 174.165 C 1900.59 186.106 1909.87 202.898 1910.86 220.955 C 1911.75 237.021 1905.83 254.734 1894.86 266.521 C 1890.79 270.891 1886.18 274.798 1881.46 278.44 C 1876.79 280.92 1872.15 283.316 1867.32 285.478 C 1865.43 286.303 1861.49 287.537 1859.97 288.853 C 1858.4 290.218 1857.66 312.692 1852.4 321.507 C 1849.24 326.871 1843.97 330.662 1837.88 331.958 C 1833.73 332.882 1829.05 332.643 1825.6 329.866 C 1821.99 326.96 1820.86 322.629 1820.61 318.175 C 1820.16 310.157 1822.33 300.009 1827.92 293.956 C 1834.73 286.56 1844.26 285.833 1853.72 285.589 C 1859.17 285.448 1863.14 283.203 1867.94 280.835 L 1868.32 243.865 C 1841.91 243.975 1815.5 243.898 1789.09 243.635 C 1781.79 250.999 1775.82 261.88 1769.14 270.12 C 1757.38 284.641 1738.69 306.238 1720.41 312.579 C 1716.9 313.796 1712.92 314.079 1709.24 314.482 C 1678.69 299.93 1661.19 264.816 1637.43 242.092 C 1632.3 237.222 1627.1 232.427 1621.83 227.707 C 1592.07 203.338 1566.81 164.4 1554.36 128.441 z"/>
<path transform="translate(0,0)" fill="rgb(248,247,234)" d="M 1811.17 151.746 C 1839.07 150.365 1865.85 154.963 1887.27 174.165 C 1900.59 186.106 1909.87 202.898 1910.86 220.955 C 1911.75 237.021 1905.83 254.734 1894.86 266.521 C 1890.79 270.891 1886.18 274.798 1881.46 278.44 C 1876.79 280.92 1872.15 283.316 1867.32 285.478 C 1865.43 286.303 1861.49 287.537 1859.97 288.853 C 1858.4 290.218 1857.66 312.692 1852.4 321.507 C 1849.24 326.871 1843.97 330.662 1837.88 331.958 C 1833.73 332.882 1829.05 332.643 1825.6 329.866 C 1821.99 326.96 1820.86 322.629 1820.61 318.175 C 1820.16 310.157 1822.33 300.009 1827.92 293.956 C 1834.73 286.56 1844.26 285.833 1853.72 285.589 C 1859.17 285.448 1863.14 283.203 1867.94 280.835 L 1868.32 243.865 C 1841.91 243.975 1815.5 243.898 1789.09 243.635 C 1792.27 241.753 1794.2 234.448 1796.19 230.966 C 1807.71 207.906 1820.5 181.704 1820.22 155.355 C 1792.89 157.852 1747.54 204.165 1729.32 226.092 C 1719.85 237.493 1711.42 249.515 1702.57 261.375 L 1700.62 258.408 C 1720.54 225.346 1749.81 193.918 1780.72 171.045 C 1789.14 164.811 1805.24 159.322 1811.17 151.746 z"/>
<path transform="translate(0,0)" fill="rgb(0,0,0)" d="M 1811.17 151.746 C 1839.07 150.365 1865.85 154.963 1887.27 174.165 C 1900.59 186.106 1909.87 202.898 1910.86 220.955 C 1911.75 237.021 1905.83 254.734 1894.86 266.521 C 1890.79 270.891 1886.18 274.798 1881.46 278.44 C 1876.79 280.92 1872.15 283.316 1867.32 285.478 C 1865.43 286.303 1861.49 287.537 1859.97 288.853 C 1858.4 290.218 1857.66 312.692 1852.4 321.507 C 1849.24 326.871 1843.97 330.662 1837.88 331.958 C 1833.73 332.882 1829.05 332.643 1825.6 329.866 C 1821.99 326.96 1820.86 322.629 1820.61 318.175 C 1820.16 310.157 1822.33 300.009 1827.92 293.956 C 1834.73 286.56 1844.26 285.833 1853.72 285.589 C 1859.17 285.448 1863.14 283.203 1867.94 280.835 C 1872.24 278.639 1876.33 276.221 1880.43 273.69 C 1882.41 272.28 1884.31 270.767 1886.13 269.158 C 1898.11 258.499 1905.4 243.533 1906.39 227.523 C 1907.39 211.095 1900.77 195.189 1889.93 183.062 C 1871.19 162.082 1847.16 156.804 1820.22 155.355 C 1792.89 157.852 1747.54 204.165 1729.32 226.092 C 1719.85 237.493 1711.42 249.515 1702.57 261.375 L 1700.62 258.408 C 1720.54 225.346 1749.81 193.918 1780.72 171.045 C 1789.14 164.811 1805.24 159.322 1811.17 151.746 z"/>
<path transform="translate(0,0)" fill="rgb(253,253,253)" d="M 1842.55 288.892 C 1844.18 288.923 1846.39 288.815 1847.94 289.418 C 1850.41 290.375 1852.35 292.435 1853.46 294.808 C 1855.9 300.022 1854.19 307.152 1852.12 312.18 C 1848.92 319.959 1844.68 324.935 1836.95 328.253 C 1835.11 328.248 1832.76 328.432 1830.99 327.956 C 1828.48 327.279 1826.49 325.206 1825.34 322.921 C 1822.92 318.076 1824.16 311.758 1825.9 306.91 C 1829.13 297.914 1834.03 292.888 1842.55 288.892 z"/>
<path transform="translate(0,0)" fill="rgb(251,181,45)" d="M 1789.09 243.635 C 1792.27 241.753 1794.2 234.448 1796.19 230.966 C 1824.16 231.557 1852.13 231.604 1880.1 231.106 L 1880.43 273.69 C 1876.33 276.221 1872.24 278.639 1867.94 280.835 L 1868.32 243.865 C 1841.91 243.975 1815.5 243.898 1789.09 243.635 z"/>
<path transform="translate(0,0)" fill="rgb(251,181,45)" d="M 1797.74 143.321 C 1802.85 144.863 1807.03 148.476 1811.17 151.746 C 1805.24 159.322 1789.14 164.811 1780.72 171.045 C 1749.81 193.918 1720.54 225.346 1700.62 258.408 C 1695.7 251.702 1690.71 244.942 1685.27 238.654 C 1678.01 230.284 1664.96 217.202 1653.26 216.328 C 1649.29 210.026 1645.39 204.362 1642.15 197.601 C 1670.3 161.334 1718.2 143.58 1763.15 144.439 C 1771.17 144.592 1789.13 148.066 1795.67 145.98 C 1797.14 145.509 1797.13 144.605 1797.74 143.321 z"/>
<path transform="translate(0,0)" fill="rgb(253,253,253)" d="M 1702.57 261.375 C 1703.53 265.154 1705.84 269.014 1707.3 272.673 C 1710.63 281.03 1713.8 290.455 1714.87 299.42 C 1715.35 303.407 1715.08 305.408 1712.56 308.554 C 1710.92 309.096 1710.72 309.482 1708.99 308.881 C 1688.76 301.829 1660.58 259.759 1644.87 243.142 C 1637.11 234.933 1628.26 227.669 1620.08 219.87 C 1609.21 209.349 1599.07 198.103 1589.72 186.211 C 1579.73 173.329 1571.46 158.85 1564.65 144.061 C 1561.98 138.257 1559.2 131.931 1561.53 125.601 C 1563.22 123.979 1563.76 123.23 1566.17 122.875 C 1573.73 121.759 1587.46 129.56 1593.33 134.243 C 1599.28 138.997 1606.26 147.034 1606.93 154.991 C 1606.98 155.588 1607 156.187 1607.04 156.785 C 1606.65 164.437 1606 173.608 1611.4 179.782 C 1617.18 186.393 1626.96 188.032 1634.31 192.393 C 1638.32 199.434 1643.66 213.667 1651.83 216.007 C 1652.3 216.141 1652.78 216.221 1653.26 216.328 C 1664.96 217.202 1678.01 230.284 1685.27 238.654 C 1690.71 244.942 1695.7 251.702 1700.62 258.408 L 1702.57 261.375 z"/>
<path transform="translate(0,0)" fill="rgb(0,0,0)" d="M 1640.16 195.892 C 1644.38 188.689 1649.42 182.678 1655.61 177.095 C 1682.62 152.74 1724.35 139.714 1760.34 140.119 C 1772.87 140.26 1785.24 142.642 1797.74 143.321 C 1797.13 144.605 1797.14 145.509 1795.67 145.98 C 1789.13 148.066 1771.17 144.592 1763.15 144.439 C 1718.2 143.58 1670.3 161.334 1642.15 197.601 C 1645.39 204.362 1649.29 210.026 1653.26 216.328 C 1652.78 216.221 1652.3 216.141 1651.83 216.007 C 1643.66 213.667 1638.32 199.434 1634.31 192.393 C 1626.96 188.032 1617.18 186.393 1611.4 179.782 C 1606 173.608 1606.65 164.437 1607.04 156.785 C 1610.45 162.777 1611.68 171.548 1613.93 178.246 C 1624.01 184.405 1632.9 185.48 1640.16 195.892 z"/>
<path transform="translate(0,0)" fill="rgb(253,253,253)" d="M 261.304 0 L 346.782 0 C 361.709 9.00717 374.062 19.4507 383.322 34.4263 C 396.364 55.5169 399.495 80.8542 393.637 104.793 C 387.538 129.699 371.657 151.095 349.583 164.144 C 329.587 176.136 304.274 180.109 281.649 174.313 C 258.157 168.295 235.856 152.62 223.598 131.568 C 210.984 109.902 207.825 80.1949 214.479 56.1326 C 221.559 30.5345 238.571 12.7885 261.304 0 z"/>
<path transform="translate(0,0)" fill="rgb(248,247,234)" d="M 302.489 1.32714 C 302.86 1.21438 303.22 1.05681 303.602 0.988869 C 314.061 -0.873374 341.975 11.622 350.838 17.8604 C 367.645 29.6598 378.98 47.7421 382.276 68.0116 C 385.858 90.3304 380.265 113.149 366.768 131.282 C 351.921 151.477 332.512 159.584 308.294 163.11 C 288.055 163.632 269.622 158.432 253.538 145.827 C 236.755 132.674 227.638 114.025 225.342 92.9844 C 222.848 70.125 227.372 50.729 241.92 32.6448 C 256.733 14.2317 279.244 3.73431 302.489 1.32714 z"/>
<path transform="translate(0,0)" fill="rgb(253,253,253)" d="M 297.774 29.7121 C 326.996 26.6347 353.211 47.7501 356.429 76.9567 C 359.648 106.163 338.659 132.48 309.468 135.839 C 280.078 139.221 253.541 118.057 250.301 88.6509 C 247.061 59.2444 268.352 32.8105 297.774 29.7121 z"/>
<path transform="translate(0,0)" fill="rgb(248,247,234)" d="M 298.358 42.8257 C 320.306 39.6981 340.674 54.8445 343.995 76.7642 C 347.317 98.6839 332.351 119.185 310.462 122.7 C 288.297 126.26 267.481 111.065 264.117 88.869 C 260.754 66.6731 276.133 45.9927 298.358 42.8257 z"/>
<path transform="translate(0,0)" fill="rgb(248,247,234)" d="M 2048 1008.97 C 2047.21 1009.35 2046.41 1009.72 2045.61 1010.07 C 2023.65 1019.66 1996.9 1017.07 1975.1 1008.4 C 1951.42 998.973 1934 981.194 1924.04 957.818 C 1912.94 931.723 1911.73 905.715 1922.51 879.322 C 1933.07 853.457 1950.73 833.915 1976.81 823.284 C 1999.83 813.903 2025.09 813.232 2048 822.908 L 2048 1008.97 z"/>
<path transform="translate(0,0)" fill="rgb(253,253,253)" d="M 0 1296.73 C 29.7497 1279.96 66.104 1279.38 98.5026 1288.27 C 152.688 1303.14 200.478 1345.22 227.961 1393.61 C 249.877 1432.19 262.93 1480.99 250.875 1524.9 C 244.346 1548.94 228.413 1569.33 206.67 1581.48 C 178.894 1596.9 146.846 1596.45 117.016 1587.58 C 65.8156 1572.36 33.8755 1542.57 0 1503.27 L 0 1479.53 C 28.19 1521.7 68.7903 1559.71 118.358 1574.61 C 145.229 1582.69 175.514 1583.47 200.608 1569.62 C 219.645 1559.12 232.853 1541.12 238.647 1520.32 C 249.779 1480.35 238.343 1439.65 218.33 1404.63 C 191.02 1356.84 147.384 1314.85 93.0345 1300.34 C 58.2598 1291.05 30.9547 1294.44 0 1312.32 L 0 1296.73 z"/>
<path transform="translate(0,0)" fill="rgb(253,253,253)" d="M 2048 1022.63 C 2028.08 1031.8 1999.29 1031.01 1978.73 1024.59 C 1951.2 1015.83 1928.35 996.368 1915.34 970.577 C 1900.8 941.782 1898.29 908.39 1908.37 877.747 C 1917.26 850.941 1940.61 825.483 1965.78 812.95 C 1992.53 799.626 2020.34 800.413 2048 809.649 L 2048 822.908 C 2025.09 813.232 1999.83 813.903 1976.81 823.284 C 1950.73 833.915 1933.07 853.457 1922.51 879.322 C 1911.73 905.715 1912.94 931.723 1924.04 957.818 C 1934 981.194 1951.42 998.973 1975.1 1008.4 C 1996.9 1017.07 2023.65 1019.66 2045.61 1010.07 C 2046.41 1009.72 2047.21 1009.35 2048 1008.97 L 2048 1022.63 z"/>
<path transform="translate(0,0)" fill="rgb(253,253,253)" d="M 1807.22 853.451 C 1822.07 853.479 1836.95 853.33 1851.8 853.565 C 1836.62 899.534 1838.92 951.753 1860.67 995.356 C 1880.88 1035.66 1916.36 1066.22 1959.21 1080.22 C 1989.44 1090.21 2017.22 1090.73 2048 1083.65 L 2048 1097.44 C 2020.01 1104.94 1988.4 1102.43 1960.84 1094.36 C 1913.18 1080.42 1874.84 1049.76 1851.14 1006 C 1826.71 960.865 1822.56 903.169 1836.97 854.202 C 1829.14 854.226 1814.19 856.137 1807.22 853.451 z"/>
<path transform="translate(0,0)" fill="rgb(251,181,45)" d="M 1096.98 1035.44 C 1139.25 1034.14 1181.9 1035.21 1224.2 1035.18 L 1474.83 1035.11 L 1640.08 1035.08 C 1669.08 1035.08 1699.01 1033.49 1727.88 1035.56 C 1742.84 1036.64 1757.02 1040.37 1770.37 1047.29 C 1796.6 1060.89 1814.81 1082.5 1823.4 1110.66 C 1825.83 1118.57 1827.27 1126.74 1827.69 1135 C 1828.9 1157.46 1827.83 1180.46 1827.76 1202.96 C 1827.64 1241.11 1827.73 1279.26 1828.02 1317.41 L 1828.23 1424.22 C 1828.23 1438.57 1829.72 1454 1828.45 1468.21 C 1827.36 1480.38 1813.21 1513.21 1814.94 1518.78 C 1820.77 1516.75 1825.9 1505.09 1828.94 1499.69 C 1840.24 1505.94 1851.8 1511.67 1863.33 1517.45 C 1858.26 1528 1853.11 1538.42 1847.51 1548.7 C 1853.45 1554.8 1858.2 1561.97 1862.63 1569.2 L 1892.55 1557.84 C 1898.13 1571.41 1905.15 1584.6 1909.81 1598.51 C 1900.01 1603.2 1890.35 1608.28 1880.63 1613.17 C 1881.67 1622.15 1882.79 1631.08 1882.93 1640.14 C 1893.06 1644.68 1903.42 1648.32 1913.89 1651.98 C 1910.52 1664.86 1906.83 1677.66 1903.28 1690.49 C 1892.44 1688.94 1881.78 1687.18 1871.07 1684.88 C 1866.9 1692.55 1861.98 1699.79 1856.37 1706.49 C 1864.21 1714.84 1870.97 1724.11 1877.9 1733.2 C 1868.23 1742.9 1857.21 1751.45 1846.69 1760.21 C 1839.04 1751.67 1830.15 1744.03 1821.77 1736.21 C 1813.11 1740.69 1803.87 1744.15 1794.84 1747.85 L 1795.85 1780.63 C 1781.45 1781.51 1766.95 1783.44 1752.61 1785.08 C 1751.56 1774.12 1750.62 1763.15 1748.93 1752.26 C 1743.8 1750.6 1738.44 1749.45 1733.21 1748.12 L 1718.4 1743.76 C 1712.24 1752.95 1706.38 1762.94 1699.2 1771.34 C 1687.79 1763.98 1676.11 1757.05 1664.18 1750.57 C 1669.71 1740.3 1675.77 1730.39 1681.82 1720.44 C 1675.4 1714.08 1670.11 1707.13 1664.75 1699.88 C 1653.15 1702.97 1641.52 1705.9 1629.85 1708.68 C 1624.72 1696.57 1620.59 1683.95 1615.94 1671.64 L 1646.7 1657.46 C 1644.32 1647.39 1644.22 1637.91 1644.37 1627.6 C 1633.23 1624.53 1622.1 1621.39 1610.99 1618.2 C 1613.42 1605.8 1615.6 1593.35 1617.52 1580.86 L 1464.84 1580.94 C 1460.41 1591.54 1455.83 1602.11 1450.08 1612.07 C 1429.02 1648.53 1396.62 1677.43 1363.09 1702.2 C 1355.84 1707.55 1347.46 1714.92 1338.67 1717.27 C 1335.84 1716.19 1334.56 1713.47 1332.96 1711.04 C 1347.89 1688.44 1358.5 1665.3 1353.67 1637.67 C 1349.59 1614.83 1336.5 1594.58 1317.35 1581.48 C 1298.8 1580.15 1279.37 1581.6 1260.71 1581.67 L 1145.8 1581.78 C 1122.48 1581.86 1097.13 1583.88 1074.3 1578.94 C 1056.35 1575.03 1039.72 1566.55 1026.01 1554.34 C 1000.56 1532.05 991.083 1504.33 988.937 1471.31 C 987.418 1447.92 988.42 1423.98 988.531 1400.54 L 989.137 1276.98 L 989.162 1187.75 C 989.161 1167.14 987.749 1145.51 991.457 1125.16 C 995.001 1105.65 1003.89 1087.5 1017.14 1072.74 C 1037.69 1050.12 1066.45 1036.68 1096.98 1035.44 z"/>
<path transform="translate(0,0)" fill="rgb(253,253,253)" d="M 1002.17 1142.66 C 1005.19 1121.19 1009.96 1103.32 1023.67 1085.95 C 1039.35 1066.09 1064.45 1052.25 1089.68 1049.56 C 1103.63 1048.08 1118.31 1048.92 1132.33 1048.94 L 1203.4 1048.91 C 1287.16 1048.18 1370.93 1048.04 1454.7 1048.49 L 1639.27 1048.05 L 1693.78 1047.99 C 1705.5 1047.99 1717.64 1047.49 1729.3 1048.75 C 1747.12 1050.69 1765.88 1057.88 1779.8 1069.27 C 1802.16 1087.56 1812.18 1113.63 1814.95 1141.67 C 1815.86 1191.47 1814.98 1241.41 1814.77 1291.22 L 1814.84 1419.04 C 1814.9 1435.33 1817.66 1455.25 1815.17 1471.05 C 1812.72 1486.57 1805.3 1501.81 1799.38 1516.26 L 1777.05 1515.17 C 1775.89 1504.19 1774.52 1493.19 1773.62 1482.19 C 1759.14 1483.41 1744.49 1485.05 1729.94 1485.15 C 1730.03 1496.52 1729.91 1507.9 1731.07 1519.22 C 1722.67 1522.88 1714.42 1526.65 1706.25 1530.81 C 1698.35 1522.89 1690.57 1514.78 1682.41 1507.13 C 1671.47 1515.85 1660.59 1524.64 1649.77 1533.51 C 1656.28 1542.61 1662.84 1551.49 1670.06 1560.06 C 1666.65 1564.06 1662.58 1568.11 1659.78 1572.54 C 1652.63 1573.41 1644.05 1571.04 1636.54 1571.05 C 1576.54 1569.22 1516.31 1571.34 1456.26 1570.09 C 1449.11 1580.98 1445.5 1594.91 1438.71 1606.37 C 1418.18 1641.04 1389.02 1664.93 1358.66 1690.32 C 1366.88 1669.89 1369.51 1648.62 1364.27 1627.04 C 1358.87 1604.81 1343.64 1582.18 1324.02 1570.08 C 1282.03 1569.78 1240.04 1569.83 1198.05 1570.21 C 1166.06 1570.58 1133.85 1571.77 1101.89 1570.9 C 1074.69 1570.17 1047.04 1560.18 1028.15 1540.05 C 1015.98 1527.08 1008.14 1510.65 1004.35 1493.35 C 998.346 1465.99 1001.38 1433.17 1001.4 1405.06 C 1001.42 1367.14 1000.68 1329.06 1001.78 1291.16 C 1003.38 1241.81 1001.93 1192.07 1002.17 1142.66 z"/>
<path transform="translate(0,0)" fill="rgb(217,83,51)" d="M 1002.17 1142.66 C 1005.19 1121.19 1009.96 1103.32 1023.67 1085.95 C 1039.35 1066.09 1064.45 1052.25 1089.68 1049.56 C 1103.63 1048.08 1118.31 1048.92 1132.33 1048.94 L 1203.4 1048.91 C 1287.16 1048.18 1370.93 1048.04 1454.7 1048.49 L 1639.27 1048.05 L 1693.78 1047.99 C 1705.5 1047.99 1717.64 1047.49 1729.3 1048.75 C 1747.12 1050.69 1765.88 1057.88 1779.8 1069.27 C 1802.16 1087.56 1812.18 1113.63 1814.95 1141.67 C 1815.86 1191.47 1814.98 1241.41 1814.77 1291.22 L 1001.78 1291.16 C 1003.38 1241.81 1001.93 1192.07 1002.17 1142.66 z"/>
<path transform="translate(0,0)" fill="rgb(253,253,253)" d="M 1002.17 1142.66 C 1005.19 1121.19 1009.96 1103.32 1023.67 1085.95 C 1039.35 1066.09 1064.45 1052.25 1089.68 1049.56 C 1103.63 1048.08 1118.31 1048.92 1132.33 1048.94 L 1203.4 1048.91 C 1287.16 1048.18 1370.93 1048.04 1454.7 1048.49 L 1639.27 1048.05 L 1693.78 1047.99 C 1705.5 1047.99 1717.64 1047.49 1729.3 1048.75 C 1747.12 1050.69 1765.88 1057.88 1779.8 1069.27 C 1802.16 1087.56 1812.18 1113.63 1814.95 1141.67 L 1292.78 1142.28 L 1101.06 1142.56 C 1068.12 1142.63 1035.1 1143.34 1002.17 1142.66 z"/>
<path transform="translate(0,0)" fill="rgb(251,181,45)" d="M 1073.93 1079.67 C 1081.08 1077.97 1088.58 1080.27 1093.55 1085.68 C 1098.52 1091.08 1100.18 1098.75 1097.89 1105.73 C 1095.61 1112.71 1089.73 1117.91 1082.52 1119.32 C 1071.68 1121.46 1061.12 1114.51 1058.78 1103.71 C 1056.44 1092.91 1063.17 1082.22 1073.93 1079.67 z"/>
<path transform="translate(0,0)" fill="rgb(217,83,51)" d="M 1143.44 1079.47 C 1154.16 1077.18 1164.73 1083.92 1167.18 1094.6 C 1169.62 1105.28 1163.04 1115.95 1152.39 1118.55 C 1145.37 1120.27 1137.96 1118.07 1133.01 1112.8 C 1128.06 1107.52 1126.34 1099.99 1128.5 1093.09 C 1130.66 1086.19 1136.37 1080.98 1143.44 1079.47 z"/>
<path transform="translate(0,0)" fill="rgb(41,67,107)" d="M 1209.9 1080.67 C 1216.64 1078.66 1223.93 1080.44 1228.99 1085.32 C 1234.05 1090.21 1236.09 1097.43 1234.32 1104.24 C 1232.56 1111.04 1227.27 1116.37 1220.47 1118.18 C 1210.18 1120.92 1199.59 1114.89 1196.7 1104.64 C 1193.81 1094.38 1199.69 1083.7 1209.9 1080.67 z"/>
<path transform="translate(0,0)" fill="rgb(217,83,51)" d="M 1181.52 1336.41 C 1204.39 1335.43 1225.84 1342.01 1243.92 1356.18 C 1263 1371.15 1276.54 1393.76 1279.14 1418.02 C 1281.74 1442.23 1273.89 1467.74 1258.5 1486.54 C 1243.35 1505.06 1219.87 1517.7 1196.02 1519.91 C 1165.89 1522.71 1141.26 1511.23 1118.57 1492.44 C 1118.17 1492.13 1116.22 1490.84 1115.81 1490.81 C 1107.66 1490.22 1076.86 1536.23 1060.42 1535.7 C 1055.91 1535.56 1051.76 1533.23 1048.83 1529.88 C 1045.42 1525.99 1043.55 1520.51 1044.09 1515.34 C 1044.37 1512.66 1045.31 1509.91 1046.9 1507.71 C 1054.04 1497.8 1087.45 1470 1098.43 1461.51 C 1094.9 1453.2 1092.86 1444.72 1092.08 1435.72 C 1089.92 1411.09 1097.7 1387.67 1113.74 1368.85 C 1130.83 1348.79 1155.64 1338.32 1181.52 1336.41 z"/>
<path transform="translate(0,0)" fill="rgb(253,253,253)" d="M 1177.59 1361.83 C 1201.57 1359.04 1225.19 1369.34 1239.45 1388.82 C 1253.71 1408.29 1256.39 1433.93 1246.49 1455.94 C 1236.58 1477.95 1215.6 1492.93 1191.57 1495.17 C 1155.01 1498.57 1122.51 1471.93 1118.68 1435.41 C 1114.85 1398.89 1141.12 1366.08 1177.59 1361.83 z"/>
<path transform="translate(0,0)" fill="rgb(41,67,107)" d="M 1210.11 1397.68 C 1215.64 1400.37 1222.79 1409 1227.02 1413.87 C 1210.11 1430.83 1192.55 1446.69 1176.16 1464.27 C 1170.92 1459.83 1165.03 1455.91 1159.5 1451.83 C 1153.45 1446.84 1146.95 1442.41 1140.55 1437.88 C 1146.04 1432.05 1151.59 1426.53 1157.59 1421.23 C 1162.59 1425.99 1168.19 1430.32 1173.48 1434.78 C 1186.19 1422.91 1197.57 1409.74 1210.11 1397.68 z"/>
<path transform="translate(0,0)" fill="rgb(251,181,45)" d="M 1525.51 1417.49 L 1688.43 1417.23 L 1732.42 1417.1 C 1738.03 1417.08 1745.03 1416.26 1750.46 1417.28 C 1753.3 1417.81 1754.23 1419.51 1755.83 1421.7 C 1755.78 1423.1 1756.12 1423.83 1755 1424.86 C 1752.18 1427.42 1747.46 1427.74 1743.85 1428 C 1725.87 1429.31 1706.68 1427.85 1688.58 1427.85 L 1564.5 1427.85 L 1410.16 1427.82 C 1387.97 1427.84 1365.25 1429 1343.11 1428.2 C 1338.91 1428.04 1333.91 1427.82 1330.9 1424.54 L 1331.11 1422.62 C 1334.52 1419.31 1338.57 1418.29 1343.23 1417.83 C 1349.03 1417.27 1355.17 1417.98 1361.02 1418.01 L 1397.64 1417.92 L 1525.51 1417.49 z"/>
<path transform="translate(0,0)" fill="rgb(251,181,45)" d="M 1333.51 1370.29 C 1403.7 1371.28 1473.86 1369.94 1544.05 1370.28 L 1668.13 1370.81 C 1690 1370.87 1712.06 1371.5 1733.92 1370.81 C 1739.98 1370.62 1747.55 1369.35 1752.23 1373.74 C 1752.62 1377.15 1751.96 1377.97 1750.55 1381.01 L 1479.38 1380.87 L 1386.09 1380.89 C 1372.04 1380.9 1357.83 1381.49 1343.8 1381.01 C 1340.73 1380.9 1336.13 1380.87 1333.35 1379.39 C 1330.94 1378.11 1330.81 1377.52 1330.1 1375.1 C 1330.9 1372.83 1331.74 1371.9 1333.51 1370.29 z"/>
<path transform="translate(0,0)" fill="rgb(248,247,234)" d="M 1755.8 1568.5 C 1791.59 1564.83 1823.54 1590.95 1827.05 1626.76 C 1830.57 1662.56 1804.3 1694.4 1768.48 1697.75 C 1732.88 1701.09 1701.29 1675.02 1697.8 1639.44 C 1694.31 1603.86 1720.23 1572.15 1755.8 1568.5 z"/>
<path transform="translate(0,0)" fill="rgb(251,181,45)" d="M 1636.54 1571.05 C 1644.05 1571.04 1652.63 1573.41 1659.78 1572.54 C 1659.73 1575.37 1659.77 1577.1 1658.06 1579.52 C 1651.62 1583.21 1644.78 1583.01 1637.6 1582.32 C 1634.5 1582.02 1625.77 1581.94 1624.16 1579.99 C 1625.41 1578.06 1625.19 1577.83 1627.45 1576.92 C 1633.54 1579.08 1638.54 1580.63 1645.06 1579.09 C 1646.69 1577.46 1646.98 1577.27 1647.42 1575.04 C 1644.96 1572.62 1639.96 1573.07 1636.54 1571.05 z"/>
<path transform="translate(0,0)" fill="rgb(148,66,99)" d="M 625.52 1055.46 C 651.254 1070.2 665.849 1084.13 674.04 1113.68 C 678.148 1128.49 678.734 1146.15 670.806 1159.86 C 666.728 1166.91 659.871 1172.55 652.105 1175 C 646.116 1177.31 639.844 1176.37 633.625 1175.72 C 634.641 1180.22 635.444 1185.42 637.384 1189.6 C 641.179 1197.78 649.469 1202.73 655.122 1209.45 C 659.106 1214.19 661.865 1219.55 664.488 1225.11 C 679.076 1256.03 692.551 1287.73 706.548 1318.94 C 712.969 1333.26 718.762 1351.94 728.442 1364.07 C 740.513 1360.18 764.586 1360.33 778.17 1359.1 C 811.921 1356.05 846.142 1352.87 879.705 1348.2 C 867.502 1372.11 856.771 1396.71 845.508 1421.06 C 835.7 1442.27 825.304 1463.2 815.673 1484.49 C 806.459 1485.22 782.875 1485.27 775.387 1489.22 C 775.244 1490.48 775.067 1491.34 775.393 1492.58 C 774.986 1493.31 774.587 1494.09 774.04 1494.73 C 772.288 1496.76 771.553 1497.18 769.059 1497.6 C 766.459 1495.99 766.164 1494.94 764.764 1492.29 L 764.745 1490.02 C 760.575 1487.8 742.804 1490.87 737.618 1491.22 C 721.635 1492.27 705.505 1494.05 689.513 1494.4 C 677.292 1494.66 661.621 1491.19 649.882 1494.44 C 649.029 1497.12 648.295 1500 645.721 1501.57 C 643.165 1503.14 642.466 1503 639.837 1502.17 C 637.984 1499.05 638.459 1497.72 638.633 1494.16 L 631.269 1494.13 C 632.076 1497.02 633.716 1499.25 635.357 1501.71 C 630.8 1537.74 600.826 1858.06 597.541 1863.3 C 594.594 1864.14 591.818 1863.78 588.813 1863.55 L 575.315 1863.6 C 574.813 1868.7 573.768 1874.45 574.286 1879.55 C 570.571 1885.51 565.183 1888.48 558.396 1890.01 C 548.435 1892.25 535.328 1891.07 526.594 1885.48 C 524.788 1896.82 522.82 1908.28 522.8 1919.79 C 518.329 1922.54 416.06 1921.01 402.918 1920.4 C 403.444 1909.93 399.583 1903.19 392.738 1895.55 C 385.839 1887.86 373.602 1876.26 362.95 1875.74 C 360.465 1875.62 358.722 1875.58 356.376 1874.63 C 359.074 1873.43 361.897 1873.71 364.786 1873.73 C 364.12 1871.85 364.548 1872.18 363.353 1871.15 C 360.836 1868.97 360.118 1868.17 359.069 1864.95 L 361.825 1861.49 C 363.741 1857.69 364.653 1853.19 365.81 1849.1 C 352.151 1843.81 339.13 1838.09 326.391 1830.8 C 319.187 1826.84 311.245 1823.05 303.392 1820.58 L 302.188 1818.78 C 302.242 1812 352.959 1721.48 360.914 1706.78 C 376.4 1677.89 392.229 1649.18 408.398 1620.67 C 418.666 1602.8 431.249 1584.75 439.382 1565.9 C 446.173 1550.16 448.543 1531.09 453.16 1514.47 C 467.151 1464.11 485.739 1418.02 517.024 1375.75 C 509.642 1354.87 510.816 1328.13 509.455 1306.12 C 508.084 1283.93 506.262 1261.64 505.467 1239.43 C 504.995 1226.24 506.037 1215.19 515.728 1205.18 C 523.236 1197.43 532.262 1194.04 542.84 1193.66 C 542.808 1193.53 542.805 1193.39 542.743 1193.27 C 542.281 1192.41 541.72 1191.6 541.25 1190.74 C 536.121 1181.33 538.377 1173.24 541.16 1163.63 C 529.546 1141.45 531.279 1126.89 543.821 1105.68 C 547.289 1099.81 550.425 1094.92 551.6 1088.05 C 551.669 1087.64 551.727 1087.24 551.79 1086.84 C 552.082 1085.99 552.683 1084.45 553.434 1083.87 C 556.874 1081.25 603.814 1067.81 613.219 1063.48 C 617.191 1061.65 620.099 1058.18 623.994 1056.21 C 624.499 1055.95 625.011 1055.71 625.52 1055.46 z"/>
<path transform="translate(0,0)" fill="rgb(0,0,0)" d="M 625.52 1055.46 C 651.254 1070.2 665.849 1084.13 674.04 1113.68 C 678.148 1128.49 678.734 1146.15 670.806 1159.86 C 666.728 1166.91 659.871 1172.55 652.105 1175 C 646.116 1177.31 639.844 1176.37 633.625 1175.72 C 634.641 1180.22 635.444 1185.42 637.384 1189.6 C 641.179 1197.78 649.469 1202.73 655.122 1209.45 C 659.106 1214.19 661.865 1219.55 664.488 1225.11 C 679.076 1256.03 692.551 1287.73 706.548 1318.94 C 712.969 1333.26 718.762 1351.94 728.442 1364.07 C 740.513 1360.18 764.586 1360.33 778.17 1359.1 C 811.921 1356.05 846.142 1352.87 879.705 1348.2 C 867.502 1372.11 856.771 1396.71 845.508 1421.06 C 835.7 1442.27 825.304 1463.2 815.673 1484.49 C 806.459 1485.22 782.875 1485.27 775.387 1489.22 C 775.244 1490.48 775.067 1491.34 775.393 1492.58 C 774.986 1493.31 774.587 1494.09 774.04 1494.73 C 772.288 1496.76 771.553 1497.18 769.059 1497.6 C 766.459 1495.99 766.164 1494.94 764.764 1492.29 L 764.745 1490.02 C 760.575 1487.8 742.804 1490.87 737.618 1491.22 C 721.635 1492.27 705.505 1494.05 689.513 1494.4 C 677.292 1494.66 661.621 1491.19 649.882 1494.44 C 649.029 1497.12 648.295 1500 645.721 1501.57 C 643.165 1503.14 642.466 1503 639.837 1502.17 C 637.984 1499.05 638.459 1497.72 638.633 1494.16 L 631.269 1494.13 C 612.814 1493.04 585.902 1497.3 569.026 1491.98 C 564.228 1499.58 559.958 1506.36 553.103 1512.32 C 557.749 1499.24 567.61 1486.48 574.779 1474.54 C 581.907 1462.56 588.026 1450.02 593.072 1437.03 C 568.314 1418.21 541.339 1400.32 518.536 1379.24 C 489.558 1421.46 471.547 1461.99 457.699 1511.24 C 452.607 1529.34 449.655 1549.11 442.708 1566.53 C 438.173 1577.89 430.995 1588.81 424.892 1599.42 C 413.882 1618.35 403.042 1637.37 392.375 1656.5 L 323.832 1783.86 C 319.161 1792.47 309.057 1814.64 303.392 1820.58 L 302.188 1818.78 C 302.242 1812 352.959 1721.48 360.914 1706.78 C 376.4 1677.89 392.229 1649.18 408.398 1620.67 C 418.666 1602.8 431.249 1584.75 439.382 1565.9 C 446.173 1550.16 448.543 1531.09 453.16 1514.47 C 467.151 1464.11 485.739 1418.02 517.024 1375.75 C 509.642 1354.87 510.816 1328.13 509.455 1306.12 C 508.084 1283.93 506.262 1261.64 505.467 1239.43 C 504.995 1226.24 506.037 1215.19 515.728 1205.18 C 523.236 1197.43 532.262 1194.04 542.84 1193.66 C 542.808 1193.53 542.805 1193.39 542.743 1193.27 C 542.281 1192.41 541.72 1191.6 541.25 1190.74 C 536.121 1181.33 538.377 1173.24 541.16 1163.63 C 529.546 1141.45 531.279 1126.89 543.821 1105.68 C 547.289 1099.81 550.425 1094.92 551.6 1088.05 C 551.669 1087.64 551.727 1087.24 551.79 1086.84 C 552.082 1085.99 552.683 1084.45 553.434 1083.87 C 556.874 1081.25 603.814 1067.81 613.219 1063.48 C 617.191 1061.65 620.099 1058.18 623.994 1056.21 C 624.499 1055.95 625.011 1055.71 625.52 1055.46 z"/>
<path transform="translate(0,0)" fill="rgb(41,67,107)" d="M 728.442 1364.07 C 740.513 1360.18 764.586 1360.33 778.17 1359.1 C 811.921 1356.05 846.142 1352.87 879.705 1348.2 C 867.502 1372.11 856.771 1396.71 845.508 1421.06 C 835.7 1442.27 825.304 1463.2 815.673 1484.49 C 806.459 1485.22 782.875 1485.27 775.387 1489.22 C 775.244 1490.48 775.067 1491.34 775.393 1492.58 C 774.986 1493.31 774.587 1494.09 774.04 1494.73 C 772.288 1496.76 771.553 1497.18 769.059 1497.6 C 766.459 1495.99 766.164 1494.94 764.764 1492.29 L 764.745 1490.02 C 760.575 1487.8 742.804 1490.87 737.618 1491.22 C 721.635 1492.27 705.505 1494.05 689.513 1494.4 C 677.292 1494.66 661.621 1491.19 649.882 1494.44 C 649.029 1497.12 648.295 1500 645.721 1501.57 C 643.165 1503.14 642.466 1503 639.837 1502.17 C 637.984 1499.05 638.459 1497.72 638.633 1494.16 L 631.269 1494.13 C 612.814 1493.04 585.902 1497.3 569.026 1491.98 C 570.619 1489.2 572.386 1486.67 574.285 1484.08 C 585.249 1483.6 596.224 1481.88 607.238 1481.38 C 621.618 1480.73 636.797 1481.72 650.995 1479.62 L 653.113 1479.18 C 651.068 1477.25 649.357 1475.82 648.39 1473.09 C 658.925 1462.78 671.135 1452.41 678.624 1439.61 C 681.618 1439.89 682.223 1439.54 684.991 1438.27 C 689.219 1437.28 693.306 1440.47 697.179 1442.35 C 699 1438.81 701.601 1434.7 702.631 1430.87 C 704.033 1425.65 702.276 1423.45 699.757 1419.02 C 701.416 1419.09 702.975 1419.14 704.632 1418.97 C 710.805 1418.32 722.677 1379.31 728.426 1372.24 C 728.795 1371.65 729.285 1370.91 729.509 1370.26 C 730.455 1367.5 729.604 1366.58 728.442 1364.07 z"/>
<path transform="translate(0,0)" fill="rgb(217,83,51)" d="M 684.991 1438.27 C 687.341 1443.01 690.993 1444.09 695.634 1445.9 C 690.383 1455.37 682.965 1466.69 680.975 1477.4 C 673.73 1477.23 659.744 1475.26 653.851 1479.29 L 653.113 1479.18 C 651.068 1477.25 649.357 1475.82 648.39 1473.09 C 658.925 1462.78 671.135 1452.41 678.624 1439.61 C 681.618 1439.89 682.223 1439.54 684.991 1438.27 z"/>
<path transform="translate(0,0)" fill="rgb(253,253,253)" d="M 653.851 1479.29 C 659.744 1475.26 673.73 1477.23 680.975 1477.4 C 680.297 1478.93 679.758 1481.34 678.187 1482.03 C 673.229 1484.21 662.297 1484.29 657.354 1481.95 C 655.876 1481.25 654.954 1480.46 653.851 1479.29 z"/>
<path transform="translate(0,0)" fill="rgb(17,28,52)" d="M 638.633 1494.16 C 642.364 1494.32 646.151 1494.63 649.882 1494.44 C 649.029 1497.12 648.295 1500 645.721 1501.57 C 643.165 1503.14 642.466 1503 639.837 1502.17 C 637.984 1499.05 638.459 1497.72 638.633 1494.16 z"/>
<path transform="translate(0,0)" fill="rgb(17,28,52)" d="M 764.764 1492.29 C 767.01 1490 767.373 1489.88 770.511 1489.17 C 773.523 1490.07 773.626 1490.01 775.393 1492.58 C 774.986 1493.31 774.587 1494.09 774.04 1494.73 C 772.288 1496.76 771.553 1497.18 769.059 1497.6 C 766.459 1495.99 766.164 1494.94 764.764 1492.29 z"/>
<path transform="translate(0,0)" fill="rgb(17,28,52)" d="M 625.52 1055.46 C 651.254 1070.2 665.849 1084.13 674.04 1113.68 C 678.148 1128.49 678.734 1146.15 670.806 1159.86 C 666.728 1166.91 659.871 1172.55 652.105 1175 C 646.116 1177.31 639.844 1176.37 633.625 1175.72 C 634.641 1180.22 635.444 1185.42 637.384 1189.6 C 641.179 1197.78 649.469 1202.73 655.122 1209.45 C 659.106 1214.19 661.865 1219.55 664.488 1225.11 C 679.076 1256.03 692.551 1287.73 706.548 1318.94 C 712.969 1333.26 718.762 1351.94 728.442 1364.07 C 729.604 1366.58 730.455 1367.5 729.509 1370.26 C 729.285 1370.91 728.795 1371.65 728.426 1372.24 C 718.94 1360.48 713.496 1343.75 707.478 1329.92 C 698.291 1308.79 688.46 1287.97 679.141 1266.9 C 672.183 1251.17 665.86 1234.3 657.351 1219.36 C 654.808 1214.89 651.617 1210.33 647.779 1206.89 C 644.109 1203.61 640.374 1201.76 635.434 1201.97 C 633.867 1202.97 632.482 1203.65 631.306 1205.09 C 632.962 1209.3 634.915 1213.34 634.363 1217.98 C 634.007 1220.96 632.807 1223.88 630.181 1225.58 C 624.412 1229.32 614.698 1227.65 608.62 1225.69 C 593.454 1220.79 581.703 1210.13 574.556 1196.06 L 569.741 1195.93 C 564.415 1196.07 559.035 1196.06 553.723 1196.44 C 550.421 1194.92 546.39 1194.42 542.84 1193.66 C 542.808 1193.53 542.805 1193.39 542.743 1193.27 C 542.281 1192.41 541.72 1191.6 541.25 1190.74 C 536.121 1181.33 538.377 1173.24 541.16 1163.63 C 529.546 1141.45 531.279 1126.89 543.821 1105.68 C 547.289 1099.81 550.425 1094.92 551.6 1088.05 C 551.669 1087.64 551.727 1087.24 551.79 1086.84 C 552.082 1085.99 552.683 1084.45 553.434 1083.87 C 556.874 1081.25 603.814 1067.81 613.219 1063.48 C 617.191 1061.65 620.099 1058.18 623.994 1056.21 C 624.499 1055.95 625.011 1055.71 625.52 1055.46 z"/>
<path transform="translate(0,0)" fill="rgb(243,113,102)" d="M 597.862 1120.4 C 603.44 1118.25 608.682 1115.73 613.197 1111.73 C 618.274 1107.23 626.566 1092.98 632.724 1091.79 C 637.469 1090.88 646.51 1096.49 649.675 1099.79 C 655.11 1105.46 653.531 1116.45 653.507 1123.8 C 657.242 1129.93 660.979 1135.68 663.391 1142.49 C 660.133 1155.21 655.327 1160.36 644.898 1167.77 C 636.551 1170.57 630.364 1172.6 621.514 1171.23 L 619.972 1171 C 619.663 1170.95 619.356 1170.89 619.049 1170.84 C 618.334 1177.83 615.303 1191.12 617.588 1197.33 C 620.391 1199.84 623.942 1200.46 627.381 1201.69 C 629.3 1202.38 630.063 1203.56 631.306 1205.09 C 632.962 1209.3 634.915 1213.34 634.363 1217.98 C 634.007 1220.96 632.807 1223.88 630.181 1225.58 C 624.412 1229.32 614.698 1227.65 608.62 1225.69 C 593.454 1220.79 581.703 1210.13 574.556 1196.06 C 579.057 1196.12 583.313 1195.27 587.724 1194.49 C 588.094 1178.59 587.533 1162.72 587.026 1146.83 C 580.868 1144.68 575.106 1141.73 571.9 1135.73 C 570.054 1132.27 569.409 1128.27 570.832 1124.54 C 572.18 1121 574.99 1118.54 578.485 1117.24 C 585.626 1114.57 591.482 1117.24 597.862 1120.4 z"/>
<path transform="translate(0,0)" fill="rgb(217,83,51)" d="M 634.264 1119.19 L 637.199 1119.6 C 638.325 1120.74 639.247 1121.69 640.673 1122.46 C 640.977 1122.62 641.296 1122.75 641.608 1122.9 C 643.438 1127.25 643.984 1129.95 642.373 1134.51 C 640.652 1139.38 638.23 1140.92 633.836 1143.15 C 631.572 1143.01 629.564 1142.91 627.461 1141.99 C 624.189 1140.55 621.482 1137.97 620.536 1134.44 C 619.593 1130.92 620.719 1127.09 622.904 1124.27 C 625.991 1120.28 629.565 1119.88 634.264 1119.19 z"/>
<path transform="translate(0,0)" fill="rgb(251,181,45)" d="M 644.877 1470.57 C 618.667 1449.74 591.145 1430.46 564.293 1410.46 C 552.356 1401.57 539.416 1392.9 528.54 1382.72 C 523.898 1378.38 519.9 1373.73 518.103 1367.54 C 513.422 1351.43 514.424 1328.64 513.399 1311.59 C 511.925 1287.02 509.627 1262.27 509.079 1237.67 C 508.82 1226.04 511.36 1215.13 519.848 1206.65 C 525.547 1200.97 534.766 1196.5 542.941 1196.75 C 547.551 1196.89 551.577 1199.56 554.654 1202.84 C 558.494 1206.93 560.361 1211.53 561.534 1216.95 C 565.64 1235.91 565.312 1257.9 566.748 1277.33 C 568.39 1299.53 572.259 1325.77 571.145 1347.76 L 571.068 1349.11 C 584.85 1359.35 657.553 1419.23 667.846 1421.06 C 669.445 1426.54 672.521 1433.3 676.951 1437.08 C 675.248 1438.68 675.845 1437.97 674.539 1439.72 C 665.945 1451.21 655.341 1460.81 644.877 1470.57 z"/>
<path transform="translate(0,0)" fill="rgb(251,181,45)" d="M 553.723 1196.44 C 559.035 1196.06 564.415 1196.07 569.741 1195.93 C 578.583 1211.88 590.364 1225.01 608.466 1230.22 C 616.03 1232.39 624.639 1232.58 631.588 1228.41 C 633.534 1227.24 635.251 1225.7 636.936 1224.19 C 645.095 1246.42 663.056 1285.39 664.552 1307.67 C 665.132 1316.31 663.333 1324.53 659.751 1332.36 C 647.923 1358.24 639.278 1367.77 639.933 1397.75 C 618.378 1380.9 596.232 1364.5 575.159 1347.07 L 569.148 1258.76 C 568.075 1244.06 568.21 1227.48 564.562 1213.17 C 563.057 1207.27 559.515 1201.58 554.976 1197.52 C 554.565 1197.16 554.141 1196.8 553.723 1196.44 z"/>
<path transform="translate(0,0)" fill="rgb(251,181,45)" d="M 635.434 1201.97 C 640.374 1201.76 644.109 1203.61 647.779 1206.89 C 651.617 1210.33 654.808 1214.89 657.351 1219.36 C 665.86 1234.3 672.183 1251.17 679.141 1266.9 C 688.46 1287.97 698.291 1308.79 707.478 1329.92 C 713.496 1343.75 718.94 1360.48 728.426 1372.24 C 722.677 1379.31 710.805 1418.32 704.632 1418.97 C 702.975 1419.14 701.416 1419.09 699.757 1419.02 C 699.121 1414.81 694.184 1411.44 690.93 1408.94 C 688.177 1401.17 683.48 1393.3 679.891 1385.82 C 672.849 1371.15 665.906 1356.43 659.062 1341.66 C 660.285 1339.66 661.447 1337.62 662.548 1335.56 C 680.035 1302.02 649.652 1253.45 639.066 1220.92 C 641.819 1213.91 637.882 1208.63 635.434 1201.97 z"/>
<path transform="translate(0,0)" fill="rgb(253,253,253)" d="M 657.181 1346.16 C 666.867 1364.58 673.974 1384.42 684.293 1402.51 C 686.133 1405.73 687.219 1407.95 690.93 1408.94 C 694.184 1411.44 699.121 1414.81 699.757 1419.02 C 702.276 1423.45 704.033 1425.65 702.631 1430.87 C 701.601 1434.7 699 1438.81 697.179 1442.35 C 693.306 1440.47 689.219 1437.28 684.991 1438.27 C 682.223 1439.54 681.618 1439.89 678.624 1439.61 L 676.951 1437.08 C 672.521 1433.3 669.445 1426.54 667.846 1421.06 C 663.565 1413.27 651.519 1406.63 644.499 1401 C 641.129 1376.12 647.34 1367.67 657.181 1346.16 z"/>
<path transform="translate(0,0)" fill="rgb(148,66,99)" d="M 597.066 1439.83 C 615.159 1452.88 632.646 1466.97 650.995 1479.62 C 636.797 1481.72 621.618 1480.73 607.238 1481.38 C 596.224 1481.88 585.249 1483.6 574.285 1484.08 C 582.778 1469.75 589.964 1454.89 597.066 1439.83 z"/>
<path transform="translate(0,0)" fill="rgb(248,247,234)" d="M 382.263 1855.5 C 397.828 1828.6 411.556 1800.58 425.858 1773 C 451.644 1723.52 477.129 1673.89 502.311 1624.11 L 527.023 1575.65 C 531.443 1566.83 535.361 1557.42 540.442 1548.99 C 537.369 1591.55 530.229 1634.34 524.986 1676.74 L 502.794 1863.1 L 528.764 1863.31 C 528.193 1870.71 527.761 1878.15 526.594 1885.48 C 524.788 1896.82 522.82 1908.28 522.8 1919.79 C 518.329 1922.54 416.06 1921.01 402.918 1920.4 C 403.444 1909.93 399.583 1903.19 392.738 1895.55 C 385.839 1887.86 373.602 1876.26 362.95 1875.74 C 360.465 1875.62 358.722 1875.58 356.376 1874.63 C 359.074 1873.43 361.897 1873.71 364.786 1873.73 C 364.12 1871.85 364.548 1872.18 363.353 1871.15 C 360.836 1868.97 360.118 1868.17 359.069 1864.95 L 361.825 1861.49 C 363.741 1857.69 364.653 1853.19 365.81 1849.1 C 371.291 1851.23 376.759 1853.42 382.263 1855.5 z"/>
<path transform="translate(0,0)" fill="rgb(243,113,102)" d="M 528.764 1863.31 C 541.222 1863.49 578.863 1861.52 588.813 1863.55 L 575.315 1863.6 C 574.813 1868.7 573.768 1874.45 574.286 1879.55 C 570.571 1885.51 565.183 1888.48 558.396 1890.01 C 548.435 1892.25 535.328 1891.07 526.594 1885.48 C 527.761 1878.15 528.193 1870.71 528.764 1863.31 z"/>
<path transform="translate(0,0)" fill="rgb(41,67,107)" d="M 326.391 1830.8 C 339.13 1838.09 352.151 1843.81 365.81 1849.1 C 364.653 1853.19 363.741 1857.69 361.825 1861.49 L 359.069 1864.95 C 360.118 1868.17 360.836 1868.97 363.353 1871.15 C 364.548 1872.18 364.12 1871.85 364.786 1873.73 C 361.897 1873.71 359.074 1873.43 356.376 1874.63 C 358.722 1875.58 360.465 1875.62 362.95 1875.74 C 373.602 1876.26 385.839 1887.86 392.738 1895.55 C 399.583 1903.19 403.444 1909.93 402.918 1920.4 C 416.06 1921.01 518.329 1922.54 522.8 1919.79 C 522.82 1908.28 524.788 1896.82 526.594 1885.48 C 535.328 1891.07 548.435 1892.25 558.396 1890.01 C 565.183 1888.48 570.571 1885.51 574.286 1879.55 C 588.287 1885.35 626.221 1894.64 632.014 1908.65 C 633.366 1911.92 633.583 1915.93 633.774 1919.44 C 702.315 1920.9 771.468 1920.7 840.02 1919.69 C 847.747 1919.72 855.52 1919.93 863.242 1919.67 L 888.94 1919.61 C 937.092 1920.7 985.304 1919.07 1033.45 1919.88 L 1056.98 1919.85 L 1079.98 1919.99 L 1631.35 1919.94 L 1796.11 1919.94 L 1838.33 1919.9 C 1846.01 1919.82 1854.58 1918.92 1862.16 1920.01 C 1867.86 1920.83 1873.43 1923.58 1876.68 1928.46 C 1879.42 1932.55 1880.2 1937.26 1879.25 1942.06 C 1877.85 1949.19 1873.61 1952.87 1867.9 1956.87 C 1845.03 1957.98 1821.8 1957.19 1798.88 1957.16 L 1678.68 1957.05 L 1305.32 1957.07 L 178.265 1956.89 C 176.606 1955.79 174.928 1954.61 173.409 1953.31 C 169.22 1949.75 166.84 1944.39 166.497 1938.95 C 166.207 1934.36 167.74 1929.95 170.994 1926.66 C 173.993 1923.63 178.345 1921.52 182.56 1920.96 C 200.261 1918.59 220.375 1920.25 238.341 1920.22 C 280.489 1920.15 322.655 1920.64 364.799 1920.21 C 354.331 1913.18 293.273 1875.88 291.333 1872.02 L 292.207 1869.65 C 300.557 1860.74 307.194 1849.17 317.54 1842.4 C 320.834 1840.35 324.092 1834.06 326.391 1830.8 z"/>
<path transform="translate(0,0)" fill="rgb(251,181,45)" d="M 326.391 1830.8 C 339.13 1838.09 352.151 1843.81 365.81 1849.1 C 364.653 1853.19 363.741 1857.69 361.825 1861.49 L 359.069 1864.95 C 360.118 1868.17 360.836 1868.97 363.353 1871.15 C 364.548 1872.18 364.12 1871.85 364.786 1873.73 C 361.897 1873.71 359.074 1873.43 356.376 1874.63 C 358.722 1875.58 360.465 1875.62 362.95 1875.74 C 373.602 1876.26 385.839 1887.86 392.738 1895.55 C 399.583 1903.19 403.444 1909.93 402.918 1920.4 C 393.429 1919.89 383.619 1919.96 374.149 1920.65 C 345.769 1905.9 321.082 1883.54 292.207 1869.65 C 300.557 1860.74 307.194 1849.17 317.54 1842.4 C 320.834 1840.35 324.092 1834.06 326.391 1830.8 z"/>
<path transform="translate(0,0)" fill="rgb(243,113,102)" d="M 326.391 1830.8 C 339.13 1838.09 352.151 1843.81 365.81 1849.1 C 364.653 1853.19 363.741 1857.69 361.825 1861.49 C 354.636 1858.06 344.885 1861.19 336.995 1857.81 C 329.416 1854.57 325.672 1846.23 318.844 1842.98 C 318.414 1842.77 317.975 1842.59 317.54 1842.4 C 320.834 1840.35 324.092 1834.06 326.391 1830.8 z"/>
<path transform="translate(0,0)" fill="rgb(0,0,0)" d="M 317.54 1842.4 C 317.975 1842.59 318.414 1842.77 318.844 1842.98 C 325.672 1846.23 329.416 1854.57 336.995 1857.81 C 344.885 1861.19 354.636 1858.06 361.825 1861.49 L 359.069 1864.95 C 348.521 1865.07 338.583 1863.41 329.515 1857.58 C 324.261 1854.21 318.843 1848.67 317.54 1842.4 z"/>
<path transform="translate(0,0)" fill="rgb(251,181,45)" d="M 574.286 1879.55 C 588.287 1885.35 626.221 1894.64 632.014 1908.65 C 633.366 1911.92 633.583 1915.93 633.774 1919.44 C 621.292 1917.71 534.274 1918.01 522.8 1919.79 C 522.82 1908.28 524.788 1896.82 526.594 1885.48 C 535.328 1891.07 548.435 1892.25 558.396 1890.01 C 565.183 1888.48 570.571 1885.51 574.286 1879.55 z"/>
<path transform="translate(0,0)" fill="rgb(251,181,45)" d="M 894.39 1692.35 L 930.086 1681.34 C 935.439 1691.41 939.902 1701.86 945.149 1711.95 C 953.616 1711.39 962.454 1710.6 970.904 1711.78 C 975.591 1701.57 980.088 1691.22 985.17 1681.2 C 997.206 1684.75 1009.33 1688.01 1021.52 1690.97 C 1019.3 1702.83 1016.79 1714.71 1015.23 1726.68 C 1022.81 1730.37 1028.94 1734.08 1035.06 1740.01 C 1044.29 1734.19 1053.65 1728.52 1062.65 1722.36 C 1071.23 1732.33 1080.1 1742.16 1088.4 1752.36 C 1080.77 1760.39 1072.01 1768.3 1065.51 1777.26 C 1068.88 1784.33 1071.01 1792.14 1073.17 1799.66 C 1084.58 1800.11 1095.86 1801.17 1107.22 1802.31 C 1108.11 1815.68 1108.36 1829.07 1108.73 1842.45 C 1098.12 1843.42 1087.28 1844.84 1076.65 1845.13 C 1074.21 1853.65 1071.92 1862.09 1068.21 1870.17 C 1076.9 1877.92 1085.6 1885.64 1093.89 1893.84 C 1089.4 1902.68 1083.61 1910.72 1079.98 1919.99 L 1056.98 1919.85 L 1033.45 1919.88 C 985.304 1919.07 937.092 1920.7 888.94 1919.61 L 863.242 1919.67 C 855.52 1919.93 847.747 1919.72 840.02 1919.69 C 835.833 1910.81 830.322 1902.63 825.055 1894.37 C 833.524 1886.57 842.378 1878.95 850.246 1870.54 C 847.49 1862.91 845.053 1855.43 843.241 1847.51 C 832.638 1845.01 821.841 1844.25 811.038 1843.06 C 811.205 1829.8 811.278 1816.54 811.26 1803.29 C 822.335 1803.24 833.4 1802.61 844.408 1801.38 C 847.234 1793.59 849.818 1785.71 852.158 1777.76 C 844.995 1769.78 837.612 1762.13 830.025 1754.56 C 836.931 1744.19 843.903 1733.71 851.291 1723.68 C 860.931 1728.75 869.932 1735.05 879.025 1741.03 C 886.277 1735.82 893.71 1730.56 901.89 1726.88 C 899.322 1715.54 896.001 1703.84 894.39 1692.35 z"/>
<path transform="translate(0,0)" fill="rgb(253,253,253)" d="M 863.242 1919.67 C 865.046 1914.6 872.269 1911.89 876.851 1909.72 C 877.557 1909.38 878.271 1909.06 878.993 1908.75 C 882.337 1912.3 885.938 1915.77 888.94 1919.61 L 863.242 1919.67 z"/>
<path transform="translate(0,0)" fill="rgb(253,253,253)" d="M 1033.45 1919.88 C 1036.53 1916.63 1039.82 1913.45 1042.56 1909.92 C 1047.61 1913.01 1052.45 1916.02 1056.98 1919.85 L 1033.45 1919.88 z"/>
<path transform="translate(0,0)" fill="rgb(248,247,234)" d="M 954.062 1763.33 C 990.45 1760.41 1022.37 1787.42 1025.49 1823.79 C 1028.62 1860.17 1001.79 1892.23 965.432 1895.57 C 928.786 1898.93 896.402 1871.83 893.249 1835.17 C 890.096 1798.5 917.379 1766.27 954.062 1763.33 z"/>
<path transform="translate(0,0)" fill="rgb(41,67,107)" d="M 562.625 993.572 C 598.539 988.574 634.577 984.413 670.535 979.74 C 659.287 996.149 649.632 1014 639.797 1031.3 C 635.246 1039.31 630.99 1048.08 625.52 1055.46 C 625.011 1055.71 624.499 1055.95 623.994 1056.21 C 620.099 1058.18 617.191 1061.65 613.219 1063.48 C 603.814 1067.81 556.874 1081.25 553.434 1083.87 C 552.683 1084.45 552.082 1085.99 551.79 1086.84 L 550.331 1085.68 C 530.735 1090.69 511.232 1096.72 491.424 1100.8 C 497.929 1090.99 505.148 1081.62 511.719 1071.84 C 528.919 1045.9 545.889 1019.81 562.625 993.572 z"/>
</svg>