<svg xmlns="http://www.w3.org/2000/svg" display="block" viewBox="0 0 2048 2048"><path fill="#f8f7ea" d="M0 0h2048v2048H0z"/><path fill="#fdfdfd" d="M177.623 241.912c75.102-1.01 150.326-.092 225.438-.076l467.176.361 530.863.641c78.74.018 157.62-1.573 236.33-.746 23.76 22.724 41.26 57.838 71.81 72.39 3.68-.403 7.66-.686 11.17-1.903 18.28-6.341 36.97-27.938 48.73-42.459 6.68-8.24 12.65-19.121 19.95-26.485q39.615.395 79.23.23l-.38 36.97c-4.8 2.368-8.77 4.613-14.22 4.754-9.46.244-18.99.971-25.8 8.367-5.59 6.053-7.76 16.201-7.31 24.219.25 4.454 1.38 8.785 4.99 11.691 3.45 2.777 8.13 3.016 12.28 2.092a22.22 22.22 0 0 0 14.52-10.451c5.26-8.815 6-31.289 7.57-32.654 1.52-1.316 5.46-2.55 7.35-3.375 3.32 19.386 1.96 40.68 2.12 60.323l.41 109.63-.05 384.854c-19.94.782-40.12.059-60.1.052l-112.01.092-367.98-.203-1152.421.595-.312-368.207c.005-76.838-1.071-153.902.646-230.702"/><path fill="#d95333" d="M337.005 352.534c.107.029.232.018.319.085 5.78 4.515 29.521 85.846 33.438 99.007 11.872-32.752 22.837-65.809 34.229-98.73l30.655.028c7.282 49.157 17.607 97.928 23.756 147.202l-32.185.014c-2.5-11.883-3.625-24.266-5.446-36.298-2.488-16.439-5.549-32.94-7.192-49.483l-1.31-2.224c-2.98 3.726-25.8 76.982-29.261 87.538l-24.572.357a2201 2201 0 0 1-30.47-90.144c-4.187 30.09-8.704 59.971-13.884 89.907l-30.518-.031c4.192-15.701 5.916-32.755 8.462-48.808 5.183-32.695 9.961-65.53 16.115-98.058 9.289.136 18.581.016 27.864-.362"/><path fill="#29436b" d="M867.97 585.952c28.858-.322 63.053-4.802 86.601 15.631 12.793 11.101 18.797 27.253 20.032 43.799 1.59 21.292-3.362 41.07-17.42 57.317-24.578 23.661-57.571 18.417-88.997 18.281q.241-67.514-.216-135.028"/><path fill="#fdfdfd" d="M896.525 609.554c13.388.147 26.122 1.498 36.661 10.776 8.78 7.729 13.157 19.058 13.639 30.589.544 13.015-3.171 25.257-12.025 34.91-11.482 8.938-24.34 9.303-38.217 10.001-1.104-28.61-.122-57.618-.058-86.276"/><path fill="#d95333" d="M740.087 581.213c13.52-1.193 26.902-1.182 38.984 6.015 12.351 7.357 19.543 19.693 22.875 33.371 5.499 22.579 5.95 60.006-7.167 80.257-7.534 11.631-17.855 17.577-31.031 20.68-13.436 2.414-26.676 1.945-38.723-5.176-13.177-7.789-20.471-21.605-24.335-35.949-6.143-22.799-5.551-56.046 6.833-76.801 7.734-12.963 18.313-19.019 32.564-22.397"/><path fill="#fdfdfd" d="M745.988 607.217c3.784-.212 7.711-.537 11.331.802 6.425 2.378 10.885 8.229 13.287 14.446 6.171 15.97 5.827 46.085-1.636 61.456-3.02 6.22-6.727 8.863-13.121 11.107-3.395.226-6.856.451-10.134-.66-5.383-1.824-9.657-6.652-12.165-11.603-7.451-14.705-7.315-42.168-2.251-57.688 2.837-8.697 6.561-13.694 14.689-17.86"/><path fill="#d95333" d="M942.592 353.841c22.405.106 56.335-4.325 76.398 5.494 9.65 4.72 17.35 12.382 20.79 22.696 3.75 11.257 2.98 25.014-2.72 35.498-6.92 12.738-18.41 18.292-31.58 22.385 20.13 17.365 36.92 40.15 54.19 60.4l-22.26.054-18.21.001-45.725-58.777c-.915 19.454-.366 39.14-.417 58.623l-31.209-.175z"/><path fill="#fdfdfd" d="M973.749 381.041c9.65-.171 20.216-.899 28.501 5.024 3.28 2.341 6.03 5.754 6.61 9.842.92 6.413-2.5 13.332-6.25 18.256-9.043 6.025-18.367 5.749-28.814 5.797a1613 1613 0 0 1-.047-38.919"/><path fill="#d95333" d="m520.805 352.818 27.831.068a7799 7799 0 0 1 59.53 147.603c-11.797-.194-23.618-.055-35.418-.052a1230 1230 0 0 1-10.774-30.586l-14.224-.029-40.077.052a1070 1070 0 0 0-11.659 30.481c-11.1-.613-22.338-.317-33.458-.362 18.459-49.427 40.072-97.6 58.249-147.175"/><path fill="#fdfdfd" d="M534.587 393.79c5.435 5.426 14.637 40.135 17.747 49.869l-16.529.237-19.2.034c6.492-16.536 11.337-33.657 17.982-50.14"/><path fill="#29436b" d="M391.67 586.102c9.418-.235 18.873-.107 28.296-.149 20.769 29.08 40.484 58.999 60.917 88.328l-.547-88.304 28.022.104c.15 44.032-.962 88.159.491 132.168l-.136 1.517c-5.149 3.773-23.101 1.411-29.849 1.246-7.468-9.767-14.005-20.623-20.951-30.798l-37.135-53.826q.101 42.241-.438 84.479l-28.302-.032c-.279-44.798-1.784-89.976-.368-134.733"/><path fill="#d95333" d="M1127.25 353.997c23.55.196 65.12-5.433 83.51 11.319 9.34 8.508 14.59 21.229 15.04 33.759.41 11.281-2.96 22.9-11.12 30.98-13.03 12.886-32.03 11.803-48.93 11.832-1.58.021-3.21.227-4.79.348-3.09 4.869-1.69 49.103-1.85 58.006l-31.41.156z"/><path fill="#fdfdfd" d="M1160.18 379.094c9.77-.203 19.01-.49 26.92 6.361 3.14 2.721 5.74 6.396 5.96 10.663.3 5.861-2.37 11.48-6.3 15.646-8.34 5.218-17.07 4.923-26.52 4.975z"/><path fill="#d95333" d="M665.064 351.217c.305-.033.61-.074.915-.101 19.773-1.772 35.146 2.996 50.365 15.745a1751 1751 0 0 1-17.536 26.414c-6.557-6.966-13.245-12.954-23.272-13.637-5.488-.373-12.005.984-16.014 5.003-2.249 2.255-3.184 5.18-2.781 8.33 2.012 15.708 36.641 23.274 48.752 34.014 9.141 8.107 13.488 18.959 14.17 31.049.635 11.276-2.839 22.824-10.655 31.142-10.498 11.172-24.579 13.655-39.142 14.341-21.792-.557-35.616-5.751-53.162-18.593l14.805-26.872c2.892 2.415 5.789 4.862 8.845 7.068 9.231 6.661 19.517 11.542 31.191 9.3 5.235-1.006 9.837-3.651 12.794-8.17 1.557-2.379 2.204-5.005 1.389-7.815-3.563-12.281-25.513-19.548-35.702-25.569-10.942-6.466-20.107-15.957-23.11-28.642-2.602-10.988-.715-23.751 5.295-33.365 7.52-12.029 19.609-16.809 32.853-19.642"/><path fill="#29436b" d="M1030.95 586.045c8.44-.141 16.9.092 25.34.197 5.28 11.714 9.4 24.144 14.28 36.057l39.78 98.195c-10.04.232-20.12.064-30.17.061-4.38-10.369-8.23-21.049-12.36-31.528l-10.23-.054-37.6.125c-4.39 10.467-8.12 21.257-12.07 31.899l-30.986-.011c9.428-26.807 21.624-52.884 32.006-79.355 6.24-15.901 13.64-42.108 22.01-55.586"/><path fill="#fdfdfd" d="M1043.38 622.68c3.76 3.935 11.94 32.58 14.78 40.317l-15.41.082-13.8-.058c4.28-13.666 9.34-26.96 14.43-40.341"/><path fill="#d95333" d="M838.235 353.48c26.158.563 52.464-.148 78.635-.29-.051 9.316-.225 18.479-1.107 27.766l-45.273.039a2399 2399 0 0 0 .191 32.856l43.343-.104.032 28.034-44.043.079-.003 13.941.002 16.953 46.902-.554-.068 28.133c-26.154-.395-52.359-.056-78.518-.048l-.39-100.499c-.063-14.878-1.768-31.683.297-46.306m737.665 42.907c28.25-2.923 53.59 17.44 56.82 45.658 3.23 28.219-16.86 53.776-45.05 57.306a51.816 51.816 0 0 1-53.89-72.234 51.81 51.81 0 0 1 42.12-30.73"/><path fill="#fdfdfd" d="M1579.5 421.141c3.84.178 7.36.583 10.9 2.195 6.41 2.914 11.03 8.491 13.12 15.166a28.97 28.97 0 0 1-2.24 22.384c-3.98 7.185-9.72 10.695-17.46 12.759-3.37-.187-6.79-.3-9.94-1.623a26.55 26.55 0 0 1-14.83-15.801 26.05 26.05 0 0 1 1.27-20.119c4.14-8.33 10.67-12.088 19.18-14.961"/><path fill="#d95333" d="m1418.59 349.952 29.32-.205.14 65.556c1.36-1.717 2.78-3.393 4.24-5.025 6.54-7.209 14.99-11.578 24.79-11.776 8.65-.175 17.61 1.882 23.91 8.146 3.63 3.604 6.01 8.198 7.29 13.124 4.11 15.864 1.66 57.707 1.61 76.061l-29.64.087.18-28.503c.27-9.994 1.53-21.297-.33-31.129-.86-4.54-2.82-9.073-6.94-11.526-3.28-1.947-7.78-2.237-11.43-1.32-6.85 1.723-10.77 7.525-14.05 13.306-.2 19.692-.19 39.384.02 59.075l-28.84.037zM620.927 582.203c7.134-.846 14.669-.891 21.734.517 11.2 2.233 21.707 8.131 27.791 18.028 4.436 7.216 6.324 16.317 4.198 24.604-2.554 9.96-9.303 16.298-17.746 21.441 5.917 2.646 11.278 5.713 15.626 10.627 6.746 7.625 8.518 17.48 7.586 27.395-1.029 10.938-6.102 20.701-14.858 27.421-12.832 9.85-32.142 11.954-47.787 9.424-13.399-2.167-25.957-8.723-33.886-20.009-2.842-4.046-6.938-9.943-6.087-14.883l2.706-1.581 24.416-7.638c1.202 2.978 2.63 5.894 4.547 8.486a24.03 24.03 0 0 0 15.86 9.611c6.428.913 13.39-.612 18.405-4.867 3.615-3.067 6.094-7.467 6.385-12.241.233-3.826-.99-7.496-3.568-10.347-6.697-7.406-17.582-7.066-26.724-7.389l.506-21.746c7.97-.595 16.08-.545 21.628-7.297a13.38 13.38 0 0 0 2.805-10.739 15.76 15.76 0 0 0-7.185-10.787 16.17 16.17 0 0 0-12.958-1.91c-8.211 2.31-11.165 8.276-15.138 15.132-8.607-2.431-17.187-4.644-25.283-8.513 1.857-4.577 3.845-9.165 6.487-13.352 7.183-11.386 17.914-16.54 30.54-19.387"/><path fill="#29436b" d="M1253.21 583.371c15.18.218 26.15 3.03 38.93 11.634-2.21 8.096-5.99 15.74-10.16 22.982-8.32-4.312-16.96-9.162-26.56-9.557-5.41-.223-10.61.861-14.6 4.76-2.14 2.087-3.78 5.019-3.5 8.1 1.16 12.848 39.56 21.636 50.7 32.853 7.56 7.616 10.29 18.329 9.94 28.826-.37 11.302-3.76 21.238-12.39 28.969-12.82 11.495-29.91 11.73-46.05 10.813-14.11-2.363-25.53-7.873-37.89-14.929 5.26-8.184 9.78-16.927 14.52-25.422 8.84 7.565 18.29 14.214 30.3 15.079 6.74.485 13.93-.638 19.03-5.414 2.51-2.36 4.92-5.758 4.75-9.357-.69-14.656-36.11-23.401-46.85-31.934-7.74-6.144-13.22-14.385-14.13-24.374-.88-9.565 2.86-20.604 9.06-27.895 9.1-10.695 21.49-14.155 34.9-15.134"/><path fill="#d95333" d="m730.035 353.916 95.541-.325c-.278 9.14-.091 18.325-.088 27.471l-32.509-.047-.104 85.485.071 33.697-32.503-.15-.327-118.864c-10.016-.074-20.045.07-30.062.114zm976.845 44.276c2.82-.142 5.63-.222 8.45-.239 7.7.028 15.05 3.178 20.38 8.728 4.4 4.584 7.15 10.468 8.66 16.589 4.14 16.74 1.65 53.432 1.59 72.703l-28.91-.058c-.78-15.229 3.1-60.709-7.03-70.346-2.6-2.471-5.63-3.172-9.12-3.059-6.43.209-10.29 3.734-14.36 8.308-7.3 13.135-4.45 49.952-4.47 65.47l-29.08-.113c.18-32.107-.38-64.236-.46-96.346l29.91.125.63 15.267c6.5-9.764 12.21-14.6 23.81-17.029m-399.94 1.449c10.64.164 21.31-.015 31.96-.042-8.25 24.956-28.23 59.268-40.48 84.054a1815 1815 0 0 1-30.34 53.649c-10.31-4.456-20.14-9.53-30.04-14.816 4.51-6.081 10.15-11.496 14.89-17.439 7.06-8.838 13.36-18.344 19.78-27.652-12.56-25.54-27.87-50.855-38.52-77.175l32.96-.152c5.97 16.576 13.08 33.048 19.92 49.29 7.63-16.256 13.97-32.764 19.87-49.717"/><path fill="#29436b" d="m1174.37 585.448 31.98.267c-12.54 23.317-29.97 45.083-45.22 66.702l-.15 68.17c-9.71-.209-19.43-.178-29.14-.244l.06-56.593c.1-4.203.36-8.395-1.23-12.372-5.61-14.024-35.67-50.301-46.23-65.531 11.75-.284 23.54-.102 35.3-.092 10.51 12.747 18.8 27.273 26.65 41.765 8.89-14.27 18.61-28.109 27.98-42.072"/><path fill="#d95333" d="M1383.68 369.204c2.36 3.506 1.62 25.692 1.93 31.132l16.62-.282-.07 24.049-17.05.022c-.12 11.846-2.47 34.593 1.65 44.895 3.27 8.16 8.69 3.055 14.52 5.908.54 6.235.47 12.499.5 18.752-7.66 2.706-14.43 3.953-22.52 3.924-5.72-.963-11.44-3.171-15.62-7.322-11.86-11.791-7.66-49.432-7.76-66.191l-13.92-.01c-.2-8.27-.57-16.543-.86-24.811l14.02.08-.01-22.057c9.56-2.567 19.08-5.263 28.57-8.089"/><path fill="#29436b" d="m331.557 586.019 29.421-.039c1.349 19.698.533 39.845.484 59.586-.063 24.984.404 50.109-.531 75.073l-29.414.05q-.415-67.334.04-134.67"/><path fill="#f8f7ea" d="M0 1312.32c30.955-17.88 58.26-21.27 93.035-11.98 54.349 14.51 97.985 56.5 125.295 104.29 20.013 35.02 31.449 75.72 20.317 115.69-5.794 20.8-19.002 38.8-38.039 49.3-25.094 13.85-55.379 13.07-82.25 4.99C68.79 1559.71 28.19 1521.7 0 1479.53z"/><path fill="#fdfdfd" d="M53.482 1351.28c17.808-1.42 31.703 1.23 47.836 9.15 38.161 18.74 69.703 54.66 83.152 95.13 5.328 16.03 8.964 36.55.647 52.11-5.994 11.21-15.036 15.83-26.646 19.35-21.18 1.93-36.11-5.01-54.187-15.45-36.45-21.06-69.436-58.72-80.24-100.05-3.643-13.94-4.5-30.48 3.395-43.14 6.032-9.67 15.318-14.49 26.043-17.1"/><path fill="#f8f7ea" d="M62.33 1363.29c21.164 1.17 38.464 10.17 55.155 22.79 27.137 20.52 54.849 57.9 59.343 92.38 1.188 9.11.961 19.63-5.206 27.04-5.759 6.92-12.78 8.29-21.235 8.85-21.205-1.05-41.161-12.55-57.382-25.55-24.604-19.71-54.659-57.82-58.029-90.27-.924-8.9-.398-18.95 5.674-26.06 5.784-6.78 13.305-8.34 21.68-9.18"/><path fill="#fbb52d" d="M1621.83 227.707q7.905 7.08 15.6 14.385c-78.71-.827-157.59.764-236.33.746l-530.863-.641-467.176-.361c-75.112-.016-150.336-.934-225.438.076-1.717 76.8-.641 153.864-.646 230.702l.312 368.207 1152.421-.595 367.98.203 112.01-.092c19.98.007 40.16.73 60.1-.052l.05-384.854-.41-109.63c-.16-19.643 1.2-40.937-2.12-60.323 4.83-2.162 9.47-4.558 14.14-7.038l-.4 347.045.01 153.773c-.03 20.254 1.06 40.66.47 60.89-.09 3.099.15 6.497-2.05 8.948-5.72 6.371-19.96 4.532-27.69 4.469-14.85-.235-29.73-.086-44.58-.114l-1210.74.322-311.142-.012-69.26-.254c-15.338.005-32.818 1.637-47.801-1.564-2.726-6.273-2.064-16.012-2.18-22.828-.763-44.755-.303-89.596-.446-134.362l.017-301.84.058-105.761c-.066-16.18-2.085-38.675.611-53.985.8-4.54 13.183-3.219 16.72-3.183l145.566.17 718.587.36 364.12.373c64.41-.025 129.1 1.142 193.48-.592 5.49-.148 12.42.56 17.02-2.588"/><path fill="#fbb52d" d="M1554.36 128.441c2.79-5.098 6.01-10.656 9.59-15.22 9.64-12.289 54.76-18.809 69.62-20.088 48.98-4.22 98.97 10.397 141.01 35.031 7.8 4.572 16.23 9.355 23.16 15.157 5.11 1.542 9.29 5.155 13.43 8.425 27.9-1.381 54.68 3.217 76.1 22.419 13.32 11.941 22.6 28.733 23.59 46.79.89 16.066-5.03 33.779-16 45.566-4.07 4.37-8.68 8.277-13.4 11.919-4.67 2.48-9.31 4.876-14.14 7.038-1.89.825-5.83 2.059-7.35 3.375-1.57 1.365-2.31 23.839-7.57 32.654a22.22 22.22 0 0 1-14.52 10.451c-4.15.924-8.83.685-12.28-2.092-3.61-2.906-4.74-7.237-4.99-11.691-.45-8.018 1.72-18.166 7.31-24.219 6.81-7.396 16.34-8.123 25.8-8.367 5.45-.141 9.42-2.386 14.22-4.754l.38-36.97q-39.615.165-79.23-.23c-7.3 7.364-13.27 18.245-19.95 26.485-11.76 14.521-30.45 36.118-48.73 42.459-3.51 1.217-7.49 1.5-11.17 1.903-30.55-14.552-48.05-49.666-71.81-72.39a732 732 0 0 0-15.6-14.385c-29.76-24.369-55.02-63.307-67.47-99.266"/><path fill="#f8f7ea" d="M1811.17 151.746c27.9-1.381 54.68 3.217 76.1 22.419 13.32 11.941 22.6 28.733 23.59 46.79.89 16.066-5.03 33.779-16 45.566-4.07 4.37-8.68 8.277-13.4 11.919-4.67 2.48-9.31 4.876-14.14 7.038-1.89.825-5.83 2.059-7.35 3.375-1.57 1.365-2.31 23.839-7.57 32.654a22.22 22.22 0 0 1-14.52 10.451c-4.15.924-8.83.685-12.28-2.092-3.61-2.906-4.74-7.237-4.99-11.691-.45-8.018 1.72-18.166 7.31-24.219 6.81-7.396 16.34-8.123 25.8-8.367 5.45-.141 9.42-2.386 14.22-4.754l.38-36.97q-39.615.165-79.23-.23c3.18-1.882 5.11-9.187 7.1-12.669 11.52-23.06 24.31-49.262 24.03-75.611-27.33 2.497-72.68 48.81-90.9 70.737-9.47 11.401-17.9 23.423-26.75 35.283l-1.95-2.967c19.92-33.062 49.19-64.49 80.1-87.363 8.42-6.234 24.52-11.723 30.45-19.299"/><path d="M1811.17 151.746c27.9-1.381 54.68 3.217 76.1 22.419 13.32 11.941 22.6 28.733 23.59 46.79.89 16.066-5.03 33.779-16 45.566-4.07 4.37-8.68 8.277-13.4 11.919-4.67 2.48-9.31 4.876-14.14 7.038-1.89.825-5.83 2.059-7.35 3.375-1.57 1.365-2.31 23.839-7.57 32.654a22.22 22.22 0 0 1-14.52 10.451c-4.15.924-8.83.685-12.28-2.092-3.61-2.906-4.74-7.237-4.99-11.691-.45-8.018 1.72-18.166 7.31-24.219 6.81-7.396 16.34-8.123 25.8-8.367 5.45-.141 9.42-2.386 14.22-4.754 4.3-2.196 8.39-4.614 12.49-7.145a69 69 0 0 0 5.7-4.532 60.76 60.76 0 0 0 20.26-41.635c1-16.428-5.62-32.334-16.46-44.461-18.74-20.98-42.77-26.258-69.71-27.707-27.33 2.497-72.68 48.81-90.9 70.737-9.47 11.401-17.9 23.423-26.75 35.283l-1.95-2.967c19.92-33.062 49.19-64.49 80.1-87.363 8.42-6.234 24.52-11.723 30.45-19.299"/><path fill="#fdfdfd" d="M1842.55 288.892c1.63.031 3.84-.077 5.39.526 2.47.957 4.41 3.017 5.52 5.39 2.44 5.214.73 12.344-1.34 17.372-3.2 7.779-7.44 12.755-15.17 16.073-1.84-.005-4.19.179-5.96-.297-2.51-.677-4.5-2.75-5.65-5.035-2.42-4.845-1.18-11.163.56-16.011 3.23-8.996 8.13-14.022 16.65-18.018"/><path fill="#fbb52d" d="M1789.09 243.635c3.18-1.882 5.11-9.187 7.1-12.669q41.955.887 83.91.14l.33 42.584c-4.1 2.531-8.19 4.949-12.49 7.145l.38-36.97q-39.615.165-79.23-.23m8.65-100.314c5.11 1.542 9.29 5.155 13.43 8.425-5.93 7.576-22.03 13.065-30.45 19.299-30.91 22.873-60.18 54.301-80.1 87.363-4.92-6.706-9.91-13.466-15.35-19.754-7.26-8.37-20.31-21.452-32.01-22.326-3.97-6.302-7.87-11.966-11.11-18.727 28.15-36.267 76.05-54.021 121-53.162 8.02.153 25.98 3.627 32.52 1.541 1.47-.471 1.46-1.375 2.07-2.659"/><path fill="#fdfdfd" d="M1702.57 261.375c.96 3.779 3.27 7.639 4.73 11.298 3.33 8.357 6.5 17.782 7.57 26.747.48 3.987.21 5.988-2.31 9.134-1.64.542-1.84.928-3.57.327-20.23-7.052-48.41-49.122-64.12-65.739-7.76-8.209-16.61-15.473-24.79-23.272a335 335 0 0 1-30.36-33.659c-9.99-12.882-18.26-27.361-25.07-42.15-2.67-5.804-5.45-12.13-3.12-18.46 1.69-1.622 2.23-2.371 4.64-2.726 7.56-1.116 21.29 6.685 27.16 11.368 5.95 4.754 12.93 12.791 13.6 20.748.05.597.07 1.196.11 1.794-.39 7.652-1.04 16.823 4.36 22.997 5.78 6.611 15.56 8.25 22.91 12.611 4.01 7.041 9.35 21.274 17.52 23.614.47.134.95.214 1.43.321 11.7.874 24.75 13.956 32.01 22.326 5.44 6.288 10.43 13.048 15.35 19.754z"/><path d="M1640.16 195.892c4.22-7.203 9.26-13.214 15.45-18.797 27.01-24.355 68.74-37.381 104.73-36.976 12.53.141 24.9 2.523 37.4 3.202-.61 1.284-.6 2.188-2.07 2.659-6.54 2.086-24.5-1.388-32.52-1.541-44.95-.859-92.85 16.895-121 53.162 3.24 6.761 7.14 12.425 11.11 18.727-.48-.107-.96-.187-1.43-.321-8.17-2.34-13.51-16.573-17.52-23.614-7.35-4.361-17.13-6-22.91-12.611-5.4-6.174-4.75-15.345-4.36-22.997 3.41 5.992 4.64 14.763 6.89 21.461 10.08 6.159 18.97 7.234 26.23 17.646"/><path fill="#fdfdfd" d="M261.304 0h85.478c14.927 9.007 27.28 19.45 36.54 34.426 13.042 21.09 16.173 46.428 10.315 70.367a95.27 95.27 0 0 1-44.054 59.351c-19.996 11.992-45.309 15.965-67.934 10.169-23.492-6.018-45.793-21.693-58.051-42.745-12.614-21.666-15.773-51.373-9.119-75.435 7.08-25.598 24.092-43.344 46.825-56.133"/><path fill="#f8f7ea" d="M302.489 1.327c.371-.113.731-.27 1.113-.338 10.459-1.862 38.373 10.633 47.236 16.871a76.22 76.22 0 0 1 31.438 50.152 83.74 83.74 0 0 1-15.508 63.27c-14.847 20.195-34.256 28.302-58.474 31.828-20.239.522-38.672-4.678-54.756-17.283-16.783-13.153-25.9-31.802-28.196-52.843-2.494-22.859 2.03-42.255 16.578-60.34 14.813-18.412 37.324-28.91 60.569-31.317"/><path fill="#fdfdfd" d="M297.774 29.712c29.222-3.077 55.437 18.038 58.655 47.245s-17.77 55.523-46.961 58.882c-29.39 3.382-55.927-17.782-59.167-47.188s18.051-55.84 47.473-58.939"/><path fill="#f8f7ea" d="M298.358 42.826c21.948-3.128 42.316 12.018 45.637 33.938 3.322 21.92-11.644 42.421-33.533 45.936-22.165 3.56-42.981-11.635-46.345-33.831s12.016-42.876 34.241-46.043M2048 1008.97c-.79.38-1.59.75-2.39 1.1-21.96 9.59-48.71 7-70.51-1.67-23.68-9.427-41.1-27.206-51.06-50.582-11.1-26.095-12.31-52.103-1.53-78.496 10.56-25.865 28.22-45.407 54.3-56.038 23.02-9.381 48.28-10.052 71.19-.376z"/><path fill="#fdfdfd" d="M0 1296.73c29.75-16.77 66.104-17.35 98.503-8.46 54.185 14.87 101.975 56.95 129.458 105.34 21.916 38.58 34.969 87.38 22.914 131.29a92.62 92.62 0 0 1-44.205 56.58c-27.776 15.42-59.824 14.97-89.654 6.1-51.2-15.22-83.14-45.01-117.016-84.31v-23.74c28.19 42.17 68.79 80.18 118.358 95.08 26.871 8.08 57.156 8.86 82.25-4.99 19.037-10.5 32.245-28.5 38.039-49.3 11.132-39.97-.304-80.67-20.317-115.69-27.31-47.79-70.946-89.78-125.296-104.29-34.774-9.29-62.08-5.9-93.034 11.98zm2048-274.1c-19.92 9.17-48.71 8.38-69.27 1.96a107.5 107.5 0 0 1-63.39-54.013 121.63 121.63 0 0 1-6.97-92.83c8.89-26.806 32.24-52.264 57.41-64.797 26.75-13.324 54.56-12.537 82.22-3.301v13.259c-22.91-9.676-48.17-9.005-71.19.376-26.08 10.631-43.74 30.173-54.3 56.038-10.78 26.393-9.57 52.401 1.53 78.496 9.96 23.376 27.38 41.155 51.06 50.582 21.8 8.67 48.55 11.26 70.51 1.67.8-.35 1.6-.72 2.39-1.1z"/><path fill="#fdfdfd" d="M1807.22 853.451c14.85.028 29.73-.121 44.58.114-15.18 45.969-12.88 98.188 8.87 141.791a168.94 168.94 0 0 0 98.54 84.864c30.23 9.99 58.01 10.51 88.79 3.43v13.79c-27.99 7.5-59.6 4.99-87.16-3.08-47.66-13.94-86-44.6-109.7-88.36-24.43-45.135-28.58-102.831-14.17-151.798-7.83.024-22.78 1.935-29.75-.751"/><path fill="#fbb52d" d="M1096.98 1035.44c42.27-1.3 84.92-.23 127.22-.26l250.63-.07 165.25-.03c29 0 58.93-1.59 87.8.48 14.96 1.08 29.14 4.81 42.49 11.73 26.23 13.6 44.44 35.21 53.03 63.37 2.43 7.91 3.87 16.08 4.29 24.34 1.21 22.46.14 45.46.07 67.96-.12 38.15-.03 76.3.26 114.45l.21 106.81c0 14.35 1.49 29.78.22 43.99-1.09 12.17-15.24 45-13.51 50.57 5.83-2.03 10.96-13.69 14-19.09 11.3 6.25 22.86 11.98 34.39 17.76-5.07 10.55-10.22 20.97-15.82 31.25 5.94 6.1 10.69 13.27 15.12 20.5l29.92-11.36c5.58 13.57 12.6 26.76 17.26 40.67-9.8 4.69-19.46 9.77-29.18 14.66 1.04 8.98 2.16 17.91 2.3 26.97 10.13 4.54 20.49 8.18 30.96 11.84-3.37 12.88-7.06 25.68-10.61 38.51-10.84-1.55-21.5-3.31-32.21-5.61a131.5 131.5 0 0 1-14.7 21.61c7.84 8.35 14.6 17.62 21.53 26.71-9.67 9.7-20.69 18.25-31.21 27.01-7.65-8.54-16.54-16.18-24.92-24-8.66 4.48-17.9 7.94-26.93 11.64l1.01 32.78c-14.4.88-28.9 2.81-43.24 4.45-1.05-10.96-1.99-21.93-3.68-32.82-5.13-1.66-10.49-2.81-15.72-4.14l-14.81-4.36c-6.16 9.19-12.02 19.18-19.2 27.58a541 541 0 0 0-35.02-20.77c5.53-10.27 11.59-20.18 17.64-30.13-6.42-6.36-11.71-13.31-17.07-20.56-11.6 3.09-23.23 6.02-34.9 8.8-5.13-12.11-9.26-24.73-13.91-37.04l30.76-14.18c-2.38-10.07-2.48-19.55-2.33-29.86-11.14-3.07-22.27-6.21-33.38-9.4 2.43-12.4 4.61-24.85 6.53-37.34l-152.68.08c-4.43 10.6-9.01 21.17-14.76 31.13-21.06 36.46-53.46 65.36-86.99 90.13-7.25 5.35-15.63 12.72-24.42 15.07-2.83-1.08-4.11-3.8-5.71-6.23 14.93-22.6 25.54-45.74 20.71-73.37a86.52 86.52 0 0 0-36.32-56.19c-18.55-1.33-37.98.12-56.64.19l-114.91.11c-23.32.08-48.67 2.1-71.5-2.84a106.8 106.8 0 0 1-48.29-24.6c-25.45-22.29-34.927-50.01-37.073-83.03-1.519-23.39-.517-47.33-.406-70.77l.606-123.56.025-89.23c-.001-20.61-1.413-42.24 2.295-62.59a107.14 107.14 0 0 1 25.683-52.42 114.13 114.13 0 0 1 79.84-37.3"/><path fill="#fdfdfd" d="M1002.17 1142.66c3.02-21.47 7.79-39.34 21.5-56.71 15.68-19.86 40.78-33.7 66.01-36.39 13.95-1.48 28.63-.64 42.65-.62l71.07-.03c83.76-.73 167.53-.87 251.3-.42l184.57-.44 54.51-.06c11.72 0 23.86-.5 35.52.76 17.82 1.94 36.58 9.13 50.5 20.52 22.36 18.29 32.38 44.36 35.15 72.4.91 49.8.03 99.74-.18 149.55l.07 127.82c.06 16.29 2.82 36.21.33 52.01-2.45 15.52-9.87 30.76-15.79 45.21l-22.33-1.09c-1.16-10.98-2.53-21.98-3.43-32.98-14.48 1.22-29.13 2.86-43.68 2.96.09 11.37-.03 22.75 1.13 34.07-8.4 3.66-16.65 7.43-24.82 11.59-7.9-7.92-15.68-16.03-23.84-23.68a3056 3056 0 0 0-32.64 26.38c6.51 9.1 13.07 17.98 20.29 26.55-3.41 4-7.48 8.05-10.28 12.48-7.15.87-15.73-1.5-23.24-1.49-60-1.83-120.23.29-180.28-.96-7.15 10.89-10.76 24.82-17.55 36.28-20.53 34.67-49.69 58.56-80.05 83.95 8.22-20.43 10.85-41.7 5.61-63.28-5.4-22.23-20.63-44.86-40.25-56.96-41.99-.3-83.98-.25-125.97.13-31.99.37-64.2 1.56-96.16.69-27.2-.73-54.85-10.72-73.74-30.85-12.17-12.97-20.01-29.4-23.8-46.7-6.004-27.36-2.97-60.18-2.95-88.29.02-37.92-.72-76 .38-113.9 1.6-49.35.15-99.09.39-148.5"/><path fill="#d95333" d="M1002.17 1142.66c3.02-21.47 7.79-39.34 21.5-56.71 15.68-19.86 40.78-33.7 66.01-36.39 13.95-1.48 28.63-.64 42.65-.62l71.07-.03c83.76-.73 167.53-.87 251.3-.42l184.57-.44 54.51-.06c11.72 0 23.86-.5 35.52.76 17.82 1.94 36.58 9.13 50.5 20.52 22.36 18.29 32.38 44.36 35.15 72.4.91 49.8.03 99.74-.18 149.55l-812.99-.06c1.6-49.35.15-99.09.39-148.5"/><path fill="#fdfdfd" d="M1002.17 1142.66c3.02-21.47 7.79-39.34 21.5-56.71 15.68-19.86 40.78-33.7 66.01-36.39 13.95-1.48 28.63-.64 42.65-.62l71.07-.03c83.76-.73 167.53-.87 251.3-.42l184.57-.44 54.51-.06c11.72 0 23.86-.5 35.52.76 17.82 1.94 36.58 9.13 50.5 20.52 22.36 18.29 32.38 44.36 35.15 72.4l-522.17.61-191.72.28c-32.94.07-65.96.78-98.89.1"/><path fill="#fbb52d" d="M1073.93 1079.67c7.15-1.7 14.65.6 19.62 6.01 4.97 5.4 6.63 13.07 4.34 20.05a20.26 20.26 0 0 1-15.37 13.59c-10.84 2.14-21.4-4.81-23.74-15.61s4.39-21.49 15.15-24.04"/><path fill="#d95333" d="M1143.44 1079.47c10.72-2.29 21.29 4.45 23.74 15.13 2.44 10.68-4.14 21.35-14.79 23.95a20.05 20.05 0 0 1-19.38-5.75 20.06 20.06 0 0 1-4.51-19.71c2.16-6.9 7.87-12.11 14.94-13.62"/><path fill="#29436b" d="M1209.9 1080.67a19.483 19.483 0 0 1 24.42 23.57 19.48 19.48 0 0 1-13.85 13.94c-10.29 2.74-20.88-3.29-23.77-13.54-2.89-10.26 2.99-20.94 13.2-23.97"/><path fill="#d95333" d="M1181.52 1336.41c22.87-.98 44.32 5.6 62.4 19.77 19.08 14.97 32.62 37.58 35.22 61.84 2.6 24.21-5.25 49.72-20.64 68.52-15.15 18.52-38.63 31.16-62.48 33.37-30.13 2.8-54.76-8.68-77.45-27.47-.4-.31-2.35-1.6-2.76-1.63-8.15-.59-38.95 45.42-55.39 44.89-4.51-.14-8.66-2.47-11.59-5.82-3.41-3.89-5.28-9.37-4.74-14.54.28-2.68 1.22-5.43 2.81-7.63 7.14-9.91 40.55-37.71 51.53-46.2-3.53-8.31-5.57-16.79-6.35-25.79-2.16-24.63 5.62-48.05 21.66-66.87 17.09-20.06 41.9-30.53 67.78-32.44"/><path fill="#fdfdfd" d="M1177.59 1361.83a67.04 67.04 0 0 1 61.86 26.99c14.26 19.47 16.94 45.11 7.04 67.12a67.06 67.06 0 0 1-54.92 39.23c-36.56 3.4-69.06-23.24-72.89-59.76s22.44-69.33 58.91-73.58"/><path fill="#29436b" d="M1210.11 1397.68c5.53 2.69 12.68 11.32 16.91 16.19-16.91 16.96-34.47 32.82-50.86 50.4-5.24-4.44-11.13-8.36-16.66-12.44-6.05-4.99-12.55-9.42-18.95-13.95 5.49-5.83 11.04-11.35 17.04-16.65 5 4.76 10.6 9.09 15.89 13.55 12.71-11.87 24.09-25.04 36.63-37.1"/><path fill="#fbb52d" d="m1525.51 1417.49 162.92-.26 43.99-.13c5.61-.02 12.61-.84 18.04.18 2.84.53 3.77 2.23 5.37 4.42-.05 1.4.29 2.13-.83 3.16-2.82 2.56-7.54 2.88-11.15 3.14-17.98 1.31-37.17-.15-55.27-.15H1564.5l-154.34-.03c-22.19.02-44.91 1.18-67.05.38-4.2-.16-9.2-.38-12.21-3.66l.21-1.92c3.41-3.31 7.46-4.33 12.12-4.79 5.8-.56 11.94.15 17.79.18l36.62-.09zm-192-47.2c70.19.99 140.35-.35 210.54-.01l124.08.53c21.87.06 43.93.69 65.79 0 6.06-.19 13.63-1.46 18.31 2.93.39 3.41-.27 4.23-1.68 7.27l-271.17-.14-93.29.02c-14.05.01-28.26.6-42.29.12-3.07-.11-7.67-.14-10.45-1.62-2.41-1.28-2.54-1.87-3.25-4.29.8-2.27 1.64-3.2 3.41-4.81"/><path fill="#f8f7ea" d="M1755.8 1568.5c35.79-3.67 67.74 22.45 71.25 58.26 3.52 35.8-22.75 67.64-58.57 70.99-35.6 3.34-67.19-22.73-70.68-58.31s22.43-67.29 58-70.94"/><path fill="#fbb52d" d="M1636.54 1571.05c7.51-.01 16.09 2.36 23.24 1.49-.05 2.83-.01 4.56-1.72 6.98-6.44 3.69-13.28 3.49-20.46 2.8-3.1-.3-11.83-.38-13.44-2.33 1.25-1.93 1.03-2.16 3.29-3.07 6.09 2.16 11.09 3.71 17.61 2.17 1.63-1.63 1.92-1.82 2.36-4.05-2.46-2.42-7.46-1.97-10.88-3.99"/><path fill="#944263" d="M625.52 1055.46c25.734 14.74 40.329 28.67 48.52 58.22 4.108 14.81 4.694 32.47-3.234 46.18-4.078 7.05-10.935 12.69-18.701 15.14-5.989 2.31-12.261 1.37-18.48.72 1.016 4.5 1.819 9.7 3.759 13.88 3.795 8.18 12.085 13.13 17.738 19.85 3.984 4.74 6.743 10.1 9.366 15.66 14.588 30.92 28.063 62.62 42.06 93.83 6.421 14.32 12.214 33 21.894 45.13 12.071-3.89 36.144-3.74 49.728-4.97 33.751-3.05 67.972-6.23 101.535-10.9-12.203 23.91-22.934 48.51-34.197 72.86-9.808 21.21-20.204 42.14-29.835 63.43-9.214.73-32.798.78-40.286 4.73-.143 1.26-.32 2.12.006 3.36-.407.73-.806 1.51-1.353 2.15-1.752 2.03-2.487 2.45-4.981 2.87-2.6-1.61-2.895-2.66-4.295-5.31l-.019-2.27c-4.17-2.22-21.941.85-27.127 1.2-15.983 1.05-32.113 2.83-48.105 3.18-12.221.26-27.892-3.21-39.631.04-.853 2.68-1.587 5.56-4.161 7.13-2.556 1.57-3.255 1.43-5.884.6-1.853-3.12-1.378-4.45-1.204-8.01l-7.364-.03c.807 2.89 2.447 5.12 4.088 7.58-4.557 36.03-34.531 356.35-37.816 361.59-2.947.84-5.723.48-8.728.25l-13.498.05c-.502 5.1-1.547 10.85-1.029 15.95-3.715 5.96-9.103 8.93-15.89 10.46-9.961 2.24-23.068 1.06-31.802-4.53-1.806 11.34-3.774 22.8-3.794 34.31-4.471 2.75-106.74 1.22-119.882.61.526-10.47-3.335-17.21-10.18-24.85-6.899-7.69-19.136-19.29-29.788-19.81-2.485-.12-4.228-.16-6.574-1.11 2.698-1.2 5.521-.92 8.41-.9-.666-1.88-.238-1.55-1.433-2.58-2.517-2.18-3.235-2.98-4.284-6.2l2.756-3.46c1.916-3.8 2.828-8.3 3.985-12.39-13.659-5.29-26.68-11.01-39.419-18.3-7.204-3.96-15.146-7.75-22.999-10.22l-1.204-1.8c.054-6.78 50.771-97.3 58.726-112a4124 4124 0 0 1 47.484-86.11c10.268-17.87 22.851-35.92 30.984-54.77 6.791-15.74 9.161-34.81 13.778-51.43 13.991-50.36 32.579-96.45 63.864-138.72-7.382-20.88-6.208-47.62-7.569-69.63-1.371-22.19-3.193-44.48-3.988-66.69-.472-13.19.57-24.24 10.261-34.25 7.508-7.75 16.534-11.14 27.112-11.52-.032-.13-.035-.27-.097-.39-.462-.86-1.023-1.67-1.493-2.53-5.129-9.41-2.873-17.5-.09-27.11-11.614-22.18-9.881-36.74 2.661-57.95 3.468-5.87 6.604-10.76 7.779-17.63.069-.41.127-.81.19-1.21.292-.85.893-2.39 1.644-2.97 3.44-2.62 50.38-16.06 59.785-20.39 3.972-1.83 6.88-5.3 10.775-7.27.505-.26 1.017-.5 1.526-.75"/><path d="M625.52 1055.46c25.734 14.74 40.329 28.67 48.52 58.22 4.108 14.81 4.694 32.47-3.234 46.18-4.078 7.05-10.935 12.69-18.701 15.14-5.989 2.31-12.261 1.37-18.48.72 1.016 4.5 1.819 9.7 3.759 13.88 3.795 8.18 12.085 13.13 17.738 19.85 3.984 4.74 6.743 10.1 9.366 15.66 14.588 30.92 28.063 62.62 42.06 93.83 6.421 14.32 12.214 33 21.894 45.13 12.071-3.89 36.144-3.74 49.728-4.97 33.751-3.05 67.972-6.23 101.535-10.9-12.203 23.91-22.934 48.51-34.197 72.86-9.808 21.21-20.204 42.14-29.835 63.43-9.214.73-32.798.78-40.286 4.73-.143 1.26-.32 2.12.006 3.36-.407.73-.806 1.51-1.353 2.15-1.752 2.03-2.487 2.45-4.981 2.87-2.6-1.61-2.895-2.66-4.295-5.31l-.019-2.27c-4.17-2.22-21.941.85-27.127 1.2-15.983 1.05-32.113 2.83-48.105 3.18-12.221.26-27.892-3.21-39.631.04-.853 2.68-1.587 5.56-4.161 7.13-2.556 1.57-3.255 1.43-5.884.6-1.853-3.12-1.378-4.45-1.204-8.01l-7.364-.03c-18.455-1.09-45.367 3.17-62.243-2.15-4.798 7.6-9.068 14.38-15.923 20.34 4.646-13.08 14.507-25.84 21.676-37.78a251.3 251.3 0 0 0 18.293-37.51c-24.758-18.82-51.733-36.71-74.536-57.79-28.978 42.22-46.989 82.75-60.837 132-5.092 18.1-8.044 37.87-14.991 55.29-4.535 11.36-11.713 22.28-17.816 32.89a3623 3623 0 0 0-32.517 57.08l-68.543 127.36c-4.671 8.61-14.775 30.78-20.44 36.72l-1.204-1.8c.054-6.78 50.771-97.3 58.726-112a4124 4124 0 0 1 47.484-86.11c10.268-17.87 22.851-35.92 30.984-54.77 6.791-15.74 9.161-34.81 13.778-51.43 13.991-50.36 32.579-96.45 63.864-138.72-7.382-20.88-6.208-47.62-7.569-69.63-1.371-22.19-3.193-44.48-3.988-66.69-.472-13.19.57-24.24 10.261-34.25 7.508-7.75 16.534-11.14 27.112-11.52-.032-.13-.035-.27-.097-.39-.462-.86-1.023-1.67-1.493-2.53-5.129-9.41-2.873-17.5-.09-27.11-11.614-22.18-9.881-36.74 2.661-57.95 3.468-5.87 6.604-10.76 7.779-17.63.069-.41.127-.81.19-1.21.292-.85.893-2.39 1.644-2.97 3.44-2.62 50.38-16.06 59.785-20.39 3.972-1.83 6.88-5.3 10.775-7.27.505-.26 1.017-.5 1.526-.75"/><path fill="#29436b" d="M728.442 1364.07c12.071-3.89 36.144-3.74 49.728-4.97 33.751-3.05 67.972-6.23 101.535-10.9-12.203 23.91-22.934 48.51-34.197 72.86-9.808 21.21-20.204 42.14-29.835 63.43-9.214.73-32.798.78-40.286 4.73-.143 1.26-.32 2.12.006 3.36-.407.73-.806 1.51-1.353 2.15-1.752 2.03-2.487 2.45-4.981 2.87-2.6-1.61-2.895-2.66-4.295-5.31l-.019-2.27c-4.17-2.22-21.941.85-27.127 1.2-15.983 1.05-32.113 2.83-48.105 3.18-12.221.26-27.892-3.21-39.631.04-.853 2.68-1.587 5.56-4.161 7.13-2.556 1.57-3.255 1.43-5.884.6-1.853-3.12-1.378-4.45-1.204-8.01l-7.364-.03c-18.455-1.09-45.367 3.17-62.243-2.15 1.593-2.78 3.36-5.31 5.259-7.9 10.964-.48 21.939-2.2 32.953-2.7 14.38-.65 29.559.34 43.757-1.76l2.118-.44c-2.045-1.93-3.756-3.36-4.723-6.09 10.535-10.31 22.745-20.68 30.234-33.48 2.994.28 3.599-.07 6.367-1.34 4.228-.99 8.315 2.2 12.188 4.08 1.821-3.54 4.422-7.65 5.452-11.48 1.402-5.22-.355-7.42-2.874-11.85 1.659.07 3.218.12 4.875-.05 6.173-.65 18.045-39.66 23.794-46.73.369-.59.859-1.33 1.083-1.98.946-2.76.095-3.68-1.067-6.19"/><path fill="#d95333" d="M684.991 1438.27c2.35 4.74 6.002 5.82 10.643 7.63-5.251 9.47-12.669 20.79-14.659 31.5-7.245-.17-21.231-2.14-27.124 1.89l-.738-.11c-2.045-1.93-3.756-3.36-4.723-6.09 10.535-10.31 22.745-20.68 30.234-33.48 2.994.28 3.599-.07 6.367-1.34"/><path fill="#fdfdfd" d="M653.851 1479.29c5.893-4.03 19.879-2.06 27.124-1.89-.678 1.53-1.217 3.94-2.788 4.63-4.958 2.18-15.89 2.26-20.833-.08-1.478-.7-2.4-1.49-3.503-2.66"/><path fill="#111c34" d="M638.633 1494.16c3.731.16 7.518.47 11.249.28-.853 2.68-1.587 5.56-4.161 7.13-2.556 1.57-3.255 1.43-5.884.6-1.853-3.12-1.378-4.45-1.204-8.01m126.131-1.87c2.246-2.29 2.609-2.41 5.747-3.12 3.012.9 3.115.84 4.882 3.41-.407.73-.806 1.51-1.353 2.15-1.752 2.03-2.487 2.45-4.981 2.87-2.6-1.61-2.895-2.66-4.295-5.31M625.52 1055.46c25.734 14.74 40.329 28.67 48.52 58.22 4.108 14.81 4.694 32.47-3.234 46.18-4.078 7.05-10.935 12.69-18.701 15.14-5.989 2.31-12.261 1.37-18.48.72 1.016 4.5 1.819 9.7 3.759 13.88 3.795 8.18 12.085 13.13 17.738 19.85 3.984 4.74 6.743 10.1 9.366 15.66 14.588 30.92 28.063 62.62 42.06 93.83 6.421 14.32 12.214 33 21.894 45.13 1.162 2.51 2.013 3.43 1.067 6.19-.224.65-.714 1.39-1.083 1.98-9.486-11.76-14.93-28.49-20.948-42.32-9.187-21.13-19.018-41.95-28.337-63.02-6.958-15.73-13.281-32.6-21.79-47.54-2.543-4.47-5.734-9.03-9.572-12.47-3.67-3.28-7.405-5.13-12.345-4.92-1.567 1-2.952 1.68-4.128 3.12 1.656 4.21 3.609 8.25 3.057 12.89-.356 2.98-1.556 5.9-4.182 7.6-5.769 3.74-15.483 2.07-21.561.11-15.166-4.9-26.917-15.56-34.064-29.63l-4.815-.13c-5.326.14-10.706.13-16.018.51-3.302-1.52-7.333-2.02-10.883-2.78-.032-.13-.035-.27-.097-.39-.462-.86-1.023-1.67-1.493-2.53-5.129-9.41-2.873-17.5-.09-27.11-11.614-22.18-9.881-36.74 2.661-57.95 3.468-5.87 6.604-10.76 7.779-17.63.069-.41.127-.81.19-1.21.292-.85.893-2.39 1.644-2.97 3.44-2.62 50.38-16.06 59.785-20.39 3.972-1.83 6.88-5.3 10.775-7.27.505-.26 1.017-.5 1.526-.75"/><path fill="#f37166" d="M597.862 1120.4c5.578-2.15 10.82-4.67 15.335-8.67 5.077-4.5 13.369-18.75 19.527-19.94 4.745-.91 13.786 4.7 16.951 8 5.435 5.67 3.856 16.66 3.832 24.01 3.735 6.13 7.472 11.88 9.884 18.69-3.258 12.72-8.064 17.87-18.493 25.28-8.347 2.8-14.534 4.83-23.384 3.46l-1.542-.23c-.309-.05-.616-.11-.923-.16-.715 6.99-3.746 20.28-1.461 26.49 2.803 2.51 6.354 3.13 9.793 4.36 1.919.69 2.682 1.87 3.925 3.4 1.656 4.21 3.609 8.25 3.057 12.89-.356 2.98-1.556 5.9-4.182 7.6-5.769 3.74-15.483 2.07-21.561.11-15.166-4.9-26.917-15.56-34.064-29.63 4.501.06 8.757-.79 13.168-1.57.37-15.9-.191-31.77-.698-47.66-6.158-2.15-11.92-5.1-15.126-11.1-1.846-3.46-2.491-7.46-1.068-11.19 1.348-3.54 4.158-6 7.653-7.3 7.141-2.67 12.997 0 19.377 3.16"/><path fill="#d95333" d="m634.264 1119.19 2.935.41c1.126 1.14 2.048 2.09 3.474 2.86.304.16.623.29.935.44 1.83 4.35 2.376 7.05.765 11.61-1.721 4.87-4.143 6.41-8.537 8.64-2.264-.14-4.272-.24-6.375-1.16-3.272-1.44-5.979-4.02-6.925-7.55-.943-3.52.183-7.35 2.368-10.17 3.087-3.99 6.661-4.39 11.36-5.08"/><path fill="#fbb52d" d="M644.877 1470.57c-26.21-20.83-53.732-40.11-80.584-60.11-11.937-8.89-24.877-17.56-35.753-27.74-4.642-4.34-8.64-8.99-10.437-15.18-4.681-16.11-3.679-38.9-4.704-55.95-1.474-24.57-3.772-49.32-4.32-73.92-.259-11.63 2.281-22.54 10.769-31.02 5.699-5.68 14.918-10.15 23.093-9.9 4.61.14 8.636 2.81 11.713 6.09 3.84 4.09 5.707 8.69 6.88 14.11 4.106 18.96 3.778 40.95 5.214 60.38 1.642 22.2 5.511 48.44 4.397 70.43l-.077 1.35c13.782 10.24 86.485 70.12 96.778 71.95 1.599 5.48 4.675 12.24 9.105 16.02-1.703 1.6-1.106.89-2.412 2.64-8.594 11.49-19.198 21.09-29.662 30.85"/><path fill="#fbb52d" d="M553.723 1196.44c5.312-.38 10.692-.37 16.018-.51 8.842 15.95 20.623 29.08 38.725 34.29 7.564 2.17 16.173 2.36 23.122-1.81 1.946-1.17 3.663-2.71 5.348-4.22 8.159 22.23 26.12 61.2 27.616 83.48.58 8.64-1.219 16.86-4.801 24.69-11.828 25.88-20.473 35.41-19.818 65.39-21.555-16.85-43.701-33.25-64.774-50.68l-6.011-88.31c-1.073-14.7-.938-31.28-4.586-45.59-1.505-5.9-5.047-11.59-9.586-15.65-.411-.36-.835-.72-1.253-1.08"/><path fill="#fbb52d" d="M635.434 1201.97c4.94-.21 8.675 1.64 12.345 4.92 3.838 3.44 7.029 8 9.572 12.47 8.509 14.94 14.832 31.81 21.79 47.54 9.319 21.07 19.15 41.89 28.337 63.02 6.018 13.83 11.462 30.56 20.948 42.32-5.749 7.07-17.621 46.08-23.794 46.73-1.657.17-3.216.12-4.875.05-.636-4.21-5.573-7.58-8.827-10.08-2.753-7.77-7.45-15.64-11.039-23.12a3584 3584 0 0 1-20.829-44.16c1.223-2 2.385-4.04 3.486-6.1 17.487-33.54-12.896-82.11-23.482-114.64 2.753-7.01-1.184-12.29-3.632-18.95"/><path fill="#fdfdfd" d="M657.181 1346.16c9.686 18.42 16.793 38.26 27.112 56.35 1.84 3.22 2.926 5.44 6.637 6.43 3.254 2.5 8.191 5.87 8.827 10.08 2.519 4.43 4.276 6.63 2.874 11.85-1.03 3.83-3.631 7.94-5.452 11.48-3.873-1.88-7.96-5.07-12.188-4.08-2.768 1.27-3.373 1.62-6.367 1.34l-1.673-2.53c-4.43-3.78-7.506-10.54-9.105-16.02-4.281-7.79-16.327-14.43-23.347-20.06-3.37-24.88 2.841-33.33 12.682-54.84"/><path fill="#944263" d="M597.066 1439.83c18.093 13.05 35.58 27.14 53.929 39.79-14.198 2.1-29.377 1.11-43.757 1.76-11.014.5-21.989 2.22-32.953 2.7 8.493-14.33 15.679-29.19 22.781-44.25"/><path fill="#f8f7ea" d="M382.263 1855.5c15.565-26.9 29.293-54.92 43.595-82.5a13847 13847 0 0 0 76.453-148.89l24.712-48.46c4.42-8.82 8.338-18.23 13.419-26.66-3.073 42.56-10.213 85.35-15.456 127.75l-22.192 186.36 25.97.21c-.571 7.4-1.003 14.84-2.17 22.17-1.806 11.34-3.774 22.8-3.794 34.31-4.471 2.75-106.74 1.22-119.882.61.526-10.47-3.335-17.21-10.18-24.85-6.899-7.69-19.136-19.29-29.788-19.81-2.485-.12-4.228-.16-6.574-1.11 2.698-1.2 5.521-.92 8.41-.9-.666-1.88-.238-1.55-1.433-2.58-2.517-2.18-3.235-2.98-4.284-6.2l2.756-3.46c1.916-3.8 2.828-8.3 3.985-12.39 5.481 2.13 10.949 4.32 16.453 6.4"/><path fill="#f37166" d="M528.764 1863.31c12.458.18 50.099-1.79 60.049.24l-13.498.05c-.502 5.1-1.547 10.85-1.029 15.95-3.715 5.96-9.103 8.93-15.89 10.46-9.961 2.24-23.068 1.06-31.802-4.53 1.167-7.33 1.599-14.77 2.17-22.17"/><path fill="#29436b" d="M326.391 1830.8c12.739 7.29 25.76 13.01 39.419 18.3-1.157 4.09-2.069 8.59-3.985 12.39l-2.756 3.46c1.049 3.22 1.767 4.02 4.284 6.2 1.195 1.03.767.7 1.433 2.58-2.889-.02-5.712-.3-8.41.9 2.346.95 4.089.99 6.574 1.11 10.652.52 22.889 12.12 29.788 19.81 6.845 7.64 10.706 14.38 10.18 24.85 13.142.61 115.411 2.14 119.882-.61.02-11.51 1.988-22.97 3.794-34.31 8.734 5.59 21.841 6.77 31.802 4.53 6.787-1.53 12.175-4.5 15.89-10.46 14.001 5.8 51.935 15.09 57.728 29.1 1.352 3.27 1.569 7.28 1.76 10.79 68.541 1.46 137.694 1.26 206.246.25 7.727.03 15.5.24 23.222-.02l25.698-.06c48.152 1.09 96.364-.54 144.51.27l23.53-.03 23 .14 551.37-.05h164.76l42.22-.04c7.68-.08 16.25-.98 23.83.11 5.7.82 11.27 3.57 14.52 8.45 2.74 4.09 3.52 8.8 2.57 13.6-1.4 7.13-5.64 10.81-11.35 14.81-22.87 1.11-46.1.32-69.02.29l-120.2-.11-373.36.02-1127.055-.18c-1.659-1.1-3.337-2.28-4.856-3.58-4.189-3.56-6.569-8.92-6.912-14.36-.29-4.59 1.243-9 4.497-12.29 2.999-3.03 7.351-5.14 11.566-5.7 17.701-2.37 37.815-.71 55.781-.74 42.148-.07 84.314.42 126.458-.01-10.468-7.03-71.526-44.33-73.466-48.19l.874-2.37c8.35-8.91 14.987-20.48 25.333-27.25 3.294-2.05 6.552-8.34 8.851-11.6"/><path fill="#fbb52d" d="M326.391 1830.8c12.739 7.29 25.76 13.01 39.419 18.3-1.157 4.09-2.069 8.59-3.985 12.39l-2.756 3.46c1.049 3.22 1.767 4.02 4.284 6.2 1.195 1.03.767.7 1.433 2.58-2.889-.02-5.712-.3-8.41.9 2.346.95 4.089.99 6.574 1.11 10.652.52 22.889 12.12 29.788 19.81 6.845 7.64 10.706 14.38 10.18 24.85-9.489-.51-19.299-.44-28.769.25-28.38-14.75-53.067-37.11-81.942-51 8.35-8.91 14.987-20.48 25.333-27.25 3.294-2.05 6.552-8.34 8.851-11.6"/><path fill="#f37166" d="M326.391 1830.8c12.739 7.29 25.76 13.01 39.419 18.3-1.157 4.09-2.069 8.59-3.985 12.39-7.189-3.43-16.94-.3-24.83-3.68-7.579-3.24-11.323-11.58-18.151-14.83-.43-.21-.869-.39-1.304-.58 3.294-2.05 6.552-8.34 8.851-11.6"/><path d="M317.54 1842.4c.435.19.874.37 1.304.58 6.828 3.25 10.572 11.59 18.151 14.83 7.89 3.38 17.641.25 24.83 3.68l-2.756 3.46c-10.548.12-20.486-1.54-29.554-7.37-5.254-3.37-10.672-8.91-11.975-15.18"/><path fill="#fbb52d" d="M574.286 1879.55c14.001 5.8 51.935 15.09 57.728 29.1 1.352 3.27 1.569 7.28 1.76 10.79-12.482-1.73-99.5-1.43-110.974.35.02-11.51 1.988-22.97 3.794-34.31 8.734 5.59 21.841 6.77 31.802 4.53 6.787-1.53 12.175-4.5 15.89-10.46m320.104-187.2 35.696-11.01c5.353 10.07 9.816 20.52 15.063 30.61 8.467-.56 17.305-1.35 25.755-.17 4.687-10.21 9.184-20.56 14.266-30.58a775 775 0 0 0 36.35 9.77c-2.22 11.86-4.73 23.74-6.29 35.71 7.58 3.69 13.71 7.4 19.83 13.33 9.23-5.82 18.59-11.49 27.59-17.65 8.58 9.97 17.45 19.8 25.75 30-7.63 8.03-16.39 15.94-22.89 24.9 3.37 7.07 5.5 14.88 7.66 22.4 11.41.45 22.69 1.51 34.05 2.65.89 13.37 1.14 26.76 1.51 40.14-10.61.97-21.45 2.39-32.08 2.68-2.44 8.52-4.73 16.96-8.44 25.04 8.69 7.75 17.39 15.47 25.68 23.67-4.49 8.84-10.28 16.88-13.91 26.15l-23-.14-23.53.03c-48.146-.81-96.358.82-144.51-.27l-25.698.06c-7.722.26-15.495.05-23.222.02-4.187-8.88-9.698-17.06-14.965-25.32 8.469-7.8 17.323-15.42 25.191-23.83-2.756-7.63-5.193-15.11-7.005-23.03-10.603-2.5-21.4-3.26-32.203-4.45.167-13.26.24-26.52.222-39.77 11.075-.05 22.14-.68 33.148-1.91 2.826-7.79 5.41-15.67 7.75-23.62-7.163-7.98-14.546-15.63-22.133-23.2 6.906-10.37 13.878-20.85 21.266-30.88 9.64 5.07 18.641 11.37 27.734 17.35 7.252-5.21 14.685-10.47 22.865-14.15-2.568-11.34-5.889-23.04-7.5-34.53"/><path fill="#fdfdfd" d="M863.242 1919.67c1.804-5.07 9.027-7.78 13.609-9.95.706-.34 1.42-.66 2.142-.97 3.344 3.55 6.945 7.02 9.947 10.86zm170.208.21c3.08-3.25 6.37-6.43 9.11-9.96 5.05 3.09 9.89 6.1 14.42 9.93z"/><path fill="#f8f7ea" d="M954.062 1763.33c36.388-2.92 68.308 24.09 71.428 60.46 3.13 36.38-23.7 68.44-60.058 71.78-36.646 3.36-69.03-23.74-72.183-60.4-3.153-36.67 24.13-68.9 60.813-71.84"/><path fill="#29436b" d="M562.625 993.572c35.914-4.998 71.952-9.159 107.91-13.832-11.248 16.409-20.903 34.26-30.738 51.56-4.551 8.01-8.807 16.78-14.277 24.16-.509.25-1.021.49-1.526.75-3.895 1.97-6.803 5.44-10.775 7.27-9.405 4.33-56.345 17.77-59.785 20.39-.751.58-1.352 2.12-1.644 2.97l-1.459-1.16c-19.596 5.01-39.099 11.04-58.907 15.12 6.505-9.81 13.724-19.18 20.295-28.96q25.801-38.91 50.906-78.268"/></svg>