<svg version="1.1" xmlns="http://www.w3.org/2000/svg" style="display: block;" viewBox="0 0 2048 2048" width="1024" height="1024">
<path transform="translate(0,0)" fill="rgb(254,254,254)" d="M 0 0 L 2048 0 L 2048 2048 L 0 2048 L 0 0 z"/>
<path transform="translate(0,0)" fill="rgb(199,14,50)" d="M 685.648 1455.36 A 79.1461 79.1461 0 0 1 738.718 1469.52 C 757.39 1482.82 770.796 1502.56 774.288 1525.37 C 783.615 1586.27 727.974 1663.98 694.229 1710.5 L 692.167 1711.59 C 691.632 1711.28 690.875 1710.88 690.365 1710.48 C 684.673 1706 679.424 1697.16 675.043 1691.23 C 648.698 1655.61 612.169 1597.36 606.687 1553.37 C 603.736 1529.68 609.919 1507.43 624.783 1488.76 C 640.235 1469.36 661.17 1458.25 685.648 1455.36 z"/>
<path transform="translate(0,0)" fill="rgb(254,254,254)" d="M 684.742 1464.34 C 701.264 1462.05 720.053 1467.38 733.546 1476.91 C 750.483 1488.88 762.74 1507.86 766.113 1528.36 C 774.702 1580.55 724.648 1653.12 694.871 1694.33 L 693.179 1696.28 L 691.384 1695.88 C 684.126 1688.85 678.078 1679.23 672.22 1670.98 C 647.587 1636.3 622.368 1595.86 616.048 1553.07 C 613.041 1532.71 617.018 1513.15 629.533 1496.59 C 643.403 1478.25 662.054 1467.48 684.742 1464.34 z"/>
<path transform="translate(0,0)" fill="rgb(199,14,50)" d="M 684.162 1496.16 C 694.36 1495.55 704.509 1497.13 713.507 1502.2 A 44.22 44.22 0 0 1 734.259 1528.99 A 45.4825 45.4825 0 0 1 730.163 1563.48 C 723.004 1576.05 711.763 1582.22 698.24 1585.72 C 686.759 1586.37 676.18 1585.79 665.976 1579.7 C 655.878 1573.67 649.506 1563.4 646.993 1552.05 A 47.7364 47.7364 0 0 1 653.423 1515.82 C 660.763 1504.56 671.398 1499.04 684.162 1496.16 z"/>
<path transform="translate(0,0)" fill="rgb(254,254,254)" d="M 685.943 1505.12 C 693.541 1504.65 700.77 1505.7 707.537 1509.38 A 37.4899 37.4899 0 0 1 726.021 1533.13 A 36.4386 36.4386 0 0 1 721.542 1560.81 C 715.625 1570.32 706.729 1575.17 696.032 1577.45 C 688.299 1578.23 680.409 1577.3 673.447 1573.69 C 664.79 1569.21 658.754 1561.26 656.032 1551.97 A 36.1025 36.1025 0 0 1 659.106 1524.21 C 665.072 1513.5 674.558 1508.29 685.943 1505.12 z"/>
<path transform="translate(0,0)" fill="rgb(199,14,50)" d="M 1516.58 410.712 C 1518.78 410.442 1520.91 410.751 1522.43 409.068 C 1506.77 366.558 1480.99 329.498 1502.4 283.552 C 1513.13 260.539 1532.9 243.874 1556.66 235.418 C 1581.39 226.612 1606.93 228.818 1630.41 240.277 C 1652.53 251.072 1670.37 270.249 1678.21 293.737 C 1681.84 304.612 1683.38 316.991 1682.03 328.406 C 1679.22 352.305 1661.65 388.42 1650.75 409.977 C 1650.56 410.349 1650.36 410.714 1650.16 411.083 C 1648.36 413.844 1646.97 416.464 1645.67 419.495 C 1642.54 420.807 1635.49 436.134 1633.81 440.082 C 1633.46 440.919 1633.17 441.783 1632.86 442.639 C 1620.79 461.288 1608.57 487.883 1587.38 497.081 L 1585.65 497.844 C 1566.78 488.436 1556.87 465.939 1545.76 448.995 C 1544.91 446.122 1544.42 443.493 1542.18 441.352 C 1536.49 433.038 1531.51 423.869 1526.29 415.239 C 1525.91 414.505 1525.28 413.198 1524.75 412.602 C 1522.7 410.309 1519.38 410.86 1516.58 410.712 z"/>
<path transform="translate(0,0)" fill="rgb(254,254,254)" d="M 1583.66 239.387 C 1584.28 239.296 1584.9 239.255 1585.53 239.227 C 1606.44 238.27 1631.11 247.975 1646.48 262.048 C 1661.7 275.986 1672.19 296.257 1672.87 317.05 C 1674.1 354.544 1617.37 457.317 1591.31 485.013 C 1590.05 486.025 1589.19 486.836 1587.56 487.182 C 1586.09 487.494 1584.67 486.487 1583.54 485.608 C 1572.53 477.031 1562.92 458.5 1555.85 446.43 C 1537.52 415.159 1508.34 365.248 1503.84 329.191 C 1501.27 308.608 1508.94 287.125 1521.64 271.03 C 1536.89 251.714 1559.74 242.155 1583.66 239.387 z"/>
<path transform="translate(0,0)" fill="rgb(199,14,50)" d="M 1583.47 274.241 C 1595.17 273.684 1605.7 275.978 1615.4 282.807 A 48.4056 48.4056 0 0 1 1635.41 314.208 A 53.0303 53.0303 0 0 1 1625.93 353.903 C 1617.59 365.337 1606.52 370.533 1592.87 372.604 C 1581.58 373.074 1570.93 371.019 1561.28 364.855 C 1550.32 357.862 1543.31 346.76 1540.72 334.102 A 51.2315 51.2315 0 0 1 1549.24 294.282 C 1557.64 282.532 1569.53 276.6 1583.47 274.241 z"/>
<path transform="translate(0,0)" fill="rgb(254,254,254)" d="M 1583.14 284.186 C 1591.46 283.359 1600.21 284.888 1607.54 288.97 C 1616.9 294.181 1623.21 303.431 1625.69 313.747 A 40.4973 40.4973 0 0 1 1620.46 344.745 C 1613.98 355.1 1604.83 360.203 1593.25 362.827 C 1584.84 363.493 1577.25 362.484 1569.74 358.408 A 39.8272 39.8272 0 0 1 1550.39 334.009 C 1547.53 323.273 1549.49 311.039 1555.46 301.683 C 1561.99 291.468 1571.56 286.468 1583.14 284.186 z"/>
<path transform="translate(0,0)" fill="rgb(0,0,0)" d="M 1293.88 361.734 C 1283.58 361.591 1232.56 364.002 1227.25 359.19 C 1224.28 352.875 1225.49 330.467 1227.84 323.824 C 1228.45 323.23 1228.93 322.49 1229.65 322.044 C 1233.84 319.442 1312.1 321.006 1323.79 321.03 C 1333.68 349.764 1343.19 380.906 1348.66 410.787 L 1516.58 410.712 C 1519.38 410.86 1522.7 410.309 1524.75 412.602 C 1525.28 413.198 1525.91 414.505 1526.29 415.239 C 1525.8 416.464 1525.61 418.3 1524.28 418.767 C 1518.45 420.818 1360.26 419.391 1343.13 418.955 C 1334.75 389.402 1327.72 358.95 1317.89 329.873 A 3821.75 3821.75 0 0 0 1234.69 329.702 C 1234.27 337.428 1234.12 345.052 1234.29 352.788 C 1256.12 352.801 1278.3 352.011 1300.08 353.042 C 1306.68 373.338 1311.61 394.191 1317.49 414.709 A 9424.08 9424.08 0 0 1 1369.69 604.894 C 1380.12 643.901 1389.83 683.507 1401.89 722.031 C 1408.14 716.986 1414.48 712.757 1421.64 709.096 C 1418.51 698.829 1407.36 666.713 1409.37 657.637 C 1417.45 654.002 1451.58 656.064 1463.11 656.103 L 1631.63 656.095 C 1651.3 656.129 1696.07 658.333 1713.21 655.112 C 1720.19 653.801 1723.85 652.752 1726.5 645.817 C 1730.83 634.496 1732.94 622.209 1735.52 610.386 L 1748.58 548.212 L 1765.35 472.878 C 1769.37 455.062 1773.88 437.326 1776.25 419.189 A 8739.92 8739.92 0 0 0 1686.88 419.48 C 1673.44 419.556 1658.99 420.751 1645.67 419.495 C 1646.97 416.464 1648.36 413.844 1650.16 411.083 C 1676.81 411.38 1703.5 411.264 1730.15 411.129 C 1745.76 411.049 1767.98 408.678 1782.81 412.552 C 1784.67 414.215 1785.14 414.588 1785.41 417.267 C 1786.77 430.783 1759.05 540.659 1754.23 562.73 C 1748.38 589.547 1744.58 617.77 1736.79 644.039 C 1735.31 649.043 1732.79 653.703 1729.16 657.487 C 1723.97 662.88 1718.09 663.662 1710.96 664.383 C 1699.12 665.579 1686.72 664.792 1674.81 664.763 L 1609.37 664.637 L 1418.46 665.094 C 1421.53 679.235 1425.05 692.678 1430.32 706.202 C 1439.18 704.146 1448.77 704.68 1457.54 706.911 C 1474.8 711.3 1487.63 722.512 1496.57 737.6 A 9460.21 9460.21 0 0 0 1628.93 738.424 C 1636.42 725.247 1647.67 713.422 1662.09 708.035 C 1675.97 702.853 1690.94 703.334 1704.37 709.731 C 1718.39 716.412 1730.26 728.792 1735.3 743.587 C 1740.17 757.831 1739.22 774.518 1732.56 788.016 A 56.1003 56.1003 0 0 1 1699.51 816.479 C 1685.03 821.15 1669.92 819.412 1656.53 812.465 C 1640.73 804.269 1631.64 791.603 1626.26 774.934 C 1584.6 773.937 1542.71 774.638 1501.04 774.933 C 1499.92 779.165 1498.54 783.408 1496.75 787.412 A 58.9693 58.9693 0 0 1 1462.91 818.697 A 56.9197 56.9197 0 0 1 1417.94 816.006 A 58.28 58.28 0 0 1 1388.47 781.996 C 1382.44 763.692 1386.55 747.944 1394.77 731.278 C 1383.36 685.264 1369.85 639.768 1357.41 594.032 A 15550.1 15550.1 0 0 0 1293.88 361.734 z"/>
<path transform="translate(0,0)" fill="rgb(254,254,254)" d="M 1500.57 747.143 C 1516.29 745.969 1532.32 746.502 1548.07 746.519 L 1625.71 746.718 C 1625.11 753.03 1625.3 759.523 1625.24 765.866 C 1611.53 767.076 1596.84 766.252 1583.05 766.235 L 1502.95 766.022 A 840.709 840.709 0 0 1 1500.57 747.143 z"/>
<path transform="translate(0,0)" fill="rgb(254,254,254)" d="M 1676.98 713.292 C 1686.98 712.429 1698.2 715.197 1706.73 720.364 A 49.1955 49.1955 0 0 1 1728.8 750.761 C 1731.91 763.902 1729.52 778.576 1722.07 789.868 C 1714.03 802.067 1702.46 807.927 1688.61 811.011 C 1676.88 811.206 1666.38 809.513 1656.26 803.071 C 1644.78 795.763 1637.18 783.707 1634.63 770.418 A 48.7969 48.7969 0 0 1 1643.07 732.089 C 1651.55 720.443 1663.13 715.364 1676.98 713.292 z"/>
<path transform="translate(0,0)" fill="rgb(0,0,0)" d="M 1677.49 736.953 C 1682.86 736.782 1687.47 737.424 1692.36 739.81 A 24.6973 24.6973 0 0 1 1705.24 755.01 C 1707.2 761.419 1706.42 768.769 1702.99 774.544 C 1698.92 781.385 1693.22 784.044 1685.8 786.045 C 1681.75 786.273 1677.73 786.288 1673.82 785.068 A 23.0536 23.0536 0 0 1 1660.03 773.57 C 1657 767.605 1656.46 760.252 1658.75 753.947 C 1662.1 744.697 1669.01 740.681 1677.49 736.953 z"/>
<path transform="translate(0,0)" fill="rgb(254,254,254)" d="M 1679.17 745.971 C 1681.44 745.93 1683.76 745.877 1685.97 746.513 C 1689.79 747.611 1693.32 750.704 1695.2 754.163 A 15.5547 15.5547 0 0 1 1696.06 766.947 C 1693.98 772.646 1690.1 774.76 1684.82 777.083 C 1682.54 777.048 1680.38 776.856 1678.2 776.168 C 1673.74 774.765 1669.77 771.482 1667.84 767.2 A 14.4265 14.4265 0 0 1 1667.61 755.793 C 1669.8 750.297 1674.02 748.18 1679.17 745.971 z"/>
<path transform="translate(0,0)" fill="rgb(254,254,254)" d="M 1439.01 714.329 C 1450.43 714.176 1460.77 715.769 1470.55 722.185 C 1482.05 729.735 1489.77 742.264 1492.07 755.763 C 1494.29 768.83 1491.1 782.916 1483.08 793.53 C 1474.32 805.115 1462.04 810.643 1448.04 812.702 C 1436.93 813.195 1426.35 810.952 1416.9 804.857 A 50.4728 50.4728 0 0 1 1395.02 771.695 C 1392.63 758.81 1396.08 745.893 1403.5 735.231 C 1412.17 722.752 1424.47 716.797 1439.01 714.329 z"/>
<path transform="translate(0,0)" fill="rgb(0,0,0)" d="M 1439.26 737.126 C 1443.83 736.684 1448.57 736.497 1452.94 738.096 C 1459.64 740.544 1464.89 745.318 1467.83 751.821 C 1470.92 758.656 1471.41 766.832 1468.63 773.845 C 1465.07 782.845 1458.02 786.95 1449.63 790.602 C 1444.44 791.234 1440.02 791.21 1435.03 789.387 C 1428.39 786.96 1423.16 782.106 1420.37 775.593 C 1417.42 768.718 1417.53 760.591 1420.47 753.732 C 1424.29 744.844 1430.55 740.584 1439.26 737.126 z"/>
<path transform="translate(0,0)" fill="rgb(254,254,254)" d="M 1439.81 746.096 C 1442.94 745.795 1446.23 745.313 1449.29 746.268 C 1454.06 747.756 1458.21 751.486 1460.29 756.021 A 19.9094 19.9094 0 0 1 1460.77 771.408 C 1458.34 777.862 1453.76 780.443 1447.71 783.018 C 1445.13 783.058 1442.48 782.733 1440.02 781.953 C 1434.93 780.342 1430.22 776.789 1427.89 771.917 C 1425.81 767.557 1425.63 762.815 1427.26 758.281 C 1429.48 752.099 1434.12 748.847 1439.81 746.096 z"/>
<path transform="translate(0,0)" fill="rgb(254,254,254)" d="M 1234.69 329.702 A 3821.75 3821.75 0 0 1 1317.89 329.873 C 1327.72 358.95 1334.75 389.402 1343.13 418.955 C 1360.26 419.391 1518.45 420.818 1524.28 418.767 C 1525.61 418.3 1525.8 416.464 1526.29 415.239 C 1531.51 423.869 1536.49 433.038 1542.18 441.352 C 1544.42 443.493 1544.91 446.122 1545.76 448.995 C 1556.87 465.939 1566.78 488.436 1585.65 497.844 L 1587.38 497.081 C 1608.57 487.883 1620.79 461.288 1632.86 442.639 C 1633.17 441.783 1633.46 440.919 1633.81 440.082 C 1635.49 436.134 1642.54 420.807 1645.67 419.495 C 1658.99 420.751 1673.44 419.556 1686.88 419.48 A 8739.92 8739.92 0 0 1 1776.25 419.189 C 1773.88 437.326 1769.37 455.062 1765.35 472.878 L 1748.58 548.212 L 1735.52 610.386 C 1732.94 622.209 1730.83 634.496 1726.5 645.817 C 1723.85 652.752 1720.19 653.801 1713.21 655.112 C 1696.07 658.333 1651.3 656.129 1631.63 656.095 L 1463.11 656.103 C 1451.58 656.064 1417.45 654.002 1409.37 657.637 C 1407.36 666.713 1418.51 698.829 1421.64 709.096 C 1414.48 712.757 1408.14 716.986 1401.89 722.031 C 1389.83 683.507 1380.12 643.901 1369.69 604.894 A 9424.08 9424.08 0 0 0 1317.49 414.709 C 1311.61 394.191 1306.68 373.338 1300.08 353.042 C 1278.3 352.011 1256.12 352.801 1234.29 352.788 C 1234.12 345.052 1234.27 337.428 1234.69 329.702 z"/>
<path transform="translate(0,0)" fill="rgb(0,0,0)" d="M 1651.25 540.996 L 1726.13 541.18 C 1721.77 570.679 1714.46 599.504 1708.28 628.645 C 1707.8 630.634 1707.1 632.41 1706.32 634.298 C 1699.4 638.217 1652.74 635.549 1641.96 635.423 C 1645.98 604.081 1646.78 572.254 1651.25 540.996 z"/>
<path transform="translate(0,0)" fill="rgb(254,254,254)" d="M 1659.12 549.665 A 3117.76 3117.76 0 0 1 1716.3 549.792 A 1590.07 1590.07 0 0 1 1700.63 619.759 C 1700.08 621.708 1699.44 623.575 1698.78 625.489 C 1695.14 628.555 1658.91 626.732 1651.76 626.637 C 1654.76 601.475 1658.5 574.913 1659.12 549.665 z"/>
<path transform="translate(0,0)" fill="rgb(0,0,0)" d="M 1376.92 540.844 C 1401.32 539.665 1426.17 540.627 1450.61 540.718 C 1454.67 555.616 1457.22 571.327 1460.42 586.456 C 1463.79 602.408 1468.53 619.132 1469.68 635.386 C 1448.36 637.395 1425.71 635.891 1404.26 635.739 C 1397.16 617.017 1392.48 597.395 1387.01 578.151 C 1383.55 566 1378.65 553.355 1376.92 540.844 z"/>
<path transform="translate(0,0)" fill="rgb(254,254,254)" d="M 1388.99 549.26 C 1407.2 548.724 1425.52 549.14 1443.75 549.16 A 3017.81 3017.81 0 0 1 1459.33 627.021 L 1410.19 627.07 C 1402.01 601.598 1395.23 575.277 1388.99 549.26 z"/>
<path transform="translate(0,0)" fill="rgb(0,0,0)" d="M 1461.11 541.013 C 1487.59 540.729 1514.1 540.99 1540.59 540.989 C 1542.98 561.967 1547.74 583.4 1551.96 604.095 C 1553.86 613.454 1558.55 626.113 1557.9 635.277 C 1532.16 636.059 1506.24 635.69 1480.49 635.344 A 3003.94 3003.94 0 0 0 1461.11 541.013 z"/>
<path transform="translate(0,0)" fill="rgb(254,254,254)" d="M 1472.34 549.257 C 1492.37 548.783 1512.53 549.252 1532.57 549.284 C 1538.82 574.483 1542.13 600.876 1547.36 626.377 A 1811.4 1811.4 0 0 1 1488.67 626.283 C 1482.1 604.91 1475.69 571.652 1472.34 549.257 z"/>
<path transform="translate(0,0)" fill="rgb(0,0,0)" d="M 1550.01 540.974 L 1642.24 540.98 C 1639.24 569.731 1634.61 598.658 1632.81 627.489 C 1632.54 630.074 1632.21 632.079 1631.3 634.544 C 1626.32 637.726 1576.55 635.643 1567.62 635.524 C 1566.54 623.259 1563.61 610.955 1561.17 598.897 A 1575.22 1575.22 0 0 1 1550.01 540.974 z"/>
<path transform="translate(0,0)" fill="rgb(254,254,254)" d="M 1560.53 549.031 L 1632.41 549.054 C 1629.72 572.659 1627.34 596.341 1623.93 619.854 C 1623.75 622.489 1623.56 623.927 1622.28 626.318 C 1607.54 628.266 1590.94 626.663 1576 626.531 C 1571.18 600.696 1564.25 575.029 1560.53 549.031 z"/>
<path transform="translate(0,0)" fill="rgb(0,0,0)" d="M 1542.18 441.352 C 1544.42 443.493 1544.91 446.122 1545.76 448.995 C 1556.87 465.939 1566.78 488.436 1585.65 497.844 L 1587.38 497.081 C 1608.57 487.883 1620.79 461.288 1632.86 442.639 C 1634.07 442.378 1634.07 442.352 1635.53 442.192 C 1654.71 440.092 1677.18 441.889 1696.73 441.941 C 1711.72 441.981 1727.77 440.65 1742.61 441.993 C 1745.11 442.219 1745.62 442.553 1747.52 444.068 C 1747.61 453.06 1743.75 464.232 1741.82 473.158 A 5230.53 5230.53 0 0 0 1729.5 531.344 C 1704.1 532.516 1678.09 531.227 1652.64 531.12 C 1654.87 514.797 1656.12 498.386 1658.03 482.051 C 1658.94 474.26 1660.81 466.292 1661.06 458.468 C 1661.14 455.781 1660.84 453.795 1659.61 451.359 C 1657.2 450.259 1657.34 450.457 1654.82 451.394 C 1653 453.689 1652.11 455.632 1651.5 458.516 C 1649.72 466.897 1649.73 476.014 1648.76 484.543 C 1646.99 500.041 1644.62 515.501 1642.82 531.011 L 1548.17 531.05 C 1545.12 512.504 1538.11 467.134 1531.62 451.474 C 1529.02 449.911 1524.95 450.561 1521.95 450.654 C 1528.13 476.852 1534.05 504.483 1537.53 531.146 C 1511.18 531.871 1484.63 531.678 1458.27 531.389 C 1456.84 521.271 1444.03 455.352 1440.33 451.351 C 1437.29 451.073 1434.88 451.375 1431.89 451.961 C 1430.38 456.687 1447.03 519.737 1449.16 531.12 C 1424.69 532.24 1400.12 530.963 1375.6 531.919 C 1371.77 521.975 1351.02 450.399 1351.53 444.309 C 1353.78 442.335 1356.11 442.053 1359.01 441.819 C 1378.99 440.206 1400.21 441.596 1420.29 441.589 L 1542.18 441.352 z"/>
<path transform="translate(0,0)" fill="rgb(254,254,254)" d="M 1585.65 497.844 L 1587.38 497.081 C 1608.57 487.883 1620.79 461.288 1632.86 442.639 C 1632.16 445.654 1631.26 447.113 1632.59 449.97 C 1635.78 450.998 1639.16 450.827 1642.48 450.901 A 1059.81 1059.81 0 0 1 1637.95 495.519 C 1636.87 504.356 1635.14 513.35 1634.67 522.229 L 1556.28 522.162 C 1553.65 510.188 1540.6 458.069 1543.13 450.776 L 1545.76 448.995 C 1556.87 465.939 1566.78 488.436 1585.65 497.844 z"/>
<path transform="translate(0,0)" fill="rgb(254,254,254)" d="M 1361.5 450.506 C 1381 449.263 1400.97 450.181 1420.52 450.288 C 1424.85 463.115 1437.85 511.088 1436.88 522.444 L 1381.85 522.811 C 1375.17 499.02 1366.21 474.673 1361.5 450.506 z"/>
<path transform="translate(0,0)" fill="rgb(254,254,254)" d="M 1450.12 450.854 C 1470.64 450.171 1491.36 450.377 1511.88 450.798 C 1518.46 474.016 1523.5 498.64 1527.54 522.431 C 1507.15 522.928 1486.69 522.621 1466.29 522.628 C 1461.63 498.543 1454.54 474.981 1450.12 450.854 z"/>
<path transform="translate(0,0)" fill="rgb(254,254,254)" d="M 1670.65 450.963 A 4167.14 4167.14 0 0 1 1737.76 450.904 L 1723.2 517.769 C 1722.94 519.803 1722.74 520.735 1721.43 522.33 C 1703.65 524.662 1681.11 522.548 1662.83 522.301 C 1666.4 498.721 1667.52 474.65 1670.65 450.963 z"/>
<path transform="translate(0,0)" fill="rgb(0,0,0)" d="M 432.841 1257.41 C 433.667 1257.33 434.498 1257.29 435.328 1257.25 C 470.845 1255.42 504.593 1268.9 530.726 1292.57 C 559.624 1318.75 573.67 1356.28 575.227 1394.71 C 577.152 1442.18 567.322 1498.58 534.111 1534.75 C 547.612 1548.02 560.312 1548.38 575.89 1555.97 C 577.913 1556.95 580.011 1558.55 580.992 1560.61 C 582.026 1562.79 581.863 1565.21 581.215 1567.46 C 576.887 1582.47 563.919 1594.88 550.742 1602.16 C 574.26 1614.36 596.783 1627.47 616.104 1645.92 C 645.466 1673.94 642.39 1697.18 643.249 1734.37 A 5699.91 5699.91 0 0 0 713.549 1734.83 C 727.233 1734.76 742.26 1733.37 755.771 1735.05 C 758.285 1735.36 759.943 1735.81 761.89 1737.54 C 762.37 1740.21 762.277 1740.14 760.887 1742.49 C 759.74 1743.13 759.523 1743.34 758.046 1743.64 C 751.355 1745.01 718.097 1743.52 709.085 1743.5 L 567.022 1743.36 C 454.937 1743.71 341.963 1741.9 229.992 1744.38 C 229.768 1726.33 227.942 1706.62 232.395 1688.97 C 243.681 1644.24 286.209 1620.88 322.889 1599.09 C 309.702 1587.24 300.539 1576.43 294.676 1559.38 C 310.203 1549.95 329.361 1543.46 346.051 1536.1 C 323.856 1504.99 312.991 1476.83 309.462 1438.53 C 305.129 1391.52 307.435 1340.86 339.259 1303.2 C 363.27 1274.79 396.35 1260.47 432.841 1257.41 z"/>
<path transform="translate(0,0)" fill="rgb(254,254,254)" d="M 388.659 1563.18 C 391.567 1566.61 393.85 1572.56 396.255 1576.5 C 405.848 1592.24 414.766 1600.57 430.483 1610.08 C 415.02 1615.58 400.461 1617.51 384.171 1614.95 C 367.817 1611.98 355.269 1605.22 342.046 1595.43 C 357.378 1584.39 373.634 1574.65 388.659 1563.18 z"/>
<path transform="translate(0,0)" fill="rgb(254,254,254)" d="M 491.165 1561.51 C 495.652 1564.49 499.88 1569.24 504.101 1572.73 C 516.446 1582.94 529.47 1590.56 544.499 1596.06 C 532.488 1605.72 519.746 1611.44 504.757 1614.66 C 484.981 1617.34 469.169 1614.73 450.121 1609.09 C 469.165 1596.48 480.214 1581.16 491.165 1561.51 z"/>
<path transform="translate(0,0)" fill="rgb(254,254,254)" d="M 399.284 1520.45 C 411.871 1527.75 423.637 1540.73 438.939 1542.09 C 454.77 1543.49 468.951 1530.25 480.19 1520.7 C 480.332 1531.96 480.154 1543.41 484.284 1554.03 C 480.7 1561.47 477.427 1568.77 472.711 1575.57 C 463.809 1587.71 453.523 1598.75 439.71 1605.2 C 418.257 1594.52 404.758 1576.81 395.775 1554.91 C 398.59 1543.3 399.17 1532.37 399.284 1520.45 z"/>
<path transform="translate(0,0)" fill="rgb(254,254,254)" d="M 458.076 1334.85 C 483.337 1362.7 489.864 1376.85 527.076 1391.19 C 525.926 1412.77 523.955 1434.13 516.86 1454.71 C 507.608 1481.54 478.507 1518.01 452.684 1529.92 C 444.611 1533.65 438.789 1533.9 430.565 1530.68 C 419.327 1524.89 408.465 1517.03 399.253 1508.38 C 363.6 1474.93 359.29 1440.6 357.934 1393.85 C 400.003 1387.61 431.459 1367.62 458.076 1334.85 z"/>
<path transform="translate(0,0)" fill="rgb(254,254,254)" d="M 434.296 1266.42 C 454.912 1264.71 475.32 1270.38 493.989 1278.75 C 522.834 1291.69 545.995 1317.49 557.011 1346.96 C 574.805 1394.57 567.327 1464.23 542.606 1508.32 C 539.79 1513.34 536.195 1519.43 531.966 1523.38 C 528.837 1526.3 523.691 1527.15 521.884 1531.16 C 522.026 1532.63 522.195 1533.97 522.887 1535.3 C 530.328 1549.65 557.887 1559.73 572.427 1564.61 C 569.054 1571.29 565.436 1579.92 560.054 1585.21 C 557.71 1587.51 555.102 1588.36 551.854 1588.24 C 535.2 1587.59 511.939 1569.3 500.734 1557.78 C 486.403 1543.04 488.767 1531.51 488.999 1512.56 C 512.568 1487.23 527.795 1461.01 532.699 1426.43 C 533.513 1420.68 537.675 1388.92 535.513 1385.63 C 535.259 1385.24 503.579 1369.39 498.849 1366.05 C 479.175 1352.2 474.231 1337.64 460.698 1319.76 C 457.904 1320.11 457.224 1321.19 455.141 1323.02 C 451.178 1328.86 447.143 1334.56 442.487 1339.88 C 418.301 1367.54 386.517 1382.89 349.896 1385.21 C 348.032 1415.68 352.152 1457.88 368.046 1484.34 C 373.32 1493.13 380.887 1500.22 386.547 1508.7 C 391.49 1516.11 391.671 1532.89 389.761 1541.48 C 385.334 1561.41 346.516 1581.57 329.869 1591.95 C 318.605 1584.85 312.047 1575.3 305.779 1563.84 C 317.33 1558.7 351.768 1547.49 359.081 1540.02 C 359.279 1539.82 360.563 1538.36 360.654 1537.8 C 360.718 1537.41 343.817 1517.63 339.639 1510.77 C 324.897 1486.57 319.492 1457.98 317.524 1430.07 C 314.548 1387.85 317.845 1340.74 346.949 1307.51 C 369.744 1281.48 400.274 1268.86 434.296 1266.42 z"/>
<path transform="translate(0,0)" fill="rgb(254,254,254)" d="M 333.922 1602.78 C 338.459 1603.48 355.228 1614.75 362.119 1617.48 C 389.981 1628.53 415.548 1625.89 442.644 1614.16 C 448.599 1618.04 455.065 1620.66 461.94 1622.39 C 491.112 1629.74 517.258 1623.65 542.436 1608.38 C 567.345 1620.92 592.741 1634.53 612.44 1654.63 C 637.138 1679.83 633.977 1701.64 633.696 1734.58 L 565.75 1734.79 L 239.113 1734.65 C 238.788 1719.51 237.7 1703.64 241.652 1688.87 C 253.346 1645.19 298.07 1623.71 333.922 1602.78 z"/>
<path transform="translate(0,0)" fill="rgb(0,0,0)" d="M 1446.2 1252.41 A 198.523 198.523 0 0 1 1558.73 1281.51 A 195.297 195.297 0 0 1 1646.3 1402.24 C 1659.24 1456.69 1646.48 1510.3 1617.37 1557.03 C 1632.51 1574.56 1650.12 1590.6 1666.49 1607.01 A 10776.4 10776.4 0 0 1 1752.19 1693.5 C 1766.19 1707.66 1783.45 1721.55 1795.28 1737.45 C 1798.84 1742.24 1800.78 1748.58 1801.16 1754.49 C 1801.82 1764.82 1797.58 1775.15 1790.5 1782.6 C 1783.91 1789.53 1774.85 1794.03 1765.21 1794.22 C 1758.68 1794.34 1751.41 1792.64 1745.75 1789.33 C 1733.5 1782.17 1696.68 1742.62 1684.25 1730.29 C 1660.05 1705.15 1634.93 1681.1 1610.13 1656.59 C 1594.31 1640.95 1579.19 1624.03 1561.97 1609.97 A 214.554 214.554 0 0 1 1473.76 1638.02 A 202.384 202.384 0 0 1 1322.88 1589.64 C 1286.54 1558.82 1263.13 1510.36 1259.62 1463.04 A 197.586 197.586 0 0 1 1308.12 1318.67 C 1343.39 1278.25 1393.07 1256.02 1446.2 1252.41 z"/>
<path transform="translate(0,0)" fill="rgb(254,254,254)" d="M 1610.75 1565.62 C 1626.16 1577.96 1639.73 1593.25 1653.63 1607.26 A 7114.98 7114.98 0 0 1 1716.42 1670.23 L 1758.76 1712.66 C 1768.97 1722.88 1779.79 1733.02 1788.63 1744.47 C 1792.21 1749.11 1793.16 1755.09 1792.26 1760.81 C 1790.95 1769.14 1785.2 1776.74 1778.34 1781.43 C 1771.1 1786.36 1764.02 1786.06 1755.75 1784.57 C 1739.56 1777.21 1688.76 1721.98 1673.86 1706.96 C 1654.33 1687.28 1634.3 1668.18 1614.63 1648.65 C 1599.72 1633.84 1585.45 1618.44 1569.98 1604.19 C 1585.19 1592.57 1598.33 1580.13 1610.75 1565.62 z"/>
<path transform="translate(0,0)" fill="rgb(254,254,254)" d="M 1445.3 1261.41 C 1445.54 1261.39 1445.78 1261.35 1446.03 1261.33 C 1490.83 1257.99 1541.4 1275.79 1575.65 1304.45 A 188.08 188.08 0 0 1 1642.03 1432.68 C 1645.88 1478.78 1629.38 1529.78 1599.21 1564.95 C 1564.92 1604.91 1517.55 1626.82 1465.54 1630.58 C 1418.8 1634.11 1366.53 1615.56 1330.94 1585.52 A 180.57 180.57 0 0 1 1268.6 1464.65 A 187.029 187.029 0 0 1 1311.53 1328.34 C 1346.22 1287.71 1392.23 1265.7 1445.3 1261.41 z"/>
<path transform="translate(0,0)" fill="rgb(0,0,0)" d="M 1451.85 1301.42 A 143.04 143.04 0 0 1 1547.4 1334.21 C 1576.71 1358.78 1596.76 1393.48 1599.73 1431.9 C 1602.72 1470.46 1592.28 1510.54 1566.65 1540.13 C 1539.6 1571.36 1499.89 1585.9 1459.64 1589 C 1421.48 1589.54 1386.31 1578.29 1357.17 1553.15 A 139.496 139.496 0 0 1 1309.29 1458.07 C 1306.48 1419.8 1318.81 1380.14 1344.24 1351.17 C 1372.57 1318.89 1409.75 1303.99 1451.85 1301.42 z"/>
<path transform="translate(0,0)" fill="rgb(254,254,254)" d="M 1439.57 1311.36 C 1471.77 1305.68 1509.05 1317.54 1535.2 1336.02 C 1562.31 1355.18 1584.01 1386.27 1589.65 1419.28 C 1595.84 1455.43 1588.98 1493.55 1567.59 1523.69 C 1544.96 1555.56 1509.81 1573.5 1471.96 1579.73 C 1435.73 1583.79 1398.86 1574.47 1369.81 1552.09 C 1341.63 1530.38 1322.37 1498.77 1318.05 1463.26 C 1313.73 1427.78 1324.6 1390.05 1346.63 1361.93 C 1369.82 1332.33 1402.71 1315.94 1439.57 1311.36 z"/>
<path transform="translate(0,0)" fill="rgb(199,14,50)" d="M 1448.57 1349.37 C 1456.18 1348.95 1468.18 1347.28 1474.19 1353.12 C 1479.97 1358.73 1476.95 1387.59 1476.97 1397.03 C 1492.81 1397.13 1535.17 1394.79 1546.85 1398.37 C 1548.75 1400.17 1549.27 1401.86 1549.74 1404.36 C 1551.2 1412.21 1551.42 1426.73 1546.71 1433.28 C 1542.97 1435.11 1537.16 1434.6 1533 1434.76 C 1532.89 1458.33 1533.43 1481.9 1533.42 1505.46 C 1533.42 1512.07 1534.03 1518.52 1528.81 1523.39 C 1527.1 1524.99 1525.64 1525.9 1523.32 1526.48 C 1513.04 1529.05 1478.6 1526.85 1465.64 1526.76 A 2394.38 2394.38 0 0 0 1419.61 1527.01 C 1411.35 1527.1 1401.83 1528.17 1393.68 1526.83 C 1390.49 1526.3 1387.86 1525.27 1385.46 1523.07 C 1383.21 1521 1382.15 1517.36 1381.76 1514.43 C 1380.67 1506.18 1381.87 1496.84 1381.95 1488.49 L 1382.17 1434.11 C 1377.63 1433.94 1372.28 1434.06 1368.41 1431.27 C 1365.18 1428.93 1364.63 1424.99 1364.48 1421.29 C 1364.19 1414.07 1363.12 1404.19 1368.15 1398.62 C 1377.73 1394.41 1426.25 1396.9 1439.7 1396.66 C 1439.98 1386.32 1436.88 1362.45 1441.57 1354.17 C 1443.3 1351.11 1445.44 1350.43 1448.57 1349.37 z"/>
<path transform="translate(0,0)" fill="rgb(254,254,254)" d="M 1450.82 1358.14 C 1457.03 1358 1462.71 1358.47 1468.84 1359.42 L 1468.95 1404.84 L 1542.08 1405.22 L 1542.1 1426.11 C 1517.83 1426.85 1493.37 1426.25 1469.08 1426.26 C 1468.88 1436.01 1470.72 1446.92 1468.56 1456.45 C 1467.66 1460.43 1465.59 1462.07 1462.32 1464.24 C 1458.7 1464.81 1454.43 1464.82 1451.39 1462.46 C 1443.78 1456.55 1447.34 1434.91 1447.09 1425.94 C 1422.37 1425.62 1397.63 1425.91 1372.9 1425.74 C 1372.81 1418.81 1372.92 1411.86 1372.94 1404.93 C 1397.88 1404.26 1422.87 1405.04 1447.82 1404.46 C 1448.15 1394.56 1445.36 1364.35 1450.82 1358.14 z"/>
<path transform="translate(0,0)" fill="rgb(254,254,254)" d="M 1427.95 1433.49 L 1440.15 1433.54 C 1440.08 1443.18 1436.64 1456.91 1442.84 1465.1 C 1446.09 1469.38 1451.14 1471.72 1456.43 1472.1 C 1462.1 1472.5 1468.14 1470.59 1472.24 1466.58 C 1479.84 1459.13 1477.27 1444.04 1477.07 1434.27 C 1492.68 1434.23 1508.32 1433.98 1523.92 1434.64 C 1527.37 1456.8 1525.11 1493.47 1524.93 1517.32 C 1516.69 1520.34 1409.57 1518.19 1389.98 1518.22 C 1389.71 1490.01 1390.17 1461.75 1390.32 1433.53 L 1427.95 1433.49 z"/>
<path transform="translate(0,0)" fill="rgb(0,0,0)" d="M 516.053 248.123 C 520.252 247.775 525.111 247.299 529.027 249.185 C 541.748 255.313 553.93 266.939 565.211 275.55 C 587.59 292.635 609.956 309.936 633.112 325.96 C 633.014 319.442 630.915 300.601 634.814 295.956 C 638.968 294.708 643.114 294.283 647.431 294.127 C 658.04 293.745 706.706 291.712 713.006 297.48 C 715.068 307.669 713.7 319.949 713.62 330.398 L 713.134 391.845 C 713.568 392.166 714.008 392.478 714.434 392.808 C 732.39 406.694 749.99 421.139 767.843 435.176 C 781.114 445.612 797.548 456.055 808.437 468.859 C 812.299 473.4 814.507 479.064 815.198 484.957 C 816.415 495.34 813.375 506.526 806.761 514.659 C 801.328 521.339 793.052 526.132 784.395 526.839 C 770.643 527.962 759.938 517.413 750.072 509.336 L 750.086 691.702 C 750.109 723.648 752.026 761.786 748.811 792.825 C 727.641 794.135 705.873 793.04 684.622 793.021 L 559.5 792.91 L 427.661 792.618 C 410.847 792.632 307.404 795.135 297.595 791.115 C 293.395 773.849 295.686 743.282 295.47 724.245 C 294.655 652.382 296.402 580.487 295.471 508.615 C 288.874 513.93 281.931 520.285 273.994 523.46 A 31.7432 31.7432 0 0 1 249.174 522.876 C 241.011 519.082 235.332 511.678 232.256 503.365 C 228.605 493.496 228.532 482.089 233.011 472.471 C 235.517 467.091 239.61 463.403 243.991 459.563 C 254.745 450.134 266.728 441.821 277.98 432.976 L 342.043 382.135 L 463.841 286.084 C 475.32 277.169 503.957 252.338 516.053 248.123 z"/>
<path transform="translate(0,0)" fill="rgb(254,254,254)" d="M 467.245 570.082 C 480.439 568.887 568.606 568.714 578.737 570.96 C 585.571 572.476 589.039 576.853 592.772 582.405 C 594.833 603.954 593.582 626.347 593.623 648.027 A 9704.07 9704.07 0 0 1 592.934 783.888 L 581.625 784.06 A 7792.29 7792.29 0 0 1 451.583 784.094 C 451.802 755.636 448.145 594.237 453.412 580.817 C 455.719 574.937 461.94 572.55 467.245 570.082 z"/>
<path transform="translate(0,0)" fill="rgb(254,254,254)" d="M 519.695 255.739 C 521.632 255.721 523.093 255.928 524.803 256.913 C 534.267 262.361 543.52 270.638 552.307 277.225 L 610.603 321.064 C 617.837 326.581 624.985 333.193 632.754 337.865 C 635.3 339.396 636.863 340.032 639.81 339.822 C 644.49 332.674 642.048 312.195 642.055 303.129 A 3099.31 3099.31 0 0 1 705.041 303.182 L 704.897 395.528 C 711.351 402.651 719.594 408.482 727.092 414.456 L 772.643 450.495 C 781.442 457.404 791.361 464.088 799.091 472.148 C 802.053 475.237 804.548 478.802 805.483 483.04 C 807.302 491.298 805.866 500.945 801.092 507.988 C 797.758 512.908 792.528 516.53 786.566 517.286 C 781.775 517.894 777.178 517.137 773.013 514.669 C 753.104 502.875 728.594 480.131 709.556 465.379 C 656.056 423.923 602.867 381.641 548.441 341.432 C 541.181 335.863 531.458 326.079 522.324 324.446 C 519.396 323.922 517.34 324.141 514.746 325.689 C 508.215 329.587 502.138 335.214 496.095 339.893 A 3689.97 3689.97 0 0 0 456.074 371.135 A 14733.1 14733.1 0 0 1 338.758 463.825 C 320.913 477.848 297.388 498.13 279.035 510.075 C 272.259 514.485 264.366 517.726 256.192 515.663 C 249.699 514.025 244.542 509.13 241.46 503.315 A 28.5544 28.5544 0 0 1 239.478 481.362 C 240.833 477.026 242.734 473.576 246.007 470.397 C 257.44 459.29 271.696 449.598 284.2 439.575 A 5440.36 5440.36 0 0 1 371.179 370.427 L 462.319 298.36 C 478.376 285.627 502.083 264.668 519.695 255.739 z"/>
<path transform="translate(0,0)" fill="rgb(254,254,254)" d="M 520.674 333 C 532.772 338.188 544.321 349.135 554.897 357.16 A 2636.21 2636.21 0 0 1 626.279 412.645 C 664.406 442.843 703.271 471.928 740.973 502.703 C 742.333 596.505 741.43 690.517 741.255 784.337 C 695.12 784.294 648.883 785.233 602.763 784.254 C 601.42 763.228 602.008 741.701 602.078 720.631 L 602.112 637.448 C 602.147 620.523 604.399 600.475 601.364 583.926 C 600.359 578.448 597.861 573.694 593.873 569.802 C 580.207 556.463 543.564 560.917 524.5 561.08 C 505.365 561.09 464.757 556.513 451.057 569.998 C 446.553 574.432 444.141 579.889 443.176 586.082 C 440.418 603.762 442.308 630.706 442.253 649.143 L 442.041 784.119 C 396.197 783.948 350.214 785.322 304.397 784.185 C 302.907 751.794 304.453 718.663 304.541 686.186 L 304.792 502.287 C 318.036 490.414 332.664 479.838 346.712 468.916 A 3767.57 3767.57 0 0 0 406.373 421.76 L 477.305 365.351 C 491.116 354.455 505.48 341.857 520.674 333 z"/>
</svg>