<svg xmlns="http://www.w3.org/2000/svg" display="block" viewBox="0 0 2048 2048"><path fill="#fefefe" d="M0 0h2048v2048H0z"/><path fill="#c70e32" d="M685.648 1455.36a79.15 79.15 0 0 1 53.07 14.16c18.672 13.3 32.078 33.04 35.57 55.85 9.327 60.9-46.314 138.61-80.059 185.13l-2.062 1.09c-.535-.31-1.292-.71-1.802-1.11-5.692-4.48-10.941-13.32-15.322-19.25-26.345-35.62-62.874-93.87-68.356-137.86-2.951-23.69 3.232-45.94 18.096-64.61 15.452-19.4 36.387-30.51 60.865-33.4"/><path fill="#fefefe" d="M684.742 1464.34c16.522-2.29 35.311 3.04 48.804 12.57 16.937 11.97 29.194 30.95 32.567 51.45 8.589 52.19-41.465 124.76-71.242 165.97l-1.692 1.95-1.795-.4c-7.258-7.03-13.306-16.65-19.164-24.9-24.633-34.68-49.852-75.12-56.172-117.91-3.007-20.36.97-39.92 13.485-56.48 13.87-18.34 32.521-29.11 55.209-32.25"/><path fill="#c70e32" d="M684.162 1496.16c10.198-.61 20.347.97 29.345 6.04a44.22 44.22 0 0 1 20.752 26.79 45.48 45.48 0 0 1-4.096 34.49c-7.159 12.57-18.4 18.74-31.923 22.24-11.481.65-22.06.07-32.264-6.02-10.098-6.03-16.47-16.3-18.983-27.65a47.74 47.74 0 0 1 6.43-36.23c7.34-11.26 17.975-16.78 30.739-19.66"/><path fill="#fefefe" d="M685.943 1505.12c7.598-.47 14.827.58 21.594 4.26a37.5 37.5 0 0 1 18.484 23.75 36.44 36.44 0 0 1-4.479 27.68c-5.917 9.51-14.813 14.36-25.51 16.64-7.733.78-15.623-.15-22.585-3.76-8.657-4.48-14.693-12.43-17.415-21.72a36.1 36.1 0 0 1 3.074-27.76c5.966-10.71 15.452-15.92 26.837-19.09"/><path fill="#c70e32" d="M1516.58 410.712c2.2-.27 4.33.039 5.85-1.644-15.66-42.51-41.44-79.57-20.03-125.516 10.73-23.013 30.5-39.678 54.26-48.134 24.73-8.806 50.27-6.6 73.75 4.859 22.12 10.795 39.96 29.972 47.8 53.46 3.63 10.875 5.17 23.254 3.82 34.669-2.81 23.899-20.38 60.014-31.28 81.571-.19.372-.39.737-.59 1.106a53.4 53.4 0 0 0-4.49 8.412c-3.13 1.312-10.18 16.639-11.86 20.587-.35.837-.64 1.701-.95 2.557-12.07 18.649-24.29 45.244-45.48 54.442l-1.73.763c-18.87-9.408-28.78-31.905-39.89-48.849-.85-2.873-1.34-5.502-3.58-7.643-5.69-8.314-10.67-17.483-15.89-26.113-.38-.734-1.01-2.041-1.54-2.637-2.05-2.293-5.37-1.742-8.17-1.89"/><path fill="#fefefe" d="M1583.66 239.387c.62-.091 1.24-.132 1.87-.16 20.91-.957 45.58 8.748 60.95 22.821 15.22 13.938 25.71 34.209 26.39 55.002 1.23 37.494-55.5 140.267-81.56 167.963-1.26 1.012-2.12 1.823-3.75 2.169-1.47.312-2.89-.695-4.02-1.574-11.01-8.577-20.62-27.108-27.69-39.178-18.33-31.271-47.51-81.182-52.01-117.239-2.57-20.583 5.1-42.066 17.8-58.161 15.25-19.316 38.1-28.875 62.02-31.643"/><path fill="#c70e32" d="M1583.47 274.241c11.7-.557 22.23 1.737 31.93 8.566a48.4 48.4 0 0 1 20.01 31.401 53.03 53.03 0 0 1-9.48 39.695c-8.34 11.434-19.41 16.63-33.06 18.701-11.29.47-21.94-1.585-31.59-7.749-10.96-6.993-17.97-18.095-20.56-30.753a51.23 51.23 0 0 1 8.52-39.82c8.4-11.75 20.29-17.682 34.23-20.041"/><path fill="#fefefe" d="M1583.14 284.186c8.32-.827 17.07.702 24.4 4.784 9.36 5.211 15.67 14.461 18.15 24.777a40.5 40.5 0 0 1-5.23 30.998c-6.48 10.355-15.63 15.458-27.21 18.082-8.41.666-16-.343-23.51-4.419a39.83 39.83 0 0 1-19.35-24.399c-2.86-10.736-.9-22.97 5.07-32.326 6.53-10.215 16.1-15.215 27.68-17.497"/><path d="M1293.88 361.734c-10.3-.143-61.32 2.268-66.63-2.544-2.97-6.315-1.76-28.723.59-35.366.61-.594 1.09-1.334 1.81-1.78 4.19-2.602 82.45-1.038 94.14-1.014 9.89 28.734 19.4 59.876 24.87 89.757l167.92-.075c2.8.148 6.12-.403 8.17 1.89.53.596 1.16 1.903 1.54 2.637-.49 1.225-.68 3.061-2.01 3.528-5.83 2.051-164.02.624-181.15.188-8.38-29.553-15.41-60.005-25.24-89.082a3822 3822 0 0 0-83.2-.171c-.42 7.726-.57 15.35-.4 23.086 21.83.013 44.01-.777 65.79.254 6.6 20.296 11.53 41.149 17.41 61.667a9424 9424 0 0 1 52.2 190.185c10.43 39.007 20.14 78.613 32.2 117.137 6.25-5.045 12.59-9.274 19.75-12.935-3.13-10.267-14.28-42.383-12.27-51.459 8.08-3.635 42.21-1.573 53.74-1.534l168.52-.008c19.67.034 64.44 2.238 81.58-.983 6.98-1.311 10.64-2.36 13.29-9.295 4.33-11.321 6.44-23.608 9.02-35.431l13.06-62.174 16.77-75.334c4.02-17.816 8.53-35.552 10.9-53.689a8740 8740 0 0 0-89.37.291c-13.44.076-27.89 1.271-41.21.015a53.4 53.4 0 0 1 4.49-8.412c26.65.297 53.34.181 79.99.046 15.61-.08 37.83-2.451 52.66 1.423 1.86 1.663 2.33 2.036 2.6 4.715 1.36 13.516-26.36 123.392-31.18 145.463-5.85 26.817-9.65 55.04-17.44 81.309-1.48 5.004-4 9.664-7.63 13.448-5.19 5.393-11.07 6.175-18.2 6.896-11.84 1.196-24.24.409-36.15.38l-65.44-.126-190.91.457c3.07 14.141 6.59 27.584 11.86 41.108 8.86-2.056 18.45-1.522 27.22.709 17.26 4.389 30.09 15.601 39.03 30.689a9460 9460 0 0 0 132.36.824c7.49-13.177 18.74-25.002 33.16-30.389 13.88-5.182 28.85-4.701 42.28 1.696 14.02 6.681 25.89 19.061 30.93 33.856 4.87 14.244 3.92 30.931-2.74 44.429a56.1 56.1 0 0 1-33.05 28.463c-14.48 4.671-29.59 2.933-42.98-4.014-15.8-8.196-24.89-20.862-30.27-37.531-41.66-.997-83.55-.296-125.22-.001-1.12 4.232-2.5 8.475-4.29 12.479a58.97 58.97 0 0 1-33.84 31.285 56.92 56.92 0 0 1-44.97-2.691 58.28 58.28 0 0 1-29.47-34.01c-6.03-18.304-1.92-34.052 6.3-50.718-11.41-46.014-24.92-91.51-37.36-137.246a15550 15550 0 0 0-63.53-232.298"/><path fill="#fefefe" d="M1500.57 747.143c15.72-1.174 31.75-.641 47.5-.624l77.64.199c-.6 6.312-.41 12.805-.47 19.148-13.71 1.21-28.4.386-42.19.369l-80.1-.213a841 841 0 0 1-2.38-18.879m176.41-33.851c10-.863 21.22 1.905 29.75 7.072a49.2 49.2 0 0 1 22.07 30.397c3.11 13.141.72 27.815-6.73 39.107-8.04 12.199-19.61 18.059-33.46 21.143-11.73.195-22.23-1.498-32.35-7.94-11.48-7.308-19.08-19.364-21.63-32.653a48.8 48.8 0 0 1 8.44-38.329c8.48-11.646 20.06-16.725 33.91-18.797"/><path d="M1677.49 736.953c5.37-.171 9.98.471 14.87 2.857a24.7 24.7 0 0 1 12.88 15.2c1.96 6.409 1.18 13.759-2.25 19.534-4.07 6.841-9.77 9.5-17.19 11.501-4.05.228-8.07.243-11.98-.977a23.05 23.05 0 0 1-13.79-11.498c-3.03-5.965-3.57-13.318-1.28-19.623 3.35-9.25 10.26-13.266 18.74-16.994"/><path fill="#fefefe" d="M1679.17 745.971c2.27-.041 4.59-.094 6.8.542 3.82 1.098 7.35 4.191 9.23 7.65a15.56 15.56 0 0 1 .86 12.784c-2.08 5.699-5.96 7.813-11.24 10.136-2.28-.035-4.44-.227-6.62-.915-4.46-1.403-8.43-4.686-10.36-8.968a14.43 14.43 0 0 1-.23-11.407c2.19-5.496 6.41-7.613 11.56-9.822m-240.16-31.642c11.42-.153 21.76 1.44 31.54 7.856 11.5 7.55 19.22 20.079 21.52 33.578 2.22 13.067-.97 27.153-8.99 37.767-8.76 11.585-21.04 17.113-35.04 19.172-11.11.493-21.69-1.75-31.14-7.845a50.47 50.47 0 0 1-21.88-33.162c-2.39-12.885 1.06-25.802 8.48-36.464 8.67-12.479 20.97-18.434 35.51-20.902"/><path d="M1439.26 737.126c4.57-.442 9.31-.629 13.68.97 6.7 2.448 11.95 7.222 14.89 13.725 3.09 6.835 3.58 15.011.8 22.024-3.56 9-10.61 13.105-19 16.757-5.19.632-9.61.608-14.6-1.215-6.64-2.427-11.87-7.281-14.66-13.794-2.95-6.875-2.84-15.002.1-21.861 3.82-8.888 10.08-13.148 18.79-16.606"/><path fill="#fefefe" d="M1439.81 746.096c3.13-.301 6.42-.783 9.48.172 4.77 1.488 8.92 5.218 11 9.753a19.9 19.9 0 0 1 .48 15.387c-2.43 6.454-7.01 9.035-13.06 11.61-2.58.04-5.23-.285-7.69-1.065-5.09-1.611-9.8-5.164-12.13-10.036-2.08-4.36-2.26-9.102-.63-13.636 2.22-6.182 6.86-9.434 12.55-12.185m-205.12-416.394a3822 3822 0 0 1 83.2.171c9.83 29.077 16.86 59.529 25.24 89.082 17.13.436 175.32 1.863 181.15-.188 1.33-.467 1.52-2.303 2.01-3.528 5.22 8.63 10.2 17.799 15.89 26.113 2.24 2.141 2.73 4.77 3.58 7.643 11.11 16.944 21.02 39.441 39.89 48.849l1.73-.763c21.19-9.198 33.41-35.793 45.48-54.442.31-.856.6-1.72.95-2.557 1.68-3.948 8.73-19.275 11.86-20.587 13.32 1.256 27.77.061 41.21-.015a8740 8740 0 0 1 89.37-.291c-2.37 18.137-6.88 35.873-10.9 53.689l-16.77 75.334-13.06 62.174c-2.58 11.823-4.69 24.11-9.02 35.431-2.65 6.935-6.31 7.984-13.29 9.295-17.14 3.221-61.91 1.017-81.58.983l-168.52.008c-11.53-.039-45.66-2.101-53.74 1.534-2.01 9.076 9.14 41.192 12.27 51.459-7.16 3.661-13.5 7.89-19.75 12.935-12.06-38.524-21.77-78.13-32.2-117.137a9424 9424 0 0 0-52.2-190.185c-5.88-20.518-10.81-41.371-17.41-61.667-21.78-1.031-43.96-.241-65.79-.254-.17-7.736-.02-15.36.4-23.086"/><path d="m1651.25 540.996 74.88.184c-4.36 29.499-11.67 58.324-17.85 87.465-.48 1.989-1.18 3.765-1.96 5.653-6.92 3.919-53.58 1.251-64.36 1.125 4.02-31.342 4.82-63.169 9.29-94.427"/><path fill="#fefefe" d="M1659.12 549.665a3118 3118 0 0 1 57.18.127 1590 1590 0 0 1-15.67 69.967c-.55 1.949-1.19 3.816-1.85 5.73-3.64 3.066-39.87 1.243-47.02 1.148 3-25.162 6.74-51.724 7.36-76.972"/><path d="M1376.92 540.844c24.4-1.179 49.25-.217 73.69-.126 4.06 14.898 6.61 30.609 9.81 45.738 3.37 15.952 8.11 32.676 9.26 48.93-21.32 2.009-43.97.505-65.42.353-7.1-18.722-11.78-38.344-17.25-57.588-3.46-12.151-8.36-24.796-10.09-37.307"/><path fill="#fefefe" d="M1388.99 549.26c18.21-.536 36.53-.12 54.76-.1a3018 3018 0 0 1 15.58 77.861l-49.14.049c-8.18-25.472-14.96-51.793-21.2-77.81"/><path d="M1461.11 541.013c26.48-.284 52.99-.023 79.48-.024 2.39 20.978 7.15 42.411 11.37 63.106 1.9 9.359 6.59 22.018 5.94 31.182-25.74.782-51.66.413-77.41.067a3004 3004 0 0 0-19.38-94.331"/><path fill="#fefefe" d="M1472.34 549.257c20.03-.474 40.19-.005 60.23.027 6.25 25.199 9.56 51.592 14.79 77.093a1811 1811 0 0 1-58.69-.094c-6.57-21.373-12.98-54.631-16.33-77.026"/><path d="m1550.01 540.974 92.23.006c-3 28.751-7.63 57.678-9.43 86.509-.27 2.585-.6 4.59-1.51 7.055-4.98 3.182-54.75 1.099-63.68.98-1.08-12.265-4.01-24.569-6.45-36.627a1575 1575 0 0 1-11.16-57.923"/><path fill="#fefefe" d="m1560.53 549.031 71.88.023c-2.69 23.605-5.07 47.287-8.48 70.8-.18 2.635-.37 4.073-1.65 6.464-14.74 1.948-31.34.345-46.28.213-4.82-25.835-11.75-51.502-15.47-77.5"/><path d="M1542.18 441.352c2.24 2.141 2.73 4.77 3.58 7.643 11.11 16.944 21.02 39.441 39.89 48.849l1.73-.763c21.19-9.198 33.41-35.793 45.48-54.442 1.21-.261 1.21-.287 2.67-.447 19.18-2.1 41.65-.303 61.2-.251 14.99.04 31.04-1.291 45.88.052 2.5.226 3.01.56 4.91 2.075.09 8.992-3.77 20.164-5.7 29.09a5231 5231 0 0 0-12.32 58.186c-25.4 1.172-51.41-.117-76.86-.224 2.23-16.323 3.48-32.734 5.39-49.069.91-7.791 2.78-15.759 3.03-23.583.08-2.687-.22-4.673-1.45-7.109-2.41-1.1-2.27-.902-4.79.035-1.82 2.295-2.71 4.238-3.32 7.122-1.78 8.381-1.77 17.498-2.74 26.027-1.77 15.498-4.14 30.958-5.94 46.468l-94.65.039c-3.05-18.546-10.06-63.916-16.55-79.576-2.6-1.563-6.67-.913-9.67-.82 6.18 26.198 12.1 53.829 15.58 80.492-26.35.725-52.9.532-79.26.243-1.43-10.118-14.24-76.037-17.94-80.038-3.04-.278-5.45.024-8.44.61-1.51 4.726 15.14 67.776 17.27 79.159-24.47 1.12-49.04-.157-73.56.799-3.83-9.944-24.58-81.52-24.07-87.61 2.25-1.974 4.58-2.256 7.48-2.49 19.98-1.613 41.2-.223 61.28-.23z"/><path fill="#fefefe" d="m1585.65 497.844 1.73-.763c21.19-9.198 33.41-35.793 45.48-54.442-.7 3.015-1.6 4.474-.27 7.331 3.19 1.028 6.57.857 9.89.931a1060 1060 0 0 1-4.53 44.618c-1.08 8.837-2.81 17.831-3.28 26.71l-78.39-.067c-2.63-11.974-15.68-64.093-13.15-71.386l2.63-1.781c11.11 16.944 21.02 39.441 39.89 48.849m-224.15-47.338c19.5-1.243 39.47-.325 59.02-.218 4.33 12.827 17.33 60.8 16.36 72.156l-55.03.367c-6.68-23.791-15.64-48.138-20.35-72.305m88.62.348c20.52-.683 41.24-.477 61.76-.056 6.58 23.218 11.62 47.842 15.66 71.633-20.39.497-40.85.19-61.25.197-4.66-24.085-11.75-47.647-16.17-71.774m220.53.109a4167 4167 0 0 1 67.11-.059l-14.56 66.865c-.26 2.034-.46 2.966-1.77 4.561-17.78 2.332-40.32.218-58.6-.029 3.57-23.58 4.69-47.651 7.82-71.338"/><path d="M432.841 1257.41c.826-.08 1.657-.12 2.487-.16 35.517-1.83 69.265 11.65 95.398 35.32 28.898 26.18 42.944 63.71 44.501 102.14 1.925 47.47-7.905 103.87-41.116 140.04 13.501 13.27 26.201 13.63 41.779 21.22 2.023.98 4.121 2.58 5.102 4.64 1.034 2.18.871 4.6.223 6.85-4.328 15.01-17.296 27.42-30.473 34.7 23.518 12.2 46.041 25.31 65.362 43.76 29.362 28.02 26.286 51.26 27.145 88.45a5700 5700 0 0 0 70.3.46c13.684-.07 28.711-1.46 42.222.22 2.514.31 4.172.76 6.119 2.49.48 2.67.387 2.6-1.003 4.95-1.147.64-1.364.85-2.841 1.15-6.691 1.37-39.949-.12-48.961-.14l-142.063-.14c-112.085.35-225.059-1.46-337.03 1.02-.224-18.05-2.05-37.76 2.403-55.41 11.286-44.73 53.814-68.09 90.494-89.88-13.187-11.85-22.35-22.66-28.213-39.71 15.527-9.43 34.685-15.92 51.375-23.28-22.195-31.11-33.06-59.27-36.589-97.57-4.333-47.01-2.027-97.67 29.797-135.33 24.011-28.41 57.091-42.73 93.582-45.79"/><path fill="#fefefe" d="M388.659 1563.18c2.908 3.43 5.191 9.38 7.596 13.32 9.593 15.74 18.511 24.07 34.228 33.58-15.463 5.5-30.022 7.43-46.312 4.87-16.354-2.97-28.902-9.73-42.125-19.52 15.332-11.04 31.588-20.78 46.613-32.25m102.506-1.67c4.487 2.98 8.715 7.73 12.936 11.22 12.345 10.21 25.369 17.83 40.398 23.33-12.011 9.66-24.753 15.38-39.742 18.6-19.776 2.68-35.588.07-54.636-5.57 19.044-12.61 30.093-27.93 41.044-47.58m-91.881-41.06c12.587 7.3 24.353 20.28 39.655 21.64 15.831 1.4 30.012-11.84 41.251-21.39.142 11.26-.036 22.71 4.094 33.33-3.584 7.44-6.857 14.74-11.573 21.54-8.902 12.14-19.188 23.18-33.001 29.63-21.453-10.68-34.952-28.39-43.935-50.29 2.815-11.61 3.395-22.54 3.509-34.46"/><path fill="#fefefe" d="M458.076 1334.85c25.261 27.85 31.788 42 69 56.34-1.15 21.58-3.121 42.94-10.216 63.52-9.252 26.83-38.353 63.3-64.176 75.21-8.073 3.73-13.895 3.98-22.119.76-11.238-5.79-22.1-13.65-31.312-22.3-35.653-33.45-39.963-67.78-41.319-114.53 42.069-6.24 73.525-26.23 100.142-59"/><path fill="#fefefe" d="M434.296 1266.42c20.616-1.71 41.024 3.96 59.693 12.33 28.845 12.94 52.006 38.74 63.022 68.21 17.794 47.61 10.316 117.27-14.405 161.36-2.816 5.02-6.411 11.11-10.64 15.06-3.129 2.92-8.275 3.77-10.082 7.78.142 1.47.311 2.81 1.003 4.14 7.441 14.35 35 24.43 49.54 29.31-3.373 6.68-6.991 15.31-12.373 20.6-2.344 2.3-4.952 3.15-8.2 3.03-16.654-.65-39.915-18.94-51.12-30.46-14.331-14.74-11.967-26.27-11.735-45.22 23.569-25.33 38.796-51.55 43.7-86.13.814-5.75 4.976-37.51 2.814-40.8-.254-.39-31.934-16.24-36.664-19.58-19.674-13.85-24.618-28.41-38.151-46.29-2.794.35-3.474 1.43-5.557 3.26-3.963 5.84-7.998 11.54-12.654 16.86-24.186 27.66-55.97 43.01-92.591 45.33-1.864 30.47 2.256 72.67 18.15 99.13 5.274 8.79 12.841 15.88 18.501 24.36 4.943 7.41 5.124 24.19 3.214 32.78-4.427 19.93-43.245 40.09-59.892 50.47-11.264-7.1-17.822-16.65-24.09-28.11 11.551-5.14 45.989-16.35 53.302-23.82.198-.2 1.482-1.66 1.573-2.22.064-.39-16.837-20.17-21.015-27.03-14.742-24.2-20.147-52.79-22.115-80.7-2.976-42.22.321-89.33 29.425-122.56 22.795-26.03 53.325-38.65 87.347-41.09m-100.374 336.36c4.537.7 21.306 11.97 28.197 14.7 27.862 11.05 53.429 8.41 80.525-3.32 5.955 3.88 12.421 6.5 19.296 8.23 29.172 7.35 55.318 1.26 80.496-14.01 24.909 12.54 50.305 26.15 70.004 46.25 24.698 25.2 21.537 47.01 21.256 79.95l-67.946.21-326.637-.14c-.325-15.14-1.413-31.01 2.539-45.78 11.694-43.68 56.418-65.16 92.27-86.09"/><path d="M1446.2 1252.41a198.5 198.5 0 0 1 112.53 29.1 195.3 195.3 0 0 1 87.57 120.73c12.94 54.45.18 108.06-28.93 154.79 15.14 17.53 32.75 33.57 49.12 49.98a10776 10776 0 0 1 85.7 86.49c14 14.16 31.26 28.05 43.09 43.95 3.56 4.79 5.5 11.13 5.88 17.04.66 10.33-3.58 20.66-10.66 28.11-6.59 6.93-15.65 11.43-25.29 11.62-6.53.12-13.8-1.58-19.46-4.89-12.25-7.16-49.07-46.71-61.5-59.04-24.2-25.14-49.32-49.19-74.12-73.7-15.82-15.64-30.94-32.56-48.16-46.62a214.55 214.55 0 0 1-88.21 28.05 202.38 202.38 0 0 1-150.88-48.38c-36.34-30.82-59.75-79.28-63.26-126.6a197.6 197.6 0 0 1 48.5-144.37c35.27-40.42 84.95-62.65 138.08-66.26"/><path fill="#fefefe" d="M1610.75 1565.62c15.41 12.34 28.98 27.63 42.88 41.64a7115 7115 0 0 1 62.79 62.97l42.34 42.43c10.21 10.22 21.03 20.36 29.87 31.81 3.58 4.64 4.53 10.62 3.63 16.34-1.31 8.33-7.06 15.93-13.92 20.62-7.24 4.93-14.32 4.63-22.59 3.14-16.19-7.36-66.99-62.59-81.89-77.61-19.53-19.68-39.56-38.78-59.23-58.31-14.91-14.81-29.18-30.21-44.65-44.46 15.21-11.62 28.35-24.06 40.77-38.57m-165.45-304.21c.24-.02.48-.06.73-.08 44.8-3.34 95.37 14.46 129.62 43.12a188.08 188.08 0 0 1 66.38 128.23c3.85 46.1-12.65 97.1-42.82 132.27-34.29 39.96-81.66 61.87-133.67 65.63-46.74 3.53-99.01-15.02-134.6-45.06a180.57 180.57 0 0 1-62.34-120.87 187.03 187.03 0 0 1 42.93-136.31c34.69-40.63 80.7-62.64 133.77-66.93"/><path d="M1451.85 1301.42a143.04 143.04 0 0 1 95.55 32.79c29.31 24.57 49.36 59.27 52.33 97.69 2.99 38.56-7.45 78.64-33.08 108.23-27.05 31.23-66.76 45.77-107.01 48.87-38.16.54-73.33-10.71-102.47-35.85a139.5 139.5 0 0 1-47.88-95.08c-2.81-38.27 9.52-77.93 34.95-106.9 28.33-32.28 65.51-47.18 107.61-49.75"/><path fill="#fefefe" d="M1439.57 1311.36c32.2-5.68 69.48 6.18 95.63 24.66 27.11 19.16 48.81 50.25 54.45 83.26 6.19 36.15-.67 74.27-22.06 104.41-22.63 31.87-57.78 49.81-95.63 56.04-36.23 4.06-73.1-5.26-102.15-27.64-28.18-21.71-47.44-53.32-51.76-88.83-4.32-35.48 6.55-73.21 28.58-101.33 23.19-29.6 56.08-45.99 92.94-50.57"/><path fill="#c70e32" d="M1448.57 1349.37c7.61-.42 19.61-2.09 25.62 3.75 5.78 5.61 2.76 34.47 2.78 43.91 15.84.1 58.2-2.24 69.88 1.34 1.9 1.8 2.42 3.49 2.89 5.99 1.46 7.85 1.68 22.37-3.03 28.92-3.74 1.83-9.55 1.32-13.71 1.48-.11 23.57.43 47.14.42 70.7 0 6.61.61 13.06-4.61 17.93-1.71 1.6-3.17 2.51-5.49 3.09-10.28 2.57-44.72.37-57.68.28a2394 2394 0 0 0-46.03.25c-8.26.09-17.78 1.16-25.93-.18-3.19-.53-5.82-1.56-8.22-3.76-2.25-2.07-3.31-5.71-3.7-8.64-1.09-8.25.11-17.59.19-25.94l.22-54.38c-4.54-.17-9.89-.05-13.76-2.84-3.23-2.34-3.78-6.28-3.93-9.98-.29-7.22-1.36-17.1 3.67-22.67 9.58-4.21 58.1-1.72 71.55-1.96.28-10.34-2.82-34.21 1.87-42.49 1.73-3.06 3.87-3.74 7-4.8"/><path fill="#fefefe" d="M1450.82 1358.14c6.21-.14 11.89.33 18.02 1.28l.11 45.42 73.13.38.02 20.89c-24.27.74-48.73.14-73.02.15-.2 9.75 1.64 20.66-.52 30.19-.9 3.98-2.97 5.62-6.24 7.79-3.62.57-7.89.58-10.93-1.78-7.61-5.91-4.05-27.55-4.3-36.52-24.72-.32-49.46-.03-74.19-.2-.09-6.93.02-13.88.04-20.81 24.94-.67 49.93.11 74.88-.47.33-9.9-2.46-40.11 3-46.32"/><path fill="#fefefe" d="m1427.95 1433.49 12.2.05c-.07 9.64-3.51 23.37 2.69 31.56 3.25 4.28 8.3 6.62 13.59 7 5.67.4 11.71-1.51 15.81-5.52 7.6-7.45 5.03-22.54 4.83-32.31 15.61-.04 31.25-.29 46.85.37 3.45 22.16 1.19 58.83 1.01 82.68-8.24 3.02-115.36.87-134.95.9-.27-28.21.19-56.47.34-84.69z"/><path d="M516.053 248.123c4.199-.348 9.058-.824 12.974 1.062 12.721 6.128 24.903 17.754 36.184 26.365 22.379 17.085 44.745 34.386 67.901 50.41-.098-6.518-2.197-25.359 1.702-30.004 4.154-1.248 8.3-1.673 12.617-1.829 10.609-.382 59.275-2.415 65.575 3.353 2.062 10.189.694 22.469.614 32.918l-.486 61.447c.434.321.874.633 1.3.963 17.956 13.886 35.556 28.331 53.409 42.368 13.271 10.436 29.705 20.879 40.594 33.683 3.862 4.541 6.07 10.205 6.761 16.098 1.217 10.383-1.823 21.569-8.437 29.702-5.433 6.68-13.709 11.473-22.366 12.18-13.752 1.123-24.457-9.426-34.323-17.503l.014 182.366c.023 31.946 1.94 70.084-1.275 101.123-21.17 1.31-42.938.215-64.189.196L559.5 792.91l-131.839-.292c-16.814.014-120.257 2.517-130.066-1.503-4.2-17.266-1.909-47.833-2.125-66.87-.815-71.863.932-143.758.001-215.63-6.597 5.315-13.54 11.67-21.477 14.845a31.74 31.74 0 0 1-24.82-.584c-8.163-3.794-13.842-11.198-16.918-19.511-3.651-9.869-3.724-21.276.755-30.894 2.506-5.38 6.599-9.068 10.98-12.908 10.754-9.429 22.737-17.742 33.989-26.587l64.063-50.841 121.798-96.051c11.479-8.915 40.116-33.746 52.212-37.961"/><path fill="#fefefe" d="M467.245 570.082c13.194-1.195 101.361-1.368 111.492.878 6.834 1.516 10.302 5.893 14.035 11.445 2.061 21.549.81 43.942.851 65.622a9704 9704 0 0 1-.689 135.861l-11.309.172a7792 7792 0 0 1-130.042.034c.219-28.458-3.438-189.857 1.829-203.277 2.307-5.88 8.528-8.267 13.833-10.735m52.45-314.343c1.937-.018 3.398.189 5.108 1.174 9.464 5.448 18.717 13.725 27.504 20.312l58.296 43.839c7.234 5.517 14.382 12.129 22.151 16.801 2.546 1.531 4.109 2.167 7.056 1.957 4.68-7.148 2.238-27.627 2.245-36.693a3099 3099 0 0 1 62.986.053l-.144 92.346c6.454 7.123 14.697 12.954 22.195 18.928l45.551 36.039c8.799 6.909 18.718 13.593 26.448 21.653 2.962 3.089 5.457 6.654 6.392 10.892 1.819 8.258.383 17.905-4.391 24.948-3.334 4.92-8.564 8.542-14.526 9.298-4.791.608-9.388-.149-13.553-2.617-19.909-11.794-44.419-34.538-63.457-49.29-53.5-41.456-106.689-83.738-161.115-123.947-7.26-5.569-16.983-15.353-26.117-16.986-2.928-.524-4.984-.305-7.578 1.243-6.531 3.898-12.608 9.525-18.651 14.204a3690 3690 0 0 0-40.021 31.242 14733 14733 0 0 1-117.316 92.69c-17.845 14.023-41.37 34.305-59.723 46.25-6.776 4.41-14.669 7.651-22.843 5.588-6.493-1.638-11.65-6.533-14.732-12.348a28.55 28.55 0 0 1-1.982-21.953c1.355-4.336 3.256-7.786 6.529-10.965 11.433-11.107 25.689-20.799 38.193-30.822a5440 5440 0 0 1 86.979-69.148l91.14-72.067c16.057-12.733 39.764-33.692 57.376-42.621"/><path fill="#fefefe" d="M520.674 333c12.098 5.188 23.647 16.135 34.223 24.16a2636 2636 0 0 1 71.382 55.485c38.127 30.198 76.992 59.283 114.694 90.058 1.36 93.802.457 187.814.282 281.634-46.135-.043-92.372.896-138.492-.083-1.343-21.026-.755-42.553-.685-63.623l.034-83.183c.035-16.925 2.287-36.973-.748-53.522-1.005-5.478-3.503-10.232-7.491-14.124-13.666-13.339-50.309-8.885-69.373-8.722-19.135.01-59.743-4.567-73.443 8.918-4.504 4.434-6.916 9.891-7.881 16.084-2.758 17.68-.868 44.624-.923 63.061l-.212 134.976c-45.844-.171-91.827 1.203-137.644.066-1.49-32.391.056-65.522.144-97.999l.251-183.899c13.244-11.873 27.872-22.449 41.92-33.371a3768 3768 0 0 0 59.661-47.156l70.932-56.409c13.811-10.896 28.175-23.494 43.369-32.351"/></svg>