<svg xmlns="http://www.w3.org/2000/svg" display="block" viewBox="0 0 2048 2048"><path fill="#f5f5f4" d="M0 0h2048v2048H0z"/><path fill="#c2a860" d="M276.649 585.029c4.147-.24 8.133-.243 12.253.318 15.731 2.14 31.415 5.937 47.087 8.642l69.241 12.556c12.558 2.334 27.028 3.387 38.803 8.362 1.881 2.063 3.061 3.645 3.198 6.557.258 5.474-3.437 9.881-6.858 13.678-35.89-3.667-71.899-12.376-107.339-19.298-17.213-3.362-35.681-5.282-52.476-10.116-3.137-.903-5.299-1.787-7.551-4.253-1.953-2.138-3.097-4.577-2.714-7.546.557-4.321 3.148-6.416 6.356-8.9M1007.57 134.9c5.05.175 11.11.469 15.26 3.738 1.74 1.371 2.43 2.897 2.36 5.057-.3 9.9-3.9 20.274-6.32 29.851a4278 4278 0 0 1-14.22 54.373c-6.025 23.206-10.869 49.853-19.038 72.185-1.169 3.194-2.402 4.944-4.873 7.269-.985.368-2.421 1.015-3.513 1.082-2.964.183-6.601-1.275-8.886-3.17-2.2-1.824-3.462-4.203-3.527-7.041-.199-8.676 3.262-18.989 5.196-27.496 6.113-26.891 13.254-53.395 19.959-80.128 3.73-14.869 6.21-30.559 11.192-45.03 1.51-4.387 3.24-7.31 6.41-10.69M380.989 370.792c4.607.055 7.407 1.142 11.392 3.401 13.188 7.472 25.079 17.645 37.619 26.174l83.108 56.177c4.382 3.013 16.343 10.333 16.898 15.883.567 5.665-3.325 9.9-6.642 14.009-3.933-.2-6.998-.805-10.476-2.708-10.243-5.605-20.041-12.967-29.671-19.585l-52.555-36.437c-16.258-11.212-40.398-24.681-54.16-37.906-2.291-2.203-3.493-4.604-3.223-7.861.42-5.071 3.774-8.411 7.71-11.147m174.235-170.126c1.339.156 1.281.116 2.801.475 6.228 1.467 9.039 5.523 12.347 10.64 17.906 27.698 34.08 56.437 51.257 84.579 9.918 16.248 26.329 39.612 33.4 56.052 1.059 2.462 1.414 4.689.548 7.319-1.305 3.968-5.215 5.602-8.631 7.368-1.293-.027-2.148-.012-3.475-.2-4.745-.671-6.644-3.195-9.158-6.88-6.142-9-11.249-19.027-16.794-28.438a4465 4465 0 0 0-29.001-48.146c-13.087-21.428-29.064-42.562-40.226-64.994-1.515-3.044-2.666-5.561-1.633-9.032 1.267-4.256 5.055-6.485 8.565-8.743m223.163-75.855c4.519.194 8.846.949 11.932 4.645 2.11 2.527 2.623 6.591 3.258 9.75 3.407 16.968 26.307 155.238 24.883 162.196-.812 3.964-5.138 6.199-8.237 8.151-.337.04-.674.084-1.011.119-3.969.414-6.528.394-9.66-2.46-2.861-2.607-3.624-7.053-4.389-10.664-2.531-11.955-3.515-24.399-5.398-36.494l-10.392-65.315c-2.69-17.885-8.73-45.456-8.836-62.872 1.607-3.26 4.935-5.054 7.85-7.056M661.447 1481.34c1.085.08 1.981.09 3.055.39 1.162.33 1.811.84 2.751 1.62 9.444 7.82 23.006 27.66 31.875 38.07a906 906 0 0 0 53.555 56.9c96.138 93.35 198.806 161.83 317.207 223.27 8.14 4.22 35.91 14.91 38.89 21.41.27 3.14-1.36 5.05-2.98 7.55-10.77-1.74-54.13-26.63-66.42-33.12-48.097-25.42-95.785-53.33-140.269-84.71-16.697-11.77-32.768-24.77-48.996-37.2-58.368-44.74-112.118-92.56-159.455-148.99-7.655-9.13-27.726-28.34-30.637-39.41-.72-2.74.131-3.41 1.424-5.78m232.724-81.65c2.233-.08 4.374-.24 6.561.33 4.719 1.21 10.052 27.6 11.976 33.25 1.871 5.48 4.147 10.89 7.144 15.87 13.178 21.88 33.065 25.44 56.276 26.22 5.792.2 12.5-.11 18.069 1.57 2.368.72 3.213 1.39 4.398 3.5-.926 3.23-2.31 5.15-5.345 6.75-4.377 2.31-10.891 2.63-15.75 3.61-12.738 2.59-25.757 7.21-36.566 14.56-19.793 13.46-22.408 34.33-22.451 56.68-.013 6.93.706 13.97-.648 20.8-2.361 1.99-2.829 2.4-5.837 2.94-10.227-5.96-8.338-43.75-18.097-57.38-14.452-20.18-27.421-29.62-53.051-28.79-6.159.2-12.761 1.85-18.801.46-2.472-2.08-2.868-2.61-4.035-5.61.669-2.74.68-3.34 3.304-4.86 2.721-1.57 7.201-2.06 10.268-2.68 14.74-2.98 32.733-4.95 44.384-15.32 19.234-17.12 17.338-48.55 18.201-71.9"/><path fill="#f5f5f4" d="m902.216 1441.62 3.066 4.96c14.104 22.84 25.668 32.02 52.288 38.29a210 210 0 0 0-5.17 1.7c-20.386 6.99-31.241 15.55-40.9 35.16l-3.895 9.47c-10.415-24-19.311-29.28-42.21-39.23 4.1-1.82 8.259-3.83 11.997-6.33 13.941-9.33 21.885-28.09 24.824-44.02"/><path fill="#c2a860" d="M1367.89 447.404c6 .27 13.74 5.11 18.95 7.941 126.66 68.925 209.66 242.773 256.29 372.874 12.57 35.054 23.45 71.646 34.09 107.339 9.32 31.218 16.55 63.384 23.26 95.252a1402.4 1402.4 0 0 1 31.18 322.57c-.14 13.5 1.88 49.33-4.04 60.26-.87.08-2.79.29-3.62.22-.15-.02-1.92-.46-2.18-.73-2.96-3.03-.33-39.1-.16-45.59.76-27.82-.35-55.57-1.37-83.36-2.27-62.29-7.08-123.36-17.67-184.86-6.39-37.05-13.91-73.5-22.33-110.124-3.16-13.745-5.82-27.664-9.5-41.278-7.41-27.372-16.78-54.85-25.8-81.748-25.28-75.372-54.48-147.314-93.97-216.432-20.24-35.435-42.05-69.393-68.86-100.311-20.61-23.768-43.85-47.841-69.75-65.814-8.82-6.121-42.27-23.808-46.26-29.305-.44-3.301.28-3.999 1.74-6.904"/><path fill="#c2a860" d="M1488.16 857.262c.61.254 1.26.428 1.84.762 1.74 1.013 2.95 3.238 3.52 5.095 5.51 17.682 4.68 32.717 12.8 52.393 12.55 30.451 40.15 57.069 74.28 60.8 8.39.917 21.59-.524 29.17 3.17 2.45 1.189 3.08 2.082 4.02 4.557-3.72 8.22-24.74 7.47-33.06 9.164-4.2.856-7.98 2.486-11.85 4.26-31.45 14.387-54.61 44.207-59.02 78.617-1.42 11.16-.4 24.68-4.28 35.13-2.67 1.3-5.07.63-7.87.2-2.57-7.92-2.86-16.76-3.94-25-2.24-17.14-9.86-34.26-19.56-48.46-15.39-22.51-40.73-38.021-68.21-40.074-9.56-.715-20.33.594-29.64-1.56-2.91-.674-3.59-1.083-5.06-3.656.18-2.689.36-4.826 3.07-6.161 5.9-2.914 13.5-2.936 19.95-3.527 21.61-1.975 41.57-8.352 58.15-22.945 41.94-36.912 24.53-90.468 35.69-102.765"/><path fill="#f5f5f4" d="M1492.12 909.726c5.98 10.286 9.29 22.104 15.54 32.459 13.92 23.058 35.38 34.923 61.01 41.17-7 3.199-13.97 6.712-20.54 10.727-27.46 16.788-40.56 40.648-47.88 71.158l-.58.28c-1.94-3.96-2.27-8.4-3.97-12.48-14.75-35.38-36.45-50.76-70.7-65.04 8.37-3.181 16.43-6.138 24.09-10.889 26.31-16.316 36.23-38.186 43.03-67.385"/><path fill="#c2a860" d="M542.204 1252.08c1.474.58 3.25 1.04 3.798 2.78 1.622 5.18 1.153 13.7 1.706 19.29 2.554 25.84 7.436 51.98 23.295 73.25 20.486 27.48 51.049 38.29 83.978 42.29 7.777.94 15.624.94 23.385 2.01l.383 1.82c-3.587 5.11-17.425 3.05-23.607 4.58-27.123 6.75-46.727 8.02-69.831 26.76-32.028 25.99-37.771 66.27-41.819 104.88-.797 1.8-.169 1.07-1.953 2.12-1.507-2.08-5.376-33.18-6.488-38.42-3.739-17.6-8.932-35.71-19.459-50.57-16.771-23.68-45.774-36.99-73.639-41.95-12.057-2.15-24.326-2.73-36.407-4.79 8.56-1.88 17.532-2.2 26.23-3.21 23.533-2.72 45.436-9.6 64.348-24.26 36.288-28.13 40.697-74.48 46.08-116.58m733.346-940.292c6.71 6.933 18.19 40.646 22.7 51.612 8.3 20.173 17.73 39.913 25.78 60.18 24.64 62.118 44.05 127.024 46.68 194.188 1.09 27.772.23 56.35-4.23 83.822-10.98 67.682-43.6 138.409-90.03 188.865 3.68 80.141-6.9 146.745-35.24 221.895-5.77 15.29-13.15 29.84-19.05 45.05 9.15 5.31 17.35 12.49 20.17 23.07 4 15.01-2.93 27.02-10.38 39.38 9.67 8.77 17.97 19.93 26.61 29.77a1086 1086 0 0 0 33.58 35.8c59.24 60.98 139.91 109.7 223.95 125.84 19.7 3.79 40.38 5.88 60.4 7.03 10.67.61 22.03-.07 32.55 1.8 5.11.91 8.6 2.18 12.57 5.61 15.57 13.48 49.28 68.69 63.51 89.34 10.88-4.49 22.35-8.02 34.2-8.42a59.4 59.4 0 0 1 43.09 16.39c11.62 10.93 17.91 25.33 18.3 41.32.45 18.28-6.66 34.67-19.21 47.79-9.36 9.78-20.77 17.76-31.39 26.12-30.15 23.75-61.06 45.62-92.48 67.62a2958 2958 0 0 1-269.21 167.92c-26.99 15.04-87.35 50.97-116.38 51.45-17.68.29-35.86-6.84-48.45-19.3a55.18 55.18 0 0 1-16.67-39.12c-.04-24.8 13.01-39.13 29.57-55.7a1901 1901 0 0 0-27.35-47.13c-8.32-13.69-19.27-28.08-24.72-43.17-8.72-24.17 3.66-39.96 13.55-60.84 7.97-16.53 13.35-34.63 17.69-52.42 20.8-85.42 10.25-169.65-19.72-251.35-9.33-25.42-19.9-51.06-33.97-74.26-12.44.24-24.01-.33-33.98-8.82-10-8.51-12.63-20.55-13.38-33.01-54.92-.04-102.871-3.36-156.26-17.84-17.366-4.71-54.094-20.26-68.28-21.32-11.273-.84-24.012 3.76-35.426 4.75-41.685 3.65-81.522 7.01-123.382 3.15-112.788-10.41-204.652-68.75-286.974-143.05-26.773-24.17-55.318-56.43-84.584-76.337-9.263-6.3-20.472-10.359-30.276-15.885 12.67-4.43 26.45-5.123 39.323-9.105 42.143-13.037 84.258-35.368 117.029-65.004 8.266-7.475 15.73-15.937 23.296-24.111-10.579-19.889-28.872-38.836-37.972-57.744-1.77-3.676-1.589-5.636-.086-9.403 5.886-14.754 27.272-36.056 38.201-48.655 55.985-64.535 121.585-120.446 191.392-169.597 25.091-17.667 51.22-34.136 76.867-50.996 62.666-41.197 127.9-81.37 196.89-111.096 26.439-11.392 111.512-44.528 137.862-33.195 15.76 6.774 21.55 25.695 27.4 40.379a440 440 0 0 0 34.41-13.065c59.21-25.227 96.49-48.188 121.51-110.198"/><path fill="#f5f5f4" d="m1264.11 424.857 1.36.797c21.32 46.649 37.08 98.574 44.93 149.228 11.9 76.723 3.21 166.912-43.74 231.149-3.85-17.464-8.7-34.887-13.8-52.029-19.29-70.057-45.81-137.573-75.13-203.958-9.83-22.275-21.76-43.677-31.08-66.145 44.16-16.603 79.28-30.367 117.46-59.042M523.23 915.701c2.492 1.024 36.571 42.243 41.226 47.464 10.834 12.151 22.352 23.831 33.781 35.429 21.899 22.226 45.896 42.966 69.79 63.016 43.337 36.36 83.452 66.71 130.271 98.28-31.11 1.34-60.559 2.6-91.549-1.41-76.489-7.75-158.088-53.65-216.405-102.49-23.163-19.39-44.148-41.13-65.328-62.625 16.086-9.872 32.222-19.829 47.13-31.439 18.124-14.114 34.529-30.342 51.084-46.225m662.67 317.889c4-.38 8.05-.46 12.07-.64 25.08 32.83 53.25 65 83.29 93.4 67.07 63.41 161 115.54 253.61 126.13 20.91 2.39 41.84 1.57 62.82.98 11.52 11.66 22.72 32.03 32.2 46.1 13.09 19.43 27.6 38.48 39.26 58.78 15.02-7.64 40.09-18.73 57.49-15.34 6.02 1.18 11.41 5.23 14.69 10.37 2.91 4.54 3.64 9.69 2.43 14.92-1.94 8.38-7.97 15.6-13.91 21.59-16.49 16.62-37.29 30.34-56.12 44.16-52.01 38.18-105.71 73.54-159.78 108.69a2551 2551 0 0 1-183.65 108.88c-21.42 11.36-43.82 24.49-66.82 32.15-6.36 2.11-12.91 3.5-19.65 2.89-5.92-.53-12.84-2.25-16.71-7.14-4.1-5.17-4.14-13.08-3.13-19.28 3.25-19.87 22.78-33.53 38.13-44.28-21.76-36.42-44.28-73.03-64.88-110.09 7.22-15.73 15.12-30.98 21.04-47.28 38.08-104.81 30.46-208.21-7.61-311.56a823 823 0 0 0-19.23-47.37c-5.56-12.32-18.12-34.2-20.43-46.27-1.22-6.34 1.92-12.93 3.94-18.82z"/><path fill="#c2a860" d="M1716.25 1562.09c3.22-.16 6.12-.54 9.17.77l.38 1.76c-12.81 27.47-278.61 195.88-317.16 218.74-33.2 19.69-66.74 38.01-100.94 55.86-18.9 9.87-37.54 20.45-57.46 28.13-.87.22-1.85.52-2.74.56-2.88.15-3.57-.09-5.58-1.88-.15-2.42.34-3.93 1.55-5.98 9.27-15.8 43.08-36.59 58.29-47.92a2953 2953 0 0 1 96.79-69.63c15.43-10.53 31.46-20.29 47.03-30.65 63.14-41.99 127.66-82.95 195.32-117.34 23.74-12.07 49.47-25.8 75.35-32.42m-121.64-78.32c2.06.63 2.38 1.14 3.7 2.77 7.58 9.4 13.79 20.77 20.68 30.79 11.05 16.09 23.45 31.94 33.14 48.88-96.04 47.74-186.01 106.74-273.97 167.85-31.96 22.2-64.67 43.82-95.61 67.39-2.14 1.59-2.66 2.34-5.28 2.47-6.65-8.26-11.53-18.88-16.74-28.12-10.43-18.51-20.84-37.58-33.26-54.84 12.04-8.09 25.04-15.01 37.3-22.8l128.75-81.09a6579 6579 0 0 0 155.86-100.48c15.5-10.51 30.03-22.26 45.43-32.82m-401.12-225.03c21.52 24.14 42.29 48.89 65.3 71.67 21.31 21.1 45.12 42.15 69.66 59.39 70.77 49.74 161.5 85.38 248.83 84.98-54.78 35.18-108.4 71.75-163.75 106.13-63.59 41.12-126.98 83.56-192.5 121.53a1250 1250 0 0 0 11.9-29.18c42.59-109.6 37.13-224.9-4.04-333.98-10.42-27.61-23.58-53.61-35.4-80.54"/><path fill="#f5f5f4" d="M1069.68 433.411c1.51-.25 5.52-.735 6.77.046 5.2 3.256 11.69 20.755 14.89 26.754a1623.5 1623.5 0 0 1 114.88 271.26c36.11 115.22 49.33 241.489 4.75 356.509-10.16 26.22-21.9 52.55-35.4 77.23-7 12.79-15.23 24.85-21.98 37.78-31.29 2.16-62.95 4.03-94.32 2.76a492.25 492.25 0 0 1-209.558-57.14c-27.042-14.63-53.189-32.52-78.267-50.23-83.626-57.93-162.858-135.627-227.606-214.072-18.101-21.931-36.495-44.619-50.976-69.152 5.008-8.138 11.354-15.728 17.455-23.077a801 801 0 0 1 102.528-102.68c69.988-59.098 147.371-110.352 225.854-157.377 43.153-25.856 87.617-51.798 134.004-71.384 30.796-13.003 63.556-24.145 96.976-27.227"/><path fill="#c2a860" d="M1052.47 455.211c.57-.115 1.16.111 1.74.205 0 .97.07 1.337-.35 2.351-3.79 9.044-32.98 40.658-41.89 49.652-10.6 10.69-21.045 21.646-32.215 31.742-22.031 19.914-45.715 38.071-69.218 56.19-93.801 72.312-206.193 143.927-315.003 191.887-24.351 10.733-48.282 21.737-74.32 27.824l-1.951-.048-.813-1.24c.466-1.672 1.064-2.93 2.025-4.378 13.027-19.614 40.874-46.744 58.402-63.135 65.898-61.625 137.209-112.698 212.518-161.997 62.041-40.614 126.528-79.997 195.04-108.797 21.035-8.841 43.695-15.608 66.035-20.256"/><path fill="#c2a860" d="M1072.68 465.813c8.57 10.684 17.62 33.165 24.1 46.117 42.8 85.421 80.55 179.737 104.14 272.333 6.46 25.341 12.52 50.79 15.51 76.814 10.85 94.584-3.25 187.243-45.21 273.043-8.28 16.93-17.21 35.88-28.97 50.66a105 105 0 0 1-5.13.91c-19.78 2.98-40.65 2.62-60.61 2.5-112.298-.73-205.418-39.64-295.056-105.69-21.912-16.52-44.498-32.59-65.536-50.2-72.128-60.363-131.778-126.817-190.56-199.786 46.239-9.58 89.938-31.516 131.667-53.017 109.496-56.42 230.668-134.646 323.421-215.592 34.054-29.723 65.684-61.482 92.234-98.092"/><path fill="#f5f5f4" d="M893.612 749.272c18.485-1.163 38.784 12.123 52.417 23.362 49.921 41.154 101.731 123.025 107.571 187.819 1.39 15.408.79 34.552-9.94 46.767-6.68 7.62-15.22 10.65-25.11 11.2-14.58-.93-27.113-8.54-38.646-16.96-52.585-38.367-92.067-101.406-112.794-162.374-4.123-12.128-8.205-24.597-10.167-37.275-1.987-12.841-1.658-26.435 6.576-37.212 7.537-9.865 18.332-13.473 30.093-15.327"/><path fill="#c2a860" d="m891.821 776.037.454-.003c2.056-.032 4.166-.088 6.207.208 25.447 3.688 68.668 57.359 83.239 79.477 18.389 27.909 51.209 92.115 43.499 124.486-.97 4.037-3.08 5.62-6.42 7.804-24.214-4.306-43.625-24.102-59.214-41.8-28.735-32.623-79.164-111.618-75.608-155.121.579-7.079 2.572-10.425 7.843-15.051"/></svg>