<svg preserveAspectRatio="xMidYMid meet" version="1.1" xmlns="http://www.w3.org/2000/svg" style="display: block;" viewBox="0 0 2048 2048" width="1024" height="1024">
<path transform="translate(0,0)" fill="rgb(245,245,244)" d="M 0 0 L 2048 0 L 2048 2048 L 0 2048 L 0 0 z"/>
<path transform="translate(0,0)" fill="rgb(194,168,96)" d="M 276.649 585.029 C 280.796 584.789 284.782 584.786 288.902 585.347 C 304.633 587.487 320.317 591.284 335.989 593.989 L 405.23 606.545 C 417.788 608.879 432.258 609.932 444.033 614.907 C 445.914 616.97 447.094 618.552 447.231 621.464 C 447.489 626.938 443.794 631.345 440.373 635.142 C 404.483 631.475 368.474 622.766 333.034 615.844 C 315.821 612.482 297.353 610.562 280.558 605.728 C 277.421 604.825 275.259 603.941 273.007 601.475 C 271.054 599.337 269.91 596.898 270.293 593.929 C 270.85 589.608 273.441 587.513 276.649 585.029 z"/>
<path transform="translate(0,0)" fill="rgb(194,168,96)" d="M 1007.57 134.9 C 1012.62 135.075 1018.68 135.369 1022.83 138.638 C 1024.57 140.009 1025.26 141.535 1025.19 143.695 C 1024.89 153.595 1021.29 163.969 1018.87 173.546 A 4278.07 4278.07 0 0 1 1004.65 227.919 C 998.625 251.125 993.781 277.772 985.612 300.104 C 984.443 303.298 983.21 305.048 980.739 307.373 C 979.754 307.741 978.318 308.388 977.226 308.455 C 974.262 308.638 970.625 307.18 968.34 305.285 C 966.14 303.461 964.878 301.082 964.813 298.244 C 964.614 289.568 968.075 279.255 970.009 270.748 C 976.122 243.857 983.263 217.353 989.968 190.62 C 993.698 175.751 996.178 160.061 1001.16 145.59 C 1002.67 141.203 1004.4 138.28 1007.57 134.9 z"/>
<path transform="translate(0,0)" fill="rgb(194,168,96)" d="M 380.989 370.792 C 385.596 370.847 388.396 371.934 392.381 374.193 C 405.569 381.665 417.46 391.838 430 400.367 L 513.108 456.544 C 517.49 459.557 529.451 466.877 530.006 472.427 C 530.573 478.092 526.681 482.327 523.364 486.436 C 519.431 486.236 516.366 485.631 512.888 483.728 C 502.645 478.123 492.847 470.761 483.217 464.143 L 430.662 427.706 C 414.404 416.494 390.264 403.025 376.502 389.8 C 374.211 387.597 373.009 385.196 373.279 381.939 C 373.699 376.868 377.053 373.528 380.989 370.792 z"/>
<path transform="translate(0,0)" fill="rgb(194,168,96)" d="M 555.224 200.666 C 556.563 200.822 556.505 200.782 558.025 201.141 C 564.253 202.608 567.064 206.664 570.372 211.781 C 588.278 239.479 604.452 268.218 621.629 296.36 C 631.547 312.608 647.958 335.972 655.029 352.412 C 656.088 354.874 656.443 357.101 655.577 359.731 C 654.272 363.699 650.362 365.333 646.946 367.099 C 645.653 367.072 644.798 367.087 643.471 366.899 C 638.726 366.228 636.827 363.704 634.313 360.019 C 628.171 351.019 623.064 340.992 617.519 331.581 A 4464.46 4464.46 0 0 0 588.518 283.435 C 575.431 262.007 559.454 240.873 548.292 218.441 C 546.777 215.397 545.626 212.88 546.659 209.409 C 547.926 205.153 551.714 202.924 555.224 200.666 z"/>
<path transform="translate(0,0)" fill="rgb(194,168,96)" d="M 778.387 124.811 C 782.906 125.005 787.233 125.76 790.319 129.456 C 792.429 131.983 792.942 136.047 793.577 139.206 C 796.984 156.174 819.884 294.444 818.46 301.402 C 817.648 305.366 813.322 307.601 810.223 309.553 C 809.886 309.593 809.549 309.637 809.212 309.672 C 805.243 310.086 802.684 310.066 799.552 307.212 C 796.691 304.605 795.928 300.159 795.163 296.548 C 792.632 284.593 791.648 272.149 789.765 260.054 L 779.373 194.739 C 776.683 176.854 770.643 149.283 770.537 131.867 C 772.144 128.607 775.472 126.813 778.387 124.811 z"/>
<path transform="translate(0,0)" fill="rgb(194,168,96)" d="M 661.447 1481.34 C 662.532 1481.42 663.428 1481.43 664.502 1481.73 C 665.664 1482.06 666.313 1482.57 667.253 1483.35 C 676.697 1491.17 690.259 1511.01 699.128 1521.42 A 905.492 905.492 0 0 0 752.683 1578.32 C 848.821 1671.67 951.489 1740.15 1069.89 1801.59 C 1078.03 1805.81 1105.8 1816.5 1108.78 1823 C 1109.05 1826.14 1107.42 1828.05 1105.8 1830.55 C 1095.03 1828.81 1051.67 1803.92 1039.38 1797.43 C 991.283 1772.01 943.595 1744.1 899.111 1712.72 C 882.414 1700.95 866.343 1687.95 850.115 1675.52 C 791.747 1630.78 737.997 1582.96 690.66 1526.53 C 683.005 1517.4 662.934 1498.19 660.023 1487.12 C 659.303 1484.38 660.154 1483.71 661.447 1481.34 z"/>
<path transform="translate(0,0)" fill="rgb(194,168,96)" d="M 894.171 1399.69 C 896.404 1399.61 898.545 1399.45 900.732 1400.02 C 905.451 1401.23 910.784 1427.62 912.708 1433.27 C 914.579 1438.75 916.855 1444.16 919.852 1449.14 C 933.03 1471.02 952.917 1474.58 976.128 1475.36 C 981.92 1475.56 988.628 1475.25 994.197 1476.93 C 996.565 1477.65 997.41 1478.32 998.595 1480.43 C 997.669 1483.66 996.285 1485.58 993.25 1487.18 C 988.873 1489.49 982.359 1489.81 977.5 1490.79 C 964.762 1493.38 951.743 1498 940.934 1505.35 C 921.141 1518.81 918.526 1539.68 918.483 1562.03 C 918.47 1568.96 919.189 1576 917.835 1582.83 C 915.474 1584.82 915.006 1585.23 911.998 1585.77 C 901.771 1579.81 903.66 1542.02 893.901 1528.39 C 879.449 1508.21 866.48 1498.77 840.85 1499.6 C 834.691 1499.8 828.089 1501.45 822.049 1500.06 C 819.577 1497.98 819.181 1497.45 818.014 1494.45 C 818.683 1491.71 818.694 1491.11 821.318 1489.59 C 824.039 1488.02 828.519 1487.53 831.586 1486.91 C 846.326 1483.93 864.319 1481.96 875.97 1471.59 C 895.204 1454.47 893.308 1423.04 894.171 1399.69 z"/>
<path transform="translate(0,0)" fill="rgb(245,245,244)" d="M 902.216 1441.62 L 905.282 1446.58 C 919.386 1469.42 930.95 1478.6 957.57 1484.87 A 209.994 209.994 0 0 0 952.4 1486.57 C 932.014 1493.56 921.159 1502.12 911.5 1521.73 L 907.605 1531.2 C 897.19 1507.2 888.294 1501.92 865.395 1491.97 C 869.495 1490.15 873.654 1488.14 877.392 1485.64 C 891.333 1476.31 899.277 1457.55 902.216 1441.62 z"/>
<path transform="translate(0,0)" fill="rgb(194,168,96)" d="M 1367.89 447.404 C 1373.89 447.674 1381.63 452.514 1386.84 455.345 C 1513.5 524.27 1596.5 698.118 1643.13 828.219 C 1655.7 863.273 1666.58 899.865 1677.22 935.558 C 1686.54 966.776 1693.77 998.942 1700.48 1030.81 A 1402.37 1402.37 0 0 1 1731.66 1353.38 C 1731.52 1366.88 1733.54 1402.71 1727.62 1413.64 C 1726.75 1413.72 1724.83 1413.93 1724 1413.86 C 1723.85 1413.84 1722.08 1413.4 1721.82 1413.13 C 1718.86 1410.1 1721.49 1374.03 1721.66 1367.54 C 1722.42 1339.72 1721.31 1311.97 1720.29 1284.18 C 1718.02 1221.89 1713.21 1160.82 1702.62 1099.32 C 1696.23 1062.27 1688.71 1025.82 1680.29 989.196 C 1677.13 975.451 1674.47 961.532 1670.79 947.918 C 1663.38 920.546 1654.01 893.068 1644.99 866.17 C 1619.71 790.798 1590.51 718.856 1551.02 649.738 C 1530.78 614.303 1508.97 580.345 1482.16 549.427 C 1461.55 525.659 1438.31 501.586 1412.41 483.613 C 1403.59 477.492 1370.14 459.805 1366.15 454.308 C 1365.71 451.007 1366.43 450.309 1367.89 447.404 z"/>
<path transform="translate(0,0)" fill="rgb(194,168,96)" d="M 1488.16 857.262 C 1488.77 857.516 1489.42 857.69 1490 858.024 C 1491.74 859.037 1492.95 861.262 1493.52 863.119 C 1499.03 880.801 1498.2 895.836 1506.32 915.512 C 1518.87 945.963 1546.47 972.581 1580.6 976.312 C 1588.99 977.229 1602.19 975.788 1609.77 979.482 C 1612.22 980.671 1612.85 981.564 1613.79 984.039 C 1610.07 992.259 1589.05 991.509 1580.73 993.203 C 1576.53 994.059 1572.75 995.689 1568.88 997.463 C 1537.43 1011.85 1514.27 1041.67 1509.86 1076.08 C 1508.44 1087.24 1509.46 1100.76 1505.58 1111.21 C 1502.91 1112.51 1500.51 1111.84 1497.71 1111.41 C 1495.14 1103.49 1494.85 1094.65 1493.77 1086.41 C 1491.53 1069.27 1483.91 1052.15 1474.21 1037.95 C 1458.82 1015.44 1433.48 999.929 1406 997.876 C 1396.44 997.161 1385.67 998.47 1376.36 996.316 C 1373.45 995.642 1372.77 995.233 1371.3 992.66 C 1371.48 989.971 1371.66 987.834 1374.37 986.499 C 1380.27 983.585 1387.87 983.563 1394.32 982.972 C 1415.93 980.997 1435.89 974.62 1452.47 960.027 C 1494.41 923.115 1477 869.559 1488.16 857.262 z"/>
<path transform="translate(0,0)" fill="rgb(245,245,244)" d="M 1492.12 909.726 C 1498.1 920.012 1501.41 931.83 1507.66 942.185 C 1521.58 965.243 1543.04 977.108 1568.67 983.355 C 1561.67 986.554 1554.7 990.067 1548.13 994.082 C 1520.67 1010.87 1507.57 1034.73 1500.25 1065.24 L 1499.67 1065.52 C 1497.73 1061.56 1497.4 1057.12 1495.7 1053.04 C 1480.95 1017.66 1459.25 1002.28 1425 988 C 1433.37 984.819 1441.43 981.862 1449.09 977.111 C 1475.4 960.795 1485.32 938.925 1492.12 909.726 z"/>
<path transform="translate(0,0)" fill="rgb(194,168,96)" d="M 542.204 1252.08 C 543.678 1252.66 545.454 1253.12 546.002 1254.86 C 547.624 1260.04 547.155 1268.56 547.708 1274.15 C 550.262 1299.99 555.144 1326.13 571.003 1347.4 C 591.489 1374.88 622.052 1385.69 654.981 1389.69 C 662.758 1390.63 670.605 1390.63 678.366 1391.7 L 678.749 1393.52 C 675.162 1398.63 661.324 1396.57 655.142 1398.1 C 628.019 1404.85 608.415 1406.12 585.311 1424.86 C 553.283 1450.85 547.54 1491.13 543.492 1529.74 C 542.695 1531.54 543.323 1530.81 541.539 1531.86 C 540.032 1529.78 536.163 1498.68 535.051 1493.44 C 531.312 1475.84 526.119 1457.73 515.592 1442.87 C 498.821 1419.19 469.818 1405.88 441.953 1400.92 C 429.896 1398.77 417.627 1398.19 405.546 1396.13 C 414.106 1394.25 423.078 1393.93 431.776 1392.92 C 455.309 1390.2 477.212 1383.32 496.124 1368.66 C 532.412 1340.53 536.821 1294.18 542.204 1252.08 z"/>
<path transform="translate(0,0)" fill="rgb(194,168,96)" d="M 1275.55 311.788 C 1282.26 318.721 1293.74 352.434 1298.25 363.4 C 1306.55 383.573 1315.98 403.313 1324.03 423.58 C 1348.67 485.698 1368.08 550.604 1370.71 617.768 C 1371.8 645.54 1370.94 674.118 1366.48 701.59 C 1355.5 769.272 1322.88 839.999 1276.45 890.455 C 1280.13 970.596 1269.55 1037.2 1241.21 1112.35 C 1235.44 1127.64 1228.06 1142.19 1222.16 1157.4 C 1231.31 1162.71 1239.51 1169.89 1242.33 1180.47 C 1246.33 1195.48 1239.4 1207.49 1231.95 1219.85 C 1241.62 1228.62 1249.92 1239.78 1258.56 1249.62 A 1085.72 1085.72 0 0 0 1292.14 1285.42 C 1351.38 1346.4 1432.05 1395.12 1516.09 1411.26 C 1535.79 1415.05 1556.47 1417.14 1576.49 1418.29 C 1587.16 1418.9 1598.52 1418.22 1609.04 1420.09 C 1614.15 1421 1617.64 1422.27 1621.61 1425.7 C 1637.18 1439.18 1670.89 1494.39 1685.12 1515.04 C 1696 1510.55 1707.47 1507.02 1719.32 1506.62 A 59.4004 59.4004 0 0 1 1762.41 1523.01 C 1774.03 1533.94 1780.32 1548.34 1780.71 1564.33 C 1781.16 1582.61 1774.05 1599 1761.5 1612.12 C 1752.14 1621.9 1740.73 1629.88 1730.11 1638.24 C 1699.96 1661.99 1669.05 1683.86 1637.63 1705.86 A 2958.36 2958.36 0 0 1 1368.42 1873.78 C 1341.43 1888.82 1281.07 1924.75 1252.04 1925.23 C 1234.36 1925.52 1216.18 1918.39 1203.59 1905.93 A 55.1788 55.1788 0 0 1 1186.92 1866.81 C 1186.88 1842.01 1199.93 1827.68 1216.49 1811.11 A 1901.31 1901.31 0 0 0 1189.14 1763.98 C 1180.82 1750.29 1169.87 1735.9 1164.42 1720.81 C 1155.7 1696.64 1168.08 1680.85 1177.97 1659.97 C 1185.94 1643.44 1191.32 1625.34 1195.66 1607.55 C 1216.46 1522.13 1205.91 1437.9 1175.94 1356.2 C 1166.61 1330.78 1156.04 1305.14 1141.97 1281.94 C 1129.53 1282.18 1117.96 1281.61 1107.99 1273.12 C 1097.99 1264.61 1095.36 1252.57 1094.61 1240.11 C 1039.69 1240.07 991.739 1236.75 938.35 1222.27 C 920.984 1217.56 884.256 1202.01 870.07 1200.95 C 858.797 1200.11 846.058 1204.71 834.644 1205.7 C 792.959 1209.35 753.122 1212.71 711.262 1208.85 C 598.474 1198.44 506.61 1140.1 424.288 1065.8 C 397.515 1041.63 368.97 1009.37 339.704 989.463 C 330.441 983.163 319.232 979.104 309.428 973.578 C 322.098 969.148 335.878 968.455 348.751 964.473 C 390.894 951.436 433.009 929.105 465.78 899.469 C 474.046 891.994 481.51 883.532 489.076 875.358 C 478.497 855.469 460.204 836.522 451.104 817.614 C 449.334 813.938 449.515 811.978 451.018 808.211 C 456.904 793.457 478.29 772.155 489.219 759.556 C 545.204 695.021 610.804 639.11 680.611 589.959 C 705.702 572.292 731.831 555.823 757.478 538.963 C 820.144 497.766 885.378 457.593 954.368 427.867 C 980.807 416.475 1065.88 383.339 1092.23 394.672 C 1107.99 401.446 1113.78 420.367 1119.63 435.051 A 440.075 440.075 0 0 0 1154.04 421.986 C 1213.25 396.759 1250.53 373.798 1275.55 311.788 z"/>
<path transform="translate(0,0)" fill="rgb(245,245,244)" d="M 1264.11 424.857 L 1265.47 425.654 C 1286.79 472.303 1302.55 524.228 1310.4 574.882 C 1322.3 651.605 1313.61 741.794 1266.66 806.031 C 1262.81 788.567 1257.96 771.144 1252.86 754.002 C 1233.57 683.945 1207.05 616.429 1177.73 550.044 C 1167.9 527.769 1155.97 506.367 1146.65 483.899 C 1190.81 467.296 1225.93 453.532 1264.11 424.857 z"/>
<path transform="translate(0,0)" fill="rgb(245,245,244)" d="M 523.23 915.701 C 525.722 916.725 559.801 957.944 564.456 963.165 C 575.29 975.316 586.808 986.996 598.237 998.594 C 620.136 1020.82 644.133 1041.56 668.027 1061.61 C 711.364 1097.97 751.479 1128.32 798.298 1159.89 C 767.188 1161.23 737.739 1162.49 706.749 1158.48 C 630.26 1150.73 548.661 1104.83 490.344 1055.99 C 467.181 1036.6 446.196 1014.86 425.016 993.365 C 441.102 983.493 457.238 973.536 472.146 961.926 C 490.27 947.812 506.675 931.584 523.23 915.701 z"/>
<path transform="translate(0,0)" fill="rgb(245,245,244)" d="M 1185.9 1233.59 C 1189.9 1233.21 1193.95 1233.13 1197.97 1232.95 C 1223.05 1265.78 1251.22 1297.95 1281.26 1326.35 C 1348.33 1389.76 1442.26 1441.89 1534.87 1452.48 C 1555.78 1454.87 1576.71 1454.05 1597.69 1453.46 C 1609.21 1465.12 1620.41 1485.49 1629.89 1499.56 C 1642.98 1518.99 1657.49 1538.04 1669.15 1558.34 C 1684.17 1550.7 1709.24 1539.61 1726.64 1543 C 1732.66 1544.18 1738.05 1548.23 1741.33 1553.37 C 1744.24 1557.91 1744.97 1563.06 1743.76 1568.29 C 1741.82 1576.67 1735.79 1583.89 1729.85 1589.88 C 1713.36 1606.5 1692.56 1620.22 1673.73 1634.04 C 1621.72 1672.22 1568.02 1707.58 1513.95 1742.73 A 2550.91 2550.91 0 0 1 1330.3 1851.61 C 1308.88 1862.97 1286.48 1876.1 1263.48 1883.76 C 1257.12 1885.87 1250.57 1887.26 1243.83 1886.65 C 1237.91 1886.12 1230.99 1884.4 1227.12 1879.51 C 1223.02 1874.34 1222.98 1866.43 1223.99 1860.23 C 1227.24 1840.36 1246.77 1826.7 1262.12 1815.95 C 1240.36 1779.53 1217.84 1742.92 1197.24 1705.86 C 1204.46 1690.13 1212.36 1674.88 1218.28 1658.58 C 1256.36 1553.77 1248.74 1450.37 1210.67 1347.02 A 822.806 822.806 0 0 0 1191.44 1299.65 C 1185.88 1287.33 1173.32 1265.45 1171.01 1253.38 C 1169.79 1247.04 1172.93 1240.45 1174.95 1234.56 L 1185.9 1233.59 z"/>
<path transform="translate(0,0)" fill="rgb(194,168,96)" d="M 1716.25 1562.09 C 1719.47 1561.93 1722.37 1561.55 1725.42 1562.86 L 1725.8 1564.62 C 1712.99 1592.09 1447.19 1760.5 1408.64 1783.36 C 1375.44 1803.05 1341.9 1821.37 1307.7 1839.22 C 1288.8 1849.09 1270.16 1859.67 1250.24 1867.35 C 1249.37 1867.57 1248.39 1867.87 1247.5 1867.91 C 1244.62 1868.06 1243.93 1867.82 1241.92 1866.03 C 1241.77 1863.61 1242.26 1862.1 1243.47 1860.05 C 1252.74 1844.25 1286.55 1823.46 1301.76 1812.13 A 2952.8 2952.8 0 0 1 1398.55 1742.5 C 1413.98 1731.97 1430.01 1722.21 1445.58 1711.85 C 1508.72 1669.86 1573.24 1628.9 1640.9 1594.51 C 1664.64 1582.44 1690.37 1568.71 1716.25 1562.09 z"/>
<path transform="translate(0,0)" fill="rgb(194,168,96)" d="M 1594.61 1483.77 C 1596.67 1484.4 1596.99 1484.91 1598.31 1486.54 C 1605.89 1495.94 1612.1 1507.31 1618.99 1517.33 C 1630.04 1533.42 1642.44 1549.27 1652.13 1566.21 C 1556.09 1613.95 1466.12 1672.95 1378.16 1734.06 C 1346.2 1756.26 1313.49 1777.88 1282.55 1801.45 C 1280.41 1803.04 1279.89 1803.79 1277.27 1803.92 C 1270.62 1795.66 1265.74 1785.04 1260.53 1775.8 C 1250.1 1757.29 1239.69 1738.22 1227.27 1720.96 C 1239.31 1712.87 1252.31 1705.95 1264.57 1698.16 L 1393.32 1617.07 A 6579.07 6579.07 0 0 0 1549.18 1516.59 C 1564.68 1506.08 1579.21 1494.33 1594.61 1483.77 z"/>
<path transform="translate(0,0)" fill="rgb(194,168,96)" d="M 1193.49 1258.74 C 1215.01 1282.88 1235.78 1307.63 1258.79 1330.41 C 1280.1 1351.51 1303.91 1372.56 1328.45 1389.8 C 1399.22 1439.54 1489.95 1475.18 1577.28 1474.78 C 1522.5 1509.96 1468.88 1546.53 1413.53 1580.91 C 1349.94 1622.03 1286.55 1664.47 1221.03 1702.44 A 1250.03 1250.03 0 0 0 1232.93 1673.26 C 1275.52 1563.66 1270.06 1448.36 1228.89 1339.28 C 1218.47 1311.67 1205.31 1285.67 1193.49 1258.74 z"/>
<path transform="translate(0,0)" fill="rgb(245,245,244)" d="M 1069.68 433.411 C 1071.19 433.161 1075.2 432.676 1076.45 433.457 C 1081.65 436.713 1088.14 454.212 1091.34 460.211 A 1623.46 1623.46 0 0 1 1206.22 731.471 C 1242.33 846.691 1255.55 972.96 1210.97 1087.98 C 1200.81 1114.2 1189.07 1140.53 1175.57 1165.21 C 1168.57 1178 1160.34 1190.06 1153.59 1202.99 C 1122.3 1205.15 1090.64 1207.02 1059.27 1205.75 A 492.247 492.247 0 0 1 849.712 1148.61 C 822.67 1133.98 796.523 1116.09 771.445 1098.38 C 687.819 1040.45 608.587 962.753 543.839 884.308 C 525.738 862.377 507.344 839.689 492.863 815.156 C 497.871 807.018 504.217 799.428 510.318 792.079 A 800.833 800.833 0 0 1 612.846 689.399 C 682.834 630.301 760.217 579.047 838.7 532.022 C 881.853 506.166 926.317 480.224 972.704 460.638 C 1003.5 447.635 1036.26 436.493 1069.68 433.411 z"/>
<path transform="translate(0,0)" fill="rgb(194,168,96)" d="M 1052.47 455.211 C 1053.04 455.096 1053.63 455.322 1054.21 455.416 C 1054.21 456.386 1054.28 456.753 1053.86 457.767 C 1050.07 466.811 1020.88 498.425 1011.97 507.419 C 1001.37 518.109 990.925 529.065 979.755 539.161 C 957.724 559.075 934.04 577.232 910.537 595.351 C 816.736 667.663 704.344 739.278 595.534 787.238 C 571.183 797.971 547.252 808.975 521.214 815.062 L 519.263 815.014 L 518.45 813.774 C 518.916 812.102 519.514 810.844 520.475 809.396 C 533.502 789.782 561.349 762.652 578.877 746.261 C 644.775 684.636 716.086 633.563 791.395 584.264 C 853.436 543.65 917.923 504.267 986.435 475.467 C 1007.47 466.626 1030.13 459.859 1052.47 455.211 z"/>
<path transform="translate(0,0)" fill="rgb(194,168,96)" d="M 1072.68 465.813 C 1081.25 476.497 1090.3 498.978 1096.78 511.93 C 1139.58 597.351 1177.33 691.667 1200.92 784.263 C 1207.38 809.604 1213.44 835.053 1216.43 861.077 C 1227.28 955.661 1213.18 1048.32 1171.22 1134.12 C 1162.94 1151.05 1154.01 1170 1142.25 1184.78 A 104.616 104.616 0 0 1 1137.12 1185.69 C 1117.34 1188.67 1096.47 1188.31 1076.51 1188.19 C 964.212 1187.46 871.092 1148.55 781.454 1082.5 C 759.542 1065.98 736.956 1049.91 715.918 1032.3 C 643.79 971.937 584.14 905.483 525.358 832.514 C 571.597 822.934 615.296 800.998 657.025 779.497 C 766.521 723.077 887.693 644.851 980.446 563.905 C 1014.5 534.182 1046.13 502.423 1072.68 465.813 z"/>
<path transform="translate(0,0)" fill="rgb(245,245,244)" d="M 893.612 749.272 C 912.097 748.109 932.396 761.395 946.029 772.634 C 995.95 813.788 1047.76 895.659 1053.6 960.453 C 1054.99 975.861 1054.39 995.005 1043.66 1007.22 C 1036.98 1014.84 1028.44 1017.87 1018.55 1018.42 C 1003.97 1017.49 991.437 1009.88 979.904 1001.46 C 927.319 963.093 887.837 900.054 867.11 839.086 C 862.987 826.958 858.905 814.489 856.943 801.811 C 854.956 788.97 855.285 775.376 863.519 764.599 C 871.056 754.734 881.851 751.126 893.612 749.272 z"/>
<path transform="translate(0,0)" fill="rgb(194,168,96)" d="M 891.821 776.037 L 892.275 776.034 C 894.331 776.002 896.441 775.946 898.482 776.242 C 923.929 779.93 967.15 833.601 981.721 855.719 C 1000.11 883.628 1032.93 947.834 1025.22 980.205 C 1024.25 984.242 1022.14 985.825 1018.8 988.009 C 994.586 983.703 975.175 963.907 959.586 946.209 C 930.851 913.586 880.422 834.591 883.978 791.088 C 884.557 784.009 886.55 780.663 891.821 776.037 z"/>
</svg>