<svg xmlns="http://www.w3.org/2000/svg" display="block" viewBox="0 0 2048 2048"><defs><linearGradient id="a" x1="1563.73" x2="1536.19" y1="841.512" y2="836.473" gradientUnits="userSpaceOnUse"><stop class="stop0" offset="0" stop-color="#ffe8ce"/><stop class="stop1" offset="1" stop-color="#fdf9e0"/></linearGradient></defs><path fill="#f0e6d5" d="M0 0h2048v2048H0z"/><path fill="#442b19" d="M151.842 1052.11c.298 0 .595-.02.892-.01 19.785.11 49.044 6.3 63.488 20.92l-.68.93c-11.165-2.32-60.074-11.69-64.953-19.05zm708.951 731.11.601-.07c15.593-1.97 73.48 10.97 88.543 17.25l.273 1.3a397 397 0 0 1-17.733.35c-14.764-.17-61.415-5.69-71.896-16.48zm-715.976-706.78c23.037-1.31 50.703 2.73 72.111 11.4 5.683 2.3 18.462 7.14 20.892 12.92l-2.578.56a113 113 0 0 1-4.235-.25c-16.59-1.32-33.326-7.1-49.561-10.78-11.687-2.65-23.838-4.12-35.253-7.79-2.285-.74-4.061-1.25-5.659-3.14l.896-1.79zm322.295 328.98c22.374-2.26 58.084-.87 79.147 7.15 8.7 3.32 16.33 8.35 23.801 13.84 1.798 1.32 3.609 2.03 3.953 4.29-10.595-2.81-21.197-5.6-31.938-7.8-11.179-2.28-68.855-10.26-75.448-15.47zm273.643 265.75c19.111-1.35 47.34 2.27 65.727 6.92 11.037 2.79 30.959 9.95 37.041 20.18-15.197-2.07-87.468-16.38-98.526-21.89-2.903-1.45-3.373-2.14-4.242-5.21m68.325 72.02a54 54 0 0 1 4.761-.2c31.437.16 84.738 9.33 107.564 32.44-11.065-1.68-103.655-24.61-109.339-27.44-2.47-1.23-2.308-2.3-2.986-4.8m-32.272-38c11.424-.64 23.962 1.38 35.362 2.63 26.927 2.96 54.864 6.74 73.107 29.5-12.394-3.95-24.854-8.26-37.457-11.46-13.63-3.47-62.093-10.23-70.067-16.79-1.145-.94-.823-2.5-.945-3.88m-195.774-194.83c27.465.08 60.449 3.51 84.942 16.22 7.993 4.14 15.346 9.79 22.613 15.08l-2.047.33c-15.919-5.19-104.066-24.25-109.142-28.66l.483-1.9zm-337.982-331.13c16.776-.2 33.693 2.74 50.228 5.28 15.816 2.43 47.456 11.57 57.192 24.83l-1.711.75c-16.023-3.75-99.478-21.38-107.974-26.74l-.369-1.71zm377.762 374.08c27.689-1.35 67.985 1.96 92.144 15.68 4.114 2.34 15.86 9.52 17.034 13.68-14.564-3.72-104.864-20.9-109.857-26.66zm-467.3-448.03c29.338-.94 82.651 4.87 107.821 20.19 3.622 2.21 9.81 5.68 10.811 9.79-14.253-3.62-114.501-23.76-117.661-25.58-.682-.4-1.097-1.13-1.646-1.69zm334.184 334.1c31.605-.33 70.317-.45 99.799 11.61 4.927 2.02 19.613 8.5 21.517 13.07-24.64-4.76-49.423-8.21-74.264-11.73-13.615-1.93-28.715-2.9-41.835-6.94-2.561-.79-4.193-1.79-5.828-3.96zm-224.61-224.11c1.327-.18 2.559-.33 3.901-.36 26.874-.61 71.598 4.55 96.128 15.28a83.7 83.7 0 0 1 25.201 17.23c-8.469-.94-17.519-4.34-25.857-6.43a4040 4040 0 0 0-52.333-12.47c-7.52-1.72-41.89-7.21-45.766-9.86-1.2-.82-1.021-2.06-1.274-3.39m160.351 151.94c23.396-.7 67.31 2.63 88.673 11.42 6.093 2.51 21.878 9.04 24.439 15.15l-3.088-.07c-17.054-2.71-34.067-6.64-51.101-9.66-17.921-3.19-36.305-5.46-53.972-9.74-3.559-.87-9.49-1.89-11.968-4.59 1.981-1.79 4.458-1.93 7.017-2.51m-234.685-225.89a48 48 0 0 1 6.11-.27c12.009.24 24.276 1.89 36.192 3.36 30.013 3.71 66.183 8.03 88.17 31.27-10.27-2.75-20.202-6.42-30.605-8.85-16.262-3.8-93.191-15.88-99.867-25.51m342.773 332.9c25.443-.59 68.174 1.18 91.281 11 8.94 3.8 18.271 10.63 25.603 16.95l-.767.96c-34.13-10.04-69.101-13.28-103.712-20.63-4.381-.94-10.808-1.72-13.315-5.6zm163.5 157.22c19.007-2.86 43.016.43 62.013 3.79 18.006 3.19 44.576 13.48 55.429 28.89-26.821-8.42-54.296-14.06-81.598-20.64-9.508-2.29-25.982-4.44-33.949-8.94-1.808-1.02-1.405-1.23-1.895-3.1M348 1291.01c34.567-.22 88.577 5.41 114.087 30-7.145.13-104.78-19.75-112.011-23.21-2.003-2.52-1.778-3.65-2.076-6.79m291.171 297.25c11.424-.3 23.552 1.4 34.94 2.49 32.289 3.09 67.15 6.08 92.138 29.17-13.378-2.31-122.6-23.62-126.636-27.63-1.092-1.08-.518-2.62-.442-4.03M301.11 1250.44c21.553-1.7 84.453 8.13 103.728 17.86 6.606 3.34 20.494 11.21 22.896 18.38-33.522-9.85-67.682-17.12-101.496-25.85-6.972-1.81-14.278-2.88-21.141-4.95-2.412-.73-3.148-1.06-4.767-2.89zm68.456 77.77c29.199-1.52 80.994 3.53 107.515 14.44 10.304 4.23 19.862 10.99 28.144 18.38-13.17-2.27-26.171-5.85-39.305-8.41-16.109-3.13-83.345-13.55-93.541-19.01-2.464-1.31-2.284-2.91-2.813-5.4M1053.91 197.397c3-.278 6.09-.165 9.1-.066 21.82.716 43.05 9.321 60.47 22.217 19.9 14.723 38.06 32.993 56.56 49.483a6330 6330 0 0 1 101.09 90.563c77.14 70.316 155.61 139.34 233.71 208.598l278.23 249.1a4600 4600 0 0 0 69.38 60.418c11.99 10.343 25.47 20.436 36.16 32.091l1.27 1.409c5.54 6.038 6.35 17.97 5.96 25.792-1.83 36.893-21.5 29.661-40.79 48.867-24.1 23.991-41.18 78.391-46.56 112.371-2.05 12.95-2.69 26.25-2.63 39.34.14 28.44 5.42 63.45 23.63 86.43 4.78 6.03 10.96 11.21 16.96 15.98 10.43 8.29 23.01 15.07 32.25 24.64 6.66 6.89 11.1 15.59 10.75 25.35-.48 13.65-8.24 24.5-18.56 32.75-13.43 10.73-32.52 17.91-48 25.72a5893 5893 0 0 1-92.69 46.66 13814 13814 0 0 0-256.17 130.41c-15.96 8.29-64.52 30.16-74.62 39.95-.2.19-.4.39-.59.59 2.21 27.71 7.74 54.64 19.52 79.98 32.03 68.91 90.48 97.1 157.58 121.48-58.91 5.63-117.7 1.8-176.31-4.88-9.73 32.81-9.27 62.72-3.5 96.19-12.37-7.64-25.59-13.83-37.83-21.71-45.21-29.09-75.04-69.28-93.43-119.45-4.98-16.05-7.21-32.16-10.16-48.63-21.25 9.87-41.38 22.9-62.27 33.63l-156.04 78.45c-22.46 11.27-43.74 23.26-69.552 14.49-13.645-4.64-25.478-13.33-35.909-23.09-16.507-15.45-31.067-32.67-46.484-49.15-13.603-14.55-28.102-28.38-42.156-42.51l-233.568-232.57-274.813-274.3c-47.32-46.92-97.616-91.44-143.024-140.23-12.225-13.13-21.883-26.48-29.702-42.713-44.907-93.242-30.502-206.91 2.522-301.401 11.576-33.124 31.368-84.92 59.483-106.422 12.343-9.44 27.187-15.919 40.955-22.972a3071 3071 0 0 1 85.906-42.127c3.385-5.79 6.504-11.336 11.905-15.539 5.006-3.895 78.202-37.704 85.854-39.524 4.36-1.036 9.812.205 14.219.804 57.833-30.898 118.052-57.936 177.413-85.707l160.928-76.031 140.522-65.877c21.598-9.989 42.723-21.028 64.961-29.592 12.56-4.839 24.68-7.931 38.07-9.262"/><path fill="#f0e6d5" d="M1405.85 1026.34c1.55.97 2.89 1.75 3.79 3.44 2.03 3.78.13 7.86-1.22 11.51l-1.49.26c-2.86-3.74-1.5-10.69-1.08-15.21M990.549 464.663c.92 3.154 1.231 6.946.775 10.203-.566 4.042-2.236 5.533-5.251 7.855-2.209-6.577 1.675-12.217 4.476-18.058m-127.967-68.838.897 1.743a75 75 0 0 1-.906 2.635c-1.702 4.626-3.85 9.542-8.494 11.731-.583-.753-1.008-1.666-1.474-2.497 1.866-5.635 5.903-9.49 9.977-13.612M1298.17 793.65c.35.371.77.683 1.04 1.113 3.18 5.123 2.78 19.613.51 25.071-.61-1.194-.69-1.272-1.23-2.743-2.74-7.444-3.95-16.196-.32-23.441m-367.364 24.775c.759.829 1.529 1.58 2.064 2.596 2.815 5.35-3.171 17.978-5.14 23.431-.542-.407-1.39-.987-1.767-1.543-2.886-4.263 3.192-19.564 4.843-24.484m16.609 9.285 1.494 1.85c.84 8.694-5.822 22.384-9.833 30.03l-1.63-1.787c-1.04-8.381 6.303-22.458 9.969-30.093m330.865 584.17c-4.69-3.83-20.81-12.57-22.76-16.63l2.02-1.69c7.73.24 18.82 10.99 24.66 15.94zM599.841 520.979l.65 1.26c-1.554 9.335-13.215 21.547-19.103 28.981-1.223-1.555-1.13-.843-.972-2.625.822-9.27 12.599-22.006 19.425-27.616m1020.179 296.57 1.79 1.556c3.28 8.538-1.33 35.057-2.56 44.928l-.63-.054c-3.01-8.939-1.54-37.407 1.4-46.43m-730.375-434.07c1.715 1.17 1.337 1.096 1.805 2.965-1.392 7.376-7.363 21.214-13.46 25.722-1.288-.49-2.087-.977-3.21-1.743.221-8.005 10.263-20.369 14.865-26.944m428.205 399.893c1 .747 1.72 1.694 2.54 2.626 2.46 9.3 1.07 25.031-2.38 33.825l-2.34-1.328c-3.09-9.734.28-25.207 2.18-35.123m23.61-9.747c1.17 1.049 1.11.648 1.39 2.059 1.51 7.613-1.76 39.858-5.39 46.113l-1.94-2.107c-1.52-9.291 2.17-37.664 5.94-46.065M1171.57 495.62c1.82 5.311-.46 13.46-1.54 18.833-1.67 8.316-3.51 24.388-10.94 29.345-2.47-9.579 8.92-37.723 12.48-48.178m108.82 18.131.81.708c5.98 12.983 2.73 43.972 1.53 58.875l-1.5-.266c-3.41-13.078-1.48-44.792-.84-59.317m97.36 498.769c1.33 1.07 1.87 1.8 2.52 3.43 4.36 11.1 2.47 37.99-2.09 48.78l-1.12-.26c-1.3-3.12.02-45.4.69-51.95m-19.42-4.95c.74.57 1.23.8 1.68 1.61 3.62 6.43 2.82 60.22.34 68.85l-.67.34c-1.85-3.47-1.43-62.37-1.35-70.8M911.345 767.406c1.727 1.178 2.053 1.562 3.105 3.25.392 11.988-5.706 31.18-11.038 42.056-.594.246-1.28.119-1.922.141-2.451-8.038 7.405-36.593 9.855-45.447m-74.783-66.651c.679 8.967-13.958 50.829-19.317 57.915-.173-.444-.374-.878-.519-1.331-3.093-9.647 14.723-46.223 19.836-56.584m128.986 127.987c.855.821.3.199 1.196 2.195-1.641 13.315-5.549 36.872-12.473 48.39l-2.441-3.346c-1.311-8.203 10.001-38.881 13.718-47.239m-8.304-221.092c1.211 1.518 1.223 1.778.946 3.76-1.383 9.932-13.315 46.617-18.402 55.573-1.266 2.231-3.316 3.771-5.332 5.287l-.779-.731c-.745-3.656 5.893-14.871 7.51-19.061 5.685-14.728 9.554-30.47 16.057-44.828m341.896-80.425c1.05.392 2.07.981 3.07 1.486 4.52 11.484 1.28 37.946.56 50.848-1.67.392-.7.335-2.92-.24-3.55-7.295-1-41.677-.71-52.094M810.632 679.746c.128 1.181.162 2.354.006 3.537-1.247 9.468-18.595 60.458-25.359 65.563-.819-2.057-1.337-2.994-.945-5.25 2.2-12.636 20.382-49.894 26.298-63.85m154.143-307.942c.027.28.078.558.081.839.091 9.538-21.121 54.273-27.808 62.347-.138-.347-.31-.683-.415-1.043-2.798-9.617 22.325-52.361 28.142-62.143m295.005 119.824c.53.443 1.25.998 1.65 1.561 5.61 7.77 2.78 58.892 2.33 70.773l-2.49-2.195c-2.48-5.76-2.71-62.35-1.49-70.139M930.468 362.745l1.093 1.741c-5.233 8.834-11.53 17.046-16.78 25.926-5.858 9.91-10.632 20.509-17.066 30.061l-1.262-1.305c.428-17.962 21.665-44.025 34.015-56.423m274.852 84.938 1.4 1.417c5.38 17.371-5.44 58.423-12.63 74.92l-.69.383c-1.65-4.357 1.95-15.381 3.06-20.043 4.47-18.824 5.7-37.687 8.86-56.677M854.585 563.499c.815.537 1.323 1.264 1.947 2.005-.83 12.589-20.899 51.606-27.145 64.912l-.592.298-.535-1.229c5.208-21.919 15.062-46.429 26.325-65.986m-203.761-34.134 1.844 1.218c-.167 8.204-24.859 51.564-30.435 61.534-1.035-.463-1.475-1.142-2.211-1.981.778-10.193 24.003-50.491 30.802-60.771M1361.3 759.704c3.24 8.825 1.76 63.671-1.72 71.971-1.55-1.062-2.26-1.799-2.67-3.699-1.76-8.192.45-62.828 4.39-68.272m-382.504 89.892c1.056.924 1.798 1.931 2.656 3.036.929 13.935-11.746 48.481-17.295 61.931l-2.276-1.258c-1.572-7.81 13.276-55.482 16.915-63.709m382.684-246.221c4.87 5.998 4.39 85.843 3.23 97.499-1.03-.863-1.8-1.872-2.65-2.903-2.28-12.904-2.46-81.143-.58-94.596m-24.75-36.032 2.5 1.305c4.88 7.723 4.86 52.225 4.1 62.773l-3.47-1.94c-4.5-7.597-5.03-52.019-3.13-62.138M902.553 734.797c.467.592.606.643.777 1.451 1.122 5.315-13.864 59.502-16.925 65.276-1.333-1.225-1.821-1.679-2.284-3.474-2.888-11.175 11.699-52.582 18.432-63.253m50.543-382.119.495 1.622c-.979 5.321-32.205 69.577-36.339 73.545-.476-1.209-.996-2.494-1.067-3.809-.481-8.951 30.592-63.292 36.911-71.358m77.644 536.787c1.31.741 1.34.432 1.82 1.779 3.21 8.969-19.88 60.296-24.84 71.19l-1.42-.053c-2.35-7.942 20.51-62.529 24.44-72.916m347.49-138.93 1.16.937c1.23 6.849-.04 83.639-2.02 88.904-.68-.959-1.28-1.612-1.67-2.7-3.76-10.505-2.35-76.602 2.53-87.141m-133.8 216.211c4.43 36.744-1.67 74.334-5.11 110.944-.93 9.92-.34 21.91-2.95 31.36-.66 2.4-1.11 2.39-3.2 3.48l-2.02-1.4c-.92-1.99-1.16-2.84-.9-5.11.47-4.22 2.33-8.6 3.25-12.78a422 422 0 0 0 4.91-26.81c4.74-32.79 4.77-66.608 6.02-99.684m19.18-61.362c4.76 19.191 5.19 98.096 2.58 118.796l-.44 13.87c-3.21-2.86-2.6-7.4-2.87-11.42-.14-3.16.22-6.51.33-9.68.37-18.677.76-37.264.54-55.955-.22-18.526-1.15-37.097-.14-55.611m-150.97 42.355c1.03 1.048.96.637 1.09 2.131.84 9.953-14.58 80.35-19.82 87.59-.98-.9-.62-.41-1.28-1.78-3.54-7.29 16.14-77.359 20.01-87.941m-99.29-76.131c1.4 1.253 1.94 2.706 2.81 4.369.73 12.121-16.256 56.171-21.876 69.712-.668-.178-1.865-1.086-2.471-1.465-3.287-7.723 18.277-59.926 21.537-72.616m366.13-268.367 2.61 1.538c4.58 9.607 5.31 89.307 2.9 101.532-.2-.212-.43-.4-.6-.636-1.52-2.095-1.81-5.221-2.04-7.718-1.59-16.992-.98-34.53-1.47-51.606-.4-14.262-2-28.885-1.4-43.11"/><path fill="#f0e6d5" d="M1265.75 1038.05c-.68 19.86-1.18 64.03-11.12 79.84l-1.18.15c-.91-3.87 8.22-80.59 9.43-91.41.27 4.02-.34 8.56 2.87 11.42m257.74-204.191c4.53 15.635 2.63 36.563 2.63 52.889 1.69 13.18 3.3 60.044 1.05 72.244l-1.16.684c-3.58-8.111-2.39-35.453-2.65-45.714-1.13-26.844-1.82-53.281.13-80.103M938.18 598.373l2.071.669c.152.637.391 1.26.457 1.911.549 5.481-18.13 64.086-21.849 72.377-1.479 3.297-3.296 5.62-5.866 8.137l-1.179-.544c-.67-3.375 22.905-76.52 26.366-82.55M653.651 494.701l.802.747c.829 5.712-38.992 71.877-45.541 83.322-1.33-1.445-1.416-1.771-1.88-3.588 3.616-12.871 37.408-71.512 46.619-80.481m944.369 300.828c1.81.666 2.57 1.085 3.76 2.613.96 13.999-.56 94.75-3.75 102.647l-1.07.626-1.13-.752c.85-23.744.52-47.658.86-71.427.16-10.973-.58-22.914 1.33-33.707m-598.593 55.215 1.263 1.772c2.73 18.18-15.484 58.829-23.006 76.799-.575-.545-1.053-1.539-1.478-2.218-.69-16.687 17.263-59.486 23.221-76.353m77.913 45.996c1.03 10.751-22.34 92.105-28.05 103.228-.21-.56-.48-1.1-.63-1.68-2.23-8.822 22.05-92.355 28.68-101.548m-97.083-548.498c1.332.731 2.876 1.128 3.535 2.588 4.064 9-19.881 82.714-25.792 96.444l-.608.455-1.666-.613c-.86-7.827 9.713-31.697 12.095-41.143 4.806-19.064 7.72-38.619 12.436-57.731m26.623 8.125c1.17.849 1.76 1.27 2.36 2.634 3.84 8.735-27.374 92.467-33.193 106.289-1.866-.643-1.032-.039-2.161-2.206.923-11.116 13.795-42.94 17.819-55.704 5.321-16.874 9.165-34.394 15.175-51.013m289.55 640.681c5.07 19.162 6.11 98.132-2.12 115.092l-2.16-.53c-2.77-4.7.85-17.9 1.29-23.59 1.18-15.34 1.42-30.64 1.34-46.02-.07-14.63-1.42-30.63 1.65-44.952m-261.89-468.303c.72 9.844-26.3 88.511-32.11 101.278-1.82 3.985-3.831 4.639-7.701 6.064-.647-5.47 34.541-96.825 39.811-107.342m279.03 441.687c.15.219.33.423.46.656 3.74 6.631 4.97 95.882 4.53 109.552-.24 7.65-.74 15.47-2.63 22.9-1.44.04-.55.11-2.61-.61-.65-1.82-.38-121.296.25-132.498m-260.26-76.944 1.18 1.095c1.57 7.947-20.67 79.444-26.18 88.179-.85-1.299-1.81-2.689-2.16-4.232-2.63-11.451 20.81-73.06 27.16-85.042m364.75-139.049 1.82 1.674c2.61 10.468.13 101.529-3.41 111.835-.82-.757-1.43-1.241-2.06-2.222-4.46-6.896.74-99.182 3.65-111.287m162.63 29.896c.93.642 1.75 1.554 2.57 2.327 4.03 13.276 3.28 116.81 1.24 135.855l-1.21-.391c-2.92-5.954-4.43-123.495-2.6-137.791M830.596 582.75c.122 1.331.128 2.562-.08 3.889-3.077 19.612-14.894 39.708-22.398 58.153-11.166 27.444-20.583 56.99-34.503 83.135-.963 1.809-1.823 2.64-3.459 3.796-.113-.262-.246-.515-.337-.784-.881-2.618-.106-4.834.741-7.331 5.416-15.971 13.854-31.426 20.435-46.984 13.24-31.297 25.939-62.741 39.601-93.874m267.434 328.811c1.01 2.458.76 4.455.4 7.017-2.79 19.583-16.28 82.622-23.05 98.882-.96 2.31-2.18 3.4-4.15 4.87-.15-.47-.33-.94-.46-1.42-2.73-9.73 20.95-98.305 27.26-109.349m61.84-47.38c1 .538 1.71 1.219 2.55 1.969 1.28 9.977-1.45 21.934-2.75 31.97-4.88 37.709-11.77 74.72-19.36 111.97-3.36 16.52-6.29 33.18-10.35 49.54l-.24.28-.74-.18c1.46-13.43 5.46-27.26 7.91-40.58 3.93-21.353 6.75-43.054 10.04-64.522a1612 1612 0 0 0 7.16-48.527c1.67-13.668 2.23-28.653 5.78-41.92M696.721 473.686l.593.563c.115.55.344 1.087.346 1.648.01 3.061-13.482 27.685-16.002 32.648-7.961 15.675-15.946 31.261-23.112 47.321-7.113 15.943-13.375 33.445-22.536 48.263l-1.805-2.187c.39-14.057 50.177-111.992 62.516-128.256m637.349 514.971c.77.849 1.34 1.696 1.75 2.795 5.28 14.048 8.29 90.128 2.91 101.718-1.86-.13-2.56-.3-4.21-.98-1.04-1.9-1.29-3.39-1.39-5.51-.88-18.27.47-36.91.54-55.21.05-13.39-2.51-29.84.4-42.813m234.92-119.842c-.31-11.867-2.91-97.727.4-102.534 1.75.814 1.9 1.077 2.53 2.877 2.67 7.615 1.31 111.867-.03 125.191.03.275.06.549.08.824.38 6.219-.01 37.007-3.61 41.132-3.71-8.492.16-54.832.63-67.49m-334.09 42.022c.48 28.88-4.04 58.096-6.39 86.857-2.86 35.096-4.27 70.466-7.74 105.496-.18 1.82-.41 3-1.5 4.53-1.11 1.54-3.29 1.45-5.07 1.8-3.55-7.31 2.89-37.46 4.16-46.3 4.42-30.74 7.12-61.36 9.82-92.268 1.74-19.917 2.67-40.536 6.72-60.115m-57.52-42.42c1.05 19.327-2.17 38.296-5.07 57.334-9.49 50.715-12.18 102.779-26.13 152.729-1.05-18.61 6.78-48.68 9.86-68.07 4.61-29.034 8.24-58.275 12.35-87.389 2.64-18.03 4.37-36.987 8.99-54.604m-133.9-499.646.63.92c1.12 6.353-1.85 15.725-3.24 22.016a684 684 0 0 1-17.96 66.299c-6.11 18.21-13.43 36.021-18.93 54.432-.16-.304-.33-.598-.47-.912-1.98-4.619-2.07-9.538-.98-14.368 3.34-14.787 11.16-29.15 15.83-43.683 8.98-28 15-57.065 25.12-84.704m125.97 38.535c1.83.857 2.13 1.263 3.33 2.799 1.62 9.173-.54 19.164-2.07 28.252a436.2 436.2 0 0 1-39.71 120.76l-1.42.45c-1.83-4.336 9.07-24.968 11.06-30.984 13.28-40.251 22.07-79.547 28.81-121.277m111.94 526.382c2.26 7.577.81 19.077 1.02 27.171.76 29.603 3.6 129.791-8.17 154.981-.96-.83-1.96-1.34-2.31-2.62-.86-3.07 4.8-43.08 5.32-50.53 1.5-21.84-1.58-117.102 4.14-129.002M728.734 462.614c.752.533 1.207 1.265 1.766 1.989-.771 8.309-6.109 16.29-10.042 23.481-12.139 22.195-25.435 44.001-36.695 66.641-9.015 18.126-21.73 50.636-32.566 65.754-1.413-1.126-2.116-1.963-2.972-3.554 12.197-36.198 34.612-69.612 53.413-102.581 9.667-16.952 18.013-34.483 27.096-51.73"/><path fill="url(#a)" d="M1549.27 751.478c1.09.628 2.17 1.407 2.92 2.447 6.7 9.397.29 167.534-4.09 190.88l-1.6 2.497c-1.57-4.301.75-21.463.92-26.894 1.78-56.236.62-112.647 1.85-168.93"/><path fill="#f0e6d5" d="m824.611 537.68 1.122 1.359c-.63 7.39-4.902 16.083-7.414 23.114-9.237 25.854-19.507 51.217-29.334 76.84-9.035 23.555-17.024 47.827-26.999 70.981-1.499 3.479-2.998 6.459-5.462 9.378-.795-1.279-2.009-2.904-2.277-4.411-.903-5.067 62.826-162.222 70.364-177.261m325.079-152.942c2.87 2.819 5.2 6.293 7.62 9.497-4.88 32.611-14.18 62.823-23.82 94.263-8.44 27.528-16.99 55.24-27.52 82.056-.55 1.532-.12.742-1.49 2.246 3.14-17.319 10.05-34.457 14.96-51.399 4.44-15.349 8.11-31.049 12.13-46.522 7.73-29.755 15.64-59.39 18.12-90.141m303.86 296.527 2.13 1.872c5.55 17.83 5.19 74.37 5.95 95.572 1.61 44.725 5.01 88.993 3.62 133.787-2.12-3.455-2.27-7.69-2.63-11.641-1.52-17.177-1.6-34.588-2.41-51.819a5085 5085 0 0 1-4.53-101.714c-.68-18.812-3.98-48.327-2.13-66.057M799.544 509.768l1.011 1.485c-.833 13.577-69.729 161.361-79.332 174.048-.861-1.488-1.409-2.757-2.005-4.354 8.404-21.29 19.071-42.149 28.693-62.943a2780 2780 0 0 1 51.633-108.236m-23.011-47.79c-.011.465.045.938-.034 1.397-3.631 21.138-83.535 187.237-91.661 192.19l-1.889-3.154c-.198-5.791 51.489-103.7 58.828-118.646 11.576-23.575 21.55-49.167 34.756-71.787m17.842 13.804c.056.286.153.567.168.858.31 5.819-81.817 182.171-90.65 193.388l-1.239-.294-.574.924-1.782-3.7c.29-3.487 2.023-6.669 3.504-9.795 10.006-21.127 21.459-41.667 31.728-62.7 14.415-29.527 27.812-59.561 42.608-88.9a437 437 0 0 1 16.237-29.781m277.085 68.127c6.72-22.236 10.76-44.747 15.74-67.376 4.68-21.242 10.17-42.309 14.92-63.537 2.6-11.59 4.14-24.072 7.5-35.402.64-2.166 1.04-3.135 2.54-4.856l1.14.778c1.87 15.124-17.17 86.074-21.75 105.562-5.42 23.076-9.5 46.368-16.63 69.024-5.28 14.198-10.33 28.613-16.29 42.545-1.92 4.505-4.51 10.803-9.23 12.689-.24-.509-.67-.966-.72-1.525-.17-1.725 20.29-50.831 22.78-57.902m-176.119 52.776c.116.566.338 1.473.357 2.098.392 12.94-45.19 158.113-52.439 166.494-.219-.525-.456-1.043-.658-1.575-4.897-12.897 43.687-146.935 52.74-167.017m586.939 95.826 1.57.799c10.97 16.479 7.55 164.096 7 194.924-.35 19.931 1.37 44.421-2.47 63.747-1.94-15.856-1.43-32.009-1.55-47.963l.05-94.112c-.32-39.192-4.06-78.285-4.6-117.395m-563.82-99.899c.667.593 1.249 1.618 1.772 2.35.202 7.153-2.478 14.946-4.449 21.762-8.051 27.829-18.125 55.036-25.733 83.022-4.402 16.191-5.611 32.922-10.541 49.055-3.443 11.267-7.803 27.329-14.985 36.429-.265-.466-.584-.905-.795-1.398-2.868-6.707 46.096-175.398 54.731-191.22m295.57 297.959c.24.575.53 1.131.7 1.727 1.86 6.265-.1 17.32-.45 24.065-1.72 32.463-11.94 163.397-26.01 186.337-.17-.33-.37-.64-.51-.99-3.44-8.86 5.82-51.81 7.54-63.31a2421 2421 0 0 0 11.32-88.417c1.71-15.735 2.67-45.81 7.41-59.412M810.176 515.652c.915 1.759 1.598 3.576 2.326 5.419-4.98 17.374-12.938 34.752-19.253 51.788a1721 1721 0 0 1-32.227 82.026c-6.541 15.783-12.755 32.027-20.817 47.106-1.7-.566-1.482-.95-2.306-2.452 1.639-18.561 22.879-59.355 30.357-78.437 13.201-33.687 24.938-74.244 41.92-105.45m-45.609-62.891.2 2.228c-3.987 10.248-10.336 20.206-15.543 29.929a4427 4427 0 0 0-25.432 48.517l-44.229 86.114c-2.546 4.88-6.336 15.069-9.947 18.888-.484.511-1.223.697-1.834 1.046l-1.986-3.974c2.145-24.32 80.551-155.591 98.771-182.748m366.283-78.83c1.71.416 3.08.892 4.69 1.549 2.57 10.466-4.42 33.777-6.78 44.642-4.04 18.61-7.31 37.451-11.78 55.957-8.68 35.911-21.18 72.613-37.14 105.965-.52.715-.16.421-1.19.721 1.55-9.01 6.69-18.578 9.49-27.426 6.69-21.193 12.53-42.966 17.91-64.521 6.49-25.952 11.43-52.31 16.6-78.55 2.47-12.521 3.92-26.362 8.2-38.337m269.17 245.386 2.8 1.765c10.14 18.086-4.81 194.062-7.12 223.594l-1.09.833-1.62-.627c-3.16-6.679.74-48.968 1.21-59.053 1.35-28.433 4.43-56.944 4.89-85.403.28-17.128-.01-34.291-.05-51.422-.02-9.651-.75-20.186.98-29.687m32.57 26.228c.34.304.71.578 1.03.913 14.58 15.595 9.96 208.678 9.39 242.389-1.08-.433-2.33-.653-3.04-1.636-3.8-5.243-1.9-85.613-1.91-100.161-.01-23.246.12-46.513-1.22-69.73-.98-17.025-6.54-57.767-4.25-71.775m-240.21 222.254 1.16 1.614c4.12 23.285-9.26 100.222-12.58 126.841-3.17 25.306-4.77 51.056-9.44 76.126-1.64 8.79-3.38 18.21-8.01 25.97-.68-.63-.96-1.41-1.38-2.23.2-11.93 2.44-24.31 3.99-36.17 3.66-27.97 8.36-55.79 12.09-83.751 4.26-31.989 3.61-78.726 14.17-108.4m311.19-150.484 2.69 1.788c5.07 12.794 3.65 47.843 3.91 63.397.8 47.643 1.47 94.923-.54 142.559-.79 18.507-1.24 37.324-3.77 55.686-.49.375-1.13.486-1.7.7-2.82-10.785.67-73.181.77-89.582a3756 3756 0 0 0-.39-108.91c-.38-17.571-3.21-49.709-.97-65.638M843.417 1223.57c1.37.8 2.381 1.27 3.22 2.68 2.171 3.65-8.843 16.51-11.351 19.89-31.499 42.42-47.303 104.45-59.113 155.64l-.954 1.88c-.223-.55-.558-1.06-.667-1.64-1.396-7.41 1.296-19.22 2.257-27.01 2.48-20.08 6.649-40.94 13.399-60.05 10.883-30.8 32.71-65.79 53.209-91.39m-130.882-124.81 1.095 1.31c.465 7.11-25.413 45.97-29.84 56.4-14.304 33.68-24.162 69-33.083 104.44-3.461 13.75-7.53 27.95-9.289 42.04-1.238-1.27-1.171-2.69-1.123-4.41a345.3 345.3 0 0 1 44.706-162.02c7.669-13.43 16.137-27.15 27.534-37.76M581.109 962.792c1.126 1.033 2.835 2.331 3.626 3.617 2.744 4.461-8.513 15.839-11.26 20.149-30.124 47.262-47.328 120.262-57.543 175.262l-.492 1.51c-.261-.61-.625-1.19-.782-1.84-1.911-7.83 1.282-27.31 2.364-35.98 7.364-59.04 26.035-115.93 64.087-162.718m676.841 264.738c.73.43 1.66.63 2.19 1.29 2.25 2.81 3.61 26.7 5.14 32.53-18.65 7.7-36.87 17.49-54.96 26.49-8.53 4.24-18.45 11.12-27.76 12.99-1.66-2.09-1.74-3.56-1.73-6.16.04-7.15 1.72-22.02 7.51-26.56 1.9-1.48 2.86-1.36 4.99-.95 1.49 4.1.46 9.76.21 14.09.12 1.58.6 2.57 1.21 4.02l1.68.62c8.27-5.77 4.06-20.36 11.17-26.25l.97.5c1.59 6.69 1.43 13.89 1.68 20.76 4.01-7.24 5.91-19.95 10.15-25.58 1.25.59 2.41 7.14 3.55 9.03l2.7-1.25-1.03 1.03c2.81-3.35 5.04-6.65 5.74-11.06.1-.67.18-1.34.28-2.01a234 234 0 0 0 5.05 9.46l1.53-.02c5.91-5.37 4.49-12.51 5.55-19.85l1.04-.38c1.88 4.56 1.68 9.21 1.81 14.08 3.51-8.9 6.38-18.62 11.33-26.82m-799.597-388c1.607.443 2.916 1.236 4.382 2.015.365.713 1.03 1.34 1.095 2.138.197 2.43-8.199 13.185-9.794 15.57-38.855 58.107-55.978 129.294-66.613 197.497-.791 2.07-.126 1.56-1.274 2.17-1.484-9.9.391-21.95.912-32.02 3.683-71.192 30.557-129.901 71.292-187.37m699.117 595.35c4.23.03 11.75 4.98 16.38 6.37a3839 3839 0 0 1-143.37 68.47l-12.52 7.47c1.03-5.79 2.42-11.52 3.71-17.26 10.67-6.14 22.47-10.93 33.49-16.55 33.51-17.11 67.43-34.34 102.31-48.5m31.02 11.25c4.68.26 11.1.63 15.38 2.62 1.87.87 1.3.3 1.97 2.09-4.1 3.82-19.24 9.64-25.15 12.51a4023 4023 0 0 1-151.1 69.75c-4.62 2.14-9.95 5.55-15.11 3.9-.74-1.78-.96-1.26-.24-2.8 1.96-4.18 6.09-7.27 9.97-9.56 5.41-3.21 11.52-5.28 17.2-7.96 8.36-3.95 16.58-8.26 24.83-12.42 25.55-12.91 51.28-25.15 77.15-37.4 14.9-7.05 29.76-14.71 45.1-20.73m54.42 35.88c2.67 2.59 3.95 6.77 5.4 10.15-14.8 7.72-30.39 14.36-45.48 21.52a8322 8322 0 0 1-105.27 49.37c-28.7 13.29-57.75 26.32-85.71 41.07l-2.34.94-1.19-.63c-.29-2.06-.72-4.29.07-6.29.7-1.78 2.09-3.12 3.65-4.14 22.32-14.74 55.54-28.27 80.27-40.4a7916 7916 0 0 1 82.62-40.03c22.51-10.87 44.84-22.06 67.98-31.56M388.419 518.585c32.588 33.226 66.464 64.888 99.922 97.197l134.572 130.175c18.861 18.044 38.762 34.954 57.924 52.67 9.001 8.321 19.351 17.017 26.735 26.77-.276 3.032-1.782 4.295-3.582 6.7-78.962-71.931-154.546-146.831-230.452-221.911a2883 2883 0 0 0-55.994-54.116c-11.199-10.64-23.202-20.928-33.459-32.457.645-2.441 2.474-3.394 4.334-5.028M1594.4 1122.93l.78.16-.06.87c-11.03 7.44-23.35 13.26-34.92 19.85-45.36 25.8-92.08 49.06-138.4 73.08a10068 10068 0 0 1-260.48 129.84c-18.48 9.08-36.29 19.49-54.59 28.93-16.76 8.65-34.11 16.35-51.21 24.31l-1.31-.57c-.07-3.35 1.86-6.94 3.12-10.03 34.55-18.61 71.34-33.59 107.1-49.71 29.96-13.51 59.46-28.45 88.89-43.12 114.14-56.87 226.16-118.29 341.08-173.61"/><path fill="#f0e6d5" d="M969.448 1515.74c1.296 11.52-3.61 45.05-4.77 58.95-3.076 36.87-8.134 147.6 16.9 175.6 6.061 6.79 13.998 8.61 22.752 6.96 18.99-3.55 38.01-17.23 55.23-25.72 20.23-9.98 199.03-99.95 201.52-99.75 1.2 2.9.76 5.69.55 8.74-19.88 9-38.92 19.78-58.53 29.34-32.58 15.87-65.61 30.94-97.8 47.6-31.07 16.09-62.18 35.7-95.56 46.67-6.28 2.07-13.271 3.07-19.743 1.28-8.113-2.25-13.629-8.6-17.554-15.73-25.344-46.08-17.435-184.44-2.995-233.94m896.782-233.16c1.63.4 2.08.72 3.37 1.71.4 1.58.59 2.65.07 4.27-1.28 3.96-4.7 7.55-8.08 9.83-15.05 10.16-34.03 17.22-50.43 25.4l-104.82 52.82-193.95 98.95-65.14 34.39c-12.5 6.62-25.01 13.93-37.99 19.5-1.17-1.21-2.26-2.71-2.72-4.37-.64-2.29.32-3.46 1.95-4.91 7.89-7.05 38.12-20.29 49.61-26.12l278.46-140.88 76.94-38.22c13.54-6.57 28.21-12.38 41.09-20.09 5.11-3.06 8.16-7.58 11.64-12.28M837.011 955.573c5.844 1.613 11.209 7.509 15.729 11.504 27.138 23.983 52.986 49.243 79.735 73.623l164.485 149.91 45.91 42.77c8.29 7.63 20.16 15.82 26.51 25.1 1.59 2.33 1.43 2.66.94 5.3-1.75-.13-3.23-.25-4.78-1.22-11.12-6.98-31.62-27.22-43.13-36.89a4976 4976 0 0 1-187.108-168.24c-18.47-17.45-35.858-36.02-54.216-53.58-12.815-12.263-27.423-24.077-39.153-37.302-3.152-3.554-5.152-6.114-4.922-10.975m525.719-241.76c4.58.602 13.63 3.589 16.64 7.336-5.6 7.797-258.82 139.498-293.57 158.314-2.06.878-3.29 1.042-5.52.942-4.39-1.869-7.01-5.697-10.03-9.243 8.17-5.711 18.12-9.85 27.05-14.31a1151 1151 0 0 0 40.87-21.086c74.84-40.478 151.57-78.173 224.56-121.953m-42.24-26.916c5.06 1.201 10.24 5.943 14.41 8.981l-305.7 161.666c-2.65.831-4.39 1.202-7.22 1.077-3.43-1.595-5.13-5.253-7.06-8.353 10.87-7.511 23.35-13.202 35.01-19.404l64.11-34.141 126.21-66.73c26.8-14.282 53.25-29.154 80.24-43.096"/><path fill="#f0e6d5" d="M1220.24 1456.33c6.83 5.3 12.53 10.75 17.82 17.61-72.53 34.38-146.15 66.18-217.75 102.57l-11.57 5.98c.35-7.84 1.66-15.76 2.62-23.56 19.54-10.82 40.27-19.79 60.35-29.62 30.08-14.72 59.9-29.89 90.12-44.36 19.52-9.35 39.49-18.11 58.41-28.62m2.68-923.117c3.27 3.506 5.81 9.081 8.32 13.267-50.56 24.979-99.78 52.453-149.31 79.375l-91.523 48.584c-26.116 13.857-51.907 29.398-78.725 41.778-.241-.019-.493.014-.725-.057-2.453-.761-4.186-3.34-5.314-5.55-1.173-2.3-.691-3.908-.04-6.25 10.083-9.523 55.47-30.53 70.349-38.193l79.508-41.842c56.17-29.654 111.3-61.401 167.46-91.112m24.22 38.622c4.26.368 11.12 5.618 14.95 7.923-13 7.642-26.84 14.209-40.12 21.39l-91.63 49.675c-66.08 35.897-131.824 73.131-198.965 106.987-1.833.925-2.723 1.2-4.779 1.034-3.763-1.823-5.688-5.241-8.057-8.551 12.763-8.902 27.022-15.959 40.714-23.317l60.647-32.545c75.68-40.897 152.08-80.739 227.24-122.596m72.59 66.033c4.43.771 11.31 3.062 14.3 6.458-2.67 4.291-9.77 7.426-14.18 9.842-27.23 14.899-55.44 28.206-83.04 42.428a9531 9531 0 0 0-172.9 92.075c-25.02 13.638-50.62 26.403-75.184 40.842-2.345 2.411-2.977 3.473-6.387 3.779-1.707-.819-2.864-1.036-3.97-2.665-1.58-2.328-1.928-4.692-1.032-7.393.654-1.97 1.772-3.565 3.447-4.763 9.038-6.464 20.036-11.448 29.846-16.762l56.81-30.75c44.77-24.148 89.5-48.56 134.68-71.915 39.18-20.26 79.17-39.548 117.61-61.176m-18.8-41.92c3.89 1.626 9.05 4.052 10.8 8.103-1.27 2.455-3.05 3.19-5.39 4.521-21.72 12.368-44.41 23.421-66.45 35.257L1045.3 747.628c-34.58 18.637-69.514 36.579-102.795 57.491-2.051 1.075-1.835 1.279-4.316 1.006-3.355-3.631-4.45-9.338-5.944-13.979 15.687-8.742 32.096-16.196 47.905-24.733a17187 17187 0 0 1 153.67-83.185L1237 629.749c21.26-11.279 42.19-23.466 63.93-33.801m-2.71 773.712c12.11.86 28.07 12.88 37.32 20.16 61.07 48.07 43 128.74 51.6 196.19 9.44 74.04 42.76 115.67 99.9 160.04-20.37.36-41.87-3.32-61.81-7.43-8.24-1.7-18.31-5.09-26.64-5.25-2.97-.06-5.27 2.82-7.25 4.76-27.06-23.3-45.6-61.29-53.62-95.56 12.83 30.17 25.53 53.67 51.8 74.16 5.75 4.04 11.48 8.13 17.64 11.52 2.84 1.56 6.01 3.51 9.31 2.54l.39-1.64c-33.86-28.93-57.07-70.4-62.28-114.88 5.97 18.57 11.32 38.37 20.91 55.46 14.65 26.1 43 51.46 72.13 59.61-53.63-41.86-78.21-98.99-79.76-166.4-.55-24.28 2.35-48.43-1.08-72.58-1.38-9.73 1.08-19.21-.22-28.8-4.04-29.76-24.87-55.09-49.16-71.35-7.39-4.94-16.25-8.32-23.16-13.78.41-2.89 2.23-4.48 3.98-6.77M236.449 615.504c11.217 4.796 21.873 20.329 29.719 29.589a861 861 0 0 0-7.574 11.636c-12.507 19.598-24.601 40.108-33.969 61.407-9.244 21.013-15.478 42.6-20.989 64.834-17.118 69.072-17.995 135.953-2.694 205.506.75 2.343 1.272 3.778 1.144 6.3-.481-.387-1.017-.713-1.442-1.161-2.796-2.946-4.971-9.27-6.713-13.028-14.854-32.044-20.868-66.327-22.951-101.38-4.658-78.391 13.04-151.444 44.731-222.848 5.81-13.091 11.191-30.123 20.738-40.855M976.014 1354.5c7.418 3.97 14.86 13.18 21.021 19.1-5.622 15.2-14.421 29.22-20.858 44.13-35.474 82.15-46.583 170.05-41.993 258.91.981 19 .802 41.74 8.034 59.47.139.34.286.68.429 1.02l-.729.76-2.622-2.14c-17.825-18.72-26.601-29.07-31.574-55.28-6.771-35.71-6.16-74.01-2.756-110.09 7.284-77.21 27.058-151.07 71.048-215.88m274.406 149.37.98.28c5.69 5.52 8.94 49.33 9.76 60.32-27.61 16.12-57.95 28.46-86.61 42.67-52.63 26.09-104.7 53.26-158.6 76.73l-3.38-15.77c26.04-11.5 51.21-25.24 76.43-38.43l99.16-51.65c12.97-6.74 40.36-16.9 49.6-26.19l-.28-.96c-12.71.63-124.13 56.31-145.44 66.16-26.99 11.38-53.1 26.71-80.95 35.72l-1.38-.73-.59-2.16c1.7-4.25 4.57-6.4 8.36-8.84 14.58-9.34 32.24-16.18 47.92-23.73 40.55-19.54 81.97-37.7 121.78-58.7-13.79 2.87-26.52 9.33-39.39 14.86a2361 2361 0 0 0-48.76 21.31c-29.97 13.43-60.21 26.07-89.87 40.18-.66-5.57-.67-11.26-.88-16.87 21.85-7.99 43.06-19.39 64.09-29.36l118.53-57.03c19.77-9.44 39.31-19.33 59.52-27.81"/><path fill="#f0e6d5" d="M1282.2 1409.5c16.95 11.9 33.24 29.76 45.07 46.58 3.37 4.8 10.07 20.67 13.02 22.62 2.1-2.54 1.53-7.99 1.22-11.11-2.93-29.58-28.18-56.47-50.7-73.53-5.42-4.1-13.02-3.73-18.47-7.66 1.34-1.83 1.8-2.02 4.12-2.24 7.88-.74 42.85 26.45 49.83 33.66 15.43 15.92 34.76 48.03 34.63 70.69-.07 11.69-5.55 23.4-7.55 34.87-3.64 20.88-4.38 42.54-4.99 63.7-2.28-15.71-3.3-31.22-3.4-47.09-.07-9.54 2.83-42.38 1.28-47.68l-1.57-.96c-2.6 3.74-3.54 9.48-4.73 13.89-7.64 28.37-8.28 50.79-10.98 79.32-2-14.01-2.71-28.23-3.27-42.36-.52-12.97.34-26.6-3.65-39.05-.17-.53-.33-1.05-.49-1.58l-.3-.94c-4.58 13.33-5.98 28.94-7.73 42.92-7.11 56.72-9.05 119.31 16.54 171.93 9.83 20.21 25.24 43.18 45.1 54.71-16.99-32.58-37.34-62.06-45.93-98.33 14.27 27.97 24.08 55.36 56.77 65.99 1.73.57 3.51 1 5.29 1.39-10.68 29.43-12.56 47.5-11.34 78.78a203.58 203.58 0 0 1-88.15-130.62 451 451 0 0 1-8.5-73.94c-1.92-67 7.85-138.01-56.35-180.04-9.11-5.96-19.02-11.01-29.94-12.39 4.56-2.8 9.06-5.67 13.88-8.03a143.32 143.32 0 0 1 79.81 73.26l5.7 12.59c3.17-21.5-7.13-40.78-19.62-57.68-8.07-10.91-17.66-19.54-28.32-27.86-3.89-3.05-10.42-6.3-13.27-10.19 6.04 1.28 11.4 5.16 16.53 8.46 19.54 12.6 32.15 26.95 44.84 46.43 6.96 10.69 12.13 21.82 17.28 33.46l1.64.05c3.27-4.78 2.31-11.59 1.34-16.98-4.39-24.5-20.57-46.25-38.56-62.66z"/><path fill="#442b19" d="m1301.98 1515.24 2 .77c4.91 4.99 2.6 30.18 2.4 37.13-1.31 43.79-5.66 89 6.15 131.72 8.31 30.05 21.26 54.87 39.02 80.36 2.95 4.22 10.45 13.02 10.6 18.08l-1.67-.54c-15.14-11.58-26.05-26.73-36.05-42.77-33.61-53.88-32.1-114.4-27.45-175.23 1.23-16.13 1.32-33.82 5-49.52"/><path fill="#f0e6d5" d="M1292.26 839.373c28.69.599 54.97 8.227 80.18 21.792 37.55 20.193 71.09 53.665 83.24 95.511 3.63 12.507 8.61 39.666 1.6 51.354-1.92 3.21-4.12 3.64-7.5 4.4-28.2-2.62-53.97-11.47-79.2-23.966-39.14-19.393-69.9-52.597-83.71-94.51-3.73-11.337-11.41-39.535-4.59-50.071 2.42-3.735 5.95-3.878 9.98-4.51"/><path fill="#442b19" d="M1291.72 851.873c.78-.049 1.57-.105 2.36-.118 37.69-.599 81.65 22.323 108.13 48.052 25.94 25.201 43.03 59.326 43.4 95.768-30.07-.709-71.08-19.062-94.75-37.304-28.95-22.314-44.77-50.545-53.97-85.257-1.85-6.983-4.26-13.964-5.17-21.141"/><path fill="#f0e6d5" d="M1318.16 871.444c15.53 6.583 32.14 11.349 43.98 23.957l-1.32.955-4.96-3.973c.34 2.355 1.5 4.28 2.58 6.361l-1.48.291c-3.37-5.623-9.56-13.713-16.34-14.948-1.64-.299-1.23-.078-2.78 1.049.35 1.712.73 3.356 1.16 5.048 1.2 4.731-.57 11.738-1.33 16.571-9.06-9.252-14.5-23.562-19.51-35.311"/><path fill="#f0e6d5" d="m1356.96 899.035 1.48-.291c-1.08-2.081-2.24-4.006-2.58-6.361l4.96 3.973 1.32-.955c11.83 9.531 22.07 18.879 31.86 30.596l-1.21 1.185c-1.9-2.481-2.39-3.484-5.34-4.708-2.59.383-4.03.653-5.74 2.81-3.36 4.225-3.83 9.521-3.31 14.659l-3.19 1.168c-12.73-7.792-24.45-12.001-32.1-26.096 3.16.064 6.51.224 9.62-.445 1.87-.403 4.11-1.568 5.04-3.284 2.14-3.943.36-8.28-.81-12.251"/><path fill="#f0e6d5" d="M1378.4 939.943c-.52-5.138-.05-10.434 3.31-14.659 1.71-2.157 3.15-2.427 5.74-2.81 2.95 1.224 3.44 2.227 5.34 4.708l1.21-1.185c10.61 13.433 18.67 26.988 25.06 42.883-12.13-3.272-23.02-7.193-34.2-12.947-5.85-4.324-7.19-8.288-9.65-14.822z"/><path fill="#442b19" d="M1378.4 939.943c-.52-5.138-.05-10.434 3.31-14.659 1.71-2.157 3.15-2.427 5.74-2.81 2.95 1.224 3.44 2.227 5.34 4.708 2.84 4.956 8.24 12.927 6.99 18.854-.53 2.542-1.95 4.048-4.21 5.2-1.69.869-4.56.874-6.44.88-5.54-3.301-7.9-6.376-10.73-12.173"/><path fill="#f0e6d5" d="M840.508 424.299c4.932-.407 9.814-.058 14.733.384 42.953 3.863 83.935 22.818 111.571 56.416 21.721 26.407 37.998 65.912 33.09 100.682-.356 2.527-.969 3.748-3.148 5.184-5.45 3.592-14.51 1.829-20.57.75-32.521-7.174-65.029-16.037-92.955-34.843-31.058-20.915-60.149-49.732-67.225-88.005-1.817-9.831-2.352-22.805 3.884-31.152 5.209-6.971 12.569-8.368 20.62-9.416"/><path fill="#442b19" d="M839.822 436.276a73 73 0 0 1 5.191-.03c38.591.971 78.727 18.001 105.343 46.109 24.345 25.708 39.375 60.356 38.575 95.78-3.802-.187-7.675-1.052-11.431-1.67-21.02-4.586-42.65-12.448-62.216-21.373-34.708-15.832-69.075-43.77-82.646-80.455-3.282-8.874-7.371-21.781-2.912-30.729 2.21-4.433 5.58-6.129 10.096-7.632"/><path fill="#f0e6d5" d="M845.142 469.635c11.801 7.58 26.734 23.367 33.576 35.676-11.856-4.732-27.402-24.592-33.576-35.676m82.494 62.613a84 84 0 0 0 3.722-1.936c5.6 13.285 28.508 17.813 40.081 25.811-10.563-2.535-34.243-6.799-40.274-16.69-1.381-2.265-2.478-4.753-3.529-7.185"/><path fill="#f0e6d5" d="M853.643 451.283c11.197 2.531 21.581 7.916 32.557 11.311a183 183 0 0 0 2.869 8.007c3.69 9.385 10.647 19.262 20.261 23.132 3.839 1.545 8.625 2.662 12.541.927 3.656-5.194-.111-9.55-.956-15.127 2.388.26 3.837.964 5.297 3.008 8.827 12.351 7.834 33.803 5.146 47.771a84 84 0 0 1-3.722 1.936c-3.354-7.092-5.542-9.982-12.409-13.792-.874 7.112-1.315 14.801-3.47 21.639-.386 1.226-.06.737-1.373 1.42-7.001-6.837-1.178-26.62-6.156-36.245-10.139-19.607-34.357-38.769-50.585-53.987m935.987 647.697c1.29.26.65-.05 1.75 1.18-.43 7.45-.78 14.96-3.43 22.03-1.64 4.36-4.5 5.72-8.38 7.78-42.42 22.52-86.23 42.31-129.55 62.99-37.53 17.92-74.76 36.64-112.04 55.08l-130.81 66.12c-30.02 15.42-59.51 31.08-90.15 45.3-7.9-4.04-15.76-7.82-24-11.13-28.86 18.31-68.52 34.3-99.83 49.77-11.97 5.92-21.77 15.69-33.69 21.76-40.27 20.5-81.76 38.92-122.68 58.11l-11.06 5.23c1.02-6.86 2.26-13.59 3.73-20.37 18.63-8.49 36.72-18.04 55.1-27.05l90.22-44.01 156.84-75.77zM807.131 784.415c6.109.177 11.96.603 17.774 2.714 7.205 2.616 13.402 6.929 19.116 11.948 16.162 14.197 29.541 32.093 45.079 47.1 8.928 8.622 47.838 37.999 50.485 46.151 1.155 3.555-.467 7.409-2.001 10.53-4.473 2.828-16.067-9.625-20.466-12.439a39.9 39.9 0 0 0-14.903-5.602c-19.059-3.012-43.068 7.338-58.207 18.339-14.061 10.219-28.904 27.583-31.172 45.432-1.52 11.967 4.717 21.401 11.906 30.205 11.051 9.451 21.608 19.985 31.714 30.447-14.681-3.15-30.923-7.83-43.043-17.071-11.686-8.913-10.45-25.513-20.04-36.449-16.26-18.539-75.203-60.333-77.536-81.51-1.994-18.104 9.29-39.322 20.458-52.862 18.331-22.225 42.204-34.316 70.836-36.933"/><path fill="#442b19" d="M786.136 801.345c8.569-.446 17.496-1.335 26.047-.764 5.644.377 10.276 1.419 14.995 4.638 14.579 9.946 28.213 26.741 41.514 38.935 10.121 9.279 22.26 17.083 31.197 27.47-5.317 1.068-10.724 1.794-16.064 2.761-47.404 8.585-57.3 29.009-83.128 66.137-10.969-7.972-20.709-18.706-30.7-27.931-14.553-13.436-33.638-26.4-44.306-43.213.613-3.142 1.329-6.345 2.308-9.396 5.611-17.504 19.653-28.428 35.396-36.225-5.675 13.554-18.491 22.638-18.949 38.546-.078 2.698.165 3.881 1.934 5.883 6.097.026 16.224-13.811 21.264-17.964 3.071-2.531 6.596-4.426 10.093-6.291a1030 1030 0 0 0-7.298 13.884c-4.151 8.11-8.234 16.437-5.26 25.575 3.879.499 4.855-3.393 6.999-6.43 6.72-9.521 14.296-15.363 25.324-19.212-8.865 13.679-17.388 26.589-21.601 42.532 14.438-12.011 20.884-26.53 38.737-35.852-5.613 12.573-14.334 23.378-20.393 35.689-1.427 2.899-3.204 6.31-2.112 9.458 5.703-3.126 11.149-11.291 15.557-16.304 18.835-21.419 42.823-30.075 70.493-33.268-10.744-7.221-20.759-14.902-30.634-23.253-7.51-6.351-15.458-14.825-23.887-19.616-4.677-2.659-9.83-4.507-15.241-4.38l.119.964c17.029 10.218 23.003 25.636 36.855 36.631 1.574 1.25 3.303 1.543 5.217 1.86.744.124 2.082.297 2.815.488 2.197.572 4.063 1.171 5.308 3.111-3.041 2.279-7.662 2.835-11.317 3.716-13.16-9.087-27.316-24.684-40.284-35.311-7.528-6.169-20.322-12.643-25.695-20.385l.453-1.266z"/><path fill="#f0e6d5" d="M975.244 308.74c5.201-.9 29.176 13.865 35.636 16.656 38.88 16.797 80.17 17.753 119.28 2.118 10.95 7.478 20.78 17.326 30.6 26.218a5220 5220 0 0 0 44.98 40.453 24151 24151 0 0 1 404.06 367.121c13.37 12.437 73.8 65.528 79.04 75.885.95 1.887.48 4.424-.89 5.988-2.65 3.039-8.14 5.453-11.52 7.907-14.04 10.188-24.82 24.074-29.79 40.819-8 26.965-.56 46.848 12.1 70.612-25.55 15.444-55.55 27.572-82.58 40.673l-140.78 69.77-116.61 59.21c-13.95 7.02-28.52 16.76-43.16 21.78-26.01-3.93-52.18-12.74-79.11-17.13-5.71-5.49-12.43-10.22-18.54-15.3 31.4-.68 63.69 6.71 92.9 17.77 29.37-13.02 57.98-28.11 86.74-42.43 78.95-39.31 156.73-81.09 236.39-118.99 13.26-6.239 27-12.196 39.55-19.782-1.98-17.117-7.49-31.515-5.69-49.287 3.06-30.244 18.65-52.842 41.89-71.637a17154 17154 0 0 0-375.69-346.075c-40.12-36.213-79.35-73.439-119.91-109.208-14.77-13.03-29.37-28.262-45.74-39.245a76.5 76.5 0 0 1-12.14 4.674c-46.31 13.258-97.88-2.469-138.558-24.956-53.353 23.246-105.533 48.859-157.854 74.302L696.91 455.827l-95.531 46.711c-16.597 8.29-33.862 16.037-49.507 26.039-4.091-3.026-7.65-6.197-11.269-9.753 28.94-15.229 59.089-28.098 88.423-42.524zm839.916 708.34.92 1.37c-2.06 7.62-6.3 17.06-12.6 22.09-6.2 4.95-39.65 19.39-49.28 24.25a3416 3416 0 0 0-99.13 52.45c-22.62 12.22-46.48 23.58-67.18 38.96 25.19-8.82 49.66-21.35 73.47-33.37l91.03-45.68c16.41-8.06 32.8-16.56 49.74-23.47a715 715 0 0 0-5.61 21.98c-49.43 25.05-99.09 49.54-148.05 75.53-36.75 19.52-72.44 40.58-109.69 59.29-37.15 18.66-75.18 35.1-112.8 52.74a11474 11474 0 0 1-178.73 83.3l-165.69 77.63c-15.28 7.17-30.11 15.3-45.5 22.21 1.82-9.26 4.56-18.42 7.63-27.33 55.13-25.67 107.58-56.99 161.87-84.33a13081 13081 0 0 0 260.26-133.01c66.15-35.23 131.08-72.72 197.39-107.6 50.24-26.42 101.73-50.61 151.95-77.01M461.313 484.811c2.178-.101 3.896.668 5.696 1.822 16.955 10.874 32.941 27.884 47.62 41.639l70.263 65.854 120.124 110.786c15.709 14.221 32.193 27.513 47.483 42.209 6.302 6.057 21.223 18.032 22.926 26.15-4.631 1.783-15.053-4.617-19.913-6.726-4.279 1.076-8.753 1.878-12.351 4.538l-.188 1.57c3.466 3.519 8.857 3.926 12.848 7.116l-.114 1.307c-7.648 2.888-14.552-4.878-22.27-4.606-3.404.119-7.372 2.408-9.554 4.901l.342 1.736c3.437 2.251 7.703 4.908 10.175 8.214 1.265 1.692 1.537 1.911 1.232 4.05l-2.329.683c-4.142-.749-7.164-3.802-10.378-6.358l-4.05-2.356c-2.621.05-3.259.111-5.475 1.705-2.515 1.811-3.694 3.698-4.262 6.692 1.788 4.808 6.71 5.866 9.506 9.723 1.266 1.747.958 2.515.73 4.523-1.588 2.034-1.635 2.897-4.214 3.571-21.366-14.903-51.253-46.755-71.487-65.738L502.815 615.778c-26.201-24.833-52.741-49.21-78.775-74.248-9.19-8.838-20.135-17.094-28.006-27.107 21.053-10.862 43.704-19.703 65.279-29.612"/><path fill="#442b19" d="M476.186 552.511c6.116 1.732 11.045 4.577 16.226 8.184 5.703 3.97 14.729 10.845 15.344 18.275.239 2.893-2.293 5.269-4.027 7.319-8.822-2.672-12.717-7.79-18-14.867-3.187-.568-6.587-.986-9.264-2.955-2.038-1.498-3.577-3.592-3.887-6.128-.445-3.646 1.631-6.981 3.608-9.828m20.101-12.392c4.985.016 10.879-.034 15.744 1.222 1.504.388 1.847.552 2.929 1.591 2.572 2.471 4.094 6.454 6.571 9.191 2.566 2.835 5.852 4.474 7.855 7.878-.769 3.302-2.003 4.151-4.289 6.585-4.2-.13-10.915-.035-14.547-2.251-4.515-2.755-5.419-6.234-7.073-11.005-3.263-1.316-7.477-2.565-10.305-4.652-1.742-1.286-1.811-1.822-2.144-3.806 1.29-2.504 2.94-3.367 5.259-4.753m175.24 171.972c2.471-.121 5.035-.224 7.491.127 8.041 1.146 19.882 10.367 24.136 16.936 1.593 2.459 2.548 5.424 1.455 8.305-.968 2.553-3.45 5.067-5.866 6.259-1.556.767-1.818.308-3.333-.171-3.531-4.149-3.985-10.222-6.303-15.115-1.63-3.44-4.17-7.095-8.066-8.139-4.848-1.298-10.26-.246-14.462 2.371-.265.165-.523.342-.784.513-.763 2.408-1.602 4.446-1.005 7.002 1.155 4.946 12.809 7.978 16.905 10.581 2.4 1.526 2.858 2.823 3.569 5.46-.582 2.473-1.001 3.769-2.701 5.679-2.727.728-4.694.528-7.29-.505-7.777-3.096-15.977-9.543-19.312-17.404-1.499-3.533-1.886-7.607-.157-11.138 2.916-5.956 9.778-8.899 15.723-10.761m-84.998-84.819c4.111-.286 7.994.367 11.767 2.035 6.217 2.748 12.409 7.598 14.638 14.267 1.199 3.585.899 7.271-1.088 10.524-3.167 5.187-9.342 6.721-14.818 8.125-5.842-.253-11.542-.673-16.934-3.196-5.895-2.758-11.36-7.488-13.223-13.924-1.016-3.511-.591-6.766 1.343-9.907 3.707-6.02 11.998-6.969 18.315-7.924"/><path fill="#f0e6d5" d="M579.574 634.74c6.632 1.291 11.82 3.372 17.323 7.366 2.838 2.06 4.822 3.955 5.388 7.528-1.341 2.839-1.779 2.82-4.601 4.312-6.591-.525-15.315-1.525-20.332-6.254-1.733-1.632-2.752-3.736-2.489-6.168.318-2.958 2.649-4.942 4.711-6.784m317.925 277.618c7.657-.483 14.188 1.838 20.498 6.063 25.856 17.309 48.485 42.493 71.843 63.133 65.08 57.516 127.78 117.666 192.11 175.996 21.76 19.72 42.66 40.45 65.11 59.4-3.84 1.68-7.45 3.61-11.11 5.64-9.86-8.93-21.26-19.32-32.55-26.26-2.02-1.24-3.85-2.74-6.21-2.21 1.32 8.8 22.59 26.23 29.41 33.29l-8.74 5.66c-9.88-8.87-26.37-21-38.27-26.72.73 1.23 1.48 2.43 2.21 3.65 6.36 10.54 18.02 19.05 27.19 27.17l-10.02 6.47c-5.69-5.71-11.47-11.11-17.64-16.3-3.33-2.86-9.86-9.3-14.12-9.67l-.76 1.18c2.53 8.83 18.72 22.38 25.47 29.27-2.32 2.01-4.58 4.1-6.87 6.15-11.18-10.66-24.07-19.78-35.51-30.32a17268 17268 0 0 0-151.477-138.84l-96.678-88.094c-16.206-14.767-31.885-29.969-48.741-44.021 10.465-7.764 21.398-15.373 32.779-21.733 7.324-4.093 15.268-7.283 22.2-12.012l-.143-.903c-16.9-1.273-35.156 9.322-49.763 16.747-3.891 1.978-8.521 5.124-12.895 5.593.094-2.161 1.011-2.987 2.367-4.661 11.444-14.129 32.686-21.855 50.31-23.668"/><path fill="#442b19" d="M1132.59 1154.29c4.91-.64 10.79-1.32 15.6 0 5.45 1.49 10.51 5 13.35 9.92 2.01 3.47 2.53 7.13 1.45 11-1.43 5.13-3.28 7.12-7.87 9.6-3.02.19-6.2.48-9.22.17-6.87-.73-14.47-5.21-18.43-10.86-2.06-2.94-2.95-6.45-2.05-9.99 1.13-4.41 3.43-7.39 7.17-9.84"/><path fill="#f0e6d5" d="M1134.17 1160.78c4.01.15 7.84.54 11.68 1.77 2.91.94 5.4 2.53 6.6 5.51 1.11 2.75 0 5.63-.83 8.28-1.69-.01-3.44-.02-5.11-.32-4.37-.8-10.3-3.45-12.41-7.63-1.5-2.95-.66-4.68.07-7.61"/><path fill="#442b19" d="M1040.86 1067.1a37 37 0 0 1 10.16 1.14c6.92 1.76 13.93 7.24 17.28 13.54 1.83 3.44 2.38 7.16 1.04 10.89-1.65 4.62-4.83 6.63-9.08 8.65-2.86.04-5.96.03-8.77-.54-7.12-1.46-14.6-7.49-18.26-13.66-1.94-3.28-3.01-7.01-1.83-10.76 1.56-4.96 4.99-7.12 9.46-9.26"/><path fill="#f0e6d5" d="M1041.48 1074.76c3.53-.09 6.94.22 10.18 1.7 3.45 1.56 6.91 3.99 7.85 7.9.77 3.18-.28 4.64-1.57 7.33-3.66-.15-7.35-.58-10.71-2.12-3.39-1.56-6.36-3.73-7.34-7.56-.75-2.95.29-4.75 1.59-7.25"/><path fill="#442b19" d="M942.853 984.176c5.854-.22 11.449.458 16.848 2.842 7.541 3.329 15.936 9.639 18.798 17.702 1 2.82.851 6-.725 8.59-2.288 3.76-6.12 5.26-10.071 6.63-5.047 1.07-9.729 1.36-14.646-.51-8.218-3.11-16.541-9.91-19.759-18.28-1.219-3.17-1.379-6.672.174-9.759 2.016-4.005 5.358-5.712 9.381-7.215"/><path fill="#f0e6d5" d="M940.606 991.733c8.141-.526 18.156 1.323 24.335 7.052 3.458 3.205 4.32 6.545 4.513 11.105-2.138.75-4.329 1.36-6.579 1.65-5.258.67-11.21-.45-15.359-3.89-5.167-4.29-6.363-9.509-6.91-15.917M481.57 861.581c15.721 11.627 29.084 27.323 42.841 41.191 14.124 14.237 28.749 27.989 42.926 42.186-10.76 14.725-21.551 29.585-29.887 45.859-35.927 70.143-49.727 171.883-45.386 249.853 1.095 19.66 4.114 35.66 6.858 54.83l-1.575.48c-16.366-14.44-31.349-31.27-46.606-46.89-12.636-12.93-27.314-25.99-38.222-40.37-2.908-24.88-9.257-48.58-10.265-73.83-3.185-79.77 24.483-213.525 79.316-273.309"/><path fill="#442b19" d="M429.856 1082.53c1.459 1.83 1.504 2.49 1.544 4.92.167 10.22-1.702 20.91-2.171 31.18a788 788 0 0 0-.227 59.71c3.614 3.92 7.63 7.54 11.458 11.25-.541-6.1-.544-12.27-.54-18.4.009-11.93 3.734-66.36 11.776-74.38l1.561.48c3.238 5.81-.122 18.11-.829 24.47-2.379 21.38-4.717 62.29 4.012 81.52 1.942 4.28 5.823 8.38 8.766 12.05-1.161-18.36-.297-35.63 2.131-53.82 1.241-8.8 1.824-23.19 6.418-30.71 1.089-1.78.504-1.2 2.665-1.75 1.039 2.45-1.105 47.67-.834 55.95.733 22.45 3.5 43.47 8.101 65.45-6.45-4.49-68.465-67.29-71.719-72.95-1.582-2.75-1.458-4.89-.54-7.79 1.81-1.55 4.967-3.77 5.969-5.94 1.703-3.69.787-12.85.921-17.01.633-19.63 1.651-47.14 11.538-64.23"/><path fill="#f0e6d5" d="M735.161 1115.01c16.418 12.54 30.596 29.38 45.318 43.89 15.783 15.56 34.58 30.8 47.843 48.46-11.634 16.67-24.04 32.32-33.738 50.31-12.349 22.91-20.698 47.39-27.971 72.29-23.349 79.94-23.082 137.91-11.134 219.46-.742-.19-1.574-.17-2.225-.57-6.85-4.25-16.408-17.17-22.528-23.4-20.094-20.46-40.467-41.03-61.421-60.59-2.601-14.24-6.334-28.25-8.971-42.48-14.913-80.49 7.823-183.65 43.871-256.36 8.896-17.95 19.615-34.54 30.956-51.01"/><path fill="#442b19" d="M681.146 1354.16c.743.32 2.465 1.1 2.918 1.82.977 1.56-4.18 56.49 3.78 75.49 1.994 4.76 5.29 8.79 8.455 12.81.136-19.88.877-58.45 10.844-75.28l1.288-.32c1.24 2.35 1.396 4.41 1.467 7.01.186 6.83-.994 14.01-1.408 20.86-.962 15.9-1.538 32.78-.092 48.64.926 10.16 3.444 16 11.316 22.46-1.898-22.89 2.094-45.93 7.001-68.26 1.853-1.76.74-1.28 3.373-1.34.163.27.361.52.489.81 2.32 5.26-.179 33.11.028 40.89.349 13.15.743 26.6 3.564 39.5 1.997 9.13 10.459 22.94 7.563 31.72-.633-.17-1.292-.26-1.9-.5-3.679-1.47-70.098-75.91-73.484-82.61-1.182-2.34-1.147-3.46-.446-5.91 1.416-.66 2.819-1.29 4.276-1.86l1.242-.48c1.948-8.56 1.612-17.86 2.527-26.61 1.374-13.13 4.111-26.01 7.199-38.84"/><path fill="#f0e6d5" d="M605.164 984.872c10.97 7.059 21.11 19.848 30.414 29.148l63.471 63.46a401 401 0 0 0-13.477 18.1c-51.325 74.29-71.35 185.07-65.444 274.21 1.27 19.16 4.855 37.96 8.206 56.84l-.608.65-1.449-.41c-16.165-20.82-36.467-39.59-55.145-58.16-9.062-9.01-23.66-19.56-29.28-30.83-8.208-16.48-10.792-39.81-12.365-57.92-7.776-89.59 17.401-225.57 75.677-295.088"/><path fill="#442b19" d="m557.157 1205.53 1.31 1.28c1.946 6.52-2.88 46.32-3.3 56.6-.5 12.23-.248 24.57-.196 36.81 4.661 4.96 8.79 10.59 13.05 15.92-3.418-22.5 2.029-62.93 10.744-84.21 1.036-2.53 1.63-3.91 4.182-4.94 3.943 3.63-1.123 17.18-1.618 22.66-2.658 29.38-1.872 53.75 2.57 82.9l8.223 8.85c-.579-25.5.495-53.04 6.29-77.9 1.23-5.46 2.378-11.55 5.476-16.26l.991.95c1.515 12.34-1.465 25.8-1.956 38.27-.75 19.04.525 39.41 2.949 58.3.818 6.38 7.653 27.3 5.737 31.31-2.698.11-4.513-1.24-6.541-2.93-12.017-10.03-22.685-23.98-33.348-35.52-10.394-11.26-22.274-22.25-31.588-34.35-2.241-2.91-4.875-6.22-5.314-9.98.947-2.63 1.05-3.38 3.185-5.12 1.674 1.02 2.954 1.61 4.867 2.05 1.671-3.06 1.404-22.34 1.943-27.69 1.839-18.27 4.115-40.59 12.344-57"/><path fill="#f0e6d5" d="M866.652 1244.44c6.153 3.02 24.19 24.33 30.68 30.91 20.651 20.93 41.775 41.28 62.04 62.61-11.482 18.3-23.259 36.56-32.474 56.14-33.503 71.16-47.347 160.91-45.674 239.04.33 15.42 4.041 30.66 4.557 46.02l-1.198.19a1992 1992 0 0 0-55.29-56.75c-9.958-9.94-19.728-20.96-30.838-29.59-4.217-16.54-8.652-33.24-10.875-50.19-10.309-78.6 8.501-179.5 45.906-249.41 9.446-17.66 21.057-33.11 33.166-48.97"/><path fill="#442b19" d="M815.467 1463.43c.561.32 1.183.56 1.685.97 6.471 5.3-10.413 29.09-8.802 85.94 2.875 4.45 6.485 8.09 10.13 11.9.099-7.77.294-15.54 1.162-23.28 1.361-12.13 11.651-57.82 19.953-64.5 4.801 5.15-.326 13.78-1.901 19.86-6.781 26.2-6.06 53.03-5.465 79.85 2.611 4.35 6.033 7.98 9.389 11.76a252 252 0 0 1 2.692-28.11c2.066-12.77 10.759-51.53 19.132-60.13l1.344.5c2.48 8.25-4.448 29.05-6.552 38.54-3.656 20.99-5.204 42.01-3.03 63.23l5.935 8.76a227 227 0 0 1 1.698-31.21c.75-6.16 1.601-20.59 6.744-24.62l1.932.49c2.479 4.73.135 19.84-.055 25.73-.68 21.16 1.372 41.52 4.124 62.47-11.386-9.5-21.407-22.54-31.425-33.51-12.27-13.43-25.091-26.28-37.707-39.38-4.221-4.38-13.212-12.17-13.08-18.32 1.411-1.32 2.494-2.65 3.167-4.5 2.734-7.51 2.578-21.2 3.897-29.86 2.735-17.96 8.112-35.81 15.033-52.58"/><path fill="#f0e6d5" d="m1785.05 1143.88 1.66.78c1.66 5.53 1.55 11.29 1.77 17.02-15.82 10.79-34.5 19.02-51.52 27.98-48.72 25.67-100.05 49.45-145.94 79.97l-1.63-.73-1.19 2.69c3.34.38 6.16-1.01 9.19-2.32 26.21-11.35 53.12-26.12 78.98-38.63 38.1-18.44 76.59-35.52 114.08-55.25 2.32 10.35 4.08 20.75 5.8 31.21-31.81 17.06-64.78 33-95.14 52.6l.48.99c12.12-.43 81.37-36.22 99.06-43.61a536 536 0 0 0 19.06 32.71c-21.78 14.08-45.34 25.51-68.45 37.2l-103.88 51.81-154.1 76.9c-31.27 15.66-62.41 32.7-94.39 46.8a406 406 0 0 0-6.31-26.91c27.52-10.77 53.72-25.05 79.93-38.63l98.89-51.35 60.71-31.38c13.62-7.13 27.56-13.95 40.01-23.03-19.48 5.68-38.31 15.73-56.57 24.53l-74.86 36.33c-50.62 24.86-101.69 48.97-152.01 74.4l-7.75-12.16c54.82-25.55 108.04-54.68 161.89-82.23a5405 5405 0 0 0 79.05-40.62c14.4-7.6 30.8-14.66 43.1-25.41-24.86 4.89-82.36 37.16-109.16 50.27-43.31 21.18-86.49 42.07-129.37 64.13-16.71 8.61-33.89 16.63-50.11 26.14-3.22-5.17-7.16-9.92-10.87-14.75 31.38-13.65 113.25-53.78 137.75-75.1-25.14 7.01-49.77 21.61-73.24 33.15-23.6 11.6-49.55 22.48-71.24 37.3-10.72-8.4-21.21-16.11-33.3-22.47 12.42-7.09 25.67-12.65 38.54-18.87a4084 4084 0 0 0 53.03-26.74c75.38-38.34 150.33-77.56 227.06-113.15 46.58-21.6 94.56-39.65 140.99-61.57M282.119 663.398c1.682.561 2.98 1.493 4.321 2.633 26.765 22.75 52.253 51.594 77.068 76.724 26.142 26.474 53.649 51.625 79.611 78.284-8.18 13.332-19.104 24.784-26.527 38.697-48.174 90.292-57.559 198.304-47.236 298.504l1.374 12.31c-26.114-27.88-54.872-56.57-82.016-83.52-17.563-17.44-35.611-34.54-52.146-52.96-1.253-12.62-6.533-25.32-9.992-37.513a314.6 314.6 0 0 1-10.565-52.984c-8.915-81.83 3.327-159.883 39.589-234.034 7.77-15.889 15.392-32.289 26.519-46.141"/><path fill="#442b19" d="M238.48 872.766c5.088 6.728-8.703 94.935 10.142 125.111a700 700 0 0 1-1.019-13.783c-.961-15.172.958-76.883 10.021-87.162l1.515.49c2.173 6.709-1.044 28.572-1.278 37.493-.649 24.77 1.012 50.727 5.003 75.155l9.174 10.17c-1.978-16.13-3.489-33.065-2.468-49.296.643-10.235 2.566-45.121 9.412-51.171 2.128 2.085.881 15.033.778 18.483-.97 32.577 1.864 62.634 6.028 94.904 2.329 2.65 4.867 4.9 7.526 7.21-.543-18.26-.459-82.773 9.399-96.749l1.075-.018c3.043 4.699-.947 32.814-1.024 40.91-.213 22.497.546 46.157 4.513 68.337l.298 1.62c1.863 2.54 3.707 4.62 6.02 6.76l1.348-.15.27-2.83c-1.927-26.92-2.39-69.251 8.454-94.311 2.223 11.598.771 24.052.267 35.81-1.005 23.471-1.278 58.111 8.711 79.671 1.806 3.89 4.823 7.4 7.459 10.77-1.435-33.71-4.845-73.99 7.218-105.99 1.816 13.77 1.06 28.47 1.313 42.37.337 18.48 1.329 36.71 2.857 55.14.673 8.11 6.4 38.56 5.738 41.82l-1.24.27c-6.684-4.76-12.491-12.07-18.19-17.99l-35.351-36.66c-18.766-19.23-43.578-40.67-60.067-61.04-4.469-5.53-7.667-11.561-9.437-18.453-5.298-20.629-5.205-98.965 5.535-116.891"/><path fill="#f0e6d5" d="M366.904 544.983c13.664 8.839 26.11 22.736 37.285 34.571-20.224 2.965-75.263 10.608-90.927 22.675l.435 1.376c14.462 2.751 37.19-2.604 52.283-4.068 20.175-1.958 40.618-3.375 60.881-2.279-9.592 3.948-21.104 4.587-31.337 6.098-18.325 2.706-37.113 5.542-54.522 12.078-5.899 2.215-14.246 5.025-16.968 11.088 6.975 3.601 93.007-17.456 110.612-16.11l1.954 2.44-.715-2.084.771.586-.191 1.687c-6.088 2.721-14.409 2.717-21.072 3.851-25.92 4.411-52.624 10.312-74.523 25.414.292-.063.586-.119.876-.191 12.832-3.158 25.665-3.845 38.714-5.607 17.535-2.368 34.97-5.393 52.554-7.417 6.079-.699 13.956-2.49 19.039 1.539l-.445 2.16c-6.9 2.122-15.015 2.069-22.199 3.014a381 381 0 0 0-35.116 6.307c-8.157 1.868-30.072 6.425-34.692 13.789 10.206 6.712 93.642-13.06 108.383-8.566 2.199.671 3.529 1.285 4.56 3.398-4.78 3.436-64.019 4.667-85.859 20.92-1.148.855-2.042 1.25-2.216 2.743 8.34 4.031 68.887-4.184 82.538-5.809 6.43-.766 14.433-2.709 20.773-2.247 2.625.192 3.778.968 5.524 2.807-.986 2.249-2.796 2.64-5.145 2.873-32.723 3.256-63.916 7.374-93.826 22.111 25.787.53 52.027-2.915 77.613-5.79 9.929-1.116 22.154-3.879 32.017-3.287 2.673.16 3.866.72 5.686 2.595l-.205 1.608c-6.99 2.468-15.676 2.007-23.128 2.91-27.643 3.352-53.388 7.788-78.043 21.411 24.162.109 49.225-3.643 73.147-7.069 11.624-1.665 23.846-4.205 35.576-4.39 3.189-.051 5.452.163 8.311 1.709l.164 1.345c-5.238 2.647-14.922 2.466-20.829 3.29-22.188 3.098-49.29 7.366-68.275 19.529a394.6 394.6 0 0 0 57.526-3.956c13.44-1.813 27.065-4.535 40.592-5.235 3.392-.175 7.114-.472 10.147 1.267l-.161 1.267c-4.59 2.911-11.854 3.441-17.241 4.541-20.82 4.248-49.015 7.686-66.193 20.805l.486 1.942-1.07-.318c5.68.744 12.745-.668 18.506-1.274 16.989-1.788 73.491-11.748 86.881-5.61l.432 1.19c-1.196 1.397-2.589 2.102-4.352 2.618-6.175 1.808-13.479 2.111-19.876 3.158-14.095 2.306-28.485 5.006-42.209 8.978-8.778 2.54-16.338 5.737-24.132 10.508 13.879.561 28.808-.438 42.665-1.729 14.031-1.306 58.73-10.354 69.46-6.314 1.857.699 1.969.798 2.862 2.631-6.921 3.508-19.6 3.488-27.482 4.896-23.984 4.285-50.822 9.418-72.683 20.448l-1.238.636c9.087.314 18.492-1.485 27.562-2.281 19.978-1.753 39.909-3.251 59.84-5.562 8.555-.992 17.984-3.16 26.555-3.112 2.384.014 3.167.283 5.083 1.529l.005 1.982c-3.465 2.963-25.254 4.916-31.654 6.177-22.244 4.383-46.961 11.536-65.85 24.414 11.713-1.352 23.338-3.788 35.028-5.409 19.425-2.693 39.284-4.393 58.854-5.653 6.952-.448 22.172-2.697 27.343 1.851-1.127 2.001-2.163 2.412-4.357 2.912-22.386 5.107-68.043 8.176-86.291 21.08-1.71 1.209-2.048 1.458-2.481 3.541 11.442 6.149 101.379-14.367 113.511-6.84l.19 1.936c-.535.639-.872 1.522-1.606 1.916-3.665 1.967-14.722 1.913-19.341 2.482-26.505 3.266-55.547 9.29-77.373 25.49 16.791-1.167 113.5-17.614 122.843-12.404l.262 1.556c-4.098 3.001-40.906 7.442-48.515 9.301-18.734 4.577-37.899 11.069-54.119 21.666 17.415-2.208 107.966-15.307 117.651-9.148-1.874 3.177-5.368 4.253-8.829 5.21-5.579 1.542-11.617 1.474-17.362 2.199-12.401 1.566-25.187 3.548-37.167 7.168-10.343 3.126-18.519 7.598-27.504 13.533 16.198-.811 77.458-9.459 87.878-6.767 2.797.722 4.262 1.742 5.706 4.202-1.021 2.403-2.458 3.552-4.81 4.632-5.795 2.664-12.944 3.218-19.14 4.584-13.316 2.935-41.124 8.662-51.176 18.234l.619 1.068c8.268 1.067 18.254-1.784 26.545-3.087 15.914-2.501 32.479-4.931 48.605-3.45 2.964.273 6.757.407 8.823 2.83-.72 2.03-1.54 2.489-3.556 3.127-5.564 1.763-11.791 2.583-17.486 4.017a166 166 0 0 0-38.136 14.346c17.885.404 72.219-8.23 84.786-1.967 1.824.909 1.21.388 1.975 2.414-3.503 1.825-8.033 1.641-11.938 2.087-17.931 2.049-37.269 3.938-50.917 16.925l-1.042 1.009c.37-.07.74-.143 1.112-.209.618-.11 1.24-.204 1.858-.317 9.804-1.794 69.108-4.594 76.427-2.082 1.713.588 1.151.177 1.926 1.811-4.243 2.64-24.644 6.429-30.942 8.457-12.969 4.176-25.375 10.034-37.272 16.63 16.832-.686 83.536-10.872 94.743-5.599l-.147 1.277c-6.669 3.656-17.128 4.085-24.662 5.777a137.7 137.7 0 0 0-42.215 16.787c25.111.9 50.186-4.561 75.218-3.935 3.366.084 6.063.95 8.409 3.415-4.343 7.08-45.087 4.49-57.381 19.56l.699 1.05c28.124-3.86 63.127-4.25 90.698 1.56a196 196 0 0 0-4.616.29c-16.695 1.26-58.189 8.47-68.989 20.95l.327 1.42c9.847.01 20.321-3.28 30.334-4.02a1513 1513 0 0 1 88.829-4.07c-11.233 3.46-23.406 3.5-34.999 5.2-23.451 3.43-44.339 10.69-65.498 21.09 20.096.46 112.962-18.66 122.524-11.94 1.305.92 1.135 1.78 1.473 3.23-1.345 1.19-57.877 5.9-70.269 10.08-7.806 2.64-27.185 7.73-31.007 15.14 5.338 5.32 90.757-14.35 108.29-13.59 3.118.14 6.389.51 8.612 2.88l-.155 1.49c-33.832 4.52-68.774 11.49-96.565 32.6 25.039-5.26 88.511-22.4 111.257-15.54l.101 1.25c-30.814 3.18-63.445 8.89-87.66 29.57 30.951-4.82 62.612-11.05 94.052-10.81 5.355.04 15.831.28 19.544 4.1-5.179 4.21-20.513 3.68-27.458 4.38-17.913 1.79-55.64 7.87-67.818 22.77 2.949 1.31 11.349-1.39 14.759-2.05 24.923-4.85 49.755-9.32 75.087-11.44 8.376-.7 19.619-3 26.482 2.8l.108 1.48c-4.274 1.97-10.671 1.31-15.426 1.91-29.257 3.71-62.872 5.5-85.86 26.15l-.999.91c23.213-2.7 46.394-8.18 69.655-11.31 10.15-1.36 43-6.4 49.829-1.2-.692 1.84-.065 1.28-2.053 1.87-6.663 1.98-15.721 1.31-22.806 2.07-24.459 2.63-52.886 7.99-73.537 22.33-1.804 1.25-2.562 1.49-3.013 3.71 2.828 1.26 6.043.7 9.029.3 8.609-1.16 16.868-3.63 25.365-5.3 25.668-5.04 54.063-10.39 80.289-9.97 4.32.07 7.31.18 10.39 3.38l-.16 1.63c-6.08 2.33-16.965.76-23.791 1.25-23.106 1.66-56.865 8.63-76.725 21.11-2.955 1.85-7.363 4.39-8.239 8.01 1.646.21.933.28 2.641-.19 24.129-6.66 72.428-15.09 96.794-16.13 8.74-.34 17.21-.81 25.66 1.89-6.96 1.99-16.48 1.16-23.77 1.4-22.121 3.34-49.018 5.02-67.715 18.31-4.644 3.3-8.643 7.77-12.626 11.83 24.846-7.72 88.591-20.21 114.721-18.95 2.83.13 6.62.01 8.57 2.2-6.01 2.48-19.94 1.7-27.12 2.48-12.46 1.34-24.575 3.32-36.585 6.99-6.7 2.04-27.358 8.01-30.749 14.44 9.758 6.11 95.904-21.23 111.494-11.87l.35 1.59c-.02.02-38.7 4.95-43.82 6.17-24.259 5.79-46.223 15.65-67.752 28.02 33.344-4.48 65.602-14.67 98.932-18.56 4.16-.48 12-2.24 15.21.3-7.35 2.44-15.39 3.14-22.93 5.08-27.22 7.04-51.965 17.49-74.255 34.85 13.362-3.11 26.373-7.87 39.645-11.38 19.48-5.16 39.36-9.06 59.16-12.72 9.9-1.83 20.28-4.41 30.37-3.95-33.27 11.16-83.58 22.04-107.088 49.21 32.618-7.28 87.948-40.69 117.568-38.08l1.32 2.15c-6.11 5.78-17.65 8.66-25.52 11.76-23.25 9.19-53.23 20.69-70.44 39.09l.12 1.36c9.13-.19 59.31-23.88 70.47-28.56 12.13-5.09 24.57-9.62 36.79-14.52 9.21 7.9 19.22 15.58 25.98 25.77-23.21 16.33-52.13 28.2-77.84 40.32a2027 2027 0 0 0-58.57 29.16c-15.665-13.44-29.813-29.37-44.256-44.11l-67.519-68.04-203.911-203.45-295.197-294.348c-17.566-17.654-34.907-35.602-52.656-53.063-31.639-31.126-63.723-61.938-93.141-95.208 14.95-9.763 32.327-17.293 48.481-24.853a4047 4047 0 0 1 60.623-27.875m684.706-321.72c2.15-.237 4.25-.369 6.42-.432 20.45-.591 38.11 9.853 53.94 21.794 12.33 9.294 23.81 20.206 35.39 30.408a7530 7530 0 0 1 68.75 61.556l200.69 180.528 319.1 284.98a4565 4565 0 0 0 88.88 77.231c16.15 13.927 32.85 27.559 48.25 42.3-10.88 6.894-23.33 12.326-34.84 18.168a2850 2850 0 0 1-70.02 34.783c-36.45 17.602-72.34 36.701-108.46 55.011l-252.34 128.67c-42.53 21.56-84.73 43.71-127.87 64.05a75 75 0 0 0-.37-3.89c-1.81-14.31-45.19-44.05-57.63-53.88 20.48 1.05 39.27 10.73 59.03 15.37 15.54-6.76 30.68-15.69 45.91-23.29l84.14-41.34 253.02-126.57c11.98-5.832 27.97-11.535 37.85-20.581.52-1.719 1.21-1.979-.55-3.488-.84-.72-3.53-1.527-4.58-1.978-10.33-4.45-16.61-7.375-21.92-18.012-6.52-13.045-6.66-28.546-2-42.187 11.88-34.777 35.77-41.028 65.39-55.792-6.88-9.046-17.06-16.301-25.41-24.047l-58.88-54.163-191.04-174.342c-79.84-71.624-158.21-144.881-238.75-215.75-29.58-26.031-58.15-54.389-89.49-78.219-10.82 6.358-22.53 11.851-34.77 14.778-43.72 10.456-83.54-9.253-119.645-31.665-31.591 9.854-61.979 26.001-91.588 40.687l-68.727 33.268c-40.538 19.718-81.884 37.714-122.433 57.394-59.346 28.801-117.935 59.311-177.939 86.756-8.314-6.766-16.399-13.88-24.57-20.822 36.232-21.153 75.444-36.271 113.324-54.08l214.496-100.208c39.032-18.133 77.67-37.412 116.377-56.243 33.719-16.406 76.075-40.404 112.865-46.753"/><path fill="#442b19" d="M1101.63 266.906c1.31-.16 2.05-.28 3.43-.307 3.87-.078 6.16 1.081 8.91 3.644 3.33 3.102 6 6.738 5.64 11.51-.23 3.08-1.97 3.933-4.33 5.416-5.77-3.751-14.83-8.122-17.56-14.669.65-2.831 1.89-3.568 3.91-5.594m-83.04-1.735c7.01-.469 10.94-.762 17.06 3.184 1.37 2.421 1.35 2.336.79 5.061-2.3 3.275-5.34 4.122-8.96 5.562-2.06 1.055-3.74 1.434-6.02 1.798-2.58-.69-4.69-1.489-6.5-3.584-2-2.325-2.03-4.322-1.9-7.152 1.63-2.994 2.63-3.243 5.53-4.869m735.54 598.244c6.35-.96 14.93-.986 21.13.504l-.36 1.076c-10.91 4.45-24.33 6.554-35.95 8.708-8.21 1.362-16.46 2.052-24.76 2.483 11.25-11.787 24.79-11.376 39.94-12.771m4.8 77.166.56.243-.61 1.232c-16.67 7.81-35.61 16.371-54.12 11.144-1.93-1.67-3.41-3.833-3.58-6.437-.11-1.686.51-1.844 1.51-3.042 7.35-1.683 16.08-.974 23.65-1.24 10.87-.382 21.74-1.186 32.59-1.9m-47.04-61.139c30.21-2.149 61.19-1.678 91.41.216-17.03 7.889-39.1 6.09-57.4 9.268-14.22.868-28.52.913-42.71 2.043.68-3.924 6.06-8.619 8.7-11.527m38.13 48.126c9.53-.548 28.18-3.325 36.75 1.125l-.86 1.356c-17.84 7.214-39.07 8.614-58.16 8.998-8.28.388-17.84 1.651-25.92-.216-3.93-.906-6.26-2.275-8.49-5.744l.64-1.803c8.9-4.635 44.31-3.206 56.04-3.716m-13.6-32.79c12.99.072 63.11-.751 70.11 4.676-.32.156-.61.343-.94.47-3.7 1.44-8.98.971-12.98 1.531-15.82 2.213-80.91 10.244-93.26 4.171-2.07-1.017-2.09-1.43-2.75-3.485.94-2.912 2.26-4.707 4.13-7.044 11.79-.093 23.94.439 35.69-.319m-38.71 16.319c13.41.041 103.44.155 109.52 3.053l-.33 1.36c-3.33 2.145-6.84 2.59-10.67 3.307-15.06 2.52-30.38 3.571-45.61 4.497-10.51.64-50.33 4.323-56.88-2.506-1.02-1.071-1.25-2.892-1.06-4.324.39-2.953 2.84-3.897 5.03-5.387"/><path fill="#442b19" d="M1045.07 250.495c1.81.148 3.48.29 4.92 1.541 6.9 6.005 11.39 13.828 18.96 19.673a306 306 0 0 1 8.75-18.51c3.5.962 8.03 2.309 9.96 5.649 3.18 5.516-1.23 15.011-2.98 20.554 3.89 1.253 8.03 2.3 11.64 4.25 4.12 2.223 8.5 4.638 9.96 9.354-.56 2.039-.8 2.9-2.95 3.864-3.85 1.724-9.34.463-12.98-1.227a23.8 23.8 0 0 1-12.31-13.114c.09-1.528.28-.746-.99-2.197l-1.58.849c-1.54 5.807 3.6 10.515 2.06 16.304-.74 2.746-1.48 3.233-3.63 4.844-3.41.53-6.89-.177-9.57-2.508-3.53-3.067-3.32-7.595-3.86-11.814-.33-2.597-.1-3.96-2.34-5.61-5.7 2.028-7.33 10.456-14.67 12.344-3.41.879-9.94.166-12.75-2.135-2.25-1.845-2.13-2.617-2.38-5.327 3.08-6.781 12.97-9.953 19.44-13.047-2.26-4.519-5.85-10.158-6.36-15.215-.39-3.944 1.39-5.622 3.66-8.522"/></svg>