<svg preserveAspectRatio="xMidYMid meet" version="1.1" xmlns="http://www.w3.org/2000/svg" style="display: block;" viewBox="0 0 2048 2048" width="1024" height="1024">
<defs>
	<linearGradient id="Gradient1" gradientUnits="userSpaceOnUse" x1="1563.73" y1="841.512" x2="1536.19" y2="836.473">
		<stop class="stop0" offset="0" stop-opacity="1" stop-color="rgb(255,232,206)"/>
		<stop class="stop1" offset="1" stop-opacity="1" stop-color="rgb(253,249,224)"/>
	</linearGradient>
</defs>
<path transform="translate(0,0)" fill="rgb(240,230,213)" d="M 0 0 L 2048 0 L 2048 2048 L 0 2048 L 0 0 z"/>
<path transform="translate(0,0)" fill="rgb(68,43,25)" d="M 151.842 1052.11 C 152.14 1052.11 152.437 1052.09 152.734 1052.1 C 172.519 1052.21 201.778 1058.4 216.222 1073.02 L 215.542 1073.95 C 204.377 1071.63 155.468 1062.26 150.589 1054.9 L 151.842 1052.11 z"/>
<path transform="translate(0,0)" fill="rgb(68,43,25)" d="M 860.793 1783.22 L 861.394 1783.15 C 876.987 1781.18 934.874 1794.12 949.937 1800.4 L 950.21 1801.7 A 396.632 396.632 0 0 1 932.477 1802.05 C 917.713 1801.88 871.062 1796.36 860.581 1785.57 L 860.793 1783.22 z"/>
<path transform="translate(0,0)" fill="rgb(68,43,25)" d="M 144.817 1076.44 C 167.854 1075.13 195.52 1079.17 216.928 1087.84 C 222.611 1090.14 235.39 1094.98 237.82 1100.76 L 235.242 1101.32 A 113.345 113.345 0 0 1 231.007 1101.07 C 214.417 1099.75 197.681 1093.97 181.446 1090.29 C 169.759 1087.64 157.608 1086.17 146.193 1082.5 C 143.908 1081.76 142.132 1081.25 140.534 1079.36 L 141.43 1077.57 L 144.817 1076.44 z"/>
<path transform="translate(0,0)" fill="rgb(68,43,25)" d="M 467.112 1405.42 C 489.486 1403.16 525.196 1404.55 546.259 1412.57 C 554.959 1415.89 562.589 1420.92 570.06 1426.41 C 571.858 1427.73 573.669 1428.44 574.013 1430.7 C 563.418 1427.89 552.816 1425.1 542.075 1422.9 C 530.896 1420.62 473.22 1412.64 466.627 1407.43 L 467.112 1405.42 z"/>
<path transform="translate(0,0)" fill="rgb(68,43,25)" d="M 740.755 1671.17 C 759.866 1669.82 788.095 1673.44 806.482 1678.09 C 817.519 1680.88 837.441 1688.04 843.523 1698.27 C 828.326 1696.2 756.055 1681.89 744.997 1676.38 C 742.094 1674.93 741.624 1674.24 740.755 1671.17 z"/>
<path transform="translate(0,0)" fill="rgb(68,43,25)" d="M 809.08 1743.19 A 54.1089 54.1089 0 0 1 813.841 1742.99 C 845.278 1743.15 898.579 1752.32 921.405 1775.43 C 910.34 1773.75 817.75 1750.82 812.066 1747.99 C 809.596 1746.76 809.758 1745.69 809.08 1743.19 z"/>
<path transform="translate(0,0)" fill="rgb(68,43,25)" d="M 776.808 1705.19 C 788.232 1704.55 800.77 1706.57 812.17 1707.82 C 839.097 1710.78 867.034 1714.56 885.277 1737.32 C 872.883 1733.37 860.423 1729.06 847.82 1725.86 C 834.19 1722.39 785.727 1715.63 777.753 1709.07 C 776.608 1708.13 776.93 1706.57 776.808 1705.19 z"/>
<path transform="translate(0,0)" fill="rgb(68,43,25)" d="M 581.034 1510.36 C 608.499 1510.44 641.483 1513.87 665.976 1526.58 C 673.969 1530.72 681.322 1536.37 688.589 1541.66 L 686.542 1541.99 C 670.623 1536.8 582.476 1517.74 577.4 1513.33 L 577.883 1511.43 L 581.034 1510.36 z"/>
<path transform="translate(0,0)" fill="rgb(68,43,25)" d="M 243.052 1179.23 C 259.828 1179.03 276.745 1181.97 293.28 1184.51 C 309.096 1186.94 340.736 1196.08 350.472 1209.34 L 348.761 1210.09 C 332.738 1206.34 249.283 1188.71 240.787 1183.35 L 240.418 1181.64 L 243.052 1179.23 z"/>
<path transform="translate(0,0)" fill="rgb(68,43,25)" d="M 620.814 1553.31 C 648.503 1551.96 688.799 1555.27 712.958 1568.99 C 717.072 1571.33 728.818 1578.51 729.992 1582.67 C 715.428 1578.95 625.128 1561.77 620.135 1556.01 L 620.814 1553.31 z"/>
<path transform="translate(0,0)" fill="rgb(68,43,25)" d="M 153.514 1105.28 C 182.852 1104.34 236.165 1110.15 261.335 1125.47 C 264.957 1127.68 271.145 1131.15 272.146 1135.26 C 257.893 1131.64 157.645 1111.5 154.485 1109.68 C 153.803 1109.28 153.388 1108.55 152.839 1107.99 L 153.514 1105.28 z"/>
<path transform="translate(0,0)" fill="rgb(68,43,25)" d="M 487.698 1439.38 C 519.303 1439.05 558.015 1438.93 587.497 1450.99 C 592.424 1453.01 607.11 1459.49 609.014 1464.06 C 584.374 1459.3 559.591 1455.85 534.75 1452.33 C 521.135 1450.4 506.035 1449.43 492.915 1445.39 C 490.354 1444.6 488.722 1443.6 487.087 1441.43 L 487.698 1439.38 z"/>
<path transform="translate(0,0)" fill="rgb(68,43,25)" d="M 263.088 1215.27 C 264.415 1215.09 265.647 1214.94 266.989 1214.91 C 293.863 1214.3 338.587 1219.46 363.117 1230.19 A 83.7072 83.7072 0 0 1 388.318 1247.42 C 379.849 1246.48 370.799 1243.08 362.461 1240.99 A 4039.77 4039.77 0 0 0 310.128 1228.52 C 302.608 1226.8 268.238 1221.31 264.362 1218.66 C 263.162 1217.84 263.341 1216.6 263.088 1215.27 z"/>
<path transform="translate(0,0)" fill="rgb(68,43,25)" d="M 423.439 1367.21 C 446.835 1366.51 490.749 1369.84 512.112 1378.63 C 518.205 1381.14 533.99 1387.67 536.551 1393.78 L 533.463 1393.71 C 516.409 1391 499.396 1387.07 482.362 1384.05 C 464.441 1380.86 446.057 1378.59 428.39 1374.31 C 424.831 1373.44 418.9 1372.42 416.422 1369.72 C 418.403 1367.93 420.88 1367.79 423.439 1367.21 z"/>
<path transform="translate(0,0)" fill="rgb(68,43,25)" d="M 188.754 1141.32 C 190.823 1141.1 192.779 1141.01 194.864 1141.05 C 206.873 1141.29 219.14 1142.94 231.056 1144.41 C 261.069 1148.12 297.239 1152.44 319.226 1175.68 C 308.956 1172.93 299.024 1169.26 288.621 1166.83 C 272.359 1163.03 195.43 1150.95 188.754 1141.32 z"/>
<path transform="translate(0,0)" fill="rgb(68,43,25)" d="M 531.527 1474.22 C 556.97 1473.63 599.701 1475.4 622.808 1485.22 C 631.748 1489.02 641.079 1495.85 648.411 1502.17 L 647.644 1503.13 C 613.514 1493.09 578.543 1489.85 543.932 1482.5 C 539.551 1481.56 533.124 1480.78 530.617 1476.9 L 531.527 1474.22 z"/>
<path transform="translate(0,0)" fill="rgb(68,43,25)" d="M 695.027 1631.44 C 714.034 1628.58 738.043 1631.87 757.04 1635.23 C 775.046 1638.42 801.616 1648.71 812.469 1664.12 C 785.648 1655.7 758.173 1650.06 730.871 1643.48 C 721.363 1641.19 704.889 1639.04 696.922 1634.54 C 695.114 1633.52 695.517 1633.31 695.027 1631.44 z"/>
<path transform="translate(0,0)" fill="rgb(68,43,25)" d="M 348 1291.01 C 382.567 1290.79 436.577 1296.42 462.087 1321.01 C 454.942 1321.14 357.307 1301.26 350.076 1297.8 C 348.073 1295.28 348.298 1294.15 348 1291.01 z"/>
<path transform="translate(0,0)" fill="rgb(68,43,25)" d="M 639.171 1588.26 C 650.595 1587.96 662.723 1589.66 674.111 1590.75 C 706.4 1593.84 741.261 1596.83 766.249 1619.92 C 752.871 1617.61 643.649 1596.3 639.613 1592.29 C 638.521 1591.21 639.095 1589.67 639.171 1588.26 z"/>
<path transform="translate(0,0)" fill="rgb(68,43,25)" d="M 301.11 1250.44 C 322.663 1248.74 385.563 1258.57 404.838 1268.3 C 411.444 1271.64 425.332 1279.51 427.734 1286.68 C 394.212 1276.83 360.052 1269.56 326.238 1260.83 C 319.266 1259.02 311.96 1257.95 305.097 1255.88 C 302.685 1255.15 301.949 1254.82 300.33 1252.99 L 301.11 1250.44 z"/>
<path transform="translate(0,0)" fill="rgb(68,43,25)" d="M 369.566 1328.21 C 398.765 1326.69 450.56 1331.74 477.081 1342.65 C 487.385 1346.88 496.943 1353.64 505.225 1361.03 C 492.055 1358.76 479.054 1355.18 465.92 1352.62 C 449.811 1349.49 382.575 1339.07 372.379 1333.61 C 369.915 1332.3 370.095 1330.7 369.566 1328.21 z"/>
<path transform="translate(0,0)" fill="rgb(68,43,25)" d="M 1053.91 197.397 C 1056.91 197.119 1060 197.232 1063.01 197.331 C 1084.83 198.047 1106.06 206.652 1123.48 219.548 C 1143.38 234.271 1161.54 252.541 1180.04 269.031 A 6329.5 6329.5 0 0 1 1281.13 359.594 C 1358.27 429.91 1436.74 498.934 1514.84 568.192 L 1793.07 817.292 A 4600.27 4600.27 0 0 0 1862.45 877.71 C 1874.44 888.053 1887.92 898.146 1898.61 909.801 L 1899.88 911.21 C 1905.42 917.248 1906.23 929.18 1905.84 937.002 C 1904.01 973.895 1884.34 966.663 1865.05 985.869 C 1840.95 1009.86 1823.87 1064.26 1818.49 1098.24 C 1816.44 1111.19 1815.8 1124.49 1815.86 1137.58 C 1816 1166.02 1821.28 1201.03 1839.49 1224.01 C 1844.27 1230.04 1850.45 1235.22 1856.45 1239.99 C 1866.88 1248.28 1879.46 1255.06 1888.7 1264.63 C 1895.36 1271.52 1899.8 1280.22 1899.45 1289.98 C 1898.97 1303.63 1891.21 1314.48 1880.89 1322.73 C 1867.46 1333.46 1848.37 1340.64 1832.89 1348.45 A 5892.48 5892.48 0 0 1 1740.2 1395.11 A 13813.5 13813.5 0 0 0 1484.03 1525.52 C 1468.07 1533.81 1419.51 1555.68 1409.41 1565.47 C 1409.21 1565.66 1409.01 1565.86 1408.82 1566.06 C 1411.03 1593.77 1416.56 1620.7 1428.34 1646.04 C 1460.37 1714.95 1518.82 1743.14 1585.92 1767.52 C 1527.01 1773.15 1468.22 1769.32 1409.61 1762.64 C 1399.88 1795.45 1400.34 1825.36 1406.11 1858.83 C 1393.74 1851.19 1380.52 1845 1368.28 1837.12 C 1323.07 1808.03 1293.24 1767.84 1274.85 1717.67 C 1269.87 1701.62 1267.64 1685.51 1264.69 1669.04 C 1243.44 1678.91 1223.31 1691.94 1202.42 1702.67 L 1046.38 1781.12 C 1023.92 1792.39 1002.64 1804.38 976.828 1795.61 C 963.183 1790.97 951.35 1782.28 940.919 1772.52 C 924.412 1757.07 909.852 1739.85 894.435 1723.37 C 880.832 1708.82 866.333 1694.99 852.279 1680.86 L 618.711 1448.29 L 343.898 1173.99 C 296.578 1127.07 246.282 1082.55 200.874 1033.76 C 188.649 1020.63 178.991 1007.28 171.172 991.047 C 126.265 897.805 140.67 784.137 173.694 689.646 C 185.27 656.522 205.062 604.726 233.177 583.224 C 245.52 573.784 260.364 567.305 274.132 560.252 A 3071.37 3071.37 0 0 1 360.038 518.125 C 363.423 512.335 366.542 506.789 371.943 502.586 C 376.949 498.691 450.145 464.882 457.797 463.062 C 462.157 462.026 467.609 463.267 472.016 463.866 C 529.849 432.968 590.068 405.93 649.429 378.159 L 810.357 302.128 L 950.879 236.251 C 972.477 226.262 993.602 215.223 1015.84 206.659 C 1028.4 201.82 1040.52 198.728 1053.91 197.397 z"/>
<path transform="translate(0,0)" fill="rgb(240,230,213)" d="M 1405.85 1026.34 C 1407.4 1027.31 1408.74 1028.09 1409.64 1029.78 C 1411.67 1033.56 1409.77 1037.64 1408.42 1041.29 L 1406.93 1041.55 C 1404.07 1037.81 1405.43 1030.86 1405.85 1026.34 z"/>
<path transform="translate(0,0)" fill="rgb(240,230,213)" d="M 990.549 464.663 C 991.469 467.817 991.78 471.609 991.324 474.866 C 990.758 478.908 989.088 480.399 986.073 482.721 C 983.864 476.144 987.748 470.504 990.549 464.663 z"/>
<path transform="translate(0,0)" fill="rgb(240,230,213)" d="M 862.582 395.825 L 863.479 397.568 A 75.0187 75.0187 0 0 1 862.573 400.203 C 860.871 404.829 858.723 409.745 854.079 411.934 C 853.496 411.181 853.071 410.268 852.605 409.437 C 854.471 403.802 858.508 399.947 862.582 395.825 z"/>
<path transform="translate(0,0)" fill="rgb(240,230,213)" d="M 1298.17 793.65 C 1298.52 794.021 1298.94 794.333 1299.21 794.763 C 1302.39 799.886 1301.99 814.376 1299.72 819.834 C 1299.11 818.64 1299.03 818.562 1298.49 817.091 C 1295.75 809.647 1294.54 800.895 1298.17 793.65 z"/>
<path transform="translate(0,0)" fill="rgb(240,230,213)" d="M 930.806 818.425 C 931.565 819.254 932.335 820.005 932.87 821.021 C 935.685 826.371 929.699 838.999 927.73 844.452 C 927.188 844.045 926.34 843.465 925.963 842.909 C 923.077 838.646 929.155 823.345 930.806 818.425 z"/>
<path transform="translate(0,0)" fill="rgb(240,230,213)" d="M 947.415 827.71 L 948.909 829.56 C 949.749 838.254 943.087 851.944 939.076 859.59 L 937.446 857.803 C 936.406 849.422 943.749 835.345 947.415 827.71 z"/>
<path transform="translate(0,0)" fill="rgb(240,230,213)" d="M 1278.28 1411.88 C 1273.59 1408.05 1257.47 1399.31 1255.52 1395.25 L 1257.54 1393.56 C 1265.27 1393.8 1276.36 1404.55 1282.2 1409.5 L 1278.28 1411.88 z"/>
<path transform="translate(0,0)" fill="rgb(240,230,213)" d="M 599.841 520.979 L 600.491 522.239 C 598.937 531.574 587.276 543.786 581.388 551.22 C 580.165 549.665 580.258 550.377 580.416 548.595 C 581.238 539.325 593.015 526.589 599.841 520.979 z"/>
<path transform="translate(0,0)" fill="rgb(240,230,213)" d="M 1620.02 817.549 L 1621.81 819.105 C 1625.09 827.643 1620.48 854.162 1619.25 864.033 L 1618.62 863.979 C 1615.61 855.04 1617.08 826.572 1620.02 817.549 z"/>
<path transform="translate(0,0)" fill="rgb(240,230,213)" d="M 889.645 383.479 C 891.36 384.649 890.982 384.575 891.45 386.444 C 890.058 393.82 884.087 407.658 877.99 412.166 C 876.702 411.676 875.903 411.189 874.78 410.423 C 875.001 402.418 885.043 390.054 889.645 383.479 z"/>
<path transform="translate(0,0)" fill="rgb(240,230,213)" d="M 1317.85 783.372 C 1318.85 784.119 1319.57 785.066 1320.39 785.998 C 1322.85 795.298 1321.46 811.029 1318.01 819.823 L 1315.67 818.495 C 1312.58 808.761 1315.95 793.288 1317.85 783.372 z"/>
<path transform="translate(0,0)" fill="rgb(240,230,213)" d="M 1341.46 773.625 C 1342.63 774.674 1342.57 774.273 1342.85 775.684 C 1344.36 783.297 1341.09 815.542 1337.46 821.797 L 1335.52 819.69 C 1334 810.399 1337.69 782.026 1341.46 773.625 z"/>
<path transform="translate(0,0)" fill="rgb(240,230,213)" d="M 1171.57 495.62 C 1173.39 500.931 1171.11 509.08 1170.03 514.453 C 1168.36 522.769 1166.52 538.841 1159.09 543.798 C 1156.62 534.219 1168.01 506.075 1171.57 495.62 z"/>
<path transform="translate(0,0)" fill="rgb(240,230,213)" d="M 1280.39 513.751 L 1281.2 514.459 C 1287.18 527.442 1283.93 558.431 1282.73 573.334 L 1281.23 573.068 C 1277.82 559.99 1279.75 528.276 1280.39 513.751 z"/>
<path transform="translate(0,0)" fill="rgb(240,230,213)" d="M 1377.75 1012.52 C 1379.08 1013.59 1379.62 1014.32 1380.27 1015.95 C 1384.63 1027.05 1382.74 1053.94 1378.18 1064.73 L 1377.06 1064.47 C 1375.76 1061.35 1377.08 1019.07 1377.75 1012.52 z"/>
<path transform="translate(0,0)" fill="rgb(240,230,213)" d="M 1358.33 1007.57 C 1359.07 1008.14 1359.56 1008.37 1360.01 1009.18 C 1363.63 1015.61 1362.83 1069.4 1360.35 1078.03 L 1359.68 1078.37 C 1357.83 1074.9 1358.25 1016 1358.33 1007.57 z"/>
<path transform="translate(0,0)" fill="rgb(240,230,213)" d="M 911.345 767.406 C 913.072 768.584 913.398 768.968 914.45 770.656 C 914.842 782.644 908.744 801.836 903.412 812.712 C 902.818 812.958 902.132 812.831 901.49 812.853 C 899.039 804.815 908.895 776.26 911.345 767.406 z"/>
<path transform="translate(0,0)" fill="rgb(240,230,213)" d="M 836.562 700.755 C 837.241 709.722 822.604 751.584 817.245 758.67 C 817.072 758.226 816.871 757.792 816.726 757.339 C 813.633 747.692 831.449 711.116 836.562 700.755 z"/>
<path transform="translate(0,0)" fill="rgb(240,230,213)" d="M 965.548 828.742 C 966.403 829.563 965.848 828.941 966.744 830.937 C 965.103 844.252 961.195 867.809 954.271 879.327 L 951.83 875.981 C 950.519 867.778 961.831 837.1 965.548 828.742 z"/>
<path transform="translate(0,0)" fill="rgb(240,230,213)" d="M 957.244 607.65 C 958.455 609.168 958.467 609.428 958.19 611.41 C 956.807 621.342 944.875 658.027 939.788 666.983 C 938.522 669.214 936.472 670.754 934.456 672.27 L 933.677 671.539 C 932.932 667.883 939.57 656.668 941.187 652.478 C 946.872 637.75 950.741 622.008 957.244 607.65 z"/>
<path transform="translate(0,0)" fill="rgb(240,230,213)" d="M 1299.14 527.225 C 1300.19 527.617 1301.21 528.206 1302.21 528.711 C 1306.73 540.195 1303.49 566.657 1302.77 579.559 C 1301.1 579.951 1302.07 579.894 1299.85 579.319 C 1296.3 572.024 1298.85 537.642 1299.14 527.225 z"/>
<path transform="translate(0,0)" fill="rgb(240,230,213)" d="M 810.632 679.746 C 810.76 680.927 810.794 682.1 810.638 683.283 C 809.391 692.751 792.043 743.741 785.279 748.846 C 784.46 746.789 783.942 745.852 784.334 743.596 C 786.534 730.96 804.716 693.702 810.632 679.746 z"/>
<path transform="translate(0,0)" fill="rgb(240,230,213)" d="M 964.775 371.804 C 964.802 372.084 964.853 372.362 964.856 372.643 C 964.947 382.181 943.735 426.916 937.048 434.99 C 936.91 434.643 936.738 434.307 936.633 433.947 C 933.835 424.33 958.958 381.586 964.775 371.804 z"/>
<path transform="translate(0,0)" fill="rgb(240,230,213)" d="M 1259.78 491.628 C 1260.31 492.071 1261.03 492.626 1261.43 493.189 C 1267.04 500.959 1264.21 552.081 1263.76 563.962 L 1261.27 561.767 C 1258.79 556.007 1258.56 499.417 1259.78 491.628 z"/>
<path transform="translate(0,0)" fill="rgb(240,230,213)" d="M 930.468 362.745 L 931.561 364.486 C 926.328 373.32 920.031 381.532 914.781 390.412 C 908.923 400.322 904.149 410.921 897.715 420.473 L 896.453 419.168 C 896.881 401.206 918.118 375.143 930.468 362.745 z"/>
<path transform="translate(0,0)" fill="rgb(240,230,213)" d="M 1205.32 447.683 L 1206.72 449.1 C 1212.1 466.471 1201.28 507.523 1194.09 524.02 L 1193.4 524.403 C 1191.75 520.046 1195.35 509.022 1196.46 504.36 C 1200.93 485.536 1202.16 466.673 1205.32 447.683 z"/>
<path transform="translate(0,0)" fill="rgb(240,230,213)" d="M 854.585 563.499 C 855.4 564.036 855.908 564.763 856.532 565.504 C 855.702 578.093 835.633 617.11 829.387 630.416 L 828.795 630.714 L 828.26 629.485 C 833.468 607.566 843.322 583.056 854.585 563.499 z"/>
<path transform="translate(0,0)" fill="rgb(240,230,213)" d="M 650.824 529.365 L 652.668 530.583 C 652.501 538.787 627.809 582.147 622.233 592.117 C 621.198 591.654 620.758 590.975 620.022 590.136 C 620.8 579.943 644.025 539.645 650.824 529.365 z"/>
<path transform="translate(0,0)" fill="rgb(240,230,213)" d="M 1361.3 759.704 C 1364.54 768.529 1363.06 823.375 1359.58 831.675 C 1358.03 830.613 1357.32 829.876 1356.91 827.976 C 1355.15 819.784 1357.36 765.148 1361.3 759.704 z"/>
<path transform="translate(0,0)" fill="rgb(240,230,213)" d="M 978.796 849.596 C 979.852 850.52 980.594 851.527 981.452 852.632 C 982.381 866.567 969.706 901.113 964.157 914.563 L 961.881 913.305 C 960.309 905.495 975.157 857.823 978.796 849.596 z"/>
<path transform="translate(0,0)" fill="rgb(240,230,213)" d="M 1361.48 603.375 C 1366.35 609.373 1365.87 689.218 1364.71 700.874 C 1363.68 700.011 1362.91 699.002 1362.06 697.971 C 1359.78 685.067 1359.6 616.828 1361.48 603.375 z"/>
<path transform="translate(0,0)" fill="rgb(240,230,213)" d="M 1336.73 567.343 L 1339.23 568.648 C 1344.11 576.371 1344.09 620.873 1343.33 631.421 L 1339.86 629.481 C 1335.36 621.884 1334.83 577.462 1336.73 567.343 z"/>
<path transform="translate(0,0)" fill="rgb(240,230,213)" d="M 902.553 734.797 C 903.02 735.389 903.159 735.44 903.33 736.248 C 904.452 741.563 889.466 795.75 886.405 801.524 C 885.072 800.299 884.584 799.845 884.121 798.05 C 881.233 786.875 895.82 745.468 902.553 734.797 z"/>
<path transform="translate(0,0)" fill="rgb(240,230,213)" d="M 953.096 352.678 L 953.591 354.3 C 952.612 359.621 921.386 423.877 917.252 427.845 C 916.776 426.636 916.256 425.351 916.185 424.036 C 915.704 415.085 946.777 360.744 953.096 352.678 z"/>
<path transform="translate(0,0)" fill="rgb(240,230,213)" d="M 1030.74 889.465 C 1032.05 890.206 1032.08 889.897 1032.56 891.244 C 1035.77 900.213 1012.68 951.54 1007.72 962.434 L 1006.3 962.381 C 1003.95 954.439 1026.81 899.852 1030.74 889.465 z"/>
<path transform="translate(0,0)" fill="rgb(240,230,213)" d="M 1378.23 750.535 L 1379.39 751.472 C 1380.62 758.321 1379.35 835.111 1377.37 840.376 C 1376.69 839.417 1376.09 838.764 1375.7 837.676 C 1371.94 827.171 1373.35 761.074 1378.23 750.535 z"/>
<path transform="translate(0,0)" fill="rgb(240,230,213)" d="M 1244.43 966.746 C 1248.86 1003.49 1242.76 1041.08 1239.32 1077.69 C 1238.39 1087.61 1238.98 1099.6 1236.37 1109.05 C 1235.71 1111.45 1235.26 1111.44 1233.17 1112.53 L 1231.15 1111.13 C 1230.23 1109.14 1229.99 1108.29 1230.25 1106.02 C 1230.72 1101.8 1232.58 1097.42 1233.5 1093.24 A 421.765 421.765 0 0 0 1238.41 1066.43 C 1243.15 1033.64 1243.18 999.822 1244.43 966.746 z"/>
<path transform="translate(0,0)" fill="rgb(240,230,213)" d="M 1263.61 905.384 C 1268.37 924.575 1268.8 1003.48 1266.19 1024.18 L 1265.75 1038.05 C 1262.54 1035.19 1263.15 1030.65 1262.88 1026.63 C 1262.74 1023.47 1263.1 1020.12 1263.21 1016.95 C 1263.58 998.273 1263.97 979.686 1263.75 960.995 C 1263.53 942.469 1262.6 923.898 1263.61 905.384 z"/>
<path transform="translate(0,0)" fill="rgb(240,230,213)" d="M 1112.64 947.739 C 1113.67 948.787 1113.6 948.376 1113.73 949.87 C 1114.57 959.823 1099.15 1030.22 1093.91 1037.46 C 1092.93 1036.56 1093.29 1037.05 1092.63 1035.68 C 1089.09 1028.39 1108.77 958.321 1112.64 947.739 z"/>
<path transform="translate(0,0)" fill="rgb(240,230,213)" d="M 1013.35 871.608 C 1014.75 872.861 1015.29 874.314 1016.16 875.977 C 1016.89 888.098 999.904 932.148 994.284 945.689 C 993.616 945.511 992.419 944.603 991.813 944.224 C 988.526 936.501 1010.09 884.298 1013.35 871.608 z"/>
<path transform="translate(0,0)" fill="rgb(240,230,213)" d="M 1379.48 603.241 L 1382.09 604.779 C 1386.67 614.386 1387.4 694.086 1384.99 706.311 C 1384.79 706.099 1384.56 705.911 1384.39 705.675 C 1382.87 703.58 1382.58 700.454 1382.35 697.957 C 1380.76 680.965 1381.37 663.427 1380.88 646.351 C 1380.48 632.089 1378.88 617.466 1379.48 603.241 z"/>
<path transform="translate(0,0)" fill="rgb(240,230,213)" d="M 1265.75 1038.05 C 1265.07 1057.91 1264.57 1102.08 1254.63 1117.89 L 1253.45 1118.04 C 1252.54 1114.17 1261.67 1037.45 1262.88 1026.63 C 1263.15 1030.65 1262.54 1035.19 1265.75 1038.05 z"/>
<path transform="translate(0,0)" fill="rgb(240,230,213)" d="M 1523.49 833.859 C 1528.02 849.494 1526.12 870.422 1526.12 886.748 C 1527.81 899.928 1529.42 946.792 1527.17 958.992 L 1526.01 959.676 C 1522.43 951.565 1523.62 924.223 1523.36 913.962 C 1522.23 887.118 1521.54 860.681 1523.49 833.859 z"/>
<path transform="translate(0,0)" fill="rgb(240,230,213)" d="M 938.18 598.373 L 940.251 599.042 C 940.403 599.679 940.642 600.302 940.708 600.953 C 941.257 606.434 922.578 665.039 918.859 673.33 C 917.38 676.627 915.563 678.95 912.993 681.467 L 911.814 680.923 C 911.144 677.548 934.719 604.403 938.18 598.373 z"/>
<path transform="translate(0,0)" fill="rgb(240,230,213)" d="M 653.651 494.701 L 654.453 495.448 C 655.282 501.16 615.461 567.325 608.912 578.77 C 607.582 577.325 607.496 576.999 607.032 575.182 C 610.648 562.311 644.44 503.67 653.651 494.701 z"/>
<path transform="translate(0,0)" fill="rgb(240,230,213)" d="M 1598.02 795.529 C 1599.83 796.195 1600.59 796.614 1601.78 798.142 C 1602.74 812.141 1601.22 892.892 1598.03 900.789 L 1596.96 901.415 L 1595.83 900.663 C 1596.68 876.919 1596.35 853.005 1596.69 829.236 C 1596.85 818.263 1596.11 806.322 1598.02 795.529 z"/>
<path transform="translate(0,0)" fill="rgb(240,230,213)" d="M 999.427 850.744 L 1000.69 852.516 C 1003.42 870.696 985.206 911.345 977.684 929.315 C 977.109 928.77 976.631 927.776 976.206 927.097 C 975.516 910.41 993.469 867.611 999.427 850.744 z"/>
<path transform="translate(0,0)" fill="rgb(240,230,213)" d="M 1077.34 896.74 C 1078.37 907.491 1055 988.845 1049.29 999.968 C 1049.08 999.408 1048.81 998.868 1048.66 998.288 C 1046.43 989.466 1070.71 905.933 1077.34 896.74 z"/>
<path transform="translate(0,0)" fill="rgb(240,230,213)" d="M 980.257 348.242 C 981.589 348.973 983.133 349.37 983.792 350.83 C 987.856 359.83 963.911 433.544 958 447.274 L 957.392 447.729 L 955.726 447.116 C 954.866 439.289 965.439 415.419 967.821 405.973 C 972.627 386.909 975.541 367.354 980.257 348.242 z"/>
<path transform="translate(0,0)" fill="rgb(240,230,213)" d="M 1006.88 356.367 C 1008.05 357.216 1008.64 357.637 1009.24 359.001 C 1013.08 367.736 981.866 451.468 976.047 465.29 C 974.181 464.647 975.015 465.251 973.886 463.084 C 974.809 451.968 987.681 420.144 991.705 407.38 C 997.026 390.506 1000.87 372.986 1006.88 356.367 z"/>
<path transform="translate(0,0)" fill="rgb(240,230,213)" d="M 1296.43 997.048 C 1301.5 1016.21 1302.54 1095.18 1294.31 1112.14 L 1292.15 1111.61 C 1289.38 1106.91 1293 1093.71 1293.44 1088.02 C 1294.62 1072.68 1294.86 1057.38 1294.78 1042 C 1294.71 1027.37 1293.36 1011.37 1296.43 997.048 z"/>
<path transform="translate(0,0)" fill="rgb(240,230,213)" d="M 1034.54 528.745 C 1035.26 538.589 1008.24 617.256 1002.43 630.023 C 1000.61 634.008 998.599 634.662 994.729 636.087 C 994.082 630.617 1029.27 539.262 1034.54 528.745 z"/>
<path transform="translate(0,0)" fill="rgb(240,230,213)" d="M 1313.57 970.432 C 1313.72 970.651 1313.9 970.855 1314.03 971.088 C 1317.77 977.719 1319 1066.97 1318.56 1080.64 C 1318.32 1088.29 1317.82 1096.11 1315.93 1103.54 C 1314.49 1103.58 1315.38 1103.65 1313.32 1102.93 C 1312.67 1101.11 1312.94 981.634 1313.57 970.432 z"/>
<path transform="translate(0,0)" fill="rgb(240,230,213)" d="M 1053.31 893.488 L 1054.49 894.583 C 1056.06 902.53 1033.82 974.027 1028.31 982.762 C 1027.46 981.463 1026.5 980.073 1026.15 978.53 C 1023.52 967.079 1046.96 905.47 1053.31 893.488 z"/>
<path transform="translate(0,0)" fill="rgb(240,230,213)" d="M 1418.06 754.439 L 1419.88 756.113 C 1422.49 766.581 1420.01 857.642 1416.47 867.948 C 1415.65 867.191 1415.04 866.707 1414.41 865.726 C 1409.95 858.83 1415.15 766.544 1418.06 754.439 z"/>
<path transform="translate(0,0)" fill="rgb(240,230,213)" d="M 1580.69 784.335 C 1581.62 784.977 1582.44 785.889 1583.26 786.662 C 1587.29 799.938 1586.54 903.472 1584.5 922.517 L 1583.29 922.126 C 1580.37 916.172 1578.86 798.631 1580.69 784.335 z"/>
<path transform="translate(0,0)" fill="rgb(240,230,213)" d="M 830.596 582.75 C 830.718 584.081 830.724 585.312 830.516 586.639 C 827.439 606.251 815.622 626.347 808.118 644.792 C 796.952 672.236 787.535 701.782 773.615 727.927 C 772.652 729.736 771.792 730.567 770.156 731.723 C 770.043 731.461 769.91 731.208 769.819 730.939 C 768.938 728.321 769.713 726.105 770.56 723.608 C 775.976 707.637 784.414 692.182 790.995 676.624 C 804.235 645.327 816.934 613.883 830.596 582.75 z"/>
<path transform="translate(0,0)" fill="rgb(240,230,213)" d="M 1098.03 911.561 C 1099.04 914.019 1098.79 916.016 1098.43 918.578 C 1095.64 938.161 1082.15 1001.2 1075.38 1017.46 C 1074.42 1019.77 1073.2 1020.86 1071.23 1022.33 C 1071.08 1021.86 1070.9 1021.39 1070.77 1020.91 C 1068.04 1011.18 1091.72 922.605 1098.03 911.561 z"/>
<path transform="translate(0,0)" fill="rgb(240,230,213)" d="M 1159.87 864.181 C 1160.87 864.719 1161.58 865.4 1162.42 866.15 C 1163.7 876.127 1160.97 888.084 1159.67 898.12 C 1154.79 935.829 1147.9 972.84 1140.31 1010.09 C 1136.95 1026.61 1134.02 1043.27 1129.96 1059.63 L 1129.72 1059.91 L 1128.98 1059.73 C 1130.44 1046.3 1134.44 1032.47 1136.89 1019.15 C 1140.82 997.797 1143.64 976.096 1146.93 954.628 A 1611.75 1611.75 0 0 0 1154.09 906.101 C 1155.76 892.433 1156.32 877.448 1159.87 864.181 z"/>
<path transform="translate(0,0)" fill="rgb(240,230,213)" d="M 696.721 473.686 L 697.314 474.249 C 697.429 474.799 697.658 475.336 697.66 475.897 C 697.67 478.958 684.178 503.582 681.658 508.545 C 673.697 524.22 665.712 539.806 658.546 555.866 C 651.433 571.809 645.171 589.311 636.01 604.129 L 634.205 601.942 C 634.595 587.885 684.382 489.95 696.721 473.686 z"/>
<path transform="translate(0,0)" fill="rgb(240,230,213)" d="M 1334.07 988.657 C 1334.84 989.506 1335.41 990.353 1335.82 991.452 C 1341.1 1005.5 1344.11 1081.58 1338.73 1093.17 C 1336.87 1093.04 1336.17 1092.87 1334.52 1092.19 C 1333.48 1090.29 1333.23 1088.8 1333.13 1086.68 C 1332.25 1068.41 1333.6 1049.77 1333.67 1031.47 C 1333.72 1018.08 1331.16 1001.63 1334.07 988.657 z"/>
<path transform="translate(0,0)" fill="rgb(240,230,213)" d="M 1568.99 868.815 C 1568.68 856.948 1566.08 771.088 1569.39 766.281 C 1571.14 767.095 1571.29 767.358 1571.92 769.158 C 1574.59 776.773 1573.23 881.025 1571.89 894.349 C 1571.92 894.624 1571.95 894.898 1571.97 895.173 C 1572.35 901.392 1571.96 932.18 1568.36 936.305 C 1564.65 927.813 1568.52 881.473 1568.99 868.815 z"/>
<path transform="translate(0,0)" fill="rgb(240,230,213)" d="M 1234.9 910.837 C 1235.38 939.717 1230.86 968.933 1228.51 997.694 C 1225.65 1032.79 1224.24 1068.16 1220.77 1103.19 C 1220.59 1105.01 1220.36 1106.19 1219.27 1107.72 C 1218.16 1109.26 1215.98 1109.17 1214.2 1109.52 C 1210.65 1102.21 1217.09 1072.06 1218.36 1063.22 C 1222.78 1032.48 1225.48 1001.86 1228.18 970.952 C 1229.92 951.035 1230.85 930.416 1234.9 910.837 z"/>
<path transform="translate(0,0)" fill="rgb(240,230,213)" d="M 1177.38 868.417 C 1178.43 887.744 1175.21 906.713 1172.31 925.751 C 1162.82 976.466 1160.13 1028.53 1146.18 1078.48 C 1145.13 1059.87 1152.96 1029.8 1156.04 1010.41 C 1160.65 981.376 1164.28 952.135 1168.39 923.021 C 1171.03 904.991 1172.76 886.034 1177.38 868.417 z"/>
<path transform="translate(0,0)" fill="rgb(240,230,213)" d="M 1043.48 368.771 L 1044.11 369.691 C 1045.23 376.044 1042.26 385.416 1040.87 391.707 A 684.215 684.215 0 0 1 1022.91 458.006 C 1016.8 476.216 1009.48 494.027 1003.98 512.438 C 1003.82 512.134 1003.65 511.84 1003.51 511.526 C 1001.53 506.907 1001.44 501.988 1002.53 497.158 C 1005.87 482.371 1013.69 468.008 1018.36 453.475 C 1027.34 425.475 1033.36 396.41 1043.48 368.771 z"/>
<path transform="translate(0,0)" fill="rgb(240,230,213)" d="M 1169.45 407.306 C 1171.28 408.163 1171.58 408.569 1172.78 410.105 C 1174.4 419.278 1172.24 429.269 1170.71 438.357 A 436.183 436.183 0 0 1 1131 559.117 L 1129.58 559.567 C 1127.75 555.231 1138.65 534.599 1140.64 528.583 C 1153.92 488.332 1162.71 449.036 1169.45 407.306 z"/>
<path transform="translate(0,0)" fill="rgb(240,230,213)" d="M 1281.39 933.688 C 1283.65 941.265 1282.2 952.765 1282.41 960.859 C 1283.17 990.462 1286.01 1090.65 1274.24 1115.84 C 1273.28 1115.01 1272.28 1114.5 1271.93 1113.22 C 1271.07 1110.15 1276.73 1070.14 1277.25 1062.69 C 1278.75 1040.85 1275.67 945.588 1281.39 933.688 z"/>
<path transform="translate(0,0)" fill="rgb(240,230,213)" d="M 728.734 462.614 C 729.486 463.147 729.941 463.879 730.5 464.603 C 729.729 472.912 724.391 480.893 720.458 488.084 C 708.319 510.279 695.023 532.085 683.763 554.725 C 674.748 572.851 662.033 605.361 651.197 620.479 C 649.784 619.353 649.081 618.516 648.225 616.925 C 660.422 580.727 682.837 547.313 701.638 514.344 C 711.305 497.392 719.651 479.861 728.734 462.614 z"/>
<path transform="translate(0,0)" fill="url(#Gradient1)" d="M 1549.27 751.478 C 1550.36 752.106 1551.44 752.885 1552.19 753.925 C 1558.89 763.322 1552.48 921.459 1548.1 944.805 L 1546.5 947.302 C 1544.93 943.001 1547.25 925.839 1547.42 920.408 C 1549.2 864.172 1548.04 807.761 1549.27 751.478 z"/>
<path transform="translate(0,0)" fill="rgb(240,230,213)" d="M 824.611 537.68 L 825.733 539.039 C 825.103 546.429 820.831 555.122 818.319 562.153 C 809.082 588.007 798.812 613.37 788.985 638.993 C 779.95 662.548 771.961 686.82 761.986 709.974 C 760.487 713.453 758.988 716.433 756.524 719.352 C 755.729 718.073 754.515 716.448 754.247 714.941 C 753.344 709.874 817.073 552.719 824.611 537.68 z"/>
<path transform="translate(0,0)" fill="rgb(240,230,213)" d="M 1149.69 384.738 C 1152.56 387.557 1154.89 391.031 1157.31 394.235 C 1152.43 426.846 1143.13 457.058 1133.49 488.498 C 1125.05 516.026 1116.5 543.738 1105.97 570.554 C 1105.42 572.086 1105.85 571.296 1104.48 572.8 C 1107.62 555.481 1114.53 538.343 1119.44 521.401 C 1123.88 506.052 1127.55 490.352 1131.57 474.879 C 1139.3 445.124 1147.21 415.489 1149.69 384.738 z"/>
<path transform="translate(0,0)" fill="rgb(240,230,213)" d="M 1453.55 681.265 L 1455.68 683.137 C 1461.23 700.967 1460.87 757.507 1461.63 778.709 C 1463.24 823.434 1466.64 867.702 1465.25 912.496 C 1463.13 909.041 1462.98 904.806 1462.62 900.855 C 1461.1 883.678 1461.02 866.267 1460.21 849.036 A 5085.05 5085.05 0 0 1 1455.68 747.322 C 1455 728.51 1451.7 698.995 1453.55 681.265 z"/>
<path transform="translate(0,0)" fill="rgb(240,230,213)" d="M 799.544 509.768 L 800.555 511.253 C 799.722 524.83 730.826 672.614 721.223 685.301 C 720.362 683.813 719.814 682.544 719.218 680.947 C 727.622 659.657 738.289 638.798 747.911 618.004 A 2780.01 2780.01 0 0 1 799.544 509.768 z"/>
<path transform="translate(0,0)" fill="rgb(240,230,213)" d="M 776.533 461.978 C 776.522 462.443 776.578 462.916 776.499 463.375 C 772.868 484.513 692.964 650.612 684.838 655.565 L 682.949 652.411 C 682.751 646.62 734.438 548.711 741.777 533.765 C 753.353 510.19 763.327 484.598 776.533 461.978 z"/>
<path transform="translate(0,0)" fill="rgb(240,230,213)" d="M 794.375 475.782 C 794.431 476.068 794.528 476.349 794.543 476.64 C 794.853 482.459 712.726 658.811 703.893 670.028 L 702.654 669.734 L 702.08 670.658 L 700.298 666.958 C 700.588 663.471 702.321 660.289 703.802 657.163 C 713.808 636.036 725.261 615.496 735.53 594.463 C 749.945 564.936 763.342 534.902 778.138 505.563 A 437.402 437.402 0 0 1 794.375 475.782 z"/>
<path transform="translate(0,0)" fill="rgb(240,230,213)" d="M 1071.46 543.909 C 1078.18 521.673 1082.22 499.162 1087.2 476.533 C 1091.88 455.291 1097.37 434.224 1102.12 412.996 C 1104.72 401.406 1106.26 388.924 1109.62 377.594 C 1110.26 375.428 1110.66 374.459 1112.16 372.738 L 1113.3 373.516 C 1115.17 388.64 1096.13 459.59 1091.55 479.078 C 1086.13 502.154 1082.05 525.446 1074.92 548.102 C 1069.64 562.3 1064.59 576.715 1058.63 590.647 C 1056.71 595.152 1054.12 601.45 1049.4 603.336 C 1049.16 602.827 1048.73 602.37 1048.68 601.811 C 1048.51 600.086 1068.97 550.98 1071.46 543.909 z"/>
<path transform="translate(0,0)" fill="rgb(240,230,213)" d="M 895.341 596.685 C 895.457 597.251 895.679 598.158 895.698 598.783 C 896.09 611.723 850.508 756.896 843.259 765.277 C 843.04 764.752 842.803 764.234 842.601 763.702 C 837.704 750.805 886.288 616.767 895.341 596.685 z"/>
<path transform="translate(0,0)" fill="rgb(240,230,213)" d="M 1482.28 692.511 L 1483.85 693.31 C 1494.82 709.789 1491.4 857.406 1490.85 888.234 C 1490.5 908.165 1492.22 932.655 1488.38 951.981 C 1486.44 936.125 1486.95 919.972 1486.83 904.018 L 1486.88 809.906 C 1486.56 770.714 1482.82 731.621 1482.28 692.511 z"/>
<path transform="translate(0,0)" fill="rgb(240,230,213)" d="M 918.46 592.612 C 919.127 593.205 919.709 594.23 920.232 594.962 C 920.434 602.115 917.754 609.908 915.783 616.724 C 907.732 644.553 897.658 671.76 890.05 699.746 C 885.648 715.937 884.439 732.668 879.509 748.801 C 876.066 760.068 871.706 776.13 864.524 785.23 C 864.259 784.764 863.94 784.325 863.729 783.832 C 860.861 777.125 909.825 608.434 918.46 592.612 z"/>
<path transform="translate(0,0)" fill="rgb(240,230,213)" d="M 1214.03 890.571 C 1214.27 891.146 1214.56 891.702 1214.73 892.298 C 1216.59 898.563 1214.63 909.618 1214.28 916.363 C 1212.56 948.826 1202.34 1079.76 1188.27 1102.7 C 1188.1 1102.37 1187.9 1102.06 1187.76 1101.71 C 1184.32 1092.85 1193.58 1049.9 1195.3 1038.4 A 2421.2 2421.2 0 0 0 1206.62 949.983 C 1208.33 934.248 1209.29 904.173 1214.03 890.571 z"/>
<path transform="translate(0,0)" fill="rgb(240,230,213)" d="M 810.176 515.652 C 811.091 517.411 811.774 519.228 812.502 521.071 C 807.522 538.445 799.564 555.823 793.249 572.859 A 1720.84 1720.84 0 0 1 761.022 654.885 C 754.481 670.668 748.267 686.912 740.205 701.991 C 738.505 701.425 738.723 701.041 737.899 699.539 C 739.538 680.978 760.778 640.184 768.256 621.102 C 781.457 587.415 793.194 546.858 810.176 515.652 z"/>
<path transform="translate(0,0)" fill="rgb(240,230,213)" d="M 764.567 452.761 L 764.767 454.989 C 760.78 465.237 754.431 475.195 749.224 484.918 A 4426.72 4426.72 0 0 0 723.792 533.435 L 679.563 619.549 C 677.017 624.429 673.227 634.618 669.616 638.437 C 669.132 638.948 668.393 639.134 667.782 639.483 L 665.796 635.509 C 667.941 611.189 746.347 479.918 764.567 452.761 z"/>
<path transform="translate(0,0)" fill="rgb(240,230,213)" d="M 1130.85 373.931 C 1132.56 374.347 1133.93 374.823 1135.54 375.48 C 1138.11 385.946 1131.12 409.257 1128.76 420.122 C 1124.72 438.732 1121.45 457.573 1116.98 476.079 C 1108.3 511.99 1095.8 548.692 1079.84 582.044 C 1079.32 582.759 1079.68 582.465 1078.65 582.765 C 1080.2 573.755 1085.34 564.187 1088.14 555.339 C 1094.83 534.146 1100.67 512.373 1106.05 490.818 C 1112.54 464.866 1117.48 438.508 1122.65 412.268 C 1125.12 399.747 1126.57 385.906 1130.85 373.931 z"/>
<path transform="translate(0,0)" fill="rgb(240,230,213)" d="M 1400.02 619.317 L 1402.82 621.082 C 1412.96 639.168 1398.01 815.144 1395.7 844.676 L 1394.61 845.509 L 1392.99 844.882 C 1389.83 838.203 1393.73 795.914 1394.2 785.829 C 1395.55 757.396 1398.63 728.885 1399.09 700.426 C 1399.37 683.298 1399.08 666.135 1399.04 649.004 C 1399.02 639.353 1398.29 628.818 1400.02 619.317 z"/>
<path transform="translate(0,0)" fill="rgb(240,230,213)" d="M 1432.59 645.545 C 1432.93 645.849 1433.3 646.123 1433.62 646.458 C 1448.2 662.053 1443.58 855.136 1443.01 888.847 C 1441.93 888.414 1440.68 888.194 1439.97 887.211 C 1436.17 881.968 1438.07 801.598 1438.06 787.05 C 1438.05 763.804 1438.18 740.537 1436.84 717.32 C 1435.86 700.295 1430.3 659.553 1432.59 645.545 z"/>
<path transform="translate(0,0)" fill="rgb(240,230,213)" d="M 1192.38 867.799 L 1193.54 869.413 C 1197.66 892.698 1184.28 969.635 1180.96 996.254 C 1177.79 1021.56 1176.19 1047.31 1171.52 1072.38 C 1169.88 1081.17 1168.14 1090.59 1163.51 1098.35 C 1162.83 1097.72 1162.55 1096.94 1162.13 1096.12 C 1162.33 1084.19 1164.57 1071.81 1166.12 1059.95 C 1169.78 1031.98 1174.48 1004.16 1178.21 976.199 C 1182.47 944.21 1181.82 897.473 1192.38 867.799 z"/>
<path transform="translate(0,0)" fill="rgb(240,230,213)" d="M 1503.57 717.315 L 1506.26 719.103 C 1511.33 731.897 1509.91 766.946 1510.17 782.5 C 1510.97 830.143 1511.64 877.423 1509.63 925.059 C 1508.84 943.566 1508.39 962.383 1505.86 980.745 C 1505.37 981.12 1504.73 981.231 1504.16 981.445 C 1501.34 970.66 1504.83 908.264 1504.93 891.863 A 3755.45 3755.45 0 0 0 1504.54 782.953 C 1504.16 765.382 1501.33 733.244 1503.57 717.315 z"/>
<path transform="translate(0,0)" fill="rgb(240,230,213)" d="M 843.417 1223.57 C 844.787 1224.37 845.798 1224.84 846.637 1226.25 C 848.808 1229.9 837.794 1242.76 835.286 1246.14 C 803.787 1288.56 787.983 1350.59 776.173 1401.78 L 775.219 1403.66 C 774.996 1403.11 774.661 1402.6 774.552 1402.02 C 773.156 1394.61 775.848 1382.8 776.809 1375.01 C 779.289 1354.93 783.458 1334.07 790.208 1314.96 C 801.091 1284.16 822.918 1249.17 843.417 1223.57 z"/>
<path transform="translate(0,0)" fill="rgb(240,230,213)" d="M 712.535 1098.76 L 713.63 1100.07 C 714.095 1107.18 688.217 1146.04 683.79 1156.47 C 669.486 1190.15 659.628 1225.47 650.707 1260.91 C 647.246 1274.66 643.177 1288.86 641.418 1302.95 C 640.18 1301.68 640.247 1300.26 640.295 1298.54 A 345.312 345.312 0 0 1 685.001 1136.52 C 692.67 1123.09 701.138 1109.37 712.535 1098.76 z"/>
<path transform="translate(0,0)" fill="rgb(240,230,213)" d="M 581.109 962.792 C 582.235 963.825 583.944 965.123 584.735 966.409 C 587.479 970.87 576.222 982.248 573.475 986.558 C 543.351 1033.82 526.147 1106.82 515.932 1161.82 L 515.44 1163.33 C 515.179 1162.72 514.815 1162.14 514.658 1161.49 C 512.747 1153.66 515.94 1134.18 517.022 1125.51 C 524.386 1066.47 543.057 1009.58 581.109 962.792 z"/>
<path transform="translate(0,0)" fill="rgb(240,230,213)" d="M 1257.95 1227.53 C 1258.68 1227.96 1259.61 1228.16 1260.14 1228.82 C 1262.39 1231.63 1263.75 1255.52 1265.28 1261.35 C 1246.63 1269.05 1228.41 1278.84 1210.32 1287.84 C 1201.79 1292.08 1191.87 1298.96 1182.56 1300.83 C 1180.9 1298.74 1180.82 1297.27 1180.83 1294.67 C 1180.87 1287.52 1182.55 1272.65 1188.34 1268.11 C 1190.24 1266.63 1191.2 1266.75 1193.33 1267.16 C 1194.82 1271.26 1193.79 1276.92 1193.54 1281.25 C 1193.66 1282.83 1194.14 1283.82 1194.75 1285.27 L 1196.43 1285.89 C 1204.7 1280.12 1200.49 1265.53 1207.6 1259.64 L 1208.57 1260.14 C 1210.16 1266.83 1210 1274.03 1210.25 1280.9 C 1214.26 1273.66 1216.16 1260.95 1220.4 1255.32 C 1221.65 1255.91 1222.81 1262.46 1223.95 1264.35 L 1226.65 1263.1 L 1225.62 1264.13 C 1228.43 1260.78 1230.66 1257.48 1231.36 1253.07 C 1231.46 1252.4 1231.54 1251.73 1231.64 1251.06 A 234.229 234.229 0 0 0 1236.69 1260.52 L 1238.22 1260.5 C 1244.13 1255.13 1242.71 1247.99 1243.77 1240.65 L 1244.81 1240.27 C 1246.69 1244.83 1246.49 1249.48 1246.62 1254.35 C 1250.13 1245.45 1253 1235.73 1257.95 1227.53 z"/>
<path transform="translate(0,0)" fill="rgb(240,230,213)" d="M 458.353 839.53 C 459.96 839.973 461.269 840.766 462.735 841.545 C 463.1 842.258 463.765 842.885 463.83 843.683 C 464.027 846.113 455.631 856.868 454.036 859.253 C 415.181 917.36 398.058 988.547 387.423 1056.75 C 386.632 1058.82 387.297 1058.31 386.149 1058.92 C 384.665 1049.02 386.54 1036.97 387.061 1026.9 C 390.744 955.708 417.618 896.999 458.353 839.53 z"/>
<path transform="translate(0,0)" fill="rgb(240,230,213)" d="M 1157.47 1434.88 C 1161.7 1434.91 1169.22 1439.86 1173.85 1441.25 A 3839.29 3839.29 0 0 1 1030.48 1509.72 L 1017.96 1517.19 C 1018.99 1511.4 1020.38 1505.67 1021.67 1499.93 C 1032.34 1493.79 1044.14 1489 1055.16 1483.38 C 1088.67 1466.27 1122.59 1449.04 1157.47 1434.88 z"/>
<path transform="translate(0,0)" fill="rgb(240,230,213)" d="M 1188.49 1446.13 C 1193.17 1446.39 1199.59 1446.76 1203.87 1448.75 C 1205.74 1449.62 1205.17 1449.05 1205.84 1450.84 C 1201.74 1454.66 1186.6 1460.48 1180.69 1463.35 A 4022.94 4022.94 0 0 1 1029.59 1533.1 C 1024.97 1535.24 1019.64 1538.65 1014.48 1537 C 1013.74 1535.22 1013.52 1535.74 1014.24 1534.2 C 1016.2 1530.02 1020.33 1526.93 1024.21 1524.64 C 1029.62 1521.43 1035.73 1519.36 1041.41 1516.68 C 1049.77 1512.73 1057.99 1508.42 1066.24 1504.26 C 1091.79 1491.35 1117.52 1479.11 1143.39 1466.86 C 1158.29 1459.81 1173.15 1452.15 1188.49 1446.13 z"/>
<path transform="translate(0,0)" fill="rgb(240,230,213)" d="M 1242.91 1482.01 C 1245.58 1484.6 1246.86 1488.78 1248.31 1492.16 C 1233.51 1499.88 1217.92 1506.52 1202.83 1513.68 A 8322.26 8322.26 0 0 1 1097.56 1563.05 C 1068.86 1576.34 1039.81 1589.37 1011.85 1604.12 L 1009.51 1605.06 L 1008.32 1604.43 C 1008.03 1602.37 1007.6 1600.14 1008.39 1598.14 C 1009.09 1596.36 1010.48 1595.02 1012.04 1594 C 1034.36 1579.26 1067.58 1565.73 1092.31 1553.6 A 7916.18 7916.18 0 0 1 1174.93 1513.57 C 1197.44 1502.7 1219.77 1491.51 1242.91 1482.01 z"/>
<path transform="translate(0,0)" fill="rgb(240,230,213)" d="M 388.419 518.585 C 421.007 551.811 454.883 583.473 488.341 615.782 L 622.913 745.957 C 641.774 764.001 661.675 780.911 680.837 798.627 C 689.838 806.948 700.188 815.644 707.572 825.397 C 707.296 828.429 705.79 829.692 703.99 832.097 C 625.028 760.166 549.444 685.266 473.538 610.186 A 2882.65 2882.65 0 0 0 417.544 556.07 C 406.345 545.43 394.342 535.142 384.085 523.613 C 384.73 521.172 386.559 520.219 388.419 518.585 z"/>
<path transform="translate(0,0)" fill="rgb(240,230,213)" d="M 1594.4 1122.93 L 1595.18 1123.09 L 1595.12 1123.96 C 1584.09 1131.4 1571.77 1137.22 1560.2 1143.81 C 1514.84 1169.61 1468.12 1192.87 1421.8 1216.89 A 10068.4 10068.4 0 0 1 1161.32 1346.73 C 1142.84 1355.81 1125.03 1366.22 1106.73 1375.66 C 1089.97 1384.31 1072.62 1392.01 1055.52 1399.97 L 1054.21 1399.4 C 1054.14 1396.05 1056.07 1392.46 1057.33 1389.37 C 1091.88 1370.76 1128.67 1355.78 1164.43 1339.66 C 1194.39 1326.15 1223.89 1311.21 1253.32 1296.54 C 1367.46 1239.67 1479.48 1178.25 1594.4 1122.93 z"/>
<path transform="translate(0,0)" fill="rgb(240,230,213)" d="M 969.448 1515.74 C 970.744 1527.26 965.838 1560.79 964.678 1574.69 C 961.602 1611.56 956.544 1722.29 981.578 1750.29 C 987.639 1757.08 995.576 1758.9 1004.33 1757.25 C 1023.32 1753.7 1042.34 1740.02 1059.56 1731.53 C 1079.79 1721.55 1258.59 1631.58 1261.08 1631.78 C 1262.28 1634.68 1261.84 1637.47 1261.63 1640.52 C 1241.75 1649.52 1222.71 1660.3 1203.1 1669.86 C 1170.52 1685.73 1137.49 1700.8 1105.3 1717.46 C 1074.23 1733.55 1043.12 1753.16 1009.74 1764.13 C 1003.46 1766.2 996.469 1767.2 989.997 1765.41 C 981.884 1763.16 976.368 1756.81 972.443 1749.68 C 947.099 1703.6 955.008 1565.24 969.448 1515.74 z"/>
<path transform="translate(0,0)" fill="rgb(240,230,213)" d="M 1866.23 1282.58 C 1867.86 1282.98 1868.31 1283.3 1869.6 1284.29 C 1870 1285.87 1870.19 1286.94 1869.67 1288.56 C 1868.39 1292.52 1864.97 1296.11 1861.59 1298.39 C 1846.54 1308.55 1827.56 1315.61 1811.16 1323.79 L 1706.34 1376.61 L 1512.39 1475.56 L 1447.25 1509.95 C 1434.75 1516.57 1422.24 1523.88 1409.26 1529.45 C 1408.09 1528.24 1407 1526.74 1406.54 1525.08 C 1405.9 1522.79 1406.86 1521.62 1408.49 1520.17 C 1416.38 1513.12 1446.61 1499.88 1458.1 1494.05 L 1736.56 1353.17 L 1813.5 1314.95 C 1827.04 1308.38 1841.71 1302.57 1854.59 1294.86 C 1859.7 1291.8 1862.75 1287.28 1866.23 1282.58 z"/>
<path transform="translate(0,0)" fill="rgb(240,230,213)" d="M 837.011 955.573 C 842.855 957.186 848.22 963.082 852.74 967.077 C 879.878 991.06 905.726 1016.32 932.475 1040.7 L 1096.96 1190.61 L 1142.87 1233.38 C 1151.16 1241.01 1163.03 1249.2 1169.38 1258.48 C 1170.97 1260.81 1170.81 1261.14 1170.32 1263.78 C 1168.57 1263.65 1167.09 1263.53 1165.54 1262.56 C 1154.42 1255.58 1133.92 1235.34 1122.41 1225.67 A 4975.56 4975.56 0 0 1 935.302 1057.43 C 916.832 1039.98 899.444 1021.41 881.086 1003.85 C 868.271 991.587 853.663 979.773 841.933 966.548 C 838.781 962.994 836.781 960.434 837.011 955.573 z"/>
<path transform="translate(0,0)" fill="rgb(240,230,213)" d="M 1362.73 713.813 C 1367.31 714.415 1376.36 717.402 1379.37 721.149 C 1373.77 728.946 1120.55 860.647 1085.8 879.463 C 1083.74 880.341 1082.51 880.505 1080.28 880.405 C 1075.89 878.536 1073.27 874.708 1070.25 871.162 C 1078.42 865.451 1088.37 861.312 1097.3 856.852 A 1150.92 1150.92 0 0 0 1138.17 835.766 C 1213.01 795.288 1289.74 757.593 1362.73 713.813 z"/>
<path transform="translate(0,0)" fill="rgb(240,230,213)" d="M 1320.49 686.897 C 1325.55 688.098 1330.73 692.84 1334.9 695.878 L 1029.2 857.544 C 1026.55 858.375 1024.81 858.746 1021.98 858.621 C 1018.55 857.026 1016.85 853.368 1014.92 850.268 C 1025.79 842.757 1038.27 837.066 1049.93 830.864 L 1114.04 796.723 L 1240.25 729.993 C 1267.05 715.711 1293.5 700.839 1320.49 686.897 z"/>
<path transform="translate(0,0)" fill="rgb(240,230,213)" d="M 1220.24 1456.33 C 1227.07 1461.63 1232.77 1467.08 1238.06 1473.94 C 1165.53 1508.32 1091.91 1540.12 1020.31 1576.51 L 1008.74 1582.49 C 1009.09 1574.65 1010.4 1566.73 1011.36 1558.93 C 1030.9 1548.11 1051.63 1539.14 1071.71 1529.31 C 1101.79 1514.59 1131.61 1499.42 1161.83 1484.95 C 1181.35 1475.6 1201.32 1466.84 1220.24 1456.33 z"/>
<path transform="translate(0,0)" fill="rgb(240,230,213)" d="M 1222.92 533.213 C 1226.19 536.719 1228.73 542.294 1231.24 546.48 C 1180.68 571.459 1131.46 598.933 1081.93 625.855 L 990.407 674.439 C 964.291 688.296 938.5 703.837 911.682 716.217 C 911.441 716.198 911.189 716.231 910.957 716.16 C 908.504 715.399 906.771 712.82 905.643 710.61 C 904.47 708.31 904.952 706.702 905.603 704.36 C 915.686 694.837 961.073 673.83 975.952 666.167 L 1055.46 624.325 C 1111.63 594.671 1166.76 562.924 1222.92 533.213 z"/>
<path transform="translate(0,0)" fill="rgb(240,230,213)" d="M 1247.14 571.835 C 1251.4 572.203 1258.26 577.453 1262.09 579.758 C 1249.09 587.4 1235.25 593.967 1221.97 601.148 L 1130.34 650.823 C 1064.26 686.72 998.516 723.954 931.375 757.81 C 929.542 758.735 928.652 759.01 926.596 758.844 C 922.833 757.021 920.908 753.603 918.539 750.293 C 931.302 741.391 945.561 734.334 959.253 726.976 L 1019.9 694.431 C 1095.58 653.534 1171.98 613.692 1247.14 571.835 z"/>
<path transform="translate(0,0)" fill="rgb(240,230,213)" d="M 1319.73 637.868 C 1324.16 638.639 1331.04 640.93 1334.03 644.326 C 1331.36 648.617 1324.26 651.752 1319.85 654.168 C 1292.62 669.067 1264.41 682.374 1236.81 696.596 A 9530.72 9530.72 0 0 0 1063.91 788.671 C 1038.89 802.309 1013.29 815.074 988.726 829.513 C 986.381 831.924 985.749 832.986 982.339 833.292 C 980.632 832.473 979.475 832.256 978.369 830.627 C 976.789 828.299 976.441 825.935 977.337 823.234 C 977.991 821.264 979.109 819.669 980.784 818.471 C 989.822 812.007 1000.82 807.023 1010.63 801.709 L 1067.44 770.959 C 1112.21 746.811 1156.94 722.399 1202.12 699.044 C 1241.3 678.784 1281.29 659.496 1319.73 637.868 z"/>
<path transform="translate(0,0)" fill="rgb(240,230,213)" d="M 1300.93 595.948 C 1304.82 597.574 1309.98 600 1311.73 604.051 C 1310.46 606.506 1308.68 607.241 1306.34 608.572 C 1284.62 620.94 1261.93 631.993 1239.89 643.829 L 1045.3 747.628 C 1010.72 766.265 975.786 784.207 942.505 805.119 C 940.454 806.194 940.67 806.398 938.189 806.125 C 934.834 802.494 933.739 796.787 932.245 792.146 C 947.932 783.404 964.341 775.95 980.15 767.413 A 17186.9 17186.9 0 0 1 1133.82 684.228 L 1237 629.749 C 1258.26 618.47 1279.19 606.283 1300.93 595.948 z"/>
<path transform="translate(0,0)" fill="rgb(240,230,213)" d="M 1298.22 1369.66 C 1310.33 1370.52 1326.29 1382.54 1335.54 1389.82 C 1396.61 1437.89 1378.54 1518.56 1387.14 1586.01 C 1396.58 1660.05 1429.9 1701.68 1487.04 1746.05 C 1466.67 1746.41 1445.17 1742.73 1425.23 1738.62 C 1416.99 1736.92 1406.92 1733.53 1398.59 1733.37 C 1395.62 1733.31 1393.32 1736.19 1391.34 1738.13 C 1364.28 1714.83 1345.74 1676.84 1337.72 1642.57 C 1350.55 1672.74 1363.25 1696.24 1389.52 1716.73 C 1395.27 1720.77 1401 1724.86 1407.16 1728.25 C 1410 1729.81 1413.17 1731.76 1416.47 1730.79 L 1416.86 1729.15 C 1383 1700.22 1359.79 1658.75 1354.58 1614.27 C 1360.55 1632.84 1365.9 1652.64 1375.49 1669.73 C 1390.14 1695.83 1418.49 1721.19 1447.62 1729.34 C 1393.99 1687.48 1369.41 1630.35 1367.86 1562.94 C 1367.31 1538.66 1370.21 1514.51 1366.78 1490.36 C 1365.4 1480.63 1367.86 1471.15 1366.56 1461.56 C 1362.52 1431.8 1341.69 1406.47 1317.4 1390.21 C 1310.01 1385.27 1301.15 1381.89 1294.24 1376.43 C 1294.65 1373.54 1296.47 1371.95 1298.22 1369.66 z"/>
<path transform="translate(0,0)" fill="rgb(240,230,213)" d="M 236.449 615.504 C 247.666 620.3 258.322 635.833 266.168 645.093 A 860.824 860.824 0 0 0 258.594 656.729 C 246.087 676.327 233.993 696.837 224.625 718.136 C 215.381 739.149 209.147 760.736 203.636 782.97 C 186.518 852.042 185.641 918.923 200.942 988.476 C 201.692 990.819 202.214 992.254 202.086 994.776 C 201.605 994.389 201.069 994.063 200.644 993.615 C 197.848 990.669 195.673 984.345 193.931 980.587 C 179.077 948.543 173.063 914.26 170.98 879.207 C 166.322 800.816 184.02 727.763 215.711 656.359 C 221.521 643.268 226.902 626.236 236.449 615.504 z"/>
<path transform="translate(0,0)" fill="rgb(240,230,213)" d="M 976.014 1354.5 C 983.432 1358.47 990.874 1367.68 997.035 1373.6 C 991.413 1388.8 982.614 1402.82 976.177 1417.73 C 940.703 1499.88 929.594 1587.78 934.184 1676.64 C 935.165 1695.64 934.986 1718.38 942.218 1736.11 C 942.357 1736.45 942.504 1736.79 942.647 1737.13 L 941.918 1737.89 L 939.296 1735.75 C 921.471 1717.03 912.695 1706.68 907.722 1680.47 C 900.951 1644.76 901.562 1606.46 904.966 1570.38 C 912.25 1493.17 932.024 1419.31 976.014 1354.5 z"/>
<path transform="translate(0,0)" fill="rgb(240,230,213)" d="M 1250.42 1503.87 L 1251.4 1504.15 C 1257.09 1509.67 1260.34 1553.48 1261.16 1564.47 C 1233.55 1580.59 1203.21 1592.93 1174.55 1607.14 C 1121.92 1633.23 1069.85 1660.4 1015.95 1683.87 L 1012.57 1668.1 C 1038.61 1656.6 1063.78 1642.86 1089 1629.67 L 1188.16 1578.02 C 1201.13 1571.28 1228.52 1561.12 1237.76 1551.83 L 1237.48 1550.87 C 1224.77 1551.5 1113.35 1607.18 1092.04 1617.03 C 1065.05 1628.41 1038.94 1643.74 1011.09 1652.75 L 1009.71 1652.02 L 1009.12 1649.86 C 1010.82 1645.61 1013.69 1643.46 1017.48 1641.02 C 1032.06 1631.68 1049.72 1624.84 1065.4 1617.29 C 1105.95 1597.75 1147.37 1579.59 1187.18 1558.59 C 1173.39 1561.46 1160.66 1567.92 1147.79 1573.45 A 2360.77 2360.77 0 0 0 1099.03 1594.76 C 1069.06 1608.19 1038.82 1620.83 1009.16 1634.94 C 1008.5 1629.37 1008.49 1623.68 1008.28 1618.07 C 1030.13 1610.08 1051.34 1598.68 1072.37 1588.71 L 1190.9 1531.68 C 1210.67 1522.24 1230.21 1512.35 1250.42 1503.87 z"/>
<path transform="translate(0,0)" fill="rgb(240,230,213)" d="M 1282.2 1409.5 C 1299.15 1421.4 1315.44 1439.26 1327.27 1456.08 C 1330.64 1460.88 1337.34 1476.75 1340.29 1478.7 C 1342.39 1476.16 1341.82 1470.71 1341.51 1467.59 C 1338.58 1438.01 1313.33 1411.12 1290.81 1394.06 C 1285.39 1389.96 1277.79 1390.33 1272.34 1386.4 C 1273.68 1384.57 1274.14 1384.38 1276.46 1384.16 C 1284.34 1383.42 1319.31 1410.61 1326.29 1417.82 C 1341.72 1433.74 1361.05 1465.85 1360.92 1488.51 C 1360.85 1500.2 1355.37 1511.91 1353.37 1523.38 C 1349.73 1544.26 1348.99 1565.92 1348.38 1587.08 C 1346.1 1571.37 1345.08 1555.86 1344.98 1539.99 C 1344.91 1530.45 1347.81 1497.61 1346.26 1492.31 L 1344.69 1491.35 C 1342.09 1495.09 1341.15 1500.83 1339.96 1505.24 C 1332.32 1533.61 1331.68 1556.03 1328.98 1584.56 C 1326.98 1570.55 1326.27 1556.33 1325.71 1542.2 C 1325.19 1529.23 1326.05 1515.6 1322.06 1503.15 C 1321.89 1502.62 1321.73 1502.1 1321.57 1501.57 L 1321.27 1500.63 C 1316.69 1513.96 1315.29 1529.57 1313.54 1543.55 C 1306.43 1600.27 1304.49 1662.86 1330.08 1715.48 C 1339.91 1735.69 1355.32 1758.66 1375.18 1770.19 C 1358.19 1737.61 1337.84 1708.13 1329.25 1671.86 C 1343.52 1699.83 1353.33 1727.22 1386.02 1737.85 C 1387.75 1738.42 1389.53 1738.85 1391.31 1739.24 C 1380.63 1768.67 1378.75 1786.74 1379.97 1818.02 A 203.576 203.576 0 0 1 1291.82 1687.4 A 451.141 451.141 0 0 1 1283.32 1613.46 C 1281.4 1546.46 1291.17 1475.45 1226.97 1433.42 C 1217.86 1427.46 1207.95 1422.41 1197.03 1421.03 C 1201.59 1418.23 1206.09 1415.36 1210.91 1413 A 143.321 143.321 0 0 1 1290.72 1486.26 L 1296.42 1498.85 C 1299.59 1477.35 1289.29 1458.07 1276.8 1441.17 C 1268.73 1430.26 1259.14 1421.63 1248.48 1413.31 C 1244.59 1410.26 1238.06 1407.01 1235.21 1403.12 C 1241.25 1404.4 1246.61 1408.28 1251.74 1411.58 C 1271.28 1424.18 1283.89 1438.53 1296.58 1458.01 C 1303.54 1468.7 1308.71 1479.83 1313.86 1491.47 L 1315.5 1491.52 C 1318.77 1486.74 1317.81 1479.93 1316.84 1474.54 C 1312.45 1450.04 1296.27 1428.29 1278.28 1411.88 L 1282.2 1409.5 z"/>
<path transform="translate(0,0)" fill="rgb(68,43,25)" d="M 1301.98 1515.24 L 1303.98 1516.01 C 1308.89 1521 1306.58 1546.19 1306.38 1553.14 C 1305.07 1596.93 1300.72 1642.14 1312.53 1684.86 C 1320.84 1714.91 1333.79 1739.73 1351.55 1765.22 C 1354.5 1769.44 1362 1778.24 1362.15 1783.3 L 1360.48 1782.76 C 1345.34 1771.18 1334.43 1756.03 1324.43 1739.99 C 1290.82 1686.11 1292.33 1625.59 1296.98 1564.76 C 1298.21 1548.63 1298.3 1530.94 1301.98 1515.24 z"/>
<path transform="translate(0,0)" fill="rgb(240,230,213)" d="M 1292.26 839.373 C 1320.95 839.972 1347.23 847.6 1372.44 861.165 C 1409.99 881.358 1443.53 914.83 1455.68 956.676 C 1459.31 969.183 1464.29 996.342 1457.28 1008.03 C 1455.36 1011.24 1453.16 1011.67 1449.78 1012.43 C 1421.58 1009.81 1395.81 1000.96 1370.58 988.464 C 1331.44 969.071 1300.68 935.867 1286.87 893.954 C 1283.14 882.617 1275.46 854.419 1282.28 843.883 C 1284.7 840.148 1288.23 840.005 1292.26 839.373 z"/>
<path transform="translate(0,0)" fill="rgb(68,43,25)" d="M 1291.72 851.873 C 1292.5 851.824 1293.29 851.768 1294.08 851.755 C 1331.77 851.156 1375.73 874.078 1402.21 899.807 C 1428.15 925.008 1445.24 959.133 1445.61 995.575 C 1415.54 994.866 1374.53 976.513 1350.86 958.271 C 1321.91 935.957 1306.09 907.726 1296.89 873.014 C 1295.04 866.031 1292.63 859.05 1291.72 851.873 z"/>
<path transform="translate(0,0)" fill="rgb(240,230,213)" d="M 1318.16 871.444 C 1333.69 878.027 1350.3 882.793 1362.14 895.401 L 1360.82 896.356 L 1355.86 892.383 C 1356.2 894.738 1357.36 896.663 1358.44 898.744 L 1356.96 899.035 C 1353.59 893.412 1347.4 885.322 1340.62 884.087 C 1338.98 883.788 1339.39 884.009 1337.84 885.136 C 1338.19 886.848 1338.57 888.492 1339 890.184 C 1340.2 894.915 1338.43 901.922 1337.67 906.755 C 1328.61 897.503 1323.17 883.193 1318.16 871.444 z"/>
<path transform="translate(0,0)" fill="rgb(240,230,213)" d="M 1356.96 899.035 L 1358.44 898.744 C 1357.36 896.663 1356.2 894.738 1355.86 892.383 L 1360.82 896.356 L 1362.14 895.401 C 1373.97 904.932 1384.21 914.28 1394 925.997 L 1392.79 927.182 C 1390.89 924.701 1390.4 923.698 1387.45 922.474 C 1384.86 922.857 1383.42 923.127 1381.71 925.284 C 1378.35 929.509 1377.88 934.805 1378.4 939.943 L 1375.21 941.111 C 1362.48 933.319 1350.76 929.11 1343.11 915.015 C 1346.27 915.079 1349.62 915.239 1352.73 914.57 C 1354.6 914.167 1356.84 913.002 1357.77 911.286 C 1359.91 907.343 1358.13 903.006 1356.96 899.035 z"/>
<path transform="translate(0,0)" fill="rgb(240,230,213)" d="M 1378.4 939.943 C 1377.88 934.805 1378.35 929.509 1381.71 925.284 C 1383.42 923.127 1384.86 922.857 1387.45 922.474 C 1390.4 923.698 1390.89 924.701 1392.79 927.182 L 1394 925.997 C 1404.61 939.43 1412.67 952.985 1419.06 968.88 C 1406.93 965.608 1396.04 961.687 1384.86 955.933 C 1379.01 951.609 1377.67 947.645 1375.21 941.111 L 1378.4 939.943 z"/>
<path transform="translate(0,0)" fill="rgb(68,43,25)" d="M 1378.4 939.943 C 1377.88 934.805 1378.35 929.509 1381.71 925.284 C 1383.42 923.127 1384.86 922.857 1387.45 922.474 C 1390.4 923.698 1390.89 924.701 1392.79 927.182 C 1395.63 932.138 1401.03 940.109 1399.78 946.036 C 1399.25 948.578 1397.83 950.084 1395.57 951.236 C 1393.88 952.105 1391.01 952.11 1389.13 952.116 C 1383.59 948.815 1381.23 945.74 1378.4 939.943 z"/>
<path transform="translate(0,0)" fill="rgb(240,230,213)" d="M 840.508 424.299 C 845.44 423.892 850.322 424.241 855.241 424.683 C 898.194 428.546 939.176 447.501 966.812 481.099 C 988.533 507.506 1004.81 547.011 999.902 581.781 C 999.546 584.308 998.933 585.529 996.754 586.965 C 991.304 590.557 982.244 588.794 976.184 587.715 C 943.663 580.541 911.155 571.678 883.229 552.872 C 852.171 531.957 823.08 503.14 816.004 464.867 C 814.187 455.036 813.652 442.062 819.888 433.715 C 825.097 426.744 832.457 425.347 840.508 424.299 z"/>
<path transform="translate(0,0)" fill="rgb(68,43,25)" d="M 839.822 436.276 C 841.559 436.196 843.274 436.202 845.013 436.246 C 883.604 437.217 923.74 454.247 950.356 482.355 C 974.701 508.063 989.731 542.711 988.931 578.135 C 985.129 577.948 981.256 577.083 977.5 576.465 C 956.48 571.879 934.85 564.017 915.284 555.092 C 880.576 539.26 846.209 511.322 832.638 474.637 C 829.356 465.763 825.267 452.856 829.726 443.908 C 831.936 439.475 835.306 437.779 839.822 436.276 z"/>
<path transform="translate(0,0)" fill="rgb(240,230,213)" d="M 845.142 469.635 C 856.943 477.215 871.876 493.002 878.718 505.311 C 866.862 500.579 851.316 480.719 845.142 469.635 z"/>
<path transform="translate(0,0)" fill="rgb(240,230,213)" d="M 927.636 532.248 C 928.904 531.631 930.119 530.993 931.358 530.312 C 936.958 543.597 959.866 548.125 971.439 556.123 C 960.876 553.588 937.196 549.324 931.165 539.433 C 929.784 537.168 928.687 534.68 927.636 532.248 z"/>
<path transform="translate(0,0)" fill="rgb(240,230,213)" d="M 853.643 451.283 C 864.84 453.814 875.224 459.199 886.2 462.594 A 182.619 182.619 0 0 0 889.069 470.601 C 892.759 479.986 899.716 489.863 909.33 493.733 C 913.169 495.278 917.955 496.395 921.871 494.66 C 925.527 489.466 921.76 485.11 920.915 479.533 C 923.303 479.793 924.752 480.497 926.212 482.541 C 935.039 494.892 934.046 516.344 931.358 530.312 C 930.119 530.993 928.904 531.631 927.636 532.248 C 924.282 525.156 922.094 522.266 915.227 518.456 C 914.353 525.568 913.912 533.257 911.757 540.095 C 911.371 541.321 911.697 540.832 910.384 541.515 C 903.383 534.678 909.206 514.895 904.228 505.27 C 894.089 485.663 869.871 466.501 853.643 451.283 z"/>
<path transform="translate(0,0)" fill="rgb(240,230,213)" d="M 1789.63 1098.98 C 1790.92 1099.24 1790.28 1098.93 1791.38 1100.16 C 1790.95 1107.61 1790.6 1115.12 1787.95 1122.19 C 1786.31 1126.55 1783.45 1127.91 1779.57 1129.97 C 1737.15 1152.49 1693.34 1172.28 1650.02 1192.96 C 1612.49 1210.88 1575.26 1229.6 1537.98 1248.04 L 1407.17 1314.16 C 1377.15 1329.58 1347.66 1345.24 1317.02 1359.46 C 1309.12 1355.42 1301.26 1351.64 1293.02 1348.33 C 1264.16 1366.64 1224.5 1382.63 1193.19 1398.1 C 1181.22 1404.02 1171.42 1413.79 1159.5 1419.86 C 1119.23 1440.36 1077.74 1458.78 1036.82 1477.97 L 1025.76 1483.2 C 1026.78 1476.34 1028.02 1469.61 1029.49 1462.83 C 1048.12 1454.34 1066.21 1444.79 1084.59 1435.78 L 1174.81 1391.77 L 1331.65 1316 L 1789.63 1098.98 z"/>
<path transform="translate(0,0)" fill="rgb(240,230,213)" d="M 807.131 784.415 C 813.24 784.592 819.091 785.018 824.905 787.129 C 832.11 789.745 838.307 794.058 844.021 799.077 C 860.183 813.274 873.562 831.17 889.1 846.177 C 898.028 854.799 936.938 884.176 939.585 892.328 C 940.74 895.883 939.118 899.737 937.584 902.858 C 933.111 905.686 921.517 893.233 917.118 890.419 A 39.9252 39.9252 0 0 0 902.215 884.817 C 883.156 881.805 859.147 892.155 844.008 903.156 C 829.947 913.375 815.104 930.739 812.836 948.588 C 811.316 960.555 817.553 969.989 824.742 978.793 C 835.793 988.244 846.35 998.778 856.456 1009.24 C 841.775 1006.09 825.533 1001.41 813.413 992.169 C 801.727 983.256 802.963 966.656 793.373 955.72 C 777.113 937.181 718.17 895.387 715.837 874.21 C 713.843 856.106 725.127 834.888 736.295 821.348 C 754.626 799.123 778.499 787.032 807.131 784.415 z"/>
<path transform="translate(0,0)" fill="rgb(68,43,25)" d="M 786.136 801.345 C 794.705 800.899 803.632 800.01 812.183 800.581 C 817.827 800.958 822.459 802 827.178 805.219 C 841.757 815.165 855.391 831.96 868.692 844.154 C 878.813 853.433 890.952 861.237 899.889 871.624 C 894.572 872.692 889.165 873.418 883.825 874.385 C 836.421 882.97 826.525 903.394 800.697 940.522 C 789.728 932.55 779.988 921.816 769.997 912.591 C 755.444 899.155 736.359 886.191 725.691 869.378 C 726.304 866.236 727.02 863.033 727.999 859.982 C 733.61 842.478 747.652 831.554 763.395 823.757 C 757.72 837.311 744.904 846.395 744.446 862.303 C 744.368 865.001 744.611 866.184 746.38 868.186 C 752.477 868.212 762.604 854.375 767.644 850.222 C 770.715 847.691 774.24 845.796 777.737 843.931 A 1029.72 1029.72 0 0 0 770.439 857.815 C 766.288 865.925 762.205 874.252 765.179 883.39 C 769.058 883.889 770.034 879.997 772.178 876.96 C 778.898 867.439 786.474 861.597 797.502 857.748 C 788.637 871.427 780.114 884.337 775.901 900.28 C 790.339 888.269 796.785 873.75 814.638 864.428 C 809.025 877.001 800.304 887.806 794.245 900.117 C 792.818 903.016 791.041 906.427 792.133 909.575 C 797.836 906.449 803.282 898.284 807.69 893.271 C 826.525 871.852 850.513 863.196 878.183 860.003 C 867.439 852.782 857.424 845.101 847.549 836.75 C 840.039 830.399 832.091 821.925 823.662 817.134 C 818.985 814.475 813.832 812.627 808.421 812.754 L 808.54 813.718 C 825.569 823.936 831.543 839.354 845.395 850.349 C 846.969 851.599 848.698 851.892 850.612 852.209 C 851.356 852.333 852.694 852.506 853.427 852.697 C 855.624 853.269 857.49 853.868 858.735 855.808 C 855.694 858.087 851.073 858.643 847.418 859.524 C 834.258 850.437 820.102 834.84 807.134 824.213 C 799.606 818.044 786.812 811.57 781.439 803.828 L 781.892 802.562 L 786.136 801.345 z"/>
<path transform="translate(0,0)" fill="rgb(240,230,213)" d="M 975.244 308.74 C 980.445 307.84 1004.42 322.605 1010.88 325.396 C 1049.76 342.193 1091.05 343.149 1130.16 327.514 C 1141.11 334.992 1150.94 344.84 1160.76 353.732 A 5219.89 5219.89 0 0 0 1205.74 394.185 A 24151.4 24151.4 0 0 1 1609.8 761.306 C 1623.17 773.743 1683.6 826.834 1688.84 837.191 C 1689.79 839.078 1689.32 841.615 1687.95 843.179 C 1685.3 846.218 1679.81 848.632 1676.43 851.086 C 1662.39 861.274 1651.61 875.16 1646.64 891.905 C 1638.64 918.87 1646.08 938.753 1658.74 962.517 C 1633.19 977.961 1603.19 990.089 1576.16 1003.19 L 1435.38 1072.96 L 1318.77 1132.17 C 1304.82 1139.19 1290.25 1148.93 1275.61 1153.95 C 1249.6 1150.02 1223.43 1141.21 1196.5 1136.82 C 1190.79 1131.33 1184.07 1126.6 1177.96 1121.52 C 1209.36 1120.84 1241.65 1128.23 1270.86 1139.29 C 1300.23 1126.27 1328.84 1111.18 1357.6 1096.86 C 1436.55 1057.55 1514.33 1015.77 1593.99 977.87 C 1607.25 971.631 1620.99 965.674 1633.54 958.088 C 1631.56 940.971 1626.05 926.573 1627.85 908.801 C 1630.91 878.557 1646.5 855.959 1669.74 837.164 A 17154.2 17154.2 0 0 0 1294.05 491.089 C 1253.93 454.876 1214.7 417.65 1174.14 381.881 C 1159.37 368.851 1144.77 353.619 1128.4 342.636 A 76.5301 76.5301 0 0 1 1116.26 347.31 C 1069.95 360.568 1018.38 344.841 977.702 322.354 C 924.349 345.6 872.169 371.213 819.848 396.656 L 696.91 455.827 L 601.379 502.538 C 584.782 510.828 567.517 518.575 551.872 528.577 C 547.781 525.551 544.222 522.38 540.603 518.824 C 569.543 503.595 599.692 490.726 629.026 476.3 L 975.244 308.74 z"/>
<path transform="translate(0,0)" fill="rgb(240,230,213)" d="M 1815.16 1017.08 L 1816.08 1018.45 C 1814.02 1026.07 1809.78 1035.51 1803.48 1040.54 C 1797.28 1045.49 1763.83 1059.93 1754.2 1064.79 A 3416.01 3416.01 0 0 0 1655.07 1117.24 C 1632.45 1129.46 1608.59 1140.82 1587.89 1156.2 C 1613.08 1147.38 1637.55 1134.85 1661.36 1122.83 L 1752.39 1077.15 C 1768.8 1069.09 1785.19 1060.59 1802.13 1053.68 A 715.034 715.034 0 0 0 1796.52 1075.66 C 1747.09 1100.71 1697.43 1125.2 1648.47 1151.19 C 1611.72 1170.71 1576.03 1191.77 1538.78 1210.48 C 1501.63 1229.14 1463.6 1245.58 1425.98 1263.22 A 11473.9 11473.9 0 0 1 1247.25 1346.52 L 1081.56 1424.15 C 1066.28 1431.32 1051.45 1439.45 1036.06 1446.36 C 1037.88 1437.1 1040.62 1427.94 1043.69 1419.03 C 1098.82 1393.36 1151.27 1362.04 1205.56 1334.7 A 13080.8 13080.8 0 0 0 1465.82 1201.69 C 1531.97 1166.46 1596.9 1128.97 1663.21 1094.09 C 1713.45 1067.67 1764.94 1043.48 1815.16 1017.08 z"/>
<path transform="translate(0,0)" fill="rgb(240,230,213)" d="M 461.313 484.811 C 463.491 484.71 465.209 485.479 467.009 486.633 C 483.964 497.507 499.95 514.517 514.629 528.272 L 584.892 594.126 L 705.016 704.912 C 720.725 719.133 737.209 732.425 752.499 747.121 C 758.801 753.178 773.722 765.153 775.425 773.271 C 770.794 775.054 760.372 768.654 755.512 766.545 C 751.233 767.621 746.759 768.423 743.161 771.083 L 742.973 772.653 C 746.439 776.172 751.83 776.579 755.821 779.769 L 755.707 781.076 C 748.059 783.964 741.155 776.198 733.437 776.47 C 730.033 776.589 726.065 778.878 723.883 781.371 L 724.225 783.107 C 727.662 785.358 731.928 788.015 734.4 791.321 C 735.665 793.013 735.937 793.232 735.632 795.371 L 733.303 796.054 C 729.161 795.305 726.139 792.252 722.925 789.696 L 718.875 787.34 C 716.254 787.39 715.616 787.451 713.4 789.045 C 710.885 790.856 709.706 792.743 709.138 795.737 C 710.926 800.545 715.848 801.603 718.644 805.46 C 719.91 807.207 719.602 807.975 719.374 809.983 C 717.786 812.017 717.739 812.88 715.16 813.554 C 693.794 798.651 663.907 766.799 643.673 747.816 L 502.815 615.778 C 476.614 590.945 450.074 566.568 424.04 541.53 C 414.85 532.692 403.905 524.436 396.034 514.423 C 417.087 503.561 439.738 494.72 461.313 484.811 z"/>
<path transform="translate(0,0)" fill="rgb(68,43,25)" d="M 476.186 552.511 C 482.302 554.243 487.231 557.088 492.412 560.695 C 498.115 564.665 507.141 571.54 507.756 578.97 C 507.995 581.863 505.463 584.239 503.729 586.289 C 494.907 583.617 491.012 578.499 485.729 571.422 C 482.542 570.854 479.142 570.436 476.465 568.467 C 474.427 566.969 472.888 564.875 472.578 562.339 C 472.133 558.693 474.209 555.358 476.186 552.511 z"/>
<path transform="translate(0,0)" fill="rgb(68,43,25)" d="M 496.287 540.119 C 501.272 540.135 507.166 540.085 512.031 541.341 C 513.535 541.729 513.878 541.893 514.96 542.932 C 517.532 545.403 519.054 549.386 521.531 552.123 C 524.097 554.958 527.383 556.597 529.386 560.001 C 528.617 563.303 527.383 564.152 525.097 566.586 C 520.897 566.456 514.182 566.551 510.55 564.335 C 506.035 561.58 505.131 558.101 503.477 553.33 C 500.214 552.014 496 550.765 493.172 548.678 C 491.43 547.392 491.361 546.856 491.028 544.872 C 492.318 542.368 493.968 541.505 496.287 540.119 z"/>
<path transform="translate(0,0)" fill="rgb(68,43,25)" d="M 671.527 712.091 C 673.998 711.97 676.562 711.867 679.018 712.218 C 687.059 713.364 698.9 722.585 703.154 729.154 C 704.747 731.613 705.702 734.578 704.609 737.459 C 703.641 740.012 701.159 742.526 698.743 743.718 C 697.187 744.485 696.925 744.026 695.41 743.547 C 691.879 739.398 691.425 733.325 689.107 728.432 C 687.477 724.992 684.937 721.337 681.041 720.293 C 676.193 718.995 670.781 720.047 666.579 722.664 C 666.314 722.829 666.056 723.006 665.795 723.177 C 665.032 725.585 664.193 727.623 664.79 730.179 C 665.945 735.125 677.599 738.157 681.695 740.76 C 684.095 742.286 684.553 743.583 685.264 746.22 C 684.682 748.693 684.263 749.989 682.563 751.899 C 679.836 752.627 677.869 752.427 675.273 751.394 C 667.496 748.298 659.296 741.851 655.961 733.99 C 654.462 730.457 654.075 726.383 655.804 722.852 C 658.72 716.896 665.582 713.953 671.527 712.091 z"/>
<path transform="translate(0,0)" fill="rgb(68,43,25)" d="M 586.529 627.272 C 590.64 626.986 594.523 627.639 598.296 629.307 C 604.513 632.055 610.705 636.905 612.934 643.574 C 614.133 647.159 613.833 650.845 611.846 654.098 C 608.679 659.285 602.504 660.819 597.028 662.223 C 591.186 661.97 585.486 661.55 580.094 659.027 C 574.199 656.269 568.734 651.539 566.871 645.103 C 565.855 641.592 566.28 638.337 568.214 635.196 C 571.921 629.176 580.212 628.227 586.529 627.272 z"/>
<path transform="translate(0,0)" fill="rgb(240,230,213)" d="M 579.574 634.74 C 586.206 636.031 591.394 638.112 596.897 642.106 C 599.735 644.166 601.719 646.061 602.285 649.634 C 600.944 652.473 600.506 652.454 597.684 653.946 C 591.093 653.421 582.369 652.421 577.352 647.692 C 575.619 646.06 574.6 643.956 574.863 641.524 C 575.181 638.566 577.512 636.582 579.574 634.74 z"/>
<path transform="translate(0,0)" fill="rgb(240,230,213)" d="M 897.499 912.358 C 905.156 911.875 911.687 914.196 917.997 918.421 C 943.853 935.73 966.482 960.914 989.84 981.554 C 1054.92 1039.07 1117.62 1099.22 1181.95 1157.55 C 1203.71 1177.27 1224.61 1198 1247.06 1216.95 C 1243.22 1218.63 1239.61 1220.56 1235.95 1222.59 C 1226.09 1213.66 1214.69 1203.27 1203.4 1196.33 C 1201.38 1195.09 1199.55 1193.59 1197.19 1194.12 C 1198.51 1202.92 1219.78 1220.35 1226.6 1227.41 L 1217.86 1233.07 C 1207.98 1224.2 1191.49 1212.07 1179.59 1206.35 C 1180.32 1207.58 1181.07 1208.78 1181.8 1210 C 1188.16 1220.54 1199.82 1229.05 1208.99 1237.17 L 1198.97 1243.64 C 1193.28 1237.93 1187.5 1232.53 1181.33 1227.34 C 1178 1224.48 1171.47 1218.04 1167.21 1217.67 L 1166.45 1218.85 C 1168.98 1227.68 1185.17 1241.23 1191.92 1248.12 C 1189.6 1250.13 1187.34 1252.22 1185.05 1254.27 C 1173.87 1243.61 1160.98 1234.49 1149.54 1223.95 A 17268.3 17268.3 0 0 0 998.063 1085.11 L 901.385 997.016 C 885.179 982.249 869.5 967.047 852.644 952.995 C 863.109 945.231 874.042 937.622 885.423 931.262 C 892.747 927.169 900.691 923.979 907.623 919.25 L 907.48 918.347 C 890.58 917.074 872.324 927.669 857.717 935.094 C 853.826 937.072 849.196 940.218 844.822 940.687 C 844.916 938.526 845.833 937.7 847.189 936.026 C 858.633 921.897 879.875 914.171 897.499 912.358 z"/>
<path transform="translate(0,0)" fill="rgb(68,43,25)" d="M 1132.59 1154.29 C 1137.5 1153.65 1143.38 1152.97 1148.19 1154.29 C 1153.64 1155.78 1158.7 1159.29 1161.54 1164.21 C 1163.55 1167.68 1164.07 1171.34 1162.99 1175.21 C 1161.56 1180.34 1159.71 1182.33 1155.12 1184.81 C 1152.1 1185 1148.92 1185.29 1145.9 1184.98 C 1139.03 1184.25 1131.43 1179.77 1127.47 1174.12 C 1125.41 1171.18 1124.52 1167.67 1125.42 1164.13 C 1126.55 1159.72 1128.85 1156.74 1132.59 1154.29 z"/>
<path transform="translate(0,0)" fill="rgb(240,230,213)" d="M 1134.17 1160.78 C 1138.18 1160.93 1142.01 1161.32 1145.85 1162.55 C 1148.76 1163.49 1151.25 1165.08 1152.45 1168.06 C 1153.56 1170.81 1152.45 1173.69 1151.62 1176.34 C 1149.93 1176.33 1148.18 1176.32 1146.51 1176.02 C 1142.14 1175.22 1136.21 1172.57 1134.1 1168.39 C 1132.6 1165.44 1133.44 1163.71 1134.17 1160.78 z"/>
<path transform="translate(0,0)" fill="rgb(68,43,25)" d="M 1040.86 1067.1 A 36.991 36.991 0 0 1 1051.02 1068.24 C 1057.94 1070 1064.95 1075.48 1068.3 1081.78 C 1070.13 1085.22 1070.68 1088.94 1069.34 1092.67 C 1067.69 1097.29 1064.51 1099.3 1060.26 1101.32 C 1057.4 1101.36 1054.3 1101.35 1051.49 1100.78 C 1044.37 1099.32 1036.89 1093.29 1033.23 1087.12 C 1031.29 1083.84 1030.22 1080.11 1031.4 1076.36 C 1032.96 1071.4 1036.39 1069.24 1040.86 1067.1 z"/>
<path transform="translate(0,0)" fill="rgb(240,230,213)" d="M 1041.48 1074.76 C 1045.01 1074.67 1048.42 1074.98 1051.66 1076.46 C 1055.11 1078.02 1058.57 1080.45 1059.51 1084.36 C 1060.28 1087.54 1059.23 1089 1057.94 1091.69 C 1054.28 1091.54 1050.59 1091.11 1047.23 1089.57 C 1043.84 1088.01 1040.87 1085.84 1039.89 1082.01 C 1039.14 1079.06 1040.18 1077.26 1041.48 1074.76 z"/>
<path transform="translate(0,0)" fill="rgb(68,43,25)" d="M 942.853 984.176 C 948.707 983.956 954.302 984.634 959.701 987.018 C 967.242 990.347 975.637 996.657 978.499 1004.72 C 979.499 1007.54 979.35 1010.72 977.774 1013.31 C 975.486 1017.07 971.654 1018.57 967.703 1019.94 C 962.656 1021.01 957.974 1021.3 953.057 1019.43 C 944.839 1016.32 936.516 1009.52 933.298 1001.15 C 932.079 997.98 931.919 994.478 933.472 991.391 C 935.488 987.386 938.83 985.679 942.853 984.176 z"/>
<path transform="translate(0,0)" fill="rgb(240,230,213)" d="M 940.606 991.733 C 948.747 991.207 958.762 993.056 964.941 998.785 C 968.399 1001.99 969.261 1005.33 969.454 1009.89 C 967.316 1010.64 965.125 1011.25 962.875 1011.54 C 957.617 1012.21 951.665 1011.09 947.516 1007.65 C 942.349 1003.36 941.153 998.141 940.606 991.733 z"/>
<path transform="translate(0,0)" fill="rgb(240,230,213)" d="M 481.57 861.581 C 497.291 873.208 510.654 888.904 524.411 902.772 C 538.535 917.009 553.16 930.761 567.337 944.958 C 556.577 959.683 545.786 974.543 537.45 990.817 C 501.523 1060.96 487.723 1162.7 492.064 1240.67 C 493.159 1260.33 496.178 1276.33 498.922 1295.5 L 497.347 1295.98 C 480.981 1281.54 465.998 1264.71 450.741 1249.09 C 438.105 1236.16 423.427 1223.1 412.519 1208.72 C 409.611 1183.84 403.262 1160.14 402.254 1134.89 C 399.069 1055.12 426.737 921.365 481.57 861.581 z"/>
<path transform="translate(0,0)" fill="rgb(68,43,25)" d="M 429.856 1082.53 C 431.315 1084.36 431.36 1085.02 431.4 1087.45 C 431.567 1097.67 429.698 1108.36 429.229 1118.63 A 787.632 787.632 0 0 0 429.002 1178.34 C 432.616 1182.26 436.632 1185.88 440.46 1189.59 C 439.919 1183.49 439.916 1177.32 439.92 1171.19 C 439.929 1159.26 443.654 1104.83 451.696 1096.81 L 453.257 1097.29 C 456.495 1103.1 453.135 1115.4 452.428 1121.76 C 450.049 1143.14 447.711 1184.05 456.44 1203.28 C 458.382 1207.56 462.263 1211.66 465.206 1215.33 C 464.045 1196.97 464.909 1179.7 467.337 1161.51 C 468.578 1152.71 469.161 1138.32 473.755 1130.8 C 474.844 1129.02 474.259 1129.6 476.42 1129.05 C 477.459 1131.5 475.315 1176.72 475.586 1185 C 476.319 1207.45 479.086 1228.47 483.687 1250.45 C 477.237 1245.96 415.222 1183.16 411.968 1177.5 C 410.386 1174.75 410.51 1172.61 411.428 1169.71 C 413.238 1168.16 416.395 1165.94 417.397 1163.77 C 419.1 1160.08 418.184 1150.92 418.318 1146.76 C 418.951 1127.13 419.969 1099.62 429.856 1082.53 z"/>
<path transform="translate(0,0)" fill="rgb(240,230,213)" d="M 735.161 1115.01 C 751.579 1127.55 765.757 1144.39 780.479 1158.9 C 796.262 1174.46 815.059 1189.7 828.322 1207.36 C 816.688 1224.03 804.282 1239.68 794.584 1257.67 C 782.235 1280.58 773.886 1305.06 766.613 1329.96 C 743.264 1409.9 743.531 1467.87 755.479 1549.42 C 754.737 1549.23 753.905 1549.25 753.254 1548.85 C 746.404 1544.6 736.846 1531.68 730.726 1525.45 C 710.632 1504.99 690.259 1484.42 669.305 1464.86 C 666.704 1450.62 662.971 1436.61 660.334 1422.38 C 645.421 1341.89 668.157 1238.73 704.205 1166.02 C 713.101 1148.07 723.82 1131.48 735.161 1115.01 z"/>
<path transform="translate(0,0)" fill="rgb(68,43,25)" d="M 681.146 1354.16 C 681.889 1354.48 683.611 1355.26 684.064 1355.98 C 685.041 1357.54 679.884 1412.47 687.844 1431.47 C 689.838 1436.23 693.134 1440.26 696.299 1444.28 C 696.435 1424.4 697.176 1385.83 707.143 1369 L 708.431 1368.68 C 709.671 1371.03 709.827 1373.09 709.898 1375.69 C 710.084 1382.52 708.904 1389.7 708.49 1396.55 C 707.528 1412.45 706.952 1429.33 708.398 1445.19 C 709.324 1455.35 711.842 1461.19 719.714 1467.65 C 717.816 1444.76 721.808 1421.72 726.715 1399.39 C 728.568 1397.63 727.455 1398.11 730.088 1398.05 C 730.251 1398.32 730.449 1398.57 730.577 1398.86 C 732.897 1404.12 730.398 1431.97 730.605 1439.75 C 730.954 1452.9 731.348 1466.35 734.169 1479.25 C 736.166 1488.38 744.628 1502.19 741.732 1510.97 C 741.099 1510.8 740.44 1510.71 739.832 1510.47 C 736.153 1509 669.734 1434.56 666.348 1427.86 C 665.166 1425.52 665.201 1424.4 665.902 1421.95 C 667.318 1421.29 668.721 1420.66 670.178 1420.09 L 671.42 1419.61 C 673.368 1411.05 673.032 1401.75 673.947 1393 C 675.321 1379.87 678.058 1366.99 681.146 1354.16 z"/>
<path transform="translate(0,0)" fill="rgb(240,230,213)" d="M 605.164 984.872 C 616.134 991.931 626.274 1004.72 635.578 1014.02 L 699.049 1077.48 A 400.743 400.743 0 0 0 685.572 1095.58 C 634.247 1169.87 614.222 1280.65 620.128 1369.79 C 621.398 1388.95 624.983 1407.75 628.334 1426.63 L 627.726 1427.28 L 626.277 1426.87 C 610.112 1406.05 589.81 1387.28 571.132 1368.71 C 562.07 1359.7 547.472 1349.15 541.852 1337.88 C 533.644 1321.4 531.06 1298.07 529.487 1279.96 C 521.711 1190.37 546.888 1054.39 605.164 984.872 z"/>
<path transform="translate(0,0)" fill="rgb(68,43,25)" d="M 557.157 1205.53 L 558.467 1206.81 C 560.413 1213.33 555.587 1253.13 555.167 1263.41 C 554.667 1275.64 554.919 1287.98 554.971 1300.22 C 559.632 1305.18 563.761 1310.81 568.021 1316.14 C 564.603 1293.64 570.05 1253.21 578.765 1231.93 C 579.801 1229.4 580.395 1228.02 582.947 1226.99 C 586.89 1230.62 581.824 1244.17 581.329 1249.65 C 578.671 1279.03 579.457 1303.4 583.899 1332.55 L 592.122 1341.4 C 591.543 1315.9 592.617 1288.36 598.412 1263.5 C 599.642 1258.04 600.79 1251.95 603.888 1247.24 L 604.879 1248.19 C 606.394 1260.53 603.414 1273.99 602.923 1286.46 C 602.173 1305.5 603.448 1325.87 605.872 1344.76 C 606.69 1351.14 613.525 1372.06 611.609 1376.07 C 608.911 1376.18 607.096 1374.83 605.068 1373.14 C 593.051 1363.11 582.383 1349.16 571.72 1337.62 C 561.326 1326.36 549.446 1315.37 540.132 1303.27 C 537.891 1300.36 535.257 1297.05 534.818 1293.29 C 535.765 1290.66 535.868 1289.91 538.003 1288.17 C 539.677 1289.19 540.957 1289.78 542.87 1290.22 C 544.541 1287.16 544.274 1267.88 544.813 1262.53 C 546.652 1244.26 548.928 1221.94 557.157 1205.53 z"/>
<path transform="translate(0,0)" fill="rgb(240,230,213)" d="M 866.652 1244.44 C 872.805 1247.46 890.842 1268.77 897.332 1275.35 C 917.983 1296.28 939.107 1316.63 959.372 1337.96 C 947.89 1356.26 936.113 1374.52 926.898 1394.1 C 893.395 1465.26 879.551 1555.01 881.224 1633.14 C 881.554 1648.56 885.265 1663.8 885.781 1679.16 L 884.583 1679.35 A 1991.79 1991.79 0 0 0 829.293 1622.6 C 819.335 1612.66 809.565 1601.64 798.455 1593.01 C 794.238 1576.47 789.803 1559.77 787.58 1542.82 C 777.271 1464.22 796.081 1363.32 833.486 1293.41 C 842.932 1275.75 854.543 1260.3 866.652 1244.44 z"/>
<path transform="translate(0,0)" fill="rgb(68,43,25)" d="M 815.467 1463.43 C 816.028 1463.75 816.65 1463.99 817.152 1464.4 C 823.623 1469.7 806.739 1493.49 808.35 1550.34 C 811.225 1554.79 814.835 1558.43 818.48 1562.24 C 818.579 1554.47 818.774 1546.7 819.642 1538.96 C 821.003 1526.83 831.293 1481.14 839.595 1474.46 C 844.396 1479.61 839.269 1488.24 837.694 1494.32 C 830.913 1520.52 831.634 1547.35 832.229 1574.17 C 834.84 1578.52 838.262 1582.15 841.618 1585.93 A 251.902 251.902 0 0 1 844.31 1557.82 C 846.376 1545.05 855.069 1506.29 863.442 1497.69 L 864.786 1498.19 C 867.266 1506.44 860.338 1527.24 858.234 1536.73 C 854.578 1557.72 853.03 1578.74 855.204 1599.96 L 861.139 1608.72 A 227.311 227.311 0 0 1 862.837 1577.51 C 863.587 1571.35 864.438 1556.92 869.581 1552.89 L 871.513 1553.38 C 873.992 1558.11 871.648 1573.22 871.458 1579.11 C 870.778 1600.27 872.83 1620.63 875.582 1641.58 C 864.196 1632.08 854.175 1619.04 844.157 1608.07 C 831.887 1594.64 819.066 1581.79 806.45 1568.69 C 802.229 1564.31 793.238 1556.52 793.37 1550.37 C 794.781 1549.05 795.864 1547.72 796.537 1545.87 C 799.271 1538.36 799.115 1524.67 800.434 1516.01 C 803.169 1498.05 808.546 1480.2 815.467 1463.43 z"/>
<path transform="translate(0,0)" fill="rgb(240,230,213)" d="M 1785.05 1143.88 L 1786.71 1144.66 C 1788.37 1150.19 1788.26 1155.95 1788.48 1161.68 C 1772.66 1172.47 1753.98 1180.7 1736.96 1189.66 C 1688.24 1215.33 1636.91 1239.11 1591.02 1269.63 L 1589.39 1268.9 L 1588.2 1271.59 C 1591.54 1271.97 1594.36 1270.58 1597.39 1269.27 C 1623.6 1257.92 1650.51 1243.15 1676.37 1230.64 C 1714.47 1212.2 1752.96 1195.12 1790.45 1175.39 C 1792.77 1185.74 1794.53 1196.14 1796.25 1206.6 C 1764.44 1223.66 1731.47 1239.6 1701.11 1259.2 L 1701.59 1260.19 C 1713.71 1259.76 1782.96 1223.97 1800.65 1216.58 A 535.549 535.549 0 0 0 1819.71 1249.29 C 1797.93 1263.37 1774.37 1274.8 1751.26 1286.49 L 1647.38 1338.3 L 1493.28 1415.2 C 1462.01 1430.86 1430.87 1447.9 1398.89 1462 A 405.712 405.712 0 0 0 1392.58 1435.09 C 1420.1 1424.32 1446.3 1410.04 1472.51 1396.46 L 1571.4 1345.11 L 1632.11 1313.73 C 1645.73 1306.6 1659.67 1299.78 1672.12 1290.7 C 1652.64 1296.38 1633.81 1306.43 1615.55 1315.23 L 1540.69 1351.56 C 1490.07 1376.42 1439 1400.53 1388.68 1425.96 L 1380.93 1413.8 C 1435.75 1388.25 1488.97 1359.12 1542.82 1331.57 A 5404.94 5404.94 0 0 0 1621.87 1290.95 C 1636.27 1283.35 1652.67 1276.29 1664.97 1265.54 C 1640.11 1270.43 1582.61 1302.7 1555.81 1315.81 C 1512.5 1336.99 1469.32 1357.88 1426.44 1379.94 C 1409.73 1388.55 1392.55 1396.57 1376.33 1406.08 C 1373.11 1400.91 1369.17 1396.16 1365.46 1391.33 C 1396.84 1377.68 1478.71 1337.55 1503.21 1316.23 C 1478.07 1323.24 1453.44 1337.84 1429.97 1349.38 C 1406.37 1360.98 1380.42 1371.86 1358.73 1386.68 C 1348.01 1378.28 1337.52 1370.57 1325.43 1364.21 C 1337.85 1357.12 1351.1 1351.56 1363.97 1345.34 A 4084.27 4084.27 0 0 0 1417 1318.6 C 1492.38 1280.26 1567.33 1241.04 1644.06 1205.45 C 1690.64 1183.85 1738.62 1165.8 1785.05 1143.88 z"/>
<path transform="translate(0,0)" fill="rgb(240,230,213)" d="M 282.119 663.398 C 283.801 663.959 285.099 664.891 286.44 666.031 C 313.205 688.781 338.693 717.625 363.508 742.755 C 389.65 769.229 417.157 794.38 443.119 821.039 C 434.939 834.371 424.015 845.823 416.592 859.736 C 368.418 950.028 359.033 1058.04 369.356 1158.24 L 370.73 1170.55 C 344.616 1142.67 315.858 1113.98 288.714 1087.03 C 271.151 1069.59 253.103 1052.49 236.568 1034.07 C 235.315 1021.45 230.035 1008.75 226.576 996.557 A 314.636 314.636 0 0 1 216.011 943.573 C 207.096 861.743 219.338 783.69 255.6 709.539 C 263.37 693.65 270.992 677.25 282.119 663.398 z"/>
<path transform="translate(0,0)" fill="rgb(68,43,25)" d="M 238.48 872.766 C 243.568 879.494 229.777 967.701 248.622 997.877 A 699.671 699.671 0 0 1 247.603 984.094 C 246.642 968.922 248.561 907.211 257.624 896.932 L 259.139 897.422 C 261.312 904.131 258.095 925.994 257.861 934.915 C 257.212 959.685 258.873 985.642 262.864 1010.07 L 272.038 1020.24 C 270.06 1004.11 268.549 987.175 269.57 970.944 C 270.213 960.709 272.136 925.823 278.982 919.773 C 281.11 921.858 279.863 934.806 279.76 938.256 C 278.79 970.833 281.624 1000.89 285.788 1033.16 C 288.117 1035.81 290.655 1038.06 293.314 1040.37 C 292.771 1022.11 292.855 957.597 302.713 943.621 L 303.788 943.603 C 306.831 948.302 302.841 976.417 302.764 984.513 C 302.551 1007.01 303.31 1030.67 307.277 1052.85 L 307.575 1054.47 C 309.438 1057.01 311.282 1059.09 313.595 1061.23 L 314.943 1061.08 L 315.213 1058.25 C 313.286 1031.33 312.823 988.999 323.667 963.939 C 325.89 975.537 324.438 987.991 323.934 999.749 C 322.929 1023.22 322.656 1057.86 332.645 1079.42 C 334.451 1083.31 337.468 1086.82 340.104 1090.19 C 338.669 1056.48 335.259 1016.2 347.322 984.2 C 349.138 997.97 348.382 1012.67 348.635 1026.57 C 348.972 1045.05 349.964 1063.28 351.492 1081.71 C 352.165 1089.82 357.892 1120.27 357.23 1123.53 L 355.99 1123.8 C 349.306 1119.04 343.499 1111.73 337.8 1105.81 L 302.449 1069.15 C 283.683 1049.92 258.871 1028.48 242.382 1008.11 C 237.913 1002.58 234.715 996.549 232.945 989.657 C 227.647 969.028 227.74 890.692 238.48 872.766 z"/>
<path transform="translate(0,0)" fill="rgb(240,230,213)" d="M 366.904 544.983 C 380.568 553.822 393.014 567.719 404.189 579.554 C 383.965 582.519 328.926 590.162 313.262 602.229 L 313.697 603.605 C 328.159 606.356 350.887 601.001 365.98 599.537 C 386.155 597.579 406.598 596.162 426.861 597.258 C 417.269 601.206 405.757 601.845 395.524 603.356 C 377.199 606.062 358.411 608.898 341.002 615.434 C 335.103 617.649 326.756 620.459 324.034 626.522 C 331.009 630.123 417.041 609.066 434.646 610.412 L 436.6 612.852 L 435.885 610.768 L 436.656 611.354 L 436.465 613.041 C 430.377 615.762 422.056 615.758 415.393 616.892 C 389.473 621.303 362.769 627.204 340.87 642.306 C 341.162 642.243 341.456 642.187 341.746 642.115 C 354.578 638.957 367.411 638.27 380.46 636.508 C 397.995 634.14 415.43 631.115 433.014 629.091 C 439.093 628.392 446.97 626.601 452.053 630.63 L 451.608 632.79 C 444.708 634.912 436.593 634.859 429.409 635.804 C 417.707 637.343 405.803 639.475 394.293 642.111 C 386.136 643.979 364.221 648.536 359.601 655.9 C 369.807 662.612 453.243 642.84 467.984 647.334 C 470.183 648.005 471.513 648.619 472.544 650.732 C 467.764 654.168 408.525 655.399 386.685 671.652 C 385.537 672.507 384.643 672.902 384.469 674.395 C 392.809 678.426 453.356 670.211 467.007 668.586 C 473.437 667.82 481.44 665.877 487.78 666.339 C 490.405 666.531 491.558 667.307 493.304 669.146 C 492.318 671.395 490.508 671.786 488.159 672.019 C 455.436 675.275 424.243 679.393 394.333 694.13 C 420.12 694.66 446.36 691.215 471.946 688.34 C 481.875 687.224 494.1 684.461 503.963 685.053 C 506.636 685.213 507.829 685.773 509.649 687.648 L 509.444 689.256 C 502.454 691.724 493.768 691.263 486.316 692.166 C 458.673 695.518 432.928 699.954 408.273 713.577 C 432.435 713.686 457.498 709.934 481.42 706.508 C 493.044 704.843 505.266 702.303 516.996 702.118 C 520.185 702.067 522.448 702.281 525.307 703.827 L 525.471 705.172 C 520.233 707.819 510.549 707.638 504.642 708.462 C 482.454 711.56 455.352 715.828 436.367 727.991 A 394.624 394.624 0 0 0 493.893 724.035 C 507.333 722.222 520.958 719.5 534.485 718.8 C 537.877 718.625 541.599 718.328 544.632 720.067 L 544.471 721.334 C 539.881 724.245 532.617 724.775 527.23 725.875 C 506.41 730.123 478.215 733.561 461.037 746.68 L 461.523 748.622 L 460.453 748.304 C 466.133 749.048 473.198 747.636 478.959 747.03 C 495.948 745.242 552.45 735.282 565.84 741.42 L 566.272 742.61 C 565.076 744.007 563.683 744.712 561.92 745.228 C 555.745 747.036 548.441 747.339 542.044 748.386 C 527.949 750.692 513.559 753.392 499.835 757.364 C 491.057 759.904 483.497 763.101 475.703 767.872 C 489.582 768.433 504.511 767.434 518.368 766.143 C 532.399 764.837 577.098 755.789 587.828 759.829 C 589.685 760.528 589.797 760.627 590.69 762.46 C 583.769 765.968 571.09 765.948 563.208 767.356 C 539.224 771.641 512.386 776.774 490.525 787.804 L 489.287 788.44 C 498.374 788.754 507.779 786.955 516.849 786.159 C 536.827 784.406 556.758 782.908 576.689 780.597 C 585.244 779.605 594.673 777.437 603.244 777.485 C 605.628 777.499 606.411 777.768 608.327 779.014 L 608.332 780.996 C 604.867 783.959 583.078 785.912 576.678 787.173 C 554.434 791.556 529.717 798.709 510.828 811.587 C 522.541 810.235 534.166 807.799 545.856 806.178 C 565.281 803.485 585.14 801.785 604.71 800.525 C 611.662 800.077 626.882 797.828 632.053 802.376 C 630.926 804.377 629.89 804.788 627.696 805.288 C 605.31 810.395 559.653 813.464 541.405 826.368 C 539.695 827.577 539.357 827.826 538.924 829.909 C 550.366 836.058 640.303 815.542 652.435 823.069 L 652.625 825.005 C 652.09 825.644 651.753 826.527 651.019 826.921 C 647.354 828.888 636.297 828.834 631.678 829.403 C 605.173 832.669 576.131 838.693 554.305 854.893 C 571.096 853.726 667.805 837.279 677.148 842.489 L 677.41 844.045 C 673.312 847.046 636.504 851.487 628.895 853.346 C 610.161 857.923 590.996 864.415 574.776 875.012 C 592.191 872.804 682.742 859.705 692.427 865.864 C 690.553 869.041 687.059 870.117 683.598 871.074 C 678.019 872.616 671.981 872.548 666.236 873.273 C 653.835 874.839 641.049 876.821 629.069 880.441 C 618.726 883.567 610.55 888.039 601.565 893.974 C 617.763 893.163 679.023 884.515 689.443 887.207 C 692.24 887.929 693.705 888.949 695.149 891.409 C 694.128 893.812 692.691 894.961 690.339 896.041 C 684.544 898.705 677.395 899.259 671.199 900.625 C 657.883 903.56 630.075 909.287 620.023 918.859 L 620.642 919.927 C 628.91 920.994 638.896 918.143 647.187 916.84 C 663.101 914.339 679.666 911.909 695.792 913.39 C 698.756 913.663 702.549 913.797 704.615 916.22 C 703.895 918.25 703.075 918.709 701.059 919.347 C 695.495 921.11 689.268 921.93 683.573 923.364 A 165.971 165.971 0 0 0 645.437 937.71 C 663.322 938.114 717.656 929.48 730.223 935.743 C 732.047 936.652 731.433 936.131 732.198 938.157 C 728.695 939.982 724.165 939.798 720.26 940.244 C 702.329 942.293 682.991 944.182 669.343 957.169 L 668.301 958.178 C 668.671 958.108 669.041 958.035 669.413 957.969 C 670.031 957.859 670.653 957.765 671.271 957.652 C 681.075 955.858 740.379 953.058 747.698 955.57 C 749.411 956.158 748.849 955.747 749.624 957.381 C 745.381 960.021 724.98 963.81 718.682 965.838 C 705.713 970.014 693.307 975.872 681.41 982.468 C 698.242 981.782 764.946 971.596 776.153 976.869 L 776.006 978.146 C 769.337 981.802 758.878 982.231 751.344 983.923 A 137.701 137.701 0 0 0 709.129 1000.71 C 734.24 1001.61 759.315 996.149 784.347 996.775 C 787.713 996.859 790.41 997.725 792.756 1000.19 C 788.413 1007.27 747.669 1004.68 735.375 1019.75 L 736.074 1020.8 C 764.198 1016.94 799.201 1016.55 826.772 1022.36 A 195.883 195.883 0 0 0 822.156 1022.65 C 805.461 1023.91 763.967 1031.12 753.167 1043.6 L 753.494 1045.02 C 763.341 1045.03 773.815 1041.74 783.828 1041 A 1512.58 1512.58 0 0 1 872.657 1036.93 C 861.424 1040.39 849.251 1040.43 837.658 1042.13 C 814.207 1045.56 793.319 1052.82 772.16 1063.22 C 792.256 1063.68 885.122 1044.56 894.684 1051.28 C 895.989 1052.2 895.819 1053.06 896.157 1054.51 C 894.812 1055.7 838.28 1060.41 825.888 1064.59 C 818.082 1067.23 798.703 1072.32 794.881 1079.73 C 800.219 1085.05 885.638 1065.38 903.171 1066.14 C 906.289 1066.28 909.56 1066.65 911.783 1069.02 L 911.628 1070.51 C 877.796 1075.03 842.854 1082 815.063 1103.11 C 840.102 1097.85 903.574 1080.71 926.32 1087.57 L 926.421 1088.82 C 895.607 1092 862.976 1097.71 838.761 1118.39 C 869.712 1113.57 901.373 1107.34 932.813 1107.58 C 938.168 1107.62 948.644 1107.86 952.357 1111.68 C 947.178 1115.89 931.844 1115.36 924.899 1116.06 C 906.986 1117.85 869.259 1123.93 857.081 1138.83 C 860.03 1140.14 868.43 1137.44 871.84 1136.78 C 896.763 1131.93 921.595 1127.46 946.927 1125.34 C 955.303 1124.64 966.546 1122.34 973.409 1128.14 L 973.517 1129.62 C 969.243 1131.59 962.846 1130.93 958.091 1131.53 C 928.834 1135.24 895.219 1137.03 872.231 1157.68 L 871.232 1158.59 C 894.445 1155.89 917.626 1150.41 940.887 1147.28 C 951.037 1145.92 983.887 1140.88 990.716 1146.08 C 990.024 1147.92 990.651 1147.36 988.663 1147.95 C 982 1149.93 972.942 1149.26 965.857 1150.02 C 941.398 1152.65 912.971 1158.01 892.32 1172.35 C 890.516 1173.6 889.758 1173.84 889.307 1176.06 C 892.135 1177.32 895.35 1176.76 898.336 1176.36 C 906.945 1175.2 915.204 1172.73 923.701 1171.06 C 949.369 1166.02 977.764 1160.67 1003.99 1161.09 C 1008.31 1161.16 1011.3 1161.27 1014.38 1164.47 L 1014.22 1166.1 C 1008.14 1168.43 997.255 1166.86 990.429 1167.35 C 967.323 1169.01 933.564 1175.98 913.704 1188.46 C 910.749 1190.31 906.341 1192.85 905.465 1196.47 C 907.111 1196.68 906.398 1196.75 908.106 1196.28 C 932.235 1189.62 980.534 1181.19 1004.9 1180.15 C 1013.64 1179.81 1022.11 1179.34 1030.56 1182.04 C 1023.6 1184.03 1014.08 1183.2 1006.79 1183.44 C 984.669 1186.78 957.772 1188.46 939.075 1201.75 C 934.431 1205.05 930.432 1209.52 926.449 1213.58 C 951.295 1205.86 1015.04 1193.37 1041.17 1194.63 C 1044 1194.76 1047.79 1194.64 1049.74 1196.83 C 1043.73 1199.31 1029.8 1198.53 1022.62 1199.31 C 1010.16 1200.65 998.045 1202.63 986.035 1206.3 C 979.335 1208.34 958.677 1214.31 955.286 1220.74 C 965.044 1226.85 1051.19 1199.51 1066.78 1208.87 L 1067.13 1210.46 C 1067.11 1210.48 1028.43 1215.41 1023.31 1216.63 C 999.051 1222.42 977.087 1232.28 955.558 1244.65 C 988.902 1240.17 1021.16 1229.98 1054.49 1226.09 C 1058.65 1225.61 1066.49 1223.85 1069.7 1226.39 C 1062.35 1228.83 1054.31 1229.53 1046.77 1231.47 C 1019.55 1238.51 994.805 1248.96 972.515 1266.32 C 985.877 1263.21 998.888 1258.45 1012.16 1254.94 C 1031.64 1249.78 1051.52 1245.88 1071.32 1242.22 C 1081.22 1240.39 1091.6 1237.81 1101.69 1238.27 C 1068.42 1249.43 1018.11 1260.31 994.602 1287.48 C 1027.22 1280.2 1082.55 1246.79 1112.17 1249.4 L 1113.49 1251.55 C 1107.38 1257.33 1095.84 1260.21 1087.97 1263.31 C 1064.72 1272.5 1034.74 1284 1017.53 1302.4 L 1017.65 1303.76 C 1026.78 1303.57 1076.96 1279.88 1088.12 1275.2 C 1100.25 1270.11 1112.69 1265.58 1124.91 1260.68 C 1134.12 1268.58 1144.13 1276.26 1150.89 1286.45 C 1127.68 1302.78 1098.76 1314.65 1073.05 1326.77 A 2026.69 2026.69 0 0 0 1014.48 1355.93 C 998.815 1342.49 984.667 1326.56 970.224 1311.82 L 902.705 1243.78 L 698.794 1040.33 L 403.597 745.982 C 386.031 728.328 368.69 710.38 350.941 692.919 C 319.302 661.793 287.218 630.981 257.8 597.711 C 272.75 587.948 290.127 580.418 306.281 572.858 A 4046.53 4046.53 0 0 1 366.904 544.983 z"/>
<path transform="translate(0,0)" fill="rgb(240,230,213)" d="M 1051.61 223.263 C 1053.76 223.026 1055.86 222.894 1058.03 222.831 C 1078.48 222.24 1096.14 232.684 1111.97 244.625 C 1124.3 253.919 1135.78 264.831 1147.36 275.033 A 7530.05 7530.05 0 0 1 1216.11 336.589 L 1416.8 517.117 L 1735.9 802.097 A 4565.42 4565.42 0 0 0 1824.78 879.328 C 1840.93 893.255 1857.63 906.887 1873.03 921.628 C 1862.15 928.522 1849.7 933.954 1838.19 939.796 A 2850.19 2850.19 0 0 1 1768.17 974.579 C 1731.72 992.181 1695.83 1011.28 1659.71 1029.59 L 1407.37 1158.26 C 1364.84 1179.82 1322.64 1201.97 1279.5 1222.31 A 75.2617 75.2617 0 0 0 1279.13 1218.42 C 1277.32 1204.11 1233.94 1174.37 1221.5 1164.54 C 1241.98 1165.59 1260.77 1175.27 1280.53 1179.91 C 1296.07 1173.15 1311.21 1164.22 1326.44 1156.62 L 1410.58 1115.28 L 1663.6 988.71 C 1675.58 982.878 1691.57 977.175 1701.45 968.129 C 1701.97 966.41 1702.66 966.15 1700.9 964.641 C 1700.06 963.921 1697.37 963.114 1696.32 962.663 C 1685.99 958.213 1679.71 955.288 1674.4 944.651 C 1667.88 931.606 1667.74 916.105 1672.4 902.464 C 1684.28 867.687 1708.17 861.436 1737.79 846.672 C 1730.91 837.626 1720.73 830.371 1712.38 822.625 L 1653.5 768.462 L 1462.46 594.12 C 1382.62 522.496 1304.25 449.239 1223.71 378.37 C 1194.13 352.339 1165.56 323.981 1134.22 300.151 C 1123.4 306.509 1111.69 312.002 1099.45 314.929 C 1055.73 325.385 1015.91 305.676 979.805 283.264 C 948.214 293.118 917.826 309.265 888.217 323.951 L 819.49 357.219 C 778.952 376.937 737.606 394.933 697.057 414.613 C 637.711 443.414 579.122 473.924 519.118 501.369 C 510.804 494.603 502.719 487.489 494.548 480.547 C 530.78 459.394 569.992 444.276 607.872 426.467 L 822.368 326.259 C 861.4 308.126 900.038 288.847 938.745 270.016 C 972.464 253.61 1014.82 229.612 1051.61 223.263 z"/>
<path transform="translate(0,0)" fill="rgb(68,43,25)" d="M 1101.63 266.906 C 1102.94 266.746 1103.68 266.626 1105.06 266.599 C 1108.93 266.521 1111.22 267.68 1113.97 270.243 C 1117.3 273.345 1119.97 276.981 1119.61 281.753 C 1119.38 284.833 1117.64 285.686 1115.28 287.169 C 1109.51 283.418 1100.45 279.047 1097.72 272.5 C 1098.37 269.669 1099.61 268.932 1101.63 266.906 z"/>
<path transform="translate(0,0)" fill="rgb(68,43,25)" d="M 1018.59 265.171 C 1025.6 264.702 1029.53 264.409 1035.65 268.355 C 1037.02 270.776 1037 270.691 1036.44 273.416 C 1034.14 276.691 1031.1 277.538 1027.48 278.978 C 1025.42 280.033 1023.74 280.412 1021.46 280.776 C 1018.88 280.086 1016.77 279.287 1014.96 277.192 C 1012.96 274.867 1012.93 272.87 1013.06 270.04 C 1014.69 267.046 1015.69 266.797 1018.59 265.171 z"/>
<path transform="translate(0,0)" fill="rgb(68,43,25)" d="M 1754.13 863.415 C 1760.48 862.455 1769.06 862.429 1775.26 863.919 L 1774.9 864.995 C 1763.99 869.445 1750.57 871.549 1738.95 873.703 C 1730.74 875.065 1722.49 875.755 1714.19 876.186 C 1725.44 864.399 1738.98 864.81 1754.13 863.415 z"/>
<path transform="translate(0,0)" fill="rgb(68,43,25)" d="M 1758.93 940.581 L 1759.49 940.824 L 1758.88 942.056 C 1742.21 949.866 1723.27 958.427 1704.76 953.2 C 1702.83 951.53 1701.35 949.367 1701.18 946.763 C 1701.07 945.077 1701.69 944.919 1702.69 943.721 C 1710.04 942.038 1718.77 942.747 1726.34 942.481 C 1737.21 942.099 1748.08 941.295 1758.93 940.581 z"/>
<path transform="translate(0,0)" fill="rgb(68,43,25)" d="M 1711.89 879.442 C 1742.1 877.293 1773.08 877.764 1803.3 879.658 C 1786.27 887.547 1764.2 885.748 1745.9 888.926 C 1731.68 889.794 1717.38 889.839 1703.19 890.969 C 1703.87 887.045 1709.25 882.35 1711.89 879.442 z"/>
<path transform="translate(0,0)" fill="rgb(68,43,25)" d="M 1750.02 927.568 C 1759.55 927.02 1778.2 924.243 1786.77 928.693 L 1785.91 930.049 C 1768.07 937.263 1746.84 938.663 1727.75 939.047 C 1719.47 939.435 1709.91 940.698 1701.83 938.831 C 1697.9 937.925 1695.57 936.556 1693.34 933.087 L 1693.98 931.284 C 1702.88 926.649 1738.29 928.078 1750.02 927.568 z"/>
<path transform="translate(0,0)" fill="rgb(68,43,25)" d="M 1736.42 894.778 C 1749.41 894.85 1799.53 894.027 1806.53 899.454 C 1806.21 899.61 1805.92 899.797 1805.59 899.924 C 1801.89 901.364 1796.61 900.895 1792.61 901.455 C 1776.79 903.668 1711.7 911.699 1699.35 905.626 C 1697.28 904.609 1697.26 904.196 1696.6 902.141 C 1697.54 899.229 1698.86 897.434 1700.73 895.097 C 1712.52 895.004 1724.67 895.536 1736.42 894.778 z"/>
<path transform="translate(0,0)" fill="rgb(68,43,25)" d="M 1697.71 911.097 C 1711.12 911.138 1801.15 911.252 1807.23 914.15 L 1806.9 915.51 C 1803.57 917.655 1800.06 918.1 1796.23 918.817 C 1781.17 921.337 1765.85 922.388 1750.62 923.314 C 1740.11 923.954 1700.29 927.637 1693.74 920.808 C 1692.72 919.737 1692.49 917.916 1692.68 916.484 C 1693.07 913.531 1695.52 912.587 1697.71 911.097 z"/>
<path transform="translate(0,0)" fill="rgb(68,43,25)" d="M 1045.07 250.495 C 1046.88 250.643 1048.55 250.785 1049.99 252.036 C 1056.89 258.041 1061.38 265.864 1068.95 271.709 C 1071.67 265.41 1074.57 259.297 1077.7 253.199 C 1081.2 254.161 1085.73 255.508 1087.66 258.848 C 1090.84 264.364 1086.43 273.859 1084.68 279.402 C 1088.57 280.655 1092.71 281.702 1096.32 283.652 C 1100.44 285.875 1104.82 288.29 1106.28 293.006 C 1105.72 295.045 1105.48 295.906 1103.33 296.87 C 1099.48 298.594 1093.99 297.333 1090.35 295.643 A 23.8112 23.8112 0 0 1 1078.04 282.529 C 1078.13 281.001 1078.32 281.783 1077.05 280.332 L 1075.47 281.181 C 1073.93 286.988 1079.07 291.696 1077.53 297.485 C 1076.79 300.231 1076.05 300.718 1073.9 302.329 C 1070.49 302.859 1067.01 302.152 1064.33 299.821 C 1060.8 296.754 1061.01 292.226 1060.47 288.007 C 1060.14 285.41 1060.37 284.047 1058.13 282.397 C 1052.43 284.425 1050.8 292.853 1043.46 294.741 C 1040.05 295.62 1033.52 294.907 1030.71 292.606 C 1028.46 290.761 1028.58 289.989 1028.33 287.279 C 1031.41 280.498 1041.3 277.326 1047.77 274.232 C 1045.51 269.713 1041.92 264.074 1041.41 259.017 C 1041.02 255.073 1042.8 253.395 1045.07 250.495 z"/>
</svg>