<svg xmlns="http://www.w3.org/2000/svg" display="block" viewBox="0 0 2048 2048"><path fill="#fefefe" d="M0 0h2048v2048H0z"/><path d="M1008.52 524.467c42.89-.997 86.15 1.749 129.03 3.049 19.98.605 49.7-1.308 68.21 3.196 11.06 2.69 21.92 9.341 30.35 16.865 19.82 17.688 26.13 38.227 27.67 64.07 2.63 44.285-.11 89.155.13 133.55.24 45.89 6.42 94.425-1.68 139.852-3.37 18.923-10.85 39.012-23.9 53.455-6.54 7.23-13.73 11.116-23.17 13.307-22 5.104-47.7 3.113-70.34 3.687a3586 3586 0 0 0-101.07 3.807c-4.82.445-9.67.643-14.51.908-40.276 2.21-202.953 9.25-227.735-14.178-5.911-5.589-8.822-13.413-10.125-21.285-5.004-30.238-3.049-78.962-3.073-110.73-.053-68.874.679-137.516-.967-206.397-.517-21.657-.922-42.397 15.486-59.012 11.176-11.318 28.146-18.126 43.554-21.094 23.194-4.469 49.801-1.492 73.52-1.449a4024 4024 0 0 0 88.62-1.601"/><path fill="#fefefe" d="M1024.4 533.488c39.7-.424 79.31 2.959 118.93 4.982 18.05.922 38.14-.963 55.66 3.699 10.95 2.915 20.84 9.137 28.94 16.969 9.24 8.944 16.46 20.123 19.22 32.834 6.57 30.238 2.02 92.609 1.91 125.892-.13 36.13 1.72 71.99 2.37 108.079.6 33.106-.18 77.945-25 103.207-5.62 5.729-10.22 8.218-18 9.891-18.6 4.005-43.79 2.442-63.19 2.98a6665 6665 0 0 1-111.61 3.091c-30.88.398-206.192 1.906-219.952-11.942-8.631-8.687-7.402-27.72-7.707-39.358-1.841-70.372.551-140.878.272-211.275a3009 3009 0 0 0-1.227-62.495c-.329-13.534-1.468-27.927.331-41.359 1.046-7.806 4.682-14.062 10.1-19.678 8.28-8.583 20.624-15.933 32.28-18.63 23.957-5.543 58.029-2.992 83.037-3.534 31.221-.678 62.405-2.671 93.636-3.353"/><path d="M1174.62 622.344c.74.252 1.76.556 2.41.978 2.28 1.48 2.3 2.341 2.69 4.809-3.92 12.032-53.39 63.281-65 76.688a1969 1969 0 0 0-39.14 47.003 3081 3081 0 0 0-38.02 49.949c-9.62 12.934-25.47 38.168-37.56 47.152-3.988 2.963-9.722 4.881-14.702 3.933-15.528-2.957-44.883-55.217-54.49-69.923-5.688-7.585-18.509-20.679-20.026-29.878-.463-2.809-.185-3.204 1.329-5.389 11.576-2.286 36.134 27.417 44.892 35.432 8.011 7.331 17.537 15.658 27.461 20.215.322.148.649.284.974.426 17.812-9.841 32.502-24.485 47.282-38.264 27.46-25.581 53.84-52.952 79.62-80.241 20.04-21.214 40.29-43.756 62.28-62.89m428.69-103.83 161.16-.528c27.24-.039 68.87-2.642 94.66 2.579a53.1 53.1 0 0 1 24.44 12.256c14.12 12.534 16.38 30.094 17.3 47.913 1.41 27.288.55 54.925.43 82.254l-.5 130.71a6411 6411 0 0 0 .22 78.174c.08 14.337 1.03 29.352-.52 43.615-.72 6.697-2.94 13.198-7.67 18.139-5.41 5.641-13.64 8.178-21.12 9.752-16.22 3.418-33.76 3.341-50.28 4.014-36.39 1.481-72.68 1.636-109.09 1.646-64.09-.027-127.72 1.615-191.83-.779-18.04-.674-38.9.404-56.53-3.491-7.82-1.729-14.4-4.408-20.23-10.058-37.42-36.287-23.48-170.264-21.74-222.369 1.03-30.931.75-61.629.39-92.562-.37-30.58 1.04-61.635 23.91-84.721 6.35-6.406 13.53-10.436 22.28-12.645 17.74-4.479 39.07-3.049 57.42-3.242z"/><path fill="#fefefe" d="M1493.06 532.491a20509 20509 0 0 1 230.38-.214l76.03.25c16.43.127 33.34-.275 49.68 1.728 9.44 1.159 18.61 3.104 26.01 9.58 11.01 9.627 12.96 30.45 13.63 44.226 1.29 26.538.33 53.446.22 80.028l-.05 124.157a1624 1624 0 0 0 .96 65.891c.45 14.604 1.79 29.847.7 44.417-.54 7.262-2.25 15.901-7.55 21.288-11.42 11.597-39.03 10.02-54.32 10.274a20733 20733 0 0 1-254.04 1.24 4566 4566 0 0 1-68.05-.724c-10.78-.197-22.24.288-32.92-1.124-7.33-.971-14.12-3.461-19.57-8.601-18.12-17.095-20.13-50.409-21.15-73.575-2.27-51.49 1.86-102.218 2.13-153.605a1921 1921 0 0 0-.78-63.582c-.37-17.196-1.57-36.451 1.38-53.456 2.09-12.075 8.35-25.709 16.8-34.608 11.67-12.278 24.64-13.182 40.51-13.59"/><path d="M1714.15 601.127c6.56.611 13.98 2.642 19.18 6.898 2.89 2.365 5.12 6.029 5.3 9.821.41 8.49-5.55 13.253-10.96 18.811 33.66 22.584 37.77 35.185 54.2 69.936 3.55-1.297 7.1-2.564 10.8-3.374 5.71-1.251 12.04-.994 16.97 2.516 3.73 2.659 5.92 6.808 6.43 11.32.66 5.86-1.34 12.243-5.22 16.68-7.01 8.004-18.27 8.825-28.16 9.559-2.48 18.353-5.01 35.839-13.85 52.343a228 228 0 0 1 7.57 4.005c4.97 2.81 9.6 7.365 10.95 13.095.74 3.133.25 6.376-1.47 9.106-2.91 4.64-8.37 7.312-13.56 8.462-11.26 2.49-19.14-1.911-28.26-7.685-16.25 10.287-32.15 19.409-49.56 27.615a420 420 0 0 1 .75 7.567c.66 7.392.01 14.625-5.22 20.441-2.69 2.999-6.31 5.095-10.41 5.171-4.54.085-8.74-2.282-11.81-5.49-7.05-7.351-6.94-15.544-6.82-24.994-9.17-.243-18.32-1.902-27.26-3.824-13.67-3.63-25.18-8.48-37.13-16.067-5.49 8.602-10.04 12.819-19.55 16.469-5.15-1.587-9.93-3.029-13.73-7.085-3.11-3.314-4.8-7.501-4.42-12.062.71-8.776 6.62-14.131 13-19.288-9.54-13.33-14.47-25.69-19.12-41.307-9.08.343-17.38 1.077-25.49-3.981-4.49-2.8-8.01-7.217-8.86-12.529a15.65 15.65 0 0 1 3.4-12.448c6.75-8.235 17.31-9.003 27.12-9.858 1.82-26.234 10.93-44.615 23.87-67.058-2.55-3.901-4.97-8.193-6.73-12.508-3.5-8.574-4.87-18.614-.86-27.266a22.8 22.8 0 0 1 13.49-12.136c5.6-1.855 11.7-1.555 16.86 1.43 8.25 4.774 10.46 13.078 12.84 21.603 28.29-11.944 55.97-12.222 86.02-10.69 1.8-4.039 3.62-8.16 5.78-12.021 3.47-6.204 7.15-9.171 13.92-11.177"/><path fill="#fefefe" d="M1568.98 708.719c2.78.045 4.31.405 6.8 1.628 1.11 1.469 2.04 2.171 2.24 4.076.48 4.48-1.72 7.343-4.2 10.775-.95.014-2.45.075-3.34-.093-2.64-.498-3.43-1.576-5.09-3.468-1.2-5.574.73-8.37 3.59-12.918m41.83-62.816c1.94-.345 4.93-.476 6.77.493 2.49 1.317 2.44 2.219 3.06 4.749-1.69 6.153-3.57 7.682-9.01 10.805-2.17.126-4.6.028-6.64-.808-2.49-1.024-2.65-2.053-3.39-4.372 1.54-5.646 4.56-7.641 9.21-10.867m129.34 140.093c3.89-.048 5.47.131 8.34 2.744.96 2.704 1.14 4.136.1 6.885-2.08 5.523-5.75 8.091-10.97 10.259-2.68-.779-5.97-1.607-7.8-3.894-1.55-1.922-2.07-4.135-1.32-6.508 1.61-5.122 7.18-7.545 11.65-9.486m-61.11-153.176c2.09.377 3.88 1.09 5.85 1.881 1.04 1.218 1.99 2.323 2.5 3.882 1.34 4.125.57 7.7-1.27 11.501-1.88 3.856-4.12 4.91-8.05 6.214-2.84-.804-5.2-1.488-7.16-3.855-1.68-2.024-1.87-4.459-1.49-6.96.79-5.276 5.56-9.713 9.62-12.663m58.57 43.947c3.14.392 4.36.685 6.93 2.753.96 1.727 1.46 2.763 1.47 4.8.03 6.354-6.06 13.447-10.41 17.459-2.57-.511-5.02-.75-7.03-2.602a7.98 7.98 0 0 1-2.59-6.473c.51-7.089 6.43-11.999 11.63-15.937m-81.56 13.443c11.35-1.203 21.64.39 31.81 5.704 12.2 6.371 22.43 17.718 26.43 31.004 4.3 14.305.61 30.651-6.54 43.449-8.62 15.431-21.92 26.075-38.98 30.77-11.46 1.739-22.23.054-32.39-5.556-13.2-7.283-23.7-20.247-27.71-34.813a52.63 52.63 0 0 1 5.85-41.72c9.5-15.39 24.31-24.513 41.53-28.838"/><path d="M219.52 1111.5c74.551-1.33 149.143.52 223.697.32l85.557-.59c17.576.02 36.309-.66 53.688 2.1 7.845 1.25 15.354 4.81 21.536 9.8 15.711 12.66 23.054 35.94 24.749 55.32 1.239 14.16-.113 28.4-.89 42.55-1.129 20.55-2.476 41.22-2.73 61.8-.556 45.06 11.773 215.71-14.89 245.23-9.316 10.32-47.439 13.98-61.459 15.26a170 170 0 0 1-7.479.61c-81.639 5.59-164.547-1.26-246.25-3.38a3977 3977 0 0 0-69.448-1.07c-14.467-.16-29.71.59-44.018-1.72-9.289-1.5-18.155-6.15-25.093-12.46-16.411-14.92-14.712-42.27-15.33-62.9-1.962-65.51 4.323-130.29 7.338-195.62 1.633-35.4-.499-77.88 5.87-111.98 2.052-10.99 6.331-22.14 14.3-30.21 13.59-13.78 33.037-12.73 50.852-13.06"/><path fill="#fefefe" d="M227.663 1125.45c68.373-2.06 137.177-.41 205.592-.32a4715 4715 0 0 1 88.237.63c16.248.11 33.169-.74 49.329.71 6.342.58 14.951 1.83 20.163 5.62 11.616 8.43 17.893 24.99 19.885 38.83 4.709 32.69-2.443 69.77-2.972 103.03-.667 41.9 9.203 214.88-9.463 238.06-9.771 12.13-46.925 11.58-62.736 12.88-38.979.39-77.996 3.13-117.006 3.81-46.938.82-93.842-.51-140.773-1.08-27.808-.34-68.292 1.65-94.339-3.35-8.32-1.6-13.973-4.29-20.344-9.89-8.491-7.47-9.153-18.42-9.964-29.01-5.942-77.73-3.679-156.63.673-234.38 1.512-27.03 1.753-55.58 6.855-82.13 1.855-9.66 5.076-22.96 11.861-30.32 12.833-13.93 37.619-12.29 55.002-13.09"/><path d="M331.599 1180.42c19.562-1.76 42.005.84 60.474 7.63 26.846 9.86 49.181 29.27 61.137 55.4 14.705 32.13 4.708 61.01-6.8 92.24 21.928 32.88 89.688 112.17 98.477 143.36-4.47 6.29-9.531 10.68-15.646 15.29-8.554 6.45-28.335 21.17-39.668 18.91-9.224-1.83-20.438-23.24-25.758-31.07-21.821-33.58-43.294-67.26-65.681-100.47-18.983 7.66-38.128 13.82-58.691 15.32-30.652 2.23-63.817-6.7-87.145-27.33a96.45 96.45 0 0 1-31.79-65.06c-2.02-32.68 12.113-62.16 33.412-86.15 22.907-25.8 43.323-35.95 77.679-38.07"/><path fill="#fefefe" d="M435.962 1350.72c9.905 6.23 84.496 108.7 91.119 122.48-8.644 8.29-19.964 15.08-29.754 22.01-1.57 1.08-2.437 1.52-4.34 1.71-8.439-8.1-15.311-20.43-22.104-30.07-21.419-30.38-41.397-61.66-62.73-92.06 10.158-7.28 19.185-15.02 27.809-24.07"/><path d="M438.451 1383.51c4.203 2.17 8.136 5.45 12.071 8.1 24.382 16.45 31.674 31.25 48.154 54.33 3.622 5.07 11.613 13.69 12.893 19.73.654 3.08-.759 4.63-2.186 7.12-3.818 2.06-6.028 3.34-10.37 2.04-6.283-6.54-11.069-15.16-16.361-22.55-15.958-22.29-33.222-43.43-44.201-68.77"/><path fill="#fefefe" d="M327.563 1194.41c23.655-3.3 56.948.79 77.45 13.96 19.014 12.2 35.566 32.6 40.323 55.01 5.179 24.4-3.127 50.83-16.639 71.18-18.07 27.22-45.017 39.97-76.169 46.23a290 290 0 0 1-11.53 1.53c-28.369 2.9-56.948-3.41-79.225-21.77-15.653-12.9-24.074-30.28-25.895-50.38-2.754-30.37 5.759-57.96 25.386-81.15 18.83-22.26 37.372-32.28 66.299-34.61"/><path d="M324.357 1207.35c21.951-1.16 54.854 8.14 73.916 18.77 16.386 9.14 29.861 23.56 34.962 41.89 4.459 16.03 3.083 33.71-5.396 48.19-13.429 22.93-41.549 34.74-66.096 41.13a154 154 0 0 1-12.824 2.32c-24.004 3.33-50.14-.64-69.663-15.82-14.951-11.63-26.916-31.95-28.993-50.86-2.166-19.72 6.541-38.82 18.687-53.86 14.408-17.84 32.404-29.4 55.407-31.76"/><path fill="#fefefe" d="M323.819 1222.35c20.734-2.01 46.181 3.37 64.475 13.28 14.554 7.88 26.095 19.89 30.488 36.24a47.64 47.64 0 0 1-5.112 36.51c-11.767 19.85-33.399 28.21-54.587 33.79-23.335 4.21-48.061 4.56-68.351-9.65-12.988-9.09-23.21-23.64-25.639-39.45-2.309-15.02 3.209-29.43 12.199-41.25 11.487-15.09 27.473-26.84 46.527-29.47"/><path d="M1561.77 1103.46c49.5-1.46 99.99-1.93 149.47-.34 26.6.85 53.06 3.11 79.63 4.37 22.61 1.07 46.63-1.28 68.95 2.09 7.45 1.13 15.63 3.05 21.4 8.11 7.25 6.36 12.02 15.37 14.49 24.61 5.51 20.65 2.65 43.76 3.39 64.99.78 22.28 2.72 44.6 4.07 66.86a2767 2767 0 0 1 5.96 157.67c.07 19.08 1.44 39.55-2.02 58.35-2.12 11.57-6.69 23.93-14.75 32.68-5.28 5.73-12.49 9.08-19.94 10.98-25.04 6.4-84.85 4.82-113.37 5.41l-92 2.34c-45.41 1.35-195.37 10.47-227.18-20.32-32.92-31.87-16.31-172.14-15.74-216.28.49-37.97-1.16-76.58-2.74-114.51-.94-22.38.35-50.16 16.78-67.41a51.6 51.6 0 0 1 23.71-13.98c19.27-5.37 76.47-4.83 99.89-5.62"/><path fill="#fefefe" d="M1578.67 1115.44c67.5-3.49 135.51 1.44 202.93 4.31 23.61 1.01 47.69-1.1 71.17 1.78 6.56.8 16.46 2.32 21.46 6.81 6.61 5.93 10.48 14.54 12.88 22.97 7.48 26.32 7.78 78.07 9.11 106.99 2.71 59.37 4.1 119.54 2.01 178.95-.64 17.95-.39 37.49-4.34 55.07-1.85 8.26-5.46 15.91-11.38 22.05-5.19 5.38-13.63 8.11-20.81 9.34-14.66 2.51-30.67 1.24-45.53 1.25a1473 1473 0 0 0-63.41 1.06c-58.65 1.46-258.5 9.82-301.98-14.17-11.98-17.32-13.45-40.12-14.61-60.47-1.25-22.02-1.86-44.33-.85-66.37 1.18-25.87 3.84-51.91 3.81-77.79-.04-27.34-.22-54.9-1.12-82.22-.7-21.15-3.7-43.03-.99-64.11 1.46-11.38 5.84-22.01 13.73-30.49 4.41-4.74 10.57-7.41 16.81-8.87 12.91-3.03 27.55-2.51 40.79-3.1z"/><path d="M1595.73 1340.26c4.98.15 9.2.44 13.81 2.45 10.32 4.49 20.44 12.75 24.49 23.54 3.04 8.1 2.26 17.09-1.62 24.76-6.21 12.25-17.27 17.8-29.61 22.06-8.34 2.31-17.38 3.12-25.22-1.28-6.7-3.76-10.74-10.61-12.45-17.94-3.01-12.89.8-27.87 8.09-38.73 5.69-8.47 12.58-12.98 22.51-14.86"/><path d="M1658.51 1168.38c23.63-2.12 44.12 2.64 65.76 12.01 44.43 19.25 77.13 50.57 94.85 95.92 16.53 42.29 17.03 97.64-1.73 139.33-8.75 19.46-23.37 36.09-43.71 43.72-8.24 3.09-17.67 5.1-25.96 1.06-32.3-15.75-9.82-67.65-7.86-93.05 1.25-16.27-1.23-32.08-6.91-47.35a118.48 118.48 0 0 0-62.31-67.44c-17.51-7.84-42.79-13.4-61.27-5.73-6.09 2.53-14.73 12.91-17.06 19.23-.78 2.09-.8 3.06.15 5.13 5.88 2.19 15.64-2.24 22.14-2.51 26.21-1.07 56.21 12.2 74.55 30.52 15.68 15.66 22.81 34.64 22.64 56.75-.17 21.14-7.45 43.18-23.15 58.02-2.84 2.69-6.35 4.95-10.43 4.61-15.17-1.25-10.49-37.05-13.17-48.31-3.04-12.77-9.98-24.92-18.76-34.61-15.73-17.38-38.98-25.64-61.96-26.77-16.89-.82-37.76 1.12-50.65 13.26-11.58 10.92-16.53 28.98-16.71 44.47-.25 22.47 6.97 44.05 22.96 60.12 21.79 21.93 58.68 27.89 86.89 15.49 6.44-2.84 14.44-11.71 21.44-11.23 1.76.13 1.83.83 2.89 2.05.11 3.52-1.03 5.76-3.26 8.42-10.84 12.93-30.92 15.66-46.64 17.24-21.07.92-42.2-3.34-59.11-16.46-20.28-15.74-33.29-40.92-36.23-66.27-2.36-20.29 2.64-44.31 15.86-60.31 10.2-12.34 24.49-17.41 39.97-18.68 30.64-2.5 61.19 5.04 84.68 25.42 24.96 21.64 30.69 49.92 32.72 81.38 9.69-9.65 16.73-21.3 19.33-34.82 3.58-18.54.23-39.64-10.53-55.34-15-21.89-48.01-36.96-74.4-33.88-8.93 1.05-20.49 5.85-29.33 4.18-3.32-2.68-5.76-5.21-6.47-9.58-1.21-7.47 3.29-15.62 7.74-21.27 8.77-11.13 22.52-17.47 36.43-19.1 27.71-3.26 56.05 8.67 77.54 25.53 34.83 27.3 54.37 75.84 50.77 119.79-.91 11.08-6.53 24.16-5.18 34.92 2.07 1.07 3.12 1.09 5.37.33 11.14-3.76 19.5-13.75 24.3-24.13 11.72-25.39 10.31-57.87.78-83.66-13.26-35.91-39.12-63.71-73.97-79.56-30.77-14-63.79-12.65-94.93-.68-14.8 5.7-28.91 13-43.84 18.56-4.79 1.79-12 3.96-16.79 1.16-2.55-1.49-3.76-4.23-4.18-7.03-1.32-8.77 3.26-17.09 8.49-23.76 20.54-26.21 76.33-43.45 108.25-47.09"/><path fill="#fefefe" d="M1662.72 1179.41c26.16-4.06 57.26 7.5 79.71 19.89 36.62 20.2 62.13 55.26 73.42 95.21 10.89 38.49 11.12 89.39-9.2 125.01-7.96 13.95-20.73 26.64-36.65 30.72-6.21 1.6-14.49 2.66-20.15-1.15-6.43-4.33-7.49-13.25-8.88-20.24 5.39.34 10.29.68 15.41-1.32 14.9-5.84 22.89-21.4 29.06-35.14 3.81-11.75 5.81-23.22 6.29-35.57 1.57-40.31-13.5-76.01-40.85-105.27-38.22-40.89-92.47-57.31-145.02-35.43-12.63 5.25-37.16 19.23-50.09 18.83l-1.37-2.38c-.26-4.84 2.15-8.27 5.12-11.89 20.85-25.39 71.97-38.39 103.2-41.27"/><path d="M1039.06 1102.5a4425 4425 0 0 1 59.06-.72c41.96-.36 104.83-2.71 137.8 27.01 6.93 6.26 12.67 15.21 15.06 24.28 5.65 21.48 1.41 51.94 2.12 74.7.7 22.45 3.22 44.85 3.96 67.29 1.45 43.95-3.51 87.85-5.06 131.71-.8 22.58 1.45 56.38-2.25 77.37-1.66 9.47-5.53 18.71-12.31 25.66-7.79 7.97-18.41 12.2-29.02 14.94-34.42 8.9-72.68 8.09-107.99 8.67a7244 7244 0 0 1-105.442 1c-32.386-.09-64.775-.93-97.161-.78-25.597.11-52.303 2.15-77.698-1.05-8.655-1.09-20.612-3.35-27.02-9.6-10.818-10.57-13.233-26.42-13.597-40.87-.493-19.61 1.835-39.56 2.451-59.19.825-26.31.277-52.74.036-79.07L780.365 1235c-.329-26.2-1.999-53.4 1.064-79.47 1.39-11.84 4.162-23.17 12.854-31.92 6.092-6.13 12.51-8.37 20.815-10.07 20.356-4.17 43.434-3.1 64.306-4.34a3235 3235 0 0 1 159.656-6.7"/><path fill="#fefefe" d="M1022.96 1115.45c21.66-1.14 43.66-.67 65.35-.66 39.71.01 104.9-4.11 136.47 23.41 10.36 9.02 11.84 21.25 12.68 34.26 1.13 17.52-.45 35.12-.16 52.66.48 28.18 3.62 56.27 3.37 84.5-.32 35.9-4.22 71.76-5.46 107.65a1823 1823 0 0 0-.57 50.25c-.02 10.69.53 21.76-1.14 32.35-1.01 6.35-3.91 12.78-8.32 17.5-6.21 6.67-16.77 9.91-25.5 11.79-29.64 6.4-61.73 5.8-91.96 6.72l-102.63 3.19c-37.845 1.6-75.837 1.52-113.711 1.92-22.006.22-45.62 2.2-67.441-.31-6.5-.75-15.361-2.36-20.314-6.76-8.383-7.44-10.518-19.57-11.41-30.19-3.115-37.1.827-81.32.441-119.37L792 1243.32c-.159-26.41-2.232-53.41.091-79.72.889-10.08 2.68-22.05 9.662-29.82 4.719-5.25 13.807-6.91 20.558-8.02 19.677-3.23 41.277-2.3 61.243-3.45a4165 4165 0 0 1 139.406-6.86"/><path d="M1156.65 1199.42c3.44-.2 6.91-.46 10.36-.47 6.58-.03 13.38 1.52 17.97 6.57 15.54 17.05 14.31 132.65 14.9 160.91.51 25 2.32 50.74.82 75.69-.58 9.69-2.56 20.85-10.39 27.37-4.88 4.06-10.86 6.32-17.05 7.42-21.1 3.74-46.46.6-68.12 1.01-30.73.57-61.4 3.08-92.12 3.44-43.184.5-86.225-2.13-129.263-5.51-10.418.02-26.371-2.38-34.507-9.34-3.778-3.24-5.728-7.46-7.067-12.17-3.327-11.69-3.373-24.9-4.3-37.03a1216 1216 0 0 1-2.717-130.92c.491-19.21 2.899-39.29 1.529-58.42-.031-.44-.072-.88-.108-1.31 9.889-10.29 19.84-16.63 33.863-19.81 32.961-7.48 92.909-2.89 128.435-2.74 52.835.23 105.045-1.16 157.765-4.69"/><path fill="#fefefe" d="M1174.62 1222.28c1.52.5 2.57.43 3.46 1.88 4.32 7.07 4.84 18.99 6.45 27.1a495.7 495.7 0 0 1 2.19 187.78 1845 1845 0 0 1-49.78-46.54c-19.43-18.6-53.01-49.1-67.69-69.9 13.74-20.4 36.63-37.36 54.8-53.77 17.01-15.36 33.54-31.22 50.57-46.55m-323.984 16.27c9.276 3.48 18.168 8.87 26.791 13.74 37.251 21.01 73.585 47.79 100.496 81.46-14.216 21.68-41.677 43.76-61.205 61.43-20.028 17.94-39.405 37.26-61.658 52.42-15.33-51-11.99-144.41-8.554-198.72.312-4.95.245-6.9 4.13-10.33m306.594-28.09c2.36-.05 2.82-.47 4.82.94.49 3.79-1.93 6.77-4.07 9.69-11.2 15.3-26.77 27.99-40.76 40.68l-54.92 49.95c-9.99 9.09-18.92 20.01-29.36 28.41-2.89 2.32-5.17 3.78-8.93 4.28-6.2.83-11.83-.61-17.27-3.61-13.769-7.61-26.399-22.1-37.796-32.88-11.859-11.22-23.9-21.98-36.689-32.13-11.501-9.08-71.127-44.59-74.561-50.4l.671-1.73c8.448-6.56 22.795-8.27 33.206-9.29 33.709-3.28 68.699-1.49 102.562-1.36 54.447.21 108.707.11 163.097-2.55"/><path fill="#fefefe" d="M1060.57 1333.2c.49.29 1.01.53 1.48.85 21.66 14.95 48.33 45.93 67.27 65.48 12.92 13.33 27.53 26.49 38.93 41.08 3.14 4.01 7.23 9.77 7.46 15.04.11 2.6-.5 4.73-2.42 6.59-3.47 3.36-9.01 3.74-13.57 4.05-16.26 1.13-32.63-1.72-48.94-1.14-46.52 1.66-92.93 5.66-139.53 4.3-18.746-.46-86.599.36-100.161-9.7.056-4.63 6.887-11.51 9.743-14.91 24.835-29.57 51.252-49.35 78.72-75.28 8.971-8.47 17.106-17.43 25.014-26.87 10.183 5.58 16.714 16.25 29.374 16.97 17.95 1.02 34.56-15.16 46.63-26.46"/><path d="M264.636 520.477c60.181-1.396 120.697-.197 180.921-.257 41.332-.041 91.558-2.875 131.772 2.738 14.362 2.005 30.515 5.538 41.398 15.675 8.098 7.543 12.163 16.92 13.694 27.765 1.796 12.725.578 26.405.207 39.224a3135 3135 0 0 0-1.432 60.807 3810 3810 0 0 0 2.081 205.568c.714 25.111 2.563 56.629-16.49 75.971-20.847 21.164-70.632 15.962-98.537 15.932-71.35 1.332-142.663 4.791-214.028 5.285-31.202.216-62.651 1.643-93.741-1.659-14.441-1.533-38.752-4.681-49.973-14.925-10.056-9.182-10.434-27.482-10.756-40.14-.822-32.373.258-64.889.684-97.263a9357 9357 0 0 0 .186-105.463l-.71-81.536c-.186-18.868-1.298-38.529 1.424-57.239 1.873-12.87 6.021-24.713 15.262-34.276 17.256-17.857 40.492-16.076 63.268-15.968a1572 1572 0 0 0 34.77-.239"/><path fill="#fefefe" d="M459.606 533.461c34.248-1.243 94.78-3.237 126.722 4.254 9.305 2.183 18.772 5.712 25.932 12.24 13.719 12.507 13.156 34.98 13.801 52.143 2.359 62.794-2.226 126.02-2.973 188.853-.427 35.912 3.788 82.66-1.103 116.661-1.58 10.99-5.379 22.208-13.27 30.317-6.829 7.017-15.137 9.463-24.524 11.011-26.141 4.311-54.949 1.663-81.501 2.038-22.342.315-44.672 1.489-67.016 1.84-33.129.521-66.314.231-99.45.287-28.043.175-141.482 5.176-161.217-12.084-8.19-7.164-6.914-27.843-7.396-38.176-.945-20.275-.435-40.731-.329-61.025a8957 8957 0 0 0 .77-121.957l-.89-91.97c-.164-17.54-1.353-35.758.627-53.182 1.143-10.064 3.913-20.875 11.17-28.337 5.181-5.327 14.783-8.938 22.046-9.859 21.822-2.768 50.718.522 73.547.271z"/><path d="M390.985 615.092c16.644 1.012 49.832 34.467 63.01 46.189.24-8.981-1.65-27.739 4.223-34.693 2.709-3.208 6.592-3.978 10.603-4.378 4.387-.438 8.651.63 11.957 3.63 9.965 9.043 6.498 49.196 6.962 63.635 11.665 11.544 48.113 46.659 48.77 61.601.136 3.098-.754 5.997-3.083 8.167-5.818 5.42-14.791 4.078-22.008 3.586a712 712 0 0 1 1.528 30.61c.421 16.273 2.748 49.149-.326 63.767-1.009 4.8-3.006 9.173-6.519 12.654-14.99 14.855-65.754 10.382-86.523 10.571-27.414.928-54.651 3.431-82.029 4.661-17.643.792-44.407 3.192-58.039-9.956-3.005-2.898-5.139-6.421-6.048-10.509-3.637-16.345-.75-34.547-.388-51.166.33-15.162-.074-30.362-.323-45.524-2.883 1.081-5.8 2.247-8.756 3.112-4.45 1.301-9.258 1.614-13.4-.81-2.796-1.637-4.89-4.05-5.54-7.303-.898-4.499 1.6-10.046 3.845-13.811 10.251-17.19 27.865-31.81 42.177-45.749a2158 2158 0 0 1 62.878-59.717c8.248-7.66 16.16-16.912 25.221-23.551 3.63-2.66 7.515-3.844 11.808-5.016"/><path fill="#fefefe" d="M384.844 661.109c21.254 7.63 55.078 42.701 72.476 58.407a1106 1106 0 0 0 43.617 37.563 409 409 0 0 1 1.853 29.575c.213 11.481.119 70.151-7.031 75.591-9.732 7.402-80.604 4.775-97.011 5.009-25.008.982-50.184 3.489-75.187 3.608-8.885.042-26.831.127-33.109-6.97-2.925-3.306-4.12-9.223-4.559-13.473-.859-8.313.097-17.114-.076-25.507-.463-22.455-1.503-44.724-.431-67.182 30.354-35.173 63.952-66.798 99.458-96.621"/></svg>