<svg version="1.1" xmlns="http://www.w3.org/2000/svg" style="display: block;" viewBox="0 0 2048 2048" width="1024" height="1024">
<path transform="translate(0,0)" fill="rgb(254,254,254)" d="M 0 0 L 2048 0 L 2048 2048 L 0 2048 L 0 0 z"/>
<path transform="translate(0,0)" fill="rgb(0,0,0)" d="M 1008.52 524.467 C 1051.41 523.47 1094.67 526.216 1137.55 527.516 C 1157.53 528.121 1187.25 526.208 1205.76 530.712 C 1216.82 533.402 1227.68 540.053 1236.11 547.577 C 1255.93 565.265 1262.24 585.804 1263.78 611.647 C 1266.41 655.932 1263.67 700.802 1263.91 745.197 C 1264.15 791.087 1270.33 839.622 1262.23 885.049 C 1258.86 903.972 1251.38 924.061 1238.33 938.504 C 1231.79 945.734 1224.6 949.62 1215.16 951.811 C 1193.16 956.915 1167.46 954.924 1144.82 955.498 A 3585.92 3585.92 0 0 0 1043.75 959.305 C 1038.93 959.75 1034.08 959.948 1029.24 960.213 C 988.964 962.423 826.287 969.463 801.505 946.035 C 795.594 940.446 792.683 932.622 791.38 924.75 C 786.376 894.512 788.331 845.788 788.307 814.02 C 788.254 745.146 788.986 676.504 787.34 607.623 C 786.823 585.966 786.418 565.226 802.826 548.611 C 814.002 537.293 830.972 530.485 846.38 527.517 C 869.574 523.048 896.181 526.025 919.9 526.068 A 4023.6 4023.6 0 0 0 1008.52 524.467 z"/>
<path transform="translate(0,0)" fill="rgb(254,254,254)" d="M 1024.4 533.488 C 1064.1 533.064 1103.71 536.447 1143.33 538.47 C 1161.38 539.392 1181.47 537.507 1198.99 542.169 C 1209.94 545.084 1219.83 551.306 1227.93 559.138 C 1237.17 568.082 1244.39 579.261 1247.15 591.972 C 1253.72 622.21 1249.17 684.581 1249.06 717.864 C 1248.93 753.994 1250.78 789.854 1251.43 825.943 C 1252.03 859.049 1251.25 903.888 1226.43 929.15 C 1220.81 934.879 1216.21 937.368 1208.43 939.041 C 1189.83 943.046 1164.64 941.483 1145.24 942.021 A 6665.24 6665.24 0 0 1 1033.63 945.112 C 1002.75 945.51 827.438 947.018 813.678 933.17 C 805.047 924.483 806.276 905.45 805.971 893.812 C 804.13 823.44 806.522 752.934 806.243 682.537 A 3009.06 3009.06 0 0 0 805.016 620.042 C 804.687 606.508 803.548 592.115 805.347 578.683 C 806.393 570.877 810.029 564.621 815.447 559.005 C 823.727 550.422 836.071 543.072 847.727 540.375 C 871.684 534.832 905.756 537.383 930.764 536.841 C 961.985 536.163 993.169 534.17 1024.4 533.488 z"/>
<path transform="translate(0,0)" fill="rgb(0,0,0)" d="M 1174.62 622.344 C 1175.36 622.596 1176.38 622.9 1177.03 623.322 C 1179.31 624.802 1179.33 625.663 1179.72 628.131 C 1175.8 640.163 1126.33 691.412 1114.72 704.819 A 1968.82 1968.82 0 0 0 1075.58 751.822 A 3080.81 3080.81 0 0 0 1037.56 801.771 C 1027.94 814.705 1012.09 839.939 1000 848.923 C 996.012 851.886 990.278 853.804 985.298 852.856 C 969.77 849.899 940.415 797.639 930.808 782.933 C 925.12 775.348 912.299 762.254 910.782 753.055 C 910.319 750.246 910.597 749.851 912.111 747.666 C 923.687 745.38 948.245 775.083 957.003 783.098 C 965.014 790.429 974.54 798.756 984.464 803.313 C 984.786 803.461 985.113 803.597 985.438 803.739 C 1003.25 793.898 1017.94 779.254 1032.72 765.475 C 1060.18 739.894 1086.56 712.523 1112.34 685.234 C 1132.38 664.02 1152.63 641.478 1174.62 622.344 z"/>
<path transform="translate(0,0)" fill="rgb(0,0,0)" d="M 1603.31 518.514 L 1764.47 517.986 C 1791.71 517.947 1833.34 515.344 1859.13 520.565 A 53.0938 53.0938 0 0 1 1883.57 532.821 C 1897.69 545.355 1899.95 562.915 1900.87 580.734 C 1902.28 608.022 1901.42 635.659 1901.3 662.988 L 1900.8 793.698 A 6411.16 6411.16 0 0 0 1901.02 871.872 C 1901.1 886.209 1902.05 901.224 1900.5 915.487 C 1899.78 922.184 1897.56 928.685 1892.83 933.626 C 1887.42 939.267 1879.19 941.804 1871.71 943.378 C 1855.49 946.796 1837.95 946.719 1821.43 947.392 C 1785.04 948.873 1748.75 949.028 1712.34 949.038 C 1648.25 949.011 1584.62 950.653 1520.51 948.259 C 1502.47 947.585 1481.61 948.663 1463.98 944.768 C 1456.16 943.039 1449.58 940.36 1443.75 934.71 C 1406.33 898.423 1420.27 764.446 1422.01 712.341 C 1423.04 681.41 1422.76 650.712 1422.4 619.779 C 1422.03 589.199 1423.44 558.144 1446.31 535.058 C 1452.66 528.652 1459.84 524.622 1468.59 522.413 C 1486.33 517.934 1507.66 519.364 1526.01 519.171 L 1603.31 518.514 z"/>
<path transform="translate(0,0)" fill="rgb(254,254,254)" d="M 1493.06 532.491 A 20509.2 20509.2 0 0 1 1723.44 532.277 L 1799.47 532.527 C 1815.9 532.654 1832.81 532.252 1849.15 534.255 C 1858.59 535.414 1867.76 537.359 1875.16 543.835 C 1886.17 553.462 1888.12 574.285 1888.79 588.061 C 1890.08 614.599 1889.12 641.507 1889.01 668.089 L 1888.96 792.246 A 1623.69 1623.69 0 0 0 1889.92 858.137 C 1890.37 872.741 1891.71 887.984 1890.62 902.554 C 1890.08 909.816 1888.37 918.455 1883.07 923.842 C 1871.65 935.439 1844.04 933.862 1828.75 934.116 A 20732.5 20732.5 0 0 1 1574.71 935.356 A 4566.16 4566.16 0 0 1 1506.66 934.632 C 1495.88 934.435 1484.42 934.92 1473.74 933.508 C 1466.41 932.537 1459.62 930.047 1454.17 924.907 C 1436.05 907.812 1434.04 874.498 1433.02 851.332 C 1430.75 799.842 1434.88 749.114 1435.15 697.727 A 1920.65 1920.65 0 0 0 1434.37 634.145 C 1434 616.949 1432.8 597.694 1435.75 580.689 C 1437.84 568.614 1444.1 554.98 1452.55 546.081 C 1464.22 533.803 1477.19 532.899 1493.06 532.491 z"/>
<path transform="translate(0,0)" fill="rgb(0,0,0)" d="M 1714.15 601.127 C 1720.71 601.738 1728.13 603.769 1733.33 608.025 C 1736.22 610.39 1738.45 614.054 1738.63 617.846 C 1739.04 626.336 1733.08 631.099 1727.67 636.657 C 1761.33 659.241 1765.44 671.842 1781.87 706.593 C 1785.42 705.296 1788.97 704.029 1792.67 703.219 C 1798.38 701.968 1804.71 702.225 1809.64 705.735 C 1813.37 708.394 1815.56 712.543 1816.07 717.055 C 1816.73 722.915 1814.73 729.298 1810.85 733.735 C 1803.84 741.739 1792.58 742.56 1782.69 743.294 C 1780.21 761.647 1777.68 779.133 1768.84 795.637 A 228.33 228.33 0 0 1 1776.41 799.642 C 1781.38 802.452 1786.01 807.007 1787.36 812.737 C 1788.1 815.87 1787.61 819.113 1785.89 821.843 C 1782.98 826.483 1777.52 829.155 1772.33 830.305 C 1761.07 832.795 1753.19 828.394 1744.07 822.62 C 1727.82 832.907 1711.92 842.029 1694.51 850.235 A 420.053 420.053 0 0 1 1695.26 857.802 C 1695.92 865.194 1695.27 872.427 1690.04 878.243 C 1687.35 881.242 1683.73 883.338 1679.63 883.414 C 1675.09 883.499 1670.89 881.132 1667.82 877.924 C 1660.77 870.573 1660.88 862.38 1661 852.93 C 1651.83 852.687 1642.68 851.028 1633.74 849.106 C 1620.07 845.476 1608.56 840.626 1596.61 833.039 C 1591.12 841.641 1586.57 845.858 1577.06 849.508 C 1571.91 847.921 1567.13 846.479 1563.33 842.423 C 1560.22 839.109 1558.53 834.922 1558.91 830.361 C 1559.62 821.585 1565.53 816.23 1571.91 811.073 C 1562.37 797.743 1557.44 785.383 1552.79 769.766 C 1543.71 770.109 1535.41 770.843 1527.3 765.785 C 1522.81 762.985 1519.29 758.568 1518.44 753.256 A 15.6478 15.6478 0 0 1 1521.84 740.808 C 1528.59 732.573 1539.15 731.805 1548.96 730.95 C 1550.78 704.716 1559.89 686.335 1572.83 663.892 C 1570.28 659.991 1567.86 655.699 1566.1 651.384 C 1562.6 642.81 1561.23 632.77 1565.24 624.118 A 22.8065 22.8065 0 0 1 1578.73 611.982 C 1584.33 610.127 1590.43 610.427 1595.59 613.412 C 1603.84 618.186 1606.05 626.49 1608.43 635.015 C 1636.72 623.071 1664.4 622.793 1694.45 624.325 C 1696.25 620.286 1698.07 616.165 1700.23 612.304 C 1703.7 606.1 1707.38 603.133 1714.15 601.127 z"/>
<path transform="translate(0,0)" fill="rgb(254,254,254)" d="M 1568.98 708.719 C 1571.76 708.764 1573.29 709.124 1575.78 710.347 C 1576.89 711.816 1577.82 712.518 1578.02 714.423 C 1578.5 718.903 1576.3 721.766 1573.82 725.198 C 1572.87 725.212 1571.37 725.273 1570.48 725.105 C 1567.84 724.607 1567.05 723.529 1565.39 721.637 C 1564.19 716.063 1566.12 713.267 1568.98 708.719 z"/>
<path transform="translate(0,0)" fill="rgb(254,254,254)" d="M 1610.81 645.903 C 1612.75 645.558 1615.74 645.427 1617.58 646.396 C 1620.07 647.713 1620.02 648.615 1620.64 651.145 C 1618.95 657.298 1617.07 658.827 1611.63 661.95 C 1609.46 662.076 1607.03 661.978 1604.99 661.142 C 1602.5 660.118 1602.34 659.089 1601.6 656.77 C 1603.14 651.124 1606.16 649.129 1610.81 645.903 z"/>
<path transform="translate(0,0)" fill="rgb(254,254,254)" d="M 1740.15 785.996 C 1744.04 785.948 1745.62 786.127 1748.49 788.74 C 1749.45 791.444 1749.63 792.876 1748.59 795.625 C 1746.51 801.148 1742.84 803.716 1737.62 805.884 C 1734.94 805.105 1731.65 804.277 1729.82 801.99 C 1728.27 800.068 1727.75 797.855 1728.5 795.482 C 1730.11 790.36 1735.68 787.937 1740.15 785.996 z"/>
<path transform="translate(0,0)" fill="rgb(254,254,254)" d="M 1679.04 632.82 C 1681.13 633.197 1682.92 633.91 1684.89 634.701 C 1685.93 635.919 1686.88 637.024 1687.39 638.583 C 1688.73 642.708 1687.96 646.283 1686.12 650.084 C 1684.24 653.94 1682 654.994 1678.07 656.298 C 1675.23 655.494 1672.87 654.81 1670.91 652.443 C 1669.23 650.419 1669.04 647.984 1669.42 645.483 C 1670.21 640.207 1674.98 635.77 1679.04 632.82 z"/>
<path transform="translate(0,0)" fill="rgb(254,254,254)" d="M 1737.61 676.767 C 1740.75 677.159 1741.97 677.452 1744.54 679.52 C 1745.5 681.247 1746 682.283 1746.01 684.32 C 1746.04 690.674 1739.95 697.767 1735.6 701.779 C 1733.03 701.268 1730.58 701.029 1728.57 699.177 A 7.97679 7.97679 0 0 1 1725.98 692.704 C 1726.49 685.615 1732.41 680.705 1737.61 676.767 z"/>
<path transform="translate(0,0)" fill="rgb(254,254,254)" d="M 1656.05 690.21 C 1667.4 689.007 1677.69 690.6 1687.86 695.914 C 1700.06 702.285 1710.29 713.632 1714.29 726.918 C 1718.59 741.223 1714.9 757.569 1707.75 770.367 C 1699.13 785.798 1685.83 796.442 1668.77 801.137 C 1657.31 802.876 1646.54 801.191 1636.38 795.581 C 1623.18 788.298 1612.68 775.334 1608.67 760.768 A 52.6268 52.6268 0 0 1 1614.52 719.048 C 1624.02 703.658 1638.83 694.535 1656.05 690.21 z"/>
<path transform="translate(0,0)" fill="rgb(0,0,0)" d="M 219.52 1111.5 C 294.071 1110.17 368.663 1112.02 443.217 1111.82 L 528.774 1111.23 C 546.35 1111.25 565.083 1110.57 582.462 1113.33 C 590.307 1114.58 597.816 1118.14 603.998 1123.13 C 619.709 1135.79 627.052 1159.07 628.747 1178.45 C 629.986 1192.61 628.634 1206.85 627.857 1221 C 626.728 1241.55 625.381 1262.22 625.127 1282.8 C 624.571 1327.86 636.9 1498.51 610.237 1528.03 C 600.921 1538.35 562.798 1542.01 548.778 1543.29 A 170.332 170.332 0 0 1 541.299 1543.9 C 459.66 1549.49 376.752 1542.64 295.049 1540.52 A 3976.93 3976.93 0 0 0 225.601 1539.45 C 211.134 1539.29 195.891 1540.04 181.583 1537.73 C 172.294 1536.23 163.428 1531.58 156.49 1525.27 C 140.079 1510.35 141.778 1483 141.16 1462.37 C 139.198 1396.86 145.483 1332.08 148.498 1266.75 C 150.131 1231.35 147.999 1188.87 154.368 1154.77 C 156.42 1143.78 160.699 1132.63 168.668 1124.56 C 182.258 1110.78 201.705 1111.83 219.52 1111.5 z"/>
<path transform="translate(0,0)" fill="rgb(254,254,254)" d="M 227.663 1125.45 C 296.036 1123.39 364.84 1125.04 433.255 1125.13 A 4714.97 4714.97 0 0 1 521.492 1125.76 C 537.74 1125.87 554.661 1125.02 570.821 1126.47 C 577.163 1127.05 585.772 1128.3 590.984 1132.09 C 602.6 1140.52 608.877 1157.08 610.869 1170.92 C 615.578 1203.61 608.426 1240.69 607.897 1273.95 C 607.23 1315.85 617.1 1488.83 598.434 1512.01 C 588.663 1524.14 551.509 1523.59 535.698 1524.89 C 496.719 1525.28 457.702 1528.02 418.692 1528.7 C 371.754 1529.52 324.85 1528.19 277.919 1527.62 C 250.111 1527.28 209.627 1529.27 183.58 1524.27 C 175.26 1522.67 169.607 1519.98 163.236 1514.38 C 154.745 1506.91 154.083 1495.96 153.272 1485.37 C 147.33 1407.64 149.593 1328.74 153.945 1250.99 C 155.457 1223.96 155.698 1195.41 160.8 1168.86 C 162.655 1159.2 165.876 1145.9 172.661 1138.54 C 185.494 1124.61 210.28 1126.25 227.663 1125.45 z"/>
<path transform="translate(0,0)" fill="rgb(0,0,0)" d="M 331.599 1180.42 C 351.161 1178.66 373.604 1181.26 392.073 1188.05 C 418.919 1197.91 441.254 1217.32 453.21 1243.45 C 467.915 1275.58 457.918 1304.46 446.41 1335.69 C 468.338 1368.57 536.098 1447.86 544.887 1479.05 C 540.417 1485.34 535.356 1489.73 529.241 1494.34 C 520.687 1500.79 500.906 1515.51 489.573 1513.25 C 480.349 1511.42 469.135 1490.01 463.815 1482.18 C 441.994 1448.6 420.521 1414.92 398.134 1381.71 C 379.151 1389.37 360.006 1395.53 339.443 1397.03 C 308.791 1399.26 275.626 1390.33 252.298 1369.7 A 96.4544 96.4544 0 0 1 220.508 1304.64 C 218.488 1271.96 232.621 1242.48 253.92 1218.49 C 276.827 1192.69 297.243 1182.54 331.599 1180.42 z"/>
<path transform="translate(0,0)" fill="rgb(254,254,254)" d="M 435.962 1350.72 C 445.867 1356.95 520.458 1459.42 527.081 1473.2 C 518.437 1481.49 507.117 1488.28 497.327 1495.21 C 495.757 1496.29 494.89 1496.73 492.987 1496.92 C 484.548 1488.82 477.676 1476.49 470.883 1466.85 C 449.464 1436.47 429.486 1405.19 408.153 1374.79 C 418.311 1367.51 427.338 1359.77 435.962 1350.72 z"/>
<path transform="translate(0,0)" fill="rgb(0,0,0)" d="M 438.451 1383.51 C 442.654 1385.68 446.587 1388.96 450.522 1391.61 C 474.904 1408.06 482.196 1422.86 498.676 1445.94 C 502.298 1451.01 510.289 1459.63 511.569 1465.67 C 512.223 1468.75 510.81 1470.3 509.383 1472.79 C 505.565 1474.85 503.355 1476.13 499.013 1474.83 C 492.73 1468.29 487.944 1459.67 482.652 1452.28 C 466.694 1429.99 449.43 1408.85 438.451 1383.51 z"/>
<path transform="translate(0,0)" fill="rgb(254,254,254)" d="M 327.563 1194.41 C 351.218 1191.11 384.511 1195.2 405.013 1208.37 C 424.027 1220.57 440.579 1240.97 445.336 1263.38 C 450.515 1287.78 442.209 1314.21 428.697 1334.56 C 410.627 1361.78 383.68 1374.53 352.528 1380.79 A 290.133 290.133 0 0 1 340.998 1382.32 C 312.629 1385.22 284.05 1378.91 261.773 1360.55 C 246.12 1347.65 237.699 1330.27 235.878 1310.17 C 233.124 1279.8 241.637 1252.21 261.264 1229.02 C 280.094 1206.76 298.636 1196.74 327.563 1194.41 z"/>
<path transform="translate(0,0)" fill="rgb(0,0,0)" d="M 324.357 1207.35 C 346.308 1206.19 379.211 1215.49 398.273 1226.12 C 414.659 1235.26 428.134 1249.68 433.235 1268.01 C 437.694 1284.04 436.318 1301.72 427.839 1316.2 C 414.41 1339.13 386.29 1350.94 361.743 1357.33 A 153.677 153.677 0 0 1 348.919 1359.65 C 324.915 1362.98 298.779 1359.01 279.256 1343.83 C 264.305 1332.2 252.34 1311.88 250.263 1292.97 C 248.097 1273.25 256.804 1254.15 268.95 1239.11 C 283.358 1221.27 301.354 1209.71 324.357 1207.35 z"/>
<path transform="translate(0,0)" fill="rgb(254,254,254)" d="M 323.819 1222.35 C 344.553 1220.34 370 1225.72 388.294 1235.63 C 402.848 1243.51 414.389 1255.52 418.782 1271.87 A 47.6438 47.6438 0 0 1 413.67 1308.38 C 401.903 1328.23 380.271 1336.59 359.083 1342.17 C 335.748 1346.38 311.022 1346.73 290.732 1332.52 C 277.744 1323.43 267.522 1308.88 265.093 1293.07 C 262.784 1278.05 268.302 1263.64 277.292 1251.82 C 288.779 1236.73 304.765 1224.98 323.819 1222.35 z"/>
<path transform="translate(0,0)" fill="rgb(0,0,0)" d="M 1561.77 1103.46 C 1611.27 1102 1661.76 1101.53 1711.24 1103.12 C 1737.84 1103.97 1764.3 1106.23 1790.87 1107.49 C 1813.48 1108.56 1837.5 1106.21 1859.82 1109.58 C 1867.27 1110.71 1875.45 1112.63 1881.22 1117.69 C 1888.47 1124.05 1893.24 1133.06 1895.71 1142.3 C 1901.22 1162.95 1898.36 1186.06 1899.1 1207.29 C 1899.88 1229.57 1901.82 1251.89 1903.17 1274.15 A 2766.52 2766.52 0 0 1 1909.13 1431.82 C 1909.2 1450.9 1910.57 1471.37 1907.11 1490.17 C 1904.99 1501.74 1900.42 1514.1 1892.36 1522.85 C 1887.08 1528.58 1879.87 1531.93 1872.42 1533.83 C 1847.38 1540.23 1787.57 1538.65 1759.05 1539.24 L 1667.05 1541.58 C 1621.64 1542.93 1471.68 1552.05 1439.87 1521.26 C 1406.95 1489.39 1423.56 1349.12 1424.13 1304.98 C 1424.62 1267.01 1422.97 1228.4 1421.39 1190.47 C 1420.45 1168.09 1421.74 1140.31 1438.17 1123.06 A 51.6255 51.6255 0 0 1 1461.88 1109.08 C 1481.15 1103.71 1538.35 1104.25 1561.77 1103.46 z"/>
<path transform="translate(0,0)" fill="rgb(254,254,254)" d="M 1578.67 1115.44 C 1646.17 1111.95 1714.18 1116.88 1781.6 1119.75 C 1805.21 1120.76 1829.29 1118.65 1852.77 1121.53 C 1859.33 1122.33 1869.23 1123.85 1874.23 1128.34 C 1880.84 1134.27 1884.71 1142.88 1887.11 1151.31 C 1894.59 1177.63 1894.89 1229.38 1896.22 1258.3 C 1898.93 1317.67 1900.32 1377.84 1898.23 1437.25 C 1897.59 1455.2 1897.84 1474.74 1893.89 1492.32 C 1892.04 1500.58 1888.43 1508.23 1882.51 1514.37 C 1877.32 1519.75 1868.88 1522.48 1861.7 1523.71 C 1847.04 1526.22 1831.03 1524.95 1816.17 1524.96 A 1472.9 1472.9 0 0 0 1752.76 1526.02 C 1694.11 1527.48 1494.26 1535.84 1450.78 1511.85 C 1438.8 1494.53 1437.33 1471.73 1436.17 1451.38 C 1434.92 1429.36 1434.31 1407.05 1435.32 1385.01 C 1436.5 1359.14 1439.16 1333.1 1439.13 1307.22 C 1439.09 1279.88 1438.91 1252.32 1438.01 1225 C 1437.31 1203.85 1434.31 1181.97 1437.02 1160.89 C 1438.48 1149.51 1442.86 1138.88 1450.75 1130.4 C 1455.16 1125.66 1461.32 1122.99 1467.56 1121.53 C 1480.47 1118.5 1495.11 1119.02 1508.35 1118.43 L 1578.67 1115.44 z"/>
<path transform="translate(0,0)" fill="rgb(0,0,0)" d="M 1595.73 1340.26 C 1600.71 1340.41 1604.93 1340.7 1609.54 1342.71 C 1619.86 1347.2 1629.98 1355.46 1634.03 1366.25 C 1637.07 1374.35 1636.29 1383.34 1632.41 1391.01 C 1626.2 1403.26 1615.14 1408.81 1602.8 1413.07 C 1594.46 1415.38 1585.42 1416.19 1577.58 1411.79 C 1570.88 1408.03 1566.84 1401.18 1565.13 1393.85 C 1562.12 1380.96 1565.93 1365.98 1573.22 1355.12 C 1578.91 1346.65 1585.8 1342.14 1595.73 1340.26 z"/>
<path transform="translate(0,0)" fill="rgb(0,0,0)" d="M 1658.51 1168.38 C 1682.14 1166.26 1702.63 1171.02 1724.27 1180.39 C 1768.7 1199.64 1801.4 1230.96 1819.12 1276.31 C 1835.65 1318.6 1836.15 1373.95 1817.39 1415.64 C 1808.64 1435.1 1794.02 1451.73 1773.68 1459.36 C 1765.44 1462.45 1756.01 1464.46 1747.72 1460.42 C 1715.42 1444.67 1737.9 1392.77 1739.86 1367.37 C 1741.11 1351.1 1738.63 1335.29 1732.95 1320.02 A 118.484 118.484 0 0 0 1670.64 1252.58 C 1653.13 1244.74 1627.85 1239.18 1609.37 1246.85 C 1603.28 1249.38 1594.64 1259.76 1592.31 1266.08 C 1591.53 1268.17 1591.51 1269.14 1592.46 1271.21 C 1598.34 1273.4 1608.1 1268.97 1614.6 1268.7 C 1640.81 1267.63 1670.81 1280.9 1689.15 1299.22 C 1704.83 1314.88 1711.96 1333.86 1711.79 1355.97 C 1711.62 1377.11 1704.34 1399.15 1688.64 1413.99 C 1685.8 1416.68 1682.29 1418.94 1678.21 1418.6 C 1663.04 1417.35 1667.72 1381.55 1665.04 1370.29 C 1662 1357.52 1655.06 1345.37 1646.28 1335.68 C 1630.55 1318.3 1607.3 1310.04 1584.32 1308.91 C 1567.43 1308.09 1546.56 1310.03 1533.67 1322.17 C 1522.09 1333.09 1517.14 1351.15 1516.96 1366.64 C 1516.71 1389.11 1523.93 1410.69 1539.92 1426.76 C 1561.71 1448.69 1598.6 1454.65 1626.81 1442.25 C 1633.25 1439.41 1641.25 1430.54 1648.25 1431.02 C 1650.01 1431.15 1650.08 1431.85 1651.14 1433.07 C 1651.25 1436.59 1650.11 1438.83 1647.88 1441.49 C 1637.04 1454.42 1616.96 1457.15 1601.24 1458.73 C 1580.17 1459.65 1559.04 1455.39 1542.13 1442.27 C 1521.85 1426.53 1508.84 1401.35 1505.9 1376 C 1503.54 1355.71 1508.54 1331.69 1521.76 1315.69 C 1531.96 1303.35 1546.25 1298.28 1561.73 1297.01 C 1592.37 1294.51 1622.92 1302.05 1646.41 1322.43 C 1671.37 1344.07 1677.1 1372.35 1679.13 1403.81 C 1688.82 1394.16 1695.86 1382.51 1698.46 1368.99 C 1702.04 1350.45 1698.69 1329.35 1687.93 1313.65 C 1672.93 1291.76 1639.92 1276.69 1613.53 1279.77 C 1604.6 1280.82 1593.04 1285.62 1584.2 1283.95 C 1580.88 1281.27 1578.44 1278.74 1577.73 1274.37 C 1576.52 1266.9 1581.02 1258.75 1585.47 1253.1 C 1594.24 1241.97 1607.99 1235.63 1621.9 1234 C 1649.61 1230.74 1677.95 1242.67 1699.44 1259.53 C 1734.27 1286.83 1753.81 1335.37 1750.21 1379.32 C 1749.3 1390.4 1743.68 1403.48 1745.03 1414.24 C 1747.1 1415.31 1748.15 1415.33 1750.4 1414.57 C 1761.54 1410.81 1769.9 1400.82 1774.7 1390.44 C 1786.42 1365.05 1785.01 1332.57 1775.48 1306.78 C 1762.22 1270.87 1736.36 1243.07 1701.51 1227.22 C 1670.74 1213.22 1637.72 1214.57 1606.58 1226.54 C 1591.78 1232.24 1577.67 1239.54 1562.74 1245.1 C 1557.95 1246.89 1550.74 1249.06 1545.95 1246.26 C 1543.4 1244.77 1542.19 1242.03 1541.77 1239.23 C 1540.45 1230.46 1545.03 1222.14 1550.26 1215.47 C 1570.8 1189.26 1626.59 1172.02 1658.51 1168.38 z"/>
<path transform="translate(0,0)" fill="rgb(254,254,254)" d="M 1662.72 1179.41 C 1688.88 1175.35 1719.98 1186.91 1742.43 1199.3 C 1779.05 1219.5 1804.56 1254.56 1815.85 1294.51 C 1826.74 1333 1826.97 1383.9 1806.65 1419.52 C 1798.69 1433.47 1785.92 1446.16 1770 1450.24 C 1763.79 1451.84 1755.51 1452.9 1749.85 1449.09 C 1743.42 1444.76 1742.36 1435.84 1740.97 1428.85 C 1746.36 1429.19 1751.26 1429.53 1756.38 1427.53 C 1771.28 1421.69 1779.27 1406.13 1785.44 1392.39 C 1789.25 1380.64 1791.25 1369.17 1791.73 1356.82 C 1793.3 1316.51 1778.23 1280.81 1750.88 1251.55 C 1712.66 1210.66 1658.41 1194.24 1605.86 1216.12 C 1593.23 1221.37 1568.7 1235.35 1555.77 1234.95 L 1554.4 1232.57 C 1554.14 1227.73 1556.55 1224.3 1559.52 1220.68 C 1580.37 1195.29 1631.49 1182.29 1662.72 1179.41 z"/>
<path transform="translate(0,0)" fill="rgb(0,0,0)" d="M 1039.06 1102.5 A 4425.37 4425.37 0 0 1 1098.12 1101.78 C 1140.08 1101.42 1202.95 1099.07 1235.92 1128.79 C 1242.85 1135.05 1248.59 1144 1250.98 1153.07 C 1256.63 1174.55 1252.39 1205.01 1253.1 1227.77 C 1253.8 1250.22 1256.32 1272.62 1257.06 1295.06 C 1258.51 1339.01 1253.55 1382.91 1252 1426.77 C 1251.2 1449.35 1253.45 1483.15 1249.75 1504.14 C 1248.09 1513.61 1244.22 1522.85 1237.44 1529.8 C 1229.65 1537.77 1219.03 1542 1208.42 1544.74 C 1174 1553.64 1135.74 1552.83 1100.43 1553.41 A 7243.71 7243.71 0 0 1 994.988 1554.41 C 962.602 1554.32 930.213 1553.48 897.827 1553.63 C 872.23 1553.74 845.524 1555.78 820.129 1552.58 C 811.474 1551.49 799.517 1549.23 793.109 1542.98 C 782.291 1532.41 779.876 1516.56 779.512 1502.11 C 779.019 1482.5 781.347 1462.55 781.963 1442.92 C 782.788 1416.61 782.24 1390.18 781.999 1363.85 L 780.365 1235 C 780.036 1208.8 778.366 1181.6 781.429 1155.53 C 782.819 1143.69 785.591 1132.36 794.283 1123.61 C 800.375 1117.48 806.793 1115.24 815.098 1113.54 C 835.454 1109.37 858.532 1110.44 879.404 1109.2 A 3235.12 3235.12 0 0 1 1039.06 1102.5 z"/>
<path transform="translate(0,0)" fill="rgb(254,254,254)" d="M 1022.96 1115.45 C 1044.62 1114.31 1066.62 1114.78 1088.31 1114.79 C 1128.02 1114.8 1193.21 1110.68 1224.78 1138.2 C 1235.14 1147.22 1236.62 1159.45 1237.46 1172.46 C 1238.59 1189.98 1237.01 1207.58 1237.3 1225.12 C 1237.78 1253.3 1240.92 1281.39 1240.67 1309.62 C 1240.35 1345.52 1236.45 1381.38 1235.21 1417.27 A 1822.6 1822.6 0 0 0 1234.64 1467.52 C 1234.62 1478.21 1235.17 1489.28 1233.5 1499.87 C 1232.49 1506.22 1229.59 1512.65 1225.18 1517.37 C 1218.97 1524.04 1208.41 1527.28 1199.68 1529.16 C 1170.04 1535.56 1137.95 1534.96 1107.72 1535.88 L 1005.09 1539.07 C 967.245 1540.67 929.253 1540.59 891.379 1540.99 C 869.373 1541.21 845.759 1543.19 823.938 1540.68 C 817.438 1539.93 808.577 1538.32 803.624 1533.92 C 795.241 1526.48 793.106 1514.35 792.214 1503.73 C 789.099 1466.63 793.041 1422.41 792.655 1384.36 L 792 1243.32 C 791.841 1216.91 789.768 1189.91 792.091 1163.6 C 792.98 1153.52 794.771 1141.55 801.753 1133.78 C 806.472 1128.53 815.56 1126.87 822.311 1125.76 C 841.988 1122.53 863.588 1123.46 883.554 1122.31 A 4164.58 4164.58 0 0 1 1022.96 1115.45 z"/>
<path transform="translate(0,0)" fill="rgb(0,0,0)" d="M 1156.65 1199.42 C 1160.09 1199.22 1163.56 1198.96 1167.01 1198.95 C 1173.59 1198.92 1180.39 1200.47 1184.98 1205.52 C 1200.52 1222.57 1199.29 1338.17 1199.88 1366.43 C 1200.39 1391.43 1202.2 1417.17 1200.7 1442.12 C 1200.12 1451.81 1198.14 1462.97 1190.31 1469.49 C 1185.43 1473.55 1179.45 1475.81 1173.26 1476.91 C 1152.16 1480.65 1126.8 1477.51 1105.14 1477.92 C 1074.41 1478.49 1043.74 1481 1013.02 1481.36 C 969.836 1481.86 926.795 1479.23 883.757 1475.85 C 873.339 1475.87 857.386 1473.47 849.25 1466.51 C 845.472 1463.27 843.522 1459.05 842.183 1454.34 C 838.856 1442.65 838.81 1429.44 837.883 1417.31 A 1215.88 1215.88 0 0 1 835.166 1286.39 C 835.657 1267.18 838.065 1247.1 836.695 1227.97 C 836.664 1227.53 836.623 1227.09 836.587 1226.66 C 846.476 1216.37 856.427 1210.03 870.45 1206.85 C 903.411 1199.37 963.359 1203.96 998.885 1204.11 C 1051.72 1204.34 1103.93 1202.95 1156.65 1199.42 z"/>
<path transform="translate(0,0)" fill="rgb(254,254,254)" d="M 1174.62 1222.28 C 1176.14 1222.78 1177.19 1222.71 1178.08 1224.16 C 1182.4 1231.23 1182.92 1243.15 1184.53 1251.26 A 495.689 495.689 0 0 1 1186.72 1439.04 A 1845.28 1845.28 0 0 1 1136.94 1392.5 C 1117.51 1373.9 1083.93 1343.4 1069.25 1322.6 C 1082.99 1302.2 1105.88 1285.24 1124.05 1268.83 C 1141.06 1253.47 1157.59 1237.61 1174.62 1222.28 z"/>
<path transform="translate(0,0)" fill="rgb(254,254,254)" d="M 850.636 1238.55 C 859.912 1242.03 868.804 1247.42 877.427 1252.29 C 914.678 1273.3 951.012 1300.08 977.923 1333.75 C 963.707 1355.43 936.246 1377.51 916.718 1395.18 C 896.69 1413.12 877.313 1432.44 855.06 1447.6 C 839.73 1396.6 843.07 1303.19 846.506 1248.88 C 846.818 1243.93 846.751 1241.98 850.636 1238.55 z"/>
<path transform="translate(0,0)" fill="rgb(254,254,254)" d="M 1157.23 1210.46 C 1159.59 1210.41 1160.05 1209.99 1162.05 1211.4 C 1162.54 1215.19 1160.12 1218.17 1157.98 1221.09 C 1146.78 1236.39 1131.21 1249.08 1117.22 1261.77 L 1062.3 1311.72 C 1052.31 1320.81 1043.38 1331.73 1032.94 1340.13 C 1030.05 1342.45 1027.77 1343.91 1024.01 1344.41 C 1017.81 1345.24 1012.18 1343.8 1006.74 1340.8 C 992.971 1333.19 980.341 1318.7 968.944 1307.92 C 957.085 1296.7 945.044 1285.94 932.255 1275.79 C 920.754 1266.71 861.128 1231.2 857.694 1225.39 L 858.365 1223.66 C 866.813 1217.1 881.16 1215.39 891.571 1214.37 C 925.28 1211.09 960.27 1212.88 994.133 1213.01 C 1048.58 1213.22 1102.84 1213.12 1157.23 1210.46 z"/>
<path transform="translate(0,0)" fill="rgb(254,254,254)" d="M 1060.57 1333.2 C 1061.06 1333.49 1061.58 1333.73 1062.05 1334.05 C 1083.71 1349 1110.38 1379.98 1129.32 1399.53 C 1142.24 1412.86 1156.85 1426.02 1168.25 1440.61 C 1171.39 1444.62 1175.48 1450.38 1175.71 1455.65 C 1175.82 1458.25 1175.21 1460.38 1173.29 1462.24 C 1169.82 1465.6 1164.28 1465.98 1159.72 1466.29 C 1143.46 1467.42 1127.09 1464.57 1110.78 1465.15 C 1064.26 1466.81 1017.85 1470.81 971.25 1469.45 C 952.504 1468.99 884.651 1469.81 871.089 1459.75 C 871.145 1455.12 877.976 1448.24 880.832 1444.84 C 905.667 1415.27 932.084 1395.49 959.552 1369.56 C 968.523 1361.09 976.658 1352.13 984.566 1342.69 C 994.749 1348.27 1001.28 1358.94 1013.94 1359.66 C 1031.89 1360.68 1048.5 1344.5 1060.57 1333.2 z"/>
<path transform="translate(0,0)" fill="rgb(0,0,0)" d="M 264.636 520.477 C 324.817 519.081 385.333 520.28 445.557 520.22 C 486.889 520.179 537.115 517.345 577.329 522.958 C 591.691 524.963 607.844 528.496 618.727 538.633 C 626.825 546.176 630.89 555.553 632.421 566.398 C 634.217 579.123 632.999 592.803 632.628 605.622 A 3134.66 3134.66 0 0 0 631.196 666.429 A 3810.29 3810.29 0 0 0 633.277 871.997 C 633.991 897.108 635.84 928.626 616.787 947.968 C 595.94 969.132 546.155 963.93 518.25 963.9 C 446.9 965.232 375.587 968.691 304.222 969.185 C 273.02 969.401 241.571 970.828 210.481 967.526 C 196.04 965.993 171.729 962.845 160.508 952.601 C 150.452 943.419 150.074 925.119 149.752 912.461 C 148.93 880.088 150.01 847.572 150.436 815.198 A 9357.38 9357.38 0 0 0 150.622 709.735 L 149.912 628.199 C 149.726 609.331 148.614 589.67 151.336 570.96 C 153.209 558.09 157.357 546.247 166.598 536.684 C 183.854 518.827 207.09 520.608 229.866 520.716 A 1572.26 1572.26 0 0 0 264.636 520.477 z"/>
<path transform="translate(0,0)" fill="rgb(254,254,254)" d="M 459.606 533.461 C 493.854 532.218 554.386 530.224 586.328 537.715 C 595.633 539.898 605.1 543.427 612.26 549.955 C 625.979 562.462 625.416 584.935 626.061 602.098 C 628.42 664.892 623.835 728.118 623.088 790.951 C 622.661 826.863 626.876 873.611 621.985 907.612 C 620.405 918.602 616.606 929.82 608.715 937.929 C 601.886 944.946 593.578 947.392 584.191 948.94 C 558.05 953.251 529.242 950.603 502.69 950.978 C 480.348 951.293 458.018 952.467 435.674 952.818 C 402.545 953.339 369.36 953.049 336.224 953.105 C 308.181 953.28 194.742 958.281 175.007 941.021 C 166.817 933.857 168.093 913.178 167.611 902.845 C 166.666 882.57 167.176 862.114 167.282 841.82 A 8956.67 8956.67 0 0 0 168.052 719.863 L 167.162 627.893 C 166.998 610.353 165.809 592.135 167.789 574.711 C 168.932 564.647 171.702 553.836 178.959 546.374 C 184.14 541.047 193.742 537.436 201.005 536.515 C 222.827 533.747 251.723 537.037 274.552 536.786 L 459.606 533.461 z"/>
<path transform="translate(0,0)" fill="rgb(0,0,0)" d="M 390.985 615.092 C 407.629 616.104 440.817 649.559 453.995 661.281 C 454.235 652.3 452.345 633.542 458.218 626.588 C 460.927 623.38 464.81 622.61 468.821 622.21 C 473.208 621.772 477.472 622.84 480.778 625.84 C 490.743 634.883 487.276 675.036 487.74 689.475 C 499.405 701.019 535.853 736.134 536.51 751.076 C 536.646 754.174 535.756 757.073 533.427 759.243 C 527.609 764.663 518.636 763.321 511.419 762.829 A 712.175 712.175 0 0 1 512.947 793.439 C 513.368 809.712 515.695 842.588 512.621 857.206 C 511.612 862.006 509.615 866.379 506.102 869.86 C 491.112 884.715 440.348 880.242 419.579 880.431 C 392.165 881.359 364.928 883.862 337.55 885.092 C 319.907 885.884 293.143 888.284 279.511 875.136 C 276.506 872.238 274.372 868.715 273.463 864.627 C 269.826 848.282 272.713 830.08 273.075 813.461 C 273.405 798.299 273.001 783.099 272.752 767.937 C 269.869 769.018 266.952 770.184 263.996 771.049 C 259.546 772.35 254.738 772.663 250.596 770.239 C 247.8 768.602 245.706 766.189 245.056 762.936 C 244.158 758.437 246.656 752.89 248.901 749.125 C 259.152 731.935 276.766 717.315 291.078 703.376 A 2158.11 2158.11 0 0 1 353.956 643.659 C 362.204 635.999 370.116 626.747 379.177 620.108 C 382.807 617.448 386.692 616.264 390.985 615.092 z"/>
<path transform="translate(0,0)" fill="rgb(254,254,254)" d="M 384.844 661.109 C 406.098 668.739 439.922 703.81 457.32 719.516 A 1106.3 1106.3 0 0 0 500.937 757.079 A 409.32 409.32 0 0 1 502.79 786.654 C 503.003 798.135 502.909 856.805 495.759 862.245 C 486.027 869.647 415.155 867.02 398.748 867.254 C 373.74 868.236 348.564 870.743 323.561 870.862 C 314.676 870.904 296.73 870.989 290.452 863.892 C 287.527 860.586 286.332 854.669 285.893 850.419 C 285.034 842.106 285.99 833.305 285.817 824.912 C 285.354 802.457 284.314 780.188 285.386 757.73 C 315.74 722.557 349.338 690.932 384.844 661.109 z"/>
</svg>