<svg xmlns="http://www.w3.org/2000/svg" display="block" viewBox="0 0 2048 2048"><defs><linearGradient id="a" x1="1045.51" x2="1199.47" y1="687.136" y2="835.591" gradientUnits="userSpaceOnUse"><stop class="stop0" offset="0" stop-color="#92937d"/><stop class="stop1" offset="1" stop-color="#bcba94"/></linearGradient><linearGradient id="b" x1="428.082" x2="414.367" y1="332.82" y2="370.749" gradientUnits="userSpaceOnUse"><stop class="stop0" offset="0" stop-color="#fbfbb5"/><stop class="stop1" offset="1" stop-color="#fffedf"/></linearGradient><linearGradient id="c" x1="384.301" x2="380.571" y1="1998.63" y2="2045.94" gradientUnits="userSpaceOnUse"><stop class="stop0" offset="0" stop-color="#383638"/><stop class="stop1" offset="1" stop-color="#505050"/></linearGradient><linearGradient id="d" x1="1898.08" x2="1903.98" y1="1998.92" y2="2048.55" gradientUnits="userSpaceOnUse"><stop class="stop0" offset="0" stop-color="#54554e"/><stop class="stop1" offset="1" stop-color="#6a6d5c"/></linearGradient></defs><path fill="#cb964e" d="M0 0h2048v2048H0z"/><path fill="#f4b774" d="m2044.48 36.529 3.52-5.919v16.857c-2.31-2.85-2.74-7.408-3.52-10.938"/><path fill="#272428" d="M2048 450.674v9.066c-4.23 4.07-8.57 8.04-12.85 12.053a590 590 0 0 1 12.85-21.119M748.429 986.835c13.116-8.326 24.235-16.969 35.306-27.88-2.673 7.269-11.87 11.625-11.176 19.341a225 225 0 0 1-24.13 8.539"/><path fill="#fefcf5" d="M1312.4 1087.1c.06-.15.07-.33.18-.45 3.06-3.46 32.51-6.57 38.66-7.07l1.6 1.63c-.8 2.23-1.12 2.19-3.16 3.47-12.46.3-24.71 2.39-37.28 2.42m32.96-17.22c12.96-2.53 25.29-6.55 37.85-10.53 1.99 2.84.17 4.43 2.53 6.77l.21.71c-13.41 2.95-26.91 3.72-40.59 3.05"/><path fill="#272428" d="M734.75 682.623c8.046 7.816 14.998 38.375 16.881 49.615-9.339-8.41-15.279-37.255-16.881-49.615m39.841 326.317c.765 6.92-9.153 26.64-5.887 30.56 2.17-.98 2.782-1.76 4.32-3.51l2.526-.57c-8.241 11.67-18.918 23.04-29.154 33.01l.702-1.2-1.75-.33 1.816.11c13.077-17.73 20.024-37.56 27.427-58.07"/><path fill="#fefcf5" d="M1116.72 1269.28c-10.19.27-44.66-12.68-52.83-18.59 8.97.92 23.69 6.86 31.82 3.85 7.14 4.75 14.24 9.48 21.01 14.74m-158.073 90.45c.107.07.223.12.32.19 17.129 13.38 37.616 22.43 55.853 34.28-5.12-.35-10.5-1.57-15.3-3.41-13.664-5.23-34.745-17.26-40.873-31.06"/><path fill="#39333e" d="M2030.83 0H2048v30.61l-3.52 5.919c-4.17 7.393-8.68 14.367-13.54 21.325.98-3.125 2.31-6.084 3.56-9.106 8.6-20.792 4.45-29.141-3.67-48.748M527.006 1302.03c4.117-.58 8.413-.83 12.235 1.02.705 1.14 1.432 1.55.969 2.96-2.503 7.62-29.355 19.28-37.724 23.82-3.755 2.28-7.727 4.25-11.611 6.31 9.153-12.36 22.526-26.67 36.131-34.11"/><path fill="#272428" d="M716.419 434.978c.612 6.632-48.258 97.028-54.962 110.255-.798-21.137 41.151-90.862 54.962-110.255"/><path fill="#c8803c" d="M1312.4 1087.1c12.57-.03 24.82-2.12 37.28-2.42-8.8 10.37-37 12.01-49.65 13.07-7.66.63-15.93.53-23.44 1.98-12.9-1.71-26.57-6.2-39.27-9.27 14.45-7.52 61.9 3.14 75.08-3.36"/><path fill="#39333e" d="M567.556 1234.06c5.184-.3 9.995.28 14.711 2.6 4.734 2.33 8.477 6.43 9.882 11.57 1.61 5.89.056 12.15-3.151 17.22-4.347 6.87-10.571 10.73-18.384 12.41-5.367.11-11.165.07-15.96-2.7-6.131-3.55-8.06-9.18-9.919-15.65.806-3.27 1.763-6.5 3.278-9.52 4.346-8.68 10.589-12.85 19.543-15.93m725.994-322.975c0 .372.05.748 0 1.117-1.74 13.327-16.53 30.886-26.91 38.71-22.2 16.74-52.52 14.049-78.43 10.633l-1.17-.569-.16-1.183c35.83-10.276 78.39-23.732 106.67-48.708m-91.59 85.478-.22 1.47c-6.73 9.097-18.12 17.087-28.94 20.227-19 5.5-38.49.82-55.27-8.6-4.57-3.27-8.44-6.46-12.28-10.581 32.38-4.727 64.41.341 96.71-2.516M638.165 1487.11c7.157-.25 15.28.16 21.818 3.39 4.036 2 7.702 5.09 9.073 9.52 1.024 3.31.531 6.83-1.073 9.87-4.032 7.63-13.28 11.4-21.089 13.79-7.177 1.62-14.761 1.21-21.491-2.01-4.63-2.22-8.83-6.05-10.36-11.06-1.126-3.69-.604-7.61 1.318-10.94 4.58-7.94 13.544-10.41 21.804-12.56m396.785-405.46c6.22 2.25 12.42 5.93 18.43 8.81 13.75 6.6 27.49 13.24 41.33 19.64 21.69 10.03 45.13 17.88 65.95 29.51-18.56 3.5-44.17-.44-62.04-6.08-26.39-8.32-50.65-27.21-63.67-51.88M795.495 336.834c.312 2.226-.406 3.727-1.381 5.679-15.95 31.947-33.826 62.854-50.663 94.315-17.155 32.054-33.181 64.564-48.806 97.362-.037-.263-.097-.523-.112-.788-.494-8.248 4.276-19.787 6.599-27.876a429.16 429.16 0 0 1 94.363-168.692M718.713 1464.08c10.309-.16 20.71 2.12 30.297 5.87 5.713 2.23 12.693 5.69 15.056 11.81a11.38 11.38 0 0 1-.539 9.44c-3.703 7.12-15.476 11.95-22.812 14.09-11.562 3.18-25.115 3.05-35.963-2.49-4.659-2.38-9.173-6.05-10.672-11.27-1.145-3.99-.382-7.99 1.631-11.57 4.506-8 14.485-13.37 23.002-15.88m25.722-931.22c4.407 5.908 6.373 27.33 10.07 36.29 10.713 25.969 26.717 52.17 38.318 78.51-6.671-6.887-11.318-14.776-16.318-22.872.409 7.146.451 14.343.64 21.499.113 11.056-1.647 22.231-3.282 33.139-25.341-35.879-32.505-64.217-30.793-107.983.483-12.332 2.497-25.213 1.468-37.524-.03-.354-.069-.706-.103-1.059m76.989-216.538c6.645-13.59 13.794-27.15 21.928-39.913l.385.68c-11.844 33.278-17.488 51.652-15.06 87.865.497 7.419.67 15.328 2.248 22.586l-.053.89c-.623 9.253-2.82 18.354-3.512 27.587-.754 10.073.508 21.325 1.455 31.392-2.868 34.519 5.558 95.238 15.943 128.351-17.77-26.838-23.795-59.508-27.721-90.793-3.107 22.866-5.887 66.27-1.121 88.216.839 3.862 3.097 7.678 4.911 11.169-8.829-10.898-17.174-22.339-23.496-34.901-17.186-34.152-18.469-75.377-6.342-111.393.691 13.065 2.461 31.889 10.916 42.584 1.36 1.72.618 1.215 2.891 1.447 2.483-3.617 4.391-44.704 3.752-51.083-.565-5.644-2.442-11.449-3.691-16.989a117.8 117.8 0 0 1-2.493-35.183c1.765-21.723 10.602-42.644 19.06-62.512M1191.7 0h49.39c-82.85 43.053-183.21 104.525-246.194 173.472-8.559 9.37-20.117 20.677-24.175 32.885-.161.483-.302.972-.451 1.459-51.1 39.174-96.983 82.264-124.845 141.463-.351-2.138-.311-4.158.042-6.291 4.831-29.236 48.392-83.693 66.694-107.813 10.11-13.323 19.052-27.468 29.03-40.875 19.778-26.575 56.98-68.359 83.759-86.487-9.74 13.211-21.24 25.309-31.783 37.895-17.618 21.023-35.191 44.094-49.804 67.28l79.287-80.821c19.43-19.636 38.33-38.923 59.66-56.513 34.61-28.541 72.16-51.01 109.39-75.654m-117.66 1069.94c22.36 3.96 45.17 4.32 67.74 6.34a809 809 0 0 1 95.54 14.18c12.7 3.07 26.37 7.56 39.27 9.27 28.23 9.55 76.6 19.88 105.71 15.33 11.23-1.75 21.6-6.34 32.04-10.63-35.03 35.18-69.83 50.44-120.27 50.42a102 102 0 0 1-2.66-.04c-11.56-1.03-22.97-3.13-33.91-7.09-16.11-5.81-31.16-14.22-46.52-21.73-12.92-6.32-26.28-11.78-39.55-17.33-32.1-13.41-66.68-22.33-97.39-38.72"/><path fill="#cb964e" d="M1241.09 0h10.02c-2.33 5.978-4.77 11.922-6.59 18.08l-1.71-.264c-23.6 20.545-41.26 45.64-53.39 74.37-7.92 3.456-15.77 11.42-23.33 16.169-16.64 10.459-34.23 19.417-50.95 29.774 6.77-13.645 14.07-26.678 23.11-38.992 8.45-11.506 18.29-22.611 25.5-34.926-19.66 17.635-40.68 34.842-58.76 54.101-8.52 9.072-14.69 21.646-23.59 29.945-5.32 1.582-28.66 28.506-37.5 34.451 5.51-13.437 14.1-24.931 21.23-37.479-12.84 11.734-26.24 23.443-41.47 31.969-3.57-1.103-3.64-1.891-5.71-4.862-14.68 11.878-30.883 26.765-47.68 35.48.149-.487.29-.976.451-1.459 4.058-12.208 15.616-23.515 24.175-32.885C1057.88 104.525 1158.24 43.053 1241.09 0"/><path fill="#fefcf5" d="M1017.95 172.336c6.11-5.222 11.24-10.734 16.55-16.752-3.55 7.209-6.92 14.605-10.84 21.614-3.57-1.103-3.64-1.891-5.71-4.862"/><path fill="#39333e" d="M1950.74 19.956c11.56 11.747 21.68 29.663 31.32 43.276 22.12 31.225 44.91 62.121 65.94 94.093v272.381c-6.66 6.671-13.42 12.414-21.57 17.202 7.32-13.492 11-26.092 14-41.153l-10.95 7.308c5.28-13.362 9.12-25.618 9.84-40.035-7.47 2.889-14.98 4.313-22.82 5.766 10.79-17.194 17.87-32.91 23.17-52.553-3.45 3.883-6.58 6.552-10.88 9.481 10.43-19.938 12.2-35.349 13.27-57.551-17.19 8.794-34.21 18.062-52.44 24.564 5.55-7.475 11.24-14.963 16.19-22.857 10.2-16.287 11.44-31.423 7.11-49.806-12.41 6.531-24.45 13.541-37.13 19.539 9.42-25.536 16.62-51.79 13.6-79.289-1.92 3.394-1.29 9.692-1.42 13.61-2.35-7.275-3.3-15.295-4.79-22.812a2681 2681 0 0 0-8.1-38.559c-7.45-34.363-16.3-68.378-24.34-102.605m-519.65 781.822c25.4-19.989 56.81-31.337 67.7-64.42a803 803 0 0 1 36.68 97.699c10.45 48.653-8.14 97.647-34.15 138.099a360 360 0 0 1-8.28 12.162c7.46-4.475 13.84-9.182 19.87-15.508-16.25 28.308-39.87 46.81-67.96 62.9-8.2 4.7-17.57 10.25-26.73 12.78-1.2.33-1.47.31-2.93.54-3.46 1.25-6.99 2.41-10.33 3.95-9.68 1-17.57 2.82-26.66 6.36 9.57-8.55 27.2-14.72 33.01-26.04-22.2 7.69-44.32 15.11-67.39 19.78-50.65 10.26-111.04 8.56-155.5-20.74a269 269 0 0 0 30.05 2.74c31.09.91 59.92-6.11 83.1-27.83-7.03-.76-14.07-1.57-20.96-3.22-8.78-2.1-38.12-10.161-42.43-17.257 1.19-1.82 1.35-1.265 3.37-1.411 17.61-1.281 34.35-4.902 51.07-10.76 32.75-11.472 98.88-46.366 113.64-78.262 5.33-11.518 4.1-21.268-.26-32.728a81 81 0 0 0 2.86-1.133c27.39-11.456 46.39-26.894 57.58-54.733-12.6.443-23.06-.098-35.35-2.968"/><path fill="#fef9d6" d="M1411.31 1030.3c17.09-8.89 33.27-19.32 50.26-28.26-11.81 20.52-26.13 31.9-46.28 43.99-3.46 1.25-6.99 2.41-10.33 3.95-9.68 1-17.57 2.82-26.66 6.36 9.57-8.55 27.2-14.72 33.01-26.04"/><path fill="#39333e" d="M1772.06 0h101.56c15.24 39.343 30.06 81.495 37.42 123.156 1.8 10.193 2.09 20.455 3.44 30.673 7.11-24.01 13-47.552 14.95-72.601l.64.377c3.12 15.216 2.3 34.234 1.06 49.664-2.85 35.771-14.09 67.59-32.6 98.16-16.22 26.789-27.79 41.045-34.14 72.609 14.75-9.367 32.92-12.608 45.43-25.325l2.42-2.43c-12.22 20.789-29.61 37.393-42.79 57.392 13.92-.07 34.8.823 46.38 9.643l.13 1.558-2.78 1.612c-1.06 2.674-2.1 5.309-2.92 8.071 10.95 2.855 21.88 5.821 32.86 8.556-29.67-2.016-45.44 3.834-67.74 23.593a273 273 0 0 0-8.48 7.952c27.72-9.547 58.46-6.267 86.77-1.584-37.49 5.379-61.45 14.426-91.59 37.676-16.68 12.861-31.84 24.06-51.83 31.402a461 461 0 0 1-64.24 17.97c-21.64 4.257-43.69 7.176-65.01 12.914-25.7 6.915-48.46 21.416-73.39 30.319-26.14 9.339-53.66 11.637-79.9 20.053-20.41 6.544-38.71 18.7-58.07 27.73 62.86 12.31 108.53 6.59 167.16-19.167-10.81 12.136-22.5 21.986-34.95 32.33 11.77-4.164 21.8-7.689 31.68-15.632-8.59 12.968-18.38 24.805-28.38 36.68 10.28-5.617 20.49-10.75 31.09-15.711-8.99 13.468-20.15 25.249-29.09 38.755 7.62-2.647 14.43-5.383 21.26-9.741-5.31 11.401-15.02 24.214-17.38 36.448.66 1.338.33 1.387 1.69 1.797 4.26 1.289 8.23-1.48 12.68.279l.23 1.467c-4.58 3.69-10.78 6.799-14.24 11.538l-.01 2.105c5.41.988 12.04-.342 17.43-1.306-4.96 3.816-9.97 7.587-14.75 11.628 2.31 11.773 4.33 23.418 5.73 35.344-3.77-6.185-7.25-12.4-10.51-18.866 5.56 35.796 7.61 58.104 29.95 88.52-51.94-36.624-116.25-143.573-183.1-137.441 21.81 19.041 32.07 34.515 43.82 60.95-22.6-29.166-51.36-48.005-87.36-55.88-7.61 15.493-15.72 30.931-22.22 46.918 21.57-10.629 41.98-11.563 65-4.888-21.01 5.258-46.51 9.205-58.91 29.132-4.62 7.431-7.55 16.236-9.82 24.644 4.83-1.503 14.28-5.547 19.08-3.561l-.42.273.25.611c-.24.148-.49.283-.71.445-15.67 11.062-29.01 33.407-37.46 50.069 7.53-4.31 15.02-8.989 22.8-12.821-20.97 36.9-44.11 39.749-67.27 67.646 11.17-3.315 21.62-7.85 32.12-12.855-18.97 23.063-41.48 28.022-65.84 42.121-9.88 5.721-18.05 14.228-27.27 20.932a200.95 200.95 0 0 1-98.56 38.231c-42.3 4.248-69.1-4.871-102.21-30.49-15.44 1.525-27.35 3.612-37.87 16.169-15.29 18.234-23.02 40.306-43.552 54.258 3.393-4.814 18.646-28.806 18.549-33.76-16.668 16.5-29.3 36.872-44.194 54.899 5.87-15.808 14.519-30.185 23.087-44.655 2.999-5.065 9.763-11.96 10.936-17.48l-1.182.398 1.318.428c-4.847.666-13.129 13.705-16.535 18.199-4.273 5.638-16.229 25.631-21.163 28.05l-.059-2.157c-.493-14.044 3.278-29.36 5.742-43.162-32.288 54.914-53.744 116.629-50.101 180.949-9.236-15.96-16.795-34.16-21.215-52.03-10.841 30.42-12.655 65.63-12.971 97.73-.126 12.8.525 25.97-.544 38.71-4.328-30.8-11.377-61.66-18.205-92-5.238 29.16-8.193 57.28-9.874 86.85-4.355-30.85-12.858-60.85-15.947-91.93-5.452 23.85-12.656 47.29-18.695 71-.276-9.71.262-19.5-.492-29.18-1.148-14.73-3.806-28.98-3.958-43.83-.226-22.01 2.785-44.11 4.08-66.07-10.939 18.57-21.541 37.17-33.731 54.97 7.141-25.43 6.36-52.61 15.303-77.35-4.173 5.07-9.123 13-14.327 16.77l-2.526.57c-1.538 1.75-2.15 2.53-4.32 3.51-3.266-3.92 6.652-23.64 5.887-30.56 3.724-13.715 11.466-27.424 18.501-39.695a500 500 0 0 1-20.533 9.051c-.694-7.716 8.503-12.072 11.176-19.341 2.778-6.594 13.383-18.163 17.879-24.764a657 657 0 0 0-32.938 5.985c16.362-13.554 30.201-29.601 45.308-44.476a295.4 295.4 0 0 0-51.189 6.382c17.58-12.771 35.835-22.75 54.552-33.608-16.32-1.023-29.517-3.705-44.663-9.91 20.397-1.17 39.395-9.149 56.858-19.4-11.038-7.299-23.232-12.943-34.427-20.102 17.826 6.052 34.359 12.255 53.444 11.959-5.93-8.594-11.77-17.144-17.07-26.149 7.185 5.996 14.009 10.347 22.716 13.824 1.451 1.94 1.459 2.493 3.81 3.386 8.053-3.282 22.773-21.677 30.044-28.748 24.818-24.134 51.985-46.151 76.099-70.924 11.107-11.41 23.248-24.065 31.748-37.507 14.794-23.396 19.034-52.958 35.634-74.937-15.25 7.462-27.25 12.092-44.368 13.444 11.222-5.814 22.018-10.556 32.228-18.216-16.45-1.194-31.892.225-48.394-2.64 12.02-1.921 23.803-4.037 35.694-6.654-10.791-10.141-20.252-19.501-27.297-32.645 11.96 9.83 15.939 16.448 31.157 23.178-1.63-2.803-2.82-5.859-4.11-8.829l3.99-6.138c5.16 6.959 9.74 10.576 17.28 14.512-5.67-6.186-10.06-12.084-11.98-20.434-4.2-18.254 7.46-37.244 16.84-51.987-4.24 12.362-7.32 22.197-7.83 35.343 15.1-26.067 31.24-46.326 50.53-69.302-9.6 20.285-23.47 37.562-32.64 59.233 30.33-30.428 56.36-48.312 98.55-59.384.39.15.78.318 1.18.451 1.98.654 3.73.765 5.78.939l2.99 2.961c-12.16 7.853-23.78 16.35-33.93 26.708 33.45-8.497 66.46-7.586 100.54-10.708 24.89-2.28 49.49-6.904 74.41-9.169-20.14 7.784-38.22 16.812-56.53 28.187 22.41.722 41.9-3.209 63.73-7.563-11.7 5.418-25.46 11.365-38.15 13.752 32.91 6.789 66.81 10.51 99.89 2.788-15.86 8.577-32.13 13.756-49.79 17.27 21.23 6.356 41.88 15.163 63.1 21.117 34.25 9.612 71.02-6.813 100.5-23.319-17.04 2.034-32.89-.95-49.04-6.543 38.45-1.512 81.48-21.715 111.48-44.999 15.87-12.319 30.11-26.763 44.54-40.714-12.49 4.057-24.87 7.587-37.86 9.623 24.78-14.451 49.96-31.493 72.44-49.311-14.11 3.18-29.85 4.826-44.33 5.172 56.77-25.765 63.59-55.383 104.47-93.838.21-.107.43-.2.64-.321 26.68-15.712 76.3-52.599 92.19-78.814 8.23-13.582 12.52-29.087 16.96-44.204-16.14 13.998-29.41 22.56-50.11 28.444 19.92-17.297 33.98-36.557 45.74-60.109-12.08 6.599-25.07 9.288-38.47 11.893 19.88-12.473 32.68-24.302 45.62-43.907-10.52 4.301-20.47 7.406-31.71 9.288 19.13-11.243 32.15-24.418 46.76-40.89l-16.65 4.799c3.03-2.608 5.88-5.307 8.53-8.308 10.03-11.37 16.64-26.665 15.23-42.001-1.4-15.253-17.52-35.972-29.09-45.77l-1.53.285c-.36 2.17-.5 4.124-.47 6.322l.42.684c-2.03-1.03-7.28-16.523-8.61-19.642"/><path fill="#f4b774" d="m1891.05 350.408 22.13-5.92c-1.06 2.674-2.1 5.309-2.92 8.071z"/><path fill="#fef9d6" d="M1058.5 623.746c.71 6.7-2.22 15.157-3.09 22.022-1.02 8.055-1.24 16.545-1.21 24.665.07 21.369 3.42 42.268 11.28 62.176 3.71 9.397 8.53 19.117 11.13 28.819l-.82-.738c-7.78-15.063-15.64-30.289-20.9-46.448-9.33-28.675-10.3-63.124 3.61-90.496"/><path fill="url(#a)" d="m1330.52 612.857.86 1.254c.47 34.942-13.92 73.767-30.13 104.358-39.53 74.635-107.9 130.247-196.32 107.078a149.6 149.6 0 0 1-24.83-8.742c-21.78-10.114-39.87-22.709-64.82-12.909-37.054 14.552-79.344 90.44-93.69 94.178-3.959 1.032-7.824-.178-11.17-2.366-3.077-2.012-5.509-4.849-5.989-8.617-1.815-14.232 23.455-33.791 32.416-43.827 19.39-24.467 21.15-41.003 32.514-68.463 4.235-10.235 9.697-19.599 15.544-28.975-.247 14.058-1.261 27.492-2.661 41.5 8.525-12.353 14.475-26.33 22.766-38.907-1.93 10.939-3.08 22.956-3.46 34.062-.04 1.263-.22.866.43 1.557 1.49-.574.91-.224 2.12-1.159 1.51-1.174 2.96-2.382 4.73-3.147 24.6-10.583 69.16 22.381 92.61 31.655 31.59 12.488 63.07 13.277 94.36-.47 57.01-25.055 90.92-82.74 112.94-138.386 7.79-19.679 13.99-39.965 21.78-59.674"/><path fill="#fcde92" d="M1065.86 678.01c1.4-1.369 2.81-2.597 4.47-3.649 2.92-1.854 7.15-3.716 10.62-2.527 10.39 3.556 11.75 31.637 14.07 40.81 2.2 8.687 5.14 17.614 9.64 25.408 3.44 5.97 7.98 11.794 15.03 13.469 34.33 8.161 80.86-84.534 99.18-107.353 4.22-5.251 9.09-9.995 14.79-13.621 16.67-10.609 37.34-6.74 55.38-2.951.65 52.268-16.32 101.399-53.46 139.238-17.56 17.889-43.12 33.432-68.86 33.674-23.07.217-45.23-11.359-61.25-27.481-23.97-24.142-35.35-62.107-39.61-95.017"/><path fill="#fef9d6" d="M1354.87 610.674c4.59 3.995 8.72 8.161 12.2 13.175 10.01 14.415 12.41 29.768 9.34 46.872-9.12 50.883-39.69 107.519-75.04 144.708-15.83 16.654-34.7 31.364-53.58 44.429a269.6 269.6 0 0 1-64.58 32.356c-35.22 11.757-87.39 18.504-123.79 11.432-2.14-.417-2.49-.62-4.68-.111 1.54 2.776 3.93 4.197 6.41 6.109-15.44 1.525-27.35 3.612-37.87 16.169-15.29 18.234-23.02 40.306-43.552 54.258 3.393-4.814 18.646-28.806 18.549-33.76-16.668 16.5-29.3 36.872-44.194 54.899 5.87-15.808 14.519-30.185 23.087-44.655 2.999-5.065 9.763-11.96 10.936-17.48l-1.182.398 1.318.428c-4.847.666-13.129 13.705-16.535 18.199-4.273 5.638-16.229 25.631-21.163 28.05l-.059-2.157c11.225-24.55 20.535-50.354 30.505-75.465 5.28-13.299 9.506-27.879 17.733-39.683 4.957-7.115 11.177-12.004 18.857-15.876 26.62-13.41 42.11-1.494 66.79 6.378 38.33 12.23 84.8 5.225 120.08-13.082 47.46-24.63 95.16-85.751 116.52-134.862 14.16-32.582 23.15-66.943 33.9-100.729"/><path fill="#f4b774" d="M1162.59 559.011c29.85-6.261 75.9 6.255 101.11 22.896 8.79 5.808 14.28 12.218 18.94 21.663 3.95 7.863 6 15.225 6.4 24.026-18.04-3.789-38.71-7.658-55.38 2.951-5.7 3.626-10.57 8.37-14.79 13.621-18.32 22.819-64.85 115.514-99.18 107.353-7.05-1.675-11.59-7.499-15.03-13.469-4.5-7.794-7.44-16.721-9.64-25.408-2.32-9.173-3.68-37.254-14.07-40.81-3.47-1.189-7.7.673-10.62 2.527-1.66 1.052-3.07 2.28-4.47 3.649-1.08-13.99.1-27.233 2.84-40.969 1.7-15.055 8.44-27.154 17.15-39.242a52 52 0 0 1 2.97-3.884c19.62-23.252 44.21-32.278 73.77-34.904"/><path fill="#de8c32" d="M1106.94 588.801c13.38-9.437 24.49-13.738 40.77-15.953-2.1 5.758-3.58 10.337-2.4 16.495-6 2.288-12.09 4.702-17.67 7.908l-2.83 3.021c-15.99 1.011-27.06 1.504-38.58 14.352-6.33 7.069-11.54 15.079-17.53 22.417 1.7-15.055 8.44-27.154 17.15-39.242 9.03.604 13.74-4.544 21.09-8.998"/><path fill="#39333e" d="M1197.62 612.479c-3.39 22.655-6.67 61.826-26.54 76.73-3.74 2.809-8.17 4.582-12.9 3.792-5.6-.935-9.83-5.057-12.83-9.638-12.85-19.632-12.14-46.95-7.19-68.854 6.74 5.979 12.66 10.863 21.88 12.243 14.56 2.18 26.52-6.138 37.58-14.273"/><path fill="#c8803c" d="M1162.59 559.011c29.85-6.261 75.9 6.255 101.11 22.896 8.79 5.808 14.28 12.218 18.94 21.663-23.36-7.15-51.07-6.026-74.43.544l-.64-.333c-3.45 2.787-6.74 5.631-9.95 8.698-11.06 8.135-23.02 16.453-37.58 14.273-9.22-1.38-15.14-6.264-21.88-12.243-5.13-4.54-9.73-8.324-13.35-14.237l2.83-3.021c5.58-3.206 11.67-5.62 17.67-7.908-1.18-6.158.3-10.737 2.4-16.495-16.28 2.215-27.39 6.516-40.77 15.953-7.35 4.454-12.06 9.602-21.09 8.998a52 52 0 0 1 2.97-3.884c19.62-23.252 44.21-32.278 73.77-34.904"/><path fill="#39333e" d="M1163.12 560.16c8.51-.633 18.78-1.61 25.86 4.239 3.39 2.8 5.27 7.034 5.43 11.391.11 3.188-.85 6.371-1.64 9.43-1.95 1.486-2.22 2.224-4.74 2.32-1.63.062-2.95.291-4.51.799-.2.396-.4.796-.61 1.19-2.8 5.281-6.12 8.937-11.93 10.823-5.56 1.805-11.69.548-16.71-2.256-2.98-1.665-4.73-3.636-6.85-6.223l-2.11-2.53c-1.18-6.158.3-10.737 2.4-16.495 4.44-6.885 7.73-9.73 15.41-12.688"/><path fill="#fefcf5" d="M1192.77 585.22c2.98-.276 4.92-1.097 7.38 1.077 3.21 2.846 6.67 13.293 7.42 17.484-3.45 2.787-6.74 5.631-9.95 8.698-11.06 8.135-23.02 16.453-37.58 14.273-9.22-1.38-15.14-6.264-21.88-12.243-5.13-4.54-9.73-8.324-13.35-14.237l2.83-3.021c5.58-3.206 11.67-5.62 17.67-7.908l2.11 2.53c2.12 2.587 3.87 4.558 6.85 6.223 5.02 2.804 11.15 4.061 16.71 2.256 5.81-1.886 9.13-5.542 11.93-10.823.21-.394.41-.794.61-1.19 1.56-.508 2.88-.737 4.51-.799 2.52-.096 2.79-.834 4.74-2.32"/><path fill="#fef9d6" d="M1251.11 0h520.95c1.33 3.12 6.58 18.612 8.61 19.642l-.42-.684c-.03-2.198.11-4.153.47-6.322l1.53-.285c11.57 9.798 27.69 30.517 29.09 45.77 1.41 15.336-5.2 30.631-15.23 42.001-2.65 3.001-5.5 5.7-8.53 8.308l16.65-4.799c-14.61 16.472-27.63 29.647-46.76 40.89 11.24-1.882 21.19-4.987 31.71-9.288-12.94 19.605-25.74 31.434-45.62 43.907 13.4-2.605 26.39-5.294 38.47-11.893-11.76 23.552-25.82 42.812-45.74 60.109 20.7-5.884 33.97-14.446 50.11-28.444-4.44 15.117-8.73 30.622-16.96 44.204-15.89 26.215-65.51 63.102-92.19 78.814-.21.121-.43.214-.64.321-40.88 38.455-47.7 68.073-104.47 93.838 14.48-.346 30.22-1.992 44.33-5.172-22.48 17.818-47.66 34.86-72.44 49.311 12.99-2.036 25.37-5.566 37.86-9.623-14.43 13.951-28.67 28.395-44.54 40.714-30 23.284-73.03 43.487-111.48 44.999 16.15 5.593 32 8.577 49.04 6.543-29.48 16.506-66.25 32.931-100.5 23.319-21.22-5.954-41.87-14.761-63.1-21.117 17.66-3.514 33.93-8.693 49.79-17.27-33.08 7.722-66.98 4.001-99.89-2.788 12.69-2.387 26.45-8.334 38.15-13.752-21.83 4.354-41.32 8.285-63.73 7.563 18.31-11.375 36.39-20.403 56.53-28.187-24.92 2.265-49.52 6.889-74.41 9.169-34.08 3.122-67.09 2.211-100.54 10.708 10.15-10.358 21.77-18.855 33.93-26.708l-2.99-2.961c-2.05-.174-3.8-.285-5.78-.939-.4-.133-.79-.301-1.18-.451-42.19 11.072-68.22 28.956-98.55 59.384 9.17-21.671 23.04-38.948 32.64-59.233-19.29 22.976-35.43 43.235-50.53 69.302.51-13.146 3.59-22.981 7.83-35.343-9.38 14.743-21.04 33.733-16.84 51.987 1.92 8.35 6.31 14.248 11.98 20.434-7.54-3.936-12.12-7.553-17.28-14.512l-3.99 6.138c1.29 2.97 2.48 6.026 4.11 8.829-15.218-6.73-19.197-13.348-31.157-23.178 7.045 13.144 16.506 22.504 27.297 32.645-11.891 2.617-23.674 4.733-35.694 6.654 16.502 2.865 31.944 1.446 48.394 2.64-10.21 7.66-21.006 12.402-32.228 18.216 17.118-1.352 29.118-5.982 44.368-13.444-16.6 21.979-20.84 51.541-35.634 74.937-8.5 13.442-20.641 26.097-31.748 37.507-24.114 24.773-51.281 46.79-76.099 70.924-7.271 7.071-21.991 25.466-30.044 28.748-2.351-.893-2.359-1.446-3.81-3.386-6.111-12.243-12.431-25.164-16.017-38.394-3.646-13.451-5.623-27.051-9.866-40.413 6.524 9.68 10.392 20.535 16.437 30.446.384-18.251-3.458-36.171-4.156-54.361 3.749 13.13 7.202 25.909 8.631 39.525 2.342-20.2.633-38.932-.233-59.077 3.723 13.787 7.661 27.782 12.722 41.14a471 471 0 0 1 4.18-71.968c1.427 11.395 2.281 22.866 3.68 34.273 3.35-26.757 4.126-54.106 8.552-80.64 2.352 16.318 4.924 32.53 5.529 49.03 3.874-20.025 5.125-41.938 14.645-60.261-.281 15.398-1.288 30.847-1.967 46.237 3.678-10.183 14.171-49.914 12.672-59.626-3.034-19.642-43.732-68.892-55.502-89.979-10.305-18.463-17.176-37.581-24.697-57.219-.947-10.067-2.209-21.319-1.455-31.392.692-9.233 2.889-18.334 3.512-27.587l.053-.89c3.562-13.442 8.68-25.693 14.5-38.261C873.287 290.08 919.17 246.99 970.27 207.816c16.797-8.715 33-23.602 47.68-35.48 2.07 2.971 2.14 3.759 5.71 4.862 15.23-8.526 28.63-20.235 41.47-31.969-7.13 12.548-15.72 24.042-21.23 37.479 8.84-5.945 32.18-32.869 37.5-34.451 8.9-8.299 15.07-20.873 23.59-29.945 18.08-19.26 39.1-36.466 58.76-54.1-7.21 12.314-17.05 23.42-25.5 34.925-9.04 12.314-16.34 25.347-23.11 38.992 16.72-10.357 34.31-19.315 50.95-29.774 7.56-4.749 15.41-12.713 23.33-16.17 12.13-28.729 29.79-53.824 53.39-74.369l1.71.263c1.82-6.157 4.26-12.101 6.59-18.079"/><path fill="#161312" d="M1047.51 234.409c-3.28 11.246-7.11 22.268-8.33 33.965-.83-2.481-1.03-3.65-3.06-5.47l-3.57.817c4.9-9.803 9.64-19.734 14.96-29.312m130.2 237.848c-9.17 3.255-18.24 6.435-26.57 11.541l-2.99-2.961c-2.05-.174-3.8-.285-5.78-.939-.4-.133-.79-.301-1.18-.451 12.16-3.819 23.83-6.048 36.52-7.19m-182.846 74.807c5.716 7.699 10.516 16.253 15.576 24.402l-3.99 6.138c-5.03-10.154-9.154-19.42-11.586-30.54"/><path fill="#39333e" d="M986.183 336.379c9.357-34.289 21.397-68.067 40.147-98.449-6.03 22.511-11.51 44.057-12.57 67.487 6.46-14.005 10.9-28.28 18.79-41.696l3.57-.817c2.03 1.82 2.23 2.989 3.06 5.47.36 10.315-2.36 19.566-4.85 29.448 8.45-14.201 15.83-28.983 23.58-43.572-11.99 50.872-22.11 101.376-37.54 151.429-10.59 34.344-22.942 68.06-33.562 102.376-4.063 13.127-8.703 26.074-11.528 39.545-14.053-26.353-29.708-51.687-43.576-78.233-4.233-8.104-9.461-15.402-12.364-24.204 7.016 8.133 12.425 18.674 18.26 27.734 7.5 11.648 15.504 22.874 23.641 34.082-14.034-37.589-19.512-76.61-26.906-115.771 7.882 19.393 14.758 38.461 24.347 57.153-3.966-23.922-7.843-72.851-.601-95.312 3.458 7.043 2.761 27.912 5.647 37.729.113.385.238.767.357 1.151 1.622-32.672 9.771-83.115 19.335-114.114a669 669 0 0 1 2.763 58.564M1251.11 0h243.05c-.12 19.078-.12 38.443 2.05 57.417a1423 1423 0 0 1 14.8-27.922c-.16 28.873 4.08 53.21 1.82 83.163 6.13-9.439 14.37-17.195 19.79-27.049-1.88 10.26-3.9 20.392-6.64 30.466-6.46 23.718-14.79 45.821-11.68 70.779-7.48-14.846-13.73-29.278-17.44-45.569-3.59 5.281-6.77 11.201-12.1 14.866l-1.37.006c-4.02-5.932-.64-26.332-.23-33.863-25.97 8.606-50.13 17.755-73.85 31.685 9.76-18.479 15.64-35.81 15.88-56.832a366 366 0 0 1-27.15 28.255c1.77-17.253-6.98-38.503-16.04-52.878-4.37 11.188-7.89 23.51-13.13 34.237-4.32-18.874-8.95-35.578-25.84-47.233l-2-.239c-4.21 5.121-2.12 21.534-1.98 28.2-8.64-13.857-18.23-26.012-31.14-36.15.34 6.102.82 11.996 1.85 18.025-5.58-6.603-11.49-13.094-16.75-19.946-6.74 13.607-10.23 26.278-12.11 41.307-7.62-27.43-15.48-57.268-12.41-85.933-17.84 17.622-22.56 37.15-31.93 59.505 1.65-15.797 3.87-30.811 7.96-46.218 1.82-6.157 4.26-12.101 6.59-18.079"/><path fill="#39333e" d="M1081.4 148.257c8.9-8.299 15.07-20.873 23.59-29.945 18.08-19.26 39.1-36.466 58.76-54.1-7.21 12.314-17.05 23.42-25.5 34.925-9.04 12.314-16.34 25.347-23.11 38.992 16.72-10.357 34.31-19.315 50.95-29.774 7.56-4.749 15.41-12.713 23.33-16.17-4.59 15.709-6.05 31.691-9.99 47.447 9.48-6.891 18.62-13.884 27.33-21.764.89 11.176 1.7 22.288 1.96 33.502 10.46-3.269 20.81-6.549 30.64-11.465-3.93 6.203-5.47 9.092-3.76 16.586 1.75 7.661 7.9 15.62 13.25 21.207 5.65-7.903 8.87-15.522 11.93-24.712 10.6 47.962 15.76 79.163-12.36 123.349-22.96 36.08-44.61 71.398-76.01 100.932a475 475 0 0 1-50.19 41.421c-27.79 19.956-57.8 38.113-81.28 63.336-10.61 11.396-18.78 23.919-26.68 37.243 3.26-11.239 6.77-22.078 11.98-32.603 22.72-45.924 78.34-117.464 122.4-142.042 28.74-16.035 51.58-19.774 61.76-55.034 3.6-12.482 8.15-49.488 1.01-60.092-.34-.505-.82-.902-1.23-1.354-4.99 7.349-7.71 16.166-12.44 23.849 1.86-10.886 1.09-21.139-5.58-30.432-5.3-7.389-12.57-11.278-18.91-17.415-3.75 11.893-8.59 24.439-14.82 35.274-2.47-13.773-8.35-38.217-18.41-48.418l-2.23-.501c-5.52 4.023-8.88 13.661-11.54 19.794l-15.01-31.975c-3.89 10.602-7.93 20.64-8.79 32.021-3.69-10.817-7.1-22.143-13.35-31.809-16.43 9.434-25.53 22.067-38.35 35.231 8.6-23.198 16.65-44.874 30.65-65.504m351.27 149.561c1.31 1.594.99.754 1.23 2.55 2.61 20.072-1.1 41.535-13.68 57.76 41.33-.61 61.68-8.584 95.21-30.324-19.94 19.411-26.53 36.176-42.88 54.807-33.36 38.035-102.59 36.287-149.16 43.788-31.46 5.068-61.23 12.138-93.14 14.3-14.47.773-29.3-1.287-43.77-2.006-22.52-1.119-48.84 1.923-70.45 8.401 24.23-17.203 46.14-38.322 69.1-57.208 36.08-29.693 91.95-66.384 138.4-72.827 20.69-2.871 41.27.169 62-.094 19.11-.242 33.62-5.282 47.14-19.147"/><path fill="#cb964e" d="M1616.31 0h155.75c1.33 3.12 6.58 18.612 8.61 19.642l-.42-.684c-.03-2.198.11-4.153.47-6.322l1.53-.285c11.57 9.798 27.69 30.517 29.09 45.77 1.41 15.336-5.2 30.631-15.23 42.001-2.65 3.001-5.5 5.7-8.53 8.308l16.65-4.799c-14.61 16.472-27.63 29.647-46.76 40.89 11.24-1.882 21.19-4.987 31.71-9.288-12.94 19.605-25.74 31.434-45.62 43.907 13.4-2.605 26.39-5.294 38.47-11.893-11.76 23.552-25.82 42.812-45.74 60.109 20.7-5.884 33.97-14.446 50.11-28.444-4.44 15.117-8.73 30.622-16.96 44.204-15.89 26.215-65.51 63.102-92.19 78.814-.21.121-.43.214-.64.321-9.38.872-39.02 19.168-51.58 23.73 25.67-23.97 58.35-58.013 72.66-90.198-18.52 24.102-41.43 47.821-69.85 59.891 29.51-20.072 48.21-50.725 64.14-81.843-7.83 6.594-14.42 14.569-21.14 22.256 9.13-17.925 20.1-36.247 25.91-55.522-13.03 18.189-22.3 34.983-40.4 49.118a194.7 194.7 0 0 0 37.6-76.156c-9.34 13.088-23.79 32.618-37.44 41.113-.83-1.517.19-1.548 1.18-2.667 8.81-9.931 16.71-20.044 23.87-31.273 17.79-27.905 24.22-54.231 23.29-86.985-7.77 20.54-13.81 42.323-30.96 57.622 11.31-19.991 16.54-40.675 20.91-63.025-10.43 19.251-21.69 38.014-36.28 54.413l-.15 1.694-1.13-.924c10.82-21.264 27.31-46.692 25.63-71.731-.13-1.895.25-1.344-.65-2.17-3.15 4.605-4.13 11.775-5.75 17.208-.15-9.71 1.18-19.563 2.03-29.23-3.3 9.052-5.02 18.815-7.97 28.026-4.34 13.616-12.14 25.419-19.82 37.335 12.18-44.442 4.84-64.03-7.01-106.652-3.2 19.084-7.58 39.699-20.41 54.803 7.54-25.582 2.79-46.63-6.98-71.084"/><path fill="#595f50" d="M0 0h1150.3c-21.91 15.825-201.505 132.774-202.432 134.368-15.718 17.992-44.607 38.549-64.918 51.888-1.141 8.856-31.958 30.578-37.94 42.034-1.246 11.126-15.302 18.767-15.592 28.482 13.342-8.397 58.449-45.422 69.181-56.508-22.336 35.869-51.839 66.659-79.219 98.55-19.828 21.297-39.958 42.625-62.028 61.641-63.432 54.657-119.348 85.429-129.032 176.983 12.118-19.151 26.526-35.666 41.062-52.959-9.794 20.188-21.872 38.725-32.318 58.489-10.814 20.462-20.109 42.687-27.612 64.58-8.401 24.511-14.113 49.853-19.265 75.216-6.544 32.217-9.974 61.893-27.377 90.8-15.805 26.252-35.958 49.057-55.886 72.188-27.159 31.525-55.181 62.389-82.141 94.055C378.7 993.936 332.93 1048.82 290.13 1105.59a2748 2748 0 0 0-67.374 94.76c-34.969 50.63-69.55 101.53-93.822 158.36-6.61 15.48-14.397 32.92-15.148 49.9-.206 4.65.041 9.29 1.489 13.75 2.839 8.73 11.303 15.15 19.335 18.88 18.8 8.72 37.058 8.19 56.183.91 42.824-16.32 81.733-39.7 127.74-19.03 27.782 12.48 45.656 32.1 63.926 55.65 26.36-31.15 71.974-77.25 109.068-93.25 15.124 10.26 13.109 21.47 22.704 34.71-3.197 17.07-11.129 32.07-19.183 47.26-21.892 41.29-36.281 62.64-75.82 89.71-39.13 26.78-73.749 51.67-89.66 98.92-3.699 10.98-6.05 22.39-9.488 33.45-3.371 10.85-7.979 21.26-12.375 31.72a280.6 280.6 0 0 0 122.726 176.5c80.896 51.18 187.611 91.56 282.762 103.61-31.735-42.48-76.746-66.6-120.426-94.72 25.11 2.88 46.408 8.7 68.746 20.86-8.066-9.68-16.657-19.15-23.517-29.74 17.01 11.03 35.418 19.71 52.411 30.73A791 791 0 0 1 834.317 2048H0z"/><path fill="#727760" d="m0 1035.9 1.717 2.24c-2.413 10.19-.355 43.23-.406 55.67a5057 5057 0 0 0-.104 108.71c.044 19.64-.991 39.95.755 59.51L0 1261.79z"/><path fill="#b7b893" d="M0 2046.84c31.41.46 264.405 1.33 271.998-1.81l-.685 2.97H0z"/><path fill="#fefcf5" d="M219.719 1762.88c2.639 4.76 4.621 9.52 6.565 14.59-32.874 8.23-32.451 13.03-59.079 32.03 16.247-17.13 32.83-33.4 52.514-46.62"/><path fill="#fef9d6" d="M152.868 1880.91c12.975-23.87 59.195-71.05 84.462-79.55 3.483 5.11 6.396 10.5 9.366 15.91-37.887 12.46-66.208 35.63-93.828 63.64"/><path fill="#727760" d="M36.833 1166.68c5.33 6.6 44.566 116.42 47.591 130.34 3.522 16.2 3.71 34.73 3.362 51.31-3.726-3.85-10.452-37.1-12.373-44.55a1898 1898 0 0 0-24.476-87.95c-4.76-16.18-10.857-32.62-14.104-49.15"/><path fill="#fef9d6" d="M271.998 2045.03c-.958-38.23 18.951-100.65 41.103-132.65 3.303 3.61 7.14 7.2 9.951 11.18-21.558 35.74-36.663 82.34-47.402 122.69l-.584 1.75h-3.753zm-105.407-63.81c19.229-50.81 56.484-98.05 98.306-132.41 3.225 4.38 6.336 8.93 9.826 13.09-11.657 13.05-27.317 23.2-39.98 35.45-26.2 25.33-47.257 54.25-68.152 83.87M46.614 1818.45c40.69-54.08 84.318-96.71 150.394-117.49 1.556 4.86 3.197 9.7 4.468 14.64-42.407 14.64-75.265 33.17-108.918 62.77-15.215 13.38-29.799 27.83-45.944 40.08"/><path fill="#727760" d="M262.41 745.716c8.383 3.821 26.617 53.322 30.712 64.241 15.641 41.705 30.906 88.809 33.126 133.511-10.361-12.725-22.099-30.27-29.727-44.802l.429-.541c2.075-8.14-18.317-93.502-21.969-107.59-3.894-15.024-8.761-29.779-12.571-44.819"/><path fill="#b7b893" d="M252.345 722.129a514 514 0 0 1 4.821 10.106l5.244 13.481c3.81 15.04 8.677 29.795 12.571 44.819 3.652 14.088 24.044 99.45 21.969 107.59l-.429.541c-19.001-27.195-41.07-53.196-63.241-77.864l-20.519-20.072c13.191-26.586 23.195-53.563 39.584-78.601"/><path fill="#727760" d="M252.345 722.129a514 514 0 0 1 4.821 10.106c-4.235 9.665-6.182 21.099-8.78 31.336-4.858 19.144-9.551 38.278-15.106 57.231l-20.519-20.072c13.191-26.586 23.195-53.563 39.584-78.601"/><path fill="#595f50" d="M323.052 1923.56c6.788 4.96 17.876 15.25 21.259 22.92l5.473 5.69c1.498 8.19.812 16.41 1.774 24.63 1.91 16.32 5.393 29.95 6.253 46.87-1.399 7.46-3.091 15.12-3.692 22.68-12.189.47-24.431.03-36.624-.17l-.475 1.82h-41.954l.584-1.75c10.739-40.35 25.844-86.95 47.402-122.69"/><path fill="#b7b893" d="M275.65 2046.25c12.849.35 25.813-.11 38.628.48l-.249 1.27h-38.963z"/><path fill="#fef9d6" d="m344.311 1946.48 5.473 5.69c-11.855 20.37-18.911 46.21-25.177 68.86-2.232 8.07-3.874 17.51-7.112 25.15l-.475 1.82h-2.991l.249-1.27c4.631-6.5 8.112-35.07 10.533-44.72 4.459-17.77 10.419-39.6 19.5-55.53"/><path fill="#595f50" d="M349.784 1952.17c1.498 8.19.812 16.41 1.774 24.63 1.91 16.32 5.393 29.95 6.253 46.87-1.399 7.46-3.091 15.12-3.692 22.68-12.189.47-24.431.03-36.624-.17 3.238-7.64 4.88-17.08 7.112-25.15 6.266-22.65 13.322-48.49 25.177-68.86"/><path fill="#b7b893" d="M70.157 730.957c16.747 11.483 59.035 48.391 70.17 64.241-4.775 25.597-8.111 51.545-11.378 77.374-2.06 16.279-3.393 33.221-7.297 49.185-8.798-13.843-18.962-26.715-27.728-40.566-10.053-49.732-14.929-100.308-23.767-150.234"/><path fill="#727760" d="m0 1261.79 1.962.24c3.46 18.75 13.598 38.43 20.754 56.08 13.584 33.51 27.678 66.85 38.69 101.32 9.256 28.97 9.883 86.56 11.87 118.77 1.469 23.84 4.03 47.72 4.94 71.57-15.887-64.71-45.58-127.41-75.793-186.6-1.984 45.9.129 92.08-.939 138.04-1.38-6.23-.278-13.44-.678-19.84l-.806-.21z"/><path fill="#888f76" d="M0 1421.39c3.374 12.13.822 32.41.79 45.36l.016 74.62-.806-.21z"/><path fill="#727760" d="M183.817 601.994c9.3 12.408 25.154 34.331 30.629 48.058 14.296 22.172 29.137 47.118 37.899 72.077-16.389 25.038-26.393 52.015-39.584 78.601l-11.88-11.56c-17.268-16.335-35.335-31.223-54.173-45.698z"/><path fill="#b7b893" d="M214.446 650.052c14.296 22.172 29.137 47.118 37.899 72.077-16.389 25.038-26.393 52.015-39.584 78.601l-11.88-11.56c.355-15.005 2.356-30.32 3.688-45.283a2571 2571 0 0 1 9.877-93.835"/><path fill="#727760" d="M60.354 837.311c3.635 13.689 3.72 29.279 4.88 43.394a2681 2681 0 0 1 5.473 74.541l7.147 124.584c2.606 54.67 4.509 110.43 12.403 164.62l-.946.36c-4.2-19.1-9.303-37.37-15.971-55.77-9.103-25.11-56.768-133.77-71.623-150.9L0 1035.9V928.426c18.59-31.205 39.862-61.13 60.354-91.115m79.973-42.113c17.673 16.526 33.968 36.072 48.264 55.581 6.325 8.631 11.992 18.018 18.633 26.36l32.891 53.989c23.968 43.266 42.129 85.472 49.888 134.732-60.156 78.73-125.323 157.33-168.781 247.04-4.137-7.89-2.895-91.76-3.516-106.76a5063 5063 0 0 0-13.418-215.948 3252 3252 0 0 0-6.955-67.434c-1.476-13.74-3.441-27.741-3.409-41.567 8.766 13.851 18.93 26.723 27.728 40.566 3.904-15.964 5.237-32.906 7.297-49.185 3.267-25.829 6.603-51.777 11.378-77.374"/><path fill="#b7b893" d="m207.224 877.139 32.891 53.989c-14.441 19.85-32.978 37.708-49.639 55.746 1.792-21.211 6.128-42.826 9.253-63.925 1.74-11.743 3.501-35.65 7.495-45.81M0 0h564.51c11.166 18.39 22.19 36.734 31.602 56.097 40.159 82.621 60.219 175.982 70.091 266.851-4.462 4.646-6.135 1.276-9.703 9.063-4.368 8.411-10.309 15.832-14.599 24.343-.66 6.703-3.602 12.579-6.567 18.536-2.467 4.961-3.019 11.016-4.387 16.379-3.039-11.56-5.865-23.22-9.706-34.546-1.081 7.833-1.831 15.948-3.733 23.619-1.736 17.209-1.897 30.512 4.472 46.822-3.137-4.281-6.651-8.528-9.152-13.214-3.818-4.709-7.033-10.275-10.387-15.339-4.486 7.67 1.452 14.91-.552 18.054l-1.096.164 1.141 6.123c2.194 6.212 3.756 12.581 5.39 18.957-8.505-8.943-19.088-15.647-29.177-22.646-13.057-11.642-28.729-20.494-43.874-29.117-65.656-37.382-136.661-60.291-210.963-72.861-10.92-2.749-22.676-3.708-33.786-5.815a5881 5881 0 0 1 37.343 351.929l3.843 58.334c.94 12.854 2.457 25.891 2.556 38.772-33.436-73.758-53.69-111.272-110.785-168.797l-28.163-26.101c-30.548-26.359-63.982-49.225-97.93-70.927 24.055 27.755 48.59 54.177 70.593 83.696 5.647 7.575 12.064 15.482 16.836 23.618l-37.109 141.478c-25.551-17.109-51.252-31.579-80.231-42.061-5.482-29.59-10.122-59.329-15.709-88.904-6.251-33.096-13.466-65.986-20.15-98.99-2.53-12.493-2.286-29.9-8.003-41.275l.19 1.035c2.776 15.92 3.315 33.91 5.327 50.248 3.208 26.053 7.324 52.003 10.23 78.092 3.495 31.359 5.685 62.916 9.67 94.211l-22.031-3.963c7.212 6.664 14.852 12.634 22.608 18.638 6.834 41.577 7.911 84.804 11.745 126.808C39.862 867.296 18.59 897.221 0 928.426z"/><path fill="#272428" d="M590.449 380.69a713 713 0 0 1 11.992 17.921c-4.486 7.67 1.452 14.91-.552 18.054l-1.096.164c-3.659-12.06-6.043-24.22-10.344-36.139"/><path fill="#fef9d6" d="M635.334 374.89c-5.666-11.368-6.951-25.616-11.019-37.746-7.572-22.578-18.409-44.493-29.526-65.504-24.841-46.949-58.984-90.429-92.952-131.118-12.23-14.649-26.615-28.505-37.767-43.91 11.952 8.071 26.787 27.854 36.849 39.173 56.711 63.79 117.973 136.562 140.982 220.569-.66 6.703-3.602 12.579-6.567 18.536"/><path fill="#595f50" d="M288.305 304.041c-6.401-47.273-13.388-95.259-24.062-141.777-2.617-11.403-4.564-23.013-9.04-33.855-.763-1.849-1.616-2.451-.81-4.293 13.48 17.242 65.85 164.679 65.832 184.535-10.23-2.626-21.428-3.295-31.92-4.61"/><path fill="#fef9d6" d="M556.878 0h7.632c11.166 18.39 22.19 36.734 31.602 56.097 40.159 82.621 60.219 175.982 70.091 266.851-4.462 4.646-6.135 1.276-9.703 9.063-5.584-84.936-28.391-179.993-62.416-258.22C583.102 48.544 569.538 24.43 556.878 0m55.95 413.95c.216-4.732-.204-9.674-1.367-14.281-4.019-15.909-16.677-30.612-26.104-43.826-67.019-93.935-164.237-161.368-262.438-219.267 24.609 9.796 48.235 26.002 71.064 39.531 69.058 40.924 137.959 89.054 188.255 152.56 13.1 16.54 23.228 34.508 35.27 51.675-1.736 17.209-1.897 30.512 4.472 46.822-3.137-4.281-6.651-8.528-9.152-13.214"/><path fill="url(#b)" d="M289.524 311.47c-23.793-4.436-49.094-5.839-73.238-7.386-7.397-.474-15.433-1.736-22.805-1.486-.679.023-1.352.133-2.027.2l-.603-1.362-1.082.119-.21.506-.466-.153c21.624-3.462 75.241.746 99.212 2.133 10.492 1.315 21.69 1.984 31.92 4.61 23.306 4.755 46.815 8.586 70.012 13.85 47.721 10.828 97.603 27.54 140.066 52.135a532 532 0 0 1 37.499 23.929c9.786 6.872 23.52 20.645 34.132 24.387 2.194 6.212 3.756 12.581 5.39 18.957-8.505-8.943-19.088-15.647-29.177-22.646-13.057-11.642-28.729-20.494-43.874-29.117-65.656-37.382-136.661-60.291-210.963-72.861-10.92-2.749-22.676-3.708-33.786-5.815"/><path fill="#727760" d="M274.061 345.209c-11.412 59.024-24.796 117.536-37.072 176.374l-9.463 45.205c-1.733 8.159-4.165 16.641-5.045 24.92l-28.163-26.101z"/><path fill="#39333e" d="M564.51 0h585.79c-21.91 15.825-201.505 132.774-202.432 134.368-15.718 17.992-44.607 38.549-64.918 51.888-1.141 8.856-31.958 30.578-37.94 42.034-1.246 11.126-15.302 18.767-15.592 28.482 13.342-8.397 58.449-45.422 69.181-56.508-22.336 35.869-51.839 66.659-79.219 98.55-19.828 21.297-39.958 42.625-62.028 61.641-63.432 54.657-119.348 85.429-129.032 176.983 12.118-19.151 26.526-35.666 41.062-52.959-9.794 20.188-21.872 38.725-32.318 58.489-10.814 20.462-20.109 42.687-27.612 64.58-8.401 24.511-14.113 49.853-19.265 75.216-6.544 32.217-9.974 61.893-27.377 90.8-15.805 26.252-35.958 49.057-55.886 72.188-27.159 31.525-55.181 62.389-82.141 94.055C378.7 993.936 332.93 1048.82 290.13 1105.59a2748 2748 0 0 0-67.374 94.76c-34.969 50.63-69.55 101.53-93.822 158.36-6.61 15.48-14.397 32.92-15.148 49.9-.206 4.65.041 9.29 1.489 13.75 2.839 8.73 11.303 15.15 19.335 18.88 18.8 8.72 37.058 8.19 56.183.91 42.824-16.32 81.733-39.7 127.74-19.03 27.782 12.48 45.656 32.1 63.926 55.65 26.36-31.15 71.974-77.25 109.068-93.25 15.124 10.26 13.109 21.47 22.704 34.71-3.197 17.07-11.129 32.07-19.183 47.26-21.892 41.29-36.281 62.64-75.82 89.71-39.13 26.78-73.749 51.67-89.66 98.92-3.699 10.98-6.05 22.39-9.488 33.45-3.371 10.85-7.979 21.26-12.375 31.72a280.6 280.6 0 0 0 122.726 176.5c80.896 51.18 187.611 91.56 282.762 103.61-31.735-42.48-76.746-66.6-120.426-94.72 25.11 2.88 46.408 8.7 68.746 20.86-8.066-9.68-16.657-19.15-23.517-29.74 17.01 11.03 35.418 19.71 52.411 30.73A791 791 0 0 1 834.317 2048H317.02l.475-1.82c12.193.2 24.435.64 36.624.17.601-7.56 2.293-15.22 3.692-22.68-.86-16.92-4.343-30.55-6.253-46.87-.962-8.22-.276-16.44-1.774-24.63l-5.473-5.69c-3.383-7.67-14.471-17.96-21.259-22.92-2.811-3.98-6.648-7.57-9.951-11.18-4.695-8.01-11.617-15.35-17.279-22.74-7.064-9.21-13.36-19.06-21.099-27.74-3.49-4.16-6.601-8.71-9.826-13.09-7.119-9.84-10.694-21.93-18.201-31.54-2.97-5.41-5.883-10.8-9.366-15.91-2.886-1.63-9.183-20.03-11.046-23.89-1.944-5.07-3.926-9.83-6.565-14.59-7.369-15.22-13.791-30.95-18.243-47.28-1.271-4.94-2.912-9.78-4.468-14.64-4.106-16.83-6.24-34.27-8.182-51.47-1.327-11.74-.772-28.34-5.385-39.2-5.194-12.22-17.317-24.08-25.339-34.92-21.864-29.56-55.492-76.82-67.763-111.01-18.43-51.36 9.449-105.83 30.883-151.46 43.458-89.71 108.625-168.31 168.781-247.04 37.399-46.02 73.184-93.405 111.354-138.807-1.95-9.289-.384-21.014-.081-30.572.588-18.54 1.58-37.952-.145-56.442-.403-77.193-12.643-161.533-24.057-238.195-14.175-95.208-29.972-191.247-53.764-284.559 74.302 12.57 145.307 35.479 210.963 72.861 15.145 8.623 30.817 17.475 43.874 29.117 10.089 6.999 20.672 13.703 29.177 22.646-1.634-6.376-3.196-12.745-5.39-18.957l-1.141-6.123 1.096-.164c2.004-3.144-3.934-10.384.552-18.054 3.354 5.064 6.569 10.63 10.387 15.339 2.501 4.686 6.015 8.933 9.152 13.214-6.369-16.31-6.208-29.613-4.472-46.822 1.902-7.671 2.652-15.786 3.733-23.619 3.841 11.326 6.667 22.986 9.706 34.546 1.368-5.363 1.92-11.418 4.387-16.379 2.965-5.957 5.907-11.833 6.567-18.536 4.29-8.511 10.231-15.932 14.599-24.343 3.568-7.787 5.241-4.417 9.703-9.063-9.872-90.869-29.932-184.23-70.091-266.85C586.7 36.733 575.676 18.39 564.51 0"/><path fill="#fcde92" d="M1096.52 0h15.65a1048 1048 0 0 1-16.4 9.548l-.82-1.537z"/><path fill="#fefcf5" d="M703.663 2036.88c4.663 3.63 9.328 7.24 13.791 11.12h-17.711c1.232-3.71 2.337-7.54 3.92-11.12m-33.614-6.19c7.118 5.6 14.357 11.08 20.944 17.31h-22.727c.837-5.77 1.352-11.5 1.783-17.31m-283.675-81.96.869.95c.862 7.16-19.725 44.16-24.854 51.56-.904-1.2-1.419-1.5-1.505-3.11-.551-10.46 17.986-40.79 25.49-49.4"/><path fill="#fef9d6" d="M1063.66 0h32.86l-1.57 8.011.82 1.537c-3.45 2.39-7.26 4.33-10.92 6.39-6.9-5.615-13.76-11.012-21.19-15.938"/><path fill="#bf4c2b" d="M1082.64 0h13.88l-1.57 8.011c-4.23-2.518-8.27-5.208-12.31-8.011"/><path fill="#fef9d6" d="M772.231 2048a498 498 0 0 0-56.056-67.08c-12.069-12.14-25.095-23.48-36.348-36.4 41.887 26.7 72.082 62.44 99.177 103.48zm59.713-1837.501c25.426-22.841 84.677-59.731 115.924-76.131-15.718 17.992-44.607 38.549-64.918 51.888-11.855 8.272-22.104 17.056-32.311 27.222 2.404-5.453 10.147-11.617 14.44-15.994-10.086 4.477-19.755 9.545-29.39 14.898z"/><path fill="#fef9d6" d="M882.95 186.256c-1.141 8.856-31.958 30.578-37.94 42.034-1.246 11.126-15.302 18.767-15.592 28.482-8.192 9.634-24.753 19.834-34.794 28.373-25.564 21.741-50.615 44.421-75.157 67.308-30.305 28.26-52.01 61.726-77.687 93.913 7.293-20.674 12.459-41.326 21.48-61.481 34.461-76.992 99.89-129.053 168.684-174.386l3.745 1.883c9.635-5.353 19.304-10.421 29.39-14.898-4.293 4.377-12.036 10.541-14.44 15.994 10.207-10.166 20.456-18.95 32.311-27.222"/><path fill="#272428" d="M882.95 186.256c-1.141 8.856-31.958 30.578-37.94 42.034-16.04 16.571-43.623 41.809-64.221 51.127 16.667-13.52 30.478-27.303 45.626-42.39 5.969-5.945 12.96-11.802 17.995-18.547 3.367-1.068 4.417-2.151 6.229-5.002 10.207-10.166 20.456-18.95 32.311-27.222"/><path fill="#39333e" d="M835.689 212.382c9.635-5.353 19.304-10.421 29.39-14.898-4.293 4.377-12.036 10.541-14.44 15.994-1.812 2.851-2.862 3.934-6.229 5.002-16.373 6.998-53.652 49.305-68.791 63.911 11.362-27.449 36.913-52.399 60.07-70.009"/><path fill="#fef9d6" d="M207.208 1636.13c10.891 12.81 20.918 26.3 31.642 39.24 18.292 22.08 42.373 48.85 56.607 73.22 7.473 12.79 12.7 26.91 18.848 40.36 7.472 16.35 16.399 32.44 25.822 47.74 10.907 17.72 26.233 32.15 37.182 49.62a3232 3232 0 0 0-16.705 49.79c-12.868-14.07-25.786-28.05-37.9-42.78.93-5.52 2.502-12.47.277-17.76l-1.484.13c-2.404 3.16-3.606 6.05-4.943 9.77-6.196-7.5-13.276-19.48-20.069-25.79-2.24-1.96-2.586-2.4-3.576-5.19-3.83-6.09-7.973-12.14-11.448-18.43 4.918-8.38 11.651-13.64 18.187-20.59-9.543 2.22-16.543 3.66-24.294 9.99-6.857-11.06-13.858-22.01-19.595-33.7a660 660 0 0 1 24.03-9.22c-9.739-1.07-19.716-1.75-29.348-3.52-4.789-9.08-9.491-18.32-12.568-28.14 12.011-2.08 21.634-.88 33.489.94-14.684-12.75-26.937-21.42-44.747-29.56-11.378-27.64-16.52-56.51-19.407-86.12"/><path fill="#272428" d="M292.909 1854.48c5.303-4.83 10.968-8.74 16.934-12.7-4.068 6.43-8.129 12.32-13.358 17.89-2.24-1.96-2.586-2.4-3.576-5.19"/><path fill="#fef9d6" d="M370.561 2006.51c6.136-24.87 19.9-35.31 27.503-55.91 3.351-9.08 2.715-19.1 4.422-28.53 7.628 14.58 14.762 31.97 16.099 48.53 4.996-13.62 9.734-27.37 13.087-41.49 14.087 17.83 18.668 32.06 21.855 54.37 2.462-14.59 6.471-27.97 12.078-41.67 12.982 21.18 20.792 36.26 26.094 60.72 1.87-15.52 3.343-32.05 3.31-47.68 14.675 22.1 20.689 44.78 26.391 70.37 1.91-16.58 3.607-32.85 7.679-49.07 13.493 19.87 19.513 38.83 24.67 62.01a389 389 0 0 1 10.654-46.43c10.717 17.62 15.478 33.55 18.418 53.87 3.297-14.59 7.154-28.57 12.26-42.65 11.635 13.31 23.268 27.56 33.505 41.98 1.482-10.29 2.529-21.04 2.409-31.45 11.967 10.19 22.091 22.42 32.056 34.52H317.02l.475-1.82c12.193.2 24.435.64 36.624.17.601-7.56 2.293-15.22 3.692-22.68 1.382-.59 2.963-1.19 4.199-2.05 2.695-1.86 3.083-5.55 3.775-8.54-1.055-2.86-.877-8.46-.191-11.45.47-2.05.828-2.21 2.492-3.26 1.472 2.79.698 4.97 2.475 8.14"/><path fill="url(#c)" d="M370.54 2028.05c7.061-13.3 15.623-25.56 22.057-39.22-1.87 18.33-4.56 36.5-1.709 54.86 8.238-8.95 14.371-20.12 21.229-30.15-3.128 10.12-2.385 28.6-4.407 32.82l-.776 1.64H317.02l.475-1.82c12.193.2 24.435.64 36.624.17.601-7.56 2.293-15.22 3.692-22.68 1.382-.59 2.963-1.19 4.199-2.05 2.695-1.86 3.083-5.55 3.775-8.54-1.055-2.86-.877-8.46-.191-11.45.47-2.05.828-2.21 2.492-3.26 1.472 2.79.698 4.97 2.475 8.14-.488 6.37-2.302 15.48-.021 21.54"/><path fill="#c4bdb6" d="M394.584 2046.23c4.337.02 8.807-.2 13.126.13l-.776 1.64H382.96c3.929-.42 7.75-.99 11.624-1.77"/><path fill="#b7b893" d="M317.495 2046.18c12.193.2 24.435.64 36.624.17l40.465-.12a127 127 0 0 1-11.624 1.77h-65.94z"/><path fill="#39333e" d="M365.785 2013.08c-1.055-2.86-.877-8.46-.191-11.45.47-2.05.828-2.21 2.492-3.26 1.472 2.79.698 4.97 2.475 8.14-.488 6.37-2.302 15.48-.021 21.54l1.985.44-.396 1.37c-2.001 1.04-1.926 1.11-4.103.58-3.238-4.91.644-11.95-2.241-17.36"/><path fill="#f4b774" d="M271.585 1429.32c7.89-1.22 17.312-.72 25.181.77 31.373 5.97 56.398 31.83 73.441 57.28-7.144 6.18-14.103 12.42-20.829 19.06-10.259-8.67-20.376-16.85-33.34-21.05-15.025-4.86-30.006-3.45-43.917 3.9-13.573 7.17-22.739 19.08-26.951 33.72-8.271 28.76 5.393 65.67 22.145 88.99 8.061 11.23 18.301 21.36 24.849 33.58 4.008 7.47 9.759 21.25 6.499 29.46-.928 2.34-2.508 3.99-4.958 4.76-6.128 1.91-13.403-3.08-18.584-5.82-7.005-4.65-13.05-9.55-19.04-15.45-21.355-21.04-38.299-45.78-56.782-69.23-13.662-17.33-26.96-34.92-40.425-52.4-14.359-18.65-30.899-38.3-41.171-59.61-6.206-12.88-7.842-24.53-7.932-38.71a143 143 0 0 0 10.377 8.16c53.131 38.29 97.368-8.87 151.437-17.41"/><path fill="#b7b893" d="M564.51 0h476.12c1.24 12.176 4.13 24.252 4.94 36.43-34.63 23.683-71.093 45.055-106.467 67.641-30.078 19.204-58.998 40.219-88.185 60.729-67.239 47.25-132.377 93.904-184.715 158.148-9.872-90.869-29.932-184.23-70.091-266.85C586.7 36.733 575.676 18.39 564.51 0m-241.2 317.285c74.302 12.57 145.307 35.479 210.963 72.861 15.145 8.623 30.817 17.475 43.874 29.117.257 7.455 12.01 26.037 15.411 34.854-8.503-12.086-15.672-20.325-28.042-28.435a527 527 0 0 1 35.73 57.124c-4.057-4.117-7.746-8.295-11.049-13.048-6.3-9.065-28.096-48.906-35.994-51.093l-.013.886 2.628-.133-2.422-1.242c2.325 4.965 6.694 9.142 9.894 13.598 3.836 5.341 19.006 31.129 20.549 36.414l-.667 1.195a212 212 0 0 1-5.578-2.349l-1.473.972a391 391 0 0 0-12.873-7.697c12.999 13.661 27.271 25.865 40.748 39.013-23.506-12.206-39.04-37.404-58.745-54.755 7.208 9.338 14.569 18.701 21.279 28.404 5.347 7.732 10.216 16.163 16.184 23.418 4.226 5.137 15.001 9.8 17.351 15.222-4.374 2.234-16.248-1.99-20.832-3.454-12.766-4.076-19.822-8.987-31.081-15.702 3.743 8.755 45.332 34.472 55.044 38.37a103 103 0 0 0 2.467.952c1.409 2.049 1.049 1.832.853 4.129-2.758 4.45-9.185 6.513-14.138 7.551-4.248.89-8.735 1.127-13.058 1.502 6.725.993 13.478 2.235 20.289 2.313l1.653 13.645c-25.424 11.441-49.565 11.905-76.44 5.444 20.045 13.243 42.189 20.335 65.665 24.749-11.938 5.55-23.163 6.864-36.083 8.385 11.453 3.828 22.719 7.715 34.671 9.668-5.578 18.17-12.436 35.923-17.281 54.314-5.283 20.053-8.294 40.824-14.979 60.475-9.274 28.748-30.12 57.854-50.369 80.22-2.652 3.692-5.357 7.281-8.246 10.79-11.452 15.903-25.39 30.367-38.525 44.87-20.03 22.118-40.275 44.248-59.318 67.221-1.95-9.289-.384-21.014-.081-30.572.588-18.54 1.58-37.952-.145-56.442-.403-77.193-12.643-161.533-24.057-238.195-14.175-95.208-29.972-191.247-53.764-284.559"/><path fill="#727760" d="M457.359 737.006c16.918 23.851 25.249 53.89 41.841 77.956-11.452 15.903-25.39 30.367-38.525 44.87-20.03 22.118-40.275 44.248-59.318 67.221-1.95-9.289-.384-21.014-.081-30.572.588-18.54 1.58-37.952-.145-56.442 2.776 1.361 6.487-2.819 8.595-4.499 16.076-12.808 29.97-22.922 50.652-25.825-.324-24.264-1.845-48.476-3.019-72.709m50.087 67.166c-10.731-96.227-49.742-196.558-86.176-285.942a1871 1871 0 0 1 101.252 146.267c12.185 19.55 24.746 38.954 35.293 59.455-9.274 28.748-30.12 57.854-50.369 80.22"/><path fill="#fef9d6" d="M1776.3 550.058c28.13-6.879 52.88-18.588 79.49-29.4 25.37-10.312 51.01-19.799 75.94-31.178-18.78 17.043-39.3 32.883-58.82 49.157 14.32-.119 27.41-3.848 41.36-6.466a2206 2206 0 0 1 47.41-7.985c6.2-1.003 14.34-3.435 20.48-2.547-.59.738-24.06 8.017-26.4 8.892-19.93 7.43-43.45 18.645-59.44 33.029-.5.444-.98.9-1.47 1.349 29.84-3.651 62.28-9.451 91.49.036-21.05 2.165-38.15 7.439-57.3 16.209 20.96 9.729 100.18 46.591 112.22 62.994 2.11 1.983 4.09 2.715 6.74 3.685V2048H834.317a791 791 0 0 0-143.91-119.47c-16.993-11.02-35.401-19.7-52.411-30.73 6.86 10.59 15.451 20.06 23.517 29.74-22.338-12.16-43.636-17.98-68.746-20.86 43.68 28.12 88.691 52.24 120.426 94.72-95.151-12.05-201.866-52.43-282.762-103.61a280.6 280.6 0 0 1-122.726-176.5c4.396-10.46 9.004-20.87 12.375-31.72 3.438-11.06 5.789-22.47 9.488-33.45 15.911-47.25 50.53-72.14 89.66-98.92 39.539-27.07 53.928-48.42 75.82-89.71 8.054-15.19 15.986-30.19 19.183-47.26 15.37 13.96 22.958 32.04 23.98 52.53.9 18.04-1.311 37.11-7.156 54.23-6.964 20.4-22.825 46.47-22.8 68.08.008 7.02 3.321 14.25 5.886 20.69.931-1.4 1.858-2.73 2.991-3.98 8.363-9.18 21.966-15.63 34.3-16.2 15.212-.7 26.807 9.06 37.425 18.58 11.215-15.33 26.904-32.97 46.395-36.97 18.861-3.86 38.398 7.19 53.413 17.34 11.889-14.52 29.49-30.39 48.379-34.45 21.573-4.63 48.437 9.43 65.963 20.7a144.6 144.6 0 0 1 33.732-27.11c32.578-18.8 56.846-13.76 91.405-4.81l47.533 12.46-1.155-1.25c-9.005-9.67-19.929-17.41-30.803-24.83-42.737-29.19-90.14-45.83-142.025-47.51 16.284-16.72 40.985-29.51 63.351-35.64 38.124-10.46 81.846 5.07 113.06 27.4 10.988 7.86 21.37 18.82 33.175 25.25.48.27.98.52 1.47.78 6.4-.79 13.24-.08 19.7.18-10.88-7.31-20.31-17.72-30.15-26.37-9.56-8.4-20.694-16.27-29.105-25.75-.915-2.05-.598-.92-.82-3.43 1.412-.77 2.59-1.41 3.751-2.55.259-.26.494-.53.741-.8-6.447-3.96-11.895-8.41-17.142-13.84 10.394 2.92 20.288 7.77 30.33 11.71 16.005 6.29 31.615 9.35 48.645 11.16-32.71-9.56-62.521-25.47-80.13-55.65 9.731 4.33 19.344 9.28 29.423 12.73 23.857 8.17 52.897 10.46 77.997 10.49-29.87-7.17-62.87-13.88-84.892-36.89 3.471 1.93 6.919 3.91 10.413 5.8 23.619 12.74 68.199 14.34 93.499 6.74-12.03-.07-24.33.06-36.07-2.95-34.43-8.84-83.932-52.08-101.828-82.29 7.419 4.99 13.885 11.11 21.586 15.83 22.664 13.89 53.122 21.06 79.182 25.16-12.64-5.83-25.84-10.54-38.25-16.84-30.441-15.45-54.013-38.28-77.556-62.42 11.151 5.75 21.461 13.46 32.118 20.09 21.177 13.16 43.128 21.55 67.278 27.07l-1.7-1.04c-19.31-12.12-41.453-17.45-60.091-31.28 18.386 4.54 35.001 13.14 54.341 14.12-11.08-9.64-23.39-17.84-34.332-27.69-36.837-33.14-60.987-75.79-77.154-122.14 27.043 41.08 64.373 72.07 102.996 101.69-4.11-13.77-5.34-27.77-7.31-41.94 11.66 16.69 19.54 35.28 32.21 51.42l-.5-4.47c7.41-.37 15.48 1.45 22.82 2.5 20.03 2.88 40.07 7.15 60.12 9.59-1.98-1.67-3.92-2.88-6.15-4.18-6.77-5.26-13.87-9.99-21.01-14.74-11.19-10.54-22.64-20.64-32.95-32.08-36.71-40.71-55.72-89.4-68.057-141.99 17.027 26.4 36.357 51.28 53.517 77.65 8.22 12.63 13.46 27.56 22.84 39.34a56.1 56.1 0 0 0 20.75 16.19c7.53-.15 15.8 4.63 23.38 5.77 12.82 1.91 26.78.71 39.79 1.45-15.79-24.73-36.72-45.18-57.87-65.27 14.32 7.65 27.5 15.69 42.65 21.82 13.09-3.54 36.35 1.81 51.03 1.49 33.97-.75 72.95-2.61 106.31-8.01-34.91-3.55-69.61 1.51-103.78-9.22 11.13 1.1 22.04 2.24 33.24 1.31 21.72-1.81 42.95-8.19 64.85-8.18a102 102 0 0 0 2.66.04c50.44.02 85.24-15.24 120.27-50.42-10.44 4.29-20.81 8.88-32.04 10.63-29.11 4.55-77.48-5.78-105.71-15.33 7.51-1.45 15.78-1.35 23.44-1.98 12.65-1.06 40.85-2.7 49.65-13.07 2.04-1.28 2.36-1.24 3.16-3.47l-1.6-1.63c11.67-2.35 24.41-5.24 34.81-11.22l-.1-1.53-.21-.71c-2.36-2.34-.54-3.93-2.53-6.77 6.71-3.97 14.9-5.45 21.75-9.37 3.34-1.54 6.87-2.7 10.33-3.95 1.46-.23 1.73-.21 2.93-.54 9.16-2.53 18.53-8.08 26.73-12.78 28.09-16.09 51.71-34.592 67.96-62.9-6.03 6.326-12.41 11.033-19.87 15.508a360 360 0 0 0 8.28-12.162c26.01-40.452 44.6-89.446 34.15-138.099 2.89-.462 3.72.004 6.07 1.75 7.27 5.396 12.64 10.292 21.21 13.842-4.66-5.561-8.53-11.257-12.32-17.437a432 432 0 0 0 11.78 9.301c-4.28-7.483-8.02-14.848-11.45-22.749 10.15 10.826 17.59 22.639 33.97 23.982 2.12.174 3.61.279 5.21-1.218-2.59-4.075-10.22-5.759-14.15-8.997-8.83-7.279-12.49-25.692-17.16-35.976 12.18 11.087 25.31 23.744 39.46 32.212 5.74 3.436 14.8 3.574 19.74 7.805l-2.92.912c3.11 1.481 3.35 1.831 5.18 4.772 5.48-2.674 10.45-5.951 16.72-4.565-1.27 3.244-4.66 3.242-5.29 5.916 1.97.051 3.9.032 5.87-.065 3.02-.137 29.8-13.602 35.41-15.816 14.33-5.65 29.71-8.983 44.68-12.45-23.48-1.341-41.76 5.762-63.75 13.015 30.36-22.301 54.92-24.591 91.26-26.944-39.87-13.063-44.27-9.381-81.81 6.7 15.23-11.47 28.37-18.716 47.11-22.749a2621 2621 0 0 1-46.79-22.239c13.95.1 26.73 1.995 40.39 4.695 8.07-1.114 17.44 1.883 25.98 1.697-6.14-1.548-12.48-4.665-18.56-6.739l-.99-1.674 1.67-.862c25.86.765 55.97 2.424 78.29 16.641-16.53-29.67-30.9-55.123-62.99-69.975 9.18.838 18.05.503 27.19-.583-9.38-13.143-20.25-20.373-35.46-25.348-4.33-1.415-8.94-2.222-13.13-3.998-.52-.222-1.04-.455-1.56-.682 17.23-1.08 33.71-1.278 50.94.118-1.93-3.025-3.94-5.866-6.28-8.586-16.76-19.473-40.82-29.713-66.11-31.446 23.88-4.396 40.73-18.597 59.95-32.333-13.25-2.679-26.07-7.476-38.75-12.08 39.98-3.066 72.49-16.439 104.56-40.547-11.39.955-21.09-.311-32.34-2.299"/><path fill="#161312" d="M2048 2031.1v16.9h-1.94c.06-5.34-.07-10.7-.13-16.04z"/><path fill="#272428" d="M1997.76 1789.97c2.23 7.66 1.94 16.53 2.37 24.49-2.23-6.48-4.34-12.67-8.48-18.23 3.17-1.57 4.27-3.3 6.11-6.26m-593.87-434.41c8.99 1.51 17.72 4.12 26.58 6.2-6.97.19-14.16.04-21.1.72-1.33-.41-2.58-.9-3.87-1.42-1.25-2.26-2.17-2.85-1.61-5.5m378.31 531.24c5.83 8.87 13.32 16.53 19.72 24.99a52 52 0 0 0-6.06-2.68c-.66 2.03-1.08 4.88-2.14 6.67a923 923 0 0 0-11.52-28.98m46.56 63.21c-.52-2.62-2.8-6.07-4.04-8.5l.71-2.13c7.12 6.75 13.17 15.18 19.33 22.82-2.51.54-4.28 1.64-6.42 2.95-2.65-5.55-5.77-10.32-9.58-15.14"/><path fill="#de8c32" d="M976.867 1446.8a1166 1166 0 0 0 50.813 36.47c-19.21-7.44-35.499-22.02-54.485-29.69-.915-2.05-.598-.92-.82-3.43 1.412-.77 2.59-1.41 3.751-2.55.259-.26.494-.53.741-.8"/><path fill="#272428" d="M470.755 1874.97c19.836 4.94 36.55 20.84 47.878 37.11-18.101-6.79-35.007-23.2-47.878-37.11"/><path fill="#39333e" d="M432.862 1804.42c2.973.56 5.378 1.18 7.96 2.81 10.812 6.87 18.003 27.6 20.333 39.74-.312-.43-.631-.85-.936-1.28-10.224-14.39-26.605-21.61-27.357-41.27M1885.79 1941.2c42.36 25.38 66.93 65.31 91.18 106.8h-2.48c-8.87-18.66-37.77-63.51-54.66-76.02-3.33-2.47-5.41-2.14-9.23-1.47-7.14-11.16-15.47-20.03-24.81-29.31"/><path fill="#272428" d="M2015.64 1954.92c13.17 14.88 24.46 30.97 32.36 49.25v26.93l-2.07.86c-4.77-28.15-17-52.15-30.29-77.04"/><path fill="#c8803c" d="M1999.72 669.411c16.04 6.479 32.27 12.469 48.28 19.034v22.171c-15.61-14.631-30.75-28.839-48.28-41.205"/><path fill="#39333e" d="M385.011 1778.27c2.266.83 4.518 1.7 6.587 2.96 15.102 9.22 18.8 29.41 22.585 45.27-3.19-2.13-6.297-6.25-8.963-9.09-10.877-11.61-20.757-22.33-20.209-39.14M1844.76 1962.2c17.31 21.38 29.77 43.69 39.55 69.38-2.53-1.99-4.45-6.15-6.16-8.93-7.86-12.75-16.37-30.6-31.92-34.86-2.3-7.69-5.05-15.14-7.89-22.64 2.14-1.31 3.91-2.41 6.42-2.95M484.711 1616.99c2.24-.13 4.686-.38 6.908-.02 4.7.77 10.376 5.25 13.034 9.09 1.918 2.77 2.972 6.1 2.306 9.47-.841 4.24-3.485 6.63-6.866 9.03-1.84.1-3.73.21-5.569.04-5.402-.51-10.567-4.66-13.704-8.86-2.19-2.94-3.386-6.7-2.735-10.36.749-4.2 3.198-6.19 6.626-8.39m55.158 275.72c.373.01.747 0 1.118.03 4.003.35 8.218 1.87 12.07 2.99 28.7 8.39 45.078 31.06 62.993 53.58-17.059-7.54-65.651-41.37-76.181-56.6"/><path fill="#c8803c" d="M1978.92 632.335c9.25 2.158 18.99 2.883 28.38 4.366 11.47 1.81 22.73 4.514 33.96 7.447 2.11 1.983 4.09 2.715 6.74 3.685v37.633c-11.1-10.048-22.39-20.063-34.44-28.963-11.33-8.364-23.33-15.745-34.64-24.168"/><path fill="url(#d)" d="M1873.61 1978.36c20.56 19.48 39.27 42.23 48.15 69.64h-30.54c-2.02-6.73-5.01-11.47-4.9-18.67-1.81-18.15-8.01-33.63-12.71-50.97"/><path fill="#39333e" d="M1987.2 1495.98a219.3 219.3 0 0 1 59.97 11.96l.83-.04v54.15l-1.3-.33c-13.84-12.24-26.15-26.66-40.84-37.8a734 734 0 0 0 30.13 12.53c-14.9-15.22-30.83-29-48.79-40.47"/><path fill="#958d8c" d="M2048 1507.9v54.15l-1.3-.33c-.3-17.92.2-35.86.47-53.78z"/><path fill="#595f50" d="M1910.6 1970.51c3.82-.67 5.9-1 9.23 1.47 16.89 12.51 45.79 57.36 54.66 76.02h-32.71c-3.6-26.53-18.32-54.19-31.18-77.49m-64.37 17.28c15.55 4.26 24.06 22.11 31.92 34.86 1.71 2.78 3.63 6.94 6.16 8.93l.94-.08 1.07-2.17c-.11 7.2 2.88 11.94 4.9 18.67h-47.05c.91-4.2 2.23-8.98 1.94-13.27-.12-1.64-.06-2.93.16-4.56 4.65-8.39 1.2-32.69-.04-42.38"/><path fill="#39333e" d="M787.76 1894.02c86.337 36.34 164.964 92.19 234.91 153.98h-30.916c-45.136-36.57-90.03-74.04-136.743-108.58a621 621 0 0 0-36.995-25.36c-10.128-6.42-20.995-12.4-30.256-20.04m1005.96 21.76c1.06-1.79 1.48-4.64 2.14-6.67a52 52 0 0 1 6.06 2.68c7.74 6.42 12.89 16.8 20.2 24.1 1.13 1.13 2.21 2.33 3.31 3.49l-.71 2.13c1.24 2.43 3.52 5.88 4.04 8.5 3.81 4.82 6.93 9.59 9.58 15.14 2.84 7.5 5.59 14.95 7.89 22.64 1.24 9.69 4.69 33.99.04 42.38-.22 1.63-.28 2.92-.16 4.56.29 4.29-1.03 9.07-1.94 13.27h-44.11l.44-1.31c16.37-43.17 7.11-88.64-6.78-130.91"/><path fill="#fefcf5" d="M1828.76 1950.01c3.81 4.82 6.93 9.59 9.58 15.14 2.84 7.5 5.59 14.95 7.89 22.64 1.24 9.69 4.69 33.99.04 42.38-1.79-27.82-12.64-53.15-17.51-80.16"/><path fill="#727760" d="M1820.77 1995.09c5.51 17.29 8.15 35.19 11.77 52.91h-17.63c4.11-17.79 6.21-34.58 5.86-52.91"/><path fill="#39333e" d="M1040.91 1886.38c10.51 1.69 20.72 4.74 31.13 6.68 42.71 7.96 185.45 119.96 220.68 154.94h-80.63c-5.82-8.58-13.12-16.52-19.76-24.49-42.56-51.14-94.69-97.27-152.36-130.69z"/><path fill="#727760" d="M1215.45 2048c-3.22-3.79-7.52-7.82-8.16-12.92.84-1.17.81-1.8 2.4-1.95 9.41-.93 23.18 9.25 30.3 14.87zm-24.1-43.58c8.48 2.93 17.07 5.73 24.89 10.21 11.55 6.59 21.32 15 34.07 19.39-8.13-8.89-18.02-16.02-27.26-23.72 15.56 7.98 41.04 25.95 53.78 37.7h-31.36c-7.88-7.94-15.88-15.39-24.93-22-9.84-7.18-20.25-13.23-29.19-21.58"/><path fill="#39333e" d="M745.257 1889.8c74.586 35.05 153.225 105.64 217.605 158.2H859.4c-41.97-44.66-117.6-118.55-176.27-135.86 17.643-.12 35.244.73 52.879 1.02 14.348.23 29.537-.36 43.772 1.45-11.651-8.06-23.433-15.97-34.524-24.81m56.437-402.07c16.284-16.72 40.985-29.51 63.351-35.64 38.124-10.46 81.846 5.07 113.06 27.4 10.988 7.86 21.37 18.82 33.175 25.25.48.27.98.52 1.47.78 24.3 13.52 39.69 21.25 68.09 22.34 8.78.33 17.67.13 26.16-2.34 6.83-1.99 12.77-5.66 18.84-9.24l.18 1.28c-27.73 20.98-50.44 25.79-84.05 30.74 6.17 2.75 12.83 6.09 19.63 6.62 13.9 1.08 27.99-.04 41.91-.46a681 681 0 0 1 46.16.1c42.17 1.3 83.76 6.6 125.8 9.07l-.98.84 1.43-.07.52-.67 2.39.4c-18.1 2.18-36.67 2.17-54.88 3.43-18.11 1.26-36.42 3.8-54.57 3.99-23.53.25-47.07-1.51-70.6-1.53-56.23-.06-141.161 5.56-194.17 20.64 20.349 8.61 35.65 9.17 57.444 8.29-29.432 6.99-121.924 15.98-148.218 3.13-15.004 2.75-29.961 5.39-45.206 6.41a342 342 0 0 0 15.831 18.12c-24.854.88-46.078-2.93-69.722-10.45-21.718 5.94-41.766 9.18-64.39 8.95 6.391 8.42 13.535 15.74 21.394 22.79-19.055-2.19-38.041-4.77-55.832-12.43-5.843-2.52-16.242-15.25-21.298-15.14-1.089 2.13-1.041 2-.382 4.31 2.196 2.16 7.084 5.39 7.127 8.33-8.154 4.61-32.823 4.52-43.082 5.32a450 450 0 0 1 11.23 13.3c-17.565-.28-34.734-1.37-47.889-14.82-3.384-3.46-6.23-7.59-8.879-11.62-1.236.42-2.428.86-3.643 1.34-.492-1.74-.812-1.39-.112-2.63.714-1.25 1.352-1.76 2.372-2.71 1.874-1.76 2.192-2.94 2.786-5.39.931-1.4 1.858-2.73 2.991-3.98 8.363-9.18 21.966-15.63 34.3-16.2 15.212-.7 26.807 9.06 37.425 18.58 11.215-15.33 26.904-32.97 46.395-36.97 18.861-3.86 38.398 7.19 53.413 17.34 11.889-14.52 29.49-30.39 48.379-34.45 21.573-4.63 48.437 9.43 65.963 20.7a144.6 144.6 0 0 1 33.732-27.11c32.578-18.8 56.846-13.76 91.405-4.81l47.533 12.46-1.155-1.25c-9.005-9.67-19.929-17.41-30.803-24.83-42.737-29.19-90.14-45.83-142.025-47.51"/><path fill="#39333e" d="m870.557 1792.31 2.139.03c.727.73.348.51 1.415.84 16.524 5.09 32.045 12.98 47.7 20.26 46.463 21.6 91.309 46.74 136.389 71.06l-.61.54c-17.38-5.93-30.45-15.55-49.14-19.49l-1.42 7.21 22.08 10.12c3.9 1.23 7.81 2.62 11.8 3.5l-.94 6.44c57.67 33.42 109.8 79.55 152.36 130.69 6.64 7.97 13.94 15.91 19.76 24.49h-162.35c-54.932-55.34-144.627-113.75-214.273-148.97 36.513 7.74 67.179 2.11 102.959-3.82-6.45-1.73-12.99-3.14-19.5-4.63 11.921-.34 23.845-1.38 35.742-2.2-20.77-4.08-43.632-5.26-62.755-15.01l3.763.44c18.603 2.33 37.945.66 56.655-.03-13.409-5.28-26.142-12.17-39.551-17.37-21.251-8.25-45.274-11.03-67.827-13.24 8.025 8.6 17.412 15.69 26.38 23.27-36.686-5.53-64.971-16.47-100.051-24.75-11.065-2.61-22.354-4.15-33.594-5.79 18.063 13.39 46.664 39.52 65.838 47.64-29.788-4-71.015-16.06-100.696-23.96-10.65-2.83-21.341-6.34-32.182-8.33-9.008-1.65-30.393-4.63-38.53-1.06 3.164 8.16 26.744 27.92 34.391 34.4-22.779-7.89-45.409-15.89-67.287-26.1-9.975-4.66-19.062-13-29.595-16.18-12.309-3.73-25.691-3.2-38.419-3.22l13.739 22.38c-25.847-10.68-49.331-23.95-66.646-46.39 8.549-1.54 17.957-1.86 26.581-.83 11.441 1.37 21.262 5.44 28.432 14.68a559 559 0 0 0 34.9 4.21c3.69-3.6 7.556-6.81 12.181-9.14 26.241-13.21 57.762-.02 83.347 8.34 23.231-16.1 49.285-20.64 77.199-18.38 6.635.54 13.283 3.22 19.958 2.68 13.858-1.13 26.732-7.92 41.844-8.42 10.23-.33 22.172 5.11 32.061 2.51 12.204-3.2 24.705-12.2 35.753-18.42"/><path fill="#fefcf5" d="M982.581 1859.66a286 286 0 0 1 25.869 5.89l-1.42 7.21c-2.18-.88-4.44-1.57-6.67-2.31-6.159-3.34-11.993-6.84-17.779-10.79"/><path fill="#fef9d6" d="M1190.11 2048c-37.89-47.49-84.07-93.4-135.33-126.37-21.16-13.6-44.86-25.64-67.657-36.26-17.189-8-56.418-19.08-68.197-29.55l.029-1.14c12.233-3.79 63.966 15.69 78.239 20.65 3.076-1.32 4.636-.21 7.796.7l.7-.46.79.85-.4-1.65-5.06-2.82-.66-1.5c2.23.74 4.49 1.43 6.67 2.31l22.08 10.12c3.9 1.23 7.81 2.62 11.8 3.5l-.94 6.44c57.67 33.42 109.8 79.55 152.36 130.69 6.64 7.97 13.94 15.91 19.76 24.49z"/><path fill="#161312" d="M1000.36 1870.45c2.23.74 4.49 1.43 6.67 2.31l22.08 10.12c3.9 1.23 7.81 2.62 11.8 3.5l-.94 6.44c-5-2.61-10.11-5.03-15.17-7.52-8.91-3.92-18.41-6.78-27.606-9.97 3.076-1.32 4.636-.21 7.796.7l.7-.46.79.85-.4-1.65-5.06-2.82z"/><path fill="#39333e" d="M961.874 1768.96c35.207 7.38 69.846 19.96 104.186 30.69 96.39 30.15 190.85 63.5 280.64 110.34 25.31 13.2 49.72 28.13 74.22 42.75 17.07 8.76 33.04 20.64 48.68 31.69 17.54 12.38 35.34 24.56 52.42 37.55 11.05 8.4 21.54 17.5 32.48 26.02h-235.95c-14.28-13.88-30.49-26.64-45.74-39.45a1060 1060 0 0 0-177.38-122.14c-25.45-13.99-51.88-26.48-77.77-39.68l.12-.53-1.61-.46 1.31-.69c26.27.2 54.45 11.73 79.1 20.17-9.98-8.05-22.44-13.93-33.94-19.5-17.93-8.7-36.21-16.76-55.28-22.63-39.859-12.27-81.349-19.02-119.433-37.01 32.684 3.96 67.466.8 99.261-7.39-8.487-3.3-17.109-5.68-25.314-9.73"/><path fill="#727760" d="M1422.9 1998.34c-10.86-22.57-21.92-39.69-42.98-53.73 18.53 4.83 33.13 13.7 47.84 25.94-3.07-6.51-10.25-10.24-12.66-16.61l.79-1.57 5.03.37c17.07 8.76 33.04 20.64 48.68 31.69 17.54 12.38 35.34 24.56 52.42 37.55 11.05 8.4 21.54 17.5 32.48 26.02h-232.74c-15.13-13.16-27.97-26.03-40.38-41.78 9.3 2.99 22.28 6.87 29.06 14.37.43.48.83.98 1.24 1.46l.41-1.74c-4.18-14.19-24.07-31-35.11-40.95 21.79 6.18 39.55 20.29 55.18 36.3-7-20.79-17.98-45.68-35.25-60.01 7.75 1.75 15.24 4.84 22.68 7.58a2119 2119 0 0 1-13.82-17.5c30.2 3.51 56.19 14.01 79.78 33.46-10.17-15.22-20.31-23.79-35.98-33.18 28.69 9.1 53.51 30.14 73.33 52.33"/><path fill="#39333e" d="M793.523 1710.18c17.396-20.79 39.139-30.52 66.001-32.96 37.034-3.37 75.977 10.06 112.394 16.15 77.082 12.89 152.992 28.78 229.102 46.51 116.55 27.15 226.48 58.08 337.87 102.73 43.41 17.4 85.28 35.03 126.16 57.88 18.98 10.61 41.17 20.81 57.76 34.74a74.9 74.9 0 0 1 16.44 19.74c5.74 7.69 10.06 16.39 14.55 24.85l8.47 13.87c-3.32-16.53-7.83-32.44-15.02-47.73 21.81 19.59 40.04 44.5 46.54 73.63 1.75 7.83 1.82 20.9 6.71 27.1l-.44 1.31h-222.42c-11.2-10.18-23.42-19.43-35.28-28.82a1712 1712 0 0 0-87.05-64.49c-19.74-11.12-38.64-23.63-58.44-34.61a1350.4 1350.4 0 0 0-226.28-101.75 3158 3158 0 0 0-128.21-39.95c-20.8-6.04-44.941-11.12-64.897-18.63 55.687 4.34 71.237-7.98 113.707-41.87-50.75-9.33-106.145-4.96-157.105 1.65-18.875 2.45-37.674 6.05-56.621 7.82a922 922 0 0 1 61.021 35.12c-64.078-18.16-122.617-29.26-188.542-12.49 7.247 5.98 14.47 11.88 22.09 17.39-13.36-1.21-26.341-2.61-39.432-5.72-16.344-3.88-32.454-9.56-49.228-11.29-20.131-2.08-41.279 1.9-61.44 3.02 10.28 12.19 20.577 22.9 32.925 33.06a332.6 332.6 0 0 1-55.724-16.71c-14.462-5.77-29.734-14.85-45.154-17.3-12.403-1.98-26.394-.64-38.938.01 6.795 6.38 11.554 13.32 16.568 21.11-11.05-2.78-22.321-3.98-33.068-7.97-17.373-6.45-36.966-24.4-56.745-23.35-2.785.15-5.971 2.42-8.673 3.35-8.13 2.8-19.659-2.66-23.937-9.77-1.825-3.04-2.326-6.94-1.162-10.32 1.231-3.57 4.222-6.36 7.682-7.75 4.806-1.92 10.311-1.57 14.936.69 7.189 3.52 10.195 9.25 13.356 16.2 5.778.95 13.356 3.18 18.924 1.09 1.388-1.73 1.379-2.96 1.67-5.08.602-4.38 1.729-6.77 5.319-9.53 7.272-5.59 16.875-6.03 25.6-4.61 16.926 2.77 32.149 12.74 46.617 21.41 2.705-11.85 7.587-21.42 18.282-28.02 15.343-9.47 35.423-8.19 52.174-3.75a136.6 136.6 0 0 1 44.279 20.43c8.283-15.61 18.018-25.75 35.368-30.94 32.442-9.72 71.74.19 101.291 14.55"/><path fill="#595f50" d="M1735.82 1960.09c-4.07-10.85-23.04-17.76-24.58-28.61l2.09-.22c10.83 5.56 17.06 15.55 24.46 24.64l1.46-.93c5.74 7.69 10.06 16.39 14.55 24.85-2.9-.67-15.47-16.13-17.98-19.73"/><path fill="#727760" d="M1515.44 1905.09c44.06 22.62 84.28 48.19 112.32 90.18-3.91-28.53-13.64-54.8-27.91-79.78 13.14 13.79 24.5 29.36 37.82 42.88-2.24-14.5-4.61-28.88-10.12-42.56 9.56 7.13 19.08 14.23 27.62 22.59 19.3 18.87 36.49 44.28 51.13 67.04-6.69-25.35-13.69-53.03-32.12-72.53 8.1 6.61 19.91 16.92 30.53 18.42l1.74-1c.64-4.73-4.43-10.72-7.2-14.35a114.6 114.6 0 0 0-11.36-12.69c18.35 9.58 31.95 24.09 47.93 36.8 2.51 3.6 15.08 19.06 17.98 19.73l8.47 13.87c-3.32-16.53-7.83-32.44-15.02-47.73 21.81 19.59 40.04 44.5 46.54 73.63 1.75 7.83 1.82 20.9 6.71 27.1l-.44 1.31h-222.42c-11.2-10.18-23.42-19.43-35.28-28.82a1712 1712 0 0 0-87.05-64.49l.28-1.27-15.39-10.1c26.11 6.41 51.27 20.4 72.52 36.76-20.36-23.15-40.67-43.65-66.92-60.18 39.53 14.11 73.9 30.92 108.48 54.79 8.52 5.89 17.68 11.7 25.27 18.77-5.25-9.48-11.35-18.43-17.13-27.58-14.08-22.25-26.81-43.23-46.98-60.79"/><path fill="#39333e" d="M1982.56 1595.86c-8.34-12.04-18.83-22.94-29.93-32.48-5.18-4.46-20.17-15.48-27.16-14.92l-.39-2.03c22.63-9.02 69.87 15.04 91.32 22.73 10.02 3.59 20.32 6.24 30.65 8.76l.95.04v134.92l-1.41-.07c-14.26-3.97-28.24-12.03-42.11-17.42 12.55 16.75 29.56 31.77 40.32 49.59a778 778 0 0 1-.08 41.69c-14.64-16.34-26.71-29.86-46.53-40 22.91 29.9 31.52 47.21 43.02 82.95-16.06-21.47-34.49-44-54.36-62.08 3.83 7.32 8.11 14.65 10.91 22.43-1.84 2.96-2.94 4.69-6.11 6.26-12.39-13.99-26.51-27.12-41.86-37.8 11.23 12.54 15.51 22.56 18.13 39.33-18.89-26.85-53.85-41.91-83-54.69 23.79 23.98 39.81 53.72 57.9 81.87-14.39-11.92-27.86-26.78-44.32-35.79-.36.79 12.87 12.23 17.91 18.21 13.52 16.05 22.73 34.92 30.09 54.42-11.72-11.34-22.33-23.94-33.84-35.52-10.82-10.91-22.98-20.78-34.6-30.83 8.42 11.1 16.25 21.94 22.52 34.46-6.35-6.45-12.67-12.87-19.99-18.24-24.09-17.67-56.75-30.11-85.25-38.88 27.69 17.29 46.31 34.09 66.01 60.03-23.52-19.38-50.48-30.31-78.95-40.18 12.67 12.06 22.97 26.13 37.2 36.49-17.79-6.53-34.74-16.67-52.14-24.33-22.09-9.72-46.17-14.87-69.88-18.98 15.87 8.41 42.27 23.87 55.11 35.83-15.62-5.74-32.17-8.16-48.36-11.71-17.93-3.93-35.95-8.77-54.22-10.77 31.96 12.37 54.14 31.69 77.54 56.17-34.71-23.55-54.97-26.67-94.29-36.73 28.98 17.87 50.76 40.7 71 67.76 9.34 12.49 18.33 25.45 28.99 36.86-18.65-10.73-36.01-23.77-55.07-33.85-53.07-28.08-108.76-50.84-164.95-71.83a2412 2412 0 0 0-256.9-79.79c-51.33-12.68-103.54-22.47-155.42-32.55-20.35-3.95-40.53-8.57-60.93-12.31-45.388-8.31-91.158-16.56-137.146-20.67-6.115-.54-12.274-.91-18.414-.67-6.949.28-20.598 4.17-26.694 2 19.269-6.24 43.656-6.91 63.933-10.26a833 833 0 0 0 107.461-24.99c18.08-5.49 36.32-11.8 53.44-19.85 31.48-14.8 61.19-33.36 95.32-41.66-9.24 6.35-18.71 12.8-27.31 20 72.41-9.15 121.34-36.98 197.22-17.65-30.72-.02-60.97 5.35-89.5 17.08 41.88-1.49 75.68 3.15 115.95 13.62-24.67 1.9-48.2-.14-71.33 10.38 49.32-.88 85.78 1.63 133.26 16.13-27.45-1.45-57.22 2.83-83.42 11.37 38.29.48 135.79 11.85 170.27 24.7-27.49-2.16-55.42.95-82.85 2.97 21.27 6.27 41.92 16.83 60.79 28.43 16.16 9.94 38.34 27.23 56.37 31.84 19.88 5.08 41.93.97 62.19.82 11.69-.09 23.08 1.47 34.61 3.12-14.27-10.58-31.38-14.82-47.74-21.01 11.4 1.31 22.93 1.43 34.37 2.22 17.42 1.2 34.84 2.89 52.24 4.36-7.88-5.05-15.54-8.12-24.47-10.89 59.16-7.44 79.48 6.86 133.28 19.95-25.87-20.63-54.95-41.14-85.91-53.08 15.94.22 31.43-1.58 47.43-.36-13.41-9.2-28.12-16.09-43.09-22.3 14.93 3.18 28.41 8.98 42.91 13.48-18.07-12.17-37.18-23.23-55.68-34.78 16.18 3.1 31.56 8.79 47.53 12.59 15.39 3.66 31.34 5.68 46.9 8.59-31.72-22.61-73.03-33.04-100.34-61.84 31.87 19.19 66.11 21.9 101.51 28.97a486 486 0 0 1 50.79 13.53c-10.24-15.3-23.53-29.1-35.71-42.88 40.45 20.79 87.67 65.84 114.32 101.89-6.41-22.89-12.99-45.84-20.69-68.34-4.63-13.5-10.09-26.71-14.8-40.19 6.76 5.46 13.05 11.5 19.43 17.39-12.69-25.44-20.62-36.07-41.25-55.67 10.25 4.33 20.22 9.79 30.29 14.58 25.11 11.98 50.09 22.83 77.01 30.06"/><path fill="#958d8c" d="M2048 1577.96v134.92l-1.41-.07c1.73-44.88-.61-89.98.46-134.89z"/><path fill="#fefcf5" d="M1132.81 1648.43c10.18-1.05 20.88-.24 31.08.4-34.03 7.03-69.94 9.89-104.61 11.37-9.48.46-18.76.16-28.22-.29 32.14-9.12 68.59-9.87 101.75-11.48"/><path fill="#fef9d6" d="M1457.17 1715.85c18.79 1.57 79.73 19.96 97.07 27.89 11.91 5.44 22.96 13.42 34.8 19.31-7.32.05-15.47-2.75-22.61-4.47-38.27-9.25-75.41-22.32-109.26-42.73m-347.64-49.44c8.29-.5 16.38-.15 24.66.32-15.99 10.47-32.41 19.69-46.43 32.85-4.88-.4-9.68-1.38-14.49-2.26-8.95-3.24-18.72-4.72-28.08-6.22 23.47-13.31 36.22-23.46 64.34-24.69"/><path fill="#39333e" d="M1776.3 550.058c28.13-6.879 52.88-18.588 79.49-29.4 25.37-10.312 51.01-19.799 75.94-31.178-18.78 17.043-39.3 32.883-58.82 49.157 14.32-.119 27.41-3.848 41.36-6.466a2206 2206 0 0 1 47.41-7.985c6.2-1.003 14.34-3.435 20.48-2.547-.59.738-24.06 8.017-26.4 8.892-19.93 7.43-43.45 18.645-59.44 33.029-.5.444-.98.9-1.47 1.349 29.84-3.651 62.28-9.451 91.49.036-21.05 2.165-38.15 7.439-57.3 16.209-16.8 7.235-35.48 15.789-49.24 27.961 29.94 7.568 59.43 17.186 89.43 24.337-19.2 1.229-38.15 2.869-56.78 8.051 25.04 11.106 49.74 24.149 72.18 39.925-31.46-11.579-67.69-20.783-100.4-8.61 26.87 10.328 52.33 27.783 74.8 45.667-22.13-9.471-41.21-16.722-65.54-13.485 19.58 11.719 33.06 27.947 48.75 44.152 9.49 9.809 19.49 19.367 28.44 29.669-11.49-8.259-23.98-16.019-36.59-22.466-10.11-5.172-20.61-9.42-30.54-14.973 22.69 21.943 43.32 44.053 61.16 70.163 10.55 15.44 19.67 32.201 30.93 47.091-27.55-20.519-55.33-35-87.66-46.366 9.2 8.208 18.93 15.776 27.94 24.21 26.41 24.713 46.35 53.252 60.72 86.379-.22-.217-.44-.432-.65-.652-5.79-5.882-10.44-12.845-15.94-19.013-14.96-16.774-32.42-32.221-51.57-44.074a485.8 485.8 0 0 1 54.44 169.82c2.4 18.26 1.87 36.65 4.89 54.88-12-34-32.39-62.78-51.63-92.968 3.96 13.728 7.58 27.548 9.78 41.678 2.16 13.89 2.95 27.99 4.9 41.92 1.94 13.9 5.21 27.61 7.08 41.51-6.3-9.59-9.93-21.27-14.81-31.65-6.87-14.62-14.6-28.81-22.23-43.05 8.25 32.92 19.67 64.17 32.85 95.41 8.51 20.15 18.31 39.98 25.12 60.8-8.56-10.44-16.53-21.33-24.83-31.98-11.22-14.38-22.65-27.72-31.44-43.79 11.19 57.54 19.32 98.08 71.86 133.26 3.78 2.54 7.72 4.76 11.73 6.9-28.73-5.84-51.28-10.88-74.74-29.54 20.67 28.86 42.97 56.61 69.02 80.84-28.75-7.53-52.21-24.61-76.32-41.29 26.21 39.79 49.79 66.87 84.13 99.74a2132 2132 0 0 0 28.07 26c3.66 3.34 8.56 6.73 11.65 10.52-27.96-10.95-53.42-27.23-80.43-40.26 21.19 22 45.82 56.89 52.4 87.36-22.18-35.71-42.68-47.05-80.15-63.72 10.91 12.92 24.01 23.15 35.07 35.67-17.65-11.02-36.66-16.46-55.47-24.91 19.25 18.68 39.79 37.13 55.53 58.96-6.24-4.33-12.44-8.85-19.36-12.05-22.59-10.42-51.77-9.94-75.76-5.58a241 241 0 0 0-11.17 2.31c4.04 4.74 8.32 9.4 11.9 14.49-46.73-.61-99.48-1.44-142.4 19.58 24.89-.13 48.65-.05 72.96 6.15-47.5 4.65-98.66 18.81-130.2 57.08-3.93 4.77-6.97 10.08-10.02 15.43 4.61-27.01 18.31-53.04 35.8-73.94-18.4 8.52-43.36 21.47-59.16 33.59 17.04-35.57 40.78-60.37 76.48-77.28-15 .31-25.42 3.07-39.06 9.16 30.88-26.55 58.15-42.75 99.91-41.23-15.02-16.68-34.49-30.45-54.57-40.42 28.82 3.11 52.97 9.2 80.51 17.53-29.41-32.59-122.61-80.65-165.52-92.91-23.94-6.84-49.33-9.44-74.16-10.74-33.29-1.73-68.96.6-100.56 11.57 10.99-1.3 46.79-3.63 56.6.46-39.92 2.77-86.65 8.78-119.05 34.11 23.33-4.29 45.67-4.74 69.28-3.33l-.04.88c-29.02 4.88-57.03 13.73-82.73 28.34 2.82.24 6.66.13 9.26 1.13-.56 2.65.36 3.24 1.61 5.5 1.29.52 2.54 1.01 3.87 1.42-7.1.44-27.15.41-32.46 4.61-1.12.89-.93 2.11-1.14 3.43 4.58 15.17 35.35 32.57 48.72 40.86-13.97-4.16-28.11-7.66-42.02-12.06 20.4 49.32 82.77 102.1 126.2 132.1a1476 1476 0 0 0-157.24-51.84c-36.58-10.1-88.62-19.09-121.48-35.6-24.2-12.16-41.24-34.71-64.44-48.54-28.45-16.96-66.9-26.94-91.97-44.76-18.01-12.8-33.11-37.73-48.2-45.51l-1.32-.67c-11.08-9.64-23.39-17.84-34.332-27.69-36.837-33.14-60.987-75.79-77.154-122.14 27.043 41.08 64.373 72.07 102.996 101.69-4.11-13.77-5.34-27.77-7.31-41.94 11.66 16.69 19.54 35.28 32.21 51.42l-.5-4.47c7.41-.37 15.48 1.45 22.82 2.5 20.03 2.88 40.07 7.15 60.12 9.59-1.98-1.67-3.92-2.88-6.15-4.18-6.77-5.26-13.87-9.99-21.01-14.74-11.19-10.54-22.64-20.64-32.95-32.08-36.71-40.71-55.72-89.4-68.057-141.99 17.027 26.4 36.357 51.28 53.517 77.65 8.22 12.63 13.46 27.56 22.84 39.34a56.1 56.1 0 0 0 20.75 16.19c7.53-.15 15.8 4.63 23.38 5.77 12.82 1.91 26.78.71 39.79 1.45-15.79-24.73-36.72-45.18-57.87-65.27 14.32 7.65 27.5 15.69 42.65 21.82 13.09-3.54 36.35 1.81 51.03 1.49 33.97-.75 72.95-2.61 106.31-8.01-34.91-3.55-69.61 1.51-103.78-9.22 11.13 1.1 22.04 2.24 33.24 1.31 21.72-1.81 42.95-8.19 64.85-8.18a102 102 0 0 0 2.66.04c50.44.02 85.24-15.24 120.27-50.42-10.44 4.29-20.81 8.88-32.04 10.63-29.11 4.55-77.48-5.78-105.71-15.33 7.51-1.45 15.78-1.35 23.44-1.98 12.65-1.06 40.85-2.7 49.65-13.07 2.04-1.28 2.36-1.24 3.16-3.47l-1.6-1.63c11.67-2.35 24.41-5.24 34.81-11.22l-.1-1.53-.21-.71c-2.36-2.34-.54-3.93-2.53-6.77 6.71-3.97 14.9-5.45 21.75-9.37 3.34-1.54 6.87-2.7 10.33-3.95 1.46-.23 1.73-.21 2.93-.54 9.16-2.53 18.53-8.08 26.73-12.78 28.09-16.09 51.71-34.592 67.96-62.9-6.03 6.326-12.41 11.033-19.87 15.508a360 360 0 0 0 8.28-12.162c26.01-40.452 44.6-89.446 34.15-138.099 2.89-.462 3.72.004 6.07 1.75 7.27 5.396 12.64 10.292 21.21 13.842-4.66-5.561-8.53-11.257-12.32-17.437a432 432 0 0 0 11.78 9.301c-4.28-7.483-8.02-14.848-11.45-22.749 10.15 10.826 17.59 22.639 33.97 23.982 2.12.174 3.61.279 5.21-1.218-2.59-4.075-10.22-5.759-14.15-8.997-8.83-7.279-12.49-25.692-17.16-35.976 12.18 11.087 25.31 23.744 39.46 32.212 5.74 3.436 14.8 3.574 19.74 7.805l-2.92.912c3.11 1.481 3.35 1.831 5.18 4.772 5.48-2.674 10.45-5.951 16.72-4.565-1.27 3.244-4.66 3.242-5.29 5.916 1.97.051 3.9.032 5.87-.065 3.02-.137 29.8-13.602 35.41-15.816 14.33-5.65 29.71-8.983 44.68-12.45-23.48-1.341-41.76 5.762-63.75 13.015 30.36-22.301 54.92-24.591 91.26-26.944-39.87-13.063-44.27-9.381-81.81 6.7 15.23-11.47 28.37-18.716 47.11-22.749a2621 2621 0 0 1-46.79-22.239c13.95.1 26.73 1.995 40.39 4.695 8.07-1.114 17.44 1.883 25.98 1.697-6.14-1.548-12.48-4.665-18.56-6.739l-.99-1.674 1.67-.862c25.86.765 55.97 2.424 78.29 16.641-16.53-29.67-30.9-55.123-62.99-69.975 9.18.838 18.05.503 27.19-.583-9.38-13.143-20.25-20.373-35.46-25.348-4.33-1.415-8.94-2.222-13.13-3.998-.52-.222-1.04-.455-1.56-.682 17.23-1.08 33.71-1.278 50.94.118-1.93-3.025-3.94-5.866-6.28-8.586-16.76-19.473-40.82-29.713-66.11-31.446 23.88-4.396 40.73-18.597 59.95-32.333-13.25-2.679-26.07-7.476-38.75-12.08 39.98-3.066 72.49-16.439 104.56-40.547-11.39.955-21.09-.311-32.34-2.299"/><path fill="#de8c32" d="M1710.32 762.038c16.46 4.435 35.62 12.54 44.89 27.876 1.64 2.718 2.37 5.179 2.59 8.316l-1.01 1.863c-19.48-12.876-30.34-21.816-52.9-31.339 8.07-1.114 17.44 1.883 25.98 1.697-6.14-1.548-12.48-4.665-18.56-6.739z"/><path fill="#fef9d6" d="M1039.93 1261.37c7.41-.37 15.48 1.45 22.82 2.5 20.03 2.88 40.07 7.15 60.12 9.59 28.61 17.85 40.48 49.15 60.1 75.24-31.81-8.24-47.02-14.18-73.64-33.88-6.24-4.62-13.29-9.15-18.9-14.46 1.54-.25 2.93-.1 4.39-.26.36-.04.67-.28 1-.42-4.12-4.21-31.64-4-47.89-25.32-2.8-2.4-5.13-5.69-7.5-8.52z"/><path fill="#de8c32" d="M1039.93 1261.37c14.66 8.87 41.27 14.23 58.39 18.5-18.02.49-32.96-1.08-50.39-5.51-2.8-2.4-5.13-5.69-7.5-8.52z"/><path fill="#fef9d6" d="M1091.81 1213.65c7.53-.15 15.8 4.63 23.38 5.77 12.82 1.91 26.78.71 39.79 1.45 14.83 16.32 55.27 51.76 77.16 53.45 1.2-1.33 2.39-2.66 3.87-3.69 4.96-3.44 12.87-4.95 18.62-6.64a228.46 228.46 0 0 1 108.74-4.98c-29.99 5.39-61.47 8.71-90.84 16.71 27.41.89 54.35 6.45 81.34 11-25.56 8.7-51.93 15.45-77.82 23.16 25.63-2.71 51.05-.76 76.75-.76-16.62 6.17-32.89 18.14-50.65 20.47-3.64.48-7.15 1.14-10.74 1.87 15.93 3.63 32.61 3.32 48.76 5.66-2.94 15.38-3.67 28.87-2.34 44.48-1.97-4.18-3.96-8.24-6.37-12.2 3.33 11.14 9.88 20.3 12.78 31.85-4.22-3.92-8.94-7.11-13.66-10.4 3.08 4.73 13.39 14.85 13.15 20.35-.31.14-.62.32-.95.42-4.85 1.49-19.3-.77-25.48-.66-10.88.21-20.87.25-31.32-3.28-38.95-13.16-86.99-65.69-109-100.39-13.26-20.91-23.04-44.47-39.91-62.91-12.65-13.84-29.29-21.62-45.26-30.73m571.69-449.591c13.95.1 26.73 1.995 40.39 4.695 22.56 9.523 33.42 18.463 52.9 31.339 13.58 16.31 28.15 33.032 38.48 51.636-11.63-1.915-25.13-5.07-36.87-3.726-.55.168-1.09.347-1.64.505-7.13 2.049-15.95 1.064-23.58 2.625l-.05 1.097c8.39 1.142 16.91.532 25.26 2.211l-2.11.934c35.8 7.465 48.83 13.097 69.5 44.697l4.31 6.652c-18.01-8.378-34.51-15.579-54.14-19.393.5.319.99.646 1.49.957 4.58 2.848 10.31 3.667 14.72 6.766 19.84 13.949 41.25 42.553 53.91 63.547-17.09-10.008-37.13-15.498-56.13-20.826 21.76 14.763 39.89 29.561 54.42 52.009-17.78-11.942-38.62-17.756-59.13-23.351 10.07 7.73 20.89 14.508 30.59 22.7 29.24 24.697 37.13 58.587 45.39 94.247-16.34-20.87-36.74-42.64-61.83-52.76 27.5 31.8 44.52 71.15 59.98 109.91-17.98-12.31-39.63-20.72-60.12-28.01 32.47 26.05 46.95 45.84 58.78 85.77-15.92-16.81-41.05-31.48-62.72-39.64 19.29 20.66 37.44 43.87 48.85 69.85-11.3-10.91-24.87-21.85-39.06-28.72 7.92 10.42 12.77 18.96 17.09 31.32a735 735 0 0 0-79.98-34.72c14.13 12.46 28.8 23.53 40.82 38.27-43.58-19.08-88.86-31.4-136.31-35.17 23.14-5.99 45.42-11.68 69.5-11.6-9.89-2.92-20.46-4.3-30.63-6.06-52.8-9.14-108.25-12.12-161.13-2.35l27.34.93c-18.81 4.8-37.74 10.3-57.27 10.86-5.49.16-10.77-1.06-16.24-1.05 21.09 8.5 43.44 7.81 65.81 8.02-40.98 13.25-99.4 22.56-142 15.55 22.55 11.21 44.63 13.24 69.42 14.98 2.99.21 7.72-.19 9.61 2.32l.04-.32c-43.98 8.74-88.31 8.01-131.54-4.68-14.83-4.36-28.91-11.48-44.08-14.6 10.43 9.48 21.5 18.72 34.07 25.22-54.81-7.74-109.78-17.56-159.94-42.09-5.58-2.28-10.72-5.54-15.92-8.56-8.22-2.43-16.09-5.27-23.99-8.63 13.09-3.54 36.35 1.81 51.03 1.49 33.97-.75 72.95-2.61 106.31-8.01-34.91-3.55-69.61 1.51-103.78-9.22 11.13 1.1 22.04 2.24 33.24 1.31 21.72-1.81 42.95-8.19 64.85-8.18a102 102 0 0 0 2.66.04c50.44.02 85.24-15.24 120.27-50.42-10.44 4.29-20.81 8.88-32.04 10.63-29.11 4.55-77.48-5.78-105.71-15.33 7.51-1.45 15.78-1.35 23.44-1.98 12.65-1.06 40.85-2.7 49.65-13.07 2.04-1.28 2.36-1.24 3.16-3.47l-1.6-1.63c11.67-2.35 24.41-5.24 34.81-11.22l-.1-1.53-.21-.71c-2.36-2.34-.54-3.93-2.53-6.77 6.71-3.97 14.9-5.45 21.75-9.37 3.34-1.54 6.87-2.7 10.33-3.95 1.46-.23 1.73-.21 2.93-.54 9.16-2.53 18.53-8.08 26.73-12.78 28.09-16.09 51.71-34.592 67.96-62.9-6.03 6.326-12.41 11.033-19.87 15.508a360 360 0 0 0 8.28-12.162c26.01-40.452 44.6-89.446 34.15-138.099 2.89-.462 3.72.004 6.07 1.75 7.27 5.396 12.64 10.292 21.21 13.842-4.66-5.561-8.53-11.257-12.32-17.437a432 432 0 0 0 11.78 9.301c-4.28-7.483-8.02-14.848-11.45-22.749 10.15 10.826 17.59 22.639 33.97 23.982 2.12.174 3.61.279 5.21-1.218-2.59-4.075-10.22-5.759-14.15-8.997-8.83-7.279-12.49-25.692-17.16-35.976 12.18 11.087 25.31 23.744 39.46 32.212 5.74 3.436 14.8 3.574 19.74 7.805l-2.92.912c3.11 1.481 3.35 1.831 5.18 4.772 5.48-2.674 10.45-5.951 16.72-4.565-1.27 3.244-4.66 3.242-5.29 5.916 1.97.051 3.9.032 5.87-.065 3.02-.137 29.8-13.602 35.41-15.816 14.33-5.65 29.71-8.983 44.68-12.45-23.48-1.341-41.76 5.762-63.75 13.015 30.36-22.301 54.92-24.591 91.26-26.944-39.87-13.063-44.27-9.381-81.81 6.7 15.23-11.47 28.37-18.716 47.11-22.749a2621 2621 0 0 1-46.79-22.239"/><path fill="#161312" d="M1705.51 855.266c17.55-5.931 34.38-8.148 52.89-7.263-.55.168-1.09.347-1.64.505-7.13 2.049-15.95 1.064-23.58 2.625l-.05 1.097c8.39 1.142 16.91.532 25.26 2.211l-2.11.934c-17.16-1.203-33.6-1.405-50.77-.109"/><path fill="#de8c32" d="M1163.75 1186.05c18.54 1.61 37.15 3.01 55.64 5.06-12.73 3.94-26.96.34-39.72 3.5-5.58-2.28-10.72-5.54-15.92-8.56m392.74-313.76c15.85-11.463 39-31.333 58.42-33.806 3.11 1.481 3.35 1.831 5.18 4.772-21.58 9.053-41.28 21.677-63.6 29.034"/><path fill="#39333e" d="M1672.89 931.022c.69.683.24.151.76 1.943-.83 4.014-1.47 8.88-3.67 12.386-9.66 15.349-55.91 26.954-73.68 31.782l-.79-.536c8.12-6.385 19.15-11.063 28.33-15.843 16.95-8.821 33.87-18.059 49.05-29.732"/><path fill="#de8c32" d="m1676.51 883.466.9-.008c-13 8.519-24.35 19.408-37.41 27.722-19.15 12.197-42.03 21.112-62.7 30.628l25.68-19.596c11.62-9.172 24.13-15.662 36.49-23.611-7.28 1.619-28.94 5.632-35.39 4.285-2.61-.544-5.17-.937-7.82-1.307l.26-.787c8.51-1.549 16.3-4.816 24.67-6.933 18.39-4.653 36.51-8.017 55.32-10.393m-39.12-38.924c-2.35 1.345-3.77 2.18-5.43 4.398l1.53.591c15.43-1.73 35.06-6.596 48.94-13.614.4-.199.79-.413 1.18-.619l-.21 1.603c-28.93 21.469-56.61 41.575-90.94 53.582 17.2-14.932 39.28-25.201 55.59-39.847a375.7 375.7 0 0 0-74.51 35.62c16.6-18.726 41.2-36.011 63.27-47.565-1.27 3.244-4.66 3.242-5.29 5.916 1.97.051 3.9.032 5.87-.065"/><path fill="#39333e" d="M1668.75 952.671c1.37 1.329 1.36 1.809 1.45 3.784.19 4.165-1.07 9.207-1.55 13.396-3.16 27.542-13.14 48.289-30.93 69.289 10.84-5.34 19.98-10.74 29.16-18.63a98 98 0 0 1-2.28 4.23c-5.03 8.72-13.08 16.09-20.85 22.37-22 17.78-84.85 56.92-110.71 63.88 5.88-4.75 12.04-9.1 17.86-13.96 15.45-13.92 22.05-31.92 31.22-50.06-21.5 4.33-32.46 10.72-48.42 25.7 24.71-45.79 59.52-52.67 97.11-80.972 14.18-10.681 26.06-25.841 37.94-39.027"/></svg>