<svg xmlns="http://www.w3.org/2000/svg" display="block" viewBox="0 0 2048 2048"><path fill="#fefefe" d="M0 0h2048v2048H0z"/><path fill="#041f45" d="M1575.68 133.446c58.2-2.051 170.21-3.389 221.18 23.234 9.7 5.063 18.64 12.54 21.81 23.398 1.76 6.02 1.23 12.443-.07 18.5-6.09 28.405-37.83 85.986-52.73 114.11 29.89-5.216 62.92-10.767 93.17-6.601 7.94 1.093 17.63 3.625 22.52 10.494 4.94 6.956 4.5 16.111 2.83 24.076-4.77 22.803-24.34 44.598-39.84 61.263-66.11 71.037-148.06 122.176-226.57 177.89-38.81 27.544-76.54 56.76-115.55 84.011a2028 2028 0 0 1-58.35 39.61c-12.2 7.819-24.79 14.981-36.92 22.909 19.48 38.538 36.45 77.864 41.64 121.181 6.79 56.601-1.64 117.34-37.64 163.399a917 917 0 0 0-38.1-92.454c-7.91-16.667-36.95-65.256-39.46-80.583-2.48-15.16 3.35-37.901 4.22-54.157l-17.77 10.152c-6.46 29.846-18.84 59.827-34.03 86.222-20.87 36.272-51.68 74.215-89.55 93.508-10.72 5.462-21.71 8.845-33.27 11.962 2.8-6.388 6.69-12.415 9.9-18.621a243.6 243.6 0 0 0 16.8-40.207c9.31-30.153 7.62-72.051 23.32-98.538 2.88-4.871 7.09-8.987 10.95-13.088-15.09 6.943-29.29 16.154-44.17 23.625-95.32 47.865-186.648 100.267-271.97 164.539 10.545 23.48 16.236 50.17 18.119 75.73 3.797 51.56-15.472 94.93-48.71 133.34.656-14.38.295-28.9-2.057-43.13-6.05-36.58-24.532-70.19-54.97-91.94-46.252 42.51-114.987 120.41-132.491 180.72 16.645 35.86 52.298 61.01 86.426 78.74-35.3 7.29-64.299 21.31-87.776 49.23 6.509 23.55 20.089 46.06 41.002 59.49 54.718 35.15 130.05 3.48 185.45-14.36a553 553 0 0 1 49.891-13.5c83.086-18.09 175.726-9.54 248.426 37.1-12.67 7.15-27.06 12.49-40.19 18.88-29.89 14.55-58.35 29.61-86.36 47.55-45.68 29.26-100.342 70.44-128.264 117.64-18.894 31.94-30.408 71.8-38.323 107.88-13.924 74.12-16.547 134.24 5.77 207.41-19.449-7.68-38.936-14.99-57.054-25.57-75.526-44.12-113.219-120.65-135.409-201.83-12.316-45.06-21.578-82.87-50.796-121.19-14.533-19.07-35.064-31.6-53.887-45.9-11.423-8.68-22.396-17.98-33.411-27.16a577.9 577.9 0 0 1-139.072-167.04c-9.06-16.1-16.297-33.15-25.229-49.33a298 298 0 0 0-12.127-4.54c-34.004-11.69-71.276-6.38-102.964 9.32-11.133 17.97-20.846 37.21-31.071 55.74-47.601 86.25-87.947 175.47-126.884 265.89a2350 2350 0 0 0-32.953 80.09c-4.145 10.54-9.195 28.89-14.86 37.73l-1.07.2h1.327c-.402.52-.587 1.41-1.232 1.54l-.011-.95-.722-.67c1.833-8.18 6.465-16.9 9.05-25.1 9.297-29.49 18.664-58.58 28.914-87.77a3454 3454 0 0 1 166.103-399.07c16.847-34.14 36.963-69.8 55.127-103.62 7.076-13.18 15.853-26.22 21.587-40 5.821-13.98 3.452-34.01 4.072-49.12a308 308 0 0 1 2.527-28.77 649.7 649.7 0 0 1 23.979-110.743c16.987-53.493 40.762-105.061 67.118-154.524a717 717 0 0 1 18.032-32.411c5.936-10.052 13.508-20.649 17.426-31.691 4.056-11.428-3.784-30.513-8.632-41.001-34.527-74.696-108.622-113.086-181.897-140.168 16.254-9.335 33.341-17.448 50.057-25.931 143.986-73.066 287.092-108.943 447.414-120.846 64.985-49.759 138.945-87.163 214.285-118.457a1528.6 1528.6 0 0 1 533.97-117.722"/><path fill="#fefefe" d="M532.282 663.839c.568-.372 1.14-.738 1.703-1.118 4.749-3.199 8.783-8.876 14.081-10.902.094 1.895-.089 1.884-.902 3.466-2.442 3.91-5.861 11.925-9.813 13.817-2.938-.891-3.418-2.748-5.069-5.263m146.165 687.551c3.246 2.72 10.523 10.75 12.022 14.44l-1.775 3.18-2.631 2.18c-1.719.21-1.67.63-2.763-.35-4.049-3.64-4.172-14.27-4.853-19.45m681.033-548.656c.06.344.14.685.17 1.033.63 7.439-3.89 31.539-8.96 37.337-.52-.846-1.05-1.685-1.49-2.572-2.45-4.923 8.44-30.128 10.28-35.798M408.613 1263.43c4.762 7.19 9.146 25.31 12.453 34.15l-13.241-4.68a340 340 0 0 1 .788-29.47m269.12 64.03c5.36 3.41 23.982 19.37 26.898 24.26l-1.063 1.95-4.065 2.58c-3.79.07-7.661-3.71-10.255-6.24-6.343-6.19-11.426-13.58-11.515-22.55m.081-23.02c9.578 7.67 17.455 17.65 26.922 25.61 5.247 4.41 11.719 6.74 16.87 11.03l-1.069 1.06c-2.505 1.59-4.77 2.86-7.561 3.89-6.089-2.06-10.993-7.4-15.464-11.82-7.927-7.83-19.612-18.01-19.698-29.77m698.646-524.615c.78 1.042.97 1.894 1.12 3.177 1.52 12.715-5.69 74.495-12.96 84.305l-1.76-.09c-1.91-3.024-3.39-6.276-4.94-9.494 9.61-25.591 15.87-50.698 18.54-77.898M399.382 1231.7c4.969 10.28 1.049 46.52-.94 58.78-3.052.84-6.317-.16-9.369-.71-1.125-.2-2.302-.83-3.36-1.27-3.306-9.48 10.102-45.75 13.669-56.8m280.562 46.84c4.98 3.58 9.484 10.1 13.618 14.74 8.66 9.72 18.216 19.78 28.896 27.31 4.537 3.2 18.456 9.32 20.46 13.74-2.565.75-5.39 1.74-8.078 1.79-8.994.15-20.107-9.07-26.543-14.8-12.089-10.76-27.407-25.87-28.353-42.78m-99.652-671.742 2.481-.923c-1.815 7.943-42.677 45.778-50.491 57.964a1275 1275 0 0 1-6.903-19.753c19.712-9.017 37.134-24.906 54.913-37.288m598.508 3.633c2.36-.324 4.64-.135 7.01-.036-3.15 2.858-34.04 9.163-40.83 11.317-11.54 3.661-22.09 9.708-33.47 13.653-5.35 1.856-7.18 1.063-12.12-1.349-3.72-1.763-7.27-3.964-10.84-6.016 29.81-7.691 59.58-14.483 90.25-17.569M391.287 1201.71c1.02 3.83 2.255 7.72 1.823 11.72-1.056 9.77-5.067 19.66-7.672 29.18a371 371 0 0 0-9.967 46.09l-13.531.48-1.102-.41c-1.545-7.91 26.004-75.71 30.449-87.06m-4.645-25.99c.394 2.92.397 5.01-.468 7.85-5.09 16.68-12.142 33.09-18.03 49.53-6.896 19.26-12.401 38.54-17.429 58.36l-12.053 3.04c-1.426-14.88 38.618-102.61 47.98-118.78M1391.32 763.736c.28.423.63.805.83 1.27 2.32 5.374 2.75 14.6 3.28 20.399 3.08 33.994-1.02 65.692-9.83 98.448-1.36 5.055-2.02 10.375-4.34 15.103l-1.49-.333c-3.28-5.31-5.91-10.965-8.64-16.567 19.76-35.702 19.33-78.758 20.19-118.32M1151.6 590.428l3.45-.397c3.1 1.091 4.8 4.029 6.75 6.527-22.74 2.405-46.34 6.977-68.41 12.904-8.91 2.393-20.63 8.523-29.6 9.072-1.7.103-3.07-1.749-4.3-2.831-4.72-2.961-9.81-5.033-14.9-7.25 34.92-9.072 71.14-14.449 107.01-18.025m-542.8-20.209.424.182c-2.303 4.218-16.665 13.624-21.02 17.28-21.152 17.761-41.951 35.744-62.093 54.649-2.54-.662-2.614-1.801-3.962-3.91l-8.255-15.179c30.062-18.154 62.491-39.724 94.906-53.022"/><path fill="#fefefe" d="M1402.23 761.783c2.6 2.428 3.45 7.145 4.33 10.565 11.35 44.46 7.57 89.522-.77 134.031-1.65 8.819-2.83 21.239-7.37 28.896-4.07-6.986-7.23-14.196-10.33-21.653 17.35-50.132 21.5-99.364 14.14-151.839m-259.06-193.204c.17.05.36.05.51.15 2.13 1.475 2.48 1.997 2.89 4.394-6.26 4.236-31.2 6.368-40.53 7.977-27.98 4.827-55.59 12.058-83.06 19.154-5.46-2.485-11.16-4.584-16.72-6.821l-11.398-4.591c17.518-2.758 34.768-7.728 52.298-10.694 31.64-5.353 63.99-7.823 96.01-9.569"/><path fill="#fefefe" d="M1414.75 771.626c1.18 1.23.92.797 1.73 2.272 4.98 9.06 6.75 23.109 8.94 33.172 13.47 61.815 11.15 108.525-9.25 168.986-4.82-4.384-8.43-18.465-10.89-24.796 19.04-60.691 21.41-117.234 9.47-179.634m-305.44-225.184c7.65-.198 24.3-2.946 30.34 1.615.28 2.616.78 3.151-.56 5.521-12.88 2.085-26.88 1.628-39.98 2.907a634 634 0 0 0-81.74 13.457c-7.63 1.751-41.485 11.241-45.602 10.064a904 904 0 0 0-36.107-12.135c54.957-13.601 117.069-19.365 173.649-21.429m-31.99-25.013c11.77-.309 52.7-3.382 61.33 1.576 1.97 1.137 1.95 1.649 2.52 3.714-3.22 2.806-49.83 4.29-58.21 4.957a1131 1131 0 0 0-144.189 21.071c-7.825 2.023-15.426 4.131-22.977 7.026-12.07-2.052-24.309-6.931-35.899-10.918 12.387-5.633 26.845-8.15 40.125-10.871 52.44-10.745 103.95-14.187 157.3-16.555M905.552 1081.83c-1.945-10.63-15.871-60.18-13.16-65.99 6.47 3.6 12.235 24.19 14.264 31.16 12.854 44.18 7.19 87.31-15.043 127.45l-.598 1.07c-3.097-17.98-7.323-34.93-14.915-51.63-4.982-10.95-33.261-56.84-32.954-64.32 1.233-1.71 1.248-1.76 3.26-2.35 9.796 8.38 33.308 64.89 38.206 79.75-1.363-19.25-6.169-36.03-13.171-53.95-2.104-5.38-14.273-31.6-13.819-35.54.036-.32 1.793-2.96 1.843-3.02.591-.72 1.649-1.51 2.391-2.1 3.232 4.17 5.248 9.64 7.483 14.4 10.51 22.39 19.246 44.52 22.945 69.13 1.145 7.62.932 22.94 3.735 29.3 1.469-4.17 1.475-8.93 1.802-13.34 2.533-34.21-10.684-67.79-21.01-99.79-1.057-3.27-3.751-10.61-.016-12.77 8.041 4.37 17.771 37.31 20.737 47.36a568 568 0 0 1 3.562 12.68c1.722-2.41 3.087-4.87 4.458-7.5"/><path fill="#041f45" d="M905.552 1081.83c1.736 11.12 1.835 22.11 1.495 33.34a560 560 0 0 1-5.953-25.84c1.722-2.41 3.087-4.87 4.458-7.5"/><path fill="#fefefe" d="M1061.17 494.479c24.89-.014 64.55.052 88.42 4.175l.1 1.575c-1.53 1.666-2.12 2.592-4.43 3.089-5.18 1.115-36.84-.229-45.72.061a1310 1310 0 0 0-89.03 6.569c-39.756 4.01-78.324 8.697-117.029 18.948-12.743 3.43-24.883 8.155-37.155 12.948-12.677-3.077-25.138-7.108-37.839-10.21 82.919-27.828 155.769-35.013 242.683-37.155m-369.615-24.086c2.217-.288 3.902-.429 6.104-.001-18.261 5.378-36.53 12.666-54.433 19.205-49.12 17.939-97.628 36.377-143.784 61.262-10.463 5.641-22.155 11.408-31.524 18.71l-9.446-6.757-17.689-13.268c17.493-6.153 33.851-16.279 51.194-23.198 63.676-25.403 131.422-47.059 199.578-55.953m-25.031 28.792 1.759.219c-5.545 5.312-31.346 15.503-40.13 19.684-28.034 13.346-119.403 58.382-139.083 78.529 15.776-5.92 31.134-14.126 46.386-21.344 34.309-16.237 68.278-32.457 104.539-43.957-10.153 6.674-20.516 12.806-30.384 19.933-10.903 8.172-22.765 15.203-34.163 22.682-22.129 14.519-42.778 29.309-62.149 47.419-13.753-18.006-27.888-35.055-43.61-51.364a946.4 946.4 0 0 1 196.835-71.801M649.707 1343.7c3.102 15.12 4.701 30.63 8.452 45.6 8.474 33.83 29.583 66.28 59.158 85.4 16.225 10.49 34.709 18.71 49.259 31.56 8.687 7.68 16.416 18.04 16.824 30.04.429 12.65-7.34 23.45-15.589 32.24-10.513 7.97-19.829 11.21-32.772 13.39-13.833-10.65-25.944-27.96-35.336-42.52-34.611-53.65-63.802-131.94-49.996-195.71"/><path fill="#fefefe" d="M755.179 415.436c1.992-.155 3.894-.053 5.885.069l.392.896c-9.747 6.229-79.375 16.275-96.908 19.62-73.33 13.993-144.535 34.957-212.155 66.846-15.824 7.462-32.225 14.863-46.252 25.421 24.867-8.559 48.336-21.274 73.095-30.197 82.481-29.726 162.623-47.225 249.857-55.695-9.789 5.118-22.6 6.92-33.326 9.481-37.024 11.408-75.012 19.271-111.987 31.219-35.777 11.562-71.758 25.36-105.321 42.4-13.729 6.97-26.627 15.371-40.27 22.468-19.525-11.876-38.576-25.273-60.625-32.088a925.25 925.25 0 0 1 377.615-100.44m23.045 1203.384c3.549 2.95 12.082 30.32 14.779 37.02a407 407 0 0 0 14.025 30.74 381.4 381.4 0 0 0 84.153 110.91c-4.032 42.43-3.622 83.29 4.475 125.33l-.779-.53c-76.834-52.19-107.955-150.21-124.61-237.33a861 861 0 0 1-5.574-38.43c-.677-5.3-.677-12.77-2.489-17.69-.097-.26-.233-.51-.349-.76l.891.22-.498-2.08 1.427 1.96-2.015-1.61c4.193 2.69 7.291 24.89 8.747 31.05 15.365 65.03 38.417 125.93 80.72 178.37 9.346 11.58 20.623 25.14 33.407 33.02.362-1.36.536-.79-.412-1.71-7.97-7.78-14.59-15.86-20.865-25.07-33.303-48.88-51.179-103.28-67.693-159.48-6.217-21.16-13.032-42.28-17.34-63.93M1246.78 334.096c1.01.772.92 1.416.68 2.728-.9 4.93-3.71 10.717-5.25 15.589a233 233 0 0 0-6.94 28.22c-7.39 39.873-4.7 77.276 9.94 115.165-79.06-19.725-156.99-27.29-238.29-19.393a1631 1631 0 0 0-37.547 4.014c18.073-15.131 40.077-27.823 60.077-40.331 73.34-45.857 135.14-77.86 217.33-105.992"/><path fill="#fefefe" d="M1082.22 1438.44c30.69-1.95 59.22 4.89 87.42 16.28-52.7 22.99-102.89 55.16-148.09 90.5-25.271 19.75-52.077 43.31-70.856 69.35-34.198 47.44-52.3 123.72-59.319 180.96-43.415-40.09-83.023-143.61-105.949-199.66 27.049 41.08 71.86 105.1 115.796 127.9-39.872-36.19-68.374-87.29-100.286-130.58 35.479 28.06 73.333 54.12 114.794 72.57-32.47-23.9-64.736-49.43-95.48-75.51 32.451 13.19 66.194 29.45 100.324 37.5-8.896-5.91-18.8-10.81-28.151-15.99-18.918-10.49-37.689-20.75-57.368-29.75a1512 1512 0 0 0-15.368-6.2c41.455 4.95 86.952 5.63 128.598 2.3a3118 3118 0 0 0-129.999-15.97l130.145-15.2c15.562-1.81 31.657-1.5 47.045-4.29-53.218-9.78-108.16 2.34-161.457 4.28 22.825-7.09 46.839-11.54 70.244-16.38a1796 1796 0 0 1 95.117-17.95c18.13-2.83 37.21-3.39 55.07-7.25-71.904-5.28-142.183 7.92-211.548 25.43 21.301-11.07 45.601-18.79 68.376-26.21 66.83-21.76 126.342-35.75 196.702-37.65 2.3-.07 5.79.14 7.42-1.58-70.94-6.18-125.851-.8-193.51 21.58-13.222 4.38-26.51 8.77-39.555 13.65-6.732 2.52-14.581 7.26-21.582 8.26 8.348-6.98 20.974-11.96 30.79-16.78 59.645-29.3 124.267-49.29 190.677-53.61M886.613 565.819c11.404 2.143 24.274 8.435 35.374 12.272 22.332 7.719 44.339 16.074 66.509 24.229 19.424 7.144 39.124 13.739 57.614 23.139a891 891 0 0 0-128.888 96.73 1287 1287 0 0 0-100.392 99.357c-111.09 125.2-196.415 284.294-205.879 454.064-4.785 85.84 16.841 178.24 65.694 249.76 12.841 18.8 28.128 34.89 43.258 51.76l.293 1.87a137 137 0 0 1-6.108-1.45c-27.83-7.32-53.937-25.8-76.765-42.93-56.845-42.64-107.449-91.72-143.549-153.53-19.468-33.34-42.665-82.28-44.493-120.94-1.304-27.57 5.268-57.89 12.254-84.5 49.311-187.858 194.561-388.022 329.248-524.947 27.638-28.096 61.814-65.013 95.83-84.884"/><path fill="#fefefe" d="M1173.27 500.159c27.23 2.402 49.05 3.368 76.45 8.284 14.78 24.978 32.76 45.175 56.48 61.927 61.4 43.362 135.92 57.328 209.48 44.46-41.16 36.645-84.8 66.816-131.73 95.509-16.01 9.792-33.47 21.406-51.1 27.832.11-3.734 1.04-12.732-.81-15.783-6.95 4.712-18.28 51.808-22.33 63.446-21.75 62.534-55.98 136.183-116.06 169.791 12.26-31.356 16.91-24.718 36.14-46.468 22.01-24.886 42.93-55.899 54.94-86.912 4.92-12.718 8.21-25.895 11.56-39.089-5.98 11.745-9.02 24.603-14.88 36.337-18.04 36.172-47.42 70.324-74.96 99.613 1.08-6.188 1.71-14.343 4.62-19.911 4.49-8.61 13.4-16.163 19.82-23.438 18.95-21.463 41.05-49.401 50.03-76.58-8.13 8.886-14.83 19.799-22.75 29.1-15.23 17.879-31.68 34.761-46.58 52.893 1.31-7.85 2.89-15.526 4.8-23.25 23.8-24.549 59.35-51.994 70.54-85.381-17.52 24.104-40.68 45.829-64 64.385l-.87-.432c4.56-7.431 13.84-13.932 19.82-20.504 22.83-25.106 46.28-55.486 53.59-89.114-10.45 12.711-17.68 27.347-29.42 39.271-15.08 15.299-86.39 45.097-110.17 56.945-84.38 42.008-167.063 88.57-242.676 145.134a1294 1294 0 0 0-114.979 98.246c-59.876 56.8-133.552 149.16-156.27 229.56-7.937 28.09-9.556 56.08-10.34 85.02-21.891-96.3-2.117-196.75 31.257-287.93 56.1-153.264 166.327-282.198 290.133-385.59 30.39-25.379 72.255-59.115 107.865-75.66 17.34 6.469 32.86 17.202 50.44 23.083 33.48-17.817 71.15-33.58 107.73-43.576-16.16-5.786-31.85-11.35-44.25-23.787-12.6-12.64-20.56-30.741-20.17-48.699.34-16.288 7.29-27.751 18.65-38.732"/><path fill="#fefefe" d="M1592.3 150.435c10.76-.562 21.63-.449 32.41-.466 35.42-.058 148.8 2.043 173.27 28.002 3.49 3.699 5 7.951 4.85 13.007-.16 5.706-2.09 11.379-4.07 16.688-5.6 15.011-46.89 104.448-54.69 111.906-2.08.726-2.69 1.397-4.85.719 3.85-11.594 11.84-23.411 17.53-34.34 9.36-17.938 17.89-36.379 26.72-54.581 4.14-8.518 9.71-17.646 11.46-27.036.64-3.424.55-7.527-1.84-10.304-2.76-3.192-7.38-3.799-11.35-3.562-20.87 1.252-41.27 13.789-57.04 26.662-44.52 36.323-70.32 91.519-84.34 146.178-5.12 19.969-7.96 50.416-22.73 65.771-2.52 2.626-5.74 4.805-9.57 4.469-4.32-.379-7.91-3.719-10.22-7.156-9.67-14.406-11.52-35.168-8.37-51.799 3.55-18.735 12-35.305 21.28-51.737 30.91-54.756 71.87-92.589 123.41-127.596-12.6 5.266-24.43 13.236-35.97 20.488-21.56 13.561-41.45 30.528-59.83 48.161-23.6 22.649-73.79 77.736-82.73 108.19-6.69 22.772-1.46 49.211-7.14 73.488-6.13 26.221-23.69 44.947-46.27 58.844-23.66 14.554-52.93 19.937-80.07 13.157-30.41-7.594-54.08-31.986-69.48-58.324-25.88-44.239-29.99-97.081-19.21-146.51 3.49-16.003 8.89-31.615 13.12-47.446-17.9 38.436-30.31 79.428-29.77 122.228.58 45.675 18.37 91.445 51.6 123.274a176.4 176.4 0 0 0 127.85 49.888c74.25-1.775 141.99-35.518 192.8-88.739-16.4 8.694-32.09 18.764-48.51 27.469-52.95 28.064-114.37 48.997-174.65 35.745 48.17-9.224 94.04-43.657 97.38-95.801 1.13-17.519-3.59-37.316-.03-54.205 3.59-16.995 14.38-32.585 24.58-46.24a595 595 0 0 0-4.45 11.327c-9.63 25.439-14.76 52.531-2.95 78.265 3.93 8.573 10.04 16.909 19.34 20.001 6.61 2.2 14.34 1.51 20.54-1.606 23.26-11.679 26.59-51.568 33.57-73.914 57.7-32.056 130.03-56.106 196.54-51.652 5.14.344 13.9.904 17.12 5.549 2.11 3.048 1.93 6.695.99 10.093-13.66 49.119-201.21 182.709-249.69 210.304a342.6 342.6 0 0 1-112.95 37.655c-59.96 8.314-129.32-2.112-178.4-39.613-36.65-28.005-56.63-71.832-62.49-116.834-10.03-76.98 18.83-144.348 64.82-204.113-10.71 8.151-20.4 17.847-29.52 27.718-139.31 44.14-254.36 104.709-374.221 187.852a1392 1392 0 0 0-57.495 42.809c-9.303 7.378-18.293 16.156-28.153 22.695-19.822 13.147-42.365 10.382-62.68 30.129 10.818 3.138 21.683 6.098 32.757 8.186-14.619 13.8-30.615 26.022-44.991 40.19-110.012 108.418-205.225 229.614-275.756 367.343-11.964 23.363-23.737 46.65-33.953 70.849a1047 1047 0 0 0-41.617 119.51c-2.07-55.55 5.261-121.2 19.135-174.918 11.908-46.11 29.514-90.499 49.51-133.619 15.542-33.515 32.194-66.987 50.884-98.879 45.998-78.49 109.334-160.328 170.678-227.614 24.87-27.28 50.959-51.367 78.972-75.309 105.37-90.054 215.163-146.647 345.1-193.454 43.54-15.683 88.61-30.54 133.6-41.608a1702 1702 0 0 1 330.23-45.834"/><path fill="#041f45" d="m1641.94 189.192.78.924a104 104 0 0 0-3.31 4.436l.53 2.021 3.42.656.55 1.27c-.74 3.008-2.94 4.926-4.98 7.138-4.01-1.71-6.36-3.018-8.14-7.302.08-1.607-.11-2.573.79-3.99 2.44-3.845 6.22-4.364 10.36-5.153m-380.83 39.08c23.06-6.281 49.66-14.476 73.62-14.991-6.45 2.174-56.95 17.301-61.75 17.517-2.42.109-1.41-.182-3.53-.546-2.2-.378-3.1-.452-5.11.435zm-53.53 15.715a1569 1569 0 0 1 53.53-15.715l3.23 2.415-.23 2.371c-4.81 5.846-40.07 16.323-49.52 19.472-2.09-3.037-4.59-5.764-7.01-8.543m-9.81 3.095c3.04.54 8.04 5.716 11.23 7.558-22.93 9.651-45.61 19.595-68.27 29.863-2.06-.647-9.66-11.771-11.54-14.069 7.27-3.019 15.3-4.986 22.77-7.516zm396.93 19.876c-.07 1.805.2 1.183-.48 2.348-14.73 25.196-53.74 45.241-81.13 52.219-23.37 5.958-44.32 1.206-64.81-10.988l-6.99-5.601c14.84 7.187 30.75 11.136 47.31 9.886 26.11-1.97 65.85-16.578 87.37-30.954 7.29-4.871 13.03-10.275 18.73-16.91m-476.94 8.014c4.88.513 10.93 10.049 14.02 13.812-22.61 9.951-43.81 22.489-66.22 32.595-5.76-5.884-10.94-12.261-16.2-18.584 22.18-10.464 45.76-18.37 68.4-27.823m-75.87 31.959c3.48 3.077 10.95 14.11 14.99 18.597-9.37 5.924-57.443 36.352-64.224 36.035-5.453-7.383-11.381-13.809-17.747-20.393 21.838-12.265 44.661-22.886 66.981-34.239M595.847 684.644c7.96 5.397 14.918 13.955 22.565 20.102-14.004 18.863-29.264 36.819-43.325 55.666l-1.701 2.409-.031.429c-.353-.39-1.889-2.051-2.124-2.455-3.437-5.908-9.86-10.271-15.137-14.708 12-21.149 26.286-41.195 39.753-61.443m371.641-339.602c3.148 1.263 15.911 18.896 19.005 22.611-17.439 12.127-36.313 22.601-54.07 34.365l-1.476-.619c-7.343-7.812-15.662-14.8-23.365-22.277 18.328-13.252 39.772-23.862 59.906-34.08M641.946 623.787c8.308 7.239 16.037 15.757 23.911 23.504-14.336 16.182-27.241 33.651-41.402 50.004l-.594.222-22.03-21.431zM1816.03 339.37c9.72-1.463 23.05-2.671 31.26 3.34 3.41 2.492 8.39 7.037 8.61 11.574.07 1.495-.8 2.028-1.66 3.12-3.96 1.008-7.57-1.8-11.28-3.226-29.79-11.448-125.1 23.773-155.21 37.239-12.06 5.514-24.4 12.025-37 16.132 11.47-7.368 22.23-15.662 33.96-22.66a353.6 353.6 0 0 1 131.32-45.519m-915.931 44.68c8.418 7.67 15.841 16.134 25.074 22.908-17.029 14.33-37.024 26.421-54.967 39.747-8.357-8.357-17.773-15.753-26.259-24.048 18.861-12.677 36.762-26.698 56.152-38.607m-129.395 99.628c9.406 7.293 19.094 20.407 25.385 30.522-6.123 5.408-42.144 40.728-45.788 41.304-9.095-8.295-18.393-16.434-28.366-23.66 15.547-16.769 32.393-32.22 48.769-48.166m66.974-55.458c7.577 8.412 15.451 16.584 23.182 24.855-5.218 4.949-55.806 49.508-57.493 49.867-8.199-8.743-16.673-17.313-26.044-24.804 19.36-17.234 39.742-34.197 60.355-49.918M551.463 754.719c6.698 3.785 12.037 9.461 18.922 13.074-40.536 61.786-78.174 122.983-109.827 189.944l-6.721 16.67c3.938-25.103 14.018-49.056 23.616-72.441 20.929-50.995 44.716-100.505 74.01-147.247m164.435-216.942c9.903 8.03 19.108 17.355 28.663 25.849a3265 3265 0 0 0-70.592 74.742l-1.022.526c-4.916-1.092-20.047-17.383-25.616-21.611 19.81-28.005 43.761-55.805 68.567-79.506"/><path fill="#041f45" d="M1532.62 182.373c24.87-4.019 49.38 4.9 70.25 17.59l-20.08-2.352c4.84 8.991 9.58 17.541 11.17 27.777 2.25 14.526-.93 29.511-10.03 41.193-8.58 11.026-20.61 17.756-34.41 19.569-13.13 1.725-26.93-.463-37.51-8.897a40.95 40.95 0 0 1-15.14-27.936c-1.15-11.648 1.7-23.086 9.28-32.157a35.96 35.96 0 0 1 24.54-12.956 32.5 32.5 0 0 1 24.32 7.841c7.02 6.047 11.38 14.568 11.68 23.872.29 9.138-3.18 18.762-9.67 25.265-5.35 5.353-13.3 8.659-20.9 8.273-7.48-.381-14.77-4.539-19.57-10.173-3.92-4.612-6.36-10.559-5.47-16.681.9-6.169 4.81-9.347 9.52-12.916a53 53 0 0 1 3.39-1.465c5.83-2.228 12.4-2.477 18.12.205 8.99 4.216 12.35 12.531 15.26 21.313.59-3.839 1.33-7.835 1.52-11.718.36-7.638-1.47-16.33-7.05-21.893-4.39-4.367-10.67-6.309-16.78-5.981-8.42.45-15.87 5.23-21.13 11.613-5.69 6.904-8.58 15.436-7.68 24.383.91 9.15 6.14 18.249 13.48 23.763 7.61 5.729 17.46 7.782 26.82 6.306a39.7 39.7 0 0 0 26.36-16.693c6.13-8.949 8.04-19.89 5.89-30.477-2.34-11.523-9.9-21.978-19.76-28.299-11.41-7.309-25.71-7.471-38.58-4.672-23.76 5.164-37.51 19.923-50.17 39.615 2.47-10.207 5.44-19.463 12.02-27.843 12.29-15.669 30.98-23.346 50.31-25.469"/></svg>