<svg preserveAspectRatio="xMidYMid meet" version="1.1" xmlns="http://www.w3.org/2000/svg" style="display: block;" viewBox="0 0 2048 2048" width="1024" height="1024">
<path transform="translate(0,0)" fill="rgb(254,254,254)" d="M 0 0 L 2048 0 L 2048 2048 L 0 2048 L 0 0 z"/>
<path transform="translate(0,0)" fill="rgb(4,31,69)" d="M 1575.68 133.446 C 1633.88 131.395 1745.89 130.057 1796.86 156.68 C 1806.56 161.743 1815.5 169.22 1818.67 180.078 C 1820.43 186.098 1819.9 192.521 1818.6 198.578 C 1812.51 226.983 1780.77 284.564 1765.87 312.688 C 1795.76 307.472 1828.79 301.921 1859.04 306.087 C 1866.98 307.18 1876.67 309.712 1881.56 316.581 C 1886.5 323.537 1886.06 332.692 1884.39 340.657 C 1879.62 363.46 1860.05 385.255 1844.55 401.92 C 1778.44 472.957 1696.49 524.096 1617.98 579.81 C 1579.17 607.354 1541.44 636.57 1502.43 663.821 A 2027.74 2027.74 0 0 1 1444.08 703.431 C 1431.88 711.25 1419.29 718.412 1407.16 726.34 C 1426.64 764.878 1443.61 804.204 1448.8 847.521 C 1455.59 904.122 1447.16 964.861 1411.16 1010.92 A 916.669 916.669 0 0 0 1373.06 918.466 C 1365.15 901.799 1336.11 853.21 1333.6 837.883 C 1331.12 822.723 1336.95 799.982 1337.82 783.726 L 1320.05 793.878 C 1313.59 823.724 1301.21 853.705 1286.02 880.1 C 1265.15 916.372 1234.34 954.315 1196.47 973.608 C 1185.75 979.07 1174.76 982.453 1163.2 985.57 C 1166 979.182 1169.89 973.155 1173.1 966.949 A 243.603 243.603 0 0 0 1189.9 926.742 C 1199.21 896.589 1197.52 854.691 1213.22 828.204 C 1216.1 823.333 1220.31 819.217 1224.17 815.116 C 1209.08 822.059 1194.88 831.27 1180 838.741 C 1084.68 886.606 993.352 939.008 908.03 1003.28 C 918.575 1026.76 924.266 1053.45 926.149 1079.01 C 929.946 1130.57 910.677 1173.94 877.439 1212.35 C 878.095 1197.97 877.734 1183.45 875.382 1169.22 C 869.332 1132.64 850.85 1099.03 820.412 1077.28 C 774.16 1119.79 705.425 1197.69 687.921 1258 C 704.566 1293.86 740.219 1319.01 774.347 1336.74 C 739.047 1344.03 710.048 1358.05 686.571 1385.97 C 693.08 1409.52 706.66 1432.03 727.573 1445.46 C 782.291 1480.61 857.623 1448.94 913.023 1431.1 A 552.501 552.501 0 0 1 962.914 1417.6 C 1046 1399.51 1138.64 1408.06 1211.34 1454.7 C 1198.67 1461.85 1184.28 1467.19 1171.15 1473.58 C 1141.26 1488.13 1112.8 1503.19 1084.79 1521.13 C 1039.11 1550.39 984.448 1591.57 956.526 1638.77 C 937.632 1670.71 926.118 1710.57 918.203 1746.65 C 904.279 1820.77 901.656 1880.89 923.973 1954.06 C 904.524 1946.38 885.037 1939.07 866.919 1928.49 C 791.393 1884.37 753.7 1807.84 731.51 1726.66 C 719.194 1681.6 709.932 1643.79 680.714 1605.47 C 666.181 1586.4 645.65 1573.87 626.827 1559.57 C 615.404 1550.89 604.431 1541.59 593.416 1532.41 A 577.882 577.882 0 0 1 454.344 1365.37 C 445.284 1349.27 438.047 1332.22 429.115 1316.04 A 298.411 298.411 0 0 0 416.988 1311.5 C 382.984 1299.81 345.712 1305.12 314.024 1320.82 C 302.891 1338.79 293.178 1358.03 282.953 1376.56 C 235.352 1462.81 195.006 1552.03 156.069 1642.45 A 2349.9 2349.9 0 0 0 123.116 1722.54 C 118.971 1733.08 113.921 1751.43 108.256 1760.27 L 107.186 1760.47 L 108.513 1760.47 C 108.111 1760.99 107.926 1761.88 107.281 1762.01 L 107.27 1761.06 L 106.548 1760.39 C 108.381 1752.21 113.013 1743.49 115.598 1735.29 C 124.895 1705.8 134.262 1676.71 144.512 1647.52 A 3453.64 3453.64 0 0 1 310.615 1248.45 C 327.462 1214.31 347.578 1178.65 365.742 1144.83 C 372.818 1131.65 381.595 1118.61 387.329 1104.83 C 393.15 1090.85 390.781 1070.82 391.401 1055.71 A 307.971 307.971 0 0 1 393.928 1026.94 A 649.654 649.654 0 0 1 417.907 916.197 C 434.894 862.704 458.669 811.136 485.025 761.673 A 716.558 716.558 0 0 1 503.057 729.262 C 508.993 719.21 516.565 708.613 520.483 697.571 C 524.539 686.143 516.699 667.058 511.851 656.57 C 477.324 581.874 403.229 543.484 329.954 516.402 C 346.208 507.067 363.295 498.954 380.011 490.471 C 523.997 417.405 667.103 381.528 827.425 369.625 C 892.41 319.866 966.37 282.462 1041.71 251.168 A 1528.61 1528.61 0 0 1 1575.68 133.446 z"/>
<path transform="translate(0,0)" fill="rgb(254,254,254)" d="M 532.282 663.839 C 532.85 663.467 533.422 663.101 533.985 662.721 C 538.734 659.522 542.768 653.845 548.066 651.819 C 548.16 653.714 547.977 653.703 547.164 655.285 C 544.722 659.195 541.303 667.21 537.351 669.102 C 534.413 668.211 533.933 666.354 532.282 663.839 z"/>
<path transform="translate(0,0)" fill="rgb(254,254,254)" d="M 678.447 1351.39 C 681.693 1354.11 688.97 1362.14 690.469 1365.83 L 688.694 1369.01 L 686.063 1371.19 C 684.344 1371.4 684.393 1371.82 683.3 1370.84 C 679.251 1367.2 679.128 1356.57 678.447 1351.39 z"/>
<path transform="translate(0,0)" fill="rgb(254,254,254)" d="M 1359.48 802.734 C 1359.54 803.078 1359.62 803.419 1359.65 803.767 C 1360.28 811.206 1355.76 835.306 1350.69 841.104 C 1350.17 840.258 1349.64 839.419 1349.2 838.532 C 1346.75 833.609 1357.64 808.404 1359.48 802.734 z"/>
<path transform="translate(0,0)" fill="rgb(254,254,254)" d="M 408.613 1263.43 C 413.375 1270.62 417.759 1288.74 421.066 1297.58 L 407.825 1292.9 A 339.77 339.77 0 0 1 408.613 1263.43 z"/>
<path transform="translate(0,0)" fill="rgb(254,254,254)" d="M 677.733 1327.46 C 683.093 1330.87 701.715 1346.83 704.631 1351.72 L 703.568 1353.67 L 699.503 1356.25 C 695.713 1356.32 691.842 1352.54 689.248 1350.01 C 682.905 1343.82 677.822 1336.43 677.733 1327.46 z"/>
<path transform="translate(0,0)" fill="rgb(254,254,254)" d="M 677.814 1304.44 C 687.392 1312.11 695.269 1322.09 704.736 1330.05 C 709.983 1334.46 716.455 1336.79 721.606 1341.08 L 720.537 1342.14 C 718.032 1343.73 715.767 1345 712.976 1346.03 C 706.887 1343.97 701.983 1338.63 697.512 1334.21 C 689.585 1326.38 677.9 1316.2 677.814 1304.44 z"/>
<path transform="translate(0,0)" fill="rgb(254,254,254)" d="M 1376.46 779.825 C 1377.24 780.867 1377.43 781.719 1377.58 783.002 C 1379.1 795.717 1371.89 857.497 1364.62 867.307 L 1362.86 867.217 C 1360.95 864.193 1359.47 860.941 1357.92 857.723 C 1367.53 832.132 1373.79 807.025 1376.46 779.825 z"/>
<path transform="translate(0,0)" fill="rgb(254,254,254)" d="M 399.382 1231.7 C 404.351 1241.98 400.431 1278.22 398.442 1290.48 C 395.39 1291.32 392.125 1290.32 389.073 1289.77 C 387.948 1289.57 386.771 1288.94 385.713 1288.5 C 382.407 1279.02 395.815 1242.75 399.382 1231.7 z"/>
<path transform="translate(0,0)" fill="rgb(254,254,254)" d="M 679.944 1278.54 C 684.924 1282.12 689.428 1288.64 693.562 1293.28 C 702.222 1303 711.778 1313.06 722.458 1320.59 C 726.995 1323.79 740.914 1329.91 742.918 1334.33 C 740.353 1335.08 737.528 1336.07 734.84 1336.12 C 725.846 1336.27 714.733 1327.05 708.297 1321.32 C 696.208 1310.56 680.89 1295.45 679.944 1278.54 z"/>
<path transform="translate(0,0)" fill="rgb(254,254,254)" d="M 580.292 606.798 L 582.773 605.875 C 580.958 613.818 540.096 651.653 532.282 663.839 A 1275.21 1275.21 0 0 1 525.379 644.086 C 545.091 635.069 562.513 619.18 580.292 606.798 z"/>
<path transform="translate(0,0)" fill="rgb(254,254,254)" d="M 1178.8 610.431 C 1181.16 610.107 1183.44 610.296 1185.81 610.395 C 1182.66 613.253 1151.77 619.558 1144.98 621.712 C 1133.44 625.373 1122.89 631.42 1111.51 635.365 C 1106.16 637.221 1104.33 636.428 1099.39 634.016 C 1095.67 632.253 1092.12 630.052 1088.55 628 C 1118.36 620.309 1148.13 613.517 1178.8 610.431 z"/>
<path transform="translate(0,0)" fill="rgb(254,254,254)" d="M 391.287 1201.71 C 392.307 1205.54 393.542 1209.43 393.11 1213.43 C 392.054 1223.2 388.043 1233.09 385.438 1242.61 A 371.158 371.158 0 0 0 375.471 1288.7 L 361.94 1289.18 L 360.838 1288.77 C 359.293 1280.86 386.842 1213.06 391.287 1201.71 z"/>
<path transform="translate(0,0)" fill="rgb(254,254,254)" d="M 386.642 1175.72 C 387.036 1178.64 387.039 1180.73 386.174 1183.57 C 381.084 1200.25 374.032 1216.66 368.144 1233.1 C 361.248 1252.36 355.743 1271.64 350.715 1291.46 L 338.662 1294.5 C 337.236 1279.62 377.28 1191.89 386.642 1175.72 z"/>
<path transform="translate(0,0)" fill="rgb(254,254,254)" d="M 1391.32 763.736 C 1391.6 764.159 1391.95 764.541 1392.15 765.006 C 1394.47 770.38 1394.9 779.606 1395.43 785.405 C 1398.51 819.399 1394.41 851.097 1385.6 883.853 C 1384.24 888.908 1383.58 894.228 1381.26 898.956 L 1379.77 898.623 C 1376.49 893.313 1373.86 887.658 1371.13 882.056 C 1390.89 846.354 1390.46 803.298 1391.32 763.736 z"/>
<path transform="translate(0,0)" fill="rgb(254,254,254)" d="M 1151.6 590.428 L 1155.05 590.031 C 1158.15 591.122 1159.85 594.06 1161.8 596.558 C 1139.06 598.963 1115.46 603.535 1093.39 609.462 C 1084.48 611.855 1072.76 617.985 1063.79 618.534 C 1062.09 618.637 1060.72 616.785 1059.49 615.703 C 1054.77 612.742 1049.68 610.67 1044.59 608.453 C 1079.51 599.381 1115.73 594.004 1151.6 590.428 z"/>
<path transform="translate(0,0)" fill="rgb(254,254,254)" d="M 608.8 570.219 L 609.224 570.401 C 606.921 574.619 592.559 584.025 588.204 587.681 C 567.052 605.442 546.253 623.425 526.111 642.33 C 523.571 641.668 523.497 640.529 522.149 638.42 L 513.894 623.241 C 543.956 605.087 576.385 583.517 608.8 570.219 z"/>
<path transform="translate(0,0)" fill="rgb(254,254,254)" d="M 1402.23 761.783 C 1404.83 764.211 1405.68 768.928 1406.56 772.348 C 1417.91 816.808 1414.13 861.87 1405.79 906.379 C 1404.14 915.198 1402.96 927.618 1398.42 935.275 C 1394.35 928.289 1391.19 921.079 1388.09 913.622 C 1405.44 863.49 1409.59 814.258 1402.23 761.783 z"/>
<path transform="translate(0,0)" fill="rgb(254,254,254)" d="M 1143.17 568.579 C 1143.34 568.629 1143.53 568.629 1143.68 568.729 C 1145.81 570.204 1146.16 570.726 1146.57 573.123 C 1140.31 577.359 1115.37 579.491 1106.04 581.1 C 1078.06 585.927 1050.45 593.158 1022.98 600.254 C 1017.52 597.769 1011.82 595.67 1006.26 593.433 L 994.862 588.842 C 1012.38 586.084 1029.63 581.114 1047.16 578.148 C 1078.8 572.795 1111.15 570.325 1143.17 568.579 z"/>
<path transform="translate(0,0)" fill="rgb(254,254,254)" d="M 1414.75 771.626 C 1415.93 772.856 1415.67 772.423 1416.48 773.898 C 1421.46 782.958 1423.23 797.007 1425.42 807.07 C 1438.89 868.885 1436.57 915.595 1416.17 976.056 C 1411.35 971.672 1407.74 957.591 1405.28 951.26 C 1424.32 890.569 1426.69 834.026 1414.75 771.626 z"/>
<path transform="translate(0,0)" fill="rgb(254,254,254)" d="M 1109.31 546.442 C 1116.96 546.244 1133.61 543.496 1139.65 548.057 C 1139.93 550.673 1140.43 551.208 1139.09 553.578 C 1126.21 555.663 1112.21 555.206 1099.11 556.485 A 633.6 633.6 0 0 0 1017.37 569.942 C 1009.74 571.693 975.885 581.183 971.768 580.006 A 904.222 904.222 0 0 0 935.661 567.871 C 990.618 554.27 1052.73 548.506 1109.31 546.442 z"/>
<path transform="translate(0,0)" fill="rgb(254,254,254)" d="M 1077.32 521.429 C 1089.09 521.12 1130.02 518.047 1138.65 523.005 C 1140.62 524.142 1140.6 524.654 1141.17 526.719 C 1137.95 529.525 1091.34 531.009 1082.96 531.676 A 1131.01 1131.01 0 0 0 938.771 552.747 C 930.946 554.77 923.345 556.878 915.794 559.773 C 903.724 557.721 891.485 552.842 879.895 548.855 C 892.282 543.222 906.74 540.705 920.02 537.984 C 972.46 527.239 1023.97 523.797 1077.32 521.429 z"/>
<path transform="translate(0,0)" fill="rgb(254,254,254)" d="M 905.552 1081.83 C 903.607 1071.2 889.681 1021.65 892.392 1015.84 C 898.862 1019.44 904.627 1040.03 906.656 1047 C 919.51 1091.18 913.846 1134.31 891.613 1174.45 L 891.015 1175.52 C 887.918 1157.54 883.692 1140.59 876.1 1123.89 C 871.118 1112.94 842.839 1067.05 843.146 1059.57 C 844.379 1057.86 844.394 1057.81 846.406 1057.22 C 856.202 1065.6 879.714 1122.11 884.612 1136.97 C 883.249 1117.72 878.443 1100.94 871.441 1083.02 C 869.337 1077.64 857.168 1051.42 857.622 1047.48 C 857.658 1047.16 859.415 1044.52 859.465 1044.46 C 860.056 1043.74 861.114 1042.95 861.856 1042.36 C 865.088 1046.53 867.104 1052 869.339 1056.76 C 879.849 1079.15 888.585 1101.28 892.284 1125.89 C 893.429 1133.51 893.216 1148.83 896.019 1155.19 C 897.488 1151.02 897.494 1146.26 897.821 1141.85 C 900.354 1107.64 887.137 1074.06 876.811 1042.06 C 875.754 1038.79 873.06 1031.45 876.795 1029.29 C 884.836 1033.66 894.566 1066.6 897.532 1076.65 A 568.23 568.23 0 0 1 901.094 1089.33 C 902.816 1086.92 904.181 1084.46 905.552 1081.83 z"/>
<path transform="translate(0,0)" fill="rgb(4,31,69)" d="M 905.552 1081.83 C 907.288 1092.95 907.387 1103.94 907.047 1115.17 A 559.684 559.684 0 0 1 901.094 1089.33 C 902.816 1086.92 904.181 1084.46 905.552 1081.83 z"/>
<path transform="translate(0,0)" fill="rgb(254,254,254)" d="M 1061.17 494.479 C 1086.06 494.465 1125.72 494.531 1149.59 498.654 L 1149.69 500.229 C 1148.16 501.895 1147.57 502.821 1145.26 503.318 C 1140.08 504.433 1108.42 503.089 1099.54 503.379 A 1309.83 1309.83 0 0 0 1010.51 509.948 C 970.754 513.958 932.186 518.645 893.481 528.896 C 880.738 532.326 868.598 537.051 856.326 541.844 C 843.649 538.767 831.188 534.736 818.487 531.634 C 901.406 503.806 974.256 496.621 1061.17 494.479 z"/>
<path transform="translate(0,0)" fill="rgb(254,254,254)" d="M 691.555 470.393 C 693.772 470.105 695.457 469.964 697.659 470.392 C 679.398 475.77 661.129 483.058 643.226 489.597 C 594.106 507.536 545.598 525.974 499.442 550.859 C 488.979 556.5 477.287 562.267 467.918 569.569 L 458.472 562.812 L 440.783 549.544 C 458.276 543.391 474.634 533.265 491.977 526.346 C 555.653 500.943 623.399 479.287 691.555 470.393 z"/>
<path transform="translate(0,0)" fill="rgb(254,254,254)" d="M 666.524 499.185 L 668.283 499.404 C 662.738 504.716 636.937 514.907 628.153 519.088 C 600.119 532.434 508.75 577.47 489.07 597.617 C 504.846 591.697 520.204 583.491 535.456 576.273 C 569.765 560.036 603.734 543.816 639.995 532.316 C 629.842 538.99 619.479 545.122 609.611 552.249 C 598.708 560.421 586.846 567.452 575.448 574.931 C 553.319 589.45 532.67 604.24 513.299 622.35 C 499.546 604.344 485.411 587.295 469.689 570.986 A 946.374 946.374 0 0 1 666.524 499.185 z"/>
<path transform="translate(0,0)" fill="rgb(254,254,254)" d="M 649.707 1343.7 C 652.809 1358.82 654.408 1374.33 658.159 1389.3 C 666.633 1423.13 687.742 1455.58 717.317 1474.7 C 733.542 1485.19 752.026 1493.41 766.576 1506.26 C 775.263 1513.94 782.992 1524.3 783.4 1536.3 C 783.829 1548.95 776.06 1559.75 767.811 1568.54 C 757.298 1576.51 747.982 1579.75 735.039 1581.93 C 721.206 1571.28 709.095 1553.97 699.703 1539.41 C 665.092 1485.76 635.901 1407.47 649.707 1343.7 z"/>
<path transform="translate(0,0)" fill="rgb(254,254,254)" d="M 755.179 415.436 C 757.171 415.281 759.073 415.383 761.064 415.505 L 761.456 416.401 C 751.709 422.63 682.081 432.676 664.548 436.021 C 591.218 450.014 520.013 470.978 452.393 502.867 C 436.569 510.329 420.168 517.73 406.141 528.288 C 431.008 519.729 454.477 507.014 479.236 498.091 C 561.717 468.365 641.859 450.866 729.093 442.396 C 719.304 447.514 706.493 449.316 695.767 451.877 C 658.743 463.285 620.755 471.148 583.78 483.096 C 548.003 494.658 512.022 508.456 478.459 525.496 C 464.73 532.466 451.832 540.867 438.189 547.964 C 418.664 536.088 399.613 522.691 377.564 515.876 A 925.249 925.249 0 0 1 755.179 415.436 z"/>
<path transform="translate(0,0)" fill="rgb(254,254,254)" d="M 778.224 1618.82 C 781.773 1621.77 790.306 1649.14 793.003 1655.84 A 406.818 406.818 0 0 0 807.028 1686.58 A 381.444 381.444 0 0 0 891.181 1797.49 C 887.149 1839.92 887.559 1880.78 895.656 1922.82 L 894.877 1922.29 C 818.043 1870.1 786.922 1772.08 770.267 1684.96 A 861.343 861.343 0 0 1 764.693 1646.53 C 764.016 1641.23 764.016 1633.76 762.204 1628.84 C 762.107 1628.58 761.971 1628.33 761.855 1628.08 L 762.746 1628.3 L 762.248 1626.22 L 763.675 1628.18 L 761.66 1626.57 C 765.853 1629.26 768.951 1651.46 770.407 1657.62 C 785.772 1722.65 808.824 1783.55 851.127 1835.99 C 860.473 1847.57 871.75 1861.13 884.534 1869.01 C 884.896 1867.65 885.07 1868.22 884.122 1867.3 C 876.152 1859.52 869.532 1851.44 863.257 1842.23 C 829.954 1793.35 812.078 1738.95 795.564 1682.75 C 789.347 1661.59 782.532 1640.47 778.224 1618.82 z"/>
<path transform="translate(0,0)" fill="rgb(254,254,254)" d="M 1246.78 334.096 C 1247.79 334.868 1247.7 335.512 1247.46 336.824 C 1246.56 341.754 1243.75 347.541 1242.21 352.413 A 233.443 233.443 0 0 0 1235.27 380.633 C 1227.88 420.506 1230.57 457.909 1245.21 495.798 C 1166.15 476.073 1088.22 468.508 1006.92 476.405 A 1630.62 1630.62 0 0 0 969.373 480.419 C 987.446 465.288 1009.45 452.596 1029.45 440.088 C 1102.79 394.231 1164.59 362.228 1246.78 334.096 z"/>
<path transform="translate(0,0)" fill="rgb(254,254,254)" d="M 1082.22 1438.44 C 1112.91 1436.49 1141.44 1443.33 1169.64 1454.72 C 1116.94 1477.71 1066.75 1509.88 1021.55 1545.22 C 996.279 1564.97 969.473 1588.53 950.694 1614.57 C 916.496 1662.01 898.394 1738.29 891.375 1795.53 C 847.96 1755.44 808.352 1651.92 785.426 1595.87 C 812.475 1636.95 857.286 1700.97 901.222 1723.77 C 861.35 1687.58 832.848 1636.48 800.936 1593.19 C 836.415 1621.25 874.269 1647.31 915.73 1665.76 C 883.26 1641.86 850.994 1616.33 820.25 1590.25 C 852.701 1603.44 886.444 1619.7 920.574 1627.75 C 911.678 1621.84 901.774 1616.94 892.423 1611.76 C 873.505 1601.27 854.734 1591.01 835.055 1582.01 A 1512.08 1512.08 0 0 0 819.687 1575.81 C 861.142 1580.76 906.639 1581.44 948.285 1578.11 A 3118.2 3118.2 0 0 0 818.286 1562.14 L 948.431 1546.94 C 963.993 1545.13 980.088 1545.44 995.476 1542.65 C 942.258 1532.87 887.316 1544.99 834.019 1546.93 C 856.844 1539.84 880.858 1535.39 904.263 1530.55 A 1796.32 1796.32 0 0 1 999.38 1512.6 C 1017.51 1509.77 1036.59 1509.21 1054.45 1505.35 C 982.546 1500.07 912.267 1513.27 842.902 1530.78 C 864.203 1519.71 888.503 1511.99 911.278 1504.57 C 978.108 1482.81 1037.62 1468.82 1107.98 1466.92 C 1110.28 1466.85 1113.77 1467.06 1115.4 1465.34 C 1044.46 1459.16 989.549 1464.54 921.89 1486.92 C 908.668 1491.3 895.38 1495.69 882.335 1500.57 C 875.603 1503.09 867.754 1507.83 860.753 1508.83 C 869.101 1501.85 881.727 1496.87 891.543 1492.05 C 951.188 1462.75 1015.81 1442.76 1082.22 1438.44 z"/>
<path transform="translate(0,0)" fill="rgb(254,254,254)" d="M 886.613 565.819 C 898.017 567.962 910.887 574.254 921.987 578.091 C 944.319 585.81 966.326 594.165 988.496 602.32 C 1007.92 609.464 1027.62 616.059 1046.11 625.459 A 890.943 890.943 0 0 0 917.222 722.189 A 1286.77 1286.77 0 0 0 816.83 821.546 C 705.74 946.746 620.415 1105.84 610.951 1275.61 C 606.166 1361.45 627.792 1453.85 676.645 1525.37 C 689.486 1544.17 704.773 1560.26 719.903 1577.13 L 720.196 1579 A 137.401 137.401 0 0 1 714.088 1577.55 C 686.258 1570.23 660.151 1551.75 637.323 1534.62 C 580.478 1491.98 529.874 1442.9 493.774 1381.09 C 474.306 1347.75 451.109 1298.81 449.281 1260.15 C 447.977 1232.58 454.549 1202.26 461.535 1175.65 C 510.846 987.792 656.096 787.628 790.783 650.703 C 818.421 622.607 852.597 585.69 886.613 565.819 z"/>
<path transform="translate(0,0)" fill="rgb(254,254,254)" d="M 1173.27 500.159 C 1200.5 502.561 1222.32 503.527 1249.72 508.443 C 1264.5 533.421 1282.48 553.618 1306.2 570.37 C 1367.6 613.732 1442.12 627.698 1515.68 614.83 C 1474.52 651.475 1430.88 681.646 1383.95 710.339 C 1367.94 720.131 1350.48 731.745 1332.85 738.171 C 1332.96 734.437 1333.89 725.439 1332.04 722.388 C 1325.09 727.1 1313.76 774.196 1309.71 785.834 C 1287.96 848.368 1253.73 922.017 1193.65 955.625 C 1205.91 924.269 1210.56 930.907 1229.79 909.157 C 1251.8 884.271 1272.72 853.258 1284.73 822.245 C 1289.65 809.527 1292.94 796.35 1296.29 783.156 C 1290.31 794.901 1287.27 807.759 1281.41 819.493 C 1263.37 855.665 1233.99 889.817 1206.45 919.106 C 1207.53 912.918 1208.16 904.763 1211.07 899.195 C 1215.56 890.585 1224.47 883.032 1230.89 875.757 C 1249.84 854.294 1271.94 826.356 1280.92 799.177 C 1272.79 808.063 1266.09 818.976 1258.17 828.277 C 1242.94 846.156 1226.49 863.038 1211.59 881.17 C 1212.9 873.32 1214.48 865.644 1216.39 857.92 C 1240.19 833.371 1275.74 805.926 1286.93 772.539 C 1269.41 796.643 1246.25 818.368 1222.93 836.924 L 1222.06 836.492 C 1226.62 829.061 1235.9 822.56 1241.88 815.988 C 1264.71 790.882 1288.16 760.502 1295.47 726.874 C 1285.02 739.585 1277.79 754.221 1266.05 766.145 C 1250.97 781.444 1179.66 811.242 1155.88 823.09 C 1071.5 865.098 988.817 911.66 913.204 968.224 A 1294.37 1294.37 0 0 0 798.225 1066.47 C 738.349 1123.27 664.673 1215.63 641.955 1296.03 C 634.018 1324.12 632.399 1352.11 631.615 1381.05 C 609.724 1284.75 629.498 1184.3 662.872 1093.12 C 718.972 939.856 829.199 810.922 953.005 707.53 C 983.395 682.151 1025.26 648.415 1060.87 631.87 C 1078.21 638.339 1093.73 649.072 1111.31 654.953 C 1144.79 637.136 1182.46 621.373 1219.04 611.377 C 1202.88 605.591 1187.19 600.027 1174.79 587.59 C 1162.19 574.95 1154.23 556.849 1154.62 538.891 C 1154.96 522.603 1161.91 511.14 1173.27 500.159 z"/>
<path transform="translate(0,0)" fill="rgb(254,254,254)" d="M 1592.3 150.435 C 1603.06 149.873 1613.93 149.986 1624.71 149.969 C 1660.13 149.911 1773.51 152.012 1797.98 177.971 C 1801.47 181.67 1802.98 185.922 1802.83 190.978 C 1802.67 196.684 1800.74 202.357 1798.76 207.666 C 1793.16 222.677 1751.87 312.114 1744.07 319.572 C 1741.99 320.298 1741.38 320.969 1739.22 320.291 C 1743.07 308.697 1751.06 296.88 1756.75 285.951 C 1766.11 268.013 1774.64 249.572 1783.47 231.37 C 1787.61 222.852 1793.18 213.724 1794.93 204.334 C 1795.57 200.91 1795.48 196.807 1793.09 194.03 C 1790.33 190.838 1785.71 190.231 1781.74 190.468 C 1760.87 191.72 1740.47 204.257 1724.7 217.13 C 1680.18 253.453 1654.38 308.649 1640.36 363.308 C 1635.24 383.277 1632.4 413.724 1617.63 429.079 C 1615.11 431.705 1611.89 433.884 1608.06 433.548 C 1603.74 433.169 1600.15 429.829 1597.84 426.392 C 1588.17 411.986 1586.32 391.224 1589.47 374.593 C 1593.02 355.858 1601.47 339.288 1610.75 322.856 C 1641.66 268.1 1682.62 230.267 1734.16 195.26 C 1721.56 200.526 1709.73 208.496 1698.19 215.748 C 1676.63 229.309 1656.74 246.276 1638.36 263.909 C 1614.76 286.558 1564.57 341.645 1555.63 372.099 C 1548.94 394.871 1554.17 421.31 1548.49 445.587 C 1542.36 471.808 1524.8 490.534 1502.22 504.431 C 1478.56 518.985 1449.29 524.368 1422.15 517.588 C 1391.74 509.994 1368.07 485.602 1352.67 459.264 C 1326.79 415.025 1322.68 362.183 1333.46 312.754 C 1336.95 296.751 1342.35 281.139 1346.58 265.308 C 1328.68 303.744 1316.27 344.736 1316.81 387.536 C 1317.39 433.211 1335.18 478.981 1368.41 510.81 A 176.402 176.402 0 0 0 1496.26 560.698 C 1570.51 558.923 1638.25 525.18 1689.06 471.959 C 1672.66 480.653 1656.97 490.723 1640.55 499.428 C 1587.6 527.492 1526.18 548.425 1465.9 535.173 C 1514.07 525.949 1559.94 491.516 1563.28 439.372 C 1564.41 421.853 1559.69 402.056 1563.25 385.167 C 1566.84 368.172 1577.63 352.582 1587.83 338.927 A 595.309 595.309 0 0 0 1583.38 350.254 C 1573.75 375.693 1568.62 402.785 1580.43 428.519 C 1584.36 437.092 1590.47 445.428 1599.77 448.52 C 1606.38 450.72 1614.11 450.03 1620.31 446.914 C 1643.57 435.235 1646.9 395.346 1653.88 373 C 1711.58 340.944 1783.91 316.894 1850.42 321.348 C 1855.56 321.692 1864.32 322.252 1867.54 326.897 C 1869.65 329.945 1869.47 333.592 1868.53 336.99 C 1854.87 386.109 1667.32 519.699 1618.84 547.294 A 342.636 342.636 0 0 1 1505.89 584.949 C 1445.93 593.263 1376.57 582.837 1327.49 545.336 C 1290.84 517.331 1270.86 473.504 1265 428.502 C 1254.97 351.522 1283.83 284.154 1329.82 224.389 C 1319.11 232.54 1309.42 242.236 1300.3 252.107 C 1160.99 296.247 1045.94 356.816 926.079 439.959 A 1392.42 1392.42 0 0 0 868.584 482.768 C 859.281 490.146 850.291 498.924 840.431 505.463 C 820.609 518.61 798.066 515.845 777.751 535.592 C 788.569 538.73 799.434 541.69 810.508 543.778 C 795.889 557.578 779.893 569.8 765.517 583.968 C 655.505 692.386 560.292 813.582 489.761 951.311 C 477.797 974.674 466.024 997.961 455.808 1022.16 A 1046.84 1046.84 0 0 0 414.191 1141.67 C 412.121 1086.12 419.452 1020.47 433.326 966.752 C 445.234 920.642 462.84 876.253 482.836 833.133 C 498.378 799.618 515.03 766.146 533.72 734.254 C 579.718 655.764 643.054 573.926 704.398 506.64 C 729.268 479.36 755.357 455.273 783.37 431.331 C 888.74 341.277 998.533 284.684 1128.47 237.877 C 1172.01 222.194 1217.08 207.337 1262.07 196.269 A 1702.08 1702.08 0 0 1 1592.3 150.435 z"/>
<path transform="translate(0,0)" fill="rgb(4,31,69)" d="M 1641.94 189.192 L 1642.72 190.116 C 1641.57 191.568 1640.48 193.043 1639.41 194.552 L 1639.94 196.573 L 1643.36 197.229 L 1643.91 198.499 C 1643.17 201.507 1640.97 203.425 1638.93 205.637 C 1634.92 203.927 1632.57 202.619 1630.79 198.335 C 1630.87 196.728 1630.68 195.762 1631.58 194.345 C 1634.02 190.5 1637.8 189.981 1641.94 189.192 z"/>
<path transform="translate(0,0)" fill="rgb(4,31,69)" d="M 1261.11 228.272 C 1284.17 221.991 1310.77 213.796 1334.73 213.281 C 1328.28 215.455 1277.78 230.582 1272.98 230.798 C 1270.56 230.907 1271.57 230.616 1269.45 230.252 C 1267.25 229.874 1266.35 229.8 1264.34 230.687 L 1261.11 228.272 z"/>
<path transform="translate(0,0)" fill="rgb(4,31,69)" d="M 1207.58 243.987 A 1569.29 1569.29 0 0 1 1261.11 228.272 L 1264.34 230.687 L 1264.11 233.058 C 1259.3 238.904 1224.04 249.381 1214.59 252.53 C 1212.5 249.493 1210 246.766 1207.58 243.987 z"/>
<path transform="translate(0,0)" fill="rgb(4,31,69)" d="M 1197.77 247.082 C 1200.81 247.622 1205.81 252.798 1209 254.64 C 1186.07 264.291 1163.39 274.235 1140.73 284.503 C 1138.67 283.856 1131.07 272.732 1129.19 270.434 C 1136.46 267.415 1144.49 265.448 1151.96 262.918 L 1197.77 247.082 z"/>
<path transform="translate(0,0)" fill="rgb(4,31,69)" d="M 1594.7 266.958 C 1594.63 268.763 1594.9 268.141 1594.22 269.306 C 1579.49 294.502 1540.48 314.547 1513.09 321.525 C 1489.72 327.483 1468.77 322.731 1448.28 310.537 L 1441.29 304.936 C 1456.13 312.123 1472.04 316.072 1488.6 314.822 C 1514.71 312.852 1554.45 298.244 1575.97 283.868 C 1583.26 278.997 1589 273.593 1594.7 266.958 z"/>
<path transform="translate(0,0)" fill="rgb(4,31,69)" d="M 1117.76 274.972 C 1122.64 275.485 1128.69 285.021 1131.78 288.784 C 1109.17 298.735 1087.97 311.273 1065.56 321.379 C 1059.8 315.495 1054.62 309.118 1049.36 302.795 C 1071.54 292.331 1095.12 284.425 1117.76 274.972 z"/>
<path transform="translate(0,0)" fill="rgb(4,31,69)" d="M 1041.89 306.931 C 1045.37 310.008 1052.84 321.041 1056.88 325.528 C 1047.51 331.452 999.437 361.88 992.656 361.563 C 987.203 354.18 981.275 347.754 974.909 341.17 C 996.747 328.905 1019.57 318.284 1041.89 306.931 z"/>
<path transform="translate(0,0)" fill="rgb(4,31,69)" d="M 595.847 684.644 C 603.807 690.041 610.765 698.599 618.412 704.746 C 604.408 723.609 589.148 741.565 575.087 760.412 L 573.386 762.821 L 573.355 763.25 C 573.002 762.86 571.466 761.199 571.231 760.795 C 567.794 754.887 561.371 750.524 556.094 746.087 C 568.094 724.938 582.38 704.892 595.847 684.644 z"/>
<path transform="translate(0,0)" fill="rgb(4,31,69)" d="M 967.488 345.042 C 970.636 346.305 983.399 363.938 986.493 367.653 C 969.054 379.78 950.18 390.254 932.423 402.018 L 930.947 401.399 C 923.604 393.587 915.285 386.599 907.582 379.122 C 925.91 365.87 947.354 355.26 967.488 345.042 z"/>
<path transform="translate(0,0)" fill="rgb(4,31,69)" d="M 641.946 623.787 C 650.254 631.026 657.983 639.544 665.857 647.291 C 651.521 663.473 638.616 680.942 624.455 697.295 L 623.861 697.517 L 601.831 676.086 L 641.946 623.787 z"/>
<path transform="translate(0,0)" fill="rgb(4,31,69)" d="M 1816.03 339.37 C 1825.75 337.907 1839.08 336.699 1847.29 342.71 C 1850.7 345.202 1855.68 349.747 1855.9 354.284 C 1855.97 355.779 1855.1 356.312 1854.24 357.404 C 1850.28 358.412 1846.67 355.604 1842.96 354.178 C 1813.17 342.73 1717.86 377.951 1687.75 391.417 C 1675.69 396.931 1663.35 403.442 1650.75 407.549 C 1662.22 400.181 1672.98 391.887 1684.71 384.889 A 353.624 353.624 0 0 1 1816.03 339.37 z"/>
<path transform="translate(0,0)" fill="rgb(4,31,69)" d="M 900.099 384.05 C 908.517 391.72 915.94 400.184 925.173 406.958 C 908.144 421.288 888.149 433.379 870.206 446.705 C 861.849 438.348 852.433 430.952 843.947 422.657 C 862.808 409.98 880.709 395.959 900.099 384.05 z"/>
<path transform="translate(0,0)" fill="rgb(4,31,69)" d="M 770.704 483.678 C 780.11 490.971 789.798 504.085 796.089 514.2 C 789.966 519.608 753.945 554.928 750.301 555.504 C 741.206 547.209 731.908 539.07 721.935 531.844 C 737.482 515.075 754.328 499.624 770.704 483.678 z"/>
<path transform="translate(0,0)" fill="rgb(4,31,69)" d="M 837.678 428.22 C 845.255 436.632 853.129 444.804 860.86 453.075 C 855.642 458.024 805.054 502.583 803.367 502.942 C 795.168 494.199 786.694 485.629 777.323 478.138 C 796.683 460.904 817.065 443.941 837.678 428.22 z"/>
<path transform="translate(0,0)" fill="rgb(4,31,69)" d="M 551.463 754.719 C 558.161 758.504 563.5 764.18 570.385 767.793 C 529.849 829.579 492.211 890.776 460.558 957.737 L 453.837 974.407 C 457.775 949.304 467.855 925.351 477.453 901.966 C 498.382 850.971 522.169 801.461 551.463 754.719 z"/>
<path transform="translate(0,0)" fill="rgb(4,31,69)" d="M 715.898 537.777 C 725.801 545.807 735.006 555.132 744.561 563.626 A 3265.44 3265.44 0 0 0 673.969 638.368 L 672.947 638.894 C 668.031 637.802 652.9 621.511 647.331 617.283 C 667.141 589.278 691.092 561.478 715.898 537.777 z"/>
<path transform="translate(0,0)" fill="rgb(4,31,69)" d="M 1532.62 182.373 C 1557.49 178.354 1582 187.273 1602.87 199.963 L 1582.79 197.611 C 1587.63 206.602 1592.37 215.152 1593.96 225.388 C 1596.21 239.914 1593.03 254.899 1583.93 266.581 C 1575.35 277.607 1563.32 284.337 1549.52 286.15 C 1536.39 287.875 1522.59 285.687 1512.01 277.253 A 40.9538 40.9538 0 0 1 1496.87 249.317 C 1495.72 237.669 1498.57 226.231 1506.15 217.16 A 35.9567 35.9567 0 0 1 1530.69 204.204 A 32.5099 32.5099 0 0 1 1555.01 212.045 C 1562.03 218.092 1566.39 226.613 1566.69 235.917 C 1566.98 245.055 1563.51 254.679 1557.02 261.182 C 1551.67 266.535 1543.72 269.841 1536.12 269.455 C 1528.64 269.074 1521.35 264.916 1516.55 259.282 C 1512.63 254.67 1510.19 248.723 1511.08 242.601 C 1511.98 236.432 1515.89 233.254 1520.6 229.685 A 53.3207 53.3207 0 0 1 1523.99 228.22 C 1529.82 225.992 1536.39 225.743 1542.11 228.425 C 1551.1 232.641 1554.46 240.956 1557.37 249.738 C 1557.96 245.899 1558.7 241.903 1558.89 238.02 C 1559.25 230.382 1557.42 221.69 1551.84 216.127 C 1547.45 211.76 1541.17 209.818 1535.06 210.146 C 1526.64 210.596 1519.19 215.376 1513.93 221.759 C 1508.24 228.663 1505.35 237.195 1506.25 246.142 C 1507.16 255.292 1512.39 264.391 1519.73 269.905 C 1527.34 275.634 1537.19 277.687 1546.55 276.211 A 39.7066 39.7066 0 0 0 1572.91 259.518 C 1579.04 250.569 1580.95 239.628 1578.8 229.041 C 1576.46 217.518 1568.9 207.063 1559.04 200.742 C 1547.63 193.433 1533.33 193.271 1520.46 196.07 C 1496.7 201.234 1482.95 215.993 1470.29 235.685 C 1472.76 225.478 1475.73 216.222 1482.31 207.842 C 1494.6 192.173 1513.29 184.496 1532.62 182.373 z"/>
</svg>