<svg xmlns="http://www.w3.org/2000/svg" display="block" viewBox="0 0 2048 2048"><path fill="#dbe8e1" d="M0 0h2048v2048H0z"/><path fill="#0f4b7a" d="M162.541 274.045c4.133-.213 9.503-1.188 13.264.697 2.063 2.801 1.402 6.626 1.297 9.945-3.976.184-10.047 1.297-13.531-.718-2.049-3.026-1.272-6.461-1.03-9.924m-.511-35.004 15.679-.018c.251 4.518.358 8.837.044 13.361l-15.81.282zM1745.55 1899.21l12.67-.09-.26 17.17-12.5.17zm34.5-.01 19.09-.09c.03 5.42-.1 10.79-.37 16.2-6.27.88-12.86.71-19.2.87-.11-5.71.11-11.29.48-16.98m25.46-1643.434c3.18 1.339 4.97 3.542 6.99 6.233 6.43 8.6 22.48 33.122 20 44.08-.78 3.472-5.79 5.453-8.62 6.894-.89-.032-1.12-.007-2.09-.224-4.87-1.09-6.97-5.399-9.21-9.415-3.61-6.468-18.71-33.746-16.3-40.156 1.54-4.12 5.55-5.625 9.23-7.412m-408-2.727c3.11.327 7.48.367 9.99 2.523 1.94 1.667 2.18 2.823 2.5 5.157-2.76 7.578-21.88 43.991-26.97 47.932-.51-.033-1.02-.042-1.52-.099-3.25-.372-6.75-1.638-8.64-4.478-2.37-3.549-1.72-8.52-.59-12.393 3.35-11.419 14.73-32.755 25.23-38.642m137.75-101.966c1.78-.093 3.44-.087 5.08.735 2.25 1.123 4.19 3.667 4.79 6.057.61 2.493.19 4.505-1.07 6.713-5.26 9.136-33.41 18.7-43.79 21.269-4.58-1.558-8.18-3.307-10.64-7.644-.2-2.614-.29-3.418 1.14-5.769 5.52-9.078 34.42-18.327 44.49-21.361m269.46 365.75c.46.006.91-.003 1.36.019 3.79.184 8.59.881 10.88 4.28 1.36 2.009 1.42 4.432 1.11 6.745-1.53 11.358-19.37 35.5-28.68 42.167-4.5.19-7.87-.999-11.5-3.573-.92-1.426-1.7-2.56-1.72-4.336-.11-9.688 12.53-19.41 17.39-27.072 3.86-6.068 6.4-12.753 11.16-18.23m-262.59 127.156c10.43.228 45.5-.786 52.09 6.347 1.23 1.336 1.87 2.806 1.98 4.574.27 4.117-1.95 7.535-4.51 10.504-11.56 1.156-41.68 1.987-51.17-4.576-2.03-1.405-3.49-3.279-3.66-5.837-.29-4.372 2.77-7.799 5.27-11.012m-83.39-455.176c.44-.025.88-.089 1.32-.076 3.54.1 6.92 1.808 9.45 4.215.7 1.475 1.14 2.593.95 4.284-.95 8.255-30.08 31.458-37.58 38.203-5.28-.512-8.92-1.306-12.57-5.326-.73-2.472-1.11-3.399-.41-5.969 3.03-11.054 28.96-29.308 38.84-35.331m126.34-46.613c11.6-.758 32.94-2.399 43.19 3.947 2.29 1.412 3.39 2.918 4.05 5.527-.23 3.323-1.49 6.536-3.68 9.107-1.9 2.226-4.9 2.137-7.6 2.338-11.39-.86-35.21 1.725-44.51-3.235-2.19-1.167-4.13-3.011-4.66-5.524-.55-2.54.32-5.143 1.64-7.278 2.2-3.542 7.85-4.11 11.57-4.882m77.1 10.693c13.45-1.094 33.8 5.464 44.81 13.14 3.43 2.389 7.12 6.006 7.33 10.464.2 4.347-2.66 7.289-5.37 10.252-7.85-.003-39.12-13.349-47.27-18.145-2.41-1.418-4.11-2.844-4.48-5.798-.53-4.153 2.43-7.108 4.98-9.913m87.23 432.952c2.04-.337 3.84-.265 5.85.192 3.3.75 5.21 2.186 7.04 5.031.25 2.058.62 2.994-.13 4.992-4.32 11.364-31.95 27.386-42.87 32.528-.75.212-1.51.458-2.3.51-2.67.177-4.65-.286-6.6-2.173-1.77-1.703-2.85-3.939-2.6-6.432.94-9.473 33.06-28.933 41.61-34.648m-7.21-394c7.15-.035 12.28 3.845 17.77 7.947 8.08 6.033 25.51 19.33 26.02 30.333.19 4.272-3.06 6.691-5.86 9.341-1.18.183-2.53.351-3.71.215-4.76-.548-29.98-24.35-34.32-29.337-2.76-3.167-5.84-7.291-5.21-11.746.46-3.222 2.95-4.885 5.31-6.753m-379.78 142.147c3.22.727 7.37 1.327 9.69 3.948 2.34 2.638 1.97 5.395 1.63 8.662-.81 7.621-5.42 42.389-7.39 46.933-.92 2.127-1.79 2.909-3.54 4.314-4.58-.62-8.04-1.13-11.34-4.585-4.61-11.53-.88-33.328 2.34-45.27 1.61-5.994 3.02-10.816 8.61-14.002m310.63 297.154c1.69-.175 2.99-.244 4.59.443 2.93 1.26 5.44 2.922 6.39 6.145.76 2.587.2 4.864-1.19 7.09-5.3 8.501-34.73 14.018-45.3 16.633-1.5.137-3.53.463-5 .149-3.02-.643-5.86-3.125-7.01-5.966-1.16-2.865-.73-5.971.71-8.632 1.45-2.692 3.91-4.597 6.7-5.762 5.02-2.093 11.65-2.489 17.03-3.745 7.75-1.809 15.43-4.174 23.08-6.355m-316.92-205.129c4.05-.191 7.56-.398 11.19 1.585 3.09 7.535 3.9 16.783 5.69 24.764 2.04 9.015 4.68 17.876 6.31 26.98-1.1 3.118-3.61 4.492-6.17 6.346-1.43.385-2.76.757-4.25.771-2.72.024-4.49-.409-6.37-2.576-7.38-8.486-12.87-40.093-11.08-51.317.52-3.293 2.25-4.578 4.68-6.553m479.12 3.964c3.59-.157 7.58-.342 10.2 2.601 2.67 3.014 2.99 8.823 2.81 12.641-.6 13.084-5.74 36.854-15.8 45.729-4.11.098-7.66.306-11.07-2.382-1.57-1.239-1.6-1.924-1.73-3.919-.36-5.149 9.01-43.69 11.26-48.996.96-2.279 2.57-3.973 4.33-5.674m-2.29-92c1.06.09 2.12.167 3.17.312 2.75.381 4.68 1.251 6.32 3.577 7.75 10.955 11.45 38.475 8.87 51.708-.95 4.86-3.33 6.633-7.23 9.211-2.64-.296-5.24-.777-7.39-2.498-1.29-1.035-2.12-2.029-2.63-3.62-2.47-7.723-2.31-17.996-3.33-26.117-1.15-9.259-3.05-18.397-4.04-27.679 1.43-2.858 3.53-3.585 6.26-4.894m-446.5 169.665c2.13.629 3.94 1.395 5.53 2.987 5.98 5.956 22.76 32.285 27.26 40.191 1.55 2.717 2.3 5.911 1.13 8.955-1.56 4.061-5.23 5.897-8.95 7.555-4.57-1.52-7.01-4.558-9.99-8.183-5.24-6.36-26.33-34.638-24.19-42.732 1.02-3.841 6.2-6.712 9.21-8.773M1240.8 477.23c9.19-.337 17.08-.045 25.64 3.905a41.7 41.7 0 0 1 22.17 24.473 45.15 45.15 0 0 1-3.11 35.646c-6.5 11.937-17.36 17.801-29.86 21.528-10.47 1.81-20.39.731-29.73-4.646a44.98 44.98 0 0 1-20.7-27.369c-3-11.172-1.1-22.888 4.94-32.726 7.07-11.512 17.94-17.523 30.65-20.811"/><path fill="#dbe8e1" d="M1242.57 492.121c5.67-.266 10.85-.312 16.2 1.905a27.47 27.47 0 0 1 15.27 15.701 28.4 28.4 0 0 1-.82 22.25c-4.25 9.04-11.05 13.043-19.96 16.338-6.12.742-11.82.456-17.51-2.096a28.17 28.17 0 0 1-15.23-16.633c-2.42-7.114-1.42-15.032 1.99-21.647 4.43-8.595 11.12-12.908 20.06-15.818"/><path fill="#0f4b7a" d="M493.269 926.322c8.036-.159 15.967 1.331 23.165 5.003 10.43 5.322 17.915 14.746 21.24 25.931a44.5 44.5 0 0 1-4.616 35.607c-7.315 12.307-18.75 18.477-32.261 21.657-10.76.33-21.051-2.26-29.892-8.57a43.17 43.17 0 0 1-17.792-28.797c-1.789-12.387 1.567-25.791 9.493-35.548 7.98-9.824 18.502-13.774 30.663-15.283"/><path fill="#dbe8e1" d="M488.109 941.276c5.529-.724 10.973-.992 16.345.773 8.125 2.669 14.649 8.285 18.197 16.098a29.58 29.58 0 0 1 .626 22.744c-3.857 9.756-11.609 14.622-20.786 18.551-5.704 1.158-11.338 1.138-16.827-.93-7.445-2.801-13.209-8.686-16.43-15.899-3.238-7.249-3.66-15.11-.829-22.558 3.673-9.666 10.623-14.78 19.704-18.779"/><path fill="#0f4b7a" d="M1050.11 323.226c9.57-.562 17.92-.361 26.7 4.195 10.5 5.452 18.38 15.575 21.71 26.87a43.08 43.08 0 0 1-3.76 33.084c-6.76 12.342-17.16 18.05-30.14 21.887-10.06 1.282-20.09.502-29.21-4.28a43.43 43.43 0 0 1-21.28-26.485c-3.26-11.612-1.62-25.123 4.73-35.415 7.2-11.664 18.45-16.801 31.25-19.856"/><path fill="#dbe8e1" d="M1053.81 337.247c6.44-.077 12.68 1.394 18.11 4.976a28.84 28.84 0 0 1 12.38 18.682 29.6 29.6 0 0 1-4.62 22.463c-5.21 7.452-11.64 9.921-20.16 11.637-6.02-.032-12.12-.908-17.48-3.767-6.85-3.651-11.83-9.724-13.91-17.222-2.01-7.267-1.04-15.411 2.81-21.919 5.29-8.955 13.29-12.371 22.87-14.85"/><path fill="#0f4b7a" d="m162.878 306.962 13.758.109-.145 1084.629.349 337.44a13582 13582 0 0 0 .133 172.67l1547.167-1.91.14 16.03c-10.65 1.98-24.12.59-35.01.57l-76.69-.16-271.97.08-1178.355.52z"/><path fill="#0f4b7a" d="m612.544 1423.01 3.181.35c2.587 4.95.657 336.3.554 368.77l-228.529.02c-2.052.11-3.331-.02-5.271-.71-1.663-3.57-.9-274.42-1.112-303.99 76.801-22.37 154.626-41.31 231.177-64.44"/><path fill="#0cafbb" d="m586.305 1458.14 1.271.93c1.176 10.69.4 22.15.362 32.93l-.692 69.01-.174 204a11321 11321 0 0 0-176.171.22l-1.512-.87c-1.252-8.24-.265-17.51-.209-25.86l.167-51.35.44-179.39c18.547-3.65 37.253-11.06 55.572-16.13a7310 7310 0 0 0 120.946-33.49"/><path fill="#0f4b7a" d="M218.463 124.643c7.789 4.134 39.491 43.836 47.966 53.579l-33.289-.516 1.907 1666.454c67.885 1.39 136.094-.04 204.018.07h450.394l946.131-.99-.58-35.52c17.01 11.93 42.35 35.43 56.98 50.4l-18.17 17.52c-12.54 12.82-25.2 25.52-38.66 37.37a854 854 0 0 1 .81-43.77c-138.5-2.52-277.29-.43-415.83-.51l-735.43-.33-312.389.29-102.366.08c-20.281.01-40.705.52-60.963-.42l-.53-1288.311c-.416-133.766 2.117-267.689-.207-401.434-11.132-.761-22.402-.64-33.561-.842 13.355-18.844 28.266-36.031 43.769-53.12"/><path fill="#0f4b7a" d="M896.666 1165.14c2.169 8.75.314 36.48.261 46.8l-.751 132.3-.112 290.74c.15 52.24 1.647 104.54.467 156.78-78.356 1.68-156.991.13-235.382.26l-.672-.58c-2.583-5.68-.468-500.58-.499-559.99 77.62-24.05 159.699-41.05 236.688-66.31"/><path fill="#0cafbb" d="m866.316 1201.07.745.21c1.128 2.1.939 1.2 1.086 3.44 1.277 19.47.07 39.84.029 59.4l-.084 117.4.269 382.46-177.385.79-1.738-.83c-2.475-10.18-.498-26.93-.467-37.97l.127-90.33-.232-383.46c58.6-18.76 118.868-32.87 177.65-51.11"/><path fill="#0f4b7a" d="M1714.71 249.941c.06.051.13.088.18.151.01.021 1.07 1.837 1.08 1.878 1.28 4.529-5.33 73.015-6.08 84.05a13955 13955 0 0 0-9.56 156.679c-24.22-16.744-48.76-33.024-72.86-49.949-34.25 48.953-66.57 99.479-99.55 149.311a11904 11904 0 0 0-138.86 213.269c-23.85-11.471-46.96-24.549-70.33-36.957a3429 3429 0 0 0-101.62-51.658c-13.02 14.598-24.48 30.8-36.16 46.474l-45.82 60.839a10134 10134 0 0 0-189.862 257.692c-22.275-5.27-44.261-11.86-66.402-17.67a8789 8789 0 0 0-107.313-27.18c-19.727-5.03-39.271-10.77-59.058-15.58-22.554 26.33-45.316 65.62-65.573 95.34l-127.823 187.25-45.29 65.96c-12.241 17.94-24.063 36.35-37.681 53.29-16.045-8.17-31.073-19.83-45.625-30.38-2.977-2.28-5.82-4.76-8.698-7.16 5.71-9.66 12.606-18.8 18.788-28.18 16.986-25.8 34.224-51.21 51.845-76.56l88.637-129.53 91.346-133.68c15.939-23.628 30.838-48.492 47.924-71.27 27.23 5.244 54.326 12.995 81.279 19.604a5553 5553 0 0 1 155.325 39.836c25.026-31.231 47.128-64.534 71.007-96.581 39.524-53.044 80.274-105.204 119.454-158.496 17.5-23.8 35.71-46.983 53.4-70.624 12.15-16.235 23.51-33.806 37.21-48.742 21.97 7.09 43.98 21.352 64.47 32.08 34.48 18.044 69.38 35.866 104.63 52.314l132.22-202.425a3499 3499 0 0 1 52.78-79.025c6.3-9.298 12.01-18.915 18.56-28.056-26.3-18.114-53.9-34.771-81.08-51.563 17.04-9.72 36.64-17.254 54.45-25.616 20.25-9.507 40.35-19.467 60.76-28.6 36.85-16.482 73.96-32.073 109.9-50.535"/><path fill="#dbe8e1" d="m1683.3 296.871 1.52.615c-.41 15.878-2.33 31.889-3.49 47.744-2.32 31.599-4.55 63.084-8.02 94.585-21.16-17.644-45.81-33.801-69.32-48.164-17.23-11.506-35.14-21.911-52.43-33.309 16.8-5.794 32.52-14.294 48.62-21.722 27.83-12.834 55.99-25.498 83.12-39.749m-87.29 124.537c2.6 1.103 4.42 2.272 5.6 4.788-.55 3.059-1.59 5.372-3.17 8.05-4.16 7.03-10.12 13.134-14.66 19.958l-38.19 58.152-107.3 162.634c-19.76 30.042-41.2 59.991-59.21 91.061-42.07-20.561-83.66-42.911-125.13-64.667-14.95-7.839-29.66-16.243-44.83-23.621-11.53 13.037-21.09 28.581-31.77 42.404a5441 5441 0 0 0-103.21 137.846L982.429 980.27c-16.87 22.54-34.364 44.9-49.927 68.36-77.241-23.22-156.785-39.3-234.688-60.187-7.24 9.415-13.293 20.067-19.904 29.967l-35.914 52.82-105.484 153.79-76.002 111.07c-10.65 15.83-23.353 31.59-31.9 48.65l-7.993-3.99c4.564-9.43 12.179-18.21 18.037-26.97a4194 4194 0 0 1 43.946-65.06l131.678-190.66a7522 7522 0 0 0 52.554-78.61c9.145-13.74 18.03-29.168 28.908-41.548 28.64 8.937 58.15 15.043 87.171 22.568l146.596 38.85c44.757-63.761 92.053-125.944 138.883-188.192l55.51-74.962c27.44-36.444 55.58-72.217 82.11-109.363 56.96 29.001 113.15 59.968 170.63 87.896 21.06-35.239 44.93-69.432 67.63-103.687l91.19-138.384c20.16-30.393 40.96-60.468 60.55-91.22"/><path fill="#0f4b7a" d="m1171.8 1069.17 2.73-.31 1.39 1.12c.95 31.99.16 64.21.18 96.22l.31 163.8-.5 461.84c-23.14.68-46.46.1-69.62.1l-159.54.3c-2.314 0-2.347.28-4.419-1.06-2.047-22.46-.241-46.28-.162-68.92l.238-138.21-.43-450.39c41.018-10.57 81.733-22.97 122.473-34.54 35.74-10.14 71.73-19.41 107.35-29.95"/><path fill="#dbe8e1" d="M1143.49 1107.13c2.65-.38 1.36-.49 3.87.29 2.32 14.43.48 41.28.5 56.98l.55 125.02.14 312.99c-.05 53.77 1.14 107.71-.1 161.46l-172.7.29c-1.836.15-2.721-.01-4.401-.77-2.877-18.42-1.068-39.73-1.126-58.51l-.211-120.72.208-429.51c20.854-4.87 41.57-11.24 62.19-17.02a6698 6698 0 0 1 111.08-30.5"/><path fill="#0f4b7a" d="M684.527 353.392c3.5-.71 7.565-.568 11.154-.789.617 9.16 1.433 18.422 3.162 27.443 2.509 13.086 6.643 27.353 18.488 34.977 11.765 7.572 35.089 12.484 48.73 9.384 19.431-4.415 33.586-35.118 43.345-51.091 17.513 8.821 34.997 18.052 51.56 28.56-5.216 10.998-10.422 22.001-14.598 33.445-4.46 12.222-8.051 23.246-1.993 35.681 6.553 13.451 21.012 28.36 35.332 33.207 19.134 6.475 46.343-10.403 63.29-18.369 9.319 18.296 18.347 37.335 25.96 56.402a243 243 0 0 0-2.508 1.166c-17.12 8.071-48.66 20.701-55.004 39.693-3.447 10.32-.436 37.789 4.731 47.643 9.111 17.378 45.999 24.374 64.096 29.918-4.983 19.693-7.681 39.765-12.374 59.499-19.125-3.637-37.979-6.206-57.505-6.036a66 66 0 0 0-8.305 6.046c-11.469 9.951-26.21 31.59-27.017 46.843-.963 18.189 25.474 40.485 37.277 53.325-16.909 13.048-32.675 29.549-47.966 44.479-10.348-10.94-20.734-21.995-32.099-31.897-6.493-5.657-13.247-10.769-22.305-9.998-10.754.916-37.854 13.363-44.659 21.881-10.092 12.634-3.88 44.59-2.562 60.391a464 464 0 0 1-48.984 10.686l-12.046 2.158c-4.428-15.737-8.536-53.63-21.389-62.466-9.536-6.556-37.942-10.84-49.504-7.983-17.725 4.379-32.8 36.411-42.16 51.568-18.407-9.804-37.684-18.484-55.301-29.676 6.262-10.807 12.312-21.813 17.381-33.239 4.327-9.752 7.882-19.997 3.547-30.453-4.22-10.179-26.07-36.122-36.081-40.098-14.37-5.708-47.812 12.426-61.535 18.781-8.418-19.624-18.502-38.385-26.241-58.357 6.332-3.901 13.388-7.004 19.992-10.45 10.475-5.465 25.962-13.669 29.285-25.841 2.92-10.692-1.447-41.902-7.281-51.447-9.606-15.718-43.088-21.051-60.28-25.052 2.667-21.315 7.375-41.806 12.976-62.514 10.984 2.12 21.877 4.699 32.866 6.795 10.1 1.925 20.452 3.243 29.313-3.129 11.191-8.047 26.046-37.426 27.962-51.22 2.97-21.381-23.544-41.566-35.558-56.923 16.444-13.47 31.817-29.155 47.358-43.709 14.304 14.238 32.841 40.78 54.627 41.069 13.627.181 35.632-9.581 45.049-19.334 14.417-14.933 6.696-45.066 5.961-64.032a1307 1307 0 0 1 51.813-6.937"/><path fill="#dbe8e1" d="M683.551 447.418c.345-.051.687-.12 1.033-.154 46.446-4.552 97.084 16.093 132.148 45.452 36.177 30.291 59.939 76.798 63.747 123.807 4.228 52.207-12.166 101.056-46.279 140.852-32.866 38.34-79.247 58.639-128.954 62.26-48.451 2.804-94.908-13.515-131.929-44.436-38.025-31.76-61.382-80.041-65.651-129.12-4.146-47.668 10.038-94.096 41.158-130.68 35.444-41.668 80.579-63.424 134.727-67.981"/><path fill="#0f4b7a" d="M694.889 483.425c35.137-.518 72.649 13.839 98.486 37.575 32.104 29.494 49.267 64.208 51.039 107.807 1.494 36.781-11.297 75.266-36.386 102.434-30.652 33.191-67.917 49.436-112.649 51.132-37.597-.449-73.311-13.683-101.463-38.934-28.283-25.369-47.949-63.413-49.811-101.531-1.877-38.444 11.123-78.174 37.23-106.733 31.266-34.201 67.63-49.592 113.554-51.75"/><path fill="#dbe8e1" d="M691.04 498.414c32.665-.853 67.357 10.772 91.793 32.686 27.217 24.408 44.466 57.55 46.297 94.203 1.879 37.601-9.101 69.591-34.616 97.476-26.18 28.614-58.316 42.696-96.823 44.297-33.997.631-65.903-10.285-91.863-32.428a137.93 137.93 0 0 1-47.115-93.128 129.9 129.9 0 0 1 31.79-95.036c26.793-30.566 60.331-45.333 100.537-48.07"/><path fill="#0f4b7a" d="M690.647 560.413c18.152-.923 35.048 4.205 49.157 15.701 16.046 13.075 25.64 31.851 27.53 52.41a72.15 72.15 0 0 1-16.724 52.857c-14.028 16.706-31.792 24.322-53.168 26.224-.554.05-1.108.11-1.663.15-17.447 1.262-36.526-5.728-49.733-16.976a74.2 74.2 0 0 1-25.336-50.303c-1.632-20.23 4.352-40.138 17.661-55.565 13.339-15.462 32.225-22.953 52.276-24.498m762.443 280.658.9.134c1.76 2.097 1.01 5.625 1.01 8.338l.14 942.867a16079 16079 0 0 0-231.25-.33l-1.87-1.05.91-879.261c30.18-7.178 60.24-17.617 89.88-26.885z"/><path fill="#0cafbb" d="m1424.69 880.061 1.34.051c1.25 1.716 1.08 3.084 1.12 5.146.46 21.345-.2 42.873-.23 64.235l-.06 140.207c.43 224.69-1.87 449.52.63 674.18-58.44.59-116.95.04-175.4.01l-1.12-.72c-2.78-6.43-.24-251.38-.18-283.44l-.07-545.454c22.6-8.362 45.8-14.933 68.78-22.137 35-10.973 69.88-22.14 105.19-32.078"/><path fill="#0f4b7a" d="m1735.67 712.173.81.783c1.52 7.868.38 17.317.36 25.36l.05 50.172.3 194.277.41 519.735a22874 22874 0 0 0 .63 289.69 13305 13305 0 0 0-235.1.47l-1.34-.34c-1.02-1.49-1.16-2.24-1.26-4.06-2.15-38.67-.47-78.39-.45-117.14l.14-224.94.02-666.508c78.32-23.142 157.64-42.557 235.43-67.499"/><path fill="#dbe8e1" d="m1707.88 749.113.86.768c1.42 9.062.39 19.115.33 28.334l-.08 51.853.03 193.422.09 456.28a21216 21216 0 0 0 .71 284.27c-35.09-.38-70.22-.09-105.32-.09-24.75 0-49.66-.66-74.38.48-2.3-7.63-.53-56.81-.48-69.14l.89-208.32-.13-686.36c14.78-5.667 30.83-9.324 46.09-13.617a4533 4533 0 0 1 61.04-17.313c23.42-6.368 47.51-12.338 70.35-20.567"/></svg>