<svg preserveAspectRatio="xMidYMid meet" version="1.1" xmlns="http://www.w3.org/2000/svg" style="display: block;" viewBox="0 0 2048 2048" width="1024" height="1024">
<path transform="translate(0,0)" fill="rgb(219,232,225)" d="M 0 0 L 2048 0 L 2048 2048 L 0 2048 L 0 0 z"/>
<path transform="translate(0,0)" fill="rgb(15,75,122)" d="M 162.541 274.045 C 166.674 273.832 172.044 272.857 175.805 274.742 C 177.868 277.543 177.207 281.368 177.102 284.687 C 173.126 284.871 167.055 285.984 163.571 283.969 C 161.522 280.943 162.299 277.508 162.541 274.045 z"/>
<path transform="translate(0,0)" fill="rgb(15,75,122)" d="M 162.03 239.041 L 177.709 239.023 C 177.96 243.541 178.067 247.86 177.753 252.384 L 161.943 252.666 L 162.03 239.041 z"/>
<path transform="translate(0,0)" fill="rgb(15,75,122)" d="M 1745.55 1899.21 L 1758.22 1899.12 L 1757.96 1916.29 L 1745.46 1916.46 L 1745.55 1899.21 z"/>
<path transform="translate(0,0)" fill="rgb(15,75,122)" d="M 1780.05 1899.2 L 1799.14 1899.11 C 1799.17 1904.53 1799.04 1909.9 1798.77 1915.31 C 1792.5 1916.19 1785.91 1916.02 1779.57 1916.18 C 1779.46 1910.47 1779.68 1904.89 1780.05 1899.2 z"/>
<path transform="translate(0,0)" fill="rgb(15,75,122)" d="M 1805.51 255.766 C 1808.69 257.105 1810.48 259.308 1812.5 261.999 C 1818.93 270.599 1834.98 295.121 1832.5 306.079 C 1831.72 309.551 1826.71 311.532 1823.88 312.973 C 1822.99 312.941 1822.76 312.966 1821.79 312.749 C 1816.92 311.659 1814.82 307.35 1812.58 303.334 C 1808.97 296.866 1793.87 269.588 1796.28 263.178 C 1797.82 259.058 1801.83 257.553 1805.51 255.766 z"/>
<path transform="translate(0,0)" fill="rgb(15,75,122)" d="M 1397.51 253.039 C 1400.62 253.366 1404.99 253.406 1407.5 255.562 C 1409.44 257.229 1409.68 258.385 1410 260.719 C 1407.24 268.297 1388.12 304.71 1383.03 308.651 C 1382.52 308.618 1382.01 308.609 1381.51 308.552 C 1378.26 308.18 1374.76 306.914 1372.87 304.074 C 1370.5 300.525 1371.15 295.554 1372.28 291.681 C 1375.63 280.262 1387.01 258.926 1397.51 253.039 z"/>
<path transform="translate(0,0)" fill="rgb(15,75,122)" d="M 1535.26 151.073 C 1537.04 150.98 1538.7 150.986 1540.34 151.808 C 1542.59 152.931 1544.53 155.475 1545.13 157.865 C 1545.74 160.358 1545.32 162.37 1544.06 164.578 C 1538.8 173.714 1510.65 183.278 1500.27 185.847 C 1495.69 184.289 1492.09 182.54 1489.63 178.203 C 1489.43 175.589 1489.34 174.785 1490.77 172.434 C 1496.29 163.356 1525.19 154.107 1535.26 151.073 z"/>
<path transform="translate(0,0)" fill="rgb(15,75,122)" d="M 1804.72 516.823 C 1805.18 516.829 1805.63 516.82 1806.08 516.842 C 1809.87 517.026 1814.67 517.723 1816.96 521.122 C 1818.32 523.131 1818.38 525.554 1818.07 527.867 C 1816.54 539.225 1798.7 563.367 1789.39 570.034 C 1784.89 570.224 1781.52 569.035 1777.89 566.461 C 1776.97 565.035 1776.19 563.901 1776.17 562.125 C 1776.06 552.437 1788.7 542.715 1793.56 535.053 C 1797.42 528.985 1799.96 522.3 1804.72 516.823 z"/>
<path transform="translate(0,0)" fill="rgb(15,75,122)" d="M 1542.13 643.979 C 1552.56 644.207 1587.63 643.193 1594.22 650.326 C 1595.45 651.662 1596.09 653.132 1596.2 654.9 C 1596.47 659.017 1594.25 662.435 1591.69 665.404 C 1580.13 666.56 1550.01 667.391 1540.52 660.828 C 1538.49 659.423 1537.03 657.549 1536.86 654.991 C 1536.57 650.619 1539.63 647.192 1542.13 643.979 z"/>
<path transform="translate(0,0)" fill="rgb(15,75,122)" d="M 1458.74 188.803 C 1459.18 188.778 1459.62 188.714 1460.06 188.727 C 1463.6 188.827 1466.98 190.535 1469.51 192.942 C 1470.21 194.417 1470.65 195.535 1470.46 197.226 C 1469.51 205.481 1440.38 228.684 1432.88 235.429 C 1427.6 234.917 1423.96 234.123 1420.31 230.103 C 1419.58 227.631 1419.2 226.704 1419.9 224.134 C 1422.93 213.08 1448.86 194.826 1458.74 188.803 z"/>
<path transform="translate(0,0)" fill="rgb(15,75,122)" d="M 1585.08 142.19 C 1596.68 141.432 1618.02 139.791 1628.27 146.137 C 1630.56 147.549 1631.66 149.055 1632.32 151.664 C 1632.09 154.987 1630.83 158.2 1628.64 160.771 C 1626.74 162.997 1623.74 162.908 1621.04 163.109 C 1609.65 162.249 1585.83 164.834 1576.53 159.874 C 1574.34 158.707 1572.4 156.863 1571.87 154.35 C 1571.32 151.81 1572.19 149.207 1573.51 147.072 C 1575.71 143.53 1581.36 142.962 1585.08 142.19 z"/>
<path transform="translate(0,0)" fill="rgb(15,75,122)" d="M 1662.18 152.883 C 1675.63 151.789 1695.98 158.347 1706.99 166.023 C 1710.42 168.412 1714.11 172.029 1714.32 176.487 C 1714.52 180.834 1711.66 183.776 1708.95 186.739 C 1701.1 186.736 1669.83 173.39 1661.68 168.594 C 1659.27 167.176 1657.57 165.75 1657.2 162.796 C 1656.67 158.643 1659.63 155.688 1662.18 152.883 z"/>
<path transform="translate(0,0)" fill="rgb(15,75,122)" d="M 1749.41 585.835 C 1751.45 585.498 1753.25 585.57 1755.26 586.027 C 1758.56 586.777 1760.47 588.213 1762.3 591.058 C 1762.55 593.116 1762.92 594.052 1762.17 596.05 C 1757.85 607.414 1730.22 623.436 1719.3 628.578 C 1718.55 628.79 1717.79 629.036 1717 629.088 C 1714.33 629.265 1712.35 628.802 1710.4 626.915 C 1708.63 625.212 1707.55 622.976 1707.8 620.483 C 1708.74 611.01 1740.86 591.55 1749.41 585.835 z"/>
<path transform="translate(0,0)" fill="rgb(15,75,122)" d="M 1742.2 191.835 C 1749.35 191.8 1754.48 195.68 1759.97 199.782 C 1768.05 205.815 1785.48 219.112 1785.99 230.115 C 1786.18 234.387 1782.93 236.806 1780.13 239.456 C 1778.95 239.639 1777.6 239.807 1776.42 239.671 C 1771.66 239.123 1746.44 215.321 1742.1 210.334 C 1739.34 207.167 1736.26 203.043 1736.89 198.588 C 1737.35 195.366 1739.84 193.703 1742.2 191.835 z"/>
<path transform="translate(0,0)" fill="rgb(15,75,122)" d="M 1362.42 333.982 C 1365.64 334.709 1369.79 335.309 1372.11 337.93 C 1374.45 340.568 1374.08 343.325 1373.74 346.592 C 1372.93 354.213 1368.32 388.981 1366.35 393.525 C 1365.43 395.652 1364.56 396.434 1362.81 397.839 C 1358.23 397.219 1354.77 396.709 1351.47 393.254 C 1346.86 381.724 1350.59 359.926 1353.81 347.984 C 1355.42 341.99 1356.83 337.168 1362.42 333.982 z"/>
<path transform="translate(0,0)" fill="rgb(15,75,122)" d="M 1673.05 631.136 C 1674.74 630.961 1676.04 630.892 1677.64 631.579 C 1680.57 632.839 1683.08 634.501 1684.03 637.724 C 1684.79 640.311 1684.23 642.588 1682.84 644.814 C 1677.54 653.315 1648.11 658.832 1637.54 661.447 C 1636.04 661.584 1634.01 661.91 1632.54 661.596 C 1629.52 660.953 1626.68 658.471 1625.53 655.63 C 1624.37 652.765 1624.8 649.659 1626.24 646.998 C 1627.69 644.306 1630.15 642.401 1632.94 641.236 C 1637.96 639.143 1644.59 638.747 1649.97 637.491 C 1657.72 635.682 1665.4 633.317 1673.05 631.136 z"/>
<path transform="translate(0,0)" fill="rgb(15,75,122)" d="M 1356.13 426.007 C 1360.18 425.816 1363.69 425.609 1367.32 427.592 C 1370.41 435.127 1371.22 444.375 1373.01 452.356 C 1375.05 461.371 1377.69 470.232 1379.32 479.336 C 1378.22 482.454 1375.71 483.828 1373.15 485.682 C 1371.72 486.067 1370.39 486.439 1368.9 486.453 C 1366.18 486.477 1364.41 486.044 1362.53 483.877 C 1355.15 475.391 1349.66 443.784 1351.45 432.56 C 1351.97 429.267 1353.7 427.982 1356.13 426.007 z"/>
<path transform="translate(0,0)" fill="rgb(15,75,122)" d="M 1835.25 429.971 C 1838.84 429.814 1842.83 429.629 1845.45 432.572 C 1848.12 435.586 1848.44 441.395 1848.26 445.213 C 1847.66 458.297 1842.52 482.067 1832.46 490.942 C 1828.35 491.04 1824.8 491.248 1821.39 488.56 C 1819.82 487.321 1819.79 486.636 1819.66 484.641 C 1819.3 479.492 1828.67 440.951 1830.92 435.645 C 1831.88 433.366 1833.49 431.672 1835.25 429.971 z"/>
<path transform="translate(0,0)" fill="rgb(15,75,122)" d="M 1832.96 337.971 C 1834.02 338.061 1835.08 338.138 1836.13 338.283 C 1838.88 338.664 1840.81 339.534 1842.45 341.86 C 1850.2 352.815 1853.9 380.335 1851.32 393.568 C 1850.37 398.428 1847.99 400.201 1844.09 402.779 C 1841.45 402.483 1838.85 402.002 1836.7 400.281 C 1835.41 399.246 1834.58 398.252 1834.07 396.661 C 1831.6 388.938 1831.76 378.665 1830.74 370.544 C 1829.59 361.285 1827.69 352.147 1826.7 342.865 C 1828.13 340.007 1830.23 339.28 1832.96 337.971 z"/>
<path transform="translate(0,0)" fill="rgb(15,75,122)" d="M 1386.46 507.636 C 1388.59 508.265 1390.4 509.031 1391.99 510.623 C 1397.97 516.579 1414.75 542.908 1419.25 550.814 C 1420.8 553.531 1421.55 556.725 1420.38 559.769 C 1418.82 563.83 1415.15 565.666 1411.43 567.324 C 1406.86 565.804 1404.42 562.766 1401.44 559.141 C 1396.2 552.781 1375.11 524.503 1377.25 516.409 C 1378.27 512.568 1383.45 509.697 1386.46 507.636 z"/>
<path transform="translate(0,0)" fill="rgb(15,75,122)" d="M 1240.8 477.23 C 1249.99 476.893 1257.88 477.185 1266.44 481.135 A 41.6991 41.6991 0 0 1 1288.61 505.608 A 45.1469 45.1469 0 0 1 1285.5 541.254 C 1279 553.191 1268.14 559.055 1255.64 562.782 C 1245.17 564.592 1235.25 563.513 1225.91 558.136 A 44.98 44.98 0 0 1 1205.21 530.767 C 1202.21 519.595 1204.11 507.879 1210.15 498.041 C 1217.22 486.529 1228.09 480.518 1240.8 477.23 z"/>
<path transform="translate(0,0)" fill="rgb(219,232,225)" d="M 1242.57 492.121 C 1248.24 491.855 1253.42 491.809 1258.77 494.026 A 27.4684 27.4684 0 0 1 1274.04 509.727 A 28.3899 28.3899 0 0 1 1273.22 531.977 C 1268.97 541.017 1262.17 545.02 1253.26 548.315 C 1247.14 549.057 1241.44 548.771 1235.75 546.219 A 28.1676 28.1676 0 0 1 1220.52 529.586 C 1218.1 522.472 1219.1 514.554 1222.51 507.939 C 1226.94 499.344 1233.63 495.031 1242.57 492.121 z"/>
<path transform="translate(0,0)" fill="rgb(15,75,122)" d="M 493.269 926.322 C 501.305 926.163 509.236 927.653 516.434 931.325 C 526.864 936.647 534.349 946.071 537.674 957.256 A 44.5049 44.5049 0 0 1 533.058 992.863 C 525.743 1005.17 514.308 1011.34 500.797 1014.52 C 490.037 1014.85 479.746 1012.26 470.905 1005.95 A 43.1667 43.1667 0 0 1 453.113 977.153 C 451.324 964.766 454.68 951.362 462.606 941.605 C 470.586 931.781 481.108 927.831 493.269 926.322 z"/>
<path transform="translate(0,0)" fill="rgb(219,232,225)" d="M 488.109 941.276 C 493.638 940.552 499.082 940.284 504.454 942.049 C 512.579 944.718 519.103 950.334 522.651 958.147 A 29.5796 29.5796 0 0 1 523.277 980.891 C 519.42 990.647 511.668 995.513 502.491 999.442 C 496.787 1000.6 491.153 1000.58 485.664 998.512 C 478.219 995.711 472.455 989.826 469.234 982.613 C 465.996 975.364 465.574 967.503 468.405 960.055 C 472.078 950.389 479.028 945.275 488.109 941.276 z"/>
<path transform="translate(0,0)" fill="rgb(15,75,122)" d="M 1050.11 323.226 C 1059.68 322.664 1068.03 322.865 1076.81 327.421 C 1087.31 332.873 1095.19 342.996 1098.52 354.291 A 43.0779 43.0779 0 0 1 1094.76 387.375 C 1088 399.717 1077.6 405.425 1064.62 409.262 C 1054.56 410.544 1044.53 409.764 1035.41 404.982 A 43.4294 43.4294 0 0 1 1014.13 378.497 C 1010.87 366.885 1012.51 353.374 1018.86 343.082 C 1026.06 331.418 1037.31 326.281 1050.11 323.226 z"/>
<path transform="translate(0,0)" fill="rgb(219,232,225)" d="M 1053.81 337.247 C 1060.25 337.17 1066.49 338.641 1071.92 342.223 A 28.8423 28.8423 0 0 1 1084.3 360.905 A 29.5993 29.5993 0 0 1 1079.68 383.368 C 1074.47 390.82 1068.04 393.289 1059.52 395.005 C 1053.5 394.973 1047.4 394.097 1042.04 391.238 C 1035.19 387.587 1030.21 381.514 1028.13 374.016 C 1026.12 366.749 1027.09 358.605 1030.94 352.097 C 1036.23 343.142 1044.23 339.726 1053.81 337.247 z"/>
<path transform="translate(0,0)" fill="rgb(15,75,122)" d="M 162.878 306.962 L 176.636 307.071 L 176.491 1391.7 L 176.84 1729.14 A 13581.7 13581.7 0 0 0 176.973 1901.81 L 1724.14 1899.9 L 1724.28 1915.93 C 1713.63 1917.91 1700.16 1916.52 1689.27 1916.5 L 1612.58 1916.34 L 1340.61 1916.42 L 162.255 1916.94 L 162.878 306.962 z"/>
<path transform="translate(0,0)" fill="rgb(15,75,122)" d="M 612.544 1423.01 L 615.725 1423.36 C 618.312 1428.31 616.382 1759.66 616.279 1792.13 L 387.75 1792.15 C 385.698 1792.26 384.419 1792.13 382.479 1791.44 C 380.816 1787.87 381.579 1517.02 381.367 1487.45 C 458.168 1465.08 535.993 1446.14 612.544 1423.01 z"/>
<path transform="translate(0,0)" fill="rgb(12,175,187)" d="M 586.305 1458.14 L 587.576 1459.07 C 588.752 1469.76 587.976 1481.22 587.938 1492 L 587.246 1561.01 L 587.072 1765.01 A 11320.6 11320.6 0 0 0 410.901 1765.23 L 409.389 1764.36 C 408.137 1756.12 409.124 1746.85 409.18 1738.5 L 409.347 1687.15 L 409.787 1507.76 C 428.334 1504.11 447.04 1496.7 465.359 1491.63 A 7309.74 7309.74 0 0 0 586.305 1458.14 z"/>
<path transform="translate(0,0)" fill="rgb(15,75,122)" d="M 218.463 124.643 C 226.252 128.777 257.954 168.479 266.429 178.222 L 233.14 177.706 L 235.047 1844.16 C 302.932 1845.55 371.141 1844.12 439.065 1844.23 L 889.459 1844.23 L 1835.59 1843.24 L 1835.01 1807.72 C 1852.02 1819.65 1877.36 1843.15 1891.99 1858.12 L 1873.82 1875.64 C 1861.28 1888.46 1848.62 1901.16 1835.16 1913.01 A 853.987 853.987 0 0 1 1835.97 1869.24 C 1697.47 1866.72 1558.68 1868.81 1420.14 1868.73 L 684.71 1868.4 L 372.321 1868.69 L 269.955 1868.77 C 249.674 1868.78 229.25 1869.29 208.992 1868.35 L 208.462 580.039 C 208.046 446.273 210.579 312.35 208.255 178.605 C 197.123 177.844 185.853 177.965 174.694 177.763 C 188.049 158.919 202.96 141.732 218.463 124.643 z"/>
<path transform="translate(0,0)" fill="rgb(15,75,122)" d="M 896.666 1165.14 C 898.835 1173.89 896.98 1201.62 896.927 1211.94 L 896.176 1344.24 L 896.064 1634.98 C 896.214 1687.22 897.711 1739.52 896.531 1791.76 C 818.175 1793.44 739.54 1791.89 661.149 1792.02 L 660.477 1791.44 C 657.894 1785.76 660.009 1290.86 659.978 1231.45 C 737.598 1207.4 819.677 1190.4 896.666 1165.14 z"/>
<path transform="translate(0,0)" fill="rgb(12,175,187)" d="M 866.316 1201.07 L 867.061 1201.28 C 868.189 1203.38 868 1202.48 868.147 1204.72 C 869.424 1224.19 868.217 1244.56 868.176 1264.12 L 868.092 1381.52 L 868.361 1763.98 L 690.976 1764.77 L 689.238 1763.94 C 686.763 1753.76 688.74 1737.01 688.771 1725.97 L 688.898 1635.64 L 688.666 1252.18 C 747.266 1233.42 807.534 1219.31 866.316 1201.07 z"/>
<path transform="translate(0,0)" fill="rgb(15,75,122)" d="M 1714.71 249.941 C 1714.77 249.992 1714.84 250.029 1714.89 250.092 C 1714.9 250.113 1715.96 251.929 1715.97 251.97 C 1717.25 256.499 1710.64 324.985 1709.89 336.02 A 13954.9 13954.9 0 0 0 1700.33 492.699 C 1676.11 475.955 1651.57 459.675 1627.47 442.75 C 1593.22 491.703 1560.9 542.229 1527.92 592.061 A 11903.8 11903.8 0 0 0 1389.06 805.33 C 1365.21 793.859 1342.1 780.781 1318.73 768.373 A 3428.94 3428.94 0 0 0 1217.11 716.715 C 1204.09 731.313 1192.63 747.515 1180.95 763.189 L 1135.13 824.028 A 10134.3 10134.3 0 0 0 945.268 1081.72 C 922.993 1076.45 901.007 1069.86 878.866 1064.05 A 8788.5 8788.5 0 0 0 771.553 1036.87 C 751.826 1031.84 732.282 1026.1 712.495 1021.29 C 689.941 1047.62 667.179 1086.91 646.922 1116.63 L 519.099 1303.88 L 473.809 1369.84 C 461.568 1387.78 449.746 1406.19 436.128 1423.13 C 420.083 1414.96 405.055 1403.3 390.503 1392.75 C 387.526 1390.47 384.683 1387.99 381.805 1385.59 C 387.515 1375.93 394.411 1366.79 400.593 1357.41 C 417.579 1331.61 434.817 1306.2 452.438 1280.85 L 541.075 1151.32 L 632.421 1017.64 C 648.36 994.012 663.259 969.148 680.345 946.37 C 707.575 951.614 734.671 959.365 761.624 965.974 A 5553.23 5553.23 0 0 1 916.949 1005.81 C 941.975 974.579 964.077 941.276 987.956 909.229 C 1027.48 856.185 1068.23 804.025 1107.41 750.733 C 1124.91 726.933 1143.12 703.75 1160.81 680.109 C 1172.96 663.874 1184.32 646.303 1198.02 631.367 C 1219.99 638.457 1242 652.719 1262.49 663.447 C 1296.97 681.491 1331.87 699.313 1367.12 715.761 L 1499.34 513.336 A 3498.47 3498.47 0 0 1 1552.12 434.311 C 1558.42 425.013 1564.13 415.396 1570.68 406.255 C 1544.38 388.141 1516.78 371.484 1489.6 354.692 C 1506.64 344.972 1526.24 337.438 1544.05 329.076 C 1564.3 319.569 1584.4 309.609 1604.81 300.476 C 1641.66 283.994 1678.77 268.403 1714.71 249.941 z"/>
<path transform="translate(0,0)" fill="rgb(219,232,225)" d="M 1683.3 296.871 L 1684.82 297.486 C 1684.41 313.364 1682.49 329.375 1681.33 345.23 C 1679.01 376.829 1676.78 408.314 1673.31 439.815 C 1652.15 422.171 1627.5 406.014 1603.99 391.651 C 1586.76 380.145 1568.85 369.74 1551.56 358.342 C 1568.36 352.548 1584.08 344.048 1600.18 336.62 C 1628.01 323.786 1656.17 311.122 1683.3 296.871 z"/>
<path transform="translate(0,0)" fill="rgb(219,232,225)" d="M 1596.01 421.408 C 1598.61 422.511 1600.43 423.68 1601.61 426.196 C 1601.06 429.255 1600.02 431.568 1598.44 434.246 C 1594.28 441.276 1588.32 447.38 1583.78 454.204 L 1545.59 512.356 L 1438.29 674.99 C 1418.53 705.032 1397.09 734.981 1379.08 766.051 C 1337.01 745.49 1295.42 723.14 1253.95 701.384 C 1239 693.545 1224.29 685.141 1209.12 677.763 C 1197.59 690.8 1188.03 706.344 1177.35 720.167 A 5440.49 5440.49 0 0 0 1074.14 858.013 L 982.429 980.27 C 965.559 1002.81 948.065 1025.17 932.502 1048.63 C 855.261 1025.41 775.717 1009.33 697.814 988.443 C 690.574 997.858 684.521 1008.51 677.91 1018.41 L 641.996 1071.23 L 536.512 1225.02 L 460.51 1336.09 C 449.86 1351.92 437.157 1367.68 428.61 1384.74 L 420.617 1380.75 C 425.181 1371.32 432.796 1362.54 438.654 1353.78 A 4194.24 4194.24 0 0 1 482.6 1288.72 L 614.278 1098.06 A 7522.06 7522.06 0 0 0 666.832 1019.45 C 675.977 1005.71 684.862 990.282 695.74 977.902 C 724.38 986.839 753.89 992.945 782.911 1000.47 L 929.507 1039.32 C 974.264 975.559 1021.56 913.376 1068.39 851.128 L 1123.9 776.166 C 1151.34 739.722 1179.48 703.949 1206.01 666.803 C 1262.97 695.804 1319.16 726.771 1376.64 754.699 C 1397.7 719.46 1421.57 685.267 1444.27 651.012 L 1535.46 512.628 C 1555.62 482.235 1576.42 452.16 1596.01 421.408 z"/>
<path transform="translate(0,0)" fill="rgb(15,75,122)" d="M 1171.8 1069.17 L 1174.53 1068.86 L 1175.92 1069.98 C 1176.87 1101.97 1176.08 1134.19 1176.1 1166.2 L 1176.41 1330 L 1175.91 1791.84 C 1152.77 1792.52 1129.45 1791.94 1106.29 1791.94 L 946.75 1792.24 C 944.436 1792.24 944.403 1792.52 942.331 1791.18 C 940.284 1768.72 942.09 1744.9 942.169 1722.26 L 942.407 1584.05 L 941.977 1133.66 C 982.995 1123.09 1023.71 1110.69 1064.45 1099.12 C 1100.19 1088.98 1136.18 1079.71 1171.8 1069.17 z"/>
<path transform="translate(0,0)" fill="rgb(219,232,225)" d="M 1143.49 1107.13 C 1146.14 1106.75 1144.85 1106.64 1147.36 1107.42 C 1149.68 1121.85 1147.84 1148.7 1147.86 1164.4 L 1148.41 1289.42 L 1148.55 1602.41 C 1148.5 1656.18 1149.69 1710.12 1148.45 1763.87 L 975.75 1764.16 C 973.914 1764.31 973.029 1764.15 971.349 1763.39 C 968.472 1744.97 970.281 1723.66 970.223 1704.88 L 970.012 1584.16 L 970.22 1154.65 C 991.074 1149.78 1011.79 1143.41 1032.41 1137.63 A 6697.79 6697.79 0 0 1 1143.49 1107.13 z"/>
<path transform="translate(0,0)" fill="rgb(15,75,122)" d="M 684.527 353.392 C 688.027 352.682 692.092 352.824 695.681 352.603 C 696.298 361.763 697.114 371.025 698.843 380.046 C 701.352 393.132 705.486 407.399 717.331 415.023 C 729.096 422.595 752.42 427.507 766.061 424.407 C 785.492 419.992 799.647 389.289 809.406 373.316 C 826.919 382.137 844.403 391.368 860.966 401.876 C 855.75 412.874 850.544 423.877 846.368 435.321 C 841.908 447.543 838.317 458.567 844.375 471.002 C 850.928 484.453 865.387 499.362 879.707 504.209 C 898.841 510.684 926.05 493.806 942.997 485.84 C 952.316 504.136 961.344 523.175 968.957 542.242 A 242.932 242.932 0 0 0 966.449 543.408 C 949.329 551.479 917.789 564.109 911.445 583.101 C 907.998 593.421 911.009 620.89 916.176 630.744 C 925.287 648.122 962.175 655.118 980.272 660.662 C 975.289 680.355 972.591 700.427 967.898 720.161 C 948.773 716.524 929.919 713.955 910.393 714.125 A 65.8002 65.8002 0 0 0 902.088 720.171 C 890.619 730.122 875.878 751.761 875.071 767.014 C 874.108 785.203 900.545 807.499 912.348 820.339 C 895.439 833.387 879.673 849.888 864.382 864.818 C 854.034 853.878 843.648 842.823 832.283 832.921 C 825.79 827.264 819.036 822.152 809.978 822.923 C 799.224 823.839 772.124 836.286 765.319 844.804 C 755.227 857.438 761.439 889.394 762.757 905.195 A 463.887 463.887 0 0 1 713.773 915.881 L 701.727 918.039 C 697.299 902.302 693.191 864.409 680.338 855.573 C 670.802 849.017 642.396 844.733 630.834 847.59 C 613.109 851.969 598.034 884.001 588.674 899.158 C 570.267 889.354 550.99 880.674 533.373 869.482 C 539.635 858.675 545.685 847.669 550.754 836.243 C 555.081 826.491 558.636 816.246 554.301 805.79 C 550.081 795.611 528.231 769.668 518.22 765.692 C 503.85 759.984 470.408 778.118 456.685 784.473 C 448.267 764.849 438.183 746.088 430.444 726.116 C 436.776 722.215 443.832 719.112 450.436 715.666 C 460.911 710.201 476.398 701.997 479.721 689.825 C 482.641 679.133 478.274 647.923 472.44 638.378 C 462.834 622.66 429.352 617.327 412.16 613.326 C 414.827 592.011 419.535 571.52 425.136 550.812 C 436.12 552.932 447.013 555.511 458.002 557.607 C 468.102 559.532 478.454 560.85 487.315 554.478 C 498.506 546.431 513.361 517.052 515.277 503.258 C 518.247 481.877 491.733 461.692 479.719 446.335 C 496.163 432.865 511.536 417.18 527.077 402.626 C 541.381 416.864 559.918 443.406 581.704 443.695 C 595.331 443.876 617.336 434.114 626.753 424.361 C 641.17 409.428 633.449 379.295 632.714 360.329 A 1306.47 1306.47 0 0 1 684.527 353.392 z"/>
<path transform="translate(0,0)" fill="rgb(219,232,225)" d="M 683.551 447.418 C 683.896 447.367 684.238 447.298 684.584 447.264 C 731.03 442.712 781.668 463.357 816.732 492.716 C 852.909 523.007 876.671 569.514 880.479 616.523 C 884.707 668.73 868.313 717.579 834.2 757.375 C 801.334 795.715 754.953 816.014 705.246 819.635 C 656.795 822.439 610.338 806.12 573.317 775.199 C 535.292 743.439 511.935 695.158 507.666 646.079 C 503.52 598.411 517.704 551.983 548.824 515.399 C 584.268 473.731 629.403 451.975 683.551 447.418 z"/>
<path transform="translate(0,0)" fill="rgb(15,75,122)" d="M 694.889 483.425 C 730.026 482.907 767.538 497.264 793.375 521 C 825.479 550.494 842.642 585.208 844.414 628.807 C 845.908 665.588 833.117 704.073 808.028 731.241 C 777.376 764.432 740.111 780.677 695.379 782.373 C 657.782 781.924 622.068 768.69 593.916 743.439 C 565.633 718.07 545.967 680.026 544.105 641.908 C 542.228 603.464 555.228 563.734 581.335 535.175 C 612.601 500.974 648.965 485.583 694.889 483.425 z"/>
<path transform="translate(0,0)" fill="rgb(219,232,225)" d="M 691.04 498.414 C 723.705 497.561 758.397 509.186 782.833 531.1 C 810.05 555.508 827.299 588.65 829.13 625.303 C 831.009 662.904 820.029 694.894 794.514 722.779 C 768.334 751.393 736.198 765.475 697.691 767.076 C 663.694 767.707 631.788 756.791 605.828 734.648 A 137.934 137.934 0 0 1 558.713 641.52 A 129.907 129.907 0 0 1 590.503 546.484 C 617.296 515.918 650.834 501.151 691.04 498.414 z"/>
<path transform="translate(0,0)" fill="rgb(15,75,122)" d="M 690.647 560.413 C 708.799 559.49 725.695 564.618 739.804 576.114 C 755.85 589.189 765.444 607.965 767.334 628.524 A 72.1477 72.1477 0 0 1 750.61 681.381 C 736.582 698.087 718.818 705.703 697.442 707.605 C 696.888 707.655 696.334 707.715 695.779 707.755 C 678.332 709.017 659.253 702.027 646.046 690.779 A 74.1874 74.1874 0 0 1 620.71 640.476 C 619.078 620.246 625.062 600.338 638.371 584.911 C 651.71 569.449 670.596 561.958 690.647 560.413 z"/>
<path transform="translate(0,0)" fill="rgb(15,75,122)" d="M 1453.09 841.071 L 1453.99 841.205 C 1455.75 843.302 1455 846.83 1455 849.543 L 1455.14 1792.41 A 16078.5 16078.5 0 0 0 1223.89 1792.08 L 1222.02 1791.03 L 1222.93 911.769 C 1253.11 904.591 1283.17 894.152 1312.81 884.884 L 1453.09 841.071 z"/>
<path transform="translate(0,0)" fill="rgb(12,175,187)" d="M 1424.69 880.061 L 1426.03 880.112 C 1427.28 881.828 1427.11 883.196 1427.15 885.258 C 1427.61 906.603 1426.95 928.131 1426.92 949.493 L 1426.86 1089.7 C 1427.29 1314.39 1424.99 1539.22 1427.49 1763.88 C 1369.05 1764.47 1310.54 1763.92 1252.09 1763.89 L 1250.97 1763.17 C 1248.19 1756.74 1250.73 1511.79 1250.79 1479.73 L 1250.72 934.276 C 1273.32 925.914 1296.52 919.343 1319.5 912.139 C 1354.5 901.166 1389.38 889.999 1424.69 880.061 z"/>
<path transform="translate(0,0)" fill="rgb(15,75,122)" d="M 1735.67 712.173 L 1736.48 712.956 C 1738 720.824 1736.86 730.273 1736.84 738.316 L 1736.89 788.488 L 1737.19 982.765 L 1737.6 1502.5 A 22873.6 22873.6 0 0 0 1738.23 1792.19 A 13305.4 13305.4 0 0 0 1503.13 1792.66 L 1501.79 1792.32 C 1500.77 1790.83 1500.63 1790.08 1500.53 1788.26 C 1498.38 1749.59 1500.06 1709.87 1500.08 1671.12 L 1500.22 1446.18 L 1500.24 779.672 C 1578.56 756.53 1657.88 737.115 1735.67 712.173 z"/>
<path transform="translate(0,0)" fill="rgb(219,232,225)" d="M 1707.88 749.113 L 1708.74 749.881 C 1710.16 758.943 1709.13 768.996 1709.07 778.215 L 1708.99 830.068 L 1709.02 1023.49 L 1709.11 1479.77 A 21215.6 21215.6 0 0 0 1709.82 1764.04 C 1674.73 1763.66 1639.6 1763.95 1604.5 1763.95 C 1579.75 1763.95 1554.84 1763.29 1530.12 1764.43 C 1527.82 1756.8 1529.59 1707.62 1529.64 1695.29 L 1530.53 1486.97 L 1530.4 800.61 C 1545.18 794.943 1561.23 791.286 1576.49 786.993 A 4532.46 4532.46 0 0 1 1637.53 769.68 C 1660.95 763.312 1685.04 757.342 1707.88 749.113 z"/>
</svg>