<svg xmlns="http://www.w3.org/2000/svg" display="block" viewBox="0 0 2048 2048"><defs><linearGradient id="a" x1="926.335" x2="1131.87" y1="1916.03" y2="-93.596" gradientUnits="userSpaceOnUse"><stop class="stop0" offset="0" stop-color="#58366a"/><stop class="stop1" offset="1" stop-color="#635568"/></linearGradient></defs><path fill="url(#a)" d="M0 0h2048v2048H0z"/><path fill="#8e72b7" d="M1671.72 1886.78c4.69 3.93 9.56 8.39 12.93 13.5-3.74.21-7.53.11-11.28.14-.25-4.58-1-9.11-1.65-13.64"/><path fill="#c4f1e2" d="M1777.56 848.711c3.09 3.493 3.7 9.913 3.72 14.456l-1.14.809-1.64-1.343-8.76-6.889c2.54-2.409 5.2-4.703 7.82-7.033"/><path fill="#8e72b7" d="M1320.13 1878.82c3.31.19 7.33.26 10.03 2.44 3.63 2.93 3.64 8.47 4.13 12.75-2.87.1-5.41.31-8.17-.66-3.76-3.46-4.5-9.7-5.99-14.53m-13.66 1.26c2.46-.08 4.59.04 7.02.45 2 1.49 4.02 3.21 4.9 5.63.94 2.55 1.21 4.42.31 6.92l-1.69.51c-4.27.07-8.98.82-12.54-1.9-1.32-4.29.26-7.6 2-11.61m-69.68-2.94c2.06-.14 4.39-.56 6.3.36 1.17.56 2.16 2.81 2.53 4.07.91 3.03.43 6.89-1.17 9.64-.82 1.41-1.91 1.15-3.4 1.45a132 132 0 0 1-2.61.07c-2.66.04-5.04.34-6.75-2.08-1.58-2.22-1.61-4.13-.97-6.67.83-3.31 3.33-5.16 6.07-6.84"/><path fill="#c4f1e2" d="M847.384 395.806c.374.005.749-.009 1.122.015 3.171.201 5.923 1.3 7.902 3.902 1.583 2.081 1.861 4.726 1.203 7.209-.822 3.097-3.029 4.682-5.463 6.443-3.379-.223-7.195-1.066-9.419-3.885-1.387-1.759-1.602-3.517-1.371-5.648.416-3.84 3.21-5.829 6.026-8.036m172.166-195.879c3.22-.058 6.48.275 9.06 2.434 1.88 1.579 2.92 3.844 2.71 6.309-.34 4.046-2.94 5.949-5.91 8.164-3.52.046-6.78-.463-9.39-3.022-1.82-1.778-2.28-4.286-1.92-6.727.51-3.37 3-5.155 5.45-7.158"/><path fill="#8e72b7" d="M1258.16 1871.67c5.87 2.59 10.08 13.79 12.34 19.63l-.81 1.67-14.65-.09c-.29-7.43-2.03-15.32 3.12-21.21"/><path fill="#c4f1e2" d="M518.68 355.851c3.568.374 7.947 1.167 10.169 4.311 1.514 2.143 1.811 4.22 1.167 6.749-.768 3.013-3.392 4.806-5.725 6.564-3.54-.199-6.44-.393-9.159-3.039-1.823-1.775-2.884-4.012-2.596-6.591.448-4.007 3.111-5.908 6.144-7.994m204.259 292.082c2.375.471 5.371.953 7.161 2.711 1.957 1.922 3.055 3.938 2.918 6.752-.217 4.469-2.744 6.957-5.928 9.726-3.169-.647-6.678-1.564-8.929-4.082-1.695-1.896-2.824-3.99-2.406-6.623.655-4.121 4.008-6.35 7.184-8.484m688.011-374.098c3.19-.317 6.35-.409 9.15 1.469 2.12 1.424 3.54 3.648 3.73 6.214.31 4.135-1.77 6.739-4.33 9.619-3.87.166-8.7.093-11.41-3.226-1.6-1.964-2.02-3.261-2.04-5.753-.02-3.739 2.44-5.909 4.9-8.323M483.006 144.726c3.694.694 7.033 1.26 9.244 4.705 1.364 2.126 1.618 4.465.803 6.85-1.433 4.191-4.476 5.51-8.237 7.108-2.832-.659-5.678-1.627-7.62-3.925-1.571-1.858-2.285-4.238-1.751-6.641.919-4.136 4.232-6.06 7.561-8.097M1559.03 326.931c3.16.034 6.24.507 8.69 2.635 2.06 1.782 3.11 4.002 2.97 6.768-.21 4.339-2.63 6.372-5.73 8.879-3.67.153-6.96.284-9.87-2.432-1.92-1.793-2.62-4.125-2.36-6.702.46-4.442 3.13-6.492 6.3-9.148M145.961 274.784c3.914.863 7.111 1.614 9.254 5.42 1.237 2.196 1.592 4.593.808 7.012-1.293 3.989-3.976 5.341-7.536 6.83-3.475-.849-7.683-2.304-9.513-5.678-.828-1.528-1.126-3.162-.774-4.842.953-4.548 4.132-6.374 7.761-8.742m1771.949 6.093c3.61-.178 7.49-.195 10.36 2.388 1.93 1.738 3.21 3.606 3.14 6.311-.12 4.226-2.8 6.664-5.88 9.1-3.02.158-6.85-.163-9.31-2.166-2-1.629-3.33-3.481-3.44-6.146-.19-4.302 2.26-6.765 5.13-9.487m-482.99 386.109c3.17.473 6.13 1.047 8.42 3.547 1.76 1.925 2.6 4.336 2.29 6.937-.5 4.376-3.07 6.568-6.39 9.073-3.88-.214-7.06-.615-9.69-3.896-1.62-2.03-2.11-4.493-1.63-7.022.84-4.385 3.57-6.281 7-8.639"/><path fill="#8e72b7" d="M1076.89 1875.83c.4.02.81.03 1.2.08 4.11.5 9.93 4.6 11.93 8.24 1.32 2.41.92 3.02.17 5.47-3.36 1.81-5.91 1.27-9.68 1.22l-16.66-.13c.49-2.13.94-4.35 1.82-6.35 2.21-5.06 6.46-6.47 11.22-8.53"/><path fill="#c4f1e2" d="m1216.32 1586.07.48-.2c-.6 28.57 3.35 57.4 3.17 86.02l-1.24 1.03-2.35-.53c-3.96-5.53-1.68-75.04-.06-86.32M183.063 469.612c2.73 7.897 1.739 39.1 1.552 49.397-1.855 2.669-4.459 3.525-7.295 4.975l-1.02-1.082c-1.783-16.263 1.467-37.727 6.763-53.29"/><path fill="#8e72b7" d="M1457.14 1886.14c8.57-.34 24.67-3.35 31.72 1.78 2.58 1.88 2.74 6.21 3.23 9.14-11.24.02-22.94.72-34.11-.56-1.34-3.15-.87-6.95-.84-10.36m-361.79-14.74c5-.06 12.61-1.12 17.06 1.33 2.98 1.66 5.87 4.75 6.66 8.13.84 3.62.88 6.69-1.17 9.83l-2.65.43-12.3.02c-1.46-4.17-3.15-12.19-6.68-14.93-2.81-2.17-4.12-1.09-5.58-4.8l-.14.77z"/><path fill="#c4f1e2" d="m1415.85 1272.23 2.16-.21 1.29 1.76-.65 1.99c-4.95 2.44-10.33 3.11-15.53 4.83-23.27 7.7-47.03 13.9-70.71 20.21-2.4-.98-1.46-.2-2.87-2.3.21-1.24.36-2.77 1.05-3.85 1-1.57 2.97-2.72 4.69-3.32 7.86-2.75 17.2-3.97 25.4-5.88a4882 4882 0 0 0 55.17-13.23m142.74 601.15c17.06-1.44 34.72-.44 51.6 2.18 6.5 1.01 17.69 3.64 21.67 9.11l-.88 1.55c-21.55-.21-44.22.63-65.52-2.65-2.9-2.59-6.23-5.04-7.92-8.62zM782.113 1549.1l1.307.9c1.201 5.95 1.502 86.67.449 89.88-.808 2.45-4.342 2.85-6.564 3.63l-.655-1.33-.067 1.01c-2.579-3.25-2.055-81.37-1.604-91.17 1.885-2.22 4.365-2.22 7.134-2.92m103.537-44.98c1.254-.19.39-.13 2.574.37 1.328 3.17.759 7.45.689 10.88-37.286 6.57-74.74 14.96-111.647 23.42-1.569.21-.619.23-2.777-.64l.373-1.59c6.718-6.46 96.318-28.63 110.788-32.44"/><path fill="#563969" d="m1342.85 1662.42 3.17-2.6a3870 3870 0 0 1 2.27 45.19c11.96 2.4 23.24 5.31 34.58 9.86.09 7.62.57 15.42.26 23.03-3.4 5.34-1.74 11.57-4.88 16.9l-.1 6.83c.79 7.38 3.15 36.67.79 42.25l1.23.97c-2.04.45-3.74.5-5.82.42l-1.32-1.65c.26-9.51-1.77-19.36-2.32-28.93-.87-15.15-.49-30.05-.43-45.2.02-3.69-.16-6.83 2.65-9.63 1.93-.71 2.87-.69 4.8-.16 1.52.42 1.88.56 3.52.42l-1.05-2.87-.33 3.03.77-2.18c-4.64-7.38-23.72-8.56-31.95-11.63-5.64-6.82-2.16-33.34-5.84-44.05"/><path fill="#c4f1e2" d="M1374.16 1776.67c-.33-10.83-.5-21.69-1.1-32.51-.31-5.58-1.38-11.52-1-17.08.18-2.55.49-3.36 1.98-5.31l2.24.41c2.62 5.4 1.68 25.38 1.97 32.62l-.1 6.83c.79 7.38 3.15 36.67.79 42.25l-2.73-.41c-3.6-4.97-2.09-20.3-2.05-26.8m402.88 95.12c10.05 3.62 74.36 28.51 78.9 33.49.74.81 1.17 1.85 1.76 2.78-26.23-1.21-52.39-4.65-78.63-5.26-1.12-10.28-1.46-20.69-2.03-31.01M423.743 1099.6a481 481 0 0 0 24.15 8.92 2461 2461 0 0 0 .457 56.09c-7.907-3.26-16.279-5.76-24.367-8.56-.648-18.8-.311-37.65-.24-56.45M270.549 385.159c2.566-.145 4.625.009 7.133.428 1.292 10.516 1.927 107.77-.325 116.136l-1.74.361-9.473-3.694c.009-16.64-2.148-102.478.696-111.509zM884.924 1527.32l2.479.03c2.243 4.52 1.005 80.95 1.074 93.05l-13.241 2.28c-1.063-.23-.326-.01-1.994-1.16a4000 4000 0 0 1-1.239-91.85zm831.566-697.511c21.73 16.242 44.6 30.864 66.32 47.09l2.18 22.493c-21.76-15.57-44.32-29.856-67.04-43.972-.85-8.483-1.03-17.094-1.46-25.611M211.68 421.719l.739.718c2.271 7.207.572 71.084.558 83.961l-19.651 9.531c-.603-18.326-4.33-51.974 1.546-68.35 3.574-9.958 10.045-17.898 16.808-25.86m1506.86 442.444c22.63 14.422 45.33 29.191 67.11 44.869l2.39 24.464c-8.38-4.036-16.66-10.417-24.56-15.447a2985 2985 0 0 0-43.32-26.992 1967 1967 0 0 1-1.62-26.894M238.635 398.759c1.57 10.048.355 21.869.317 32.14l-.024 63.385-17.526 8.294c-1.011-10.784-.442-21.901-.428-32.737l.091-57.659c5.724-4.616 11.72-8.963 17.57-13.423M893.909 1477.34c.039.04.085.07.117.11 2.053 2.8 1.101 9.81 1.075 13.29-40.041 9.26-80.165 18.45-119.6 30.07-.305-4.95-.823-9.8-1.459-14.71a3986 3986 0 0 1 119.867-28.76M1720.9 900.368c21.15 11.135 46.98 29.706 67.84 43.058a1300 1300 0 0 1 2.43 25.788c-22.24-11.474-45.37-29.683-68.42-42.377a729 729 0 0 1-1.85-26.469m5.02 70.066c8.18 4.647 15.97 10.497 23.96 15.538 15.02 9.478 30.46 18.528 44.89 28.888.56 8.55 1.65 17.11 2.38 25.66a1619 1619 0 0 0-70.06-43.888zM857.19 1309.2l1.584.26c1.639 3.16.917 7.65.81 11.14-44.689 11.33-89.173 23.39-133.996 34.21l-1.517-.22c-1.73-2.58-1.088-7.36-1.068-10.47 44.033-13.58 89.353-24.28 134.187-34.92m865.76-373.878c8.97 3.765 17.93 10.961 26.12 16.241l43.3 27.495a2002 2002 0 0 1 1.78 26.092c-23.31-13.622-45.05-30.149-68.83-42.996-.5-8.951-1.53-17.906-2.37-26.832M971.015 1812.02c17.594 4.57 35.475 8.18 53.225 12.08-9.27 6.61-17.52 13.42-24.859 22.17-2.918 5.69-1.228 15.37-.917 21.61a1186 1186 0 0 0-27.398-1.05zm758.995-769.55c24.31 13.61 47.79 29.17 71.42 43.93.77 9.33 1.5 18.66 2.75 27.95-22.66-16.81-47.61-32.89-72.8-45.63-.2-8.79-.36-17.51-1.37-26.25m-2.28-36.02c24.09 13.54 47.52 28.74 70.59 43.96a980 980 0 0 1 1.87 25.55c-23.52-14.78-47.36-28.9-71.04-43.39-.75-8.7-1.11-17.39-1.42-26.12m-870.082 325.7 1.625.27c1.548 3.74.787 9.12.719 13.15-17.726 2.73-35.49 8.46-52.855 12.94l-80.287 20.29c-.749.09-1.734-.14-2.49-.24-1.62-3.35-.913-8.24-.852-11.91zM383.065 441.557c.35.274.728.518 1.051.824 2.961 2.806 5.475 8.292 7.39 11.937 15.433 29.364 13.622 62.265 13.42 94.327-7.302-1.527-14.714-2.683-22.061-3.993.296-34.364-.37-68.731.2-103.095M1725.14 553.768c20.54 10.841 51.2 31.494 69.58 45.813.2 6.394 3.08 20.208.46 25.393-13.58-8.808-27.35-17.37-40.79-26.379-4.69-3.143-10.93-9.075-16.04-10.986-2.23-.834-5.52-.728-7.92-.814-2.06-.074-1.07.246-2.84-.911-2.47-9.877-2.45-21.953-2.45-32.116m10.77 595.922c20.66 9.82 58.65 35 76.68 48.99 1.52 7.97 2.25 16.07 3.1 24.13-7.19-2.45-15.04-8.68-21.56-12.83-18.5-11.77-37.19-25.26-56.89-34.9-.78-8.48-1.12-16.89-1.33-25.39m-3.5-71.36c22.27 10.42 52.17 31.12 72.57 46.03 1.7 8.85 2.26 18.12 3.24 27.09-24.36-15.98-48.89-33.86-75.11-46.66-.12-8.82-.47-17.64-.7-26.46m1.53 35.88c8.82 3.65 17.63 9.81 25.75 14.85a2527 2527 0 0 1 49.85 31.96l2.57 27.65c-6.21-2.76-12.41-8.12-18.04-12-17.96-12.4-38.3-28.36-58.9-35.69zm-809.769 414.16a1962 1962 0 0 0 24.885 4.3c-.018 14.26 1.936 65.82-.295 75.66l-1.936.58c-7.256 1.05-14.394 2.6-21.563 4.12-1.116-28.12-.596-56.5-1.091-84.66m813.249-343.6c27.2 14.8 53.65 31.99 79.38 49.17l2.34 23.68c-10.16-4.8-19.97-11.36-29.68-17.09a4539 4539 0 0 1-50.37-29.92zm27.52 474.56c27.36 11.13 53.96 24.84 80.62 37.56a581 581 0 0 1 1.56 25.95c-8.64-3.34-17.22-8.43-25.56-12.57-18.3-9.09-36.68-18.29-55.4-26.46a791 791 0 0 1-1.22-24.48M1739 1220.42c10.23 4.9 20.18 11.36 29.95 17.15l51.52 30.69 1.48 24.98c-9.8-5-19.29-11.38-28.84-16.91-17.24-9.98-34.67-19.67-52.04-29.42-.98-8.81-1.48-17.65-2.07-26.49M760.01 1381.3c.039.04.088.06.118.1 2.586 3.61 1.756 54.73 1.798 63.38-9.038-3.54-18.485-6.3-27.704-9.34l-11.032-3.24-.186-41.91zm983.01-87.99c10.55 3.72 21.29 11.26 30.97 16.84 17.05 9.83 34.51 19.32 50.91 30.21a1786 1786 0 0 1 1.38 24.76c-24.74-17.45-54.37-30.33-81.21-44.29-.25-9.2-1.14-18.36-2.05-27.52m31.86 541.78c27.09 11.78 53.19 26.58 80.77 37.08a521 521 0 0 1 1.5 26.29c-25.48-13.37-52.98-25.26-80.13-34.8a744 744 0 0 1-2.14-28.57m-26.86-468.47c27.5 12.84 53.75 28.26 81.03 41.57.85 8.8 1.18 17.69 1.72 26.51-8.19-3.23-16.34-8.49-24.16-12.66-18.89-10.08-37.76-20.47-57.41-29.04a585 585 0 0 1-1.18-26.38m8.34 145.23c27.34 11.46 54.59 24.98 80.58 39.25a523 523 0 0 1 1.16 25.49c-25.86-14.08-53-25.72-79.93-37.57-1.03-8.99-1.29-18.14-1.81-27.17m10.56 181.25c25.84 9.73 55.58 26.16 80.9 38.49 1.15 8.95 1.22 18.09 1.58 27.11-26.31-14.79-54.26-26.94-81.21-40.56a534 534 0 0 1-1.27-25.04m-679.97-274.3a564 564 0 0 1 22.92 6.86 6510 6510 0 0 1-.1 89.78c-7.55-1.49-15.14-3.94-22.61-5.91z"/><path fill="#54286a" d="M1342.85 1662.42c.18-.59.37-1.17.53-1.77 2.1-7.81-1.4-55.99-1.99-67.62l-7.6-177.02c-.73-14.19-2.01-28.36-2.54-42.56-.42-11.24-.04-22.54-.57-33.76-.42-8.99-2.43-19.11-1.54-28 5.12-2.95 11.84-4.6 17.66-5.42 7.3-1.04 23.88-10.42 30.12-6.61-.5 40.88 2.37 81.41 3.97 122.26a25992 25992 0 0 1 12.83 320.51c.46 15.83 2.79 31.64 3.04 47.41.06 3.81.82 12.82-1.76 15.67-4.54.11-10.79-2.11-14.83-.66l-1.23-.97c2.36-5.58 0-34.87-.79-42.25l.1-6.83c3.14-5.33 1.48-11.56 4.88-16.9 3.29 17.51-1.07 46.02 3.29 60.69.83 2.8 1.85 4.94 4.58 6.29l1.77-1.51c3.62-11.44-1.45-79.79-2.04-96.48l-17.28-406.73a1186 1186 0 0 1-42.53 11.91c.58 31.85 2.78 63.9 4.12 95.74l10.98 252.01z"/><path fill="#c4f1e2" d="M1771 1763.37c27.31 11.86 54.04 25.95 80.91 38.84.83 8.94 1 17.87 1.21 26.84-26.87-13.62-54.38-26.02-80.91-40.31a474 474 0 0 1-1.21-25.37m-17.13-288.22c27.13 12 55.54 25.79 81.02 40.94a1317 1317 0 0 0 1.49 26.57c-26.29-14.82-54.07-26.81-80.43-41.47-.86-8.65-1.28-17.37-2.08-26.04m-1.66-35.84c27.33 12.96 54.03 27.3 80.75 41.46.94 8.97 1.73 17.86 2.08 26.88-26.62-15.1-54.36-27.8-81.58-41.7a815 815 0 0 0-1.25-26.64m16.83 288.28c27.33 11.98 53.38 27.09 80.92 38.55.66 9.11.89 18.21 1.13 27.33-26.39-14.38-54.3-26.01-80.9-40.03-.29-8.62-.96-17.21-1.15-25.85m-23.46-397.64c22.94 9.57 60.57 31.41 81.59 45.04.86 8.19 1.27 16.46 1.87 24.68-8.39-3.65-16.57-8.63-24.68-12.91-18.86-9.97-37.71-20.21-57.21-28.9a963 963 0 0 1-1.57-27.91"/><path fill="#8e72b7" d="M896.862 1499.68c5.647.47 11.42 1.84 17.006 2.85 1.082 10.7 3.717 108.85.866 113.36l-17.701 3.5z"/><path fill="#c4f1e2" d="M1763.06 1622.59c24.22 9.63 56.74 26.04 79.8 38.65.26 8.84 1.43 17.76 2.24 26.56-10.99-4.22-21.73-10.29-32.34-15.43a662 662 0 0 0-48.6-21.64c-.65-9.41-1.05-18.71-1.1-28.14m9.88 175.95c26.49 13.3 53.58 25.59 80.4 38.24l1.68 28.04c-9.57-3.99-18.88-9.37-28.22-13.95a1998 1998 0 0 0-52.28-24.74c-.71-9.21-1.35-18.36-1.58-27.59m-31.85-542.29c9.52 3.64 19.08 10.24 27.96 15.33l53.86 30.76 2.1 28.18c-26.43-17.13-54.9-31.86-82.41-47.23zm17.23 292.14c21.94 7.41 60.3 26.05 80.48 37.81l.73 26.55-79.84-36.98zm2.18 36.57c9.81 3.42 19.32 9.12 28.74 13.61 17.11 8.14 34.47 15.78 51.33 24.44a688 688 0 0 0 1.39 28.67c-25.84-13.06-52.78-27.24-79.78-37.65-.36-9.69-1.1-19.39-1.68-29.07m-10.53-183.25c27.54 12.54 54.21 27.41 80.94 41.57.36 9.65 1.4 19.33 2.15 28.96-26.07-15.55-54.3-28.42-81.49-41.93zm-801.85 217.7c2.174 3.36 1.058 11.42 1.026 15.5-17.654-.34-37.077 5.87-54.432 9.34-39.141 7.81-78.269 16.25-117.55 23.31-2.097-2.96-1.24-9.54-1.253-13.16 22.043-5.51 44.754-9.48 67.028-13.98zm52.76-74.9 32.6 8.53c.76 25.12.37 50.36.48 75.49a1106 1106 0 0 0-32.92-8.17zm172.09 41.61a600 600 0 0 0 32.59 7.7c-.67 25.34.06 50.86.2 76.22l-32.74-7.74a5234 5234 0 0 1-.05-76.18m535.5-1074.356c10.08 3.676 40.7 25.087 51.37 31.943l1.05 19.659c-7.66-5.171-37.04-25.376-43.37-26.736l-4.66 3.127c-17.29 9.578-35.53 17.683-53.36 26.186-.47-9.015-1.04-17.896-2.23-26.853 16.43-9.862 34.39-17.955 51.2-27.326"/><path fill="#8e72b7" d="M1482.54 1834.85c5.77 1.19 12.1 4.53 17.42 7.1 10.64 5.13 21.44 11.35 30.45 19.05 11.41 9.76 21.41 24.51 35.66 30.21 7.44 2.97 68.79 5.24 74.09 2.12 2.45-1.45 2.64-2.36 3.25-4.9-.62-2.92-1.78-5.01-3.75-7.23-11.89-13.38-37.46-15.13-54.16-15.55l.66-.62c7.07-2.09 18.96.06 26.6.63 18.85 1.68 35.4 6.53 51.97 15.68.08 6.34.71 12.53 1.42 18.82a7097 7097 0 0 1-123.94-1.06c-18.23-22.79-37.82-44.86-59.67-64.25"/><path fill="#c4f1e2" d="M867.802 1308.89c25.078 7.94 252.198 79.51 255.828 82.63 2.05 1.77 1.8 4.49 2.17 7.03-31.51-9.8-63.41-18.35-95-27.92-54.267-16.43-108.387-33.66-162.916-49.2zm431.968 449.14a1359 1359 0 0 1 49.1 10.64c.03 12.74.66 25.51 1.11 38.25l-12.2 2.99c-13.05 3.86-25.01 8.85-37.19 14.82-.8-22.21-.68-44.47-.82-66.7m-341.757-223.56a1198 1198 0 0 0 34.069 8.18c.311 25.18.074 50.38.097 75.56a1415 1415 0 0 0-33.988-8.29z"/><path fill="#8e72b7" d="M857.998 1355.76c7.339.54 14.428 2 21.633 3.45a4264 4264 0 0 0 .887 72.55c.218 11.14 2.336 27.45.1 37.94l-1.819.95-20.415 5.22z"/><path fill="#c4f1e2" d="M1698.33 377.72c3.76 5.345 26.36 116.1 30.24 133.471-5.39-4.097-11.21-7.61-16.93-11.238-.58-.355-1.47-.94-2.1-1.135-4.01-1.233-16.73 10.961-21.19 13.593l-1.34.782c4.41-45.096 6.52-90.415 11.32-135.473m-585.08 139.467c6.07-.347 11.57-.405 17.39 1.739 7.29 2.686 13.21 8.003 16.29 15.183a29.47 29.47 0 0 1 .18 22.396c-3.8 9.301-10.64 13.495-19.39 17.236-5.48.423-10.48.771-15.84-.882-7.56-2.332-13.79-7.365-17.24-14.534a29.18 29.18 0 0 1-1.09-22.288c3.49-9.827 10.63-14.808 19.7-18.85m-71.18 1038.003c11.42 3.03 22.8 6.2 34.4 8.45a4029 4029 0 0 1 .54 75.45c-11.34-3.3-23.18-5.41-34.62-8.5zm7.89-146.65c9.32 2.98 18.82 5.52 28.21 8.26a3949 3949 0 0 1 .37 90.66c-9.47-1.26-19.15-4.58-28.4-7.02-.45-30.62-.13-61.28-.18-91.9m691.95-805.668c10.48 6.055 20.41 13.566 30.55 20.22l57.49 36.944c2.49 62.418 8.75 124.645 11.38 187.006l-9.3-5.74c-2.65-57.042-4.76-114.02-8.29-171.024-27.29-15.278-52.92-33.927-80.98-47.806-.55-6.5-.62-13.078-.85-19.6m-613.15 972.558a752 752 0 0 0 35.3 8.35 7560 7560 0 0 0 .65 76.51 3252 3252 0 0 0-35.59-8.82zm-43.15-10.11 34.98 8.48c-.15 25.29.22 50.6.36 75.9-11.88-2.96-23.72-6.01-35.74-8.31l-.15-47.62c-.02-9.35-.61-19.17.55-28.45m-157.308 82.97.88.69c1.389 5.43.587 12.66.539 18.34-50.635 9.32-101.517 17.61-151.864 28.4l-1.089-.26c-1.886-4.43-.83-11.9-.79-16.77 50.809-8.71 101.998-19.3 152.324-30.4M805.086 1370.3c2.209 2.61.928 77.64.951 86.25-9.137-2.93-18.537-5.17-27.813-7.62-2.087-.39-4.352-.59-6.069-1.93-1.814-1.42-2.046-59.49-2.194-68.18 11.769-2.54 23.44-5.62 35.125-8.52m908.534-819.323c2.92 11.067 1.76 24.965 3.26 36.568a3126 3126 0 0 0-79.25 32.369l-.32-.118c-2.36-3.272-2.21-24.584-2.49-30.018 24.77-14.724 52.8-26.245 78.8-38.801M1153.67 1724.92c12.88 3.65 26.21 6.37 39.24 9.52l-.11 75.29c-12.62-5.15-25.31-8.14-38.57-11.06zm-293.979-192.74h2.7c2.296 5.7 1.399 81.9 1.491 93.19-9.241 1.34-18.465 3.55-27.623 5.4l-2.671-.05c-2.589-3.44-1.455-81.35-1.484-92.31zM286.844 383.866c7.831.818 15.394 1.824 23.075 3.574l.02 131.001c-7.566-4.031-15.264-7.741-22.995-11.438zM822.639 1540.36l-.018.8.885-.28c1.24 10.36.523 21.48.544 31.94l.088 60.41a714 714 0 0 0-30.917 6.38c-1.698-10.39-.855-22.13-.918-32.72l-.292-59.99a1994 1994 0 0 1 30.628-6.54m186.941-143.03 32.44 9.25a6850 6850 0 0 0 .19 91.72 3290 3290 0 0 1-31.98-8.08 7179 7179 0 0 0-.65-92.89m-120.705-35.2a1145 1145 0 0 0 30.089 8.64l.638 98.06c-10.414-2.68-18.56-5.04-29.353-2.38zM1106 1713.59l38.97 9.56a6778 6778 0 0 1 .37 73.88c-12.83-1.56-25.77-2.04-38.67-2.74a7092 7092 0 0 1-.67-80.7m-136.995-328.42 31.965 9.47.7 93.81c-10.671-2-21.442-5.35-31.984-8.04-1.177-31.68-.625-63.53-.681-95.24M263.3 1063.94c9.245 3.15 18.307 7.05 27.388 10.65l.092 100.93-7.026 2.93-20.147 7.9c-1.04-40.71-.058-81.68-.307-122.41m54.981-673.569c7.874 2.911 15.411 6.652 22.994 10.238a10084 10084 0 0 1-.63 138.575c-7.275-1.91-15.387-8.962-21.664-13.245zm105.686 335.871 24.439 9.724-.458 125.379-24.804-10.317a8045 8045 0 0 1 .823-124.786m504.705 647.048c10.499 2.7 20.878 6.11 31.261 9.24a8050 8050 0 0 0 .913 96.01l-32.997-8.26c-.204-19.14.15-38.33.255-57.48.072-13.08-.435-26.47.568-39.51M349.614 406.82c9.205 6.092 17.152 12.853 24.914 20.696-1.941 38.227-.361 77.357-.443 115.697a1679 1679 0 0 0-24.705-2.925c-.704-44.25-1.016-89.246.234-133.468m43.944 261.439c28.698 8.704 57.457 20.054 85.148 31.534.363 12.909.236 25.866.318 38.781a1870 1870 0 0 1-85.079-35.437 2563 2563 0 0 1-.387-34.878m530.048 848.831-.265-12.77c98.009 23.08 195.569 48.04 293.739 70.48-.08 3.67 0 7.41-.28 11.07l-.48.2c-48.14-13.48-97.61-23.51-146.23-35.16-48.65-11.66-97.188-25.18-146.484-33.82m-783.018 256.08 2.372.43c2.969 8.22.949 34.45.92 44.22-21.434 7.17-56.293 1.2-79.635-.41-2.06-.09-6.416.15-7.735-1.67-3.803-5.27-1.301-17.8-1.013-24.12 27.972-7.24 56.879-11.97 85.091-18.45m1060.942-36.87 40.14 9.3.58 87.69c-13.16-7.45-26.8-13.89-40.53-20.19-1.01-25.52-.5-51.26-.19-76.8m-399.007-36.02 1.286-.05c.391.4.931.69 1.174 1.19 1.214 2.52 1.244 109.82 1.384 121.11l-26.084 2.95-.903.13-1.286-1.04c-.565-11.04-.151-22.21-.319-33.27a5860 5860 0 0 1-.863-86.51c8.559-1.34 17.083-2.98 25.611-4.51m257.297 2.3a872 872 0 0 0 37.99 9.37l.27 49.55c.1 10.46.87 21.27-.35 31.67-2.37 1.87-4.8 1.77-7.73 2.24-10.21 1.61-19.99 4.71-29.72 8.09-.78-33.59-.39-67.32-.46-100.92M769.9 919.766l75.866.128.112 19.736c-8.958.15-17.939-.082-26.899-.176l-.074 60.786-.165 27.79h-22.778l-.024-88.039-25.938.091zM927.347 1678.3l.827.01c.376.37.918.64 1.128 1.13.916 2.13.311 112.25.343 125.55l-27.331 4.22c-2.443-3.57-2.644-111.49-2.98-125.67zm322.623 68.39c13.84 3.73 27.87 6.82 41.83 10.08l.9 71.69-10.26 8.33c-5.1 4.1-9.96 8.49-14.87 12.82l-16.57-10.72z"/><path fill="#c4f1e2" d="m868.852 1332 169.868 51.15c28.9 8.74 58.56 15.91 86.78 26.69l2.34 110.76c-3.03-.78-6.16-1.2-8.53-3.39-1.2-12.24-.17-25.06.07-37.38a1240 1240 0 0 0-.03-61.68c-35.73-11.46-72.04-20.71-108.04-31.26-47.464-13.9-94.577-28.84-142.603-40.75zm-635.666 421.26 1.079.09c2.796 3.76 1.647 39.5 1.711 46.7-26.594 5.12-53.41 9.71-79.764 15.95l-2.323-.12c-3.113-8.1-1.073-35.68-1.016-45.38 26.814-4.22 53.646-11.79 80.313-17.24m671.66-276.95c42.236 7.91 83.901 20 125.584 30.44l108.65 27.99c25.82 6.55 51.74 12.38 77.44 19.44l-.08 10.47c-5.98-.27-13.49-2.97-19.41-4.4l-56.39-13.99a12145 12145 0 0 1-136.26-33.19c-32.917-8.08-66.035-17.24-99.5-22.69zm-57.872-117.16.835.27c2.375 3.55 1.177 104.02 1.197 117.44a1070 1070 0 0 1-32.113 6.83c-1.123-.16-.441.04-1.814-1.13l-.215-114.56zM597.025 920.082c20.724-.29 41.478-.158 62.205-.226l.044 20.425-39.531.13.035 22.681a1461 1461 0 0 1 36.347-.976c.183 5.167 1.708 16.404-1.211 20.64l-2.664.366-33.182-.204-.093 44.962-21.97-.02zm372.788 760.328c11.25 3.7 22.771 6.44 34.247 9.33l.66 120.46-33.711-7.8zm-126.925 12.95c1.705-.31 2.819-.33 4.52-.23 2.704 6.05 1.596 107.74 1.668 123.23-10.062 1.12-20.058 2.33-30.06 3.93-1.129-.04-2.232-.4-3.33-.66-2.123-5.77-1.132-108.47-1.27-121.24 9.446-1.86 18.988-3.37 28.472-5.03m-514.322 39.83 3.456-.49c2.501 2.74 1.512 40.3 1.525 46.78a2124 2124 0 0 0-84.325 17.7c-1.808.53-2.781.54-4.628.18-2.37-14.37-.616-31.49-.615-46.17 27.963-6.72 56.459-11.9 84.587-18m560.118-47.91c1.522 0 .711-.21 2.236 1.15l1.688 124.02-31.371 4-2.24-.03c-2.355-6.24-1.755-110.26-1.933-123.44a2458 2458 0 0 0 31.62-5.7m124.336 6.47c12.43 3.87 25.62 6.29 38.37 8.9 1.09 21.59.25 43.54.44 65.18.1 10.82 1.93 29.68-.02 39.64-.48 2.46-3.78 3.2-5.78 4.13-4.5 2.3-8.83 4.94-13.2 7.49-6.28-2.53-12.86-4.12-19.4-5.85-1.34-39.71-.36-79.75-.41-119.49"/><path fill="#8e72b7" d="M938.694 1645.17c7.22.41 14.203.99 21.321 2.3a16239 16239 0 0 1 2.17 219.21c-7.378-.4-14.794-.49-22.181-.7.534-73.57-2.158-147.23-1.31-220.81"/><path fill="#c4f1e2" d="M87.83 959.924c2.62 11.031 1.091 70.186 1.106 85.026l.16 214.13-15.944 6.84c-2.56-5.69-.483-266.531-.447-297.108zm966.99-39.861 63-.125v20.382c-13.35-.2-26.72-.086-40.07-.117l.06 19.828a1346 1346 0 0 1 38.12-.512l-.02 20.91c-5.13.038-36.14-.751-38.68 1.391l-.16 6.93.02 17.46a2816 2816 0 0 1 42.01-.16l-.09 21.8a5119 5119 0 0 1-64.69.06c-1.61-35.761-.12-72.056.5-107.847m-755.611 34.178c8.27 3.726 16.471 7.202 25.037 10.206a11356 11356 0 0 0-.045 126.953c.061 9.19 2.047 62.53.372 67.56-.804 2.41-3.542 2.98-5.683 4.02l-19.554 9.1c-1.365-72.49-.212-145.32-.127-217.839m437.511-34.277 22.037-.126.032 19.912c.083 22.28 4.874 62.4-11.135 79.28-7.314 7.71-17.424 10.9-27.83 11.33-12.188.51-24.751-2.19-33.722-10.97-5.234-5.13-8.635-11.71-10.523-18.74-5.051-18.815-1.979-59.658-1.735-80.594l22.137-.042c.139 18.778-2.259 55.017.886 71.616 1.108 5.852 3.693 11.99 8.86 15.36 4.451 2.89 10.408 3.04 15.455 1.84 7.132-1.7 10.911-6.65 14.622-12.588 2.168-24.983.83-51.152.916-76.278m120.549.051 22.996-.211c.102 14.089-2.886 73.433 4.006 81.866 3.769 4.61 10.349 7.15 16.168 7.52 4.506.29 8.664-1.04 11.876-4.27 3.702-3.73 5.479-9.04 6.302-14.121 1.336-8.246.596-17.425.576-25.785l-.057-44.724c7.568-.373 15.213-.213 22.793-.254l-.098 20.18c.049 20.816 4.545 60.504-9.878 76.674-7.611 8.53-19.047 13-30.347 13.23-12.045.25-24.888-3.98-33.366-12.76a33.2 33.2 0 0 1-8.144-14.04c-5.178-17.875-3.015-62.822-2.827-83.305m100.527 699.945 403.694 98.87.57 10.84-250.44-57.82c-51.09-11.81-102.33-24.73-153.741-34.89zm-29.279 195.5c1.239-.12.514-.21 1.995.9a1913 1913 0 0 1 .208 48.74c-46.106-.76-92.403-4.67-138.471-7.02l-13.393-.59-.064-20.99c17.528-3.43 35.417-5.54 53.099-8.05a4986 4986 0 0 1 96.626-12.99M423.408 861.23c8.123 3.527 16.232 6.9 24.542 9.967l.084 228.693c-8.28-3.4-15.779-8.37-24.623-10.31zm739.742 53.224c9.48 6.393 53.2 52.91 61.9 64.511l-.06-58.944 23.14-.153c.25 13.994 3 103.352-.27 109.292-21.79-19.86-42.96-41.144-61.95-63.701l.25 62.301-22.57-.08c-.88-37.704-.39-75.51-.44-113.226m265.05 4.21c3.22 7.269 5.26 15.393 7.93 22.91 3.68 10.325 8.03 20.411 12.28 30.51a1212 1212 0 0 1 15-52.004c7.41-.209 14.88-.03 22.3-.015-4.34 16.174-9.96 32.01-14.94 47.997-6.32 20.3-12.11 40.768-19.77 60.618-8.53-16.25-13.83-33.832-21.33-50.457l-.67.205-1.87 4.195c-5.37 15.683-12.17 33.967-21.15 47.887-7.14-13.8-11.91-29.4-17.05-44.036a2690 2690 0 0 1-22.37-66.279c7.61-.302 15.22-.112 22.84.025 7.01 17.373 11.93 35.848 17.64 53.699 8.05-17.98 14.15-36.852 21.16-55.255M127.132 698.214l.86.071c.316.374.757.672.948 1.122.905 2.131-.114 70.731-.114 80.625l-.596 463.008-9.865 3.94c-.181-.14-.392-.25-.544-.42-1.962-2.21-.732-47.46-.705-53.38l.184-492.451zm835.834 221.843c14.832-.193 32.068-2.054 46.444 1.442 8.16 1.987 15.74 6.559 20 13.984 4.42 7.724 5.13 18.37 2.45 26.79-3.38 10.652-10.17 15.742-19.62 20.54 11.81 14.638 22.57 29.817 33.49 45.107l-26.25-.1c-11.83-15.04-21.573-31.518-32.986-46.844-1.228 15.395-.697 31.264-.894 46.724l-22.413-.15c-.654-35.808-.216-71.681-.221-107.493"/><path fill="#54286a" d="M986.131 938.952c6.474.054 12.251.234 17.829 3.839 3.37 2.176 5.81 4.772 6.56 8.837.93 5.004-1.22 9.64-4.27 13.406-6.441 3.194-13.075 3.056-20.102 3.309z"/><path fill="#c4f1e2" d="M0 1466.08c123.068-41.49 247.658-78.71 370.467-120.92l.106 19.57a18495 18495 0 0 0-234.079 74.17c-45.46 14.42-91.46 27.58-136.494 43.29zm1790.87-636.092c13.06 4.251 26.15 13.848 37.95 21.022l71.86 44.405c.34 21.03 2.18 42.108 3.57 63.099l9.78 139.736c1.61 24.08 3.72 48.28 4.17 72.41l-9.8-5.74c-7.17-86.71-10.91-173.719-17.32-260.492-9.45-6.282-19.53-11.67-29.4-17.269-10.43-6.651-47.78-31.241-58.4-31.438l-.56 2.557c.8 2.426.62 5.009.69 7.55l-1.97.661c2.84 4.54 4.2 52.882 4.71 61.671a6777 6777 0 0 0 7.79 127.63c1.26 18.13 6.04 57.36 3.81 73.12-2.02 14.3 1.47 29.87 1.52 44.47-4.03-7.55-5.4-32.65-6.3-41.69-7-69.98-10.85-140.394-16.11-210.529-1.31-17.474-9.44-78.657-5.99-91.173M298.916 673.473l24.962 11.294.524 270.097c-8.539-2.427-17.006-6.772-25.352-9.978zm1428.424-79.589c2.32-.225 1.22-.459 3.27.734 4.11 26.905 4.39 56.814 6.34 84.251 3.78 53.207 7.86 106.301 10.68 159.575-3.9-2.141-7.64-4.635-11.41-6.991-2.42-19.829-2.55-40.484-3.9-60.447a9317 9317 0 0 0-7.93-100.431c-.98-12.216-.4-33.932-4.34-44.714-.9-2.446-1.48-3.358-3.85-4.361-16.36 2.632-61.32 23.398-78.45 30.86-8.26 3.307-16.55 6.48-24.42 10.66 6.3 58.579 11.68 117.694 16.12 176.447l-11.14 4.097c-4.35-34.883-6.6-70.301-9.29-105.351-2.35-30.618-5.24-61.183-7.15-91.834 14.15-6.747 29.26-12.184 43.77-18.217zM379.05 1345.29c16.195 3.36 32.552 8.96 48.456 13.6l89.187 25.98 281.776 80.87c-.128 6.01.283 12.01.598 18-34.625-11.19-69.689-20.41-104.676-30.34l-138.049-39.46-115.222-32.11c-20.598-5.65-41.205-11.9-62.069-16.46zm-1.046-193.64c42.494 12.99 84.311 28.71 126.279 43.27a11505 11505 0 0 0 209.435 69.91l-.394 21.06c-5.217.45-302.395-98.3-335.274-109.33z"/><path fill="#8e72b7" d="M289.71 361.426c.436.006.873.005 1.309.02 35.41 1.176 71.283 18.372 95.119 44.475 37.905 41.511 44.539 97.697 42.36 151.597l-14.343-5.208c.116-48.965 1.469-85.455-30.421-126.413-20.84-26.766-53.656-46.349-87.43-50.481-10.099-1.235-27.566-2.576-35.643 4.481-3.991 3.488-2.519 41.542-2.585 48.905l.004 67.627-10.577-2.512c-1.024-36.456-.329-73.12-.427-109.601a148.6 148.6 0 0 0-40.23 28.563c-31.522 31.755-39.948 75.225-39.782 118.162l-12.08 7.655a88 88 0 0 1-.304-2.994 170.58 170.58 0 0 1 40.79-127.421c24.789-28.329 56.745-44.323 94.24-46.855"/><path fill="#c4f1e2" d="M0 1307.21c26.2-11.68 52.955-21.81 79.433-32.81l167.461-69.66a3984 3984 0 0 0 74.127-32.29c15.859-7.08 32.103-15.09 48.559-20.54l.286 25.73C245.862 1224.29 124.422 1279.09 0 1324.44zm216.606-650.198c1.345 2.254.843 490.818 1.193 548.888-5.169 1.77-10.187 4.05-15.226 6.16l-1.091-.32c-1.547-3.51-1.107-8.43-1.169-12.22-.843-52.03.651-104.19.639-156.24l-.113-378.823zM1306.19 919.121c11.03-.766 20.87.26 30.84 5.33a56.14 56.14 0 0 1 27.77 33.116c4.54 14.688 1.9 30.737-5.54 44.003-8.13 14.51-20.16 21.94-35.78 26.25-12.08 1.87-23.97.31-34.66-5.87-12.74-7.36-22.78-20.21-26.3-34.553a56.3 56.3 0 0 1 6.81-42.494c8.37-13.716 21.35-22.152 36.86-25.782"/><path fill="#563969" d="M1310.82 940.217c4.35-.09 8.17.441 12.24 2.057 8.23 3.263 14.15 9.313 17.36 17.555a37.28 37.28 0 0 1-1.26 29.755c-4.73 9.54-11.78 14.166-21.44 17.666-6.56.18-12.26-.36-18.01-3.82-7.48-4.5-12.28-11.95-14.35-20.345-2.44-9.896-1.2-21.094 4.54-29.671 5.18-7.739 11.97-11.435 20.92-13.197"/><path fill="#c4f1e2" d="M969.005 1649.42c29.233 5.98 58.345 13.73 87.435 20.49l160.92 36.69c48.11 11.1 96.25 22.9 144.75 32.15 2.34 21.71 2.19 44.36 2.92 66.22-2.04.03-4.03-.16-6.07-.34-3.09-4.28-2.33-35.66-2.87-43.09-18.02-5.91-37.33-9.34-55.82-13.58l-107.58-24.21a13181 13181 0 0 1-142.89-33.22c-26.93-6.48-53.715-13.68-80.778-19.56zM457.443 739.268c6.849 3.239 14.121 5.853 21.146 8.703-1.388 50.571-.153 101.415-.051 152.012l.522 274.667-22.07-7.19c-1.18-71.36-.289-142.91-.258-214.283.031-71.254-.8-142.673.711-213.909m-64.189-25.849 21.988 8.883-.438 431.368-21.751-7.37z"/><path fill="#8e72b7" d="M590.109 1464.6c8.833 1.75 17.655 4.3 26.412 6.44l-.349 255.67c-.026 39.18.65 78.36.187 117.54-.132 2.39.028 2.57-1.552 4.32-7.663 1.44-16.19-.03-23.936-.65z"/><path fill="#c4f1e2" d="M332.819 689.576c7.851 3.351 15.542 7.095 23.264 10.73l.168 315.964a10107 10107 0 0 1 .536 101.54c.008 6.25 1.429 21.6-.111 26.66-.775 2.54-2.745 2.8-4.929 3.88l-18.456 8.19zm-69.417-32.269c8.945 3.232 17.591 7.443 26.566 10.723 2.077 131.804.491 263.781.582 395.6l-.51.56c-6.595-.17-20.287-7.33-27.015-10.01zm1480.328-22.54c24.36 13.326 47.68 28.382 71.17 43.151.29 18.622 2.45 37.475 3.45 56.102 1.83 34.136 3.06 68.318 4.46 102.474-7.41-3.993-14.65-8.411-21.95-12.61-4.53-2.841-9.23-5.361-13.93-7.913a441 441 0 0 1-11.32 17.56c-2.52 3.673-9.32 15.037-13.74 15.874-2.16-1.944-2.94-3.268-3.41-6.204-.91-5.702-.63-12.018-.98-17.8l-2.64-40.871a11280 11280 0 0 0-11.11-149.763M289.932 132.117c5.437-.386 11.063.097 15.219 4.033 2.817 2.669 3.935 6.06 4.398 9.817 2.554 20.718.621 43.442.58 64.44l-.228 130.426c41.047 7.887 75.482 28.033 101.722 60.65 38.858 48.301 43.349 105.982 36.944 165.169l-11.559-5.752a489 489 0 0 0 .681-6.59c5.131-53.505-3.89-106.429-39.144-148.837a148.88 148.88 0 0 0-99.78-52.814l-.004-205.593-.869-3.06c-.643-.405-1.754-1.157-2.468-1.353-2.215-.606-2.936.27-4.465 1.569-1.337 3.136-1.778 5.917-2.011 9.316-1.382 20.113.025 43.08.026 63.494l.254 134.779a127 127 0 0 0-3.348.3c-43.489 4.509-76.618 22.903-104.045 57.003-31.072 38.632-39.951 86.06-34.843 134.436l-13.012 14.083c-2.732-54.825-.85-104.736 33.596-150.59 27.229-36.245 65.338-61.115 110.568-67.425l-.138-124.041c-.042-15.698-2.298-58.978 1.467-72.381 1.519-5.406 5.806-8.457 10.459-11.079M158.003 682.891l1.014.49c2.415 6.678.092 101.99.1 116.583a35267 35267 0 0 0 1.227 430.026l-21.093 8.23-1.28.24c-1.535-2.45-1.192-5.33-1.25-8.19-.577-28.32.264-56.82.319-85.17l.202-172.231c.179-93.47-1.422-187.146.641-280.582 6.645-3.249 13.412-6.278 20.12-9.396m31.828-13.951c2.755 2.82 1.562 57.165 1.58 63.962l-.364 339.698c.067 47.89-.548 95.91.559 143.78a1264 1264 0 0 0-22.378 9.63c-2.599-14.3-.919-34.96-.921-49.85l.397-112.49.143-385.468c7.084-2.826 14.022-6.143 20.984-9.262"/><path fill="#8e72b7" d="M1370.75 1814.43c13.09-1.34 27.49-.67 40.52.76 16.24 1.79 34.32 5.03 49.09 12.3 26.72 13.16 53.82 47.64 72.45 70.76l-28.06-.25c-1.87-5.69-4.12-12.29-8.05-16.9-3.65-4.27-8.43-5-13.81-5.4-8.86-.67-27.73-1.64-34.1 5.6-3.02 3.44-2.27 10.5-2.27 14.81l-18.77-.18a3691 3691 0 0 0-84.45-1.11c-.43-5.82-.64-13.12-4.03-18.08-3.08-4.53-9.43-6.49-14.56-7.31-6.83-1.1-20.3-1.53-25.71 3.29-5.76 5.15-5.12 13.42-5.17 20.43l-15.26.04c-3.56-9.48-7.41-18.68-11.6-27.89a94 94 0 0 1 5.11-6.59c22.99-27.16 64.25-41.52 98.67-44.28"/><path fill="#54286a" d="M1361.05 1821.39c19.5-2.91 56.66-.86 74.25 8.71 8.1 4.41 20.29 11.99 23.03 21.18-.21 1.2-.11 2.12-.99 3.06-5.41 5.78-44.18 3.95-53.09 3.93-17.5-.19-79.63-.92-92.61-5.47-3.18-1.12-5.16-2.34-6.67-5.45.24-2.27.27-3.21 1.73-5.08 11.21-14.37 37.66-18.86 54.35-20.88"/><path fill="#c4f1e2" d="M1375.84 1829.41c.33 0 .67-.01 1-.02 25.69-.16 52.24 1.59 71.54 20.43a1044 1044 0 0 1-60.88.28c-11.34-.19-64.14-.93-71.72-3.88l.2-1.56c14.49-12.41 41.59-14.22 59.86-15.25"/><path fill="#8e72b7" d="M1099.12 1805.4c12.36-.96 25.13.04 37.42 1.44 50.11 5.72 83.72 25.98 126.26 50.5-2.59 3.19-5.38 5.89-8.44 8.63-5.23 0-10.49-.01-15.69.59-5.2.61-10.87 2.06-14.04 6.6-4.22 6.05-2.37 12.95-1.34 19.68l-75.86-.9-18.12.01-.35-17.78c-5.01-7.1-9.63-9.82-18.24-11.31-14.64-2.54-34.33-.33-46.33 8.69-7.84 5.9-9.19 10.36-10.4 19.6-12.5-2.11-30.43-1.67-39.35-12.08-6.79-7.92-6.05-18.11-5.59-27.8 5.96-7.58 13.94-13.55 21.82-19.02 21.71-15.08 42.04-23.56 68.25-26.85"/><path fill="#54286a" d="M1114.9 1812.45c24.02.46 49.48 2.67 71.71 12.5 9.03 3.99 17.42 9.9 20.93 19.51 1.13 3.09 1.72 5.27.38 8.32-10.67 4.85-45.62 1.51-58.67.51-20.05-1.07-40.06-3.4-60.11-4.64-10.25-.63-24.37 1.77-33.75-1.36-.43-.95-.9-1.84-1.02-2.91-.46-4.08 3.3-9.45 5.86-12.3 13.98-15.64 34.91-18.62 54.67-19.63"/><path fill="#c4f1e2" d="M1104.7 1822.38c19.62-3.97 60.03 2.08 78.32 10.59 4.91 2.29 13.85 7.67 15.75 12.9-4.85 3.81-26.86.47-33.9 0-33.26-2.87-66.74-5.46-100.09-6.71 12.09-11.72 23.87-14.77 39.92-16.78m723.8-685.97c11.54 5.2 22.7 11.61 34.06 17.25l99.71 50.57c1.26 57.34 6.47 114.52 9.5 171.78l19.29 368.5 7.05 121.76c.79 14.88 2.97 30.79 2.66 45.58-.06 2.87-.18 4.65-1.91 6.95l-1.8-.67c-2.35-3.36-3.1-6.67-3.44-10.74-3.54-41.85-4.49-84.36-6.88-126.32a17210 17210 0 0 1-14.57-252.49l-12.21-208.91c-1.93-34.8-4.64-69.8-5.19-104.64-9.58-6.19-19.93-10.99-30.13-16.06-26.5-13.94-53.95-28.75-81.7-39.99-1.99 2.23-4.16 4.36-6.23 6.52 2.54 59.84 7.5 119.8 11.28 179.6l25.45 427.03c2.43 45.63 6.05 91.32 7.77 136.97-3.81.03-7.1.04-10.78-1-3.69-16.45-3.36-38.56-4.49-55.69-3.52-53.52-5.03-107.15-8.14-160.7l-16.46-304.69c-4.89-83.43-11.7-167.03-12.84-250.61m-118.3-502.497 1.32.56c3.16 7.585 4.95 66.681 5.79 79.299a5541 5541 0 0 0 8.36 109.87c-5.42-4.562-10.97-8.828-16.69-13.007-19.7 7.695-39.85 14.538-59.74 21.736l-9.99 3.505c-4.04-55.426-10.59-110.698-14.42-166.143 27.79-13.049 56.94-24.174 85.37-35.82"/><path fill="#8e72b7" d="M535.915 1451.25c14.674 3.94 29.637 7.09 44.422 10.61-.189 128.29 2.127 256.75-.195 385.01-10.81 1.75-32.053-1.31-44.031-1.86z"/><path fill="#c4f1e2" d="M1330.92 1312.07a1186 1186 0 0 0 42.53-11.91l17.28 406.73c.59 16.69 5.66 85.04 2.04 96.48l-1.77 1.51c-2.73-1.35-3.75-3.49-4.58-6.29-4.36-14.67 0-43.18-3.29-60.69.31-7.61-.17-15.41-.26-23.03-11.34-4.55-22.62-7.46-34.58-9.86a3870 3870 0 0 0-2.27-45.19l-10.98-252.01c-1.34-31.84-3.54-63.89-4.12-95.74M380.003 555.537c29.389 2.712 60.218 15.423 81.073 36.569 17.098 17.335 29.657 39.303 34.242 63.342 3.506 18.382 1.787 39.138 1.767 57.873l-.073 96.661a31341 31341 0 0 1 .002 370.518c-2.421-.7-4.596-1.46-6.905-2.49-1.747-2.22-2.501-4.35-2.56-7.17-.157-7.37.539-14.91.527-22.33l-.258-82.62-.53-363.13.435-9.174c-19.006-7.796-81.744-34.566-100.173-36.501-1.766 1.667-2.245 2.93-2.451 5.333-1.092 12.749-.26 26.318-.273 39.16l-.02 79.078.207 253.074.063 71.16c-.004 12.76.801 26.25-.568 38.91l-3.656-.49c-1.825-2.27-1.692-5.42-1.84-8.29-.857-16.63-.358-33.58-.458-50.24l-.463-93.809.084-254.118c.436-60.452 2.425-120.866 1.828-181.316"/><path fill="#54286a" d="M392.451 572.602c28.158 4.34 50.277 16.627 68.338 38.863 14.133 17.4 27.335 44.844 25.01 67.818-12.954-3.107-25.876-9.104-38.281-13.976-18.551-7.285-37.195-14.417-55.62-22.014z"/><path fill="#c4f1e2" d="M401.104 582.667c8.168 2.505 15.943 5.261 23.429 9.434 28.512 15.891 44.016 44.653 52.504 75.05-25.661-8.497-50.499-20.728-75.905-30.164z"/><path fill="#54286a" d="M1811.26 868.668c1.25-.043 2.46-.105 3.69.147 7.55 1.543 68.5 36.947 70.78 42.072 2.15 4.841 2.4 35.538 2.89 43.401 1.11 17.957 2.93 35.862 4.05 53.812 2.02 32.64 3.56 65.3 6.28 97.89 1.33 15.84 1.03 32.53 3.47 48.18.35 2.25 1.18 4.24 2.33 6.19-1.27.69-2.85 2.01-4.34 1.94-4.44-.21-69.6-35-72.37-38.16-3.02-3.44-5.67-81.96-6.36-92.29l-7.54-121.445c-.82-12.487-4.62-29.811-2.88-41.737"/><path fill="#c4f1e2" d="M1813.14 869.825c23.42 9.806 48.04 26.827 70.67 39.44 2.65 22.499 3.05 45.621 4.7 68.27l12.75 183.785c-7.43-4.24-15.17-7.96-22.8-11.81-1.16-39.86-3.72-80.34-7.5-120.04-.36-.48-.73-.93-1.07-1.42-2.42-3.47-.09-9.41-2.63-11.82l1.5 2.88-1.18.99c.39 6.23 1.45 12.57-1 18.46 1.79 36.1 4.83 72.15 6.62 108.25a1156 1156 0 0 1-44.06-23.92c-2.84-29.1-3.87-58.45-5.58-87.64-3.22-55.14-6.32-110.347-10.42-165.425"/><path fill="#54286a" d="M1860.86 949.644c-2.11-5.773-2.8-25.634-2.3-32.144.17-2.254.32-3.109 2.15-4.557l1.7.612c3.25 4.69 2.55 26.146 2.83 32.994l-1.21 8.014-.89.337a45 45 0 0 1-2.28-5.256"/><path fill="#563969" d="M1865.24 946.549c1.57 16.667 2.54 33.42 3.72 50.121.77 10.83 2.09 21.96 2 32.8-.36-.48-.73-.93-1.07-1.42-2.42-3.47-.09-9.41-2.63-11.82l1.5 2.88-1.18.99c.39 6.23 1.45 12.57-1 18.46-1.97-29.55-4.89-59.327-5.72-88.916.66 1.836 1.4 3.519 2.28 5.256l.89-.337z"/><path fill="#c4f1e2" d="m1416.24 1289.11 1.71.05c1.76 2.33 1.55 6.28 1.74 9.15 4.12 59.94 5.05 120.3 7.66 180.34l14.6 331.09c-9.31-2.08-18.68-4.08-28.19-4.91-4.16-.64-8.44-.76-12.64-1.04l-11.92-305.23c-2.82-66.58-7.03-133.42-8.3-200.03 11.85-2.86 23.58-6.22 35.34-9.42M232.503 508.871c.957.09.293-.046 1.713 1.098 1.447 49.268-.281 99.081-.346 148.404l-.784 364.097c.084 22.89 1.8 171.99-.489 177.06-2.362 1.54-2.776 1.99-5.55 2.02-.304-.51-.703-.98-.912-1.53-.981-2.62-.046-89.28-.058-98.84l-.012-297.853c.074-53.402-1.267-107.275.85-160.624-7.491 2.699-14.789 6.643-22.108 9.853a5097 5097 0 0 0-52.992 23.51c-12.786 5.716-31.525 12.055-42.881 19.154l-.873 424.51c-.038 17.96 1.796 122.71-1.032 132.26l-2.438-.28.157 1.82c-.293-.27-.653-.48-.878-.81-2.109-3.09-2.176-8.72-2.247-12.35-.603-30.55.147-61.26.232-91.82l1.639-242.216.32-161.214c.128-31.343-.415-62.823 1.476-94.125.766-12.666 2.892-25.05 7.033-37.062 21.315-61.83 65.996-78.846 120.18-105.062"/><path fill="#54286a" d="m223.812 615.01.776.721c.877 2.728 1.219 4.194.835 7.118-4.66 4.577-96.33 45.13-109.005 50.824-1.468-2.59-2.529-5.519-1.776-8.468 9.015-6.722 23.047-11.238 33.409-15.897 25.297-11.371 50.66-22.489 75.761-34.298m-2.609-85.929c2.369 2.761 1.232 60.517 1.275 67.816-14.749 9.844-32.236 17.061-48.275 24.536-17.883 8.334-35.707 16.957-53.869 24.656l-1.689-1.611c-.638-8.119 2.665-17.21 5.141-24.836 17.509-53.938 50.808-67.054 97.417-90.561"/><path fill="#c4f1e2" d="m211.563 543.985 1.192.897c2.245 13.443.355 32.84.259 46.923-26.549 14.524-54.306 26.9-81.699 39.734-1.364-2.843-.611-4.641.353-7.6 15.057-46.244 38.554-59.449 79.895-79.954m33.506-39.261a196 196 0 0 1 31.72 9.501c35.88 14.472 67.109 41.526 82.083 77.705 7.344 17.745 9.939 35.785 10.871 54.835 1.567 32.023-.798 65.438-.733 97.652l.137 265.843c.086 15.78 2.599 125.19-.26 132.06l-1.802.41c-1.769-2.18-2.018-3.94-2.232-6.73-1.102-14.34.256-29.93.232-44.39l-.504-98.159-.265-148.902c-.108-49.695-.504-99.679 1.327-149.335-19.467-11.922-50.718-24.385-72.391-34.856a1545 1545 0 0 0-38.756-17.463c-1.185 60.509-.038 121.3.025 181.841l.566 365.364-12.066 5.03a52678 52678 0 0 1 2.048-690.406"/><path fill="#54286a" d="M253.554 612.201c16.003 5.883 31.862 14.471 47.452 21.508 17.647 7.967 45.613 18.084 60.885 28.761.654 3.01-.644 4.626-1.842 7.411-6.806-1.024-97.477-42.546-106.785-48.37-1.37-2.928-.251-6.253.29-9.31m5.01-88.924c19.839 4.051 40.687 15.806 55.839 29.055 25.094 21.941 41.576 55.938 43.683 89.246-17.966-3.481-41.086-16.69-57.941-24.463-13.784-6.358-27.81-11.958-41.834-17.751-.201-20.855-2.468-56.755.253-76.087"/><path fill="#c4f1e2" d="M267.426 535.438c7.631 2.825 14.917 5.91 21.934 10.066 32.159 19.046 48.807 47.371 57.979 82.814-26.865-10.709-52.973-23.871-79.696-35.09a2618 2618 0 0 1-.217-57.79M1682 859.973c.95.218.34.004 1.61 1.092 1.25 16.228 1.62 32.546 2.65 48.796l7.23 106.569c2.46 37.9 5.97 75.86 7.68 113.79-32.33 9.05-65.16 16.23-97.42 25.53l-.6-.43c-2.18-3.86-16.17-233.003-18.27-260.402 32.58-9.963 65.56-22.052 97.12-34.945m-238.81 373.177c3.08-.16 5.22.57 8.09 1.68 18.54 7.24 36.58 16.49 54.82 24.52 25.46 11.22 51.43 21.57 76.44 33.74 2.22 29.64 3.18 59.35 4.73 89.02a14861 14861 0 0 1 8.38 164.11 25242 25242 0 0 1 14.39 307.9l-12.82-.42c-.44-26.01-2.31-52.15-3.54-78.14l-7.45-154.57-8.57-173.9a5909 5909 0 0 0-7.23-139.51c-19.81-9.1-40.49-17.01-60.57-25.55-19.97-8.51-40.24-18.23-60.88-24.94l-1.54.88c-1.56 3.3-1.91 6.35-1.89 9.97.07 16.07 1.27 32.35 1.86 48.43l3.77 100.97c3.12 81.64 5.59 163.41 9.62 245 .49 51.45 4.39 102.99 6.51 154.4-4.99-1.73-10.09-3.07-15.18-4.46l-17.67-397.49a8246 8246 0 0 1-3.66-92.13c-.72-20.24.63-43.63-4.36-63.26l-1.81 1.13 1.2-.67c-6.05-2.55-93.1 21.63-105.65 26.1 3.66 138.81 12.94 277.41 17.88 416.17l-21.25-5.27c-1.83-82.48-6.41-164.97-9.23-247.42l-3.18-101.18c-.71-24.91-1.04-49.94-3.15-74.78 20.39-7.27 42.26-12.2 63.15-17.95 26.33-7.25 52.44-15.22 78.79-22.38"/><path fill="#8e72b7" d="M377.135 1187.48c68.697 23.39 137.966 45.53 207.027 67.84 43.158 13.95 86.07 28.63 129.498 41.72l.057 132.55a16547 16547 0 0 1-242.94-68.9c-30.904-8.96-61.664-18.55-92.729-26.92-1.138-48.72-.788-97.56-.913-146.29"/><path fill="#54286a" d="M642.027 1312.06c15.747 3.64 32.154 8.69 47.027 15a5129 5129 0 0 1 .179 57.66c-15.728-4.25-31.321-9.14-46.941-13.77a4530 4530 0 0 1-.265-58.89"/><path fill="#c4f1e2" d="m651.835 1325.51 28.351 8.67a987 987 0 0 1 .424 37.83c-9.408-1.74-19.275-5.93-28.44-8.88z"/><path fill="#54286a" d="M405.915 1237.48c15.989 2.42 34.799 10.11 49.718 16.46-.788 19.98-.426 40.08-.464 60.08-16.783-3.77-33.477-9.44-49.98-14.34.516-20.71.471-41.48.726-62.2"/><path fill="#c4f1e2" d="M415.713 1251.27c10.111 2.43 20.308 6.34 30.231 9.53l.033 40.96c-10.236-3.57-20.512-6.57-30.96-9.43.011-13.26-1.272-28 .696-41.06"/><path fill="#54286a" d="M563.343 1286.78c17.73 4.68 35.189 10.89 52.784 16.13l-.144 60.88c-17.776-4.82-35.259-10.88-52.769-16.59.554-20.1.135-40.31.129-60.42"/><path fill="#c4f1e2" d="M572.953 1299.7c10.814 4.11 22.666 6.88 33.778 10.23l-.096 41.66c-11.019-2.18-22.902-7.48-33.63-11.12z"/><path fill="#54286a" d="M484.024 1261.66a862 862 0 0 1 52.933 16.71l.105 61.71c-17.785-4.85-35.315-10.67-53.099-15.58z"/><path fill="#c4f1e2" d="M494.895 1275.33a1153 1153 0 0 0 32.698 9.97l.044 41.68c-10.894-2.18-22.017-6.5-32.731-9.58z"/><path fill="#8e72b7" d="M0 1334.89a8586 8586 0 0 0 227.749-90.44 5689 5689 0 0 1 92.487-36.74c15.396-6.08 31.153-13.76 46.972-18.49a11997 11997 0 0 0 .741 145.19c-37.039 13.86-75.186 25.27-112.799 37.49a17971 17971 0 0 1-172.676 56.34 2190 2190 0 0 1-53.245 16.86c-9.595 2.94-19.89 5.35-29.229 8.96z"/><path fill="#54286a" d="m99.68 1333.14.565.56c2.476 8.04.655 44.2.659 54.97a845 845 0 0 1-50.37 16.98c-.853-18.28.01-36.76-.669-55.1z"/><path fill="#c4f1e2" d="m89.223 1346.09.733.54c2.271 5.92.75 28.88.738 36.46l-29.102 10.92-1.158-.43c-2.693-9-.893-27.14-.912-37.1z"/><path fill="#54286a" d="M335.261 1244.12c.047.03.109.06.142.1 2.77 3.96 1.495 51.59 1.52 59.95a2239 2239 0 0 0-45.717 15.93l-1.124-.09c-2.696-4.24-1.17-49.7-1.162-58.09 15.108-6.38 30.617-13.16 46.341-17.8"/><path fill="#c4f1e2" d="M326.97 1257.08c2.875 4.9 1.078 31.67 1.036 39.23a3014 3014 0 0 0-28.792 11.01c-3.201-4.89-1.583-30.84-1.575-38.46z"/><path fill="#54286a" d="M179.911 1302.26c2.464 3 .985 49.28.938 57.31-15.939 6.29-32.241 11.71-48.429 17.33l-.831-.77c-1.946-18.45-.533-38.27-.555-56.88a3420 3420 0 0 0 48.877-16.99"/><path fill="#c4f1e2" d="m168.589 1315.89 1.347-.11c3.133 4.91 1.453 30.75 1.43 38.32l-29.026 10.24-1.314.09c-2.479-4.12-.948-31.26-.933-37.84z"/><path fill="#54286a" d="m256.788 1273.08 1.065.18c3.121 4.06 1.151 50.69 1.124 59.12-15.978 4.55-31.668 10.47-47.204 16.33l-1.222-.85c-2.417-12.08-.63-43.07-.629-57.14 15.878-4.82 31.152-12.19 46.866-17.64"/><path fill="#c4f1e2" d="m246.354 1286.9 1.553-.18c2.651 3.61 1.21 31.8 1.178 38.37a2453 2453 0 0 1-27.832 10.24l-1.268.2c-2.945-5.63-1.07-30.08-1.034-38.01z"/><path fill="#8e72b7" d="M1456.97 1272.2c33.89 15.26 69.74 26.65 102.84 43.63l19.45 390.23a6126 6126 0 0 0 4.07 84.22c1.02 18.52 2.74 37.37 2.69 55.91 0 2.57.16 4.72-1.17 7l-2.62.42c-12.46 1.36-24.22 2.96-36.16 6.98-16.88-18.75-44.69-30.37-67.8-39.7l-11.46-297.74a7175 7175 0 0 1-7.41-177.55c-.82-24.45-2.5-48.92-2.43-73.4"/><path fill="#54286a" d="M1844.89 1169.39c6.89.59 95.44 44.16 100.9 48.94 2.7 2.36 4.41 54.62 4.75 61.04l9.32 158.59a40856 40856 0 0 0 27.66 479.03c.88 1.25.97 1.78 1.24 3.24-15.48-3.76-91.55-5.57-97.52-9.06-.55-.33-2.02-24.29-2.24-26.88-1.54-17.47-1.64-34.84-2.89-52.3-2.41-33.61-5.29-67.35-7.12-100.98-.74-13.54-.18-27.14-.95-40.71l-22.77-353.75c-.85-12.17-.39-24.47-1.09-36.67-1.73-30.22-4.49-60.43-6.68-90.61-.93-12.75-.48-25.84-2.38-38.46z"/><path fill="#c4f1e2" d="M1846.95 1171.49c33.02 15.58 65.43 32.49 98.56 47.83l39.94 698.43a1350 1350 0 0 1-21.52-1.9 13302 13302 0 0 0-13.56-241.79c-.66 3.34-.83 7.77-3.85 9.81a8124 8124 0 0 1 7.84 139.15c1.6 30.72 3.82 61.54 4.56 92.29a3534 3534 0 0 1-66.91-5.4 56355 56355 0 0 0-45.06-738.42"/><path fill="#563969" d="M1946.52 1683.87c-.54-6.93-1.8-15.61 1.13-22.13l.73.36c1.88 3.99 1.86 7.66 1.99 11.96-.66 3.34-.83 7.77-3.85 9.81"/><path fill="#54286a" d="M1942.19 1525.62c.94 12.16 6.1 70.97 2.96 77.89l-1.19.06c-4.03-12.77-3.76-58.38-5.6-74.8z"/><path fill="#563969" d="m1938.36 1528.77-8.89-150.34a4214 4214 0 0 1-2.62-46.78c-.42-7.37-1.57-14.97-1.3-22.33.07-1.86.54-3.27 1.25-4.97l.99.11c4.83 12.24 7.21 99.23 8.24 118.03 1.89 34.39 4.46 68.74 6.16 103.13z"/><path fill="#c4f1e2" d="M1558.77 878.619c20.37-9.532 42.39-16.547 63.52-24.281 27.57-10.095 54.96-20.701 82.59-30.63l41.45 690.032 14.69 253.7c2.55 45.05 4.05 90.49 7.95 135.44-3.9-.26-7.84-.4-11.71-.9-4.05-88.84-10.23-177.7-15.47-266.49l-14.16-254.02a10520 10520 0 0 1-7.89-152.92c-1.05-20.84-1.32-41.96-3.05-62.74-.27-3.3-.77-8.81-3.24-11.29l-2.42.07 2.14.29-2.03.95.51-1.4c-16.99 2.15-34.29 8.01-50.95 12.17-26.29 6.56-52.61 12.94-78.63 20.5-10.76 3.13-21.95 5.87-32.31 10.17.34 10.71.75 57.32 3.08 64.59 2.41 1.4 2.81 1.2 5.63.95l2.04-1.49c2.1-14.89-1.24-41.51-1.92-57.46 48.86-13.12 99.06-23.72 147.37-38.6 4.28 53.99 5.96 108.41 8.85 162.51l14.37 260.7a18946 18946 0 0 0 10.88 192.64c2.44 40.23 5.65 80.62 7.01 120.88-8.7-.19-41.73.65-47.47-1.94l-.94 1.68c-.48-.91-.98-1.81-1.46-2.73-7.28-13.98-27.08-18.04-34.72-31.87-.3-.54-.56-1.09-.84-1.63-2.1 1.35-3.33 1.81-5.81 2.07-8.09-4.75-31.91-8.28-35.71-11.73-2.33-2.11-2.04-19.08-2.25-23.04l-18.62-351.24c-.84-15.27-.3-30.67-.96-45.98-.65-15.24-2.37-30.42-3.12-45.65-.73-15.07-.6-30.21-1.23-45.3-.63-14.92-2.02-29.93-2.97-44.85-.18-2.79-.2-8.22-1.49-10.62-4.23-7.88-31.22-12.73-38.96-19.6-4.44-3.94-12.7-3.54-16.52-8.21l.75-2.11c1.56-22.12-3.27-48.57-4.18-71.1 38.68-11.79 78.01-22.16 117.13-32.41 21.78-5.71 44.43-10.53 65.67-17.97-4.63-34.19-5.94-69.56-7.8-104.04l-6.46-104.958c-1.36-21.589-1.11-44.294-4.34-65.652-.62-4.133-1.49-10.92-5.09-13.343-2.34-1.577-8.24.299-10.94 1.059-16.25 4.563-32.39 11.197-48.29 16.9-18.79 6.744-38.1 12.953-56.57 20.51 4.8 90.347 11.94 180.634 17.88 270.924l-12.36 3c-3.66-24.61-4.33-50.21-5.97-75.06l-8.99-132.143c-1.73-25.373-2.49-51.106-5.67-76.338"/><path fill="#563969" d="m1699.6 1900.05-.94 1.68c-.48-.91-.98-1.81-1.46-2.73-7.28-13.98-27.08-18.04-34.72-31.87-.3-.54-.56-1.09-.84-1.63-2.1 1.35-3.33 1.81-5.81 2.07-8.09-4.75-31.91-8.28-35.71-11.73-2.33-2.11-2.04-19.08-2.25-23.04l-18.62-351.24c-.84-15.27-.3-30.67-.96-45.98-.65-15.24-2.37-30.42-3.12-45.65-.73-15.07-.6-30.21-1.23-45.3-.63-14.92-2.02-29.93-2.97-44.85-.18-2.79-.2-8.22-1.49-10.62-4.23-7.88-31.22-12.73-38.96-19.6-4.44-3.94-12.7-3.54-16.52-8.21l.75-2.11c12.69 10.57 40.93 18.03 56.96 28.08 3.3 19.29 3.05 39.69 3.9 59.24a7762 7762 0 0 0 4.26 89.11l12.57 249.42a9188 9188 0 0 0 5.72 119.79c.89 16.84 1.13 33.93 2.58 50.71 12.85 1.9 25.55 4.86 37.36 10.4l-1.32-36.08c.63 1.97 1.47 3.81 2.32 5.7.55-2 1.11-3.83 1.96-5.72l.77-1.7 1.8 39.78c6.68 4.16 28.07 19.45 32.46 24.53 1.9 2.2 2.78 4.79 3.51 7.55"/><path fill="#54286a" d="m1627.02 1271.41-49.36-31.89c-3.47-2.2-5.55-3.98-6.53-8.18l1.22-.91c6.42.87 51.6 32.63 59.89 38.74 1.76 15.97 1.74 32.45 2.47 48.52l3.98 82.59 4.82 91.12c.88 16.34 2.29 32.85 2.34 49.21l11.28 198.76 3.05 57.66c.6 10.2 1.95 20.97 1.65 31.16l-.77 1.7c-.85 1.89-1.41 3.72-1.96 5.72-.85-1.89-1.69-3.73-2.32-5.7-1.47-11.54-1.49-23.53-2.07-35.15l-3.48-67.31c-3.33-58.57-8.13-117.61-9.38-176.24-1.53-8.94-1.35-18.87-1.79-27.96l-2.64-54.36-5.93-105.42a5395 5395 0 0 0-4.47-92.06"/><path fill="#8e72b7" d="m375.911 1374.68 184.636 50.76c67.751 19.15 135.125 39.65 203.267 57.4-1.576 124.71 4.565 249.41 4.946 374.11-47.28-4.65-95.341-3.21-142.747-6.91l.138-255.96a10386 10386 0 0 1 .263-131.57c-33.28-8.18-66.853-16.51-100.472-23.15-1.308 40.8-.207 81.96-.279 122.8l.291 282.34c-49.86-1.57-99.767-5.71-149.595-8.33l-.074-245.69c-.316-71.89-1.481-143.93-.374-215.8"/><path fill="#54286a" d="M642.473 1674.21c30.251 5.38 60.684 13.04 90.538 20.35.069 19.46-.478 38.96-.751 58.42-26.472-1.13-63.26-11.39-90.012-17.15.277-20.5-1.031-41.15.225-61.62"/><path fill="#c4f1e2" d="M651.136 1687.56a4722 4722 0 0 0 73.968 16.05l-.087 41.31c-24.556-5.51-49.017-11.56-73.701-16.46z"/><path fill="#54286a" d="M641.728 1482.47c14.887 2.7 29.883 7.63 44.395 11.9 15.647 4.61 31.557 8.9 46.914 14.4-.056 8.52 1.874 53.15-1.383 57.42-13.988-1.8-27.715-5.95-41.357-9.44a1656 1656 0 0 0-48.689-11.69c-.141-20.8-.901-41.81.12-62.59"/><path fill="#c4f1e2" d="M651.021 1496.37c24.781 6.27 49.173 14 73.964 20.29l-.039 39.74c-24.662-6.24-49.072-13.46-73.866-19.18z"/><path fill="#54286a" d="M642.095 1772.71c14.187.68 29.05 4.52 43.009 7.15 16.182 3.06 32.799 5.52 48.695 9.74l-.877 58.53c-11.519-.45-23.183-2.92-34.595-4.62l-56.265-8.25z"/><path fill="#c4f1e2" d="M651.608 1784.49c24.642 4.3 49.229 9.96 73.742 15.02.077 12.93 1.543 27.89-.565 40.55a3786 3786 0 0 0-73.2-13.51 2036 2036 0 0 1 .023-42.06"/><path fill="#54286a" d="M641.746 1577.18c30.403 5.73 61.304 14.52 91.271 22.33a2116 2116 0 0 1-.837 58.34c-30.111-3.38-61.164-11.12-90.828-17.54-.034-20.83-1.368-42.43.394-63.13"/><path fill="#c4f1e2" d="M650.92 1590.3c24.453 5.56 48.773 12.25 73.157 18.17l.268 40c-24.378-5.87-48.877-11.34-73.34-16.85z"/><path fill="#54286a" d="M405.375 1519.53c33.552 7.53 67.882 15.03 100.697 25.26l-.065 59.7c-32.487-3.73-67.623-14.57-100.448-20.46z"/><path fill="#c4f1e2" d="M415.17 1533.51c27.455 4.3 55.068 13.28 82.249 19.43l.12 41.14c-8.141-.5-17.32-3.25-25.308-5.05a3047 3047 0 0 1-56.603-13.56z"/><path fill="#54286a" d="M405.45 1618.56c16.356 1.59 33.613 7.14 49.656 10.85 16.828 3.89 33.872 6.81 50.618 11.01l.313 60.92c-33.531-3.1-67.901-12.12-100.866-19.05z"/><path fill="#c4f1e2" d="M415.271 1631.45c27.456 4.96 54.477 12.88 81.928 18.08l-.192 42.1c-26.998-5.9-54.184-10.98-81.124-17.14z"/><path fill="#54286a" d="M406.294 1418.91c16.563 4 32.998 8.94 49.418 13.5 16.839 4.69 34.057 9.03 50.442 15.12l-.453 60.11c-33.781-5.24-66.912-16.4-100.136-24.38-.176-20.72-2.388-43.96.729-64.35"/><path fill="#c4f1e2" d="M415.2 1432.57c27.408 8.61 55.297 15.89 82.804 24.25a3855 3855 0 0 1-.678 40.13c-8.286 1.26-67.731-17.58-81.952-20.67-.413-14.54-.146-29.16-.174-43.71"/><path fill="#54286a" d="M406.101 1719.64c33.633 6.9 67.574 12.52 101.006 20.36-.144 20.09.326 40.21-.337 60.29-13.794-.94-27.673-3.63-41.336-5.77-20.016-3.12-40.113-6.12-59.98-10.1a4736 4736 0 0 0 .647-64.78"/><path fill="#c4f1e2" d="M415.888 1733.28a3792 3792 0 0 0 81.863 15.29l.143 41.71-82.138-13.83z"/><path fill="#8e72b7" d="M0 1492.39a17435 17435 0 0 1 177.966-56.8c62.491-19.88 125.019-40.32 187.979-58.63l.316 261.04c.271 65.82 1.611 131.85.414 197.66l-112.633-6.47c-31.335-2.1-62.807-5.41-94.212-6.03 19.433-5.33 39.823-8.43 59.615-12.29a3388 3388 0 0 0 80.991-16.95c13.501-2.88 27.196-5.16 40.585-8.49a5343 5343 0 0 0 .439-65.05c-26.648 3.18-61.529 13.11-88.816 18.61a4392 4392 0 0 0-136.302 28.79c-23.336 5.12-47.061 9.65-70.149 15.74.624 10.95.357 21.89-.157 32.84-15.362-.9-30.695-2.82-46.036-3.58z"/><path fill="#54286a" d="M335.274 1423.02c2.671-.24 3.704-.69 6.065.68 2.623 12.76.668 44.25.616 58.83-12.195 5.76-25.647 9.24-38.5 13.22a3086 3086 0 0 1-68.053 20.29 13457 13457 0 0 0-182.456 53.86c-2.11.65-3.193.91-5.361.4-2.333-9.83-.595-47.91-.578-60.45 47.93-13.14 95.243-28.19 142.746-42.75z"/><path fill="#c4f1e2" d="m232.94 1465.09 2.191.21c2.845 7.82 1.057 32.66 1.098 42.19l-80.605 23.43-1.341.12c-2.943-4.21-1.337-34.14-1.291-41.44a7840 7840 0 0 1 79.948-24.51m-92.556 27.92c.858-.07 1.621.34 2.423.62 2.631 11.28.935 28.74.995 40.73-27.685 8.89-55.898 16.5-83.857 24.49-2.087.67-.967.54-3.376.22-3.465-8.29-.868-30.88-.637-40.9 28.298-7.77 56.385-16.59 84.452-25.16m191.781-58.91.645.48c2.318 5.67.903 35.43.919 43.64-28.717 9.74-58.208 17.56-87.246 26.29l-.794.03c-2.801-3.6-1.416-36.12-1.417-42.97 29.119-9.7 58.769-17.76 87.893-27.47"/><path fill="#54286a" d="m338.583 1521.15 1.772.38c3.095 5.93.83 52.17.699 61.85-16.16 6.33-33.813 10.1-50.593 14.56a8110 8110 0 0 1-88.445 23.12c-50.31 12.91-100.175 28.3-150.793 39.88l-2.998-.18c-3.49-6.84-1.274-49.25-1.24-60.23l160.17-43.51c43.779-12.09 87.388-24.73 131.428-35.87"/><path fill="#c4f1e2" d="m234.008 1560.15.63.18c2.559 3.12 1.367 37.31 1.366 44.04-26.918 4.87-54.344 13.56-80.795 20.8l-1.117-.19c-2.911-4.38-1.33-35.35-1.323-42.65zm-92.105 25.02 1.161.51c2.494 7.98.406 32.97.282 42.77-28.588 8.04-57.598 14.86-86.335 22.38l-1.424-1.14c-1.564-13.17-.349-27.66-.246-40.98zm190.407-52.02.701.4c2.493 6.7.927 35.48.947 44.51a6051 6051 0 0 0-88.247 23.67l-.884-.51c-2.549-9.51-.703-32.85-.68-43.83 28.659-9.46 59.059-16.06 88.163-24.24"/><path fill="#54286a" d="m338.84 1620.28 2.08.08c2.872 6.59.735 53.05.663 63.51-10.481 4.11-22.172 6.03-33.138 8.55l-52.992 12.27c-68.659 16.02-137.615 31.28-206.06 48.15l-1.163-.25c-2.865-4.63-1.287-52.3-1.301-61.11 72.663-16.41 145.102-35.1 217.465-52.86 24.809-6.1 49.518-12.78 74.446-18.34"/><path fill="#c4f1e2" d="m141.983 1679.23.312.22c2.655 4.12.775 36.47.723 43.01a2221 2221 0 0 0-86.806 19.74c-2.37-12.77-.868-28.24-.869-41.26zm89.864-22.01h2.375c3.434 5.98 1.553 35.61 1.531 44.22l-79.597 18.31-2.172.29-1.181-1.08c-2.189-13.02-.061-29.12.133-42.46a3254 3254 0 0 1 78.911-19.28m97.268-24.06 2.648-.17c3.514 5.26 2.059 37.26 2.156 45.5-28.704 5.67-57.227 13.05-85.68 19.86-2.224.4-1.16.5-3.198-.23-2.996-8.74-1.044-33.62-1.028-43.87a3341 3341 0 0 0 85.102-21.09"/><path fill="#8e72b7" d="M0 1823.58a15500 15500 0 0 0 214.996 12.8l439.001 24.99a15160 15160 0 0 1 206.986 10.18c47.415 2.27 95.065 3.79 142.377 7.7 4.69 10.29 11.31 14.49 21.66 18.22 21.43 7.71 69.02 4.89 93.34 5.01l82.68.51 134.58 2.4 309.33 4.92c40.81.83 81.51.66 122.31 2.63 54.6 2.65 109.42 5.15 163.88 10.02 38.8 3.46 77.96 9.75 116.86 11.25V2048H0z"/></svg>