<svg version="1.1" xmlns="http://www.w3.org/2000/svg" style="display: block;" viewBox="0 0 2048 2048" width="1024" height="1024">
<defs>
	<linearGradient id="Gradient1" gradientUnits="userSpaceOnUse" x1="926.335" y1="1916.03" x2="1131.87" y2="-93.5955">
		<stop class="stop0" offset="0" stop-opacity="1" stop-color="rgb(88,54,106)"/>
		<stop class="stop1" offset="1" stop-opacity="1" stop-color="rgb(99,85,104)"/>
	</linearGradient>
</defs>
<path transform="translate(0,0)" fill="url(#Gradient1)" d="M 0 0 L 2048 0 L 2048 1934.21 L 2048 2048 L 0 2048 L 0 1823.58 L 0 1812.78 L 0 1492.39 L 0 1482.19 L 0 1466.08 L 0 1454.06 L 0 1334.89 L 0 1324.44 L 0 1307.21 L 0 0 z"/>
<path transform="translate(0,0)" fill="rgb(142,114,183)" d="M 1671.72 1886.78 C 1676.41 1890.71 1681.28 1895.17 1684.65 1900.28 C 1680.91 1900.49 1677.12 1900.39 1673.37 1900.42 C 1673.12 1895.84 1672.37 1891.31 1671.72 1886.78 z"/>
<path transform="translate(0,0)" fill="rgb(196,241,226)" d="M 1777.56 848.711 C 1780.65 852.204 1781.26 858.624 1781.28 863.167 L 1780.14 863.976 L 1778.5 862.633 L 1769.74 855.744 C 1772.28 853.335 1774.94 851.041 1777.56 848.711 z"/>
<path transform="translate(0,0)" fill="rgb(142,114,183)" d="M 1320.13 1878.82 C 1323.44 1879.01 1327.46 1879.08 1330.16 1881.26 C 1333.79 1884.19 1333.8 1889.73 1334.29 1894.01 C 1331.42 1894.11 1328.88 1894.32 1326.12 1893.35 C 1322.36 1889.89 1321.62 1883.65 1320.13 1878.82 z"/>
<path transform="translate(0,0)" fill="rgb(142,114,183)" d="M 1306.47 1880.08 C 1308.93 1880 1311.06 1880.12 1313.49 1880.53 C 1315.49 1882.02 1317.51 1883.74 1318.39 1886.16 C 1319.33 1888.71 1319.6 1890.58 1318.7 1893.08 L 1317.01 1893.59 C 1312.74 1893.66 1308.03 1894.41 1304.47 1891.69 C 1303.15 1887.4 1304.73 1884.09 1306.47 1880.08 z"/>
<path transform="translate(0,0)" fill="rgb(142,114,183)" d="M 1236.79 1877.14 C 1238.85 1877 1241.18 1876.58 1243.09 1877.5 C 1244.26 1878.06 1245.25 1880.31 1245.62 1881.57 C 1246.53 1884.6 1246.05 1888.46 1244.45 1891.21 C 1243.63 1892.62 1242.54 1892.36 1241.05 1892.66 A 132.392 132.392 0 0 1 1238.44 1892.73 C 1235.78 1892.77 1233.4 1893.07 1231.69 1890.65 C 1230.11 1888.43 1230.08 1886.52 1230.72 1883.98 C 1231.55 1880.67 1234.05 1878.82 1236.79 1877.14 z"/>
<path transform="translate(0,0)" fill="rgb(196,241,226)" d="M 847.384 395.806 C 847.758 395.811 848.133 395.797 848.506 395.821 C 851.677 396.022 854.429 397.121 856.408 399.723 C 857.991 401.804 858.269 404.449 857.611 406.932 C 856.789 410.029 854.582 411.614 852.148 413.375 C 848.769 413.152 844.953 412.309 842.729 409.49 C 841.342 407.731 841.127 405.973 841.358 403.842 C 841.774 400.002 844.568 398.013 847.384 395.806 z"/>
<path transform="translate(0,0)" fill="rgb(196,241,226)" d="M 1019.55 199.927 C 1022.77 199.869 1026.03 200.202 1028.61 202.361 C 1030.49 203.94 1031.53 206.205 1031.32 208.67 C 1030.98 212.716 1028.38 214.619 1025.41 216.834 C 1021.89 216.88 1018.63 216.371 1016.02 213.812 C 1014.2 212.034 1013.74 209.526 1014.1 207.085 C 1014.61 203.715 1017.1 201.93 1019.55 199.927 z"/>
<path transform="translate(0,0)" fill="rgb(142,114,183)" d="M 1258.16 1871.67 C 1264.03 1874.26 1268.24 1885.46 1270.5 1891.3 L 1269.69 1892.97 L 1255.04 1892.88 C 1254.75 1885.45 1253.01 1877.56 1258.16 1871.67 z"/>
<path transform="translate(0,0)" fill="rgb(196,241,226)" d="M 518.68 355.851 C 522.248 356.225 526.627 357.018 528.849 360.162 C 530.363 362.305 530.66 364.382 530.016 366.911 C 529.248 369.924 526.624 371.717 524.291 373.475 C 520.751 373.276 517.851 373.082 515.132 370.436 C 513.309 368.661 512.248 366.424 512.536 363.845 C 512.984 359.838 515.647 357.937 518.68 355.851 z"/>
<path transform="translate(0,0)" fill="rgb(196,241,226)" d="M 722.939 647.933 C 725.314 648.404 728.31 648.886 730.1 650.644 C 732.057 652.566 733.155 654.582 733.018 657.396 C 732.801 661.865 730.274 664.353 727.09 667.122 C 723.921 666.475 720.412 665.558 718.161 663.04 C 716.466 661.144 715.337 659.05 715.755 656.417 C 716.41 652.296 719.763 650.067 722.939 647.933 z"/>
<path transform="translate(0,0)" fill="rgb(196,241,226)" d="M 1410.95 273.835 C 1414.14 273.518 1417.3 273.426 1420.1 275.304 C 1422.22 276.728 1423.64 278.952 1423.83 281.518 C 1424.14 285.653 1422.06 288.257 1419.5 291.137 C 1415.63 291.303 1410.8 291.23 1408.09 287.911 C 1406.49 285.947 1406.07 284.65 1406.05 282.158 C 1406.03 278.419 1408.49 276.249 1410.95 273.835 z"/>
<path transform="translate(0,0)" fill="rgb(196,241,226)" d="M 483.006 144.726 C 486.7 145.42 490.039 145.986 492.25 149.431 C 493.614 151.557 493.868 153.896 493.053 156.281 C 491.62 160.472 488.577 161.791 484.816 163.389 C 481.984 162.73 479.138 161.762 477.196 159.464 C 475.625 157.606 474.911 155.226 475.445 152.823 C 476.364 148.687 479.677 146.763 483.006 144.726 z"/>
<path transform="translate(0,0)" fill="rgb(196,241,226)" d="M 1559.03 326.931 C 1562.19 326.965 1565.27 327.438 1567.72 329.566 C 1569.78 331.348 1570.83 333.568 1570.69 336.334 C 1570.48 340.673 1568.06 342.706 1564.96 345.213 C 1561.29 345.366 1558 345.497 1555.09 342.781 C 1553.17 340.988 1552.47 338.656 1552.73 336.079 C 1553.19 331.637 1555.86 329.587 1559.03 326.931 z"/>
<path transform="translate(0,0)" fill="rgb(196,241,226)" d="M 145.961 274.784 C 149.875 275.647 153.072 276.398 155.215 280.204 C 156.452 282.4 156.807 284.797 156.023 287.216 C 154.73 291.205 152.047 292.557 148.487 294.046 C 145.012 293.197 140.804 291.742 138.974 288.368 C 138.146 286.84 137.848 285.206 138.2 283.526 C 139.153 278.978 142.332 277.152 145.961 274.784 z"/>
<path transform="translate(0,0)" fill="rgb(196,241,226)" d="M 1917.91 280.877 C 1921.52 280.699 1925.4 280.682 1928.27 283.265 C 1930.2 285.003 1931.48 286.871 1931.41 289.576 C 1931.29 293.802 1928.61 296.24 1925.53 298.676 C 1922.51 298.834 1918.68 298.513 1916.22 296.51 C 1914.22 294.881 1912.89 293.029 1912.78 290.364 C 1912.59 286.062 1915.04 283.599 1917.91 280.877 z"/>
<path transform="translate(0,0)" fill="rgb(196,241,226)" d="M 1434.92 666.986 C 1438.09 667.459 1441.05 668.033 1443.34 670.533 C 1445.1 672.458 1445.94 674.869 1445.63 677.47 C 1445.13 681.846 1442.56 684.038 1439.24 686.543 C 1435.36 686.329 1432.18 685.928 1429.55 682.647 C 1427.93 680.617 1427.44 678.154 1427.92 675.625 C 1428.76 671.24 1431.49 669.344 1434.92 666.986 z"/>
<path transform="translate(0,0)" fill="rgb(142,114,183)" d="M 1076.89 1875.83 C 1077.29 1875.85 1077.7 1875.86 1078.09 1875.91 C 1082.2 1876.41 1088.02 1880.51 1090.02 1884.15 C 1091.34 1886.56 1090.94 1887.17 1090.19 1889.62 C 1086.83 1891.43 1084.28 1890.89 1080.51 1890.84 L 1063.85 1890.71 C 1064.34 1888.58 1064.79 1886.36 1065.67 1884.36 C 1067.88 1879.3 1072.13 1877.89 1076.89 1875.83 z"/>
<path transform="translate(0,0)" fill="rgb(196,241,226)" d="M 1216.32 1586.07 L 1216.8 1585.87 C 1216.2 1614.44 1220.15 1643.27 1219.97 1671.89 L 1218.73 1672.92 L 1216.38 1672.39 C 1212.42 1666.86 1214.7 1597.35 1216.32 1586.07 z"/>
<path transform="translate(0,0)" fill="rgb(196,241,226)" d="M 183.063 469.612 C 185.793 477.509 184.802 508.712 184.615 519.009 C 182.76 521.678 180.156 522.534 177.32 523.984 L 176.3 522.902 C 174.517 506.639 177.767 485.175 183.063 469.612 z"/>
<path transform="translate(0,0)" fill="rgb(142,114,183)" d="M 1457.14 1886.14 C 1465.71 1885.8 1481.81 1882.79 1488.86 1887.92 C 1491.44 1889.8 1491.6 1894.13 1492.09 1897.06 C 1480.85 1897.08 1469.15 1897.78 1457.98 1896.5 C 1456.64 1893.35 1457.11 1889.55 1457.14 1886.14 z"/>
<path transform="translate(0,0)" fill="rgb(142,114,183)" d="M 1095.35 1871.4 C 1100.35 1871.34 1107.96 1870.28 1112.41 1872.73 C 1115.39 1874.39 1118.28 1877.48 1119.07 1880.86 C 1119.91 1884.48 1119.95 1887.55 1117.9 1890.69 L 1115.25 1891.12 L 1102.95 1891.14 C 1101.49 1886.97 1099.8 1878.95 1096.27 1876.21 C 1093.46 1874.04 1092.15 1875.12 1090.69 1871.41 L 1090.55 1872.18 L 1095.35 1871.4 z"/>
<path transform="translate(0,0)" fill="rgb(196,241,226)" d="M 1415.85 1272.23 L 1418.01 1272.02 L 1419.3 1273.78 L 1418.65 1275.77 C 1413.7 1278.21 1408.32 1278.88 1403.12 1280.6 C 1379.85 1288.3 1356.09 1294.5 1332.41 1300.81 C 1330.01 1299.83 1330.95 1300.61 1329.54 1298.51 C 1329.75 1297.27 1329.9 1295.74 1330.59 1294.66 C 1331.59 1293.09 1333.56 1291.94 1335.28 1291.34 C 1343.14 1288.59 1352.48 1287.37 1360.68 1285.46 A 4882.04 4882.04 0 0 0 1415.85 1272.23 z"/>
<path transform="translate(0,0)" fill="rgb(196,241,226)" d="M 1558.59 1873.38 C 1575.65 1871.94 1593.31 1872.94 1610.19 1875.56 C 1616.69 1876.57 1627.88 1879.2 1631.86 1884.67 L 1630.98 1886.22 C 1609.43 1886.01 1586.76 1886.85 1565.46 1883.57 C 1562.56 1880.98 1559.23 1878.53 1557.54 1874.95 L 1558.59 1873.38 z"/>
<path transform="translate(0,0)" fill="rgb(196,241,226)" d="M 782.113 1549.1 L 783.42 1550 C 784.621 1555.95 784.922 1636.67 783.869 1639.88 C 783.061 1642.33 779.527 1642.73 777.305 1643.51 L 776.65 1642.18 L 776.583 1643.19 C 774.004 1639.94 774.528 1561.82 774.979 1552.02 C 776.864 1549.8 779.344 1549.8 782.113 1549.1 z"/>
<path transform="translate(0,0)" fill="rgb(196,241,226)" d="M 885.65 1504.12 C 886.904 1503.93 886.04 1503.99 888.224 1504.49 C 889.552 1507.66 888.983 1511.94 888.913 1515.37 C 851.627 1521.94 814.173 1530.33 777.266 1538.79 C 775.697 1539 776.647 1539.02 774.489 1538.15 L 774.862 1536.56 C 781.58 1530.1 871.18 1507.93 885.65 1504.12 z"/>
<path transform="translate(0,0)" fill="rgb(86,57,105)" d="M 1342.85 1662.42 L 1346.02 1659.82 A 3869.56 3869.56 0 0 1 1348.29 1705.01 C 1360.25 1707.41 1371.53 1710.32 1382.87 1714.87 C 1382.96 1722.49 1383.44 1730.29 1383.13 1737.9 C 1379.73 1743.24 1381.39 1749.47 1378.25 1754.8 L 1378.15 1761.63 C 1378.94 1769.01 1381.3 1798.3 1378.94 1803.88 L 1380.17 1804.85 C 1378.13 1805.3 1376.43 1805.35 1374.35 1805.27 L 1373.03 1803.62 C 1373.29 1794.11 1371.26 1784.26 1370.71 1774.69 C 1369.84 1759.54 1370.22 1744.64 1370.28 1729.49 C 1370.3 1725.8 1370.12 1722.66 1372.93 1719.86 C 1374.86 1719.15 1375.8 1719.17 1377.73 1719.7 C 1379.25 1720.12 1379.61 1720.26 1381.25 1720.12 L 1380.2 1717.25 L 1379.87 1720.28 L 1380.64 1718.1 C 1376 1710.72 1356.92 1709.54 1348.69 1706.47 C 1343.05 1699.65 1346.53 1673.13 1342.85 1662.42 z"/>
<path transform="translate(0,0)" fill="rgb(196,241,226)" d="M 1374.16 1776.67 C 1373.83 1765.84 1373.66 1754.98 1373.06 1744.16 C 1372.75 1738.58 1371.68 1732.64 1372.06 1727.08 C 1372.24 1724.53 1372.55 1723.72 1374.04 1721.77 L 1376.28 1722.18 C 1378.9 1727.58 1377.96 1747.56 1378.25 1754.8 L 1378.15 1761.63 C 1378.94 1769.01 1381.3 1798.3 1378.94 1803.88 L 1376.21 1803.47 C 1372.61 1798.5 1374.12 1783.17 1374.16 1776.67 z"/>
<path transform="translate(0,0)" fill="rgb(196,241,226)" d="M 1777.04 1871.79 C 1787.09 1875.41 1851.4 1900.3 1855.94 1905.28 C 1856.68 1906.09 1857.11 1907.13 1857.7 1908.06 C 1831.47 1906.85 1805.31 1903.41 1779.07 1902.8 C 1777.95 1892.52 1777.61 1882.11 1777.04 1871.79 z"/>
<path transform="translate(0,0)" fill="rgb(196,241,226)" d="M 423.743 1099.6 A 480.821 480.821 0 0 0 447.893 1108.52 A 2461.38 2461.38 0 0 0 448.35 1164.61 C 440.443 1161.35 432.071 1158.85 423.983 1156.05 C 423.335 1137.25 423.672 1118.4 423.743 1099.6 z"/>
<path transform="translate(0,0)" fill="rgb(196,241,226)" d="M 270.549 385.159 C 273.115 385.014 275.174 385.168 277.682 385.587 C 278.974 396.103 279.609 493.357 277.357 501.723 L 275.617 502.084 L 266.144 498.39 C 266.153 481.75 263.996 395.912 266.84 386.881 L 270.549 385.159 z"/>
<path transform="translate(0,0)" fill="rgb(196,241,226)" d="M 884.924 1527.32 L 887.403 1527.35 C 889.646 1531.87 888.408 1608.3 888.477 1620.4 L 875.236 1622.68 C 874.173 1622.45 874.91 1622.67 873.242 1621.52 A 3999.89 3999.89 0 0 1 872.003 1529.67 L 884.924 1527.32 z"/>
<path transform="translate(0,0)" fill="rgb(196,241,226)" d="M 1716.49 829.809 C 1738.22 846.051 1761.09 860.673 1782.81 876.899 L 1784.99 899.392 C 1763.23 883.822 1740.67 869.536 1717.95 855.42 C 1717.1 846.937 1716.92 838.326 1716.49 829.809 z"/>
<path transform="translate(0,0)" fill="rgb(196,241,226)" d="M 211.68 421.719 L 212.419 422.437 C 214.69 429.644 212.991 493.521 212.977 506.398 L 193.326 515.929 C 192.723 497.603 188.996 463.955 194.872 447.579 C 198.446 437.621 204.917 429.681 211.68 421.719 z"/>
<path transform="translate(0,0)" fill="rgb(196,241,226)" d="M 1718.54 864.163 C 1741.17 878.585 1763.87 893.354 1785.65 909.032 L 1788.04 933.496 C 1779.66 929.46 1771.38 923.079 1763.48 918.049 A 2984.76 2984.76 0 0 0 1720.16 891.057 A 1967.17 1967.17 0 0 1 1718.54 864.163 z"/>
<path transform="translate(0,0)" fill="rgb(196,241,226)" d="M 238.635 398.759 C 240.205 408.807 238.99 420.628 238.952 430.899 L 238.928 494.284 L 221.402 502.578 C 220.391 491.794 220.96 480.677 220.974 469.841 L 221.065 412.182 C 226.789 407.566 232.785 403.219 238.635 398.759 z"/>
<path transform="translate(0,0)" fill="rgb(196,241,226)" d="M 893.909 1477.34 C 893.948 1477.38 893.994 1477.41 894.026 1477.45 C 896.079 1480.25 895.127 1487.26 895.101 1490.74 C 855.06 1500 814.936 1509.19 775.501 1520.81 C 775.196 1515.86 774.678 1511.01 774.042 1506.1 A 3985.88 3985.88 0 0 1 893.909 1477.34 z"/>
<path transform="translate(0,0)" fill="rgb(196,241,226)" d="M 1720.9 900.368 C 1742.05 911.503 1767.88 930.074 1788.74 943.426 A 1300.11 1300.11 0 0 1 1791.17 969.214 C 1768.93 957.74 1745.8 939.531 1722.75 926.837 A 728.91 728.91 0 0 1 1720.9 900.368 z"/>
<path transform="translate(0,0)" fill="rgb(196,241,226)" d="M 1725.92 970.434 C 1734.1 975.081 1741.89 980.931 1749.88 985.972 C 1764.9 995.45 1780.34 1004.5 1794.77 1014.86 C 1795.33 1023.41 1796.42 1031.97 1797.15 1040.52 A 1618.59 1618.59 0 0 0 1727.09 996.632 L 1725.92 970.434 z"/>
<path transform="translate(0,0)" fill="rgb(196,241,226)" d="M 857.19 1309.2 L 858.774 1309.46 C 860.413 1312.62 859.691 1317.11 859.584 1320.6 C 814.895 1331.93 770.411 1343.99 725.588 1354.81 L 724.071 1354.59 C 722.341 1352.01 722.983 1347.23 723.003 1344.12 C 767.036 1330.54 812.356 1319.84 857.19 1309.2 z"/>
<path transform="translate(0,0)" fill="rgb(196,241,226)" d="M 1722.95 935.322 C 1731.92 939.087 1740.88 946.283 1749.07 951.563 L 1792.37 979.058 A 2002.35 2002.35 0 0 1 1794.15 1005.15 C 1770.84 991.528 1749.1 975.001 1725.32 962.154 C 1724.82 953.203 1723.79 944.248 1722.95 935.322 z"/>
<path transform="translate(0,0)" fill="rgb(196,241,226)" d="M 971.015 1812.02 C 988.609 1816.59 1006.49 1820.2 1024.24 1824.1 C 1014.97 1830.71 1006.72 1837.52 999.381 1846.27 C 996.463 1851.96 998.153 1861.64 998.464 1867.88 A 1185.69 1185.69 0 0 0 971.066 1866.83 L 971.015 1812.02 z"/>
<path transform="translate(0,0)" fill="rgb(196,241,226)" d="M 1730.01 1042.47 C 1754.32 1056.08 1777.8 1071.64 1801.43 1086.4 C 1802.2 1095.73 1802.93 1105.06 1804.18 1114.35 C 1781.52 1097.54 1756.57 1081.46 1731.38 1068.72 C 1731.18 1059.93 1731.02 1051.21 1730.01 1042.47 z"/>
<path transform="translate(0,0)" fill="rgb(196,241,226)" d="M 1727.73 1006.45 C 1751.82 1019.99 1775.25 1035.19 1798.32 1050.41 A 979.54 979.54 0 0 1 1800.19 1075.96 C 1776.67 1061.18 1752.83 1047.06 1729.15 1032.57 C 1728.4 1023.87 1728.04 1015.18 1727.73 1006.45 z"/>
<path transform="translate(0,0)" fill="rgb(196,241,226)" d="M 857.648 1332.15 L 859.273 1332.42 C 860.821 1336.16 860.06 1341.54 859.992 1345.57 C 842.266 1348.3 824.502 1354.03 807.137 1358.51 L 726.85 1378.8 C 726.101 1378.89 725.116 1378.66 724.36 1378.56 C 722.74 1375.21 723.447 1370.32 723.508 1366.65 L 857.648 1332.15 z"/>
<path transform="translate(0,0)" fill="rgb(196,241,226)" d="M 383.065 441.557 C 383.415 441.831 383.793 442.075 384.116 442.381 C 387.077 445.187 389.591 450.673 391.506 454.318 C 406.939 483.682 405.128 516.583 404.926 548.645 C 397.624 547.118 390.212 545.962 382.865 544.652 C 383.161 510.288 382.495 475.921 383.065 441.557 z"/>
<path transform="translate(0,0)" fill="rgb(196,241,226)" d="M 1725.14 553.768 C 1745.68 564.609 1776.34 585.262 1794.72 599.581 C 1794.92 605.975 1797.8 619.789 1795.18 624.974 C 1781.6 616.166 1767.83 607.604 1754.39 598.595 C 1749.7 595.452 1743.46 589.52 1738.35 587.609 C 1736.12 586.775 1732.83 586.881 1730.43 586.795 C 1728.37 586.721 1729.36 587.041 1727.59 585.884 C 1725.12 576.007 1725.14 563.931 1725.14 553.768 z"/>
<path transform="translate(0,0)" fill="rgb(196,241,226)" d="M 1735.91 1149.69 C 1756.57 1159.51 1794.56 1184.69 1812.59 1198.68 C 1814.11 1206.65 1814.84 1214.75 1815.69 1222.81 C 1808.5 1220.36 1800.65 1214.13 1794.13 1209.98 C 1775.63 1198.21 1756.94 1184.72 1737.24 1175.08 C 1736.46 1166.6 1736.12 1158.19 1735.91 1149.69 z"/>
<path transform="translate(0,0)" fill="rgb(196,241,226)" d="M 1732.41 1078.33 C 1754.68 1088.75 1784.58 1109.45 1804.98 1124.36 C 1806.68 1133.21 1807.24 1142.48 1808.22 1151.45 C 1783.86 1135.47 1759.33 1117.59 1733.11 1104.79 C 1732.99 1095.97 1732.64 1087.15 1732.41 1078.33 z"/>
<path transform="translate(0,0)" fill="rgb(196,241,226)" d="M 1733.94 1114.21 C 1742.76 1117.86 1751.57 1124.02 1759.69 1129.06 A 2526.92 2526.92 0 0 1 1809.54 1161.02 L 1812.11 1188.67 C 1805.9 1185.91 1799.7 1180.55 1794.07 1176.67 C 1776.11 1164.27 1755.77 1148.31 1735.17 1140.98 L 1733.94 1114.21 z"/>
<path transform="translate(0,0)" fill="rgb(196,241,226)" d="M 924.171 1528.37 A 1962.21 1962.21 0 0 0 949.056 1532.67 C 949.038 1546.93 950.992 1598.49 948.761 1608.33 L 946.825 1608.91 C 939.569 1609.96 932.431 1611.51 925.262 1613.03 C 924.146 1584.91 924.666 1556.53 924.171 1528.37 z"/>
<path transform="translate(0,0)" fill="rgb(196,241,226)" d="M 1737.42 1184.77 C 1764.62 1199.57 1791.07 1216.76 1816.8 1233.94 L 1819.14 1257.62 C 1808.98 1252.82 1799.17 1246.26 1789.46 1240.53 A 4539.16 4539.16 0 0 1 1739.09 1210.61 L 1737.42 1184.77 z"/>
<path transform="translate(0,0)" fill="rgb(196,241,226)" d="M 1764.94 1659.33 C 1792.3 1670.46 1818.9 1684.17 1845.56 1696.89 A 580.913 580.913 0 0 1 1847.12 1722.84 C 1838.48 1719.5 1829.9 1714.41 1821.56 1710.27 C 1803.26 1701.18 1784.88 1691.98 1766.16 1683.81 A 791.284 791.284 0 0 1 1764.94 1659.33 z"/>
<path transform="translate(0,0)" fill="rgb(196,241,226)" d="M 1739 1220.42 C 1749.23 1225.32 1759.18 1231.78 1768.95 1237.57 L 1820.47 1268.26 L 1821.95 1293.24 C 1812.15 1288.24 1802.66 1281.86 1793.11 1276.33 C 1775.87 1266.35 1758.44 1256.66 1741.07 1246.91 C 1740.09 1238.1 1739.59 1229.26 1739 1220.42 z"/>
<path transform="translate(0,0)" fill="rgb(196,241,226)" d="M 760.01 1381.3 C 760.049 1381.34 760.098 1381.36 760.128 1381.4 C 762.714 1385.01 761.884 1436.13 761.926 1444.78 C 752.888 1441.24 743.441 1438.48 734.222 1435.44 L 723.19 1432.2 L 723.004 1390.29 L 760.01 1381.3 z"/>
<path transform="translate(0,0)" fill="rgb(196,241,226)" d="M 1743.02 1293.31 C 1753.57 1297.03 1764.31 1304.57 1773.99 1310.15 C 1791.04 1319.98 1808.5 1329.47 1824.9 1340.36 A 1785.52 1785.52 0 0 1 1826.28 1365.12 C 1801.54 1347.67 1771.91 1334.79 1745.07 1320.83 C 1744.82 1311.63 1743.93 1302.47 1743.02 1293.31 z"/>
<path transform="translate(0,0)" fill="rgb(196,241,226)" d="M 1774.88 1835.09 C 1801.97 1846.87 1828.07 1861.67 1855.65 1872.17 A 521.215 521.215 0 0 1 1857.15 1898.46 C 1831.67 1885.09 1804.17 1873.2 1777.02 1863.66 A 743.735 743.735 0 0 1 1774.88 1835.09 z"/>
<path transform="translate(0,0)" fill="rgb(196,241,226)" d="M 1748.02 1366.62 C 1775.52 1379.46 1801.77 1394.88 1829.05 1408.19 C 1829.9 1416.99 1830.23 1425.88 1830.77 1434.7 C 1822.58 1431.47 1814.43 1426.21 1806.61 1422.04 C 1787.72 1411.96 1768.85 1401.57 1749.2 1393 A 585.402 585.402 0 0 1 1748.02 1366.62 z"/>
<path transform="translate(0,0)" fill="rgb(196,241,226)" d="M 1756.36 1511.85 C 1783.7 1523.31 1810.95 1536.83 1836.94 1551.1 A 523.078 523.078 0 0 1 1838.1 1576.59 C 1812.24 1562.51 1785.1 1550.87 1758.17 1539.02 C 1757.14 1530.03 1756.88 1520.88 1756.36 1511.85 z"/>
<path transform="translate(0,0)" fill="rgb(196,241,226)" d="M 1766.92 1693.1 C 1792.76 1702.83 1822.5 1719.26 1847.82 1731.59 C 1848.97 1740.54 1849.04 1749.68 1849.4 1758.7 C 1823.09 1743.91 1795.14 1731.76 1768.19 1718.14 A 534.072 534.072 0 0 1 1766.92 1693.1 z"/>
<path transform="translate(0,0)" fill="rgb(196,241,226)" d="M 1086.95 1418.8 A 563.948 563.948 0 0 1 1109.87 1425.66 A 6509.77 6509.77 0 0 1 1109.77 1515.44 C 1102.22 1513.95 1094.63 1511.5 1087.16 1509.53 L 1086.95 1418.8 z"/>
<path transform="translate(0,0)" fill="rgb(84,40,106)" d="M 1342.85 1662.42 C 1343.03 1661.83 1343.22 1661.25 1343.38 1660.65 C 1345.48 1652.84 1341.98 1604.66 1341.39 1593.03 L 1333.79 1416.01 C 1333.06 1401.82 1331.78 1387.65 1331.25 1373.45 C 1330.83 1362.21 1331.21 1350.91 1330.68 1339.69 C 1330.26 1330.7 1328.25 1320.58 1329.14 1311.69 C 1334.26 1308.74 1340.98 1307.09 1346.8 1306.27 C 1354.1 1305.23 1370.68 1295.85 1376.92 1299.66 C 1376.42 1340.54 1379.29 1381.07 1380.89 1421.92 A 25992.1 25992.1 0 0 1 1393.72 1742.43 C 1394.18 1758.26 1396.51 1774.07 1396.76 1789.84 C 1396.82 1793.65 1397.58 1802.66 1395 1805.51 C 1390.46 1805.62 1384.21 1803.4 1380.17 1804.85 L 1378.94 1803.88 C 1381.3 1798.3 1378.94 1769.01 1378.15 1761.63 L 1378.25 1754.8 C 1381.39 1749.47 1379.73 1743.24 1383.13 1737.9 C 1386.42 1755.41 1382.06 1783.92 1386.42 1798.59 C 1387.25 1801.39 1388.27 1803.53 1391 1804.88 L 1392.77 1803.37 C 1396.39 1791.93 1391.32 1723.58 1390.73 1706.89 L 1373.45 1300.16 A 1185.97 1185.97 0 0 1 1330.92 1312.07 C 1331.5 1343.92 1333.7 1375.97 1335.04 1407.81 L 1346.02 1659.82 L 1342.85 1662.42 z"/>
<path transform="translate(0,0)" fill="rgb(196,241,226)" d="M 1771 1763.37 C 1798.31 1775.23 1825.04 1789.32 1851.91 1802.21 C 1852.74 1811.15 1852.91 1820.08 1853.12 1829.05 C 1826.25 1815.43 1798.74 1803.03 1772.21 1788.74 A 473.482 473.482 0 0 1 1771 1763.37 z"/>
<path transform="translate(0,0)" fill="rgb(196,241,226)" d="M 1753.87 1475.15 C 1781 1487.15 1809.41 1500.94 1834.89 1516.09 A 1317.09 1317.09 0 0 0 1836.38 1542.66 C 1810.09 1527.84 1782.31 1515.85 1755.95 1501.19 C 1755.09 1492.54 1754.67 1483.82 1753.87 1475.15 z"/>
<path transform="translate(0,0)" fill="rgb(196,241,226)" d="M 1752.21 1439.31 C 1779.54 1452.27 1806.24 1466.61 1832.96 1480.77 C 1833.9 1489.74 1834.69 1498.63 1835.04 1507.65 C 1808.42 1492.55 1780.68 1479.85 1753.46 1465.95 A 815.101 815.101 0 0 0 1752.21 1439.31 z"/>
<path transform="translate(0,0)" fill="rgb(196,241,226)" d="M 1769.04 1727.59 C 1796.37 1739.57 1822.42 1754.68 1849.96 1766.14 C 1850.62 1775.25 1850.85 1784.35 1851.09 1793.47 C 1824.7 1779.09 1796.79 1767.46 1770.19 1753.44 C 1769.9 1744.82 1769.23 1736.23 1769.04 1727.59 z"/>
<path transform="translate(0,0)" fill="rgb(196,241,226)" d="M 1745.58 1329.95 C 1768.52 1339.52 1806.15 1361.36 1827.17 1374.99 C 1828.03 1383.18 1828.44 1391.45 1829.04 1399.67 C 1820.65 1396.02 1812.47 1391.04 1804.36 1386.76 C 1785.5 1376.79 1766.65 1366.55 1747.15 1357.86 A 962.772 962.772 0 0 1 1745.58 1329.95 z"/>
<path transform="translate(0,0)" fill="rgb(142,114,183)" d="M 896.862 1499.68 C 902.509 1500.15 908.282 1501.52 913.868 1502.53 C 914.95 1513.23 917.585 1611.38 914.734 1615.89 L 897.033 1619.39 L 896.862 1499.68 z"/>
<path transform="translate(0,0)" fill="rgb(196,241,226)" d="M 1763.06 1622.59 C 1787.28 1632.22 1819.8 1648.63 1842.86 1661.24 C 1843.12 1670.08 1844.29 1679 1845.1 1687.8 C 1834.11 1683.58 1823.37 1677.51 1812.76 1672.37 A 662.332 662.332 0 0 0 1764.16 1650.73 C 1763.51 1641.32 1763.11 1632.02 1763.06 1622.59 z"/>
<path transform="translate(0,0)" fill="rgb(196,241,226)" d="M 1772.94 1798.54 C 1799.43 1811.84 1826.52 1824.13 1853.34 1836.78 L 1855.02 1864.82 C 1845.45 1860.83 1836.14 1855.45 1826.8 1850.87 A 1997.97 1997.97 0 0 0 1774.52 1826.13 C 1773.81 1816.92 1773.17 1807.77 1772.94 1798.54 z"/>
<path transform="translate(0,0)" fill="rgb(196,241,226)" d="M 1741.09 1256.25 C 1750.61 1259.89 1760.17 1266.49 1769.05 1271.58 L 1822.91 1302.34 L 1825.01 1330.52 C 1798.58 1313.39 1770.11 1298.66 1742.6 1283.29 L 1741.09 1256.25 z"/>
<path transform="translate(0,0)" fill="rgb(196,241,226)" d="M 1758.32 1548.39 C 1780.26 1555.8 1818.62 1574.44 1838.8 1586.2 L 1839.53 1612.75 L 1759.69 1575.77 L 1758.32 1548.39 z"/>
<path transform="translate(0,0)" fill="rgb(196,241,226)" d="M 1760.5 1584.96 C 1770.31 1588.38 1779.82 1594.08 1789.24 1598.57 C 1806.35 1606.71 1823.71 1614.35 1840.57 1623.01 A 688.163 688.163 0 0 0 1841.96 1651.68 C 1816.12 1638.62 1789.18 1624.44 1762.18 1614.03 C 1761.82 1604.34 1761.08 1594.64 1760.5 1584.96 z"/>
<path transform="translate(0,0)" fill="rgb(196,241,226)" d="M 1749.97 1401.71 C 1777.51 1414.25 1804.18 1429.12 1830.91 1443.28 C 1831.27 1452.93 1832.31 1462.61 1833.06 1472.24 C 1806.99 1456.69 1778.76 1443.82 1751.57 1430.31 L 1749.97 1401.71 z"/>
<path transform="translate(0,0)" fill="rgb(196,241,226)" d="M 948.12 1619.41 C 950.294 1622.77 949.178 1630.83 949.146 1634.91 C 931.492 1634.57 912.069 1640.78 894.714 1644.25 C 855.573 1652.06 816.445 1660.5 777.164 1667.56 C 775.067 1664.6 775.924 1658.02 775.911 1654.4 C 797.954 1648.89 820.665 1644.92 842.939 1640.42 L 948.12 1619.41 z"/>
<path transform="translate(0,0)" fill="rgb(196,241,226)" d="M 1000.88 1544.51 L 1033.48 1553.04 C 1034.24 1578.16 1033.85 1603.4 1033.96 1628.53 A 1106.35 1106.35 0 0 0 1001.04 1620.36 L 1000.88 1544.51 z"/>
<path transform="translate(0,0)" fill="rgb(196,241,226)" d="M 1172.97 1586.12 A 599.831 599.831 0 0 0 1205.56 1593.82 C 1204.89 1619.16 1205.62 1644.68 1205.76 1670.04 L 1173.02 1662.3 A 5234.3 5234.3 0 0 1 1172.97 1586.12 z"/>
<path transform="translate(0,0)" fill="rgb(196,241,226)" d="M 1708.47 511.764 C 1718.55 515.44 1749.17 536.851 1759.84 543.707 L 1760.89 563.366 C 1753.23 558.195 1723.85 537.99 1717.52 536.63 L 1712.86 539.757 C 1695.57 549.335 1677.33 557.44 1659.5 565.943 C 1659.03 556.928 1658.46 548.047 1657.27 539.09 C 1673.7 529.228 1691.66 521.135 1708.47 511.764 z"/>
<path transform="translate(0,0)" fill="rgb(142,114,183)" d="M 1482.54 1834.85 C 1488.31 1836.04 1494.64 1839.38 1499.96 1841.95 C 1510.6 1847.08 1521.4 1853.3 1530.41 1861 C 1541.82 1870.76 1551.82 1885.51 1566.07 1891.21 C 1573.51 1894.18 1634.86 1896.45 1640.16 1893.33 C 1642.61 1891.88 1642.8 1890.97 1643.41 1888.43 C 1642.79 1885.51 1641.63 1883.42 1639.66 1881.2 C 1627.77 1867.82 1602.2 1866.07 1585.5 1865.65 L 1586.16 1865.03 C 1593.23 1862.94 1605.12 1865.09 1612.76 1865.66 C 1631.61 1867.34 1648.16 1872.19 1664.73 1881.34 C 1664.81 1887.68 1665.44 1893.87 1666.15 1900.16 A 7096.93 7096.93 0 0 1 1542.21 1899.1 C 1523.98 1876.31 1504.39 1854.24 1482.54 1834.85 z"/>
<path transform="translate(0,0)" fill="rgb(196,241,226)" d="M 867.802 1308.89 C 892.88 1316.83 1120 1388.4 1123.63 1391.52 C 1125.68 1393.29 1125.43 1396.01 1125.8 1398.55 C 1094.29 1388.75 1062.39 1380.2 1030.8 1370.63 C 976.533 1354.2 922.413 1336.97 867.884 1321.43 L 867.802 1308.89 z"/>
<path transform="translate(0,0)" fill="rgb(196,241,226)" d="M 1299.77 1758.03 A 1358.45 1358.45 0 0 1 1348.87 1768.67 C 1348.9 1781.41 1349.53 1794.18 1349.98 1806.92 L 1337.78 1809.91 C 1324.73 1813.77 1312.77 1818.76 1300.59 1824.73 C 1299.79 1802.52 1299.91 1780.26 1299.77 1758.03 z"/>
<path transform="translate(0,0)" fill="rgb(196,241,226)" d="M 958.013 1534.47 A 1197.56 1197.56 0 0 0 992.082 1542.65 C 992.393 1567.83 992.156 1593.03 992.179 1618.21 A 1415.11 1415.11 0 0 0 958.191 1609.92 L 958.013 1534.47 z"/>
<path transform="translate(0,0)" fill="rgb(142,114,183)" d="M 857.998 1355.76 C 865.337 1356.3 872.426 1357.76 879.631 1359.21 A 4263.96 4263.96 0 0 0 880.518 1431.76 C 880.736 1442.9 882.854 1459.21 880.618 1469.7 L 878.799 1470.65 L 858.384 1475.87 L 857.998 1355.76 z"/>
<path transform="translate(0,0)" fill="rgb(196,241,226)" d="M 1698.33 377.72 C 1702.09 383.065 1724.69 493.82 1728.57 511.191 C 1723.18 507.094 1717.36 503.581 1711.64 499.953 C 1711.06 499.598 1710.17 499.013 1709.54 498.818 C 1705.53 497.585 1692.81 509.779 1688.35 512.411 L 1687.01 513.193 C 1691.42 468.097 1693.53 422.778 1698.33 377.72 z"/>
<path transform="translate(0,0)" fill="rgb(196,241,226)" d="M 1113.25 517.187 C 1119.32 516.84 1124.82 516.782 1130.64 518.926 C 1137.93 521.612 1143.85 526.929 1146.93 534.109 A 29.4698 29.4698 0 0 1 1147.11 556.505 C 1143.31 565.806 1136.47 570 1127.72 573.741 C 1122.24 574.164 1117.24 574.512 1111.88 572.859 C 1104.32 570.527 1098.09 565.494 1094.64 558.325 A 29.1786 29.1786 0 0 1 1093.55 536.037 C 1097.04 526.21 1104.18 521.229 1113.25 517.187 z"/>
<path transform="translate(0,0)" fill="rgb(196,241,226)" d="M 1042.07 1555.19 C 1053.49 1558.22 1064.87 1561.39 1076.47 1563.64 A 4028.68 4028.68 0 0 1 1077.01 1639.09 C 1065.67 1635.79 1053.83 1633.68 1042.39 1630.59 L 1042.07 1555.19 z"/>
<path transform="translate(0,0)" fill="rgb(196,241,226)" d="M 1049.96 1408.54 C 1059.28 1411.52 1068.78 1414.06 1078.17 1416.8 A 3948.89 3948.89 0 0 1 1078.54 1507.46 C 1069.07 1506.2 1059.39 1502.88 1050.14 1500.44 C 1049.69 1469.82 1050.01 1439.16 1049.96 1408.54 z"/>
<path transform="translate(0,0)" fill="rgb(196,241,226)" d="M 1741.91 602.872 C 1752.39 608.927 1762.32 616.438 1772.46 623.092 L 1829.95 660.036 C 1832.44 722.454 1838.7 784.681 1841.33 847.042 L 1832.03 841.302 C 1829.38 784.26 1827.27 727.282 1823.74 670.278 C 1796.45 655 1770.82 636.351 1742.76 622.472 C 1742.21 615.972 1742.14 609.394 1741.91 602.872 z"/>
<path transform="translate(0,0)" fill="rgb(196,241,226)" d="M 1128.76 1575.43 A 751.549 751.549 0 0 0 1164.06 1583.78 A 7559.76 7559.76 0 0 0 1164.71 1660.29 A 3251.54 3251.54 0 0 0 1129.12 1651.47 L 1128.76 1575.43 z"/>
<path transform="translate(0,0)" fill="rgb(196,241,226)" d="M 1085.61 1565.32 L 1120.59 1573.8 C 1120.44 1599.09 1120.81 1624.4 1120.95 1649.7 C 1109.07 1646.74 1097.23 1643.69 1085.21 1641.39 L 1085.06 1593.77 C 1085.04 1584.42 1084.45 1574.6 1085.61 1565.32 z"/>
<path transform="translate(0,0)" fill="rgb(196,241,226)" d="M 928.302 1648.29 L 929.182 1648.98 C 930.571 1654.41 929.769 1661.64 929.721 1667.32 C 879.086 1676.64 828.204 1684.93 777.857 1695.72 L 776.768 1695.46 C 774.882 1691.03 775.938 1683.56 775.978 1678.69 C 826.787 1669.98 877.976 1659.39 928.302 1648.29 z"/>
<path transform="translate(0,0)" fill="rgb(196,241,226)" d="M 805.086 1370.3 C 807.295 1372.91 806.014 1447.94 806.037 1456.55 C 796.9 1453.62 787.5 1451.38 778.224 1448.93 C 776.137 1448.54 773.872 1448.34 772.155 1447 C 770.341 1445.58 770.109 1387.51 769.961 1378.82 C 781.73 1376.28 793.401 1373.2 805.086 1370.3 z"/>
<path transform="translate(0,0)" fill="rgb(196,241,226)" d="M 1713.62 550.977 C 1716.54 562.044 1715.38 575.942 1716.88 587.545 A 3126.38 3126.38 0 0 0 1637.63 619.914 L 1637.31 619.796 C 1634.95 616.524 1635.1 595.212 1634.82 589.778 C 1659.59 575.054 1687.62 563.533 1713.62 550.977 z"/>
<path transform="translate(0,0)" fill="rgb(196,241,226)" d="M 1153.67 1724.92 C 1166.55 1728.57 1179.88 1731.29 1192.91 1734.44 L 1192.8 1809.73 C 1180.18 1804.58 1167.49 1801.59 1154.23 1798.67 L 1153.67 1724.92 z"/>
<path transform="translate(0,0)" fill="rgb(196,241,226)" d="M 859.691 1532.18 L 862.391 1532.18 C 864.687 1537.88 863.79 1614.08 863.882 1625.37 C 854.641 1626.71 845.417 1628.92 836.259 1630.77 L 833.588 1630.72 C 830.999 1627.28 832.133 1549.37 832.104 1538.41 L 859.691 1532.18 z"/>
<path transform="translate(0,0)" fill="rgb(196,241,226)" d="M 286.844 383.866 C 294.675 384.684 302.238 385.69 309.919 387.44 L 309.939 518.441 C 302.373 514.41 294.675 510.7 286.944 507.003 L 286.844 383.866 z"/>
<path transform="translate(0,0)" fill="rgb(196,241,226)" d="M 822.639 1540.36 L 822.621 1541.16 L 823.506 1540.88 C 824.746 1551.24 824.029 1562.36 824.05 1572.82 L 824.138 1633.23 A 714.32 714.32 0 0 0 793.221 1639.61 C 791.523 1629.22 792.366 1617.48 792.303 1606.89 L 792.011 1546.9 A 1994.23 1994.23 0 0 1 822.639 1540.36 z"/>
<path transform="translate(0,0)" fill="rgb(196,241,226)" d="M 1009.58 1397.33 L 1042.02 1406.58 A 6849.54 6849.54 0 0 0 1042.21 1498.3 A 3290.05 3290.05 0 0 1 1010.23 1490.22 A 7178.86 7178.86 0 0 0 1009.58 1397.33 z"/>
<path transform="translate(0,0)" fill="rgb(196,241,226)" d="M 888.875 1362.13 A 1145.04 1145.04 0 0 0 918.964 1370.77 L 919.602 1468.83 C 909.188 1466.15 901.042 1463.79 890.249 1466.45 L 888.875 1362.13 z"/>
<path transform="translate(0,0)" fill="rgb(196,241,226)" d="M 1106 1713.59 L 1144.97 1723.15 A 6777.57 6777.57 0 0 1 1145.34 1797.03 C 1132.51 1795.47 1119.57 1794.99 1106.67 1794.29 A 7092.28 7092.28 0 0 1 1106 1713.59 z"/>
<path transform="translate(0,0)" fill="rgb(196,241,226)" d="M 969.005 1385.17 L 1000.97 1394.64 L 1001.67 1488.45 C 990.999 1486.45 980.228 1483.1 969.686 1480.41 C 968.509 1448.73 969.061 1416.88 969.005 1385.17 z"/>
<path transform="translate(0,0)" fill="rgb(196,241,226)" d="M 263.3 1063.94 C 272.545 1067.09 281.607 1070.99 290.688 1074.59 L 290.78 1175.52 L 283.754 1178.45 L 263.607 1186.35 C 262.567 1145.64 263.549 1104.67 263.3 1063.94 z"/>
<path transform="translate(0,0)" fill="rgb(196,241,226)" d="M 318.281 390.371 C 326.155 393.282 333.692 397.023 341.275 400.609 A 10084.4 10084.4 0 0 1 340.645 539.184 C 333.37 537.274 325.258 530.222 318.981 525.939 L 318.281 390.371 z"/>
<path transform="translate(0,0)" fill="rgb(196,241,226)" d="M 423.967 726.242 L 448.406 735.966 L 447.948 861.345 L 423.144 851.028 A 8044.85 8044.85 0 0 1 423.967 726.242 z"/>
<path transform="translate(0,0)" fill="rgb(196,241,226)" d="M 928.672 1373.29 C 939.171 1375.99 949.55 1379.4 959.933 1382.53 A 8049.55 8049.55 0 0 0 960.846 1478.54 L 927.849 1470.28 C 927.645 1451.14 927.999 1431.95 928.104 1412.8 C 928.176 1399.72 927.669 1386.33 928.672 1373.29 z"/>
<path transform="translate(0,0)" fill="rgb(196,241,226)" d="M 349.614 406.82 C 358.819 412.912 366.766 419.673 374.528 427.516 C 372.587 465.743 374.167 504.873 374.085 543.213 A 1679.16 1679.16 0 0 0 349.38 540.288 C 348.676 496.038 348.364 451.042 349.614 406.82 z"/>
<path transform="translate(0,0)" fill="rgb(196,241,226)" d="M 393.558 668.259 C 422.256 676.963 451.015 688.313 478.706 699.793 C 479.069 712.702 478.942 725.659 479.024 738.574 A 1870.41 1870.41 0 0 1 393.945 703.137 A 2563.04 2563.04 0 0 1 393.558 668.259 z"/>
<path transform="translate(0,0)" fill="rgb(196,241,226)" d="M 923.606 1517.09 L 923.341 1504.32 C 1021.35 1527.4 1118.91 1552.36 1217.08 1574.8 C 1217 1578.47 1217.08 1582.21 1216.8 1585.87 L 1216.32 1586.07 C 1168.18 1572.59 1118.71 1562.56 1070.09 1550.91 C 1021.44 1539.25 972.902 1525.73 923.606 1517.09 z"/>
<path transform="translate(0,0)" fill="rgb(196,241,226)" d="M 140.588 1773.17 L 142.96 1773.6 C 145.929 1781.82 143.909 1808.05 143.88 1817.82 C 122.446 1824.99 87.587 1819.02 64.2452 1817.41 C 62.1841 1817.32 57.8291 1817.56 56.5103 1815.74 C 52.7067 1810.47 55.2087 1797.94 55.4969 1791.62 C 83.4688 1784.38 112.376 1779.65 140.588 1773.17 z"/>
<path transform="translate(0,0)" fill="rgb(196,241,226)" d="M 1201.53 1736.3 L 1241.67 1745.6 L 1242.25 1833.29 C 1229.09 1825.84 1215.45 1819.4 1201.72 1813.1 C 1200.71 1787.58 1201.22 1761.84 1201.53 1736.3 z"/>
<path transform="translate(0,0)" fill="rgb(196,241,226)" d="M 802.523 1700.28 L 803.809 1700.23 C 804.2 1700.63 804.74 1700.92 804.983 1701.42 C 806.197 1703.94 806.227 1811.24 806.367 1822.53 L 780.283 1825.48 L 779.38 1825.61 L 778.094 1824.57 C 777.529 1813.53 777.943 1802.36 777.775 1791.3 A 5860.15 5860.15 0 0 1 776.912 1704.79 C 785.471 1703.45 793.995 1701.81 802.523 1700.28 z"/>
<path transform="translate(0,0)" fill="rgb(196,241,226)" d="M 1059.82 1702.58 A 872.131 872.131 0 0 0 1097.81 1711.95 L 1098.08 1761.5 C 1098.18 1771.96 1098.95 1782.77 1097.73 1793.17 C 1095.36 1795.04 1092.93 1794.94 1090 1795.41 C 1079.79 1797.02 1070.01 1800.12 1060.28 1803.5 C 1059.5 1769.91 1059.89 1736.18 1059.82 1702.58 z"/>
<path transform="translate(0,0)" fill="rgb(196,241,226)" d="M 769.9 919.766 L 845.766 919.894 L 845.878 939.63 C 836.92 939.78 827.939 939.548 818.979 939.454 L 818.905 1000.24 L 818.74 1028.03 L 795.962 1028.03 L 795.938 939.991 L 770 940.082 L 769.9 919.766 z"/>
<path transform="translate(0,0)" fill="rgb(196,241,226)" d="M 927.347 1678.3 L 928.174 1678.31 C 928.55 1678.68 929.092 1678.95 929.302 1679.44 C 930.218 1681.57 929.613 1791.69 929.645 1804.99 L 902.314 1809.21 C 899.871 1805.64 899.67 1697.72 899.334 1683.54 L 927.347 1678.3 z"/>
<path transform="translate(0,0)" fill="rgb(196,241,226)" d="M 1249.97 1746.69 C 1263.81 1750.42 1277.84 1753.51 1291.8 1756.77 L 1292.7 1828.46 L 1282.44 1836.79 C 1277.34 1840.89 1272.48 1845.28 1267.57 1849.61 L 1251 1838.89 L 1249.97 1746.69 z"/>
<path transform="translate(0,0)" fill="rgb(196,241,226)" d="M 868.852 1332 L 1038.72 1383.15 C 1067.62 1391.89 1097.28 1399.06 1125.5 1409.84 L 1127.84 1520.6 C 1124.81 1519.82 1121.68 1519.4 1119.31 1517.21 C 1118.11 1504.97 1119.14 1492.15 1119.38 1479.83 A 1240.11 1240.11 0 0 0 1119.35 1418.15 C 1083.62 1406.69 1047.31 1397.44 1011.31 1386.89 C 963.846 1372.99 916.733 1358.05 868.707 1346.14 L 868.852 1332 z"/>
<path transform="translate(0,0)" fill="rgb(196,241,226)" d="M 233.186 1753.26 L 234.265 1753.35 C 237.061 1757.11 235.912 1792.85 235.976 1800.05 C 209.382 1805.17 182.566 1809.76 156.212 1816 L 153.889 1815.88 C 150.776 1807.78 152.816 1780.2 152.873 1770.5 C 179.687 1766.28 206.519 1758.71 233.186 1753.26 z"/>
<path transform="translate(0,0)" fill="rgb(196,241,226)" d="M 904.846 1476.31 C 947.082 1484.22 988.747 1496.31 1030.43 1506.75 L 1139.08 1534.74 C 1164.9 1541.29 1190.82 1547.12 1216.52 1554.18 L 1216.44 1564.65 C 1210.46 1564.38 1202.95 1561.68 1197.03 1560.25 L 1140.64 1546.26 A 12144.9 12144.9 0 0 1 1004.38 1513.07 C 971.463 1504.99 938.345 1495.83 904.88 1490.38 L 904.846 1476.31 z"/>
<path transform="translate(0,0)" fill="rgb(196,241,226)" d="M 846.974 1359.15 L 847.809 1359.42 C 850.184 1362.97 848.986 1463.44 849.006 1476.86 A 1069.81 1069.81 0 0 1 816.893 1483.69 C 815.77 1483.53 816.452 1483.73 815.079 1482.56 L 814.864 1368 L 846.974 1359.15 z"/>
<path transform="translate(0,0)" fill="rgb(196,241,226)" d="M 597.025 920.082 C 617.749 919.792 638.503 919.924 659.23 919.856 L 659.274 940.281 L 619.743 940.411 L 619.778 963.092 A 1460.73 1460.73 0 0 1 656.125 962.116 C 656.308 967.283 657.833 978.52 654.914 982.756 L 652.25 983.122 L 619.068 982.918 L 618.975 1027.88 L 597.005 1027.86 L 597.025 920.082 z"/>
<path transform="translate(0,0)" fill="rgb(196,241,226)" d="M 969.813 1680.41 C 981.063 1684.11 992.584 1686.85 1004.06 1689.74 L 1004.72 1810.2 L 971.009 1802.4 L 969.813 1680.41 z"/>
<path transform="translate(0,0)" fill="rgb(196,241,226)" d="M 842.888 1693.36 C 844.593 1693.05 845.707 1693.03 847.408 1693.13 C 850.112 1699.18 849.004 1800.87 849.076 1816.36 C 839.014 1817.48 829.018 1818.69 819.016 1820.29 C 817.887 1820.25 816.784 1819.89 815.686 1819.63 C 813.563 1813.86 814.554 1711.16 814.416 1698.39 C 823.862 1696.53 833.404 1695.02 842.888 1693.36 z"/>
<path transform="translate(0,0)" fill="rgb(196,241,226)" d="M 328.566 1733.19 L 332.022 1732.7 C 334.523 1735.44 333.534 1773 333.547 1779.48 A 2123.79 2123.79 0 0 0 249.222 1797.18 C 247.414 1797.71 246.441 1797.72 244.594 1797.36 C 242.224 1782.99 243.978 1765.87 243.979 1751.19 C 271.942 1744.47 300.438 1739.29 328.566 1733.19 z"/>
<path transform="translate(0,0)" fill="rgb(196,241,226)" d="M 888.684 1685.28 C 890.206 1685.28 889.395 1685.07 890.92 1686.43 L 892.608 1810.45 L 861.237 1814.45 L 858.997 1814.42 C 856.642 1808.18 857.242 1704.16 857.064 1690.98 A 2457.64 2457.64 0 0 0 888.684 1685.28 z"/>
<path transform="translate(0,0)" fill="rgb(196,241,226)" d="M 1013.02 1691.75 C 1025.45 1695.62 1038.64 1698.04 1051.39 1700.65 C 1052.48 1722.24 1051.64 1744.19 1051.83 1765.83 C 1051.93 1776.65 1053.76 1795.51 1051.81 1805.47 C 1051.33 1807.93 1048.03 1808.67 1046.03 1809.6 C 1041.53 1811.9 1037.2 1814.54 1032.83 1817.09 C 1026.55 1814.56 1019.97 1812.97 1013.43 1811.24 C 1012.09 1771.53 1013.07 1731.49 1013.02 1691.75 z"/>
<path transform="translate(0,0)" fill="rgb(142,114,183)" d="M 938.694 1645.17 C 945.914 1645.58 952.897 1646.16 960.015 1647.47 A 16238.7 16238.7 0 0 1 962.185 1866.68 C 954.807 1866.28 947.391 1866.19 940.004 1865.98 C 940.538 1792.41 937.846 1718.75 938.694 1645.17 z"/>
<path transform="translate(0,0)" fill="rgb(196,241,226)" d="M 87.8293 959.924 C 90.4495 970.955 88.9212 1030.11 88.9365 1044.95 L 89.0962 1259.08 L 73.152 1265.92 C 70.5923 1260.23 72.6695 999.389 72.705 968.812 L 87.8293 959.924 z"/>
<path transform="translate(0,0)" fill="rgb(196,241,226)" d="M 1054.82 920.063 L 1117.82 919.938 L 1117.82 940.32 C 1104.47 940.12 1091.1 940.234 1077.75 940.203 L 1077.81 960.031 A 1345.78 1345.78 0 0 1 1115.93 959.519 L 1115.91 980.429 C 1110.78 980.467 1079.77 979.678 1077.23 981.82 L 1077.07 988.75 L 1077.09 1006.21 A 2816.19 2816.19 0 0 1 1119.1 1006.05 L 1119.01 1027.85 A 5119.01 5119.01 0 0 1 1054.32 1027.91 C 1052.71 992.149 1054.2 955.854 1054.82 920.063 z"/>
<path transform="translate(0,0)" fill="rgb(196,241,226)" d="M 299.209 954.241 C 307.479 957.967 315.68 961.443 324.246 964.447 A 11356.3 11356.3 0 0 0 324.201 1091.4 C 324.262 1100.59 326.248 1153.93 324.573 1158.96 C 323.769 1161.37 321.031 1161.94 318.89 1162.98 L 299.336 1172.08 C 297.971 1099.59 299.124 1026.76 299.209 954.241 z"/>
<path transform="translate(0,0)" fill="rgb(196,241,226)" d="M 736.72 919.964 L 758.757 919.838 L 758.789 939.75 C 758.872 962.03 763.663 1002.15 747.654 1019.03 C 740.34 1026.74 730.23 1029.93 719.824 1030.36 C 707.636 1030.87 695.073 1028.17 686.102 1019.39 C 680.868 1014.26 677.467 1007.68 675.579 1000.65 C 670.528 981.835 673.6 940.992 673.844 920.056 L 695.981 920.014 C 696.12 938.792 693.722 975.031 696.867 991.63 C 697.975 997.482 700.56 1003.62 705.727 1006.99 C 710.178 1009.88 716.135 1010.03 721.182 1008.83 C 728.314 1007.13 732.093 1002.18 735.804 996.242 C 737.972 971.259 736.634 945.09 736.72 919.964 z"/>
<path transform="translate(0,0)" fill="rgb(196,241,226)" d="M 857.269 920.015 L 880.265 919.804 C 880.367 933.893 877.379 993.237 884.271 1001.67 C 888.04 1006.28 894.62 1008.82 900.439 1009.19 C 904.945 1009.48 909.103 1008.15 912.315 1004.92 C 916.017 1001.19 917.794 995.88 918.617 990.799 C 919.953 982.553 919.213 973.374 919.193 965.014 L 919.136 920.29 C 926.704 919.917 934.349 920.077 941.929 920.036 L 941.831 940.216 C 941.88 961.032 946.376 1000.72 931.953 1016.89 C 924.342 1025.42 912.906 1029.89 901.606 1030.12 C 889.561 1030.37 876.718 1026.14 868.24 1017.36 A 33.1864 33.1864 0 0 1 860.096 1003.32 C 854.918 985.445 857.081 940.498 857.269 920.015 z"/>
<path transform="translate(0,0)" fill="rgb(196,241,226)" d="M 957.796 1619.96 L 1361.49 1718.83 L 1362.06 1729.67 L 1111.62 1671.85 C 1060.53 1660.04 1009.29 1647.12 957.879 1636.96 L 957.796 1619.96 z"/>
<path transform="translate(0,0)" fill="rgb(196,241,226)" d="M 928.517 1815.46 C 929.756 1815.34 929.031 1815.25 930.512 1816.36 A 1912.75 1912.75 0 0 1 930.72 1865.1 C 884.614 1864.34 838.317 1860.43 792.249 1858.08 L 778.856 1857.49 L 778.792 1836.5 C 796.32 1833.07 814.209 1830.96 831.891 1828.45 A 4986.02 4986.02 0 0 1 928.517 1815.46 z"/>
<path transform="translate(0,0)" fill="rgb(196,241,226)" d="M 423.408 861.23 C 431.531 864.757 439.64 868.13 447.95 871.197 L 448.034 1099.89 C 439.754 1096.49 432.255 1091.52 423.411 1089.58 L 423.408 861.23 z"/>
<path transform="translate(0,0)" fill="rgb(196,241,226)" d="M 1163.15 914.454 C 1172.63 920.847 1216.35 967.364 1225.05 978.965 L 1224.99 920.021 L 1248.13 919.868 C 1248.38 933.862 1251.13 1023.22 1247.86 1029.16 C 1226.07 1009.3 1204.9 988.016 1185.91 965.459 L 1186.16 1027.76 L 1163.59 1027.68 C 1162.71 989.976 1163.2 952.17 1163.15 914.454 z"/>
<path transform="translate(0,0)" fill="rgb(196,241,226)" d="M 1428.2 918.664 C 1431.42 925.933 1433.46 934.057 1436.13 941.574 C 1439.81 951.899 1444.16 961.985 1448.41 972.084 A 1211.66 1211.66 0 0 1 1463.41 920.08 C 1470.82 919.871 1478.29 920.05 1485.71 920.065 C 1481.37 936.239 1475.75 952.075 1470.77 968.062 C 1464.45 988.362 1458.66 1008.83 1451 1028.68 C 1442.47 1012.43 1437.17 994.848 1429.67 978.223 L 1429 978.428 L 1427.13 982.623 C 1421.76 998.306 1414.96 1016.59 1405.98 1030.51 C 1398.84 1016.71 1394.07 1001.11 1388.93 986.474 A 2690.42 2690.42 0 0 1 1366.56 920.195 C 1374.17 919.893 1381.78 920.083 1389.4 920.22 C 1396.41 937.593 1401.33 956.068 1407.04 973.919 C 1415.09 955.939 1421.19 937.067 1428.2 918.664 z"/>
<path transform="translate(0,0)" fill="rgb(196,241,226)" d="M 127.132 698.214 L 127.992 698.285 C 128.308 698.659 128.749 698.957 128.94 699.407 C 129.845 701.538 128.826 770.138 128.826 780.032 L 128.23 1243.04 L 118.365 1246.98 C 118.184 1246.84 117.973 1246.73 117.821 1246.56 C 115.859 1244.35 117.089 1199.1 117.116 1193.18 L 117.3 700.729 L 127.132 698.214 z"/>
<path transform="translate(0,0)" fill="rgb(196,241,226)" d="M 962.966 920.057 C 977.798 919.864 995.034 918.003 1009.41 921.499 C 1017.57 923.486 1025.15 928.058 1029.41 935.483 C 1033.83 943.207 1034.54 953.853 1031.86 962.273 C 1028.48 972.925 1021.69 978.015 1012.24 982.813 C 1024.05 997.451 1034.81 1012.63 1045.73 1027.92 L 1019.48 1027.82 C 1007.65 1012.78 997.907 996.302 986.494 980.976 C 985.266 996.371 985.797 1012.24 985.6 1027.7 L 963.187 1027.55 C 962.533 991.742 962.971 955.869 962.966 920.057 z"/>
<path transform="translate(0,0)" fill="rgb(84,40,106)" d="M 986.131 938.952 C 992.605 939.006 998.382 939.186 1003.96 942.791 C 1007.33 944.967 1009.77 947.563 1010.52 951.628 C 1011.45 956.632 1009.3 961.268 1006.25 965.034 C 999.809 968.228 993.175 968.09 986.148 968.343 L 986.131 938.952 z"/>
<path transform="translate(0,0)" fill="rgb(196,241,226)" d="M 0 1466.08 C 123.068 1424.59 247.658 1387.37 370.467 1345.16 L 370.573 1364.73 A 18495.1 18495.1 0 0 0 136.494 1438.9 C 91.0331 1453.32 45.0347 1466.48 0 1482.19 L 0 1466.08 z"/>
<path transform="translate(0,0)" fill="rgb(196,241,226)" d="M 1790.87 829.988 C 1803.93 834.239 1817.02 843.836 1828.82 851.01 L 1900.68 895.415 C 1901.02 916.445 1902.86 937.523 1904.25 958.514 L 1914.03 1098.25 C 1915.64 1122.33 1917.75 1146.53 1918.2 1170.66 L 1908.4 1164.92 C 1901.23 1078.21 1897.49 991.201 1891.08 904.428 C 1881.63 898.146 1871.55 892.758 1861.68 887.159 C 1851.25 880.508 1813.9 855.918 1803.28 855.721 L 1802.72 858.278 C 1803.52 860.704 1803.34 863.287 1803.41 865.828 L 1801.44 866.489 C 1804.28 871.029 1805.64 919.371 1806.15 928.16 A 6776.8 6776.8 0 0 0 1813.94 1055.79 C 1815.2 1073.92 1819.98 1113.15 1817.75 1128.91 C 1815.73 1143.21 1819.22 1158.78 1819.27 1173.38 C 1815.24 1165.83 1813.87 1140.73 1812.97 1131.69 C 1805.97 1061.71 1802.12 991.296 1796.86 921.161 C 1795.55 903.687 1787.42 842.504 1790.87 829.988 z"/>
<path transform="translate(0,0)" fill="rgb(196,241,226)" d="M 298.916 673.473 L 323.878 684.767 L 324.402 954.864 C 315.863 952.437 307.396 948.092 299.05 944.886 L 298.916 673.473 z"/>
<path transform="translate(0,0)" fill="rgb(196,241,226)" d="M 1727.34 593.884 C 1729.66 593.659 1728.56 593.425 1730.61 594.618 C 1734.72 621.523 1735 651.432 1736.95 678.869 C 1740.73 732.076 1744.81 785.17 1747.63 838.444 C 1743.73 836.303 1739.99 833.809 1736.22 831.453 C 1733.8 811.624 1733.67 790.969 1732.32 771.006 A 9317.17 9317.17 0 0 0 1724.39 670.575 C 1723.41 658.359 1723.99 636.643 1720.05 625.861 C 1719.15 623.415 1718.57 622.503 1716.2 621.5 C 1699.84 624.132 1654.88 644.898 1637.75 652.36 C 1629.49 655.667 1621.2 658.84 1613.33 663.02 C 1619.63 721.599 1625.01 780.714 1629.45 839.467 L 1618.31 843.564 C 1613.96 808.681 1611.71 773.263 1609.02 738.213 C 1606.67 707.595 1603.78 677.03 1601.87 646.379 C 1616.02 639.632 1631.13 634.195 1645.64 628.162 L 1727.34 593.884 z"/>
<path transform="translate(0,0)" fill="rgb(196,241,226)" d="M 379.05 1345.29 C 395.245 1348.65 411.602 1354.25 427.506 1358.89 L 516.693 1384.87 L 798.469 1465.74 C 798.341 1471.75 798.752 1477.75 799.067 1483.74 C 764.442 1472.55 729.378 1463.33 694.391 1453.4 L 556.342 1413.94 L 441.12 1381.83 C 420.522 1376.18 399.915 1369.93 379.051 1365.37 L 379.05 1345.29 z"/>
<path transform="translate(0,0)" fill="rgb(196,241,226)" d="M 378.004 1151.65 C 420.498 1164.64 462.315 1180.36 504.283 1194.92 A 11505.4 11505.4 0 0 0 713.718 1264.83 L 713.324 1285.89 C 708.107 1286.34 410.929 1187.59 378.05 1176.56 L 378.004 1151.65 z"/>
<path transform="translate(0,0)" fill="rgb(142,114,183)" d="M 289.71 361.426 C 290.146 361.432 290.583 361.431 291.019 361.446 C 326.429 362.622 362.302 379.818 386.138 405.921 C 424.043 447.432 430.677 503.618 428.498 557.518 L 414.155 552.31 C 414.271 503.345 415.624 466.855 383.734 425.897 C 362.894 399.131 330.078 379.548 296.304 375.416 C 286.205 374.181 268.738 372.84 260.661 379.897 C 256.67 383.385 258.142 421.439 258.076 428.802 L 258.08 496.429 L 247.503 493.917 C 246.479 457.461 247.174 420.797 247.076 384.316 A 148.572 148.572 0 0 0 206.846 412.879 C 175.324 444.634 166.898 488.104 167.064 531.041 L 154.984 538.696 C 154.866 537.7 154.764 536.702 154.68 535.702 A 170.577 170.577 0 0 1 195.47 408.281 C 220.259 379.952 252.215 363.958 289.71 361.426 z"/>
<path transform="translate(0,0)" fill="rgb(196,241,226)" d="M 0 1307.21 C 26.1997 1295.53 52.9548 1285.4 79.4326 1274.4 L 246.894 1204.74 A 3984.27 3984.27 0 0 0 321.021 1172.45 C 336.88 1165.37 353.124 1157.36 369.58 1151.91 L 369.866 1177.64 C 245.862 1224.29 124.422 1279.09 0 1324.44 L 0 1307.21 z"/>
<path transform="translate(0,0)" fill="rgb(196,241,226)" d="M 216.606 657.012 C 217.951 659.266 217.449 1147.83 217.799 1205.9 C 212.63 1207.67 207.612 1209.95 202.573 1212.06 L 201.482 1211.74 C 199.935 1208.23 200.375 1203.31 200.313 1199.52 C 199.47 1147.49 200.964 1095.33 200.952 1043.28 L 200.839 664.457 L 216.606 657.012 z"/>
<path transform="translate(0,0)" fill="rgb(196,241,226)" d="M 1306.19 919.121 C 1317.22 918.355 1327.06 919.381 1337.03 924.451 A 56.1418 56.1418 0 0 1 1364.8 957.567 C 1369.34 972.255 1366.7 988.304 1359.26 1001.57 C 1351.13 1016.08 1339.1 1023.51 1323.48 1027.82 C 1311.4 1029.69 1299.51 1028.13 1288.82 1021.95 C 1276.08 1014.59 1266.04 1001.74 1262.52 987.397 A 56.2958 56.2958 0 0 1 1269.33 944.903 C 1277.7 931.187 1290.68 922.751 1306.19 919.121 z"/>
<path transform="translate(0,0)" fill="rgb(86,57,105)" d="M 1310.82 940.217 C 1315.17 940.127 1318.99 940.658 1323.06 942.274 C 1331.29 945.537 1337.21 951.587 1340.42 959.829 A 37.281 37.281 0 0 1 1339.16 989.584 C 1334.43 999.124 1327.38 1003.75 1317.72 1007.25 C 1311.16 1007.43 1305.46 1006.89 1299.71 1003.43 C 1292.23 998.93 1287.43 991.48 1285.36 983.085 C 1282.92 973.189 1284.16 961.991 1289.9 953.414 C 1295.08 945.675 1301.87 941.979 1310.82 940.217 z"/>
<path transform="translate(0,0)" fill="rgb(196,241,226)" d="M 969.005 1649.42 C 998.238 1655.4 1027.35 1663.15 1056.44 1669.91 L 1217.36 1706.6 C 1265.47 1717.7 1313.61 1729.5 1362.11 1738.75 C 1364.45 1760.46 1364.3 1783.11 1365.03 1804.97 C 1362.99 1805 1361 1804.81 1358.96 1804.63 C 1355.87 1800.35 1356.63 1768.97 1356.09 1761.54 C 1338.07 1755.63 1318.76 1752.2 1300.27 1747.96 L 1192.69 1723.75 A 13181.4 13181.4 0 0 1 1049.8 1690.53 C 1022.87 1684.05 996.085 1676.85 969.022 1670.97 L 969.005 1649.42 z"/>
<path transform="translate(0,0)" fill="rgb(196,241,226)" d="M 457.443 739.268 C 464.292 742.507 471.564 745.121 478.589 747.971 C 477.201 798.542 478.436 849.386 478.538 899.983 L 479.06 1174.65 L 456.99 1167.46 C 455.81 1096.1 456.701 1024.55 456.732 953.177 C 456.763 881.923 455.932 810.504 457.443 739.268 z"/>
<path transform="translate(0,0)" fill="rgb(196,241,226)" d="M 393.254 713.419 L 415.242 722.302 L 414.804 1153.67 L 393.053 1146.3 L 393.254 713.419 z"/>
<path transform="translate(0,0)" fill="rgb(142,114,183)" d="M 590.109 1464.6 C 598.942 1466.35 607.764 1468.9 616.521 1471.04 L 616.172 1726.71 C 616.146 1765.89 616.822 1805.07 616.359 1844.25 C 616.227 1846.64 616.387 1846.82 614.807 1848.57 C 607.144 1850.01 598.617 1848.54 590.871 1847.92 L 590.109 1464.6 z"/>
<path transform="translate(0,0)" fill="rgb(196,241,226)" d="M 332.819 689.576 C 340.67 692.927 348.361 696.671 356.083 700.306 L 356.251 1016.27 A 10107.3 10107.3 0 0 1 356.787 1117.81 C 356.795 1124.06 358.216 1139.41 356.676 1144.47 C 355.901 1147.01 353.931 1147.27 351.747 1148.35 L 333.291 1156.54 L 332.819 689.576 z"/>
<path transform="translate(0,0)" fill="rgb(196,241,226)" d="M 263.402 657.307 C 272.347 660.539 280.993 664.75 289.968 668.03 C 292.045 799.834 290.459 931.811 290.55 1063.63 L 290.04 1064.19 C 283.445 1064.02 269.753 1056.86 263.025 1054.18 L 263.402 657.307 z"/>
<path transform="translate(0,0)" fill="rgb(196,241,226)" d="M 1743.73 634.767 C 1768.09 648.093 1791.41 663.149 1814.9 677.918 C 1815.19 696.54 1817.35 715.393 1818.35 734.02 C 1820.18 768.156 1821.41 802.338 1822.81 836.494 C 1815.4 832.501 1808.16 828.083 1800.86 823.884 C 1796.33 821.043 1791.63 818.523 1786.93 815.971 A 440.506 440.506 0 0 1 1775.61 833.531 C 1773.09 837.204 1766.29 848.568 1761.87 849.405 C 1759.71 847.461 1758.93 846.137 1758.46 843.201 C 1757.55 837.499 1757.83 831.183 1757.48 825.401 L 1754.84 784.53 A 11280 11280 0 0 0 1743.73 634.767 z"/>
<path transform="translate(0,0)" fill="rgb(196,241,226)" d="M 289.932 132.117 C 295.369 131.731 300.995 132.214 305.151 136.15 C 307.968 138.819 309.086 142.21 309.549 145.967 C 312.103 166.685 310.17 189.409 310.129 210.407 L 309.901 340.833 C 350.948 348.72 385.383 368.866 411.623 401.483 C 450.481 449.784 454.972 507.465 448.567 566.652 L 437.008 560.9 A 489.158 489.158 0 0 0 437.689 554.31 C 442.82 500.805 433.799 447.881 398.545 405.473 A 148.877 148.877 0 0 0 298.765 352.659 L 298.761 147.066 L 297.892 144.006 C 297.249 143.601 296.138 142.849 295.424 142.653 C 293.209 142.047 292.488 142.923 290.959 144.222 C 289.622 147.358 289.181 150.139 288.948 153.538 C 287.566 173.651 288.973 196.618 288.974 217.032 L 289.228 351.811 A 127.296 127.296 0 0 0 285.88 352.111 C 242.391 356.62 209.262 375.014 181.835 409.114 C 150.763 447.746 141.884 495.174 146.992 543.55 L 133.98 557.633 C 131.248 502.808 133.13 452.897 167.576 407.043 C 194.805 370.798 232.914 345.928 278.144 339.618 L 278.006 215.577 C 277.964 199.879 275.708 156.599 279.473 143.196 C 280.992 137.79 285.279 134.739 289.932 132.117 z"/>
<path transform="translate(0,0)" fill="rgb(196,241,226)" d="M 158.003 682.891 L 159.017 683.381 C 161.432 690.059 159.109 785.371 159.117 799.964 A 35266.9 35266.9 0 0 0 160.344 1229.99 L 139.251 1238.22 L 137.971 1238.46 C 136.436 1236.01 136.779 1233.13 136.721 1230.27 C 136.144 1201.95 136.985 1173.45 137.04 1145.1 L 137.242 972.869 C 137.421 879.399 135.82 785.723 137.883 692.287 C 144.528 689.038 151.295 686.009 158.003 682.891 z"/>
<path transform="translate(0,0)" fill="rgb(196,241,226)" d="M 189.831 668.94 C 192.586 671.76 191.393 726.105 191.411 732.902 L 191.047 1072.6 C 191.114 1120.49 190.499 1168.51 191.606 1216.38 A 1263.73 1263.73 0 0 0 169.228 1226.01 C 166.629 1211.71 168.309 1191.05 168.307 1176.16 L 168.704 1063.67 L 168.847 678.202 C 175.931 675.376 182.869 672.059 189.831 668.94 z"/>
<path transform="translate(0,0)" fill="rgb(142,114,183)" d="M 1370.75 1814.43 C 1383.84 1813.09 1398.24 1813.76 1411.27 1815.19 C 1427.51 1816.98 1445.59 1820.22 1460.36 1827.49 C 1487.08 1840.65 1514.18 1875.13 1532.81 1898.25 L 1504.75 1898 C 1502.88 1892.31 1500.63 1885.71 1496.7 1881.1 C 1493.05 1876.83 1488.27 1876.1 1482.89 1875.7 C 1474.03 1875.03 1455.16 1874.06 1448.79 1881.3 C 1445.77 1884.74 1446.52 1891.8 1446.52 1896.11 L 1427.75 1895.93 A 3690.72 3690.72 0 0 0 1343.3 1894.82 C 1342.87 1889 1342.66 1881.7 1339.27 1876.74 C 1336.19 1872.21 1329.84 1870.25 1324.71 1869.43 C 1317.88 1868.33 1304.41 1867.9 1299 1872.72 C 1293.24 1877.87 1293.88 1886.14 1293.83 1893.15 L 1278.57 1893.19 C 1275.01 1883.71 1271.16 1874.51 1266.97 1865.3 A 93.5406 93.5406 0 0 1 1272.08 1858.71 C 1295.07 1831.55 1336.33 1817.19 1370.75 1814.43 z"/>
<path transform="translate(0,0)" fill="rgb(84,40,106)" d="M 1361.05 1821.39 C 1380.55 1818.48 1417.71 1820.53 1435.3 1830.1 C 1443.4 1834.51 1455.59 1842.09 1458.33 1851.28 C 1458.12 1852.48 1458.22 1853.4 1457.34 1854.34 C 1451.93 1860.12 1413.16 1858.29 1404.25 1858.27 C 1386.75 1858.08 1324.62 1857.35 1311.64 1852.8 C 1308.46 1851.68 1306.48 1850.46 1304.97 1847.35 C 1305.21 1845.08 1305.24 1844.14 1306.7 1842.27 C 1317.91 1827.9 1344.36 1823.41 1361.05 1821.39 z"/>
<path transform="translate(0,0)" fill="rgb(196,241,226)" d="M 1375.84 1829.41 C 1376.17 1829.41 1376.51 1829.4 1376.84 1829.39 C 1402.53 1829.23 1429.08 1830.98 1448.38 1849.82 A 1044.33 1044.33 0 0 1 1387.5 1850.1 C 1376.16 1849.91 1323.36 1849.17 1315.78 1846.22 L 1315.98 1844.66 C 1330.47 1832.25 1357.57 1830.44 1375.84 1829.41 z"/>
<path transform="translate(0,0)" fill="rgb(142,114,183)" d="M 1099.12 1805.4 C 1111.48 1804.44 1124.25 1805.44 1136.54 1806.84 C 1186.65 1812.56 1220.26 1832.82 1262.8 1857.34 C 1260.21 1860.53 1257.42 1863.23 1254.36 1865.97 C 1249.13 1865.97 1243.87 1865.96 1238.67 1866.56 C 1233.47 1867.17 1227.8 1868.62 1224.63 1873.16 C 1220.41 1879.21 1222.26 1886.11 1223.29 1892.84 L 1147.43 1891.94 L 1129.31 1891.95 L 1128.96 1874.17 C 1123.95 1867.07 1119.33 1864.35 1110.72 1862.86 C 1096.08 1860.32 1076.39 1862.53 1064.39 1871.55 C 1056.55 1877.45 1055.2 1881.91 1053.99 1891.15 C 1041.49 1889.04 1023.56 1889.48 1014.64 1879.07 C 1007.85 1871.15 1008.59 1860.96 1009.05 1851.27 C 1015.01 1843.69 1022.99 1837.72 1030.87 1832.25 C 1052.58 1817.17 1072.91 1808.69 1099.12 1805.4 z"/>
<path transform="translate(0,0)" fill="rgb(84,40,106)" d="M 1114.9 1812.45 C 1138.92 1812.91 1164.38 1815.12 1186.61 1824.95 C 1195.64 1828.94 1204.03 1834.85 1207.54 1844.46 C 1208.67 1847.55 1209.26 1849.73 1207.92 1852.78 C 1197.25 1857.63 1162.3 1854.29 1149.25 1853.29 C 1129.2 1852.22 1109.19 1849.89 1089.14 1848.65 C 1078.89 1848.02 1064.77 1850.42 1055.39 1847.29 C 1054.96 1846.34 1054.49 1845.45 1054.37 1844.38 C 1053.91 1840.3 1057.67 1834.93 1060.23 1832.08 C 1074.21 1816.44 1095.14 1813.46 1114.9 1812.45 z"/>
<path transform="translate(0,0)" fill="rgb(196,241,226)" d="M 1104.7 1822.38 C 1124.32 1818.41 1164.73 1824.46 1183.02 1832.97 C 1187.93 1835.26 1196.87 1840.64 1198.77 1845.87 C 1193.92 1849.68 1171.91 1846.34 1164.87 1845.87 C 1131.61 1843 1098.13 1840.41 1064.78 1839.16 C 1076.87 1827.44 1088.65 1824.39 1104.7 1822.38 z"/>
<path transform="translate(0,0)" fill="rgb(196,241,226)" d="M 1828.5 1136.41 C 1840.04 1141.61 1851.2 1148.02 1862.56 1153.66 L 1962.27 1204.23 C 1963.53 1261.57 1968.74 1318.75 1971.77 1376.01 L 1991.06 1744.51 L 1998.11 1866.27 C 1998.9 1881.15 2001.08 1897.06 2000.77 1911.85 C 2000.71 1914.72 2000.59 1916.5 1998.86 1918.8 L 1997.06 1918.13 C 1994.71 1914.77 1993.96 1911.46 1993.62 1907.39 C 1990.08 1865.54 1989.13 1823.03 1986.74 1781.07 A 17209.6 17209.6 0 0 1 1972.17 1528.58 L 1959.96 1319.67 C 1958.03 1284.87 1955.32 1249.87 1954.77 1215.03 C 1945.19 1208.84 1934.84 1204.04 1924.64 1198.97 C 1898.14 1185.03 1870.69 1170.22 1842.94 1158.98 C 1840.95 1161.21 1838.78 1163.34 1836.71 1165.5 C 1839.25 1225.34 1844.21 1285.3 1847.99 1345.1 L 1873.44 1772.13 C 1875.87 1817.76 1879.49 1863.45 1881.21 1909.1 C 1877.4 1909.13 1874.11 1909.14 1870.43 1908.1 C 1866.74 1891.65 1867.07 1869.54 1865.94 1852.41 C 1862.42 1798.89 1860.91 1745.26 1857.8 1691.71 L 1841.34 1387.02 C 1836.45 1303.59 1829.64 1219.99 1828.5 1136.41 z"/>
<path transform="translate(0,0)" fill="rgb(196,241,226)" d="M 1710.2 633.913 L 1711.52 634.473 C 1714.68 642.058 1716.47 701.154 1717.31 713.772 A 5540.56 5540.56 0 0 0 1725.67 823.642 C 1720.25 819.08 1714.7 814.814 1708.98 810.635 C 1689.28 818.33 1669.13 825.173 1649.24 832.371 L 1639.25 835.876 C 1635.21 780.45 1628.66 725.178 1624.83 669.733 C 1652.62 656.684 1681.77 645.559 1710.2 633.913 z"/>
<path transform="translate(0,0)" fill="rgb(142,114,183)" d="M 535.915 1451.25 C 550.589 1455.19 565.552 1458.34 580.337 1461.86 C 580.148 1590.15 582.464 1718.61 580.142 1846.87 C 569.332 1848.62 548.089 1845.56 536.111 1845.01 L 535.915 1451.25 z"/>
<path transform="translate(0,0)" fill="rgb(196,241,226)" d="M 1330.92 1312.07 A 1185.97 1185.97 0 0 0 1373.45 1300.16 L 1390.73 1706.89 C 1391.32 1723.58 1396.39 1791.93 1392.77 1803.37 L 1391 1804.88 C 1388.27 1803.53 1387.25 1801.39 1386.42 1798.59 C 1382.06 1783.92 1386.42 1755.41 1383.13 1737.9 C 1383.44 1730.29 1382.96 1722.49 1382.87 1714.87 C 1371.53 1710.32 1360.25 1707.41 1348.29 1705.01 A 3869.56 3869.56 0 0 0 1346.02 1659.82 L 1335.04 1407.81 C 1333.7 1375.97 1331.5 1343.92 1330.92 1312.07 z"/>
<path transform="translate(0,0)" fill="rgb(196,241,226)" d="M 380.003 555.537 C 409.392 558.249 440.221 570.96 461.076 592.106 C 478.174 609.441 490.733 631.409 495.318 655.448 C 498.824 673.83 497.105 694.586 497.085 713.321 L 497.012 809.982 A 31341.1 31341.1 0 0 1 497.014 1180.5 C 494.593 1179.8 492.418 1179.04 490.109 1178.01 C 488.362 1175.79 487.608 1173.66 487.549 1170.84 C 487.392 1163.47 488.088 1155.93 488.076 1148.51 L 487.818 1065.89 L 487.288 702.76 L 487.723 693.586 C 468.717 685.79 405.979 659.02 387.55 657.085 C 385.784 658.752 385.305 660.015 385.099 662.418 C 384.007 675.167 384.839 688.736 384.826 701.578 L 384.806 780.656 L 385.013 1033.73 L 385.076 1104.89 C 385.072 1117.65 385.877 1131.14 384.508 1143.8 L 380.852 1143.31 C 379.027 1141.04 379.16 1137.89 379.012 1135.02 C 378.155 1118.39 378.654 1101.44 378.554 1084.78 L 378.091 990.971 L 378.175 736.853 C 378.611 676.401 380.6 615.987 380.003 555.537 z"/>
<path transform="translate(0,0)" fill="rgb(84,40,106)" d="M 392.451 572.602 C 420.609 576.942 442.728 589.229 460.789 611.465 C 474.922 628.865 488.124 656.309 485.799 679.283 C 472.845 676.176 459.923 670.179 447.518 665.307 C 428.967 658.022 410.323 650.89 391.898 643.293 L 392.451 572.602 z"/>
<path transform="translate(0,0)" fill="rgb(196,241,226)" d="M 401.104 582.667 C 409.272 585.172 417.047 587.928 424.533 592.101 C 453.045 607.992 468.549 636.754 477.037 667.151 C 451.376 658.654 426.538 646.423 401.132 636.987 L 401.104 582.667 z"/>
<path transform="translate(0,0)" fill="rgb(84,40,106)" d="M 1811.26 868.668 C 1812.51 868.625 1813.72 868.563 1814.95 868.815 C 1822.5 870.358 1883.45 905.762 1885.73 910.887 C 1887.88 915.728 1888.13 946.425 1888.62 954.288 C 1889.73 972.245 1891.55 990.15 1892.67 1008.1 C 1894.69 1040.74 1896.23 1073.4 1898.95 1105.99 C 1900.28 1121.83 1899.98 1138.52 1902.42 1154.17 C 1902.77 1156.42 1903.6 1158.41 1904.75 1160.36 C 1903.48 1161.05 1901.9 1162.37 1900.41 1162.3 C 1895.97 1162.09 1830.81 1127.3 1828.04 1124.14 C 1825.02 1120.7 1822.37 1042.18 1821.68 1031.85 L 1814.14 910.405 C 1813.32 897.918 1809.52 880.594 1811.26 868.668 z"/>
<path transform="translate(0,0)" fill="rgb(196,241,226)" d="M 1813.14 869.825 C 1836.56 879.631 1861.18 896.652 1883.81 909.265 C 1886.46 931.764 1886.86 954.886 1888.51 977.535 L 1901.26 1161.32 C 1893.83 1157.08 1886.09 1153.36 1878.46 1149.51 C 1877.3 1109.65 1874.74 1069.17 1870.96 1029.47 C 1870.6 1028.99 1870.23 1028.54 1869.89 1028.05 C 1867.47 1024.58 1869.8 1018.64 1867.26 1016.23 L 1868.76 1019.11 L 1867.58 1020.1 C 1867.97 1026.33 1869.03 1032.67 1866.58 1038.56 C 1868.37 1074.66 1871.41 1110.71 1873.2 1146.81 A 1155.93 1155.93 0 0 1 1829.14 1122.89 C 1826.3 1093.79 1825.27 1064.44 1823.56 1035.25 C 1820.34 980.11 1817.24 924.903 1813.14 869.825 z"/>
<path transform="translate(0,0)" fill="rgb(84,40,106)" d="M 1860.86 949.644 C 1858.75 943.871 1858.06 924.01 1858.56 917.5 C 1858.73 915.246 1858.88 914.391 1860.71 912.943 L 1862.41 913.555 C 1865.66 918.245 1864.96 939.701 1865.24 946.549 L 1864.03 954.563 L 1863.14 954.9 C 1862.26 953.163 1861.52 951.48 1860.86 949.644 z"/>
<path transform="translate(0,0)" fill="rgb(86,57,105)" d="M 1865.24 946.549 C 1866.81 963.216 1867.78 979.969 1868.96 996.67 C 1869.73 1007.5 1871.05 1018.63 1870.96 1029.47 C 1870.6 1028.99 1870.23 1028.54 1869.89 1028.05 C 1867.47 1024.58 1869.8 1018.64 1867.26 1016.23 L 1868.76 1019.11 L 1867.58 1020.1 C 1867.97 1026.33 1869.03 1032.67 1866.58 1038.56 C 1864.61 1009.01 1861.69 979.233 1860.86 949.644 C 1861.52 951.48 1862.26 953.163 1863.14 954.9 L 1864.03 954.563 L 1865.24 946.549 z"/>
<path transform="translate(0,0)" fill="rgb(196,241,226)" d="M 1416.24 1289.11 L 1417.95 1289.16 C 1419.71 1291.49 1419.5 1295.44 1419.69 1298.31 C 1423.81 1358.25 1424.74 1418.61 1427.35 1478.65 L 1441.95 1809.74 C 1432.64 1807.66 1423.27 1805.66 1413.76 1804.83 C 1409.6 1804.19 1405.32 1804.07 1401.12 1803.79 L 1389.2 1498.56 C 1386.38 1431.98 1382.17 1365.14 1380.9 1298.53 C 1392.75 1295.67 1404.48 1292.31 1416.24 1289.11 z"/>
<path transform="translate(0,0)" fill="rgb(196,241,226)" d="M 232.503 508.871 C 233.46 508.961 232.796 508.825 234.216 509.969 C 235.663 559.237 233.935 609.05 233.87 658.373 L 233.086 1022.47 C 233.17 1045.36 234.886 1194.46 232.597 1199.53 C 230.235 1201.07 229.821 1201.52 227.047 1201.55 C 226.743 1201.04 226.344 1200.57 226.135 1200.02 C 225.154 1197.4 226.089 1110.74 226.077 1101.18 L 226.065 803.327 C 226.139 749.925 224.798 696.052 226.915 642.703 C 219.424 645.402 212.126 649.346 204.807 652.556 A 5097.33 5097.33 0 0 0 151.815 676.066 C 139.029 681.782 120.29 688.121 108.934 695.22 L 108.061 1119.73 C 108.023 1137.69 109.857 1242.44 107.029 1251.99 L 104.591 1251.71 L 104.748 1253.53 C 104.455 1253.26 104.095 1253.05 103.87 1252.72 C 101.761 1249.63 101.694 1244 101.623 1240.37 C 101.02 1209.82 101.77 1179.11 101.855 1148.55 L 103.494 906.334 L 103.814 745.12 C 103.942 713.777 103.399 682.297 105.29 650.995 C 106.056 638.329 108.182 625.945 112.323 613.933 C 133.638 552.103 178.319 535.087 232.503 508.871 z"/>
<path transform="translate(0,0)" fill="rgb(84,40,106)" d="M 223.812 615.01 L 224.588 615.731 C 225.465 618.459 225.807 619.925 225.423 622.849 C 220.763 627.426 129.093 667.979 116.418 673.673 C 114.95 671.083 113.889 668.154 114.642 665.205 C 123.657 658.483 137.689 653.967 148.051 649.308 C 173.348 637.937 198.711 626.819 223.812 615.01 z"/>
<path transform="translate(0,0)" fill="rgb(84,40,106)" d="M 221.203 529.081 C 223.572 531.842 222.435 589.598 222.478 596.897 C 207.729 606.741 190.242 613.958 174.203 621.433 C 156.32 629.767 138.496 638.39 120.334 646.089 L 118.645 644.478 C 118.007 636.359 121.31 627.268 123.786 619.642 C 141.295 565.704 174.594 552.588 221.203 529.081 z"/>
<path transform="translate(0,0)" fill="rgb(196,241,226)" d="M 211.563 543.985 L 212.755 544.882 C 215 558.325 213.11 577.722 213.014 591.805 C 186.465 606.329 158.708 618.705 131.315 631.539 C 129.951 628.696 130.704 626.898 131.668 623.939 C 146.725 577.695 170.222 564.49 211.563 543.985 z"/>
<path transform="translate(0,0)" fill="rgb(196,241,226)" d="M 245.069 504.724 A 196.244 196.244 0 0 1 276.789 514.225 C 312.669 528.697 343.898 555.751 358.872 591.93 C 366.216 609.675 368.811 627.715 369.743 646.765 C 371.31 678.788 368.945 712.203 369.01 744.417 L 369.147 1010.26 C 369.233 1026.04 371.746 1135.45 368.887 1142.32 L 367.085 1142.73 C 365.316 1140.55 365.067 1138.79 364.853 1136 C 363.751 1121.66 365.109 1106.07 365.085 1091.61 L 364.581 993.451 L 364.316 844.549 C 364.208 794.854 363.812 744.87 365.643 695.214 C 346.176 683.292 314.925 670.829 293.252 660.358 A 1544.63 1544.63 0 0 0 254.496 642.895 C 253.311 703.404 254.458 764.195 254.521 824.736 L 255.087 1190.1 L 243.021 1195.13 A 52678.3 52678.3 0 0 1 245.069 504.724 z"/>
<path transform="translate(0,0)" fill="rgb(84,40,106)" d="M 253.554 612.201 C 269.557 618.084 285.416 626.672 301.006 633.709 C 318.653 641.676 346.619 651.793 361.891 662.47 C 362.545 665.48 361.247 667.096 360.049 669.881 C 353.243 668.857 262.572 627.335 253.264 621.511 C 251.894 618.583 253.013 615.258 253.554 612.201 z"/>
<path transform="translate(0,0)" fill="rgb(84,40,106)" d="M 258.564 523.277 C 278.403 527.328 299.251 539.083 314.403 552.332 C 339.497 574.273 355.979 608.27 358.086 641.578 C 340.12 638.097 317 624.888 300.145 617.115 C 286.361 610.757 272.335 605.157 258.311 599.364 C 258.11 578.509 255.843 542.609 258.564 523.277 z"/>
<path transform="translate(0,0)" fill="rgb(196,241,226)" d="M 267.426 535.438 C 275.057 538.263 282.343 541.348 289.36 545.504 C 321.519 564.55 338.167 592.875 347.339 628.318 C 320.474 617.609 294.366 604.447 267.643 593.228 A 2617.64 2617.64 0 0 1 267.426 535.438 z"/>
<path transform="translate(0,0)" fill="rgb(196,241,226)" d="M 1682 859.973 C 1682.95 860.191 1682.34 859.977 1683.61 861.065 C 1684.86 877.293 1685.23 893.611 1686.26 909.861 L 1693.49 1016.43 C 1695.95 1054.33 1699.46 1092.29 1701.17 1130.22 C 1668.84 1139.27 1636.01 1146.45 1603.75 1155.75 L 1603.15 1155.32 C 1600.97 1151.46 1586.98 922.317 1584.88 894.918 C 1617.46 884.955 1650.44 872.866 1682 859.973 z"/>
<path transform="translate(0,0)" fill="rgb(196,241,226)" d="M 1443.19 1233.15 C 1446.27 1232.99 1448.41 1233.72 1451.28 1234.83 C 1469.82 1242.07 1487.86 1251.32 1506.1 1259.35 C 1531.56 1270.57 1557.53 1280.92 1582.54 1293.09 C 1584.76 1322.73 1585.72 1352.44 1587.27 1382.11 A 14860.5 14860.5 0 0 1 1595.65 1546.22 A 25242.1 25242.1 0 0 1 1610.04 1854.12 L 1597.22 1853.7 C 1596.78 1827.69 1594.91 1801.55 1593.68 1775.56 L 1586.23 1620.99 L 1577.66 1447.09 A 5909.3 5909.3 0 0 0 1570.43 1307.58 C 1550.62 1298.48 1529.94 1290.57 1509.86 1282.03 C 1489.89 1273.52 1469.62 1263.8 1448.98 1257.09 L 1447.44 1257.97 C 1445.88 1261.27 1445.53 1264.32 1445.55 1267.94 C 1445.62 1284.01 1446.82 1300.29 1447.41 1316.37 L 1451.18 1417.34 C 1454.3 1498.98 1456.77 1580.75 1460.8 1662.34 C 1461.29 1713.79 1465.19 1765.33 1467.31 1816.74 C 1462.32 1815.01 1457.22 1813.67 1452.13 1812.28 L 1434.46 1414.79 A 8246.1 8246.1 0 0 1 1430.8 1322.66 C 1430.08 1302.42 1431.43 1279.03 1426.44 1259.4 L 1424.63 1260.53 L 1425.83 1259.86 C 1419.78 1257.31 1332.73 1281.49 1320.18 1285.96 C 1323.84 1424.77 1333.12 1563.37 1338.06 1702.13 L 1316.81 1696.86 C 1314.98 1614.38 1310.4 1531.89 1307.58 1449.44 L 1304.4 1348.26 C 1303.69 1323.35 1303.36 1298.32 1301.25 1273.48 C 1321.64 1266.21 1343.51 1261.28 1364.4 1255.53 C 1390.73 1248.28 1416.84 1240.31 1443.19 1233.15 z"/>
<path transform="translate(0,0)" fill="rgb(142,114,183)" d="M 377.135 1187.48 C 445.832 1210.87 515.101 1233.01 584.162 1255.32 C 627.32 1269.27 670.232 1283.95 713.66 1297.04 L 713.717 1429.59 A 16546.5 16546.5 0 0 1 470.777 1360.69 C 439.873 1351.73 409.113 1342.14 378.048 1333.77 C 376.91 1285.05 377.26 1236.21 377.135 1187.48 z"/>
<path transform="translate(0,0)" fill="rgb(84,40,106)" d="M 642.027 1312.06 C 657.774 1315.7 674.181 1320.75 689.054 1327.06 A 5129.15 5129.15 0 0 1 689.233 1384.72 C 673.505 1380.47 657.912 1375.58 642.292 1370.95 A 4529.81 4529.81 0 0 1 642.027 1312.06 z"/>
<path transform="translate(0,0)" fill="rgb(196,241,226)" d="M 651.835 1325.51 L 680.186 1334.18 A 987.246 987.246 0 0 1 680.61 1372.01 C 671.202 1370.27 661.335 1366.08 652.17 1363.13 L 651.835 1325.51 z"/>
<path transform="translate(0,0)" fill="rgb(84,40,106)" d="M 405.915 1237.48 C 421.904 1239.9 440.714 1247.59 455.633 1253.94 C 454.845 1273.92 455.207 1294.02 455.169 1314.02 C 438.386 1310.25 421.692 1304.58 405.189 1299.68 C 405.705 1278.97 405.66 1258.2 405.915 1237.48 z"/>
<path transform="translate(0,0)" fill="rgb(196,241,226)" d="M 415.713 1251.27 C 425.824 1253.7 436.021 1257.61 445.944 1260.8 L 445.977 1301.76 C 435.741 1298.19 425.465 1295.19 415.017 1292.33 C 415.028 1279.07 413.745 1264.33 415.713 1251.27 z"/>
<path transform="translate(0,0)" fill="rgb(84,40,106)" d="M 563.343 1286.78 C 581.073 1291.46 598.532 1297.67 616.127 1302.91 L 615.983 1363.79 C 598.207 1358.97 580.724 1352.91 563.214 1347.2 C 563.768 1327.1 563.349 1306.89 563.343 1286.78 z"/>
<path transform="translate(0,0)" fill="rgb(196,241,226)" d="M 572.953 1299.7 C 583.767 1303.81 595.619 1306.58 606.731 1309.93 L 606.635 1351.59 C 595.616 1349.41 583.733 1344.11 573.005 1340.47 L 572.953 1299.7 z"/>
<path transform="translate(0,0)" fill="rgb(84,40,106)" d="M 484.024 1261.66 A 862.339 862.339 0 0 1 536.957 1278.37 L 537.062 1340.08 C 519.277 1335.23 501.747 1329.41 483.963 1324.5 L 484.024 1261.66 z"/>
<path transform="translate(0,0)" fill="rgb(196,241,226)" d="M 494.895 1275.33 A 1153.33 1153.33 0 0 0 527.593 1285.3 L 527.637 1326.98 C 516.743 1324.8 505.62 1320.48 494.906 1317.4 L 494.895 1275.33 z"/>
<path transform="translate(0,0)" fill="rgb(142,114,183)" d="M 0 1334.89 A 8585.54 8585.54 0 0 0 227.749 1244.45 A 5688.7 5688.7 0 0 1 320.236 1207.71 C 335.632 1201.63 351.389 1193.95 367.208 1189.22 A 11997 11997 0 0 0 367.949 1334.41 C 330.91 1348.27 292.763 1359.68 255.15 1371.9 A 17971 17971 0 0 1 82.4742 1428.24 A 2189.53 2189.53 0 0 1 29.2292 1445.1 C 19.634 1448.04 9.33816 1450.45 0 1454.06 L 0 1334.89 z"/>
<path transform="translate(0,0)" fill="rgb(84,40,106)" d="M 99.6801 1333.14 L 100.245 1333.7 C 102.721 1341.74 100.9 1377.9 100.904 1388.67 A 845.149 845.149 0 0 1 50.5347 1405.65 C 49.6809 1387.37 50.5433 1368.89 49.8654 1350.55 L 99.6801 1333.14 z"/>
<path transform="translate(0,0)" fill="rgb(196,241,226)" d="M 89.223 1346.09 L 89.9562 1346.63 C 92.2271 1352.55 90.7051 1375.51 90.6937 1383.09 L 61.5923 1394.01 L 60.4335 1393.58 C 57.7407 1384.58 59.541 1366.44 59.5219 1356.48 L 89.223 1346.09 z"/>
<path transform="translate(0,0)" fill="rgb(84,40,106)" d="M 335.261 1244.12 C 335.308 1244.15 335.37 1244.18 335.403 1244.22 C 338.173 1248.18 336.898 1295.81 336.923 1304.17 A 2238.52 2238.52 0 0 0 291.206 1320.1 L 290.082 1320.01 C 287.386 1315.77 288.912 1270.31 288.92 1261.92 C 304.028 1255.54 319.537 1248.76 335.261 1244.12 z"/>
<path transform="translate(0,0)" fill="rgb(196,241,226)" d="M 326.97 1257.08 C 329.845 1261.98 328.048 1288.75 328.006 1296.31 A 3013.48 3013.48 0 0 0 299.214 1307.32 C 296.013 1302.43 297.631 1276.48 297.639 1268.86 L 326.97 1257.08 z"/>
<path transform="translate(0,0)" fill="rgb(84,40,106)" d="M 179.911 1302.26 C 182.375 1305.26 180.896 1351.54 180.849 1359.57 C 164.91 1365.86 148.608 1371.28 132.42 1376.9 L 131.589 1376.13 C 129.643 1357.68 131.056 1337.86 131.034 1319.25 A 3419.81 3419.81 0 0 0 179.911 1302.26 z"/>
<path transform="translate(0,0)" fill="rgb(196,241,226)" d="M 168.589 1315.89 L 169.936 1315.78 C 173.069 1320.69 171.389 1346.53 171.366 1354.1 L 142.34 1364.34 L 141.026 1364.43 C 138.547 1360.31 140.078 1333.17 140.093 1326.59 L 168.589 1315.89 z"/>
<path transform="translate(0,0)" fill="rgb(84,40,106)" d="M 256.788 1273.08 L 257.853 1273.26 C 260.974 1277.32 259.004 1323.95 258.977 1332.38 C 242.999 1336.93 227.309 1342.85 211.773 1348.71 L 210.551 1347.86 C 208.134 1335.78 209.921 1304.79 209.922 1290.72 C 225.8 1285.9 241.074 1278.53 256.788 1273.08 z"/>
<path transform="translate(0,0)" fill="rgb(196,241,226)" d="M 246.354 1286.9 L 247.907 1286.72 C 250.558 1290.33 249.117 1318.52 249.085 1325.09 A 2452.57 2452.57 0 0 1 221.253 1335.33 L 219.985 1335.53 C 217.04 1329.9 218.915 1305.45 218.951 1297.52 L 246.354 1286.9 z"/>
<path transform="translate(0,0)" fill="rgb(142,114,183)" d="M 1456.97 1272.2 C 1490.86 1287.46 1526.71 1298.85 1559.81 1315.83 L 1579.26 1706.06 A 6125.8 6125.8 0 0 0 1583.33 1790.28 C 1584.35 1808.8 1586.07 1827.65 1586.02 1846.19 C 1586.02 1848.76 1586.18 1850.91 1584.85 1853.19 L 1582.23 1853.61 C 1569.77 1854.97 1558.01 1856.57 1546.07 1860.59 C 1529.19 1841.84 1501.38 1830.22 1478.27 1820.89 L 1466.81 1523.15 A 7174.47 7174.47 0 0 1 1459.4 1345.6 C 1458.58 1321.15 1456.9 1296.68 1456.97 1272.2 z"/>
<path transform="translate(0,0)" fill="rgb(84,40,106)" d="M 1844.89 1169.39 C 1851.78 1169.98 1940.33 1213.55 1945.79 1218.33 C 1948.49 1220.69 1950.2 1272.95 1950.54 1279.37 L 1959.86 1437.96 A 40855.7 40855.7 0 0 0 1987.52 1916.99 C 1988.4 1918.24 1988.49 1918.77 1988.76 1920.23 C 1973.28 1916.47 1897.21 1914.66 1891.24 1911.17 C 1890.69 1910.84 1889.22 1886.88 1889 1884.29 C 1887.46 1866.82 1887.36 1849.45 1886.11 1831.99 C 1883.7 1798.38 1880.82 1764.64 1878.99 1731.01 C 1878.25 1717.47 1878.81 1703.87 1878.04 1690.3 L 1855.27 1336.55 C 1854.42 1324.38 1854.88 1312.08 1854.18 1299.88 C 1852.45 1269.66 1849.69 1239.45 1847.5 1209.27 C 1846.57 1196.52 1847.02 1183.43 1845.12 1170.81 L 1844.89 1169.39 z"/>
<path transform="translate(0,0)" fill="rgb(196,241,226)" d="M 1846.95 1171.49 C 1879.97 1187.07 1912.38 1203.98 1945.51 1219.32 L 1985.45 1917.75 A 1349.84 1349.84 0 0 1 1963.93 1915.85 A 13301.5 13301.5 0 0 0 1950.37 1674.06 C 1949.71 1677.4 1949.54 1681.83 1946.52 1683.87 A 8123.54 8123.54 0 0 1 1954.36 1823.02 C 1955.96 1853.74 1958.18 1884.56 1958.92 1915.31 A 3534.31 3534.31 0 0 1 1892.01 1909.91 A 56355.4 56355.4 0 0 0 1846.95 1171.49 z"/>
<path transform="translate(0,0)" fill="rgb(86,57,105)" d="M 1946.52 1683.87 C 1945.98 1676.94 1944.72 1668.26 1947.65 1661.74 L 1948.38 1662.1 C 1950.26 1666.09 1950.24 1669.76 1950.37 1674.06 C 1949.71 1677.4 1949.54 1681.83 1946.52 1683.87 z"/>
<path transform="translate(0,0)" fill="rgb(84,40,106)" d="M 1942.19 1525.62 C 1943.13 1537.78 1948.29 1596.59 1945.15 1603.51 L 1943.96 1603.57 C 1939.93 1590.8 1940.2 1545.19 1938.36 1528.77 L 1942.19 1525.62 z"/>
<path transform="translate(0,0)" fill="rgb(86,57,105)" d="M 1938.36 1528.77 L 1929.47 1378.43 A 4213.88 4213.88 0 0 1 1926.85 1331.65 C 1926.43 1324.28 1925.28 1316.68 1925.55 1309.32 C 1925.62 1307.46 1926.09 1306.05 1926.8 1304.35 L 1927.79 1304.46 C 1932.62 1316.7 1935 1403.69 1936.03 1422.49 C 1937.92 1456.88 1940.49 1491.23 1942.19 1525.62 L 1938.36 1528.77 z"/>
<path transform="translate(0,0)" fill="rgb(196,241,226)" d="M 1558.77 878.619 C 1579.14 869.087 1601.16 862.072 1622.29 854.338 C 1649.86 844.243 1677.25 833.637 1704.88 823.708 L 1746.33 1513.74 L 1761.02 1767.44 C 1763.57 1812.49 1765.07 1857.93 1768.97 1902.88 C 1765.07 1902.62 1761.13 1902.48 1757.26 1901.98 C 1753.21 1813.14 1747.03 1724.28 1741.79 1635.49 L 1727.63 1381.47 A 10519.8 10519.8 0 0 1 1719.74 1228.55 C 1718.69 1207.71 1718.42 1186.59 1716.69 1165.81 C 1716.42 1162.51 1715.92 1157 1713.45 1154.52 L 1711.03 1154.59 L 1713.17 1154.88 L 1711.14 1155.83 L 1711.65 1154.43 C 1694.66 1156.58 1677.36 1162.44 1660.7 1166.6 C 1634.41 1173.16 1608.09 1179.54 1582.07 1187.1 C 1571.31 1190.23 1560.12 1192.97 1549.76 1197.27 C 1550.1 1207.98 1550.51 1254.59 1552.84 1261.86 C 1555.25 1263.26 1555.65 1263.06 1558.47 1262.81 L 1560.51 1261.32 C 1562.61 1246.43 1559.27 1219.81 1558.59 1203.86 C 1607.45 1190.74 1657.65 1180.14 1705.96 1165.26 C 1710.24 1219.25 1711.92 1273.67 1714.81 1327.77 L 1729.18 1588.47 A 18946.2 18946.2 0 0 0 1740.06 1781.11 C 1742.5 1821.34 1745.71 1861.73 1747.07 1901.99 C 1738.37 1901.8 1705.34 1902.64 1699.6 1900.05 L 1698.66 1901.73 C 1698.18 1900.82 1697.68 1899.92 1697.2 1899 C 1689.92 1885.02 1670.12 1880.96 1662.48 1867.13 C 1662.18 1866.59 1661.92 1866.04 1661.64 1865.5 C 1659.54 1866.85 1658.31 1867.31 1655.83 1867.57 C 1647.74 1862.82 1623.92 1859.29 1620.12 1855.84 C 1617.79 1853.73 1618.08 1836.76 1617.87 1832.8 L 1599.25 1481.56 C 1598.41 1466.29 1598.95 1450.89 1598.29 1435.58 C 1597.64 1420.34 1595.92 1405.16 1595.17 1389.93 C 1594.44 1374.86 1594.57 1359.72 1593.94 1344.63 C 1593.31 1329.71 1591.92 1314.7 1590.97 1299.78 C 1590.79 1296.99 1590.77 1291.56 1589.48 1289.16 C 1585.25 1281.28 1558.26 1276.43 1550.52 1269.56 C 1546.08 1265.62 1537.82 1266.02 1534 1261.35 L 1534.75 1259.24 C 1536.31 1237.12 1531.48 1210.67 1530.57 1188.14 C 1569.25 1176.35 1608.58 1165.98 1647.7 1155.73 C 1669.48 1150.02 1692.13 1145.2 1713.37 1137.76 C 1708.74 1103.57 1707.43 1068.2 1705.57 1033.72 L 1699.11 928.762 C 1697.75 907.173 1698 884.468 1694.77 863.11 C 1694.15 858.977 1693.28 852.19 1689.68 849.767 C 1687.34 848.19 1681.44 850.066 1678.74 850.826 C 1662.49 855.389 1646.35 862.023 1630.45 867.726 C 1611.66 874.47 1592.35 880.679 1573.88 888.236 C 1578.68 978.583 1585.82 1068.87 1591.76 1159.16 L 1579.4 1162.16 C 1575.74 1137.55 1575.07 1111.95 1573.43 1087.1 L 1564.44 954.957 C 1562.71 929.584 1561.95 903.851 1558.77 878.619 z"/>
<path transform="translate(0,0)" fill="rgb(86,57,105)" d="M 1699.6 1900.05 L 1698.66 1901.73 C 1698.18 1900.82 1697.68 1899.92 1697.2 1899 C 1689.92 1885.02 1670.12 1880.96 1662.48 1867.13 C 1662.18 1866.59 1661.92 1866.04 1661.64 1865.5 C 1659.54 1866.85 1658.31 1867.31 1655.83 1867.57 C 1647.74 1862.82 1623.92 1859.29 1620.12 1855.84 C 1617.79 1853.73 1618.08 1836.76 1617.87 1832.8 L 1599.25 1481.56 C 1598.41 1466.29 1598.95 1450.89 1598.29 1435.58 C 1597.64 1420.34 1595.92 1405.16 1595.17 1389.93 C 1594.44 1374.86 1594.57 1359.72 1593.94 1344.63 C 1593.31 1329.71 1591.92 1314.7 1590.97 1299.78 C 1590.79 1296.99 1590.77 1291.56 1589.48 1289.16 C 1585.25 1281.28 1558.26 1276.43 1550.52 1269.56 C 1546.08 1265.62 1537.82 1266.02 1534 1261.35 L 1534.75 1259.24 C 1547.44 1269.81 1575.68 1277.27 1591.71 1287.32 C 1595.01 1306.61 1594.76 1327.01 1595.61 1346.56 A 7761.71 7761.71 0 0 0 1599.87 1435.67 L 1612.44 1685.09 A 9187.72 9187.72 0 0 0 1618.16 1804.88 C 1619.05 1821.72 1619.29 1838.81 1620.74 1855.59 C 1633.59 1857.49 1646.29 1860.45 1658.1 1865.99 L 1656.78 1829.91 C 1657.41 1831.88 1658.25 1833.72 1659.1 1835.61 C 1659.65 1833.61 1660.21 1831.78 1661.06 1829.89 L 1661.83 1828.19 L 1663.63 1867.97 C 1670.31 1872.13 1691.7 1887.42 1696.09 1892.5 C 1697.99 1894.7 1698.87 1897.29 1699.6 1900.05 z"/>
<path transform="translate(0,0)" fill="rgb(84,40,106)" d="M 1627.02 1271.41 L 1577.66 1239.52 C 1574.19 1237.32 1572.11 1235.54 1571.13 1231.34 L 1572.35 1230.43 C 1578.77 1231.3 1623.95 1263.06 1632.24 1269.17 C 1634 1285.14 1633.98 1301.62 1634.71 1317.69 L 1638.69 1400.28 L 1643.51 1491.4 C 1644.39 1507.74 1645.8 1524.25 1645.85 1540.61 L 1657.13 1739.37 L 1660.18 1797.03 C 1660.78 1807.23 1662.13 1818 1661.83 1828.19 L 1661.06 1829.89 C 1660.21 1831.78 1659.65 1833.61 1659.1 1835.61 C 1658.25 1833.72 1657.41 1831.88 1656.78 1829.91 C 1655.31 1818.37 1655.29 1806.38 1654.71 1794.76 L 1651.23 1727.45 C 1647.9 1668.88 1643.1 1609.84 1641.85 1551.21 C 1640.32 1542.27 1640.5 1532.34 1640.06 1523.25 L 1637.42 1468.89 L 1631.49 1363.47 A 5394.64 5394.64 0 0 0 1627.02 1271.41 z"/>
<path transform="translate(0,0)" fill="rgb(142,114,183)" d="M 375.911 1374.68 L 560.547 1425.44 C 628.298 1444.59 695.672 1465.09 763.814 1482.84 C 762.238 1607.55 768.379 1732.25 768.76 1856.95 C 721.48 1852.3 673.419 1853.74 626.013 1850.04 L 626.151 1594.08 A 10386 10386 0 0 1 626.414 1462.51 C 593.134 1454.33 559.561 1446 525.942 1439.36 C 524.634 1480.16 525.735 1521.32 525.663 1562.16 L 525.954 1844.5 C 476.094 1842.93 426.187 1838.79 376.359 1836.17 L 376.285 1590.48 C 375.969 1518.59 374.804 1446.55 375.911 1374.68 z"/>
<path transform="translate(0,0)" fill="rgb(84,40,106)" d="M 642.473 1674.21 C 672.724 1679.59 703.157 1687.25 733.011 1694.56 C 733.08 1714.02 732.533 1733.52 732.26 1752.98 C 705.788 1751.85 669 1741.59 642.248 1735.83 C 642.525 1715.33 641.217 1694.68 642.473 1674.21 z"/>
<path transform="translate(0,0)" fill="rgb(196,241,226)" d="M 651.136 1687.56 A 4721.92 4721.92 0 0 0 725.104 1703.61 L 725.017 1744.92 C 700.461 1739.41 676 1733.36 651.316 1728.46 L 651.136 1687.56 z"/>
<path transform="translate(0,0)" fill="rgb(84,40,106)" d="M 641.728 1482.47 C 656.615 1485.17 671.611 1490.1 686.123 1494.37 C 701.77 1498.98 717.68 1503.27 733.037 1508.77 C 732.981 1517.29 734.911 1561.92 731.654 1566.19 C 717.666 1564.39 703.939 1560.24 690.297 1556.75 A 1655.6 1655.6 0 0 0 641.608 1545.06 C 641.467 1524.26 640.707 1503.25 641.728 1482.47 z"/>
<path transform="translate(0,0)" fill="rgb(196,241,226)" d="M 651.021 1496.37 C 675.802 1502.64 700.194 1510.37 724.985 1516.66 L 724.946 1556.4 C 700.284 1550.16 675.874 1542.94 651.08 1537.22 L 651.021 1496.37 z"/>
<path transform="translate(0,0)" fill="rgb(84,40,106)" d="M 642.095 1772.71 C 656.282 1773.39 671.145 1777.23 685.104 1779.86 C 701.286 1782.92 717.903 1785.38 733.799 1789.6 L 732.922 1848.13 C 721.403 1847.68 709.739 1845.21 698.327 1843.51 L 642.062 1835.26 L 642.095 1772.71 z"/>
<path transform="translate(0,0)" fill="rgb(196,241,226)" d="M 651.608 1784.49 C 676.25 1788.79 700.837 1794.45 725.35 1799.51 C 725.427 1812.44 726.893 1827.4 724.785 1840.06 A 3786.1 3786.1 0 0 0 651.585 1826.55 A 2035.65 2035.65 0 0 1 651.608 1784.49 z"/>
<path transform="translate(0,0)" fill="rgb(84,40,106)" d="M 641.746 1577.18 C 672.149 1582.91 703.05 1591.7 733.017 1599.51 A 2115.89 2115.89 0 0 1 732.18 1657.85 C 702.069 1654.47 671.016 1646.73 641.352 1640.31 C 641.318 1619.48 639.984 1597.88 641.746 1577.18 z"/>
<path transform="translate(0,0)" fill="rgb(196,241,226)" d="M 650.92 1590.3 C 675.373 1595.86 699.693 1602.55 724.077 1608.47 L 724.345 1648.47 C 699.967 1642.6 675.468 1637.13 651.005 1631.62 L 650.92 1590.3 z"/>
<path transform="translate(0,0)" fill="rgb(84,40,106)" d="M 405.375 1519.53 C 438.927 1527.06 473.257 1534.56 506.072 1544.79 L 506.007 1604.49 C 473.52 1600.76 438.384 1589.92 405.559 1584.03 L 405.375 1519.53 z"/>
<path transform="translate(0,0)" fill="rgb(196,241,226)" d="M 415.17 1533.51 C 442.625 1537.81 470.238 1546.79 497.419 1552.94 L 497.539 1594.08 C 489.398 1593.58 480.219 1590.83 472.231 1589.03 A 3046.5 3046.5 0 0 1 415.628 1575.47 L 415.17 1533.51 z"/>
<path transform="translate(0,0)" fill="rgb(84,40,106)" d="M 405.45 1618.56 C 421.806 1620.15 439.063 1625.7 455.106 1629.41 C 471.934 1633.3 488.978 1636.22 505.724 1640.42 L 506.037 1701.34 C 472.506 1698.24 438.136 1689.22 405.171 1682.29 L 405.45 1618.56 z"/>
<path transform="translate(0,0)" fill="rgb(196,241,226)" d="M 415.271 1631.45 C 442.727 1636.41 469.748 1644.33 497.199 1649.53 L 497.007 1691.63 C 470.009 1685.73 442.823 1680.65 415.883 1674.49 L 415.271 1631.45 z"/>
<path transform="translate(0,0)" fill="rgb(84,40,106)" d="M 406.294 1418.91 C 422.857 1422.91 439.292 1427.85 455.712 1432.41 C 472.551 1437.1 489.769 1441.44 506.154 1447.53 L 505.701 1507.64 C 471.92 1502.4 438.789 1491.24 405.565 1483.26 C 405.389 1462.54 403.177 1439.3 406.294 1418.91 z"/>
<path transform="translate(0,0)" fill="rgb(196,241,226)" d="M 415.2 1432.57 C 442.608 1441.18 470.497 1448.46 498.004 1456.82 A 3855.27 3855.27 0 0 1 497.326 1496.95 C 489.04 1498.21 429.595 1479.37 415.374 1476.28 C 414.961 1461.74 415.228 1447.12 415.2 1432.57 z"/>
<path transform="translate(0,0)" fill="rgb(84,40,106)" d="M 406.101 1719.64 C 439.734 1726.54 473.675 1732.16 507.107 1740 C 506.963 1760.09 507.433 1780.21 506.77 1800.29 C 492.976 1799.35 479.097 1796.66 465.434 1794.52 C 445.418 1791.4 425.321 1788.4 405.454 1784.42 A 4735.54 4735.54 0 0 0 406.101 1719.64 z"/>
<path transform="translate(0,0)" fill="rgb(196,241,226)" d="M 415.888 1733.28 A 3791.53 3791.53 0 0 0 497.751 1748.57 L 497.894 1790.28 L 415.756 1776.45 L 415.888 1733.28 z"/>
<path transform="translate(0,0)" fill="rgb(142,114,183)" d="M 0 1492.39 A 17434.8 17434.8 0 0 1 177.966 1435.59 C 240.457 1415.71 302.985 1395.27 365.945 1376.96 L 366.261 1638 C 366.532 1703.82 367.872 1769.85 366.675 1835.66 L 254.042 1829.19 C 222.707 1827.09 191.235 1823.78 159.83 1823.16 C 179.263 1817.83 199.653 1814.73 219.445 1810.87 A 3387.65 3387.65 0 0 0 300.436 1793.92 C 313.937 1791.04 327.632 1788.76 341.021 1785.43 A 5342.5 5342.5 0 0 0 341.46 1720.38 C 314.812 1723.56 279.931 1733.49 252.644 1738.99 A 4392.34 4392.34 0 0 0 116.342 1767.78 C 93.0064 1772.9 69.2807 1777.43 46.193 1783.52 C 46.8165 1794.47 46.5502 1805.41 46.0361 1816.36 C 30.6743 1815.46 15.3406 1813.54 0 1812.78 L 0 1492.39 z"/>
<path transform="translate(0,0)" fill="rgb(84,40,106)" d="M 335.274 1423.02 C 337.945 1422.78 338.978 1422.33 341.339 1423.7 C 343.962 1436.46 342.007 1467.95 341.955 1482.53 C 329.76 1488.29 316.308 1491.77 303.455 1495.75 A 3086.12 3086.12 0 0 1 235.402 1516.04 A 13456.5 13456.5 0 0 0 52.9457 1569.9 C 50.8361 1570.55 49.7533 1570.81 47.5847 1570.3 C 45.2521 1560.47 46.9903 1522.39 47.0075 1509.85 C 94.9376 1496.71 142.25 1481.66 189.753 1467.1 L 335.274 1423.02 z"/>
<path transform="translate(0,0)" fill="rgb(196,241,226)" d="M 232.94 1465.09 L 235.131 1465.3 C 237.976 1473.12 236.188 1497.96 236.229 1507.49 L 155.624 1530.92 L 154.283 1531.04 C 151.34 1526.83 152.946 1496.9 152.992 1489.6 A 7839.92 7839.92 0 0 1 232.94 1465.09 z"/>
<path transform="translate(0,0)" fill="rgb(196,241,226)" d="M 140.384 1493.01 C 141.242 1492.94 142.005 1493.35 142.807 1493.63 C 145.438 1504.91 143.742 1522.37 143.802 1534.36 C 116.117 1543.25 87.9041 1550.86 59.9452 1558.85 C 57.8576 1559.52 58.9784 1559.39 56.569 1559.07 C 53.1036 1550.78 55.7012 1528.19 55.9323 1518.17 C 84.2299 1510.4 112.317 1501.58 140.384 1493.01 z"/>
<path transform="translate(0,0)" fill="rgb(196,241,226)" d="M 332.165 1434.1 L 332.81 1434.58 C 335.128 1440.25 333.713 1470.01 333.729 1478.22 C 305.012 1487.96 275.521 1495.78 246.483 1504.51 L 245.689 1504.54 C 242.888 1500.94 244.273 1468.42 244.272 1461.57 C 273.391 1451.87 303.041 1443.81 332.165 1434.1 z"/>
<path transform="translate(0,0)" fill="rgb(84,40,106)" d="M 338.583 1521.15 L 340.355 1521.53 C 343.45 1527.46 341.185 1573.7 341.054 1583.38 C 324.894 1589.71 307.241 1593.48 290.461 1597.94 A 8109.6 8109.6 0 0 1 202.016 1621.06 C 151.706 1633.97 101.841 1649.36 51.2232 1660.94 L 48.2246 1660.76 C 44.7349 1653.92 46.9513 1611.51 46.9846 1600.53 L 207.155 1557.02 C 250.934 1544.93 294.543 1532.29 338.583 1521.15 z"/>
<path transform="translate(0,0)" fill="rgb(196,241,226)" d="M 234.008 1560.15 L 234.638 1560.33 C 237.197 1563.45 236.005 1597.64 236.004 1604.37 C 209.086 1609.24 181.66 1617.93 155.209 1625.17 L 154.092 1624.98 C 151.181 1620.6 152.762 1589.63 152.769 1582.33 L 234.008 1560.15 z"/>
<path transform="translate(0,0)" fill="rgb(196,241,226)" d="M 141.903 1585.17 L 143.064 1585.68 C 145.558 1593.66 143.47 1618.65 143.346 1628.45 C 114.758 1636.49 85.7484 1643.31 57.0105 1650.83 L 55.5872 1649.69 C 54.0233 1636.52 55.2381 1622.03 55.341 1608.71 L 141.903 1585.17 z"/>
<path transform="translate(0,0)" fill="rgb(196,241,226)" d="M 332.31 1533.15 L 333.011 1533.55 C 335.504 1540.25 333.938 1569.03 333.958 1578.06 A 6050.87 6050.87 0 0 0 245.711 1601.73 L 244.827 1601.22 C 242.278 1591.71 244.124 1568.37 244.147 1557.39 C 272.806 1547.93 303.206 1541.33 332.31 1533.15 z"/>
<path transform="translate(0,0)" fill="rgb(84,40,106)" d="M 338.84 1620.28 L 340.92 1620.36 C 343.792 1626.95 341.655 1673.41 341.583 1683.87 C 331.102 1687.98 319.411 1689.9 308.445 1692.42 L 255.453 1704.69 C 186.794 1720.71 117.838 1735.97 49.3932 1752.84 L 48.23 1752.59 C 45.3647 1747.96 46.9431 1700.29 46.929 1691.48 C 119.592 1675.07 192.031 1656.38 264.394 1638.62 C 289.203 1632.52 313.912 1625.84 338.84 1620.28 z"/>
<path transform="translate(0,0)" fill="rgb(196,241,226)" d="M 141.983 1679.23 L 142.295 1679.45 C 144.95 1683.57 143.07 1715.92 143.018 1722.46 A 2220.6 2220.6 0 0 0 56.2122 1742.2 C 53.8412 1729.43 55.3444 1713.96 55.3433 1700.94 L 141.983 1679.23 z"/>
<path transform="translate(0,0)" fill="rgb(196,241,226)" d="M 231.847 1657.22 L 234.222 1657.22 C 237.656 1663.2 235.775 1692.83 235.753 1701.44 L 156.156 1719.75 L 153.984 1720.04 L 152.803 1718.96 C 150.614 1705.94 152.742 1689.84 152.936 1676.5 A 3254.04 3254.04 0 0 1 231.847 1657.22 z"/>
<path transform="translate(0,0)" fill="rgb(196,241,226)" d="M 329.115 1633.16 L 331.763 1632.99 C 335.277 1638.25 333.822 1670.25 333.919 1678.49 C 305.215 1684.16 276.692 1691.54 248.239 1698.35 C 246.015 1698.75 247.079 1698.85 245.041 1698.12 C 242.045 1689.38 243.997 1664.5 244.013 1654.25 A 3340.55 3340.55 0 0 0 329.115 1633.16 z"/>
<path transform="translate(0,0)" fill="rgb(142,114,183)" d="M 0 1823.58 A 15500.1 15500.1 0 0 0 214.996 1836.38 L 653.997 1861.37 A 15159.6 15159.6 0 0 1 860.983 1871.55 C 908.398 1873.82 956.048 1875.34 1003.36 1879.25 C 1008.05 1889.54 1014.67 1893.74 1025.02 1897.47 C 1046.45 1905.18 1094.04 1902.36 1118.36 1902.48 L 1201.04 1902.99 L 1335.62 1905.39 L 1644.95 1910.31 C 1685.76 1911.14 1726.46 1910.97 1767.26 1912.94 C 1821.86 1915.59 1876.68 1918.09 1931.14 1922.96 C 1969.94 1926.42 2009.1 1932.71 2048 1934.21 L 2048 2048 L 0 2048 L 0 1823.58 z"/>
</svg>