<svg preserveAspectRatio="xMidYMid meet" version="1.1" xmlns="http://www.w3.org/2000/svg" style="display: block;" viewBox="0 0 2048 2048" width="1024" height="1024">
<path transform="translate(0,0)" fill="rgb(242,239,230)" d="M 0 0 L 1794.46 0 L 1825.39 0 L 1862.45 0 L 1963.2 0 L 2048 0 L 2048 1.71169 L 2048 304.792 L 2048 356.427 L 2048 393.263 L 2048 2048 L 0 2048 L 0 0 z"/>
<path transform="translate(0,0)" fill="rgb(30,66,75)" d="M 1018.97 1737.87 C 1024.04 1739.81 1030.06 1751.61 1033 1756.18 C 987.106 1778.69 931.573 1784.59 881.031 1786.15 C 866.167 1786.6 850.734 1785.47 836.02 1786.58 C 835.42 1786.63 834.822 1786.68 834.224 1786.73 C 829.576 1786.56 825.468 1786.49 821.026 1784.91 C 821.645 1782.77 841.768 1781.77 845.049 1781.52 C 900.883 1777.31 969.933 1765.76 1018.97 1737.87 z"/>
<path transform="translate(0,0)" fill="rgb(30,66,75)" d="M 1049.76 1783.01 C 1052.77 1783.84 1060.4 1796.78 1062.74 1799.98 C 979.704 1850.99 817.451 1832.09 724.855 1817.34 C 718.456 1816.72 711.771 1815.83 705.796 1813.4 C 713.303 1811.36 763.398 1817.11 775.03 1817.85 C 862.83 1823.41 968.768 1821.03 1049.76 1783.01 z"/>
<path transform="translate(0,0)" fill="rgb(30,66,75)" d="M 986.021 1689.94 C 990.564 1692.71 996.384 1703.27 999.741 1707.94 C 921.276 1747.41 786.194 1747.64 698.553 1749.68 L 517.42 1752.77 C 487.742 1753.29 457.821 1753.08 428.249 1755.83 C 423.669 1756.23 419.08 1757.06 414.608 1755.74 C 421.022 1749.06 751.323 1732.71 785.099 1730.26 A 1421.31 1421.31 0 0 0 874.815 1720.53 C 912.407 1715.01 951.743 1706.65 986.021 1689.94 z"/>
<path transform="translate(0,0)" fill="rgb(30,66,75)" d="M 999.541 1619.89 C 999.858 1620.16 1000.2 1620.41 1000.49 1620.7 C 1006.33 1626.47 1011.3 1635.14 1016.08 1641.88 A 2764.73 2764.73 0 0 1 1053.93 1696.57 C 1077.86 1731.48 1102.25 1766.04 1125.56 1801.38 C 1132 1811.15 1139.02 1820.66 1145.11 1830.65 C 1146.98 1833.71 1149.56 1837.66 1149.02 1841.41 C 1148.8 1842.98 1148.09 1842.95 1146.89 1843.71 C 1145.61 1843.25 1144.84 1842.81 1143.99 1841.73 C 1126.59 1819.73 1110.23 1796.9 1093.26 1774.57 L 995.664 1647.96 C 973.463 1656.32 952.441 1665.17 929.313 1671.01 C 857.175 1689.25 781.191 1692.99 707.158 1697 A 10602.3 10602.3 0 0 1 596.122 1703.28 C 540.753 1705.64 484.98 1706.92 429.72 1710.93 C 404.511 1711.06 379.069 1713.19 353.864 1714.2 C 288.774 1716.82 223.492 1719.77 158.367 1721.05 C 139.289 1721.42 119.335 1723.78 100.377 1723.12 C 97.5416 1723.02 95.2436 1722.97 92.7128 1721.56 C 92.9455 1719.22 93.6888 1718.78 96.0157 1718.16 C 104.782 1715.8 116.902 1716.68 126.145 1716.08 L 195.771 1710.96 L 589.648 1680.22 L 709.35 1672.05 C 765.321 1668.76 820.785 1665.96 876.281 1657.41 C 909.184 1652.34 974.43 1641.08 999.541 1619.89 z"/>
<path transform="translate(0,0)" fill="rgb(30,66,75)" d="M 1329.61 1319.87 C 1334.34 1327.58 1338.68 1352.79 1341.67 1362.86 A 814.366 814.366 0 0 0 1362.43 1424.33 C 1379.27 1467.82 1403.7 1513.99 1446.8 1536.1 C 1458.74 1542.23 1471.38 1544.82 1483.42 1550.13 C 1483.65 1550.88 1483.98 1551.84 1483.96 1552.62 C 1483.91 1553.99 1483.5 1555.65 1482.43 1556.56 C 1480.95 1557.82 1479.41 1558.26 1477.51 1558.34 C 1457.92 1559.13 1437.76 1558.15 1418.11 1558.25 A 14730.1 14730.1 0 0 1 1260.81 1558.29 C 1247.06 1558.26 1127.75 1559.48 1123.9 1556.94 C 1123.66 1555.08 1123.32 1553.27 1123.64 1551.41 C 1124.05 1549.08 1124.09 1548.54 1126.32 1547.65 C 1130.97 1545.79 1136.53 1544.89 1141.4 1543.51 C 1152.61 1540.31 1163.03 1534.13 1172.3 1527.13 C 1186.47 1516.43 1200.21 1501.1 1202.38 1482.8 C 1204.67 1463.58 1195.52 1444.08 1183.67 1429.56 C 1226.29 1386.08 1277.92 1351.5 1329.61 1319.87 z"/>
<path transform="translate(0,0)" fill="rgb(30,66,75)" d="M 1825.39 0 L 1862.45 0 L 1963.2 0 L 2048 0 L 2048 1.71169 L 2048 304.792 C 2039.16 317.852 2031.64 336.228 2024.16 350.541 C 2013.57 370.814 2001.75 390.479 1991.56 410.931 A 911.516 911.516 0 0 0 1990.66 377.943 C 1990.01 366.039 1987.36 322.946 1979.7 316.091 C 1973.79 319.977 1976.24 334.392 1976.54 340.462 C 1977.59 361.585 1980.95 420.54 1973.08 437.48 C 1965.52 453.767 1953.59 468.191 1945.66 484.52 C 1946.86 457.904 1946.15 413.63 1940.08 388.689 C 1939.24 385.214 1938.2 379.468 1935.1 377.579 C 1932.02 380.476 1931.47 385.229 1931.03 389.305 C 1930.15 397.362 1931.05 406.106 1931.04 414.253 C 1931.01 434.152 1930.79 491.077 1926.81 507.641 C 1921.65 529.096 1834.1 646.249 1816.73 671.536 C 1807.59 652.92 1800.26 633.876 1789.93 615.763 C 1761.26 565.491 1708.91 509.526 1656.15 485.015 C 1661.49 473.109 1669.08 461.789 1675.16 450.177 C 1646.5 435.067 1617.7 425.176 1585.13 423.822 C 1579.19 433.63 1573.55 443.654 1567.79 453.574 C 1553.76 450.468 1539.91 448.959 1525.62 447.967 C 1543.29 416.744 1562.68 386.442 1581.49 355.902 A 4660.8 4660.8 0 0 1 1746.27 106.124 A 4005.22 4005.22 0 0 1 1792.12 42.8852 C 1802.49 28.8778 1812.98 13.7112 1825.26 1.29577 L 1825.39 0 z"/>
<path transform="translate(0,0)" fill="rgb(242,239,230)" d="M 1825.39 0 L 1862.45 0 L 1861.11 2.08033 C 1849.34 0.544854 1837.1 2.78082 1825.26 1.29577 L 1825.39 0 z"/>
<path transform="translate(0,0)" fill="rgb(242,239,230)" d="M 1963.2 0 L 2048 0 L 2048 1.71169 C 2019.5 2.39346 1990.04 3.01577 1961.59 1.65469 L 1963.2 0 z"/>
<path transform="translate(0,0)" fill="rgb(242,239,230)" d="M 1862.45 0 L 1963.2 0 L 1961.59 1.65469 C 1958.96 2.27452 1958.14 2.39081 1956.26 4.45482 C 1951.91 9.20071 1948.42 15.333 1944.73 20.6428 L 1920.51 55.5389 A 4604.22 4604.22 0 0 0 1800.09 240.326 C 1759.74 305.533 1719.5 371.404 1682.2 438.401 C 1652.52 422.329 1624.52 411.638 1590.11 414.737 C 1623.38 351.916 1662.77 291.577 1701.42 231.963 C 1752.09 153.806 1803.99 75.7156 1861.11 2.08033 L 1862.45 0 z"/>
<path transform="translate(0,0)" fill="rgb(30,66,75)" d="M 753.073 539.51 C 832.547 537.503 912.35 539.006 991.861 538.97 C 1046.34 674.946 1097.72 812.232 1152.93 947.898 C 1140.25 961.807 1127.39 975.449 1113.76 988.444 C 1132.59 1001.33 1144.76 1022.11 1150.68 1043.74 C 1168.68 1109.45 1144.48 1211.36 1127.17 1276.54 C 1121.69 1297.16 1116.58 1321.92 1105.96 1340.57 C 1101.02 1322.06 1093.64 1304.06 1086.96 1286.11 A 3267.42 3267.42 0 0 0 1052.26 1196.02 L 676.673 1195.96 A 8981.28 8981.28 0 0 1 594.473 1393.99 C 582.316 1422.38 570.732 1450.96 557.961 1479.09 C 573.375 1503.13 597.481 1528.92 623.754 1540.92 C 633.605 1545.42 644.008 1547.82 654.395 1550.68 C 655.507 1553.5 655.501 1555.74 655.462 1558.7 C 655.149 1558.84 654.847 1559 654.522 1559.1 C 648.672 1560.9 614.291 1559.52 604.972 1559.56 A 12864.7 12864.7 0 0 1 440.69 1559.09 C 422.477 1558.94 404.144 1559.81 385.958 1559.24 C 382.14 1559.12 379.162 1558.56 375.783 1556.75 C 374.22 1554.33 374.234 1554.51 374.772 1551.69 C 377.955 1548.19 391.667 1547.22 397.245 1545.31 C 436.463 1531.88 466.123 1497.57 483.661 1461.26 C 499.283 1428.55 511.989 1394.06 525.631 1360.46 L 585.305 1216.01 L 817.317 645.269 C 830.731 680.26 844.363 715.386 856.228 750.928 C 845.332 782.249 831.835 813.33 819.413 844.099 L 754.733 1005.97 C 739.544 1043.47 722.923 1080.86 709.38 1118.97 C 757.795 1119.69 806.271 1119.13 854.693 1119.16 A 14825.1 14825.1 0 0 0 1022.93 1119.07 C 1013.31 1089.49 1001.41 1060.42 990.244 1031.39 L 952.848 932.244 L 865.497 696.733 C 847.316 648.852 828.51 589.539 782.456 561.302 C 772.35 555.105 761.652 552.599 750.994 547.812 C 750.069 544.91 750.612 543.611 751.21 540.669 L 753.073 539.51 z"/>
<path transform="translate(0,0)" fill="rgb(30,66,75)" d="M 1772.68 1.60762 C 1779.88 1.92274 1786.97 1.3834 1794.14 0.883669 C 1793.61 2.79072 1793.07 4.4102 1791.98 6.08064 C 1785.66 15.7173 1776.96 24.5883 1769.62 33.5699 A 1874.82 1874.82 0 0 0 1736.53 76.0998 C 1670.22 163.453 1607.91 261.866 1549.36 354.866 C 1532.87 381.047 1517.3 407.852 1501.13 434.242 C 1494.49 445.088 1488.17 456.706 1480.66 466.966 C 1559.84 457.07 1630.49 480.74 1692.8 529.231 A 340.686 340.686 0 0 1 1799.07 672.039 C 1804.78 686.464 1808.56 701.328 1813.53 715.976 A 3341.97 3341.97 0 0 0 1932.06 548.123 C 1942.95 531.555 1954.78 515.358 1965.04 498.406 C 1984.98 465.476 2004.18 432.189 2023.56 398.936 C 2031.76 384.852 2038.9 369.951 2048 356.427 L 2048 393.263 C 1980.28 513.011 1902.95 626.116 1820.79 736.351 C 1797.8 767.184 1770.5 808.697 1741.23 833.047 C 1715.57 854.405 1685.58 864.534 1653.98 873.536 C 1651.37 885.616 1647.17 897.755 1643.67 909.638 L 1622.29 981.568 L 1544.13 1240.95 A 137.12 137.12 0 0 0 1511.01 1235.08 C 1408.3 1228.85 1270.51 1322.71 1196.28 1389.26 C 1150.68 1430.15 1109.91 1476.11 1064.03 1516.82 C 1081.28 1486.43 1092.94 1452.78 1104.87 1420.01 C 1127.47 1357.95 1149.05 1293.75 1163.04 1229.14 C 1176.07 1168.92 1190.06 1085.69 1171.5 1025.6 C 1167.41 1012.34 1161.31 1000.92 1153.82 989.287 C 1170.85 970.477 1186.55 950.267 1202.37 930.43 A 5920.72 5920.72 0 0 0 1279.39 832.323 C 1320.5 779.403 1363.13 727.507 1404.87 675.07 C 1396.97 660.254 1391.14 646.557 1390.16 629.623 C 1388.8 605.995 1395.42 583.648 1404.98 562.285 C 1417.32 534.723 1434.2 509.001 1449.85 483.23 A 9389.93 9389.93 0 0 1 1518.68 371.756 A 6382.41 6382.41 0 0 1 1655.53 159.515 C 1691.92 105.42 1729.49 50.5239 1772.68 1.60762 z"/>
<path transform="translate(0,0)" fill="rgb(242,239,230)" d="M 1381.07 976.284 C 1391.86 975.021 1403.82 977.301 1412.49 984.104 C 1419.28 989.44 1424.18 997.39 1425.05 1006.07 C 1425.91 1014.64 1422.37 1023.18 1416.81 1029.58 C 1408.66 1038.99 1397.77 1042.54 1385.77 1043.61 C 1375.94 1043.18 1367.01 1041.83 1358.52 1036.48 C 1350.66 1031.53 1343.68 1023.3 1342.01 1013.96 C 1340.8 1007.18 1343.03 1000.54 1347.01 995.055 C 1355.11 983.869 1367.86 978.516 1381.07 976.284 z"/>
<path transform="translate(0,0)" fill="rgb(242,239,230)" d="M 1487.14 597.406 C 1509.58 596.601 1532.87 602.489 1553.68 610.505 C 1611.04 632.611 1671.03 681.975 1695.84 738.771 C 1705.16 760.108 1712.43 789.281 1707.4 812.52 C 1705.2 822.661 1700.71 832.617 1696.95 842.254 C 1686.03 847.52 1673.7 850.313 1662.22 854.23 C 1672.68 840.7 1693.09 809.748 1691.62 792.277 C 1691.52 791.222 1691.44 790.166 1691.3 789.115 C 1685.49 742.924 1649.42 698.629 1613.75 671.064 C 1574.09 640.411 1522.41 614.913 1470.91 621.609 C 1446.11 624.832 1430.27 637.274 1415.25 656.578 C 1413.58 649.719 1412.15 643.023 1411.29 636.013 C 1413.01 633.007 1414.78 630.173 1417.04 627.547 C 1434.86 606.85 1460.83 599.46 1487.14 597.406 z"/>
<path transform="translate(0,0)" fill="rgb(242,239,230)" d="M 1506.18 480.41 C 1561.1 475.058 1622.91 500.345 1667.63 531.059 A 315.664 315.664 0 0 1 1800.42 734.278 C 1793.12 745.783 1784.78 756.745 1776.74 767.739 C 1759.44 791.394 1742.28 816.099 1716.43 831.063 C 1720.68 821.84 1723.64 812.469 1724.6 802.322 C 1728.88 756.947 1704.11 713.221 1676.22 679.549 A 294.193 294.193 0 0 0 1646 647.863 C 1603.86 609.811 1542.07 577.862 1484.02 581.064 C 1453.2 582.764 1427.81 593.36 1407.2 616.488 C 1410.07 593.67 1424.13 553.988 1439.84 536.706 C 1463.08 511.145 1517.13 511.213 1548.28 515.358 C 1558.39 516.704 1569.52 520.785 1579.6 520.46 C 1571.34 516.407 1560.78 514.003 1551.78 511.974 C 1516.18 503.949 1478.06 501.635 1446.19 521.752 C 1453.84 510.675 1459.81 498.134 1468.85 488.106 C 1481.13 483.573 1493.2 481.623 1506.18 480.41 z"/>
<path transform="translate(0,0)" fill="rgb(30,66,75)" d="M 1628.95 533.505 C 1629.28 533.673 1629.63 533.813 1629.95 534.01 C 1636.45 538.04 1642.76 543.325 1649.06 547.793 C 1697.68 582.31 1749.33 630.221 1764.49 690.133 C 1771.96 719.647 1758.94 742.498 1744.12 767.272 C 1739.62 774.684 1734.32 781.333 1728.56 787.783 C 1744.19 738.526 1711.24 691.57 1681.81 654.577 C 1672.66 643.075 1662.24 632.295 1654.66 619.647 C 1639.86 594.944 1630.55 562.282 1628.95 533.505 z"/>
<path transform="translate(0,0)" fill="rgb(242,239,230)" d="M 1462.83 650.355 C 1482.67 648.192 1502.7 651.923 1521.32 658.689 A 252.073 252.073 0 0 1 1661.88 787.308 C 1646.82 845.232 1628.69 902.305 1611.43 959.598 A 24065.1 24065.1 0 0 1 1532.34 1220.44 A 211.7 211.7 0 0 0 1509.85 1218.34 C 1406.19 1214.42 1282.64 1293.86 1206.68 1359.03 C 1179.36 1382.47 1155.26 1408.77 1128.79 1433.03 C 1144.88 1407.3 1159.7 1380.71 1175.11 1354.56 L 1289.1 1160.16 C 1311.3 1122.18 1332.93 1083.75 1356.23 1046.43 C 1365.84 1050.56 1375.25 1053.22 1385.74 1053.56 C 1398.88 1052.57 1410.13 1048.71 1420 1039.65 C 1432.12 1028.54 1438.81 1012.03 1439.53 995.759 C 1440.16 981.477 1435.11 966.999 1425.21 956.584 C 1415.06 945.913 1400.91 940.788 1386.38 940.739 A 58.8918 58.8918 0 0 0 1344.3 958.302 C 1333.84 968.745 1327.24 983.055 1327.52 997.972 C 1327.88 1016.92 1336.95 1028.01 1349.89 1040.49 C 1284.86 1143.69 1227 1251.38 1163.54 1355.56 C 1153.71 1371.7 1144.31 1388.15 1134.78 1404.48 C 1131.29 1410.46 1128.31 1416.97 1124.47 1422.69 L 1124 1422.01 C 1132.52 1400.88 1139.21 1378.27 1145.96 1356.48 C 1157.06 1320.64 1167.49 1284.86 1176.2 1248.35 C 1193.49 1175.87 1215.99 1057.49 1175.08 991.037 A 182.797 182.797 0 0 1 1180.19 983.92 C 1198.48 959.841 1218.54 936.78 1237.46 913.162 L 1352.13 768.896 A 7320.16 7320.16 0 0 1 1415.07 690.373 C 1423.14 680.327 1430.68 667.838 1440.07 659.114 C 1446.45 653.186 1454.53 651.546 1462.83 650.355 z"/>
<path transform="translate(0,0)" fill="rgb(30,66,75)" d="M 1466.35 671.134 C 1470.23 670.597 1475.91 670.041 1479.25 672.611 C 1481.4 674.268 1481.82 676.065 1481.82 678.655 C 1481.87 691.366 1443.29 729.379 1433.34 741.057 A 5215.56 5215.56 0 0 1 1306.2 886.464 C 1278.75 916.695 1250.84 947.514 1220.7 975.102 C 1218.67 977.033 1216.54 978.863 1214.44 980.718 L 1213.68 980.576 L 1215.16 980.247 L 1214.25 979.508 C 1223.16 966.811 1233.86 954.956 1243.46 942.728 A 6746.59 6746.59 0 0 0 1304.43 863.651 L 1383.81 759.304 C 1400.68 737.298 1417.71 713.652 1436.56 693.307 C 1445.01 684.181 1454.88 676.045 1466.35 671.134 z"/>
<path transform="translate(0,0)" fill="rgb(30,66,75)" d="M 1592.19 727.509 C 1611.51 743.051 1626.01 766.776 1638.97 787.606 C 1633.77 801.881 1629.88 816.695 1625.58 831.267 L 1600.86 916.302 L 1557.7 1059.37 C 1544.17 1104.3 1531.01 1149.43 1516.37 1194 C 1503.92 1193.87 1491.62 1193.62 1479.2 1194.82 C 1420.02 1200.54 1362.85 1225.41 1312.45 1255.8 C 1304.03 1261.26 1291.22 1270 1282.06 1273.79 L 1284.44 1272.48 L 1283.84 1271.88 C 1324.19 1235.92 1374.48 1207.16 1426.36 1192.09 L 1592.19 727.509 z"/>
</svg>