<svg xmlns="http://www.w3.org/2000/svg" display="block" viewBox="0 0 2048 2048"><path fill="#f2efe6" d="M0 0h2048v2048H0z"/><path fill="#1e424b" d="M1018.97 1737.87c5.07 1.94 11.09 13.74 14.03 18.31-45.894 22.51-101.427 28.41-151.969 29.97-14.864.45-30.297-.68-45.011.43l-1.796.15c-4.648-.17-8.756-.24-13.198-1.82.619-2.14 20.742-3.14 24.023-3.39 55.834-4.21 124.884-15.76 173.921-43.65m30.79 45.14c3.01.83 10.64 13.77 12.98 16.97-83.036 51.01-245.289 32.11-337.885 17.36-6.399-.62-13.084-1.51-19.059-3.94 7.507-2.04 57.602 3.71 69.234 4.45 87.8 5.56 193.738 3.18 274.73-34.84m-63.739-93.07c4.543 2.77 10.363 13.33 13.72 18-78.465 39.47-213.547 39.7-301.188 41.74l-181.133 3.09c-29.678.52-59.599.31-89.171 3.06-4.58.4-9.169 1.23-13.641-.09 6.414-6.68 336.715-23.03 370.491-25.48a1421 1421 0 0 0 89.716-9.73c37.592-5.52 76.928-13.88 111.206-30.59"/><path fill="#1e424b" d="M999.541 1619.89c.317.27.659.52.949.81 5.84 5.77 10.81 14.44 15.59 21.18a2765 2765 0 0 1 37.85 54.69c23.93 34.91 48.32 69.47 71.63 104.81 6.44 9.77 13.46 19.28 19.55 29.27 1.87 3.06 4.45 7.01 3.91 10.76-.22 1.57-.93 1.54-2.13 2.3-1.28-.46-2.05-.9-2.9-1.98-17.4-22-33.76-44.83-50.73-67.16l-97.596-126.61c-22.201 8.36-43.223 17.21-66.351 23.05-72.138 18.24-148.122 21.98-222.155 25.99a10602 10602 0 0 1-111.036 6.28c-55.369 2.36-111.142 3.64-166.402 7.65-25.209.13-50.651 2.26-75.856 3.27-65.09 2.62-130.372 5.57-195.497 6.85-19.078.37-39.032 2.73-57.99 2.07-2.835-.1-5.133-.15-7.664-1.56.233-2.34.976-2.78 3.303-3.4 8.766-2.36 20.886-1.48 30.129-2.08l69.626-5.12 393.877-30.74 119.702-8.17c55.971-3.29 111.435-6.09 166.931-14.64 32.903-5.07 98.149-16.33 123.26-37.52m330.069-300.02c4.73 7.71 9.07 32.92 12.06 42.99a814 814 0 0 0 20.76 61.47c16.84 43.49 41.27 89.66 84.37 111.77 11.94 6.13 24.58 8.72 36.62 14.03.23.75.56 1.71.54 2.49-.05 1.37-.46 3.03-1.53 3.94-1.48 1.26-3.02 1.7-4.92 1.78-19.59.79-39.75-.19-59.4-.09a14730 14730 0 0 1-157.3.04c-13.75-.03-133.06 1.19-136.91-1.35-.24-1.86-.58-3.67-.26-5.53.41-2.33.45-2.87 2.68-3.76 4.65-1.86 10.21-2.76 15.08-4.14 11.21-3.2 21.63-9.38 30.9-16.38 14.17-10.7 27.91-26.03 30.08-44.33 2.29-19.22-6.86-38.72-18.71-53.24 42.62-43.48 94.25-78.06 145.94-109.69M1825.39 0H2048v304.792c-8.84 13.06-16.36 31.436-23.84 45.749-10.59 20.273-22.41 39.938-32.6 60.39a912 912 0 0 0-.9-32.988c-.65-11.904-3.3-54.997-10.96-61.852-5.91 3.886-3.46 18.301-3.16 24.371 1.05 21.123 4.41 80.078-3.46 97.018-7.56 16.287-19.49 30.711-27.42 47.04 1.2-26.616.49-70.89-5.58-95.831-.84-3.475-1.88-9.221-4.98-11.11-3.08 2.897-3.63 7.65-4.07 11.726-.88 8.057.02 16.801.01 24.948-.03 19.899-.25 76.824-4.23 93.388-5.16 21.455-92.71 138.608-110.08 163.895-9.14-18.616-16.47-37.66-26.8-55.773-28.67-50.272-81.02-106.237-133.78-130.748 5.34-11.906 12.93-23.226 19.01-34.838-28.66-15.11-57.46-25.001-90.03-26.355-5.94 9.808-11.58 19.832-17.34 29.752-14.03-3.106-27.88-4.615-42.17-5.607 17.67-31.223 37.06-61.525 55.87-92.065a4661 4661 0 0 1 164.78-249.778 4005 4005 0 0 1 45.85-63.239c10.37-14.007 20.86-29.174 33.14-41.59z"/><path fill="#f2efe6" d="M1825.39 0h37.06l-1.34 2.08c-11.77-1.535-24.01.7-35.85-.784zm137.81 0h84.8v1.712c-28.5.681-57.96 1.304-86.41-.057z"/><path fill="#f2efe6" d="M1862.45 0h100.75l-1.61 1.655c-2.63.62-3.45.736-5.33 2.8-4.35 4.746-7.84 10.878-11.53 16.188l-24.22 34.896a4604 4604 0 0 0-120.42 184.787c-40.35 65.207-80.59 131.078-117.89 198.075-29.68-16.072-57.68-26.763-92.09-23.664 33.27-62.821 72.66-123.16 111.31-182.774 50.67-78.157 102.57-156.247 159.69-229.883z"/><path fill="#1e424b" d="M753.073 539.51c79.474-2.007 159.277-.504 238.788-.54 54.479 135.976 105.859 273.262 161.069 408.928-12.68 13.909-25.54 27.551-39.17 40.546 18.83 12.886 31 33.666 36.92 55.296 18 65.71-6.2 167.62-23.51 232.8-5.48 20.62-10.59 45.38-21.21 64.03-4.94-18.51-12.32-36.51-19-54.46a3267 3267 0 0 0-34.7-90.09l-375.587-.06a8981 8981 0 0 1-82.2 198.03c-12.157 28.39-23.741 56.97-36.512 85.1 15.414 24.04 39.52 49.83 65.793 61.83 9.851 4.5 20.254 6.9 30.641 9.76 1.112 2.82 1.106 5.06 1.067 8.02-.313.14-.615.3-.94.4-5.85 1.8-40.231.42-49.55.46a12865 12865 0 0 1-164.282-.47c-18.213-.15-36.546.72-54.732.15-3.818-.12-6.796-.68-10.175-2.49-1.563-2.42-1.549-2.24-1.011-5.06 3.183-3.5 16.895-4.47 22.473-6.38 39.218-13.43 68.878-47.74 86.416-84.05 15.622-32.71 28.328-67.2 41.97-100.8l59.674-144.45 232.012-570.741c13.414 34.991 27.046 70.117 38.911 105.659-10.896 31.321-24.393 62.402-36.815 93.171l-64.68 161.871c-15.189 37.5-31.81 74.89-45.353 113 48.415.72 96.891.16 145.313.19a14825 14825 0 0 0 168.237-.09c-9.62-29.58-21.52-58.65-32.686-87.68l-37.396-99.146-87.351-235.511c-18.181-47.881-36.987-107.194-83.041-135.431-10.106-6.197-20.804-8.703-31.462-13.49-.925-2.902-.382-4.201.216-7.143z"/><path fill="#1e424b" d="M1772.68 1.608c7.2.315 14.29-.225 21.46-.724-.53 1.907-1.07 3.526-2.16 5.197-6.32 9.636-15.02 18.507-22.36 27.489a1875 1875 0 0 0-33.09 42.53c-66.31 87.353-128.62 185.766-187.17 278.766-16.49 26.181-32.06 52.986-48.23 79.376-6.64 10.846-12.96 22.464-20.47 32.724 79.18-9.896 149.83 13.774 212.14 62.265a340.7 340.7 0 0 1 106.27 142.808c5.71 14.425 9.49 29.289 14.46 43.937a3342 3342 0 0 0 118.53-167.853c10.89-16.568 22.72-32.765 32.98-49.717 19.94-32.93 39.14-66.217 58.52-99.47 8.2-14.084 15.34-28.985 24.44-42.509v36.836c-67.72 119.748-145.05 232.853-227.21 343.088-22.99 30.833-50.29 72.346-79.56 96.696-25.66 21.358-55.65 31.487-87.25 40.489-2.61 12.08-6.81 24.219-10.31 36.102l-21.38 71.93-78.16 259.382a137 137 0 0 0-33.12-5.87c-102.71-6.23-240.5 87.63-314.73 154.18-45.6 40.89-86.37 86.85-132.25 127.56 17.25-30.39 28.91-64.04 40.84-96.81 22.6-62.06 44.18-126.26 58.17-190.87 13.03-60.22 27.02-143.45 8.46-203.54-4.09-13.26-10.19-24.68-17.68-36.313 17.03-18.81 32.73-39.02 48.55-58.857a5921 5921 0 0 0 77.02-98.107c41.11-52.92 83.74-104.816 125.48-157.253-7.9-14.816-13.73-28.513-14.71-45.447-1.36-23.628 5.26-45.975 14.82-67.338 12.34-27.562 29.22-53.284 44.87-79.055a9390 9390 0 0 1 68.83-111.474 6382 6382 0 0 1 136.85-212.241c36.39-54.095 73.96-108.991 117.15-157.907"/><path fill="#f2efe6" d="M1381.07 976.284c10.79-1.263 22.75 1.017 31.42 7.82 6.79 5.336 11.69 13.286 12.56 21.966.86 8.57-2.68 17.11-8.24 23.51-8.15 9.41-19.04 12.96-31.04 14.03-9.83-.43-18.76-1.78-27.25-7.13-7.86-4.95-14.84-13.18-16.51-22.52-1.21-6.78 1.02-13.42 5-18.905 8.1-11.186 20.85-16.539 34.06-18.771m106.07-378.878c22.44-.805 45.73 5.083 66.54 13.099 57.36 22.106 117.35 71.47 142.16 128.266 9.32 21.337 16.59 50.51 11.56 73.749-2.2 10.141-6.69 20.097-10.45 29.734-10.92 5.266-23.25 8.059-34.73 11.976 10.46-13.53 30.87-44.482 29.4-61.953-.1-1.055-.18-2.111-.32-3.162-5.81-46.191-41.88-90.486-77.55-118.051-39.66-30.653-91.34-56.151-142.84-49.455-24.8 3.223-40.64 15.665-55.66 34.969-1.67-6.859-3.1-13.555-3.96-20.565 1.72-3.006 3.49-5.84 5.75-8.466 17.82-20.697 43.79-28.087 70.1-30.141"/><path fill="#f2efe6" d="M1506.18 480.41c54.92-5.352 116.73 19.935 161.45 50.649a315.66 315.66 0 0 1 132.79 203.219c-7.3 11.505-15.64 22.467-23.68 33.461-17.3 23.655-34.46 48.36-60.31 63.324 4.25-9.223 7.21-18.594 8.17-28.741 4.28-45.375-20.49-89.101-48.38-122.773a294 294 0 0 0-30.22-31.686c-42.14-38.052-103.93-70.001-161.98-66.799-30.82 1.7-56.21 12.296-76.82 35.424 2.87-22.818 16.93-62.5 32.64-79.782 23.24-25.561 77.29-25.493 108.44-21.348 10.11 1.346 21.24 5.427 31.32 5.102-8.26-4.053-18.82-6.457-27.82-8.486-35.6-8.025-73.72-10.339-105.59 9.778 7.65-11.077 13.62-23.618 22.66-33.646 12.28-4.533 24.35-6.483 37.33-7.696"/><path fill="#1e424b" d="M1628.95 533.505c.33.168.68.308 1 .505 6.5 4.03 12.81 9.315 19.11 13.783 48.62 34.517 100.27 82.428 115.43 142.34 7.47 29.514-5.55 52.365-20.37 77.139-4.5 7.412-9.8 14.061-15.56 20.511 15.63-49.257-17.32-96.213-46.75-133.206-9.15-11.502-19.57-22.282-27.15-34.93-14.8-24.703-24.11-57.365-25.71-86.142"/><path fill="#f2efe6" d="M1462.83 650.355c19.84-2.163 39.87 1.568 58.49 8.334a252.07 252.07 0 0 1 140.56 128.619c-15.06 57.924-33.19 114.997-50.45 172.29a24065 24065 0 0 1-79.09 260.842 212 212 0 0 0-22.49-2.1c-103.66-3.92-227.21 75.52-303.17 140.69-27.32 23.44-51.42 49.74-77.89 74 16.09-25.73 30.91-52.32 46.32-78.47l113.99-194.4c22.2-37.98 43.83-76.41 67.13-113.73 9.61 4.13 19.02 6.79 29.51 7.13 13.14-.99 24.39-4.85 34.26-13.91 12.12-11.11 18.81-27.62 19.53-43.891.63-14.282-4.42-28.76-14.32-39.175-10.15-10.671-24.3-15.796-38.83-15.845a58.9 58.9 0 0 0-42.08 17.563c-10.46 10.443-17.06 24.753-16.78 39.67.36 18.948 9.43 30.038 22.37 42.518-65.03 103.2-122.89 210.89-186.35 315.07-9.83 16.14-19.23 32.59-28.76 48.92-3.49 5.98-6.47 12.49-10.31 18.21l-.47-.68c8.52-21.13 15.21-43.74 21.96-65.53 11.1-35.84 21.53-71.62 30.24-108.13 17.29-72.48 39.79-190.86-1.12-257.313a183 183 0 0 1 5.11-7.117c18.29-24.079 38.35-47.14 57.27-70.758l114.67-144.266a7320 7320 0 0 1 62.94-78.523c8.07-10.046 15.61-22.535 25-31.259 6.38-5.928 14.46-7.568 22.76-8.759"/><path fill="#1e424b" d="M1466.35 671.134c3.88-.537 9.56-1.093 12.9 1.477 2.15 1.657 2.57 3.454 2.57 6.044.05 12.711-38.53 50.724-48.48 62.402a5216 5216 0 0 1-127.14 145.407c-27.45 30.231-55.36 61.05-85.5 88.638-2.03 1.931-4.16 3.761-6.26 5.616l-.76-.142 1.48-.329-.91-.739c8.91-12.697 19.61-24.552 29.21-36.78a6747 6747 0 0 0 60.97-79.077l79.38-104.347c16.87-22.006 33.9-45.652 52.75-65.997 8.45-9.126 18.32-17.262 29.79-22.173m125.84 56.375c19.32 15.542 33.82 39.267 46.78 60.097-5.2 14.275-9.09 29.089-13.39 43.661l-24.72 85.035-43.16 143.068c-13.53 44.93-26.69 90.06-41.33 134.63-12.45-.13-24.75-.38-37.17.82-59.18 5.72-116.35 30.59-166.75 60.98-8.42 5.46-21.23 14.2-30.39 17.99l2.38-1.31-.6-.6c40.35-35.96 90.64-64.72 142.52-79.79z"/></svg>