<svg xmlns="http://www.w3.org/2000/svg" display="block" viewBox="0 0 2048 2048"><defs><linearGradient id="a" x1="1291.29" x2="1290.8" y1="1696.76" y2="1712.28" gradientUnits="userSpaceOnUse"><stop class="stop0" offset="0" stop-color="#5f3e3c"/><stop class="stop1" offset="1" stop-color="#6a5751"/></linearGradient></defs><path fill="#fefefe" d="M0 0h2048v2048H0z"/><path fill="#624340" d="M1210.07 634.469c6.59-.931 13.28-1.811 19.27 1.808 5.78 3.496 9.93 10.245 13.93 15.522 14.71 19.379 25.74 37.46 31.75 61.353 10.22 40.579 8.11 88.94-13.92 125.472-7.9 13.102-19.72 26.431-35.24 29.926-8.43 1.899-17.1.69-24.25-4.302-8.82-6.151-13.67-16.383-15.2-26.803-1.52-10.386.3-22.642 6.86-31.128 5.48-7.093 15.01-11.97 23.91-12.607 5.65-.404 12.69.608 16.95 4.697 3.17 3.047 4.28 7.372 4.2 11.662-.07 3.542-.87 8.297-3.47 10.859-3.19-2.966.7-10.041-2.93-14.706-2.03-2.611-4.72-3.848-7.96-4.108-7.47-.6-13.91 2.45-19.42 7.197l-.89.789c-1.76 2.352-3.58 4.728-4.75 7.433-3.57 8.205-3.57 17.917-.2 26.17 2.23 5.479 5.82 11.327 11.69 13.415 4.44 1.577 9.38.724 13.47-1.413 13.11-6.851 21.9-24.97 26.23-38.451 13.98-43.62 11.36-106.371-9.68-147.413-2.45 33.949-13.02 72.936-33.31 100.721 6.8-25.512 26.75-92.895 21.33-117.097-2.21-9.864-11.48-12.44-18.9-17.179zM588.834 1587.4a159 159 0 0 1 18.782.02c23.962 1.44 47.962 10.59 63.985 29.03 8.053 9.28 16.094 23.3 14.87 35.89-1.258 12.93-8.189 25.27-18.174 33.49-18.386 15.15-45.226 18.08-68.089 15.47-31.336-3.57-72.661-17.14-92.311-43.56-1.995-2.69-2.748-4.52-2.343-7.83 2.052-1.74 2.125-1.91 4.935-1.04 8.922 2.76 18.204 8.27 26.899 11.9a241.6 241.6 0 0 0 73.526 17.95c16.994 1.3 42.149 1.56 55.617-10.55 4.618-4.15 7.509-9.72 7.711-15.98.382-11.84-8.117-22.44-15.76-30.62-2.773-2.64-5.787-4.95-8.982-7.05-24.109-15.85-57.435-15.42-84.613-9.82-19.482 4.01-35.307 11.16-46.494 28.14 2.277-1.55 4.579-3.09 7.013-4.38 23.858-12.68 53.472-11.38 78.59-3.28a109 109 0 0 1 19.676 8.52c5.505 3.05 36.542 23.88 38.847 28.41-3.884 1.95-9.969-1.63-13.697-3.5-8.789-4.4-16.974-9.96-25.821-14.22a133.9 133.9 0 0 0-81.173-10.94c-10.717 1.98-20.932 7.71-31.717 8.83-1.319-1.59-1.356-2.1-1.448-4.13-.369-8.08 4.314-17.06 9.53-22.94 17.261-19.44 45.88-25.89 70.641-27.81m234.394-984.765c4.156.813 8.413 1.998 12.365 3.53 14.426 5.593 26.284 15.057 32.452 29.645 16.055 37.968-10.675 81.951-24.376 116.592-9.256 23.402-19.9 57.661-8.729 82.067 2.351 5.137 6.29 11.326 12.023 13.089 5.724 1.761 12.351-.073 17.283-3.166 13.84-8.681 19.504-25.049 22.608-40.161-2.227-7.303-9.89-18.532-8.486-26.004 1.847-1.031 1.194-1.155 3.072-.533 4.995 1.654 6.714 7.573 8.796 11.952a427 427 0 0 0 7.5-65.836c.415-13.368-.224-26.743.769-40.091 2.04 4.928 3.312 9.917 4.61 15.07a231.8 231.8 0 0 1 5.25 84.98c-3.163 24.918-10.443 55.521-31.741 71.476-9.18 6.877-20.944 11.027-32.46 8.969-10.678-1.909-20.111-8.388-26.217-17.279-6.83-9.944-9.595-22.404-10.435-34.282-2.569-36.326 13.916-70.86 29.56-102.612 6.768-13.737 13.948-27.718 16.691-42.93 3.838-21.278-4.774-36.583-20.54-49.92-3.188-2.697-8.409-6.069-10.501-9.603-.961-1.623.058-3.245.506-4.953M1056.91 1752.28c5.95-.55 15.32-1.94 20.17 2.31 2.15 1.88 3.31 3.98 3.54 6.82 1.82 22.68-44.16 72.81-62.15 85.18-4.73 3.25-21.326 9.33-22.457 10.63.242.15.47.32.725.45 5.572 2.8 13.812 1.64 19.612.25 26.45-6.34 47.55-26.7 61.24-49.49 6.97-11.59 13.17-28.46 9.62-41.93-.08-.31-.17-.62-.26-.93l.88-1.39 2.26-.33c4.56 2.33 7.12 7.1 8.91 11.68.57 17.08-3.68 31.53-12.28 46.3-13.1 22.52-34.03 43.14-59.92 49.7-12.56 3.18-30.116 4.08-41.359-3.08-7.479-4.77-11.527-12.38-13.141-20.95-2.966-15.73 4.418-33.02 13.287-45.77 16.653-23.93 42.263-44.09 71.323-49.45"/><path fill="#fefefe" d="M1065.24 1762.28c3.24-.15 6.11-.59 9.08 1.01 1.07 4.99-3.29 10.8-5.95 14.93-11.41 17.73-41.11 57.76-57.75 68.35-4.99 3.18-10.705 4.36-16.397 5.59-2.28.62-3.476.55-5.771.02-2.155-1.77-3.045-3.32-3.444-6.07-1.811-12.46 6.188-28.59 13.323-38.48 15.479-21.45 40.369-40.89 66.909-45.35"/><path fill="#624340" d="M976.163 230.896c1.73 1.68 1.448 2.291-.031 4.095-12.172 14.852-23.582 29.592-33.436 46.149-27.818 46.747-38.803 95.635-37.653 149.852.931 43.925 11.58 131.386 44.668 161.948 3.084 2.849 5.007 4.308 9.267 4.174 2.171-1.24 3.371-2.5 4.552-4.668 16.966-31.131 3-75.318-5.378-106.667 7.782 12.239 13.366 24.971 17.419 38.862 4.829 16.317 8.682 33.06 7.342 50.186-1.006 12.855-5.009 27.103-15.368 35.561-4.233 3.456-9.387 5.255-14.858 4.477-13.685-1.947-25.99-17.306-33.464-27.926-36.824-52.327-48.682-134.182-37.607-196.171 9.147-51.198 36.167-101.649 71.962-139.238 6.956-7.305 14.288-14.886 22.585-20.634M1505.57 1543.4c3.53-.39 7.39-.09 10.93.28 7.23.77 19.54 3.33 24.04 9.32 1.93 2.57 2.3 4.77 1.84 7.95-4.61 8.65-25.59 15.17-34.58 19.49-19.51 9.37-37.57 21.96-54.13 35.87-9.35 7.86-19.46 19.8-30.41 25.07-1.49.71-2.92 1.42-4.37 2.22 1.1 1.84 1.63 1.84 3.63 2.45 19.63 5.98 50.53-8.58 67.84-17.68 16.95-8.91 39.97-23.8 48.4-41.85 2.38-5.1 1.45-11.46 3.67-16.61 1.04-2.39 2.32-3.05 4.62-4.03 3.24.31 4.75 1.53 7.23 3.43 1.39 2.1 2.6 4.3 3.09 6.8 1.66 8.58-2.34 17.52-6.95 24.51-18.81 28.48-60.67 52.65-93.64 59.3-15.46 3.11-33.69 2.76-47.06-6.55-7.74-5.39-13.28-13.89-14.53-23.29-1.92-14.58 5.94-30.32 14.91-41.45 21.49-26.63 62.37-42.02 95.47-45.23"/><path fill="#fefefe" d="M1500.21 1555.22c11.8-1.25 20.33.12 31.27 4.51-9.9 5.88-21.93 9.38-32.28 14.67-26.71 13.63-48.32 33.75-68.53 55.54-2.87 3.02-5.93 6.33-9.3 8.79-2.62 1.92-3.97 2.27-7.15 1.94-2.35-1.69-3.2-2.16-4.11-5.06-2.71-8.63 2.94-23.38 7.2-30.56 15.85-26.74 54.11-42.51 82.9-49.83"/><path fill="#624340" d="M1263.02 1664.41c23.86-2.56 53.5 2.54 74.38 14.66 10.73 6.22 21.75 15.94 24.77 28.42 1.46 6.03.52 11.91-2.91 17.1-12.53 18.97-46.3 26.54-67.03 30.21l-1.16.19c-25.84 3.94-60.79 3.91-82.67-12.68-7.57-5.75-13.55-13.85-14.44-23.55-.97-10.55 3.59-20.45 10.37-28.29 15.02-17.41 36.47-24.24 58.69-26.06"/><path fill="#fefefe" d="M1347.84 1718.22c-1.15.94-2.18 1.74-3.46 2.5-29.52 17.28-83.21 24.08-116.09 14.47-6.77-1.98-14.79-5.19-18.17-11.88-2.09-4.14-1.95-8.89-.45-13.19 3.96-11.37 14.6-19.83 25.29-24.6 25.01-11.18 60.73-8.57 85.82 1.07 11.45 4.39 27.1 12.7 32.25 24.44-.1 2.83.05 2.79-1.88 4.82-1.02.64-2.66 1.37-3.31 2.37"/><path fill="url(#a)" d="M1347.84 1718.22c-2.41-1.66-4.87-3.43-7.47-4.78-16.03-8.32-78.8-14.11-97.96-13.29-6.62.29-13.59 1.54-19.92 3.47-2.62.8-4.98 1.36-7.69 1.74l-.93-.84c7.09-1.55 13.28-5.72 20.47-7.3 21.81-4.79 46.05-1.93 68.1.02 17.21 1.52 36.98 4.6 48.71 18.61-1.02.64-2.66 1.37-3.31 2.37"/><path fill="#624340" d="M823.513 1685.43c21.928-.01 49.273 5.03 66.354 19.85 7.469 6.48 13.118 14.73 13.73 24.85.741 12.26-6.012 23.76-13.926 32.61-25.679 28.73-62.03 39.04-99.211 40.99-23.298.05-50.868-1.76-69.552-17.49-7.708-6.49-12.538-14.74-13.277-24.87-.985-13.48 4.848-25.61 13.585-35.53 24.668-28.01 66.544-38.41 102.297-40.41"/><path fill="#fefefe" d="M823.688 1699.44a174 174 0 0 1 6.078.04c18.496.48 40.585 4.13 53.598 18.47 3.569 3.94 6.517 7.99 6.258 13.49-3.096 7.21-11.519 13.83-17.367 18.84-29.016 24.85-73.547 36.49-111.198 33.38-14.086-1.17-27.938-4.73-37.441-15.91 25.908-21.94 52.912-28.11 86.427-28.6 19.776.9 41.861 6.08 61.386 2.66 4.147-.72 9.82-2.02 12.399-5.61l-.912-1.52c-6.669-2.23-14.413-.78-21.404-1.62-22.367-2.7-43.678-8.34-66.485-7.33-30.604 1.37-54.067 10.07-74.89 32.71 1.542-9.75 2.969-16.39 9.742-24.17 21.059-24.19 63.502-32.79 93.809-34.83"/><path fill="#624340" d="M1048.5 197.175c3.31-.318 7.22-.684 10.07 1.073-3.83 3.084-10.93 3.698-15.6 5.672-6.9 2.922-13.91 8.444-19.38 13.542-14.63 13.616-22.29 31.452-25.09 50.988-9.643 67.179 28.63 103.391 52.66 159.854a202.8 202.8 0 0 1 15.91 67.051c4.28 66.68-11.68 135.511-33.54 198.089-13.85 39.668-29.95 78.468-41.271 118.989-6.83 24.435-14.47 51.171-15.442 76.611 22.174-1.668 44.083-2.944 66.323-2.582 34.94-75.925 82.8-146.38 104.28-228.027 15.2-57.802 14.42-122.876-19.24-174.449a202 202 0 0 0-16.52-21.714c-4.79-5.426-10.88-10.518-14.5-16.763l.55-1.469c2.49-.402 3.38-.352 5.79.648 5.43 2.252 10.72 6.303 15.4 9.813 24.91 18.685 42.77 44.103 54.13 72.968 10.73 27.241 13.04 58.612 11.03 87.588-5.23 75.394-38.93 142.232-74.17 207.66-11.51 21.381-24.36 42.846-33.97 65.153 89.06.3 245.79 27.443 312.79 89.383 8.84 8.168 16.15 17.764 20.66 28.977 11.2 27.85 10.32 83.97 11.42 115.04 25.98-19.96 54.28-34.13 87.26-37.77 25.62-2.83 50.82 1.93 71.14 18.5 23.65 19.28 34.06 47.58 36.88 77.25 5.9 62.06-25.02 119.63-63.27 165.97-30.49 40.33-104.45 95.76-149.06 119.24-18.56 9.77-37.77 17.26-57.67 23.81-29.21 61.3-68.68 120.02-127.41 156.69-88.71 55.38-205.37 66.58-305.988 42.87-30.669-7.22-59.243-17.85-86.279-34.27-47.828-29.04-94.184-81.49-123.445-128.87-82.452-133.49-123.946-301.04-87.217-455.92-2.459-7.05-4.745-13.67-5.281-21.18-1.016-14.25 5.366-26.72 14.405-37.23 44.974-52.295 171.68-91.031 238.221-105.302a665 665 0 0 1 90.285-13.203c-4.349-71.308 22.798-133.713 45.992-199.469 14.197-40.241 26.557-79.984 34.137-122.063 5.09-28.308 7.97-58.161 4.22-86.768a208.2 208.2 0 0 0-16.31-58.75c-14.64-32.22-35.279-60.441-42.747-95.817-6.82-32.306-3.514-68.261 14.928-96.332 13.259-20.175 31.569-30.678 54.919-35.481"/><path fill="#fefefe" d="M1219.09 1057.21c3.91-.22 7.7-.31 11.48.91 4.44 1.43 8.89 4.96 10.97 9.19 1.48 3.02 1.86 6.42.72 9.62-1.97 5.54-6.22 8.05-11.36 10.27-3.24.28-6.62.6-9.83-.08-4.96-1.06-9.68-4.4-12.17-8.84-1.83-3.27-2.35-7.14-1.1-10.7 1.98-5.6 6.16-8 11.29-10.37m-90.66 3.91c6.43-.51 12.86-1.05 19.1 1.04 6.33 2.13 12.19 6.21 15.06 12.4 2.11 4.54 2.41 9.75.37 14.37-3.37 7.62-10.88 11.23-18.27 13.93-6.53.53-13 1.1-19.3-1.16-6.31-2.25-12.14-6.53-14.89-12.8-2.01-4.58-2.15-9.72-.01-14.28 3.37-7.19 10.79-11.05 17.94-13.5m-115.52-9.24c4.36 3.94 8.3 20.41 13.13 26.9 1.49 2 2.27 2.56 4.71 2.82 1.24-9.06-1.33-19.72-1.74-29.03 4.56.44 9.42 1.28 13.78 2.76 8.02 2.71 15.83 8.22 19.45 16.07 3.67 7.95 2.18 14.59-.83 22.4-3.51 5.54-7.49 9.83-13.38 12.91-8.34 4.35-18.41 4.7-27.26 1.73-10.07-3.37-18.98-11.05-23.403-20.75-2.914-6.4-3.799-13.82-1.213-20.48 3.093-7.96 9.426-11.82 16.756-15.33m-130.031 11.53c9.879-.64 22.094.9 30.19 6.89 4.867 3.61 8.171 8.83 8.781 14.91.614 6.1-1.739 12.06-5.736 16.62-8.553 9.75-21.424 12.62-33.781 13.41-10.604.03-21.333-1.73-30.163-8.02-4.945-3.52-8.884-8.59-9.602-14.76-.642-5.52 1.317-11.01 4.759-15.29 8.477-10.55 23.004-12.37 35.552-13.76m626.891 118.47c.23.21.51.38.69.63 4.2 6.11 4.16 22.23 3.82 29.6-3.38 72.38-79.01 138.62-129.46 184.18l-1.21.57-1-.65c.18-10.46 8.04-28.76 10.61-39.79 7.26-31.25 13.56-62.26 18.8-93.92 29.51-29.78 62.31-58.1 97.75-80.62"/><path fill="#fefefe" d="M1507.21 1099.34c11.74-1.79 25.53-.3 36.75 3.6 18.34 6.37 32.55 20.51 40.8 37.91 15.36 32.44 11.01 71.87-.97 104.59-35.48 96.87-128.96 160.89-218.89 202.38a665 665 0 0 1 8.89-24.99 310.7 310.7 0 0 0 91.4-80.39c7.93-10.3 14.47-21.7 22.66-31.75l.64-.77c-16.98 38.9-46.52 73.16-73.32 105.63 8.63-6.08 16.4-12.84 24.29-19.81 36.54-35.19 64.91-77.83 81.05-126.12 10.47-31.32 14.02-63.25-.99-93.56.81-.54 1.63-1.07 2.48-1.56 8.67-5 19.77-9.22 29.83-6.09 3.2 1 5.62 3.3 6.96 6.35 10.1 22.95-17.62 72.04-25.24 94.21l-.5 1.46c17.59-22.59 40.88-62.25 42.11-90.88.36-8.29-1.04-16.86-7.03-23.06-5.29-5.47-13.17-7.54-20.59-7.46-40.43.43-104.99 60.65-132.88 88.76 3.27-31.67 4.65-62.85 5.44-94.66a151.43 151.43 0 0 1 87.11-43.79m-443.56-188.566c90.01-1.402 226.4 17.747 299.67 73.638 8.47 6.462 18.17 15.008 19.35 26.268.74 7.1-2.96 12.61-7.4 17.77-11.27 13.07-27.98 19.81-45 20.49-19.29.76-39.35-7.08-58-11.57-13.18-3.17-26.79-5.55-40.18-7.7a894.6 894.6 0 0 0-201.94-8.48c1.5-10.67 3.03-21.15 5.02-31.743 2.55-12.762 6.94-25.125 11.12-37.422 75.96-1.175 182.88 12.971 252.96 43.183a332 332 0 0 1 40.35 20.672c5.89 3.51 11.69 8.41 17.83 11.21 2.1.96 2.34 1.14 4.58.37.3-1.14.37-1.15.36-2.55-.04-6.53-7.27-13.55-11.7-17.89-10.03-9.839-21.34-15.284-33.78-21.233-19.27-9.21-38.38-14.36-59.08-19.301-69.21-16.512-138.85-19.488-209.69-18.24 4.66-12.741 9.66-25.236 15.53-37.472"/><path fill="#fefefe" d="M995.271 911.5c12.609-1.085 25.459-.804 38.109-.816-14.31 37.169-24.38 72.091-24.55 112.226-73.6.74-161.505 14.44-231.777 36.31-24.53 7.63-48.212 17.55-72.176 26.75-12.48-9.26-29.067-17.32-38.768-29.64 59.756-59.425 166.849-86.694 247.202-100.099 21.886-3.651 45.477-3.331 66.86-8.704.33-.083.658-.175.987-.262-20.02-1.846-41.112-.031-61.102 1.783-64.821 5.881-133.884 17.544-193.854 43.899-21.228 9.333-62.022 29.533-70.201 52.203-1.905 5.28-1.918 10.38.564 15.47 10.528 21.58 60.424 42.73 82.783 50.52 152.95 53.3 439.322 48.34 586.162-23.34 27.47-13.41 58.94-31.77 69.45-62.15-.16 12.77.78 25.48.37 38.27-23.98 20.28-48.64 40.86-73.93 59.47-12.97 9.55-26.56 18.32-39.86 27.41 35.39-13.57 66.67-26.88 94.69-53.34-4.21 45.08-10.47 89.15-18.39 133.73-5.36 30.14-17.34 81.08-16.86 109.54 7.85-16.24 12.89-36.11 17.75-53.52 14.69-52.61 35.94-141.63 21.42-194.68a298 298 0 0 0 15.69-18.13c.68 63.7-.71 127.08-10.75 190.13-4.78 29.98-12.04 59.52-18.93 89.07-6.46 27.31-15.15 53.36-24.87 79.66-23.96 64.87-53.89 123.21-107.26 169.09-69.23 59.52-169.19 76.38-258.058 69.69-90.24-6.79-152.993-35.29-212.212-104.31-84.764-98.8-131.471-231.37-142.41-360.15a818 818 0 0 1 .335-127.62c19.363 21.73 41.956 38.33 67.826 51.65 155.057 79.81 367.889 78 531.229 25.89-31.72 3.23-63.16 8.4-94.95 11.06-52.84 4.42-107 6.46-159.942 3.96-97.815-4.62-235.068-27.29-311.793-92.7-10.122-8.63-22.027-19.91-22.86-34.04-.518-8.79 3.82-16.6 9.523-22.97 10.905-12.18 26.314-21.19 40.444-29.117 71.948-40.348 194.224-75.142 276.38-79.182 1.427 7.632 2.97 18.607 8.661 24.211l1.747-.051c4.8-5.488 3.94-18.386 4.271-25.523 7.663-.708 15.371-1.118 23.05-1.648"/><path fill="#624340" d="M1157.7 1592.75c.38 1.8.34 3.17-.1 4.93-2.37 9.61-9.4 19.3-17.81 24.47-.11-1-.18-2-.11-3 .6-9.21 11.41-20.57 18.02-26.4m-383.562-55.14c4.706 2.86 17.665 24.98 22.766 31.21 10.057 12.28 20.847 24.15 33.416 33.89-13.366-16.84-25.897-33.84-34.304-53.78 5.85 7.44 11.597 14.89 17.055 22.62 12.019 19.41 19.384 32.23 36.756 47.56-7.075-2.1-13.027-5.02-19.159-9.07-21.362-14.14-51.356-46.7-56.53-72.43m579.182-415.23c2.08.99 2.29 1.4 3.38 3.48 12.6 23.99-4.5 94.96-13.56 121.79l-2.63 3.8.3-.93-.64-.44a1988 1988 0 0 0 13.15-127.7m-133.92 412.31c.13.14.28.26.37.43 3.01 5.34-1.93 19.99-3.95 25.7-8.07 22.85-24.65 43.63-46.67 54.31l-.78-.65c-.29-4.11 44.93-71.63 51.03-79.79m49.84-56c1.08 4.34.27 9.47-.18 13.9-3.69 35.79-27.75 75.23-55.27 97.72-1.07-6.3 49.01-101.91 55.45-111.62m50.07-70.99c.13.65.33 1.3.38 1.97.58 7.92-3.05 18.35-4.77 26.25-10.98 50.34-24.62 83.98-59.34 123.12-.57-6.09 35.2-81.01 39.51-91.07 8.51-19.85 17.15-39.86 24.22-60.27m-71.57-214.27c9.33 4.11 23.45 24.7 29.53 33.4 7.93-2.41 15.95-4.26 24.03-6.09-5.16 8.63-12.78 16.26-19.2 24.02 1.59 5.05 4.47 11.79 3.25 17.03l-1.62.97c-4.41-.98-7.83-4.71-11.2-7.58l-2.45-.88c-6.28 3.31-11.78 11.32-17.52 16.03l-1.01.81c1.99-8.64 5.58-16.27 9.27-24.29-4.3-.64-8.86-.46-13.06-1.63-2.07-.58-2.97-.66-4.06-2.53 3.91-4.32 13.42-7.42 18.78-10.45-6.07-12.35-11.45-25.44-14.74-38.81m17.18 85.82c7.99-.96 16.23-.95 23.41 3.23 4.53 2.63 7.34 6.84 8.41 11.92 2.76 13.14-3.32 27.28-10.22 38.22-18.05 28.64-46.99 46.56-79.43 54.02a143 143 0 0 0-.08 4.48c-.02 9.5 1.3 19.15 8.6 25.99 5.2 4.87 12.08 6.44 19.04 6.06 31.35-1.71 45.28-25.03 63.81-45.72l.8-.89c-1.88 9.19-4.06 16.65-8.7 24.85-13.84 22.05-34.66 37.81-60.16 43.65-14.08 3.22-31.18 3.74-43.71-4.45-9.31-6.1-14.6-16.03-16.89-26.71-5.96-27.88 4.35-58.74 19.67-81.9 17.95-27.12 43.52-46.09 75.45-52.75"/><path fill="#fefefe" d="M1258.16 1292c.91 0 1.93-.05 2.81.23 1.98.61 4.07 2.85 4.88 4.69 1.46 3.35.58 8.06-.37 11.41a103.44 103.44 0 0 1-50.12 62.1l-3.69 1.83-1.14-.87c-1.53-11.54 11.92-40.79 17.72-51.2 6.95-12.47 15.58-24.17 29.91-28.19"/><path fill="#624340" d="M1180.22 1220.15c7.4-.36 14.46-.58 21.39 2.57 8.14 3.7 13.93 10.53 16.87 18.92 3.04 8.68 3.61 19.5-.6 27.92-2.43 4.85-6.33 8.53-11.61 10.02-3.96 1.12-9.02 1.59-12.58-.94-9.32-6.63-1.36-28.51-4.27-38.86-.69-2.46-2-4.58-4.47-5.6-2.73-1.14-7.94-.54-10.4 1.16-9.05 6.21-23.24 60.04-26.32 71.76 8.91-1.58 24.91-6.17 33.33-3.11 2.22.82 2.31 1.19 3.25 3.21-.37 1.25-.8 2.19-1.7 3.15-9.3 9.92-25.19 10.92-37.82 11.79-11.21 42.44-22.33 84.78-40.81 124.78-10.85 23.49-24.64 48.68-50.39 57.99-12.53 4.52-30.81 5.77-42.93-.41-4.54-2.32-8.14-6.06-9.58-11.02-3-10.36 3.11-20.73 7.99-29.44-3.5.01-7.01.05-10.498-.15-5.02-.3-10.469-1.38-13.778-5.57-5.901-7.46-.957-25.51.394-34.29a283 283 0 0 1-11.367 14.59c-11.878 14.21-28.879 30.35-48.398 31.68-7.698.53-15.434-1.62-21.237-6.83-12.058-10.84-12.411-28.47-13.229-43.45-13.703 15.54-26.727 29.81-44.821 40.32a113.98 113.98 0 0 1-86.055 11.34c-19.053-5.15-34.434-16.55-44.094-33.88-15.166-27.21-12.58-61.31-4.113-90.22 13.179-44.98 50.564-88.02 91.399-110.21 21.883-11.89 52.345-20.83 77.053-13.01 9.739 3.07 17.328 9.65 21.941 18.76 7.31 14.43 5.477 33.87.22 48.77-6.3 17.84-19.493 35.87-36.841 44.15l-1.227.58a245.6 245.6 0 0 1-37.524-6.41c10.844-23.1 28.759-27.53 43.449-45.97 6.037-7.57 11.08-17.52 9.596-27.49-.985-6.63-5.14-13.75-10.538-17.74-5.049-3.73-11.19-4.39-17.235-3.33-25.483 4.48-46.5 27.85-60.88 47.67-25.439 35.04-45.302 82.72-38.074 126.8 2.148 13.09 7.643 26.53 18.908 34.32 13.338 9.22 34.831 8.9 50.123 5.67 28.76-6.07 55.954-28.64 70.919-53.51 6.958-11.56 11.614-24.19 19.052-35.6 12.303-18.87 33.098-40.31 56.123-44.79 9.384-1.82 20.767-1.02 28.837 4.55 9.095 6.28 11.475 15.61 13.055 25.85 3.36-6.72 6.7-13.57 10.66-19.95 4.35-7.02 9.78-12.52 18.09-14.21 5.54-1.12 12.29-1.16 17.19 1.9 8.49 13.03-39.92 103.09-36.26 120.39.6 2.81 1.2 3.26 3.31 4.98 12.52 2.05 37.56-16.38 50.57-21.74-5.68 17.64-34.25 35.13-45.53 54.18-2.87 4.85-5.57 10.59-3.84 16.3 1.02 3.35 4.44 6.72 7.68 7.94 3.03 1.14 6.06.41 8.75-1.16 33.5-19.55 52.99-131.89 63.22-169.64-6.5.8-14.62 2.6-20.87.21-2.44-.94-3.21-1.66-4.28-3.98.29-.88.43-1.46 1.02-2.25 5.87-7.91 19.31-7.23 28.04-7.53 5.17-17.64 11.67-34.35 20.92-50.29 12.65-21.79 26.08-35.2 50.82-41.64"/><path fill="#fefefe" d="M980.285 1337.16c3.427-.33 7.685-.73 10.988.37a14.42 14.42 0 0 1 8.262 7.3c4.435 9.08.865 25.8-2.219 35.15-6.88 20.84-27.859 52.49-47.596 62.62-3.682.75-8.116 1.77-11.745.3-2.984-1.22-5.148-3.96-6.353-6.87-5.265-12.71 2.308-35.77 7.003-47.97 7.934-20.61 20.804-41.62 41.66-50.9"/></svg>