<svg version="1.1" xmlns="http://www.w3.org/2000/svg" style="display: block;" viewBox="0 0 2048 2048" width="1024" height="1024">
<defs>
	<linearGradient id="Gradient1" gradientUnits="userSpaceOnUse" x1="1291.29" y1="1696.76" x2="1290.8" y2="1712.28">
		<stop class="stop0" offset="0" stop-opacity="1" stop-color="rgb(95,62,60)"/>
		<stop class="stop1" offset="1" stop-opacity="1" stop-color="rgb(106,87,81)"/>
	</linearGradient>
</defs>
<path transform="translate(0,0)" fill="rgb(254,254,254)" d="M 0 0 L 2048 0 L 2048 2048 L 0 2048 L 0 0 z"/>
<path transform="translate(0,0)" fill="rgb(98,67,64)" d="M 1210.07 634.469 C 1216.66 633.538 1223.35 632.658 1229.34 636.277 C 1235.12 639.773 1239.27 646.522 1243.27 651.799 C 1257.98 671.178 1269.01 689.259 1275.02 713.152 C 1285.24 753.731 1283.13 802.092 1261.1 838.624 C 1253.2 851.726 1241.38 865.055 1225.86 868.55 C 1217.43 870.449 1208.76 869.24 1201.61 864.248 C 1192.79 858.097 1187.94 847.865 1186.41 837.445 C 1184.89 827.059 1186.71 814.803 1193.27 806.317 C 1198.75 799.224 1208.28 794.347 1217.18 793.71 C 1222.83 793.306 1229.87 794.318 1234.13 798.407 C 1237.3 801.454 1238.41 805.779 1238.33 810.069 C 1238.26 813.611 1237.46 818.366 1234.86 820.928 C 1231.67 817.962 1235.56 810.887 1231.93 806.222 C 1229.9 803.611 1227.21 802.374 1223.97 802.114 C 1216.5 801.514 1210.06 804.564 1204.55 809.311 L 1203.66 810.1 C 1201.9 812.452 1200.08 814.828 1198.91 817.533 C 1195.34 825.738 1195.34 835.45 1198.71 843.703 C 1200.94 849.182 1204.53 855.03 1210.4 857.118 C 1214.84 858.695 1219.78 857.842 1223.87 855.705 C 1236.98 848.854 1245.77 830.735 1250.1 817.254 C 1264.08 773.634 1261.46 710.883 1240.42 669.841 C 1237.97 703.79 1227.4 742.777 1207.11 770.562 C 1213.91 745.05 1233.86 677.667 1228.44 653.465 C 1226.23 643.601 1216.96 641.025 1209.54 636.286 L 1210.07 634.469 z"/>
<path transform="translate(0,0)" fill="rgb(98,67,64)" d="M 588.834 1587.4 C 595.019 1587.03 601.435 1587.05 607.616 1587.42 C 631.578 1588.86 655.578 1598.01 671.601 1616.45 C 679.654 1625.73 687.695 1639.75 686.471 1652.34 C 685.213 1665.27 678.282 1677.61 668.297 1685.83 C 649.911 1700.98 623.071 1703.91 600.208 1701.3 C 568.872 1697.73 527.547 1684.16 507.897 1657.74 C 505.902 1655.05 505.149 1653.22 505.554 1649.91 C 507.606 1648.17 507.679 1648 510.489 1648.87 C 519.411 1651.63 528.693 1657.14 537.388 1660.77 A 241.585 241.585 0 0 0 610.914 1678.72 C 627.908 1680.02 653.063 1680.28 666.531 1668.17 C 671.149 1664.02 674.04 1658.45 674.242 1652.19 C 674.624 1640.35 666.125 1629.75 658.482 1621.57 C 655.709 1618.93 652.695 1616.62 649.5 1614.52 C 625.391 1598.67 592.065 1599.1 564.887 1604.7 C 545.405 1608.71 529.58 1615.86 518.393 1632.84 C 520.67 1631.29 522.972 1629.75 525.406 1628.46 C 549.264 1615.78 578.878 1617.08 603.996 1625.18 A 108.809 108.809 0 0 1 623.672 1633.7 C 629.177 1636.75 660.214 1657.58 662.519 1662.11 C 658.635 1664.06 652.55 1660.48 648.822 1658.61 C 640.033 1654.21 631.848 1648.65 623.001 1644.39 A 133.892 133.892 0 0 0 541.828 1633.45 C 531.111 1635.43 520.896 1641.16 510.111 1642.28 C 508.792 1640.69 508.755 1640.18 508.663 1638.15 C 508.294 1630.07 512.977 1621.09 518.193 1615.21 C 535.454 1595.77 564.073 1589.32 588.834 1587.4 z"/>
<path transform="translate(0,0)" fill="rgb(98,67,64)" d="M 823.228 602.635 C 827.384 603.448 831.641 604.633 835.593 606.165 C 850.019 611.758 861.877 621.222 868.045 635.81 C 884.1 673.778 857.37 717.761 843.669 752.402 C 834.413 775.804 823.769 810.063 834.94 834.469 C 837.291 839.606 841.23 845.795 846.963 847.558 C 852.687 849.319 859.314 847.485 864.246 844.392 C 878.086 835.711 883.75 819.343 886.854 804.231 C 884.627 796.928 876.964 785.699 878.368 778.227 C 880.215 777.196 879.562 777.072 881.44 777.694 C 886.435 779.348 888.154 785.267 890.236 789.646 A 426.674 426.674 0 0 0 897.736 723.81 C 898.151 710.442 897.512 697.067 898.505 683.719 C 900.545 688.647 901.817 693.636 903.115 698.789 A 231.771 231.771 0 0 1 908.365 783.769 C 905.202 808.687 897.922 839.29 876.624 855.245 C 867.444 862.122 855.68 866.272 844.164 864.214 C 833.486 862.305 824.053 855.826 817.947 846.935 C 811.117 836.991 808.352 824.531 807.512 812.653 C 804.943 776.327 821.428 741.793 837.072 710.041 C 843.84 696.304 851.02 682.323 853.763 667.111 C 857.601 645.833 848.989 630.528 833.223 617.191 C 830.035 614.494 824.814 611.122 822.722 607.588 C 821.761 605.965 822.78 604.343 823.228 602.635 z"/>
<path transform="translate(0,0)" fill="rgb(98,67,64)" d="M 1056.91 1752.28 C 1062.86 1751.73 1072.23 1750.34 1077.08 1754.59 C 1079.23 1756.47 1080.39 1758.57 1080.62 1761.41 C 1082.44 1784.09 1036.46 1834.22 1018.47 1846.59 C 1013.74 1849.84 997.144 1855.92 996.013 1857.22 C 996.255 1857.37 996.483 1857.54 996.738 1857.67 C 1002.31 1860.47 1010.55 1859.31 1016.35 1857.92 C 1042.8 1851.58 1063.9 1831.22 1077.59 1808.43 C 1084.56 1796.84 1090.76 1779.97 1087.21 1766.5 C 1087.13 1766.19 1087.04 1765.88 1086.95 1765.57 L 1087.83 1764.18 L 1090.09 1763.85 C 1094.65 1766.18 1097.21 1770.95 1099 1775.53 C 1099.57 1792.61 1095.32 1807.06 1086.72 1821.83 C 1073.62 1844.35 1052.69 1864.97 1026.8 1871.53 C 1014.24 1874.71 996.684 1875.61 985.441 1868.45 C 977.962 1863.68 973.914 1856.07 972.3 1847.5 C 969.334 1831.77 976.718 1814.48 985.587 1801.73 C 1002.24 1777.8 1027.85 1757.64 1056.91 1752.28 z"/>
<path transform="translate(0,0)" fill="rgb(254,254,254)" d="M 1065.24 1762.28 C 1068.48 1762.13 1071.35 1761.69 1074.32 1763.29 C 1075.39 1768.28 1071.03 1774.09 1068.37 1778.22 C 1056.96 1795.95 1027.26 1835.98 1010.62 1846.57 C 1005.63 1849.75 999.915 1850.93 994.223 1852.16 C 991.943 1852.78 990.747 1852.71 988.452 1852.18 C 986.297 1850.41 985.407 1848.86 985.008 1846.11 C 983.197 1833.65 991.196 1817.52 998.331 1807.63 C 1013.81 1786.18 1038.7 1766.74 1065.24 1762.28 z"/>
<path transform="translate(0,0)" fill="rgb(98,67,64)" d="M 976.163 230.896 C 977.893 232.576 977.611 233.187 976.132 234.991 C 963.96 249.843 952.55 264.583 942.696 281.14 C 914.878 327.887 903.893 376.775 905.043 430.992 C 905.974 474.917 916.623 562.378 949.711 592.94 C 952.795 595.789 954.718 597.248 958.978 597.114 C 961.149 595.874 962.349 594.614 963.53 592.446 C 980.496 561.315 966.53 517.128 958.152 485.779 C 965.934 498.018 971.518 510.75 975.571 524.641 C 980.4 540.958 984.253 557.701 982.913 574.827 C 981.907 587.682 977.904 601.93 967.545 610.388 C 963.312 613.844 958.158 615.643 952.687 614.865 C 939.002 612.918 926.697 597.559 919.223 586.939 C 882.399 534.612 870.541 452.757 881.616 390.768 C 890.763 339.57 917.783 289.119 953.578 251.53 C 960.534 244.225 967.866 236.644 976.163 230.896 z"/>
<path transform="translate(0,0)" fill="rgb(98,67,64)" d="M 1505.57 1543.4 C 1509.1 1543.01 1512.96 1543.31 1516.5 1543.68 C 1523.73 1544.45 1536.04 1547.01 1540.54 1553 C 1542.47 1555.57 1542.84 1557.77 1542.38 1560.95 C 1537.77 1569.6 1516.79 1576.12 1507.8 1580.44 C 1488.29 1589.81 1470.23 1602.4 1453.67 1616.31 C 1444.32 1624.17 1434.21 1636.11 1423.26 1641.38 C 1421.77 1642.09 1420.34 1642.8 1418.89 1643.6 C 1419.99 1645.44 1420.52 1645.44 1422.52 1646.05 C 1442.15 1652.03 1473.05 1637.47 1490.36 1628.37 C 1507.31 1619.46 1530.33 1604.57 1538.76 1586.52 C 1541.14 1581.42 1540.21 1575.06 1542.43 1569.91 C 1543.47 1567.52 1544.75 1566.86 1547.05 1565.88 C 1550.29 1566.19 1551.8 1567.41 1554.28 1569.31 C 1555.67 1571.41 1556.88 1573.61 1557.37 1576.11 C 1559.03 1584.69 1555.03 1593.63 1550.42 1600.62 C 1531.61 1629.1 1489.75 1653.27 1456.78 1659.92 C 1441.32 1663.03 1423.09 1662.68 1409.72 1653.37 C 1401.98 1647.98 1396.44 1639.48 1395.19 1630.08 C 1393.27 1615.5 1401.13 1599.76 1410.1 1588.63 C 1431.59 1562 1472.47 1546.61 1505.57 1543.4 z"/>
<path transform="translate(0,0)" fill="rgb(254,254,254)" d="M 1500.21 1555.22 C 1512.01 1553.97 1520.54 1555.34 1531.48 1559.73 C 1521.58 1565.61 1509.55 1569.11 1499.2 1574.4 C 1472.49 1588.03 1450.88 1608.15 1430.67 1629.94 C 1427.8 1632.96 1424.74 1636.27 1421.37 1638.73 C 1418.75 1640.65 1417.4 1641 1414.22 1640.67 C 1411.87 1638.98 1411.02 1638.51 1410.11 1635.61 C 1407.4 1626.98 1413.05 1612.23 1417.31 1605.05 C 1433.16 1578.31 1471.42 1562.54 1500.21 1555.22 z"/>
<path transform="translate(0,0)" fill="rgb(98,67,64)" d="M 1263.02 1664.41 C 1286.88 1661.85 1316.52 1666.95 1337.4 1679.07 C 1348.13 1685.29 1359.15 1695.01 1362.17 1707.49 C 1363.63 1713.52 1362.69 1719.4 1359.26 1724.59 C 1346.73 1743.56 1312.96 1751.13 1292.23 1754.8 L 1291.07 1754.99 C 1265.23 1758.93 1230.28 1758.9 1208.4 1742.31 C 1200.83 1736.56 1194.85 1728.46 1193.96 1718.76 C 1192.99 1708.21 1197.55 1698.31 1204.33 1690.47 C 1219.35 1673.06 1240.8 1666.23 1263.02 1664.41 z"/>
<path transform="translate(0,0)" fill="rgb(254,254,254)" d="M 1347.84 1718.22 C 1346.69 1719.16 1345.66 1719.96 1344.38 1720.72 C 1314.86 1738 1261.17 1744.8 1228.29 1735.19 C 1221.52 1733.21 1213.5 1730 1210.12 1723.31 C 1208.03 1719.17 1208.17 1714.42 1209.67 1710.12 C 1213.63 1698.75 1224.27 1690.29 1234.96 1685.52 C 1259.97 1674.34 1295.69 1676.95 1320.78 1686.59 C 1332.23 1690.98 1347.88 1699.29 1353.03 1711.03 C 1352.93 1713.86 1353.08 1713.82 1351.15 1715.85 C 1350.13 1716.49 1348.49 1717.22 1347.84 1718.22 z"/>
<path transform="translate(0,0)" fill="url(#Gradient1)" d="M 1347.84 1718.22 C 1345.43 1716.56 1342.97 1714.79 1340.37 1713.44 C 1324.34 1705.12 1261.57 1699.33 1242.41 1700.15 C 1235.79 1700.44 1228.82 1701.69 1222.49 1703.62 C 1219.87 1704.42 1217.51 1704.98 1214.8 1705.36 L 1213.87 1704.52 C 1220.96 1702.97 1227.15 1698.8 1234.34 1697.22 C 1256.15 1692.43 1280.39 1695.29 1302.44 1697.24 C 1319.65 1698.76 1339.42 1701.84 1351.15 1715.85 C 1350.13 1716.49 1348.49 1717.22 1347.84 1718.22 z"/>
<path transform="translate(0,0)" fill="rgb(98,67,64)" d="M 823.513 1685.43 C 845.441 1685.42 872.786 1690.46 889.867 1705.28 C 897.336 1711.76 902.985 1720.01 903.597 1730.13 C 904.338 1742.39 897.585 1753.89 889.671 1762.74 C 863.992 1791.47 827.641 1801.78 790.46 1803.73 C 767.162 1803.78 739.592 1801.97 720.908 1786.24 C 713.2 1779.75 708.37 1771.5 707.631 1761.37 C 706.646 1747.89 712.479 1735.76 721.216 1725.84 C 745.884 1697.83 787.76 1687.43 823.513 1685.43 z"/>
<path transform="translate(0,0)" fill="rgb(254,254,254)" d="M 823.688 1699.44 A 174.124 174.124 0 0 1 829.766 1699.48 C 848.262 1699.96 870.351 1703.61 883.364 1717.95 C 886.933 1721.89 889.881 1725.94 889.622 1731.44 C 886.526 1738.65 878.103 1745.27 872.255 1750.28 C 843.239 1775.13 798.708 1786.77 761.057 1783.66 C 746.971 1782.49 733.119 1778.93 723.616 1767.75 C 749.524 1745.81 776.528 1739.64 810.043 1739.15 C 829.819 1740.05 851.904 1745.23 871.429 1741.81 C 875.576 1741.09 881.249 1739.79 883.828 1736.2 L 882.916 1734.68 C 876.247 1732.45 868.503 1733.9 861.512 1733.06 C 839.145 1730.36 817.834 1724.72 795.027 1725.73 C 764.423 1727.1 740.96 1735.8 720.137 1758.44 C 721.679 1748.69 723.106 1742.05 729.879 1734.27 C 750.938 1710.08 793.381 1701.48 823.688 1699.44 z"/>
<path transform="translate(0,0)" fill="rgb(98,67,64)" d="M 1048.5 197.175 C 1051.81 196.857 1055.72 196.491 1058.57 198.248 C 1054.74 201.332 1047.64 201.946 1042.97 203.92 C 1036.07 206.842 1029.06 212.364 1023.59 217.462 C 1008.96 231.078 1001.3 248.914 998.5 268.45 C 988.857 335.629 1027.13 371.841 1051.16 428.304 A 202.757 202.757 0 0 1 1067.07 495.355 C 1071.35 562.035 1055.39 630.866 1033.53 693.444 C 1019.68 733.112 1003.58 771.912 992.259 812.433 C 985.429 836.868 977.789 863.604 976.817 889.044 C 998.991 887.376 1020.9 886.1 1043.14 886.462 C 1078.08 810.537 1125.94 740.082 1147.42 658.435 C 1162.62 600.633 1161.84 535.559 1128.18 483.986 A 201.814 201.814 0 0 0 1111.66 462.272 C 1106.87 456.846 1100.78 451.754 1097.16 445.509 L 1097.71 444.04 C 1100.2 443.638 1101.09 443.688 1103.5 444.688 C 1108.93 446.94 1114.22 450.991 1118.9 454.501 C 1143.81 473.186 1161.67 498.604 1173.03 527.469 C 1183.76 554.71 1186.07 586.081 1184.06 615.057 C 1178.83 690.451 1145.13 757.289 1109.89 822.717 C 1098.38 844.098 1085.53 865.563 1075.92 887.87 C 1164.98 888.17 1321.71 915.313 1388.71 977.253 C 1397.55 985.421 1404.86 995.017 1409.37 1006.23 C 1420.57 1034.08 1419.69 1090.2 1420.79 1121.27 C 1446.77 1101.31 1475.07 1087.14 1508.05 1083.5 C 1533.67 1080.67 1558.87 1085.43 1579.19 1102 C 1602.84 1121.28 1613.25 1149.58 1616.07 1179.25 C 1621.97 1241.31 1591.05 1298.88 1552.8 1345.22 C 1522.31 1385.55 1448.35 1440.98 1403.74 1464.46 C 1385.18 1474.23 1365.97 1481.72 1346.07 1488.27 C 1316.86 1549.57 1277.39 1608.29 1218.66 1644.96 C 1129.95 1700.34 1013.29 1711.54 912.672 1687.83 C 882.003 1680.61 853.429 1669.98 826.393 1653.56 C 778.565 1624.52 732.209 1572.07 702.948 1524.69 C 620.496 1391.2 579.002 1223.65 615.731 1068.77 C 613.272 1061.72 610.986 1055.1 610.45 1047.59 C 609.434 1033.34 615.816 1020.87 624.855 1010.36 C 669.829 958.065 796.535 919.329 863.076 905.058 A 665.155 665.155 0 0 1 953.361 891.855 C 949.012 820.547 976.159 758.142 999.353 692.386 C 1013.55 652.145 1025.91 612.402 1033.49 570.323 C 1038.58 542.015 1041.46 512.162 1037.71 483.555 A 208.18 208.18 0 0 0 1021.4 424.805 C 1006.76 392.585 986.121 364.364 978.653 328.988 C 971.833 296.682 975.139 260.727 993.581 232.656 C 1006.84 212.481 1025.15 201.978 1048.5 197.175 z"/>
<path transform="translate(0,0)" fill="rgb(254,254,254)" d="M 1219.09 1057.21 C 1223 1056.99 1226.79 1056.9 1230.57 1058.12 C 1235.01 1059.55 1239.46 1063.08 1241.54 1067.31 C 1243.02 1070.33 1243.4 1073.73 1242.26 1076.93 C 1240.29 1082.47 1236.04 1084.98 1230.9 1087.2 C 1227.66 1087.48 1224.28 1087.8 1221.07 1087.12 C 1216.11 1086.06 1211.39 1082.72 1208.9 1078.28 C 1207.07 1075.01 1206.55 1071.14 1207.8 1067.58 C 1209.78 1061.98 1213.96 1059.58 1219.09 1057.21 z"/>
<path transform="translate(0,0)" fill="rgb(254,254,254)" d="M 1128.43 1061.12 C 1134.86 1060.61 1141.29 1060.07 1147.53 1062.16 C 1153.86 1064.29 1159.72 1068.37 1162.59 1074.56 C 1164.7 1079.1 1165 1084.31 1162.96 1088.93 C 1159.59 1096.55 1152.08 1100.16 1144.69 1102.86 C 1138.16 1103.39 1131.69 1103.96 1125.39 1101.7 C 1119.08 1099.45 1113.25 1095.17 1110.5 1088.9 C 1108.49 1084.32 1108.35 1079.18 1110.49 1074.62 C 1113.86 1067.43 1121.28 1063.57 1128.43 1061.12 z"/>
<path transform="translate(0,0)" fill="rgb(254,254,254)" d="M 1012.91 1051.88 C 1017.27 1055.82 1021.21 1072.29 1026.04 1078.78 C 1027.53 1080.78 1028.31 1081.34 1030.75 1081.6 C 1031.99 1072.54 1029.42 1061.88 1029.01 1052.57 C 1033.57 1053.01 1038.43 1053.85 1042.79 1055.33 C 1050.81 1058.04 1058.62 1063.55 1062.24 1071.4 C 1065.91 1079.35 1064.42 1085.99 1061.41 1093.8 C 1057.9 1099.34 1053.92 1103.63 1048.03 1106.71 C 1039.69 1111.06 1029.62 1111.41 1020.77 1108.44 C 1010.7 1105.07 1001.79 1097.39 997.367 1087.69 C 994.453 1081.29 993.568 1073.87 996.154 1067.21 C 999.247 1059.25 1005.58 1055.39 1012.91 1051.88 z"/>
<path transform="translate(0,0)" fill="rgb(254,254,254)" d="M 882.879 1063.41 C 892.758 1062.77 904.973 1064.31 913.069 1070.3 C 917.936 1073.91 921.24 1079.13 921.85 1085.21 C 922.464 1091.31 920.111 1097.27 916.114 1101.83 C 907.561 1111.58 894.69 1114.45 882.333 1115.24 C 871.729 1115.27 861 1113.51 852.17 1107.22 C 847.225 1103.7 843.286 1098.63 842.568 1092.46 C 841.926 1086.94 843.885 1081.45 847.327 1077.17 C 855.804 1066.62 870.331 1064.8 882.879 1063.41 z"/>
<path transform="translate(0,0)" fill="rgb(254,254,254)" d="M 1509.77 1181.88 C 1510 1182.09 1510.28 1182.26 1510.46 1182.51 C 1514.66 1188.62 1514.62 1204.74 1514.28 1212.11 C 1510.9 1284.49 1435.27 1350.73 1384.82 1396.29 L 1383.61 1396.86 L 1382.61 1396.21 C 1382.79 1385.75 1390.65 1367.45 1393.22 1356.42 C 1400.48 1325.17 1406.78 1294.16 1412.02 1262.5 C 1441.53 1232.72 1474.33 1204.4 1509.77 1181.88 z"/>
<path transform="translate(0,0)" fill="rgb(254,254,254)" d="M 1507.21 1099.34 C 1518.95 1097.55 1532.74 1099.04 1543.96 1102.94 C 1562.3 1109.31 1576.51 1123.45 1584.76 1140.85 C 1600.12 1173.29 1595.77 1212.72 1583.79 1245.44 C 1548.31 1342.31 1454.83 1406.33 1364.9 1447.82 A 664.791 664.791 0 0 1 1373.79 1422.83 A 310.713 310.713 0 0 0 1465.19 1342.44 C 1473.12 1332.14 1479.66 1320.74 1487.85 1310.69 L 1488.49 1309.92 C 1471.51 1348.82 1441.97 1383.08 1415.17 1415.55 C 1423.8 1409.47 1431.57 1402.71 1439.46 1395.74 C 1476 1360.55 1504.37 1317.91 1520.51 1269.62 C 1530.98 1238.3 1534.53 1206.37 1519.52 1176.06 C 1520.33 1175.52 1521.15 1174.99 1522 1174.5 C 1530.67 1169.5 1541.77 1165.28 1551.83 1168.41 C 1555.03 1169.41 1557.45 1171.71 1558.79 1174.76 C 1568.89 1197.71 1541.17 1246.8 1533.55 1268.97 L 1533.05 1270.43 C 1550.64 1247.84 1573.93 1208.18 1575.16 1179.55 C 1575.52 1171.26 1574.12 1162.69 1568.13 1156.49 C 1562.84 1151.02 1554.96 1148.95 1547.54 1149.03 C 1507.11 1149.46 1442.55 1209.68 1414.66 1237.79 C 1417.93 1206.12 1419.31 1174.94 1420.1 1143.13 A 151.43 151.43 0 0 1 1507.21 1099.34 z"/>
<path transform="translate(0,0)" fill="rgb(254,254,254)" d="M 1063.65 910.774 C 1153.66 909.372 1290.05 928.521 1363.32 984.412 C 1371.79 990.874 1381.49 999.42 1382.67 1010.68 C 1383.41 1017.78 1379.71 1023.29 1375.27 1028.45 C 1364 1041.52 1347.29 1048.26 1330.27 1048.94 C 1310.98 1049.7 1290.92 1041.86 1272.27 1037.37 C 1259.09 1034.2 1245.48 1031.82 1232.09 1029.67 A 894.615 894.615 0 0 0 1030.15 1021.19 C 1031.65 1010.52 1033.18 1000.04 1035.17 989.447 C 1037.72 976.685 1042.11 964.322 1046.29 952.025 C 1122.25 950.85 1229.17 964.996 1299.25 995.208 A 331.625 331.625 0 0 1 1339.6 1015.88 C 1345.49 1019.39 1351.29 1024.29 1357.43 1027.09 C 1359.53 1028.05 1359.77 1028.23 1362.01 1027.46 C 1362.31 1026.32 1362.38 1026.31 1362.37 1024.91 C 1362.33 1018.38 1355.1 1011.36 1350.67 1007.02 C 1340.64 997.181 1329.33 991.736 1316.89 985.787 C 1297.62 976.577 1278.51 971.427 1257.81 966.486 C 1188.6 949.974 1118.96 946.998 1048.12 948.246 C 1052.78 935.505 1057.78 923.01 1063.65 910.774 z"/>
<path transform="translate(0,0)" fill="rgb(254,254,254)" d="M 995.271 911.5 C 1007.88 910.415 1020.73 910.696 1033.38 910.684 C 1019.07 947.853 1009 982.775 1008.83 1022.91 C 935.23 1023.65 847.325 1037.35 777.053 1059.22 C 752.523 1066.85 728.841 1076.77 704.877 1085.97 C 692.397 1076.71 675.81 1068.65 666.109 1056.33 C 725.865 996.905 832.958 969.636 913.311 956.231 C 935.197 952.58 958.788 952.9 980.171 947.527 C 980.501 947.444 980.829 947.352 981.158 947.265 C 961.138 945.419 940.046 947.234 920.056 949.048 C 855.235 954.929 786.172 966.592 726.202 992.947 C 704.974 1002.28 664.18 1022.48 656.001 1045.15 C 654.096 1050.43 654.083 1055.53 656.565 1060.62 C 667.093 1082.2 716.989 1103.35 739.348 1111.14 C 892.298 1164.44 1178.67 1159.48 1325.51 1087.8 C 1352.98 1074.39 1384.45 1056.03 1394.96 1025.65 C 1394.8 1038.42 1395.74 1051.13 1395.33 1063.92 C 1371.35 1084.2 1346.69 1104.78 1321.4 1123.39 C 1308.43 1132.94 1294.84 1141.71 1281.54 1150.8 C 1316.93 1137.23 1348.21 1123.92 1376.23 1097.46 C 1372.02 1142.54 1365.76 1186.61 1357.84 1231.19 C 1352.48 1261.33 1340.5 1312.27 1340.98 1340.73 C 1348.83 1324.49 1353.87 1304.62 1358.73 1287.21 C 1373.42 1234.6 1394.67 1145.58 1380.15 1092.53 A 298.024 298.024 0 0 0 1395.84 1074.4 C 1396.52 1138.1 1395.13 1201.48 1385.09 1264.53 C 1380.31 1294.51 1373.05 1324.05 1366.16 1353.6 C 1359.7 1380.91 1351.01 1406.96 1341.29 1433.26 C 1317.33 1498.13 1287.4 1556.47 1234.03 1602.35 C 1164.8 1661.87 1064.84 1678.73 975.972 1672.04 C 885.732 1665.25 822.979 1636.75 763.76 1567.73 C 678.996 1468.93 632.289 1336.36 621.35 1207.58 A 817.915 817.915 0 0 1 621.685 1079.96 C 641.048 1101.69 663.641 1118.29 689.511 1131.61 C 844.568 1211.42 1057.4 1209.61 1220.74 1157.5 C 1189.02 1160.73 1157.58 1165.9 1125.79 1168.56 C 1072.95 1172.98 1018.79 1175.02 965.848 1172.52 C 868.033 1167.9 730.78 1145.23 654.055 1079.82 C 643.933 1071.19 632.028 1059.91 631.195 1045.78 C 630.677 1036.99 635.015 1029.18 640.718 1022.81 C 651.623 1010.63 667.032 1001.62 681.162 993.693 C 753.11 953.345 875.386 918.551 957.542 914.511 C 958.969 922.143 960.512 933.118 966.203 938.722 L 967.95 938.671 C 972.75 933.183 971.89 920.285 972.221 913.148 C 979.884 912.44 987.592 912.03 995.271 911.5 z"/>
<path transform="translate(0,0)" fill="rgb(98,67,64)" d="M 1157.7 1592.75 C 1158.08 1594.55 1158.04 1595.92 1157.6 1597.68 C 1155.23 1607.29 1148.2 1616.98 1139.79 1622.15 C 1139.68 1621.15 1139.61 1620.15 1139.68 1619.15 C 1140.28 1609.94 1151.09 1598.58 1157.7 1592.75 z"/>
<path transform="translate(0,0)" fill="rgb(98,67,64)" d="M 774.138 1537.61 C 778.844 1540.47 791.803 1562.59 796.904 1568.82 C 806.961 1581.1 817.751 1592.97 830.32 1602.71 C 816.954 1585.87 804.423 1568.87 796.016 1548.93 C 801.866 1556.37 807.613 1563.82 813.071 1571.55 C 825.09 1590.96 832.455 1603.78 849.827 1619.11 C 842.752 1617.01 836.8 1614.09 830.668 1610.04 C 809.306 1595.9 779.312 1563.34 774.138 1537.61 z"/>
<path transform="translate(0,0)" fill="rgb(98,67,64)" d="M 1353.32 1122.38 C 1355.4 1123.37 1355.61 1123.78 1356.7 1125.86 C 1369.3 1149.85 1352.2 1220.82 1343.14 1247.65 L 1340.51 1251.45 L 1340.81 1250.52 L 1340.17 1250.08 A 1987.86 1987.86 0 0 0 1353.32 1122.38 z"/>
<path transform="translate(0,0)" fill="rgb(98,67,64)" d="M 1219.4 1534.69 C 1219.53 1534.83 1219.68 1534.95 1219.77 1535.12 C 1222.78 1540.46 1217.84 1555.11 1215.82 1560.82 C 1207.75 1583.67 1191.17 1604.45 1169.15 1615.13 L 1168.37 1614.48 C 1168.08 1610.37 1213.3 1542.85 1219.4 1534.69 z"/>
<path transform="translate(0,0)" fill="rgb(98,67,64)" d="M 1269.24 1478.69 C 1270.32 1483.03 1269.51 1488.16 1269.06 1492.59 C 1265.37 1528.38 1241.31 1567.82 1213.79 1590.31 C 1212.72 1584.01 1262.8 1488.4 1269.24 1478.69 z"/>
<path transform="translate(0,0)" fill="rgb(98,67,64)" d="M 1319.31 1407.7 C 1319.44 1408.35 1319.64 1409 1319.69 1409.67 C 1320.27 1417.59 1316.64 1428.02 1314.92 1435.92 C 1303.94 1486.26 1290.3 1519.9 1255.58 1559.04 C 1255.01 1552.95 1290.78 1478.03 1295.09 1467.97 C 1303.6 1448.12 1312.24 1428.11 1319.31 1407.7 z"/>
<path transform="translate(0,0)" fill="rgb(98,67,64)" d="M 1247.74 1193.43 C 1257.07 1197.54 1271.19 1218.13 1277.27 1226.83 C 1285.2 1224.42 1293.22 1222.57 1301.3 1220.74 C 1296.14 1229.37 1288.52 1237 1282.1 1244.76 C 1283.69 1249.81 1286.57 1256.55 1285.35 1261.79 L 1283.73 1262.76 C 1279.32 1261.78 1275.9 1258.05 1272.53 1255.18 L 1270.08 1254.3 C 1263.8 1257.61 1258.3 1265.62 1252.56 1270.33 L 1251.55 1271.14 C 1253.54 1262.5 1257.13 1254.87 1260.82 1246.85 C 1256.52 1246.21 1251.96 1246.39 1247.76 1245.22 C 1245.69 1244.64 1244.79 1244.56 1243.7 1242.69 C 1247.61 1238.37 1257.12 1235.27 1262.48 1232.24 C 1256.41 1219.89 1251.03 1206.8 1247.74 1193.43 z"/>
<path transform="translate(0,0)" fill="rgb(98,67,64)" d="M 1264.92 1279.25 C 1272.91 1278.29 1281.15 1278.3 1288.33 1282.48 C 1292.86 1285.11 1295.67 1289.32 1296.74 1294.4 C 1299.5 1307.54 1293.42 1321.68 1286.52 1332.62 C 1268.47 1361.26 1239.53 1379.18 1207.09 1386.64 A 142.852 142.852 0 0 0 1207.01 1391.12 C 1206.99 1400.62 1208.31 1410.27 1215.61 1417.11 C 1220.81 1421.98 1227.69 1423.55 1234.65 1423.17 C 1266 1421.46 1279.93 1398.14 1298.46 1377.45 L 1299.26 1376.56 C 1297.38 1385.75 1295.2 1393.21 1290.56 1401.41 C 1276.72 1423.46 1255.9 1439.22 1230.4 1445.06 C 1216.32 1448.28 1199.22 1448.8 1186.69 1440.61 C 1177.38 1434.51 1172.09 1424.58 1169.8 1413.9 C 1163.84 1386.02 1174.15 1355.16 1189.47 1332 C 1207.42 1304.88 1232.99 1285.91 1264.92 1279.25 z"/>
<path transform="translate(0,0)" fill="rgb(254,254,254)" d="M 1258.16 1292 C 1259.07 1292 1260.09 1291.95 1260.97 1292.23 C 1262.95 1292.84 1265.04 1295.08 1265.85 1296.92 C 1267.31 1300.27 1266.43 1304.98 1265.48 1308.33 A 103.438 103.438 0 0 1 1215.36 1370.43 L 1211.67 1372.26 L 1210.53 1371.39 C 1209 1359.85 1222.45 1330.6 1228.25 1320.19 C 1235.2 1307.72 1243.83 1296.02 1258.16 1292 z"/>
<path transform="translate(0,0)" fill="rgb(98,67,64)" d="M 1180.22 1220.15 C 1187.62 1219.79 1194.68 1219.57 1201.61 1222.72 C 1209.75 1226.42 1215.54 1233.25 1218.48 1241.64 C 1221.52 1250.32 1222.09 1261.14 1217.88 1269.56 C 1215.45 1274.41 1211.55 1278.09 1206.27 1279.58 C 1202.31 1280.7 1197.25 1281.17 1193.69 1278.64 C 1184.37 1272.01 1192.33 1250.13 1189.42 1239.78 C 1188.73 1237.32 1187.42 1235.2 1184.95 1234.18 C 1182.22 1233.04 1177.01 1233.64 1174.55 1235.34 C 1165.5 1241.55 1151.31 1295.38 1148.23 1307.1 C 1157.14 1305.52 1173.14 1300.93 1181.56 1303.99 C 1183.78 1304.81 1183.87 1305.18 1184.81 1307.2 C 1184.44 1308.45 1184.01 1309.39 1183.11 1310.35 C 1173.81 1320.27 1157.92 1321.27 1145.29 1322.14 C 1134.08 1364.58 1122.96 1406.92 1104.48 1446.92 C 1093.63 1470.41 1079.84 1495.6 1054.09 1504.91 C 1041.56 1509.43 1023.28 1510.68 1011.16 1504.5 C 1006.62 1502.18 1003.02 1498.44 1001.58 1493.48 C 998.58 1483.12 1004.69 1472.75 1009.57 1464.04 C 1006.07 1464.05 1002.56 1464.09 999.072 1463.89 C 994.052 1463.59 988.603 1462.51 985.294 1458.32 C 979.393 1450.86 984.337 1432.81 985.688 1424.03 A 283.314 283.314 0 0 1 974.321 1438.62 C 962.443 1452.83 945.442 1468.97 925.923 1470.3 C 918.225 1470.83 910.489 1468.68 904.686 1463.47 C 892.628 1452.63 892.275 1435 891.457 1420.02 C 877.754 1435.56 864.73 1449.83 846.636 1460.34 A 113.976 113.976 0 0 1 760.581 1471.68 C 741.528 1466.53 726.147 1455.13 716.487 1437.8 C 701.321 1410.59 703.907 1376.49 712.374 1347.58 C 725.553 1302.6 762.938 1259.56 803.773 1237.37 C 825.656 1225.48 856.118 1216.54 880.826 1224.36 C 890.565 1227.43 898.154 1234.01 902.767 1243.12 C 910.077 1257.55 908.244 1276.99 902.987 1291.89 C 896.687 1309.73 883.494 1327.76 866.146 1336.04 L 864.919 1336.62 A 245.547 245.547 0 0 1 827.395 1330.21 C 838.239 1307.11 856.154 1302.68 870.844 1284.24 C 876.881 1276.67 881.924 1266.72 880.44 1256.75 C 879.455 1250.12 875.3 1243 869.902 1239.01 C 864.853 1235.28 858.712 1234.62 852.667 1235.68 C 827.184 1240.16 806.167 1263.53 791.787 1283.35 C 766.348 1318.39 746.485 1366.07 753.713 1410.15 C 755.861 1423.24 761.356 1436.68 772.621 1444.47 C 785.959 1453.69 807.452 1453.37 822.744 1450.14 C 851.504 1444.07 878.698 1421.5 893.663 1396.63 C 900.621 1385.07 905.277 1372.44 912.715 1361.03 C 925.018 1342.16 945.813 1320.72 968.838 1316.24 C 978.222 1314.42 989.605 1315.22 997.675 1320.79 C 1006.77 1327.07 1009.15 1336.4 1010.73 1346.64 C 1014.09 1339.92 1017.43 1333.07 1021.39 1326.69 C 1025.74 1319.67 1031.17 1314.17 1039.48 1312.48 C 1045.02 1311.36 1051.77 1311.32 1056.67 1314.38 C 1065.16 1327.41 1016.75 1417.47 1020.41 1434.77 C 1021.01 1437.58 1021.61 1438.03 1023.72 1439.75 C 1036.24 1441.8 1061.28 1423.37 1074.29 1418.01 C 1068.61 1435.65 1040.04 1453.14 1028.76 1472.19 C 1025.89 1477.04 1023.19 1482.78 1024.92 1488.49 C 1025.94 1491.84 1029.36 1495.21 1032.6 1496.43 C 1035.63 1497.57 1038.66 1496.84 1041.35 1495.27 C 1074.85 1475.72 1094.34 1363.38 1104.57 1325.63 C 1098.07 1326.43 1089.95 1328.23 1083.7 1325.84 C 1081.26 1324.9 1080.49 1324.18 1079.42 1321.86 C 1079.71 1320.98 1079.85 1320.4 1080.44 1319.61 C 1086.31 1311.7 1099.75 1312.38 1108.48 1312.08 C 1113.65 1294.44 1120.15 1277.73 1129.4 1261.79 C 1142.05 1240 1155.48 1226.59 1180.22 1220.15 z"/>
<path transform="translate(0,0)" fill="rgb(254,254,254)" d="M 980.285 1337.16 C 983.712 1336.83 987.97 1336.43 991.273 1337.53 A 14.4155 14.4155 0 0 1 999.535 1344.83 C 1003.97 1353.91 1000.4 1370.63 997.316 1379.98 C 990.436 1400.82 969.457 1432.47 949.72 1442.6 C 946.038 1443.35 941.604 1444.37 937.975 1442.9 C 934.991 1441.68 932.827 1438.94 931.622 1436.03 C 926.357 1423.32 933.93 1400.26 938.625 1388.06 C 946.559 1367.45 959.429 1346.44 980.285 1337.16 z"/>
</svg>