<svg preserveAspectRatio="xMidYMid meet" version="1.1" xmlns="http://www.w3.org/2000/svg" style="display: block;" viewBox="0 0 2048 2048" width="1024" height="1024">
<path transform="translate(0,0)" fill="rgb(246,160,141)" d="M 0 0 L 2048 0 L 2048 2048 L 0 2048 L 0 0 z"/>
<path transform="translate(0,0)" fill="rgb(7,38,78)" d="M 109.055 110.108 L 866.317 110.272 L 1103.79 110.218 L 1181.3 110.089 C 1197.77 110.071 1214.47 109.604 1230.89 110.776 L 1231.72 848.622 L 1231.63 1094.33 C 1231.54 1134.47 1233.22 1177.92 1230.93 1217.69 C 1191.88 1218.64 1152.42 1217.25 1113.34 1217.16 L 881.557 1217.08 L 108.002 1217.11 L 109.055 110.108 z"/>
<path transform="translate(0,0)" fill="rgb(252,242,233)" d="M 282.017 115.496 L 900.285 115.949 C 1008.43 116.008 1116.68 114.742 1224.8 115.901 L 1225.23 1211.61 C 1167.9 1212.16 1110.5 1211.5 1053.17 1211.41 L 114.198 1211.25 L 114.785 115.823 C 170.47 114.812 226.317 115.583 282.017 115.496 z"/>
<path transform="translate(0,0)" fill="rgb(7,38,78)" d="M 810.333 689.129 C 807.517 708.196 803.769 725.794 787.07 737.887 C 774.066 747.304 756.187 750.064 740.535 750.778 C 713.78 751.998 685.756 748.552 658.972 747.187 C 617.581 745.175 576.149 744.109 534.709 743.991 C 486.444 743.865 438.16 746.185 389.944 748.125 C 359.915 749.333 327.392 754.089 297.754 748.62 C 280.593 745.453 265.618 737.316 255.597 722.708 C 249.263 713.475 246.582 703.288 245.811 692.281 C 243.677 661.854 248.902 629.663 250.414 599.147 C 253.337 547.003 253.469 494.74 250.81 442.582 C 249.539 420.509 248.092 398.446 246.469 376.396 C 245.316 360.792 240.892 342.444 244.306 327.054 C 247.839 311.537 257.526 298.123 271.144 289.89 C 282.065 283.234 295.19 279.541 307.944 279.061 C 321.123 278.564 334.629 279.884 347.817 280.52 C 366.519 281.341 385.226 282.051 403.937 282.649 C 468.076 284.831 531.664 285.988 595.813 284.453 C 623.433 283.925 651.047 283.117 678.65 282.03 C 701.555 281.035 748.942 275.793 769.712 281.04 C 785.965 285.026 799.9 295.449 808.313 309.916 C 813.549 318.782 816.496 328.174 816.936 338.501 C 817.5 351.709 815.613 365.219 814.512 378.373 L 809.674 440.324 C 805.972 494.697 806.856 551.552 812.3 605.851 C 830.665 590.919 868.055 559.502 878.881 539.462 C 877.474 535.813 876.458 532.452 875.632 528.631 C 863.124 529.238 848.876 531.093 838.709 522.071 C 827.087 511.759 825.076 493.086 824.619 478.472 C 824.098 461.811 824.457 442.786 836.771 429.957 C 849.367 416.835 873.553 408.042 891.586 408.068 C 905.314 408.009 918.458 413.613 927.92 423.56 C 939.191 435.304 942.632 451.081 951.284 464.346 C 969.201 470.176 986.254 476.287 995.804 494.104 C 999.447 500.9 1000.77 508.544 998.099 515.929 C 995.034 524.407 988.655 529.479 981.518 534.37 C 1008.6 555.324 1037.92 574.129 1063.08 597.538 C 1075.61 599.395 1087.85 600.438 1096.11 611.259 C 1108.38 627.325 1133.58 697.71 1131 717.165 C 1129.9 725.396 1123.12 731.868 1116.67 736.411 C 1098.29 749.353 1076.92 757.07 1054.4 753.344 C 1052.27 752.824 1050.84 752.482 1048.66 752.899 C 1048.58 758.278 1064.52 812.637 1066.92 822.993 C 1077.97 870.68 1087.87 918.627 1096.6 966.793 C 1099.87 985.333 1103.63 1003.96 1105.82 1022.67 C 1100.3 1031.39 1094.09 1035.99 1085.44 1041.13 C 1088.39 1055.9 1091.29 1070.69 1094.48 1085.4 C 1095.18 1088.68 1095.4 1094.41 1098.49 1096.01 C 1100.15 1096.87 1099.63 1096.12 1101.24 1097.57 C 1107.74 1103.41 1118.77 1132.16 1118.43 1141.46 C 1118.3 1144.89 1117.11 1147.23 1114.42 1149.4 C 1111.64 1151.65 1107.77 1153.37 1104.27 1154.08 C 1090.25 1156.91 1025.03 1156.23 1008.62 1154.87 C 1001.05 1154.24 993.25 1152.96 988.272 1146.57 C 986.166 1143.86 985.185 1140.73 985.697 1137.31 C 986.463 1132.21 989.856 1127.75 993.456 1124.24 C 998.589 1119.23 1005.59 1115.35 1011.56 1111.36 C 1023.41 1103.47 1035.32 1095.76 1046.64 1087.12 C 1044.32 1077.44 1041.41 1068.26 1037.93 1058.93 C 1033.58 1060.07 1029.24 1060.81 1024.81 1061.54 C 1014.25 1044.09 1006.5 1016.27 999.662 996.499 C 988.783 964.793 977.594 933.195 966.097 901.708 C 973.883 890.966 981.786 880.476 989.193 869.451 C 995.89 888.503 1000.59 908.547 1006.48 927.889 C 1015.73 957.732 1025.55 987.398 1035.92 1016.87 C 1039.86 1028.19 1042.91 1042.72 1049.54 1052.55 L 1050.15 1051.76 C 1046.79 1033.08 1037.22 1013.7 1031.25 995.552 C 1016.78 952.735 1003.46 909.536 991.321 866 C 1003.44 848.37 1014.72 831.142 1022.65 811.098 C 1027.44 799.002 1038.24 759.025 1033.33 747.736 L 1033.07 747.764 C 1029.28 761.278 1030.03 775.744 1026.73 789.444 C 1022.99 804.949 1016.43 820.45 1008.6 834.348 C 997.731 853.647 983.843 871.452 971.368 889.725 C 950.973 919.599 929.865 948.521 908.359 977.592 C 894.495 996.334 880.992 1015.99 865.028 1033.03 C 857.902 1040.63 850.535 1046.51 841.652 1051.92 C 836.824 1051.76 831.907 1050.88 827.111 1050.27 C 818.156 1066.62 808.004 1082.44 798.501 1098.49 C 801.31 1114.75 797.159 1135.88 788.292 1149.88 C 785.794 1153.83 782.622 1157.47 777.828 1158.34 C 766.324 1160.42 746.119 1148.61 736.695 1142.71 C 721.715 1133.32 676.491 1101.9 673.281 1085.25 C 672.464 1081.01 672.577 1076.13 675.529 1072.68 C 687.635 1058.54 720.09 1073.77 735.25 1073.4 C 736.534 1073.37 737.745 1073.13 738.969 1072.74 C 743.44 1071.35 748.375 1068.48 752.98 1068 C 756.323 1067.64 759.564 1068.33 762.93 1067.82 C 770.612 1058.72 776.176 1045.98 781.968 1035.46 L 771.897 1029.22 C 796.212 964.312 825.069 901.023 854.24 838.177 C 865.781 813.313 877.653 781.707 893.797 759.817 C 892.457 758.974 893.187 759.283 891.34 758.913 C 889.059 758.457 886.512 758.142 884.406 757.109 C 870.72 750.396 858.954 719.457 853.335 705.797 C 850.497 696.564 848.094 687.066 844.977 677.94 C 833.406 681.551 822.036 685.991 810.333 689.129 z"/>
<path transform="translate(0,0)" fill="rgb(237,118,108)" d="M 638.587 690.316 C 615.846 687.626 592.669 687.833 569.798 687.5 C 515.561 686.709 461.568 689.183 407.419 691.967 C 379.285 693.414 351.186 695.478 323.008 695.996 C 318.123 696.086 310.441 696.689 306.259 693.905 C 303.766 692.245 301.702 690.105 301.209 687.027 C 299.12 673.957 303.254 653.865 304.592 640.153 C 306.14 625.124 307.272 610.055 307.987 594.963 C 310.566 533.526 309.918 471.995 306.045 410.626 C 305.018 396.527 297.155 343.849 303.2 335.868 C 304.953 333.553 307.288 332.424 310.104 332.136 C 321.191 331.004 333.66 332.376 344.845 332.614 C 376.816 333.295 408.756 334.967 440.722 335.668 C 523.039 337.529 605.394 336.9 687.674 333.783 C 699.218 333.381 754.085 328.496 761.653 335.187 C 766.667 339.62 767.09 344.979 766.648 351.354 C 765.822 363.25 763.796 375.077 762.891 386.996 C 758.907 433.973 757.25 481.118 757.926 528.259 C 758.274 548.22 758.884 568.295 760.635 588.183 C 761.989 603.56 764.352 618.997 765.075 634.404 L 765.249 636.668 C 775.697 633.55 786.375 626.416 795.905 621.097 C 805.591 640.909 812.024 663.12 824.523 681.484 C 811.596 687.629 794.413 692.399 780.033 692.111 C 771.433 693.047 762.626 694.654 754.019 695.138 C 736.989 696.371 719.895 696.445 702.854 695.359 L 699.189 681.169 C 692.877 681.554 687.315 684.154 681.217 684.744 C 671.523 686.203 655.313 690.685 646.073 689.562 C 646.91 687.747 646.447 688.476 647.323 687.293 L 646.085 686.324 L 638.587 690.316 z"/>
<path transform="translate(0,0)" fill="rgb(253,254,254)" d="M 795.905 621.097 C 805.591 640.909 812.024 663.12 824.523 681.484 C 811.596 687.629 794.413 692.399 780.033 692.111 C 771.433 693.047 762.626 694.654 754.019 695.138 C 752.013 678.325 746.827 662.111 745.564 645.173 C 751.477 642.596 757.544 640.31 763.54 637.925 L 765.249 636.668 C 775.697 633.55 786.375 626.416 795.905 621.097 z"/>
<path transform="translate(0,0)" fill="rgb(237,118,108)" d="M 745.564 645.173 C 751.477 642.596 757.544 640.31 763.54 637.925 C 766.92 656.049 770.974 675.883 780.033 692.111 C 771.433 693.047 762.626 694.654 754.019 695.138 C 752.013 678.325 746.827 662.111 745.564 645.173 z"/>
<path transform="translate(0,0)" fill="rgb(253,254,254)" d="M 700.215 662.112 C 714.355 655.004 730.69 650.78 745.564 645.173 C 746.827 662.111 752.013 678.325 754.019 695.138 C 736.989 696.371 719.895 696.445 702.854 695.359 L 699.189 681.169 C 696.828 673.524 697.99 669.507 700.215 662.112 z"/>
<path transform="translate(0,0)" fill="rgb(7,38,78)" d="M 765.075 634.404 L 765.249 636.668 L 763.54 637.925 C 757.544 640.31 751.477 642.596 745.564 645.173 C 730.69 650.78 714.355 655.004 700.215 662.112 C 697.99 669.507 696.828 673.524 699.189 681.169 C 692.877 681.554 687.315 684.154 681.217 684.744 C 671.523 686.203 655.313 690.685 646.073 689.562 C 646.91 687.747 646.447 688.476 647.323 687.293 L 646.085 686.324 C 649.219 684.225 652.975 682.867 655.378 679.867 C 654.103 677.309 649.383 676.121 646.66 675.012 L 647.038 673.715 C 648.286 672.788 648.319 672.679 649.92 671.942 C 656.571 668.879 673.476 669.425 680.971 670.679 C 685.183 671.384 689.494 673.359 693.469 674.904 C 695.064 670.148 696.209 665.194 697.503 660.346 C 706.401 654.73 754.139 637.423 765.075 634.404 z"/>
<path transform="translate(0,0)" fill="rgb(252,242,233)" d="M 647.323 687.293 C 658.202 683.088 670.682 674.711 682.325 673.709 C 684.926 673.485 685.864 673.839 687.849 675.446 L 687.834 678.012 C 686.065 681.586 684.643 682.76 681.217 684.744 C 671.523 686.203 655.313 690.685 646.073 689.562 C 646.91 687.747 646.447 688.476 647.323 687.293 z"/>
<path transform="translate(0,0)" fill="rgb(253,254,254)" d="M 547.012 427.333 C 548.866 427.377 548.328 427.177 549.797 427.791 C 552.034 428.727 563.028 461.977 565.05 467.266 L 581.907 427.227 C 588.015 440.246 592.755 454.293 597.946 467.711 C 601.9 454.226 606.481 441.009 611.144 427.755 L 624.044 427.847 C 620.997 437.91 616.712 447.865 613.001 457.717 C 607.805 470.736 603.759 484.218 598.702 497.309 C 592.323 483.659 587.169 469.154 581.537 455.167 C 576.494 469.173 570.013 483.187 563.099 496.365 C 557.661 480.379 551.847 464.458 546.007 448.614 C 543.552 441.952 540.549 435.769 538.478 428.93 C 540.14 427.48 544.69 427.578 547.012 427.333 z"/>
<path transform="translate(0,0)" fill="rgb(253,254,254)" d="M 425.928 425.84 C 439.086 436.435 454.964 455.776 468.655 468.295 L 468.46 427.963 C 472.578 427.731 476.777 427.891 480.905 427.883 C 480.669 450.149 481.21 472.444 480.369 494.699 C 479.55 495.416 480.107 495.09 478.506 495.232 C 464.415 481.787 451.305 467.463 437.868 453.377 L 437.827 493.074 L 425.553 493.013 C 425.523 470.739 424.631 448.059 425.928 425.84 z"/>
<path transform="translate(0,0)" fill="rgb(253,254,254)" d="M 492.505 427.947 C 504.27 427.867 519.971 425.422 531.171 428.617 C 531.621 429.396 531.888 429.739 532.061 430.727 C 532.484 433.144 532.465 436.579 531.14 438.597 C 523.856 441.526 512.62 440.074 504.704 439.932 L 504.645 453.706 C 511.443 453.618 518.595 452.625 525.327 453.499 C 527.521 454.77 528.974 455.999 529.596 458.608 C 530.201 461.147 529.797 462.19 528.604 464.274 C 521.525 466.418 513.488 464.207 506.092 465.382 L 505.027 467.01 L 505.013 481.156 L 532.497 481.159 L 532.656 492.885 L 492.892 492.873 L 492.505 427.947 z"/>
<path transform="translate(0,0)" fill="rgb(253,254,254)" d="M 483.972 539.674 C 492.193 539.546 502.088 538.511 509.78 541.992 C 513.442 543.649 516.524 546.284 517.926 550.136 C 519.541 554.574 518.65 559.627 516.727 563.828 C 514.335 569.055 511.126 570.939 505.953 573.035 C 509.311 578.17 518.462 588.944 517.542 594.965 L 513.876 596.29 C 513.362 596.193 512.844 596.112 512.333 596 C 504.43 594.271 498.389 580.488 494.216 573.878 C 494.311 579.947 495.831 590.277 492.064 595.202 C 489.379 595.377 486.913 595.917 484.595 594.269 C 481.978 577.076 483.899 557.218 483.972 539.674 z"/>
<path transform="translate(0,0)" fill="rgb(237,118,108)" d="M 494.731 548.672 C 496.536 548.736 498.344 548.771 500.122 549.12 C 502.707 549.627 505.475 550.751 506.671 553.299 C 508.322 556.817 506.585 560.867 505.301 564.177 C 503.91 564.615 502.407 565.169 500.958 565.417 C 498.445 565.846 497.417 565.616 495.384 564.167 C 493.42 559.594 494.494 553.575 494.731 548.672 z"/>
<path transform="translate(0,0)" fill="rgb(253,254,254)" d="M 441.036 539.609 C 446.897 539.528 453.185 539.108 458.988 539.995 C 464.198 540.79 469.169 542.999 472.232 547.453 C 475.271 551.872 475.405 557.528 474.125 562.576 C 472.632 568.464 469.648 571.284 464.56 574.285 C 468.444 581.534 472.76 588.479 477.103 595.456 L 465.892 595.562 C 460.304 589.893 456.394 579.844 452.038 572.886 C 451.931 580.413 452.011 587.952 452.004 595.48 L 441.23 595.572 L 441.036 539.609 z"/>
<path transform="translate(0,0)" fill="rgb(237,118,108)" d="M 452.099 549.713 C 454.065 549.792 456.192 549.818 458.107 550.328 C 460.301 550.912 462.56 551.97 463.562 554.145 C 465.31 557.937 463.8 561.511 462.429 565.132 L 460.672 565.492 C 457.552 566.106 455.507 566.313 452.83 564.468 C 450.866 560.251 451.892 554.302 452.099 549.713 z"/>
<path transform="translate(0,0)" fill="rgb(253,254,254)" d="M 407.515 536.665 C 408.292 537.366 408.426 537.427 409.129 538.417 C 413.208 544.157 434.46 589.772 433.565 594.71 C 431.836 595.596 429.064 596.155 427.138 595.496 C 422.025 593.747 422.194 588.488 419.058 585.094 C 416.943 582.804 415.056 583.332 412.25 583.31 L 398.215 583.176 L 393.395 595.005 L 380.92 594.949 C 389.775 575.51 398.192 555.888 407.515 536.665 z"/>
<path transform="translate(0,0)" fill="rgb(237,118,108)" d="M 407.705 559.606 C 411.025 562.25 413.082 568.249 413.585 572.368 L 412.083 573.477 C 408.849 573.346 406.544 573.847 403.918 571.872 C 403.066 568.178 406.218 563.021 407.705 559.606 z"/>
<path transform="translate(0,0)" fill="rgb(253,254,254)" d="M 619.088 538.532 C 620.668 540.36 621.753 542.18 622.861 544.318 C 625.262 548.951 645.495 592.167 645.597 594.247 C 645.625 594.838 645.235 595.374 645.054 595.937 C 644.145 596.102 643.238 596.284 642.32 596.388 C 639.188 596.744 636.805 596.521 634.295 594.483 C 633.4 591.842 632.488 588.33 630.469 586.332 C 628.205 584.092 626.163 584.646 623.25 584.635 L 609.352 584.57 C 607.772 588.333 606.117 594.435 601.976 596.007 C 599.899 596.796 596.708 596.401 594.741 595.567 C 593.42 588.663 614.677 546.511 619.088 538.532 z"/>
<path transform="translate(0,0)" fill="rgb(237,118,108)" d="M 619.34 560.741 C 621.908 564.038 624.506 569.429 624.428 573.648 L 622.018 575.2 C 619.588 574.941 617.488 574.877 615.383 573.496 C 614.206 569.207 617.467 564.64 619.34 560.741 z"/>
<path transform="translate(0,0)" fill="rgb(253,254,254)" d="M 545.549 539.905 L 558.117 539.733 C 562.121 550.511 566.34 561.207 570.773 571.815 C 574.827 561.199 578.69 550.511 582.359 539.756 C 586.213 539.704 589.746 539.086 592.76 541.691 C 593.7 546.773 589.024 554.36 586.98 559.155 C 582.018 571.482 577.377 584.942 570.624 596.387 C 562.238 577.582 554.722 558.348 545.549 539.905 z"/>
<path transform="translate(0,0)" fill="rgb(253,254,254)" d="M 652.733 539.78 L 653.743 539.712 C 657.09 539.5 660.803 538.894 663.426 541.208 C 665.244 554.928 663.781 570.207 663.599 584.095 C 670.281 584.209 678.238 582.085 684.299 585.257 C 686.475 588.644 685.916 591.336 685.927 595.234 C 674.995 595.747 663.968 595.541 653.021 595.616 C 652.818 577.005 652.722 558.393 652.733 539.78 z"/>
<path transform="translate(0,0)" fill="rgb(253,254,254)" d="M 527.959 539.833 C 531.5 539.761 534.816 539.362 538.078 540.986 C 541.003 551.622 538.947 582.337 538.893 595.007 C 535.551 595.15 532.817 595.319 529.62 594.236 C 525.931 585.053 527.937 551.591 527.959 539.833 z"/>
<path transform="translate(0,0)" fill="rgb(237,118,108)" d="M 735.321 304.573 C 750.568 303.419 766.988 302.11 779.711 312.404 C 787.562 318.755 791.916 328.034 792.981 337.96 C 795.441 360.903 788.77 404.852 787.653 430.503 C 784.872 494.305 785.642 556.619 791.532 620.231 C 787.996 622.37 784.124 624.039 780.4 625.828 C 773.419 555.108 773.819 484.693 777.387 413.777 C 778.491 391.832 782.109 369.873 782.687 347.949 C 782.964 337.406 780.708 329.418 773.013 321.858 C 769.543 318.511 765.165 316.26 760.425 315.385 C 745.61 312.621 720.047 315.775 704.158 316.583 C 618.858 321.085 533.408 322.073 448.026 319.546 C 417.962 318.797 387.92 317.291 357.869 316.134 C 343.353 315.575 328.707 314.46 314.189 314.724 C 304.87 314.894 296.563 316.37 290.016 323.515 C 283.808 330.29 281.86 337.078 282.171 346.089 C 282.797 364.298 285.945 382.658 287.331 400.864 C 290.577 443.53 292.548 485.823 292.012 528.62 C 291.624 561.622 290.064 594.6 287.335 627.491 C 285.902 645.359 282.481 663.89 283.099 681.799 C 283.338 688.704 284.306 699.942 289.786 704.642 C 294.968 709.087 302.745 710.944 309.371 711.693 C 328.273 713.829 348.909 711.458 367.841 710.455 C 395.499 709.033 423.169 707.841 450.847 706.877 C 472.993 705.086 495.756 705.194 517.973 705.087 C 567.784 704.98 617.588 706.291 667.324 709.02 C 693.728 710.276 721.37 714.347 747.739 713.038 C 761.797 712.34 769.472 696.958 776.412 696.506 C 779.118 696.33 779.539 696.506 781.306 698.309 C 781.487 701.569 779.67 704.416 777.781 706.949 C 770.873 716.208 759.954 722.249 748.504 723.568 C 726.498 726.104 697.976 721.663 675.373 720.497 C 634.379 718.707 593.36 717.563 552.33 717.065 C 509.051 717.201 465.78 718.204 422.541 720.074 C 387.701 721.891 352.389 725.259 317.501 724.146 C 305.72 723.77 293.831 722.496 284.558 714.426 C 275.878 706.872 272.925 696.831 272.363 685.718 C 271.46 667.864 274.723 649.33 276.146 631.494 C 278.217 604.2 279.684 576.864 280.548 549.506 C 281.79 501.269 280.555 453 276.85 404.889 C 275.416 386.335 272.386 367.899 271.088 349.359 C 270.232 337.136 271.636 326.11 280.242 316.652 C 287.01 309.213 295.268 305.704 305.167 304.856 C 323.094 303.322 342.297 304.968 360.275 305.621 C 393.042 306.811 425.762 308.336 458.55 308.939 C 550.83 310.652 643.141 309.196 735.321 304.573 z"/>
<path transform="translate(0,0)" fill="rgb(253,254,254)" d="M 938.734 602.305 C 937.464 597.36 933.056 577.66 934.251 574.18 C 960.419 591.303 987.47 609.505 1010.07 631.241 C 1011.94 637.916 1013.17 644.746 1015.1 651.403 L 1015.4 654.13 C 1017.96 662.978 1020.49 671.806 1023.52 680.505 L 1026.68 688.86 C 1009.76 698.226 963.304 728.681 947.849 732.761 C 934.134 740.521 903.541 759.06 887.968 755.081 C 880.889 753.272 876.342 744.788 872.384 739.239 C 868.684 732.839 865.429 726.451 862.438 719.69 L 855.904 704.66 C 853.967 698.368 852.095 692.056 850.288 685.725 L 847.462 676.815 C 879.968 662.045 900.92 650.246 925.149 623.807 C 928.762 618.903 932.442 614.025 935.926 609.03 C 937.418 606.891 939.241 604.926 938.734 602.305 z"/>
<path transform="translate(0,0)" fill="rgb(253,254,254)" d="M 872.384 739.239 C 897.301 724.078 922.819 709.956 947.695 694.721 C 962.206 685.834 1002.64 658.257 1015.4 654.13 C 1017.96 662.978 1020.49 671.806 1023.52 680.505 L 1026.68 688.86 C 1009.76 698.226 963.304 728.681 947.849 732.761 C 934.134 740.521 903.541 759.06 887.968 755.081 C 880.889 753.272 876.342 744.788 872.384 739.239 z"/>
<path transform="translate(0,0)" fill="rgb(237,118,108)" d="M 1023.52 680.505 L 1026.68 688.86 C 1009.76 698.226 963.304 728.681 947.849 732.761 C 952.593 727.323 960.092 723.212 966.06 719.121 C 984.89 706.213 1005.67 694.542 1023.52 680.505 z"/>
<path transform="translate(0,0)" fill="rgb(237,118,108)" d="M 1010.07 631.241 C 1011.94 637.916 1013.17 644.746 1015.1 651.403 L 1015.4 654.13 C 1002.64 658.257 962.206 685.834 947.695 694.721 C 922.819 709.956 897.301 724.078 872.384 739.239 C 868.684 732.839 865.429 726.451 862.438 719.69 C 897.651 702.566 931.089 681.177 964.42 660.687 C 979.412 651.47 996.724 642.672 1010.07 631.241 z"/>
<path transform="translate(0,0)" fill="rgb(237,118,108)" d="M 954.701 606.975 C 958.827 610.281 965.393 616.984 970.602 617.605 C 969.733 614.452 965.28 613.585 964.333 610.266 C 968.581 611.252 971.361 614.458 974.294 617.489 C 940.223 639.735 904.308 661.414 867.595 678.99 C 861.954 681.691 855.828 683.145 850.288 685.725 L 847.462 676.815 C 879.968 662.045 900.92 650.246 925.149 623.807 C 933.414 622.786 946.373 610.991 954.701 606.975 z"/>
<path transform="translate(0,0)" fill="rgb(237,118,108)" d="M 1018.52 649.884 C 1015.37 639.459 1011.21 626.029 1015.07 615.434 C 1017.13 609.768 1021.34 605.522 1026.91 603.267 C 1039.08 598.349 1070.55 600.204 1082.45 605.45 C 1097.3 611.998 1102.57 627.665 1107.69 641.727 C 1102 634.248 1097.98 627.584 1087.89 626.387 C 1083.84 625.906 1079.67 626.418 1076.34 628.952 C 1072.34 631.994 1069.89 638.066 1069.62 642.976 C 1069.33 648.344 1071.67 653.26 1075.47 656.958 C 1081.3 662.639 1090.48 665.847 1098.58 665.296 C 1103 664.996 1107.59 663.503 1110.4 659.918 C 1111.81 658.124 1112.49 655.361 1112.9 653.186 C 1117.63 668.862 1132.9 707.876 1125.02 722.842 C 1118.2 735.797 1095.64 745.319 1082.04 749.023 C 1072.98 751.489 1064.01 751.383 1054.75 750.44 C 1048.69 749.184 1042.79 747.729 1037.01 745.476 C 1017.43 737.847 1009.88 725.368 1001.78 706.955 C 1010.37 702.129 1018.97 697.384 1027.13 691.838 C 1035.99 712.557 1042.3 732.01 1058.58 748.423 C 1054.88 737.945 1047.26 728.106 1042.32 718 C 1031.95 696.76 1024.17 672.805 1018.52 649.884 z"/>
<path transform="translate(0,0)" fill="rgb(253,254,254)" d="M 859.402 566.515 C 865.638 560.537 879.074 544.583 887.331 543.844 C 902.144 547.878 922.296 564.109 934.251 574.18 C 933.056 577.66 937.464 597.36 938.734 602.305 C 936.812 603.812 935.087 605.224 933.414 607.017 C 923.708 618.172 914.211 629.796 902.742 639.213 C 896.193 644.956 889.147 650.106 881.686 654.603 C 869.999 663.325 857.571 669.066 843.819 673.802 C 837.507 676.335 830.999 679.496 824.523 681.484 C 812.024 663.12 805.591 640.909 795.905 621.097 C 801.879 617.436 807.48 613.757 812.867 609.268 C 820.815 599.817 832.666 591.306 841.85 582.765 C 847.475 577.165 853.569 571.908 859.402 566.515 z"/>
<path transform="translate(0,0)" fill="rgb(253,254,254)" d="M 841.85 582.765 C 850.711 595.452 877.798 641.285 881.686 654.603 C 869.999 663.325 857.571 669.066 843.819 673.802 C 837.507 676.335 830.999 679.496 824.523 681.484 C 812.024 663.12 805.591 640.909 795.905 621.097 C 801.879 617.436 807.48 613.757 812.867 609.268 C 820.815 599.817 832.666 591.306 841.85 582.765 z"/>
<path transform="translate(0,0)" fill="rgb(237,118,108)" d="M 795.905 621.097 C 801.879 617.436 807.48 613.757 812.867 609.268 C 818.974 621.9 837.274 665.344 843.819 673.802 C 837.507 676.335 830.999 679.496 824.523 681.484 C 812.024 663.12 805.591 640.909 795.905 621.097 z"/>
<path transform="translate(0,0)" fill="rgb(237,118,108)" d="M 859.402 566.515 C 869.951 590.33 888.666 616.835 902.742 639.213 C 896.193 644.956 889.147 650.106 881.686 654.603 C 877.798 641.285 850.711 595.452 841.85 582.765 C 847.475 577.165 853.569 571.908 859.402 566.515 z"/>
<path transform="translate(0,0)" fill="rgb(237,118,108)" d="M 887.331 543.844 C 902.144 547.878 922.296 564.109 934.251 574.18 C 933.056 577.66 937.464 597.36 938.734 602.305 C 936.812 603.812 935.087 605.224 933.414 607.017 C 918.35 585.949 901.158 565.68 887.331 543.844 z"/>
<path transform="translate(0,0)" fill="rgb(237,118,108)" d="M 692.059 1070.25 C 705.368 1069.25 725.011 1073.04 737.917 1076.67 C 737.458 1079.93 736.676 1083.67 736.847 1086.93 C 736.977 1089.43 737.766 1090.36 739.613 1091.86 C 741.303 1088.08 740.128 1082.5 740.279 1078.23 C 743.856 1074.09 749.199 1072.34 754.491 1071.43 C 757.303 1070.95 759.965 1070.92 762.272 1072.87 C 767.843 1077.58 766.354 1086.91 767.455 1093.48 C 768.093 1097.28 769.675 1100.81 772.991 1102.99 C 780.14 1107.68 788.933 1104.81 796.59 1103.29 C 796.408 1115.82 793.825 1127.12 790.131 1139.04 C 787.641 1144.73 785.405 1150.63 780.26 1154.43 C 773.509 1156.29 765.886 1153.28 759.582 1150.77 C 740.478 1143.16 685.599 1106.79 677.936 1087.49 C 676.608 1084.14 676.234 1080.21 678.088 1076.96 C 680.861 1072.1 687.127 1071.26 692.059 1070.25 z"/>
<path transform="translate(0,0)" fill="rgb(237,118,108)" d="M 1048.13 1089.89 C 1055.5 1096.24 1065.95 1104.51 1075.69 1106.19 C 1085.04 1107.8 1091.16 1103.21 1098.49 1098.32 C 1104.91 1108.56 1114.6 1124.71 1115.54 1136.77 C 1115.83 1140.51 1115.1 1144.14 1112.36 1146.88 C 1103.7 1155.57 1058.76 1152.11 1044.75 1152.06 C 1032.19 1152.15 999.939 1155.57 990.784 1145.61 C 989.029 1143.7 988.204 1141.75 988.515 1139.12 C 990.125 1125.5 1016.11 1111.89 1026.53 1105.06 C 1029.19 1107.18 1031.29 1109.81 1034.46 1111.11 L 1035.57 1109.68 C 1035.52 1106.03 1034.22 1105.64 1031.74 1103.11 L 1032.11 1101.54 C 1034.7 1100.16 1036.98 1098.15 1039.92 1098.61 L 1040.29 1103.05 L 1042.17 1103.71 C 1043.94 1101.43 1042.65 1098.62 1043.02 1095.85 C 1043.4 1092.97 1046.06 1091.62 1048.13 1089.89 z"/>
<path transform="translate(0,0)" fill="rgb(252,242,233)" d="M 841.689 448.578 C 851.86 457.118 857.801 465.891 872.402 467.154 L 882.462 468.103 C 883.48 470.974 882.102 472.738 881.073 475.514 C 882.093 482.783 885.288 487.301 889.565 493.006 C 881.92 505.336 874.181 511.864 860.823 517.592 C 858.57 518.054 856.294 518.393 854.004 518.608 C 851.01 518.886 844.287 519.036 842.001 517.14 C 844.22 516.542 847.017 516.352 848.532 514.61 C 844.891 513.249 841.015 511.977 837.584 510.144 C 834.811 508.663 832.237 506.591 831.658 503.313 C 830.718 497.995 834.442 493.006 836.99 488.652 L 836.737 478.496 L 836.13 478.098 L 832.75 484.679 C 830.679 473.713 836.452 458.145 841.689 448.578 z"/>
<path transform="translate(0,0)" fill="rgb(253,254,254)" d="M 784.277 1036.41 C 797.453 1041.19 810.725 1045.7 824.087 1049.93 L 797.794 1094.45 C 796.463 1097.24 796.121 1099.23 793.125 1100.61 C 789.246 1102.41 781.078 1103.7 777.178 1101.96 C 769.19 1098.39 768.919 1080.19 765.43 1072.24 C 765.264 1071.86 765.09 1071.48 764.919 1071.1 C 771.544 1059.65 777.84 1047.98 784.277 1036.41 z"/>
<path transform="translate(0,0)" fill="rgb(253,254,254)" d="M 1080.15 1042.9 L 1081.92 1043.04 C 1086.08 1050.52 1092.18 1087 1093.82 1097.45 C 1091.17 1100.23 1087.72 1102.95 1083.97 1103.99 C 1076.94 1105.94 1070.06 1101.23 1064.14 1098.04 C 1058.92 1094.76 1054.35 1091.5 1049.84 1087.27 L 1041.87 1058.43 C 1054.7 1053.41 1067.55 1048.46 1080.15 1042.9 z"/>
<path transform="translate(0,0)" fill="rgb(247,206,190)" d="M 897.673 535.79 L 907.319 529.052 C 927.314 537.164 942.274 540.301 963.776 537.093 C 967.732 540.633 971.635 544.295 974.565 548.749 C 981.055 560.034 982.428 574.796 984.841 587.444 C 973.04 579.141 961.221 570.961 949.058 563.194 C 932.003 553.5 917.012 540.666 897.673 535.79 z"/>
<path transform="translate(0,0)" fill="rgb(253,254,254)" d="M 974.565 548.749 C 981.055 560.034 982.428 574.796 984.841 587.444 C 973.04 579.141 961.221 570.961 949.058 563.194 C 952.981 560.571 956.588 561.547 961.052 560.732 C 967.879 559.486 970.966 554.035 974.565 548.749 z"/>
<path transform="translate(0,0)" fill="rgb(252,242,233)" d="M 978.094 549.434 C 986.884 552.985 1032.62 590.127 1036.19 597.415 L 1033.76 598.104 C 1024.61 599.413 1015.96 601.516 1007.04 603.877 C 1000.43 599.884 994.454 595.027 988.386 590.27 C 984.237 576.769 983.24 562.782 978.094 549.434 z"/>
<path transform="translate(0,0)" fill="rgb(252,242,233)" d="M 679.813 686.271 L 681.068 686.271 L 681.143 686.928 C 666.92 696.362 655.828 696.892 639.127 696.864 L 637.766 695.905 L 638.74 694.009 C 649.265 688.285 667.814 688.243 679.813 686.271 z"/>
<path transform="translate(0,0)" fill="rgb(253,254,254)" d="M 888.121 518.679 C 891.022 520.14 900.703 527.076 902.158 529.677 L 899.847 530.709 C 897.999 532.115 896.098 533.855 893.839 534.513 C 892.453 534.916 891.441 534.013 890.207 533.439 C 887.148 529.501 887.565 523.407 888.121 518.679 z"/>
<path transform="translate(0,0)" fill="rgb(252,242,233)" d="M 883.821 526.003 C 884.793 527.805 885.356 530.508 885.561 532.54 C 885.907 535.983 885.287 537.006 882.986 539.436 C 881.195 536.959 879.669 535.074 879.176 531.962 C 880.274 528.831 881.383 528.164 883.821 526.003 z"/>
<path transform="translate(0,0)" fill="rgb(237,118,108)" d="M 523.112 1036.23 C 553.369 1030.4 582.591 1050.32 588.219 1080.61 C 593.848 1110.91 573.73 1139.99 543.396 1145.41 C 513.354 1150.78 484.61 1130.9 479.035 1100.9 C 473.461 1070.89 493.146 1042.01 523.112 1036.23 z"/>
<path transform="translate(0,0)" fill="rgb(237,118,108)" d="M 307.079 883.513 C 315.304 893.04 324.22 913.972 330.267 925.813 C 345.914 926.935 361.161 929.486 376.497 932.753 C 364.702 943.137 354.028 955.283 342.93 966.445 C 346.53 982.056 347.863 998.966 350.233 1014.87 C 336.579 1007.04 322.653 999.701 308.479 992.856 C 299.532 994.976 275.892 1009.01 265.906 1014.01 C 268.34 997.982 270.543 981.872 273.46 965.923 C 262.281 954.828 251.158 943.675 240.093 932.466 C 255.617 930.017 270.96 926.568 286.569 924.623 C 293.333 910.884 300.17 897.18 307.079 883.513 z"/>
<path transform="translate(0,0)" fill="rgb(237,118,108)" d="M 1099.43 208.444 C 1106.91 212.192 1111.74 225.628 1115.28 233.036 C 1122.66 234.274 1134.08 234.898 1140.48 238.441 C 1142.47 239.545 1142.46 239.984 1142.97 242.057 C 1140.03 249.455 1130.84 256.871 1125.18 262.627 C 1127.67 273.523 1128.94 284.165 1129.17 295.341 L 1101.64 282.873 C 1094.91 283.008 1086.99 288.352 1081.13 291.527 C 1078.66 292.864 1077.32 294.176 1074.59 293.331 C 1071.29 286.054 1074.8 270.945 1075.59 262.905 C 1070.78 257.821 1058.64 248.011 1058.19 241.168 C 1062.34 235.749 1077.8 234.812 1084.41 233.662 C 1089.87 225.496 1093.45 216.325 1099.43 208.444 z"/>
<path transform="translate(0,0)" fill="rgb(237,118,108)" d="M 550.991 856.686 C 557.093 854.75 563.754 855.872 568.885 859.702 C 574.015 863.531 576.986 869.599 576.864 875.999 C 576.698 884.743 570.835 892.349 562.422 894.736 C 556.663 896.369 550.475 895.319 545.578 891.877 C 540.68 888.436 537.596 882.97 537.181 876.998 C 536.546 867.852 542.252 859.46 550.991 856.686 z"/>
<path transform="translate(0,0)" fill="rgb(237,118,108)" d="M 1118.58 454.61 C 1128.23 452.194 1138.01 458.037 1140.46 467.677 C 1142.9 477.316 1137.09 487.118 1127.46 489.595 C 1117.79 492.083 1107.93 486.239 1105.47 476.557 C 1103.02 466.875 1108.89 457.038 1118.58 454.61 z"/>
<path transform="translate(0,0)" fill="rgb(237,118,108)" d="M 937.195 310.565 C 944.883 308.226 953.009 312.574 955.33 320.268 C 957.651 327.961 953.285 336.077 945.586 338.381 C 937.912 340.677 929.828 336.328 927.514 328.659 C 925.201 320.99 929.531 312.896 937.195 310.565 z"/>
<path transform="translate(0,0)" fill="rgb(237,118,108)" d="M 208.67 1114.6 C 214.756 1118.71 220.744 1126.19 226.039 1131.5 C 220.798 1137.37 215.147 1142.95 209.686 1148.62 C 204.749 1147.29 196.226 1135.76 192.342 1131.64 C 198.236 1126.34 203.416 1120.52 208.67 1114.6 z"/>
<path transform="translate(0,0)" fill="rgb(7,38,78)" d="M 1270.28 110.129 L 1937.53 109.933 C 1936.66 160.38 1937.8 210.994 1937.83 261.462 L 1937.69 562.884 L 1937.14 1534.89 L 1937.45 1845.42 L 1937.24 1905.39 C 1937.24 1914.62 1938.72 1926.47 1936.67 1935.32 L 1935.1 1936.01 L 1270.34 1936.47 C 1269.26 1911 1270 1885.17 1270 1859.67 L 1269.99 1717.73 L 1270.17 1281.18 L 1270.28 110.129 z"/>
<path transform="translate(0,0)" fill="rgb(252,242,233)" d="M 1732.36 115.879 C 1798.88 114.74 1865.47 115.972 1932 115.81 L 1931.15 1930.86 L 1835.61 1931 C 1821.27 1931.02 1804.54 1932.67 1790.46 1930.35 C 1789.85 1927.91 1791.02 1927.54 1791.01 1925.4 C 1790.97 1918.05 1781.58 1910.12 1775.93 1906.8 C 1765.09 1900.43 1752.08 1896.3 1740.57 1890.92 C 1737.83 1893.78 1737.97 1897.39 1734.92 1899.94 L 1733.87 1899.46 C 1733.86 1896.63 1733.87 1893.8 1733.91 1890.98 L 1733.05 1890.2 L 1728.99 1892.83 L 1727.64 1892.18 C 1727.68 1891.61 1727.73 1891.03 1727.76 1890.45 C 1727.87 1888.08 1727.96 1889.02 1727.37 1886.89 L 1724.56 1886.07 C 1723.79 1883.3 1725.74 1878.87 1726.55 1876.02 L 1737.66 1865.62 L 1736.73 1866.84 C 1732.79 1872 1729.97 1877.46 1727.11 1883.27 L 1727.37 1884.23 C 1731.7 1880.22 1738.26 1871.79 1738.6 1865.76 C 1738.68 1864.31 1737.33 1861.37 1736.38 1860.29 C 1735.31 1859.07 1734.51 1858.6 1732.93 1858.79 C 1730.76 1859.04 1729.08 1859.82 1727.08 1860.65 C 1725.51 1860.18 1725.01 1860.42 1724.15 1858.86 C 1721.38 1853.87 1722.03 1846.01 1721.85 1840.39 C 1730.28 1839.55 1738.69 1838.65 1747.1 1837.69 C 1747.03 1807.69 1749.2 1777.35 1750.57 1747.36 C 1753 1694.27 1755.27 1640.75 1755.03 1587.59 C 1767.94 1584.58 1780.43 1580.59 1792.86 1575.98 C 1793.3 1562.47 1793.68 1549.12 1792.31 1535.64 C 1787.36 1486.92 1766.64 1429.96 1745.17 1386.22 C 1799.45 1356.66 1834.99 1324.08 1852.92 1263.11 C 1855.95 1252.78 1857.94 1242.29 1860.54 1231.87 C 1863.42 1220.36 1867.05 1210.67 1867.57 1198.58 C 1876.49 1186.36 1883.99 1173.64 1891.68 1160.62 C 1888.65 1154.2 1887.63 1149.33 1887.31 1142.31 C 1883.64 1142.41 1880.47 1143.07 1877.19 1141.3 C 1877.11 1140.95 1877.03 1140.59 1876.94 1140.24 C 1876.24 1137.47 1875.63 1134.83 1873.08 1133.14 C 1872.57 1132.8 1871.98 1132.6 1871.43 1132.33 C 1869.76 1134.1 1868.27 1139.18 1866.41 1139.52 C 1866.32 1134.4 1868.37 1129.68 1864.4 1125.6 C 1863.07 1124.24 1862.85 1124.4 1861.16 1124.01 C 1857.97 1125.46 1856.82 1127.92 1855.66 1131.09 C 1851.94 1141.31 1851.23 1153.15 1849.17 1163.81 C 1846.62 1161 1844.66 1158.59 1841.1 1157.13 C 1839.81 1157.29 1838.91 1157 1838.1 1158.18 C 1834.36 1163.66 1838 1179.17 1839.11 1185.55 C 1835.08 1194.7 1828.71 1201.19 1823.54 1209.52 C 1803.11 1242.46 1781.41 1278.25 1743.38 1292.92 C 1728.44 1298.68 1712.2 1299.34 1696.62 1302.41 C 1693.81 1296.4 1686.67 1284.09 1687.78 1277.68 C 1690.41 1273.74 1694.91 1272.21 1698.63 1269.48 C 1710.45 1260.78 1716.07 1244.5 1713.3 1230.28 C 1711.24 1219.73 1704.53 1215.41 1699.5 1206.73 C 1692.7 1194.99 1697.43 1189.73 1683.22 1180.31 C 1672.74 1173.36 1659.61 1171.9 1647.5 1174.55 C 1635.13 1177.26 1622.98 1184.85 1616.05 1195.61 C 1608.78 1206.91 1609.57 1219.64 1612.53 1232.19 C 1601.61 1241.48 1596.07 1248.63 1591.49 1262.45 C 1578.62 1262.8 1567 1264.43 1557.47 1274.11 C 1550.53 1281.16 1546.7 1291.21 1546.94 1301.08 C 1547.19 1311.11 1552.04 1320.43 1559.26 1327.24 C 1567.78 1335.31 1579.2 1339.58 1590.92 1339.07 C 1600.91 1338.71 1609.84 1335.17 1618.41 1330.22 C 1609.8 1347.99 1599.49 1364.87 1591.04 1382.69 C 1569.53 1428.07 1548.45 1483.64 1533.39 1531.64 C 1527.24 1548.66 1521.54 1566.19 1517.6 1583.88 C 1533.92 1596.71 1552.89 1606.89 1573.45 1610.77 C 1554.84 1639.02 1536.97 1667.71 1518.03 1695.77 C 1504.28 1716.13 1489.14 1736.02 1476.03 1756.74 C 1480.27 1760.27 1484.35 1763.75 1488.16 1767.76 C 1486.02 1770.64 1483.85 1773.37 1481.14 1775.74 C 1469.91 1785.62 1457.39 1794.34 1446.96 1805.09 C 1439.73 1812.53 1435.2 1821.86 1427.16 1828.56 C 1425.94 1829.58 1424.76 1830.64 1423.55 1831.66 C 1441.51 1851.55 1459.32 1871.57 1476.97 1891.72 C 1484.3 1900.17 1494.42 1914.46 1502.47 1921.42 C 1504.26 1922.96 1506.82 1924.14 1509.2 1924.33 C 1512.42 1924.59 1515.59 1923.29 1517.95 1921.15 C 1520.42 1918.91 1522.41 1915.08 1522.25 1911.7 C 1522.17 1910 1508.08 1874.48 1507.52 1874.1 C 1505.77 1872.92 1503.44 1872.78 1501.4 1872.45 L 1500.22 1871.08 C 1501.4 1869.08 1501.91 1868.87 1503.75 1867.58 C 1505.99 1866.01 1506.99 1865.18 1508 1862.65 L 1507.86 1860.1 L 1506.49 1859.57 C 1504.36 1861.09 1502.24 1862.61 1500.04 1864.03 L 1498.5 1863.32 C 1499.35 1858.63 1501.4 1856.31 1505.31 1853.62 C 1508.39 1851.49 1511.73 1849.66 1514.97 1847.78 C 1510.57 1849.43 1505.86 1851.84 1501.1 1851.55 C 1501.76 1848.67 1514.15 1841.92 1517.14 1840.03 L 1520.31 1841.66 C 1520.08 1843.53 1519.77 1845.23 1519.24 1847.04 L 1519.22 1846.92 C 1522.74 1846.61 1525.1 1845.02 1527.46 1842.27 C 1529.48 1839.91 1530.27 1837.26 1529.9 1834.19 C 1529.48 1830.69 1526.22 1826.29 1523.31 1824.41 C 1521.16 1823.03 1518.4 1822.2 1515.98 1821.45 C 1522.24 1815.22 1528.42 1808.99 1534.29 1802.39 C 1542.31 1807.96 1550.61 1813.34 1558.37 1819.27 C 1586.57 1791.97 1607.17 1757.46 1630.49 1726.1 C 1632.72 1763.82 1633.46 1802.49 1638.18 1839.96 L 1660.07 1842.4 C 1660.51 1846.62 1660.81 1850.93 1661.71 1855.08 C 1662.03 1860.13 1664.73 1867.67 1663.2 1872.27 C 1662.04 1873.19 1660.88 1874.11 1659.78 1875.12 C 1657.92 1876.82 1657.29 1877.99 1657.05 1880.53 C 1656.17 1889.79 1658.01 1900.15 1658.25 1909.53 C 1658.44 1916.8 1657.29 1923.85 1656.94 1931.1 C 1529.9 1929.66 1402.7 1930.96 1275.65 1930.96 C 1274.86 1878.76 1275.81 1826.47 1275.82 1774.25 L 1275.95 1440.43 L 1276.01 492.458 C 1275.94 479.798 1276 467.138 1276.17 454.479 C 1275.36 412.837 1276.04 371.063 1276.09 329.411 L 1276 115.987 C 1332.55 115.347 1389.19 115.873 1445.75 115.889 C 1500.09 115.72 1554.43 115.84 1608.76 116.25 C 1649.8 116.329 1691.37 117.438 1732.36 115.879 z"/>
<path transform="translate(0,0)" fill="rgb(247,206,190)" d="M 1730.35 290.044 C 1747.87 307.824 1764.62 325.542 1780.54 344.766 C 1760.83 361.345 1742.99 380.495 1724.81 398.72 C 1700.97 423.04 1676.46 446.696 1651.3 469.66 C 1632.85 486.632 1612.74 504.973 1590.88 517.392 C 1572.03 528.102 1550.47 535.534 1528.53 533.599 C 1461.78 527.709 1439.68 438.204 1390.5 434.376 C 1374.48 433.129 1359.49 439.746 1345.33 446.35 C 1323.26 456.779 1302.55 469.855 1283.64 485.29 C 1280.95 487.514 1278.4 489.908 1276.01 492.458 C 1275.94 479.798 1276 467.138 1276.17 454.479 C 1277.58 464.844 1276.84 475.79 1276.7 486.239 C 1303.09 455.35 1358.26 412.152 1399.61 408.67 C 1441.08 405.178 1463.59 440.754 1491.65 464.446 C 1502.66 473.745 1515.59 482.261 1530.7 480.68 C 1573.97 476.151 1661.78 365.373 1691.23 331.855 C 1703.79 317.561 1718.53 304.825 1730.35 290.044 z"/>
<path transform="translate(0,0)" fill="rgb(7,38,78)" d="M 1664.79 233.619 C 1691.72 229.87 1718.65 223.217 1745.36 218.038 C 1794.13 208.583 1843.21 199.499 1891.7 188.723 C 1886.82 216.05 1879.61 243.233 1873.34 270.279 C 1861.79 318.739 1851.1 367.4 1841.28 416.239 C 1821.14 392.284 1799.88 369.401 1780.54 344.766 C 1764.62 325.542 1747.87 307.824 1730.35 290.044 C 1710.44 270.053 1689.07 248.221 1664.79 233.619 z"/>
<path transform="translate(0,0)" fill="rgb(237,118,108)" d="M 1608.76 116.25 C 1649.8 116.329 1691.37 117.438 1732.36 115.879 C 1728.86 126.982 1724.91 137.699 1717.64 146.95 C 1707.61 159.814 1692.82 168.087 1676.62 169.895 C 1660.39 171.663 1644.13 166.845 1631.49 156.52 C 1619.41 146.708 1610.35 131.86 1608.76 116.25 z"/>
<path transform="translate(0,0)" fill="rgb(237,118,108)" d="M 1379.44 155.543 C 1409.65 150.771 1438.05 171.261 1443.05 201.432 C 1448.04 231.603 1427.76 260.155 1397.63 265.377 C 1367.18 270.654 1338.26 250.113 1333.21 219.623 C 1328.16 189.132 1348.91 160.365 1379.44 155.543 z"/>
<path transform="translate(0,0)" fill="rgb(237,118,108)" d="M 1763.59 585.139 C 1765.41 585.002 1767.22 584.873 1769.04 584.88 C 1778.8 584.913 1784.7 591.153 1791.08 597.58 C 1791.81 596.81 1792.54 596.05 1793.28 595.298 C 1799.37 589.164 1806.92 584.774 1815.81 584.955 C 1822.92 585.1 1829.46 588.329 1834.27 593.504 C 1840.2 600.021 1843.25 608.667 1842.7 617.467 C 1841.6 635.189 1827.51 649.709 1815.07 660.894 C 1807.5 667.166 1799.62 673.159 1791.91 679.271 C 1775.77 667.161 1747.74 647.409 1740.64 628.162 C 1737.33 619.393 1737.88 609.633 1742.17 601.299 C 1746.75 592.367 1754.35 588.06 1763.59 585.139 z"/>
<path transform="translate(0,0)" fill="rgb(237,118,108)" d="M 1360.03 1004.39 C 1359.55 1007.23 1358.55 1008.59 1356.48 1010.48 C 1350.51 1015.93 1342.13 1017.22 1334.33 1016.53 C 1324.65 1015.73 1315.72 1011.01 1309.62 1003.45 C 1304.99 997.613 1302.77 990.425 1303.65 982.999 C 1304.84 972.987 1311.29 963.253 1319.39 957.424 C 1326.66 952.109 1335.79 950.032 1344.64 951.684 C 1353.26 953.281 1360.84 958.339 1365.63 965.68 C 1369.68 971.904 1372.03 980.746 1370.07 988.067 C 1368.76 992.969 1365.32 997.622 1360.76 999.954 C 1360.26 1000.21 1359.74 1000.44 1359.24 1000.69 L 1358.45 1001.83 L 1361.02 1002.72 C 1360.49 1004.22 1360.94 1003.75 1360.03 1004.39 z"/>
<path transform="translate(0,0)" fill="rgb(253,254,254)" d="M 1360.03 1004.39 C 1355.69 1005.73 1351.54 1007.8 1347.2 1009.2 C 1339.57 1011.68 1331.5 1012.12 1324.28 1008.23 C 1317.84 1004.77 1312.69 999.088 1310.69 991.999 C 1308.63 984.731 1310.34 977.209 1314.11 970.803 C 1317.99 964.075 1324.5 959.268 1332.07 957.541 C 1339.56 955.868 1347.41 957.227 1353.9 961.322 C 1359.22 964.728 1363.27 969.884 1364.58 976.14 C 1366.22 983.991 1363.91 990.167 1359.41 996.46 L 1358.32 997.965 C 1355.49 997.172 1354.85 997.452 1353.32 994.997 C 1352.65 985.946 1359.77 976.87 1355.33 968.804 C 1353.74 968.142 1353.52 967.618 1351.79 968.298 C 1349.63 969.147 1348.19 970.456 1346.47 971.949 C 1343.97 971.334 1341.72 970.659 1339.31 969.752 C 1336.31 968.619 1334.32 968.347 1331.24 969.613 C 1326.17 971.702 1321.34 978.42 1319.94 983.585 C 1318.89 987.484 1318.72 993.321 1321.1 996.828 C 1323.07 999.752 1326.87 1000.86 1330.23 1000.98 C 1338.52 1001.28 1343.69 998.601 1351.31 1003 C 1353.94 1002.88 1355.92 1002.68 1358.45 1001.83 L 1361.02 1002.72 C 1360.49 1004.22 1360.94 1003.75 1360.03 1004.39 z"/>
<path transform="translate(0,0)" fill="rgb(253,254,254)" d="M 1334.8 974.968 C 1336.71 974.807 1338.71 974.556 1340.62 974.642 C 1343.53 974.772 1344.39 975.714 1346.31 977.756 C 1346.82 979.212 1347.31 980.574 1347.16 982.149 C 1346.66 987.319 1343.41 991.683 1339.52 994.836 C 1338.14 994.951 1336.76 995.067 1335.38 995.078 C 1332.72 995.1 1331.09 994.431 1329.33 992.415 C 1328.03 990.919 1327.52 988.552 1327.71 986.582 C 1328.18 981.532 1331.16 978.169 1334.8 974.968 z"/>
<path transform="translate(0,0)" fill="rgb(7,38,78)" d="M 1442.88 843.788 C 1451.19 842.062 1459.78 844.956 1465.35 851.357 C 1470.92 857.757 1472.6 866.666 1469.74 874.656 C 1466.88 882.645 1459.94 888.47 1451.57 889.887 C 1438.96 892.024 1426.97 883.67 1424.6 871.104 C 1422.23 858.538 1430.36 846.389 1442.88 843.788 z"/>
<path transform="translate(0,0)" fill="rgb(252,242,233)" d="M 1444.91 853.727 C 1452.15 852.172 1459.3 856.663 1461.04 863.853 C 1462.79 871.042 1458.49 878.313 1451.35 880.245 C 1446.56 881.54 1441.44 880.135 1437.99 876.574 C 1434.53 873.014 1433.28 867.859 1434.72 863.111 C 1436.16 858.363 1440.06 854.77 1444.91 853.727 z"/>
<path transform="translate(0,0)" fill="rgb(7,38,78)" d="M 1724.26 827.131 C 1727.21 826.961 1730.97 826.378 1733.76 827.284 C 1740.26 829.388 1734.06 864.667 1738.28 872.775 C 1739.82 875.738 1742.42 877.789 1745.63 878.683 C 1750.12 879.933 1756.1 879.804 1760.12 877.177 C 1771.69 869.613 1762.88 843.343 1766.53 831.531 C 1767.4 828.734 1768.32 828.019 1770.78 826.58 C 1773.39 826.592 1774.65 826.623 1776.85 828.085 C 1778.78 831.036 1777.98 835.805 1777.89 839.233 C 1777.83 846.388 1778.24 853.551 1778.38 860.705 C 1778.53 868.485 1778.37 876.939 1772.42 882.746 C 1766.75 888.282 1757.91 890.227 1750.22 889.974 C 1742.83 889.73 1734.71 887.207 1729.78 881.414 C 1720.51 870.538 1723.13 840.842 1724.26 827.131 z"/>
<path transform="translate(0,0)" fill="rgb(7,38,78)" d="M 1581.33 845.235 C 1593.48 844.36 1604.11 853.357 1605.24 865.489 C 1606.38 877.62 1597.62 888.438 1585.51 889.839 C 1577.45 890.772 1569.51 887.268 1564.76 880.68 C 1560.01 874.092 1559.2 865.451 1562.64 858.095 C 1566.08 850.739 1573.23 845.819 1581.33 845.235 z"/>
<path transform="translate(0,0)" fill="rgb(252,242,233)" d="M 1579.41 855.661 C 1586.04 853.771 1592.96 857.594 1594.89 864.219 C 1596.82 870.844 1593.04 877.785 1586.43 879.757 C 1579.76 881.745 1572.74 877.925 1570.79 871.242 C 1568.85 864.559 1572.71 857.568 1579.41 855.661 z"/>
<path transform="translate(0,0)" fill="rgb(237,118,108)" d="M 1540.36 312.606 C 1551.99 309.785 1563.74 316.796 1566.78 328.373 C 1569.82 339.95 1563.03 351.828 1551.51 355.082 C 1543.87 357.242 1535.65 355.105 1530.03 349.494 C 1524.4 343.884 1522.25 335.673 1524.39 328.024 C 1526.54 320.375 1532.64 314.479 1540.36 312.606 z"/>
<path transform="translate(0,0)" fill="rgb(237,118,108)" d="M 1603.31 978.226 C 1603.34 970.948 1601.6 957.123 1606.21 951.557 L 1609.3 952.024 C 1613.37 960.594 1612.41 997.764 1610.94 1008.14 C 1609.42 1009.71 1610.08 1009.71 1608.31 1009.65 C 1606.56 1009.6 1605.82 1009.13 1604.38 1008.25 L 1603.9 1006.06 L 1602.62 1005.68 C 1598.74 1007.98 1595.14 1010.05 1590.55 1010.32 C 1586.15 1010.59 1581.68 1009.08 1578.58 1005.9 C 1574.27 1001.49 1573.04 994.825 1573.5 988.876 C 1573.98 982.517 1576.52 975.708 1581.64 971.643 C 1584.28 969.546 1587.51 968.542 1590.88 968.973 C 1596.83 969.734 1599.88 973.742 1603.31 978.226 z"/>
<path transform="translate(0,0)" fill="rgb(253,254,254)" d="M 1603.55 995.391 C 1602.26 997.984 1600.12 1000.99 1597.45 1002.29 C 1594.6 1003.69 1590.18 1003.78 1587.41 1002.21 C 1584.47 1000.55 1582.86 997.598 1582.19 994.382 C 1581.19 989.557 1582.01 983.757 1585 979.74 C 1586.74 977.409 1589.21 975.828 1592.18 975.83 C 1596.75 975.834 1599.26 978.499 1602.16 981.568 C 1603.33 986.292 1602.71 990.754 1603.55 995.391 z"/>
<path transform="translate(0,0)" fill="rgb(237,118,108)" d="M 1382.31 952.728 C 1385.9 952.918 1387.42 952.368 1390.11 954.876 C 1390.95 957.385 1391.35 959.046 1391.13 961.7 C 1390.76 966.05 1390.74 970.375 1390.69 974.738 C 1393.98 972.614 1397.49 970.14 1401.47 969.658 C 1405.99 969.101 1410.54 970.38 1414.11 973.207 C 1418.17 976.485 1420.36 981.436 1420.85 986.564 C 1421.56 994.07 1419.02 1000.07 1414.48 1005.85 C 1411.71 1007.76 1408.17 1009.4 1404.84 1010.03 C 1401.18 1010.72 1398.46 1009.42 1395.63 1007.32 C 1394.27 1006.31 1393.57 1005.76 1391.97 1005.09 L 1388.17 1009.27 C 1385.49 1010.01 1385.54 1009.76 1383.04 1008.44 C 1380.84 992.237 1382.58 969.734 1382.31 952.728 z"/>
<path transform="translate(0,0)" fill="rgb(253,254,254)" d="M 1400.01 976.06 C 1401.35 976.301 1402.7 976.544 1404.03 976.889 C 1407.13 977.699 1409 979.586 1410.44 982.361 C 1412.31 985.984 1412.41 990.012 1411.12 993.839 C 1409.41 998.891 1406.94 1001.18 1402.22 1003.44 C 1401.05 1003.26 1399.92 1003.08 1398.77 1002.79 C 1395.27 1001.9 1393.08 999.846 1391.43 996.693 C 1389.51 993.019 1389.45 988.833 1390.82 984.962 C 1392.58 979.982 1395.38 978.22 1400.01 976.06 z"/>
<path transform="translate(0,0)" fill="rgb(7,38,78)" d="M 1675.27 844.754 C 1678.18 845.142 1680.18 845.238 1682.43 847.351 C 1682.4 849.41 1682.58 848.852 1682.02 850.543 C 1679.3 858.811 1671.61 886.079 1664.1 889.106 C 1662.52 889.741 1662.01 889.131 1660.55 888.563 C 1656.23 883.372 1652.78 868.89 1650.12 861.852 C 1647.82 868.622 1644.45 884.163 1638.53 888.427 C 1637.23 889.367 1636.42 888.872 1634.94 888.68 C 1628.21 883.376 1625.23 871.163 1622.27 863.285 C 1620.24 858.383 1616.97 852.57 1617.45 847.179 L 1618.94 845.946 C 1621.19 845.894 1623.76 845.547 1625.81 846.624 C 1629.75 848.7 1635.1 869.628 1636.85 874.846 C 1638.94 867.588 1641.9 851.172 1648.38 847.315 C 1649.88 846.422 1650.57 847.005 1652.15 847.37 C 1658.8 853.375 1661.33 865.765 1664.12 874.121 C 1667.08 864.186 1670.07 853.777 1675.27 844.754 z"/>
<path transform="translate(0,0)" fill="rgb(7,38,78)" d="M 1382.56 826.484 C 1390.93 826.458 1399.46 825.372 1407.79 825.931 C 1411.7 826.192 1414.19 826.819 1416.82 829.78 C 1416.99 832.137 1417.5 832.424 1416.01 834.395 C 1405.08 836.233 1393.09 835.113 1382 835.021 L 1382.05 853.062 C 1389.9 852.956 1404.11 851.224 1410.97 854.525 C 1411.52 856.928 1411.43 858.557 1411.06 860.987 L 1409.11 861.994 L 1382.29 862 C 1382.38 868.436 1384.28 884.368 1380.06 889.087 C 1377.18 889.232 1375.46 889.314 1372.82 887.872 C 1369.96 877.243 1371.97 840.067 1372.03 827 L 1382.56 826.484 z"/>
<path transform="translate(0,0)" fill="rgb(237,118,108)" d="M 1750.04 968.216 C 1754.41 968.757 1756.9 970.217 1760.5 972.545 C 1764.52 975.139 1774.98 967.585 1781.36 968.586 C 1783.11 969.581 1784.31 970.405 1785.25 972.199 C 1788.45 978.265 1790.27 1000.25 1787.36 1006.58 C 1786.29 1008.91 1785.21 1009 1782.98 1009.65 C 1777.24 1003.44 1781.89 986.866 1777.34 978.469 C 1776.05 976.072 1775.09 975.44 1772.56 974.635 C 1770.15 975.291 1768.8 976.555 1767.12 978.328 C 1761.57 984.2 1763.36 996.249 1763.44 1003.94 C 1763.58 1005.89 1763.54 1006.87 1762.69 1008.65 C 1760.44 1010.02 1760.44 1010.39 1757.91 1009.84 C 1752.39 1003.95 1755.83 992.681 1755.66 984.965 C 1755.61 982.285 1755.07 979.528 1752.94 977.717 C 1750.74 975.856 1747.85 975.303 1745.08 975.335 C 1734.05 982.523 1743.49 1000 1737.05 1009.55 C 1734.52 1010.42 1734.45 1010.19 1731.93 1009.2 C 1730.95 1002.3 1729.13 975.083 1731.67 969.88 C 1732.25 968.7 1733.13 968.759 1734.27 968.372 C 1735.73 969.305 1737.15 970.243 1738.54 971.269 L 1739.72 972.145 C 1743.15 970.469 1746.34 969.159 1750.04 968.216 z"/>
<path transform="translate(0,0)" fill="rgb(7,38,78)" d="M 1805.04 841.104 C 1811.47 840.655 1821.27 840.564 1826.47 844.969 C 1827.74 846.048 1827.35 846.789 1827.4 848.303 C 1818.17 859.795 1818.59 847.968 1807.65 849.881 C 1805.43 851.808 1805.35 852.291 1804.51 855.148 C 1805.97 858.057 1806.31 857.706 1809.33 858.772 C 1816.32 861.239 1827.15 864.768 1829.99 872.481 C 1830.89 874.908 1830.79 876.778 1829.64 879.101 C 1827.24 883.991 1822.36 887.405 1817.41 889.18 C 1809.68 889.645 1799.98 889.372 1793.89 883.982 C 1793.07 881.272 1793.3 880.88 1794.14 878.133 C 1799.65 873.536 1806.71 881.694 1813.93 880.368 C 1816.19 878.924 1816.77 878.04 1817.8 875.568 C 1815.51 868.501 1802.01 867.068 1796.5 861.713 C 1794.32 859.602 1793.23 857.216 1793.63 854.13 C 1794.24 849.51 1801.36 843.405 1805.04 841.104 z"/>
<path transform="translate(0,0)" fill="rgb(237,118,108)" d="M 1694 969.204 C 1697.91 969.137 1702.11 968.834 1705.65 970.779 C 1709.74 973.029 1712.29 977.808 1713.33 982.222 C 1714.7 988 1716.21 1004.72 1712.68 1009.46 C 1710.32 1012.62 1707.48 1007.42 1705.36 1007.2 C 1701.81 1006.83 1696.31 1010.59 1692.02 1010.42 C 1687.64 1010.25 1684.61 1007.78 1681.71 1004.83 C 1681.32 1003.5 1680.97 1002.16 1680.67 1000.81 C 1679.95 997.491 1680.15 994.29 1682.3 991.47 C 1686.21 986.345 1694.43 986.845 1700.12 985.589 C 1702.85 984.986 1703.91 984.698 1705.42 982.336 C 1704.61 979.801 1704.26 979.381 1702.31 977.549 C 1696.37 975.583 1690.29 977.352 1684.32 978.535 L 1683.3 977.591 C 1686.12 972.554 1688.73 971.264 1694 969.204 z"/>
<path transform="translate(0,0)" fill="rgb(253,254,254)" d="M 1690.2 992.132 C 1693.83 991.787 1698.89 990.851 1702.37 991.785 C 1704.46 992.344 1704.72 992.986 1705.81 994.691 C 1705.74 997.841 1704.92 999.991 1703.74 1002.84 C 1700.66 1003.76 1696.65 1004.92 1693.48 1003.75 C 1690.76 1002.74 1690.35 1001.97 1688.91 999.626 C 1688.62 996.437 1689.03 995.002 1690.2 992.132 z"/>
<path transform="translate(0,0)" fill="rgb(237,118,108)" d="M 1817.26 969.027 C 1819.78 968.912 1822.18 969.107 1824.64 969.626 C 1831.01 970.967 1835.19 976.233 1838.3 981.636 C 1839.8 984.257 1840.28 986.092 1839.56 989.092 C 1832.35 996.643 1822.42 990.845 1813.98 994.023 C 1812.22 994.688 1812.9 994.225 1811.93 996.181 C 1813.32 999.226 1815.39 1001.6 1818.62 1002.81 C 1822.55 1004.29 1827.02 1002.44 1830.73 1001.12 L 1832.09 1000.45 C 1833.9 1001.95 1834.06 1002.2 1834.78 1004.43 C 1833.89 1006.17 1833.29 1007.09 1831.65 1008.27 C 1828.1 1010.82 1822.04 1010.54 1817.99 1009.7 C 1812.83 1008.63 1808.28 1006.09 1805.53 1001.48 C 1802.45 996.305 1802.07 989.913 1803.73 984.204 C 1805.97 976.466 1810.43 972.783 1817.26 969.027 z"/>
<path transform="translate(0,0)" fill="rgb(253,254,254)" d="M 1816.87 975.983 C 1819.37 975.973 1822.57 975.694 1824.83 976.917 C 1827.12 978.153 1829.81 980.963 1830.53 983.486 C 1831.1 985.51 1831.07 984.647 1830 986.696 L 1827.25 987.103 C 1823.22 987.109 1817.16 988.096 1813.54 986.505 C 1811.77 985.732 1812.1 985.462 1811.49 983.803 C 1812.61 980.481 1814.52 978.531 1816.87 975.983 z"/>
<path transform="translate(0,0)" fill="rgb(237,118,108)" d="M 1484.23 969.184 C 1488.62 969.067 1493.2 968.773 1496.97 971.429 C 1500.79 974.121 1502.68 979.149 1503.35 983.594 C 1504.31 989.913 1505.02 1004.56 1501.17 1009.59 L 1498.93 1009.69 C 1490.61 1005.36 1489.88 1009.86 1482.08 1009.95 C 1477.34 1010.01 1473.68 1006.59 1470.62 1003.43 C 1470.08 1000.78 1469.56 997.418 1470.41 994.782 C 1473.36 985.633 1486.65 987.517 1493.85 984.188 C 1495.2 981.786 1495.08 981.837 1494.46 979.132 C 1489.08 975.219 1478.64 977.836 1472.07 978.413 L 1472.03 975.467 C 1475.94 972.648 1479.67 970.715 1484.23 969.184 z"/>
<path transform="translate(0,0)" fill="rgb(253,254,254)" d="M 1481.67 992.21 C 1484.77 991.843 1489.13 990.99 1492.1 992.134 C 1494.39 993.018 1494.47 993.492 1495.43 995.593 C 1494.73 998.888 1493.93 1000.24 1491.79 1002.85 C 1489.16 1003.2 1485.51 1003.8 1482.92 1002.95 C 1480.18 1002.05 1479.81 1001.5 1478.5 999.139 C 1478.7 995.996 1479.84 994.596 1481.67 992.21 z"/>
<path transform="translate(0,0)" fill="rgb(7,38,78)" d="M 1523.23 825.308 C 1526 825.351 1528.06 825.242 1530.51 826.764 C 1532.89 842.99 1531.05 863.297 1531.04 880.028 C 1538.08 880.915 1547.7 878.526 1553.87 882.014 C 1554.78 884.855 1554.15 885.881 1553.38 888.706 C 1547.16 888.885 1540.91 889.14 1534.69 889.073 C 1532.14 889.045 1525.83 889.195 1524.15 887.02 C 1518.88 880.163 1520.17 836.328 1521.45 826.638 L 1523.23 825.308 z"/>
<path transform="translate(0,0)" fill="rgb(237,118,108)" d="M 1631.2 968.782 C 1633.63 968.853 1636.02 969.081 1638.43 969.318 C 1639.22 971.143 1639.05 970.47 1639.4 972.245 C 1639.47 972.631 1639.54 973.019 1639.6 973.405 C 1644 973.362 1646.54 970.141 1650.49 968.914 C 1653.25 968.055 1656.58 969.101 1659.01 970.516 C 1662.25 972.409 1663.46 975.813 1664.25 979.302 C 1666.06 987.313 1667.06 1001.75 1662.75 1008.83 C 1660.25 1010.09 1660.41 1010.02 1657.73 1009.15 C 1655.63 1004.2 1656.93 993.4 1656.91 987.75 C 1656.92 985.654 1657.03 982.118 1655.86 980.376 C 1653.83 977.333 1650.4 976.051 1646.93 975.497 C 1633.37 980.069 1643.45 1000.77 1638.45 1009.22 C 1635.84 1009.58 1634.59 1009.69 1632.17 1008.56 C 1629.58 1004.82 1631.17 975.617 1631.2 968.782 z"/>
<path transform="translate(0,0)" fill="rgb(7,38,78)" d="M 1486.26 825.105 C 1488.9 825.127 1493.33 824.76 1495.56 826.137 C 1499.4 828.512 1495.33 865.778 1496.55 872.589 C 1497.12 875.773 1498.24 877.143 1500.89 878.847 C 1503.17 878.752 1504.78 878.483 1506.85 879.601 C 1507.38 882.718 1507.56 885.696 1507.65 888.854 C 1505.17 889.313 1502.44 889.797 1499.92 889.746 C 1496.53 889.691 1493.32 888.253 1491.02 885.766 C 1482.46 876.528 1486.09 838.74 1486.26 825.105 z"/>
<path transform="translate(0,0)" fill="rgb(237,118,108)" d="M 1522.18 969.09 C 1524.21 969.06 1526.07 969.197 1528.07 969.465 L 1529.96 972.301 C 1532.72 973.64 1538.51 969.754 1541.75 968.975 C 1544.87 968.225 1549.61 968.665 1552.08 970.952 C 1556.35 974.924 1557.13 983.519 1557.51 989.026 C 1557.93 995.088 1558.64 1004.44 1554.45 1009.2 C 1552.04 1009.87 1552.06 1009.8 1549.78 1008.74 C 1548.39 1002.04 1549.2 993.662 1549.15 986.75 C 1549.13 985.822 1549.06 984.895 1548.96 983.973 C 1548.67 981.238 1547.54 978.662 1545.05 977.224 C 1542.89 975.983 1539.38 975.828 1537.01 976.529 C 1523.74 980.457 1534.07 1000.24 1529.28 1009.06 C 1526.76 1009.56 1525.53 1009.7 1523.1 1008.78 C 1520.37 1003.44 1522.19 977.051 1522.18 969.09 z"/>
<path transform="translate(0,0)" fill="rgb(237,118,108)" d="M 1436.69 969.238 C 1438.47 969.204 1441.47 968.769 1443.11 969.258 C 1445.95 970.102 1444.38 972.475 1445.9 974.628 C 1448.14 973.309 1450.14 971.037 1452.41 969.966 C 1454.87 968.805 1455.75 969.106 1458.14 969.847 C 1459.51 971.888 1459.73 971.381 1459.25 974.024 C 1456.15 977.181 1452.85 976.668 1449.35 978.763 C 1446.6 980.411 1445.83 983.915 1445.16 986.806 L 1444.95 987.75 C 1444.99 993.062 1446.36 1005.31 1443.85 1009.66 L 1441.03 1010.35 L 1438.93 1009.01 C 1434.46 1000.27 1436.71 979.775 1436.69 969.238 z"/>
<path transform="translate(0,0)" fill="rgb(237,118,108)" d="M 1645.15 1296.38 C 1657.65 1303.3 1667.21 1307.1 1681.64 1307.79 C 1690.72 1317.94 1696.42 1330.71 1701.62 1343.17 C 1719.91 1387 1725.38 1431.55 1722.66 1478.67 C 1721.19 1500.3 1718.65 1521.85 1715.03 1543.23 C 1709.48 1516.21 1701.99 1489.57 1696.71 1462.54 C 1689.64 1426.36 1691.53 1365.38 1657.63 1342.68 C 1652.2 1339.04 1644.9 1335.14 1638.2 1336.41 C 1630.1 1337.94 1624.96 1343.42 1620.72 1350.13 C 1602.58 1378.88 1607.63 1423.59 1615.16 1454.77 C 1626.61 1502.21 1649.87 1546.27 1668.07 1591.37 C 1672.84 1591.56 1676.27 1591.23 1679.76 1594.87 C 1682.17 1597.37 1683.86 1602.42 1685.32 1605.59 C 1679.47 1606.29 1673.61 1607.08 1667.72 1607.42 C 1653.25 1609.15 1638.23 1609.4 1623.66 1610 C 1579.63 1611.81 1557.56 1608.58 1521.53 1582.58 C 1526.12 1565.36 1531.11 1548.25 1536.51 1531.27 C 1544.93 1504.7 1555.06 1478.71 1565.14 1452.72 C 1574.11 1429.59 1582.99 1406.22 1593.48 1383.72 C 1600 1369.74 1608.67 1356.84 1615.3 1342.93 C 1620.9 1331.18 1623.46 1315.56 1631.2 1305.24 C 1633.6 1302.04 1637.54 1300.04 1641.02 1298.27 C 1642.38 1297.58 1643.76 1296.98 1645.15 1296.38 z"/>
<path transform="translate(0,0)" fill="rgb(237,118,108)" d="M 1637.89 1339.13 C 1646.29 1339.16 1652.58 1341.58 1659.06 1347.06 C 1669.65 1356.01 1675.89 1370.1 1680.03 1383.03 C 1688.12 1408.25 1687.91 1434.09 1692.89 1459.77 C 1700.2 1497.49 1712.59 1533.83 1716.58 1572.26 C 1707.22 1578.81 1697.57 1582.65 1686.78 1586.22 C 1681.26 1587.7 1675.58 1588.38 1669.94 1589.21 C 1648.49 1529.62 1614.41 1475.48 1611.96 1410.3 C 1611.4 1395.23 1612.14 1379.95 1616.78 1365.49 C 1620.57 1353.7 1626.77 1344.85 1637.89 1339.13 z"/>
<path transform="translate(0,0)" fill="rgb(237,118,108)" d="M 1829.97 1206.65 C 1841.09 1208.02 1850.69 1214.12 1859.71 1220.41 C 1857.68 1230.83 1855.38 1241.2 1852.82 1251.51 C 1834.85 1321.65 1804.17 1348.44 1744.05 1384.14 L 1739.04 1373.18 C 1728.02 1349.6 1714.63 1326.01 1699.73 1304.66 C 1712.12 1302.6 1725.12 1301.36 1737.17 1297.81 C 1784.94 1283.74 1802.65 1242.72 1829.97 1206.65 z"/>
<path transform="translate(0,0)" fill="rgb(237,118,108)" d="M 1691.32 1299.77 C 1693.17 1300.37 1693.65 1300.81 1694.91 1302.25 C 1704.33 1313.05 1711.55 1328.37 1718.65 1340.8 C 1755.65 1405.55 1794.43 1497.11 1788.84 1572.99 C 1784.87 1575.22 1780.46 1576.84 1776.27 1578.63 C 1769.44 1581.23 1762.83 1583.37 1755.69 1584.97 C 1756.23 1520.42 1754.26 1457.02 1735.15 1394.92 L 1721.11 1394.83 C 1714.32 1364.47 1702.85 1330.48 1683.86 1305.55 L 1691.32 1299.77 z"/>
<path transform="translate(0,0)" fill="rgb(253,254,254)" d="M 1676.6 1210.48 C 1682.34 1206.07 1684.27 1202.6 1686.7 1195.84 C 1691.65 1201.28 1694.67 1205.77 1697.14 1212.81 C 1692.72 1214.28 1687.94 1216.36 1683.32 1216.95 C 1678.18 1218.22 1667.12 1219.39 1664.07 1223.81 C 1674.73 1223.04 1687.86 1217.94 1697.89 1214.22 C 1699.02 1214.59 1699.61 1214.72 1700.68 1215.39 C 1702.7 1216.66 1703.75 1218.41 1704.26 1220.62 C 1702.74 1220.89 1701.73 1220.87 1700.15 1220.7 C 1699.58 1220.64 1699.02 1220.57 1698.46 1220.5 C 1699.51 1228.15 1707.31 1232.64 1710.24 1237.64 C 1712.53 1241.54 1711.29 1247.82 1709.77 1251.74 C 1706.86 1259.24 1700.69 1267.1 1692.97 1270.02 C 1680.48 1274.75 1663.46 1260.39 1652.52 1255 C 1663.27 1265.1 1671.96 1268.1 1685.22 1273.53 L 1685.58 1274.79 L 1683.94 1275.92 C 1679.28 1275.84 1674.92 1273.24 1670.66 1271.49 L 1670.35 1272.63 C 1675.83 1278.15 1674.3 1288.48 1674.93 1296.1 C 1668.03 1295.29 1661.8 1294.39 1655.39 1291.56 C 1658.02 1283.65 1659.63 1276.69 1659.51 1268.28 C 1656.64 1263.5 1653.94 1258.63 1651.41 1253.66 C 1649.08 1252.84 1646.47 1251.93 1644.41 1250.53 C 1640.31 1247.77 1637.11 1243.39 1636.02 1238.6 C 1636.43 1236.75 1636.42 1235.73 1637.66 1234.23 C 1640.09 1231.28 1645.69 1229.43 1649.4 1229.69 C 1651.94 1229.86 1654.19 1235.62 1656 1237.84 L 1657.36 1237.45 C 1657.11 1234.23 1654.93 1232.14 1653.12 1229.52 C 1661.98 1224.92 1668.51 1216.44 1676.6 1210.48 z"/>
<path transform="translate(0,0)" fill="rgb(253,254,254)" d="M 1612.74 1611.71 C 1612.84 1612.15 1613.02 1612.57 1613.05 1613.02 C 1613.72 1621.87 1519.16 1761.17 1505.42 1781.36 C 1514.03 1788.47 1522.87 1795.09 1531.92 1801.63 C 1526.87 1806.75 1521.68 1812.64 1515.63 1816.57 C 1507.06 1822.15 1499.44 1822.9 1489.8 1820.68 C 1488.66 1820.28 1487.16 1820.09 1486.43 1819.05 C 1483.28 1814.65 1484.23 1801.92 1478.6 1794.5 C 1476.4 1791.61 1472.97 1789.35 1470.08 1787.19 C 1477.6 1782.18 1484.29 1776.6 1490.61 1770.15 C 1494.9 1773.34 1499.03 1776.79 1503.21 1780.13 C 1512.4 1762.41 1526.56 1745.87 1537.47 1729.02 C 1552.69 1705.68 1567.74 1682.23 1582.64 1658.68 C 1591.37 1644.6 1601.95 1623.21 1612.74 1611.71 z"/>
<path transform="translate(0,0)" fill="rgb(253,254,254)" d="M 1673.56 1841.19 L 1718.74 1840.91 L 1721.09 1862.01 C 1717.37 1863.52 1713.58 1864.89 1710.14 1866.99 L 1704.12 1880.5 C 1693.15 1882.55 1684.2 1881.9 1674.56 1875.48 C 1670.81 1872.98 1666.1 1869.19 1665.18 1864.56 C 1664.62 1861.75 1664.46 1858.77 1664.21 1855.92 C 1663.88 1851.25 1663.16 1846.56 1662.59 1841.91 L 1673.56 1841.19 z"/>
<path transform="translate(0,0)" fill="rgb(253,254,254)" d="M 1438.5 1822.16 C 1449.68 1832.14 1458.61 1845.39 1468.82 1856.48 C 1483.91 1872.87 1500.37 1888.09 1514.83 1905.05 C 1516.75 1907.29 1519.04 1909.54 1519.37 1912.57 C 1517.89 1918 1514.02 1920.55 1509.56 1923.61 C 1501.34 1918.26 1481.94 1892.94 1474.49 1884.4 C 1459.02 1866.83 1443.43 1849.37 1427.74 1832 C 1431.08 1828.42 1434.77 1825.32 1438.5 1822.16 z"/>
<path transform="translate(0,0)" fill="rgb(253,254,254)" d="M 1661.7 1919.32 C 1686.17 1918.24 1710.91 1918.73 1735.41 1918.64 C 1749.76 1918.58 1765.48 1917.32 1779.67 1918.79 C 1781.27 1918.96 1783.39 1919.07 1784.35 1920.48 C 1786.6 1923.77 1785.49 1928.31 1784.71 1931.91 L 1704.97 1932.03 C 1690.97 1932.05 1676.22 1933.13 1662.37 1931.42 C 1660.35 1930 1659.83 1929.67 1659.51 1927.02 C 1659.18 1924.33 1660.17 1921.45 1661.7 1919.32 z"/>
<path transform="translate(0,0)" fill="rgb(253,254,254)" d="M 1866.68 1196.77 C 1861.91 1195.18 1858.02 1192.84 1853.7 1190.33 C 1848.64 1187.38 1847.33 1187.24 1841.76 1188.72 C 1839.41 1180.5 1840.27 1168.5 1840.41 1159.89 L 1841.34 1159.31 C 1842.94 1160.79 1844.47 1162.26 1846.32 1163.44 C 1848.5 1164.84 1846.36 1163.3 1848.66 1165.02 C 1848.96 1167.36 1849.06 1168.39 1847.94 1170.49 L 1846.65 1170.29 L 1845.95 1165.33 L 1845.05 1166.39 C 1845.11 1167.46 1845.14 1168.53 1845.27 1169.6 C 1845.59 1172.25 1846.35 1175.19 1848.47 1176.83 C 1852.6 1171.73 1854.54 1140.55 1858.6 1131.2 C 1859.45 1129.22 1859.47 1128.96 1861.53 1128.13 C 1865.04 1133.02 1859.94 1152.42 1859.15 1159 L 1859.86 1159.8 C 1862.31 1157.05 1861.92 1150.14 1863.31 1146.42 C 1864.5 1149 1862.95 1153.37 1863.26 1156.45 C 1863.32 1157 1863.39 1157.55 1863.46 1158.1 C 1863.74 1157.56 1864.03 1157.04 1864.3 1156.5 C 1867.52 1150.11 1867.4 1141.47 1873.25 1136.45 C 1875.24 1143.25 1870.79 1152.69 1868.35 1159.08 L 1867.51 1163.31 L 1868.85 1164.77 L 1869.27 1163.99 C 1872.32 1158.17 1873.44 1148.98 1879.44 1145.64 C 1881.74 1146.23 1882.3 1146.35 1883.51 1148.61 C 1884.52 1150.52 1884.64 1152.94 1883.94 1154.93 L 1882.7 1154.76 L 1880.47 1151.28 C 1878.27 1152.97 1872.78 1165.35 1871.47 1168.6 C 1875.11 1165.74 1882.95 1156.74 1886.69 1155.94 C 1886.85 1156.37 1887.04 1156.77 1887.16 1157.21 C 1889.3 1165.34 1871.92 1189.01 1866.68 1196.77 z"/>
<path transform="translate(0,0)" fill="rgb(253,254,254)" d="M 1674.91 1840.06 C 1674.28 1838.72 1674.19 1838.66 1673.77 1837 C 1671.6 1828.39 1673.1 1785.82 1672.88 1773.91 L 1670.79 1674.01 C 1670.29 1656.52 1669.03 1639.05 1668.95 1621.53 C 1668.93 1617.35 1668.33 1612.68 1670.36 1608.9 C 1673.84 1618.17 1678.68 1834.15 1676.04 1838.61 C 1675.73 1839.14 1675.29 1839.58 1674.91 1840.06 z"/>
<path transform="translate(0,0)" fill="rgb(253,254,254)" d="M 1713.05 1604.29 L 1714.4 1604.57 C 1717.05 1609.65 1719.78 1614.74 1722.2 1619.93 C 1724.78 1625.46 1728.38 1633.5 1726.17 1639.47 L 1724.11 1639.01 C 1720.52 1635.8 1718.22 1631.63 1715.66 1627.6 C 1718.21 1634.5 1721.05 1641.31 1723.65 1648.19 C 1719.87 1644.43 1717 1640.75 1714.08 1636.33 C 1712.59 1633.68 1710.83 1631.5 1708.87 1629.17 C 1709.58 1634.78 1715.06 1642.42 1717.89 1647.38 C 1716.57 1646.42 1715.27 1645.44 1713.99 1644.42 C 1701.94 1634.7 1698.25 1623.37 1696.56 1608.59 C 1701.91 1606.7 1707.53 1605.59 1713.05 1604.29 z"/>
<path transform="translate(0,0)" fill="rgb(7,38,78)" d="M 195.16 1255.5 L 885.616 1255.22 L 1109.84 1255.25 C 1149.26 1255.21 1189.56 1253.31 1228.84 1255.51 C 1229.66 1285.2 1229.1 1315.03 1229.08 1344.73 L 1229.07 1499.46 L 1229.03 1937.16 C 1201.59 1937.97 1173.96 1937.28 1146.5 1937.25 L 108.91 1937.35 L 108.399 1255.79 C 137.299 1255.22 166.253 1255.53 195.16 1255.5 z"/>
<path transform="translate(0,0)" fill="rgb(237,118,108)" d="M 114.761 1261.11 L 1223.14 1261.23 L 1223.16 1429.78 L 350.168 1429.84 C 325.635 1460.07 302.293 1491.47 278.663 1522.41 C 259.715 1547.23 240.069 1571.74 222.164 1597.32 C 242.006 1620.4 259.539 1645.93 278.027 1670.12 C 299.212 1697.83 321.657 1724.95 341.64 1753.53 C 362.923 1753.97 384.212 1754.13 405.5 1754.02 L 1223.48 1753.86 C 1222.65 1813.09 1223.31 1872.42 1223.13 1931.66 C 1180.55 1930.91 1137.87 1931.42 1095.28 1931.41 L 845.584 1931.5 L 114.312 1931.58 L 114.761 1261.11 z"/>
<path transform="translate(0,0)" fill="rgb(7,38,78)" d="M 299.696 1428.44 L 307.798 1433.96 C 292.479 1453.11 278.177 1473.28 263.446 1492.9 C 237.73 1527.03 211.831 1561.03 185.749 1594.88 C 223.919 1645.95 263.724 1696.03 301.326 1747.47 C 300.681 1750.79 299.016 1752.05 296.826 1754.58 L 295.572 1754.6 C 281.861 1740.03 270.059 1721.6 257.879 1705.57 C 230.002 1668.89 202.497 1631.61 173.81 1595.57 C 215.059 1539.37 259.527 1485.44 299.696 1428.44 z"/>
<path transform="translate(0,0)" fill="rgb(252,242,233)" d="M 353.345 1439.83 C 391.219 1438.73 429.425 1439.7 467.331 1439.71 L 682.399 1439.87 L 1223.21 1440.37 C 1223.21 1449.56 1223.26 1458.75 1223.37 1467.94 C 1224.98 1517.42 1223.46 1567.34 1223.5 1616.87 L 1223.68 1678.11 C 1223.73 1689.92 1224.33 1702.21 1223.32 1713.99 C 1222.88 1723.74 1223.2 1733.63 1223.17 1743.39 L 347.205 1743.99 C 332.579 1728.71 320.161 1709.87 307.346 1693.01 C 283.182 1660.8 258.612 1628.9 233.642 1597.31 C 245.607 1579.8 259.499 1563.09 272.312 1546.12 L 353.345 1439.83 z"/>
<path transform="translate(0,0)" fill="rgb(237,118,108)" d="M 353.345 1439.83 C 391.219 1438.73 429.425 1439.7 467.331 1439.71 L 682.399 1439.87 L 1223.21 1440.37 C 1223.21 1449.56 1223.26 1458.75 1223.37 1467.94 L 375.219 1468.14 C 359.736 1485.29 346.823 1505.64 332.92 1524.15 C 314.315 1548.92 293.815 1573.39 277.031 1599.41 L 336.039 1675.13 C 346.167 1688.07 356.041 1701.95 367.333 1713.89 C 473.765 1715.15 580.312 1714 686.757 1714.12 L 1223.32 1713.99 C 1222.88 1723.74 1223.2 1733.63 1223.17 1743.39 L 347.205 1743.99 C 332.579 1728.71 320.161 1709.87 307.346 1693.01 C 283.182 1660.8 258.612 1628.9 233.642 1597.31 C 245.607 1579.8 259.499 1563.09 272.312 1546.12 L 353.345 1439.83 z"/>
<path transform="translate(0,0)" fill="rgb(7,38,78)" d="M 944.638 1599.54 C 947.482 1592.07 958.664 1563.44 962.188 1558.58 C 963.835 1556.32 964.729 1555.83 967.442 1555.43 C 968.348 1555.96 968.986 1556.25 969.714 1557.11 C 974.102 1562.3 980.874 1608.84 979.6 1616.55 C 979.322 1618.24 978.359 1618.41 977.075 1619.36 C 974.389 1619.54 973.935 1619.54 971.553 1618.33 C 967.28 1611.47 967.038 1598.23 965.801 1590.09 L 964.009 1578.01 C 960.833 1586.17 954.188 1609.82 946.555 1613.9 C 945.07 1614.69 944.329 1614.07 942.823 1613.67 C 934.214 1605.56 931.785 1591.63 926.242 1581.41 L 925.408 1579.9 C 923.335 1590.68 924.517 1606.91 919.447 1616.41 C 918.195 1618.75 917.24 1619.29 914.787 1620.09 L 912.719 1619.02 C 911.879 1617.57 911.266 1616.35 910.947 1614.69 C 909.218 1605.68 914.855 1562.03 919.658 1554.53 C 921.226 1554.73 922.759 1555.09 924.306 1555.42 C 931.017 1561.55 940.295 1589.59 944.638 1599.54 z"/>
<path transform="translate(0,0)" fill="rgb(7,38,78)" d="M 597.607 1571.17 C 602.557 1570.9 607.223 1570.64 611.925 1572.55 C 617.616 1574.85 622.108 1579.63 624.406 1585.27 C 627.203 1592.15 627.091 1600.56 623.789 1607.25 C 620.995 1612.91 615.821 1616.82 609.831 1618.6 C 602.363 1620.82 595.849 1616.58 589.534 1613.09 L 589.028 1615.75 C 589.185 1621.71 590.847 1631.74 586.506 1636.35 C 583.795 1636.79 583.319 1636.44 580.753 1635.34 C 580.253 1634.62 579.592 1633.98 579.255 1633.16 C 577.616 1629.19 579.321 1581.26 580.041 1573.95 C 581.535 1572.21 581.613 1572.02 583.819 1571.51 C 586.417 1572.25 587.499 1573.86 589.155 1575.85 L 589.868 1576.72 C 592.384 1574.78 594.965 1572.93 597.607 1571.17 z"/>
<path transform="translate(0,0)" fill="rgb(252,242,233)" d="M 596.825 1581.03 C 597.818 1580.98 598.81 1580.92 599.804 1580.92 C 604.491 1580.89 608.283 1581.92 611.544 1585.48 C 614.277 1588.45 615.762 1592.35 615.407 1596.4 C 614.889 1602.31 612.245 1605.92 607.789 1609.57 C 606.523 1609.73 605.263 1609.92 603.982 1609.89 C 600.018 1609.82 596.746 1608.42 594.052 1605.51 C 590.8 1602 589.563 1597.42 590.048 1592.7 C 590.606 1587.28 592.788 1584.49 596.825 1581.03 z"/>
<path transform="translate(0,0)" fill="rgb(7,38,78)" d="M 792.67 1571.18 C 799.73 1569.72 807.078 1571.4 812.801 1575.78 C 818.525 1580.16 822.058 1586.82 822.48 1594.02 C 823.208 1606.42 814.66 1617.44 802.474 1619.82 C 789.082 1622.44 776.089 1613.75 773.393 1600.38 C 770.697 1587 779.309 1573.96 792.67 1571.18 z"/>
<path transform="translate(0,0)" fill="rgb(252,242,233)" d="M 791.615 1581.12 C 794.184 1580.74 796.994 1580.49 799.587 1580.81 C 803.237 1581.26 806.823 1583.89 808.895 1586.84 C 811.2 1590.12 811.975 1594.05 811.198 1597.97 C 810.086 1603.59 807.04 1606.8 802.362 1609.79 C 800.439 1610.09 798.445 1610.51 796.494 1610.48 C 792.911 1610.41 789.131 1608.27 786.906 1605.53 C 784.291 1602.31 783.389 1598.09 783.86 1594.03 C 784.54 1588.15 787.175 1584.78 791.615 1581.12 z"/>
<path transform="translate(0,0)" fill="rgb(7,38,78)" d="M 1015.99 1571.26 C 1029.34 1568.58 1042.32 1577.26 1044.96 1590.61 C 1047.6 1603.97 1038.9 1616.93 1025.54 1619.53 C 1012.22 1622.14 999.315 1613.47 996.684 1600.16 C 994.052 1586.85 1002.69 1573.92 1015.99 1571.26 z"/>
<path transform="translate(0,0)" fill="rgb(252,242,233)" d="M 1015.48 1581.9 C 1022.84 1578.98 1031.17 1582.53 1034.16 1589.86 C 1037.15 1597.19 1033.68 1605.56 1026.37 1608.62 C 1018.98 1611.72 1010.47 1608.18 1007.44 1600.76 C 1004.41 1593.33 1008.02 1584.85 1015.48 1581.9 z"/>
<path transform="translate(0,0)" fill="rgb(7,38,78)" d="M 466.21 1570.7 C 468.423 1570.68 470.243 1570.82 472.399 1571.33 C 479.379 1577.79 481.633 1593.51 484.153 1602.74 C 486.818 1595.19 490.425 1579.48 496.494 1574.16 C 497.783 1573.03 498.272 1573.48 499.822 1573.64 C 506.396 1579.6 509.393 1595.01 512.163 1603.4 C 516.154 1594.06 518.438 1576.12 526.73 1569.87 C 528.262 1570.04 528.561 1569.66 529.299 1570.97 C 531.939 1575.67 530.797 1579.11 528.915 1583.76 C 526.409 1591.86 522.625 1611.45 516.082 1616.73 C 514.018 1618.4 512.954 1617.9 510.67 1617.33 C 503.508 1611.09 500.938 1598.62 497.931 1589.84 C 495.607 1597.28 493.092 1610.95 487.906 1616.66 C 486.408 1618.31 485.694 1618.15 483.6 1618.3 C 480.663 1616.83 479.285 1615.09 477.733 1612.27 C 473.368 1604.32 463.781 1579.02 466.21 1570.7 z"/>
<path transform="translate(0,0)" fill="rgb(7,38,78)" d="M 427.41 1552.17 C 430.478 1552.08 433.409 1552.26 436.444 1552.77 C 442.148 1553.73 446.936 1556.24 450.306 1560.99 C 450.566 1562.92 451.074 1563.38 449.746 1565.12 C 445.728 1570.39 435.45 1562.62 430.505 1562.48 C 427.613 1562.4 424.584 1563.57 422.651 1565.78 C 421.018 1567.64 421.093 1569.79 421.174 1572.1 C 424.34 1578.65 432.898 1580.33 439.064 1583.22 C 444.63 1585.83 450.788 1589.11 452.751 1595.41 C 454.185 1600 452.907 1605.66 450.45 1609.69 C 446.533 1616.12 439.834 1618.43 432.922 1620.2 C 428.374 1620.2 423.532 1619.84 419.201 1618.39 C 415.4 1617.11 409.631 1614.57 408.235 1610.42 C 407.38 1607.87 407.498 1607.14 408.797 1605.05 C 416.128 1602.14 424.532 1609.96 431.958 1609.54 C 434.546 1609.39 437.261 1608.12 438.805 1606.01 C 440.409 1603.82 440.428 1602.64 440.281 1600.12 C 436.757 1593.5 426.347 1590.46 419.858 1587.05 C 415.2 1584.61 410.101 1580.73 408.662 1575.41 C 407.669 1571.74 408.766 1568.13 410.551 1564.9 C 414.73 1557.35 419.238 1554.48 427.41 1552.17 z"/>
<path transform="translate(0,0)" fill="rgb(7,38,78)" d="M 1121.19 1571.21 C 1123.96 1570.98 1126.74 1570.85 1129.52 1571.02 C 1134.79 1571.34 1139.68 1574 1143.09 1578.03 C 1146.54 1582.11 1148.56 1587.58 1148.05 1592.92 C 1142.88 1602.87 1125.36 1595.64 1116.53 1599.74 C 1114.95 1600.47 1115.45 1600.41 1114.92 1602.36 C 1116.75 1606.07 1120.48 1609.78 1124.57 1610.91 C 1130.19 1612.47 1135.05 1609.05 1139.42 1606.09 L 1141.48 1606.95 C 1142.86 1609.74 1143.26 1610.43 1143.13 1613.5 C 1141.58 1616.53 1138.79 1618.1 1135.73 1619.38 C 1130.01 1621.77 1123.88 1621.77 1118.21 1619.24 C 1111.89 1616.36 1107.01 1611.03 1104.7 1604.47 C 1102.39 1597.91 1102.71 1590.25 1105.76 1583.97 C 1109.14 1577.01 1114.17 1573.87 1121.19 1571.21 z"/>
<path transform="translate(0,0)" fill="rgb(253,254,254)" d="M 1121.77 1580.12 C 1124.54 1579.89 1127.28 1579.62 1129.99 1580.48 C 1132.94 1581.42 1136.72 1584.77 1137.69 1587.62 C 1138.27 1589.31 1137.77 1589.41 1137 1590.84 L 1133.25 1591.24 C 1127.92 1591.44 1120.07 1592.72 1115.64 1589.24 L 1115.48 1586.82 C 1117.13 1583.83 1119.11 1582.23 1121.77 1580.12 z"/>
<path transform="translate(0,0)" fill="rgb(7,38,78)" d="M 659.519 1571.14 C 662.287 1570.96 665.256 1571 667.999 1571.43 C 673.271 1572.25 678.044 1574.84 681.048 1579.32 C 683.881 1583.54 686.746 1588.68 685.669 1593.89 C 678.897 1603.77 661.139 1594.06 651.937 1599.55 C 651.325 1602.01 651.564 1602.37 652.916 1604.55 C 654.648 1607.35 658.729 1609.49 661.806 1610.29 C 667.372 1611.73 670.87 1609.71 675.514 1606.8 C 677.007 1606.36 677.574 1606.74 679.051 1607.11 C 680.602 1609.65 680.654 1609.75 680.354 1612.71 C 678.385 1615.78 676.468 1617.84 673.022 1619.26 C 667.401 1621.58 659.897 1620.41 654.477 1618.04 C 648.339 1615.37 643.87 1610.5 641.759 1604.13 C 639.572 1597.53 640.266 1589.86 643.429 1583.7 C 647.046 1576.65 652.192 1573.52 659.519 1571.14 z"/>
<path transform="translate(0,0)" fill="rgb(253,254,254)" d="M 660.943 1578.98 C 665.223 1579.18 668.596 1580.13 671.954 1582.87 C 674.334 1584.81 675.506 1586.3 675.766 1589.37 C 673.497 1591.43 672.251 1590.97 669.25 1591.09 C 665.145 1591.19 659.186 1591.97 655.403 1590.41 C 653.037 1589.43 652.783 1589.27 651.881 1587.02 C 653.657 1583.08 657.274 1580.99 660.943 1578.98 z"/>
<path transform="translate(0,0)" fill="rgb(7,38,78)" d="M 748.134 1550.19 C 750.385 1550.03 752.858 1549.79 755.092 1550.23 C 757.932 1550.79 760.94 1552.72 762.473 1555.15 L 761.917 1556.91 C 757.189 1560.3 750.835 1561.03 745.547 1563.58 C 744.568 1565.8 744.483 1566.98 744.725 1569.4 C 749.286 1574.3 755.305 1570.15 759.915 1573.87 C 760.589 1576.46 760.363 1577.14 759.69 1579.77 C 755.633 1581.57 748.483 1580.67 743.984 1580.71 L 743.921 1608.17 C 743.907 1610.7 744.023 1613.37 743.443 1615.84 C 742.824 1618.48 742.597 1618.63 740.415 1619.98 C 737.441 1619.7 737.131 1619.75 734.878 1617.83 C 730.376 1608.19 734.376 1595.04 733.478 1584.59 C 733.039 1579.47 729.92 1582.09 726.792 1579.49 C 726.445 1577 726.68 1575.33 727.257 1572.9 C 728.572 1572.21 729.52 1571.92 731.006 1571.61 C 731.517 1571.5 732.031 1571.41 732.544 1571.32 C 734.938 1566.89 734.878 1562.44 736.616 1557.89 C 738.331 1553.4 744.109 1551.75 748.134 1550.19 z"/>
<path transform="translate(0,0)" fill="rgb(7,38,78)" d="M 858.815 1570.24 C 860.678 1570.46 862.563 1570.66 864.38 1571.15 C 867.728 1572.06 869.437 1573.77 870.98 1576.69 C 870.841 1577.74 870.827 1578.33 870.359 1579.35 C 866.578 1587.62 860.291 1579.02 855.162 1580.21 C 847.952 1588.61 850.077 1607.97 849.968 1618.48 C 847.848 1618.92 845.882 1619.49 843.735 1618.89 C 842.04 1618.42 840.928 1616.77 840.337 1615.19 C 836.895 1605.99 837.897 1582.81 841.564 1573.74 C 843.657 1573.11 845.369 1572.57 847.576 1572.62 C 851.599 1572.7 853.877 1572.33 857.638 1570.76 C 858.033 1570.59 858.422 1570.42 858.815 1570.24 z"/>
<path transform="translate(0,0)" fill="rgb(7,38,78)" d="M 1066.55 1570.34 C 1067.99 1570.73 1069.32 1571.21 1070.71 1571.74 C 1071.51 1573.52 1071.81 1574.78 1073.41 1575.97 C 1075.71 1574.29 1078.1 1572.41 1080.8 1571.43 C 1083.38 1570.49 1087.04 1571.16 1089.43 1572.37 C 1091.55 1573.46 1092.73 1574.2 1093.39 1576.57 C 1089.25 1581.04 1080.13 1580.53 1075.94 1585.3 C 1073.27 1588.33 1073.11 1590.88 1073.21 1594.72 C 1073.22 1595.06 1073.24 1595.41 1073.25 1595.75 C 1073.46 1602.32 1074.69 1610.84 1072.9 1617.1 C 1070.93 1619.28 1070.59 1619.55 1067.77 1620.38 C 1066.48 1619.97 1065.39 1619.97 1064.56 1618.77 C 1061.3 1614 1062.33 1583.62 1062.98 1576.91 C 1063.32 1573.42 1063.96 1572.66 1066.55 1570.34 z"/>
<path transform="translate(0,0)" fill="rgb(7,38,78)" d="M 547.876 1573.04 C 548.313 1572.99 548.748 1572.93 549.185 1572.88 C 552 1572.62 554.343 1572.32 556.611 1574.15 C 558.039 1586.63 558.328 1607.04 556.349 1619.38 C 553.37 1619.57 551.357 1619.79 548.606 1618.34 C 544.707 1611.14 546.913 1582.16 547.876 1573.04 z"/>
<path transform="translate(0,0)" fill="rgb(7,38,78)" d="M 548.935 1554.34 C 550.587 1553.31 552.682 1553.29 554.352 1554.3 C 556.021 1555.3 556.982 1557.16 556.836 1559.11 C 556.69 1561.05 555.463 1562.75 553.661 1563.5 C 551.177 1564.53 548.318 1563.48 547.084 1561.09 C 545.851 1558.7 546.655 1555.77 548.935 1554.34 z"/>
</svg>