<svg xmlns="http://www.w3.org/2000/svg" display="block" viewBox="0 0 2048 2048"><path fill="#f6a08d" d="M0 0h2048v2048H0z"/><path fill="#07264e" d="m109.055 110.108 757.262.164 237.473-.054 77.51-.129c16.47-.018 33.17-.485 49.59.687l.83 737.846-.09 245.708c-.09 40.14 1.59 83.59-.7 123.36-39.05.95-78.51-.44-117.59-.53l-231.783-.08-773.555.03z"/><path fill="#fcf2e9" d="m282.017 115.496 618.268.453c108.145.059 216.395-1.207 324.515-.048l.43 1095.709c-57.33.55-114.73-.11-172.06-.2l-938.972-.16.587-1095.427c55.685-1.011 111.532-.24 167.232-.327"/><path fill="#07264e" d="M810.333 689.129c-2.816 19.067-6.564 36.665-23.263 48.758-13.004 9.417-30.883 12.177-46.535 12.891-26.755 1.22-54.779-2.226-81.563-3.591a2719 2719 0 0 0-124.263-3.196c-48.265-.126-96.549 2.194-144.765 4.134-30.029 1.208-62.552 5.964-92.19.495-17.161-3.167-32.136-11.304-42.157-25.912-6.334-9.233-9.015-19.42-9.786-30.427-2.134-30.427 3.091-62.618 4.603-93.134a1465 1465 0 0 0 .396-156.565 4157 4157 0 0 0-4.341-66.186c-1.153-15.604-5.577-33.952-2.163-49.342a58.64 58.64 0 0 1 26.838-37.164c10.921-6.656 24.046-10.349 36.8-10.829 13.179-.497 26.685.823 39.873 1.459a4711 4711 0 0 0 56.12 2.129c64.139 2.182 127.727 3.339 191.876 1.804q41.431-.792 82.837-2.423c22.905-.995 70.292-6.237 91.062-.99a61.64 61.64 0 0 1 38.601 28.876c5.236 8.866 8.183 18.258 8.623 28.585.564 13.208-1.323 26.718-2.424 39.872l-4.838 61.951c-3.702 54.373-2.818 111.228 2.626 165.527 18.365-14.932 55.755-46.349 66.581-66.389-1.407-3.649-2.423-7.01-3.249-10.831-12.508.607-26.756 2.462-36.923-6.56-11.622-10.312-13.633-28.985-14.09-43.599-.521-16.661-.162-35.686 12.152-48.515 12.596-13.122 36.782-21.915 54.815-21.889a49.85 49.85 0 0 1 36.334 15.492c11.271 11.744 14.712 27.521 23.364 40.786 17.917 5.83 34.97 11.941 44.52 29.758 3.643 6.796 4.966 14.44 2.295 21.825-3.065 8.478-9.444 13.55-16.581 18.441 27.082 20.954 56.402 39.759 81.562 63.168 12.53 1.857 24.77 2.9 33.03 13.721 12.27 16.066 37.47 86.451 34.89 105.906-1.1 8.231-7.88 14.703-14.33 19.246-18.38 12.942-39.75 20.659-62.27 16.933-2.13-.52-3.56-.862-5.74-.445-.08 5.379 15.86 59.738 18.26 70.094a3034 3034 0 0 1 29.68 143.8c3.27 18.54 7.03 37.167 9.22 55.877-5.52 8.72-11.73 13.32-20.38 18.46 2.95 14.77 5.85 29.56 9.04 44.27.7 3.28.92 9.01 4.01 10.61 1.66.86 1.14.11 2.75 1.56 6.5 5.84 17.53 34.59 17.19 43.89-.13 3.43-1.32 5.77-4.01 7.94-2.78 2.25-6.65 3.97-10.15 4.68-14.02 2.83-79.24 2.15-95.65.79-7.57-.63-15.37-1.91-20.348-8.3-2.106-2.71-3.087-5.84-2.575-9.26.766-5.1 4.159-9.56 7.759-13.07 5.133-5.01 12.134-8.89 18.104-12.88 11.85-7.89 23.76-15.6 35.08-24.24-2.32-9.68-5.23-18.86-8.71-28.19-4.35 1.14-8.69 1.88-13.12 2.61-10.56-17.45-18.31-45.27-25.148-65.041a5141 5141 0 0 0-33.565-94.791c7.786-10.742 15.689-21.232 23.096-32.257 6.697 19.052 11.397 39.096 17.287 58.438a2482 2482 0 0 0 29.44 88.981c3.94 11.32 6.99 25.85 13.62 35.68l.61-.79c-3.36-18.68-12.93-38.06-18.9-56.208A2512 2512 0 0 1 991.321 866c12.119-17.63 23.399-34.858 31.329-54.902 4.79-12.096 15.59-52.073 10.68-63.362l-.26.028c-3.79 13.514-3.04 27.98-6.34 41.68-3.74 15.505-10.3 31.006-18.13 44.904-10.869 19.299-24.757 37.104-37.232 55.377-20.395 29.874-41.503 58.796-63.009 87.867-13.864 18.742-27.367 38.398-43.331 55.438-7.126 7.6-14.493 13.48-23.376 18.89-4.828-.16-9.745-1.04-14.541-1.65-8.955 16.35-19.107 32.17-28.61 48.22 2.809 16.26-1.342 37.39-10.209 51.39-2.498 3.95-5.67 7.59-10.464 8.46-11.504 2.08-31.709-9.73-41.133-15.63-14.98-9.39-60.204-40.81-63.414-57.46-.817-4.24-.704-9.12 2.248-12.57 12.106-14.14 44.561 1.09 59.721.72 1.284-.03 2.495-.27 3.719-.66 4.471-1.39 9.406-4.26 14.011-4.74 3.343-.36 6.584.33 9.95-.18 7.682-9.1 13.246-21.84 19.038-32.36l-10.071-6.24c24.315-64.908 53.172-128.197 82.343-191.043 11.541-24.864 23.413-56.47 39.557-78.36-1.34-.843-.61-.534-2.457-.904-2.281-.456-4.828-.771-6.934-1.804-13.686-6.713-25.452-37.652-31.071-51.312-2.838-9.233-5.241-18.731-8.358-27.857-11.571 3.611-22.941 8.051-34.644 11.189"/><path fill="#ed766c" d="M638.587 690.316c-22.741-2.69-45.918-2.483-68.789-2.816-54.237-.791-108.23 1.683-162.379 4.467-28.134 1.447-56.233 3.511-84.411 4.029-4.885.09-12.567.693-16.749-2.091-2.493-1.66-4.557-3.8-5.05-6.878-2.089-13.07 2.045-33.162 3.383-46.874a820 820 0 0 0 3.395-45.19 1757 1757 0 0 0-1.942-184.337c-1.027-14.099-8.89-66.777-2.845-74.758 1.753-2.315 4.088-3.444 6.904-3.732 11.087-1.132 23.556.24 34.741.478 31.971.681 63.911 2.353 95.877 3.054a4085 4085 0 0 0 246.952-1.885c11.544-.402 66.411-5.287 73.979 1.404 5.014 4.433 5.437 9.792 4.995 16.167-.826 11.896-2.852 23.723-3.757 35.642a1429 1429 0 0 0-4.965 141.263c.348 19.961.958 40.036 2.709 59.924 1.354 15.377 3.717 30.814 4.44 46.221l.174 2.264c10.448-3.118 21.126-10.252 30.656-15.571 9.686 19.812 16.119 42.023 28.618 60.387-12.927 6.145-30.11 10.915-44.49 10.627-8.6.936-17.407 2.543-26.014 3.027a377 377 0 0 1-51.165.221l-3.665-14.19c-6.312.385-11.874 2.985-17.972 3.575-9.694 1.459-25.904 5.941-35.144 4.818.837-1.815.374-1.086 1.25-2.269l-1.238-.969z"/><path fill="#fdfefe" d="M795.905 621.097c9.686 19.812 16.119 42.023 28.618 60.387-12.927 6.145-30.11 10.915-44.49 10.627-8.6.936-17.407 2.543-26.014 3.027-2.006-16.813-7.192-33.027-8.455-49.965 5.913-2.577 11.98-4.863 17.976-7.248l1.709-1.257c10.448-3.118 21.126-10.252 30.656-15.571"/><path fill="#ed766c" d="M745.564 645.173c5.913-2.577 11.98-4.863 17.976-7.248 3.38 18.124 7.434 37.958 16.493 54.186-8.6.936-17.407 2.543-26.014 3.027-2.006-16.813-7.192-33.027-8.455-49.965"/><path fill="#fdfefe" d="M700.215 662.112c14.14-7.108 30.475-11.332 45.349-16.939 1.263 16.938 6.449 33.152 8.455 49.965a377 377 0 0 1-51.165.221l-3.665-14.19c-2.361-7.645-1.199-11.662 1.026-19.057"/><path fill="#07264e" d="m765.075 634.404.174 2.264-1.709 1.257c-5.996 2.385-12.063 4.671-17.976 7.248-14.874 5.607-31.209 9.831-45.349 16.939-2.225 7.395-3.387 11.412-1.026 19.057-6.312.385-11.874 2.985-17.972 3.575-9.694 1.459-25.904 5.941-35.144 4.818.837-1.815.374-1.086 1.25-2.269l-1.238-.969c3.134-2.099 6.89-3.457 9.293-6.457-1.275-2.558-5.995-3.746-8.718-4.855l.378-1.297c1.248-.927 1.281-1.036 2.882-1.773 6.651-3.063 23.556-2.517 31.051-1.263 4.212.705 8.523 2.68 12.498 4.225 1.595-4.756 2.74-9.71 4.034-14.558 8.898-5.616 56.636-22.923 67.572-25.942"/><path fill="#fcf2e9" d="M647.323 687.293c10.879-4.205 23.359-12.582 35.002-13.584 2.601-.224 3.539.13 5.524 1.737l-.015 2.566c-1.769 3.574-3.191 4.748-6.617 6.732-9.694 1.459-25.904 5.941-35.144 4.818.837-1.815.374-1.086 1.25-2.269"/><path fill="#fdfefe" d="M547.012 427.333c1.854.044 1.316-.156 2.785.458 2.237.936 13.231 34.186 15.253 39.475l16.857-40.039c6.108 13.019 10.848 27.066 16.039 40.484 3.954-13.485 8.535-26.702 13.198-39.956l12.9.092c-3.047 10.063-7.332 20.018-11.043 29.87-5.196 13.019-9.242 26.501-14.299 39.592-6.379-13.65-11.533-28.155-17.165-42.142-5.043 14.006-11.524 28.02-18.438 41.198-5.438-15.986-11.252-31.907-17.092-47.751-2.455-6.662-5.458-12.845-7.529-19.684 1.662-1.45 6.212-1.352 8.534-1.597m-121.084-1.493c13.158 10.595 29.036 29.936 42.727 42.455l-.195-40.332c4.118-.232 8.317-.072 12.445-.08-.236 22.266.305 44.561-.536 66.816-.819.717-.262.391-1.863.533-14.091-13.445-27.201-27.769-40.638-41.855l-.041 39.697-12.274-.061c-.03-22.274-.922-44.954.375-67.173m66.577 2.107c11.765-.08 27.466-2.525 38.666.67.45.779.717 1.122.89 2.11.423 2.417.404 5.852-.921 7.87-7.284 2.929-18.52 1.477-26.436 1.335l-.059 13.774c6.798-.088 13.95-1.081 20.682-.207 2.194 1.271 3.647 2.5 4.269 5.109.605 2.539.201 3.582-.992 5.666-7.079 2.144-15.116-.067-22.512 1.108l-1.065 1.628-.014 14.146 27.484.003.159 11.726-39.764-.012zm-8.533 111.727c8.221-.128 18.116-1.163 25.808 2.318 3.662 1.657 6.744 4.292 8.146 8.144 1.615 4.438.724 9.491-1.199 13.692-2.392 5.227-5.601 7.111-10.774 9.207 3.358 5.135 12.509 15.909 11.589 21.93l-3.666 1.325c-.514-.097-1.032-.178-1.543-.29-7.903-1.729-13.944-15.512-18.117-22.122.095 6.069 1.615 16.399-2.152 21.324-2.685.175-5.151.715-7.469-.933-2.617-17.193-.696-37.051-.623-54.595"/><path fill="#ed766c" d="M494.731 548.672c1.805.064 3.613.099 5.391.448 2.585.507 5.353 1.631 6.549 4.179 1.651 3.518-.086 7.568-1.37 10.878-1.391.438-2.894.992-4.343 1.24-2.513.429-3.541.199-5.574-1.25-1.964-4.573-.89-10.592-.653-15.495"/><path fill="#fdfefe" d="M441.036 539.609c5.861-.081 12.149-.501 17.952.386 5.21.795 10.181 3.004 13.244 7.458 3.039 4.419 3.173 10.075 1.893 15.123-1.493 5.888-4.477 8.708-9.565 11.709 3.884 7.249 8.2 14.194 12.543 21.171l-11.211.106c-5.588-5.669-9.498-15.718-13.854-22.676-.107 7.527-.027 15.066-.034 22.594l-10.774.092z"/><path fill="#ed766c" d="M452.099 549.713c1.966.079 4.093.105 6.008.615 2.194.584 4.453 1.642 5.455 3.817 1.748 3.792.238 7.366-1.133 10.987l-1.757.36c-3.12.614-5.165.821-7.842-1.024-1.964-4.217-.938-10.166-.731-14.755"/><path fill="#fdfefe" d="M407.515 536.665c.777.701.911.762 1.614 1.752 4.079 5.74 25.331 51.355 24.436 56.293-1.729.886-4.501 1.445-6.427.786-5.113-1.749-4.944-7.008-8.08-10.402-2.115-2.29-4.002-1.762-6.808-1.784l-14.035-.134-4.82 11.829-12.475-.056c8.855-19.439 17.272-39.061 26.595-58.284"/><path fill="#ed766c" d="M407.705 559.606c3.32 2.644 5.377 8.643 5.88 12.762l-1.502 1.109c-3.234-.131-5.539.37-8.165-1.605-.852-3.694 2.3-8.851 3.787-12.266"/><path fill="#fdfefe" d="M619.088 538.532c1.58 1.828 2.665 3.648 3.773 5.786 2.401 4.633 22.634 47.849 22.736 49.929.028.591-.362 1.127-.543 1.69-.909.165-1.816.347-2.734.451-3.132.356-5.515.133-8.025-1.905-.895-2.641-1.807-6.153-3.826-8.151-2.264-2.24-4.306-1.686-7.219-1.697l-13.898-.065c-1.58 3.763-3.235 9.865-7.376 11.437-2.077.789-5.268.394-7.235-.44-1.321-6.904 19.936-49.056 24.347-57.035"/><path fill="#ed766c" d="M619.34 560.741c2.568 3.297 5.166 8.688 5.088 12.907l-2.41 1.552c-2.43-.259-4.53-.323-6.635-1.704-1.177-4.289 2.084-8.856 3.957-12.755"/><path fill="#fdfefe" d="m545.549 539.905 12.568-.172a859 859 0 0 0 12.656 32.082 946 946 0 0 0 11.586-32.059c3.854-.052 7.387-.67 10.401 1.935.94 5.082-3.736 12.669-5.78 17.464-4.962 12.327-9.603 25.787-16.356 37.232-8.386-18.805-15.902-38.039-25.075-56.482m107.184-.125 1.01-.068c3.347-.212 7.06-.818 9.683 1.496 1.818 13.72.355 28.999.173 42.887 6.682.114 14.639-2.01 20.7 1.162 2.176 3.387 1.617 6.079 1.628 9.977-10.932.513-21.959.307-32.906.382a4856 4856 0 0 1-.288-55.836m-124.774.053c3.541-.072 6.857-.471 10.119 1.153 2.925 10.636.869 41.351.815 54.021-3.342.143-6.076.312-9.273-.771-3.689-9.183-1.683-42.645-1.661-54.403"/><path fill="#ed766c" d="M735.321 304.573c15.247-1.154 31.667-2.463 44.39 7.831 7.851 6.351 12.205 15.63 13.27 25.556 2.46 22.943-4.211 66.892-5.328 92.543-2.781 63.802-2.011 126.116 3.879 189.728-3.536 2.139-7.408 3.808-11.132 5.597-6.981-70.72-6.581-141.135-3.013-212.051 1.104-21.945 4.722-43.904 5.3-65.828.277-10.543-1.979-18.531-9.674-26.091a24.55 24.55 0 0 0-12.588-6.473c-14.815-2.764-40.378.39-56.267 1.198-85.3 4.502-170.75 5.49-256.132 2.963-30.064-.749-60.106-2.255-90.157-3.412-14.516-.559-29.162-1.674-43.68-1.41-9.319.17-17.626 1.646-24.173 8.791-6.208 6.775-8.156 13.563-7.845 22.574.626 18.209 3.774 36.569 5.16 54.775 3.246 42.666 5.217 84.959 4.681 127.756a1394 1394 0 0 1-4.677 98.871c-1.433 17.868-4.854 36.399-4.236 54.308.239 6.905 1.207 18.143 6.687 22.843 5.182 4.445 12.959 6.302 19.585 7.051 18.902 2.136 39.538-.235 58.47-1.238a5019 5019 0 0 1 83.006-3.578c22.146-1.791 44.909-1.683 67.126-1.79a2623 2623 0 0 1 149.351 3.933c26.404 1.256 54.046 5.327 80.415 4.018 14.058-.698 21.733-16.08 28.673-16.532 2.706-.176 3.127 0 4.894 1.803.181 3.26-1.636 6.107-3.525 8.64-6.908 9.259-17.827 15.3-29.277 16.619-22.006 2.536-50.528-1.905-73.131-3.071a3908 3908 0 0 0-123.043-3.432c-43.279.136-86.55 1.139-129.789 3.009-34.84 1.817-70.152 5.185-105.04 4.072-11.781-.376-23.67-1.65-32.943-9.72-8.68-7.554-11.633-17.595-12.195-28.708-.903-17.854 2.36-36.388 3.783-54.224a1859 1859 0 0 0 4.402-81.988c1.242-48.237.007-96.506-3.698-144.617-1.434-18.554-4.464-36.99-5.762-55.53-.856-12.223.548-23.249 9.154-32.707 6.768-7.439 15.026-10.948 24.925-11.796 17.927-1.534 37.13.112 55.108.765 32.767 1.19 65.487 2.715 98.275 3.318 92.28 1.713 184.591.257 276.771-4.366"/><path fill="#fdfefe" d="M938.734 602.305c-1.27-4.945-5.678-24.645-4.483-28.125 26.168 17.123 53.219 35.325 75.819 57.061 1.87 6.675 3.1 13.505 5.03 20.162l.3 2.727c2.56 8.848 5.09 17.676 8.12 26.375l3.16 8.355c-16.92 9.366-63.376 39.821-78.831 43.901-13.715 7.76-44.308 26.299-59.881 22.32-7.079-1.809-11.626-10.293-15.584-15.842-3.7-6.4-6.955-12.788-9.946-19.549l-6.534-15.03a958 958 0 0 1-5.616-18.935l-2.826-8.91c32.506-14.77 53.458-26.569 77.687-53.008 3.613-4.904 7.293-9.782 10.777-14.777 1.492-2.139 3.315-4.104 2.808-6.725"/><path fill="#fdfefe" d="M872.384 739.239c24.917-15.161 50.435-29.283 75.311-44.518 14.511-8.887 54.945-36.464 67.705-40.591 2.56 8.848 5.09 17.676 8.12 26.375l3.16 8.355c-16.92 9.366-63.376 39.821-78.831 43.901-13.715 7.76-44.308 26.299-59.881 22.32-7.079-1.809-11.626-10.293-15.584-15.842"/><path fill="#ed766c" d="m1023.52 680.505 3.16 8.355c-16.92 9.366-63.376 39.821-78.831 43.901 4.744-5.438 12.243-9.549 18.211-13.64 18.83-12.908 39.61-24.579 57.46-38.616m-13.45-49.264c1.87 6.675 3.1 13.505 5.03 20.162l.3 2.727c-12.76 4.127-53.194 31.704-67.705 40.591-24.876 15.235-50.394 29.357-75.311 44.518-3.7-6.4-6.955-12.788-9.946-19.549 35.213-17.124 68.651-38.513 101.982-59.003 14.992-9.217 32.304-18.015 45.65-29.446m-55.369-24.266c4.126 3.306 10.692 10.009 15.901 10.63-.869-3.153-5.322-4.02-6.269-7.339 4.248.986 7.028 4.192 9.961 7.223-34.071 22.246-69.986 43.925-106.699 61.501-5.641 2.701-11.767 4.155-17.307 6.735l-2.826-8.91c32.506-14.77 53.458-26.569 77.687-53.008 8.265-1.021 21.224-12.816 29.552-16.832"/><path fill="#ed766c" d="M1018.52 649.884c-3.15-10.425-7.31-23.855-3.45-34.45 2.06-5.666 6.27-9.912 11.84-12.167 12.17-4.918 43.64-3.063 55.54 2.183 14.85 6.548 20.12 22.215 25.24 36.277-5.69-7.479-9.71-14.143-19.8-15.34-4.05-.481-8.22.031-11.55 2.565-4 3.042-6.45 9.114-6.72 14.024-.29 5.368 2.05 10.284 5.85 13.982 5.83 5.681 15.01 8.889 23.11 8.338 4.42-.3 9.01-1.793 11.82-5.378 1.41-1.794 2.09-4.557 2.5-6.732 4.73 15.676 20 54.69 12.12 69.656-6.82 12.955-29.38 22.477-42.98 26.181-9.06 2.466-18.03 2.36-27.29 1.417-6.06-1.256-11.96-2.711-17.74-4.964-19.58-7.629-27.13-20.108-35.23-38.521 8.59-4.826 17.19-9.571 25.35-15.117 8.86 20.719 15.17 40.172 31.45 56.585-3.7-10.478-11.32-20.317-16.26-30.423-10.37-21.24-18.15-45.195-23.8-68.116"/><path fill="#fdfefe" d="M859.402 566.515c6.236-5.978 19.672-21.932 27.929-22.671 14.813 4.034 34.965 20.265 46.92 30.336-1.195 3.48 3.213 23.18 4.483 28.125-1.922 1.507-3.647 2.919-5.32 4.712-9.706 11.155-19.203 22.779-30.672 32.196a147 147 0 0 1-21.056 15.39c-11.687 8.722-24.115 14.463-37.867 19.199-6.312 2.533-12.82 5.694-19.296 7.682-12.499-18.364-18.932-40.575-28.618-60.387 5.974-3.661 11.575-7.34 16.962-11.829 7.948-9.451 19.799-17.962 28.983-26.503 5.625-5.6 11.719-10.857 17.552-16.25"/><path fill="#fdfefe" d="M841.85 582.765c8.861 12.687 35.948 58.52 39.836 71.838-11.687 8.722-24.115 14.463-37.867 19.199-6.312 2.533-12.82 5.694-19.296 7.682-12.499-18.364-18.932-40.575-28.618-60.387 5.974-3.661 11.575-7.34 16.962-11.829 7.948-9.451 19.799-17.962 28.983-26.503"/><path fill="#ed766c" d="M795.905 621.097c5.974-3.661 11.575-7.34 16.962-11.829 6.107 12.632 24.407 56.076 30.952 64.534-6.312 2.533-12.82 5.694-19.296 7.682-12.499-18.364-18.932-40.575-28.618-60.387m63.497-54.582c10.549 23.815 29.264 50.32 43.34 72.698a147 147 0 0 1-21.056 15.39c-3.888-13.318-30.975-59.151-39.836-71.838 5.625-5.6 11.719-10.857 17.552-16.25m27.929-22.671c14.813 4.034 34.965 20.265 46.92 30.336-1.195 3.48 3.213 23.18 4.483 28.125-1.922 1.507-3.647 2.919-5.32 4.712-15.064-21.068-32.256-41.337-46.083-63.173M692.059 1070.25c13.309-1 32.952 2.79 45.858 6.42-.459 3.26-1.241 7-1.07 10.26.13 2.5.919 3.43 2.766 4.93 1.69-3.78.515-9.36.666-13.63 3.577-4.14 8.92-5.89 14.212-6.8 2.812-.48 5.474-.51 7.781 1.44 5.571 4.71 4.082 14.04 5.183 20.61.638 3.8 2.22 7.33 5.536 9.51 7.149 4.69 15.942 1.82 23.599.3-.182 12.53-2.765 23.83-6.459 35.75-2.49 5.69-4.726 11.59-9.871 15.39-6.751 1.86-14.374-1.15-20.678-3.66-19.104-7.61-73.983-43.98-81.646-63.28-1.328-3.35-1.702-7.28.152-10.53 2.773-4.86 9.039-5.7 13.971-6.71m356.071 19.64c7.37 6.35 17.82 14.62 27.56 16.3 9.35 1.61 15.47-2.98 22.8-7.87 6.42 10.24 16.11 26.39 17.05 38.45.29 3.74-.44 7.37-3.18 10.11-8.66 8.69-53.6 5.23-67.61 5.18-12.56.09-44.811 3.51-53.966-6.45-1.755-1.91-2.58-3.86-2.269-6.49 1.61-13.62 27.595-27.23 38.015-34.06 2.66 2.12 4.76 4.75 7.93 6.05l1.11-1.43c-.05-3.65-1.35-4.04-3.83-6.57l.37-1.57c2.59-1.38 4.87-3.39 7.81-2.93l.37 4.44 1.88.66c1.77-2.28.48-5.09.85-7.86.38-2.88 3.04-4.23 5.11-5.96"/><path fill="#fcf2e9" d="M841.689 448.578c10.171 8.54 16.112 17.313 30.713 18.576l10.06.949c1.018 2.871-.36 4.635-1.389 7.411 1.02 7.269 4.215 11.787 8.492 17.492-7.645 12.33-15.384 18.858-28.742 24.586a64 64 0 0 1-6.819 1.016c-2.994.278-9.717.428-12.003-1.468 2.219-.598 5.016-.788 6.531-2.53-3.641-1.361-7.517-2.633-10.948-4.466-2.773-1.481-5.347-3.553-5.926-6.831-.94-5.318 2.784-10.307 5.332-14.661l-.253-10.156-.607-.398-3.38 6.581c-2.071-10.966 3.702-26.534 8.939-36.101"/><path fill="#fdfefe" d="M784.277 1036.41c13.176 4.78 26.448 9.29 39.81 13.52l-26.293 44.52c-1.331 2.79-1.673 4.78-4.669 6.16-3.879 1.8-12.047 3.09-15.947 1.35-7.988-3.57-8.259-21.77-11.748-29.72-.166-.38-.34-.76-.511-1.14 6.625-11.45 12.921-23.12 19.358-34.69m295.873 6.49 1.77.14c4.16 7.48 10.26 43.96 11.9 54.41-2.65 2.78-6.1 5.5-9.85 6.54-7.03 1.95-13.91-2.76-19.83-5.95-5.22-3.28-9.79-6.54-14.3-10.77l-7.97-28.84c12.83-5.02 25.68-9.97 38.28-15.53"/><path fill="#f7cebe" d="m897.673 535.79 9.646-6.738c19.995 8.112 34.955 11.249 56.457 8.041 3.956 3.54 7.859 7.202 10.789 11.656 6.49 11.285 7.863 26.047 10.276 38.695-11.801-8.303-23.62-16.483-35.783-24.25-17.055-9.694-32.046-22.528-51.385-27.404"/><path fill="#fdfefe" d="M974.565 548.749c6.49 11.285 7.863 26.047 10.276 38.695-11.801-8.303-23.62-16.483-35.783-24.25 3.923-2.623 7.53-1.647 11.994-2.462 6.827-1.246 9.914-6.697 13.513-11.983"/><path fill="#fcf2e9" d="M978.094 549.434c8.79 3.551 54.526 40.693 58.096 47.981l-2.43.689c-9.15 1.309-17.8 3.412-26.72 5.773-6.61-3.993-12.586-8.85-18.654-13.607-4.149-13.501-5.146-27.488-10.292-40.836M679.813 686.271h1.255l.075.657c-14.223 9.434-25.315 9.964-42.016 9.936l-1.361-.959.974-1.896c10.525-5.724 29.074-5.766 41.073-7.738"/><path fill="#fdfefe" d="M888.121 518.679c2.901 1.461 12.582 8.397 14.037 10.998l-2.311 1.032c-1.848 1.406-3.749 3.146-6.008 3.804-1.386.403-2.398-.5-3.632-1.074-3.059-3.938-2.642-10.032-2.086-14.76"/><path fill="#fcf2e9" d="M883.821 526.003c.972 1.802 1.535 4.505 1.74 6.537.346 3.443-.274 4.466-2.575 6.896-1.791-2.477-3.317-4.362-3.81-7.474 1.098-3.131 2.207-3.798 4.645-5.959"/><path fill="#ed766c" d="M523.112 1036.23c30.257-5.83 59.479 14.09 65.107 44.38 5.629 30.3-14.489 59.38-44.823 64.8-30.042 5.37-58.786-14.51-64.361-44.51-5.574-30.01 14.111-58.89 44.077-64.67M307.079 883.513c8.225 9.527 17.141 30.459 23.188 42.3 15.647 1.122 30.894 3.673 46.23 6.94-11.795 10.384-22.469 22.53-33.567 33.692 3.6 15.611 4.933 32.521 7.303 48.425a667 667 0 0 0-41.754-22.014c-8.947 2.12-32.587 16.154-42.573 21.154 2.434-16.028 4.637-32.138 7.554-48.087a4616 4616 0 0 1-33.367-33.457c15.524-2.449 30.867-5.898 46.476-7.843a4346 4346 0 0 1 20.51-41.11m792.351-675.069c7.48 3.748 12.31 17.184 15.85 24.592 7.38 1.238 18.8 1.862 25.2 5.405 1.99 1.104 1.98 1.543 2.49 3.616-2.94 7.398-12.13 14.814-17.79 20.57 2.49 10.896 3.76 21.538 3.99 32.714l-27.53-12.468c-6.73.135-14.65 5.479-20.51 8.654-2.47 1.337-3.81 2.649-6.54 1.804-3.3-7.277.21-22.386 1-30.426-4.81-5.084-16.95-14.894-17.4-21.737 4.15-5.419 19.61-6.356 26.22-7.506 5.46-8.166 9.04-17.337 15.02-25.218M550.991 856.686a19.868 19.868 0 1 1 11.431 38.05 19.867 19.867 0 0 1-25.241-17.738 19.87 19.87 0 0 1 13.81-20.312M1118.58 454.61c9.65-2.416 19.43 3.427 21.88 13.067 2.44 9.639-3.37 19.441-13 21.918-9.67 2.488-19.53-3.356-21.99-13.038-2.45-9.682 3.42-19.519 13.11-21.947M937.195 310.565c7.688-2.339 15.814 2.009 18.135 9.703s-2.045 15.809-9.744 18.113c-7.674 2.296-15.758-2.053-18.072-9.722s2.017-15.763 9.681-18.094M208.67 1114.6c6.086 4.11 12.074 11.59 17.369 16.9-5.241 5.87-10.892 11.45-16.353 17.12-4.937-1.33-13.46-12.86-17.344-16.98 5.894-5.3 11.074-11.12 16.328-17.04"/><path fill="#07264e" d="m1270.28 110.129 667.25-.196c-.87 50.447.27 101.061.3 151.529l-.14 301.422-.55 972.006.31 310.53-.21 59.97c0 9.23 1.48 21.08-.57 29.93l-1.57.69-664.76.46c-1.08-25.47-.34-51.3-.34-76.8l-.01-141.94.18-436.55z"/><path fill="#fcf2e9" d="M1732.36 115.879c66.52-1.139 133.11.093 199.64-.069l-.85 1815.05-95.54.14c-14.34.02-31.07 1.67-45.15-.65-.61-2.44.56-2.81.55-4.95-.04-7.35-9.43-15.28-15.08-18.6-10.84-6.37-23.85-10.5-35.36-15.88-2.74 2.86-2.6 6.47-5.65 9.02l-1.05-.48c-.01-2.83 0-5.66.04-8.48l-.86-.78-4.06 2.63-1.35-.65c.04-.57.09-1.15.12-1.73.11-2.37.2-1.43-.39-3.56l-2.81-.82c-.77-2.77 1.18-7.2 1.99-10.05l11.11-10.4-.93 1.22c-3.94 5.16-6.76 10.62-9.62 16.43l.26.96c4.33-4.01 10.89-12.44 11.23-18.47.08-1.45-1.27-4.39-2.22-5.47-1.07-1.22-1.87-1.69-3.45-1.5-2.17.25-3.85 1.03-5.85 1.86-1.57-.47-2.07-.23-2.93-1.79-2.77-4.99-2.12-12.85-2.3-18.47 8.43-.84 16.84-1.74 25.25-2.7-.07-30 2.1-60.34 3.47-90.33 2.43-53.09 4.7-106.61 4.46-159.77 12.91-3.01 25.4-7 37.83-11.61.44-13.51.82-26.86-.55-40.34-4.95-48.72-25.67-105.68-47.14-149.42 54.28-29.56 89.82-62.14 107.75-123.11 3.03-10.33 5.02-20.82 7.62-31.24 2.88-11.51 6.51-21.2 7.03-33.29 8.92-12.22 16.42-24.94 24.11-37.96-3.03-6.42-4.05-11.29-4.37-18.31-3.67.1-6.84.76-10.12-1.01-.08-.35-.16-.71-.25-1.06-.7-2.77-1.31-5.41-3.86-7.1-.51-.34-1.1-.54-1.65-.81-1.67 1.77-3.16 6.85-5.02 7.19-.09-5.12 1.96-9.84-2.01-13.92-1.33-1.36-1.55-1.2-3.24-1.59-3.19 1.45-4.34 3.91-5.5 7.08-3.72 10.22-4.43 22.06-6.49 32.72-2.55-2.81-4.51-5.22-8.07-6.68-1.29.16-2.19-.13-3 1.05-3.74 5.48-.1 20.99 1.01 27.37-4.03 9.15-10.4 15.64-15.57 23.97-20.43 32.94-42.13 68.73-80.16 83.4-14.94 5.76-31.18 6.42-46.76 9.49-2.81-6.01-9.95-18.32-8.84-24.73 2.63-3.94 7.13-5.47 10.85-8.2 11.82-8.7 17.44-24.98 14.67-39.2-2.06-10.55-8.77-14.87-13.8-23.55-6.8-11.74-2.07-17-16.28-26.42-10.48-6.95-23.61-8.41-35.72-5.76-12.37 2.71-24.52 10.3-31.45 21.06-7.27 11.3-6.48 24.03-3.52 36.58-10.92 9.29-16.46 16.44-21.04 30.26-12.87.35-24.49 1.98-34.02 11.66-6.94 7.05-10.77 17.1-10.53 26.97.25 10.03 5.1 19.35 12.32 26.16a43.3 43.3 0 0 0 31.66 11.83c9.99-.36 18.92-3.9 27.49-8.85-8.61 17.77-18.92 34.65-27.37 52.47-21.51 45.38-42.59 100.95-57.65 148.95-6.15 17.02-11.85 34.55-15.79 52.24 16.32 12.83 35.29 23.01 55.85 26.89-18.61 28.25-36.48 56.94-55.42 85-13.75 20.36-28.89 40.25-42 60.97 4.24 3.53 8.32 7.01 12.13 11.02-2.14 2.88-4.31 5.61-7.02 7.98-11.23 9.88-23.75 18.6-34.18 29.35-7.23 7.44-11.76 16.77-19.8 23.47-1.22 1.02-2.4 2.08-3.61 3.1 17.96 19.89 35.77 39.91 53.42 60.06 7.33 8.45 17.45 22.74 25.5 29.7 1.79 1.54 4.35 2.72 6.73 2.91 3.22.26 6.39-1.04 8.75-3.18 2.47-2.24 4.46-6.07 4.3-9.45-.08-1.7-14.17-37.22-14.73-37.6-1.75-1.18-4.08-1.32-6.12-1.65l-1.18-1.37c1.18-2 1.69-2.21 3.53-3.5 2.24-1.57 3.24-2.4 4.25-4.93l-.14-2.55-1.37-.53c-2.13 1.52-4.25 3.04-6.45 4.46l-1.54-.71c.85-4.69 2.9-7.01 6.81-9.7 3.08-2.13 6.42-3.96 9.66-5.84-4.4 1.65-9.11 4.06-13.87 3.77.66-2.88 13.05-9.63 16.04-11.52l3.17 1.63c-.23 1.87-.54 3.57-1.07 5.38l-.02-.12c3.52-.31 5.88-1.9 8.24-4.65 2.02-2.36 2.81-5.01 2.44-8.08-.42-3.5-3.68-7.9-6.59-9.78-2.15-1.38-4.91-2.21-7.33-2.96 6.26-6.23 12.44-12.46 18.31-19.06 8.02 5.57 16.32 10.95 24.08 16.88 28.2-27.3 48.8-61.81 72.12-93.17 2.23 37.72 2.97 76.39 7.69 113.86l21.89 2.44c.44 4.22.74 8.53 1.64 12.68.32 5.05 3.02 12.59 1.49 17.19-1.16.92-2.32 1.84-3.42 2.85-1.86 1.7-2.49 2.87-2.73 5.41-.88 9.26.96 19.62 1.2 29 .19 7.27-.96 14.32-1.31 21.57-127.04-1.44-254.24-.14-381.29-.14-.79-52.2.16-104.49.17-156.71l.13-333.82.06-947.972c-.07-12.66-.01-25.32.16-37.979-.81-41.642-.13-83.416-.08-125.068l-.09-213.424c56.55-.64 113.19-.114 169.75-.098 54.34-.169 108.68-.049 163.01.361 41.04.079 82.61 1.188 123.6-.371"/><path fill="#f7cebe" d="M1730.35 290.044c17.52 17.78 34.27 35.498 50.19 54.722-19.71 16.579-37.55 35.729-55.73 53.954a1839 1839 0 0 1-73.51 70.94c-18.45 16.972-38.56 35.313-60.42 47.732-18.85 10.71-40.41 18.142-62.35 16.207-66.75-5.89-88.85-95.395-138.03-99.223-16.02-1.247-31.01 5.37-45.17 11.974a300.8 300.8 0 0 0-61.69 38.94 83 83 0 0 0-7.63 7.168c-.07-12.66-.01-25.32.16-37.979 1.41 10.365.67 21.311.53 31.76 26.39-30.889 81.56-74.087 122.91-77.569 41.47-3.492 63.98 32.084 92.04 55.776 11.01 9.299 23.94 17.815 39.05 16.234 43.27-4.529 131.08-115.307 160.53-148.825 12.56-14.294 27.3-27.03 39.12-41.811"/><path fill="#07264e" d="M1664.79 233.619c26.93-3.749 53.86-10.402 80.57-15.581 48.77-9.455 97.85-18.539 146.34-29.315-4.88 27.327-12.09 54.51-18.36 81.556a4204 4204 0 0 0-32.06 145.96c-20.14-23.955-41.4-46.838-60.74-71.473-15.92-19.224-32.67-36.942-50.19-54.722-19.91-19.991-41.28-41.823-65.56-56.425"/><path fill="#ed766c" d="M1608.76 116.25c41.04.079 82.61 1.188 123.6-.371-3.5 11.103-7.45 21.82-14.72 31.071a60.53 60.53 0 0 1-41.02 22.945 60.9 60.9 0 0 1-45.13-13.375c-12.08-9.812-21.14-24.66-22.73-40.27m-229.32 39.293c30.21-4.772 58.61 15.718 63.61 45.889 4.99 30.171-15.29 58.723-45.42 63.945-30.45 5.277-59.37-15.264-64.42-45.754-5.05-30.491 15.7-59.258 46.23-64.08m384.15 429.596c1.82-.137 3.63-.266 5.45-.259 9.76.033 15.66 6.273 22.04 12.7.73-.77 1.46-1.53 2.2-2.282 6.09-6.134 13.64-10.524 22.53-10.343 7.11.145 13.65 3.374 18.46 8.549a32.6 32.6 0 0 1 8.43 23.963c-1.1 17.722-15.19 32.242-27.63 43.427-7.57 6.272-15.45 12.265-23.16 18.377-16.14-12.11-44.17-31.862-51.27-51.109a33.13 33.13 0 0 1 1.53-26.863c4.58-8.932 12.18-13.239 21.42-16.16m-403.56 419.251c-.48 2.84-1.48 4.2-3.55 6.09-5.97 5.45-14.35 6.74-22.15 6.05-9.68-.8-18.61-5.52-24.71-13.08-4.63-5.837-6.85-13.025-5.97-20.451 1.19-10.012 7.64-19.746 15.74-25.575a32.63 32.63 0 0 1 25.25-5.74 32.03 32.03 0 0 1 20.99 13.996c4.05 6.224 6.4 15.066 4.44 22.387-1.31 4.902-4.75 9.555-9.31 11.887-.5.256-1.02.486-1.52.736l-.79 1.14 2.57.89c-.53 1.5-.08 1.03-.99 1.67"/><path fill="#fdfefe" d="M1360.03 1004.39c-4.34 1.34-8.49 3.41-12.83 4.81-7.63 2.48-15.7 2.92-22.92-.97-6.44-3.46-11.59-9.142-13.59-16.231-2.06-7.268-.35-14.79 3.42-21.196a27.9 27.9 0 0 1 17.96-13.262 29.05 29.05 0 0 1 21.83 3.781c5.32 3.406 9.37 8.562 10.68 14.818 1.64 7.851-.67 14.027-5.17 20.32l-1.09 1.505c-2.83-.793-3.47-.513-5-2.968-.67-9.051 6.45-18.127 2.01-26.193-1.59-.662-1.81-1.186-3.54-.506-2.16.849-3.6 2.158-5.32 3.651-2.5-.615-4.75-1.29-7.16-2.197-3-1.133-4.99-1.405-8.07-.139-5.07 2.089-9.9 8.807-11.3 13.972-1.05 3.899-1.22 9.736 1.16 13.243 1.97 2.924 5.77 4.032 9.13 4.152 8.29.3 13.46-2.379 21.08 2.02 2.63-.12 4.61-.32 7.14-1.17l2.57.89c-.53 1.5-.08 1.03-.99 1.67"/><path fill="#fdfefe" d="M1334.8 974.968c1.91-.161 3.91-.412 5.82-.326 2.91.13 3.77 1.072 5.69 3.114.51 1.456 1 2.818.85 4.393-.5 5.17-3.75 9.534-7.64 12.687-1.38.115-2.76.231-4.14.242-2.66.022-4.29-.647-6.05-2.663-1.3-1.496-1.81-3.863-1.62-5.833.47-5.05 3.45-8.413 7.09-11.614"/><path fill="#07264e" d="M1442.88 843.788a23.458 23.458 0 0 1 26.86 30.868 23.46 23.46 0 0 1-18.17 15.231c-12.61 2.137-24.6-6.217-26.97-18.783s5.76-24.715 18.28-27.316"/><path fill="#fcf2e9" d="M1444.91 853.727c7.24-1.555 14.39 2.936 16.13 10.126 1.75 7.189-2.55 14.46-9.69 16.392a13.65 13.65 0 0 1-13.36-3.671 13.647 13.647 0 0 1 6.92-22.847"/><path fill="#07264e" d="M1724.26 827.131c2.95-.17 6.71-.753 9.5.153 6.5 2.104.3 37.383 4.52 45.491 1.54 2.963 4.14 5.014 7.35 5.908 4.49 1.25 10.47 1.121 14.49-1.506 11.57-7.564 2.76-33.834 6.41-45.646.87-2.797 1.79-3.512 4.25-4.951 2.61.012 3.87.043 6.07 1.505 1.93 2.951 1.13 7.72 1.04 11.148-.06 7.155.35 14.318.49 21.472.15 7.78-.01 16.234-5.96 22.041-5.67 5.536-14.51 7.481-22.2 7.228-7.39-.244-15.51-2.767-20.44-8.56-9.27-10.876-6.65-40.572-5.52-54.283m-142.93 18.104c12.15-.875 22.78 8.122 23.91 20.254 1.14 12.131-7.62 22.949-19.73 24.35a22.41 22.41 0 0 1-20.75-9.159 22.4 22.4 0 0 1-2.12-22.585 22.41 22.41 0 0 1 18.69-12.86"/><path fill="#fcf2e9" d="M1579.41 855.661c6.63-1.89 13.55 1.933 15.48 8.558s-1.85 13.566-8.46 15.538c-6.67 1.988-13.69-1.832-15.64-8.515-1.94-6.683 1.92-13.674 8.62-15.581"/><path fill="#ed766c" d="M1540.36 312.606c11.63-2.821 23.38 4.19 26.42 15.767s-3.75 23.455-15.27 26.709a21.96 21.96 0 0 1-21.48-5.588 21.95 21.95 0 0 1-5.64-21.47 21.97 21.97 0 0 1 15.97-15.418m62.95 665.62c.03-7.278-1.71-21.103 2.9-26.669l3.09.467c4.07 8.57 3.11 45.74 1.64 56.116-1.52 1.57-.86 1.57-2.63 1.51-1.75-.05-2.49-.52-3.93-1.4l-.48-2.19-1.28-.38c-3.88 2.3-7.48 4.37-12.07 4.64-4.4.27-8.87-1.24-11.97-4.42-4.31-4.41-5.54-11.075-5.08-17.024.48-6.359 3.02-13.168 8.14-17.233 2.64-2.097 5.87-3.101 9.24-2.67 5.95.761 9 4.769 12.43 9.253"/><path fill="#fdfefe" d="M1603.55 995.391c-1.29 2.593-3.43 5.599-6.1 6.899-2.85 1.4-7.27 1.49-10.04-.08-2.94-1.66-4.55-4.612-5.22-7.828-1-4.825-.18-10.625 2.81-14.642 1.74-2.331 4.21-3.912 7.18-3.91 4.57.004 7.08 2.669 9.98 5.738 1.17 4.724.55 9.186 1.39 13.823"/><path fill="#ed766c" d="M1382.31 952.728c3.59.19 5.11-.36 7.8 2.148.84 2.509 1.24 4.17 1.02 6.824-.37 4.35-.39 8.675-.44 13.038 3.29-2.124 6.8-4.598 10.78-5.08 4.52-.557 9.07.722 12.64 3.549 4.06 3.278 6.25 8.229 6.74 13.357.71 7.506-1.83 13.506-6.37 19.286-2.77 1.91-6.31 3.55-9.64 4.18-3.66.69-6.38-.61-9.21-2.71-1.36-1.01-2.06-1.56-3.66-2.23l-3.8 4.18c-2.68.74-2.63.49-5.13-.83-2.2-16.203-.46-38.706-.73-55.712"/><path fill="#fdfefe" d="M1400.01 976.06c1.34.241 2.69.484 4.02.829 3.1.81 4.97 2.697 6.41 5.472 1.87 3.623 1.97 7.651.68 11.478-1.71 5.052-4.18 7.341-8.9 9.601-1.17-.18-2.3-.36-3.45-.65-3.5-.89-5.69-2.944-7.34-6.097-1.92-3.674-1.98-7.86-.61-11.731 1.76-4.98 4.56-6.742 9.19-8.902"/><path fill="#07264e" d="M1675.27 844.754c2.91.388 4.91.484 7.16 2.597-.03 2.059.15 1.501-.41 3.192-2.72 8.268-10.41 35.536-17.92 38.563-1.58.635-2.09.025-3.55-.543-4.32-5.191-7.77-19.673-10.43-26.711-2.3 6.77-5.67 22.311-11.59 26.575-1.3.94-2.11.445-3.59.253-6.73-5.304-9.71-17.517-12.67-25.395-2.03-4.902-5.3-10.715-4.82-16.106l1.49-1.233c2.25-.052 4.82-.399 6.87.678 3.94 2.076 9.29 23.004 11.04 28.222 2.09-7.258 5.05-23.674 11.53-27.531 1.5-.893 2.19-.31 3.77.055 6.65 6.005 9.18 18.395 11.97 26.751 2.96-9.935 5.95-20.344 11.15-29.367m-292.71-18.27c8.37-.026 16.9-1.112 25.23-.553 3.91.261 6.4.888 9.03 3.849.17 2.357.68 2.644-.81 4.615-10.93 1.838-22.92.718-34.01.626l.05 18.041c7.85-.106 22.06-1.838 28.92 1.463.55 2.403.46 4.032.09 6.462l-1.95 1.007-26.82.006c.09 6.436 1.99 22.368-2.23 27.087-2.88.145-4.6.227-7.24-1.215-2.86-10.629-.85-47.805-.79-60.872z"/><path fill="#ed766c" d="M1750.04 968.216c4.37.541 6.86 2.001 10.46 4.329 4.02 2.594 14.48-4.96 20.86-3.959 1.75.995 2.95 1.819 3.89 3.613 3.2 6.066 5.02 28.051 2.11 34.381-1.07 2.33-2.15 2.42-4.38 3.07-5.74-6.21-1.09-22.784-5.64-31.181-1.29-2.397-2.25-3.029-4.78-3.834-2.41.656-3.76 1.92-5.44 3.693-5.55 5.872-3.76 17.921-3.68 25.612.14 1.95.1 2.93-.75 4.71-2.25 1.37-2.25 1.74-4.78 1.19-5.52-5.89-2.08-17.159-2.25-24.875-.05-2.68-.59-5.437-2.72-7.248-2.2-1.861-5.09-2.414-7.86-2.382-11.03 7.188-1.59 24.665-8.03 34.215-2.53.87-2.6.64-5.12-.35-.98-6.9-2.8-34.117-.26-39.32.58-1.18 1.46-1.121 2.6-1.508 1.46.933 2.88 1.871 4.27 2.897l1.18.876c3.43-1.676 6.62-2.986 10.32-3.929"/><path fill="#07264e" d="M1805.04 841.104c6.43-.449 16.23-.54 21.43 3.865 1.27 1.079.88 1.82.93 3.334-9.23 11.492-8.81-.335-19.75 1.578-2.22 1.927-2.3 2.41-3.14 5.267 1.46 2.909 1.8 2.558 4.82 3.624 6.99 2.467 17.82 5.996 20.66 13.709.9 2.427.8 4.297-.35 6.62-2.4 4.89-7.28 8.304-12.23 10.079-7.73.465-17.43.192-23.52-5.198-.82-2.71-.59-3.102.25-5.849 5.51-4.597 12.57 3.561 19.79 2.235 2.26-1.444 2.84-2.328 3.87-4.8-2.29-7.067-15.79-8.5-21.3-13.855-2.18-2.111-3.27-4.497-2.87-7.583.61-4.62 7.73-10.725 11.41-13.026"/><path fill="#ed766c" d="M1694 969.204c3.91-.067 8.11-.37 11.65 1.575 4.09 2.25 6.64 7.029 7.68 11.443 1.37 5.778 2.88 22.498-.65 27.238-2.36 3.16-5.2-2.04-7.32-2.26-3.55-.37-9.05 3.39-13.34 3.22-4.38-.17-7.41-2.64-10.31-5.59-.39-1.33-.74-2.67-1.04-4.02-.72-3.319-.52-6.52 1.63-9.34 3.91-5.125 12.13-4.625 17.82-5.881 2.73-.603 3.79-.891 5.3-3.253-.81-2.535-1.16-2.955-3.11-4.787-5.94-1.966-12.02-.197-17.99.986l-1.02-.944c2.82-5.037 5.43-6.327 10.7-8.387"/><path fill="#fdfefe" d="M1690.2 992.132c3.63-.345 8.69-1.281 12.17-.347 2.09.559 2.35 1.201 3.44 2.906-.07 3.15-.89 5.3-2.07 8.149-3.08.92-7.09 2.08-10.26.91-2.72-1.01-3.13-1.78-4.57-4.124-.29-3.189.12-4.624 1.29-7.494"/><path fill="#ed766c" d="M1817.26 969.027c2.52-.115 4.92.08 7.38.599 6.37 1.341 10.55 6.607 13.66 12.01 1.5 2.621 1.98 4.456 1.26 7.456-7.21 7.551-17.14 1.753-25.58 4.931-1.76.665-1.08.202-2.05 2.158 1.39 3.045 3.46 5.419 6.69 6.629 3.93 1.48 8.4-.37 12.11-1.69l1.36-.67c1.81 1.5 1.97 1.75 2.69 3.98-.89 1.74-1.49 2.66-3.13 3.84-3.55 2.55-9.61 2.27-13.66 1.43-5.16-1.07-9.71-3.61-12.46-8.22-3.08-5.175-3.46-11.567-1.8-17.276 2.24-7.738 6.7-11.421 13.53-15.177"/><path fill="#fdfefe" d="M1816.87 975.983c2.5-.01 5.7-.289 7.96.934 2.29 1.236 4.98 4.046 5.7 6.569.57 2.024.54 1.161-.53 3.21l-2.75.407c-4.03.006-10.09.993-13.71-.598-1.77-.773-1.44-1.043-2.05-2.702 1.12-3.322 3.03-5.272 5.38-7.82"/><path fill="#ed766c" d="M1484.23 969.184c4.39-.117 8.97-.411 12.74 2.245 3.82 2.692 5.71 7.72 6.38 12.165.96 6.319 1.67 20.966-2.18 25.996l-2.24.1c-8.32-4.33-9.05.17-16.85.26-4.74.06-8.4-3.36-11.46-6.52-.54-2.65-1.06-6.012-.21-8.648 2.95-9.149 16.24-7.265 23.44-10.594 1.35-2.402 1.23-2.351.61-5.056-5.38-3.913-15.82-1.296-22.39-.719l-.04-2.946c3.91-2.819 7.64-4.752 12.2-6.283"/><path fill="#fdfefe" d="M1481.67 992.21c3.1-.367 7.46-1.22 10.43-.076 2.29.884 2.37 1.358 3.33 3.459-.7 3.295-1.5 4.647-3.64 7.257-2.63.35-6.28.95-8.87.1-2.74-.9-3.11-1.45-4.42-3.811.2-3.143 1.34-4.543 3.17-6.929"/><path fill="#07264e" d="M1523.23 825.308c2.77.043 4.83-.066 7.28 1.456 2.38 16.226.54 36.533.53 53.264 7.04.887 16.66-1.502 22.83 1.986.91 2.841.28 3.867-.49 6.692-6.22.179-12.47.434-18.69.367-2.55-.028-8.86.122-10.54-2.053-5.27-6.857-3.98-50.692-2.7-60.382z"/><path fill="#ed766c" d="M1631.2 968.782c2.43.071 4.82.299 7.23.536.79 1.825.62 1.152.97 2.927.07.386.14.774.2 1.16 4.4-.043 6.94-3.264 10.89-4.491 2.76-.859 6.09.187 8.52 1.602 3.24 1.893 4.45 5.297 5.24 8.786 1.81 8.011 2.81 22.448-1.5 29.528-2.5 1.26-2.34 1.19-5.02.32-2.1-4.95-.8-15.75-.82-21.4.01-2.096.12-5.632-1.05-7.374-2.03-3.043-5.46-4.325-8.93-4.879-13.56 4.572-3.48 25.273-8.48 33.723-2.61.36-3.86.47-6.28-.66-2.59-3.74-1-32.943-.97-39.778"/><path fill="#07264e" d="M1486.26 825.105c2.64.022 7.07-.345 9.3 1.032 3.84 2.375-.23 39.641.99 46.452.57 3.184 1.69 4.554 4.34 6.258 2.28-.095 3.89-.364 5.96.754.53 3.117.71 6.095.8 9.253-2.48.459-5.21.943-7.73.892a12.4 12.4 0 0 1-8.9-3.98c-8.56-9.238-4.93-47.026-4.76-60.661"/><path fill="#ed766c" d="M1522.18 969.09c2.03-.03 3.89.107 5.89.375l1.89 2.836c2.76 1.339 8.55-2.547 11.79-3.326 3.12-.75 7.86-.31 10.33 1.977 4.27 3.972 5.05 12.567 5.43 18.074.42 6.062 1.13 15.414-3.06 20.174-2.41.67-2.39.6-4.67-.46-1.39-6.7-.58-15.078-.63-21.99-.02-.928-.09-1.855-.19-2.777-.29-2.735-1.42-5.311-3.91-6.749-2.16-1.241-5.67-1.396-8.04-.695-13.27 3.928-2.94 23.711-7.73 32.531-2.52.5-3.75.64-6.18-.28-2.73-5.34-.91-31.729-.92-39.69m-85.49.148c1.78-.034 4.78-.469 6.42.02 2.84.844 1.27 3.217 2.79 5.37 2.24-1.319 4.24-3.591 6.51-4.662 2.46-1.161 3.34-.86 5.73-.119 1.37 2.041 1.59 1.534 1.11 4.177-3.1 3.157-6.4 2.644-9.9 4.739-2.75 1.648-3.52 5.152-4.19 8.043l-.21.944c.04 5.312 1.41 17.56-1.1 21.91l-2.82.69-2.1-1.34c-4.47-8.74-2.22-29.235-2.24-39.772m208.46 327.142c12.5 6.92 22.06 10.72 36.49 11.41 9.08 10.15 14.78 22.92 19.98 35.38 18.29 43.83 23.76 88.38 21.04 135.5a651 651 0 0 1-7.63 64.56c-5.55-27.02-13.04-53.66-18.32-80.69-7.07-36.18-5.18-97.16-39.08-119.86-5.43-3.64-12.73-7.54-19.43-6.27-8.1 1.53-13.24 7.01-17.48 13.72-18.14 28.75-13.09 73.46-5.56 104.64 11.45 47.44 34.71 91.5 52.91 136.6 4.77.19 8.2-.14 11.69 3.5 2.41 2.5 4.1 7.55 5.56 10.72-5.85.7-11.71 1.49-17.6 1.83-14.47 1.73-29.49 1.98-44.06 2.58-44.03 1.81-66.1-1.42-102.13-27.42 4.59-17.22 9.58-34.33 14.98-51.31 8.42-26.57 18.55-52.56 28.63-78.55 8.97-23.13 17.85-46.5 28.34-69 6.52-13.98 15.19-26.88 21.82-40.79 5.6-11.75 8.16-27.37 15.9-37.69 2.4-3.2 6.34-5.2 9.82-6.97 1.36-.69 2.74-1.29 4.13-1.89"/><path fill="#ed766c" d="M1637.89 1339.13c8.4.03 14.69 2.45 21.17 7.93 10.59 8.95 16.83 23.04 20.97 35.97 8.09 25.22 7.88 51.06 12.86 76.74 7.31 37.72 19.7 74.06 23.69 112.49-9.36 6.55-19.01 10.39-29.8 13.96-5.52 1.48-11.2 2.16-16.84 2.99-21.45-59.59-55.53-113.73-57.98-178.91-.56-15.07.18-30.35 4.82-44.81 3.79-11.79 9.99-20.64 21.11-26.36m192.08-132.48c11.12 1.37 20.72 7.47 29.74 13.76a625 625 0 0 1-6.89 31.1c-17.97 70.14-48.65 96.93-108.77 132.63l-5.01-10.96c-11.02-23.58-24.41-47.17-39.31-68.52 12.39-2.06 25.39-3.3 37.44-6.85 47.77-14.07 65.48-55.09 92.8-91.16m-138.65 93.12c1.85.6 2.33 1.04 3.59 2.48 9.42 10.8 16.64 26.12 23.74 38.55 37 64.75 75.78 156.31 70.19 232.19-3.97 2.23-8.38 3.85-12.57 5.64-6.83 2.6-13.44 4.74-20.58 6.34.54-64.55-1.43-127.95-20.54-190.05l-14.04-.09c-6.79-30.36-18.26-64.35-37.25-89.28z"/><path fill="#fdfefe" d="M1676.6 1210.48c5.74-4.41 7.67-7.88 10.1-14.64 4.95 5.44 7.97 9.93 10.44 16.97-4.42 1.47-9.2 3.55-13.82 4.14-5.14 1.27-16.2 2.44-19.25 6.86 10.66-.77 23.79-5.87 33.82-9.59 1.13.37 1.72.5 2.79 1.17 2.02 1.27 3.07 3.02 3.58 5.23-1.52.27-2.53.25-4.11.08-.57-.06-1.13-.13-1.69-.2 1.05 7.65 8.85 12.14 11.78 17.14 2.29 3.9 1.05 10.18-.47 14.1-2.91 7.5-9.08 15.36-16.8 18.28-12.49 4.73-29.51-9.63-40.45-15.02 10.75 10.1 19.44 13.1 32.7 18.53l.36 1.26-1.64 1.13c-4.66-.08-9.02-2.68-13.28-4.43l-.31 1.14c5.48 5.52 3.95 15.85 4.58 23.47-6.9-.81-13.13-1.71-19.54-4.54 2.63-7.91 4.24-14.87 4.12-23.28-2.87-4.78-5.57-9.65-8.1-14.62-2.33-.82-4.94-1.73-7-3.13-4.1-2.76-7.3-7.14-8.39-11.93.41-1.85.4-2.87 1.64-4.37 2.43-2.95 8.03-4.8 11.74-4.54 2.54.17 4.79 5.93 6.6 8.15l1.36-.39c-.25-3.22-2.43-5.31-4.24-7.93 8.86-4.6 15.39-13.08 23.48-19.04m-63.86 401.23c.1.44.28.86.31 1.31.67 8.85-93.89 148.15-107.63 168.34 8.61 7.11 17.45 13.73 26.5 20.27-5.05 5.12-10.24 11.01-16.29 14.94-8.57 5.58-16.19 6.33-25.83 4.11-1.14-.4-2.64-.59-3.37-1.63-3.15-4.4-2.2-17.13-7.83-24.55-2.2-2.89-5.63-5.15-8.52-7.31 7.52-5.01 14.21-10.59 20.53-17.04 4.29 3.19 8.42 6.64 12.6 9.98 9.19-17.72 23.35-34.26 34.26-51.11 15.22-23.34 30.27-46.79 45.17-70.34 8.73-14.08 19.31-35.47 30.1-46.97m60.82 229.48 45.18-.28 2.35 21.1c-3.72 1.51-7.51 2.88-10.95 4.98l-6.02 13.51c-10.97 2.05-19.92 1.4-29.56-5.02-3.75-2.5-8.46-6.29-9.38-10.92-.56-2.81-.72-5.79-.97-8.64-.33-4.67-1.05-9.36-1.62-14.01zm-235.06-19.03c11.18 9.98 20.11 23.23 30.32 34.32 15.09 16.39 31.55 31.61 46.01 48.57 1.92 2.24 4.21 4.49 4.54 7.52-1.48 5.43-5.35 7.98-9.81 11.04-8.22-5.35-27.62-30.67-35.07-39.21a5529 5529 0 0 0-46.75-52.4c3.34-3.58 7.03-6.68 10.76-9.84m223.2 97.16c24.47-1.08 49.21-.59 73.71-.68 14.35-.06 30.07-1.32 44.26.15 1.6.17 3.72.28 4.68 1.69 2.25 3.29 1.14 7.83.36 11.43l-79.74.12c-14 .02-28.75 1.1-42.6-.61-2.02-1.42-2.54-1.75-2.86-4.4-.33-2.69.66-5.57 2.19-7.7m204.98-722.55c-4.77-1.59-8.66-3.93-12.98-6.44-5.06-2.95-6.37-3.09-11.94-1.61-2.35-8.22-1.49-20.22-1.35-28.83l.93-.58c1.6 1.48 3.13 2.95 4.98 4.13 2.18 1.4.04-.14 2.34 1.58.3 2.34.4 3.37-.72 5.47l-1.29-.2-.7-4.96-.9 1.06c.06 1.07.09 2.14.22 3.21.32 2.65 1.08 5.59 3.2 7.23 4.13-5.1 6.07-36.28 10.13-45.63.85-1.98.87-2.24 2.93-3.07 3.51 4.89-1.59 24.29-2.38 30.87l.71.8c2.45-2.75 2.06-9.66 3.45-13.38 1.19 2.58-.36 6.95-.05 10.03.06.55.13 1.1.2 1.65.28-.54.57-1.06.84-1.6 3.22-6.39 3.1-15.03 8.95-20.05 1.99 6.8-2.46 16.24-4.9 22.63l-.84 4.23 1.34 1.46.42-.78c3.05-5.82 4.17-15.01 10.17-18.35 2.3.59 2.86.71 4.07 2.97 1.01 1.91 1.13 4.33.43 6.32l-1.24-.17-2.23-3.48c-2.2 1.69-7.69 14.07-9 17.32 3.64-2.86 11.48-11.86 15.22-12.66.16.43.35.83.47 1.27 2.14 8.13-15.24 31.8-20.48 39.56m-191.77 643.29c-.63-1.34-.72-1.4-1.14-3.06-2.17-8.61-.67-51.18-.89-63.09l-2.09-99.9c-.5-17.49-1.76-34.96-1.84-52.48-.02-4.18-.62-8.85 1.41-12.63 3.48 9.27 8.32 225.25 5.68 229.71-.31.53-.75.97-1.13 1.45m38.14-235.77 1.35.28c2.65 5.08 5.38 10.17 7.8 15.36 2.58 5.53 6.18 13.57 3.97 19.54l-2.06-.46c-3.59-3.21-5.89-7.38-8.45-11.41 2.55 6.9 5.39 13.71 7.99 20.59-3.78-3.76-6.65-7.44-9.57-11.86-1.49-2.65-3.25-4.83-5.21-7.16.71 5.61 6.19 13.25 9.02 18.21-1.32-.96-2.62-1.94-3.9-2.96-12.05-9.72-15.74-21.05-17.43-35.83 5.35-1.89 10.97-3 16.49-4.3"/><path fill="#07264e" d="m195.16 1255.5 690.456-.28 224.224.03c39.42-.04 79.72-1.94 119 .26.82 29.69.26 59.52.24 89.22l-.01 154.73-.04 437.7c-27.44.81-55.07.12-82.53.09l-1037.59.1-.511-681.56c28.9-.57 57.854-.26 86.761-.29"/><path fill="#ed766c" d="m114.761 1261.11 1108.379.12.02 168.55-872.992.06c-24.533 30.23-47.875 61.63-71.505 92.57-18.948 24.82-38.594 49.33-56.499 74.91 19.842 23.08 37.375 48.61 55.863 72.8 21.185 27.71 43.63 54.83 63.613 83.41 21.283.44 42.572.6 63.86.49l817.98-.16c-.83 59.23-.17 118.56-.35 177.8-42.58-.75-85.26-.24-127.85-.25l-249.696.09-731.272.08z"/><path fill="#07264e" d="m299.696 1428.44 8.102 5.52c-15.319 19.15-29.621 39.32-44.352 58.94a11890 11890 0 0 1-77.697 101.98c38.17 51.07 77.975 101.15 115.577 152.59-.645 3.32-2.31 4.58-4.5 7.11l-1.254.02c-13.711-14.57-25.513-33-37.693-49.03-27.877-36.68-55.382-73.96-84.069-110 41.249-56.2 85.717-110.13 125.886-167.13"/><path fill="#fcf2e9" d="M353.345 1439.83c37.874-1.1 76.08-.13 113.986-.12l215.068.16 540.811.5c0 9.19.05 18.38.16 27.57 1.61 49.48.09 99.4.13 148.93l.18 61.24c.05 11.81.65 24.1-.36 35.88-.44 9.75-.12 19.64-.15 29.4l-875.965.6c-14.626-15.28-27.044-34.12-39.859-50.98a4783 4783 0 0 0-73.704-95.7c11.965-17.51 25.857-34.22 38.67-51.19z"/><path fill="#ed766c" d="M353.345 1439.83c37.874-1.1 76.08-.13 113.986-.12l215.068.16 540.811.5c0 9.19.05 18.38.16 27.57l-848.151.2c-15.483 17.15-28.396 37.5-42.299 56.01-18.605 24.77-39.105 49.24-55.889 75.26l59.008 75.72c10.128 12.94 20.002 26.82 31.294 38.76 106.432 1.26 212.979.11 319.424.23l536.563-.13c-.44 9.75-.12 19.64-.15 29.4l-875.965.6c-14.626-15.28-27.044-34.12-39.859-50.98a4783 4783 0 0 0-73.704-95.7c11.965-17.51 25.857-34.22 38.67-51.19z"/><path fill="#07264e" d="M944.638 1599.54c2.844-7.47 14.026-36.1 17.55-40.96 1.647-2.26 2.541-2.75 5.254-3.15.906.53 1.544.82 2.272 1.68 4.388 5.19 11.16 51.73 9.886 59.44-.278 1.69-1.241 1.86-2.525 2.81-2.686.18-3.14.18-5.522-1.03-4.273-6.86-4.515-20.1-5.752-28.24l-1.792-12.08c-3.176 8.16-9.821 31.81-17.454 35.89-1.485.79-2.226.17-3.732-.23-8.609-8.11-11.038-22.04-16.581-32.26l-.834-1.51c-2.073 10.78-.891 27.01-5.961 36.51-1.252 2.34-2.207 2.88-4.66 3.68l-2.068-1.07c-.84-1.45-1.453-2.67-1.772-4.33-1.729-9.01 3.908-52.66 8.711-60.16 1.568.2 3.101.56 4.648.89 6.711 6.13 15.989 34.17 20.332 44.12m-347.031-28.37c4.95-.27 9.616-.53 14.318 1.38 5.691 2.3 10.183 7.08 12.481 12.72 2.797 6.88 2.685 15.29-.617 21.98-2.794 5.66-7.968 9.57-13.958 11.35-7.468 2.22-13.982-2.02-20.297-5.51l-.506 2.66c.157 5.96 1.819 15.99-2.522 20.6-2.711.44-3.187.09-5.753-1.01-.5-.72-1.161-1.36-1.498-2.18-1.639-3.97.066-51.9.786-59.21 1.494-1.74 1.572-1.93 3.778-2.44 2.598.74 3.68 2.35 5.336 4.34l.713.87q3.775-2.91 7.739-5.55"/><path fill="#fcf2e9" d="M596.825 1581.03c.993-.05 1.985-.11 2.979-.11 4.687-.03 8.479 1 11.74 4.56 2.733 2.97 4.218 6.87 3.863 10.92-.518 5.91-3.162 9.52-7.618 13.17-1.266.16-2.526.35-3.807.32-3.964-.07-7.236-1.47-9.93-4.38-3.252-3.51-4.489-8.09-4.004-12.81.558-5.42 2.74-8.21 6.777-11.67"/><path fill="#07264e" d="M792.67 1571.18c7.06-1.46 14.408.22 20.131 4.6a24.8 24.8 0 0 1 9.679 18.24c.728 12.4-7.82 23.42-20.006 25.8-13.392 2.62-26.385-6.07-29.081-19.44-2.696-13.38 5.916-26.42 19.277-29.2"/><path fill="#fcf2e9" d="M791.615 1581.12c2.569-.38 5.379-.63 7.972-.31 3.65.45 7.236 3.08 9.308 6.03 2.305 3.28 3.08 7.21 2.303 11.13-1.112 5.62-4.158 8.83-8.836 11.82-1.923.3-3.917.72-5.868.69-3.583-.07-7.363-2.21-9.588-4.95-2.615-3.22-3.517-7.44-3.046-11.5.68-5.88 3.315-9.25 7.755-12.91"/><path fill="#07264e" d="M1015.99 1571.26c13.35-2.68 26.33 6 28.97 19.35 2.64 13.36-6.06 26.32-19.42 28.92-13.32 2.61-26.225-6.06-28.856-19.37s6.006-26.24 19.306-28.9"/><path fill="#fcf2e9" d="M1015.48 1581.9c7.36-2.92 15.69.63 18.68 7.96s-.48 15.7-7.79 18.76c-7.39 3.1-15.9-.44-18.93-7.86-3.03-7.43.58-15.91 8.04-18.86"/><path fill="#07264e" d="M466.21 1570.7c2.213-.02 4.033.12 6.189.63 6.98 6.46 9.234 22.18 11.754 31.41 2.665-7.55 6.272-23.26 12.341-28.58 1.289-1.13 1.778-.68 3.328-.52 6.574 5.96 9.571 21.37 12.341 29.76 3.991-9.34 6.275-27.28 14.567-33.53 1.532.17 1.831-.21 2.569 1.1 2.64 4.7 1.498 8.14-.384 12.79-2.506 8.1-6.29 27.69-12.833 32.97-2.064 1.67-3.128 1.17-5.412.6-7.162-6.24-9.732-18.71-12.739-27.49-2.324 7.44-4.839 21.11-10.025 26.82-1.498 1.65-2.212 1.49-4.306 1.64-2.937-1.47-4.315-3.21-5.867-6.03-4.365-7.95-13.952-33.25-11.523-41.57m-38.8-18.53c3.068-.09 5.999.09 9.034.6 5.704.96 10.492 3.47 13.862 8.22.26 1.93.768 2.39-.56 4.13-4.018 5.27-14.296-2.5-19.241-2.64-2.892-.08-5.921 1.09-7.854 3.3-1.633 1.86-1.558 4.01-1.477 6.32 3.166 6.55 11.724 8.23 17.89 11.12 5.566 2.61 11.724 5.89 13.687 12.19 1.434 4.59.156 10.25-2.301 14.28-3.917 6.43-10.616 8.74-17.528 10.51-4.548 0-9.39-.36-13.721-1.81-3.801-1.28-9.57-3.82-10.966-7.97-.855-2.55-.737-3.28.562-5.37 7.331-2.91 15.735 4.91 23.161 4.49 2.588-.15 5.303-1.42 6.847-3.53 1.604-2.19 1.623-3.37 1.476-5.89-3.524-6.62-13.934-9.66-20.423-13.07-4.658-2.44-9.757-6.32-11.196-11.64-.993-3.67.104-7.28 1.889-10.51 4.179-7.55 8.687-10.42 16.859-12.73m693.78 19.04c2.77-.23 5.55-.36 8.33-.19 5.27.32 10.16 2.98 13.57 7.01 3.45 4.08 5.47 9.55 4.96 14.89-5.17 9.95-22.69 2.72-31.52 6.82-1.58.73-1.08.67-1.61 2.62 1.83 3.71 5.56 7.42 9.65 8.55 5.62 1.56 10.48-1.86 14.85-4.82l2.06.86c1.38 2.79 1.78 3.48 1.65 6.55-1.55 3.03-4.34 4.6-7.4 5.88-5.72 2.39-11.85 2.39-17.52-.14a25.56 25.56 0 0 1-13.51-14.77c-2.31-6.56-1.99-14.22 1.06-20.5 3.38-6.96 8.41-10.1 15.43-12.76"/><path fill="#fdfefe" d="M1121.77 1580.12c2.77-.23 5.51-.5 8.22.36 2.95.94 6.73 4.29 7.7 7.14.58 1.69.08 1.79-.69 3.22l-3.75.4c-5.33.2-13.18 1.48-17.61-2l-.16-2.42c1.65-2.99 3.63-4.59 6.29-6.7"/><path fill="#07264e" d="M659.519 1571.14c2.768-.18 5.737-.14 8.48.29 5.272.82 10.045 3.41 13.049 7.89 2.833 4.22 5.698 9.36 4.621 14.57-6.772 9.88-24.53.17-33.732 5.66-.612 2.46-.373 2.82.979 5 1.732 2.8 5.813 4.94 8.89 5.74 5.566 1.44 9.064-.58 13.708-3.49 1.493-.44 2.06-.06 3.537.31 1.551 2.54 1.603 2.64 1.303 5.6-1.969 3.07-3.886 5.13-7.332 6.55-5.621 2.32-13.125 1.15-18.545-1.22-6.138-2.67-10.607-7.54-12.718-13.91-2.187-6.6-1.493-14.27 1.67-20.43 3.617-7.05 8.763-10.18 16.09-12.56"/><path fill="#fdfefe" d="M660.943 1578.98c4.28.2 7.653 1.15 11.011 3.89 2.38 1.94 3.552 3.43 3.812 6.5-2.269 2.06-3.515 1.6-6.516 1.72-4.105.1-10.064.88-13.847-.68-2.366-.98-2.62-1.14-3.522-3.39 1.776-3.94 5.393-6.03 9.062-8.04"/><path fill="#07264e" d="M748.134 1550.19c2.251-.16 4.724-.4 6.958.04 2.84.56 5.848 2.49 7.381 4.92l-.556 1.76c-4.728 3.39-11.082 4.12-16.37 6.67-.979 2.22-1.064 3.4-.822 5.82 4.561 4.9 10.58.75 15.19 4.47.674 2.59.448 3.27-.225 5.9-4.057 1.8-11.207.9-15.706.94l-.063 27.46c-.014 2.53.102 5.2-.478 7.67-.619 2.64-.846 2.79-3.028 4.14-2.974-.28-3.284-.23-5.537-2.15-4.502-9.64-.502-22.79-1.4-33.24-.439-5.12-3.558-2.5-6.686-5.1-.347-2.49-.112-4.16.465-6.59 1.315-.69 2.263-.98 3.749-1.29.511-.11 1.025-.2 1.538-.29 2.394-4.43 2.334-8.88 4.072-13.43 1.715-4.49 7.493-6.14 11.518-7.7m110.681 20.05c1.863.22 3.748.42 5.565.91 3.348.91 5.057 2.62 6.6 5.54-.139 1.05-.153 1.64-.621 2.66-3.781 8.27-10.068-.33-15.197.86-7.21 8.4-5.085 27.76-5.194 38.27-2.12.44-4.086 1.01-6.233.41-1.695-.47-2.807-2.12-3.398-3.7-3.442-9.2-2.44-32.38 1.227-41.45 2.093-.63 3.805-1.17 6.012-1.12 4.023.08 6.301-.29 10.062-1.86.395-.17.784-.34 1.177-.52m207.735.1c1.44.39 2.77.87 4.16 1.4.8 1.78 1.1 3.04 2.7 4.23 2.3-1.68 4.69-3.56 7.39-4.54 2.58-.94 6.24-.27 8.63.94 2.12 1.09 3.3 1.83 3.96 4.2-4.14 4.47-13.26 3.96-17.45 8.73-2.67 3.03-2.83 5.58-2.73 9.42.01.34.03.69.04 1.03.21 6.57 1.44 15.09-.35 21.35-1.97 2.18-2.31 2.45-5.13 3.28-1.29-.41-2.38-.41-3.21-1.61-3.26-4.77-2.23-35.15-1.58-41.86.34-3.49.98-4.25 3.57-6.57m-518.674 2.7c.437-.05.872-.11 1.309-.16 2.815-.26 5.158-.56 7.426 1.27 1.428 12.48 1.717 32.89-.262 45.23-2.979.19-4.992.41-7.743-1.04-3.899-7.2-1.693-36.18-.73-45.3m1.059-18.7a5.18 5.18 0 0 1 5.417-.04c1.669 1 2.63 2.86 2.484 4.81a5.18 5.18 0 0 1-3.175 4.39 5.174 5.174 0 0 1-6.577-2.41 5.167 5.167 0 0 1 1.851-6.75"/></svg>