<svg version="1.1" xmlns="http://www.w3.org/2000/svg" style="display: block;" viewBox="0 0 2048 2048" width="1024" height="1024">
<defs>
	<linearGradient id="Gradient1" gradientUnits="userSpaceOnUse" x1="1433.28" y1="1234.29" x2="1452.52" y2="1290.9">
		<stop class="stop0" offset="0" stop-opacity="1" stop-color="rgb(0,0,0)"/>
		<stop class="stop1" offset="1" stop-opacity="1" stop-color="rgb(2,2,26)"/>
	</linearGradient>
	<linearGradient id="Gradient2" gradientUnits="userSpaceOnUse" x1="1563.15" y1="1248.64" x2="1582.16" y2="1295.64">
		<stop class="stop0" offset="0" stop-opacity="1" stop-color="rgb(0,0,0)"/>
		<stop class="stop1" offset="1" stop-opacity="1" stop-color="rgb(1,4,37)"/>
	</linearGradient>
	<linearGradient id="Gradient3" gradientUnits="userSpaceOnUse" x1="1520.25" y1="1236.68" x2="1537.07" y2="1356.89">
		<stop class="stop0" offset="0" stop-opacity="1" stop-color="rgb(1,3,16)"/>
		<stop class="stop1" offset="1" stop-opacity="1" stop-color="rgb(1,2,36)"/>
	</linearGradient>
	<linearGradient id="Gradient4" gradientUnits="userSpaceOnUse" x1="1286.32" y1="671.65" x2="1310.02" y2="674.512">
		<stop class="stop0" offset="0" stop-opacity="1" stop-color="rgb(0,0,1)"/>
		<stop class="stop1" offset="1" stop-opacity="1" stop-color="rgb(1,3,38)"/>
	</linearGradient>
	<linearGradient id="Gradient5" gradientUnits="userSpaceOnUse" x1="1326.34" y1="934.739" x2="1278.76" y2="943.813">
		<stop class="stop0" offset="0" stop-opacity="1" stop-color="rgb(0,0,0)"/>
		<stop class="stop1" offset="1" stop-opacity="1" stop-color="rgb(2,7,50)"/>
	</linearGradient>
	<linearGradient id="Gradient6" gradientUnits="userSpaceOnUse" x1="1050.6" y1="882.065" x2="1021.23" y2="906.986">
		<stop class="stop0" offset="0" stop-opacity="1" stop-color="rgb(0,0,1)"/>
		<stop class="stop1" offset="1" stop-opacity="1" stop-color="rgb(2,3,41)"/>
	</linearGradient>
	<linearGradient id="Gradient7" gradientUnits="userSpaceOnUse" x1="1217.34" y1="1083.05" x2="1249.76" y2="1082.87">
		<stop class="stop0" offset="0" stop-opacity="1" stop-color="rgb(0,0,0)"/>
		<stop class="stop1" offset="1" stop-opacity="1" stop-color="rgb(4,11,44)"/>
	</linearGradient>
	<linearGradient id="Gradient8" gradientUnits="userSpaceOnUse" x1="1036.92" y1="397.128" x2="847.875" y2="561.18">
		<stop class="stop0" offset="0" stop-opacity="1" stop-color="rgb(0,0,5)"/>
		<stop class="stop1" offset="1" stop-opacity="1" stop-color="rgb(2,7,34)"/>
	</linearGradient>
	<linearGradient id="Gradient9" gradientUnits="userSpaceOnUse" x1="960.15" y1="523.375" x2="1013.82" y2="475.158">
		<stop class="stop0" offset="0" stop-opacity="1" stop-color="rgb(0,0,4)"/>
		<stop class="stop1" offset="1" stop-opacity="1" stop-color="rgb(1,4,34)"/>
	</linearGradient>
	<linearGradient id="Gradient10" gradientUnits="userSpaceOnUse" x1="911.194" y1="464.078" x2="861.84" y2="558.857">
		<stop class="stop0" offset="0" stop-opacity="1" stop-color="rgb(0,0,2)"/>
		<stop class="stop1" offset="1" stop-opacity="1" stop-color="rgb(1,9,36)"/>
	</linearGradient>
	<linearGradient id="Gradient11" gradientUnits="userSpaceOnUse" x1="856.619" y1="527.144" x2="917.883" y2="495.598">
		<stop class="stop0" offset="0" stop-opacity="1" stop-color="rgb(1,1,8)"/>
		<stop class="stop1" offset="1" stop-opacity="1" stop-color="rgb(2,9,45)"/>
	</linearGradient>
	<linearGradient id="Gradient12" gradientUnits="userSpaceOnUse" x1="709.188" y1="1138.43" x2="85.2864" y2="1052.87">
		<stop class="stop0" offset="0" stop-opacity="1" stop-color="rgb(149,157,162)"/>
		<stop class="stop1" offset="1" stop-opacity="1" stop-color="rgb(179,185,187)"/>
	</linearGradient>
	<linearGradient id="Gradient13" gradientUnits="userSpaceOnUse" x1="287.99" y1="597.39" x2="209.801" y2="625.401">
		<stop class="stop0" offset="0" stop-opacity="1" stop-color="rgb(0,0,7)"/>
		<stop class="stop1" offset="1" stop-opacity="1" stop-color="rgb(3,8,37)"/>
	</linearGradient>
</defs>
<path transform="translate(0,0)" fill="rgb(238,237,235)" d="M 0 0 L 2048 0 L 2048 2048 L 0 2048 L 0 0 z"/>
<path transform="translate(0,0)" fill="rgb(3,7,39)" d="M 1503.46 1313.09 C 1509.33 1312.75 1516.94 1312.15 1521.82 1316.03 C 1523.09 1317.05 1522.85 1317.68 1523.08 1319.16 C 1521.63 1321.85 1520.1 1322.91 1517.63 1324.53 C 1512.24 1325.19 1505.37 1325.59 1500.54 1322.7 C 1498.57 1321.53 1498.62 1320.96 1498.07 1318.88 C 1499.32 1315.99 1501.01 1314.86 1503.46 1313.09 z"/>
<path transform="translate(0,0)" fill="rgb(3,7,39)" d="M 1674.8 1547.08 C 1676.74 1546.78 1678.47 1546.49 1680.43 1546.86 C 1684.4 1547.6 1687.61 1550.46 1689.88 1553.67 C 1692.21 1556.94 1693.24 1560.74 1692.45 1564.71 C 1691.79 1568.05 1690.04 1571.41 1687.75 1573.91 C 1679 1583.44 1665.73 1590.72 1655.16 1598.13 C 1645.08 1605.19 1635.31 1612.65 1625.09 1619.5 C 1622.51 1620.49 1619.7 1621.19 1616.97 1620.46 C 1614.2 1619.73 1611.96 1617.92 1610.53 1615.45 C 1607.29 1609.86 1607.87 1601.91 1609.83 1595.99 C 1611.28 1591.6 1613.67 1588.1 1617.08 1585.01 C 1623.21 1579.47 1631.11 1575.44 1637.97 1570.83 C 1650.24 1562.58 1661.6 1553.91 1674.8 1547.08 z"/>
<path transform="translate(0,0)" fill="rgb(238,237,235)" d="M 1675.65 1556.81 C 1677.15 1556.88 1679.09 1557.06 1680.46 1557.65 C 1682.79 1558.65 1682.82 1559.96 1683.31 1562.13 C 1680.72 1571.97 1634.28 1602.11 1623.65 1609.57 L 1620.57 1610.47 L 1618.54 1609.23 C 1617.7 1606.58 1617.32 1604.12 1618 1601.39 C 1620.76 1590.29 1664.3 1563.21 1675.65 1556.81 z"/>
<path transform="translate(0,0)" fill="rgb(3,7,39)" d="M 1710.45 1551 C 1707.2 1546.41 1704.5 1541.79 1705.17 1535.91 C 1706.05 1528.24 1709.67 1524.31 1715.44 1519.72 C 1725.37 1511.81 1767.05 1481.63 1776.32 1477.83 C 1778.45 1476.95 1780.74 1476.76 1783.01 1477.12 C 1786.7 1477.69 1790.27 1479.96 1792.42 1482.99 C 1794.82 1486.36 1795.37 1490 1794.7 1494.02 C 1793.25 1502.87 1786.46 1507.43 1779.79 1512.43 C 1768.4 1519.85 1730.45 1549.46 1720.48 1551.59 C 1717.2 1552.29 1713.7 1551.62 1710.45 1551 z"/>
<path transform="translate(0,0)" fill="rgb(238,237,235)" d="M 1779.99 1486.65 C 1781.1 1487.01 1782.34 1487.75 1783.39 1488.27 C 1784.56 1490.32 1785.49 1491.37 1784.81 1493.85 C 1782.34 1502.82 1730.02 1535.64 1719.43 1541.87 C 1717.07 1541.91 1717.41 1541.84 1715.61 1540.69 C 1714.97 1539.15 1714.53 1538.09 1714.84 1536.37 C 1715.33 1533.7 1716.7 1531.62 1718.57 1529.74 C 1728.56 1519.73 1767.12 1493.85 1779.99 1486.65 z"/>
<path transform="translate(0,0)" fill="rgb(3,7,39)" d="M 1431.92 1211.38 C 1448.11 1209.86 1466.99 1212.64 1481.06 1221.18 C 1491.14 1227.3 1500.14 1236.33 1502.74 1248.19 C 1504.99 1258.49 1502.29 1269.51 1496.37 1278.12 C 1485.53 1293.88 1467.8 1299.23 1450.07 1302.83 C 1431.48 1304.75 1412.69 1301.91 1397.04 1291.11 C 1386.98 1284.17 1378.57 1273.49 1376.54 1261.2 C 1374.95 1251.6 1377.89 1242.32 1383.79 1234.71 C 1395.21 1219.96 1414.11 1213.68 1431.92 1211.38 z"/>
<path transform="translate(0,0)" fill="url(#Gradient1)" d="M 1480.65 1242.21 C 1481.96 1239.17 1481.86 1238.05 1484.92 1236.59 C 1489.1 1238.62 1490.99 1243.7 1492.41 1247.94 C 1494.61 1254.44 1494.38 1261.6 1491.31 1267.77 C 1485.94 1278.57 1473.56 1286.27 1462.31 1289.69 C 1435.86 1297.73 1435.46 1293.04 1410.73 1287.34 C 1403.07 1285.57 1395.46 1276.71 1391.7 1270.16 C 1389.21 1265.83 1386.25 1259.18 1387.24 1254.03 C 1387.58 1252.26 1388.43 1251.37 1389.62 1250.13 L 1391.48 1249.67 C 1392.95 1252.21 1392.79 1254.91 1392.9 1257.76 C 1394.13 1261.07 1395.34 1264.43 1397.25 1267.42 C 1403.41 1277.07 1414.07 1282.94 1425.06 1285.29 C 1441.03 1288.71 1459.56 1286.08 1473.16 1276.75 C 1479.25 1272.56 1485.48 1266.17 1486.49 1258.5 C 1487.4 1251.54 1484.9 1247.42 1480.65 1242.21 z"/>
<path transform="translate(0,0)" fill="rgb(238,237,235)" d="M 1392.9 1257.76 L 1393.35 1255.89 C 1394.26 1251.99 1395.19 1248.9 1397.69 1245.69 C 1405.38 1235.78 1417.83 1231.05 1429.94 1229.42 C 1449.16 1226.82 1465.1 1230.5 1480.65 1242.21 C 1484.9 1247.42 1487.4 1251.54 1486.49 1258.5 C 1485.48 1266.17 1479.25 1272.56 1473.16 1276.75 C 1459.56 1286.08 1441.03 1288.71 1425.06 1285.29 C 1414.07 1282.94 1403.41 1277.07 1397.25 1267.42 C 1395.34 1264.43 1394.13 1261.07 1392.9 1257.76 z"/>
<path transform="translate(0,0)" fill="rgb(3,7,39)" d="M 1811.07 487.302 C 1825.45 486.258 1838.58 488.353 1851.09 495.863 A 63.2616 63.2616 0 0 1 1880.11 535.495 A 65.1392 65.1392 0 0 1 1871.68 585.774 C 1860.99 602.482 1845.36 610.889 1826.36 614.948 C 1810.48 616.15 1795.95 613.065 1782.61 604.208 C 1768.38 594.756 1759.32 579.827 1756.17 563.163 C 1752.94 546.05 1756.68 527.453 1766.69 513.148 C 1777.4 497.832 1793.04 490.346 1811.07 487.302 z"/>
<path transform="translate(0,0)" fill="rgb(3,7,39)" d="M 1813.8 803.401 A 69.6611 69.6611 0 0 1 1858.55 817.536 C 1871.93 827.876 1879.51 843.031 1881.59 859.643 C 1883.76 876.99 1880.17 895.331 1869.05 909.16 C 1857.31 923.76 1840.92 930.752 1822.63 932.511 A 63.9873 63.9873 0 0 1 1779.56 918.432 A 65.8234 65.8234 0 0 1 1755.08 873.495 A 64.9283 64.9283 0 0 1 1769.22 825.628 C 1780.77 811.327 1795.98 805.236 1813.8 803.401 z"/>
<path transform="translate(0,0)" fill="rgb(157,162,168)" d="M 1807.32 643.186 C 1823.46 641.88 1838.57 644.365 1852.41 653.127 A 63.5012 63.5012 0 0 1 1880.4 693.469 C 1884 710.399 1880.32 729.138 1870.89 743.588 C 1860.43 759.617 1845.86 767.9 1827.42 771.817 C 1812.38 773.702 1797.91 771.534 1784.86 763.469 C 1770.36 754.509 1759.78 740.527 1755.99 723.815 C 1751.98 706.108 1754.56 686.856 1764.46 671.502 C 1774.49 655.942 1789.52 647.111 1807.32 643.186 z"/>
<path transform="translate(0,0)" fill="rgb(3,7,39)" d="M 1810.32 329.24 C 1825.27 327.787 1839.74 330.404 1852.53 338.464 A 65.9726 65.9726 0 0 1 1881.51 379.877 A 65.9912 65.9912 0 0 1 1872.47 430.909 C 1862.13 446.783 1847.08 455.158 1828.86 459.002 C 1812.18 461.247 1796.89 458.275 1782.81 448.781 C 1767.92 438.739 1758.07 423.791 1754.83 406.115 A 66.3378 66.3378 0 0 1 1765.78 356.781 C 1776.63 341.281 1791.98 332.633 1810.32 329.24 z"/>
<path transform="translate(0,0)" fill="rgb(238,237,235)" d="M 1815.8 335.387 A 57.9111 57.9111 0 0 1 1853.19 347.439 A 59.4942 59.4942 0 0 1 1875.89 387.458 A 59.7422 59.7422 0 0 1 1863.11 431.866 C 1852.79 444.768 1838.69 451.267 1822.59 453.145 C 1807.96 452.929 1795.8 450.794 1783.74 441.757 A 58.0695 58.0695 0 0 1 1760.8 403.402 A 59.6551 59.6551 0 0 1 1772.66 358.404 C 1783.54 344.526 1798.46 337.285 1815.8 335.387 z"/>
<path transform="translate(0,0)" fill="rgb(3,7,39)" d="M 1549.36 1220.46 C 1530.45 1227.44 1512 1229.14 1492.56 1223 C 1479.11 1218.74 1465.81 1210.9 1459.35 1197.83 A 34.8475 34.8475 0 0 1 1458 1169.86 C 1462.97 1156.57 1474.93 1147 1487.47 1141.14 C 1510.35 1130.46 1540.39 1130.01 1563.95 1138.77 C 1579.66 1144.61 1661.46 1194.13 1674.75 1205.04 C 1680.45 1209.72 1685.03 1214.67 1688.03 1221.52 C 1694.24 1235.72 1693.87 1254.85 1688.06 1269.15 C 1685.27 1276.01 1680.48 1281.35 1675.02 1286.21 C 1661.48 1298.26 1644.92 1308.08 1629.96 1318.43 C 1606.42 1334.71 1573.96 1360.38 1548.39 1371.19 C 1527.47 1380.03 1503.25 1381.78 1481.92 1373.03 C 1466.93 1366.89 1367.86 1312.18 1363.2 1300.89 C 1362.56 1296.44 1363.67 1289.45 1366.79 1285.94 C 1368.71 1283.79 1369.32 1283.72 1372.02 1283.39 C 1381.45 1286.48 1390.85 1293.62 1399.39 1298.75 L 1448.08 1327.93 C 1483.06 1348.83 1509.87 1363.97 1549.68 1343.81 C 1558.52 1339.33 1571.53 1332.55 1578.22 1325.5 C 1578.85 1325.18 1579.49 1324.85 1580.1 1324.49 C 1594.4 1316 1608.12 1305.84 1621.86 1296.44 C 1634.43 1287.84 1648.28 1279.76 1659.38 1269.28 C 1664.8 1264.16 1670.58 1257.9 1672.43 1250.52 C 1675.77 1237.18 1670.89 1225.39 1664.08 1214.22 L 1663.27 1213.39 L 1661.92 1212.02 C 1645.97 1195.74 1587.95 1160.17 1566.57 1150.3 C 1560.02 1147.27 1553.37 1145.05 1546.23 1143.95 C 1531.82 1141.74 1503.92 1141.57 1491.84 1150.34 C 1506.46 1145.04 1518.86 1144.12 1534.26 1145.6 C 1546.01 1144.29 1558.46 1147.16 1567.79 1154.64 A 35.4238 35.4238 0 0 1 1581.17 1179.23 C 1582.11 1188.95 1578.63 1198.03 1572.22 1205.27 C 1569.85 1207.95 1567.25 1210.42 1564.62 1212.86 C 1587.31 1207.61 1613.03 1207.27 1633.52 1219.9 C 1642.67 1225.55 1650.76 1234.19 1652.97 1245.01 C 1654.81 1254.02 1652.5 1262.97 1647.38 1270.51 C 1634.52 1289.45 1611.04 1297.76 1589.54 1301.46 C 1582.75 1299.92 1575.21 1300.32 1568.16 1298.73 C 1553.71 1295.48 1538.36 1287.54 1530.48 1274.57 A 35.2135 35.2135 0 0 1 1526.28 1247.33 C 1529.66 1234.34 1538.45 1227.11 1549.36 1220.46 z"/>
<path transform="translate(0,0)" fill="rgb(0,0,7)" d="M 1560.94 1160.93 C 1568.44 1168.54 1569.25 1174.49 1569.69 1184.63 C 1568.3 1184.83 1567.23 1184.85 1565.85 1184.8 L 1564.85 1181.32 C 1563.42 1175.11 1561.19 1170.88 1556.98 1166.08 L 1560.94 1160.93 z"/>
<path transform="translate(0,0)" fill="url(#Gradient2)" d="M 1537.7 1263.79 C 1538.61 1259.81 1538.74 1259.34 1542.12 1256.99 C 1545.7 1266.98 1552.04 1273.73 1561.75 1278.13 C 1570.8 1282.23 1580.92 1283.75 1590.8 1283.55 C 1594.1 1283.48 1597.91 1282.82 1601.14 1283.21 C 1603.26 1283.58 1604.59 1284.23 1606.58 1283.26 L 1607.65 1285.5 C 1606.3 1286.6 1605.83 1286.85 1604.08 1287.43 L 1604.13 1287.72 C 1605.99 1288.46 1604.93 1288.31 1606.96 1287.98 C 1609.07 1287.65 1608.22 1287.7 1610.3 1287.89 C 1609.07 1288.72 1609.15 1288.71 1607.62 1289.48 C 1597.25 1294.67 1583.04 1293.09 1572.44 1289.79 C 1557.38 1285.11 1545.26 1278.08 1537.7 1263.79 z"/>
<path transform="translate(0,0)" fill="rgb(0,1,20)" d="M 1537.7 1263.79 C 1535.32 1256.4 1536.22 1248.01 1539.92 1241.22 C 1545.66 1230.68 1557.22 1225.04 1568.41 1222.14 C 1586.99 1217.31 1609.01 1218.24 1625.78 1228.3 C 1632.38 1232.26 1638.38 1238.08 1640.35 1245.75 C 1642.29 1253.34 1640.28 1261 1636.11 1267.48 C 1629.54 1277.68 1620.06 1281.78 1610.3 1287.89 C 1608.22 1287.7 1609.07 1287.65 1606.96 1287.98 C 1604.93 1288.31 1605.99 1288.46 1604.13 1287.72 L 1604.08 1287.43 C 1605.83 1286.85 1606.3 1286.6 1607.65 1285.5 L 1606.58 1283.26 C 1604.59 1284.23 1603.26 1283.58 1601.14 1283.21 C 1605.78 1281.99 1610.48 1280.47 1614.78 1278.31 C 1622.6 1274.37 1631.71 1268.28 1634.25 1259.38 C 1635.64 1254.48 1634.7 1249.52 1632.06 1245.22 C 1626.4 1236.01 1614.85 1231.01 1604.69 1228.56 C 1589.4 1224.87 1571.81 1226.21 1558.29 1234.7 C 1549.6 1240.16 1544.42 1247.06 1542.12 1256.99 C 1538.74 1259.34 1538.61 1259.81 1537.7 1263.79 z"/>
<path transform="translate(0,0)" fill="rgb(0,1,20)" d="M 1491.84 1150.34 C 1506.46 1145.04 1518.86 1144.12 1534.26 1145.6 C 1541.47 1153 1553.29 1152.62 1560.94 1160.93 L 1556.98 1166.08 C 1541.61 1156.05 1524.4 1150.32 1505.93 1154.12 C 1495.62 1156.25 1480.47 1163.06 1474.7 1172.34 C 1472.3 1176.2 1471.63 1180.56 1472.81 1184.95 C 1475.09 1193.43 1482.99 1199.66 1490.46 1203.49 C 1506.62 1211.79 1525.59 1212.24 1542.59 1206.3 C 1550.83 1203.42 1559.17 1197.67 1562.75 1189.4 C 1563.85 1186.86 1564.43 1184.05 1564.85 1181.32 L 1565.85 1184.8 C 1567.23 1184.85 1568.3 1184.83 1569.69 1184.63 C 1569.72 1185.7 1569.77 1185.89 1569.56 1187.1 C 1568.29 1194.36 1563.7 1200.9 1557.93 1205.32 C 1544.81 1215.37 1523.99 1218.13 1507.97 1215.87 C 1494.74 1214 1479.23 1208.09 1471.31 1196.84 C 1467.18 1191 1465.62 1184.09 1467.05 1177.06 C 1470.04 1162.28 1479.65 1158.97 1490.57 1151.25 L 1491.84 1150.34 z"/>
<path transform="translate(0,0)" fill="rgb(238,237,235)" d="M 1671.5 1212.54 C 1678.97 1218.7 1682.24 1227.99 1683.2 1237.41 C 1684.46 1249.91 1681.77 1266.79 1673.29 1276.48 C 1661.93 1289.47 1562.8 1356.84 1546.19 1364.35 C 1536.95 1368.53 1525.87 1370.44 1515.79 1370.83 C 1506.47 1371.2 1497.13 1370.13 1488.28 1367.12 C 1469.18 1360.61 1451.18 1348.39 1433.82 1338.2 C 1411.78 1325.27 1389.53 1312.45 1367.97 1298.73 C 1368.9 1296.39 1369.54 1294.04 1371.56 1292.41 C 1380.74 1296.18 1389.74 1302.85 1398.23 1308.06 C 1421.17 1322.12 1464.11 1350.71 1488.36 1358.31 C 1509.42 1364.92 1534.35 1362.06 1553.79 1351.74 C 1574.17 1340.92 1593.25 1326.77 1612.33 1313.82 C 1630.47 1301.51 1650.76 1289.37 1666.86 1274.45 C 1672.44 1269.27 1679.13 1261.94 1681.18 1254.52 C 1685.46 1239 1679.32 1225.5 1671.5 1212.54 z"/>
<path transform="translate(0,0)" fill="url(#Gradient3)" d="M 1664.08 1214.22 C 1666.45 1213.27 1668.99 1212.99 1671.5 1212.54 C 1679.32 1225.5 1685.46 1239 1681.18 1254.52 C 1679.13 1261.94 1672.44 1269.27 1666.86 1274.45 C 1650.76 1289.37 1630.47 1301.51 1612.33 1313.82 C 1593.25 1326.77 1574.17 1340.92 1553.79 1351.74 C 1534.35 1362.06 1509.42 1364.92 1488.36 1358.31 C 1464.11 1350.71 1421.17 1322.12 1398.23 1308.06 C 1389.74 1302.85 1380.74 1296.18 1371.56 1292.41 C 1369.54 1294.04 1368.9 1296.39 1367.97 1298.73 L 1366.7 1299.37 C 1366.8 1299.01 1366.91 1298.65 1367 1298.28 C 1367.51 1296.22 1368.6 1292.02 1367.79 1290.09 C 1366.04 1292.83 1364.96 1294.92 1364.33 1298.13 C 1364.05 1299.6 1364.22 1298.88 1363.57 1300.65 L 1363.2 1300.89 C 1362.56 1296.44 1363.67 1289.45 1366.79 1285.94 C 1368.71 1283.79 1369.32 1283.72 1372.02 1283.39 C 1381.45 1286.48 1390.85 1293.62 1399.39 1298.75 L 1448.08 1327.93 C 1483.06 1348.83 1509.87 1363.97 1549.68 1343.81 C 1558.52 1339.33 1571.53 1332.55 1578.22 1325.5 C 1578.85 1325.18 1579.49 1324.85 1580.1 1324.49 C 1594.4 1316 1608.12 1305.84 1621.86 1296.44 C 1634.43 1287.84 1648.28 1279.76 1659.38 1269.28 C 1664.8 1264.16 1670.58 1257.9 1672.43 1250.52 C 1675.77 1237.18 1670.89 1225.39 1664.08 1214.22 z"/>
<path transform="translate(0,0)" fill="rgb(238,237,235)" d="M 1542.12 1256.99 C 1544.42 1247.06 1549.6 1240.16 1558.29 1234.7 C 1571.81 1226.21 1589.4 1224.87 1604.69 1228.56 C 1614.85 1231.01 1626.4 1236.01 1632.06 1245.22 C 1634.7 1249.52 1635.64 1254.48 1634.25 1259.38 C 1631.71 1268.28 1622.6 1274.37 1614.78 1278.31 C 1610.48 1280.47 1605.78 1281.99 1601.14 1283.21 C 1597.91 1282.82 1594.1 1283.48 1590.8 1283.55 C 1580.92 1283.75 1570.8 1282.23 1561.75 1278.13 C 1552.04 1273.73 1545.7 1266.98 1542.12 1256.99 z"/>
<path transform="translate(0,0)" fill="rgb(238,237,235)" d="M 1564.85 1181.32 C 1564.43 1184.05 1563.85 1186.86 1562.75 1189.4 C 1559.17 1197.67 1550.83 1203.42 1542.59 1206.3 C 1525.59 1212.24 1506.62 1211.79 1490.46 1203.49 C 1482.99 1199.66 1475.09 1193.43 1472.81 1184.95 C 1471.63 1180.56 1472.3 1176.2 1474.7 1172.34 C 1480.47 1163.06 1495.62 1156.25 1505.93 1154.12 C 1524.4 1150.32 1541.61 1156.05 1556.98 1166.08 C 1561.19 1170.88 1563.42 1175.11 1564.85 1181.32 z"/>
<path transform="translate(0,0)" fill="rgb(3,7,39)" d="M 1340.95 1247.98 L 1340.79 1506.96 L 1340.98 1574.3 C 1341.06 1590.22 1342.24 1606.85 1339.52 1622.58 A 80.688 80.688 0 0 1 1318.16 1665.08 C 1303.84 1679.74 1264.53 1703.78 1245.29 1710.49 A 64.7034 64.7034 0 0 1 1224.43 1714.13 C 1209.49 1714.27 1194.83 1708.5 1181.79 1701.71 C 1165.74 1693.36 1151.18 1682.13 1135.93 1672.43 L 1049.05 1617.6 L 926.419 1539.87 C 899.072 1522.64 860.57 1502.04 838.349 1479.35 A 174.964 174.964 0 0 1 790.381 1381.4 C 787.86 1364.36 788.473 1346.76 788.509 1329.57 L 788.685 1265.09 L 788.8 1044.13 L 789.162 516.06 C 789.379 441.368 788.603 366.554 789.774 291.884 C 790.1 271.105 792.911 251.929 808.553 236.719 C 817.541 227.979 879.296 185.671 890.626 180.66 C 897.067 177.811 903.367 176.567 910.403 176.626 C 924.089 176.742 936.655 181.791 948.62 188.027 C 961.411 194.695 973.553 202.96 985.716 210.706 L 1054.4 254.764 L 1185.21 337.057 A 4868.84 4868.84 0 0 1 1239.34 371.274 C 1257.99 383.201 1277.47 394.527 1292.8 410.757 A 181.173 181.173 0 0 1 1339.14 502.348 C 1344.04 529.508 1342.21 557.902 1342.04 585.392 L 1341.49 699.635 L 1341.57 991.55 C 1341.25 1062.37 1339.13 1135.78 1341.29 1206.38 L 1450.43 1133.55 C 1467.81 1121.98 1485.54 1106.84 1504.91 1099.07 C 1523.48 1091.63 1544.04 1088.72 1563.75 1092.78 C 1574.41 1094.98 1585.23 1098.77 1594.86 1103.87 C 1607.4 1110.52 1619.13 1119.12 1631.12 1126.72 L 1702.98 1172.04 L 1808.27 1238.68 C 1825.02 1249.35 1842.74 1258.84 1858.63 1270.76 C 1869.08 1278.61 1879.46 1288.04 1886.62 1299.07 C 1891.96 1307.31 1895.17 1316.51 1896.79 1326.16 C 1898.79 1338.11 1899.29 1418.77 1897.11 1429.39 C 1894.09 1444.08 1882.51 1455.32 1871.46 1464.59 C 1851.6 1481.26 1828.73 1493.67 1807.65 1508.65 L 1656.55 1615.96 L 1449.78 1760.01 L 1326.25 1846.14 C 1312.24 1855.78 1298.68 1866.44 1284.41 1875.65 C 1280.43 1878.22 1276.67 1880.59 1271.88 1879.56 C 1270.96 1877.96 1270.63 1878.23 1271.09 1876.72 C 1272.33 1872.75 1276.95 1869.68 1280.2 1867.31 C 1310.27 1845.36 1342.06 1825.29 1372.58 1803.89 A 19919.8 19919.8 0 0 0 1658.69 1602.71 A 1737.96 1737.96 0 0 1 1694.15 1577.95 C 1700.9 1573.38 1709.28 1568.9 1715.17 1563.43 C 1722.49 1559.07 1729.45 1553.43 1736.52 1548.62 C 1751.41 1538.47 1767.27 1528.74 1780.85 1516.88 C 1799.12 1506.7 1816.48 1493.74 1833.04 1480.97 L 1833.01 1401.13 C 1804.62 1417.66 1777.78 1437.01 1750.94 1455.9 L 1658.38 1520.91 C 1530.16 1610.67 1403.59 1702.79 1274.47 1791.3 C 1239.44 1815.31 1205.03 1840.14 1169.85 1863.92 C 1162.19 1869.09 1155.03 1875.48 1146.99 1880.02 C 1143.58 1881.94 1140.52 1883.31 1136.56 1882.47 L 1134.71 1880.74 C 1135.78 1877.47 1138.85 1875.22 1141.51 1873.2 C 1156.27 1862.06 1172.15 1852.1 1187.29 1841.44 L 1321.15 1747.95 L 1708.37 1476.31 L 1794.88 1416.43 C 1817.32 1401.09 1853.27 1380.07 1870.37 1360.62 C 1883.07 1346.18 1890.27 1327.46 1880.94 1309.15 C 1874.38 1296.26 1863.17 1285.63 1851.8 1276.97 C 1835.41 1264.49 1816.82 1254.45 1799.39 1243.48 L 1711.36 1187.86 L 1632.58 1138.35 C 1619.3 1129.99 1606.11 1120.89 1592.39 1113.32 A 122.141 122.141 0 0 0 1570.13 1103.89 C 1547.51 1097.06 1520 1100.66 1499.41 1111.99 C 1496.37 1113.67 1493.51 1115.66 1490.68 1117.66 C 1513.55 1107.1 1536.03 1104.77 1559.98 1113.48 C 1571.9 1117.81 1583.03 1124.12 1594.17 1130.1 C 1603.2 1134.95 1612.61 1139.32 1621.44 1144.48 C 1636.9 1153.52 1651.85 1163.64 1667.1 1173.05 L 1782.69 1244.56 C 1802.78 1257.23 1832.16 1272.94 1849.97 1286.71 C 1858.75 1293.51 1866.3 1300.96 1871.01 1311.23 C 1875.42 1320.88 1876.44 1331.64 1872.39 1341.59 C 1866.55 1355.95 1853.74 1365.47 1841.73 1374.46 C 1795.48 1409.07 1744.94 1440.57 1697.44 1473.95 L 1318.09 1739.62 L 1164.45 1847.19 C 1153.27 1854.91 1133.74 1871.63 1122.38 1876.43 C 1119.65 1877.59 1118.17 1877.82 1115.3 1877.19 L 1114.29 1875.42 C 1115.34 1872.51 1116.51 1871.51 1118.95 1869.64 C 1130.36 1860.91 1142.81 1853.33 1154.55 1845.02 L 1269.72 1764.5 L 1721.19 1448.97 L 1799.7 1394.38 C 1818.71 1381.31 1842.47 1369.07 1857.56 1351.54 C 1866.73 1340.88 1870.59 1328.31 1864.21 1315.14 C 1860.64 1307.76 1854.66 1300.79 1848.08 1295.89 C 1831.55 1283.55 1812.45 1273.69 1794.81 1262.96 L 1705.72 1207.83 L 1629.33 1160.27 C 1622.58 1156.14 1613.8 1148.89 1606.48 1146.5 C 1605.31 1146.12 1604.04 1146.01 1602.83 1145.8 C 1594.72 1144.34 1582.68 1133.98 1575.33 1129.66 C 1552.83 1116.44 1518.11 1109.98 1495.01 1125.54 C 1466.72 1144.61 1439.49 1165.71 1411.61 1185.43 C 1395.82 1196.59 1371.27 1210.7 1358.18 1223.57 C 1351.11 1230.53 1346.06 1239.57 1340.95 1247.98 z"/>
<path transform="translate(0,0)" fill="rgb(0,1,20)" d="M 1258.44 1680.05 C 1256.17 1673.54 1262.85 1654.33 1263.69 1646.13 C 1265.25 1630.97 1263.21 1614.99 1263.49 1599.72 C 1263.59 1594.26 1263.19 1591.64 1267.43 1587.67 C 1269.25 1585.97 1270.83 1584.51 1272.28 1582.47 C 1269.79 1583.45 1267.99 1584.19 1265.24 1583.97 C 1261.16 1574.8 1263.53 1557.83 1263.92 1547.97 L 1264.86 1547.19 L 1264.42 1546.08 L 1265.15 1554.47 C 1265.77 1564.1 1265.41 1573.73 1265.78 1583.36 C 1276.73 1576.7 1292.85 1564.09 1303.84 1559.51 C 1306.31 1560.7 1307.73 1560.47 1310.33 1560.22 C 1311.84 1560.08 1311.19 1560.1 1312.91 1560.35 C 1297.43 1571.01 1281.31 1580.69 1265.89 1591.44 C 1266.01 1619.42 1268.9 1653.79 1258.44 1680.05 z"/>
<path transform="translate(0,0)" fill="rgb(0,0,7)" d="M 1265.35 800.242 L 1264.67 802.022 C 1260.65 794.004 1264.15 776.192 1263.85 766.778 C 1263.53 756.326 1262.05 745.917 1261.61 735.462 C 1260.88 717.734 1261.46 699.802 1261.5 682.055 C 1261.53 664.599 1260.84 646.898 1262.4 629.505 L 1262.97 641.057 C 1264.53 631.118 1264.89 611.072 1263.43 601.211 L 1261.39 600.84 C 1262.16 598.672 1263.26 597.196 1264.96 595.673 C 1268.48 592.512 1272.14 590.259 1276.93 590.368 C 1273.05 593.064 1269.24 595.803 1265.08 598.051 C 1265.99 665.405 1265.07 732.869 1265.35 800.242 z"/>
<path transform="translate(0,0)" fill="rgb(238,237,235)" d="M 1469.72 1131.98 C 1470.09 1132.23 1470.09 1132.8 1470.23 1133.22 L 1468.32 1133.82 L 1468.64 1135.68 L 1467.73 1135.29 C 1444.09 1152.74 1419.46 1169.39 1395.42 1186.33 C 1377.92 1198.67 1355.65 1210.61 1342.82 1227.92 L 1342.08 1227.29 L 1341.68 1216.49 L 1342.89 1215.9 C 1358.56 1208.44 1373.94 1195.39 1388.43 1185.62 C 1415.36 1167.46 1442.76 1150.07 1469.72 1131.98 z"/>
<path transform="translate(0,0)" fill="rgb(238,237,235)" d="M 901.409 191.243 C 918.467 188.962 931.548 193.607 945.675 202.441 C 926.902 213.729 909.04 226.495 890.001 237.34 C 889.023 237.921 885.455 240.308 884.582 240.327 C 882.428 240.377 875.69 236.162 873.597 235.151 C 864.588 230.799 856.063 227.635 846.357 225.174 C 864.156 213.58 881.724 199.38 901.409 191.243 z"/>
<path transform="translate(0,0)" fill="rgb(238,237,235)" d="M 1888.51 1350.72 C 1890.14 1358.17 1889.45 1420.34 1887.87 1427.86 C 1883.48 1448.68 1859.65 1464.1 1842.91 1474.76 A 2334.5 2334.5 0 0 1 1842.18 1395.15 C 1862.09 1383.41 1875.75 1369.83 1888.51 1350.72 z"/>
<path transform="translate(0,0)" fill="rgb(238,237,235)" d="M 1312.91 1560.35 C 1318.52 1557.18 1323.77 1553.48 1329.08 1549.84 L 1329.15 1589.83 C 1329.15 1614.21 1330.06 1637.39 1311.42 1656.05 C 1297.33 1670.16 1272.42 1680.54 1254.95 1690.71 C 1256.14 1687.21 1257.58 1683.64 1258.44 1680.05 C 1268.9 1653.79 1266.01 1619.42 1265.89 1591.44 C 1281.31 1580.69 1297.43 1571.01 1312.91 1560.35 z"/>
<path transform="translate(0,0)" fill="rgb(238,237,235)" d="M 1257.91 400.764 C 1267.33 401.491 1283.44 418.838 1289.45 425.916 C 1317.31 458.747 1332.54 504.929 1328.9 547.849 C 1307.75 560.623 1287.76 575.221 1266.52 587.877 C 1264.15 587.839 1264.75 585.027 1264.63 583.386 C 1263.54 568.455 1262.63 553.476 1258.87 538.925 C 1248.41 498.378 1225.5 467.545 1194.31 440.464 A 2661.72 2661.72 0 0 0 1257.91 400.764 z"/>
<path transform="translate(0,0)" fill="rgb(238,237,235)" d="M 822.006 242.425 C 831.813 236.277 839.649 233.272 851.415 236.137 C 864.109 239.229 876.02 246.277 887.262 252.75 C 904.509 262.68 920.96 273.987 937.801 284.58 A 11341.4 11341.4 0 0 1 1065.53 366.138 L 1141.39 414.076 C 1158.21 424.702 1175.7 435.034 1191.37 447.326 C 1206.99 459.592 1221.85 475.736 1231.87 492.944 C 1245.66 516.615 1255.01 543.809 1257.15 571.196 C 1259.32 598.876 1258.31 627.184 1258.33 654.954 L 1258.38 796.346 L 1258.3 1247.24 L 1258.37 1516.5 L 1258.72 1597.36 C 1258.71 1621.6 1260.58 1647.64 1254.22 1671.2 C 1251.82 1680.1 1247.76 1691.27 1239.39 1696.13 C 1234.59 1698.91 1227.24 1699.12 1221.8 1699.73 C 1226.58 1696.44 1232.32 1693.1 1235.48 1688.11 C 1242.08 1680.19 1245.52 1670.56 1247.42 1660.55 C 1251.01 1641.58 1249.54 1620.75 1249.51 1601.46 L 1249.61 1526.65 L 1249.72 1248.97 L 1249.27 797.235 L 1249.43 657.783 C 1249.51 628.926 1250.73 599.065 1248.47 570.319 C 1246.59 546.249 1238.03 518.038 1224.4 498.015 C 1220.78 485.223 1198.17 463.418 1187.89 455.144 C 1161.39 433.814 1125.57 414.031 1096.51 395.568 C 1056.12 369.906 1016.56 342.803 975.905 317.588 C 958.565 305.196 939.728 294.315 921.629 283.051 C 904.022 272.093 886.482 259.984 867.762 251.07 C 859.599 247.182 851.618 244.596 842.822 242.563 C 835.785 241.857 829.061 242.032 822.006 242.425 z"/>
<path transform="translate(0,0)" fill="rgb(238,237,235)" d="M 953.768 207.856 C 956.571 208.245 958.957 209.842 961.35 211.309 C 985.655 226.214 1009.44 242.02 1033.5 257.319 L 1140.47 324.674 C 1177.16 347.864 1216.07 369.779 1251.15 395.264 C 1232.05 410.527 1208.06 419.798 1188.86 435.05 C 1110.37 386.565 1033.59 335.134 955.469 286.021 C 934.423 272.79 913.684 259.114 892.283 246.449 C 913.028 233.755 932.213 219.371 953.768 207.856 z"/>
<path transform="translate(0,0)" fill="rgb(238,237,235)" d="M 1276.93 590.368 C 1295.1 580.583 1310.92 566.486 1329.54 557.506 L 1329.06 1541.88 C 1320.77 1547.62 1311.64 1553.17 1303.84 1559.51 C 1292.85 1564.09 1276.73 1576.7 1265.78 1583.36 C 1265.41 1573.73 1265.77 1564.1 1265.15 1554.47 C 1266.24 1543.48 1265.55 1531.86 1265.58 1520.8 L 1265.65 1454.24 L 1265.22 1235.27 L 1266.06 933.349 C 1266 889.206 1267.55 844.309 1265.35 800.242 C 1265.07 732.869 1265.99 665.405 1265.08 598.051 C 1269.24 595.803 1273.05 593.064 1276.93 590.368 z"/>
<path transform="translate(0,0)" fill="url(#Gradient4)" d="M 1297.19 643.958 C 1297.73 643.904 1298.26 643.828 1298.8 643.795 C 1302.32 643.58 1305.5 643.944 1308.12 646.654 C 1314.01 652.762 1312.7 666.119 1312.17 673.982 C 1311.37 685.701 1308.56 694.725 1299.56 702.642 C 1298.43 702.899 1297.09 703.239 1295.93 703.368 C 1293.32 703.658 1291.39 703.081 1289.57 701.11 C 1283.16 694.157 1285.03 674.855 1286 665.913 C 1287.04 656.293 1289.58 649.982 1297.19 643.958 z"/>
<path transform="translate(0,0)" fill="rgb(238,237,235)" d="M 1299.14 651.446 L 1302.04 651.968 C 1304.78 654.548 1305.14 656.635 1305.44 660.315 C 1306.48 672.92 1305.4 685.434 1296.98 695.334 C 1295.62 695.743 1296.44 695.686 1294.56 694.77 C 1292.83 689.498 1292.85 683.537 1292.74 678.022 C 1292.55 668.36 1292.02 658.745 1299.14 651.446 z"/>
<path transform="translate(0,0)" fill="url(#Gradient5)" d="M 1302.02 878.954 C 1304.6 878.712 1307.44 878.68 1310 879.108 C 1313.45 879.686 1316.48 882.429 1318.21 885.367 C 1322.65 892.886 1322.3 972.74 1319.43 983.287 C 1317.25 991.301 1311 997.061 1304.06 1001.1 C 1302.1 1001.13 1300.22 1001.1 1298.28 1000.73 C 1294.01 999.918 1290.64 997.484 1288.39 993.778 C 1282.27 983.666 1284 912.758 1287.3 898.5 C 1289.44 889.244 1294.05 883.864 1302.02 878.954 z"/>
<path transform="translate(0,0)" fill="rgb(238,237,235)" d="M 1305.23 885.682 C 1306.27 886.007 1307.32 886.306 1308.32 886.716 C 1310.53 887.616 1311.59 888.985 1312.42 891.186 C 1314.92 897.804 1313.72 980.318 1310.88 985.994 C 1308.5 990.764 1304.94 992.337 1300.15 994.116 C 1297.76 992.835 1295.02 991.492 1293.61 989.05 C 1289.93 982.653 1291.71 910.27 1293.86 900.604 C 1295.42 893.588 1299.32 889.394 1305.23 885.682 z"/>
<path transform="translate(0,0)" fill="rgb(3,7,39)" d="M 1305.04 738.102 C 1306.37 738.25 1307.7 738.382 1309.01 738.675 C 1313.06 739.58 1317.13 741.848 1319.19 745.573 C 1323.41 753.21 1322.93 835.98 1319.59 847.051 C 1317.01 855.617 1310.65 861.378 1302.96 865.449 C 1301.3 865.121 1299.57 864.791 1297.99 864.187 C 1293.15 862.341 1289.34 857.736 1287.43 853.048 C 1283.22 842.71 1284.56 764.964 1289.26 753.58 C 1292.49 745.774 1297.31 741.242 1305.04 738.102 z"/>
<path transform="translate(0,0)" fill="rgb(238,237,235)" d="M 1304.09 745.677 C 1307.07 746.094 1310.4 746.412 1312.22 749.119 C 1314.79 752.924 1315.37 833.496 1313.82 842.001 C 1312.57 848.837 1308.71 852.307 1303.25 856.129 C 1300.33 855.848 1297.2 854.557 1295.26 852.256 C 1290.49 846.575 1292.23 778.224 1293.17 766.71 C 1293.96 757.191 1296.86 751.81 1304.09 745.677 z"/>
<path transform="translate(0,0)" fill="rgb(238,237,235)" d="M 842.822 242.563 C 851.618 244.596 859.599 247.182 867.762 251.07 C 886.482 259.984 904.022 272.093 921.629 283.051 C 939.728 294.315 958.565 305.196 975.905 317.588 C 1016.56 342.803 1056.12 369.906 1096.51 395.568 C 1125.57 414.031 1161.39 433.814 1187.89 455.144 C 1198.17 463.418 1220.78 485.223 1224.4 498.015 C 1238.03 518.038 1246.59 546.249 1248.47 570.319 C 1250.73 599.065 1249.51 628.926 1249.43 657.783 L 1249.27 797.235 L 1249.72 1248.97 L 1249.61 1526.65 L 1249.51 1601.46 C 1249.54 1620.75 1251.01 1641.58 1247.42 1660.55 C 1245.52 1670.56 1242.08 1680.19 1235.48 1688.11 C 1234.81 1686.5 1234.57 1684.68 1234.2 1682.98 L 1231.36 1681.75 C 1225.21 1688.29 1217.96 1693.14 1208.79 1693.51 C 1198.71 1693.92 1188.9 1689.65 1180.17 1685 C 1167.34 1678.16 1155.25 1669.52 1143.01 1661.66 C 1117.12 1645.04 1091.37 1627.91 1065.26 1611.68 L 930.476 1526.99 C 906.053 1511.62 871.336 1493.07 851.166 1473.9 C 822.883 1447.02 802.91 1404.22 802.023 1365.12 C 800.807 1311.53 802.906 1257.75 802.674 1204.13 L 802.607 695.648 L 802.687 421.851 L 802.503 344.142 C 802.361 325.549 801.671 306.702 802.919 288.146 C 803.647 277.328 805.811 263.884 813.876 256.024 C 821.404 248.688 831.388 248.048 841.305 247.865 L 837.068 246.367 C 844.759 242.259 865.409 255.294 873.617 256.509 L 872.629 254.965 C 863.807 249.669 849.571 244.722 839.244 244.041 L 837.749 244.735 L 837.434 243.791 C 838.991 242.749 840.983 242.795 842.822 242.563 z"/>
<path transform="translate(0,0)" fill="rgb(0,0,7)" d="M 1037.03 1006.92 C 1041.76 1011.53 1046.59 1017.09 1052.47 1020.15 C 1051.25 1021.74 1050.04 1023.67 1048.62 1025.05 C 1041.92 1020.51 1035.8 1014.76 1029.67 1009.49 L 1037.03 1006.92 z"/>
<path transform="translate(0,0)" fill="rgb(3,7,39)" d="M 1075.64 998.454 C 1078.52 1002.54 1081.55 1006.57 1084.18 1010.81 C 1079.85 1018.35 1073.48 1025.87 1064.84 1028.49 C 1059.75 1030.03 1054.45 1028.8 1049.99 1026.02 C 1049.51 1025.72 1049.08 1025.37 1048.62 1025.05 C 1050.04 1023.67 1051.25 1021.74 1052.47 1020.15 C 1058.17 1021.06 1062.3 1021.28 1067.57 1018.5 C 1070.49 1016.96 1072.24 1014.69 1073.06 1011.52 C 1073.89 1008.3 1072.02 1005.65 1070.52 1002.96 L 1075.64 998.454 z"/>
<path transform="translate(0,0)" fill="rgb(0,0,7)" d="M 1044.76 919.655 C 1042.54 917.66 1041.87 916.373 1040.79 913.686 C 1041.96 911.96 1045.96 914.584 1048.84 914.012 C 1059.79 919.779 1074.99 937.658 1078.88 949.472 C 1079.45 951.203 1079.54 952.506 1079.14 954.307 C 1073.39 958.754 1068.89 962.166 1068.05 969.956 C 1067.03 979.379 1071.26 990.254 1075.64 998.454 L 1070.52 1002.96 C 1065.57 993.011 1061.59 982.216 1061.49 970.956 C 1061.4 961.422 1064.3 955.35 1070.98 948.753 C 1063.86 936.43 1057.2 927.057 1044.76 919.655 z"/>
<path transform="translate(0,0)" fill="url(#Gradient6)" d="M 1014.22 894.685 L 1017.62 896.878 C 1025.19 890.706 1021.02 871.045 1040.68 873.686 C 1044.53 874.202 1048.29 876.072 1050.58 879.268 C 1052.53 881.975 1053.33 885.215 1052.75 888.502 C 1052.16 891.887 1049.85 896.064 1046.89 897.917 C 1042 900.986 1032.92 902.207 1029.47 906.537 L 1030.01 908.316 C 1036.48 909.782 1043.17 910.368 1048.84 914.012 C 1045.96 914.584 1041.96 911.96 1040.79 913.686 C 1041.87 916.373 1042.54 917.66 1044.76 919.655 C 1039.3 918.003 1033.63 917.282 1028.01 916.402 C 1022.16 910.742 1016.87 904.941 1011.75 898.612 L 1014.22 894.685 z"/>
<path transform="translate(0,0)" fill="rgb(238,237,235)" d="M 1036.92 880.902 C 1039.98 881.014 1041.98 881.036 1044.65 882.753 C 1045.26 884.296 1045.87 884.709 1045.15 886.354 C 1043.27 890.677 1039.27 892.655 1035.25 894.634 C 1033.69 895.199 1032.61 895.5 1030.92 895.562 C 1029.02 895.632 1029.18 895.249 1027.87 894.055 C 1027.75 893.152 1027.6 892.532 1027.8 891.576 C 1028.86 886.597 1032.79 883.326 1036.92 880.902 z"/>
<path transform="translate(0,0)" fill="rgb(0,1,20)" d="M 973.983 937.301 C 971.692 928.813 970.61 919.007 971.415 910.228 C 972.214 901.525 975.395 892.854 982.557 887.408 C 986.517 884.397 991.615 882.664 996.614 883.46 C 1003.6 884.572 1010.03 889.21 1014.22 894.685 L 1011.75 898.612 C 1006.26 895.01 999.732 890.895 992.828 892.067 C 988.373 892.823 984.407 896.13 981.91 899.778 C 979.747 902.939 979.393 906.283 978.209 909.81 C 978.171 937.212 985.906 973.42 1005.9 993.521 A 70.546 70.546 0 0 0 1007.46 995.028 C 1018.62 997.19 1028.01 999.496 1037.03 1006.92 L 1029.67 1009.49 C 1021.9 1004.97 1013.51 1004.56 1004.97 1002.39 C 987.988 985.788 977.647 960.499 973.983 937.301 z"/>
<path transform="translate(0,0)" fill="rgb(0,0,7)" d="M 842.822 242.563 C 851.618 244.596 859.599 247.182 867.762 251.07 C 886.482 259.984 904.022 272.093 921.629 283.051 C 939.728 294.315 958.565 305.196 975.905 317.588 C 1016.56 342.803 1056.12 369.906 1096.51 395.568 C 1125.57 414.031 1161.39 433.814 1187.89 455.144 C 1198.17 463.418 1220.78 485.223 1224.4 498.015 L 1222.61 498.15 C 1220.01 494.158 1217.54 489.729 1214.41 486.14 C 1217.78 494.956 1224.99 501.167 1226.41 511.123 C 1216.81 494.028 1206.47 478.251 1191.91 464.912 C 1170.43 445.245 1141.84 430.18 1117.25 414.531 L 1024 353.946 C 1006.83 342.898 989.3 332.613 972.448 321.057 C 954.021 308.79 934.863 297.383 916.114 285.598 C 899.565 275.195 882.979 263.519 865.194 255.36 C 857.325 251.75 849.785 249.549 841.305 247.865 L 837.068 246.367 C 844.759 242.259 865.409 255.294 873.617 256.509 L 872.629 254.965 C 863.807 249.669 849.571 244.722 839.244 244.041 L 837.749 244.735 L 837.434 243.791 C 838.991 242.749 840.983 242.795 842.822 242.563 z"/>
<path transform="translate(0,0)" fill="url(#Gradient7)" d="M 1226.41 511.123 C 1224.99 501.167 1217.78 494.956 1214.41 486.14 C 1217.54 489.729 1220.01 494.158 1222.61 498.15 L 1224.4 498.015 C 1238.03 518.038 1246.59 546.249 1248.47 570.319 C 1250.73 599.065 1249.51 628.926 1249.43 657.783 L 1249.27 797.235 L 1249.72 1248.97 L 1249.61 1526.65 L 1249.51 1601.46 C 1249.54 1620.75 1251.01 1641.58 1247.42 1660.55 C 1245.52 1670.56 1242.08 1680.19 1235.48 1688.11 C 1234.81 1686.5 1234.57 1684.68 1234.2 1682.98 L 1231.36 1681.75 C 1233.63 1678.1 1235.72 1674.36 1237.39 1670.4 C 1241.38 1660.92 1242.48 1650.62 1242.79 1640.44 C 1243.59 1614.19 1243.07 1587.83 1243.05 1561.57 L 1243.09 1427.3 L 1243.04 990.109 L 1243.16 708.5 L 1243.15 620.541 C 1243.16 603.12 1243.7 585.446 1242.68 568.057 C 1241.5 547.937 1233.82 529.607 1226.41 511.123 z"/>
<path transform="translate(0,0)" fill="rgb(238,237,235)" d="M 978.209 909.81 C 979.393 906.283 979.747 902.939 981.91 899.778 C 984.407 896.13 988.373 892.823 992.828 892.067 C 999.732 890.895 1006.26 895.01 1011.75 898.612 C 1016.87 904.941 1022.16 910.742 1028.01 916.402 C 1033.63 917.282 1039.3 918.003 1044.76 919.655 C 1057.2 927.057 1063.86 936.43 1070.98 948.753 C 1064.3 955.35 1061.4 961.422 1061.49 970.956 C 1061.59 982.216 1065.57 993.011 1070.52 1002.96 C 1072.02 1005.65 1073.89 1008.3 1073.06 1011.52 C 1072.24 1014.69 1070.49 1016.96 1067.57 1018.5 C 1062.3 1021.28 1058.17 1021.06 1052.47 1020.15 C 1046.59 1017.09 1041.76 1011.53 1037.03 1006.92 C 1028.01 999.496 1018.62 997.19 1007.46 995.028 A 70.546 70.546 0 0 1 1005.9 993.521 C 985.906 973.42 978.171 937.212 978.209 909.81 z"/>
<path transform="translate(0,0)" fill="url(#Gradient8)" d="M 852.799 280.413 C 862.564 280.985 871.041 283.255 879.963 287.241 C 900.142 296.256 917.97 310.264 936.897 321.582 C 995.829 356.823 1038.42 374.95 1064.2 444.215 C 1068.39 455.46 1071.5 466.949 1072.91 478.877 C 1076.44 508.818 1074.75 540.663 1074.53 570.808 C 1074.38 590.863 1075.58 611.875 1073.38 631.788 C 1072.47 640.007 1070.59 648.832 1066.97 656.306 C 1061.37 667.885 1051.56 674.966 1039.6 678.864 C 1039 678.959 1038.4 679.064 1037.8 679.149 C 1027.83 680.559 1017.16 678.339 1007.98 674.423 C 994.788 668.789 983.055 659.849 971.018 652.153 L 917.56 618.345 C 903.949 609.647 889.443 602.456 876.582 592.615 C 846.931 569.926 824.418 532.488 819.78 495.215 C 818.281 483.166 818.83 470.643 818.855 458.523 L 818.965 404.332 L 819.118 348.576 C 819.155 336.783 818.635 324.618 819.998 312.905 C 820.852 305.567 822.078 298.016 826.897 292.162 C 833.45 284.202 842.97 281.473 852.799 280.413 z"/>
<path transform="translate(0,0)" fill="rgb(238,237,235)" d="M 870.188 568.987 C 854.935 551.724 841.746 534.436 834.739 512.158 C 825.748 483.571 829.244 416.497 829.267 384.435 C 829.283 363.208 828.056 341.347 829.401 320.201 C 829.984 311.036 831.031 301.733 838.187 295.134 C 843.395 290.332 850.428 288.643 857.363 289.093 C 865.5 289.621 873.587 292.648 880.859 296.2 C 900.907 305.994 919.897 319.903 938.995 331.544 C 960.094 344.404 983.14 356.088 1002.89 370.89 C 1011.82 377.583 1019.81 385.666 1026.97 394.201 C 1070.78 446.419 1067.02 492.841 1066.9 556.093 C 1066.85 578.97 1068.19 602.871 1066.23 625.636 C 1065.05 639.262 1061.33 654.217 1050.51 663.467 C 1043.73 669.275 1034.89 671.133 1026.15 670.233 C 1013.5 668.932 983.465 654.351 975.443 644.579 C 965.929 634.047 907.53 602.942 890.464 591.648 C 883.49 587.033 870.606 578.97 868.861 570.578 L 870.188 568.987 z"/>
<path transform="translate(0,0)" fill="rgb(0,0,7)" d="M 986.344 593.521 C 988.985 593.617 991.287 593.786 993.731 594.88 C 997.34 596.496 1000.6 599.644 1001.97 603.388 C 1003.65 608.003 1003.05 611.318 1001.12 615.689 C 999.102 615.717 997.094 615.808 995.133 615.198 C 991.161 613.962 987.622 610.441 986.086 606.618 C 984.242 602.027 984.594 598.036 986.344 593.521 z"/>
<path transform="translate(0,0)" fill="rgb(0,0,7)" d="M 964.632 431.243 C 972.792 431.552 980.544 433.82 987.699 437.732 C 1009.93 449.886 1028.48 475.301 1035.34 499.455 C 1039.89 515.493 1041.53 537.491 1032.82 552.39 C 1027.45 561.574 1019.36 566.421 1009.26 568.858 C 1000.2 569.162 991.096 565.539 983.485 560.855 C 959.585 546.15 944.283 519.835 938.043 492.996 C 934.525 477.865 932.499 459.74 941.545 446.084 C 947.024 437.813 955.129 433.316 964.632 431.243 z"/>
<path transform="translate(0,0)" fill="url(#Gradient9)" d="M 962.566 440.821 C 966.411 440.29 970.811 440.187 974.637 440.854 C 990.143 443.555 1003.96 457.061 1012.76 469.434 C 1023.95 485.161 1030.67 502.815 1031.46 522.141 C 1031.6 525.669 1032.13 529.873 1031.42 533.345 C 1031.32 533.848 1031.19 534.345 1031.08 534.847 C 1031.01 535.173 1030.95 535.502 1030.88 535.828 C 1030.8 536.169 1030.69 536.504 1030.62 536.846 C 1030.18 538.913 1029.82 540.513 1028.92 542.454 C 1026.16 548.444 1021.84 556.162 1015.22 558.466 L 1013.92 557.208 C 1013.29 557.396 1012.66 557.599 1012.03 557.773 C 1003.89 560.008 993.867 556.231 986.898 552.13 C 962.93 538.025 950.603 508.981 944.367 483.148 C 941.834 472.657 941.774 460.308 947.87 450.924 C 951.31 445.63 956.386 442.019 962.566 440.821 z"/>
<path transform="translate(0,0)" fill="rgb(238,237,235)" d="M 958.726 453.08 C 960.855 452.777 963.02 452.617 965.171 452.735 C 977.483 453.407 990.538 465.4 998.17 474.482 C 1010.41 489.051 1023.11 511.73 1020.95 531.49 C 1020.1 539.238 1017.31 543.957 1011.25 548.683 C 1008.76 549.328 1006.08 549.775 1003.5 549.648 C 993.439 549.154 983.567 541.276 976.912 534.204 C 962.409 518.792 949.21 492.308 950.437 470.7 C 950.877 462.957 952.905 458.157 958.726 453.08 z"/>
<path transform="translate(0,0)" fill="url(#Gradient10)" d="M 864.573 445.36 C 876.024 445.928 885.746 448.137 895.477 454.459 C 917.118 468.517 932.489 495.61 937.781 520.441 C 940.803 534.617 941.728 552.93 933.24 565.399 C 927.427 573.939 919.094 577.586 909.339 579.628 C 898.291 579.435 888.855 575.992 879.793 569.89 C 856.191 553.996 839.818 525.394 834.624 497.744 C 832.221 484.948 832.503 470.142 840.317 459.162 C 846.29 450.767 854.719 447.113 864.573 445.36 z"/>
<path transform="translate(0,0)" fill="url(#Gradient11)" d="M 861.813 452.51 C 868.773 452.293 874.458 452.586 881.073 454.959 C 900.997 462.106 915.806 481.014 924.227 499.72 C 931.051 514.88 936.692 538.82 930.015 554.759 C 926.22 563.818 921.421 566.147 912.809 569.51 C 908.891 569.681 905.326 569.429 901.498 568.495 C 882.694 563.906 864.979 544.652 855.599 528.366 C 846.405 512.404 838.941 487.331 844.233 469.033 C 846.875 459.9 853.926 456.635 861.813 452.51 z"/>
<path transform="translate(0,0)" fill="rgb(238,237,235)" d="M 860.083 464.193 C 863.074 463.789 866.014 463.538 869.019 464.01 C 882.867 466.183 896.747 481.685 904.658 492.498 C 914.976 506.601 925.288 528.719 921.988 546.623 C 920.724 553.485 917.929 557.058 912.309 560.972 C 908.296 562.006 904.862 562.597 900.75 561.716 C 886.294 558.618 873.076 542.771 865.382 530.898 C 855.875 516.226 846.302 495.141 850.584 477.237 C 852.132 470.765 854.552 467.747 860.083 464.193 z"/>
<path transform="translate(0,0)" fill="rgb(0,1,20)" d="M 903.465 327.767 C 921.019 347 936.276 369.916 935.13 397.175 C 934.685 407.745 930.547 417.937 922.367 424.871 C 915.86 430.388 907.539 432.831 899.075 432.052 C 881.263 430.411 865.913 416.76 855.246 403.333 C 841.096 385.522 829.564 359.618 832.153 336.378 C 833.324 325.866 837.074 314.905 845.756 308.252 C 852.198 303.316 859.477 302.261 867.323 303.453 C 874.546 304.55 881.592 307.247 888.138 310.417 C 911.21 321.587 933.214 336.511 955.079 349.945 C 970.136 359.197 986.094 367.362 999.867 378.521 C 1009.74 386.524 1018.07 396.725 1025.39 407.059 C 1062.16 458.963 1056.3 505.871 1056.29 565.773 C 1056.28 587.977 1058 612.05 1054.1 633.9 C 1052.36 643.674 1047.96 653.363 1039.47 659.043 C 1031.61 664.304 1021.09 665.143 1012.07 662.946 C 998.158 659.555 988.18 649.973 975.443 644.579 C 965.929 634.047 907.53 602.942 890.464 591.648 C 883.49 587.033 870.606 578.97 868.861 570.578 L 870.188 568.987 C 896.253 589.329 925.96 604.861 954.187 622.011 C 971.029 632.244 988.39 645.195 1006.52 652.879 C 1011.6 655.028 1016.35 655.797 1021.83 655.2 C 1028.84 654.436 1035.08 651.432 1039.33 645.725 C 1043.86 639.654 1045.91 632.184 1047.01 624.793 C 1049.75 606.418 1048.23 586.648 1048.31 568.067 C 1048.45 538.251 1051.05 506.364 1046.18 477.003 C 1040.1 440.364 1019.7 400.977 988.804 379.29 C 978.243 371.877 966.522 366.031 955.369 359.563 C 937.893 349.429 920.354 338.854 903.465 327.767 z"/>
<path transform="translate(0,0)" fill="rgb(238,237,235)" d="M 858.149 319.72 C 859.749 319.613 861.395 319.53 862.989 319.744 C 878.421 321.808 894.201 339.188 902.314 351.365 C 910.915 364.277 920.498 384.436 916.737 400.3 C 915.186 406.843 911.984 410.563 906.44 414.102 C 904.758 414.365 903.1 414.621 901.392 414.627 C 890.22 414.665 878.63 404.657 871.322 396.858 C 858.128 382.778 846.763 361.808 847.948 341.973 C 848.496 332.797 851.42 325.944 858.149 319.72 z"/>
<path transform="translate(0,0)" fill="rgb(3,7,39)" d="M 269.611 274.416 C 285.188 272.836 299.636 279.299 312.791 286.844 C 334.824 299.48 356.064 313.386 377.634 326.772 A 5418.94 5418.94 0 0 1 485.235 394.028 L 552.472 436.543 C 589.412 459.531 626.461 481.43 656.685 513.312 C 678.322 536.136 692.319 562.852 700.456 593.126 C 707.697 620.064 705.937 647.422 705.865 675.038 L 705.938 742.442 L 705.598 1014.05 L 705.993 1503.31 L 706.343 1671.96 C 706.369 1701.46 707.344 1731.33 706.003 1760.78 C 705.243 1777.46 701.393 1794.88 692.906 1809.41 C 689.98 1814.42 686.463 1818.93 682.158 1822.84 C 670.125 1833.78 621.78 1863.43 606.299 1870.55 C 600.753 1873.1 595.075 1874.7 589.182 1876.24 A 57.5052 57.5052 0 0 1 585.688 1876.7 C 572.549 1877.98 560.414 1874.91 548.638 1869.21 C 538.977 1864.52 529.971 1858.03 520.93 1852.26 L 483.031 1828.32 L 355.365 1747.99 L 268.707 1694.27 C 251.65 1683.76 233.076 1673.75 217.496 1661.15 C 180.47 1631.19 156.487 1580.86 151.897 1533.88 C 149.865 1513.08 150.898 1491.7 150.937 1470.8 L 150.895 1373.9 L 150.954 1032.58 L 151.678 550.447 L 152.019 434.476 C 152.068 413.733 151.334 392.578 152.815 371.892 C 153.944 356.118 157.701 342.391 168.074 330.073 C 178.837 317.291 232.036 285.404 248.077 278.94 C 255.263 276.044 261.963 275.031 269.611 274.416 z"/>
<path transform="translate(0,0)" fill="rgb(157,162,168)" d="M 269.346 287.221 C 282.518 286.205 292.226 291.088 303.331 297.291 C 288.559 311.607 269.394 325.751 251.591 335.967 C 248.558 335.728 246.667 334.125 244.134 332.554 C 231.424 326.537 219.178 321.833 205.302 319.206 C 223.364 306.197 247.309 291.234 269.346 287.221 z"/>
<path transform="translate(0,0)" fill="rgb(157,162,168)" d="M 690.407 1714.89 C 691.262 1715.03 690.693 1714.86 691.782 1716.02 C 691.536 1735.91 693.867 1758.66 690.176 1778.13 C 682.697 1817.6 647.091 1829.39 617.438 1849.68 C 617.008 1849.76 616.582 1849.47 616.171 1849.32 C 619.545 1841.56 623.368 1832.87 625.091 1824.57 C 629.364 1803.99 627.043 1777.25 626.98 1756.04 C 648.08 1742.24 669.423 1728.88 690.407 1714.89 z"/>
<path transform="translate(0,0)" fill="rgb(157,162,168)" d="M 618.769 505.143 C 620.46 504.923 622.288 504.615 623.992 504.67 C 630.051 504.864 636.606 511.369 640.731 515.52 C 665.025 539.968 685.736 575.234 691.081 609.613 C 693.246 623.535 692.878 637.606 692.893 651.653 C 674.176 664.871 653.843 676.492 634.359 688.591 L 625.941 693.903 C 625.581 679.502 625.539 664.852 623.531 650.571 C 617.463 607.415 594.54 569.589 563.974 539.34 C 579.407 523.664 597.363 511.064 618.769 505.143 z"/>
<path transform="translate(0,0)" fill="url(#Gradient12)" d="M 192.598 328.179 C 202.318 327.199 210.931 328.681 220.081 331.826 C 244.804 340.322 267.892 358.144 290.02 371.943 A 6282.26 6282.26 0 0 1 405.414 444.544 L 489.035 496.485 C 511.004 510.175 533.791 523.639 553.514 540.513 A 184.698 184.698 0 0 1 600.737 602.729 C 611.092 624.393 616.159 646.446 617.463 670.353 C 618.767 694.235 618.247 718.391 618.375 742.309 L 618.595 875.144 L 618.813 1228.77 L 618.442 1589.12 L 618.948 1735.57 C 619.01 1758.72 620.025 1782.14 619.199 1805.26 C 618.842 1815.23 617.409 1825.23 613.995 1834.64 C 609.896 1845.94 602.74 1855.86 591.446 1860.76 C 586.188 1863.03 575.303 1865.57 569.652 1863.42 C 571.578 1861.72 574.634 1861.48 577.113 1860.88 A 76.2346 76.2346 0 0 0 580.895 1859.46 C 592.354 1854.75 600.318 1845.39 604.946 1834.09 C 608.913 1824.4 610.565 1813.7 610.893 1803.28 C 611.481 1784.62 610.95 1765.78 610.945 1747.1 L 610.828 1635.11 L 610.537 1266.51 L 610.837 878.612 L 610.656 741.227 C 610.57 716.851 611.225 692.212 609.95 667.879 C 608.896 647.763 604.951 628.666 597.085 610.083 C 586.59 585.289 569.513 562.803 549.269 545.13 C 533.449 531.32 514.98 520.098 497.254 508.915 C 473.413 493.874 449.289 479.275 425.546 464.08 A 8271.73 8271.73 0 0 0 291.476 379.063 C 269.783 365.652 247.54 349.565 223.849 340.143 C 204.307 332.372 192.534 332.391 173.121 340.797 C 173.33 340.587 173.541 340.38 173.747 340.167 C 179.75 333.957 184.437 330.973 192.598 328.179 z"/>
<path transform="translate(0,0)" fill="rgb(157,162,168)" d="M 309.907 301.824 C 373.073 337.472 433.869 377.955 495.307 416.508 C 536.034 442.064 583.32 467.733 620.4 497.428 C 599.35 502.878 582.559 512.734 566.021 526.694 L 558.617 533.173 C 524.582 507.226 486.823 486.293 450.598 463.633 L 257.896 342.116 C 264.368 336.326 272.026 331.47 279.052 326.357 C 289.752 318.569 299.967 310.563 309.907 301.824 z"/>
<path transform="translate(0,0)" fill="rgb(157,162,168)" d="M 691.178 661.806 L 691.824 661.964 C 692.167 662.452 692.617 662.879 692.853 663.426 C 693.778 665.568 692.633 932.026 692.61 956 L 692.775 1704.75 C 669.888 1716.53 649.286 1733.85 627.159 1747.17 C 624.372 1735.41 626.105 1689.22 626.073 1674.56 L 625.952 1478.3 L 625.756 704.503 C 645.879 688.723 669.531 675.523 691.178 661.806 z"/>
<path transform="translate(0,0)" fill="rgb(3,7,39)" d="M 658.185 750.968 C 659.562 750.891 660.886 750.797 662.26 750.875 C 665.242 751.043 667.471 752.251 669.39 754.543 C 675.39 761.711 673.8 778.294 672.477 787.033 C 670.88 797.587 667.02 804.385 658.567 810.834 C 656.829 811.365 655.691 811.605 653.838 811.529 C 651.273 811.423 649.334 809.969 647.79 807.999 C 642.074 800.71 643.619 780.785 645.155 771.942 C 646.862 762.121 650.041 756.575 658.185 750.968 z"/>
<path transform="translate(0,0)" fill="rgb(157,162,168)" d="M 658.533 759.54 C 660.923 761.736 661.55 763.227 661.851 766.485 C 662.976 778.651 663.246 792.032 655.129 801.799 L 653.56 800.525 C 652.203 795.592 651.91 790.543 651.803 785.445 C 651.611 776.321 651.961 766.42 658.533 759.54 z"/>
<path transform="translate(0,0)" fill="rgb(3,7,39)" d="M 665.233 848.001 C 667.817 848.085 670.486 848.578 672.886 849.572 C 676.238 850.959 678.847 853.357 680.129 856.771 C 684.511 868.451 683.987 948.524 678.787 959.631 C 675.327 967.023 669.294 971.179 661.758 973.683 C 660.052 973.432 658.418 973.047 656.784 972.497 C 652.455 971.038 649.202 968.413 647.377 964.166 C 641.51 950.512 643.04 877.744 648.826 863.936 C 652.114 856.089 657.512 851.241 665.233 848.001 z"/>
<path transform="translate(0,0)" fill="rgb(157,162,168)" d="M 663.401 856.876 C 664.389 856.849 665.379 856.789 666.367 856.834 C 668.319 856.924 670.601 857.621 671.859 859.184 C 676.107 864.466 675.883 940.077 673.952 950.833 C 672.759 957.48 669.426 960.706 663.991 964.314 C 660.911 964.098 657.789 964.2 655.617 961.625 C 650.772 955.883 651.931 941.757 651.932 934.524 C 651.935 916.898 649.557 886.115 654.756 869.987 C 656.535 864.47 659.347 860.927 663.401 856.876 z"/>
<path transform="translate(0,0)" fill="rgb(3,7,39)" d="M 665.281 986.98 C 668.246 987.106 670.857 987.533 673.525 988.93 C 677.172 990.84 679.572 994.003 680.831 997.877 C 684.86 1010.27 684.393 1072.19 682.418 1086.64 C 681.822 1091 680.671 1094.98 678.62 1098.88 C 674.756 1106.22 669.434 1110.68 661.537 1113.05 C 660.054 1112.78 659.951 1112.8 658.688 1112.46 C 653.828 1111.13 650.638 1108.78 648.285 1104.26 C 640.999 1090.26 642.758 1020.67 647.992 1005.27 C 651.095 996.142 656.736 990.99 665.281 986.98 z"/>
<path transform="translate(0,0)" fill="rgb(157,162,168)" d="M 665.264 995.697 C 668.49 996.087 671.505 996.46 673.402 999.431 C 676.848 1004.83 675.928 1081.07 673.986 1089.54 C 672.252 1097.1 668.882 1101.32 662.344 1105.18 C 659.912 1104.19 658.066 1103.31 656.317 1101.28 C 649.272 1093.09 651.077 1032.99 652.781 1020.54 C 654.186 1010.28 656.737 1002.07 665.264 995.697 z"/>
<path transform="translate(0,0)" fill="rgb(157,162,168)" d="M 195.888 342.232 C 211.936 342.744 225.825 348.372 239.712 356.217 C 271.228 374.022 301.678 394.41 332.127 413.974 L 423.8 471.94 L 497.005 517.457 C 515.483 529.152 534.764 540.852 550.587 556.076 A 169.095 169.095 0 0 1 596.998 633.13 C 604.525 660.47 602.431 689.895 602.397 717.976 L 602.598 786.947 L 602.898 1076.85 L 602.857 1555.87 L 602.857 1718.19 C 602.869 1746.18 603.828 1774.43 602.808 1802.39 C 602.354 1814.85 600.951 1827.24 594.496 1838.18 C 589.027 1847.45 581.786 1851.52 571.748 1854.25 C 560.77 1855.38 551.15 1852.68 541.366 1847.97 C 527.757 1841.42 514.79 1832.15 502.076 1823.95 A 4107.02 4107.02 0 0 0 440.779 1784.83 L 240.554 1660.96 C 202.306 1636.78 178.784 1598.01 169.067 1554.3 C 163.548 1529.48 164.636 1503.86 164.674 1478.6 L 164.839 1405.89 L 164.833 1176.31 L 164.831 652.556 L 164.452 487.997 C 164.316 455.784 163.439 423.358 164.36 391.166 C 164.682 379.909 165.054 365.45 171.62 355.835 C 177.185 347.684 186.514 343.909 195.888 342.232 z"/>
<path transform="translate(0,0)" fill="rgb(0,1,20)" d="M 211.887 375.332 C 220.737 375.417 228.98 377.44 237.194 380.635 C 256.333 388.08 273.771 400.097 291.508 410.315 C 309.843 420.879 329.034 430.678 346.487 442.656 C 378.665 464.739 405.759 498.887 421.173 534.663 C 426.194 546.317 430.111 558.66 431.575 571.304 C 434.38 595.534 432.674 621.921 432.612 646.348 C 432.54 674.429 433.794 703.68 431.615 731.61 C 431.05 738.842 429.969 746.605 427.127 753.316 C 422.06 765.283 413.269 771.539 401.704 776.396 C 401.31 776.504 400.92 776.624 400.523 776.72 C 390.197 779.213 380.029 778.213 370.126 774.617 C 348.071 766.608 323.69 747.421 303.22 734.964 C 283.02 722.672 261.824 711.574 241.94 698.877 C 212.365 679.992 190.206 644.751 182.875 610.77 C 179.216 593.812 180.101 576.013 180.127 558.754 A 6399.1 6399.1 0 0 1 180.666 488.833 C 180.846 464.089 179.137 437.817 181.718 413.242 C 182.597 404.868 184.207 395.898 188.971 388.812 C 194.578 380.473 202.276 377.03 211.887 375.332 z"/>
<path transform="translate(0,0)" fill="rgb(157,162,168)" d="M 213.401 383.313 C 221.658 383.761 229.143 385.949 236.7 389.179 C 254.772 396.905 271.401 408.416 288.382 418.271 C 308.139 429.736 328.943 439.684 347.538 453.044 C 358.131 460.656 367.659 469.529 376.482 479.118 C 388.888 492.601 398.859 507.299 407.386 523.498 C 430.677 567.741 425.308 596.101 425.164 643.873 C 425.082 671.155 426.222 698.905 424.917 726.123 C 424.3 738.982 421.046 753.235 410.906 762.007 C 404.873 767.226 396.937 769.327 389.068 768.769 C 381.721 768.247 374.671 765.442 368.117 762.229 C 346.755 751.757 326.676 737.555 306.306 725.177 C 284.991 712.226 262.351 700.438 242.172 685.814 A 132.803 132.803 0 0 1 219.519 664.993 C 215.213 659.92 202.984 644.037 203.49 637.844 C 206.76 644.177 210.629 650.054 214.531 656.01 C 222.955 667.064 232.211 676.738 243.706 684.583 C 264.389 698.697 286.85 710.929 308.202 724.07 C 326.982 735.628 348.2 751.374 368.476 759.593 C 375.421 762.408 383.929 763.567 391.303 761.99 C 398.948 760.355 405.036 755.084 408.971 748.455 C 412.113 743.16 413.654 737.335 414.341 731.26 C 416.831 709.227 415.248 685.314 415.279 663.047 C 415.322 632.412 416.598 600.866 414.632 570.34 C 414.195 563.548 413.449 556.732 411.711 550.137 C 408.379 537.503 402.397 525.734 396.099 514.358 C 370.963 468.954 341.527 454.66 298.462 430.402 C 283.15 421.776 268.334 412.302 253.038 403.671 C 240.508 396.601 226.506 390.193 211.924 394.614 C 196.424 399.313 197.119 404.217 190.81 415.848 L 190.371 414.92 C 191.44 407.29 191.738 400.126 196.349 393.687 C 201.305 386.764 205.121 384.849 213.401 383.313 z"/>
<path transform="translate(0,0)" fill="rgb(0,0,7)" d="M 202.39 456.883 A 93.5752 93.5752 0 0 1 200.737 448.302 C 199.084 436.688 199.91 424.97 207.432 415.399 C 211.502 410.22 216.951 406.774 223.557 406.04 C 234.513 404.823 247.116 410.889 255.593 417.53 L 253.834 418.174 L 252.81 417.457 C 244.725 411.899 228.311 405.262 218.102 408.119 C 216.466 408.576 216.372 408.717 215.088 409.454 L 214.124 411.796 C 219.188 412.823 224.468 411.702 229.608 412.318 C 244.44 414.096 259.74 424.553 267.856 437.244 C 271.044 442.229 268.977 442.18 270.203 446.421 C 271.193 449.847 274.633 454.568 276.382 457.869 C 283.638 471.562 291.324 489.83 287.26 505.624 C 285.615 512.018 281.074 519.261 275.227 522.585 C 269.147 526.042 261.848 525.787 255.316 523.857 C 237.906 518.712 222.648 499.96 214.661 484.463 C 210.281 475.964 207.65 464.502 202.39 456.883 z"/>
<path transform="translate(0,0)" fill="rgb(238,237,235)" d="M 219.884 422.172 C 223.518 421.968 227.508 422.223 231.043 423.123 C 246.283 427.002 257.946 442.292 265.905 454.984 C 274.576 468.811 284.311 489.37 280.054 506.039 C 278.256 513.077 274.816 517.087 268.749 520.837 C 265.478 521.104 262.547 521.015 259.4 520.018 C 241.725 514.42 229.6 497.785 221.124 482.246 C 213.851 468.913 204.4 448.8 209.421 433.393 C 211.318 427.57 214.535 424.82 219.884 422.172 z"/>
<path transform="translate(0,0)" fill="rgb(157,162,168)" d="M 202.39 456.883 C 199.817 451.129 198.287 444.647 197.597 438.38 C 196.509 428.501 198.044 418.796 204.459 410.938 C 208.556 405.92 213.976 403.03 220.44 402.462 A 37.3827 37.3827 0 0 1 237.527 405.046 C 255.057 411.951 271.442 424.238 287.623 433.864 C 309.713 447.006 333.361 457.975 352.956 474.869 C 379.374 497.645 404.323 532.703 406.858 568.438 C 409.221 601.761 407.852 636.004 407.741 669.422 C 407.677 688.865 409.415 710.246 406.65 729.46 C 405.71 735.988 403.468 743.497 398.873 748.435 C 394.573 753.055 388.065 755.259 381.881 755.514 C 378.028 755.673 374.322 755.064 370.786 753.506 C 350.63 744.623 322.073 724.625 302.404 712.471 C 283.855 701.009 252.113 684.565 237.104 670.47 C 215.326 650.019 199.663 616.343 196.551 586.785 C 194.795 570.108 195.936 552.502 196.023 535.719 A 2646.8 2646.8 0 0 0 195.93 464.205 C 204.854 484.891 214.522 505.112 232.039 519.971 C 242.28 528.658 256.014 536.338 269.856 534.865 C 277.627 534.038 284.451 530.268 289.079 523.943 C 296.59 513.678 298.297 499.078 296.254 486.801 C 292.173 462.279 276.139 432.076 255.593 417.53 C 247.116 410.889 234.513 404.823 223.557 406.04 C 216.951 406.774 211.502 410.22 207.432 415.399 C 199.91 424.97 199.084 436.688 200.737 448.302 A 93.5752 93.5752 0 0 0 202.39 456.883 z"/>
<path transform="translate(0,0)" fill="rgb(0,1,20)" d="M 341.299 688.729 C 344.921 688.58 347.963 688.632 351.181 690.5 C 355.902 693.241 359.573 697.569 360.803 702.943 C 361.855 707.535 361.231 710.507 358.888 714.508 C 357.047 714.835 354.89 715.183 353.058 714.655 C 349.192 713.54 345.262 709.199 343.448 705.744 C 340.459 700.05 339.567 694.891 341.299 688.729 z"/>
<path transform="translate(0,0)" fill="rgb(157,162,168)" d="M 346.17 695.413 C 347.812 696.015 349.149 696.712 350.496 697.822 C 353.942 700.661 354.739 703.842 355.278 708.113 C 353.185 707.415 351.325 706.832 349.644 705.345 C 346.509 702.572 346.304 699.305 346.17 695.413 z"/>
<path transform="translate(0,0)" fill="url(#Gradient13)" d="M 226.656 543.111 C 237.161 542.187 245.624 544.273 254.5 550.118 C 276.958 564.906 291.622 594.419 296.945 620.065 C 300.07 635.121 301.158 654.767 291.936 667.977 C 287.366 674.525 281.185 678.074 273.447 679.493 C 265.9 678.926 259.408 677.904 252.403 674.73 C 228.553 663.926 213.265 638.46 204.421 614.898 C 198.205 598.34 195.52 578.254 203.554 561.76 C 208.532 551.54 216.264 546.559 226.656 543.111 z"/>
<path transform="translate(0,0)" fill="rgb(238,237,235)" d="M 222.971 562.172 C 225.551 561.926 228.283 561.582 230.867 561.88 C 243.942 563.388 256.721 578.523 263.914 588.591 C 275.176 604.354 287.072 628.797 283.288 648.734 C 281.678 657.218 277.87 662.47 270.787 667.199 C 268.598 667.388 266.354 667.569 264.178 667.162 C 249.228 664.369 234.701 647.872 226.852 635.619 C 217.08 620.362 206.132 596.513 210.698 578.013 C 212.625 570.204 216.207 566.228 222.971 562.172 z"/>
<path transform="translate(0,0)" fill="rgb(0,1,20)" d="M 325.775 531.176 C 332.888 530.901 338.969 531.975 345.434 535.053 C 369.312 546.418 385.655 576.14 393.871 600.049 C 398.997 614.969 402.09 633.099 394.48 647.704 C 389.001 658.22 380.6 663.194 369.709 666.622 C 361.101 667.517 352.328 664.961 344.857 660.79 C 322.856 648.508 307.325 621.978 300.575 598.4 C 295.996 582.408 293.179 562.675 302.031 547.638 C 307.538 538.283 315.498 533.696 325.775 531.176 z"/>
<path transform="translate(0,0)" fill="rgb(0,0,7)" d="M 344.013 644.719 C 342.878 645.242 341.702 645.466 340.493 645.766 C 334.473 643.644 329.331 635.911 325.901 630.684 C 317.733 618.236 300.913 582.28 305.927 567.716 C 307.055 564.439 308.483 564.156 311.271 562.628 C 309.33 590.958 323.578 621.356 341.899 642.416 C 342.583 643.202 343.299 643.959 344.013 644.719 z"/>
<path transform="translate(0,0)" fill="rgb(238,237,235)" d="M 311.271 562.628 C 313.521 557.201 315.215 552.762 321.08 550.535 C 325.71 548.777 330.424 549.133 334.895 551.181 C 354.577 560.199 370.521 588.9 377.122 608.458 C 381.033 620.042 383.629 636.076 377.685 647.287 C 375.861 650.727 373.081 653.116 369.251 653.994 C 362.678 655.501 354.97 652.521 349.579 648.903 C 347.653 647.611 345.827 646.16 344.013 644.719 C 343.299 643.959 342.583 643.202 341.899 642.416 C 323.578 621.356 309.33 590.958 311.271 562.628 z"/>
</svg>