<svg xmlns="http://www.w3.org/2000/svg" display="block" viewBox="0 0 2048 2048"><defs><linearGradient id="a" x1="1433.28" x2="1452.52" y1="1234.29" y2="1290.9" gradientUnits="userSpaceOnUse"><stop class="stop0" offset="0"/><stop class="stop1" offset="1" stop-color="#02021a"/></linearGradient><linearGradient id="b" x1="1563.15" x2="1582.16" y1="1248.64" y2="1295.64" gradientUnits="userSpaceOnUse"><stop class="stop0" offset="0"/><stop class="stop1" offset="1" stop-color="#010425"/></linearGradient><linearGradient id="c" x1="1520.25" x2="1537.07" y1="1236.68" y2="1356.89" gradientUnits="userSpaceOnUse"><stop class="stop0" offset="0" stop-color="#010310"/><stop class="stop1" offset="1" stop-color="#010224"/></linearGradient><linearGradient id="d" x1="1286.32" x2="1310.02" y1="671.65" y2="674.512" gradientUnits="userSpaceOnUse"><stop class="stop0" offset="0" stop-color="#000001"/><stop class="stop1" offset="1" stop-color="#010326"/></linearGradient><linearGradient id="e" x1="1326.34" x2="1278.76" y1="934.739" y2="943.813" gradientUnits="userSpaceOnUse"><stop class="stop0" offset="0"/><stop class="stop1" offset="1" stop-color="#020732"/></linearGradient><linearGradient id="f" x1="1050.6" x2="1021.23" y1="882.065" y2="906.986" gradientUnits="userSpaceOnUse"><stop class="stop0" offset="0" stop-color="#000001"/><stop class="stop1" offset="1" stop-color="#020329"/></linearGradient><linearGradient id="g" x1="1217.34" x2="1249.76" y1="1083.05" y2="1082.87" gradientUnits="userSpaceOnUse"><stop class="stop0" offset="0"/><stop class="stop1" offset="1" stop-color="#040b2c"/></linearGradient><linearGradient id="h" x1="1036.92" x2="847.875" y1="397.128" y2="561.18" gradientUnits="userSpaceOnUse"><stop class="stop0" offset="0" stop-color="#000005"/><stop class="stop1" offset="1" stop-color="#020722"/></linearGradient><linearGradient id="i" x1="960.15" x2="1013.82" y1="523.375" y2="475.158" gradientUnits="userSpaceOnUse"><stop class="stop0" offset="0" stop-color="#000004"/><stop class="stop1" offset="1" stop-color="#010422"/></linearGradient><linearGradient id="j" x1="911.194" x2="861.84" y1="464.078" y2="558.857" gradientUnits="userSpaceOnUse"><stop class="stop0" offset="0" stop-color="#000002"/><stop class="stop1" offset="1" stop-color="#010924"/></linearGradient><linearGradient id="k" x1="856.619" x2="917.883" y1="527.144" y2="495.598" gradientUnits="userSpaceOnUse"><stop class="stop0" offset="0" stop-color="#010108"/><stop class="stop1" offset="1" stop-color="#02092d"/></linearGradient><linearGradient id="l" x1="709.188" x2="85.286" y1="1138.43" y2="1052.87" gradientUnits="userSpaceOnUse"><stop class="stop0" offset="0" stop-color="#959da2"/><stop class="stop1" offset="1" stop-color="#b3b9bb"/></linearGradient><linearGradient id="m" x1="287.99" x2="209.801" y1="597.39" y2="625.401" gradientUnits="userSpaceOnUse"><stop class="stop0" offset="0" stop-color="#000007"/><stop class="stop1" offset="1" stop-color="#030825"/></linearGradient></defs><path fill="#eeedeb" d="M0 0h2048v2048H0z"/><path fill="#030727" d="M1503.46 1313.09c5.87-.34 13.48-.94 18.36 2.94 1.27 1.02 1.03 1.65 1.26 3.13-1.45 2.69-2.98 3.75-5.45 5.37-5.39.66-12.26 1.06-17.09-1.83-1.97-1.17-1.92-1.74-2.47-3.82 1.25-2.89 2.94-4.02 5.39-5.79m171.34 233.99c1.94-.3 3.67-.59 5.63-.22 3.97.74 7.18 3.6 9.45 6.81 2.33 3.27 3.36 7.07 2.57 11.04-.66 3.34-2.41 6.7-4.7 9.2-8.75 9.53-22.02 16.81-32.59 24.22-10.08 7.06-19.85 14.52-30.07 21.37-2.58.99-5.39 1.69-8.12.96-2.77-.73-5.01-2.54-6.44-5.01-3.24-5.59-2.66-13.54-.7-19.46 1.45-4.39 3.84-7.89 7.25-10.98 6.13-5.54 14.03-9.57 20.89-14.18 12.27-8.25 23.63-16.92 36.83-23.75"/><path fill="#eeedeb" d="M1675.65 1556.81c1.5.07 3.44.25 4.81.84 2.33 1 2.36 2.31 2.85 4.48-2.59 9.84-49.03 39.98-59.66 47.44l-3.08.9-2.03-1.24c-.84-2.65-1.22-5.11-.54-7.84 2.76-11.1 46.3-38.18 57.65-44.58"/><path fill="#030727" d="M1710.45 1551c-3.25-4.59-5.95-9.21-5.28-15.09.88-7.67 4.5-11.6 10.27-16.19 9.93-7.91 51.61-38.09 60.88-41.89 2.13-.88 4.42-1.07 6.69-.71 3.69.57 7.26 2.84 9.41 5.87 2.4 3.37 2.95 7.01 2.28 11.03-1.45 8.85-8.24 13.41-14.91 18.41-11.39 7.42-49.34 37.03-59.31 39.16-3.28.7-6.78.03-10.03-.59"/><path fill="#eeedeb" d="M1779.99 1486.65c1.11.36 2.35 1.1 3.4 1.62 1.17 2.05 2.1 3.1 1.42 5.58-2.47 8.97-54.79 41.79-65.38 48.02-2.36.04-2.02-.03-3.82-1.18-.64-1.54-1.08-2.6-.77-4.32.49-2.67 1.86-4.75 3.73-6.63 9.99-10.01 48.55-35.89 61.42-43.09"/><path fill="#030727" d="M1431.92 1211.38c16.19-1.52 35.07 1.26 49.14 9.8 10.08 6.12 19.08 15.15 21.68 27.01 2.25 10.3-.45 21.32-6.37 29.93-10.84 15.76-28.57 21.11-46.3 24.71-18.59 1.92-37.38-.92-53.03-11.72-10.06-6.94-18.47-17.62-20.5-29.91-1.59-9.6 1.35-18.88 7.25-26.49 11.42-14.75 30.32-21.03 48.13-23.33"/><path fill="url(#a)" d="M1480.65 1242.21c1.31-3.04 1.21-4.16 4.27-5.62 4.18 2.03 6.07 7.11 7.49 11.35 2.2 6.5 1.97 13.66-1.1 19.83-5.37 10.8-17.75 18.5-29 21.92-26.45 8.04-26.85 3.35-51.58-2.35-7.66-1.77-15.27-10.63-19.03-17.18-2.49-4.33-5.45-10.98-4.46-16.13.34-1.77 1.19-2.66 2.38-3.9l1.86-.46c1.47 2.54 1.31 5.24 1.42 8.09 1.23 3.31 2.44 6.67 4.35 9.66 6.16 9.65 16.82 15.52 27.81 17.87 15.97 3.42 34.5.79 48.1-8.54 6.09-4.19 12.32-10.58 13.33-18.25.91-6.96-1.59-11.08-5.84-16.29"/><path fill="#eeedeb" d="m1392.9 1257.76.45-1.87c.91-3.9 1.84-6.99 4.34-10.2 7.69-9.91 20.14-14.64 32.25-16.27 19.22-2.6 35.16 1.08 50.71 12.79 4.25 5.21 6.75 9.33 5.84 16.29-1.01 7.67-7.24 14.06-13.33 18.25-13.6 9.33-32.13 11.96-48.1 8.54-10.99-2.35-21.65-8.22-27.81-17.87-1.91-2.99-3.12-6.35-4.35-9.66"/><path fill="#030727" d="M1811.07 487.302c14.38-1.044 27.51 1.051 40.02 8.561a63.26 63.26 0 0 1 29.02 39.632 65.14 65.14 0 0 1-8.43 50.279c-10.69 16.708-26.32 25.115-45.32 29.174-15.88 1.202-30.41-1.883-43.75-10.74-14.23-9.452-23.29-24.381-26.44-41.045-3.23-17.113.51-35.71 10.52-50.015 10.71-15.316 26.35-22.802 44.38-25.846m2.73 316.099a69.66 69.66 0 0 1 44.75 14.135c13.38 10.34 20.96 25.495 23.04 42.107 2.17 17.347-1.42 35.688-12.54 49.517-11.74 14.6-28.13 21.592-46.42 23.351a64 64 0 0 1-43.07-14.079 65.82 65.82 0 0 1-24.48-44.937 64.93 64.93 0 0 1 14.14-47.867c11.55-14.301 26.76-20.392 44.58-22.227"/><path fill="#9da2a8" d="M1807.32 643.186c16.14-1.306 31.25 1.179 45.09 9.941a63.5 63.5 0 0 1 27.99 40.342c3.6 16.93-.08 35.669-9.51 50.119-10.46 16.029-25.03 24.312-43.47 28.229-15.04 1.885-29.51-.283-42.56-8.348-14.5-8.96-25.08-22.942-28.87-39.654-4.01-17.707-1.43-36.959 8.47-52.313 10.03-15.56 25.06-24.391 42.86-28.316"/><path fill="#030727" d="M1810.32 329.24c14.95-1.453 29.42 1.164 42.21 9.224a65.97 65.97 0 0 1 28.98 41.413 66 66 0 0 1-9.04 51.032c-10.34 15.874-25.39 24.249-43.61 28.093-16.68 2.245-31.97-.727-46.05-10.221-14.89-10.042-24.74-24.99-27.98-42.666a66.34 66.34 0 0 1 10.95-49.334c10.85-15.5 26.2-24.148 44.54-27.541"/><path fill="#eeedeb" d="M1815.8 335.387a57.9 57.9 0 0 1 37.39 12.052 59.5 59.5 0 0 1 22.7 40.019 59.74 59.74 0 0 1-12.78 44.408c-10.32 12.902-24.42 19.401-40.52 21.279-14.63-.216-26.79-2.351-38.85-11.388a58.07 58.07 0 0 1-22.94-38.355 59.66 59.66 0 0 1 11.86-44.998c10.88-13.878 25.8-21.119 43.14-23.017"/><path fill="#030727" d="M1549.36 1220.46c-18.91 6.98-37.36 8.68-56.8 2.54-13.45-4.26-26.75-12.1-33.21-25.17a34.85 34.85 0 0 1-1.35-27.97c4.97-13.29 16.93-22.86 29.47-28.72 22.88-10.68 52.92-11.13 76.48-2.37 15.71 5.84 97.51 55.36 110.8 66.27 5.7 4.68 10.28 9.63 13.28 16.48 6.21 14.2 5.84 33.33.03 47.63-2.79 6.86-7.58 12.2-13.04 17.06-13.54 12.05-30.1 21.87-45.06 32.22-23.54 16.28-56 41.95-81.57 52.76-20.92 8.84-45.14 10.59-66.47 1.84-14.99-6.14-114.06-60.85-118.72-72.14-.64-4.45.47-11.44 3.59-14.95 1.92-2.15 2.53-2.22 5.23-2.55 9.43 3.09 18.83 10.23 27.37 15.36l48.69 29.18c34.98 20.9 61.79 36.04 101.6 15.88 8.84-4.48 21.85-11.26 28.54-18.31.63-.32 1.27-.65 1.88-1.01 14.3-8.49 28.02-18.65 41.76-28.05 12.57-8.6 26.42-16.68 37.52-27.16 5.42-5.12 11.2-11.38 13.05-18.76 3.34-13.34-1.54-25.13-8.35-36.3l-.81-.83-1.35-1.37c-15.95-16.28-73.97-51.85-95.35-61.72-6.55-3.03-13.2-5.25-20.34-6.35-14.41-2.21-42.31-2.38-54.39 6.39 14.62-5.3 27.02-6.22 42.42-4.74 11.75-1.31 24.2 1.56 33.53 9.04a35.42 35.42 0 0 1 13.38 24.59c.94 9.72-2.54 18.8-8.95 26.04-2.37 2.68-4.97 5.15-7.6 7.59 22.69-5.25 48.41-5.59 68.9 7.04 9.15 5.65 17.24 14.29 19.45 25.11 1.84 9.01-.47 17.96-5.59 25.5-12.86 18.94-36.34 27.25-57.84 30.95-6.79-1.54-14.33-1.14-21.38-2.73-14.45-3.25-29.8-11.19-37.68-24.16a35.2 35.2 0 0 1-4.2-27.24c3.38-12.99 12.17-20.22 23.08-26.87"/><path fill="#000007" d="M1560.94 1160.93c7.5 7.61 8.31 13.56 8.75 23.7-1.39.2-2.46.22-3.84.17l-1-3.48c-1.43-6.21-3.66-10.44-7.87-15.24z"/><path fill="url(#b)" d="M1537.7 1263.79c.91-3.98 1.04-4.45 4.42-6.8 3.58 9.99 9.92 16.74 19.63 21.14 9.05 4.1 19.17 5.62 29.05 5.42 3.3-.07 7.11-.73 10.34-.34 2.12.37 3.45 1.02 5.44.05l1.07 2.24c-1.35 1.1-1.82 1.35-3.57 1.93l.05.29c1.86.74.8.59 2.83.26 2.11-.33 1.26-.28 3.34-.09-1.23.83-1.15.82-2.68 1.59-10.37 5.19-24.58 3.61-35.18.31-15.06-4.68-27.18-11.71-34.74-26"/><path fill="#000114" d="M1537.7 1263.79c-2.38-7.39-1.48-15.78 2.22-22.57 5.74-10.54 17.3-16.18 28.49-19.08 18.58-4.83 40.6-3.9 57.37 6.16 6.6 3.96 12.6 9.78 14.57 17.45 1.94 7.59-.07 15.25-4.24 21.73-6.57 10.2-16.05 14.3-25.81 20.41-2.08-.19-1.23-.24-3.34.09-2.03.33-.97.48-2.83-.26l-.05-.29c1.75-.58 2.22-.83 3.57-1.93l-1.07-2.24c-1.99.97-3.32.32-5.44-.05 4.64-1.22 9.34-2.74 13.64-4.9 7.82-3.94 16.93-10.03 19.47-18.93 1.39-4.9.45-9.86-2.19-14.16-5.66-9.21-17.21-14.21-27.37-16.66-15.29-3.69-32.88-2.35-46.4 6.14-8.69 5.46-13.87 12.36-16.17 22.29-3.38 2.35-3.51 2.82-4.42 6.8m-45.86-113.45c14.62-5.3 27.02-6.22 42.42-4.74 7.21 7.4 19.03 7.02 26.68 15.33l-3.96 5.15c-15.37-10.03-32.58-15.76-51.05-11.96-10.31 2.13-25.46 8.94-31.23 18.22-2.4 3.86-3.07 8.22-1.89 12.61 2.28 8.48 10.18 14.71 17.65 18.54 16.16 8.3 35.13 8.75 52.13 2.81 8.24-2.88 16.58-8.63 20.16-16.9 1.1-2.54 1.68-5.35 2.1-8.08l1 3.48c1.38.05 2.45.03 3.84-.17.03 1.07.08 1.26-.13 2.47-1.27 7.26-5.86 13.8-11.63 18.22-13.12 10.05-33.94 12.81-49.96 10.55-13.23-1.87-28.74-7.78-36.66-19.03-4.13-5.84-5.69-12.75-4.26-19.78 2.99-14.78 12.6-18.09 23.52-25.81z"/><path fill="#eeedeb" d="M1671.5 1212.54c7.47 6.16 10.74 15.45 11.7 24.87 1.26 12.5-1.43 29.38-9.91 39.07-11.36 12.99-110.49 80.36-127.1 87.87-9.24 4.18-20.32 6.09-30.4 6.48-9.32.37-18.66-.7-27.51-3.71-19.1-6.51-37.1-18.73-54.46-28.92-22.04-12.93-44.29-25.75-65.85-39.47.93-2.34 1.57-4.69 3.59-6.32 9.18 3.77 18.18 10.44 26.67 15.65 22.94 14.06 65.88 42.65 90.13 50.25 21.06 6.61 45.99 3.75 65.43-6.57 20.38-10.82 39.46-24.97 58.54-37.92 18.14-12.31 38.43-24.45 54.53-39.37 5.58-5.18 12.27-12.51 14.32-19.93 4.28-15.52-1.86-29.02-9.68-41.98"/><path fill="url(#c)" d="M1664.08 1214.22c2.37-.95 4.91-1.23 7.42-1.68 7.82 12.96 13.96 26.46 9.68 41.98-2.05 7.42-8.74 14.75-14.32 19.93-16.1 14.92-36.39 27.06-54.53 39.37-19.08 12.95-38.16 27.1-58.54 37.92-19.44 10.32-44.37 13.18-65.43 6.57-24.25-7.6-67.19-36.19-90.13-50.25-8.49-5.21-17.49-11.88-26.67-15.65-2.02 1.63-2.66 3.98-3.59 6.32l-1.27.64c.1-.36.21-.72.3-1.09.51-2.06 1.6-6.26.79-8.19-1.75 2.74-2.83 4.83-3.46 8.04-.28 1.47-.11.75-.76 2.52l-.37.24c-.64-4.45.47-11.44 3.59-14.95 1.92-2.15 2.53-2.22 5.23-2.55 9.43 3.09 18.83 10.23 27.37 15.36l48.69 29.18c34.98 20.9 61.79 36.04 101.6 15.88 8.84-4.48 21.85-11.26 28.54-18.31.63-.32 1.27-.65 1.88-1.01 14.3-8.49 28.02-18.65 41.76-28.05 12.57-8.6 26.42-16.68 37.52-27.16 5.42-5.12 11.2-11.38 13.05-18.76 3.34-13.34-1.54-25.13-8.35-36.3"/><path fill="#eeedeb" d="M1542.12 1256.99c2.3-9.93 7.48-16.83 16.17-22.29 13.52-8.49 31.11-9.83 46.4-6.14 10.16 2.45 21.71 7.45 27.37 16.66 2.64 4.3 3.58 9.26 2.19 14.16-2.54 8.9-11.65 14.99-19.47 18.93-4.3 2.16-9 3.68-13.64 4.9-3.23-.39-7.04.27-10.34.34-9.88.2-20-1.32-29.05-5.42-9.71-4.4-16.05-11.15-19.63-21.14m22.73-75.67c-.42 2.73-1 5.54-2.1 8.08-3.58 8.27-11.92 14.02-20.16 16.9-17 5.94-35.97 5.49-52.13-2.81-7.47-3.83-15.37-10.06-17.65-18.54-1.18-4.39-.51-8.75 1.89-12.61 5.77-9.28 20.92-16.09 31.23-18.22 18.47-3.8 35.68 1.93 51.05 11.96 4.21 4.8 6.44 9.03 7.87 15.24"/><path fill="#030727" d="m1340.95 1247.98-.16 258.98.19 67.34c.08 15.92 1.26 32.55-1.46 48.28a80.7 80.7 0 0 1-21.36 42.5c-14.32 14.66-53.63 38.7-72.87 45.41a64.7 64.7 0 0 1-20.86 3.64c-14.94.14-29.6-5.63-42.64-12.42-16.05-8.35-30.61-19.58-45.86-29.28l-86.88-54.83-122.631-77.73c-27.347-17.23-65.849-37.83-88.07-60.52a174.96 174.96 0 0 1-47.968-97.95c-2.521-17.04-1.908-34.64-1.872-51.83l.176-64.48.115-220.96.362-528.07c.217-74.692-.559-149.506.612-224.176.326-20.779 3.137-39.955 18.779-55.165 8.988-8.74 70.743-51.048 82.073-56.059 6.441-2.849 12.741-4.093 19.777-4.034 13.686.116 26.252 5.165 38.217 11.401 12.791 6.668 24.933 14.933 37.096 22.679l68.684 44.058 130.81 82.293a4869 4869 0 0 1 54.13 34.217c18.65 11.927 38.13 23.253 53.46 39.483a181.17 181.17 0 0 1 46.34 91.591c4.9 27.16 3.07 55.554 2.9 83.044l-.55 114.243.08 291.915c-.32 70.82-2.44 144.23-.28 214.83l109.14-72.83c17.38-11.57 35.11-26.71 54.48-34.48 18.57-7.44 39.13-10.35 58.84-6.29 10.66 2.2 21.48 5.99 31.11 11.09 12.54 6.65 24.27 15.25 36.26 22.85l71.86 45.32 105.29 66.64c16.75 10.67 34.47 20.16 50.36 32.08 10.45 7.85 20.83 17.28 27.99 28.31 5.34 8.24 8.55 17.44 10.17 27.09 2 11.95 2.5 92.61.32 103.23-3.02 14.69-14.6 25.93-25.65 35.2-19.86 16.67-42.73 29.08-63.81 44.06l-151.1 107.31-206.77 144.05-123.53 86.13c-14.01 9.64-27.57 20.3-41.84 29.51-3.98 2.57-7.74 4.94-12.53 3.91-.92-1.6-1.25-1.33-.79-2.84 1.24-3.97 5.86-7.04 9.11-9.41 30.07-21.95 61.86-42.02 92.38-63.42a19920 19920 0 0 0 286.11-201.18 1738 1738 0 0 1 35.46-24.76c6.75-4.57 15.13-9.05 21.02-14.52 7.32-4.36 14.28-10 21.35-14.81 14.89-10.15 30.75-19.88 44.33-31.74 18.27-10.18 35.63-23.14 52.19-35.91l-.03-79.84c-28.39 16.53-55.23 35.88-82.07 54.77l-92.56 65.01c-128.22 89.76-254.79 181.88-383.91 270.39-35.03 24.01-69.44 48.84-104.62 72.62-7.66 5.17-14.82 11.56-22.86 16.1-3.41 1.92-6.47 3.29-10.43 2.45l-1.85-1.73c1.07-3.27 4.14-5.52 6.8-7.54 14.76-11.14 30.64-21.1 45.78-31.76l133.86-93.49 387.22-271.64 86.51-59.88c22.44-15.34 58.39-36.36 75.49-55.81 12.7-14.44 19.9-33.16 10.57-51.47-6.56-12.89-17.77-23.52-29.14-32.18-16.39-12.48-34.98-22.52-52.41-33.49l-88.03-55.62-78.78-49.51c-13.28-8.36-26.47-17.46-40.19-25.03a122 122 0 0 0-22.26-9.43c-22.62-6.83-50.13-3.23-70.72 8.1-3.04 1.68-5.9 3.67-8.73 5.67 22.87-10.56 45.35-12.89 69.3-4.18 11.92 4.33 23.05 10.64 34.19 16.62 9.03 4.85 18.44 9.22 27.27 14.38 15.46 9.04 30.41 19.16 45.66 28.57l115.59 71.51c20.09 12.67 49.47 28.38 67.28 42.15 8.78 6.8 16.33 14.25 21.04 24.52 4.41 9.65 5.43 20.41 1.38 30.36-5.84 14.36-18.65 23.88-30.66 32.87-46.25 34.61-96.79 66.11-144.29 99.49l-379.35 265.67-153.64 107.57c-11.18 7.72-30.71 24.44-42.07 29.24-2.73 1.16-4.21 1.39-7.08.76l-1.01-1.77c1.05-2.91 2.22-3.91 4.66-5.78 11.41-8.73 23.86-16.31 35.6-24.62l115.17-80.52 451.47-315.53 78.51-54.59c19.01-13.07 42.77-25.31 57.86-42.84 9.17-10.66 13.03-23.23 6.65-36.4-3.57-7.38-9.55-14.35-16.13-19.25-16.53-12.34-35.63-22.2-53.27-32.93l-89.09-55.13-76.39-47.56c-6.75-4.13-15.53-11.38-22.85-13.77-1.17-.38-2.44-.49-3.65-.7-8.11-1.46-20.15-11.82-27.5-16.14-22.5-13.22-57.22-19.68-80.32-4.12-28.29 19.07-55.52 40.17-83.4 59.89-15.79 11.16-40.34 25.27-53.43 38.14-7.07 6.96-12.12 16-17.23 24.41"/><path fill="#000114" d="M1258.44 1680.05c-2.27-6.51 4.41-25.72 5.25-33.92 1.56-15.16-.48-31.14-.2-46.41.1-5.46-.3-8.08 3.94-12.05 1.82-1.7 3.4-3.16 4.85-5.2-2.49.98-4.29 1.72-7.04 1.5-4.08-9.17-1.71-26.14-1.32-36l.94-.78-.44-1.11.73 8.39c.62 9.63.26 19.26.63 28.89 10.95-6.66 27.07-19.27 38.06-23.85 2.47 1.19 3.89.96 6.49.71 1.51-.14.86-.12 2.58.13-15.48 10.66-31.6 20.34-47.02 31.09.12 27.98 3.01 62.35-7.45 88.61"/><path fill="#000007" d="m1265.35 800.242-.68 1.78c-4.02-8.018-.52-25.83-.82-35.244-.32-10.452-1.8-20.861-2.24-31.316-.73-17.728-.15-35.66-.11-53.407.03-17.456-.66-35.157.9-52.55l.57 11.552c1.56-9.939 1.92-29.985.46-39.846l-2.04-.371c.77-2.168 1.87-3.644 3.57-5.167 3.52-3.161 7.18-5.414 11.97-5.305-3.88 2.696-7.69 5.435-11.85 7.683.91 67.354-.01 134.818.27 202.191"/><path fill="#eeedeb" d="M1469.72 1131.98c.37.25.37.82.51 1.24l-1.91.6.32 1.86-.91-.39c-23.64 17.45-48.27 34.1-72.31 51.04-17.5 12.34-39.77 24.28-52.6 41.59l-.74-.63-.4-10.8 1.21-.59c15.67-7.46 31.05-20.51 45.54-30.28 26.93-18.16 54.33-35.55 81.29-53.64M901.409 191.243c17.058-2.281 30.139 2.364 44.266 11.198-18.773 11.288-36.635 24.054-55.674 34.899-.978.581-4.546 2.968-5.419 2.987-2.154.05-8.892-4.165-10.985-5.176-9.009-4.352-17.534-7.516-27.24-9.977 17.799-11.594 35.367-25.794 55.052-33.931M1888.51 1350.72c1.63 7.45.94 69.62-.64 77.14-4.39 20.82-28.22 36.24-44.96 46.9a2335 2335 0 0 1-.73-79.61c19.91-11.74 33.57-25.32 46.33-44.43m-575.6 209.63c5.61-3.17 10.86-6.87 16.17-10.51l.07 39.99c0 24.38.91 47.56-17.73 66.22-14.09 14.11-39 24.49-56.47 34.66 1.19-3.5 2.63-7.07 3.49-10.66 10.46-26.26 7.57-60.63 7.45-88.61 15.42-10.75 31.54-20.43 47.02-31.09m-55-1159.586c9.42.727 25.53 18.074 31.54 25.152 27.86 32.831 43.09 79.013 39.45 121.933-21.15 12.774-41.14 27.372-62.38 40.028-2.37-.038-1.77-2.85-1.89-4.491-1.09-14.931-2-29.91-5.76-44.461-10.46-40.547-33.37-71.38-64.56-98.461a2662 2662 0 0 0 63.6-39.7"/><path fill="#eeedeb" d="M822.006 242.425c9.807-6.148 17.643-9.153 29.409-6.288 12.694 3.092 24.605 10.14 35.847 16.613 17.247 9.93 33.698 21.237 50.539 31.83a11341 11341 0 0 1 127.729 81.558l75.86 47.938c16.82 10.626 34.31 20.958 49.98 33.25 15.62 12.266 30.48 28.41 40.5 45.618 13.79 23.671 23.14 50.865 25.28 78.252 2.17 27.68 1.16 55.988 1.18 83.758l.05 141.392-.08 450.894.07 269.26.35 80.86c-.01 24.24 1.86 50.28-4.5 73.84-2.4 8.9-6.46 20.07-14.83 24.93-4.8 2.78-12.15 2.99-17.59 3.6 4.78-3.29 10.52-6.63 13.68-11.62 6.6-7.92 10.04-17.55 11.94-27.56 3.59-18.97 2.12-39.8 2.09-59.09l.1-74.81.11-277.68-.45-451.735.16-139.452c.08-28.857 1.3-58.718-.96-87.464-1.88-24.07-10.44-52.281-24.07-72.304-3.62-12.792-26.23-34.597-36.51-42.871-26.5-21.33-62.32-41.113-91.38-59.576-40.39-25.662-79.95-52.765-120.605-77.98-17.34-12.392-36.177-23.273-54.276-34.537-17.607-10.958-35.147-23.067-53.867-31.981-8.163-3.888-16.144-6.474-24.94-8.507-7.037-.706-13.761-.531-20.816-.138m131.762-34.569c2.803.389 5.189 1.986 7.582 3.453 24.305 14.905 48.09 30.711 72.15 46.01l106.97 67.355c36.69 23.19 75.6 45.105 110.68 70.59-19.1 15.263-43.09 24.534-62.29 39.786-78.49-48.485-155.27-99.916-233.391-149.029-21.046-13.231-41.785-26.907-63.186-39.572 20.745-12.694 39.93-27.078 61.485-38.593m323.162 382.512c18.17-9.785 33.99-23.882 52.61-32.862l-.48 984.374c-8.29 5.74-17.42 11.29-25.22 17.63-10.99 4.58-27.11 17.19-38.06 23.85-.37-9.63-.01-19.26-.63-28.89 1.09-10.99.4-22.61.43-33.67l.07-66.56-.43-218.97.84-301.921c-.06-44.143 1.49-89.04-.71-133.107-.28-67.373.64-134.837-.27-202.191 4.16-2.248 7.97-4.987 11.85-7.683"/><path fill="url(#d)" d="M1297.19 643.958c.54-.054 1.07-.13 1.61-.163 3.52-.215 6.7.149 9.32 2.859 5.89 6.108 4.58 19.465 4.05 27.328-.8 11.719-3.61 20.743-12.61 28.66-1.13.257-2.47.597-3.63.726-2.61.29-4.54-.287-6.36-2.258-6.41-6.953-4.54-26.255-3.57-35.197 1.04-9.62 3.58-15.931 11.19-21.955"/><path fill="#eeedeb" d="m1299.14 651.446 2.9.522c2.74 2.58 3.1 4.667 3.4 8.347 1.04 12.605-.04 25.119-8.46 35.019-1.36.409-.54.352-2.42-.564-1.73-5.272-1.71-11.233-1.82-16.748-.19-9.662-.72-19.277 6.4-26.576"/><path fill="url(#e)" d="M1302.02 878.954c2.58-.242 5.42-.274 7.98.154 3.45.578 6.48 3.321 8.21 6.259 4.44 7.519 4.09 87.373 1.22 97.92-2.18 8.014-8.43 13.774-15.37 17.813-1.96.03-3.84 0-5.78-.37-4.27-.812-7.64-3.246-9.89-6.952-6.12-10.112-4.39-81.02-1.09-95.278 2.14-9.256 6.75-14.636 14.72-19.546"/><path fill="#eeedeb" d="M1305.23 885.682c1.04.325 2.09.624 3.09 1.034 2.21.9 3.27 2.269 4.1 4.47 2.5 6.618 1.3 89.132-1.54 94.808-2.38 4.77-5.94 6.343-10.73 8.122-2.39-1.281-5.13-2.624-6.54-5.066-3.68-6.397-1.9-78.78.25-88.446 1.56-7.016 5.46-11.21 11.37-14.922"/><path fill="#030727" d="M1305.04 738.102c1.33.148 2.66.28 3.97.573 4.05.905 8.12 3.173 10.18 6.898 4.22 7.637 3.74 90.407.4 101.478-2.58 8.566-8.94 14.327-16.63 18.398-1.66-.328-3.39-.658-4.97-1.262-4.84-1.846-8.65-6.451-10.56-11.139-4.21-10.338-2.87-88.084 1.83-99.468 3.23-7.806 8.05-12.338 15.78-15.478"/><path fill="#eeedeb" d="M1304.09 745.677c2.98.417 6.31.735 8.13 3.442 2.57 3.805 3.15 84.377 1.6 92.882-1.25 6.836-5.11 10.306-10.57 14.128-2.92-.281-6.05-1.572-7.99-3.873-4.77-5.681-3.03-74.032-2.09-85.546.79-9.519 3.69-14.9 10.92-21.033M842.822 242.563c8.796 2.033 16.777 4.619 24.94 8.507 18.72 8.914 36.26 21.023 53.867 31.981 18.099 11.264 36.936 22.145 54.276 34.537 40.655 25.215 80.215 52.318 120.605 77.98 29.06 18.463 64.88 38.246 91.38 59.576 10.28 8.274 32.89 30.079 36.51 42.871 13.63 20.023 22.19 48.234 24.07 72.304 2.26 28.746 1.04 58.607.96 87.464l-.16 139.452.45 451.735-.11 277.68-.1 74.81c.03 19.29 1.5 40.12-2.09 59.09-1.9 10.01-5.34 19.64-11.94 27.56-.67-1.61-.91-3.43-1.28-5.13l-2.84-1.23c-6.15 6.54-13.4 11.39-22.57 11.76-10.08.41-19.89-3.86-28.62-8.51-12.83-6.84-24.92-15.48-37.16-23.34-25.89-16.62-51.64-33.75-77.75-49.98l-134.784-84.69c-24.423-15.37-59.14-33.92-79.31-53.09-28.283-26.88-48.256-69.68-49.143-108.78-1.216-53.59.883-107.37.651-160.99l-.067-508.482.08-273.797-.184-77.709c-.142-18.593-.832-37.44.416-55.996.728-10.818 2.892-24.262 10.957-32.122 7.528-7.336 17.512-7.976 27.429-8.159l-4.237-1.498c7.691-4.108 28.341 8.927 36.549 10.142l-.988-1.544c-8.822-5.296-23.058-10.243-33.385-10.924l-1.495.694-.315-.944c1.557-1.042 3.549-.996 5.388-1.228"/><path fill="#000007" d="M1037.03 1006.92c4.73 4.61 9.56 10.17 15.44 13.23-1.22 1.59-2.43 3.52-3.85 4.9-6.7-4.54-12.82-10.29-18.95-15.56z"/><path fill="#030727" d="M1075.64 998.454c2.88 4.086 5.91 8.116 8.54 12.356-4.33 7.54-10.7 15.06-19.34 17.68-5.09 1.54-10.39.31-14.85-2.47-.48-.3-.91-.65-1.37-.97 1.42-1.38 2.63-3.31 3.85-4.9 5.7.91 9.83 1.13 15.1-1.65 2.92-1.54 4.67-3.81 5.49-6.98.83-3.22-1.04-5.87-2.54-8.56z"/><path fill="#000007" d="M1044.76 919.655c-2.22-1.995-2.89-3.282-3.97-5.969 1.17-1.726 5.17.898 8.05.326 10.95 5.767 26.15 23.646 30.04 35.46.57 1.731.66 3.034.26 4.835-5.75 4.447-10.25 7.859-11.09 15.649-1.02 9.423 3.21 20.298 7.59 28.498l-5.12 4.506c-4.95-9.949-8.93-20.744-9.03-32.004-.09-9.534 2.81-15.606 9.49-22.203-7.12-12.323-13.78-21.696-26.22-29.098"/><path fill="url(#f)" d="m1014.22 894.685 3.4 2.193c7.57-6.172 3.4-25.833 23.06-23.192 3.85.516 7.61 2.386 9.9 5.582 1.95 2.707 2.75 5.947 2.17 9.234-.59 3.385-2.9 7.562-5.86 9.415-4.89 3.069-13.97 4.29-17.42 8.62l.54 1.779c6.47 1.466 13.16 2.052 18.83 5.696-2.88.572-6.88-2.052-8.05-.326 1.08 2.687 1.75 3.974 3.97 5.969-5.46-1.652-11.13-2.373-16.75-3.253a196 196 0 0 1-16.26-17.79z"/><path fill="#eeedeb" d="M1036.92 880.902c3.06.112 5.06.134 7.73 1.851.61 1.543 1.22 1.956.5 3.601-1.88 4.323-5.88 6.301-9.9 8.28-1.56.565-2.64.866-4.33.928-1.9.07-1.74-.313-3.05-1.507-.12-.903-.27-1.523-.07-2.479 1.06-4.979 4.99-8.25 9.12-10.674"/><path fill="#000114" d="M973.983 937.301c-2.291-8.488-3.373-18.294-2.568-27.073.799-8.703 3.98-17.374 11.142-22.82 3.96-3.011 9.058-4.744 14.057-3.948 6.986 1.112 13.416 5.75 17.606 11.225l-2.47 3.927c-5.49-3.602-12.018-7.717-18.922-6.545-4.455.756-8.421 4.063-10.918 7.711-2.163 3.161-2.517 6.505-3.701 10.032-.038 27.402 7.697 63.61 27.691 83.711a71 71 0 0 0 1.56 1.507c11.16 2.162 20.55 4.468 29.57 11.892l-7.36 2.57c-7.77-4.52-16.16-4.93-24.7-7.1-16.982-16.602-27.323-41.891-30.987-65.089"/><path fill="#000007" d="M842.822 242.563c8.796 2.033 16.777 4.619 24.94 8.507 18.72 8.914 36.26 21.023 53.867 31.981 18.099 11.264 36.936 22.145 54.276 34.537 40.655 25.215 80.215 52.318 120.605 77.98 29.06 18.463 64.88 38.246 91.38 59.576 10.28 8.274 32.89 30.079 36.51 42.871l-1.79.135c-2.6-3.992-5.07-8.421-8.2-12.01 3.37 8.816 10.58 15.027 12 24.983-9.6-17.095-19.94-32.872-34.5-46.211-21.48-19.667-50.07-34.732-74.66-50.381L1024 353.946c-17.17-11.048-34.7-21.333-51.552-32.889-18.427-12.267-37.585-23.674-56.334-35.459-16.549-10.403-33.135-22.079-50.92-30.238-7.869-3.61-15.409-5.811-23.889-7.495l-4.237-1.498c7.691-4.108 28.341 8.927 36.549 10.142l-.988-1.544c-8.822-5.296-23.058-10.243-33.385-10.924l-1.495.694-.315-.944c1.557-1.042 3.549-.996 5.388-1.228"/><path fill="url(#g)" d="M1226.41 511.123c-1.42-9.956-8.63-16.167-12-24.983 3.13 3.589 5.6 8.018 8.2 12.01l1.79-.135c13.63 20.023 22.19 48.234 24.07 72.304 2.26 28.746 1.04 58.607.96 87.464l-.16 139.452.45 451.735-.11 277.68-.1 74.81c.03 19.29 1.5 40.12-2.09 59.09-1.9 10.01-5.34 19.64-11.94 27.56-.67-1.61-.91-3.43-1.28-5.13l-2.84-1.23c2.27-3.65 4.36-7.39 6.03-11.35 3.99-9.48 5.09-19.78 5.4-29.96.8-26.25.28-52.61.26-78.87l.04-134.27-.05-437.191.12-281.609-.01-87.959c.01-17.421.55-35.095-.47-52.484-1.18-20.12-8.86-38.45-16.27-56.934"/><path fill="#eeedeb" d="M978.209 909.81c1.184-3.527 1.538-6.871 3.701-10.032 2.497-3.648 6.463-6.955 10.918-7.711 6.904-1.172 13.432 2.943 18.922 6.545a196 196 0 0 0 16.26 17.79c5.62.88 11.29 1.601 16.75 3.253 12.44 7.402 19.1 16.775 26.22 29.098-6.68 6.597-9.58 12.669-9.49 22.203.1 11.26 4.08 22.055 9.03 32.004 1.5 2.69 3.37 5.34 2.54 8.56-.82 3.17-2.57 5.44-5.49 6.98-5.27 2.78-9.4 2.56-15.1 1.65-5.88-3.06-10.71-8.62-15.44-13.23-9.02-7.424-18.41-9.73-29.57-11.892a71 71 0 0 1-1.56-1.507c-19.994-20.101-27.729-56.309-27.691-83.711"/><path fill="url(#h)" d="M852.799 280.413c9.765.572 18.242 2.842 27.164 6.828 20.179 9.015 38.007 23.023 56.934 34.341 58.932 35.241 101.523 53.368 127.303 122.633 4.19 11.245 7.3 22.734 8.71 34.662 3.53 29.941 1.84 61.786 1.62 91.931-.15 20.055 1.05 41.067-1.15 60.98-.91 8.219-2.79 17.044-6.41 24.518-5.6 11.579-15.41 18.66-27.37 22.558-.6.095-1.2.2-1.8.285-9.97 1.41-20.64-.81-29.82-4.726-13.192-5.634-24.925-14.574-36.962-22.27l-53.458-33.808c-13.611-8.698-28.117-15.889-40.978-25.73-29.651-22.689-52.164-60.127-56.802-97.4-1.499-12.049-.95-24.572-.925-36.692l.11-54.191.153-55.756c.037-11.793-.483-23.958.88-35.671.854-7.338 2.08-14.889 6.899-20.743 6.553-7.96 16.073-10.689 25.902-11.749"/><path fill="#eeedeb" d="M870.188 568.987c-15.253-17.263-28.442-34.551-35.449-56.829-8.991-28.587-5.495-95.661-5.472-127.723.016-21.227-1.211-43.088.134-64.234.583-9.165 1.63-18.468 8.786-25.067 5.208-4.802 12.241-6.491 19.176-6.041 8.137.528 16.224 3.555 23.496 7.107 20.048 9.794 39.038 23.703 58.136 35.344 21.099 12.86 44.145 24.544 63.895 39.346 8.93 6.693 16.92 14.776 24.08 23.311 43.81 52.218 40.05 98.64 39.93 161.892-.05 22.877 1.29 46.778-.67 69.543-1.18 13.626-4.9 28.581-15.72 37.831-6.78 5.808-15.62 7.666-24.36 6.766-12.65-1.301-42.685-15.882-50.707-25.654-9.514-10.532-67.913-41.637-84.979-52.931-6.974-4.615-19.858-12.678-21.603-21.07z"/><path fill="#000007" d="M986.344 593.521c2.641.096 4.943.265 7.387 1.359 3.609 1.616 6.869 4.764 8.239 8.508 1.68 4.615 1.08 7.93-.85 12.301-2.018.028-4.026.119-5.987-.491-3.972-1.236-7.511-4.757-9.047-8.58-1.844-4.591-1.492-8.582.258-13.097m-21.712-162.278c8.16.309 15.912 2.577 23.067 6.489 22.231 12.154 40.781 37.569 47.641 61.723 4.55 16.038 6.19 38.036-2.52 52.935-5.37 9.184-13.46 14.031-23.56 16.468-9.06.304-18.164-3.319-25.775-8.003-23.9-14.705-39.202-41.02-45.442-67.859-3.518-15.131-5.544-33.256 3.502-46.912 5.479-8.271 13.584-12.768 23.087-14.841"/><path fill="url(#i)" d="M962.566 440.821c3.845-.531 8.245-.634 12.071.033 15.506 2.701 29.323 16.207 38.123 28.58 11.19 15.727 17.91 33.381 18.7 52.707.14 3.528.67 7.732-.04 11.204-.1.503-.23 1-.34 1.502-.07.326-.13.655-.2.981-.08.341-.19.676-.26 1.018-.44 2.067-.8 3.667-1.7 5.608-2.76 5.99-7.08 13.708-13.7 16.012l-1.3-1.258c-.63.188-1.26.391-1.89.565-8.14 2.235-18.163-1.542-25.132-5.643-23.968-14.105-36.295-43.149-42.531-68.982-2.533-10.491-2.593-22.84 3.503-32.224 3.44-5.294 8.516-8.905 14.696-10.103"/><path fill="#eeedeb" d="M958.726 453.08c2.129-.303 4.294-.463 6.445-.345 12.312.672 25.367 12.665 32.999 21.747 12.24 14.569 24.94 37.248 22.78 57.008-.85 7.748-3.64 12.467-9.7 17.193-2.49.645-5.17 1.092-7.75.965-10.061-.494-19.933-8.372-26.588-15.444-14.503-15.412-27.702-41.896-26.475-63.504.44-7.743 2.468-12.543 8.289-17.62"/><path fill="url(#j)" d="M864.573 445.36c11.451.568 21.173 2.777 30.904 9.099 21.641 14.058 37.012 41.151 42.304 65.982 3.022 14.176 3.947 32.489-4.541 44.958-5.813 8.54-14.146 12.187-23.901 14.229-11.048-.193-20.484-3.636-29.546-9.738-23.602-15.894-39.975-44.496-45.169-72.146-2.403-12.796-2.121-27.602 5.693-38.582 5.973-8.395 14.402-12.049 24.256-13.802"/><path fill="url(#k)" d="M861.813 452.51c6.96-.217 12.645.076 19.26 2.449 19.924 7.147 34.733 26.055 43.154 44.761 6.824 15.16 12.465 39.1 5.788 55.039-3.795 9.059-8.594 11.388-17.206 14.751-3.918.171-7.483-.081-11.311-1.015-18.804-4.589-36.519-23.843-45.899-40.129-9.194-15.962-16.658-41.035-11.366-59.333 2.642-9.133 9.693-12.398 17.58-16.523"/><path fill="#eeedeb" d="M860.083 464.193c2.991-.404 5.931-.655 8.936-.183 13.848 2.173 27.728 17.675 35.639 28.488 10.318 14.103 20.63 36.221 17.33 54.125-1.264 6.862-4.059 10.435-9.679 14.349-4.013 1.034-7.447 1.625-11.559.744-14.456-3.098-27.674-18.945-35.368-30.818-9.507-14.672-19.08-35.757-14.798-53.661 1.548-6.472 3.968-9.49 9.499-13.044"/><path fill="#000114" d="M903.465 327.767c17.554 19.233 32.811 42.149 31.665 69.408-.445 10.57-4.583 20.762-12.763 27.696-6.507 5.517-14.828 7.96-23.292 7.181-17.812-1.641-33.162-15.292-43.829-28.719-14.15-17.811-25.682-43.715-23.093-66.955 1.171-10.512 4.921-21.473 13.603-28.126 6.442-4.936 13.721-5.991 21.567-4.799 7.223 1.097 14.269 3.794 20.815 6.964 23.072 11.17 45.076 26.094 66.941 39.528 15.057 9.252 31.015 17.417 44.788 28.576 9.873 8.003 18.203 18.204 25.523 28.538 36.77 51.904 30.91 98.812 30.9 158.714-.01 22.204 1.71 46.277-2.19 68.127-1.74 9.774-6.14 19.463-14.63 25.143-7.86 5.261-18.38 6.1-27.4 3.903-13.912-3.391-23.89-12.973-36.627-18.367-9.514-10.532-67.913-41.637-84.979-52.931-6.974-4.615-19.858-12.678-21.603-21.07l1.327-1.591c26.065 20.342 55.772 35.874 83.999 53.024 16.842 10.233 34.203 23.184 52.333 30.868 5.08 2.149 9.83 2.918 15.31 2.321 7.01-.764 13.25-3.768 17.5-9.475 4.53-6.071 6.58-13.541 7.68-20.932 2.74-18.375 1.22-38.145 1.3-56.726.14-29.816 2.74-61.703-2.13-91.064-6.08-36.639-26.48-76.026-57.376-97.713-10.561-7.413-22.282-13.259-33.435-19.727-17.476-10.134-35.015-20.709-51.904-31.796"/><path fill="#eeedeb" d="M858.149 319.72c1.6-.107 3.246-.19 4.84.024 15.432 2.064 31.212 19.444 39.325 31.621 8.601 12.912 18.184 33.071 14.423 48.935-1.551 6.543-4.753 10.263-10.297 13.802-1.682.263-3.34.519-5.048.525-11.172.038-22.762-9.97-30.07-17.769-13.194-14.08-24.559-35.05-23.374-54.885.548-9.176 3.472-16.029 10.201-22.253"/><path fill="#030727" d="M269.611 274.416c15.577-1.58 30.025 4.883 43.18 12.428 22.033 12.636 43.273 26.542 64.843 39.928a5419 5419 0 0 1 107.601 67.256l67.237 42.515c36.94 22.988 73.989 44.887 104.213 76.769 21.637 22.824 35.634 49.54 43.771 79.814 7.241 26.938 5.481 54.296 5.409 81.912l.073 67.404-.34 271.608.395 489.26.35 168.65c.026 29.5 1.001 59.37-.34 88.82-.76 16.68-4.61 34.1-13.097 48.63-2.926 5.01-6.443 9.52-10.748 13.43-12.033 10.94-60.378 40.59-75.859 47.71-5.546 2.55-11.224 4.15-17.117 5.69a58 58 0 0 1-3.494.46c-13.139 1.28-25.274-1.79-37.05-7.49-9.661-4.69-18.667-11.18-27.708-16.95l-37.899-23.94-127.666-80.33-86.658-53.72c-17.057-10.51-35.631-20.52-51.211-33.12-37.026-29.96-61.009-80.29-65.599-127.27-2.032-20.8-.999-42.18-.96-63.08l-.042-96.9.059-341.32.724-482.133.341-115.971c.049-20.743-.685-41.898.796-62.584 1.129-15.774 4.886-29.501 15.259-41.819 10.763-12.782 63.962-44.669 80.003-51.133 7.186-2.896 13.886-3.909 21.534-4.524"/><path fill="#9da2a8" d="M269.346 287.221c13.172-1.016 22.88 3.867 33.985 10.07-14.772 14.316-33.937 28.46-51.74 38.676-3.033-.239-4.924-1.842-7.457-3.413-12.71-6.017-24.956-10.721-38.832-13.348 18.062-13.009 42.007-27.972 64.044-31.985M690.407 1714.89c.855.14.286-.03 1.375 1.13-.246 19.89 2.085 42.64-1.606 62.11-7.479 39.47-43.085 51.26-72.738 71.55-.43.08-.856-.21-1.267-.36 3.374-7.76 7.197-16.45 8.92-24.75 4.273-20.58 1.952-47.32 1.889-68.53 21.1-13.8 42.443-27.16 63.427-41.15M618.769 505.143c1.691-.22 3.519-.528 5.223-.473 6.059.194 12.614 6.699 16.739 10.85 24.294 24.448 45.005 59.714 50.35 94.093 2.165 13.922 1.797 27.993 1.812 42.04-18.717 13.218-39.05 24.839-58.534 36.938l-8.418 5.312c-.36-14.401-.402-29.051-2.41-43.332-6.068-43.156-28.991-80.982-59.557-111.231 15.433-15.676 33.389-28.276 54.795-34.197"/><path fill="url(#l)" d="M192.598 328.179c9.72-.98 18.333.502 27.483 3.647 24.723 8.496 47.811 26.318 69.939 40.117a6282 6282 0 0 1 115.394 72.601l83.621 51.941c21.969 13.69 44.756 27.154 64.479 44.028a184.7 184.7 0 0 1 47.223 62.216c10.355 21.664 15.422 43.717 16.726 67.624 1.304 23.882.784 48.038.912 71.956l.22 132.835.218 353.626-.371 360.35.506 146.45c.062 23.15 1.077 46.57.251 69.69-.357 9.97-1.79 19.97-5.204 29.38-4.099 11.3-11.255 21.22-22.549 26.12-5.258 2.27-16.143 4.81-21.794 2.66 1.926-1.7 4.982-1.94 7.461-2.54a76 76 0 0 0 3.782-1.42c11.459-4.71 19.423-14.07 24.051-25.37 3.967-9.69 5.619-20.39 5.947-30.81.588-18.66.057-37.5.052-56.18l-.117-111.99-.291-368.6.3-387.898-.181-137.385c-.086-24.376.569-49.015-.706-73.348-1.054-20.116-4.999-39.213-12.865-57.796-10.495-24.794-27.572-47.28-47.816-64.953-15.82-13.81-34.289-25.032-52.015-36.215-23.841-15.041-47.965-29.64-71.708-44.835a8272 8272 0 0 0-134.07-85.017c-21.693-13.411-43.936-29.498-67.627-38.92-19.542-7.771-31.315-7.752-50.728.654.209-.21.42-.417.626-.63 6.003-6.21 10.69-9.194 18.851-11.988"/><path fill="#9da2a8" d="M309.907 301.824c63.166 35.648 123.962 76.131 185.4 114.684 40.727 25.556 88.013 51.225 125.093 80.92-21.05 5.45-37.841 15.306-54.379 29.266l-7.404 6.479c-34.035-25.947-71.794-46.88-108.019-69.54L257.896 342.116c6.472-5.79 14.13-10.646 21.156-15.759 10.7-7.788 20.915-15.794 30.855-24.533m381.271 359.982.646.158c.343.488.793.915 1.029 1.462.925 2.142-.22 268.6-.243 292.574l.165 748.75c-22.887 11.78-43.489 29.1-65.616 42.42-2.787-11.76-1.054-57.95-1.086-72.61l-.121-196.26-.196-773.797c20.123-15.78 43.775-28.98 65.422-42.697"/><path fill="#030727" d="M658.185 750.968c1.377-.077 2.701-.171 4.075-.093 2.982.168 5.211 1.376 7.13 3.668 6 7.168 4.41 23.751 3.087 32.49-1.597 10.554-5.457 17.352-13.91 23.801-1.738.531-2.876.771-4.729.695-2.565-.106-4.504-1.56-6.048-3.53-5.716-7.289-4.171-27.214-2.635-36.057 1.707-9.821 4.886-15.367 13.03-20.974"/><path fill="#9da2a8" d="M658.533 759.54c2.39 2.196 3.017 3.687 3.318 6.945 1.125 12.166 1.395 25.547-6.722 35.314l-1.569-1.274c-1.357-4.933-1.65-9.982-1.757-15.08-.192-9.124.158-19.025 6.73-25.905"/><path fill="#030727" d="M665.233 848.001c2.584.084 5.253.577 7.653 1.571 3.352 1.387 5.961 3.785 7.243 7.199 4.382 11.68 3.858 91.753-1.342 102.86-3.46 7.392-9.493 11.548-17.029 14.052a28.4 28.4 0 0 1-4.974-1.186c-4.329-1.459-7.582-4.084-9.407-8.331-5.867-13.654-4.337-86.422 1.449-100.23 3.288-7.847 8.686-12.695 16.407-15.935"/><path fill="#9da2a8" d="M663.401 856.876c.988-.027 1.978-.087 2.966-.042 1.952.09 4.234.787 5.492 2.35 4.248 5.282 4.024 80.893 2.093 91.649-1.193 6.647-4.526 9.873-9.961 13.481-3.08-.216-6.202-.114-8.374-2.689-4.845-5.742-3.686-19.868-3.685-27.101.003-17.626-2.375-48.409 2.824-64.537 1.779-5.517 4.591-9.06 8.645-13.111"/><path fill="#030727" d="M665.281 986.98c2.965.126 5.576.553 8.244 1.95 3.647 1.91 6.047 5.073 7.306 8.947 4.029 12.393 3.562 74.313 1.587 88.763-.596 4.36-1.747 8.34-3.798 12.24-3.864 7.34-9.186 11.8-17.083 14.17-1.483-.27-1.586-.25-2.849-.59-4.86-1.33-8.05-3.68-10.403-8.2-7.286-14-5.527-83.59-.293-98.99 3.103-9.128 8.744-14.28 17.289-18.29"/><path fill="#9da2a8" d="M665.264 995.697c3.226.39 6.241.763 8.138 3.734 3.446 5.399 2.526 81.639.584 90.109-1.734 7.56-5.104 11.78-11.642 15.64-2.432-.99-4.278-1.87-6.027-3.9-7.045-8.19-5.24-68.29-3.536-80.74 1.405-10.26 3.956-18.47 12.483-24.843M195.888 342.232c16.048.512 29.937 6.14 43.824 13.985 31.516 17.805 61.966 38.193 92.415 57.757L423.8 471.94l73.205 45.517c18.478 11.695 37.759 23.395 53.582 38.619a169.1 169.1 0 0 1 46.411 77.054c7.527 27.34 5.433 56.765 5.399 84.846l.201 68.971.3 289.903-.041 479.02v162.32c.012 27.99.971 56.24-.049 84.2-.454 12.46-1.857 24.85-8.312 35.79-5.469 9.27-12.71 13.34-22.748 16.07-10.978 1.13-20.598-1.57-30.382-6.28-13.609-6.55-26.576-15.82-39.29-24.02a4107 4107 0 0 0-61.297-39.12l-200.225-123.87c-38.248-24.18-61.77-62.95-71.487-106.66-5.519-24.82-4.431-50.44-4.393-75.7l.165-72.71-.006-229.58-.002-523.754-.379-164.559c-.136-32.213-1.013-64.639-.092-96.831.322-11.257.694-25.716 7.26-35.331 5.565-8.151 14.894-11.926 24.268-13.603"/><path fill="#000114" d="M211.887 375.332c8.85.085 17.093 2.108 25.307 5.303 19.139 7.445 36.577 19.462 54.314 29.68 18.335 10.564 37.526 20.363 54.979 32.341 32.178 22.083 59.272 56.231 74.686 92.007 5.021 11.654 8.938 23.997 10.402 36.641 2.805 24.23 1.099 50.617 1.037 75.044-.072 28.081 1.182 57.332-.997 85.262-.565 7.232-1.646 14.995-4.488 21.706-5.067 11.967-13.858 18.223-25.423 23.08-.394.108-.784.228-1.181.324-10.326 2.493-20.494 1.493-30.397-2.103-22.055-8.009-46.436-27.196-66.906-39.653-20.2-12.292-41.396-23.39-61.28-36.087-29.575-18.885-51.734-54.126-59.065-88.107-3.659-16.958-2.774-34.757-2.748-52.016a6399 6399 0 0 1 .539-69.921c.18-24.744-1.529-51.016 1.052-75.591.879-8.374 2.489-17.344 7.253-24.43 5.607-8.339 13.305-11.782 22.916-13.48"/><path fill="#9da2a8" d="M213.401 383.313c8.257.448 15.742 2.636 23.299 5.866 18.072 7.726 34.701 19.237 51.682 29.092 19.757 11.465 40.561 21.413 59.156 34.773 10.593 7.612 20.121 16.485 28.944 26.074 12.406 13.483 22.377 28.181 30.904 44.38 23.291 44.243 17.922 72.603 17.778 120.375-.082 27.282 1.058 55.032-.247 82.25-.617 12.859-3.871 27.112-14.011 35.884-6.033 5.219-13.969 7.32-21.838 6.762-7.347-.522-14.397-3.327-20.951-6.54-21.362-10.472-41.441-24.674-61.811-37.052-21.315-12.951-43.955-24.739-64.134-39.363a132.8 132.8 0 0 1-22.653-20.821c-4.306-5.073-16.535-20.956-16.029-27.149 3.27 6.333 7.139 12.21 11.041 18.166 8.424 11.054 17.68 20.728 29.175 28.573 20.683 14.114 43.144 26.346 64.496 39.487 18.78 11.558 39.998 27.304 60.274 35.523 6.945 2.815 15.453 3.974 22.827 2.397 7.645-1.635 13.733-6.906 17.668-13.535 3.142-5.295 4.683-11.12 5.37-17.195 2.49-22.033.907-45.946.938-68.213.043-30.635 1.319-62.181-.647-92.707-.437-6.792-1.183-13.608-2.921-20.203-3.332-12.634-9.314-24.403-15.612-35.779-25.136-45.404-54.572-59.698-97.637-83.956-15.312-8.626-30.128-18.1-45.424-26.731-12.53-7.07-26.532-13.478-41.114-9.057-15.5 4.699-14.805 9.603-21.114 21.234l-.439-.928c1.069-7.63 1.367-14.794 5.978-21.233 4.956-6.923 8.772-8.838 17.052-10.374"/><path fill="#000007" d="M202.39 456.883a94 94 0 0 1-1.653-8.581c-1.653-11.614-.827-23.332 6.695-32.903 4.07-5.179 9.519-8.625 16.125-9.359 10.956-1.217 23.559 4.849 32.036 11.49l-1.759.644-1.024-.717c-8.085-5.558-24.499-12.195-34.708-9.338-1.636.457-1.73.598-3.014 1.335l-.964 2.342c5.064 1.027 10.344-.094 15.484.522 14.832 1.778 30.132 12.235 38.248 24.926 3.188 4.985 1.121 4.936 2.347 9.177.99 3.426 4.43 8.147 6.179 11.448 7.256 13.693 14.942 31.961 10.878 47.755-1.645 6.394-6.186 13.637-12.033 16.961-6.08 3.457-13.379 3.202-19.911 1.272-17.41-5.145-32.668-23.897-40.655-39.394-4.38-8.499-7.011-19.961-12.271-27.58"/><path fill="#eeedeb" d="M219.884 422.172c3.634-.204 7.624.051 11.159.951 15.24 3.879 26.903 19.169 34.862 31.861 8.671 13.827 18.406 34.386 14.149 51.055-1.798 7.038-5.238 11.048-11.305 14.798-3.271.267-6.202.178-9.349-.819-17.675-5.598-29.8-22.233-38.276-37.772-7.273-13.333-16.724-33.446-11.703-48.853 1.897-5.823 5.114-8.573 10.463-11.221"/><path fill="#9da2a8" d="M202.39 456.883c-2.573-5.754-4.103-12.236-4.793-18.503-1.088-9.879.447-19.584 6.862-27.442 4.097-5.018 9.517-7.908 15.981-8.476a37.4 37.4 0 0 1 17.087 2.584c17.53 6.905 33.915 19.192 50.096 28.818 22.09 13.142 45.738 24.111 65.333 41.005 26.418 22.776 51.367 57.834 53.902 93.569 2.363 33.323.994 67.566.883 100.984-.064 19.443 1.674 40.824-1.091 60.038-.94 6.528-3.182 14.037-7.777 18.975-4.3 4.62-10.808 6.824-16.992 7.079-3.853.159-7.559-.45-11.095-2.008-20.156-8.883-48.713-28.881-68.382-41.035-18.549-11.462-50.291-27.906-65.3-42.001-21.778-20.451-37.441-54.127-40.553-83.685-1.756-16.677-.615-34.283-.528-51.066a2647 2647 0 0 0-.093-71.514c8.924 20.686 18.592 40.907 36.109 55.766 10.241 8.687 23.975 16.367 37.817 14.894 7.771-.827 14.595-4.597 19.223-10.922 7.511-10.265 9.218-24.865 7.175-37.142-4.081-24.522-20.115-54.725-40.661-69.271-8.477-6.641-21.08-12.707-32.036-11.49-6.606.734-12.055 4.18-16.125 9.359-7.522 9.571-8.348 21.289-6.695 32.903a94 94 0 0 0 1.653 8.581"/><path fill="#000114" d="M341.299 688.729c3.622-.149 6.664-.097 9.882 1.771 4.721 2.741 8.392 7.069 9.622 12.443 1.052 4.592.428 7.564-1.915 11.565-1.841.327-3.998.675-5.83.147-3.866-1.115-7.796-5.456-9.61-8.911-2.989-5.694-3.881-10.853-2.149-17.015"/><path fill="#9da2a8" d="M346.17 695.413c1.642.602 2.979 1.299 4.326 2.409 3.446 2.839 4.243 6.02 4.782 10.291-2.093-.698-3.953-1.281-5.634-2.768-3.135-2.773-3.34-6.04-3.474-9.932"/><path fill="url(#m)" d="M226.656 543.111c10.505-.924 18.968 1.162 27.844 7.007 22.458 14.788 37.122 44.301 42.445 69.947 3.125 15.056 4.213 34.702-5.009 47.912-4.57 6.548-10.751 10.097-18.489 11.516-7.547-.567-14.039-1.589-21.044-4.763-23.85-10.804-39.138-36.27-47.982-59.832-6.216-16.558-8.901-36.644-.867-53.138 4.978-10.22 12.71-15.201 23.102-18.649"/><path fill="#eeedeb" d="M222.971 562.172c2.58-.246 5.312-.59 7.896-.292 13.075 1.508 25.854 16.643 33.047 26.711 11.262 15.763 23.158 40.206 19.374 60.143-1.61 8.484-5.418 13.736-12.501 18.465-2.189.189-4.433.37-6.609-.037-14.95-2.793-29.477-19.29-37.326-31.543-9.772-15.257-20.72-39.106-16.154-57.606 1.927-7.809 5.509-11.785 12.273-15.841"/><path fill="#000114" d="M325.775 531.176c7.113-.275 13.194.799 19.659 3.877 23.878 11.365 40.221 41.087 48.437 64.996 5.126 14.92 8.219 33.05.609 47.655-5.479 10.516-13.88 15.49-24.771 18.918-8.608.895-17.381-1.661-24.852-5.832-22.001-12.282-37.532-38.812-44.282-62.39-4.579-15.992-7.396-35.725 1.456-50.762 5.507-9.355 13.467-13.942 23.744-16.462"/><path fill="#000007" d="M344.013 644.719c-1.135.523-2.311.747-3.52 1.047-6.02-2.122-11.162-9.855-14.592-15.082-8.168-12.448-24.988-48.404-19.974-62.968 1.128-3.277 2.556-3.56 5.344-5.088-1.941 28.33 12.307 58.728 30.628 79.788.684.786 1.4 1.543 2.114 2.303"/><path fill="#eeedeb" d="M311.271 562.628c2.25-5.427 3.944-9.866 9.809-12.093 4.63-1.758 9.344-1.402 13.815.646 19.682 9.018 35.626 37.719 42.227 57.277 3.911 11.584 6.507 27.618.563 38.829-1.824 3.44-4.604 5.829-8.434 6.707-6.573 1.507-14.281-1.473-19.672-5.091-1.926-1.292-3.752-2.743-5.566-4.184-.714-.76-1.43-1.517-2.114-2.303-18.321-21.06-32.569-51.458-30.628-79.788"/></svg>