<svg xmlns="http://www.w3.org/2000/svg" display="block" viewBox="0 0 2048 2048"><path fill="#fefefe" d="M0 0h2048v2048H0z"/><path d="M308.335 1353.56c.086.06.18.1.259.17 2.085 1.76 2.886 2.95 3.023 5.76.151 3.1-1.068 5.25-2.915 7.59-2.41-2.51-3.038-3.07-3.947-6.56.545-3.21 1.546-4.58 3.58-6.96m-2.163 42.69c2.026.66 3.734 1.29 4.861 3.25 3.721 6.47.595 20.49-1.842 27.26-2.478.21-2.028.06-3.875-1.29-3.78-8.05-1.447-20.9.856-29.22m14.795-224.96c.692.15 1.602.31 2.231.61 1.847.9 2.65 1.87 3.321 3.77 2.423 6.85 2.165 19.18-.731 25.76-.71-.35-2.312-1.13-2.975-1.57-3.163-2.1-4.094-5.98-4.746-9.53-1.161-6.3-.702-13.67 2.9-19.04m-20.162-9.94c.566.17 1.16.27 1.699.52 1.698.77 2.601 2.09 3.276 3.75 2.852 7.06 4.559 25.14 1.802 32.07l-3.107-.57c-1.79-1.21-2.495-2.5-3.176-4.54-2.884-8.65-4.554-22.98-.494-31.23m11.367 386.92c.349.16.729.27 1.048.48 2.285 1.52 2.669 3.64 3.022 6.2 1.124 8.17.994 25.09-4.301 31.45-.677-.42-1.679-1-2.257-1.51-2.668-2.35-2.817-5.59-3.019-8.93-.508-8.41-.296-21.16 5.507-27.69m-56.685-327.98 4.135.53c2.219 1.68 2.719 2.71 3.272 5.47 1.664 8.3 1.76 22.56-2.921 29.73-1.434-.4-2.967-.73-4.048-1.85-5.582-5.79-1.416-26.45-.438-33.88m68.275 75.42 3.837.39c1.332 1.07 1.7 1.11 2.337 2.82 2.737 7.32 2.133 27.26-.84 34.44l-4.047-.72c-.899-.92-.977-.91-1.722-2.19-4.221-7.27-1.994-27.06.435-34.74m-31.838-157.05c7.029 0 14.766 1.7 21.625 3.35 4.524 1.09 10.443 2.89 13.026 7.02.433 3-.667 4.78-1.96 7.36l-1.806.08c-8.374-5.19-20.532-4.16-28.041-10.76-2.407-2.12-2.46-4.06-2.844-7.05m-83.259 306.66c.709.08 1.796.16 2.44.43 1.441.63 2.194 1.52 2.831 2.89 3.727 8 3.355 29 .255 37.19-2.91-1.15-4.573-1.36-6.266-4.26-3.674-6.29-1.865-29.38.74-36.25m121.619 101.02c2.564.34 3.493.28 5.519 1.82 3.859 10.21 1.841 28.28-1.673 38.51-1.56-.08-3.417-.27-4.433-1.55-5.591-7.01-.93-30.26.587-38.78m-3.491-321.98c2.734.58 4.666.39 6.06 3.24 3.023 6.18.359 32.58-1.928 39.55-2.964-.44-3.222-.36-5.327-2.44-3.765-10.83-.264-28.96 1.195-40.35m7.548 254.2c.35.23.719.44 1.049.7 2.213 1.76 2.682 3.97 2.876 6.66.735 10.21.674 30.22-6.127 38-2.195-1.47-3.26-2.3-3.967-4.92-2.772-10.29.795-31.54 6.169-40.44m-5.988-99.97 4.551 1.35c.89 1.05 1.446 1.96 1.765 3.31 2.26 9.59 2.221 28.82-3.179 36.98-2.849-1.2-4.24-1.34-5.683-4.39-3.758-7.92.12-28.96 2.546-37.25m-20.446 101.94c3.024.09 3.762-.13 6.297 1.68 5.411 10.19 1.428 29.17.414 40.52-1.839.09-4.207.23-5.551-1.21-5.655-6.04-1.648-32.8-1.16-40.99m-101.614-106.28c.324.13.662.23.97.39 2.739 1.45 4.117 4.6 4.804 7.48 2.205 9.23 3.756 27.36-.919 35.55l-3.655-.9c-1.381-1.23-1.929-2.07-2.544-3.87-3.198-9.35-2.938-29.87 1.344-38.65m-.325 137.97c.332.12.673.22.995.37 2.297 1.06 3.457 2.72 4.283 5.05 3.388 9.54 2.814 29.13-1.154 38.16l-3.626-1.33c-1.027-1.07-1.95-2.07-2.478-3.49-3.559-9.55-1.699-29.5 1.98-38.76m25.512-291.75c.957.17 2.764.46 3.629.8 2.03.79 2.862 1.94 3.566 3.91 2.783 7.8 1.576 28.63-1.789 35.96-.554-.01-1.111.02-1.662-.04-2.265-.22-3.857-.51-5.082-2.62-4.558-7.86.153-28.71 1.338-38.01m24.102 289.79c2.698.44 4.103.48 6.102 2.51 4.12 10.33-.602 32.34-4.167 42.48-2.63-.32-3.024-.34-5.066-1.99-3.678-10.31 1.419-32.09 3.131-43m-48.82-212.51c1.68.58 2.822 1.21 4.325 2.13 4.884 8.43 3.182 32.3.894 41.16-1.895-.25-3.543-.73-5.357-1.32-1.064-1.35-1.734-2.37-2.124-4.08-2.185-9.56-2.616-29.57 2.262-37.89m97.885-75.44c2.284.7 4.278 1.19 5.441 3.49 4.427 8.75 1.109 35.83-2.123 44.86-2.578-.13-2.637-.11-4.584-1.79-2.665-7.4-1.531-39.17 1.266-46.56m-47.5 66.86c2.359.7 4.378 1.13 5.58 3.5 3.977 7.83-.146 34.92-3.335 43.43-.228-.02-.462-.02-.686-.07-2.544-.6-3.486-1-4.572-3.54-2.887-6.77.074-36.6 3.013-43.32m1.032 76.07c1.023.4 2.014 1.03 2.98 1.56.742 1.45 1.309 2.72 1.53 4.35 1.234 9.15.378 37.02-5.096 44.27-1.945-1.71-3.521-3.04-4.173-5.69-2.547-10.36-.747-35.43 4.759-44.49m-29.217 76.04c1.444.49 2.589 1.12 3.915 1.86 1.852 2.99 2.269 5.96 2.701 9.38 1.248 9.89 2.874 26.52-3.332 34.58l-2.739-.22c-1.42-1.25-1.78-1.32-2.461-3.22-3.301-9.23-1.89-33.66 1.916-42.38m28.129-4.92c1.12.67 2.072 1.57 3.073 2.41 2.813 7.68 1.923 32.83.1 41.13-.772 3.52-2.456 4.17-5.238 6.02-1.523-1.56-2.797-2.98-3.289-5.18-2.454-10.97-.509-35.11 5.354-44.38m-25.425-71.04 3.36 1.52c1.549 2.09 2.131 3.78 2.424 6.32 1.008 8.75 2.354 35.86-3.119 42.46-1.934-.67-1.344-.31-2.843-1.38-1.881-1.34-2.267-3.86-2.621-6.03-1.488-9.09-2.299-35.87 2.799-42.89m-25.195-142.71c1.818.18 3.309.18 4.903 1.18 1.678 1.06 2.437 3.87 2.832 5.7 2.121 9.86 3.033 29.32-2.401 37.73-1.534-.22-2.881-.68-4.355-1.15-1.009-1.02-1.665-1.93-2.079-3.33-2.737-9.26-3.162-31.55 1.1-40.13m20.946 285.68c3.102.65 3.946.68 6.376 2.86 4.045 9.41 1.798 37.67-1.547 47.21-2.535-.62-4.491-.65-6.052-3-4.675-7.05.29-38.21 1.223-47.07m3.181-220.05c1.457.2 2.923.58 4.362.89 1.255 1.4 1.93 2.38 2.449 4.24 1.838 6.56.874 39.31-2.416 44.42-2.443-.44-4.991-.23-6.36-2.66-4.48-7.96-.729-38.27 1.965-46.89m16.139-133.81c1.629.05 2.225.4 3.652 1.12.909 2.91 1.585 3.67.483 6.6-7.876 5.46-37.294 6.15-48.791 8.37-2.401-.18-3.698-.65-5.799-1.81l-.334-1.58c.674-1.1 1.03-1.79 1.796-2.75 2.932-3.67 12.659-6.34 17.177-6.8 10.631-1.09 21.139-2.42 31.816-3.15m9.69-364.139c.952.189 1.515.251 2.447.691 6.277 2.966 11.891 20.795 14.619 27.145 3.631-2.741 7.266-5.508 11.016-8.087 4.133-2.842 11.85-8.509 16.964-7.58l.429 1.189c-5.591 7.266-13.397 12.464-18.725 19.917-.187.261-.364.53-.546.795 3.419 3.149 7.223 6.283 10.31 9.745 1.951 2.187 3.394 4.493 3.17 7.404l-2.328.712c-5.693-.823-10.389-3.789-15.384-6.483-1.623-.754-2.424-1.027-4.114-1.307-4.267 3.544-6.145 14.662-9.914 19.841-1.283 1.764-1.452 2.151-3.648 2.564-2.885-5.587-.466-15.036.413-21.002-7.087.127-24.947 4.357-30.543.066-1.18-.905-.951-1.833-1.162-3.191 7.617-4.821 22.81-6.799 31.749-9.142-.871-10.764-5.999-22.729-4.753-33.277m470.037-457.987c10.926 2.385 6.546 21.451 17.005 25.429 7.688 2.925 18.23-7.91 25.7-4.237 1.01 2.427.969 2.474.269 5.017-3.92 4.262-10.073 6.178-15.279 8.59 5.521 5.057 17.179 13.475 19.547 20.583.507 1.521.268 1.145-.662 2.648-6.427.68-15.245-5.736-20.648-8.759-2.108-1.155-5.553-3.251-8.067-3.13-11.345.545-7.697 21.579-14.704 28.126l-1.855-.147c-3.169-6.17-.252-21.798.51-28.802-4.547.687-9.849 1.725-14.417.818-2.396-.476-2.763-.609-4.086-2.513.11-.323.179-.663.33-.969 1.52-3.084 5.378-5.395 8.463-6.676l9.666-4.073c.087-10.711-1.801-21.238-1.772-31.905m767.286 249.071c6.55 1.7 14.98 18.664 18.77 24.404 8.03-2.616 16.8-6.215 25.38-5.13l.93 1.352c-3.04 5.991-11.15 9.302-16.79 12.409 4.81 5.278 10.51 9.695 15.42 14.911 2.32 2.465 4.5 4.729 4.39 8.24-4.57 1.22-11.94-3.681-16.07-5.752-3.62-1.713-7.58-2.765-11.39-3.968-4.64 5.913-8.22 15.413-13.68 19.843-5.95-1.119-2.33-15.919-6.2-19.85-1.93-1.961-14.97 1.417-19.67-3.227 1.94-3.374 20.53-13.307 25.19-16.383-2.62-7.895-7.59-18.52-6.28-26.849m288.8 181.949c1.15.091 2.37.14 3.49.443 4.44 1.202 10.88 17.824 13.25 22.39 6.45-4.164 18.23-13.631 26.36-11.811 1.57.352 1.43 1.012 2.07 2.317-2.16 8.304-13.25 15.264-19.84 20.3 5.52 4.046 11.89 7.203 17.23 11.388 1.96 1.529 3.2 2.441 3.59 4.972-.22.157-.42.349-.66.472-3.47 1.768-10.45-.702-14.12-1.6-7.37-2.633-14.69-5.185-22.25-7.239-.43 7.863.43 16.33-3.75 23.303l-1.41-.201c-3.89-7.86-3.79-15.702-4.19-24.298-6.6.145-13.89 2.7-20.1-.141-1.37-2.318-1.21-2.269-.68-4.934 5.53-5.662 14.92-3.901 22.02-6.381 4.63-9.329-4.45-19.655-1.01-28.98m-203.27-80.923a130 130 0 0 1 10.24-.438c40.4-.5 80.82 5.876 119.76 16.383 6.55 1.769 18.32 3.793 22.94 8.919 1.19 1.318.82 1.001.68 2.915-4.58 2.761-15.73-.839-20.84-1.85-32.54-7.637-65.68-14.07-99.05-16.668-8.5-.662-54.34.524-56.68-.159-1.57-.456-1.38-1.036-1.97-2.387l1.19-1.737c6.84-3.818 16.08-4.219 23.73-4.978m-807.834-48.043c8.602 4.041 13.594 16.666 19.992 23.776 6.53-3.328 12.573-7.5 19.431-10.208 3.22-1.271 7.023-3.255 10.27-1.867l.017-.693-.752-.164-.703 3.08 1.218-1.579c-4.156 7.234-12.83 12.67-19.242 17.837 9.122 5.181 19.722 8.611 27.438 15.919l-1.109 2.73.372-.001c-8.163.382-16.097-2.659-23.854-4.911-2.228-.493-4.822-1.308-7.086-1.399-.168-.006-2.426.101-2.844.421-2.604 1.997.966 26.366-4.987 31.866l-1.948-1.123c-3.292-7.008-3.69-19.881-5.413-27.931-7.96 2.75-16.517 6.166-24.906 7.224-2.455.31-3.799.415-5.822-1.127 1.797-5.996 17.661-10.981 23.298-14.952 10.231-7.206-5.089-25.651-3.37-36.898m487.344-332.102c.87.251 2.9.853 3.53 1.433 4.1 3.787 11.04 26.504 15.34 33.606 6.88-2.091 13.24-5.321 20.38-6.658 2.03-.38 4.23-1.053 5.99.123-1.48 6.391-11.23 11.923-16.25 15.99 4.99 3.522 11.18 7.511 14.82 12.465 1.48 2.018 1.91 3.08 1.49 5.516l-1.77 1.243c-8.43-1.501-16.78-6.161-25.27-8.258l-1.54-.375c-.64.033-1.3-.041-1.92.098-4.58 1.014-7.05 21.528-9.64 26.12-1.08 1.912-1.45 1.907-3.45 2.368-3.67-5.752-1.5-22.639-1.37-29.648-5.89-.225-16.62.546-21.8-1.732-2.23-.982-2.54-1.511-3.51-3.555 3.69-5.472 17.75-4.955 24.05-7.475 9.18-3.674-3.02-31.778.92-41.261m-637.166 354.08 4.503-.361c2.096 1.493 2.594 1.504 3.284 3.934-3.49 4.074-21.02 5.651-26.606 6.879-16.171 3.555-32.528 9.427-47.983 15.333-64.541 24.661-136.392 58.731-190.277 102.722-1.938 1.261-2.646 1.809-4.995 2.099-.173-.341-.454-.646-.519-1.022-.432-2.51 1.024-4.473 2.442-6.332 3.937-5.159 9.798-9.084 14.895-13.069 45.903-35.895 126.56-73.182 181.829-93.115 20.56-7.415 41.782-13.852 63.427-17.068M1675.05 426.253l3.94.697c5.36 4.021 6.43 21.999 8.34 28.662 1.2 4.179 3.12 8.267 4.86 12.25 12.41-.425 25.35-5.731 37.54-4.483l.43 1.239c-5.76 7.028-19.15 10.912-27.21 15.404 5.07 7.097 11.58 12.392 17.72 18.482 1.45 1.433 4.13 3.683 4.12 5.702l-2.08.997c-8.57-.961-16.88-7.904-23.96-12.609-2.39-.887-5.28-1.894-7.87-1.765-8.18.407-13.56 24.818-19.13 31.087l-1.51-.051c-3.22-8.053-.06-27.843-.29-37.582-8.07-.67-22.74.715-29.57-3.213-1.53-.88-1.27-1.229-1.75-2.797.15-.222.28-.469.46-.664 3.88-4.073 27.97-4.432 34.6-5.344 2.83-14.42 1.35-31.248 1.36-46.012M433.778 476.22c10.692 2.943 10.177 26.761 24.454 37.814 8.775-1.74 17.288-6.038 26.047-7.216 2.278-.307 2.852-.568 4.764.823-2.831 7.087-17.251 15.067-23.52 19.556 7.011 5.314 19.257 12.932 23.166 20.688l-.748 1.325c-9.129.579-20.235-5.698-28.572-9.253-2.085-.925-3.579-1.5-5.868-1.617-4.317 7.852-6.03 17.532-8.893 26.029-1.231 3.654-2.481 8.794-6.07 10.556-3.336-4.79-2.355-26.767-2.543-33.489-8.785-2.16-27.122-2.166-33.566-8.076l.412-.884c9.905-3.995 21.165-4.703 31.404-8.06l1.523-.508c-.866-14.216-4.101-33.935-1.99-47.688m717.492 6.93c20.18-.856 40.64 1.3 60.66 3.65 67.99 7.982 131.44 25.448 195.31 49.805 13.12 5.002 29.25 9.465 41.21 16.661 2.93 1.763 3.16 2.659 4.01 5.938-15.83.423-78.09-26.068-97.63-32.532-19.79-6.551-40.41-12.294-60.63-17.36-33.66-8.431-68.63-13.258-103.04-17.348-6.36-.755-34.1-2.069-38.1-4.378-1.38-.797-1.41-2.987-1.79-4.436"/><path fill="#1e1e1e" d="M979.749 433.685c6.05 3.844 12.722 20.863 17.048 27.61 3.078 4.798 6.683 9.03 10.473 13.268 9.74-2.371 33.33-11.338 42.12-8.287l.43 1.562c-5.08 8.507-19.1 13.573-26.81 20.109-.32.278-.64.564-.97.847 5.93 8.399 13.18 15.254 19.41 23.313 1.94 2.514 3.32 4.356 2.9 7.577-8.81 3.429-22.49-8.368-30.71-11.496-.32-.121-.64-.232-.96-.348-1.88-.048-3.83-.164-5.7-.007-9.517.801-14.342 29.91-21.117 37.047-1.342 1.413-.702 1.002-2.78 1.085-3.698-5.713-3.676-29.646-4.399-37.717-11.61-.765-25.619-.336-36.599-4.299-1.276-.46-.721-.104-1.466-1.68 7.16-4.538 17.059-5.867 25.089-8.477 5.319-1.728 10.497-4.099 15.607-6.354 1.05-10.839-4.362-48.666-1.566-53.753"/><path d="M1141.38 605.68c2.52.346 4.32.807 6.62 1.911 8.11 13.143 7.7 134.309 8.85 158.956 14.97 4.06 31.05 3.872 45.6 9.72 1.88 7.876 2.24 15.839 5.07 23.518 9.58 1.333 26.76-.55 34.05 6.609 5.55 5.456 3.47 35.374 3.65 44.529 10.76 1.578 23.36 1.084 33.31 5.653 8.07 8.782 11.31 374.744 12.4 418.724 10.17-3.33 20.98-5.33 31.37-7.96a5777 5777 0 0 0 57.2-14.97c.27-33.77-2.18-68.02-3.77-101.76-2.84-60.14-5.95-120.48-7.01-180.67 13.88-6.776 29.35-11.527 43.68-17.511a6092 6092 0 0 0 56.13-23.813c13.87-6.038 28.87-15.429 43.83-17.651 9.85 2.869 19.81 9.657 28.97 14.483a1172 1172 0 0 0 39.75 19.608c12.59 5.836 31.46 9.163 41.9 17.96 3.3 7.429 4.74 123.614 5.25 140.654l14.59 543c7.73.02 15.47-.26 23.19-.41.19-16.92-.55-33.84-.75-50.76a4885 4885 0 0 0-1.31-103.54 14702 14702 0 0 1-4.57-273.91c-.33-29.99-1.55-60.05-1.39-90.03 6.67-6.33 14.65-9.47 23.27-12.22 14.59-4.64 45.14-13.97 59.43-15.3 10.4-.97 80.5 15.87 91.26 21.41 3.77 10.02 4.72 161.04 5.16 183.33 2.25 114.97 6.3 229.88 6.88 344.89 23.64 1.84 147.39 2.33 155.88 8.55l.24 1.93c-.73 1.05-.81 1.27-1.87 2.23-2.13 1.92-6.25 3.3-9.08 3.37-18.98.5-39.05-1.76-58.08-2.51-39.98-1.58-80.06-2.8-120.05-3.58l-434.45-8.48-928.609-17.29a21774 21774 0 0 1-283.812-5.98l-70.512-1.4c-13.193-.2-27.219.5-40.283-1.09-3.114-.38-7.156-.76-9.213-3.39.997-1.61 1.2-1.93 2.902-2.93l.063 1.95.579-2.24c7.284-3.05 118.676-.02 134.818.09-2.159-118.06-1.955-236.32-2.095-354.41l-.462-96.54c-.209-17.97-1.116-35.94-.793-53.91 18.451-9.77 70.693-18.15 93.853-23.55l58.303 18.89c7.466 2.43 14.888 4.82 22.112 7.91 3.146 18.75 2.655 39.33 3.233 58.35a8164 8164 0 0 1 2.425 119.71l4.899 233.43c.569 27.35 2.3 54.95 2.37 82.26.008 2.88-.037 5.21-1.006 7.92-1.898 1.52-3.392 2.27-5.77 2.65-1.788.29-3.631.1-4.998-1.15-2.864-2.63-3.561-7.16-3.804-10.87-.667-10.18-.162-20.56-.355-30.77l-1.579-77.28c-1.049-41.08-2.968-82.18-3.668-123.27l-4.014-173.59c-.732-25.74-.847-51.52-2.186-77.24-19.652-7.56-40.183-13.42-60.171-20.08-.394 45.99 2.983 92.38 4.711 138.35a9553 9553 0 0 1 8.589 266.85c.37 17.9.547 35.85 1.351 53.74.798 17.76 2.378 35.52 1.383 53.32l-15.795.13a21996 21996 0 0 0-11.245-380.96l-3.804-94.13c-.499-11.59-.28-23.33-1.307-34.88l-1.175-.65c-13.976-.33-52.627 9.11-66.621 13.68-.175 4.23-.953 10.49 1.036 14.38 2.731 5.34 47.828-12.34 59.297-8.13l.4 1.84c-2.224 3.68-5.648 5.69-9.534 7.32-6.266 2.64-13.587 2.72-20.199 4.34-10.345 2.53-20.643 6.21-30.804 9.45-.027 9.67-2.025 24.78 1.04 33.82.581 1.72 1.546 3.18 3.292 3.94 6.206 2.67 45.302-8.47 54.566-4.09 1.455 2.3 1.567 2.78 1.685 5.51-1.769 2.24-2.906 3.14-5.727 3.88-6.36 1.68-13.811 1.13-20.363 1.86-11.182 1.23-22.229 3.2-33.28 5.28-.583 14.04 1.973 28.14 1.641 42.25-2.942 125.13.164 250.35 1.896 375.48 70.396.72 140.844 3.58 211.22 3.64-3.736-28.48-1.965-64.36-2.67-93.73L403.077 1349l-6.652-208.75-1.711-57.29c-.49-13.27-1.949-27.35-.707-40.55.892-9.47 30.777-27.41 38.969-34.39l1.117-.96c-4.126-38.166 8.655-32.61 25.125-58.904 5.561-8.878 6.997-18.29 10.87-27.765 5.565-13.613 17.909-18.783 30.599-23.973 1.173-33.696-.788-67.729-1.488-101.433-.188-9.074-2.152-34.371.213-41.949.99-3.17 3.801-4.273 6.604-5.271 1.614.305 2.194.109 3.375 1.421 2.36 2.621 2.89 5.951 3.296 9.354 1.621 13.612.642 28.663.924 42.466a5355 5355 0 0 1 1.553 97.005c12.239 2.485 33.815 1.354 43.146 10.005 6.429 5.96 6.413 13.959 6.839 22.073 7.992.787 28.291-.382 34.103 5.55 6.696 6.835 3.74 33.503 3.721 43.081 8.255.459 25.448-.079 31.327 6.112 2.784 2.931 3.003 7.158 3.356 11.005 2.489 27.153 1.284 55.493 1.578 82.833l2.14 159.69c9.679-1.01 19.286-4.69 28.875-5.13 14.229-.65 50.012 11.61 64.545 16.79l-4.226-229.36c9.52-6.69 52.803-22.73 66.167-28.056 12.977-5.172 31.885-14.399 45.566-16.15 12.748-1.631 28.567.998 41.552 1.85 36.7 2.41 74.501 4.125 110.879 9.299 4.464.635 8.688 1.78 12.828 3.561l-.59 1.654 1.4-.448.33.187c3.51 20.293 2.22 46.873 2.55 67.733.85 53.54.08 107.16 1.54 160.68 7.53-1.59 14.87-3.64 22.26-5.79 1.37-96.88-3.41-193.35-4.64-290.15-.04-3.174-.32-8.397.93-11.306 2.28-5.309 33.45-28.104 40.95-39.053.17-.244.33-.493.49-.74.16-10.117-.16-20.065-.74-30.16 7.93-12.123 23.81-29.032 33.47-41.186-.4-5.973-.45-11.967-.58-17.951 10.74-9.452 23.23-14.401 36.45-19.318a2750 2750 0 0 0-2.19-103.803c-.55-15.164-2.83-30.785-2.26-45.914.18-4.915.95-6.672 4.45-9.919"/><path fill="#fefefe" d="M467.787 961.768c2.467 2.429 1.78 14.66 1.889 18.579-6.192 5.085-12.321 10.21-18.918 14.769l-.741-.347c-1.441-3.415-.142-8.279.277-11.966 5.308-7.467 11.417-14.199 17.493-21.035m636.983-135.863c2.69 4.877 2.41 15.567 2.91 21.358-5.89 5.086-11.99 9.83-18.17 14.556l-.99-.043c-1.59-1.52-2.26-1.578-2.53-3.985-1.21-10.766 12.31-24.181 18.78-31.886m-604.428 86.144c10.752-.965 34.904-.817 44.307 4.371 2.786 1.538 5.119 4.054 5.677 7.282.451 2.612.198 3.772-1.383 5.818-4.403 1.904-9.984.854-14.693.574-9.586-.382-45.817 2.32-51.702-2.915-1.076-.957-.659-1.616-.61-2.913 4.327-5.773 11.974-9.289 18.404-12.217m638.388-131.048c16.72-.048 35.2 2.424 51.38 6.386l3.28 11.592-21.96-.422c-13.93.239-39.23 3.41-51.74.976-.18-.316-.39-.615-.54-.949-1.01-2.389-.88-5.779-.03-8.204 1.17-3.354 15.58-7.845 19.61-9.379m608.85 336.409c22.56 3.95 45.6 7.2 67.4 14.42.25 5.25.11 10.5.01 15.75-23.05-2.01-43.86-7.7-67.31-5.6-.72-8.09-1.09-16.49-.1-24.57m-834.058 222.04 8.78.03.276 23.46c-15.792.36-31.508 1.99-47.328 2.08-3.351.18-6.62.7-9.783-.65-4.517-5.09-2.332-17.6-2.524-24.37 16.577 1.59 33.929.04 50.579-.55m-48.908 78.84c19.805.36 39.515.52 59.322.34l.293 30.31c-19.674.24-39.361.08-59.037.06zm-1.205-49.16c.483.8.853 1.5 1.533 2.17 5.176 5.13 48.759 1.85 58.007 1.6l.301 35.8c-19.631.75-39.578.59-59.211-.07-.485-13.18-.946-26.3-.63-39.5M483.517 943.044c22.494-.12 84.853-2.728 101.729 3.908 4.871 5.747 3.283 22.549 3.255 29.971-34.666-3.082-69.768-7.513-104.56-7.898-.259-8.654-.291-17.324-.424-25.981m381.836 515.086a3480 3480 0 0 0 58.651.42 5177 5177 0 0 1 .409 54.31 1254 1254 0 0 1-57.516 1.44c-1.237-18.66-1.245-37.47-1.544-56.17m280.367-646.695c27.44-2.2 58.25-.701 84.84 6.225.48 10.76.55 21.576.79 32.346a908 908 0 0 1-25.11-2.819c-20.06-2.37-66.8-10.686-84.73-6.446a108.7 108.7 0 0 1-1.89-26.747c8.66-1.483 17.35-1.987 26.1-2.559M866.946 1523.74c19.08.41 38.234-.07 57.32-.2a9040 9040 0 0 1 1.205 108.78 1443 1443 0 0 1-55.52-1.37c-.962-35.72-2.998-71.48-3.005-107.21m243.584-657.919c5.17 7.387 12.08 342.099 9.58 373.899-15.81-4.36-32.11-8.35-47.44-14.2l-22.12-6.95c-1.14-34.36.67-69.15.35-103.58-.6-64.62-2.64-129.385-4.36-193.988 20.57-19.132 42.39-37.217 63.99-55.181"/><path d="M1067.86 963.624c1.22.882 2.52 2.022 3.37 3.284 2.98 4.414 1.36 10.476.13 15.155l-1.87-.779c-1.94-5.82-2.47-11.581-1.63-17.66m27.29 62.966 1.7 1.95c1.04 7.99 1.03 15.71-.24 23.68-1-.73-2.05-1.49-2.58-2.65-2.47-5.32-.21-17.31 1.12-22.98m-.12 138.65c1.67.71 1.75.45 2.72 2.28 2.34 4.39 1.5 16.31-.16 20.87-1.04-.4-1.27-.28-1.88-1.14-3.04-4.29-1.58-16.94-.68-22.01m-3.72-241.466c.27.26.58.478.79.781 3.89 5.598 2 22.679 1.4 29.496-.66-.633-1-.872-1.47-1.779-3.47-6.642-2.88-21.582-.72-28.498m-24.81 9.715c.28.133.56.248.83.4 2.97 1.694 3.67 5.829 4.32 8.936 1.04 4.96 1.8 11.156-1.13 15.521l-1.89-.84c-.16-.425-.32-.846-.47-1.273-1.35-3.853-3.26-19.379-1.66-22.744"/><path fill="#fefefe" d="m1729.26 1119.2 3.23-.21c1.62 1.85 1.64 3.01 1.67 5.4.45 33.3-1.11 66.94-1.22 100.3l-.46 233.13c-.43 63.13-2.02 126.97 1.63 190.03a3958 3958 0 0 0-53.15-1.16l-1.92-.67c-2.6-7.12-.9-57.37-1-69.38a17894 17894 0 0 0-3.44-295.44l-1.59-95.9c-.28-16.69-1.22-33.5-.62-50.18 17.73-7.46 38.16-11.52 56.87-15.92"/><path d="M1687.49 1299.25c2.18.35 3.5.69 5.36 1.9 4.42 6.98 1.99 20.47.42 28.27-3.17-.39-3.89-.12-6.23-2.44-2.75-8.98-.65-18.58.45-27.73m5.55 249.24 2.6 1.82c3.01 6.52 1.87 17.45 1.62 24.51-.2 5.27.2 7.67-3.84 11.4-3.45-3.22-3.41-9.99-3.79-14.42-.62-7.34-1.54-17.39 3.41-23.31m-4.76-56.88c3.09.33 4.01.21 6.54 2.16 3.35 8.59 2.72 19.41-.13 28.13-.66-.04-1.33.01-1.97-.12-1.48-.31-2.45-1.05-3.19-2.3-3.66-6.2-3.18-21.26-1.25-27.87m2.69-272.99c3.91 3.63 4.59 9.97 5.18 15.02.79 6.82 1.77 18.05-2.58 23.63-1.24-.54-2.82-.88-3.63-2.02-5.22-7.38-.42-28.1 1.03-36.63m18.24 269.8c2.81.38 3.98.27 6.24 2.06 4.05 8.16 3.22 23.49.86 32.05-2.4.24-3.29.1-5.38-1.1-5-6.92-2.13-24.36-1.72-33.01m5.07-321.89c.51.38 1.07.71 1.53 1.15 3.35 3.23 3.13 25.87 2.28 30.78-.58 3.34-2.03 3.98-4.59 5.82-.29-.3-.6-.58-.87-.9-4.85-5.56-4.26-22.14-3.34-29.22.55-4.24 1.74-5.26 4.99-7.63m-1.08 231.71 4.38.79c1.19.92 2.07 1.72 2.66 3.15 3.45 8.41 2.74 23.55-.31 31.99-2.44-.31-4.35.01-5.83-2.28-4.76-7.4-1.95-25.09-.9-33.65m-5.04-90.1c.69.15 1.89.37 2.49.69 2.4 1.28 2.96 4.64 3.3 7.09 1.26 9.04 2.55 24.27-3.19 31.73-1.82-.76-2.89-1.26-3.9-3.06-4.44-7.92-1.86-28.59 1.3-36.45m-18.61 74.07c1.54.29 4.11.57 4.95 2.02 3.38 5.83 2.58 36.77.37 43.58-1.7-.43-3.6-.39-4.69-1.89-5.49-7.53-2.07-34.41-.63-43.71m22.54-156.07c.7.12 1.93.28 2.55.58 1.33.64 1.93 1.6 2.45 2.91 2.83 7.18 3.06 32.8-.1 39.76l-3.1-.39c-1.63-1.2-1.87-1.05-2.63-3.12-3.09-8.51-3.22-31.74.83-39.74m.3 326.33 4.07 1.55c1.85 2.04 2.15 4.18 2.47 6.81 1.07 8.75 2.96 27.84-2.49 34.81-1.98-.53-3.57-.56-4.69-2.52-4.39-7.69-2.35-32.44.64-40.65m-26.87-393.18c2.6.77 3.93 1.38 5.4 3.76 5.44 8.79 4.8 38.84 2.44 48.77-2.83.1-3.05.32-5.29-1.35-4.01-7.56-3.94-41.68-2.55-51.18"/><path fill="#fefefe" d="M1044.41 1234.09c12.61 1.75 25.26 7.66 37.34 11.76 12.05 4.1 24.32 7.63 36.54 11.22 1.22 23.87 1.12 47.95 1.68 71.86l3.06 172.07 1.94 85.38c.35 16.35 1.3 32.89.12 49.21-26.65.49-53.51-.84-80.19-1.14.18-66.71 1.01-133.6-.31-200.3a4699 4699 0 0 1-1.42-143.79c.01-15.71-1.92-41.62 1.24-56.27"/><path d="M1063.49 1269.22c2.21.16 3.42.37 5.33 1.52 4.37 6.67 2.82 18.09 1.44 25.61-2.01-.08-3.29-.27-5.12-1.1-4.8-6.03-2.27-18.63-1.65-26.03m1.4 127.63c2.68 1.59 3.55 2.02 4.27 5.11 1.53 6.65 3.06 20.49-.25 26.27-.68-.24-1.51-.51-2.13-.87-2.96-1.72-3.67-4.19-4.36-7.39-1.58-7.29-1.7-16.74 2.47-23.12m-.93 155.4c2.61.5 3.08.56 5.03 2.32 2.98 8.34 2.17 24.97-.88 33.3-1.78-.53-3.16-1.21-4.13-2.92-3.91-6.91-2.33-25.43-.02-32.7m-1.68-235.73c2.84.58 3.56.57 5.65 2.51 3.53 9.36 1.97 23.36-.76 32.84-1.83-.57-2.7-1.15-4.09-2.47-3.33-8.3-3.4-24.31-.8-32.88m17.02-48.24c1.06.09 3.26.12 4.31.58 1.72.75 2.44 1.55 3.23 3.18 3.29 6.83 2.11 19.83-.52 26.69-2.33-.13-3.38-.44-5.33-1.73-4.58-7.74-2.67-20.08-1.69-28.72m24.39-.94c.7.23 1.42.43 2.07.78 2.44 1.34 3.52 2.63 4.17 5.33 1.74 7.36 1.23 20.43-2.7 27.1-.69-.13-1.59-.26-2.21-.58-1.87-.95-2.72-2.18-3.38-4.11-2.5-7.27-1.24-21.83 2.05-28.52m-39.19 205.04 3.08.62c1.32 1.23 1.86 1.51 2.53 3.28 3.16 8.39 1.54 25.52-2.14 33.38-1.87-.76-3.13-1.53-4.19-3.33-4.02-6.87-1.64-26.94.72-33.95m38.27 75.93 3.02 1.04c1.29 1.31 1.96 2.24 2.58 4.01 3.14 8.96 1.03 25.66-2.81 33.89-1.48-1.59-2.65-2.88-3.55-4.89-3.72-8.29-2.57-25.9.76-34.05m-22.66-155.19c.55.22 1.12.38 1.65.64 2.37 1.17 3.75 2.53 4.5 5.09 2.16 7.29 2.27 22.66-1.5 29.32-.85-.19-2.57-.55-3.32-.92-1.42-.69-2.05-1.77-2.63-3.14-3.63-8.52-2.21-22.66 1.3-30.99m23.88-.68c.62.23 1.29.37 1.87.69 2.2 1.24 2.97 3.97 3.4 6.27 1.57 8.39 1.75 23.34-2.87 30.55-.91-.31-1.92-.6-2.75-1.09-1.97-1.15-2.44-3.66-2.78-5.72-1.43-8.78-2.08-23.28 3.13-30.7m-23.33-77.17c2.38.44 4.38.24 5.74 2.55 4.01 6.85 1.9 26.72-.34 34.25-.83-.14-2.21-.34-2.98-.59-2.02-.66-2.85-1.34-3.8-3.24-3.97-7.92-1.51-24.85 1.38-32.97m.41 233.24c.38.15.77.28 1.14.45 1.99.9 3.32 2.02 4.04 4.1 3.2 9.27 1.8 28.13-2.21 36.78-2.63-1.69-4.04-4.16-4.87-7.11-2.77-9.89-2.95-25.13 1.9-34.22m21.74-234.4c3.05 1.05 4.16.98 5.73 3.96 3.69 6.98 2.11 28.49-.67 35.77-1.63-.29-3.24-.69-4.85-1.06-.89-1-1.01-1.03-1.71-2.4-3.76-7.32-1.11-28.43 1.5-36.27m-20.04 154.33c1.08.43 2.69.95 3.67 1.65 1.76 1.25 2.55 3.28 3.01 5.32 1.87 8.25 2.29 27.31-1.86 34.41-1.01-.26-2.09-.48-3.03-.95-1.55-.79-2.26-2.19-2.87-3.73-3.28-8.36-2.52-28.59 1.08-36.7m22.36-.97c2.41 1.16 3.94 2.48 4.87 5.09 3.37 9.5 1.24 28.78-2.58 38.01l-3.44-1.16c-1.03-1.23-1.58-2.24-1.92-3.82-2.2-10.29-2.53-29.25 3.07-38.12"/><path fill="#fefefe" d="M855.026 991.876c46.452 2.285 92.45 9.004 138.775 11.464.488 15.28 4.79 97.26 2.101 105.42-4.124-1.63-8.028-2.68-12.421-3.22-22.991-2.83-47.536-2.3-70.744-2.88-12.473-.32-25.732-1.77-38.13-.71-3.772.32-7.151.56-9.715 3.52l.599 2.27c1.229 1.22 2.188 2.75 3.947 3.12 5.799 1.24 17.272-.77 24.067-.6 23.228.56 46.618 2.07 69.807 3.51 7.445.46 22.614 3.53 29.006-.17 1.649-.96 1.965-1.19 3.965-1.64 2.447 12.39.635 33.82.667 46.99-13.558.16-56.723-2.37-66.717 1.45-2.471.95-3.124 1.88-3.989 4.26l1.458 1.96c5.617 2.29 59.433 1.9 69.114 2.23l.16 22.68c-34.664-5.21-69.87-4.67-104.774-3.07-5.745.26-14.39-.4-19.629 1.49-2.151.78-3.111 1.71-4.171 3.66.511 2.25.735 2.83 2.827 4.19 6.367 4.15 17.627 1.39 24.726.48 33.655-2.69 67.335-.99 100.961 1.43l.047 25.49c-13.781 3.36-68.488 13.93-76.258 21.13-1.51 4.53-.825 9.18-.548 13.88-14.397.88-30.006-.43-44.114 2.59-2.601.55-5.245 1.04-6.749 3.33.524.8.649 1.12 1.542 1.74 6.603 4.55 40.482.73 50.073.21l.146 26.84c-7.482.1-46.39 1.75-51.652 3.19-2.36.64-2.541 1.67-3.6 3.67l.735 1.48c9.927 5.51 42.602-.11 55.206-.38l.499 25.02c-17.244.74-42.923.98-59.467 3.92-1.631-33.67-1.089-67.52-2.031-101.22-.764-27.28-2.477-54.54-3.233-81.82-.748-27-.463-54.02-.82-81.02z"/><path d="M876.964 1159.31c3.934.06 7.64-.01 11.056 2.24 2.051 1.35 2.099 1.52 2.558 3.8-1.386 2.08-2.668 2.61-4.908 3.63-4.82-.24-10.122-.09-13.947-3.48-1.339-1.18-.937-.84-1.097-2.77 1.762-1.95 3.905-2.53 6.338-3.42m-11.905-149.18c13.977-1.69 89.278 3.74 98.991 9.39 2.85 1.65 2.869 3.86 3.697 6.76l-67.58-6.05c-10.848-.87-22.886-.19-33.412-2.76-1.926-2.64-1.56-4.13-1.696-7.34m54.401 212.33c16.183-.44 32.807-.89 48.969-.03 3.849.21 6.203.17 8.955 3.26l-.436 1.63c-12.178 5.14-36.382 3.62-49.964 3.88-11.041.19-51.054 4.94-58.057.18l.026-2.47c.852-.87 1.55-1.93 2.556-2.62 4.623-3.17 40.649-3.56 47.951-3.83m-48.778-151.22c12.112-.29 24.782 1.69 36.96 2.21 20.048.84 40.125.58 60.164 1.81 3.558.22 17.396 2.71 19.846 1.97.258-.08.489-.22.734-.34l-.597 1.02c2.082 1.1 2.211 1.19 3.274 3.29-.779 2.14-1.351 2.48-3.123 3.98a1339 1339 0 0 0-69.716-3.91c-10.79-.34-41.29.27-49.412-2.03-2.287-.65-2.531-1.49-3.319-3.44 1.522-2.74 2.527-3.03 5.189-4.56m-2.006 61.75c17.256-.65 34.75 1.12 52.051 1.16 17.661.04 59.054-3.02 73.824.17 1.885 2.41 1.089 3.8.78 6.77-14.585 1.7-30.328.54-45.029.6-19.288.08-62.057 1.9-79.138-1.96-2.291-2.39-2.037-3.53-2.488-6.74m.017-96.67c14.477-.55 110.862 2.12 118.929 4.71 2.48.79 2.584 1.3 3.565 3.49-.476 2.86-.52 3.38-2.385 5.55-27.355-2.17-54.919-2.99-82.339-3.97-11.374-.41-24.341.39-35.487-1.25-2.831-.42-2.869-.63-4.423-2.85.213-2.91.432-3.29 2.14-5.68"/><path fill="#fefefe" d="M1023.64 1234.09c1.26-.1 2.16.17 3.39.47 2.95 6.75.03 48.34.21 58.95.9 51.94 2.94 103.88 3.48 155.82l1.76 103.88c.51 26.85.63 53.93 2.67 80.72-30.23-.04-60.708-.27-90.902-1.59-.683-.31-1.206-.89-1.786-1.37-2.01-13.66-.552-29.28-.66-43.18l-.921-83.77c-.374-43.46-3.757-87.13-3.396-130.55.111-13.39 5.578-25.92 4.694-39.57-.146-2.25.245-2.05-1.549-3.6l-3.878 1.11c-3.261-14.86-1.784-58.46-1.881-75.19 29.49-7.88 59.279-14.3 88.769-22.13"/><path d="M968.726 1276.27c.632.08 1.273.12 1.896.26 2.099.47 2.89.92 3.846 2.83 2.988 5.97 3.01 17.1.996 23.42-2.292.01-2.676-.32-4.673-1.51-4.431-6.65-3.321-17.45-2.065-25m-11.033 2.31c2.572 1.19 4.015 2 4.999 4.78 2.425 6.87 2.067 15.69-1.15 22.18-.982-.53-1.661-.85-2.535-1.46-2.847-1.98-3.768-6.23-4.197-9.47-.699-5.29-.324-11.66 2.883-16.03m-20.045-.22 3.964 1.13c1.528 1.31 2.186 2.05 2.881 4 2.159 6.05 1.965 17.26-.952 23.02-.492.04-.983.14-1.476.11-1.202-.07-2.142-.45-2.756-1.49-3.394-5.78-2.723-20.18-1.661-26.77m66.992-6.02c.65.12 1.32.19 1.96.38 1.87.54 2.61 1.36 3.39 3.1 2.54 5.72 3.03 19.92.69 25.62l-3.65-.51c-1.4-1.21-1.99-2.05-2.74-3.81-2.75-6.49-2.33-18.39.35-24.78m-63.958 124.15c1.596.59 2.777 1.27 4.221 2.16 4.402 7.45 3.282 23.54 1.93 31.91-2.758-.24-3.23-.21-5.407-1.86-4.216-8.07-2.106-23.42-.744-32.21m12.181-70.29c2.499.39 3.569.75 5.488 2.41 4.208 7.93 2.676 19 .583 27.45-2.562.51-2.788.69-5.126-.39-4.218-6.76-2.4-21.83-.945-29.47m32.983-50.89c1.322.56 2.492 1.37 3.714 2.12 1.87 3.22 2.613 6.7 3.123 10.37.886 6.39 1.027 13.12-2.903 18.44-.22-.06-.449-.11-.659-.2-2.715-1.21-3.488-2.07-4.344-4.9-2.372-7.85-2.644-18.47 1.069-25.83m-38.335 195.87c.433.12.873.21 1.298.35 2.565.85 3.68 1.98 4.853 4.42 3.351 6.97 2.146 20.73-.195 27.93-2.456.09-2.534.06-4.55-1.34-4.089-7.44-3.11-23.15-1.406-31.36m23.106-145.69c.671.07 1.871.17 2.482.4 1.55.57 2.352 1.74 2.949 3.2 2.805 6.89 1.338 20.71-1.604 27.57-.592-.2-1.209-.32-1.775-.58-2.32-1.06-3.318-3.08-4.02-5.42-2.239-7.46-1.326-18.18 1.968-25.17m18.691 220.21c2.579.61 3.869.77 5.684 2.85 3.12 9.15 1.123 21.02-1.554 30.11-2.633-1.1-3.685-2.11-4.687-4.8-2.819-7.55-2.662-20.66.557-28.16m-.701-220.24c.71.15 1.624.3 2.27.62 2.198 1.07 3.233 2.56 3.792 4.88 1.655 6.89 1.183 19.51-2.608 25.41-.621-.2-1.273-.32-1.862-.6-2.303-1.09-3.406-2.81-4.024-5.19-1.895-7.32-.968-18.4 2.432-25.12m-37.628 221.63c1.017.24 2.114.45 3.052.94 1.609.84 2.407 2.32 3.04 3.94 2.702 6.9 1.253 22.07-1.7 28.66-.458.02-.919.12-1.374.06-1.751-.22-2.442-1.23-3.091-2.74-3.059-7.12-2.653-23.4.073-30.86m23.11-152.78c1.151.49 2.12 1.22 3.161 1.91 1.309 3.25 1.738 6.34 2.015 9.81.637 7.97 1.039 16.78-4.326 22.98-2.252-1.63-3.109-2.76-3.765-5.44-2.107-8.57-1.605-21.76 2.915-29.26m-18.963 2.27 3.446.31c1.75 1.23 2.259 1.59 3.006 3.69 2.663 7.5 2.706 22.44-.595 29.84-.579-.1-1.17-.15-1.736-.31-1.506-.41-2.246-.76-2.982-2.12-2.976-5.49-3.262-25.46-1.139-31.41m13.436 149.87 3.049.43c1.866 1.46 1.468.73 2.232 2.81 2.775 7.53 1.687 23.95-1.525 30.94-.647-.08-1.866-.21-2.445-.46-1.748-.75-2.17-2.4-2.652-4.07-2.296-7.95-2.443-22.38 1.341-29.65m18.351-79.08c2.325.74 3.665.89 4.948 3.19 3.475 6.24.534 26.38-1.394 33.15-.702-.13-1.895-.31-2.511-.63-1.926-1.03-2.433-2.92-2.998-4.86-2.495-8.57-2.476-23.12 1.955-30.85m2.964-73.04c2.746 1.62 4.334 2.09 5.588 5.29 2.797 7.11.894 24.52-2.48 31.16-.302-.07-.61-.13-.906-.22-1.904-.63-3.19-1.85-3.994-3.65-3.422-7.68-1.301-24.88 1.792-32.58m22.993 149.79c2.44.46 4.23.35 5.71 2.64 4.29 6.65 1.93 25.78-.08 33.06-2.9-.85-4.49-1.62-5.85-4.38-4.03-8.17-2.32-22.86.22-31.32m-47.2-73.76c.939.33 1.489.49 2.406.99 2.484 1.36 3.54 3.33 4.207 5.98 2.106 8.36 3.144 21.72-1.134 29.38-.87-.2-1.347-.28-2.196-.69-2.116-1.04-2.906-3.23-3.575-5.33-2.759-8.66-3.68-22.07.292-30.33m46.22-5.01c.72.29 1.86.7 2.47 1.16 3.31 2.5 3.47 10.08 3.8 14.06.63 7.66 1.12 17.26-4.07 23.33-.41-.36-.86-.69-1.24-1.08-3.54-3.54-4.54-17.43-4.75-22.51-.26-6.35-.68-10.09 3.79-14.96m-1.09-143.07c.74.28 1.7.6 2.35 1.03 2.31 1.54 3.2 3.44 3.74 6.08 1.78 8.75 1.11 20.76-3.6 28.37-1.37-.43-2.66-.83-3.72-1.86-2.11-2.05-2.38-5.35-2.67-8.11-.78-7.37-.81-19.61 3.9-25.51m-.97 69.2c2.23.55 3.37.98 5.08 2.52 3.84 10.06 3.76 26.26 1.65 36.79-.93-.19-2.81-.52-3.64-.91-1.46-.69-2.26-1.88-2.88-3.29-3.66-8.32-3.45-26.75-.21-35.11"/><path fill="#fefefe" d="m1502.28 929.937.61.136c.38.509.87.95 1.13 1.527 1.41 3.165 9.4 312.57 9.99 338.06-14.49-4.98-29.64-7.88-44.52-11.53a1377 1377 0 0 1-53.71-14.4c-7.38-.09-15.57 3.57-22.81 5.33-3.4-44.43-3.11-89.53-4.6-134.1l-3.19-86.94c-.71-16.29-1.99-32.572-2.22-48.879 14.76-5.487 29.67-10.687 44.22-16.718 25.19-10.45 49.89-22.05 75.1-32.486"/><path d="M1399.23 1004.64c.91-.01 2.47-.06 3.32.05 2.41.32 3.41.94 4.53 3.13 3.5 6.85 1.34 27.8-1.19 35.05l-2.98.04c-1.7-.99-2.41-1.25-3.15-3.19-2.73-7.13-3.56-28.35-.53-35.08m26.35-2.32 3.47 1.04c5.4 5.35 4.21 28.07 4.28 36.37.04 4.27-.47 5.33-3.49 8.38-.63-.25-1.28-.45-1.89-.75-2.68-1.33-3.54-4.7-4.1-7.38-2.12-10.21-4.14-28.93 1.73-37.66m3.83 111.97c.32.15.67.25.96.45 3.94 2.69 4.23 8.46 4.53 12.85.67 9.72 2.88 32.1-3.54 39.48-.51-.32-1.04-.6-1.53-.96-3.01-2.26-3.55-4.32-4.08-7.91-1.59-10.9-3.25-35 3.66-43.91m19.05-131.675c2.41.368 4.38.454 6.25 2.209 1.51 8.356 3.21 42.246.54 49.236-.33-.04-.65-.07-.97-.11-2.73-.35-4.78-.27-6.55-2.56-2.86-14.35-3.36-34.716.73-48.775m32.68-3.215c1.45.216 2.61.645 3.99 1.142.79 1.477 1.25 2.757 1.44 4.433.97 8.532 1.91 43.125-2.82 48.885-1.93-.68-3.2-1.48-4.83-2.72-3.48-7.29-2.37-18.31-2.35-26.38.02-8.652-1.86-18.971 4.57-25.36m-75.72 195.07c2.59.39 4.22.2 5.76 2.65 4.03 6.44 4.06 50.64 1.27 58.55-.89-.05-2.62-.12-3.45-.33-1.15-.31-2.33-.96-2.84-2.07-2.66-5.81-3.24-53.03-.74-58.8m25.58-1.36c1.27.41 2.43.99 3.63 1.56.82 1.55 1.46 2.94 1.78 4.69 1.11 6.2 4.38 51.92 2.4 56.02-.58 1.19-1.46 2.21-2.19 3.32-.74-.15-1.96-.37-2.63-.68-1.37-.66-2.12-1.49-2.73-2.84-4.25-9.31-4.11-52.36-.26-62.07m-31.15-115.75c.95.24 2.68.64 3.53 1.03 1.29.58 2.49 1.41 2.94 2.78 1.08 3.3 4.87 86.27 4.43 93.55-.16 2.74-.83 4.48-2.19 6.84-1.8-.11-3.25-.09-4.89-.93-1.34-.68-1.45-1.68-1.77-3.11-2.33-10.48-5.56-81.55-4.6-93.1.23-2.67 1.22-4.77 2.55-7.06m82.3 14.81c1.39.45 2.73.46 3.51 1.81.63 1.1.8 1.55 1 2.69 1.85 10.35.27 22.87-.04 33.45-.5 16.96-.89 33.86-.6 50.83.3 18.22 7.9 83.48 4.48 95.02-2.34-.19-3.82-.43-5.9-1.54-.81-1.7-1.21-3.02-1.48-4.91-2.44-17.09-.81-35.82-1.49-53.15-.45-11.46-2.06-22.83-2.51-34.29-.69-17.6.01-35.38-.02-53.01-.03-9.9-1.05-20.96.08-30.75.3-2.57 1.46-4.11 2.97-6.15m-33.19-10.73 3.6.43c1.79 1.28 2.28 1.61 2.97 3.8 3.81 12.07 1.59 35.43 2.39 48.83 1.31 22.21 13.08 123.25 7.08 135.56-.79-.06-1.86-.1-2.61-.33-1.39-.43-2.76-1-3.36-2.37-3.29-7.41-2.95-62.22-3.54-74.67-1.56-32.92-7.04-65.75-8.12-98.6-.15-4.49.21-8.34 1.59-12.65"/><path fill="#fefefe" d="M471.974 999.129c3.377 7.391 3.022 54.501 3.332 65.391a17275 17275 0 0 1 3.817 560.58c-10.983-.01-46.557 2.09-54.579-1.76l.765-2.16c.746-57.31-2.182-114.89-3.802-172.18l-8.975-295.26c-1.052-35.39-2.726-70.8-3.405-106.2 14.464-14.58 44.659-37.88 62.847-48.411"/><path d="M442.932 1466.68c1.412 1.13 2.374 2.04 3.009 3.81 1.826 5.09-.858 10.94-2.734 15.57-1.267-.48-.54-.08-1.911-1.59-.584-6.05-.148-11.97 1.636-17.79m-12.261-406.37c2.025.61 4.098 1.39 5.124 3.38 1.926 3.73.466 7.38-.786 11.05-.312-.05-.627-.09-.935-.16-1.891-.45-3.65-1.36-4.487-3.17-1.73-3.74-.172-7.46 1.084-11.1m9.805 337.92c2.109.75 1.93.79 3.277 2.32 1.59 7.04-.07 13.65-1.37 20.6l-2.258-.57c-3.244-4.71-.314-16.98.351-22.35m13.893-172.01c1.329.49 2.847.65 3.668 1.89 3.338 5.05 1.08 15.78.405 21.69-1.492-.78-2.615-1.03-3.522-2.54-3.588-5.94-1.769-14.61-.551-21.04m-22.744-135.96c1.557.36 3.571.26 4.466 1.71 3.329 5.38 2.322 15.75 1.024 21.73-1.231-.36-2.962-.5-3.779-1.57-3.616-4.72-2.161-16.12-1.711-21.87m19.351-36.78c2.639 1.48 3.449 1.95 4.412 4.86 1.855 5.61 2.241 12.95-.563 18.23-.648-.2-1.333-.31-1.945-.61-2.111-1.02-2.701-3.72-3.204-5.8-1.237-5.11-1.53-12.14 1.3-16.68m-12.825 225.03c1.706.88 2.237 1.15 2.991 2.99 2.384 5.82 1.799 21.22-1.467 26.68-.954-1.05-1.189-1.2-1.925-2.61-3.101-5.92-1.715-20.81.401-27.06m-2.629-94.3 2.65 1.56c3.998 6.78 1.271 21.85.42 29.55l-2.25-.73c-4.089-6.48-1.692-22.82-.82-30.38m15.408-77.84 3.628 1.35c4.421 6.67 2.829 17.63 1.326 25.1l-3.249-.96c-4.243-5.29-2.353-18.88-1.705-25.49m-14.68 30.4c.729.68.956.79 1.446 1.82 2.882 6.05 2.615 27.62.477 33.97-.514-.37-1.073-.69-1.541-1.11-1.622-1.48-1.653-4.3-1.883-6.32-.787-6.92-2.975-22.79 1.501-28.36m3.721 201.43c1.348.45 2.213.97 3.4 1.72 3.844 8.3.465 23.98-1.019 32.88-1.942.23-.953.35-2.946-.49-3.54-8.38-.81-25.18.565-34.11m18.221 4.36c1.993 1.37 2.628 3.06 3.153 5.34 1.825 7.93 2.102 18.49-2.172 25.65l-2.232-1.48c-.958-1.82-1.345-3.07-1.644-5.15-1.051-7.31-1.672-18.33 2.895-24.36m-4.566-172.43c.465.16.944.28 1.393.47 1.954.85 2.519 1.51 3.184 3.54 2.143 6.55 2.307 23.3-.507 29.5-.946-.7-1.842-1.29-2.571-2.26-4.075-5.46-3.425-25.1-1.499-31.25m.367 107.07 3.547 1.31c4.821 6.86 2.2 22.91 1.887 31.41-2.483-.14-3.358-.06-5.436-1.35-3.813-8.54-1.435-22.32.002-31.37"/><path fill="#fefefe" d="M1747.71 1147.88c7.58.44 15.2.9 22.71 2.1 11.05 1.77 32.25 8.65 42.44 6.97 2.27-.38.94-.42 3.32.04 1.86 17.74.47 36.21 1.19 54.09l5.35 166.92c.77 26.6 7.22 265.24 4.22 270.55-.28.49-.78.83-1.17 1.24-26.43-1.44-53.2-1.15-79.68-1.77 1.34-24.66.99-49.45 1.09-74.14l-.8-157.27.47-178.21c.23-30.18 1.11-60.34.86-90.52"/><path d="M1761.19 1448.54c.34.17.69.32 1.01.52 2.93 1.82 3.73 4.89 4.36 8.08 1.86 9.52 1.91 23.19-3.55 31.43-.98-.41-2.13-.84-3.01-1.45-2.73-1.9-2.94-6.87-3.21-9.92-.79-8.82-1.53-21.55 4.4-28.66m-1.44-147.04 3.67.71c2.57 2.42 2.62 5.28 2.87 8.59.59 7.94.7 23.34-4.58 29.46-1.12-.48-1.72-.71-2.72-1.25-2.22-1.22-2.99-3.01-3.53-5.38-2.11-9.23-.56-24.08 4.29-32.13m45.15-74.03c1.32 1.35 1.26 1.15 2.29 2.7 4.45 6.61 2.8 25.39 1.17 33.28-.93 4.5-2.59 5.36-6.24 7.66-1.02-1.13-2.24-2.28-2.84-3.72-3.29-7.87 1.37-32.66 5.62-39.92m-44.22-3.06 3.72 1.65c3.61 5.05 1.09 25.59.26 31.72-.55 4.09-1.53 5.18-4.78 7.63l-3.6-2.72c-2.05-3.88-2.05-8.64-2.13-12.96-.15-8.32.48-19.2 6.53-25.32m-1.95 153.85c.84.12 2.66.33 3.42.62 1.9.73 2.33 2.22 2.75 4.03 1.94 8.41 2.19 32.04-2.32 39.26-2.19-.69-4.27-1.06-5.38-3.29-4.63-9.25-1.94-31.06 1.53-40.62m3.47 141.3c.88.44 1.48.67 2.27 1.32 3.95 3.22 3.91 15.87 3.84 20.77-.1 6.82.63 13.84-4.55 18.86-1.46-.85-3.15-1.71-4.28-3-3.83-4.4-3.45-16.66-3-22.39.51-6.5.43-11.09 5.72-15.56m16.86-293.12 4.38.77c1.59 1.26 2.52 2.12 3.42 3.99 4.07 8.47 1.44 30.11-1.6 38.59l-4.24-.91c-1.14-.91-2.08-1.75-2.73-3.09-4.54-9.33-2.78-29.85.77-39.35m24.18 152.2c1.54-.07 2.86-.07 4.4.15 1.77.26 2.21.74 3.2 2.31 5.12 8.17 2.61 34.56-.18 43.54-2.5.36-3.96.56-6.35-.32-6.06-7.23-1.62-36.29-1.07-45.68m-22.69-.14c1.98.14 3.66.05 5.37 1.17 2.13 1.41 2.83 5.26 3.18 7.57 1.45 9.65 2.66 29.65-2.89 37.44-.46-.03-.93-.01-1.38-.08-2.54-.35-3.64-.48-4.95-2.78-4.2-7.45-2.24-34.95.67-43.32m1.13-77.12c1.64.35 3.67.61 4.97 1.78 2.96 2.68 2.97 9.36 3.1 13.12.31 9.31.69 23.74-5.98 30.81-.76-.02-2.15-.03-2.86-.23-2.01-.58-2.86-1.99-3.46-3.89-3.06-9.77-.49-32.66 4.23-41.59m25.37-.05c1.33.34 2.58.62 3.58 1.64 1.73 1.76 2.04 4.35 2.22 6.68.84 10.82.71 31.91-6.62 40.18-1.75-.45-3.1-.67-4.5-1.9-1.55-1.37-1.83-4.13-1.93-6.07-.56-10.39.33-32.9 7.25-40.53m-53.67-107.24c10.04.03 20.22 3.1 30.19 4.34 9.83 1.23 19.81.99 29.56 2.81l1.16 2.23c-.52 2.66-1.21 3.52-3.15 5.38-12.96.6-45.7-3.5-57.29-8.75-2.14-.97-2.3-.97-3.1-3.26zm32.42 326.39c2.25 1.24 4.28 2.35 5.67 4.59 4.13 6.68 2.62 28.01.81 35.55-.79 3.28-2.92 4.64-5.6 6.34-1.27-.15-1.95.01-2.94-.94-1.95-1.85-2.33-4.31-2.61-6.86-1.15-10.51-2.23-30.22 4.67-38.68m-36.01-353.57c13.68.09 52.3.5 62.31 9.19 1.21 2.93.71 3.08-.41 6.12-11.56.62-24.62-4.12-36.09-6.25-8.59-1.6-17.3-2.44-25.9-4.03-1.03-2.05-.36-2.85.09-5.03m58.58 279.52 4.73.5c1.99 1.74 2.63 2.85 3.16 5.48 2.34 11.75.37 32.25-5.77 42.45-2.59-.33-4.06-.29-6.01-2.2-4.39-8.96.69-36.54 3.89-46.23m-23.68 2.92c2.47.37 4.38.16 5.93 2.42 3.67 5.33 2.92 18.12 2.73 24.37-.21 7.18.41 14.24-5.14 19.46-.92-.18-2.46-.43-3.27-.84-2.95-1.46-4-4.65-4.53-7.66-1.82-10.29-1.68-29.17 4.28-37.75m26.81 66.87c1.41.52 2.1.89 3.23 1.95 2.74 2.58 2.45 8.82 2.53 12.38.24 10.57 1.96 32.01-5.43 39.73-1.45-.89-2.83-1.89-4.22-2.87-2.01-4.04-2.35-7.28-2.39-11.78-.06-8.06.17-26.4 2.35-33.67.74-2.47 2.18-3.95 3.93-5.74"/><path fill="#fefefe" d="m1404.52 1264.1 1.54.21c3.5 7.07 4.36 198.47 4.86 221.35l4.11 155.89c-31.58-1.02-63.17-.82-94.78-2.04l-12.64-.34c-1.6-46.43-.4-93.1-.33-139.55l.16-211.19c32.17-8.77 64.72-16.27 97.08-24.33"/><path d="M1319.91 1318.22c1.24.47 2.32 1.16 3.47 1.82 1.69 3 1.85 6.33 2.11 9.69.51 6.57 1.28 16.75-3.15 21.92-1.84-.9-1.21-.45-2.72-1.73-2.75-2.33-2.87-7.09-3.13-10.49-.51-6.39-.82-16.27 3.42-21.21m19.87 109.97c2.34.43 4.13.75 5.57 2.84 4.68 6.79 2.51 23.84 1.15 31.67-3.18-.02-3.33.1-5.8-1.85-4.22-8.47-2.52-23.51-.92-32.66m-1.85-112.06 3.11.55c1.49 1.21 1.8 1.24 2.57 3.16 2.81 7.02 3.1 24.14.29 31.21-2.33-.53-4.36-.48-5.76-2.68-4.35-6.85-2.43-24.86-.21-32.24m22.21-3.6 4.43.44c1.31 1.09 1.8 1.28 2.5 2.93 3.19 7.44 2.62 25.28-.59 32.7-2.25-.5-4.07-.48-5.47-2.55-4.14-6.14-2.53-26.38-.87-33.52m28.4 113.79 3.04.59c1.42 1.36 1.54 1.24 2.17 3.34 2.59 8.65 3.61 31.53-.85 39.19-2.55-1.17-3.36-1.37-4.7-3.99-3.08-6.03-1.79-32.34.34-39.13m-65.95 1.87c1.11.26 2.43.51 3.46.97 1.49.67 2.15 2.16 2.74 3.58 2.76 6.69 3.44 27.75.63 34.43l-4.38-.5c-.94-.89-1.08-.92-1.83-2.22-4.6-7.9-2.35-27.59-.62-36.26m42.05-.01c2.62.6 3.26.65 5.19 2.46 3.36 8.72 3.88 28.51 1.22 37.51-3.08-.94-4.68-.89-6.42-3.89-4.09-7.03-2.42-28.36.01-36.08m17.15-118.99 4.13 1.17c1.02.92 1.85 1.77 2.35 3.09 2.97 7.72 2.61 26.64-.55 34.24-3.13-.07-3.47.14-5.88-1.79-3.9-8.63-2.43-27.47-.05-36.71m1.74 54.05c.76.06 1.83.13 2.55.3 2.1.51 2.93.92 3.81 2.92 2.79 6.33 3.41 36.18 1.12 42.66-2.53-.74-4.39-.95-5.69-3.39-4.26-7.98-4.2-33.69-1.79-42.49m-63.81 4.43c1.36.44 2.61 1.12 3.89 1.73.91 1.3 1.57 2.48 1.91 4.05 2.03 9.42 3.15 33.09-2.21 40.9l-2.83-1.27c-.89-1.16-1.53-2.23-1.86-3.68-1.99-8.6-3.31-34.66 1.1-41.73m18.59-2.15c2.2.13 4.03.42 6.15 1.02.17.35.38.69.52 1.05 2.55 6.72 2.36 39.71-.72 46.11-.34-.08-.68-.15-1.01-.25-1.99-.58-3.3-1.46-4.3-3.27-4.07-7.39-3.37-36.53-.64-44.66m23.17-2.12 4.5 1.02c.94 1.16 1.05 1.18 1.79 2.69 3.17 6.44 2.6 39.05-.5 45.6-1.5-.19-2.7-.3-4.06-1.03s-1.98-2.69-2.35-4.14c-2.39-9.16-4.17-36.45.62-44.14m25.63-78.01c.9.21 2.07.43 2.88.88 1.4.78 2.21 2.02 2.67 3.51.48 1.56-.18 1.81-.97 3.09-7.06 3.38-32.07 3.89-41.53 5.4-10.69 1.71-21.3 4.2-31.88 6.51-1.2.05-2.27-.29-3.43-.55-1.63-2.19-1.63-2.51-1.78-5.26 3.45-3.71 66.53-12.53 74.04-13.58m-39.54 213.99c1.96.05 3.51.4 5.39.96.57.83.77 1.01 1.11 2.12 2.09 6.85 2.71 58.96 1.58 67.32-.29 2.08-1.1 3.67-2.1 5.48-2.19-1.17-3.35-2-4.39-4.33-4.08-9.13-5.49-62.13-1.59-71.55m22.04 5.09c1.81.35 1.15.12 2.79.81 1.5.62 1.54 1.07 2.05 2.56 3.63 10.72 3.35 57.54 1.78 69.68-.37 2.89-1.38 5.41-2.63 8.02-.76-.11-1.94-.24-2.63-.53-1.29-.53-2.28-1.26-2.68-2.59-2.76-9.32-2.12-59.42-.91-70.58.29-2.74 1.09-4.88 2.23-7.37m-44.84-6.19c.65.16 1.66.37 2.24.69 2.09 1.17 2.87 3.4 3.36 5.61 2 9.1 4.56 79.41 2.25 84.8-.44 1.02-1.24 1.85-1.86 2.77-1.78-.86-3.41-1.55-4.25-3.39-4.54-9.98-5.8-80.41-1.74-90.48m65.97-6.85c2.21 0 3.4-.04 5.29 1.2 2.62 7.76 4.96 92.11 1.78 100.29-.58-.31-1.18-.57-1.74-.91-2.53-1.54-3.16-3.24-3.84-6.03-2.84-11.7-6.07-77.2-3.96-89.09.36-2.07 1.39-3.7 2.47-5.46"/><path fill="#fefefe" d="M487.811 984.029c27.82-.72 56.578 3.323 84.331 5.753 16.507 1.445 34.958 1.515 50.983 5.585 3.363 82.243.914 164.833 3.491 247.103-23.861 5.31-100.219 15.57-116.408 25.04-7.318 20.15-.582 207.66.47 240.97l2.652 118.22c-6.418.11-12.877-.16-19.297-.28-.783-44.37-.13-88.86-.186-133.24l-1.557-278.21a6754 6754 0 0 0-2.769-142.5c-.793-26.14-3.822-63.4-1.71-88.441"/><path d="m517.134 1217.34 1.923 1.09c3.875 7.89 1.861 24.31 1.833 33.24l-2.142-1.26c-4.233-8-2.045-24.11-1.614-33.07"/><path fill="#fefefe" d="m836.265 993.957 1.086.368c5.09 10.825 4.932 145.995 5.436 167.675l7.693 284.28c1.171 61.61.934 123.13 1.036 184.75a2422 2422 0 0 1-54.453-1.08l-.894-31.1-2.936-177.75c-.703-51.74-.854-104.05-4.225-155.67-11.993-5.15-25.505-8.43-37.998-12.32a6766 6766 0 0 0-4.781-221.9c11.884-7.15 25.849-11.74 38.763-16.76a1676 1676 0 0 0 51.273-20.493"/><path d="m805.592 1042.33 3.404.8c2.143 2.24 2.656 5.26 3.325 8.19 1.889 8.28 4.534 24.96-.015 32.3-.271-.1-.554-.18-.812-.31-2.419-1.21-3.043-2.18-3.772-4.73-1.492-5.22-5.576-27.88-4.08-32.87.374-1.25 1.3-2.26 1.95-3.38m-17.148 2.15c.706.03 1.957.05 2.609.25 1.576.49 2.074 1.23 2.734 2.66 3.834 8.3 5.909 30.45 3.062 38.71-.664-.1-1.638-.23-2.252-.44-1.973-.7-2.464-1.37-3.183-3.3-2.854-7.65-6.524-30.51-2.97-37.88m28.857 214.85 2.228 1.06c4.862 10.16 5.229 70.47 4.842 85.36-2.08.3-1.837.19-3.58-.6-4.412-10.13-4.077-72.42-3.49-85.82m3.537 108.12c1.009.61 1.736 1.4 2.578 2.21 4.578 20.05 7.851 131.7 4.159 151.83l-2.97-.41c-.188-.25-.41-.48-.563-.76-1.419-2.56-5.211-144.66-3.204-152.87m-50.28-313.05 3.896 1.7c.919 1.04 1.336 1.83 1.638 3.2 4.54 20.62 11.28 118.57 8.439 139.47-.264 1.94-1.004 3.23-2.065 4.84-1.97-1.88-2.479-3.17-2.876-5.89-3.25-22.26-3.104-51.18-4.907-74.45-1.57-20.25-5.44-40.54-6.589-60.73-.216-3.79.296-5.05 2.464-8.14"/><path fill="#fefefe" d="M1422.6 1264.35c16.56 3.31 33.05 7.97 49.54 11.73 22.61 5.15 45.47 9.59 67.9 15.49 2.44 39.43 2.09 79.11 3.06 118.6l6.48 233.23-1.64 1.57c-41.71-.36-83.52-2.05-125.24-2.81a12463 12463 0 0 0 .89-247.13l-1.08-87.5c-.16-13.95-1.66-29.37.09-43.18"/><path d="M1504.7 1476.47c7.01-.23 14.86-1.06 21.77.07 3.38.56 7.62 1.39 9.72 4.32l-1.05 1.33c-8.83 3.94-19.07 2.25-28.45 1.58-10.52-1.01-23.53 1-33.43-2.66l.22-1.18c9.82-3.92 20.8-3.28 31.22-3.46m16.92-62.97c3.77.01 5.79.17 8.83 2.43.76 2.31.91 2.19-.13 4.35-9.51 5.96-50.56.11-64.07-.35-4.25 0-9.22.44-13.35-.55-2.12-.51-1.89-1-3.01-2.73 13.73-5.16 54.59-3.03 71.73-3.15m-12.05 87.92c5.01-.6 12.35-1.33 17.24-.13 2.68.65 4.81 1.86 6.24 4.28l-1.14 1.71c-7.05 3.22-52.16 3.02-64.77 4.12-6.65.78-17.96 3.62-24.25 2.06-1.57-.39-1.56-1.03-2.34-2.28l1.14-1.65c12.69-5.63 52.65-6.97 67.88-8.11m-72.56-142.11c12.52-.69 74.76-.7 84.71 2.01 2.33.64 3.07.97 4.21 3.2l-1.8 3.14c-3.49.66-6.9 1.09-10.45 1.14-10.05.14-73.06-1.81-77.61-6.27zm-1.35-31.44c8.02-.75 85.68 8.18 91.83 11.05.42 2.83-.68 3.96-1.97 6.46-1.23.14-2.44.24-3.68.27-15.14.32-31.75-5.17-46.8-7.43-11.31-1.69-23.07-1.98-34.25-4.18-2.57-.51-3.23-.68-5.1-2.47zm-1.33-32.96c5.87-.07 91.03 11.8 92.73 13.08 1.15.86.64 2.69.65 4-1.29.55-2.56 1.17-3.92 1.56-5.13 1.46-83.78-10.11-87.86-12.99-1.13-.8-1.32-4.26-1.6-5.65m62.29 148.51c6.33-.8 14.69-1.36 21.02-.66 4.09.45 8.26 1.19 11.01 4.4l-1.42 1.83c-13.62 5.89-39.64 3.74-54.71 3.9-8.84-.05-17.89.17-26.69-.73-2.7-.27-5.18-.43-6.94-2.6 3.2-2.57 49.48-5.4 57.73-6.14m-17.63-55.96c8.44-.25 48.17-2.3 53.07.99 1.33.89 1.15 1.78 1.48 3.22l-1.35 1.92c-9.58 4.42-31.43 1.42-42.69 1.03-11.05-.29-47.42 1.52-54.89-.86-.75-2.04-.87-1.45-.07-3.82 4.06-2.5 37.13-2.24 44.45-2.48m-26.07 139.07c23.81-.57 47.44.31 71.19 1.86 4.09.27 10.35 1.55 12.94 5.07.99 1.34.52 1.76.25 3.25-2.43 2.02-4.6 2.06-7.61 2.37-17.84-3.29-37.42-5.05-55.58-6.22-7.01-.45-14.46.22-21.37-.77-2.95-.43-5.36-.83-7.9-2.5l.22-2.04-.98.87.58.7c3.2-3.03 4-2.46 8.26-2.59m-8.39 30.73c15.09-.49 73.53-2.45 84.38 1.27 2.67.91 3.4 1.62 4.48 4.15-1.18 2.98-1.51 2.89-4.34 4.49-14.11.11-81.31-.83-90.06-5.28 1.23-2.69 3.03-3.16 5.54-4.63"/><path fill="#fefefe" d="M1518.81 931.095c16.43 6.617 32.05 15.625 48.01 23.318 13.79 6.645 28.2 12.212 42.37 17.985 2.62 14.26 1.96 29.942 2.32 44.452l2.03 78.76a23591 23591 0 0 1 7.98 360.61c.48 23.64 7.04 182.55 4.55 190.31a2395 2395 0 0 1-64.1-1.52c.11-28.78 1.2-57.58.97-86.37-.46-56.2-2.45-112.51-3.6-168.72-.73-35.6.4-71.23-1.9-106.79-9.22-2.38-18.42-5.69-27.45-8.71a3091 3091 0 0 0-3.4-172.41c-2.73-56.88-7.66-113.968-7.78-170.915"/><path d="M1574.94 1342.11c1.76.24 2.96.67 4.55 1.45 1.6 2.86 1.78 5.99 1.98 9.2.41 6.51.7 16.65-3.77 21.62-1.86-.64-2.36-1.11-3.75-2.42-3.46-9.02-1.71-20.77.99-29.85m.54 200.53c1.16.53 2.17 1.12 3.09 2.04 3.49 3.5 3.42 12.13 3.19 16.8-.31 6.31-.12 12.72-5.03 17.19-2.33-1.45-4-2.6-4.81-5.37-2.18-7.35-.45-24.54 3.56-30.66m2.16-64.12c2.89.54 4.02.44 6.2 2.49 2.96 7.98 1.9 26.54-1.25 34.55-3.09-.38-3.77-.15-6.1-2.35-3.92-9.81-.38-24.5 1.15-34.69m19.23 2.75c1.74.29 2.95.38 4.38 1.53 2.64 2.15 2.91 7.54 3.17 10.75.45 5.57.73 18.23-2.85 22.41l-4.59-.34c-.76-.61-1.22-.89-1.73-1.83-3.92-7.2-1.47-25.51 1.62-32.52m-8.88-472.51c2.65.01 4.83.18 7.44.76 2.67 6.02 1.96 32.98.11 39.87-.7-.08-1.35-.13-2.05-.3-2.63-.62-3.95-1.2-5.18-3.69-3.64-7.35-2.72-28.8-.32-36.64m-46.29-25.5c.94.231 1.88.438 2.79.745 2.04.689 2.88 1.802 3.66 3.773 2.88 7.261 2.8 33.452-.45 40.142-.79-.14-2.57-.41-3.28-.7-1.31-.53-1.81-1.51-2.34-2.72-4.13-9.37-3.84-31.791-.38-41.24m21.71 11.703c2.2-.252 4.16-.568 6.34.02 1.15.31 1.21.241 1.7 1.255 3.47 7.092 1.31 32.352-.65 40.662-3.15-.53-4.02-.45-6.48-2.63-4.34-10.63-2.19-28.04-.91-39.307m-18.73 199.167c2.39.21 3.62.41 5.62 1.76 2.02 6.42 2.83 59.01.49 65.1-1.75-.35-2.86-.82-4.38-1.74-4.88-10.9-5.31-53.24-1.73-65.12m28.26 201.72c2.06.56 2.96 1.01 4.46 2.53 3.86 9.18 7.3 60.95 4.86 70.47-2.12-.27-3.02-.41-4.57-1.9-4.3-9.04-7.63-61.52-4.75-71.1m-22.58-322.24 1.69 1.12c1.56 2.36 1.64 4.88 1.79 7.63.69 12.91 2.52 41.4.29 53.01-.52 2.73-1.51 3.55-3.33 5.54-1.24-1.06-2.69-2.15-3.53-3.58-3.41-5.78-3.47-51.14-1.66-58.68.74-3.1 2.09-3.52 4.75-5.04m22.33 55.69 4.71.93c1.77 2.14 1.68 2.77 1.94 5.54 1.43 15.61-.26 31.91.21 47.65.36 12.07 1.71 24.12 2.17 36.19a1428 1428 0 0 1 .56 72.1c-.65.09-1.3.24-1.96.26-2.8.11-3.28-.25-5.15-2.08-4.56-17.24-1.76-75.39-2.26-97.71-.38-16.63-2.43-33.09-2.19-49.76.07-4.64.16-8.75 1.97-13.12m23.5 153.17c2.33 1.58 3.17 2.16 3.67 5.02 1.28 7.22.44 15.81.39 23.18-.11 16.21-.45 32.43-.28 48.64a3308 3308 0 0 0 1.45 60.1c.44 12.88 1.52 26.08.91 38.94-.25 5.28-.87 8.9-3.67 13.44-2.36-2.12-5.21-4-5.58-7.36-1.79-16.23.85-37.79.77-54.85l-.78-80.27c-.11-13.21-.79-26.83.11-40.02.2-3.07 1.07-4.48 3.01-6.82m-1.02-214.37c1.57.62 3 .77 3.96 2.24 1.34 2.04 1.8 4.16 1.92 6.58.94 18.62-.64 37.94-.57 56.65a5472 5472 0 0 1 .31 88.75c-.09 14.22 1.39 31.26-2.23 44.98l-2.91-.65c-.89-.89-.97-.86-1.64-2.17-1.52-2.99-1.27-171.72-.51-188.98.11-2.58.75-5 1.67-7.4"/><path fill="#fefefe" d="M673.193 1248.64c12.866 2.39 25.308 6.47 37.914 9.92 21.072 5.76 41.949 11.45 62.749 18.19-1.666 16.01-.83 32.36-.555 48.43a5574 5574 0 0 1 .614 56.43c.723 82.63 3.217 165.23 2.945 247.86l-247.698-3.36c-3.141-29.82-2.511-60.46-3.363-90.44a5093 5093 0 0 1-3.054-180.16 4643 4643 0 0 0-.006-77.87c20.094-5.57 40.8-8.79 61.307-12.43a4781 4781 0 0 1 73.797-12.8c4.898 87.04 8.286 173.46 8.014 260.68-.048 15.48-3.662 103.35-.707 111.66 2.063 1.44 2.055 1.55 4.544 1.38 2.661-2.67 3.38-5.88 4.005-9.5 3.246-18.81 1.872-39.75 2.498-58.84 2.36-71.96 1.279-144.31-.453-216.27-.745-30.96-3.343-61.92-2.551-92.88"/><path d="m636.546 1484.07 3.24.06 1.402 1.52c-.082 1.04-.084 1.82-.471 2.85-1.18 3.13-3.494 4.54-6.253 6.11-1.077-.65-2.654-1.44-3.602-2.32-1.841-1.7-2.226-2.04-2.323-4.51 2.213-2.63 4.825-2.95 8.007-3.71m-2.487-24.37c1.931.23 3.544.82 5.362 1.49 1.835 2.36 1.881 2.23 1.678 5.2-1.651 2.97-3.341 3.81-6.226 5.29-1.183-.33-3.385-.82-4.426-1.59-2.213-1.64-2.179-2.46-2.317-4.96 1.344-2.96 3.248-3.87 5.929-5.43m-4.478-118.94c1.721.05 3.75 0 5.411.46 2.333.64 3.053 2.05 3.869 4.1-.492 3.23-1.718 4.57-3.804 6.88-1.616-.07-3.475-.06-5.036-.49-2.434-.66-3.236-1.98-4.281-4.09.755-3.51 1.552-4.22 3.841-6.86m.559-62.05c1.155.01 3.207-.14 4.376.21 2.744.84 3.313 1.74 4.799 3.98.337 3.48-.458 5.19-2.04 8.27-1.693.03-3.634.17-5.293-.16-2.491-.51-3.366-1.87-4.558-3.91-.185-3.52 1.055-5.45 2.716-8.39m3.317 28.05c1.864.4 3.345 1.05 5.109 1.77 1.911 2.36 1.996 2.22 1.841 5.23-1.825 2.74-3.406 3.32-6.333 4.42-.974-.01-2.701.02-3.614-.19-2.526-.57-3.011-1.55-4.224-3.57.128-.99.184-1.86.595-2.8 1.206-2.76 4.069-3.77 6.626-4.86m2.447 93.3c2.085.21 3.782.78 5.747 1.5 1.436 1.97 1.517 1.86 1.266 4.26-2.007 3.29-4.087 4.56-7.371 6.5-2.393-.32-3.541-1.07-5.491-2.46-1.172-2.54-1.089-2.67-.499-5.43 2.029-2.74 3.278-3.23 6.348-4.37m-4.452-32.29c2.803-.02 5.46-.05 8.056 1.22 2.426 1.18 3.035 2.36 3.74 4.83-.749 2.79-2.377 3.75-4.573 5.38-2.811.56-4.641.6-7.481.21-2.248-1.6-2.433-1.59-3.224-4.19.457-3.22 1.645-4.9 3.482-7.45m82.291 56.66c1.338.39 2.132.85 3.306 1.57 1.415 2.7 1.861 5.14 2.198 8.18.775 6.98.944 15.65-3.511 21.32-1.925-1.18-2.707-2.27-3.371-4.48-2.36-7.85-2.095-19.2 1.378-26.59m32.141-130.93c.245.1.505.16.735.29 1.867 1.06 2.268 1.66 2.711 3.78 1.733 8.28.678 24.37-3.854 31.43-2.025-1.73-3.411-2.92-4.009-5.56-1.823-8.07-.157-23.05 4.417-29.94m19.052 135.96c.313.19.647.34.938.55 2.186 1.62 2.767 2.81 3.181 5.43 1.329 8.43 2.394 27.04-2.781 33.88-2.459-2.18-3.123-3.2-3.708-6.46-1.476-8.25-2.702-26.67 2.37-33.4m-33.932-3.04c1.919 1.21 2.989 2.24 3.873 4.39 3.215 7.85 3.454 30.14-.321 37.51-1.963-1.26-3.566-2.41-4.459-4.61-3.605-8.9-2.672-28.67.907-37.29m15.784 1.15c2.822 1.3 3.943 1.45 5.316 4.39 3.303 7.05 2.799 29.63.256 36.81-.717-.05-1.772-.07-2.437-.31-1.545-.54-2.314-1.24-3.009-2.66-3.921-8.05-3.171-30.32-.126-38.23m-14.501-63.97c2.166 1.75 3.013 2.67 3.492 5.48 1.04 6.13 3.031 33.89.994 38.83-.465 1.13-1.486 1.94-2.229 2.91-2.974-1.81-3.959-2.29-4.765-5.75-2.535-10.88-3.017-31.96 2.508-41.47m31.482-1.21 2.31 1.44c.82 1.8 1.3 3.27 1.561 5.25 1.22 9.22 3.271 36.15-2.071 43.2-.678-.26-1.887-.68-2.447-1.1-2.677-2.06-2.32-8.31-2.42-11.34-.299-9.05-2.84-31.16 3.067-37.45m-52.542-80.1c.751.08 2.073.2 2.77.38 1.859.49 2.476 1.07 3.253 2.79 4.103 9.1 4.435 38.17 1.208 47.39-1.66-.45-1.586-.14-2.601-1.32-4.488-5.21-5.21-41.15-4.63-49.24m50.704 3.21 3.507 1.41c1.193 1.93 1.444 3.39 1.588 5.6.501 7.7 1.197 35.63-1.78 41.04-.638 1.16-1.758 1.98-2.636 2.97-2.155-1.69-3.355-2.76-3.824-5.56-1.484-8.84-1.71-30.9.076-39.5.492-2.37 1.671-4.03 3.069-5.96m-64.397 134.73c2.007.4 3.859.66 5.129 2.45 4.848 6.84 3.374 41.32 1.498 50.06-.417.05-.832.17-1.252.15-1.473-.05-2.639-.24-3.464-1.5-3.791-5.79-3.098-43.09-1.911-51.16m-.211-67.99c1.627.74 2.782 1.47 4.227 2.49 4.445 9.54 3.498 46.19 1.83 56.85-2.089-.34-3.399-.73-5.218-1.81-3.523-7.05-1.499-47.61-.839-57.53m31.051-74.63c2.843.44 4.523.33 6.315 2.77 1.022 10.08 2.331 47.31-1.262 55.17-1.971-.78-2.819-.58-3.806-2.58-2.744-5.56-3.107-49.27-1.247-55.36m-16.118 72.74c2.43.24 3.869.3 5.827 1.84 3.877 7.75 4.848 49.26 3.512 58.51-2.071-.07-3.504-.23-5.427-1.02-3.549-6.46-4.858-50.61-3.912-59.33m33.005 1.09c2.716.32 4.791.31 6.843 2.34 2.183 10.68 2.239 47.85.719 59.32-3.174-.34-4.223-.17-6.787-2.19-3.751-8.63-1.824-48.56-.775-59.47m-150.744-7.01c5.378-.35 9.239-.65 13.899 2.31.209 1.44.576 1.42-.239 2.35-1.967 2.23-5.886 3.16-8.695 3.62-5.883.98-12.117.41-18.074.62-9.273.34-18.492 1.26-27.725 2.15-3.159.84-7.025 2.31-10.227 1.17-2.275-.81-3.347-1.91-4.315-4.02l1.4-2.03c10.325-5.42 41.276-5.48 53.976-6.17m2.585 120.16c2.776-.31 6.83-1.17 9.516-.69 2.817.51 3.062 1.2 4.33 3.47l-.996 2.04c-9.601 5.81-43.667 6.58-56.891 7.9-2.205.33-4.523.38-6.75.56-2.613-1.23-3.114-1.54-4.791-3.87l.771-2.05c7.847-5.03 44.173-6.29 54.811-7.36m-3.948-30c3.293-.34 6.612-.73 9.92-.88 4.03-.19 7.861.71 10.849 3.53l-.484 1.62c-7.962 4.85-44.153 5.52-54.676 6.46-4.491.64-10.136 1.97-14.655 1.53-2.209-.22-2.343-.3-3.868-2.01l.322-2.59c5.923-6.4 42.398-6.91 52.592-7.66m168.925 60.07 2.835 1.57c3.897 5.21 2.463 44.28 2.519 53.83.042 7.25.908 13.47-4.464 18.91-1.27-1.53-1.839-2.58-2.384-4.49-3.567-12.46-4.205-59.07 1.494-69.82m-161.482-209.49c4.912-.45 7.436.08 11.559 2.82l-.008 1.45c-1.458 1.67-3.506 2.7-5.65 3.23-7.342 1.82-15.532 2.51-23.033 3.95-13.453 2.57-26.702 5.8-40.23 8.2-3.641.64-7.184 1.26-10.432-.8l.45-1.87c7.143-5.95 54.289-14.01 67.344-16.98m143.211 209.01c1.396.24 2.225.35 3.381 1.25 1.558 1.2 1.848 4.55 2.091 6.4 1.244 9.47 2.435 52.83.373 60.74-.483 1.85-1.725 3.51-2.866 5.01-1.728-.64-2.248-1.26-3.517-2.54-4.221-11.01-3.649-60.14.538-70.86m-50.869-228.61c2.821 1.18 4.254 1.72 5.825 4.43 5.988 10.34 7.356 60.76 4.492 72.79-.465-.13-.939-.22-1.395-.38-2.096-.72-3.966-1.08-4.561-3.47-1.748-7.01-1.331-26.71-2.072-35.5-.913-10.84-3.437-22.06-3.654-32.86-.039-1.94.554-3.3 1.365-5.01m-85.281 221.87c1.77-.32 3.06-.14 4.832.05 2.083 1.84 2.273 2.14 3.067 4.81l-1.069 1.85c-12.134 4.64-48.952 4.8-64.254 6.56l-5.334.32c-1.534-.69-2.395-1.09-3.494-2.43-1.047-1.28-.752-.76-.569-2.54 5.301-6.31 55.811-7.48 66.821-8.62m-.94-80.99c2.75-.13 3.501-.4 5.833.97.81 2.61.733 2.48-.448 4.96-6.185 4.93-56.247 7.38-67.852 8.45-3.905-.04-5.891-.2-9.036-2.55.022-1.12.972-2.1 1.566-3.04 8.842-5.77 56.814-7.61 69.937-8.79m-.776-34c.397-.07.788-.19 1.19-.2 2.841-.1 3.091.6 4.889 2.57.369 2.52.366 2.56-.89 4.78-8.447 4.4-52.988 5.65-66.379 6.86-1.865 0-2.986-.32-4.699-1.05-.936-2.43-1.184-2.83-.683-5.35 1.711-1.71 3.189-2.35 5.518-2.81 5.727-1.14 12.194-.98 18.062-1.44zm3.053-61.03c.803-.05 1.987-.18 2.757.04 2.295.63 2.836 1.66 3.773 3.58l-1.053 2.51c-1.709 1.46-3.077 2.26-5.287 2.79-5.389 1.3-11.164 1.11-16.661 1.73a2134 2134 0 0 1-52.069 5.48c-1.745.26-.937.23-2.949.09-2.155-.15-1.913-.56-3.262-2.09l.411-2.46c4.717-5.37 63.933-10.39 74.34-11.67m4.626 199.96c2.063-.29 4.149-.58 6.235-.62 4.427-.1 7.166 1.44 10.328 4.38l-.284 1.45c-6.295 4.2-61.66 6.58-74.816 8.54l-3.589.59c-3.225.54-5.818 1.34-8.957-.03-1.279-2.45-1.159-2.27-.362-4.94.78-.62 1.453-1.42 2.341-1.88 4.534-2.35 59.883-6.41 69.104-7.49m110.277-21.19c.547.22 1.124.38 1.641.67 1.843 1.01 2.303 2.25 2.762 4.21 1.519 6.47.415 68.69-.588 79.31-.203 2.14-.774 3.4-1.891 5.19l-3.759-1.78c-2.59-2.87-2.17-7.22-2.257-10.89-.381-15.94-1.799-57.77 1.006-71.51.472-2.31 1.489-3.53 3.086-5.2m-86.835 69.17c1.475-.25 2.948-.08 4.438-.02 1.653.97 2.457 1.41 3.374 3.18.83 1.6.409 1.67-.111 3.23-7.265 4.85-80.339 6.4-95.364 7.03-1.129.02-2.808.18-3.948-.09-2.334-.56-3.367-1.52-4.649-3.45l.632-1.59c2.859-1.59 5.733-1.94 8.954-2.27 28.913-2.9 57.756-1.34 86.674-6.02m-8.471-22.94c5.017-.37 7.394.43 11.522 3.25l-.035 1.21c-5.901 6.37-72.504 7.53-85.95 9.42-1.842.26-4.507.55-6.291-.1-2.592-.93-3.722-2.36-5.09-4.63l.418-1.66c5.265-3.47 73.289-6.44 85.426-7.49m72.504-54.14c1.242.53 1.954.67 2.903 1.54 5.597 5.15 6.545 77.13 6.17 90.03-.096 3.28-.512 4.05-2.829 6.36-2.339-.81-5.142-1-5.996-3.67-1.951-6.08-4.38-78.37-3.512-86.58.338-3.19 1.432-5.09 3.264-7.68"/><path fill="#fefefe" d="M1135.12 853.949c10.25-.733 23.88 2.822 34.39 3.937 32.75 3.476 65.68 5.037 98 11.725 5.83 81.167 6.9 163.149 9.61 244.489l3.92 112.4c1.17 26.1 3.15 52.22 3.82 78.33.91 34.98.53 70.06.76 105.06a7567 7567 0 0 1 .79 180.7c-.01 5.29.91 44.1.15 46.5-.2.61-.74 1.04-1.12 1.57l-3.19.27-139.27-2.64c-2.97-67.85-3.01-135.84-4.13-203.73a22347 22347 0 0 0-6.39-349.84c-1.6-75.16-2-149.887-7.65-224.922 3.39-1.377 6.88-2.579 10.31-3.849"/><path d="m1191.45 1222.3 2.4 1.32c2.66 4.38 1.9 8.53 1.2 13.38l-3.56-.64c-2.44-4.3-.81-9.35-.04-14.06m-27.86-72.82c.97.57 1.89 1.37 2.79 2.06 1.52 5.09.83 9.34-.72 14.34-1.39-1.26-2.73-2.48-3.38-4.32-1.49-4.2-.63-8.23 1.31-12.08m89.04 107.83 2.19 1.85c2.14 5.25 2.56 10.02 1.5 15.58-1.34-.46-2.19-.98-3.37-1.75-1.96-5.48-1.05-9.98-.32-15.68m2.8 107.42 1.06 1.12c1.63 6.14 2.57 11.66 1.2 17.95-.88-.23-2.01-.91-2.84-1.31-2.9-5.47-.63-12.05.58-17.76m-61.44-32.36 2.56 2.01c1.99 5.34 1.27 8.5-.92 13.66-1.77-.94-2.9-2.05-3.46-4.05-1.15-4.07.16-7.94 1.82-11.62m-.83 32.19 2.07 1.89c1.98 5.76 1.97 10.85.33 16.69-1.65-.61-2.11-.85-2.97-2.46-2.26-4.21-.79-11.82.57-16.12m-22.5 79.78c1.3.63 2.17 1.35 3.28 2.27 2.03 5.47.95 9.6-.14 15.22-1.26-.37-1.99-.78-3.09-1.46-1.65-5.36-.75-10.56-.05-16.03m50.36-1.24c3.02 1.08 3.56 1.18 5.5 3.67 1.01 3.81.16 7.07-.54 10.89-2.34.19-2.32.33-4.17-1.06-1.66-4.24-.96-9.02-.79-13.5m-58.1-336.56c.84.69 1.29 1.57 1.88 2.47.81 6.67 1.09 14.52-1.12 20.93-.33-.53-.68-1.04-.99-1.58-3.47-5.92-1.51-15.6.23-21.82m81.19 2.68c1.69.76.8.21 2.53 1.86 1.06 5.79 1.09 12.1-1.02 17.65-1.03-.98-1.94-2.11-2.88-3.17-1.56-6-.24-10.51 1.37-16.34m-22.43 372.26c.91.67 1.74 1.67 2.54 2.48 1.93 5.93 2.43 11.72.86 17.78-1.32-.55-1.51-.4-2.29-1.41-3.4-4.37-1.89-13.74-1.11-18.85m-54.86-230.12c1.08.85 1.63 1.34 2.19 2.65 2.11 4.86 1.67 12.37-.19 17.2-1.23-1.21-2.35-2.24-3.17-3.8-2.41-4.58-.33-11.54 1.17-16.05m2.14 34.22c1.05 1.26 1.6 2.29 2.15 3.88 1.77 5.15 2.16 12.31-.43 17.18-1.13-1-1.45-1.1-2.16-2.38-3.03-5.39-1.41-13.18.44-18.68m79.32-220.04c.16.31.36.6.49.92 2.03 5.07 1.2 16.52-1.21 21.44-1.53-1.12-2.44-1.97-2.83-3.92-1.17-5.84.46-13.42 3.55-18.44m-60.23-12.21 2.07 1.04c3.84 5.11 2.28 15.51 2.03 21.59-1.01-.36-2.16-.49-2.83-1.4-3.07-4.21-1.44-16.19-1.27-21.23m.9 45.21c.84.7 1.33 1.59 1.94 2.49.72 6.73 1.85 16.94-1.28 23.03-.43-.48-1.36-1.41-1.69-2.02-2.89-5.25-.56-17.85 1.03-23.5m-18.39 229.95c1.4.68 1.87 1.01 2.52 2.52 1.92 4.45.22 13.09-1.12 17.59-2.22-1.21-2.81-1.58-3.84-4.05-2.03-4.81.27-11.71 2.44-16.06m78.49-153.15c1.16.66 1.75 1.32 2.65 2.29 1.4 5.7 2.36 13.37 0 18.91-1.16-.61-2.28-.92-3-2.08-3.31-5.36-1.23-13.53.35-19.12m6.95 155.14c1.55 1.39 1.96 2.45 2.4 4.44 1.32 6 .89 11.66-2.41 16.88-2.05-1.86-2.72-4.95-3.07-7.61-.7-5.34-.21-9.4 3.08-13.71m-2.48 110.95c2.12.6 2.95 1.03 4.41 2.7 1.87 5.44 1.13 10.51-.41 15.96-.62-.27-1.26-.49-1.85-.8-1.61-.84-2.17-2.53-2.66-4.16-1.34-4.45-1.72-9.53.51-13.7m.63-42.03c2.61 2.13 2.81 4.86 3.1 8.03.45 5 .69 9.5-2.55 13.5-1.71-1.42-2.59-2.8-3.31-4.94-1.78-5.34.61-11.75 2.76-16.59m-37.81-422.743 1.06.963c3.03 8.45 3.45 24.57 1.06 33.12-.75-.06-1.63-.5-2.34-.76-3.74-7.79-1.04-24.752.22-33.323m-28.3-12.996c.4.363.87.659 1.2 1.089 4.05 5.348 2.73 34.378.65 40.66-1.41-.8-.98-.37-1.93-1.61-2.37-3.1-.81-34.431.08-40.139m-26.13 1.825 1.75 1.647c2.92 9.717 2.45 33.147.17 43.167l-2.05-2.09c-3.46-11.762-1.15-30.423.13-42.724"/></svg>