<svg xmlns="http://www.w3.org/2000/svg" display="block" viewBox="0 0 2048 2048"><path fill="#fefefe" d="M0 0h2048v2048H0z"/><path fill="#015b53" d="M1922.76 68.318c11.84 3.002 23.15 7.236 34.4 11.968a194 194 0 0 1-2.11 22.221c-7.73 53.596-32.83 95.729-77.79 126.692-14.84 10.22-31.37 17.895-45.77 28.802-24.84 18.817-36.78 49.372-44.97 78.492-13.03 46.311-16.81 97.737-3.69 144.432 6.03 21.461 16.61 43.582 27.69 62.961 14.28 24.972 55.54 74.662 51.13 102.5-5.44 34.318-32.96 24.321-46.17 34.781-3.52 2.781-4.57 7.04-4.5 11.348.32 18.541 21.34 62.266 27.65 82.679 5.03 16.24 9.27 34.754 7.48 51.807-1.3 12.356-6.94 24.397-16.92 32.074-45.56 35.056-123.09-45.845-168.83-51.63-8.58-1.085-17.42-.174-24.34 5.476-8.17 6.671-11.57 18.478-12.35 28.598-6.25 81.181 126.02 153.993 118.33 219.801-4.09 35.02-40.83 20.6-50.97 30.09-9.66 9.04 5.56 87.2 6.11 104.59.58 18.23-1.32 40.61-14.84 54.34-7.48 7.61-17.41 10.97-27.97 10.68-38.1-1.06-82.86-48.1-106.44-76-13.97-16.53-26.44-34.71-41.42-50.31-8.41-8.76-19.39-19.15-32.34-18.97-9.21.13-16.52 4.58-22.78 11.02-44.49 45.84 6.38 138.9 25.58 188.44 12.05 31.09 24.81 66.26 25.08 99.86.11 12.81-1.13 31.45-10.87 40.82-11.68 11.23-28.04 8.06-42.59 8.06-6.12 0-12.39.97-16.97 5.36-25.61 24.57-6.26 116.3-50.61 158.37-8.56 8.12-19.25 12.82-31.18 12.29-18.42-.82-32.34-14.62-42.77-28.47-21-27.87-34.24-61.31-45.91-93.93-9.92-27.73-25.31-87.31-44.53-107.29-5.49-5.7-12.49-10.27-20.65-10.28-8.38-.01-16.12 4.99-21.87 10.69-49.16 48.68-32.55 161.54-32.58 225.78-.01 20.56-2.26 45.11-18.03 60.22-15.15 14.52-29.68 10.02-48.08 9.64-3.41-.06-6.52 0-8.74 2.93-5.09 6.71-7.36 17.52-10.17 25.53-9.71 27.67-22.84 69.58-44.99 89.41-7.28 6.53-16.061 10.36-25.951 9.57-61.5-4.88-67.694-134.1-97.974-167.63-3.976-4.41-9.167-8.14-15.333-8.13-9.541.01-17.529 8.24-23.337 15-20.671 24.04-30.472 52.69-37.599 83.06-6.267 26.71-6.997 67.18-29.179 86.68-14.029 12.34-33.946 10.33-51.145 9.44-20.939 29.43-34.625 65.78-62.025 90.4-8.046 7.23-18.634 11.46-29.55 10.6-8.931-.7-17.055-5.56-23.415-11.64-35.555-33.99-25.939-106.12-45.655-127.91-2.603-2.88-6.095-4.79-10.013-4.92-22.604-.74-77.565 70.73-96.172 89.02-14.149 13.9-34.671 32.51-55.947 31.74-18.647-.68-29.755-17.31-41.009-29.84-34.524 8.5-66.604 38.95-102.421 51.81-15.621 5.61-34.382 8.98-49.885 1.13-10.863-5.5-16.426-15.41-20.202-26.47-13.111-49.38 27.482-130.2 21.799-145.92-3.12-8.63-19.526-11.68-27.066-15.7-10.046-5.36-19.245-14.07-22.434-25.29-10.395-36.59 35.631-81.91 56.546-108.09 9.726-12.18 18.977-25.25 26.79-38.73 6.502-11.22 18.079-34.88 14.009-48.02-1.553-5.01-5.937-7.41-10.847-8.14-10.033-1.48-21.338.97-31.233 2.55-31.294 4.99-80.828 17.54-109.216.36-10.193-6.17-16.525-15.69-19.034-27.28-7.638-35.26 28.541-76.14 51.875-99 14.771-14.46 34.432-29.33 45.44-46.91.232-.37.455-.75.682-1.12-9.49-14.96-17.828-28.9-15.054-47.47 6.264-41.93 76.808-58.21 110.059-72.06 24.108-10.04 50.56-22.6 71.229-38.67 8.52-6.62 20.188-17.37 21.144-28.69.924-10.95-9.146-19.71-17.776-24.56-8.766-4.94-18.881-7.57-28.479-10.38-26.994-7.91-55.487-12.4-81.862-21.96-14.376-5.21-29.321-12.61-39.108-24.75-6.638-8.24-10.071-18.19-8.598-28.78 6.785-48.84 95.201-73.875 130.129-102.491 3.225-2.641 6.7-5.868 7.584-10.111 1.623-7.799-8.633-27.758-6.977-40.963 2.533-20.196 16.754-31.789 35.416-37.052 27.08-7.637 57.546-3.302 85.344-2.254 45.08 1.7 145.932 4.952 181.97-24.711 7.555-6.218 12.736-14.989 13.557-24.839.909-10.895-3.819-20.891-11.578-28.352-27.036-25.998-109.992-45.3-147.66-61.786-22.458-9.83-44.337-22.229-59.999-41.517-7.821-9.631-12.112-20.892-10.456-33.443 6.437-48.8 85.721-68.571 126.18-75.078 14.644-2.355 51.38-2.912 61.479-11.439 10.004-8.446 3.096-36.267 4.748-48.88 1.472-11.247 5.515-22.946 15.004-29.879 27.916-20.397 74.79-.896 103.339 9.034 17.429 6.063 34.805 12.356 52.366 18.022a520 520 0 0 0 74.203 18.529c26.066 4.661 72.802 10.412 95.298-6.209 6.353-4.693 10.918-11.719 11.98-19.607 5.905-43.846-66.049-85.665-95.483-109.548-13.051-10.59-25.722-23.21-35.948-36.52-10.153-13.213-19.305-31.515-16.707-48.648 6.722-44.314 79.186-39.848 111.68-36.497 10.585 1.091 34.385 6.306 43.978 2.867 9.124-3.272 10.769-41.664 29.029-54.935 26.52-19.266 69.15 16.963 90.09 32.028 15.33 11.028 30.53 22.43 46.22 32.935 23.28 15.588 52.08 32.781 79.94 37.026 12.72 1.938 28.37 1.373 38.88-6.855 29.42-23.035-35.1-90.412-28.01-131.31 1.92-11.067 8.5-19.189 17.67-25.336 34.34-23 90.03 14.192 127.4 20.897 5.92-10.201 8.76-21.741 16.29-31.134 5.8-7.215 13.25-12.051 22.57-13 32.4-3.297 60.36 33 83.25 50.904 57.38 44.886 110.4 62.85 182.08 72.249 22.19 2.909 44.82 5.662 67.14 2.738a166.6 166.6 0 0 0 41.22-11.225c24.55-9.995 75.02-39.989 95.81-56.876a163 163 0 0 0 25.65-26.599c25.09-32.905 19.83-70.804 14.56-109.307"/><path fill="#fefefe" d="M1078.33 332.76c17.71 7.322 67.26 66.22 75.1 84.363l-.36-.117c-4.72-1.475-7.94-5.062-11.3-8.535-10.54-10.917-19.13-23.766-28.84-35.418-11.31-13.564-23.93-26.233-34.6-40.293m344.37-113.122c6.25 5.683 30.5 52.602 36.99 64.022-7.86-1.715-16.56-6.958-23.89-10.344-4.01-17.795-10.61-35.684-13.1-53.678m-378.68 765.418c3.44-.128 7.2-.527 10.43.889 4.23 1.858 7.68 5.602 9.31 9.914 1.58 4.171 1.45 8.571-.46 12.611-2.3 4.88-5.22 6.79-10.13 8.71-2.43.03-5.04.17-7.43-.34-4.74-1.02-9.45-4.73-11.82-8.9-2.17-3.82-2.62-8.26-1.17-12.407 1.94-5.535 6.27-8.04 11.27-10.477m29.6-362.989c2.45.117 5.22.402 7.53 1.263 4.04 1.511 7.44 5.149 8.91 9.17 1.83 4.968 1.28 10.287-1.08 14.975-2.79 5.541-6.56 7.058-12.26 8.778-2.95-.317-5.93-.878-8.59-2.228-4.05-2.05-6.97-5.427-8.32-9.781a17.18 17.18 0 0 1 1.54-13.596c2.9-5.143 6.78-7.054 12.27-8.581m340.54 274.038c3.27-.471 6.97-.693 10.11.517a17.47 17.47 0 0 1 9.59 9.18 16.95 16.95 0 0 1 .18 13.226c-2.26 5.419-5.8 7.91-11.13 9.947-1.32.035-2.61.07-3.92-.036-5.28-.425-10.07-2.123-13.49-6.354-2.85-3.535-3.64-7.789-2.88-12.205 1.23-7.204 5.85-10.437 11.54-14.275M381.15 913.824c5.687 5.421 8.648 20.247 19.453 29.032 23.769 19.323 63.567 26.471 92.408 35.914 6.703 2.194 16.657 4.809 22.169 9.031-.787.273-1.263.47-2.045.644-26.385 5.863-82.538-16.22-104.291-30.892-15.713-10.598-24.19-25.38-27.694-43.729m269.696-337.321c17.002-.937 34.656 2.32 51.15 6.174 63.417 14.816 113.085 49.437 162.435 90.393-7.673-.399-16.479-3.006-23.346-6.38-11.884-5.839-22.447-15.424-33.557-22.736a529 529 0 0 0-67.333-37.745c-17.746-8.251-36.07-15.701-54.94-20.976-10.774-3.012-22.297-4.678-32.858-8.2zm546.924-200.936c20.31 16.239 64.9 74.109 79.36 97.406-20.46-6.844-40.95-17.929-60.42-27.322-10.13-19.775-18.11-47.999-18.94-70.084M1028.2 1530.36c7.46 3.02 18.93 16.12 26 21.65 11.2 8.76 22.77 15.37 35.7 21.23-9.02 15.94-23.34 29.05-35.69 42.48a897 897 0 0 1-29.89 32.87c7.5-31.56 6.4-85.65 3.88-118.23M792.906 900.29a40.25 40.25 0 0 1 22.621 5.645c8.336 5.031 14.747 13.228 17.024 22.753 2.209 9.237.207 19.097-4.798 27.09-6.208 9.912-14.852 14.44-25.818 17.169-9.617.654-17.911.028-26.228-5.494-8.091-5.372-13.78-14.282-15.491-23.817a37.16 37.16 0 0 1 6.198-27.758c6.435-9.172 15.645-13.845 26.492-15.588"/><path fill="#015b53" d="M792.143 921.017c3.006-.235 5.966-.457 8.906.374 4.285 1.212 8.067 4.333 9.986 8.356 1.742 3.654 1.81 7.691.364 11.463-2.097 5.47-6.27 7.876-11.362 10.154-1.957.279-3.727.455-5.7.19-4.196-.565-8.425-2.667-10.842-6.228-2.552-3.758-2.862-8.249-1.792-12.579 1.442-5.837 5.601-8.705 10.44-11.73"/><path fill="#fefefe" d="M1267.3 193.902c12.98 4.558 43.28 24.398 57.23 32.462 39.14 22.621 79.55 45.712 121 63.775a752.6 752.6 0 0 0 123.43 42.157c11.57 2.867 23.34 6.141 34.95 8.685 9.64 2.11 20.84 2.724 29.99 6.245 1.16.447 1.9 1.009 2.89 1.75l-2.84 1.915-11.86 6.318c-79.3-13.931-159.01-38.867-228.88-79.344-23.78-13.777-45.96-29.521-68.65-44.954-18.84-12.819-39.72-24.562-57.26-39.009M1067.81 1227.18c8.43-.83 16.32-.21 23.97 3.72 8.85 4.56 15.1 12.56 17.84 22.09 2.86 9.93 2.1 21.4-3.3 30.35-5.65 9.35-14.69 14.17-25.04 16.6-8.01.53-15.14.01-22.45-3.58-8.97-4.4-15.55-12.44-18.65-21.88-3.09-9.35-2.58-19.37 2.01-28.15 5.55-10.6 14.54-15.88 25.62-19.15"/><path fill="#015b53" d="M1071.1 1247.98c2.71-.04 5.21-.01 7.82.84 4.19 1.36 7.58 4.8 9.32 8.8a15.15 15.15 0 0 1-.08 12.37c-2.1 4.7-5.64 6.46-10.24 8.21-2.83 0-6.02.09-8.76-.69-3.7-1.06-6.83-4.18-8.55-7.53-1.88-3.63-2.11-7.61-.7-11.46 2.08-5.68 5.9-8.14 11.19-10.54"/><path fill="#fefefe" d="M785.06 1510.19c8.249-.72 15.742.35 23.126 4.24 8.549 4.51 15.391 12.44 18.179 21.73 2.795 9.32 1.42 19.33-3.169 27.83-5.399 10.01-13.562 15.67-24.221 18.97-9.122 1.13-16.896.72-25.161-3.9a39 39 0 0 1-18.558-24.44 36.52 36.52 0 0 1 4.597-27.94c6.012-9.52 14.638-13.89 25.207-16.49"/><path fill="#015b53" d="M789.085 1530.14c2.48.28 4.875.6 7.204 1.56 4.213 1.72 7.967 5.35 9.557 9.64 1.404 3.79 1.137 8.14-.552 11.79-2.603 5.63-7.004 8.06-12.544 10.23-2.898-.27-5.305-.71-7.952-1.99a17.2 17.2 0 0 1-9.06-10.43 15.54 15.54 0 0 1 1.102-11.92c2.739-5.08 6.9-7.31 12.245-8.88"/><path fill="#fefefe" d="M538.346 1168.16c7.23-.49 13.733-.74 20.706 1.72a38.97 38.97 0 0 1 22.437 20.82c3.975 8.73 4.218 18.35.494 27.21-4.84 11.51-13.93 18.03-25.048 22.71-8.653 1.52-16.779 1.55-25.019-1.9a34.05 34.05 0 0 1-19.028-19.64c-3.619-9.83-2.867-21.35 1.707-30.75 4.986-10.24 13.306-16.36 23.751-20.17"/><path fill="#015b53" d="M541.031 1189.11c2.38-.19 4.828-.42 7.195 0 4.27.77 8.201 3.66 10.577 7.24a14.77 14.77 0 0 1 1.93 12.07c-1.578 5.61-5.304 8.26-10.203 10.9-1.909.36-3.88.57-5.826.44-3.893-.26-7.746-2.53-10.075-5.62-2.744-3.65-3.566-8.17-2.796-12.63 1.052-6.08 4.225-9.12 9.198-12.4"/><path fill="#fefefe" d="M1384.08 352.229c6.43-.227 12.2.554 18.17 3.046a39.9 39.9 0 0 1 21.81 21.894c3.3 8.379 3.23 17.271-.5 25.501-5.6 12.336-16.01 19.285-28.32 23.733-9.03 1.184-17.95-.182-25.88-4.795a37.25 37.25 0 0 1-17.72-24.127 37.36 37.36 0 0 1 5.02-27.875c6.45-10.063 15.99-15.11 27.42-17.377"/><path fill="#015b53" d="M1382.75 375.051c2.65-.402 5.61-.623 8.29-.278 4.38.566 8.84 3.084 11.24 6.841 1.85 2.884 2.37 6.412 1.65 9.738-1.26 5.768-4.91 9.106-9.56 12.347-2.73.676-5.47 1.341-8.3 1.029-3.87-.426-7.42-2.577-9.74-5.673-2.55-3.415-3.4-7.89-2.57-12.041 1.16-5.788 4.21-8.841 8.99-11.963"/><path fill="#fefefe" d="M1551.41 585.252c8.8-.963 16.21-.704 24.25 3.42 9.22 4.735 16.15 13.484 19.02 23.411a36.93 36.93 0 0 1-3.09 27.888c-5.45 9.902-14.15 15.601-24.7 18.878-8.36 1.037-16.09 1.076-24.01-2.285a35.3 35.3 0 0 1-19.2-19.957 38.4 38.4 0 0 1 1.46-30.34c5.52-11.381 14.77-17.033 26.27-21.015"/><path fill="#015b53" d="M1554.94 607.137c2.57-.12 5.09-.297 7.59.465 4.29 1.306 7.85 4.505 9.82 8.492 1.99 4.016 2.23 8.504.6 12.689-2.02 5.215-5 7.071-9.94 9.298-1.92.082-3.81.112-5.72-.16a16.07 16.07 0 0 1-11.08-6.906c-2.43-3.675-2.89-8.111-1.73-12.318 1.57-5.75 5.55-8.68 10.46-11.56"/><path fill="#fefefe" d="M840.021 1346.15c8.517-.63 16.035.39 23.684 4.44a38.27 38.27 0 0 1 19.276 23.88c2.717 10.16 1.543 21.78-3.806 30.91-5.879 10.03-14.897 14.88-25.714 17.9-8.416.47-15.986-.12-23.723-3.9a38.07 38.07 0 0 1-19.856-23.21 39.82 39.82 0 0 1 3.172-30.46c6.003-11 15.296-16.36 26.967-19.56"/><path fill="#015b53" d="M842.322 1367.04c2.458.01 5.025.01 7.386.77 4.871 1.56 9.127 5.04 11.215 9.76 1.881 4.25 1.804 9.05.012 13.32-2.369 5.64-6.854 7.89-12.229 10.13-1.809 0-3.563.02-5.338-.39-4.735-1.07-9.726-3.94-12.201-8.23-2.073-3.6-2.272-7.95-1.22-11.9 1.799-6.75 6.723-9.99 12.375-13.46"/><path fill="#fefefe" d="M369.648 1406.35c8.797.59 16.794 1.42 24.447 6.3 8.231 5.25 13.646 13.67 15.489 23.22 2.163 11.2-.377 23.86-7.055 33.16-7.147 9.95-17.439 14.58-29.206 16.53-8.15.44-16.797-2.61-23.412-7.27a39.48 39.48 0 0 1-16.351-26.16 40.87 40.87 0 0 1 8.585-31.36c7.195-8.96 16.406-12.98 27.503-14.42"/><path fill="#015b53" d="M369.368 1429.07c3.238.08 6.546.3 9.554 1.61 4.153 1.8 7.615 5.21 9.219 9.47a15.03 15.03 0 0 1-.612 12.07c-2.668 5.24-6.976 7.46-12.271 9.43-3.456-.09-6.801-.14-10.029-1.52-4.148-1.78-7.542-5.15-9.065-9.43a15.24 15.24 0 0 1 .657-11.64c2.752-5.69 6.861-7.83 12.547-9.99"/><path fill="#fefefe" d="m1644.26 381.86 1.4.752c2.31 12.826-.72 31.941-.19 45.736 1.7 44.155 8.99 89.859 23.18 131.79 22.02 65.032 56.35 126.259 91.38 185.06 10.31 17.313 50.05 72.85 53.74 86.641-3.23-2.298-5.47-6.968-7.65-10.309-16.38-24.954-35.21-48.334-52.15-72.939-55.93-81.261-101.66-168.655-119.92-266.446a379 379 0 0 1-6.17-47.153c-.83-12.926-.58-26.428-2.57-39.202-.06-.331-.11-.66-.17-.991a522 522 0 0 1 19.12-12.939m-783.041-60.189c20.707 1.247 54.125 13.936 74.854 20.386 65.417 20.357 127.427 44.394 189.877 72.726 69.91 31.714 138.18 67.995 210.37 94.289 20.31 7.396 41.22 13.01 61.99 18.928l-7.86 6.203-11.01 9.692c-37.7-11.3-80.54-33.706-116.22-50.786l-172.75-82.525c-39.8-18.672-79.91-37.587-121.172-52.778-22.471-8.273-45.139-16.441-67.936-23.772-13.313-4.281-27-7.605-40.143-12.363M675.836 1287.42c5.292-.58 10.878-.47 16.211-.67a1556 1556 0 0 0-22.226 29.31c-26.689-.1-53.467-.55-80.127.85-115.285 6.03-223.844 33.66-325.781 88.22-3.18 1.84-6.339 3.97-9.936 4.85l-.283-.43c16.834-12.23 47.015-26.79 66.236-36.12 96.09-46.59 199.205-72.61 305.271-82.82 16.826-1.62 33.766-2.09 50.635-3.19"/><path fill="#fefefe" d="M236.014 1324.89c27.683 11.01 56.982 27.4 84.776 39.7-59.718 24.32-113.9 66.59-162.129 108.62-13.7 12.07-27.472 23.58-38.871 37.94.045-.34.086-.67.134-1.01l.253-1.67c4.762-32.98 53.207-80.66 78.056-102.59 12.582-11.11 27.234-21.51 38.28-34.1 14.023-15.98.572-27.34-.445-45.75zm282.172-664.456c23.198-1.587 47.176-.671 70.442-.622a1386 1386 0 0 1 275.926 25.621c34.836 6.495 69.515 13.573 103.668 23.117a2397 2397 0 0 1 109.968 34.431c22.3 7.645 44.07 16.271 66.74 22.804l-17.49 18.267-9.46-4.081c-21.24-9.418-43.13-17.409-64.94-25.388-99.261-36.314-196.949-58.949-301.277-74.619-35.564-5.342-70.961-10.581-106.858-13.212a1312 1312 0 0 0-80.784-3.671c-14.604-.176-64.645 1.938-74.929-.904 7.581-2.568 20.639-1.385 28.994-1.743m882.054-84.337c-.22-4.312-.59-6.062 2.53-9.409 5.26-5.648 12.16-9.668 18.16-14.461 3.52 102.436 22.86 202.502 61.75 297.612 20.89 51.073 46.8 99.271 72.26 148.124 10.6 20.327 20.38 41.077 30.91 61.437 24.69 47.75 60.34 112.15 73.08 163.16-8.31-13.8-13.54-31.13-20.21-45.93a980 980 0 0 0-38.43-75.61c-36.03-65.39-76.95-128.431-110.18-195.313a863.8 863.8 0 0 1-65.93-184.096c-8.68-38.679-14.22-77.372-20.32-116.451.08-9.242-2.2-19.858-3.62-29.063M570.108 995.431c68.23-3.257 137.7 1.482 205.426 9.809 45.48 5.59 89.475 14.27 135.563 14.88l-24.002 28.4c-29.651-3.59-58.629-12.79-88.064-17.96a1193 1193 0 0 0-223.531-19.63c-76.614-.45-154.664 6.77-229.339 23.95a918 918 0 0 0-52.327 13.5c-14.937 4.39-30.753 10.01-46.052 12.67l-.615-.63c12.882-6.69 29.764-10.35 43.678-14.76a1098 1098 0 0 1 279.263-50.229m165.525 639.299c.363 1.88.366 1.22.251 2.97-.381 5.78-1.128 11.72-.76 17.51 1.634 25.68 16.096 56.06 35.62 72.84-3.805 19.9-9.981 39.77-12.215 59.93-8.218-1.39-16.582-1.69-24.639.74-28.872 8.71-39.304 46.46-49.581 71.33a416 416 0 0 1-16.52 35.38c-4.986 9.15-9.862 19.3-17.303 26.74 16.453-40.78 26.131-82.8 35.569-125.63 9.268-42.07 18.127-85.38 21.214-128.39 9.979-10.81 19.352-21.8 28.364-33.42m169.988-565.99c14.328 70.16 39.902 137.35 60.612 205.77 42.167 139.31 64.417 278.78 43.117 424.09-4.02 27.39-9.652 52.66-18.547 78.9-2.685 7.92-5.047 16.06-8.997 23.46l-.592-.74.94.1-.792-1.26 1.622-5.53c10.342-36.24 15.961-73.31 20.156-110.71a824.9 824.9 0 0 0-13.503-264.01c-11.988-54.76-29.63-108.51-48.024-161.4a9577 9577 0 0 0-32.526-90.35c-9.01-25.1-18.547-50.03-23.089-76.42a448 448 0 0 1 19.623-21.9m565.429-823.636c23.92-1.613 50.22 14.415 72.67 22.16 16.35 5.641 33.05 10.635 50.01 14.042 25.21 5.064 51.02 9.584 76.79 10.132 20.02.425 40.14-1.348 60.22-1.21-13.07 9.278-27.58 17-41.26 25.418-13.64 8.995-27.43 18.057-41.89 25.701-21.63-.917-53.5-11.11-74.63-17.717-17.88-5.587-88.65-27.601-99.14-36.869-8.61-7.617-16.91-22.635-22.25-32.858 6.25-4.255 12.2-6.948 19.48-8.799m-284.41 524.705c2.22 10.942.03 37.116.37 50.259.93 35.927 4.47 73.24 11.73 108.471 9.3 45.069 20.82 91.021 35.19 134.751 25.76 78.35 58.19 154.51 82.39 233.43 25.42 82.87 46.73 176.63 40.87 263.72-.84 12.42-1.1 27.8-6.99 38.89 1.39-5.65 2.07-11.37 2.82-17.14 1.53-30.24 2.17-59.48-.72-89.69-2.04-21.29-6.51-42.43-10.75-63.37-13.67-67.55-35.45-132.43-60.33-196.59-24.45-63.07-51.37-124.74-72.39-189.16a996 996 0 0 1-46.68-249.007c7.6-8.561 16.35-16.49 24.49-24.564M680.239 1329.67c.728.7.902.78 1.437 1.82 4.639 9 10.497 56.42 11.976 68.45a1190 1190 0 0 1-4.76 318.36c-3.02 20.55-7.346 40.88-11.02 61.32-8.832 49.12-18.073 98.27-39.086 143.87-4.318-8.75-8.284-17.65-11.175-26.97-7.951-31.19-8.766-63.06-14.598-94.49 11.674-14.81 23.484-29.58 34.461-44.92 11.849-16.55 22.898-35.28 37.481-49.5l-.002-.52c-.299-26.7 5.043-54.94 6.589-81.85 4.989-86.83.78-186.42-33.746-267.4 7.805-9.14 15.108-18.65 22.443-28.17m-217.364 261.46.515 1.29c-5.913 10.84-13.862 20.86-21.116 30.84a2569 2569 0 0 0-34.462 47.95 4679 4679 0 0 1-143.993 197.77c-14.096 18.45-27.763 37.15-42.258 55.3-1.034-5.06-1.507-10.03-1.9-15.17.259-48.53 24.002-91.18 41.13-135.23 3.703-9.52 8.363-23.22 3.629-32.98-2.966-6.12-7.693-8.67-13.832-10.9 47.606-42.71 103.957-77.77 159.265-109.45 17.54-10.05 35.51-19.31 53.022-29.42"/><path fill="#fefefe" d="m539.726 1484.09.252 1.97a3178 3178 0 0 0-40.085 55.05c-7.639 10.71-15.323 24.02-24.77 33.15-9.579 9.25-26.224 15.69-37.881 22.11a1894 1894 0 0 0-53.327 30.15c-38.031 22.57-75.537 46.29-110.075 74.01-10.989 8.82-21.187 18.59-31.776 27.87-10.74-.22-21.501-.3-32.076-2.35-.923-1.27-1.695-2.5-2.28-3.97-2.615-6.57.564-14.89 3.183-21.01 3.099-7.25 8.752-14.65 13.469-20.97 11.787-15.79 25.425-30.45 37.786-45.82 7.146-8.89 21.502-31.43 29.335-37.33 6.095-4.6 43.28-18.75 53.574-23.51 64.881-30 128.41-62.32 194.671-89.35m682.884-360.44c.28.31.59.6.83.93 5.15 6.9 15.73 40.93 19.72 51.65 20.71 55.54 61.1 142.33 56.08 201.37-.74 8.69-3.61 27.49-11.5 32.46-2.07 1.3-3.89 1.87-6.29 1.08-9.82-3.23-25-37.92-31.36-47.96-9.03-14.58-19.57-29.35-31.66-41.53-7.47-7.53-16.75-14.17-27.82-13.97-13.66.26-23.47 10.11-32.28 19.31-6.04-38.93-9.42-78.29-16.88-117.01 6.92-8.93 15.58-17.01 23.47-25.1 19.46-19.94 40.14-39.58 57.69-61.23m561.51-831.775 1.34 1.028c-8.17 16.206-17.19 33.016-23.9 49.862-11.18 28.098-17.58 66.532-18.47 96.711-.58 19.46 1.31 39.575 4.98 58.717 4.36 22.775 26.36 79.578 16.94 98.741-2 4.064-5.5 6.809-9.81 8.105-13.6 4.09-37.95-3.6-50.06-10.049-1.97-2.866-3.81-5.848-5.71-8.768-7.72-13.978-13.66-29.204-19.15-44.182-20.22-55.136-27.5-106.089-29.39-164.572 18.71-11.146 36.71-24.089 54.95-36.03a4372 4372 0 0 1 78.28-49.563m-733.53 150.638c14.05 1.712 28.23 2.299 42.16 4.92-.65 57.649-4.12 108.165-14.48 165.132-6.63.127-12.03.928-17.7 4.688-5.94 3.933-9.83 9.892-11.19 16.877a26.74 26.74 0 0 0 4.96 21.257c4.2 5.589 10.44 9.447 17.41 10.311 8.08 1.001 14.95-1.829 21.33-6.526 34.33 16.257 65.33 39.892 98.29 58.776-14.3 12.85-27.3 27.387-40.58 41.279-29.74-14.912-62.69-25.393-93.84-37.239-51.36-19.699-99.514-46.526-148.013-72.273-21.934-11.645-46.573-22.564-66.75-37.076 41.492-15.04 87.826-6.261 130.799-11.931 28.894-3.812 62.714-11.694 81.334-36.244 20.85-27.503 10.88-55.762 3.19-85.851-3.07-11.982-5.26-23.854-6.92-36.1m346.55-138.239c11.64-1.266 55.2 17.383 69.5 22.019 48.81 15.814 97.75 28.652 148.67 35.579-15.55 9.693-29.85 21.203-44.7 31.9-28.82 20.753-57.54 41.466-85.66 63.167-19.63-12.248-37.66-25.676-55.79-40.022 3.74-5.325 6.49-12.056 7.85-18.381 2.71-12.595-.5-24.982-7.84-35.446a50.72 50.72 0 0 0-33.92-21.06c-12.58-1.896-26 1.168-36.24 8.789-11.04 8.208-17.72 21.38-19.32 34.909-1.7 14.351 3.17 25.562 11.98 36.475 9.21 9.263 21.21 15.482 34.43 15.9 14.72.467 26.49-5.54 36.98-15.322 7.8 5.866 15.02 12.543 22.8 18.467 10.07 7.678 20.88 14.541 31.42 21.573-24.67 18.236-48.01 38.624-71.37 58.5l-65.82-24.025c-16.37-5.98-33.29-11.511-48.99-19.114-16.47-27.495-37.81-52.541-57.35-77.898 14.82 1.24 30.26 1.63 44.87-1.49 35.21-7.515 40.67-24.528 58.43-51.536 14.17-21.557 34.55-37.593 60.07-42.984m-224.17 646.474c4.37 4.439 9 35.523 10.75 43.566 8.97 41.116 22.52 81.576 36.44 121.266-12.56 15.29-27.71 29.48-41.41 43.79-23.1 24.13-45.75 48.64-70.91 70.64-8.54-7.32-17.58-12.8-29.04-13.73-14.09-1.15-26.47 4.33-37.15 13.08-.72.19-1.5.04-2.25.02a656 656 0 0 0-25.04-31.4c-8.24-9.65-18.673-19.56-24.347-30.98-4.423-8.91-6.631-19.44-9.346-28.99a6761 6761 0 0 0 192.303-187.262M965.625 1372.83c.304.49.65.95.912 1.46 4.936 9.61 7.491 31.4 9.862 42.48a837.7 837.7 0 0 1 8.211 297.22c-3.226 19.97-6.568 40.52-13.54 59.58-6.935-25.74-16.31-51.07-24.866-76.32-10.028-29.59-20.566-76.16-41.927-99.48-7.815-8.54-17.871-14.69-29.7-14.9-17.002-.3-30.978 10.04-42.527 21.33-29.463 29.6-47.987 76.18-58.905 116.16-22.763-24.96-32.707-54.54-31.573-88.11 8.63-14.45 19.513-28.29 28.982-42.26 1.917.71 3.868 1.31 5.831 1.89 12.223 3.58 26.055 3.04 37.223-3.46 10.858-6.32 18.671-17.43 21.704-29.54 3.802-15.18.525-28.95-7.461-42 24.495-27.12 50.676-52.29 76.045-78.55 20.847-21.58 40.587-44.19 61.729-65.5"/><path fill="#fefefe" d="M1052.17 404.583c10.24 5.73 21.62 10.239 32.26 15.229a2062 2062 0 0 1 55.6 27.036c59.74 30.094 118.66 63.282 181.01 87.8 15.9 6.251 32.53 10.896 48.79 16.151-16.08 15.598-34.05 29.686-50.66 44.789a6837 6837 0 0 0-101.19 95.19 2127 2127 0 0 0-21.56 21.754 2426 2426 0 0 0-55.66-35.885c-13.62-8.401-27.64-16.162-41.08-24.846 1.89-5.716 2.48-10.875 1.34-16.853-1.73-9.038-7.23-15.477-14.53-20.697 12.64-58.184 15.81-118.358 13.75-177.838-38.97 1.628-115.471-11.361-150.139-30.724a947 947 0 0 0 98.809 16.569c1.22-5.855 2.19-11.79 3.26-17.675"/><path fill="#015b53" d="M1184.46 516.186c9.59-.672 19.02 1.066 27.6 5.487a49.3 49.3 0 0 1 25.17 30.221c3.75 13.049 2.32 27-4.55 38.76-8.02 13.736-19.85 20.732-34.88 24.45-11.23 1.156-22.4-.491-32.31-6.163a49.7 49.7 0 0 1-23.41-31.632c-3.05-13.069-.82-27.423 6.63-38.648 8.46-12.755 21.03-19.71 35.75-22.475"/><path fill="#fefefe" d="M1181.38 528.244c7.83-.885 14.89-.662 22.34 2.213 9.9 3.819 18.16 11.64 22.14 21.512a38.25 38.25 0 0 1-.85 30.339c-5.12 10.774-14.26 16.776-25.25 20.45-7.91 1.671-15.06 1.939-22.78-.902-9.87-3.631-17.59-11.465-21.65-21.099-4.05-9.633-4.48-20.999-.22-30.636 5.18-11.726 14.75-17.61 26.27-21.877"/><path fill="#015b53" d="M1185.02 550.996c2.45-.185 4.88-.34 7.32.083 4.17.725 8.28 3.404 10.61 6.94a14 14 0 0 1 1.9 10.885c-1.37 5.953-5.07 8.881-10.05 11.949-2.39.12-4.91.277-7.28-.119-3.73-.622-7.64-3.085-9.86-6.125-2.35-3.227-2.98-7.088-2.26-10.98 1.09-5.951 4.97-9.229 9.62-12.633"/><path fill="#fefefe" d="M632.269 1324.56c10.325-.62 20.656-.63 30.996-.71-19.002 22.01-36.691 45.75-54.152 69-70.125 4.43-121.7 16.03-188.474 36.32-3.143-6.52-6.58-12.43-11.676-17.65-10.226-10.48-24.483-15.63-39.001-15.47-12.953.14-24.967 5.8-33.841 15.16a51.76 51.76 0 0 0-13.936 38.27c.653 13.04 5.864 25.45 15.765 34.13 10.022 8.79 23.989 13.53 37.295 12.48 13.374-1.05 25.451-7.79 33.939-18.08 9.729-11.79 13.478-25.3 11.941-40.42 54.883-18.64 124.887-35.92 183.086-37.89-12.76 14.68-23.755 31.26-35.28 46.93-5.247 7.14-10.427 14.96-16.8 21.14-7.217 7-86.612 38.69-103.844 47.26-50.84 24.93-101.807 50.77-153.621 73.57 5.717-9.15 11.205-18.52 15.448-28.46 5.259-12.31 10.265-28.7 4.656-41.64-3.426-7.91-10.281-12.37-18.017-15.5-31.038-12.55-67.84.33-98.763 7-16.567 3.57-35.658 8.26-52.606 7.84-7.965-.19-14.819-2.48-22.113-5.36 1.191-1.59 2.407-3.12 3.78-4.57 15.732-16.58 48.99-39.29 68.864-52.51 130.28-86.66 281.129-126.2 436.354-130.84m700.451-695.198c7.34-7.023 56.72-53.379 63.18-55.72l1.35 2.12 2.99.335c1.42 9.205 3.7 19.821 3.62 29.063-1.36.582-2.46.571-3.02 2.057-.94 2.489-.83 5.362-.95 7.995.21 14.596 2.41 29.528 4.09 44.031 13.11 113.655 56.7 227.382 110.56 327.81 9.96 18.567 40.23 70.467 36.08 89.167l-2.17 1.38c-33.47.87-64.1-42.05-87.06-62.08-7.11-6.19-15.82-11.12-25.56-10.08-8.86.94-15.54 6.66-20.74 13.52-12.74 16.81-18.58 39.93-23.26 60.15-14.96 64.68-4.09 125 14.45 187.52 5.81 19.6 14.99 42.93 17.27 63.03.37 3.25.73 5.82-1.32 8.48-4.03.83-7.39-.78-10.95-2.56-20.4-10.15-46.78-32.75-58.83-52.13-5.14-8.26-7.85-19.74-11.05-28.97l-20.06-58.12c-16.07-46.08-33.81-91.58-49.3-137.87 21.55-19.14 40.8-39.97 60.48-60.964l64.5-68.938c3.05 3.084 6.21 5.868 10.29 7.48a29.68 29.68 0 0 0 23.24-.833c6.33-3.015 11.26-8.253 13.32-15.013 2.18-7.158 1.06-15.915-2.63-22.4-5.42-9.513-14.51-9.387-23.96-11.664-5.08-6.425-9.3-23.333-12.23-31.496-14.51-40.446-28.51-81.637-41.26-122.675-10.61-34.139-20.11-68.587-31.07-102.625"/><path fill="#135555" d="m1397.25 575.762 2.99.335c1.42 9.205 3.7 19.821 3.62 29.063-1.36.582-2.46.571-3.02 2.057-.94 2.489-.83 5.362-.95 7.995-2.06-12.47-2.59-26.792-2.64-39.45"/><path fill="#fefefe" d="M1324.76 635.911c4.55 5.815 9.81 27.455 12.23 35.495a4631 4631 0 0 0 32.91 106.008c12.44 37.299 26.09 74.211 37.94 111.707-2.64 1.648-5.47 3.316-7.73 5.476-9.54 9.113-5.13 13.661-7.26 24.008-1.36 6.608-83.23 92.485-93.94 103.185-11.57 11.57-23.46 23.3-36.23 33.53 6.42 21.21 14.28 41.54 21.92 62.3 18.57 50.42 38.48 101.02 54.04 152.45 3.95 13.03 3.87 25.99 6 39.32 3.31 20.74 8.47 41.45 14.22 61.64 9.52 33.49 12.82 35.61 42.14 51.87a593 593 0 0 1 10.76 7.64c-14.44-4.42-32.3-8.09-43.16-19.2-3.58-3.68-5.74-7.68-7.69-12.38-6.68-16.17-10.86-33.85-15.78-50.62-8.97-30.6-17.95-61.36-28.58-91.43a7508 7508 0 0 0-42.76-114.79c-9.3-24.29-19.06-48.41-27.28-73.1a1207 1207 0 0 1-30.32-105.873c-14.84-64.275-24.58-132.894-24.02-198.962 10.03-11.139 21.34-21.468 32.03-31.997 33.08-32.576 67.55-63.674 100.56-96.277M881.681 1094.82c.867.94 20.604 68.49 22.099 75.58a723 723 0 0 1-30.709 32.66c-7.969 7.94-17.282 15.82-23.948 24.85-.532 35.96-4.164 71.89-5.387 107.83-5.557.8-10.733 1.69-15.933 3.97-12.78 5.61-22.964 15.68-27.799 28.9a47.64 47.64 0 0 0 2.104 37.05c5.872 12.08 15.774 20.11 28.32 24.45 12.846 4.45 26.236 4.35 38.488-1.94a47.67 47.67 0 0 0 23.892-28.45c3.939-12.95 1.779-26.69-4.695-38.43-7.968-14.44-19.302-20.64-34.526-24.98 1.023-16.48 3.322-101.93 7.706-109.18 6.936-11.47 33.142-35.53 43.995-48.21 21.429 60.9 40.021 122.32 59.413 183.85-10.799 9.94-20.204 21.58-30.076 32.45a1345 1345 0 0 1-33.658 35.11c-26.329 26.93-53.343 53.48-78.737 81.27-10.019-8.32-20.829-12.81-34.027-12.18-12.725.61-24.517 6.06-32.848 15.77a48.58 48.58 0 0 0-11.194 36.83c1.775 15.36 9.432 25.26 21.22 34.41-18.829 25.64-38.162 50.2-58.745 74.46 2.492-14.35 3.225-29.42 4.319-43.95 5.761-76.55.06-153.09-12.423-228.67-3.577-21.66-8.976-42.91-12.789-64.51 13.245-17.88 28.261-34.87 42.485-51.99 49.925-60.11 103.11-117.25 153.453-176.95m739.459-696.772c.42 11.642-.77 23.321-.51 34.992 1.14 50.316 6.54 96.385 23.46 143.971 10.31 29.006 26.91 59.789 33.29 89.52 3.66 17.076 3.22 39.809-7.07 54.736-13.9 20.162-42.84-3.011-62.19.575-10.74 1.989-19.02 9.7-25.02 18.431-11.65 16.976-17.71 37.511-20.23 57.771-5.88 47.178 8 88.671 23.56 132.273 5.05 14.172 10.77 28.191 13.44 43.054-.59 1.503-.05 1.803.54 3.239-1.06.996-.95 1.126-2.36 1.557-5.43 1.664-15.54-3.571-20.39-6.214a86.4 86.4 0 0 1-23.74-18.979c-13.49-15.383-22.85-33.838-32.23-51.87-25.98-49.956-45.56-98.853-61.53-152.873-17.84-55.782-32.68-143.93-31.83-202.524 10.7-7.321 20.56-16.933 30.63-25.181a5843 5843 0 0 1 58.87-46.9c6.46 34.669 12.51 69.375 21.1 103.596-6.54 3.562-12.05 7.608-16.81 13.391-8.74 10.609-13.51 24.438-11.79 38.2 1.66 13.355 9.32 26.153 20.09 34.184 10.44 7.777 23.46 9.621 36.1 7.583a49.32 49.32 0 0 0 33.44-21.627 47.14 47.14 0 0 0 6.97-35.956 51.1 51.1 0 0 0-22.45-32.66c-11.25-7.102-23.83-8.81-36.65-5.865-5.39-17.015-8.42-35.183-11.91-52.675-3.62-18.148-7.94-36.663-9.38-55.122 12.35-7.684 23.95-17.775 35.65-26.47a3360 3360 0 0 1 58.95-42.157m-463.25 400.909c1.36 2.032.87 39.188 1.2 45.204.71 12.75 2.72 25.445 4.05 38.145-13.48 10.655-25.51 24.626-37.63 36.812l-61.4 61.319c-2.65-1.957-5.81-3.787-9.01-4.68-6.44-1.801-14.07-.997-19.91 2.28-6.38 3.577-9.96 9.438-11.85 16.366-1.87 6.857-1.66 14.007 2.17 20.147 3.65 5.84 10.14 9.76 16.77 11.25a28.4 28.4 0 0 0 22.24-4.09c5.01-3.39 8.76-8.34 9.86-14.37 1.37-7.504-1.01-15.046-5.18-21.216 32.75-29.883 62.39-63.151 94.29-93.935 3.34 16.204 5.54 32.617 8.94 48.813-17.9 14.825-33.12 33.522-49.9 49.653L972.292 1135.55c2.839 11.72 5.673 24.02 11.019 34.87 6.889 13.99 19.359 25.84 29.359 37.71a952 952 0 0 1 22.73 28.46c-.59 1.13-1.15 2.25-1.67 3.41-6.1 13.52-8.42 28.33-2.79 42.55 4.34 10.96 13.1 19.36 23.93 23.84 12.51 5.17 27.58 5.17 40.03-.18a42.44 42.44 0 0 0 23.38-24.43c5.47-15.17 1.81-31.63-4.94-45.67 6.99-7.02 14.76-13.41 22.19-19.97l1.8 10.31c5.25 37.1 11.45 75.51 11.94 113.01-46.31 65.48-47.15 151-57.82 227.18-24.52-11.19-44-29.55-64.17-46.94-.63-18.67-3.5-37.82-5.92-56.34-10.42-79.63-33.826-156.84-58.832-232.92-18.34-55.8-37.732-111.02-49.908-168.59 19.31-20.81 36.058-44 55.285-64.898a8590 8590 0 0 1 189.985-197.995M653.832 1362.71c4.095 4.61 5.096 15.92 6.544 21.93 8.43 35 15.779 69.65 19.583 105.51 6.257 58.99 4.463 119.47.948 178.56-.621 10.44.291 25.63-3.738 35.33-4.621 11.12-15.91 22.05-23.314 31.85-14.325 18.97-27.902 38.35-42.856 56.86-2.5-8.31-6.37-16.63-12.073-23.21-6.75-7.79-16.1-13.06-26.501-13.59-16.395-.84-30.49 9.5-42.034 19.87 1.143-15.28.247-31.11.391-46.46.094-9.94 1.748-21.3.081-31.03l-1.842-1.3-2.171.55c-7.8 9.09-3.54 70.81-2.906 84.78-8.842 12.99-21.828 24.7-32.626 36.11-.222-19.43.678-38.97.838-58.41.144-17.45-2.514-51.8 1.8-67.09 5.171-18.32 44.485-77.79 57.294-93.99 3.702.65 7.918 1.42 11.659.82 5.283-.83 8.965-4.47 11.787-8.81 2.427-3.73 3.721-7.98 2.544-12.39-1.307-4.89-5.237-8.91-9.673-11.16-4.968-2.52-11.096-2.86-16.361-1.08-3.829 1.29-6.98 3.7-8.577 7.48-2.746 6.51-.819 14.26 1.773 20.45-13.897 20.27-55.75 80.18-59.841 100.78-2.926 14.72-1.044 32.34-.858 47.43.148 27.43-.335 55.07 1.199 82.45-16.955 21.46-33.487 46.25-61.291 53.48l-1.177-.39c-26.233-8.67-21.618-28.15-33.233-44.32-4.966-1.59-10.063 4.1-13.71 7.14-45.468 37.81-92.924 75.08-151.882 88.16 50.21-56.4 95.251-117.63 140.617-177.92a7364 7364 0 0 0 98.389-131.43c62.997-86.26 125.188-172.96 191.217-256.96"/><path fill="#015b53" d="m652.186 1621.61 2.366.27.966 1.48c-2.225 7.37-10.512 14.06-15.821 19.37 5.72 6.12 9.622 12.25 11.829 20.48a49.94 49.94 0 0 1-5.568 38.58c-6.754 11-17.471 19.27-30.116 22.19-14.786 3.42-28.169-.37-40.609-8.39-9.011-7.8-15.43-17.55-17.705-29.38-2.495-12.98.405-25.91 7.985-36.71 7.551-10.76 19.018-17.74 31.937-19.93 13.098-2.21 24.025 1.18 34.73 8.55 6.511-5.72 12.925-11.5 20.006-16.51"/><path fill="#fefefe" d="M600.944 1639.21c7.596-.6 15.33.62 22.174 4.08a35.75 35.75 0 0 1 17.821 20.91 38.07 38.07 0 0 1-2.666 30.28c-5.971 11.05-15.49 16.94-27.087 20.64-8.37.3-15.617-.12-23.328-3.94a37.6 37.6 0 0 1-18.907-21.94c-3.252-9.86-2.043-20.17 3.013-29.2 6.434-11.48 16.594-17.59 28.98-20.83"/><path fill="#015b53" d="M600.136 1660.97c2.913.04 5.721.09 8.489 1.11 4.767 1.75 8.753 5.31 10.695 10.05 1.452 3.54 1.545 7.43-.007 10.96-2.227 5.05-6.468 7.19-11.414 8.98-2.982.11-5.989.25-8.88-.63a15.85 15.85 0 0 1-9.685-8.28c-1.786-3.68-1.921-7.8-.446-11.62 2.11-5.45 6.109-8.25 11.248-10.57"/><path fill="#fefefe" d="M733.329 705.426c18.836-1.459 38.913.604 57.672 2.324 93.953 8.617 185.174 35.094 274.079 65.727 17.65 6.082 37.96 10.618 54.51 19.227a2706 2706 0 0 0-76.96 80.398c-37.68-12.111-74.874-26.868-111.963-40.712-11.689 8.006-22.012 19.197-32.49 28.733-19.597 17.836-39.259 35.498-59.872 52.166-3.988-5.352-8.025-10.308-13.439-14.307-10.932-8.076-25.125-10.636-38.398-8.293-12.575 2.221-23.179 9.319-30.126 20.011-7.096 10.92-9.538 23.683-6.766 36.414 2.727 12.53 9.652 23.837 20.815 30.482 11.426 6.8 25.379 8.375 38.177 5.044 12.363-3.218 22.91-10.356 29.272-21.587 6.814-12.033 7.602-26.302 4.188-39.466 31.536-24.216 60.42-52.691 90.103-79.164 18.127 7.008 36.798 13.078 55.128 19.569a788 788 0 0 0 49.751 16.934c-12.46 15.366-26.42 29.538-39.878 44.028-27.691 29.824-55.686 59.277-81.305 90.946-31.138-5.85-63.281-8.61-94.688-13.08-48.231-6.855-96.286-15.165-145.001-18.014a925 925 0 0 0-58.605-1.8c-14.806.113-29.904 1.311-44.681.401a88.2 88.2 0 0 1-19.681-3.673c-15.699-4.728-80.49-30.284-87.585-40.821-1.207-1.793-.996-1.91-.424-4.033 4.07-3.739 9.263-4.541 14.58-5.274 15.632-2.156 31.509-2.073 47.197-3.516 59.462-5.469 159.322-19.207 211.525-48.645 14.645-8.258 32.326-20.712 36.694-37.975 1.547-6.117.987-11.868-2.438-17.214-7.69-12.003-21.9-20.709-33.196-28.945-25.416-18.532-59.855-41.9-76.256-68.835 22.101-13.212 44.953-15.253 70.061-17.05M580.99 1025.43c61.697-1.69 125.202 1.67 186.29 10.48 37.937 5.48 78.456 14.65 115.846 18.47-14.291 14.48-27.354 29.78-40.476 45.3a1157 1157 0 0 0-101.234-4.89c-9.111 8.43-18.786 16.3-27.993 24.64-11.23 10.18-43.36 42.95-54.738 47.91-11.017 4.8-23.545 6.8-35.171 9.73-10.687 2.69-20.968 6.18-31.295 9.99-3.101-4.54-6.319-9.32-10.109-13.33-9.326-9.85-21.511-16.31-35.286-16.46-12.679-.14-25.113 5.47-33.912 14.5a48.3 48.3 0 0 0-13.961 36.1c.57 12.74 5.741 25.31 15.566 33.68 10.16 8.65 25.372 12.65 38.622 11.17a47.17 47.17 0 0 0 31.989-18.09c9.069-11.92 10.755-25.55 8.492-39.91 22.84-8 46.965-13.26 70.441-19.13 11.452-11.73 23.963-22.63 35.996-33.77 14.748-13.66 29.413-27.95 45.62-39.89 30.025.43 60.623 1.76 90.515 4.58-9.058 13.82-20.904 27.02-31.445 39.77a2919 2919 0 0 0-53.226 65.11c-16.202 22.39-34.586 43.78-51.742 65.48-17.725-.16-35.616 1.28-53.311 2.31-117.358 6.86-206.791 32.4-314.349 77.99-31.997-10.07-65.173-25.62-94.753-41.6 3.1-4.56 6.334-7.91 11.063-10.84 11.893-7.37 25.733-11.95 38.651-17.24 45.592-18.66 110.598-38.89 146.371-72.67 12.093-11.42 25.821-26.21 25.858-43.87.03-14.22-7.263-28.13-19.155-35.92-10.189-6.67-22.877-8.81-34.549-11.57-10.662-2.53-21.266-5.28-32-7.49-21.848-4.5-64.056-8.78-79.291-24.55-.263-.27-.519-.55-.779-.83 67.561-49.92 205.141-61.62 287.455-65.16"/></svg>