<svg preserveAspectRatio="xMidYMid meet" version="1.1" xmlns="http://www.w3.org/2000/svg" style="display: block;" viewBox="0 0 2048 2048" width="1024" height="1024">
<path transform="translate(0,0)" fill="rgb(254,254,254)" d="M 0 0 L 2048 0 L 2048 2048 L 0 2048 L 0 0 z"/>
<path transform="translate(0,0)" fill="rgb(1,91,83)" d="M 1922.76 68.3183 C 1934.6 71.3196 1945.91 75.5542 1957.16 80.2859 A 193.532 193.532 0 0 1 1955.05 102.507 C 1947.32 156.103 1922.22 198.236 1877.26 229.199 C 1862.42 239.419 1845.89 247.094 1831.49 258.001 C 1806.65 276.818 1794.71 307.373 1786.52 336.493 C 1773.49 382.804 1769.71 434.23 1782.83 480.925 C 1788.86 502.386 1799.44 524.507 1810.52 543.886 C 1824.8 568.858 1866.06 618.548 1861.65 646.386 C 1856.21 680.704 1828.69 670.707 1815.48 681.167 C 1811.96 683.948 1810.91 688.207 1810.98 692.515 C 1811.3 711.056 1832.32 754.781 1838.63 775.194 C 1843.66 791.434 1847.9 809.948 1846.11 827.001 C 1844.81 839.357 1839.17 851.398 1829.19 859.075 C 1783.63 894.131 1706.1 813.23 1660.36 807.445 C 1651.78 806.36 1642.94 807.271 1636.02 812.921 C 1627.85 819.592 1624.45 831.399 1623.67 841.519 C 1617.42 922.7 1749.69 995.512 1742 1061.32 C 1737.91 1096.34 1701.17 1081.92 1691.03 1091.41 C 1681.37 1100.45 1696.59 1178.61 1697.14 1196 C 1697.72 1214.23 1695.82 1236.61 1682.3 1250.34 C 1674.82 1257.95 1664.89 1261.31 1654.33 1261.02 C 1616.23 1259.96 1571.47 1212.92 1547.89 1185.02 C 1533.92 1168.49 1521.45 1150.31 1506.47 1134.71 C 1498.06 1125.95 1487.08 1115.56 1474.13 1115.74 C 1464.92 1115.87 1457.61 1120.32 1451.35 1126.76 C 1406.86 1172.6 1457.73 1265.66 1476.93 1315.2 C 1488.98 1346.29 1501.74 1381.46 1502.01 1415.06 C 1502.12 1427.87 1500.88 1446.51 1491.14 1455.88 C 1479.46 1467.11 1463.1 1463.94 1448.55 1463.94 C 1442.43 1463.94 1436.16 1464.91 1431.58 1469.3 C 1405.97 1493.87 1425.32 1585.6 1380.97 1627.67 C 1372.41 1635.79 1361.72 1640.49 1349.79 1639.96 C 1331.37 1639.14 1317.45 1625.34 1307.02 1611.49 C 1286.02 1583.62 1272.78 1550.18 1261.11 1517.56 C 1251.19 1489.83 1235.8 1430.25 1216.58 1410.27 C 1211.09 1404.57 1204.09 1400 1195.93 1399.99 C 1187.55 1399.98 1179.81 1404.98 1174.06 1410.68 C 1124.9 1459.36 1141.51 1572.22 1141.48 1636.46 C 1141.47 1657.02 1139.22 1681.57 1123.45 1696.68 C 1108.3 1711.2 1093.77 1706.7 1075.37 1706.32 C 1071.96 1706.26 1068.85 1706.32 1066.63 1709.25 C 1061.54 1715.96 1059.27 1726.77 1056.46 1734.78 C 1046.75 1762.45 1033.62 1804.36 1011.47 1824.19 C 1004.19 1830.72 995.409 1834.55 985.519 1833.76 C 924.019 1828.88 917.825 1699.66 887.545 1666.13 C 883.569 1661.72 878.378 1657.99 872.212 1658 C 862.671 1658.01 854.683 1666.24 848.875 1673 C 828.204 1697.04 818.403 1725.69 811.276 1756.06 C 805.009 1782.77 804.279 1823.24 782.097 1842.74 C 768.068 1855.08 748.151 1853.07 730.952 1852.18 C 710.013 1881.61 696.327 1917.96 668.927 1942.58 C 660.881 1949.81 650.293 1954.04 639.377 1953.18 C 630.446 1952.48 622.322 1947.62 615.962 1941.54 C 580.407 1907.55 590.023 1835.42 570.307 1813.63 C 567.704 1810.75 564.212 1808.84 560.294 1808.71 C 537.69 1807.97 482.729 1879.44 464.122 1897.73 C 449.973 1911.63 429.451 1930.24 408.175 1929.47 C 389.528 1928.79 378.42 1912.16 367.166 1899.63 C 332.642 1908.13 300.562 1938.58 264.745 1951.44 C 249.124 1957.05 230.363 1960.42 214.86 1952.57 C 203.997 1947.07 198.434 1937.16 194.658 1926.1 C 181.547 1876.72 222.14 1795.9 216.457 1780.18 C 213.337 1771.55 196.931 1768.5 189.391 1764.48 C 179.345 1759.12 170.146 1750.41 166.957 1739.19 C 156.562 1702.6 202.588 1657.28 223.503 1631.1 C 233.229 1618.92 242.48 1605.85 250.293 1592.37 C 256.795 1581.15 268.372 1557.49 264.302 1544.35 C 262.749 1539.34 258.365 1536.94 253.455 1536.21 C 243.422 1534.73 232.117 1537.18 222.222 1538.76 C 190.928 1543.75 141.394 1556.3 113.006 1539.12 C 102.813 1532.95 96.4807 1523.43 93.9717 1511.84 C 86.334 1476.58 122.513 1435.7 145.847 1412.84 C 160.618 1398.38 180.279 1383.51 191.287 1365.93 C 191.519 1365.56 191.742 1365.18 191.969 1364.81 C 182.479 1349.85 174.141 1335.91 176.915 1317.34 C 183.179 1275.41 253.723 1259.13 286.974 1245.28 C 311.082 1235.24 337.534 1222.68 358.203 1206.61 C 366.723 1199.99 378.391 1189.24 379.347 1177.92 C 380.271 1166.97 370.201 1158.21 361.571 1153.36 C 352.805 1148.42 342.69 1145.79 333.092 1142.98 C 306.098 1135.07 277.605 1130.58 251.23 1121.02 C 236.854 1115.81 221.909 1108.41 212.122 1096.27 C 205.484 1088.03 202.051 1078.08 203.524 1067.49 C 210.309 1018.65 298.725 993.615 333.653 964.999 C 336.878 962.358 340.353 959.131 341.237 954.888 C 342.86 947.089 332.604 927.13 334.26 913.925 C 336.793 893.729 351.014 882.136 369.676 876.873 C 396.756 869.236 427.222 873.571 455.02 874.619 C 500.1 876.319 600.952 879.571 636.99 849.908 C 644.545 843.69 649.726 834.919 650.547 825.069 C 651.456 814.174 646.728 804.178 638.969 796.717 C 611.933 770.719 528.977 751.417 491.309 734.931 C 468.851 725.101 446.972 712.702 431.31 693.414 C 423.489 683.783 419.198 672.522 420.854 659.971 C 427.291 611.171 506.575 591.4 547.034 584.893 C 561.678 582.538 598.414 581.981 608.513 573.454 C 618.517 565.008 611.609 537.187 613.261 524.574 C 614.733 513.327 618.776 501.628 628.265 494.695 C 656.181 474.298 703.055 493.799 731.604 503.729 C 749.033 509.792 766.409 516.085 783.97 521.751 A 519.961 519.961 0 0 0 858.173 540.28 C 884.239 544.941 930.975 550.692 953.471 534.071 C 959.824 529.378 964.389 522.352 965.451 514.464 C 971.356 470.618 899.402 428.799 869.968 404.916 C 856.917 394.326 844.246 381.706 834.02 368.396 C 823.867 355.183 814.715 336.881 817.313 319.748 C 824.035 275.434 896.499 279.9 928.993 283.251 C 939.578 284.342 963.378 289.557 972.971 286.118 C 982.095 282.846 983.74 244.454 1002 231.183 C 1028.52 211.917 1071.15 248.146 1092.09 263.211 C 1107.42 274.239 1122.62 285.641 1138.31 296.146 C 1161.59 311.734 1190.39 328.927 1218.25 333.172 C 1230.97 335.11 1246.62 334.545 1257.13 326.317 C 1286.55 303.282 1222.03 235.905 1229.12 195.007 C 1231.04 183.94 1237.62 175.818 1246.79 169.671 C 1281.13 146.671 1336.82 183.863 1374.19 190.568 C 1380.11 180.367 1382.95 168.827 1390.48 159.434 C 1396.28 152.219 1403.73 147.383 1413.05 146.434 C 1445.45 143.137 1473.41 179.434 1496.3 197.338 C 1553.68 242.224 1606.7 260.188 1678.38 269.587 C 1700.57 272.496 1723.2 275.249 1745.52 272.325 A 166.61 166.61 0 0 0 1786.74 261.1 C 1811.29 251.105 1861.76 221.111 1882.55 204.224 A 162.865 162.865 0 0 0 1908.2 177.625 C 1933.29 144.72 1928.03 106.821 1922.76 68.3183 z"/>
<path transform="translate(0,0)" fill="rgb(254,254,254)" d="M 1078.33 332.76 C 1096.04 340.082 1145.59 398.98 1153.43 417.123 L 1153.07 417.006 C 1148.35 415.531 1145.13 411.944 1141.77 408.471 C 1131.23 397.554 1122.64 384.705 1112.93 373.053 C 1101.62 359.489 1089 346.82 1078.33 332.76 z"/>
<path transform="translate(0,0)" fill="rgb(254,254,254)" d="M 1422.7 219.638 C 1428.95 225.321 1453.2 272.24 1459.69 283.66 C 1451.83 281.945 1443.13 276.702 1435.8 273.316 C 1431.79 255.521 1425.19 237.632 1422.7 219.638 z"/>
<path transform="translate(0,0)" fill="rgb(254,254,254)" d="M 1044.02 985.056 C 1047.46 984.928 1051.22 984.529 1054.45 985.945 C 1058.68 987.803 1062.13 991.547 1063.76 995.859 C 1065.34 1000.03 1065.21 1004.43 1063.3 1008.47 C 1061 1013.35 1058.08 1015.26 1053.17 1017.18 C 1050.74 1017.21 1048.13 1017.35 1045.74 1016.84 C 1041 1015.82 1036.29 1012.11 1033.92 1007.94 C 1031.75 1004.12 1031.3 999.68 1032.75 995.533 C 1034.69 989.998 1039.02 987.493 1044.02 985.056 z"/>
<path transform="translate(0,0)" fill="rgb(254,254,254)" d="M 1073.62 622.067 C 1076.07 622.184 1078.84 622.469 1081.15 623.33 C 1085.19 624.841 1088.59 628.479 1090.06 632.5 C 1091.89 637.468 1091.34 642.787 1088.98 647.475 C 1086.19 653.016 1082.42 654.533 1076.72 656.253 C 1073.77 655.936 1070.79 655.375 1068.13 654.025 C 1064.08 651.975 1061.16 648.598 1059.81 644.244 A 17.1746 17.1746 0 0 1 1061.35 630.648 C 1064.25 625.505 1068.13 623.594 1073.62 622.067 z"/>
<path transform="translate(0,0)" fill="rgb(254,254,254)" d="M 1414.16 896.105 C 1417.43 895.634 1421.13 895.412 1424.27 896.622 A 17.4655 17.4655 0 0 1 1433.86 905.802 A 16.9466 16.9466 0 0 1 1434.04 919.028 C 1431.78 924.447 1428.24 926.938 1422.91 928.975 C 1421.59 929.01 1420.3 929.045 1418.99 928.939 C 1413.71 928.514 1408.92 926.816 1405.5 922.585 C 1402.65 919.05 1401.86 914.796 1402.62 910.38 C 1403.85 903.176 1408.47 899.943 1414.16 896.105 z"/>
<path transform="translate(0,0)" fill="rgb(254,254,254)" d="M 381.15 913.824 C 386.837 919.245 389.798 934.071 400.603 942.856 C 424.372 962.179 464.17 969.327 493.011 978.77 C 499.714 980.964 509.668 983.579 515.18 987.801 C 514.393 988.074 513.917 988.271 513.135 988.445 C 486.75 994.308 430.597 972.225 408.844 957.553 C 393.131 946.955 384.654 932.173 381.15 913.824 z"/>
<path transform="translate(0,0)" fill="rgb(254,254,254)" d="M 650.846 576.503 C 667.848 575.566 685.502 578.823 701.996 582.677 C 765.413 597.493 815.081 632.114 864.431 673.07 C 856.758 672.671 847.952 670.064 841.085 666.69 C 829.201 660.851 818.638 651.266 807.528 643.954 A 528.936 528.936 0 0 0 740.195 606.209 C 722.449 597.958 704.125 590.508 685.255 585.233 C 674.481 582.221 662.958 580.555 652.397 577.033 L 650.846 576.503 z"/>
<path transform="translate(0,0)" fill="rgb(254,254,254)" d="M 1197.77 375.567 C 1218.08 391.806 1262.67 449.676 1277.13 472.973 C 1256.67 466.129 1236.18 455.044 1216.71 445.651 C 1206.58 425.876 1198.6 397.652 1197.77 375.567 z"/>
<path transform="translate(0,0)" fill="rgb(254,254,254)" d="M 1028.2 1530.36 C 1035.66 1533.38 1047.13 1546.48 1054.2 1552.01 C 1065.4 1560.77 1076.97 1567.38 1089.9 1573.24 C 1080.88 1589.18 1066.56 1602.29 1054.21 1615.72 A 896.516 896.516 0 0 1 1024.32 1648.59 C 1031.82 1617.03 1030.72 1562.94 1028.2 1530.36 z"/>
<path transform="translate(0,0)" fill="rgb(254,254,254)" d="M 792.906 900.29 A 40.2502 40.2502 0 0 1 815.527 905.935 C 823.863 910.966 830.274 919.163 832.551 928.688 C 834.76 937.925 832.758 947.785 827.753 955.778 C 821.545 965.69 812.901 970.218 801.935 972.947 C 792.318 973.601 784.024 972.975 775.707 967.453 C 767.616 962.081 761.927 953.171 760.216 943.636 A 37.1634 37.1634 0 0 1 766.414 915.878 C 772.849 906.706 782.059 902.033 792.906 900.29 z"/>
<path transform="translate(0,0)" fill="rgb(1,91,83)" d="M 792.143 921.017 C 795.149 920.782 798.109 920.56 801.049 921.391 C 805.334 922.603 809.116 925.724 811.035 929.747 C 812.777 933.401 812.845 937.438 811.399 941.21 C 809.302 946.68 805.129 949.086 800.037 951.364 C 798.08 951.643 796.31 951.819 794.337 951.554 C 790.141 950.989 785.912 948.887 783.495 945.326 C 780.943 941.568 780.633 937.077 781.703 932.747 C 783.145 926.91 787.304 924.042 792.143 921.017 z"/>
<path transform="translate(0,0)" fill="rgb(254,254,254)" d="M 1267.3 193.902 C 1280.28 198.46 1310.58 218.3 1324.53 226.364 C 1363.67 248.985 1404.08 272.076 1445.53 290.139 A 752.632 752.632 0 0 0 1568.96 332.296 C 1580.53 335.163 1592.3 338.437 1603.91 340.981 C 1613.55 343.091 1624.75 343.705 1633.9 347.226 C 1635.06 347.673 1635.8 348.235 1636.79 348.976 L 1633.95 350.891 L 1622.09 357.209 C 1542.79 343.278 1463.08 318.342 1393.21 277.865 C 1369.43 264.088 1347.25 248.344 1324.56 232.911 C 1305.72 220.092 1284.84 208.349 1267.3 193.902 z"/>
<path transform="translate(0,0)" fill="rgb(254,254,254)" d="M 1067.81 1227.18 C 1076.24 1226.35 1084.13 1226.97 1091.78 1230.9 C 1100.63 1235.46 1106.88 1243.46 1109.62 1252.99 C 1112.48 1262.92 1111.72 1274.39 1106.32 1283.34 C 1100.67 1292.69 1091.63 1297.51 1081.28 1299.94 C 1073.27 1300.47 1066.14 1299.95 1058.83 1296.36 C 1049.86 1291.96 1043.28 1283.92 1040.18 1274.48 C 1037.09 1265.13 1037.6 1255.11 1042.19 1246.33 C 1047.74 1235.73 1056.73 1230.45 1067.81 1227.18 z"/>
<path transform="translate(0,0)" fill="rgb(1,91,83)" d="M 1071.1 1247.98 C 1073.81 1247.94 1076.31 1247.97 1078.92 1248.82 C 1083.11 1250.18 1086.5 1253.62 1088.24 1257.62 A 15.1495 15.1495 0 0 1 1088.16 1269.99 C 1086.06 1274.69 1082.52 1276.45 1077.92 1278.2 C 1075.09 1278.2 1071.9 1278.29 1069.16 1277.51 C 1065.46 1276.45 1062.33 1273.33 1060.61 1269.98 C 1058.73 1266.35 1058.5 1262.37 1059.91 1258.52 C 1061.99 1252.84 1065.81 1250.38 1071.1 1247.98 z"/>
<path transform="translate(0,0)" fill="rgb(254,254,254)" d="M 785.06 1510.19 C 793.309 1509.47 800.802 1510.54 808.186 1514.43 C 816.735 1518.94 823.577 1526.87 826.365 1536.16 C 829.16 1545.48 827.785 1555.49 823.196 1563.99 C 817.797 1574 809.634 1579.66 798.975 1582.96 C 789.853 1584.09 782.079 1583.68 773.814 1579.06 A 38.9958 38.9958 0 0 1 755.256 1554.62 A 36.5209 36.5209 0 0 1 759.853 1526.68 C 765.865 1517.16 774.491 1512.79 785.06 1510.19 z"/>
<path transform="translate(0,0)" fill="rgb(1,91,83)" d="M 789.085 1530.14 C 791.565 1530.42 793.96 1530.74 796.289 1531.7 C 800.502 1533.42 804.256 1537.05 805.846 1541.34 C 807.25 1545.13 806.983 1549.48 805.294 1553.13 C 802.691 1558.76 798.29 1561.19 792.75 1563.36 C 789.852 1563.09 787.445 1562.65 784.798 1561.37 A 17.1877 17.1877 0 0 1 775.738 1550.94 A 15.5396 15.5396 0 0 1 776.84 1539.02 C 779.579 1533.94 783.74 1531.71 789.085 1530.14 z"/>
<path transform="translate(0,0)" fill="rgb(254,254,254)" d="M 538.346 1168.16 C 545.576 1167.67 552.079 1167.42 559.052 1169.88 A 38.967 38.967 0 0 1 581.489 1190.7 C 585.464 1199.43 585.707 1209.05 581.983 1217.91 C 577.143 1229.42 568.053 1235.94 556.935 1240.62 C 548.282 1242.14 540.156 1242.17 531.916 1238.72 A 34.0539 34.0539 0 0 1 512.888 1219.08 C 509.269 1209.25 510.021 1197.73 514.595 1188.33 C 519.581 1178.09 527.901 1171.97 538.346 1168.16 z"/>
<path transform="translate(0,0)" fill="rgb(1,91,83)" d="M 541.031 1189.11 C 543.411 1188.92 545.859 1188.69 548.226 1189.11 C 552.496 1189.88 556.427 1192.77 558.803 1196.35 A 14.7719 14.7719 0 0 1 560.733 1208.42 C 559.155 1214.03 555.429 1216.68 550.53 1219.32 C 548.621 1219.68 546.65 1219.89 544.704 1219.76 C 540.811 1219.5 536.958 1217.23 534.629 1214.14 C 531.885 1210.49 531.063 1205.97 531.833 1201.51 C 532.885 1195.43 536.058 1192.39 541.031 1189.11 z"/>
<path transform="translate(0,0)" fill="rgb(254,254,254)" d="M 1384.08 352.229 C 1390.51 352.002 1396.28 352.783 1402.25 355.275 A 39.9014 39.9014 0 0 1 1424.06 377.169 C 1427.36 385.548 1427.29 394.44 1423.56 402.67 C 1417.96 415.006 1407.55 421.955 1395.24 426.403 C 1386.21 427.587 1377.29 426.221 1369.36 421.608 A 37.2482 37.2482 0 0 1 1351.64 397.481 A 37.3642 37.3642 0 0 1 1356.66 369.606 C 1363.11 359.543 1372.65 354.496 1384.08 352.229 z"/>
<path transform="translate(0,0)" fill="rgb(1,91,83)" d="M 1382.75 375.051 C 1385.4 374.649 1388.36 374.428 1391.04 374.773 C 1395.42 375.339 1399.88 377.857 1402.28 381.614 C 1404.13 384.498 1404.65 388.026 1403.93 391.352 C 1402.67 397.12 1399.02 400.458 1394.37 403.699 C 1391.64 404.375 1388.9 405.04 1386.07 404.728 C 1382.2 404.302 1378.65 402.151 1376.33 399.055 C 1373.78 395.64 1372.93 391.165 1373.76 387.014 C 1374.92 381.226 1377.97 378.173 1382.75 375.051 z"/>
<path transform="translate(0,0)" fill="rgb(254,254,254)" d="M 1551.41 585.252 C 1560.21 584.289 1567.62 584.548 1575.66 588.672 C 1584.88 593.407 1591.81 602.156 1594.68 612.083 A 36.9293 36.9293 0 0 1 1591.59 639.971 C 1586.14 649.873 1577.44 655.572 1566.89 658.849 C 1558.53 659.886 1550.8 659.925 1542.88 656.564 A 35.2928 35.2928 0 0 1 1523.68 636.607 A 38.4072 38.4072 0 0 1 1525.14 606.267 C 1530.66 594.886 1539.91 589.234 1551.41 585.252 z"/>
<path transform="translate(0,0)" fill="rgb(1,91,83)" d="M 1554.94 607.137 C 1557.51 607.017 1560.03 606.84 1562.53 607.602 C 1566.82 608.908 1570.38 612.107 1572.35 616.094 C 1574.34 620.11 1574.58 624.598 1572.95 628.783 C 1570.93 633.998 1567.95 635.854 1563.01 638.081 C 1561.09 638.163 1559.2 638.193 1557.29 637.921 A 16.0716 16.0716 0 0 1 1546.21 631.015 C 1543.78 627.34 1543.32 622.904 1544.48 618.697 C 1546.05 612.947 1550.03 610.017 1554.94 607.137 z"/>
<path transform="translate(0,0)" fill="rgb(254,254,254)" d="M 840.021 1346.15 C 848.538 1345.52 856.056 1346.54 863.705 1350.59 A 38.2694 38.2694 0 0 1 882.981 1374.47 C 885.698 1384.63 884.524 1396.25 879.175 1405.38 C 873.296 1415.41 864.278 1420.26 853.461 1423.28 C 845.045 1423.75 837.475 1423.16 829.738 1419.38 A 38.0742 38.0742 0 0 1 809.882 1396.17 A 39.8158 39.8158 0 0 1 813.054 1365.71 C 819.057 1354.71 828.35 1349.35 840.021 1346.15 z"/>
<path transform="translate(0,0)" fill="rgb(1,91,83)" d="M 842.322 1367.04 C 844.78 1367.05 847.347 1367.05 849.708 1367.81 C 854.579 1369.37 858.835 1372.85 860.923 1377.57 C 862.804 1381.82 862.727 1386.62 860.935 1390.89 C 858.566 1396.53 854.081 1398.78 848.706 1401.02 C 846.897 1401.02 845.143 1401.04 843.368 1400.63 C 838.633 1399.56 833.642 1396.69 831.167 1392.4 C 829.094 1388.8 828.895 1384.45 829.947 1380.5 C 831.746 1373.75 836.67 1370.51 842.322 1367.04 z"/>
<path transform="translate(0,0)" fill="rgb(254,254,254)" d="M 369.648 1406.35 C 378.445 1406.94 386.442 1407.77 394.095 1412.65 C 402.326 1417.9 407.741 1426.32 409.584 1435.87 C 411.747 1447.07 409.207 1459.73 402.529 1469.03 C 395.382 1478.98 385.09 1483.61 373.323 1485.56 C 365.173 1486 356.526 1482.95 349.911 1478.29 A 39.4784 39.4784 0 0 1 333.56 1452.13 A 40.874 40.874 0 0 1 342.145 1420.77 C 349.34 1411.81 358.551 1407.79 369.648 1406.35 z"/>
<path transform="translate(0,0)" fill="rgb(1,91,83)" d="M 369.368 1429.07 C 372.606 1429.15 375.914 1429.37 378.922 1430.68 C 383.075 1432.48 386.537 1435.89 388.141 1440.15 A 15.0268 15.0268 0 0 1 387.529 1452.22 C 384.861 1457.46 380.553 1459.68 375.258 1461.65 C 371.802 1461.56 368.457 1461.51 365.229 1460.13 C 361.081 1458.35 357.687 1454.98 356.164 1450.7 A 15.2376 15.2376 0 0 1 356.821 1439.06 C 359.573 1433.37 363.682 1431.23 369.368 1429.07 z"/>
<path transform="translate(0,0)" fill="rgb(254,254,254)" d="M 1644.26 381.86 L 1645.66 382.612 C 1647.97 395.438 1644.94 414.553 1645.47 428.348 C 1647.17 472.503 1654.46 518.207 1668.65 560.138 C 1690.67 625.17 1725 686.397 1760.03 745.198 C 1770.34 762.511 1810.08 818.048 1813.77 831.839 C 1810.54 829.541 1808.3 824.871 1806.12 821.53 C 1789.74 796.576 1770.91 773.196 1753.97 748.591 C 1698.04 667.33 1652.31 579.936 1634.05 482.145 A 378.733 378.733 0 0 1 1627.88 434.992 C 1627.05 422.066 1627.3 408.564 1625.31 395.79 C 1625.25 395.459 1625.2 395.13 1625.14 394.799 A 521.489 521.489 0 0 1 1644.26 381.86 z"/>
<path transform="translate(0,0)" fill="rgb(254,254,254)" d="M 861.219 321.671 C 881.926 322.918 915.344 335.607 936.073 342.057 C 1001.49 362.414 1063.5 386.451 1125.95 414.783 C 1195.86 446.497 1264.13 482.778 1336.32 509.072 C 1356.63 516.468 1377.54 522.082 1398.31 528 L 1390.45 534.203 L 1379.44 543.895 C 1341.74 532.595 1298.9 510.189 1263.22 493.109 L 1090.47 410.584 C 1050.67 391.912 1010.56 372.997 969.298 357.806 C 946.827 349.533 924.159 341.365 901.362 334.034 C 888.049 329.753 874.362 326.429 861.219 321.671 z"/>
<path transform="translate(0,0)" fill="rgb(254,254,254)" d="M 675.836 1287.42 C 681.128 1286.84 686.714 1286.95 692.047 1286.75 A 1556.26 1556.26 0 0 0 669.821 1316.06 C 643.132 1315.96 616.354 1315.51 589.694 1316.91 C 474.409 1322.94 365.85 1350.57 263.913 1405.13 C 260.733 1406.97 257.574 1409.1 253.977 1409.98 L 253.694 1409.55 C 270.528 1397.32 300.709 1382.76 319.93 1373.43 C 416.02 1326.84 519.135 1300.82 625.201 1290.61 C 642.027 1288.99 658.967 1288.52 675.836 1287.42 z"/>
<path transform="translate(0,0)" fill="rgb(254,254,254)" d="M 236.014 1324.89 C 263.697 1335.9 292.996 1352.29 320.79 1364.59 C 261.072 1388.91 206.89 1431.18 158.661 1473.21 C 144.961 1485.28 131.189 1496.79 119.79 1511.15 C 119.835 1510.81 119.876 1510.48 119.924 1510.14 L 120.177 1508.47 C 124.939 1475.49 173.384 1427.81 198.233 1405.88 C 210.815 1394.77 225.467 1384.37 236.513 1371.78 C 250.536 1355.8 237.085 1344.44 236.068 1326.03 L 236.014 1324.89 z"/>
<path transform="translate(0,0)" fill="rgb(254,254,254)" d="M 518.186 660.434 C 541.384 658.847 565.362 659.763 588.628 659.812 A 1386.07 1386.07 0 0 1 864.554 685.433 C 899.39 691.928 934.069 699.006 968.222 708.55 A 2397.38 2397.38 0 0 1 1078.19 742.981 C 1100.49 750.626 1122.26 759.252 1144.93 765.785 L 1127.44 784.052 L 1117.98 779.971 C 1096.74 770.553 1074.85 762.562 1053.04 754.583 C 953.779 718.269 856.091 695.634 751.763 679.964 C 716.199 674.622 680.802 669.383 644.905 666.752 A 1312.26 1312.26 0 0 0 564.121 663.081 C 549.517 662.905 499.476 665.019 489.192 662.177 C 496.773 659.609 509.831 660.792 518.186 660.434 z"/>
<path transform="translate(0,0)" fill="rgb(254,254,254)" d="M 1400.24 576.097 C 1400.02 571.785 1399.65 570.035 1402.77 566.688 C 1408.03 561.04 1414.93 557.02 1420.93 552.227 C 1424.45 654.663 1443.79 754.729 1482.68 849.839 C 1503.57 900.912 1529.48 949.11 1554.94 997.963 C 1565.54 1018.29 1575.32 1039.04 1585.85 1059.4 C 1610.54 1107.15 1646.19 1171.55 1658.93 1222.56 C 1650.62 1208.76 1645.39 1191.43 1638.72 1176.63 A 980.043 980.043 0 0 0 1600.29 1101.02 C 1564.26 1035.63 1523.34 972.589 1490.11 905.707 A 863.8 863.8 0 0 1 1424.18 721.611 C 1415.5 682.932 1409.96 644.239 1403.86 605.16 C 1403.94 595.918 1401.66 585.302 1400.24 576.097 z"/>
<path transform="translate(0,0)" fill="rgb(254,254,254)" d="M 570.108 995.431 C 638.338 992.174 707.808 996.913 775.534 1005.24 C 821.014 1010.83 865.009 1019.51 911.097 1020.12 L 887.095 1048.52 C 857.444 1044.93 828.466 1035.73 799.031 1030.56 A 1192.95 1192.95 0 0 0 575.5 1010.93 C 498.886 1010.48 420.836 1017.7 346.161 1034.88 A 918.42 918.42 0 0 0 293.834 1048.38 C 278.897 1052.77 263.081 1058.39 247.782 1061.05 L 247.167 1060.42 C 260.049 1053.73 276.931 1050.07 290.845 1045.66 A 1097.88 1097.88 0 0 1 570.108 995.431 z"/>
<path transform="translate(0,0)" fill="rgb(254,254,254)" d="M 735.633 1634.73 C 735.996 1636.61 735.999 1635.95 735.884 1637.7 C 735.503 1643.48 734.756 1649.42 735.124 1655.21 C 736.758 1680.89 751.22 1711.27 770.744 1728.05 C 766.939 1747.95 760.763 1767.82 758.529 1787.98 C 750.311 1786.59 741.947 1786.29 733.89 1788.72 C 705.018 1797.43 694.586 1835.18 684.309 1860.05 A 415.82 415.82 0 0 1 667.789 1895.43 C 662.803 1904.58 657.927 1914.73 650.486 1922.17 C 666.939 1881.39 676.617 1839.37 686.055 1796.54 C 695.323 1754.47 704.182 1711.16 707.269 1668.15 C 717.248 1657.34 726.621 1646.35 735.633 1634.73 z"/>
<path transform="translate(0,0)" fill="rgb(254,254,254)" d="M 905.621 1068.74 C 919.949 1138.9 945.523 1206.09 966.233 1274.51 C 1008.4 1413.82 1030.65 1553.29 1009.35 1698.6 C 1005.33 1725.99 999.698 1751.26 990.803 1777.5 C 988.118 1785.42 985.756 1793.56 981.806 1800.96 L 981.214 1800.22 L 982.154 1800.32 L 981.362 1799.06 L 982.984 1793.53 C 993.326 1757.29 998.945 1720.22 1003.14 1682.82 A 824.876 824.876 0 0 0 989.637 1418.81 C 977.649 1364.05 960.007 1310.3 941.613 1257.41 A 9576.77 9576.77 0 0 0 909.087 1167.06 C 900.077 1141.96 890.54 1117.03 885.998 1090.64 A 447.963 447.963 0 0 1 905.621 1068.74 z"/>
<path transform="translate(0,0)" fill="rgb(254,254,254)" d="M 1471.05 245.104 C 1494.97 243.491 1521.27 259.519 1543.72 267.264 C 1560.07 272.905 1576.77 277.899 1593.73 281.306 C 1618.94 286.37 1644.75 290.89 1670.52 291.438 C 1690.54 291.863 1710.66 290.09 1730.74 290.228 C 1717.67 299.506 1703.16 307.228 1689.48 315.646 C 1675.84 324.641 1662.05 333.703 1647.59 341.347 C 1625.96 340.43 1594.09 330.237 1572.96 323.63 C 1555.08 318.043 1484.31 296.029 1473.82 286.761 C 1465.21 279.144 1456.91 264.126 1451.57 253.903 C 1457.82 249.648 1463.77 246.955 1471.05 245.104 z"/>
<path transform="translate(0,0)" fill="rgb(254,254,254)" d="M 1186.64 769.809 C 1188.86 780.751 1186.67 806.925 1187.01 820.068 C 1187.94 855.995 1191.48 893.308 1198.74 928.539 C 1208.04 973.608 1219.56 1019.56 1233.93 1063.29 C 1259.69 1141.64 1292.12 1217.8 1316.32 1296.72 C 1341.74 1379.59 1363.05 1473.35 1357.19 1560.44 C 1356.35 1572.86 1356.09 1588.24 1350.2 1599.33 C 1351.59 1593.68 1352.27 1587.96 1353.02 1582.19 C 1354.55 1551.95 1355.19 1522.71 1352.3 1492.5 C 1350.26 1471.21 1345.79 1450.07 1341.55 1429.13 C 1327.88 1361.58 1306.1 1296.7 1281.22 1232.54 C 1256.77 1169.47 1229.85 1107.8 1208.83 1043.38 A 996.136 996.136 0 0 1 1162.15 794.373 C 1169.75 785.812 1178.5 777.883 1186.64 769.809 z"/>
<path transform="translate(0,0)" fill="rgb(254,254,254)" d="M 680.239 1329.67 C 680.967 1330.37 681.141 1330.45 681.676 1331.49 C 686.315 1340.49 692.173 1387.91 693.652 1399.94 A 1190.06 1190.06 0 0 1 688.892 1718.3 C 685.872 1738.85 681.546 1759.18 677.872 1779.62 C 669.04 1828.74 659.799 1877.89 638.786 1923.49 C 634.468 1914.74 630.502 1905.84 627.611 1896.52 C 619.66 1865.33 618.845 1833.46 613.013 1802.03 C 624.687 1787.22 636.497 1772.45 647.474 1757.11 C 659.323 1740.56 670.372 1721.83 684.955 1707.61 L 684.953 1707.09 C 684.654 1680.39 689.996 1652.15 691.542 1625.24 C 696.531 1538.41 692.322 1438.82 657.796 1357.84 C 665.601 1348.7 672.904 1339.19 680.239 1329.67 z"/>
<path transform="translate(0,0)" fill="rgb(254,254,254)" d="M 462.875 1591.13 L 463.39 1592.42 C 457.477 1603.26 449.528 1613.28 442.274 1623.26 A 2569.11 2569.11 0 0 0 407.812 1671.21 A 4679.19 4679.19 0 0 1 263.819 1868.98 C 249.723 1887.43 236.056 1906.13 221.561 1924.28 C 220.527 1919.22 220.054 1914.25 219.661 1909.11 C 219.92 1860.58 243.663 1817.93 260.791 1773.88 C 264.494 1764.36 269.154 1750.66 264.42 1740.9 C 261.454 1734.78 256.727 1732.23 250.588 1730 C 298.194 1687.29 354.545 1652.23 409.853 1620.55 C 427.393 1610.5 445.363 1601.24 462.875 1591.13 z"/>
<path transform="translate(0,0)" fill="rgb(254,254,254)" d="M 539.726 1484.09 L 539.978 1486.06 A 3177.91 3177.91 0 0 0 499.893 1541.11 C 492.254 1551.82 484.57 1565.13 475.123 1574.26 C 465.544 1583.51 448.899 1589.95 437.242 1596.37 A 1893.78 1893.78 0 0 0 383.915 1626.52 C 345.884 1649.09 308.378 1672.81 273.84 1700.53 C 262.851 1709.35 252.653 1719.12 242.064 1728.4 C 231.324 1728.18 220.563 1728.1 209.988 1726.05 C 209.065 1724.78 208.293 1723.55 207.708 1722.08 C 205.093 1715.51 208.272 1707.19 210.891 1701.07 C 213.99 1693.82 219.643 1686.42 224.36 1680.1 C 236.147 1664.31 249.785 1649.65 262.146 1634.28 C 269.292 1625.39 283.648 1602.85 291.481 1596.95 C 297.576 1592.35 334.761 1578.2 345.055 1573.44 C 409.936 1543.44 473.465 1511.12 539.726 1484.09 z"/>
<path transform="translate(0,0)" fill="rgb(254,254,254)" d="M 1222.61 1123.65 C 1222.89 1123.96 1223.2 1124.25 1223.44 1124.58 C 1228.59 1131.48 1239.17 1165.51 1243.16 1176.23 C 1263.87 1231.77 1304.26 1318.56 1299.24 1377.6 C 1298.5 1386.29 1295.63 1405.09 1287.74 1410.06 C 1285.67 1411.36 1283.85 1411.93 1281.45 1411.14 C 1271.63 1407.91 1256.45 1373.22 1250.09 1363.18 C 1241.06 1348.6 1230.52 1333.83 1218.43 1321.65 C 1210.96 1314.12 1201.68 1307.48 1190.61 1307.68 C 1176.95 1307.94 1167.14 1317.79 1158.33 1326.99 C 1152.29 1288.06 1148.91 1248.7 1141.45 1209.98 C 1148.37 1201.05 1157.03 1192.97 1164.92 1184.88 C 1184.38 1164.94 1205.06 1145.3 1222.61 1123.65 z"/>
<path transform="translate(0,0)" fill="rgb(254,254,254)" d="M 1784.12 291.875 L 1785.46 292.903 C 1777.29 309.109 1768.27 325.919 1761.56 342.765 C 1750.38 370.863 1743.98 409.297 1743.09 439.476 C 1742.51 458.936 1744.4 479.051 1748.07 498.193 C 1752.43 520.968 1774.43 577.771 1765.01 596.934 C 1763.01 600.998 1759.51 603.743 1755.2 605.039 C 1741.6 609.129 1717.25 601.439 1705.14 594.99 C 1703.17 592.124 1701.33 589.142 1699.43 586.222 C 1691.71 572.244 1685.77 557.018 1680.28 542.04 C 1660.06 486.904 1652.78 435.951 1650.89 377.468 C 1669.6 366.322 1687.6 353.379 1705.84 341.438 A 4372.35 4372.35 0 0 1 1784.12 291.875 z"/>
<path transform="translate(0,0)" fill="rgb(254,254,254)" d="M 1050.59 442.513 C 1064.64 444.225 1078.82 444.812 1092.75 447.433 C 1092.1 505.082 1088.63 555.598 1078.27 612.565 C 1071.64 612.692 1066.24 613.493 1060.57 617.253 C 1054.63 621.186 1050.74 627.145 1049.38 634.13 A 26.7349 26.7349 0 0 0 1054.34 655.387 C 1058.54 660.976 1064.78 664.834 1071.75 665.698 C 1079.83 666.699 1086.7 663.869 1093.08 659.172 C 1127.41 675.429 1158.41 699.064 1191.37 717.948 C 1177.07 730.798 1164.07 745.335 1150.79 759.227 C 1121.05 744.315 1088.1 733.834 1056.95 721.988 C 1005.59 702.289 957.436 675.462 908.937 649.715 C 887.003 638.07 862.364 627.151 842.187 612.639 C 883.679 597.599 930.013 606.378 972.986 600.708 C 1001.88 596.896 1035.7 589.014 1054.32 564.464 C 1075.17 536.961 1065.2 508.702 1057.51 478.613 C 1054.44 466.631 1052.25 454.759 1050.59 442.513 z"/>
<path transform="translate(0,0)" fill="rgb(254,254,254)" d="M 1397.14 304.274 C 1408.78 303.008 1452.34 321.657 1466.64 326.293 C 1515.45 342.107 1564.39 354.945 1615.31 361.872 C 1599.76 371.565 1585.46 383.075 1570.61 393.772 C 1541.79 414.525 1513.07 435.238 1484.95 456.939 C 1465.32 444.691 1447.29 431.263 1429.16 416.917 C 1432.9 411.592 1435.65 404.861 1437.01 398.536 C 1439.72 385.941 1436.51 373.554 1429.17 363.09 A 50.7221 50.7221 0 0 0 1395.25 342.03 C 1382.67 340.134 1369.25 343.198 1359.01 350.819 C 1347.97 359.027 1341.29 372.199 1339.69 385.728 C 1337.99 400.079 1342.86 411.29 1351.67 422.203 C 1360.88 431.466 1372.88 437.685 1386.1 438.103 C 1400.82 438.57 1412.59 432.563 1423.08 422.781 C 1430.88 428.647 1438.1 435.324 1445.88 441.248 C 1455.95 448.926 1466.76 455.789 1477.3 462.821 C 1452.63 481.057 1429.29 501.445 1405.93 521.321 L 1340.11 497.296 C 1323.74 491.316 1306.82 485.785 1291.12 478.182 C 1274.65 450.687 1253.31 425.641 1233.77 400.284 C 1248.59 401.524 1264.03 401.914 1278.64 398.794 C 1313.85 391.279 1319.31 374.266 1337.07 347.258 C 1351.24 325.701 1371.62 309.665 1397.14 304.274 z"/>
<path transform="translate(0,0)" fill="rgb(254,254,254)" d="M 1172.97 950.748 C 1177.34 955.187 1181.97 986.271 1183.72 994.314 C 1192.69 1035.43 1206.24 1075.89 1220.16 1115.58 C 1207.6 1130.87 1192.45 1145.06 1178.75 1159.37 C 1155.65 1183.5 1133 1208.01 1107.84 1230.01 C 1099.3 1222.69 1090.26 1217.21 1078.8 1216.28 C 1064.71 1215.13 1052.33 1220.61 1041.65 1229.36 C 1040.93 1229.55 1040.15 1229.4 1039.4 1229.38 A 655.935 655.935 0 0 0 1014.36 1197.98 C 1006.12 1188.33 995.687 1178.42 990.013 1167 C 985.59 1158.09 983.382 1147.56 980.667 1138.01 A 6760.64 6760.64 0 0 0 1172.97 950.748 z"/>
<path transform="translate(0,0)" fill="rgb(254,254,254)" d="M 965.625 1372.83 C 965.929 1373.32 966.275 1373.78 966.537 1374.29 C 971.473 1383.9 974.028 1405.69 976.399 1416.77 A 837.65 837.65 0 0 1 984.61 1713.99 C 981.384 1733.96 978.042 1754.51 971.07 1773.57 C 964.135 1747.83 954.76 1722.5 946.204 1697.25 C 936.176 1667.66 925.638 1621.09 904.277 1597.77 C 896.462 1589.23 886.406 1583.08 874.577 1582.87 C 857.575 1582.57 843.599 1592.91 832.05 1604.2 C 802.587 1633.8 784.063 1680.38 773.145 1720.36 C 750.382 1695.4 740.438 1665.82 741.572 1632.25 C 750.202 1617.8 761.085 1603.96 770.554 1589.99 C 772.471 1590.7 774.422 1591.3 776.385 1591.88 C 788.608 1595.46 802.44 1594.92 813.608 1588.42 C 824.466 1582.1 832.279 1570.99 835.312 1558.88 C 839.114 1543.7 835.837 1529.93 827.851 1516.88 C 852.346 1489.76 878.527 1464.59 903.896 1438.33 C 924.743 1416.75 944.483 1394.14 965.625 1372.83 z"/>
<path transform="translate(0,0)" fill="rgb(254,254,254)" d="M 1052.17 404.583 C 1062.41 410.313 1073.79 414.822 1084.43 419.812 A 2061.89 2061.89 0 0 1 1140.03 446.848 C 1199.77 476.942 1258.69 510.13 1321.04 534.648 C 1336.94 540.899 1353.57 545.544 1369.83 550.799 C 1353.75 566.397 1335.78 580.485 1319.17 595.588 A 6837.39 6837.39 0 0 0 1217.98 690.778 A 2127.36 2127.36 0 0 0 1196.42 712.532 A 2425.73 2425.73 0 0 0 1140.76 676.647 C 1127.14 668.246 1113.12 660.485 1099.68 651.801 C 1101.57 646.085 1102.16 640.926 1101.02 634.948 C 1099.29 625.91 1093.79 619.471 1086.49 614.251 C 1099.13 556.067 1102.3 495.893 1100.24 436.413 C 1061.27 438.041 984.769 425.052 950.101 405.689 A 946.513 946.513 0 0 0 1048.91 422.258 C 1050.13 416.403 1051.1 410.468 1052.17 404.583 z"/>
<path transform="translate(0,0)" fill="rgb(1,91,83)" d="M 1184.46 516.186 C 1194.05 515.514 1203.48 517.252 1212.06 521.673 A 49.2993 49.2993 0 0 1 1237.23 551.894 C 1240.98 564.943 1239.55 578.894 1232.68 590.654 C 1224.66 604.39 1212.83 611.386 1197.8 615.104 C 1186.57 616.26 1175.4 614.613 1165.49 608.941 A 49.6986 49.6986 0 0 1 1142.08 577.309 C 1139.03 564.24 1141.26 549.886 1148.71 538.661 C 1157.17 525.906 1169.74 518.951 1184.46 516.186 z"/>
<path transform="translate(0,0)" fill="rgb(254,254,254)" d="M 1181.38 528.244 C 1189.21 527.359 1196.27 527.582 1203.72 530.457 C 1213.62 534.276 1221.88 542.097 1225.86 551.969 A 38.2481 38.2481 0 0 1 1225.01 582.308 C 1219.89 593.082 1210.75 599.084 1199.76 602.758 C 1191.85 604.429 1184.7 604.697 1176.98 601.856 C 1167.11 598.225 1159.39 590.391 1155.33 580.757 C 1151.28 571.124 1150.85 559.758 1155.11 550.121 C 1160.29 538.395 1169.86 532.511 1181.38 528.244 z"/>
<path transform="translate(0,0)" fill="rgb(1,91,83)" d="M 1185.02 550.996 C 1187.47 550.811 1189.9 550.656 1192.34 551.079 C 1196.51 551.804 1200.62 554.483 1202.95 558.019 A 14.0128 14.0128 0 0 1 1204.85 568.904 C 1203.48 574.857 1199.78 577.785 1194.8 580.853 C 1192.41 580.973 1189.89 581.13 1187.52 580.734 C 1183.79 580.112 1179.88 577.649 1177.66 574.609 C 1175.31 571.382 1174.68 567.521 1175.4 563.629 C 1176.49 557.678 1180.37 554.4 1185.02 550.996 z"/>
<path transform="translate(0,0)" fill="rgb(254,254,254)" d="M 632.269 1324.56 C 642.594 1323.94 652.925 1323.93 663.265 1323.85 C 644.263 1345.86 626.574 1369.6 609.113 1392.85 C 538.988 1397.28 487.413 1408.88 420.639 1429.17 C 417.496 1422.65 414.059 1416.74 408.963 1411.52 C 398.737 1401.04 384.48 1395.89 369.962 1396.05 C 357.009 1396.19 344.995 1401.85 336.121 1411.21 A 51.7549 51.7549 0 0 0 322.185 1449.48 C 322.838 1462.52 328.049 1474.93 337.95 1483.61 C 347.972 1492.4 361.939 1497.14 375.245 1496.09 C 388.619 1495.04 400.696 1488.3 409.184 1478.01 C 418.913 1466.22 422.662 1452.71 421.125 1437.59 C 476.008 1418.95 546.012 1401.67 604.211 1399.7 C 591.451 1414.38 580.456 1430.96 568.931 1446.63 C 563.684 1453.77 558.504 1461.59 552.131 1467.77 C 544.914 1474.77 465.519 1506.46 448.287 1515.03 C 397.447 1539.96 346.48 1565.8 294.666 1588.6 C 300.383 1579.45 305.871 1570.08 310.114 1560.14 C 315.373 1547.83 320.379 1531.44 314.77 1518.5 C 311.344 1510.59 304.489 1506.13 296.753 1503 C 265.715 1490.45 228.913 1503.33 197.99 1510 C 181.423 1513.57 162.332 1518.26 145.384 1517.84 C 137.419 1517.65 130.565 1515.36 123.271 1512.48 C 124.462 1510.89 125.678 1509.36 127.051 1507.91 C 142.783 1491.33 176.041 1468.62 195.915 1455.4 C 326.195 1368.74 477.044 1329.2 632.269 1324.56 z"/>
<path transform="translate(0,0)" fill="rgb(254,254,254)" d="M 1332.72 629.362 C 1340.06 622.339 1389.44 575.983 1395.9 573.642 L 1397.25 575.762 L 1400.24 576.097 C 1401.66 585.302 1403.94 595.918 1403.86 605.16 C 1402.5 605.742 1401.4 605.731 1400.84 607.217 C 1399.9 609.706 1400.01 612.579 1399.89 615.212 C 1400.1 629.808 1402.3 644.74 1403.98 659.243 C 1417.09 772.898 1460.68 886.625 1514.54 987.053 C 1524.5 1005.62 1554.77 1057.52 1550.62 1076.22 L 1548.45 1077.6 C 1514.98 1078.47 1484.35 1035.55 1461.39 1015.52 C 1454.28 1009.33 1445.57 1004.4 1435.83 1005.44 C 1426.97 1006.38 1420.29 1012.1 1415.09 1018.96 C 1402.35 1035.77 1396.51 1058.89 1391.83 1079.11 C 1376.87 1143.79 1387.74 1204.11 1406.28 1266.63 C 1412.09 1286.23 1421.27 1309.56 1423.55 1329.66 C 1423.92 1332.91 1424.28 1335.48 1422.23 1338.14 C 1418.2 1338.97 1414.84 1337.36 1411.28 1335.58 C 1390.88 1325.43 1364.5 1302.83 1352.45 1283.45 C 1347.31 1275.19 1344.6 1263.71 1341.4 1254.48 L 1321.34 1196.36 C 1305.27 1150.28 1287.53 1104.78 1272.04 1058.49 C 1293.59 1039.35 1312.84 1018.52 1332.52 997.526 L 1397.02 928.588 C 1400.07 931.672 1403.23 934.456 1407.31 936.068 A 29.6799 29.6799 0 0 0 1430.55 935.235 C 1436.88 932.22 1441.81 926.982 1443.87 920.222 C 1446.05 913.064 1444.93 904.307 1441.24 897.822 C 1435.82 888.309 1426.73 888.435 1417.28 886.158 C 1412.2 879.733 1407.98 862.825 1405.05 854.662 C 1390.54 814.216 1376.54 773.025 1363.79 731.987 C 1353.18 697.848 1343.68 663.4 1332.72 629.362 z"/>
<path transform="translate(0,0)" fill="rgb(19,85,85)" d="M 1397.25 575.762 L 1400.24 576.097 C 1401.66 585.302 1403.94 595.918 1403.86 605.16 C 1402.5 605.742 1401.4 605.731 1400.84 607.217 C 1399.9 609.706 1400.01 612.579 1399.89 615.212 C 1397.83 602.742 1397.3 588.42 1397.25 575.762 z"/>
<path transform="translate(0,0)" fill="rgb(254,254,254)" d="M 1324.76 635.911 C 1329.31 641.726 1334.57 663.366 1336.99 671.406 A 4630.89 4630.89 0 0 0 1369.9 777.414 C 1382.34 814.713 1395.99 851.625 1407.84 889.121 C 1405.2 890.769 1402.37 892.437 1400.11 894.597 C 1390.57 903.71 1394.98 908.258 1392.85 918.605 C 1391.49 925.213 1309.62 1011.09 1298.91 1021.79 C 1287.34 1033.36 1275.45 1045.09 1262.68 1055.32 C 1269.1 1076.53 1276.96 1096.86 1284.6 1117.62 C 1303.17 1168.04 1323.08 1218.64 1338.64 1270.07 C 1342.59 1283.1 1342.51 1296.06 1344.64 1309.39 C 1347.95 1330.13 1353.11 1350.84 1358.86 1371.03 C 1368.38 1404.52 1371.68 1406.64 1401 1422.9 A 592.754 592.754 0 0 1 1411.76 1430.54 C 1397.32 1426.12 1379.46 1422.45 1368.6 1411.34 C 1365.02 1407.66 1362.86 1403.66 1360.91 1398.96 C 1354.23 1382.79 1350.05 1365.11 1345.13 1348.34 C 1336.16 1317.74 1327.18 1286.98 1316.55 1256.91 A 7507.86 7507.86 0 0 0 1273.79 1142.12 C 1264.49 1117.83 1254.73 1093.71 1246.51 1069.02 A 1206.64 1206.64 0 0 1 1216.19 963.147 C 1201.35 898.872 1191.61 830.253 1192.17 764.185 C 1202.2 753.046 1213.51 742.717 1224.2 732.188 C 1257.28 699.612 1291.75 668.514 1324.76 635.911 z"/>
<path transform="translate(0,0)" fill="rgb(254,254,254)" d="M 881.681 1094.82 C 882.548 1095.76 902.285 1163.31 903.78 1170.4 A 722.69 722.69 0 0 1 873.071 1203.06 C 865.102 1211 855.789 1218.88 849.123 1227.91 C 848.591 1263.87 844.959 1299.8 843.736 1335.74 C 838.179 1336.54 833.003 1337.43 827.803 1339.71 C 815.023 1345.32 804.839 1355.39 800.004 1368.61 A 47.6425 47.6425 0 0 0 802.108 1405.66 C 807.98 1417.74 817.882 1425.77 830.428 1430.11 C 843.274 1434.56 856.664 1434.46 868.916 1428.17 A 47.6673 47.6673 0 0 0 892.808 1399.72 C 896.747 1386.77 894.587 1373.03 888.113 1361.29 C 880.145 1346.85 868.811 1340.65 853.587 1336.31 C 854.61 1319.83 856.909 1234.38 861.293 1227.13 C 868.229 1215.66 894.435 1191.6 905.288 1178.92 C 926.717 1239.82 945.309 1301.24 964.701 1362.77 C 953.902 1372.71 944.497 1384.35 934.625 1395.22 A 1344.95 1344.95 0 0 1 900.967 1430.33 C 874.638 1457.26 847.624 1483.81 822.23 1511.6 C 812.211 1503.28 801.401 1498.79 788.203 1499.42 C 775.478 1500.03 763.686 1505.48 755.355 1515.19 A 48.5755 48.5755 0 0 0 744.161 1552.02 C 745.936 1567.38 753.593 1577.28 765.381 1586.43 C 746.552 1612.07 727.219 1636.63 706.636 1660.89 C 709.128 1646.54 709.861 1631.47 710.955 1616.94 C 716.716 1540.39 711.015 1463.85 698.532 1388.27 C 694.955 1366.61 689.556 1345.36 685.743 1323.76 C 698.988 1305.88 714.004 1288.89 728.228 1271.77 C 778.153 1211.66 831.338 1154.52 881.681 1094.82 z"/>
<path transform="translate(0,0)" fill="rgb(254,254,254)" d="M 1621.14 398.048 C 1621.56 409.69 1620.37 421.369 1620.63 433.04 C 1621.77 483.356 1627.17 529.425 1644.09 577.011 C 1654.4 606.017 1671 636.8 1677.38 666.531 C 1681.04 683.607 1680.6 706.34 1670.31 721.267 C 1656.41 741.429 1627.47 718.256 1608.12 721.842 C 1597.38 723.831 1589.1 731.542 1583.1 740.273 C 1571.45 757.249 1565.39 777.784 1562.87 798.044 C 1556.99 845.222 1570.87 886.715 1586.43 930.317 C 1591.48 944.489 1597.2 958.508 1599.87 973.371 C 1599.28 974.874 1599.82 975.174 1600.41 976.61 C 1599.35 977.606 1599.46 977.736 1598.05 978.167 C 1592.62 979.831 1582.51 974.596 1577.66 971.953 A 86.4039 86.4039 0 0 1 1553.92 952.974 C 1540.43 937.591 1531.07 919.136 1521.69 901.104 C 1495.71 851.148 1476.13 802.251 1460.16 748.231 C 1442.32 692.449 1427.48 604.301 1428.33 545.707 C 1439.03 538.386 1448.89 528.774 1458.96 520.526 A 5843.41 5843.41 0 0 1 1517.83 473.626 C 1524.29 508.295 1530.34 543.001 1538.93 577.222 C 1532.39 580.784 1526.88 584.83 1522.12 590.613 C 1513.38 601.222 1508.61 615.051 1510.33 628.813 C 1511.99 642.168 1519.65 654.966 1530.42 662.997 C 1540.86 670.774 1553.88 672.618 1566.52 670.58 A 49.324 49.324 0 0 0 1599.96 648.953 A 47.1419 47.1419 0 0 0 1606.93 612.997 A 51.1062 51.1062 0 0 0 1584.48 580.337 C 1573.23 573.235 1560.65 571.527 1547.83 574.472 C 1542.44 557.457 1539.41 539.289 1535.92 521.797 C 1532.3 503.649 1527.98 485.134 1526.54 466.675 C 1538.89 458.991 1550.49 448.9 1562.19 440.205 A 3359.93 3359.93 0 0 1 1621.14 398.048 z"/>
<path transform="translate(0,0)" fill="rgb(254,254,254)" d="M 1157.89 798.957 C 1159.25 800.989 1158.76 838.145 1159.09 844.161 C 1159.8 856.911 1161.81 869.606 1163.14 882.306 C 1149.66 892.961 1137.63 906.932 1125.51 919.118 L 1064.11 980.437 C 1061.46 978.48 1058.3 976.65 1055.1 975.757 C 1048.66 973.956 1041.03 974.76 1035.19 978.037 C 1028.81 981.614 1025.23 987.475 1023.34 994.403 C 1021.47 1001.26 1021.68 1008.41 1025.51 1014.55 C 1029.16 1020.39 1035.65 1024.31 1042.28 1025.8 A 28.3852 28.3852 0 0 0 1064.52 1021.71 C 1069.53 1018.32 1073.28 1013.37 1074.38 1007.34 C 1075.75 999.836 1073.37 992.294 1069.2 986.124 C 1101.95 956.241 1131.59 922.973 1163.49 892.189 C 1166.83 908.393 1169.03 924.806 1172.43 941.002 C 1154.53 955.827 1139.31 974.524 1122.53 990.655 L 972.292 1135.55 C 975.131 1147.27 977.965 1159.57 983.311 1170.42 C 990.2 1184.41 1002.67 1196.26 1012.67 1208.13 A 951.976 951.976 0 0 1 1035.4 1236.59 C 1034.81 1237.72 1034.25 1238.84 1033.73 1240 C 1027.63 1253.52 1025.31 1268.33 1030.94 1282.55 C 1035.28 1293.51 1044.04 1301.91 1054.87 1306.39 C 1067.38 1311.56 1082.45 1311.56 1094.9 1306.21 A 42.4384 42.4384 0 0 0 1118.28 1281.78 C 1123.75 1266.61 1120.09 1250.15 1113.34 1236.11 C 1120.33 1229.09 1128.1 1222.7 1135.53 1216.14 L 1137.33 1226.45 C 1142.58 1263.55 1148.78 1301.96 1149.27 1339.46 C 1102.96 1404.94 1102.12 1490.46 1091.45 1566.64 C 1066.93 1555.45 1047.45 1537.09 1027.28 1519.7 C 1026.65 1501.03 1023.78 1481.88 1021.36 1463.36 C 1010.94 1383.73 987.534 1306.52 962.528 1230.44 C 944.188 1174.64 924.796 1119.42 912.62 1061.85 C 931.93 1041.04 948.678 1017.85 967.905 996.952 A 8590.1 8590.1 0 0 1 1157.89 798.957 z"/>
<path transform="translate(0,0)" fill="rgb(254,254,254)" d="M 653.832 1362.71 C 657.927 1367.32 658.928 1378.63 660.376 1384.64 C 668.806 1419.64 676.155 1454.29 679.959 1490.15 C 686.216 1549.14 684.422 1609.62 680.907 1668.71 C 680.286 1679.15 681.198 1694.34 677.169 1704.04 C 672.548 1715.16 661.259 1726.09 653.855 1735.89 C 639.53 1754.86 625.953 1774.24 610.999 1792.75 C 608.499 1784.44 604.629 1776.12 598.926 1769.54 C 592.176 1761.75 582.826 1756.48 572.425 1755.95 C 556.03 1755.11 541.935 1765.45 530.391 1775.82 C 531.534 1760.54 530.638 1744.71 530.782 1729.36 C 530.876 1719.42 532.53 1708.06 530.863 1698.33 L 529.021 1697.03 L 526.85 1697.58 C 519.05 1706.67 523.31 1768.39 523.944 1782.36 C 515.102 1795.35 502.116 1807.06 491.318 1818.47 C 491.096 1799.04 491.996 1779.5 492.156 1760.06 C 492.3 1742.61 489.642 1708.26 493.956 1692.97 C 499.127 1674.65 538.441 1615.18 551.25 1598.98 C 554.952 1599.63 559.168 1600.4 562.909 1599.8 C 568.192 1598.97 571.874 1595.33 574.696 1590.99 C 577.123 1587.26 578.417 1583.01 577.24 1578.6 C 575.933 1573.71 572.003 1569.69 567.567 1567.44 C 562.599 1564.92 556.471 1564.58 551.206 1566.36 C 547.377 1567.65 544.226 1570.06 542.629 1573.84 C 539.883 1580.35 541.81 1588.1 544.402 1594.29 C 530.505 1614.56 488.652 1674.47 484.561 1695.07 C 481.635 1709.79 483.517 1727.41 483.703 1742.5 C 483.851 1769.93 483.368 1797.57 484.902 1824.95 C 467.947 1846.41 451.415 1871.2 423.611 1878.43 L 422.434 1878.04 C 396.201 1869.37 400.816 1849.89 389.201 1833.72 C 384.235 1832.13 379.138 1837.82 375.491 1840.86 C 330.023 1878.67 282.567 1915.94 223.609 1929.02 C 273.819 1872.62 318.86 1811.39 364.226 1751.1 A 7363.92 7363.92 0 0 0 462.615 1619.67 C 525.612 1533.41 587.803 1446.71 653.832 1362.71 z"/>
<path transform="translate(0,0)" fill="rgb(1,91,83)" d="M 652.186 1621.61 L 654.552 1621.88 L 655.518 1623.36 C 653.293 1630.73 645.006 1637.42 639.697 1642.73 C 645.417 1648.85 649.319 1654.98 651.526 1663.21 A 49.9411 49.9411 0 0 1 645.958 1701.79 C 639.204 1712.79 628.487 1721.06 615.842 1723.98 C 601.056 1727.4 587.673 1723.61 575.233 1715.59 C 566.222 1707.79 559.803 1698.04 557.528 1686.21 C 555.033 1673.23 557.933 1660.3 565.513 1649.5 C 573.064 1638.74 584.531 1631.76 597.45 1629.57 C 610.548 1627.36 621.475 1630.75 632.18 1638.12 C 638.691 1632.4 645.105 1626.62 652.186 1621.61 z"/>
<path transform="translate(0,0)" fill="rgb(254,254,254)" d="M 600.944 1639.21 C 608.54 1638.61 616.274 1639.83 623.118 1643.29 A 35.7499 35.7499 0 0 1 640.939 1664.2 A 38.065 38.065 0 0 1 638.273 1694.48 C 632.302 1705.53 622.783 1711.42 611.186 1715.12 C 602.816 1715.42 595.569 1715 587.858 1711.18 A 37.6022 37.6022 0 0 1 568.951 1689.24 C 565.699 1679.38 566.908 1669.07 571.964 1660.04 C 578.398 1648.56 588.558 1642.45 600.944 1639.21 z"/>
<path transform="translate(0,0)" fill="rgb(1,91,83)" d="M 600.136 1660.97 C 603.049 1661.01 605.857 1661.06 608.625 1662.08 C 613.392 1663.83 617.378 1667.39 619.32 1672.13 C 620.772 1675.67 620.865 1679.56 619.313 1683.09 C 617.086 1688.14 612.845 1690.28 607.899 1692.07 C 604.917 1692.18 601.91 1692.32 599.019 1691.44 A 15.8533 15.8533 0 0 1 589.334 1683.16 C 587.548 1679.48 587.413 1675.36 588.888 1671.54 C 590.998 1666.09 594.997 1663.29 600.136 1660.97 z"/>
<path transform="translate(0,0)" fill="rgb(254,254,254)" d="M 733.329 705.426 C 752.165 703.967 772.242 706.03 791.001 707.75 C 884.954 716.367 976.175 742.844 1065.08 773.477 C 1082.73 779.559 1103.04 784.095 1119.59 792.704 A 2705.94 2705.94 0 0 0 1042.63 873.102 C 1004.95 860.991 967.756 846.234 930.667 832.39 C 918.978 840.396 908.655 851.587 898.177 861.123 C 878.58 878.959 858.918 896.621 838.305 913.289 C 834.317 907.937 830.28 902.981 824.866 898.982 C 813.934 890.906 799.741 888.346 786.468 890.689 C 773.893 892.91 763.289 900.008 756.342 910.7 C 749.246 921.62 746.804 934.383 749.576 947.114 C 752.303 959.644 759.228 970.951 770.391 977.596 C 781.817 984.396 795.77 985.971 808.568 982.64 C 820.931 979.422 831.478 972.284 837.84 961.053 C 844.654 949.02 845.442 934.751 842.028 921.587 C 873.564 897.371 902.448 868.896 932.131 842.423 C 950.258 849.431 968.929 855.501 987.259 861.992 A 787.88 787.88 0 0 0 1037.01 878.926 C 1024.55 894.292 1010.59 908.464 997.132 922.954 C 969.441 952.778 941.446 982.231 915.827 1013.9 C 884.689 1008.05 852.546 1005.29 821.139 1000.82 C 772.908 993.965 724.853 985.655 676.138 982.806 A 924.816 924.816 0 0 0 617.533 981.006 C 602.727 981.119 587.629 982.317 572.852 981.407 A 88.1933 88.1933 0 0 1 553.171 977.734 C 537.472 973.006 472.681 947.45 465.586 936.913 C 464.379 935.12 464.59 935.003 465.162 932.88 C 469.232 929.141 474.425 928.339 479.742 927.606 C 495.374 925.45 511.251 925.533 526.939 924.09 C 586.401 918.621 686.261 904.883 738.464 875.445 C 753.109 867.187 770.79 854.733 775.158 837.47 C 776.705 831.353 776.145 825.602 772.72 820.256 C 765.03 808.253 750.82 799.547 739.524 791.311 C 714.108 772.779 679.669 749.411 663.268 722.476 C 685.369 709.264 708.221 707.223 733.329 705.426 z"/>
<path transform="translate(0,0)" fill="rgb(254,254,254)" d="M 580.99 1025.43 C 642.687 1023.74 706.192 1027.1 767.28 1035.91 C 805.217 1041.39 845.736 1050.56 883.126 1054.38 C 868.835 1068.86 855.772 1084.16 842.65 1099.68 A 1157.24 1157.24 0 0 0 741.416 1094.79 C 732.305 1103.22 722.63 1111.09 713.423 1119.43 C 702.193 1129.61 670.063 1162.38 658.685 1167.34 C 647.668 1172.14 635.14 1174.14 623.514 1177.07 C 612.827 1179.76 602.546 1183.25 592.219 1187.06 C 589.118 1182.52 585.9 1177.74 582.11 1173.73 C 572.784 1163.88 560.599 1157.42 546.824 1157.27 C 534.145 1157.13 521.711 1162.74 512.912 1171.77 A 48.2926 48.2926 0 0 0 498.951 1207.87 C 499.521 1220.61 504.692 1233.18 514.517 1241.55 C 524.677 1250.2 539.889 1254.2 553.139 1252.72 A 47.1703 47.1703 0 0 0 585.128 1234.63 C 594.197 1222.71 595.883 1209.08 593.62 1194.72 C 616.46 1186.72 640.585 1181.46 664.061 1175.59 C 675.513 1163.86 688.024 1152.96 700.057 1141.82 C 714.805 1128.16 729.47 1113.87 745.677 1101.93 C 775.702 1102.36 806.3 1103.69 836.192 1106.51 C 827.134 1120.33 815.288 1133.53 804.747 1146.28 A 2919.31 2919.31 0 0 0 751.521 1211.39 C 735.319 1233.78 716.935 1255.17 699.779 1276.87 C 682.054 1276.71 664.163 1278.15 646.468 1279.18 C 529.11 1286.04 439.677 1311.58 332.119 1357.17 C 300.122 1347.1 266.946 1331.55 237.366 1315.57 C 240.466 1311.01 243.7 1307.66 248.429 1304.73 C 260.322 1297.36 274.162 1292.78 287.08 1287.49 C 332.672 1268.83 397.678 1248.6 433.451 1214.82 C 445.544 1203.4 459.272 1188.61 459.309 1170.95 C 459.339 1156.73 452.046 1142.82 440.154 1135.03 C 429.965 1128.36 417.277 1126.22 405.605 1123.46 C 394.943 1120.93 384.339 1118.18 373.605 1115.97 C 351.757 1111.47 309.549 1107.19 294.314 1091.42 C 294.051 1091.15 293.795 1090.87 293.535 1090.59 C 361.096 1040.67 498.676 1028.97 580.99 1025.43 z"/>
</svg>