<svg xmlns="http://www.w3.org/2000/svg" display="block" viewBox="0 0 2048 2048"><path fill="#fefefe" d="M0 0h2048v2048H0z"/><path d="M1552.51 185.283c24.35-1.202 46.77 4.931 68.08 16.619 33.53 18.396 62.14 47.229 77.26 82.741 4.94 11.612 8.18 24.067 11.69 36.176 5.35 2.771 10.69 5.55 15.72 8.866 21.58 14.217 33.55 33.992 38.72 58.967-12.84-5.898-25.12-12.683-38.92-16.271-5.03-1.308-9.93-2.695-14.65.045-1.57 3.969-1.41 8.195-1.58 12.41 6.67 1.032 13.36 2.172 19.77 4.335 32.5 10.965 60.19 38.344 75.25 68.728 14.57 29.427 16.81 59.716 6.33 90.777-12.51-9.872-25.84-18.269-41.71-21.319-22.2-4.269-45.09 3.446-63.43 15.755 2.19 4.241 4.92 8.184 7.52 12.181 9.71-5.747 20.4-11.3 31.55-13.544 15.2-3.059 30.39.659 43.21 9.126 18.55 12.253 34.1 33.231 38.41 55.231 4.29 21.891-2.6 41.027-14.56 59.098a221 221 0 0 0-18.11-25.993c-4.51 2.138-8.72 4.591-12.99 7.173 6.98 11.42 15.06 21.973 21.1 33.973 11.85 23.553 18 50.828 9.36 76.459-5.48 16.236-16.32 32.516-31.94 40.328 1.95-23.517-.83-43.908-13.96-64.028-19.71-30.218-52.34-47.801-87.01-55.032 3.84-22.298 1.89-44.113-9.63-63.933-13.4-23.065-34.71-35.385-59.9-42.05l-5.87 13.662c8.63 2.378 16.93 4.778 24.85 9.05a72.7 72.7 0 0 1 34.95 42.866c4.55 15.409 4.29 33.386-3.85 47.577-7.79 13.6-20.58 20.329-35.06 24.401-22.1 5.22-40.08-.96-59.68-10.932-2.21 4.043-3.91 8.317-5.69 12.558 19.32 12.26 44.84 17.838 67.33 12.87 20.06-4.431 34.88-16.054 45.76-33.143 24.84 5.221 48.23 14.607 66.95 32.213 16.13 15.17 25.76 33.914 26.34 56.227.72 27.426-8.47 53.861-27.54 73.789-20.3 21.208-47.21 30.267-76.06 31.008a182 182 0 0 0 1.01-3.358c6.98-23.949.19-43.537-11.34-64.668 12.78-7.619 21.6-15.88 30.26-27.925-3.52-2.964-7.45-5.297-11.34-7.749-18.28 24.002-32.47 22.868-59.05 28.04-20.86 4.059-35.19 16.424-46.87 33.606l10.3 9.314c3.64-4.426 7.29-8.852 11.32-12.927 14.93-15.091 31.2-17.464 51.42-17.552 5.58 7.963 9.3 16.116 11.26 25.655a71.03 71.03 0 0 1-10.74 53.908c-10.23 15.26-26.18 27.771-44.56 31.086-17.38 3.136-35.08 1.595-49.9-8.741-18.81-13.123-29-40.112-32.88-61.79-3.54-19.738-1.41-50.309-1.43-71.065l-.09-147.29.01-276.458-.18-86.794c-.06-17.113-.74-34.464.24-51.539.53-9.108 2.19-15.713 7.76-23.257 9.01-12.219 22.31-17.256 36.79-19.46"/><path fill="#fefefe" d="M1619.18 273.539c.62.202 1.27.333 1.86.605 11.08 5.111 19.68 22.799 22.58 34.107 4.37 17.008.94 31.397-7.8 46.104.74.57 1.47 1.155 2.18 1.754 20.39 17.06 34.56 41.085 36.75 67.851 2.06 25.232-5.44 50.778-22.08 70.046-12.28 14.214-29.4 24.679-48.43 25.878-14.68.925-29.1-3.443-40.24-13.119 2.68-3.714 5.6-7.269 8.43-10.868 13.31 7.145 22.92 10.482 38.39 8.656 10.19-3.369 18.98-7.947 26.73-15.467 14.91-14.455 22.55-35.077 22.65-55.655.16-30.367-16.54-61.646-45.15-73.926-21.32-9.146-34.94-6.519-52.95-24.89 2.62-3.846 5.93-7.177 9.07-10.6 18.51 14.034 29.48 16.147 51.76 22.195 5.03-7.273 7.94-14.785 7.75-23.752-.35-16.672-9.95-28.496-21.26-39.537 3.04-3.314 6.48-6.311 9.76-9.382"/><path d="M1429.28 185.389c15.26-2.079 33.21 1.01 45.69 10.3 10.65 7.92 14.85 17.24 16.4 30.006 1.44 11.849.73 24.174.7 36.108l-.15 60.558-.07 195.212-.14 229.939.1 67.886c.04 13.594.89 27.804-.62 41.324-2.06 18.442-9.14 40.933-20.79 55.671-9.58 12.114-22.5 18.661-37.7 20.314-18.15 1.975-36.97-2.58-51.19-14.253-16.11-13.215-27.65-34.348-29.45-55.158-1.01-11.797 1.13-27.322 9.27-36.335 3.74-4.13 8.44-6.123 13.98-6.218 16-.275 31.34 11.574 42.16 22.204 3.32-3.201 6.09-6.703 8.93-10.318-13.08-16.287-28.57-24.137-49.36-25.268-7.94-.432-16.08-.364-23.58-3.355-13.61-5.43-19.41-17.037-24.75-29.712-3.89 1.865-7.61 4.146-11.35 6.284a191 191 0 0 0 2.09 6.149c5.52 15.081 16.2 25.539 30.65 32.177-12.25 20.957-14.27 39.159-9.8 62.877-18.29.082-36.3-3.484-52.61-11.984-22.6-11.778-40.67-32.907-48.2-57.324a95.24 95.24 0 0 1 6.91-73.581c18.85-34.646 46.57-38.664 80.99-48.897a384 384 0 0 0 2.46 3.473c11.47 15.977 26.46 27.861 46.29 31.002 24.91 3.945 47.51-4.937 67.32-19.434-1.82-4.067-4.04-7.86-6.25-11.717-16.32 9.238-30.78 17.266-49.97 17.884a58.26 58.26 0 0 1-29.37-8.249c-11.97-7.203-19.65-18.701-23.09-32.099-4.44-17.281-1.59-35.109 7.5-50.405 10.9-18.329 27.33-29.329 47.71-34.489-1.99-4.601-4.23-9.1-6.4-13.622-18.8 6.346-35.41 15.403-47.44 31.638-16.21 21.868-18.7 45.79-14.73 71.945-8.7 4.377-18.06 6.278-27.41 8.745-22.55 5.944-39.57 18.809-53.08 37.786-16.14 22.689-22.11 50.24-17.56 77.57a121 121 0 0 1-1.83-1.402c-19.34-15.121-33.07-33.456-36.03-58.373-3.63-30.476 7.43-58.653 26.11-82.216-2.66-4.722-5.49-9.364-8.24-14.031-6.78 7.436-11.6 14.681-16.11 23.683-9.05-13.195-14.15-27.613-15.76-43.558a78.12 78.12 0 0 1 17.53-57.859c12.93-15.621 30.87-26.171 51.25-27.865 19.82-1.648 36.26 6.469 51.07 18.857 2.93-3.523 5.68-7.242 8.5-10.855-10.9-12.358-26.49-19.66-42.64-22.173-26.85-4.175-48.1 6.092-69.16 21.475-3.1-9.834-5.61-19.75-6.5-30.053-2.75-31.88 8.43-65.371 28.97-89.74 20.35-24.151 45.25-36.808 76.58-39.522-.18-4.488-.78-8.936-1.3-13.394-21.45-.413-39.17 7.912-57.66 17.738 1.36-6.202 2.85-12.583 5.12-18.517 9.22-24.014 31.1-43.919 54.38-54.078a179.7 179.7 0 0 1 34.23-70.227c26.54-32.7 65.04-58.015 107.4-62.524"/><path fill="#fefefe" d="M1379.26 272.732c4.98 2.15 8.46 5.774 12.24 9.527-9.66 7.446-18.36 18.205-21.26 30.239-3.01 12.554 1.27 23.131 7.66 33.675 22.7-6.126 32.61-6.95 51.74-21.83 3.58 3.42 6.13 6.628 8.64 10.901-18.95 20.123-33.16 16.29-55.75 26.022-18.06 7.785-31.52 23.876-38.61 41.959-7.9 20.133-7.89 43.751.99 63.585 7.93 17.735 22.09 29.415 40.05 36.114a87 87 0 0 0 4.04 1.139c15.12 3.807 26.49-1.835 39.05-9.56 3.41 3.597 6.19 7.73 9.08 11.748-12.38 8.792-26.6 14.386-42.05 13.403-20.41-1.3-38.67-13.178-51.65-28.43-15.65-18.385-22.04-42.462-19.86-66.351 2.7-29.691 17.89-51.479 40.24-70.164-5.19-11.745-9.69-22.56-9.13-35.736.8-19.047 10.9-33.908 24.58-46.241"/><path d="m231.755 183.036 521.094-.06.121 540.515c-173.638-1.944-347.355.223-521.008-.551z"/><path fill="#fefefe" d="M480.596 255.413c.268-.035.534-.082.802-.104a202.4 202.4 0 0 1 142.147 44.14c39.923 32.147 67.333 80.857 72.692 131.945 5.834 55.618-9.155 108.494-44.539 151.877-35.71 43.784-84.799 67.783-140.448 73.647-54.395 2.405-107.095-12.692-149.173-48.091a200.78 200.78 0 0 1-70.48-134.984 199.78 199.78 0 0 1 47.586-147.056c36.339-42.487 85.873-67.084 141.413-71.374"/><path d="m491.158 269.419 1.441-.079c48.651-2.246 97.422 18.569 132.444 51.532a182.05 182.05 0 0 1 57.271 127.851 186.54 186.54 0 0 1-52.22 136.201c-35.344 36.972-82.527 56.059-133.278 57.24a195.58 195.58 0 0 1-126.706-46.737c-35.931-30.96-59.835-77.194-63.232-124.596-3.698-51.6 12.945-99.063 47.012-138.009 35.526-40.615 84.348-59.889 137.268-63.403"/><path fill="#fefefe" d="M410.449 511.854c8.474-.103 18.501-1.059 26.699 1.29 1.158 1.931 1.393 2.824 1.302 5.073-2.285 2.184-6.405 2.215-9.527 2.835-2.711 5.956-.891 19.448-.772 26.448.147 2.856.874 6.229-.863 8.672-2.266.824-2.382.928-4.675.247-4.051-7.502-1.294-21.045-1.475-29.581-.266-12.503-5.248-3.219-10.603-8.295zm-20.74.401c2.714-.366 5.966-1.037 8.681-.495 2.822.563 4.544 1.577 6.123 4.003 1.002 1.539.753.979.38 2.843-3.687 2.289-10.297 1.33-14.733 2.5 2.924 9.52 16.334 10.031 18.022 21.634a12.87 12.87 0 0 1-2.523 9.645c-3.131 4.144-6.678 4.781-11.6 5.601-4.84-1.248-8.37-2.814-11.532-6.79.058-2.912.257-3.366 1.783-5.863 3.758-.741 5.375 3.176 8.868 4.398 2.166.758 4.441-.006 6.313-1.095 1.757-1.022 1.185-.528 1.705-2.696-2.654-5.896-9.015-9.189-13.391-13.744-2.684-2.792-5.254-6.147-4.786-10.262.512-4.495 3.393-6.977 6.69-9.679m202.991-.244c.623-.043 1.245-.094 1.868-.131 5.986-.354 9.875.81 14.408 4.968l-.287 1.977c-3.405 2.204-10.535 1.236-14.792 2.246l-.817 1.604c3.588 7.476 15.31 10.033 17.955 19.253.784 2.731.602 4.874-.684 7.412-1.973 3.894-6.922 6.483-10.795 7.968-4.527-.113-8.63-.614-11.923-4.06-2.237-2.343-3.523-4.667-3.551-7.839 2.15-1.358 2.89-.899 5.357-.792 2.501 2.183 4.343 3.944 7.664 4.779 2.636-.51 3.848-.853 5.824-2.703l-.018-2.442c-2.926-4.766-7.922-7.943-11.9-11.813-2.819-2.744-5.472-6.481-5.041-10.618.47-4.506 3.49-7.051 6.732-9.809m-73.524-.655c.75.097 6.495.682 6.713.919 3.04 3.309-3.147 28.823 4.081 36.795 2.301.762 3.806 1.011 6.084-.174 9.73-5.061 2.642-26.738 5.966-36.047 2.295-1.67 2.539-1.253 5.407-.895 1.976 2.201 1.285 3.943 1.259 6.796.146 10 2.125 26.53-5.001 34.51-2.343 2.624-5.555 3.859-9.012 4.083-3.906.253-7.808-.739-10.617-3.572-8.206-8.277-5.062-31.163-4.88-42.415m-60.269.481c4.737 4.195 12.277 35.773 14.612 43.658l-1.012 1.369c-2.824.175-3.521.503-5.894-.948a48.6 48.6 0 0 0-4.234-7.772c-2.631-1.877-5.109-1.399-8.18-1.268l-1.449.073-1.812.08c-2.772 2.361-2.454 4.728-4.125 7.772-1.332 2.426-1.836 2.473-4.317 2.989-1.853-.516-2.702-.604-4.111-1.977 1.082-3.865 12.345-38.538 13.503-40.488 1.784-3.005 3.924-2.811 7.019-3.488"/><path d="M455.919 526.452c.241.189.508.35.722.569 2.592 2.65 3.657 8.023 3.795 11.638l-1.819 1.718c-2.415-.438-4.182-.438-5.887-2.365-.854-3.74 1.758-8.13 3.189-11.56"/><path fill="#fefefe" d="M556.896 511.817c6.334-.164 12.85-.959 18.519 2.438 4.007 2.402 7.118 5.826 8.099 10.499.805 3.836-.092 7.488-2.433 10.618-4.005 5.356-7.848 6.251-14.253 7.108l-2.141-.014c-2.458 3.93.411 9.723-1.678 14.269-2.475 1.098-2.887.768-5.58.182l-.329-1.515-.877-.968c1.845-2.983.644-36.276.673-42.617"/><path d="M564.373 519.686c2.112.065 4.63-.065 6.673.47 1.489.389 3.122 1.41 3.917 2.718 2.042 3.362.7 6.997-.256 10.486-3.49.676-6.476 1.159-9.615-.557-1.972-3.758-.969-8.972-.719-13.117"/><path fill="#fefefe" d="M481.046 512.03c5.851-.029 13.616-.968 19.198.883 3.943 1.307 6.439 3.891 8.224 7.582 5.007 10.35-4.699 11.565-6.769 19.003-.877 3.154 6.225 13.857 7.925 16.916l-.5.76-8.258.137c-2.337-5.607-4.709-13.097-9.767-16.739l-1.586.656c-1.846 4.629-.33 9.868-2.236 14.098-.651 1.446-1.715 1.489-3.068 2.078l-2.46-.97c-2.269-4.249-.735-37.135-.703-44.404"/><path d="M488.145 519.914c2.44-.075 5.528-.304 7.913.244 2.709.622 3.625 1.853 4.991 4.096.107 3.405-.626 5.255-2.115 8.289-3.551.697-6.605 1.536-9.938.04-1.948-3.479-1.016-8.759-.851-12.669"/><path fill="#fefefe" d="m551.643 347.232 32.23-.19-.055 144.802-31.812-.17zM444 345.804c10.131-.29 20.318-.086 30.455-.098 8.987 16.654 15.248 36.158 22.354 53.748l37.689 92.294-34.347.151a741 741 0 0 1-12.346-32.275l-10.555.063-46.341.125a632 632 0 0 0-11.698 32.28l-34.424.101c19.817-48.674 38.163-98.275 59.213-146.389"/><path d="M458.085 373.54c5.238 4.805 18.765 52.346 21.943 62.774l-20.25-.012-21.475-.207a2405 2405 0 0 1 19.782-62.555m961.845 717.87c10.59-.67 21.64.23 31.76 3.51 22.27 7.21 34.87 22.5 45.32 42.63 8.65-16.69 18.78-30.92 36.36-38.99 25.87-11.87 58.39-7.7 84.19 2.19 58.05 22.25 92.69 71.36 117.11 126.22 6.44 2.88 12.37 6.24 17.99 10.51 23.66 18.03 34.45 42.02 38.16 70.89 16.32 20.29 26.99 27.05 38.18 53.13 14.16 33.02 12.66 67.11-.4 100.12 9.74 13.56 17.66 28.88 20.77 45.4 5.52 29.31-5.41 55.89-21.65 79.78 9.09 21.68 14.09 44.01 10.66 67.6-5.05 34.73-27.66 56.89-54.47 76.89-6.63 22.59-15.85 41.9-32.24 59.11-27.5 28.86-57.27 37.23-95.93 37.96-4.78 12.55-11.06 23.65-20.52 33.29a84.03 84.03 0 0 1-58.36 24.82c-17.83.15-31.55-5.73-44.25-18.25-22-26.28-30.6-60.29-34.78-93.67-3.2 16.8-6.66 33.43-12.3 49.63-7.58 21.75-19.72 47.11-41.83 57.32-17.42 8.04-39.65 4.8-56.94-1.99-25.08-9.84-38.81-28.53-49.2-52.49-23.06.74-43.75-3-64.2-14.01-33.4-18-52.79-45.02-63.49-80.95a115.75 115.75 0 0 1-46.23-55.73c-11.88-30.69-8.03-58.69 4.99-88.08-6.8-11.9-12.34-23.75-15.89-37.04-8.73-32.77-4.6-60.34 12.37-89.4-7.8-18.67-10.31-40.3-9.23-60.4 2.24-41.86 22-71.69 52.35-99 .46-7.56 1.41-15.13 3.42-22.45 8-29.17 28.86-43.91 53.81-58 9.37-26.22 23.03-51.35 41.33-72.51 28.97-33.51 69.12-54.64 113.14-58.04"/><path fill="#fefefe" d="M1416.89 1117.4c7.14-.44 14.24-.49 21.31.82 11.07 2.07 20.41 7.2 26.75 16.66 11.15 16.64 14.31 46.55 16.02 66.5 2.44 28.58 1.65 57.67 1.7 86.33l-.33 145.23-.04 167.07c-.01 57.56 1.45 114.42-9.4 171.27-4.64 24.31-14.05 69.07-36.04 83.21-9.74 6.27-22.04 6-32.98 3.55a54.6 54.6 0 0 1-34.73-24.39c-15.96-25.6-10.69-60.03-4.27-87.71 20.79.41 32.18 2.46 46.26 18.91 2.21 2.58 4.49 5.88 7.73 7.22 3.03 1.26 7.56 1.23 10.51-.27 2.83-1.45 4.29-4.32 4.77-7.34 1.13-7.26-2.2-15.61-6.76-21.15-13.53-16.42-33.35-20.52-53.32-22.91-33.1-3.95-23.94-8.57-41.7-29.76-2.3-2.74-5.6-5.35-9.39-5.18-3.73.17-7.15 3.08-9.37 5.88-2.35 2.97-2.6 7.07-1.9 10.66 2.79 14.45 17.46 28.11 29.36 35.75-6.64 21.51-8.19 41.71-7.02 64.11a138 138 0 0 1-4.58.04c-26.52-.02-51.07-11.15-69.66-29.93a96.2 96.2 0 0 1-28.27-69.39c.21-23.91 8.08-46.33 25.49-63.11 19.87-19.18 43.98-25.84 70.96-25.5 15.69 12 30.72 21.8 50.98 23.05 15.98.98 37.7-4.24 49.62-15.39 3.34-3.12 5.96-7.28 6.02-11.97.03-2.88-1-5.53-3.05-7.56-3.37-3.33-7.62-4.09-12.16-4.26-9.28 6.08-18.48 12.04-29.63 13.93-13.4 2.27-27.1-2.31-37.76-10.41a52.8 52.8 0 0 1-20.6-35.36c-3.03-23.05 7.71-48.02 28.91-58.77 7.69-3.9 22.37-5.56 27.39-12.7 1.9-2.7 3.14-5.97 2.17-9.3-.81-2.82-2.94-4.9-5.42-6.33-5.6-3.22-11.61-2.72-17.6-1.05-21.87 6.1-40.14 20.06-51.07 40.08-12.22 22.39-12.24 46.66-5.21 70.6-25.22 2.5-50.89 13.76-69.59 30.93-21.84 20.06-32.94 48.53-34.08 77.76a205 205 0 0 1-5.95-6.77 81.12 81.12 0 0 1-3.18-99.63c5.57-7.62 14.02-12.35 20.03-19.45 1.86-2.2 3.51-5.56 3.5-8.5 0-3.61-1.25-6.78-4.08-9.13-3.09-2.58-7.25-3.54-11.21-3.06-8.11 1-13.88 9.75-18.74 15.58a102 102 0 0 1-6.94-14.08c-8.04-19.85-10.03-42.3-1.27-62.22 7.2-16.35 20.16-30.05 37.05-36.36 18.02-6.72 33.33-5.08 48.08 7.86 4.17 3.66 8.66 8.46 13.8 10.66 3.47 1.48 6.06 1.11 9.39-.48 2.87-1.38 5.41-3.53 6.15-6.78.77-3.42-.45-6.94-2.06-9.92-7.13-13.24-23.12-23.26-37.3-27.23-25.49-7.15-46.86.3-69.16 12.75a161 161 0 0 1-1.59-6.77c-10.25-48.34 12.25-96.66 56.51-119 12.52-6.32 25.52-7.8 38.33-12.77 2.86-1.11 5.59-2.7 7.06-5.52 1.35-2.58 1.51-5.52.68-8.28-1.07-3.61-3.56-6.38-6.9-8.03-10.28-5.09-32.9 4.53-43.16 8.12 8.11-25.19 24.97-33.54 46.83-45.14 4.58-7.49 7.43-16.3 10.83-24.39 6.3-15 14.27-29.33 24.46-42.05 24.59-30.7 59.03-54.98 98.82-59.23"/><path d="M1377.27 1174.04c2.21.22 4.6.45 6.68 1.3 2.99 1.24 5.88 4.07 7.12 7.07 3.88 9.38-5.67 14.93-10.9 20.84a47.5 47.5 0 0 0-8.05 12.71c-3.29 7.68-5.85 23.71-1.85 31.63 1.22 2.41 2.81 4.18 5.5 4.93 7.88 2.18 23.38-4.99 29.84-9.44 4.59-3.15 12.12-10.97 17.22-12.31 3.17-.84 7.59 1.59 9.9 3.59 2.91 2.51 4.55 5.77 4.76 9.6.26 4.74-3.4 9.64-6.5 12.84-16.24 16.79-37.39 20.2-59.68 20.35-19.03 18.03-32.47 36.43-33.2 63.63-.46 17.19 5.25 34.32 17.48 46.67 10.54 10.64 23.15 15.61 38 15.68 9.51-.68 17.02-4.91 26-7.37 4.06-1.11 9.98-.41 13.39 2.25 2.21 1.73 3.35 3.41 3.64 6.23.39 3.76-1.86 7.76-4.33 10.41-9.01 9.66-28.35 13.41-41.17 13.44-20.73.05-40.49-9.36-54.85-24.09-16.37-16.79-24.39-40.33-23.91-63.57.63-30.71 14.8-56.54 36.65-77.47-6-20.95-7.83-40.53 1.45-60.9 5.48-12.04 14.13-23.21 26.81-28.02"/><path fill="#fefefe" d="M1566.31 1117.4c16.69-.25 32.92 3.39 48.15 10.13 36.67 16.24 62.81 46.97 81.84 81.47 5.95 10.78 10.93 23.7 18.55 33.33 4.54 5.74 10.55 8.76 16.7 12.46 14.22 8.55 23.07 20.76 28.96 36.06-13.17-4.91-36.47-13.29-50.39-7.98-2.93 1.11-5.26 3.1-6.29 6.15-1.22 3.58-.69 8.2 1.41 11.36 5.48 8.26 23.25 7.25 32.33 9.5 24.94 6.19 48.12 27.14 60.71 48.93 16.08 27.84 18.04 53.89 9.94 84.53-3.81-2.67-7.67-5.34-11.65-7.74-17.55-10.63-38.23-14.86-58.29-9.65-12.24 3.18-28.68 10.56-34.89 22.02-1.98 3.67-3.32 8.57-1.49 12.57.97 2.13 2.72 3.61 4.83 4.53 12.15 5.3 24.43-10.8 35.94-14.57 12.87-4.22 26.64-1.5 38.37 4.69 19.01 10.04 34.56 29.32 40.8 49.86 6.31 20.78-.49 41.68-10.15 60.16-6.1-6.69-15.5-19.66-24.95-20.52-4.4-.4-9.01.34-12.38 3.41-2.11 1.92-3.13 4.49-3.08 7.3.16 7.93 9.01 14.01 14.3 19.1 17 16.37 26.21 40.9 26.48 64.29.3 24.61-9.89 43.08-26.66 60.33-2.14-24.55-10.7-47.6-25.94-67.05-20.53-26.22-48.17-41.78-81.14-45.92 4.75-19.29 5.75-38.35-1.05-57.28-7.94-22.09-23.55-38.82-44.82-48.64-7.77-3.6-22.67-9.01-30.75-4.96-3.07 1.54-5.02 4.4-5.74 7.71-3.55 16.35 16.53 15.83 26.27 20.34a60.8 60.8 0 0 1 25.38 22.3c8.46 13.26 10.56 28.76 6.93 43.94a55.35 55.35 0 0 1-26.02 35c-13.56 7.91-28.11 7.94-42.77 3.98-7.85-3.18-19.47-15.87-24.75-16.13-3.43-.17-6.63 1.2-9.16 3.48-2.81 2.54-4.6 5.99-4.49 9.83.16 5.38 3.84 10.13 7.55 13.7 12.99 12.47 32.06 18.14 49.79 17.76 24.34-.53 42.14-10.94 58.71-27.99 25.09 2.64 46.43 9.84 65.21 27.3 19.08 17.74 29.98 40.99 30.82 67.07a97.86 97.86 0 0 1-27.21 70.21c-18.88 19.69-44.75 28.62-71.58 29.25.88-23.62-.89-45.24-4.04-68.57.86-.62 1.71-1.26 2.54-1.92 8.09-6.42 18.58-18.8 19.36-29.34.32-4.3-1.61-8.88-4.54-12-1.73-1.83-3.92-2.96-6.5-2.74-10.79.9-20.1 19.62-29.19 25.7-23.07 15.43-48.54-1.23-74.05 30.55-4.21 5.25-6.84 12.58-5.93 19.35.4 3.02 1.76 6.08 4.48 7.7 13.63 8.11 23.26-16.09 33.93-20.75 10.81-4.71 24-4.22 35.57-6.17a169 169 0 0 1 1.57 9.18c3.67 26.75 4.72 62.27-13.1 84.78-9.36 11.84-23.84 19.58-38.83 21.29-10.09 1.15-19.26-.68-27.3-7.16-28.34-22.85-37.97-91.57-41.77-127.08-4.59-42.83-4-85.66-4.05-128.66l.1-162.08.01-138.59c.01-29.56-1.11-59.56 1.72-89 2.14-22.14 6.79-58.83 21.16-75.84 9.04-10.69 21.33-13.09 34.53-14.27"/><path d="M1608.27 1173.87c3.67-.13 6.82.47 10.18 1.99 12.67 5.74 20.92 18.55 25.57 31.24 6.33 17.28 7.72 38.46-.15 55.4 17.37 17.96 29.44 37.28 32.64 62.42 3.18 25.06-2.82 50.13-18.39 70.18a83.64 83.64 0 0 1-55.99 32.19c-12.71 1.56-28.48.66-38.68-7.88-4.09-3.43-6.8-8.14-7.08-13.53-.15-2.97.63-6.05 3.01-8.03 7.17-5.95 16.52.53 23.61 2.66 2.86.85 6.17.84 9.13.97 15.7-.66 30.11-5.86 41.27-17.2 12.36-12.55 18.22-30.13 17.86-47.54-.49-24.16-12.87-44.48-30.02-60.73-23.79-1.55-41.16-1.83-60.42-18.14-4.12-3.49-9.46-8.86-9.39-14.72.04-2.9 1.42-5.47 3.44-7.47 13.55-13.4 23.37 8.02 35.51 12.12 10.3 3.48 21.6 2.68 32.29 2.32.58-3.67 1.09-7.33 1.23-11.05.5-13.67-3.94-29.26-14.63-38.39-2.72-2.32-6.99-3.94-9.12-6.75-2.04-2.69-3.09-5.73-2.36-9.11 1.19-5.48 5.94-8.48 10.49-10.95m-333.8-260.368a1797 1797 0 0 1 29.58-.106l.78 231.264c-25.04.81-50.26.29-75.31.3l-135.35.03-406.485.04c24.906 26.91 43.356 55.23 55.589 89.92 14.382 6.47 27.676 13.39 37.834 25.85 11.502 14.11 14.085 30.92 12.319 48.55 16.378 12.36 29.834 27.29 39.383 45.55 18.918 36.18 16.647 74.23 4.748 112.04 6.328 11 12.301 21.92 15.484 34.3 8.073 31.39-2.897 60.35-18.786 87.1 12.866 26.16 15.13 54.38 6.096 82.2-8.321 25.63-25.491 45.59-49.396 57.91-6.916 22.38-14.997 42.71-31.557 59.84-24.78 25.63-57.056 34-91.721 34.65-2.552 6.26-5.103 12.52-8.295 18.49-10.643 19.9-27.317 34.71-49.167 41.05-18.447 5.35-40.717 5.13-57.725-4.58-21.902-12.5-30.623-35.57-36.895-58.6-4.509 16.81-10.567 32.76-22.492 45.81-11.824 12.94-26.767 20-44.333 20.7-23.582.93-43.866-7.82-61.066-23.53-11.514-11.28-17.735-24.77-23.418-39.62-25.443-.86-52.183-6.06-74.319-19.18-28.61-16.96-42.99-44.25-50.878-75.42-20.352-11.96-37.478-27.09-46.94-49.19-13.789-32.2-8.363-63.87 4.384-95.16-7.75-10.85-12.831-23.34-16.107-36.22-7.839-30.81-2.227-55.75 13.906-82.53-7.591-18.97-9.683-39.3-7.952-59.57 3.259-38.16 22.434-69.77 51.363-94.04.364-5.54 1.059-11.13 2.427-16.51 7.238-28.52 28.403-46.66 52.606-61.26 2.714-6.93 5.096-13.98 7.949-20.86 18.253-43.97 56.4-85.14 100.685-103.48 24.426-10.11 55.848-15.65 81.035-4.94 17.879 7.6 25.95 22.18 32.793 39.22 2.699-7.91 5.821-15.18 10.905-21.86 10.553-13.89 25.293-20.06 42.091-22.12 40.14-4.92 78.343 12.31 109.262 36.68l.461-221.9c61.463-1.42 123.21-.218 184.701-.214z"/><path fill="#fefefe" d="m1226.04 919.5 72.9-.011.2 219.631-542.64.14-73.342-.09c-1.258-73.04.076-146.32-.034-219.384z"/><path d="M1008.38 1038.03c3.09-.01 6.33-.5 8.95 1.38 2.76 12.5.64 42.36.54 56.64-2.96.03-6.05.46-8.68-1.09-3.04-15.54-.14-40.17-.81-56.93m-81.244-82.804c7.919-.157 16.064-.642 23.962-.079 3.817.272 7.362.607 10.026 3.645.146 2.509-.208 2.828-1.503 5.031-3.5 1.718-8.577 1.038-12.486 1.064a1775 1775 0 0 0 .163 39.723l1.109.82c-.376 2.66-.492 5.62-2.76 7.42-1.924 1.52-3.527 1.71-5.844 1.44-4.997-7.29.626-37.227-2.591-49.28-3.008-2.009-5.459.158-9.021-1.34-1.807-2.707-1.263-5.364-1.055-8.444m269.624.745c8.84.018 17.79-.899 26.62-.308 3.47.232 6.35.621 8.75 3.32.46 2.233.61 3.451-.06 5.645-3.94 1.518-9.85.639-14.08.552l.03 38.05c.14 3.93.9 7.99-1.66 11.14-2.82 0-4.21.28-6.7-1.13-2.58-11.72-.48-35.055-.34-48.155-3.63.082-8.84.903-12.05-.931-1.63-2.663-.9-5.254-.51-8.183m-169.07 82.299c9.54-.15 28.57-3.52 36.23 2.51.97 2.48 1.2 2.68.52 5.22-4.28 2.44-9.63 1.39-14.48 1.16l.01 35.32.05 4.01c.03 1.4.09 2.8.04 4.19-.12 3.07-.92 4.67-3.13 6.73-1.22-.05-1.45.11-2.43-.38-.85-.43-2.72-1.98-3.08-2.83-3.47-8.06 2.05-35.35-1.09-46.63-4.24-2.8-7.53 1.96-11.98.41-1.54-2.79-.83-6.63-.66-9.71m-51.561-83.144c6.129-.407 10.787-.006 16.273 3.198 2.404 1.404 2.915 2.584 3.611 5.166-.867 2.624-1.373 3.764-3.541 5.511-2.839-.031-3.819-1.125-6.15-2.709-2.478-1.685-3.73-2.82-6.908-2.771-2.471 1.161-3.375 1.819-4.783 4.171.937 10.337 20.535 14.163 24.159 25.901 1.22 3.957.351 7.787-1.581 11.347-3.452 6.36-7.367 8.4-14.085 10.56a117 117 0 0 1-3.257-.25c-5.032-.47-9.841-1.68-13.054-5.9-2.02-2.65-2.821-4.5-2.353-7.79 5.745-2.935 16.206 7.18 23.549 3.63 1.493-.73 1.862-1.86 2.189-3.45 2.467-11.986-18.942-17.739-24.362-26.901-1.392-2.352-1.844-4.831-.959-7.482 1.763-5.276 6.674-9.477 11.252-12.231m196.141.521c3.03 3.317 22.84 50.403 26.51 58.493l-10.14.46c-1.36-3.99-2.73-10.69-6.11-13.36-2.79-2.203-7.41-1.51-10.78-1.371l-10.25-.049c-1.77 4.45-3.6 11.38-7.55 14.29-2.85.1-5.16.16-7.93-.68 5.39-15.294 18.25-43.503 26.25-57.783"/><path fill="#fefefe" d="M1171.39 974.726c.25.252.54.465.74.756 2.49 3.668 6.06 11.165 4.99 15.521l-2.98.834c-3.08-.169-5.18.214-7.73-1.603-.61-5.006 2.97-10.821 4.98-15.508"/><path d="M1009.94 955.097a695 695 0 0 1 31.41.082c1.86 1.8 2.28 2.721 2.78 5.251-.35 1.3-.2 1.483-1.07 2.364-4.29 4.339-18.39 2.455-24.13 2.358l-.07 12.979c5.87-.037 12.12-.688 17.93-.388 2.88.148 4.68 1.075 6.69 3.132.63 2.236.88 2.837.36 5.067-7.03 3.183-16.75-.87-24.36 1.596l-.68 2.212.07 15.5c7.01-.13 19.55-2 25.19 2.22.85 2.26.89 2.11-.04 4.33-6.14 5.47-25.53 2.9-34.03 2.86-.16-19.837-.65-39.738-.05-59.563m212.89 122.373c.1-6.63-1.2-36.21 1.93-39.83 2.74.15 4.37-.15 6.74 1.37 2.49 17 .37 39.11.19 56.65l-1.02.87c-5.81-3.43-30.35-30.48-37.61-37.76-.09 7.63.29 15.24.32 22.87.02 5.42.29 10.75-3.76 14.78l-2.83-.07c-.52-.55-1.24-.96-1.55-1.64-1.44-3.09-.32-50.04-.35-57.36 9.1 6.41 29.61 30.73 37.94 40.12M908.189 955.214c2.714-.057 5.117.113 7.806.494 2.978 4.078 1.871 50.302 1.927 58.652-12.405-13.28-25.36-25.671-38.977-37.699l-.056 36.629c-3.012-.03-5.464.08-8.244-1.29-2.527-17.548-.519-40.154-.418-58.225 12.43 13.292 25.613 25.944 38.154 39.161zm-124.866-.522c3.597 10.625 5.085 31.016 7.412 43.211.77 4.037 3.424 9.497 3.061 13.457-.145 1.58-1.024 1.68-2.202 2.52-2.489.25-4.227.69-6.507-.55-3.463-9.19-4.227-20.93-5.943-30.717-4.625 11.337-10.057 22.267-14.482 33.707-5.141-11.29-9.922-22.762-14.824-34.159l-1.753 12.458c-1.134 4.809-.943 9.841-2.056 14.591-.644 2.75-1.434 3.59-3.795 4.98-2.775-.31-4.091.11-6.126-1.97.208-13.816 8.1-42.486 10.83-58.138 5.699 13.789 10.898 28.625 18.291 41.572 6.209-13.326 10.655-28.343 18.094-40.962m129.401 83.548c7.665-.25 16.463-1.25 23.765 1.58 4.173 1.61 7.741 4.46 9.514 8.65 1.789 4.23 1.441 9.11-.264 13.31-2.201 5.43-5.712 6.89-10.822 9.06a182 182 0 0 0 17.586 25.15c-3.914.12-8.824 1-12.358-.7-6.126-9.21-11.708-18.7-18.215-27.66.01 6.99 2.02 23.59-2.553 28.97-2.443.14-2.49.01-4.531-1.38-4.282-7.83-2.097-45.28-2.122-56.98"/><path fill="#fefefe" d="M922.057 1047.08c3.817 0 8.392-.25 11.95 1.39 2.105.97 3.635 2.49 4.105 4.84.561 2.81-.963 5.74-2.108 8.21-4.791 1.46-9.099 1.4-14.041 1.39z"/><path d="M1073.89 1038.19c5.19-.16 10.82-.55 15.97.07 6.64.81 14.11 4.74 17.86 10.36 1.89 2.83 2.93 6.3 1.85 9.65-1.99 6.21-7.42 9.9-13.03 12.41a450 450 0 0 0 17.72 25.25c-3.94.09-8.43.67-12.18-.66-6.2-9.04-11.48-19.03-18.9-27.14-.08 6.21 1.94 22.94-1.13 27.45-2.67.12-4.87.41-7.32-.88-2.89-11.99-.88-42.57-.84-56.51"/><path fill="#fefefe" d="M1083.01 1046.1c3.72.11 8.17.01 11.6 1.7 2.15 1.07 3.84 2.57 4.36 5.03.61 2.92-1 5.72-2.28 8.21-4.36 1.25-9.26 1.35-13.78 1.78z"/><path d="M1055.06 955.173c6.33-.063 15.78-1.155 21.76.568 4.36 1.256 8.27 4.488 10.44 8.441 8.43 15.31-6.08 16.872-8.63 24.773 4.09 8.925 11.86 17.295 17.8 25.185-2.13.12-4.29.27-6.43.25-2.92-.02-4.43.18-6.52-1.84-4.82-7.51-9.95-17.585-16.46-23.616l-1.63.27c-2.93 7.939.83 17.076-3.28 24.826-2.48 1.54-2.52 1.37-5.44.96-3.15-3.55-1.61-51.482-1.61-59.817"/><path fill="#fefefe" d="M1064.08 962.971c3.27-.002 6.81-.165 9.94.929 1.93.672 4.11 2.16 4.94 4.034 1.75 3.938.16 7.492-1.4 11.205-2.34.741-5.34 1.721-7.77 1.86-2.6.147-3.16-.394-4.97-1.952-1.82-4.935-.93-10.877-.74-16.076"/><path d="M1103.84 955.44c7.26-.195 15.84-1.228 22.84 1.111 4.12 1.374 8.12 4.014 10.07 8.003 2 4.111 1.57 8.716.01 12.896-2.18 5.82-5.75 8.173-11.23 10.64 4.81 7.953 12.9 15.98 15.59 24.85l-1 1.27c-3.21.09-6.06.36-9.1-.88-5.39-9.38-11.79-18.949-18.61-27.344-.36 7.856 1.83 20.804-.9 27.724-2.56.54-4.15.29-6.66-.16-3.37-5.09-1.48-49.284-1.01-58.11"/><path fill="#fefefe" d="M1112.32 963.72c3.49.024 8.53-.382 11.73 1.288 2.19 1.138 3.67 2.223 4.21 4.76.62 2.907-1.09 6.101-2.26 8.67-2.23.895-5.27 1.913-7.66 2.085-2.66.192-3.24-.186-5.22-1.692-1.93-4.574-1.01-10.225-.8-15.111"/><path d="M960.305 1037.92c7.397-.39 14.404-.24 21.495 2.11 14.611 4.83 6.556 12.64 6.233 21.67-.108 3.02 7.88 9.26 9.185 12.77 1.776 4.78-.79 10.72-2.815 14.98-9.679 8.66-21.975 6.71-34.061 6.54z"/><path fill="#fefefe" d="M969.312 1045.76c2.643.13 6.321.21 8.725 1.43 2.05 1.05 3.56 2.29 4.085 4.64.61 2.72-.814 5.56-1.918 7.96-3.783 1.02-6.488 1.64-10.02-.09-2-3.84-1.024-9.67-.872-13.94m.148 22.82c3.535-.02 7.626-.32 11.084.51 2.779.66 6.128 2.38 7.371 5.09 1.643 3.59.18 7.46-1.201 10.82-5.465 2.63-11.238 2.83-17.167 3.25z"/><path d="M1144.84 1037.22c5.58.31 11.17 1.6 16 4.49a27.22 27.22 0 0 1 12.62 18.25c1.66 8.43 0 17.68-5.07 24.7-5.65 7.81-12.5 10.69-21.73 12.14-5.7-.08-11.4-1.25-16.29-4.25-6.87-4.22-11.32-10.97-12.98-18.82a29.33 29.33 0 0 1 4.3-22.74c5.63-8.3 13.62-11.85 23.15-13.77"/><path fill="#fefefe" d="M1142.33 1046.99c3.28.01 6.57.03 9.72 1.09 5.03 1.7 9.24 5.2 11.51 10.02 2.37 5.02 2.36 10.86.29 15.97-2.78 6.89-7.82 10.47-14.47 13.2-3.07.08-6.64.14-9.6-.75-4.94-1.5-9.49-5.49-11.76-10.09a19.95 19.95 0 0 1-.55-16.5c2.88-7.04 8.07-10.24 14.86-12.94"/><path d="M869.471 1037.34c6.327.26 12.418 1.4 17.866 4.8a29.23 29.23 0 0 1 13.125 18.74c1.835 8.54.108 17.82-5.017 24.95-5.707 7.93-12.909 10.59-22.193 11.91-7.061-.27-13.221-1.19-19.115-5.39-6.623-4.73-10.575-11.93-11.886-19.88-1.371-8.32.316-17.26 5.525-24 5.702-7.38 12.807-9.75 21.695-11.13"/><path fill="#fefefe" d="M865.102 1047.15c3.75-.53 7.542-.85 11.264.1a21.2 21.2 0 0 1 12.747 9.49 21.6 21.6 0 0 1 2.101 17.3c-2.183 7.15-6.903 11.1-13.334 14.39-3.649.46-7.496.65-11.106-.2a21 21 0 0 1-13.463-10.24 21.4 21.4 0 0 1-1.718-16.21c2.165-7.41 6.905-11.2 13.509-14.63"/><path d="M825.845 955.132c6.079-.415 12.049.155 17.643 2.736 7.078 3.264 12.299 9.154 14.845 16.503 2.823 8.149 2.039 17.612-1.933 25.247-4.497 8.642-11.326 12.792-20.288 15.782-6.636.16-12.92-.05-19.057-2.87-7.277-3.35-12.914-9.24-15.467-16.886-2.693-8.062-1.846-17.471 2.209-24.936 4.83-8.894 12.6-13.05 22.048-15.576"/><path fill="#fefefe" d="M826.218 964.133c3.77-.23 7.522-.146 11.111 1.192a21 21 0 0 1 11.77 11.171 21.8 21.8 0 0 1-.078 17.47c-3.085 6.954-8.243 10.184-15.089 12.844-3.219.16-6.295.19-9.423-.73a21.07 21.07 0 0 1-12.977-10.871 21.5 21.5 0 0 1-.552-17.427c2.949-7.365 8.206-10.674 15.238-13.649M442.539 1110.38c13.083-1.26 27.824-.13 39.549 6.29 13.796 7.55 20.372 22.05 24.361 36.55 6.833 24.84 3.815 78.73 3.752 106.54l-.27 149.52.103 223.67c.061 50.23 1.477 100.87-2.136 150.99-1.49 20.67-3.732 43.32-14.44 61.57-7.91 13.48-20.027 24.01-35.48 27.73-16.897 4.07-35.922-.4-50.549-9.37-19.885-12.2-30.433-34.14-35.692-56.16-5.768-24.16-3.311-47.29 9.858-68.45 16.179-2.75 38.577-1.44 50.777 10.72 4.902 4.89 7.987 12.32 14.832 14.68 1.493-.36 2.141-.22 3.194-1.48 1.53-1.83 2.274-4.47 1.721-6.84-1.174-5.05-6.547-9.77-10.318-13.01-15.503-13.32-30.71-16.26-50.678-15.8-3.5.08-9.175.59-12.313-1.04-13.241-6.89-26.054-28.15-33.71-32.76-2.152-1.29-2.975-.6-5.176.11-.455 1.33-.415 2.52-.264 3.91 1.51 13.88 20.505 28.27 30.855 36.2-13.666 25.45-15.079 49.05-9.968 77.19-19.002-.42-38.592-4.11-55.772-12.43a99.1 99.1 0 0 1-50.818-58.03c-9.102-27.02-8.088-59.47 4.836-85.1 19.234-38.14 49.565-44.36 87.014-56.64 2.516 3.55 5.029 7.15 7.945 10.39a68.03 68.03 0 0 0 47.681 22.86c16.311.66 36.134-5.06 47.913-16.9 2.486-2.49 4.223-5.9 4.178-9.45l-1.585-1.24c-5.948-.24-8.883 1.44-13.291 5.19l-1.162 1c-2.971 1.99-6.166 3.6-9.439 5.04-13.892 6.09-30.348 6.57-44.427.86-15.08-6.11-26.488-19.37-32.777-34.14a62.45 62.45 0 0 1-.449-48.24c5.802-14.25 19.636-30.82 34.419-35.98 6.224-2.17 14.658-3.27 20.308-6.48 2.668-1.51 2.516-2.47 3.225-5.27-.567-1.26-.589-2-1.899-2.69-4.731-2.49-12.282-.96-17.153.41-19.351 5.45-35.971 20.29-45.392 37.82-11.79 21.93-10.723 42.28-3.902 65.51-26.856 13.96-48.386 11.53-72.015 35.84-25.201 25.94-31.419 55.48-30.957 90.38a92 92 0 0 1-12.003-8.96c-18.237-15.88-28.278-38.92-29.642-62.88-1.121-19.66 4.302-44.46 16.66-60.21 5.529-7.04 12.943-12.55 18.468-19.47 1.438-1.8 2.673-3.77 1.815-6.17-.958-2.66-1.94-3.1-4.356-3.9-9.298 1.82-18.476 14.93-24.503 21.96-2.939-5.29-5.816-10.57-8.071-16.19-8.595-21.43-10.753-45.87-1.481-67.45 7.384-17.18 22.182-32.74 39.773-39.52 15.119-5.82 39.882-6.74 53.147 3.64 4.821 3.77 10.149 11.03 15.831 13.12 2.142.78 4.048.8 6.129-.15l.784-2.32c-.839-3.91-2.614-6.92-5.008-10.12-7.352-9.82-25.68-17.73-37.627-19.58-24.188-3.74-44.18 6.76-63.106 20.65-9.518-27.39-8.743-55.86 1.515-82.99a115.8 115.8 0 0 1 72.135-69.98c6.961-2.28 18.346-2.43 24.187-5.97 2.266-1.38 2.548-1.77 3.09-4.16-1.133-2.04-2.109-3.11-4.315-4.03-13.628-5.72-37.983 7.54-50.691 13.14 7.626-29.78 26.049-44.43 51.346-59.77 10.033-26.55 21.28-50.98 39.336-73.2 25.559-31.45 61.377-54.57 102.098-58.96"/><path d="M403.579 1178.63c1.071-.01 2.375-.07 3.416.17 2.322.54 3.567 1.75 4.72 3.71-.01 5.14-15.47 18.44-19.845 25.94-9.811 16.81-10.724 34.39-5.922 52.92 15.492-.74 35.548-2.51 48.225-12.63 5.838-4.66 11.312-11.54 17.747-15.24 2.358-1.36 4.471-.67 6.986-.19 1.567 1.37 1.739 1 1.984 3.22-1.215 3.49-3.039 5.85-5.563 8.54-11.638 12.4-31.173 22.79-47.933 25.63-5.491.93-11.795.65-17.379.73-7.671 4.62-14.578 10.01-20.157 17.06-13.38 16.92-18.75 40.89-16.187 62.09 2.508 20.73 11.782 38.67 28.144 51.68 5.082 3.43 10.284 6.33 16.119 8.26 16.419 5.44 24.232-.51 38.379-7.03 3.814-1.76 7.915-2.42 11.882-.82l.604 2.84c-2.476 4.5-5.785 7.51-10.073 10.33-11.11 7.31-26.204 8.64-39.066 6.05-18.532-3.72-33.203-15.18-43.396-30.84-13.809-21.2-17.626-47.95-12.379-72.54 4.47-20.95 15.136-40.28 33.266-52.19-4.032-11.18-6.206-23.07-4.759-34.94 2.648-21.71 14.341-39.39 31.187-52.75"/><path fill="#fefefe" d="M570.684 1110.33c20.139-3.3 42.742 2.76 61.051 10.82 53.197 23.41 83.147 69.9 103.364 122.23 12.415 4.92 24.752 11.12 34.069 20.91 10.646 11.19 14.223 23.35 13.858 38.43-11.377-7.39-26.14-13.44-39.515-15.78-3.56-.62-6.805-1-9.883 1.24-.991 2.63-.701 3.42-.225 6.23 2.818 3.46 17.669 6.16 22.27 7.62 28.177 8.95 53.492 31.52 66.876 57.72 15.846 31.02 17.177 65.47 6.395 98.27-15.433-13.2-33.075-22.04-53.641-22.45-16.777-.34-37.825 6.54-49.765 18.71-2.457 2.51-3.458 4.54-3.336 8.14 1.438 2.58 1.79 3.04 4.294 4.59 4.426-.53 21.047-14.94 32.3-18.15 15.99-4.56 33.788-1.37 48.044 6.9 17.439 10.11 30.023 28.21 34.947 47.62 6.425 25.32-.958 53.02-13.86 75.07-4.623-5.72-10.194-16.98-17.246-19.22-2.581-.82-3.94-.48-6.336.56l-.674 2.22c1.636 6.92 11.516 16.21 15.553 22.54 14.081 22.09 18.404 47.25 12.687 72.83-5.434 24.3-17.612 43.21-38.601 56.67 1.792-26.53-2.305-51.45-16.267-74.46-19.761-32.57-51.363-42.02-86.347-50.6 5.181-15.89 7.352-32.23 3.005-48.61-5.444-20.51-19.592-36.59-37.74-47.11-6.975-4.05-20.184-12.56-28.591-9.22-2.629 1.05-2.93 1.54-4.02 3.94 1.096 2.47 1.932 3.62 4.359 4.95 4.589 2.52 10.171 3.53 15.047 5.46 14.814 5.85 28.277 18.15 35.402 32.37a62.87 62.87 0 0 1 3.081 48.99c-5.523 16.03-16.927 29.33-32.391 36.52-16.145 7.5-31.427 5.25-47.425-.53-4.715-2.23-12.04-9.41-16.878-9.39-2.699.02-3.335.31-5.081 2.11-.134.8-.264 1.19-.054 2.07 1.038 4.34 4.979 8.04 8.386 10.63 12.875 9.76 33.04 12.42 48.764 10.16 21.456-3.07 36.309-16.13 48.857-32.94 22.22 5.68 47.243 11.06 64.887 26.58 18.521 16.28 30.262 42.01 31.764 66.49 1.777 28.97-8.53 64.37-28.061 86.21-21.577 24.12-51.321 32.25-82.517 33.89 5.767-28.33 3.077-49.41-7.656-76.22 8.567-7.16 16.995-14.51 23.661-23.54 3.167-4.29 6.902-9.42 5.244-15.11-.749-2.58-1.226-3.03-3.361-4.32-7.638 1.13-12.175 14.62-16.834 20.31-4.488 5.47-11.348 10.7-17.398 14.36l-1.116.66c-.271-.04-.54-.08-.812-.11-21.108-2.51-42.721.91-59.565 14.65-4.667 3.81-11.471 10.23-11.681 16.68-.081 2.48.74 3.77 2.426 5.4 7.353.46 14.638-11.93 20.535-16.32 4.894-3.64 10.628-6.19 16.49-7.82 8.082-2.23 21.418-4.85 28.903-.28 6.502 3.97 8.888 12.45 10.408 19.44 5.965 27.42 1.267 58.08-14.128 81.8-10.468 16.12-26.541 28.47-45.622 32.21-15.58 3.06-32.61 1.57-45.941-7.65-17.241-11.91-25.072-33.26-28.592-53.09-7.386-41.62-5.405-88.63-5.701-131.02l.072-225.13-.204-186.24-.248-61.04c-.048-13.15-.574-26.49.611-39.59 1.313-14.53 4.973-28.8 13.733-40.72 9.235-12.57 21.293-16.33 35.97-18.54"/><path d="M627.657 1178.41c.615.12 1.234.22 1.846.36 10.195 2.31 19.064 13.31 24.025 22.04 12.623 22.19 10.825 43.97 4.215 67.71 12.497 11.91 23.721 23.17 30.013 39.55a89 89 0 0 1-2.266 68.86c-8.883 19.44-23.989 35.62-44.398 42.92-13.314 4.77-28.587 4.77-41.37-1.68-4.05-2.05-9.373-5.64-10.725-10.26-.666-2.28-.361-2.64.677-4.6 6.482-2.51 15.224 4.45 21.349 6.59 12.558 4.39 24.35.99 35.735-4.78a62 62 0 0 0 2.971-1.93 75.96 75.96 0 0 0 31.1-48.43c3.776-20.18-.487-41.89-12.252-58.78-4.556-6.54-17.034-21.64-24.934-22.89-9.121-1.45-19.071-2.66-27.859-5.51-10.65-3.46-32.072-14.21-36.751-24.58-1.401-3.11-.836-5.36.31-8.31.614-.48 1.086-1.25 1.842-1.43 2.522-.59 17.668 13.47 20.745 15.54 14.52 9.74 29.173 11.33 46.158 12.28a108 108 0 0 0 1.295-4.21c5.323-18.78 3.733-40.42-9.612-55.73-4.506-5.17-10.832-9.77-14.126-15.76-.137-3.35.475-4.09 2.012-6.97"/></svg>