<svg xmlns="http://www.w3.org/2000/svg" display="block" viewBox="0 0 2048 2048"><path fill="#fefefe" d="M0 0h2048v2048H0z"/><path fill="#0d4058" d="M787.666 642.874c32.797 5.201 74.532 25.925 102.436 43.739 43.88 28.012 76.772 65.415 97.698 113.179 4.924 11.239 9.937 23.494 12.57 35.504-5.874-6.598-10.344-16.419-15.023-24.007a501 501 0 0 0-21.309-31.532c-49.054-66.993-101.034-104.091-176.372-136.883M674.615 1768.82c9.681 1.51 36.875 16.69 47.772 21.69 32.939 15.12 66.02 30.24 99.718 43.61 48.001 19.04 97.184 32.74 146.758 46.88-16.256.54-33.983-3.53-49.962-6.29-86.522-14.99-176.964-48.04-244.286-105.89"/><path fill="#34778d" d="m761.905 1477.46 1.6.27c.459.69.936 1.36 1.355 2.07 4.168 7.07 7.296 15.15 10.988 22.5 6.495 12.93 14.986 26.04 19.111 39.94 1.407 4.75 2.053 9.92.616 14.74-1.296 4.34-4.182 7.68-8.263 9.64-12.869 6.18-33.167 2.52-46.044-2.13-35.182-12.69-44.054-35.07-58.721-66.76l-9.693-19.59 18.545-.16c10.418 19.78 17.838 51.6 36.812 63.71 8.594 5.49 22.868 10.81 33.065 7.95 2.872-.81 5.325-2.77 6.47-5.57 4.651-11.33-21.564-53.98-27.73-65.95 7.305-.02 14.591-.35 21.889-.66"/><path fill="#0d4058" d="M641.105 669.408c49.173-7.028 116.367 10.643 156.726 38.769 25.116 17.503 43.424 36.475 49.031 67.242-20.067-38.529-49.585-53.8-88.2-70.577-60.9-23.782-133.882-27.444-197.132-12.063-19.171 4.663-37.04 11.62-55.474 18.45 41.992-25.622 86.376-37.743 135.049-41.821m-82.318 937.512c12.408 4.82 31.693 19.81 43.482 27.59a1727 1727 0 0 0 60.891 38.07c72.188 42.9 146.909 75.92 226.098 103.62-31.558-3.95-63.434-12.38-93.637-22.21-93.071-30.29-168.674-76.6-236.834-147.07"/><path fill="#34778d" d="m466.125 1474.87 20.288.1c15.775 15.97 32.599 30.77 49.257 45.8 17.215 15.54 34.155 31.3 52.733 45.22-10.087.03-20.018.46-30.076 1.16-6.188-6.62-12.747-12.91-19.194-19.27a1269 1269 0 0 1-52.783 2.49l-1.357 18.76c-8.443-.03-16.802.46-25.221 1.01a1547 1547 0 0 0 6.353-95.27"/><path fill="#fefefe" d="M485.961 1497.61c10.436 7.92 26.149 21.77 33.642 32.33-11.02.67-22.062.81-33.098 1.03z"/><path fill="#34778d" d="M811.918 1475.89c9.08-.16 18.199.06 27.282.1 17.246 17.63 35.784 34.03 53.828 50.85 17.376 16.19 34.315 32.87 52.29 48.4l-18.075-1.69c-5.011-.86-10.617-.44-15.712-.49-7.856-7.22-15.538-14.65-23.292-21.97l-52.389-.1-.616 17.18-19.019-.07a945 945 0 0 0-4.297-92.21"/><path fill="#fefefe" d="M840.464 1501.59c9.602 7.16 21.158 17.33 28.806 26.51l-.6 1.35-30.067.3c.324-9.41 1.104-18.78 1.861-28.16"/><path fill="#0d4058" d="M794.342 567.352c16.055 1.241 31.749 1.901 47.628 4.983 64.857 12.59 130.827 47.248 179.22 92.177 50.19 46.592 87.1 110.937 104.74 176.943 3.44 12.904 7.32 27.449 7.85 40.781-7.55-28.418-21.62-59.589-35.16-85.718A449.84 449.84 0 0 0 858.448 585.49c-11.93-4.555-24.261-8.812-36.682-11.793-8.468-2.033-17.641-3.1-25.875-5.818zM901.845 1603.13c11.562.64 24.434 4.82 35.655 7.84a883 883 0 0 1 93.48 29.96 828.5 828.5 0 0 1 125.97 60.21c73.77 43.93 161.26 116.69 196.93 196.35-10.25-7.17-21.35-25.75-30.54-35.68-24.44-26.42-50.47-51.86-78.47-74.51-62.64-50.67-134.21-92.33-207.51-125.6-44.819-20.34-90.888-37.86-135.515-58.57m-212.259-9.56c15.816 2.47 58.656 23.85 76.253 31.23 30.755 12.9 60.889 27.08 91.143 41.09 104.172 48.26 208.368 101.4 295.198 177.59 17 14.91 34.06 30.64 48.81 47.8-11.83-5.38-23.25-16.29-33.6-24.29-8.82-6.8-17.83-13.23-26.95-19.63a1485 1485 0 0 0-112.16-71.34 2729 2729 0 0 0-141.093-76.01l-103.122-51c-28.213-14.16-71.749-34.2-94.479-55.44"/><path fill="#34778d" d="M312.054 1261.99c32.968 71.35 74.945 138.87 130.32 195.09-6.183 17.92-7.702 60.04-9.518 80.51-6.201-2.1-12.996-4.78-19.64-4.38-5.534-4.49-13.207-20.47-17.076-27.05a723.3 723.3 0 0 1-83.823-225.22l1.307-.96c-.036-6.02-.908-12.02-1.57-17.99M442.78 862.101c3.112-4.503 11.216-9.842 15.481-13.538 34.32-29.737 70.493-51.557 113.648-66.179 19.935-6.755 38.697-10.247 59.535-12.284 4.822-.472 11.711-2.586 16.155-.397-74.829 30.641-128.507 90.332-159.34 164.02-46.901 112.087-38.196 249.127 7.556 360.017a579.1 579.1 0 0 0 108.371 167.62c12.598 13.62 26.528 25.77 39.44 39.03 4.539 4.66 15.493 16.77 12.892 23.42-1.624 4.15-6.154 5.47-9.917 7.2 19.617 12.15 38.969 25.24 58.951 36.73-9.72-.15-19.377-.36-29.082.38-14.248-10.73-29.914-20.55-43.292-32.27l-12.554.2c.676 10.18 2.623 20.15 4.312 30.2a339 339 0 0 0-25.024-.29l-1.249-15.83c-14.192-14.76-30.133-27.84-45.09-41.81-16.961-15.85-33.142-32.51-50.044-48.41-12.813-.09-25.936.36-38.695-.66-68.276-73.82-119.501-154.7-145.709-252.51-3.221-12.02-11.662-68.92-13.853-72.72a438 438 0 0 1 13.682-74.57 395.8 395.8 0 0 1 70.835-139.116c4.64-5.815 10.502-14.891 16.905-18.487 9.545-15.203 23.16-27.467 36.086-39.746"/><path fill="#fefefe" d="M614.186 1494.66c6.813 3.98 17.538 14.05 21.14 21.23-6.231 1.63-12.759 1.29-19.157 1.33-1.048-7.44-1.392-15.06-1.983-22.56M442.78 862.101c-.064 8.075-19.828 47.771-24.222 59.234-33.391 87.105-45.33 179.225-29.413 271.515a485.9 485.9 0 0 0 76.011 186.73c1.621 2.34 13.268 17.09 13.393 18.3.048.46-.422.83-.632 1.25l1.74 1.13-.948-2.12.879 2.15c-10.089-7.5-17.439-18.59-25.243-28.32a409.35 409.35 0 0 1-85.166-193.29c-11.144-75.79-7.066-153.62 17.318-226.467 5.773-17.248 13.351-33.558 20.197-50.366 9.545-15.203 23.16-27.467 36.086-39.746"/><path fill="#34778d" d="M658.166 768.841c36.038-.621 78.605 5.585 107.331 29.474l10.653 6.671c17.944 13.467 34.997 27.262 59.073 23.642 18.172-2.732 38.204-15.68 48.704-30.692 2.643-3.777 4.827-7.916 6.862-12.044 8.426 10.75 22.188 21.93 28.08 33.971-17.129 1.576-34.146 2.862-50.978 6.675-54.191 12.276-101.177 45.303-139.973 83.918A362.05 362.05 0 0 0 623.4 1165.49c.034 85.99 23.94 174.14 75.623 243.68 13.517 18.19 29.03 34.31 45.043 50.28-17.37 1.13-35.111.48-52.522.48-22.427-.02-44.966.42-67.377-.43a626 626 0 0 1-56.476-68.07c-72.866-101.95-106.991-237.98-86.103-361.94 14.396-85.434 52.9-165.942 120.449-222.039 17.796-14.778 37.427-25.339 56.129-38.61"/><path fill="#fefefe" d="m765.497 798.315 10.653 6.671c-11.363 5.545-23.359 9.877-34.751 15.496-50.293 24.805-94.53 58.31-126.39 105.03-40.254 59.03-59.711 133.858-57.909 205.118.681 26.95 4.575 52.87 9.561 79.29-5.622-12.9-9.572-27.02-12.556-40.75-18.106-83.32-2.983-179.114 43.721-250.779 36.898-56.617 101.094-105.988 167.671-120.076"/><path fill="#0d4058" d="m809.979 512.149 117.6-233.719c17.334-34.665 33.252-70.423 51.337-104.652 1.553-2.94 3.642-7.299 6.459-9.154 1.95-1.283 4.734-1.982 7.026-1.324 3.483 1.001 6.347 4.428 8.339 7.27 8.37 11.964 14.05 28.617 20.45 41.816 12.03 24.794 24.92 49.287 37.23 73.965l151.35 304.652 289.32 585.077 97.35 197.24c29.95 60.09 60.9 120.02 88.56 181.21 16.06 3.23 32.54 5.07 48.71 7.88 35.2 6.11 107.68 20.39 134.85 41.98 7.43 5.91 13.32 13.49 14.19 23.23.76 8.68-2.21 16.85-7.87 23.4-21.65 25.04-96.41 30.45-128.97 33.12 11.48 26.55 90.54 173.32 90.85 184.43.06 2.05-1.47 4.71-2.98 6.01-2.91 2.5-7.24 3.07-10.92 3.27-10.7.59-22.16-.76-32.97-.82l-89.53-.42a13825 13825 0 0 0-271.41.35c1.02 2.27 2.28 4.72 2.98 7.11 1.15 3.92-.53 9.37-2.65 12.76-1.78.78-1.45 1.05-3.08.55-1.56-.48-2.52-1.07-3.74-2.1-9.02-7.6-19.38-32.88-26.09-44.3a656 656 0 0 0-20.76-32.82 550 550 0 0 0-88.69-100.21 712.9 712.9 0 0 0-170.03-112.79c-46.35-22.3-95.35-38.86-142.097-60.31-77.451-35.52-142.011-89.54-178.152-167.9-33.403-72.42-32.216-160.03-4.5-234 30.675-81.87 94.687-155.789 174.752-192.517l-.64-.384c-24.902 7.786-50.283 22.725-71.948 37.131-76.036 50.56-132.104 129.22-149.825 219.31-13.308 67.66-6 143.1 23.872 205.32 8.077 16.83 18.336 32.12 28.663 47.6-7.573.34-15.026.59-22.6.18l-27.782.26c-49.523-69.33-87.863-142.45-101.541-227.31-15.281-94.79 2.835-189.14 59.47-267.407 53.369-73.757 130.966-122.159 220.953-136.5-2.121-2.988-4.416-5.863-6.646-8.77-5.892-12.041-19.654-23.221-28.08-33.971-2.035 4.128-4.219 8.267-6.862 12.044-10.5 15.012-30.532 27.96-48.704 30.692-24.076 3.62-41.129-10.175-59.073-23.642l-10.653-6.671c-28.726-23.889-71.293-30.095-107.331-29.474-3.521.247-7.065.425-10.567.862-4.444-2.189-11.333-.075-16.155.397-20.838 2.037-39.6 5.529-59.535 12.284-43.155 14.622-79.328 36.442-113.648 66.179-4.265 3.696-12.369 9.035-15.481 13.538-12.926 12.279-26.541 24.543-36.086 39.746-6.403 3.596-12.265 12.672-16.905 18.487a395.8 395.8 0 0 0-70.835 139.116 438 438 0 0 0-13.682 74.57c-2.57 33.58-3.483 66.53.228 100.08 1.729 15.64 5.447 31.22 6.817 46.84a723.3 723.3 0 0 0 83.823 225.22c3.869 6.58 11.542 22.56 17.076 27.05 27.411 41.62 59.544 80 92.352 117.44 13.08 14.93 29.563 28.86 40.91 45.03-110.737-83.31-184.508-192.03-228.579-322.69-44.645-132.37-45.438-277.03 17.406-403.509 46.644-93.873 132.565-171.697 232.362-204.944 68.118-22.693 136.38-21.016 199.635 14.535 14.831 8.335 26.463 22.014 41.699 29.276a44.55 44.55 0 0 0 36.035 1.018c21.942-8.803 30.487-29.675 39.116-49.825 18.729 15.683 36.024 34.765 50.377 54.493 12.272 16.867 23.325 38.123 39.775 51.2 15.37 12.218 36.226 17.806 55.666 15.56 21.58-2.493 34.02-13.991 46.99-30.459 13.07 26.549 26.37 56.622 52.47 72.824 10.73 6.663 23.57 9.974 36.03 6.737 13.88-3.604 24.54-14.37 31.53-26.478 20.97-36.345 17.53-90.81 7.19-129.863-21.06-79.587-77.32-151.209-148.22-192.464-109.401-63.661-241.276-66.435-361.198-34.195a632.77 632.77 0 0 0-378.02 290.555c-86.611 150.779-99.074 323.899-53.861 490.059 36.246 133.21 117.316 247.86 212.069 346.18 35.117 36.44 71.624 70.75 111.733 101.68 50.656 39.06 105.089 71.76 160.52 103.48-40.918 1.07-82.055.06-122.996.03l-238.738-.62-151.156.15c-17.432-.01-35.283 1.06-52.659.42-3.709-.14-7.348-.47-10.803-1.92-4.286-1.8-6.54-4.61-8.182-8.84 4.492-17.29 14.74-34.36 22.577-50.37a5003 5003 0 0 1 40.485-82.28c35.495-71.94 68.571-145.39 106.175-216.24-61.368-92.98-96.815-203.97-107.582-314.42a625.54 625.54 0 0 1 139.037-461.381c81.378-98.877 197.213-175.567 320.856-209.6 41.311-11.371 83.187-17.454 125.762-21.63"/><path fill="#fefefe" d="M1690.67 1683.89c8.72-.04 17.44.09 26.16.14 13.32 26.14 25.85 52.67 39.15 78.82 14.77 29.05 30.56 57.98 43.42 87.95l-357.9-.1-27.74-.23a504 504 0 0 1-13.43-23.63l234.53.36 82.44-.06c11.95-.03 24.44.84 36.32-.05 2.55-.19 4.7-.61 6.49-2.57-.15-7.54-60.51-122.33-69.44-140.63M347.465 1545.43c5.189 3.15 12.732 14.65 17.381 19.76-40.457 88.91-87.681 174.7-128.697 263.39 54.109-1.19 108.312-.4 162.434-.38l236.243.04a700 700 0 0 1 35.377 22.78l-22.597.22-267.349.23c-60.836-.04-121.995.89-182.794-.89 22.626-42.28 42.958-86.27 64.037-129.36zM1147.73 1300c12.4 6.23 23.83 14.72 36.31 21.07 13.63 6.94 28.41 11.41 42.26 17.87 4.23 1.98 8.54 4.34 11.98 7.53 10.53 9.77 8.87 27.36 10.58 40.47.94 7.25 2.45 14.67 4.58 21.66 9.94 32.63 27.26 61.26 43.62 90.85-24.81-2.6-49.59-6.19-74.29-9.68-50.21-7.61-100.69-13.44-150.83-21.51 14.07-29.05 36.57-56.18 56.92-81.08 8.4-10.27 18.37-20.8 25.22-32.17 1.56-2.59 3.32-5.22 3.65-8.3 1.15-10.55-7.29-35.13-10-46.71m-188.936 173.6c4.134 1.19 6.441 5.34 9.473 8.39 5.68 5.71 12.642 11.8 19.913 15.39 13.56 6.69 28.68 11.45 42.99 16.3 59.36 20.13 120.21 31.26 181.38 44.14a7185 7185 0 0 0 271.01 51.36c66.48 11.24 132.56 21.92 199.65 29.06 57.93 6.17 115.68 6.65 173.85 6.87-7.83 4.59-16.17 7.58-24.81 10.25-111.59 30.77-249.32 2.69-361.73-16.85-80.87-14.06-161.25-32-241.27-50.2a5427 5427 0 0 1-96.83-22.94c-51.84-12.59-108.74-25.85-155.917-51.68-8.185-4.48-16.096-11.24-21.362-19-2.599-3.83-6.147-9.2-4.637-14.09 1.217-3.94 4.9-5.39 8.29-7"/><path fill="#fefefe" d="M1410.31 1533.04c13.7-1.84 39.49 4.12 53.85 6.21l91.88 13.35c58.02 8.17 116.59 13.68 174.3 23.87a688 688 0 0 1 67.94 16.07c17.68 5.13 61.98 17.91 69.39 36.06.93 2.29 1.09 2.73.09 4.9-9.02 4.87-114.78-.7-133.27-1.68-80.3-5.68-160.3-19.12-239.49-33.21-30.94-5.5-61.97-10.55-92.86-16.33-44.32-8.3-88.85-18.2-133.48-24.45 24.91-2.52 50.03-4.1 74.75-8.17 22.8-3.76 44.83-9.9 66.9-16.62M990.575 296.981c5.685 5.995 45.705 92.499 53.475 108.114l86.29 172.849a3096 3096 0 0 1 33.77 67.918c5.7 11.784 12.34 23.669 16.51 36.082-15.28-21.797-30.94-41.883-49.3-61.156-67.52-69.452-155.137-97.604-249.161-108.102 7.294-15.964 15.615-31.48 23.434-47.194a5541 5541 0 0 1 45.459-90.414c13.263-25.896 25.231-52.779 39.523-78.097M375.039 1581.48c12.314 14.4 23.62 29.67 36.019 44.04 50.863 58.98 105.898 115.35 167.746 162.86 11.21 8.61 22.36 17.64 34.262 25.27a9476 9476 0 0 1-118.316-.05l-235.661.2c17.924-31.35 32.772-64.94 48.563-97.41a11425 11425 0 0 1 67.387-134.91"/><path fill="#fefefe" d="M991.003 211.614c9.267 13.62 16.177 31.575 23.537 46.443l49.71 100.512 157.31 316.117 288.72 585.034 85.69 172.95c19.46 38.99 40.05 77.99 57.64 117.85l-28.09-4.42c-12.77-24.31-24.26-49.25-36.38-73.88l-84.48-170.84L990.422 263.504a4608 4608 0 0 1-41.866 84.382l-82.834 163.57-25.247-.29c6.53-16.83 15.668-33.094 23.862-49.179l37.408-73.552c29.924-58.832 58.058-118.658 89.258-176.821m85.477 1357.336c10.65 1.46 21.28 4.92 31.75 7.39a3678 3678 0 0 1 59.29 14.07 6620 6620 0 0 0 128.8 29.18 3572 3572 0 0 0 377.04 63.57c13.66 29.42 28.59 58.36 43.41 87.2 6.98 13.57 15.27 27.14 21.13 41.16l-1.03 1.24-260.01-.27c-28.5.1-57.03-.5-85.52.24a677.8 677.8 0 0 0-236.99-206.59 895 895 0 0 0-47.05-23.5c-10.22-4.65-20.8-8.65-30.82-13.69"/><path fill="#34778d" d="M925.515 828.633c11.402 15.946 22.821 33.857 37.596 46.883 6.953 6.131 18.099 9.891 23.677 16.716l5.149 1.289c8.993-.12 18.493 2.144 27.333 3.772l8.76 23.415c-18.8 2.093-36.966 4.849-55.193 10.165-67.729 19.753-130.344 66.114-174.219 120.827-60.945 75.99-85.265 169.28-74.592 265.55 5.832 52.59 24.611 96.85 50.389 142.34l-27.782.26c-49.523-69.33-87.863-142.45-101.541-227.31-15.281-94.79 2.835-189.14 59.47-267.407 53.369-73.757 130.966-122.159 220.953-136.5"/><path fill="#fefefe" d="M991.937 893.521c-2.754 1.468-6.783 1.106-9.885 1.262-16.67.836-33.513 3.233-49.577 7.881-72.287 20.919-132.448 71.976-169.421 137.066a293 293 0 0 0-15.39 31.9c-2.025 4.85-3.404 10.31-5.944 14.87-.01-.36-.053-.72-.03-1.09.578-8.93 4.328-18.63 7.118-27.09a262.7 262.7 0 0 1 82.903-121.071c46.169-38.222 96.321-50.656 155.077-45.017zm221.893-144.778c5.87 8.57 10.12 19.011 14.79 28.318a2570 2570 0 0 1 29.1 59.057c17.92 37.655 36.97 74.89 55.76 112.128l294.01 596.094c-58.23-7.18-116.08-16.81-174.12-25.35-38.79-5.7-77.74-10.19-116.52-16-3.79-19.39-8.09-38.33-10.4-58-2.68-22.74-3.18-46.06-7.46-68.56-11.82-62.16-71.73-120.32-110.23-168.4 28.39-19.7 54.07-37.93 77.49-63.72 12.93 13.58 24.02 28.64 38.03 41.24 25.03 22.51 62.82 48.54 83.55 73.13-1.64 3.8-2.89 7.73-4.2 11.65 1.7 9.39 4.02 17.03 12.19 22.82 5.34 3.78 12.49 5.69 18.98 4.49 4.72-.88 8.82-3.29 11.49-7.34 3.19-4.83 3.52-11.17 2.21-16.68-2.94-12.33-12.84-21.05-23.07-27.55-11.97-24.8-25.22-48.33-44.89-67.99-8.17-8.17-18.62-14.71-25.4-24.12-5.99-8.32-9.46-17.83-13.98-26.94-6.94-13.99-16.81-24.79-27.65-35.86 6.79-6.41 13.07-12.76 17.24-21.26 4.46-9.11 4.07-14.24.98-23.49 2.24-4.49 9.54-7.72 13.92-10.25l12.51 3.56.86-1.79c-.69-9.82-14.05-23.99-20.84-30.82-11.63-11.684-23.45-18.295-40.27-18.352-5.35 1.266-10.47 2.755-15.37 5.305-13.54 7.047-29.78 22.207-29.79 38.497 0 4.86 2.55 9.12 2.59 13.85.03 4.53-3.02 11.08-4.45 15.46-34.05-9.45-71.89.72-105.91 6.14-12.5 2-25.17 3.03-37.54 5.75-20.32 4.48-39.43 12.05-56.11 24.66-7.35 5.55-14.4 12.29-22.22 17.12-9.149 5.64-22.242 5.74-28.233 15.91-2.309 3.93-3.859 10.88-2.243 15.31 1.108 3.04 3.126 5.48 6.074 6.87 8.436 3.99 20.942-.6 29.222-3.51 5.3-1.86 9.15-3.87 11.6-9.06 1.66-3.51 3.41-6.76 6.08-9.63 18.65-20.07 77.15-23.96 103.37-25.36-15.27 18.48-30.08 36.65-42.4 57.3-7.36 12.33-13.03 25.98-20.84 37.95-8.58 13.15-19.73 20.31-22.63 37.17-4.55 26.36 16.21 58.54 32.53 77.44 8.03 9.3 17.98 18.01 24.82 28.19.23.33.44.67.66 1.01-8 7.55-17.52 13.46-25.57 21.07-26.39 24.97-37.72 62.14-38.89 97.68-21.96-1.62-43.859-5.54-65.902-5.51-12.275.02-27.785.7-36.729 10.31-4.314 4.64-5.703 10.56-5.497 16.76.383 11.54 7.211 19.34 15.086 26.87-22.599-12.54-44.897-26.6-64.549-43.45-56.112-48.09-91.035-114.37-96.543-188.32-6.375-85.59 22.952-168.43 78.941-233.04 44.118-50.921 112.275-98.782 180.913-103.792-3.51-16.052-8.45-31.75-12.06-47.788 13.85-4.315 26.07-9.282 37.7-18.072 12.61 22.657 24.69 44.109 47.35 58.171 14.31 8.885 31.29 13.143 47.94 8.843 18.99-4.902 33.45-20.2 42.75-36.834 26.5-47.396 15.83-109.717 1.77-159.285"/></svg>