<svg preserveAspectRatio="xMidYMid meet" version="1.1" xmlns="http://www.w3.org/2000/svg" style="display: block;" viewBox="0 0 2048 2048" width="1024" height="1024">
<path transform="translate(0,0)" fill="rgb(245,240,223)" d="M 0 0 L 2048 0 L 2048 2048 L 0 2048 L 0 0 z"/>
<path transform="translate(0,0)" fill="rgb(129,40,2)" d="M 1481.85 56.9598 C 1484.91 56.9476 1486.06 56.6301 1488.7 58.2797 C 1494.16 67.183 1492.92 83.571 1494.27 94.1074 C 1509.44 212.383 1500.61 333.223 1484.94 450.95 C 1494.36 463.983 1506.9 475.685 1517.77 487.536 C 1537.02 508.531 1556.31 530.14 1574.32 552.208 C 1603.92 588.461 1633.95 624.398 1661.34 662.377 C 1747.14 781.364 1825.66 930.139 1846.27 1076.63 C 1865.42 1212.77 1840.9 1329.45 1780.45 1451.67 C 1760.11 1492.81 1736.97 1533.29 1709.25 1569.96 C 1681.53 1606.62 1650.41 1639.47 1617.44 1671.37 C 1546.47 1740.01 1479.95 1791.14 1395.26 1841.96 C 1375.71 1853.69 1356.2 1866.02 1335.75 1876.14 C 1251.44 1917.85 1147.44 1948.48 1056.03 1970.64 C 1015.98 1980.35 975.442 1989.76 934.611 1995.42 C 951.14 1933.27 956.623 1875.79 957.296 1811.59 C 927.523 1826.18 897.639 1840.96 866.822 1853.22 C 878.256 1835.14 893.484 1819.43 905.027 1801.15 A 349.135 349.135 0 0 0 958.71 1576.75 C 922.476 1612.87 888.952 1672.12 868.716 1718.96 C 862.994 1732.2 858.759 1745.98 853.311 1759.33 A 581.612 581.612 0 0 1 851.875 1734.5 C 849.902 1675.57 860.107 1617.75 878.768 1561.99 C 882.534 1550.73 886.503 1539.4 891.006 1528.42 C 901.28 1503.36 918.243 1472.25 917.477 1444.6 C 917.364 1440.54 916.728 1437.75 913.737 1434.86 C 911.578 1433.94 910.006 1433.55 907.65 1433.99 C 873.143 1440.4 812.205 1518.85 792.578 1548.9 C 783.488 1562.82 776.712 1578.42 767.283 1592.04 L 766.749 1592.79 C 767.295 1574.02 770.73 1554.74 774.501 1536.36 C 781.89 1500.35 793.125 1465.19 805.918 1430.76 C 835.11 1352.21 870.572 1274.52 862.38 1188.36 C 859.441 1157.44 849.348 1128.49 834.688 1101.29 C 779.329 998.571 663.701 972.979 559.93 946.77 C 507.105 933.429 454.66 920.221 403.74 900.504 C 373.912 888.954 340.501 874.066 315.97 853.424 C 294.053 834.982 291.176 818.357 275.869 798.429 C 269.038 789.536 258.168 783.282 250.564 774.747 C 229.395 750.988 193.843 692.444 192.035 661.171 C 190.521 634.995 218.979 633.209 238.079 630.235 A 3236.79 3236.79 0 0 0 424.713 593.928 C 466.193 584.94 508.985 577.068 549.048 562.866 C 565.486 557.038 581.762 549.173 596.074 539.169 C 622.728 520.539 638.279 492.987 659.061 468.853 C 673.131 452.514 689.801 437.036 708.811 426.619 C 728.632 415.758 751.738 409.182 773.184 402.347 A 1259.82 1259.82 0 0 1 1062.91 347.216 A 3158.2 3158.2 0 0 1 1183.09 246.384 C 1272.6 176.413 1379.87 106.791 1481.85 56.9598 z"/>
<path transform="translate(0,0)" fill="rgb(245,240,223)" d="M 231.043 645.351 C 231.229 645.336 231.415 645.312 231.602 645.304 C 236.487 645.1 244.325 644.061 248.182 647.468 L 248.195 649.333 C 243.195 656.864 233.198 660.533 224.979 663.437 C 221.579 663.956 217.016 665.103 213.59 664.423 C 210.935 663.896 209.781 663.145 208.134 661.06 C 207.773 658.148 208.063 656.456 210.009 654.154 C 215.649 647.481 222.849 646.309 231.043 645.351 z"/>
<path transform="translate(0,0)" fill="rgb(245,240,223)" d="M 1180.83 485.864 C 1180.85 496.846 1178.76 508.373 1177.74 519.347 A 739.054 739.054 0 0 0 1174.97 573.097 C 1174.9 580.646 1177.05 607.267 1174.81 612.381 L 1173.41 610.677 A 143.064 143.064 0 0 1 1171.39 606.793 C 1159.83 583.648 1172.35 510.947 1180.83 485.864 z"/>
<path transform="translate(0,0)" fill="rgb(245,240,223)" d="M 693.245 536.126 C 703.796 535.379 716.015 537.505 725.4 542.577 C 733.113 546.744 735.197 549.807 737.527 557.966 C 735.719 566.805 733.954 571.614 726.872 577.485 C 723.136 579.217 719.497 580.479 715.387 580.999 C 708.355 581.889 701.353 580.032 695.873 575.485 C 690.05 570.654 686.669 563.362 686.236 555.85 C 685.831 548.842 688.44 541.193 693.245 536.126 z"/>
<path transform="translate(0,0)" fill="rgb(129,40,2)" d="M 706.022 540.015 C 707.88 540.054 709.64 540.247 711.452 540.656 C 715.934 541.667 719.654 544.044 721.966 548.1 C 724.25 552.106 724.583 556.624 723.259 561.015 C 721.491 566.876 718.118 569.817 712.923 572.69 C 709.891 572.946 706.951 573.2 704.022 572.181 C 700.318 570.892 697.497 567.847 695.924 564.316 C 693.802 559.555 693.906 554.079 695.915 549.303 C 698.107 544.093 700.982 542.231 706.022 540.015 z"/>
<path transform="translate(0,0)" fill="rgb(245,240,223)" d="M 729.153 518.39 C 775.25 516.577 839.569 560.559 878.274 585.903 L 854.793 580.013 C 830.591 574.549 806.674 568.435 783.462 559.603 C 755.744 549.056 726.29 528.391 697.873 526.217 C 708.449 522.252 717.857 519.246 729.153 518.39 z"/>
<path transform="translate(0,0)" fill="rgb(245,240,223)" d="M 1484.3 178.73 C 1489.34 211.47 1486.54 249.895 1485.03 283.05 C 1483.17 323.817 1480.46 365.695 1473.99 405.982 C 1470.51 427.662 1465.15 449.037 1460 470.367 C 1437.6 563.18 1405.55 642.419 1360.2 726.214 L 1359.85 726.397 C 1358.87 724.495 1384.82 665.541 1388.26 657.483 C 1420.04 583.145 1441.51 503.423 1458.05 424.377 C 1462.41 403.534 1467.23 382.678 1470.24 361.588 C 1478.91 300.707 1482.03 240.097 1484.3 178.73 z"/>
<path transform="translate(0,0)" fill="rgb(245,240,223)" d="M 933.609 615.696 C 947.221 625.412 957.845 641.779 968.674 654.576 C 979.252 667.077 990.161 679.306 1000.86 691.703 C 984.96 689.12 969.204 685.338 953.322 682.54 C 937.714 679.79 921.98 678.016 906.234 676.278 C 876.834 673.042 847.785 670.844 818.242 669.531 C 859.894 662.096 904.351 647.411 933.609 615.696 z"/>
<path transform="translate(0,0)" fill="rgb(245,240,223)" d="M 1015.13 938.976 C 1035.99 940.375 1084.79 950.229 1105.39 956.453 C 1140.38 993.97 1165.2 1062.64 1174.9 1113.17 C 1170.1 1108.32 1164.14 1093.32 1160.35 1086.69 A 470.242 470.242 0 0 0 1143.63 1059.98 C 1110.13 1010.16 1063.84 972.999 1015.13 938.976 z"/>
<path transform="translate(0,0)" fill="rgb(245,240,223)" d="M 1133.9 979.675 C 1134.8 979.925 1135.11 979.974 1136.04 980.455 C 1144.22 984.662 1151.97 991.76 1159.26 997.405 C 1203.27 1031.52 1230.8 1069.88 1250.76 1121.93 C 1242.11 1140.63 1229.23 1157.66 1217.51 1174.54 C 1208.45 1186.52 1199.27 1198.28 1188.69 1208.98 C 1189.14 1196.11 1190.33 1183.31 1190.07 1170.41 C 1189.12 1123.09 1177.8 1077.08 1160.47 1033.23 C 1153.09 1014.57 1145.38 996.247 1133.9 979.675 z"/>
<path transform="translate(0,0)" fill="rgb(245,240,223)" d="M 847.97 928.455 C 881.286 927.553 914.842 929.502 948.076 931.803 C 961.987 932.766 977.187 932.825 990.649 936.515 C 1002 939.628 1013.39 949.018 1023.07 955.534 C 1079.07 993.214 1127.13 1042.67 1159.59 1102.1 C 1151.17 1093.84 1143.33 1084.95 1134.92 1076.65 C 1043.43 991.409 921.327 946.204 798.779 930.854 C 815.064 928.961 831.593 928.883 847.97 928.455 z"/>
<path transform="translate(0,0)" fill="rgb(245,240,223)" d="M 1473.34 458.702 C 1475.72 467.703 1470.8 486.018 1469.35 495.891 C 1458.98 566.348 1440.73 634.518 1418.85 702.16 C 1409.94 729.705 1398.06 756.852 1390.57 784.755 L 1390.23 786.045 C 1364.67 809.83 1322.34 841.866 1291.5 858.465 C 1291.35 851.587 1308.36 829.973 1312.7 823.477 C 1331.5 795.339 1348.5 766.673 1364.67 736.979 C 1377.65 713.146 1391.05 689.368 1402.63 664.812 C 1426.02 615.222 1443.95 563.081 1459.82 510.661 C 1465.01 493.517 1468.28 475.865 1473.34 458.702 z"/>
<path transform="translate(0,0)" fill="rgb(245,240,223)" d="M 844.826 1065.62 C 845.973 1066.06 846.372 1066.16 847.537 1066.9 C 856.228 1072.47 864.58 1081.09 872.016 1088.28 C 911.569 1126.56 943.161 1176.22 950.52 1231.61 C 964.329 1335.55 894.054 1399.49 836.844 1474.23 C 831.137 1481.8 825.634 1490.15 818.751 1496.69 C 831.22 1471.71 847.517 1448.45 861.775 1424.45 C 888.548 1379.38 909.182 1325.83 914.166 1273.39 C 921.456 1196.67 893.473 1124.02 844.826 1065.62 z"/>
<path transform="translate(0,0)" fill="rgb(245,240,223)" d="M 1393.25 119.888 L 1394.21 120.316 C 1390.84 124.42 1375.72 132.861 1370.09 136.899 A 679.979 679.979 0 0 0 1342.01 158.341 C 1295.22 195.516 1249.39 232.976 1206.87 275.066 C 1190.09 291.682 1173.23 308.781 1158.73 327.464 C 1123.32 373.112 1095.95 424.198 1103.4 483.839 C 1100.33 477.06 1097.61 470.139 1094.85 463.233 C 1083.08 428.689 1074.8 391.425 1074.96 354.826 C 1081.35 348.524 1089.06 343.187 1095.95 337.416 C 1108.62 326.818 1121.03 315.928 1133.75 305.38 C 1187.1 261.119 1241.37 219.175 1298.27 179.55 C 1328.14 158.744 1360.64 135.973 1393.25 119.888 z"/>
<path transform="translate(0,0)" fill="rgb(245,240,223)" d="M 805.321 1036.89 C 815.304 1042.92 824.054 1053.24 831.557 1062 C 861.465 1096.93 885.565 1138.89 897.922 1183.4 C 917.129 1252.58 901.874 1327.12 870.777 1390.48 C 861.442 1409.51 849.946 1427.35 839.137 1445.54 A 3790.61 3790.61 0 0 0 799.213 1514.78 C 795.008 1522.27 791.269 1530.07 787.37 1537.73 C 808.943 1439.08 870.065 1345.35 876.691 1244 C 882.374 1157.08 862.076 1101.72 805.321 1036.89 z"/>
<path transform="translate(0,0)" fill="rgb(245,240,223)" d="M 958.882 627.764 C 959.48 627.957 960.096 628.101 960.676 628.343 C 969.409 631.972 978.417 638.377 986.572 643.237 C 1038.39 674.113 1078.41 709.205 1120.57 751.763 C 1128.47 759.741 1138.13 767.835 1144.62 776.979 C 1155.8 792.746 1163.94 812.958 1172.74 830.211 C 1188.63 861.335 1204.2 892.339 1218.76 924.109 C 1224.51 936.658 1231.06 949.24 1235.45 962.318 C 1230.13 958.397 1213.5 933.152 1207.86 925.725 L 1144.61 844.046 C 1086.15 769.309 1019.68 700.621 958.882 627.764 z"/>
<path transform="translate(0,0)" fill="rgb(245,240,223)" d="M 739.614 484.362 C 754.505 481.966 772.229 485.109 786.53 489.321 C 868.771 513.546 962.52 577.34 1026.18 634.431 C 1046.78 652.91 1065.98 672.957 1084.78 693.239 C 1100.7 710.403 1118.08 726.003 1129.46 746.663 C 1118.68 735.77 1108.21 724.713 1096.92 714.347 C 1061.52 680.49 1019.18 649.476 976.208 626.011 C 945.357 609.164 913.125 594.826 882.582 577.341 C 848.428 557.789 816.491 533.607 779.619 519.144 C 745.148 505.623 719.955 506.06 686.269 520.75 C 688.307 515.711 690.263 510.859 693.662 506.539 C 705.439 491.57 721.577 486.772 739.614 484.362 z"/>
<path transform="translate(0,0)" fill="rgb(245,240,223)" d="M 1478.34 502.518 C 1484.29 508.431 1488.9 519.475 1492.92 526.893 C 1512.21 562.483 1530.21 598.19 1544.48 636.137 C 1525.54 655.996 1507.88 677.362 1489.34 697.636 C 1473.02 715.473 1455.57 732.442 1438.16 749.203 A 404.308 404.308 0 0 1 1400.7 779.816 A 1203.04 1203.04 0 0 0 1478.34 502.518 z"/>
<path transform="translate(0,0)" fill="rgb(245,240,223)" d="M 1242.08 1655.06 L 1242.49 1655.46 C 1242.5 1655.93 1242.65 1656.42 1242.52 1656.87 C 1242.17 1658.14 1192.38 1712.63 1187.66 1717.97 L 1008.5 1917.37 C 991.31 1936.54 972.876 1954.59 956.157 1974.17 C 955.818 1973.62 955.264 1973.15 955.141 1972.51 C 954.617 1969.8 960.869 1943.54 961.727 1938.63 C 969.575 1893.67 970.859 1849.49 970.955 1803.98 C 1062.4 1756.59 1152.19 1705.33 1242.08 1655.06 z"/>
<path transform="translate(0,0)" fill="rgb(245,240,223)" d="M 1401.6 118.105 C 1401.51 121.996 1385.02 136.641 1381.71 140.153 A 1062.48 1062.48 0 0 0 1304.32 232.652 C 1242.78 316.206 1180.03 424.519 1161.38 527.774 C 1158.33 544.646 1157.33 561.682 1156.34 578.768 A 863.978 863.978 0 0 1 1138.82 552.502 C 1132.41 541.726 1124.83 531.268 1119.47 519.929 C 1110.4 500.759 1109.74 473.269 1111.17 452.532 C 1117.92 354.93 1232.59 260.281 1302.64 201.531 C 1335.71 173.798 1369.14 146.555 1401.6 118.105 z"/>
<path transform="translate(0,0)" fill="rgb(245,240,223)" d="M 1181.09 1350.13 L 1181.56 1351.54 C 1150.33 1378.43 1120.01 1406.43 1089.26 1433.89 C 1033.39 1483.78 977.333 1534.09 929.478 1591.97 C 913.751 1610.99 899.147 1630.77 886.63 1652.05 C 883.044 1658.15 879.311 1664.28 876.111 1670.59 C 873.646 1675.45 872.179 1682.27 868.664 1686.33 L 867.796 1685.03 A 518.198 518.198 0 0 1 896.216 1556.74 C 910.167 1517.44 934.686 1479.96 934.812 1437.21 C 932.987 1433.72 930.78 1430.58 928.537 1427.36 C 1013.38 1404.47 1101.23 1388.22 1181.09 1350.13 z"/>
<path transform="translate(0,0)" fill="rgb(245,240,223)" d="M 1555.27 546.78 C 1567.4 555.25 1592.22 588.8 1602.83 601.728 C 1700.51 720.792 1787.05 865.987 1824.42 1016.39 C 1869.73 1198.71 1831.18 1353.73 1735.97 1511.83 C 1732.17 1517.83 1728.54 1524.1 1723.95 1529.54 C 1726.7 1522.39 1730.52 1515.86 1733.85 1508.99 A 971.905 971.905 0 0 0 1751.97 1469.56 C 1777.49 1410.27 1797.9 1346.08 1806.36 1281.96 C 1826.23 1131.37 1784.04 962.245 1722.73 825.118 A 1454.38 1454.38 0 0 0 1555.27 546.78 z"/>
<path transform="translate(0,0)" fill="rgb(245,240,223)" d="M 785.591 575.238 C 804.63 572.535 905.136 601.065 924.236 611.491 A 131.644 131.644 0 0 1 921.158 615.09 C 911.226 626.24 896.553 634.148 883.129 640.231 C 802.703 676.675 707.739 669.855 621.5 675.009 C 577.926 675.907 534.34 683.326 490.716 685.19 C 524.165 656.46 564.83 636.948 604.273 618.106 C 622.073 609.602 640.265 600.041 659.517 595.346 C 679.345 590.51 699.418 593.458 719.399 590.671 C 741.84 587.54 763.34 579.407 785.591 575.238 z"/>
<path transform="translate(0,0)" fill="rgb(245,240,223)" d="M 1800.99 1241.02 C 1802.32 1259.59 1796.95 1286.84 1793.15 1305.43 C 1775.44 1392 1740.19 1492.61 1693.76 1567.83 C 1685.98 1550.2 1679.72 1531.69 1672.98 1513.64 C 1661.38 1481.11 1648.96 1448.66 1636.72 1416.35 C 1629.7 1397.82 1621.83 1379.5 1616.42 1360.4 C 1627.62 1351.64 1640.35 1344.16 1652.28 1336.43 A 2469.14 2469.14 0 0 1 1723.73 1291.3 C 1749.88 1275.21 1775.1 1257.53 1800.99 1241.02 z"/>
<path transform="translate(0,0)" fill="rgb(245,240,223)" d="M 1291.89 881.67 C 1294.67 883.842 1296.02 888.207 1297.33 891.463 C 1313.08 930.695 1320.92 977.727 1320.54 1019.75 C 1320.04 1075.98 1304.95 1143.5 1282.69 1195.16 C 1266.03 1233.8 1244.68 1269.94 1220.75 1304.48 C 1215.32 1312.32 1209.81 1321.45 1202.9 1328.08 C 1195.24 1335.41 1181.4 1340.09 1171.7 1344.51 C 1116.81 1369.57 1056.59 1385.81 998.146 1400.32 C 968.835 1407.6 936.843 1412.69 908.874 1424.07 C 908.459 1424.24 908.048 1424.42 907.636 1424.59 C 901.391 1427.83 895.357 1431.71 889.292 1435.29 C 915.141 1409.3 969.521 1380.91 1002.35 1362.12 C 1019.44 1352.35 1035.96 1341.49 1052.54 1330.88 C 1113.49 1291.87 1172.06 1248.65 1216.78 1191.04 C 1275.97 1114.81 1303.59 1039.52 1298.83 942.458 C 1297.83 922.02 1294.42 901.94 1291.89 881.67 z"/>
<path transform="translate(0,0)" fill="rgb(245,240,223)" d="M 1188.9 1357.96 C 1190.43 1361.25 1184.45 1375.12 1182.98 1379.24 C 1146.6 1481.38 1101.77 1582.55 1043.06 1673.91 C 1032.45 1690.42 1021.91 1706.9 1009.94 1722.47 A 606.277 606.277 0 0 1 955.495 1783.07 C 936.37 1802 916.252 1821.21 891.692 1832.85 A 203.352 203.352 0 0 0 901.668 1820.73 C 955.027 1750.82 977.404 1655.53 965.853 1569.08 C 1031.96 1490.05 1114.4 1428.4 1188.9 1357.96 z"/>
<path transform="translate(0,0)" fill="rgb(245,240,223)" d="M 1719.3 857.776 C 1724.49 869.826 1637.34 1232.9 1626.18 1279.04 C 1621.29 1299.26 1615.61 1319.29 1610.85 1339.55 C 1605.16 1325.26 1601.56 1299.35 1598.19 1283.3 C 1590.82 1246.79 1582.02 1210.55 1574.27 1174.11 C 1564.26 1127.01 1555.01 1079.17 1542.69 1032.62 C 1553.79 1018.15 1567.93 1005.53 1580.94 992.769 L 1634.25 940.695 C 1662.81 913.318 1690.12 884.47 1719.3 857.776 z"/>
<path transform="translate(0,0)" fill="rgb(245,240,223)" d="M 1545.71 650.841 L 1546.67 652.078 C 1561.72 766.12 1561.03 904.683 1534.11 1016.74 C 1522.26 1007.72 1511.76 995.974 1501.06 985.597 L 1443.63 930.1 L 1347.51 837.728 C 1360.98 829.263 1373.5 818.091 1385.9 808.104 A 1089.66 1089.66 0 0 0 1480.97 721.296 C 1503.05 698.26 1523.67 673.926 1545.71 650.841 z"/>
<path transform="translate(0,0)" fill="rgb(245,240,223)" d="M 1482.54 472.573 C 1493.9 480.138 1511.35 504.68 1520.71 516.491 A 1518.02 1518.02 0 0 1 1682.63 765.458 C 1695.97 791.015 1709.65 816.99 1720.55 843.685 C 1687.95 874.592 1656.73 906.931 1624.03 937.679 C 1597.05 963.139 1570.78 989.566 1544.08 1015.36 A 1238.62 1238.62 0 0 0 1548.67 992.578 C 1567.6 893.391 1568.97 788.402 1560.48 687.969 C 1558.97 670.075 1558.81 650.269 1553.96 633.016 C 1550.36 620.244 1544.19 607.742 1538.71 595.677 C 1521.73 558.334 1502.47 522.8 1479.44 488.847 L 1482.54 472.573 z"/>
<path transform="translate(0,0)" fill="rgb(245,240,223)" d="M 1206.29 1343.61 C 1211.2 1352.91 1222.91 1429.26 1225.73 1445.53 C 1236.72 1508.82 1249.16 1571.72 1258.02 1635.37 C 1234.32 1649.81 1209.65 1662.3 1185.54 1675.99 A 13096.6 13096.6 0 0 1 976.295 1790.95 C 963.372 1797.37 950.991 1804.39 938.543 1811.68 C 959.298 1791.56 980.043 1772.59 998.836 1750.48 C 1073.46 1662.67 1128.19 1544.4 1170.77 1438.1 C 1183.28 1406.87 1193.11 1374.55 1206.29 1343.61 z"/>
<path transform="translate(0,0)" fill="rgb(245,240,223)" d="M 736.574 679.439 A 1005.62 1005.62 0 0 1 1010.1 703.104 C 1030.38 723.239 1048.79 745.988 1067.6 767.532 A 3862.45 3862.45 0 0 1 1238.6 980.534 C 1225.94 972.506 1214.17 962.474 1202.4 953.192 C 1186.46 940.617 1170.6 928.643 1153.54 917.59 C 1126.12 899.666 1098.48 881.891 1069.7 866.194 C 1047.23 853.938 1023.75 843.297 1001.08 831.321 C 898.32 777.034 804.938 731.156 690.847 704.669 C 657.145 696.845 623.192 691.873 589.098 686.3 C 613.165 682.754 638.433 682.644 662.729 681.97 L 736.574 679.439 z"/>
<path transform="translate(0,0)" fill="rgb(245,240,223)" d="M 1728.77 867.438 C 1734.37 875.729 1742.16 900.479 1746.1 911.059 A 910.042 910.042 0 0 1 1802.5 1227.88 C 1791.3 1237.36 1777.43 1244.84 1765.14 1252.96 A 2660.87 2660.87 0 0 1 1663.49 1317.5 A 1260.81 1260.81 0 0 0 1617.91 1348.16 C 1644.6 1253.21 1666.11 1154.55 1687.48 1058.18 C 1701.55 994.742 1716.85 931.314 1728.77 867.438 z"/>
<path transform="translate(0,0)" fill="rgb(245,240,223)" d="M 1593.5 1382.06 C 1593.83 1392.31 1361.3 1816.38 1335.46 1860.43 A 2375.14 2375.14 0 0 0 1320.16 1808.07 C 1301.92 1752.58 1287.11 1695.9 1269.07 1640.28 C 1333.49 1591.26 1401.38 1547.64 1464.19 1496.33 C 1489.19 1475.91 1514.08 1455.36 1537.7 1433.33 C 1556.11 1416.16 1572.99 1396.84 1593.5 1382.06 z"/>
<path transform="translate(0,0)" fill="rgb(245,240,223)" d="M 1517.3 1060.86 C 1518.45 1067.82 1477.31 1152.15 1471.14 1165.87 L 1338.29 1461.03 L 1291.94 1563.44 C 1283.15 1582.73 1273.68 1601.78 1265.61 1621.39 C 1264.26 1606.97 1261.37 1592.5 1258.98 1578.22 C 1245.64 1496.91 1228.19 1416.16 1216.52 1334.57 C 1320.5 1277.58 1396.67 1206.79 1472.87 1116.93 C 1488.31 1098.73 1501.83 1078.99 1517.3 1060.86 z"/>
<path transform="translate(0,0)" fill="rgb(245,240,223)" d="M 1261.71 1648.72 C 1266.98 1654.64 1322.9 1846.62 1327.89 1869.31 A 1533.36 1533.36 0 0 1 1021.78 1968.78 C 1002.14 1973.01 982.485 1977.17 962.627 1980.27 C 1039.88 1898.46 1114.27 1813.67 1189.3 1729.81 C 1213.48 1702.79 1237.03 1675.29 1261.71 1648.72 z"/>
<path transform="translate(0,0)" fill="rgb(245,240,223)" d="M 1059.58 372.826 C 1060.57 374.446 1060.45 373.836 1060.67 375.527 C 1069.1 440.842 1088.29 491.717 1122.02 547.935 C 1133.44 566.983 1146.02 585.369 1157.16 604.578 C 1171.04 628.509 1184.13 652.98 1197.28 677.319 C 1227.57 733.395 1257.6 791.75 1275.1 853.305 C 1296.92 930.07 1296.25 1038.28 1256.82 1108.95 C 1238.63 1070.91 1217.42 1037.4 1186.28 1008.53 C 1168.12 991.741 1147.51 978.69 1128.87 962.643 A 866.254 866.254 0 0 1 1212.07 989.387 C 1220.23 992.563 1259.09 1011.1 1262.28 1011.61 C 1263.04 1011.74 1263.79 1011.34 1264.54 1011.2 L 1265.56 1009 C 1264.47 997.767 1250.3 970.444 1244.96 958.649 A 4172.79 4172.79 0 0 0 1138.06 742.194 C 1118.9 705.388 1098.66 669.493 1080.68 632.036 C 1037.33 541.764 1025.88 468.945 1059.58 372.826 z"/>
<path transform="translate(0,0)" fill="rgb(245,240,223)" d="M 1608.38 1372.42 C 1613.4 1376.7 1680.45 1560.37 1687.81 1581.31 C 1676.6 1597.62 1661.39 1612.39 1647.92 1626.94 C 1599.25 1679.53 1542.78 1730.34 1484.8 1772.39 C 1456.59 1792.86 1427.08 1811.39 1397.5 1829.79 A 2249.94 2249.94 0 0 1 1345.83 1860.12 C 1375.85 1814.17 1399.58 1763.35 1426.15 1715.3 A 7482.44 7482.44 0 0 0 1608.38 1372.42 z"/>
<path transform="translate(0,0)" fill="rgb(245,240,223)" d="M 1338.17 842.75 C 1345.66 845.015 1508.39 1006.2 1530.5 1026.96 C 1468.53 1112.54 1399.4 1190.65 1317.54 1257.7 C 1286.87 1281.53 1253.35 1302.19 1220.17 1322.3 C 1259.39 1267.58 1292.69 1206.51 1310.96 1141.51 C 1331.29 1069.18 1337.65 994.958 1317.07 921.968 C 1311.95 903.789 1305.97 886.305 1296.69 869.763 C 1311.02 861.418 1324.63 852.294 1338.17 842.75 z"/>
<path transform="translate(0,0)" fill="rgb(245,240,223)" d="M 1535.01 1046.53 C 1540.98 1053.34 1596.81 1325.32 1603.42 1357.47 C 1589.96 1372.61 1573.56 1386.14 1558.91 1400.21 A 1541.73 1541.73 0 0 1 1403.1 1532.73 C 1374 1554.55 1343.5 1574.5 1314.56 1596.5 C 1301.15 1606.22 1287.86 1616.23 1273.79 1624.98 C 1281.28 1607.01 1290.59 1589.87 1298.52 1572.11 L 1360.63 1433.68 A 24817.7 24817.7 0 0 0 1535.01 1046.53 z"/>
<path transform="translate(0,0)" fill="rgb(245,240,223)" d="M 350.783 691.422 C 388.716 689.152 426.362 692.756 464.237 693.241 C 498.879 693.685 533.367 691.689 567.977 694.403 C 717.295 706.114 859.356 762.96 989.075 835.4 C 881.18 805.525 694.358 800.383 585.258 828.829 C 568.216 820.991 552.194 810.338 535.614 801.499 C 501.926 783.54 424.491 747.558 388.471 743.958 C 404.172 751.691 421.137 757.389 437.251 764.33 C 482.784 783.037 530.08 803.871 571.338 830.867 C 561.735 832.712 551.819 834.167 542.455 836.995 C 501.714 809.215 457.984 788.365 412.09 770.703 C 400.539 766.257 388.171 760.764 375.958 758.549 C 396.779 770.126 418.772 778.428 440.411 788.239 C 472.001 802.561 503.244 819.225 531.934 838.762 C 519.981 840.361 507.799 840.68 495.754 841.088 C 459.894 812.83 422.256 791.949 380.758 773.037 C 391.897 782.156 405.579 788.579 417.933 796 C 440.73 809.694 463.835 824.667 484.421 841.538 A 568.537 568.537 0 0 1 388.903 830.353 C 345.274 821.085 304.586 803.992 271.111 773.922 C 262.886 766.534 254.442 758.306 248.38 749.009 C 249.903 746.539 251.558 744.203 253.437 741.989 C 260.378 733.805 268.681 726.337 276.419 718.9 C 305.138 691.299 312.992 694.393 350.783 691.422 z"/>
<path transform="translate(0,0)" fill="rgb(245,240,223)" d="M 1041.97 362.583 C 1045.91 362.166 1049.91 362.06 1053.87 361.833 A 722.529 722.529 0 0 0 1047.05 381.379 C 1005.01 509.746 1049.99 592.782 1106.42 704.217 C 1088.15 684.386 1070.84 663.866 1051.37 645.159 C 988.499 584.781 914.762 533.008 834.871 497.855 C 820.624 491.587 806.262 485.181 791.342 480.671 C 771.536 474.685 750.792 472.778 730.317 476.361 C 665.258 487.746 679.545 546.076 642.376 583.978 C 624.444 602.263 578.9 618.774 554.532 631.776 C 525.151 648.182 502.686 665.405 475.978 685.38 C 458.495 686.556 440.492 684.158 422.988 683.283 C 382.779 681.273 343.509 681.679 304.037 690.359 C 306.874 674.461 305.951 648.002 317.839 635.857 C 321.72 631.891 327.062 629.923 332.293 628.446 C 352.189 622.83 373.176 619.703 393.446 615.653 C 446.67 605.021 510.217 593.378 560.751 574.416 A 185.398 185.398 0 0 0 604.734 550.603 C 631.485 531.172 648.585 504.066 669.384 479.114 C 682.624 463.231 697.543 449.743 715.759 439.81 C 733.553 430.108 753.045 423.93 772.253 417.706 C 854.628 391.014 956.085 370.532 1041.97 362.583 z"/>
<path transform="translate(0,0)" fill="rgb(245,240,223)" d="M 1428.63 117.15 C 1434.51 116.746 1439.08 117.081 1444.17 120.373 C 1454.44 127.003 1459.37 139.538 1462.04 150.982 C 1473.6 200.647 1468.02 264.252 1462.27 314.591 C 1444.28 472.063 1399.72 631.815 1325.37 772.211 C 1312.52 796.475 1297.4 819.67 1283.03 843.057 C 1278.07 826.12 1270.86 809.967 1264 793.739 C 1255.11 772.714 1246.38 751.521 1236.39 730.986 C 1225.86 709.32 1214.09 688.267 1203.52 666.614 C 1237.44 658.958 1270.64 640.225 1296 616.557 C 1316.6 597.329 1335.55 574.806 1350.21 550.739 C 1401.4 466.747 1416.67 353.605 1419.71 257.008 L 1419.62 256.107 L 1418.71 255.442 C 1408.63 263.894 1399.5 274.704 1390.34 284.192 C 1344.91 331.244 1286.75 396.06 1258.16 454.405 C 1289.3 451.776 1320.53 447.061 1351.6 443.475 C 1330.23 460.192 1310.09 478.705 1289.95 496.885 C 1276.23 509.269 1261.86 521.45 1249.05 534.772 A 2360.9 2360.9 0 0 0 1342.6 514.034 C 1295.28 580.399 1263.43 609.296 1194.19 651.187 C 1192.71 648.025 1191.19 644.84 1189.96 641.572 C 1176.85 606.812 1188.47 478.876 1197.92 441.099 C 1201.48 426.856 1208.12 412.841 1214.38 399.58 A 888.367 888.367 0 0 1 1262.53 311.012 A 1069.18 1069.18 0 0 1 1379.97 156.081 C 1389.46 145.829 1399.1 134.687 1410.36 126.353 C 1416.13 122.086 1421.95 119.551 1428.63 117.15 z"/>
<path transform="translate(0,0)" fill="rgb(245,240,223)" d="M 303.691 817.667 C 309.913 819.158 316.854 823.42 322.776 826.093 C 334.425 831.351 346.421 836.471 358.677 840.103 C 429.785 861.171 511.879 863.556 585.261 855.266 C 591.423 858.962 623.284 885.188 626.386 885.232 C 616.562 872.968 603.633 863.628 591.556 853.72 C 611.895 851.56 635.107 847.651 655.352 850.048 C 642.965 839.223 629.379 835.355 613.929 831.031 C 632.992 828.903 651.93 825.706 671 823.627 C 766.989 813.158 880.651 819.925 974.698 840.822 C 989.991 844.22 1006.38 846.908 1020.98 852.653 C 1045.89 862.462 1069.7 876.55 1092.6 890.282 C 1143 920.495 1186.01 950.533 1231.69 987.284 A 1009.19 1009.19 0 0 0 759.599 923.745 C 740.085 925.661 720.892 929.558 701.486 932.263 C 740.146 935.244 778.584 936.562 817.094 941.946 C 864.608 948.588 910.661 962.139 955.796 978.038 C 1030.27 1006.53 1123.21 1058.66 1165.14 1128.63 C 1184 1160.1 1185.13 1187.49 1176.2 1223.02 C 1136.26 1266.83 1064.73 1314.47 1013.44 1344.83 C 971.557 1369.62 929.077 1392.6 890.283 1422.26 C 896.931 1412.41 904.96 1403.38 911.87 1393.66 C 936.903 1358.45 955.787 1318.96 960.409 1275.5 C 969.795 1187.26 913.713 1102.65 844.2 1053.33 C 835.885 1047.43 827.005 1041.9 817.836 1037.42 C 810.274 1033.73 802.031 1030.89 794.935 1026.35 C 784.852 1019.91 775.774 1011.91 765.694 1005.41 C 740.141 988.934 711.509 975.696 682.903 965.495 C 576.594 927.587 458.439 918.327 358.662 862.943 C 347.549 856.774 335.935 850.493 326.068 842.44 C 317.451 835.408 310.672 826.255 303.691 817.667 z"/>
</svg>