<svg preserveAspectRatio="xMidYMid meet" version="1.1" xmlns="http://www.w3.org/2000/svg" style="display: block;" viewBox="0 0 2048 2048" width="1024" height="1024">
<path transform="translate(0,0)" fill="rgb(254,254,254)" d="M 0 0 L 2048 0 L 2048 2048 L 0 2048 L 0 0 z"/>
<path transform="translate(0,0)" fill="rgb(0,0,0)" d="M 1552.51 185.283 C 1576.86 184.081 1599.28 190.214 1620.59 201.902 C 1654.12 220.298 1682.73 249.131 1697.85 284.643 C 1702.79 296.255 1706.03 308.71 1709.54 320.819 C 1714.89 323.59 1720.23 326.369 1725.26 329.685 C 1746.84 343.902 1758.81 363.677 1763.98 388.652 C 1751.14 382.754 1738.86 375.969 1725.06 372.381 C 1720.03 371.073 1715.13 369.686 1710.41 372.426 C 1708.84 376.395 1709 380.621 1708.83 384.836 C 1715.5 385.868 1722.19 387.008 1728.6 389.171 C 1761.1 400.136 1788.79 427.515 1803.85 457.899 C 1818.42 487.326 1820.66 517.615 1810.18 548.676 C 1797.67 538.804 1784.34 530.407 1768.47 527.357 C 1746.27 523.088 1723.38 530.803 1705.04 543.112 C 1707.23 547.353 1709.96 551.296 1712.56 555.293 C 1722.27 549.546 1732.96 543.993 1744.11 541.749 C 1759.31 538.69 1774.5 542.408 1787.32 550.875 C 1805.87 563.128 1821.42 584.106 1825.73 606.106 C 1830.02 627.997 1823.13 647.133 1811.17 665.204 A 220.644 220.644 0 0 0 1793.06 639.211 C 1788.55 641.349 1784.34 643.802 1780.07 646.384 C 1787.05 657.804 1795.13 668.357 1801.17 680.357 C 1813.02 703.91 1819.17 731.185 1810.53 756.816 C 1805.05 773.052 1794.21 789.332 1778.59 797.144 C 1780.54 773.627 1777.76 753.236 1764.63 733.116 C 1744.92 702.898 1712.29 685.315 1677.62 678.084 C 1681.46 655.786 1679.51 633.971 1667.99 614.151 C 1654.59 591.086 1633.28 578.766 1608.09 572.101 L 1602.22 585.763 C 1610.85 588.141 1619.15 590.541 1627.07 594.813 A 72.7114 72.7114 0 0 1 1662.02 637.679 C 1666.57 653.088 1666.31 671.065 1658.17 685.256 C 1650.38 698.856 1637.59 705.585 1623.11 709.657 C 1601.01 714.877 1583.03 708.697 1563.43 698.725 C 1561.22 702.768 1559.52 707.042 1557.74 711.283 C 1577.06 723.543 1602.58 729.121 1625.07 724.153 C 1645.13 719.722 1659.95 708.099 1670.83 691.01 C 1695.67 696.231 1719.06 705.617 1737.78 723.223 C 1753.91 738.393 1763.54 757.137 1764.12 779.45 C 1764.84 806.876 1755.65 833.311 1736.58 853.239 C 1716.28 874.447 1689.37 883.506 1660.52 884.247 A 181.801 181.801 0 0 0 1661.53 880.889 C 1668.51 856.94 1661.72 837.352 1650.19 816.221 C 1662.97 808.602 1671.79 800.341 1680.45 788.296 C 1676.93 785.332 1673 782.999 1669.11 780.547 C 1650.83 804.549 1636.64 803.415 1610.06 808.587 C 1589.2 812.646 1574.87 825.011 1563.19 842.193 L 1573.49 851.507 C 1577.13 847.081 1580.78 842.655 1584.81 838.58 C 1599.74 823.489 1616.01 821.116 1636.23 821.028 C 1641.81 828.991 1645.53 837.144 1647.49 846.683 A 71.0308 71.0308 0 0 1 1636.75 900.591 C 1626.52 915.851 1610.57 928.362 1592.19 931.677 C 1574.81 934.813 1557.11 933.272 1542.29 922.936 C 1523.48 909.813 1513.29 882.824 1509.41 861.146 C 1505.87 841.408 1508 810.837 1507.98 790.081 L 1507.89 642.791 L 1507.9 366.333 L 1507.72 279.539 C 1507.66 262.426 1506.98 245.075 1507.96 228 C 1508.49 218.892 1510.15 212.287 1515.72 204.743 C 1524.73 192.524 1538.03 187.487 1552.51 185.283 z"/>
<path transform="translate(0,0)" fill="rgb(254,254,254)" d="M 1619.18 273.539 C 1619.8 273.741 1620.45 273.872 1621.04 274.144 C 1632.12 279.255 1640.72 296.943 1643.62 308.251 C 1647.99 325.259 1644.56 339.648 1635.82 354.355 C 1636.56 354.925 1637.29 355.51 1638 356.109 C 1658.39 373.169 1672.56 397.194 1674.75 423.96 C 1676.81 449.192 1669.31 474.738 1652.67 494.006 C 1640.39 508.22 1623.27 518.685 1604.24 519.884 C 1589.56 520.809 1575.14 516.441 1564 506.765 C 1566.68 503.051 1569.6 499.496 1572.43 495.897 C 1585.74 503.042 1595.35 506.379 1610.82 504.553 C 1621.01 501.184 1629.8 496.606 1637.55 489.086 C 1652.46 474.631 1660.1 454.009 1660.2 433.431 C 1660.36 403.064 1643.66 371.785 1615.05 359.505 C 1593.73 350.359 1580.11 352.986 1562.1 334.615 C 1564.72 330.769 1568.03 327.438 1571.17 324.015 C 1589.68 338.049 1600.65 340.162 1622.93 346.21 C 1627.96 338.937 1630.87 331.425 1630.68 322.458 C 1630.33 305.786 1620.73 293.962 1609.42 282.921 C 1612.46 279.607 1615.9 276.61 1619.18 273.539 z"/>
<path transform="translate(0,0)" fill="rgb(0,0,0)" d="M 1429.28 185.389 C 1444.54 183.31 1462.49 186.399 1474.97 195.689 C 1485.62 203.609 1489.82 212.929 1491.37 225.695 C 1492.81 237.544 1492.1 249.869 1492.07 261.803 L 1491.92 322.361 L 1491.85 517.573 L 1491.71 747.512 L 1491.81 815.398 C 1491.85 828.992 1492.7 843.202 1491.19 856.722 C 1489.13 875.164 1482.05 897.655 1470.4 912.393 C 1460.82 924.507 1447.9 931.054 1432.7 932.707 C 1414.55 934.682 1395.73 930.127 1381.51 918.454 C 1365.4 905.239 1353.86 884.106 1352.06 863.296 C 1351.05 851.499 1353.19 835.974 1361.33 826.961 C 1365.07 822.831 1369.77 820.838 1375.31 820.743 C 1391.31 820.468 1406.65 832.317 1417.47 842.947 C 1420.79 839.746 1423.56 836.244 1426.4 832.629 C 1413.32 816.342 1397.83 808.492 1377.04 807.361 C 1369.1 806.929 1360.96 806.997 1353.46 804.006 C 1339.85 798.576 1334.05 786.969 1328.71 774.294 C 1324.82 776.159 1321.1 778.44 1317.36 780.578 A 190.716 190.716 0 0 0 1319.45 786.727 C 1324.97 801.808 1335.65 812.266 1350.1 818.904 C 1337.85 839.861 1335.83 858.063 1340.3 881.781 C 1322.01 881.863 1304 878.297 1287.69 869.797 C 1265.09 858.019 1247.02 836.89 1239.49 812.473 A 95.2345 95.2345 0 0 1 1246.4 738.892 C 1265.25 704.246 1292.97 700.228 1327.39 689.995 A 384.401 384.401 0 0 0 1329.85 693.468 C 1341.32 709.445 1356.31 721.329 1376.14 724.47 C 1401.05 728.415 1423.65 719.533 1443.46 705.036 C 1441.64 700.969 1439.42 697.176 1437.21 693.319 C 1420.89 702.557 1406.43 710.585 1387.24 711.203 A 58.2584 58.2584 0 0 1 1357.87 702.954 C 1345.9 695.751 1338.22 684.253 1334.78 670.855 C 1330.34 653.574 1333.19 635.746 1342.28 620.45 C 1353.18 602.121 1369.61 591.121 1389.99 585.961 C 1388 581.36 1385.76 576.861 1383.59 572.339 C 1364.79 578.685 1348.18 587.742 1336.15 603.977 C 1319.94 625.845 1317.45 649.767 1321.42 675.922 C 1312.72 680.299 1303.36 682.2 1294.01 684.667 C 1271.46 690.611 1254.44 703.476 1240.93 722.453 C 1224.79 745.142 1218.82 772.693 1223.37 800.023 A 121.223 121.223 0 0 1 1221.54 798.621 C 1202.2 783.5 1188.47 765.165 1185.51 740.248 C 1181.88 709.772 1192.94 681.595 1211.62 658.032 C 1208.96 653.31 1206.13 648.668 1203.38 644.001 C 1196.6 651.437 1191.78 658.682 1187.27 667.684 C 1178.22 654.489 1173.12 640.071 1171.51 624.126 A 78.1161 78.1161 0 0 1 1189.04 566.267 C 1201.97 550.646 1219.91 540.096 1240.29 538.402 C 1260.11 536.754 1276.55 544.871 1291.36 557.259 C 1294.29 553.736 1297.04 550.017 1299.86 546.404 C 1288.96 534.046 1273.37 526.744 1257.22 524.231 C 1230.37 520.056 1209.12 530.323 1188.06 545.706 C 1184.96 535.872 1182.45 525.956 1181.56 515.653 C 1178.81 483.773 1189.99 450.282 1210.53 425.913 C 1230.88 401.762 1255.78 389.105 1287.11 386.391 C 1286.93 381.903 1286.33 377.455 1285.81 372.997 C 1264.36 372.584 1246.64 380.909 1228.15 390.735 C 1229.51 384.533 1231 378.152 1233.27 372.218 C 1242.49 348.204 1264.37 328.299 1287.65 318.14 A 179.723 179.723 0 0 1 1321.88 247.913 C 1348.42 215.213 1386.92 189.898 1429.28 185.389 z"/>
<path transform="translate(0,0)" fill="rgb(254,254,254)" d="M 1379.26 272.732 C 1384.24 274.882 1387.72 278.506 1391.5 282.259 C 1381.84 289.705 1373.14 300.464 1370.24 312.498 C 1367.23 325.052 1371.51 335.629 1377.9 346.173 C 1400.6 340.047 1410.51 339.223 1429.64 324.343 C 1433.22 327.763 1435.77 330.971 1438.28 335.244 C 1419.33 355.367 1405.12 351.534 1382.53 361.266 C 1364.47 369.051 1351.01 385.142 1343.92 403.225 C 1336.02 423.358 1336.03 446.976 1344.91 466.81 C 1352.84 484.545 1367 496.225 1384.96 502.924 A 86.9082 86.9082 0 0 0 1389 504.063 C 1404.12 507.87 1415.49 502.228 1428.05 494.503 C 1431.46 498.1 1434.24 502.233 1437.13 506.251 C 1424.75 515.043 1410.53 520.637 1395.08 519.654 C 1374.67 518.354 1356.41 506.476 1343.43 491.224 C 1327.78 472.839 1321.39 448.762 1323.57 424.873 C 1326.27 395.182 1341.46 373.394 1363.81 354.709 C 1358.62 342.964 1354.12 332.149 1354.68 318.973 C 1355.48 299.926 1365.58 285.065 1379.26 272.732 z"/>
<path transform="translate(0,0)" fill="rgb(0,0,0)" d="M 231.755 183.036 L 752.849 182.976 L 752.97 723.491 C 579.332 721.547 405.615 723.714 231.962 722.94 L 231.755 183.036 z"/>
<path transform="translate(0,0)" fill="rgb(254,254,254)" d="M 480.596 255.413 C 480.864 255.378 481.13 255.331 481.398 255.309 A 202.392 202.392 0 0 1 623.545 299.449 C 663.468 331.596 690.878 380.306 696.237 431.394 C 702.071 487.012 687.082 539.888 651.698 583.271 C 615.988 627.055 566.899 651.054 511.25 656.918 C 456.855 659.323 404.155 644.226 362.077 608.827 A 200.784 200.784 0 0 1 291.597 473.843 A 199.779 199.779 0 0 1 339.183 326.787 C 375.522 284.3 425.056 259.703 480.596 255.413 z"/>
<path transform="translate(0,0)" fill="rgb(0,0,0)" d="M 491.158 269.419 L 492.599 269.34 C 541.25 267.094 590.021 287.909 625.043 320.872 A 182.048 182.048 0 0 1 682.314 448.723 A 186.538 186.538 0 0 1 630.094 584.924 C 594.75 621.896 547.567 640.983 496.816 642.164 A 195.575 195.575 0 0 1 370.11 595.427 C 334.179 564.467 310.275 518.233 306.878 470.831 C 303.18 419.231 319.823 371.768 353.89 332.822 C 389.416 292.207 438.238 272.933 491.158 269.419 z"/>
<path transform="translate(0,0)" fill="rgb(254,254,254)" d="M 410.449 511.854 C 418.923 511.751 428.95 510.795 437.148 513.144 C 438.306 515.075 438.541 515.968 438.45 518.217 C 436.165 520.401 432.045 520.432 428.923 521.052 C 426.212 527.008 428.032 540.5 428.151 547.5 C 428.298 550.356 429.025 553.729 427.288 556.172 C 425.022 556.996 424.906 557.1 422.613 556.419 C 418.562 548.917 421.319 535.374 421.138 526.838 C 420.872 514.335 415.89 523.619 410.535 518.543 L 410.449 511.854 z"/>
<path transform="translate(0,0)" fill="rgb(254,254,254)" d="M 389.709 512.255 C 392.423 511.889 395.675 511.218 398.39 511.76 C 401.212 512.323 402.934 513.337 404.513 515.763 C 405.515 517.302 405.266 516.742 404.893 518.606 C 401.206 520.895 394.596 519.936 390.16 521.106 C 393.084 530.626 406.494 531.137 408.182 542.74 A 12.8671 12.8671 0 0 1 405.659 552.385 C 402.528 556.529 398.981 557.166 394.059 557.986 C 389.219 556.738 385.689 555.172 382.527 551.196 C 382.585 548.284 382.784 547.83 384.31 545.333 C 388.068 544.592 389.685 548.509 393.178 549.731 C 395.344 550.489 397.619 549.725 399.491 548.636 C 401.248 547.614 400.676 548.108 401.196 545.94 C 398.542 540.044 392.181 536.751 387.805 532.196 C 385.121 529.404 382.551 526.049 383.019 521.934 C 383.531 517.439 386.412 514.957 389.709 512.255 z"/>
<path transform="translate(0,0)" fill="rgb(254,254,254)" d="M 592.7 512.011 C 593.323 511.968 593.945 511.917 594.568 511.88 C 600.554 511.526 604.443 512.69 608.976 516.848 L 608.689 518.825 C 605.284 521.029 598.154 520.061 593.897 521.071 L 593.08 522.675 C 596.668 530.151 608.39 532.708 611.035 541.928 C 611.819 544.659 611.637 546.802 610.351 549.34 C 608.378 553.234 603.429 555.823 599.556 557.308 C 595.029 557.195 590.926 556.694 587.633 553.248 C 585.396 550.905 584.11 548.581 584.082 545.409 C 586.232 544.051 586.972 544.51 589.439 544.617 C 591.94 546.8 593.782 548.561 597.103 549.396 C 599.739 548.886 600.951 548.543 602.927 546.693 L 602.909 544.251 C 599.983 539.485 594.987 536.308 591.009 532.438 C 588.19 529.694 585.537 525.957 585.968 521.82 C 586.438 517.314 589.458 514.769 592.7 512.011 z"/>
<path transform="translate(0,0)" fill="rgb(254,254,254)" d="M 519.176 511.356 C 519.926 511.453 525.671 512.038 525.889 512.275 C 528.929 515.584 522.742 541.098 529.97 549.07 C 532.271 549.832 533.776 550.081 536.054 548.896 C 545.784 543.835 538.696 522.158 542.02 512.849 C 544.315 511.179 544.559 511.596 547.427 511.954 C 549.403 514.155 548.712 515.897 548.686 518.75 C 548.832 528.75 550.811 545.28 543.685 553.26 C 541.342 555.884 538.13 557.119 534.673 557.343 C 530.767 557.596 526.865 556.604 524.056 553.771 C 515.85 545.494 518.994 522.608 519.176 511.356 z"/>
<path transform="translate(0,0)" fill="rgb(254,254,254)" d="M 458.907 511.837 C 463.644 516.032 471.184 547.61 473.519 555.495 L 472.507 556.864 C 469.683 557.039 468.986 557.367 466.613 555.916 C 465.374 553.083 464.09 550.719 462.379 548.144 C 459.748 546.267 457.27 546.745 454.199 546.876 L 452.75 546.949 L 450.938 547.029 C 448.166 549.39 448.484 551.757 446.813 554.801 C 445.481 557.227 444.977 557.274 442.496 557.79 C 440.643 557.274 439.794 557.186 438.385 555.813 C 439.467 551.948 450.73 517.275 451.888 515.325 C 453.672 512.32 455.812 512.514 458.907 511.837 z"/>
<path transform="translate(0,0)" fill="rgb(0,0,0)" d="M 455.919 526.452 C 456.16 526.641 456.427 526.802 456.641 527.021 C 459.233 529.671 460.298 535.044 460.436 538.659 L 458.617 540.377 C 456.202 539.939 454.435 539.939 452.73 538.012 C 451.876 534.272 454.488 529.882 455.919 526.452 z"/>
<path transform="translate(0,0)" fill="rgb(254,254,254)" d="M 556.896 511.817 C 563.23 511.653 569.746 510.858 575.415 514.255 C 579.422 516.657 582.533 520.081 583.514 524.754 C 584.319 528.59 583.422 532.242 581.081 535.372 C 577.076 540.728 573.233 541.623 566.828 542.48 L 564.687 542.466 C 562.229 546.396 565.098 552.189 563.009 556.735 C 560.534 557.833 560.122 557.503 557.429 556.917 L 557.1 555.402 L 556.223 554.434 C 558.068 551.451 556.867 518.158 556.896 511.817 z"/>
<path transform="translate(0,0)" fill="rgb(0,0,0)" d="M 564.373 519.686 C 566.485 519.751 569.003 519.621 571.046 520.156 C 572.535 520.545 574.168 521.566 574.963 522.874 C 577.005 526.236 575.663 529.871 574.707 533.36 C 571.217 534.036 568.231 534.519 565.092 532.803 C 563.12 529.045 564.123 523.831 564.373 519.686 z"/>
<path transform="translate(0,0)" fill="rgb(254,254,254)" d="M 481.046 512.03 C 486.897 512.001 494.662 511.062 500.244 512.913 C 504.187 514.22 506.683 516.804 508.468 520.495 C 513.475 530.845 503.769 532.06 501.699 539.498 C 500.822 542.652 507.924 553.355 509.624 556.414 L 509.124 557.174 L 500.866 557.311 C 498.529 551.704 496.157 544.214 491.099 540.572 L 489.513 541.228 C 487.667 545.857 489.183 551.096 487.277 555.326 C 486.626 556.772 485.562 556.815 484.209 557.404 L 481.749 556.434 C 479.48 552.185 481.014 519.299 481.046 512.03 z"/>
<path transform="translate(0,0)" fill="rgb(0,0,0)" d="M 488.145 519.914 C 490.585 519.839 493.673 519.61 496.058 520.158 C 498.767 520.78 499.683 522.011 501.049 524.254 C 501.156 527.659 500.423 529.509 498.934 532.543 C 495.383 533.24 492.329 534.079 488.996 532.583 C 487.048 529.104 487.98 523.824 488.145 519.914 z"/>
<path transform="translate(0,0)" fill="rgb(254,254,254)" d="M 551.643 347.232 L 583.873 347.042 L 583.818 491.844 L 552.006 491.674 L 551.643 347.232 z"/>
<path transform="translate(0,0)" fill="rgb(254,254,254)" d="M 444 345.804 C 454.131 345.514 464.318 345.718 474.455 345.706 C 483.442 362.36 489.703 381.864 496.809 399.454 L 534.498 491.748 L 500.151 491.899 A 741.391 741.391 0 0 1 487.805 459.624 L 477.25 459.687 L 430.909 459.812 A 632.184 632.184 0 0 0 419.211 492.092 L 384.787 492.193 C 404.604 443.519 422.95 393.918 444 345.804 z"/>
<path transform="translate(0,0)" fill="rgb(0,0,0)" d="M 458.085 373.54 C 463.323 378.345 476.85 425.886 480.028 436.314 L 459.778 436.302 L 438.303 436.095 A 2405.31 2405.31 0 0 1 458.085 373.54 z"/>
<path transform="translate(0,0)" fill="rgb(0,0,0)" d="M 1419.93 1091.41 C 1430.52 1090.74 1441.57 1091.64 1451.69 1094.92 C 1473.96 1102.13 1486.56 1117.42 1497.01 1137.55 C 1505.66 1120.86 1515.79 1106.63 1533.37 1098.56 C 1559.24 1086.69 1591.76 1090.86 1617.56 1100.75 C 1675.61 1123 1710.25 1172.11 1734.67 1226.97 C 1741.11 1229.85 1747.04 1233.21 1752.66 1237.48 C 1776.32 1255.51 1787.11 1279.5 1790.82 1308.37 C 1807.14 1328.66 1817.81 1335.42 1829 1361.5 C 1843.16 1394.52 1841.66 1428.61 1828.6 1461.62 C 1838.34 1475.18 1846.26 1490.5 1849.37 1507.02 C 1854.89 1536.33 1843.96 1562.91 1827.72 1586.8 C 1836.81 1608.48 1841.81 1630.81 1838.38 1654.4 C 1833.33 1689.13 1810.72 1711.29 1783.91 1731.29 C 1777.28 1753.88 1768.06 1773.19 1751.67 1790.4 C 1724.17 1819.26 1694.4 1827.63 1655.74 1828.36 C 1650.96 1840.91 1644.68 1852.01 1635.22 1861.65 A 84.0256 84.0256 0 0 1 1576.86 1886.47 C 1559.03 1886.62 1545.31 1880.74 1532.61 1868.22 C 1510.61 1841.94 1502.01 1807.93 1497.83 1774.55 C 1494.63 1791.35 1491.17 1807.98 1485.53 1824.18 C 1477.95 1845.93 1465.81 1871.29 1443.7 1881.5 C 1426.28 1889.54 1404.05 1886.3 1386.76 1879.51 C 1361.68 1869.67 1347.95 1850.98 1337.56 1827.02 C 1314.5 1827.76 1293.81 1824.02 1273.36 1813.01 C 1239.96 1795.01 1220.57 1767.99 1209.87 1732.06 A 115.747 115.747 0 0 1 1163.64 1676.33 C 1151.76 1645.64 1155.61 1617.64 1168.63 1588.25 C 1161.83 1576.35 1156.29 1564.5 1152.74 1551.21 C 1144.01 1518.44 1148.14 1490.87 1165.11 1461.81 C 1157.31 1443.14 1154.8 1421.51 1155.88 1401.41 C 1158.12 1359.55 1177.88 1329.72 1208.23 1302.41 C 1208.69 1294.85 1209.64 1287.28 1211.65 1279.96 C 1219.65 1250.79 1240.51 1236.05 1265.46 1221.96 C 1274.83 1195.74 1288.49 1170.61 1306.79 1149.45 C 1335.76 1115.94 1375.91 1094.81 1419.93 1091.41 z"/>
<path transform="translate(0,0)" fill="rgb(254,254,254)" d="M 1416.89 1117.4 C 1424.03 1116.96 1431.13 1116.91 1438.2 1118.22 C 1449.27 1120.29 1458.61 1125.42 1464.95 1134.88 C 1476.1 1151.52 1479.26 1181.43 1480.97 1201.38 C 1483.41 1229.96 1482.62 1259.05 1482.67 1287.71 L 1482.34 1432.94 L 1482.3 1600.01 C 1482.29 1657.57 1483.75 1714.43 1472.9 1771.28 C 1468.26 1795.59 1458.85 1840.35 1436.86 1854.49 C 1427.12 1860.76 1414.82 1860.49 1403.88 1858.04 A 54.5948 54.5948 0 0 1 1369.15 1833.65 C 1353.19 1808.05 1358.46 1773.62 1364.88 1745.94 C 1385.67 1746.35 1397.06 1748.4 1411.14 1764.85 C 1413.35 1767.43 1415.63 1770.73 1418.87 1772.07 C 1421.9 1773.33 1426.43 1773.3 1429.38 1771.8 C 1432.21 1770.35 1433.67 1767.48 1434.15 1764.46 C 1435.28 1757.2 1431.95 1748.85 1427.39 1743.31 C 1413.86 1726.89 1394.04 1722.79 1374.07 1720.4 C 1340.97 1716.45 1350.13 1711.83 1332.37 1690.64 C 1330.07 1687.9 1326.77 1685.29 1322.98 1685.46 C 1319.25 1685.63 1315.83 1688.54 1313.61 1691.34 C 1311.26 1694.31 1311.01 1698.41 1311.71 1702 C 1314.5 1716.45 1329.17 1730.11 1341.07 1737.75 C 1334.43 1759.26 1332.88 1779.46 1334.05 1801.86 A 138.124 138.124 0 0 1 1329.47 1801.9 C 1302.95 1801.88 1278.4 1790.75 1259.81 1771.97 A 96.1928 96.1928 0 0 1 1231.54 1702.58 C 1231.75 1678.67 1239.62 1656.25 1257.03 1639.47 C 1276.9 1620.29 1301.01 1613.63 1327.99 1613.97 C 1343.68 1625.97 1358.71 1635.77 1378.97 1637.02 C 1394.95 1638 1416.67 1632.78 1428.59 1621.63 C 1431.93 1618.51 1434.55 1614.35 1434.61 1609.66 C 1434.64 1606.78 1433.61 1604.13 1431.56 1602.1 C 1428.19 1598.77 1423.94 1598.01 1419.4 1597.84 C 1410.12 1603.92 1400.92 1609.88 1389.77 1611.77 C 1376.37 1614.04 1362.67 1609.46 1352.01 1601.36 A 52.7919 52.7919 0 0 1 1331.41 1566 C 1328.38 1542.95 1339.12 1517.98 1360.32 1507.23 C 1368.01 1503.33 1382.69 1501.67 1387.71 1494.53 C 1389.61 1491.83 1390.85 1488.56 1389.88 1485.23 C 1389.07 1482.41 1386.94 1480.33 1384.46 1478.9 C 1378.86 1475.68 1372.85 1476.18 1366.86 1477.85 C 1344.99 1483.95 1326.72 1497.91 1315.79 1517.93 C 1303.57 1540.32 1303.55 1564.59 1310.58 1588.53 C 1285.36 1591.03 1259.69 1602.29 1240.99 1619.46 C 1219.15 1639.52 1208.05 1667.99 1206.91 1697.22 A 205.084 205.084 0 0 1 1200.96 1690.45 A 81.1201 81.1201 0 0 1 1197.78 1590.82 C 1203.35 1583.2 1211.8 1578.47 1217.81 1571.37 C 1219.67 1569.17 1221.32 1565.81 1221.31 1562.87 C 1221.31 1559.26 1220.06 1556.09 1217.23 1553.74 C 1214.14 1551.16 1209.98 1550.2 1206.02 1550.68 C 1197.91 1551.68 1192.14 1560.43 1187.28 1566.26 A 102.084 102.084 0 0 1 1180.34 1552.18 C 1172.3 1532.33 1170.31 1509.88 1179.07 1489.96 C 1186.27 1473.61 1199.23 1459.91 1216.12 1453.6 C 1234.14 1446.88 1249.45 1448.52 1264.2 1461.46 C 1268.37 1465.12 1272.86 1469.92 1278 1472.12 C 1281.47 1473.6 1284.06 1473.23 1287.39 1471.64 C 1290.26 1470.26 1292.8 1468.11 1293.54 1464.86 C 1294.31 1461.44 1293.09 1457.92 1291.48 1454.94 C 1284.35 1441.7 1268.36 1431.68 1254.18 1427.71 C 1228.69 1420.56 1207.32 1428.01 1185.02 1440.46 A 161.199 161.199 0 0 1 1183.43 1433.69 C 1173.18 1385.35 1195.68 1337.03 1239.94 1314.69 C 1252.46 1308.37 1265.46 1306.89 1278.27 1301.92 C 1281.13 1300.81 1283.86 1299.22 1285.33 1296.4 C 1286.68 1293.82 1286.84 1290.88 1286.01 1288.12 C 1284.94 1284.51 1282.45 1281.74 1279.11 1280.09 C 1268.83 1275 1246.21 1284.62 1235.95 1288.21 C 1244.06 1263.02 1260.92 1254.67 1282.78 1243.07 C 1287.36 1235.58 1290.21 1226.77 1293.61 1218.68 C 1299.91 1203.68 1307.88 1189.35 1318.07 1176.63 C 1342.66 1145.93 1377.1 1121.65 1416.89 1117.4 z"/>
<path transform="translate(0,0)" fill="rgb(0,0,0)" d="M 1377.27 1174.04 C 1379.48 1174.26 1381.87 1174.49 1383.95 1175.34 C 1386.94 1176.58 1389.83 1179.41 1391.07 1182.41 C 1394.95 1191.79 1385.4 1197.34 1380.17 1203.25 A 47.4907 47.4907 0 0 0 1372.12 1215.96 C 1368.83 1223.64 1366.27 1239.67 1370.27 1247.59 C 1371.49 1250 1373.08 1251.77 1375.77 1252.52 C 1383.65 1254.7 1399.15 1247.53 1405.61 1243.08 C 1410.2 1239.93 1417.73 1232.11 1422.83 1230.77 C 1426 1229.93 1430.42 1232.36 1432.73 1234.36 C 1435.64 1236.87 1437.28 1240.13 1437.49 1243.96 C 1437.75 1248.7 1434.09 1253.6 1430.99 1256.8 C 1414.75 1273.59 1393.6 1277 1371.31 1277.15 C 1352.28 1295.18 1338.84 1313.58 1338.11 1340.78 C 1337.65 1357.97 1343.36 1375.1 1355.59 1387.45 C 1366.13 1398.09 1378.74 1403.06 1393.59 1403.13 C 1403.1 1402.45 1410.61 1398.22 1419.59 1395.76 C 1423.65 1394.65 1429.57 1395.35 1432.98 1398.01 C 1435.19 1399.74 1436.33 1401.42 1436.62 1404.24 C 1437.01 1408 1434.76 1412 1432.29 1414.65 C 1423.28 1424.31 1403.94 1428.06 1391.12 1428.09 C 1370.39 1428.14 1350.63 1418.73 1336.27 1404 C 1319.9 1387.21 1311.88 1363.67 1312.36 1340.43 C 1312.99 1309.72 1327.16 1283.89 1349.01 1262.96 C 1343.01 1242.01 1341.18 1222.43 1350.46 1202.06 C 1355.94 1190.02 1364.59 1178.85 1377.27 1174.04 z"/>
<path transform="translate(0,0)" fill="rgb(254,254,254)" d="M 1566.31 1117.4 C 1583 1117.15 1599.23 1120.79 1614.46 1127.53 C 1651.13 1143.77 1677.27 1174.5 1696.3 1209 C 1702.25 1219.78 1707.23 1232.7 1714.85 1242.33 C 1719.39 1248.07 1725.4 1251.09 1731.55 1254.79 C 1745.77 1263.34 1754.62 1275.55 1760.51 1290.85 C 1747.34 1285.94 1724.04 1277.56 1710.12 1282.87 C 1707.19 1283.98 1704.86 1285.97 1703.83 1289.02 C 1702.61 1292.6 1703.14 1297.22 1705.24 1300.38 C 1710.72 1308.64 1728.49 1307.63 1737.57 1309.88 C 1762.51 1316.07 1785.69 1337.02 1798.28 1358.81 C 1814.36 1386.65 1816.32 1412.7 1808.22 1443.34 C 1804.41 1440.67 1800.55 1438 1796.57 1435.6 C 1779.02 1424.97 1758.34 1420.74 1738.28 1425.95 C 1726.04 1429.13 1709.6 1436.51 1703.39 1447.97 C 1701.41 1451.64 1700.07 1456.54 1701.9 1460.54 C 1702.87 1462.67 1704.62 1464.15 1706.73 1465.07 C 1718.88 1470.37 1731.16 1454.27 1742.67 1450.5 C 1755.54 1446.28 1769.31 1449 1781.04 1455.19 C 1800.05 1465.23 1815.6 1484.51 1821.84 1505.05 C 1828.15 1525.83 1821.35 1546.73 1811.69 1565.21 C 1805.59 1558.52 1796.19 1545.55 1786.74 1544.69 C 1782.34 1544.29 1777.73 1545.03 1774.36 1548.1 C 1772.25 1550.02 1771.23 1552.59 1771.28 1555.4 C 1771.44 1563.33 1780.29 1569.41 1785.58 1574.5 C 1802.58 1590.87 1811.79 1615.4 1812.06 1638.79 C 1812.36 1663.4 1802.17 1681.87 1785.4 1699.12 C 1783.26 1674.57 1774.7 1651.52 1759.46 1632.07 C 1738.93 1605.85 1711.29 1590.29 1678.32 1586.15 C 1683.07 1566.86 1684.07 1547.8 1677.27 1528.87 C 1669.33 1506.78 1653.72 1490.05 1632.45 1480.23 C 1624.68 1476.63 1609.78 1471.22 1601.7 1475.27 C 1598.63 1476.81 1596.68 1479.67 1595.96 1482.98 C 1592.41 1499.33 1612.49 1498.81 1622.23 1503.32 A 60.7987 60.7987 0 0 1 1647.61 1525.62 C 1656.07 1538.88 1658.17 1554.38 1654.54 1569.56 A 55.3501 55.3501 0 0 1 1628.52 1604.56 C 1614.96 1612.47 1600.41 1612.5 1585.75 1608.54 C 1577.9 1605.36 1566.28 1592.67 1561 1592.41 C 1557.57 1592.24 1554.37 1593.61 1551.84 1595.89 C 1549.03 1598.43 1547.24 1601.88 1547.35 1605.72 C 1547.51 1611.1 1551.19 1615.85 1554.9 1619.42 C 1567.89 1631.89 1586.96 1637.56 1604.69 1637.18 C 1629.03 1636.65 1646.83 1626.24 1663.4 1609.19 C 1688.49 1611.83 1709.83 1619.03 1728.61 1636.49 C 1747.69 1654.23 1758.59 1677.48 1759.43 1703.56 A 97.8585 97.8585 0 0 1 1732.22 1773.77 C 1713.34 1793.46 1687.47 1802.39 1660.64 1803.02 C 1661.52 1779.4 1659.75 1757.78 1656.6 1734.45 C 1657.46 1733.83 1658.31 1733.19 1659.14 1732.53 C 1667.23 1726.11 1677.72 1713.73 1678.5 1703.19 C 1678.82 1698.89 1676.89 1694.31 1673.96 1691.19 C 1672.23 1689.36 1670.04 1688.23 1667.46 1688.45 C 1656.67 1689.35 1647.36 1708.07 1638.27 1714.15 C 1615.2 1729.58 1589.73 1712.92 1564.22 1744.7 C 1560.01 1749.95 1557.38 1757.28 1558.29 1764.05 C 1558.69 1767.07 1560.05 1770.13 1562.77 1771.75 C 1576.4 1779.86 1586.03 1755.66 1596.7 1751 C 1607.51 1746.29 1620.7 1746.78 1632.27 1744.83 A 168.965 168.965 0 0 1 1633.84 1754.01 C 1637.51 1780.76 1638.56 1816.28 1620.74 1838.79 C 1611.38 1850.63 1596.9 1858.37 1581.91 1860.08 C 1571.82 1861.23 1562.65 1859.4 1554.61 1852.92 C 1526.27 1830.07 1516.64 1761.35 1512.84 1725.84 C 1508.25 1683.01 1508.84 1640.18 1508.79 1597.18 L 1508.89 1435.1 L 1508.9 1296.51 C 1508.91 1266.95 1507.79 1236.95 1510.62 1207.51 C 1512.76 1185.37 1517.41 1148.68 1531.78 1131.67 C 1540.82 1120.98 1553.11 1118.58 1566.31 1117.4 z"/>
<path transform="translate(0,0)" fill="rgb(0,0,0)" d="M 1608.27 1173.87 C 1611.94 1173.74 1615.09 1174.34 1618.45 1175.86 C 1631.12 1181.6 1639.37 1194.41 1644.02 1207.1 C 1650.35 1224.38 1651.74 1245.56 1643.87 1262.5 C 1661.24 1280.46 1673.31 1299.78 1676.51 1324.92 C 1679.69 1349.98 1673.69 1375.05 1658.12 1395.1 A 83.6439 83.6439 0 0 1 1602.13 1427.29 C 1589.42 1428.85 1573.65 1427.95 1563.45 1419.41 C 1559.36 1415.98 1556.65 1411.27 1556.37 1405.88 C 1556.22 1402.91 1557 1399.83 1559.38 1397.85 C 1566.55 1391.9 1575.9 1398.38 1582.99 1400.51 C 1585.85 1401.36 1589.16 1401.35 1592.12 1401.48 C 1607.82 1400.82 1622.23 1395.62 1633.39 1384.28 C 1645.75 1371.73 1651.61 1354.15 1651.25 1336.74 C 1650.76 1312.58 1638.38 1292.26 1621.23 1276.01 C 1597.44 1274.46 1580.07 1274.18 1560.81 1257.87 C 1556.69 1254.38 1551.35 1249.01 1551.42 1243.15 C 1551.46 1240.25 1552.84 1237.68 1554.86 1235.68 C 1568.41 1222.28 1578.23 1243.7 1590.37 1247.8 C 1600.67 1251.28 1611.97 1250.48 1622.66 1250.12 C 1623.24 1246.45 1623.75 1242.79 1623.89 1239.07 C 1624.39 1225.4 1619.95 1209.81 1609.26 1200.68 C 1606.54 1198.36 1602.27 1196.74 1600.14 1193.93 C 1598.1 1191.24 1597.05 1188.2 1597.78 1184.82 C 1598.97 1179.34 1603.72 1176.34 1608.27 1173.87 z"/>
<path transform="translate(0,0)" fill="rgb(0,0,0)" d="M 1274.47 913.502 A 1796.49 1796.49 0 0 1 1304.05 913.396 L 1304.83 1144.66 C 1279.79 1145.47 1254.57 1144.95 1229.52 1144.96 L 1094.17 1144.99 L 687.685 1145.03 C 712.591 1171.94 731.041 1200.26 743.274 1234.95 C 757.656 1241.42 770.95 1248.34 781.108 1260.8 C 792.61 1274.91 795.193 1291.72 793.427 1309.35 C 809.805 1321.71 823.261 1336.64 832.81 1354.9 C 851.728 1391.08 849.457 1429.13 837.558 1466.94 C 843.886 1477.94 849.859 1488.86 853.042 1501.24 C 861.115 1532.63 850.145 1561.59 834.256 1588.34 C 847.122 1614.5 849.386 1642.72 840.352 1670.54 C 832.031 1696.17 814.861 1716.13 790.956 1728.45 C 784.04 1750.83 775.959 1771.16 759.399 1788.29 C 734.619 1813.92 702.343 1822.29 667.678 1822.94 C 665.126 1829.2 662.575 1835.46 659.383 1841.43 C 648.74 1861.33 632.066 1876.14 610.216 1882.48 C 591.769 1887.83 569.499 1887.61 552.491 1877.9 C 530.589 1865.4 521.868 1842.33 515.596 1819.3 C 511.087 1836.11 505.029 1852.06 493.104 1865.11 C 481.28 1878.05 466.337 1885.11 448.771 1885.81 C 425.189 1886.74 404.905 1877.99 387.705 1862.28 C 376.191 1851 369.97 1837.51 364.287 1822.66 C 338.844 1821.8 312.104 1816.6 289.968 1803.48 C 261.358 1786.52 246.978 1759.23 239.09 1728.06 C 218.738 1716.1 201.612 1700.97 192.15 1678.87 C 178.361 1646.67 183.787 1615 196.534 1583.71 C 188.784 1572.86 183.703 1560.37 180.427 1547.49 C 172.588 1516.68 178.2 1491.74 194.333 1464.96 C 186.742 1445.99 184.65 1425.66 186.381 1405.39 C 189.64 1367.23 208.815 1335.62 237.744 1311.35 C 238.108 1305.81 238.803 1300.22 240.171 1294.84 C 247.409 1266.32 268.574 1248.18 292.777 1233.58 C 295.491 1226.65 297.873 1219.6 300.726 1212.72 C 318.979 1168.75 357.126 1127.58 401.411 1109.24 C 425.837 1099.13 457.259 1093.59 482.446 1104.3 C 500.325 1111.9 508.396 1126.48 515.239 1143.52 C 517.938 1135.61 521.06 1128.34 526.144 1121.66 C 536.697 1107.77 551.437 1101.6 568.235 1099.54 C 608.375 1094.62 646.578 1111.85 677.497 1136.22 L 677.958 914.32 C 739.421 912.9 801.168 914.102 862.659 914.106 L 1274.47 913.502 z"/>
<path transform="translate(0,0)" fill="rgb(254,254,254)" d="M 1226.04 919.5 L 1298.94 919.489 L 1299.14 1139.12 L 756.5 1139.26 L 683.158 1139.17 C 681.9 1066.13 683.234 992.85 683.124 919.786 L 1226.04 919.5 z"/>
<path transform="translate(0,0)" fill="rgb(0,0,0)" d="M 1008.38 1038.03 C 1011.47 1038.02 1014.71 1037.53 1017.33 1039.41 C 1020.09 1051.91 1017.97 1081.77 1017.87 1096.05 C 1014.91 1096.08 1011.82 1096.51 1009.19 1094.96 C 1006.15 1079.42 1009.05 1054.79 1008.38 1038.03 z"/>
<path transform="translate(0,0)" fill="rgb(0,0,0)" d="M 927.136 955.226 C 935.055 955.069 943.2 954.584 951.098 955.147 C 954.915 955.419 958.46 955.754 961.124 958.792 C 961.27 961.301 960.916 961.62 959.621 963.823 C 956.121 965.541 951.044 964.861 947.135 964.887 A 1774.51 1774.51 0 0 0 947.298 1004.61 L 948.407 1005.43 C 948.031 1008.09 947.915 1011.05 945.647 1012.85 C 943.723 1014.37 942.12 1014.56 939.803 1014.29 C 934.806 1007 940.429 977.063 937.212 965.01 C 934.204 963.001 931.753 965.168 928.191 963.67 C 926.384 960.963 926.928 958.306 927.136 955.226 z"/>
<path transform="translate(0,0)" fill="rgb(0,0,0)" d="M 1196.76 955.971 C 1205.6 955.989 1214.55 955.072 1223.38 955.663 C 1226.85 955.895 1229.73 956.284 1232.13 958.983 C 1232.59 961.216 1232.74 962.434 1232.07 964.628 C 1228.13 966.146 1222.22 965.267 1217.99 965.18 L 1218.02 1003.23 C 1218.16 1007.16 1218.92 1011.22 1216.36 1014.37 C 1213.54 1014.37 1212.15 1014.65 1209.66 1013.24 C 1207.08 1001.52 1209.18 978.185 1209.32 965.085 C 1205.69 965.167 1200.48 965.988 1197.27 964.154 C 1195.64 961.491 1196.37 958.9 1196.76 955.971 z"/>
<path transform="translate(0,0)" fill="rgb(0,0,0)" d="M 1027.69 1038.27 C 1037.23 1038.12 1056.26 1034.75 1063.92 1040.78 C 1064.89 1043.26 1065.12 1043.46 1064.44 1046 C 1060.16 1048.44 1054.81 1047.39 1049.96 1047.16 L 1049.97 1082.48 L 1050.02 1086.49 C 1050.05 1087.89 1050.11 1089.29 1050.06 1090.68 C 1049.94 1093.75 1049.14 1095.35 1046.93 1097.41 C 1045.71 1097.36 1045.48 1097.52 1044.5 1097.03 C 1043.65 1096.6 1041.78 1095.05 1041.42 1094.2 C 1037.95 1086.14 1043.47 1058.85 1040.33 1047.57 C 1036.09 1044.77 1032.8 1049.53 1028.35 1047.98 C 1026.81 1045.19 1027.52 1041.35 1027.69 1038.27 z"/>
<path transform="translate(0,0)" fill="rgb(0,0,0)" d="M 976.129 955.126 C 982.258 954.719 986.916 955.12 992.402 958.324 C 994.806 959.728 995.317 960.908 996.013 963.49 C 995.146 966.114 994.64 967.254 992.472 969.001 C 989.633 968.97 988.653 967.876 986.322 966.292 C 983.844 964.607 982.592 963.472 979.414 963.521 C 976.943 964.682 976.039 965.34 974.631 967.692 C 975.568 978.029 995.166 981.855 998.79 993.593 C 1000.01 997.55 999.141 1001.38 997.209 1004.94 C 993.757 1011.3 989.842 1013.34 983.124 1015.5 A 117.006 117.006 0 0 1 979.867 1015.25 C 974.835 1014.78 970.026 1013.57 966.813 1009.35 C 964.793 1006.7 963.992 1004.85 964.46 1001.56 C 970.205 998.625 980.666 1008.74 988.009 1005.19 C 989.502 1004.46 989.871 1003.33 990.198 1001.74 C 992.665 989.754 971.256 984.001 965.836 974.839 C 964.444 972.487 963.992 970.008 964.877 967.357 C 966.64 962.081 971.551 957.88 976.129 955.126 z"/>
<path transform="translate(0,0)" fill="rgb(0,0,0)" d="M 1172.27 955.647 C 1175.3 958.964 1195.11 1006.05 1198.78 1014.14 L 1188.64 1014.6 C 1187.28 1010.61 1185.91 1003.91 1182.53 1001.24 C 1179.74 999.037 1175.12 999.73 1171.75 999.869 L 1161.5 999.82 C 1159.73 1004.27 1157.9 1011.2 1153.95 1014.11 C 1151.1 1014.21 1148.79 1014.27 1146.02 1013.43 C 1151.41 998.136 1164.27 969.927 1172.27 955.647 z"/>
<path transform="translate(0,0)" fill="rgb(254,254,254)" d="M 1171.39 974.726 C 1171.64 974.978 1171.93 975.191 1172.13 975.482 C 1174.62 979.15 1178.19 986.647 1177.12 991.003 L 1174.14 991.837 C 1171.06 991.668 1168.96 992.051 1166.41 990.234 C 1165.8 985.228 1169.38 979.413 1171.39 974.726 z"/>
<path transform="translate(0,0)" fill="rgb(0,0,0)" d="M 1009.94 955.097 A 694.547 694.547 0 0 1 1041.35 955.179 C 1043.21 956.979 1043.63 957.9 1044.13 960.43 C 1043.78 961.73 1043.93 961.913 1043.06 962.794 C 1038.77 967.133 1024.67 965.249 1018.93 965.152 L 1018.86 978.131 C 1024.73 978.094 1030.98 977.443 1036.79 977.743 C 1039.67 977.891 1041.47 978.818 1043.48 980.875 C 1044.11 983.111 1044.36 983.712 1043.84 985.942 C 1036.81 989.125 1027.09 985.072 1019.48 987.538 L 1018.8 989.75 L 1018.87 1005.25 C 1025.88 1005.12 1038.42 1003.25 1044.06 1007.47 C 1044.91 1009.73 1044.95 1009.58 1044.02 1011.8 C 1037.88 1017.27 1018.49 1014.7 1009.99 1014.66 C 1009.83 994.823 1009.34 974.922 1009.94 955.097 z"/>
<path transform="translate(0,0)" fill="rgb(0,0,0)" d="M 1222.83 1077.47 C 1222.93 1070.84 1221.63 1041.26 1224.76 1037.64 C 1227.5 1037.79 1229.13 1037.49 1231.5 1039.01 C 1233.99 1056.01 1231.87 1078.12 1231.69 1095.66 L 1230.67 1096.53 C 1224.86 1093.1 1200.32 1066.05 1193.06 1058.77 C 1192.97 1066.4 1193.35 1074.01 1193.38 1081.64 C 1193.4 1087.06 1193.67 1092.39 1189.62 1096.42 L 1186.79 1096.35 C 1186.27 1095.8 1185.55 1095.39 1185.24 1094.71 C 1183.8 1091.62 1184.92 1044.67 1184.89 1037.35 C 1193.99 1043.76 1214.5 1068.08 1222.83 1077.47 z"/>
<path transform="translate(0,0)" fill="rgb(0,0,0)" d="M 908.189 955.214 C 910.903 955.157 913.306 955.327 915.995 955.708 C 918.973 959.786 917.866 1006.01 917.922 1014.36 C 905.517 1001.08 892.562 988.689 878.945 976.661 L 878.889 1013.29 C 875.877 1013.26 873.425 1013.37 870.645 1012 C 868.118 994.452 870.126 971.846 870.227 953.775 C 882.657 967.067 895.84 979.719 908.381 992.936 L 908.189 955.214 z"/>
<path transform="translate(0,0)" fill="rgb(0,0,0)" d="M 783.323 954.692 C 786.92 965.317 788.408 985.708 790.735 997.903 C 791.505 1001.94 794.159 1007.4 793.796 1011.36 C 793.651 1012.94 792.772 1013.04 791.594 1013.88 C 789.105 1014.13 787.367 1014.57 785.087 1013.33 C 781.624 1004.14 780.86 992.4 779.144 982.613 C 774.519 993.95 769.087 1004.88 764.662 1016.32 C 759.521 1005.03 754.74 993.558 749.838 982.161 L 748.085 994.619 C 746.951 999.428 747.142 1004.46 746.029 1009.21 C 745.385 1011.96 744.595 1012.8 742.234 1014.19 C 739.459 1013.88 738.143 1014.3 736.108 1012.22 C 736.316 998.404 744.208 969.734 746.938 954.082 C 752.637 967.871 757.836 982.707 765.229 995.654 C 771.438 982.328 775.884 967.311 783.323 954.692 z"/>
<path transform="translate(0,0)" fill="rgb(0,0,0)" d="M 912.724 1038.24 C 920.389 1037.99 929.187 1036.99 936.489 1039.82 C 940.662 1041.43 944.23 1044.28 946.003 1048.47 C 947.792 1052.7 947.444 1057.58 945.739 1061.78 C 943.538 1067.21 940.027 1068.67 934.917 1070.84 A 181.8 181.8 0 0 0 952.503 1095.99 C 948.589 1096.11 943.679 1096.99 940.145 1095.29 C 934.019 1086.08 928.437 1076.59 921.93 1067.63 C 921.94 1074.62 923.95 1091.22 919.377 1096.6 C 916.934 1096.74 916.887 1096.61 914.846 1095.22 C 910.564 1087.39 912.749 1049.94 912.724 1038.24 z"/>
<path transform="translate(0,0)" fill="rgb(254,254,254)" d="M 922.057 1047.08 C 925.874 1047.08 930.449 1046.83 934.007 1048.47 C 936.112 1049.44 937.642 1050.96 938.112 1053.31 C 938.673 1056.12 937.149 1059.05 936.004 1061.52 C 931.213 1062.98 926.905 1062.92 921.963 1062.91 L 922.057 1047.08 z"/>
<path transform="translate(0,0)" fill="rgb(0,0,0)" d="M 1073.89 1038.19 C 1079.08 1038.03 1084.71 1037.64 1089.86 1038.26 C 1096.5 1039.07 1103.97 1043 1107.72 1048.62 C 1109.61 1051.45 1110.65 1054.92 1109.57 1058.27 C 1107.58 1064.48 1102.15 1068.17 1096.54 1070.68 A 450.37 450.37 0 0 0 1114.26 1095.93 C 1110.32 1096.02 1105.83 1096.6 1102.08 1095.27 C 1095.88 1086.23 1090.6 1076.24 1083.18 1068.13 C 1083.1 1074.34 1085.12 1091.07 1082.05 1095.58 C 1079.38 1095.7 1077.18 1095.99 1074.73 1094.7 C 1071.84 1082.71 1073.85 1052.13 1073.89 1038.19 z"/>
<path transform="translate(0,0)" fill="rgb(254,254,254)" d="M 1083.01 1046.1 C 1086.73 1046.21 1091.18 1046.11 1094.61 1047.8 C 1096.76 1048.87 1098.45 1050.37 1098.97 1052.83 C 1099.58 1055.75 1097.97 1058.55 1096.69 1061.04 C 1092.33 1062.29 1087.43 1062.39 1082.91 1062.82 L 1083.01 1046.1 z"/>
<path transform="translate(0,0)" fill="rgb(0,0,0)" d="M 1055.06 955.173 C 1061.39 955.11 1070.84 954.018 1076.82 955.741 C 1081.18 956.997 1085.09 960.229 1087.26 964.182 C 1095.69 979.492 1081.18 981.054 1078.63 988.955 C 1082.72 997.88 1090.49 1006.25 1096.43 1014.14 C 1094.3 1014.26 1092.14 1014.41 1090 1014.39 C 1087.08 1014.37 1085.57 1014.57 1083.48 1012.55 C 1078.66 1005.04 1073.53 994.965 1067.02 988.934 L 1065.39 989.204 C 1062.46 997.143 1066.22 1006.28 1062.11 1014.03 C 1059.63 1015.57 1059.59 1015.4 1056.67 1014.99 C 1053.52 1011.44 1055.06 963.508 1055.06 955.173 z"/>
<path transform="translate(0,0)" fill="rgb(254,254,254)" d="M 1064.08 962.971 C 1067.35 962.969 1070.89 962.806 1074.02 963.9 C 1075.95 964.572 1078.13 966.06 1078.96 967.934 C 1080.71 971.872 1079.12 975.426 1077.56 979.139 C 1075.22 979.88 1072.22 980.86 1069.79 980.999 C 1067.19 981.146 1066.63 980.605 1064.82 979.047 C 1063 974.112 1063.89 968.17 1064.08 962.971 z"/>
<path transform="translate(0,0)" fill="rgb(0,0,0)" d="M 1103.84 955.44 C 1111.1 955.245 1119.68 954.212 1126.68 956.551 C 1130.8 957.925 1134.8 960.565 1136.75 964.554 C 1138.75 968.665 1138.32 973.27 1136.76 977.45 C 1134.58 983.27 1131.01 985.623 1125.53 988.09 C 1130.34 996.043 1138.43 1004.07 1141.12 1012.94 L 1140.12 1014.21 C 1136.91 1014.3 1134.06 1014.57 1131.02 1013.33 C 1125.63 1003.95 1119.23 994.381 1112.41 985.986 C 1112.05 993.842 1114.24 1006.79 1111.51 1013.71 C 1108.95 1014.25 1107.36 1014 1104.85 1013.55 C 1101.48 1008.46 1103.37 964.266 1103.84 955.44 z"/>
<path transform="translate(0,0)" fill="rgb(254,254,254)" d="M 1112.32 963.72 C 1115.81 963.744 1120.85 963.338 1124.05 965.008 C 1126.24 966.146 1127.72 967.231 1128.26 969.768 C 1128.88 972.675 1127.17 975.869 1126 978.438 C 1123.77 979.333 1120.73 980.351 1118.34 980.523 C 1115.68 980.715 1115.1 980.337 1113.12 978.831 C 1111.19 974.257 1112.11 968.606 1112.32 963.72 z"/>
<path transform="translate(0,0)" fill="rgb(0,0,0)" d="M 960.305 1037.92 C 967.702 1037.53 974.709 1037.68 981.8 1040.03 C 996.411 1044.86 988.356 1052.67 988.033 1061.7 C 987.925 1064.72 995.913 1070.96 997.218 1074.47 C 998.994 1079.25 996.428 1085.19 994.403 1089.45 C 984.724 1098.11 972.428 1096.16 960.342 1095.99 L 960.305 1037.92 z"/>
<path transform="translate(0,0)" fill="rgb(254,254,254)" d="M 969.312 1045.76 C 971.955 1045.89 975.633 1045.97 978.037 1047.19 C 980.087 1048.24 981.597 1049.48 982.122 1051.83 C 982.732 1054.55 981.308 1057.39 980.204 1059.79 C 976.421 1060.81 973.716 1061.43 970.184 1059.7 C 968.184 1055.86 969.16 1050.03 969.312 1045.76 z"/>
<path transform="translate(0,0)" fill="rgb(254,254,254)" d="M 969.46 1068.58 C 972.995 1068.56 977.086 1068.26 980.544 1069.09 C 983.323 1069.75 986.672 1071.47 987.915 1074.18 C 989.558 1077.77 988.095 1081.64 986.714 1085 C 981.249 1087.63 975.476 1087.83 969.547 1088.25 L 969.46 1068.58 z"/>
<path transform="translate(0,0)" fill="rgb(0,0,0)" d="M 1144.84 1037.22 C 1150.42 1037.53 1156.01 1038.82 1160.84 1041.71 A 27.2183 27.2183 0 0 1 1173.46 1059.96 C 1175.12 1068.39 1173.46 1077.64 1168.39 1084.66 C 1162.74 1092.47 1155.89 1095.35 1146.66 1096.8 C 1140.96 1096.72 1135.26 1095.55 1130.37 1092.55 C 1123.5 1088.33 1119.05 1081.58 1117.39 1073.73 A 29.3318 29.3318 0 0 1 1121.69 1050.99 C 1127.32 1042.69 1135.31 1039.14 1144.84 1037.22 z"/>
<path transform="translate(0,0)" fill="rgb(254,254,254)" d="M 1142.33 1046.99 C 1145.61 1047 1148.9 1047.02 1152.05 1048.08 C 1157.08 1049.78 1161.29 1053.28 1163.56 1058.1 C 1165.93 1063.12 1165.92 1068.96 1163.85 1074.07 C 1161.07 1080.96 1156.03 1084.54 1149.38 1087.27 C 1146.31 1087.35 1142.74 1087.41 1139.78 1086.52 C 1134.84 1085.02 1130.29 1081.03 1128.02 1076.43 A 19.947 19.947 0 0 1 1127.47 1059.93 C 1130.35 1052.89 1135.54 1049.69 1142.33 1046.99 z"/>
<path transform="translate(0,0)" fill="rgb(0,0,0)" d="M 869.471 1037.34 C 875.798 1037.6 881.889 1038.74 887.337 1042.14 A 29.2253 29.2253 0 0 1 900.462 1060.88 C 902.297 1069.42 900.57 1078.7 895.445 1085.83 C 889.738 1093.76 882.536 1096.42 873.252 1097.74 C 866.191 1097.47 860.031 1096.55 854.137 1092.35 C 847.514 1087.62 843.562 1080.42 842.251 1072.47 C 840.88 1064.15 842.567 1055.21 847.776 1048.47 C 853.478 1041.09 860.583 1038.72 869.471 1037.34 z"/>
<path transform="translate(0,0)" fill="rgb(254,254,254)" d="M 865.102 1047.15 C 868.852 1046.62 872.644 1046.3 876.366 1047.25 A 21.1919 21.1919 0 0 1 889.113 1056.74 A 21.5999 21.5999 0 0 1 891.214 1074.04 C 889.031 1081.19 884.311 1085.14 877.88 1088.43 C 874.231 1088.89 870.384 1089.08 866.774 1088.23 A 21.0127 21.0127 0 0 1 853.311 1077.99 A 21.3908 21.3908 0 0 1 851.593 1061.78 C 853.758 1054.37 858.498 1050.58 865.102 1047.15 z"/>
<path transform="translate(0,0)" fill="rgb(0,0,0)" d="M 825.845 955.132 C 831.924 954.717 837.894 955.287 843.488 957.868 C 850.566 961.132 855.787 967.022 858.333 974.371 C 861.156 982.52 860.372 991.983 856.4 999.618 C 851.903 1008.26 845.074 1012.41 836.112 1015.4 C 829.476 1015.56 823.192 1015.35 817.055 1012.53 C 809.778 1009.18 804.141 1003.29 801.588 995.644 C 798.895 987.582 799.742 978.173 803.797 970.708 C 808.627 961.814 816.397 957.658 825.845 955.132 z"/>
<path transform="translate(0,0)" fill="rgb(254,254,254)" d="M 826.218 964.133 C 829.988 963.903 833.74 963.987 837.329 965.325 A 20.9874 20.9874 0 0 1 849.099 976.496 A 21.809 21.809 0 0 1 849.021 993.966 C 845.936 1000.92 840.778 1004.15 833.932 1006.81 C 830.713 1006.97 827.637 1007 824.509 1006.08 A 21.0681 21.0681 0 0 1 811.532 995.209 A 21.5004 21.5004 0 0 1 810.98 977.782 C 813.929 970.417 819.186 967.108 826.218 964.133 z"/>
<path transform="translate(0,0)" fill="rgb(254,254,254)" d="M 442.539 1110.38 C 455.622 1109.12 470.363 1110.25 482.088 1116.67 C 495.884 1124.22 502.46 1138.72 506.449 1153.22 C 513.282 1178.06 510.264 1231.95 510.201 1259.76 L 509.931 1409.28 L 510.034 1632.95 C 510.095 1683.18 511.511 1733.82 507.898 1783.94 C 506.408 1804.61 504.166 1827.26 493.458 1845.51 C 485.548 1858.99 473.431 1869.52 457.978 1873.24 C 441.081 1877.31 422.056 1872.84 407.429 1863.87 C 387.544 1851.67 376.996 1829.73 371.737 1807.71 C 365.969 1783.55 368.426 1760.42 381.595 1739.26 C 397.774 1736.51 420.172 1737.82 432.372 1749.98 C 437.274 1754.87 440.359 1762.3 447.204 1764.66 C 448.697 1764.3 449.345 1764.44 450.398 1763.18 C 451.928 1761.35 452.672 1758.71 452.119 1756.34 C 450.945 1751.29 445.572 1746.57 441.801 1743.33 C 426.298 1730.01 411.091 1727.07 391.123 1727.53 C 387.623 1727.61 381.948 1728.12 378.81 1726.49 C 365.569 1719.6 352.756 1698.34 345.1 1693.73 C 342.948 1692.44 342.125 1693.13 339.924 1693.84 C 339.469 1695.17 339.509 1696.36 339.66 1697.75 C 341.17 1711.63 360.165 1726.02 370.515 1733.95 C 356.849 1759.4 355.436 1783 360.547 1811.14 C 341.545 1810.72 321.955 1807.03 304.775 1798.71 A 99.1042 99.1042 0 0 1 253.957 1740.68 C 244.855 1713.66 245.869 1681.21 258.793 1655.58 C 278.027 1617.44 308.358 1611.22 345.807 1598.94 C 348.323 1602.49 350.836 1606.09 353.752 1609.33 A 68.0338 68.0338 0 0 0 401.433 1632.19 C 417.744 1632.85 437.567 1627.13 449.346 1615.29 C 451.832 1612.8 453.569 1609.39 453.524 1605.84 L 451.939 1604.6 C 445.991 1604.36 443.056 1606.04 438.648 1609.79 L 437.486 1610.79 C 434.515 1612.78 431.32 1614.39 428.047 1615.83 C 414.155 1621.92 397.699 1622.4 383.62 1616.69 C 368.54 1610.58 357.132 1597.32 350.843 1582.55 A 62.4497 62.4497 0 0 1 350.394 1534.31 C 356.196 1520.06 370.03 1503.49 384.813 1498.33 C 391.037 1496.16 399.471 1495.06 405.121 1491.85 C 407.789 1490.34 407.637 1489.38 408.346 1486.58 C 407.779 1485.32 407.757 1484.58 406.447 1483.89 C 401.716 1481.4 394.165 1482.93 389.294 1484.3 C 369.943 1489.75 353.323 1504.59 343.902 1522.12 C 332.112 1544.05 333.179 1564.4 340 1587.63 C 313.144 1601.59 291.614 1599.16 267.985 1623.47 C 242.784 1649.41 236.566 1678.95 237.028 1713.85 A 91.8071 91.8071 0 0 1 225.025 1704.89 C 206.788 1689.01 196.747 1665.97 195.383 1642.01 C 194.262 1622.35 199.685 1597.55 212.043 1581.8 C 217.572 1574.76 224.986 1569.25 230.511 1562.33 C 231.949 1560.53 233.184 1558.56 232.326 1556.16 C 231.368 1553.5 230.386 1553.06 227.97 1552.26 C 218.672 1554.08 209.494 1567.19 203.467 1574.22 C 200.528 1568.93 197.651 1563.65 195.396 1558.03 C 186.801 1536.6 184.643 1512.16 193.915 1490.58 C 201.299 1473.4 216.097 1457.84 233.688 1451.06 C 248.807 1445.24 273.57 1444.32 286.835 1454.7 C 291.656 1458.47 296.984 1465.73 302.666 1467.82 C 304.808 1468.6 306.714 1468.62 308.795 1467.67 L 309.579 1465.35 C 308.74 1461.44 306.965 1458.43 304.571 1455.23 C 297.219 1445.41 278.891 1437.5 266.944 1435.65 C 242.756 1431.91 222.764 1442.41 203.838 1456.3 C 194.32 1428.91 195.095 1400.44 205.353 1373.31 A 115.808 115.808 0 0 1 277.488 1303.33 C 284.449 1301.05 295.834 1300.9 301.675 1297.36 C 303.941 1295.98 304.223 1295.59 304.765 1293.2 C 303.632 1291.16 302.656 1290.09 300.45 1289.17 C 286.822 1283.45 262.467 1296.71 249.759 1302.31 C 257.385 1272.53 275.808 1257.88 301.105 1242.54 C 311.138 1215.99 322.385 1191.56 340.441 1169.34 C 366 1137.89 401.818 1114.77 442.539 1110.38 z"/>
<path transform="translate(0,0)" fill="rgb(0,0,0)" d="M 403.579 1178.63 C 404.65 1178.62 405.954 1178.56 406.995 1178.8 C 409.317 1179.34 410.562 1180.55 411.715 1182.51 C 411.705 1187.65 396.245 1200.95 391.87 1208.45 C 382.059 1225.26 381.146 1242.84 385.948 1261.37 C 401.44 1260.63 421.496 1258.86 434.173 1248.74 C 440.011 1244.08 445.485 1237.2 451.92 1233.5 C 454.278 1232.14 456.391 1232.83 458.906 1233.31 C 460.473 1234.68 460.645 1234.31 460.89 1236.53 C 459.675 1240.02 457.851 1242.38 455.327 1245.07 C 443.689 1257.47 424.154 1267.86 407.394 1270.7 C 401.903 1271.63 395.599 1271.35 390.015 1271.43 C 382.344 1276.05 375.437 1281.44 369.858 1288.49 C 356.478 1305.41 351.108 1329.38 353.671 1350.58 C 356.179 1371.31 365.453 1389.25 381.815 1402.26 C 386.897 1405.69 392.099 1408.59 397.934 1410.52 C 414.353 1415.96 422.166 1410.01 436.313 1403.49 C 440.127 1401.73 444.228 1401.07 448.195 1402.67 L 448.799 1405.51 C 446.323 1410.01 443.014 1413.02 438.726 1415.84 C 427.616 1423.15 412.522 1424.48 399.66 1421.89 C 381.128 1418.17 366.457 1406.71 356.264 1391.05 C 342.455 1369.85 338.638 1343.1 343.885 1318.51 C 348.355 1297.56 359.021 1278.23 377.151 1266.32 C 373.119 1255.14 370.945 1243.25 372.392 1231.38 C 375.04 1209.67 386.733 1191.99 403.579 1178.63 z"/>
<path transform="translate(0,0)" fill="rgb(254,254,254)" d="M 570.684 1110.33 C 590.823 1107.03 613.426 1113.09 631.735 1121.15 C 684.932 1144.56 714.882 1191.05 735.099 1243.38 C 747.514 1248.3 759.851 1254.5 769.168 1264.29 C 779.814 1275.48 783.391 1287.64 783.026 1302.72 C 771.649 1295.33 756.886 1289.28 743.511 1286.94 C 739.951 1286.32 736.706 1285.94 733.628 1288.18 C 732.637 1290.81 732.927 1291.6 733.403 1294.41 C 736.221 1297.87 751.072 1300.57 755.673 1302.03 C 783.85 1310.98 809.165 1333.55 822.549 1359.75 C 838.395 1390.77 839.726 1425.22 828.944 1458.02 C 813.511 1444.82 795.869 1435.98 775.303 1435.57 C 758.526 1435.23 737.478 1442.11 725.538 1454.28 C 723.081 1456.79 722.08 1458.82 722.202 1462.42 C 723.64 1465 723.992 1465.46 726.496 1467.01 C 730.922 1466.48 747.543 1452.07 758.796 1448.86 C 774.786 1444.3 792.584 1447.49 806.84 1455.76 C 824.279 1465.87 836.863 1483.97 841.787 1503.38 C 848.212 1528.7 840.829 1556.4 827.927 1578.45 C 823.304 1572.73 817.733 1561.47 810.681 1559.23 C 808.1 1558.41 806.741 1558.75 804.345 1559.79 L 803.671 1562.01 C 805.307 1568.93 815.187 1578.22 819.224 1584.55 C 833.305 1606.64 837.628 1631.8 831.911 1657.38 C 826.477 1681.68 814.299 1700.59 793.31 1714.05 C 795.102 1687.52 791.005 1662.6 777.043 1639.59 C 757.282 1607.02 725.68 1597.57 690.696 1588.99 C 695.877 1573.1 698.048 1556.76 693.701 1540.38 C 688.257 1519.87 674.109 1503.79 655.961 1493.27 C 648.986 1489.22 635.777 1480.71 627.37 1484.05 C 624.741 1485.1 624.44 1485.59 623.35 1487.99 C 624.446 1490.46 625.282 1491.61 627.709 1492.94 C 632.298 1495.46 637.88 1496.47 642.756 1498.4 C 657.57 1504.25 671.033 1516.55 678.158 1530.77 A 62.8732 62.8732 0 0 1 681.239 1579.76 C 675.716 1595.79 664.312 1609.09 648.848 1616.28 C 632.703 1623.78 617.421 1621.53 601.423 1615.75 C 596.708 1613.52 589.383 1606.34 584.545 1606.36 C 581.846 1606.38 581.21 1606.67 579.464 1608.47 C 579.33 1609.27 579.2 1609.66 579.41 1610.54 C 580.448 1614.88 584.389 1618.58 587.796 1621.17 C 600.671 1630.93 620.836 1633.59 636.56 1631.33 C 658.016 1628.26 672.869 1615.2 685.417 1598.39 C 707.637 1604.07 732.66 1609.45 750.304 1624.97 C 768.825 1641.25 780.566 1666.98 782.068 1691.46 C 783.845 1720.43 773.538 1755.83 754.007 1777.67 C 732.43 1801.79 702.686 1809.92 671.49 1811.56 C 677.257 1783.23 674.567 1762.15 663.834 1735.34 C 672.401 1728.18 680.829 1720.83 687.495 1711.8 C 690.662 1707.51 694.397 1702.38 692.739 1696.69 C 691.99 1694.11 691.513 1693.66 689.378 1692.37 C 681.74 1693.5 677.203 1706.99 672.544 1712.68 C 668.056 1718.15 661.196 1723.38 655.146 1727.04 C 654.776 1727.26 654.402 1727.48 654.03 1727.7 C 653.759 1727.66 653.49 1727.62 653.218 1727.59 C 632.11 1725.08 610.497 1728.5 593.653 1742.24 C 588.986 1746.05 582.182 1752.47 581.972 1758.92 C 581.891 1761.4 582.712 1762.69 584.398 1764.32 C 591.751 1764.78 599.036 1752.39 604.933 1748 C 609.827 1744.36 615.561 1741.81 621.423 1740.18 C 629.505 1737.95 642.841 1735.33 650.326 1739.9 C 656.828 1743.87 659.214 1752.35 660.734 1759.34 C 666.699 1786.76 662.001 1817.42 646.606 1841.14 C 636.138 1857.26 620.065 1869.61 600.984 1873.35 C 585.404 1876.41 568.374 1874.92 555.043 1865.7 C 537.802 1853.79 529.971 1832.44 526.451 1812.61 C 519.065 1770.99 521.046 1723.98 520.75 1681.59 L 520.822 1456.46 L 520.618 1270.22 L 520.37 1209.18 C 520.322 1196.03 519.796 1182.69 520.981 1169.59 C 522.294 1155.06 525.954 1140.79 534.714 1128.87 C 543.949 1116.3 556.007 1112.54 570.684 1110.33 z"/>
<path transform="translate(0,0)" fill="rgb(0,0,0)" d="M 627.657 1178.41 C 628.272 1178.53 628.891 1178.63 629.503 1178.77 C 639.698 1181.08 648.567 1192.08 653.528 1200.81 C 666.151 1223 664.353 1244.78 657.743 1268.52 C 670.24 1280.43 681.464 1291.69 687.756 1308.07 A 88.9874 88.9874 0 0 1 685.49 1376.93 C 676.607 1396.37 661.501 1412.55 641.092 1419.85 C 627.778 1424.62 612.505 1424.62 599.722 1418.17 C 595.672 1416.12 590.349 1412.53 588.997 1407.91 C 588.331 1405.63 588.636 1405.27 589.674 1403.31 C 596.156 1400.8 604.898 1407.76 611.023 1409.9 C 623.581 1414.29 635.373 1410.89 646.758 1405.12 A 62.2092 62.2092 0 0 0 649.729 1403.19 A 75.9631 75.9631 0 0 0 680.829 1354.76 C 684.605 1334.58 680.342 1312.87 668.577 1295.98 C 664.021 1289.44 651.543 1274.34 643.643 1273.09 C 634.522 1271.64 624.572 1270.43 615.784 1267.58 C 605.134 1264.12 583.712 1253.37 579.033 1243 C 577.632 1239.89 578.197 1237.64 579.343 1234.69 C 579.957 1234.21 580.429 1233.44 581.185 1233.26 C 583.707 1232.67 598.853 1246.73 601.93 1248.8 C 616.45 1258.54 631.103 1260.13 648.088 1261.08 A 107.686 107.686 0 0 0 649.383 1256.87 C 654.706 1238.09 653.116 1216.45 639.771 1201.14 C 635.265 1195.97 628.939 1191.37 625.645 1185.38 C 625.508 1182.03 626.12 1181.29 627.657 1178.41 z"/>
</svg>