<svg preserveAspectRatio="xMidYMid meet" version="1.1" xmlns="http://www.w3.org/2000/svg" style="display: block;" viewBox="0 0 2048 2048" width="1024" height="1024">
<path transform="translate(0,0)" fill="rgb(254,254,254)" d="M 0 0 L 2048 0 L 2048 2048 L 0 2048 L 0 0 z"/>
<path transform="translate(0,0)" fill="rgb(13,64,88)" d="M 787.666 642.874 C 820.463 648.075 862.198 668.799 890.102 686.613 C 933.982 714.625 966.874 752.028 987.8 799.792 C 992.724 811.031 997.737 823.286 1000.37 835.296 C 994.496 828.698 990.026 818.877 985.347 811.289 A 500.886 500.886 0 0 0 964.038 779.757 C 914.984 712.764 863.004 675.666 787.666 642.874 z"/>
<path transform="translate(0,0)" fill="rgb(13,64,88)" d="M 674.615 1768.82 C 684.296 1770.33 711.49 1785.51 722.387 1790.51 C 755.326 1805.63 788.407 1820.75 822.105 1834.12 C 870.106 1853.16 919.289 1866.86 968.863 1881 C 952.607 1881.54 934.88 1877.47 918.901 1874.71 C 832.379 1859.72 741.937 1826.67 674.615 1768.82 z"/>
<path transform="translate(0,0)" fill="rgb(52,119,141)" d="M 761.905 1477.46 L 763.505 1477.73 C 763.964 1478.42 764.441 1479.09 764.86 1479.8 C 769.028 1486.87 772.156 1494.95 775.848 1502.3 C 782.343 1515.23 790.834 1528.34 794.959 1542.24 C 796.366 1546.99 797.012 1552.16 795.575 1556.98 C 794.279 1561.32 791.393 1564.66 787.312 1566.62 C 774.443 1572.8 754.145 1569.14 741.268 1564.49 C 706.086 1551.8 697.214 1529.42 682.547 1497.73 L 672.854 1478.14 L 691.399 1477.98 C 701.817 1497.76 709.237 1529.58 728.211 1541.69 C 736.805 1547.18 751.079 1552.5 761.276 1549.64 C 764.148 1548.83 766.601 1546.87 767.746 1544.07 C 772.397 1532.74 746.182 1490.09 740.016 1478.12 C 747.321 1478.1 754.607 1477.77 761.905 1477.46 z"/>
<path transform="translate(0,0)" fill="rgb(13,64,88)" d="M 641.105 669.408 C 690.278 662.38 757.472 680.051 797.831 708.177 C 822.947 725.68 841.255 744.652 846.862 775.419 C 826.795 736.89 797.277 721.619 758.662 704.842 C 697.762 681.06 624.78 677.398 561.53 692.779 C 542.359 697.442 524.49 704.399 506.056 711.229 C 548.048 685.607 592.432 673.486 641.105 669.408 z"/>
<path transform="translate(0,0)" fill="rgb(13,64,88)" d="M 558.787 1606.92 C 571.195 1611.74 590.48 1626.73 602.269 1634.51 A 1727.26 1727.26 0 0 0 663.16 1672.58 C 735.348 1715.48 810.069 1748.5 889.258 1776.2 C 857.7 1772.25 825.824 1763.82 795.621 1753.99 C 702.55 1723.7 626.947 1677.39 558.787 1606.92 z"/>
<path transform="translate(0,0)" fill="rgb(52,119,141)" d="M 466.125 1474.87 L 486.413 1474.97 C 502.188 1490.94 519.012 1505.74 535.67 1520.77 C 552.885 1536.31 569.825 1552.07 588.403 1565.99 C 578.316 1566.02 568.385 1566.45 558.327 1567.15 C 552.139 1560.53 545.58 1554.24 539.133 1547.88 A 1268.63 1268.63 0 0 1 486.35 1550.37 L 484.993 1569.13 C 476.55 1569.1 468.191 1569.59 459.772 1570.14 A 1546.59 1546.59 0 0 0 466.125 1474.87 z"/>
<path transform="translate(0,0)" fill="rgb(254,254,254)" d="M 485.961 1497.61 C 496.397 1505.53 512.11 1519.38 519.603 1529.94 C 508.583 1530.61 497.541 1530.75 486.505 1530.97 L 485.961 1497.61 z"/>
<path transform="translate(0,0)" fill="rgb(52,119,141)" d="M 811.918 1475.89 C 820.998 1475.73 830.117 1475.95 839.2 1475.99 C 856.446 1493.62 874.984 1510.02 893.028 1526.84 C 910.404 1543.03 927.343 1559.71 945.318 1575.24 L 927.243 1573.55 C 922.232 1572.69 916.626 1573.11 911.531 1573.06 C 903.675 1565.84 895.993 1558.41 888.239 1551.09 L 835.85 1550.99 L 835.234 1568.17 L 816.215 1568.1 A 944.464 944.464 0 0 0 811.918 1475.89 z"/>
<path transform="translate(0,0)" fill="rgb(254,254,254)" d="M 840.464 1501.59 C 850.066 1508.75 861.622 1518.92 869.27 1528.1 L 868.67 1529.45 L 838.603 1529.75 C 838.927 1520.34 839.707 1510.97 840.464 1501.59 z"/>
<path transform="translate(0,0)" fill="rgb(13,64,88)" d="M 794.342 567.352 C 810.397 568.593 826.091 569.253 841.97 572.335 C 906.827 584.925 972.797 619.583 1021.19 664.512 C 1071.38 711.104 1108.29 775.449 1125.93 841.455 C 1129.37 854.359 1133.25 868.904 1133.78 882.236 C 1126.23 853.818 1112.16 822.647 1098.62 796.518 A 449.837 449.837 0 0 0 858.448 585.49 C 846.518 580.935 834.187 576.678 821.766 573.697 C 813.298 571.664 804.125 570.597 795.891 567.879 L 794.342 567.352 z"/>
<path transform="translate(0,0)" fill="rgb(13,64,88)" d="M 901.845 1603.13 C 913.407 1603.77 926.279 1607.95 937.5 1610.97 A 882.967 882.967 0 0 1 1030.98 1640.93 A 828.447 828.447 0 0 1 1156.95 1701.14 C 1230.72 1745.07 1318.21 1817.83 1353.88 1897.49 C 1343.63 1890.32 1332.53 1871.74 1323.34 1861.81 C 1298.9 1835.39 1272.87 1809.95 1244.87 1787.3 C 1182.23 1736.63 1110.66 1694.97 1037.36 1661.7 C 992.541 1641.36 946.472 1623.84 901.845 1603.13 z"/>
<path transform="translate(0,0)" fill="rgb(13,64,88)" d="M 689.586 1593.57 C 705.402 1596.04 748.242 1617.42 765.839 1624.8 C 796.594 1637.7 826.728 1651.88 856.982 1665.89 C 961.154 1714.15 1065.35 1767.29 1152.18 1843.48 C 1169.18 1858.39 1186.24 1874.12 1200.99 1891.28 C 1189.16 1885.9 1177.74 1874.99 1167.39 1866.99 C 1158.57 1860.19 1149.56 1853.76 1140.44 1847.36 A 1484.86 1484.86 0 0 0 1028.28 1776.02 A 2728.59 2728.59 0 0 0 887.187 1700.01 L 784.065 1649.01 C 755.852 1634.85 712.316 1614.81 689.586 1593.57 z"/>
<path transform="translate(0,0)" fill="rgb(52,119,141)" d="M 312.054 1261.99 C 345.022 1333.34 386.999 1400.86 442.374 1457.08 C 436.191 1475 434.672 1517.12 432.856 1537.59 C 426.655 1535.49 419.86 1532.81 413.216 1533.21 C 407.682 1528.72 400.009 1512.74 396.14 1506.16 A 723.259 723.259 0 0 1 312.317 1280.94 L 313.624 1279.98 C 313.588 1273.96 312.716 1267.96 312.054 1261.99 z"/>
<path transform="translate(0,0)" fill="rgb(52,119,141)" d="M 442.78 862.101 C 445.892 857.598 453.996 852.259 458.261 848.563 C 492.581 818.826 528.754 797.006 571.909 782.384 C 591.844 775.629 610.606 772.137 631.444 770.1 C 636.266 769.628 643.155 767.514 647.599 769.703 C 572.77 800.344 519.092 860.035 488.259 933.723 C 441.358 1045.81 450.063 1182.85 495.815 1293.74 A 579.143 579.143 0 0 0 604.186 1461.36 C 616.784 1474.98 630.714 1487.13 643.626 1500.39 C 648.165 1505.05 659.119 1517.16 656.518 1523.81 C 654.894 1527.96 650.364 1529.28 646.601 1531.01 C 666.218 1543.16 685.57 1556.25 705.552 1567.74 C 695.832 1567.59 686.175 1567.38 676.47 1568.12 C 662.222 1557.39 646.556 1547.57 633.178 1535.85 L 620.624 1536.05 C 621.3 1546.23 623.247 1556.2 624.936 1566.25 A 339.003 339.003 0 0 0 599.912 1565.96 L 598.663 1550.13 C 584.471 1535.37 568.53 1522.29 553.573 1508.32 C 536.612 1492.47 520.431 1475.81 503.529 1459.91 C 490.716 1459.82 477.593 1460.27 464.834 1459.25 C 396.558 1385.43 345.333 1304.55 319.125 1206.74 C 315.904 1194.72 307.463 1137.82 305.272 1134.02 A 438.067 438.067 0 0 1 318.954 1059.45 A 395.797 395.797 0 0 1 389.789 920.334 C 394.429 914.519 400.291 905.443 406.694 901.847 C 416.239 886.644 429.854 874.38 442.78 862.101 z"/>
<path transform="translate(0,0)" fill="rgb(254,254,254)" d="M 614.186 1494.66 C 620.999 1498.64 631.724 1508.71 635.326 1515.89 C 629.095 1517.52 622.567 1517.18 616.169 1517.22 C 615.121 1509.78 614.777 1502.16 614.186 1494.66 z"/>
<path transform="translate(0,0)" fill="rgb(254,254,254)" d="M 442.78 862.101 C 442.716 870.176 422.952 909.872 418.558 921.335 C 385.167 1008.44 373.228 1100.56 389.145 1192.85 A 485.867 485.867 0 0 0 465.156 1379.58 C 466.777 1381.92 478.424 1396.67 478.549 1397.88 C 478.597 1398.34 478.127 1398.71 477.917 1399.13 L 479.657 1400.26 L 478.709 1398.14 L 479.588 1400.29 C 469.499 1392.79 462.149 1381.7 454.345 1371.97 A 409.348 409.348 0 0 1 369.179 1178.68 C 358.035 1102.89 362.113 1025.06 386.497 952.213 C 392.27 934.965 399.848 918.655 406.694 901.847 C 416.239 886.644 429.854 874.38 442.78 862.101 z"/>
<path transform="translate(0,0)" fill="rgb(52,119,141)" d="M 658.166 768.841 C 694.204 768.22 736.771 774.426 765.497 798.315 L 776.15 804.986 C 794.094 818.453 811.147 832.248 835.223 828.628 C 853.395 825.896 873.427 812.948 883.927 797.936 C 886.57 794.159 888.754 790.02 890.789 785.892 C 899.215 796.642 912.977 807.822 918.869 819.863 C 901.74 821.439 884.723 822.725 867.891 826.538 C 813.7 838.814 766.714 871.841 727.918 910.456 A 362.046 362.046 0 0 0 623.4 1165.49 C 623.434 1251.48 647.34 1339.63 699.023 1409.17 C 712.54 1427.36 728.053 1443.48 744.066 1459.45 C 726.696 1460.58 708.955 1459.93 691.544 1459.93 C 669.117 1459.91 646.578 1460.35 624.167 1459.5 A 625.639 625.639 0 0 1 567.691 1391.43 C 494.825 1289.48 460.7 1153.45 481.588 1029.49 C 495.984 944.056 534.488 863.548 602.037 807.451 C 619.833 792.673 639.464 782.112 658.166 768.841 z"/>
<path transform="translate(0,0)" fill="rgb(254,254,254)" d="M 765.497 798.315 L 776.15 804.986 C 764.787 810.531 752.791 814.863 741.399 820.482 C 691.106 845.287 646.869 878.792 615.009 925.512 C 574.755 984.542 555.298 1059.37 557.1 1130.63 C 557.781 1157.58 561.675 1183.5 566.661 1209.92 C 561.039 1197.02 557.089 1182.9 554.105 1169.17 C 535.999 1085.85 551.122 990.056 597.826 918.391 C 634.724 861.774 698.92 812.403 765.497 798.315 z"/>
<path transform="translate(0,0)" fill="rgb(13,64,88)" d="M 809.979 512.149 L 927.579 278.43 C 944.913 243.765 960.831 208.007 978.916 173.778 C 980.469 170.838 982.558 166.479 985.375 164.624 C 987.325 163.341 990.109 162.642 992.401 163.3 C 995.884 164.301 998.748 167.728 1000.74 170.57 C 1009.11 182.534 1014.79 199.187 1021.19 212.386 C 1033.22 237.18 1046.11 261.673 1058.42 286.351 L 1209.77 591.003 L 1499.09 1176.08 L 1596.44 1373.32 C 1626.39 1433.41 1657.34 1493.34 1685 1554.53 C 1701.06 1557.76 1717.54 1559.6 1733.71 1562.41 C 1768.91 1568.52 1841.39 1582.8 1868.56 1604.39 C 1875.99 1610.3 1881.88 1617.88 1882.75 1627.62 C 1883.51 1636.3 1880.54 1644.47 1874.88 1651.02 C 1853.23 1676.06 1778.47 1681.47 1745.91 1684.14 C 1757.39 1710.69 1836.45 1857.46 1836.76 1868.57 C 1836.82 1870.62 1835.29 1873.28 1833.78 1874.58 C 1830.87 1877.08 1826.54 1877.65 1822.86 1877.85 C 1812.16 1878.44 1800.7 1877.09 1789.89 1877.03 L 1700.36 1876.61 A 13824.8 13824.8 0 0 0 1428.95 1876.96 C 1429.97 1879.23 1431.23 1881.68 1431.93 1884.07 C 1433.08 1887.99 1431.4 1893.44 1429.28 1896.83 C 1427.5 1897.61 1427.83 1897.88 1426.2 1897.38 C 1424.64 1896.9 1423.68 1896.31 1422.46 1895.28 C 1413.44 1887.68 1403.08 1862.4 1396.37 1850.98 A 655.907 655.907 0 0 0 1375.61 1818.16 A 550.128 550.128 0 0 0 1286.92 1717.95 A 712.877 712.877 0 0 0 1116.89 1605.16 C 1070.54 1582.86 1021.54 1566.3 974.793 1544.85 C 897.342 1509.33 832.782 1455.31 796.641 1376.95 C 763.238 1304.53 764.425 1216.92 792.141 1142.95 C 822.816 1061.08 886.828 987.161 966.893 950.433 L 966.253 950.049 C 941.351 957.835 915.97 972.774 894.305 987.18 C 818.269 1037.74 762.201 1116.4 744.48 1206.49 C 731.172 1274.15 738.48 1349.59 768.352 1411.81 C 776.429 1428.64 786.688 1443.93 797.015 1459.41 C 789.442 1459.75 781.989 1460 774.415 1459.59 L 746.633 1459.85 C 697.11 1390.52 658.77 1317.4 645.092 1232.54 C 629.811 1137.75 647.927 1043.4 704.562 965.133 C 757.931 891.376 835.528 842.974 925.515 828.633 C 923.394 825.645 921.099 822.77 918.869 819.863 C 912.977 807.822 899.215 796.642 890.789 785.892 C 888.754 790.02 886.57 794.159 883.927 797.936 C 873.427 812.948 853.395 825.896 835.223 828.628 C 811.147 832.248 794.094 818.453 776.15 804.986 L 765.497 798.315 C 736.771 774.426 694.204 768.22 658.166 768.841 C 654.645 769.088 651.101 769.266 647.599 769.703 C 643.155 767.514 636.266 769.628 631.444 770.1 C 610.606 772.137 591.844 775.629 571.909 782.384 C 528.754 797.006 492.581 818.826 458.261 848.563 C 453.996 852.259 445.892 857.598 442.78 862.101 C 429.854 874.38 416.239 886.644 406.694 901.847 C 400.291 905.443 394.429 914.519 389.789 920.334 A 395.797 395.797 0 0 0 318.954 1059.45 A 438.067 438.067 0 0 0 305.272 1134.02 C 302.702 1167.6 301.789 1200.55 305.5 1234.1 C 307.229 1249.74 310.947 1265.32 312.317 1280.94 A 723.259 723.259 0 0 0 396.14 1506.16 C 400.009 1512.74 407.682 1528.72 413.216 1533.21 C 440.627 1574.83 472.76 1613.21 505.568 1650.65 C 518.648 1665.58 535.131 1679.51 546.478 1695.68 C 435.741 1612.37 361.97 1503.65 317.899 1372.99 C 273.254 1240.62 272.461 1095.96 335.305 969.481 C 381.949 875.608 467.87 797.784 567.667 764.537 C 635.785 741.844 704.047 743.521 767.302 779.072 C 782.133 787.407 793.765 801.086 809.001 808.348 A 44.5454 44.5454 0 0 0 845.036 809.366 C 866.978 800.563 875.523 779.691 884.152 759.541 C 902.881 775.224 920.176 794.306 934.529 814.034 C 946.801 830.901 957.854 852.157 974.304 865.234 C 989.674 877.452 1010.53 883.04 1029.97 880.794 C 1051.55 878.301 1063.99 866.803 1076.96 850.335 C 1090.03 876.884 1103.33 906.957 1129.43 923.159 C 1140.16 929.822 1153 933.133 1165.46 929.896 C 1179.34 926.292 1190 915.526 1196.99 903.418 C 1217.96 867.073 1214.52 812.608 1204.18 773.555 C 1183.12 693.968 1126.86 622.346 1055.96 581.091 C 946.559 517.43 814.684 514.656 694.762 546.896 A 632.768 632.768 0 0 0 316.742 837.451 C 230.131 988.23 217.668 1161.35 262.881 1327.51 C 299.127 1460.72 380.197 1575.37 474.95 1673.69 C 510.067 1710.13 546.574 1744.44 586.683 1775.37 C 637.339 1814.43 691.772 1847.13 747.203 1878.85 C 706.285 1879.92 665.148 1878.91 624.207 1878.88 L 385.469 1878.26 L 234.313 1878.41 C 216.881 1878.4 199.03 1879.47 181.654 1878.83 C 177.945 1878.69 174.306 1878.36 170.851 1876.91 C 166.565 1875.11 164.311 1872.3 162.669 1868.07 C 167.161 1850.78 177.409 1833.71 185.246 1817.7 A 5003.06 5003.06 0 0 1 225.731 1735.42 C 261.226 1663.48 294.302 1590.03 331.906 1519.18 C 270.538 1426.2 235.091 1315.21 224.324 1204.76 A 625.54 625.54 0 0 1 363.361 743.379 C 444.739 644.502 560.574 567.812 684.217 533.779 C 725.528 522.408 767.404 516.325 809.979 512.149 z"/>
<path transform="translate(0,0)" fill="rgb(254,254,254)" d="M 1690.67 1683.89 C 1699.39 1683.85 1708.11 1683.98 1716.83 1684.03 C 1730.15 1710.17 1742.68 1736.7 1755.98 1762.85 C 1770.75 1791.9 1786.54 1820.83 1799.4 1850.8 L 1441.5 1850.7 L 1413.76 1850.47 A 504.24 504.24 0 0 1 1400.33 1826.84 L 1634.86 1827.2 L 1717.3 1827.14 C 1729.25 1827.11 1741.74 1827.98 1753.62 1827.09 C 1756.17 1826.9 1758.32 1826.48 1760.11 1824.52 C 1759.96 1816.98 1699.6 1702.19 1690.67 1683.89 z"/>
<path transform="translate(0,0)" fill="rgb(254,254,254)" d="M 347.465 1545.43 C 352.654 1548.58 360.197 1560.08 364.846 1565.19 C 324.389 1654.1 277.165 1739.89 236.149 1828.58 C 290.258 1827.39 344.461 1828.18 398.583 1828.2 L 634.826 1828.24 A 699.805 699.805 0 0 1 670.203 1851.02 L 647.606 1851.24 L 380.257 1851.47 C 319.421 1851.43 258.262 1852.36 197.463 1850.58 C 220.089 1808.3 240.421 1764.31 261.5 1721.22 L 347.465 1545.43 z"/>
<path transform="translate(0,0)" fill="rgb(254,254,254)" d="M 1147.73 1300 C 1160.13 1306.23 1171.56 1314.72 1184.04 1321.07 C 1197.67 1328.01 1212.45 1332.48 1226.3 1338.94 C 1230.53 1340.92 1234.84 1343.28 1238.28 1346.47 C 1248.81 1356.24 1247.15 1373.83 1248.86 1386.94 C 1249.8 1394.19 1251.31 1401.61 1253.44 1408.6 C 1263.38 1441.23 1280.7 1469.86 1297.06 1499.45 C 1272.25 1496.85 1247.47 1493.26 1222.77 1489.77 C 1172.56 1482.16 1122.08 1476.33 1071.94 1468.26 C 1086.01 1439.21 1108.51 1412.08 1128.86 1387.18 C 1137.26 1376.91 1147.23 1366.38 1154.08 1355.01 C 1155.64 1352.42 1157.4 1349.79 1157.73 1346.71 C 1158.88 1336.16 1150.44 1311.58 1147.73 1300 z"/>
<path transform="translate(0,0)" fill="rgb(254,254,254)" d="M 958.794 1473.6 C 962.928 1474.79 965.235 1478.94 968.267 1481.99 C 973.947 1487.7 980.909 1493.79 988.18 1497.38 C 1001.74 1504.07 1016.86 1508.83 1031.17 1513.68 C 1090.53 1533.81 1151.38 1544.94 1212.55 1557.82 A 7185.4 7185.4 0 0 0 1483.56 1609.18 C 1550.04 1620.42 1616.12 1631.1 1683.21 1638.24 C 1741.14 1644.41 1798.89 1644.89 1857.06 1645.11 C 1849.23 1649.7 1840.89 1652.69 1832.25 1655.36 C 1720.66 1686.13 1582.93 1658.05 1470.52 1638.51 C 1389.65 1624.45 1309.27 1606.51 1229.25 1588.31 A 5426.97 5426.97 0 0 1 1132.42 1565.37 C 1080.58 1552.78 1023.68 1539.52 976.503 1513.69 C 968.318 1509.21 960.407 1502.45 955.141 1494.69 C 952.542 1490.86 948.994 1485.49 950.504 1480.6 C 951.721 1476.66 955.404 1475.21 958.794 1473.6 z"/>
<path transform="translate(0,0)" fill="rgb(254,254,254)" d="M 1410.31 1533.04 C 1424.01 1531.2 1449.8 1537.16 1464.16 1539.25 L 1556.04 1552.6 C 1614.06 1560.77 1672.63 1566.28 1730.34 1576.47 A 687.816 687.816 0 0 1 1798.28 1592.54 C 1815.96 1597.67 1860.26 1610.45 1867.67 1628.6 C 1868.6 1630.89 1868.76 1631.33 1867.76 1633.5 C 1858.74 1638.37 1752.98 1632.8 1734.49 1631.82 C 1654.19 1626.14 1574.19 1612.7 1495 1598.61 C 1464.06 1593.11 1433.03 1588.06 1402.14 1582.28 C 1357.82 1573.98 1313.29 1564.08 1268.66 1557.83 C 1293.57 1555.31 1318.69 1553.73 1343.41 1549.66 C 1366.21 1545.9 1388.24 1539.76 1410.31 1533.04 z"/>
<path transform="translate(0,0)" fill="rgb(254,254,254)" d="M 990.575 296.981 C 996.26 302.976 1036.28 389.48 1044.05 405.095 L 1130.34 577.944 A 3095.45 3095.45 0 0 1 1164.11 645.862 C 1169.81 657.646 1176.45 669.531 1180.62 681.944 C 1165.34 660.147 1149.68 640.061 1131.32 620.788 C 1063.8 551.336 976.183 523.184 882.159 512.686 C 889.453 496.722 897.774 481.206 905.593 465.492 A 5541.28 5541.28 0 0 1 951.052 375.078 C 964.315 349.182 976.283 322.299 990.575 296.981 z"/>
<path transform="translate(0,0)" fill="rgb(254,254,254)" d="M 375.039 1581.48 C 387.353 1595.88 398.659 1611.15 411.058 1625.52 C 461.921 1684.5 516.956 1740.87 578.804 1788.38 C 590.014 1796.99 601.164 1806.02 613.066 1813.65 A 9475.86 9475.86 0 0 1 494.75 1813.6 L 259.089 1813.8 C 277.013 1782.45 291.861 1748.86 307.652 1716.39 A 11425.4 11425.4 0 0 1 375.039 1581.48 z"/>
<path transform="translate(0,0)" fill="rgb(254,254,254)" d="M 991.003 211.614 C 1000.27 225.234 1007.18 243.189 1014.54 258.057 L 1064.25 358.569 L 1221.56 674.686 L 1510.28 1259.72 L 1595.97 1432.67 C 1615.43 1471.66 1636.02 1510.66 1653.61 1550.52 L 1625.52 1546.1 C 1612.75 1521.79 1601.26 1496.85 1589.14 1472.22 L 1504.66 1301.38 L 990.422 263.504 A 4608.16 4608.16 0 0 1 948.556 347.886 L 865.722 511.456 L 840.475 511.166 C 847.005 494.336 856.143 478.072 864.337 461.987 L 901.745 388.435 C 931.669 329.603 959.803 269.777 991.003 211.614 z"/>
<path transform="translate(0,0)" fill="rgb(254,254,254)" d="M 1076.48 1568.95 C 1087.13 1570.41 1097.76 1573.87 1108.23 1576.34 A 3678.4 3678.4 0 0 1 1167.52 1590.41 A 6619.96 6619.96 0 0 0 1296.32 1619.59 A 3571.95 3571.95 0 0 0 1673.36 1683.16 C 1687.02 1712.58 1701.95 1741.52 1716.77 1770.36 C 1723.75 1783.93 1732.04 1797.5 1737.9 1811.52 L 1736.87 1812.76 L 1476.86 1812.49 C 1448.36 1812.59 1419.83 1811.99 1391.34 1812.73 A 677.825 677.825 0 0 0 1154.35 1606.14 A 895.144 895.144 0 0 0 1107.3 1582.64 C 1097.08 1577.99 1086.5 1573.99 1076.48 1568.95 z"/>
<path transform="translate(0,0)" fill="rgb(52,119,141)" d="M 925.515 828.633 C 936.917 844.579 948.336 862.49 963.111 875.516 C 970.064 881.647 981.21 885.407 986.788 892.232 L 991.937 893.521 C 1000.93 893.401 1010.43 895.665 1019.27 897.293 L 1028.03 920.708 C 1009.23 922.801 991.064 925.557 972.837 930.873 C 905.108 950.626 842.493 996.987 798.618 1051.7 C 737.673 1127.69 713.353 1220.98 724.026 1317.25 C 729.858 1369.84 748.637 1414.1 774.415 1459.59 L 746.633 1459.85 C 697.11 1390.52 658.77 1317.4 645.092 1232.54 C 629.811 1137.75 647.927 1043.4 704.562 965.133 C 757.931 891.376 835.528 842.974 925.515 828.633 z"/>
<path transform="translate(0,0)" fill="rgb(254,254,254)" d="M 991.937 893.521 C 989.183 894.989 985.154 894.627 982.052 894.783 C 965.382 895.619 948.539 898.016 932.475 902.664 C 860.188 923.583 800.027 974.64 763.054 1039.73 A 292.719 292.719 0 0 0 747.664 1071.63 C 745.639 1076.48 744.26 1081.94 741.72 1086.5 C 741.71 1086.14 741.667 1085.78 741.69 1085.41 C 742.268 1076.48 746.018 1066.78 748.808 1058.32 A 262.719 262.719 0 0 1 831.711 937.249 C 877.88 899.027 928.032 886.593 986.788 892.232 L 991.937 893.521 z"/>
<path transform="translate(0,0)" fill="rgb(254,254,254)" d="M 1213.83 748.743 C 1219.7 757.313 1223.95 767.754 1228.62 777.061 A 2570.07 2570.07 0 0 1 1257.72 836.118 C 1275.64 873.773 1294.69 911.008 1313.48 948.246 L 1607.49 1544.34 C 1549.26 1537.16 1491.41 1527.53 1433.37 1518.99 C 1394.58 1513.29 1355.63 1508.8 1316.85 1502.99 C 1313.06 1483.6 1308.76 1464.66 1306.45 1444.99 C 1303.77 1422.25 1303.27 1398.93 1298.99 1376.43 C 1287.17 1314.27 1227.26 1256.11 1188.76 1208.03 C 1217.15 1188.33 1242.83 1170.1 1266.25 1144.31 C 1279.18 1157.89 1290.27 1172.95 1304.28 1185.55 C 1329.31 1208.06 1367.1 1234.09 1387.83 1258.68 C 1386.19 1262.48 1384.94 1266.41 1383.63 1270.33 C 1385.33 1279.72 1387.65 1287.36 1395.82 1293.15 C 1401.16 1296.93 1408.31 1298.84 1414.8 1297.64 C 1419.52 1296.76 1423.62 1294.35 1426.29 1290.3 C 1429.48 1285.47 1429.81 1279.13 1428.5 1273.62 C 1425.56 1261.29 1415.66 1252.57 1405.43 1246.07 C 1393.46 1221.27 1380.21 1197.74 1360.54 1178.08 C 1352.37 1169.91 1341.92 1163.37 1335.14 1153.96 C 1329.15 1145.64 1325.68 1136.13 1321.16 1127.02 C 1314.22 1113.03 1304.35 1102.23 1293.51 1091.16 C 1300.3 1084.75 1306.58 1078.4 1310.75 1069.9 C 1315.21 1060.79 1314.82 1055.66 1311.73 1046.41 C 1313.97 1041.92 1321.27 1038.69 1325.65 1036.16 L 1338.16 1039.72 L 1339.02 1037.93 C 1338.33 1028.11 1324.97 1013.94 1318.18 1007.11 C 1306.55 995.426 1294.73 988.815 1277.91 988.758 C 1272.56 990.024 1267.44 991.513 1262.54 994.063 C 1249 1001.11 1232.76 1016.27 1232.75 1032.56 C 1232.75 1037.42 1235.3 1041.68 1235.34 1046.41 C 1235.37 1050.94 1232.32 1057.49 1230.89 1061.87 C 1196.84 1052.42 1159 1062.59 1124.98 1068.01 C 1112.48 1070.01 1099.81 1071.04 1087.44 1073.76 C 1067.12 1078.24 1048.01 1085.81 1031.33 1098.42 C 1023.98 1103.97 1016.93 1110.71 1009.11 1115.54 C 999.961 1121.18 986.868 1121.28 980.877 1131.45 C 978.568 1135.38 977.018 1142.33 978.634 1146.76 C 979.742 1149.8 981.76 1152.24 984.708 1153.63 C 993.144 1157.62 1005.65 1153.03 1013.93 1150.12 C 1019.23 1148.26 1023.08 1146.25 1025.53 1141.06 C 1027.19 1137.55 1028.94 1134.3 1031.61 1131.43 C 1050.26 1111.36 1108.76 1107.47 1134.98 1106.07 C 1119.71 1124.55 1104.9 1142.72 1092.58 1163.37 C 1085.22 1175.7 1079.55 1189.35 1071.74 1201.32 C 1063.16 1214.47 1052.01 1221.63 1049.11 1238.49 C 1044.56 1264.85 1065.32 1297.03 1081.64 1315.93 C 1089.67 1325.23 1099.62 1333.94 1106.46 1344.12 C 1106.69 1344.45 1106.9 1344.79 1107.12 1345.13 C 1099.12 1352.68 1089.6 1358.59 1081.55 1366.2 C 1055.16 1391.17 1043.83 1428.34 1042.66 1463.88 C 1020.7 1462.26 998.801 1458.34 976.758 1458.37 C 964.483 1458.39 948.973 1459.07 940.029 1468.68 C 935.715 1473.32 934.326 1479.24 934.532 1485.44 C 934.915 1496.98 941.743 1504.78 949.618 1512.31 C 927.019 1499.77 904.721 1485.71 885.069 1468.86 C 828.957 1420.77 794.034 1354.49 788.526 1280.54 C 782.151 1194.95 811.478 1112.11 867.467 1047.5 C 911.585 996.579 979.742 948.718 1048.38 943.708 C 1044.87 927.656 1039.93 911.958 1036.32 895.92 C 1050.17 891.605 1062.39 886.638 1074.02 877.848 C 1086.63 900.505 1098.71 921.957 1121.37 936.019 C 1135.68 944.904 1152.66 949.162 1169.31 944.862 C 1188.3 939.96 1202.76 924.662 1212.06 908.028 C 1238.56 860.632 1227.89 798.311 1213.83 748.743 z"/>
</svg>