<svg xmlns="http://www.w3.org/2000/svg" display="block" viewBox="0 0 2048 2048"><path fill="#f5f0df" d="M0 0h2048v2048H0z"/><path fill="#812802" d="M1481.85 56.96c3.06-.012 4.21-.33 6.85 1.32 5.46 8.903 4.22 25.291 5.57 35.827 15.17 118.276 6.34 239.116-9.33 356.843 9.42 13.033 21.96 24.735 32.83 36.586 19.25 20.995 38.54 42.604 56.55 64.672 29.6 36.253 59.63 72.19 87.02 110.169 85.8 118.987 164.32 267.762 184.93 414.253 19.15 136.14-5.37 252.82-65.82 375.04-20.34 41.14-43.48 81.62-71.2 118.29-27.72 36.66-58.84 69.51-91.81 101.41-70.97 68.64-137.49 119.77-222.18 170.59-19.55 11.73-39.06 24.06-59.51 34.18-84.31 41.71-188.31 72.34-279.72 94.5-40.05 9.71-80.588 19.12-121.419 24.78 16.529-62.15 22.012-119.63 22.685-183.83-29.773 14.59-59.657 29.37-90.474 41.63 11.434-18.08 26.662-33.79 38.205-52.07a349.14 349.14 0 0 0 53.683-224.4c-36.234 36.12-69.758 95.37-89.994 142.21-5.722 13.24-9.957 27.02-15.405 40.37a582 582 0 0 1-1.436-24.83c-1.973-58.93 8.232-116.75 26.893-172.51 3.766-11.26 7.735-22.59 12.238-33.57 10.274-25.06 27.237-56.17 26.471-83.82-.113-4.06-.749-6.85-3.74-9.74-2.159-.92-3.731-1.31-6.087-.87-34.507 6.41-95.445 84.86-115.072 114.91-9.09 13.92-15.866 29.52-25.295 43.14l-.534.75c.546-18.77 3.981-38.05 7.752-56.43 7.389-36.01 18.624-71.17 31.417-105.6 29.192-78.55 64.654-156.24 56.462-242.4-2.939-30.92-13.032-59.87-27.692-87.07-55.359-102.719-170.987-128.311-274.758-154.52-52.825-13.341-105.27-26.549-156.19-46.266-29.828-11.55-63.239-26.438-87.77-47.08-21.917-18.442-24.794-35.067-40.101-54.995-6.831-8.893-17.701-15.147-25.305-23.682-21.169-23.759-56.721-82.303-58.529-113.576-1.514-26.176 26.944-27.962 46.044-30.936a3237 3237 0 0 0 186.634-36.307c41.48-8.988 84.272-16.86 124.335-31.062 16.438-5.828 32.714-13.693 47.026-23.697 26.654-18.63 42.205-46.182 62.987-70.316 14.07-16.339 30.74-31.817 49.75-42.234 19.821-10.861 42.927-17.437 64.373-24.272a1259.8 1259.8 0 0 1 289.726-55.131 3158 3158 0 0 1 120.18-100.832c89.51-69.971 196.78-139.593 298.76-189.424"/><path fill="#f5f0df" d="M231.043 645.351c.186-.015.372-.039.559-.047 4.885-.204 12.723-1.243 16.58 2.164l.013 1.865c-5 7.531-14.997 11.2-23.216 14.104-3.4.519-7.963 1.666-11.389.986-2.655-.527-3.809-1.278-5.456-3.363-.361-2.912-.071-4.604 1.875-6.906 5.64-6.673 12.84-7.845 21.034-8.803m949.787-159.487c.02 10.982-2.07 22.509-3.09 33.483a739 739 0 0 0-2.77 53.75c-.07 7.549 2.08 34.17-.16 39.284l-1.4-1.704a143 143 0 0 1-2.02-3.884c-11.56-23.145.96-95.846 9.44-120.929m-487.585 50.262c10.551-.747 22.77 1.379 32.155 6.451 7.713 4.167 9.797 7.23 12.127 15.389-1.808 8.839-3.573 13.648-10.655 19.519-3.736 1.732-7.375 2.994-11.485 3.514-7.032.89-14.034-.967-19.514-5.514-5.823-4.831-9.204-12.123-9.637-19.635-.405-7.008 2.204-14.657 7.009-19.724"/><path fill="#812802" d="M706.022 540.015c1.858.039 3.618.232 5.43.641 4.482 1.011 8.202 3.388 10.514 7.444 2.284 4.006 2.617 8.524 1.293 12.915-1.768 5.861-5.141 8.802-10.336 11.675-3.032.256-5.972.51-8.901-.509-3.704-1.289-6.525-4.334-8.098-7.865-2.122-4.761-2.018-10.237-.009-15.013 2.192-5.21 5.067-7.072 10.107-9.288"/><path fill="#f5f0df" d="M729.153 518.39c46.097-1.813 110.416 42.169 149.121 67.513l-23.481-5.89c-24.202-5.464-48.119-11.578-71.331-20.41-27.718-10.547-57.172-31.212-85.589-33.386 10.576-3.965 19.984-6.971 31.28-7.827M1484.3 178.73c5.04 32.74 2.24 71.165.73 104.32-1.86 40.767-4.57 82.645-11.04 122.932-3.48 21.68-8.84 43.055-13.99 64.385-22.4 92.813-54.45 172.052-99.8 255.847l-.35.183c-.98-1.902 24.97-60.856 28.41-68.914 31.78-74.338 53.25-154.06 69.79-233.106 4.36-20.843 9.18-41.699 12.19-62.789 8.67-60.881 11.79-121.491 14.06-182.858M933.609 615.696c13.612 9.716 24.236 26.083 35.065 38.88 10.578 12.501 21.487 24.73 32.186 37.127-15.9-2.583-31.656-6.365-47.538-9.163-15.608-2.75-31.342-4.524-47.088-6.262-29.4-3.236-58.449-5.434-87.992-6.747 41.652-7.435 86.109-22.12 115.367-53.835m81.521 323.28c20.86 1.399 69.66 11.253 90.26 17.477 34.99 37.517 59.81 106.187 69.51 156.717-4.8-4.85-10.76-19.85-14.55-26.48a470 470 0 0 0-16.72-26.71c-33.5-49.82-79.79-86.981-128.5-121.004"/><path fill="#f5f0df" d="M1133.9 979.675c.9.25 1.21.299 2.14.78 8.18 4.207 15.93 11.305 23.22 16.95 44.01 34.115 71.54 72.475 91.5 124.525-8.65 18.7-21.53 35.73-33.25 52.61-9.06 11.98-18.24 23.74-28.82 34.44.45-12.87 1.64-25.67 1.38-38.57-.95-47.32-12.27-93.33-29.6-137.18-7.38-18.66-15.09-36.983-26.57-53.555m-285.93-51.22c33.316-.902 66.872 1.047 100.106 3.348 13.911.963 29.111 1.022 42.573 4.712 11.351 3.113 22.741 12.503 32.421 19.019 56 37.68 104.06 87.136 136.52 146.566-8.42-8.26-16.26-17.15-24.67-25.45-91.49-85.241-213.593-130.446-336.141-145.796 16.285-1.893 32.814-1.971 49.191-2.399m625.37-469.753c2.38 9.001-2.54 27.316-3.99 37.189-10.37 70.457-28.62 138.627-50.5 206.269-8.91 27.545-20.79 54.692-28.28 82.595l-.34 1.29c-25.56 23.785-67.89 55.821-98.73 72.42-.15-6.878 16.86-28.492 21.2-34.988 18.8-28.138 35.8-56.804 51.97-86.498 12.98-23.833 26.38-47.611 37.96-72.167 23.39-49.59 41.32-101.731 57.19-154.151 5.19-17.144 8.46-34.796 13.52-51.959M844.826 1065.62c1.147.44 1.546.54 2.711 1.28 8.691 5.57 17.043 14.19 24.479 21.38 39.553 38.28 71.145 87.94 78.504 143.33 13.809 103.94-56.466 167.88-113.676 242.62-5.707 7.57-11.21 15.92-18.093 22.46 12.469-24.98 28.766-48.24 43.024-72.24 26.773-45.07 47.407-98.62 52.391-151.06 7.29-76.72-20.693-149.37-69.34-207.77m548.424-945.732.96.428c-3.37 4.104-18.49 12.545-24.12 16.583a680 680 0 0 0-28.08 21.442c-46.79 37.175-92.62 74.635-135.14 116.725-16.78 16.616-33.64 33.715-48.14 52.398-35.41 45.648-62.78 96.734-55.33 156.375-3.07-6.779-5.79-13.7-8.55-20.606-11.77-34.544-20.05-71.808-19.89-108.407 6.39-6.302 14.1-11.639 20.99-17.41 12.67-10.598 25.08-21.488 37.8-32.036 53.35-44.261 107.62-86.205 164.52-125.83 29.87-20.806 62.37-43.577 94.98-59.662"/><path fill="#f5f0df" d="M805.321 1036.89c9.983 6.03 18.733 16.35 26.236 25.11 29.908 34.93 54.008 76.89 66.365 121.4 19.207 69.18 3.952 143.72-27.145 207.08-9.335 19.03-20.831 36.87-31.64 55.06a3791 3791 0 0 0-39.924 69.24c-4.205 7.49-7.944 15.29-11.843 22.95 21.573-98.65 82.695-192.38 89.321-293.73 5.683-86.92-14.615-142.28-71.37-207.11m153.561-409.126c.598.193 1.214.337 1.794.579 8.733 3.629 17.741 10.034 25.896 14.894 51.818 30.876 91.838 65.968 133.998 108.526 7.9 7.978 17.56 16.072 24.05 25.216 11.18 15.767 19.32 35.979 28.12 53.232 15.89 31.124 31.46 62.128 46.02 93.898 5.75 12.549 12.3 25.131 16.69 38.209-5.32-3.921-21.95-29.166-27.59-36.593l-63.25-81.679c-58.46-74.737-124.93-143.425-185.728-216.282"/><path fill="#f5f0df" d="M739.614 484.362c14.891-2.396 32.615.747 46.916 4.959 82.241 24.225 175.99 88.019 239.65 145.11 20.6 18.479 39.8 38.526 58.6 58.808 15.92 17.164 33.3 32.764 44.68 53.424-10.78-10.893-21.25-21.95-32.54-32.316-35.4-33.857-77.74-64.871-120.712-88.336-30.851-16.847-63.083-31.185-93.626-48.67-34.154-19.552-66.091-43.734-102.963-58.197-34.471-13.521-59.664-13.084-93.35 1.606 2.038-5.039 3.994-9.891 7.393-14.211 11.777-14.969 27.915-19.767 45.952-22.177m738.726 18.156c5.95 5.913 10.56 16.957 14.58 24.375 19.29 35.59 37.29 71.297 51.56 109.244-18.94 19.859-36.6 41.225-55.14 61.499-16.32 17.837-33.77 34.806-51.18 51.567a404 404 0 0 1-37.46 30.613 1203 1203 0 0 0 77.64-277.298M1242.08 1655.06l.41.4c.01.47.16.96.03 1.41-.35 1.27-50.14 55.76-54.86 61.1l-179.16 199.4c-17.19 19.17-35.624 37.22-52.343 56.8-.339-.55-.893-1.02-1.016-1.66-.524-2.71 5.728-28.97 6.586-33.88 7.848-44.96 9.132-89.14 9.228-134.65 91.445-47.39 181.235-98.65 271.125-148.92M1401.6 118.105c-.09 3.891-16.58 18.536-19.89 22.048a1063 1063 0 0 0-77.39 92.499c-61.54 83.554-124.29 191.867-142.94 295.122-3.05 16.872-4.05 33.908-5.04 50.994a864 864 0 0 1-17.52-26.266c-6.41-10.776-13.99-21.234-19.35-32.573-9.07-19.17-9.73-46.66-8.3-67.397 6.75-97.602 121.42-192.251 191.47-251.001 33.07-27.733 66.5-54.976 98.96-83.426M1181.09 1350.13l.47 1.41c-31.23 26.89-61.55 54.89-92.3 82.35-55.87 49.89-111.927 100.2-159.782 158.08-15.727 19.02-30.331 38.8-42.848 60.08-3.586 6.1-7.319 12.23-10.519 18.54-2.465 4.86-3.932 11.68-7.447 15.74l-.868-1.3a518.2 518.2 0 0 1 28.42-128.29c13.951-39.3 38.47-76.78 38.596-119.53-1.825-3.49-4.032-6.63-6.275-9.85 84.843-22.89 172.693-39.14 252.553-77.23m374.18-803.35c12.13 8.47 36.95 42.02 47.56 54.948 97.68 119.064 184.22 264.259 221.59 414.662 45.31 182.32 6.76 337.34-88.45 495.44-3.8 6-7.43 12.27-12.02 17.71 2.75-7.15 6.57-13.68 9.9-20.55a972 972 0 0 0 18.12-39.43c25.52-59.29 45.93-123.48 54.39-187.6 19.87-150.59-22.32-319.715-83.63-456.842a1454.4 1454.4 0 0 0-167.46-278.338"/><path fill="#f5f0df" d="M785.591 575.238c19.039-2.703 119.545 25.827 138.645 36.253a132 132 0 0 1-3.078 3.599c-9.932 11.15-24.605 19.058-38.029 25.141-80.426 36.444-175.39 29.624-261.629 34.778-43.574.898-87.16 8.317-130.784 10.181 33.449-28.73 74.114-48.242 113.557-67.084 17.8-8.504 35.992-18.065 55.244-22.76 19.828-4.836 39.901-1.888 59.882-4.675 22.441-3.131 43.941-11.264 66.192-15.433M1800.99 1241.02c1.33 18.57-4.04 45.82-7.84 64.41-17.71 86.57-52.96 187.18-99.39 262.4-7.78-17.63-14.04-36.14-20.78-54.19-11.6-32.53-24.02-64.98-36.26-97.29-7.02-18.53-14.89-36.85-20.3-55.95 11.2-8.76 23.93-16.24 35.86-23.97a2469 2469 0 0 1 71.45-45.13c26.15-16.09 51.37-33.77 77.26-50.28m-509.1-359.35c2.78 2.172 4.13 6.537 5.44 9.793 15.75 39.232 23.59 86.264 23.21 128.287-.5 56.23-15.59 123.75-37.85 175.41-16.66 38.64-38.01 74.78-61.94 109.32-5.43 7.84-10.94 16.97-17.85 23.6-7.66 7.33-21.5 12.01-31.2 16.43-54.89 25.06-115.11 41.3-173.554 55.81-29.311 7.28-61.303 12.37-89.272 23.75-.415.17-.826.35-1.238.52-6.245 3.24-12.279 7.12-18.344 10.7 25.849-25.99 80.229-54.38 113.058-73.17 17.09-9.77 33.61-20.63 50.19-31.24 60.95-39.01 119.52-82.23 164.24-139.84 59.19-76.23 86.81-151.52 82.05-248.582-1-20.438-4.41-40.518-6.94-60.788m-102.99 476.29c1.53 3.29-4.45 17.16-5.92 21.28-36.38 102.14-81.21 203.31-139.92 294.67-10.61 16.51-21.15 32.99-33.12 48.56a606 606 0 0 1-54.445 60.6c-19.125 18.93-39.243 38.14-63.803 49.78a203 203 0 0 0 9.976-12.12c53.359-69.91 75.736-165.2 64.185-251.65 66.107-79.03 148.547-140.68 223.047-211.12m530.4-500.184c5.19 12.05-81.96 375.124-93.12 421.264-4.89 20.22-10.57 40.25-15.33 60.51-5.69-14.29-9.29-40.2-12.66-56.25-7.37-36.51-16.17-72.75-23.92-109.19-10.01-47.1-19.26-94.94-31.58-141.49 11.1-14.47 25.24-27.09 38.25-39.851l53.31-52.074c28.56-27.377 55.87-56.225 85.05-82.919m-173.59-206.935.96 1.237c15.05 114.042 14.36 252.605-12.56 364.662-11.85-9.02-22.35-20.766-33.05-31.143l-57.43-55.497-96.12-92.372c13.47-8.465 25.99-19.637 38.39-29.624a1090 1090 0 0 0 95.07-86.808c22.08-23.036 42.7-47.37 64.74-70.455"/><path fill="#f5f0df" d="M1482.54 472.573c11.36 7.565 28.81 32.107 38.17 43.918a1518 1518 0 0 1 161.92 248.967c13.34 25.557 27.02 51.532 37.92 78.227-32.6 30.907-63.82 63.246-96.52 93.994-26.98 25.46-53.25 51.887-79.95 77.681a1239 1239 0 0 0 4.59-22.782c18.93-99.187 20.3-204.176 11.81-304.609-1.51-17.894-1.67-37.7-6.52-54.953-3.6-12.772-9.77-25.274-15.25-37.339-16.98-37.343-36.24-72.877-59.27-106.83zm-276.25 871.037c4.91 9.3 16.62 85.65 19.44 101.92 10.99 63.29 23.43 126.19 32.29 189.84-23.7 14.44-48.37 26.93-72.48 40.62a13097 13097 0 0 1-209.245 114.96c-12.923 6.42-25.304 13.44-37.752 20.73 20.755-20.12 41.5-39.09 60.293-61.2 74.624-87.81 129.354-206.08 171.934-312.38 12.51-31.23 22.34-63.55 35.52-94.49M736.574 679.439a1005.6 1005.6 0 0 1 273.526 23.665c20.28 20.135 38.69 42.884 57.5 64.428a3863 3863 0 0 1 171 213.002c-12.66-8.028-24.43-18.06-36.2-27.342-15.94-12.575-31.8-24.549-48.86-35.602-27.42-17.924-55.06-35.699-83.84-51.396-22.47-12.256-45.95-22.897-68.62-34.873-102.76-54.287-196.142-100.165-310.233-126.652-33.702-7.824-67.655-12.796-101.749-18.369 24.067-3.546 49.335-3.656 73.631-4.33zm992.196 187.999c5.6 8.291 13.39 33.041 17.33 43.621a910 910 0 0 1 56.4 316.821c-11.2 9.48-25.07 16.96-37.36 25.08a2661 2661 0 0 1-101.65 64.54 1261 1261 0 0 0-45.58 30.66c26.69-94.95 48.2-193.61 69.57-289.98 14.07-63.438 29.37-126.866 41.29-190.742M1593.5 1382.06c.33 10.25-232.2 434.32-258.04 478.37a2375 2375 0 0 0-15.3-52.36c-18.24-55.49-33.05-112.17-51.09-167.79 64.42-49.02 132.31-92.64 195.12-143.95 25-20.42 49.89-40.97 73.51-63 18.41-17.17 35.29-36.49 55.8-51.27m-76.2-321.2c1.15 6.96-39.99 91.29-46.16 105.01l-132.85 295.16-46.35 102.41c-8.79 19.29-18.26 38.34-26.33 57.95-1.35-14.42-4.24-28.89-6.63-43.17-13.34-81.31-30.79-162.06-42.46-243.65 103.98-56.99 180.15-127.78 256.35-217.64 15.44-18.2 28.96-37.94 44.43-56.07m-255.59 587.86c5.27 5.92 61.19 197.9 66.18 220.59a1533.4 1533.4 0 0 1-306.11 99.47c-19.64 4.23-39.295 8.39-59.153 11.49 77.253-81.81 151.643-166.6 226.673-250.46 24.18-27.02 47.73-54.52 72.41-81.09"/><path fill="#f5f0df" d="M1059.58 372.826c.99 1.62.87 1.01 1.09 2.701 8.43 65.315 27.62 116.19 61.35 172.408 11.42 19.048 24 37.434 35.14 56.643 13.88 23.931 26.97 48.402 40.12 72.741 30.29 56.076 60.32 114.431 77.82 175.986 21.82 76.765 21.15 184.975-18.28 255.645-18.19-38.04-39.4-71.55-70.54-100.42-18.16-16.789-38.77-29.84-57.41-45.887a866 866 0 0 1 83.2 26.744c8.16 3.176 47.02 21.713 50.21 22.223.76.13 1.51-.27 2.26-.41l1.02-2.2c-1.09-11.233-15.26-38.556-20.6-50.351a4173 4173 0 0 0-106.9-216.455c-19.16-36.806-39.4-72.701-57.38-110.158-43.35-90.272-54.8-163.091-21.1-259.21m548.8 999.594c5.02 4.28 72.07 187.95 79.43 208.89-11.21 16.31-26.42 31.08-39.89 45.63-48.67 52.59-105.14 103.4-163.12 145.45-28.21 20.47-57.72 39-87.3 57.4a2250 2250 0 0 1-51.67 30.33c30.02-45.95 53.75-96.77 80.32-144.82a7482 7482 0 0 0 182.23-342.88"/><path fill="#f5f0df" d="M1338.17 842.75c7.49 2.265 170.22 163.45 192.33 184.21-61.97 85.58-131.1 163.69-212.96 230.74-30.67 23.83-64.19 44.49-97.37 64.6 39.22-54.72 72.52-115.79 90.79-180.79 20.33-72.33 26.69-146.552 6.11-219.542-5.12-18.179-11.1-35.663-20.38-52.205 14.33-8.345 27.94-17.469 41.48-27.013m196.84 203.78c5.97 6.81 61.8 278.79 68.41 310.94-13.46 15.14-29.86 28.67-44.51 42.74a1542 1542 0 0 1-155.81 132.52c-29.1 21.82-59.6 41.77-88.54 63.77-13.41 9.72-26.7 19.73-40.77 28.48 7.49-17.97 16.8-35.11 24.73-52.87l62.11-138.43a24818 24818 0 0 0 174.38-387.15M350.783 691.422c37.933-2.27 75.579 1.334 113.454 1.819 34.642.444 69.13-1.552 103.74 1.162C717.295 706.114 859.356 762.96 989.075 835.4c-107.895-29.875-294.717-35.017-403.817-6.571-17.042-7.838-33.064-18.491-49.644-27.33-33.688-17.959-111.123-53.941-147.143-57.541 15.701 7.733 32.666 13.431 48.78 20.372 45.533 18.707 92.829 39.541 134.087 66.537-9.603 1.845-19.519 3.3-28.883 6.128-40.741-27.78-84.471-48.63-130.365-66.292-11.551-4.446-23.919-9.939-36.132-12.154 20.821 11.577 42.814 19.879 64.453 29.69 31.59 14.322 62.833 30.986 91.523 50.523-11.953 1.599-24.135 1.918-36.18 2.326-35.86-28.258-73.498-49.139-114.996-68.051 11.139 9.119 24.821 15.542 37.175 22.963 22.797 13.694 45.902 28.667 66.488 45.538a568.5 568.5 0 0 1-95.518-11.185c-43.629-9.268-84.317-26.361-117.792-56.431-8.225-7.388-16.669-15.616-22.731-24.913 1.523-2.47 3.178-4.806 5.057-7.02 6.941-8.184 15.244-15.652 22.982-23.089 28.719-27.601 36.573-24.507 74.364-27.478"/><path fill="#f5f0df" d="M1041.97 362.583c3.94-.417 7.94-.523 11.9-.75a723 723 0 0 0-6.82 19.546c-42.04 128.367 2.94 211.403 59.37 322.838-18.27-19.831-35.58-40.351-55.05-59.058-62.871-60.378-136.608-112.151-216.499-147.304-14.247-6.268-28.609-12.674-43.529-17.184-19.806-5.986-40.55-7.893-61.025-4.31-65.059 11.385-50.772 69.715-87.941 107.617-17.932 18.285-63.476 34.796-87.844 47.798-29.381 16.406-51.846 33.629-78.554 53.604-17.483 1.176-35.486-1.222-52.99-2.097-40.209-2.01-79.479-1.604-118.951 7.076 2.837-15.898 1.914-42.357 13.802-54.502 3.881-3.966 9.223-5.934 14.454-7.411 19.896-5.616 40.883-8.743 61.153-12.793 53.224-10.632 116.771-22.275 167.305-41.237a185.4 185.4 0 0 0 43.983-23.813c26.751-19.431 43.851-46.537 64.65-71.489 13.24-15.883 28.159-29.371 46.375-39.304 17.794-9.702 37.286-15.88 56.494-22.104 82.375-26.692 183.832-47.174 269.717-55.123m386.66-245.433c5.88-.404 10.45-.069 15.54 3.223 10.27 6.63 15.2 19.165 17.87 30.609 11.56 49.665 5.98 113.27.23 163.609-17.99 157.472-62.55 317.224-136.9 457.62-12.85 24.264-27.97 47.459-42.34 70.846-4.96-16.937-12.17-33.09-19.03-49.318-8.89-21.025-17.62-42.218-27.61-62.753-10.53-21.666-22.3-42.719-32.87-64.372 33.92-7.656 67.12-26.389 92.48-50.057 20.6-19.228 39.55-41.751 54.21-65.818 51.19-83.992 66.46-197.134 69.5-293.731l-.09-.901-.91-.665c-10.08 8.452-19.21 19.262-28.37 28.75-45.43 47.052-103.59 111.868-132.18 170.213 31.14-2.629 62.37-7.344 93.44-10.93-21.37 16.717-41.51 35.23-61.65 53.41-13.72 12.384-28.09 24.565-40.9 37.887a2361 2361 0 0 0 93.55-20.738c-47.32 66.365-79.17 95.262-148.41 137.153-1.48-3.162-3-6.347-4.23-9.615-13.11-34.76-1.49-162.696 7.96-200.473 3.56-14.243 10.2-28.258 16.46-41.519a888 888 0 0 1 48.15-88.568 1069 1069 0 0 1 117.44-154.931c9.49-10.252 19.13-21.394 30.39-29.728 5.77-4.267 11.59-6.802 18.27-9.203M303.691 817.667c6.222 1.491 13.163 5.753 19.085 8.426 11.649 5.258 23.645 10.378 35.901 14.01 71.108 21.068 153.202 23.453 226.584 15.163 6.162 3.696 38.023 29.922 41.125 29.966-9.824-12.264-22.753-21.604-34.83-31.512 20.339-2.16 43.551-6.069 63.796-3.672-12.387-10.825-25.973-14.693-41.423-19.017 19.063-2.128 38.001-5.325 57.071-7.404 95.989-10.469 209.651-3.702 303.698 17.195 15.293 3.398 31.682 6.086 46.282 11.831 24.91 9.809 48.72 23.897 71.62 37.629 50.4 30.213 93.41 60.251 139.09 97.002a1009.2 1009.2 0 0 0-472.091-63.539c-19.514 1.916-38.707 5.813-58.113 8.518 38.66 2.981 77.098 4.299 115.608 9.683 47.514 6.642 93.567 20.193 138.702 36.092 74.474 28.492 167.414 80.622 209.344 150.592 18.86 31.47 19.99 58.86 11.06 94.39-39.94 43.81-111.47 91.45-162.76 121.81-41.883 24.79-84.363 47.77-123.157 77.43 6.648-9.85 14.677-18.88 21.587-28.6 25.033-35.21 43.917-74.7 48.539-118.16 9.386-88.24-46.696-172.85-116.209-222.17-8.315-5.9-17.195-11.43-26.364-15.91-7.562-3.69-15.805-6.53-22.901-11.07-10.083-6.44-19.161-14.44-29.241-20.94-25.553-16.476-54.185-29.714-82.791-39.915-106.309-37.908-224.464-47.168-324.241-102.552-11.113-6.169-22.727-12.45-32.594-20.503-8.617-7.032-15.396-16.185-22.377-24.773"/></svg>