<svg xmlns="http://www.w3.org/2000/svg" display="block" viewBox="0 0 2048 2048"><defs><linearGradient id="a" x1="886.45" x2="833.429" y1="713.709" y2="593.131" gradientUnits="userSpaceOnUse"><stop class="stop0" offset="0" stop-color="#ffc3ea"/><stop class="stop1" offset="1" stop-color="#ffebf1"/></linearGradient><linearGradient id="b" x1="1399.28" x2="1367.13" y1="969.044" y2="931.602" gradientUnits="userSpaceOnUse"><stop class="stop0" offset="0" stop-color="#ffe8f0"/><stop class="stop1" offset="1" stop-color="#ffd8f4"/></linearGradient></defs><path fill="#201049" d="M0 0h2048v2048H0z"/><path fill="#5af5e7" d="M447.442 954.005c-2.412-9.216-2.616-18.622.333-27.763 3.046-9.441 8.584-15.971 17.44-20.289 2.057.854 4.209 1.621 6.167 2.681-7.667 2.684-13.517 7.391-17.234 14.732-4.032 7.965-4.808 16.957-3.691 25.709z"/><path fill="#5af5e7" d="M468.77 970.708c8.906-2.496 16.233-5.639 20.804-14.325 4.431-8.419 3.563-18.929.484-27.637-1.286-3.635-2.911-7.101-4.704-10.508l.306-1.194c4.899 1.419 8.478 3.488 10.869 8.191 4.075 8.014 3.832 19.989.944 28.334-3.218 9.301-8.522 14.644-16.422 19.961-7.608 2.892-21.649 7.098-29.68 5.184-1.845-.439-1.634-.907-2.551-2.424.419-6.86 5.961-1.755 8.956-5.277-4.003-5.77-7.76-10.344-10.334-17.008l3.015-4.93c2.701 8.454 5.472 15.142 13.763 19.546 1.473.783 3.013 1.442 4.55 2.087m748.65 209.582 2.85 3.26c.12 2.17.13 2.68-1.18 4.54-6.34 9.03-25.19 15.36-35.87 16.96-15.55 2.33-40.22-.84-52.77-11.34-1.91-1.6-2.82-2.99-2.75-5.56.15-5.29 32.91-56.52 37.95-60.08 3.01.01 3.38 1.23 5.46 3.3-3.07 6.69-7.88 12.79-12.03 18.87-8.47 12.41-17.17 24.7-24.08 38.08 17.32 9.07 36.07 13.7 55.31 7.54 10.74-3.43 17.72-10.13 27.11-15.57m-843.158-64.67c1.117-.05 2.417-.09 3.505.17 4.122 1.01 8.591 6.99 10.801 10.34 10.793 16.32 13.872 40.22 9.682 59.06-3.216 14.46-12.591 29.44-25.513 37.24-25.448 15.36-41.582-15.15-58.029-28.42-10.951-8.84-23.885-14.17-37.37-17.74-2.759-1.31-4.184-1.48-5.667-4.21l1.208-1.8c1.291-.39 2.48-.75 3.839-.81 16.179-.72 36.458 11.63 47.77 22.55 5.714 5.52 10.351 12.18 16.197 17.52 5.214 4.75 11.735 9.1 19.107 8.62 7.834-.5 15.459-7.06 20.178-12.89 13.902-17.18 16.774-45.69 6.758-65.49-3.042-6.01-12.244-16.04-12.49-22.53-.021-.54.016-1.07.024-1.61"/><path fill="#5af5e7" d="M465.215 905.953c-9.345-2.656-18.734-5.535-28.169-7.845-4.874-1.194-10.293-1.14-14.901-3.149-3.994-1.742-7.633-4.697-9.706-8.578-1.725-3.23-1.908-5.785-1.218-9.31 1.879-2.998 3.681-4.363 7.105-5.098 8.828-1.893 19.067-.163 27.814 1.455 43.75 8.09 81.263 30.092 117.308 55.105 3.789 2.629 10.301 7.085 11.368 11.722.305 1.321.197 1.169-.602 2.303-9.414 13.351-117.1 56.672-135.703 58.312-2.497.21-3.337-.34-5.516-1.432l-.542-1.531c2.82-5.244 11.396-7.194 16.763-8.818 12.871-3.894 25.311-8.044 37.797-13.096 22.113-8.399 52.058-19.362 72.015-31.367-29.739-10.311-57.54-27.121-87.646-35.992-1.958-1.06-4.11-1.827-6.167-2.681m847.325 345.487c3.54.55 6.33 1.48 9.03 3.91 9.56 8.62 77.18 146.41 89.26 170.15 12.37 24.31 25.76 48.09 38.12 72.41a17892 17892 0 0 1 205.37 415.86c6 12.57 29.15 53.54 29.63 64.09-1.97.69-3.42 1.1-5.5 1.1-6.51-7.93-25.44-50.65-31.29-62.62l-93.65-193.46a18309 18309 0 0 0-139.63-274.67c-33.73-65.62-66.14-131.91-101.34-196.77M456.43 740.402c10.886-1.692 23.484.424 33.938 3.575 15.673 4.725 30.454 13.271 43.966 22.355 24.524 16.487 100.707 80.03 113.487 103.881-9.672-4.08-18.563-10.723-27.4-16.355-38.07-24.265-87.771-65.309-128.804-80.037-8.696-3.121-16.72-4.554-25.929-4.841-2.975.011-5.928.112-8.884.456-22.541 2.625-53.251 19.245-66.746 37.367-1.985 2.666-2.617 4.476-2.116 7.737 14.134 9.494 70.868-34.512 90.731-37.513 3.509-.531 7.631-.655 10.62 1.492-.415 2.116.078 1.42-1.606 2.791-7.549 6.143-20.384 8.888-29.283 13.271-17.497 8.618-47.979 31.087-67.498 28.861-3.973-.453-7.493-2.095-9.919-5.353-4.145-5.566-1.462-8.939-.661-14.855.785-5.788-2.419-8.856-5.749-13.011 2.479-6.646 5.24-12.693 9.694-18.301 16.748-21.086 46.614-28.971 72.159-31.52"/><path fill="#201049" d="M457.72 748.438c.452-.037.902-.096 1.355-.112 55.717-1.996 105.169 50.503 144.493 83.999l-.068 1.493 1.529.877c-8.969-5.11-17.084-11.53-25.512-17.464a870 870 0 0 0-38.961-26.239c-33.657-20.455-65.271-38.6-105.474-24.73-10.86 3.747-22.645 9.709-31.616 16.926-4.541 3.653-12.288 13.26-18.255 13.694l-1.301-1.738c-.559-7.509 3.162-14.037 7.978-19.58 15.342-17.657 43.385-25.431 65.832-27.126"/><path fill="#5af5e7" d="M1619.94 1196.47c.26.13.57.17.77.37 3.86 3.69-9.02 28.18-11.14 32.88-7.47 16.63-14.02 33.72-20.92 50.6-22.68 55.5-36.54 98.51-28.93 159.87 7.49 60.39 35.92 122.73 82.61 162.66 8.36 7.15 19.03 11.18 27.69 17.95l.12 1.28c-1.71 1.52-3.34 2.57-5.4 3.6-27.02 13.56-50.23 14.87-78.69 5.53 16.66 41.79 150.08 331.28 149.08 344.12-.12 1.54-1.07 1.91-2.12 2.89l-1.77-.27c-2.43-2.12-3.81-4.53-5.11-7.48l-94.06-216.51c-18.55-42.31-39.03-84.23-55.9-127.22-18-13.54-34.07-28-49.51-44.37-71.15-73.71-110.33-172.09-157.66-261.15-6.38-12.01-31.23-51.9-33.3-60.98l1.18-.91c3.97.94 5.42 1.85 7.97 5.02 8.9 11.01 23.7 40.17 30.89 53.79 25.61 48.47 48.21 98.53 75.87 145.92 27.26 46.68 85.49 134.07 134.39 158.14 23.28 11.46 46.96 8.08 70.68 0-14.13-8.02-26.18-18.15-37.2-30.07-47.79-51.7-72.92-129.35-69.59-199.36a225 225 0 0 1 8.12-50.38c6.86-25.13 46.95-132.27 61.93-145.92m-333.68 38.12c2.34.25 3.5.46 5.4 1.88-1.75 8.34-31.86 48.25-38.95 56.91-24.37 29.77-52.46 56.72-92.47 60.56-31.26 2.99-58.65-5.59-82.61-25.55 3.59 55.5 1.32 113.19-33.93 159.3-14.86 19.44-34.51 36.82-56.175 48.32-16.828 8.93-35.898 14.74-53.767 21.28l-102.863 36.88-165.403 59.13c-49.505 17.75-100.104 39.54-152.53 46.33-40.865 5.3-100.371.55-133.994-25.87a85.8 85.8 0 0 1-25.977-34.46c-22.529-53.84 16.346-100.27 10.905-153.07-2.904-28.17-27.582-41.96-28.886-52.52 5.669-.2 9.33 2.74 13.41 6.33 52.997 46.64 1.394 113.18 5.607 169.42 1.579 21.08 10.992 41.35 27.136 55.18 30.675 26.29 80.583 30.97 119.151 27.82a314.6 314.6 0 0 0 58.551-10.6c17.35-4.94 34.313-11.81 51.433-17.54a9422 9422 0 0 0 175.571-62.12 7535 7535 0 0 0 130.9-47.02c22.648-8.33 46.887-15.7 68.288-26.86 18.623-9.71 34.953-24.56 48.403-40.54 43.78-52.02 39.28-118.53 34.05-181.69 5.7 6.38 11.35 12.89 17.88 18.43a94.84 94.84 0 0 0 70.08 22.06c48.16-4.13 80.29-41.02 106.5-78.09 7.7-10.89 14.78-22.71 23.39-32.86z"/><path fill="#5af5e7" d="M797.776 97.173c13.764-18.801 106.463-38.351 131.337-42.222 170.237-26.491 368.797 5.121 521.847 84.203 35.34 18.261 68.61 40.342 100.65 63.844 147.72 108.356 263.39 293.346 291.13 475.064 23.03 150.875 7.38 287.905-51.42 429.028-25.04 60.11-55.89 118.21-85.38 176.23-29.98 58.96-63.62 118.55-70.52 185.66-2.97 28.85-.44 56.79 5.96 85 2.24 9.83 5.62 19.58 7.23 29.5-1.7 1.85-1.51 1.84-4 1.96-7.3-5.33-13.24-39.23-14.75-49.03-15.84-102.9 29.26-179.04 74.18-266.94 29.12-56.98 59.67-114.13 83.57-173.51 40.61-100.868 62.09-207.124 58.05-316.064a739.3 739.3 0 0 0-50.83-245.672 764.6 764.6 0 0 0-257.58-332.449C1375.14 81.969 1133.26 31.161 935.215 61.238c-28.173 4.278-56.859 10.005-83.863 19.25-15.224 5.211-29.971 13.124-45.525 17.024.455.174.906.357 1.364.523 3.48 1.261 7.754 1.112 11.422 1.568 12.899 1.605 23.878 6.966 29.164 19.593 1.135 2.709.863 3.008-.27 5.515-1.157.699-1.799 1.619-3.203 1.092-7.285-2.732-9.042-13.703-17.637-16.762-9.865-3.51-21.305-3.568-31.654-3.725a305.7 305.7 0 0 0-110.117 17.573c-63.858 22.26-140.198 73.113-169.695 134.763-10.226 21.372-11.378 42.453-3.377 64.778 2.339 6.524 5.501 15.277 9.708 20.713 2.808 5.382 7.321 11.524 8.512 17.444l-.909 1.908c-2.149.181-2.486.174-4.263-1.26-14.255-11.505-24.657-46.813-25.868-64.581-.438-6.424-.032-13.199.858-19.569-55.467 27.15-102.466 78.168-122.59 136.735-12.324 35.866-14.013 80.729 3.024 115.417a84.2 84.2 0 0 0 10.353 16.314c14.136-36.048 33.446-71.335 52.213-105.175 7.065-12.74 13.859-27.02 23.16-38.23 19.381-3.848 47.079-10.151 66.323-10.54.562-12.234 1.821-24.028 4.002-36.094 3.648-9.187 5.929-19.093 9.493-28.392a238.9 238.9 0 0 1 51.024-79.438l5.158 4.773c-42.441 47.199-56.173 84.007-63.789 145.632-21.85 2.538-46.822 5.324-67.957 11.124-13.79 20.89-25.51 43.321-37.071 65.5-35.088 67.312-61.405 132.577-79.343 206.479-8.55 35.225-16.917 69.525-9.474 105.807 10.016 48.824 37.347 81.55 5.885 130.015-10.322 15.9-22.754 30.607-34.546 45.434a6096 6096 0 0 1-66.465 81.124c-15.405 18.4-34.588 37.65-45.608 58.98-4.462 8.64-6.079 16.42-4.153 26.04 2.09 10.43 7.884 19.29 14.658 27.28a174 174 0 0 0 31.825 28.97c22.496 16.16 48.254 28.18 59.748 55.09 24.35 57.01-48.517 83.86-3.485 112.8 19.779 12.72 65.934 20.82 89.752 22.5 14.589 1.02 30.851.77 45.41-1.11-14.021-1.81-26.273-4.53-39.278-10.15-19.266-8.32-51.684-30.16-68.735-34.68-5.873-1.56-14.985-2.09-20.203 1.8-3.561 2.65-3.634 8.71-7.555 11.7-2.373-.11-2.021-.28-3.669-1.75-2.436-6.72 3.954-18.38 6.824-24.51 12.614-26.97 23.323-50.67 12.514-80.39-3.198-8.8-8.016-16.88-14.584-23.58-10.408-10.62-24.301-18.18-36.631-26.4-22.24-14.82-50.821-37.74-56.462-65.45 5.757-22.43 30.099-47.08 44.937-64.74a3053 3053 0 0 0 68.923-84.098c12.575-15.776 25.992-31.428 36.936-48.384 5.229-8.1 9.895-16.73 13.024-25.874 15.166-44.324-16.445-85.143-19.769-128.94-1.753-23.1 3.583-47.495 8.578-69.988 18.805-84.684 51.805-161.738 93.286-237.633 6.995-12.798 13.688-26.556 21.804-38.609 15.198-2.61 57.957-12.416 70.626-11.214l-3.463 6.226c-20.492 5.109-41.643 7.251-62.279 11.665-18.343 34.018-37.926 67.493-54.566 102.403-23.048 48.352-39.841 98.685-53.354 150.408-6.654 25.469-14.154 54.743-13.416 81.102.42 15.024 4.394 29.758 8.664 44.09 11.983 40.22 26.785 68.927 4.711 109.517-11.413 20.987-28.095 39.589-42.989 58.2-19.836 24.788-39.507 49.589-60.223 73.659-16.394 19.05-36.888 41.18-49.023 63.11-2.584 4.67-4.501 8.89-2.85 14.23 2.792 9.03 11.131 18.71 17.515 25.55 18.667 20 41.826 32.23 63.438 48.33a76.36 76.36 0 0 1 28.053 79.01c-3.58 15.26-10.875 29.55-17.493 43.67 4.113-.95 8.433-2.15 12.68-1.66 25.283 2.93 67.525 34.54 97.766 43.23 9.009 2.59 19.018 4.21 28.367 4.72 10.125.55 21.093-1.11 30.732 2.56.617 2.51 1.374 4.14-.01 6.59-.634 1.12-1.716 1.98-2.705 2.74-7.274 5.62-36.021 6.41-47.28 10.72-28.625 10.96-57.044 37.73-87.577 40.7-6.916.67-14.104-.25-19.527-4.95-7.712-6.69-8.995-17.01-9.78-26.59-3.699 9.31-6.738 17.19-2.473 27.06 9.573 22.15 34.555 24.77 41.166 54.83 6.15 27.96-9.269 61.74-14.593 89.5-11.153 58.14 9.973 108.09 67.446 129.01 41.41 15.06 92.909 15.9 135.554 5.81 18.61-4.4 36.466-11.02 55.303-14.62 40.8-7.79 81.616-5.51 120.852 8.57 96.86 34.76 146.296 124.23 187.859 211.97 7.428 15.68 26.069 50.31 27.624 66.09l-1.815 1.44c-9.672-8.21-27.263-52.19-33.457-65.46-38.143-81.71-84.733-167.13-172.712-202.98a221.6 221.6 0 0 0-101.653-15.22c-30.674 2.42-57.614 13.44-87.266 19.49-53.686 10.96-128.923 7.05-172.596-30.11-22.504-19.15-34.272-46.61-36.36-75.74-1.917-26.74 5.832-52.18 12.634-77.69 3.376-12.66 7.533-26.44 6.652-39.64-2.693-40.32-57.166-46.97-42.845-89.52 2.7-8.02 6.851-16.88 12.603-23.16 2.609-2.84 6.645-6.36 10.665-6.62 2.135-.13 4.778.62 6.874 1.07-2.937 3.56-6.024 7.13-8.658 10.92-4.44 6.4-5.542 13.14-4.009 20.69 1.196 5.9 3.51 12.06 8.969 15.24 20.822 12.13 59.748-19.96 78.724-28.42 11.052-4.93 23.084-7.68 34.753-10.74-18.665.76-37.78 1.8-56.412.2-17.652-1.52-35.135-5.52-52.493-8.98-3.842-.56-7.714-1.85-11.403-3.03-15.339-4.9-32.703-11.97-40.137-27.42-10.6-22.04 9.815-39.74 16.949-58.95 3.619-9.75 4.247-19.86 2.286-30.02-6.492-33.61-37.393-46.01-62.277-64.26-16.797-12.32-35.082-28.88-43.862-48.18-5.057-11.13-7.015-24.92-2.278-36.5 7.982-19.52 26.648-38.52 40.129-54.7l66.799-81.784c16.624-20.424 36.989-41.655 48.973-65.08 16.843-32.923 3.946-59.216-5.891-91.216-6.026-19.603-10.556-40.711-9.363-61.314 3.608-62.347 31.021-138.588 52.846-197.319a172 172 0 0 1-13.467-22.919c-18.273-37.855-16.075-82.498-2.36-121.453 22.219-63.105 71.808-112.581 131.434-141.177 9.233-21.443 19.919-39.631 35.418-57.21 50.099-56.823 126.66-97.628 201.298-109.696 19.679-3.182 39.182-2.81 58.98-4.049"/><path fill="#201049" d="M596.864 247.682c91.747-91.488 322.939-138.142 448.526-138.068 50.41.03 99.82 5.416 149.34 14.463 164.06 29.978 313.16 103.351 431.2 222.048 111.09 111.717 171.55 270.714 171.02 427.624-.5 150.265-41.39 285.921-149.91 393.301a422.2 422.2 0 0 1-76.6 59.81c-44.78 27.88-89.79 47.38-143.66 47.04-81.22-.5-149.34-44.45-208.37-95.92-3.84-5.61-10.61-10.93-15.42-15.85a2505 2505 0 0 1-30.25-31.82c-22.89-25.23-49.08-63.84-76.36-82.85-21.13-14.73-45.78-13.24-70.38-14.82a411 411 0 0 1-40.205-4.66 315.5 315.5 0 0 1-120.95-47.986 235.4 235.4 0 0 1-79.651-90.543c-9.437-18.692-18.804-50.18-35.099-63.145-15.43-12.278-38.42-16.359-56.619-23.203-14.753-5.549-29.307-12.494-43.111-20.118-57.09-31.533-99.033-75.114-117.413-138.717-12.745-44.102-20.709-136.503-9.419-180.318 4.283-16.619 12.734-31.59 20.979-46.494l3.463-6.226c-12.669-1.202-55.428 8.604-70.626 11.214-8.116 12.053-14.809 25.811-21.804 38.609-41.481 75.895-74.481 152.949-93.286 237.633-4.995 22.493-10.331 46.888-8.578 69.988 3.324 43.797 34.935 84.616 19.769 128.94-3.129 9.144-7.795 17.774-13.024 25.874-10.944 16.956-24.361 32.608-36.936 48.384a3053 3053 0 0 1-68.923 84.098c-14.838 17.66-39.18 42.31-44.937 64.74 5.641 27.71 34.222 50.63 56.462 65.45 12.33 8.22 26.223 15.78 36.631 26.4 6.568 6.7 11.386 14.78 14.584 23.58 10.809 29.72.1 53.42-12.514 80.39-2.87 6.13-9.26 17.79-6.824 24.51 1.648 1.47 1.296 1.64 3.669 1.75 3.921-2.99 3.994-9.05 7.555-11.7 5.218-3.89 14.33-3.36 20.203-1.8 17.051 4.52 49.469 26.36 68.735 34.68 13.005 5.62 25.257 8.34 39.278 10.15-14.559 1.88-30.821 2.13-45.41 1.11-23.818-1.68-69.973-9.78-89.752-22.5-45.032-28.94 27.835-55.79 3.485-112.8-11.494-26.91-37.252-38.93-59.748-55.09a174 174 0 0 1-31.825-28.97c-6.774-7.99-12.568-16.85-14.658-27.28-1.926-9.62-.309-17.4 4.153-26.04 11.02-21.33 30.203-40.58 45.608-58.98a6096 6096 0 0 0 66.465-81.124c11.792-14.827 24.224-29.534 34.546-45.434 31.462-48.465 4.131-81.191-5.885-130.015-7.443-36.282.924-70.582 9.474-105.807 17.938-73.902 44.255-139.167 79.343-206.479 11.561-22.179 23.281-44.61 37.071-65.5 21.135-5.8 46.107-8.586 67.957-11.124 7.616-61.625 21.348-98.433 63.789-145.632z"/><path fill="#fed0ed" d="m1135.09 1030.51 2.77.22c1.73 4.26 5.25 5.25 7.92 8.78-2.12.79-4.14 1.42-5.89 2.9l-2.63-3.06c-4.05.71-6.97 1.48-10.57-.84-1.29-2.61-1.79-3.11-1.4-5.94 2.6-2.05 6.59-1.83 9.8-2.06m554.03-423.487c.37 3.566 1.84 5.023 4.12 7.559-.68 1.953-.18 1.348-.98 2.147l-1.85-1.013c-4.17 5.288-7.68 11.698-11.61 17.267-12.07 17.081-24.33 34.256-37.47 50.525-2.18-1.213-3.17-2.429-4.63-4.42 7.53-9.208 14.32-19.331 21.37-28.924 10.5-14.265 21.25-28.379 31.05-43.141m-627.79-247.994c-2.16-15.901-20.36-175.672-19.02-178.96 1.76-.759 2.93-1.098 4.78-.156 2.48 1.264 2.67 6.417 3.04 9.02 4.1 28.379 5.23 57.623 8.15 86.188 2.82 27.66 7.7 55.857 8.9 83.572zm-163.171-77.723c.273-.148.549-.291.821-.443 13.847-7.747 26.739-20.13 39.005-30.189a4494 4494 0 0 1 68.005-55.407c6.87-5.481 15-14.091 22.57-18.247 1.71-.938 2.97-1.064 4.83-.657 1.43.313 1.66.919 2.6 1.933-1.03 2.975-3.37 4.495-5.72 6.528-14.95 12.94-31.049 24.899-46.338 37.485-13.533 11.139-68.971 58.79-80.956 64.217-.3.136-.616.233-.925.349-1.022-2.447-1.94-3.356-4.036-4.958zm627.091 52.395c56.27 55.096 124.52 146.639 160.62 215.864 3.91 7.498 13.05 19.856 13.06 28.086.01 2.831-.29 3.152-2.18 4.988l-2.06-.231c-2.65-3.875-3.84-8.056-5.87-12.212-5.21-10.644-11.4-21.384-17.16-31.768a911 911 0 0 0-51.15-80.094 1525 1525 0 0 0-64.53-81.433c-9.19-10.661-26.68-27.181-33.67-37.892zM884.447 191.934c-34.201 8.238-68.181 17.452-101.212 29.636-19.821 7.31-42.933 18.655-62.492 24.384-4.661 1.366-8.449 2.058-13.006.179l-.525-.815c14.589-8.366 31.35-13.805 47.011-19.869a951.4 951.4 0 0 1 238.614-59.412c8.963-1.053 23.783-5.456 32.263-2.813 1.86.583 1.99 1.095 3.21 2.49l.02 2.576c-4.05 3.13-28.17 3.606-34.635 4.284-33.81 3.547-68.303 9.446-101.363 17.439-5.376 26.363-9.282 53.053-13.98 79.546-2.219.084-4.512-.228-6.729-.392 4.17-25.709 7.919-51.66 12.824-77.233m-161.811 66.943c23.332 2.505 46.559 8.406 69.493 13.278 18.704 3.974 38.602 7.089 56.702 13.313l-1.71 4.903c-15.348-2.582-114.198-26.134-121.444-22.435 1.143 2.562 3.188 4.1 5.328 5.807 12.401 9.897 26.094 18.761 38.948 28.12a3374 3374 0 0 1 97.614 72.584c-4.523 5.017-5.329 7.307-5.008 13.991-50.113 10.886-100.584 21.57-150.351 33.927-1.171 8.176-3.215 15.857-9.973 21.221-4.829 3.833-10.288 5.295-16.317 5.824-3.493 25.822-5.967 51.885-9.826 77.632-2.632-1.361-2.777-1.36-5.712-.912 1.159-17.192 4.979-62.445 9.358-76.864-8.217-3.137-12.802-6.25-18.53-12.938-14.317 4.062-98.194 30.962-105.171 27.964-3.298-1.417-4.469-2.945-5.613-6.262.579-3.663 1.765-6.541 3.611-9.763 9.026-15.755 19.486-31.648 30.339-46.224 17.141-23.019 36.842-44.29 55.177-66.371 14.84-17.872 28.765-37.281 44.577-54.233 2.236-2.398 5.105-5.674 8.477-6.275 1.506-.268 1.253.113 2.632 1.263.154 4.139-18.49 24.039-22.556 29.171a1737 1737 0 0 1-44.223 54.326c-13.198 15.611-27.051 30.958-39.158 47.438-11.838 16.117-21.757 33.637-32.029 50.776 20.498-3.097 41.07-10.959 60.959-16.836 13.099-3.87 27.075-6.757 39.661-11.974-.198-8.177.819-16.207 6.158-22.759 5.663-6.951 13.909-9.87 22.551-10.827 2.941-38.82 13.318-80.021 17.888-119.406 2.792-1.619 6.04-2.828 8.985-4.181-3.234 14.157-5.117 28.921-7.531 43.25l-13.565 81.028q1.326.395 2.617.89c8.95 3.435 12.802 10.248 16.484 18.521 50.271-12.603 101.225-22.604 151.61-34.807-13.258-14.85-32.893-26.988-49.059-38.731l-61.861-44.982c-11.824-8.554-24.685-16.722-34.676-27.43z"/><path fill="#201049" d="M682.302 402.229c4.116-.032 8.405.888 12.481 1.469 4.386 3.647 7.914 6.641 9.878 12.159 1.807 5.08 1.739 10.616-.673 15.482-3.334 6.727-8.874 9.588-15.729 11.745-4.427-.041-9.014-.655-13.016-2.667-4.822-2.424-8.744-6.681-10.421-11.842a18.7 18.7 0 0 1 1.394-14.875c3.55-6.51 9.286-9.336 16.086-11.471"/><path fill="#fee3f0" d="M679.799 411.126c2.443-.273 5.445-.841 7.876-.393 3.676.678 6.636 2.933 8.564 6.117 1.695 2.798 1.928 6.103.892 9.172-1.608 4.765-4.712 6.482-9.003 8.503-.725.03-1.449.061-2.174.061-3.793-.001-8.346-1.144-10.856-4.248-2.015-2.491-2.928-5.163-2.557-8.378.596-5.178 3.374-7.705 7.258-10.834"/><path fill="#201049" d="M681.811 415.929c2.243-.132 4.887-.39 6.977.625 2.598 1.261 2.896 2.322 3.816 4.827-.441 3.365-1.471 4.92-3.531 7.578-2.705.237-5.746.576-8.209-.858-2.374-1.382-2.624-2.493-3.286-4.922.679-3.467 1.757-4.779 4.233-7.25"/><path fill="#fed0ed" d="m1606.29 1015.13 1.39 1.2c27.83-7.45 70.71-30.162 85.41-55.56 6.04-10.418 8.98-23.686 11.54-35.321 7.52-34.202 11.03-69.486 15.82-104.149 4.23-30.628 13.57-78.508 10.58-108.511-3.36-33.787-14.94-66.142-21.39-99.272-.59-3.02-1.47-5.988-.29-8.88l2.29-.521c6.63 4.301 18.96 66.911 21.56 79.112 2.84 13.333 5.28 26.845 5.1 40.529-.39 29.338-6.12 59.644-10 88.756-5.51 41.211-11.06 102.606-24.25 140.288-5.51 15.74-17.4 30.985-26.46 44.952a5208 5208 0 0 1-42.73 64.197c-12.4 18.43-26.04 37.27-35.21 57.58-3.68 8.16-5.86 16.28-7.27 25.12a4239 4239 0 0 1-71.92 35.99c-61.42 30.18-118.02 53.53-187.22 31.27-65.92-21.21-117.91-78.55-161.08-130.01-10.85-12.93-22.59-25.64-32.27-39.49 1.75-1.48 3.77-2.11 5.89-2.9 45.24 55.34 96.62 120.96 161.3 154.15 13.55 6.95 27.61 11.56 42.15 15.88 3.24-13.28 5.03-28.27 9.53-41.02 3.23 1.7 3.32.8 6.58 1.19 4.32 1.31 7.87 1.32 12.34.94l6.32-1.74c6.5 13.93 10.89 29.83 15.88 44.4 64.06-1.81 129.43-47.68 186.75-73.66 2.38-33.34 68.09-118.84 88.65-151.345-19.45 16.945-44.64 28.965-69.57 35.305-1.07-2.92-.09-5.56.58-8.48"/><path fill="#201049" d="M1365.34 1169.71c4.32 1.31 7.87 1.32 12.34.94a907 907 0 0 0 15.45 43.35 208.5 208.5 0 0 1-37.32-2.94c3.96-13.54 6.66-27.55 9.53-41.35m240.37-146.1c24.93-6.34 50.12-18.36 69.57-35.305-20.56 32.505-86.27 118.005-88.65 151.345-57.32 25.98-122.69 71.85-186.75 73.66-4.99-14.57-9.38-30.47-15.88-44.4.32-.06.65-.1.97-.17 10.11-2.26 15.06-9.81 20.05-18.09l96.88-8.86c17.06-1.66 35.28-2.37 51.98-6.26 4.52-1.05 8.56-2.39 12.07-5.55 2.96-2.68 5.13-6.57 6.17-10.41 2.81-10.35 3.16-58.9 4.22-73.72 5.79.48 10.69-.4 15.79-3.32 7.32-4.19 11.47-10.94 13.58-18.92m-434.94 1.9 1.79.08c.23.37.46.75.71 1.11 3.66 5.27 149.99 94.05 166.17 103.09-1.33 9.26-1.49 18.15 4.3 26.11 3.96 5.44 9.29 9.25 15.02 12.62-4.5 12.75-6.29 27.74-9.53 41.02-14.54-4.32-28.6-8.93-42.15-15.88-64.68-33.19-116.06-98.81-161.3-154.15-2.67-3.53-6.19-4.52-7.92-8.78 5.55 1.29 11.42 3.18 17.17 2.95 6.74-.27 11.18-3.48 15.74-8.17"/><path fill="#fed0ed" d="M596.864 247.682c91.747-91.488 322.939-138.142 448.526-138.068 50.41.03 99.82 5.416 149.34 14.463 164.06 29.978 313.16 103.351 431.2 222.048 111.09 111.717 171.55 270.714 171.02 427.624-.5 150.265-41.39 285.921-149.91 393.301a422.2 422.2 0 0 1-76.6 59.81c-44.78 27.88-89.79 47.38-143.66 47.04-81.22-.5-149.34-44.45-208.37-95.92-3.84-5.61-10.61-10.93-15.42-15.85a2505 2505 0 0 1-30.25-31.82c-22.89-25.23-49.08-63.84-76.36-82.85-21.13-14.73-45.78-13.24-70.38-14.82a411 411 0 0 1-40.205-4.66 315.5 315.5 0 0 1-120.95-47.986 235.4 235.4 0 0 1-79.651-90.543c-9.437-18.692-18.804-50.18-35.099-63.145-15.43-12.278-38.42-16.359-56.619-23.203-14.753-5.549-29.307-12.494-43.111-20.118-57.09-31.533-99.033-75.114-117.413-138.717-12.745-44.102-20.709-136.503-9.419-180.318 4.283-16.619 12.734-31.59 20.979-46.494l3.463-6.226c22.381-35.351 114.254-141.712 146.657-163.586 3.39-2.289 6.105-2.939 10.168-2.042-2.895 1.327-5.947 2.689-8.228 4.975-3.734 3.741-6.226 8.895-9.924 12.855-8.706 9.323-18.906 17.581-28.046 26.534-18.535 18.159-35.401 38.838-52.209 58.603-15.812 18.592-32.521 37.143-46.269 57.326-10.71 15.722-21.632 34.848-27.645 52.935-5.988 18.008-6.533 37.705-6.733 56.541-1.31 122.994 23.871 212.829 143.835 269.809 10.053 4.775 20.364 9.412 30.874 13.071 16.796 5.849 36.242 9.849 50.837 20.39 24.148 17.442 32.197 54.572 46.415 79.58a231 231 0 0 0 62.944 70.352c35.747 26.224 81.807 45.367 125.813 52.487a489 489 0 0 0 38.706 4.56c22.78 1.73 50.53-.03 70.36 12.92 23.94 15.63 40.79 39.29 59.24 60.64a1275 1275 0 0 0 50.75 55.81c59.1 60.34 134.39 111.6 222.03 112.05 80.38.42 159.79-51.35 215.57-106.26 108.62-106.94 145.77-237.877 146.61-387.332a599.8 599.8 0 0 0-173.1-426.849c-146.46-147.569-359.49-229.284-566.34-229.907-22.77-.069-45.45.246-68.14 2.331-110.782 10.183-298.802 52.533-380.128 133.432z"/><path fill="#201049" d="M725.002 779.657c-48.021-15.762-94.199-35.318-129.087-73.532-41.887-45.882-50.361-113.488-53.339-173.181-.688-13.814-2.111-28.623-1.276-42.395.22-3.637.481-7.32 3.388-9.854l1.96 1.627.025-.994c14.211 6.184 27.619 14.665 41.336 21.873 20.838 10.949 45.098 20.43 63.426 35.153 5.534-6.951 10.861-9.26 18.945-12.224 2.935-.448 3.08-.449 5.712.912 6.929 2.187 13.341 4.393 17.55 10.806.967 2.508.897 2.553 3.226 3.863 2.881 5.297 3.169 10.308 2.702 16.237 12.156 5.654 25.107 10.113 37.628 14.924 27.604 10.605 55.314 20.739 82.471 32.49 1.497-2.654 3.066-5.095 5.098-7.383 4.029-4.537 9.107-7.383 15.175-7.848a405 405 0 0 0 12.378-.243c8.32 2.749 11.763 5.733 15.701 13.584l.553 1.125c8.969-4.652 19.406-7.78 28.867-11.466 27.838-10.845 56.315-20.497 83.809-32.134.975 2.014 1.955 3.921 2.48 6.111 2.495 5.425 6.477 9.337 12.085 11.547 7.035 2.775 16.145 2.302 22.925-1.068 2.99-1.489 5.57-3.645 8.04-5.86 13.66 12.057 28.5 22.829 42.62 34.359 22.21 18.145 43.92 36.98 65.95 55.361 24.22 20.212 47.56 43.33 73.29 61.539l-5.33 9.853c-.35 1.783-.77 3.581-.95 5.387.98 10.672 3.55 17.522 12.08 24.558a76 76 0 0 0 3.01 2.332c-11.21 19.986-21.72 40.403-32.42 60.662-8.7 16.463-18.68 33.361-24.85 50.94 1.62.821 2.89 1.702 4.7 1.858 3.43 2.069 7.12 4.116 9.29 7.632 2.74 4.929 4.67 9.872 5.21 15.522-.32 1.864-.87 3.922-.87 5.803-1.88 7.599-5.41 14.389-12.21 18.724-4.2 2.683-8.86 4.142-13.85 3.478-.47-.265-.89-.633-1.41-.794-2.31-.721-3.54.104-5.42 1.191-1.28 16.597-.9 33.403-.61 50.038-8.25 3.71-16.7 7.685-20.01 16.826-.68 1.865-1.01 3.864-1.3 5.814.6 3.02 1.1 5.09.05 8.12-7.03-2.47-45.05-5.23-55.83-6.29-26.58-2.6-53.52-4.43-79.78-9.388-54.606-10.308-108.193-36.301-145.008-78.612a224.8 224.8 0 0 1-34.541-52.971c-16.019-33.535-16.292-46.87-46.683-72.789-1.644-.249-3.286-.532-4.931-.771-13.225-1.926-21.189-8.348-31.975-10.452"/><path fill="#fed0ed" d="M981.25 560.997c.975 2.014 1.955 3.921 2.48 6.111-25.359 10.367-51.234 19.558-76.804 29.401-11.228 4.322-24.872 8.277-35.014 14.715l-.821 2.162c-.275-3.058-1.5-5.913-2.517-8.789 8.969-4.652 19.406-7.78 28.867-11.466 27.838-10.845 56.315-20.497 83.809-32.134M1101.2 898.99c.57.34 1.19.617 1.71 1.022 1.75 1.344 2.55 3.328 2.42 5.407-13.72 7.316-29.88 11.985-44.42 17.625a6280 6280 0 0 1-68.114 26.528c-18.572 6.966-37.509 13.13-55.78 20.86l-8.336-5.76c24.834-7.312 49.15-16.908 73.3-26.228a4395 4395 0 0 0 99.22-39.454m-244.023-46.293a5894 5894 0 0 0 163.923 25.062 4220 4220 0 0 1 51.86 7.511c6.11.891 12.51.967 18.52 2.186 2.66.54 4.46 1.42 6.59 3.066.94 1.998 1.24 2.039.96 4.35-9.14 1.916-217.217-30.932-243.361-35.789z"/><path fill="#fee3f0" d="M1123.39 901.243c2.6-8.761 6.39-16.512 14.44-21.501 7.03-4.351 14.49-4.656 22.35-3.024 1.62.821 2.89 1.702 4.7 1.858 3.43 2.069 7.12 4.116 9.29 7.632 2.74 4.929 4.67 9.872 5.21 15.522-.32 1.864-.87 3.922-.87 5.803-1.88 7.599-5.41 14.389-12.21 18.724-4.2 2.683-8.86 4.142-13.85 3.478-.47-.265-.89-.633-1.41-.794-2.31-.721-3.54.104-5.42 1.191-3.17-.549-5.98-1.217-8.77-2.891-9-5.406-11.24-16.56-13.46-25.998"/><path fill="#201049" d="M1150.64 881.255c3.54.231 6.97.709 10.27 2.117a20.48 20.48 0 0 1 10.9 11.356 21.38 21.38 0 0 1-.98 17.329c-3.89 7.532-10.43 10.587-18.17 13.023-4.31-.256-8.39-.854-12.18-3.068a21.52 21.52 0 0 1-10.08-13.891c-1.32-5.945-.29-11.997 3.14-17.048 4.23-6.234 9.96-8.414 17.1-9.818"/><path fill="#fee3f0" d="M1155.03 896.325c1.45-2.51 1.77-3.214 4.22-4.682 2.29 1.122 3.2 2.322 4 4.807.63 1.961.78 4.275.95 6.325l-3.67-1.002c-1.47-2.133-3.57-3.745-5.5-5.448"/><path fill="#fee3f0" d="M1140.25 911.138c-1.66-4.273-2.68-7.943-.71-12.34 1.86-4.166 4.43-6.962 8.67-8.62 2.53.188 2.74-.013 4.53 1.713l-.11 5.138 2.4-.704c1.93 1.703 4.03 3.315 5.5 5.448l3.67 1.002c-1.58 5.205-3.32 10.748-8.58 13.397-2.68 1.353-5.17 1.401-8 .413-3.06-1.069-5.13-3.2-7.37-5.447"/><path fill="#201049" d="m1152.63 897.029 2.4-.704c1.93 1.703 4.03 3.315 5.5 5.448-1.18 3.318-1.9 6.013-4.62 8.361-3.58 1.397-6.57 1.229-10.09-.259-.57-.239-1.12-.498-1.68-.747-.79-3.04-1.99-7.108-.44-9.993 1.75-.75 2.48-.89 4.45-.715 2.37.212 2.45-.235 4.48-1.391"/><path fill="#fed0ed" d="M1016.81 664.599c13.82 26.402 115.3 199.913 115.71 207.588.15 2.807-.98 3.35-2.9 4.939-1.85-.489-1.09-.019-2.48-1.744-5.42-6.734-16.08-29.633-21.08-38.741a8475 8475 0 0 0-50.41-89.27c-5.32-9.225-44.29-73.362-43.73-78.977 1.64-.886 3.03-1.69 4.43-2.939-1.05-1.988-1.96-3.56-2.4-5.79-.35-1.793-.32-1.121.83-2.801 12.22 1.191 55.25 21.444 69.53 27.141l78.04 31.096c13.48 5.445 28.48 10.343 40.96 17.738-.35 1.783-.77 3.581-.95 5.387-14.37-3.227-33.2-12.891-47.31-18.572l-74.39-29.864c-21.09-8.667-42.17-18.077-63.85-25.191"/><path fill="url(#a)" d="M852.32 589.888c8.32 2.749 11.763 5.733 15.701 13.584l.553 1.125c1.017 2.876 2.242 5.731 2.517 8.789.002 5.456-1.047 9.898-2.976 14.979 40.754 6.467 81.689 16.074 121.665 26.259-.126.324-.257.646-.377.972-1.185 3.214-1.542 13.13-3.891 14.5-5.803 3.383-14.217 5.437-20.583 7.891-8.349 3.219-16.378 7.023-24.475 10.816l-98.78 46.129c-20.459 9.606-41.2 20.538-62.484 28.132.539-2.272.37-3.819-.001-6.113 21.93-11.297 44.595-21.23 66.959-31.633l99.666-46.679c9.261-4.342 30.308-11.322 37.103-16.917l-.269-1.298-1.193.908.161-1.413c-12.428-4.897-27.118-6.985-40.17-9.851l-75.95-16.372-.977.711c-16.196 11.972-23.384 3.485-32.017 8.001-1.606-.714-2.731-2.316-3.919-3.597-7.818-12.067-10.625-14.065-11.155-28.91l2.241-4.539c1.497-2.654 3.066-5.095 5.098-7.383 4.029-4.537 9.107-7.383 15.175-7.848a405 405 0 0 0 12.378-.243"/><path fill="#201049" d="M840.007 595.185c3.588-.18 7.361-.182 10.836.855 5.489 1.637 10.361 5.932 12.74 11.131a19.83 19.83 0 0 1 .318 15.748c-2.906 7.038-8.241 10.201-15.02 12.888-3.492.208-7.19.297-10.573-.723a20.5 20.5 0 0 1-12.661-10.917 20 20 0 0 1-.516-15.532c2.74-7.123 8.105-10.661 14.876-13.45"/><path fill="#fee3f0" d="M839.297 603.045c2.403-.275 4.667-.433 7.061.046 3.316.664 6.271 2.868 8.098 5.689a11.96 11.96 0 0 1 1.667 9.313c-1.125 4.977-3.646 7.203-7.863 9.766-1.392.03-2.785.078-4.178.02-3.817-.158-7.631-1.767-10.018-4.885-1.947-2.545-2.846-5.268-2.486-8.485.596-5.321 3.721-8.296 7.719-11.464"/><path fill="#201049" d="M842.935 607.683c2.374.761 4.846 1.533 6.446 3.623 1.555 2.032 2.005 4.114 1.379 6.591-.729 2.889-3.357 4.462-5.653 6.008-1.971-.733-4.373-1.732-5.869-3.241-1.947-1.964-1.892-3.499-2.012-6.035 1.365-3.407 2.82-4.733 5.709-6.946m22.561 26.013 75.95 16.372c13.052 2.866 27.742 4.954 40.17 9.851l-.161 1.413 1.193-.908.269 1.298c-6.795 5.595-27.842 12.575-37.103 16.917l-99.666 46.679c-22.364 10.403-45.029 20.336-66.959 31.633l-1.621-2.71c-2.451-4.191-4.746-7.358-8.18-10.824 15.254-21.102 28.183-44.154 41.951-66.244 6.772-10.866 16.493-23.008 21.163-34.765 8.633-4.516 15.821 3.971 32.017-8.001z"/><path fill="#fed0ed" d="M725.002 779.657c-48.021-15.762-94.199-35.318-129.087-73.532-41.887-45.882-50.361-113.488-53.339-173.181-.688-13.814-2.111-28.623-1.276-42.395.22-3.637.481-7.32 3.388-9.854l1.96 1.627.025-.994c14.211 6.184 27.619 14.665 41.336 21.873 20.838 10.949 45.098 20.43 63.426 35.153 5.534-6.951 10.861-9.26 18.945-12.224 2.935-.448 3.08-.449 5.712.912 6.929 2.187 13.341 4.393 17.55 10.806.967 2.508.897 2.553 3.226 3.863 2.881 5.297 3.169 10.308 2.702 16.237 12.156 5.654 25.107 10.113 37.628 14.924 27.604 10.605 55.314 20.739 82.471 32.49l-2.241 4.539c.53 14.845 3.337 16.843 11.155 28.91 1.188 1.281 2.313 2.883 3.919 3.597-4.67 11.757-14.391 23.899-21.163 34.765-13.768 22.09-26.697 45.142-41.951 66.244 3.434 3.466 5.729 6.633 8.18 10.824l1.621 2.71c.371 2.294.54 3.841.001 6.113l.588 2.483c3.735 1.466 94.399-7.925 105.632-9.891 1.563-6.231 2.918-12.598 8.994-16.048 4.518-2.566 9.848-1.506 14.508.023 3.908 1.283 10.636 4.707 14.66 2.837 4.177-1.941 8.953-7.593 12.368-10.748 12.581-11.621 25.142-23.148 37.288-35.233 6.146-6.114 12.544-14.431 19.424-19.563 2.041-1.522 4.679-1.857 7.129-2.183l1.509.764c-2.225 11.003-64.197 64.302-76.959 74.219 3.014 14.265-5.99 13.108 8.901 22.752 22.062 14.287 165.738 100.37 170.538 107.651-1.47 2.102-1.58 2.063-4.05 2.832-9.56-1.714-155.46-96.676-180.221-111.479-7.864 4.387-13.777 6.063-22.827 5.385-13.573 19.759-29.137 38.183-44.263 56.763 3.531 6.737 5.176 11.275 4.768 19.069l-1.508 6.386a178 178 0 0 0-5.578 7.862c34.657 26.762 62.005 58.134 74.454 101.074a350.5 350.5 0 0 0 64.35 20.388c31.525 6.684 65.065 7.03 97.075 10.959 7.1.874 32.27 6.564 36.9 4.874l.83-1.43c.6 3.02 1.1 5.09.05 8.12-7.03-2.47-45.05-5.23-55.83-6.29-26.58-2.6-53.52-4.43-79.78-9.388-54.606-10.308-108.193-36.301-145.008-78.612a224.8 224.8 0 0 1-34.541-52.971c-16.019-33.535-16.292-46.87-46.683-72.789-1.644-.249-3.286-.532-4.931-.771-13.225-1.926-21.189-8.348-31.975-10.452"/><path fill="#201049" d="M901.988 743.065c2.105.182 4.249.368 6.283.971 4.24 1.256 8.08 4.015 10.059 8.043 1.438 2.926 1.491 6.353.343 9.385-1.94 5.12-5.979 6.966-10.697 9.088-2.375.131-5.011.378-7.301-.406-3.628-1.243-6.627-4.124-8.257-7.56-1.64-3.459-1.666-7.603-.185-11.123 1.93-4.585 5.364-6.547 9.755-8.398m-72.477 86.183c3.785.072 7.388.381 10.851 2.04 4.729 2.266 8.658 6.511 10.222 11.557a20.13 20.13 0 0 1-1.529 15.584c-3.289 5.955-8.057 8.565-14.326 10.571-4.521.148-8.944.191-13.083-1.905a19.96 19.96 0 0 1-9.962-11.873 19.6 19.6 0 0 1 1.839-15.508c3.691-6.303 9.137-8.851 15.988-10.466"/><path fill="#fed0ed" d="M818.404 854.111c2.26-1.82 2.629-1.983 3.474-4.719 1.212 2.415 2.55 5.534 5.177 6.697 2.257 1 4.743.872 6.907-.287 1.366-.731 2.642-1.911 3.826-2.908l1.936 4.304c-.236.208-.461.43-.708.625-3.255 2.575-7.244 4.673-11.519 3.775-4.308-.904-6.648-4.135-9.093-7.487"/><path fill="#fee3f0" d="M818.404 854.111c-.785-4.251-.948-7.716 1.752-11.353 1.999-2.692 4.969-4.1 8.251-4.418 3.899-.379 8.272.855 11.241 3.457 1.796 1.573 3.007 3.722 3.302 6.107.441 3.575-1.091 6.588-3.226 9.294l-1.936-4.304c-1.184.997-2.46 2.177-3.826 2.908-2.164 1.159-4.65 1.287-6.907.287-2.627-1.163-3.965-4.282-5.177-6.697-.845 2.736-1.214 2.899-3.474 4.719"/><path fill="#201049" d="M821.878 849.392c2.405-3.346 4.382-5.645 8.764-6.194 2.001-.25 3.202.293 4.961 1.091 1.648 1.808 2.513 3.143 2.553 5.69.016 1.012-.191 1.934-.368 2.915-1.184.997-2.46 2.177-3.826 2.908-2.164 1.159-4.65 1.287-6.907.287-2.627-1.163-3.965-4.282-5.177-6.697m-77.622-106.253c3.222-.242 6.644-.556 9.837.043 5.969 1.12 11.915 4.561 15.373 9.62a18 18 0 0 1 2.75 14.411c-1.797 7.402-7.151 11.55-13.39 15.238-9.177 1.639-15.597-1.407-23.281-5.993a85 85 0 0 1-1.396-2.447c-3.029-5.561-4.786-12.158-2.756-18.379 2.132-6.53 7.058-9.5 12.863-12.493"/><path fill="#fee3f0" d="M747.152 750.882a55 55 0 0 1 2.421.001c4.424.121 7.762 1.662 10.704 5.026a10.7 10.7 0 0 1 2.541 8.523c-.685 4.698-3.8 7.2-7.485 9.743a104 104 0 0 1-3.446-.023c-4.228-.123-8.188-1.216-10.938-4.718-1.943-2.475-2.742-5.186-2.159-8.316.937-5.036 4.352-7.523 8.362-10.236"/><path fill="#201049" d="M749.938 754.697c1.653.809 3.691 1.664 5.082 2.876 2.046 1.781 2.262 3.406 2.499 5.954-1.3 3.28-2.773 4.566-5.535 6.703-1.894-.761-4.764-2.12-6.093-3.755-1.801-2.214-1.839-3.154-1.826-5.825 1.399-3.062 3.185-4.162 5.873-5.953m96.093 116.601c32.505 24.964 55.689 55.761 70.807 93.812-6.375-3.399-12.453-7.422-18.575-11.258-26.583-17.063-48.511-38.911-67.188-64.302-2.361-3.209-6.887-8.319-8.169-12.028-.2-.579-.277-1.194-.416-1.79l-1.097-.315.042-1.226-.864.004-.028-.626c9.149 1.23 16.874 1.431 25.488-2.271m18.899-106.333c6.664-.836 13.469-1.989 20.179-2.173l5.806 10.369c-13.852 18.852-27.421 38.316-42.903 55.866-6.585-4.682-13.086-6.323-21.061-4.83-4.199.787-8.285 2.488-12.213 4.135-4.202 4.129-5.89 8.715-7.944 14.084l-6.576-15.438c-8.644-15.061-20.084-30.397-34.205-40.69 5.07-3.76 8.012-7.414 11.064-12.962 25.747-3.686 52-4.835 77.896-7.419-13.919 11.412-47.78 34.007-55.17 48.175-.317 2.226.031 3.205 1.033 5.131.701 1.345 1.297 2.454 1.788 3.911.118.351.209.711.313 1.066 1.937 1.17 3.763 2.353 5.933 3.053.063-.568.141-1.135.19-1.704.886-10.143-5.491-8.648 4.371-17.45 16.679-14.886 35.264-27.719 51.499-43.124M548.154 488.84c32.704 19.547 67.449 35.51 100.978 53.592-3.187 7.406-2.303 13.11-.543 20.78-18.681 7.742-66.479 48.31-86.42 62.525-12.394-44.309-13.356-91.229-14.015-136.897m148.267 73.474c.577-2.079 1.605-2.919 3.149-4.366 12.156 5.654 25.107 10.113 37.628 14.924 27.604 10.605 55.314 20.739 82.471 32.49l-2.241 4.539c.53 14.845 3.337 16.843 11.155 28.91-8.913 9.946-16.169 23.925-23.207 35.326a2999 2999 0 0 1-41.128 65.931c-9.303-3.844-15.346-4.08-24.949-1.086-7.915-20.984-14.536-42.484-21.798-63.703a4938 4938 0 0 0-34.606-97.776c.556-.361 1.116-.716 1.668-1.082 5.366-3.563 10.584-7.505 11.858-14.107"/><path fill="#fed0ed" d="M696.421 562.314c.577-2.079 1.605-2.919 3.149-4.366 12.156 5.654 25.107 10.113 37.628 14.924 27.604 10.605 55.314 20.739 82.471 32.49l-2.241 4.539c-13.46-2.867-27.875-10.028-40.778-14.948-23.299-8.885-59.193-20.539-80.229-32.639"/><path fill="#201049" d="M670.38 526.13c2.935-.448 3.08-.449 5.712.912 6.929 2.187 13.341 4.393 17.55 10.806.967 2.508.897 2.553 3.226 3.863 2.881 5.297 3.169 10.308 2.702 16.237-1.544 1.447-2.572 2.287-3.149 4.366-1.274 6.602-6.492 10.544-11.858 14.107-.552.366-1.112.721-1.668 1.082-.244.272-.484.547-.733.815-.849.913-1.704 1.656-2.673 2.433a84 84 0 0 0-.253 5.405c4.547 19.156 13.391 38.923 19.994 57.532l34.033 97.479c-5.739 6.389-9.247 10.886-8.65 19.734.268 3.981 2.288 9.04 1.187 12.769-8.065-4.304-18.099-6.834-26.714-10.041-15.556-5.791-31.126-12.496-45.571-20.687-44.031-24.967-75.769-61.146-89.302-110.247 28.657-19.057 58.13-44.422 86.492-65.146l-2.116-4.337c-1.76-7.67-2.644-13.374.543-20.78.911-1.231 1.584-2.734 2.303-4.078 5.534-6.951 10.861-9.26 18.945-12.224"/><path fill="#fee3f0" d="M670.38 526.13c2.935-.448 3.08-.449 5.712.912 6.929 2.187 13.341 4.393 17.55 10.806.967 2.508.897 2.553 3.226 3.863 2.881 5.297 3.169 10.308 2.702 16.237-1.544 1.447-2.572 2.287-3.149 4.366-1.274 6.602-6.492 10.544-11.858 14.107-.552.366-1.112.721-1.668 1.082-.244.272-.484.547-.733.815-.849.913-1.704 1.656-2.673 2.433a84 84 0 0 0-.253 5.405c-.544-1.139-1.217-3.283-1.997-4.183-3.619-4.179-16.226-1.184-26.534-14.424l-2.116-4.337c-1.76-7.67-2.644-13.374.543-20.78.911-1.231 1.584-2.734 2.303-4.078 5.534-6.951 10.861-9.26 18.945-12.224"/><path fill="#201049" d="M685.859 556.213c2.32-1.214 4.952-1.703 7.476-2.348-2.047 7.564-4.475 12.944-11.494 17.036-4.138 2.413-9.173 3.562-13.886 2.347-4.313-1.112-8.663-4.444-10.931-8.279-.858-1.452-1.463-3.093-2.051-4.669 1.844-1.648 3.678-1.728 6.034-2.153 1.403 2.015 3.005 3.923 5.126 5.222 2.938 1.8 6.66 2.464 10.008 1.604 5.013-1.287 7.258-4.48 9.718-8.76"/><path fill="#201049" d="M654.973 560.3c-1.208-1.908-1.888-4.023-2.248-6.26-.648-4.037 1.043-8.35 3.458-11.526 3.618-4.757 9.389-8.235 15.333-8.998 5.004-.642 10.493.47 14.408 3.785 5.295 4.484 6.933 9.887 7.411 16.564-2.524.645-5.156 1.134-7.476 2.348-.661-5.572-1.269-9.608-5.994-13.112-2.566-1.902-5.824-2.917-9.021-2.429-3.517.537-6.722 2.845-8.514 5.891-2.074 3.525-1.544 7.678-1.323 11.584-2.356.425-4.19.505-6.034 2.153"/><path fill="#fee3f0" d="M661.007 558.147c-.221-3.906-.751-8.059 1.323-11.584 1.792-3.046 4.997-5.354 8.514-5.891 3.197-.488 6.455.527 9.021 2.429 4.725 3.504 5.333 7.54 5.994 13.112-2.46 4.28-4.705 7.473-9.718 8.76-3.348.86-7.07.196-10.008-1.604-2.121-1.299-3.723-3.207-5.126-5.222"/><path fill="#201049" d="M669.811 545.658c2.459.113 4.895.212 7.013 1.687 2.44 1.699 2.697 2.895 3.429 5.577-.509 3.528-1.747 4.811-4.213 7.305-1.968-.034-4.435-.025-6.177-1.091-2.062-1.263-3.383-3.095-3.535-5.547-.197-3.169 1.658-5.581 3.483-7.931"/><path fill="#fed0ed" d="M1054.77 174.981c1.05-3.636 1.82-7.365 2.67-11.055 67.06 1.943 176.51 21.249 238.38 46.312.5 3.463 1.37 7.061-.33 10.202-.5-.108-1-.226-1.51-.323-.65-.125-1.3-.223-1.95-.344-1.67-.311-1.75-.521-3.56-.172-5.22 1.003-13.2 6.281-18.34 8.515a2060 2060 0 0 1-53.87 22.378c1.25 10.331-.26 15.868-6.4 24.327 32.34 26.132 64.03 53.448 95.23 80.948 13.32 11.746 25.83 24.448 39.6 35.666 3.29.368 5.45-1.127 8.45-2.414-6.95-36.154-18.16-72.26-28.26-107.677-4.98-17.45-8.78-35.55-14.75-52.665 2.74-1.036 6.06-1.958 8.14-4.111 1.64-1.702 3.32-3.168 5.11-4.697 9.38-1.061 90.09 38.002 104.03 45.158a1465 1465 0 0 1 54.98 30.047c2.81 1.624 5.76 3.234 6.64 6.55-5.19 10.95-86.91 82.988-103.07 98.142 3.64 7.037 4.74 14.968 2.74 22.702-2.08 8.011-7.53 13.361-14.41 17.457 12.65 36.8 23.82 74.389 35.28 111.585 4.36.099 8.59.594 12.91 1.166 16.22-44.526 29.24-90.546 43.07-135.888 6.5-21.305 12.24-43.107 20.6-63.767-.9-.909-1.8-1.823-2.64-2.794-4.28-4.959-5.9-11.242-5.32-17.712.31-3.519 1.76-7.239 4.87-9.196 2.74-1.729 6.23-1.733 9.3-1.024 5.7 1.32 10.08 3.582 13.13 8.589-1.8 1.472-13.39-3.384-17.46-3.104-2.15 1.466-3.34 3.056-3.79 5.698-.69 4.041.37 8.66 2.85 11.936a13.6 13.6 0 0 0 9.59 5.343c5.21.477 10.59-1.873 14.48-5.222 3.38-2.907 6.62-7.51 6.78-12.119.33-9.389-10.26-10.195-14.95-15.668.69-1.874 1.04-3.012 2.61-4.353 1.38-1.17 1.94-.764 3.62-.709 9.24 5.062 12.22 11.94 16.03 21.013l-2.94 5.308c-2.08 5.171-4.23 8.715-8.36 12.491 6.11 19.841 39.71 127.68 35.92 137.131-.43 1.089-.41.933-1.21 1.466-1.89-.739-2.56-2.252-3.37-4.059-8.16-18.365-11.5-40.64-16.53-60.104a1337 1337 0 0 0-21.08-71.147c-5.36 1.304-9.99 1.479-15.46 1.398-7.69 18.136-12.64 37.779-18.35 56.631l-24.32 78.274c-6.58 21.432-12.58 43.323-20.86 64.17 4.93 3.925 8.1 8.058 11.09 13.568 31.63-20.539 63.68-39.777 96.19-58.904l8.94 7.561c-3.02 11.506-8.36 22.657-13.02 33.575-9.78 22.896-20.31 45.442-30.54 68.139a3213 3213 0 0 1-39.38 85.332c-6.11 12.937-11.65 27.274-19.23 39.369 5.12 4.607 9.33 9.85 10.82 16.695 8.22-2.781 16.31-6.807 24.32-10.176a2903 2903 0 0 1 45.74-18.692c22.43-8.855 46.09-15.712 68.01-25.621-1.86-6.045-2.17-11.178-.02-17.226 2.99-8.386 9.49-13.15 17.29-16.643-10.98-37.678-24.4-75.513-37.91-112.364-4.25-11.579-9.52-22.842-13.47-34.505-3.86-11.386-1.37-5.308 2.98-12.509.96-1.577.68-5.427 1.76-7.631 10.39.418 105.48 66.825 119.42 76.615 3.83 2.697 9.97 6.907 10.78 11.767l-1.4.894c-3.49-.615-6.29-2-9.3-3.839-11.07-6.753-21.7-15.141-32.42-22.513-28.67-19.725-57.45-39.647-87.8-56.738 4.71 21.17 14.17 42.262 21.52 62.699a2185 2185 0 0 1 32.88 97.192c7.91 1.572 14.16 2.808 20.76 7.783 1.46 1.991 2.45 3.207 4.63 4.42 13.14-16.269 25.4-33.444 37.47-50.525 3.93-5.569 7.44-11.979 11.61-17.267l1.85 1.013c.8-.799.3-.194.98-2.147-2.28-2.536-3.75-3.993-4.12-7.559 2.05-1.164 3.05-1.232 5.4-1.069.66.544 1.51.921 2 1.631.4.585 20.88 92.173 21.62 99.998.43 4.599.3 11.3-3.36 14.75-3.02 2.844-6.45 3.468-10.46 3.242-10.65-.603-22.26-6.807-32.48-10.139-8.28-2.702-16.74-4.959-25.19-7.073-3.46 7.841-7.05 13.3-15.27 16.623-3.48 1.406-7.21 2.1-10.94 2.318-7.68 30.103-14.13 60.456-21.23 90.694-2.28 9.73-7.96 24.695-7.72 34.041l1.48 2.006.53-.141c3.38.657 5.59 1.681 8.53 3.45a4426 4426 0 0 0 76.47-82.796c10.87-11.926 21.44-25.417 32.99-36.585 2.18-2.102 3.59-2.773 6.54-3.019l.79 1.068c-7.12 45.343-13.27 90.823-20.61 136.155-3.73 22.972-5.72 50.02-15.1 71.444-4.45 10.159-10.64 16.051-19.37 22.41-13.33 9.697-27.43 18.426-41.26 27.38-5.84 3.778-12.95 7.489-18.08 12.109 1.49 3.39 1.78 5.93 1.89 9.61-.67 2.92-1.65 5.56-.58 8.48-2.11 7.98-6.26 14.73-13.58 18.92-5.1 2.92-10 3.8-15.79 3.32-1.06 14.82-1.41 63.37-4.22 73.72-1.04 3.84-3.21 7.73-6.17 10.41-3.51 3.16-7.55 4.5-12.07 5.55-16.7 3.89-34.92 4.6-51.98 6.26l-96.88 8.86c-4.99 8.28-9.94 15.83-20.05 18.09-.32.07-.65.11-.97.17l-6.32 1.74c-4.47.38-8.02.37-12.34-.94-3.26-.39-3.35.51-6.58-1.19-5.73-3.37-11.06-7.18-15.02-12.62-5.79-7.96-5.63-16.85-4.3-26.11-16.18-9.04-162.51-97.82-166.17-103.09-.25-.36-.48-.74-.71-1.11l-1.79-.08c-4.56 4.69-9 7.9-15.74 8.17-5.75.23-11.62-1.66-17.17-2.95l-2.77-.22c-4.81-6.17-9.5-11.79-11.34-19.58 1.05-3.03.55-5.1-.05-8.12.29-1.95.62-3.949 1.3-5.814 3.31-9.141 11.76-13.116 20.01-16.826-.29-16.635-.67-33.441.61-50.038 1.88-1.087 3.11-1.912 5.42-1.191.52.161.94.529 1.41.794 4.99.664 9.65-.795 13.85-3.478 6.8-4.335 10.33-11.125 12.21-18.724 0-1.881.55-3.939.87-5.803-.54-5.65-2.47-10.593-5.21-15.522-2.17-3.516-5.86-5.563-9.29-7.632-1.81-.156-3.08-1.037-4.7-1.858 6.17-17.579 16.15-34.477 24.85-50.94 10.7-20.259 21.21-40.676 32.42-60.662a76 76 0 0 1-3.01-2.332c-8.53-7.036-11.1-13.886-12.08-24.558.18-1.806.6-3.604.95-5.387l5.33-9.853c-25.73-18.209-49.07-41.327-73.29-61.539-22.03-18.381-43.74-37.216-65.95-55.361-14.12-11.53-28.96-22.302-42.62-34.359-2.47 2.215-5.05 4.371-8.04 5.86-6.78 3.37-15.89 3.843-22.925 1.068-5.608-2.21-9.59-6.122-12.085-11.547-.525-2.19-1.505-4.097-2.48-6.111-27.494 11.637-55.971 21.289-83.809 32.134-9.461 3.686-19.898 6.814-28.867 11.466l-.553-1.125c-3.938-7.851-7.381-10.835-15.701-13.584a405 405 0 0 1-12.378.243c-6.068.465-11.146 3.311-15.175 7.848-2.032 2.288-3.601 4.729-5.098 7.383-27.157-11.751-54.867-21.885-82.471-32.49-12.521-4.811-25.472-9.27-37.628-14.924.467-5.929.179-10.94-2.702-16.237-2.329-1.31-2.259-1.355-3.226-3.863-4.209-6.413-10.621-8.619-17.55-10.806 3.859-25.747 6.333-51.81 9.826-77.632 6.029-.529 11.488-1.991 16.317-5.824 6.758-5.364 8.802-13.045 9.973-21.221 49.767-12.357 100.238-23.041 150.351-33.927-.321-6.684.485-8.974 5.008-13.991a3374 3374 0 0 0-97.614-72.584c-12.854-9.359-26.547-18.223-38.948-28.12-2.14-1.707-4.185-3.245-5.328-5.807 7.246-3.699 106.096 19.853 121.444 22.435l1.71-4.903c.138-.26.265-.527.413-.782 5.274-9.058 12.677-12.768 22.379-15.519 2.217.164 4.51.476 6.729.392 7.522 1.492 14.129 3.51 18.714 10.109.374.539.728 1.092 1.093 1.638l-.144.611c2.096 1.602 3.014 2.511 4.036 4.958l.353 1.163c1.056 3.605 1.34 5.967 1.084 9.648-.143 2.052-.217 4.112-.334 6.165 9.799 6.944 24.348 11.455 35.485 16.333l62.181 27.156c15.56 6.743 31.49 13.147 46.39 21.27 4.3-4.561 8.4-7.126 14.12-9.581l5.85-.336c6.4.988 13.12 1.341 18.17 5.82 28.83-29.104 56.88-58.698 86.43-87.144-5.25-7.279-5.46-11.988-7.09-20.446-.1-.51-.65-3.155-.95-3.517-3.41-4.142-16.98-11.597-22.26-15.406z"/><path fill="#201049" d="M1424.31 743.647c3.71.442 6.55.774 9.84 2.627 6.93 4.578 11.97 8.844 13.81 17.428 1.33 6.18-.16 12.517-3.77 17.665-3.93 5.624-11.25 9.659-17.95 10.694-1.24.192-2.47.3-3.72.391-.02-2.567-.25-5.16-.39-7.726 2.3-.313 4.61-.627 6.88-1.106 4.98-1.052 9.13-5.301 11.69-9.518 1.83-3.01 2.7-6.448 1.71-9.904-1.46-5.071-6.1-8.112-10.4-10.61-2.59-.343-5.07-1.003-7.59-1.64z"/><path fill="#201049" d="M1422.52 792.452c-3.12-.175-6.37-.451-9.22-1.837a23 23 0 0 1-11.85-13.584c-2.07-6.43-1.55-13.473 1.75-19.389 4.84-8.645 12.05-11.696 21.11-13.995l.11 8.301c-5.88 1.541-11.24 3.927-14.36 9.48-1.85 3.292-2.27 7.433-.99 10.999 1.5 4.19 5.62 7.683 8.9 10.509 1.26 1.077 2.61 1.365 4.16 1.79.14 2.566.37 5.159.39 7.726"/><path fill="#fed0ed" d="M1424.42 751.948c2.52.637 5 1.297 7.59 1.64 4.3 2.498 8.94 5.539 10.4 10.61.99 3.456.12 6.894-1.71 9.904-2.56 4.217-6.71 8.466-11.69 9.518-2.27.479-4.58.793-6.88 1.106-1.55-.425-2.9-.713-4.16-1.79-3.28-2.826-7.4-6.319-8.9-10.509-1.28-3.566-.86-7.707.99-10.999 3.12-5.553 8.48-7.939 14.36-9.48"/><path fill="#201049" d="M1421.4 757.018c4.8-.036 7.97.853 12.15 3.369 2.58 1.551 3.61 2.428 4.4 5.317-1.23 1.948-1.5 2.139-3.57 3.162-3.23-1.47-4.03-3.797-6.12-6.557-1.62 1.194-1.37 2.023-1.83 3.915.46 2.515.87 3.838-.18 6.276-2.18 1.763-3.3 2.509-6.21 2.338-2.8-.166-4.66-1.496-6.58-3.414-.62-1.732-1.23-2.563-.85-4.447.96-4.769 5.16-7.226 8.79-9.959M1367 434.93c-6.32.329-12.3-.125-17.81-3.626-4.09-2.605-6.58-6.592-7.52-11.326a23.1 23.1 0 0 1 3.52-17.539c2.96-4.326 7.89-8.185 13.22-8.833 4.2-.511 6.79.98 10.08 3.418 1.46 1.078 3.31.571 5.1.512 1.98 1.123 2.25.717 2.91 3.026-1.65 1.826-3.3 3.675-5.04 5.418-3.43 3.442-5.23 3.228-9.81 3.215-.71 1.599-.39 2.312-.21 4.015 3.7 1.26 6.5-1.337 10.07-.133.84 2.475 1 2.964.5 5.504-1.66 1.176-3.44 2.251-4.59 3.967-.89 1.328-.05 3.332.19 4.837.37-.11.74-.216 1.11-.33 2.64-.819 5.19-1.378 6.67-3.957 1.77-3.064 1.08-5.678.66-8.934-.37-2.826-1.13-5.223.48-7.797.56-.904 2.12-2.041 2.88-2.689 1.88.352 3.37 1.243 4.47 2.884 1.82 2.711 1.55 6.05.75 9.056-1.75 6.586-6.19 14.103-12.36 17.389-1.68.894-3.45 1.396-5.27 1.923"/><path fill="#fed0ed" d="M1349.68 419.222c-.8-3.539-1.6-7.642-.02-11.079.67-1.452 1.27-1.244 2.66-1.697 2.73 1.242 3.68 2.195 5.45 4.495l-.26 1.764-3.72 1.873-.7 2.431z"/><path fill="#fee3f0" d="M1353.09 417.009c1.22 2.25 2.02 4.314 4.45 5.466l4.89-1.003c2.4 1.68 2.65 3.763 3.69 6.432l-2.5 1.597c-1.54-.015-2.85-.156-4.3-.736-4.9-1.966-7.49-4.828-9.64-9.543z"/><path fill="#201049" d="M1410.04 558.05c3.2-.316 6.26-.503 9.42.268a20.9 20.9 0 0 1 13.34 10.221 20.6 20.6 0 0 1 1.23 16.465c-2.53 7.207-7.48 10.462-14.14 13.52-2.13-.034-4.29-.054-6.41-.301-5.64-.656-11.32-4.072-14.49-8.776-3.02-4.467-3.93-9.953-2.74-15.193 1.82-8.041 7.03-12.207 13.79-16.204"/><path fill="#fee3f0" d="M1411.91 571.823c-2.37-1.823-3.44-1.988-4-5.009 1.72-2.082 2.21-2.491 5.05-2.943 3.54-.561 7.79 1.084 10.27 3.575 3.12 3.144 4.58 7.867 4.38 12.24-.15 3.159-1.2 6.358-3.53 8.597-2.55 2.455-6.22 3.207-9.65 2.856a13.48 13.48 0 0 1-9.44-5.279c-1.65-2.139-2.89-5.036-2.67-7.784.16-2.074 1.2-3.365 2.34-4.996 3.11-1.584 4.06-.63 7.33.335z"/><path fill="#040024" d="M1411.91 571.823c1.63-2.661 1.61-3.161 4.48-4.237 2.46.578 4.07 1.326 5.53 3.538 1.45 2.213 1.29 3.235.95 5.67-1.96 1.077-2.13 1.101-4.25.583-2.3-.562-4.98-2.281-6.63-3.962z"/><path fill="#201049" d="M1407.71 577.449c4.57 3.362 10.72.356 14.53 4.223l-1.05 3.554c-1.35.738-3.23 1.989-4.72 2.278-2.77.534-3.71-.243-5.89-1.632-1.73-2.964-2.42-5.028-2.87-8.423M1185.2 237.182c3.68-.31 7.81-.465 11.39.578 5.02 1.466 9.7 4.87 12.21 9.511 2.44 4.499 2.77 9.786 1.2 14.622-2.36 7.304-7.45 11.048-13.95 14.552-3.47.808-7.68 1.086-11.15.167a17.98 17.98 0 0 1-11.41-9.208c-2.79-5.424-2.93-11.825-.9-17.512 2.36-6.603 6.47-9.772 12.61-12.71"/><path fill="#fee3f0" d="M1187.06 242.903c1.95-.087 3.78-.069 5.69.334 3.78.796 7.09 3.01 9.03 6.394 1.75 3.045 2.13 6.56 1.2 9.933-1.34 4.841-4.39 7.469-8.61 9.845a33.4 33.4 0 0 1-4.8-.033c-3.62-.284-6.72-1.689-9.05-4.551-2.16-2.662-2.77-5.906-2.33-9.241.78-5.964 4.3-9.22 8.87-12.681"/><path fill="#201049" d="M1189.13 247.539c2.85.522 5.93 1.229 7.82 3.654 1.47 1.875 1.76 4.001 1.27 6.287-.72 3.355-3.43 5.299-5.94 7.333-2.77-.359-6.15-.828-7.9-3.272-1.41-1.96-1.58-3.551-1.3-5.862.47-3.96 3.12-5.854 6.05-8.14m-124.68 117.584c3.68-.203 7.49-.205 11.06.854 5.09 1.511 9.72 4.858 12.16 9.646 2.3 4.505 2.42 9.758.72 14.482-2.77 7.7-8.43 11.486-15.62 14.599-4.87.368-9.67-.284-14.11-2.454-4.76-2.329-8.53-6.415-10.22-11.474a18.76 18.76 0 0 1 1.61-15.249c3.3-5.722 8.24-8.545 14.4-10.404"/><path fill="#fee3f0" d="M1064.98 372.023c1.99-.126 4.05-.295 6.03.005a12.68 12.68 0 0 1 8.94 6.003c1.75 2.86 1.98 6.389 1.09 9.579-1.46 5.221-4.66 7.546-9.24 10.014-4.93-.348-9.46-.96-13.19-4.526-2.32-2.216-3.16-4.807-3.01-7.959.29-6.018 5.17-9.589 9.38-13.116"/><path fill="#201049" d="M1067.03 376.595c2.35.199 4.74.437 6.57 2.139 1.84 1.714 2.52 3.71 2.26 6.193-.33 3.179-2.63 5.227-4.79 7.286-2.53-.175-5.29-.272-7.29-2.103-1.82-1.66-2.26-3.633-1.96-6.004.4-3.202 3.03-5.405 5.21-7.511m-62.43 156.587c3.74-.141 7.94.627 11.35 2.21 4.97 2.307 8.91 6.332 10.75 11.525a19.33 19.33 0 0 1-.88 15.011c-3.32 6.921-8.9 9.942-15.92 12.191-4.75.158-8.99.117-13.277-2.198a20.28 20.28 0 0 1-9.894-12.307 20.56 20.56 0 0 1 1.913-15.755c3.65-6.356 9.207-8.762 15.958-10.677"/><path fill="#fee3f0" d="M996.525 546.884c2.421-2.848 6.625-6.507 10.455-7.067 2.53-.369 5.17 1.307 6.76 3.107 3.02 3.444 4.14 8.668 3.75 13.137-.3 3.416-1.51 7.229-4.26 9.463-2.11 1.712-4.1 1.906-6.71 1.5-3.5-.545-6.33-1.831-9.105-3.963-1.512-2.251-2.779-4.282-3.376-6.965-.828-3.72.606-6.212 2.486-9.212"/><path fill="#201049" d="M999.058 551.271c2.242-2.554 3.622-4.354 7.062-5.25 2.36.464 3.7.541 5.15 2.755 1.31 2.001 1.92 5.82 1.18 8.129-.9 2.795-1.81 3.313-4.08 4.921-3.88.214-5.11-.55-8.2-2.896-.915-2.514-.955-5.018-1.112-7.659m249.512-50.227c2.46-2.19 5.2-2.517 8.41-2.225 4.65.424 8.45 3.064 11.26 6.684 3.42 4.393 5.38 9.329 4.46 14.945-.23 1.472-.7 2.891-1.14 4.31-.61 2.002-1.3 4.04-2.22 5.921-2.18 4.431-6.62 8.67-11.45 10.013-5.59 1.552-11.49.162-16.25-2.997-5.05-3.351-8.63-8.985-9.79-14.905-.94-4.778-.29-9.535 2.52-13.582 3.66-5.286 8.07-7.014 14.2-8.164"/><path fill="#fee3f0" d="M1248.31 504.712c4.9.127 9.68-.423 13.39 3.371 3.33 3.399 5.39 11.721 5.52 16.392-3.03 4.082-6.58 8.976-11.69 10.525-1.43.435-1.81-.081-3.06-.659l-.06-2.186c1.59-1.242 2.51-1.829 3.48-3.64l-1.93-1.814c1.11-.853 5.73-1.024 7.31-1.333l1.04-2.184c-.09-2.488-.26-3.95-1.42-6.168-3.29-1.186-7.74 4.658-12.68 4.189-2.51-1.362-3.05-2.754-4.34-5.182l-.72-.392c-.29 1.145-.76 2.635-.76 3.85-.01 2.626 1.53 3.817 3.25 5.521 1.19 1.172 2.39 2.23 3.36 3.598 1.36 1.914 1.43 2.209 1.12 4.415l-2.23.564c-2.71-.866-4.44-1.556-6.17-4.039-1-1.434-1.26-2.593-1.05-4.3.37-2.97.55-4.296-.59-7.169-.89-2.214-1.32-3.423-1.1-5.888 2.88-3.022 5.65-5.464 9.33-7.471"/><path fill="#201049" d="M1243.15 515.631c.82-2.824 2.62-4.46 5.29-5.828 2.47-1.263 4.6-1.491 7.33-1.563 2.64 1.209 2.72 1.178 4.03 3.751-.62 2.02-.06 1.538-1.65 2.476-3.92 2.303-9.92 1.901-14.28 1.556zm-19.05 203.4c3.88-.198 8.08-.42 11.86.575 5.86 1.542 11.3 5.494 14.1 10.92a19.18 19.18 0 0 1 .95 15.317c-2.6 7.289-8.02 11.339-14.66 14.708-3.44.45-6.9.721-10.34.038-5.94-1.183-11.34-4.744-14.43-10.005a20.5 20.5 0 0 1-1.96-15.872c2.26-7.944 7.43-12.014 14.48-15.681"/><path fill="#fee3f0" d="M1241.48 746.966c-1.67 2.876-4.22 5.09-7.52 5.798-3.79.814-9.24-.091-12.29-2.609-2.58-2.139-4.14-4.857-4.54-8.187a15.12 15.12 0 0 1 3.29-11.305c2.04-2.532 5.11-4.45 8.41-4.664 5.1-.33 9 1.718 12.7 5.03 2.29 5.489 2.95 8.834.61 14.45-.21.501-.44.991-.66 1.487"/><path fill="#201049" d="M1238.58 743.986c-.58.36-1.14.73-1.72 1.082-2.84 1.73-6.99 2.899-10.25 1.515-2.7-1.143-3.08-2.111-4.39-4.543-.06-2.081-.14-3.583.8-5.528 1.12-2.31 3.09-4.264 5.59-4.981 3.66-1.048 6.42.564 9.41 2.388 1.01 3.733 1.04 6.242.56 10.067m372.33-65.719c4.59-.473 8.68-.97 13.16.52 6.58 2.187 12.17 6.992 14.96 13.384 2.33 5.341 2.62 11.558.15 16.904-2.95 6.385-7.88 9.2-14.17 11.671-4.13.28-8.07.481-12.11-.626-5.96-1.633-11.2-5.992-13.99-11.499-2.68-5.279-3.61-11.482-1.74-17.163 2.31-6.998 7.42-10.136 13.74-13.191"/><path fill="#fee3f0" d="M1614.57 686.054c1.95-.124 4-.29 5.95-.079 3.82.414 7.96 3.14 10.18 6.215 2.03 2.81 2.88 6.264 2.1 9.689-1.16 5.118-5.02 7.766-9.38 10.062-2.16.376-4.45.838-6.64.647-3.67-.32-7.38-2.131-9.55-5.151-1.93-2.695-2.38-6.091-1.85-9.306.94-5.708 4.7-8.893 9.19-12.077"/><path fill="#201049" d="M1617.2 690.485c2.66.482 5.37 1.144 7.36 3.098 1.98 1.934 2.88 3.536 2.62 6.372-.4 4.246-3.1 5.989-6.3 8.185-3.89-.262-5.51-.644-8.52-3.069-1.13-2.364-1.66-3.195-1.36-5.88.46-4.136 3.23-6.184 6.2-8.706m-31.27 211.329c-2.11.036-4.17-.148-6.27-.368-6.84-.719-13.19-3.25-17.43-8.921a20.37 20.37 0 0 1-3.82-15.139 22.17 22.17 0 0 1 9.73-15.138c7.68-5.139 14.23-4.926 22.8-3.104 6.11 2.623 10.6 5.981 13.33 12.247 2.15 4.95 2.09 10.822.05 15.795-2.53 6.164-7.87 10.953-14.01 13.396-1.43.569-2.88.924-4.38 1.232"/><path fill="#fee3f0" d="M1583.87 894.155c-5.27-.45-9.96-1.338-13.66-5.457-2.48-2.753-3.73-6.342-3.34-10.031a13.2 13.2 0 0 1 5.37-9.18c4.81-3.534 9.51-3.188 15.16-2.551 4.3 2.358 7.8 4.727 9.31 9.645.99 3.234.36 6.482-1.25 9.38-2.68 4.801-6.52 6.703-11.59 8.194"/><path fill="#201049" d="M1576.24 872.203c4.64-.218 10.56-.718 14.08 3.098 1.56 1.696 2.3 3.261 1.74 5.577-.68 2.802-3.07 4.678-5.17 6.428-1.33.232-2.66.461-4 .607-2.98.325-6.78-.518-8.95-2.829-1.7-1.817-2.58-3.464-2.31-6.018.33-3.082 2.46-4.95 4.61-6.863M848.831 285.468c.138-.26.265-.527.413-.782 5.274-9.058 12.677-12.768 22.379-15.519 2.217.164 4.51.476 6.729.392 7.522 1.492 14.129 3.51 18.714 10.109.374.539.728 1.092 1.093 1.638l-.144.611-2.938 5.001c2.295 6.493 2.937 12.611-.186 19.014-2.999 6.15-9.115 10.404-15.562 12.3-4.169 1.226-8.307.69-12.558.241 2.029 1.104 3.818 2.072 5.628 3.534a37 37 0 0 1-4.481 1.437c-.46.098-.911.279-1.382.293-3.947.116-8.552-2.379-11.172-5.191-7.075-7.593-8.442-18.292-8.243-28.175z"/><path fill="#fee3f0" d="M848.831 285.468c.138-.26.265-.527.413-.782 5.274-9.058 12.677-12.768 22.379-15.519 2.217.164 4.51.476 6.729.392 7.522 1.492 14.129 3.51 18.714 10.109.374.539.728 1.092 1.093 1.638l-.144.611-2.938 5.001c-4.092-5.903-8.656-9.808-15.933-11.081a23.5 23.5 0 0 0-17.859 4.159c-4.488 3.294-7.614 8.158-8.442 13.688-.888 5.932 1.075 12.675 4.667 17.443 2.538 3.367 6.524 4.532 9.261 7.346 2.029 1.104 3.818 2.072 5.628 3.534a37 37 0 0 1-4.481 1.437c-.46.098-.911.279-1.382.293-3.947.116-8.552-2.379-11.172-5.191-7.075-7.593-8.442-18.292-8.243-28.175z"/><path fill="#fee3f0" d="M870.007 282.999c2.663-.084 5.659-.336 8.251.335 3.539.916 7.063 3.704 8.856 6.871 1.685 2.976 2.041 6.419 1.119 9.701-1.53 5.445-5.532 8.187-10.28 10.694-1.616.184-3.295.379-4.922.269-3.871-.26-7.967-1.909-10.365-5.049-2.313-3.028-2.83-7.038-2.183-10.716 1.069-6.084 4.636-8.821 9.524-12.105"/><path fill="#201049" d="M872.982 287.992c2.996.821 6.975 1.775 8.667 4.749 1.317 2.315 1.66 4.184.837 6.769-.997 3.131-3.926 4.767-6.522 6.426-1.102-.147-2.204-.3-3.294-.531-2.931-.621-5.864-2.406-7.138-5.252-.991-2.214-.899-4.518.186-6.664 1.523-3.015 4.352-4.194 7.264-5.497m495.338 824.148c5.95-.35 11.41-.21 16.89 2.46a28.23 28.23 0 0 1 14.58 17c2.04 6.61 1.48 13.77-1.91 19.84-4.27 7.66-10.68 11.01-18.76 13.54-7.85.17-14.36.2-21.4-3.9-6.18-3.6-10.75-9.35-12.43-16.34-1.7-7.04-.57-14.95 3.5-21 4.72-7.02 11.49-10 19.53-11.6"/><path fill="#fee3f0" d="M1361.65 1153.86c-2.73-1.98-6.22-4.58-7.21-7.98-.74-2.55-.43-3.48.81-5.56 2.8.17 3.33 1.07 5.45 2.81.23 3.46.8 5.24 2.93 8.02.19.25.39.49.59.74zm20.93-25.44c-19.39-10.19-12.95 2.29-25.2 4.89-2.06.44-1.21.56-2.93-.59.17-2.45 1.09-3.79 2.69-5.57 3.69-4.1 9.05-7.12 14.64-7.33 6.16-.23 10.77 3 15.03 7.09z"/><path fill="#fed0ed" d="m1382.58 1128.42 4.23-1.51c3.99 4.39 5.98 8.33 5.53 14.41-.31 4.04-1.77 7.81-4.96 10.44-1.85 1.53-5.46 3.28-7.92 3.07-1.58-.14-3.45-1.47-4.75-2.25-1.93.98-3.68 2.1-5.47 3.3-2.64.01-5.41-.34-7.59-2.02l2.57-1.97c2.46-.5 4.37-.73 6.27-2.53 1.42-3.72-.52-6.47-.53-10.15 0-2.4.84-4.03 2.68-5.55 2.5-2.06 5.29-1.83 8.34-1.73 1.86.06.81.29 2.8-.89z"/><path fill="#201049" d="m1383.22 1133.65 2.16.5c2 1.98 2.18 2.28 2.83 5.01-1.22 5.4-2.9 7.51-7.49 10.62-2.02-1.12-4.05-2.42-5.16-4.55-1.26-2.42-1.16-4.43.03-6.85 1.38-2.79 4.92-3.73 7.63-4.73m258.11-450.142c13.14-16.269 25.4-33.444 37.47-50.525 3.93-5.569 7.44-11.979 11.61-17.267l1.85 1.013c0 .293-.01.586 0 .878.25 17.939 10.76 51.854 15.28 70.644 1.75 7.275 4.34 15.352 4.32 22.864-.01 2.741-.33 4.055-2.25 6.13-1.67 1.801-4.16 2.324-6.49 2.028-8.28-1.054-17.82-6.025-25.89-8.633-9.89-3.192-20.09-5.742-30.14-8.384-.47-7.024-.93-13.192-5.76-18.748m-36.3 213.477c24.94 11.326 51.31 24.132 73.83 39.725-1.59 4.001-3.11 8.65-5.92 11.966-13.88 16.398-53.45 38.543-72.31 51.964-.32-.824-.49-1.323-.98-2.148-3.64-6.094-11.31-7.811-17.73-9.169-2.13-.355-4.34-.384-6.49-.515-.08-26.949 2.9-53.93 4.64-80.808 2.45-.326 4.45-.637 6.9-.017 8.43-.881 12.74-4.633 18.06-10.998"/><path fill="#fed0ed" d="M1580.07 908c2.45-.326 4.45-.637 6.9-.017-2.36 26.999-4.76 54.223-5.05 81.34-2.13-.355-4.34-.384-6.49-.515-.08-26.949 2.9-53.93 4.64-80.808"/><path fill="#201049" d="M1060.79 171.012c11.89-1.238 25.75 1.383 37.63 2.673a937.3 937.3 0 0 1 189.52 40.057l-35.2 14.282c-12.71 5.315-25.49 10.497-37.91 16.472-2.9-4.415-6.08-7.693-10.78-10.228-6.29-3.391-13.76-4.337-20.63-2.19-8.88 2.775-12.84 8.268-16.81 16.113-22.65-16.27-44.69-33.366-67.35-49.612-12.45-8.921-27.31-17.213-38.47-27.567m647.65 580.76c2.58 8.894-23.06 158.533-27.89 178.221-15.52-9.8-31.57-18.485-47.96-26.745l-23.63-11.58c.75-1.696 1.51-3.429 2.01-5.217 2.39-8.499-.27-16.985-4.42-24.415a2426 2426 0 0 0 101.89-110.264m-364.6-316.712c8.11 5.947 14.32 4.779 23.16 7.75 4.39 3.688 32.52 99.245 36.19 111.803-5.04 4.019-8.19 8.187-11.41 13.696a898 898 0 0 0-41.54-16.789 2786 2786 0 0 0-71.54-26.549c.83-8.67.21-14.604-4.04-22.269 11.27-9.229 21.51-20.746 32.02-30.909 12.29-11.885 26.28-23.579 37.16-36.733m59.45 689.09c36.79-18.89 72.12-41.48 107.18-63.32 12.22-7.61 32.98-22.78 45.47-27.78 2.36 5.58 6.03 9.01 11.75 11.18.95.36 1.42.47 2.46.77-.7 11.67-3.18 72.8-7.22 77.94-2.99 3.81-11 5.66-15.62 6.63-15.73 3.33-33.09 4.03-49.11 5.59l-91.93 8.52c.94-8.06.76-12.05-2.98-19.53m38.08-549.161 64.13-38.643c10.92-6.519 21.83-13.661 33.29-19.189a6551 6551 0 0 1-100.98 223.092c-5.33-1.685-10.06-2.657-15.67-3.034-1.7.305-3.55.416-5.05 1.279-2.43-8.857-3.65-120.337-2.51-132.396 2.45.131 3.64-.604 5.75-1.773 6.41-1.278 11.77-4.787 15.54-10.173 4.03-5.758 6.02-12.179 5.5-19.163"/><path fill="#fed0ed" d="M1414.58 606.098c2.45.131 3.64-.604 5.75-1.773 1.31 14.771 1.19 29.863 1.47 44.692a2950 2950 0 0 1 .34 88.198c-1.7.305-3.55.416-5.05 1.279-2.43-8.857-3.65-120.337-2.51-132.396"/><path fill="#201049" d="M1178.51 907.533a5647 5647 0 0 0 114.64 25.623c18.21 3.908 37.04 6.928 55 11.801 2.81.764 6.48 1.53 8.22 4.057-1.35 1.888-3.26 2.284-5.39 2.953-12.73 4.004-26.7 6.228-39.71 9.545l-100.89 25.929c-10.68 2.781-23.67 4.923-33.7 9.277-1.87 3.006-3.57 5.502-4.27 9.022-.56 8.12-2.25 11.58-7.41 17.84 1.99.57 3.87 1.1 5.77 1.93-4.56 4.69-9 7.9-15.74 8.17-5.75.23-11.62-1.66-17.17-2.95l-2.77-.22c-4.81-6.17-9.5-11.79-11.34-19.58 1.05-3.03.55-5.1-.05-8.12.29-1.95.62-3.949 1.3-5.814 3.31-9.141 11.76-13.116 20.01-16.826-.29-16.635-.67-33.441.61-50.038 1.88-1.087 3.11-1.912 5.42-1.191.52.161.94.529 1.41.794 4.99.664 9.65-.795 13.85-3.478 6.8-4.335 10.33-11.125 12.21-18.724"/><path fill="#fed0ed" d="M1145.62 930.132c1.88-1.087 3.11-1.912 5.42-1.191.52.161.94.529 1.41.794-2.62 16.441-1.61 33.821-1.51 50.428-2.06-1.067-2.92-1.373-5.29-.495-.26.094-.43.335-.64.502-.29-16.635-.67-33.441.61-50.038"/><path fill="#201049" d="M1145.01 980.17c.21-.167.38-.408.64-.502 2.37-.878 3.23-.572 5.29.495 12.24 3.448 18.02 6.296 25.74 16.555-1.87 3.006-3.57 5.502-4.27 9.022-.56 8.12-2.25 11.58-7.41 17.84 1.99.57 3.87 1.1 5.77 1.93-4.56 4.69-9 7.9-15.74 8.17-5.75.23-11.62-1.66-17.17-2.95l-2.77-.22c-4.81-6.17-9.5-11.79-11.34-19.58 1.05-3.03.55-5.1-.05-8.12.29-1.95.62-3.949 1.3-5.814 3.31-9.141 11.76-13.116 20.01-16.826"/><path fill="#fee3f0" d="M1144.81 995.073c3.08-.381 6.1-.812 9.12.157 3.61 1.162 6.83 3.791 8.41 7.28 1.27 2.8 1.22 6.07.12 8.91-1.74 4.47-4.81 6.08-8.94 8.12-2.35.05-4.97.14-7.24-.54-5.27-1.56-7.8-6.16-10.46-10.57 2.24-5.63 4.39-9.311 8.99-13.357"/><path fill="#201049" d="M1150.01 998.723c2.71 1.114 6.04 2.127 7.44 4.967.73 1.48 1.06 3.08.61 4.67-1.22 4.35-4.27 5.65-8.02 7.53-2.21-1.11-4.8-2.32-6.22-4.46-.89-1.33-1.42-2.88-1.17-4.47.67-4.25 4.03-6.12 7.36-8.237"/><path fill="#fee3f0" d="M1145.01 980.17c.21-.167.38-.408.64-.502 2.37-.878 3.23-.572 5.29.495 12.24 3.448 18.02 6.296 25.74 16.555-1.87 3.006-3.57 5.502-4.27 9.022-2.11-6.789-5-13.236-11.62-16.742-5.54-2.935-13.39-2.691-19.15-.531-4.79 1.799-8.76 5.45-10.72 10.21-2.08 5.073-1.86 10.713.26 15.733 2.19 5.21 6.41 9.59 11.67 11.72 5.66 2.29 12.55 2.32 18.07-.35a72 72 0 0 0 4.08-2.2c1.99.57 3.87 1.1 5.77 1.93-4.56 4.69-9 7.9-15.74 8.17-5.75.23-11.62-1.66-17.17-2.95l-2.77-.22c-4.81-6.17-9.5-11.79-11.34-19.58 1.05-3.03.55-5.1-.05-8.12.29-1.95.62-3.949 1.3-5.814 3.31-9.141 11.76-13.116 20.01-16.826"/><path fill="#201049" d="M1552.34 1026.94c-.63.51-1.26 1.01-1.93 1.47-11.11 7.65-147.98 90.5-150.64 90.64-.57.03-1.12-.22-1.68-.34l-.62-2.14c2.88-9.75 21.46-29.12 28.67-38.09l94.46-116.184c14.84-18.19 33-37.621 45.79-56.772l.53-.814c4.45 1.513 8.48 2.644 13.15 3.29-1.74 26.878-4.72 53.859-4.64 80.808 2.15.131 4.36.16 6.49.515 6.42 1.358 14.09 3.075 17.73 9.169.49.825.66 1.324.98 2.148 1.18 2.86 1.2 3.23 3.77 4.88 1.49 3.39 1.78 5.93 1.89 9.61-.67 2.92-1.65 5.56-.58 8.48-2.11 7.98-6.26 14.73-13.58 18.92-5.1 2.92-10 3.8-15.79 3.32-2.27-1.16-3.72-.91-6.19-.85-1.04-.3-1.51-.41-2.46-.77-5.72-2.17-9.39-5.6-11.75-11.18.04-.49.15-.98.1-1.46-.26-2.59-1.79-3.22-3.7-4.65"/><path fill="#fee3f0" d="M1575.43 988.808c2.15.131 4.36.16 6.49.515 6.42 1.358 14.09 3.075 17.73 9.169.49.825.66 1.324.98 2.148 1.18 2.86 1.2 3.23 3.77 4.88 1.49 3.39 1.78 5.93 1.89 9.61-.67 2.92-1.65 5.56-.58 8.48-2.11 7.98-6.26 14.73-13.58 18.92-5.1 2.92-10 3.8-15.79 3.32-2.27-1.16-3.72-.91-6.19-.85-1.04-.3-1.51-.41-2.46-.77-5.72-2.17-9.39-5.6-11.75-11.18.04-.49.15-.98.1-1.46-.26-2.59-1.79-3.22-3.7-4.65-2.29-7.12-2.5-15.74 1.17-22.48 4.94-9.079 12.51-12.813 21.92-15.652"/><path fill="#201049" d="M1576.71 995.186c4.59.407 9.04.967 13.14 3.254a20.52 20.52 0 0 1 9.66 12.33 22.62 22.62 0 0 1-2.35 17.35c-3.89 6.73-9.13 9.49-16.35 11.55-4.43-.08-8.37-.53-12.41-2.53a21.32 21.32 0 0 1-10.97-13.47 22.3 22.3 0 0 1 2.33-17.51c3.96-6.568 9.72-9.29 16.95-10.974"/><path fill="#fee3f0" d="M1576.14 1002.96c1.58.08 3.2.15 4.75.47 4.18.86 8.2 3.54 10.35 7.25 1.89 3.25 2.17 7.12.95 10.65-1.77 5.09-5.68 7.24-10.27 9.46-2.02.15-4.11.32-6.12-.03-3.66-.64-6.97-2.61-8.99-5.78-1.88-2.97-2.07-6.53-1.27-9.88 1.48-6.24 5.38-8.96 10.6-12.14"/><path fill="#201049" d="M1576.04 1008.63c3.35.14 6.97 1.15 9.26 3.78 1.67 1.91 2.45 3.96 2.1 6.5-.41 2.99-2.66 4.77-4.75 6.67-2.7.32-5.51.39-7.94-1.05-2.3-1.36-3.46-3.25-3.62-5.92-.28-4.55 2.02-6.94 4.95-9.98m-319.23-261.309c34.62 5.226 69.53 8.561 104.19 13.65 10.1 1.482 22.9 1.938 32.5 4.859.02 4.979.87 8.888 2.24 13.621-27.38 13.55-212.9 94.176-220.82 103.581l-.75 3.176c-2.17-3.516-5.86-5.563-9.29-7.632 7.55-10.902 13.49-24.842 19.7-36.638l39.87-75.689c5.3.882 10.94.737 16.05-1.032 8.58-2.972 12.53-10.273 16.31-17.896m65.84-520.757c10.8 1.925 21.92 7.674 31.99 11.984 42.66 18.266 85.78 38.818 125.21 63.323a1579 1579 0 0 1-50.61 48.168c-16.68 14.343-32.56 29.915-48.56 45.01-6.71-4.308-12.98-5.327-20.56-7.077-2.81-8.747-4.5-17.967-6.71-26.888a3181 3181 0 0 0-11.5-43.59l-16.66-61.482c-1.87-6.864-5.68-15.637-6.07-22.579-.2-3.495 1.28-4.514 3.47-6.869m268.98 479.542c1.11 2.432 1.82 3.843 1.7 6.582 4.87 8.36 11.66 11.537 20.49 14.454-10.19 41.127-18.56 82.94-29.62 123.802-3.64.226-7.34.207-10.77 1.613-3.39.512-5.81 1.977-8.77 3.657-38.45-24.262-74.33-51.359-111.22-77.86l.43-5.25c.17-4.229.05-8.291-.31-12.509 8.22-2.781 16.31-6.807 24.32-10.176a2903 2903 0 0 1 45.74-18.692c22.43-8.855 46.09-15.712 68.01-25.621"/><path fill="#fed0ed" d="M1591.63 706.106c1.11 2.432 1.82 3.843 1.7 6.582-13.32 5.466-136.25 51.234-138.19 55.852-.64 1.522-.94 2.957-1.27 4.564.17-4.229.05-8.291-.31-12.509 8.22-2.781 16.31-6.807 24.32-10.176a2903 2903 0 0 1 45.74-18.692c22.43-8.855 46.09-15.712 68.01-25.621"/><path fill="#201049" d="M1451.19 781.756c11.79 12.476 25.98 22.212 39.78 32.303 22.57 16.498 44.91 32.078 68.82 46.588-4.83 6.911-7.57 12.237-7.29 20.992a6041 6041 0 0 1-76.81 28.172c-23.47 8.435-47.28 16.521-70.08 26.67-.07-.336-.12-.681-.23-1.006-2.27-6.575-9.08-9.694-14.96-12.211 9.09-41.816 21.74-82.751 29.79-124.781 9.9.007 17.98-1.882 25.1-9.215 2.27-2.33 4.15-4.772 5.88-7.512m-245.61-502.845c3.16.652 120.51 105.382 135.4 117.408-1.87 3.267-3.72 6.691-4.9 10.282-2.86 8.729.13 16.364 4.13 24.05l-33.88 31.834a1103 1103 0 0 0-35.53 35.352c-7.38-4.16-12.46-4.269-20.55-5.378-3.68-7.008-7.39-29.705-9.79-39.135a6220 6220 0 0 1-26.5-107.797c-4.88-20.203-10.6-40.712-14.39-61.128 1.46-3.322 2.95-3.653 6.01-5.488m48.13 446.011c15.38-12.187 29.66-26.216 44.19-39.404 32.74-29.708 65.02-59.913 99.14-88.045 5.57 3.992 11.16 6.293 17.54 8.625-1.14 12.059.08 123.539 2.51 132.396-11.44 4.749-15.8 10.718-22.11 20.944-.43 2.169-.85 4.269-1.48 6.392-9.6-2.921-22.4-3.377-32.5-4.859-34.66-5.089-69.57-8.424-104.19-13.65l1.5-6.468c-.2-6.207-1.47-10.546-4.6-15.931"/><path fill="#fed0ed" d="M1258.31 740.853c11.39 2.106 23.17 2.618 34.68 4.023a4405 4405 0 0 1 62.46 8.593c13.13 1.861 26.57 3.199 39.53 5.969-.43 2.169-.85 4.269-1.48 6.392-9.6-2.921-22.4-3.377-32.5-4.859-34.66-5.089-69.57-8.424-104.19-13.65z"/><path fill="#201049" d="M1276.81 530.556c37.17 15.777 75.79 27.816 112.86 43.918.08 6.813 1.65 12.025 4.52 18.187-31.39 24.779-60.88 51.347-90.6 78.079-18.27 16.113-35.82 33.024-54.11 49.124-5.17-3.518-9.93-5.257-16.07-6.464l15.55-166.247c.85-.05 1.71-.116 2.56-.159 2.55-.128 5.04-.144 7.53-.787 9.08-2.34 13.19-8.093 17.76-15.651m-99.93-250.525c5.36 3.159 9.98 3.617 16.11 3.5 10.78 57.365 27.17 113.904 40.62 170.699 2.84 11.99 6.45 24.15 8.85 36.203.52 2.609.31 4.57-1.13 6.847-2.43 1.515-3.62 1.571-6.46 1.423-15.71-8.809-30.49-21.015-45.14-31.518-32.5-23.294-64.79-47.307-98.45-68.878 2.57-4.284 4.71-9.791 4.8-14.842.11-6.005-1.97-9.836-5.96-14.126A2072 2072 0 0 1 1142 316.52c11.73-11.682 24.9-23.266 34.88-36.489m-89.1 123.71c33.75 21.5 65.92 45.833 98.42 69.174 14.6 10.481 29.26 22.145 44.86 31.024-3.1 5.505-5.05 10.041-5.41 16.463-21 1.862-42.16 6.187-62.99 9.549l-127.09 20.85c-1.66-5.223-3.59-9.8-7.51-13.761-1.97-2.904-4.68-4.86-7.39-7.038a2406 2406 0 0 0 39.16-120.699c2.43.684 4.85 1.334 7.36 1.582 8.79.864 13.91-1.722 20.59-7.144m321 539.087c14.16-8.723 38-15.085 54.27-20.962 30.04-10.854 59.96-22.287 90.17-32.654 2.75 4.248 5.43 8.007 8.98 11.671-25.07 26.344-47.13 56.871-70.09 85.12-33.63 41.367-68.39 81.987-100.4 124.617-5.31-2.34-10.11-3.77-15.88-4.39 2.39-42.77 6.4-85.67 10.3-128.33-2.21-.393-4.31-.064-6.52.172-3.54-.704-6.53-1.578-9.64-3.479-4.65-2.851-9.03-7.061-10.31-12.523-.19-4.746-2.08-10.104-1.32-14.744.33-2.077.73-4.16 1.11-6.232.59-1.493 1.16-2.999 1.95-4.401 4.87-8.576 13.47-11.69 22.41-14.227 2.29.612 4.22 1.276 6.61.798 5.88 2.517 12.69 5.636 14.96 12.211.11.325.16.67.23 1.006.03 2.161-.41 3.912 1.51 5.408.5.391 1.11.626 1.66.939"/><path fill="url(#b)" d="M1359.45 941.094c.59-1.493 1.16-2.999 1.95-4.401 4.87-8.576 13.47-11.69 22.41-14.227 2.29.612 4.22 1.276 6.61.798 5.88 2.517 12.69 5.636 14.96 12.211.11.325.16.67.23 1.006.03 2.161-.41 3.912 1.51 5.408.5.391 1.11.626 1.66.939 2.28 5.398 2.18 11.204.08 16.66-2.92 7.535-8.64 13.882-16.07 17.173-2.14.948-4.31 1.443-6.66 1.239-2.21-.393-4.31-.064-6.52.172-3.54-.704-6.53-1.578-9.64-3.479-4.65-2.851-9.03-7.061-10.31-12.523-.19-4.746-2.08-10.104-1.32-14.744.33-2.077.73-4.16 1.11-6.232"/><path fill="#201049" d="M1383.64 929.202c3.7.275 7.58 1.074 10.83 2.917 4.8 2.716 8.25 7.149 9.51 12.528 1.31 5.574.14 11.469-2.87 16.3-3.95 6.337-9.46 9.364-16.56 10.954-4.17-.41-8.04-.97-11.72-3.115-4.73-2.757-8.17-7.16-9.47-12.502-1.39-5.701-.06-11.816 3.18-16.649 4.18-6.239 9.93-9.006 17.1-10.433"/><path fill="#fee3f0" d="M1387.91 962.419c-1.78.418-3.61.921-5.45.902-3.13-.032-5.98-1.365-8.12-3.613-2.59-2.707-3.87-6.56-3.55-10.276.28-3.335 1.79-6.582 4.4-8.726 4.08-3.365 7.94-2.934 12.87-2.369 3.63 2.18 6.08 4.332 7.16 8.584.92 3.616.29 7.656-1.79 10.777-1.42 2.132-3.25 3.579-5.52 4.721"/><path fill="#201049" d="M1385.36 941.67c2.2 2.165 4.71 4.456 5.1 7.713.31 2.555-.53 4.855-2.38 6.615-1.64 1.554-4.24 2.508-6.35 3.115-2.5-2.104-4.75-3.903-5.58-7.212-.57-2.297-.22-4.544 1.28-6.417 2.1-2.637 4.8-3.154 7.93-3.814m-206.46 60.85c18.53-4.757 171.65-45.868 178.25-44.648l2.51 4.198c1.28 5.462 5.66 9.672 10.31 12.523 3.11 1.901 6.1 2.775 9.64 3.479a3328 3328 0 0 0-6.91 77.728c-1.43 16.84-3.69 33.82-3.81 50.71-4.97.97-9.32 2.27-14.05 4.05-6.11-11.98-67-119.646-72.46-123.129-3.69-.276-8.19-.514-11.24 1.759l.81 1.714c2.99 2.39 5.1 3.627 8.91 4.332.33.061.66.11.99.165 21.15 40.819 46 79.499 68.1 119.789l-7.54 9.05c-37.66-20.85-73.94-45.02-110.26-68.12-18.81-11.96-38.42-22.75-56.85-35.26 3.73-6.62 3.81-10.97 3.6-18.34m219.75-216.758c4.46 6.635 8.73 9.171 15.7 12.564-10.63 40.552-22.21 83.177-30.54 124.14-8.94 2.537-17.54 5.651-22.41 14.227-.79 1.402-1.36 2.908-1.95 4.401-18.46-5.451-37.75-8.926-56.57-12.971-41.13-8.84-82.55-16.791-123.5-26.393-.54-5.65-2.47-10.593-5.21-15.522 3.7.523 4.96-.01 8.42-1.442 36.93-15.268 73.06-33.767 109.4-50.464 35.37-16.254 71.92-31.047 106.66-48.54m-174.61-259.506 1.82.52c3.54 8.323 8.67 14.378 16.58 18.686-3.39 55.817-12.64 111.339-15.51 167.228-5.23.913-9.25 2.578-13.84 5.234-29.85-23.95-58.59-49.222-88.04-73.646-31.49-25.925-62.04-53.017-94.88-77.268l3.85-9.727c34.39-4.151 68.77-10.905 102.97-16.496 28.91-4.727 58.47-8.242 87.05-14.531M867.567 374.447a3374 3374 0 0 0-97.614-72.584c-12.854-9.359-26.547-18.223-38.948-28.12-2.14-1.707-4.185-3.245-5.328-5.807 7.246-3.699 106.096 19.853 121.444 22.435-.199 9.883 1.168 20.582 8.243 28.175 2.62 2.812 7.225 5.307 11.172 5.191.471-.014.922-.195 1.382-.293 1.781.797 3.739 1.092 4.507 2.959 4.812 11.688-5.156 42.113 6.034 48.537l2.135-.075c1.305-14.271-.633-35.074-.591-50.327 9.674-2.412 13.748-5.608 19.298-13.847 19.731 7.621 38.915 16.755 58.325 25.16 28.75 12.449 57.744 24.522 85.924 38.222l-3.29 10.871a4630 4630 0 0 1-94.936-3.187c-19.544-.666-39.715-.391-59.139-2.568 1.783 4.004 2.504 6.672 6.512 8.809 10.781-3.314 27.027-.884 38.448-.46l69.305 2.652c12.64.481 25.88 1.751 38.47.894 1.41.807 2.23.986 3.06 2.414 3.35 5.749 6.8 9.553 12.26 13.344a5501 5501 0 0 1-38.62 121.046c-6.69-1.18-14.25-1.756-20.336 2.005-.252.156-.477.352-.716.529-2.426 1.082-3.287 1.994-5.982 1.375-24.774-32.583-47.606-67.059-71.279-100.489-8.189-11.563-22.858-28.176-28.449-40.241l-5.219 6.565c10.02 8.239 20.174 26.514 27.845 37.323l38.038 53.451c11.719 16.761 23.179 34.037 35.968 50.003-5.152 7.776-5.62 13.488-4.24 22.588-27.494 11.637-55.971 21.289-83.809 32.134-9.461 3.686-19.898 6.814-28.867 11.466l-.553-1.125c-3.938-7.851-7.381-10.835-15.701-13.584a405 405 0 0 1-12.378.243c-6.068.465-11.146 3.311-15.175 7.848-2.032 2.288-3.601 4.729-5.098 7.383-27.157-11.751-54.867-21.885-82.471-32.49-12.521-4.811-25.472-9.27-37.628-14.924.467-5.929.179-10.94-2.702-16.237-2.329-1.31-2.259-1.355-3.226-3.863-4.209-6.413-10.621-8.619-17.55-10.806 3.859-25.747 6.333-51.81 9.826-77.632 6.029-.529 11.488-1.991 16.317-5.824 6.758-5.364 8.802-13.045 9.973-21.221 49.767-12.357 100.238-23.041 150.351-33.927-.321-6.684.485-8.974 5.008-13.991"/><path fill="#fed0ed" d="M868.704 398.528c3.268.418 5.735.426 8.984-.166-5.088 18.211-6.406 44.418-9.088 64.055-5.771 42.246-13.183 84.961-16.28 127.471a405 405 0 0 1-12.378.243c2.211-.389 3.869-.713 5.827-1.839a3557 3557 0 0 1 15.702-124.576c2.431-17.802 8.321-46.759 7.456-63.969z"/><path fill="#fed0ed" d="M693.642 537.848c10.227-13.478 29.07-26.374 42.275-37.458a6687 6687 0 0 1 100.529-82.828c6.804-5.526 20.002-18.358 26.889-21.97 3.141.032 3.21.797 5.369 2.936l.223 1.219a4974 4974 0 0 0-120.171 98.767l-33.648 28.142c-6 4.955-12.67 9.682-18.24 15.055-2.329-1.31-2.259-1.355-3.226-3.863"/><path fill="#201049" d="M868.927 399.747c.865 17.21-5.025 46.167-7.456 63.969a3557 3557 0 0 0-15.702 124.576c-1.958 1.126-3.616 1.45-5.827 1.839-6.068.465-11.146 3.311-15.175 7.848-2.032 2.288-3.601 4.729-5.098 7.383-27.157-11.751-54.867-21.885-82.471-32.49-12.521-4.811-25.472-9.27-37.628-14.924.467-5.929.179-10.94-2.702-16.237 5.57-5.373 12.24-10.1 18.24-15.055l33.648-28.142a4974 4974 0 0 1 120.171-98.767"/></svg>