<svg preserveAspectRatio="xMidYMid meet" version="1.1" xmlns="http://www.w3.org/2000/svg" style="display: block;" viewBox="0 0 2048 2048" width="1024" height="1024">
<defs>
	<linearGradient id="Gradient1" gradientUnits="userSpaceOnUse" x1="1582.22" y1="840.208" x2="1570.5" y2="800.287">
		<stop class="stop0" offset="0" stop-opacity="1" stop-color="rgb(42,40,49)"/>
		<stop class="stop1" offset="1" stop-opacity="1" stop-color="rgb(62,64,69)"/>
	</linearGradient>
</defs>
<path transform="translate(0,0)" fill="rgb(254,254,254)" d="M 0 0 L 2048 0 L 2048 2048 L 0 2048 L 0 0 z"/>
<path transform="translate(0,0)" fill="rgb(59,62,73)" d="M 1792.47 81.7569 C 1798.84 89.7139 1821.8 190.132 1826.62 208.144 L 1861.25 334.041 C 1832.94 302.539 1807.28 268.525 1779.8 236.283 C 1769.81 281.108 1757.57 325.672 1746.42 370.24 C 1741.09 391.521 1735.3 412.961 1731.4 434.553 C 1745 441.71 1760.19 446.642 1774.48 452.333 A 3849.42 3849.42 0 0 0 1847 480.867 C 1845.27 501.795 1845.26 522.755 1844.21 543.713 A 3792.78 3792.78 0 0 1 1835.71 670.631 C 1815.86 896.203 1769.15 1121.2 1675.2 1328.17 A 1222.46 1222.46 0 0 1 1547.24 1545.6 C 1430.8 1705.53 1293.93 1823.25 1115.59 1909.03 C 1082.76 1924.82 1048.93 1940.09 1014.83 1952.9 C 972.413 1934.27 929.661 1915.76 888.663 1894.13 C 747.778 1819.77 628.468 1724.66 527.515 1601.34 C 507.969 1577.47 488.536 1553.13 471.209 1527.57 C 311.806 1299.23 231.625 1015.45 200.784 741.216 C 191.133 655.397 186.396 567.813 184.588 481.461 C 228.734 462.728 273.697 446.165 318.096 428.075 L 742.768 257.247 L 921.762 184.42 C 953.489 171.227 984.647 156.7 1016.83 144.586 C 1042.76 155.779 1069.04 165.867 1095.12 176.658 L 1182.11 213.056 C 1207.16 223.255 1231.78 235.343 1257.62 243.47 C 1260.87 244.493 1287.83 241.443 1294.34 241.328 C 1411.49 239.254 1520.16 274.99 1612.06 348.25 C 1634.22 365.914 1654.04 386.234 1674.42 405.874 C 1686.13 380.044 1692 350.513 1699.33 323.188 L 1726.1 227.092 C 1710.79 235.14 1694.42 241.748 1678.62 248.783 C 1657.85 258.026 1637.09 267.645 1615.73 275.423 C 1626.14 260.567 1640.21 248.291 1652.66 235.176 C 1669.82 217.092 1686.54 198.548 1703.44 180.21 C 1733.26 147.837 1760.52 112.037 1792.47 81.7569 z"/>
<path transform="translate(0,0)" fill="rgb(56,123,168)" d="M 1617.51 806.936 C 1622.52 804.839 1627.53 804.755 1632.86 805.066 C 1632.83 809.405 1635 812.196 1637.11 815.812 L 1638.11 817.571 C 1634.68 820.984 1625.32 832.761 1621.19 833.763 C 1618.34 828.115 1614.54 823.172 1611.9 817.333 L 1617.51 806.936 z"/>
<path transform="translate(0,0)" fill="rgb(56,123,168)" d="M 1699.95 831.467 C 1702.36 831.047 1701.15 830.958 1703.58 831.835 C 1707.71 838.435 1709.92 847.424 1712.66 854.745 C 1709.18 859.644 1705.48 863.325 1700.21 866.294 C 1695.75 868.81 1692.75 869.864 1687.73 868.574 C 1681.8 866.081 1676.26 862.791 1670.65 859.66 C 1674.31 850.994 1676.82 842.021 1681.26 833.668 C 1687.42 832.635 1693.74 832.156 1699.95 831.467 z"/>
<path transform="translate(0,0)" fill="rgb(56,123,168)" d="M 1723.41 687.826 C 1724.93 687.97 1725.29 687.826 1726.57 688.521 C 1734.39 692.768 1739.29 711.977 1742.25 720.124 C 1733.2 722.921 1724.73 727.028 1716.18 731.036 C 1714.95 731.32 1713.41 732.074 1712.22 731.495 C 1706.08 728.496 1701.34 716.926 1698.57 710.777 C 1705.11 700.106 1713.23 694.652 1723.41 687.826 z"/>
<path transform="translate(0,0)" fill="rgb(56,123,168)" d="M 1584.49 921.934 C 1585.7 921.95 1586.59 922.329 1587.73 922.715 C 1594.44 930.799 1595.89 941.939 1599.19 951.713 C 1594.58 953.945 1589.97 956.243 1585.27 958.271 C 1579.14 960.915 1576.46 961.855 1570.26 959.393 C 1564.14 957.991 1558.47 956.396 1552.64 954.035 C 1556.82 946.851 1559.72 939.516 1562.55 931.726 C 1569.38 927.28 1576.87 924.683 1584.49 921.934 z"/>
<path transform="translate(0,0)" fill="rgb(254,254,254)" d="M 1050.68 691.082 C 1058.78 692.048 1067.46 694.316 1074.9 697.68 C 1088.34 703.761 1096.28 713.304 1105.39 724.46 C 1107.61 727.179 1109.73 730.461 1112.72 732.354 C 1117.69 735.495 1129.08 738.894 1131.25 744.553 L 1128.65 746.759 C 1124.26 747.714 1119.51 748.562 1115.01 747.897 C 1105.28 746.456 1100.34 737.303 1095.28 729.941 C 1089.31 722.318 1082.22 715.807 1073.39 711.613 C 1049.17 700.118 1025.63 712.963 1002.65 720.737 C 1012.83 711.649 1037.87 695.733 1050.68 691.082 z"/>
<path transform="translate(0,0)" fill="rgb(254,254,254)" d="M 1294.91 1219.69 C 1311.59 1227.37 1327.54 1233.4 1345.41 1237.59 C 1345.12 1244.06 1344.79 1267.07 1340.73 1270.96 C 1335.31 1269.26 1330.06 1266.78 1325.09 1264.06 C 1314.52 1258.26 1292.65 1246.01 1289.53 1233.41 C 1288.4 1228.84 1292.66 1223.54 1294.91 1219.69 z"/>
<path transform="translate(0,0)" fill="rgb(254,254,254)" d="M 1378.81 1017.36 C 1382.35 1019.19 1391.16 1045.76 1393.16 1050.63 C 1377.81 1050.45 1362.95 1049.55 1347.75 1047.54 C 1340.77 1046.49 1334.1 1045.16 1327.29 1043.31 A 1238.26 1238.26 0 0 1 1328.75 1021.3 C 1346.02 1021.54 1361.81 1020.63 1378.81 1017.36 z"/>
<path transform="translate(0,0)" fill="rgb(254,254,254)" d="M 1696.68 731.869 C 1699.29 733.434 1701.6 735.34 1703.98 737.223 C 1699.81 765.838 1696.4 794.514 1691.75 823.068 C 1684.53 825.714 1678.45 828.584 1672.04 832.841 A 422.097 422.097 0 0 0 1660.72 861.187 C 1651.31 867.872 1642.63 875.488 1633.84 882.956 C 1633.7 882.821 1633.51 882.718 1633.4 882.551 C 1630.42 878.01 1629.93 841.949 1629.9 834.466 C 1634.45 830.004 1639.31 825.803 1644.02 821.51 C 1642.6 815.998 1640.83 810.529 1639.21 805.07 C 1644.5 796.485 1651.98 788.6 1658.24 780.65 L 1696.68 731.869 z"/>
<path transform="translate(0,0)" fill="rgb(254,254,254)" d="M 1207.09 881.102 C 1211.5 880.795 1215.95 881.005 1220.36 881.09 C 1229.72 886.676 1236.43 894.918 1244.79 901.729 C 1276.15 927.285 1301.2 944.927 1341 954.806 C 1352.37 970.415 1360.35 989.192 1371.79 1005.28 C 1357.59 1007.31 1343.48 1008.29 1329.17 1008.81 C 1329.14 1007.9 1329.12 1006.98 1329.06 1006.07 C 1328.34 995.134 1326.33 976.504 1317.4 969.141 C 1307.02 960.593 1253.47 934.101 1239.98 929.459 C 1233.62 927.27 1224.92 924.86 1218.23 925.82 C 1205.03 927.714 1196.7 940.703 1189.33 950.506 C 1173.82 972.018 1161.42 997.358 1143.66 1017.05 C 1137.06 1019.23 1129.09 1024.1 1122.32 1024.87 L 1120.29 1023.1 C 1119.71 1019.62 1120.9 1017.4 1122.83 1014.59 C 1127.54 1007.77 1134.74 1002.36 1140.31 996.189 C 1154.62 980.31 1164.16 962.841 1172.54 943.357 C 1163.71 951.248 1155.64 960.116 1147.11 968.35 C 1138.5 976.666 1129.29 984.341 1120.14 992.062 L 1112.4 961.758 A 482.881 482.881 0 0 0 1154.3 927.326 C 1169.46 913.367 1189.65 890.018 1207.09 881.102 z"/>
<path transform="translate(0,0)" fill="rgb(59,62,73)" d="M 1229.27 904.276 C 1235.18 904.127 1241.02 904.985 1246.89 905.673 C 1236.06 909.808 1224.92 913.602 1214.65 919.007 C 1210.35 921.521 1206.72 924.661 1202.93 927.861 A 234.904 234.904 0 0 1 1207.48 920.684 C 1212.91 912.539 1219.43 906.197 1229.27 904.276 z"/>
<path transform="translate(0,0)" fill="rgb(56,123,168)" d="M 1068.77 1611.66 C 1093.07 1610.27 1118.8 1610.36 1143.09 1611.8 C 1143.91 1626.64 1143.47 1641.73 1143.56 1656.6 L 1144.04 1737.54 A 567.466 567.466 0 0 1 1089.56 1768.54 L 1079.97 1773.57 C 1076.57 1775.82 1072.58 1777.53 1068.96 1779.4 L 1068.77 1611.66 z"/>
<path transform="translate(0,0)" fill="rgb(254,254,254)" d="M 1079.97 1773.57 C 1079.99 1754.18 1079.38 1626.71 1082.37 1621.46 C 1084.43 1621.68 1084.54 1622.01 1086.15 1623.18 C 1089.35 1630.63 1088.42 1751.77 1089.56 1768.54 L 1079.97 1773.57 z"/>
<path transform="translate(0,0)" fill="rgb(254,254,254)" d="M 1217.5 939.214 C 1221.75 938.886 1225.75 938.692 1229.93 939.738 C 1245.64 943.675 1260.15 953.225 1274.49 960.451 C 1285.98 966.237 1297.81 971.329 1308.98 977.708 C 1316.49 995.351 1317.73 1001.41 1313.31 1020.38 C 1310.67 1031.7 1316.28 1050.02 1322.44 1059.83 C 1328.74 1064.31 1351.27 1065.77 1359.83 1067.57 C 1354.84 1086.53 1349.5 1105.41 1345.79 1124.67 C 1338.8 1117.58 1332.61 1109.72 1326.28 1102.04 C 1309.88 1083.01 1293.96 1063.91 1280.18 1042.86 C 1274.24 1033.78 1273.03 1021.99 1264.5 1014.81 C 1252.41 1004.64 1181.01 1014.24 1162.82 1016.36 C 1173.54 996.453 1199.63 951.202 1217.5 939.214 z"/>
<path transform="translate(0,0)" fill="rgb(254,254,254)" d="M 1722.16 467.41 C 1751.84 479.451 1781.72 491.426 1810.86 504.738 C 1808.17 527.18 1804.92 665.213 1800.35 674.319 L 1798.8 673.56 C 1782.01 642.527 1763.65 612.592 1740.57 585.8 C 1741.03 575.277 1741.14 564.711 1741.41 554.179 C 1729.82 549.016 1717.71 544.727 1705.88 540.12 C 1710.45 515.677 1716.39 491.59 1722.16 467.41 z"/>
<path transform="translate(0,0)" fill="rgb(56,123,168)" d="M 1405.3 1514.22 L 1405.07 1384.38 C 1405.09 1364.02 1402.54 1318.15 1407.96 1301.03 C 1413.79 1296.82 1466.89 1299.3 1476.57 1299.44 C 1477.82 1337.81 1477.44 1376.83 1477.12 1415.24 C 1462.6 1440.34 1444.69 1465.45 1426.11 1487.71 C 1422.91 1492.56 1419.31 1496.67 1415.4 1500.94 C 1411.53 1504.16 1408.78 1510.29 1405.3 1514.22 z"/>
<path transform="translate(0,0)" fill="rgb(254,254,254)" d="M 1415.4 1500.94 C 1414.26 1480.61 1415.86 1319.94 1419.7 1309.02 L 1420.91 1308.82 C 1421.24 1309.33 1421.7 1309.77 1421.91 1310.34 C 1423.09 1313.48 1425.19 1467.05 1426.11 1487.71 C 1422.91 1492.56 1419.31 1496.67 1415.4 1500.94 z"/>
<path transform="translate(0,0)" fill="rgb(254,254,254)" d="M 1663.92 867.686 C 1669.21 869.295 1673.57 871.69 1678.35 874.419 C 1670.08 917.097 1662.07 959.525 1651.54 1001.73 C 1639.25 1050.98 1623.86 1098.95 1607.54 1146.97 C 1607.25 1137.51 1607.38 1128.01 1607.34 1118.54 C 1607.52 1105.63 1611.17 1069.27 1602.61 1059.74 C 1594.53 1056.12 1584.58 1057.1 1575.87 1057.09 C 1576.25 1027.79 1577.16 997.037 1580.23 967.921 C 1589.75 963.291 1600.09 959.984 1610.01 956.309 C 1605.45 946.231 1602.71 936.253 1600.33 925.462 C 1618.93 904.07 1642.23 885.95 1663.92 867.686 z"/>
<path transform="translate(0,0)" fill="rgb(56,123,168)" d="M 1181.12 1508.14 C 1205.01 1506.57 1230.06 1506.52 1253.98 1507.77 C 1255.63 1557.64 1254.7 1608.01 1254.12 1657.9 C 1239.36 1673.35 1219.87 1686.81 1202.26 1698.88 L 1191.86 1706.64 C 1188.66 1709.34 1185.37 1711.15 1181.63 1713.03 C 1180.56 1686.54 1181.11 1659.83 1181.07 1633.31 L 1181.12 1508.14 z"/>
<path transform="translate(0,0)" fill="rgb(254,254,254)" d="M 1191.86 1706.64 C 1191.18 1685.42 1191.71 1664.01 1191.69 1642.76 L 1191.66 1530.99 C 1191.68 1526.92 1192.17 1518.82 1195.16 1515.92 C 1200.92 1528.56 1198.79 1670.15 1202.05 1697.2 L 1202.26 1698.88 L 1191.86 1706.64 z"/>
<path transform="translate(0,0)" fill="rgb(56,123,168)" d="M 1522.1 1339.48 A 9086.71 9086.71 0 0 1 1522.99 1169.99 C 1523.27 1140.56 1521.79 1110.2 1523.97 1080.87 C 1524.26 1076.84 1524.74 1072.84 1526.4 1069.13 C 1532.42 1065.1 1585.69 1067.94 1596.38 1068.12 C 1596.84 1090.86 1596.12 1113.75 1596.08 1136.5 C 1596.06 1148.05 1597.6 1161.53 1595.72 1172.78 C 1594.02 1182.91 1589.66 1192.81 1586.02 1202.39 C 1573.96 1234.22 1559.27 1264.65 1544.64 1295.37 C 1541.71 1302.96 1537.88 1310.49 1533.61 1317.42 C 1530.43 1325.21 1526.86 1332.53 1522.1 1339.48 z"/>
<path transform="translate(0,0)" fill="rgb(254,254,254)" d="M 1533.61 1317.42 C 1530.67 1298.32 1533.42 1255.98 1533.66 1234.89 C 1534.24 1183.29 1533.55 1131.5 1535.33 1079.94 C 1537.12 1078.68 1536.45 1078.67 1538.93 1079.04 C 1540.37 1080.61 1540.72 1082.2 1540.95 1084.27 C 1542.24 1095.87 1541.23 1112.85 1541.51 1125.26 A 3934.35 3934.35 0 0 1 1542.92 1237.36 C 1542.96 1253.16 1540.88 1280.23 1544.39 1294.43 C 1544.47 1294.75 1544.56 1295.06 1544.64 1295.37 C 1541.71 1302.96 1537.88 1310.49 1533.61 1317.42 z"/>
<path transform="translate(0,0)" fill="rgb(56,123,168)" d="M 1289.2 1390.3 C 1313.29 1388.52 1338.7 1389.57 1362.88 1390.23 C 1363.84 1410.57 1363.11 1431.26 1363.27 1451.65 A 6637.75 6637.75 0 0 1 1363.88 1557.24 C 1350.42 1576.42 1329.04 1597.48 1310.9 1612.39 C 1307.61 1615.75 1304.27 1618.84 1300.63 1621.83 C 1296.67 1626.45 1291.13 1630.48 1286.51 1634.47 C 1287.63 1581.27 1287.84 1527.81 1288.02 1474.6 C 1288.11 1447.98 1286.29 1416.38 1289.2 1390.3 z"/>
<path transform="translate(0,0)" fill="rgb(254,254,254)" d="M 1304.59 1395.31 C 1309.44 1417.18 1307.51 1442.57 1308.02 1464.98 L 1310.9 1612.39 C 1307.61 1615.75 1304.27 1618.84 1300.63 1621.83 A 5735.81 5735.81 0 0 1 1300.79 1482.37 C 1301.01 1454.18 1298.87 1422.93 1304.59 1395.31 z"/>
<path transform="translate(0,0)" fill="rgb(254,254,254)" d="M 1298.18 243.42 C 1319.04 241.09 1343.9 244.147 1364.72 246.772 C 1460.47 258.844 1549.99 302.715 1621.82 366.642 C 1638.69 381.656 1655.08 397.235 1668.98 415.095 A 2611.83 2611.83 0 0 0 1645.25 403.406 C 1614.66 388.887 1582.62 377.489 1551.33 364.587 L 1367.41 288.939 C 1343.82 279.376 1320.09 270.332 1296.61 260.489 C 1285.41 255.794 1273.79 251.53 1263.26 245.436 L 1298.18 243.42 z"/>
<path transform="translate(0,0)" fill="rgb(254,254,254)" d="M 1740.18 594.71 C 1744.84 598.936 1748.77 606.045 1752.37 611.269 C 1762.06 625.32 1772.04 639.969 1780.39 654.845 C 1786.8 666.28 1791.83 678.589 1799.32 689.38 C 1796.22 708.072 1795.38 727.392 1793.15 746.241 C 1785.71 809.137 1778.47 871.769 1765.16 933.757 C 1761.83 949.275 1758.93 965.323 1754.31 980.495 A 1267.89 1267.89 0 0 0 1749 965.729 C 1736.54 933.468 1724.76 899.864 1708.94 869.096 C 1715.53 866.885 1721.99 864.513 1728.44 861.906 C 1721.69 851.374 1716.98 838.997 1711.83 827.578 C 1718.75 799.708 1717.7 769.8 1725.7 742.284 C 1733.18 737.632 1737.48 729.901 1746.21 726.802 C 1748.58 725.962 1750.91 725.029 1753.26 724.134 C 1750.06 714.794 1745.76 694.224 1737.72 688.458 C 1737.45 688.265 1737.17 688.092 1736.89 687.909 C 1733.42 678.567 1739.41 608.824 1740.18 594.71 z"/>
<path transform="translate(0,0)" fill="rgb(254,254,254)" d="M 1698.58 567.405 C 1704.34 570.165 1710.29 572.471 1716.23 574.841 C 1716.24 610.183 1714.4 645.552 1713.84 680.895 C 1702.73 689.515 1695.76 699.514 1688.31 711.238 L 1694.46 720.765 L 1651.91 777.495 C 1646.51 784.671 1640.57 791.536 1635.39 798.851 C 1631 800.055 1616.14 798.883 1614.32 801.679 C 1611.84 806.013 1609.33 810.3 1607.2 814.818 C 1582.88 814.487 1558.28 809.521 1534.13 809.972 C 1536.65 795.656 1540.61 781.617 1544.03 767.496 L 1559.71 700.553 C 1596.03 690.126 1635.11 685.051 1672.32 678.548 C 1686.03 643.362 1687.69 603.6 1698.58 567.405 z"/>
<path transform="translate(0,0)" fill="rgb(254,254,254)" d="M 859.799 491.383 C 877.592 489.044 895.466 491.708 912.738 495.849 C 918.777 506.035 923.383 516.124 927.26 527.315 C 875.322 536.264 823.657 552.928 789.911 596.011 C 750.406 646.447 741.768 713.222 738.383 775.123 C 736.759 804.82 736.237 834.456 738.741 864.126 C 741.075 891.771 746.779 919.27 750.012 946.855 C 722.237 993.2 670.695 1026.13 619.104 1039.36 C 628.976 1032.3 639.469 1026.14 649.251 1018.91 C 681.508 995.098 719.433 955.051 725.58 914.174 C 685.22 943.394 620.973 967.025 570.561 960.378 A 122.12 122.12 0 0 0 575.985 957.984 C 625.742 934.75 675.011 899.272 700.991 849.69 C 705.231 841.599 708.255 832.955 711.371 824.388 C 684.704 840.421 659.336 852.514 628.508 858.446 C 606.571 862.243 584.842 861.595 562.733 860.44 C 572.098 857.149 581.643 854.39 591.009 851.106 C 639.051 834.264 682.583 808.648 705.437 761.169 C 695.236 766.381 685.19 771.911 674.443 775.948 C 640.467 788.712 600.582 790.219 565.097 784.086 C 570.93 782.356 577.052 781.282 582.969 779.837 C 639.114 766.129 702.203 727.049 732.645 677.176 C 693.92 696.075 638.856 723.822 595.345 711.134 C 651.11 697.352 710.2 670.495 748.655 626.396 C 713.81 634.308 688.502 637.258 654.169 625.504 A 361.762 361.762 0 0 0 727.433 596.498 C 752.915 582.714 776.936 557.963 806.472 554.311 C 791.764 545.079 777.833 537.465 761.134 532.497 C 771.657 524.199 785.736 518.508 798.23 513.903 C 803.961 515.153 809.166 517.705 814.546 519.969 C 825.403 524.538 834.55 526.968 846.306 528.095 C 837.42 517.507 826.593 509.822 814.707 502.925 C 829.107 496.924 844.39 493.488 859.799 491.383 z"/>
<path transform="translate(0,0)" fill="rgb(59,62,73)" d="M 806.209 528.281 C 813.821 528.2 822.877 528.689 829.728 532.253 C 834.365 534.666 836.746 537.916 838.364 542.793 C 829.102 541.954 813.186 534.372 806.209 528.281 z"/>
<path transform="translate(0,0)" fill="rgb(59,62,73)" d="M 704.213 800.735 L 705.745 801.618 C 705.649 802.566 705.662 803.033 705.216 803.995 C 698.788 817.854 684.831 827.122 671.519 833.197 L 670.227 832.599 C 672.402 825.598 696.926 805.366 704.213 800.735 z"/>
<path transform="translate(0,0)" fill="rgb(59,62,73)" d="M 779.594 584.804 L 781.469 584.894 L 781.607 586.117 C 768.865 600.782 751.796 608.912 733.337 613.857 L 732.12 613.692 C 734.181 609.444 773.852 587.24 779.594 584.804 z"/>
<path transform="translate(0,0)" fill="rgb(59,62,73)" d="M 901.477 513.133 C 905.279 512.901 908.692 512.794 912.465 513.362 C 908.992 515.81 873.304 530.871 868.318 532.394 L 853.53 535.911 C 868.699 524.664 883.018 517.421 901.477 513.133 z"/>
<path transform="translate(0,0)" fill="rgb(59,62,73)" d="M 718.085 725.715 L 719.203 726.162 L 719.663 727.719 C 717.16 733.936 714.007 740.274 709.557 745.333 C 697.966 758.505 679.613 766.066 662.399 767.487 L 661.488 767.443 C 663.042 764.395 669.155 761.666 672.13 759.757 C 688.226 749.429 701.576 735.426 718.085 725.715 z"/>
<path transform="translate(0,0)" fill="rgb(59,62,73)" d="M 721.4 858.872 C 722.083 863.808 719.341 871.312 717.673 875.959 C 711.018 894.495 692.278 909.155 674.917 917.058 L 674.772 915.98 C 690.695 896.674 703.127 876.386 721.4 858.872 z"/>
<path transform="translate(0,0)" fill="rgb(254,254,254)" d="M 1279.09 1247.97 C 1299.59 1266.17 1316.21 1280.35 1342.77 1288.92 C 1303.16 1315.5 1261.6 1339.15 1220.65 1363.57 C 1204.09 1373.45 1184.43 1382.49 1169.53 1394.6 C 1157.81 1404.12 1148.23 1419.39 1138.97 1431.32 C 1116.75 1459.94 1095.3 1489.06 1073.31 1517.82 C 1059.32 1536.11 1044.48 1553.76 1030.32 1571.92 L 906.754 1730.51 L 896.952 1743 C 881.709 1734.45 866.49 1725.2 852.009 1715.42 A 15955.6 15955.6 0 0 0 1028.62 1463.79 C 1055.96 1423.97 1085.86 1385.26 1111.01 1344.02 C 1167.62 1313.06 1222.73 1279.39 1279.09 1247.97 z"/>
<path transform="translate(0,0)" fill="rgb(254,254,254)" d="M 1786.64 103.735 C 1788.85 105.79 1789.47 109.314 1790.27 112.158 C 1800.88 149.631 1809.51 187.72 1819.45 225.383 C 1824.95 246.212 1831.82 266.634 1837.24 287.465 C 1816.03 261.938 1794.62 236.91 1774.5 210.488 C 1771.5 220.702 1769.69 231.541 1767.16 241.916 L 1748.53 317.577 C 1731.42 386.115 1713.33 454.579 1697.86 523.512 L 1678.45 610.1 C 1674.23 629.433 1670.98 649.804 1664.42 668.483 C 1627.09 676.702 1589.12 683.35 1551.57 690.595 C 1534.18 769.299 1513.54 847.075 1493.49 925.119 L 1449.89 1100.74 C 1437.79 1149.77 1423.95 1198.92 1414.3 1248.5 A 1211.58 1211.58 0 0 1 1357.28 1281.86 C 1357.22 1274.77 1357.46 1267.78 1357.89 1260.7 C 1357.95 1247.16 1361.85 1233.23 1360.41 1219.82 C 1359.17 1208.18 1353.93 1197.04 1352.32 1185.34 C 1351.13 1176.72 1353.74 1167.85 1353.12 1159.18 C 1352.7 1153.32 1350.33 1147.11 1350.73 1141.28 C 1351.53 1129.54 1357.17 1116.67 1360.39 1105.32 C 1363.89 1093.02 1366.78 1080.59 1369.64 1068.13 C 1379.21 1069.33 1392.97 1070.9 1402.27 1067.88 C 1405.74 1066.76 1409.04 1064.69 1410.43 1061.14 C 1413.93 1052.2 1396.87 1015.9 1392.67 1005.01 L 1458.1 748.764 A 5410.66 5410.66 0 0 0 1473.55 686.732 C 1477.4 670.395 1480.52 653.643 1485.72 637.674 C 1500.01 634.151 1515.09 632.5 1529.6 629.867 C 1564.59 623.517 1599.95 617.365 1634.61 609.439 C 1645.09 570.314 1653.72 530.679 1663.89 491.462 C 1672.47 458.365 1682.21 425.519 1691.19 392.525 A 7867.71 7867.71 0 0 1 1742.63 209.103 C 1728.71 212.76 1715.94 220.671 1702.9 226.62 C 1688.42 233.231 1673.62 239.077 1659.15 245.765 C 1672.88 228.374 1688.87 212.405 1703.74 195.966 L 1786.64 103.735 z"/>
<path transform="translate(0,0)" fill="rgb(254,254,254)" d="M 918.806 482.739 C 930.653 486.662 943.031 496.134 952.615 504.031 C 961.251 511.146 980.805 533.11 991.622 533.75 C 994.379 533.913 994.748 533.436 996.741 531.76 C 995.802 526.384 976.438 509.703 971.743 504.119 L 970.744 502.921 L 978.488 494.522 C 1026.53 520.092 1044.59 537.927 1102.71 537.794 A 99.5398 99.5398 0 0 1 1098.08 540.063 C 1084.51 546.329 1064.43 551.09 1049.8 546.53 C 1043.41 544.536 1037.53 540.84 1031.16 538.636 C 1020.1 534.813 1012.08 537.77 1002.12 542.481 C 1007.89 543.078 1013.91 543.446 1019.43 545.356 C 1057.11 558.402 1080.36 603.8 1105.17 632.622 C 1118.16 647.712 1133.62 660.094 1149.07 672.513 C 1151.22 687.777 1155.91 701.137 1160.63 715.741 C 1156.5 722.703 1151.47 727.561 1145.39 732.737 C 1138.28 730.678 1130.74 728.994 1124.32 725.187 C 1104.64 713.515 1100.29 697.28 1073.79 687.273 C 1060.73 682.342 1040.23 679.347 1027.69 686.367 C 1019.73 690.821 1012.69 697.071 1004.24 700.628 C 991.061 706.173 975.424 704.321 962.564 698.697 C 935.58 686.895 922.592 663.788 912.325 637.528 A 90.3204 90.3204 0 0 0 910.931 641.565 C 902.363 668.759 920.091 681.888 928.775 704.263 C 931.195 710.498 931.957 717.585 933.476 724.1 C 935.613 733.26 939.389 741.043 943.628 749.413 C 971.858 801.5 1039 846.604 1059.44 898.231 C 1038.17 897.105 1017.32 892.704 995.91 892.102 C 905.569 889.559 838.282 920.757 765.434 970.073 C 760.676 941.605 759.284 912.84 758.028 884.058 C 754.63 806.22 754.606 697.187 795.426 628.125 C 828.149 572.762 872.128 555.005 931.285 539.951 C 935.15 543.974 938.964 548.474 944.547 549.954 L 945.913 549.054 C 948.399 537.683 924.911 492.952 918.806 482.739 z"/>
<path transform="translate(0,0)" fill="rgb(59,62,73)" d="M 1115.27 674.19 C 1120.95 673.736 1127.38 673.036 1133.02 673.782 C 1137.22 674.337 1141.28 675.927 1143.78 679.501 C 1147.9 685.384 1147.03 694.153 1145.72 700.786 L 1142.86 696.219 C 1142.51 695.782 1142.17 695.341 1141.81 694.909 C 1130.3 680.98 1127.48 687.209 1113.23 685.586 C 1109.93 685.21 1107.61 684.723 1105.58 682.127 C 1105.7 680.883 1105.55 680.986 1106.23 679.893 C 1108.52 676.25 1111.33 675.223 1115.27 674.19 z"/>
<path transform="translate(0,0)" fill="rgb(59,62,73)" d="M 1001.19 592.209 C 1002.68 592.252 1002.66 592.216 1003.97 592.365 C 1016.21 593.757 1052.02 609.079 1059.87 619.264 L 1059.29 620.672 L 1056.79 621.139 C 1047.11 616.863 1045.03 625.324 1035.6 622.573 C 1024.57 619.357 1022.99 607.57 1014.95 601.229 C 1010.55 597.754 1004.05 597.322 1001.19 592.209 z"/>
<path transform="translate(0,0)" fill="rgb(59,62,73)" d="M 911.373 613.696 C 911.499 613.819 911.659 613.916 911.751 614.067 C 912.779 615.753 912.659 615.189 912.119 616.744 C 904.917 637.473 897.25 658.177 896.812 680.418 C 895.705 736.711 964.438 804.918 1001.07 843.756 C 1013.13 856.542 1024.44 869.974 1036.61 882.676 C 1009.01 871.191 981.859 859.112 955.457 845.063 C 925.272 828.162 897.253 810.968 870.273 789.251 C 898.619 799.077 925.616 811.081 952.758 823.85 C 925.955 791.657 901.603 769.352 892.681 725.617 C 890.711 715.965 889.513 705.796 889.889 695.935 C 890.64 676.248 900.671 629.951 911.373 613.696 z"/>
<path transform="translate(0,0)" fill="rgb(254,254,254)" d="M 1614.32 801.679 L 1617.51 806.936 L 1611.9 817.333 C 1614.54 823.172 1618.34 828.115 1621.19 833.763 L 1621.08 835.5 C 1624.37 839.088 1626.27 883.156 1626.44 890.262 C 1619.25 896.644 1604.85 911.823 1597.1 915.545 C 1595.66 914.229 1594.51 912.881 1593.32 911.334 C 1585.09 911.135 1566.68 920.295 1558.61 923.889 C 1552.76 936.425 1545.96 948.114 1539.37 960.26 C 1543.24 961.263 1547.26 961.332 1551.14 962.292 C 1558.19 964.035 1565.34 968.634 1571.74 972.071 A 2496.42 2496.42 0 0 1 1567.11 1057.11 C 1555.24 1056.88 1526.03 1052.56 1517.84 1060.75 C 1515.35 1063.23 1515.1 1068.66 1514.83 1071.98 C 1512.94 1094.8 1514.41 1118.63 1514.21 1141.57 A 8434.24 8434.24 0 0 0 1513.25 1281.6 C 1513.3 1298.41 1515.33 1340.67 1512.2 1354.99 C 1509.59 1366.96 1494.7 1388.31 1488.07 1399.72 L 1487.89 1337.01 C 1487.95 1325.11 1488.9 1312.68 1487.99 1300.85 C 1487.79 1298.24 1487.35 1293.23 1485.38 1291.31 C 1477.51 1283.65 1425.97 1285.18 1413.31 1286.18 C 1408.31 1286.58 1403.19 1286.89 1399.79 1291.02 C 1397.89 1293.34 1397.33 1296.37 1397.04 1299.26 C 1394.9 1320.61 1396.58 1343.58 1396.58 1365.13 C 1396.6 1417.6 1397.9 1470.39 1396.18 1522.83 C 1389.71 1531.51 1382.74 1540.04 1374.82 1547.46 C 1373.6 1509.78 1374.24 1471.93 1374.19 1434.23 C 1374.17 1420.34 1375.87 1402.77 1373.94 1389.35 C 1373.55 1386.6 1372.02 1383.82 1370 1381.94 C 1367.07 1379.21 1362.98 1377.91 1359.09 1377.32 C 1346.72 1375.44 1333.04 1377.31 1320.51 1377.29 C 1311.91 1377.28 1303 1376.27 1294.45 1377.02 C 1291.03 1377.32 1285.22 1377.8 1282.93 1380.73 C 1280.09 1384.36 1279.47 1390.73 1279.14 1395.16 C 1278.41 1405.01 1279.01 1415.27 1279.06 1425.16 L 1279.3 1481.12 L 1279.15 1639.65 L 1266 1650.97 L 1266.02 1559.13 C 1265.97 1544.1 1266.95 1528.28 1265.4 1513.39 C 1264.95 1509.06 1264.39 1501.54 1260.8 1498.63 C 1258.66 1496.89 1255.49 1496.21 1252.82 1495.9 C 1247.79 1495.33 1185.52 1496.16 1181.65 1497.19 C 1177.98 1498.15 1175.36 1500.22 1173.6 1503.58 C 1171.94 1506.76 1171.88 1510.44 1171.74 1513.96 C 1170.8 1537.46 1172.14 1561.38 1172.19 1584.93 L 1172.13 1719.61 C 1166.53 1723.32 1160.94 1727.43 1155.03 1730.6 L 1154.57 1659.11 C 1154.48 1645.99 1155.12 1632.32 1153.77 1619.29 C 1153.33 1615.04 1152.62 1607.96 1149.62 1604.67 C 1147.16 1601.97 1142.94 1600.8 1139.46 1600.25 C 1131.35 1598.98 1122.34 1599.97 1114.1 1599.97 C 1101.87 1599.98 1089.45 1599.23 1077.26 1600 C 1072.18 1600.32 1068.09 1601.14 1063.6 1603.53 C 1060.84 1607.04 1060.31 1613.09 1059.96 1617.47 C 1058.5 1635.23 1059.87 1653.99 1059.92 1671.88 L 1060.06 1783.6 C 1044.6 1790.54 1028.46 1796.94 1013.5 1804.88 C 998.578 1796.37 982.467 1789.71 967.061 1782.1 A 630.61 630.61 0 0 1 899.573 1744.18 C 924.859 1717.68 947.083 1689.27 970.291 1661.03 A 10325.5 10325.5 0 0 0 1100.85 1497.15 L 1149.61 1433.85 C 1157.48 1423.69 1164.8 1412.11 1174.52 1403.61 C 1189.27 1390.7 1225.89 1372.23 1244.65 1360.9 L 1378.49 1281.47 C 1393.35 1272.74 1407.61 1262.88 1422.74 1254.64 C 1423.68 1243.85 1426.83 1233.02 1429.26 1222.47 L 1441.82 1168.75 C 1448.16 1142.19 1455.48 1115.91 1462.2 1089.45 L 1502.98 927.257 C 1507.95 907.611 1513.36 888.064 1518.59 868.485 C 1521.27 858.464 1524.76 848.031 1526.32 837.803 L 1525.55 837.064 C 1525.51 830.666 1529.86 814.815 1534.13 809.972 C 1558.28 809.521 1582.88 814.487 1607.2 814.818 C 1609.33 810.3 1611.84 806.013 1614.32 801.679 z"/>
<path transform="translate(0,0)" fill="url(#Gradient1)" d="M 1614.32 801.679 L 1617.51 806.936 L 1611.9 817.333 C 1614.54 823.172 1618.34 828.115 1621.19 833.763 L 1621.08 835.5 C 1620.81 835.382 1620.53 835.267 1620.26 835.146 C 1612.34 831.587 1611.6 825.582 1606.59 822.484 C 1605.99 822.11 1539.23 817.209 1532.16 816.722 C 1530.64 823.218 1529.52 832.013 1526.32 837.803 L 1525.55 837.064 C 1525.51 830.666 1529.86 814.815 1534.13 809.972 C 1558.28 809.521 1582.88 814.487 1607.2 814.818 C 1609.33 810.3 1611.84 806.013 1614.32 801.679 z"/>
<path transform="translate(0,0)" fill="rgb(254,254,254)" d="M 1228.19 1070.21 C 1238.67 1072.18 1247.11 1080.53 1254.09 1088.12 C 1270.82 1106.33 1299.85 1141.95 1300.83 1166.72 C 1301.16 1174.99 1298.12 1183.83 1294.18 1191.02 C 1284.99 1207.8 1277.47 1215.91 1276.63 1235.96 C 1258.67 1248.92 1238.56 1259.62 1219.39 1270.73 L 1135.99 1319.54 C 1126.28 1325.28 1108.89 1331.89 1101.94 1340.68 C 1086.97 1359.59 1074.31 1380.7 1060.72 1400.63 L 985.842 1509.7 C 964.502 1540.66 943.11 1571.76 921.321 1602.41 C 895.79 1638.32 869.41 1674.4 846.342 1711.94 L 821.503 1693.76 C 791.24 1671.75 760.314 1647 734.206 1620.18 C 747.91 1606.08 761.14 1591 771.684 1574.37 C 807.277 1518.21 814.877 1459.93 800.32 1395.46 A 579.239 579.239 0 0 0 845.421 1380.86 C 935.269 1348.03 1022.3 1281.6 1075.26 1201.61 C 1086.8 1184.18 1095.76 1166.05 1104.56 1147.14 C 1115.32 1142.11 1125.22 1133.63 1134.74 1126.58 C 1158.3 1109.12 1199.57 1076.6 1228.19 1070.21 z"/>
<path transform="translate(0,0)" fill="rgb(254,254,254)" d="M 980.205 921.578 C 1011.31 918.925 1042.63 922.432 1073.45 926.375 C 1086.77 962.566 1096.17 994.016 1103.35 1032 L 1092.35 1039.36 C 1080.89 1015.24 1058.04 997.422 1036.91 982.194 C 1059.42 1004.07 1072.71 1031.42 1090.84 1056.5 C 1099.58 1048.18 1110.62 1038.46 1122.4 1035.29 C 1131.56 1032.83 1141.58 1032.07 1150.99 1030.85 C 1170.37 1028.35 1189.62 1026.22 1209.07 1024.49 C 1220.58 1023.47 1232.67 1021.57 1244.18 1021.87 C 1247.99 1021.96 1252.54 1022.12 1255.79 1024.35 C 1262.61 1029.01 1266.66 1044.93 1271 1052.07 C 1276.01 1060.3 1282.42 1068.1 1288.2 1075.82 C 1300.1 1091.73 1331.35 1122.9 1336.73 1139.02 C 1342.07 1154.99 1337.98 1170.74 1339.32 1186.96 C 1340.27 1198.47 1344.3 1210.53 1346.69 1221.91 C 1329.81 1220.7 1316.08 1214.97 1301.15 1207.35 A 234.677 234.677 0 0 0 1307.07 1194.85 C 1314.55 1177.75 1315.51 1161.83 1308.47 1144.3 C 1296.39 1114.23 1262.77 1070.79 1232.18 1057.89 C 1221.7 1059.38 1212.17 1061.68 1202.46 1066.01 C 1182.92 1074.74 1165.02 1088.55 1147.63 1100.93 C 1128.64 1114.45 1109.33 1128.14 1089.27 1140.05 C 1076.91 1147.39 1064.22 1153.04 1049.63 1148.98 C 1017.85 1140.15 983.693 1114.46 963.116 1089.37 C 955.999 1080.7 950.512 1071.4 945.164 1061.59 C 947.189 1074.66 951.718 1086.32 958.921 1097.45 C 976.927 1125.28 1006.9 1148.65 1039.45 1155.74 C 1033.65 1173.63 1025.19 1190.31 1015.26 1206.24 C 962.111 1291.44 880.61 1346.23 783.332 1368.88 C 754.533 1338.06 723.87 1312.91 685.462 1295.1 A 494.799 494.799 0 0 1 720.33 1327.94 C 755.563 1366.27 784.126 1413.7 785.474 1467.01 C 786.93 1524.55 755.825 1567.47 718.018 1607.32 A 1084.01 1084.01 0 0 1 674.729 1560.73 C 675.636 1514.79 681.638 1472.22 700.381 1429.86 L 699.388 1430.44 C 677.27 1443.55 661.716 1463.19 655.326 1488.17 C 637.293 1466.9 621.879 1443.46 611.501 1417.48 C 593.381 1372.11 603.744 1343.42 621.773 1301.07 A 90.2078 90.2078 0 0 0 619.324 1302.75 C 587.823 1324.99 568.822 1359.99 562.638 1397.37 C 578.614 1425.93 631.702 1501.72 660.244 1516.78 C 660.093 1526.6 660.881 1536.49 661.376 1546.31 C 646.023 1530.75 632.813 1513.83 619.244 1496.73 C 607.257 1481.63 594.826 1466.73 583.629 1451.03 C 563.891 1423.35 546.151 1393.96 527.746 1365.35 C 550.668 1322.9 583.593 1286.4 617.606 1252.61 C 697.261 1173.5 745.905 1119.59 765.448 1004.47 C 777.252 994.687 790.846 986.643 803.873 978.613 C 863.854 941.644 910.471 928.892 980.205 921.578 z"/>
<path transform="translate(0,0)" fill="rgb(59,62,73)" d="M 1218.74 1039.18 L 1219.32 1039.5 L 1218.7 1040.93 C 1193.27 1060.71 1138.78 1096.16 1109.08 1104.2 C 1097.54 1107.33 1086.25 1107.68 1074.36 1107.7 L 1073.74 1106.61 C 1088.25 1100.49 1103.01 1095.47 1117.17 1088.48 C 1151.11 1071.76 1183.04 1052.17 1218.74 1039.18 z"/>
<path transform="translate(0,0)" fill="rgb(59,62,73)" d="M 818.782 1101.73 A 389.692 389.692 0 0 0 830.114 1111.24 C 882.736 1153.53 943.304 1168.04 1009.8 1160.69 C 1006.52 1181.41 998.39 1198.03 986.526 1215.23 C 948 1271.07 888.03 1319.56 820.227 1331.87 C 798.686 1335.03 775.872 1334.39 756.243 1324.23 C 766.966 1322.92 777.789 1321.94 788.417 1319.99 C 837.137 1311.07 886.54 1279.96 919.805 1243.86 C 930.424 1232.34 939.319 1219.52 948.244 1206.68 C 931.345 1207.24 918.032 1204.24 902.796 1196.79 C 864.339 1177.97 832.886 1142.22 818.782 1101.73 z"/>
<path transform="translate(0,0)" fill="rgb(254,254,254)" d="M 1015.08 177.838 C 1029.21 181.863 1043.33 188.817 1056.98 194.36 C 1091.88 208.524 1126.31 223.864 1161.3 237.746 L 1516.79 382.23 C 1566.68 402.525 1616.1 424.657 1666.66 443.206 A 1430.72 1430.72 0 0 0 1646.16 519.958 C 1629.55 512.431 1612.25 505.918 1595.4 498.889 A 14239.3 14239.3 0 0 0 1417.94 427.566 A 42454.4 42454.4 0 0 0 1015.96 266.339 C 983.255 280.871 949.922 293.51 916.755 306.888 L 782.623 361.357 L 486.328 480.235 L 369.197 526.958 C 349.901 534.534 314.632 545.688 299.014 556.286 C 298.793 571.765 300.294 587.415 301.148 602.88 A 1968.25 1968.25 0 0 0 307.472 692.581 C 325.67 887.318 368.524 1080.07 447.678 1259.42 C 465.296 1299.34 484.125 1339.46 506.229 1377.11 A 1115.45 1115.45 0 0 0 782.38 1695.23 C 820.816 1724.91 862.753 1751.95 904.666 1776.39 C 929.141 1790.66 954.508 1803.21 980.14 1815.26 C 991.353 1820.53 1003.3 1827.01 1015.31 1830.15 C 1039.35 1821.24 1063.06 1809 1086.06 1797.69 C 1161.21 1760.73 1229.24 1714.29 1292.51 1659.55 C 1386.46 1578.28 1454.76 1495.13 1520.12 1389.54 C 1535.73 1364.28 1548.99 1338.1 1562.28 1311.57 C 1622.84 1190.62 1662.83 1059.91 1691.24 927.932 C 1694.87 911.084 1697.4 894.04 1700.76 877.143 C 1706.92 888.544 1711.48 901.456 1716.43 913.44 L 1750.52 998.281 C 1731.87 1073.63 1711.33 1149.89 1683.14 1222.31 C 1606.08 1420.25 1499.02 1589.53 1335.86 1727.69 C 1301.45 1756.83 1265.45 1784.85 1227.44 1809.15 C 1158.68 1853.11 1089.71 1884.96 1015.28 1917.63 C 1000.75 1910.26 985.427 1904.22 970.703 1897.19 C 937.286 1881.25 903.806 1864.22 871.315 1846.47 C 778.617 1795.8 693.679 1727.76 619.33 1653.06 C 378.476 1411.05 271.356 1064.57 235.841 732.376 C 227.69 656.128 221.806 579.195 221.945 502.473 C 233.053 495.933 245.774 491.573 257.706 486.78 L 301.872 468.637 L 465.339 402.745 A 42861.6 42861.6 0 0 0 1015.08 177.838 z"/>
<path transform="translate(0,0)" fill="rgb(254,254,254)" d="M 1016.78 295.18 C 1035.01 301.131 1053.18 309.127 1070.85 316.617 C 1056.34 335.33 1035.12 352.165 1018.52 369.487 L 1019.15 369.024 L 1018.18 370.369 C 1035.85 355.902 1057.56 334.504 1073.34 317.682 C 1123.51 334.278 1172.26 356.159 1221.25 375.958 L 1495.37 487.599 L 1585.29 524.086 C 1603.19 531.219 1621.16 538.858 1639.57 544.581 L 1627.13 600.304 C 1595.41 607.502 1563.4 613.147 1531.38 618.904 C 1513.5 622.12 1495.03 624.491 1477.55 629.449 C 1466.75 668.733 1458.07 708.874 1448.3 748.446 C 1437.4 792.626 1425.47 836.512 1414.74 880.753 C 1405.09 920.512 1392.57 959.805 1384.88 999.983 C 1379.38 991.008 1373.2 982.422 1367.61 973.492 C 1363.47 966.878 1359.85 959.89 1355.59 953.363 C 1347.09 940.355 1326.25 936.768 1312.57 930.749 C 1302.15 926.164 1292.11 920.892 1282.86 914.235 C 1272.1 906.495 1261.99 898.014 1252.05 889.276 C 1245.41 883.448 1238.82 876.671 1231.41 871.88 C 1227.9 869.604 1224.25 868.051 1220.1 867.337 C 1213.67 866.228 1205.99 866.769 1200.06 869.655 C 1185 876.988 1172.3 892.524 1160.22 903.981 C 1144.29 919.086 1127.07 935.452 1108.98 947.808 C 1086.04 886.299 1059.26 843.131 1013.59 795.671 C 992.078 773.314 968.535 751.757 951.933 725.309 C 1011.97 756.139 1019.18 713.665 1059.21 722.001 C 1084.21 727.204 1098.01 759.206 1115.94 760.582 C 1130.38 761.69 1134.49 752.179 1143.7 743.909 C 1144.22 743.827 1144.74 743.751 1145.26 743.663 C 1145.92 743.552 1146.57 743.418 1147.23 743.31 C 1147.74 743.227 1148.26 743.223 1148.76 743.093 C 1157.46 740.828 1169.92 724.496 1173.75 716.806 C 1171.08 707.157 1167.34 697.852 1164.9 688.127 C 1163.09 680.906 1162.35 673.354 1161.25 665.993 C 1150.94 653.015 1133.38 642.589 1121.4 629.927 C 1101.12 608.487 1084.71 583.456 1065.17 561.262 C 1073.55 561.494 1081.26 560.115 1089.16 557.415 C 1106.4 551.522 1119.49 541.089 1127.69 524.728 C 1046.2 533.233 1042.59 508.201 976.118 476.7 L 974.762 476.064 C 968.491 481.227 962.514 486.773 956.463 492.191 C 938.998 477.023 919.418 466.072 896.847 460.248 C 899.407 467.43 902.977 473.59 906.894 480.087 C 899.59 478.634 892.296 477.195 884.877 476.47 C 858.176 473.861 827.899 480.11 804.222 492.722 C 796.049 497.075 788.44 502.654 780.438 507.35 C 762.349 517.965 745.298 528.62 729.076 542.065 C 743.339 543.994 757.366 547.062 771.369 550.336 C 720.008 580.439 671.353 610.516 610.008 614.29 C 634.448 633.285 661.707 645.291 691.826 651.61 C 667.184 667.673 639.204 679.575 611.274 688.509 C 584.147 696.515 557.206 701.558 529.172 704.948 C 558.703 714.005 587.187 726.769 618.164 730.33 C 628.199 731.484 638.511 731.216 648.606 731.264 C 606.88 760.16 551.292 775.389 501.012 778.245 C 555.59 803.45 588.279 806.607 647.118 805.055 C 638.138 811.222 627.931 816.081 618.117 820.801 C 574.161 841.938 530.775 849.04 483.047 855.303 C 540.416 881 610.264 887.283 669.786 866.334 C 637.065 904.448 596.737 933.262 549.229 949.987 C 535.588 954.79 521.494 957.936 507.794 962.529 C 549.878 976.795 600.244 982.179 643.844 973.064 C 656.29 970.462 668.04 966.048 679.951 961.7 C 657.157 1000.74 603.159 1032.27 562.648 1049.59 C 575.083 1051.76 587.619 1053.24 600.257 1053.24 C 656.294 1053.26 706.054 1026.42 745.003 987.568 C 744.358 1021.88 735.212 1054.38 720.677 1085.39 C 683.423 1164.89 634.914 1202.38 577.916 1264.69 C 566.755 1276.9 555.867 1289.22 545.793 1302.35 C 535.406 1315.88 525.849 1330 515.212 1343.35 C 426.209 1178.01 373.492 992.995 345.242 808.088 C 341.857 785.93 338.141 763.724 335.543 741.461 C 329.007 685.452 326.106 629.224 323.006 572.943 C 334.122 569.399 345.132 564.422 355.982 560.067 L 414.65 536.461 L 581.03 469.915 L 1016.78 295.18 z"/>
</svg>