<svg xmlns="http://www.w3.org/2000/svg" display="block" viewBox="0 0 2048 2048"><defs><linearGradient id="a" x1="1582.22" x2="1570.5" y1="840.208" y2="800.287" gradientUnits="userSpaceOnUse"><stop class="stop0" offset="0" stop-color="#2a2831"/><stop class="stop1" offset="1" stop-color="#3e4045"/></linearGradient></defs><path fill="#fefefe" d="M0 0h2048v2048H0z"/><path fill="#3b3e49" d="M1792.47 81.757c6.37 7.957 29.33 108.375 34.15 126.387l34.63 125.897c-28.31-31.502-53.97-65.516-81.45-97.758-9.99 44.825-22.23 89.389-33.38 133.957-5.33 21.281-11.12 42.721-15.02 64.313 13.6 7.157 28.79 12.089 43.08 17.78a3849 3849 0 0 0 72.52 28.534c-1.73 20.928-1.74 41.888-2.79 62.846a3793 3793 0 0 1-8.5 126.918c-19.85 225.572-66.56 450.569-160.51 657.539a1222.5 1222.5 0 0 1-127.96 217.43c-116.44 159.93-253.31 277.65-431.65 363.43-32.83 15.79-66.66 31.06-100.76 43.87-42.417-18.63-85.169-37.14-126.167-58.77-140.885-74.36-260.195-169.47-361.148-292.79-19.546-23.87-38.979-48.21-56.306-73.77-159.403-228.34-239.584-512.12-270.425-786.354-9.651-85.819-14.388-173.403-16.196-259.755 44.146-18.733 89.109-35.296 133.508-53.386l424.672-170.828 178.994-72.827c31.727-13.193 62.885-27.72 95.068-39.834 25.93 11.193 52.21 21.281 78.29 32.072l86.99 36.398c25.05 10.199 49.67 22.287 75.51 30.414 3.25 1.023 30.21-2.027 36.72-2.142 117.15-2.074 225.82 33.662 317.72 106.922 22.16 17.664 41.98 37.984 62.36 57.624 11.71-25.83 17.58-55.361 24.91-82.686l26.77-96.096c-15.31 8.048-31.68 14.656-47.48 21.691-20.77 9.243-41.53 18.862-62.89 26.64 10.41-14.856 24.48-27.132 36.93-40.247 17.16-18.084 33.88-36.628 50.78-54.966 29.82-32.373 57.08-68.173 89.03-98.453"/><path fill="#387ba8" d="M1617.51 806.936c5.01-2.097 10.02-2.181 15.35-1.87-.03 4.339 2.14 7.13 4.25 10.746l1 1.759c-3.43 3.413-12.79 15.19-16.92 16.192-2.85-5.648-6.65-10.591-9.29-16.43zm82.44 24.531c2.41-.42 1.2-.509 3.63.368 4.13 6.6 6.34 15.589 9.08 22.91-3.48 4.899-7.18 8.58-12.45 11.549-4.46 2.516-7.46 3.57-12.48 2.28-5.93-2.493-11.47-5.783-17.08-8.914 3.66-8.666 6.17-17.639 10.61-25.992 6.16-1.033 12.48-1.512 18.69-2.201m23.46-143.641c1.52.144 1.88 0 3.16.695 7.82 4.247 12.72 23.456 15.68 31.603-9.05 2.797-17.52 6.904-26.07 10.912-1.23.284-2.77 1.038-3.96.459-6.14-2.999-10.88-14.569-13.65-20.718 6.54-10.671 14.66-16.125 24.84-22.951m-138.92 234.108c1.21.016 2.1.395 3.24.781 6.71 8.084 8.16 19.224 11.46 28.998-4.61 2.232-9.22 4.53-13.92 6.558-6.13 2.644-8.81 3.584-15.01 1.122-6.12-1.402-11.79-2.997-17.62-5.358 4.18-7.184 7.08-14.519 9.91-22.309 6.83-4.446 14.32-7.043 21.94-9.792"/><path fill="#fefefe" d="M1050.68 691.082c8.1.966 16.78 3.234 24.22 6.598 13.44 6.081 21.38 15.624 30.49 26.78 2.22 2.719 4.34 6.001 7.33 7.894 4.97 3.141 16.36 6.54 18.53 12.199l-2.6 2.206c-4.39.955-9.14 1.803-13.64 1.138-9.73-1.441-14.67-10.594-19.73-17.956-5.97-7.623-13.06-14.134-21.89-18.328-24.22-11.495-47.76 1.35-70.74 9.124 10.18-9.088 35.22-25.004 48.03-29.655m244.23 528.608c16.68 7.68 32.63 13.71 50.5 17.9-.29 6.47-.62 29.48-4.68 33.37-5.42-1.7-10.67-4.18-15.64-6.9-10.57-5.8-32.44-18.05-35.56-30.65-1.13-4.57 3.13-9.87 5.38-13.72m83.9-202.33c3.54 1.83 12.35 28.4 14.35 33.27-15.35-.18-30.21-1.08-45.41-3.09-6.98-1.05-13.65-2.38-20.46-4.23a1238 1238 0 0 1 1.46-22.01c17.27.24 33.06-.67 50.06-3.94m317.87-285.491c2.61 1.565 4.92 3.471 7.3 5.354-4.17 28.615-7.58 57.291-12.23 85.845-7.22 2.646-13.3 5.516-19.71 9.773a422 422 0 0 0-11.32 28.346c-9.41 6.685-18.09 14.301-26.88 21.769-.14-.135-.33-.238-.44-.405-2.98-4.541-3.47-40.602-3.5-48.085 4.55-4.462 9.41-8.663 14.12-12.956-1.42-5.512-3.19-10.981-4.81-16.44 5.29-8.585 12.77-16.47 19.03-24.42zm-489.59 149.233c4.41-.307 8.86-.097 13.27-.012 9.36 5.586 16.07 13.828 24.43 20.639 31.36 25.556 56.41 43.198 96.21 53.077 11.37 15.609 19.35 34.386 30.79 50.474-14.2 2.03-28.31 3.01-42.62 3.53-.03-.91-.05-1.83-.11-2.74-.72-10.936-2.73-29.566-11.66-36.929-10.38-8.548-63.93-35.04-77.42-39.682-6.36-2.189-15.06-4.599-21.75-3.639-13.2 1.894-21.53 14.883-28.9 24.686-15.51 21.512-27.91 46.852-45.67 66.544-6.6 2.18-14.57 7.05-21.34 7.82l-2.03-1.77c-.58-3.48.61-5.7 2.54-8.51 4.71-6.82 11.91-12.23 17.48-18.401 14.31-15.879 23.85-33.348 32.23-52.832-8.83 7.891-16.9 16.759-25.43 24.993-8.61 8.316-17.82 15.991-26.97 23.712l-7.74-30.304a483 483 0 0 0 41.9-34.432c15.16-13.959 35.35-37.308 52.79-46.224"/><path fill="#3b3e49" d="M1229.27 904.276c5.91-.149 11.75.709 17.62 1.397-10.83 4.135-21.97 7.929-32.24 13.334-4.3 2.514-7.93 5.654-11.72 8.854a235 235 0 0 1 4.55-7.177c5.43-8.145 11.95-14.487 21.79-16.408"/><path fill="#387ba8" d="M1068.77 1611.66c24.3-1.39 50.03-1.3 74.32.14.82 14.84.38 29.93.47 44.8l.48 80.94a568 568 0 0 1-54.48 31l-9.59 5.03c-3.4 2.25-7.39 3.96-11.01 5.83z"/><path fill="#fefefe" d="M1079.97 1773.57c.02-19.39-.59-146.86 2.4-152.11 2.06.22 2.17.55 3.78 1.72 3.2 7.45 2.27 128.59 3.41 145.36zm137.53-834.356c4.25-.328 8.25-.522 12.43.524 15.71 3.937 30.22 13.487 44.56 20.713 11.49 5.786 23.32 10.878 34.49 17.257 7.51 17.643 8.75 23.702 4.33 42.672-2.64 11.32 2.97 29.64 9.13 39.45 6.3 4.48 28.83 5.94 37.39 7.74-4.99 18.96-10.33 37.84-14.04 57.1-6.99-7.09-13.18-14.95-19.51-22.63-16.4-19.03-32.32-38.13-46.1-59.18-5.94-9.08-7.15-20.87-15.68-28.05-12.09-10.17-83.49-.57-101.68 1.55 10.72-19.907 36.81-65.158 54.68-77.146m504.66-471.804c29.68 12.041 59.56 24.016 88.7 37.328-2.69 22.442-5.94 160.475-10.51 169.581l-1.55-.759c-16.79-31.033-35.15-60.968-58.23-87.76.46-10.523.57-21.089.84-31.621-11.59-5.163-23.7-9.452-35.53-14.059 4.57-24.443 10.51-48.53 16.28-72.71"/><path fill="#387ba8" d="m1405.3 1514.22-.23-129.84c.02-20.36-2.53-66.23 2.89-83.35 5.83-4.21 58.93-1.73 68.61-1.59 1.25 38.37.87 77.39.55 115.8-14.52 25.1-32.43 50.21-51.01 72.47-3.2 4.85-6.8 8.96-10.71 13.23-3.87 3.22-6.62 9.35-10.1 13.28"/><path fill="#fefefe" d="M1415.4 1500.94c-1.14-20.33.46-181 4.3-191.92l1.21-.2c.33.51.79.95 1 1.52 1.18 3.14 3.28 156.71 4.2 177.37-3.2 4.85-6.8 8.96-10.71 13.23m248.52-633.254c5.29 1.609 9.65 4.004 14.43 6.733-8.27 42.678-16.28 85.106-26.81 127.311-12.29 49.25-27.68 97.22-44 145.24-.29-9.46-.16-18.96-.2-28.43.18-12.91 3.83-49.27-4.73-58.8-8.08-3.62-18.03-2.64-26.74-2.65.38-29.3 1.29-60.053 4.36-89.169 9.52-4.63 19.86-7.937 29.78-11.612-4.56-10.078-7.3-20.056-9.68-30.847 18.6-21.392 41.9-39.512 63.59-57.776"/><path fill="#387ba8" d="M1181.12 1508.14c23.89-1.57 48.94-1.62 72.86-.37 1.65 49.87.72 100.24.14 150.13-14.76 15.45-34.25 28.91-51.86 40.98l-10.4 7.76c-3.2 2.7-6.49 4.51-10.23 6.39-1.07-26.49-.52-53.2-.56-79.72z"/><path fill="#fefefe" d="M1191.86 1706.64c-.68-21.22-.15-42.63-.17-63.88l-.03-111.77c.02-4.07.51-12.17 3.5-15.07 5.76 12.64 3.63 154.23 6.89 181.28l.21 1.68z"/><path fill="#387ba8" d="M1522.1 1339.48a9087 9087 0 0 1 .89-169.49c.28-29.43-1.2-59.79.98-89.12.29-4.03.77-8.03 2.43-11.74 6.02-4.03 59.29-1.19 69.98-1.01.46 22.74-.26 45.63-.3 68.38-.02 11.55 1.52 25.03-.36 36.28-1.7 10.13-6.06 20.03-9.7 29.61-12.06 31.83-26.75 62.26-41.38 92.98-2.93 7.59-6.76 15.12-11.03 22.05-3.18 7.79-6.75 15.11-11.51 22.06"/><path fill="#fefefe" d="M1533.61 1317.42c-2.94-19.1-.19-61.44.05-82.53.58-51.6-.11-103.39 1.67-154.95 1.79-1.26 1.12-1.27 3.6-.9 1.44 1.57 1.79 3.16 2.02 5.23 1.29 11.6.28 28.58.56 40.99a3934 3934 0 0 1 1.41 112.1c.04 15.8-2.04 42.87 1.47 57.07.08.32.17.63.25.94-2.93 7.59-6.76 15.12-11.03 22.05"/><path fill="#387ba8" d="M1289.2 1390.3c24.09-1.78 49.5-.73 73.68-.07.96 20.34.23 41.03.39 61.42a6638 6638 0 0 1 .61 105.59c-13.46 19.18-34.84 40.24-52.98 55.15a128 128 0 0 1-10.27 9.44c-3.96 4.62-9.5 8.65-14.12 12.64 1.12-53.2 1.33-106.66 1.51-159.87.09-26.62-1.73-58.22 1.18-84.3"/><path fill="#fefefe" d="M1304.59 1395.31c4.85 21.87 2.92 47.26 3.43 69.67l2.88 147.41a128 128 0 0 1-10.27 9.44 5736 5736 0 0 1 .16-139.46c.22-28.19-1.92-59.44 3.8-87.06m-6.41-1151.89c20.86-2.33 45.72.727 66.54 3.352 95.75 12.072 185.27 55.943 257.1 119.87 16.87 15.014 33.26 30.593 47.16 48.453a2612 2612 0 0 0-23.73-11.689c-30.59-14.519-62.63-25.917-93.92-38.819l-183.92-75.648c-23.59-9.563-47.32-18.607-70.8-28.45-11.2-4.695-22.82-8.959-33.35-15.053zm442 351.29c4.66 4.226 8.59 11.335 12.19 16.559 9.69 14.051 19.67 28.7 28.02 43.576 6.41 11.435 11.44 23.744 18.93 34.535-3.1 18.692-3.94 38.012-6.17 56.861-7.44 62.896-14.68 125.528-27.99 187.516-3.33 15.518-6.23 31.566-10.85 46.738a1268 1268 0 0 0-5.31-14.766c-12.46-32.261-24.24-65.865-40.06-96.633a343 343 0 0 0 19.5-7.19c-6.75-10.532-11.46-22.909-16.61-34.328 6.92-27.87 5.87-57.778 13.87-85.294 7.48-4.652 11.78-12.383 20.51-15.482 2.37-.84 4.7-1.773 7.05-2.668-3.2-9.34-7.5-29.91-15.54-35.676-.27-.193-.55-.366-.83-.549-3.47-9.342 2.52-79.085 3.29-93.199m-41.6-27.305c5.76 2.76 11.71 5.066 17.65 7.436.01 35.342-1.83 70.711-2.39 106.054-11.11 8.62-18.08 18.619-25.53 30.343l6.15 9.527-42.55 56.73c-5.4 7.176-11.34 14.041-16.52 21.356-4.39 1.204-19.25.032-21.07 2.828-2.48 4.334-4.99 8.621-7.12 13.139-24.32-.331-48.92-5.297-73.07-4.846 2.52-14.316 6.48-28.355 9.9-42.476l15.68-66.943c36.32-10.427 75.4-15.502 112.61-22.005 13.71-35.186 15.37-74.948 26.26-111.143m-838.781-76.022c17.793-2.339 35.667.325 52.939 4.466 6.039 10.186 10.645 20.275 14.522 31.466-51.938 8.949-103.603 25.613-137.349 68.696-39.505 50.436-48.143 117.211-51.528 179.112-1.624 29.697-2.146 59.333.358 89.003 2.334 27.645 8.038 55.144 11.271 82.729-27.775 46.345-79.317 79.275-130.908 92.505 9.872-7.06 20.365-13.22 30.147-20.45 32.257-23.812 70.182-63.859 76.329-104.736-40.36 29.22-104.607 52.851-155.019 46.204a122 122 0 0 0 5.424-2.394c49.757-23.234 99.026-58.712 125.006-108.294 4.24-8.091 7.264-16.735 10.38-25.302-26.667 16.033-52.035 28.126-82.863 34.058-21.937 3.797-43.666 3.149-65.775 1.994 9.365-3.291 18.91-6.05 28.276-9.334 48.042-16.842 91.574-42.458 114.428-89.937-10.201 5.212-20.247 10.742-30.994 14.779-33.976 12.764-73.861 14.271-109.346 8.138 5.833-1.73 11.955-2.804 17.872-4.249 56.145-13.708 119.234-52.788 149.676-102.661-38.725 18.899-93.789 46.646-137.3 33.958 55.765-13.782 114.855-40.639 153.31-84.738-34.845 7.912-60.153 10.862-94.486-.892a361.8 361.8 0 0 0 73.264-29.006c25.482-13.784 49.503-38.535 79.039-42.187-14.708-9.232-28.639-16.846-45.338-21.814 10.523-8.298 24.602-13.989 37.096-18.594 5.731 1.25 10.936 3.802 16.316 6.066 10.857 4.569 20.004 6.999 31.76 8.126-8.886-10.588-19.713-18.273-31.599-25.17 14.4-6.001 29.683-9.437 45.092-11.542"/><path fill="#3b3e49" d="M806.209 528.281c7.612-.081 16.668.408 23.519 3.972 4.637 2.413 7.018 5.663 8.636 10.54-9.262-.839-25.178-8.421-32.155-14.512M704.213 800.735l1.532.883c-.096.948-.083 1.415-.529 2.377-6.428 13.859-20.385 23.127-33.697 29.202l-1.292-.598c2.175-7.001 26.699-27.233 33.986-31.864m75.381-215.931 1.875.09.138 1.223c-12.742 14.665-29.811 22.795-48.27 27.74l-1.217-.165c2.061-4.248 41.732-26.452 47.474-28.888m121.883-71.671c3.802-.232 7.215-.339 10.988.229-3.473 2.448-39.161 17.509-44.147 19.032l-14.788 3.517c15.169-11.247 29.488-18.49 47.947-22.778M718.085 725.715l1.118.447.46 1.557c-2.503 6.217-5.656 12.555-10.106 17.614-11.591 13.172-29.944 20.733-47.158 22.154l-.911-.044c1.554-3.048 7.667-5.777 10.642-7.686 16.096-10.328 29.446-24.331 45.955-34.042m3.315 133.157c.683 4.936-2.059 12.44-3.727 17.087-6.655 18.536-25.395 33.196-42.756 41.099l-.145-1.078c15.923-19.306 28.355-39.594 46.628-57.108"/><path fill="#fefefe" d="M1279.09 1247.97c20.5 18.2 37.12 32.38 63.68 40.95-39.61 26.58-81.17 50.23-122.12 74.65-16.56 9.88-36.22 18.92-51.12 31.03-11.72 9.52-21.3 24.79-30.56 36.72-22.22 28.62-43.67 57.74-65.66 86.5-13.99 18.29-28.83 35.94-42.99 54.1l-123.566 158.59-9.802 12.49c-15.243-8.55-30.462-17.8-44.943-27.58a15956 15956 0 0 0 176.611-251.63c27.34-39.82 57.24-78.53 82.39-119.77 56.61-30.96 111.72-64.63 168.08-96.05m507.55-1144.235c2.21 2.055 2.83 5.579 3.63 8.423 10.61 37.473 19.24 75.562 29.18 113.225 5.5 20.829 12.37 41.251 17.79 62.082-21.21-25.527-42.62-50.555-62.74-76.977-3 10.214-4.81 21.053-7.34 31.428l-18.63 75.661c-17.11 68.538-35.2 137.002-50.67 205.935l-19.41 86.588c-4.22 19.333-7.47 39.704-14.03 58.383-37.33 8.219-75.3 14.867-112.85 22.112-17.39 78.704-38.03 156.48-58.08 234.524l-43.6 175.621c-12.1 49.03-25.94 98.18-35.59 147.76a1212 1212 0 0 1-57.02 33.36c-.06-7.09.18-14.08.61-21.16.06-13.54 3.96-27.47 2.52-40.88-1.24-11.64-6.48-22.78-8.09-34.48-1.19-8.62 1.42-17.49.8-26.16-.42-5.86-2.79-12.07-2.39-17.9.8-11.74 6.44-24.61 9.66-35.96 3.5-12.3 6.39-24.73 9.25-37.19 9.57 1.2 23.33 2.77 32.63-.25 3.47-1.12 6.77-3.19 8.16-6.74 3.5-8.94-13.56-45.24-17.76-56.13l65.43-256.246a5411 5411 0 0 0 15.45-62.032c3.85-16.337 6.97-33.089 12.17-49.058 14.29-3.523 29.37-5.174 43.88-7.807 34.99-6.35 70.35-12.502 105.01-20.428 10.48-39.125 19.11-78.76 29.28-117.977 8.58-33.097 18.32-65.943 27.3-98.937a7868 7868 0 0 1 51.44-183.422c-13.92 3.657-26.69 11.568-39.73 17.517-14.48 6.611-29.28 12.457-43.75 19.145 13.73-17.391 29.72-33.36 44.59-49.799zM918.806 482.739c11.847 3.923 24.225 13.395 33.809 21.292 8.636 7.115 28.19 29.079 39.007 29.719 2.757.163 3.126-.314 5.119-1.99-.939-5.376-20.303-22.057-24.998-27.641l-.999-1.198 7.744-8.399c48.042 25.57 66.102 43.405 124.222 43.272a100 100 0 0 1-4.63 2.269c-13.57 6.266-33.65 11.027-48.28 6.467-6.39-1.994-12.27-5.69-18.64-7.894-11.06-3.823-19.08-.866-29.04 3.845 5.77.597 11.79.965 17.31 2.875 37.68 13.046 60.93 58.444 85.74 87.266 12.99 15.09 28.45 27.472 43.9 39.891 2.15 15.264 6.84 28.624 11.56 43.228-4.13 6.962-9.16 11.82-15.24 16.996-7.11-2.059-14.65-3.743-21.07-7.55-19.68-11.672-24.03-27.907-50.53-37.914-13.06-4.931-33.56-7.926-46.1-.906-7.96 4.454-15 10.704-23.45 14.261-13.179 5.545-28.816 3.693-41.676-1.931-26.984-11.802-39.972-34.909-50.239-61.169a90 90 0 0 0-1.394 4.037c-8.568 27.194 9.16 40.323 17.844 62.698 2.42 6.235 3.182 13.322 4.701 19.837 2.137 9.16 5.913 16.943 10.152 25.313 28.23 52.087 95.372 97.191 115.812 148.818-21.27-1.126-42.12-5.527-63.53-6.129-90.341-2.543-157.628 28.655-230.476 77.971-4.758-28.468-6.15-57.233-7.406-86.015-3.398-77.838-3.422-186.871 37.398-255.933 32.723-55.363 76.702-73.12 135.859-88.174 3.865 4.023 7.679 8.523 13.262 10.003l1.366-.9c2.486-11.371-21.002-56.102-27.107-66.315"/><path fill="#3b3e49" d="M1115.27 674.19c5.68-.454 12.11-1.154 17.75-.408 4.2.555 8.26 2.145 10.76 5.719 4.12 5.883 3.25 14.652 1.94 21.285l-2.86-4.567c-.35-.437-.69-.878-1.05-1.31-11.51-13.929-14.33-7.7-28.58-9.323-3.3-.376-5.62-.863-7.65-3.459.12-1.244-.03-1.141.65-2.234 2.29-3.643 5.1-4.67 9.04-5.703m-114.08-81.981c1.49.043 1.47.007 2.78.156 12.24 1.392 48.05 16.714 55.9 26.899l-.58 1.408-2.5.467c-9.68-4.276-11.76 4.185-21.19 1.434-11.03-3.216-12.61-15.003-20.65-21.344-4.4-3.475-10.9-3.907-13.76-9.02m-89.817 21.487c.126.123.286.22.378.371 1.028 1.686.908 1.122.368 2.677-7.202 20.729-14.869 41.433-15.307 63.674-1.107 56.293 67.626 124.5 104.258 163.338 12.06 12.786 23.37 26.218 35.54 38.92-27.6-11.485-54.751-23.564-81.153-37.613-30.185-16.901-58.204-34.095-85.184-55.812 28.346 9.826 55.343 21.83 82.485 34.599-26.803-32.193-51.155-54.498-60.077-98.233-1.97-9.652-3.168-19.821-2.792-29.682.751-19.687 10.782-65.984 21.484-82.239"/><path fill="#fefefe" d="m1614.32 801.679 3.19 5.257-5.61 10.397c2.64 5.839 6.44 10.782 9.29 16.43l-.11 1.737c3.29 3.588 5.19 47.656 5.36 54.762-7.19 6.382-21.59 21.561-29.34 25.283-1.44-1.316-2.59-2.664-3.78-4.211-8.23-.199-26.64 8.961-34.71 12.555-5.85 12.536-12.65 24.225-19.24 36.371 3.87 1.003 7.89 1.072 11.77 2.032 7.05 1.743 14.2 6.342 20.6 9.779a2496 2496 0 0 1-4.63 85.039c-11.87-.23-41.08-4.55-49.27 3.64-2.49 2.48-2.74 7.91-3.01 11.23-1.89 22.82-.42 46.65-.62 69.59a8434 8434 0 0 0-.96 140.03c.05 16.81 2.08 59.07-1.05 73.39-2.61 11.97-17.5 33.32-24.13 44.73l-.18-62.71c.06-11.9 1.01-24.33.1-36.16-.2-2.61-.64-7.62-2.61-9.54-7.87-7.66-59.41-6.13-72.07-5.13-5 .4-10.12.71-13.52 4.84-1.9 2.32-2.46 5.35-2.75 8.24-2.14 21.35-.46 44.32-.46 65.87.02 52.47 1.32 105.26-.4 157.7-6.47 8.68-13.44 17.21-21.36 24.63-1.22-37.68-.58-75.53-.63-113.23-.02-13.89 1.68-31.46-.25-44.88-.39-2.75-1.92-5.53-3.94-7.41-2.93-2.73-7.02-4.03-10.91-4.62-12.37-1.88-26.05-.01-38.58-.03-8.6-.01-17.51-1.02-26.06-.27-3.42.3-9.23.78-11.52 3.71-2.84 3.63-3.46 10-3.79 14.43-.73 9.85-.13 20.11-.08 30l.24 55.96-.15 158.53-13.15 11.32.02-91.84c-.05-15.03.93-30.85-.62-45.74-.45-4.33-1.01-11.85-4.6-14.76-2.14-1.74-5.31-2.42-7.98-2.73-5.03-.57-67.3.26-71.17 1.29-3.67.96-6.29 3.03-8.05 6.39-1.66 3.18-1.72 6.86-1.86 10.38-.94 23.5.4 47.42.45 70.97l-.06 134.68c-5.6 3.71-11.19 7.82-17.1 10.99l-.46-71.49c-.09-13.12.55-26.79-.8-39.82-.44-4.25-1.15-11.33-4.15-14.62-2.46-2.7-6.68-3.87-10.16-4.42-8.11-1.27-17.12-.28-25.36-.28-12.23.01-24.65-.74-36.84.03-5.08.32-9.17 1.14-13.66 3.53-2.76 3.51-3.29 9.56-3.64 13.94-1.46 17.76-.09 36.52-.04 54.41l.14 111.72c-15.46 6.94-31.6 13.34-46.56 21.28-14.922-8.51-31.033-15.17-46.439-22.78a631 631 0 0 1-67.488-37.92c25.286-26.5 47.51-54.91 70.718-83.15a10326 10326 0 0 0 130.559-163.88l48.76-63.3c7.87-10.16 15.19-21.74 24.91-30.24 14.75-12.91 51.37-31.38 70.13-42.71l133.84-79.43c14.86-8.73 29.12-18.59 44.25-26.83.94-10.79 4.09-21.62 6.52-32.17l12.56-53.72c6.34-26.56 13.66-52.84 20.38-79.3l40.78-162.193c4.97-19.646 10.38-39.193 15.61-58.772 2.68-10.021 6.17-20.454 7.73-30.682l-.77-.739c-.04-6.398 4.31-22.249 8.58-27.092 24.15-.451 48.75 4.515 73.07 4.846 2.13-4.518 4.64-8.805 7.12-13.139"/><path fill="url(#a)" d="m1614.32 801.679 3.19 5.257-5.61 10.397c2.64 5.839 6.44 10.782 9.29 16.43l-.11 1.737c-.27-.118-.55-.233-.82-.354-7.92-3.559-8.66-9.564-13.67-12.662-.6-.374-67.36-5.275-74.43-5.762-1.52 6.496-2.64 15.291-5.84 21.081l-.77-.739c-.04-6.398 4.31-22.249 8.58-27.092 24.15-.451 48.75 4.515 73.07 4.846 2.13-4.518 4.64-8.805 7.12-13.139"/><path fill="#fefefe" d="M1228.19 1070.21c10.48 1.97 18.92 10.32 25.9 17.91 16.73 18.21 45.76 53.83 46.74 78.6.33 8.27-2.71 17.11-6.65 24.3-9.19 16.78-16.71 24.89-17.55 44.94-17.96 12.96-38.07 23.66-57.24 34.77l-83.4 48.81c-9.71 5.74-27.1 12.35-34.05 21.14-14.97 18.91-27.63 40.02-41.22 59.95l-74.878 109.07c-21.34 30.96-42.732 62.06-64.521 92.71-25.531 35.91-51.911 71.99-74.979 109.53l-24.839-18.18c-30.263-22.01-61.189-46.76-87.297-73.58 13.704-14.1 26.934-29.18 37.478-45.81 35.593-56.16 43.193-114.44 28.636-178.91a579 579 0 0 0 45.101-14.6c89.848-32.83 176.879-99.26 229.839-179.25 11.54-17.43 20.5-35.56 29.3-54.47 10.76-5.03 20.66-13.51 30.18-20.56 23.56-17.46 64.83-49.98 93.45-56.37"/><path fill="#fefefe" d="M980.205 921.578c31.105-2.653 62.425.854 93.245 4.797 13.32 36.191 22.72 67.641 29.9 105.625l-11 7.36c-11.46-24.12-34.31-41.938-55.44-57.166 22.51 21.876 35.8 49.226 53.93 74.306 8.74-8.32 19.78-18.04 31.56-21.21 9.16-2.46 19.18-3.22 28.59-4.44 19.38-2.5 38.63-4.63 58.08-6.36 11.51-1.02 23.6-2.92 35.11-2.62 3.81.09 8.36.25 11.61 2.48 6.82 4.66 10.87 20.58 15.21 27.72 5.01 8.23 11.42 16.03 17.2 23.75 11.9 15.91 43.15 47.08 48.53 63.2 5.34 15.97 1.25 31.72 2.59 47.94.95 11.51 4.98 23.57 7.37 34.95-16.88-1.21-30.61-6.94-45.54-14.56a235 235 0 0 0 5.92-12.5c7.48-17.1 8.44-33.02 1.4-50.55-12.08-30.07-45.7-73.51-76.29-86.41-10.48 1.49-20.01 3.79-29.72 8.12-19.54 8.73-37.44 22.54-54.83 34.92-18.99 13.52-38.3 27.21-58.36 39.12-12.36 7.34-25.05 12.99-39.64 8.93-31.78-8.83-65.937-34.52-86.514-59.61-7.117-8.67-12.604-17.97-17.952-27.78 2.025 13.07 6.554 24.73 13.757 35.86 18.006 27.83 47.979 51.2 80.529 58.29-5.8 17.89-14.26 34.57-24.19 50.5-53.149 85.2-134.65 139.99-231.928 162.64-28.799-30.82-59.462-55.97-97.87-73.78a495 495 0 0 1 34.868 32.84c35.233 38.33 63.796 85.76 65.144 139.07 1.456 57.54-29.649 100.46-67.456 140.31a1084 1084 0 0 1-43.289-46.59c.907-45.94 6.909-88.51 25.652-130.87l-.993.58c-22.118 13.11-37.672 32.75-44.062 57.73-18.033-21.27-33.447-44.71-43.825-70.69-18.12-45.37-7.757-74.06 10.272-116.41a90 90 0 0 0-2.449 1.68c-31.501 22.24-50.502 57.24-56.686 94.62 15.976 28.56 69.064 104.35 97.606 119.41-.151 9.82.637 19.71 1.132 29.53-15.353-15.56-28.563-32.48-42.132-49.58-11.987-15.1-24.418-30-35.615-45.7-19.738-27.68-37.478-57.07-55.883-85.68 22.922-42.45 55.847-78.95 89.86-112.74 79.655-79.11 128.299-133.02 147.842-248.14 11.804-9.783 25.398-17.827 38.425-25.857 59.981-36.969 106.598-49.721 176.332-57.035"/><path fill="#3b3e49" d="m1218.74 1039.18.58.32-.62 1.43c-25.43 19.78-79.92 55.23-109.62 63.27-11.54 3.13-22.83 3.48-34.72 3.5l-.62-1.09c14.51-6.12 29.27-11.14 43.43-18.13 33.94-16.72 65.87-36.31 101.57-49.3m-399.958 62.55a390 390 0 0 0 11.332 9.51c52.622 42.29 113.19 56.8 179.686 49.45-3.28 20.72-11.41 37.34-23.274 54.54-38.526 55.84-98.496 104.33-166.299 116.64-21.541 3.16-44.355 2.52-63.984-7.64 10.723-1.31 21.546-2.29 32.174-4.24 48.72-8.92 98.123-40.03 131.388-76.13 10.619-11.52 19.514-24.34 28.439-37.18-16.899.56-30.212-2.44-45.448-9.89-38.457-18.82-69.91-54.57-84.014-95.06"/><path fill="#fefefe" d="M1015.08 177.838c14.13 4.025 28.25 10.979 41.9 16.522 34.9 14.164 69.33 29.504 104.32 43.386l355.49 144.484c49.89 20.295 99.31 42.427 149.87 60.976a1431 1431 0 0 0-20.5 76.752c-16.61-7.527-33.91-14.04-50.76-21.069a14239 14239 0 0 0-177.46-71.323 42454 42454 0 0 0-401.98-161.227c-32.705 14.532-66.038 27.171-99.205 40.549l-134.132 54.469-296.295 118.878-117.131 46.723c-19.296 7.576-54.565 18.73-70.183 29.328-.221 15.479 1.28 31.129 2.134 46.594a1968 1968 0 0 0 6.324 89.701c18.198 194.737 61.052 387.489 140.206 566.839 17.618 39.92 36.447 80.04 58.551 117.69a1115.5 1115.5 0 0 0 276.151 318.12c38.436 29.68 80.373 56.72 122.286 81.16 24.475 14.27 49.842 26.82 75.474 38.87 11.213 5.27 23.16 11.75 35.17 14.89 24.04-8.91 47.75-21.15 70.75-32.46 75.15-36.96 143.18-83.4 206.45-138.14 93.95-81.27 162.25-164.42 227.61-270.01 15.61-25.26 28.87-51.44 42.16-77.97 60.56-120.95 100.55-251.66 128.96-383.638 3.63-16.848 6.16-33.892 9.52-50.789 6.16 11.401 10.72 24.313 15.67 36.297l34.09 84.841c-18.65 75.349-39.19 151.609-67.38 224.029-77.06 197.94-184.12 367.22-347.28 505.38-34.41 29.14-70.41 57.16-108.42 81.46-68.76 43.96-137.73 75.81-212.16 108.48-14.53-7.37-29.853-13.41-44.577-20.44-33.417-15.94-66.897-32.97-99.388-50.72-92.698-50.67-177.636-118.71-251.985-193.41-240.854-242.01-347.974-588.49-383.489-920.684-8.151-76.248-14.035-153.181-13.896-229.903 11.108-6.54 23.829-10.9 35.761-15.693l44.166-18.143 163.467-65.892a42862 42862 0 0 0 549.741-224.907"/><path fill="#fefefe" d="M1016.78 295.18c18.23 5.951 36.4 13.947 54.07 21.437-14.51 18.713-35.73 35.548-52.33 52.87l.63-.463-.97 1.345c17.67-14.467 39.38-35.865 55.16-52.687 50.17 16.596 98.92 38.477 147.91 58.276l274.12 111.641 89.92 36.487c17.9 7.133 35.87 14.772 54.28 20.495l-12.44 55.723c-31.72 7.198-63.73 12.843-95.75 18.6-17.88 3.216-36.35 5.587-53.83 10.545-10.8 39.284-19.48 79.425-29.25 118.997-10.9 44.18-22.83 88.066-33.56 132.307-9.65 39.759-22.17 79.052-29.86 119.23-5.5-8.975-11.68-17.561-17.27-26.491-4.14-6.614-7.76-13.602-12.02-20.129-8.5-13.008-29.34-16.595-43.02-22.614-10.42-4.585-20.46-9.857-29.71-16.514-10.76-7.74-20.87-16.221-30.81-24.959-6.64-5.828-13.23-12.605-20.64-17.396-3.51-2.276-7.16-3.829-11.31-4.543-6.43-1.109-14.11-.568-20.04 2.318-15.06 7.333-27.76 22.869-39.84 34.326-15.93 15.105-33.15 31.471-51.24 43.827-22.94-61.509-49.72-104.677-95.39-152.137-21.512-22.357-45.055-43.914-61.657-70.362 60.037 30.83 67.247-11.644 107.277-3.308 25 5.203 38.8 37.205 56.73 38.581 14.44 1.108 18.55-8.403 27.76-16.673.52-.082 1.04-.158 1.56-.246.66-.111 1.31-.245 1.97-.353.51-.083 1.03-.087 1.53-.217 8.7-2.265 21.16-18.597 24.99-26.287-2.67-9.649-6.41-18.954-8.85-28.679-1.81-7.221-2.55-14.773-3.65-22.134-10.31-12.978-27.87-23.404-39.85-36.066-20.28-21.44-36.69-46.471-56.23-68.665 8.38.232 16.09-1.147 23.99-3.847 17.24-5.893 30.33-16.326 38.53-32.687-81.49 8.505-85.1-16.527-151.572-48.028l-1.356-.636c-6.271 5.163-12.248 10.709-18.299 16.127-17.465-15.168-37.045-26.119-59.616-31.943 2.56 7.182 6.13 13.342 10.047 19.839-7.304-1.453-14.598-2.892-22.017-3.617-26.701-2.609-56.978 3.64-80.655 16.252-8.173 4.353-15.782 9.932-23.784 14.628-18.089 10.615-35.14 21.27-51.362 34.715 14.263 1.929 28.29 4.997 42.293 8.271-51.361 30.103-100.016 60.18-161.361 63.954 24.44 18.995 51.699 31.001 81.818 37.32-24.642 16.063-52.622 27.965-80.552 36.899-27.127 8.006-54.068 13.049-82.102 16.439 29.531 9.057 58.015 21.821 88.992 25.382 10.035 1.154 20.347.886 30.442.934-41.726 28.896-97.314 44.125-147.594 46.981 54.578 25.205 87.267 28.362 146.106 26.81-8.98 6.167-19.187 11.026-29.001 15.746-43.956 21.137-87.342 28.239-135.07 34.502 57.369 25.697 127.217 31.98 186.739 11.031-32.721 38.114-73.049 66.928-120.557 83.653-13.641 4.803-27.735 7.949-41.435 12.542 42.084 14.266 92.45 19.65 136.05 10.535 12.446-2.602 24.196-7.016 36.107-11.364-22.794 39.04-76.792 70.57-117.303 87.89 12.435 2.17 24.971 3.65 37.609 3.65 56.037.02 105.797-26.82 144.746-65.672-.645 34.312-9.791 66.812-24.326 97.822-37.254 79.5-85.763 116.99-142.761 179.3-11.161 12.21-22.049 24.53-32.123 37.66-10.387 13.53-19.944 27.65-30.581 41-89.003-165.34-141.72-350.355-169.97-535.262-3.385-22.158-7.101-44.364-9.699-66.627-6.536-56.009-9.437-112.237-12.537-168.518 11.116-3.544 22.126-8.521 32.976-12.876l58.668-23.606 166.38-66.546z"/></svg>