<svg preserveAspectRatio="xMidYMid meet" version="1.1" xmlns="http://www.w3.org/2000/svg" style="display: block;" viewBox="0 0 2048 2048" width="1024" height="1024">
<path transform="translate(0,0)" fill="rgb(200,228,229)" d="M 0 0 L 2048 0 L 2048 2048 L 0 2048 L 0 0 z"/>
<path transform="translate(0,0)" fill="rgb(131,192,202)" d="M 883.511 609.372 C 885.456 609.436 886.586 609.599 888.327 610.483 L 887.967 612.044 C 881.135 616.646 871.947 619.096 864.286 622.213 C 862.967 622.783 861.902 623.049 860.508 623.342 L 860.18 621.774 C 862.069 618.25 864.152 615.777 866.918 612.904 C 872.593 610.922 877.57 610.005 883.511 609.372 z"/>
<path transform="translate(0,0)" fill="rgb(131,192,202)" d="M 624.113 832.792 C 625.233 832.942 626.092 833.347 627.13 833.774 C 626.918 842.152 613.891 858.898 610.079 867.681 L 609.36 869.361 C 608.511 867.944 607.671 866.51 606.98 865.008 C 604.397 859.4 603.761 853.444 606.182 847.641 C 609.535 839.606 616.509 835.887 624.113 832.792 z"/>
<path transform="translate(0,0)" fill="rgb(131,192,202)" d="M 810.211 627.062 C 810.541 627.067 810.872 627.067 811.202 627.078 C 815.936 627.234 820.614 629.295 823.46 633.322 C 825.133 635.689 824.872 636.418 824.44 639.081 C 821.129 643.937 812.087 647.838 806.926 650.862 C 803.204 653.02 799.279 654.885 795.448 656.847 C 795.69 652.201 795.718 647.174 796.93 642.662 C 799.012 634.913 803.521 631.017 810.211 627.062 z"/>
<path transform="translate(0,0)" fill="rgb(131,192,202)" d="M 940.982 793.899 L 942.265 794.412 C 942.398 795.492 942.5 795.765 942.26 796.986 C 940.798 804.446 933.456 811.668 927.686 816.223 C 918.304 823.629 908.473 823.854 897.075 822.612 C 895.725 821.622 894.961 820.784 894.032 819.392 C 896.363 814.351 934.087 796.925 940.982 793.899 z"/>
<path transform="translate(0,0)" fill="rgb(131,192,202)" d="M 608.392 1314.07 C 607.877 1315.14 607.62 1315.97 607.485 1317.15 C 607.281 1318.94 607.231 1320.93 606.263 1322.51 C 603.33 1327.31 596.141 1331.62 590.589 1332.28 C 583.947 1333.08 577.095 1330.53 572.004 1326.34 C 567.388 1322.53 561.74 1314.59 561.722 1308.34 C 561.714 1305.43 562.054 1305.04 563.966 1303.11 C 576.557 1300.49 574.794 1311.78 581.237 1314.19 C 586.54 1316.18 595.23 1310.85 600.271 1308.69 C 603.155 1310.35 605.778 1312.02 608.392 1314.07 z"/>
<path transform="translate(0,0)" fill="rgb(131,192,202)" d="M 799.344 910.511 C 799.835 910.927 800.396 911.273 800.816 911.761 C 804.89 916.501 813.936 959.447 812.759 967.097 C 809.858 971.457 806.501 972.343 801.602 973.478 C 801.117 973.234 800.624 973.004 800.146 972.746 C 792.443 968.587 788.338 943.554 786.041 934.882 C 790.217 926.683 794.36 918.243 799.344 910.511 z"/>
<path transform="translate(0,0)" fill="rgb(131,192,202)" d="M 803.652 1226.83 L 816.573 1203.77 C 821.017 1215.93 837.297 1256.48 831.514 1267.29 C 830.291 1269.57 828.328 1270.8 825.768 1271.04 C 823.424 1271.26 820.832 1270.59 819.139 1268.94 C 809.203 1259.28 811.746 1238.25 803.652 1226.83 z"/>
<path transform="translate(0,0)" fill="rgb(131,192,202)" d="M 1094.42 814.674 C 1099.24 820.092 1109.13 860.617 1110.87 869.512 C 1111.59 873.196 1113 878.088 1110.37 881.229 C 1107.71 884.402 1103.82 885.361 1099.95 886.098 C 1099.32 885.739 1098.7 885.383 1098.09 884.995 C 1089.72 879.627 1083.41 841.634 1081.13 830.772 C 1085.72 825.51 1090.18 820.225 1094.42 814.674 z"/>
<path transform="translate(0,0)" fill="rgb(131,192,202)" d="M 1489.39 1136.92 C 1491.96 1137.81 1494.21 1139.17 1495.73 1141.5 C 1502.75 1152.29 1510.59 1183.97 1507.9 1196.31 C 1506.94 1200.7 1502.95 1219.65 1499.84 1221.71 L 1499.12 1218.79 C 1496.17 1208.84 1488.16 1166.24 1482.8 1161.09 C 1480.21 1161.71 1478.22 1162.17 1475.53 1162.02 L 1474.26 1160.39 C 1473.65 1155.65 1474.84 1151.26 1475.78 1146.63 C 1480.07 1142.63 1484.32 1139.78 1489.39 1136.92 z"/>
<path transform="translate(0,0)" fill="rgb(131,192,202)" d="M 766.68 1120.31 C 764.484 1104.88 755.813 1078.14 749.452 1063.71 C 747.854 1063.25 746.252 1062.85 744.64 1062.45 C 744.535 1062.18 744.392 1061.92 744.327 1061.64 C 743.51 1058.09 746.575 1050.27 748.334 1047.15 C 749.646 1044.83 752.785 1042.68 755.42 1042.12 C 757.831 1041.6 760.028 1041.77 761.986 1043.41 C 768.703 1049.03 781.717 1106.47 783.361 1116.55 C 777.9 1117.72 771.99 1118.61 766.68 1120.31 z"/>
<path transform="translate(0,0)" fill="rgb(131,192,202)" d="M 512.464 1179.37 C 510.635 1170.49 510.158 1159.64 513.607 1151.14 C 515.773 1145.79 519.702 1141.52 525.048 1139.27 C 530 1137.2 540.669 1135.68 545.635 1138.25 C 554.057 1142.6 556.083 1159.47 558.85 1167.81 L 551.59 1169.51 C 542.672 1172.01 533.772 1174.62 524.74 1176.67 C 520.673 1177.58 516.568 1178.68 512.464 1179.37 z"/>
<path transform="translate(0,0)" fill="rgb(200,228,229)" d="M 524.74 1176.67 L 523.503 1176 C 522.269 1173.85 522.778 1171.41 523.278 1169.09 C 524.541 1163.22 528.338 1157.15 533.595 1154.06 C 536.105 1152.59 538.931 1151.93 541.722 1153.12 C 547.698 1155.68 549.788 1163.87 551.59 1169.51 C 542.672 1172.01 533.772 1174.62 524.74 1176.67 z"/>
<path transform="translate(0,0)" fill="rgb(131,192,202)" d="M 835.938 1104.6 C 834.4 1102.09 833.516 1099.05 832.604 1096.25 C 827.776 1081.45 824.535 1066.17 819.561 1051.36 C 817.97 1046.62 814.661 1043.16 813.15 1038.64 A 11.8829 11.8829 0 0 1 813.967 1029.23 C 815.41 1026.54 818.38 1023.79 821.414 1023.08 C 823.871 1022.5 826.4 1022.52 828.547 1024.05 C 835.924 1029.28 848.868 1089.47 852.368 1101.49 L 835.938 1104.6 z"/>
<path transform="translate(0,0)" fill="rgb(131,192,202)" d="M 538.335 560.623 C 540.288 560.754 541.417 560.963 543.139 561.908 C 549.486 574.265 563.395 621.583 565.981 635.888 C 566.745 640.113 566.966 643.975 565.657 648.083 C 564.697 649.128 563.897 650.503 562.463 650.871 C 559.121 651.729 555.794 649.875 553.128 648.067 C 545.264 628.349 542.759 606.307 534.711 586.863 C 532.655 581.895 528.117 587.121 523.521 585.218 C 521.938 582.978 521.627 582.714 521.554 580.009 C 525.509 572.93 532.313 566.064 538.335 560.623 z"/>
<path transform="translate(0,0)" fill="rgb(131,192,202)" d="M 541.597 855.905 C 544.849 855.988 547.412 856.056 549.875 858.555 C 553.328 862.058 576.858 936.92 576.526 944.147 C 575.067 947.328 572.732 948.956 570.081 951.082 C 567.695 950.981 563.926 951.083 562.068 949.354 C 552.681 940.62 548.003 889.01 537.957 878.241 C 535.528 875.637 534.126 873.615 534.16 869.942 C 534.215 863.974 537.763 860.053 541.597 855.905 z"/>
<path transform="translate(0,0)" fill="rgb(131,192,202)" d="M 604.885 1385.9 C 606.734 1385.87 609.276 1385.58 611.049 1386.01 C 613.062 1386.51 613.998 1387.63 614.99 1389.33 C 620.417 1398.64 637.281 1459.64 634.538 1469 C 632.329 1471.73 629.471 1472.52 626.302 1473.72 C 625.169 1473.46 624.074 1473.25 622.988 1472.8 C 620.987 1471.97 619.67 1470.6 618.828 1468.62 C 614.277 1457.92 611.848 1445.51 608.582 1434.33 C 605.023 1422.14 600.491 1410.5 595.678 1398.78 C 598.271 1393.6 600.412 1389.75 604.885 1385.9 z"/>
<path transform="translate(0,0)" fill="rgb(131,192,202)" d="M 867.983 1162.83 C 869.607 1162.94 871.413 1162.97 872.99 1163.38 C 875.455 1164.02 877.261 1165.74 878.3 1168.03 C 882.858 1178.05 902.791 1238.77 899.655 1246.04 C 898.013 1249.85 894.758 1251.28 891.091 1252.52 C 888.958 1251.87 886.4 1251.28 884.84 1249.56 C 873.456 1237.06 874.995 1194.68 857.073 1176.18 C 860.454 1171.1 863.506 1167.01 867.983 1162.83 z"/>
<path transform="translate(0,0)" fill="rgb(131,192,202)" d="M 835.506 471.054 C 838.375 471.06 841.695 470.719 844.343 471.953 C 846.142 472.792 847.26 475.468 847.959 477.22 C 851.166 485.254 852.497 494.084 854.892 502.397 C 858.786 515.912 863.558 529.174 867.386 542.707 C 868.866 547.942 870.695 556.104 867.371 560.937 C 865.334 563.899 862.298 564.351 859.005 565.08 C 845.995 555.788 843.233 509.045 834.293 493.17 C 831.35 492.965 829.576 492.953 827.223 490.924 C 826.288 488.759 825.673 487.048 826.04 484.644 C 826.87 479.199 831.292 474.257 835.506 471.054 z"/>
<path transform="translate(0,0)" fill="rgb(131,192,202)" d="M 913.58 1300.13 L 914.744 1300.12 C 919.176 1300.13 921.842 1300 925.095 1303.23 C 927.432 1311.29 948.348 1376.5 947.585 1378.84 C 946.38 1382.53 942.839 1383.65 939.592 1385.08 C 936.705 1384.99 934.195 1384.69 931.364 1384.12 C 930.725 1383.6 929.967 1383.2 929.446 1382.56 C 927.149 1379.74 908.789 1320.71 904.557 1309.74 C 907.071 1305.42 909.233 1302.67 913.58 1300.13 z"/>
<path transform="translate(0,0)" fill="rgb(131,192,202)" d="M 888.714 1003.85 C 890.379 1004.19 892.112 1004.51 893.623 1005.34 C 902.293 1010.06 919.431 1073.89 922.862 1086.48 C 919.612 1089.2 916.659 1091.21 912.806 1092.99 C 911.353 1093.02 909.386 1093.22 907.992 1092.86 C 905.176 1092.14 904.216 1090.54 902.959 1088.11 C 892.79 1068.49 893.083 1036.92 878.878 1017.41 C 881.391 1011.59 883.312 1007.42 888.714 1003.85 z"/>
<path transform="translate(0,0)" fill="rgb(131,192,202)" d="M 935.455 1142.81 C 936.632 1142.9 937.861 1142.94 938.993 1143.33 C 942.677 1144.62 944.941 1148.99 946.438 1152.27 C 950.552 1161.29 968.93 1216.02 967.645 1222.98 C 967.447 1224.05 966.9 1225.03 966.528 1226.05 C 963.675 1228.95 960.815 1230.1 957.087 1231.63 C 956.775 1231.58 956.461 1231.54 956.151 1231.48 C 953.402 1230.93 951.955 1230.16 950.503 1227.75 C 947.413 1222.61 945.876 1215.87 944.189 1210.15 C 938.659 1191.43 934.68 1171.28 923.351 1155.09 C 926.807 1149.76 930.179 1146.4 935.455 1142.81 z"/>
<path transform="translate(0,0)" fill="rgb(131,192,202)" d="M 849.124 859.897 C 850.904 859.955 853.987 859.887 855.216 861.235 C 859.021 865.411 877.572 936.543 877.749 945.068 C 874.566 950.107 869.733 950.848 864.318 952.248 C 863.992 951.984 863.638 951.752 863.34 951.457 C 856.693 944.848 848.115 903.539 845.097 892.11 C 843.91 887.615 836.433 877.676 836.457 877.165 C 836.759 870.841 844.475 863.666 849.124 859.897 z"/>
<path transform="translate(0,0)" fill="rgb(131,192,202)" d="M 1047.82 1259.13 C 1048.7 1259.25 1049.57 1259.36 1050.44 1259.54 C 1053.12 1260.08 1056.35 1261.24 1057.59 1263.87 C 1060.82 1270.76 1061.62 1280.71 1063.71 1288.22 C 1068.08 1303.93 1073.56 1319.37 1077.62 1335.17 C 1078.31 1337.84 1079.59 1341.08 1078.93 1343.83 C 1076.34 1346.84 1072.87 1348 1069.31 1349.53 L 1066.08 1349.01 C 1063.51 1347.23 1062.04 1345.26 1060.63 1342.5 C 1056.05 1333.53 1036.57 1273.96 1039.49 1266.48 C 1041.08 1262.43 1044.13 1260.89 1047.82 1259.13 z"/>
<path transform="translate(0,0)" fill="rgb(131,192,202)" d="M 1001.77 1121.14 C 1005.59 1120.75 1008.5 1120.39 1011.84 1122.55 C 1017.08 1133 1037.25 1196.47 1034.7 1203.93 C 1033.44 1207.63 1028.71 1209.73 1025.5 1211.29 C 1022.99 1211.06 1020.94 1210.37 1019.25 1208.38 C 1013.7 1201.83 1007.03 1164.28 1002.17 1153.03 C 999.977 1147.96 992.175 1138.07 992.988 1133.13 C 993.896 1127.6 997.615 1124.47 1001.77 1121.14 z"/>
<path transform="translate(0,0)" fill="rgb(131,192,202)" d="M 1264.26 894.011 C 1267.23 894.434 1270.02 894.812 1271.78 897.524 C 1276.18 904.283 1296.07 970.172 1293.96 975.778 C 1292.53 979.567 1288.47 981.602 1285.16 983.398 C 1281.94 982.96 1279.96 982.764 1277.42 980.515 C 1274.92 975.427 1255.96 914.637 1254.64 907.159 C 1254.27 905.064 1254.37 903.465 1255.13 901.501 C 1256.78 897.223 1260.38 895.842 1264.26 894.011 z"/>
<path transform="translate(0,0)" fill="rgb(131,192,202)" d="M 982.441 1278.81 C 984.898 1279.4 986.399 1279.89 988.148 1281.8 C 992.435 1286.47 1014.66 1354.36 1013.03 1360.5 C 1011.92 1364.66 1007.1 1367.55 1003.84 1369.85 C 1002.47 1369.43 1000.98 1368.98 999.717 1368.3 C 992.414 1364.4 974.581 1299.83 971.089 1287.82 C 974.505 1283.79 977.542 1280.96 982.441 1278.81 z"/>
<path transform="translate(0,0)" fill="rgb(131,192,202)" d="M 509.321 714.681 C 510.903 714.89 512.181 715.26 513.695 715.736 C 522.313 725.572 537.298 785.128 539.6 799.932 C 540.338 804.677 540.938 807.901 537.986 811.937 C 534.744 813.678 532.298 813.896 528.653 814.09 C 521.035 804.681 509.511 753.476 504.843 738.387 C 501.412 736.165 498.396 733.644 495.314 730.967 C 499.358 723.956 502.191 719.057 509.321 714.681 z"/>
<path transform="translate(0,0)" fill="rgb(131,192,202)" d="M 649.075 675.1 C 651.769 674.956 655.666 674.555 658.064 676.042 C 665.257 680.504 680.496 744.526 683.821 756.339 C 679.589 761.551 675.47 767.019 670.808 771.848 L 670.059 770.653 C 665.461 757.141 653.994 705.869 646.713 698.319 C 645.748 697.319 640.961 699.455 639.129 699.578 C 638.357 698.98 637.191 698.15 636.632 697.368 C 635.747 696.129 634.976 694.247 635.203 692.709 C 636.184 686.044 644.103 679.228 649.075 675.1 z"/>
<path transform="translate(0,0)" fill="rgb(131,192,202)" d="M 1194.18 912.969 C 1197.25 912.953 1200.88 913.011 1203.21 915.366 C 1207.74 919.938 1228.96 986.745 1227.44 994.825 C 1226.69 998.807 1221.78 1001.09 1218.69 1002.95 C 1216.15 1002.71 1214.73 1002.38 1212.83 1000.56 C 1207.9 995.814 1184.36 927.113 1185.29 920.855 C 1185.76 917.684 1191.7 914.491 1194.18 912.969 z"/>
<path transform="translate(0,0)" fill="rgb(131,192,202)" d="M 1278.24 1191.9 C 1278.64 1191.96 1279.03 1192 1279.42 1192.07 C 1283.2 1192.71 1286.51 1193.41 1288.66 1196.93 C 1291.98 1202.38 1311.43 1275.36 1310.44 1278.24 C 1309.04 1282.33 1306.08 1283.67 1302.43 1285.37 C 1299.57 1284.27 1296.59 1283.18 1294.59 1280.74 C 1289.93 1275.07 1267.82 1206.1 1269.41 1199.45 C 1270.31 1195.71 1275.25 1193.57 1278.24 1191.9 z"/>
<path transform="translate(0,0)" fill="rgb(131,192,202)" d="M 1345.13 1172.56 C 1346.85 1172.74 1349.03 1172.82 1350.63 1173.47 C 1353.39 1174.57 1354.86 1176.73 1356.07 1179.31 C 1360.99 1189.89 1381.21 1252.23 1377.65 1260.33 C 1376.51 1262.92 1373.58 1263.91 1371.17 1265.01 C 1367.77 1265.15 1365.03 1265.51 1361.92 1263.85 C 1359.77 1260.79 1337.56 1188.37 1337.36 1184.43 C 1337.17 1180.61 1342.72 1175.32 1345.13 1172.56 z"/>
<path transform="translate(0,0)" fill="rgb(131,192,202)" d="M 1304.16 1033.98 C 1306.25 1034.07 1309.46 1034.33 1310.88 1036 C 1315.82 1041.8 1338.09 1110.51 1336.55 1117.52 C 1335.72 1121.34 1330.92 1123.64 1327.9 1125.4 C 1323.83 1124.99 1320.56 1124.65 1317.91 1121.06 C 1314.26 1116.1 1293.77 1047.28 1295.25 1042.15 C 1296.39 1038.19 1300.92 1035.92 1304.16 1033.98 z"/>
<path transform="translate(0,0)" fill="rgb(131,192,202)" d="M 1220.87 752.1 C 1224.76 751.814 1228.52 751.458 1231.9 753.659 C 1236.38 760.072 1256.65 827.785 1255.11 834.614 C 1254.14 838.93 1251.2 841.068 1247.91 843.65 C 1245.17 843.964 1242.89 844.48 1240.54 842.599 C 1235.76 838.779 1214.16 769.382 1214.69 760.935 C 1214.97 756.418 1217.64 754.759 1220.87 752.1 z"/>
<path transform="translate(0,0)" fill="rgb(131,192,202)" d="M 1234.02 1053.05 C 1237.71 1052.92 1241.91 1052.84 1244.71 1055.63 C 1248.98 1059.88 1270 1129.17 1268.98 1136.25 C 1268.4 1140.23 1265.7 1141.57 1262.6 1143.58 C 1262 1143.63 1261.39 1143.69 1260.79 1143.74 C 1257.26 1143.99 1254.08 1143.16 1251.5 1140.62 C 1247.68 1136.86 1227.62 1071.09 1227.58 1063.31 C 1227.56 1058.81 1231 1055.82 1234.02 1053.05 z"/>
<path transform="translate(0,0)" fill="rgb(131,192,202)" d="M 1385.84 1005.29 C 1391.01 1005.82 1396.37 1006.51 1400.99 1009.12 C 1407.67 1012.89 1410.17 1018.64 1412.3 1025.66 C 1409.4 1031.95 1405.6 1037.95 1402.13 1043.96 C 1400.2 1036.88 1399.02 1027.37 1392.82 1022.83 C 1390.35 1021.03 1387.08 1019.91 1384.02 1020.71 C 1381.48 1021.38 1380.3 1023.14 1378.9 1025.18 C 1376.96 1034.66 1384.23 1054.5 1386.59 1064.86 C 1390.27 1075.67 1381.65 1085.28 1378.14 1095.25 L 1377.69 1096.55 C 1372.59 1078.75 1365.52 1061.06 1361.52 1043.02 C 1359.54 1034.07 1359 1024.26 1364.39 1016.33 C 1369.58 1008.69 1377.29 1006.71 1385.84 1005.29 z"/>
<path transform="translate(0,0)" fill="rgb(131,192,202)" d="M 731.774 650.272 C 734.811 650.086 737.753 650.026 740.771 650.5 C 749.994 651.949 759.367 658.313 764.599 665.987 C 766.855 669.297 768.016 672.97 767.137 676.968 C 765.677 683.602 754.315 688.076 748.791 691.384 C 747.466 683.95 746.587 676.428 741.248 670.659 C 739.265 668.515 736.921 666.946 733.893 666.967 C 732.14 666.979 730.323 668.02 729.403 669.538 C 727.168 673.228 727.132 678.138 727.922 682.208 C 729.622 690.21 731.926 697.969 734.286 705.795 C 729.56 711.469 723.453 716.061 717.796 720.782 C 713.486 704.024 702.917 678.183 712.967 662.085 C 717.328 655.1 724.025 652.041 731.774 650.272 z"/>
<path transform="translate(0,0)" fill="rgb(131,192,202)" d="M 703.263 1453.32 C 695.718 1451.2 686.818 1449.35 681.836 1442.73 C 674.108 1432.46 661.851 1392.04 663.595 1379.47 C 664.209 1375.05 666.002 1370.15 669.826 1367.53 C 673.28 1365.17 676.109 1364.99 680.065 1365.9 C 681.901 1366.32 683.507 1366.72 685.404 1366.73 C 685.928 1366.73 686.451 1366.71 686.974 1366.71 C 694.899 1370.65 714.978 1382.52 721.52 1387.76 C 718.685 1394.44 727.36 1411.86 729.376 1419.18 C 731.15 1425.62 732.274 1433.22 728.547 1439.21 C 723.33 1447.6 712.328 1451.16 703.263 1453.32 z"/>
<path transform="translate(0,0)" fill="rgb(200,228,229)" d="M 681.993 1374.05 C 685.941 1373.85 689.596 1373.73 693.52 1374.26 C 701.887 1381.67 710.651 1414.04 711.466 1425.48 C 711.8 1430.16 710.338 1432.34 707.391 1435.7 C 705.324 1436.37 702.752 1437.22 700.74 1436.04 C 694.489 1432.38 691.159 1420.32 689.046 1413.75 C 685.938 1404.07 677.47 1382.85 681.993 1374.05 z"/>
<path transform="translate(0,0)" fill="rgb(131,192,202)" d="M 1431.42 1151.22 C 1435.78 1151.21 1440.12 1152.09 1443.97 1154.18 C 1455.6 1160.49 1460.2 1173.71 1463.39 1185.71 C 1467.12 1199.78 1472.98 1220.2 1464.67 1233.6 C 1460.09 1240.98 1453.95 1243.65 1445.76 1245.48 C 1439.98 1245.25 1433.53 1245.51 1428.41 1242.43 C 1417.15 1235.66 1409.8 1202.54 1407.33 1190.02 C 1405.41 1180.26 1405.84 1170.47 1411.77 1162.09 C 1416.95 1154.76 1422.9 1152.7 1431.42 1151.22 z"/>
<path transform="translate(0,0)" fill="rgb(200,228,229)" d="M 1430.14 1167.83 C 1432.18 1167.99 1434.22 1168.39 1435.9 1169.68 C 1442.29 1174.58 1451.66 1211.79 1451.4 1220.58 C 1451.25 1225.36 1449.42 1227.49 1446.01 1230.64 C 1443.67 1229.97 1441.56 1229.31 1439.83 1227.47 C 1434.68 1221.99 1423.5 1184.62 1423.94 1176.91 C 1424.2 1172.55 1427.1 1170.48 1430.14 1167.83 z"/>
<path transform="translate(0,0)" fill="rgb(131,192,202)" d="M 762.423 1340.12 C 767.381 1340.06 771.841 1340.33 776.441 1342.36 C 785.843 1346.51 791.649 1355.29 795.119 1364.61 C 800.724 1379.67 809.8 1403.69 802.387 1418.96 C 798.563 1426.84 793.031 1430.21 784.988 1432.98 C 778.785 1433.87 772.388 1434.02 766.453 1431.69 C 759.044 1428.78 754.649 1422.33 751.937 1415.11 C 745.84 1398.88 736.578 1371.92 744.07 1355.63 C 747.749 1347.63 754.308 1342.94 762.423 1340.12 z"/>
<path transform="translate(0,0)" fill="rgb(200,228,229)" d="M 765.999 1354.16 C 768.937 1354.79 771.041 1355.93 772.68 1358.56 C 778.697 1368.2 789.288 1401.23 786.059 1411.91 C 784.704 1416.39 781.479 1418.15 777.674 1420.35 C 776.201 1419.92 774.807 1419.2 773.404 1418.57 C 770.442 1415.26 769.143 1411.26 767.825 1407.08 C 764.488 1396.51 752.689 1367.11 758.733 1357.87 C 760.405 1355.32 763.249 1354.83 765.999 1354.16 z"/>
<path transform="translate(0,0)" fill="rgb(131,192,202)" d="M 1341.69 868.208 C 1348.12 867.68 1353.78 867.462 1359.46 870.974 C 1376.9 881.748 1382.68 919.493 1387.13 938.663 A 67.8678 67.8678 0 0 1 1386.33 940.794 C 1382.09 951.455 1375.05 956.263 1364.87 960.516 C 1358.04 961.282 1352.01 961.499 1345.56 958.596 C 1337.87 955.137 1332.93 947.45 1330.32 939.704 C 1325.48 925.31 1315.32 894.655 1322.55 881.361 C 1326.67 873.765 1333.93 870.747 1341.69 868.208 z"/>
<path transform="translate(0,0)" fill="rgb(200,228,229)" d="M 1340.31 883.709 C 1343.81 883.738 1346.62 883.696 1349.53 885.993 C 1356.11 891.2 1367.64 929.708 1367.28 938.516 C 1367.14 942.043 1365.83 943.02 1363.54 945.371 C 1360.24 945.714 1356.59 946.201 1353.59 944.403 C 1349.61 942.011 1338.61 898.92 1337.76 892.383 C 1337.27 888.569 1338 886.69 1340.31 883.709 z"/>
<path transform="translate(0,0)" fill="rgb(131,192,202)" d="M 1422.27 840.208 C 1428.25 839.928 1433.4 839.988 1438.85 842.771 C 1449.43 848.17 1453.35 859.776 1456.97 870.309 C 1462.02 885.021 1470.59 906.208 1462.83 920.981 C 1458.44 929.348 1452.73 931.802 1444.19 934.345 C 1438.81 934.883 1433.56 935.331 1428.36 933.526 C 1421.19 931.041 1417.52 925.826 1414.34 919.249 C 1408.56 907.28 1395.96 870.024 1400.62 857.842 C 1404.34 848.13 1413.31 843.918 1422.27 840.208 z"/>
<path transform="translate(0,0)" fill="rgb(200,228,229)" d="M 1424.03 855.796 C 1426.45 855.818 1428.73 855.587 1430.58 857.458 C 1437.08 864.038 1447.42 901.877 1446.75 910.784 C 1446.42 915.231 1444.3 917.345 1440.97 920.024 C 1438.62 919.486 1436.66 918.861 1434.88 917.12 C 1428.64 910.997 1418.67 872.292 1418.11 862.498 C 1418.88 859.374 1421.65 857.738 1424.03 855.796 z"/>
<path transform="translate(0,0)" fill="rgb(131,192,202)" d="M 835.08 1320.14 C 840.311 1319.71 844.908 1319.83 849.838 1321.86 C 858.606 1325.46 863.706 1333.34 866.934 1341.92 C 872.232 1356.01 883.738 1385.76 877.05 1399.43 C 872.762 1408.19 865.214 1411.65 856.487 1414.56 L 855.237 1414.7 C 847.143 1415.55 841.326 1414.56 834.952 1409.14 C 821.019 1397.29 812.414 1357.77 810.945 1339.82 C 811.765 1337.93 812.591 1336.02 813.602 1334.22 C 818.372 1325.75 826.281 1322.73 835.08 1320.14 z"/>
<path transform="translate(0,0)" fill="rgb(200,228,229)" d="M 834.599 1335 C 836.324 1334.97 838.065 1334.98 839.786 1335.13 C 842.164 1335.34 843.674 1335.66 845.177 1337.7 C 849.742 1343.9 863.02 1386.3 861.205 1393.13 C 860.084 1397.35 857.342 1399.03 853.9 1401.28 C 851.592 1400.93 849.317 1400.56 847.443 1399.03 C 844.189 1396.37 828.005 1345.62 828.32 1342.59 C 828.693 1339.02 831.888 1336.81 834.599 1335 z"/>
<path transform="translate(0,0)" fill="rgb(131,192,202)" d="M 1118.74 934.194 L 1120.01 934.048 C 1128.22 933.181 1135.2 934.335 1141.64 939.833 C 1153.09 949.612 1162.75 992.621 1164.32 1008.22 C 1163.61 1010.03 1162.87 1011.83 1162 1013.56 C 1157.52 1022.48 1151.84 1026.69 1142.59 1029.97 C 1137.19 1030.94 1132.57 1031.2 1127.39 1029.05 C 1118.82 1025.48 1113.18 1017.51 1109.85 1009.15 C 1104.91 996.754 1092.5 962.824 1098.45 950.072 C 1102.99 940.344 1109.14 937.456 1118.74 934.194 z"/>
<path transform="translate(0,0)" fill="rgb(200,228,229)" d="M 1119.67 949.959 C 1122.48 949.874 1125.68 949.308 1128.17 950.824 C 1134.04 958.461 1144.94 996.173 1144.22 1005.87 C 1143.93 1009.77 1142.16 1011.7 1139.37 1014.2 C 1136.04 1014.15 1133.54 1014.01 1131.01 1011.47 C 1127.75 1008.21 1113.85 961.551 1114.67 956.255 C 1115.16 953.081 1117.41 951.919 1119.67 949.959 z"/>
<path transform="translate(0,0)" fill="rgb(131,192,202)" d="M 925.126 840.252 C 929.461 840.074 934.426 840.558 938.389 842.418 C 949.198 847.493 954.125 858.634 957.653 869.313 C 962.479 883.917 970.403 906.641 962.477 921.279 C 957.719 930.067 950.665 932.969 941.616 935.584 C 935.193 935.369 928.319 934.509 922.862 930.82 C 909.82 922.005 903.95 895.655 900.844 880.682 C 898.737 870.523 899.431 860.173 905.535 851.444 C 910.578 844.232 916.656 841.574 925.126 840.252 z"/>
<path transform="translate(0,0)" fill="rgb(200,228,229)" d="M 923.943 853.845 C 926.81 854.302 928.705 854.534 930.912 856.633 C 936.615 862.057 947.576 903.033 947.198 911.464 C 945.563 914.872 943.141 916.709 940.278 919.099 C 938.123 919.224 935.172 919.307 933.573 917.606 C 928.616 912.332 915.812 870.424 916.81 861.828 C 917.266 857.896 920.947 855.742 923.943 853.845 z"/>
<path transform="translate(0,0)" fill="rgb(131,192,202)" d="M 1206.82 1211.25 C 1210.55 1211.43 1214.66 1212.01 1218.08 1213.57 C 1227.44 1217.84 1232.78 1227.1 1235.86 1236.53 C 1240.52 1250.77 1251.46 1279.85 1243.76 1293.79 C 1239.22 1302.01 1231.19 1304.94 1222.64 1307.14 C 1215.29 1306.98 1208.25 1306.59 1201.97 1302.28 C 1198.19 1299.68 1195.39 1296.2 1193.4 1292.1 C 1189.1 1283.24 1183.01 1258.12 1180.92 1247.9 C 1179.18 1239.38 1179.61 1230.3 1184.77 1222.99 C 1190.12 1215.41 1198.12 1212.79 1206.82 1211.25 z"/>
<path transform="translate(0,0)" fill="rgb(200,228,229)" d="M 1203.86 1228.01 C 1207.17 1228.06 1209.94 1227.8 1212.76 1229.79 C 1217.81 1236.58 1229.11 1277.58 1228.67 1286.23 C 1227.42 1289.23 1225.84 1290.37 1223.32 1292.21 C 1220.08 1292.08 1216.22 1292.34 1213.68 1289.99 C 1209.02 1285.67 1199.46 1242.89 1198.6 1234.65 C 1199.43 1231.4 1201.41 1230.06 1203.86 1228.01 z"/>
<path transform="translate(0,0)" fill="rgb(131,192,202)" d="M 968.306 977.177 C 973.004 977.442 978.328 979.111 982.223 981.776 C 996.497 991.545 1004.08 1021.18 1006.92 1037.74 C 1008.5 1046.97 1007.24 1055.89 1001.57 1063.57 C 996.758 1070.08 990.611 1073.11 982.795 1074.47 C 976.238 1074.02 970.743 1073.23 965.08 1069.54 C 961.725 1067.35 958.665 1064.39 956.571 1060.96 C 951.634 1052.87 944.15 1026.11 942.023 1015.93 C 940.18 1007.1 940.339 997.145 945.645 989.469 C 951.085 981.599 959.437 979.043 968.306 977.177 z"/>
<path transform="translate(0,0)" fill="rgb(200,228,229)" d="M 963.712 992.818 C 966.015 992.664 969.603 992.322 971.493 993.884 C 977.258 998.648 989.236 1040.41 989.871 1049.2 C 990.191 1053.63 987.537 1056.03 984.746 1059.02 C 984.281 1059.04 983.817 1059.08 983.352 1059.08 C 980.149 1059.13 977.566 1058.9 975.279 1056.42 C 970.588 1051.32 957.373 1005.87 958.674 999.068 C 959.311 995.738 961.276 994.814 963.712 992.818 z"/>
<path transform="translate(0,0)" fill="rgb(131,192,202)" d="M 580.527 693.164 C 584.422 692.766 588.253 692.582 592.027 693.839 C 601.174 696.886 607.503 705.093 611.421 713.523 C 618.546 728.855 628.282 756.899 621.814 773.467 C 618.232 782.64 612.664 787.022 603.832 790.634 C 598.064 791.093 592.276 791.553 586.809 789.246 C 578.347 785.674 572.984 776.679 569.635 768.547 C 563.15 752.797 554.126 725.661 561.41 709.078 C 565.445 699.891 571.593 696.431 580.527 693.164 z"/>
<path transform="translate(0,0)" fill="rgb(200,228,229)" d="M 581.958 708.787 C 585.142 709.095 586.735 708.886 589.29 711.145 C 596.186 717.24 606.519 754.776 606.389 764.495 C 606.321 769.568 603.938 772.498 600.497 775.941 C 599.124 776.115 597.344 776.499 595.982 776.331 C 593.624 776.041 592.879 775.2 591.638 773.268 C 586.116 764.671 573.841 724.926 576.539 715.085 C 577.457 711.739 579.229 710.567 581.958 708.787 z"/>
<path transform="translate(0,0)" fill="rgb(131,192,202)" d="M 1042.95 955.226 C 1048.91 955.136 1054.71 956.198 1059.84 959.358 C 1072.59 967.206 1080.3 999.975 1083.31 1014.24 C 1085.17 1023.09 1084.83 1032.99 1079.52 1040.65 C 1074.67 1047.63 1067.44 1049.99 1059.47 1051.45 C 1053.38 1051.78 1047.82 1051.43 1042.42 1048.3 C 1030.05 1041.11 1023.83 1015.29 1020.32 1001.87 C 1017.42 990.787 1015.68 978.399 1022.05 968.149 C 1026.86 960.417 1034.38 957.148 1042.95 955.226 z"/>
<path transform="translate(0,0)" fill="rgb(200,228,229)" d="M 1041.48 971.037 C 1044.37 971.156 1048.43 971.131 1050.59 973.359 C 1055.79 978.732 1066.62 1020.16 1066.31 1027.83 C 1066.14 1031.82 1064.51 1033.73 1061.66 1036.2 C 1058.37 1036.05 1054.54 1036.39 1051.98 1033.97 C 1046.73 1029.01 1035.98 987.019 1036.68 978.73 C 1037.01 974.89 1038.75 973.358 1041.48 971.037 z"/>
<path transform="translate(0,0)" fill="rgb(131,192,202)" d="M 1151.13 769.265 C 1155.6 768.954 1160.16 768.489 1164.57 769.556 C 1173.09 771.619 1178.68 776.035 1183 783.534 C 1190.1 795.838 1202.3 832.056 1198.25 845.598 C 1195.22 855.722 1188.84 861.151 1179.81 865.783 C 1173.32 866.276 1166.47 866.875 1160.2 864.737 C 1154.03 862.633 1151.02 858.518 1148.13 852.9 C 1140.97 838.965 1129.38 800.979 1134.58 786.097 C 1137.66 777.279 1142.84 773.013 1151.13 769.265 z"/>
<path transform="translate(0,0)" fill="rgb(200,228,229)" d="M 1155.64 784.755 C 1158.41 784.732 1160.56 784.54 1163.04 786.004 C 1168.68 793.827 1181.39 834.5 1180.16 843.253 C 1179.58 847.389 1176.25 849.686 1173.27 852.201 C 1171.05 851.579 1169.54 850.787 1167.85 849.17 C 1162.45 844.014 1150.08 800.984 1150.77 793.042 C 1151.1 789.189 1152.87 787.214 1155.64 784.755 z"/>
<path transform="translate(0,0)" fill="rgb(131,192,202)" d="M 1081.64 1095.11 C 1087.62 1095.14 1093.75 1095.87 1099.13 1098.64 C 1108.54 1103.48 1112.82 1114.08 1115.9 1123.66 C 1120.21 1137.07 1130.03 1164.08 1123.08 1176.98 C 1118.76 1185.01 1111.09 1188.4 1102.76 1190.88 C 1097.22 1191.71 1092.36 1192.06 1087.11 1189.73 C 1078.46 1185.91 1073.41 1177.64 1070.29 1169.06 C 1064.94 1154.33 1053.02 1124.72 1060.01 1110.74 C 1064.37 1102.04 1072.83 1098.03 1081.64 1095.11 z"/>
<path transform="translate(0,0)" fill="rgb(200,228,229)" d="M 1080.83 1111.55 C 1081.47 1111.54 1082.11 1111.51 1082.75 1111.51 C 1085.62 1111.5 1087.67 1112.17 1089.67 1114.31 C 1096.45 1121.54 1107.66 1157.86 1107.18 1167.86 C 1107 1171.76 1105.41 1172.97 1102.69 1175.36 C 1101.75 1175.56 1101.49 1175.64 1100.39 1175.76 C 1098.08 1176 1095.35 1176.56 1093.52 1174.88 C 1087.96 1169.75 1078.21 1129.02 1077.46 1120.28 C 1077.1 1116.21 1078.4 1114.52 1080.83 1111.55 z"/>
<path transform="translate(0,0)" fill="rgb(131,192,202)" d="M 469.044 875.254 C 474.96 874.823 480.756 874.667 486.417 876.735 C 495.541 880.068 500.527 887.846 504.214 896.418 C 510.691 911.476 519.072 937.038 512.384 952.894 C 508.655 961.735 502.675 966.557 493.955 970.117 C 488.847 971.013 483.771 971.241 478.787 969.546 C 469.5 966.387 463.148 958.85 459.26 950.11 C 452.751 935.478 444.868 907.488 450.896 892.416 C 454.605 883.142 460.175 879.045 469.044 875.254 z"/>
<path transform="translate(0,0)" fill="rgb(200,228,229)" d="M 471.614 890.805 C 475.042 890.792 477.583 890.62 480.129 893.325 C 487.431 901.082 497.449 936.093 497.111 946.977 C 495.7 950.381 492.934 951.865 490.026 953.877 C 488.971 954.045 488.095 954.218 487.007 954.235 C 484.532 954.274 482.714 953.177 481.086 951.412 C 474.057 943.786 465.118 910.261 466.111 899.819 C 466.523 895.484 468.254 893.356 471.614 890.805 z"/>
<path transform="translate(0,0)" fill="rgb(131,192,202)" d="M 1386.46 702.285 C 1391.65 702.208 1396.79 703.181 1401.33 705.782 C 1415.3 713.773 1424.1 747.246 1427.87 762.504 C 1429.9 770.711 1429.68 779.635 1425.08 786.973 C 1420.33 794.535 1412.66 797.976 1404.25 799.808 C 1397.99 800.116 1392.66 799.6 1387.18 796.239 C 1373.76 787.998 1364.8 752.906 1361.75 737.581 C 1360.06 729.104 1360.59 720.328 1365.83 713.132 C 1370.88 706.19 1378.3 703.436 1386.46 702.285 z"/>
<path transform="translate(0,0)" fill="rgb(200,228,229)" d="M 1381.2 720.125 C 1384.31 719.846 1387.08 719.814 1390.18 720.12 C 1398.44 725.249 1407.1 759.834 1409.27 770.062 C 1410.31 774.997 1409.57 777.855 1406.83 782.054 C 1403.74 783.163 1401.61 784.128 1398.28 783.299 C 1394.96 781.119 1393.76 777.696 1392.36 774.13 C 1388.55 764.404 1377.27 729.268 1381.2 720.125 z"/>
<path transform="translate(0,0)" fill="rgb(131,192,202)" d="M 1303.42 726.167 C 1309.66 725.97 1315.39 726.825 1320.73 730.292 C 1324.49 732.727 1327.47 735.875 1329.59 739.817 C 1335.34 750.537 1340.92 774.422 1343.57 786.736 C 1345.31 794.812 1344.83 803.717 1340.02 810.7 C 1334.92 818.105 1326.75 821.108 1318.25 822.607 C 1313.2 822.882 1307.64 821.853 1303.16 819.464 C 1289.17 812.004 1284.49 788.897 1280.49 774.587 C 1277.52 763.942 1273.41 751.24 1279.47 741.016 C 1284.87 731.913 1293.68 728.593 1303.42 726.167 z"/>
<path transform="translate(0,0)" fill="rgb(200,228,229)" d="M 1300.44 742.92 C 1301.95 742.835 1303.5 742.706 1305 742.788 C 1307.44 742.922 1308.98 743.126 1310.4 745.298 C 1314.67 751.836 1325.92 794.033 1324.98 801.284 C 1323.35 804.474 1320.81 805.942 1317.93 807.94 C 1316.07 807.367 1314.88 806.94 1313.37 805.638 C 1307.93 800.927 1296 760.842 1295.79 752.856 C 1295.67 748.46 1297.52 745.972 1300.44 742.92 z"/>
<path transform="translate(0,0)" fill="rgb(131,192,202)" d="M 1125.98 1233.12 C 1131.97 1233.17 1139.17 1235.54 1144.15 1238.83 C 1156.19 1246.8 1163.8 1281.4 1166.5 1295.63 C 1168.14 1304.28 1168.13 1314.34 1162.66 1321.72 C 1157.55 1328.62 1150.06 1330.52 1142.05 1331.69 A 29.4726 29.4726 0 0 1 1129.92 1329.6 C 1121.1 1326.08 1116.45 1319.47 1112.97 1310.89 C 1107.03 1296.25 1096.43 1264.02 1102.98 1249.79 C 1107.51 1239.96 1116.42 1236.4 1125.98 1233.12 z"/>
<path transform="translate(0,0)" fill="rgb(200,228,229)" d="M 1123.42 1249.99 C 1127.38 1249.81 1130.81 1249.4 1134.13 1251.98 C 1138.01 1260.22 1151.02 1302.59 1150.69 1309.29 C 1150.54 1312.38 1147.82 1314.71 1145.81 1316.86 C 1142.49 1316.88 1139.52 1316.77 1136.84 1314.52 C 1128.91 1307.88 1118.95 1268.67 1119.08 1258.17 C 1119.13 1254.17 1120.72 1252.58 1123.42 1249.99 z"/>
<path transform="translate(0,0)" fill="rgb(131,192,202)" d="M 505.876 1008.23 C 512.62 1007.84 519.501 1007.71 525.686 1010.82 C 533.123 1014.55 537.014 1022.43 539.677 1029.95 C 545.303 1045.84 553.853 1073.62 546.013 1089.27 C 542.209 1096.86 536.739 1100.31 528.891 1102.89 C 521.943 1104.2 515.357 1104.67 508.799 1101.56 C 500.609 1097.67 496.147 1089.68 493.418 1081.39 C 490.252 1071.76 482.772 1042.4 482.645 1032.43 C 482.597 1028.71 483.291 1025.31 485.042 1022.01 C 489.542 1013.52 497.234 1010.76 505.876 1008.23 z"/>
<path transform="translate(0,0)" fill="rgb(200,228,229)" d="M 506.919 1024.03 C 510.197 1023.86 513.789 1023.31 516.283 1025.71 C 523.081 1032.26 531.861 1069 530.975 1078.57 C 530.536 1083.32 528.584 1085.23 525.059 1088.05 C 521.314 1088.11 518.172 1088.24 515.139 1085.62 C 511.415 1082.4 500.763 1036.09 500.963 1029.56 C 502.034 1026.74 504.507 1025.59 506.919 1024.03 z"/>
<path transform="translate(0,0)" fill="rgb(131,192,202)" d="M 1158.8 1073.11 C 1164.29 1072.87 1169.31 1072.91 1174.54 1074.83 C 1182.69 1077.82 1187.46 1083.31 1190.81 1091.13 C 1195.95 1103.13 1207.4 1141.61 1202.19 1152.94 C 1197.89 1162.31 1189.69 1166.23 1180.61 1169.62 C 1174.73 1170.16 1169.72 1170.19 1164.31 1167.61 C 1154.78 1163.07 1149.79 1152.93 1146.59 1143.38 C 1141.68 1128.67 1130.48 1102.29 1138.38 1087.42 C 1142.7 1079.3 1150.5 1075.84 1158.8 1073.11 z"/>
<path transform="translate(0,0)" fill="rgb(200,228,229)" d="M 1159.76 1087.94 C 1160.07 1087.96 1160.38 1087.97 1160.69 1088 C 1164.07 1088.34 1166.33 1088.65 1168.54 1091.51 C 1174.87 1099.68 1185.98 1138.29 1183.84 1147.98 C 1183.14 1151.15 1180.23 1152.64 1177.73 1154.36 C 1175.66 1154.23 1174.45 1153.98 1172.61 1153.03 C 1166.4 1144.79 1155.08 1103.98 1154.32 1092.56 C 1155.76 1089.86 1157.16 1089.45 1159.76 1087.94 z"/>
<path transform="translate(0,0)" fill="rgb(131,192,202)" d="M 1263.57 583.324 C 1269.89 583.833 1275.97 584.852 1281.14 588.821 C 1292.67 597.683 1302.44 631.647 1304.31 646.222 C 1305.42 654.923 1304.27 663.331 1298.66 670.359 C 1293.41 676.931 1286.29 679.532 1278.2 680.531 C 1271.7 680.221 1265.83 679.522 1260.29 675.803 C 1256.42 673.204 1253.46 669.736 1251.29 665.633 C 1246.78 657.129 1239.22 631.821 1237.28 621.917 C 1235.48 612.704 1235.75 603.074 1241.35 595.145 C 1246.73 587.534 1254.78 584.835 1263.57 583.324 z"/>
<path transform="translate(0,0)" fill="rgb(200,228,229)" d="M 1260.71 598.731 C 1263.58 598.867 1266.72 598.779 1269.05 600.714 C 1273.12 604.073 1286.67 651.045 1286.97 657.234 C 1285.5 660.567 1283.19 661.882 1280.25 663.889 C 1278.02 664.007 1274.15 664.762 1272.46 663.078 C 1265.61 656.288 1255.85 619.849 1255.7 609.358 C 1255.62 604.415 1257.25 602.091 1260.71 598.731 z"/>
<path transform="translate(0,0)" fill="rgb(131,192,202)" d="M 768.655 487.227 C 773.754 487.095 778.284 487.205 782.889 489.654 C 797.423 497.382 803.753 518.587 807.756 533.434 C 811.154 546.036 814.412 563.083 807.162 574.853 C 802.224 582.868 796.086 584.648 787.457 586.459 C 781.96 586.384 777.146 586.419 772.216 583.575 C 758.956 575.924 753.335 559.226 749.37 545.353 C 745.517 531.871 740.61 514.075 748.233 501.127 C 753.027 492.983 759.794 489.552 768.655 487.227 z"/>
<path transform="translate(0,0)" fill="rgb(200,228,229)" d="M 765.736 504.015 C 769.685 503.738 773.573 503.253 776.595 506.31 C 782.688 512.473 793.864 552.428 793.845 561.807 C 793.837 565.758 792.17 567.1 789.589 569.72 C 786.137 570.022 783.457 570.407 780.362 568.458 C 771.606 562.946 764.838 527.954 763.215 517.551 C 762.333 511.904 762.252 508.744 765.736 504.015 z"/>
<path transform="translate(0,0)" fill="rgb(131,192,202)" d="M 1341.74 559.253 C 1347.12 559.058 1351.98 559.202 1356.87 561.704 C 1370.97 568.918 1375.66 584.804 1379.88 598.869 C 1384.07 612.826 1389.44 631.345 1381.69 644.902 C 1377.18 652.788 1370.96 656.278 1362.49 658.764 C 1356.63 659.081 1350.53 658.315 1345.23 655.672 C 1336.4 651.268 1331.54 642.777 1328.53 633.719 C 1323.38 618.192 1313.34 588.287 1321.43 573.223 C 1325.79 565.098 1333.22 561.593 1341.74 559.253 z"/>
<path transform="translate(0,0)" fill="rgb(200,228,229)" d="M 1341.96 575.991 C 1344.28 575.936 1347.92 575.671 1349.66 577.477 C 1354.99 583.011 1368.43 627.039 1367.48 635.172 C 1367.1 638.427 1364.44 640.2 1362.1 642.192 C 1358.62 642.171 1355.86 642.246 1353.12 639.757 C 1347.86 634.998 1336.11 590.155 1336.09 582.099 C 1337.12 578.952 1339.38 577.774 1341.96 575.991 z"/>
<path transform="translate(0,0)" fill="rgb(131,192,202)" d="M 688.714 508.176 C 694.593 507.789 699.659 507.555 705.148 510.025 C 714.531 514.246 720.933 522.583 724.587 531.993 C 730.824 548.053 739.893 575.342 732.139 592.045 C 728.468 599.952 723.413 603.82 715.424 606.866 C 709.308 607.701 703.628 607.822 697.865 605.214 C 687.331 600.446 680.99 590.778 677.156 580.234 C 671.325 564.202 663.204 538.222 671.288 521.841 C 675.312 513.688 680.325 510.828 688.714 508.176 z"/>
<path transform="translate(0,0)" fill="rgb(200,228,229)" d="M 693.216 524.623 C 695.791 525.124 697.965 525.565 699.841 527.564 C 707.827 536.075 717.022 571.065 716.44 582.689 C 716.209 587.316 714.5 589.359 711.136 592.197 C 708.27 592.005 705.933 591.936 703.8 589.857 C 698.223 584.418 686.916 542.169 687.186 533.886 C 687.335 529.299 690.028 527.41 693.216 524.623 z"/>
<path transform="translate(0,0)" fill="rgb(131,192,202)" d="M 617.045 529.324 C 621.223 529.694 625.564 530.337 629.389 532.152 C 641.661 537.974 647.804 552.123 651.881 564.283 C 656.771 578.869 662.638 599.42 654.876 613.897 C 650.18 622.656 643.532 625.977 634.543 628.931 C 627.438 630.094 621.897 629.058 615.941 624.862 C 601.201 614.48 594.459 588.546 591.714 571.624 C 589.944 560.71 589.868 548.962 596.925 539.766 C 602.406 532.625 608.417 530.603 617.045 529.324 z"/>
<path transform="translate(0,0)" fill="rgb(200,228,229)" d="M 613.963 544.959 C 617.504 545.288 620.084 545.58 622.466 548.474 C 629.897 557.507 640.89 593.53 639.468 604.826 C 638.97 608.777 637.044 610.423 634.183 612.811 C 633.878 612.792 633.57 612.785 633.266 612.753 C 629.81 612.39 627.333 611.636 625.123 608.841 C 617.819 599.606 606.587 563.871 608.501 552.259 C 609.145 548.348 611.003 547.156 613.963 544.959 z"/>
<path transform="translate(0,0)" fill="rgb(23,75,123)" d="M 1302.4 495.401 C 1335.75 490.666 1374.99 499.59 1404.56 515.017 C 1439.83 533.412 1475.63 568.854 1487.86 607.495 L 1463.08 615.923 L 1462.43 614.427 C 1444.86 574.262 1412.96 546.639 1372.38 530.783 C 1351.4 524.037 1330.56 520.602 1308.47 522.134 C 1259.11 525.56 1220.38 551.291 1188.52 587.661 C 1179.76 584.438 1171.15 581.174 1162.69 577.189 C 1163.62 575.771 1164.56 574.44 1165.63 573.129 C 1199.6 531.714 1248.4 500.577 1302.4 495.401 z"/>
<path transform="translate(0,0)" fill="rgb(23,75,123)" d="M 767.697 406.429 C 779.126 405.136 791.867 405.604 803.293 406.235 C 915.59 412.442 1008.5 468.685 1081.78 551.176 C 1074.47 547.455 1067.2 544.003 1059.42 541.336 C 1048.14 537.467 1035.25 534.611 1024.91 528.615 C 1017.22 524.165 1011.11 517.078 1004.1 511.684 C 996.537 505.864 988.201 500.712 980.25 495.434 C 922.121 456.847 854.203 432.081 783.814 432.979 C 685.448 434.233 599.589 479.455 532.03 548.669 C 520.357 562.041 509.421 575.763 499.585 590.553 C 447.64 668.664 427.995 751.336 446.709 844.278 A 1852.41 1852.41 0 0 0 419.478 851.848 C 414.99 835.86 412.995 818.219 411.748 801.67 C 404.442 704.696 441.646 610.363 504.489 537.46 C 573.612 457.272 662.582 414.291 767.697 406.429 z"/>
<path transform="translate(0,0)" fill="rgb(23,75,123)" d="M 763.18 282.433 A 560.418 560.418 0 0 1 772.74 282.143 C 912.281 279.027 1039.12 332.484 1139.13 428.46 A 404.664 404.664 0 0 1 1185.93 402.689 C 1209.86 391.448 1236.33 381.964 1262.26 376.823 C 1316 366.167 1377.9 370.947 1429.27 389.756 C 1501.95 416.367 1559.85 473.376 1592.05 543.095 C 1633.15 544.177 1672.42 549.079 1710.71 565.324 C 1796.73 601.826 1893.86 703.175 1928.49 789.53 A 312.262 312.262 0 0 1 1924.6 1033.27 C 1895.91 1099.51 1839.43 1159.24 1777.62 1195.93 C 1753.75 1210.11 1728.71 1220.81 1702.93 1230.98 C 1703.4 1215.96 1704.87 1201 1705.22 1185.95 C 1719.64 1178.02 1735.38 1172.39 1749.94 1164.6 C 1789.43 1143.5 1822.89 1111.88 1850.97 1077.28 A 268.085 268.085 0 0 0 1910.53 878.368 C 1907.64 852.066 1901.58 825.369 1891.28 800.98 C 1866.5 742.312 1812.15 681.178 1762.52 641.518 C 1704.25 594.946 1641.29 572.715 1566.22 581.094 C 1555.35 552.687 1541.95 526.071 1522.6 502.376 A 255.992 255.992 0 0 0 1349.76 410.599 C 1270.08 402.913 1197.29 429.174 1136.26 479.795 C 1102.48 444.405 1067.06 411.249 1024.72 386.266 A 462.385 462.385 0 0 0 669.218 335.108 A 469.21 469.21 0 0 0 385.897 549.123 C 322.499 656.777 307.732 770.693 339.076 891.41 C 312.411 904.215 286.258 920.261 263.662 939.409 C 257.14 944.139 250.9 950.594 245.104 956.208 A 374.948 374.948 0 0 0 170.217 1057.69 C 134.303 1129.42 123.763 1201.12 149.627 1278.21 A 378.277 378.277 0 0 0 341.097 1497.09 C 382.993 1517.81 437.537 1533.73 484.514 1529.11 C 499.317 1527.66 513.577 1522.82 527.851 1518.88 L 582.877 1503.62 C 676.088 1477.7 768.563 1449.08 861.532 1422.3 L 1273.97 1304.13 L 1423.78 1262.22 C 1446.9 1255.76 1470.17 1250.72 1492.95 1243.04 C 1487.79 1258.17 1484.25 1273.86 1478.63 1288.83 C 1420.21 1306.58 1360.6 1320.59 1301.76 1336.87 L 926.951 1443.77 L 620.519 1532.56 A 3892.2 3892.2 0 0 0 554.996 1551.23 C 538.711 1556.08 522.103 1562.08 505.348 1564.9 C 470.627 1570.73 432.333 1566.5 398.03 1558.87 C 294.542 1535.87 212.821 1469.63 156.794 1381.46 C 109.905 1307.67 81.8947 1221.66 101.492 1134.14 C 127.801 1016.64 192.815 933.857 293.473 870.222 C 288.553 845.273 285.145 820.512 283.786 795.117 C 276.906 666.6 327.548 542.048 412.914 447.313 A 504.186 504.186 0 0 1 763.18 282.433 z"/>
<path transform="translate(0,0)" fill="rgb(23,75,123)" d="M 898.29 514.039 C 922.693 523.408 947.42 531.799 971.95 540.809 L 1120.89 596.242 C 1152.3 607.916 1185.66 617.802 1215.89 632.138 C 1191.74 662.713 1168.73 694.414 1145.33 725.58 L 1059.06 838.271 A 2181.42 2181.42 0 0 0 1029.24 877.715 C 1022.96 886.29 1016.98 895.999 1009.65 903.64 L 981.937 813.7 C 976.447 795.881 971.398 777.889 965.077 760.341 C 949.541 767.14 933.697 773.047 918.393 780.41 A 336.869 336.869 0 0 0 806.224 868.061 A 379.92 379.92 0 0 0 717.124 1090.29 C 716.322 1103.9 715.479 1117.82 716.652 1131.41 C 733.24 1127.39 750.008 1123.97 766.68 1120.31 C 771.99 1118.61 777.9 1117.72 783.361 1116.55 A 1533.54 1533.54 0 0 0 835.938 1104.6 L 852.368 1101.49 C 858.069 1100.35 863.764 1099.12 869.504 1098.18 C 859.097 1113.69 852.109 1131.46 844.115 1148.3 A 3607.84 3607.84 0 0 1 816.573 1203.77 L 803.652 1226.83 A 6318.45 6318.45 0 0 0 734.727 1358.95 C 729.983 1368.38 726.341 1378.42 721.52 1387.76 C 714.978 1382.52 694.899 1370.65 686.974 1366.71 C 660.419 1349.9 634.535 1331.56 608.392 1314.07 C 605.778 1312.02 603.155 1310.35 600.271 1308.69 C 570.933 1288.65 542.685 1267.07 513.37 1246.98 L 465.517 1214.27 C 457.519 1208.71 448.899 1203.4 441.703 1196.84 C 465.328 1193.25 489.313 1185.4 512.464 1179.37 C 516.568 1178.68 520.673 1177.58 524.74 1176.67 C 533.772 1174.62 542.672 1172.01 551.59 1169.51 L 558.85 1167.81 C 563.607 1166.5 568.439 1165.58 573.272 1164.6 C 572.576 1149.83 571.222 1135.16 571.123 1120.36 C 570.608 1043.23 586.613 971.921 618.542 901.906 C 662.304 805.943 735.544 719.237 827.874 666.945 C 860.44 648.502 894.081 635.346 929.034 622.3 A 9501.22 9501.22 0 0 0 898.29 514.039 z"/>
<path transform="translate(0,0)" fill="rgb(23,75,123)" d="M 1526.65 845.901 C 1546.31 857.061 1564.86 871.811 1583.38 884.79 L 1681.64 952.854 A 9658 9658 0 0 1 1776.11 1017.55 C 1788.63 1026.14 1804.6 1034.58 1815.37 1045.04 C 1768.08 1058.11 1719.74 1067.91 1672.11 1079.74 C 1692.28 1166.31 1679.35 1273.08 1646.7 1355.17 C 1633.52 1388.31 1615.61 1420.3 1596.97 1450.63 C 1585.2 1469.78 1571.41 1486.88 1556.93 1504.02 C 1478.6 1596.72 1372.36 1653.09 1255.45 1681.09 C 1267.5 1726.31 1281.38 1771.2 1294.01 1816.29 C 1273.65 1807.91 1253.66 1798.22 1233.59 1789.14 L 1107.59 1731.99 A 6896.69 6896.69 0 0 0 990.117 1679.11 C 1009.32 1649.25 1031.4 1622.03 1053.13 1594.04 L 1107.51 1522.57 C 1132.79 1489.79 1155.88 1455.31 1181.44 1422.81 C 1186.59 1437.86 1190.37 1453.52 1194.59 1468.86 A 7347.96 7347.96 0 0 0 1215.81 1544.85 C 1307.58 1523.71 1390 1483.11 1450.37 1408.64 C 1521.34 1321.09 1543.55 1223.65 1532.08 1113.29 C 1482.85 1122.99 1435.02 1139.01 1385.78 1148.8 C 1406.22 1101.25 1431.07 1055.47 1452.71 1008.46 A 10760.6 10760.6 0 0 1 1502.54 899.223 C 1510.57 881.5 1517.8 863.224 1526.65 845.901 z"/>
</svg>