<svg xmlns="http://www.w3.org/2000/svg" display="block" viewBox="0 0 2048 2048"><path fill="#c8e4e5" d="M0 0h2048v2048H0z"/><path fill="#83c0ca" d="M883.511 609.372c1.945.064 3.075.227 4.816 1.111l-.36 1.561c-6.832 4.602-16.02 7.052-23.681 10.169-1.319.57-2.384.836-3.778 1.129l-.328-1.568c1.889-3.524 3.972-5.997 6.738-8.87 5.675-1.982 10.652-2.899 16.593-3.532m-259.398 223.42c1.12.15 1.979.555 3.017.982-.212 8.378-13.239 25.124-17.051 33.907l-.719 1.68c-.849-1.417-1.689-2.851-2.38-4.353-2.583-5.608-3.219-11.564-.798-17.367 3.353-8.035 10.327-11.754 17.931-14.849m186.098-205.73c.33.005.661.005.991.016 4.734.156 9.412 2.217 12.258 6.244 1.673 2.367 1.412 3.096.98 5.759-3.311 4.856-12.353 8.757-17.514 11.781-3.722 2.158-7.647 4.023-11.478 5.985.242-4.646.27-9.673 1.482-14.185 2.082-7.749 6.591-11.645 13.281-15.6m130.771 166.837 1.283.513c.133 1.08.235 1.353-.005 2.574-1.462 7.46-8.804 14.682-14.574 19.237-9.382 7.406-19.213 7.631-30.611 6.389-1.35-.99-2.114-1.828-3.043-3.22 2.331-5.041 40.055-22.467 46.95-25.493m-332.59 520.171c-.515 1.07-.772 1.9-.907 3.08-.204 1.79-.254 3.78-1.222 5.36-2.933 4.8-10.122 9.11-15.674 9.77-6.642.8-13.494-1.75-18.585-5.94-4.616-3.81-10.264-11.75-10.282-18-.008-2.91.332-3.3 2.244-5.23 12.591-2.62 10.828 8.67 17.271 11.08 5.303 1.99 13.993-3.34 19.034-5.5 2.884 1.66 5.507 3.33 8.121 5.38m190.952-403.559c.491.416 1.052.762 1.472 1.25 4.074 4.74 13.12 47.686 11.943 55.336-2.901 4.36-6.258 5.246-11.157 6.381-.485-.244-.978-.474-1.456-.732-7.703-4.159-11.808-29.192-14.105-37.864 4.176-8.199 8.319-16.639 13.303-24.371m4.308 316.319 12.921-23.06c4.444 12.16 20.724 52.71 14.941 63.52-1.223 2.28-3.186 3.51-5.746 3.75-2.344.22-4.936-.45-6.629-2.1-9.936-9.66-7.393-30.69-15.487-42.11m290.768-412.156c4.82 5.418 14.71 45.943 16.45 54.838.72 3.684 2.13 8.576-.5 11.717-2.66 3.173-6.55 4.132-10.42 4.869-.63-.359-1.25-.715-1.86-1.103-8.37-5.368-14.68-43.361-16.96-54.223 4.59-5.262 9.05-10.547 13.29-16.098m394.97 322.246c2.57.89 4.82 2.25 6.34 4.58 7.02 10.79 14.86 42.47 12.17 54.81-.96 4.39-4.95 23.34-8.06 25.4l-.72-2.92c-2.95-9.95-10.96-52.55-16.32-57.7-2.59.62-4.58 1.08-7.27.93l-1.27-1.63c-.61-4.74.58-9.13 1.52-13.76 4.29-4 8.54-6.85 13.61-9.71m-722.71-16.61c-2.196-15.43-10.867-42.17-17.228-56.6-1.598-.46-3.2-.86-4.812-1.26-.105-.27-.248-.53-.313-.81-.817-3.55 2.248-11.37 4.007-14.49 1.312-2.32 4.451-4.47 7.086-5.03 2.411-.52 4.608-.35 6.566 1.29 6.717 5.62 19.731 63.06 21.375 73.14-5.461 1.17-11.371 2.06-16.681 3.76m-254.216 59.06c-1.829-8.88-2.306-19.73 1.143-28.23 2.166-5.35 6.095-9.62 11.441-11.87 4.952-2.07 15.621-3.59 20.587-1.02 8.422 4.35 10.448 21.22 13.215 29.56l-7.26 1.7c-8.918 2.5-17.818 5.11-26.85 7.16-4.067.91-8.172 2.01-12.276 2.7"/><path fill="#c8e4e5" d="m524.74 1176.67-1.237-.67c-1.234-2.15-.725-4.59-.225-6.91 1.263-5.87 5.06-11.94 10.317-15.03 2.51-1.47 5.336-2.13 8.127-.94 5.976 2.56 8.066 10.75 9.868 16.39-8.918 2.5-17.818 5.11-26.85 7.16"/><path fill="#83c0ca" d="M835.938 1104.6c-1.538-2.51-2.422-5.55-3.334-8.35-4.828-14.8-8.069-30.08-13.043-44.89-1.591-4.74-4.9-8.2-6.411-12.72a11.88 11.88 0 0 1 .817-9.41c1.443-2.69 4.413-5.44 7.447-6.15 2.457-.58 4.986-.56 7.133.97 7.377 5.23 20.321 65.42 23.821 77.44zM538.335 560.623c1.953.131 3.082.34 4.804 1.285 6.347 12.357 20.256 59.675 22.842 73.98.764 4.225.985 8.087-.324 12.195-.96 1.045-1.76 2.42-3.194 2.788-3.342.858-6.669-.996-9.335-2.804-7.864-19.718-10.369-41.76-18.417-61.204-2.056-4.968-6.594.258-11.19-1.645-1.583-2.24-1.894-2.504-1.967-5.209 3.955-7.079 10.759-13.945 16.781-19.386m3.262 295.282c3.252.083 5.815.151 8.278 2.65 3.453 3.503 26.983 78.365 26.651 85.592-1.459 3.181-3.794 4.809-6.445 6.935-2.386-.101-6.155.001-8.013-1.728-9.387-8.734-14.065-60.344-24.111-71.113-2.429-2.604-3.831-4.626-3.797-8.299.055-5.968 3.603-9.889 7.437-14.037m63.288 529.995c1.849-.03 4.391-.32 6.164.11 2.013.5 2.949 1.62 3.941 3.32 5.427 9.31 22.291 70.31 19.548 79.67-2.209 2.73-5.067 3.52-8.236 4.72-1.133-.26-2.228-.47-3.314-.92-2.001-.83-3.318-2.2-4.16-4.18-4.551-10.7-6.98-23.11-10.246-34.29-3.559-12.19-8.091-23.83-12.904-35.55 2.593-5.18 4.734-9.03 9.207-12.88m263.098-223.07c1.624.11 3.43.14 5.007.55 2.465.64 4.271 2.36 5.31 4.65 4.558 10.02 24.491 70.74 21.355 78.01-1.642 3.81-4.897 5.24-8.564 6.48-2.133-.65-4.691-1.24-6.251-2.96-11.384-12.5-9.845-54.88-27.767-73.38 3.381-5.08 6.433-9.17 10.91-13.35m-32.477-691.776c2.869.006 6.189-.335 8.837.899 1.799.839 2.917 3.515 3.616 5.267 3.207 8.034 4.538 16.864 6.933 25.177 3.894 13.515 8.666 26.777 12.494 40.31 1.48 5.235 3.309 13.397-.015 18.23-2.037 2.962-5.073 3.414-8.366 4.143-13.01-9.292-15.772-56.035-24.712-71.91-2.943-.205-4.717-.217-7.07-2.246-.935-2.165-1.55-3.876-1.183-6.28.83-5.445 5.252-10.387 9.466-13.59m78.074 829.076 1.164-.01c4.432.01 7.098-.12 10.351 3.11 2.337 8.06 23.253 73.27 22.49 75.61-1.205 3.69-4.746 4.81-7.993 6.24a47.4 47.4 0 0 1-8.228-.96c-.639-.52-1.397-.92-1.918-1.56-2.297-2.82-20.657-61.85-24.889-72.82 2.514-4.32 4.676-7.07 9.023-9.61m-24.866-296.28c1.665.34 3.398.66 4.909 1.49 8.67 4.72 25.808 68.55 29.239 81.14-3.25 2.72-6.203 4.73-10.056 6.51-1.453.03-3.42.23-4.814-.13-2.816-.72-3.776-2.32-5.033-4.75-10.169-19.62-9.876-51.19-24.081-70.7 2.513-5.82 4.434-9.99 9.836-13.56m46.741 138.96c1.177.09 2.406.13 3.538.52 3.684 1.29 5.948 5.66 7.445 8.94 4.114 9.02 22.492 63.75 21.207 70.71-.198 1.07-.745 2.05-1.117 3.07-2.853 2.9-5.713 4.05-9.441 5.58-.312-.05-.626-.09-.936-.15-2.749-.55-4.196-1.32-5.648-3.73-3.09-5.14-4.627-11.88-6.314-17.6-5.53-18.72-9.509-38.87-20.838-55.06 3.456-5.33 6.828-8.69 12.104-12.28m-86.331-282.913c1.78.058 4.863-.01 6.092 1.338 3.805 4.176 22.356 75.308 22.533 83.833-3.183 5.039-8.016 5.78-13.431 7.18-.326-.264-.68-.496-.978-.791-6.647-6.609-15.225-47.918-18.243-59.347-1.187-4.495-8.664-14.434-8.64-14.945.302-6.324 8.018-13.499 12.667-17.268m198.696 399.233c.88.12 1.75.23 2.62.41 2.68.54 5.91 1.7 7.15 4.33 3.23 6.89 4.03 16.84 6.12 24.35 4.37 15.71 9.85 31.15 13.91 46.95.69 2.67 1.97 5.91 1.31 8.66-2.59 3.01-6.06 4.17-9.62 5.7l-3.23-.52c-2.57-1.78-4.04-3.75-5.45-6.51-4.58-8.97-24.06-68.54-21.14-76.02 1.59-4.05 4.64-5.59 8.33-7.35m-46.05-137.99c3.82-.39 6.73-.75 10.07 1.41 5.24 10.45 25.41 73.92 22.86 81.38-1.26 3.7-5.99 5.8-9.2 7.36-2.51-.23-4.56-.92-6.25-2.91-5.55-6.55-12.22-44.1-17.08-55.35-2.193-5.07-9.995-14.96-9.182-19.9.908-5.53 4.627-8.66 8.782-11.99m262.49-227.129c2.97.423 5.76.801 7.52 3.513 4.4 6.759 24.29 72.648 22.18 78.254-1.43 3.789-5.49 5.824-8.8 7.62-3.22-.438-5.2-.634-7.74-2.883-2.5-5.088-21.46-65.878-22.78-73.356-.37-2.095-.27-3.694.49-5.658 1.65-4.278 5.25-5.659 9.13-7.49M982.441 1278.81c2.457.59 3.958 1.08 5.707 2.99 4.287 4.67 26.512 72.56 24.882 78.7-1.11 4.16-5.93 7.05-9.19 9.35-1.37-.42-2.86-.87-4.123-1.55-7.303-3.9-25.136-68.47-28.628-80.48 3.416-4.03 6.453-6.86 11.352-9.01m-473.12-564.129c1.582.209 2.86.579 4.374 1.055 8.618 9.836 23.603 69.392 25.905 84.196.738 4.745 1.338 7.969-1.614 12.005-3.242 1.741-5.688 1.959-9.333 2.153-7.618-9.409-19.142-60.614-23.81-75.703-3.431-2.222-6.447-4.743-9.529-7.42 4.044-7.011 6.877-11.91 14.007-16.286M649.075 675.1c2.694-.144 6.591-.545 8.989.942 7.193 4.462 22.432 68.484 25.757 80.297-4.232 5.212-8.351 10.68-13.013 15.509l-.749-1.195c-4.598-13.512-16.065-64.784-23.346-72.334-.965-1-5.752 1.136-7.584 1.259-.772-.598-1.938-1.428-2.497-2.21-.885-1.239-1.656-3.121-1.429-4.659.981-6.665 8.9-13.481 13.872-17.609m545.105 237.869c3.07-.016 6.7.042 9.03 2.397 4.53 4.572 25.75 71.379 24.23 79.459-.75 3.982-5.66 6.265-8.75 8.125-2.54-.24-3.96-.57-5.86-2.39-4.93-4.746-28.47-73.447-27.54-79.705.47-3.171 6.41-6.364 8.89-7.886m84.06 278.931c.4.06.79.1 1.18.17 3.78.64 7.09 1.34 9.24 4.86 3.32 5.45 22.77 78.43 21.78 81.31-1.4 4.09-4.36 5.43-8.01 7.13-2.86-1.1-5.84-2.19-7.84-4.63-4.66-5.67-26.77-74.64-25.18-81.29.9-3.74 5.84-5.88 8.83-7.55m66.89-19.34c1.72.18 3.9.26 5.5.91 2.76 1.1 4.23 3.26 5.44 5.84 4.92 10.58 25.14 72.92 21.58 81.02-1.14 2.59-4.07 3.58-6.48 4.68-3.4.14-6.14.5-9.25-1.16-2.15-3.06-24.36-75.48-24.56-79.42-.19-3.82 5.36-9.11 7.77-11.87m-40.97-138.58c2.09.09 5.3.35 6.72 2.02 4.94 5.8 27.21 74.51 25.67 81.52-.83 3.82-5.63 6.12-8.65 7.88-4.07-.41-7.34-.75-9.99-4.34-3.65-4.96-24.14-73.78-22.66-78.91 1.14-3.96 5.67-6.23 8.91-8.17m-83.29-281.88c3.89-.286 7.65-.642 11.03 1.559 4.48 6.413 24.75 74.126 23.21 80.955-.97 4.316-3.91 6.454-7.2 9.036-2.74.314-5.02.83-7.37-1.051-4.78-3.82-26.38-73.217-25.85-81.664.28-4.517 2.95-6.176 6.18-8.835m13.15 300.95c3.69-.13 7.89-.21 10.69 2.58 4.27 4.25 25.29 73.54 24.27 80.62-.58 3.98-3.28 5.32-6.38 7.33-.6.05-1.21.11-1.81.16-3.53.25-6.71-.58-9.29-3.12-3.82-3.76-23.88-69.53-23.92-77.31-.02-4.5 3.42-7.49 6.44-10.26m151.82-47.76c5.17.53 10.53 1.22 15.15 3.83 6.68 3.77 9.18 9.52 11.31 16.54-2.9 6.29-6.7 12.29-10.17 18.3-1.93-7.08-3.11-16.59-9.31-21.13-2.47-1.8-5.74-2.92-8.8-2.12-2.54.67-3.72 2.43-5.12 4.47-1.94 9.48 5.33 29.32 7.69 39.68 3.68 10.81-4.94 20.42-8.45 30.39l-.45 1.3c-5.1-17.8-12.17-35.49-16.17-53.53-1.98-8.95-2.52-18.76 2.87-26.69 5.19-7.64 12.9-9.62 21.45-11.04M731.774 650.272c3.037-.186 5.979-.246 8.997.228 9.223 1.449 18.596 7.813 23.828 15.487 2.256 3.31 3.417 6.983 2.538 10.981-1.46 6.634-12.822 11.108-18.346 14.416-1.325-7.434-2.204-14.956-7.543-20.725-1.983-2.144-4.327-3.713-7.355-3.692-1.753.012-3.57 1.053-4.49 2.571-2.235 3.69-2.271 8.6-1.481 12.67 1.7 8.002 4.004 15.761 6.364 23.587-4.726 5.674-10.833 10.266-16.49 14.987-4.31-16.758-14.879-42.599-4.829-58.697 4.361-6.985 11.058-10.044 18.807-11.813m-28.511 803.048c-7.545-2.12-16.445-3.97-21.427-10.59-7.728-10.27-19.985-50.69-18.241-63.26.614-4.42 2.407-9.32 6.231-11.94 3.454-2.36 6.283-2.54 10.239-1.63 1.836.42 3.442.82 5.339.83.524 0 1.047-.02 1.57-.02 7.925 3.94 28.004 15.81 34.546 21.05-2.835 6.68 5.84 24.1 7.856 31.42 1.774 6.44 2.898 14.04-.829 20.03-5.217 8.39-16.219 11.95-25.284 14.11"/><path fill="#c8e4e5" d="M681.993 1374.05c3.948-.2 7.603-.32 11.527.21 8.367 7.41 17.131 39.78 17.946 51.22.334 4.68-1.128 6.86-4.075 10.22-2.067.67-4.639 1.52-6.651.34-6.251-3.66-9.581-15.72-11.694-22.29-3.108-9.68-11.576-30.9-7.053-39.7"/><path fill="#83c0ca" d="M1431.42 1151.22c4.36-.01 8.7.87 12.55 2.96 11.63 6.31 16.23 19.53 19.42 31.53 3.73 14.07 9.59 34.49 1.28 47.89-4.58 7.38-10.72 10.05-18.91 11.88-5.78-.23-12.23.03-17.35-3.05-11.26-6.77-18.61-39.89-21.08-52.41-1.92-9.76-1.49-19.55 4.44-27.93 5.18-7.33 11.13-9.39 19.65-10.87"/><path fill="#c8e4e5" d="M1430.14 1167.83c2.04.16 4.08.56 5.76 1.85 6.39 4.9 15.76 42.11 15.5 50.9-.15 4.78-1.98 6.91-5.39 10.06-2.34-.67-4.45-1.33-6.18-3.17-5.15-5.48-16.33-42.85-15.89-50.56.26-4.36 3.16-6.43 6.2-9.08"/><path fill="#83c0ca" d="M762.423 1340.12c4.958-.06 9.418.21 14.018 2.24 9.402 4.15 15.208 12.93 18.678 22.25 5.605 15.06 14.681 39.08 7.268 54.35-3.824 7.88-9.356 11.25-17.399 14.02-6.203.89-12.6 1.04-18.535-1.29-7.409-2.91-11.804-9.36-14.516-16.58-6.097-16.23-15.359-43.19-7.867-59.48 3.679-8 10.238-12.69 18.353-15.51"/><path fill="#c8e4e5" d="M765.999 1354.16c2.938.63 5.042 1.77 6.681 4.4 6.017 9.64 16.608 42.67 13.379 53.35-1.355 4.48-4.58 6.24-8.385 8.44-1.473-.43-2.867-1.15-4.27-1.78-2.962-3.31-4.261-7.31-5.579-11.49-3.337-10.57-15.136-39.97-9.092-49.21 1.672-2.55 4.516-3.04 7.266-3.71"/><path fill="#83c0ca" d="M1341.69 868.208c6.43-.528 12.09-.746 17.77 2.766 17.44 10.774 23.22 48.519 27.67 67.689a68 68 0 0 1-.8 2.131c-4.24 10.661-11.28 15.469-21.46 19.722-6.83.766-12.86.983-19.31-1.92-7.69-3.459-12.63-11.146-15.24-18.892-4.84-14.394-15-45.049-7.77-58.343 4.12-7.596 11.38-10.614 19.14-13.153"/><path fill="#c8e4e5" d="M1340.31 883.709c3.5.029 6.31-.013 9.22 2.284 6.58 5.207 18.11 43.715 17.75 52.523-.14 3.527-1.45 4.504-3.74 6.855-3.3.343-6.95.83-9.95-.968-3.98-2.392-14.98-45.483-15.83-52.02-.49-3.814.24-5.693 2.55-8.674"/><path fill="#83c0ca" d="M1422.27 840.208c5.98-.28 11.13-.22 16.58 2.563 10.58 5.399 14.5 17.005 18.12 27.538 5.05 14.712 13.62 35.899 5.86 50.672-4.39 8.367-10.1 10.821-18.64 13.364-5.38.538-10.63.986-15.83-.819-7.17-2.485-10.84-7.7-14.02-14.277-5.78-11.969-18.38-49.225-13.72-61.407 3.72-9.712 12.69-13.924 21.65-17.634"/><path fill="#c8e4e5" d="M1424.03 855.796c2.42.022 4.7-.209 6.55 1.662 6.5 6.58 16.84 44.419 16.17 53.326-.33 4.447-2.45 6.561-5.78 9.24-2.35-.538-4.31-1.163-6.09-2.904-6.24-6.123-16.21-44.828-16.77-54.622.77-3.124 3.54-4.76 5.92-6.702"/><path fill="#83c0ca" d="M835.08 1320.14c5.231-.43 9.828-.31 14.758 1.72 8.768 3.6 13.868 11.48 17.096 20.06 5.298 14.09 16.804 43.84 10.116 57.51-4.288 8.76-11.836 12.22-20.563 15.13l-1.25.14c-8.094.85-13.911-.14-20.285-5.56-13.933-11.85-22.538-51.37-24.007-69.32.82-1.89 1.646-3.8 2.657-5.6 4.77-8.47 12.679-11.49 21.478-14.08"/><path fill="#c8e4e5" d="M834.599 1335c1.725-.03 3.466-.02 5.187.13 2.378.21 3.888.53 5.391 2.57 4.565 6.2 17.843 48.6 16.028 55.43-1.121 4.22-3.863 5.9-7.305 8.15-2.308-.35-4.583-.72-6.457-2.25-3.254-2.66-19.438-53.41-19.123-56.44.373-3.57 3.568-5.78 6.279-7.59"/><path fill="#83c0ca" d="m1118.74 934.194 1.27-.146c8.21-.867 15.19.287 21.63 5.785 11.45 9.779 21.11 52.788 22.68 68.387-.71 1.81-1.45 3.61-2.32 5.34-4.48 8.92-10.16 13.13-19.41 16.41-5.4.97-10.02 1.23-15.2-.92-8.57-3.57-14.21-11.54-17.54-19.9-4.94-12.396-17.35-46.326-11.4-59.078 4.54-9.728 10.69-12.616 20.29-15.878"/><path fill="#c8e4e5" d="M1119.67 949.959c2.81-.085 6.01-.651 8.5.865 5.87 7.637 16.77 45.349 16.05 55.046-.29 3.9-2.06 5.83-4.85 8.33-3.33-.05-5.83-.19-8.36-2.73-3.26-3.26-17.16-49.919-16.34-55.215.49-3.174 2.74-4.336 5-6.296"/><path fill="#83c0ca" d="M925.126 840.252c4.335-.178 9.3.306 13.263 2.166 10.809 5.075 15.736 16.216 19.264 26.895 4.826 14.604 12.75 37.328 4.824 51.966-4.758 8.788-11.812 11.69-20.861 14.305-6.423-.215-13.297-1.075-18.754-4.764-13.042-8.815-18.912-35.165-22.018-50.138-2.107-10.159-1.413-20.509 4.691-29.238 5.043-7.212 11.121-9.87 19.591-11.192"/><path fill="#c8e4e5" d="M923.943 853.845c2.867.457 4.762.689 6.969 2.788 5.703 5.424 16.664 46.4 16.286 54.831-1.635 3.408-4.057 5.245-6.92 7.635-2.155.125-5.106.208-6.705-1.493-4.957-5.274-17.761-47.182-16.763-55.778.456-3.932 4.137-6.086 7.133-7.983"/><path fill="#83c0ca" d="M1206.82 1211.25c3.73.18 7.84.76 11.26 2.32 9.36 4.27 14.7 13.53 17.78 22.96 4.66 14.24 15.6 43.32 7.9 57.26-4.54 8.22-12.57 11.15-21.12 13.35-7.35-.16-14.39-.55-20.67-4.86-3.78-2.6-6.58-6.08-8.57-10.18-4.3-8.86-10.39-33.98-12.48-44.2-1.74-8.52-1.31-17.6 3.85-24.91 5.35-7.58 13.35-10.2 22.05-11.74"/><path fill="#c8e4e5" d="M1203.86 1228.01c3.31.05 6.08-.21 8.9 1.78 5.05 6.79 16.35 47.79 15.91 56.44-1.25 3-2.83 4.14-5.35 5.98-3.24-.13-7.1.13-9.64-2.22-4.66-4.32-14.22-47.1-15.08-55.34.83-3.25 2.81-4.59 5.26-6.64"/><path fill="#83c0ca" d="M968.306 977.177c4.698.265 10.022 1.934 13.917 4.599 14.274 9.769 21.857 39.404 24.697 55.964 1.58 9.23.32 18.15-5.35 25.83-4.812 6.51-10.959 9.54-18.775 10.9-6.557-.45-12.052-1.24-17.715-4.93-3.355-2.19-6.415-5.15-8.509-8.58-4.937-8.09-12.421-34.85-14.548-45.03-1.843-8.83-1.684-18.785 3.622-26.461 5.44-7.87 13.792-10.426 22.661-12.292"/><path fill="#c8e4e5" d="M963.712 992.818c2.303-.154 5.891-.496 7.781 1.066 5.765 4.764 17.743 46.526 18.378 55.316.32 4.43-2.334 6.83-5.125 9.82-.465.02-.929.06-1.394.06-3.203.05-5.786-.18-8.073-2.66-4.691-5.1-17.906-50.55-16.605-57.352.637-3.33 2.602-4.254 5.038-6.25"/><path fill="#83c0ca" d="M580.527 693.164c3.895-.398 7.726-.582 11.5.675 9.147 3.047 15.476 11.254 19.394 19.684 7.125 15.332 16.861 43.376 10.393 59.944-3.582 9.173-9.15 13.555-17.982 17.167-5.768.459-11.556.919-17.023-1.388-8.462-3.572-13.825-12.567-17.174-20.699-6.485-15.75-15.509-42.886-8.225-59.469 4.035-9.187 10.183-12.647 19.117-15.914"/><path fill="#c8e4e5" d="M581.958 708.787c3.184.308 4.777.099 7.332 2.358 6.896 6.095 17.229 43.631 17.099 53.35-.068 5.073-2.451 8.003-5.892 11.446-1.373.174-3.153.558-4.515.39-2.358-.29-3.103-1.131-4.344-3.063-5.522-8.597-17.797-48.342-15.099-58.183.918-3.346 2.69-4.518 5.419-6.298"/><path fill="#83c0ca" d="M1042.95 955.226c5.96-.09 11.76.972 16.89 4.132 12.75 7.848 20.46 40.617 23.47 54.882 1.86 8.85 1.52 18.75-3.79 26.41-4.85 6.98-12.08 9.34-20.05 10.8-6.09.33-11.65-.02-17.05-3.15-12.37-7.19-18.59-33.01-22.1-46.43-2.9-11.083-4.64-23.471 1.73-33.721 4.81-7.732 12.33-11.001 20.9-12.923"/><path fill="#c8e4e5" d="M1041.48 971.037c2.89.119 6.95.094 9.11 2.322 5.2 5.373 16.03 46.801 15.72 54.471-.17 3.99-1.8 5.9-4.65 8.37-3.29-.15-7.12.19-9.68-2.23-5.25-4.96-16-46.951-15.3-55.24.33-3.84 2.07-5.372 4.8-7.693"/><path fill="#83c0ca" d="M1151.13 769.265c4.47-.311 9.03-.776 13.44.291 8.52 2.063 14.11 6.479 18.43 13.978 7.1 12.304 19.3 48.522 15.25 62.064-3.03 10.124-9.41 15.553-18.44 20.185-6.49.493-13.34 1.092-19.61-1.046-6.17-2.104-9.18-6.219-12.07-11.837-7.16-13.935-18.75-51.921-13.55-66.803 3.08-8.818 8.26-13.084 16.55-16.832"/><path fill="#c8e4e5" d="M1155.64 784.755c2.77-.023 4.92-.215 7.4 1.249 5.64 7.823 18.35 48.496 17.12 57.249-.58 4.136-3.91 6.433-6.89 8.948-2.22-.622-3.73-1.414-5.42-3.031-5.4-5.156-17.77-48.186-17.08-56.128.33-3.853 2.1-5.828 4.87-8.287"/><path fill="#83c0ca" d="M1081.64 1095.11c5.98.03 12.11.76 17.49 3.53 9.41 4.84 13.69 15.44 16.77 25.02 4.31 13.41 14.13 40.42 7.18 53.32-4.32 8.03-11.99 11.42-20.32 13.9-5.54.83-10.4 1.18-15.65-1.15-8.65-3.82-13.7-12.09-16.82-20.67-5.35-14.73-17.27-44.34-10.28-58.32 4.36-8.7 12.82-12.71 21.63-15.63"/><path fill="#c8e4e5" d="M1080.83 1111.55c.64-.01 1.28-.04 1.92-.04 2.87-.01 4.92.66 6.92 2.8 6.78 7.23 17.99 43.55 17.51 53.55-.18 3.9-1.77 5.11-4.49 7.5-.94.2-1.2.28-2.3.4-2.31.24-5.04.8-6.87-.88-5.56-5.13-15.31-45.86-16.06-54.6-.36-4.07.94-5.76 3.37-8.73"/><path fill="#83c0ca" d="M469.044 875.254c5.916-.431 11.712-.587 17.373 1.481 9.124 3.333 14.11 11.111 17.797 19.683 6.477 15.058 14.858 40.62 8.17 56.476-3.729 8.841-9.709 13.663-18.429 17.223-5.108.896-10.184 1.124-15.168-.571-9.287-3.159-15.639-10.696-19.527-19.436-6.509-14.632-14.392-42.622-8.364-57.694 3.709-9.274 9.279-13.371 18.148-17.162"/><path fill="#c8e4e5" d="M471.614 890.805c3.428-.013 5.969-.185 8.515 2.52 7.302 7.757 17.32 42.768 16.982 53.652-1.411 3.404-4.177 4.888-7.085 6.9-1.055.168-1.931.341-3.019.358-2.475.039-4.293-1.058-5.921-2.823-7.029-7.626-15.968-41.151-14.975-51.593.412-4.335 2.143-6.463 5.503-9.014"/><path fill="#83c0ca" d="M1386.46 702.285c5.19-.077 10.33.896 14.87 3.497 13.97 7.991 22.77 41.464 26.54 56.722 2.03 8.207 1.81 17.131-2.79 24.469-4.75 7.562-12.42 11.003-20.83 12.835-6.26.308-11.59-.208-17.07-3.569-13.42-8.241-22.38-43.333-25.43-58.658-1.69-8.477-1.16-17.253 4.08-24.449 5.05-6.942 12.47-9.696 20.63-10.847"/><path fill="#c8e4e5" d="M1381.2 720.125c3.11-.279 5.88-.311 8.98-.005 8.26 5.129 16.92 39.714 19.09 49.942 1.04 4.935.3 7.793-2.44 11.992-3.09 1.109-5.22 2.074-8.55 1.245-3.32-2.18-4.52-5.603-5.92-9.169-3.81-9.726-15.09-44.862-11.16-54.005"/><path fill="#83c0ca" d="M1303.42 726.167c6.24-.197 11.97.658 17.31 4.125 3.76 2.435 6.74 5.583 8.86 9.525 5.75 10.72 11.33 34.605 13.98 46.919 1.74 8.076 1.26 16.981-3.55 23.964-5.1 7.405-13.27 10.408-21.77 11.907-5.05.275-10.61-.754-15.09-3.143-13.99-7.46-18.67-30.567-22.67-44.877-2.97-10.645-7.08-23.347-1.02-33.571 5.4-9.103 14.21-12.423 23.95-14.849"/><path fill="#c8e4e5" d="M1300.44 742.92c1.51-.085 3.06-.214 4.56-.132 2.44.134 3.98.338 5.4 2.51 4.27 6.538 15.52 48.735 14.58 55.986-1.63 3.19-4.17 4.658-7.05 6.656-1.86-.573-3.05-1-4.56-2.302-5.44-4.711-17.37-44.796-17.58-52.782-.12-4.396 1.73-6.884 4.65-9.936"/><path fill="#83c0ca" d="M1125.98 1233.12c5.99.05 13.19 2.42 18.17 5.71 12.04 7.97 19.65 42.57 22.35 56.8 1.64 8.65 1.63 18.71-3.84 26.09-5.11 6.9-12.6 8.8-20.61 9.97a29.5 29.5 0 0 1-12.13-2.09c-8.82-3.52-13.47-10.13-16.95-18.71-5.94-14.64-16.54-46.87-9.99-61.1 4.53-9.83 13.44-13.39 23-16.67"/><path fill="#c8e4e5" d="M1123.42 1249.99c3.96-.18 7.39-.59 10.71 1.99 3.88 8.24 16.89 50.61 16.56 57.31-.15 3.09-2.87 5.42-4.88 7.57-3.32.02-6.29-.09-8.97-2.34-7.93-6.64-17.89-45.85-17.76-56.35.05-4 1.64-5.59 4.34-8.18"/><path fill="#83c0ca" d="M505.876 1008.23c6.744-.39 13.625-.52 19.81 2.59 7.437 3.73 11.328 11.61 13.991 19.13 5.626 15.89 14.176 43.67 6.336 59.32-3.804 7.59-9.274 11.04-17.122 13.62-6.948 1.31-13.534 1.78-20.092-1.33-8.19-3.89-12.652-11.88-15.381-20.17-3.166-9.63-10.646-38.99-10.773-48.96-.048-3.72.646-7.12 2.397-10.42 4.5-8.49 12.192-11.25 20.834-13.78"/><path fill="#c8e4e5" d="M506.919 1024.03c3.278-.17 6.87-.72 9.364 1.68 6.798 6.55 15.578 43.29 14.692 52.86-.439 4.75-2.391 6.66-5.916 9.48-3.745.06-6.887.19-9.92-2.43-3.724-3.22-14.376-49.53-14.176-56.06 1.071-2.82 3.544-3.97 5.956-5.53"/><path fill="#83c0ca" d="M1158.8 1073.11c5.49-.24 10.51-.2 15.74 1.72 8.15 2.99 12.92 8.48 16.27 16.3 5.14 12 16.59 50.48 11.38 61.81-4.3 9.37-12.5 13.29-21.58 16.68-5.88.54-10.89.57-16.3-2.01-9.53-4.54-14.52-14.68-17.72-24.23-4.91-14.71-16.11-41.09-8.21-55.96 4.32-8.12 12.12-11.58 20.42-14.31"/><path fill="#c8e4e5" d="M1159.76 1087.94c.31.02.62.03.93.06 3.38.34 5.64.65 7.85 3.51 6.33 8.17 17.44 46.78 15.3 56.47-.7 3.17-3.61 4.66-6.11 6.38-2.07-.13-3.28-.38-5.12-1.33-6.21-8.24-17.53-49.05-18.29-60.47 1.44-2.7 2.84-3.11 5.44-4.62"/><path fill="#83c0ca" d="M1263.57 583.324c6.32.509 12.4 1.528 17.57 5.497 11.53 8.862 21.3 42.826 23.17 57.401 1.11 8.701-.04 17.109-5.65 24.137-5.25 6.572-12.37 9.173-20.46 10.172-6.5-.31-12.37-1.009-17.91-4.728-3.87-2.599-6.83-6.067-9-10.17-4.51-8.504-12.07-33.812-14.01-43.716-1.8-9.213-1.53-18.843 4.07-26.772 5.38-7.611 13.43-10.31 22.22-11.821"/><path fill="#c8e4e5" d="M1260.71 598.731c2.87.136 6.01.048 8.34 1.983 4.07 3.359 17.62 50.331 17.92 56.52-1.47 3.333-3.78 4.648-6.72 6.655-2.23.118-6.1.873-7.79-.811-6.85-6.79-16.61-43.229-16.76-53.72-.08-4.943 1.55-7.267 5.01-10.627"/><path fill="#83c0ca" d="M768.655 487.227c5.099-.132 9.629-.022 14.234 2.427 14.534 7.728 20.864 28.933 24.867 43.78 3.398 12.602 6.656 29.649-.594 41.419-4.938 8.015-11.076 9.795-19.705 11.606-5.497-.075-10.311-.04-15.241-2.884-13.26-7.651-18.881-24.349-22.846-38.222-3.853-13.482-8.76-31.278-1.137-44.226 4.794-8.144 11.561-11.575 20.422-13.9"/><path fill="#c8e4e5" d="M765.736 504.015c3.949-.277 7.837-.762 10.859 2.295 6.093 6.163 17.269 46.118 17.25 55.497-.008 3.951-1.675 5.293-4.256 7.913-3.452.302-6.132.687-9.227-1.262-8.756-5.512-15.524-40.504-17.147-50.907-.882-5.647-.963-8.807 2.521-13.536"/><path fill="#83c0ca" d="M1341.74 559.253c5.38-.195 10.24-.051 15.13 2.451 14.1 7.214 18.79 23.1 23.01 37.165 4.19 13.957 9.56 32.476 1.81 46.033-4.51 7.886-10.73 11.376-19.2 13.862-5.86.317-11.96-.449-17.26-3.092-8.83-4.404-13.69-12.895-16.7-21.953-5.15-15.527-15.19-45.432-7.1-60.496 4.36-8.125 11.79-11.63 20.31-13.97"/><path fill="#c8e4e5" d="M1341.96 575.991c2.32-.055 5.96-.32 7.7 1.486 5.33 5.534 18.77 49.562 17.82 57.695-.38 3.255-3.04 5.028-5.38 7.02-3.48-.021-6.24.054-8.98-2.435-5.26-4.759-17.01-49.602-17.03-57.658 1.03-3.147 3.29-4.325 5.87-6.108"/><path fill="#83c0ca" d="M688.714 508.176c5.879-.387 10.945-.621 16.434 1.849 9.383 4.221 15.785 12.558 19.439 21.968 6.237 16.06 15.306 43.349 7.552 60.052-3.671 7.907-8.726 11.775-16.715 14.821-6.116.835-11.796.956-17.559-1.652-10.534-4.768-16.875-14.436-20.709-24.98-5.831-16.032-13.952-42.012-5.868-58.393 4.024-8.153 9.037-11.013 17.426-13.665"/><path fill="#c8e4e5" d="M693.216 524.623c2.575.501 4.749.942 6.625 2.941 7.986 8.511 17.181 43.501 16.599 55.125-.231 4.627-1.94 6.67-5.304 9.508-2.866-.192-5.203-.261-7.336-2.34-5.577-5.439-16.884-47.688-16.614-55.971.149-4.587 2.842-6.476 6.03-9.263"/><path fill="#83c0ca" d="M617.045 529.324c4.178.37 8.519 1.013 12.344 2.828 12.272 5.822 18.415 19.971 22.492 32.131 4.89 14.586 10.757 35.137 2.995 49.614-4.696 8.759-11.344 12.08-20.333 15.034-7.105 1.163-12.646.127-18.602-4.069-14.74-10.382-21.482-36.316-24.227-53.238-1.77-10.914-1.846-22.662 5.211-31.858 5.481-7.141 11.492-9.163 20.12-10.442"/><path fill="#c8e4e5" d="M613.963 544.959c3.541.329 6.121.621 8.503 3.515 7.431 9.033 18.424 45.056 17.002 56.352-.498 3.951-2.424 5.597-5.285 7.985-.305-.019-.613-.026-.917-.058-3.456-.363-5.933-1.117-8.143-3.912-7.304-9.235-18.536-44.97-16.622-56.582.644-3.911 2.502-5.103 5.462-7.3"/><path fill="#174b7b" d="M1302.4 495.401c33.35-4.735 72.59 4.189 102.16 19.616 35.27 18.395 71.07 53.837 83.3 92.478l-24.78 8.428-.65-1.496c-17.57-40.165-49.47-67.788-90.05-83.644-20.98-6.746-41.82-10.181-63.91-8.649-49.36 3.426-88.09 29.157-119.95 65.527-8.76-3.223-17.37-6.487-25.83-10.472.93-1.418 1.87-2.749 2.94-4.06 33.97-41.415 82.77-72.552 136.77-77.728m-534.703-88.972c11.429-1.293 24.17-.825 35.596-.194 112.297 6.207 205.207 62.45 278.487 144.941-7.31-3.721-14.58-7.173-22.36-9.84-11.28-3.869-24.17-6.725-34.51-12.721-7.69-4.45-13.8-11.537-20.81-16.931-7.563-5.82-15.899-10.972-23.85-16.25-58.129-38.587-126.047-63.353-196.436-62.455-98.366 1.254-184.225 46.476-251.784 115.69-11.673 13.372-22.609 27.094-32.445 41.884-51.945 78.111-71.59 160.783-52.876 253.725a1852 1852 0 0 0-27.231 7.57c-4.488-15.988-6.483-33.629-7.73-50.178-7.306-96.974 29.898-191.307 92.741-264.21 69.123-80.188 158.093-123.169 263.208-131.031"/><path fill="#174b7b" d="M763.18 282.433a560 560 0 0 1 9.56-.29c139.541-3.116 266.38 50.341 366.39 146.317a405 405 0 0 1 46.8-25.771c23.93-11.241 50.4-20.725 76.33-25.866 53.74-10.656 115.64-5.876 167.01 12.933 72.68 26.611 130.58 83.62 162.78 153.339 41.1 1.082 80.37 5.984 118.66 22.229 86.02 36.502 183.15 137.851 217.78 224.206a312.26 312.26 0 0 1-3.89 243.74c-28.69 66.24-85.17 125.97-146.98 162.66-23.87 14.18-48.91 24.88-74.69 35.05.47-15.02 1.94-29.98 2.29-45.03 14.42-7.93 30.16-13.56 44.72-21.35 39.49-21.1 72.95-52.72 101.03-87.32a268.08 268.08 0 0 0 59.56-198.912c-2.89-26.302-8.95-52.999-19.25-77.388-24.78-58.668-79.13-119.802-128.76-159.462-58.27-46.572-121.23-68.803-196.3-60.424-10.87-28.407-24.27-55.023-43.62-78.718a256 256 0 0 0-172.84-91.777c-79.68-7.686-152.47 18.575-213.5 69.196-33.78-35.39-69.2-68.546-111.54-93.529a462.4 462.4 0 0 0-355.502-51.158 469.2 469.2 0 0 0-283.321 214.015c-63.398 107.654-78.165 221.57-46.821 342.287-26.665 12.805-52.818 28.851-75.414 47.999-6.522 4.73-12.762 11.185-18.558 16.799a375 375 0 0 0-74.887 101.482c-35.914 71.73-46.454 143.43-20.59 220.52a378.28 378.28 0 0 0 191.47 218.88c41.896 20.72 96.44 36.64 143.417 32.02 14.803-1.45 29.063-6.29 43.337-10.23l55.026-15.26c93.211-25.92 185.686-54.54 278.655-81.32l412.438-118.17 149.81-41.91c23.12-6.46 46.39-11.5 69.17-19.18-5.16 15.13-8.7 30.82-14.32 45.79-58.42 17.75-118.03 31.76-176.87 48.04l-374.809 106.9-306.432 88.79a3892 3892 0 0 0-65.523 18.67c-16.285 4.85-32.893 10.85-49.648 13.67-34.721 5.83-73.015 1.6-107.318-6.03-103.488-23-185.209-89.24-241.236-177.41-46.889-73.79-74.9-159.8-55.302-247.32 26.309-117.5 91.323-200.283 191.981-263.918-4.92-24.949-8.328-49.71-9.687-75.105-6.88-128.517 43.762-253.069 129.128-347.804a504.2 504.2 0 0 1 350.266-164.88"/><path fill="#174b7b" d="M898.29 514.039c24.403 9.369 49.13 17.76 73.66 26.77l148.94 55.433c31.41 11.674 64.77 21.56 95 35.896-24.15 30.575-47.16 62.276-70.56 93.442l-86.27 112.691a2181 2181 0 0 0-29.82 39.444c-6.28 8.575-12.26 18.284-19.59 25.925l-27.713-89.94c-5.49-17.819-10.539-35.811-16.86-53.359-15.536 6.799-31.38 12.706-46.684 20.069a336.9 336.9 0 0 0-112.169 87.651 379.92 379.92 0 0 0-89.1 222.229c-.802 13.61-1.645 27.53-.472 41.12 16.588-4.02 33.356-7.44 50.028-11.1 5.31-1.7 11.22-2.59 16.681-3.76a1534 1534 0 0 0 52.577-11.95l16.43-3.11c5.701-1.14 11.396-2.37 17.136-3.31-10.407 15.51-17.395 33.28-25.389 50.12a3608 3608 0 0 1-27.542 55.47l-12.921 23.06a6319 6319 0 0 0-68.925 132.12c-4.744 9.43-8.386 19.47-13.207 28.81-6.542-5.24-26.621-17.11-34.546-21.05-26.555-16.81-52.439-35.15-78.582-52.64-2.614-2.05-5.237-3.72-8.121-5.38-29.338-20.04-57.586-41.62-86.901-61.71l-47.853-32.71c-7.998-5.56-16.618-10.87-23.814-17.43 23.625-3.59 47.61-11.44 70.761-17.47 4.104-.69 8.209-1.79 12.276-2.7 9.032-2.05 17.932-4.66 26.85-7.16l7.26-1.7c4.757-1.31 9.589-2.23 14.422-3.21-.696-14.77-2.05-29.44-2.149-44.24-.515-77.13 15.49-148.439 47.419-218.454 43.762-95.963 117.002-182.669 209.332-234.961 32.566-18.443 66.207-31.599 101.16-44.645a9501 9501 0 0 0-30.744-108.261m628.36 331.862c19.66 11.16 38.21 25.91 56.73 38.889l98.26 68.064a9658 9658 0 0 1 94.47 64.696c12.52 8.59 28.49 17.03 39.26 27.49-47.29 13.07-95.63 22.87-143.26 34.7 20.17 86.57 7.24 193.34-25.41 275.43-13.18 33.14-31.09 65.13-49.73 95.46-11.77 19.15-25.56 36.25-40.04 53.39-78.33 92.7-184.57 149.07-301.48 177.07 12.05 45.22 25.93 90.11 38.56 135.2-20.36-8.38-40.35-18.07-60.42-27.15l-126-57.15a6897 6897 0 0 0-117.473-52.88c19.203-29.86 41.283-57.08 63.013-85.07l54.38-71.47c25.28-32.78 48.37-67.26 73.93-99.76 5.15 15.05 8.93 30.71 13.15 46.05a7348 7348 0 0 0 21.22 75.99c91.77-21.14 174.19-61.74 234.56-136.21 70.97-87.55 93.18-184.99 81.71-295.35-49.23 9.7-97.06 25.72-146.3 35.51 20.44-47.55 45.29-93.33 66.93-140.34a10761 10761 0 0 1 49.83-109.237c8.03-17.723 15.26-35.999 24.11-53.322"/></svg>