<svg preserveAspectRatio="xMidYMid meet" version="1.1" xmlns="http://www.w3.org/2000/svg" style="display: block;" viewBox="0 0 2048 2048" width="1024" height="1024">
<defs>
	<linearGradient id="Gradient1" gradientUnits="userSpaceOnUse" x1="710.656" y1="702.297" x2="539.291" y2="742.481">
		<stop class="stop0" offset="0" stop-opacity="1" stop-color="rgb(111,83,90)"/>
		<stop class="stop1" offset="1" stop-opacity="1" stop-color="rgb(137,109,111)"/>
	</linearGradient>
	<linearGradient id="Gradient2" gradientUnits="userSpaceOnUse" x1="623.735" y1="725.664" x2="644.051" y2="657.706">
		<stop class="stop0" offset="0" stop-opacity="1" stop-color="rgb(97,58,82)"/>
		<stop class="stop1" offset="1" stop-opacity="1" stop-color="rgb(119,96,97)"/>
	</linearGradient>
</defs>
<path transform="translate(0,0)" fill="rgb(254,254,254)" d="M 0 0 L 2048 0 L 2048 2048 L 0 2048 L 0 0 z"/>
<path transform="translate(0,0)" fill="rgb(153,123,119)" d="M 1662.23 1698.18 C 1676.48 1698.21 1690.81 1698.53 1705.05 1697.83 C 1708.34 1697.64 1711.43 1697.67 1714.71 1697.97 L 1835.13 1697.93 C 1855.56 1697.91 1877.1 1699.32 1897.37 1697.44 C 1899.24 1699.78 1899.44 1700.04 1899.72 1703 C 1898.33 1705.04 1898.15 1705.23 1895.5 1705.56 C 1888.9 1706.39 1881.07 1705.61 1874.36 1705.6 L 1827.41 1705.67 L 1659.12 1706.01 L 1662.23 1698.18 z"/>
<path transform="translate(0,0)" fill="rgb(249,245,228)" d="M 236.067 1696.61 C 230.71 1685.38 224.094 1674.86 218.191 1663.92 C 210.527 1649.72 203.604 1634.96 196.519 1620.45 A 1551.68 1551.68 0 0 1 130.966 1462.44 A 1195.77 1195.77 0 0 1 129.141 680.49 C 138.589 653.78 148.225 626.31 159.449 600.315 C 248.89 393.181 395.469 219.242 601.76 121.4 C 645.366 100.718 690.503 83.5503 737.576 72.6013 C 845.392 47.5232 965.671 54.42 1069.83 91.9396 C 1184.5 133.249 1283.12 202.537 1365.44 292.019 C 1384.05 312.25 1399.1 335.59 1417.59 355.986 C 1513.6 346.016 1607.97 388.306 1681.17 447.81 C 1703.85 466.25 1725.9 485.357 1746.34 506.306 C 1879.89 643.226 1964.62 835.304 1984.11 1024.99 C 2002.63 1205.22 1953.68 1402.08 1871.17 1561.84 C 1853.91 1595.26 1834.8 1628.56 1814.85 1660.44 C 1807.18 1672.7 1798.35 1684.31 1790.9 1696.65 A 3103.51 3103.51 0 0 0 1861.85 1696.68 C 1872.98 1696.63 1886.62 1695.07 1897.37 1697.44 C 1877.1 1699.32 1855.56 1697.91 1835.13 1697.93 L 1714.71 1697.97 C 1711.43 1697.67 1708.34 1697.64 1705.05 1697.83 C 1690.81 1698.53 1676.48 1698.21 1662.23 1698.18 L 1659.12 1706.01 C 1651.8 1725.04 1641.91 1742.81 1632.29 1760.75 A 1442.61 1442.61 0 0 1 1507.44 1952.3 C 1500.4 1961.34 1490.77 1977.67 1480.48 1982.72 C 1478.97 1983.46 1479.4 1983.14 1477.5 1982.42 C 1476.36 1978.88 1476.85 1977.3 1478.39 1973.91 C 1471.28 1970.13 1359.49 1972.18 1342.5 1971.83 C 1338.24 1976.99 1334.26 1982.74 1328.09 1985.66 C 1326.31 1985.51 1325.7 1985.89 1324.45 1984.44 C 1323.17 1982.96 1322.99 1982.02 1322.62 1980.16 C 1323.85 1977.45 1325.49 1976.13 1327.72 1974.28 C 1320.46 1970.94 1211.41 1972.92 1193.2 1972.71 C 1192.75 1973.64 1192.05 1975.13 1191.48 1975.95 C 1189.69 1978.49 1188.67 1978.6 1185.83 1979.31 C 1183.15 1978.17 1183.32 1978.32 1182.22 1975.61 C 1183.48 1959.42 1256.45 1817.83 1269.78 1794 A 1190.9 1190.9 0 0 1 1027.78 1862.84 C 999.566 1867.75 971.526 1872.17 942.909 1873.74 C 942.257 1888.93 944.184 1923.7 932.442 1934.44 C 924.474 1941.74 911.491 1944.29 901.322 1947.11 A 496.424 496.424 0 0 1 756.332 1964.38 C 732.416 1963.68 681.074 1957.62 664.254 1938.64 A 21.6521 21.6521 0 0 1 658.783 1922.15 C 661.165 1893.83 706.528 1876.58 728.724 1865.88 C 740.405 1860.24 752.196 1854.38 763.402 1847.84 C 775.591 1840.73 786.02 1830.2 796.962 1821.33 C 753.442 1821.11 707.09 1810.94 669.904 1787.58 C 661.758 1782.46 652.836 1775.69 650.934 1765.67 A 18.5494 18.5494 0 0 1 654.325 1751.04 C 662.767 1739.65 677.775 1736.82 690.882 1734.66 C 689.234 1725.4 688.694 1715.85 687.572 1706.51 C 671.593 1705.3 655.093 1706 639.056 1705.92 L 547.564 1705.57 L 287.12 1705.17 C 270.641 1705.28 160.789 1708.29 151.432 1704.67 C 148.798 1703.66 147.784 1702.96 146.591 1700.43 L 147.444 1698.84 C 150.387 1696.96 152.633 1697.11 155.975 1697.14 C 182.369 1694.94 209.548 1697.4 236.067 1696.61 z"/>
<path transform="translate(0,0)" fill="rgb(153,123,119)" d="M 1520.26 1182.22 L 1520.9 1183.3 C 1525.03 1190.23 1529.92 1196.29 1533.49 1203.68 C 1546.81 1231.34 1557.15 1270.07 1562.87 1300.18 C 1565.63 1314.67 1566.83 1329.89 1570.38 1344.16 C 1580.19 1325.97 1591.92 1306.47 1612.91 1299.89 C 1626.78 1295.54 1643.22 1297.6 1655.93 1304.51 C 1686.43 1321.1 1702.08 1361.82 1711.06 1393.22 C 1733.85 1472.91 1736.03 1617.46 1714.71 1697.97 C 1711.43 1697.67 1708.34 1697.64 1705.05 1697.83 C 1713.73 1671.39 1715.93 1639.59 1718.24 1611.92 C 1724.51 1536.65 1721.35 1387.84 1669.76 1327.59 C 1659.89 1316.06 1647.59 1307.57 1631.95 1306.66 C 1619.3 1305.93 1607.76 1310.4 1598.5 1318.96 C 1563.52 1351.34 1555.96 1425.81 1553.83 1471.68 L 1546.09 1468.79 C 1547.4 1444.57 1549.51 1420.62 1554.18 1396.78 C 1556.43 1385.3 1561.53 1373.51 1562.32 1361.9 C 1563 1352.01 1560.4 1341.27 1558.85 1331.49 C 1553.56 1298.12 1537.97 1217.44 1516.85 1192.75 L 1520.26 1182.22 z"/>
<path transform="translate(0,0)" fill="rgb(153,123,119)" d="M 344.363 1117.9 C 345.667 1118.67 347.1 1119.73 348.177 1120.82 C 356.658 1129.43 359.668 1150.47 358.987 1162.24 C 357.36 1190.35 339.164 1210.8 319.006 1228.48 C 318.668 1239.8 317.002 1250.2 314.172 1261.16 C 323.021 1252.72 331.061 1247.3 342.611 1243.07 C 342.587 1240 342.598 1236.93 343.049 1233.89 C 344.797 1222.08 352.934 1211.96 362.4 1205.14 C 375.87 1195.43 392.559 1192.05 408.86 1194.97 C 414.424 1195.97 418.62 1197.22 421.937 1201.95 C 423.127 1206.59 421.498 1209.68 419.164 1213.6 C 408.185 1232.05 387.423 1245.95 365.984 1247.98 C 357.958 1248.75 348.958 1247.79 341.198 1250.03 C 328.58 1253.67 316.565 1263.8 310.135 1275.07 C 298.984 1294.6 292.727 1327.78 298.822 1349.76 C 301.235 1358.46 306.403 1366.37 308.894 1375.67 C 317.35 1366.31 326.03 1357.45 335.032 1348.62 C 334.729 1339.99 335.838 1332.12 339.103 1324.12 C 346.407 1306.23 362.53 1292.37 380.12 1285.04 C 383.402 1283.67 392.498 1279.76 395.562 1281.43 C 397.924 1282.72 399.163 1285.28 399.777 1287.79 C 402.349 1298.32 398.113 1312.14 392.652 1321.09 C 380.623 1340.79 361.761 1347.8 340.274 1352.69 C 333.682 1353.93 315.333 1374.37 309.831 1379.71 C 309.762 1390.93 308.931 1409.04 302.296 1418.54 C 301.072 1420.29 300.972 1420.25 298.786 1420.67 C 297.748 1408.94 306.626 1394.81 305.249 1381.59 C 303.245 1362.37 270.37 1313.83 259.86 1295.05 A 193.326 193.326 0 0 1 247.085 1267.98 C 234.324 1261.38 222.698 1254.18 213.629 1242.81 C 200.62 1226.5 199.98 1206.19 203.202 1186.47 C 203.627 1183.87 204.294 1183.15 206.418 1181.73 C 218.985 1184.53 239.478 1201.46 247.098 1212.27 C 260.311 1231.02 257.739 1251.52 253.9 1272.71 C 264.215 1295.53 279.789 1316.57 291.663 1338.75 C 288.196 1300.79 309.253 1269.67 314.246 1232.19 C 305.836 1214.68 299.527 1196.69 302.727 1177.02 C 306.498 1153.82 325.972 1131.31 344.363 1117.9 z"/>
<path transform="translate(0,0)" fill="rgb(249,245,228)" d="M 389.07 1287.95 L 392.958 1288 L 394.571 1289.8 C 396.578 1298.28 392.933 1307.99 388.942 1315.46 C 379.489 1333.17 365.197 1339.78 346.855 1345.25 C 343.845 1345.63 343.496 1346.04 341.009 1344.4 C 339.511 1341.42 340.106 1338.75 340.901 1335.63 C 344.336 1322.19 355.223 1305.71 367.415 1298.72 C 374.604 1294.59 381.259 1290.83 389.07 1287.95 z"/>
<path transform="translate(0,0)" fill="rgb(249,245,228)" d="M 209.024 1190.65 C 222.561 1196.11 236.469 1207.57 244.119 1220.06 C 252.248 1233.33 252.961 1248.8 249.441 1263.62 C 237.958 1258.96 223.71 1247.2 216.743 1236.9 C 208.106 1224.14 206.246 1205.58 209.024 1190.65 z"/>
<path transform="translate(0,0)" fill="rgb(249,245,228)" d="M 391.125 1200.37 C 396.756 1200.01 405.179 1200.04 410.475 1201.94 C 413.383 1202.99 414.467 1204.25 415.726 1206.99 C 415.605 1208.58 415.443 1210 414.718 1211.46 C 407.872 1225.21 387.107 1235.53 373.264 1240.44 C 366.23 1241.91 356.63 1244.53 349.583 1242.7 C 348.385 1241.22 347.293 1239.99 347.011 1238.01 C 346.147 1231.96 351.608 1224.86 355.214 1220.46 C 364.324 1209.35 376.774 1201.77 391.125 1200.37 z"/>
<path transform="translate(0,0)" fill="rgb(249,245,228)" d="M 343.898 1125.74 C 344.43 1126.12 344.995 1126.45 345.494 1126.88 C 352.867 1133.08 353.847 1152.77 353.26 1161.83 C 351.561 1188.09 335.375 1206.19 316.529 1222.82 C 308.48 1212.3 306.072 1194.57 307.541 1181.74 C 310.056 1159.78 326.972 1138.82 343.898 1125.74 z"/>
<path transform="translate(0,0)" fill="rgb(249,245,228)" d="M 1553.83 1471.68 C 1555.96 1425.81 1563.52 1351.34 1598.5 1318.96 C 1607.76 1310.4 1619.3 1305.93 1631.95 1306.66 C 1647.59 1307.57 1659.89 1316.06 1669.76 1327.59 C 1721.35 1387.84 1724.51 1536.65 1718.24 1611.92 C 1715.93 1639.59 1713.73 1671.39 1705.05 1697.83 C 1690.81 1698.53 1676.48 1698.21 1662.23 1698.18 C 1662.71 1697.13 1663.17 1696.08 1663.6 1695 C 1677.11 1660.69 1699.2 1593.72 1683.96 1559.58 C 1665.91 1519.13 1594.42 1486.96 1553.83 1471.68 z"/>
<path transform="translate(0,0)" fill="rgb(126,98,102)" d="M 308.34 419.072 L 416.984 419.396 C 438.556 419.399 460.232 418.789 481.784 419.581 C 482.693 434.392 481.811 449.806 481.772 464.663 L 481.591 554.936 L 481.932 617.139 C 482.011 628.651 482.856 640.772 481.469 652.183 L 367.922 652.138 C 350.425 652.129 332.139 653.154 314.71 651.804 C 311.872 651.584 310.076 651.738 308.031 649.706 C 306.007 639.613 307.332 627.48 307.422 617.101 L 307.747 558.214 L 307.664 469.202 C 307.608 452.777 306.345 435.329 308.34 419.072 z"/>
<path transform="translate(0,0)" fill="rgb(249,245,228)" d="M 317.966 425.511 A 15511.7 15511.7 0 0 1 475.199 425.392 C 475.889 468.918 475.289 512.534 475.417 556.073 C 475.504 585.643 476.852 615.795 475.456 645.275 L 473.25 646.386 L 313.994 645.985 A 10304.8 10304.8 0 0 1 313.591 495.5 L 313.813 450.955 C 313.825 444.418 313.198 437.803 313.63 431.285 C 313.768 429.214 313.936 427.852 315.1 426.08 L 317.966 425.511 z"/>
<path transform="translate(0,0)" fill="rgb(126,98,102)" d="M 424.084 440.495 L 459.019 440.594 L 458.041 631.54 C 427.141 633.288 395.486 631.952 364.5 631.989 L 328.672 631.991 C 329.353 568.311 327.435 504.603 328.319 440.931 C 360.176 439.999 392.207 440.579 424.084 440.495 z"/>
<path transform="translate(0,0)" fill="rgb(249,245,228)" d="M 333.968 447.024 A 4797.54 4797.54 0 0 1 452.527 446.896 L 452.138 555.318 C 452.055 577.495 452.514 599.743 451.808 621.906 L 451.484 621.222 L 451.586 625.331 C 448.905 626.472 447.08 626.453 444.338 625.352 C 441.635 624.267 440.016 622.7 438.04 620.617 C 437.366 622.578 437.099 623.181 435.661 624.785 C 430.372 627.693 365.926 626.323 355.534 626.377 L 361.589 618.646 C 359.794 618.809 358.529 618.251 356.826 617.734 L 349.394 626.399 L 334.921 626.253 L 333.968 447.024 z"/>
<path transform="translate(0,0)" fill="rgb(126,98,102)" d="M 369.157 557.646 C 359.9 548.781 353.817 539.393 353.757 526.1 C 353.702 514.019 357.953 500.781 366.862 492.357 C 374.624 485.019 385.451 481.397 396.064 481.981 A 44.2585 44.2585 0 0 1 426.692 497.223 A 37.1676 37.1676 0 0 1 435.523 525.822 C 433.756 540.694 424.134 550.867 413.359 560.184 C 411.289 561.408 409.05 562.404 407.761 564.512 L 404.844 564.037 C 397.896 564.631 391.659 565.184 384.868 563.154 L 388.174 562.443 L 385.817 561.592 L 389.973 559.536 C 400.166 559.007 409.27 557.367 417.049 550.119 C 424.838 542.862 429.175 533.262 429.177 522.584 C 429.179 513.282 426.08 504.291 419.097 497.921 C 411.905 491.361 401.583 487.827 391.89 488.257 C 382.316 488.682 372.989 493.396 366.75 500.632 A 35.5596 35.5596 0 0 0 358.479 527.449 C 359.717 539.395 365.945 547.909 374.807 555.4 C 372.261 555.714 371.154 556.015 369.157 557.646 z"/>
<path transform="translate(0,0)" fill="rgb(249,245,228)" d="M 374.807 555.4 C 365.945 547.909 359.717 539.395 358.479 527.449 A 35.5596 35.5596 0 0 1 366.75 500.632 C 372.989 493.396 382.316 488.682 391.89 488.257 C 401.583 487.827 411.905 491.361 419.097 497.921 C 426.08 504.291 429.179 513.282 429.177 522.584 C 429.175 533.262 424.838 542.862 417.049 550.119 C 409.27 557.367 400.166 559.007 389.973 559.536 C 384.487 558.887 379.898 557.542 374.807 555.4 z"/>
<path transform="translate(0,0)" fill="rgb(105,70,88)" d="M 369.157 557.646 C 371.154 556.015 372.261 555.714 374.807 555.4 C 379.898 557.542 384.487 558.887 389.973 559.536 L 385.817 561.592 L 388.174 562.443 L 384.868 563.154 C 391.659 565.184 397.896 564.631 404.844 564.037 L 407.761 564.512 C 409.05 562.404 411.289 561.408 413.359 560.184 C 415.075 560.424 416.941 560.854 418.664 560.88 C 424.825 559.186 436.692 555.185 442.56 558.185 C 444.798 559.33 444.624 560.557 445.031 562.787 C 442.374 572.691 425.069 589.825 417.158 597.529 C 424.005 605.325 430.766 613.213 438.04 620.617 C 437.366 622.578 437.099 623.181 435.661 624.785 C 430.372 627.693 365.926 626.323 355.534 626.377 L 361.589 618.646 C 359.794 618.809 358.529 618.251 356.826 617.734 C 362.831 610.098 369.331 603.024 375.926 595.906 C 364.005 586.446 351.453 576.901 340.484 566.371 C 349.917 561.24 358.553 558.954 369.157 557.646 z"/>
<path transform="translate(0,0)" fill="rgb(254,254,254)" d="M 384.868 563.154 C 391.659 565.184 397.896 564.631 404.844 564.037 C 401.442 567.592 398.444 571.508 395.366 575.344 C 391.66 570.857 388.3 567.494 383.544 564.145 L 384.868 563.154 z"/>
<path transform="translate(0,0)" fill="rgb(254,254,254)" d="M 413.359 560.184 C 415.075 560.424 416.941 560.854 418.664 560.88 C 424.98 561.258 437.129 559.835 441.446 564.701 C 440.807 569.748 419.46 589.531 414.935 595.256 L 397.531 578.072 C 400.753 574.483 406.766 569.305 407.761 564.512 C 409.05 562.404 411.289 561.408 413.359 560.184 z"/>
<path transform="translate(0,0)" fill="rgb(254,254,254)" d="M 345.092 566.301 C 350.972 563.785 357.631 561.131 364.017 560.392 C 369.717 559.732 372.671 559.706 377.266 563.241 L 392.789 577.924 A 1141.07 1141.07 0 0 1 377.118 594.575 C 366.31 585.473 354.869 576.501 345.092 566.301 z"/>
<path transform="translate(0,0)" fill="rgb(249,245,228)" d="M 395.223 580.974 A 2683.53 2683.53 0 0 1 435.661 624.785 C 430.372 627.693 365.926 626.323 355.534 626.377 L 361.589 618.646 C 372.204 605.536 383.779 593.352 395.223 580.974 z"/>
<path transform="translate(0,0)" fill="rgb(126,98,102)" d="M 536.731 603.213 C 567.174 602.264 597.869 602.985 628.335 603.035 C 657.055 603.081 686.186 602.355 714.835 604.007 C 715.259 621.172 714.59 638.47 714.564 655.648 L 714.962 742.04 L 715.08 803.718 C 715.094 814.378 715.667 825.362 714.933 835.982 C 714.685 839.583 714.598 840.316 712.16 842.982 C 687.221 839.724 543.978 845.283 536.158 840.713 C 535.696 839.285 535.3 837.948 535.049 836.464 C 533.369 826.529 534.24 815.67 534.261 805.586 L 534.17 761.02 L 534.104 666.912 C 534.117 648.406 533.563 629.651 534.658 611.178 C 534.836 608.173 534.839 605.752 536.731 603.213 z"/>
<path transform="translate(0,0)" fill="rgb(249,245,228)" d="M 540.16 609.03 C 596.289 608.033 652.706 609.336 708.87 609.319 L 709.185 750.541 C 709.284 778.769 711.064 808.051 708.839 836.114 A 12853.6 12853.6 0 0 1 540.041 836.332 L 540.16 609.03 z"/>
<path transform="translate(0,0)" fill="url(#Gradient1)" d="M 559.119 624.421 C 604.298 623.423 649.822 625.048 695.042 625.024 C 695.057 640.339 695.469 816.113 693.644 820.666 L 691.25 821.343 A 12426.1 12426.1 0 0 1 555.826 821.607 C 555.71 799.475 553.736 630.777 555.617 626.439 C 556.227 625.034 557.787 624.933 559.119 624.421 z"/>
<path transform="translate(0,0)" fill="rgb(249,245,228)" d="M 560.968 630.303 A 7664.97 7664.97 0 0 1 689.928 630.73 C 690.132 692.203 690.737 753.825 689.124 815.277 A 9357.06 9357.06 0 0 1 562.079 815.954 C 561.138 792.313 561.612 768.432 561.456 744.763 A 10487.7 10487.7 0 0 1 560.968 630.303 z"/>
<path transform="translate(0,0)" fill="rgb(126,98,102)" d="M 634.233 767.261 C 641.006 765.549 644.207 765.72 650.316 769.298 C 659.602 774.738 669.266 787.212 671.467 797.889 C 671.786 799.436 671.784 800.762 671.552 802.316 C 663.078 797.464 657.426 767.958 634.063 770.396 C 632.427 769.475 633.159 770.135 632.048 768.231 L 634.233 767.261 z"/>
<path transform="translate(0,0)" fill="rgb(126,98,102)" d="M 573.585 720.253 C 569.763 711.489 570.271 699.029 572.662 689.998 C 575.858 677.922 583.075 668.061 593.764 661.596 L 594.362 663.624 C 596.415 663.749 598.04 663.315 600.019 662.804 C 588.862 669.792 579.73 678.493 576.608 691.86 C 575.224 697.789 574.515 704.266 575.908 710.234 C 576.085 711.738 576.484 713.482 576.418 714.981 C 576.38 715.492 576.328 716.002 576.304 716.514 C 576.224 718.164 576.341 719.112 576.793 720.657 L 575.99 721.082 L 574.43 719.984 L 573.585 720.253 z"/>
<path transform="translate(0,0)" fill="rgb(126,98,102)" d="M 589.761 732.622 L 591.569 730.665 L 594.276 731.307 C 598.386 737.002 601.752 741.217 608.086 744.619 C 619.121 747.191 626.936 748.317 637.744 743.824 L 639.037 744.421 C 639.147 745.794 639.641 746.649 638.589 747.728 C 634.654 751.763 622.378 752.38 616.827 751.941 C 612.806 751.622 608.664 750.466 604.742 749.522 C 610.081 754.749 624.308 763.043 625.745 769.183 C 632.203 760.97 644.519 755.258 653.252 749.561 C 655.77 750.541 656.877 750.383 659.48 749.747 C 651.672 756.623 642.859 761.539 634.233 767.261 L 632.048 768.231 C 633.159 770.135 632.427 769.475 634.063 770.396 C 642.795 777.364 657.178 788.217 662.057 798.251 C 663.377 800.965 665.518 805.882 664.551 808.822 C 662.064 807.523 660.686 805.229 658.992 803.075 C 649.741 791.313 640.301 780.603 628.796 770.914 L 627.95 770.211 C 625.544 773.69 624.448 775.191 620.301 776.38 C 598.503 782.631 601.183 795.033 586.586 805.163 C 584.799 806.402 584.681 806.489 582.488 806.066 L 584.911 803.625 L 583.753 804.488 C 584.114 803.711 584.239 803.387 584.762 802.591 C 590.896 793.263 600.278 780.648 610.083 775.204 C 613.551 773.278 618.264 772.39 622.094 771.359 C 611.217 757.22 597.166 750.087 589.761 732.622 z"/>
<path transform="translate(0,0)" fill="url(#Gradient2)" d="M 593.764 661.596 C 606.182 653.826 621.428 650.54 635.854 653.798 A 54.9973 54.9973 0 0 1 670.37 678.935 C 677.801 691.447 678.999 708.795 675.267 722.759 C 672.41 733.445 666.6 741.541 659.48 749.747 C 656.877 750.383 655.77 750.541 653.252 749.561 C 658.238 744.57 663.198 738.503 666.321 732.104 C 667.533 729.623 667.835 728.367 666.879 725.812 C 663.211 724.098 660.11 722.765 657.306 719.787 C 656.988 718.335 656.382 717.475 657.216 716.114 C 659.054 713.112 662.467 712.246 665.663 711.544 L 668.166 713.696 L 668.051 715.207 C 665.85 715.352 663.714 715.56 661.533 715.898 C 662.498 719.107 667.49 721.806 670.259 723.608 C 670.857 720.406 671.544 717.149 671.82 713.901 C 672.1 710.596 671.887 708.267 669.524 705.71 C 660.786 696.251 620.31 690.323 607.999 689.246 L 608.251 687.776 C 610.855 687.571 613.378 687.371 615.905 686.66 L 617.657 686.147 C 634.355 684.647 657.108 693.761 672.185 700.221 C 671.525 696.388 670.837 692.616 669.508 688.946 A 46.9375 46.9375 0 0 0 644.308 661.905 C 629.363 655.309 614.774 657.287 600.019 662.804 C 598.04 663.315 596.415 663.749 594.362 663.624 L 593.764 661.596 z"/>
<path transform="translate(0,0)" fill="rgb(209,188,181)" d="M 600.019 662.804 C 614.774 657.287 629.363 655.309 644.308 661.905 A 46.9375 46.9375 0 0 1 669.508 688.946 C 670.837 692.616 671.525 696.388 672.185 700.221 C 657.108 693.761 634.355 684.647 617.657 686.147 L 615.905 686.66 C 613.378 687.371 610.855 687.571 608.251 687.776 L 607.999 689.246 C 596.096 691.676 590.348 696.615 583.613 706.787 C 582.23 708.875 581.864 709.897 579.515 710.971 L 576.873 710.073 L 575.908 710.234 C 574.515 704.266 575.224 697.789 576.608 691.86 C 579.73 678.493 588.862 669.792 600.019 662.804 z"/>
<path transform="translate(0,0)" fill="rgb(105,70,88)" d="M 576.873 710.073 C 576.743 704.859 581.382 699.537 585.008 695.927 C 594.057 686.918 605.698 685.688 617.657 686.147 L 615.905 686.66 C 613.378 687.371 610.855 687.571 608.251 687.776 L 607.999 689.246 C 596.096 691.676 590.348 696.615 583.613 706.787 C 582.23 708.875 581.864 709.897 579.515 710.971 L 576.873 710.073 z"/>
<path transform="translate(0,0)" fill="rgb(249,245,228)" d="M 607.999 689.246 C 620.31 690.323 660.786 696.251 669.524 705.71 C 671.887 708.267 672.1 710.596 671.82 713.901 C 671.544 717.149 670.857 720.406 670.259 723.608 C 667.49 721.806 662.498 719.107 661.533 715.898 C 663.714 715.56 665.85 715.352 668.051 715.207 L 668.166 713.696 L 665.663 711.544 C 662.467 712.246 659.054 713.112 657.216 716.114 C 656.382 717.475 656.988 718.335 657.306 719.787 C 660.11 722.765 663.211 724.098 666.879 725.812 C 667.835 728.367 667.533 729.623 666.321 732.104 C 663.198 738.503 658.238 744.57 653.252 749.561 C 644.519 755.258 632.203 760.97 625.745 769.183 C 624.308 763.043 610.081 754.749 604.742 749.522 C 608.664 750.466 612.806 751.622 616.827 751.941 C 622.378 752.38 634.654 751.763 638.589 747.728 C 639.641 746.649 639.147 745.794 639.037 744.421 L 637.744 743.824 C 626.936 748.317 619.121 747.191 608.086 744.619 C 601.752 741.217 598.386 737.002 594.276 731.307 L 591.569 730.665 L 589.761 732.622 L 587.901 730.615 A 77.0386 77.0386 0 0 1 581.721 728.698 C 577.037 726.988 575.568 724.69 573.585 720.253 L 574.43 719.984 L 575.99 721.082 L 576.793 720.657 C 576.341 719.112 576.224 718.164 576.304 716.514 C 576.328 716.002 576.38 715.492 576.418 714.981 C 576.484 713.482 576.085 711.738 575.908 710.234 L 576.873 710.073 L 579.515 710.971 C 581.864 709.897 582.23 708.875 583.613 706.787 C 590.348 696.615 596.096 691.676 607.999 689.246 z"/>
<path transform="translate(0,0)" fill="rgb(49,5,36)" d="M 619.168 702.442 C 622.403 703.56 624.978 704.411 626.693 707.572 C 626.249 711.072 625.451 711.508 623.173 714.079 L 619.657 712.682 C 617.524 710.024 616.615 708.524 616.146 705.124 L 619.168 702.442 z"/>
<path transform="translate(0,0)" fill="rgb(105,70,88)" d="M 576.418 714.981 C 577.699 717.881 578.704 720.662 581.032 722.905 C 582.546 722.21 583.687 721.548 585.054 720.631 C 590.215 722.214 591.839 726.861 594.276 731.307 L 591.569 730.665 L 589.761 732.622 L 587.901 730.615 A 77.0386 77.0386 0 0 1 581.721 728.698 C 577.037 726.988 575.568 724.69 573.585 720.253 L 574.43 719.984 L 575.99 721.082 L 576.793 720.657 C 576.341 719.112 576.224 718.164 576.304 716.514 C 576.328 716.002 576.38 715.492 576.418 714.981 z"/>
<path transform="translate(0,0)" fill="rgb(126,98,102)" d="M 705.02 220.5 C 723.428 220.416 741.908 220.01 760.302 220.805 C 762.299 264.236 761.031 308.31 760.97 351.813 C 760.921 387.457 762.38 423.901 760.277 459.424 L 632.75 459.737 C 619.159 459.849 592.156 462.04 580.17 458.659 C 578.21 456.026 578.433 451.826 578.309 448.637 C 577.232 420.753 578.354 392.418 578.42 364.491 L 577.85 221.086 C 620.025 219.374 662.78 220.623 705.02 220.5 z"/>
<path transform="translate(0,0)" fill="rgb(249,245,228)" d="M 583.943 226.95 L 754.506 227.159 C 755.503 257.156 754.927 287.387 754.96 317.409 A 13480.6 13480.6 0 0 1 754.776 453.62 L 583.967 453.629 L 583.943 226.95 z"/>
<path transform="translate(0,0)" fill="rgb(126,98,102)" d="M 599.963 243.009 C 646.307 242.298 692.773 242.989 739.129 243 L 738.511 436.592 A 7436.69 7436.69 0 0 0 600.026 436.824 L 599.963 243.009 z"/>
<path transform="translate(0,0)" fill="rgb(249,245,228)" d="M 607.218 249.491 L 732.676 249.766 L 732.142 368.125 C 732.127 388.346 733.786 410.002 731.677 430.018 C 689.814 430.11 647.88 430.997 606.025 430.438 C 605.952 414.595 604.29 254.136 607.218 249.491 z"/>
<path transform="translate(0,0)" fill="rgb(126,98,102)" d="M 684.255 307.018 C 690.44 306.247 698.707 307.522 703.617 311.599 C 706.95 314.367 708.335 318.608 708.696 322.799 C 710.303 341.45 683.886 374.839 672.296 388.646 C 667.944 384.449 664.854 378.781 661.56 373.733 C 650.73 358.917 635.207 343.356 632.942 324.318 C 632.533 320.876 632.933 317.048 635.516 314.469 C 638.444 311.546 643.653 310.723 647.62 310.931 C 656.333 311.389 661.991 317.35 667.59 323.3 C 671.961 315.459 676.278 311.169 684.255 307.018 z"/>
<path transform="translate(0,0)" fill="rgb(254,254,254)" d="M 684.219 313.042 C 689.186 312.66 693.984 312.933 698.281 315.771 C 700.529 317.256 702.126 319.537 702.639 322.192 C 705.839 338.752 682.113 365.421 672.668 378.688 L 658.18 359.347 C 651.315 350.825 643.109 341.185 640.451 330.363 C 639.245 325.453 639.124 321.303 641.886 316.978 C 644.303 315.805 644.954 315.38 647.715 315.99 C 657.187 318.081 664.839 329.422 670.001 336.86 C 673.49 327.376 675.931 319.509 684.219 313.042 z"/>
<path transform="translate(0,0)" fill="rgb(153,123,119)" d="M 489.421 1137.9 C 516 1127.81 562.473 1123.3 591.155 1120.35 C 642.955 1115.03 694.23 1111.1 746.328 1110.17 L 744.488 1117.87 C 732.61 1160.69 724.817 1205.2 717.101 1248.93 C 704.797 1318.65 693.893 1389.4 688.855 1460.05 L 688.101 1468.16 A 1465.56 1465.56 0 0 0 687.015 1698 C 687.188 1700.82 687.256 1703.7 687.572 1706.51 C 671.593 1705.3 655.093 1706 639.056 1705.92 L 547.564 1705.57 L 287.12 1705.17 C 270.641 1705.28 160.789 1708.29 151.432 1704.67 C 148.798 1703.66 147.784 1702.96 146.591 1700.43 L 147.444 1698.84 C 150.387 1696.96 152.633 1697.11 155.975 1697.14 C 166.447 1698.81 178.492 1697.86 189.135 1697.86 A 4294.13 4294.13 0 0 0 257.291 1697.43 C 256.616 1678.25 253.065 1658.51 250.835 1639.38 A 9931.15 9931.15 0 0 1 239.579 1534.32 C 236.969 1509.55 233.433 1484.46 233.065 1459.54 C 230.42 1458.88 228.504 1458.36 226.158 1456.9 C 221.249 1449.78 223.882 1435.62 224.187 1427.34 C 245.016 1424.45 268.635 1425.87 289.697 1426.46 C 283.5 1412.8 276.201 1400.67 267.84 1388.26 C 265.426 1389.17 262.96 1390.14 260.467 1390.82 A 46.7819 46.7819 0 0 1 224.214 1385.64 C 205.429 1374.3 193.033 1348.65 188.491 1327.9 C 187.598 1323.83 186.662 1319.04 189.022 1315.38 C 196.501 1312.86 210.159 1318.94 217.117 1322.19 C 234.333 1330.22 250.138 1344.27 259.515 1360.96 C 263.87 1368.72 267.125 1377.08 271.599 1384.77 C 279.303 1398 287.565 1408.51 292.826 1423.15 L 293.497 1425.63 C 298.611 1428.53 387.697 1426.24 401.585 1426.13 C 405.871 1402.06 412.377 1377.56 423.214 1355.57 C 434.16 1333.37 447.199 1318.62 471.008 1310.53 C 468.544 1253.9 475.861 1192.89 489.421 1137.9 z"/>
<path transform="translate(0,0)" fill="rgb(249,245,228)" d="M 398.479 1638.84 C 401.508 1646.11 407.017 1688.86 405.252 1696.62 L 402.753 1697.73 C 399.533 1697.82 396.601 1698.16 393.589 1696.79 C 392.732 1680.54 396.683 1655.69 398.479 1638.84 z"/>
<path transform="translate(0,0)" fill="rgb(249,245,228)" d="M 194.313 1321.44 C 199.555 1322.19 204.416 1323.55 209.363 1325.41 C 236.149 1335.48 252.802 1357.09 264.38 1382.33 L 263.751 1383.9 C 261.108 1384.72 258.449 1385.52 255.712 1385.95 C 244.149 1387.78 232.556 1384.61 223.13 1377.77 C 206.22 1365.49 197.167 1341.43 194.313 1321.44 z"/>
<path transform="translate(0,0)" fill="rgb(249,245,228)" d="M 230.282 1432.32 L 323.904 1432.52 C 349.629 1432.43 375.458 1431.74 401.167 1432.46 C 400.541 1437.95 399.629 1443.43 398.815 1448.9 L 398.361 1450.05 C 393.928 1452.64 248.56 1451.2 230.143 1451.19 L 230.282 1432.32 z"/>
<path transform="translate(0,0)" fill="rgb(249,245,228)" d="M 576.728 1468.77 C 613.708 1467.21 651.085 1467.91 688.101 1468.16 A 1465.56 1465.56 0 0 0 687.015 1698 C 652.984 1699.08 618.208 1697.97 584.132 1697.41 C 582.744 1621.41 583.909 1544.48 576.728 1468.77 z"/>
<path transform="translate(0,0)" fill="rgb(209,188,181)" d="M 239.931 1459.01 L 397.168 1458.86 C 396.452 1476.67 394.998 1494.27 394.857 1512.13 C 394.649 1538.38 395.949 1564.77 395.053 1591 C 393.964 1622.83 390.298 1655.04 387.232 1686.76 C 386.953 1690.16 386.919 1694.34 384.843 1697.07 C 371.188 1698.57 356.579 1697.58 342.8 1697.53 A 5814.2 5814.2 0 0 0 265.303 1697.45 C 260.145 1660.75 257.179 1623.56 252.985 1586.73 C 248.176 1544.49 241.998 1501.46 239.931 1459.01 z"/>
<path transform="translate(0,0)" fill="rgb(249,245,228)" d="M 485.537 1315.37 C 486.499 1315.31 487.462 1315.24 488.426 1315.23 C 505.43 1315.06 521.755 1320.73 533.864 1332.93 C 546.152 1345.3 553.238 1365.01 557.4 1381.62 C 570.366 1433.38 571.47 1494.51 573.101 1547.81 A 3703.46 3703.46 0 0 1 575.333 1697.92 L 494.839 1697.59 C 467.921 1697.43 440.978 1697.79 414.058 1697.91 C 411.258 1677.64 409.168 1657.13 407.146 1636.77 C 399.393 1558.69 392.352 1400.03 444.661 1337.17 C 455.488 1324.16 468.544 1317.01 485.537 1315.37 z"/>
<path transform="translate(0,0)" fill="rgb(249,245,228)" d="M 495.542 1143.06 C 521.524 1136.55 548.178 1133.23 574.714 1129.89 A 1559.62 1559.62 0 0 1 744.488 1117.87 C 732.61 1160.69 724.817 1205.2 717.101 1248.93 C 704.797 1318.65 693.893 1389.4 688.855 1460.05 L 576.163 1460.52 C 571.231 1418.39 570.131 1352.65 535.228 1323.29 C 518.618 1309.32 498.921 1306.83 478.032 1308.62 C 477.368 1260.07 483.424 1189.54 495.542 1143.06 z"/>
<path transform="translate(0,0)" fill="rgb(49,5,36)" d="M 902.617 453.485 C 899.215 395.375 928.28 329.57 966.358 286.549 C 990.976 258.735 1037.08 229.784 1075.01 227.788 A 182.41 182.41 0 0 1 1124.64 232.19 C 1145.56 236.93 1165.45 245.109 1185.38 252.853 C 1226.93 268.992 1279.79 289.3 1312.7 319.921 C 1318.91 325.7 1323.05 333.685 1329.5 339.018 C 1350.11 356.048 1381.47 371.123 1382.21 401.328 C 1383.09 436.719 1368.78 480.645 1343.65 506.22 C 1337.78 512.197 1329.53 516.698 1324.33 523.131 C 1315.13 534.507 1296.23 579.379 1296.36 594.148 C 1296.43 602.833 1299.21 611.919 1305.69 617.952 C 1313.44 625.167 1329.34 628.271 1334.03 637.174 C 1334.12 641.122 1333.17 643.295 1330.37 646.111 C 1318.53 658.046 1302.58 663.668 1286.24 665.313 C 1277.67 680.787 1267.64 694.721 1258.3 709.622 C 1245.41 730.172 1235.06 758.233 1209.06 765.503 C 1181.18 773.296 1152.96 753.471 1128.8 742.678 C 1126.76 747.046 1124.93 751.31 1123.43 755.906 C 1134.93 762.415 1146.59 768.981 1157.18 776.911 C 1188.81 800.598 1217.14 830.154 1244.54 858.503 A 2318.19 2318.19 0 0 1 1351.69 975.681 C 1365.42 969.021 1380.31 963.327 1393.49 955.76 C 1393.82 948.228 1393.84 940.954 1392.97 933.452 C 1361.97 913.667 1320.96 887.33 1312.62 848.585 C 1305.92 817.481 1327.64 784.934 1343.9 760.15 A 515.912 515.912 0 0 1 1361.84 734.723 C 1361.9 728.176 1362.25 723.349 1367.01 718.459 C 1371.33 714.016 1378.2 712.926 1384.13 713.12 C 1387.53 713.231 1390.6 713.868 1393.83 714.894 C 1414.46 686.864 1441.99 652.6 1473.92 637.438 C 1467.97 634.111 1458.23 630.054 1454.83 623.877 L 1455.4 622.183 C 1457.45 621.515 1459.49 620.925 1461.58 620.391 C 1461.92 611.462 1454.98 601.282 1462.48 593.664 C 1469.2 591.125 1481.52 598.672 1489.19 599.863 C 1498.59 601.322 1508.23 601.085 1517.72 600.976 C 1514.17 592.875 1509.12 580.298 1511.9 571.438 C 1512.61 569.158 1513.55 568.266 1515.47 566.967 C 1525.05 570.382 1532.88 580.593 1541.98 585.824 C 1542.45 586.093 1542.91 586.381 1543.38 586.643 C 1555.94 593.613 1592.28 598.691 1608.02 602.28 C 1685.96 620.053 1723.62 676.842 1760.75 741.576 C 1764.69 735.523 1769.13 726.28 1776.08 723.616 C 1779.14 724.069 1781.1 725.12 1782.88 727.771 C 1790.05 738.462 1781.21 751.774 1782.25 757.573 C 1782.75 760.408 1799.22 765.977 1802.37 772.098 A 14.1396 14.1396 0 0 1 1803.79 776.541 C 1804.11 778.951 1803.99 781.387 1803.31 783.721 C 1802.8 785.444 1802 786.069 1800.46 786.986 C 1794.6 790.464 1781.35 786.977 1774.68 786.671 C 1783.23 832.281 1778.4 877.355 1751.6 916.234 C 1720.3 961.649 1675.88 987.345 1622.09 997.022 C 1591.18 1002.58 1556.93 1003.27 1526.2 996.19 C 1536.18 1022.23 1547.74 1050.08 1549.58 1078.14 C 1544.19 1089.76 1541.22 1102.43 1537.87 1114.75 C 1531.77 1137.17 1526.48 1159.86 1520.26 1182.22 L 1516.85 1192.75 C 1537.97 1217.44 1553.56 1298.12 1558.85 1331.49 C 1560.4 1341.27 1563 1352.01 1562.32 1361.9 C 1561.53 1373.51 1556.43 1385.3 1554.18 1396.78 C 1549.51 1420.62 1547.4 1444.57 1546.09 1468.79 L 1553.83 1471.68 C 1594.42 1486.96 1665.91 1519.13 1683.96 1559.58 C 1699.2 1593.72 1677.11 1660.69 1663.6 1695 C 1663.17 1696.08 1662.71 1697.13 1662.23 1698.18 L 1659.12 1706.01 C 1651.8 1725.04 1641.91 1742.81 1632.29 1760.75 A 1442.61 1442.61 0 0 1 1507.44 1952.3 C 1500.4 1961.34 1490.77 1977.67 1480.48 1982.72 C 1478.97 1983.46 1479.4 1983.14 1477.5 1982.42 C 1476.36 1978.88 1476.85 1977.3 1478.39 1973.91 C 1471.28 1970.13 1359.49 1972.18 1342.5 1971.83 C 1338.24 1976.99 1334.26 1982.74 1328.09 1985.66 C 1326.31 1985.51 1325.7 1985.89 1324.45 1984.44 C 1323.17 1982.96 1322.99 1982.02 1322.62 1980.16 C 1323.85 1977.45 1325.49 1976.13 1327.72 1974.28 C 1320.46 1970.94 1211.41 1972.92 1193.2 1972.71 C 1192.75 1973.64 1192.05 1975.13 1191.48 1975.95 C 1189.69 1978.49 1188.67 1978.6 1185.83 1979.31 C 1183.15 1978.17 1183.32 1978.32 1182.22 1975.61 C 1183.48 1959.42 1256.45 1817.83 1269.78 1794 A 1190.9 1190.9 0 0 1 1027.78 1862.84 C 999.566 1867.75 971.526 1872.17 942.909 1873.74 C 942.257 1888.93 944.184 1923.7 932.442 1934.44 C 924.474 1941.74 911.491 1944.29 901.322 1947.11 A 496.424 496.424 0 0 1 756.332 1964.38 C 732.416 1963.68 681.074 1957.62 664.254 1938.64 A 21.6521 21.6521 0 0 1 658.783 1922.15 C 661.165 1893.83 706.528 1876.58 728.724 1865.88 C 740.405 1860.24 752.196 1854.38 763.402 1847.84 C 775.591 1840.73 786.02 1830.2 796.962 1821.33 C 753.442 1821.11 707.09 1810.94 669.904 1787.58 C 661.758 1782.46 652.836 1775.69 650.934 1765.67 A 18.5494 18.5494 0 0 1 654.325 1751.04 C 662.767 1739.65 677.775 1736.82 690.882 1734.66 C 689.234 1725.4 688.694 1715.85 687.572 1706.51 C 687.256 1703.7 687.188 1700.82 687.015 1698 A 1465.56 1465.56 0 0 1 688.101 1468.16 L 688.855 1460.05 C 693.893 1389.4 704.797 1318.65 717.101 1248.93 C 724.817 1205.2 732.61 1160.69 744.488 1117.87 L 746.328 1110.17 C 768.224 1015.47 801.376 919.383 856.834 838.712 C 869.707 819.986 884.36 802.863 898.839 785.395 C 911.21 770.469 920.646 752.697 937.392 741.912 C 942.048 738.914 949.233 735.739 954.915 737.117 C 957.722 737.798 959.832 739.689 961.952 741.512 C 971.753 720.415 984.629 700.602 994.03 679.455 C 989.604 671.11 985.391 662.525 980.149 654.658 C 963.812 681.785 942.109 699.458 910.983 707.197 A 113.137 113.137 0 0 1 824.583 694.771 C 796.61 677.802 779.574 649.356 772.035 618.001 C 762.417 578.002 770.349 535.952 791.887 501.102 C 806.648 477.217 831.447 452.955 859.569 446.282 C 874.66 442.701 889.411 445.607 902.617 453.485 z"/>
<path transform="translate(0,0)" fill="rgb(239,220,177)" d="M 947.192 747.239 C 950.026 747.008 952.555 746.818 955.389 747.287 L 956.654 748.941 C 955.415 753.387 952.197 755.77 948.884 758.73 C 948.611 754.83 948.603 750.923 947.192 747.239 z"/>
<path transform="translate(0,0)" fill="rgb(209,188,181)" d="M 1765.7 749.782 C 1767.64 745.366 1768.85 741.948 1772.76 738.885 L 1774.6 739.118 C 1776.52 743.137 1775.06 748.528 1773.67 752.511 C 1773.08 754.2 1772.37 755.301 1771.14 756.588 C 1768.57 754.571 1767.32 752.595 1765.7 749.782 z"/>
<path transform="translate(0,0)" fill="rgb(209,188,181)" d="M 972.233 1415.13 C 977.237 1414.09 982.266 1413.31 987.314 1412.52 C 988.004 1413.98 988.128 1413.42 987.884 1414.15 C 980.769 1417.68 975.026 1425.52 970.094 1431.57 C 971.056 1426.07 971.774 1420.69 972.233 1415.13 z"/>
<path transform="translate(0,0)" fill="rgb(254,254,254)" d="M 777.333 1713.48 C 784.528 1715.55 793.419 1721.59 799.356 1726.13 L 799.505 1728.27 C 797.826 1728.22 795.995 1728.17 794.367 1727.74 C 788.587 1726.22 779.562 1721.7 776.424 1716.55 L 777.333 1713.48 z"/>
<path transform="translate(0,0)" fill="rgb(254,254,254)" d="M 778.873 1847.67 C 786.377 1853.16 794.225 1858.14 802.019 1863.2 L 801.55 1864.12 L 802.387 1864.44 L 802.022 1863.06 L 803.691 1864.76 L 800.641 1867.46 C 798.547 1867.35 796.682 1867.18 794.734 1866.32 C 790.263 1864.36 776.244 1855.75 774.58 1851.18 L 778.873 1847.67 z"/>
<path transform="translate(0,0)" fill="rgb(249,245,228)" d="M 791.23 1702.61 C 797.117 1704.78 814.496 1714.95 818.069 1719.65 L 811.348 1722.6 C 806.406 1722.49 793.015 1712.15 786.936 1709.45 L 785.631 1708.88 L 785.623 1707.84 L 791.23 1702.61 z"/>
<path transform="translate(0,0)" fill="rgb(254,254,254)" d="M 809.996 1819.67 C 822.327 1824.32 832.045 1830.65 842.87 1837.99 L 835.994 1844.45 C 824.604 1838.88 813.156 1833.59 801.889 1827.75 L 809.996 1819.67 z"/>
<path transform="translate(0,0)" fill="rgb(217,134,127)" d="M 826.841 1802.49 C 834.661 1804.93 843.044 1808.35 847.261 1815.86 C 848.874 1818.73 849.54 1821.85 848.422 1825.03 C 848.236 1825.55 848.024 1826.07 847.826 1826.59 L 847.964 1826.6 L 845.426 1828.75 L 842.592 1828.1 A 1340.11 1340.11 0 0 0 816.425 1813.58 C 820.287 1810.29 823.504 1806.3 826.841 1802.49 z"/>
<path transform="translate(0,0)" fill="rgb(217,134,127)" d="M 806.892 1686.63 C 813.01 1688.76 820.334 1690.8 825.759 1694.38 C 828.285 1696.05 830.928 1698.82 831.211 1701.98 C 831.598 1706.32 827.64 1710.26 825.112 1713.32 C 815.393 1708.99 806.112 1702.2 797.05 1696.58 L 806.892 1686.63 z"/>
<path transform="translate(0,0)" fill="rgb(239,220,177)" d="M 794.87 1833.74 C 805.499 1840.75 818.202 1846.87 830.125 1851.21 L 820.307 1856.38 C 818.361 1857.77 816.603 1858.65 814.386 1859.53 C 804.994 1858.52 793.688 1847.79 785.951 1842.14 L 794.87 1833.74 z"/>
<path transform="translate(0,0)" fill="rgb(254,254,254)" d="M 1425.35 1357.41 C 1439.02 1363.62 1450.64 1373.57 1464.45 1379.03 L 1457.61 1389.75 C 1455.53 1392.68 1452.95 1395.31 1450.55 1397.99 C 1443.98 1393.16 1437.11 1386.63 1432.19 1380.1 C 1426.45 1372.45 1424.13 1366.89 1425.35 1357.41 z"/>
<path transform="translate(0,0)" fill="rgb(251,222,143)" d="M 947.192 747.239 C 948.603 750.923 948.611 754.83 948.884 758.73 C 947.434 762.466 946.814 765.365 947.997 769.241 C 948.902 772.208 950.565 775.93 949.615 778.985 A 712.338 712.338 0 0 0 929.233 788.232 L 918.192 773.216 C 926.603 762.247 934.769 753.53 947.192 747.239 z"/>
<path transform="translate(0,0)" fill="rgb(254,254,254)" d="M 1441 1312.91 C 1447.68 1318.99 1451.92 1329.09 1458.28 1335.88 C 1465.03 1343.1 1474.67 1347.29 1480.63 1355.25 C 1476.89 1361.32 1472.85 1367.24 1468.97 1373.22 C 1468.77 1373.43 1468.63 1373.7 1468.38 1373.84 C 1464.98 1375.84 1455.44 1363.03 1450.22 1361.09 C 1445.07 1347.12 1434.17 1332.9 1433.52 1317.81 C 1434.99 1315.08 1438.31 1314.15 1441 1312.91 z"/>
<path transform="translate(0,0)" fill="rgb(251,222,143)" d="M 955.601 784.881 C 961.91 791.134 974.978 823.101 979.787 832.938 C 971.778 834.892 964.09 837.147 956.337 839.953 C 951.062 833.271 938.924 806.574 933.208 796.298 C 940.838 793.038 948.161 788.607 955.601 784.881 z"/>
<path transform="translate(0,0)" fill="rgb(254,254,254)" d="M 1445.49 1285.74 C 1448.07 1285.83 1451.1 1285.75 1453.49 1286.84 C 1466.09 1292.59 1482 1320.29 1495.91 1331.66 C 1492.36 1336.35 1489.4 1341.58 1486.28 1346.57 C 1485.3 1348.33 1484.61 1349.3 1482.98 1350.5 C 1482.43 1350.25 1481.84 1350.08 1481.33 1349.76 C 1472.56 1344.25 1444.32 1301.95 1442.91 1292.18 C 1442.45 1288.93 1443.69 1288.12 1445.49 1285.74 z"/>
<path transform="translate(0,0)" fill="rgb(249,245,228)" d="M 1452.59 1244.44 C 1474.18 1246.07 1478.15 1274.26 1493.56 1280.19 L 1494.93 1279.15 C 1495.6 1272.06 1492.27 1263.36 1491.08 1256.18 L 1492.93 1255.38 L 1491.85 1254.43 L 1491.1 1255.04 C 1491.97 1255.48 1493.04 1255.64 1493.69 1256.36 C 1495.46 1258.3 1504.11 1289.63 1506.31 1295.5 C 1505.89 1305.78 1503.14 1314.63 1499.4 1324.12 C 1486.62 1309.26 1456.95 1275.04 1451.21 1257.92 C 1449.44 1252.63 1450.18 1249.33 1452.59 1244.44 z"/>
<path transform="translate(0,0)" fill="rgb(251,222,143)" d="M 980.003 841.183 L 981.662 841.154 C 986.516 846.027 1007.39 902.316 1008.47 910.168 C 1007.13 911.473 1007.53 911.443 1006.11 911.887 C 999.923 913.816 994.289 915.307 988.342 918.018 L 987.249 918.206 C 986.658 917.911 986 917.722 985.476 917.319 C 983.789 916.026 961.399 854.17 958.421 846.451 C 965.564 844.51 972.801 842.888 980.003 841.183 z"/>
<path transform="translate(0,0)" fill="rgb(254,254,254)" d="M 835.827 1647.39 C 841.185 1649.98 846.285 1653.76 851.599 1656.59 C 861.52 1661.88 871.723 1665.45 882.34 1669.01 C 877.504 1679.73 871.003 1690.19 865.355 1700.54 C 858.474 1698.63 850.749 1698.67 843.637 1697.61 L 839.91 1694.02 C 832.523 1686.9 825.518 1683.04 816.264 1678.8 A 1558.63 1558.63 0 0 1 835.827 1647.39 z"/>
<path transform="translate(0,0)" fill="rgb(251,222,143)" d="M 1053.21 1138.38 L 1053.48 1138.44 C 1056.84 1142.87 1058.9 1202.93 1059.9 1213.64 C 1051.66 1214.43 1043.39 1215.92 1035.19 1217.09 C 1032.91 1214.92 1028.37 1150.91 1027.61 1142.35 L 1053.21 1138.38 z"/>
<path transform="translate(0,0)" fill="rgb(153,123,119)" d="M 856.733 1599.62 A 281.554 281.554 0 0 0 902.69 1629.38 C 898.33 1639.25 893.648 1653.93 886.241 1661.69 L 883.77 1661.4 C 866.256 1655.21 848.981 1648.04 834.691 1635.94 A 901.113 901.113 0 0 1 856.733 1599.62 z"/>
<path transform="translate(0,0)" fill="rgb(251,222,143)" d="M 1008.73 919.04 L 1010.08 918.66 C 1015.4 923.296 1033.46 1008.34 1036.14 1021.43 C 1028.63 1021.94 1021.63 1023.13 1014.3 1024.83 L 1011.28 1025.44 C 1008.04 1020.88 1006.04 1001.06 1004.69 994.048 A 797.369 797.369 0 0 0 987.75 925.82 L 1008.73 919.04 z"/>
<path transform="translate(0,0)" fill="rgb(254,254,254)" d="M 662.874 1752.56 C 663.14 1752.87 663.396 1753.19 663.673 1753.49 C 693.685 1786.43 775.743 1795.79 819.518 1798.28 L 808.969 1809.33 C 807.95 1810.38 806.709 1811.24 805.561 1812.14 C 778.764 1817.53 716.535 1801.97 692.062 1790.4 C 682.134 1785.71 663.246 1777.03 659.762 1765.7 C 658.305 1760.96 660.702 1756.62 662.874 1752.56 z"/>
<path transform="translate(0,0)" fill="rgb(251,222,143)" d="M 1035.42 1028.38 L 1037.1 1028.56 C 1041.84 1035.71 1051.37 1115.49 1053.35 1130.61 C 1045.67 1131.8 1037.95 1132.6 1030.23 1133.46 L 1027.55 1133.74 C 1027.1 1133.18 1026.42 1132.74 1026.2 1132.06 C 1023.99 1125.18 1023.76 1109.08 1022.86 1100.94 C 1020.37 1078.5 1017.65 1055.6 1012.57 1033.58 C 1019.91 1030.71 1027.65 1029.43 1035.42 1028.38 z"/>
<path transform="translate(0,0)" fill="rgb(254,254,254)" d="M 735.601 1731.11 C 736.14 1731.06 737.034 1730.97 737.481 1731.02 C 742.927 1731.6 751.507 1739.08 755.295 1743.06 C 767.342 1755.72 770.932 1767.7 770.368 1784.85 C 753.296 1782.56 737.218 1778.79 720.746 1773.91 C 703.157 1768.19 684.09 1761.66 670.141 1749.04 C 686.337 1740.8 716.698 1736.21 735.601 1731.11 z"/>
<path transform="translate(0,0)" fill="rgb(254,254,254)" d="M 731.157 1873.84 C 732.671 1873.99 732.468 1873.82 733.617 1874.37 C 756.341 1885.23 772.739 1908.43 780.355 1931.76 C 763.307 1931.2 746.646 1930.06 729.758 1927.55 C 709.123 1924.52 690.303 1921.01 671.764 1910.9 C 687.109 1893.36 710.606 1883.8 731.157 1873.84 z"/>
<path transform="translate(0,0)" fill="rgb(251,222,143)" d="M 1145.22 1191.28 C 1147.24 1191.42 1147.36 1191.43 1148.76 1192.77 C 1154.31 1198.05 1158.26 1207.14 1161.68 1213.87 C 1180.76 1251.41 1187.81 1288.46 1189.03 1330.13 L 1168.28 1338.99 L 1159.81 1342.57 C 1160.31 1293.6 1153.05 1239.95 1126.22 1197.92 C 1132.45 1194.12 1138.1 1192.44 1145.22 1191.28 z"/>
<path transform="translate(0,0)" fill="rgb(254,254,254)" d="M 857.246 1763.5 C 884.898 1785.66 920.037 1796.22 954.137 1803.55 C 950.449 1811.09 945.583 1817.52 940.603 1824.23 C 934.197 1826.43 927.629 1828.01 921.07 1829.68 C 898.789 1833.58 877.416 1833.75 854.911 1833.03 C 857.759 1826.57 860.517 1820.72 857.827 1813.64 C 854.232 1804.19 841.319 1799.81 832.822 1795.84 C 842.113 1785.7 849.795 1775.01 857.246 1763.5 z"/>
<path transform="translate(0,0)" fill="rgb(217,134,127)" d="M 841.366 1705.1 C 847.915 1707.45 855.3 1707.73 862.185 1708.19 C 855.415 1722.07 848.307 1735.82 842.884 1750.31 L 849.468 1756.95 A 590.767 590.767 0 0 1 826.52 1791.16 C 810.685 1790.1 794.752 1789.3 779.043 1786.99 L 779.112 1771.95 C 775.546 1751.73 765.877 1739.59 749.414 1727.83 C 755.571 1726.32 761.377 1724.18 767.305 1721.96 C 776.169 1726.43 783.398 1733.35 792.393 1737.65 A 64.6663 64.6663 0 0 0 798.014 1736.16 C 817.418 1730 831.465 1724.06 841.366 1705.1 z"/>
<path transform="translate(0,0)" fill="rgb(254,254,254)" d="M 930.557 1905.88 L 932.063 1906.2 C 932.277 1906.77 932.578 1907.32 932.705 1907.92 C 933.442 1911.41 931.193 1921.23 929.476 1924.38 C 925.551 1931.59 909.824 1936.17 902.096 1938.41 C 893.128 1941 883.703 1942.62 874.571 1944.57 C 813.266 1957.67 728.399 1967.21 671.65 1936.05 C 670.382 1934.71 669.31 1933.57 668.539 1931.85 C 667.096 1928.61 666.86 1922.51 668.532 1919.45 C 674.604 1918.72 683.682 1925.45 689.414 1927.71 C 700.547 1932.08 713.864 1933.67 725.668 1935.42 C 743.306 1938.05 761.001 1940.04 778.87 1939.71 C 826.569 1938.82 886.766 1924.37 930.557 1905.88 z"/>
<path transform="translate(0,0)" fill="rgb(254,254,254)" d="M 1501.87 1339 C 1513.4 1357.74 1512.95 1418.3 1512.56 1441.35 C 1512.48 1446.16 1513.33 1452 1512.39 1456.69 C 1512.32 1456.99 1512.18 1457.27 1512.08 1457.57 C 1486.66 1449.18 1458.57 1443.57 1432.26 1438.45 C 1442.65 1429.8 1446.17 1420 1450 1407.52 C 1454.17 1404.76 1458.48 1401.97 1461.87 1398.24 C 1467.24 1392.34 1471.33 1385.13 1475.81 1378.55 C 1484.72 1365.44 1493.59 1352.54 1501.87 1339 z"/>
<path transform="translate(0,0)" fill="rgb(153,123,119)" d="M 1324.98 347.432 C 1340.48 352.781 1365.52 377.221 1373.89 391.421 C 1376.68 429.097 1362.85 468.086 1339.79 497.49 C 1336.29 501.431 1332.95 505.054 1328.74 508.286 C 1331.93 495.913 1334.85 483.509 1336.08 470.766 A 119.15 119.15 0 0 0 1308.81 383.016 C 1314.97 371.41 1320.34 359.722 1324.98 347.432 z"/>
<path transform="translate(0,0)" fill="rgb(251,222,143)" d="M 1119.81 764.463 C 1120.16 764.634 1120.52 764.777 1120.85 764.977 C 1130.44 770.78 1138.75 785.092 1145.23 794.295 C 1192.67 861.784 1238.39 966.713 1251.64 1048.16 C 1247.83 1052.52 1243.64 1056.63 1239.65 1060.82 L 1234.15 1066.44 C 1225.6 996.655 1199.88 931.477 1169.03 868.829 C 1154.31 838.929 1137.16 805.625 1112.18 783.022 C 1114.31 776.586 1116.9 770.584 1119.81 764.463 z"/>
<path transform="translate(0,0)" fill="rgb(153,123,119)" d="M 867.863 1716.95 C 896.368 1738.93 974.589 1761.4 1009.76 1763.96 A 229.454 229.454 0 0 1 988.957 1792.82 C 987.048 1794.27 985.467 1795.27 983.027 1795.69 C 956.206 1800.39 913.266 1785.06 889.083 1772.94 C 876.122 1766.45 864.028 1758.47 852.008 1750.42 C 857.555 1739.41 862.617 1728.11 867.863 1716.95 z"/>
<path transform="translate(0,0)" fill="rgb(251,222,143)" d="M 1191.25 1177.17 C 1199.04 1177.39 1203.77 1180.28 1209.09 1185.94 C 1229.87 1208.03 1244.05 1261.87 1242.82 1292.07 C 1229.88 1307.54 1222.31 1313.49 1204.28 1322.55 L 1196.94 1326.04 C 1195.98 1274.34 1185.87 1233.18 1156.66 1189.8 C 1163.36 1187.16 1171.01 1187.82 1177.07 1185.3 C 1182.28 1183.13 1185.38 1179.06 1191.25 1177.17 z"/>
<path transform="translate(0,0)" fill="rgb(49,5,36)" d="M 1189.15 1194.21 C 1190.49 1194.17 1191.1 1194.13 1192.5 1194.21 C 1196.1 1194.42 1198.33 1196.84 1200.65 1199.34 C 1206.05 1205.15 1211.61 1214.61 1211.28 1222.63 L 1207.95 1222.91 C 1202.57 1220.69 1191.9 1200.08 1189.15 1194.21 z"/>
<path transform="translate(0,0)" fill="rgb(49,5,36)" d="M 1215.44 1254.38 C 1218.51 1254.56 1219.23 1254.36 1221.76 1256.27 C 1225.94 1266.07 1225.12 1279.99 1224.27 1290.43 C 1222.35 1290.38 1221.01 1290.23 1219.22 1289.52 C 1214.66 1282.76 1215.55 1263.13 1215.44 1254.38 z"/>
<path transform="translate(0,0)" fill="rgb(254,254,254)" d="M 1215.05 1085.99 L 1216.12 1086.09 L 1216.44 1087.25 C 1186.65 1122.13 1149.48 1152.01 1114.44 1181.46 C 1104.53 1189.8 1094.27 1200.2 1083.42 1207.07 C 1079.57 1209.5 1074.97 1210.62 1070.51 1211.23 L 1069.03 1209.88 C 1065.7 1185.45 1066.14 1160.58 1062.81 1136.14 C 1081.7 1129.25 1101.25 1123.97 1120.43 1117.93 A 1879.43 1879.43 0 0 0 1215.05 1085.99 z"/>
<path transform="translate(0,0)" fill="rgb(249,245,228)" d="M 1236.72 1078.59 C 1237.89 1078.82 1238.1 1078.81 1239.37 1079.35 C 1263.45 1089.57 1285.51 1125.83 1295.14 1148.88 C 1268.29 1159.01 1240.84 1167.47 1213.94 1177.49 C 1212.14 1176.11 1210.32 1174.72 1208.4 1173.5 C 1194.13 1164.47 1181.17 1173.51 1167.48 1178.55 C 1162.19 1180.5 1156.48 1181.57 1150.98 1182.78 C 1143.1 1183.25 1135.31 1183.83 1128.06 1187.29 C 1124.67 1188.9 1123.43 1190.43 1122.27 1193.96 C 1121.74 1195.57 1121.43 1197 1120.3 1198.34 C 1117.24 1202 1108.03 1202.41 1103.48 1203.17 C 1119.03 1187.84 1136.73 1175.25 1153.12 1160.96 C 1182.35 1135.49 1210.98 1107.54 1236.72 1078.59 z"/>
<path transform="translate(0,0)" fill="rgb(249,245,228)" d="M 1516.85 1192.75 C 1537.97 1217.44 1553.56 1298.12 1558.85 1331.49 C 1560.4 1341.27 1563 1352.01 1562.32 1361.9 C 1561.53 1373.51 1556.43 1385.3 1554.18 1396.78 C 1549.51 1420.62 1547.4 1444.57 1546.09 1468.79 C 1535.91 1465.01 1524.84 1460.2 1514.09 1458.56 L 1512.08 1457.57 C 1512.18 1457.27 1512.32 1456.99 1512.39 1456.69 C 1513.33 1452 1512.48 1446.16 1512.56 1441.35 C 1512.95 1418.3 1513.4 1357.74 1501.87 1339 A 1382.89 1382.89 0 0 0 1510.51 1323.57 C 1512.67 1316.45 1514.57 1309.04 1515.12 1301.59 C 1515.32 1298.79 1515.53 1295.57 1514.99 1292.8 C 1513.58 1285.45 1509.99 1278.26 1507.88 1271.06 C 1505.8 1263.96 1505.06 1256.28 1502.59 1249.34 C 1501.7 1246.82 1500.16 1244.89 1498.44 1242.89 C 1505.15 1226.46 1511.51 1209.66 1516.85 1192.75 z"/>
<path transform="translate(0,0)" fill="rgb(153,123,119)" d="M 1510.51 1323.57 C 1519.15 1365.87 1525.67 1416.45 1514.09 1458.56 L 1512.08 1457.57 C 1512.18 1457.27 1512.32 1456.99 1512.39 1456.69 C 1513.33 1452 1512.48 1446.16 1512.56 1441.35 C 1512.95 1418.3 1513.4 1357.74 1501.87 1339 A 1382.89 1382.89 0 0 0 1510.51 1323.57 z"/>
<path transform="translate(0,0)" fill="rgb(153,123,119)" d="M 987.314 1412.52 A 1587.24 1587.24 0 0 0 1130.05 1362.36 C 1114.91 1374.46 1098.28 1384.63 1082.4 1395.71 C 1054.37 1415.27 979.075 1468.54 963.298 1495.7 C 955.896 1508.44 950.218 1522.75 944.338 1536.27 C 931.825 1565.05 920.174 1594.63 906.312 1622.78 C 890.946 1613.35 875.664 1602.94 861.548 1591.73 C 889.116 1551.56 916.095 1511.51 946.801 1473.61 C 955.191 1463.25 986.531 1428.59 989.531 1418.95 C 989.091 1417.25 988.655 1415.74 987.884 1414.15 C 988.128 1413.42 988.004 1413.98 987.314 1412.52 z"/>
<path transform="translate(0,0)" fill="rgb(217,134,127)" d="M 937.817 1833.16 L 939.309 1834.45 C 936.292 1854.69 934.718 1874.72 933.514 1895.14 C 889.144 1916.76 836.989 1925.51 788.334 1931.36 C 782.967 1915.23 777.078 1902.68 766.01 1889.65 C 758.413 1881.7 750.043 1875.07 741.188 1868.57 C 749.062 1864.55 756.743 1860.23 764.438 1855.87 C 769.664 1859.5 774.519 1863.65 779.563 1867.53 C 785.323 1871.96 791.612 1876.83 799.283 1875.51 C 816.111 1872.62 840.881 1854.81 850.847 1841.11 C 880.739 1842.58 908.834 1841.57 937.817 1833.16 z"/>
<path transform="translate(0,0)" fill="rgb(251,222,143)" d="M 1146.32 780.773 C 1153.42 783.396 1161.73 792.584 1167.46 797.577 C 1230.79 852.789 1288.63 915.998 1343.54 979.546 A 343.141 343.141 0 0 0 1290.82 1013.87 C 1287.44 1001.06 1284.89 987.93 1282.06 974.985 C 1279.99 967.863 1277.98 957.583 1271.79 952.79 C 1267.68 960.6 1280.56 1009.44 1283.53 1019.47 C 1274.9 1026.09 1266.62 1032.83 1258.52 1040.1 C 1248.64 964.836 1194.21 839.767 1146.32 780.773 z"/>
<path transform="translate(0,0)" fill="rgb(254,254,254)" d="M 1138.17 832.565 C 1143.04 838.167 1146.68 846.864 1150.23 853.464 C 1167.24 885.096 1183 917.281 1194.89 951.248 A 3477.44 3477.44 0 0 1 1101.14 978.552 C 1083.86 983.206 1054.86 988.528 1040.16 995.543 L 1035.55 975.63 C 1026.47 928.902 1009.14 883.374 991.37 839.385 C 1000.96 847.054 1011 854.175 1021.78 860.101 C 1043.94 872.294 1068.26 877.578 1092.96 870.182 C 1114.19 863.825 1127.74 851.836 1138.17 832.565 z"/>
<path transform="translate(0,0)" fill="rgb(254,254,254)" d="M 1196.04 959.128 L 1196.9 959.547 C 1210.69 979.95 1222.5 1049.05 1226.39 1074.37 C 1205.31 1080.34 1184.61 1088.24 1163.85 1095.26 A 2744.75 2744.75 0 0 1 1072.15 1124.59 L 1062.37 1128.02 C 1057.6 1085.83 1050.5 1044.64 1042.37 1003.01 C 1093.39 987.682 1145.03 974.629 1196.04 959.128 z"/>
<path transform="translate(0,0)" fill="rgb(249,245,228)" d="M 1386.42 1021.76 C 1388 1022.23 1389.46 1022.95 1390.96 1023.62 C 1402.86 1038.12 1371.07 1062.81 1376.87 1080.93 C 1377.63 1083.31 1378.72 1084.98 1381.11 1085.99 C 1403.66 1095.57 1465.64 1032.86 1489.29 1024.67 C 1493.75 1023.12 1497.53 1022.2 1501.93 1024.37 C 1503.74 1026.6 1504.58 1027.28 1504.57 1030.3 C 1504.51 1047.76 1451.48 1078.16 1438.27 1089.66 L 1438.9 1093.08 L 1438.83 1093.05 C 1461.1 1095.06 1483.55 1060.27 1500.13 1058.56 C 1502.41 1059.7 1502.86 1059.82 1504.15 1061.97 C 1503.6 1072.81 1480.17 1094.95 1471.37 1101.44 C 1462.69 1107.83 1447.75 1114.32 1441.93 1123.11 C 1442.73 1125.44 1443.39 1125.18 1445.47 1126.28 C 1452.53 1127 1474.49 1109.61 1482.3 1105.64 C 1491.89 1100.78 1502.69 1096.24 1512.95 1093.07 L 1514.28 1092.66 C 1501 1119.84 1453.7 1141.2 1450.36 1147.81 C 1452 1150.43 1453.56 1150.73 1456.3 1152.05 C 1471.33 1148.31 1487.64 1128.06 1500.16 1124.01 L 1501.14 1125.59 C 1501.03 1127.21 1500.92 1128.66 1500.27 1130.16 C 1495.96 1140.01 1482.89 1151.02 1474.95 1158.07 C 1438.26 1190.62 1418.19 1197.84 1371.35 1208.52 C 1360.31 1211.03 1348.42 1212.93 1337.75 1216.58 C 1328.52 1219.74 1319.48 1224.27 1310.46 1228.02 A 1476.67 1476.67 0 0 1 1247.2 1253.24 C 1240.61 1227.81 1233.51 1206.56 1219.18 1184.35 C 1247.52 1171.29 1281.08 1168.18 1308.13 1151.72 C 1313.06 1139.54 1314.82 1125.81 1319 1113.26 C 1331.35 1076.18 1356.26 1046.09 1386.42 1021.76 z"/>
<path transform="translate(0,0)" fill="rgb(153,123,119)" d="M 865.571 454.245 C 880.111 453.297 890.042 454.757 901.825 463.808 C 903.509 474.898 904.353 486.067 906.626 497.082 C 918.446 554.37 943.828 596.447 975.308 644.835 C 971.102 653.774 966.223 661.831 959.534 669.147 C 940.412 690.061 913.61 700.141 885.75 701.366 C 864.067 701.995 843.931 697.385 825.79 685.089 C 800.078 667.661 785.475 640.407 779.875 610.36 C 772.309 569.768 782.362 529.99 805.797 496.397 C 819.967 476.083 840.669 458.729 865.571 454.245 z"/>
<path transform="translate(0,0)" fill="rgb(46,9,35)" d="M 899.029 494.422 C 900.615 495.232 901.933 496.192 903.348 497.27 C 903.361 501.911 897.263 509.71 894.937 513.993 C 881.157 539.369 877.628 566.743 886.158 594.594 C 892.441 615.114 905.278 634.314 926.172 641.96 C 932.98 644.451 940.885 644.774 947.267 648.199 C 947.625 650.721 946.163 651.948 944.84 654.039 C 927.448 653.575 911.581 647.211 899.356 634.657 C 879.669 614.44 872.229 585.938 872.584 558.37 C 872.887 534.785 882.044 511.05 899.029 494.422 z"/>
<path transform="translate(0,0)" fill="rgb(46,9,35)" d="M 869.613 485.956 C 870.825 485.839 872.245 485.618 873.471 485.831 A 7.50553 7.50553 0 0 1 878.54 489.173 C 876.733 493.563 863.905 498.243 859.479 501.053 C 837.404 515.07 823.611 535.555 817.943 560.961 C 811.969 587.737 814.811 617.166 830.059 640.487 A 77.8054 77.8054 0 0 0 899.533 675.408 C 906.285 675.084 913.543 672.253 920.25 673.664 C 922.034 675.787 921.757 676.002 921.723 678.823 C 904.419 686.513 880.193 684.172 862.766 677.645 C 840.295 669.229 823.888 651.439 814.279 629.769 C 802.112 602.331 803.58 569.441 814.394 541.765 C 824.618 515.596 844.196 497.136 869.613 485.956 z"/>
<path transform="translate(0,0)" fill="rgb(217,134,127)" d="M 1395.68 966.283 C 1430.42 964.276 1482.12 975.737 1514.37 989.032 C 1524.05 1017.61 1534.38 1044.79 1540.7 1074.38 C 1527.97 1107.99 1521.19 1144.4 1511.14 1178.9 C 1503.48 1205.2 1492.8 1230.32 1484.34 1256.31 C 1479.33 1249.97 1474.25 1243.44 1467.41 1238.96 C 1463.18 1236.19 1457.39 1233.84 1452.27 1235.25 C 1448.93 1236.17 1446.31 1238.59 1444.6 1241.55 C 1434.34 1259.31 1446.62 1261.5 1450.3 1276.52 L 1449.43 1276.5 C 1449 1276.49 1448.56 1276.49 1448.12 1276.47 C 1446.5 1276.41 1445.05 1276.29 1443.46 1276.74 C 1440.21 1277.65 1437.69 1279.47 1436.15 1282.54 C 1432.47 1289.86 1434.97 1297.48 1437.32 1304.68 C 1435.18 1305.28 1433.06 1305.92 1431.16 1307.11 C 1428.25 1308.91 1426.36 1312.13 1425.59 1315.41 C 1422.5 1328.58 1433.09 1345.44 1439.44 1356.27 C 1436.18 1353.55 1430.93 1348.15 1426.73 1347.37 C 1423.92 1346.84 1422.92 1346.98 1420.79 1348.88 C 1415.22 1353.83 1410.96 1367.14 1407.4 1373.93 C 1397.55 1392.66 1377.75 1412.32 1359.52 1423.02 C 1348.19 1408.77 1337.65 1393.85 1326.35 1379.55 C 1311.63 1360.92 1296.11 1343.06 1280.54 1325.15 C 1271.31 1314.52 1262.33 1302.58 1251.72 1293.33 C 1252.28 1282.69 1250.86 1272.4 1249.39 1261.89 C 1255.99 1259.94 1262.47 1257.15 1268.9 1254.7 C 1277.24 1262.27 1284.44 1271.16 1292.1 1279.4 C 1305.19 1293.49 1320.81 1307.62 1336.8 1318.19 C 1346.7 1324.74 1380.07 1346.74 1391.97 1343.39 C 1393.46 1342.97 1393.57 1342.13 1394.34 1340.92 C 1392.8 1337.32 1387.39 1335.76 1384.05 1334.37 C 1358.35 1323.71 1338.3 1309.22 1317.11 1291.38 C 1303.58 1279.33 1288.85 1265.79 1278.05 1251.21 C 1300.14 1241.68 1323.16 1231.22 1346.12 1224.17 C 1397.01 1208.56 1424.53 1212.62 1468.72 1175.82 C 1480.2 1166.25 1509.48 1140.91 1510.9 1125.94 C 1510.43 1124.77 1509.96 1123.6 1509.57 1122.41 C 1507.43 1115.84 1515.01 1108.79 1517.97 1102.81 C 1520.42 1097.86 1522.68 1092.76 1520.91 1087.28 C 1519.79 1086.07 1518.97 1085.23 1517.29 1084.8 C 1508.73 1082.66 1500.54 1088.22 1493.62 1092.39 C 1501.81 1083.87 1513.43 1071.29 1513.55 1058.79 C 1513.59 1054.21 1511.93 1051.59 1508.72 1048.48 C 1508.49 1048.26 1508.25 1048.04 1508.02 1047.81 C 1506.76 1042.34 1512.25 1034.76 1512.62 1028.73 C 1512.86 1024.88 1511.7 1021.27 1509.04 1018.44 C 1487.43 995.469 1410.42 1080.01 1389.12 1077.09 C 1387.58 1076.88 1387.44 1076.16 1386.55 1075.05 C 1385.57 1065.25 1395.76 1052.76 1399.21 1043.45 C 1401.81 1036.46 1404.34 1027.83 1400.76 1020.77 C 1399.1 1017.5 1395.72 1014.82 1392.23 1013.73 C 1387.77 1012.34 1382.91 1014.22 1379.13 1016.56 C 1370.59 1021.86 1363.28 1030.87 1356.47 1038.22 C 1324.27 1072.98 1312.66 1095.71 1302.74 1142.36 C 1289.03 1115.55 1269.39 1083.61 1240.74 1070.83 A 422.754 422.754 0 0 1 1363.05 980.01 C 1373.37 974.888 1384.48 969.011 1395.68 966.283 z"/>
<path transform="translate(0,0)" fill="rgb(153,123,119)" d="M 1532.35 607.516 C 1525.62 598.276 1519.45 590.949 1519.29 579.008 L 1520.17 578.677 A 626.542 626.542 0 0 0 1525.74 584.001 L 1528.29 586.392 C 1546 602.834 1592.55 606.258 1616.75 613.379 A 170.872 170.872 0 0 1 1668.07 637.827 C 1686.21 650.773 1701.05 666.755 1714.55 684.365 A 322.035 322.035 0 0 1 1738.88 721.092 C 1743.87 729.827 1748.41 739.325 1754.17 747.543 C 1755.83 749.91 1757.16 751.815 1759.76 753.219 C 1762.76 752.991 1763.48 751.729 1765.7 749.782 C 1767.32 752.595 1768.57 754.571 1771.14 756.588 C 1768.71 758.075 1767.47 759.62 1766.54 762.233 C 1770.92 770.546 1788.03 766.736 1794.72 774.456 C 1796.48 776.488 1796.56 777.201 1796.57 779.711 C 1787.72 783.378 1770.71 773.007 1763.23 776.666 C 1763.72 783.648 1767.01 790.048 1768.24 796.943 C 1771.86 817.331 1770.59 839.093 1766.43 859.291 C 1757.65 901.901 1729.48 937.592 1693.45 961.259 C 1646.15 992.334 1578.61 998.583 1524.14 987.409 L 1530.99 967.712 A 105.365 105.365 0 0 0 1551.87 972.452 C 1568.69 974.335 1584.64 970.83 1597.99 960.081 C 1609.33 950.948 1618.75 936.996 1620.08 922.265 A 40.7848 40.7848 0 0 0 1609.64 891.312 C 1598.62 879.139 1583.99 876.181 1568.4 875.527 C 1600.13 834.087 1583.71 807.903 1598.95 767.83 C 1602.66 758.078 1608.32 748.656 1615.58 741.133 C 1619.05 737.544 1626.37 733.615 1627.22 729.001 C 1625.6 726.651 1625.78 726.743 1622.99 726.186 C 1619.42 727.226 1616.92 729.057 1614.12 731.482 C 1585.01 756.727 1585.93 791.723 1583.03 826.848 A 79.7926 79.7926 0 0 1 1575.5 810.27 C 1567.1 783.722 1572.29 755.231 1580.63 729.387 C 1582.4 723.883 1583.99 717.642 1586.55 712.467 C 1590.73 704.051 1597.36 696.819 1601.54 688.363 C 1603.1 685.196 1603.8 682.976 1602.66 679.581 C 1601.07 678.483 1599.81 678.024 1597.84 678.168 C 1592.51 678.559 1586.96 680.646 1581.63 681.561 C 1564.83 684.448 1544.96 684.352 1529.37 676.785 L 1528.04 676.133 C 1538.44 670.631 1553.83 665.732 1561.45 656.701 C 1563.05 654.808 1563.45 653.778 1563.14 651.371 C 1561.32 649.664 1559.63 649.09 1557.21 648.698 C 1551.06 647.699 1544.46 647.994 1538.22 647.596 C 1520.6 646.472 1499.96 643.747 1484.15 635.277 C 1475.6 630.7 1468.92 618.552 1466.52 609.519 C 1465.7 606.436 1465.31 604.126 1466.92 601.32 C 1469.97 600.944 1486.77 607.403 1492.73 608.423 C 1505.88 610.669 1519.25 609.495 1532.35 607.516 z"/>
<path transform="translate(0,0)" fill="rgb(249,245,228)" d="M 1477.12 644.798 C 1501.97 652.067 1525.77 655.908 1551.65 656.744 C 1543.29 661.813 1527.98 667.041 1522.66 670.67 C 1521.44 671.501 1520.88 672.293 1520.66 673.731 C 1520.24 676.49 1521.32 679.067 1523.07 681.158 C 1529.92 689.329 1546.81 690.817 1556.88 691.25 A 122.716 122.716 0 0 0 1593.83 687.106 C 1572.21 719.752 1558.13 763.905 1566.28 803.211 C 1568.66 814.687 1573.23 824.446 1581.46 832.913 C 1576 848.157 1569.76 862.114 1560.68 875.556 C 1556.25 876.438 1552.02 876.932 1548.24 879.56 C 1546.93 882.438 1547.34 882.432 1548.44 885.456 C 1551.23 887.351 1554.94 886.134 1558.15 885.522 C 1571.62 882.96 1584.67 884.298 1596.41 892.176 C 1603.64 897.023 1609.13 904.262 1610.63 912.944 C 1612.43 923.308 1608.18 934.746 1602.1 943.027 C 1593.87 954.241 1581.2 961.057 1567.55 962.985 C 1550.6 965.38 1529.23 960.138 1515.82 949.355 C 1509.96 944.642 1505.73 932.349 1498.87 930.836 C 1497.21 932.764 1496.93 933.87 1497.24 936.454 C 1498.35 945.723 1507.01 954.695 1514.49 959.691 A 71.2016 71.2016 0 0 0 1523.18 964.744 L 1518.1 981.106 C 1481.58 966.073 1442.13 958.771 1402.78 957.008 C 1402.29 950.385 1401.98 943.852 1401.99 937.21 C 1414.23 942.272 1446.28 955.014 1458.28 950.063 C 1458.61 949.928 1458.91 949.722 1459.22 949.552 L 1459.26 947.977 C 1456.93 945.909 1455.49 945.356 1452.46 944.668 C 1440.27 941.895 1428.23 939.132 1416.58 934.517 C 1386.78 922.709 1348.14 896.612 1330.85 869.117 C 1321.88 854.844 1317.95 839.94 1322.02 823.211 C 1325.05 810.73 1330.55 798.839 1335.6 787.072 C 1335.07 784.931 1335.25 784.729 1336.2 782.814 C 1338.68 777.801 1365.49 737.422 1367.69 736.727 C 1371.17 738.59 1378.47 742.422 1379.97 746.137 C 1382.84 747.543 1384.22 748.138 1387.52 747.993 C 1389.41 746.66 1389.63 746.611 1390.37 744.45 C 1385.87 737.037 1368.42 737.486 1370.55 727.087 C 1373.11 723.791 1375.15 721.755 1379.42 721.125 C 1390.6 719.473 1394.77 727.467 1403.42 716.442 C 1424.11 690.078 1446.49 660.396 1477.12 644.798 z"/>
<path transform="translate(0,0)" fill="rgb(46,9,35)" d="M 1563.59 915.564 C 1565.84 914.627 1568.37 912.73 1570.72 914.209 C 1571.32 914.587 1572.25 915.632 1572.76 916.166 C 1569.8 918.785 1566.61 924.423 1562.75 925.284 C 1562.6 925.041 1562.41 924.817 1562.28 924.557 C 1560.84 921.538 1562.36 918.338 1563.59 915.564 z"/>
<path transform="translate(0,0)" fill="rgb(49,5,36)" d="M 1490.93 676.823 C 1494.63 676.588 1497.74 676.508 1501.13 678.223 C 1505.64 680.511 1508.7 683.949 1510.23 688.806 C 1512.85 697.141 1510.63 705.206 1506.54 712.58 C 1504.08 713.044 1503.27 713.408 1500.96 712.563 C 1499.25 707.745 1503.17 702.142 1503.1 697.071 C 1503.02 690.568 1497.88 688.189 1493.79 684.253 C 1491.04 681.612 1491.09 680.372 1490.93 676.823 z"/>
<path transform="translate(0,0)" fill="rgb(46,9,35)" d="M 1454.51 716.77 C 1459.48 717.011 1465.56 719.338 1468.93 723.172 C 1470.87 725.383 1471.33 728.282 1470.92 731.117 C 1469.9 738.209 1464.72 745.829 1458.72 749.696 C 1456.42 751.186 1454.59 751.909 1451.82 751.395 C 1450.04 749.346 1450.23 748.767 1449.97 746.018 C 1451.16 742.542 1454.29 740.14 1456.9 737.662 C 1458.15 736.166 1458.68 734.736 1459.36 732.924 C 1458.88 730.107 1459.11 729.759 1456.97 727.939 C 1448.28 727.93 1446.28 739.11 1438.49 739.447 C 1436.02 739.553 1435.35 739.237 1433.71 737.52 C 1433.74 737.191 1433.72 736.856 1433.79 736.534 C 1435.33 729.758 1449.15 720.745 1454.51 716.77 z"/>
<path transform="translate(0,0)" fill="rgb(49,5,36)" d="M 1563.59 915.564 C 1560.65 917.503 1557.98 920.287 1556.95 923.757 C 1556.25 926.091 1556.56 928.603 1558.01 930.585 C 1559.69 932.883 1561.78 933.662 1564.53 933.776 C 1564.97 933.795 1566.18 933.717 1566.61 933.701 L 1570.36 933.565 L 1571.91 935.394 C 1571.6 937.66 1571.33 938.506 1569.32 939.983 C 1566.87 941.783 1563.21 941.92 1560.35 941.201 C 1556.15 940.145 1551.79 936.897 1549.69 933.089 C 1547.51 929.13 1547.72 924.378 1549.24 920.226 C 1551.65 913.611 1557.28 907.326 1563.89 904.737 C 1570.9 901.993 1579.54 902.719 1586.29 905.875 C 1590.63 907.905 1594.64 911.24 1596.34 915.849 C 1597.3 918.451 1597.6 920.895 1597.03 923.617 L 1595.5 924.003 C 1590.64 920.979 1583.35 913.336 1577.51 914.576 C 1575.88 914.921 1574.29 915.54 1572.76 916.166 C 1572.25 915.632 1571.32 914.587 1570.72 914.209 C 1568.37 912.73 1565.84 914.627 1563.59 915.564 z"/>
<path transform="translate(0,0)" fill="rgb(254,254,254)" d="M 1453.28 789.861 C 1451.74 789.465 1452.59 789.538 1450.72 789.818 C 1454.99 792.59 1459.3 795.191 1462.99 798.724 C 1463.96 801.398 1464.04 801.672 1463.38 804.425 L 1461.43 805.617 C 1459.15 805.139 1459.23 804.903 1457.62 803.411 C 1457.06 800.85 1456.74 798.511 1455.13 796.363 C 1452.52 795.599 1450.6 794.999 1449.04 792.635 C 1446.22 788.383 1443.89 779.821 1445.2 774.835 C 1445.67 773.053 1445.33 773.702 1447.05 772.649 C 1452.13 775.182 1454.1 774.131 1459.31 773.032 C 1464.51 773.609 1469.75 774.679 1474.28 777.435 C 1478.11 776.405 1482.29 774.38 1485.93 776.444 C 1486.47 778.48 1487.04 779.26 1485.65 781.107 C 1484.79 782.261 1483.22 783.336 1482.11 784.268 C 1482.06 788.05 1484.94 789.137 1484.28 792.622 C 1474.25 792.716 1462.71 793.44 1453.28 789.861 z"/>
<path transform="translate(0,0)" fill="rgb(46,9,35)" d="M 1335.6 787.072 C 1335.07 784.931 1335.25 784.729 1336.2 782.814 C 1338.68 777.801 1365.49 737.422 1367.69 736.727 C 1371.17 738.59 1378.47 742.422 1379.97 746.137 C 1375.13 744.333 1371.63 741.477 1367.75 738.137 C 1361.74 748.464 1354.54 758.102 1348.71 768.494 C 1369.15 788.767 1394.8 797.144 1422.61 802.306 C 1424.75 802.704 1425.96 802.21 1426.97 804.382 C 1424.39 813.705 1408.4 826.97 1400.21 831.76 C 1388.9 838.369 1376.1 840.717 1363.38 837.145 C 1359.34 836.01 1351.61 833.342 1349.51 829.645 C 1348.45 827.776 1348.37 827.077 1348.48 825.018 C 1350.26 823.532 1349.39 823.669 1351.39 823.86 C 1354.82 824.186 1358.64 826.626 1361.75 828.075 C 1375.58 834.531 1387.35 828.67 1400.09 822.849 C 1387.59 823.765 1365.36 822.917 1355.56 813.505 C 1353.01 811.056 1352.33 808.419 1352.36 804.998 C 1352.41 798.789 1355.08 792.332 1357.04 786.514 C 1352.19 782.907 1348.05 779.24 1343.92 774.818 C 1341.67 778.209 1338.54 784.644 1335.6 787.072 z"/>
<path transform="translate(0,0)" fill="rgb(254,254,254)" d="M 1364.37 791.311 C 1373.98 795.779 1383.66 800.516 1393.69 803.973 C 1400.44 806.299 1407.45 807.611 1414.08 810.308 C 1413.42 812.153 1409.65 813.326 1407.84 814.234 C 1395.16 817.497 1381.02 818.579 1368.76 812.92 C 1365.07 811.215 1361.38 808.319 1360.46 804.128 C 1359.46 799.539 1362.27 795.149 1364.37 791.311 z"/>
<path transform="translate(0,0)" fill="rgb(183,197,179)" d="M 1424.75 1446.16 C 1441.3 1450.56 1458.33 1453.11 1474.99 1457.12 C 1532.38 1470.95 1589.66 1490.18 1638.24 1524.51 C 1651.25 1533.71 1665.4 1543.65 1673.35 1557.88 C 1688.55 1585.09 1676.24 1628.45 1667.61 1656.86 C 1639.04 1750.98 1567.61 1857.31 1508.56 1935.82 C 1501.87 1944.7 1485.82 1968.83 1478.39 1973.91 C 1471.28 1970.13 1359.49 1972.18 1342.5 1971.83 C 1358.6 1952.25 1375.82 1933.62 1392.06 1914.15 C 1446.42 1848.97 1584.38 1680.77 1576.92 1597.95 C 1575.19 1578.67 1564.03 1562.95 1549.39 1550.98 C 1499.15 1509.91 1383.95 1501.92 1320.6 1505.18 L 1322.4 1504.23 C 1331.04 1499.76 1341.1 1497.12 1350.11 1493.27 C 1378.99 1480.91 1400.94 1466.61 1424.75 1446.16 z"/>
<path transform="translate(0,0)" fill="rgb(153,123,119)" d="M 1063.52 238.392 C 1088.03 238.338 1113.39 240.09 1137.32 245.525 C 1155.45 249.645 1172.53 256.724 1189.8 263.439 C 1234.25 280.716 1281.1 299.908 1315.96 333.732 C 1316.85 359.409 1299.85 381.25 1284.38 400.23 C 1247.43 445.558 1187.62 483.076 1131.28 499.066 C 1113.98 503.978 1096.24 506.38 1078.38 508.154 C 1073.78 499.566 1069.27 491.74 1062.54 484.625 C 1099.98 471.476 1135.84 455.687 1166.77 430.271 C 1191.06 410.306 1213.21 386.852 1230.66 360.683 C 1233.84 355.919 1239.35 348.598 1239.51 342.749 C 1239.55 341.166 1238.89 341.025 1237.87 339.997 L 1234.77 340.001 C 1219.99 358.715 1207.24 378.243 1190.8 395.74 C 1155.46 432.759 1106.98 463.966 1057 477.203 C 1045.05 471.708 1033.53 468.137 1020.33 471.899 C 1008.18 475.365 998.653 484.732 992.952 495.782 C 985.374 510.471 984.984 528.131 990.042 543.678 C 996.365 563.116 1007.19 576.49 1025.48 585.794 C 1022.23 616.003 1010.4 642.412 998.284 669.841 C 983.216 639.555 963.842 612.02 947.205 582.668 A 290.879 290.879 0 0 1 911.774 468.505 C 906.145 409.25 930.052 343.393 967.839 297.81 C 988.105 273.362 1031.32 241.419 1063.52 238.392 z"/>
<path transform="translate(0,0)" fill="rgb(46,9,35)" d="M 984.88 365.489 C 986.302 366.123 987.63 367.193 988.926 368.062 C 989.812 370.539 989.51 371.067 987.982 373.212 C 981.995 381.617 974.157 389.07 967.619 397.105 C 953.738 414.166 943.448 434.329 935.798 454.854 L 931.962 453.084 C 930.593 450.827 930.251 449.528 930.523 446.856 C 932.494 427.461 969.948 377.707 984.88 365.489 z"/>
<path transform="translate(0,0)" fill="rgb(249,245,228)" d="M 1303.33 389.868 C 1310.73 397.054 1316.09 409.673 1319.88 419.117 C 1352.25 499.738 1272.89 565.149 1290.66 610.329 C 1296.98 626.399 1311.55 632.862 1326.38 638.994 C 1326.07 639.257 1325.77 639.525 1325.47 639.784 C 1316.97 646.946 1304.81 656.439 1293.2 655.31 C 1290.92 655.089 1287.73 654.521 1285.47 655.228 C 1275.85 658.242 1264.51 701.353 1247.36 707.322 C 1240.71 709.637 1232.14 705.498 1226.33 702.406 C 1212.01 694.782 1193.69 679.102 1194.38 661.365 C 1194.54 657.162 1197.92 653.075 1196.67 649.057 C 1194.67 648.04 1194.57 648.009 1192.36 648.375 C 1189.51 651.017 1188.41 655.791 1187.85 659.534 C 1186.37 669.467 1190.2 679.099 1195.87 687.074 C 1207.54 703.479 1225.34 712.36 1244.81 715.396 C 1242.32 720.921 1239.73 726.581 1236.66 731.807 C 1229.68 743.702 1219.32 754.384 1205.51 757.732 C 1181.17 763.635 1147.87 743.464 1128.01 731.059 C 1115.43 746.782 1106.98 769.978 1102.46 789.405 C 1100.77 796.659 1095.25 822.287 1099.99 827.695 C 1101.64 829.588 1102.84 829.913 1105.14 830.268 C 1106.23 817.965 1107.32 805.93 1109.92 793.826 C 1118.68 802.544 1125.59 812.687 1132.72 822.722 C 1129.23 831.05 1125.2 837.104 1119.12 843.749 C 1114 849.039 1108.27 853.318 1101.68 856.599 C 1083.54 865.634 1063.05 866.054 1044 859.659 C 1024.77 853.2 996.191 836.931 984.375 820.22 C 978.578 812.024 974.704 801.584 970.209 792.592 C 965.849 783.867 960.85 775.48 956.45 766.766 C 965.305 755.156 971.188 741.039 978.033 728.186 C 1000.95 685.161 1029.3 636.221 1032.33 586.708 C 1035.71 586.176 1039.33 585.745 1042.55 584.554 C 1045.7 583.393 1050.23 581.287 1051.63 578.113 C 1045.35 570.693 1034.97 579.162 1027.15 577.367 C 1018.4 575.36 1009.98 564.11 1005.56 556.642 C 997.725 543.392 993.454 524.718 997.611 509.719 C 1000.6 498.926 1007.65 487.719 1017.73 482.307 C 1025.02 478.395 1033.21 477.996 1041.03 480.538 C 1057.64 485.939 1065.14 501.181 1072.73 515.472 C 1082.95 516.126 1093 515.547 1103.14 514.112 C 1129.55 510.375 1153.51 501.977 1177.6 490.801 C 1228.67 467.113 1269.42 434.791 1303.33 389.868 z"/>
<path transform="translate(0,0)" fill="rgb(254,254,254)" d="M 1174.14 564.953 C 1176.42 564.515 1178.39 564.939 1180.63 565.282 C 1181.22 565.372 1181.81 565.43 1182.39 565.535 C 1189.96 566.9 1200.23 577.097 1204.28 583.026 C 1206.91 586.881 1208.66 590.311 1207.66 595.036 C 1205.99 597.009 1205.62 597.546 1203.23 598.435 C 1202.17 596.751 1202.41 596.752 1200.47 595.801 C 1198.6 596.646 1197.49 597.139 1195.43 597.379 C 1193.23 595.653 1192.81 593.594 1191.99 591.042 C 1191.43 589.288 1190.48 588.935 1189.09 587.782 C 1186.27 589.329 1187.97 594.291 1185.51 597.181 L 1182.99 596.498 C 1180.92 594.78 1178.65 593.027 1177.1 590.809 C 1174.64 587.305 1173.07 583.783 1173.69 579.481 C 1175.17 577.139 1175.24 577.156 1177.87 576.227 L 1179.77 577.347 C 1180.12 579.52 1180.18 578.718 1179.82 580.764 C 1179.74 581.222 1179.63 581.675 1179.54 582.131 C 1181.09 586.05 1182.15 590.625 1184.85 593.907 L 1185.78 593.594 C 1184.92 590.127 1183.88 586.834 1184.22 583.229 C 1185.85 583.026 1187.09 582.746 1188.61 582.092 C 1189.56 579.608 1189.56 578.36 1189.12 575.746 C 1186.32 571.647 1181.31 572.535 1177.49 570.153 C 1174.92 568.553 1174.84 567.682 1174.14 564.953 z"/>
<path transform="translate(0,0)" fill="rgb(46,9,35)" d="M 1243.52 548.196 C 1246.69 548.437 1249.98 548.583 1253 549.643 C 1256.6 550.908 1259.73 553.273 1261.35 556.803 C 1263.81 562.172 1262.69 569.063 1260.54 574.341 C 1258.72 578.787 1256.64 582.016 1252.16 583.946 C 1249.4 583.519 1249.45 583.545 1247.61 581.44 C 1246 575.644 1248.87 570.873 1251.09 565.656 C 1251.11 565.271 1251.15 564.887 1251.14 564.502 C 1251.08 562.069 1250.2 560.364 1248.4 558.716 C 1239.12 550.24 1231.59 569.631 1222.51 569.868 C 1222.22 566.268 1225.8 561.279 1227.77 558.368 C 1231.83 552.37 1236.55 549.658 1243.52 548.196 z"/>
<path transform="translate(0,0)" fill="rgb(49,5,36)" d="M 1025.94 500.083 C 1031.93 499.716 1036.85 499.933 1042.09 503.199 C 1050.46 508.418 1052.58 518.774 1054.6 527.678 C 1052.1 529.122 1048.38 530.823 1046.8 533.286 C 1040.97 542.32 1053.07 546.919 1054.51 553.813 C 1051.95 555.44 1050.53 554.988 1047.55 554.913 A 62.6848 62.6848 0 0 1 1045.75 553.349 C 1041.19 549.232 1037.24 543.638 1037.1 537.286 C 1036.94 530.201 1040.83 525.708 1045.34 520.783 C 1036.03 496.634 1026.09 514.111 1017.84 508.863 C 1019.16 504.787 1022.55 502.455 1025.94 500.083 z"/>
<path transform="translate(0,0)" fill="rgb(49,5,36)" d="M 1267.01 469.282 C 1272.73 468.45 1279.95 468.751 1285.54 470.143 C 1290.18 471.301 1295.95 473.664 1297.92 478.459 C 1298.95 480.956 1298.53 481.75 1297.4 483.911 C 1296.44 484.361 1295.74 484.754 1294.65 484.944 C 1291.33 485.527 1288.4 483.268 1285.63 481.795 C 1273.66 475.415 1259.84 479.669 1247.65 483.318 C 1242.18 485.432 1221.54 496.637 1217.6 496.319 C 1217.86 495.29 1217.76 495.379 1218.42 494.359 C 1227.89 479.703 1250.72 472.291 1267.01 469.282 z"/>
<path transform="translate(0,0)" fill="rgb(153,123,119)" d="M 1247.22 1300.88 C 1255.87 1308.4 1263.56 1319.39 1271.05 1328.16 A 1659.17 1659.17 0 0 1 1327.48 1396.49 C 1336.89 1408.76 1345.55 1423.09 1357.22 1433.3 C 1383.05 1425.21 1403.96 1396.83 1417.51 1374.9 C 1423.53 1387.52 1433.25 1395.76 1443.3 1405.02 C 1443.01 1406.02 1442.69 1407.02 1442.35 1408.01 C 1437.59 1421.79 1426.22 1433.41 1415.44 1442.78 C 1361.69 1489.53 1301.78 1498.22 1238.42 1522.93 C 1202.46 1536.96 1168.09 1553.86 1133.44 1570.78 C 1134.71 1562.23 1138.34 1547.24 1134.92 1539.34 C 1134.06 1537.36 1133.59 1537.28 1131.71 1536.56 C 1128.43 1538.42 1128.14 1543.58 1127.64 1547.1 C 1126.2 1557.04 1125.87 1567.41 1123.11 1577.1 C 1116.27 1601.19 1086.52 1645.94 1072.08 1668.79 A 3880.98 3880.98 0 0 1 1038.82 1719.42 C 1030.44 1732.21 1022.49 1745.28 1013.47 1757.64 C 968.487 1754.82 909.824 1731.84 870.866 1709.58 C 883.206 1685.95 897.87 1663.74 909.114 1639.47 C 924.254 1606.79 937.862 1573.38 952.626 1540.53 C 959.88 1524.38 966.695 1505.22 977.687 1491.34 C 990.265 1475.46 1009.35 1462.14 1025.35 1449.82 C 1052.26 1429.11 1079.66 1409.35 1107.2 1389.5 C 1123.19 1377.98 1138.72 1364.98 1155.45 1354.59 C 1161.85 1350.61 1169.36 1348.02 1176.31 1345.12 C 1201.98 1334.41 1230.8 1324.53 1247.22 1300.88 z"/>
<path transform="translate(0,0)" fill="rgb(49,5,36)" d="M 1094.94 1541.87 C 1097.22 1541.73 1099.51 1541.78 1101.67 1542.64 C 1107.5 1544.98 1111.59 1550.33 1113.74 1556.06 C 1117.93 1567.19 1116.79 1578.27 1112.14 1588.99 C 1110.09 1589.84 1110.49 1589.99 1108.11 1589.4 C 1105.73 1584.27 1110 1571.27 1108.01 1563.67 C 1105.84 1555.39 1095.64 1549.57 1094.94 1541.87 z"/>
<path transform="translate(0,0)" fill="rgb(183,197,179)" d="M 1129.83 1580.3 C 1152.86 1571.45 1174.71 1559.75 1197.03 1549.29 C 1223.45 1536.89 1252.07 1525.33 1280.19 1517.43 C 1293.85 1513.58 1308.37 1514.3 1322.46 1514.03 C 1381.02 1512.89 1461.34 1517.17 1515.26 1541.12 C 1535.71 1550.2 1556.26 1565.32 1564.69 1586.83 C 1574.76 1612.49 1561.91 1645.56 1551.14 1668.94 C 1509.18 1760 1432.86 1852.04 1367.49 1928.49 L 1341.5 1958.76 C 1337.14 1963.82 1332.78 1969.96 1327.72 1974.28 C 1320.46 1970.94 1211.41 1972.92 1193.2 1972.71 C 1209.52 1929.6 1231.11 1888.4 1252.14 1847.45 C 1289.98 1773.78 1329.73 1698.79 1393.32 1643.77 C 1411.52 1628.03 1431.47 1614.37 1451.67 1601.32 C 1456.06 1598.49 1463.21 1596.7 1464.36 1591.31 C 1463.7 1590.08 1463.69 1589.25 1462.22 1588.87 C 1454.13 1586.76 1429.36 1604.54 1421.85 1609.84 C 1371.93 1645.01 1331.75 1691.25 1299.17 1742.7 C 1291.01 1755.57 1284.35 1769.32 1276.27 1782.19 C 1252.64 1790.74 1229.42 1800.4 1205.61 1808.49 C 1121.85 1836.97 1031.83 1859.28 943.451 1866.05 C 945.745 1839.27 950.125 1827.35 962.725 1804.28 C 971.63 1805.04 986.388 1806.69 993.668 1800.72 C 1003.11 1792.97 1010.83 1777.99 1017.83 1767.73 C 1051.89 1717.76 1086.29 1666.65 1115.18 1613.48 A 211.498 211.498 0 0 0 1129.83 1580.3 z"/>
<path transform="translate(0,0)" fill="rgb(49,5,36)" d="M 1443.88 1625.66 C 1445.49 1625.64 1446.05 1625.75 1447.5 1626.58 C 1449.1 1627.5 1448.8 1627.74 1449.29 1629.37 C 1446.07 1636.27 1427.12 1647.32 1420.48 1652.02 C 1396.5 1668.98 1375.64 1689.85 1353.75 1709.33 C 1353.33 1709.23 1352.88 1709.21 1352.49 1709.03 C 1350.23 1707.96 1350.12 1706.76 1349.5 1704.58 C 1351.67 1697.4 1361.23 1690.05 1366.67 1685.04 C 1391.1 1662.55 1415.88 1643.49 1443.88 1625.66 z"/>
<path transform="translate(0,0)" fill="rgb(251,222,143)" d="M 912.923 780.738 C 913.845 781.448 913.48 781.116 914.577 782.354 C 920.971 789.575 934.743 816.264 939.737 826.57 C 989.727 929.722 1007.98 1044.81 1019.51 1157.71 C 1021.35 1175.75 1025.65 1199.21 1024.82 1217 C 1022.86 1218.51 1022.74 1218.62 1020.27 1218.72 C 1016.46 1217.1 1014.62 1214.13 1012.2 1210.92 C 1007.96 1209.95 1003.72 1209.37 999.411 1208.79 C 990.434 1183.04 991.052 1151.33 989.249 1124.22 C 986.357 1080.74 983.931 1035.16 973.394 992.863 C 971.793 986.437 970.32 977.159 964.357 973.559 L 962.494 974.348 C 961.507 976.828 961.51 978.811 961.873 981.407 C 962.932 988.971 965.392 996.433 967.002 1003.91 C 969.131 1013.79 970.41 1023.96 971.716 1033.98 A 1365.69 1365.69 0 0 1 979.27 1112.31 C 981.553 1144.67 983.169 1176.25 990.049 1208.07 C 967.205 1211.09 944.999 1223.72 928.359 1239.35 C 915.271 1251.65 887.784 1286.36 887.158 1304.85 C 888.226 1307.23 888.084 1307.08 890.515 1308.01 C 894.831 1305.16 903.901 1284.3 907.661 1278.41 A 181.977 181.977 0 0 1 935.48 1244.8 C 950.232 1230.9 974.84 1214.13 996.064 1215.2 C 999.449 1215.38 1004.45 1215.89 1006.82 1218.55 C 1006.56 1219.09 1006.45 1219.73 1006.05 1220.17 C 1002.56 1224.02 988.431 1226.46 983.106 1228.88 C 963.011 1238.03 946.819 1254.34 933.988 1271.94 C 927.565 1280.75 915.148 1301.92 916.831 1312.54 L 918.213 1312.71 C 926.789 1305.48 931.159 1292.22 937.161 1282.81 C 973.566 1225.74 1009.28 1230.08 1068.73 1220.17 C 1086.51 1217.2 1104.02 1211.33 1121.68 1207.45 C 1146.24 1249.97 1150.44 1297.89 1151.73 1345.86 C 1134 1353.13 1115.48 1358.74 1097.49 1365.34 C 1028.72 1390.58 958.725 1413.92 886.114 1425.38 C 874.496 1412.98 866.537 1397.19 858.525 1382.34 C 817.99 1304.43 794.9 1234.85 780.098 1148.35 C 779.153 1142.83 778.22 1133.03 773.494 1129.69 L 771.809 1131.28 C 769.381 1140.45 772.182 1151.59 773.619 1160.83 A 702.132 702.132 0 0 0 850.932 1386.57 C 859.289 1402.09 867.709 1421.21 882.198 1431.78 C 909.153 1433.2 939.233 1423.04 965.415 1417.01 C 964.669 1423.6 963.9 1435.26 960.703 1440.97 C 955.612 1450.06 947.58 1458.36 941.029 1466.48 A 1327.11 1327.11 0 0 0 908.007 1508.59 C 877.903 1548.7 849.938 1591.85 824.375 1635.03 C 826.045 1637.89 828.218 1640.49 830.234 1643.12 C 821.357 1652.28 816.943 1663.73 809.112 1673.46 C 805.234 1678.27 799.428 1681.6 795.144 1686.14 C 757.098 1726.37 748.274 1717.19 699.706 1732.66 A 681.554 681.554 0 0 1 696.4 1703.38 C 682.311 1544.42 701.04 1381.92 730.629 1225.75 C 751.439 1115.91 776.628 1007.48 826.573 906.644 C 849.413 860.534 879.994 819.98 912.923 780.738 z"/>
<path transform="translate(0,0)" fill="rgb(46,9,35)" d="M 870.79 886.189 C 883.245 885.944 893.577 889.945 904.062 896.381 C 914.104 902.544 939.806 924.129 940.862 936.121 C 941.11 938.93 940.098 939.294 938.242 941.158 C 922.667 922.97 911.734 907.62 889.25 897.389 C 883.457 894.753 872.331 894.615 868.001 890.356 C 868.348 887.531 868.732 887.923 870.79 886.189 z"/>
</svg>