<svg xmlns="http://www.w3.org/2000/svg" display="block" viewBox="0 0 2048 2048"><defs><linearGradient id="a" x1="710.656" x2="539.291" y1="702.297" y2="742.481" gradientUnits="userSpaceOnUse"><stop class="stop0" offset="0" stop-color="#6f535a"/><stop class="stop1" offset="1" stop-color="#896d6f"/></linearGradient><linearGradient id="b" x1="623.735" x2="644.051" y1="725.664" y2="657.706" gradientUnits="userSpaceOnUse"><stop class="stop0" offset="0" stop-color="#613a52"/><stop class="stop1" offset="1" stop-color="#776061"/></linearGradient></defs><path fill="#fefefe" d="M0 0h2048v2048H0z"/><path fill="#997b77" d="M1662.23 1698.18c14.25.03 28.58.35 42.82-.35 3.29-.19 6.38-.16 9.66.14l120.42-.04c20.43-.02 41.97 1.39 62.24-.49 1.87 2.34 2.07 2.6 2.35 5.56-1.39 2.04-1.57 2.23-4.22 2.56-6.6.83-14.43.05-21.14.04l-46.95.07-168.29.34z"/><path fill="#f9f5e4" d="M236.067 1696.61c-5.357-11.23-11.973-21.75-17.876-32.69-7.664-14.2-14.587-28.96-21.672-43.47a1552 1552 0 0 1-65.553-158.01 1195.77 1195.77 0 0 1-1.825-781.95c9.448-26.71 19.084-54.18 30.308-80.175C248.89 393.181 395.469 219.242 601.76 121.4c43.606-20.682 88.743-37.85 135.816-48.799C845.392 47.523 965.671 54.42 1069.83 91.94c114.67 41.309 213.29 110.597 295.61 200.079 18.61 20.231 33.66 43.571 52.15 63.967 96.01-9.97 190.38 32.32 263.58 91.824 22.68 18.44 44.73 37.547 65.17 58.496 133.55 136.92 218.28 328.998 237.77 518.684 18.52 180.23-30.43 377.09-112.94 536.85-17.26 33.42-36.37 66.72-56.32 98.6-7.67 12.26-16.5 23.87-23.95 36.21a3104 3104 0 0 0 70.95.03c11.13-.05 24.77-1.61 35.52.76-20.27 1.88-41.81.47-62.24.49l-120.42.04c-3.28-.3-6.37-.33-9.66-.14-14.24.7-28.57.38-42.82.35l-3.11 7.83c-7.32 19.03-17.21 36.8-26.83 54.74a1442.6 1442.6 0 0 1-124.85 191.55c-7.04 9.04-16.67 25.37-26.96 30.42-1.51.74-1.08.42-2.98-.3-1.14-3.54-.65-5.12.89-8.51-7.11-3.78-118.9-1.73-135.89-2.08-4.26 5.16-8.24 10.91-14.41 13.83-1.78-.15-2.39.23-3.64-1.22-1.28-1.48-1.46-2.42-1.83-4.28 1.23-2.71 2.87-4.03 5.1-5.88-7.26-3.34-116.31-1.36-134.52-1.57-.45.93-1.15 2.42-1.72 3.24-1.79 2.54-2.81 2.65-5.65 3.36-2.68-1.14-2.51-.99-3.61-3.7 1.26-16.19 74.23-157.78 87.56-181.61a1191 1191 0 0 1-242 68.84c-28.214 4.91-56.254 9.33-84.871 10.9-.652 15.19 1.275 49.96-10.467 60.7-7.968 7.3-20.951 9.85-31.12 12.67a496.4 496.4 0 0 1-144.99 17.27c-23.916-.7-75.258-6.76-92.078-25.74a21.65 21.65 0 0 1-5.471-16.49c2.382-28.32 47.745-45.57 69.941-56.27 11.681-5.64 23.472-11.5 34.678-18.04 12.189-7.11 22.618-17.64 33.56-26.51-43.52-.22-89.872-10.39-127.058-33.75-8.146-5.12-17.068-11.89-18.97-21.91a18.55 18.55 0 0 1 3.391-14.63c8.442-11.39 23.45-14.22 36.557-16.38-1.648-9.26-2.188-18.81-3.31-28.15-15.979-1.21-32.479-.51-48.516-.59l-91.492-.35-260.444-.4c-16.479.11-126.331 3.12-135.688-.5-2.634-1.01-3.648-1.71-4.841-4.24l.853-1.59c2.943-1.88 5.189-1.73 8.531-1.7 26.394-2.2 53.573.26 80.092-.53"/><path fill="#997b77" d="m1520.26 1182.22.64 1.08c4.13 6.93 9.02 12.99 12.59 20.38 13.32 27.66 23.66 66.39 29.38 96.5 2.76 14.49 3.96 29.71 7.51 43.98 9.81-18.19 21.54-37.69 42.53-44.27 13.87-4.35 30.31-2.29 43.02 4.62 30.5 16.59 46.15 57.31 55.13 88.71 22.79 79.69 24.97 224.24 3.65 304.75-3.28-.3-6.37-.33-9.66-.14 8.68-26.44 10.88-58.24 13.19-85.91 6.27-75.27 3.11-224.08-48.48-284.33-9.87-11.53-22.17-20.02-37.81-20.93-12.65-.73-24.19 3.74-33.45 12.3-34.98 32.38-42.54 106.85-44.67 152.72l-7.74-2.89c1.31-24.22 3.42-48.17 8.09-72.01 2.25-11.48 7.35-23.27 8.14-34.88.68-9.89-1.92-20.63-3.47-30.41-5.29-33.37-20.88-114.05-42-138.74zM344.363 1117.9c1.304.77 2.737 1.83 3.814 2.92 8.481 8.61 11.491 29.65 10.81 41.42-1.627 28.11-19.823 48.56-39.981 66.24-.338 11.32-2.004 21.72-4.834 32.68 8.849-8.44 16.889-13.86 28.439-18.09-.024-3.07-.013-6.14.438-9.18 1.748-11.81 9.885-21.93 19.351-28.75 13.47-9.71 30.159-13.09 46.46-10.17 5.564 1 9.76 2.25 13.077 6.98 1.19 4.64-.439 7.73-2.773 11.65-10.979 18.45-31.741 32.35-53.18 34.38-8.026.77-17.026-.19-24.786 2.05-12.618 3.64-24.633 13.77-31.063 25.04-11.151 19.53-17.408 52.71-11.313 74.69 2.413 8.7 7.581 16.61 10.072 25.91 8.456-9.36 17.136-18.22 26.138-27.05-.303-8.63.806-16.5 4.071-24.5 7.304-17.89 23.427-31.75 41.017-39.08 3.282-1.37 12.378-5.28 15.442-3.61 2.362 1.29 3.601 3.85 4.215 6.36 2.572 10.53-1.664 24.35-7.125 33.3-12.029 19.7-30.891 26.71-52.378 31.6-6.592 1.24-24.941 21.68-30.443 27.02-.069 11.22-.9 29.33-7.535 38.83-1.224 1.75-1.324 1.71-3.51 2.13-1.038-11.73 7.84-25.86 6.463-39.08-2.004-19.22-34.879-67.76-45.389-86.54a193 193 0 0 1-12.775-27.07c-12.761-6.6-24.387-13.8-33.456-25.17-13.009-16.31-13.649-36.62-10.427-56.34.425-2.6 1.092-3.32 3.216-4.74 12.567 2.8 33.06 19.73 40.68 30.54 13.213 18.75 10.641 39.25 6.802 60.44 10.315 22.82 25.889 43.86 37.763 66.04-3.467-37.96 17.59-69.08 22.583-106.56-8.41-17.51-14.719-35.5-11.519-55.17 3.771-23.2 23.245-45.71 41.636-59.12"/><path fill="#f9f5e4" d="m389.07 1287.95 3.888.05 1.613 1.8c2.007 8.48-1.638 18.19-5.629 25.66-9.453 17.71-23.745 24.32-42.087 29.79-3.01.38-3.359.79-5.846-.85-1.498-2.98-.903-5.65-.108-8.77 3.435-13.44 14.322-29.92 26.514-36.91 7.189-4.13 13.844-7.89 21.655-10.77m-180.046-97.3c13.537 5.46 27.445 16.92 35.095 29.41 8.129 13.27 8.842 28.74 5.322 43.56-11.483-4.66-25.731-16.42-32.698-26.72-8.637-12.76-10.497-31.32-7.719-46.25m182.101 9.72c5.631-.36 14.054-.33 19.35 1.57 2.908 1.05 3.992 2.31 5.251 5.05-.121 1.59-.283 3.01-1.008 4.47-6.846 13.75-27.611 24.07-41.454 28.98-7.034 1.47-16.634 4.09-23.681 2.26-1.198-1.48-2.29-2.71-2.572-4.69-.864-6.05 4.597-13.15 8.203-17.55 9.11-11.11 21.56-18.69 35.911-20.09m-47.227-74.63c.532.38 1.097.71 1.596 1.14 7.373 6.2 8.353 25.89 7.766 34.95-1.699 26.26-17.885 44.36-36.731 60.99-8.049-10.52-10.457-28.25-8.988-41.08 2.515-21.96 19.431-42.92 36.357-56m1209.932 345.94c2.13-45.87 9.69-120.34 44.67-152.72 9.26-8.56 20.8-13.03 33.45-12.3 15.64.91 27.94 9.4 37.81 20.93 51.59 60.25 54.75 209.06 48.48 284.33-2.31 27.67-4.51 59.47-13.19 85.91-14.24.7-28.57.38-42.82.35.48-1.05.94-2.1 1.37-3.18 13.51-34.31 35.6-101.28 20.36-135.42-18.05-40.45-89.54-72.62-130.13-87.9"/><path fill="#7e6266" d="m308.34 419.072 108.644.324c21.572.003 43.248-.607 64.8.185.909 14.811.027 30.225-.012 45.082l-.181 90.273.341 62.203c.079 11.512.924 23.633-.463 35.044l-113.547-.045c-17.497-.009-35.783 1.016-53.212-.334-2.838-.22-4.634-.066-6.679-2.098-2.024-10.093-.699-22.226-.609-32.605l.325-58.887-.083-89.012c-.056-16.425-1.319-33.873.676-50.13"/><path fill="#f9f5e4" d="M317.966 425.511a15512 15512 0 0 1 157.233-.119c.69 43.526.09 87.142.218 130.681.087 29.57 1.435 59.722.039 89.202l-2.206 1.111-159.256-.401a10305 10305 0 0 1-.403-150.485l.222-44.545c.012-6.537-.615-13.152-.183-19.67.138-2.071.306-3.433 1.47-5.205z"/><path fill="#7e6266" d="m424.084 440.495 34.935.099-.978 190.946c-30.9 1.748-62.555.412-93.541.449l-35.828.002c.681-63.68-1.237-127.388-.353-191.06 31.857-.932 63.888-.352 95.765-.436"/><path fill="#f9f5e4" d="M333.968 447.024a4798 4798 0 0 1 118.559-.128l-.389 108.422c-.083 22.177.376 44.425-.33 66.588l-.324-.684.102 4.109c-2.681 1.141-4.506 1.122-7.248.021-2.703-1.085-4.322-2.652-6.298-4.735-.674 1.961-.941 2.564-2.379 4.168-5.289 2.908-69.735 1.538-80.127 1.592l6.055-7.731c-1.795.163-3.06-.395-4.763-.912l-7.432 8.665-14.473-.146z"/><path fill="#7e6266" d="M369.157 557.646c-9.257-8.865-15.34-18.253-15.4-31.546-.055-12.081 4.196-25.319 13.105-33.743 7.762-7.338 18.589-10.96 29.202-10.376a44.26 44.26 0 0 1 30.628 15.242 37.17 37.17 0 0 1 8.831 28.599c-1.767 14.872-11.389 25.045-22.164 34.362-2.07 1.224-4.309 2.22-5.598 4.328l-2.917-.475c-6.948.594-13.185 1.147-19.976-.883l3.306-.711-2.357-.851 4.156-2.056c10.193-.529 19.297-2.169 27.076-9.417 7.789-7.257 12.126-16.857 12.128-27.535.002-9.302-3.097-18.293-10.08-24.663-7.192-6.56-17.514-10.094-27.207-9.664-9.574.425-18.901 5.139-25.14 12.375a35.56 35.56 0 0 0-8.271 26.817c1.238 11.946 7.466 20.46 16.328 27.951-2.546.314-3.653.615-5.65 2.246"/><path fill="#f9f5e4" d="M374.807 555.4c-8.862-7.491-15.09-16.005-16.328-27.951a35.56 35.56 0 0 1 8.271-26.817c6.239-7.236 15.566-11.95 25.14-12.375 9.693-.43 20.015 3.104 27.207 9.664 6.983 6.37 10.082 15.361 10.08 24.663-.002 10.678-4.339 20.278-12.128 27.535-7.779 7.248-16.883 8.888-27.076 9.417-5.486-.649-10.075-1.994-15.166-4.136"/><path fill="#694658" d="M369.157 557.646c1.997-1.631 3.104-1.932 5.65-2.246 5.091 2.142 9.68 3.487 15.166 4.136l-4.156 2.056 2.357.851-3.306.711c6.791 2.03 13.028 1.477 19.976.883l2.917.475c1.289-2.108 3.528-3.104 5.598-4.328 1.716.24 3.582.67 5.305.696 6.161-1.694 18.028-5.695 23.896-2.695 2.238 1.145 2.064 2.372 2.471 4.602-2.657 9.904-19.962 27.038-27.873 34.742 6.847 7.796 13.608 15.684 20.882 23.088-.674 1.961-.941 2.564-2.379 4.168-5.289 2.908-69.735 1.538-80.127 1.592l6.055-7.731c-1.795.163-3.06-.395-4.763-.912 6.005-7.636 12.505-14.71 19.1-21.828-11.921-9.46-24.473-19.005-35.442-29.535 9.433-5.131 18.069-7.417 28.673-8.725"/><path fill="#fefefe" d="M384.868 563.154c6.791 2.03 13.028 1.477 19.976.883-3.402 3.555-6.4 7.471-9.478 11.307-3.706-4.487-7.066-7.85-11.822-11.199zm28.491-2.97c1.716.24 3.582.67 5.305.696 6.316.378 18.465-1.045 22.782 3.821-.639 5.047-21.986 24.83-26.511 30.555l-17.404-17.184c3.222-3.589 9.235-8.767 10.23-13.56 1.289-2.108 3.528-3.104 5.598-4.328m-68.267 6.117c5.88-2.516 12.539-5.17 18.925-5.909 5.7-.66 8.654-.686 13.249 2.849l15.523 14.683a1141 1141 0 0 1-15.671 16.651c-10.808-9.102-22.249-18.074-32.026-28.274"/><path fill="#f9f5e4" d="M395.223 580.974a2684 2684 0 0 1 40.438 43.811c-5.289 2.908-69.735 1.538-80.127 1.592l6.055-7.731c10.615-13.11 22.19-25.294 33.634-37.672"/><path fill="#7e6266" d="M536.731 603.213c30.443-.949 61.138-.228 91.604-.178 28.72.046 57.851-.68 86.5.972.424 17.165-.245 34.463-.271 51.641l.398 86.392.118 61.678c.014 10.66.587 21.644-.147 32.264-.248 3.601-.335 4.334-2.773 7-24.939-3.258-168.182 2.301-176.002-2.269-.462-1.428-.858-2.765-1.109-4.249-1.68-9.935-.809-20.794-.788-30.878l-.091-44.566-.066-94.108c.013-18.506-.541-37.261.554-55.734.178-3.005.181-5.426 2.073-7.965"/><path fill="#f9f5e4" d="M540.16 609.03c56.129-.997 112.546.306 168.71.289l.315 141.222c.099 28.228 1.879 57.51-.346 85.573a12854 12854 0 0 1-168.798.218z"/><path fill="url(#a)" d="M559.119 624.421c45.179-.998 90.703.627 135.923.603.015 15.315.427 191.089-1.398 195.642l-2.394.677a12426 12426 0 0 1-135.424.264c-.116-22.132-2.09-190.83-.209-195.168.61-1.405 2.17-1.506 3.502-2.018"/><path fill="#f9f5e4" d="M560.968 630.303a7665 7665 0 0 1 128.96.427c.204 61.473.809 123.095-.804 184.547a9357 9357 0 0 1-127.045.677c-.941-23.641-.467-47.522-.623-71.191a10488 10488 0 0 1-.488-114.46"/><path fill="#7e6266" d="M634.233 767.261c6.773-1.712 9.974-1.541 16.083 2.037 9.286 5.44 18.95 17.914 21.151 28.591.319 1.547.317 2.873.085 4.427-8.474-4.852-14.126-34.358-37.489-31.92-1.636-.921-.904-.261-2.015-2.165zm-60.648-47.008c-3.822-8.764-3.314-21.224-.923-30.255 3.196-12.076 10.413-21.937 21.102-28.402l.598 2.028c2.053.125 3.678-.309 5.657-.82-11.157 6.988-20.289 15.689-23.411 29.056-1.384 5.929-2.093 12.406-.7 18.374.177 1.504.576 3.248.51 4.747-.038.511-.09 1.021-.114 1.533-.08 1.65.037 2.598.489 4.143l-.803.425-1.56-1.098z"/><path fill="#7e6266" d="m589.761 732.622 1.808-1.957 2.707.642c4.11 5.695 7.476 9.91 13.81 13.312 11.035 2.572 18.85 3.698 29.658-.795l1.293.597c.11 1.373.604 2.228-.448 3.307-3.935 4.035-16.211 4.652-21.762 4.213-4.021-.319-8.163-1.475-12.085-2.419 5.339 5.227 19.566 13.521 21.003 19.661 6.458-8.213 18.774-13.925 27.507-19.622 2.518.98 3.625.822 6.228.186-7.808 6.876-16.621 11.792-25.247 17.514l-2.185.97c1.111 1.904.379 1.244 2.015 2.165 8.732 6.968 23.115 17.821 27.994 27.855 1.32 2.714 3.461 7.631 2.494 10.571-2.487-1.299-3.865-3.593-5.559-5.747-9.251-11.762-18.691-22.472-30.196-32.161l-.846-.703c-2.406 3.479-3.502 4.98-7.649 6.169-21.798 6.251-19.118 18.653-33.715 28.783-1.787 1.239-1.905 1.326-4.098.903l2.423-2.441-1.158.863c.361-.777.486-1.101 1.009-1.897 6.134-9.328 15.516-21.943 25.321-27.387 3.468-1.926 8.181-2.814 12.011-3.845-10.877-14.139-24.928-21.272-32.333-38.737"/><path fill="url(#b)" d="M593.764 661.596c12.418-7.77 27.664-11.056 42.09-7.798a55 55 0 0 1 34.516 25.137c7.431 12.512 8.629 29.86 4.897 43.824-2.857 10.686-8.667 18.782-15.787 26.988-2.603.636-3.71.794-6.228-.186 4.986-4.991 9.946-11.058 13.069-17.457 1.212-2.481 1.514-3.737.558-6.292-3.668-1.714-6.769-3.047-9.573-6.025-.318-1.452-.924-2.312-.09-3.673 1.838-3.002 5.251-3.868 8.447-4.57l2.503 2.152-.115 1.511c-2.201.145-4.337.353-6.518.691.965 3.209 5.957 5.908 8.726 7.71.598-3.202 1.285-6.459 1.561-9.707.28-3.305.067-5.634-2.296-8.191-8.738-9.459-49.214-15.387-61.525-16.464l.252-1.47c2.604-.205 5.127-.405 7.654-1.116l1.752-.513c16.698-1.5 39.451 7.614 54.528 14.074-.66-3.833-1.348-7.605-2.677-11.275a46.94 46.94 0 0 0-25.2-27.041c-14.945-6.596-29.534-4.618-44.289.899-1.979.511-3.604.945-5.657.82z"/><path fill="#d1bcb5" d="M600.019 662.804c14.755-5.517 29.344-7.495 44.289-.899a46.94 46.94 0 0 1 25.2 27.041c1.329 3.67 2.017 7.442 2.677 11.275-15.077-6.46-37.83-15.574-54.528-14.074l-1.752.513c-2.527.711-5.05.911-7.654 1.116l-.252 1.47c-11.903 2.43-17.651 7.369-24.386 17.541-1.383 2.088-1.749 3.11-4.098 4.184l-2.642-.898-.965.161c-1.393-5.968-.684-12.445.7-18.374 3.122-13.367 12.254-22.068 23.411-29.056"/><path fill="#694658" d="M576.873 710.073c-.13-5.214 4.509-10.536 8.135-14.146 9.049-9.009 20.69-10.239 32.649-9.78l-1.752.513c-2.527.711-5.05.911-7.654 1.116l-.252 1.47c-11.903 2.43-17.651 7.369-24.386 17.541-1.383 2.088-1.749 3.11-4.098 4.184z"/><path fill="#f9f5e4" d="M607.999 689.246c12.311 1.077 52.787 7.005 61.525 16.464 2.363 2.557 2.576 4.886 2.296 8.191-.276 3.248-.963 6.505-1.561 9.707-2.769-1.802-7.761-4.501-8.726-7.71 2.181-.338 4.317-.546 6.518-.691l.115-1.511-2.503-2.152c-3.196.702-6.609 1.568-8.447 4.57-.834 1.361-.228 2.221.09 3.673 2.804 2.978 5.905 4.311 9.573 6.025.956 2.555.654 3.811-.558 6.292-3.123 6.399-8.083 12.466-13.069 17.457-8.733 5.697-21.049 11.409-27.507 19.622-1.437-6.14-15.664-14.434-21.003-19.661 3.922.944 8.064 2.1 12.085 2.419 5.551.439 17.827-.178 21.762-4.213 1.052-1.079.558-1.934.448-3.307l-1.293-.597c-10.808 4.493-18.623 3.367-29.658.795-6.334-3.402-9.7-7.617-13.81-13.312l-2.707-.642-1.808 1.957-1.86-2.007a77 77 0 0 1-6.18-1.917c-4.684-1.71-6.153-4.008-8.136-8.445l.845-.269 1.56 1.098.803-.425c-.452-1.545-.569-2.493-.489-4.143.024-.512.076-1.022.114-1.533.066-1.499-.333-3.243-.51-4.747l.965-.161 2.642.898c2.349-1.074 2.715-2.096 4.098-4.184 6.735-10.172 12.483-15.111 24.386-17.541"/><path fill="#310524" d="M619.168 702.442c3.235 1.118 5.81 1.969 7.525 5.13-.444 3.5-1.242 3.936-3.52 6.507l-3.516-1.397c-2.133-2.658-3.042-4.158-3.511-7.558z"/><path fill="#694658" d="M576.418 714.981c1.281 2.9 2.286 5.681 4.614 7.924 1.514-.695 2.655-1.357 4.022-2.274 5.161 1.583 6.785 6.23 9.222 10.676l-2.707-.642-1.808 1.957-1.86-2.007a77 77 0 0 1-6.18-1.917c-4.684-1.71-6.153-4.008-8.136-8.445l.845-.269 1.56 1.098.803-.425c-.452-1.545-.569-2.493-.489-4.143.024-.512.076-1.022.114-1.533"/><path fill="#7e6266" d="M705.02 220.5c18.408-.084 36.888-.49 55.282.305 1.997 43.431.729 87.505.668 131.008-.049 35.644 1.41 72.088-.693 107.611l-127.527.313c-13.591.112-40.594 2.303-52.58-1.078-1.96-2.633-1.737-6.833-1.861-10.022-1.077-27.884.045-56.219.111-84.146l-.57-143.405c42.175-1.712 84.93-.463 127.17-.586"/><path fill="#f9f5e4" d="m583.943 226.95 170.563.209c.997 29.997.421 60.228.454 90.25a13481 13481 0 0 1-.184 136.211l-170.809.009z"/><path fill="#7e6266" d="M599.963 243.009c46.344-.711 92.81-.02 139.166-.009l-.618 193.592a7437 7437 0 0 0-138.485.232z"/><path fill="#f9f5e4" d="m607.218 249.491 125.458.275-.534 118.359c-.015 20.221 1.644 41.877-.465 61.893-41.863.092-83.797.979-125.652.42-.073-15.843-1.735-176.302 1.193-180.947"/><path fill="#7e6266" d="M684.255 307.018c6.185-.771 14.452.504 19.362 4.581 3.333 2.768 4.718 7.009 5.079 11.2 1.607 18.651-24.81 52.04-36.4 65.847-4.352-4.197-7.442-9.865-10.736-14.913-10.83-14.816-26.353-30.377-28.618-49.415-.409-3.442-.009-7.27 2.574-9.849 2.928-2.923 8.137-3.746 12.104-3.538 8.713.458 14.371 6.419 19.97 12.369 4.371-7.841 8.688-12.131 16.665-16.282"/><path fill="#fefefe" d="M684.219 313.042c4.967-.382 9.765-.109 14.062 2.729 2.248 1.485 3.845 3.766 4.358 6.421 3.2 16.56-20.526 43.229-29.971 56.496l-14.488-19.341c-6.865-8.522-15.071-18.162-17.729-28.984-1.206-4.91-1.327-9.06 1.435-13.385 2.417-1.173 3.068-1.598 5.829-.988 9.472 2.091 17.124 13.432 22.286 20.87 3.489-9.484 5.93-17.351 14.218-23.818"/><path fill="#997b77" d="M489.421 1137.9c26.579-10.09 73.052-14.6 101.734-17.55 51.8-5.32 103.075-9.25 155.173-10.18l-1.84 7.7c-11.878 42.82-19.671 87.33-27.387 131.06-12.304 69.72-23.208 140.47-28.246 211.12l-.754 8.11a1465.6 1465.6 0 0 0-1.086 229.84c.173 2.82.241 5.7.557 8.51-15.979-1.21-32.479-.51-48.516-.59l-91.492-.35-260.444-.4c-16.479.11-126.331 3.12-135.688-.5-2.634-1.01-3.648-1.71-4.841-4.24l.853-1.59c2.943-1.88 5.189-1.73 8.531-1.7 10.472 1.67 22.517.72 33.16.72a4294 4294 0 0 0 68.156-.43c-.675-19.18-4.226-38.92-6.456-58.05a9931 9931 0 0 1-11.256-105.06c-2.61-24.77-6.146-49.86-6.514-74.78-2.645-.66-4.561-1.18-6.907-2.64-4.909-7.12-2.276-21.28-1.971-29.56 20.829-2.89 44.448-1.47 65.51-.88-6.197-13.66-13.496-25.79-21.857-38.2-2.414.91-4.88 1.88-7.373 2.56a46.78 46.78 0 0 1-36.253-5.18c-18.785-11.34-31.181-36.99-35.723-57.74-.893-4.07-1.829-8.86.531-12.52 7.479-2.52 21.137 3.56 28.095 6.81 17.216 8.03 33.021 22.08 42.398 38.77 4.355 7.76 7.61 16.12 12.084 23.81 7.704 13.23 15.966 23.74 21.227 38.38l.671 2.48c5.114 2.9 94.2.61 108.088.5 4.286-24.07 10.792-48.57 21.629-70.56 10.946-22.2 23.985-36.95 47.794-45.04-2.464-56.63 4.853-117.64 18.413-172.63"/><path fill="#f9f5e4" d="M398.479 1638.84c3.029 7.27 8.538 50.02 6.773 57.78l-2.499 1.11c-3.22.09-6.152.43-9.164-.94-.857-16.25 3.094-41.1 4.89-57.95m-204.166-317.4c5.242.75 10.103 2.11 15.05 3.97 26.786 10.07 43.439 31.68 55.017 56.92l-.629 1.57c-2.643.82-5.302 1.62-8.039 2.05-11.563 1.83-23.156-1.34-32.582-8.18-16.91-12.28-25.963-36.34-28.817-56.33m35.969 110.88 93.622.2c25.725-.09 51.554-.78 77.263-.06-.626 5.49-1.538 10.97-2.352 16.44l-.454 1.15c-4.433 2.59-149.801 1.15-168.218 1.14zm346.446 36.45c36.98-1.56 74.357-.86 111.373-.61a1465.6 1465.6 0 0 0-1.086 229.84c-34.031 1.08-68.807-.03-102.883-.59-1.388-76-.223-152.93-7.404-228.64"/><path fill="#d1bcb5" d="m239.931 1459.01 157.237-.15c-.716 17.81-2.17 35.41-2.311 53.27-.208 26.25 1.092 52.64.196 78.87-1.089 31.83-4.755 64.04-7.821 95.76-.279 3.4-.313 7.58-2.389 10.31-13.655 1.5-28.264.51-42.043.46a5814 5814 0 0 0-77.497-.08c-5.158-36.7-8.124-73.89-12.318-110.72-4.809-42.24-10.987-85.27-13.054-127.72"/><path fill="#f9f5e4" d="M485.537 1315.37c.962-.06 1.925-.13 2.889-.14 17.004-.17 33.329 5.5 45.438 17.7 12.288 12.37 19.374 32.08 23.536 48.69 12.966 51.76 14.07 112.89 15.701 166.19a3704 3704 0 0 1 2.232 150.11l-80.494-.33c-26.918-.16-53.861.2-80.781.32-2.8-20.27-4.89-40.78-6.912-61.14-7.753-78.08-14.794-236.74 37.515-299.6 10.827-13.01 23.883-20.16 40.876-21.8"/><path fill="#f9f5e4" d="M495.542 1143.06c25.982-6.51 52.636-9.83 79.172-13.17a1560 1560 0 0 1 169.774-12.02c-11.878 42.82-19.671 87.33-27.387 131.06-12.304 69.72-23.208 140.47-28.246 211.12l-112.692.47c-4.932-42.13-6.032-107.87-40.935-137.23-16.61-13.97-36.307-16.46-57.196-14.67-.664-48.55 5.392-119.08 17.51-165.56"/><path fill="#310524" d="M902.617 453.485c-3.402-58.11 25.663-123.915 63.741-166.936 24.618-27.814 70.722-56.765 108.652-58.761a182.4 182.4 0 0 1 49.63 4.402c20.92 4.74 40.81 12.919 60.74 20.663 41.55 16.139 94.41 36.447 127.32 67.068 6.21 5.779 10.35 13.764 16.8 19.097 20.61 17.03 51.97 32.105 52.71 62.31.88 35.391-13.43 79.317-38.56 104.892-5.87 5.977-14.12 10.478-19.32 16.911-9.2 11.376-28.1 56.248-27.97 71.017.07 8.685 2.85 17.771 9.33 23.804 7.75 7.215 23.65 10.319 28.34 19.222.09 3.948-.86 6.121-3.66 8.937-11.84 11.935-27.79 17.557-44.13 19.202-8.57 15.474-18.6 29.408-27.94 44.309-12.89 20.55-23.24 48.611-49.24 55.881-27.88 7.793-56.1-12.032-80.26-22.825-2.04 4.368-3.87 8.632-5.37 13.228 11.5 6.509 23.16 13.075 33.75 21.005 31.63 23.687 59.96 53.243 87.36 81.592a2318 2318 0 0 1 107.15 117.178c13.73-6.66 28.62-12.354 41.8-19.921.33-7.532.35-14.806-.52-22.308-31-19.785-72.01-46.122-80.35-84.867-6.7-31.104 15.02-63.651 31.28-88.435a516 516 0 0 1 17.94-25.427c.06-6.547.41-11.374 5.17-16.264 4.32-4.443 11.19-5.533 17.12-5.339 3.4.111 6.47.748 9.7 1.774 20.63-28.03 48.16-62.294 80.09-77.456-5.95-3.327-15.69-7.384-19.09-13.561l.57-1.694a99 99 0 0 1 6.18-1.792c.34-8.929-6.6-19.109.9-26.727 6.72-2.539 19.04 5.008 26.71 6.199 9.4 1.459 19.04 1.222 28.53 1.113-3.55-8.101-8.6-20.678-5.82-29.538.71-2.28 1.65-3.172 3.57-4.471 9.58 3.415 17.41 13.626 26.51 18.857.47.269.93.557 1.4.819 12.56 6.97 48.9 12.048 64.64 15.637 77.94 17.773 115.6 74.562 152.73 139.296 3.94-6.053 8.38-15.296 15.33-17.96 3.06.453 5.02 1.504 6.8 4.155 7.17 10.691-1.67 24.003-.63 29.802.5 2.835 16.97 8.404 20.12 14.525a14.1 14.1 0 0 1 1.42 4.443c.32 2.41.2 4.846-.48 7.18-.51 1.723-1.31 2.348-2.85 3.265-5.86 3.478-19.11-.009-25.78-.315 8.55 45.61 3.72 90.684-23.08 129.563-31.3 45.415-75.72 71.111-129.51 80.788-30.91 5.558-65.16 6.248-95.89-.832 9.98 26.04 21.54 53.89 23.38 81.95-5.39 11.62-8.36 24.29-11.71 36.61-6.1 22.42-11.39 45.11-17.61 67.47l-3.41 10.53c21.12 24.69 36.71 105.37 42 138.74 1.55 9.78 4.15 20.52 3.47 30.41-.79 11.61-5.89 23.4-8.14 34.88-4.67 23.84-6.78 47.79-8.09 72.01l7.74 2.89c40.59 15.28 112.08 47.45 130.13 87.9 15.24 34.14-6.85 101.11-20.36 135.42-.43 1.08-.89 2.13-1.37 3.18l-3.11 7.83c-7.32 19.03-17.21 36.8-26.83 54.74a1442.6 1442.6 0 0 1-124.85 191.55c-7.04 9.04-16.67 25.37-26.96 30.42-1.51.74-1.08.42-2.98-.3-1.14-3.54-.65-5.12.89-8.51-7.11-3.78-118.9-1.73-135.89-2.08-4.26 5.16-8.24 10.91-14.41 13.83-1.78-.15-2.39.23-3.64-1.22-1.28-1.48-1.46-2.42-1.83-4.28 1.23-2.71 2.87-4.03 5.1-5.88-7.26-3.34-116.31-1.36-134.52-1.57-.45.93-1.15 2.42-1.72 3.24-1.79 2.54-2.81 2.65-5.65 3.36-2.68-1.14-2.51-.99-3.61-3.7 1.26-16.19 74.23-157.78 87.56-181.61a1191 1191 0 0 1-242 68.84c-28.214 4.91-56.254 9.33-84.871 10.9-.652 15.19 1.275 49.96-10.467 60.7-7.968 7.3-20.951 9.85-31.12 12.67a496.4 496.4 0 0 1-144.99 17.27c-23.916-.7-75.258-6.76-92.078-25.74a21.65 21.65 0 0 1-5.471-16.49c2.382-28.32 47.745-45.57 69.941-56.27 11.681-5.64 23.472-11.5 34.678-18.04 12.189-7.11 22.618-17.64 33.56-26.51-43.52-.22-89.872-10.39-127.058-33.75-8.146-5.12-17.068-11.89-18.97-21.91a18.55 18.55 0 0 1 3.391-14.63c8.442-11.39 23.45-14.22 36.557-16.38-1.648-9.26-2.188-18.81-3.31-28.15-.316-2.81-.384-5.69-.557-8.51a1465.6 1465.6 0 0 1 1.086-229.84l.754-8.11c5.038-70.65 15.942-141.4 28.246-211.12 7.716-43.73 15.509-88.24 27.387-131.06l1.84-7.7c21.896-94.7 55.048-190.787 110.506-271.458 12.873-18.726 27.526-35.849 42.005-53.317 12.371-14.926 21.807-32.698 38.553-43.483 4.656-2.998 11.841-6.173 17.523-4.795 2.807.681 4.917 2.572 7.037 4.395 9.801-21.097 22.677-40.91 32.078-62.057-4.426-8.345-8.639-16.93-13.881-24.797-16.337 27.127-38.04 44.8-69.166 52.539a113.14 113.14 0 0 1-86.4-12.426c-27.973-16.969-45.009-45.415-52.548-76.77-9.618-39.999-1.686-82.049 19.852-116.899 14.761-23.885 39.56-48.147 67.682-54.82 15.091-3.581 29.842-.675 43.048 7.203"/><path fill="#efdcb1" d="M947.192 747.239c2.834-.231 5.363-.421 8.197.048l1.265 1.654c-1.239 4.446-4.457 6.829-7.77 9.789-.273-3.9-.281-7.807-1.692-11.491"/><path fill="#d1bcb5" d="M1765.7 749.782c1.94-4.416 3.15-7.834 7.06-10.897l1.84.233c1.92 4.019.46 9.41-.93 13.393-.59 1.689-1.3 2.79-2.53 4.077-2.57-2.017-3.82-3.993-5.44-6.806M972.233 1415.13c5.004-1.04 10.033-1.82 15.081-2.61.69 1.46.814.9.57 1.63-7.115 3.53-12.858 11.37-17.79 17.42.962-5.5 1.68-10.88 2.139-16.44"/><path fill="#fefefe" d="M777.333 1713.48c7.195 2.07 16.086 8.11 22.023 12.65l.149 2.14c-1.679-.05-3.51-.1-5.138-.53-5.78-1.52-14.805-6.04-17.943-11.19zm1.54 134.19c7.504 5.49 15.352 10.47 23.146 15.53l-.469.92.837.32-.365-1.38 1.669 1.7-3.05 2.7c-2.094-.11-3.959-.28-5.907-1.14-4.471-1.96-18.49-10.57-20.154-15.14z"/><path fill="#f9f5e4" d="M791.23 1702.61c5.887 2.17 23.266 12.34 26.839 17.04l-6.721 2.95c-4.942-.11-18.333-10.45-24.412-13.15l-1.305-.57-.008-1.04z"/><path fill="#fefefe" d="M809.996 1819.67c12.331 4.65 22.049 10.98 32.874 18.32l-6.876 6.46c-11.39-5.57-22.838-10.86-34.105-16.7z"/><path fill="#d9867f" d="M826.841 1802.49c7.82 2.44 16.203 5.86 20.42 13.37 1.613 2.87 2.279 5.99 1.161 9.17-.186.52-.398 1.04-.596 1.56l.138.01-2.538 2.15-2.834-.65a1340 1340 0 0 0-26.167-14.52c3.862-3.29 7.079-7.28 10.416-11.09m-19.949-115.86c6.118 2.13 13.442 4.17 18.867 7.75 2.526 1.67 5.169 4.44 5.452 7.6.387 4.34-3.571 8.28-6.099 11.34-9.719-4.33-19-11.12-28.062-16.74z"/><path fill="#efdcb1" d="M794.87 1833.74c10.629 7.01 23.332 13.13 35.255 17.47l-9.818 5.17c-1.946 1.39-3.704 2.27-5.921 3.15-9.392-1.01-20.698-11.74-28.435-17.39z"/><path fill="#fefefe" d="M1425.35 1357.41c13.67 6.21 25.29 16.16 39.1 21.62l-6.84 10.72c-2.08 2.93-4.66 5.56-7.06 8.24-6.57-4.83-13.44-11.36-18.36-17.89-5.74-7.65-8.06-13.21-6.84-22.69"/><path fill="#fbde8f" d="M947.192 747.239c1.411 3.684 1.419 7.591 1.692 11.491-1.45 3.736-2.07 6.635-.887 10.511.905 2.967 2.568 6.689 1.618 9.744a712 712 0 0 0-20.382 9.247l-11.041-15.016c8.411-10.969 16.577-19.686 29-25.977"/><path fill="#fefefe" d="M1441 1312.91c6.68 6.08 10.92 16.18 17.28 22.97 6.75 7.22 16.39 11.41 22.35 19.37-3.74 6.07-7.78 11.99-11.66 17.97-.2.21-.34.48-.59.62-3.4 2-12.94-10.81-18.16-12.75-5.15-13.97-16.05-28.19-16.7-43.28 1.47-2.73 4.79-3.66 7.48-4.9"/><path fill="#fbde8f" d="M955.601 784.881c6.309 6.253 19.377 38.22 24.186 48.057-8.009 1.954-15.697 4.209-23.45 7.015-5.275-6.682-17.413-33.379-23.129-43.655 7.63-3.26 14.953-7.691 22.393-11.417"/><path fill="#fefefe" d="M1445.49 1285.74c2.58.09 5.61.01 8 1.1 12.6 5.75 28.51 33.45 42.42 44.82-3.55 4.69-6.51 9.92-9.63 14.91-.98 1.76-1.67 2.73-3.3 3.93-.55-.25-1.14-.42-1.65-.74-8.77-5.51-37.01-47.81-38.42-57.58-.46-3.25.78-4.06 2.58-6.44"/><path fill="#f9f5e4" d="M1452.59 1244.44c21.59 1.63 25.56 29.82 40.97 35.75l1.37-1.04c.67-7.09-2.66-15.79-3.85-22.97l1.85-.8-1.08-.95-.75.61c.87.44 1.94.6 2.59 1.32 1.77 1.94 10.42 33.27 12.62 39.14-.42 10.28-3.17 19.13-6.91 28.62-12.78-14.86-42.45-49.08-48.19-66.2-1.77-5.29-1.03-8.59 1.38-13.48"/><path fill="#fbde8f" d="m980.003 841.183 1.659-.029c4.854 4.873 25.728 61.162 26.808 69.014-1.34 1.305-.94 1.275-2.36 1.719-6.187 1.929-11.821 3.42-17.768 6.131l-1.093.188c-.591-.295-1.249-.484-1.773-.887-1.687-1.293-24.077-63.149-27.055-70.868 7.143-1.941 14.38-3.563 21.582-5.268"/><path fill="#fefefe" d="M835.827 1647.39c5.358 2.59 10.458 6.37 15.772 9.2 9.921 5.29 20.124 8.86 30.741 12.42-4.836 10.72-11.337 21.18-16.985 31.53-6.881-1.91-14.606-1.87-21.718-2.93l-3.727-3.59c-7.387-7.12-14.392-10.98-23.646-15.22a1559 1559 0 0 1 19.563-31.41"/><path fill="#fbde8f" d="m1053.21 1138.38.27.06c3.36 4.43 5.42 64.49 6.42 75.2-8.24.79-16.51 2.28-24.71 3.45-2.28-2.17-6.82-66.18-7.58-74.74z"/><path fill="#997b77" d="M856.733 1599.62a281.6 281.6 0 0 0 45.957 29.76c-4.36 9.87-9.042 24.55-16.449 32.31l-2.471-.29c-17.514-6.19-34.789-13.36-49.079-25.46a901 901 0 0 1 22.042-36.32"/><path fill="#fbde8f" d="m1008.73 919.04 1.35-.38c5.32 4.636 23.38 89.68 26.06 102.77-7.51.51-14.51 1.7-21.84 3.4l-3.02.61c-3.24-4.56-5.24-24.38-6.59-31.392a797 797 0 0 0-16.94-68.228z"/><path fill="#fefefe" d="M662.874 1752.56c.266.31.522.63.799.93 30.012 32.94 112.07 42.3 155.845 44.79l-10.549 11.05c-1.019 1.05-2.26 1.91-3.408 2.81-26.797 5.39-89.026-10.17-113.499-21.74-9.928-4.69-28.816-13.37-32.3-24.7-1.457-4.74.94-9.08 3.112-13.14"/><path fill="#fbde8f" d="m1035.42 1028.38 1.68.18c4.74 7.15 14.27 86.93 16.25 102.05-7.68 1.19-15.4 1.99-23.12 2.85l-2.68.28c-.45-.56-1.13-1-1.35-1.68-2.21-6.88-2.44-22.98-3.34-31.12-2.49-22.44-5.21-45.34-10.29-67.36 7.34-2.87 15.08-4.15 22.85-5.2"/><path fill="#fefefe" d="M735.601 1731.11c.539-.05 1.433-.14 1.88-.09 5.446.58 14.026 8.06 17.814 12.04 12.047 12.66 15.637 24.64 15.073 41.79-17.072-2.29-33.15-6.06-49.622-10.94-17.589-5.72-36.656-12.25-50.605-24.87 16.196-8.24 46.557-12.83 65.46-17.93m-4.444 142.73c1.514.15 1.311-.02 2.46.53 22.724 10.86 39.122 34.06 46.738 57.39-17.048-.56-33.709-1.7-50.597-4.21-20.635-3.03-39.455-6.54-57.994-16.65 15.345-17.54 38.842-27.1 59.393-37.06"/><path fill="#fbde8f" d="M1145.22 1191.28c2.02.14 2.14.15 3.54 1.49 5.55 5.28 9.5 14.37 12.92 21.1 19.08 37.54 26.13 74.59 27.35 116.26l-20.75 8.86-8.47 3.58c.5-48.97-6.76-102.62-33.59-144.65 6.23-3.8 11.88-5.48 19-6.64"/><path fill="#fefefe" d="M857.246 1763.5c27.652 22.16 62.791 32.72 96.891 40.05-3.688 7.54-8.554 13.97-13.534 20.68-6.406 2.2-12.974 3.78-19.533 5.45-22.281 3.9-43.654 4.07-66.159 3.35 2.848-6.46 5.606-12.31 2.916-19.39-3.595-9.45-16.508-13.83-25.005-17.8 9.291-10.14 16.973-20.83 24.424-32.34"/><path fill="#d9867f" d="M841.366 1705.1c6.549 2.35 13.934 2.63 20.819 3.09-6.77 13.88-13.878 27.63-19.301 42.12l6.584 6.64a591 591 0 0 1-22.948 34.21c-15.835-1.06-31.768-1.86-47.477-4.17l.069-15.04c-3.566-20.22-13.235-32.36-29.698-44.12 6.157-1.51 11.963-3.65 17.891-5.87 8.864 4.47 16.093 11.39 25.088 15.69a65 65 0 0 0 5.621-1.49c19.404-6.16 33.451-12.1 43.352-31.06"/><path fill="#fefefe" d="m930.557 1905.88 1.506.32c.214.57.515 1.12.642 1.72.737 3.49-1.512 13.31-3.229 16.46-3.925 7.21-19.652 11.79-27.38 14.03-8.968 2.59-18.393 4.21-27.525 6.16-61.305 13.1-146.172 22.64-202.921-8.52-1.268-1.34-2.34-2.48-3.111-4.2-1.443-3.24-1.679-9.34-.007-12.4 6.072-.73 15.15 6 20.882 8.26 11.133 4.37 24.45 5.96 36.254 7.71 17.638 2.63 35.333 4.62 53.202 4.29 47.699-.89 107.896-15.34 151.687-33.83M1501.87 1339c11.53 18.74 11.08 79.3 10.69 102.35-.08 4.81.77 10.65-.17 15.34-.07.3-.21.58-.31.88-25.42-8.39-53.51-14-79.82-19.12 10.39-8.65 13.91-18.45 17.74-30.93 4.17-2.76 8.48-5.55 11.87-9.28 5.37-5.9 9.46-13.11 13.94-19.69 8.91-13.11 17.78-26.01 26.06-39.55"/><path fill="#997b77" d="M1324.98 347.432c15.5 5.349 40.54 29.789 48.91 43.989 2.79 37.676-11.04 76.665-34.1 106.069-3.5 3.941-6.84 7.564-11.05 10.796 3.19-12.373 6.11-24.777 7.34-37.52a119.15 119.15 0 0 0-27.27-87.75c6.16-11.606 11.53-23.294 16.17-35.584"/><path fill="#fbde8f" d="M1119.81 764.463c.35.171.71.314 1.04.514 9.59 5.803 17.9 20.115 24.38 29.318 47.44 67.489 93.16 172.418 106.41 253.865-3.81 4.36-8 8.47-11.99 12.66l-5.5 5.62c-8.55-69.785-34.27-134.963-65.12-197.611-14.72-29.9-31.87-63.204-56.85-85.807 2.13-6.436 4.72-12.438 7.63-18.559"/><path fill="#997b77" d="M867.863 1716.95c28.505 21.98 106.726 44.45 141.897 47.01a229.5 229.5 0 0 1-20.803 28.86c-1.909 1.45-3.49 2.45-5.93 2.87-26.821 4.7-69.761-10.63-93.944-22.75-12.961-6.49-25.055-14.47-37.075-22.52 5.547-11.01 10.609-22.31 15.855-33.47"/><path fill="#fbde8f" d="M1191.25 1177.17c7.79.22 12.52 3.11 17.84 8.77 20.78 22.09 34.96 75.93 33.73 106.13-12.94 15.47-20.51 21.42-38.54 30.48l-7.34 3.49c-.96-51.7-11.07-92.86-40.28-136.24 6.7-2.64 14.35-1.98 20.41-4.5 5.21-2.17 8.31-6.24 14.18-8.13"/><path fill="#310524" d="M1189.15 1194.21c1.34-.04 1.95-.08 3.35 0 3.6.21 5.83 2.63 8.15 5.13 5.4 5.81 10.96 15.27 10.63 23.29l-3.33.28c-5.38-2.22-16.05-22.83-18.8-28.7m26.29 60.17c3.07.18 3.79-.02 6.32 1.89 4.18 9.8 3.36 23.72 2.51 34.16-1.92-.05-3.26-.2-5.05-.91-4.56-6.76-3.67-26.39-3.78-35.14"/><path fill="#fefefe" d="m1215.05 1085.99 1.07.1.32 1.16c-29.79 34.88-66.96 64.76-102 94.21-9.91 8.34-20.17 18.74-31.02 25.61-3.85 2.43-8.45 3.55-12.91 4.16l-1.48-1.35c-3.33-24.43-2.89-49.3-6.22-73.74 18.89-6.89 38.44-12.17 57.62-18.21a1879 1879 0 0 0 94.62-31.94"/><path fill="#f9f5e4" d="M1236.72 1078.59c1.17.23 1.38.22 2.65.76 24.08 10.22 46.14 46.48 55.77 69.53-26.85 10.13-54.3 18.59-81.2 28.61-1.8-1.38-3.62-2.77-5.54-3.99-14.27-9.03-27.23.01-40.92 5.05-5.29 1.95-11 3.02-16.5 4.23-7.88.47-15.67 1.05-22.92 4.51-3.39 1.61-4.63 3.14-5.79 6.67-.53 1.61-.84 3.04-1.97 4.38-3.06 3.66-12.27 4.07-16.82 4.83 15.55-15.33 33.25-27.92 49.64-42.21 29.23-25.47 57.86-53.42 83.6-82.37m280.13 114.16c21.12 24.69 36.71 105.37 42 138.74 1.55 9.78 4.15 20.52 3.47 30.41-.79 11.61-5.89 23.4-8.14 34.88-4.67 23.84-6.78 47.79-8.09 72.01-10.18-3.78-21.25-8.59-32-10.23l-2.01-.99c.1-.3.24-.58.31-.88.94-4.69.09-10.53.17-15.34.39-23.05.84-83.61-10.69-102.35a1383 1383 0 0 0 8.64-15.43c2.16-7.12 4.06-14.53 4.61-21.98.2-2.8.41-6.02-.13-8.79-1.41-7.35-5-14.54-7.11-21.74-2.08-7.1-2.82-14.78-5.29-21.72-.89-2.52-2.43-4.45-4.15-6.45 6.71-16.43 13.07-33.23 18.41-50.14"/><path fill="#997b77" d="M1510.51 1323.57c8.64 42.3 15.16 92.88 3.58 134.99l-2.01-.99c.1-.3.24-.58.31-.88.94-4.69.09-10.53.17-15.34.39-23.05.84-83.61-10.69-102.35a1383 1383 0 0 0 8.64-15.43m-523.196 88.95a1587 1587 0 0 0 142.736-50.16c-15.14 12.1-31.77 22.27-47.65 33.35-28.03 19.56-103.325 72.83-119.102 99.99-7.402 12.74-13.08 27.05-18.96 40.57-12.513 28.78-24.164 58.36-38.026 86.51-15.366-9.43-30.648-19.84-44.764-31.05 27.568-40.17 54.547-80.22 85.253-118.12 8.39-10.36 39.73-45.02 42.73-54.66-.44-1.7-.876-3.21-1.647-4.8.244-.73.12-.17-.57-1.63"/><path fill="#d9867f" d="m937.817 1833.16 1.492 1.29c-3.017 20.24-4.591 40.27-5.795 60.69-44.37 21.62-96.525 30.37-145.18 36.22-5.367-16.13-11.256-28.68-22.324-41.71-7.597-7.95-15.967-14.58-24.822-21.08 7.874-4.02 15.555-8.34 23.25-12.7 5.226 3.63 10.081 7.78 15.125 11.66 5.76 4.43 12.049 9.3 19.72 7.98 16.828-2.89 41.598-20.7 51.564-34.4 29.892 1.47 57.987.46 86.97-7.95"/><path fill="#fbde8f" d="M1146.32 780.773c7.1 2.623 15.41 11.811 21.14 16.804 63.33 55.212 121.17 118.421 176.08 181.969a343 343 0 0 0-52.72 34.324c-3.38-12.81-5.93-25.94-8.76-38.885-2.07-7.122-4.08-17.402-10.27-22.195-4.11 7.81 8.77 56.65 11.74 66.68-8.63 6.62-16.91 13.36-25.01 20.63-9.88-75.264-64.31-200.333-112.2-259.327"/><path fill="#fefefe" d="M1138.17 832.565c4.87 5.602 8.51 14.299 12.06 20.899 17.01 31.632 32.77 63.817 44.66 97.784a3477 3477 0 0 1-93.75 27.304c-17.28 4.654-46.28 9.976-60.98 16.991l-4.61-19.913c-9.08-46.728-26.41-92.256-44.18-136.245 9.59 7.669 19.63 14.79 30.41 20.716 22.16 12.193 46.48 17.477 71.18 10.081 21.23-6.357 34.78-18.346 45.21-37.617m57.87 126.563.86.419c13.79 20.403 25.6 89.503 29.49 114.823-21.08 5.97-41.78 13.87-62.54 20.89a2745 2745 0 0 1-91.7 29.33l-9.78 3.43c-4.77-42.19-11.87-83.38-20-125.01 51.02-15.328 102.66-28.381 153.67-43.882"/><path fill="#f9f5e4" d="M1386.42 1021.76c1.58.47 3.04 1.19 4.54 1.86 11.9 14.5-19.89 39.19-14.09 57.31.76 2.38 1.85 4.05 4.24 5.06 22.55 9.58 84.53-53.13 108.18-61.32 4.46-1.55 8.24-2.47 12.64-.3 1.81 2.23 2.65 2.91 2.64 5.93-.06 17.46-53.09 47.86-66.3 59.36l.63 3.42-.07-.03c22.27 2.01 44.72-32.78 61.3-34.49 2.28 1.14 2.73 1.26 4.02 3.41-.55 10.84-23.98 32.98-32.78 39.47-8.68 6.39-23.62 12.88-29.44 21.67.8 2.33 1.46 2.07 3.54 3.17 7.06.72 29.02-16.67 36.83-20.64 9.59-4.86 20.39-9.4 30.65-12.57l1.33-.41c-13.28 27.18-60.58 48.54-63.92 55.15 1.64 2.62 3.2 2.92 5.94 4.24 15.03-3.74 31.34-23.99 43.86-28.04l.98 1.58c-.11 1.62-.22 3.07-.87 4.57-4.31 9.85-17.38 20.86-25.32 27.91-36.69 32.55-56.76 39.77-103.6 50.45-11.04 2.51-22.93 4.41-33.6 8.06-9.23 3.16-18.27 7.69-27.29 11.44a1477 1477 0 0 1-63.26 25.22c-6.59-25.43-13.69-46.68-28.02-68.89 28.34-13.06 61.9-16.17 88.95-32.63 4.93-12.18 6.69-25.91 10.87-38.46 12.35-37.08 37.26-67.17 67.42-91.5"/><path fill="#997b77" d="M865.571 454.245c14.54-.948 24.471.512 36.254 9.563 1.684 11.09 2.528 22.259 4.801 33.274 11.82 57.288 37.202 99.365 68.682 147.753-4.206 8.939-9.085 16.996-15.774 24.312-19.122 20.914-45.924 30.994-73.784 32.219-21.683.629-41.819-3.981-59.96-16.277-25.712-17.428-40.315-44.682-45.915-74.729-7.566-40.592 2.487-80.37 25.922-113.963 14.17-20.314 34.872-37.668 59.774-42.152"/><path fill="#2e0923" d="M899.029 494.422c1.586.81 2.904 1.77 4.319 2.848.013 4.641-6.085 12.44-8.411 16.723-13.78 25.376-17.309 52.75-8.779 80.601 6.283 20.52 19.12 39.72 40.014 47.366 6.808 2.491 14.713 2.814 21.095 6.239.358 2.522-1.104 3.749-2.427 5.84-17.392-.464-33.259-6.828-45.484-19.382-19.687-20.217-27.127-48.719-26.772-76.287.303-23.585 9.46-47.32 26.445-63.948"/><path fill="#2e0923" d="M869.613 485.956c1.212-.117 2.632-.338 3.858-.125a7.5 7.5 0 0 1 5.069 3.342c-1.807 4.39-14.635 9.07-19.061 11.88-22.075 14.017-35.868 34.502-41.536 59.908-5.974 26.776-3.132 56.205 12.116 79.526a77.8 77.8 0 0 0 69.474 34.921c6.752-.324 14.01-3.155 20.717-1.744 1.784 2.123 1.507 2.338 1.473 5.159-17.304 7.69-41.53 5.349-58.957-1.178-22.471-8.416-38.878-26.206-48.487-47.876-12.167-27.438-10.699-60.328.115-88.004 10.224-26.169 29.802-44.629 55.219-55.809"/><path fill="#d9867f" d="M1395.68 966.283c34.74-2.007 86.44 9.454 118.69 22.749 9.68 28.578 20.01 55.758 26.33 85.348-12.73 33.61-19.51 70.02-29.56 104.52-7.66 26.3-18.34 51.42-26.8 77.41-5.01-6.34-10.09-12.87-16.93-17.35-4.23-2.77-10.02-5.12-15.14-3.71-3.34.92-5.96 3.34-7.67 6.3-10.26 17.76 2.02 19.95 5.7 34.97l-.87-.02c-.43-.01-.87-.01-1.31-.03-1.62-.06-3.07-.18-4.66.27-3.25.91-5.77 2.73-7.31 5.8-3.68 7.32-1.18 14.94 1.17 22.14-2.14.6-4.26 1.24-6.16 2.43-2.91 1.8-4.8 5.02-5.57 8.3-3.09 13.17 7.5 30.03 13.85 40.86-3.26-2.72-8.51-8.12-12.71-8.9-2.81-.53-3.81-.39-5.94 1.51-5.57 4.95-9.83 18.26-13.39 25.05-9.85 18.73-29.65 38.39-47.88 49.09-11.33-14.25-21.87-29.17-33.17-43.47-14.72-18.63-30.24-36.49-45.81-54.4-9.23-10.63-18.21-22.57-28.82-31.82.56-10.64-.86-20.93-2.33-31.44 6.6-1.95 13.08-4.74 19.51-7.19 8.34 7.57 15.54 16.46 23.2 24.7 13.09 14.09 28.71 28.22 44.7 38.79 9.9 6.55 43.27 28.55 55.17 25.2 1.49-.42 1.6-1.26 2.37-2.47-1.54-3.6-6.95-5.16-10.29-6.55-25.7-10.66-45.75-25.15-66.94-42.99-13.53-12.05-28.26-25.59-39.06-40.17 22.09-9.53 45.11-19.99 68.07-27.04 50.89-15.61 78.41-11.55 122.6-48.35 11.48-9.57 40.76-34.91 42.18-49.88-.47-1.17-.94-2.34-1.33-3.53-2.14-6.57 5.44-13.62 8.4-19.6 2.45-4.95 4.71-10.05 2.94-15.53-1.12-1.21-1.94-2.05-3.62-2.48-8.56-2.14-16.75 3.42-23.67 7.59 8.19-8.52 19.81-21.1 19.93-33.6.04-4.58-1.62-7.2-4.83-10.31-.23-.22-.47-.44-.7-.67-1.26-5.47 4.23-13.05 4.6-19.08.24-3.85-.92-7.46-3.58-10.29-21.61-22.971-98.62 61.57-119.92 58.65-1.54-.21-1.68-.93-2.57-2.04-.98-9.8 9.21-22.29 12.66-31.6 2.6-6.99 5.13-15.62 1.55-22.68-1.66-3.27-5.04-5.95-8.53-7.04-4.46-1.39-9.32.49-13.1 2.83-8.54 5.3-15.85 14.31-22.66 21.66-32.2 34.76-43.81 57.49-53.73 104.14-13.71-26.81-33.35-58.75-62-71.53a422.8 422.8 0 0 1 122.31-90.82c10.32-5.122 21.43-10.999 32.63-13.727"/><path fill="#997b77" d="M1532.35 607.516c-6.73-9.24-12.9-16.567-13.06-28.508l.88-.331a627 627 0 0 0 5.57 5.324l2.55 2.391c17.71 16.442 64.26 19.866 88.46 26.987a170.9 170.9 0 0 1 51.32 24.448c18.14 12.946 32.98 28.928 46.48 46.538a322 322 0 0 1 24.33 36.727c4.99 8.735 9.53 18.233 15.29 26.451 1.66 2.367 2.99 4.272 5.59 5.676 3-.228 3.72-1.49 5.94-3.437 1.62 2.813 2.87 4.789 5.44 6.806-2.43 1.487-3.67 3.032-4.6 5.645 4.38 8.313 21.49 4.503 28.18 12.223 1.76 2.032 1.84 2.745 1.85 5.255-8.85 3.667-25.86-6.704-33.34-3.045.49 6.982 3.78 13.382 5.01 20.277 3.62 20.388 2.35 42.15-1.81 62.348-8.78 42.61-36.95 78.301-72.98 101.968-47.3 31.075-114.84 37.324-169.31 26.15l6.85-19.697a105.4 105.4 0 0 0 20.88 4.74c16.82 1.883 32.77-1.622 46.12-12.371 11.34-9.133 20.76-23.085 22.09-37.816a40.78 40.78 0 0 0-10.44-30.953c-11.02-12.173-25.65-15.131-41.24-15.785 31.73-41.44 15.31-67.624 30.55-107.697 3.71-9.752 9.37-19.174 16.63-26.697 3.47-3.589 10.79-7.518 11.64-12.132-1.62-2.35-1.44-2.258-4.23-2.815-3.57 1.04-6.07 2.871-8.87 5.296-29.11 25.245-28.19 60.241-31.09 95.366a79.8 79.8 0 0 1-7.53-16.578c-8.4-26.548-3.21-55.039 5.13-80.883 1.77-5.504 3.36-11.745 5.92-16.92 4.18-8.416 10.81-15.648 14.99-24.104 1.56-3.167 2.26-5.387 1.12-8.782-1.59-1.098-2.85-1.557-4.82-1.413-5.33.391-10.88 2.478-16.21 3.393-16.8 2.887-36.67 2.791-52.26-4.776l-1.33-.652c10.4-5.502 25.79-10.401 33.41-19.432 1.6-1.893 2-2.923 1.69-5.33-1.82-1.707-3.51-2.281-5.93-2.673-6.15-.999-12.75-.704-18.99-1.102-17.62-1.124-38.26-3.849-54.07-12.319-8.55-4.577-15.23-16.725-17.63-25.758-.82-3.083-1.21-5.393.4-8.199 3.05-.376 19.85 6.083 25.81 7.103 13.15 2.246 26.52 1.072 39.62-.907"/><path fill="#f9f5e4" d="M1477.12 644.798c24.85 7.269 48.65 11.11 74.53 11.946-8.36 5.069-23.67 10.297-28.99 13.926-1.22.831-1.78 1.623-2 3.061-.42 2.759.66 5.336 2.41 7.427 6.85 8.171 23.74 9.659 33.81 10.092a122.7 122.7 0 0 0 36.95-4.144c-21.62 32.646-35.7 76.799-27.55 116.105 2.38 11.476 6.95 21.235 15.18 29.702-5.46 15.244-11.7 29.201-20.78 42.643-4.43.882-8.66 1.376-12.44 4.004-1.31 2.878-.9 2.872.2 5.896 2.79 1.895 6.5.678 9.71.066 13.47-2.562 26.52-1.224 38.26 6.654 7.23 4.847 12.72 12.086 14.22 20.768 1.8 10.364-2.45 21.802-8.53 30.083-8.23 11.214-20.9 18.03-34.55 19.958-16.95 2.395-38.32-2.847-51.73-13.63-5.86-4.713-10.09-17.006-16.95-18.519-1.66 1.928-1.94 3.034-1.63 5.618 1.11 9.269 9.77 18.241 17.25 23.237a71 71 0 0 0 8.69 5.053l-5.08 16.362c-36.52-15.033-75.97-22.335-115.32-24.098-.49-6.623-.8-13.156-.79-19.798 12.24 5.062 44.29 17.804 56.29 12.853.33-.135.63-.341.94-.511l.04-1.575c-2.33-2.068-3.77-2.621-6.8-3.309-12.19-2.773-24.23-5.536-35.88-10.151-29.8-11.808-68.44-37.905-85.73-65.4-8.97-14.273-12.9-29.177-8.83-45.906 3.03-12.481 8.53-24.372 13.58-36.139-.53-2.141-.35-2.343.6-4.258 2.48-5.013 29.29-45.392 31.49-46.087 3.48 1.863 10.78 5.695 12.28 9.41 2.87 1.406 4.25 2.001 7.55 1.856 1.89-1.333 2.11-1.382 2.85-3.543-4.5-7.413-21.95-6.964-19.82-17.363 2.56-3.296 4.6-5.332 8.87-5.962 11.18-1.652 15.35 6.342 24-4.683 20.69-26.364 43.07-56.046 73.7-71.644"/><path fill="#2e0923" d="M1563.59 915.564c2.25-.937 4.78-2.834 7.13-1.355.6.378 1.53 1.423 2.04 1.957-2.96 2.619-6.15 8.257-10.01 9.118-.15-.243-.34-.467-.47-.727-1.44-3.019.08-6.219 1.31-8.993"/><path fill="#310524" d="M1490.93 676.823c3.7-.235 6.81-.315 10.2 1.4 4.51 2.288 7.57 5.726 9.1 10.583 2.62 8.335.4 16.4-3.69 23.774-2.46.464-3.27.828-5.58-.017-1.71-4.818 2.21-10.421 2.14-15.492-.08-6.503-5.22-8.882-9.31-12.818-2.75-2.641-2.7-3.881-2.86-7.43"/><path fill="#2e0923" d="M1454.51 716.77c4.97.241 11.05 2.568 14.42 6.402 1.94 2.211 2.4 5.11 1.99 7.945-1.02 7.092-6.2 14.712-12.2 18.579-2.3 1.49-4.13 2.213-6.9 1.699-1.78-2.049-1.59-2.628-1.85-5.377 1.19-3.476 4.32-5.878 6.93-8.356 1.25-1.496 1.78-2.926 2.46-4.738-.48-2.817-.25-3.165-2.39-4.985-8.69-.009-10.69 11.171-18.48 11.508-2.47.106-3.14-.21-4.78-1.927.03-.329.01-.664.08-.986 1.54-6.776 15.36-15.789 20.72-19.764"/><path fill="#310524" d="M1563.59 915.564c-2.94 1.939-5.61 4.723-6.64 8.193-.7 2.334-.39 4.846 1.06 6.828 1.68 2.298 3.77 3.077 6.52 3.191.44.019 1.65-.059 2.08-.075l3.75-.136 1.55 1.829c-.31 2.266-.58 3.112-2.59 4.589-2.45 1.8-6.11 1.937-8.97 1.218-4.2-1.056-8.56-4.304-10.66-8.112-2.18-3.959-1.97-8.711-.45-12.863 2.41-6.615 8.04-12.9 14.65-15.489 7.01-2.744 15.65-2.018 22.4 1.138 4.34 2.03 8.35 5.365 10.05 9.974.96 2.602 1.26 5.046.69 7.768l-1.53.386c-4.86-3.024-12.15-10.667-17.99-9.427-1.63.345-3.22.964-4.75 1.59-.51-.534-1.44-1.579-2.04-1.957-2.35-1.479-4.88.418-7.13 1.355"/><path fill="#fefefe" d="M1453.28 789.861c-1.54-.396-.69-.323-2.56-.043 4.27 2.772 8.58 5.373 12.27 8.906.97 2.674 1.05 2.948.39 5.701l-1.95 1.192c-2.28-.478-2.2-.714-3.81-2.206-.56-2.561-.88-4.9-2.49-7.048-2.61-.764-4.53-1.364-6.09-3.728-2.82-4.252-5.15-12.814-3.84-17.8.47-1.782.13-1.133 1.85-2.186 5.08 2.533 7.05 1.482 12.26.383 5.2.577 10.44 1.647 14.97 4.403 3.83-1.03 8.01-3.055 11.65-.991.54 2.036 1.11 2.816-.28 4.663-.86 1.154-2.43 2.229-3.54 3.161-.05 3.782 2.83 4.869 2.17 8.354-10.03.094-21.57.818-31-2.761"/><path fill="#2e0923" d="M1335.6 787.072c-.53-2.141-.35-2.343.6-4.258 2.48-5.013 29.29-45.392 31.49-46.087 3.48 1.863 10.78 5.695 12.28 9.41-4.84-1.804-8.34-4.66-12.22-8-6.01 10.327-13.21 19.965-19.04 30.357 20.44 20.273 46.09 28.65 73.9 33.812 2.14.398 3.35-.096 4.36 2.076-2.58 9.323-18.57 22.588-26.76 27.378-11.31 6.609-24.11 8.957-36.83 5.385-4.04-1.135-11.77-3.803-13.87-7.5-1.06-1.869-1.14-2.568-1.03-4.627 1.78-1.486.91-1.349 2.91-1.158 3.43.326 7.25 2.766 10.36 4.215 13.83 6.456 25.6.595 38.34-5.226-12.5.916-34.73.068-44.53-9.344-2.55-2.449-3.23-5.086-3.2-8.507.05-6.209 2.72-12.666 4.68-18.484-4.85-3.607-8.99-7.274-13.12-11.696-2.25 3.391-5.38 9.826-8.32 12.254"/><path fill="#fefefe" d="M1364.37 791.311c9.61 4.468 19.29 9.205 29.32 12.662 6.75 2.326 13.76 3.638 20.39 6.335-.66 1.845-4.43 3.018-6.24 3.926-12.68 3.263-26.82 4.345-39.08-1.314-3.69-1.705-7.38-4.601-8.3-8.792-1-4.589 1.81-8.979 3.91-12.817"/><path fill="#b7c5b3" d="M1424.75 1446.16c16.55 4.4 33.58 6.95 50.24 10.96 57.39 13.83 114.67 33.06 163.25 67.39 13.01 9.2 27.16 19.14 35.11 33.37 15.2 27.21 2.89 70.57-5.74 98.98-28.57 94.12-100 200.45-159.05 278.96-6.69 8.88-22.74 33.01-30.17 38.09-7.11-3.78-118.9-1.73-135.89-2.08 16.1-19.58 33.32-38.21 49.56-57.68 54.36-65.18 192.32-233.38 184.86-316.2-1.73-19.28-12.89-35-27.53-46.97-50.24-41.07-165.44-49.06-228.79-45.8l1.8-.95c8.64-4.47 18.7-7.11 27.71-10.96 28.88-12.36 50.83-26.66 74.64-47.11"/><path fill="#997b77" d="M1063.52 238.392c24.51-.054 49.87 1.698 73.8 7.133 18.13 4.12 35.21 11.199 52.48 17.914 44.45 17.277 91.3 36.469 126.16 70.293.89 25.677-16.11 47.518-31.58 66.498-36.95 45.328-96.76 82.846-153.1 98.836-17.3 4.912-35.04 7.314-52.9 9.088-4.6-8.588-9.11-16.414-15.84-23.529 37.44-13.149 73.3-28.938 104.23-54.354 24.29-19.965 46.44-43.419 63.89-69.588 3.18-4.764 8.69-12.085 8.85-17.934.04-1.583-.62-1.724-1.64-2.752l-3.1.004c-14.78 18.714-27.53 38.242-43.97 55.739-35.34 37.019-83.82 68.226-133.8 81.463-11.95-5.495-23.47-9.066-36.67-5.304-12.15 3.466-21.677 12.833-27.378 23.883-7.578 14.689-7.968 32.349-2.91 47.896 6.323 19.438 17.148 32.812 35.438 42.116-3.25 30.209-15.08 56.618-27.196 84.047-15.068-30.286-34.442-57.821-51.079-87.173a290.9 290.9 0 0 1-35.431-114.163c-5.629-59.255 18.278-125.112 56.065-170.695 20.266-24.448 63.481-56.391 95.681-59.418"/><path fill="#2e0923" d="M984.88 365.489c1.422.634 2.75 1.704 4.046 2.573.886 2.477.584 3.005-.944 5.15-5.987 8.405-13.825 15.858-20.363 23.893-13.881 17.061-24.171 37.224-31.821 57.749l-3.836-1.77c-1.369-2.257-1.711-3.556-1.439-6.228 1.971-19.395 39.425-69.149 54.357-81.367"/><path fill="#f9f5e4" d="M1303.33 389.868c7.4 7.186 12.76 19.805 16.55 29.249 32.37 80.621-46.99 146.032-29.22 191.212 6.32 16.07 20.89 22.533 35.72 28.665-.31.263-.61.531-.91.79-8.5 7.162-20.66 16.655-32.27 15.526-2.28-.221-5.47-.789-7.73-.082-9.62 3.014-20.96 46.125-38.11 52.094-6.65 2.315-15.22-1.824-21.03-4.916-14.32-7.624-32.64-23.304-31.95-41.041.16-4.203 3.54-8.29 2.29-12.308-2-1.017-2.1-1.048-4.31-.682-2.85 2.642-3.95 7.416-4.51 11.159-1.48 9.933 2.35 19.565 8.02 27.54 11.67 16.405 29.47 25.286 48.94 28.322-2.49 5.525-5.08 11.185-8.15 16.411-6.98 11.895-17.34 22.577-31.15 25.925-24.34 5.903-57.64-14.268-77.5-26.673-12.58 15.723-21.03 38.919-25.55 58.346-1.69 7.254-7.21 32.882-2.47 38.29 1.65 1.893 2.85 2.218 5.15 2.573 1.09-12.303 2.18-24.338 4.78-36.442 8.76 8.718 15.67 18.861 22.8 28.896-3.49 8.328-7.52 14.382-13.6 21.027-5.12 5.29-10.85 9.569-17.44 12.85-18.14 9.035-38.63 9.455-57.68 3.06-19.23-6.459-47.809-22.728-59.625-39.439-5.797-8.196-9.671-18.636-14.166-27.628-4.36-8.725-9.359-17.112-13.759-25.826 8.855-11.61 14.738-25.727 21.583-38.58 22.917-43.025 51.267-91.965 54.297-141.478 3.38-.532 7-.963 10.22-2.154 3.15-1.161 7.68-3.267 9.08-6.441-6.28-7.42-16.66 1.049-24.48-.746-8.75-2.007-17.17-13.257-21.59-20.725-7.835-13.25-12.106-31.924-7.949-46.923 2.989-10.793 10.039-22 20.119-27.412 7.29-3.912 15.48-4.311 23.3-1.769 16.61 5.401 24.11 20.643 31.7 34.934 10.22.654 20.27.075 30.41-1.36 26.41-3.737 50.37-12.135 74.46-23.311 51.07-23.688 91.82-56.01 125.73-100.933"/><path fill="#fefefe" d="M1174.14 564.953c2.28-.438 4.25-.014 6.49.329.59.09 1.18.148 1.76.253 7.57 1.365 17.84 11.562 21.89 17.491 2.63 3.855 4.38 7.285 3.38 12.01-1.67 1.973-2.04 2.51-4.43 3.399-1.06-1.684-.82-1.683-2.76-2.634-1.87.845-2.98 1.338-5.04 1.578-2.2-1.726-2.62-3.785-3.44-6.337-.56-1.754-1.51-2.107-2.9-3.26-2.82 1.547-1.12 6.509-3.58 9.399l-2.52-.683c-2.07-1.718-4.34-3.471-5.89-5.689-2.46-3.504-4.03-7.026-3.41-11.328 1.48-2.342 1.55-2.325 4.18-3.254l1.9 1.12c.35 2.173.41 1.371.05 3.417-.08.458-.19.911-.28 1.367 1.55 3.919 2.61 8.494 5.31 11.776l.93-.313c-.86-3.467-1.9-6.76-1.56-10.365 1.63-.203 2.87-.483 4.39-1.137.95-2.484.95-3.732.51-6.346-2.8-4.099-7.81-3.211-11.63-5.593-2.57-1.6-2.65-2.471-3.35-5.2"/><path fill="#2e0923" d="M1243.52 548.196c3.17.241 6.46.387 9.48 1.447 3.6 1.265 6.73 3.63 8.35 7.16 2.46 5.369 1.34 12.26-.81 17.538-1.82 4.446-3.9 7.675-8.38 9.605-2.76-.427-2.71-.401-4.55-2.506-1.61-5.796 1.26-10.567 3.48-15.784.02-.385.06-.769.05-1.154-.06-2.433-.94-4.138-2.74-5.786-9.28-8.476-16.81 10.915-25.89 11.152-.29-3.6 3.29-8.589 5.26-11.5 4.06-5.998 8.78-8.71 15.75-10.172"/><path fill="#310524" d="M1025.94 500.083c5.99-.367 10.91-.15 16.15 3.116 8.37 5.219 10.49 15.575 12.51 24.479-2.5 1.444-6.22 3.145-7.8 5.608-5.83 9.034 6.27 13.633 7.71 20.527-2.56 1.627-3.98 1.175-6.96 1.1a63 63 0 0 1-1.8-1.564c-4.56-4.117-8.51-9.711-8.65-16.063-.16-7.085 3.73-11.578 8.24-16.503-9.31-24.149-19.25-6.672-27.5-11.92 1.32-4.076 4.71-6.408 8.1-8.78m241.07-30.801c5.72-.832 12.94-.531 18.53.861 4.64 1.158 10.41 3.521 12.38 8.316 1.03 2.497.61 3.291-.52 5.452-.96.45-1.66.843-2.75 1.033-3.32.583-6.25-1.676-9.02-3.149-11.97-6.38-25.79-2.126-37.98 1.523-5.47 2.114-26.11 13.319-30.05 13.001.26-1.029.16-.94.82-1.96 9.47-14.656 32.3-22.068 48.59-25.077"/><path fill="#997b77" d="M1247.22 1300.88c8.65 7.52 16.34 18.51 23.83 27.28a1659 1659 0 0 1 56.43 68.33c9.41 12.27 18.07 26.6 29.74 36.81 25.83-8.09 46.74-36.47 60.29-58.4 6.02 12.62 15.74 20.86 25.79 30.12-.29 1-.61 2-.95 2.99-4.76 13.78-16.13 25.4-26.91 34.77-53.75 46.75-113.66 55.44-177.02 80.15-35.96 14.03-70.33 30.93-104.98 47.85 1.27-8.55 4.9-23.54 1.48-31.44-.86-1.98-1.33-2.06-3.21-2.78-3.28 1.86-3.57 7.02-4.07 10.54-1.44 9.94-1.77 20.31-4.53 30-6.84 24.09-36.59 68.84-51.03 91.69a3881 3881 0 0 1-33.26 50.63c-8.38 12.79-16.33 25.86-25.35 38.22-44.983-2.82-103.646-25.8-142.604-48.06 12.34-23.63 27.004-45.84 38.248-70.11 15.14-32.68 28.748-66.09 43.512-98.94 7.254-16.15 14.069-35.31 25.061-49.19 12.578-15.88 31.663-29.2 47.663-41.52 26.91-20.71 54.31-40.47 81.85-60.32 15.99-11.52 31.52-24.52 48.25-34.91 6.4-3.98 13.91-6.57 20.86-9.47 25.67-10.71 54.49-20.59 70.91-44.24"/><path fill="#310524" d="M1094.94 1541.87c2.28-.14 4.57-.09 6.73.77 5.83 2.34 9.92 7.69 12.07 13.42 4.19 11.13 3.05 22.21-1.6 32.93-2.05.85-1.65 1-4.03.41-2.38-5.13 1.89-18.13-.1-25.73-2.17-8.28-12.37-14.1-13.07-21.8"/><path fill="#b7c5b3" d="M1129.83 1580.3c23.03-8.85 44.88-20.55 67.2-31.01 26.42-12.4 55.04-23.96 83.16-31.86 13.66-3.85 28.18-3.13 42.27-3.4 58.56-1.14 138.88 3.14 192.8 27.09 20.45 9.08 41 24.2 49.43 45.71 10.07 25.66-2.78 58.73-13.55 82.11-41.96 91.06-118.28 183.1-183.65 259.55l-25.99 30.27c-4.36 5.06-8.72 11.2-13.78 15.52-7.26-3.34-116.31-1.36-134.52-1.57 16.32-43.11 37.91-84.31 58.94-125.26 37.84-73.67 77.59-148.66 141.18-203.68 18.2-15.74 38.15-29.4 58.35-42.45 4.39-2.83 11.54-4.62 12.69-10.01-.66-1.23-.67-2.06-2.14-2.44-8.09-2.11-32.86 15.67-40.37 20.97-49.92 35.17-90.1 81.41-122.68 132.86-8.16 12.87-14.82 26.62-22.9 39.49-23.63 8.55-46.85 18.21-70.66 26.3-83.76 28.48-173.78 50.79-262.159 57.56 2.294-26.78 6.674-38.7 19.274-61.77 8.905.76 23.663 2.41 30.943-3.56 9.442-7.75 17.162-22.73 24.162-32.99 34.06-49.97 68.46-101.08 97.35-154.25a211.5 211.5 0 0 0 14.65-33.18"/><path fill="#310524" d="M1443.88 1625.66c1.61-.02 2.17.09 3.62.92 1.6.92 1.3 1.16 1.79 2.79-3.22 6.9-22.17 17.95-28.81 22.65-23.98 16.96-44.84 37.83-66.73 57.31-.42-.1-.87-.12-1.26-.3-2.26-1.07-2.37-2.27-2.99-4.45 2.17-7.18 11.73-14.53 17.17-19.54 24.43-22.49 49.21-41.55 77.21-59.38"/><path fill="#fbde8f" d="M912.923 780.738c.922.71.557.378 1.654 1.616 6.394 7.221 20.166 33.91 25.16 44.216 49.99 103.152 68.243 218.24 79.773 331.14 1.84 18.04 6.14 41.5 5.31 59.29-1.96 1.51-2.08 1.62-4.55 1.72-3.81-1.62-5.65-4.59-8.07-7.8-4.24-.97-8.48-1.55-12.789-2.13-8.977-25.75-8.359-57.46-10.162-84.57-2.892-43.48-5.318-89.06-15.855-131.357-1.601-6.426-3.074-15.704-9.037-19.304l-1.863.789c-.987 2.48-.984 4.463-.621 7.059 1.059 7.564 3.519 15.026 5.129 22.503 2.129 9.88 3.408 20.05 4.714 30.07a1366 1366 0 0 1 7.554 78.33c2.283 32.36 3.899 63.94 10.779 95.76-22.844 3.02-45.05 15.65-61.69 31.28-13.088 12.3-40.575 47.01-41.201 65.5 1.068 2.38.926 2.23 3.357 3.16 4.316-2.85 13.386-23.71 17.146-29.6a182 182 0 0 1 27.819-33.61c14.752-13.9 39.36-30.67 60.584-29.6 3.385.18 8.386.69 10.756 3.35-.26.54-.37 1.18-.77 1.62-3.49 3.85-17.619 6.29-22.944 8.71-20.095 9.15-36.287 25.46-49.118 43.06-6.423 8.81-18.84 29.98-17.157 40.6l1.382.17c8.576-7.23 12.946-20.49 18.948-29.9 36.405-57.07 72.119-52.73 131.569-62.64 17.78-2.97 35.29-8.84 52.95-12.72 24.56 42.52 28.76 90.44 30.05 138.41-17.73 7.27-36.25 12.88-54.24 19.48-68.77 25.24-138.765 48.58-211.376 60.04-11.618-12.4-19.577-28.19-27.589-43.04-40.535-77.91-63.625-147.49-78.427-233.99-.945-5.52-1.878-15.32-6.604-18.66l-1.685 1.59c-2.428 9.17.373 20.31 1.81 29.55a702.1 702.1 0 0 0 77.313 225.74c8.357 15.52 16.777 34.64 31.266 45.21 26.955 1.42 57.035-8.74 83.217-14.77-.746 6.59-1.515 18.25-4.712 23.96-5.091 9.09-13.123 17.39-19.674 25.51a1327 1327 0 0 0-33.022 42.11c-30.104 40.11-58.069 83.26-83.632 126.44 1.67 2.86 3.843 5.46 5.859 8.09-8.877 9.16-13.291 20.61-21.122 30.34-3.878 4.81-9.684 8.14-13.968 12.68-38.046 40.23-46.87 31.05-95.438 46.52a682 682 0 0 1-3.306-29.28c-14.089-158.96 4.64-321.46 34.229-477.63 20.81-109.84 45.999-218.27 95.944-319.106 22.84-46.11 53.421-86.664 86.35-125.906"/><path fill="#2e0923" d="M870.79 886.189c12.455-.245 22.787 3.756 33.272 10.192 10.042 6.163 35.744 27.748 36.8 39.74.248 2.809-.764 3.173-2.62 5.037-15.575-18.188-26.508-33.538-48.992-43.769-5.793-2.636-16.919-2.774-21.249-7.033.347-2.825.731-2.433 2.789-4.167"/></svg>