<svg preserveAspectRatio="xMidYMid meet" version="1.1" xmlns="http://www.w3.org/2000/svg" style="display: block;" viewBox="0 0 2048 2048" width="1024" height="1024">
<path transform="translate(0,0)" fill="rgb(254,254,254)" d="M 0 0 L 2048 0 L 2048 2048 L 0 2048 L 0 0 z"/>
<path transform="translate(0,0)" fill="rgb(36,54,75)" d="M 491.243 1238.22 C 494.163 1238.56 497.203 1238.81 499.813 1240.26 C 503.81 1242.5 506.958 1246.39 508.146 1250.82 A 16.7977 16.7977 0 0 1 506.226 1264.02 C 502.98 1269.24 498.914 1270.85 493.106 1271.98 C 490.578 1271.63 488.144 1271.15 485.749 1270.23 C 479.273 1267.75 476.865 1262.27 474.358 1256.26 C 475.349 1252.8 476.494 1249.3 478.393 1246.22 C 481.416 1241.31 485.853 1239.48 491.243 1238.22 z"/>
<path transform="translate(0,0)" fill="rgb(36,54,75)" d="M 1482.93 1513.09 C 1486.11 1512.85 1489.38 1512.71 1492.54 1513.28 C 1497.49 1514.17 1502.17 1517.7 1504.8 1521.93 A 16.4087 16.4087 0 0 1 1506.68 1534.83 C 1504.91 1541.22 1500.72 1544.67 1495.16 1547.8 C 1492.1 1548.28 1489.02 1548.66 1485.94 1548.13 C 1481 1547.29 1476.22 1544.02 1473.62 1539.74 A 17.2092 17.2092 0 0 1 1471.67 1526.29 C 1473.32 1519.98 1477.44 1516.19 1482.93 1513.09 z"/>
<path transform="translate(0,0)" fill="rgb(36,54,75)" d="M 544.242 638.104 C 546.394 637.847 548.624 637.563 550.781 637.894 C 556.31 638.742 561.744 642.148 564.723 646.899 C 567.867 651.915 568.575 658.378 566.979 664.037 C 564.991 671.087 561.181 674.3 555.016 677.804 C 552.158 677.985 549.241 678.214 546.413 677.652 C 541.322 676.639 536.563 673.333 533.81 668.938 C 530.9 664.294 530.161 658.573 531.466 653.283 C 533.298 645.863 537.921 641.893 544.242 638.104 z"/>
<path transform="translate(0,0)" fill="rgb(36,54,75)" d="M 1407.05 1335.14 C 1410.98 1334.87 1415.25 1334.37 1419.1 1335.37 C 1425.5 1337.03 1431.25 1341.6 1434.23 1347.5 A 21.9932 21.9932 0 0 1 1435.37 1365.05 C 1432.75 1372.13 1427.56 1376.09 1420.99 1379.26 C 1417.74 1379.61 1414.42 1379.98 1411.18 1379.4 C 1404.8 1378.26 1398.82 1374.45 1395.31 1368.97 C 1392.04 1363.84 1390.88 1357.67 1392.37 1351.75 C 1394.42 1343.57 1400.07 1339.13 1407.05 1335.14 z"/>
<path transform="translate(0,0)" fill="rgb(248,210,109)" d="M 600.984 759.172 C 606.43 758.809 612.426 757.994 617.638 759.968 C 623.827 762.312 628.73 767.012 631.134 773.192 A 25.2386 25.2386 0 0 1 630.529 792.749 C 627.574 799.091 622.721 803.552 616.131 805.757 C 611.92 805.978 607.425 806.072 603.314 805.053 C 596.653 803.401 590.442 799.084 587.023 793.073 C 583.939 787.651 583.071 781.216 585 775.244 C 587.612 767.153 593.742 762.842 600.984 759.172 z"/>
<path transform="translate(0,0)" fill="rgb(248,210,109)" d="M 1716.99 214.361 C 1731.73 212.566 1747.28 213.741 1761.39 218.483 C 1788.63 227.642 1811.85 251.604 1824.43 276.895 C 1819.84 274.258 1815.54 271.043 1811.19 268.031 C 1787.92 250.916 1764.22 237.204 1736.03 229.856 C 1727.59 227.653 1704.07 224.352 1698.35 220.826 L 1698.26 219.412 C 1702.57 215.53 1711.36 215.094 1716.99 214.361 z"/>
<path transform="translate(0,0)" fill="rgb(248,210,109)" d="M 1853.13 1078.5 C 1854.58 1079.35 1855.38 1080.28 1856.02 1081.85 C 1857.57 1085.69 1857.82 1090.44 1858.24 1094.54 C 1860.31 1114.79 1857.09 1133.43 1848.62 1151.99 C 1838.29 1174.63 1822.47 1193.88 1798.75 1202.84 C 1797.11 1203.04 1796.04 1203.02 1794.42 1202.85 C 1794.65 1202.5 1795.58 1201.11 1795.69 1200.75 C 1795.83 1200.32 1795.77 1199.84 1795.81 1199.39 L 1796.4 1199.39 C 1818.07 1173.03 1833.28 1151.47 1842.73 1117.99 C 1846.43 1104.9 1849 1091.47 1853.13 1078.5 z"/>
<path transform="translate(0,0)" fill="rgb(181,67,68)" d="M 1110.89 311.179 C 1115.25 311.165 1119.32 311.626 1123.4 313.247 C 1130.01 315.874 1135.37 320.678 1138.16 327.292 C 1140.84 333.634 1140.99 341.271 1138.32 347.644 C 1134.61 356.529 1128.32 360.147 1119.77 363.358 C 1113.89 363.635 1108.31 363.415 1102.97 360.634 A 26.6641 26.6641 0 0 1 1089.26 343.55 C 1087.51 336.811 1088.17 329.296 1091.82 323.281 C 1096.31 315.853 1102.81 313.166 1110.89 311.179 z"/>
<path transform="translate(0,0)" fill="rgb(248,210,109)" d="M 1567.39 1345.07 C 1573.37 1344.81 1578.9 1344.9 1584.48 1347.39 C 1590.91 1350.26 1596.07 1355.45 1598.58 1362.07 A 27.3336 27.3336 0 0 1 1597.79 1382.91 C 1594 1391.27 1587.61 1395.33 1579.24 1398.27 C 1573.72 1399.15 1567.92 1398.73 1562.67 1396.69 A 24.2897 24.2897 0 0 1 1548.79 1382.63 C 1546.07 1375.58 1546.16 1366.97 1549.28 1360.05 C 1553.05 1351.72 1559.06 1348.02 1567.39 1345.07 z"/>
<path transform="translate(0,0)" fill="rgb(138,180,154)" d="M 1829.12 824.204 C 1834.32 823.835 1840.2 823.239 1845.21 824.891 A 27.1547 27.1547 0 0 1 1861.52 839.446 A 27.774 27.774 0 0 1 1862.02 861.526 C 1858.68 869.579 1852.76 874.126 1845.01 877.57 C 1839.01 878.291 1832.94 878.665 1827.22 876.35 A 26.4901 26.4901 0 0 1 1812.33 861.559 C 1809.41 854.336 1809.44 845.691 1812.61 838.549 C 1816.02 830.86 1821.54 827.138 1829.12 824.204 z"/>
<path transform="translate(0,0)" fill="rgb(181,67,68)" d="M 648.374 1654.16 C 653.632 1653.94 658.884 1654.13 663.811 1656.2 A 28.1389 28.1389 0 0 1 679.223 1672.67 C 681.858 1679.91 681.887 1688.17 678.512 1695.19 C 674.607 1703.31 667.947 1707.31 659.658 1709.97 C 653.389 1710.52 647.789 1710.31 642.037 1707.46 A 26.747 26.747 0 0 1 628.41 1691.59 C 625.953 1684.08 626.587 1675.39 630.215 1668.35 C 634.343 1660.35 640.107 1656.97 648.374 1654.16 z"/>
<path transform="translate(0,0)" fill="rgb(138,180,154)" d="M 1668.21 1227.16 C 1673.47 1226.88 1678.35 1226.64 1683.38 1228.52 C 1691.41 1231.5 1697.84 1237.5 1701.11 1245.46 A 30.5922 30.5922 0 0 1 1701.07 1268.82 C 1697.08 1278.31 1689.88 1283.26 1680.67 1286.94 C 1676.33 1287.06 1672.09 1287.25 1667.9 1285.93 C 1659.67 1283.34 1652.84 1277.91 1649.07 1270.08 A 29.9678 29.9678 0 0 1 1648.24 1245.98 C 1652 1236.41 1659.14 1231.13 1668.21 1227.16 z"/>
<path transform="translate(0,0)" fill="rgb(248,210,109)" d="M 359.394 1239.48 L 361.377 1240.89 C 366.413 1251.32 367.325 1278.07 368.158 1290.38 C 381.157 1292.84 396.909 1297.53 408.925 1303.1 C 411.578 1304.33 414.039 1305.42 415.029 1308.27 C 414.81 1308.52 414.625 1308.8 414.371 1309.02 C 407.036 1315.22 377.536 1309.48 368.233 1308.05 C 368.956 1329.44 369.535 1350.93 366.786 1372.21 C 366.614 1374.85 366.232 1374.8 364.305 1376.69 L 362.844 1376.5 C 355.88 1368.34 352.457 1318.06 352.05 1305 C 340.947 1301.92 328.785 1296.86 318.708 1291.25 C 315.936 1289.71 313.52 1288.53 312.652 1285.36 C 312.868 1285.13 313.053 1284.87 313.301 1284.68 C 319.422 1279.95 343.988 1284.62 351.846 1285.46 C 352.191 1272.37 351.545 1250.24 359.394 1239.48 z"/>
<path transform="translate(0,0)" fill="rgb(181,67,68)" d="M 491.63 799.744 C 493.821 802.552 494.101 823.618 494.846 828.79 A 168.105 168.105 0 0 0 515.047 888.467 A 140.528 140.528 0 0 0 560.934 935.999 C 567.268 940.044 594.362 952.018 596.629 955.42 L 595.497 956.623 L 591.772 956.731 C 578.579 955.153 565.431 953.09 552.976 948.282 C 527.51 938.452 505.568 918.073 494.539 893.058 A 123.118 123.118 0 0 1 491.63 799.744 z"/>
<path transform="translate(0,0)" fill="rgb(248,210,109)" d="M 1215.81 99.3871 C 1216.12 99.627 1216.47 99.8298 1216.75 100.107 C 1224.87 108.168 1225.44 140.088 1226.19 151.371 C 1240.56 155.691 1255.73 159.614 1269.5 165.568 C 1272.07 166.678 1275.2 167.892 1276.26 170.571 C 1276.07 170.776 1275.9 171.011 1275.67 171.186 C 1269.65 175.913 1235.25 172.232 1225.85 171.626 C 1225.26 194.785 1225.82 221.218 1218.38 243.337 C 1218.14 243.134 1217.88 242.953 1217.67 242.728 C 1209.62 234.337 1209.96 180.681 1210.93 167.821 C 1196.22 163.879 1179.85 159.633 1166.64 151.906 C 1164.5 150.659 1163.14 149.979 1162.57 147.481 C 1168.97 143.15 1201.1 147.744 1209.96 149.103 C 1210.26 132.828 1210.23 114.795 1215.81 99.3871 z"/>
<path transform="translate(0,0)" fill="rgb(248,210,109)" d="M 1007.92 1688.88 L 1008.73 1689.69 C 1006.92 1702.24 981.678 1725.51 971.811 1733.35 C 929.889 1766.69 882.494 1782.74 829.117 1776.63 L 826.068 1775.72 L 825.497 1774.47 C 832.399 1770.55 866.704 1761.59 877.182 1757.9 C 925.205 1740.99 966.69 1719 1007.92 1688.88 z"/>
<path transform="translate(0,0)" fill="rgb(138,180,154)" d="M 260.767 1427.22 C 267.676 1426.84 273.57 1426.68 280.099 1429.51 A 28.2316 28.2316 0 0 1 295.622 1445.92 C 298.893 1454.8 298.448 1465.65 294.278 1474.16 C 289.675 1483.55 282.144 1488.05 272.607 1491.19 C 265.8 1491.93 259.175 1491.45 252.911 1488.5 A 31.6872 31.6872 0 0 1 236.3 1469.66 C 233.399 1460.93 234.257 1450.67 238.675 1442.57 C 243.778 1433.22 251.04 1429.86 260.767 1427.22 z"/>
<path transform="translate(0,0)" fill="rgb(181,67,68)" d="M 596.913 1084.36 C 603.83 1084.39 609.734 1085.55 615.578 1089.46 C 622.883 1094.33 627.64 1102.14 629.335 1110.69 C 631.185 1120.03 629.368 1129.81 623.771 1137.56 C 617.541 1146.19 609.294 1149.2 599.252 1150.84 C 592.605 1150.02 586.356 1148.43 580.742 1144.64 A 32.1302 32.1302 0 0 1 567.034 1123.83 A 33.6354 33.6354 0 0 1 573 1097.2 C 579.147 1088.96 587.025 1085.72 596.913 1084.36 z"/>
<path transform="translate(0,0)" fill="rgb(138,180,154)" d="M 1008.12 200.145 C 1015.51 199.99 1022.43 201.51 1028.65 205.669 C 1036.03 210.591 1040.73 218.489 1042.26 227.149 A 35.336 35.336 0 0 1 1035.92 254.604 C 1029.82 262.753 1021.99 266.209 1012.19 267.725 C 1005.19 267.55 998.565 266.376 992.455 262.771 C 984.838 258.276 979.754 250.956 977.795 242.367 C 975.707 233.214 977.358 223.157 982.556 215.309 C 988.746 205.964 997.562 202.237 1008.12 200.145 z"/>
<path transform="translate(0,0)" fill="rgb(248,210,109)" d="M 974.842 348.461 C 975.79 349.239 976.467 349.735 977.29 350.704 C 984.124 358.757 981.305 401.191 980.893 412.462 A 239.494 239.494 0 0 1 993.788 417.099 C 1001.25 419.989 1019.29 426.675 1022.73 434.396 L 1021.7 436.035 C 1010.47 439.493 991.474 432.471 980.229 429.578 C 978.041 445.649 971.874 492.366 961.979 502.373 L 960.749 501.932 C 959.133 497.926 958.905 494.337 958.629 490.079 C 956.194 468.439 957.777 446.188 959.166 424.523 C 946.055 417.548 912.198 407.091 905.102 395.197 L 905.584 393.413 C 915.92 390.949 951.061 402.28 962.843 405.326 C 963.914 387.14 966.615 364.946 974.842 348.461 z"/>
<path transform="translate(0,0)" fill="rgb(36,54,75)" d="M 710.863 840.559 C 711.123 840.742 711.404 840.898 711.643 841.107 C 720.815 849.105 726.649 884.597 728.523 897.086 C 740.023 898.602 775.005 902.224 782.308 908.539 L 781.964 909.97 C 770.445 915.474 744.617 916.7 731.605 917.078 C 732.631 935.624 736.806 954.132 738.226 972.744 C 738.658 978.403 741.058 994.52 737.476 998.692 L 735.345 997.633 C 721.059 973.611 717.07 944.75 710.136 918.055 C 695.456 917.341 672.53 916.54 659.639 909.613 C 657.602 908.519 657.432 908.207 656.805 906.122 C 657.029 905.83 657.218 905.508 657.477 905.246 C 664.816 897.834 698.343 896.844 709.252 896.033 C 708.712 878.883 703.496 856.648 710.863 840.559 z"/>
<path transform="translate(0,0)" fill="rgb(181,67,68)" d="M 1737.44 956.461 L 1739.35 957.925 C 1744.71 972.328 1742.35 1010.86 1742.08 1027.1 C 1753.92 1031.22 1787.8 1042.49 1793.84 1052.58 L 1793.12 1054.15 C 1780.52 1058.38 1753.89 1051.45 1741.15 1048.28 C 1740.91 1063.38 1735.45 1113.71 1726.64 1124.98 C 1717.74 1106.89 1718.1 1064.11 1721.19 1044 C 1701.87 1039.83 1681.15 1029.92 1666.72 1016.31 C 1685.83 1016.94 1704.34 1019.19 1723.04 1023.06 C 1726.52 1001.15 1729.94 977.389 1737.44 956.461 z"/>
<path transform="translate(0,0)" fill="rgb(36,54,75)" d="M 1120.32 1498.68 C 1125.62 1504.9 1126.58 1562.86 1127.08 1574.58 C 1148.06 1581.13 1169.18 1588.08 1188.87 1597.9 C 1167.79 1598.44 1147.05 1598.44 1126.15 1594.98 C 1124.22 1612.19 1121.21 1655.18 1114.76 1669.05 L 1113.01 1669.53 C 1104.3 1649.09 1103.25 1612.61 1103.26 1589.72 C 1083.16 1583.21 1061.27 1575.87 1046.43 1560.13 C 1066.47 1560.34 1085.98 1564.77 1105.57 1568.5 C 1108.59 1548.15 1109.72 1516.1 1120.32 1498.68 z"/>
<path transform="translate(0,0)" fill="rgb(181,67,68)" d="M 769.697 256.461 L 771.235 257.325 C 779.416 271.646 777.281 309.388 777.463 326.911 C 795.802 331.209 819.381 341.201 833.047 354.481 C 813.608 357.341 795.155 353.663 776.309 349.043 C 775.8 375.792 772.838 399.822 762.71 424.799 L 761.829 425.64 L 760.541 424.958 C 755.035 402.84 756.458 367.296 757.101 344.437 C 741.015 339.514 723.958 333.977 709.676 324.945 C 706.993 323.249 704.295 321.56 703.54 318.302 L 704.827 316.669 C 717.905 312.113 744.419 318.428 757.88 321.537 C 758.372 299.279 759.256 276.618 769.697 256.461 z"/>
<path transform="translate(0,0)" fill="rgb(181,67,68)" d="M 870.766 1491.46 L 872.052 1492.18 C 875.646 1502.34 865.744 1550.52 862.975 1562.9 C 880.679 1570.98 897.523 1586.23 913.163 1597.84 C 894.008 1596.29 875.742 1589.26 857.02 1585.17 C 851.037 1601.91 843.184 1619.02 835.577 1635.09 C 832.911 1640.73 828.718 1651.77 822.613 1653.95 C 817.601 1633.24 829.587 1596.48 833.787 1574.89 C 819.88 1564.8 799.596 1552.95 789.767 1538.7 C 789.664 1535.99 789.383 1535.9 791.115 1533.88 C 803.023 1533.69 830.913 1546.28 843.902 1550.74 C 850.1 1529.86 858.041 1509.3 870.766 1491.46 z"/>
<path transform="translate(0,0)" fill="rgb(181,67,68)" d="M 1793.03 331.666 C 1814.16 334.064 1858.02 362.489 1873.82 376.595 C 1930.76 427.436 1957.67 502.56 1961.84 577.229 C 1958.22 569.901 1956.18 561.054 1953.45 553.3 C 1947.41 536.148 1940.95 518.597 1933.29 502.108 A 409.276 409.276 0 0 0 1838.92 371.263 C 1823.95 357.639 1807.14 346.224 1793.03 331.666 z"/>
<path transform="translate(0,0)" fill="rgb(181,67,68)" d="M 1623.2 126.455 C 1662.83 125.739 1700.61 133.225 1736.86 149.266 C 1719.26 149.457 1701.59 147.395 1683.98 147.052 C 1630.86 146.015 1578.63 152.524 1528.36 170.195 C 1499.59 179.775 1472.99 193.397 1445.93 206.895 C 1493.72 159.66 1555.69 129.659 1623.2 126.455 z"/>
<path transform="translate(0,0)" fill="rgb(138,180,154)" d="M 770.911 1718.19 C 768.481 1724.63 762.619 1731.14 758.384 1736.51 C 737.251 1763.33 712.824 1783.68 681.742 1798.29 C 625.652 1824.66 564.844 1823.7 507.314 1803.03 C 502.075 1800.69 496.995 1798 491.883 1795.4 C 512.32 1795.06 532.91 1799.16 553.592 1798.99 C 614.143 1798.52 675.635 1781.66 726.958 1749.24 C 741.758 1739.89 754.86 1727.72 769.866 1718.79 C 770.212 1718.59 770.563 1718.39 770.911 1718.19 z"/>
<path transform="translate(0,0)" fill="rgb(248,210,109)" d="M 882.065 538.203 C 883.709 537.991 885.363 537.788 887.021 537.732 C 892.579 537.545 898.264 539.577 902.109 543.67 C 907.665 549.585 908.616 557.9 908.331 565.629 C 915.273 564.6 922.585 563.142 929.596 564.257 C 935.169 565.144 939.895 567.779 943.146 572.449 C 946.534 577.315 948.095 583.431 946.677 589.263 C 941.882 608.981 907.191 625.378 890.817 634.902 C 875.418 643.693 859.12 651.266 843.319 659.331 C 850.767 627.734 853.578 595.354 863.162 564.176 C 866.7 552.665 871.092 544.046 882.065 538.203 z"/>
<path transform="translate(0,0)" fill="rgb(138,180,154)" d="M 1894.88 692.824 C 1895.38 693.239 1895.93 693.611 1896.4 694.069 C 1902.53 700.063 1908.07 708.793 1912.88 715.879 A 265.507 265.507 0 0 1 1958.68 843.89 C 1964.13 913.299 1945.97 980.707 1900.32 1034.05 C 1897.33 1037.66 1893.1 1044.15 1888.75 1045.86 C 1887.17 1046.48 1886.89 1045.82 1885.55 1045.07 C 1885.23 1041.89 1886.58 1038.71 1887.92 1035.87 C 1898.79 1012.71 1908.76 998.567 1917.18 972.454 A 359.982 359.982 0 0 0 1934.07 864.05 C 1934.1 822.246 1925.16 778.351 1911.41 738.906 C 1906.32 724.328 1897.93 708.826 1895.05 693.816 C 1894.99 693.487 1894.93 693.155 1894.88 692.824 z"/>
<path transform="translate(0,0)" fill="rgb(181,67,68)" d="M 1350.04 72.1004 C 1356.61 71.6346 1362.57 72.0087 1368.34 75.5421 C 1376.31 80.4134 1378.92 88.8299 1381.23 97.2674 C 1386.38 88.9144 1391.14 80.7826 1401.25 77.8744 C 1406.96 76.2349 1413.54 76.7417 1418.74 79.695 C 1424.01 82.6883 1427.3 87.7493 1428.66 93.585 C 1433.72 115.312 1413.53 142.143 1402.51 159.465 C 1394.15 172.153 1384.74 184.802 1373.43 195.008 C 1366.53 185.461 1361.49 174.732 1356.71 164.004 C 1347.85 144.11 1329.38 103.529 1338.28 82.471 C 1340.73 76.6614 1344.48 74.5625 1350.04 72.1004 z"/>
<path transform="translate(0,0)" fill="rgb(181,67,68)" d="M 423.729 1039.11 C 425.307 1039.04 426.852 1039.06 428.427 1039.2 C 435.004 1039.78 440.247 1041.92 444.449 1047.18 C 450.731 1055.04 451.182 1065.47 449.975 1075.03 C 447.432 1095.19 434.82 1146.31 418.975 1157.71 C 416.198 1159.71 413.037 1160.16 409.733 1159.39 C 401.254 1157.43 396.425 1148.19 392.01 1141.5 C 380.425 1123.73 357.519 1087.73 358.356 1067.24 C 358.601 1061.25 360.616 1055.57 365.263 1051.61 C 370.317 1047.3 378.734 1044.94 385.309 1045.58 C 393.298 1046.37 398.522 1052.11 403.456 1057.8 C 404.034 1056.54 404.617 1055.31 405.256 1054.08 C 409.772 1045.42 414.501 1042.04 423.729 1039.11 z"/>
<path transform="translate(0,0)" fill="rgb(248,210,109)" d="M 680.035 525.18 C 692.473 524.214 703.523 525.572 714.362 532.368 C 725.568 539.394 732.449 550.045 735.028 562.937 A 52.313 52.313 0 0 1 726.681 602.694 C 718.261 614.639 706.353 620.283 692.359 622.783 C 682.759 623.492 672.752 621.914 664.097 617.565 C 652.012 611.493 642.34 600.209 638.556 587.183 C 634.87 574.499 637.143 560.029 643.901 548.761 C 652.278 534.794 664.794 528.693 680.035 525.18 z"/>
<path transform="translate(0,0)" fill="rgb(254,254,254)" d="M 686.02 541.241 C 692.05 540.836 699.05 542.518 704.4 545.254 A 29.6028 29.6028 0 0 1 719.152 562.826 A 34.0861 34.0861 0 0 1 716.129 589.835 C 710.269 600.084 701.451 604.299 690.532 607.106 C 681.92 607.198 675.182 606.833 667.65 602.047 A 31.8405 31.8405 0 0 1 653.534 581.376 C 651.835 573.057 653.193 564.461 658.036 557.414 C 664.573 547.901 675.065 543.4 686.02 541.241 z"/>
<path transform="translate(0,0)" fill="rgb(248,210,109)" d="M 1333.26 1430.26 C 1344.25 1429.12 1355.75 1432.2 1365.07 1438 A 51.7051 51.7051 0 0 1 1387.98 1471.03 C 1390.9 1484.64 1388.86 1499.55 1381.17 1511.27 C 1372.22 1524.92 1359.43 1530.08 1344.11 1533.01 C 1331.49 1533.3 1320.45 1531.94 1309.56 1524.89 C 1298.1 1517.48 1289.56 1505.54 1287.09 1492.04 C 1284.52 1478.06 1287.8 1462.12 1296.24 1450.6 C 1305.19 1438.37 1318.81 1432.65 1333.26 1430.26 z"/>
<path transform="translate(0,0)" fill="rgb(254,254,254)" d="M 1333.73 1445.27 A 38.7528 38.7528 0 0 1 1355.59 1450.27 A 35.3057 35.3057 0 0 1 1372.36 1472.23 C 1374.91 1482.35 1373.42 1493.74 1368 1502.7 C 1362.11 1512.45 1353.25 1517.02 1342.54 1519.61 C 1334.37 1520.1 1326.1 1518.63 1318.98 1514.44 C 1310.64 1509.53 1304.98 1501.42 1302.75 1492.05 A 39.3564 39.3564 0 0 1 1307.82 1461.67 C 1314.12 1451.94 1322.89 1447.86 1333.73 1445.27 z"/>
<path transform="translate(0,0)" fill="rgb(248,210,109)" d="M 795.362 702.15 C 808.126 701.256 819.199 703.355 830.034 710.5 C 841.541 718.088 850.132 729.885 852.798 743.508 C 855.564 757.64 852.778 773.284 844.425 785.107 C 836.427 796.428 824.592 802.979 811.134 805.419 C 798.748 806.626 786.694 804.772 775.888 798.245 A 51.6635 51.6635 0 0 1 752.165 765.483 C 749.07 751.941 751.061 736.865 758.741 725.176 C 767.28 712.181 780.657 705.449 795.362 702.15 z"/>
<path transform="translate(0,0)" fill="rgb(254,254,254)" d="M 799.46 717.294 C 805.886 717.669 811.873 718.582 817.69 721.544 C 827.036 726.304 834.458 734.867 837.283 745.029 A 34.3841 34.3841 0 0 1 833.427 772.429 C 827.18 782.59 817.509 787.509 806.233 789.972 C 798.965 790.3 792.411 789.233 785.981 785.678 A 37.5906 37.5906 0 0 1 767.848 761.949 C 765.554 752.715 766.519 742.617 771.675 734.495 C 778.014 724.507 788.246 719.643 799.46 717.294 z"/>
<path transform="translate(0,0)" fill="rgb(248,210,109)" d="M 1032.64 1364.18 A 58.6124 58.6124 0 0 1 1066.74 1371.62 C 1078.06 1378.17 1085.63 1388.89 1088.79 1401.51 C 1092.42 1415.95 1090.25 1431.91 1082.17 1444.49 C 1074.04 1457.12 1061.43 1465.38 1046.92 1468.76 C 1034.06 1470.41 1022.68 1469.42 1011.43 1462.27 C 999.484 1454.69 991.673 1442 988.54 1428.36 C 985.356 1414.5 987.241 1400.03 995.098 1388.02 C 1003.96 1374.46 1017.09 1367.2 1032.64 1364.18 z"/>
<path transform="translate(0,0)" fill="rgb(254,254,254)" d="M 1035.25 1379.28 C 1042.31 1379.03 1049.19 1380.16 1055.56 1383.32 A 36.5242 36.5242 0 0 1 1074.08 1404.56 A 36.5958 36.5958 0 0 1 1071.47 1433.11 C 1065.63 1444.1 1056.35 1449.76 1044.78 1453.11 C 1035.45 1454.68 1025.96 1453.79 1017.87 1448.54 C 1009.9 1443.36 1004.56 1434.81 1002.74 1425.54 A 40.6803 40.6803 0 0 1 1009.32 1394.8 C 1015.79 1385.41 1024.25 1381.07 1035.25 1379.28 z"/>
<path transform="translate(0,0)" fill="rgb(248,210,109)" d="M 1497.79 1128.31 C 1505.18 1128.06 1512.89 1128.62 1518.64 1133.8 C 1523.23 1137.93 1523.76 1145.81 1524.05 1151.6 C 1525.31 1177.45 1511.04 1242.33 1493.63 1260.5 C 1491.48 1262.74 1488.88 1264.23 1485.67 1263.99 C 1476.13 1263.28 1468.04 1250.09 1463.03 1243.01 C 1449.97 1223.31 1428.44 1187.1 1427.09 1163.86 C 1426.66 1156.4 1428.34 1148.51 1433.67 1142.98 C 1438.96 1137.5 1447.58 1134.92 1455.05 1135.05 C 1463.88 1135.21 1469.32 1140.58 1475.12 1146.44 C 1476.76 1143.53 1478.43 1140.62 1480.38 1137.9 C 1485.11 1131.32 1490.03 1129.56 1497.79 1128.31 z"/>
<path transform="translate(0,0)" fill="rgb(181,67,68)" d="M 1220.45 1219.14 C 1228.97 1218.58 1238.15 1219.55 1245.34 1224.59 C 1257.17 1232.9 1254.41 1244.42 1256.72 1256.4 C 1259.93 1257.65 1271.8 1251.55 1278.99 1253.14 C 1287.36 1254.98 1294.77 1260 1299.19 1267.39 A 27.5509 27.5509 0 0 1 1301.93 1289.76 C 1294.52 1314.42 1260.7 1332.05 1239.91 1343.91 C 1229.78 1349.77 1191.63 1369.03 1180.62 1365.37 C 1178.13 1364.53 1177.3 1362.61 1176.52 1360.25 C 1169.54 1339.04 1189.18 1260.42 1198.67 1240.03 C 1203.63 1229.37 1209.38 1223.1 1220.45 1219.14 z"/>
<path transform="translate(0,0)" fill="rgb(36,54,75)" d="M 1454.71 258.438 A 344.395 344.395 0 0 1 1647.48 309.335 A 306.164 306.164 0 0 1 1785.91 497.71 C 1808.72 591.227 1791.27 686.483 1741.46 768.065 C 1724.37 796.06 1702.87 823.633 1679.19 846.365 C 1541.68 978.321 1271.36 1080.4 1089.05 1132.62 C 1048.06 1144.36 1006.24 1155.19 964.746 1165.01 C 943.987 1169.92 923.044 1174 902.316 1179.03 C 912.564 1195.09 923.615 1211.78 924.304 1231.46 C 924.901 1248.52 917.509 1259.99 906.456 1271.99 C 897.328 1281.9 872.477 1311.05 859.721 1311.03 C 856.757 1311.03 854.644 1310.13 852.677 1307.92 C 852.26 1307.45 851.864 1306.96 851.457 1306.48 C 847.913 1306.19 841.216 1314.17 838.418 1316.98 A 39406.5 39406.5 0 0 0 472.096 1693.44 L 361.143 1808.22 L 327.688 1842.76 C 319.754 1851.04 312.103 1859.86 303.331 1867.27 A 65.5292 65.5292 0 0 1 299.969 1869.32 C 285.363 1877.54 270.04 1873 255.081 1868.83 A 319.425 319.425 0 0 1 233.863 1896.53 C 209.966 1924.72 182.162 1957.92 142.603 1960.84 C 125.746 1962.08 110.336 1957.31 97.572 1946.06 C 84.6655 1934.7 77.4879 1919.26 76.6384 1902.12 C 73.8602 1846.07 128.404 1809.6 162.215 1772.68 C 157.251 1763.11 154.194 1753.49 155.159 1742.52 C 155.934 1733.71 159.641 1727.06 165.586 1720.69 C 177.89 1707.49 191.744 1695.26 204.809 1682.81 A 6538.87 6538.87 0 0 1 279.29 1612.64 C 326.731 1568.7 373.573 1523.73 420.323 1479.04 A 16614.2 16614.2 0 0 1 661.494 1250.94 C 686.335 1228.22 709.717 1202.98 735.707 1181.66 C 731.717 1178.89 726.522 1175.33 725.287 1170.31 C 724.767 1168.19 725.434 1166.32 726.628 1164.58 C 733.09 1155.15 768.912 1122.73 779.27 1115.98 C 783.388 1113.29 787.843 1111.37 792.722 1110.62 C 816.385 1106.98 841.299 1124.14 859.51 1137.13 C 864.031 1121.32 866.902 1104.93 871.232 1089.02 A 2464.67 2464.67 0 0 1 903.921 981.967 A 2736.51 2736.51 0 0 1 1004.59 727.062 C 1055.14 614.618 1115.87 487.902 1198.86 395.572 C 1265.13 321.839 1353.19 263.886 1454.71 258.438 z"/>
<path transform="translate(0,0)" fill="rgb(254,254,254)" d="M 793.558 1134.36 C 798.615 1134.09 803.919 1134.22 808.866 1135.42 C 839.619 1142.88 877.747 1180.5 893.567 1207.11 C 898.65 1215.66 904.241 1227.38 901.441 1237.42 C 898.378 1248.41 884.65 1263.44 874.922 1268.91 L 873.525 1267.76 A 135.867 135.867 0 0 0 861.364 1243.69 C 838.107 1206.87 804.31 1173.13 760.788 1163.23 C 771.656 1153.65 781.876 1142.93 793.558 1134.36 z"/>
<path transform="translate(0,0)" fill="rgb(254,254,254)" d="M 174.24 1797.65 C 176.802 1798.57 199.877 1824.45 204.465 1828.76 C 214.485 1838.17 225.186 1846.5 236.358 1854.47 C 212.153 1881.58 192.966 1912.55 159.66 1929.73 C 153.851 1932.34 147.819 1934.24 141.469 1934.93 C 131.912 1935.97 122.419 1933.83 115.075 1927.4 C 107.602 1920.86 103.792 1911.4 103.129 1901.62 C 100.03 1855.98 147.625 1827.69 174.24 1797.65 z"/>
<path transform="translate(0,0)" fill="rgb(254,254,254)" d="M 765.103 1188.7 C 776.743 1189.89 789.01 1200.18 797.952 1207 C 771.646 1236.75 739.586 1265.26 710.716 1292.83 L 578.663 1421.02 L 367.829 1626.98 L 285.139 1707.89 C 270.414 1722.46 256.345 1738.4 240.712 1751.96 C 225.026 1753.5 209.135 1752.18 193.394 1753.68 C 194.085 1756.33 194.889 1758.94 195.967 1761.47 C 208.646 1791.22 250.665 1826.37 280.3 1837.89 C 292.435 1830.9 324.368 1793.71 336.173 1781.24 L 413.638 1700.43 L 663.43 1444.44 L 762.507 1343.75 C 788.535 1317.17 814.203 1289.59 841.923 1264.77 C 844.046 1266.52 846.014 1269.68 847.745 1271.88 C 804.742 1318.06 759.42 1362.55 714.876 1407.27 L 599.849 1524.45 L 297.509 1837.79 C 292.791 1842.64 286.139 1850.36 278.888 1850.12 C 260.031 1849.47 218.276 1809.93 205.692 1795.87 C 195.45 1784.43 178.596 1763.58 180.043 1747.27 C 180.606 1740.93 185.279 1737.02 189.488 1732.71 C 203.858 1717.99 219.419 1704.15 234.448 1690.1 L 292.581 1635.04 L 501.828 1436.67 L 635.338 1309.66 C 677.804 1268.78 720.317 1227.03 765.103 1188.7 z"/>
<path transform="translate(0,0)" fill="rgb(254,254,254)" d="M 1671.45 401.85 L 1672.67 402.273 C 1671.75 410.15 1633.12 460.718 1626.38 469.983 C 1512.49 626.498 1344.13 780.439 1191.85 899.775 L 1031.6 1022.79 C 1010.77 1038.92 989.474 1054.14 969.402 1071.25 L 968.375 1071.33 C 970.003 1067.01 1052.87 973.909 1064.58 960.303 L 1206.02 796.168 C 1265.03 728.311 1324.48 661.161 1391.33 600.752 A 1422.09 1422.09 0 0 1 1598.06 446.472 C 1622.62 431.236 1645.84 415.473 1671.45 401.85 z"/>
<path transform="translate(0,0)" fill="rgb(254,254,254)" d="M 1721.51 411.413 C 1737.35 425.484 1757.27 478.809 1762.28 498.6 A 336.818 336.818 0 0 1 1723.02 754.401 C 1702.16 789.136 1672.48 822.065 1641.87 848.527 C 1594.33 889.623 1540.55 921.976 1485.25 951.367 C 1334.56 1031.46 1170.45 1088.18 1005.29 1129.83 A 3374.82 3374.82 0 0 0 964.245 1139.45 C 1000.68 1122.36 1037.83 1106.64 1074.18 1089.3 A 3388.21 3388.21 0 0 0 1250.02 999.166 A 2175.14 2175.14 0 0 0 1409.49 906.315 C 1461.69 873.391 1513.12 838.362 1559.25 797.232 C 1584.05 775.128 1607.47 749.629 1627.93 723.478 C 1679.48 657.58 1717.61 575.931 1724.17 491.686 C 1726.26 464.805 1724.76 438.122 1721.51 411.413 z"/>
<path transform="translate(0,0)" fill="rgb(254,254,254)" d="M 1454.9 281.431 C 1527.19 278.931 1603.69 301.09 1660.64 346.576 C 1600.47 330.441 1534.61 339.519 1476.11 358.271 C 1350.95 398.389 1262.22 494.217 1186.43 597.127 A 2159.34 2159.34 0 0 0 1063.36 785.828 C 1033.84 835.631 1002.74 884.971 976.191 936.458 A 5609.83 5609.83 0 0 0 899.382 1079.84 C 927.616 972.033 968.531 866.328 1013 764.303 C 1063.58 648.268 1129.78 510.421 1212.61 414.455 C 1275.27 341.857 1357.4 288.674 1454.9 281.431 z"/>
<path transform="translate(0,0)" fill="rgb(254,254,254)" d="M 1580.68 362.435 A 233.961 233.961 0 0 1 1673.76 375.022 C 1637.64 392.04 1603.64 414.291 1570.1 435.845 A 1515.57 1515.57 0 0 0 1279.75 678.25 C 1235.01 725.864 1193.32 776.059 1150.49 825.347 L 961.208 1043.61 C 945.994 1061.48 931.577 1079.94 916.502 1097.9 C 924.268 1079.86 934.557 1062.4 944.007 1045.18 A 2938.52 2938.52 0 0 0 973.484 990.147 A 3589.31 3589.31 0 0 1 1130.74 720.664 C 1172.06 655.659 1214.84 589.832 1266.68 532.615 C 1352.41 437.995 1449.18 368.936 1580.68 362.435 z"/>
<path transform="translate(0,0)" fill="rgb(254,254,254)" d="M 1696.88 408.684 L 1698.14 410.119 C 1700.7 420.062 1701.03 430.606 1701.5 440.821 A 385.046 385.046 0 0 1 1683.3 576.526 C 1660.07 646.791 1614.99 710.3 1562.52 761.871 C 1495.11 828.128 1405.54 883.431 1323.86 930.687 A 3422.02 3422.02 0 0 1 1155.27 1022.93 C 1115.79 1043.03 1075.54 1061.97 1035.57 1081.07 C 1005.47 1095.45 974.431 1108.06 944.653 1123.08 C 944.069 1123.31 942.777 1123.32 942.136 1123.38 C 947.573 1113.69 1013.82 1066.47 1027.84 1055.59 L 1217.37 908.397 A 3452.08 3452.08 0 0 0 1343.82 803.428 C 1480.83 682.149 1595.99 562.273 1696.88 408.684 z"/>
</svg>