<svg xmlns="http://www.w3.org/2000/svg" display="block" viewBox="0 0 2048 2048"><path fill="#fefefe" d="M0 0h2048v2048H0z"/><path fill="#24364b" d="M491.243 1238.22c2.92.34 5.96.59 8.57 2.04 3.997 2.24 7.145 6.13 8.333 10.56a16.8 16.8 0 0 1-1.92 13.2c-3.246 5.22-7.312 6.83-13.12 7.96-2.528-.35-4.962-.83-7.357-1.75-6.476-2.48-8.884-7.96-11.391-13.97.991-3.46 2.136-6.96 4.035-10.04 3.023-4.91 7.46-6.74 12.85-8m991.687 274.87c3.18-.24 6.45-.38 9.61.19 4.95.89 9.63 4.42 12.26 8.65a16.4 16.4 0 0 1 1.88 12.9c-1.77 6.39-5.96 9.84-11.52 12.97-3.06.48-6.14.86-9.22.33-4.94-.84-9.72-4.11-12.32-8.39a17.2 17.2 0 0 1-1.95-13.45c1.65-6.31 5.77-10.1 11.26-13.2M544.242 638.104c2.152-.257 4.382-.541 6.539-.21 5.529.848 10.963 4.254 13.942 9.005 3.144 5.016 3.852 11.479 2.256 17.138-1.988 7.05-5.798 10.263-11.963 13.767-2.858.181-5.775.41-8.603-.152-5.091-1.013-9.85-4.319-12.603-8.714-2.91-4.644-3.649-10.365-2.344-15.655 1.832-7.42 6.455-11.39 12.776-15.179m862.808 697.036c3.93-.27 8.2-.77 12.05.23 6.4 1.66 12.15 6.23 15.13 12.13a22 22 0 0 1 1.14 17.55c-2.62 7.08-7.81 11.04-14.38 14.21-3.25.35-6.57.72-9.81.14-6.38-1.14-12.36-4.95-15.87-10.43-3.27-5.13-4.43-11.3-2.94-17.22 2.05-8.18 7.7-12.62 14.68-16.61"/><path fill="#f8d26d" d="M600.984 759.172c5.446-.363 11.442-1.178 16.654.796 6.189 2.344 11.092 7.044 13.496 13.224a25.24 25.24 0 0 1-.605 19.557c-2.955 6.342-7.808 10.803-14.398 13.008-4.211.221-8.706.315-12.817-.704-6.661-1.652-12.872-5.969-16.291-11.98-3.084-5.422-3.952-11.857-2.023-17.829 2.612-8.091 8.742-12.402 15.984-16.072M1716.99 214.361c14.74-1.795 30.29-.62 44.4 4.122 27.24 9.159 50.46 33.121 63.04 58.412-4.59-2.637-8.89-5.852-13.24-8.864-23.27-17.115-46.97-30.827-75.16-38.175-8.44-2.203-31.96-5.504-37.68-9.03l-.09-1.414c4.31-3.882 13.1-4.318 18.73-5.051m136.14 864.139c1.45.85 2.25 1.78 2.89 3.35 1.55 3.84 1.8 8.59 2.22 12.69 2.07 20.25-1.15 38.89-9.62 57.45-10.33 22.64-26.15 41.89-49.87 50.85-1.64.2-2.71.18-4.33.01.23-.35 1.16-1.74 1.27-2.1.14-.43.08-.91.12-1.36h.59c21.67-26.36 36.88-47.92 46.33-81.4 3.7-13.09 6.27-26.52 10.4-39.49"/><path fill="#b54344" d="M1110.89 311.179c4.36-.014 8.43.447 12.51 2.068 6.61 2.627 11.97 7.431 14.76 14.045 2.68 6.342 2.83 13.979.16 20.352-3.71 8.885-10 12.503-18.55 15.714-5.88.277-11.46.057-16.8-2.724a26.66 26.66 0 0 1-13.71-17.084c-1.75-6.739-1.09-14.254 2.56-20.269 4.49-7.428 10.99-10.115 19.07-12.102"/><path fill="#f8d26d" d="M1567.39 1345.07c5.98-.26 11.51-.17 17.09 2.32 6.43 2.87 11.59 8.06 14.1 14.68a27.33 27.33 0 0 1-.79 20.84c-3.79 8.36-10.18 12.42-18.55 15.36-5.52.88-11.32.46-16.57-1.58a24.3 24.3 0 0 1-13.88-14.06c-2.72-7.05-2.63-15.66.49-22.58 3.77-8.33 9.78-12.03 18.11-14.98"/><path fill="#8ab49a" d="M1829.12 824.204c5.2-.369 11.08-.965 16.09.687a27.16 27.16 0 0 1 16.31 14.555 27.77 27.77 0 0 1 .5 22.08c-3.34 8.053-9.26 12.6-17.01 16.044-6 .721-12.07 1.095-17.79-1.22a26.5 26.5 0 0 1-14.89-14.791c-2.92-7.223-2.89-15.868.28-23.01 3.41-7.689 8.93-11.411 16.51-14.345"/><path fill="#b54344" d="M648.374 1654.16c5.258-.22 10.51-.03 15.437 2.04a28.14 28.14 0 0 1 15.412 16.47c2.635 7.24 2.664 15.5-.711 22.52-3.905 8.12-10.565 12.12-18.854 14.78-6.269.55-11.869.34-17.621-2.51a26.75 26.75 0 0 1-13.627-15.87c-2.457-7.51-1.823-16.2 1.805-23.24 4.128-8 9.892-11.38 18.159-14.19"/><path fill="#8ab49a" d="M1668.21 1227.16c5.26-.28 10.14-.52 15.17 1.36 8.03 2.98 14.46 8.98 17.73 16.94a30.6 30.6 0 0 1-.04 23.36c-3.99 9.49-11.19 14.44-20.4 18.12-4.34.12-8.58.31-12.77-1.01-8.23-2.59-15.06-8.02-18.83-15.85a29.97 29.97 0 0 1-.83-24.1c3.76-9.57 10.9-14.85 19.97-18.82"/><path fill="#f8d26d" d="m359.394 1239.48 1.983 1.41c5.036 10.43 5.948 37.18 6.781 49.49 12.999 2.46 28.751 7.15 40.767 12.72 2.653 1.23 5.114 2.32 6.104 5.17-.219.25-.404.53-.658.75-7.335 6.2-36.835.46-46.138-.97.723 21.39 1.302 42.88-1.447 64.16-.172 2.64-.554 2.59-2.481 4.48l-1.461-.19c-6.964-8.16-10.387-58.44-10.794-71.5-11.103-3.08-23.265-8.14-33.342-13.75-2.772-1.54-5.188-2.72-6.056-5.89.216-.23.401-.49.649-.68 6.121-4.73 30.687-.06 38.545.78.345-13.09-.301-35.22 7.548-45.98"/><path fill="#b54344" d="M491.63 799.744c2.191 2.808 2.471 23.874 3.216 29.046a168.1 168.1 0 0 0 20.201 59.677 140.5 140.5 0 0 0 45.887 47.532c6.334 4.045 33.428 16.019 35.695 19.421l-1.132 1.203-3.725.108c-13.193-1.578-26.341-3.641-38.796-8.449-25.466-9.83-47.408-30.209-58.437-55.224a123.12 123.12 0 0 1-2.909-93.314"/><path fill="#f8d26d" d="M1215.81 99.387c.31.24.66.443.94.72 8.12 8.061 8.69 39.981 9.44 51.264 14.37 4.32 29.54 8.243 43.31 14.197 2.57 1.11 5.7 2.324 6.76 5.003-.19.205-.36.44-.59.615-6.02 4.727-40.42 1.046-49.82.44-.59 23.159-.03 49.592-7.47 71.711-.24-.203-.5-.384-.71-.609-8.05-8.391-7.71-62.047-6.74-74.907-14.71-3.942-31.08-8.188-44.29-15.915-2.14-1.247-3.5-1.927-4.07-4.425 6.4-4.331 38.53.263 47.39 1.622.3-16.275.27-34.308 5.85-49.716M1007.92 1688.88l.81.81c-1.81 12.55-27.052 35.82-36.919 43.66-41.922 33.34-89.317 49.39-142.694 43.28l-3.049-.91-.571-1.25c6.902-3.92 41.207-12.88 51.685-16.57 48.023-16.91 89.508-38.9 130.738-69.02"/><path fill="#8ab49a" d="M260.767 1427.22c6.909-.38 12.803-.54 19.332 2.29a28.23 28.23 0 0 1 15.523 16.41c3.271 8.88 2.826 19.73-1.344 28.24-4.603 9.39-12.134 13.89-21.671 17.03-6.807.74-13.432.26-19.696-2.69a31.7 31.7 0 0 1-16.611-18.84c-2.901-8.73-2.043-18.99 2.375-27.09 5.103-9.35 12.365-12.71 22.092-15.35"/><path fill="#b54344" d="M596.913 1084.36c6.917.03 12.821 1.19 18.665 5.1 7.305 4.87 12.062 12.68 13.757 21.23 1.85 9.34.033 19.12-5.564 26.87-6.23 8.63-14.477 11.64-24.519 13.28-6.647-.82-12.896-2.41-18.51-6.2a32.13 32.13 0 0 1-13.708-20.81A33.64 33.64 0 0 1 573 1097.2c6.147-8.24 14.025-11.48 23.913-12.84"/><path fill="#8ab49a" d="M1008.12 200.145c7.39-.155 14.31 1.365 20.53 5.524 7.38 4.922 12.08 12.82 13.61 21.48a35.34 35.34 0 0 1-6.34 27.455c-6.1 8.149-13.93 11.605-23.73 13.121-7-.175-13.625-1.349-19.735-4.954-7.617-4.495-12.701-11.815-14.66-20.404-2.088-9.153-.437-19.21 4.761-27.058 6.19-9.345 15.006-13.072 25.564-15.164"/><path fill="#f8d26d" d="M974.842 348.461c.948.778 1.625 1.274 2.448 2.243 6.834 8.053 4.015 50.487 3.603 61.758a240 240 0 0 1 12.895 4.637c7.462 2.89 25.502 9.576 28.942 17.297l-1.03 1.639c-11.23 3.458-30.226-3.564-41.471-6.457-2.188 16.071-8.355 62.788-18.25 72.795l-1.23-.441c-1.616-4.006-1.844-7.595-2.12-11.853-2.435-21.64-.852-43.891.537-65.556-13.111-6.975-46.968-17.432-54.064-29.326l.482-1.784c10.336-2.464 45.477 8.867 57.259 11.913 1.071-18.186 3.772-40.38 11.999-56.865"/><path fill="#24364b" d="M710.863 840.559c.26.183.541.339.78.548 9.172 7.998 15.006 43.49 16.88 55.979 11.5 1.516 46.482 5.138 53.785 11.453l-.344 1.431c-11.519 5.504-37.347 6.73-50.359 7.108 1.026 18.546 5.201 37.054 6.621 55.666.432 5.659 2.832 21.776-.75 25.948l-2.131-1.059c-14.286-24.022-18.275-52.883-25.209-79.578-14.68-.714-37.606-1.515-50.497-8.442-2.037-1.094-2.207-1.406-2.834-3.491.224-.292.413-.614.672-.876 7.339-7.412 40.866-8.402 51.775-9.213-.54-17.15-5.756-39.385 1.611-55.474"/><path fill="#b54344" d="m1737.44 956.461 1.91 1.464c5.36 14.403 3 52.935 2.73 69.175 11.84 4.12 45.72 15.39 51.76 25.48l-.72 1.57c-12.6 4.23-39.23-2.7-51.97-5.87-.24 15.1-5.7 65.43-14.51 76.7-8.9-18.09-8.54-60.87-5.45-80.98-19.32-4.17-40.04-14.08-54.47-27.69 19.11.63 37.62 2.88 56.32 6.75 3.48-21.91 6.9-45.671 14.4-66.599"/><path fill="#24364b" d="M1120.32 1498.68c5.3 6.22 6.26 64.18 6.76 75.9 20.98 6.55 42.1 13.5 61.79 23.32-21.08.54-41.82.54-62.72-2.92-1.93 17.21-4.94 60.2-11.39 74.07l-1.75.48c-8.71-20.44-9.76-56.92-9.75-79.81-20.1-6.51-41.99-13.85-56.83-29.59 20.04.21 39.55 4.64 59.14 8.37 3.02-20.35 4.15-52.4 14.75-69.82"/><path fill="#b54344" d="m769.697 256.461 1.538.864c8.181 14.321 6.046 52.063 6.228 69.586 18.339 4.298 41.918 14.29 55.584 27.57-19.439 2.86-37.892-.818-56.738-5.438-.509 26.749-3.471 50.779-13.599 75.756l-.881.841-1.288-.682c-5.506-22.118-4.083-57.662-3.44-80.521-16.086-4.923-33.143-10.46-47.425-19.492-2.683-1.696-5.381-3.385-6.136-6.643l1.287-1.633c13.078-4.556 39.592 1.759 53.053 4.868.492-22.258 1.376-44.919 11.817-65.076M870.766 1491.46l1.286.72c3.594 10.16-6.308 58.34-9.077 70.72 17.704 8.08 34.548 23.33 50.188 34.94-19.155-1.55-37.421-8.58-56.143-12.67-5.983 16.74-13.836 33.85-21.443 49.92-2.666 5.64-6.859 16.68-12.964 18.86-5.012-20.71 6.974-57.47 11.174-79.06-13.907-10.09-34.191-21.94-44.02-36.19-.103-2.71-.384-2.8 1.348-4.82 11.908-.19 39.798 12.4 52.787 16.86 6.198-20.88 14.139-41.44 26.864-59.28M1793.03 331.666c21.13 2.398 64.99 30.823 80.79 44.929 56.94 50.841 83.85 125.965 88.02 200.634-3.62-7.328-5.66-16.175-8.39-23.929-6.04-17.152-12.5-34.703-20.16-51.192a409.3 409.3 0 0 0-94.37-130.845c-14.97-13.624-31.78-25.039-45.89-39.597M1623.2 126.455c39.63-.716 77.41 6.77 113.66 22.811-17.6.191-35.27-1.871-52.88-2.214-53.12-1.037-105.35 5.472-155.62 23.143-28.77 9.58-55.37 23.202-82.43 36.7 47.79-47.235 109.76-77.236 177.27-80.44"/><path fill="#8ab49a" d="M770.911 1718.19c-2.43 6.44-8.292 12.95-12.527 18.32-21.133 26.82-45.56 47.17-76.642 61.78-56.09 26.37-116.898 25.41-174.428 4.74-5.239-2.34-10.319-5.03-15.431-7.63 20.437-.34 41.027 3.76 61.709 3.59 60.551-.47 122.043-17.33 173.366-49.75 14.8-9.35 27.902-21.52 42.908-30.45z"/><path fill="#f8d26d" d="M882.065 538.203c1.644-.212 3.298-.415 4.956-.471 5.558-.187 11.243 1.845 15.088 5.938 5.556 5.915 6.507 14.23 6.222 21.959 6.942-1.029 14.254-2.487 21.265-1.372 5.573.887 10.299 3.522 13.55 8.192 3.388 4.866 4.949 10.982 3.531 16.814-4.795 19.718-39.486 36.115-55.86 45.639-15.399 8.791-31.697 16.364-47.498 24.429 7.448-31.597 10.259-63.977 19.843-95.155 3.538-11.511 7.93-20.13 18.903-25.973"/><path fill="#8ab49a" d="M1894.88 692.824c.5.415 1.05.787 1.52 1.245 6.13 5.994 11.67 14.724 16.48 21.81a265.5 265.5 0 0 1 45.8 128.011c5.45 69.409-12.71 136.817-58.36 190.16-2.99 3.61-7.22 10.1-11.57 11.81-1.58.62-1.86-.04-3.2-.79-.32-3.18 1.03-6.36 2.37-9.2 10.87-23.16 20.84-37.303 29.26-63.416a360 360 0 0 0 16.89-108.404c.03-41.804-8.91-85.699-22.66-125.144-5.09-14.578-13.48-30.08-16.36-45.09-.06-.329-.12-.661-.17-.992"/><path fill="#b54344" d="M1350.04 72.1c6.57-.465 12.53-.091 18.3 3.442 7.97 4.871 10.58 13.288 12.89 21.725 5.15-8.353 9.91-16.484 20.02-19.393 5.71-1.64 12.29-1.132 17.49 1.821 5.27 2.993 8.56 8.054 9.92 13.89 5.06 21.727-15.13 48.558-26.15 65.88-8.36 12.688-17.77 25.337-29.08 35.543-6.9-9.547-11.94-20.276-16.72-31.004-8.86-19.894-27.33-60.475-18.43-81.533 2.45-5.81 6.2-7.909 11.76-10.37M423.729 1039.11c1.578-.07 3.123-.05 4.698.09 6.577.58 11.82 2.72 16.022 7.98 6.282 7.86 6.733 18.29 5.526 27.85-2.543 20.16-15.155 71.28-31 82.68-2.777 2-5.938 2.45-9.242 1.68-8.479-1.96-13.308-11.2-17.723-17.89-11.585-17.77-34.491-53.77-33.654-74.26.245-5.99 2.26-11.67 6.907-15.63 5.054-4.31 13.471-6.67 20.046-6.03 7.989.79 13.213 6.53 18.147 12.22a84 84 0 0 1 1.8-3.72c4.516-8.66 9.245-12.04 18.473-14.97"/><path fill="#f8d26d" d="M680.035 525.18c12.438-.966 23.488.392 34.327 7.188 11.206 7.026 18.087 17.677 20.666 30.569a52.3 52.3 0 0 1-8.347 39.757c-8.42 11.945-20.328 17.589-34.322 20.089-9.6.709-19.607-.869-28.262-5.218-12.085-6.072-21.757-17.356-25.541-30.382-3.686-12.684-1.413-27.154 5.345-38.422 8.377-13.967 20.893-20.068 36.134-23.581"/><path fill="#fefefe" d="M686.02 541.241c6.03-.405 13.03 1.277 18.38 4.013a29.6 29.6 0 0 1 14.752 17.572 34.1 34.1 0 0 1-3.023 27.009c-5.86 10.249-14.678 14.464-25.597 17.271-8.612.092-15.35-.273-22.882-5.059a31.84 31.84 0 0 1-14.116-20.671c-1.699-8.319-.341-16.915 4.502-23.962 6.537-9.513 17.029-14.014 27.984-16.173"/><path fill="#f8d26d" d="M1333.26 1430.26c10.99-1.14 22.49 1.94 31.81 7.74a51.7 51.7 0 0 1 22.91 33.03c2.92 13.61.88 28.52-6.81 40.24-8.95 13.65-21.74 18.81-37.06 21.74-12.62.29-23.66-1.07-34.55-8.12-11.46-7.41-20-19.35-22.47-32.85-2.57-13.98.71-29.92 9.15-41.44 8.95-12.23 22.57-17.95 37.02-20.34"/><path fill="#fefefe" d="M1333.73 1445.27a38.75 38.75 0 0 1 21.86 5 35.3 35.3 0 0 1 16.77 21.96c2.55 10.12 1.06 21.51-4.36 30.47-5.89 9.75-14.75 14.32-25.46 16.91-8.17.49-16.44-.98-23.56-5.17-8.34-4.91-14-13.02-16.23-22.39a39.36 39.36 0 0 1 5.07-30.38c6.3-9.73 15.07-13.81 25.91-16.4"/><path fill="#f8d26d" d="M795.362 702.15c12.764-.894 23.837 1.205 34.672 8.35 11.507 7.588 20.098 19.385 22.764 33.008 2.766 14.132-.02 29.776-8.373 41.599-7.998 11.321-19.833 17.872-33.291 20.312-12.386 1.207-24.44-.647-35.246-7.174a51.66 51.66 0 0 1-23.723-32.762c-3.095-13.542-1.104-28.618 6.576-40.307 8.539-12.995 21.916-19.727 36.621-23.026"/><path fill="#fefefe" d="M799.46 717.294c6.426.375 12.413 1.288 18.23 4.25 9.346 4.76 16.768 13.323 19.593 23.485a34.38 34.38 0 0 1-3.856 27.4c-6.247 10.161-15.918 15.08-27.194 17.543-7.268.328-13.822-.739-20.252-4.294a37.6 37.6 0 0 1-18.133-23.729c-2.294-9.234-1.329-19.332 3.827-27.454 6.339-9.988 16.571-14.852 27.785-17.201"/><path fill="#f8d26d" d="M1032.64 1364.18a58.6 58.6 0 0 1 34.1 7.44c11.32 6.55 18.89 17.27 22.05 29.89 3.63 14.44 1.46 30.4-6.62 42.98-8.13 12.63-20.74 20.89-35.25 24.27-12.86 1.65-24.24.66-35.49-6.49-11.946-7.58-19.757-20.27-22.89-33.91-3.184-13.86-1.299-28.33 6.558-40.34 8.862-13.56 21.992-20.82 37.542-23.84"/><path fill="#fefefe" d="M1035.25 1379.28c7.06-.25 13.94.88 20.31 4.04a36.52 36.52 0 0 1 18.52 21.24 36.6 36.6 0 0 1-2.61 28.55c-5.84 10.99-15.12 16.65-26.69 20-9.33 1.57-18.82.68-26.91-4.57-7.97-5.18-13.31-13.73-15.13-23a40.68 40.68 0 0 1 6.58-30.74c6.47-9.39 14.93-13.73 25.93-15.52"/><path fill="#f8d26d" d="M1497.79 1128.31c7.39-.25 15.1.31 20.85 5.49 4.59 4.13 5.12 12.01 5.41 17.8 1.26 25.85-13.01 90.73-30.42 108.9-2.15 2.24-4.75 3.73-7.96 3.49-9.54-.71-17.63-13.9-22.64-20.98-13.06-19.7-34.59-55.91-35.94-79.15-.43-7.46 1.25-15.35 6.58-20.88 5.29-5.48 13.91-8.06 21.38-7.93 8.83.16 14.27 5.53 20.07 11.39 1.64-2.91 3.31-5.82 5.26-8.54 4.73-6.58 9.65-8.34 17.41-9.59"/><path fill="#b54344" d="M1220.45 1219.14c8.52-.56 17.7.41 24.89 5.45 11.83 8.31 9.07 19.83 11.38 31.81 3.21 1.25 15.08-4.85 22.27-3.26 8.37 1.84 15.78 6.86 20.2 14.25a27.55 27.55 0 0 1 2.74 22.37c-7.41 24.66-41.23 42.29-62.02 54.15-10.13 5.86-48.28 25.12-59.29 21.46-2.49-.84-3.32-2.76-4.1-5.12-6.98-21.21 12.66-99.83 22.15-120.22 4.96-10.66 10.71-16.93 21.78-20.89"/><path fill="#24364b" d="M1454.71 258.438a344.4 344.4 0 0 1 192.77 50.897 306.16 306.16 0 0 1 138.43 188.375c22.81 93.517 5.36 188.773-44.45 270.355-17.09 27.995-38.59 55.568-62.27 78.3-137.51 131.956-407.83 234.035-590.14 286.255-40.99 11.74-82.81 22.57-124.304 32.39-20.759 4.91-41.702 8.99-62.43 14.02 10.248 16.06 21.299 32.75 21.988 52.43.597 17.06-6.795 28.53-17.848 40.53-9.128 9.91-33.979 39.06-46.735 39.04-2.964 0-5.077-.9-7.044-3.11-.417-.47-.813-.96-1.22-1.44-3.544-.29-10.241 7.69-13.039 10.5a39407 39407 0 0 0-366.322 376.46l-110.953 114.78-33.455 34.54c-7.934 8.28-15.585 17.1-24.357 24.51a66 66 0 0 1-3.362 2.05c-14.606 8.22-29.929 3.68-44.888-.49a319 319 0 0 1-21.218 27.7c-23.897 28.19-51.701 61.39-91.26 64.31-16.857 1.24-32.267-3.53-45.031-14.78-12.907-11.36-20.084-26.8-20.934-43.94-2.778-56.05 51.766-92.52 85.577-129.44-4.964-9.57-8.021-19.19-7.056-30.16.775-8.81 4.482-15.46 10.427-21.83 12.304-13.2 26.158-25.43 39.223-37.88a6539 6539 0 0 1 74.481-70.17c47.441-43.94 94.283-88.91 141.033-133.6a16614 16614 0 0 1 241.171-228.1c24.841-22.72 48.223-47.96 74.213-69.28-3.99-2.77-9.185-6.33-10.42-11.35-.52-2.12.147-3.99 1.341-5.73 6.462-9.43 42.284-41.85 52.642-48.6 4.118-2.69 8.573-4.61 13.452-5.36 23.663-3.64 48.577 13.52 66.788 26.51 4.521-15.81 7.392-32.2 11.722-48.11a2465 2465 0 0 1 32.689-107.053 2737 2737 0 0 1 100.669-254.905c50.55-112.444 111.28-239.16 194.27-331.49 66.27-73.733 154.33-131.686 255.85-137.134"/><path fill="#fefefe" d="M793.558 1134.36c5.057-.27 10.361-.14 15.308 1.06 30.753 7.46 68.881 45.08 84.701 71.69 5.083 8.55 10.674 20.27 7.874 30.31-3.063 10.99-16.791 26.02-26.519 31.49l-1.397-1.15a136 136 0 0 0-12.161-24.07c-23.257-36.82-57.054-70.56-100.576-80.46 10.868-9.58 21.088-20.3 32.77-28.87M174.24 1797.65c2.562.92 25.637 26.8 30.225 31.11 10.02 9.41 20.721 17.74 31.893 25.71-24.205 27.11-43.392 58.08-76.698 75.26-5.809 2.61-11.841 4.51-18.191 5.2-9.557 1.04-19.05-1.1-26.394-7.53-7.473-6.54-11.283-16-11.946-25.78-3.099-45.64 44.496-73.93 71.111-103.97m590.863-608.95c11.64 1.19 23.907 11.48 32.849 18.3-26.306 29.75-58.366 58.26-87.236 85.83l-132.053 128.19-210.834 205.96-82.69 80.91c-14.725 14.57-28.794 30.51-44.427 44.07-15.686 1.54-31.577.22-47.318 1.72.691 2.65 1.495 5.26 2.573 7.79 12.679 29.75 54.698 64.9 84.333 76.42 12.135-6.99 44.068-44.18 55.873-56.65l77.465-80.81 249.792-255.99 99.077-100.69c26.028-26.58 51.696-54.16 79.416-78.98 2.123 1.75 4.091 4.91 5.822 7.11-43.003 46.18-88.325 90.67-132.869 135.39l-115.027 117.18-302.34 313.34c-4.718 4.85-11.37 12.57-18.621 12.33-18.857-.65-60.612-40.19-73.196-54.25-10.242-11.44-27.096-32.29-25.649-48.6.563-6.34 5.236-10.25 9.445-14.56 14.37-14.72 29.931-28.56 44.96-42.61l58.133-55.06 209.247-198.37 133.51-127.01c42.466-40.88 84.979-82.63 129.765-120.96m906.347-786.85 1.22.423c-.92 7.877-39.55 58.445-46.29 67.71-113.89 156.515-282.25 310.456-434.53 429.792L1031.6 1022.79c-20.83 16.13-42.126 31.35-62.198 48.46l-1.027.08c1.628-4.32 84.495-97.421 96.205-111.027l141.44-164.135c59.01-67.857 118.46-135.007 185.31-195.416a1422 1422 0 0 1 206.73-154.28c24.56-15.236 47.78-30.999 73.39-44.622"/><path fill="#fefefe" d="M1721.51 411.413c15.84 14.071 35.76 67.396 40.77 87.187a336.82 336.82 0 0 1-39.26 255.801c-20.86 34.735-50.54 67.664-81.15 94.126-47.54 41.096-101.32 73.449-156.62 102.84-150.69 80.093-314.8 136.813-479.96 178.463a3375 3375 0 0 0-41.045 9.62c36.435-17.09 73.585-32.81 109.935-50.15a3388 3388 0 0 0 175.84-90.134 2175 2175 0 0 0 159.47-92.851c52.2-32.924 103.63-67.953 149.76-109.083 24.8-22.104 48.22-47.603 68.68-73.754 51.55-65.898 89.68-147.547 96.24-231.792 2.09-26.881.59-53.564-2.66-80.273M1454.9 281.431c72.29-2.5 148.79 19.659 205.74 65.145-60.17-16.135-126.03-7.057-184.53 11.695-125.16 40.118-213.89 135.946-289.68 238.856a2159 2159 0 0 0-123.07 188.701c-29.52 49.803-60.62 99.143-87.169 150.63a5610 5610 0 0 0-76.809 143.382C927.616 972.033 968.531 866.328 1013 764.303c50.58-116.035 116.78-253.882 199.61-349.848 62.66-72.598 144.79-125.781 242.29-133.024"/><path fill="#fefefe" d="M1580.68 362.435a234 234 0 0 1 93.08 12.587c-36.12 17.018-70.12 39.269-103.66 60.823a1515.6 1515.6 0 0 0-290.35 242.405c-44.74 47.614-86.43 97.809-129.26 147.097L961.208 1043.61c-15.214 17.87-29.631 36.33-44.706 54.29 7.766-18.04 18.055-35.5 27.505-52.72a2939 2939 0 0 0 29.477-55.033 3589 3589 0 0 1 157.256-269.483c41.32-65.005 84.1-130.832 135.94-188.049 85.73-94.62 182.5-163.679 314-170.18m116.2 46.249 1.26 1.435c2.56 9.943 2.89 20.487 3.36 30.702a385 385 0 0 1-18.2 135.705c-23.23 70.265-68.31 133.774-120.78 185.345-67.41 66.257-156.98 121.56-238.66 168.816a3422 3422 0 0 1-168.59 92.243c-39.48 20.1-79.73 39.04-119.7 58.14-30.1 14.38-61.139 26.99-90.917 42.01-.584.23-1.876.24-2.517.3 5.437-9.69 71.684-56.91 85.704-67.79l189.53-147.193a3452 3452 0 0 0 126.45-104.969c137.01-121.279 252.17-241.155 353.06-394.744"/></svg>