<svg xmlns="http://www.w3.org/2000/svg" display="block" viewBox="0 0 2048 1152"><path fill="#fefefe" d="M0 0h2046.25c2.4 3.778 1.74 9.25 1.74 13.593l.01 821.535.01 226.812-.01 60.15c-.01 8.27 1.11 18.39-.28 26.42-.22 1.26-.79 2.42-1.47 3.49H0z"/><path fill="#010101" d="M1161.16 866.387c.29-.029.58-.067.87-.086 7.85-.519 20.41 8.924 25.8 13.915 8.44 7.804 14.6 18.171 14.83 29.901.17 9.422-3.71 17.943-10.33 24.548-18.33 18.283-47.36 19.615-71.58 19.651-1.34-.076-2.78-.478-4.1-.724-2.07-1.826-2.26-2.196-3.02-4.853 3.3-7.14 31.71-4.924 39.84-6.364 7.54-1.338 16.57-5.117 23.11-8.992 6.71-3.977 14.38-10.285 16.28-18.247 5.41-22.728-28.84-34.591-33.85-42.595.05-2.814.77-3.783 2.15-6.154"/><path fill="#010101" d="M1009.78 659.38c10.67-1.838 23.79-.1 34.2 2.624 36.03 9.422 57.78 33.312 75.99 64.283 7.99-2.11 17.53-1.936 25.72-.803a79.6 79.6 0 0 1 52.26 31.317c13.63 18.074 18.23 39.878 15.08 62.149-1.72 12.159-6.18 27.794-16.33 35.431a38 38 0 0 1 2.38 1.46c14.19 9.42 29.22 27.858 32.4 44.691 2.86 15.176.09 30.949-8.86 43.679-15.2 21.628-43.7 29.305-68.3 33.63a380 380 0 0 1-44.83 4.755c-27.45 1.353-55.18.094-82.67.5-24.91.367-56.908 2.744-81.317.492-4.112-.379-8.913-1.182-12.27-3.777-2.216-1.712-3.514-3.999-3.785-6.79-.294-3.03.579-6.094 2.729-8.298 2.84-2.913 7.332-3.882 11.247-4.247 11.508-1.071 23.943.797 35.618.778 22.548-.036 45.148-.492 67.688.039 27.36.645 54.72 2.367 82.08.828 24.34-1.368 61.16-4.834 78.31-24.508 7.06-8.092 9.81-18.561 8.98-29.151-1.15-14.81-10.16-27.842-21.82-36.625-4.5-3.384-9.78-6.405-13.89-10.201-1.39-1.28-2.92-3.015-2.78-4.995.51-7.259 14.17-21.584 17.47-29.937 3.2-8.089 3.68-19.566 2.96-28.085-1.54-18.247-9.76-35.065-23.96-46.792-15.12-12.486-30.92-15.479-49.88-13.825-4.07 3.101-8.23 5.168-12.99 7.011 13.68-.248 26.48-.275 39.34 5.266 15.59 6.715 26.11 18.517 32.14 34.235 1.61 4.186 3.68 9.628 1.75 13.996.53.976.93 1.934 1.2 3.017 2.66 10.857-4.17 27.793-9.76 36.87-4.23 6.881-11.97 17.545-20.22 19.578-2.97-.491-3.2-.628-5.33-2.766-.35-1.672-.82-2.652.07-4.292 1.22-2.242 4.32-4.552 6.18-6.356 7.76-7.522 13.82-16.177 16.92-26.639a47.22 47.22 0 0 0-4.07-37.034c-8.82-15.815-24.64-25.852-43.01-25.165-4.77.178-11.98 1.612-16.48.033-2.49-.871-3.59-2.26-4.74-4.483 1.22-3.083 3.02-3.565 5.4-5.612-2.09-.692-4.83.034-6.51-1.437-2.69-2.359-5.44-10.233-7.22-13.622-10.7-20.373-27.56-36.711-49.33-44.832-20.91-7.793-43.55-5.63-63.574 3.65-33.129 15.353-57.915 45.887-59.404 83.352-.393 9.865 3.053 21.316-.379 30.759-9.24 9.926-26.319-7.79-45.729 1.188-14.61 6.757-25.707 24.112-31.047 38.918a103.36 103.36 0 0 0 3.584 79.135c7.649 16.129 21.151 32.747 38.574 38.501 3.435 1.135 9.725 1.946 12.942.33 1.198-2.841 2.003-5.131 4.66-6.949 1.817-.272 2.861-.607 4.634.008 5.084 1.761 9.194 6.975 11.385 11.716 1.595 3.453 2.52 7.803.889 11.409-2.184 4.831-13.137 13.367-18.13 14.922-3.595-1.616-2.247-3.361-4.43-5.666-1.224-1.291-17.537-3.833-20.533-4.993-15.236-5.9-28.61-16.921-38.171-30.078-19.493-26.826-26.947-61.367-21.614-94.012 4.173-25.541 17.903-53.673 39.495-68.843 12.654-8.89 25.714-12.387 40.916-9.76 3.818-26.262 9.156-50.894 25.609-72.472 20.619-27.042 49.067-43.075 82.563-47.505m540.92-57.882c2.44-.244 5.04-.613 7.21.636 3.31 1.906 40.1 48.908 41.16 52.867l36 .077c1.17.478 2.37 1.005 3.45 1.68 7.3 4.601 44.98 35.17 46.01 40.239.28.465.35.553.6 1.104 1.96 4.286 1.2 78.307-.88 83.6.84.407 1.53.756 2.27 1.318 6.5 4.902 33.78 31.419 34.83 37.562.71 1.792 1.06 3.473 1.18 5.389.79 12.542.18 25.389.15 37.957l-.06 65.025-.14 55.336c0 10.022.57 20.352-.16 30.322-.24 3.19-.67 5.99-2.96 8.42-2.18 2.32-4.47 3.05-7.52 3.4-17.19 2.02-36.05.39-53.4.33l-101.69.06-110.1.15c-14.76.01-42.33 2.01-55.15-1.23-3.09-2.39-4.71-4.36-5.53-8.34-1.68-8.19-.05-24.732-.04-33.803.04-18.808 1.74-152.52-1.16-159.038-.08-.169-.17-.332-.25-.498 5.35-3.463 37.25-42.193 39.04-48.249 6.42-10.609-4.55-106.312 4.42-118.654 5.55-4.654 66.28-2.221 77.26-2.204 7.88-4.485 35.01-43.669 45.46-53.456"/><path fill="#fefefe" d="M1685.78 810.499c.45.185.57.213 1.02.529 3.65 2.528 8.17 6.936 9.28 11.234-1.22 2.326-2.56 2.575-4.81 3.674-1.61 2.819-4.32 3.922-7.12 5.209.05-.201.11-.4.16-.602.08-.336.15-.675.22-1.011 1.42-6.191 1.15-12.708 1.25-19.033m-262.82-.006c.9.578 1.4 1.257 2.08 2.072.83 7.833.97 16.333-.21 24.129-1.81-2.674-4.49-3.76-7.28-5.196-1.53-2.8-5.12-4.311-7.81-5.722 5.12-3.181 11.05-9.69 13.22-15.283m218.33-133.996c1.44.055 2.25.103 3.44.992 4.43 3.306 17.14 12.127 17.79 17.012-6.66 1.272-15.21.383-22.1.452 2.91-4.837 2.02-13.129.87-18.456m-89.73-46.999c1.26.172 2.39.454 3.43 1.225 5.21 3.835 18.35 18.194 19.26 24.192l-21.5-.072-22.94.12c5.63-3.427 19.38-19.861 21.75-25.465m-147.22 217.997c.44.015 1.29.009 1.78.131 5.6 1.403 91.44 61.596 94.17 65.199-1.94 5.885-38.17 36.381-44.37 39.672-1.45 4.166-47.36 43.107-52.85 46.159 1.1-1.806 1.72-3.415 1.86-5.518 1.77-25.802.2-52.899.25-78.788.03-15.3 2.03-53.399-.84-66.855m296.87-1.996 1.56 1.078c1.55 6.004.92 146.511-.88 151.971-1.78-3.843-44.53-41.535-50.31-45.048-1.07-4.073-40.08-37.211-45.97-40.889 8.4-3.482 48.74-34.395 59.21-41.759 11.79-8.303 25.6-15.949 36.39-25.353m-147.84 104.664c7.52-2.536 30.29-18.838 35.03-25.57.78.339 1.08.445 1.78.833 8.37 4.661 89.93 76.754 91.34 81.244-22.17.68-44.58.14-66.77.2l-190.46-.17c5.64-2.48 88.63-75.833 91.72-81.202 6.13.034 30.95 19.687 37.36 24.665"/><path fill="#fefefe" d="M1434.7 666.497c12.81-2.811 45.31-.731 59.96-.701l134.68.076c5.5 8.836-2.13 27.271 3.79 38.156 5.47 4.153 32.18 2.038 40.18 1.985.38.71.71 1.427.98 2.193 1.78 5.066-.39 128.404-2.89 133.542-3.71 5.497-39.89 30.104-47.11 33.362-.06.164-.11.337-.19.491-1.34 2.434-62.5 46.153-66.95 47.783-2.27.834-3.67 1.007-6 .025-9.01-3.802-17.78-11.618-25.77-17.302a3075 3075 0 0 0-64.77-45.592c-7.96-5.405-16.54-12.404-25.23-16.415l-.72-.325c.08-.134.17-.264.24-.401 1.48-2.738 2.54-168.556-.2-176.877"/><path fill="#010101" d="M1461.58 699.499c11.03-1.047 60.27-2.498 67.61 2.602.93 2.346.72 2.798.26 5.192-1.91 2.166-3.67 2.496-6.39 3.033-8.65 1.297-52.23 1.348-59.42-.559-2.88-.766-3.51-1.506-4.94-3.936.49-3.173.89-3.786 2.88-6.332m.93 134c28.97-1.946 58.99-.44 88.07-.464l53.89.05c7.5-.01 15.19-.737 22.66-.361 3.23.163 5.91.673 8.7 2.365 1.45 2.303 1.44 2.654 1.34 5.393-1.46 2.399-2.32 2.439-4.96 3.539-11.77.795-23.98.134-35.81.141l-71.3.019c-12.31-.001-52.94 1.576-61.53-.501-2.34-.568-2.77-1.787-3.83-3.704.16-2.956.86-4.239 2.77-6.477m19.99-66.999a10331 10331 0 0 1 130.18.183c8.72.06 27.27-1.605 34.85.365 2.83.735 3.27 1.629 4.56 4.003-.19 2.003.04 3.033-1.58 4.431-4.36 3.76-18.11 1.906-23.76 1.775l-116.24.099c-11.94.024-36.19 1.718-47.04-.122-2.64-.448-3.91-2.42-5.32-4.493 0-1.469-.33-2.226.88-3.23 4.99-4.127 17.3-3.052 23.47-3.011m-22.42-33.002c14.06-2.858 49.5-.807 65.96-.78 36.92.061 74.23-1.124 111.1-.112 3.95.108 9.19-.06 12.82 1.529 2.25.982 2.62 1.496 3.52 3.708-1.15 2.252-2.09 3.527-4.17 4.99-.59.275-1.11.395-1.76.526-10.04 2.022-44.91.193-57.27.178-40.15-.047-80.97 1.759-121.04-.03-3.57-.16-6.02-.018-9.03-2.022-1.37-2.878-.75-5.031-.13-7.987m16.42 66.002a6991 6991 0 0 1 107.63-.109c19.41-.008 39.53-1.165 58.87.067 2.5.159 5.41.573 7.61 1.864 2.01 1.178 2.06 1.347 2.67 3.599-.34.734-.62 1.331-1.22 1.9-5.29 5.016-12.67 3.872-19.31 3.598-19.55-.044-168.03 2.17-172.54-1.497-1.16-.941-.89-1.573-1.08-2.963.69-1.557 1.38-2.606 2.66-3.763 4.17-3.78 9.49-2.836 14.71-2.696m-97.91-675.002c13.07-1.813 27.39-.751 40.59-.692a4658 4658 0 0 0 65.81-.059l152.49-.06c26.09.006 54.89-1.944 80.69.829a47.6 47.6 0 0 1 22 8.352c12.17 8.43 21.55 22.254 24.16 36.892 2.43 13.615.81 30.15.81 44.034l.01 88.5.06 127.22c.03 22.904 1.6 47.126-.8 69.88-.91 8.542-3.73 15.019-8.7 22.103-8.33 11.853-20.3 19.056-34.5 21.43-12.15 2.637-28.06.865-40.65.856l-82.46-.059-142.23.11c-23.5.017-47.86 1.335-71.26-.168a50.2 50.2 0 0 1-18.6-5.055c-12.25-6.039-21.02-16.384-25.38-29.288-1.56-4.606-2.4-9.116-2.66-13.969-.98-18.208-.24-36.823-.23-55.07l-.01-100.151-.01-106.4c.01-19.609-.72-39.579.4-59.151.48-8.345 1.34-14.8 5.18-22.351 7.73-15.184 19.66-22.508 35.29-27.733"/><path fill="#fefefe" d="M1384.68 134.499c19.36-1.635 39.83-.397 59.31-.407l114.43-.032 100.8-.024c17.54-.001 36.07-1.237 53.46.571 8.46.88 18.02 3.61 24.85 8.874 8.89 6.854 14.87 18.595 16.16 29.647 2 17.165.87 35.851 1.01 53.17l.22 114.148.03 101.611c-.01 18.727 1.25 38.496-.96 57.069-.81 6.892-3.66 12.472-7.98 17.88-7.57 9.472-17.91 14.31-29.78 15.667-23.22 1.109-46.77.329-70.02.337l-128.51.036-83.93.026c-15.62.088-32.05 1.276-47.59-.087-6.8-.597-13.62-2.595-19.4-6.286-8.12-5.192-15.19-15.337-17.19-24.796-2.87-13.637-1.43-29.937-1.52-43.932l-.06-89.546.04-125.037c.01-23.393-1.13-47.509.79-70.786.62-7.441 2.39-13.244 6.49-19.599 6.95-10.742 17.28-15.797 29.35-18.504"/><path fill="#010101" d="M1386.46 222.498c11.13-1.601 23.86-.511 35.15-.496l69.27.09c74.97.03 150.04-.921 224.99-.203 1.82.018 3.15.399 4.64 1.435 1.33 3.143 1.26 7.071 1.37 10.464 1.43 46.955.11 94.353.11 141.356v47.862c-.01 9.776.68 20.134-.84 29.791-2.03 2.264-3.36 1.947-6.28 2.296-63.08 1.606-126.48.357-189.6.236l-90.05-.176c-13.22-.028-26.69.585-39.87.091-3.03-.114-6.1-.363-8.79-1.885-.95-.538-1.35-2.002-1.6-3.017-2.3-9.352-.44-72.101-.44-85.673l-.22-89.982c-.05-14.827-.78-29.923-.1-44.72.13-2.978.54-4.984 2.26-7.469"/><path fill="#fefefe" d="M1708.69 241.498c1.16.571 1.6 1.413 2.31 2.453.17 24.104 2.5 185.455-1.69 193.851-.06-.26-.12-.523-.19-.78-1.06-3.679-51.08-49.366-56.48-52.524-.03-.153-.04-.312-.1-.459-1.29-3.483-49.27-45.694-54.36-48.286 5.85-2.592 105.68-87.329 110.51-94.255m-314.86-.007c1.2-.109 1.78-.279 2.94.133 3.02 1.061 107.16 89.901 109.13 93.92-.05.23-.07.469-.16.691-1.99 5.449-45.77 43.85-53.04 48.266-.06.217-.09.443-.18.65-1.17 2.802-54.83 51.291-58.25 53 1.44-15.606 1.22-191.802-.44-196.66m194.91 102.006c1.69-.066 2.89-.424 4.35.501 12.19 7.704 30.62 27.363 41.87 37.748 20.42 18.843 42.33 36.843 61.41 57.041 1.82 1.927 3.38 3.411 4 6.076l-206.62.003c-30.58-.612-61.26.065-91.87-.126 8.59-4.352 63.32-56.609 75.26-67.441 11.3-10.251 23.25-19.878 34.34-30.337 1.29-1.217 1.89-2.067 2.49-3.739 10.41 4.298 17.67 14.835 28.51 19.265 7.74 3.166 16.01 3.021 23.63-.39 5.49-2.459 20.49-13.062 22.63-18.601"/><path fill="#fefefe" d="M1404 233.498c13.04-1.087 26.37-.636 39.46-.649l66.05.077a13413 13413 0 0 1 190.88.406c-1.7 5.323-57.5 52.986-64.75 57.17-.26.647-.3.856-.79 1.475-6.87 8.66-23.06 19.391-31.94 26.889-11.79 9.965-22.83 21.692-35.52 30.486-3.6 2.495-8.85 5.806-13.38 5.973-5.01.185-11.27-3.77-15.18-6.541-16.35-11.559-31.7-27.086-46.97-40.153-29.28-25.055-58.95-49.654-87.86-75.133"/><path fill="#010101" d="M334.961 124.28c24.341-1.241 49.074-.295 73.461-.306l134.826-.048 80.058.043c15.585-.085 32.178-1.34 47.666.272 9.898 1.03 19.31 4.225 27.446 10.033a57.44 57.44 0 0 1 22.969 37.3c2.113 13.385.623 28.672.62 42.323l.032 85.114.028 130.652c.001 22.478 1.589 46.339-.688 68.674-.995 9.758-3.138 16.735-9.074 24.775-9.103 12.328-21.365 17.498-36.065 19.602-22.957.715-46.06.182-69.04.194l-127.572.052-91.277.017c-16.183.001-32.747.734-48.889-.304-8.009-.514-17.61-1.704-24.548-5.867-12.189-7.314-20.984-17.681-24.374-31.672-4.09-16.88-1.51-40.409-1.488-58.135l.151-109.894.218-109.23c.049-18.564-.945-37.829.53-56.315.696-8.717 2.539-15.299 7.251-22.819 8.894-14.197 21.845-20.958 37.759-24.461"/><path fill="#fefefe" d="M300.864 263.487c28.993-.775 58.134-.261 87.146-.296l185.492.177c16.505-.001 130.923-1.558 136.374.52 1.652.63 1.828 2.482 2.381 4-8.741 1.04-18.209.394-27.015.371l-48.523-.131-156.115-.072-124.715-.029c-13.188-.002-40.307 1.586-51.819-.067-1.56-.224-1.919-.539-3.169-1.487zm38.75-129.079c21.356-.785 42.939-.147 64.316-.134l120.467-.019 93.849-.147c16.906-.029 34.262-.81 51.129.281 11.77.762 23.434 6.789 31.074 15.762 14.16 16.63 12.77 42.276 10.998 62.89a72 72 0 0 0-5.887-6.4c-19.334-18.828-49.834-13.796-74.52-13.528.065 7.613.651 15.82-.304 23.368-1.088 8.588-4.466 14.28-11.186 19.611-5.065 2.646-10.818 4.412-16.554 4.542-6.473.147-12.24-2.222-16.804-6.814-10.984-11.049-9.797-26.538-9.815-40.846l-141.329.058c-.097 13.526 2.188 29.017-7.939 39.716a27.4 27.4 0 0 1-19.145 8.438 27.43 27.43 0 0 1-20.039-7.866c-10.875-10.711-8.931-26.144-8.85-40.067-15.444-.152-33.483-2.042-48.604 1.021-13.513 2.737-22.203 10.659-29.535 21.85.299-20.729-4.765-47.698 8.441-65.299 7.452-9.932 18.225-14.624 30.237-16.417"/><path fill="#010101" d="M590.205 158.124c6.853-.205 13.843-.646 20.692-.289 4.046.21 8.894.881 11.594 4.214 6.753 8.338 5.809 41.714 4.106 52.673-1.357 8.73-3.92 13.196-11.051 18.359-4.98 2.058-9.62 3.616-15.078 2.888-5.78-.771-10.608-3.85-14.088-8.478-8.168-10.864-7.367-41.567-5.228-54.841 1.137-7.055 3.298-10.311 9.053-14.526"/><path fill="#fefefe" d="M592.587 168.303c6.524-.066 16.834-1.527 22.712.94 4.017 6.99 2.594 36.898 1.496 45.84-.566 4.611-1.98 6.317-5.53 9.132-1.18.509-2.384 1.005-3.634 1.319-3.624.909-7.479.679-10.634-1.494-3.785-2.607-5.617-7.286-6.463-11.628-1.201-6.167-.894-39.707 2.053-44.109"/><path fill="#010101" d="M394.744 158.199c7.583-.178 15.969-1.018 23.464.236 3.895.652 7.393 1.798 9.711 5.229 5.57 8.243 4.618 42.205 2.466 52.298-1.943 9.117-5.181 13.932-12.964 18.989-6.017 1.844-12.211 2.662-18.362.819-5.494-1.646-9.656-5.829-12.226-10.853-4.861-9.501-5.474-48.109-1.877-58.267 1.66-4.688 5.619-6.506 9.788-8.451"/><path fill="#fefefe" d="M396.381 168.073c6.747-.386 17.171-2.208 23.204 1.312 1.656 2.674 1.907 5.851 2.018 8.927.329 9.057 1.659 32.258-1.073 40.139-.764 2.204-2.326 3.935-3.878 5.626-2.172.924-4.582 2.077-6.918 2.454-3.698.597-7.648-.051-10.619-2.461-3.967-3.218-5.74-8.237-6.321-13.165-.69-5.843-.998-35.497 1.005-39.58.496-1.009 1.857-2.339 2.582-3.252m-95.559 110.391 410.584.138.351 149.049c.055 21.521 2.587 53.778-1.176 74.195-1.281 6.952-5.511 12.921-9.918 18.266-3.585 3.425-7.659 6.435-12.185 8.503-5.067 2.315-10.173 3.087-15.689 3.406-16.166.936-32.782.236-48.995.232l-92.489-.098c-63.388-.07-127.06 1.609-190.408.126-4.55-.107-9.841-.126-14.12-1.765-10.461-4.009-18.889-11.134-23.258-21.576-2.241-5.357-3.236-11.076-3.529-16.852-.894-17.64-.733-209.761.832-213.624"/><path fill="#010101" d="M524.553 442.056c13.42-1.23 34.588-1.773 47.825-.347 2.747.296 4.542.828 6.22 3.094 5.724 7.731 3.965 38.359 2.816 48.565-.541 4.81-1.736 7.136-5.503 10.139-3.406.418-6.94.292-10.369.334-11.308.137-36.473 3.167-44.648-4.806-3.081-6.107-1.856-33.752-1.848-42.108.006-6.224 1.07-10.401 5.507-14.871m.055-139.995c11.196-1.053 47.749-2.916 55.562 3.382 1.617 3.239 2.024 6.601 2.097 10.186.111 5.503-.461 11.017-.414 16.524.093 10.887 2.68 22.515-5.446 31.09-13.79-.174-27.436.11-41.216.631-4.403.166-8.977-.079-12.267-3.464-6.457-6.64-4.357-34.13-4.274-43.507.059-6.647 1.15-10.169 5.958-14.842m-170.61.019a72 72 0 0 1 2.23-.163c10.793-.641 47.304-2.353 54.217 3.783 3.431 7.848 1.635 31.868 1.792 41.616.103 6.454-.755 10.604-5.329 15.296-8.122 1.322-48.482 2.349-54.221-1.374-6.726-8.559-4.418-25.947-4.246-36.385.137-8.336-.857-16.565 5.557-22.773m170.733 69.961c14.261-1.374 32.165-1.658 46.406-.341 2.91.27 6.224.707 8.06 3.191 4.877 6.598 3.529 40.828 2.128 49.465-.696 4.291-2.174 6.243-5.63 8.71-1.353.179-2.709.328-4.074.382-7.958.313-44.414 2.117-48.533-2.044-7.215-7.286-4.477-33.025-4.159-42.791.231-7.096.399-11.519 5.802-16.572m-86.16-70.065c3.185-.308 6.408-.315 9.608-.368 11.574-.195 39.587-3.524 48.091 4.709 3.299 7.544 1.915 32.343 1.926 41.753.008 6.225-.965 10.065-5.435 14.497a64 64 0 0 1-1.731.191c-10.394 1.028-47.592 2.872-54.738-3.288-1.652-1.425-2.215-5.985-2.383-8.097-.55-6.929-.794-37.032.83-43.071.664-2.471 2.225-4.393 3.832-6.326m.326 70.065a1547 1547 0 0 1 16.777-.244c10.134-.098 33.039-2.841 40.59 4.567 2.488 5.52 2.265 37.714 1.837 45.338-.277 4.944-1.518 8.016-5.249 11.328a65 65 0 0 1-3.033.261c-11.255.595-46.691 3.088-54.065-3.613-4.306-9.552-1.425-26.066-1.846-36.652-.322-8.105-.837-14.678 4.989-20.985m-83.938 69.258c10.913.061 38.96-2.035 47.046.074 3.564.929 6.098 2.935 7.827 6.173 2.906 5.441 3.643 43.697 1.419 49.944-1.192 3.347-2.942 4.423-6.083 5.855-13.566.209-27.329.848-40.882.428-4.362-.135-10.69-.175-13.887-3.564-4.277-9.401-3.239-40.46-1.102-50.918.804-3.935 2.238-5.802 5.662-7.992m254.869-69.346c14.631-.56 29.845-.949 44.468-.436 3.137.11 7.725.01 9.948 2.57 6.477 7.462 4.505 38.225 3.567 48.46-.46 5.018-1.499 7.539-5.412 10.777-14.119.849-29.574.893-43.7.147-3.693-.194-9.36-.291-11.87-3.388-5.629-6.944-3.629-35.667-2.962-45.094.446-6.288 1.132-8.86 5.961-13.036m-254.873-.587c14.519-.148 31.298-1.863 45.544.26 3.287.489 8.435 1.682 10.252 4.78 2.954 5.034 2.263 44.483.088 50.911-1.226 3.626-2.822 4.768-6.063 6.45-15.026.136-30.833 1.23-45.775-.009-3.005-.249-5.575-.693-7.481-3.197-5.224-6.863-4.249-42.001-2.587-51.01.783-4.249 2.626-5.901 6.022-8.185m87.853 70.108c12.725-.197 40.526-2.721 51.221 1.597 2.225 2.075 2.81 4.798 3.389 7.68 1.689 8.411 2.621 43.229-1.779 49.494-1.735 2.471-4.127 2.764-6.889 3.246-13.464.179-38.567 2.884-50.342-1.631-1.768-1.453-2.467-2.805-3.083-4.996-2.497-8.887-3.426-43.961 1.144-51.632 1.527-2.564 3.619-3.082 6.339-3.758M608.726 302.1c14.698-1.559 31.51-.911 46.332-.567 3.169.074 7.191.035 9.397 2.615 6.809 7.961 4.263 37.383 3.501 47.375-.392 5.14-1.174 8.055-5.153 11.491a69 69 0 0 1-2.566.167c-10.345.395-48.791 2.442-54.932-3.312-3.528-8.08-2.744-34.737-2.323-44.496.247-5.723 1.538-9.316 5.744-13.273m4.394 139.385c9.687-.006 43.895-1.735 50.748.715 2.051.734 4.459 2.896 5.174 4.99 2.302 6.742 2.158 45.955-.824 52.288-2.238 2.551-4.124 3.261-7.235 4.236-8.513-.011-48.563 2.001-54.062-1.893-1.746-1.237-2.426-3.68-2.875-5.672-2.04-9.038-2.356-44.433 2.398-51.348 1.714-2.493 3.891-2.812 6.676-3.316"/><path fill="#fefefe" d="m613.928 451.986 45.444-.015-.17 41.72-45.165.057z"/><path fill="#010101" d="m867.388 123.416 223.572.016 72.05-.138c13.68-.007 28.07-.9 41.61.913 10.19 1.366 19.29 5.051 26.79 12.179 13.18 12.534 16.76 26.635 17.12 44.179.45 22.397-.48 44.923-.58 67.334l.07 134.487.22 76.176c.03 13.055 1.24 27.415-.67 40.286-1.62 10.958-7.06 21.263-14.79 29.126-10.25 10.43-23.48 15.949-38.03 16.153l-226.476-.098-68.36.17c-13.411.036-27.474.979-40.759-.84a51.1 51.1 0 0 1-26.497-11.882c-11.315-9.598-16.534-22.626-17.772-37.206-1.491-17.568-.246-36.123-.283-53.798l-.045-116.257-.105-103.226c.016-15.991-1.332-33.63.656-49.462 1.291-10.285 6.36-20.668 13.062-28.502 10.376-12.129 23.549-18.273 39.217-19.61"/><path fill="#fefefe" d="M863.794 134.248c21.446-1.528 43.765-.414 65.299-.493l132.737-.142 87.78.02c16.78-.081 34.54-1.326 51.23.333 7.92.787 15.14 3.759 21.47 8.565 9.89 7.501 13.66 16.884 15.14 28.939 1.98 16.207.54 34.19.49 50.567l-.19 97.107.04 114.099c.01 19.553 1.36 40.328-.6 59.733-.92 9.126-3.33 16.835-9.09 24.096-7.4 9.343-17.28 14.439-28.99 15.845-22.69.939-45.61.278-68.32.273l-129.62-.142-87.569.275c-15.545.06-31.598.919-47.09-.192-7.229-.519-14.748-2.141-21.142-5.669-8.638-4.765-16.334-15.008-18.79-24.542-3.471-13.477-1.485-34.168-1.493-48.483l-.055-81.088-.109-126.945c-.018-22.594-1.13-45.827.361-68.358.52-7.869 1.69-13.905 5.716-20.816 7.415-12.724 18.907-19.412 32.795-22.982"/><path fill="#010101" d="m980.133 221.493 147.077.243c17.06.069 45.06-1.984 60.6.62 3.83.641 8.28 1.743 10.64 5.063-.34.553-.77 1.362-1.29 1.788-2.83 2.323-8.94 3.082-12.49 3.383-10.94.925-22.43.113-33.43.051l-63.74-.335-156.216.115c-16.681-.141-33.863 1.085-50.471-.037-3.226-.218-7.746-.703-10.345-2.81-1.737-1.407-1.577-2.206-1.839-4.295l1.283-1.545c9.677-4.057 92.657-2.151 110.221-2.241m-92.688 34.7c29.948-.595 286.935-1.424 291.845 1.424 1.67 3.025 1.72 6.92 1.81 10.311 1.19 45.942-.03 92.289.07 138.272l.12 57.727c.02 11.232.57 22.791-.5 33.968-1.68 2.628-2.86 2.515-5.75 3.348-12.08.931-24.84.145-36.99.15l-73.34-.012c-57.12-.124-114.401 1.135-171.489.198-2.408-.04-4.131-.206-6.298-1.342-1.529-1.923-1.876-2.569-2.203-5.009-1.556-11.6-.536-24.627-.561-36.363l-.083-74.002-.148-79.648c-.027-13.695-.922-28.011.339-41.61.284-3.062 1.309-5.014 3.178-7.412"/><path fill="#fefefe" d="m895.064 267.082 274.076.025c.16.255.33.502.48.765.36.651.57 1.356.69 2.09 1.24 8.002 1.64 213.639-.13 218.579-.32.912-2.08 1.433-2.96 1.868-30.31 1.298-61.26.143-91.65.165l-180.571.236z"/><path fill="#010101" d="M924.787 448.931a30.5 30.5 0 0 1 5.461.36 14.13 14.13 0 0 1 9.426 6.071c1.821 2.742 2.391 5.896 1.773 9.109-1.02 5.301-4.296 7.743-8.491 10.521-2.4.188-4.858.399-7.234-.091a13.2 13.2 0 0 1-8.385-5.811c-1.827-2.914-2.452-6.201-1.612-9.563 1.337-5.358 4.577-7.855 9.062-10.596m-.84-55.983c1.539-.154 3.084-.252 4.631-.157a14.47 14.47 0 0 1 10.304 5.154c2.344 2.842 3.058 6.5 2.437 10.092-.923 5.34-4.352 7.913-8.376 10.988-1.677.174-3.365.317-5.048.153-3.786-.371-7.477-2.187-9.817-5.247-2.272-2.972-3.056-6.5-2.352-10.168 1.003-5.223 4.045-7.903 8.221-10.815m.04-105.013c1.979-.22 4.128-.522 6.107-.213 3.545.554 7.06 3.01 8.971 6.017 2.056 3.235 2.462 7.178 1.518 10.852-1.347 5.241-4.515 7.477-8.922 9.995-1.717.122-3.393.128-5.091-.209-3.697-.734-7.21-3.059-9.23-6.262-1.822-2.888-2.346-6.377-1.654-9.698 1.098-5.268 4.044-7.657 8.301-10.482m-.859 55.193a29 29 0 0 1 5.057-.428c3.82-.008 7.448 1.825 10.05 4.572a12.48 12.48 0 0 1 3.399 9.797c-.455 5.283-3.436 8.19-7.29 11.387-2.381.487-4.727.959-7.167.685-3.693-.415-7.088-2.194-9.296-5.223-2.018-2.77-2.738-6.234-2.263-9.599.762-5.408 3.381-8.014 7.51-11.191m30.38 111.962c14.666-1.086 30.008-.365 44.738-.385l83.804-.054c14.79-.002 57.73-1.825 68.07.638 2.38.567 2.7 1.353 3.92 3.289-.3 3.289-.71 3.959-2.6 6.707-13.34.456-26.92-.171-40.29-.185l-90.11-.01c-14.62.024-53.368 2.153-65.445.021-2.385-.421-3.097-1.453-4.296-3.33-.171-2.895.646-4.309 2.209-6.691m1.523-105.834 125.169.087c20.11.011 40.63-1.12 60.68-.33 3.43.135 8.07.121 11.15 1.863 1.74.986 1.66 1.482 2.15 3.4-1 3.275-1.23 3.447-3.99 5.495-20.61.203-190.899 1.326-195.495-.609-2.661-1.12-3.038-2.012-3.968-4.514 1.104-2.944 1.922-3.502 4.304-5.392m-1.599-52.068c22.3-.913 194.338-1.125 198.408.674 1.82.803 1.96 1.807 2.67 3.512-.29 2.69-.65 4.057-2.51 6.06-15.04.895-30.53.234-45.61.254l-85.69.074c-15 .007-53.936 1.735-65.389-.471-2.527-.486-2.945-1.327-4.238-3.331-.046-2.966.679-4.367 2.359-6.772m-.057 103.693c21.899-.33 191.825-1.634 198.025.635 1.82.667 1.97 1.483 2.76 3.044-.16 2.967-.95 4.47-2.67 6.867-28.6 2.051-59.09.329-87.91.293-34.53-.044-69.521 1.31-103.983-.078-3.679-.148-5.413-.29-7.92-3.022-.648-3.018.493-5.067 1.698-7.739m-623.06 201.364c21.005-1.285 42.591-.262 63.661-.251l122.015.065 99.413-.024c16.933-.007 34.598-1.098 51.433.302 8.325.692 17.986 2.853 25.021 7.567 11.899 7.973 20.936 21.318 23.778 35.313 2.911 14.327 1.132 32.032 1.148 46.716l.014 92.585-.008 126.555c.024 22.249 1.473 45.418-.466 67.515-.844 9.624-2.596 16.734-8.171 24.882-9.202 13.45-22.258 20.44-37.924 23.45-25.187 1.56-50.95.77-76.194.69l-123.017-.43-89.932.1c-15.508.06-31.716 1.35-47.121-.15-8.992-.87-18.381-3.6-25.952-8.65-11.513-7.69-19.727-21.639-22.306-35.088-2.77-14.448-.933-31.894-.939-46.696l.121-99.886-.008-121.202c-.04-22.291-1.548-45.763.724-67.922.941-9.183 4.16-16.884 9.451-24.445 8.847-12.643 20.394-18.49 35.259-20.996"/><path fill="#fefefe" d="m336.39 612.477 229.027-.005a5612 5612 0 0 0 63.653-.23c12.058-.083 24.576-.895 36.557.236 8.051.76 15.512 3.168 22.215 7.749 9.899 6.765 15.517 16.317 17.531 28.059 3.118 18.175 1.036 39.64 1.012 58.157l-.172 113.748-.019 100.815c.036 17.814 1.197 36.548-.355 54.271-.748 8.546-2.401 16.296-7.49 23.361-7.961 11.052-19.422 16.222-32.499 18.282l-235.148.04a4532 4532 0 0 0-60.071.17c-11.547.07-23.713.91-35.19-.41-8.63-.99-17.133-3.82-24.031-9.23-9.643-7.552-14.59-18.559-15.816-30.509-1.869-18.217-.492-37.652-.489-56.004l.053-108.84.035-106.265c.008-17.629-1.314-36.47.53-53.949.981-9.293 4.138-18.135 10.218-25.328 8.001-9.464 18.384-13.196 30.449-14.118"/><path fill="#010101" d="M382.238 908.362c18.404-.423 170.99-1.967 176.226.687 1.988 1.007 2.128 2.083 2.872 4.021-.613 3.055-.859 3.481-3.003 5.748l-126.269.133c-10.163.039-40.354 1.851-48.98-.23-2.29-.552-2.758-1.927-3.722-3.801.142-3.038.88-4.299 2.876-6.558m-1.177-133.215c16.516-1.015 33.475-.317 50.032-.311l92.186.079 67.283.081c10.165.013 21.236-.841 31.322.15 2.874.283 3.212.839 5.035 2.92-.257 3.422-1.285 4.504-3.147 7.326-12.923 2.38-34.828.488-48.757.429l-105.42-.16-61.471-.041c-7.335-.007-16.598 1.144-23.644-.095-2.736-.481-3.207-1.154-4.708-3.263-.222-2.775.257-4.547 1.289-7.115m-44.492-70.136c23.23-1.14 47.046-.057 70.349-.068l149.051.038 70.909-.157c10.567-.052 23.964-1.631 34.185.373 2.65.52 3.396 1.812 4.878 3.849.377 2.989-.156 4.446-1.612 7.05l-225.952-.183H371.3c-10.216-.005-21.834 1.071-31.892-.276-2.562-.343-3.368-1.31-4.865-3.2-.105-3.414.508-4.48 2.026-7.426"/><path fill="#010101" d="M353.294 736.091c19.24-1.015 285.755-1.475 289.94 1.116 4.318 9.215 2.046 26.443 1.945 36.698l-10.987 6.087.148-33.018c-91.039-1.123-182.178-.26-273.23-.295l-.077 97.071-.041 102.416c45.811 1.089 91.912-.003 137.752-.025 17.865-.008 37.474-1.857 55.074.298 3.7.453 6.551 1.027 8.877 4.044-.857 3.052-2.086 3.829-4.394 5.842-4.695 1.245-192.489 2.026-204.225.159-1.767-1.58-2.818-2.349-3.292-4.821-1.129-5.886-.187-13.373-.182-19.45l.012-47.36-.192-94.369c-.004-15.356-.819-31.253.189-46.564.202-3.064.932-5.276 2.683-7.829"/><path fill="#010101" d="M679.031 756.598c2.067.586 3.872 2.432 5.029 4.194 2.194 3.343 10.268 14.471 9.267 18.101-1.745 6.325-40.875 28.403-48.733 33.246.186 2.336.403 4.769.217 7.106-.208 2.627-1.622 6.364-3.801 8.014-1.266.96-2.089.554-3.584.431-2.966-1.997-3.781-4.394-5.096-7.581-39.578 21.565-78.417 49.604-116.317 74.246-3.821-6.537-8.543-12.522-13.053-18.592a2982 2982 0 0 0-75.87-.446c-12.387.048-25.335 1.034-37.657-.012-3.615-.307-7.098-.944-10.253-2.809-.969-.573-.86-1.533-1.123-2.579.103-.149.19-.31.309-.446 2.498-2.873 7.708-3.901 11.31-4.32 12.353-1.439 26.294-.039 38.823-.03l85.573-.042c13.436-4.537 40.592-25.807 53.487-34.621l-131.05-.242c-10.915.003-39.667 1.765-49.018.113-3.574-.632-7.363-1.867-9.479-4.978l.775-2.23-.838 1.942 1.218-2.274c2.383-1.501 4.614-2.403 7.426-2.666 6.538-.61 13.555.068 20.15.08l40.977-.075 136.226-.187c11.045-6.633 21.443-14.302 32.149-21.46z"/></svg>