<svg version="1.1" xmlns="http://www.w3.org/2000/svg" style="display: block;" viewBox="0 0 2048 1152" width="1820" height="1024">
<path transform="translate(0,0)" fill="rgb(254,254,254)" d="M 0 0 L 2046.25 0 C 2048.65 3.7775 2047.99 9.25049 2047.99 13.5932 L 2048 835.128 L 2048.01 1061.94 L 2048 1122.09 C 2047.99 1130.36 2049.11 1140.48 2047.72 1148.51 C 2047.5 1149.77 2046.93 1150.93 2046.25 1152 L 0 1152 L 0 0 z"/>
<path transform="translate(0,0)" fill="rgb(1,1,1)" d="M 1161.16 866.387 C 1161.45 866.358 1161.74 866.32 1162.03 866.301 C 1169.88 865.782 1182.44 875.225 1187.83 880.216 C 1196.27 888.02 1202.43 898.387 1202.66 910.117 C 1202.83 919.539 1198.95 928.06 1192.33 934.665 C 1174 952.948 1144.97 954.28 1120.75 954.316 C 1119.41 954.24 1117.97 953.838 1116.65 953.592 C 1114.58 951.766 1114.39 951.396 1113.63 948.739 C 1116.93 941.599 1145.34 943.815 1153.47 942.375 C 1161.01 941.037 1170.04 937.258 1176.58 933.383 C 1183.29 929.406 1190.96 923.098 1192.86 915.136 C 1198.27 892.408 1164.02 880.545 1159.01 872.541 C 1159.06 869.727 1159.78 868.758 1161.16 866.387 z"/>
<path transform="translate(0,0)" fill="rgb(1,1,1)" d="M 1009.78 659.38 C 1020.45 657.542 1033.57 659.28 1043.98 662.004 C 1080.01 671.426 1101.76 695.316 1119.97 726.287 C 1127.96 724.177 1137.5 724.351 1145.69 725.484 A 79.5936 79.5936 0 0 1 1197.95 756.801 C 1211.58 774.875 1216.18 796.679 1213.03 818.95 C 1211.31 831.109 1206.85 846.744 1196.7 854.381 A 38.4438 38.4438 0 0 1 1199.08 855.841 C 1213.27 865.261 1228.3 883.699 1231.48 900.532 C 1234.34 915.708 1231.57 931.481 1222.62 944.211 C 1207.42 965.839 1178.92 973.516 1154.32 977.841 A 379.492 379.492 0 0 1 1109.49 982.596 C 1082.04 983.949 1054.31 982.69 1026.82 983.096 C 1001.91 983.463 969.912 985.84 945.503 983.588 C 941.391 983.209 936.59 982.406 933.233 979.811 C 931.017 978.099 929.719 975.812 929.448 973.021 C 929.154 969.991 930.027 966.927 932.177 964.723 C 935.017 961.81 939.509 960.841 943.424 960.476 C 954.932 959.405 967.367 961.273 979.042 961.254 C 1001.59 961.218 1024.19 960.762 1046.73 961.293 C 1074.09 961.938 1101.45 963.66 1128.81 962.121 C 1153.15 960.753 1189.97 957.287 1207.12 937.613 C 1214.18 929.521 1216.93 919.052 1216.1 908.462 C 1214.95 893.652 1205.94 880.62 1194.28 871.837 C 1189.78 868.453 1184.5 865.432 1180.39 861.636 C 1179 860.356 1177.47 858.621 1177.61 856.641 C 1178.12 849.382 1191.78 835.057 1195.08 826.704 C 1198.28 818.615 1198.76 807.138 1198.04 798.619 C 1196.5 780.372 1188.28 763.554 1174.08 751.827 C 1158.96 739.341 1143.16 736.348 1124.2 738.002 C 1120.13 741.103 1115.97 743.17 1111.21 745.013 C 1124.89 744.765 1137.69 744.738 1150.55 750.279 C 1166.14 756.994 1176.66 768.796 1182.69 784.514 C 1184.3 788.7 1186.37 794.142 1184.44 798.51 C 1184.97 799.486 1185.37 800.444 1185.64 801.527 C 1188.3 812.384 1181.47 829.32 1175.88 838.397 C 1171.65 845.278 1163.91 855.942 1155.66 857.975 C 1152.69 857.484 1152.46 857.347 1150.33 855.209 C 1149.98 853.537 1149.51 852.557 1150.4 850.917 C 1151.62 848.675 1154.72 846.365 1156.58 844.561 C 1164.34 837.039 1170.4 828.384 1173.5 817.922 A 47.2179 47.2179 0 0 0 1169.43 780.888 C 1160.61 765.073 1144.79 755.036 1126.42 755.723 C 1121.65 755.901 1114.44 757.335 1109.94 755.756 C 1107.45 754.885 1106.35 753.496 1105.2 751.273 C 1106.42 748.19 1108.22 747.708 1110.6 745.661 C 1108.51 744.969 1105.77 745.695 1104.09 744.224 C 1101.4 741.865 1098.65 733.991 1096.87 730.602 C 1086.17 710.229 1069.31 693.891 1047.54 685.77 C 1026.63 677.977 1003.99 680.14 983.966 689.42 C 950.837 704.773 926.051 735.307 924.562 772.772 C 924.169 782.637 927.615 794.088 924.183 803.531 C 914.943 813.457 897.864 795.741 878.454 804.719 C 863.844 811.476 852.747 828.831 847.407 843.637 A 103.363 103.363 0 0 0 850.991 922.772 C 858.64 938.901 872.142 955.519 889.565 961.273 C 893 962.408 899.29 963.219 902.507 961.603 C 903.705 958.762 904.51 956.472 907.167 954.654 C 908.984 954.382 910.028 954.047 911.801 954.662 C 916.885 956.423 920.995 961.637 923.186 966.378 C 924.781 969.831 925.706 974.181 924.075 977.787 C 921.891 982.618 910.938 991.154 905.945 992.709 C 902.35 991.093 903.698 989.348 901.515 987.043 C 900.291 985.752 883.978 983.21 880.982 982.05 C 865.746 976.15 852.372 965.129 842.811 951.972 C 823.318 925.146 815.864 890.605 821.197 857.96 C 825.37 832.419 839.1 804.287 860.692 789.117 C 873.346 780.227 886.406 776.73 901.608 779.357 C 905.426 753.095 910.764 728.463 927.217 706.885 C 947.836 679.843 976.284 663.81 1009.78 659.38 z"/>
<path transform="translate(0,0)" fill="rgb(1,1,1)" d="M 1550.7 601.498 C 1553.14 601.254 1555.74 600.885 1557.91 602.134 C 1561.22 604.04 1598.01 651.042 1599.07 655.001 L 1635.07 655.078 C 1636.24 655.556 1637.44 656.083 1638.52 656.758 C 1645.82 661.359 1683.5 691.928 1684.53 696.997 C 1684.81 697.462 1684.88 697.55 1685.13 698.101 C 1687.09 702.387 1686.33 776.408 1684.25 781.701 C 1685.09 782.108 1685.78 782.457 1686.52 783.019 C 1693.02 787.921 1720.3 814.438 1721.35 820.581 C 1722.06 822.373 1722.41 824.054 1722.53 825.97 C 1723.32 838.512 1722.71 851.359 1722.68 863.927 L 1722.62 928.952 L 1722.48 984.288 C 1722.48 994.31 1723.05 1004.64 1722.32 1014.61 C 1722.08 1017.8 1721.65 1020.6 1719.36 1023.03 C 1717.18 1025.35 1714.89 1026.08 1711.84 1026.43 C 1694.65 1028.45 1675.79 1026.82 1658.44 1026.76 L 1556.75 1026.82 L 1446.65 1026.97 C 1431.89 1026.98 1404.32 1028.98 1391.5 1025.74 C 1388.41 1023.35 1386.79 1021.38 1385.97 1017.4 C 1384.29 1009.21 1385.92 992.668 1385.93 983.597 C 1385.97 964.789 1387.67 831.077 1384.77 824.559 C 1384.69 824.39 1384.6 824.227 1384.52 824.061 C 1389.87 820.598 1421.77 781.868 1423.56 775.812 C 1429.98 765.203 1419.01 669.5 1427.98 657.158 C 1433.53 652.504 1494.26 654.937 1505.24 654.954 C 1513.12 650.469 1540.25 611.285 1550.7 601.498 z"/>
<path transform="translate(0,0)" fill="rgb(254,254,254)" d="M 1685.78 810.499 C 1686.23 810.684 1686.35 810.712 1686.8 811.028 C 1690.45 813.556 1694.97 817.964 1696.08 822.262 C 1694.86 824.588 1693.52 824.837 1691.27 825.936 C 1689.66 828.755 1686.95 829.858 1684.15 831.145 C 1684.2 830.944 1684.26 830.745 1684.31 830.543 C 1684.39 830.207 1684.46 829.868 1684.53 829.532 C 1685.95 823.341 1685.68 816.824 1685.78 810.499 z"/>
<path transform="translate(0,0)" fill="rgb(254,254,254)" d="M 1422.96 810.493 C 1423.86 811.071 1424.36 811.75 1425.04 812.565 C 1425.87 820.398 1426.01 828.898 1424.83 836.694 C 1423.02 834.02 1420.34 832.934 1417.55 831.498 C 1416.02 828.698 1412.43 827.187 1409.74 825.776 C 1414.86 822.595 1420.79 816.086 1422.96 810.493 z"/>
<path transform="translate(0,0)" fill="rgb(254,254,254)" d="M 1641.29 676.497 C 1642.73 676.552 1643.54 676.6 1644.73 677.489 C 1649.16 680.795 1661.87 689.616 1662.52 694.501 C 1655.86 695.773 1647.31 694.884 1640.42 694.953 C 1643.33 690.116 1642.44 681.824 1641.29 676.497 z"/>
<path transform="translate(0,0)" fill="rgb(254,254,254)" d="M 1551.56 629.498 C 1552.82 629.67 1553.95 629.952 1554.99 630.723 C 1560.2 634.558 1573.34 648.917 1574.25 654.915 L 1552.75 654.843 L 1529.81 654.963 C 1535.44 651.536 1549.19 635.102 1551.56 629.498 z"/>
<path transform="translate(0,0)" fill="rgb(254,254,254)" d="M 1404.34 847.495 C 1404.78 847.51 1405.63 847.504 1406.12 847.626 C 1411.72 849.029 1497.56 909.222 1500.29 912.825 C 1498.35 918.71 1462.12 949.206 1455.92 952.497 C 1454.47 956.663 1408.56 995.604 1403.07 998.656 C 1404.17 996.85 1404.79 995.241 1404.93 993.138 C 1406.7 967.336 1405.13 940.239 1405.18 914.35 C 1405.21 899.05 1407.21 860.951 1404.34 847.495 z"/>
<path transform="translate(0,0)" fill="rgb(254,254,254)" d="M 1701.21 845.499 L 1702.77 846.577 C 1704.32 852.581 1703.69 993.088 1701.89 998.548 C 1700.11 994.705 1657.36 957.013 1651.58 953.5 C 1650.51 949.427 1611.5 916.289 1605.61 912.611 C 1614.01 909.129 1654.35 878.216 1664.82 870.852 C 1676.61 862.549 1690.42 854.903 1701.21 845.499 z"/>
<path transform="translate(0,0)" fill="rgb(254,254,254)" d="M 1553.37 950.163 C 1560.89 947.627 1583.66 931.325 1588.4 924.593 C 1589.18 924.932 1589.48 925.038 1590.18 925.426 C 1598.55 930.087 1680.11 1002.18 1681.52 1006.67 C 1659.35 1007.35 1636.94 1006.81 1614.75 1006.87 L 1424.29 1006.7 C 1429.93 1004.22 1512.92 930.867 1516.01 925.498 C 1522.14 925.532 1546.96 945.185 1553.37 950.163 z"/>
<path transform="translate(0,0)" fill="rgb(254,254,254)" d="M 1434.7 666.497 C 1447.51 663.686 1480.01 665.766 1494.66 665.796 L 1629.34 665.872 C 1634.84 674.708 1627.21 693.143 1633.13 704.028 C 1638.6 708.181 1665.31 706.066 1673.31 706.013 C 1673.69 706.723 1674.02 707.44 1674.29 708.206 C 1676.07 713.272 1673.9 836.61 1671.4 841.748 C 1667.69 847.245 1631.51 871.852 1624.29 875.11 C 1624.23 875.274 1624.18 875.447 1624.1 875.601 C 1622.76 878.035 1561.6 921.754 1557.15 923.384 C 1554.88 924.218 1553.48 924.391 1551.15 923.409 C 1542.14 919.607 1533.37 911.791 1525.38 906.107 A 3075.29 3075.29 0 0 0 1460.61 860.515 C 1452.65 855.11 1444.07 848.111 1435.38 844.1 L 1434.66 843.775 C 1434.74 843.641 1434.83 843.511 1434.9 843.374 C 1436.38 840.636 1437.44 674.818 1434.7 666.497 z"/>
<path transform="translate(0,0)" fill="rgb(1,1,1)" d="M 1461.58 699.499 C 1472.61 698.452 1521.85 697.001 1529.19 702.101 C 1530.12 704.447 1529.91 704.899 1529.45 707.293 C 1527.54 709.459 1525.78 709.789 1523.06 710.326 C 1514.41 711.623 1470.83 711.674 1463.64 709.767 C 1460.76 709.001 1460.13 708.261 1458.7 705.831 C 1459.19 702.658 1459.59 702.045 1461.58 699.499 z"/>
<path transform="translate(0,0)" fill="rgb(1,1,1)" d="M 1462.51 833.499 C 1491.48 831.553 1521.5 833.059 1550.58 833.035 L 1604.47 833.085 C 1611.97 833.075 1619.66 832.348 1627.13 832.724 C 1630.36 832.887 1633.04 833.397 1635.83 835.089 C 1637.28 837.392 1637.27 837.743 1637.17 840.482 C 1635.71 842.881 1634.85 842.921 1632.21 844.021 C 1620.44 844.816 1608.23 844.155 1596.4 844.162 L 1525.1 844.181 C 1512.79 844.18 1472.16 845.757 1463.57 843.68 C 1461.23 843.112 1460.8 841.893 1459.74 839.976 C 1459.9 837.02 1460.6 835.737 1462.51 833.499 z"/>
<path transform="translate(0,0)" fill="rgb(1,1,1)" d="M 1482.5 766.5 A 10330.5 10330.5 0 0 1 1612.68 766.683 C 1621.4 766.743 1639.95 765.078 1647.53 767.048 C 1650.36 767.783 1650.8 768.677 1652.09 771.051 C 1651.9 773.054 1652.13 774.084 1650.51 775.482 C 1646.15 779.242 1632.4 777.388 1626.75 777.257 L 1510.51 777.356 C 1498.57 777.38 1474.32 779.074 1463.47 777.234 C 1460.83 776.786 1459.56 774.814 1458.15 772.741 C 1458.15 771.272 1457.82 770.515 1459.03 769.511 C 1464.02 765.384 1476.33 766.459 1482.5 766.5 z"/>
<path transform="translate(0,0)" fill="rgb(1,1,1)" d="M 1460.08 733.498 C 1474.14 730.64 1509.58 732.691 1526.04 732.718 C 1562.96 732.779 1600.27 731.594 1637.14 732.606 C 1641.09 732.714 1646.33 732.546 1649.96 734.135 C 1652.21 735.117 1652.58 735.631 1653.48 737.843 C 1652.33 740.095 1651.39 741.37 1649.31 742.833 C 1648.72 743.108 1648.2 743.228 1647.55 743.359 C 1637.51 745.381 1602.64 743.552 1590.28 743.537 C 1550.13 743.49 1509.31 745.296 1469.24 743.507 C 1465.67 743.347 1463.22 743.489 1460.21 741.485 C 1458.84 738.607 1459.46 736.454 1460.08 733.498 z"/>
<path transform="translate(0,0)" fill="rgb(1,1,1)" d="M 1476.5 799.5 A 6991.13 6991.13 0 0 1 1584.13 799.391 C 1603.54 799.383 1623.66 798.226 1643 799.458 C 1645.5 799.617 1648.41 800.031 1650.61 801.322 C 1652.62 802.5 1652.67 802.669 1653.28 804.921 C 1652.94 805.655 1652.66 806.252 1652.06 806.821 C 1646.77 811.837 1639.39 810.693 1632.75 810.419 C 1613.2 810.375 1464.72 812.589 1460.21 808.922 C 1459.05 807.981 1459.32 807.349 1459.13 805.959 C 1459.82 804.402 1460.51 803.353 1461.79 802.196 C 1465.96 798.416 1471.28 799.36 1476.5 799.5 z"/>
<path transform="translate(0,0)" fill="rgb(1,1,1)" d="M 1378.59 124.498 C 1391.66 122.685 1405.98 123.747 1419.18 123.806 A 4657.94 4657.94 0 0 0 1484.99 123.747 L 1637.48 123.687 C 1663.57 123.693 1692.37 121.743 1718.17 124.516 A 47.5789 47.5789 0 0 1 1740.17 132.868 C 1752.34 141.298 1761.72 155.122 1764.33 169.76 C 1766.76 183.375 1765.14 199.91 1765.14 213.794 L 1765.15 302.294 L 1765.21 429.514 C 1765.24 452.418 1766.81 476.64 1764.41 499.394 C 1763.5 507.936 1760.68 514.413 1755.71 521.497 C 1747.38 533.35 1735.41 540.553 1721.21 542.927 C 1709.06 545.564 1693.15 543.792 1680.56 543.783 L 1598.1 543.724 L 1455.87 543.834 C 1432.37 543.851 1408.01 545.169 1384.61 543.666 A 50.2407 50.2407 0 0 1 1366.01 538.611 C 1353.76 532.572 1344.99 522.227 1340.63 509.323 C 1339.07 504.717 1338.23 500.207 1337.97 495.354 C 1336.99 477.146 1337.73 458.531 1337.74 440.284 L 1337.73 340.133 L 1337.72 233.733 C 1337.73 214.124 1337 194.154 1338.12 174.582 C 1338.6 166.237 1339.46 159.782 1343.3 152.231 C 1351.03 137.047 1362.96 129.723 1378.59 124.498 z"/>
<path transform="translate(0,0)" fill="rgb(254,254,254)" d="M 1384.68 134.499 C 1404.04 132.864 1424.51 134.102 1443.99 134.092 L 1558.42 134.06 L 1659.22 134.036 C 1676.76 134.035 1695.29 132.799 1712.68 134.607 C 1721.14 135.487 1730.7 138.217 1737.53 143.481 C 1746.42 150.335 1752.4 162.076 1753.69 173.128 C 1755.69 190.293 1754.56 208.979 1754.7 226.298 L 1754.92 340.446 L 1754.95 442.057 C 1754.94 460.784 1756.2 480.553 1753.99 499.126 C 1753.18 506.018 1750.33 511.598 1746.01 517.006 C 1738.44 526.478 1728.1 531.316 1716.23 532.673 C 1693.01 533.782 1669.46 533.002 1646.21 533.01 L 1517.7 533.046 L 1433.77 533.072 C 1418.15 533.16 1401.72 534.348 1386.18 532.985 C 1379.38 532.388 1372.56 530.39 1366.78 526.699 C 1358.66 521.507 1351.59 511.362 1349.59 501.903 C 1346.72 488.266 1348.16 471.966 1348.07 457.971 L 1348.01 368.425 L 1348.05 243.388 C 1348.06 219.995 1346.92 195.879 1348.84 172.602 C 1349.46 165.161 1351.23 159.358 1355.33 153.003 C 1362.28 142.261 1372.61 137.206 1384.68 134.499 z"/>
<path transform="translate(0,0)" fill="rgb(1,1,1)" d="M 1386.46 222.498 C 1397.59 220.897 1410.32 221.987 1421.61 222.002 L 1490.88 222.092 C 1565.85 222.122 1640.92 221.171 1715.87 221.889 C 1717.69 221.907 1719.02 222.288 1720.51 223.324 C 1721.84 226.467 1721.77 230.395 1721.88 233.788 C 1723.31 280.743 1721.99 328.141 1721.99 375.144 L 1721.99 423.006 C 1721.98 432.782 1722.67 443.14 1721.15 452.797 C 1719.12 455.061 1717.79 454.744 1714.87 455.093 C 1651.79 456.699 1588.39 455.45 1525.27 455.329 L 1435.22 455.153 C 1422 455.125 1408.53 455.738 1395.35 455.244 C 1392.32 455.13 1389.25 454.881 1386.56 453.359 C 1385.61 452.821 1385.21 451.357 1384.96 450.342 C 1382.66 440.99 1384.52 378.241 1384.52 364.669 L 1384.3 274.687 C 1384.25 259.86 1383.52 244.764 1384.2 229.967 C 1384.33 226.989 1384.74 224.983 1386.46 222.498 z"/>
<path transform="translate(0,0)" fill="rgb(254,254,254)" d="M 1708.69 241.498 C 1709.85 242.069 1710.29 242.911 1711 243.951 C 1711.17 268.055 1713.5 429.406 1709.31 437.802 C 1709.25 437.542 1709.19 437.279 1709.12 437.022 C 1708.06 433.343 1658.04 387.656 1652.64 384.498 C 1652.61 384.345 1652.6 384.186 1652.54 384.039 C 1651.25 380.556 1603.27 338.345 1598.18 335.753 C 1604.03 333.161 1703.86 248.424 1708.69 241.498 z"/>
<path transform="translate(0,0)" fill="rgb(254,254,254)" d="M 1393.83 241.491 C 1395.03 241.382 1395.61 241.212 1396.77 241.624 C 1399.79 242.685 1503.93 331.525 1505.9 335.544 C 1505.85 335.774 1505.83 336.013 1505.74 336.235 C 1503.75 341.684 1459.97 380.085 1452.7 384.501 C 1452.64 384.718 1452.61 384.944 1452.52 385.151 C 1451.35 387.953 1397.69 436.442 1394.27 438.151 C 1395.71 422.545 1395.49 246.349 1393.83 241.491 z"/>
<path transform="translate(0,0)" fill="rgb(254,254,254)" d="M 1588.74 343.497 C 1590.43 343.431 1591.63 343.073 1593.09 343.998 C 1605.28 351.702 1623.71 371.361 1634.96 381.746 C 1655.38 400.589 1677.29 418.589 1696.37 438.787 C 1698.19 440.714 1699.75 442.198 1700.37 444.863 L 1493.75 444.866 C 1463.17 444.254 1432.49 444.931 1401.88 444.74 C 1410.47 440.388 1465.2 388.131 1477.14 377.299 C 1488.44 367.048 1500.39 357.421 1511.48 346.962 C 1512.77 345.745 1513.37 344.895 1513.97 343.223 C 1524.38 347.521 1531.64 358.058 1542.48 362.488 C 1550.22 365.654 1558.49 365.509 1566.11 362.098 C 1571.6 359.639 1586.6 349.036 1588.74 343.497 z"/>
<path transform="translate(0,0)" fill="rgb(254,254,254)" d="M 1404 233.498 C 1417.04 232.411 1430.37 232.862 1443.46 232.849 L 1509.51 232.926 A 13412.7 13412.7 0 0 1 1700.39 233.332 C 1698.69 238.655 1642.89 286.318 1635.64 290.502 C 1635.38 291.149 1635.34 291.358 1634.85 291.977 C 1627.98 300.637 1611.79 311.368 1602.91 318.866 C 1591.12 328.831 1580.08 340.558 1567.39 349.352 C 1563.79 351.847 1558.54 355.158 1554.01 355.325 C 1549 355.51 1542.74 351.555 1538.83 348.784 C 1522.48 337.225 1507.13 321.698 1491.86 308.631 C 1462.58 283.576 1432.91 258.977 1404 233.498 z"/>
<path transform="translate(0,0)" fill="rgb(1,1,1)" d="M 334.961 124.28 C 359.302 123.039 384.035 123.985 408.422 123.974 L 543.248 123.926 L 623.306 123.969 C 638.891 123.884 655.484 122.629 670.972 124.241 C 680.87 125.271 690.282 128.466 698.418 134.274 A 57.4381 57.4381 0 0 1 721.387 171.574 C 723.5 184.959 722.01 200.246 722.007 213.897 L 722.039 299.011 L 722.067 429.663 C 722.068 452.141 723.656 476.002 721.379 498.337 C 720.384 508.095 718.241 515.072 712.305 523.112 C 703.202 535.44 690.94 540.61 676.24 542.714 C 653.283 543.429 630.18 542.896 607.2 542.908 L 479.628 542.96 L 388.351 542.977 C 372.168 542.978 355.604 543.711 339.462 542.673 C 331.453 542.159 321.852 540.969 314.914 536.806 C 302.725 529.492 293.93 519.125 290.54 505.134 C 286.45 488.254 289.03 464.725 289.052 446.999 L 289.203 337.105 L 289.421 227.875 C 289.47 209.311 288.476 190.046 289.951 171.56 C 290.647 162.843 292.49 156.261 297.202 148.741 C 306.096 134.544 319.047 127.783 334.961 124.28 z"/>
<path transform="translate(0,0)" fill="rgb(254,254,254)" d="M 300.864 263.487 C 329.857 262.712 358.998 263.226 388.01 263.191 L 573.502 263.368 C 590.007 263.367 704.425 261.81 709.876 263.888 C 711.528 264.518 711.704 266.37 712.257 267.888 C 703.516 268.928 694.048 268.282 685.242 268.259 L 636.719 268.128 L 480.604 268.056 L 355.889 268.027 C 342.701 268.025 315.582 269.613 304.07 267.96 C 302.51 267.736 302.151 267.421 300.901 266.473 L 300.864 263.487 z"/>
<path transform="translate(0,0)" fill="rgb(254,254,254)" d="M 339.614 134.408 C 360.97 133.623 382.553 134.261 403.93 134.274 L 524.397 134.255 L 618.246 134.108 C 635.152 134.079 652.508 133.298 669.375 134.389 C 681.145 135.151 692.809 141.178 700.449 150.151 C 714.609 166.781 713.219 192.427 711.447 213.041 A 72.0135 72.0135 0 0 0 705.56 206.641 C 686.226 187.813 655.726 192.845 631.04 193.113 C 631.105 200.726 631.691 208.933 630.736 216.481 C 629.648 225.069 626.27 230.761 619.55 236.092 C 614.485 238.738 608.732 240.504 602.996 240.634 C 596.523 240.781 590.756 238.412 586.192 233.82 C 575.208 222.771 576.395 207.282 576.377 192.974 L 435.048 193.032 C 434.951 206.558 437.236 222.049 427.109 232.748 A 27.4117 27.4117 0 0 1 407.964 241.186 A 27.4284 27.4284 0 0 1 387.925 233.32 C 377.05 222.609 378.994 207.176 379.075 193.253 C 363.631 193.101 345.592 191.211 330.471 194.274 C 316.958 197.011 308.268 204.933 300.936 216.124 C 301.235 195.395 296.171 168.426 309.377 150.825 C 316.829 140.893 327.602 136.201 339.614 134.408 z"/>
<path transform="translate(0,0)" fill="rgb(1,1,1)" d="M 590.205 158.124 C 597.058 157.919 604.048 157.478 610.897 157.835 C 614.943 158.045 619.791 158.716 622.491 162.049 C 629.244 170.387 628.3 203.763 626.597 214.722 C 625.24 223.452 622.677 227.918 615.546 233.081 C 610.566 235.139 605.926 236.697 600.468 235.969 C 594.688 235.198 589.86 232.119 586.38 227.491 C 578.212 216.627 579.013 185.924 581.152 172.65 C 582.289 165.595 584.45 162.339 590.205 158.124 z"/>
<path transform="translate(0,0)" fill="rgb(254,254,254)" d="M 592.587 168.303 C 599.111 168.237 609.421 166.776 615.299 169.243 C 619.316 176.233 617.893 206.141 616.795 215.083 C 616.229 219.694 614.815 221.4 611.265 224.215 C 610.085 224.724 608.881 225.22 607.631 225.534 C 604.007 226.443 600.152 226.213 596.997 224.04 C 593.212 221.433 591.38 216.754 590.534 212.412 C 589.333 206.245 589.64 172.705 592.587 168.303 z"/>
<path transform="translate(0,0)" fill="rgb(1,1,1)" d="M 394.744 158.199 C 402.327 158.021 410.713 157.181 418.208 158.435 C 422.103 159.087 425.601 160.233 427.919 163.664 C 433.489 171.907 432.537 205.869 430.385 215.962 C 428.442 225.079 425.204 229.894 417.421 234.951 C 411.404 236.795 405.21 237.613 399.059 235.77 C 393.565 234.124 389.403 229.941 386.833 224.917 C 381.972 215.416 381.359 176.808 384.956 166.65 C 386.616 161.962 390.575 160.144 394.744 158.199 z"/>
<path transform="translate(0,0)" fill="rgb(254,254,254)" d="M 396.381 168.073 C 403.128 167.687 413.552 165.865 419.585 169.385 C 421.241 172.059 421.492 175.236 421.603 178.312 C 421.932 187.369 423.262 210.57 420.53 218.451 C 419.766 220.655 418.204 222.386 416.652 224.077 C 414.48 225.001 412.07 226.154 409.734 226.531 C 406.036 227.128 402.086 226.48 399.115 224.07 C 395.148 220.852 393.375 215.833 392.794 210.905 C 392.104 205.062 391.796 175.408 393.799 171.325 C 394.295 170.316 395.656 168.986 396.381 168.073 z"/>
<path transform="translate(0,0)" fill="rgb(254,254,254)" d="M 300.822 278.464 L 711.406 278.602 L 711.757 427.651 C 711.812 449.172 714.344 481.429 710.581 501.846 C 709.3 508.798 705.07 514.767 700.663 520.112 C 697.078 523.537 693.004 526.547 688.478 528.615 C 683.411 530.93 678.305 531.702 672.789 532.021 C 656.623 532.957 640.007 532.257 623.794 532.253 L 531.305 532.155 C 467.917 532.085 404.245 533.764 340.897 532.281 C 336.347 532.174 331.056 532.155 326.777 530.516 C 316.316 526.507 307.888 519.382 303.519 508.94 C 301.278 503.583 300.283 497.864 299.99 492.088 C 299.096 474.448 299.257 282.327 300.822 278.464 z"/>
<path transform="translate(0,0)" fill="rgb(1,1,1)" d="M 524.553 442.056 C 537.973 440.826 559.141 440.283 572.378 441.709 C 575.125 442.005 576.92 442.537 578.598 444.803 C 584.322 452.534 582.563 483.162 581.414 493.368 C 580.873 498.178 579.678 500.504 575.911 503.507 C 572.505 503.925 568.971 503.799 565.542 503.841 C 554.234 503.978 529.069 507.008 520.894 499.035 C 517.813 492.928 519.038 465.283 519.046 456.927 C 519.052 450.703 520.116 446.526 524.553 442.056 z"/>
<path transform="translate(0,0)" fill="rgb(1,1,1)" d="M 524.608 302.061 C 535.804 301.008 572.357 299.145 580.17 305.443 C 581.787 308.682 582.194 312.044 582.267 315.629 C 582.378 321.132 581.806 326.646 581.853 332.153 C 581.946 343.04 584.533 354.668 576.407 363.243 C 562.617 363.069 548.971 363.353 535.191 363.874 C 530.788 364.04 526.214 363.795 522.924 360.41 C 516.467 353.77 518.567 326.28 518.65 316.903 C 518.709 310.256 519.8 306.734 524.608 302.061 z"/>
<path transform="translate(0,0)" fill="rgb(1,1,1)" d="M 353.998 302.08 A 71.6216 71.6216 0 0 1 356.228 301.917 C 367.021 301.276 403.532 299.564 410.445 305.7 C 413.876 313.548 412.08 337.568 412.237 347.316 C 412.34 353.77 411.482 357.92 406.908 362.612 C 398.786 363.934 358.426 364.961 352.687 361.238 C 345.961 352.679 348.269 335.291 348.441 324.853 C 348.578 316.517 347.584 308.288 353.998 302.08 z"/>
<path transform="translate(0,0)" fill="rgb(1,1,1)" d="M 524.731 372.041 C 538.992 370.667 556.896 370.383 571.137 371.7 C 574.047 371.97 577.361 372.407 579.197 374.891 C 584.074 381.489 582.726 415.719 581.325 424.356 C 580.629 428.647 579.151 430.599 575.695 433.066 C 574.342 433.245 572.986 433.394 571.621 433.448 C 563.663 433.761 527.207 435.565 523.088 431.404 C 515.873 424.118 518.611 398.379 518.929 388.613 C 519.16 381.517 519.328 377.094 524.731 372.041 z"/>
<path transform="translate(0,0)" fill="rgb(1,1,1)" d="M 438.571 301.976 C 441.756 301.668 444.979 301.661 448.179 301.608 C 459.753 301.413 487.766 298.084 496.27 306.317 C 499.569 313.861 498.185 338.66 498.196 348.07 C 498.204 354.295 497.231 358.135 492.761 362.567 A 64.0957 64.0957 0 0 1 491.03 362.758 C 480.636 363.786 443.438 365.63 436.292 359.47 C 434.64 358.045 434.077 353.485 433.909 351.373 C 433.359 344.444 433.115 314.341 434.739 308.302 C 435.403 305.831 436.964 303.909 438.571 301.976 z"/>
<path transform="translate(0,0)" fill="rgb(1,1,1)" d="M 438.897 372.041 A 1546.57 1546.57 0 0 1 455.674 371.797 C 465.808 371.699 488.713 368.956 496.264 376.364 C 498.752 381.884 498.529 414.078 498.101 421.702 C 497.824 426.646 496.583 429.718 492.852 433.03 A 65.0641 65.0641 0 0 1 489.819 433.291 C 478.564 433.886 443.128 436.379 435.754 429.678 C 431.448 420.126 434.329 403.612 433.908 393.026 C 433.586 384.921 433.071 378.348 438.897 372.041 z"/>
<path transform="translate(0,0)" fill="rgb(1,1,1)" d="M 354.959 441.299 C 365.872 441.36 393.919 439.264 402.005 441.373 C 405.569 442.302 408.103 444.308 409.832 447.546 C 412.738 452.987 413.475 491.243 411.251 497.49 C 410.059 500.837 408.309 501.913 405.168 503.345 C 391.602 503.554 377.839 504.193 364.286 503.773 C 359.924 503.638 353.596 503.598 350.399 500.209 C 346.122 490.808 347.16 459.749 349.297 449.291 C 350.101 445.356 351.535 443.489 354.959 441.299 z"/>
<path transform="translate(0,0)" fill="rgb(1,1,1)" d="M 609.828 371.953 C 624.459 371.393 639.673 371.004 654.296 371.517 C 657.433 371.627 662.021 371.527 664.244 374.087 C 670.721 381.549 668.749 412.312 667.811 422.547 C 667.351 427.565 666.312 430.086 662.399 433.324 C 648.28 434.173 632.825 434.217 618.699 433.471 C 615.006 433.277 609.339 433.18 606.829 430.083 C 601.2 423.139 603.2 394.416 603.867 384.989 C 604.313 378.701 604.999 376.129 609.828 371.953 z"/>
<path transform="translate(0,0)" fill="rgb(1,1,1)" d="M 354.955 371.366 C 369.474 371.218 386.253 369.503 400.499 371.626 C 403.786 372.115 408.934 373.308 410.751 376.406 C 413.705 381.44 413.014 420.889 410.839 427.317 C 409.613 430.943 408.017 432.085 404.776 433.767 C 389.75 433.903 373.943 434.997 359.001 433.758 C 355.996 433.509 353.426 433.065 351.52 430.561 C 346.296 423.698 347.271 388.56 348.933 379.551 C 349.716 375.302 351.559 373.65 354.955 371.366 z"/>
<path transform="translate(0,0)" fill="rgb(1,1,1)" d="M 442.808 441.474 C 455.533 441.277 483.334 438.753 494.029 443.071 C 496.254 445.146 496.839 447.869 497.418 450.751 C 499.107 459.162 500.039 493.98 495.639 500.245 C 493.904 502.716 491.512 503.009 488.75 503.491 C 475.286 503.67 450.183 506.375 438.408 501.86 C 436.64 500.407 435.941 499.055 435.325 496.864 C 432.828 487.977 431.899 452.903 436.469 445.232 C 437.996 442.668 440.088 442.15 442.808 441.474 z"/>
<path transform="translate(0,0)" fill="rgb(1,1,1)" d="M 608.726 302.1 C 623.424 300.541 640.236 301.189 655.058 301.533 C 658.227 301.607 662.249 301.568 664.455 304.148 C 671.264 312.109 668.718 341.531 667.956 351.523 C 667.564 356.663 666.782 359.578 662.803 363.014 A 68.5916 68.5916 0 0 1 660.237 363.181 C 649.892 363.576 611.446 365.623 605.305 359.869 C 601.777 351.789 602.561 325.132 602.982 315.373 C 603.229 309.65 604.52 306.057 608.726 302.1 z"/>
<path transform="translate(0,0)" fill="rgb(1,1,1)" d="M 613.12 441.485 C 622.807 441.479 657.015 439.75 663.868 442.2 C 665.919 442.934 668.327 445.096 669.042 447.19 C 671.344 453.932 671.2 493.145 668.218 499.478 C 665.98 502.029 664.094 502.739 660.983 503.714 C 652.47 503.703 612.42 505.715 606.921 501.821 C 605.175 500.584 604.495 498.141 604.046 496.149 C 602.006 487.111 601.69 451.716 606.444 444.801 C 608.158 442.308 610.335 441.989 613.12 441.485 z"/>
<path transform="translate(0,0)" fill="rgb(254,254,254)" d="M 613.928 451.986 L 659.372 451.971 L 659.202 493.691 L 614.037 493.748 L 613.928 451.986 z"/>
<path transform="translate(0,0)" fill="rgb(1,1,1)" d="M 867.388 123.416 L 1090.96 123.432 L 1163.01 123.294 C 1176.69 123.287 1191.08 122.394 1204.62 124.207 C 1214.81 125.573 1223.91 129.258 1231.41 136.386 C 1244.59 148.92 1248.17 163.021 1248.53 180.565 C 1248.98 202.962 1248.05 225.488 1247.95 247.899 L 1248.02 382.386 L 1248.24 458.562 C 1248.27 471.617 1249.48 485.977 1247.57 498.848 C 1245.95 509.806 1240.51 520.111 1232.78 527.974 C 1222.53 538.404 1209.3 543.923 1194.75 544.127 L 968.274 544.029 L 899.914 544.199 C 886.503 544.235 872.44 545.178 859.155 543.359 A 51.0927 51.0927 0 0 1 832.658 531.477 C 821.343 521.879 816.124 508.851 814.886 494.271 C 813.395 476.703 814.64 458.148 814.603 440.473 L 814.558 324.216 L 814.453 220.99 C 814.469 204.999 813.121 187.36 815.109 171.528 C 816.4 161.243 821.469 150.86 828.171 143.026 C 838.547 130.897 851.72 124.753 867.388 123.416 z"/>
<path transform="translate(0,0)" fill="rgb(254,254,254)" d="M 863.794 134.248 C 885.24 132.72 907.559 133.834 929.093 133.755 L 1061.83 133.613 L 1149.61 133.633 C 1166.39 133.552 1184.15 132.307 1200.84 133.966 C 1208.76 134.753 1215.98 137.725 1222.31 142.531 C 1232.2 150.032 1235.97 159.415 1237.45 171.47 C 1239.43 187.677 1237.99 205.66 1237.94 222.037 L 1237.75 319.144 L 1237.79 433.243 C 1237.8 452.796 1239.15 473.571 1237.19 492.976 C 1236.27 502.102 1233.86 509.811 1228.1 517.072 C 1220.7 526.415 1210.82 531.511 1199.11 532.917 C 1176.42 533.856 1153.5 533.195 1130.79 533.19 L 1001.17 533.048 L 913.601 533.323 C 898.056 533.383 882.003 534.242 866.511 533.131 C 859.282 532.612 851.763 530.99 845.369 527.462 C 836.731 522.697 829.035 512.454 826.579 502.92 C 823.108 489.443 825.094 468.752 825.086 454.437 L 825.031 373.349 L 824.922 246.404 C 824.904 223.81 823.792 200.577 825.283 178.046 C 825.803 170.177 826.973 164.141 830.999 157.23 C 838.414 144.506 849.906 137.818 863.794 134.248 z"/>
<path transform="translate(0,0)" fill="rgb(1,1,1)" d="M 980.133 221.493 L 1127.21 221.736 C 1144.27 221.805 1172.27 219.752 1187.81 222.356 C 1191.64 222.997 1196.09 224.099 1198.45 227.419 C 1198.11 227.972 1197.68 228.781 1197.16 229.207 C 1194.33 231.53 1188.22 232.289 1184.67 232.59 C 1173.73 233.515 1162.24 232.703 1151.24 232.641 L 1087.5 232.306 L 931.284 232.421 C 914.603 232.28 897.421 233.506 880.813 232.384 C 877.587 232.166 873.067 231.681 870.468 229.574 C 868.731 228.167 868.891 227.368 868.629 225.279 L 869.912 223.734 C 879.589 219.677 962.569 221.583 980.133 221.493 z"/>
<path transform="translate(0,0)" fill="rgb(1,1,1)" d="M 887.445 256.193 C 917.393 255.598 1174.38 254.769 1179.29 257.617 C 1180.96 260.642 1181.01 264.537 1181.1 267.928 C 1182.29 313.87 1181.07 360.217 1181.17 406.2 L 1181.29 463.927 C 1181.31 475.159 1181.86 486.718 1180.79 497.895 C 1179.11 500.523 1177.93 500.41 1175.04 501.243 C 1162.96 502.174 1150.2 501.388 1138.05 501.393 L 1064.71 501.381 C 1007.59 501.257 950.309 502.516 893.221 501.579 C 890.813 501.539 889.09 501.373 886.923 500.237 C 885.394 498.314 885.047 497.668 884.72 495.228 C 883.164 483.628 884.184 470.601 884.159 458.865 L 884.076 384.863 L 883.928 305.215 C 883.901 291.52 883.006 277.204 884.267 263.605 C 884.551 260.543 885.576 258.591 887.445 256.193 z"/>
<path transform="translate(0,0)" fill="rgb(254,254,254)" d="M 895.064 267.082 L 1169.14 267.107 C 1169.3 267.362 1169.47 267.609 1169.62 267.872 C 1169.98 268.523 1170.19 269.228 1170.31 269.962 C 1171.55 277.964 1171.95 483.601 1170.18 488.541 C 1169.86 489.453 1168.1 489.974 1167.22 490.409 C 1136.91 491.707 1105.96 490.552 1075.57 490.574 L 894.999 490.81 L 895.064 267.082 z"/>
<path transform="translate(0,0)" fill="rgb(1,1,1)" d="M 924.787 448.931 C 926.631 448.894 928.424 449 930.248 449.291 A 14.1291 14.1291 0 0 1 939.674 455.362 C 941.495 458.104 942.065 461.258 941.447 464.471 C 940.427 469.772 937.151 472.214 932.956 474.992 C 930.556 475.18 928.098 475.391 925.722 474.901 A 13.2018 13.2018 0 0 1 917.337 469.09 C 915.51 466.176 914.885 462.889 915.725 459.527 C 917.062 454.169 920.302 451.672 924.787 448.931 z"/>
<path transform="translate(0,0)" fill="rgb(1,1,1)" d="M 923.947 392.948 C 925.486 392.794 927.031 392.696 928.578 392.791 A 14.4722 14.4722 0 0 1 938.882 397.945 C 941.226 400.787 941.94 404.445 941.319 408.037 C 940.396 413.377 936.967 415.95 932.943 419.025 C 931.266 419.199 929.578 419.342 927.895 419.178 C 924.109 418.807 920.418 416.991 918.078 413.931 C 915.806 410.959 915.022 407.431 915.726 403.763 C 916.729 398.54 919.771 395.86 923.947 392.948 z"/>
<path transform="translate(0,0)" fill="rgb(1,1,1)" d="M 923.987 287.935 C 925.966 287.715 928.115 287.413 930.094 287.722 C 933.639 288.276 937.154 290.732 939.065 293.739 C 941.121 296.974 941.527 300.917 940.583 304.591 C 939.236 309.832 936.068 312.068 931.661 314.586 C 929.944 314.708 928.268 314.714 926.57 314.377 C 922.873 313.643 919.36 311.318 917.34 308.115 C 915.518 305.227 914.994 301.738 915.686 298.417 C 916.784 293.149 919.73 290.76 923.987 287.935 z"/>
<path transform="translate(0,0)" fill="rgb(1,1,1)" d="M 923.128 343.128 A 29.0204 29.0204 0 0 1 928.185 342.7 C 932.005 342.692 935.633 344.525 938.235 347.272 A 12.4752 12.4752 0 0 1 941.634 357.069 C 941.179 362.352 938.198 365.259 934.344 368.456 C 931.963 368.943 929.617 369.415 927.177 369.141 C 923.484 368.726 920.089 366.947 917.881 363.918 C 915.863 361.148 915.143 357.684 915.618 354.319 C 916.38 348.911 918.999 346.305 923.128 343.128 z"/>
<path transform="translate(0,0)" fill="rgb(1,1,1)" d="M 953.508 455.09 C 968.174 454.004 983.516 454.725 998.246 454.705 L 1082.05 454.651 C 1096.84 454.649 1139.78 452.826 1150.12 455.289 C 1152.5 455.856 1152.82 456.642 1154.04 458.578 C 1153.74 461.867 1153.33 462.537 1151.44 465.285 C 1138.1 465.741 1124.52 465.114 1111.15 465.1 L 1021.04 465.09 C 1006.42 465.114 967.672 467.243 955.595 465.111 C 953.21 464.69 952.498 463.658 951.299 461.781 C 951.128 458.886 951.945 457.472 953.508 455.09 z"/>
<path transform="translate(0,0)" fill="rgb(1,1,1)" d="M 955.031 349.256 L 1080.2 349.343 C 1100.31 349.354 1120.83 348.223 1140.88 349.013 C 1144.31 349.148 1148.95 349.134 1152.03 350.876 C 1153.77 351.862 1153.69 352.358 1154.18 354.276 C 1153.18 357.551 1152.95 357.723 1150.19 359.771 C 1129.58 359.974 959.291 361.097 954.695 359.162 C 952.034 358.042 951.657 357.15 950.727 354.648 C 951.831 351.704 952.649 351.146 955.031 349.256 z"/>
<path transform="translate(0,0)" fill="rgb(1,1,1)" d="M 953.432 297.188 C 975.732 296.275 1147.77 296.063 1151.84 297.862 C 1153.66 298.665 1153.8 299.669 1154.51 301.374 C 1154.22 304.064 1153.86 305.431 1152 307.434 C 1136.96 308.329 1121.47 307.668 1106.39 307.688 L 1020.7 307.762 C 1005.7 307.769 966.764 309.497 955.311 307.291 C 952.784 306.805 952.366 305.964 951.073 303.96 C 951.027 300.994 951.752 299.593 953.432 297.188 z"/>
<path transform="translate(0,0)" fill="rgb(1,1,1)" d="M 953.375 400.881 C 975.274 400.551 1145.2 399.247 1151.4 401.516 C 1153.22 402.183 1153.37 402.999 1154.16 404.56 C 1154 407.527 1153.21 409.03 1151.49 411.427 C 1122.89 413.478 1092.4 411.756 1063.58 411.72 C 1029.05 411.676 994.059 413.03 959.597 411.642 C 955.918 411.494 954.184 411.352 951.677 408.62 C 951.029 405.602 952.17 403.553 953.375 400.881 z"/>
<path transform="translate(0,0)" fill="rgb(1,1,1)" d="M 330.315 602.245 C 351.32 600.96 372.906 601.983 393.976 601.994 L 515.991 602.059 L 615.404 602.035 C 632.337 602.028 650.002 600.937 666.837 602.337 C 675.162 603.029 684.823 605.19 691.858 609.904 C 703.757 617.877 712.794 631.222 715.636 645.217 C 718.547 659.544 716.768 677.249 716.784 691.933 L 716.798 784.518 L 716.79 911.073 C 716.814 933.322 718.263 956.491 716.324 978.588 C 715.48 988.212 713.728 995.322 708.153 1003.47 C 698.951 1016.92 685.895 1023.91 670.229 1026.92 C 645.042 1028.48 619.279 1027.69 594.035 1027.61 L 471.018 1027.18 L 381.086 1027.28 C 365.578 1027.34 349.37 1028.63 333.965 1027.13 C 324.973 1026.26 315.584 1023.53 308.013 1018.48 C 296.5 1010.79 288.286 996.841 285.707 983.392 C 282.937 968.944 284.774 951.498 284.768 936.696 L 284.889 836.81 L 284.881 715.608 C 284.841 693.317 283.333 669.845 285.605 647.686 C 286.546 638.503 289.765 630.802 295.056 623.241 C 303.903 610.598 315.45 604.751 330.315 602.245 z"/>
<path transform="translate(0,0)" fill="rgb(254,254,254)" d="M 336.39 612.477 L 565.417 612.472 A 5611.64 5611.64 0 0 0 629.07 612.242 C 641.128 612.159 653.646 611.347 665.627 612.478 C 673.678 613.238 681.139 615.646 687.842 620.227 C 697.741 626.992 703.359 636.544 705.373 648.286 C 708.491 666.461 706.409 687.926 706.385 706.443 L 706.213 820.191 L 706.194 921.006 C 706.23 938.82 707.391 957.554 705.839 975.277 C 705.091 983.823 703.438 991.573 698.349 998.638 C 690.388 1009.69 678.927 1014.86 665.85 1016.92 L 430.702 1016.96 A 4532.4 4532.4 0 0 0 370.631 1017.13 C 359.084 1017.2 346.918 1018.04 335.441 1016.72 C 326.811 1015.73 318.308 1012.9 311.41 1007.49 C 301.767 999.938 296.82 988.931 295.594 976.981 C 293.725 958.764 295.102 939.329 295.105 920.977 L 295.158 812.137 L 295.193 705.872 C 295.201 688.243 293.879 669.402 295.723 651.923 C 296.704 642.63 299.861 633.788 305.941 626.595 C 313.942 617.131 324.325 613.399 336.39 612.477 z"/>
<path transform="translate(0,0)" fill="rgb(1,1,1)" d="M 382.238 908.362 C 400.642 907.939 553.228 906.395 558.464 909.049 C 560.452 910.056 560.592 911.132 561.336 913.07 C 560.723 916.125 560.477 916.551 558.333 918.818 L 432.064 918.951 C 421.901 918.99 391.71 920.802 383.084 918.721 C 380.794 918.169 380.326 916.794 379.362 914.92 C 379.504 911.882 380.242 910.621 382.238 908.362 z"/>
<path transform="translate(0,0)" fill="rgb(1,1,1)" d="M 381.061 775.147 C 397.577 774.132 414.536 774.83 431.093 774.836 L 523.279 774.915 L 590.562 774.996 C 600.727 775.009 611.798 774.155 621.884 775.146 C 624.758 775.429 625.096 775.985 626.919 778.066 C 626.662 781.488 625.634 782.57 623.772 785.392 C 610.849 787.772 588.944 785.88 575.015 785.821 L 469.595 785.661 L 408.124 785.62 C 400.789 785.613 391.526 786.764 384.48 785.525 C 381.744 785.044 381.273 784.371 379.772 782.262 C 379.55 779.487 380.029 777.715 381.061 775.147 z"/>
<path transform="translate(0,0)" fill="rgb(1,1,1)" d="M 336.569 705.011 C 359.799 703.871 383.615 704.954 406.918 704.943 L 555.969 704.981 L 626.878 704.824 C 637.445 704.772 650.842 703.193 661.063 705.197 C 663.713 705.717 664.459 707.009 665.941 709.046 C 666.318 712.035 665.785 713.492 664.329 716.096 L 438.377 715.913 L 371.3 715.913 C 361.084 715.908 349.466 716.984 339.408 715.637 C 336.846 715.294 336.04 714.327 334.543 712.437 C 334.438 709.023 335.051 707.957 336.569 705.011 z"/>
<path transform="translate(0,0)" fill="rgb(1,1,1)" d="M 353.294 736.091 C 372.534 735.076 639.049 734.616 643.234 737.207 C 647.552 746.422 645.28 763.65 645.179 773.905 L 634.192 779.992 L 634.34 746.974 C 543.301 745.851 452.162 746.714 361.11 746.679 L 361.033 843.75 L 360.992 946.166 C 406.803 947.255 452.904 946.163 498.744 946.141 C 516.609 946.133 536.218 944.284 553.818 946.439 C 557.518 946.892 560.369 947.466 562.695 950.483 C 561.838 953.535 560.609 954.312 558.301 956.325 C 553.606 957.57 365.812 958.351 354.076 956.484 C 352.309 954.904 351.258 954.135 350.784 951.663 C 349.655 945.777 350.597 938.29 350.602 932.213 L 350.614 884.853 L 350.422 790.484 C 350.418 775.128 349.603 759.231 350.611 743.92 C 350.813 740.856 351.543 738.644 353.294 736.091 z"/>
<path transform="translate(0,0)" fill="rgb(1,1,1)" d="M 679.031 756.598 C 681.098 757.184 682.903 759.03 684.06 760.792 C 686.254 764.135 694.328 775.263 693.327 778.893 C 691.582 785.218 652.452 807.296 644.594 812.139 C 644.78 814.475 644.997 816.908 644.811 819.245 C 644.603 821.872 643.189 825.609 641.01 827.259 C 639.744 828.219 638.921 827.813 637.426 827.69 C 634.46 825.693 633.645 823.296 632.33 820.109 C 592.752 841.674 553.913 869.713 516.013 894.355 C 512.192 887.818 507.47 881.833 502.96 875.763 A 2982.19 2982.19 0 0 0 427.09 875.317 C 414.703 875.365 401.755 876.351 389.433 875.305 C 385.818 874.998 382.335 874.361 379.18 872.496 C 378.211 871.923 378.32 870.963 378.057 869.917 C 378.16 869.768 378.247 869.607 378.366 869.471 C 380.864 866.598 386.074 865.57 389.676 865.151 C 402.029 863.712 415.97 865.112 428.499 865.121 L 514.072 865.079 C 527.508 860.542 554.664 839.272 567.559 830.458 L 436.509 830.216 C 425.594 830.219 396.842 831.981 387.491 830.329 C 383.917 829.697 380.128 828.462 378.012 825.351 L 378.787 823.121 L 377.949 825.063 L 379.167 822.789 C 381.55 821.288 383.781 820.386 386.593 820.123 C 393.131 819.513 400.148 820.191 406.743 820.203 L 447.72 820.128 L 583.946 819.941 C 594.991 813.308 605.389 805.639 616.095 798.481 L 679.031 756.598 z"/>
</svg>