<svg preserveAspectRatio="xMidYMid meet" version="1.1" xmlns="http://www.w3.org/2000/svg" style="display: block;" viewBox="0 0 2048 2048" width="1024" height="1024">
<path transform="translate(0,0)" fill="rgb(41,6,42)" d="M 0 0 L 2048 0 L 2048 2048 L 1807.24 2048 L 1140.03 2048 L 1131.52 2048 L 920.454 2048 L 840.782 2048 L 543.619 2048 L 533.731 2048 L 523.989 2048 L 514.419 2048 L 504.928 2048 L 470.316 2048 L 193.726 2048 L 0 2048 L 0 0 z"/>
<path transform="translate(0,0)" fill="rgb(94,73,91)" d="M 1540 708.283 C 1542.27 708.013 1543.89 707.878 1546.11 708.442 C 1542.36 711.457 1507.71 731.064 1504.55 731.701 L 1502.66 730.388 A 1045.53 1045.53 0 0 0 1491.12 717.648 C 1507.51 715.209 1523.76 711.577 1540 708.283 z"/>
<path transform="translate(0,0)" fill="rgb(94,73,91)" d="M 1203.18 1034.22 C 1204.82 1034.27 1206.88 1034.43 1208.4 1035.15 C 1212.59 1037.16 1215.3 1041.69 1216.86 1045.9 C 1223.04 1062.53 1220.78 1086.21 1215.04 1102.72 C 1213.1 1108.31 1210.12 1113.66 1207.66 1119.06 L 1206.38 1119.33 C 1209.52 1094.77 1196.65 1061.46 1185.88 1039.62 C 1191.62 1037.38 1197.2 1035.65 1203.18 1034.22 z"/>
<path transform="translate(0,0)" fill="rgb(195,188,188)" d="M 486.921 1884.97 L 499.054 1882.3 C 498.837 1924.07 499.226 1965.74 514.335 2005.39 C 519.873 2019.92 528.492 2033.5 533.731 2048 L 523.989 2048 A 315.096 315.096 0 0 1 486.921 1884.97 z"/>
<path transform="translate(0,0)" fill="rgb(195,188,188)" d="M 465.968 1889.73 L 478.853 1886.07 C 477.739 1944.25 489.438 1995.52 514.419 2048 L 504.928 2048 C 476.351 2004.37 465.363 1940.71 465.968 1889.73 z"/>
<path transform="translate(0,0)" fill="rgb(195,188,188)" d="M 920.454 2048 C 933.837 2046.03 947.52 2045.26 960.992 2043.91 A 1856.37 1856.37 0 0 0 1033.82 2035.39 A 1094.3 1094.3 0 0 0 1095.99 2025.29 C 1108.07 2022.86 1120.1 2019.34 1132.21 2017.29 C 1132.07 2027.52 1132.11 2037.79 1131.52 2048 L 920.454 2048 z"/>
<path transform="translate(0,0)" fill="rgb(253,244,227)" d="M 1015.58 153.447 C 1013.96 156.364 1011.69 157.245 1008.92 158.961 C 994.47 167.915 980.988 177.377 968.285 188.739 C 950.022 205.073 932.609 223.041 917.61 242.441 C 906.608 256.67 897.333 272.425 884.358 285.014 C 859.791 308.851 825.012 308.3 804.768 330.434 C 790.355 346.191 795.441 366.127 789.021 373.711 C 784.204 379.4 773.023 380.428 766.646 384.271 C 745.673 396.911 732.829 425.101 740.057 448.903 C 744.593 463.845 754.232 468.186 765.672 476.691 C 764.964 490.293 766.425 500.514 775.847 511.213 C 781.495 517.627 788.408 522.241 795.889 526.275 C 810.545 533.594 821.049 535.946 837.302 534.614 C 837.488 536.386 837.573 538.138 837.655 539.917 C 831.315 543.922 821.714 542.386 814.673 541.062 C 795.728 537.5 777.397 527.123 766.507 510.932 C 759.33 500.262 757.656 490.802 760.123 478.46 A 154.835 154.835 0 0 1 754.712 475.971 C 743.568 470.621 735.772 462.514 731.874 450.592 C 726.794 435.058 729.346 416.745 737.01 402.468 C 747.124 383.627 764.34 377.682 783.446 371.976 C 782.896 361.772 783.561 351.213 787.123 341.552 C 800.735 304.632 845.102 308.568 871.576 287.423 C 886.263 275.693 896.706 257.444 907.69 242.291 A 282.788 282.788 0 0 1 1015.58 153.447 z"/>
<path transform="translate(0,0)" fill="rgb(195,188,188)" d="M 1627.7 792.237 L 1629.79 792.269 C 1633.14 795.07 1635.01 797.871 1637.26 801.592 C 1622.86 803.364 1608.95 806.289 1594.97 810.116 C 1562.03 819.136 1528.05 831.566 1498.61 849.017 C 1473.79 863.735 1452.54 881.775 1431.18 901.005 A 861.265 861.265 0 0 0 1258.8 1116.54 L 1254.3 1124.69 C 1262.69 1090.33 1288.04 1052.69 1307.98 1023.57 C 1323.57 1000.81 1341.11 979.294 1358.76 958.116 C 1434.49 867.251 1510.17 814.289 1627.7 792.237 z"/>
<path transform="translate(0,0)" fill="rgb(195,188,188)" d="M 783.061 1484.74 C 783.389 1484.82 783.723 1484.88 784.045 1484.98 C 793.575 1488.04 804.061 1497.46 812.193 1503.29 C 855.041 1534 891.299 1565.25 917.511 1611.93 C 905.768 1602.01 894.119 1592.28 881.273 1583.77 C 830.921 1552.07 777.197 1525.68 717.8 1517.16 C 743.278 1512.26 764.109 1502.74 783.061 1484.74 z"/>
<path transform="translate(0,0)" fill="rgb(253,244,227)" d="M 451.9 1711.42 C 451.912 1711.81 451.943 1712.2 451.935 1712.59 C 451.89 1714.95 452.138 1716.44 449.996 1717.89 C 445.444 1720.98 438.074 1720.31 432.954 1719.59 C 415.487 1717.14 401.15 1708.98 390.523 1694.81 C 377.43 1677.36 373.243 1653.24 379.179 1632.22 C 382.004 1622.22 386.689 1612.42 387.982 1602.06 C 389.682 1588.43 381.997 1579.05 374.168 1568.94 C 352.704 1541.24 348.581 1512.5 370.079 1483.18 C 378.258 1472.02 390.804 1461.99 390.828 1447.03 C 390.863 1424.89 367.278 1409.53 371.408 1381.57 C 374.99 1357.32 393.786 1346.73 411.992 1333.68 C 445.747 1309.47 421.38 1294.01 409.512 1267.86 A 64.108 64.108 0 0 1 404.818 1229.94 C 409.473 1203.09 427.035 1184.74 451.325 1173.9 C 459.732 1170.15 469.917 1167.03 477.375 1161.64 C 492.405 1150.78 477.513 1128.86 480.565 1113.69 C 486.466 1084.36 520.674 1095.96 538.268 1083.35 C 552.577 1073.1 550.037 1055.59 552.59 1040.4 C 558.026 1008.04 584.336 985.567 615.362 977.994 C 636.732 972.778 658.804 974.832 676.841 959.976 C 690.806 948.476 701.267 931.673 712.147 917.318 A 276.346 276.346 0 0 1 773.514 857.834 C 810.785 831.649 855.484 814.739 900.105 806.388 C 909.645 804.602 919.1 802.145 928.813 803.847 C 931.59 805.841 931.205 806.776 931.852 810.034 C 931.505 810.214 931.172 810.427 930.809 810.574 C 922.678 813.863 905.436 812.865 895.721 814.574 C 868.394 819.38 834.516 831.475 810.01 844.323 C 775.956 862.177 748.54 886.447 724.277 916.024 C 708.117 935.721 693.226 962.853 670.368 975.233 C 659.078 981.347 646.225 982.28 633.747 984.056 C 605.887 988.02 580.594 997.116 567.327 1023.85 C 555.779 1047.11 564.324 1084.29 534.914 1094.76 C 521.271 1099.61 498.291 1097.62 490.844 1112.34 C 482.983 1127.89 499.872 1146.15 489.7 1161.82 C 472.99 1187.55 429.165 1175.97 414.8 1224.62 C 411.469 1235.9 411.403 1248.11 415.342 1259.26 C 422.813 1280.4 445.44 1297.47 433.977 1322.23 C 419.979 1352.46 366.993 1354.03 382.965 1401.97 C 389.634 1422 406.67 1441.42 395.695 1463.25 C 392.343 1469.92 386.863 1475.75 382.217 1481.55 C 369.513 1497.42 359.921 1515.89 366.347 1536.79 C 372.633 1557.23 391.612 1571.64 395.766 1592.51 C 398.74 1607.46 390.521 1620.85 387.664 1635.08 C 382.306 1661.79 389.856 1693.02 416.149 1705.95 C 427.213 1711.39 439.775 1712.32 451.9 1711.42 z"/>
<path transform="translate(0,0)" fill="rgb(195,188,188)" d="M 429.304 1754.2 C 436.082 1753.67 440.976 1754.6 447.319 1756.8 C 441.758 1793.55 442.608 1835.2 451.128 1871.33 C 451.977 1874.93 453.265 1882.77 455.482 1885.73 C 456.197 1886.69 458.673 1887.29 459.267 1888.25 C 459.345 1888.38 459.336 1926.35 459.946 1932.28 C 463.485 1966.71 475.44 2017.78 494.695 2047.17 C 484.67 2044.58 474.629 2042.19 465.008 2038.3 C 460.038 2036.05 454.101 2033.5 450.023 2029.87 C 431.774 2013.65 405.64 1957.53 396.399 1933.14 C 392.71 1923.4 387.362 1910.59 386.969 1900.13 C 386.763 1894.64 387.494 1888.82 388.514 1883.44 C 391.117 1869.68 395.641 1856.26 398.558 1842.55 C 402.466 1824.18 407.331 1778.33 414.204 1764.58 C 417.245 1758.49 423.261 1756.29 429.304 1754.2 z"/>
<path transform="translate(0,0)" fill="rgb(195,188,188)" d="M 1474.48 874.729 L 1475.6 875.82 C 1478.74 885.186 1477.44 897.734 1477.35 907.53 C 1476.94 949.349 1474.05 990.688 1462.91 1031.24 A 243.111 243.111 0 0 0 1362.57 1046.36 C 1349.43 1051.3 1332.4 1058.38 1322.78 1069.03 C 1306.86 1086.64 1296.67 1112.55 1286.56 1133.79 C 1248.18 1214.37 1217.52 1299.67 1188.47 1383.99 A 8149.11 8149.11 0 0 1 1157.63 1473.12 C 1152.51 1487.53 1147.94 1502.51 1141.6 1516.41 L 1141.01 1517.69 L 1140.7 1518.17 L 1140.03 1517.31 C 1140.96 1517.01 1141.62 1515.53 1142.18 1514.73 L 1142.6 1514.84 L 1142.99 1514.52 L 1140.01 1512.54 C 1146.37 1501.68 1153.82 1461.6 1157.37 1447.09 L 1175.53 1374.71 A 1897.48 1897.48 0 0 1 1210.98 1246.38 C 1218.75 1221.54 1226.49 1196.82 1236.73 1172.86 C 1279.21 1073.56 1387.95 938.569 1474.48 874.729 z"/>
<path transform="translate(0,0)" fill="rgb(195,188,188)" d="M 1572.91 706.991 C 1578.92 711.49 1588.89 732.592 1593.49 740.117 C 1602.64 755.097 1613.88 768.778 1622.52 784.071 A 288.829 288.829 0 0 0 1585.66 792.441 C 1487.69 821.381 1426.17 871.381 1359.44 946.345 C 1326.01 983.895 1295.49 1024.06 1271.45 1068.32 C 1265.26 1080.18 1260.21 1092.48 1255.12 1104.84 C 1257.94 1091.12 1259.94 1077.26 1262.86 1063.56 C 1269.77 1031.04 1279.74 997.007 1293.57 966.736 C 1305.43 940.767 1324.38 917.251 1341.96 894.92 C 1402.39 818.153 1479.67 742.037 1572.91 706.991 z"/>
<path transform="translate(0,0)" fill="rgb(195,188,188)" d="M 667.572 1517.86 C 679.468 1520.09 691.867 1520.45 703.886 1522.1 A 412.327 412.327 0 0 1 771.887 1537.97 C 819.655 1553.87 889.441 1593.02 923.453 1628.91 C 938.559 1644.84 950.672 1664.36 963.389 1682.24 C 975.331 1699.03 988.493 1717.09 997.646 1735.54 C 961.599 1692.36 912.633 1641.73 863.728 1613.61 C 847.404 1604.22 830.154 1597.34 812.136 1591.98 C 772.873 1580.3 732.985 1578.99 696.292 1599.17 C 635.82 1632.42 605.977 1701.82 588.177 1765.08 C 583.529 1781.59 573.068 1830.71 573.414 1846.91 C 573.467 1849.4 574.306 1851.2 575.485 1853.29 L 577.132 1853.63 C 579.021 1851.87 579.69 1850.12 580.281 1847.67 C 582.276 1839.4 582.952 1830.44 584.342 1822 C 587.375 1803.59 590.671 1785.04 595.343 1766.97 C 603.918 1733.81 617.027 1698.03 635.423 1669.01 C 649.074 1647.48 666.538 1629.23 686.494 1613.49 C 709.468 1597.55 735.411 1589.82 763.288 1591.09 C 862.747 1595.64 933.3 1674.98 995.513 1743.54 A 6055.84 6055.84 0 0 1 618.072 1844.84 C 595.77 1850.24 573.866 1856.8 551.645 1862.39 A 2159.32 2159.32 0 0 1 462.068 1882.55 C 446.119 1841 451.218 1754.86 461.646 1711.45 C 516.903 1692.8 491.763 1654.55 513.115 1618.87 C 532.378 1586.68 567.776 1580.19 601.193 1571.93 C 634.267 1563.76 650.44 1546.07 667.572 1517.86 z"/>
<path transform="translate(0,0)" fill="rgb(94,73,91)" d="M 1015.58 153.447 C 1020.09 149.957 1027.22 148.641 1032.64 146.962 C 1059.71 138.578 1085.18 134.265 1113.57 137.931 C 1129.21 139.952 1143.76 144.761 1158.32 150.667 C 1130.63 163.614 1105.26 180.844 1093.41 210.463 C 1092.49 212.762 1092.42 213.969 1093.07 216.318 C 1094.22 216.606 1094.87 217.132 1095.95 216.425 C 1102.78 211.94 1108.21 198.018 1113.61 191.317 C 1135.2 164.499 1180.04 143.824 1214.62 148.592 C 1268.02 155.955 1329.34 217.057 1361.12 259.424 C 1417.21 334.193 1416.8 420.224 1412.19 509.303 C 1410.96 533.105 1410.95 557.936 1407.93 581.531 C 1391.88 597.475 1374.44 604.192 1351.89 604.165 C 1332.78 604.141 1312.07 600.605 1294.81 592.184 C 1305.48 558.184 1309.8 521.304 1292.63 488.323 C 1285.22 474.073 1273.75 461.719 1257.95 457.029 C 1245.8 453.42 1231.26 453.729 1220.11 460.056 C 1202.22 470.209 1189.8 492.748 1184.92 512.189 C 1179.3 534.571 1184.41 572.551 1175.65 589.001 C 1173.35 590.183 1171.54 590.453 1169.02 589.597 C 1154.85 584.781 1142.4 553.381 1126.81 542.776 C 1105.56 528.328 1079.56 529.683 1056.87 519.296 C 1081.4 524.172 1106.45 525.237 1131.08 520.474 C 1136.34 519.459 1142.6 518.605 1147.17 515.662 C 1148.89 514.552 1148.79 514.375 1149.66 512.716 C 1148.51 510.671 1147.64 510.009 1145.29 509.477 C 1135.98 507.376 1124.56 513.697 1115.06 514.642 C 1101.74 515.97 1087.69 515.868 1074.4 514.177 C 1061.01 512.472 1045.8 508.501 1033.63 502.597 C 1028.52 500.118 1022.92 492.588 1017.46 492.163 L 1017.52 489.44 C 1052.62 500.274 1078.93 504.535 1115.61 499.156 C 1130.94 496.908 1180.73 484.362 1189.39 471.311 C 1190.45 469.703 1190.08 469.741 1189.73 468.012 C 1189.15 467.746 1188.62 467.283 1187.99 467.214 C 1187.26 467.134 1160.97 479.413 1157.42 480.799 C 1126.63 492.835 1088.78 496.087 1056.16 491.43 C 1034.57 488.347 1009.33 480.393 996.018 461.814 C 984.645 445.941 984.257 423.702 989.428 405.446 C 991.685 397.48 995.324 389.015 996.366 380.808 C 996.66 378.498 996.889 378.066 995.444 376.157 C 992.505 377.721 991.302 382.132 989.57 384.917 C 975.768 407.119 932.597 412.923 908.973 409.394 C 902.441 408.417 895.87 407.192 889.466 405.567 C 881.553 403.559 866.948 396.333 859.365 398.284 L 859.588 399.911 C 863.915 403.997 869.085 406.962 874.572 409.222 C 909.598 423.648 948.564 418.616 982.56 404.175 C 980.618 406.526 978.556 408.787 976.537 411.072 C 972.207 416.285 967.692 421.246 962.458 425.583 C 957.967 423.234 955.651 424.117 951.02 425.582 C 923.995 434.131 901.719 440.333 873.366 433.638 C 866.74 432.073 833.035 419.485 830.308 422.642 C 839.359 434.254 872.234 441.592 886.237 443.306 C 913.483 446.64 935.546 439.164 959.839 427.588 C 936.18 452.501 909.14 469.997 874.223 470.994 C 846.465 471.786 825.025 464.585 801.411 450.328 C 797.602 448.028 790.874 442.047 787.015 444.541 C 786.983 447.859 788.283 449.396 790.567 451.743 C 808.096 469.755 840.841 479.69 865.499 479.408 C 874.923 479.3 884.295 478.305 893.697 478.013 C 874.266 484.866 854.796 490.754 834.024 491.102 C 827.061 491.219 818.605 489.224 811.954 489.968 C 810.207 490.163 809.732 490.437 808.781 491.791 L 808.861 494.16 C 815.397 498.336 831.266 494.673 835.291 500.253 C 834.471 503.414 831.449 505.319 828.767 506.891 C 819.931 512.068 804.76 514.763 798.097 522.396 C 800.53 523.899 801.392 524.995 804.347 524.25 C 812.864 522.102 825.075 515.052 834.265 511.85 C 835.306 519.408 836.611 527.02 837.302 534.614 C 821.049 535.946 810.545 533.594 795.889 526.275 C 788.408 522.241 781.495 517.627 775.847 511.213 C 766.425 500.514 764.964 490.293 765.672 476.691 C 754.232 468.186 744.593 463.845 740.057 448.903 C 732.829 425.101 745.673 396.911 766.646 384.271 C 773.023 380.428 784.204 379.4 789.021 373.711 C 795.441 366.127 790.355 346.191 804.768 330.434 C 825.012 308.3 859.791 308.851 884.358 285.014 C 897.333 272.425 906.608 256.67 917.61 242.441 C 932.609 223.041 950.022 205.073 968.285 188.739 C 980.988 177.377 994.47 167.915 1008.92 158.961 C 1011.69 157.245 1013.96 156.364 1015.58 153.447 z"/>
<path transform="translate(0,0)" fill="rgb(41,6,42)" d="M 1026.25 325.669 C 1028.33 326.29 1029.21 326.697 1030.64 328.343 C 1030.4 329.29 1030.4 329.585 1029.75 330.487 C 1023.7 338.79 1000.38 347.735 990.248 349.76 L 989.245 349.62 C 987.289 348.067 986.843 347.798 985.976 345.493 C 986.239 344.943 986.331 344.271 986.766 343.843 C 989.2 341.449 1003.47 337.394 1007.8 335.584 C 1014.31 332.866 1020.27 329.392 1026.25 325.669 z"/>
<path transform="translate(0,0)" fill="rgb(41,6,42)" d="M 1084.01 251.681 L 1086.78 253.161 L 1087.07 255.146 C 1082.17 262.118 1073.78 267.962 1067.51 273.804 C 1061.12 279.769 1055.03 286.108 1048.83 292.286 L 1047.51 291.73 C 1046.74 290.208 1046.12 289.8 1046.5 288.05 C 1049.02 276.415 1074.16 257.441 1084.01 251.681 z"/>
<path transform="translate(0,0)" fill="rgb(195,188,188)" d="M 979.573 414.485 L 979.663 415.796 C 979.953 420.636 978.916 425.562 978.995 430.432 C 979.274 447.673 986.811 466.782 999.808 478.236 C 1005.11 482.907 1011.23 486.291 1017.52 489.44 L 1017.46 492.163 C 1020.77 498.973 1028.31 503.924 1034.13 508.59 C 1043.52 516.111 1054 525.73 1065.22 530.238 C 1084.5 537.978 1104.81 536.962 1122.47 549.811 C 1134.91 558.851 1142.43 572.162 1151.38 584.318 C 1156.08 590.708 1164.23 598.382 1172.49 599.32 C 1175.23 599.632 1177.56 598.807 1179.65 597.014 C 1191.25 587.022 1187.8 544.857 1189.68 529.34 C 1192.28 507.948 1201.7 484.189 1219.31 470.782 C 1227.77 464.338 1236.91 461.039 1247.59 462.774 C 1261.13 464.972 1272.43 473.014 1280.19 484.115 C 1295.08 505.412 1299.94 534.282 1295.47 559.587 C 1292.61 575.737 1278.73 617.996 1261.7 623.056 C 1255.73 624.83 1247.93 621.353 1242.83 624.912 L 1242.91 626.515 C 1244.83 628.509 1247.04 629.563 1249.56 630.675 C 1255.36 633.227 1262.23 631.665 1267.78 629.124 C 1279.94 623.553 1286.98 608.533 1291.26 596.701 C 1304.08 604.14 1318.3 608.505 1332.95 610.53 C 1361.64 614.495 1383.95 609.825 1407.21 592.394 C 1412.06 641.772 1467.43 698.909 1497.53 737.201 C 1478.63 750.365 1459.24 763.6 1441.54 778.333 C 1386.85 823.828 1341.8 879.886 1300.69 937.575 C 1280.08 915.188 1263.48 890.99 1238.12 873.335 C 1249.79 856.744 1266.82 831.474 1267.86 810.622 L 1266.79 809.489 C 1262.1 811.837 1247.94 844.393 1243.42 851.641 C 1234.88 865.35 1224.36 878.533 1213.59 890.57 C 1199.55 906.278 1174.3 934.208 1151.62 934.562 C 1131.84 934.871 1048.58 879.669 1031.63 864.123 C 1019.12 852.651 1010.21 837.941 997.86 826.544 C 997.57 826.276 997.273 826.016 996.979 825.753 C 988.236 826.961 979.599 829.1 970.864 830.44 C 962.641 831.702 952.931 832.277 946 826.869 C 937.059 819.893 934.725 750.59 932.144 735.402 C 927.437 707.704 918.62 684.515 900.091 663.142 C 891.562 653.303 882.805 643.971 876.183 632.673 C 855.139 596.772 843.793 541.156 839.71 499.592 C 897.215 487.437 944.854 463.85 979.573 414.485 z"/>
<path transform="translate(0,0)" fill="rgb(41,6,42)" d="M 1012.83 802.604 C 1015.5 802.906 1016.63 803.059 1018.3 805.029 C 1018.26 805.373 1018.27 805.727 1018.17 806.061 C 1016.39 812.532 1000.99 820.049 995.471 823.27 C 993.868 823.687 992.98 823.551 991.36 823.365 L 990.254 821.755 C 993.399 813.994 1007.18 809.906 1012.83 802.604 z"/>
<path transform="translate(0,0)" fill="rgb(41,6,42)" d="M 1238.02 553.157 C 1242.09 552.68 1246.46 552.269 1250.41 553.544 C 1256.1 555.377 1260.62 559.879 1263 565.29 C 1266.04 572.225 1265.84 580.851 1262.92 587.793 C 1260.91 592.579 1256.46 598.932 1251.33 600.675 C 1249 601.466 1247.35 600.958 1245.24 599.997 C 1244.31 597.689 1244.21 597.395 1244.66 594.962 C 1249.51 592.551 1253.5 589.322 1255.4 584.073 C 1256.99 579.677 1257.91 571.711 1255.55 567.416 C 1248.69 554.935 1234.46 568.52 1225.8 565.337 C 1225.91 564.802 1225.97 564.253 1226.13 563.73 C 1227.81 558.203 1233.25 555.408 1238.02 553.157 z"/>
<path transform="translate(0,0)" fill="rgb(41,6,42)" d="M 1105.22 792.333 C 1108.26 792.975 1109.15 792.865 1111.37 795.157 C 1111.8 801.381 1106.89 811.663 1103.79 817.228 C 1092.15 838.14 1071.13 851.753 1048.61 858.462 C 1048.22 858.514 1047.84 858.598 1047.45 858.617 C 1044.78 858.743 1044.09 858.988 1041.96 857.333 C 1042.12 856.733 1042.2 856.109 1042.42 855.532 C 1044.35 850.531 1061.99 845.917 1066.86 843.069 C 1087.31 831.119 1099.1 815.011 1105.22 792.333 z"/>
<path transform="translate(0,0)" fill="rgb(41,6,42)" d="M 1244.75 475.134 C 1248.25 474.906 1252.48 474.359 1255.89 475.375 C 1258.6 476.185 1260.65 477.451 1262.14 479.889 L 1261.65 481.807 C 1258.67 483.433 1252.43 482.45 1248.84 482.523 C 1241.65 482.668 1233.38 489.044 1228.65 494.112 C 1214.05 509.773 1214.56 532.314 1214.99 552.25 C 1215.36 556.118 1215.34 558.4 1212.78 561.601 L 1210.77 560.965 C 1209.13 558.905 1208.24 556.759 1207.44 554.272 C 1202.58 539.067 1207.2 515.297 1214.46 501.315 C 1221.18 488.401 1230.79 479.524 1244.75 475.134 z"/>
<path transform="translate(0,0)" fill="rgb(41,6,42)" d="M 951.798 644.217 C 952.128 644.287 952.462 644.341 952.788 644.426 C 960.971 646.562 965.982 663.934 970.062 670.773 C 973.273 676.156 977.822 680.823 984.154 682.157 C 993.365 684.097 1005.39 679.828 1012.98 674.764 C 1013.46 674.442 1013.93 674.102 1014.41 673.777 C 1023.44 667.666 1025.42 653.542 1034.32 648.593 L 1034.99 649.961 C 1033.88 658.298 1030.69 664.836 1026.96 672.254 C 1020.48 683.505 1013.85 695.313 1003.87 703.881 C 998.653 708.361 990.412 714.391 983.191 713.474 C 980.044 713.075 977.946 711.602 976.198 709.016 C 971.875 702.62 974.463 692.736 975.591 685.715 C 964.178 677.131 957.773 657.117 951.798 644.217 z"/>
<path transform="translate(0,0)" fill="rgb(41,6,42)" d="M 1011.47 569.336 C 1019.6 568.278 1032.04 567.72 1039.95 569.982 C 1043.19 570.907 1045.92 572.215 1047.65 575.129 C 1047.03 576.412 1046.96 577.169 1045.61 577.888 C 1038.31 581.799 1022.72 581.341 1013.42 584.836 C 984.785 595.595 958.13 610.92 929.197 621.14 C 921.026 623.228 907.029 626.976 899.389 622.055 C 896.603 620.261 893.607 617.066 893.218 613.645 C 892.973 611.495 893.766 609.544 895.047 607.864 C 905.095 594.69 992.336 572.191 1011.47 569.336 z"/>
<path transform="translate(0,0)" fill="rgb(94,73,91)" d="M 1022.39 575.431 L 1026.27 575.531 L 1025.78 576.386 A 1026.25 1026.25 0 0 0 977.034 593.622 C 954.983 602.268 931.652 617.342 907.4 616.698 C 906.404 616.435 905.973 616.37 904.978 615.849 C 902.69 614.651 901.697 613.336 900.927 610.973 L 902.055 609.151 C 910.443 604.674 920.881 602.724 929.932 599.781 C 958.463 590.505 992.06 576.44 1022.39 575.431 z"/>
<path transform="translate(0,0)" fill="rgb(253,244,227)" d="M 1233.58 881.017 C 1253.69 889.694 1281.76 926.503 1295.66 944.636 C 1269.45 986.21 1256.14 1050.03 1248.63 1098.39 C 1246.26 1113.68 1246.69 1129.78 1242.72 1144.72 C 1238.28 1161.45 1226.55 1182.18 1220.35 1199.67 C 1204.65 1243.91 1191.45 1289.29 1178.83 1334.48 C 1171.38 1361.19 1165.09 1388.14 1158.24 1415 C 1151.38 1441.89 1143.9 1468.55 1137.73 1495.63 C 1132.74 1517.51 1129.71 1541.5 1124.17 1562.67 C 1120.18 1577.89 1114.83 1592.96 1110.03 1607.95 C 1102.34 1631.95 1094.71 1656.04 1086.03 1679.71 C 1071.51 1685.05 1056.17 1688.99 1048.97 1704.19 C 1045.45 1711.62 1044.09 1720.6 1042.39 1728.63 C 1030.8 1732.48 1019.08 1735.5 1007.25 1738.48 C 997.79 1721.69 987.957 1704.93 977.058 1689.03 C 969.225 1677.6 960.438 1666.69 953.012 1655.01 C 945.616 1643.37 939.42 1630.88 932.414 1618.99 C 909.523 1580.15 891.109 1557.35 857.236 1527.18 C 869.403 1508.39 881.403 1486.76 896.714 1470.34 C 919.734 1492.3 955.145 1513.8 988.085 1513.31 C 998.804 1513.15 1008.85 1509.32 1016.36 1501.54 C 1026.05 1491.49 1031.69 1474.16 1042.06 1461.38 L 1040.65 1459.76 C 1022.68 1465.4 1023.3 1484.65 1011.13 1496.39 C 1003.48 1503.77 993.503 1506.5 983.084 1505.95 C 973.54 1505.44 963.714 1502.59 954.751 1499.43 C 921.782 1487.8 900.805 1467.34 880.445 1439.81 C 874.901 1432.31 871.466 1422.07 865.099 1415.41 C 863.408 1413.64 863.101 1413.79 860.793 1413.83 C 859.866 1414.83 858.966 1415.31 858.914 1416.77 C 858.552 1426.85 883.757 1457.38 890.895 1465.98 C 875.851 1483.47 864.495 1503.24 851.18 1521.99 A 1582.99 1582.99 0 0 1 789.87 1477.52 C 798.125 1465.71 805.89 1453.4 811.402 1440.04 C 833.399 1386.7 824.621 1324.7 818.204 1269.03 C 822.603 1270.68 830.809 1273.87 835.502 1272 C 838.288 1270.89 838.505 1270.08 839.74 1267.54 L 839.01 1265.84 C 832.505 1265.08 824.318 1264.86 818.281 1262.33 C 799.755 1254.57 786.918 1235.43 779.78 1217.47 C 770.137 1193.2 771.038 1166.58 781.586 1142.72 C 787.366 1129.65 796.446 1119.09 810.16 1114.08 C 818.361 1111.09 827.395 1110.93 835.326 1114.85 C 861.797 1127.92 865.737 1155.89 867.432 1182.09 C 867.901 1189.35 867.846 1198.54 870.556 1205.34 C 871.454 1207.6 873.098 1209.52 875.534 1210.21 C 877.959 1210.9 879.048 1210.49 881.037 1209.34 C 881.208 1205.54 876.924 1200.74 875.398 1196.98 L 876.132 1195.32 C 879.273 1195.39 882.641 1195.37 885.667 1194.41 C 902.076 1189.17 916.848 1170.69 924.704 1156.18 C 975.36 1154.87 1019.57 1141.58 1061.24 1112.42 C 1080.09 1099.23 1098.31 1084.76 1117.73 1072.43 A 365.997 365.997 0 0 1 1180.94 1041.07 C 1187.55 1057 1193.84 1072.95 1196.89 1090 C 1206.08 1141.42 1188.16 1197.15 1161.55 1240.78 C 1153.81 1253.47 1139.57 1267.92 1136.29 1282.48 C 1130.19 1309.59 1140.66 1368.4 1135.35 1384.24 C 1134.75 1386.04 1134.63 1386.59 1132.89 1387.28 C 1126.95 1389.64 1081.74 1383.78 1077.77 1379.59 C 1074.51 1376.16 1074.3 1368.92 1069.67 1366.7 C 1068.49 1369.71 1068.46 1373.19 1069.34 1376.33 C 1071.66 1384.62 1080.75 1388.27 1087.64 1392.06 C 1087.94 1392.05 1088.23 1392.04 1088.52 1392.03 C 1101.32 1391.95 1128.12 1402.74 1138.57 1393.28 C 1143.64 1388.69 1144.1 1379.17 1144.11 1372.8 C 1144.18 1346.28 1137.27 1308.47 1145.02 1283.37 C 1149.96 1267.39 1171.31 1241.64 1180.22 1223.87 C 1189.55 1205.27 1196.89 1185 1201.26 1164.64 C 1202.86 1157.22 1202.8 1148.95 1204.96 1141.74 C 1208.43 1130.17 1216.37 1119.06 1220.99 1107.71 C 1241.08 1058.38 1247.8 1007.89 1206.73 967.504 C 1195.17 956.142 1181.4 948.012 1168.4 938.561 C 1194.85 924.035 1212.93 902.348 1233.58 881.017 z"/>
<path transform="translate(0,0)" fill="rgb(41,6,42)" d="M 1104 1231.45 C 1106.86 1231.79 1108.07 1231.64 1110.38 1233.44 C 1111.05 1243.19 1095.26 1272.99 1090.11 1281.6 C 1095.71 1282.72 1102 1283.1 1105.87 1287.74 L 1105.47 1289.66 C 1102.73 1291.25 1099.92 1291.44 1096.81 1291.42 C 1076.68 1291.28 1051.4 1275.26 1037.95 1261.12 C 1034.07 1255.8 1029.09 1249.2 1027.75 1242.64 C 1027.14 1239.67 1027.36 1237.68 1029.04 1235.19 C 1031 1235.14 1031.44 1234.91 1032.7 1236.41 C 1037.37 1241.93 1040.89 1249.2 1045.12 1255.15 C 1054.07 1267.77 1072.64 1275.44 1086.65 1280.56 C 1091.65 1263.95 1098.49 1247.91 1104 1231.45 z"/>
<path transform="translate(0,0)" fill="rgb(41,6,42)" d="M 1055.1 1428.5 C 1040.83 1426.16 1026.64 1423.19 1015.21 1413.68 C 1008.61 1408.19 1003.05 1399.87 1002.42 1391.09 C 1002.13 1386.99 1002.87 1382.51 1005.58 1379.32 C 1008.22 1378.74 1008.08 1378.85 1010.43 1380.24 C 1011.78 1383.8 1010.5 1389.68 1010.19 1393.5 C 1011.59 1396.43 1013.04 1399.61 1015.07 1402.16 C 1025.31 1415.07 1045.16 1419.27 1060.63 1421.27 C 1066.5 1422.03 1071.43 1422.16 1076.26 1418.44 C 1077.91 1414.61 1076.95 1409.39 1076.72 1405.28 C 1080.19 1400.85 1084.14 1396.85 1088.01 1392.77 C 1089.55 1394.57 1090.64 1395.39 1090.08 1398.01 C 1089.35 1401.46 1086.36 1404.18 1085.22 1407.48 C 1083.06 1413.77 1085.12 1424.75 1077.8 1427.7 C 1073.2 1429.56 1067.75 1429.73 1062.84 1430.02 C 1063.44 1438.42 1065.31 1449.82 1058.98 1456.65 C 1054.98 1460.96 1048.66 1461.6 1043.11 1461.45 C 1042.76 1461.44 1042.41 1461.4 1042.06 1461.38 L 1040.65 1459.76 C 1028.47 1452.07 1019.37 1442.38 1013.64 1429.16 C 1024.66 1435.45 1032.45 1446.43 1044.16 1451.7 C 1047.76 1453.32 1050.04 1453.59 1053.73 1452.18 C 1057.79 1447.26 1055.04 1435.03 1055.1 1428.5 z"/>
<path transform="translate(0,0)" fill="rgb(41,6,42)" d="M 820.393 1125.32 C 827.697 1126.3 833.981 1128.33 839.513 1133.4 C 847.915 1141.12 852.459 1152.58 852.628 1163.87 C 853.143 1198.21 825.44 1185.93 814.462 1198.42 C 809.284 1204.3 828.656 1221.14 828.07 1229.67 C 827.874 1232.51 825.766 1235.31 823.761 1237.23 C 821.94 1238.98 819.548 1240.08 816.984 1239.85 C 809.989 1239.24 803.493 1231.26 799.607 1225.99 C 796.306 1221.52 791.769 1214.23 792.675 1208.48 L 794.343 1208.01 C 797.845 1210.41 799.327 1213.65 801.277 1217.27 C 804.298 1222.08 810.039 1228.81 815.422 1230.91 C 817.496 1231.72 817.829 1231.4 819.676 1230.47 C 821.008 1224.14 810.241 1213.84 807.402 1207.97 C 805.997 1205.06 805.902 1200.41 806.958 1197.38 C 810.295 1187.8 825.586 1186.49 833.609 1182.35 C 838.476 1179.84 842.198 1176.28 843.782 1170.92 C 846.152 1162.91 843.689 1152.04 839.79 1144.87 C 836.842 1139.45 832.151 1134.82 826.035 1133.21 C 811.509 1129.38 809.698 1141.95 799.855 1147.38 L 798.488 1146.62 C 798.275 1143.01 799.606 1140.06 801.559 1137.09 C 806.346 1129.79 812.065 1126.96 820.393 1125.32 z"/>
<path transform="translate(0,0)" fill="rgb(41,6,42)" d="M 1071.21 1170.42 A 118.937 118.937 0 0 1 1091.48 1171.97 C 1107.23 1174.46 1147.68 1182.49 1156.45 1195.49 C 1157.96 1197.73 1159.05 1200.35 1158.39 1203.07 C 1157.88 1205.21 1155.94 1206.53 1154.1 1207.49 C 1144.59 1212.48 1133.21 1209.97 1123.76 1206.52 C 1102.83 1197.9 1082.24 1192.2 1059.7 1189.64 C 1052.37 1188.81 1035.52 1190.04 1030.2 1185.96 C 1029.04 1183.63 1028.92 1183.71 1029.6 1181.23 C 1038.14 1172.5 1059.67 1171.06 1071.21 1170.42 z"/>
<path transform="translate(0,0)" fill="rgb(94,73,91)" d="M 1062.5 1177.3 C 1084.24 1174.77 1121.48 1183.51 1140.96 1193.78 C 1143.98 1195.37 1146.95 1196.99 1147.94 1200.38 L 1146.1 1201.96 C 1141.49 1203.22 1137.28 1202.67 1132.6 1202.29 C 1121.42 1198.4 1110.61 1193.6 1099.2 1190.34 C 1079.59 1184.74 1060.67 1184.28 1040.55 1182.58 C 1047.85 1180.46 1054.99 1178.49 1062.5 1177.3 z"/>
<path transform="translate(0,0)" fill="rgb(94,73,91)" d="M 931.852 810.034 C 930.987 816.375 933.112 824.387 937.176 829.419 C 942.205 835.647 950.683 838.215 958.38 838.795 C 970.645 839.719 982.646 836.017 994.692 834.427 C 1006.74 848.217 1018.38 862.698 1032.3 874.669 C 1050.9 890.672 1108 926.773 1130.51 936.915 C 1136.93 939.808 1144.18 942.332 1151.23 942.928 C 1154.46 943.202 1157.76 943.094 1161 943.014 C 1189.74 961.376 1219.79 982.415 1227.36 1018.04 C 1230.94 1034.89 1229.72 1050.1 1226.87 1066.9 C 1225.83 1055.89 1224.7 1040.03 1215.81 1032.17 C 1211.18 1028.06 1204.37 1027.64 1198.5 1028.32 C 1185.96 1029.8 1173.11 1035.63 1161.84 1041.03 A 418.07 418.07 0 0 0 1097.38 1078.82 C 1082.69 1089.11 1068.53 1100.47 1053.42 1110.11 A 261.735 261.735 0 0 1 1001.34 1136.19 C 973.916 1146.28 947.877 1147.97 919.33 1150.83 C 912.517 1165.33 900.462 1180.89 885.003 1186.82 C 881.819 1188.04 878.345 1188.65 875.007 1189.3 C 873.449 1162.44 872.469 1133.93 850.522 1114.83 C 841.692 1107.14 830.616 1103 818.861 1103.93 C 804.712 1105.05 792.452 1113.46 783.716 1124.25 C 768.505 1143.04 762.369 1169.23 765 1193 C 767.672 1217.14 780.931 1245.2 800.259 1260.4 C 803.951 1263.3 807.894 1265.75 811.945 1268.12 C 817.659 1333.6 830.774 1416.53 784.52 1471.14 C 766.064 1492.93 739.248 1508.38 710.541 1510.69 C 694.683 1511.96 679.122 1508.52 663.378 1509.09 C 652.728 1532.85 637.44 1551.39 612.649 1560.95 C 598.425 1566.43 583.166 1568.49 568.493 1572.4 C 540.702 1579.81 515.505 1596.33 503.276 1623.22 C 494.302 1642.95 500.168 1666.11 488.063 1684.45 C 478.095 1699.56 453.351 1706.22 451.338 1710.03 L 451.9 1711.42 C 439.775 1712.32 427.213 1711.39 416.149 1705.95 C 389.856 1693.02 382.306 1661.79 387.664 1635.08 C 390.521 1620.85 398.74 1607.46 395.766 1592.51 C 391.612 1571.64 372.633 1557.23 366.347 1536.79 C 359.921 1515.89 369.513 1497.42 382.217 1481.55 C 386.863 1475.75 392.343 1469.92 395.695 1463.25 C 406.67 1441.42 389.634 1422 382.965 1401.97 C 366.993 1354.03 419.979 1352.46 433.977 1322.23 C 445.44 1297.47 422.813 1280.4 415.342 1259.26 C 411.403 1248.11 411.469 1235.9 414.8 1224.62 C 429.165 1175.97 472.99 1187.55 489.7 1161.82 C 499.872 1146.15 482.983 1127.89 490.844 1112.34 C 498.291 1097.62 521.271 1099.61 534.914 1094.76 C 564.324 1084.29 555.779 1047.11 567.327 1023.85 C 580.594 997.116 605.887 988.02 633.747 984.056 C 646.225 982.28 659.078 981.347 670.368 975.233 C 693.226 962.853 708.117 935.721 724.277 916.024 C 748.54 886.447 775.956 862.177 810.01 844.323 C 834.516 831.475 868.394 819.38 895.721 814.574 C 905.436 812.865 922.678 813.863 930.809 810.574 C 931.172 810.427 931.505 810.214 931.852 810.034 z"/>
<path transform="translate(0,0)" fill="rgb(41,6,42)" d="M 1165.21 984.275 C 1174.8 983.289 1184.09 983.935 1192.99 987.998 C 1209.36 995.481 1221.08 1010.49 1227.23 1027 C 1218.03 1018.65 1211.15 1008.23 1201.47 1000.14 A 152.404 152.404 0 0 0 1198.47 998.171 C 1168.23 978.92 1151.03 997.376 1123.43 1003.26 C 1123.08 1003.34 1122.72 1003.4 1122.37 1003.47 C 1135.65 992.542 1148.32 987.46 1165.21 984.275 z"/>
<path transform="translate(0,0)" fill="rgb(41,6,42)" d="M 1061.33 1077.95 L 1062.31 1078.44 C 1062.27 1078.72 1062.26 1079.02 1062.18 1079.29 C 1059.96 1086.59 1034.66 1101.27 1027.78 1105.05 C 984.21 1129.01 930.883 1143.48 881.69 1129.15 C 879.848 1128.17 879.597 1127.93 878.443 1126.34 C 879.708 1124.9 879.145 1124.9 880.657 1124.86 C 886.011 1124.74 892.547 1126.84 897.939 1127.7 C 904.892 1128.81 912.14 1129.06 919.175 1129 C 972.212 1128.59 1017.97 1106.27 1061.33 1077.95 z"/>
<path transform="translate(0,0)" fill="rgb(41,6,42)" d="M 787.21 1393.47 C 787.669 1393.79 788.177 1394.05 788.588 1394.43 C 789.652 1395.41 790.181 1396.39 790.236 1397.81 C 790.438 1403.05 786.302 1410.19 783.807 1414.82 C 771.047 1438.45 754.398 1452.42 733.812 1469 C 729.014 1472.87 723.258 1475.74 719.16 1480.36 L 719.809 1481.3 C 737.741 1481.19 760.139 1451.77 769.152 1449.79 C 769.07 1450.3 769.081 1450.83 768.907 1451.32 C 763.996 1465.11 745.446 1476.77 733.751 1483.91 A 93.1259 93.1259 0 0 1 724.249 1488.75 C 711.823 1494.24 684.593 1506.51 671.12 1500.68 C 667.608 1499.17 665.341 1496.34 664.191 1492.73 C 663.022 1489.07 662.761 1484.99 664.867 1481.61 C 670.815 1472.07 692.118 1471.25 702.254 1469.23 C 735.594 1462.57 756.893 1447.04 774.336 1417.61 C 778.978 1409.78 782.195 1400.99 787.21 1393.47 z"/>
<path transform="translate(0,0)" fill="rgb(253,244,227)" d="M 724.538 1471.35 L 724.367 1472.68 C 712.29 1484.12 689.713 1494.32 673.045 1494.11 C 672.052 1490.91 671.449 1488.79 672.019 1485.45 C 673.348 1483.57 673.744 1482.67 675.959 1481.83 C 685.76 1478.1 712.178 1474.34 724.538 1471.35 z"/>
<path transform="translate(0,0)" fill="rgb(195,188,188)" d="M 1482.63 868.754 C 1523.14 843.059 1585.37 814.55 1633.57 810.573 C 1664.34 850.402 1689.96 897.019 1713.8 941.287 C 1766.76 1039.63 1808.43 1145.85 1823.76 1257 C 1830.49 1305.79 1832.29 1354.79 1834.2 1403.94 C 1836.03 1451.14 1838.02 1498.64 1836.94 1545.88 C 1836.18 1579.46 1833.23 1612.96 1831.07 1646.47 C 1828.59 1684.83 1829.97 1723.06 1825.82 1761.37 C 1823.1 1786.45 1819.9 1811.49 1818.53 1836.7 C 1816.99 1865.29 1817.37 1893.91 1815.55 1922.5 C 1814.17 1944.32 1805.76 2032.54 1809.23 2046.93 L 1807.24 2048 L 1140.03 2048 L 1139.74 2015.88 C 1168.02 2004 1196.26 2001.55 1224.6 1985.67 C 1298.7 1944.15 1409.04 1804.64 1461.06 1733.31 C 1476.3 1712.43 1490.14 1690.56 1505.2 1669.6 C 1525.3 1663.14 1543.78 1655.53 1561.13 1643.31 C 1570.71 1636.55 1595.22 1619.43 1597.19 1607.98 L 1596.29 1606.96 C 1590.59 1606.59 1573.45 1623.47 1567.76 1627.84 C 1550.96 1640.74 1533.53 1652.69 1513 1658.63 C 1516.25 1653.06 1529.72 1628.14 1534.41 1625.94 C 1534.56 1625.87 1537.59 1625.84 1537.85 1625.76 C 1542.36 1624.46 1562.98 1605.02 1567.53 1600.64 A 440.987 440.987 0 0 0 1675.35 1431.48 C 1678.38 1422.79 1684.46 1409.99 1684.21 1401.02 C 1684.13 1398.24 1683.72 1397.37 1681.71 1395.53 C 1675.86 1396.88 1673.25 1412.35 1671.8 1417.48 C 1651.44 1489.45 1596.13 1566.8 1540.66 1615.92 C 1547.78 1601.32 1557.41 1587.61 1565.23 1573.33 C 1591.95 1524.59 1613.88 1474.61 1622.77 1419.45 C 1639.31 1316.87 1635.32 1182.75 1571.91 1095.65 C 1547.2 1061.71 1512.03 1038.17 1470.45 1031.61 C 1482.98 989.597 1486.77 944.792 1485.52 901.087 C 1485.21 890.327 1485.24 879.251 1482.63 868.754 z"/>
<path transform="translate(0,0)" fill="rgb(41,6,42)" d="M 1719.65 1676.24 C 1721.72 1676.55 1723.39 1677.02 1725.34 1677.81 L 1726.11 1679.86 C 1724.46 1692.67 1720.43 1705.68 1717.29 1718.22 A 1418.7 1418.7 0 0 1 1630.58 1967 C 1622.2 1985.61 1610.15 2013.42 1597.94 2029.25 C 1595.49 2029.04 1595.19 2029.14 1593.34 2027.57 C 1592.86 2025.41 1593.21 2023.92 1594.15 2021.91 C 1597.09 2015.66 1601.44 2009.88 1604.56 2003.58 A 1494.04 1494.04 0 0 0 1638.02 1931.01 A 1464.86 1464.86 0 0 0 1695.95 1768.51 C 1704.66 1737.93 1711.44 1706.92 1719.65 1676.24 z"/>
<path transform="translate(0,0)" fill="rgb(253,244,227)" d="M 753.096 500.555 C 762.609 522.573 775.303 535.463 797.894 544.291 C 811.416 549.576 825.128 550.716 839.279 547.299 C 845.756 581.978 856.565 621.975 878.415 650.176 C 892.224 668 907.23 681.209 915.817 702.867 C 927.489 732.304 928.081 764.735 930.245 795.919 C 879.5 795.421 821.011 816.987 778.861 844.651 C 762.445 855.425 746.901 868.727 732.87 882.477 A 288.205 288.205 0 0 0 710.067 907.39 C 697.31 923.219 683.995 946.331 666.864 957.352 C 657.326 963.488 646.856 964.923 635.918 966.551 C 609.704 970.454 587.498 976.094 567.865 994.936 C 536.231 1025.3 548.357 1061.65 534.267 1074.93 C 520.796 1087.62 471.685 1075.62 471.445 1120.44 C 471.4 1128.89 478.741 1148.45 473.099 1154.07 C 466.231 1160.9 454.23 1163.91 445.432 1167.82 C 414.831 1181.39 397.031 1205.63 395.954 1239.59 C 395.578 1251.44 397.687 1263.3 403.098 1273.91 C 411.776 1290.93 432.073 1304.29 413.186 1322.58 C 408.308 1327.3 402.15 1330.82 396.545 1334.61 C 377.587 1347.4 363.704 1361.8 362.681 1386.02 C 361.525 1413.4 382.239 1430.5 382.243 1447.09 C 382.246 1460.28 366.479 1472.79 359.806 1483.67 A 81.8883 81.8883 0 0 0 348.445 1514.24 C 344.516 1539.93 355.475 1556.94 370.235 1576.48 C 373.924 1581.36 378.184 1586.52 379.423 1592.68 C 382.044 1605.71 374.422 1619.11 371.117 1631.41 A 81.5298 81.5298 0 0 0 390.849 1708.18 A 64.3686 64.3686 0 0 0 435.433 1727.6 C 440.397 1727.68 445.556 1726.98 450.4 1725.96 C 449.634 1733.87 449.091 1741.87 447.978 1749.73 C 438.678 1745.98 429.59 1744.46 419.991 1748.53 C 410.922 1752.38 408.4 1757.8 405.168 1766.49 C 396.631 1789.45 395.674 1816.34 390.912 1840.42 C 387.93 1855.49 382.751 1870.21 380.073 1885.26 C 379.305 1889.57 378.614 1894.29 379 1898.66 C 380.86 1919.72 391.899 1944.73 400.837 1963.95 C 410.247 1984.19 429.802 2024.06 447.157 2036.85 C 454.069 2041.94 462.507 2044.61 470.316 2048 L 193.726 2048 C 93.829 1890.02 60.8668 1729.8 87.0957 1544.7 C 95.2046 1487.47 107.31 1429.52 125.783 1374.71 C 164.59 1259.58 222.012 1151.48 284.797 1047.84 C 292.684 1034.82 299.869 1021.21 307.989 1008.39 C 314.599 997.951 322.329 988.231 329.045 977.857 A 2100.86 2100.86 0 0 1 511.289 732.206 A 1794.1 1794.1 0 0 1 682.164 561.586 C 704.385 541.914 729.671 518.157 753.096 500.555 z"/>
<path transform="translate(0,0)" fill="rgb(195,188,188)" d="M 1095.71 1677.37 C 1122.91 1588.41 1156.45 1501.44 1187.55 1413.81 C 1216.33 1332.7 1244.12 1251.79 1278.11 1172.63 C 1290.75 1143.18 1303.87 1110.62 1321.61 1083.78 C 1327.68 1074.59 1335.63 1068.59 1345.23 1063.48 C 1386.26 1041.64 1445.94 1030.43 1491.17 1044.5 C 1532.4 1057.32 1564.1 1092.47 1583.53 1129.71 C 1625.21 1209.61 1629.01 1311.25 1617.23 1398.84 C 1614.2 1421.4 1610.49 1444.05 1603.64 1465.81 C 1594.32 1495.36 1581.88 1524.95 1567.37 1552.32 C 1554.71 1576.23 1540.45 1598.89 1526.2 1621.86 C 1462.51 1724.59 1387.73 1823.76 1302.62 1909.8 C 1277.74 1934.95 1249.24 1963.35 1217.6 1979.81 C 1197.59 1990.23 1175.53 1996.85 1153.86 2002.92 C 1078.34 2024.11 1000.31 2032.99 922.443 2040.51 A 2455.32 2455.32 0 0 1 871.295 2044.86 C 861.548 2045.63 850.194 2045.55 840.782 2048 L 543.619 2048 C 510.952 1989.28 504.236 1947.21 507.459 1880.7 C 563.866 1865.45 620.907 1852.28 677.657 1838.35 A 7656.69 7656.69 0 0 0 866.401 1789.33 C 912.77 1776.58 958.424 1761.8 1004.55 1748.31 C 1016.04 1744.95 1037.45 1736.85 1048.5 1735.88 C 1068.48 1734.12 1093.78 1743.25 1110.88 1753.09 C 1132.54 1765.57 1149.12 1783.95 1161.31 1805.56 C 1163.56 1809.54 1165.74 1814.3 1170.97 1812.93 C 1172.18 1810.99 1172.46 1810.64 1171.98 1808.26 C 1171.08 1803.71 1167.76 1799.29 1165.29 1795.42 C 1152.97 1776.13 1138.25 1760.11 1118.65 1747.93 C 1097.37 1734.71 1074.45 1730.66 1050.2 1726.5 C 1052.39 1715.56 1054.92 1704.95 1064.67 1698.26 C 1077.18 1689.67 1094.25 1685.89 1108.46 1680.65 C 1123.41 1675.14 1137.9 1668.99 1152.07 1661.67 C 1226.1 1623.42 1287.45 1568.11 1337.16 1501.48 C 1342.9 1493.78 1357.02 1477.63 1358.75 1468.8 C 1359.13 1466.85 1359.17 1467.64 1357.95 1465.84 C 1354.59 1465.99 1352.92 1467.35 1350.69 1469.85 C 1345.49 1475.66 1341.25 1482.48 1336.61 1488.74 A 735.988 735.988 0 0 1 1308.04 1525.27 C 1246.54 1597.53 1183.77 1642.66 1095.71 1677.37 z"/>
<path transform="translate(0,0)" fill="rgb(195,188,188)" d="M 0 0 L 2048 0 L 2048 2048 L 1807.24 2048 L 1809.23 2046.93 C 1811.13 2046.55 1812.36 2046.08 1814.03 2045.08 C 1818.99 2035.59 1817.16 2013.19 1817.93 2001.92 C 1820 1971.47 1822.91 1941.04 1824.43 1910.55 C 1825.76 1883.65 1825.86 1856.71 1827.33 1829.8 C 1829.01 1798.92 1833.91 1768.3 1836.03 1737.45 C 1837.62 1714.31 1837.36 1690.99 1838.55 1667.79 C 1841.67 1607.27 1845.18 1547.4 1845.13 1486.77 C 1841.16 1411.19 1842.33 1335.2 1832.67 1259.99 C 1816.55 1134.45 1763.73 1011.76 1701.2 902.828 C 1682.65 870.519 1663.47 838.78 1641.78 808.485 C 1643.19 805.737 1645.04 802.882 1644.64 799.682 C 1643.84 793.291 1639.1 789.786 1634.54 785.921 C 1627.58 780.03 1599.78 736.426 1593.91 726.252 C 1590.12 719.677 1587.17 712.579 1583.04 706.209 C 1581.51 703.858 1579.35 701.013 1576.8 699.684 C 1560.12 690.993 1504.96 708.307 1486.67 712.751 C 1463.8 687.335 1426.01 637.262 1417.82 604.978 C 1413.69 588.714 1417.74 555.369 1418.72 537.338 C 1423.04 458.422 1429.74 370.566 1394.54 297.329 C 1387.11 281.863 1376.77 267.554 1367.22 253.347 C 1358.73 243.405 1350.93 232.835 1342.28 223.029 C 1317.04 194.425 1285.83 168.998 1251.16 153.075 C 1237.94 147.004 1223.97 141.409 1209.32 140.323 C 1194.09 139.194 1179.16 141.913 1164.93 147.197 C 1143.5 129.562 1101.79 125.891 1075.26 128.496 C 1010.68 134.839 950.416 175.395 910.274 224.787 C 895.724 242.689 883.944 266.339 865.744 280.512 C 856.939 287.369 846.588 291.549 836.268 295.537 C 796.246 311.004 779.76 320.879 774.724 365.918 C 754.769 372.031 739.237 381.063 729.18 399.967 C 720.616 416.066 717.929 435.561 723.575 453.075 C 728.132 467.207 737.103 475.748 749.48 483.239 C 750.661 488.967 750.985 495.098 753.096 500.555 C 729.671 518.157 704.385 541.914 682.164 561.586 A 1794.1 1794.1 0 0 0 511.289 732.206 A 2100.86 2100.86 0 0 0 329.045 977.857 C 322.329 988.231 314.599 997.951 307.989 1008.39 C 299.869 1021.21 292.684 1034.82 284.797 1047.84 C 222.012 1151.48 164.59 1259.58 125.783 1374.71 C 107.31 1429.52 95.2046 1487.47 87.0957 1544.7 C 60.8668 1729.8 93.829 1890.02 193.726 2048 L 0 2048 L 0 0 z"/>
<path transform="translate(0,0)" fill="rgb(253,244,227)" d="M 1367.22 253.347 C 1371.5 251.458 1385.82 256.325 1390.66 257.473 C 1436.73 268.393 1482.08 280.862 1526.31 297.945 C 1570.96 315.193 1611.86 338.597 1651.27 365.594 C 1739.41 425.961 1813.34 501.156 1870.1 591.822 C 1886.25 617.611 1901.32 644.144 1913.64 672 C 1950.11 754.517 1966.64 846.059 1967.89 935.93 C 1968.23 960.497 1966.55 985.041 1964.69 1009.52 C 1955.68 1128.26 1928.72 1245.23 1894.42 1359.02 C 1883.63 1394.81 1872.51 1431.19 1859.1 1466.1 C 1857.39 1470.54 1849.15 1492.77 1847.34 1494.89 L 1846.38 1494.34 C 1845.74 1491.78 1845.41 1489.38 1845.13 1486.77 C 1841.16 1411.19 1842.33 1335.2 1832.67 1259.99 C 1816.55 1134.45 1763.73 1011.76 1701.2 902.828 C 1682.65 870.519 1663.47 838.78 1641.78 808.485 C 1643.19 805.737 1645.04 802.882 1644.64 799.682 C 1643.84 793.291 1639.1 789.786 1634.54 785.921 C 1627.58 780.03 1599.78 736.426 1593.91 726.252 C 1590.12 719.677 1587.17 712.579 1583.04 706.209 C 1581.51 703.858 1579.35 701.013 1576.8 699.684 C 1560.12 690.993 1504.96 708.307 1486.67 712.751 C 1463.8 687.335 1426.01 637.262 1417.82 604.978 C 1413.69 588.714 1417.74 555.369 1418.72 537.338 C 1423.04 458.422 1429.74 370.566 1394.54 297.329 C 1387.11 281.863 1376.77 267.554 1367.22 253.347 z"/>
</svg>