<svg xmlns="http://www.w3.org/2000/svg" display="block" viewBox="0 0 2048 2048"><path fill="#29062a" d="M0 0h2048v2048H0z"/><path fill="#5e495b" d="M1540 708.283c2.27-.27 3.89-.405 6.11.159-3.75 3.015-38.4 22.622-41.56 23.259l-1.89-1.313a1046 1046 0 0 0-11.54-12.74c16.39-2.439 32.64-6.071 48.88-9.365m-336.82 325.937c1.64.05 3.7.21 5.22.93 4.19 2.01 6.9 6.54 8.46 10.75 6.18 16.63 3.92 40.31-1.82 56.82-1.94 5.59-4.92 10.94-7.38 16.34l-1.28.27c3.14-24.56-9.73-57.87-20.5-79.71 5.74-2.24 11.32-3.97 17.3-5.4"/><path fill="#c3bcbc" d="m486.921 1884.97 12.133-2.67c-.217 41.77.172 83.44 15.281 123.09 5.538 14.53 14.157 28.11 19.396 42.61h-9.742a315.1 315.1 0 0 1-37.068-163.03"/><path fill="#c3bcbc" d="m465.968 1889.73 12.885-3.66c-1.114 58.18 10.585 109.45 35.566 161.93h-9.491c-28.577-43.63-39.565-107.29-38.96-158.27M920.454 2048c13.383-1.97 27.066-2.74 40.538-4.09a1856 1856 0 0 0 72.828-8.52 1094 1094 0 0 0 62.17-10.1c12.08-2.43 24.11-5.95 36.22-8-.14 10.23-.1 20.5-.69 30.71z"/><path fill="#fdf4e3" d="M1015.58 153.447c-1.62 2.917-3.89 3.798-6.66 5.514-14.45 8.954-27.932 18.416-40.635 29.778-18.263 16.334-35.676 34.302-50.675 53.702-11.002 14.229-20.277 29.984-33.252 42.573-24.567 23.837-59.346 23.286-79.59 45.42-14.413 15.757-9.327 35.693-15.747 43.277-4.817 5.689-15.998 6.717-22.375 10.56-20.973 12.64-33.817 40.83-26.589 64.632 4.536 14.942 14.175 19.283 25.615 27.788-.708 13.602.753 23.823 10.175 34.522 5.648 6.414 12.561 11.028 20.042 15.062 14.656 7.319 25.16 9.671 41.413 8.339.186 1.772.271 3.524.353 5.303-6.34 4.005-15.941 2.469-22.982 1.145-18.945-3.562-37.276-13.939-48.166-30.13-7.177-10.67-8.851-20.13-6.384-32.472a155 155 0 0 1-5.411-2.489c-11.144-5.35-18.94-13.457-22.838-25.379-5.08-15.534-2.528-33.847 5.136-48.124 10.114-18.841 27.33-24.786 46.436-30.492-.55-10.204.115-20.763 3.677-30.424 13.612-36.92 57.979-32.984 84.453-54.129 14.687-11.73 25.13-29.979 36.114-45.132a282.8 282.8 0 0 1 107.89-88.844"/><path fill="#c3bcbc" d="m1627.7 792.237 2.09.032c3.35 2.801 5.22 5.602 7.47 9.323-14.4 1.772-28.31 4.697-42.29 8.524-32.94 9.02-66.92 21.45-96.36 38.901-24.82 14.718-46.07 32.758-67.43 51.988a861.3 861.3 0 0 0-172.38 215.535l-4.5 8.15c8.39-34.36 33.74-72 53.68-101.12 15.59-22.76 33.13-44.276 50.78-65.454 75.73-90.865 151.41-143.827 268.94-165.879M783.061 1484.74c.328.08.662.14.984.24 9.53 3.06 20.016 12.48 28.148 18.31 42.848 30.71 79.106 61.96 105.318 108.64-11.743-9.92-23.392-19.65-36.238-28.16-50.352-31.7-104.076-58.09-163.473-66.61 25.478-4.9 46.309-14.42 65.261-32.42"/><path fill="#fdf4e3" d="M451.9 1711.42c.012.39.043.78.035 1.17-.045 2.36.203 3.85-1.939 5.3-4.552 3.09-11.922 2.42-17.042 1.7-17.467-2.45-31.804-10.61-42.431-24.78-13.093-17.45-17.28-41.57-11.344-62.59 2.825-10 7.51-19.8 8.803-30.16 1.7-13.63-5.985-23.01-13.814-33.12-21.464-27.7-25.587-56.44-4.089-85.76 8.179-11.16 20.725-21.19 20.749-36.15.035-22.14-23.55-37.5-19.42-65.46 3.582-24.25 22.378-34.84 40.584-47.89 33.755-24.21 9.388-39.67-2.48-65.82a64.1 64.1 0 0 1-4.694-37.92c4.655-26.85 22.217-45.2 46.507-56.04 8.407-3.75 18.592-6.87 26.05-12.26 15.03-10.86.138-32.78 3.19-47.95 5.901-29.33 40.109-17.73 57.703-30.34 14.309-10.25 11.769-27.76 14.322-42.95 5.436-32.36 31.746-54.833 62.772-62.406 21.37-5.216 43.442-3.162 61.479-18.018 13.965-11.5 24.426-28.303 35.306-42.658a276.4 276.4 0 0 1 61.367-59.484c37.271-26.185 81.97-43.095 126.591-51.446 9.54-1.786 18.995-4.243 28.708-2.541 2.777 1.994 2.392 2.929 3.039 6.187-.347.18-.68.393-1.043.54-8.131 3.289-25.373 2.291-35.088 4-27.327 4.806-61.205 16.901-85.711 29.749-34.054 17.854-61.47 42.124-85.733 71.701-16.16 19.697-31.051 46.829-53.909 59.209-11.29 6.114-24.143 7.047-36.621 8.823-27.86 3.964-53.153 13.06-66.42 39.794-11.548 23.26-3.003 60.44-32.413 70.91-13.643 4.85-36.623 2.86-44.07 17.58-7.861 15.55 9.028 33.81-1.144 49.48-16.71 25.73-60.535 14.15-74.9 62.8-3.331 11.28-3.397 23.49.542 34.64 7.471 21.14 30.098 38.21 18.635 62.97-13.998 30.23-66.984 31.8-51.012 79.74 6.669 20.03 23.705 39.45 12.73 61.28-3.352 6.67-8.832 12.5-13.478 18.3-12.704 15.87-22.296 34.34-15.87 55.24 6.286 20.44 25.265 34.85 29.419 55.72 2.974 14.95-5.245 28.34-8.102 42.57-5.358 26.71 2.192 57.94 28.485 70.87 11.064 5.44 23.626 6.37 35.751 5.47"/><path fill="#c3bcbc" d="M429.304 1754.2c6.778-.53 11.672.4 18.015 2.6-5.561 36.75-4.711 78.4 3.809 114.53.849 3.6 2.137 11.44 4.354 14.4.715.96 3.191 1.56 3.785 2.52.078.13.069 38.1.679 44.03 3.539 34.43 15.494 85.5 34.749 114.89-10.025-2.59-20.066-4.98-29.687-8.87-4.97-2.25-10.907-4.8-14.985-8.43-18.249-16.22-44.383-72.34-53.624-96.73-3.689-9.74-9.037-22.55-9.43-33.01-.206-5.49.525-11.31 1.545-16.69 2.603-13.76 7.127-27.18 10.044-40.89 3.908-18.37 8.773-64.22 15.646-77.97 3.041-6.09 9.057-8.29 15.1-10.38M1474.48 874.729l1.12 1.091c3.14 9.366 1.84 21.914 1.75 31.71-.41 41.819-3.3 83.158-14.44 123.71a243.1 243.1 0 0 0-100.34 15.12c-13.14 4.94-30.17 12.02-39.79 22.67-15.92 17.61-26.11 43.52-36.22 64.76-38.38 80.58-69.04 165.88-98.09 250.2a8149 8149 0 0 1-30.84 89.13c-5.12 14.41-9.69 29.39-16.03 43.29l-.59 1.28-.31.48-.67-.86c.93-.3 1.59-1.78 2.15-2.58l.42.11.39-.32-2.98-1.98c6.36-10.86 13.81-50.94 17.36-65.45l18.16-72.38a1898 1898 0 0 1 35.45-128.33c7.77-24.84 15.51-49.56 25.75-73.52 42.48-99.3 151.22-234.291 237.75-298.131"/><path fill="#c3bcbc" d="M1572.91 706.991c6.01 4.499 15.98 25.601 20.58 33.126 9.15 14.98 20.39 28.661 29.03 43.954a289 289 0 0 0-36.86 8.37c-97.97 28.94-159.49 78.94-226.22 153.904-33.43 37.55-63.95 77.715-87.99 121.975-6.19 11.86-11.24 24.16-16.33 36.52 2.82-13.72 4.82-27.58 7.74-41.28 6.91-32.52 16.88-66.553 30.71-96.824 11.86-25.969 30.81-49.485 48.39-71.816 60.43-76.767 137.71-152.883 230.95-187.929M667.572 1517.86c11.896 2.23 24.295 2.59 36.314 4.24a412.3 412.3 0 0 1 68.001 15.87c47.768 15.9 117.554 55.05 151.566 90.94 15.106 15.93 27.219 35.45 39.936 53.33 11.942 16.79 25.104 34.85 34.257 53.3-36.047-43.18-85.013-93.81-133.918-121.93-16.324-9.39-33.574-16.27-51.592-21.63-39.263-11.68-79.151-12.99-115.844 7.19-60.472 33.25-90.315 102.65-108.115 165.91-4.648 16.51-15.109 65.63-14.763 81.83.053 2.49.892 4.29 2.071 6.38l1.647.34c1.889-1.76 2.558-3.51 3.149-5.96 1.995-8.27 2.671-17.23 4.061-25.67 3.033-18.41 6.329-36.96 11.001-55.03 8.575-33.16 21.684-68.94 40.08-97.96 13.651-21.53 31.115-39.78 51.071-55.52 22.974-15.94 48.917-23.67 76.794-22.4 99.459 4.55 170.012 83.89 232.225 152.45a6056 6056 0 0 1-377.441 101.3c-22.302 5.4-44.206 11.96-66.427 17.55a2159 2159 0 0 1-89.577 20.16c-15.949-41.55-10.85-127.69-.422-171.1 55.257-18.65 30.117-56.9 51.469-92.58 19.263-32.19 54.661-38.68 88.078-46.94 33.074-8.17 49.247-25.86 66.379-54.07"/><path fill="#5e495b" d="M1015.58 153.447c4.51-3.49 11.64-4.806 17.06-6.485 27.07-8.384 52.54-12.697 80.93-9.031 15.64 2.021 30.19 6.83 44.75 12.736-27.69 12.947-53.06 30.177-64.91 59.796-.92 2.299-.99 3.506-.34 5.855 1.15.288 1.8.814 2.88.107 6.83-4.485 12.26-18.407 17.66-25.108 21.59-26.818 66.43-47.493 101.01-42.725 53.4 7.363 114.72 68.465 146.5 110.832 56.09 74.769 55.68 160.8 51.07 249.879-1.23 23.802-1.24 48.633-4.26 72.228-16.05 15.944-33.49 22.661-56.04 22.634-19.11-.024-39.82-3.56-57.08-11.981 10.67-34 14.99-70.88-2.18-103.861-7.41-14.25-18.88-26.604-34.68-31.294-12.15-3.609-26.69-3.3-37.84 3.027-17.89 10.153-30.31 32.692-35.19 52.133-5.62 22.382-.51 60.362-9.27 76.812-2.3 1.182-4.11 1.452-6.63.596-14.17-4.816-26.62-36.216-42.21-46.821-21.25-14.448-47.25-13.093-69.94-23.48 24.53 4.876 49.58 5.941 74.21 1.178 5.26-1.015 11.52-1.869 16.09-4.812 1.72-1.11 1.62-1.287 2.49-2.946-1.15-2.045-2.02-2.707-4.37-3.239-9.31-2.101-20.73 4.22-30.23 5.165-13.32 1.328-27.37 1.226-40.66-.465-13.39-1.705-28.6-5.676-40.77-11.58-5.11-2.479-10.71-10.009-16.17-10.434l.06-2.723c35.1 10.834 61.41 15.095 98.09 9.716 15.33-2.248 65.12-14.794 73.78-27.845 1.06-1.608.69-1.57.34-3.299-.58-.266-1.11-.729-1.74-.798-.73-.08-27.02 12.199-30.57 13.585-30.79 12.036-68.64 15.288-101.26 10.631-21.59-3.083-46.83-11.037-60.142-29.616-11.373-15.873-11.761-38.112-6.59-56.368 2.257-7.966 5.896-16.431 6.938-24.638.294-2.31.523-2.742-.922-4.651-2.939 1.564-4.142 5.975-5.874 8.76-13.802 22.202-56.973 28.006-80.597 24.477-6.532-.977-13.103-2.202-19.507-3.827-7.913-2.008-22.518-9.234-30.101-7.283l.223 1.627c4.327 4.086 9.497 7.051 14.984 9.311 35.026 14.426 73.992 9.394 107.988-5.047-1.942 2.351-4.004 4.612-6.023 6.897-4.33 5.213-8.845 10.174-14.079 14.511-4.491-2.349-6.807-1.466-11.438-.001-27.025 8.549-49.301 14.751-77.654 8.056-6.626-1.565-40.331-14.153-43.058-10.996 9.051 11.612 41.926 18.95 55.929 20.664 27.246 3.334 49.309-4.142 73.602-15.718-23.659 24.913-50.699 42.409-85.616 43.406-27.758.792-49.198-6.409-72.812-20.666-3.809-2.3-10.537-8.281-14.396-5.787-.032 3.318 1.268 4.855 3.552 7.202 17.529 18.012 50.274 27.947 74.932 27.665 9.424-.108 18.796-1.103 28.198-1.395-19.431 6.853-38.901 12.741-59.673 13.089-6.963.117-15.419-1.878-22.07-1.134-1.747.195-2.222.469-3.173 1.823l.08 2.369c6.536 4.176 22.405.513 26.43 6.093-.82 3.161-3.842 5.066-6.524 6.638-8.836 5.177-24.007 7.872-30.67 15.505 2.433 1.503 3.295 2.599 6.25 1.854 8.517-2.148 20.728-9.198 29.918-12.4 1.041 7.558 2.346 15.17 3.037 22.764-16.253 1.332-26.757-1.02-41.413-8.339-7.481-4.034-14.394-8.648-20.042-15.062-9.422-10.699-10.883-20.92-10.175-34.522-11.44-8.505-21.079-12.846-25.615-27.788-7.228-23.802 5.616-51.992 26.589-64.632 6.377-3.843 17.558-4.871 22.375-10.56 6.42-7.584 1.334-27.52 15.747-43.277 20.244-22.134 55.023-21.583 79.59-45.42 12.975-12.589 22.25-28.344 33.252-42.573 14.999-19.4 32.412-37.368 50.675-53.702 12.703-11.362 26.185-20.824 40.635-29.778 2.77-1.716 5.04-2.597 6.66-5.514"/><path fill="#29062a" d="M1026.25 325.669c2.08.621 2.96 1.028 4.39 2.674-.24.947-.24 1.242-.89 2.144-6.05 8.303-29.37 17.248-39.502 19.273l-1.003-.14c-1.956-1.553-2.402-1.822-3.269-4.127.263-.55.355-1.222.79-1.65 2.434-2.394 16.704-6.449 21.034-8.259 6.51-2.718 12.47-6.192 18.45-9.915m57.76-73.988 2.77 1.48.29 1.985c-4.9 6.972-13.29 12.816-19.56 18.658-6.39 5.965-12.48 12.304-18.68 18.482l-1.32-.556c-.77-1.522-1.39-1.93-1.01-3.68 2.52-11.635 27.66-30.609 37.51-36.369"/><path fill="#c3bcbc" d="m979.573 414.485.09 1.311c.29 4.84-.747 9.766-.668 14.636.279 17.241 7.816 36.35 20.813 47.804 5.302 4.671 11.422 8.055 17.712 11.204l-.06 2.723c3.31 6.81 10.85 11.761 16.67 16.427 9.39 7.521 19.87 17.14 31.09 21.648 19.28 7.74 39.59 6.724 57.25 19.573 12.44 9.04 19.96 22.351 28.91 34.507 4.7 6.39 12.85 14.064 21.11 15.002 2.74.312 5.07-.513 7.16-2.306 11.6-9.992 8.15-52.157 10.03-67.674 2.6-21.392 12.02-45.151 29.63-58.558 8.46-6.444 17.6-9.743 28.28-8.008 13.54 2.198 24.84 10.24 32.6 21.341 14.89 21.297 19.75 50.167 15.28 75.472-2.86 16.15-16.74 58.409-33.77 63.469-5.97 1.774-13.77-1.703-18.87 1.856l.08 1.603c1.92 1.994 4.13 3.048 6.65 4.16 5.8 2.552 12.67.99 18.22-1.551 12.16-5.571 19.2-20.591 23.48-32.423 12.82 7.439 27.04 11.804 41.69 13.829 28.69 3.965 51-.705 74.26-18.136 4.85 49.378 60.22 106.515 90.32 144.807-18.9 13.164-38.29 26.399-55.99 41.132-54.69 45.495-99.74 101.553-140.85 159.242-20.61-22.387-37.21-46.585-62.57-64.24 11.67-16.591 28.7-41.861 29.74-62.713l-1.07-1.133c-4.69 2.348-18.85 34.904-23.37 42.152-8.54 13.709-19.06 26.892-29.83 38.929-14.04 15.708-39.29 43.638-61.97 43.992-19.78.309-103.04-54.893-119.99-70.439-12.51-11.472-21.42-26.182-33.77-37.579-.29-.268-.587-.528-.881-.791-8.743 1.208-17.38 3.347-26.115 4.687-8.223 1.262-17.933 1.837-24.864-3.571-8.941-6.976-11.275-76.279-13.856-91.467-4.707-27.698-13.524-50.887-32.053-72.26-8.529-9.839-17.286-19.171-23.908-30.469-21.044-35.901-32.39-91.517-36.473-133.081 57.505-12.155 105.144-35.742 139.863-85.107"/><path fill="#29062a" d="M1012.83 802.604c2.67.302 3.8.455 5.47 2.425-.04.344-.03.698-.13 1.032-1.78 6.471-17.18 13.988-22.699 17.209-1.603.417-2.491.281-4.111.095l-1.106-1.61c3.145-7.761 16.926-11.849 22.576-19.151m225.19-249.447c4.07-.477 8.44-.888 12.39.387 5.69 1.833 10.21 6.335 12.59 11.746 3.04 6.935 2.84 15.561-.08 22.503-2.01 4.786-6.46 11.139-11.59 12.882-2.33.791-3.98.283-6.09-.678-.93-2.308-1.03-2.602-.58-5.035 4.85-2.411 8.84-5.64 10.74-10.889 1.59-4.396 2.51-12.362.15-16.657-6.86-12.481-21.09 1.104-29.75-2.079.11-.535.17-1.084.33-1.607 1.68-5.527 7.12-8.322 11.89-10.573m-132.8 239.176c3.04.642 3.93.532 6.15 2.824.43 6.224-4.48 16.506-7.58 22.071-11.64 20.912-32.66 34.525-55.18 41.234-.39.052-.77.136-1.16.155-2.67.126-3.36.371-5.49-1.284.16-.6.24-1.224.46-1.801 1.93-5.001 19.57-9.615 24.44-12.463 20.45-11.95 32.24-28.058 38.36-50.736m139.53-317.199c3.5-.228 7.73-.775 11.14.241 2.71.81 4.76 2.076 6.25 4.514l-.49 1.918c-2.98 1.626-9.22.643-12.81.716-7.19.145-15.46 6.521-20.19 11.589-14.6 15.661-14.09 38.202-13.66 58.138.37 3.868.35 6.15-2.21 9.351l-2.01-.636c-1.64-2.06-2.53-4.206-3.33-6.693-4.86-15.205-.24-38.975 7.02-52.957 6.72-12.914 16.33-21.791 30.29-26.181M951.798 644.217c.33.07.664.124.99.209 8.183 2.136 13.194 19.508 17.274 26.347 3.211 5.383 7.76 10.05 14.092 11.384 9.211 1.94 21.236-2.329 28.826-7.393.48-.322.95-.662 1.43-.987 9.03-6.111 11.01-20.235 19.91-25.184l.67 1.368c-1.11 8.337-4.3 14.875-8.03 22.293-6.48 11.251-13.11 23.059-23.09 31.627-5.217 4.48-13.458 10.51-20.679 9.593-3.147-.399-5.245-1.872-6.993-4.458-4.323-6.396-1.735-16.28-.607-23.301-11.413-8.584-17.818-28.598-23.793-41.498m59.672-74.881c8.13-1.058 20.57-1.616 28.48.646 3.24.925 5.97 2.233 7.7 5.147-.62 1.283-.69 2.04-2.04 2.759-7.3 3.911-22.89 3.453-32.19 6.948-28.635 10.759-55.29 26.084-84.223 36.304-8.171 2.088-22.168 5.836-29.808.915-2.786-1.794-5.782-4.989-6.171-8.41-.245-2.15.548-4.101 1.829-5.781 10.048-13.174 97.289-35.673 116.423-38.528"/><path fill="#5e495b" d="m1022.39 575.431 3.88.1-.49.855a1026 1026 0 0 0-48.746 17.236c-22.051 8.646-45.382 23.72-69.634 23.076-.996-.263-1.427-.328-2.422-.849-2.288-1.198-3.281-2.513-4.051-4.876l1.128-1.822c8.388-4.477 18.826-6.427 27.877-9.37 28.531-9.276 62.128-23.341 92.458-24.35"/><path fill="#fdf4e3" d="M1233.58 881.017c20.11 8.677 48.18 45.486 62.08 63.619-26.21 41.574-39.52 105.394-47.03 153.754-2.37 15.29-1.94 31.39-5.91 46.33-4.44 16.73-16.17 37.46-22.37 54.95-15.7 44.24-28.9 89.62-41.52 134.81-7.45 26.71-13.74 53.66-20.59 80.52-6.86 26.89-14.34 53.55-20.51 80.63-4.99 21.88-8.02 45.87-13.56 67.04-3.99 15.22-9.34 30.29-14.14 45.28-7.69 24-15.32 48.09-24 71.76-14.52 5.34-29.86 9.28-37.06 24.48-3.52 7.43-4.88 16.41-6.58 24.44-11.59 3.85-23.31 6.87-35.14 9.85-9.46-16.79-19.293-33.55-30.192-49.45-7.833-11.43-16.62-22.34-24.046-34.02-7.396-11.64-13.592-24.13-20.598-36.02-22.891-38.84-41.305-61.64-75.178-91.81 12.167-18.79 24.167-40.42 39.478-56.84 23.02 21.96 58.431 43.46 91.371 42.97 10.719-.16 20.765-3.99 28.275-11.77 9.69-10.05 15.33-27.38 25.7-40.16l-1.41-1.62c-17.97 5.64-17.35 24.89-29.52 36.63-7.65 7.38-17.627 10.11-28.046 9.56-9.544-.51-19.37-3.36-28.333-6.52-32.969-11.63-53.946-32.09-74.306-59.62-5.544-7.5-8.979-17.74-15.346-24.4-1.691-1.77-1.998-1.62-4.306-1.58-.927 1-1.827 1.48-1.879 2.94-.362 10.08 24.843 40.61 31.981 49.21-15.044 17.49-26.4 37.26-39.715 56.01a1583 1583 0 0 1-61.31-44.47c8.255-11.81 16.02-24.12 21.532-37.48 21.997-53.34 13.219-115.34 6.802-171.01 4.399 1.65 12.605 4.84 17.298 2.97 2.786-1.11 3.003-1.92 4.238-4.46l-.73-1.7c-6.505-.76-14.692-.98-20.729-3.51-18.526-7.76-31.363-26.9-38.501-44.86-9.643-24.27-8.742-50.89 1.806-74.75 5.78-13.07 14.86-23.63 28.574-28.64 8.201-2.99 17.235-3.15 25.166.77 26.471 13.07 30.411 41.04 32.106 67.24.469 7.26.414 16.45 3.124 23.25.898 2.26 2.542 4.18 4.978 4.87 2.425.69 3.514.28 5.503-.87.171-3.8-4.113-8.6-5.639-12.36l.734-1.66c3.141.07 6.509.05 9.535-.91 16.409-5.24 31.181-23.72 39.037-38.23 50.656-1.31 94.866-14.6 136.536-43.76 18.85-13.19 37.07-27.66 56.49-39.99a366 366 0 0 1 63.21-31.36c6.61 15.93 12.9 31.88 15.95 48.93 9.19 51.42-8.73 107.15-35.34 150.78-7.74 12.69-21.98 27.14-25.26 41.7-6.1 27.11 4.37 85.92-.94 101.76-.6 1.8-.72 2.35-2.46 3.04-5.94 2.36-51.15-3.5-55.12-7.69-3.26-3.43-3.47-10.67-8.1-12.89-1.18 3.01-1.21 6.49-.33 9.63 2.32 8.29 11.41 11.94 18.3 15.73l.88-.03c12.8-.08 39.6 10.71 50.05 1.25 5.07-4.59 5.53-14.11 5.54-20.48.07-26.52-6.84-64.33.91-89.43 4.94-15.98 26.29-41.73 35.2-59.5 9.33-18.6 16.67-38.87 21.04-59.23 1.6-7.42 1.54-15.69 3.7-22.9 3.47-11.57 11.41-22.68 16.03-34.03 20.09-49.33 26.81-99.82-14.26-140.206-11.56-11.362-25.33-19.492-38.33-28.943 26.45-14.526 44.53-36.213 65.18-57.544"/><path fill="#29062a" d="M1104 1231.45c2.86.34 4.07.19 6.38 1.99.67 9.75-15.12 39.55-20.27 48.16 5.6 1.12 11.89 1.5 15.76 6.14l-.4 1.92c-2.74 1.59-5.55 1.78-8.66 1.76-20.13-.14-45.41-16.16-58.86-30.3-3.88-5.32-8.86-11.92-10.2-18.48-.61-2.97-.39-4.96 1.29-7.45 1.96-.05 2.4-.28 3.66 1.22 4.67 5.52 8.19 12.79 12.42 18.74 8.95 12.62 27.52 20.29 41.53 25.41 5-16.61 11.84-32.65 17.35-49.11m-48.9 197.05c-14.27-2.34-28.46-5.31-39.89-14.82-6.6-5.49-12.16-13.81-12.79-22.59-.29-4.1.45-8.58 3.16-11.77 2.64-.58 2.5-.47 4.85.92 1.35 3.56.07 9.44-.24 13.26 1.4 2.93 2.85 6.11 4.88 8.66 10.24 12.91 30.09 17.11 45.56 19.11 5.87.76 10.8.89 15.63-2.83 1.65-3.83.69-9.05.46-13.16 3.47-4.43 7.42-8.43 11.29-12.51 1.54 1.8 2.63 2.62 2.07 5.24-.73 3.45-3.72 6.17-4.86 9.47-2.16 6.29-.1 17.27-7.42 20.22-4.6 1.86-10.05 2.03-14.96 2.32.6 8.4 2.47 19.8-3.86 26.63-4 4.31-10.32 4.95-15.87 4.8-.35-.01-.7-.05-1.05-.07l-1.41-1.62c-12.18-7.69-21.28-17.38-27.01-30.6 11.02 6.29 18.81 17.27 30.52 22.54 3.6 1.62 5.88 1.89 9.57.48 4.06-4.92 1.31-17.15 1.37-23.68m-234.707-303.18c7.304.98 13.588 3.01 19.12 8.08 8.402 7.72 12.946 19.18 13.115 30.47.515 34.34-27.188 22.06-38.166 34.55-5.178 5.88 14.194 22.72 13.608 31.25-.196 2.84-2.304 5.64-4.309 7.56-1.821 1.75-4.213 2.85-6.777 2.62-6.995-.61-13.491-8.59-17.377-13.86-3.301-4.47-7.838-11.76-6.932-17.51l1.668-.47c3.502 2.4 4.984 5.64 6.934 9.26 3.021 4.81 8.762 11.54 14.145 13.64 2.074.81 2.407.49 4.254-.44 1.332-6.33-9.435-16.63-12.274-22.5-1.405-2.91-1.5-7.56-.444-10.59 3.337-9.58 18.628-10.89 26.651-15.03 4.867-2.51 8.589-6.07 10.173-11.43 2.37-8.01-.093-18.88-3.992-26.05-2.948-5.42-7.639-10.05-13.755-11.66-14.526-3.83-16.337 8.74-26.18 14.17l-1.367-.76c-.213-3.61 1.118-6.56 3.071-9.53 4.787-7.3 10.506-10.13 18.834-11.77m250.817 45.1a119 119 0 0 1 20.27 1.55c15.75 2.49 56.2 10.52 64.97 23.52 1.51 2.24 2.6 4.86 1.94 7.58-.51 2.14-2.45 3.46-4.29 4.42-9.51 4.99-20.89 2.48-30.34-.97-20.93-8.62-41.52-14.32-64.06-16.88-7.33-.83-24.18.4-29.5-3.68-1.16-2.33-1.28-2.25-.6-4.73 8.54-8.73 30.07-10.17 41.61-10.81"/><path fill="#5e495b" d="M1062.5 1177.3c21.74-2.53 58.98 6.21 78.46 16.48 3.02 1.59 5.99 3.21 6.98 6.6l-1.84 1.58c-4.61 1.26-8.82.71-13.5.33-11.18-3.89-21.99-8.69-33.4-11.95-19.61-5.6-38.53-6.06-58.65-7.76 7.3-2.12 14.44-4.09 21.95-5.28"/><path fill="#5e495b" d="M931.852 810.034c-.865 6.341 1.26 14.353 5.324 19.385 5.029 6.228 13.507 8.796 21.204 9.376 12.265.924 24.266-2.778 36.312-4.368 12.048 13.79 23.688 28.271 37.608 40.242 18.6 16.003 75.7 52.104 98.21 62.246 6.42 2.893 13.67 5.417 20.72 6.013 3.23.274 6.53.166 9.77.086 28.74 18.362 58.79 39.401 66.36 75.026 3.58 16.85 2.36 32.06-.49 48.86-1.04-11.01-2.17-26.87-11.06-34.73-4.63-4.11-11.44-4.53-17.31-3.85-12.54 1.48-25.39 7.31-36.66 12.71a418 418 0 0 0-64.46 37.79c-14.69 10.29-28.85 21.65-43.96 31.29a261.7 261.7 0 0 1-52.08 26.08c-27.424 10.09-53.463 11.78-82.01 14.64-6.813 14.5-18.868 30.06-34.327 35.99-3.184 1.22-6.658 1.83-9.996 2.48-1.558-26.86-2.538-55.37-24.485-74.47-8.83-7.69-19.906-11.83-31.661-10.9-14.149 1.12-26.409 9.53-35.145 20.32-15.211 18.79-21.347 44.98-18.716 68.75 2.672 24.14 15.931 52.2 35.259 67.4 3.692 2.9 7.635 5.35 11.686 7.72 5.714 65.48 18.829 148.41-27.425 203.02-18.456 21.79-45.272 37.24-73.979 39.55-15.858 1.27-31.419-2.17-47.163-1.6-10.65 23.76-25.938 42.3-50.729 51.86-14.224 5.48-29.483 7.54-44.156 11.45-27.791 7.41-52.988 23.93-65.217 50.82-8.974 19.73-3.108 42.89-15.213 61.23-9.968 15.11-34.712 21.77-36.725 25.58l.562 1.39c-12.125.9-24.687-.03-35.751-5.47-26.293-12.93-33.843-44.16-28.485-70.87 2.857-14.23 11.076-27.62 8.102-42.57-4.154-20.87-23.133-35.28-29.419-55.72-6.426-20.9 3.166-39.37 15.87-55.24 4.646-5.8 10.126-11.63 13.478-18.3 10.975-21.83-6.061-41.25-12.73-61.28-15.972-47.94 37.014-49.51 51.012-79.74 11.463-24.76-11.164-41.83-18.635-62.97-3.939-11.15-3.873-23.36-.542-34.64 14.365-48.65 58.19-37.07 74.9-62.8 10.172-15.67-6.717-33.93 1.144-49.48 7.447-14.72 30.427-12.73 44.07-17.58 29.41-10.47 20.865-47.65 32.413-70.91 13.267-26.734 38.56-35.83 66.42-39.794 12.478-1.776 25.331-2.709 36.621-8.823 22.858-12.38 37.749-39.512 53.909-59.209 24.263-29.577 51.679-53.847 85.733-71.701 24.506-12.848 58.384-24.943 85.711-29.749 9.715-1.709 26.957-.711 35.088-4 .363-.147.696-.36 1.043-.54"/><path fill="#29062a" d="M1165.21 984.275c9.59-.986 18.88-.34 27.78 3.723 16.37 7.483 28.09 22.492 34.24 39.002-9.2-8.35-16.08-18.77-25.76-26.86a152 152 0 0 0-3-1.969c-30.24-19.251-47.44-.795-75.04 5.089-.35.08-.71.14-1.06.21 13.28-10.928 25.95-16.01 42.84-19.195m-103.88 93.675.98.49c-.04.28-.05.58-.13.85-2.22 7.3-27.52 21.98-34.4 25.76-43.57 23.96-96.897 38.43-146.09 24.1-1.842-.98-2.093-1.22-3.247-2.81 1.265-1.44.702-1.44 2.214-1.48 5.354-.12 11.89 1.98 17.282 2.84 6.953 1.11 14.201 1.36 21.236 1.3 53.037-.41 98.795-22.73 142.155-51.05m-274.12 315.52c.459.32.967.58 1.378.96 1.064.98 1.593 1.96 1.648 3.38.202 5.24-3.934 12.38-6.429 17.01-12.76 23.63-29.409 37.6-49.995 54.18-4.798 3.87-10.554 6.74-14.652 11.36l.649.94c17.932-.11 40.33-29.53 49.343-31.51-.082.51-.071 1.04-.245 1.53-4.911 13.79-23.461 25.45-35.156 32.59a93 93 0 0 1-9.502 4.84c-12.426 5.49-39.656 17.76-53.129 11.93-3.512-1.51-5.779-4.34-6.929-7.95-1.169-3.66-1.43-7.74.676-11.12 5.948-9.54 27.251-10.36 37.387-12.38 33.34-6.66 54.639-22.19 72.082-51.62 4.642-7.83 7.859-16.62 12.874-24.14"/><path fill="#fdf4e3" d="m724.538 1471.35-.171 1.33c-12.077 11.44-34.654 21.64-51.322 21.43-.993-3.2-1.596-5.32-1.026-8.66 1.329-1.88 1.725-2.78 3.94-3.62 9.801-3.73 36.219-7.49 48.579-10.48"/><path fill="#c3bcbc" d="M1482.63 868.754c40.51-25.695 102.74-54.204 150.94-58.181 30.77 39.829 56.39 86.446 80.23 130.714 52.96 98.343 94.63 204.563 109.96 315.713 6.73 48.79 8.53 97.79 10.44 146.94 1.83 47.2 3.82 94.7 2.74 141.94-.76 33.58-3.71 67.08-5.87 100.59-2.48 38.36-1.1 76.59-5.25 114.9-2.72 25.08-5.92 50.12-7.29 75.33-1.54 28.59-1.16 57.21-2.98 85.8-1.38 21.82-9.79 110.04-6.32 124.43l-1.99 1.07h-667.21l-.29-32.12c28.28-11.88 56.52-14.33 84.86-30.21 74.1-41.52 184.44-181.03 236.46-252.36 15.24-20.88 29.08-42.75 44.14-63.71 20.1-6.46 38.58-14.07 55.93-26.29 9.58-6.76 34.09-23.88 36.06-35.33l-.9-1.02c-5.7-.37-22.84 16.51-28.53 20.88-16.8 12.9-34.23 24.85-54.76 30.79 3.25-5.57 16.72-30.49 21.41-32.69.15-.07 3.18-.1 3.44-.18 4.51-1.3 25.13-20.74 29.68-25.12a441 441 0 0 0 107.82-169.16c3.03-8.69 9.11-21.49 8.86-30.46-.08-2.78-.49-3.65-2.5-5.49-5.85 1.35-8.46 16.82-9.91 21.95-20.36 71.97-75.67 149.32-131.14 198.44 7.12-14.6 16.75-28.31 24.57-42.59 26.72-48.74 48.65-98.72 57.54-153.88 16.54-102.58 12.55-236.7-50.86-323.8-24.71-33.94-59.88-57.48-101.46-64.04 12.53-42.013 16.32-86.818 15.07-130.523-.31-10.76-.28-21.836-2.89-32.333"/><path fill="#29062a" d="M1719.65 1676.24c2.07.31 3.74.78 5.69 1.57l.77 2.05c-1.65 12.81-5.68 25.82-8.82 38.36a1418.7 1418.7 0 0 1-86.71 248.78c-8.38 18.61-20.43 46.42-32.64 62.25-2.45-.21-2.75-.11-4.6-1.68-.48-2.16-.13-3.65.81-5.66 2.94-6.25 7.29-12.03 10.41-18.33a1494 1494 0 0 0 33.46-72.57 1465 1465 0 0 0 57.93-162.5c8.71-30.58 15.49-61.59 23.7-92.27"/><path fill="#fdf4e3" d="M753.096 500.555c9.513 22.018 22.207 34.908 44.798 43.736 13.522 5.285 27.234 6.425 41.385 3.008 6.477 34.679 17.286 74.676 39.136 102.877 13.809 17.824 28.815 31.033 37.402 52.691 11.672 29.437 12.264 61.868 14.428 93.052-50.745-.498-109.234 21.068-151.384 48.732-16.416 10.774-31.96 24.076-45.991 37.826a288 288 0 0 0-22.803 24.913c-12.757 15.829-26.072 38.941-43.203 49.962-9.538 6.136-20.008 7.571-30.946 9.199-26.214 3.903-48.42 9.543-68.053 28.385-31.634 30.364-19.508 66.714-33.598 79.994-13.471 12.69-62.582.69-62.822 45.51-.045 8.45 7.296 28.01 1.654 33.63-6.868 6.83-18.869 9.84-27.667 13.75-30.601 13.57-48.401 37.81-49.478 71.77-.376 11.85 1.733 23.71 7.144 34.32 8.678 17.02 28.975 30.38 10.088 48.67-4.878 4.72-11.036 8.24-16.641 12.03-18.958 12.79-32.841 27.19-33.864 51.41-1.156 27.38 19.558 44.48 19.562 61.07.003 13.19-15.764 25.7-22.437 36.58a81.9 81.9 0 0 0-11.361 30.57c-3.929 25.69 7.03 42.7 21.79 62.24 3.689 4.88 7.949 10.04 9.188 16.2 2.621 13.03-5.001 26.43-8.306 38.73a81.53 81.53 0 0 0 19.732 76.77 64.37 64.37 0 0 0 44.584 19.42c4.964.08 10.123-.62 14.967-1.64-.766 7.91-1.309 15.91-2.422 23.77-9.3-3.75-18.388-5.27-27.987-1.2-9.069 3.85-11.591 9.27-14.823 17.96-8.537 22.96-9.494 49.85-14.256 73.93-2.982 15.07-8.161 29.79-10.839 44.84-.768 4.31-1.459 9.03-1.073 13.4 1.86 21.06 12.899 46.07 21.837 65.29 9.41 20.24 28.965 60.11 46.32 72.9 6.912 5.09 15.35 7.76 23.159 11.15h-276.59c-99.897-157.98-132.86-318.2-106.63-503.3 8.109-57.23 20.214-115.18 38.687-169.99 38.807-115.13 96.229-223.23 159.014-326.87 7.887-13.02 15.072-26.63 23.192-39.45 6.61-10.439 14.34-20.159 21.056-30.533a2101 2101 0 0 1 182.244-245.651 1794 1794 0 0 1 170.875-170.62c22.221-19.672 47.507-43.429 70.932-61.031"/><path fill="#c3bcbc" d="M1095.71 1677.37c27.2-88.96 60.74-175.93 91.84-263.56 28.78-81.11 56.57-162.02 90.56-241.18 12.64-29.45 25.76-62.01 43.5-88.85 6.07-9.19 14.02-15.19 23.62-20.3 41.03-21.84 100.71-33.05 145.94-18.98 41.23 12.82 72.93 47.97 92.36 85.21 41.68 79.9 45.48 181.54 33.7 269.13-3.03 22.56-6.74 45.21-13.59 66.97-9.32 29.55-21.76 59.14-36.27 86.51-12.66 23.91-26.92 46.57-41.17 69.54-63.69 102.73-138.47 201.9-223.58 287.94-24.88 25.15-53.38 53.55-85.02 70.01-20.01 10.42-42.07 17.04-63.74 23.11-75.52 21.19-153.55 30.07-231.417 37.59a2455 2455 0 0 1-51.148 4.35c-9.747.77-21.101.69-30.513 3.14H543.619c-32.667-58.72-39.383-100.79-36.16-167.3 56.407-15.25 113.448-28.42 170.198-42.35a7657 7657 0 0 0 188.744-49.02c46.369-12.75 92.023-27.53 138.149-41.02 11.49-3.36 32.9-11.46 43.95-12.43 19.98-1.76 45.28 7.37 62.38 17.21 21.66 12.48 38.24 30.86 50.43 52.47 2.25 3.98 4.43 8.74 9.66 7.37 1.21-1.94 1.49-2.29 1.01-4.67-.9-4.55-4.22-8.97-6.69-12.84-12.32-19.29-27.04-35.31-46.64-47.49-21.28-13.22-44.2-17.27-68.45-21.43 2.19-10.94 4.72-21.55 14.47-28.24 12.51-8.59 29.58-12.37 43.79-17.61 14.95-5.51 29.44-11.66 43.61-18.98 74.03-38.25 135.38-93.56 185.09-160.19 5.74-7.7 19.86-23.85 21.59-32.68.38-1.95.42-1.16-.8-2.96-3.36.15-5.03 1.51-7.26 4.01-5.2 5.81-9.44 12.63-14.08 18.89a736 736 0 0 1-28.57 36.53c-61.5 72.26-124.27 117.39-212.33 152.1"/><path fill="#c3bcbc" d="M0 0h2048v2048h-240.76l1.99-1.07c1.9-.38 3.13-.85 4.8-1.85 4.96-9.49 3.13-31.89 3.9-43.16 2.07-30.45 4.98-60.88 6.5-91.37 1.33-26.9 1.43-53.84 2.9-80.75 1.68-30.88 6.58-61.5 8.7-92.35 1.59-23.14 1.33-46.46 2.52-69.66 3.12-60.52 6.63-120.39 6.58-181.02-3.97-75.58-2.8-151.57-12.46-226.78-16.12-125.54-68.94-248.23-131.47-357.162-18.55-32.309-37.73-64.048-59.42-94.343 1.41-2.748 3.26-5.603 2.86-8.803-.8-6.391-5.54-9.896-10.1-13.761-6.96-5.891-34.76-49.495-40.63-59.669-3.79-6.575-6.74-13.673-10.87-20.043-1.53-2.351-3.69-5.196-6.24-6.525-16.68-8.691-71.84 8.623-90.13 13.067-22.87-25.416-60.66-75.489-68.85-107.773-4.13-16.264-.08-49.609.9-67.64 4.32-78.916 11.02-166.772-24.18-240.009-7.43-15.466-17.77-29.775-27.32-43.982-8.49-9.942-16.29-20.512-24.94-30.318-25.24-28.604-56.45-54.031-91.12-69.954-13.22-6.071-27.19-11.666-41.84-12.752-15.23-1.129-30.16 1.59-44.39 6.874-21.43-17.635-63.14-21.306-89.67-18.701-64.58 6.343-124.844 46.899-164.986 96.291-14.55 17.902-26.33 41.552-44.53 55.725-8.805 6.857-19.156 11.037-29.476 15.025-40.022 15.467-56.508 25.342-61.544 70.381-19.955 6.113-35.487 15.145-45.544 34.049-8.564 16.099-11.251 35.594-5.605 53.108 4.557 14.132 13.528 22.673 25.905 30.164 1.181 5.728 1.505 11.859 3.616 17.316-23.425 17.602-48.711 41.359-70.932 61.031a1794 1794 0 0 0-170.875 170.62 2101 2101 0 0 0-182.244 245.651c-6.716 10.374-14.446 20.094-21.056 30.533-8.12 12.82-15.305 26.43-23.192 39.45-62.785 103.64-120.207 211.74-159.014 326.87-18.473 54.81-30.578 112.76-38.687 169.99-26.23 185.1 6.733 345.32 106.63 503.3H0z"/><path fill="#fdf4e3" d="M1367.22 253.347c4.28-1.889 18.6 2.978 23.44 4.126 46.07 10.92 91.42 23.389 135.65 40.472 44.65 17.248 85.55 40.652 124.96 67.649 88.14 60.367 162.07 135.562 218.83 226.228 16.15 25.789 31.22 52.322 43.54 80.178 36.47 82.517 53 174.059 54.25 263.93.34 24.567-1.34 49.111-3.2 73.59-9.01 118.74-35.97 235.71-70.27 349.5-10.79 35.79-21.91 72.17-35.32 107.08-1.71 4.44-9.95 26.67-11.76 28.79l-.96-.55c-.64-2.56-.97-4.96-1.25-7.57-3.97-75.58-2.8-151.57-12.46-226.78-16.12-125.54-68.94-248.23-131.47-357.162-18.55-32.309-37.73-64.048-59.42-94.343 1.41-2.748 3.26-5.603 2.86-8.803-.8-6.391-5.54-9.896-10.1-13.761-6.96-5.891-34.76-49.495-40.63-59.669-3.79-6.575-6.74-13.673-10.87-20.043-1.53-2.351-3.69-5.196-6.24-6.525-16.68-8.691-71.84 8.623-90.13 13.067-22.87-25.416-60.66-75.489-68.85-107.773-4.13-16.264-.08-49.609.9-67.64 4.32-78.916 11.02-166.772-24.18-240.009-7.43-15.466-17.77-29.775-27.32-43.982"/></svg>