<svg preserveAspectRatio="xMidYMid meet" version="1.1" xmlns="http://www.w3.org/2000/svg" style="display: block;" viewBox="0 0 2048 2048" width="1024" height="1024">
<path transform="translate(0,0)" fill="rgb(254,254,254)" d="M 0 0 L 2048 0 L 2048 2048 L 0 2048 L 0 0 z"/>
<path transform="translate(0,0)" fill="rgb(14,97,59)" d="M 1001.44 287.433 C 1128.33 281.077 1263.3 314.812 1374.63 375.345 A 837.454 837.454 0 0 1 1474.12 440.303 C 1471.35 444.086 1467.97 447.444 1464.78 450.881 A 737.795 737.795 0 0 0 1190.03 320.045 A 712.559 712.559 0 0 0 777.761 345.606 A 646.378 646.378 0 0 0 654.304 404.604 C 605.238 435.125 559.685 468.932 518.223 509.4 A 724.969 724.969 0 0 0 322.645 862.273 C 280.93 1042.19 308.456 1239.47 406.891 1397 A 732.262 732.262 0 0 0 870.97 1729.21 A 713.016 713.016 0 0 0 1406.57 1635.33 A 722.917 722.917 0 0 0 1725.2 1188.59 A 762.496 762.496 0 0 0 1705.59 784.173 C 1696 754.535 1682.07 726.333 1671.27 697.097 L 1682.86 692.365 A 764.303 764.303 0 0 1 1756.48 983.077 C 1767.73 1172.16 1702.17 1368.13 1575.87 1509.8 A 742.056 742.056 0 0 1 1062.26 1758.93 A 736.72 736.72 0 0 1 532.607 1570.77 C 392.978 1445.14 300.735 1262.63 291.195 1074.15 C 282.587 904.083 325.557 740.478 423.968 600.804 C 440.115 577.886 456.655 555.487 475.503 534.691 C 613.548 382.376 796.236 297.356 1001.44 287.433 z"/>
<path transform="translate(0,0)" fill="rgb(14,97,59)" d="M 981.937 74.434 A 742.953 742.953 0 0 1 1015.4 73.6085 A 938.595 938.595 0 0 1 1574.48 251.782 C 1610.01 277.322 1643.81 303.672 1675 334.483 C 1668.22 341.573 1660.42 348.223 1652.39 353.847 C 1553.91 253.756 1391.48 168.242 1256.02 133.641 A 916.436 916.436 0 0 0 551.234 234.504 A 927.905 927.905 0 0 0 128.795 808.159 A 910.467 910.467 0 0 0 235.175 1495.94 A 925.618 925.618 0 0 0 797.475 1915.67 A 911.869 911.869 0 0 0 1492.87 1814.61 A 924.714 924.714 0 0 0 1916.07 1248.2 A 915.795 915.795 0 0 0 1898.23 736.173 C 1877.53 674.833 1849.52 616.027 1818.72 559.217 C 1826.25 553.288 1833.7 547.311 1841.8 542.16 C 1866.41 586.27 1889.36 631.591 1908.02 678.568 A 986.499 986.499 0 0 1 1972.43 970.998 A 948.743 948.743 0 0 1 1731.19 1655.6 A 954.705 954.705 0 0 1 1218.27 1953.37 C 1173.15 1963.14 1126.97 1970.45 1080.83 1972.96 C 835.126 1986.35 582.689 1903.27 398.725 1738.2 C 252.971 1607.42 150.423 1443.96 102.538 1253.56 A 915.01 915.01 0 0 1 75.4356 1080.01 A 947.714 947.714 0 0 1 319.086 388.227 A 949.213 949.213 0 0 1 981.937 74.434 z"/>
<path transform="translate(0,0)" fill="rgb(14,97,59)" d="M 1763.13 375.765 C 1763.74 375.803 1764.38 375.745 1764.98 375.881 C 1769.63 376.923 1809.67 420.516 1814.48 426.592 A 6111.68 6111.68 0 0 1 1756.09 509.33 L 1621.67 698.065 L 1336.62 1099.82 A 10302.3 10302.3 0 0 1 1214.8 1269.46 A 9790.97 9790.97 0 0 1 1068.78 1459.28 C 1047.75 1485.84 1026.99 1512.5 1005.48 1538.69 C 994.329 1552.27 983.415 1566.74 970.574 1578.78 C 937.38 1581.82 904.007 1583.1 870.743 1585.25 C 845.778 1586.86 819.851 1590.1 794.854 1588.75 C 784.841 1580.31 776.94 1568.58 768.854 1558.3 A 5100.9 5100.9 0 0 0 733.078 1513.22 C 667.167 1432.19 603.376 1349.37 536.76 1268.93 A 11850.6 11850.6 0 0 1 406.419 1105.32 C 393.516 1088.66 376.978 1072.68 366.862 1054.27 C 372.292 1027.47 409.664 997.205 431.206 981.814 C 499.475 933.039 607.074 894.765 691.27 909.074 C 708.159 911.944 727.949 916.946 742.102 926.956 C 768.716 945.782 808.928 1004.8 830.073 1032.9 C 848.752 1057.72 868.243 1081.81 886.222 1107.17 C 914.868 1075.38 945.909 1045.42 976.124 1015.12 C 1036.28 954.807 1096.99 896.131 1160 838.737 A 4521.43 4521.43 0 0 1 1415.38 620.165 C 1467.33 578.171 1519.62 536.029 1573.71 496.817 A 1878.55 1878.55 0 0 1 1763.13 375.765 z"/>
<path transform="translate(0,0)" fill="rgb(254,254,254)" d="M 639.989 921.419 A 240.239 240.239 0 0 1 665.352 921.314 C 687.712 922.537 716.28 926.295 735.483 938.899 C 749.912 948.37 766.197 973.857 777.224 988.011 C 810.363 1030.55 841.49 1075.76 877.32 1116.03 A 8718.23 8718.23 0 0 1 803.183 1195.42 C 796.283 1187.49 785.83 1177.98 781.557 1168.54 C 783.573 1167.67 786.178 1166.75 787.682 1165.1 C 791.28 1161.15 810.875 1110.05 810.515 1106.97 C 810.333 1105.42 810.15 1105.85 808.59 1104.84 C 807.355 1105.13 806.376 1105.51 805.35 1106.28 C 788.838 1118.58 781.166 1145.76 777.88 1164.88 A 2104.48 2104.48 0 0 1 753.792 1134.48 C 738.661 1114.82 633.991 977.367 625.476 973.165 C 592.416 956.85 445.387 1005.48 408.827 1019.09 A 380.585 380.585 0 0 1 639.989 921.419 z"/>
<path transform="translate(0,0)" fill="rgb(14,97,59)" d="M 495.76 975.068 L 498.046 975.391 L 497.846 976.951 C 493.832 981.929 488.85 985.827 482.82 988.046 C 481.617 987.421 480.642 986.574 479.577 985.741 L 479.331 983.657 C 482.433 978.76 490.511 976.894 495.76 975.068 z"/>
<path transform="translate(0,0)" fill="rgb(14,97,59)" d="M 535.109 955.692 C 537.282 955.862 538.259 956.435 540.049 957.648 L 540.213 959.719 C 536.272 965.733 528.758 969.45 522.713 973.076 C 520.424 973.099 519.291 972.698 517.262 971.656 L 516.929 969.527 C 520.59 963.268 529.037 959.281 535.109 955.692 z"/>
<path transform="translate(0,0)" fill="rgb(14,97,59)" d="M 577.226 944.866 C 579.565 946.023 579.021 945.686 579.904 947.815 C 577.561 957.17 565.196 964.821 557.838 970.203 C 555.646 969.098 556.016 968.992 555.063 966.896 C 555.391 965.57 555.389 965.371 556.05 963.935 C 560.184 954.953 567.83 947.705 577.226 944.866 z"/>
<path transform="translate(0,0)" fill="rgb(14,97,59)" d="M 616.707 937.821 C 618.683 938.205 618 937.937 619.702 938.756 C 621.295 939.522 621.008 939.823 621.578 941.385 C 619.871 949.504 609.294 957.689 602.739 962.345 C 601.894 962.014 600.211 961.408 599.507 960.889 C 598.326 960.018 597.666 958.84 597.748 957.408 C 598.151 950.386 611.418 941.963 616.707 937.821 z"/>
<path transform="translate(0,0)" fill="rgb(14,97,59)" d="M 660.412 930.648 C 663.431 931.081 664.902 931.451 666.983 933.761 C 663.839 942.272 645.711 966.241 639.466 976.608 C 638.454 977.584 639.168 977.074 637.019 977.58 C 636.778 977.291 636.502 977.027 636.295 976.713 C 634.571 974.1 634.46 969.459 634.952 966.445 C 637.161 952.929 649.395 938.096 660.412 930.648 z"/>
<path transform="translate(0,0)" fill="rgb(14,97,59)" d="M 797.781 1079.47 C 798.436 1079.79 799.165 1080.1 799.717 1080.58 C 801.802 1082.42 801.8 1083.12 801.875 1085.69 C 797.037 1095.13 788.987 1103.85 782.737 1112.47 C 778.039 1118.95 774.271 1125.78 770.331 1132.72 C 768.849 1135.34 767.404 1137.2 765.24 1139.29 C 764.447 1138.83 762.907 1137.99 762.277 1137.37 C 760.819 1135.94 760.595 1134.27 760.741 1132.35 C 761.713 1119.52 787.72 1087.5 797.781 1079.47 z"/>
<path transform="translate(0,0)" fill="rgb(14,97,59)" d="M 757.857 1000.76 C 760.409 1001.1 760.555 1000.6 762.317 1002.67 C 762.395 1005.14 761.997 1006.77 760.839 1008.91 C 753.617 1022.25 727.498 1051.33 716.882 1065.01 L 714.566 1065.68 L 712.789 1064.1 C 712.856 1063.46 712.918 1062.59 713.075 1061.93 C 717.316 1044.21 742.508 1011.28 757.857 1000.76 z"/>
<path transform="translate(0,0)" fill="rgb(14,97,59)" d="M 720.982 951.621 L 722.093 952.232 C 722.743 953.377 723.676 954.483 723.695 955.852 C 723.721 957.803 723 959.145 722.055 960.788 C 716.291 970.807 709.098 980.134 703.056 990.021 C 696.748 1000.34 691.635 1011.73 684.469 1021.47 L 681.887 1019.54 C 680.723 1016.61 680.651 1014.62 681.287 1011.59 C 685.115 993.338 705.396 961.523 720.982 951.621 z"/>
<path transform="translate(0,0)" fill="rgb(14,97,59)" d="M 774.448 1024.72 C 774.753 1024.95 775.096 1025.13 775.363 1025.41 C 776.225 1026.29 777.005 1027.33 776.985 1028.6 C 776.864 1035.98 737.283 1087.14 729.78 1095.79 L 727.92 1094.55 C 726.918 1091.95 726.801 1090.49 727.519 1087.75 C 731.991 1070.66 759.697 1034.38 774.448 1024.72 z"/>
<path transform="translate(0,0)" fill="rgb(14,97,59)" d="M 788.163 1050.65 C 790.434 1051.89 789.968 1051.74 790.843 1053.93 C 788.732 1068.93 756.853 1103.47 745.839 1116.59 L 744.065 1116.57 L 742.523 1114.74 C 742.489 1113.36 742.446 1112.04 742.661 1110.67 C 745.416 1093.2 773.693 1061.22 788.163 1050.65 z"/>
<path transform="translate(0,0)" fill="rgb(14,97,59)" d="M 741.691 970.594 L 744.503 970.872 L 745.724 972.514 C 745.843 975.133 745.451 976.842 744.282 979.141 C 738.415 990.679 728.985 1001.13 721.231 1011.44 C 713.077 1022.28 705.517 1033.66 696.775 1044.04 L 694.476 1044.05 L 693.173 1042.7 C 693.161 1041.94 693.115 1041.24 693.214 1040.49 C 695.817 1020.75 726.386 983.689 741.691 970.594 z"/>
<path transform="translate(0,0)" fill="rgb(14,97,59)" d="M 694.347 934.607 C 696.969 935.277 697.445 935.463 699.386 937.328 C 699.657 939.406 699.908 940.192 698.991 942.131 C 694.635 951.34 687.554 960.122 682.297 968.964 C 674.544 982.005 667.956 995.777 661.22 1009.36 L 659.601 1009.83 L 657.962 1008.76 C 657.591 1006.85 657.371 1005.14 657.466 1003.19 C 658.685 978.052 675.774 950.703 694.347 934.607 z"/>
<path transform="translate(0,0)" fill="rgb(254,254,254)" d="M 1782.19 411.716 C 1787.28 416.534 1791.79 421.987 1796.4 427.261 C 1786.97 443.377 1775.24 458.437 1764.46 473.7 L 1701.37 562.578 A 25298.9 25298.9 0 0 1 1471.82 884.269 C 1448.15 917.062 1425.89 950.874 1402.46 983.845 A 19165.3 19165.3 0 0 1 1263.97 1176.11 C 1246.51 1200.27 1230.17 1225.21 1212.4 1249.17 A 6882.18 6882.18 0 0 1 1097.94 1397.73 C 1054.21 1453.96 1010.75 1510.33 964.303 1564.37 C 918.018 1569.59 870.491 1570.53 823.92 1572.93 C 836.565 1558.14 847.795 1542.2 860.022 1527.05 C 866.725 1537.35 869.926 1552.38 878.526 1561.13 C 880.495 1563.14 881.003 1563.13 883.617 1563.22 C 885.559 1561.66 886.537 1560.56 886.886 1557.97 C 887.997 1549.75 869.756 1527.85 864.411 1520.87 C 870.303 1513.34 876.211 1505.86 882.458 1498.61 C 885.533 1506.13 888.8 1513.7 891.46 1521.37 C 896.009 1534.49 899.109 1551.97 910.256 1561.39 L 913.533 1560.88 C 915.958 1540.84 898.032 1509.59 885.978 1494.04 C 894.582 1483.41 903.18 1472.83 912.291 1462.63 C 922.028 1484.95 926.169 1511.23 930.825 1535.03 C 932.023 1541.16 932.479 1547.63 934.087 1553.63 C 934.873 1556.57 936.558 1560.11 939.197 1561.76 C 940.466 1562.55 940.165 1562.32 941.646 1561.98 C 944.135 1559.47 944.589 1556.18 944.694 1552.76 C 945.517 1526.06 934.215 1478.25 915.306 1458.58 A 734.013 734.013 0 0 1 944.217 1422.78 C 956.572 1407.22 969.872 1392.32 981.996 1376.63 C 1001.84 1350.95 1021.46 1325.37 1042.48 1300.62 C 1049.05 1292.88 1055.28 1284.66 1062.35 1277.38 C 1062.88 1301.07 1066.17 1324.74 1067.32 1348.44 A 763.682 763.682 0 0 1 1068.23 1379.5 C 1068.24 1386.47 1067.56 1393.81 1068.14 1400.74 C 1068.4 1403.96 1069.6 1407.69 1072.02 1409.91 C 1073.2 1411.01 1073.6 1410.66 1075.07 1410.62 C 1076.34 1409.38 1076.98 1408.47 1077.62 1406.77 C 1080.47 1399.11 1079.92 1388.09 1080.02 1380.02 C 1080.47 1346.1 1080.14 1304.38 1065.05 1273.53 L 1170.93 1143.13 C 1171.14 1167.63 1171.97 1192.25 1171.57 1216.75 C 1171.31 1233.24 1168.84 1251.35 1170.63 1267.66 C 1171.05 1271.42 1171.5 1275.75 1174.55 1278.22 L 1176.38 1277.06 C 1182.95 1265.3 1182.49 1248.29 1182.99 1235.03 C 1183.57 1219.89 1183.8 1149.96 1174.84 1141.74 C 1174.5 1141.43 1174.1 1141.21 1173.73 1140.94 C 1175.88 1134.68 1201.94 1103.1 1207.86 1096.48 C 1205 1114.65 1206.91 1134.39 1206.71 1152.79 C 1206.52 1170.87 1204.85 1189.52 1206.06 1207.52 C 1206.21 1209.75 1206.64 1211.75 1208.02 1213.58 C 1208.96 1214.83 1209.49 1214.54 1210.91 1214.73 C 1215.39 1210.36 1216.72 1198.75 1217.57 1192.66 C 1219.95 1175.69 1220.38 1108.83 1210.63 1097.03 C 1210.29 1096.61 1209.92 1096.22 1209.56 1095.82 C 1209.59 1090.87 1237.82 1060.48 1242.74 1053.34 C 1243.2 1073.92 1237.81 1156.58 1243.5 1170.91 L 1247.07 1171.44 C 1247.71 1170.47 1247.81 1170.38 1248.39 1169.16 C 1258.83 1147.4 1254.36 1072.08 1246.96 1048.49 C 1257.18 1035.57 1268.62 1023.48 1278.99 1010.64 A 20215 20215 0 0 1 1468.11 781.561 A 4308.25 4308.25 0 0 0 1546.3 685.348 C 1557.88 670.874 1568.72 655.65 1580.88 641.657 C 1622.8 593.423 1664.22 544.947 1706.87 497.339 L 1751.98 447.505 C 1762.37 436.034 1773.65 424.663 1782.19 411.716 z"/>
<path transform="translate(0,0)" fill="rgb(14,97,59)" d="M 1595.86 628.264 C 1598.34 629.329 1599.36 629.389 1600.37 632.091 C 1603.09 639.371 1597.29 670.472 1593.4 677.54 C 1591.41 676.602 1589.59 675.791 1588.53 673.729 C 1582.97 662.861 1592.29 639.474 1595.86 628.264 z"/>
<path transform="translate(0,0)" fill="rgb(14,97,59)" d="M 1529.58 716.532 C 1531.41 717.557 1533.5 718.621 1534.68 720.425 C 1540.48 729.293 1535.31 759.759 1532.09 769.797 L 1531.07 770.407 C 1529.63 769.662 1529.82 770.093 1529.27 768.645 C 1525.23 758.122 1525.74 727.054 1529.58 716.532 z"/>
<path transform="translate(0,0)" fill="rgb(14,97,59)" d="M 1629.75 590.322 C 1632.75 590.882 1634.66 591.024 1636.78 593.252 C 1637.87 605.959 1629.94 625.607 1623.77 636.654 L 1621.31 637.345 L 1619.54 635.929 C 1616.43 623.553 1625.98 602.203 1629.75 590.322 z"/>
<path transform="translate(0,0)" fill="rgb(14,97,59)" d="M 1563.13 670.127 C 1563.91 670.276 1564.93 670.419 1565.62 670.801 C 1566.95 671.532 1568.2 672.711 1568.74 674.13 C 1572.07 682.772 1562.44 719.279 1558.69 728.553 L 1555.46 729.032 L 1553.71 727.706 C 1550.36 715.935 1559.33 682.086 1563.13 670.127 z"/>
<path transform="translate(0,0)" fill="rgb(14,97,59)" d="M 1499.34 754.251 C 1501.23 755.095 1502.72 755.872 1503.87 757.674 C 1511.7 769.95 1512.44 801.911 1508.93 816.105 C 1508.08 816.403 1507.8 816.537 1506.82 816.698 C 1504.04 817.157 1502.91 816.79 1500.62 815.282 C 1497.06 806.995 1498.05 764.7 1499.34 754.251 z"/>
<path transform="translate(0,0)" fill="rgb(14,97,59)" d="M 1447.33 817.41 C 1447.66 817.542 1448 817.648 1448.32 817.807 C 1450.29 818.784 1451.16 820.423 1451.9 822.421 C 1456.93 836.106 1460.14 872.229 1454.02 885.305 C 1451.44 885.797 1451.27 886.416 1448.94 884.929 C 1443.52 874.406 1443.87 828.79 1447.33 817.41 z"/>
<path transform="translate(0,0)" fill="rgb(14,97,59)" d="M 1472.24 780.195 C 1473.95 780.796 1475.24 781.363 1476.31 782.928 C 1485.22 795.963 1485.64 832.317 1482.41 847.698 C 1479.89 847.241 1478.32 847.249 1476.67 845.009 C 1471.26 837.681 1470.04 790.105 1472.24 780.195 z"/>
<path transform="translate(0,0)" fill="rgb(14,97,59)" d="M 1396.95 885.423 C 1398.55 886.687 1399.6 887.993 1400.47 889.843 C 1408.44 906.783 1409.04 936.713 1403.02 954.354 C 1402.09 954.783 1401 955.061 1400.02 955.381 L 1397.83 953.804 C 1392.46 943.367 1393.43 896.819 1396.95 885.423 z"/>
<path transform="translate(0,0)" fill="rgb(14,97,59)" d="M 1365.78 923.569 C 1368.08 924.544 1369.54 925.421 1371.08 927.442 C 1379.8 938.905 1378.1 982.691 1376.64 996.42 C 1376.4 996.498 1376.18 996.624 1375.94 996.655 C 1373.26 996.985 1372.77 996.559 1370.69 995.075 C 1363.87 982.171 1365.7 938.984 1365.78 923.569 z"/>
<path transform="translate(0,0)" fill="rgb(14,97,59)" d="M 1332.42 950.382 C 1332.86 950.543 1333.32 950.656 1333.74 950.866 C 1334.9 951.45 1335.51 952.535 1335.97 953.689 C 1341.25 966.882 1344.31 1017.45 1338.32 1030.58 L 1335.66 1030.57 C 1334.1 1029.43 1333.18 1028.64 1332.32 1026.85 C 1328.75 1019.42 1329.47 958.523 1332.42 950.382 z"/>
<path transform="translate(0,0)" fill="rgb(14,97,59)" d="M 1306.52 1006.19 C 1310.2 1007.93 1312.12 1010.21 1313.56 1013.95 C 1319.25 1028.67 1319.19 1060.32 1312.94 1074.49 C 1312.53 1074.7 1312.14 1074.98 1311.7 1075.13 C 1309.32 1075.91 1308.76 1075.13 1306.92 1073.81 C 1302.27 1063.89 1304 1018.44 1306.52 1006.19 z"/>
<path transform="translate(0,0)" fill="rgb(14,97,59)" d="M 1425.35 844.206 C 1428.26 845.817 1429.5 846.788 1430.93 849.865 C 1438.61 866.438 1438.21 900.158 1431.9 917.181 C 1430.09 919.06 1431.17 918.354 1428.64 919.255 L 1426.5 917.531 C 1422.79 908.464 1423.04 854.454 1425.35 844.206 z"/>
<path transform="translate(0,0)" fill="rgb(14,97,59)" d="M 1277.42 1014.63 C 1278.49 1015.64 1278.93 1016.61 1279.46 1017.97 C 1286.58 1036.35 1292.64 1077.88 1284.88 1096.47 L 1281.07 1095.7 C 1277.69 1092.07 1277.32 1085.51 1276.83 1080.73 C 1275.83 1071.18 1272.2 1024.26 1274.5 1018.27 C 1274.9 1017.25 1276.67 1015.56 1277.42 1014.63 z"/>
<path transform="translate(0,0)" fill="rgb(14,97,59)" d="M 1132.64 1190.33 C 1133.25 1190.49 1133.87 1190.6 1134.45 1190.81 C 1136.34 1191.47 1137.46 1193.3 1138.29 1195 C 1148.63 1216.16 1147.55 1294.05 1140.27 1316.03 C 1138.57 1317.43 1138.45 1317.49 1136.25 1317.65 C 1134.92 1316.58 1134.25 1316.32 1133.58 1314.67 C 1130.88 1307.96 1133.98 1267.67 1133.93 1256.38 C 1133.87 1243.75 1129.34 1198.59 1132.64 1190.33 z"/>
<path transform="translate(0,0)" fill="rgb(14,97,59)" d="M 947.944 1419.72 C 951.738 1422.94 954.026 1428.9 955.903 1433.45 C 964.011 1453.12 982.778 1527.02 975.522 1544.41 C 973.532 1544.81 971.991 1544.81 969.973 1544.62 C 968.9 1543.89 968.16 1543.2 967.59 1542.01 C 962.596 1531.56 956.096 1477.11 953.405 1461.41 C 951.419 1449.82 948.15 1437.94 946.939 1426.3 C 946.681 1423.83 947.171 1422.06 947.944 1419.72 z"/>
<path transform="translate(0,0)" fill="rgb(14,97,59)" d="M 1024.73 1326.24 C 1027.6 1327.23 1028.89 1328.14 1030.21 1330.95 C 1039.12 1349.95 1048.83 1439.96 1042.13 1459.83 L 1039.6 1459.91 C 1037.8 1458.53 1036.37 1457.33 1035.6 1455.12 C 1030.21 1439.81 1028.28 1377.35 1026.42 1356.31 C 1025.68 1348.06 1023.12 1338.15 1023.61 1330.11 C 1023.7 1328.58 1024.13 1327.63 1024.73 1326.24 z"/>
<path transform="translate(0,0)" fill="rgb(14,97,59)" d="M 986.838 1373.24 C 989.837 1374.73 990.775 1375.7 992.203 1378.76 C 1001.79 1399.34 1011.13 1482.36 1003.89 1503.6 C 1003.44 1503.62 1002.99 1503.71 1002.54 1503.66 C 1000.45 1503.46 998.821 1502.85 997.686 1501.01 C 992.98 1493.36 984.991 1385.99 986.838 1373.24 z"/>
<path transform="translate(0,0)" fill="rgb(14,97,59)" d="M 1101.21 1234.66 C 1102.05 1235.52 1102.62 1236.29 1103.14 1237.42 C 1113.55 1259.95 1111.34 1369.89 1101.64 1390.5 C 1100.64 1390.56 1099.6 1390.23 1098.62 1390.03 C 1095.91 1387.45 1095.63 1384.79 1095.37 1381.24 C 1093.87 1360.95 1097.77 1329.96 1098.21 1308.16 C 1098.65 1286.56 1095.92 1264.35 1097.52 1242.88 C 1097.8 1239.09 1098.74 1237.52 1101.21 1234.66 z"/>
<path transform="translate(0,0)" fill="rgb(254,254,254)" d="M 1712.93 440.237 L 1713.38 440.659 C 1697.32 457.247 1682.7 476.186 1667.67 493.758 A 8452.93 8452.93 0 0 0 1557.43 625.424 L 1430.78 776.26 L 1293.59 944.831 C 1250.2 998.658 1205.32 1051.41 1161.48 1104.89 A 49014.9 49014.9 0 0 0 802.327 1548.54 C 776.171 1514.58 748.621 1481.55 721.583 1448.28 L 641.657 1348.93 C 600.997 1298.68 561.535 1247.48 520.5 1197.55 C 494.105 1165.75 468.951 1132.79 443.575 1100.17 C 431.738 1084.95 419.017 1070.31 407.596 1054.8 C 459.763 1033.56 552.733 1003.35 608.679 1003 C 627.049 1021.03 642.383 1044.38 658.174 1064.84 L 745.898 1176.76 C 763.426 1199.2 780.288 1223.81 799.946 1244.31 C 811.507 1233.95 822.008 1221.64 832.723 1210.38 A 7861.95 7861.95 0 0 0 899.651 1139.25 A 5917.69 5917.69 0 0 1 1049.6 985.623 A 4733.53 4733.53 0 0 1 1289.43 766.417 C 1424.48 649.437 1563.6 538.618 1712.93 440.237 z"/>
</svg>