<svg xmlns="http://www.w3.org/2000/svg" display="block" viewBox="0 0 2048 2048"><path fill="#fefefe" d="M0 0h2048v2048H0z"/><path fill="#0e613b" d="M1001.44 287.433c126.89-6.356 261.86 27.379 373.19 87.912a837.5 837.5 0 0 1 99.49 64.958c-2.77 3.783-6.15 7.141-9.34 10.578a737.8 737.8 0 0 0-274.75-130.836 712.56 712.56 0 0 0-412.269 25.561 646.4 646.4 0 0 0-123.457 58.998c-49.066 30.521-94.619 64.328-136.081 104.796a724.97 724.97 0 0 0-195.578 352.873C280.93 1042.19 308.456 1239.47 406.891 1397a732.26 732.26 0 0 0 464.079 332.21 713.02 713.02 0 0 0 535.6-93.88 722.92 722.92 0 0 0 318.63-446.74 762.5 762.5 0 0 0-19.61-404.417c-9.59-29.638-23.52-57.84-34.32-87.076l11.59-4.732a764.3 764.3 0 0 1 73.62 290.712c11.25 189.083-54.31 385.053-180.61 526.723a742.06 742.06 0 0 1-513.61 249.13 736.72 736.72 0 0 1-529.653-188.16c-139.629-125.63-231.872-308.14-241.412-496.62-8.608-170.067 34.362-333.672 132.773-473.346 16.147-22.918 32.687-45.317 51.535-66.113 138.045-152.315 320.733-237.335 525.937-247.258"/><path fill="#0e613b" d="M981.937 74.434a743 743 0 0 1 33.463-.825 938.6 938.6 0 0 1 559.08 178.173c35.53 25.54 69.33 51.89 100.52 82.701-6.78 7.09-14.58 13.74-22.61 19.364-98.48-100.091-260.91-185.605-396.37-220.206a916.44 916.44 0 0 0-704.786 100.863 927.9 927.9 0 0 0-422.439 573.655 910.47 910.47 0 0 0 106.38 687.781 925.62 925.62 0 0 0 562.3 419.73 911.87 911.87 0 0 0 695.395-101.06 924.7 924.7 0 0 0 423.2-566.41 915.8 915.8 0 0 0-17.84-512.027c-20.7-61.34-48.71-120.146-79.51-176.956 7.53-5.929 14.98-11.906 23.08-17.057 24.61 44.11 47.56 89.431 66.22 136.408a986.5 986.5 0 0 1 64.41 292.43 948.74 948.74 0 0 1-241.24 684.602 954.7 954.7 0 0 1-512.92 297.77c-45.12 9.77-91.3 17.08-137.44 19.59-245.704 13.39-498.141-69.69-682.105-234.76-145.754-130.78-248.302-294.24-296.187-484.64a915 915 0 0 1-27.102-173.55 947.7 947.7 0 0 1 243.65-691.783A949.2 949.2 0 0 1 981.937 74.434"/><path fill="#0e613b" d="M1763.13 375.765c.61.038 1.25-.02 1.85.116 4.65 1.042 44.69 44.635 49.5 50.711a6112 6112 0 0 1-58.39 82.738l-134.42 188.735-285.05 401.755a10302 10302 0 0 1-121.82 169.64 9791 9791 0 0 1-146.02 189.82c-21.03 26.56-41.79 53.22-63.3 79.41-11.151 13.58-22.065 28.05-34.906 40.09-33.194 3.04-66.567 4.32-99.831 6.47-24.965 1.61-50.892 4.85-75.889 3.5-10.013-8.44-17.914-20.17-26-30.45a5101 5101 0 0 0-35.776-45.08c-65.911-81.03-129.702-163.85-196.318-244.29a11851 11851 0 0 1-130.341-163.61c-12.903-16.66-29.441-32.64-39.557-51.05 5.43-26.8 42.802-57.065 64.344-72.456 68.269-48.775 175.868-87.049 260.064-72.74 16.889 2.87 36.679 7.872 50.832 17.882 26.614 18.826 66.826 77.844 87.971 105.944 18.679 24.82 38.17 48.91 56.149 74.27 28.646-31.79 59.687-61.75 89.902-92.05C1036.28 954.807 1096.99 896.131 1160 838.737a4521 4521 0 0 1 255.38-218.572c51.95-41.994 104.24-84.136 158.33-123.348a1879 1879 0 0 1 189.42-121.052"/><path fill="#fefefe" d="M639.989 921.419a240 240 0 0 1 25.363-.105c22.36 1.223 50.928 4.981 70.131 17.585 14.429 9.471 30.714 34.958 41.741 49.112 33.139 42.539 64.266 87.749 100.096 128.019a8718 8718 0 0 1-74.137 79.39c-6.9-7.93-17.353-17.44-21.626-26.88 2.016-.87 4.621-1.79 6.125-3.44 3.598-3.95 23.193-55.05 22.833-58.13-.182-1.55-.365-1.12-1.925-2.13-1.235.29-2.214.67-3.24 1.44-16.512 12.3-24.184 39.48-27.47 58.6a2105 2105 0 0 1-24.088-30.4c-15.131-19.66-119.801-157.113-128.316-161.315-33.06-16.315-180.089 32.315-216.649 45.925a380.6 380.6 0 0 1 231.162-97.671"/><path fill="#0e613b" d="m495.76 975.068 2.286.323-.2 1.56c-4.014 4.978-8.996 8.876-15.026 11.095-1.203-.625-2.178-1.472-3.243-2.305l-.246-2.084c3.102-4.897 11.18-6.763 16.429-8.589m39.349-19.376c2.173.17 3.15.743 4.94 1.956l.164 2.071c-3.941 6.014-11.455 9.731-17.5 13.357-2.289.023-3.422-.378-5.451-1.42l-.333-2.129c3.661-6.259 12.108-10.246 18.18-13.835m42.117-10.826c2.339 1.157 1.795.82 2.678 2.949-2.343 9.355-14.708 17.006-22.066 22.388-2.192-1.105-1.822-1.211-2.775-3.307.328-1.326.326-1.525.987-2.961 4.134-8.982 11.78-16.23 21.176-19.069m39.481-7.045c1.976.384 1.293.116 2.995.935 1.593.766 1.306 1.067 1.876 2.629-1.707 8.119-12.284 16.304-18.839 20.96-.845-.331-2.528-.937-3.232-1.456-1.181-.871-1.841-2.049-1.759-3.481.403-7.022 13.67-15.445 18.959-19.587m43.705-7.173c3.019.433 4.49.803 6.571 3.113-3.144 8.511-21.272 32.48-27.517 42.847-1.012.976-.298.466-2.447.972-.241-.289-.517-.553-.724-.867-1.724-2.613-1.835-7.254-1.343-10.268 2.209-13.516 14.443-28.349 25.46-35.797m137.369 148.822c.655.32 1.384.63 1.936 1.11 2.085 1.84 2.083 2.54 2.158 5.11-4.838 9.44-12.888 18.16-19.138 26.78-4.698 6.48-8.466 13.31-12.406 20.25-1.482 2.62-2.927 4.48-5.091 6.57-.793-.46-2.333-1.3-2.963-1.92-1.458-1.43-1.682-3.1-1.536-5.02.972-12.83 26.979-44.85 37.04-52.88m-39.924-78.71c2.552.34 2.698-.16 4.46 1.91.078 2.47-.32 4.1-1.478 6.24-7.222 13.34-33.341 42.42-43.957 56.1l-2.316.67-1.777-1.58c.067-.64.129-1.51.286-2.17 4.241-17.72 29.433-50.65 44.782-61.17m-36.875-49.139 1.111.611c.65 1.145 1.583 2.251 1.602 3.62.026 1.951-.695 3.293-1.64 4.936-5.764 10.019-12.957 19.346-18.999 29.233-6.308 10.319-11.421 21.709-18.587 31.449l-2.582-1.93c-1.164-2.93-1.236-4.92-.6-7.95 3.828-18.252 24.109-50.067 39.695-59.969m53.466 73.099c.305.23.648.41.915.69.862.88 1.642 1.92 1.622 3.19-.121 7.38-39.702 58.54-47.205 67.19l-1.86-1.24c-1.002-2.6-1.119-4.06-.401-6.8 4.472-17.09 32.178-53.37 46.929-63.03m13.715 25.93c2.271 1.24 1.805 1.09 2.68 3.28-2.111 15-33.99 49.54-45.004 62.66l-1.774-.02-1.542-1.83c-.034-1.38-.077-2.7.138-4.07 2.755-17.47 31.032-49.45 45.502-60.02m-46.472-80.056 2.812.278 1.221 1.642c.119 2.619-.273 4.328-1.442 6.627-5.867 11.538-15.297 21.989-23.051 32.299-8.154 10.84-15.714 22.22-24.456 32.6l-2.299.01-1.303-1.35c-.012-.76-.058-1.46.041-2.21 2.603-19.74 33.172-56.801 48.477-69.896m-47.344-35.987c2.622.67 3.098.856 5.039 2.721.271 2.078.522 2.864-.395 4.803-4.356 9.209-11.437 17.991-16.694 26.833-7.753 13.041-14.341 26.813-21.077 40.396l-1.619.47-1.639-1.07c-.371-1.91-.591-3.62-.496-5.57 1.219-25.138 18.308-52.487 36.881-68.583"/><path fill="#fefefe" d="M1782.19 411.716c5.09 4.818 9.6 10.271 14.21 15.545-9.43 16.116-21.16 31.176-31.94 46.439l-63.09 88.878a25299 25299 0 0 1-229.55 321.691c-23.67 32.793-45.93 66.605-69.36 99.576a19165 19165 0 0 1-138.49 192.265c-17.46 24.16-33.8 49.1-51.57 73.06a6882 6882 0 0 1-114.46 148.56c-43.73 56.23-87.19 112.6-133.637 166.64-46.285 5.22-93.812 6.16-140.383 8.56 12.645-14.79 23.875-30.73 36.102-45.88 6.703 10.3 9.904 25.33 18.504 34.08 1.969 2.01 2.477 2 5.091 2.09 1.942-1.56 2.92-2.66 3.269-5.25 1.111-8.22-17.13-30.12-22.475-37.1 5.892-7.53 11.8-15.01 18.047-22.26 3.075 7.52 6.342 15.09 9.002 22.76 4.549 13.12 7.649 30.6 18.796 40.02l3.277-.51c2.425-20.04-15.501-51.29-27.555-66.84 8.604-10.63 17.202-21.21 26.313-31.41 9.737 22.32 13.878 48.6 18.534 72.4 1.198 6.13 1.654 12.6 3.262 18.6.786 2.94 2.471 6.48 5.11 8.13 1.269.79.968.56 2.449.22 2.489-2.51 2.943-5.8 3.048-9.22.823-26.7-10.479-74.51-29.388-94.18a734 734 0 0 1 28.911-35.8c12.355-15.56 25.655-30.46 37.779-46.15 19.844-25.68 39.464-51.26 60.484-76.01 6.57-7.74 12.8-15.96 19.87-23.24.53 23.69 3.82 47.36 4.97 71.06a764 764 0 0 1 .91 31.06c.01 6.97-.67 14.31-.09 21.24.26 3.22 1.46 6.95 3.88 9.17 1.18 1.1 1.58.75 3.05.71 1.27-1.24 1.91-2.15 2.55-3.85 2.85-7.66 2.3-18.68 2.4-26.75.45-33.92.12-75.64-14.97-106.49l105.88-130.4c.21 24.5 1.04 49.12.64 73.62-.26 16.49-2.73 34.6-.94 50.91.42 3.76.87 8.09 3.92 10.56l1.83-1.16c6.57-11.76 6.11-28.77 6.61-42.03.58-15.14.81-85.07-8.15-93.29-.34-.31-.74-.53-1.11-.8 2.15-6.26 28.21-37.84 34.13-44.46-2.86 18.17-.95 37.91-1.15 56.31-.19 18.08-1.86 36.73-.65 54.73.15 2.23.58 4.23 1.96 6.06.94 1.25 1.47.96 2.89 1.15 4.48-4.37 5.81-15.98 6.66-22.07 2.38-16.97 2.81-83.83-6.94-95.63-.34-.42-.71-.81-1.07-1.21.03-4.95 28.26-35.34 33.18-42.48.46 20.58-4.93 103.24.76 117.57l3.57.53c.64-.97.74-1.06 1.32-2.28 10.44-21.76 5.97-97.08-1.43-120.67 10.22-12.92 21.66-25.01 32.03-37.85a20215 20215 0 0 1 189.12-229.079 4308 4308 0 0 0 78.19-96.213c11.58-14.474 22.42-29.698 34.58-43.691 41.92-48.234 83.34-96.71 125.99-144.318l45.11-49.834c10.39-11.471 21.67-22.842 30.21-35.789"/><path fill="#0e613b" d="M1595.86 628.264c2.48 1.065 3.5 1.125 4.51 3.827 2.72 7.28-3.08 38.381-6.97 45.449-1.99-.938-3.81-1.749-4.87-3.811-5.56-10.868 3.76-34.255 7.33-45.465m-66.28 88.268c1.83 1.025 3.92 2.089 5.1 3.893 5.8 8.868.63 39.334-2.59 49.372l-1.02.61c-1.44-.745-1.25-.314-1.8-1.762-4.04-10.523-3.53-41.591.31-52.113m100.17-126.21c3 .56 4.91.702 7.03 2.93 1.09 12.707-6.84 32.355-13.01 43.402l-2.46.691-1.77-1.416c-3.11-12.376 6.44-33.726 10.21-45.607m-66.62 79.805c.78.149 1.8.292 2.49.674 1.33.731 2.58 1.91 3.12 3.329 3.33 8.642-6.3 45.149-10.05 54.423l-3.23.479-1.75-1.326c-3.35-11.771 5.62-45.62 9.42-57.579m-63.79 84.124c1.89.844 3.38 1.621 4.53 3.423 7.83 12.276 8.57 44.237 5.06 58.431-.85.298-1.13.432-2.11.593-2.78.459-3.91.092-6.2-1.416-3.56-8.287-2.57-50.582-1.28-61.031m-52.01 63.159c.33.132.67.238.99.397 1.97.977 2.84 2.616 3.58 4.614 5.03 13.685 8.24 49.808 2.12 62.884-2.58.492-2.75 1.111-5.08-.376-5.42-10.523-5.07-56.139-1.61-67.519m24.91-37.215c1.71.601 3 1.168 4.07 2.733 8.91 13.035 9.33 49.389 6.1 64.77-2.52-.457-4.09-.449-5.74-2.689-5.41-7.328-6.63-54.904-4.43-64.814m-75.29 105.228c1.6 1.264 2.65 2.57 3.52 4.42 7.97 16.94 8.57 46.87 2.55 64.511-.93.429-2.02.707-3 1.027l-2.19-1.577c-5.37-10.437-4.4-56.985-.88-68.381m-31.17 38.146c2.3.975 3.76 1.852 5.3 3.873 8.72 11.463 7.02 55.249 5.56 68.978-.24.078-.46.204-.7.235-2.68.33-3.17-.096-5.25-1.58-6.82-12.904-4.99-56.091-4.91-71.506m-33.36 26.813c.44.161.9.274 1.32.484 1.16.584 1.77 1.669 2.23 2.823 5.28 13.193 8.34 63.761 2.35 76.891l-2.66-.01c-1.56-1.14-2.48-1.93-3.34-3.72-3.57-7.43-2.85-68.327.1-76.468m-25.9 55.808c3.68 1.74 5.6 4.02 7.04 7.76 5.69 14.72 5.63 46.37-.62 60.54-.41.21-.8.49-1.24.64-2.38.78-2.94 0-4.78-1.32-4.65-9.92-2.92-55.37-.4-67.62m118.83-161.984c2.91 1.611 4.15 2.582 5.58 5.659 7.68 16.573 7.28 50.293.97 67.316-1.81 1.879-.73 1.173-3.26 2.074l-2.14-1.724c-3.71-9.067-3.46-63.077-1.15-73.325m-147.93 170.424c1.07 1.01 1.51 1.98 2.04 3.34 7.12 18.38 13.18 59.91 5.42 78.5l-3.81-.77c-3.38-3.63-3.75-10.19-4.24-14.97-1-9.55-4.63-56.47-2.33-62.46.4-1.02 2.17-2.71 2.92-3.64m-144.78 175.7c.61.16 1.23.27 1.81.48 1.89.66 3.01 2.49 3.84 4.19 10.34 21.16 9.26 99.05 1.98 121.03-1.7 1.4-1.82 1.46-4.02 1.62-1.33-1.07-2-1.33-2.67-2.98-2.7-6.71.4-47 .35-58.29-.06-12.63-4.59-57.79-1.29-66.05m-184.696 229.39c3.794 3.22 6.082 9.18 7.959 13.73 8.108 19.67 26.875 93.57 19.619 110.96-1.99.4-3.531.4-5.549.21-1.073-.73-1.813-1.42-2.383-2.61-4.994-10.45-11.494-64.9-14.185-80.6-1.986-11.59-5.255-23.47-6.466-35.11-.258-2.47.232-4.24 1.005-6.58m76.786-93.48c2.87.99 4.16 1.9 5.48 4.71 8.91 19 18.62 109.01 11.92 128.88l-2.53.08c-1.8-1.38-3.23-2.58-4-4.79-5.39-15.31-7.32-77.77-9.18-98.81-.74-8.25-3.3-18.16-2.81-26.2.09-1.53.52-2.48 1.12-3.87m-37.892 47c2.999 1.49 3.937 2.46 5.365 5.52 9.587 20.58 18.927 103.6 11.687 124.84-.45.02-.9.11-1.35.06-2.09-.2-3.719-.81-4.854-2.65-4.706-7.65-12.695-115.02-10.848-127.77m114.372-138.58c.84.86 1.41 1.63 1.93 2.76 10.41 22.53 8.2 132.47-1.5 153.08-1 .06-2.04-.27-3.02-.47-2.71-2.58-2.99-5.24-3.25-8.79-1.5-20.29 2.4-51.28 2.84-73.08.44-21.6-2.29-43.81-.69-65.28.28-3.79 1.22-5.36 3.69-8.22"/><path fill="#fefefe" d="m1712.93 440.237.45.422c-16.06 16.588-30.68 35.527-45.71 53.099a8453 8453 0 0 0-110.24 131.666L1430.78 776.26l-137.19 168.571c-43.39 53.827-88.27 106.579-132.11 160.059a49015 49015 0 0 0-359.153 443.65c-26.156-33.96-53.706-66.99-80.744-100.26l-79.926-99.35c-40.66-50.25-80.122-101.45-121.157-151.38-26.395-31.8-51.549-64.76-76.925-97.38-11.837-15.22-24.558-29.86-35.979-45.37 52.167-21.24 145.137-51.45 201.083-51.8 18.37 18.03 33.704 41.38 49.495 61.84l87.724 111.92c17.528 22.44 34.39 47.05 54.048 67.55 11.561-10.36 22.062-22.67 32.777-33.93a7862 7862 0 0 0 66.928-71.13A5918 5918 0 0 1 1049.6 985.623a4734 4734 0 0 1 239.83-219.206c135.05-116.98 274.17-227.799 423.5-326.18"/></svg>