<svg preserveAspectRatio="xMidYMid meet" version="1.1" xmlns="http://www.w3.org/2000/svg" style="display: block;" viewBox="0 0 2048 2048" width="1024" height="1024">
<defs>
	<linearGradient id="Gradient1" gradientUnits="userSpaceOnUse" x1="831.642" y1="652.781" x2="841.872" y2="662.718">
		<stop class="stop0" offset="0" stop-opacity="1" stop-color="rgb(22,31,58)"/>
		<stop class="stop1" offset="1" stop-opacity="1" stop-color="rgb(25,45,65)"/>
	</linearGradient>
	<linearGradient id="Gradient2" gradientUnits="userSpaceOnUse" x1="1000.37" y1="1846.33" x2="1021.63" y2="1838.67">
		<stop class="stop0" offset="0" stop-opacity="1" stop-color="rgb(33,42,59)"/>
		<stop class="stop1" offset="1" stop-opacity="1" stop-color="rgb(10,25,62)"/>
	</linearGradient>
</defs>
<path transform="translate(0,0)" fill="rgb(254,254,254)" d="M 0 0 L 2048 0 L 2048 2048 L 0 2048 L 0 0 z"/>
<path transform="translate(0,0)" fill="rgb(17,30,62)" d="M 1190.5 1777.77 C 1198.68 1780.24 1207.27 1781.35 1215.38 1783.94 C 1202.5 1785.41 1189.64 1787.14 1176.65 1787.12 C 1176.53 1785.39 1176.43 1786.34 1177.24 1784.33 C 1179.29 1784.15 1178.81 1784.44 1180.3 1783.58 C 1182.56 1782.28 1184.45 1780.43 1187.16 1780.35 C 1187.53 1780.34 1187.9 1780.37 1188.27 1780.38 L 1190.5 1777.77 z"/>
<path transform="translate(0,0)" fill="rgb(17,30,62)" d="M 1720.78 709.776 L 1723.55 709.937 L 1724.55 711.127 C 1723.9 717.203 1718.77 725.33 1717.11 732.347 L 1716.65 734.328 L 1715.03 734.521 C 1711.91 729.269 1709.75 723.89 1707.79 718.124 C 1708.02 717.93 1708.24 717.734 1708.46 717.543 L 1709.61 716.595 C 1713.22 713.543 1716.44 711.67 1720.78 709.776 z"/>
<path transform="translate(0,0)" fill="rgb(17,30,62)" d="M 1120.17 1791.86 L 1123.47 1788.55 C 1128.48 1794.63 1130.46 1805.47 1132.83 1813.02 L 1131.21 1813.33 C 1123.27 1814.81 1115.16 1814.05 1107.38 1815.53 C 1094.9 1817.91 1077.4 1831.22 1066.36 1837.99 L 1066 1834.97 C 1078.06 1828.54 1091.05 1822.14 1101.98 1813.91 C 1101.1 1812.47 1100.16 1811.11 1099.18 1809.74 L 1100.13 1807.92 C 1109.72 1802.48 1117.16 1810.04 1126.59 1807.49 C 1125.65 1802.18 1122.43 1796.75 1120.17 1791.86 z"/>
<path transform="translate(0,0)" fill="url(#Gradient1)" d="M 873.446 583.797 C 874.047 589.606 833.63 674.48 827.286 683.842 C 826.849 682.917 826.611 682.512 826.356 681.429 C 825.693 678.61 825.928 675.997 826.789 673.26 C 830.806 660.488 839.176 647.517 845.457 635.63 C 854.608 618.311 863.305 600.557 873.446 583.797 z"/>
<path transform="translate(0,0)" fill="rgb(27,40,69)" d="M 753.645 389.674 C 754.562 390.539 754.866 391.202 755.085 392.499 C 756.422 400.413 752.403 410.629 748.94 417.729 C 742.287 431.369 732.46 444.019 723.91 456.549 A 2068.51 2068.51 0 0 0 690.977 506.262 L 689.933 505.553 A 2027.82 2027.82 0 0 1 719.041 448.305 C 729.573 428.105 739.589 407.704 753.645 389.674 z"/>
<path transform="translate(0,0)" fill="rgb(27,40,69)" d="M 1727.93 888.846 C 1734.67 895.68 1740.31 904.69 1746.22 912.321 C 1751.79 919.512 1758.05 926.147 1764.36 932.691 C 1811.74 981.839 1849.75 1008.28 1910.08 1039.64 C 1926.99 1048.44 1950.66 1060.41 1969.19 1065.17 C 1969.46 1065.24 1969.74 1065.3 1970.02 1065.37 L 1970.66 1067.64 L 1970.92 1066.61 C 1965.71 1067.62 1944.49 1059.54 1937.76 1057.41 C 1849.4 1028.97 1785.53 982.703 1723.65 914.237 C 1714.45 919.802 1705.14 925.637 1695.06 929.462 C 1697.45 920.384 1700.9 911.841 1702.66 902.555 C 1711.46 898.423 1719.66 893.972 1727.93 888.846 z"/>
<path transform="translate(0,0)" fill="rgb(27,40,69)" d="M 552.595 527.748 C 553.232 531.12 541.684 603.917 540.081 611.386 C 535.706 631.767 534.467 630.305 518.132 641.204 C 513.965 643.984 509.474 647.412 507.319 652.095 C 502.647 662.249 501.498 675.091 498.953 686.007 C 495.099 702.535 490.44 718.827 487.188 735.496 C 486.884 727.045 487.822 711.766 483.349 704.671 C 482.027 702.575 481.453 702.711 479.168 702.232 C 471.338 704.152 463.403 711.381 459.12 718.099 C 446.19 738.381 440.249 768.95 430.48 791.595 C 418.186 820.096 402.44 846.62 386.617 873.246 C 380.002 884.376 373.898 895.763 366.936 906.685 C 371.108 891.058 393.831 851.375 401.995 833.439 C 411.029 814.588 421.001 789.736 420.466 768.666 C 420.37 764.864 420.116 760.485 417.057 757.821 C 415.329 756.316 412.906 756.297 410.758 756.686 C 405.706 757.599 400.705 762.121 397.1 765.531 C 387.581 774.535 379.823 785.92 371.406 796.007 C 363.461 805.528 354.554 814.341 347.31 824.42 L 346.417 825.677 C 349.096 815.56 411.823 723.607 421.993 711.733 C 433.375 698.444 446.885 690.964 458.703 675.205 C 468.616 661.985 477.155 647.745 486.419 634.073 C 509.819 599.538 533.266 564.766 552.595 527.748 z"/>
<path transform="translate(0,0)" fill="rgb(27,40,69)" d="M 1112.66 413.655 C 1119.15 422.08 1124.14 433.758 1128.98 443.268 L 1153.68 491.866 A 3002.73 3002.73 0 0 0 1196.98 573.445 C 1219.3 614.813 1241.64 655.118 1270.64 692.349 C 1258.01 663.164 1229.24 614.077 1225.08 584.941 C 1233.83 585.235 1242.48 582.819 1250.86 580.597 C 1259.71 560.413 1265.9 538.064 1277.04 519.066 C 1283.82 551.716 1291.8 584.358 1299.88 616.711 C 1295.85 624.521 1290.04 631.314 1285.66 638.937 C 1282.57 644.296 1280.4 649.177 1282.03 655.316 C 1290.59 679.361 1304.99 701.26 1313.15 725.215 C 1318.87 742.013 1321.44 827.808 1321.46 849.356 A 1562 1562 0 0 1 1309.82 792.994 C 1307.42 779.518 1306.62 762.729 1301.47 750.233 C 1295.77 736.385 1280.41 721.282 1271.19 709.126 C 1261.48 696.317 1252.31 682.976 1243.31 669.653 A 1067.14 1067.14 0 0 1 1136.46 473.371 C 1128.13 453.795 1119.16 433.917 1112.66 413.655 z"/>
<path transform="translate(0,0)" fill="rgb(27,40,69)" d="M 700.582 992.588 C 709.295 1000.88 717.643 1009.44 724.601 1019.3 C 730.928 1028.26 736.351 1038.12 743.715 1046.29 C 759.057 1063.31 777.719 1075.98 792.128 1094.36 C 803.171 1108.44 810.53 1124.97 822.38 1138.57 C 836.815 1155.14 857.405 1166.55 873.771 1181.34 C 908.149 1212.41 939.144 1247.68 975.364 1276.78 L 976.413 1277.61 L 976.103 1278.53 L 977.812 1279.66 C 966.906 1277.52 883.289 1200.19 867.623 1187.13 C 851.07 1173.33 831.25 1161.79 816.889 1145.71 C 804.163 1131.45 796.72 1114.03 785.313 1098.95 C 771.726 1080.99 752.947 1067.98 738.044 1051.25 C 725.205 1036.85 717.511 1019.74 703.168 1006.1 C 699.592 1014.79 696.094 1023.77 695.656 1033.28 C 694.882 1050.1 708.395 1056.55 717.874 1067.56 C 718.091 1067.82 718.303 1068.07 718.518 1068.33 C 717.188 1072.41 715.708 1076.56 714.769 1080.75 C 709.77 1103.03 736.19 1127.21 747.486 1145 C 734.765 1132.45 719.263 1119.28 711.284 1103.06 C 705.297 1090.9 706.725 1081.29 711.134 1069.1 L 697.699 1059.71 C 694.995 1067.97 692.531 1076.37 688.619 1084.14 C 683.058 1084.86 676.669 1085.25 671.372 1086.96 C 659.066 1090.96 656.572 1112.84 646.683 1122.22 C 639.044 1129.47 629.919 1131.99 619.645 1131.79 C 597.889 1151.99 590.653 1150.76 578.367 1180.23 C 575.795 1185.12 572.451 1189.57 569.298 1194.09 C 578.042 1201.17 584.076 1210.25 592.451 1217.47 C 599.043 1223.15 608.659 1224.85 615.933 1229.8 C 622.697 1234.41 628.345 1240.93 634.326 1246.48 C 645.791 1257.12 659.012 1265.23 673.05 1272.05 C 689.123 1279.86 716.783 1281.89 727.957 1289.42 C 736.984 1295.5 744.585 1309.69 751.145 1318.6 C 737.15 1307.09 722.129 1296.67 703.896 1294.28 C 693.895 1292.97 684.386 1291.77 674.95 1287.99 C 664.335 1283.73 654.127 1278.22 643.606 1273.66 C 627.64 1266.75 610.331 1260.47 595.072 1252.22 C 587.139 1247.92 579.896 1242.37 572.022 1237.96 C 559.315 1230.85 551.073 1229.77 537.183 1233.78 C 534.425 1231.84 531.764 1229.71 529.069 1227.68 L 528.102 1228.25 C 527.568 1228.57 527.042 1228.91 526.504 1229.22 C 514.73 1236.12 505.59 1246.54 494.253 1254.15 C 480.794 1263.2 464.72 1267.27 451.335 1277.01 C 441.247 1284.36 427.29 1294.44 418.275 1302.62 C 410.849 1309.36 405.03 1317.65 397.21 1324.04 C 387.676 1331.84 376.198 1336.32 366.138 1343.25 C 355.991 1350.24 347.419 1359.24 337.094 1366.22 C 345.098 1356.94 354.67 1345.12 364.544 1337.94 C 374.98 1330.35 386.903 1325.24 396.238 1316.12 C 412.767 1299.97 422.366 1278.71 440.665 1263.88 C 453.496 1253.49 470.981 1250.79 483.104 1239.29 C 496.62 1226.48 502.448 1208.89 514.505 1196.62 C 521.704 1189.29 531.686 1185.02 539.201 1177.86 C 546.702 1170.72 552.996 1161.99 559.746 1154.14 C 571.59 1140.35 583.903 1126.67 596.48 1113.55 C 604.779 1104.89 615.853 1099.23 623.922 1090.35 C 635.921 1077.16 639.786 1057.38 650.935 1042.96 C 665.673 1023.9 685.432 1010.9 700.582 992.588 z"/>
<path transform="translate(0,0)" fill="rgb(27,40,69)" d="M 685.362 644.673 C 688.913 657.271 683.117 675.913 680.267 688.416 C 685.125 693.495 688.531 698.484 691.585 704.757 C 690.987 713.129 688.107 721.416 688.994 729.851 C 690.272 742.02 699.527 753.036 696.372 765.826 C 692.416 781.858 680.16 798.341 674.404 814.759 C 670.908 824.73 667.865 836.544 669.938 847.11 C 675.61 876.027 722.721 906.511 741.939 929.31 C 761.379 952.372 783.343 990.26 796.537 1017.53 C 782.703 1001.21 769.96 983.75 755.026 968.418 A 155.049 155.049 0 0 0 737.904 953.028 C 724.731 942.989 680.845 914.424 666.003 914.662 C 647.575 914.957 633.581 936.122 622.207 948.272 C 621.586 943.148 621.243 937.432 619.211 932.65 C 617.757 929.23 615.487 926.271 611.716 925.281 C 603.787 923.199 599.336 929.374 595.453 935.196 C 570.096 973.221 542.035 990.063 504.362 1013.98 A 4718.16 4718.16 0 0 0 449.624 1049.5 C 435.201 1058.91 420.966 1068.6 406.277 1077.59 C 425.845 1055.2 451.123 1035.75 474.058 1016.85 C 483.359 1009.19 493.491 1001.83 501.804 993.106 C 515.444 978.798 525.987 951.351 537.024 933.693 C 548.21 915.796 561.796 899.458 572.725 881.387 C 560.39 890.424 550.39 904.469 541.165 916.612 C 552.281 888.845 570.05 868.776 568.651 837.158 C 555.782 850.884 546.816 866.759 537.423 882.921 C 541.992 854.841 551.576 836.832 570.135 815.515 C 576.822 807.834 583.736 800.164 591.424 793.476 C 613.721 774.081 630.059 763.664 639.582 734.48 C 633.651 740.983 628.562 748.328 622.679 754.927 C 616.02 762.395 608.446 769.092 601.033 775.799 C 615.945 755.778 628.432 732.939 641.533 711.646 C 655.524 688.907 670.461 666.82 685.362 644.673 z"/>
<path transform="translate(0,0)" fill="rgb(27,40,69)" d="M 941.387 171.639 C 943.269 177.307 942.428 186.002 942.468 192.075 C 942.892 255.438 933.487 317.991 928.843 381.009 C 943.356 394.001 961.098 410.251 971.067 426.989 C 980.731 443.213 972.809 460.584 980.735 476.62 C 985.852 486.973 993.181 496.573 999.735 506.071 L 1028.54 547.569 C 1036.87 559.366 1045.53 570.709 1050.5 584.431 C 1058.64 606.936 1062.73 631.603 1068.23 654.911 C 1071.09 667.011 1073.47 679.539 1079.3 690.645 C 1084.26 700.11 1104.4 714.129 1113.16 721.721 C 1150.98 754.493 1190.51 794.084 1209.13 841.407 C 1218.34 864.805 1223.65 892.51 1227.67 917.246 C 1202.17 854.621 1166.73 791.962 1111.43 751.173 C 1096.85 740.419 1063.81 721.576 1054.96 708.175 C 1047.25 696.5 1044.19 678.947 1039.22 665.729 C 1027.04 633.313 993.064 548.81 965.374 530.788 C 952.698 539.728 944.332 551.101 936.653 564.349 C 930.005 576.157 923.749 588.145 916.728 599.743 C 917.669 577.557 939.373 456.284 937.397 449.22 C 935.365 447.285 935.376 447.312 932.574 447.108 C 926.171 449.712 921.915 455.749 918.031 461.247 C 905.317 479.243 896.044 500.545 884.6 519.496 C 868.679 545.857 850.491 570.729 834.403 596.951 C 843.038 574.634 849.594 551.104 857.189 528.384 C 866.21 501.398 877.051 473.751 883.034 445.961 C 885.217 435.819 887.83 421.893 884.893 411.758 C 883.824 408.069 881.772 405.289 878.249 403.642 C 874.232 401.763 868.723 403.22 864.955 404.996 C 856.72 408.876 849.799 416.497 845.182 424.237 C 830.889 448.198 822.357 477.188 812.42 503.204 C 799.678 536.564 786.178 569.633 774.048 603.221 C 778.186 575.919 815.476 463.692 806.444 446.809 C 804.837 443.805 801.35 440.915 797.972 440.235 C 789.094 438.449 764.722 457.704 757.11 463.131 C 768.045 436.57 788.341 411.597 804.711 388.069 A 3373.71 3373.71 0 0 0 854.307 314.652 C 873.558 285.382 892.779 255.725 910.646 225.59 C 921.197 207.795 930.548 189.244 941.387 171.639 z"/>
<path transform="translate(0,0)" fill="rgb(27,40,69)" d="M 939.489 104.623 C 948.49 112.429 956.272 126.541 963.308 136.257 L 1000.11 186.108 A 20283.6 20283.6 0 0 1 1228.76 502.831 C 1249.78 489.388 1268.82 473.023 1289.74 459.5 C 1310.54 491.41 1332.38 520.808 1360.88 546.382 C 1373.1 557.349 1389.93 565.765 1399.99 578.677 C 1410.35 591.973 1418.1 608.466 1426.53 623.056 C 1447.71 659.74 1470.95 698.604 1501.62 728.214 C 1510.53 726.602 1519.19 724.874 1527.91 722.341 C 1538.11 740.256 1548.24 758.286 1559.69 775.445 C 1569.37 789.949 1580.56 803.81 1589.19 818.944 C 1585.74 822.826 1582.12 825.805 1578 828.906 C 1556.9 808.444 1534.96 771.749 1519.62 746.336 C 1514.46 747.865 1509.56 749.719 1504.11 748.881 C 1475.47 744.476 1450.24 696.875 1434.18 674.823 A 1540.61 1540.61 0 0 0 1453.29 727.057 C 1458.5 740.25 1464.51 753.151 1469.19 766.544 C 1459.51 750.48 1450.71 734.484 1443.25 717.228 C 1426.4 678.223 1414 637.152 1389.36 601.922 C 1377.37 584.777 1350.97 567.945 1335.03 552.617 C 1316.48 534.791 1301.17 514.436 1285.29 494.294 C 1267.02 510.67 1248.58 529.608 1228.5 543.626 C 1210.9 515.466 1190.34 488.67 1171.05 461.614 L 1086.61 342.207 A 9664.11 9664.11 0 0 0 990.957 210.054 C 974.463 187.584 958.599 163.618 940.49 142.456 C 897.544 198.235 858.354 257.075 817.596 314.469 A 1674.53 1674.53 0 0 0 779.097 371.018 C 768.954 366.874 759.217 361.359 749.466 356.362 C 734.423 380.216 718.667 403.573 703.483 427.325 C 677.78 467.53 652.248 508.461 624.311 547.154 C 600.451 531.334 576.08 516.39 552.346 500.339 C 520.774 549.966 485.279 597.305 451.245 645.245 L 310.872 846.377 C 301.09 840.91 292.272 833.057 283.319 826.309 C 260.764 850.71 235.228 884.211 209.776 904.216 C 178.551 928.757 136.941 943.819 99.907 957.08 C 93.2814 959.453 80.8711 965.332 74.0677 964.514 C 83.081 960.078 92.9744 956.747 102.18 952.427 C 146.943 931.42 190.95 906.095 223.482 868.096 C 243.023 845.272 259.64 819.328 281.031 798.205 C 289.69 804.293 297.999 810.707 306.864 816.532 C 320.521 798.438 332.909 779.415 345.584 760.627 A 11166.4 11166.4 0 0 1 411.082 663.319 A 8073.56 8073.56 0 0 1 495.744 540.742 C 512.843 516.553 530.519 492.968 547.191 468.44 C 570.951 484.022 594.339 500.292 617.997 516.051 C 628.343 503.371 637.047 488.939 646.026 475.255 L 683.941 417.614 C 703.836 387.109 725.731 357.244 744.218 325.916 C 753.503 330.472 762.549 335.893 771.664 340.822 L 889.857 173.054 C 905.631 151.068 921.448 124.469 939.489 104.623 z"/>
<path transform="translate(0,0)" fill="rgb(27,40,69)" d="M 684.714 637.073 C 683.288 640.268 681.812 643.46 680.05 646.485 C 667.079 668.746 648.56 688.127 633.521 709.028 C 622.764 723.978 613.725 740.111 602.987 755.116 C 590.062 773.177 575.069 789.743 561.557 807.37 C 551.139 820.961 542.114 835.59 531.556 849.06 C 501.793 887.031 455.955 935.881 417.838 965.431 C 390.106 986.931 358.016 1004.49 327.479 1021.65 L 270.948 1053.86 C 245.894 1067.86 220.827 1081.42 195.213 1094.39 C 186.101 1099.01 175.873 1105.35 166.03 1107.97 C 169.956 1103.44 215.088 1076.01 223.462 1070.65 C 285.209 1031.16 355.984 991.208 409.839 941.84 C 435.948 917.906 461.538 891.742 483.814 864.181 C 504.008 839.196 518.298 812.329 537.017 787.507 C 547.946 773.014 562.477 761.428 574.288 747.607 C 590.984 728.067 605.578 706.917 621.804 687.032 C 633.092 673.197 645.745 660.322 658.428 647.776 C 667.06 639.236 676.314 629.659 687.102 623.92 C 718.341 653.569 746.482 689.857 770.736 725.435 C 783.915 704.82 799.439 689.312 821.944 679.209 C 834.455 697.448 856.913 707.983 868.473 728.692 C 882.945 754.618 887.748 786.174 898.808 813.824 C 905.483 830.512 917.636 843.923 924.669 860.086 C 931.078 874.814 929.467 887.652 938.587 903.711 C 949.313 922.596 964.687 939.191 974.227 958.675 C 985.182 981.048 990.374 1007.77 1004.45 1028.6 C 1021.13 1053.28 1056.34 1050.14 1077.23 1068.36 C 1089.61 1079.16 1093.4 1096.98 1105.6 1108.08 C 1114.29 1115.99 1126.89 1117.53 1135.75 1125.34 C 1153.52 1141.01 1169.33 1165.57 1187.19 1182.59 C 1210.68 1204.99 1236.51 1225.28 1261.69 1245.75 C 1285.65 1265.23 1309.27 1285.08 1333.39 1304.38 C 1332.49 1295.48 1332.84 1285.51 1330.82 1276.84 C 1327.02 1260.53 1317.26 1244.78 1310.78 1229.33 C 1306.1 1218.16 1303.78 1206.95 1301.77 1195.05 A 251.617 251.617 0 0 0 1310.52 1183.29 C 1336.55 1145.39 1327.55 1135.57 1316.45 1095.64 C 1312.16 1080.19 1309.6 1064.13 1306.69 1048.37 C 1305.31 1073.89 1307.27 1103.02 1299.26 1127.45 C 1294.96 1140.59 1287.21 1152.65 1274.42 1158.86 C 1260.88 1165.43 1246.34 1164.01 1232.52 1159.14 C 1228.31 1157.65 1223.6 1156.11 1221.56 1151.85 C 1221.8 1151.48 1221.9 1150.97 1222.28 1150.75 C 1226.44 1148.37 1235.54 1149.03 1244.98 1142.48 C 1260.93 1131.45 1248.5 1106.38 1252.61 1086.38 C 1259.97 1050.58 1285.19 1022.57 1314.7 1002.83 C 1336.72 961.273 1372.07 954.954 1413.74 943.362 A 423.011 423.011 0 0 0 1464.29 925.836 C 1481.15 918.797 1497.5 909.758 1512.98 900.075 C 1518.97 896.331 1524.64 891.702 1530.78 888.28 L 1532.09 887.558 C 1534.16 885.561 1536.79 884.158 1538.75 882.007 C 1546.49 873.511 1550.74 862.992 1559.84 855.247 C 1563.32 852.256 1576.78 845.575 1577.84 842.558 C 1575.91 841.376 1575.12 841.306 1574.11 839.208 C 1578.43 834.369 1585.33 831.456 1590.45 827.352 C 1592.98 825.322 1596.92 822.193 1597.29 818.76 C 1595.86 818.315 1594.6 818.013 1593.1 817.811 C 1592.62 817.746 1592.14 817.696 1591.66 817.639 C 1591.79 813.914 1603.68 808.931 1606.47 805.91 C 1607.84 804.424 1607.56 805.182 1607.53 803.388 C 1606.24 803.407 1605.21 803.365 1603.92 803.163 C 1606.78 796.811 1613.78 790.465 1618.21 784.895 C 1616.06 783.805 1615.08 783.934 1614.14 781.622 C 1618.06 777.743 1624.79 774.216 1627.24 769.413 C 1626.7 767.508 1625.99 766.758 1626.86 764.907 L 1628.27 764.431 C 1631.54 763.303 1633.97 762.784 1636 759.89 C 1634.06 757.602 1631.45 759.535 1631.6 756.319 C 1640.81 747.494 1669.4 735.686 1682.11 731.341 C 1686.95 720.712 1692.81 710.893 1700.87 702.356 C 1706.69 718.431 1706.47 727.908 1717.19 742.93 L 1718.13 743.338 L 1718.52 740.97 C 1728.15 744.549 1749.1 769.725 1757.46 777.419 C 1768.28 787.383 1780.69 796.541 1790.67 807.265 C 1790.74 810.111 1789.92 811.289 1788.01 813.414 C 1783.9 817.982 1772.6 828.542 1766.52 829.16 C 1760.48 829.772 1753.05 820.706 1741.21 820.596 C 1735.56 820.543 1715.54 824.063 1712.3 820.294 C 1710.94 818.711 1710.13 817.264 1709.15 815.445 C 1707.36 816.63 1707.42 818.704 1706.98 820.76 C 1703.6 836.333 1702.58 853.063 1700.57 868.914 C 1696.43 901.566 1689.96 929.274 1678.06 960.127 A 251.76 251.76 0 0 1 1634.53 1032.12 C 1628.44 1039.26 1619.6 1045.97 1614.73 1053.88 C 1609 1063.18 1608.76 1075.95 1604.95 1086.22 C 1599.72 1100.31 1591.78 1113.36 1586.31 1127.37 C 1580.75 1141.61 1572.08 1173.74 1581.29 1187.09 C 1586.29 1194.36 1594.83 1199.42 1601.52 1205.09 C 1636.34 1190.87 1671.23 1176.61 1707 1164.97 C 1704.22 1160.62 1701.4 1156.43 1699.42 1151.65 C 1703.51 1132.66 1708.46 1108.33 1696.82 1090.84 C 1687.81 1077.3 1643.04 1058.34 1626.91 1049.22 C 1637.74 1037.89 1647.87 1026.14 1656.68 1013.14 L 1657.62 1014.42 C 1666 1025.75 1677.18 1036.31 1687.65 1045.76 C 1698.73 1055.74 1716.31 1065.73 1722.22 1079.69 C 1729.54 1096.97 1726.85 1121.64 1724.96 1139.8 C 1727.92 1145.74 1730.44 1151.4 1732.34 1157.76 C 1743.25 1153.14 1755.16 1151.94 1766.45 1156.27 C 1771.33 1158.14 1774.78 1161.02 1778.38 1164.72 C 1783.36 1182.9 1786.96 1215.68 1776.76 1232.71 C 1773.89 1237.5 1769.4 1240.03 1764.84 1243 C 1769.99 1264.05 1778.74 1285.92 1779.55 1307.65 C 1779.9 1317.21 1778.52 1327.1 1777.64 1336.63 C 1790.31 1336.81 1803.47 1344.97 1813.26 1352.63 C 1831.64 1344.03 1851.59 1337.46 1871.9 1344.36 C 1887.1 1349.53 1897.41 1367.4 1903.76 1381.24 C 1905.13 1384.23 1906.43 1387.25 1907.76 1390.26 L 1909.18 1390.65 C 1918.74 1393.23 1928.78 1393.82 1938.65 1393.95 C 1950.76 1394.11 1973.43 1389.5 1982.79 1397.93 L 1983.31 1400.09 C 1980.87 1403.16 1975.98 1403.65 1972.33 1404.11 C 1952.08 1406.7 1927.49 1406.47 1907.34 1403.66 C 1908.92 1413.3 1910.54 1423.01 1913.33 1432.4 C 1892.68 1444.61 1869.37 1455.24 1846.63 1462.82 C 1830.9 1468.06 1814.58 1472.05 1799.04 1477.74 C 1814.27 1490.72 1828.81 1504.67 1844.63 1516.91 C 1829.53 1526.98 1814.34 1536.95 1799.39 1547.24 C 1789.04 1554.36 1778.83 1562.97 1767.51 1568.4 C 1754.44 1574.67 1738.6 1577.24 1724.52 1580.54 A 1485.54 1485.54 0 0 0 1678.81 1591.86 C 1648.98 1599.65 1619.78 1609.37 1590.04 1617.35 C 1590.24 1617.82 1590.43 1618.29 1590.64 1618.75 C 1597.18 1633.33 1617.78 1642.83 1611.06 1661.26 C 1608.39 1668.58 1601.07 1674.67 1596.04 1680.52 C 1592.84 1684.24 1594.3 1688.58 1591.83 1691.91 C 1586.57 1699.04 1568.76 1710.04 1561.05 1715.91 A 1963.98 1963.98 0 0 0 1510.05 1755.75 C 1523.77 1737.74 1537.71 1719.7 1552.43 1702.49 C 1529.53 1709.68 1505.47 1715.91 1483.86 1726.46 C 1463.6 1736.36 1445.06 1750.91 1427.43 1764.88 C 1408.55 1779.85 1390 1796.03 1369 1808.04 C 1377.79 1799.63 1384.84 1789.94 1392.71 1780.72 C 1404.06 1767.43 1416.02 1755.33 1425.24 1740.34 C 1395.73 1762.19 1367.38 1785.81 1338.49 1808.49 C 1311.9 1829.35 1284.63 1849.26 1258.13 1870.24 C 1284.69 1835.48 1313.88 1802.62 1340.77 1768.07 C 1348.92 1757.6 1358.46 1747.17 1365.43 1735.95 C 1353.63 1731.68 1341.81 1728.24 1331.64 1720.63 C 1297.64 1732.47 1262.89 1742.84 1228.58 1753.83 C 1208.98 1760.1 1188.94 1766.05 1170.01 1774.14 C 1176.92 1775.83 1183.46 1776.85 1190.5 1777.77 L 1188.27 1780.38 C 1187.9 1780.37 1187.53 1780.34 1187.16 1780.35 C 1184.45 1780.43 1182.56 1782.28 1180.3 1783.58 C 1178.81 1784.44 1179.29 1784.15 1177.24 1784.33 C 1176.43 1786.34 1176.53 1785.39 1176.65 1787.12 C 1165.14 1789.23 1134.6 1790.63 1123.47 1788.55 L 1120.17 1791.86 C 1122.43 1796.75 1125.65 1802.18 1126.59 1807.49 C 1117.16 1810.04 1109.72 1802.48 1100.13 1807.92 L 1099.18 1809.74 C 1100.16 1811.11 1101.1 1812.47 1101.98 1813.91 C 1091.05 1822.14 1078.06 1828.54 1066 1834.97 L 1066.36 1837.99 C 1043.06 1852.58 1018.28 1857.68 992.211 1865.22 C 978.326 1869.24 964.643 1874.05 950.957 1878.69 C 951.423 1884.28 951.478 1889.84 951.533 1895.44 C 923.091 1916.41 889.616 1915.84 857.488 1925.97 C 845.213 1929.84 834.385 1937.94 822.368 1942.64 C 801.245 1950.91 777.177 1954.82 755.056 1959.65 C 768.977 1951.41 784.809 1945.67 799.603 1939.15 C 813.847 1932.87 827.793 1925.83 841.774 1918.99 A 147.775 147.775 0 0 1 839.493 1917.72 C 836.589 1916.06 833.425 1914.44 832.882 1910.78 C 832.401 1907.53 834.019 1904 835.866 1901.41 C 840.542 1894.84 849.304 1889.08 857.133 1887.79 C 878.906 1860.66 897.992 1831.44 919.286 1803.93 C 934.707 1784.01 951.101 1764.81 966.866 1745.15 A 2596.55 2596.55 0 0 0 1023.18 1671.17 C 1006.26 1677.33 989.775 1686 973.313 1693.38 C 949.917 1703.86 924.852 1713.67 902.623 1726.32 C 894.039 1731.21 886.331 1737.18 878.849 1743.59 C 886.129 1750.07 892.396 1757.99 898.416 1765.62 C 898.222 1765.96 898.062 1766.32 897.836 1766.64 C 889.202 1778.72 785.61 1828.88 764.738 1839.09 C 755.093 1843.81 745.319 1848.65 736.327 1854.54 C 724.777 1862.1 714.08 1870.64 701.894 1877.26 C 647.527 1906.79 547.751 1948.13 487.894 1958.33 C 514.973 1945.51 544.318 1936.97 571.807 1924.63 C 663.443 1883.48 719.471 1839.99 791.735 1772.04 C 728.473 1781.89 665.03 1792.03 601.341 1798.75 C 483.696 1811.16 362.88 1815.98 244.664 1818.39 A 6168.37 6168.37 0 0 1 139.71 1819.03 C 120.056 1819.05 99.3829 1820.3 79.8786 1818.15 C 75.0933 1818.47 70.0908 1818 65.2886 1817.85 C 74.8179 1816.16 84.334 1814.95 93.9406 1813.82 C 107.767 1811.23 122.275 1810.33 136.277 1808.57 C 171.628 1804.14 207.674 1800.05 242.739 1793.89 C 253.327 1781.66 263.682 1770.18 271.991 1756.2 C 265.21 1761.01 257.993 1765.65 250.008 1768.18 C 243.288 1770.3 235.958 1770.57 229.616 1767.13 C 225.936 1765.13 219.892 1760.09 219.092 1755.77 C 218.423 1752.16 236.819 1749.29 240.341 1748.03 C 253.815 1743.19 261.814 1730.53 269.158 1719.12 C 259.833 1723.76 249.476 1727.59 238.901 1724.32 C 236.205 1723.49 235.467 1722.58 234.129 1720.19 C 234.266 1717.94 233.831 1716.51 235.781 1715.03 C 238.833 1712.72 243.699 1711.52 247.119 1709.48 C 257.777 1703.14 267.409 1692.74 275.078 1683.12 C 268.238 1685.15 259.131 1688.34 252.049 1685.95 C 249.841 1685.2 249.7 1684.72 248.645 1682.79 C 248.873 1681.65 248.762 1680.39 249.327 1679.38 C 251.662 1675.19 261.989 1667.41 265.89 1663.37 C 273.241 1655.75 277.951 1647.32 282.714 1637.92 C 279.015 1640.35 273.856 1644.49 269.386 1644.85 C 266.976 1645.04 266.582 1644.47 264.774 1643.07 C 264.311 1640.88 264.213 1640.83 265.434 1639.05 C 267.319 1636.3 270.644 1634.29 272.957 1631.85 C 277.542 1627.01 281.477 1620.09 284.431 1614.13 C 285.895 1611.18 288.049 1607.29 286.96 1604.06 C 285.516 1604.53 284.22 1605.02 282.85 1605.69 C 281.059 1606.56 280.746 1606.16 278.842 1605.81 C 277.827 1603.85 277.706 1603.84 278.557 1601.86 C 280.58 1597.18 285.522 1593.58 287.914 1588.89 C 292.739 1579.43 294.907 1567.64 297.98 1557.45 C 300.139 1569.05 302.994 1584.55 310.68 1593.95 C 313.234 1597.07 317.552 1599.24 318.988 1603.04 L 317.935 1604.78 C 314.564 1606.06 310.856 1605.28 307.348 1604.9 C 309.008 1609.62 310.906 1614.28 313.503 1618.58 C 317.733 1625.58 330.531 1638.3 330.229 1645.96 L 328.008 1646.61 C 322.791 1645.73 318.333 1642.73 313.771 1640.17 C 319.862 1652.78 339.477 1672.98 342.296 1681.89 L 340.756 1683.5 C 332.254 1685.8 321.964 1680.08 314.568 1676.27 C 321.436 1686.07 334.846 1701.45 345.914 1706.29 C 347.363 1706.92 348.881 1707.4 350.345 1706.6 C 356.501 1703.28 359.28 1690.61 361.092 1684.29 C 357.168 1685.36 352.462 1687.3 348.43 1686.38 L 347.28 1684.48 C 347.046 1677.66 351.983 1676.94 355.696 1672.47 C 360.797 1666.33 372.878 1646.27 372.027 1638.5 C 369.301 1635.78 366.587 1637.77 363.566 1635.35 C 363.98 1629.22 372.251 1622.25 374.682 1615.8 C 376.545 1610.86 376.838 1604.98 377.435 1599.75 C 380.067 1609.16 382.873 1618.5 387.211 1627.28 L 397.45 1633.55 C 396.144 1635.55 394.8 1637.35 393.238 1639.16 C 389.597 1639.48 386.889 1637.2 383.738 1635.46 C 387.534 1654.19 394.984 1667.22 409.628 1679.54 C 431.331 1662.01 447.927 1643.6 460.688 1618.6 C 447.346 1628.1 427.817 1643.87 410.7 1642.05 C 407.932 1641.76 406.087 1641.09 404.235 1638.93 C 403.503 1635.54 404.804 1633.42 406.732 1630.75 C 412.301 1623.04 419.892 1616.31 426.404 1609.34 C 439.889 1594.89 450.667 1579.33 459.417 1561.63 C 451.188 1566.55 440.01 1573.89 430.04 1572.89 C 427.183 1572.6 426.231 1572.04 424.446 1569.87 C 424.53 1567.11 424.618 1566.34 426.239 1563.99 C 430.074 1558.43 435.163 1553.32 439.516 1548.13 C 451.417 1533.93 463.032 1519.2 470.521 1502.16 C 463.194 1509.25 456.923 1515.41 446.696 1518.17 C 442.887 1519.2 440.186 1519.63 436.697 1517.64 C 435.935 1511.08 451.212 1496.08 455.338 1489.92 C 465.989 1474.05 474.034 1457.58 481.691 1440.14 C 477.448 1444.39 470.266 1451.64 463.878 1451.42 C 462.416 1451.36 462.688 1451.09 461.602 1449.84 C 461.511 1448.72 461.189 1447.59 461.329 1446.48 C 461.619 1444.19 477.537 1421.82 480.354 1415.87 C 488.659 1398.33 494.922 1379.9 497.801 1360.66 C 503.394 1379.95 506.579 1399.17 515.47 1417.49 C 520.822 1428.51 530.953 1438.81 534.728 1450.05 C 533.443 1452.08 533.1 1452.05 530.835 1452.96 C 523.425 1452.18 518.12 1447.04 512.563 1442.53 C 516.356 1453.75 522.097 1463.74 528.582 1473.61 C 532.901 1480.19 558.941 1510.68 558.793 1514.79 C 557.886 1515.79 557.71 1516.38 556.291 1516.64 C 545.995 1518.55 529.957 1508.99 521.435 1503.99 C 525.697 1513.41 531.535 1521.86 537.839 1530.02 C 541.793 1535.14 573.251 1568.97 573.935 1571.38 C 574.129 1572.07 573.879 1572.81 573.851 1573.52 C 572.047 1575.8 571.574 1576.62 568.625 1577.37 C 556.856 1580.35 536.984 1566.69 528.141 1560.51 C 538.328 1579.94 552.666 1598.89 568.14 1614.48 C 573.623 1620 580.521 1624.5 585.608 1630.34 C 587.31 1632.3 587.245 1633.5 586.941 1635.94 C 583.426 1639.77 579.838 1640.49 574.74 1641.02 C 557.698 1642.82 545.551 1631.09 533.525 1620.98 C 547.649 1646.93 565.68 1666.04 587.295 1685.75 C 599.401 1675.91 607.982 1665.93 616.363 1652.8 C 610.269 1656.45 603.662 1659.02 596.536 1659.74 C 594.364 1659.95 593.013 1659.81 591.341 1658.37 C 591.241 1655.86 591.412 1655.57 592.922 1653.51 C 595.972 1649.35 600.15 1645.49 603.59 1641.59 C 612.839 1631.13 619.725 1619.65 624.138 1606.39 C 620.92 1607.86 616.639 1610.3 613.123 1610.53 C 610.707 1610.69 610.367 1610.22 608.601 1608.77 C 608.439 1607.72 607.866 1606.66 608.113 1605.63 C 608.415 1604.36 616.585 1597.6 618.035 1595.67 C 625.976 1585.09 628.632 1571.66 631.887 1559.11 C 634.203 1567.89 636.112 1577.35 639.703 1585.68 C 639.924 1586.2 640.167 1586.7 640.395 1587.21 C 642.948 1592.91 647.879 1596.34 651.939 1600.88 C 653.907 1603.08 654.778 1603.99 654.62 1606.96 C 649.427 1611.32 647.599 1607.27 642.156 1607.04 C 641.857 1618.45 666.737 1644.56 673.356 1655.3 C 671.938 1657.37 671.503 1658.11 668.914 1658.82 C 663.026 1660.46 655.723 1657.07 650.681 1654.35 C 653.998 1661.43 657.521 1667.94 662.362 1674.11 C 667.858 1681.11 681.856 1690.72 683.997 1698.88 C 684.422 1700.5 683.715 1700.91 682.931 1702.23 C 674.949 1705.75 665.669 1703.05 657.951 1700.16 C 665.158 1713.57 683.101 1733.34 694.981 1742.9 C 705.894 1731.75 715.254 1719.8 722.578 1706 A 107.592 107.592 0 0 1 717.332 1709.52 C 709.35 1714.53 688.611 1724.52 679.231 1721 C 676.899 1720.12 676.727 1718.95 675.856 1716.85 C 677.415 1712.23 697.076 1696.7 701.803 1691.69 C 711.084 1681.86 718.458 1671.19 725.096 1659.45 C 720.479 1662.79 715.815 1666.31 710.968 1669.31 C 705.94 1672.42 697.089 1675.06 691.263 1673.28 C 689.699 1672.8 690.122 1672.88 689.45 1671.33 C 693.756 1663.34 701.022 1656.74 707.138 1650.13 C 716.661 1639.82 724.957 1629.51 731.369 1616.97 C 725.138 1620.66 718.241 1624.79 710.809 1625.03 C 707.783 1625.13 705.484 1624.59 703.232 1622.59 C 704.142 1617.54 712.656 1609.55 716.227 1605.34 C 724.854 1595.19 730.746 1585.78 735.811 1573.49 C 732.312 1575.48 728.81 1577.15 725.051 1578.58 C 722.266 1579.64 719.067 1580.97 716.237 1579.68 C 715.693 1573.93 730.295 1560.87 734.15 1555 C 739.076 1547.5 742.342 1539.44 745.517 1531.08 C 742.841 1532.76 739.974 1534.53 736.967 1535.53 C 734.649 1536.31 732.338 1536.76 730.088 1535.62 C 729.12 1533.58 728.677 1533.28 729.82 1531.12 C 732.106 1526.81 736.724 1522.79 739.58 1518.72 C 747.435 1507.55 750.145 1490.8 751.893 1477.56 C 754.046 1489.09 755.783 1501.28 760.93 1511.92 C 763.71 1517.66 772.979 1526.42 773.562 1531.8 L 771.67 1533.47 C 766.902 1534.4 762.245 1533.27 757.514 1532.49 A 94.6829 94.6829 0 0 0 775.763 1563.14 C 779.382 1567.19 783.605 1571.08 786.815 1575.44 C 788.227 1577.35 788.61 1577.81 788.688 1580.25 L 786.889 1581.37 C 778.491 1581.83 773.136 1578.05 766.239 1573.83 C 774.892 1597.14 783.565 1601.47 798.127 1619.51 C 799.739 1621.51 800.403 1622.26 800.101 1624.92 L 798.709 1625.92 C 789.382 1627.49 779.551 1623.24 771.229 1619.41 A 105.667 105.667 0 0 0 801.323 1657.72 C 811.849 1646.1 820.626 1630.57 825.073 1615.54 C 822.32 1617.52 819.506 1619.39 816.512 1620.99 C 813.728 1622.48 811.845 1623.02 808.825 1622.07 C 807.257 1619.23 807.658 1618.45 809.691 1615.92 C 826.443 1595.02 832.978 1575.76 839.076 1550.06 C 842.913 1563.89 844.112 1576.55 850.823 1589.62 C 853.091 1594.04 855.66 1598.4 858.535 1602.45 C 861.596 1606.76 870.094 1613.37 870.716 1618.32 L 869.193 1619.64 C 862.591 1620.41 856.144 1617.62 850.416 1614.66 C 853.047 1621.49 856.301 1627.74 860.318 1633.87 C 864.313 1639.96 879.174 1655.17 879.942 1660.8 L 878.463 1662.39 C 868.854 1664.21 862.347 1660.79 854.258 1656.2 C 858.139 1664 862.753 1670.98 868.081 1677.87 C 873.605 1685.01 891.228 1700.93 892.461 1709.26 C 892.705 1710.9 892.078 1711.05 891.13 1712.23 C 881.862 1714 868.423 1706.57 860.275 1702.54 C 867.65 1711.15 875.678 1719.04 884.155 1726.55 C 920.73 1694.17 967.841 1676.71 1011.57 1656.16 C 1021.08 1651.69 1036.25 1646.77 1043.99 1639.87 C 1062.74 1623.15 1085.03 1576.58 1094.57 1552.31 C 1099.3 1540.28 1103.01 1526.62 1109.53 1515.52 C 1120.82 1496.31 1144.48 1488.72 1159.42 1473.09 C 1166.04 1466.15 1171.59 1457.74 1177.34 1450.05 C 1194.4 1427.22 1235.82 1367.53 1257.27 1354.95 C 1279.11 1342.15 1305.36 1335.31 1328.42 1324.61 C 1316 1313.39 1300.12 1304.67 1286.58 1294.61 C 1261.18 1275.74 1236.92 1255.67 1212.49 1235.58 C 1179.05 1208.08 1145.21 1180.89 1112.78 1152.18 C 1091.85 1133.65 1072.31 1113.13 1050.33 1095.85 C 1036.56 1085.02 1021.15 1076.48 1006.26 1067.31 C 984.003 1053.61 961.414 1037.39 943.521 1018.25 C 927.492 1001.11 921.451 977.559 907.129 959.23 C 898.92 948.723 884.782 942.155 878.043 931.055 C 874.054 924.485 874.574 915.908 872.799 908.584 C 870.935 900.895 865.062 894.356 862.477 886.835 C 857.831 873.316 858.256 858.576 852.833 845.096 C 848.955 835.455 841.832 826.178 836.39 817.317 A 552.191 552.191 0 0 1 812.282 774.407 C 807.5 764.755 792.79 737.013 799.778 726.781 C 803.619 721.155 810.893 716.929 815.303 711.192 C 817.317 708.572 819.926 704.773 820.616 701.487 C 821.193 698.738 820.761 698.083 819.523 695.756 C 818.044 694.909 817.258 693.977 815.475 694.287 C 807.538 695.67 792.212 713.076 787.241 720.25 C 773.019 740.775 778.051 750.555 782.074 773.544 C 776.406 761.225 770.946 748.392 763.749 736.898 C 753.217 720.077 739.495 704.961 727.251 689.362 C 713.395 671.709 700.757 652.856 684.714 637.073 z"/>
<path transform="translate(0,0)" fill="rgb(17,30,62)" d="M 1391.36 1694.92 C 1394.42 1694.99 1395.74 1694.96 1398.32 1696.83 C 1401.08 1700.56 1401.22 1705.06 1401.87 1709.54 C 1399.99 1709.73 1399.42 1709.71 1397.7 1709.27 C 1394.85 1705.23 1394.38 1700.23 1391.89 1695.84 C 1391.72 1695.53 1391.54 1695.23 1391.36 1694.92 z"/>
<path transform="translate(0,0)" fill="rgb(17,30,62)" d="M 65.2886 1817.85 C 74.8179 1816.16 84.334 1814.95 93.9406 1813.82 C 96.9391 1814.22 99.6618 1814.68 102.538 1815.64 C 114.728 1819.69 122.785 1815.63 134.189 1817.15 C 134.624 1817.21 135.061 1817.25 135.497 1817.3 C 117.167 1819.18 98.1121 1815.7 79.8786 1818.15 C 75.0933 1818.47 70.0908 1818 65.2886 1817.85 z"/>
<path transform="translate(0,0)" fill="rgb(254,254,254)" d="M 1622.74 803.568 C 1631.5 801.81 1637.52 802.952 1644.98 807.982 C 1647.57 809.727 1650.04 811.73 1652.49 813.657 C 1638.37 808.389 1628.22 806.733 1614.06 813.389 C 1613.41 813.693 1612.77 814.028 1612.15 814.376 L 1611.51 812.537 C 1613.8 807.024 1617.43 805.805 1622.74 803.568 z"/>
<path transform="translate(0,0)" fill="rgb(254,254,254)" d="M 788.483 1789.33 C 794.95 1792.66 802.461 1797.6 807.724 1802.58 L 807.367 1803.71 L 803.524 1803.53 C 797.192 1802.93 791.267 1803.22 784.951 1803.64 L 784.599 1803.01 C 785.338 1800.36 786.359 1797.6 786.1 1794.82 C 785.895 1792.61 787.316 1791.24 788.483 1789.33 z"/>
<path transform="translate(0,0)" fill="rgb(254,254,254)" d="M 1588.62 846.273 C 1604.57 849.03 1613.85 849.836 1626.42 861.397 C 1613.74 856.315 1597.97 849.649 1584.34 854.529 C 1582.23 855.288 1580.11 855.114 1577.91 854.953 C 1581.77 851.278 1583.36 848.035 1588.62 846.273 z"/>
<path transform="translate(0,0)" fill="rgb(254,254,254)" d="M 994.837 1844.11 C 993.062 1843.3 992.592 1842.78 991.445 1841.15 C 983.885 1830.41 972.244 1821.93 965.549 1810.8 C 964.542 1809.13 963.835 1808.39 964.324 1806.42 L 966.577 1806.73 C 976.495 1816.46 992.6 1829.26 997.491 1842.26 L 997.171 1843.58 L 994.837 1844.11 z"/>
<path transform="translate(0,0)" fill="rgb(254,254,254)" d="M 1629.35 784.154 C 1632.62 781.879 1639.22 782.634 1643.3 782.634 C 1648.77 785.91 1654.41 789.066 1659.66 792.681 C 1651.81 791.323 1641.41 788.676 1633.54 790.586 L 1633.11 791.878 C 1636.02 794.352 1638.88 795.48 1642.42 796.845 C 1635.8 796.34 1629.37 795.624 1622.84 797.186 L 1621.64 795.914 C 1622.93 792.297 1627.91 790.516 1630.35 787.245 L 1629.35 784.154 z"/>
<path transform="translate(0,0)" fill="rgb(254,254,254)" d="M 321.195 1720.49 C 330.961 1722.48 339.05 1729.38 349.477 1731.12 L 350.827 1731.33 C 350.784 1733.77 348.962 1734.98 347.401 1736.78 C 344.791 1738.85 342.02 1740.73 339.297 1742.65 C 332.112 1735.99 326.562 1728.65 321.195 1720.49 z"/>
<path transform="translate(0,0)" fill="rgb(254,254,254)" d="M 1314 1694.67 C 1317.01 1694.96 1317.42 1694.61 1319.44 1696.8 C 1315.51 1707.72 1292.15 1721.32 1282.34 1726.51 L 1279.38 1727.42 L 1279.48 1725.91 C 1289.32 1714.53 1302.44 1704.39 1314 1694.67 z"/>
<path transform="translate(0,0)" fill="rgb(254,254,254)" d="M 1574.83 869.273 C 1581.85 866.708 1585.96 866.101 1593.33 867.557 C 1598.7 869.352 1604.06 870.98 1608.96 873.879 C 1604.34 875.37 1593.2 871.445 1587.78 871.04 C 1583.96 870.753 1579.91 871.581 1576.16 872.28 L 1572.63 873.925 L 1572.72 875.103 C 1580.15 878.438 1587.31 880.763 1594.18 885.253 L 1595.46 886.066 L 1596.21 886.565 C 1586.27 884.4 1574.52 882.926 1565.04 879.466 C 1561.22 877.89 1556.82 877.339 1552.78 876.525 C 1559.7 873.08 1567.4 871.32 1574.83 869.273 z"/>
<path transform="translate(0,0)" fill="rgb(254,254,254)" d="M 1605.79 822.69 C 1614.2 821.152 1624.67 817.735 1632.36 823.017 C 1635.69 825.307 1638.34 829.207 1640.93 832.277 C 1632.49 829.189 1624.61 826.443 1615.48 828.606 L 1615.32 829.806 L 1614.98 830.048 C 1617.96 831.765 1620.85 832.327 1624.19 833.028 C 1627.63 836.454 1630.68 839.43 1633.04 843.736 L 1632.76 844.15 C 1631.01 842.947 1629.37 841.8 1627.78 840.37 C 1627.08 839.656 1626.73 839.239 1625.97 838.672 C 1618.6 833.237 1604.32 834.428 1595.74 836.085 L 1594.2 836.39 L 1593.93 836.015 C 1598 830.56 1613.53 827.122 1620.14 824.905 C 1614.35 825.648 1608.45 826.646 1602.63 826.012 L 1602.5 824.763 L 1605.79 822.69 z"/>
<path transform="translate(0,0)" fill="rgb(254,254,254)" d="M 1675.07 746.919 C 1677.34 748.064 1679.43 751.174 1680.77 753.305 C 1675.09 754.537 1669.04 753.573 1663.47 755.024 C 1660.35 755.837 1656.95 757.547 1655.39 760.362 C 1665.39 759.292 1665.34 758.697 1674.21 763.726 C 1664.52 763.927 1651.74 762.756 1644.02 769.493 L 1644.52 770.324 C 1648.7 769.691 1652.69 769.144 1656.93 769.127 L 1657.6 770.161 L 1654.1 772.618 C 1659.63 773.593 1662.57 774.5 1666.65 778.466 C 1664.71 780.896 1657.59 776.084 1654.74 775.541 C 1648.6 774.372 1639.56 777.636 1633.6 779.149 L 1633.54 778.257 C 1635.09 776.623 1636.2 775.372 1638.21 774.281 C 1638.63 774.056 1639.07 773.874 1639.49 773.67 C 1639 772.22 1639.17 771.592 1639.38 770.108 C 1647.63 759.059 1663.21 753.322 1675.07 746.919 z"/>
<path transform="translate(0,0)" fill="rgb(254,254,254)" d="M 819.903 1657.02 C 819.813 1666.25 806.159 1682.6 799.823 1689.01 C 791.698 1682.85 784.621 1676.44 778.074 1668.61 C 775.893 1665.91 774.232 1662.36 772.464 1659.35 C 780.361 1665.18 789.984 1670.78 799.419 1673.6 C 802.454 1674.51 804.989 1675.05 807.893 1673.42 C 808.587 1670.58 807.491 1669.55 806.311 1667 C 808.998 1663.3 815.919 1659.85 819.903 1657.02 z"/>
<path transform="translate(0,0)" fill="url(#Gradient2)" d="M 968.088 1805.89 C 976.697 1813.16 985.373 1820.51 994.765 1826.75 C 1002.09 1831.62 1010.41 1835.49 1017.05 1841.25 L 1014.71 1843.59 L 1014.95 1844.91 C 1018.69 1846.62 1025.06 1845.34 1027.59 1847.89 C 1026.17 1849.79 1025.07 1850.31 1022.91 1851.21 C 1020.45 1851.23 1019.11 1850.83 1016.81 1849.94 C 1014.09 1848.89 1012.9 1849 1010.11 1849.23 C 1007.86 1849.41 1005.66 1848.65 1003.52 1848.02 C 1001.88 1848.98 1000.29 1849.9 998.593 1850.76 L 998.446 1852.53 L 998.432 1850.81 L 996.195 1849.62 L 996.339 1851.27 C 994.466 1848.46 994.818 1847.41 994.837 1844.11 L 997.171 1843.58 L 997.491 1842.26 C 992.6 1829.26 976.495 1816.46 966.577 1806.73 L 968.088 1805.89 z"/>
<path transform="translate(0,0)" fill="rgb(254,254,254)" d="M 1363.59 1688.08 C 1365.54 1690.04 1368.53 1715.52 1369.44 1720.8 C 1365.61 1718.72 1359.13 1714.24 1354.86 1714.79 C 1357.96 1720.53 1366.8 1723.9 1368.2 1730.46 L 1366.18 1730.88 L 1367.94 1729.18 C 1363.79 1730.89 1363.53 1730.2 1359.48 1728.69 C 1347.87 1723.09 1338.44 1714.73 1332.01 1703.54 C 1342.25 1697.35 1352.35 1692.23 1363.59 1688.08 z"/>
<path transform="translate(0,0)" fill="rgb(254,254,254)" d="M 539.17 1687.61 C 560.72 1699.35 564.858 1708.34 591.883 1710.89 C 586.809 1715.71 582.197 1720.63 577.7 1725.99 C 574.095 1730.45 570.358 1734.76 566.536 1739.03 C 554.49 1723.87 547.008 1705.15 539.17 1687.61 z"/>
<path transform="translate(0,0)" fill="rgb(254,254,254)" d="M 820.174 1756.47 C 833.154 1762.54 842.888 1773.75 853.034 1783.64 C 844.516 1787.83 836.026 1791.87 827.254 1795.51 C 825.357 1796.26 822.551 1797.45 820.468 1797.4 C 814.268 1797.25 803.8 1788.66 799.71 1784.12 C 800.919 1775.2 814.138 1763.03 820.174 1756.47 z"/>
<path transform="translate(0,0)" fill="rgb(254,254,254)" d="M 1696.21 1504.66 L 1697.69 1505.58 C 1701.43 1523.86 1700.41 1542.8 1697.5 1561.07 C 1694.95 1562.94 1691.43 1565.9 1688.22 1566.06 C 1686.76 1566.13 1686.34 1565.37 1685.29 1564.52 C 1685.21 1563.04 1685.19 1561.78 1685.42 1560.31 C 1685.48 1559.9 1685.56 1559.5 1685.63 1559.1 L 1684.65 1561.08 C 1683.41 1561.87 1682.3 1562.35 1680.94 1562.89 C 1677.77 1562.38 1676.04 1562.47 1673.63 1560.02 C 1669.2 1555.51 1670.9 1535.37 1670.85 1529.06 C 1678.9 1520.51 1687.6 1512.64 1696.21 1504.66 z"/>
<path transform="translate(0,0)" fill="rgb(254,254,254)" d="M 948.387 1803.84 C 949.147 1804.07 949.908 1804.64 950.593 1805.04 C 956.515 1819.63 958.671 1836.42 955.218 1851.99 C 954.47 1855.36 952.896 1855.78 950.146 1857.47 L 950.897 1859.87 L 950.139 1860.78 C 943.723 1858.68 937.24 1856.69 931.554 1852.97 C 929.882 1853.28 929.534 1853.29 927.801 1852.83 L 928.004 1851.93 C 924.177 1848.82 920.808 1848.17 916.087 1847.36 C 921.614 1831.78 934.778 1813.13 948.387 1803.84 z"/>
<path transform="translate(0,0)" fill="rgb(254,254,254)" d="M 462.577 1681.06 C 462.264 1684.7 460.557 1688.61 459.383 1692.1 C 452.07 1713.86 440.51 1732.18 424.89 1748.92 C 416.921 1744.34 410.545 1738.18 404.052 1731.77 C 411.689 1732.85 419.334 1734.97 426.519 1731.26 C 422.034 1719.93 404.133 1703.94 396.071 1689.15 C 403.23 1696.17 409.306 1701 418.485 1705.12 C 436.406 1701.34 448.418 1691.97 462.577 1681.06 z"/>
<path transform="translate(0,0)" fill="rgb(254,254,254)" d="M 845.483 1730.82 C 860.156 1732.26 882.237 1756.54 891.618 1766.87 C 884.74 1769.4 878.219 1772.41 871.625 1775.6 L 861.35 1780.97 C 848.46 1770.57 837.522 1759.29 825.964 1747.5 C 831.056 1739.53 837.655 1735.71 845.483 1730.82 z"/>
<path transform="translate(0,0)" fill="rgb(17,30,62)" d="M 1618.21 784.895 C 1622.19 784.004 1625.35 783.046 1629.35 784.154 L 1630.35 787.245 C 1627.91 790.516 1622.93 792.297 1621.64 795.914 L 1622.84 797.186 L 1618.94 800.711 C 1619.8 802.82 1620.75 802.65 1622.74 803.568 C 1617.43 805.805 1613.8 807.024 1611.51 812.537 L 1612.15 814.376 L 1612.97 815.43 C 1609.87 816.945 1606.64 817.526 1604.7 820.405 L 1605.79 822.69 L 1602.5 824.763 L 1602.63 826.012 C 1608.45 826.646 1614.35 825.648 1620.14 824.905 C 1613.53 827.122 1598 830.56 1593.93 836.015 L 1594.2 836.39 L 1595.74 836.085 C 1604.32 834.428 1618.6 833.237 1625.97 838.672 C 1626.73 839.239 1627.08 839.656 1627.78 840.37 C 1627.43 840.344 1627.08 840.329 1626.74 840.292 C 1613.47 838.858 1602.98 833.917 1590.41 841.803 C 1590.02 842.83 1589.36 845.638 1588.62 846.273 C 1583.36 848.035 1581.77 851.278 1577.91 854.953 L 1578.53 857.559 C 1587.55 857.555 1599.66 860.196 1607.06 865.634 L 1606.24 866.451 A 253.789 253.789 0 0 1 1599.23 865.328 C 1596.79 867.003 1596.27 867.278 1593.33 867.557 C 1585.96 866.101 1581.85 866.708 1574.83 869.273 C 1567.4 871.32 1559.7 873.08 1552.78 876.525 C 1556.82 877.339 1561.22 877.89 1565.04 879.466 C 1560.83 881.953 1554.15 879.646 1549.02 879.938 C 1550.4 881.181 1551.68 882.382 1553.2 883.449 L 1555.71 882.017 C 1552.51 883.911 1551.11 883.602 1547.46 883.61 C 1545.61 882.493 1545.52 882.383 1544.56 880.601 C 1542.49 881.894 1540.87 883.093 1539.09 884.757 C 1537.54 886.209 1535.99 887.453 1533.75 887.647 C 1533.2 887.695 1532.65 887.587 1532.09 887.558 C 1534.16 885.561 1536.79 884.158 1538.75 882.007 C 1546.49 873.511 1550.74 862.992 1559.84 855.247 C 1563.32 852.256 1576.78 845.575 1577.84 842.558 C 1575.91 841.376 1575.12 841.306 1574.11 839.208 C 1578.43 834.369 1585.33 831.456 1590.45 827.352 C 1592.98 825.322 1596.92 822.193 1597.29 818.76 C 1595.86 818.315 1594.6 818.013 1593.1 817.811 C 1592.62 817.746 1592.14 817.696 1591.66 817.639 C 1591.79 813.914 1603.68 808.931 1606.47 805.91 C 1607.84 804.424 1607.56 805.182 1607.53 803.388 C 1606.24 803.407 1605.21 803.365 1603.92 803.163 C 1606.78 796.811 1613.78 790.465 1618.21 784.895 z"/>
<path transform="translate(0,0)" fill="rgb(254,254,254)" d="M 1578.53 857.559 C 1587.55 857.555 1599.66 860.196 1607.06 865.634 L 1606.24 866.451 A 253.789 253.789 0 0 1 1599.23 865.328 C 1586.77 862.159 1574.83 864.116 1562.16 864.358 C 1567.32 860.604 1572.25 858.627 1578.53 857.559 z"/>
<path transform="translate(0,0)" fill="rgb(254,254,254)" d="M 1306.91 1019.06 L 1307.64 1020.5 C 1306.58 1030.32 1301.67 1039.31 1299.49 1048.9 C 1293.06 1077.09 1294.57 1116.02 1275.04 1138.81 C 1271.98 1142.38 1266.49 1146.36 1261.78 1146.77 L 1261.97 1145.99 C 1279.2 1128.82 1265.67 1110.73 1266.87 1090.51 C 1268.61 1061.16 1285.42 1037.64 1306.91 1019.06 z"/>
<path transform="translate(0,0)" fill="rgb(254,254,254)" d="M 894.343 1853.97 L 939.272 1872.06 C 941.63 1874.72 943.504 1877.76 945.463 1880.72 L 943.6 1893.82 C 932.843 1898.52 922.795 1900.38 911.188 1902.06 C 903.686 1902.41 896.161 1904.68 888.961 1906.63 C 881.735 1902.15 873.707 1897.47 867.518 1891.65 C 868.557 1887.9 870.35 1884.73 872.206 1881.33 C 873.943 1881.73 875.024 1881.9 876.84 1881.84 C 876.796 1872.33 888.544 1861.02 894.343 1853.97 z"/>
<path transform="translate(0,0)" fill="rgb(254,254,254)" d="M 1404.04 1637.75 C 1427.99 1654.4 1453.13 1639.75 1476.2 1652 C 1481.06 1654.59 1492.41 1661.78 1494.06 1667.06 L 1493.1 1668.36 C 1485.99 1667.75 1481.23 1660.03 1474.66 1657.61 L 1474.35 1659.09 C 1476.61 1661.97 1478.96 1661.78 1482.02 1663.51 C 1484.26 1664.78 1484.48 1664.94 1485.02 1667.39 C 1483.99 1670.43 1482.99 1671.98 1480.88 1674.41 L 1480.36 1673.83 C 1480.28 1671.36 1480.4 1669.86 1479.23 1667.6 L 1478.14 1668.77 C 1477.1 1679 1479.53 1690.54 1480.04 1700.93 C 1466.33 1693.75 1451.27 1690.98 1438.04 1683.03 C 1440.88 1687.99 1443.45 1693.11 1446.08 1698.19 C 1442.52 1703.64 1437.21 1708.32 1432.64 1712.95 C 1428.71 1713.17 1423.58 1714 1419.81 1712.52 C 1411.43 1709.21 1403.44 1698.58 1400.09 1690.44 L 1399.43 1689.62 L 1399.42 1687.98 C 1398.11 1686.16 1397.22 1684.44 1396.96 1682.19 C 1396.23 1675.99 1399.47 1669.28 1403.43 1664.7 C 1414.79 1651.54 1434.31 1655.39 1449.83 1654.47 C 1442.45 1653.22 1434.39 1651.82 1426.91 1651.82 C 1404.24 1651.83 1395.26 1671.81 1380.89 1685.61 L 1379.79 1686.65 C 1383.19 1697.58 1389.54 1712.9 1388.47 1724.23 C 1388.25 1726.58 1388.31 1726.64 1386.42 1728.21 C 1384.7 1728.19 1383.23 1728.22 1381.72 1727.24 C 1378.77 1725.35 1377.38 1721.27 1376.55 1718.04 C 1374.19 1708.84 1373.37 1697.31 1375.97 1688.16 C 1379.08 1677.2 1397.42 1649.22 1404.04 1637.75 z"/>
<path transform="translate(0,0)" fill="rgb(254,254,254)" d="M 1754.83 1472.38 A 85.1978 85.1978 0 0 1 1759.51 1472.06 C 1786.64 1471.11 1812.62 1499.67 1831.35 1516.84 A 3342.73 3342.73 0 0 1 1774.41 1553.85 L 1759.44 1563.51 C 1733.02 1547.52 1721.9 1521.32 1705.58 1496.7 C 1719.88 1481.89 1734.46 1474.92 1754.83 1472.38 z"/>
<path transform="translate(0,0)" fill="rgb(254,254,254)" d="M 1800.18 1369.67 C 1827.54 1360.45 1840.2 1349.57 1871.27 1356.66 C 1874.96 1360.45 1878.76 1364.23 1882.1 1368.34 C 1884.84 1371.71 1889.28 1376.89 1888.84 1381.39 L 1889.72 1383.33 C 1900.43 1390.57 1905.72 1417.9 1908.75 1429.85 C 1900.95 1428.83 1893.77 1428.28 1885.9 1429.38 L 1886.25 1430.14 C 1889.89 1430.85 1893.33 1431.78 1896.86 1432.94 A 1961.19 1961.19 0 0 1 1868.18 1436.43 C 1863.11 1425.82 1857.01 1415.6 1851.77 1405.03 C 1845.59 1410.29 1841.03 1416.39 1836.18 1422.85 C 1828.62 1422.3 1820.87 1420.2 1813.33 1420.75 C 1812.05 1422.63 1810.18 1426.22 1808.41 1427.56 C 1807.47 1428.27 1806.37 1428.82 1805.17 1428.57 C 1800.54 1427.63 1798.4 1423.72 1796.18 1419.97 C 1790.05 1429.98 1785.54 1442.72 1776.47 1450.46 C 1774.43 1452.2 1770.84 1455.02 1767.97 1454.37 C 1765.52 1453.82 1764.72 1453.34 1763.44 1451.27 C 1764.98 1447.52 1771.45 1443.99 1774.43 1440.97 L 1773.53 1440.52 L 1765.45 1444 C 1769.15 1437.93 1772.21 1432.46 1774.17 1425.6 L 1773.85 1425.9 C 1779.55 1406.36 1789.2 1386.78 1800.18 1369.67 z"/>
<path transform="translate(0,0)" fill="rgb(17,30,62)" d="M 1870.68 1386.44 C 1872.1 1385.41 1873.53 1384.38 1875.02 1383.45 C 1879.92 1380.38 1883.27 1380.05 1888.84 1381.39 L 1889.72 1383.33 C 1883.51 1386.86 1877.09 1390.09 1870.78 1393.44 C 1860.67 1390.13 1849.57 1388.66 1839.76 1384.8 C 1838.19 1384.19 1837.99 1384.46 1837.32 1382.9 C 1847.91 1379.48 1860.27 1383.8 1870.68 1386.44 z"/>
<path transform="translate(0,0)" fill="rgb(254,254,254)" d="M 961.849 1799.42 C 972.464 1788.55 1017.15 1752.4 1030.21 1748.28 C 1037.23 1746.07 1095.22 1768.41 1104.13 1772.78 C 1112.2 1776.73 1117.29 1783.46 1120.17 1791.86 C 1122.43 1796.75 1125.65 1802.18 1126.59 1807.49 C 1117.16 1810.04 1109.72 1802.48 1100.13 1807.92 L 1099.18 1809.74 C 1100.16 1811.11 1101.1 1812.47 1101.98 1813.91 C 1091.05 1822.14 1078.06 1828.54 1066 1834.97 C 1057.24 1839.35 1031.63 1846.8 1022.43 1843.53 C 1020.59 1842.88 1018.82 1842.08 1017.05 1841.25 C 1010.41 1835.49 1002.09 1831.62 994.765 1826.75 C 985.373 1820.51 976.697 1813.16 968.088 1805.89 L 961.849 1799.42 z"/>
<path transform="translate(0,0)" fill="rgb(254,254,254)" d="M 1716.67 1428.12 C 1724.56 1422 1732.47 1416.13 1741.34 1411.48 C 1737.12 1447.84 1731.56 1454.8 1706.16 1479.94 C 1698.82 1487.21 1692.25 1495.05 1684.55 1501.99 C 1676.14 1509.57 1666.7 1516.86 1660.15 1526.15 C 1659.61 1534.62 1660.08 1543.35 1658.96 1551.74 C 1657.29 1564.26 1651.12 1575.6 1646.92 1587.38 C 1628.69 1596.66 1606.01 1604.69 1590.04 1617.35 C 1584.65 1613.59 1556.17 1574.62 1549.3 1566.02 C 1579.03 1540.5 1608.59 1515.04 1639 1490.31 C 1664.73 1469.39 1691.16 1449.33 1716.67 1428.12 z"/>
<path transform="translate(0,0)" fill="rgb(254,254,254)" d="M 1480.67 1560.4 C 1485.26 1559.94 1489.87 1559.93 1494.48 1560.11 C 1513.12 1560.82 1530.18 1563.66 1543.08 1577.98 C 1551.15 1586.93 1600.32 1648.56 1599.79 1654.35 C 1599.01 1662.92 1585.02 1676.87 1578.2 1681.85 C 1575.81 1683.6 1572.9 1685.31 1569.89 1685.58 C 1561.45 1686.33 1536.06 1675.35 1523.83 1673.25 A 417.539 417.539 0 0 0 1531.19 1678.65 L 1531.38 1680.27 C 1528.61 1677.72 1526.27 1675.58 1522.39 1675.3 C 1522.62 1678.04 1528.43 1680.34 1530.07 1682.99 C 1526.78 1681.5 1523.31 1679.57 1519.71 1679.06 L 1519.19 1680.1 C 1519.73 1682.11 1520.27 1683.07 1521.79 1684.45 C 1522.27 1684.89 1522.76 1685.31 1523.25 1685.74 C 1519.43 1685.95 1514.22 1683.82 1511.03 1681.74 C 1510.6 1681.47 1509.6 1680.76 1509.12 1680.53 C 1506.95 1679.48 1505.63 1679.53 1503.38 1680.15 L 1503.42 1681.8 C 1506.11 1684.65 1510.34 1685.91 1513.9 1687.41 L 1508.17 1687.98 C 1506.64 1687.55 1504.92 1687.15 1503.49 1686.46 C 1500.85 1685.18 1499.42 1683.72 1498.48 1680.92 C 1496.81 1675.95 1499.33 1669.4 1501.56 1665.03 C 1508.21 1651.99 1518.85 1634.3 1531.62 1626.28 C 1535.1 1624.1 1539.52 1622.92 1543.42 1621.64 C 1546.19 1617.95 1548.53 1613.88 1550.98 1609.98 C 1524.65 1618.77 1514.25 1630.88 1497.23 1651.93 C 1486.53 1647.34 1475.78 1642.46 1464.22 1640.46 C 1453.28 1638.57 1424.25 1641.91 1417.03 1637.79 C 1415.48 1635.92 1414.72 1634.56 1414.57 1632.07 C 1413.76 1618.65 1433.34 1591.1 1441.73 1581.03 C 1452.69 1567.89 1463.67 1561.94 1480.67 1560.4 z"/>
<path transform="translate(0,0)" fill="rgb(254,254,254)" d="M 1721.63 1270.04 C 1721.54 1271.21 1721.64 1270.68 1721.26 1271.94 C 1716.22 1289 1713.3 1306.67 1709.48 1324.04 C 1723.71 1305.83 1742.61 1289.65 1760.28 1274.82 C 1762.9 1285.56 1764.15 1296.74 1766.48 1307.59 C 1747.33 1332.83 1726.26 1356.33 1706.17 1380.78 C 1686.72 1404.46 1668.74 1429.21 1648.43 1452.22 C 1629.95 1473.14 1609.65 1491.82 1589.35 1510.92 C 1603.92 1487.17 1615.14 1459.1 1625.4 1433.24 C 1616.1 1446.05 1606.7 1458.58 1596.18 1470.42 C 1577.58 1491.17 1537.2 1541.22 1515.38 1553.18 C 1526.41 1529.16 1540.89 1506.48 1553.41 1483.19 C 1560.89 1469.26 1582.02 1422.91 1590.16 1414.69 C 1596.05 1408.76 1603.83 1403.68 1610.56 1398.68 C 1628.92 1385.03 1648.81 1372.18 1665.4 1356.42 C 1660.21 1368.89 1655.68 1381.7 1652.91 1394.94 C 1672.94 1371.36 1677.06 1352.75 1684.79 1323.5 C 1686.83 1315.78 1688.67 1306.89 1692.76 1299.98 C 1698.56 1290.19 1713.19 1278.33 1721.63 1270.04 z"/>
<path transform="translate(0,0)" fill="rgb(254,254,254)" d="M 1417.82 1528.94 C 1418.43 1529.57 1418.09 1529.11 1418.37 1530.55 C 1392.74 1566.07 1360.87 1597.08 1330.14 1628.12 A 4163.44 4163.44 0 0 1 1245.86 1712.1 C 1237.13 1720.47 1218.08 1740.96 1209.92 1746.8 C 1200.37 1753.64 1187.13 1756.76 1176.3 1761.22 C 1161.93 1767.15 1147.75 1773.61 1133.54 1779.91 C 1115.13 1765.03 1095.17 1760.93 1073.37 1753.51 A 1719.24 1719.24 0 0 1 1099.44 1733.54 C 1136.13 1706.56 1172.41 1678.99 1209.3 1652.3 C 1229.91 1637.39 1250.21 1621.9 1272.3 1609.23 C 1265.11 1626.59 1255.17 1642.89 1247.38 1660.03 C 1276.69 1634.32 1308.61 1611.65 1339.78 1588.3 C 1365.93 1568.7 1391.53 1548.35 1417.82 1528.94 z"/>
<path transform="translate(0,0)" fill="rgb(254,254,254)" d="M 1584.65 969.754 C 1585.09 976.328 1566.94 1026.29 1564.25 1040.52 C 1561.08 1057.33 1558.72 1074.86 1558.72 1091.96 C 1558.73 1113.3 1561.89 1135.65 1557.16 1156.65 C 1555.09 1165.83 1550.12 1174.7 1547.13 1183.71 C 1552.18 1193.81 1556.45 1199.18 1567.19 1203.47 A 494.546 494.546 0 0 1 1569.9 1220.13 C 1545.3 1229 1519.62 1237.59 1496.65 1250.22 C 1477.88 1242.49 1461.62 1235.55 1448.52 1219.37 C 1421.81 1186.39 1440.58 1163.63 1453.23 1131.05 C 1458.44 1117.66 1460.98 1104.46 1462.46 1090.21 C 1450.23 1089.02 1438 1087.28 1425.79 1085.78 C 1420.64 1103.24 1412.22 1119.95 1404.52 1136.39 C 1408.76 1160.69 1406.88 1170.36 1394.67 1191.66 C 1404.55 1205.66 1416.21 1217.88 1427.87 1230.39 C 1444.49 1248.12 1439.51 1256.46 1449.13 1271.5 C 1428.21 1280.13 1407.33 1289.65 1385.76 1296.49 C 1376.54 1290.18 1366.46 1283.82 1359.65 1274.78 C 1352.4 1265.17 1348.19 1252.06 1344.76 1240.68 C 1341.7 1230.52 1338.86 1218.97 1340.9 1208.37 C 1345.06 1186.79 1367.62 1173.21 1381.58 1157.93 C 1389.65 1149.1 1396.27 1139.43 1401.87 1128.88 C 1424.71 1085.89 1424.92 1060.38 1431.97 1014.79 C 1435.39 1023.48 1429.6 1068.58 1427.42 1078.73 C 1473.15 1083.4 1509.05 1081.05 1553.47 1070.72 C 1560.13 1035.17 1566.68 1001.72 1584.65 969.754 z"/>
<path transform="translate(0,0)" fill="rgb(254,254,254)" d="M 1748.1 1165.3 C 1753 1165.06 1758.63 1167.39 1763.12 1169.23 C 1766.31 1170.53 1767.21 1171.87 1768.46 1174.99 C 1767.5 1185.84 1748.03 1198.96 1740.46 1206.98 L 1740.56 1208.06 C 1743.79 1207.55 1748.3 1206.09 1751.19 1207.54 C 1745.07 1220.71 1728.34 1236.43 1717.75 1246.52 C 1692.88 1270.2 1668.16 1291.9 1639.87 1311.42 C 1624.78 1321.84 1527.63 1376.44 1524.62 1383.37 C 1527.37 1387.14 1528.92 1390.3 1530.28 1394.7 L 1530.68 1396.06 L 1416.66 1454.26 C 1405.02 1460.1 1387.59 1471.25 1375.49 1474.46 C 1367.99 1476.45 1358.47 1474.59 1350.78 1473.87 C 1360.02 1460.47 1370.18 1447.81 1381.98 1436.56 C 1396.23 1422.98 1413.28 1411.96 1428.82 1399.86 C 1461.64 1374.31 1494.34 1348.82 1526.76 1322.77 C 1539.97 1312.16 1555.54 1301.55 1567.01 1289.25 L 1566.61 1289.15 C 1559.65 1292.63 1552.87 1298.3 1546.39 1302.68 A 3976.91 3976.91 0 0 1 1501.6 1332.53 C 1488.21 1341.2 1474.39 1349.18 1461.08 1357.97 C 1426.62 1380.71 1392.6 1404.79 1358.88 1428.61 C 1318.66 1457.02 1279.07 1486.89 1237.82 1513.75 A 3430.34 3430.34 0 0 1 1168.41 1557.55 A 768.815 768.815 0 0 1 1233.62 1492.01 C 1249.26 1477.83 1265.59 1464.37 1280.93 1449.86 C 1248.33 1467.06 1215.97 1484.5 1181.19 1496.96 C 1182.02 1492.75 1182.62 1488.56 1183.15 1484.31 L 1184.11 1483.69 C 1200.45 1473.19 1215.14 1460.2 1231 1448.99 C 1254.84 1432.13 1278.57 1415.24 1302.12 1397.96 C 1316.57 1387.36 1331.57 1377.04 1344.8 1364.91 C 1303.16 1384.47 1262.17 1405.79 1220.82 1425.98 C 1232.47 1411.74 1246.29 1388.21 1260.76 1377.79 C 1293.04 1354.55 1339.16 1338.29 1375.82 1322.81 C 1393.14 1315.5 1409.84 1306.94 1427.04 1299.41 C 1442.38 1292.7 1458.13 1286.91 1473.54 1280.37 C 1493.73 1271.81 1512.92 1260.41 1533.92 1253.9 C 1549.2 1249.17 1565.74 1247.77 1581.43 1244.62 C 1622.92 1236.28 1664.93 1220.01 1698.73 1194.5 C 1694.52 1193.63 1686.56 1192.79 1683.84 1189.57 L 1685.28 1189.81 L 1684.55 1188.91 C 1699.08 1181.16 1732.33 1167.92 1748.1 1165.3 z"/>
</svg>