<svg xmlns="http://www.w3.org/2000/svg" display="block" viewBox="0 0 2048 2048"><defs><linearGradient id="a" x1="831.642" x2="841.872" y1="652.781" y2="662.718" gradientUnits="userSpaceOnUse"><stop class="stop0" offset="0" stop-color="#161f3a"/><stop class="stop1" offset="1" stop-color="#192d41"/></linearGradient><linearGradient id="b" x1="1000.37" x2="1021.63" y1="1846.33" y2="1838.67" gradientUnits="userSpaceOnUse"><stop class="stop0" offset="0" stop-color="#212a3b"/><stop class="stop1" offset="1" stop-color="#0a193e"/></linearGradient></defs><path fill="#fefefe" d="M0 0h2048v2048H0z"/><path fill="#111e3e" d="M1190.5 1777.77c8.18 2.47 16.77 3.58 24.88 6.17-12.88 1.47-25.74 3.2-38.73 3.18-.12-1.73-.22-.78.59-2.79 2.05-.18 1.57.11 3.06-.75 2.26-1.3 4.15-3.15 6.86-3.23.37-.01.74.02 1.11.03zm530.28-1067.994 2.77.161 1 1.19c-.65 6.076-5.78 14.203-7.44 21.22l-.46 1.981-1.62.193c-3.12-5.252-5.28-10.631-7.24-16.397.23-.194.45-.39.67-.581l1.15-.948c3.61-3.052 6.83-4.925 11.17-6.819M1120.17 1791.86l3.3-3.31c5.01 6.08 6.99 16.92 9.36 24.47l-1.62.31c-7.94 1.48-16.05.72-23.83 2.2-12.48 2.38-29.98 15.69-41.02 22.46l-.36-3.02c12.06-6.43 25.05-12.83 35.98-21.06-.88-1.44-1.82-2.8-2.8-4.17l.95-1.82c9.59-5.44 17.03 2.12 26.46-.43-.94-5.31-4.16-10.74-6.42-15.63"/><path fill="url(#a)" d="M873.446 583.797c.601 5.809-39.816 90.683-46.16 100.045-.437-.925-.675-1.33-.93-2.413-.663-2.819-.428-5.432.433-8.169 4.017-12.772 12.387-25.743 18.668-37.63 9.151-17.319 17.848-35.073 27.989-51.833"/><path fill="#1b2845" d="M753.645 389.674c.917.865 1.221 1.528 1.44 2.825 1.337 7.914-2.682 18.13-6.145 25.23-6.653 13.64-16.48 26.29-25.03 38.82a2069 2069 0 0 0-32.933 49.713l-1.044-.709a2028 2028 0 0 1 29.108-57.248c10.532-20.2 20.548-40.601 34.604-58.631m974.285 499.172c6.74 6.834 12.38 15.844 18.29 23.475 5.57 7.191 11.83 13.826 18.14 20.37 47.38 49.148 85.39 75.589 145.72 106.949 16.91 8.8 40.58 20.77 59.11 25.53.27.07.55.13.83.2l.64 2.27.26-1.03c-5.21 1.01-26.43-7.07-33.16-9.2-88.36-28.44-152.23-74.707-214.11-143.173-9.2 5.565-18.51 11.4-28.59 15.225 2.39-9.078 5.84-17.621 7.6-26.907 8.8-4.132 17-8.583 25.27-13.709M552.595 527.748c.637 3.372-10.911 76.169-12.514 83.638-4.375 20.381-5.614 18.919-21.949 29.818-4.167 2.78-8.658 6.208-10.813 10.891-4.672 10.154-5.821 22.996-8.366 33.912-3.854 16.528-8.513 32.82-11.765 49.489-.304-8.451.634-23.73-3.839-30.825-1.322-2.096-1.896-1.96-4.181-2.439-7.83 1.92-15.765 9.149-20.048 15.867-12.93 20.282-18.871 50.851-28.64 73.496-12.294 28.501-28.04 55.025-43.863 81.651-6.615 11.13-12.719 22.517-19.681 33.439 4.172-15.627 26.895-55.31 35.059-73.246 9.034-18.851 19.006-43.703 18.471-64.773-.096-3.802-.35-8.181-3.409-10.845-1.728-1.505-4.151-1.524-6.299-1.135-5.052.913-10.053 5.435-13.658 8.845-9.519 9.004-17.277 20.389-25.694 30.476-7.945 9.521-16.852 18.334-24.096 28.413l-.893 1.257c2.679-10.117 65.406-102.07 75.576-113.944 11.382-13.289 24.892-20.769 36.71-36.528 9.913-13.22 18.452-27.46 27.716-41.132 23.4-34.535 46.847-69.307 66.176-106.325m560.065-114.093c6.49 8.425 11.48 20.103 16.32 29.613l24.7 48.598a3003 3003 0 0 0 43.3 81.579c22.32 41.368 44.66 81.673 73.66 118.904-12.63-29.185-41.4-78.272-45.56-107.408 8.75.294 17.4-2.122 25.78-4.344 8.85-20.184 15.04-42.533 26.18-61.531 6.78 32.65 14.76 65.292 22.84 97.645-4.03 7.81-9.84 14.603-14.22 22.226-3.09 5.359-5.26 10.24-3.63 16.379 8.56 24.045 22.96 45.944 31.12 69.899 5.72 16.798 8.29 102.593 8.31 124.141a1562 1562 0 0 1-11.64-56.362c-2.4-13.476-3.2-30.265-8.35-42.761-5.7-13.848-21.06-28.951-30.28-41.107-9.71-12.809-18.88-26.15-27.88-39.473a1067 1067 0 0 1-106.85-196.282c-8.33-19.576-17.3-39.454-23.8-59.716M700.582 992.588c8.713 8.292 17.061 16.852 24.019 26.712 6.327 8.96 11.75 18.82 19.114 26.99 15.342 17.02 34.004 29.69 48.413 48.07 11.043 14.08 18.402 30.61 30.252 44.21 14.435 16.57 35.025 27.98 51.391 42.77 34.378 31.07 65.373 66.34 101.593 95.44l1.049.83-.31.92 1.709 1.13c-10.906-2.14-94.523-79.47-110.189-92.53-16.553-13.8-36.373-25.34-50.734-41.42-12.726-14.26-20.169-31.68-31.576-46.76-13.587-17.96-32.366-30.97-47.269-47.7-12.839-14.4-20.533-31.51-34.876-45.15-3.576 8.69-7.074 17.67-7.512 27.18-.774 16.82 12.739 23.27 22.218 34.28.217.26.429.51.644.77-1.33 4.08-2.81 8.23-3.749 12.42-4.999 22.28 21.421 46.46 32.717 64.25-12.721-12.55-28.223-25.72-36.202-41.94-5.987-12.16-4.559-21.77-.15-33.96l-13.435-9.39c-2.704 8.26-5.168 16.66-9.08 24.43-5.561.72-11.95 1.11-17.247 2.82-12.306 4-14.8 25.88-24.689 35.26-7.639 7.25-16.764 9.77-27.038 9.57-21.756 20.2-28.992 18.97-41.278 48.44-2.572 4.89-5.916 9.34-9.069 13.86 8.744 7.08 14.778 16.16 23.153 23.38 6.592 5.68 16.208 7.38 23.482 12.33 6.764 4.61 12.412 11.13 18.393 16.68 11.465 10.64 24.686 18.75 38.724 25.57 16.073 7.81 43.733 9.84 54.907 17.37 9.027 6.08 16.628 20.27 23.188 29.18-13.995-11.51-29.016-21.93-47.249-24.32-10.001-1.31-19.51-2.51-28.946-6.29-10.615-4.26-20.823-9.77-31.344-14.33-15.966-6.91-33.275-13.19-48.534-21.44-7.933-4.3-15.176-9.85-23.05-14.26-12.707-7.11-20.949-8.19-34.839-4.18-2.758-1.94-5.419-4.07-8.114-6.1l-.967.57c-.534.32-1.06.66-1.598.97-11.774 6.9-20.914 17.32-32.251 24.93-13.459 9.05-29.533 13.12-42.918 22.86-10.088 7.35-24.045 17.43-33.06 25.61-7.426 6.74-13.245 15.03-21.065 21.42-9.534 7.8-21.012 12.28-31.072 19.21-10.147 6.99-18.719 15.99-29.044 22.97 8.004-9.28 17.576-21.1 27.45-28.28 10.436-7.59 22.359-12.7 31.694-21.82 16.529-16.15 26.128-37.41 44.427-52.24 12.831-10.39 30.316-13.09 42.439-24.59 13.516-12.81 19.344-30.4 31.401-42.67 7.199-7.33 17.181-11.6 24.696-18.76 7.501-7.14 13.795-15.87 20.545-23.72 11.844-13.79 24.157-27.47 36.734-40.59 8.299-8.66 19.373-14.32 27.442-23.2 11.999-13.19 15.864-32.97 27.013-47.39 14.738-19.06 34.497-32.06 49.647-50.372"/><path fill="#1b2845" d="M685.362 644.673c3.551 12.598-2.245 31.24-5.095 43.743 4.858 5.079 8.264 10.068 11.318 16.341-.598 8.372-3.478 16.659-2.591 25.094 1.278 12.169 10.533 23.185 7.378 35.975-3.956 16.032-16.212 32.515-21.968 48.933-3.496 9.971-6.539 21.785-4.466 32.351 5.672 28.917 52.783 59.401 72.001 82.2 19.44 23.062 41.404 60.95 54.598 88.22-13.834-16.32-26.577-33.78-41.511-49.112a155 155 0 0 0-17.122-15.39c-13.173-10.039-57.059-38.604-71.901-38.366-18.428.295-32.422 21.46-43.796 33.61-.621-5.124-.964-10.84-2.996-15.622-1.454-3.42-3.724-6.379-7.495-7.369-7.929-2.082-12.38 4.093-16.263 9.915-25.357 38.025-53.418 54.867-91.091 78.784a4718 4718 0 0 0-54.738 35.52c-14.423 9.41-28.658 19.1-43.347 28.09 19.568-22.39 44.846-41.84 67.781-60.74 9.301-7.66 19.433-15.02 27.746-23.744 13.64-14.308 24.183-41.755 35.22-59.413 11.186-17.897 24.772-34.235 35.701-52.306-12.335 9.037-22.335 23.082-31.56 35.225 11.116-27.767 28.885-47.836 27.486-79.454-12.869 13.726-21.835 29.601-31.228 45.763 4.569-28.08 14.153-46.089 32.712-67.406 6.687-7.681 13.601-15.351 21.289-22.039 22.297-19.395 38.635-29.812 48.158-58.996-5.931 6.503-11.02 13.848-16.903 20.447-6.659 7.468-14.233 14.165-21.646 20.872 14.912-20.021 27.399-42.86 40.5-64.153 13.991-22.739 28.928-44.826 43.829-66.973m256.025-473.034c1.882 5.668 1.041 14.363 1.081 20.436.424 63.363-8.981 125.916-13.625 188.934 14.513 12.992 32.255 29.242 42.224 45.98 9.664 16.224 1.742 33.595 9.668 49.631 5.117 10.353 12.446 19.953 19 29.451l28.805 41.498c8.33 11.797 16.99 23.14 21.96 36.862 8.14 22.505 12.23 47.172 17.73 70.48 2.86 12.1 5.24 24.628 11.07 35.734 4.96 9.465 25.1 23.484 33.86 31.076 37.82 32.772 77.35 72.363 95.97 119.686 9.21 23.398 14.52 51.103 18.54 75.839-25.5-62.625-60.94-125.284-116.24-166.073-14.58-10.754-47.62-29.597-56.47-42.998-7.71-11.675-10.77-29.228-15.74-42.446-12.18-32.416-46.156-116.919-73.846-134.941-12.676 8.94-21.042 20.313-28.721 33.561-6.648 11.808-12.904 23.796-19.925 35.394.941-22.186 22.645-143.459 20.669-150.523-2.032-1.935-2.021-1.908-4.823-2.112-6.403 2.604-10.659 8.641-14.543 14.139-12.714 17.996-21.987 39.298-33.431 58.249-15.921 26.361-34.109 51.233-50.197 77.455 8.635-22.317 15.191-45.847 22.786-68.567 9.021-26.986 19.862-54.633 25.845-82.423 2.183-10.142 4.796-24.068 1.859-34.203-1.069-3.689-3.121-6.469-6.644-8.116-4.017-1.879-9.526-.422-13.294 1.354-8.235 3.88-15.156 11.501-19.773 19.241-14.293 23.961-22.825 52.951-32.762 78.967-12.742 33.36-26.242 66.429-38.372 100.017 4.138-27.302 41.428-139.529 32.396-156.412-1.607-3.004-5.094-5.894-8.472-6.574-8.878-1.786-33.25 17.469-40.862 22.896 10.935-26.561 31.231-51.534 47.601-75.062a3374 3374 0 0 0 49.596-73.417c19.251-29.27 38.472-58.927 56.339-89.062 10.551-17.795 19.902-36.346 30.741-53.951"/><path fill="#1b2845" d="M939.489 104.623c9.001 7.806 16.783 21.918 23.819 31.634l36.802 49.851a20284 20284 0 0 1 228.65 316.723c21.02-13.443 40.06-29.808 60.98-43.331 20.8 31.91 42.64 61.308 71.14 86.882 12.22 10.967 29.05 19.383 39.11 32.295 10.36 13.296 18.11 29.789 26.54 44.379 21.18 36.684 44.42 75.548 75.09 105.158 8.91-1.612 17.57-3.34 26.29-5.873 10.2 17.915 20.33 35.945 31.78 53.104 9.68 14.504 20.87 28.365 29.5 43.499-3.45 3.882-7.07 6.861-11.19 9.962-21.1-20.462-43.04-57.157-58.38-82.57-5.16 1.529-10.06 3.383-15.51 2.545-28.64-4.405-53.87-52.006-69.93-74.058a1541 1541 0 0 0 19.11 52.234c5.21 13.193 11.22 26.094 15.9 39.487-9.68-16.064-18.48-32.06-25.94-49.316-16.85-39.005-29.25-80.076-53.89-115.306-11.99-17.145-38.39-33.977-54.33-49.305-18.55-17.826-33.86-38.181-49.74-58.323-18.27 16.376-36.71 35.314-56.79 49.332-17.6-28.16-38.16-54.956-57.45-82.012l-84.44-119.407a9664 9664 0 0 0-95.653-132.153c-16.494-22.47-32.358-46.436-50.467-67.598-42.946 55.779-82.136 114.619-122.894 172.013a1675 1675 0 0 0-38.499 56.549c-10.143-4.144-19.88-9.659-29.631-14.656-15.043 23.854-30.799 47.211-45.983 70.963-25.703 40.205-51.235 81.136-79.172 119.829-23.86-15.82-48.231-30.764-71.965-46.815-31.572 49.627-67.067 96.966-101.101 144.906L310.872 846.377c-9.782-5.467-18.6-13.32-27.553-20.068-22.555 24.401-48.091 57.902-73.543 77.907-31.225 24.541-72.835 39.603-109.869 52.864-6.626 2.373-19.036 8.252-25.84 7.434 9.014-4.436 18.907-7.767 28.113-12.087 44.763-21.007 88.77-46.332 121.302-84.331 19.541-22.824 36.158-48.768 57.549-69.891 8.659 6.088 16.968 12.502 25.833 18.327 13.657-18.094 26.045-37.117 38.72-55.905a11166 11166 0 0 1 65.498-97.308 8074 8074 0 0 1 84.662-122.577c17.099-24.189 34.775-47.774 51.447-72.302 23.76 15.582 47.148 31.852 70.806 47.611 10.346-12.68 19.05-27.112 28.029-40.796l37.915-57.641c19.895-30.505 41.79-60.37 60.277-91.698 9.285 4.556 18.331 9.977 27.446 14.906l118.193-167.768c15.774-21.986 31.591-48.585 49.632-68.431"/><path fill="#1b2845" d="M684.714 637.073c-1.426 3.195-2.902 6.387-4.664 9.412-12.971 22.261-31.49 41.642-46.529 62.543-10.757 14.95-19.796 31.083-30.534 46.088-12.925 18.061-27.918 34.627-41.43 52.254-10.418 13.591-19.443 28.22-30.001 41.69-29.763 37.971-75.601 86.821-113.718 116.371-27.732 21.5-59.822 39.059-90.359 56.219l-56.531 32.21c-25.054 14-50.121 27.56-75.735 40.53-9.112 4.62-19.34 10.96-29.183 13.58 3.926-4.53 49.058-31.96 57.432-37.32 61.747-39.49 132.522-79.442 186.377-128.81 26.109-23.934 51.699-50.098 73.975-77.659 20.194-24.985 34.484-51.852 53.203-76.674 10.929-14.493 25.46-26.079 37.271-39.9 16.696-19.54 31.29-40.69 47.516-60.575 11.288-13.835 23.941-26.71 36.624-39.256 8.632-8.54 17.886-18.117 28.674-23.856 31.239 29.649 59.38 65.937 83.634 101.515 13.179-20.615 28.703-36.123 51.208-46.226 12.511 18.239 34.969 28.774 46.529 49.483 14.472 25.926 19.275 57.482 30.335 85.132 6.675 16.688 18.828 30.099 25.861 46.262 6.409 14.728 4.798 27.566 13.918 43.625 10.726 18.885 26.1 35.48 35.64 54.964 10.955 22.373 16.147 49.095 30.223 69.925 16.68 24.68 51.89 21.54 72.78 39.76 12.38 10.8 16.17 28.62 28.37 39.72 8.69 7.91 21.29 9.45 30.15 17.26 17.77 15.67 33.58 40.23 51.44 57.25 23.49 22.4 49.32 42.69 74.5 63.16 23.96 19.48 47.58 39.33 71.7 58.63-.9-8.9-.55-18.87-2.57-27.54-3.8-16.31-13.56-32.06-20.04-47.51-4.68-11.17-7-22.38-9.01-34.28a252 252 0 0 0 8.75-11.76c26.03-37.9 17.03-47.72 5.93-87.65-4.29-15.45-6.85-31.51-9.76-47.27-1.38 25.52.58 54.65-7.43 79.08-4.3 13.14-12.05 25.2-24.84 31.41-13.54 6.57-28.08 5.15-41.9.28-4.21-1.49-8.92-3.03-10.96-7.29.24-.37.34-.88.72-1.1 4.16-2.38 13.26-1.72 22.7-8.27 15.95-11.03 3.52-36.1 7.63-56.1 7.36-35.8 32.58-63.81 62.09-83.55 22.02-41.557 57.37-47.876 99.04-59.468a423 423 0 0 0 50.55-17.526c16.86-7.039 33.21-16.078 48.69-25.761 5.99-3.744 11.66-8.373 17.8-11.795l1.31-.722c2.07-1.997 4.7-3.4 6.66-5.551 7.74-8.496 11.99-19.015 21.09-26.76 3.48-2.991 16.94-9.672 18-12.689-1.93-1.182-2.72-1.252-3.73-3.35 4.32-4.839 11.22-7.752 16.34-11.856 2.53-2.03 6.47-5.159 6.84-8.592-1.43-.445-2.69-.747-4.19-.949-.48-.065-.96-.115-1.44-.172.13-3.725 12.02-8.708 14.81-11.729 1.37-1.486 1.09-.728 1.06-2.522-1.29.019-2.32-.023-3.61-.225 2.86-6.352 9.86-12.698 14.29-18.268-2.15-1.09-3.13-.961-4.07-3.273 3.92-3.879 10.65-7.406 13.1-12.209-.54-1.905-1.25-2.655-.38-4.506l1.41-.476c3.27-1.128 5.7-1.647 7.73-4.541-1.94-2.288-4.55-.355-4.4-3.571 9.21-8.825 37.8-20.633 50.51-24.978 4.84-10.629 10.7-20.448 18.76-28.985 5.82 16.075 5.6 25.552 16.32 40.574l.94.408.39-2.368c9.63 3.579 30.58 28.755 38.94 36.449 10.82 9.964 23.23 19.122 33.21 29.846.07 2.846-.75 4.024-2.66 6.149-4.11 4.568-15.41 15.128-21.49 15.746-6.04.612-13.47-8.454-25.31-8.564-5.65-.053-25.67 3.467-28.91-.302-1.36-1.583-2.17-3.03-3.15-4.849-1.79 1.185-1.73 3.259-2.17 5.315-3.38 15.573-4.4 32.303-6.41 48.154-4.14 32.652-10.61 60.36-22.51 91.213a251.8 251.8 0 0 1-43.53 71.993c-6.09 7.14-14.93 13.85-19.8 21.76-5.73 9.3-5.97 22.07-9.78 32.34-5.23 14.09-13.17 27.14-18.64 41.15-5.56 14.24-14.23 46.37-5.02 59.72 5 7.27 13.54 12.33 20.23 18 34.82-14.22 69.71-28.48 105.48-40.12-2.78-4.35-5.6-8.54-7.58-13.32 4.09-18.99 9.04-43.32-2.6-60.81-9.01-13.54-53.78-32.5-69.91-41.62 10.83-11.33 20.96-23.08 29.77-36.08l.94 1.28c8.38 11.33 19.56 21.89 30.03 31.34 11.08 9.98 28.66 19.97 34.57 33.93 7.32 17.28 4.63 41.95 2.74 60.11 2.96 5.94 5.48 11.6 7.38 17.96 10.91-4.62 22.82-5.82 34.11-1.49 4.88 1.87 8.33 4.75 11.93 8.45 4.98 18.18 8.58 50.96-1.62 67.99-2.87 4.79-7.36 7.32-11.92 10.29 5.15 21.05 13.9 42.92 14.71 64.65.35 9.56-1.03 19.45-1.91 28.98 12.67.18 25.83 8.34 35.62 16 18.38-8.6 38.33-15.17 58.64-8.27 15.2 5.17 25.51 23.04 31.86 36.88 1.37 2.99 2.67 6.01 4 9.02l1.42.39c9.56 2.58 19.6 3.17 29.47 3.3 12.11.16 34.78-4.45 44.14 3.98l.52 2.16c-2.44 3.07-7.33 3.56-10.98 4.02-20.25 2.59-44.84 2.36-64.99-.45 1.58 9.64 3.2 19.35 5.99 28.74-20.65 12.21-43.96 22.84-66.7 30.42-15.73 5.24-32.05 9.23-47.59 14.92 15.23 12.98 29.77 26.93 45.59 39.17-15.1 10.07-30.29 20.04-45.24 30.33-10.35 7.12-20.56 15.73-31.88 21.16-13.07 6.27-28.91 8.84-42.99 12.14a1486 1486 0 0 0-45.71 11.32c-29.83 7.79-59.03 17.51-88.77 25.49.2.47.39.94.6 1.4 6.54 14.58 27.14 24.08 20.42 42.51-2.67 7.32-9.99 13.41-15.02 19.26-3.2 3.72-1.74 8.06-4.21 11.39-5.26 7.13-23.07 18.13-30.78 24a1964 1964 0 0 0-51 39.84c13.72-18.01 27.66-36.05 42.38-53.26-22.9 7.19-46.96 13.42-68.57 23.97-20.26 9.9-38.8 24.45-56.43 38.42-18.88 14.97-37.43 31.15-58.43 43.16 8.79-8.41 15.84-18.1 23.71-27.32 11.35-13.29 23.31-25.39 32.53-40.38-29.51 21.85-57.86 45.47-86.75 68.15-26.59 20.86-53.86 40.77-80.36 61.75 26.56-34.76 55.75-67.62 82.64-102.17 8.15-10.47 17.69-20.9 24.66-32.12-11.8-4.27-23.62-7.71-33.79-15.32-34 11.84-68.75 22.21-103.06 33.2-19.6 6.27-39.64 12.22-58.57 20.31 6.91 1.69 13.45 2.71 20.49 3.63l-2.23 2.61c-.37-.01-.74-.04-1.11-.03-2.71.08-4.6 1.93-6.86 3.23-1.49.86-1.01.57-3.06.75-.81 2.01-.71 1.06-.59 2.79-11.51 2.11-42.05 3.51-53.18 1.43l-3.3 3.31c2.26 4.89 5.48 10.32 6.42 15.63-9.43 2.55-16.87-5.01-26.46.43l-.95 1.82c.98 1.37 1.92 2.73 2.8 4.17-10.93 8.23-23.92 14.63-35.98 21.06l.36 3.02c-23.3 14.59-48.08 19.69-74.149 27.23-13.885 4.02-27.568 8.83-41.254 13.47.466 5.59.521 11.15.576 16.75-28.442 20.97-61.917 20.4-94.045 30.53-12.275 3.87-23.103 11.97-35.12 16.67-21.123 8.27-45.191 12.18-67.312 17.01 13.921-8.24 29.753-13.98 44.547-20.5 14.244-6.28 28.19-13.32 42.171-20.16a148 148 0 0 1-2.281-1.27c-2.904-1.66-6.068-3.28-6.611-6.94-.481-3.25 1.137-6.78 2.984-9.37 4.676-6.57 13.438-12.33 21.267-13.62 21.773-27.13 40.859-56.35 62.153-83.86 15.421-19.92 31.815-39.12 47.58-58.78a2597 2597 0 0 0 56.314-73.98c-16.92 6.16-33.405 14.83-49.867 22.21-23.396 10.48-48.461 20.29-70.69 32.94-8.584 4.89-16.292 10.86-23.774 17.27 7.28 6.48 13.547 14.4 19.567 22.03-.194.34-.354.7-.58 1.02-8.634 12.08-112.226 62.24-133.098 72.45-9.645 4.72-19.419 9.56-28.411 15.45-11.55 7.56-22.247 16.1-34.433 22.72-54.367 29.53-154.143 70.87-214 81.07 27.079-12.82 56.424-21.36 83.913-33.7 91.636-41.15 147.664-84.64 219.928-152.59-63.262 9.85-126.705 19.99-190.394 26.71-117.645 12.41-238.461 17.23-356.677 19.64a6168 6168 0 0 1-104.954.64c-19.654.02-40.327 1.27-59.831-.88-4.786.32-9.788-.15-14.59-.3 9.529-1.69 19.045-2.9 28.652-4.03 13.826-2.59 28.334-3.49 42.336-5.25 35.351-4.43 71.397-8.52 106.462-14.68 10.588-12.23 20.943-23.71 29.252-37.69-6.781 4.81-13.998 9.45-21.983 11.98-6.72 2.12-14.05 2.39-20.392-1.05-3.68-2-9.724-7.04-10.524-11.36-.669-3.61 17.727-6.48 21.249-7.74 13.474-4.84 21.473-17.5 28.817-28.91-9.325 4.64-19.682 8.47-30.257 5.2-2.696-.83-3.434-1.74-4.772-4.13.137-2.25-.298-3.68 1.652-5.16 3.052-2.31 7.918-3.51 11.338-5.55 10.658-6.34 20.29-16.74 27.959-26.36-6.84 2.03-15.947 5.22-23.029 2.83-2.208-.75-2.349-1.23-3.404-3.16.228-1.14.117-2.4.682-3.41 2.335-4.19 12.662-11.97 16.563-16.01 7.351-7.62 12.061-16.05 16.824-25.45-3.699 2.43-8.858 6.57-13.328 6.93-2.41.19-2.804-.38-4.612-1.78-.463-2.19-.561-2.24.66-4.02 1.885-2.75 5.21-4.76 7.523-7.2 4.585-4.84 8.52-11.76 11.474-17.72 1.464-2.95 3.618-6.84 2.529-10.07-1.444.47-2.74.96-4.11 1.63-1.791.87-2.104.47-4.008.12-1.015-1.96-1.136-1.97-.285-3.95 2.023-4.68 6.965-8.28 9.357-12.97 4.825-9.46 6.993-21.25 10.066-31.44 2.159 11.6 5.014 27.1 12.7 36.5 2.554 3.12 6.872 5.29 8.308 9.09l-1.053 1.74c-3.371 1.28-7.079.5-10.587.12 1.66 4.72 3.558 9.38 6.155 13.68 4.23 7 17.028 19.72 16.726 27.38l-2.221.65c-5.217-.88-9.675-3.88-14.237-6.44 6.091 12.61 25.706 32.81 28.525 41.72l-1.54 1.61c-8.502 2.3-18.792-3.42-26.188-7.23 6.868 9.8 20.278 25.18 31.346 30.02 1.449.63 2.967 1.11 4.431.31 6.156-3.32 8.935-15.99 10.747-22.31-3.924 1.07-8.63 3.01-12.662 2.09l-1.15-1.9c-.234-6.82 4.703-7.54 8.416-12.01 5.101-6.14 17.182-26.2 16.331-33.97-2.726-2.72-5.44-.73-8.461-3.15.414-6.13 8.685-13.1 11.116-19.55 1.863-4.94 2.156-10.82 2.753-16.05 2.632 9.41 5.438 18.75 9.776 27.53l10.239 6.27c-1.306 2-2.65 3.8-4.212 5.61-3.641.32-6.349-1.96-9.5-3.7 3.796 18.73 11.246 31.76 25.89 44.08 21.703-17.53 38.299-35.94 51.06-60.94-13.342 9.5-32.871 25.27-49.988 23.45-2.768-.29-4.613-.96-6.465-3.12-.732-3.39.569-5.51 2.497-8.18 5.569-7.71 13.16-14.44 19.672-21.41 13.485-14.45 24.263-30.01 33.013-47.71-8.229 4.92-19.407 12.26-29.377 11.26-2.857-.29-3.809-.85-5.594-3.02.084-2.76.172-3.53 1.793-5.88 3.835-5.56 8.924-10.67 13.277-15.86 11.901-14.2 23.516-28.93 31.005-45.97-7.327 7.09-13.598 13.25-23.825 16.01-3.809 1.03-6.51 1.46-9.999-.53-.762-6.56 14.515-21.56 18.641-27.72 10.651-15.87 18.696-32.34 26.353-49.78-4.243 4.25-11.425 11.5-17.813 11.28-1.462-.06-1.19-.33-2.276-1.58-.091-1.12-.413-2.25-.273-3.36.29-2.29 16.208-24.66 19.025-30.61 8.305-17.54 14.568-35.97 17.447-55.21 5.593 19.29 8.778 38.51 17.669 56.83 5.352 11.02 15.483 21.32 19.258 32.56-1.285 2.03-1.628 2-3.893 2.91-7.41-.78-12.715-5.92-18.272-10.43 3.793 11.22 9.534 21.21 16.019 31.08 4.319 6.58 30.359 37.07 30.211 41.18-.907 1-1.083 1.59-2.502 1.85-10.296 1.91-26.334-7.65-34.856-12.65 4.262 9.42 10.1 17.87 16.404 26.03 3.954 5.12 35.412 38.95 36.096 41.36.194.69-.056 1.43-.084 2.14-1.804 2.28-2.277 3.1-5.226 3.85-11.769 2.98-31.641-10.68-40.484-16.86 10.187 19.43 24.525 38.38 39.999 53.97 5.483 5.52 12.381 10.02 17.468 15.86 1.702 1.96 1.637 3.16 1.333 5.6-3.515 3.83-7.103 4.55-12.201 5.08-17.042 1.8-29.189-9.93-41.215-20.04 14.124 25.95 32.155 45.06 53.77 64.77 12.106-9.84 20.687-19.82 29.068-32.95-6.094 3.65-12.701 6.22-19.827 6.94-2.172.21-3.523.07-5.195-1.37-.1-2.51.071-2.8 1.581-4.86 3.05-4.16 7.228-8.02 10.668-11.92 9.249-10.46 16.135-21.94 20.548-35.2-3.218 1.47-7.499 3.91-11.015 4.14-2.416.16-2.756-.31-4.522-1.76-.162-1.05-.735-2.11-.488-3.14.302-1.27 8.472-8.03 9.922-9.96 7.941-10.58 10.597-24.01 13.852-36.56 2.316 8.78 4.225 18.24 7.816 26.57.221.52.464 1.02.692 1.53 2.553 5.7 7.484 9.13 11.544 13.67 1.968 2.2 2.839 3.11 2.681 6.08-5.193 4.36-7.021.31-12.464.08-.299 11.41 24.581 37.52 31.2 48.26-1.418 2.07-1.853 2.81-4.442 3.52-5.888 1.64-13.191-1.75-18.233-4.47 3.317 7.08 6.84 13.59 11.681 19.76 5.496 7 19.494 16.61 21.635 24.77.425 1.62-.282 2.03-1.066 3.35-7.982 3.52-17.262.82-24.98-2.07 7.207 13.41 25.15 33.18 37.03 42.74 10.913-11.15 20.273-23.1 27.597-36.9a108 108 0 0 1-5.246 3.52c-7.982 5.01-28.721 15-38.101 11.48-2.332-.88-2.504-2.05-3.375-4.15 1.559-4.62 21.22-20.15 25.947-25.16 9.281-9.83 16.655-20.5 23.293-32.24-4.617 3.34-9.281 6.86-14.128 9.86-5.028 3.11-13.879 5.75-19.705 3.97-1.564-.48-1.141-.4-1.813-1.95 4.306-7.99 11.572-14.59 17.688-21.2 9.523-10.31 17.819-20.62 24.231-33.16-6.231 3.69-13.128 7.82-20.56 8.06-3.026.1-5.325-.44-7.577-2.44.91-5.05 9.424-13.04 12.995-17.25 8.627-10.15 14.519-19.56 19.584-31.85a76.6 76.6 0 0 1-10.76 5.09c-2.785 1.06-5.984 2.39-8.814 1.1-.544-5.75 14.058-18.81 17.913-24.68 4.926-7.5 8.192-15.56 11.367-23.92-2.676 1.68-5.543 3.45-8.55 4.45-2.318.78-4.629 1.23-6.879.09-.968-2.04-1.411-2.34-.268-4.5 2.286-4.31 6.904-8.33 9.76-12.4 7.855-11.17 10.565-27.92 12.313-41.16 2.153 11.53 3.89 23.72 9.037 34.36 2.78 5.74 12.049 14.5 12.632 19.88l-1.892 1.67c-4.768.93-9.425-.2-14.156-.98a94.7 94.7 0 0 0 18.249 30.65c3.619 4.05 7.842 7.94 11.052 12.3 1.412 1.91 1.795 2.37 1.873 4.81l-1.799 1.12c-8.398.46-13.753-3.32-20.65-7.54 8.653 23.31 17.326 27.64 31.888 45.68 1.612 2 2.276 2.75 1.974 5.41l-1.392 1c-9.327 1.57-19.158-2.68-27.48-6.51a105.7 105.7 0 0 0 30.094 38.31c10.526-11.62 19.303-27.15 23.75-42.18-2.753 1.98-5.567 3.85-8.561 5.45-2.784 1.49-4.667 2.03-7.687 1.08-1.568-2.84-1.167-3.62.866-6.15 16.752-20.9 23.287-40.16 29.385-65.86 3.837 13.83 5.036 26.49 11.747 39.56 2.268 4.42 4.837 8.78 7.712 12.83 3.061 4.31 11.559 10.92 12.181 15.87l-1.523 1.32c-6.602.77-13.049-2.02-18.777-4.98 2.631 6.83 5.885 13.08 9.902 19.21 3.995 6.09 18.856 21.3 19.624 26.93l-1.479 1.59c-9.609 1.82-16.116-1.6-24.205-6.19 3.881 7.8 8.495 14.78 13.823 21.67 5.524 7.14 23.147 23.06 24.38 31.39.244 1.64-.383 1.79-1.331 2.97-9.268 1.77-22.707-5.66-30.855-9.69 7.375 8.61 15.403 16.5 23.88 24.01 36.575-32.38 83.686-49.84 127.415-70.39 9.51-4.47 24.68-9.39 32.42-16.29 18.75-16.72 41.04-63.29 50.58-87.56 4.73-12.03 8.44-25.69 14.96-36.79 11.29-19.21 34.95-26.8 49.89-42.43 6.62-6.94 12.17-15.35 17.92-23.04 17.06-22.83 58.48-82.52 79.93-95.1 21.84-12.8 48.09-19.64 71.15-30.34-12.42-11.22-28.3-19.94-41.84-30-25.4-18.87-49.66-38.94-74.09-59.03-33.44-27.5-67.28-54.69-99.71-83.4-20.93-18.53-40.47-39.05-62.45-56.33-13.77-10.83-29.18-19.37-44.07-28.54-22.257-13.7-44.846-29.92-62.739-49.06-16.029-17.14-22.07-40.691-36.392-59.02-8.209-10.507-22.347-17.075-29.086-28.175-3.989-6.57-3.469-15.147-5.244-22.471-1.864-7.689-7.737-14.228-10.322-21.749-4.646-13.519-4.221-28.259-9.644-41.739-3.878-9.641-11.001-18.918-16.443-27.779a552 552 0 0 1-24.108-42.91c-4.782-9.652-19.492-37.394-12.504-47.626 3.841-5.626 11.115-9.852 15.525-15.589 2.014-2.62 4.623-6.419 5.313-9.705.577-2.749.145-3.404-1.093-5.731-1.479-.847-2.265-1.779-4.048-1.469-7.937 1.383-23.263 18.789-28.234 25.963-14.222 20.525-9.19 30.305-5.167 53.294-5.668-12.319-11.128-25.152-18.325-36.646-10.532-16.821-24.254-31.937-36.498-47.536-13.856-17.653-26.494-36.506-42.537-52.289"/><path fill="#111e3e" d="M1391.36 1694.92c3.06.07 4.38.04 6.96 1.91 2.76 3.73 2.9 8.23 3.55 12.71-1.88.19-2.45.17-4.17-.27-2.85-4.04-3.32-9.04-5.81-13.43-.17-.31-.35-.61-.53-.92M65.289 1817.85c9.529-1.69 19.045-2.9 28.652-4.03 2.998.4 5.72.86 8.597 1.82 12.19 4.05 20.247-.01 31.651 1.51.435.06.872.1 1.308.15-18.33 1.88-37.385-1.6-55.618.85-4.786.32-9.788-.15-14.59-.3"/><path fill="#fefefe" d="M1622.74 803.568c8.76-1.758 14.78-.616 22.24 4.414 2.59 1.745 5.06 3.748 7.51 5.675-14.12-5.268-24.27-6.924-38.43-.268-.65.304-1.29.639-1.91.987l-.64-1.839c2.29-5.513 5.92-6.732 11.23-8.969M788.483 1789.33c6.467 3.33 13.978 8.27 19.241 13.25l-.357 1.13-3.843-.18c-6.332-.6-12.257-.31-18.573.11l-.352-.63c.739-2.65 1.76-5.41 1.501-8.19-.205-2.21 1.216-3.58 2.383-5.49m800.137-943.057c15.95 2.757 25.23 3.563 37.8 15.124-12.68-5.082-28.45-11.748-42.08-6.868-2.11.759-4.23.585-6.43.424 3.86-3.675 5.45-6.918 10.71-8.68M994.837 1844.11c-1.775-.81-2.245-1.33-3.392-2.96-7.56-10.74-19.201-19.22-25.896-30.35-1.007-1.67-1.714-2.41-1.225-4.38l2.253.31c9.918 9.73 26.023 22.53 30.914 35.53l-.32 1.32zM1629.35 784.154c3.27-2.275 9.87-1.52 13.95-1.52 5.47 3.276 11.11 6.432 16.36 10.047-7.85-1.358-18.25-4.005-26.12-2.095l-.43 1.292c2.91 2.474 5.77 3.602 9.31 4.967-6.62-.505-13.05-1.221-19.58.341l-1.2-1.272c1.29-3.617 6.27-5.398 8.71-8.669zM321.195 1720.49c9.766 1.99 17.855 8.89 28.282 10.63l1.35.21c-.043 2.44-1.865 3.65-3.426 5.45-2.61 2.07-5.381 3.95-8.104 5.87-7.185-6.66-12.735-14-18.102-22.16M1314 1694.67c3.01.29 3.42-.06 5.44 2.13-3.93 10.92-27.29 24.52-37.1 29.71l-2.96.91.1-1.51c9.84-11.38 22.96-21.52 34.52-31.24m260.83-825.397c7.02-2.565 11.13-3.172 18.5-1.716 5.37 1.795 10.73 3.423 15.63 6.322-4.62 1.491-15.76-2.434-21.18-2.839-3.82-.287-7.87.541-11.62 1.24l-3.53 1.645.09 1.178c7.43 3.335 14.59 5.66 21.46 10.15l1.28.813.75.499c-9.94-2.165-21.69-3.639-31.17-7.099-3.82-1.576-8.22-2.127-12.26-2.941 6.92-3.445 14.62-5.205 22.05-7.252m30.96-46.583c8.41-1.538 18.88-4.955 26.57.327 3.33 2.29 5.98 6.19 8.57 9.26-8.44-3.088-16.32-5.834-25.45-3.671l-.16 1.2-.34.242c2.98 1.717 5.87 2.279 9.21 2.98 3.44 3.426 6.49 6.402 8.85 10.708l-.28.414c-1.75-1.203-3.39-2.35-4.98-3.78-.7-.714-1.05-1.131-1.81-1.698-7.37-5.435-21.65-4.244-30.23-2.587l-1.54.305-.27-.375c4.07-5.455 19.6-8.893 26.21-11.11-5.79.743-11.69 1.741-17.51 1.107l-.13-1.249zm69.28-75.771c2.27 1.145 4.36 4.255 5.7 6.386-5.68 1.232-11.73.268-17.3 1.719-3.12.813-6.52 2.523-8.08 5.338 10-1.07 9.95-1.665 18.82 3.364-9.69.201-22.47-.97-30.19 5.767l.5.831c4.18-.633 8.17-1.18 12.41-1.197l.67 1.034-3.5 2.457c5.53.975 8.47 1.882 12.55 5.848-1.94 2.43-9.06-2.382-11.91-2.925-6.14-1.169-15.18 2.095-21.14 3.608l-.06-.892c1.55-1.634 2.66-2.885 4.67-3.976.42-.225.86-.407 1.28-.611-.49-1.45-.32-2.078-.11-3.562 8.25-11.049 23.83-16.786 35.69-23.189M819.903 1657.02c-.09 9.23-13.744 25.58-20.08 31.99-8.125-6.16-15.202-12.57-21.749-20.4-2.181-2.7-3.842-6.25-5.61-9.26 7.897 5.83 17.52 11.43 26.955 14.25 3.035.91 5.57 1.45 8.474-.18.694-2.84-.402-3.87-1.582-6.42 2.687-3.7 9.608-7.15 13.592-9.98"/><path fill="url(#b)" d="M968.088 1805.89c8.609 7.27 17.285 14.62 26.677 20.86 7.325 4.87 15.645 8.74 22.285 14.5l-2.34 2.34.24 1.32c3.74 1.71 10.11.43 12.64 2.98-1.42 1.9-2.52 2.42-4.68 3.32-2.46.02-3.8-.38-6.1-1.27-2.72-1.05-3.91-.94-6.7-.71-2.25.18-4.45-.58-6.59-1.21-1.64.96-3.23 1.88-4.927 2.74l-.147 1.77-.014-1.72-2.237-1.19.144 1.65c-1.873-2.81-1.521-3.86-1.502-7.16l2.334-.53.32-1.32c-4.891-13-20.996-25.8-30.914-35.53z"/><path fill="#fefefe" d="M1363.59 1688.08c1.95 1.96 4.94 27.44 5.85 32.72-3.83-2.08-10.31-6.56-14.58-6.01 3.1 5.74 11.94 9.11 13.34 15.67l-2.02.42 1.76-1.7c-4.15 1.71-4.41 1.02-8.46-.49-11.61-5.6-21.04-13.96-27.47-25.15 10.24-6.19 20.34-11.31 31.58-15.46m-824.42-.47c21.55 11.74 25.688 20.73 52.713 23.28a181 181 0 0 0-14.183 15.1c-3.605 4.46-7.342 8.77-11.164 13.04-12.046-15.16-19.528-33.88-27.366-51.42m281.004 68.86c12.98 6.07 22.714 17.28 32.86 27.17-8.518 4.19-17.008 8.23-25.78 11.87-1.897.75-4.703 1.94-6.786 1.89-6.2-.15-16.668-8.74-20.758-13.28 1.209-8.92 14.428-21.09 20.464-27.65m876.036-251.81 1.48.92c3.74 18.28 2.72 37.22-.19 55.49-2.55 1.87-6.07 4.83-9.28 4.99-1.46.07-1.88-.69-2.93-1.54-.08-1.48-.1-2.74.13-4.21.06-.41.14-.81.21-1.21l-.98 1.98c-1.24.79-2.35 1.27-3.71 1.81-3.17-.51-4.9-.42-7.31-2.87-4.43-4.51-2.73-24.65-2.78-30.96 8.05-8.55 16.75-16.42 25.36-24.4m-747.823 299.18c.76.23 1.521.8 2.206 1.2 5.922 14.59 8.078 31.38 4.625 46.95-.748 3.37-2.322 3.79-5.072 5.48l.751 2.4-.758.91c-6.416-2.1-12.899-4.09-18.585-7.81-1.672.31-2.02.32-3.753-.14l.203-.9c-3.827-3.11-7.196-3.76-11.917-4.57 5.527-15.58 18.691-34.23 32.3-43.52m-485.81-122.78c-.313 3.64-2.02 7.55-3.194 11.04-7.313 21.76-18.873 40.08-34.493 56.82-7.969-4.58-14.345-10.74-20.838-17.15 7.637 1.08 15.282 3.2 22.467-.51-4.485-11.33-22.386-27.32-30.448-42.11 7.159 7.02 13.235 11.85 22.414 15.97 17.921-3.78 29.933-13.15 44.092-24.06m382.906 49.76c14.673 1.44 36.754 25.72 46.135 36.05-6.878 2.53-13.399 5.54-19.993 8.73l-10.275 5.37c-12.89-10.4-23.828-21.68-35.386-33.47 5.092-7.97 11.691-11.79 19.519-16.68"/><path fill="#111e3e" d="M1618.21 784.895c3.98-.891 7.14-1.849 11.14-.741l1 3.091c-2.44 3.271-7.42 5.052-8.71 8.669l1.2 1.272-3.9 3.525c.86 2.109 1.81 1.939 3.8 2.857-5.31 2.237-8.94 3.456-11.23 8.969l.64 1.839.82 1.054c-3.1 1.515-6.33 2.096-8.27 4.975l1.09 2.285-3.29 2.073.13 1.249c5.82.634 11.72-.364 17.51-1.107-6.61 2.217-22.14 5.655-26.21 11.11l.27.375 1.54-.305c8.58-1.657 22.86-2.848 30.23 2.587.76.567 1.11.984 1.81 1.698-.35-.026-.7-.041-1.04-.078-13.27-1.434-23.76-6.375-36.33 1.511-.39 1.027-1.05 3.835-1.79 4.47-5.26 1.762-6.85 5.005-10.71 8.68l.62 2.606c9.02-.004 21.13 2.637 28.53 8.075l-.82.817a254 254 0 0 1-7.01-1.123c-2.44 1.675-2.96 1.95-5.9 2.229-7.37-1.456-11.48-.849-18.5 1.716-7.43 2.047-15.13 3.807-22.05 7.252 4.04.814 8.44 1.365 12.26 2.941-4.21 2.487-10.89.18-16.02.472 1.38 1.243 2.66 2.444 4.18 3.511l2.51-1.432c-3.2 1.894-4.6 1.585-8.25 1.593-1.85-1.117-1.94-1.227-2.9-3.009-2.07 1.293-3.69 2.492-5.47 4.156-1.55 1.452-3.1 2.696-5.34 2.89-.55.048-1.1-.06-1.66-.089 2.07-1.997 4.7-3.4 6.66-5.551 7.74-8.496 11.99-19.015 21.09-26.76 3.48-2.991 16.94-9.672 18-12.689-1.93-1.182-2.72-1.252-3.73-3.35 4.32-4.839 11.22-7.752 16.34-11.856 2.53-2.03 6.47-5.159 6.84-8.592-1.43-.445-2.69-.747-4.19-.949-.48-.065-.96-.115-1.44-.172.13-3.725 12.02-8.708 14.81-11.729 1.37-1.486 1.09-.728 1.06-2.522-1.29.019-2.32-.023-3.61-.225 2.86-6.352 9.86-12.698 14.29-18.268"/><path fill="#fefefe" d="M1578.53 857.559c9.02-.004 21.13 2.637 28.53 8.075l-.82.817a254 254 0 0 1-7.01-1.123c-12.46-3.169-24.4-1.212-37.07-.97 5.16-3.754 10.09-5.731 16.37-6.799m-271.62 161.501.73 1.44c-1.06 9.82-5.97 18.81-8.15 28.4-6.43 28.19-4.92 67.12-24.45 89.91-3.06 3.57-8.55 7.55-13.26 7.96l.19-.78c17.23-17.17 3.7-35.26 4.9-55.48 1.74-29.35 18.55-52.87 40.04-71.45m-412.567 834.91 44.929 18.09c2.358 2.66 4.232 5.7 6.191 8.66l-1.863 13.1c-10.757 4.7-20.805 6.56-32.412 8.24-7.502.35-15.027 2.62-22.227 4.57-7.226-4.48-15.254-9.16-21.443-14.98 1.039-3.75 2.832-6.92 4.688-10.32 1.737.4 2.818.57 4.634.51-.044-9.51 11.704-20.82 17.503-27.87m509.697-216.22c23.95 16.65 49.09 2 72.16 14.25 4.86 2.59 16.21 9.78 17.86 15.06l-.96 1.3c-7.11-.61-11.87-8.33-18.44-10.75l-.31 1.48c2.26 2.88 4.61 2.69 7.67 4.42 2.24 1.27 2.46 1.43 3 3.88-1.03 3.04-2.03 4.59-4.14 7.02l-.52-.58c-.08-2.47.04-3.97-1.13-6.23l-1.09 1.17c-1.04 10.23 1.39 21.77 1.9 32.16-13.71-7.18-28.77-9.95-42-17.9 2.84 4.96 5.41 10.08 8.04 15.16-3.56 5.45-8.87 10.13-13.44 14.76-3.93.22-9.06 1.05-12.83-.43-8.38-3.31-16.37-13.94-19.72-22.08l-.66-.82-.01-1.64c-1.31-1.82-2.2-3.54-2.46-5.79-.73-6.2 2.51-12.91 6.47-17.49 11.36-13.16 30.88-9.31 46.4-10.23-7.38-1.25-15.44-2.65-22.92-2.65-22.67.01-31.65 19.99-46.02 33.79l-1.1 1.04c3.4 10.93 9.75 26.25 8.68 37.58-.22 2.35-.16 2.41-2.05 3.98-1.72-.02-3.19.01-4.7-.97-2.95-1.89-4.34-5.97-5.17-9.2-2.36-9.2-3.18-20.73-.58-29.88 3.11-10.96 21.45-38.94 28.07-50.41m350.79-165.37a85 85 0 0 1 4.68-.32c27.13-.95 53.11 27.61 71.84 44.78a3343 3343 0 0 1-56.94 37.01l-14.97 9.66c-26.42-15.99-37.54-42.19-53.86-66.81 14.3-14.81 28.88-21.78 49.25-24.32m45.35-102.71c27.36-9.22 40.02-20.1 71.09-13.01 3.69 3.79 7.49 7.57 10.83 11.68 2.74 3.37 7.18 8.55 6.74 13.05l.88 1.94c10.71 7.24 16 34.57 19.03 46.52-7.8-1.02-14.98-1.57-22.85-.47l.35.76c3.64.71 7.08 1.64 10.61 2.8a1961 1961 0 0 1-28.68 3.49c-5.07-10.61-11.17-20.83-16.41-31.4-6.18 5.26-10.74 11.36-15.59 17.82-7.56-.55-15.31-2.65-22.85-2.1-1.28 1.88-3.15 5.47-4.92 6.81-.94.71-2.04 1.26-3.24 1.01-4.63-.94-6.77-4.85-8.99-8.6-6.13 10.01-10.64 22.75-19.71 30.49-2.04 1.74-5.63 4.56-8.5 3.91-2.45-.55-3.25-1.03-4.53-3.1 1.54-3.75 8.01-7.28 10.99-10.3l-.9-.45-8.08 3.48c3.7-6.07 6.76-11.54 8.72-18.4l-.32.3c5.7-19.54 15.35-39.12 26.33-56.23"/><path fill="#111e3e" d="M1870.68 1386.44c1.42-1.03 2.85-2.06 4.34-2.99 4.9-3.07 8.25-3.4 13.82-2.06l.88 1.94c-6.21 3.53-12.63 6.76-18.94 10.11-10.11-3.31-21.21-4.78-31.02-8.64-1.57-.61-1.77-.34-2.44-1.9 10.59-3.42 22.95.9 33.36 3.54"/><path fill="#fefefe" d="M961.849 1799.42c10.615-10.87 55.301-47.02 68.361-51.14 7.02-2.21 65.01 20.13 73.92 24.5 8.07 3.95 13.16 10.68 16.04 19.08 2.26 4.89 5.48 10.32 6.42 15.63-9.43 2.55-16.87-5.01-26.46.43l-.95 1.82c.98 1.37 1.92 2.73 2.8 4.17-10.93 8.23-23.92 14.63-35.98 21.06-8.76 4.38-34.37 11.83-43.57 8.56-1.84-.65-3.61-1.45-5.38-2.28-6.64-5.76-14.96-9.63-22.285-14.5-9.392-6.24-18.068-13.59-26.677-20.86zm754.821-371.3c7.89-6.12 15.8-11.99 24.67-16.64-4.22 36.36-9.78 43.32-35.18 68.46-7.34 7.27-13.91 15.11-21.61 22.05-8.41 7.58-17.85 14.87-24.4 24.16-.54 8.47-.07 17.2-1.19 25.59-1.67 12.52-7.84 23.86-12.04 35.64-18.23 9.28-40.91 17.31-56.88 29.97-5.39-3.76-33.87-42.73-40.74-51.33 29.73-25.52 59.29-50.98 89.7-75.71 25.73-20.92 52.16-40.98 77.67-62.19m-236 132.28c4.59-.46 9.2-.47 13.81-.29 18.64.71 35.7 3.55 48.6 17.87 8.07 8.95 57.24 70.58 56.71 76.37-.78 8.57-14.77 22.52-21.59 27.5-2.39 1.75-5.3 3.46-8.31 3.73-8.44.75-33.83-10.23-46.06-12.33a418 418 0 0 0 7.36 5.4l.19 1.62c-2.77-2.55-5.11-4.69-8.99-4.97.23 2.74 6.04 5.04 7.68 7.69-3.29-1.49-6.76-3.42-10.36-3.93l-.52 1.04c.54 2.01 1.08 2.97 2.6 4.35.48.44.97.86 1.46 1.29-3.82.21-9.03-1.92-12.22-4-.43-.27-1.43-.98-1.91-1.21-2.17-1.05-3.49-1-5.74-.38l.04 1.65c2.69 2.85 6.92 4.11 10.48 5.61l-5.73.57c-1.53-.43-3.25-.83-4.68-1.52-2.64-1.28-4.07-2.74-5.01-5.54-1.67-4.97.85-11.52 3.08-15.89 6.65-13.04 17.29-30.73 30.06-38.75 3.48-2.18 7.9-3.36 11.8-4.64 2.77-3.69 5.11-7.76 7.56-11.66-26.33 8.79-36.73 20.9-53.75 41.95-10.7-4.59-21.45-9.47-33.01-11.47-10.94-1.89-39.97 1.45-47.19-2.67-1.55-1.87-2.31-3.23-2.46-5.72-.81-13.42 18.77-40.97 27.16-51.04 10.96-13.14 21.94-19.09 38.94-20.63m240.96-290.36c-.09 1.17.01.64-.37 1.9-5.04 17.06-7.96 34.73-11.78 52.1 14.23-18.21 33.13-34.39 50.8-49.22 2.62 10.74 3.87 21.92 6.2 32.77-19.15 25.24-40.22 48.74-60.31 73.19-19.45 23.68-37.43 48.43-57.74 71.44-18.48 20.92-38.78 39.6-59.08 58.7 14.57-23.75 25.79-51.82 36.05-77.68-9.3 12.81-18.7 25.34-29.22 37.18-18.6 20.75-58.98 70.8-80.8 82.76 11.03-24.02 25.51-46.7 38.03-69.99 7.48-13.93 28.61-60.28 36.75-68.5 5.89-5.93 13.67-11.01 20.4-16.01 18.36-13.65 38.25-26.5 54.84-42.26-5.19 12.47-9.72 25.28-12.49 38.52 20.03-23.58 24.15-42.19 31.88-71.44 2.04-7.72 3.88-16.61 7.97-23.52 5.8-9.79 20.43-21.65 28.87-29.94m-303.81 258.9c.61.63.27.17.55 1.61-25.63 35.52-57.5 66.53-88.23 97.57a4163 4163 0 0 1-84.28 83.98c-8.73 8.37-27.78 28.86-35.94 34.7-9.55 6.84-22.79 9.96-33.62 14.42-14.37 5.93-28.55 12.39-42.76 18.69-18.41-14.88-38.37-18.98-60.17-26.4a1719 1719 0 0 1 26.07-19.97c36.69-26.98 72.97-54.55 109.86-81.24 20.61-14.91 40.91-30.4 63-43.07-7.19 17.36-17.13 33.66-24.92 50.8 29.31-25.71 61.23-48.38 92.4-71.73 26.15-19.6 51.75-39.95 78.04-59.36m166.83-559.186c.44 6.574-17.71 56.536-20.4 70.766-3.17 16.81-5.53 34.34-5.53 51.44.01 21.34 3.17 43.69-1.56 64.69-2.07 9.18-7.04 18.05-10.03 27.06 5.05 10.1 9.32 15.47 20.06 19.76a495 495 0 0 1 2.71 16.66c-24.6 8.87-50.28 17.46-73.25 30.09-18.77-7.73-35.03-14.67-48.13-30.85-26.71-32.98-7.94-55.74 4.71-88.32 5.21-13.39 7.75-26.59 9.23-40.84-12.23-1.19-24.46-2.93-36.67-4.43-5.15 17.46-13.57 34.17-21.27 50.61 4.24 24.3 2.36 33.97-9.85 55.27 9.88 14 21.54 26.22 33.2 38.73 16.62 17.73 11.64 26.07 21.26 41.11-20.92 8.63-41.8 18.15-63.37 24.99-9.22-6.31-19.3-12.67-26.11-21.71-7.25-9.61-11.46-22.72-14.89-34.1-3.06-10.16-5.9-21.71-3.86-32.31 4.16-21.58 26.72-35.16 40.68-50.44 8.07-8.83 14.69-18.5 20.29-29.05 22.84-42.99 23.05-68.5 30.1-114.09 3.42 8.69-2.37 53.79-4.55 63.94 45.73 4.67 81.63 2.32 126.05-8.01 6.66-35.55 13.21-69 31.18-100.966M1748.1 1165.3c4.9-.24 10.53 2.09 15.02 3.93 3.19 1.3 4.09 2.64 5.34 5.76-.96 10.85-20.43 23.97-28 31.99l.1 1.08c3.23-.51 7.74-1.97 10.63-.52-6.12 13.17-22.85 28.89-33.44 38.98-24.87 23.68-49.59 45.38-77.88 64.9-15.09 10.42-112.24 65.02-115.25 71.95 2.75 3.77 4.3 6.93 5.66 11.33l.4 1.36-114.02 58.2c-11.64 5.84-29.07 16.99-41.17 20.2-7.5 1.99-17.02.13-24.71-.59 9.24-13.4 19.4-26.06 31.2-37.31 14.25-13.58 31.3-24.6 46.84-36.7 32.82-25.55 65.52-51.04 97.94-77.09 13.21-10.61 28.78-21.22 40.25-33.52l-.4-.1c-6.96 3.48-13.74 9.15-20.22 13.53a3977 3977 0 0 1-44.79 29.85c-13.39 8.67-27.21 16.65-40.52 25.44-34.46 22.74-68.48 46.82-102.2 70.64-40.22 28.41-79.81 58.28-121.06 85.14a3430 3430 0 0 1-69.41 43.8 769 769 0 0 1 65.21-65.54c15.64-14.18 31.97-27.64 47.31-42.15-32.6 17.2-64.96 34.64-99.74 47.1.83-4.21 1.43-8.4 1.96-12.65l.96-.62c16.34-10.5 31.03-23.49 46.89-34.7 23.84-16.86 47.57-33.75 71.12-51.03 14.45-10.6 29.45-20.92 42.68-33.05-41.64 19.56-82.63 40.88-123.98 61.07 11.65-14.24 25.47-37.77 39.94-48.19 32.28-23.24 78.4-39.5 115.06-54.98 17.32-7.31 34.02-15.87 51.22-23.4 15.34-6.71 31.09-12.5 46.5-19.04 20.19-8.56 39.38-19.96 60.38-26.47 15.28-4.73 31.82-6.13 47.51-9.28 41.49-8.34 83.5-24.61 117.3-50.12-4.21-.87-12.17-1.71-14.89-4.93l1.44.24-.73-.9c14.53-7.75 47.78-20.99 63.55-23.61"/></svg>