<svg xmlns="http://www.w3.org/2000/svg" display="block" viewBox="0 0 2048 2048"><path fill="#251840" d="M0 0h2048v2048H0z"/><path fill="#fdcf55" d="M414.318 924.695c34.049 11.78 35.515 24.966 56.518 51.493a300 300 0 0 0-12.935-37.277c17 12.552 25.298 28.827 32.015 48.517 2.11 6.186 3.73 12.722 6.472 18.652.91-12.673.41-25.087-.665-37.737 18.046 20.297 18.171 48.637 18.545 74.227 3.775-12.52 7.924-24.78 9.634-37.78.027-.21.062-.41.094-.62 9.154 27.91 6.667 45.27 4.31 73.7l13.368-28.26c-2.041 14.59-4.403 29.23-5.02 43.95 12.785-30.53 28.038-54.81 56.11-73.71-6.412 13.58-11.154 27.36-15.474 41.72 17.116-26.9 35.157-50.38 66.351-61.575-8.81 12.095-17.084 23.515-23.239 37.245 21.09-21.03 41.18-38.072 71.614-42.03-8.351 6.44-15.848 12.63-22.527 20.81 21.391-11.07 38.573-18.428 63.152-16.438-8.725 4.628-17.997 8.208-26.599 13.008 20.613-3.91 35.559-6.97 55.939.18-11.802 7.16-25.661 10.77-38.906 14.27 8.301 1.3 16.47 2.6 24.596 4.79-17.895 7.83-33.426 8.68-52.767 9.85a144.7 144.7 0 0 0 23.852 4.93c-19.679 8.24-38.302 9.32-59.351 9.23 7.126 3.29 14.636 5.06 22.203 7.01-20.778 7.94-40.609 8.38-62.182 11.85 6.051 1.65 12.304 3.1 18.217 5.17-5.346 1.61-34.293 7.15-35.987 8.24 2.216 1.44 4.337 2.48 6.742 3.55l-.223 1.21c-13.858 7.48-27.393 8.05-42.616 9.75l12 4.18c-10.215 7.48-18.144 14.13-25.151 24.76 30.129-15.41 63.786-32.1 97.919-35.13l1.794-.17 1.078-.08c-11.415 6.33-20.968 12.99-30.778 21.58 30.698-14.83 46.441-21.11 81.174-19.63-10.916 5.66-22.077 11.12-32.68 17.34 29.813-7 58.192-12.5 88.262-3.33a574 574 0 0 0-44.594 13.97c34.175-3.22 63.209-2.21 94.106 13.8-14.418.17-28.915-.01-43.207 2.16 26.818 4.05 52.542 7.36 72.909 27.08-14.861-4.16-27.812-5.52-43.197-4.61 24.068 6.5 42.363 12.31 57.209 33.7-12.613-1.85-24.769-4.01-36.967-7.85l4.827 11.76c-17.352-5.86-32.129-16.08-47.313-26.06 8.838 9.05 18.231 17.48 27.205 26.38-29.541-5.27-46.084-17.04-69.487-34.85 5.834 9.42 13.248 17.32 20.764 25.41-27.973-8.8-42.115-18.38-65.688-35.32 4.939 7.13 9.773 14.09 15.601 20.54-19.585-6.34-35.843-14.11-53.291-25 4.286 4.69 8.413 9.33 12.14 14.48-18.205-5.09-36.44-10.92-55.105-14.09 17.564 7.55 34.363 15.53 51.055 24.86q-9.797 1.2-19.565 2.61c36.426 4.35 55.378 12.18 86.39 32.24-14.988-1.2-29.612-2.12-44.62-.42 26.25 6.45 48.535 14.84 70.733 30.71-13.331-1.75-26.827-3.59-40.282-3.89 25.962 8.67 49.416 22.14 66.255 44.28-16.447-6.54-32.101-10.52-49.896-9.95 26.23 7.02 44.84 19.96 62.937 40.13-11.08-3.06-22.147-6.35-33.354-8.91 22.605 14.87 36.221 30.9 45.311 56.63-9.843-9.12-19.282-15.12-31.557-20.43 14.433 13.31 24.186 30 32.079 47.78-7.137-6.02-13.997-10.55-22.527-14.37 14.313 17.34 19.282 30.11 18.932 52.6-6.401-10.05-13.078-20.03-21.356-28.64 5.928 14.11 12.885 31.87 6.841 47.18-1.039 2.63-2.464 4.95-5.148 6.15-1.393.62-3.049.48-4.461-.08-6.449-2.58-9.777-13.18-11.338-19.34-2.755-10.85-2.638-21.99-2.491-33.11-3.161 9.77-4.919 19.66-9.365 28.99-7.613-21.89-9.776-42.11-9.788-65.09-3.738 8.88-5.971 18.19-9.178 27.23-10.068-22.95-12.776-43.81-13.784-68.55-2.969 9.57-4.631 19.38-7.114 29.06-10.304-22.52-17.274-47.18-21.365-71.62-.542 12.13-.094 24.1.818 36.2-15.332-21.83-25.027-43.65-33.894-68.61-.392 8.77-.324 17.4.002 26.17-12.575-15.01-20.077-30.7-27.15-48.79l.861 21.29c-13.525-16.18-24.483-35.24-39.384-50.04 2.914 6.35 6.296 12.25 9.909 18.23-8.25-4.04-16.427-6.49-25.366-8.49 13.756 10.47 24.707 19.66 34.435 34.14l-13.999-2.74.651.57c3.907 3.31 8.355 5.8 12.266 9.08 12.146 10.2 23.231 24.43 30.367 38.59-7.402-5.28-14.335-8.56-22.964-11.35 20.749 22.19 33.91 44.85 36.665 75.58-7.038-9.99-13.979-19.61-22.888-28.07 15.316 28.86 16.239 44.75 17.197 76.79-2.35-5.09-11.881-28.07-15.855-29.55-.594 21.65 9.124 30.55.414 55.07l-5.358-21.31c-2.023 20-3.81 39.48-14.103 57.26-1.137-9.3-1.108-18.62-1.205-27.97-3.962 10.75-11.808 32.2-22.955 37.37-1.573-.12-2.379.19-3.573-1.02-4.871-4.92-4.334-17.59-3.84-24.2 1.04-13.94 7.392-26.17 13.515-38.46-7.498 6.36-14.708 13.34-23.542 17.77-.475.24-.94.49-1.413.74l-.854.43c6.822-16.54 13.346-32.8 22.368-48.3-8.121 5.72-16.083 11.53-24.86 16.22 5.16-18.52 13.684-34.96 21.795-52.26-7.135 6.4-14.161 13.03-21.604 19.07 3.176-19.77 10.235-42.38 18.043-60.9-5.749 8.56-11.814 17.29-19.241 24.5.554-21.6 5.663-42.34 7.358-63.76-3.364 9.58-6.901 19.15-12.055 27.94-2.124-17.18-3.69-36-2.531-53.26.559-8.32 2.187-16.54 2.943-24.85l-4.268 16.62c-7.454-22.66-15.259-45.13-30.669-63.8 7.829 56.96 13.737 110.17 12.449 167.91-1.283 57.51-9.604 115.56-15.591 172.77a3322 3322 0 0 1-13.096 109.67c-2.523 19.04-4.649 38.42-8.141 57.3 87.287-33.73 177.698-61.43 269.9-78.09 251.53-45.45 546.47-16.48 782.86 81.82a4171 4171 0 0 1-36.7-274.58c-3.96-40.56-9.61-82.52-7.82-123.27a334 334 0 0 1 7.43-54.73c3.57-16.04 8.56-32.8 9.87-49.17l-1.45-.48c-14.8 6.78-18.96 24.17-24.38 38.14l-.03-1.99c-3.4 7.77-4.34 14.97-5.21 23.35l-5.6-16.04c-.3 14.43 1.27 28.76-.07 43.19l-8.05-12.65c2.95 14.3 4.1 28.06 3.02 42.62-4.55-6.21-8.19-13.2-12.03-19.88 4 17.58 7.04 34.93 7.43 52.99-4.74-6.91-10.21-12.95-16.24-18.74a179 179 0 0 1 13.28 55.25c-5.9-5.93-11.32-12.29-16.79-18.61 6.13 19.8 11.21 39.2 14.03 59.76-7.93-9.33-14.86-19.61-22.6-29.14 10.16 22.53 16.98 43.47 18.93 68.18-5.68-7.7-11.45-15.34-17.3-22.91 6.28 14.06 15.46 36.99 13.14 52.47-.45 3-1.41 4.51-3.87 6.19-2.91 0-4.7-.8-6.88-2.65-13.64-11.59-18.51-31.64-19.8-48.52-1.92 12.59-2.22 24.99-2.5 37.7-14.96-23.01-13.9-36.7-11.25-63.1-5.35 9.39-9.78 19.1-15.47 28.35-.54-27.02 4.31-48.76 14.48-73.51-8.75 9.59-16.19 20.35-24.9 30.02 2.4-26.24 13.14-48.66 26.67-70.88-10.05 8.12-19.24 17.77-28.72 26.58 6.83-27.66 24.46-48.33 42.22-69.62-11.66 8.56-23.23 17.26-34.7 26.09 14.28-27.15 28.09-44.41 52.18-63.33-6.54 2.43-12.79 5.28-19.1 8.28 4.37-7.29 9.38-12.63 15.6-18.31-.59-2-.9-4.09-1.29-6.14l-1.15-2.53c-11.04 2.07-20.75 22.14-30.21 26.67-.72-1.38-.64-1.7-2.05-2.49-7.9 9.16-14.19 21.16-21.24 31.17.04-5.63-.07-11.26-.11-16.89-8.31 18.5-17.41 35.44-27.73 52.88.37-8.3.54-16.6.53-24.9-8.37 19.28-12.69 40.07-20.99 59.51-.29-8.28.19-16.75-1.93-24.81-3.27 5.69-5.4 26.7-7.44 35.34-2.13 9.05-4.64 18-7.51 26.84-1.1-11.17-2.21-22.9-4.95-33.79-4.54 27.5-9.77 54.83-20.96 80.52-1.1-10.77-1.63-21.59-2.3-32.39-2.18 7.01-21.9 61.41-24.8 65.62-1.78.31-1.68.7-2.92-.11-5.55-3.65-8.82-13.86-9.95-20.02-3.43-18.73 5.04-34.53 15.56-49.16-13.32 9.43-20.75 20.99-29.49 34.41 4.7-29.35 14.09-54.16 34.62-76.02-12.4 5.33-22.4 13.06-32.28 22.13 10.31-26.57 21.09-39.63 42.16-58.26-10.45 2.54-19.85 5.63-29.5 10.43 14.63-20.74 36.25-32.51 57.59-45.24-13.47 3.35-26.81 7.36-40.17 11.16 13.14-19.07 30.53-27.21 50.57-37.69-9.78 1.89-19.56 3.83-29.32 5.83 18.79-17.13 43.05-26.32 66.23-35.73-13.35 1.26-26.73 3.51-40.01 5.38 17.14-13.79 33.44-21.21 54.54-26.81-8.69.01-16.98-.26-25.61-1.35 15-7.51 29.66-13.19 45.64-18.25l.07-.93-5.01-.77c1.22-1.51 3.93-1.82 5.79-2.39-1.46-2.01-3.1-3.43-4.93-5.09 2.96-4.37 8.77-7.93 12.93-11.21-14.31 6.16-28.52 13.75-43.28 18.6l-1.76.59-1.06.34c4.7-6.91 9.52-13.43 15.28-19.49-22.58 10.23-40.05 29.24-63.34 38.68 6.32-9.7 12.74-19.34 19.26-28.91-16.25 15.02-34.28 26.19-54.61 34.88 6.99-9.11 14.08-18.05 19.45-28.25-16.53 15.72-31.44 25.06-53.13 32.22l10.01-16.34c-14.4 8.19-28.48 12.31-45.15 13.08 5.57-14.1 10.36-20.55 24.65-26.69 6.51-2.79 11.78-4.22 18.82-4.87l.68-.72c-10.38-3.86-23.96-.47-34.4 2.14 17.28-18.08 39.43-25.68 64.03-28.19-14.51-3.28-26.48-2.05-40.88 1.14a93.05 93.05 0 0 1 68.04-20.85c3.68.34 7.35.79 11.01 1.34-10.41-5.61-21.11-9.71-32.27-13.51 27.55-7.19 51.07-6.56 78.76.4-9.61-6.02-19.96-10.53-30.29-15.17 23.56-2.08 40.37-1.09 62.89 7.16l-10.79-8.81c34.7 6.96 67.95 18.63 98.05 37.46-23.17-26.2-33.87-31.82-65.28-44.52 5.24-2.19 10.52-4.32 15.71-6.61-15.8-.14-30.78-.28-46.08-4.82 7.08-2.12 13.12-4.46 19.41-8.45-25.23 2.66-45.78 6.12-69.41-5.25 10.67-1.88 21.26-3.89 31.6-7.21-24.56-.14-45.34-.83-67.09-13.82 12.72-2.46 25.64-3.84 38.32-6.44-22.74-2.06-40.84-3.05-58.66-18.89l11.44-7.79c15.13-.29 27.19 3.89 41.35 8.83-9.55-8.1-18.66-13.45-30.13-18.392 16.67-5.104 31.63 1.545 46.33 9.392 5.66 3.03 10.83 6.56 16.06 10.26-7.08-10.06-15.1-18.599-23.98-27.081 32.77 2.746 44.59 16.271 68.82 36.191-5.64-9.64-11.63-19.23-16.85-29.092 30.51 9.842 46.1 29.092 64.2 53.862-4.01-10.5-8.47-21.01-10.91-32.01 28.1 18.41 40.06 49.15 55.86 77.28.27-13.74.32-27.36-.54-41.08l11.46 16.78c-6.96-27.23-9.88-42.45-.67-69.71 2.08 12.35 3.75 24.05 8.71 35.66.88-26.92.15-51.087 19.46-72.027-.21 12.465.01 24.264 2.16 36.597 5.11-23.565 9.91-44.807 31.49-58.671a163 163 0 0 1 4.93-3.042c-3.03 9.118-5.09 18.113-6.5 27.614 11.85-19.006 18.47-32.269 41.5-39.235-5.91 6.203-11.07 12.209-15.07 19.847 8.15-5.501 26.56-18.977 37-17.285 1.54.25 1.51.901 2.28 2.089-.64 8.009-8.51 15.523-14.36 20.548-7.67 6.576-16.35 11.647-24.97 16.838 12.64-4.093 24.7-8.492 36.65-14.364-15.13 22.071-32.3 33.882-55.7 45.801 10.87-2.16 20.97-6.753 31.65-9.537-11.7 15.057-22.06 29.197-37.15 41.017l15.25-3.75c-9.27 10.09-19.08 17.55-30.35 25.2 4.35-1.24 8.95-3.13 13.49-2.37l1.1 1.37c-1.24 5.75-9.31 12.91-13.28 17.25l.46.66c7.86-6.02 14.94-13.61 21.96-20.59 23.79-23.66 46.41-48.25 77.68-62.109-7.62 10.589-14.14 20.679-19.35 32.669 26.11-25.5 46.08-47.419 83.8-53.208-8.66 7.597-15.31 14.086-21.39 23.874 27.35-16.459 47.95-26.034 80.4-25.277-10.79 3.952-19.84 9.573-29.33 15.97 13.76-4.691 47.89-14.16 62.1-9.599l.09 1.39c-3.91 2.947-8.73 4.257-13.3 5.879 13.51.491 24.78 1.536 37.4 6.578-21.18 13.343-40.96 14.303-64.85 18.443 11.5 2.37 23.07 5.43 34.67 7.15-32.23 12.59-50.5 11.47-83.12 15.22 13.26 2.92 26.91 3.87 40.03 7.28-28.41 10.58-52.31 9.71-82.05 6.55 10.63 5.95 20.62 9.33 32.47 11.93-22.5 5.81-42.19 4.08-65.03 3.73 7.18 3.13 14.42 5.65 21.88 8.05-9.01 3.05-17.89 5.13-27.3 6.54-8.14 1.22-17.18 1.68-24.94 4.48 1.55 1.62 5.76 2.15 5.72 3.95-7.17 3.41-15.49 4.94-23.12 7.16-19.77 5.75-37.23 16.47-50.88 31.86 39.02-15.79 79.92-27.45 122.23-28.29-10.88 6.19-21.62 12.35-31.86 19.56 31.23-8.37 59.14-15.9 91.39-7.17-14.1 3.67-27.54 8.21-41.11 13.55 31.91-2.94 64.63-5.58 92.93 12.62-13.59.44-26.81 1.93-40.22 4.11 27.56 4.12 50.03 8.88 71 28.32-13.77-3.53-28.27-8.29-42.5-9.23 22.49 9.03 39.8 15.21 54.98 34.96-25.45 4.91-43.4-8.59-66.22-16.88 10.41 9.65 23.51 16.06 34.54 25.11-28.63-3.01-46.38-11.76-68.98-29.32 6.54 12.07 14.97 19.73 25.41 28.45-26.19-6.68-44.55-19.11-65.86-35.25 4.83 8.13 9.45 16.12 13.32 24.76-21.85-8.21-32.53-21.03-50.45-34.72 4.26 7.54 8.84 14.73 13.7 21.9-16.2-6.54-31.7-13.43-47.05-21.8l12.82 10.65c-14.22-3.41-32.56-10.25-46.94-9.57l.76-.31.52 1.24c9.65 3.01 19.29 5.85 28.57 9.86-5.09-.39-11.7-1.71-16.62-.37l.25.73c5.44 1.47 10.98 2.01 16.46 3.25 12.9 2.79 25.52 6.75 37.7 11.84-8.16.98-16.16 2.02-24.17 3.84 26.28 1.38 40.28 1.2 63.17 16.19-9.86-.5-19.04.39-28.72 2.19 15.47 3.45 27.77 7.16 41.13 15.94-9.04 1.66-17.57 4-26.34 6.67 26.69 1.1 43.51 7.94 63.41 25.95-11.69-1.44-25.48-4.57-37.09-2.14 3.86 2.59 10.77 3.11 15.33 4.53 20.19 6.29 35.87 16.74 49.63 32.83-12.26-3.01-25.15-6.28-37.74-7.35 25.21 14.03 48.72 26.58 57.96 55.88-12.41-9.43-25.33-17.45-38.85-25.18 18.86 18.8 37.35 34.29 42.33 61.75-7.95-7.55-15.55-15.3-24.85-21.23 12.84 16.95 19.93 31.46 16.96 53.26-.66 4.82-1.43 9.5-5.51 12.56-2.73.38-4.03.41-6.41-1.16-9.54-6.31-18.38-32.38-22.09-43.13-.29 11.82-1.28 22.2-4.38 33.61-11.14-19.75-16.31-42.95-16.78-65.5-4.12 8.56-5.61 18.52-7.8 27.74-7.15-21.52-13.14-43.46-20.57-64.87-.5 11.9-.34 23.77-.67 35.67-11.69-20.05-18.17-42.44-29.28-62.77.8 10.34 1.46 20.49 1.29 30.87-6.97-12.6-13.92-25.29-19.7-38.49-4.54-10.38-7.98-21.48-13.32-31.47l-.01 25.93c-10.51-12.01-15.33-26.45-24.35-39.35l1.3 13.97-1.35-1.41c-7.95-8.38-13.84-19.22-22.03-27.03-.5 2.33-.37 4.15-.24 6.49l-1.15.02c-7.16-7.6-14.65-14.43-23.14-20.52 5.74 6.81 11.69 13.51 17.07 20.6-4.88-2.64-9.72-5.41-14.7-7.83 10.82 7.84 19.29 14.29 26.18 26.1-6.72-4.12-12.95-7.16-20.5-9.55 16.45 12.97 33.82 25.35 44.74 43.69-9.33-3.8-18.62-7.77-28.17-10.98 21.29 16.21 35.17 32.95 43.64 58.53l-28.32-21.73c13.17 20.51 25.58 39.49 32.51 63.19-4.14-3.66-26.23-25.18-30-25.23 3.31 5.61 7.47 10.55 11.15 15.91 10.77 15.63 15.31 32.13 15.56 50.96-7.47-9.21-13.64-19.57-21.38-28.48 8.41 19.99 13.19 38.02 8.73 59.61-2.25-5.44-4.45-14.23-8.23-18.51-1.96 3.43-1.35 8.65-2.29 12.6-4.03 17.1-18.27 24.6-33.38 30.17 3.71-15.47 7.12-30.84 9.39-46.6-4.76 6.23-9.44 12.56-14.35 18.67 2.17-16.79 8.03-32.56 10.46-49.16-4.87 6.21-9.59 12.54-14.15 18.99.43-17.74 4.36-34.6 7.36-52.02-2.8 3.87-8.03 13.8-11.8 15.66-4.75-12.2 2.72-33.51 5.68-46.04l-12.46 20.59c-3.25-18.32-.99-33.04 3.36-51.01-4.56 6.19-8.49 12.64-12.41 19.25-1.69-15.85-.59-31.18-.76-47.01-1.8 5.89-3.72 11.77-5.24 17.74-3.05-13.08-3.61-25.08-4.25-38.4-.57 1.98-1.11 3.94-1.87 5.86-4.27-3.93-10.63-34.98-13.2-42.86-1.74 96.65 13.06 182.23 30.47 276.47 10.87 58.81 22.14 117 35.86 175.25 6.27 26.63 14.35 52.81 20.45 79.47a9070 9070 0 0 1 69.05-324.2c35.27 3.51 70.25 11.58 105.24 17.19l86.11 13.43c15.3 2.26 30.89 3.83 46.08 6.59 3.37 17.88 9.29 31.19 20.89 45.27-7.36 36.16-11.62 72.91-17.22 109.36-11.58 75.09-22.4 150.3-32.45 225.61-4.67 34.74-9.7 69.43-15.08 104.07-2.65 17.8-4.05 36.46-8.49 53.88l-1711.889-.28c-3.068-32.78-8.829-65.33-13.724-97.88l-16.884-115.25c-14.128-91.15-27.288-182.51-42.412-273.5 7.061-16.82 13.954-33.74 21.766-50.23l142.036-21.38c-6.114-13.36-8.172-25.88-2.988-40.11 3.768-10.34 10.537-19.07 17.575-27.39-4.671 2.78-20.12 15.59-23.959 15.09-1.103-6.16 8.253-20.63 11.875-25.82 6.252-8.94 13.959-16.2 22.114-23.37-11.034 3.33-20.385 9.42-30.115 15.42 8.603-25.14 31.02-42.77 53.893-54.71-11.767 2.36-23.511 4.69-35.152 7.62 16.533-23.88 37.274-28.78 59.303-44.67-10.001 2.28-19.917 4.49-30.07 6 20.368-18.41 43.185-28.2 68.094-38.69-12.855 2.65-25.339 5.73-38.543 5.47 18.098-12.97 37.846-25.4 59.038-32.61 4.402-1.5 13.455-1.99 16.743-4.64l-2.399-1.53c15.823-10.96 44.555-14.26 63.446-16.84-25.972-2.74-46.007 1.26-71.001 8.23 3.69-4.66 7.413-9.23 11.373-13.66-16.17 9.5-31.346 18.74-49.487 23.99l14.557-19.52c-17.763 9.76-33.033 21.81-52.142 29.28 5.033-7.05 9.996-13.88 13.917-21.63.144-.29.296-.57.444-.85-16.542 14.56-33.625 25.45-54.38 33.03 6.976-8.2 14.569-16.36 20.618-25.25-16.909 11.57-30.175 19.06-50.258 23.69 7.373-7.01 15.254-13.07 23.353-19.19-13.948 5.5-32.279 17.83-47.367 16.93l.061-.89c4.15-3.34 8.571-6.58 12.344-10.35-12.539 3.38-24.068 6.35-37.121 6.96 13.142-19.23 32.645-25.82 53.833-32.97-14.397-1-25.749 2-39.373 6.51 21.731-20.92 48.612-24.49 77.737-24.14-14.963-5.2-30.405-6.78-45.892-9.56 30.005-14.11 56.678-14.17 88.993-9.11-13.347-6-26.84-11.59-39.921-18.17a191.64 191.64 0 0 1 85.321 7.95c-10.626-7.55-23.723-11.51-34.941-18.28 43.258 1.08 88.655 12.52 129.374 27.02-21.536-17.61-45.183-27.79-70.602-38.36 7.055-.54 13.986-1.23 20.973-2.36-23.414-3.79-45.27-8.79-68.063-15.36 9.06-1.68 18.173-3.22 27.085-5.58-25.643-.2-49.964-1.58-75.099-7.27 11.793-1.99 22.643-4.66 33.549-9.65-33.686 1.66-44.731.39-77.62-7.4 12.319-2.44 24.173-4.81 35.741-9.89-24.782 2.45-52.486 1.42-75.063-10.22 10.966-2.64 22.068-5.03 32.889-8.21-24.262-1.12-42.975-5.56-64.435-17.231 16.301-4.712 29.672-6.345 46.543-4.166-6.987-2.924-13.97-6.104-21.124-8.585 23.933-4.597 44.925-.535 67.927 6.044-9.121-5.957-18.229-11.705-27.743-17.027 28.722 1.505 51.879 11.827 73.104 31.377-6.472-11.914-14.852-21.189-24.214-30.895 32.542 8.26 51.016 26.237 73.943 49.393-4.573-11.6-10.943-21.758-17.644-32.211 27.474 14.27 47.502 30.291 63.853 56.691-1.515-5.93-3.204-11.87-4.36-17.88 17.532 13.1 31.279 32.01 43.704 49.89-2.747-7.68-5.477-15.34-8.585-22.87 5.781 4.99 11.209 9.16 18.031 12.69-10.217-10.23-21.951-20.32-29.591-32.64l12.792 4.19c-12.403-11.44-25.588-22.85-36.345-35.878 7.178 2.594 14.249 4.798 21.664 6.608-20.093-13.125-28.726-21.956-43.565-40.836l21.655 8.705c-11.9-11.254-28.679-23.792-30.677-41.132l.696-1.951c12.741 1.635 26.284 15.85 37.657 21.968-6.286-8.394-13.185-16.034-19.838-24.099"/><path fill="#fd7fc9" d="M500.09 1669.24c87.287-33.73 177.698-61.43 269.9-78.09 251.53-45.45 546.47-16.48 782.86 81.82 3.1 24.27 7.03 49.16 12.75 72.94-30.99-13.04-63.26-21.09-96.38-26.63-2.65-4.47-5.29-8.99-8.23-13.28-10.33-15.01-14.96-18-32.81-21.37-2.63-5.8 7.85-16.02 9.54-22.4 1.37-5.19.23-10.14-2.71-14.57-5.26-7.92-14.47-14.5-23.85-16.27-27.49-5.21-27.13 19.99-33.82 24.75-2.69.33-5.02.7-7.62 1.51l-.5 1.69c2.38 4.71 6.97 8.35 10.73 11.99-1.85 3.74-4.12 7.9-3.86 12.15 1.42 2.89 3.71 4.08 6.38 5.67 4.72 2.81 6.62 6.51 9.37 11.11-26.35.03-52.55-2.07-78.84-3.49-35.47-1.9-70.97-3.12-106.49-3.66-21.2-.23-42.46 1.43-63.6 2.83-9.97.66-20.72 2.23-30.67 1.42 3.53-5.71 20.65-14.25 27.14-18.77 20.8-14.48 40.4-29.9 59.01-47.13 10.12-2.04 19.07-4.92 28.42-9.3-1.84-2.01-3.59-3.96-5.75-5.65l-.16-1.87 3.14-3.31c-2.73-.86-5.96 1.98-9.06 2.36.79-3.62 4.71-4.12 6.43-7.61-2.41-.56-3.6-.07-5.86.55l-1.25.33-.76.22c0-1.24.37-1.76.92-2.84l1.36 1.19-1.02-2.15c1.38-2.6 2.86-5.18 4-7.9-5.73 5.22-10.77 10.86-15.85 16.72-2.86-2.39-5.68-4.95-8.74-7.09-1.29 6.12-2.89 12.35-3.75 18.54-19.62 12.12-68.62 45.31-88.01 50.56-4.98 1.35-11.84.9-16.8-.23l-1.23-1.41c4.05-3.65 8.46-7.18 11.77-11.54.63-4.46.62-12.2 4.36-15.09 1.62-1.24 3.52-2.11 5.35-3 .5-2.2.37-2.34-.87-4.16-1.82-2.67-4.65-4.98-7-7.19.48-6.98-.31-13.14-5.13-18.62-4.29-4.88-10.74-7.03-16.88-8.4-7.28 1.92-19.27 5.76-25.26 10.32-1.67 9.23-7 27.08-6.66 35.42 3.33 3.27 5.26 3.81 9.92 3.75 2.28-.03 4.53-.17 6.8-.46l.88 1.17c4.03 5.31 12.85 11.47 14.99 17.08-4.34 7.51-19.21 10.23-26.34 15.17-8.46 5.87-14.59 14.54-21.13 22.35-15.35-15.2-28.44-31.36-42.578-47.58-.977-1.12-1.933-1.64-3.308-2.14-1.835.3-6.244 1.65-7.768.71-7.44-4.6-6.855-22.45-17.42-21.55-2.759.23-5.021 2.09-6.476 4.34-2.136 3.31-2.386 7.27-1.418 11.01 1.541 5.96 6.199 10.89 11.442 13.88 6.7 3.81 14.232 4.44 21.758 5.25 6.259 10.84 12.358 21.81 19.078 32.37-32.442 7.11-66.079 11.08-98.882 16.38-12.853 2.07-26.55 3.54-39.088 7.06l-3.037-3.33c-2.531-.11-3.201.33-5.064 2.05-1.378 1.27-2.648 2.7-3.927 4.07-23.426 1.83-47.547 7.88-70.754 12.02-3.549-4.96-6.281-9.59-8.305-15.4 2.196-3.8 4.368-7.47 7.029-10.97 6.059.87 13.433 2.18 18.582-2.07 3.422-2.83 4.726-7.61 4.922-11.87.15-3.25.015-6.56-.05-9.82 2.809-1.87 5.833-3.32 7.078-6.63-1.416-4.08-6.1-6.25-9.624-8.57l5.521-7.07c1.755-2.23 3.449-4.17 3.259-7.21-.153-2.45-.603-4.46-2.884-5.75-.274-.15-2.652-.68-2.842-.73-3.609-.92-4.995-2.53-7.603-5.02-4.857-4.65-12.182-7.51-18.914-7.45-7.815.07-12.719 2.5-17.951 8.06-4.948-4.9-9.273-8.47-15.773-11.26-8.538 3.01-14.694 4.27-23.746 3.84-5.73 3.82-9.506 7.58-13.247 13.33l5.684 7.34c.849 8.74 1.891 19.2 9.166 25.22 3.732 3.09 8.318 3.95 13.047 3.4 3.785-.45 9.093-2.98 12.406-1.39 3.012 5.44 5.208 11.19 7.505 16.95-16.326.6-29.187 1.71-41.237 14.24-9.577 9.96-16.891 24.12-23.964 36-14.188 1.07-32.897 8.62-46.747 12.97-50.755 15.96-100.108 34.36-150.071 52.51-3.019-44.23-4.052-79.16 1.627-123.45 1.436-11.21 2.657-22.91 5.444-33.87"/><path fill="#251840" d="M1202.95 1612.2c5.08-5.86 10.12-11.5 15.85-16.72-1.14 2.72-2.62 5.3-4 7.9l1.02 2.15-1.36-1.19c-.55 1.08-.92 1.6-.92 2.84l.76-.22 1.25-.33c2.26-.62 3.45-1.11 5.86-.55-1.72 3.49-5.64 3.99-6.43 7.61 3.1-.38 6.33-3.22 9.06-2.36l-3.14 3.31.16 1.87c2.16 1.69 3.91 3.64 5.75 5.65-9.35 4.38-18.3 7.26-28.42 9.3-18.61 17.23-38.21 32.65-59.01 47.13-6.49 4.52-23.61 13.06-27.14 18.77 9.33 23.56 14.8 49.72 22.08 74.06 7.09 23.74 16.14 46.79 22.97 70.61.55 1.91.92 3.73.69 5.71-1.41 12.26-4.95 24.73-7.07 36.96-3.38 19.4-5.66 39.45-10.06 58.61-.43 1.87-.96 3.38-2.01 5.01-.78 1.21-1.16 1.64-2.01 2.71 4.58 7.52 17.64 5.18 22.15 11.92l-.46 1.7c-15 3.22-60.13 1.45-77.36.73 4.07-17.69 8.45-35.32 13.13-52.86 4.02-14.62 17.19-53.27 17.48-65.09.34-13.56-7.19-32.77-12.71-45.09-3.35 27.49-6.14 55.31-10.76 82.61-10.91 10.64-75.59 64.92-77.75 69.59-.37.81-.29 1.75-.44 2.63.84 1.84 1.67 3.69 2.48 5.54-4.54 1.77-13.456.32-18.427.33-3.604-6.14-8.052-9.07-11.738-14.32-5.749-8.18-9.354-18.18-15.189-26.7 25.936-20.88 55.244-36.04 82.264-55.16 4.14-14.22 22.13-94.66 21.53-102.95-1.18-16-8.72-33.66-13.74-48.85-10.65 7.66-21.85 14.76-32.26 22.7-8.92-9.8-15.54-20.89-22.5-32.1-6.72-10.56-12.819-21.53-19.078-32.37-7.526-.81-15.058-1.44-21.758-5.25-5.243-2.99-9.901-7.92-11.442-13.88-.968-3.74-.718-7.7 1.418-11.01 1.455-2.25 3.717-4.11 6.476-4.34 10.565-.9 9.98 16.95 17.42 21.55 1.524.94 5.933-.41 7.768-.71 1.375.5 2.331 1.02 3.308 2.14 14.138 16.22 27.228 32.38 42.578 47.58 6.54-7.81 12.67-16.48 21.13-22.35 7.13-4.94 22-7.66 26.34-15.17-2.14-5.61-10.96-11.77-14.99-17.08l-.88-1.17c-2.27.29-4.52.43-6.8.46-4.66.06-6.59-.48-9.92-3.75-.34-8.34 4.99-26.19 6.66-35.42 5.99-4.56 17.98-8.4 25.26-10.32 6.14 1.37 12.59 3.52 16.88 8.4 4.82 5.48 5.61 11.64 5.13 18.62 2.35 2.21 5.18 4.52 7 7.19 1.24 1.82 1.37 1.96.87 4.16-1.83.89-3.73 1.76-5.35 3-3.74 2.89-3.73 10.63-4.36 15.09-3.31 4.36-7.72 7.89-11.77 11.54l1.23 1.41c4.96 1.13 11.82 1.58 16.8.23 19.39-5.25 68.39-38.44 88.01-50.56.86-6.19 2.46-12.42 3.75-18.54 3.06 2.14 5.88 4.7 8.74 7.09m-482.473 33.79c9.052.43 15.208-.83 23.746-3.84 6.5 2.79 10.825 6.36 15.773 11.26 5.232-5.56 10.136-7.99 17.951-8.06 6.732-.06 14.057 2.8 18.914 7.45 2.608 2.49 3.994 4.1 7.603 5.02.19.05 2.568.58 2.842.73 2.281 1.29 2.731 3.3 2.884 5.75.19 3.04-1.504 4.98-3.259 7.21l-5.521 7.07c3.524 2.32 8.208 4.49 9.624 8.57-1.245 3.31-4.269 4.76-7.078 6.63.065 3.26.2 6.57.05 9.82-.196 4.26-1.5 9.04-4.922 11.87-5.149 4.25-12.523 2.94-18.582 2.07-2.661 3.5-4.833 7.17-7.029 10.97 2.024 5.81 4.756 10.44 8.305 15.4 23.207-4.14 47.328-10.19 70.754-12.02 1.279-1.37 2.549-2.8 3.927-4.07 1.863-1.72 2.533-2.16 5.064-2.05l3.037 3.33c-2.946 3.72-5.663 6.9-7.218 11.46l.53.49c2.3-2.04 3.226-3.94 4.468-6.66l1.725-.49c.898 2.7-1.018 8.71.646 9.8l2.7-.68 1.382 1.15c.162 4.01-3.671 3.17-1.436 6.7.33.52.648 1.04.972 1.57-4.925 9.36-17.406 8.15-25.091 13.77-14.157 10.36-24.864 32.51-41.74 38.33-4.508 1.56-9.008 1.14-13.254-.97-7.383-3.68-12.955-11.02-18.166-17.25-7.566 7.86-15.399 16.09-21.378 25.25 18.767 2.63 53.343.9 65.96 17.01 4.533 5.79 4.011 14.51 2.939 21.33-5.553 35.35-28.658 83.21-20.85 118.34-7.783 1.72-16.998.86-25.002.75 1.621-20.96.901-41.72.322-62.71-6.278 7.69-36.362 45.67-34.404 53.32.395 1.54 1.882 3.47 2.718 4.77-9.143 6.72-20.158 5.01-30.863 4.48 6.82-16.83 14-33.51 21.535-50.03 6.936-15 14.663-29.95 20.861-45.26-21.452-3.91-57.888-7.42-71.62-27.04-4.051-5.79-5.288-12.44-3.804-19.32 1.562-7.25 5.938-13.83 9.674-20.14-3.737-1.27-8.234-2.22-9.796-6.34-3.727-9.85 9.401-30.53 13.467-39.65 7.073-11.88 14.387-26.04 23.964-36 12.05-12.53 24.911-13.64 41.237-14.24-2.297-5.76-4.493-11.51-7.505-16.95-3.313-1.59-8.621.94-12.406 1.39-4.729.55-9.315-.31-13.047-3.4-7.275-6.02-8.317-16.48-9.166-25.22l-5.684-7.34c3.741-5.75 7.517-9.51 13.247-13.33"/><path fill="#fdcf55" d="M781.778 1743.91c23.207-4.14 47.328-10.19 70.754-12.02-2.097 4.57-3.876 10.66-8.957 12.61-1.652.63-3.468.92-5.203 1.22-2.854 3.32-3.685 6.68-4.922 10.81-1.99 6.64-13.365 11.39-19.095 14.37a308 308 0 0 1-10.749 5.43 2196 2196 0 0 0-21.828-32.42"/><path fill="#251840" d="M1379.95 1671.33c-3.76-3.64-8.35-7.28-10.73-11.99l.5-1.69c2.6-.81 4.93-1.18 7.62-1.51 6.69-4.76 6.33-29.96 33.82-24.75 9.38 1.77 18.59 8.35 23.85 16.27 2.94 4.43 4.08 9.38 2.71 14.57-1.69 6.38-12.17 16.6-9.54 22.4 17.85 3.37 22.48 6.36 32.81 21.37 2.94 4.29 5.58 8.81 8.23 13.28 8.54 15.78 49.82 95.89 47.43 107.52-.73 3.53-2.84 6.94-6.04 8.72-2.3 1.27-5.14 1.54-7.57.47-2.84-1.25-9.98-12.53-10.74-15.51-.9-3.58 3.26-10.4 4.95-13.67a456 456 0 0 0-40.96-60.56c12.37 46.85 11.74 76.88 11.78 124.13 19.45 22.98 39.21 45.53 58.18 68.92-7.42 6.38-13.55 13.96-20.83 20.27-11.53 9.98-26.34 9.19-40.53 8.25 4.13-2.21 8.44-4.09 12.71-6.04-5.98-9.94-12.51-19.86-19.37-29.21-8.89-12.11-22.2-24.19-26.66-38.75-4.73-15.47-4.37-35.96-4.65-52.16-11.61 11.06-22.87 24.01-31.57 37.46 5.59 11.47 12.33 22.47 18.06 33.91 6.97 13.89 12.71 28.29 18.56 42.67-14.01 4.15-47.99 14.46-61.22 9.06l-.23-1.64c3.32-3.09 6.55-4.28 10.73-5.83l-29.14-78.72c16.46-27.85 34.81-55.32 58.91-77.15-.21-13.19 1.01-26.48 1.11-39.7-6.47 9.28-12.81 19.94-21.52 27.24-20.71-7.71-40.57-21.24-57.57-35.17-1.62.35-3.23.66-4.87.87-4.58.59-8.98.37-12.65-2.77-2.97-2.56-6.33-10.5-5.86-14.41.26-2.22.88-3.95 2.86-5.16 5.35-3.27 17.61.22 23.44 1.18 2.67 3.59 4.75 7.77 6.98 11.65 13.18 6.37 26.97 11.81 40.32 17.87 3.15-8.15 6.06-16.28 8.17-24.77 3.5-14.09 4.09-29.23 12.86-41.26-4.12 1.46-8.17 2.41-12.45 3.27-2.75-4.6-4.65-8.3-9.37-11.11-2.67-1.59-4.96-2.78-6.38-5.67-.26-4.25 2.01-8.41 3.86-12.15"/><path fill="#23142e" d="M1438.58 1156.15c-10.03 6.09-23.32 11.63-34.53 15.09-1.46-2.01-3.1-3.43-4.93-5.09 13.14-3.67 26-7.66 39.46-10m9.8 57.73c8.35-7.13 16.59-14.82 26.17-20.27-3.18 3.19-7.13 6.45-9.16 10.5 1.54-.22 2.86-.5 4.36-.9-3.72 5.87-14.49 12.06-20.08 16.81-.59-2-.9-4.09-1.29-6.14"/><path fill="#251840" d="M1694.83 1446.36c81.49 17.95 164.66 28.75 246.64 44.29-10.25 50.54-15.78 102.58-23.37 153.6l-46.02 325.21c-8.06-1.3-16.16-2.44-24.27-3.42-14-2.36-28.37-3.61-42.46-5.47-25.06-3.37-50.09-6.91-75.1-10.63-44.35-6.59-89.41-15.49-134.05-19.28 5.45-21.45 8.67-44.06 12.77-65.85l25.31-136.13c17.99-94.68 39.3-188.35 60.55-282.32"/><path fill="#fdcf55" d="M1741.78 1717.99c54.7-7.02 104.81 31.41 112.2 86.06 7.39 54.64-30.72 105.01-85.31 112.76-55.11 7.82-106.05-30.72-113.51-85.88s31.42-105.84 86.62-112.94"/><path fill="#251840" d="M1740.44 1727.35c50.09-7.88 97.02 26.53 104.57 76.67s-27.16 96.85-77.35 104.07c-49.72 7.16-95.9-27.17-103.39-76.85-7.48-49.67 26.54-96.08 76.17-103.89"/><path fill="#fdcf55" d="M1746.54 1750.51c37.24-4.4 71.01 22.21 75.43 59.45 4.43 37.24-22.16 71.02-59.4 75.47-37.27 4.45-71.08-22.17-75.51-59.44s22.2-71.07 59.48-75.48"/><path fill="#251840" d="M1748.4 1759.47c32.26-3.38 61.15 20.03 64.52 52.28 3.37 32.26-20.04 61.14-52.3 64.51-32.25 3.36-61.11-20.05-64.49-52.29-3.37-32.24 20.03-61.12 52.27-64.5"/><path fill="#fdcf55" d="M1747.81 1790.84c9.19-2.28 18.9.57 25.4 7.46s8.79 16.75 5.98 25.8a26.23 26.23 0 0 1-19.54 17.87c-14.01 3.02-27.85-5.77-31.09-19.73-3.23-13.97 5.34-27.94 19.25-31.4m34.08-270.01c45.6-4.97 86.52 28.16 91.15 73.8 4.64 45.64-28.79 86.31-74.46 90.61-45.2 4.26-85.37-28.75-89.96-73.92-4.58-45.17 28.13-85.58 73.27-90.49"/><path fill="#251840" d="M1781.89 1530.14c40.56-4.84 77.31 24.24 81.94 64.83 4.62 40.58-24.65 77.18-65.26 81.59-40.31 4.37-76.58-24.64-81.16-64.92-4.59-40.28 24.22-76.7 64.48-81.5"/><path fill="#fdcf55" d="M1781.5 1548.54c30.14-4.82 58.46 15.76 63.18 45.91 4.73 30.15-15.93 58.41-46.1 63.05-30.04 4.61-58.15-15.95-62.85-45.97-4.71-30.03 15.76-58.2 45.77-62.99"/><path fill="#251840" d="M1783.81 1557.05c25.38-3.16 48.53 14.8 51.77 40.17 3.25 25.37-14.65 48.58-40 51.9-25.48 3.34-48.82-14.65-52.07-40.13-3.26-25.49 14.8-48.77 40.3-51.94"/><path fill="#fdcf55" d="M1782.09 1581.05c4.55-.24 9.06-.36 13.35 1.43 6.34 2.64 11.76 8.11 14.02 14.63 1.57 4.53 1.5 9.45-.62 13.78-2.88 5.89-8.13 8.96-14.05 11.16-3.75.29-7.28.31-10.94-.7-6.37-1.76-12.21-6.09-15.19-12.06a18.93 18.93 0 0 1-.91-15c2.54-6.81 7.9-10.53 14.34-13.24"/><path fill="#251840" d="m349.89 1451.38 2.091.23c4.029 9.87 5.394 21.96 7.703 32.4l17.604 83.37 52.417 252.99c7.42 36.52 13.362 73.65 21.749 109.92-40.014 7.13-80.286 11.98-120.521 17.63-42.174 5.93-84.19 12.49-126.498 17.47a761 761 0 0 1-28.192 2.93L104.85 1501.2c-.492-3.29-1.557-8.01-.413-11.13 10.554-6.31 215.142-33.86 245.453-38.69"/><path fill="#fdcf55" d="M278.059 1715.84c56.433-7.17 107.928 32.94 114.773 89.42 6.844 56.47-33.575 107.73-90.089 114.24-56.046 6.46-106.788-33.55-113.576-89.56-6.788-56 32.926-106.98 88.892-114.1"/><path fill="#251840" d="M283.202 1724.42c51.56-4.28 96.822 34.06 101.094 85.62 4.273 51.56-34.062 96.82-85.622 101.09-51.56 4.28-96.82-34.06-101.093-85.62-4.272-51.56 34.061-96.82 85.621-101.09"/><path fill="#fdcf55" d="M281.541 1749.25c37.909-4.91 72.586 21.94 77.32 59.87s-22.28 72.48-60.234 77.03c-37.699 4.52-71.964-22.27-76.667-59.95-4.702-37.67 21.927-72.07 59.581-76.95"/><path fill="#251840" d="M280.066 1758.31c32.663-5.75 63.795 16.09 69.512 48.76s-16.149 63.78-48.822 69.47c-32.631 5.68-63.694-16.15-69.403-48.78s16.093-63.71 48.713-69.45"/><path fill="#fdcf55" d="M286.51 1792.09c6.643-.35 12.697-.21 18.649 3.15a25 25 0 0 1 12.063 15.95 24.87 24.87 0 0 1-3.089 19.41c-4.387 6.93-11.008 10.31-18.719 12.28-4.983.23-9.808-.19-14.432-2.19-6.894-2.97-12.522-8.54-15.005-15.69-2.066-5.95-1.61-12.23 1.162-17.87 3.945-8.02 11.164-12.36 19.371-15.04m-39.783-270.94c44.953-4.42 84.967 28.46 89.344 73.42 4.376 44.95-28.546 84.94-73.507 89.27-44.899 4.33-84.814-28.54-89.185-73.44-4.37-44.89 28.458-84.84 73.348-89.25"/><path fill="#251840" d="M249.22 1530.11c39.975-2.99 74.835 26.92 77.951 66.89s-26.688 74.92-66.644 78.16c-40.134 3.26-75.279-26.71-78.408-66.85-3.13-40.15 26.947-75.2 67.101-78.2"/><path fill="#fdcf55" d="M246.173 1550.15c29.085-4.43 56.273 15.51 60.783 44.58s-15.36 56.31-44.422 60.9c-29.166 4.6-56.524-15.36-61.05-44.54s15.5-56.48 44.689-60.94"/><path fill="#251840" d="M249.04 1559.25c23.89-2.79 45.599 14.11 48.749 37.95 3.151 23.85-13.425 45.81-37.221 49.31a43.99 43.99 0 0 1-41.185-16.56 44.02 44.02 0 0 1-5.814-44.01 44.03 44.03 0 0 1 35.471-26.69"/><path fill="#fdcf55" d="M250.58 1584.16c10.216-2.03 20.165 4.53 22.323 14.72s-4.277 20.22-14.439 22.51a19.03 19.03 0 0 1-18.268-5.79 19.01 19.01 0 0 1-3.971-18.74 19.04 19.04 0 0 1 14.355-12.7"/><path fill="#251840" d="m469.006 1192.97.728.89c-4.82 9.17-14.678 15.49-19.737 24.82 1.255 2.45 3.632-.45 6.061.72-14.513 11.7-23.489 21.48-32.3 38.05 6.45-3.01 12.761-5.68 19.544-7.85-18.279 14.65-29.87 29.75-39.188 51.24 8.492-5.65 17.046-11.2 25.661-16.66-15.653 19.47-26.434 32.73-32.97 57.3 6.427-6.08 13.02-11.39 20.117-16.69-11.06 16.79-17.873 29.04-20.013 49.37 5.283-7.18 10.613-12.79 17.568-18.38-10.37 18.91-11.648 33.34-10.18 54.53 2.723-5.72 5.197-11.58 7.763-17.37 1.948 20.73 2.212 34.97 18.141 50.69-1.132-6.62-2.88-13.2-4.415-19.74 7.639 12.2 12.191 19.72 25.646 25.95-.695-16.34-6.014-28.78-12.325-43.68a93.8 93.8 0 0 0 16.143 16.92c-2.541-14.83-7.13-29.75-10.718-44.39 4.334 8.23 8.576 16.45 13.681 24.23-.818-19.68-4.354-39.5-8.016-58.83 4.595 7.65 8.598 15.52 12.597 23.49 1.24-19.41-1.108-38.29-2.126-57.63 2.985 9.08 6.484 17.67 10.918 26.14 1.942-18.39.017-36.93 1.007-55.4 1.283 6.26 2.134 13.58 6.034 18.78l1.477.03c4.984-7.95 5.078-36.83 6.74-48.01 1.774 4 2.961 8.29 4.284 12.46 4.756-18.52 11.911-36.35 16.008-54.93 1.651 94.54-14.795 187.21-32.842 279.6a6012 6012 0 0 1-28.266 135.35c-7.293 34.44-14.35 73.75-24.932 107.17-5.171-30.91-12.272-61.65-18.685-92.32a20492 20492 0 0 1-49.415-232.09c-13.694.68-27.807 3.98-41.402 6.01-16.494 2.45-33.131 3.93-49.563 6.78 14.1-17.54 17.002-30.11 24.727-50.72-.539 10.48-.721 20.86.695 31.28 12.086-17.91 17.011-38.4 21.372-59.18 1.493 11 1.334 22.05 1.28 33.13 12.59-22.17 17.753-45.31 25.454-69.29 1.258 11.12 1.053 22.48 1.261 33.66 13.606-23.15 19.5-48.91 31.668-72.44-1.291 10.51-1.83 21.11-2.542 31.66 14.305-20.91 23.012-44.67 36.991-65.63-2.579 10.3-5.811 20.8-6.574 31.42 15.037-15.89 26.144-34.35 38.973-51.95-1.798 5.24-3.411 10.55-5.105 15.83 12.214-12.24 24.936-23.94 38.775-34.32M1701.5 1412.5c24.63 6.74 52.1 9.45 77.36 13.59l144.55 23.53c1.29 10.72 10.06 20.84 10.67 29.13h-2.29c-78.04-15.14-157.69-23.99-235.24-41.46z"/><path fill="#251840" d="m342.577 1417.38 2.238.02c3.484 5.42 4.382 17.4 6.013 24.02-26.591 5.03-53.574 8.12-80.324 12.2a9546 9546 0 0 1-149.611 22.24c-3.036.47-5.279 1.47-8.039 0-2.102-7.23 6.08-19.48 9.343-26.04 29.147-5.78 58.885-8.49 88.286-12.66z"/><path fill="#fd7fc9" d="M780.559 115.201c14.886-.086 29.775-.287 44.654.282 25.945 25.545 50.436 52.403 75.718 78.577 24.056 24.907 48.714 49.021 71.978 74.702l.076-153.085c23.154-.678 46.485-.03 69.665.094-.49 90.268 1.32 180.57.3 270.835l-44.337.463c-12.204-11.928-23.695-24.633-35.732-36.744A10335 10335 0 0 1 849.18 234.65c.332 50.593 1.068 101.295-.107 151.875q-34.314.13-68.629-.189c-1.071-29.15-.317-58.676-.332-87.859z"/><path fill="#fdcf55" d="M868.729 432.772c27.637-.686 55.452-.079 83.113-.074 20.422.004 41.612-1.107 61.948.974 9.59.983 19.24 2.885 28.33 6.139 15.77 5.639 30.54 15.769 37.52 31.519 5.81 13.114 6.06 30.131.59 43.354-6.7 16.16-19.07 23.457-34.35 29.951 4.12 1.004 8.25 2.179 12.22 3.674 13.55 5.101 25.38 16.252 31.18 29.456 6.76 15.365 5.64 31.981-.06 47.426-2.93 6.146-6.39 11.679-11.27 16.482-10.94 10.74-25.96 16.226-40.73 19.198-23.58 4.746-49.074 3.055-73.045 3.004l-95.649-.285z"/><path fill="#251840" d="m929.783 569.974 49.263-.304c9.979-.049 20.773-.801 30.624.774 5.56.887 11 2.655 15.61 5.953 4.16 2.982 7.63 7.208 8.35 12.415.96 6.921-3.19 14.799-7.36 19.982-4.09 3.281-8.07 5.378-13.26 6.414-17.752 3.547-62.543 1.116-83.131 1.202zm.154-88.905c18.609.286 71.493-4.222 84.993 5.747 4.61 3.403 7.16 8.07 7.99 13.699 1.09 7.435-1.34 12.461-5.74 18.233-3.4 2.501-6.65 4.374-10.81 5.338-15.923 3.691-57.564 1.019-76.407.99z"/><path fill="#fd7fc9" d="m1355 116.123 222.06.002.03 60.723c-50.63.511-101.31-.016-151.94.005l-.05 44.884 133.98.199.01 59.003-112.27-.005-20.76.037c.27 14.984.04 30.002.01 44.99 51.83.331 103.72-.691 155.54.34l-.17 60.579-226.5-.006zm-885.857-1.08q35.541-.144 71.08.321l.137 109.588c-.026 20.462-2.317 44.03 1.621 64.082 1.911 9.728 6.091 18.961 12.869 26.272 11.781 12.709 29.45 17.067 46.2 17.424 15.692.333 32.193-2.754 43.761-14.187 7.942-7.849 12.632-18.401 14.732-29.253 3.7-19.121 1.451-41.359 1.443-60.868l.021-112.536a4766 4766 0 0 1 70.032-.109l.002 59.723.065 63.157c.02 43.059.723 85.729-31.98 118.581-25.633 25.749-61.915 34.41-97.185 34.573-36.214.168-74.613-8.924-100.923-35.284a105.64 105.64 0 0 1-26.835-45.685c-8.212-29.539-5.272-63.052-5.25-93.478zm722.487-2.617c39.75-2.96 82.93 6.819 115.8 29.669-8.92 17.544-22.28 33.836-33.13 50.345-20.49-11.551-41.06-19.02-64.68-20.614-15.18-1.024-37.87-1.437-49.78 9.595-4.2 3.885-6.9 9.25-6.77 15.038.14 6.266 4.77 10.552 9.9 13.429 19.55 10.956 64.22 13.42 88.24 20.074 17.86 4.947 35.59 12.417 49.01 25.565 13.99 13.712 19.68 31.238 19.81 50.553.14 20.095-6.87 38.809-21.22 53.058-29.44 29.22-72.22 32.141-111.37 31.801-38.69-1.906-80.86-11.445-110.38-38.148 10.73-17.049 23.54-32.642 34.18-49.748a162.74 162.74 0 0 0 96.02 29.453c11.56-.078 27.14-1.862 35.38-10.722 3.26-3.498 6.55-8.828 6.01-13.805-2.03-18.313-46.89-22.516-60.64-25.074-11.67-2.173-23.43-4.315-34.89-7.459-17.22-4.724-34.69-11.529-48.27-23.466-13.58-11.943-20.56-27.754-21.63-45.689-1.27-21.203 3.94-41.095 18.21-57.109 23.11-25.94 56.75-34.623 90.2-36.746"/><path fill="#fdcf55" d="M76.984 57.158c52.883-.991 105.96-.09 158.86-.09l325.914.098 1091.052-.03 209.24-.012c33.92-.017 68.56-1.52 102.39-.117 3.28.136 6.12.396 9.15 1.694 3.6 13.006 1.45 46.169 1.44 61.428l-.1 125.749.18 555.839-381.72.503-139.66-.15c-19.52-.012-39.11.636-58.62.277-3.25-.059-8.17.268-10.85-1.504-.06-2.321-.34-4.309 1-6.334 15.04-2.403 32.99-.443 48.36-.461l101.88-.566 429.97-.436c1.64-61.753.38-123.884.41-185.681l-.1-371.032c.04-56.54-1.04-113.399.76-169.908l-12.29-.163L82.915 66.19l-.437 726.624 370.143-.375 154.071.221c19.627.092 39.385-.639 58.992-.018 3.165.1 6.583-.012 9.375 1.536.548 2.792.524 3.234-.442 5.909-.679.396-1.278.985-2.037 1.19-4.996 1.352-21.784.043-27.8.054l-97.873.196-473.073-.243-.264-511.854.299-148.157c-.01-25.393-1.6-51.916.296-77.216.228-3.036.91-4.556 2.819-6.899"/><path fill="#fd7fc9" d="M305.916 111.424c39.084-3.126 77.9 7.657 112.009 26.105-6.434 17.859-16.173 36.34-25.637 52.811-23.493-11.696-48.098-20.65-74.618-21.5-14.461-.464-32.408 1.209-43.206 12.007-3.939 3.94-6.096 8.648-5.962 14.258.187 7.794 4.775 13.24 11.441 16.797 9.676 5.163 21.88 6.728 32.551 8.76 33.679 6.413 74.884 11.338 100.817 35.971 12.622 11.989 19.458 27.937 19.674 45.352.259 20.993-6.967 39.782-21.654 54.808-27.539 28.175-67.545 33.228-104.998 33.884-38.847-1.417-77.959-10.043-109.51-33.859 7.845-16.686 15.821-33.361 25.032-49.344 29.855 16.189 59.099 26.56 93.387 25.704 13.364-.333 30.655-1.782 40.108-12.453 3.139-3.544 4.983-8.082 4.585-12.854-.534-6.404-4.96-10.735-10.29-13.776-19.274-10.997-64.864-14.125-89.332-21.08-14.203-4.037-28.001-10.321-39.495-19.706-14.288-11.666-22.749-26.959-24.395-45.4-1.82-20.389 3.585-42.588 17.081-58.328 22.915-26.726 58.776-35.536 92.412-38.157"/><path fill="#fdcf55" d="M1131.18 432.887c21.32-.771 42.88-.11 64.22-.096l123.75.206-.13 50.027c-42.29.691-84.59.828-126.89.412l.03 38.249c38.95-.316 77.9-.392 116.86-.227l-.08 48.526-97.06.181-19.29.064c-.18 14.624-.01 29.271 0 43.898l132.09-.061q.135 24.679-.3 49.353c-64.37.961-128.9-.088-193.28-.247z"/><path fill="#fd7fc9" d="m1599.42 115.969 244.49.125.11 60.581-84.56-.357c-.64 42.61-.17 85.312-.24 127.932l-.08 82.64-74.18-.208.02-210.626c-28.45.587-56.9.805-85.36.653z"/><path fill="#fdcf55" d="M1445.73 429.44c29.51-2.348 72.01 5.935 95.56 24.86-10.13 13.946-18.39 29.076-28.44 43.046-16.22-11.624-33.34-17.585-53.3-18.818-12.49-.772-32.94-.754-42.48 8.435-3.66 3.521-5.8 9.049-5.64 14.109.17 5.518 3.54 9.639 8.05 12.478 14.95 9.402 50 11.524 68.75 16.565 16.69 4.485 34.43 11.118 46.88 23.581 11.15 11.16 16.33 25.195 16.2 40.9-.15 18.005-5.62 34.22-18.71 47.011-25.46 24.878-65.54 26.058-98.85 25.395-33.47-.994-63.74-12.139-89.42-33.478 10.13-12.922 19.79-26.246 29.61-39.404 20.66 17.894 51.03 26.324 78.02 25.875 10.85-.18 26.31-1.604 34.06-9.939 3.03-3.256 5.26-7.574 4.97-12.124-1.27-19.687-32.33-22.575-47.16-25.354-10.59-1.984-21.28-3.819-31.73-6.463-14.19-3.592-28.91-8.879-40.3-18.357-11.71-9.739-18.32-22.52-19.59-37.714-1.53-18.394 3.94-35.424 15.98-49.452 19.16-22.313 49.56-28.831 77.54-31.152m-773.17 3.301q30.789-.194 61.575.27a1579 1579 0 0 1-24.349 54.609l-81.359 175.893-51.864-.479c-22.217-44.401-41.866-90.783-62.119-136.14-13.947-31.237-29.338-62.228-42.085-93.948 20.73-.266 41.488-.121 62.221-.172 25.342 50.394 44.734 103.856 69.275 154.612 8.389-21.409 18.627-42.413 28.041-63.409zm1091.83 85.01c42.44-4.053 80.16 27.007 84.33 69.44 4.16 42.433-26.8 80.231-69.23 84.504-42.57 4.289-80.54-26.812-84.72-69.4s27.02-80.476 69.62-84.544"/><path fill="#251840" d="M1767.04 526.121c38.13-2.495 71.03 26.472 73.38 64.61s-26.75 70.923-64.89 73.126c-37.94 2.192-70.51-26.71-72.85-64.642-2.34-37.933 26.44-70.613 64.36-73.094"/><path fill="#fd7fc9" d="M1766.28 541.417c29.66-2.959 56.07 18.763 58.89 48.437s-19.02 55.984-48.71 58.669c-29.49 2.666-55.59-19.004-58.39-48.484-2.81-29.48 18.74-55.682 48.21-58.622"/><path fill="#251840" d="M1767.56 584.712c5.22-2.064 11.13.425 13.31 5.603 2.17 5.178-.2 11.142-5.33 13.423a10.33 10.33 0 0 1-10.38-1.169 10.34 10.34 0 0 1-4.04-9.63c.5-3.705 2.96-6.852 6.44-8.227"/><path fill="#fdcf55" d="M262.696 519.457c42.026-3.978 79.344 26.809 83.424 68.826s-26.615 79.408-68.621 83.592c-42.152 4.198-79.703-26.628-83.797-68.79-4.095-42.162 26.822-79.637 68.994-83.628"/><path fill="#251840" d="M263.963 527.271c37.514-3.205 70.584 24.465 74.047 61.957 3.463 37.491-23.978 70.751-61.445 74.472-37.833 3.758-71.49-24.011-74.988-61.869-3.497-37.859 24.504-71.324 62.386-74.56"/><path fill="#fd7fc9" d="M264.37 542.632c29.32-3.062 55.574 18.217 58.649 47.536 3.075 29.318-18.193 55.581-47.511 58.669-29.335 3.089-55.617-18.195-58.694-47.531-3.076-29.337 18.218-55.61 47.556-58.674"/><path fill="#251840" d="M265.445 585.508c5.271-1.971 11.142.709 13.106 5.984 1.963 5.275-.727 11.142-6.005 13.097-5.266 1.951-11.118-.732-13.077-5.995-1.959-5.264.715-11.119 5.976-13.086"/><path fill="#fd7fc9" d="M935.563 726.395c12.999-1.127 26.415 3.159 36.714 10.989 15.727 11.957 24.527 32.331 27.125 51.465 3.238 23.861.698 52.738-14.619 72.356-11.083 14.197-24.724 19.49-42.003 21.783-15.523.227-28.817-2.043-41.311-12.274-15.926-13.043-23.963-33.486-26.061-53.521-2.481-23.691 1.509-51.262 17.14-70.111 11.569-13.952 25.72-18.954 43.015-20.687"/><path fill="#251840" d="M930.023 741.188c9.556-.585 17.754.091 26.366 4.827 12.044 6.623 19.765 18.354 23.588 31.301 5.961 20.192 5.862 50.284-4.746 68.989-6.826 12.035-16.864 17.747-29.693 21.508-9.512 2.226-19.555 1.084-28.054-3.847-12.132-7.039-19.297-20.178-22.64-33.43-5.455-21.624-4.437-50.606 7.59-70.006 6.864-11.071 15.296-16.29 27.589-19.342"/><path fill="#fdcf55" d="M762.685 432.903a3112 3112 0 0 1 59.09-.033c.737 32.734.199 65.555.181 98.298l-.096 132.449-59.463-.045c-1.456-76.757-.39-153.898.288-230.669"/><path fill="#fd7fc9" d="M1187.7 727.909c29.67-.182 59.54-.414 89.19.542l-.08 14.117-74.6.307a630 630 0 0 1-3.61 44.055c2.5-.983 5.02-1.92 7.61-2.619 17.68-4.765 40.88-3.362 56.77 6.2a50.5 50.5 0 0 1 23.24 32.384c2.82 12.888.69 27.309-6.91 38.233-9.95 14.322-25.15 19.022-41.37 21.886-29.88.84-44.65-5.171-68.95-21.876 3.97-4.336 7.86-8.742 11.68-13.215 5.14 5.682 10.99 10.564 17.88 13.982 14.46 7.165 33.66 8.734 48.96 3.313 9.03-3.201 16.59-9.18 20.38-18.147 3.65-8.622 3.67-19.114-.1-27.694-4.03-9.146-12-15.455-21.23-18.863-17.52-6.47-37.05-4.142-53.74 3.448-3.71-1.227-7.39-2.541-11.08-3.813 2.62-24.039 3.19-48.233 5.96-72.24m-404.148-1.523a146 146 0 0 1 3.376-.098c14.49-.296 31.113 3.202 41.578 13.907a36.72 36.72 0 0 1 10.359 25.959c-.478 28.74-29.005 50.825-48.331 68.564a1151 1151 0 0 0-33.31 31.255c29.651.52 59.355.165 89.016.366l-.141 14.106a6683 6683 0 0 1-93.599.539c-6.358.114-13.181.749-19.39-.664-.556-.731-.941-1.13-1.227-2.089-1.1-3.692.065-6.506 2.184-9.491 5.237-7.38 13.503-13.679 20.16-19.763 17.81-16.277 50.382-43.969 61.59-64.47 4.412-8.071 6.892-16.596 3.976-25.641-2.118-6.571-6.623-11.561-12.819-14.563-10.714-5.19-24.743-4.991-35.706-.687-14.357 5.638-21.988 16.052-27.824 29.698-4.543-1.749-8.972-3.86-13.419-5.841 2.368-7.594 5.909-15.143 11.014-21.28 10.874-13.075 26.239-18.072 42.513-19.807m292.478-.02c2.48-.188 4.97-.354 7.46-.337 14.64.106 31.08 4.559 41.33 15.522a40.23 40.23 0 0 1 10.94 28.985c-.26 7.964-2.61 15.375-6.57 22.255-13.15 22.788-51.24 54.484-71.61 73.091 28.13.376 56.3.058 84.43.032l.03 14.707-83.54.165c-7.85.1-16.01.644-23.83.058-2.38-.178-3.74.228-5.35-1.594-.11-3.279.02-5.306 1.94-8.104 5-7.289 13.41-13.628 19.9-19.601 19.4-17.854 42.29-35.963 58.55-56.812 6.79-8.708 11.29-17.375 9.53-28.722-1.19-7.718-4.98-14.459-11.57-18.812-10.17-6.72-24.5-8.035-36.18-5.293-13.47 3.164-22.34 10.433-29.31 22.023-4.92-1.623-9.58-4.045-14.27-6.241 2.06-3.463 4.06-7.079 6.59-10.232 11.06-13.8 24.63-18.931 41.53-21.09m34.6 316.624 1.25.26c.08.37.46.79.26 1.12-.73 1.17-23.78 14.82-27.62 17.81-22.65 17.65-39.95 38.36-50.88 64.99-27.33-14.65-51.669-20.32-82.654-19.98-5.573.71-11.262.76-16.873 1.01l1.643-.8c29.57-14.03 58.959-13.27 89.274-2.59 20.45-34.48 48.18-50.17 85.6-61.82m25.07 298.22 13.71-.9c-27.18 12.66-49.68 25.18-70.16 47.6-11.75-15.02-25.26-24.33-41.9-33.42-7.73-3.95-15.89-6.95-23.59-11.03 26.55.8 46.03 7.38 66.65 24.28 16.86-14.89 33.37-21.95 55.29-26.53m-101.42-132.9c1.77-.34 3.51-.45 5.31-.43 19.62.23 39.99 12.38 53.3 26.03 15.52-13.05 33.36-16.62 53.03-18.15l-13.26 6.52c-16.24 7.56-28.61 17.35-40.01 31.08-15.86-20.88-34.34-34.72-58.37-45.05"/></svg>