<svg preserveAspectRatio="xMidYMid meet" version="1.1" xmlns="http://www.w3.org/2000/svg" style="display: block;" viewBox="0 0 2048 2048" width="1024" height="1024">
<path transform="translate(0,0)" fill="rgb(37,24,64)" d="M 0 0 L 2048 0 L 2048 2048 L 0 2048 L 0 0 z"/>
<path transform="translate(0,0)" fill="rgb(253,207,85)" d="M 414.318 924.695 C 448.367 936.475 449.833 949.661 470.836 976.188 C 467.348 963.492 463.027 951.039 457.901 938.911 C 474.901 951.463 483.199 967.738 489.916 987.428 C 492.026 993.614 493.646 1000.15 496.388 1006.08 C 497.298 993.407 496.798 980.993 495.723 968.343 C 513.769 988.64 513.894 1016.98 514.268 1042.57 C 518.043 1030.05 522.192 1017.79 523.902 1004.79 C 523.929 1004.58 523.964 1004.38 523.996 1004.17 C 533.15 1032.08 530.663 1049.44 528.306 1077.87 L 541.674 1049.61 C 539.633 1064.2 537.271 1078.84 536.654 1093.56 C 549.439 1063.03 564.692 1038.75 592.764 1019.85 C 586.352 1033.43 581.61 1047.21 577.29 1061.57 C 594.406 1034.67 612.447 1011.19 643.641 999.995 C 634.831 1012.09 626.557 1023.51 620.402 1037.24 C 641.492 1016.21 661.582 999.168 692.016 995.21 C 683.665 1001.65 676.168 1007.84 669.489 1016.02 C 690.88 1004.95 708.062 997.592 732.641 999.582 C 723.916 1004.21 714.644 1007.79 706.042 1012.59 C 726.655 1008.68 741.601 1005.62 761.981 1012.77 C 750.179 1019.93 736.32 1023.54 723.075 1027.04 C 731.376 1028.34 739.545 1029.64 747.671 1031.83 C 729.776 1039.66 714.245 1040.51 694.904 1041.68 C 702.778 1044.01 710.6 1045.62 718.756 1046.61 C 699.077 1054.85 680.454 1055.93 659.405 1055.84 C 666.531 1059.13 674.041 1060.9 681.608 1062.85 C 660.83 1070.79 640.999 1071.23 619.426 1074.7 C 625.477 1076.35 631.73 1077.8 637.643 1079.87 C 632.297 1081.48 603.35 1087.02 601.656 1088.11 C 603.872 1089.55 605.993 1090.59 608.398 1091.66 L 608.175 1092.87 C 594.317 1100.35 580.782 1100.92 565.559 1102.62 L 577.559 1106.8 C 567.344 1114.28 559.415 1120.93 552.408 1131.56 C 582.537 1116.15 616.194 1099.46 650.327 1096.43 L 652.121 1096.26 L 653.199 1096.18 C 641.784 1102.51 632.231 1109.17 622.421 1117.76 C 653.119 1102.93 668.862 1096.65 703.595 1098.13 C 692.679 1103.79 681.518 1109.25 670.915 1115.47 C 700.728 1108.47 729.107 1102.97 759.177 1112.14 C 744.129 1116.19 729.252 1120.85 714.583 1126.11 C 748.758 1122.89 777.792 1123.9 808.689 1139.91 C 794.271 1140.08 779.774 1139.9 765.482 1142.07 C 792.3 1146.12 818.024 1149.43 838.391 1169.15 C 823.53 1164.99 810.579 1163.63 795.194 1164.54 C 819.262 1171.04 837.557 1176.85 852.403 1198.24 C 839.79 1196.39 827.634 1194.23 815.436 1190.39 L 820.263 1202.15 C 802.911 1196.29 788.134 1186.07 772.95 1176.09 C 781.788 1185.14 791.181 1193.57 800.155 1202.47 C 770.614 1197.2 754.071 1185.43 730.668 1167.62 C 736.502 1177.04 743.916 1184.94 751.432 1193.03 C 723.459 1184.23 709.317 1174.65 685.744 1157.71 C 690.683 1164.84 695.517 1171.8 701.345 1178.25 C 681.76 1171.91 665.502 1164.14 648.054 1153.25 C 652.34 1157.94 656.467 1162.58 660.194 1167.73 C 641.989 1162.64 623.754 1156.81 605.089 1153.64 C 622.653 1161.19 639.452 1169.17 656.144 1178.5 C 649.613 1179.3 643.091 1180.17 636.579 1181.11 C 673.005 1185.46 691.957 1193.29 722.969 1213.35 C 707.981 1212.15 693.357 1211.23 678.349 1212.93 C 704.599 1219.38 726.884 1227.77 749.082 1243.64 C 735.751 1241.89 722.255 1240.05 708.8 1239.75 C 734.762 1248.42 758.216 1261.89 775.055 1284.03 C 758.608 1277.49 742.954 1273.51 725.159 1274.08 C 751.389 1281.1 769.999 1294.04 788.096 1314.21 C 777.016 1311.15 765.949 1307.86 754.742 1305.3 C 777.347 1320.17 790.963 1336.2 800.053 1361.93 C 790.21 1352.81 780.771 1346.81 768.496 1341.5 C 782.929 1354.81 792.682 1371.5 800.575 1389.28 C 793.438 1383.26 786.578 1378.73 778.048 1374.91 C 792.361 1392.25 797.33 1405.02 796.98 1427.51 C 790.579 1417.46 783.902 1407.48 775.624 1398.87 C 781.552 1412.98 788.509 1430.74 782.465 1446.05 C 781.426 1448.68 780.001 1451 777.317 1452.2 C 775.924 1452.82 774.268 1452.68 772.856 1452.12 C 766.407 1449.54 763.079 1438.94 761.518 1432.78 C 758.763 1421.93 758.88 1410.79 759.027 1399.67 C 755.866 1409.44 754.108 1419.33 749.662 1428.66 C 742.049 1406.77 739.886 1386.55 739.874 1363.57 C 736.136 1372.45 733.903 1381.76 730.696 1390.8 C 720.628 1367.85 717.92 1346.99 716.912 1322.25 C 713.943 1331.82 712.281 1341.63 709.798 1351.31 C 699.494 1328.79 692.524 1304.13 688.433 1279.69 C 687.891 1291.82 688.339 1303.79 689.251 1315.89 C 673.919 1294.06 664.224 1272.24 655.357 1247.28 C 654.965 1256.05 655.033 1264.68 655.359 1273.45 C 642.784 1258.44 635.282 1242.75 628.209 1224.66 L 629.07 1245.95 C 615.545 1229.77 604.587 1210.71 589.686 1195.91 C 592.6 1202.26 595.982 1208.16 599.595 1214.14 C 591.345 1210.1 583.168 1207.65 574.229 1205.65 C 587.985 1216.12 598.936 1225.31 608.664 1239.79 L 594.665 1237.05 L 595.316 1237.62 C 599.223 1240.93 603.671 1243.42 607.582 1246.7 C 619.728 1256.9 630.813 1271.13 637.949 1285.29 C 630.547 1280.01 623.614 1276.73 614.985 1273.94 C 635.734 1296.13 648.895 1318.79 651.65 1349.52 C 644.612 1339.53 637.671 1329.91 628.762 1321.45 C 644.078 1350.31 645.001 1366.2 645.959 1398.24 C 643.609 1393.15 634.078 1370.17 630.104 1368.69 C 629.51 1390.34 639.228 1399.24 630.518 1423.76 L 625.16 1402.45 C 623.137 1422.45 621.35 1441.93 611.057 1459.71 C 609.92 1450.41 609.949 1441.09 609.852 1431.74 C 605.89 1442.49 598.044 1463.94 586.897 1469.11 C 585.324 1468.99 584.518 1469.3 583.324 1468.09 C 578.453 1463.17 578.99 1450.5 579.484 1443.89 C 580.524 1429.95 586.876 1417.72 592.999 1405.43 C 585.501 1411.79 578.291 1418.77 569.457 1423.2 C 568.982 1423.44 568.517 1423.69 568.044 1423.94 L 567.19 1424.37 C 574.012 1407.83 580.536 1391.57 589.558 1376.07 C 581.437 1381.79 573.475 1387.6 564.698 1392.29 C 569.858 1373.77 578.382 1357.33 586.493 1340.03 C 579.358 1346.43 572.332 1353.06 564.889 1359.1 C 568.065 1339.33 575.124 1316.72 582.932 1298.2 C 577.183 1306.76 571.118 1315.49 563.691 1322.7 C 564.245 1301.1 569.354 1280.36 571.049 1258.94 C 567.685 1268.52 564.148 1278.09 558.994 1286.88 C 556.87 1269.7 555.304 1250.88 556.463 1233.62 C 557.022 1225.3 558.65 1217.08 559.406 1208.77 L 555.138 1225.39 C 547.684 1202.73 539.879 1180.26 524.469 1161.59 C 532.298 1218.55 538.206 1271.76 536.918 1329.5 C 535.635 1387.01 527.314 1445.06 521.327 1502.27 C 517.569 1538.9 513.204 1575.46 508.231 1611.94 C 505.708 1630.98 503.582 1650.36 500.09 1669.24 C 587.377 1635.51 677.788 1607.81 769.99 1591.15 C 1021.52 1545.7 1316.46 1574.67 1552.85 1672.97 C 1537.58 1581.88 1525.34 1490.3 1516.15 1398.39 C 1512.19 1357.83 1506.54 1315.87 1508.33 1275.12 C 1509.29 1256.7 1511.78 1238.4 1515.76 1220.39 C 1519.33 1204.35 1524.32 1187.59 1525.63 1171.22 L 1524.18 1170.74 C 1509.38 1177.52 1505.22 1194.91 1499.8 1208.88 L 1499.77 1206.89 C 1496.37 1214.66 1495.43 1221.86 1494.56 1230.24 L 1488.96 1214.2 C 1488.66 1228.63 1490.23 1242.96 1488.89 1257.39 L 1480.84 1244.74 C 1483.79 1259.04 1484.94 1272.8 1483.86 1287.36 C 1479.31 1281.15 1475.67 1274.16 1471.83 1267.48 C 1475.83 1285.06 1478.87 1302.41 1479.26 1320.47 C 1474.52 1313.56 1469.05 1307.52 1463.02 1301.73 C 1470.36 1319.32 1474.84 1337.97 1476.3 1356.98 C 1470.4 1351.05 1464.98 1344.69 1459.51 1338.37 C 1465.64 1358.17 1470.72 1377.57 1473.54 1398.13 C 1465.61 1388.8 1458.68 1378.52 1450.94 1368.99 C 1461.1 1391.52 1467.92 1412.46 1469.87 1437.17 C 1464.19 1429.47 1458.42 1421.83 1452.57 1414.26 C 1458.85 1428.32 1468.03 1451.25 1465.71 1466.73 C 1465.26 1469.73 1464.3 1471.24 1461.84 1472.92 C 1458.93 1472.92 1457.14 1472.12 1454.96 1470.27 C 1441.32 1458.68 1436.45 1438.63 1435.16 1421.75 C 1433.24 1434.34 1432.94 1446.74 1432.66 1459.45 C 1417.7 1436.44 1418.76 1422.75 1421.41 1396.35 C 1416.06 1405.74 1411.63 1415.45 1405.94 1424.7 C 1405.4 1397.68 1410.25 1375.94 1420.42 1351.19 C 1411.67 1360.78 1404.23 1371.54 1395.52 1381.21 C 1397.92 1354.97 1408.66 1332.55 1422.19 1310.33 C 1412.14 1318.45 1402.95 1328.1 1393.47 1336.91 C 1400.3 1309.25 1417.93 1288.58 1435.69 1267.29 C 1424.03 1275.85 1412.46 1284.55 1400.99 1293.38 C 1415.27 1266.23 1429.08 1248.97 1453.17 1230.05 C 1446.63 1232.48 1440.38 1235.33 1434.07 1238.33 C 1438.44 1231.04 1443.45 1225.7 1449.67 1220.02 C 1449.08 1218.02 1448.77 1215.93 1448.38 1213.88 L 1447.23 1211.35 C 1436.19 1213.42 1426.48 1233.49 1417.02 1238.02 C 1416.3 1236.64 1416.38 1236.32 1414.97 1235.53 C 1407.07 1244.69 1400.78 1256.69 1393.73 1266.7 C 1393.77 1261.07 1393.66 1255.44 1393.62 1249.81 C 1385.31 1268.31 1376.21 1285.25 1365.89 1302.69 C 1366.26 1294.39 1366.43 1286.09 1366.42 1277.79 C 1358.05 1297.07 1353.73 1317.86 1345.43 1337.3 C 1345.14 1329.02 1345.62 1320.55 1343.5 1312.49 C 1340.23 1318.18 1338.1 1339.19 1336.06 1347.83 C 1333.93 1356.88 1331.42 1365.83 1328.55 1374.67 C 1327.45 1363.5 1326.34 1351.77 1323.6 1340.88 C 1319.06 1368.38 1313.83 1395.71 1302.64 1421.4 C 1301.54 1410.63 1301.01 1399.81 1300.34 1389.01 C 1298.16 1396.02 1278.44 1450.42 1275.54 1454.63 C 1273.76 1454.94 1273.86 1455.33 1272.62 1454.52 C 1267.07 1450.87 1263.8 1440.66 1262.67 1434.5 C 1259.24 1415.77 1267.71 1399.97 1278.23 1385.34 C 1264.91 1394.77 1257.48 1406.33 1248.74 1419.75 C 1253.44 1390.4 1262.83 1365.59 1283.36 1343.73 C 1270.96 1349.06 1260.96 1356.79 1251.08 1365.86 C 1261.39 1339.29 1272.17 1326.23 1293.24 1307.6 C 1282.79 1310.14 1273.39 1313.23 1263.74 1318.03 C 1278.37 1297.29 1299.99 1285.52 1321.33 1272.79 C 1307.86 1276.14 1294.52 1280.15 1281.16 1283.95 C 1294.3 1264.88 1311.69 1256.74 1331.73 1246.26 C 1321.95 1248.15 1312.17 1250.09 1302.41 1252.09 C 1321.2 1234.96 1345.46 1225.77 1368.64 1216.36 C 1355.29 1217.62 1341.91 1219.87 1328.63 1221.74 C 1345.77 1207.95 1362.07 1200.53 1383.17 1194.93 C 1374.48 1194.94 1366.19 1194.67 1357.56 1193.58 C 1372.56 1186.07 1387.22 1180.39 1403.2 1175.33 L 1403.27 1174.4 L 1398.26 1173.63 C 1399.48 1172.12 1402.19 1171.81 1404.05 1171.24 C 1402.59 1169.23 1400.95 1167.81 1399.12 1166.15 C 1402.08 1161.78 1407.89 1158.22 1412.05 1154.94 C 1397.74 1161.1 1383.53 1168.69 1368.77 1173.54 L 1367.01 1174.13 L 1365.95 1174.47 C 1370.65 1167.56 1375.47 1161.04 1381.23 1154.98 C 1358.65 1165.21 1341.18 1184.22 1317.89 1193.66 C 1324.21 1183.96 1330.63 1174.32 1337.15 1164.75 C 1320.9 1179.77 1302.87 1190.94 1282.54 1199.63 C 1289.53 1190.52 1296.62 1181.58 1301.99 1171.38 C 1285.46 1187.1 1270.55 1196.44 1248.86 1203.6 L 1258.87 1187.26 C 1244.47 1195.45 1230.39 1199.57 1213.72 1200.34 C 1219.29 1186.24 1224.08 1179.79 1238.37 1173.65 C 1244.88 1170.86 1250.15 1169.43 1257.19 1168.78 L 1257.87 1168.06 C 1247.49 1164.2 1233.91 1167.59 1223.47 1170.2 C 1240.75 1152.12 1262.9 1144.52 1287.5 1142.01 C 1272.99 1138.73 1261.02 1139.96 1246.62 1143.15 C 1265.64 1127.46 1290.11 1119.96 1314.66 1122.3 C 1318.34 1122.64 1322.01 1123.09 1325.67 1123.64 C 1315.26 1118.03 1304.56 1113.93 1293.4 1110.13 C 1320.95 1102.94 1344.47 1103.57 1372.16 1110.53 C 1362.55 1104.51 1352.2 1100 1341.87 1095.36 C 1365.43 1093.28 1382.24 1094.27 1404.76 1102.52 L 1393.97 1093.71 C 1428.67 1100.67 1461.92 1112.34 1492.02 1131.17 C 1468.85 1104.97 1458.15 1099.35 1426.74 1086.65 C 1431.98 1084.46 1437.26 1082.33 1442.45 1080.04 C 1426.65 1079.9 1411.67 1079.76 1396.37 1075.22 C 1403.45 1073.1 1409.49 1070.76 1415.78 1066.77 C 1390.55 1069.43 1370 1072.89 1346.37 1061.52 C 1357.04 1059.64 1367.63 1057.63 1377.97 1054.31 C 1353.41 1054.17 1332.63 1053.48 1310.88 1040.49 C 1323.6 1038.03 1336.52 1036.65 1349.2 1034.05 C 1326.46 1031.99 1308.36 1031 1290.54 1015.16 L 1301.98 1007.37 C 1317.11 1007.08 1329.17 1011.26 1343.33 1016.2 C 1333.78 1008.1 1324.67 1002.75 1313.2 997.808 C 1329.87 992.704 1344.83 999.353 1359.53 1007.2 C 1365.19 1010.23 1370.36 1013.76 1375.59 1017.46 C 1368.51 1007.4 1360.49 998.861 1351.61 990.379 C 1384.38 993.125 1396.2 1006.65 1420.43 1026.57 C 1414.79 1016.93 1408.8 1007.34 1403.58 997.478 C 1434.09 1007.32 1449.68 1026.57 1467.78 1051.34 C 1463.77 1040.84 1459.31 1030.33 1456.87 1019.33 C 1484.97 1037.74 1496.93 1068.48 1512.73 1096.61 C 1513 1082.87 1513.05 1069.25 1512.19 1055.53 L 1523.65 1072.31 C 1516.69 1045.08 1513.77 1029.86 1522.98 1002.6 C 1525.06 1014.95 1526.73 1026.65 1531.69 1038.26 C 1532.57 1011.34 1531.84 987.173 1551.15 966.233 C 1550.94 978.698 1551.16 990.497 1553.31 1002.83 C 1558.42 979.265 1563.22 958.023 1584.8 944.159 C 1586.42 943.117 1588.07 942.103 1589.73 941.117 C 1586.7 950.235 1584.64 959.23 1583.23 968.731 C 1595.08 949.725 1601.7 936.462 1624.73 929.496 C 1618.82 935.699 1613.66 941.705 1609.66 949.343 C 1617.81 943.842 1636.22 930.366 1646.66 932.058 C 1648.2 932.308 1648.17 932.959 1648.94 934.147 C 1648.3 942.156 1640.43 949.67 1634.58 954.695 C 1626.91 961.271 1618.23 966.342 1609.61 971.533 C 1622.25 967.44 1634.31 963.041 1646.26 957.169 C 1631.13 979.24 1613.96 991.051 1590.56 1002.97 C 1601.43 1000.81 1611.53 996.217 1622.21 993.433 C 1610.51 1008.49 1600.15 1022.63 1585.06 1034.45 L 1600.31 1030.7 C 1591.04 1040.79 1581.23 1048.25 1569.96 1055.9 C 1574.31 1054.66 1578.91 1052.77 1583.45 1053.53 L 1584.55 1054.9 C 1583.31 1060.65 1575.24 1067.81 1571.27 1072.15 L 1571.73 1072.81 C 1579.59 1066.79 1586.67 1059.2 1593.69 1052.22 C 1617.48 1028.56 1640.1 1003.97 1671.37 990.111 C 1663.75 1000.7 1657.23 1010.79 1652.02 1022.78 C 1678.13 997.28 1698.1 975.361 1735.82 969.572 C 1727.16 977.169 1720.51 983.658 1714.43 993.446 C 1741.78 976.987 1762.38 967.412 1794.83 968.169 C 1784.04 972.121 1774.99 977.742 1765.5 984.139 C 1779.26 979.448 1813.39 969.979 1827.6 974.54 L 1827.69 975.93 C 1823.78 978.877 1818.96 980.187 1814.39 981.809 C 1827.9 982.3 1839.17 983.345 1851.79 988.387 C 1830.61 1001.73 1810.83 1002.69 1786.94 1006.83 C 1798.44 1009.2 1810.01 1012.26 1821.61 1013.98 C 1789.38 1026.57 1771.11 1025.45 1738.49 1029.2 C 1751.75 1032.12 1765.4 1033.07 1778.52 1036.48 C 1750.11 1047.06 1726.21 1046.19 1696.47 1043.03 C 1707.1 1048.98 1717.09 1052.36 1728.94 1054.96 C 1706.44 1060.77 1686.75 1059.04 1663.91 1058.69 C 1671.09 1061.82 1678.33 1064.34 1685.79 1066.74 C 1676.78 1069.79 1667.9 1071.87 1658.49 1073.28 C 1650.35 1074.5 1641.31 1074.96 1633.55 1077.76 C 1635.1 1079.38 1639.31 1079.91 1639.27 1081.71 C 1632.1 1085.12 1623.78 1086.65 1616.15 1088.87 C 1596.38 1094.62 1578.92 1105.34 1565.27 1120.73 C 1604.29 1104.94 1645.19 1093.28 1687.5 1092.44 C 1676.62 1098.63 1665.88 1104.79 1655.64 1112 C 1686.87 1103.63 1714.78 1096.1 1747.03 1104.83 C 1732.93 1108.5 1719.49 1113.04 1705.92 1118.38 C 1737.83 1115.44 1770.55 1112.8 1798.85 1131 C 1785.26 1131.44 1772.04 1132.93 1758.63 1135.11 C 1786.19 1139.23 1808.66 1143.99 1829.63 1163.43 C 1815.86 1159.9 1801.36 1155.14 1787.13 1154.2 C 1809.62 1163.23 1826.93 1169.41 1842.11 1189.16 C 1816.66 1194.07 1798.71 1180.57 1775.89 1172.28 C 1786.3 1181.93 1799.4 1188.34 1810.43 1197.39 C 1781.8 1194.38 1764.05 1185.63 1741.45 1168.07 C 1747.99 1180.14 1756.42 1187.8 1766.86 1196.52 C 1740.67 1189.84 1722.31 1177.41 1701 1161.27 C 1705.83 1169.4 1710.45 1177.39 1714.32 1186.03 C 1692.47 1177.82 1681.79 1165 1663.87 1151.31 C 1668.13 1158.85 1672.71 1166.04 1677.57 1173.21 C 1661.37 1166.67 1645.87 1159.78 1630.52 1151.41 L 1643.34 1162.06 C 1629.12 1158.65 1610.78 1151.81 1596.4 1152.49 L 1597.16 1152.18 L 1597.68 1153.42 C 1607.33 1156.43 1616.97 1159.27 1626.25 1163.28 C 1621.16 1162.89 1614.55 1161.57 1609.63 1162.91 L 1609.88 1163.64 C 1615.32 1165.11 1620.86 1165.65 1626.34 1166.89 C 1639.24 1169.68 1651.86 1173.64 1664.04 1178.73 C 1655.88 1179.71 1647.88 1180.75 1639.87 1182.57 C 1666.15 1183.95 1680.15 1183.77 1703.04 1198.76 C 1693.18 1198.26 1684 1199.15 1674.32 1200.95 C 1689.79 1204.4 1702.09 1208.11 1715.45 1216.89 C 1706.41 1218.55 1697.88 1220.89 1689.11 1223.56 C 1715.8 1224.66 1732.62 1231.5 1752.52 1249.51 C 1740.83 1248.07 1727.04 1244.94 1715.43 1247.37 C 1719.29 1249.96 1726.2 1250.48 1730.76 1251.9 C 1750.95 1258.19 1766.63 1268.64 1780.39 1284.73 C 1768.13 1281.72 1755.24 1278.45 1742.65 1277.38 C 1767.86 1291.41 1791.37 1303.96 1800.61 1333.26 C 1788.2 1323.83 1775.28 1315.81 1761.76 1308.08 C 1780.62 1326.88 1799.11 1342.37 1804.09 1369.83 C 1796.14 1362.28 1788.54 1354.53 1779.24 1348.6 C 1792.08 1365.55 1799.17 1380.06 1796.2 1401.86 C 1795.54 1406.68 1794.77 1411.36 1790.69 1414.42 C 1787.96 1414.8 1786.66 1414.83 1784.28 1413.26 C 1774.74 1406.95 1765.9 1380.88 1762.19 1370.13 C 1761.9 1381.95 1760.91 1392.33 1757.81 1403.74 C 1746.67 1383.99 1741.5 1360.79 1741.03 1338.24 C 1736.91 1346.8 1735.42 1356.76 1733.23 1365.98 C 1726.08 1344.46 1720.09 1322.52 1712.66 1301.11 C 1712.16 1313.01 1712.32 1324.88 1711.99 1336.78 C 1700.3 1316.73 1693.82 1294.34 1682.71 1274.01 C 1683.51 1284.35 1684.17 1294.5 1684 1304.88 C 1677.03 1292.28 1670.08 1279.59 1664.3 1266.39 C 1659.76 1256.01 1656.32 1244.91 1650.98 1234.92 L 1650.97 1260.85 C 1640.46 1248.84 1635.64 1234.4 1626.62 1221.5 L 1627.92 1235.47 L 1626.57 1234.06 C 1618.62 1225.68 1612.73 1214.84 1604.54 1207.03 C 1604.04 1209.36 1604.17 1211.18 1604.3 1213.52 L 1603.15 1213.54 C 1595.99 1205.94 1588.5 1199.11 1580.01 1193.02 C 1585.75 1199.83 1591.7 1206.53 1597.08 1213.62 C 1592.2 1210.98 1587.36 1208.21 1582.38 1205.79 C 1593.2 1213.63 1601.67 1220.08 1608.56 1231.89 C 1601.84 1227.77 1595.61 1224.73 1588.06 1222.34 C 1604.51 1235.31 1621.88 1247.69 1632.8 1266.03 C 1623.47 1262.23 1614.18 1258.26 1604.63 1255.05 C 1625.92 1271.26 1639.8 1288 1648.27 1313.58 L 1619.95 1291.85 C 1633.12 1312.36 1645.53 1331.34 1652.46 1355.04 C 1648.32 1351.38 1626.23 1329.86 1622.46 1329.81 C 1625.77 1335.42 1629.93 1340.36 1633.61 1345.72 C 1644.38 1361.35 1648.92 1377.85 1649.17 1396.68 C 1641.7 1387.47 1635.53 1377.11 1627.79 1368.2 C 1636.2 1388.19 1640.98 1406.22 1636.52 1427.81 C 1634.27 1422.37 1632.07 1413.58 1628.29 1409.3 C 1626.33 1412.73 1626.94 1417.95 1626 1421.9 C 1621.97 1439 1607.73 1446.5 1592.62 1452.07 C 1596.33 1436.6 1599.74 1421.23 1602.01 1405.47 C 1597.25 1411.7 1592.57 1418.03 1587.66 1424.14 C 1589.83 1407.35 1595.69 1391.58 1598.12 1374.98 C 1593.25 1381.19 1588.53 1387.52 1583.97 1393.97 C 1584.4 1376.23 1588.33 1359.37 1591.33 1341.95 C 1588.53 1345.82 1583.3 1355.75 1579.53 1357.61 C 1574.78 1345.41 1582.25 1324.1 1585.21 1311.57 L 1572.75 1332.16 C 1569.5 1313.84 1571.76 1299.12 1576.11 1281.15 C 1571.55 1287.34 1567.62 1293.79 1563.7 1300.4 C 1562.01 1284.55 1563.11 1269.22 1562.94 1253.39 C 1561.14 1259.28 1559.22 1265.16 1557.7 1271.13 C 1554.65 1258.05 1554.09 1246.05 1553.45 1232.73 C 1552.88 1234.71 1552.34 1236.67 1551.58 1238.59 C 1547.31 1234.66 1540.95 1203.61 1538.38 1195.73 C 1536.64 1292.38 1551.44 1377.96 1568.85 1472.2 C 1579.72 1531.01 1590.99 1589.2 1604.71 1647.45 C 1610.98 1674.08 1619.06 1700.26 1625.16 1726.92 C 1646.2 1618.44 1669.22 1510.36 1694.21 1402.72 C 1729.48 1406.23 1764.46 1414.3 1799.45 1419.91 L 1885.56 1433.34 C 1900.86 1435.6 1916.45 1437.17 1931.64 1439.93 C 1935.01 1457.81 1940.93 1471.12 1952.53 1485.2 C 1945.17 1521.36 1940.91 1558.11 1935.31 1594.56 C 1923.73 1669.65 1912.91 1744.86 1902.86 1820.17 C 1898.19 1854.91 1893.16 1889.6 1887.78 1924.24 C 1885.13 1942.04 1883.73 1960.7 1879.29 1978.12 L 167.401 1977.84 C 164.333 1945.06 158.572 1912.51 153.677 1879.96 L 136.793 1764.71 C 122.665 1673.56 109.505 1582.2 94.3815 1491.21 C 101.442 1474.39 108.335 1457.47 116.147 1440.98 L 258.183 1419.6 C 252.069 1406.24 250.011 1393.72 255.195 1379.49 C 258.963 1369.15 265.732 1360.42 272.77 1352.1 C 268.099 1354.88 252.65 1367.69 248.811 1367.19 C 247.708 1361.03 257.064 1346.56 260.686 1341.37 C 266.938 1332.43 274.645 1325.17 282.8 1318 C 271.766 1321.33 262.415 1327.42 252.685 1333.42 C 261.288 1308.28 283.705 1290.65 306.578 1278.71 C 294.811 1281.07 283.067 1283.4 271.426 1286.33 C 287.959 1262.45 308.7 1257.55 330.729 1241.66 C 320.728 1243.94 310.812 1246.15 300.659 1247.66 C 321.027 1229.25 343.844 1219.46 368.753 1208.97 C 355.898 1211.62 343.414 1214.7 330.21 1214.44 C 348.308 1201.47 368.056 1189.04 389.248 1181.83 C 393.65 1180.33 402.703 1179.84 405.991 1177.19 L 403.592 1175.66 C 419.415 1164.7 448.147 1161.4 467.038 1158.82 C 441.066 1156.08 421.031 1160.08 396.037 1167.05 C 399.727 1162.39 403.45 1157.82 407.41 1153.39 C 391.24 1162.89 376.064 1172.13 357.923 1177.38 L 372.48 1157.86 C 354.717 1167.62 339.447 1179.67 320.338 1187.14 C 325.371 1180.09 330.334 1173.26 334.255 1165.51 C 334.399 1165.22 334.551 1164.94 334.699 1164.66 C 318.157 1179.22 301.074 1190.11 280.319 1197.69 C 287.295 1189.49 294.888 1181.33 300.937 1172.44 C 284.028 1184.01 270.762 1191.5 250.679 1196.13 C 258.052 1189.12 265.933 1183.06 274.032 1176.94 C 260.084 1182.44 241.753 1194.77 226.665 1193.87 L 226.726 1192.98 C 230.876 1189.64 235.297 1186.4 239.07 1182.63 C 226.531 1186.01 215.002 1188.98 201.949 1189.59 C 215.091 1170.36 234.594 1163.77 255.782 1156.62 C 241.385 1155.62 230.033 1158.62 216.409 1163.13 C 238.14 1142.21 265.021 1138.64 294.146 1138.99 C 279.183 1133.79 263.741 1132.21 248.254 1129.43 C 278.259 1115.32 304.932 1115.26 337.247 1120.32 C 323.9 1114.32 310.407 1108.73 297.326 1102.15 C 326.001 1098.33 355.17 1101.04 382.647 1110.1 C 372.021 1102.55 358.924 1098.59 347.706 1091.82 C 390.964 1092.9 436.361 1104.34 477.08 1118.84 C 455.544 1101.23 431.897 1091.05 406.478 1080.48 C 413.533 1079.94 420.464 1079.25 427.451 1078.12 C 404.037 1074.33 382.181 1069.33 359.388 1062.76 C 368.448 1061.08 377.561 1059.54 386.473 1057.18 C 360.83 1056.98 336.509 1055.6 311.374 1049.91 C 323.167 1047.92 334.017 1045.25 344.923 1040.26 C 311.237 1041.92 300.192 1040.65 267.303 1032.86 C 279.622 1030.42 291.476 1028.05 303.044 1022.97 C 278.262 1025.42 250.558 1024.39 227.981 1012.75 C 238.947 1010.11 250.049 1007.72 260.87 1004.54 C 236.608 1003.42 217.895 998.98 196.435 987.309 C 212.736 982.597 226.107 980.964 242.978 983.143 C 235.991 980.219 229.008 977.039 221.854 974.558 C 245.787 969.961 266.779 974.023 289.781 980.602 C 280.66 974.645 271.552 968.897 262.038 963.575 C 290.76 965.08 313.917 975.402 335.142 994.952 C 328.67 983.038 320.29 973.763 310.928 964.057 C 343.47 972.317 361.944 990.294 384.871 1013.45 C 380.298 1001.85 373.928 991.692 367.227 981.239 C 394.701 995.509 414.729 1011.53 431.08 1037.93 C 429.565 1032 427.876 1026.06 426.72 1020.05 C 444.252 1033.15 457.999 1052.06 470.424 1069.94 C 467.677 1062.26 464.947 1054.6 461.839 1047.07 C 467.62 1052.06 473.048 1056.23 479.87 1059.76 C 469.653 1049.53 457.919 1039.44 450.279 1027.12 L 463.071 1031.31 C 450.668 1019.87 437.483 1008.46 426.726 995.432 C 433.904 998.026 440.975 1000.23 448.39 1002.04 C 428.297 988.915 419.664 980.084 404.825 961.204 L 426.48 969.909 C 414.58 958.655 397.801 946.117 395.803 928.777 L 396.499 926.826 C 409.24 928.461 422.783 942.676 434.156 948.794 C 427.87 940.4 420.971 932.76 414.318 924.695 z"/>
<path transform="translate(0,0)" fill="rgb(253,127,201)" d="M 500.09 1669.24 C 587.377 1635.51 677.788 1607.81 769.99 1591.15 C 1021.52 1545.7 1316.46 1574.67 1552.85 1672.97 C 1555.95 1697.24 1559.88 1722.13 1565.6 1745.91 C 1534.61 1732.87 1502.34 1724.82 1469.22 1719.28 C 1466.57 1714.81 1463.93 1710.29 1460.99 1706 C 1450.66 1690.99 1446.03 1688 1428.18 1684.63 C 1425.55 1678.83 1436.03 1668.61 1437.72 1662.23 C 1439.09 1657.04 1437.95 1652.09 1435.01 1647.66 C 1429.75 1639.74 1420.54 1633.16 1411.16 1631.39 C 1383.67 1626.18 1384.03 1651.38 1377.34 1656.14 C 1374.65 1656.47 1372.32 1656.84 1369.72 1657.65 L 1369.22 1659.34 C 1371.6 1664.05 1376.19 1667.69 1379.95 1671.33 C 1378.1 1675.07 1375.83 1679.23 1376.09 1683.48 C 1377.51 1686.37 1379.8 1687.56 1382.47 1689.15 C 1387.19 1691.96 1389.09 1695.66 1391.84 1700.26 C 1365.49 1700.29 1339.29 1698.19 1313 1696.77 C 1277.53 1694.87 1242.03 1693.65 1206.51 1693.11 C 1185.31 1692.88 1164.05 1694.54 1142.91 1695.94 C 1132.94 1696.6 1122.19 1698.17 1112.24 1697.36 C 1115.77 1691.65 1132.89 1683.11 1139.38 1678.59 C 1160.18 1664.11 1179.78 1648.69 1198.39 1631.46 C 1208.51 1629.42 1217.46 1626.54 1226.81 1622.16 C 1224.97 1620.15 1223.22 1618.2 1221.06 1616.51 L 1220.9 1614.64 L 1224.04 1611.33 C 1221.31 1610.47 1218.08 1613.31 1214.98 1613.69 C 1215.77 1610.07 1219.69 1609.57 1221.41 1606.08 C 1219 1605.52 1217.81 1606.01 1215.55 1606.63 L 1214.3 1606.96 L 1213.54 1607.18 C 1213.54 1605.94 1213.91 1605.42 1214.46 1604.34 L 1215.82 1605.53 L 1214.8 1603.38 C 1216.18 1600.78 1217.66 1598.2 1218.8 1595.48 C 1213.07 1600.7 1208.03 1606.34 1202.95 1612.2 C 1200.09 1609.81 1197.27 1607.25 1194.21 1605.11 C 1192.92 1611.23 1191.32 1617.46 1190.46 1623.65 C 1170.84 1635.77 1121.84 1668.96 1102.45 1674.21 C 1097.47 1675.56 1090.61 1675.11 1085.65 1673.98 L 1084.42 1672.57 C 1088.47 1668.92 1092.88 1665.39 1096.19 1661.03 C 1096.82 1656.57 1096.81 1648.83 1100.55 1645.94 C 1102.17 1644.7 1104.07 1643.83 1105.9 1642.94 C 1106.4 1640.74 1106.27 1640.6 1105.03 1638.78 C 1103.21 1636.11 1100.38 1633.8 1098.03 1631.59 C 1098.51 1624.61 1097.72 1618.45 1092.9 1612.97 C 1088.61 1608.09 1082.16 1605.94 1076.02 1604.57 C 1068.74 1606.49 1056.75 1610.33 1050.76 1614.89 C 1049.09 1624.12 1043.76 1641.97 1044.1 1650.31 C 1047.43 1653.58 1049.36 1654.12 1054.02 1654.06 C 1056.3 1654.03 1058.55 1653.89 1060.82 1653.6 L 1061.7 1654.77 C 1065.73 1660.08 1074.55 1666.24 1076.69 1671.85 C 1072.35 1679.36 1057.48 1682.08 1050.35 1687.02 C 1041.89 1692.89 1035.76 1701.56 1029.22 1709.37 C 1013.87 1694.17 1000.78 1678.01 986.642 1661.79 C 985.665 1660.67 984.709 1660.15 983.334 1659.65 C 981.499 1659.95 977.09 1661.3 975.566 1660.36 C 968.126 1655.76 968.711 1637.91 958.146 1638.81 C 955.387 1639.04 953.125 1640.9 951.67 1643.15 C 949.534 1646.46 949.284 1650.42 950.252 1654.16 C 951.793 1660.12 956.451 1665.05 961.694 1668.04 C 968.394 1671.85 975.926 1672.48 983.452 1673.29 C 989.711 1684.13 995.81 1695.1 1002.53 1705.66 C 970.088 1712.77 936.451 1716.74 903.648 1722.04 C 890.795 1724.11 877.098 1725.58 864.56 1729.1 L 861.523 1725.77 C 858.992 1725.66 858.322 1726.1 856.459 1727.82 C 855.081 1729.09 853.811 1730.52 852.532 1731.89 C 829.106 1733.72 804.985 1739.77 781.778 1743.91 C 778.229 1738.95 775.497 1734.32 773.473 1728.51 C 775.669 1724.71 777.841 1721.04 780.502 1717.54 C 786.561 1718.41 793.935 1719.72 799.084 1715.47 C 802.506 1712.64 803.81 1707.86 804.006 1703.6 C 804.156 1700.35 804.021 1697.04 803.956 1693.78 C 806.765 1691.91 809.789 1690.46 811.034 1687.15 C 809.618 1683.07 804.934 1680.9 801.41 1678.58 L 806.931 1671.51 C 808.686 1669.28 810.38 1667.34 810.19 1664.3 C 810.037 1661.85 809.587 1659.84 807.306 1658.55 C 807.032 1658.4 804.654 1657.87 804.464 1657.82 C 800.855 1656.9 799.469 1655.29 796.861 1652.8 C 792.004 1648.15 784.679 1645.29 777.947 1645.35 C 770.132 1645.42 765.228 1647.85 759.996 1653.41 C 755.048 1648.51 750.723 1644.94 744.223 1642.15 C 735.685 1645.16 729.529 1646.42 720.477 1645.99 C 714.747 1649.81 710.971 1653.57 707.23 1659.32 L 712.914 1666.66 C 713.763 1675.4 714.805 1685.86 722.08 1691.88 C 725.812 1694.97 730.398 1695.83 735.127 1695.28 C 738.912 1694.83 744.22 1692.3 747.533 1693.89 C 750.545 1699.33 752.741 1705.08 755.038 1710.84 C 738.712 1711.44 725.851 1712.55 713.801 1725.08 C 704.224 1735.04 696.91 1749.2 689.837 1761.08 C 675.649 1762.15 656.94 1769.7 643.09 1774.05 C 592.335 1790.01 542.982 1808.41 493.019 1826.56 C 490 1782.33 488.967 1747.4 494.646 1703.11 C 496.082 1691.9 497.303 1680.2 500.09 1669.24 z"/>
<path transform="translate(0,0)" fill="rgb(37,24,64)" d="M 1202.95 1612.2 C 1208.03 1606.34 1213.07 1600.7 1218.8 1595.48 C 1217.66 1598.2 1216.18 1600.78 1214.8 1603.38 L 1215.82 1605.53 L 1214.46 1604.34 C 1213.91 1605.42 1213.54 1605.94 1213.54 1607.18 L 1214.3 1606.96 L 1215.55 1606.63 C 1217.81 1606.01 1219 1605.52 1221.41 1606.08 C 1219.69 1609.57 1215.77 1610.07 1214.98 1613.69 C 1218.08 1613.31 1221.31 1610.47 1224.04 1611.33 L 1220.9 1614.64 L 1221.06 1616.51 C 1223.22 1618.2 1224.97 1620.15 1226.81 1622.16 C 1217.46 1626.54 1208.51 1629.42 1198.39 1631.46 C 1179.78 1648.69 1160.18 1664.11 1139.38 1678.59 C 1132.89 1683.11 1115.77 1691.65 1112.24 1697.36 C 1121.57 1720.92 1127.04 1747.08 1134.32 1771.42 C 1141.41 1795.16 1150.46 1818.21 1157.29 1842.03 C 1157.84 1843.94 1158.21 1845.76 1157.98 1847.74 C 1156.57 1860 1153.03 1872.47 1150.91 1884.7 C 1147.53 1904.1 1145.25 1924.15 1140.85 1943.31 C 1140.42 1945.18 1139.89 1946.69 1138.84 1948.32 C 1138.06 1949.53 1137.68 1949.96 1136.83 1951.03 C 1141.41 1958.55 1154.47 1956.21 1158.98 1962.95 L 1158.52 1964.65 C 1143.52 1967.87 1098.39 1966.1 1081.16 1965.38 C 1085.23 1947.69 1089.61 1930.06 1094.29 1912.52 C 1098.31 1897.9 1111.48 1859.25 1111.77 1847.43 C 1112.11 1833.87 1104.58 1814.66 1099.06 1802.34 C 1095.71 1829.83 1092.92 1857.65 1088.3 1884.95 C 1077.39 1895.59 1012.71 1949.87 1010.55 1954.54 C 1010.18 1955.35 1010.26 1956.29 1010.11 1957.17 C 1010.95 1959.01 1011.78 1960.86 1012.59 1962.71 C 1008.05 1964.48 999.134 1963.03 994.163 1963.04 C 990.559 1956.9 986.111 1953.97 982.425 1948.72 C 976.676 1940.54 973.071 1930.54 967.236 1922.02 C 993.172 1901.14 1022.48 1885.98 1049.5 1866.86 C 1053.64 1852.64 1071.63 1772.2 1071.03 1763.91 C 1069.85 1747.91 1062.31 1730.25 1057.29 1715.06 C 1046.64 1722.72 1035.44 1729.82 1025.03 1737.76 C 1016.11 1727.96 1009.49 1716.87 1002.53 1705.66 C 995.81 1695.1 989.711 1684.13 983.452 1673.29 C 975.926 1672.48 968.394 1671.85 961.694 1668.04 C 956.451 1665.05 951.793 1660.12 950.252 1654.16 C 949.284 1650.42 949.534 1646.46 951.67 1643.15 C 953.125 1640.9 955.387 1639.04 958.146 1638.81 C 968.711 1637.91 968.126 1655.76 975.566 1660.36 C 977.09 1661.3 981.499 1659.95 983.334 1659.65 C 984.709 1660.15 985.665 1660.67 986.642 1661.79 C 1000.78 1678.01 1013.87 1694.17 1029.22 1709.37 C 1035.76 1701.56 1041.89 1692.89 1050.35 1687.02 C 1057.48 1682.08 1072.35 1679.36 1076.69 1671.85 C 1074.55 1666.24 1065.73 1660.08 1061.7 1654.77 L 1060.82 1653.6 C 1058.55 1653.89 1056.3 1654.03 1054.02 1654.06 C 1049.36 1654.12 1047.43 1653.58 1044.1 1650.31 C 1043.76 1641.97 1049.09 1624.12 1050.76 1614.89 C 1056.75 1610.33 1068.74 1606.49 1076.02 1604.57 C 1082.16 1605.94 1088.61 1608.09 1092.9 1612.97 C 1097.72 1618.45 1098.51 1624.61 1098.03 1631.59 C 1100.38 1633.8 1103.21 1636.11 1105.03 1638.78 C 1106.27 1640.6 1106.4 1640.74 1105.9 1642.94 C 1104.07 1643.83 1102.17 1644.7 1100.55 1645.94 C 1096.81 1648.83 1096.82 1656.57 1096.19 1661.03 C 1092.88 1665.39 1088.47 1668.92 1084.42 1672.57 L 1085.65 1673.98 C 1090.61 1675.11 1097.47 1675.56 1102.45 1674.21 C 1121.84 1668.96 1170.84 1635.77 1190.46 1623.65 C 1191.32 1617.46 1192.92 1611.23 1194.21 1605.11 C 1197.27 1607.25 1200.09 1609.81 1202.95 1612.2 z"/>
<path transform="translate(0,0)" fill="rgb(37,24,64)" d="M 720.477 1645.99 C 729.529 1646.42 735.685 1645.16 744.223 1642.15 C 750.723 1644.94 755.048 1648.51 759.996 1653.41 C 765.228 1647.85 770.132 1645.42 777.947 1645.35 C 784.679 1645.29 792.004 1648.15 796.861 1652.8 C 799.469 1655.29 800.855 1656.9 804.464 1657.82 C 804.654 1657.87 807.032 1658.4 807.306 1658.55 C 809.587 1659.84 810.037 1661.85 810.19 1664.3 C 810.38 1667.34 808.686 1669.28 806.931 1671.51 L 801.41 1678.58 C 804.934 1680.9 809.618 1683.07 811.034 1687.15 C 809.789 1690.46 806.765 1691.91 803.956 1693.78 C 804.021 1697.04 804.156 1700.35 804.006 1703.6 C 803.81 1707.86 802.506 1712.64 799.084 1715.47 C 793.935 1719.72 786.561 1718.41 780.502 1717.54 C 777.841 1721.04 775.669 1724.71 773.473 1728.51 C 775.497 1734.32 778.229 1738.95 781.778 1743.91 C 804.985 1739.77 829.106 1733.72 852.532 1731.89 C 853.811 1730.52 855.081 1729.09 856.459 1727.82 C 858.322 1726.1 858.992 1725.66 861.523 1725.77 L 864.56 1729.1 C 861.614 1732.82 858.897 1736 857.342 1740.56 L 857.872 1741.05 C 860.172 1739.01 861.098 1737.11 862.34 1734.39 L 864.065 1733.9 C 864.963 1736.6 863.047 1742.61 864.711 1743.7 L 867.411 1743.02 L 868.793 1744.17 C 868.955 1748.18 865.122 1747.34 867.357 1750.87 C 867.687 1751.39 868.005 1751.91 868.329 1752.44 C 863.404 1761.8 850.923 1760.59 843.238 1766.21 C 829.081 1776.57 818.374 1798.72 801.498 1804.54 C 796.99 1806.1 792.49 1805.68 788.244 1803.57 C 780.861 1799.89 775.289 1792.55 770.078 1786.32 C 762.512 1794.18 754.679 1802.41 748.7 1811.57 C 767.467 1814.2 802.043 1812.47 814.66 1828.58 C 819.193 1834.37 818.671 1843.09 817.599 1849.91 C 812.046 1885.26 788.941 1933.12 796.749 1968.25 C 788.966 1969.97 779.751 1969.11 771.747 1969 C 773.368 1948.04 772.648 1927.28 772.069 1906.29 C 765.791 1913.98 735.707 1951.96 737.665 1959.61 C 738.06 1961.15 739.547 1963.08 740.383 1964.38 C 731.24 1971.1 720.225 1969.39 709.52 1968.86 C 716.34 1952.03 723.52 1935.35 731.055 1918.83 C 737.991 1903.83 745.718 1888.88 751.916 1873.57 C 730.464 1869.66 694.028 1866.15 680.296 1846.53 C 676.245 1840.74 675.008 1834.09 676.492 1827.21 C 678.054 1819.96 682.43 1813.38 686.166 1807.07 C 682.429 1805.8 677.932 1804.85 676.37 1800.73 C 672.643 1790.88 685.771 1770.2 689.837 1761.08 C 696.91 1749.2 704.224 1735.04 713.801 1725.08 C 725.851 1712.55 738.712 1711.44 755.038 1710.84 C 752.741 1705.08 750.545 1699.33 747.533 1693.89 C 744.22 1692.3 738.912 1694.83 735.127 1695.28 C 730.398 1695.83 725.812 1694.97 722.08 1691.88 C 714.805 1685.86 713.763 1675.4 712.914 1666.66 L 707.23 1659.32 C 710.971 1653.57 714.747 1649.81 720.477 1645.99 z"/>
<path transform="translate(0,0)" fill="rgb(253,207,85)" d="M 781.778 1743.91 C 804.985 1739.77 829.106 1733.72 852.532 1731.89 C 850.435 1736.46 848.656 1742.55 843.575 1744.5 C 841.923 1745.13 840.107 1745.42 838.372 1745.72 C 835.518 1749.04 834.687 1752.4 833.45 1756.53 C 831.46 1763.17 820.085 1767.92 814.355 1770.9 C 810.808 1772.78 807.224 1774.59 803.606 1776.33 C 796.426 1765.46 789.15 1754.65 781.778 1743.91 z"/>
<path transform="translate(0,0)" fill="rgb(37,24,64)" d="M 1379.95 1671.33 C 1376.19 1667.69 1371.6 1664.05 1369.22 1659.34 L 1369.72 1657.65 C 1372.32 1656.84 1374.65 1656.47 1377.34 1656.14 C 1384.03 1651.38 1383.67 1626.18 1411.16 1631.39 C 1420.54 1633.16 1429.75 1639.74 1435.01 1647.66 C 1437.95 1652.09 1439.09 1657.04 1437.72 1662.23 C 1436.03 1668.61 1425.55 1678.83 1428.18 1684.63 C 1446.03 1688 1450.66 1690.99 1460.99 1706 C 1463.93 1710.29 1466.57 1714.81 1469.22 1719.28 C 1477.76 1735.06 1519.04 1815.17 1516.65 1826.8 C 1515.92 1830.33 1513.81 1833.74 1510.61 1835.52 C 1508.31 1836.79 1505.47 1837.06 1503.04 1835.99 C 1500.2 1834.74 1493.06 1823.46 1492.3 1820.48 C 1491.4 1816.9 1495.56 1810.08 1497.25 1806.81 C 1485.24 1785.56 1471.54 1765.31 1456.29 1746.25 C 1468.66 1793.1 1468.03 1823.13 1468.07 1870.38 C 1487.52 1893.36 1507.28 1915.91 1526.25 1939.3 C 1518.83 1945.68 1512.7 1953.26 1505.42 1959.57 C 1493.89 1969.55 1479.08 1968.76 1464.89 1967.82 C 1469.02 1965.61 1473.33 1963.73 1477.6 1961.78 C 1471.62 1951.84 1465.09 1941.92 1458.23 1932.57 C 1449.34 1920.46 1436.03 1908.38 1431.57 1893.82 C 1426.84 1878.35 1427.2 1857.86 1426.92 1841.66 C 1415.31 1852.72 1404.05 1865.67 1395.35 1879.12 C 1400.94 1890.59 1407.68 1901.59 1413.41 1913.03 C 1420.38 1926.92 1426.12 1941.32 1431.97 1955.7 C 1417.96 1959.85 1383.98 1970.16 1370.75 1964.76 L 1370.52 1963.12 C 1373.84 1960.03 1377.07 1958.84 1381.25 1957.29 L 1352.11 1878.57 C 1368.57 1850.72 1386.92 1823.25 1411.02 1801.42 C 1410.81 1788.23 1412.03 1774.94 1412.13 1761.72 C 1405.66 1771 1399.32 1781.66 1390.61 1788.96 C 1369.9 1781.25 1350.04 1767.72 1333.04 1753.79 C 1331.42 1754.14 1329.81 1754.45 1328.17 1754.66 C 1323.59 1755.25 1319.19 1755.03 1315.52 1751.89 C 1312.55 1749.33 1309.19 1741.39 1309.66 1737.48 C 1309.92 1735.26 1310.54 1733.53 1312.52 1732.32 C 1317.87 1729.05 1330.13 1732.54 1335.96 1733.5 C 1338.63 1737.09 1340.71 1741.27 1342.94 1745.15 C 1356.12 1751.52 1369.91 1756.96 1383.26 1763.02 C 1386.41 1754.87 1389.32 1746.74 1391.43 1738.25 C 1394.93 1724.16 1395.52 1709.02 1404.29 1696.99 C 1400.17 1698.45 1396.12 1699.4 1391.84 1700.26 C 1389.09 1695.66 1387.19 1691.96 1382.47 1689.15 C 1379.8 1687.56 1377.51 1686.37 1376.09 1683.48 C 1375.83 1679.23 1378.1 1675.07 1379.95 1671.33 z"/>
<path transform="translate(0,0)" fill="rgb(35,20,46)" d="M 1438.58 1156.15 C 1428.55 1162.24 1415.26 1167.78 1404.05 1171.24 C 1402.59 1169.23 1400.95 1167.81 1399.12 1166.15 C 1412.26 1162.48 1425.12 1158.49 1438.58 1156.15 z"/>
<path transform="translate(0,0)" fill="rgb(35,20,46)" d="M 1448.38 1213.88 C 1456.73 1206.75 1464.97 1199.06 1474.55 1193.61 C 1471.37 1196.8 1467.42 1200.06 1465.39 1204.11 C 1466.93 1203.89 1468.25 1203.61 1469.75 1203.21 C 1466.03 1209.08 1455.26 1215.27 1449.67 1220.02 C 1449.08 1218.02 1448.77 1215.93 1448.38 1213.88 z"/>
<path transform="translate(0,0)" fill="rgb(37,24,64)" d="M 1694.83 1446.36 C 1776.32 1464.31 1859.49 1475.11 1941.47 1490.65 C 1931.22 1541.19 1925.69 1593.23 1918.1 1644.25 L 1872.08 1969.46 C 1864.02 1968.16 1855.92 1967.02 1847.81 1966.04 C 1833.81 1963.68 1819.44 1962.43 1805.35 1960.57 C 1780.29 1957.2 1755.26 1953.66 1730.25 1949.94 C 1685.9 1943.35 1640.84 1934.45 1596.2 1930.66 C 1601.65 1909.21 1604.87 1886.6 1608.97 1864.81 L 1634.28 1728.68 C 1652.27 1634 1673.58 1540.33 1694.83 1446.36 z"/>
<path transform="translate(0,0)" fill="rgb(253,207,85)" d="M 1741.78 1717.99 C 1796.48 1710.97 1846.59 1749.4 1853.98 1804.05 C 1861.37 1858.69 1823.26 1909.06 1768.67 1916.81 C 1713.56 1924.63 1662.62 1886.09 1655.16 1830.93 C 1647.7 1775.77 1686.58 1725.09 1741.78 1717.99 z"/>
<path transform="translate(0,0)" fill="rgb(37,24,64)" d="M 1740.44 1727.35 C 1790.53 1719.47 1837.46 1753.88 1845.01 1804.02 C 1852.56 1854.16 1817.85 1900.87 1767.66 1908.09 C 1717.94 1915.25 1671.76 1880.92 1664.27 1831.24 C 1656.79 1781.57 1690.81 1735.16 1740.44 1727.35 z"/>
<path transform="translate(0,0)" fill="rgb(253,207,85)" d="M 1746.54 1750.51 C 1783.78 1746.11 1817.55 1772.72 1821.97 1809.96 C 1826.4 1847.2 1799.81 1880.98 1762.57 1885.43 C 1725.3 1889.88 1691.49 1863.26 1687.06 1825.99 C 1682.63 1788.72 1709.26 1754.92 1746.54 1750.51 z"/>
<path transform="translate(0,0)" fill="rgb(37,24,64)" d="M 1748.4 1759.47 C 1780.66 1756.09 1809.55 1779.5 1812.92 1811.75 C 1816.29 1844.01 1792.88 1872.89 1760.62 1876.26 C 1728.37 1879.62 1699.51 1856.21 1696.13 1823.97 C 1692.76 1791.73 1716.16 1762.85 1748.4 1759.47 z"/>
<path transform="translate(0,0)" fill="rgb(253,207,85)" d="M 1747.81 1790.84 C 1757 1788.56 1766.71 1791.41 1773.21 1798.3 C 1779.71 1805.19 1782 1815.05 1779.19 1824.1 C 1776.38 1833.15 1768.91 1839.98 1759.65 1841.97 C 1745.64 1844.99 1731.8 1836.2 1728.56 1822.24 C 1725.33 1808.27 1733.9 1794.3 1747.81 1790.84 z"/>
<path transform="translate(0,0)" fill="rgb(253,207,85)" d="M 1781.89 1520.83 C 1827.49 1515.86 1868.41 1548.99 1873.04 1594.63 C 1877.68 1640.27 1844.25 1680.94 1798.58 1685.24 C 1753.38 1689.5 1713.21 1656.49 1708.62 1611.32 C 1704.04 1566.15 1736.75 1525.74 1781.89 1520.83 z"/>
<path transform="translate(0,0)" fill="rgb(37,24,64)" d="M 1781.89 1530.14 C 1822.45 1525.3 1859.2 1554.38 1863.83 1594.97 C 1868.45 1635.55 1839.18 1672.15 1798.57 1676.56 C 1758.26 1680.93 1721.99 1651.92 1717.41 1611.64 C 1712.82 1571.36 1741.63 1534.94 1781.89 1530.14 z"/>
<path transform="translate(0,0)" fill="rgb(253,207,85)" d="M 1781.5 1548.54 C 1811.64 1543.72 1839.96 1564.3 1844.68 1594.45 C 1849.41 1624.6 1828.75 1652.86 1798.58 1657.5 C 1768.54 1662.11 1740.43 1641.55 1735.73 1611.53 C 1731.02 1581.5 1751.49 1553.33 1781.5 1548.54 z"/>
<path transform="translate(0,0)" fill="rgb(37,24,64)" d="M 1783.81 1557.05 C 1809.19 1553.89 1832.34 1571.85 1835.58 1597.22 C 1838.83 1622.59 1820.93 1645.8 1795.58 1649.12 C 1770.1 1652.46 1746.76 1634.47 1743.51 1608.99 C 1740.25 1583.5 1758.31 1560.22 1783.81 1557.05 z"/>
<path transform="translate(0,0)" fill="rgb(253,207,85)" d="M 1782.09 1581.05 C 1786.64 1580.81 1791.15 1580.69 1795.44 1582.48 C 1801.78 1585.12 1807.2 1590.59 1809.46 1597.11 C 1811.03 1601.64 1810.96 1606.56 1808.84 1610.89 C 1805.96 1616.78 1800.71 1619.85 1794.79 1622.05 C 1791.04 1622.34 1787.51 1622.36 1783.85 1621.35 C 1777.48 1619.59 1771.64 1615.26 1768.66 1609.29 C 1766.3 1604.63 1765.97 1599.21 1767.75 1594.29 C 1770.29 1587.48 1775.65 1583.76 1782.09 1581.05 z"/>
<path transform="translate(0,0)" fill="rgb(37,24,64)" d="M 349.89 1451.38 L 351.981 1451.61 C 356.01 1461.48 357.375 1473.57 359.684 1484.01 L 377.288 1567.38 L 429.705 1820.37 C 437.125 1856.89 443.067 1894.02 451.454 1930.29 C 411.44 1937.42 371.168 1942.27 330.933 1947.92 C 288.759 1953.85 246.743 1960.41 204.435 1965.39 C 195.056 1966.54 185.658 1967.52 176.243 1968.32 L 104.85 1501.2 C 104.358 1497.91 103.293 1493.19 104.437 1490.07 C 114.991 1483.76 319.579 1456.21 349.89 1451.38 z"/>
<path transform="translate(0,0)" fill="rgb(253,207,85)" d="M 278.059 1715.84 C 334.492 1708.67 385.987 1748.78 392.832 1805.26 C 399.676 1861.73 359.257 1912.99 302.743 1919.5 C 246.697 1925.96 195.955 1885.95 189.167 1829.94 C 182.379 1773.94 222.093 1722.96 278.059 1715.84 z"/>
<path transform="translate(0,0)" fill="rgb(37,24,64)" d="M 283.202 1724.42 C 334.762 1720.14 380.024 1758.48 384.296 1810.04 C 388.569 1861.6 350.234 1906.86 298.674 1911.13 C 247.114 1915.41 201.854 1877.07 197.581 1825.51 C 193.309 1773.95 231.642 1728.69 283.202 1724.42 z"/>
<path transform="translate(0,0)" fill="rgb(253,207,85)" d="M 281.541 1749.25 C 319.45 1744.34 354.127 1771.19 358.861 1809.12 C 363.595 1847.05 336.581 1881.6 298.627 1886.15 C 260.928 1890.67 226.663 1863.88 221.96 1826.2 C 217.258 1788.53 243.887 1754.13 281.541 1749.25 z"/>
<path transform="translate(0,0)" fill="rgb(37,24,64)" d="M 280.066 1758.31 C 312.729 1752.56 343.861 1774.4 349.578 1807.07 C 355.295 1839.74 333.429 1870.85 300.756 1876.54 C 268.125 1882.22 237.062 1860.39 231.353 1827.76 C 225.643 1795.13 247.446 1764.05 280.066 1758.31 z"/>
<path transform="translate(0,0)" fill="rgb(253,207,85)" d="M 286.51 1792.09 C 293.153 1791.74 299.207 1791.88 305.159 1795.24 C 311.225 1798.65 315.596 1804.43 317.222 1811.19 C 318.901 1817.81 317.784 1824.83 314.133 1830.6 C 309.746 1837.53 303.125 1840.91 295.414 1842.88 C 290.431 1843.11 285.606 1842.69 280.982 1840.69 C 274.088 1837.72 268.46 1832.15 265.977 1825 C 263.911 1819.05 264.367 1812.77 267.139 1807.13 C 271.084 1799.11 278.303 1794.77 286.51 1792.09 z"/>
<path transform="translate(0,0)" fill="rgb(253,207,85)" d="M 246.727 1521.15 C 291.68 1516.73 331.694 1549.61 336.071 1594.57 C 340.447 1639.52 307.525 1679.51 262.564 1683.84 C 217.665 1688.17 177.75 1655.3 173.379 1610.4 C 169.009 1565.51 201.837 1525.56 246.727 1521.15 z"/>
<path transform="translate(0,0)" fill="rgb(37,24,64)" d="M 249.22 1530.11 C 289.195 1527.12 324.055 1557.03 327.171 1597 C 330.286 1636.97 300.483 1671.92 260.527 1675.16 C 220.393 1678.42 185.248 1648.45 182.119 1608.31 C 178.989 1568.16 209.066 1533.11 249.22 1530.11 z"/>
<path transform="translate(0,0)" fill="rgb(253,207,85)" d="M 246.173 1550.15 C 275.258 1545.72 302.446 1565.66 306.956 1594.73 C 311.466 1623.8 291.596 1651.04 262.534 1655.63 C 233.368 1660.23 206.01 1640.27 201.484 1611.09 C 196.958 1581.91 216.984 1554.61 246.173 1550.15 z"/>
<path transform="translate(0,0)" fill="rgb(37,24,64)" d="M 249.04 1559.25 C 272.93 1556.46 294.639 1573.36 297.789 1597.2 C 300.94 1621.05 284.364 1643.01 260.568 1646.51 C 244.858 1648.83 229.119 1642.5 219.383 1629.95 C 209.648 1617.4 207.426 1600.59 213.569 1585.94 C 219.712 1571.3 233.268 1561.1 249.04 1559.25 z"/>
<path transform="translate(0,0)" fill="rgb(253,207,85)" d="M 250.58 1584.16 C 260.796 1582.13 270.745 1588.69 272.903 1598.88 C 275.061 1609.07 268.626 1619.1 258.464 1621.39 C 251.778 1622.89 244.799 1620.68 240.196 1615.6 C 235.592 1610.53 234.075 1603.37 236.225 1596.86 C 238.375 1590.35 243.858 1585.5 250.58 1584.16 z"/>
<path transform="translate(0,0)" fill="rgb(37,24,64)" d="M 469.006 1192.97 L 469.734 1193.86 C 464.914 1203.03 455.056 1209.35 449.997 1218.68 C 451.252 1221.13 453.629 1218.23 456.058 1219.4 C 441.545 1231.1 432.569 1240.88 423.758 1257.45 C 430.208 1254.44 436.519 1251.77 443.302 1249.6 C 425.023 1264.25 413.432 1279.35 404.114 1300.84 C 412.606 1295.19 421.16 1289.64 429.775 1284.18 C 414.122 1303.65 403.341 1316.91 396.805 1341.48 C 403.232 1335.4 409.825 1330.09 416.922 1324.79 C 405.862 1341.58 399.049 1353.83 396.909 1374.16 C 402.192 1366.98 407.522 1361.37 414.477 1355.78 C 404.107 1374.69 402.829 1389.12 404.297 1410.31 C 407.02 1404.59 409.494 1398.73 412.06 1392.94 C 414.008 1413.67 414.272 1427.91 430.201 1443.63 C 429.069 1437.01 427.321 1430.43 425.786 1423.89 C 433.425 1436.09 437.977 1443.61 451.432 1449.84 C 450.737 1433.5 445.418 1421.06 439.107 1406.16 C 443.763 1412.45 449.186 1418.14 455.25 1423.08 C 452.709 1408.25 448.12 1393.33 444.532 1378.69 C 448.866 1386.92 453.108 1395.14 458.213 1402.92 C 457.395 1383.24 453.859 1363.42 450.197 1344.09 C 454.792 1351.74 458.795 1359.61 462.794 1367.58 C 464.034 1348.17 461.686 1329.29 460.668 1309.95 C 463.653 1319.03 467.152 1327.62 471.586 1336.09 C 473.528 1317.7 471.603 1299.16 472.593 1280.69 C 473.876 1286.95 474.727 1294.27 478.627 1299.47 L 480.104 1299.5 C 485.088 1291.55 485.182 1262.67 486.844 1251.49 C 488.618 1255.49 489.805 1259.78 491.128 1263.95 C 495.884 1245.43 503.039 1227.6 507.136 1209.02 C 508.787 1303.56 492.341 1396.23 474.294 1488.62 C 465.391 1533.85 455.968 1578.96 446.028 1623.97 C 438.735 1658.41 431.678 1697.72 421.096 1731.14 C 415.925 1700.23 408.824 1669.49 402.411 1638.82 C 385.492 1561.55 369.019 1484.19 352.996 1406.73 C 339.302 1407.41 325.189 1410.71 311.594 1412.74 C 295.1 1415.19 278.463 1416.67 262.031 1419.52 C 276.131 1401.98 279.033 1389.41 286.758 1368.8 C 286.219 1379.28 286.037 1389.66 287.453 1400.08 C 299.539 1382.17 304.464 1361.68 308.825 1340.9 C 310.318 1351.9 310.159 1362.95 310.105 1374.03 C 322.695 1351.86 327.858 1328.72 335.559 1304.74 C 336.817 1315.86 336.612 1327.22 336.82 1338.4 C 350.426 1315.25 356.32 1289.49 368.488 1265.96 C 367.197 1276.47 366.658 1287.07 365.946 1297.62 C 380.251 1276.71 388.958 1252.95 402.937 1231.99 C 400.358 1242.29 397.126 1252.79 396.363 1263.41 C 411.4 1247.52 422.507 1229.06 435.336 1211.46 C 433.538 1216.7 431.925 1222.01 430.231 1227.29 C 442.445 1215.05 455.167 1203.35 469.006 1192.97 z"/>
<path transform="translate(0,0)" fill="rgb(37,24,64)" d="M 1701.5 1412.5 C 1726.13 1419.24 1753.6 1421.95 1778.86 1426.09 L 1923.41 1449.62 C 1924.7 1460.34 1933.47 1470.46 1934.08 1478.75 L 1931.79 1478.75 C 1853.75 1463.61 1774.1 1454.76 1696.55 1437.29 L 1701.5 1412.5 z"/>
<path transform="translate(0,0)" fill="rgb(37,24,64)" d="M 342.577 1417.38 L 344.815 1417.4 C 348.299 1422.82 349.197 1434.8 350.828 1441.42 C 324.237 1446.45 297.254 1449.54 270.504 1453.62 C 220.694 1461.43 170.822 1468.84 120.893 1475.86 C 117.857 1476.33 115.614 1477.33 112.854 1475.86 C 110.752 1468.63 118.934 1456.38 122.197 1449.82 C 151.344 1444.04 181.082 1441.33 210.483 1437.16 L 342.577 1417.38 z"/>
<path transform="translate(0,0)" fill="rgb(253,127,201)" d="M 780.559 115.201 C 795.445 115.115 810.334 114.914 825.213 115.483 C 851.158 141.028 875.649 167.886 900.931 194.06 C 924.987 218.967 949.645 243.081 972.909 268.762 L 972.985 115.677 C 996.139 114.999 1019.47 115.647 1042.65 115.771 C 1042.16 206.039 1043.97 296.341 1042.95 386.606 L 998.613 387.069 C 986.409 375.141 974.918 362.436 962.881 350.325 C 924.679 312.065 886.777 273.505 849.18 234.65 C 849.512 285.243 850.248 335.945 849.073 386.525 C 826.197 386.612 803.32 386.549 780.444 386.336 C 779.373 357.186 780.127 327.66 780.112 298.477 L 780.559 115.201 z"/>
<path transform="translate(0,0)" fill="rgb(253,207,85)" d="M 868.729 432.772 C 896.366 432.086 924.181 432.693 951.842 432.698 C 972.264 432.702 993.454 431.591 1013.79 433.672 C 1023.38 434.655 1033.03 436.557 1042.12 439.811 C 1057.89 445.45 1072.66 455.58 1079.64 471.33 C 1085.45 484.444 1085.7 501.461 1080.23 514.684 C 1073.53 530.844 1061.16 538.141 1045.88 544.635 C 1050 545.639 1054.13 546.814 1058.1 548.309 C 1071.65 553.41 1083.48 564.561 1089.28 577.765 C 1096.04 593.13 1094.92 609.746 1089.22 625.191 C 1086.29 631.337 1082.83 636.87 1077.95 641.673 C 1067.01 652.413 1051.99 657.899 1037.22 660.871 C 1013.64 665.617 988.146 663.926 964.175 663.875 L 868.526 663.59 L 868.729 432.772 z"/>
<path transform="translate(0,0)" fill="rgb(37,24,64)" d="M 929.783 569.974 L 979.046 569.67 C 989.025 569.621 999.819 568.869 1009.67 570.444 C 1015.23 571.331 1020.67 573.099 1025.28 576.397 C 1029.44 579.379 1032.91 583.605 1033.63 588.812 C 1034.59 595.733 1030.44 603.611 1026.27 608.794 C 1022.18 612.075 1018.2 614.172 1013.01 615.208 C 995.258 618.755 950.467 616.324 929.879 616.41 L 929.783 569.974 z"/>
<path transform="translate(0,0)" fill="rgb(37,24,64)" d="M 929.937 481.069 C 948.546 481.355 1001.43 476.847 1014.93 486.816 C 1019.54 490.219 1022.09 494.886 1022.92 500.515 C 1024.01 507.95 1021.58 512.976 1017.18 518.748 C 1013.78 521.249 1010.53 523.122 1006.37 524.086 C 990.447 527.777 948.806 525.105 929.963 525.076 L 929.937 481.069 z"/>
<path transform="translate(0,0)" fill="rgb(253,127,201)" d="M 1355 116.123 L 1577.06 116.125 L 1577.09 176.848 C 1526.46 177.359 1475.78 176.832 1425.15 176.853 L 1425.1 221.737 L 1559.08 221.936 L 1559.09 280.939 L 1446.82 280.934 L 1426.06 280.971 C 1426.33 295.955 1426.1 310.973 1426.07 325.961 C 1477.9 326.292 1529.79 325.27 1581.61 326.301 L 1581.44 386.88 L 1354.94 386.874 L 1355 116.123 z"/>
<path transform="translate(0,0)" fill="rgb(253,127,201)" d="M 469.143 115.043 C 492.837 114.947 516.531 115.054 540.223 115.364 L 540.36 224.952 C 540.334 245.414 538.043 268.982 541.981 289.034 C 543.892 298.762 548.072 307.995 554.85 315.306 C 566.631 328.015 584.3 332.373 601.05 332.73 C 616.742 333.063 633.243 329.976 644.811 318.543 C 652.753 310.694 657.443 300.142 659.543 289.29 C 663.243 270.169 660.994 247.931 660.986 228.422 L 661.007 115.886 C 684.35 115.678 707.695 115.642 731.039 115.777 L 731.041 175.5 L 731.106 238.657 C 731.126 281.716 731.829 324.386 699.126 357.238 C 673.493 382.987 637.211 391.648 601.941 391.811 C 565.727 391.979 527.328 382.887 501.018 356.527 C 488.338 343.826 479.102 328.103 474.183 310.842 C 465.971 281.303 468.911 247.79 468.933 217.364 L 469.143 115.043 z"/>
<path transform="translate(0,0)" fill="rgb(253,127,201)" d="M 1191.63 112.426 C 1231.38 109.466 1274.56 119.245 1307.43 142.095 C 1298.51 159.639 1285.15 175.931 1274.3 192.44 C 1253.81 180.889 1233.24 173.42 1209.62 171.826 C 1194.44 170.802 1171.75 170.389 1159.84 181.421 C 1155.64 185.306 1152.94 190.671 1153.07 196.459 C 1153.21 202.725 1157.84 207.011 1162.97 209.888 C 1182.52 220.844 1227.19 223.308 1251.21 229.962 C 1269.07 234.909 1286.8 242.379 1300.22 255.527 C 1314.21 269.239 1319.9 286.765 1320.03 306.08 C 1320.17 326.175 1313.16 344.889 1298.81 359.138 C 1269.37 388.358 1226.59 391.279 1187.44 390.939 C 1148.75 389.033 1106.58 379.494 1077.06 352.791 C 1087.79 335.742 1100.6 320.149 1111.24 303.043 C 1139.34 322.739 1172.95 333.047 1207.26 332.496 C 1218.82 332.418 1234.4 330.634 1242.64 321.774 C 1245.9 318.276 1249.19 312.946 1248.65 307.969 C 1246.62 289.656 1201.76 285.453 1188.01 282.895 C 1176.34 280.722 1164.58 278.58 1153.12 275.436 C 1135.9 270.712 1118.43 263.907 1104.85 251.97 C 1091.27 240.027 1084.29 224.216 1083.22 206.281 C 1081.95 185.078 1087.16 165.186 1101.43 149.172 C 1124.54 123.232 1158.18 114.549 1191.63 112.426 z"/>
<path transform="translate(0,0)" fill="rgb(253,207,85)" d="M 76.9837 57.1582 C 129.867 56.1667 182.944 57.0676 235.844 57.0676 L 561.758 57.1662 L 1652.81 57.1367 L 1862.05 57.1243 C 1895.97 57.1068 1930.61 55.6039 1964.44 57.0075 C 1967.72 57.1434 1970.56 57.403 1973.59 58.7013 C 1977.19 71.7069 1975.04 104.87 1975.03 120.129 L 1974.93 245.878 L 1975.11 801.717 L 1593.39 802.22 L 1453.73 802.07 C 1434.21 802.058 1414.62 802.706 1395.11 802.347 C 1391.86 802.288 1386.94 802.615 1384.26 800.843 C 1384.2 798.522 1383.92 796.534 1385.26 794.509 C 1400.3 792.106 1418.25 794.066 1433.62 794.048 L 1535.5 793.482 L 1965.47 793.046 C 1967.11 731.293 1965.85 669.162 1965.88 607.365 L 1965.78 236.333 C 1965.82 179.793 1964.74 122.934 1966.54 66.4245 L 1954.25 66.2624 L 82.915 66.1896 L 82.4776 792.814 L 452.621 792.439 L 606.692 792.66 C 626.319 792.752 646.077 792.021 665.684 792.642 C 668.849 792.742 672.267 792.63 675.059 794.178 C 675.607 796.97 675.583 797.412 674.617 800.087 C 673.938 800.483 673.339 801.072 672.58 801.277 C 667.584 802.629 650.796 801.32 644.78 801.331 L 546.907 801.527 L 73.8337 801.284 L 73.5696 289.43 L 73.8687 141.273 C 73.8599 115.88 72.2696 89.3574 74.1653 64.0573 C 74.3928 61.0212 75.0757 59.5012 76.9837 57.1582 z"/>
<path transform="translate(0,0)" fill="rgb(253,127,201)" d="M 305.916 111.424 C 345 108.298 383.816 119.081 417.925 137.529 C 411.491 155.388 401.752 173.869 392.288 190.34 C 368.795 178.644 344.19 169.69 317.67 168.84 C 303.209 168.376 285.262 170.049 274.464 180.847 C 270.525 184.787 268.368 189.495 268.502 195.105 C 268.689 202.899 273.277 208.345 279.943 211.902 C 289.619 217.065 301.823 218.63 312.494 220.662 C 346.173 227.075 387.378 232 413.311 256.633 C 425.933 268.622 432.769 284.57 432.985 301.985 C 433.244 322.978 426.018 341.767 411.331 356.793 C 383.792 384.968 343.786 390.021 306.333 390.677 C 267.486 389.26 228.374 380.634 196.823 356.818 C 204.668 340.132 212.644 323.457 221.855 307.474 C 251.71 323.663 280.954 334.034 315.242 333.178 C 328.606 332.845 345.897 331.396 355.35 320.725 C 358.489 317.181 360.333 312.643 359.935 307.871 C 359.401 301.467 354.975 297.136 349.645 294.095 C 330.371 283.098 284.781 279.97 260.313 273.015 C 246.11 268.978 232.312 262.694 220.818 253.309 C 206.53 241.643 198.069 226.35 196.423 207.909 C 194.603 187.52 200.008 165.321 213.504 149.581 C 236.419 122.855 272.28 114.045 305.916 111.424 z"/>
<path transform="translate(0,0)" fill="rgb(253,207,85)" d="M 1131.18 432.887 C 1152.5 432.116 1174.06 432.777 1195.4 432.791 L 1319.15 432.997 L 1319.02 483.024 C 1276.73 483.715 1234.43 483.852 1192.13 483.436 L 1192.16 521.685 C 1231.11 521.369 1270.06 521.293 1309.02 521.458 L 1308.94 569.984 L 1211.88 570.165 L 1192.59 570.229 C 1192.41 584.853 1192.58 599.5 1192.59 614.127 L 1324.68 614.066 C 1324.77 630.518 1324.67 646.97 1324.38 663.419 C 1260.01 664.38 1195.48 663.331 1131.1 663.172 L 1131.18 432.887 z"/>
<path transform="translate(0,0)" fill="rgb(253,127,201)" d="M 1599.42 115.969 L 1843.91 116.094 L 1844.02 176.675 L 1759.46 176.318 C 1758.82 218.928 1759.29 261.63 1759.22 304.25 L 1759.14 386.89 L 1684.96 386.682 L 1684.98 176.056 C 1656.53 176.643 1628.08 176.861 1599.62 176.709 L 1599.42 115.969 z"/>
<path transform="translate(0,0)" fill="rgb(253,207,85)" d="M 1445.73 429.44 C 1475.24 427.092 1517.74 435.375 1541.29 454.3 C 1531.16 468.246 1522.9 483.376 1512.85 497.346 C 1496.63 485.722 1479.51 479.761 1459.55 478.528 C 1447.06 477.756 1426.61 477.774 1417.07 486.963 C 1413.41 490.484 1411.27 496.012 1411.43 501.072 C 1411.6 506.59 1414.97 510.711 1419.48 513.55 C 1434.43 522.952 1469.48 525.074 1488.23 530.115 C 1504.92 534.6 1522.66 541.233 1535.11 553.696 C 1546.26 564.856 1551.44 578.891 1551.31 594.596 C 1551.16 612.601 1545.69 628.816 1532.6 641.607 C 1507.14 666.485 1467.06 667.665 1433.75 667.002 C 1400.28 666.008 1370.01 654.863 1344.33 633.524 C 1354.46 620.602 1364.12 607.278 1373.94 594.12 C 1394.6 612.014 1424.97 620.444 1451.96 619.995 C 1462.81 619.815 1478.27 618.391 1486.02 610.056 C 1489.05 606.8 1491.28 602.482 1490.99 597.932 C 1489.72 578.245 1458.66 575.357 1443.83 572.578 C 1433.24 570.594 1422.55 568.759 1412.1 566.115 C 1397.91 562.523 1383.19 557.236 1371.8 547.758 C 1360.09 538.019 1353.48 525.238 1352.21 510.044 C 1350.68 491.65 1356.15 474.62 1368.19 460.592 C 1387.35 438.279 1417.75 431.761 1445.73 429.44 z"/>
<path transform="translate(0,0)" fill="rgb(253,207,85)" d="M 672.56 432.741 C 693.085 432.612 713.612 432.702 734.135 433.011 C 726.364 451.366 718.246 469.573 709.786 487.62 L 628.427 663.513 L 576.563 663.034 C 554.346 618.633 534.697 572.251 514.444 526.894 C 500.497 495.657 485.106 464.666 472.359 432.946 C 493.089 432.68 513.847 432.825 534.58 432.774 C 559.922 483.168 579.314 536.63 603.855 587.386 C 612.244 565.977 622.482 544.973 631.896 523.977 L 672.56 432.741 z"/>
<path transform="translate(0,0)" fill="rgb(253,207,85)" d="M 1764.39 517.751 C 1806.83 513.698 1844.55 544.758 1848.72 587.191 C 1852.88 629.624 1821.92 667.422 1779.49 671.695 C 1736.92 675.984 1698.95 644.883 1694.77 602.295 C 1690.59 559.706 1721.79 521.819 1764.39 517.751 z"/>
<path transform="translate(0,0)" fill="rgb(37,24,64)" d="M 1767.04 526.121 C 1805.17 523.626 1838.07 552.593 1840.42 590.731 C 1842.77 628.869 1813.67 661.654 1775.53 663.857 C 1737.59 666.049 1705.02 637.147 1702.68 599.215 C 1700.34 561.282 1729.12 528.602 1767.04 526.121 z"/>
<path transform="translate(0,0)" fill="rgb(253,127,201)" d="M 1766.28 541.417 C 1795.94 538.458 1822.35 560.18 1825.17 589.854 C 1827.99 619.527 1806.15 645.838 1776.46 648.523 C 1746.97 651.189 1720.87 629.519 1718.07 600.039 C 1715.26 570.559 1736.81 544.357 1766.28 541.417 z"/>
<path transform="translate(0,0)" fill="rgb(37,24,64)" d="M 1767.56 584.712 C 1772.78 582.648 1778.69 585.137 1780.87 590.315 C 1783.04 595.493 1780.67 601.457 1775.54 603.738 C 1772.13 605.257 1768.16 604.809 1765.16 602.569 C 1762.17 600.328 1760.63 596.644 1761.12 592.939 C 1761.62 589.234 1764.08 586.087 1767.56 584.712 z"/>
<path transform="translate(0,0)" fill="rgb(253,207,85)" d="M 262.696 519.457 C 304.722 515.479 342.04 546.266 346.12 588.283 C 350.201 630.299 319.505 667.691 277.499 671.875 C 235.347 676.073 197.796 645.247 193.702 603.085 C 189.607 560.923 220.524 523.448 262.696 519.457 z"/>
<path transform="translate(0,0)" fill="rgb(37,24,64)" d="M 263.963 527.271 C 301.477 524.066 334.547 551.736 338.01 589.228 C 341.473 626.719 314.032 659.979 276.565 663.7 C 238.732 667.458 205.075 639.689 201.577 601.831 C 198.08 563.972 226.081 530.507 263.963 527.271 z"/>
<path transform="translate(0,0)" fill="rgb(253,127,201)" d="M 264.37 542.632 C 293.69 539.57 319.944 560.849 323.019 590.168 C 326.094 619.486 304.826 645.749 275.508 648.837 C 246.173 651.926 219.891 630.642 216.814 601.306 C 213.738 571.969 235.032 545.696 264.37 542.632 z"/>
<path transform="translate(0,0)" fill="rgb(37,24,64)" d="M 265.445 585.508 C 270.716 583.537 276.587 586.217 278.551 591.492 C 280.514 596.767 277.824 602.634 272.546 604.589 C 267.28 606.54 261.428 603.857 259.469 598.594 C 257.51 593.33 260.184 587.475 265.445 585.508 z"/>
<path transform="translate(0,0)" fill="rgb(253,127,201)" d="M 935.563 726.395 C 948.562 725.268 961.978 729.554 972.277 737.384 C 988.004 749.341 996.804 769.715 999.402 788.849 C 1002.64 812.71 1000.1 841.587 984.783 861.205 C 973.7 875.402 960.059 880.695 942.78 882.988 C 927.257 883.215 913.963 880.945 901.469 870.714 C 885.543 857.671 877.506 837.228 875.408 817.193 C 872.927 793.502 876.917 765.931 892.548 747.082 C 904.117 733.13 918.268 728.128 935.563 726.395 z"/>
<path transform="translate(0,0)" fill="rgb(37,24,64)" d="M 930.023 741.188 C 939.579 740.603 947.777 741.279 956.389 746.015 C 968.433 752.638 976.154 764.369 979.977 777.316 C 985.938 797.508 985.839 827.6 975.231 846.305 C 968.405 858.34 958.367 864.052 945.538 867.813 C 936.026 870.039 925.983 868.897 917.484 863.966 C 905.352 856.927 898.187 843.788 894.844 830.536 C 889.389 808.912 890.407 779.93 902.434 760.53 C 909.298 749.459 917.73 744.24 930.023 741.188 z"/>
<path transform="translate(0,0)" fill="rgb(253,207,85)" d="M 762.685 432.903 C 782.381 432.705 802.079 432.694 821.775 432.87 C 822.512 465.604 821.974 498.425 821.956 531.168 L 821.86 663.617 L 762.397 663.572 C 760.941 586.815 762.007 509.674 762.685 432.903 z"/>
<path transform="translate(0,0)" fill="rgb(253,127,201)" d="M 1187.7 727.909 C 1217.37 727.727 1247.24 727.495 1276.89 728.451 L 1276.81 742.568 L 1202.21 742.875 C 1201.52 757.598 1200.32 772.291 1198.6 786.93 C 1201.1 785.947 1203.62 785.01 1206.21 784.311 C 1223.89 779.546 1247.09 780.949 1262.98 790.511 C 1274.84 797.661 1283.24 809.369 1286.22 822.895 C 1289.04 835.783 1286.91 850.204 1279.31 861.128 C 1269.36 875.45 1254.16 880.15 1237.94 883.014 C 1208.06 883.854 1193.29 877.843 1168.99 861.138 C 1172.96 856.802 1176.85 852.396 1180.67 847.923 C 1185.81 853.605 1191.66 858.487 1198.55 861.905 C 1213.01 869.07 1232.21 870.639 1247.51 865.218 C 1256.54 862.017 1264.1 856.038 1267.89 847.071 C 1271.54 838.449 1271.56 827.957 1267.79 819.377 C 1263.76 810.231 1255.79 803.922 1246.56 800.514 C 1229.04 794.044 1209.51 796.372 1192.82 803.962 C 1189.11 802.735 1185.43 801.421 1181.74 800.149 C 1184.36 776.11 1184.93 751.916 1187.7 727.909 z"/>
<path transform="translate(0,0)" fill="rgb(253,127,201)" d="M 783.552 726.386 C 784.677 726.34 785.803 726.308 786.928 726.288 C 801.418 725.992 818.041 729.49 828.506 740.195 C 835.246 747.144 838.969 756.473 838.865 766.154 C 838.387 794.894 809.86 816.979 790.534 834.718 C 779.225 844.915 768.119 855.336 757.224 865.973 C 786.875 866.493 816.579 866.138 846.24 866.339 L 846.099 880.445 C 814.901 880.843 783.7 881.023 752.5 880.984 C 746.142 881.098 739.319 881.733 733.11 880.32 C 732.554 879.589 732.169 879.19 731.883 878.231 C 730.783 874.539 731.948 871.725 734.067 868.74 C 739.304 861.36 747.57 855.061 754.227 848.977 C 772.037 832.7 804.609 805.008 815.817 784.507 C 820.229 776.436 822.709 767.911 819.793 758.866 C 817.675 752.295 813.17 747.305 806.974 744.303 C 796.26 739.113 782.231 739.312 771.268 743.616 C 756.911 749.254 749.28 759.668 743.444 773.314 C 738.901 771.565 734.472 769.454 730.025 767.473 C 732.393 759.879 735.934 752.33 741.039 746.193 C 751.913 733.118 767.278 728.121 783.552 726.386 z"/>
<path transform="translate(0,0)" fill="rgb(253,127,201)" d="M 1076.03 726.366 C 1078.51 726.178 1081 726.012 1083.49 726.029 C 1098.13 726.135 1114.57 730.588 1124.82 741.551 C 1132.19 749.367 1136.13 759.802 1135.76 770.536 C 1135.5 778.5 1133.15 785.911 1129.19 792.791 C 1116.04 815.579 1077.95 847.275 1057.58 865.882 C 1085.71 866.258 1113.88 865.94 1142.01 865.914 L 1142.04 880.621 L 1058.5 880.786 C 1050.65 880.886 1042.49 881.43 1034.67 880.844 C 1032.29 880.666 1030.93 881.072 1029.32 879.25 C 1029.21 875.971 1029.34 873.944 1031.26 871.146 C 1036.26 863.857 1044.67 857.518 1051.16 851.545 C 1070.56 833.691 1093.45 815.582 1109.71 794.733 C 1116.5 786.025 1121 777.358 1119.24 766.011 C 1118.05 758.293 1114.26 751.552 1107.67 747.199 C 1097.5 740.479 1083.17 739.164 1071.49 741.906 C 1058.02 745.07 1049.15 752.339 1042.18 763.929 C 1037.26 762.306 1032.6 759.884 1027.91 757.688 C 1029.97 754.225 1031.97 750.609 1034.5 747.456 C 1045.56 733.656 1059.13 728.525 1076.03 726.366 z"/>
<path transform="translate(0,0)" fill="rgb(253,127,201)" d="M 1110.63 1042.99 L 1111.88 1043.25 C 1111.96 1043.62 1112.34 1044.04 1112.14 1044.37 C 1111.41 1045.54 1088.36 1059.19 1084.52 1062.18 C 1061.87 1079.83 1044.57 1100.54 1033.64 1127.17 C 1006.31 1112.52 981.971 1106.85 950.986 1107.19 C 945.413 1107.9 939.724 1107.95 934.113 1108.2 L 935.756 1107.4 C 965.326 1093.37 994.715 1094.13 1025.03 1104.81 C 1045.48 1070.33 1073.21 1054.64 1110.63 1042.99 z"/>
<path transform="translate(0,0)" fill="rgb(253,127,201)" d="M 1135.7 1341.21 L 1149.41 1340.31 C 1122.23 1352.97 1099.73 1365.49 1079.25 1387.91 C 1067.5 1372.89 1053.99 1363.58 1037.35 1354.49 C 1029.62 1350.54 1021.46 1347.54 1013.76 1343.46 C 1040.31 1344.26 1059.79 1350.84 1080.41 1367.74 C 1097.27 1352.85 1113.78 1345.79 1135.7 1341.21 z"/>
<path transform="translate(0,0)" fill="rgb(253,127,201)" d="M 1034.28 1208.31 C 1036.05 1207.97 1037.79 1207.86 1039.59 1207.88 C 1059.21 1208.11 1079.58 1220.26 1092.89 1233.91 C 1108.41 1220.86 1126.25 1217.29 1145.92 1215.76 L 1132.66 1222.28 C 1116.42 1229.84 1104.05 1239.63 1092.65 1253.36 C 1076.79 1232.48 1058.31 1218.64 1034.28 1208.31 z"/>
</svg>