<svg version="1.1" xmlns="http://www.w3.org/2000/svg" style="display: block;" viewBox="0 0 2048 1024" width="2048" height="1024">
<path transform="translate(0,0)" fill="rgb(247,242,225)" d="M 0 0 L 2046.67 0 L 2047.67 0 C 2048.72 18.2294 2048.04 36.7465 2048.03 55.0199 L 2048.01 151.532 L 2047.99 450.905 L 2047.98 829.74 L 2048.01 954.107 C 2048.02 977.364 2048.59 1000.77 2047.75 1024 L 2046.61 1024 L 1963.55 1024 L 1949.37 1024 L 1831.59 1024 L 1821.4 1024 L 1677.72 1024 L 1674.79 1024 L 637.3 1024 L 626.214 1024 L 591.9 1024 L 564.253 1024 L 469.957 1024 L 467.12 1024 L 374.062 1024 L 371.676 1024 L 370.679 1024 L 291.656 1024 L 290.002 1024 L 289.168 1024 L 224.969 1024 L 223.005 1024 L 153.926 1024 L 124.406 1024 L 108.156 1024 L 0 1024 L 0 782.332 L 0 778.938 L 0 0 z"/>
<path transform="translate(0,0)" fill="rgb(252,250,237)" d="M 2046.67 0 L 2047.67 0 C 2048.72 18.2294 2048.04 36.7465 2048.03 55.0199 L 2048.01 151.532 L 2047.99 450.905 L 2047.98 829.74 L 2048.01 954.107 C 2048.02 977.364 2048.59 1000.77 2047.75 1024 L 2046.61 1024 C 2048.67 1011.08 2047.08 995.946 2047.03 982.783 L 2046.84 896.892 L 2046.88 588.29 C 2046.87 574.903 2048.76 529.459 2045.8 518.865 L 2045.12 517.099 C 2046.28 515.409 2046.48 513.419 2046.55 511.415 C 2047.26 492.315 2046.78 473.093 2046.89 453.976 L 2046.81 300.145 C 2046.88 200.17 2048.52 99.9449 2046.67 0 z"/>
<path transform="translate(0,0)" fill="rgb(10,107,118)" d="M 554.583 208.068 C 563.729 196.769 587.652 167.167 599.583 161.887 L 600.85 162.665 C 598.134 167.725 582.21 181.304 576.879 186.897 A 289.326 289.326 0 0 0 558.845 207.636 C 568.249 205.567 577.98 204.403 587.495 202.895 C 607.329 199.504 627.757 198.13 647.836 197.097 C 661.455 197.396 695.592 193.843 705.849 196.93 C 700.162 201.823 656.286 199.698 644.729 201.726 C 624.087 203.27 604.074 205.414 583.679 208.91 A 1053.93 1053.93 0 0 0 553.195 213.207 C 563.601 217.305 601.353 229.759 606.164 237.507 L 604.726 238.475 C 588.54 231.907 559.308 214.07 542.355 215.977 L 541.589 216.134 C 534.154 218.277 526.643 220.004 519.1 221.724 A 596.203 596.203 0 0 0 495.326 228.094 C 489.253 230.325 483.012 232.385 477.085 234.969 C 474.888 234.037 473.201 231.84 471.556 230.148 L 493.879 222.501 C 501.623 219.925 509.458 217.735 517.317 215.547 A 1514.5 1514.5 0 0 1 536.804 211.292 L 543.506 209.978 C 547.336 209.959 550.887 208.985 554.583 208.068 z"/>
<path transform="translate(0,0)" fill="rgb(244,121,104)" d="M 647.836 197.097 C 674.421 181.701 701.415 176.978 731.361 184.979 C 737.033 186.495 743.07 188.218 746.692 193.137 C 747.062 194.749 747.77 196.148 746.846 197.692 C 742.683 204.651 720.548 211.272 712.633 212.589 C 695.136 215.501 659.466 210.758 644.729 201.726 C 656.286 199.698 700.162 201.823 705.849 196.93 C 695.592 193.843 661.455 197.396 647.836 197.097 z"/>
<path transform="translate(0,0)" fill="rgb(244,121,104)" d="M 553.195 213.207 A 1053.93 1053.93 0 0 1 583.679 208.91 C 601.944 214.409 625.804 221.589 635.461 239.876 C 637.044 242.875 638.006 246.325 637.087 249.693 C 636.265 252.704 633.762 254.996 631.066 256.382 C 621.847 261.121 609.093 258.938 599.644 255.684 C 579.014 248.577 556.61 232.309 542.355 215.977 C 559.308 214.07 588.54 231.907 604.726 238.475 L 606.164 237.507 C 601.353 229.759 563.601 217.305 553.195 213.207 z"/>
<path transform="translate(0,0)" fill="rgb(251,199,124)" d="M 1308.96 127.158 L 1308.54 128.085 C 1295.99 136.901 1252.24 141.881 1237.04 140.906 C 1228.14 140.334 1215.72 138.557 1209.68 131.402 C 1207.52 128.835 1206.67 125.778 1206.95 122.458 C 1207.32 118.185 1209.6 114.639 1212.83 111.913 C 1225.93 100.856 1250.32 100.195 1266.5 101.628 C 1281.86 102.988 1305.8 109.117 1316.18 121.485 L 1315.77 123.846 C 1303.24 122.57 1259.64 117.217 1249.72 122.015 L 1249.36 123.72 C 1254.16 126.162 1296.81 122.476 1308.96 127.158 z"/>
<path transform="translate(0,0)" fill="rgb(244,121,104)" d="M 477.085 234.969 C 483.012 232.385 489.253 230.325 495.326 228.094 C 516.699 234.311 549.218 244.786 560.489 265.899 C 562.03 268.785 563.027 272.42 562.033 275.645 C 561.126 278.588 558.674 280.706 555.96 281.972 C 544.316 287.402 526.961 283.186 515.482 278.731 C 504.616 274.515 465.507 254.034 460.973 243.332 C 460.717 242.727 460.539 242.111 460.429 241.466 L 460.852 241.188 C 469.605 238.179 498.616 250.11 507.735 254.096 C 513.853 256.77 520.359 260.994 527.001 261.925 L 528.174 261.036 C 522.782 254.632 496.351 246.056 487.767 243.341 C 482.746 241.753 476.069 240.838 471.706 237.995 C 472.927 236.17 475.075 235.784 477.085 234.969 z"/>
<path transform="translate(0,0)" fill="rgb(244,121,104)" d="M 543.506 209.978 C 543.531 209.476 543.566 208.974 543.614 208.474 C 545.355 190.559 560.102 170.398 573.641 159.316 C 585.919 149.265 603.505 140.335 619.819 142.139 C 623.223 142.516 627.053 143.576 629.175 146.478 C 631.129 149.15 631.151 152.615 630.573 155.736 C 626.971 175.194 602.548 192.208 587.495 202.895 C 577.98 204.403 568.249 205.567 558.845 207.636 A 289.326 289.326 0 0 1 576.879 186.897 C 582.21 181.304 598.134 167.725 600.85 162.665 L 599.583 161.887 C 587.652 167.167 563.729 196.769 554.583 208.068 C 550.887 208.985 547.336 209.959 543.506 209.978 z"/>
<path transform="translate(0,0)" fill="rgb(244,121,104)" d="M 310.991 349.518 C 338.765 340.068 373.49 327.877 402.084 341.788 C 407.21 344.281 412.477 348.128 414.336 353.765 C 415.469 357.199 415.09 360.781 413.389 363.962 C 409.841 370.596 402.051 374.319 395.108 376.217 C 371.459 382.682 317.606 377.403 296.282 365.022 C 301.347 364.411 306.611 362.563 311.608 361.419 C 321.294 359.201 330.983 357.615 340.91 357.041 C 351.429 356.433 371.96 359.764 380.295 357.434 C 361.565 348.413 319.532 356.195 299.466 361.066 C 303.21 357.089 306.97 353.22 310.991 349.518 z"/>
<path transform="translate(0,0)" fill="rgb(244,121,104)" d="M 454.152 236.292 A 44.4937 44.4937 0 0 1 453.795 231.508 C 453.253 207.593 459.181 186.461 476.222 169.05 C 484.773 160.314 497.114 153.114 509.638 153.215 C 514.658 153.256 519.712 154.659 523.284 158.349 C 526.419 161.588 527.556 165.911 527.416 170.324 C 526.775 190.396 507.673 209.916 493.879 222.501 L 471.556 230.148 C 469.321 230.879 467.845 231.771 465.519 231.066 C 468.615 223.836 474.297 217.442 478.708 210.969 C 484.19 202.925 493.204 187.227 496.481 178.16 L 496.005 177.096 C 494.422 177.893 493.447 178.81 492.506 180.293 C 489.165 185.559 486.811 191.394 483.822 196.859 C 476.616 210.038 466.365 227.141 455.32 237.377 L 454.152 236.292 z"/>
<path transform="translate(0,0)" fill="rgb(244,121,104)" d="M 396.932 276.609 C 423.302 275.564 457.478 271.77 478.684 291.275 C 481.994 294.319 484.676 298.036 484.793 302.686 C 484.893 306.646 482.905 310.219 480.162 312.956 C 472.219 320.881 459.003 322.726 448.219 322.543 C 430.431 322.241 383.937 307.175 368.895 297.13 C 385.171 293.375 405.868 294.462 422.214 296.779 C 427.716 297.56 448.133 303.669 451.44 302.894 L 451.691 301.591 C 451.484 301.409 451.283 301.219 451.07 301.044 C 449.066 299.392 444.813 298.433 442.312 297.662 C 420.173 290.833 394.668 290.443 371.892 293.601 A 634.087 634.087 0 0 1 396.932 276.609 z"/>
<path transform="translate(0,0)" fill="rgb(251,199,124)" d="M 1376.83 166.005 C 1377.36 167.343 1377.65 168.676 1377.33 170.105 C 1373.37 188.071 1353.18 207.332 1337.68 216.068 C 1322.54 224.595 1301.04 229.296 1284.06 224.389 C 1277.5 222.491 1271.03 218.6 1267.78 212.379 C 1265.76 208.517 1265.18 204.173 1266.55 199.997 C 1273.42 179.008 1305.01 180.801 1322.55 178.847 A 137.657 137.657 0 0 0 1344.41 174.387 C 1358.71 170.221 1369.89 162.596 1382.88 156.017 C 1381.52 160.715 1350.36 181.989 1344.86 185.023 C 1337.06 189.32 1327.9 193.475 1319.21 195.546 C 1312.09 197.245 1304.15 197.906 1297.46 200.887 L 1297.27 201.69 C 1314.37 205.396 1340.84 191.9 1354.75 182.942 C 1361.25 178.761 1372.16 172.045 1376.83 166.005 z"/>
<path transform="translate(0,0)" fill="rgb(244,121,104)" d="M 283.677 360.919 L 282.248 358.285 C 268.461 332.789 258.478 306.16 267.286 277.026 C 269.671 269.138 275.769 255.109 283.393 251.518 C 286.171 250.209 289.515 250.41 292.345 251.49 C 299.879 254.363 305.025 263.22 308.218 270.247 C 318.196 292.208 316.675 313.093 308.368 335.098 L 291.799 353.718 C 295.503 335.29 298.618 301.711 292.615 283.604 L 291.046 282.184 C 289.021 285.012 291.44 295.57 291.868 299.211 C 294.02 317.513 291.641 337.045 289.516 355.27 C 287.652 357.116 285.743 359.328 283.677 360.919 z"/>
<path transform="translate(0,0)" fill="rgb(244,121,104)" d="M 360.138 290.322 C 353.562 266.844 351.731 242.85 361.701 219.938 C 366.909 207.97 376.509 195.704 388.964 190.932 C 393.569 189.168 398.764 188.485 403.37 190.646 C 408.098 192.864 410.978 197.413 412.624 202.21 C 419.266 221.565 412.858 243.015 404.314 260.588 A 2072.35 2072.35 0 0 0 374.539 280.18 C 380.537 263.683 391.383 231.976 389.868 215.386 L 388.968 214.113 L 387.713 214.864 C 383.692 238.356 378.123 260.154 370.986 282.896 C 367.394 285.129 363.087 287.279 360.138 290.322 z"/>
<path transform="translate(0,0)" fill="rgb(251,199,124)" d="M 1386.74 125.993 C 1379.93 109.277 1347.87 87.2888 1333.54 75.6782 C 1323.72 67.7231 1313.01 56.3036 1311.84 43.1705 C 1311.42 38.4109 1312.45 33.6858 1315.6 29.9876 C 1319.66 25.209 1326.45 22.5745 1332.61 22.2529 C 1345.01 21.6058 1356.78 29.1779 1365.55 37.3267 C 1381.36 52.0211 1393.57 74.0191 1394.33 95.8855 C 1394.58 103.062 1395.22 119.851 1390.42 125.019 C 1392.41 117.02 1377.36 88.4029 1373.12 81.3398 C 1368.62 73.8317 1353.3 53.0168 1344.71 51.1699 C 1344.13 51.046 1343.78 51.1011 1343.16 51.1181 L 1342.77 52.6749 C 1348.37 57.7498 1355.08 62.9133 1359.9 68.6818 C 1368.89 79.4115 1386.09 109.668 1387.21 123.492 C 1387.29 124.478 1387.05 125.077 1386.74 125.993 z"/>
<path transform="translate(0,0)" fill="rgb(244,121,104)" d="M 245.208 429.81 C 272.781 414.856 310.697 397.155 342.805 406.693 C 349.062 408.552 354.438 412.14 357.548 418.009 C 359.875 422.4 361.091 427.818 359.524 432.658 C 357.735 438.18 352.814 441.813 347.782 444.227 C 321.565 456.801 262.443 452.903 233.159 448.38 C 241.398 447.077 250.9 442.608 258.917 439.864 C 268.615 436.544 278.455 433.852 288.403 431.395 C 301.335 428.2 316.192 429.208 328.533 424.353 C 328.363 424.258 328.204 424.14 328.023 424.066 C 325.848 423.177 321.287 423.747 318.852 423.838 C 290.391 424.907 259.8 434.808 233.724 445.824 C 237.349 440.44 240.826 434.599 245.208 429.81 z"/>
<path transform="translate(0,0)" fill="rgb(244,121,104)" d="M 223.446 441.109 C 212.853 429.703 202.515 416.965 193.603 404.194 C 182.113 387.729 176.64 371.125 180.291 351.028 C 181.772 342.877 186.089 327.908 193.244 323.241 C 195.462 321.794 197.318 321.569 199.853 322.236 C 210.367 325.004 221.889 338.941 227.51 347.896 C 242.448 371.691 241.903 396.425 235.794 422.859 C 232.389 428.736 228.724 434.281 224.784 439.812 C 225.935 417.626 220.916 370.336 204.888 353.883 C 204.219 353.195 203.631 352.838 202.809 352.356 C 202.204 356.092 212.262 374.373 214.069 379.463 C 218.718 392.561 221.054 406.275 221.885 420.122 C 222.286 426.816 221.853 434.639 223.446 441.109 z"/>
<path transform="translate(0,0)" fill="rgb(244,121,104)" d="M 193.35 521.664 C 215.545 501.538 249.791 487.087 280.081 488.678 C 289.139 489.154 299.238 491.772 305.561 498.726 C 308.825 502.316 310.99 507.044 310.694 511.966 C 310.342 517.824 306.761 522.82 302.434 526.53 C 278.776 546.81 215.075 543.838 184.442 541.133 C 194.858 528.301 238.391 516.994 254.811 513.335 C 260.741 512.013 270.446 511.948 275.505 509.079 L 275.36 507.825 C 275.066 507.701 274.777 507.566 274.478 507.455 C 272.037 506.545 266.621 508.017 264.016 508.473 C 237.421 513.122 212.225 522.257 187.796 533.578 L 193.35 521.664 z"/>
<path transform="translate(0,0)" fill="rgb(244,121,104)" d="M 173.604 537.113 C 157.5 521.398 124.945 489.848 117.736 469.803 C 111.822 453.357 112.887 432.671 120.687 416.961 C 122.828 412.649 125.437 409.659 130.09 408.158 C 139.725 408.726 152.654 420.479 159.19 427.335 C 181.559 450.801 185.458 479.192 184.641 510.303 C 182.401 517.213 178.422 525.057 174.67 531.29 C 172.585 507.852 157.931 460.716 140.015 444.374 L 138.727 444.221 C 141.767 452.847 148.796 461.363 152.889 469.804 C 163.699 492.095 168.554 513.09 173.604 537.113 z"/>
<path transform="translate(0,0)" fill="rgb(251,199,124)" d="M 1486.54 175.34 C 1486.55 166.94 1485.13 158.261 1483.89 149.963 C 1478.6 114.489 1470.34 109.976 1456.36 80.219 C 1451.42 69.7069 1447.55 57.4838 1451.85 46.0754 C 1453.73 41.0828 1457.91 36.8796 1462.74 34.6884 C 1469.3 31.712 1477.41 32.5769 1483.94 35.2293 C 1497.52 40.7496 1507.25 54.4172 1512.87 67.5059 C 1522.19 89.2019 1522.89 113.482 1514.05 135.399 C 1511.1 142.692 1499.72 167.271 1492.62 169.995 C 1492.45 170.062 1492.27 170.11 1492.09 170.168 C 1499.72 160.625 1499.5 122.903 1498.16 110.616 C 1496.99 99.8854 1491.21 71.412 1482.75 64.8741 C 1481.92 64.2369 1480.93 63.8497 1479.95 63.5299 L 1479.1 63.9367 C 1482.38 72.5873 1487.72 80.4041 1490.6 89.2284 C 1497.53 110.503 1498 151.043 1489.11 171.759 C 1488.55 173.076 1487.56 174.351 1486.54 175.34 z"/>
<path transform="translate(0,0)" fill="rgb(244,121,104)" d="M 132.57 647.88 C 111.54 613.732 71.3551 596.385 64.9985 556.746 C 63.3201 546.28 63.3277 526.225 69.8717 517.627 C 71.4988 515.489 73.813 513.953 76.5375 513.701 C 85.8161 512.843 97.356 521.175 104.078 527.149 C 129.511 549.754 140.43 587.016 142.467 619.881 C 140.464 629.063 138.203 638.455 134.828 647.237 C 131.239 636.236 129.688 624.567 126.516 613.408 C 120.208 591.215 103.342 554.108 85.3756 539.262 L 84.0173 539.618 C 84.0656 540.187 83.998 540.777 84.1622 541.324 C 84.8883 543.739 90.8939 549.775 92.7106 552.175 A 199.839 199.839 0 0 1 107.931 575.843 C 120.474 598.786 126.15 622.855 132.57 647.88 z"/>
<path transform="translate(0,0)" fill="rgb(244,121,104)" d="M 155.539 623.884 C 175.865 598.645 204.407 581.601 237.043 578.075 C 249.46 576.733 262.643 577.52 272.693 585.821 C 277.409 589.716 281.176 595.113 281.638 601.36 C 282.07 607.182 279.399 612.463 275.567 616.677 C 252.296 642.269 182.773 641.943 149.811 643.592 C 149.664 643.599 149.518 643.602 149.371 643.607 C 166.265 626.585 194.068 614.913 216.911 608.875 C 225.39 606.633 236.018 605.368 243.749 601.321 L 243.525 600.218 C 243.376 600.193 243.228 600.163 243.078 600.142 C 237.977 599.446 230.77 601.694 225.824 602.969 C 198.651 609.971 173.729 621.204 150.973 637.587 L 155.539 623.884 z"/>
<path transform="translate(0,0)" fill="rgb(244,121,104)" d="M 104.297 768.885 C 98.8457 759.539 92.8049 750.913 85.3569 743.034 C 66.1627 722.728 40.5854 706.4 34.7849 677.212 C 32.4278 665.35 31.965 645.839 39.1644 635.574 C 40.7747 633.279 43.1933 631.304 46.0615 630.999 C 53.1687 630.243 65.2445 638.799 70.8449 643.155 C 99.6764 665.577 110.421 697.157 114.781 732.15 L 109.031 775.868 C 100.427 739.975 90.4854 705.732 69.1926 674.983 C 66.4105 670.965 62.8595 664.615 58.8053 661.784 C 58.1417 661.321 57.5351 661.19 56.76 661.018 L 56.1032 661.758 C 60.6588 669.617 67.0637 676.206 71.8053 683.97 C 85.583 706.527 101.133 742.521 104.297 768.885 z"/>
<path transform="translate(0,0)" fill="rgb(251,199,124)" d="M 1531.98 232.109 L 1531.49 233.439 C 1517.89 236.11 1506.07 240.492 1494.08 247.5 C 1467.87 262.804 1437.12 296.864 1404.56 293.733 C 1395.04 292.817 1384.26 288.426 1378.1 280.83 C 1373.85 275.594 1372.82 268.784 1373.66 262.242 C 1375.06 251.347 1381.32 242.609 1389.85 236 C 1422.83 210.461 1474.62 215.183 1513.41 221.026 C 1523.67 222.572 1533.69 225.122 1543.99 226.469 L 1544.99 227.889 C 1508.9 229.446 1475.33 230.738 1441.42 244.811 C 1434.55 247.663 1425.89 251.177 1420.7 256.656 L 1420.52 258.214 L 1422.17 258.732 C 1427.43 255.922 1432.54 252.338 1437.92 249.875 C 1464.35 237.791 1502.97 229.898 1531.98 232.109 z"/>
<path transform="translate(0,0)" fill="rgb(251,199,124)" d="M 1584.22 220.084 C 1584.31 219.836 1584.4 219.589 1584.49 219.34 C 1590.71 201.699 1590.63 170.52 1589.49 152.141 C 1587.83 125.498 1575.82 79.9967 1606.76 64.7 C 1614.05 61.0952 1622.55 60.9596 1630.14 63.7088 C 1640.89 67.5993 1648.69 76.5689 1653.28 86.8161 C 1663 108.527 1657.99 135.149 1649.76 156.508 C 1639.33 183.608 1613.43 215.436 1586.47 227.291 C 1585.69 227.633 1584.97 227.895 1584.15 228.077 C 1594.31 218.156 1609.36 182.006 1614.25 168.139 C 1618.74 155.394 1628.87 115.368 1623.33 103.77 L 1621.99 103.587 C 1619.71 107.97 1620.37 125.276 1619.51 131.4 C 1615.75 158.212 1605.66 184.554 1592.53 208.142 C 1590.51 211.77 1588.07 217.376 1584.63 219.812 C 1584.5 219.908 1584.36 219.993 1584.22 220.084 z"/>
<path transform="translate(0,0)" fill="rgb(244,121,104)" d="M 193.374 139.332 C 206.346 138.309 219.155 141.154 230.038 148.48 A 53.4118 53.4118 0 0 1 252.669 182.501 C 255.168 195.386 252.883 208.761 245.443 219.668 C 235.928 233.618 221.929 240.441 205.829 243.4 C 191.768 244.213 178.561 241.713 166.693 233.601 C 155.522 225.965 147.592 214.428 145.145 201.055 C 142.706 187.727 146.118 173.945 153.829 162.887 C 163.563 148.925 176.976 142.329 193.374 139.332 z"/>
<path transform="translate(0,0)" fill="rgb(251,199,124)" d="M 1635.77 322.272 C 1632.97 323.695 1628.9 324.22 1625.84 325.188 C 1618.49 327.517 1610.91 330.513 1604.3 334.534 C 1595.58 339.844 1587.58 346.775 1579.51 353.035 C 1557.72 369.94 1534.1 387.204 1507.45 395.297 C 1491.91 400.016 1471.83 402.613 1457 394.405 C 1450.2 390.643 1444.68 384.215 1442.6 376.662 C 1440.14 367.737 1443.01 357.825 1447.57 350.072 C 1459.04 330.619 1484.12 320.073 1504.99 314.7 C 1534.51 307.102 1565.87 308.353 1595.56 314.429 C 1599.88 315.313 1607.25 316.217 1610.98 318.619 C 1611.25 318.795 1611.52 318.987 1611.79 319.171 C 1611.63 319.223 1611.48 319.279 1611.32 319.329 C 1601.08 322.562 1588.41 322.165 1577.69 324.089 C 1559.85 327.29 1504.6 344.458 1494.09 357.796 L 1494.59 359.343 C 1499.36 359.239 1525.81 343.33 1533.67 340.335 C 1563.86 328.829 1603.12 320.999 1635.77 322.272 z"/>
<path transform="translate(0,0)" fill="rgb(251,199,124)" d="M 1766.99 134.298 C 1766.95 134.131 1766.93 133.961 1766.88 133.797 C 1765.23 127.907 1734 105.083 1727.81 99.4121 C 1713.68 86.4617 1684.57 54.8912 1695.16 34.3716 C 1696.83 31.1395 1699.62 28.6774 1703.14 27.6509 C 1710.49 25.5019 1718.8 28.6191 1725.15 32.267 C 1757.18 50.6817 1768.28 88.6942 1785.3 118.875 C 1788.78 125.064 1796.98 133.022 1798.57 139.73 C 1798.77 140.566 1798.82 141.417 1798.82 142.273 C 1798.92 142.052 1799.03 141.834 1799.13 141.611 C 1805.07 128.226 1795.26 103.092 1810.48 85.0346 C 1812.34 82.8227 1815 79.8967 1817.74 78.7909 C 1821.5 77.267 1826.83 77.8516 1830.38 79.6941 C 1837.88 83.5895 1842.38 91.1501 1844.78 99.0038 C 1852.59 124.603 1843.94 152.045 1846.71 177.484 C 1847.56 185.368 1855.45 204.103 1854.82 208.88 C 1854.97 208.699 1855.11 208.52 1855.25 208.336 C 1858.98 203.403 1859.65 194.973 1861.62 189.079 C 1866.98 172.982 1881.3 138.072 1900.56 135.084 C 1906.27 134.199 1912.31 136.082 1916.91 139.483 C 1922.48 143.608 1925.24 149.905 1926.06 156.651 C 1929.87 187.972 1902.08 222.2 1895.41 252.906 C 1892.42 266.681 1898.83 287.173 1897.47 292.075 C 1897.67 291.866 1897.87 291.66 1898.07 291.448 C 1903.94 285.202 1907.77 275 1911.79 267.415 C 1920.67 250.663 1938.65 219.407 1960.14 218.083 C 1967.19 217.649 1973.51 221.147 1978.54 225.817 C 1985.02 231.844 1988.02 239.658 1988.28 248.444 C 1989.05 275.077 1961.82 300.845 1944.46 318.838 C 1936.53 327.065 1918.83 348.571 1908.58 352.001 C 1910.83 347.273 1911.77 340.789 1913.3 335.699 A 236.128 236.128 0 0 1 1924.18 306.577 C 1927.28 299.819 1930.46 292.344 1934.54 286.142 C 1937.69 281.353 1945.53 272.999 1946.28 267.629 L 1944.28 267.331 C 1934.37 272.044 1917.73 312.433 1914 322.73 C 1911.47 329.707 1909.35 341.937 1905.05 347.655 C 1904.93 347.809 1904.8 347.955 1904.68 348.104 C 1905.38 339.801 1883.4 298.51 1878.73 287.854 C 1866.35 259.635 1880.12 222.567 1889.54 195.374 C 1890.26 193.301 1890.18 192.241 1889.28 190.305 C 1881.93 194.985 1873.76 236.314 1872.41 245.277 C 1871.13 253.73 1871.28 262.991 1869.13 271.203 L 1868.91 272.009 C 1869.84 266.067 1841.07 221.465 1836.32 214.102 C 1833.35 209.49 1828.09 203.502 1826.16 198.527 C 1825.51 196.867 1824.75 196.129 1823.48 194.919 C 1824.18 183.135 1830.82 133.201 1829.36 127.019 L 1827.86 126.451 C 1822.93 130.126 1823.42 178.77 1818.99 188.27 C 1818.87 188.514 1818.75 188.754 1818.63 188.996 C 1817.15 179.616 1756.52 98.937 1747.73 91.6745 L 1746.22 92.3899 C 1746.62 100.711 1791.92 146.641 1792.37 157.668 C 1792.38 157.862 1792.37 158.057 1792.37 158.251 C 1792.09 157.878 1791.73 157.343 1791.38 157.006 C 1781.85 147.928 1733.99 135.569 1720.77 136.382 L 1720.72 137.254 C 1729.3 140.856 1738.99 141.489 1747.96 143.934 C 1765.03 148.59 1781.39 155.291 1797.34 162.909 C 1800.37 166.591 1808.28 175.056 1807.9 179.862 C 1797.29 174.405 1786.91 169.557 1775.3 166.521 C 1755.22 161.266 1702.63 158.829 1694.91 136.076 C 1693.67 132.412 1693.92 128.655 1695.73 125.226 C 1697.9 121.105 1702.01 118.403 1706.38 117.093 C 1723.86 111.86 1751.55 126.407 1766.99 134.298 z"/>
<path transform="translate(0,0)" fill="rgb(244,121,104)" d="M 1674.79 1024 C 1683.63 1018.61 1705.15 1005.73 1709.16 996.127 C 1710.41 993.128 1709.99 991.031 1708.71 988.147 C 1704.21 983.399 1697.36 985.353 1691.66 986.506 A 153.436 153.436 0 0 0 1664.04 994.594 C 1649.65 1000.41 1618.21 1019.48 1603.1 1014.7 C 1600.21 1013.79 1597.84 1012.11 1596.48 1009.33 C 1585.63 987.266 1630.38 975.709 1635.06 958.107 C 1635.74 955.529 1634.97 952.936 1633.51 950.781 C 1622.59 934.609 1538.17 1002.59 1513.7 997.059 C 1510.16 996.257 1506.76 994.151 1504.98 990.892 C 1494.11 970.937 1549.38 947.582 1554.57 929.854 C 1554.21 927.2 1554.35 927.018 1552.35 925.292 C 1537.37 921.815 1490.77 949 1475.53 955.945 A 186.584 186.584 0 0 1 1450.45 965.302 C 1442.05 967.745 1430.8 968.163 1422.96 963.635 C 1419.69 961.751 1417.34 959.085 1416.38 955.399 C 1408.86 926.43 1462.76 919.005 1471.54 903.417 C 1471.51 902.605 1471.71 901.166 1471.19 900.551 C 1469.04 897.986 1464.69 897.456 1461.51 897.355 C 1454.38 897.128 1446.59 898.981 1439.44 899.696 C 1420.82 901.557 1401.87 903.032 1383.2 901.372 C 1368.01 900.022 1342.79 896.198 1332.49 883.506 C 1329.48 879.808 1328.36 875.356 1328.91 870.647 C 1329.68 864.107 1333.11 859.421 1338.24 855.472 C 1362.57 836.755 1413.17 840.72 1441.93 845.241 C 1451.01 846.668 1459.86 849.405 1469.02 850.564 C 1472.64 851.02 1478.42 852.043 1481.47 849.662 C 1481.51 841.638 1452.47 824.161 1446.35 815.174 C 1444.17 811.968 1442.15 807.629 1443.12 803.653 C 1443.84 800.698 1445.71 798.358 1448.26 796.757 C 1453.27 793.606 1460.21 794.361 1465.68 795.685 C 1503.85 804.925 1542.43 863.476 1558.69 866.276 C 1561.84 866.819 1564.34 866.491 1567.02 864.656 C 1573.04 852.873 1539.15 827.668 1537.44 810.529 C 1537.13 807.395 1537.63 804.414 1539.85 802.011 C 1542.47 799.172 1546.66 798.221 1550.38 798.232 C 1581.11 798.32 1602.38 851.009 1621.77 869.588 C 1625.22 872.889 1627.93 873.697 1632.63 873.551 C 1633.44 873.116 1634.9 872.63 1635.24 871.787 C 1638.57 863.534 1623.29 843.228 1619.96 834.682 C 1617.62 828.696 1615.85 821.378 1618.7 815.243 C 1620.15 812.109 1623.47 809.01 1626.79 807.968 C 1653.55 799.573 1673.96 871.054 1681.84 885.855 C 1683.9 889.722 1686.21 892.802 1690.11 894.899 C 1691 894.963 1692.36 895.279 1693.18 894.917 C 1707.74 888.435 1682.88 852.535 1689.67 837.584 C 1690.74 835.228 1692.56 833.353 1695.06 832.557 C 1699.09 831.277 1704.02 832.116 1707.66 834.153 C 1726.21 844.541 1732.35 889.903 1738.16 909.406 C 1739.57 914.116 1741.48 919.33 1746.02 921.786 C 1748.75 922.039 1749.28 922.212 1751.65 920.918 C 1758.71 910.499 1749.31 875.221 1751.3 860.619 C 1752.01 855.408 1753.7 849.592 1758.14 846.331 C 1761.42 843.93 1765.94 843.47 1769.85 844.136 C 1773.63 844.781 1776.99 847.253 1779.15 850.367 C 1797.48 876.813 1799.8 943.284 1811.82 978.381 C 1814.23 985.436 1830.67 1015.21 1829.81 1019.79 L 1831.64 1021.62 L 1831.59 1024 L 1821.4 1024 L 1677.72 1024 L 1674.79 1024 z"/>
<path transform="translate(0,0)" fill="rgb(246,137,116)" d="M 1819.81 1021.93 L 1821.4 1024 L 1677.72 1024 C 1690.23 1021.98 1704.06 1022.95 1716.77 1022.93 L 1789.13 1022.97 C 1798.17 1022.97 1811.17 1024.36 1819.81 1021.93 z"/>
<path transform="translate(0,0)" fill="rgb(8,34,59)" d="M 1529.37 883.669 C 1530.73 867.582 1490.23 838.989 1483.29 826.714 C 1488.78 827.049 1499.75 837.638 1503.41 841.517 C 1510.5 849.023 1534.56 874.572 1534.29 883.965 C 1545.57 885.995 1594.49 895.48 1602.11 902.12 C 1604.92 890.444 1584.21 854.873 1577.51 844.835 C 1573.89 839.415 1567.98 833.561 1565.31 827.813 L 1566.5 826.857 C 1572.52 829.344 1579.57 841.427 1582.96 846.907 C 1588.59 856.003 1609.08 893.229 1606.76 903.101 C 1616.45 904.83 1658.05 919.492 1664.53 925.353 C 1664.59 925.122 1664.65 924.889 1664.71 924.66 C 1668.45 911.865 1650.68 869.497 1644.73 856.592 C 1641.95 850.565 1635.92 842.245 1635.21 835.946 L 1636.47 835.145 C 1641.24 837.912 1652.88 865.235 1655.24 871.723 C 1658.3 880.154 1672.45 919.814 1669.15 926.914 C 1674.93 928.135 1694.27 936.272 1697.92 940.849 C 1704.94 942.412 1723.62 951.438 1728.5 956.489 C 1728.57 956.339 1728.64 956.192 1728.7 956.039 C 1732.54 946.172 1712.67 880.384 1708.35 867.879 C 1707.49 865.394 1704.12 858.728 1706.68 857.392 C 1715.57 866.754 1733.4 942.628 1733 956.765 C 1732.98 957.364 1732.87 957.86 1732.74 958.439 C 1747.87 964.576 1764.98 975.302 1777.94 985.241 C 1777.98 985.11 1778.04 984.98 1778.08 984.846 C 1780.93 976.135 1763.15 884.688 1769.63 879.308 C 1773.76 884.922 1772.85 904.216 1773.61 911.702 C 1774.77 923.232 1783.05 980.368 1782.18 986.51 C 1782.12 986.934 1782.04 987.355 1781.95 987.774 C 1799.73 995.193 1813.05 1010.9 1829.81 1019.79 L 1831.64 1021.62 L 1831.59 1024 L 1821.4 1024 L 1819.81 1021.93 C 1819.79 1021.74 1819.78 1021.54 1819.73 1021.36 C 1818.53 1016.9 1788.05 997.541 1782.34 994.346 C 1776.36 996.868 1768.42 996.92 1762.03 999 C 1752.4 1002.14 1720.93 1016.17 1715.04 1016.56 C 1715.16 1016.28 1715.34 1015.82 1715.53 1015.55 C 1722.7 1005.78 1763.65 994.809 1776.4 991.395 C 1773.07 985.808 1728.71 961.269 1720.39 957.424 A 324.066 324.066 0 0 0 1659.14 975.569 C 1650.23 979.171 1641.37 985.133 1632.11 987.464 L 1631.14 986.645 C 1632.86 983.78 1638.45 981.442 1641.48 979.874 C 1657.21 971.728 1673.72 965.619 1690.75 960.838 C 1698.09 958.777 1705.99 957.515 1713.09 954.851 C 1713.27 954.784 1713.45 954.713 1713.62 954.644 C 1710.67 949.912 1698.21 945.518 1692.94 943.028 C 1679.82 936.546 1666 929.153 1651.91 925.121 C 1630.37 929.287 1608.23 935.752 1588.34 944.937 C 1581.92 947.899 1551.3 965.667 1549.86 965.756 L 1549.21 964.659 L 1550.07 962.31 C 1559.6 952.179 1599 936.262 1612.22 932.013 C 1623.13 928.506 1634.34 926.247 1645.3 922.985 C 1638.58 917.025 1601.44 906.428 1590.33 902.931 C 1581.26 900.075 1570.81 896.54 1561.17 896.729 C 1541.6 897.112 1498.17 917.881 1480.5 927.442 C 1474.83 930.513 1469.73 934.814 1463.96 937.659 C 1462.52 938.369 1461 939.193 1459.47 938.634 L 1460.03 936.603 C 1463.66 932.829 1469.37 930.083 1473.87 927.388 A 286.746 286.746 0 0 1 1528.58 902.087 C 1536.75 899.285 1545.29 897.388 1553.34 894.31 L 1554.09 894.019 C 1549.15 891.462 1542.01 890.571 1536.53 889.318 C 1500.58 881.086 1464.64 878.239 1428.2 873.758 L 1427.07 871.747 L 1425.12 872.552 L 1425.29 872.868 L 1425.74 871.96 C 1438.55 868.347 1517.64 878.386 1528.81 883.401 C 1529 883.486 1529.18 883.58 1529.37 883.669 z"/>
<path transform="translate(0,0)" fill="rgb(8,34,59)" d="M 1230.87 280.494 C 1233.02 280.091 1234.21 280.046 1236.22 280.939 C 1237.09 285.967 1226.98 292.986 1224.18 297.45 C 1226.87 299.968 1230.18 297.799 1233.45 300.755 C 1234.86 306.258 1235.95 312.188 1233.47 317.565 C 1230.07 324.912 1221.24 327.787 1214.17 330.355 C 1215.51 339.242 1192.46 371.87 1189.38 382.591 C 1190.11 384.106 1190.45 385.146 1190.53 386.829 C 1172.33 413.334 1144.55 436.915 1117.6 454.46 C 1119.52 455.837 1121.22 457.563 1122.67 459.428 C 1127 465.01 1128.46 472.823 1127.47 479.72 C 1126.42 487.03 1122.87 493.257 1116.96 497.636 C 1123.15 507.031 1151.17 564.807 1149.91 572.476 C 1139.3 569.785 1128.19 568.312 1117.41 566.393 C 1124.79 571.831 1129.9 586.979 1133.6 595.244 C 1152.97 638.45 1168.27 681.612 1180.35 727.391 C 1184.33 742.479 1185.59 762.986 1192.14 776.453 C 1192.66 776.875 1193.05 777.585 1193.71 777.719 C 1193.88 777.754 1199.69 774.145 1200.29 773.787 A 1173.24 1173.24 0 0 1 1229.37 757.039 C 1303.78 715.306 1587.74 557.887 1659.65 575.758 C 1661.31 576.169 1661.58 576.145 1662.44 577.574 C 1655.64 579.769 1642.52 577.514 1634.64 578.498 C 1614.66 580.991 1594.8 586.824 1575.69 593.11 C 1528.88 608.515 1483.51 629.444 1439.07 650.629 A 3579.47 3579.47 0 0 0 1243.72 752.344 C 1234.3 757.614 1203 773.296 1196.78 779.009 C 1195.32 780.349 1195.3 780.369 1195.25 782.34 C 1195.36 782.438 1195.45 782.541 1195.56 782.633 C 1197.93 784.665 1201.63 784.727 1204.56 785.513 C 1215.77 788.523 1225.68 791.15 1237.49 790.045 C 1242.58 789.568 1247.55 788.291 1252.69 788.162 C 1255.19 788.099 1258.33 788.443 1260.09 790.429 C 1261.98 792.556 1262.6 795.736 1262.38 798.467 C 1260.26 800.965 1257.65 802.64 1254.86 804.289 C 1247.59 808.578 1187.89 839.958 1184.32 840.299 C 1183.33 839.799 1182.17 839.216 1181.39 838.396 C 1177.58 834.353 1177.88 827.476 1175.75 822.489 C 1172.66 815.223 1160.63 802.39 1159.61 795.939 C 1159.17 793.171 1160.64 789.596 1160.56 786.678 C 1160.43 782.415 1155.8 776.309 1152.81 773.48 L 1152.26 772.965 C 1151.88 773.544 1151.81 773.734 1151.21 774.232 C 1144.27 779.958 1124.49 788.083 1115.77 792.433 C 1014.05 843.122 909.475 889.593 800.886 923.549 C 791.23 926.569 770.666 935.198 761.021 933.782 C 763.754 930.844 828.874 911.35 839.663 907.685 A 1909.25 1909.25 0 0 0 1017.38 836.029 C 1030.48 829.936 1045.48 824.868 1057.49 817.002 C 1057.66 816.89 1057.83 816.772 1058 816.657 C 1069.87 812.207 1145.02 776.48 1151.47 770.534 C 1151.47 769.652 1151.42 768.773 1151.26 767.904 C 1150.03 761.117 1144.75 752.789 1141.76 746.55 C 1131.15 724.483 1092.75 647.35 1076.53 635.563 C 1077.18 642.478 1057.17 678.83 1052.71 685.959 C 1027.04 726.93 986.805 744.856 945.347 765.639 C 939.729 768.455 932.845 775.568 927.209 776.685 C 925.76 776.972 923.43 780.493 922.364 781.749 L 922.244 782.532 L 920.668 783.643 C 922.549 802.03 922.658 820.774 923.215 839.25 L 923.612 838.902 L 916.397 848.011 C 910.649 842.194 905.525 835.598 900.252 829.343 C 875.926 838.324 849.995 844.398 824.82 850.551 C 820.995 851.486 810.477 854.983 807.063 852.913 C 808.344 851.139 809.313 851.118 811.331 850.547 C 840.554 842.276 869.962 836.812 898.794 826.721 C 887.95 812.603 867.665 792.347 859.932 777.854 C 859.658 767.729 890.687 759.409 896.917 751.99 C 897.939 750.772 898.515 747.472 899.25 745.837 C 900.442 743.185 902.692 741.542 905.377 740.569 C 907.144 741.376 908.696 741.983 910.604 742.365 C 920.901 734.795 929.897 724.841 939.557 716.407 C 953.558 704.184 968.43 693.141 983.482 682.261 C 988.668 684.954 994.104 687.908 999.939 688.752 L 1000.67 688.024 C 996.725 684.529 991.068 682.719 986.257 680.663 A 119.529 119.529 0 0 1 987.339 679.899 C 995.097 674.497 997.32 678.376 1005.32 679.597 C 1007.75 679.967 1009.38 680.295 1011.4 678.809 C 1010.42 677.217 998.189 674.796 995.25 673.748 C 999.499 662.373 1001.44 649.601 1003.79 637.714 A 4851.36 4851.36 0 0 0 1015.41 575.004 C 1008.89 569.201 1003.83 563.947 999.525 556.235 C 1008.4 547.029 1017.04 538.267 1024.4 527.723 C 1044.38 499.096 1039.99 482.787 1046.51 451.501 C 1048.01 444.284 1053.3 433.657 1052.04 426.553 C 1049.88 430.918 1043.04 433.957 1038.79 436.181 C 1038.84 436.383 1038.9 436.581 1038.93 436.785 C 1039.67 442.708 1035.98 452.648 1034.93 458.863 C 1032.8 471.562 1033.46 484.653 1029.84 497.151 C 1028.27 502.583 1025.81 507.592 1022.02 511.83 C 1016.02 518.531 1007.47 523.446 1000.77 529.55 C 996.449 533.491 990.739 542.008 985.982 544.657 C 984.499 545.483 981.386 543.434 979.163 543.586 C 969.251 554.708 961.565 568.604 954.963 581.883 C 951.526 588.798 948.479 596.428 943.811 602.62 C 939.194 608.745 931.893 608.591 926.599 612.986 C 925.608 613.808 924.447 616.047 923.566 617.153 C 920.617 617.147 920.063 616.468 917.77 614.782 C 916.9 616.04 916.383 616.409 915.059 617.056 C 913.104 616.009 911.926 615.42 911.031 613.214 C 909.364 609.103 911.926 602.893 913.622 599.194 C 917.808 590.064 924.489 581.976 929.813 573.478 C 935.686 564.103 940.809 554.183 946.473 544.663 C 949.89 538.92 953.956 533.307 956.23 526.996 C 956.027 525.488 955.799 523.873 955.896 522.346 C 956.316 515.735 990.171 475.982 996.424 469.477 C 1004.69 460.875 1013.87 452.288 1023.13 444.769 C 1033.58 436.296 1046.26 430.238 1056.28 421.326 C 1056.75 420.832 1057.14 420.317 1057.54 419.768 C 1059.96 416.487 1062.93 411.485 1062.26 407.288 C 1040.82 403.605 1032.03 401.148 1014.51 388.096 L 1013.1 388.948 C 1010.12 396.004 1014.78 406.352 1014.98 413.857 C 1015.12 419.082 1013.96 424.374 1010.22 428.22 C 1003.7 434.939 992.101 435.873 983.253 436.011 C 977.29 436.104 960.898 436.949 956.482 432.662 C 958.554 431.299 963.382 432.033 966.059 431.542 C 970.369 430.752 974.77 428.235 978.712 426.347 C 965.093 424.236 951.255 426.267 937.687 423.391 C 920.454 419.738 909.225 410.478 899.762 395.996 C 903.27 398.409 906.865 400.944 910.958 402.237 C 940.244 411.489 943.209 378.747 963.28 368.719 C 977.519 361.605 994.678 366.337 1008.87 370.971 C 1010.13 365.975 1011.87 361.174 1014.8 356.901 C 1023 344.946 1036.53 337.98 1050.55 335.441 C 1060.93 333.558 1074.97 333.589 1082.95 341.536 C 1086.48 345.053 1089.97 349.808 1093.98 352.693 C 1096.64 354.605 1100.21 354.396 1103.03 356.367 C 1102.82 359.913 1101.1 362.941 1098.88 365.617 C 1101.98 369.075 1105.07 372.586 1107.17 376.77 C 1108.39 379.218 1108.35 380.722 1107.53 383.203 C 1105.26 385.63 1102.56 386.132 1099.49 387.065 C 1083.86 391.81 1095.82 403.28 1090.38 413.47 C 1125.41 402.81 1169.85 366.285 1190.02 335.499 C 1196.47 325.652 1198.82 313.597 1205.93 304.204 C 1212.74 295.208 1224.66 289.591 1230.87 280.494 z"/>
<path transform="translate(0,0)" fill="rgb(251,199,124)" d="M 1056.93 375.415 L 1059.55 375.47 A 49.6314 49.6314 0 0 0 1060.84 376.598 C 1063.8 379.088 1065.67 379.742 1069.5 379.362 C 1070.81 379.232 1070.74 379.518 1071.75 380.283 L 1070.16 380.827 L 1070.49 381.172 L 1067.44 382.73 L 1066.95 384.579 C 1065.31 385.545 1063.93 385.452 1062.07 385.163 C 1058.96 384.675 1057.15 383.357 1055.31 380.856 C 1055.08 377.919 1055.22 377.843 1056.93 375.415 z"/>
<path transform="translate(0,0)" fill="rgb(244,121,104)" d="M 1220.93 797.945 C 1222.04 795.66 1222.29 794.111 1224.92 793.232 C 1230.08 791.512 1237.82 792.34 1243.27 792.374 C 1240.48 797.91 1233.23 801.321 1227.53 803.139 C 1226.91 803.338 1226.28 803.506 1225.64 803.662 C 1223.13 802.298 1222.24 800.335 1220.93 797.945 z"/>
<path transform="translate(0,0)" fill="rgb(246,137,116)" d="M 904.901 806.063 C 910.988 805.941 914.443 807.352 919.474 810.611 L 920.021 830.991 C 914.404 823.702 908.821 816.088 902.275 809.602 C 903.505 808.548 904.127 807.45 904.901 806.063 z"/>
<path transform="translate(0,0)" fill="rgb(246,137,116)" d="M 1048.69 452.911 L 1049.01 452.108 C 1052.46 443.326 1054.5 422.65 1063.63 418.619 C 1067.05 417.107 1072.22 419.204 1075.54 420.607 C 1075.68 420.668 1075.81 420.752 1075.95 420.824 C 1063.63 431.376 1059.05 435.152 1053.99 450.805 C 1052.87 454.285 1052.48 458.135 1050.45 461.226 C 1051.21 458.374 1049.69 455.577 1048.69 452.911 z"/>
<path transform="translate(0,0)" fill="rgb(252,250,237)" d="M 905.671 743.622 C 914.176 747.26 928.185 761.408 933.265 769.11 C 932.443 771.553 930.341 772.766 928.413 774.433 C 918.647 766.52 909.352 757.743 900.058 749.277 C 900.682 747.09 903.909 745.129 905.671 743.622 z"/>
<path transform="translate(0,0)" fill="rgb(244,121,104)" d="M 1165.32 367.496 C 1169.34 367.485 1172.31 369.939 1175.31 372.347 C 1179.03 375.336 1185.94 381.416 1186.47 386.375 C 1185.06 390.031 1182.65 392.059 1179.72 394.506 C 1179.12 394.357 1164.42 377.452 1158.06 374.126 C 1161.16 372.352 1163.31 370.42 1165.32 367.496 z"/>
<path transform="translate(0,0)" fill="rgb(246,137,116)" d="M 1186.58 779.491 C 1188.3 779.521 1189.68 779.094 1190.92 780.387 C 1192.74 782.269 1194.45 785.833 1194.37 788.476 C 1187.91 794.73 1176.67 799.374 1168.36 802.569 C 1165.59 801.964 1162.91 796.167 1160.04 794.06 C 1169.13 789.666 1178.11 785.017 1186.58 779.491 z"/>
<path transform="translate(0,0)" fill="rgb(251,199,124)" d="M 1075.46 341.322 C 1075.84 341.446 1076.22 341.574 1076.59 341.727 C 1082.21 344.077 1088.25 349.794 1090.59 355.396 C 1093.02 355.954 1096.32 356.339 1098.16 358.123 C 1099.26 359.19 1098.91 359.938 1098.88 361.385 C 1097.32 363.47 1096 364.868 1093.83 366.358 C 1093.12 363.957 1091.78 362.422 1090.24 360.514 L 1089.78 360.413 C 1088.67 358.842 1087.66 357.239 1086.67 355.582 C 1084.64 355.912 1084.27 355.883 1082.93 357.606 C 1077.88 364.071 1080.48 376.634 1074.86 382.197 C 1074.99 381.553 1075.05 381.374 1075.04 380.631 C 1074.97 375.682 1070.3 375.181 1070.41 370.014 C 1070.57 362.193 1075.7 344.098 1075.46 341.322 z"/>
<path transform="translate(0,0)" fill="rgb(251,189,122)" d="M 1073.75 388.478 C 1077.97 388.243 1082.79 389.626 1086.89 390.526 C 1088.14 395.663 1089.95 410.49 1087.76 415.141 C 1085.54 417.987 1080.59 418.937 1077.31 419.812 C 1073.44 415.444 1068.32 415.025 1062.91 414.185 C 1063.25 413.823 1063.59 413.451 1063.92 413.07 C 1067.91 408.387 1074.21 394.498 1073.75 388.478 z"/>
<path transform="translate(0,0)" fill="rgb(251,189,122)" d="M 1074.86 382.197 C 1080.48 376.634 1077.88 364.071 1082.93 357.606 C 1084.27 355.883 1084.64 355.912 1086.67 355.582 C 1087.66 357.239 1088.67 358.842 1089.78 360.413 L 1090.24 360.514 C 1091.78 362.422 1093.12 363.957 1093.83 366.358 C 1098.11 369.514 1102.62 372.468 1103.88 377.941 C 1103.3 380.671 1102.91 382.317 1100.39 383.92 C 1095.25 387.182 1086.92 387.159 1081.22 385.75 C 1078.73 385.132 1076.85 383.761 1074.86 382.197 z"/>
<path transform="translate(0,0)" fill="rgb(246,137,116)" d="M 1120.99 515.482 C 1121.11 515.536 1121.22 515.592 1121.33 515.643 C 1121.47 515.709 1121.62 515.762 1121.77 515.833 C 1126.8 518.366 1143.07 560.124 1145.75 567.771 C 1143.31 568.488 1138.09 566.939 1135.45 566.488 C 1129.86 564.821 1124.08 564.047 1118.34 563.121 C 1119.68 559.834 1117.6 555.839 1117.54 552.3 C 1120.78 550.171 1123.78 553.436 1126.64 551.446 C 1126.49 539.9 1123.55 526.769 1120.99 515.482 z"/>
<path transform="translate(0,0)" fill="rgb(252,250,237)" d="M 865.983 772.461 C 866.194 772.481 866.409 772.474 866.614 772.522 C 870.551 773.437 915.503 829.293 920.869 836.404 C 920.384 839.081 918.028 841.306 916.345 843.374 C 915.971 843.096 915.875 843.04 915.497 842.667 C 910.578 837.815 862.734 778.347 862.603 777.467 C 862.503 776.796 862.661 776.111 862.69 775.432 L 865.983 772.461 z"/>
<path transform="translate(0,0)" fill="rgb(252,250,237)" d="M 1249.61 791.496 C 1250.8 791.243 1252.17 790.86 1253.39 790.838 C 1256.22 790.787 1256.65 791.408 1258.6 793.269 C 1259.01 794.562 1259.93 796.108 1259.28 797.339 C 1257.63 800.451 1195.27 833.391 1187.13 836.031 L 1186.13 836.949 L 1184.38 836.743 L 1179.7 830.285 C 1193.27 825.212 1229.85 807.193 1241.34 799.079 C 1244.36 796.949 1247.03 794.127 1249.61 791.496 z"/>
<path transform="translate(0,0)" fill="rgb(246,137,116)" d="M 1168.53 806.298 C 1179.09 803.303 1187.38 794.184 1197.54 791.576 C 1198.93 793.274 1195.79 796.963 1195.9 799.706 L 1196.95 800.073 C 1199.46 799.019 1200.39 794.446 1202.22 792.059 L 1203.96 792.147 C 1204.81 794.762 1200.67 797.087 1200.83 800.464 L 1202.51 801.068 C 1205.11 799.714 1206.59 794.699 1208.36 792.173 C 1210.06 792.979 1209.9 793.259 1210.55 794.95 C 1210 799.167 1206.77 803.06 1204.48 806.55 C 1210.08 803.514 1212.52 800.041 1215.94 794.881 L 1217.14 795.326 A 299.999 299.999 0 0 0 1218.91 801.699 L 1220.36 799.579 L 1220.25 802.296 C 1220.67 800.845 1220.79 799.439 1220.93 797.945 C 1222.24 800.335 1223.13 802.298 1225.64 803.662 C 1221.51 808.683 1187.39 824.034 1179.56 826.533 C 1179.59 826.22 1179.65 825.755 1179.61 825.421 C 1179.06 820.544 1172.23 809.607 1168.53 806.298 z"/>
<path transform="translate(0,0)" fill="rgb(244,121,104)" d="M 1086.78 470.169 L 1087.66 473.071 C 1087.38 473.841 1087.21 474.441 1086.61 475.035 C 1082.08 479.554 1072.43 485.044 1066.06 485.277 C 1063.15 485.383 1060.28 484.463 1058.23 482.319 C 1054.97 478.906 1054.36 473.564 1054.37 469.071 C 1054.39 457.623 1057.17 444.042 1064.81 435.257 C 1067.7 431.935 1071.33 429.486 1074.42 426.372 L 1074.82 425.963 C 1076.27 427.782 1086.59 466.274 1086.78 470.169 z"/>
<path transform="translate(0,0)" fill="rgb(251,189,122)" d="M 959.186 530.118 C 964.841 534.792 970.832 538.332 977.374 541.597 C 970.556 549.608 964.632 558.428 959.289 567.481 C 954.504 575.588 945.071 599.289 938.969 604.133 L 937.233 603.933 C 936.729 599.962 938.569 595.739 939.581 591.929 C 940.3 589.225 941.153 586.528 939.726 584.06 C 936.611 584.461 933.047 587.723 930.468 589.56 C 920.075 595.27 920.254 598.239 914.881 607.739 C 914.814 607.857 914.744 607.973 914.676 608.091 L 915.969 608.02 L 914.003 611.517 L 913.726 610.909 C 913.549 606.526 916.199 601.391 918.155 597.563 C 922.629 588.809 928.858 580.824 933.897 572.37 C 942.35 558.186 949.712 543.714 959.186 530.118 z"/>
<path transform="translate(0,0)" fill="rgb(251,189,122)" d="M 1216.5 297.487 L 1217.53 297.616 L 1218.09 298.399 L 1213.12 305.259 L 1213.46 306.477 C 1217.1 306.616 1219.29 303.911 1222.44 302.265 C 1224.86 300.997 1226 301.245 1228.43 302.035 C 1226 304.231 1223.72 306.547 1221.42 308.88 L 1221.66 309.827 C 1225.42 309.019 1228.02 306.675 1230.97 304.342 C 1232.36 309.714 1224.04 311.151 1223.25 316.032 L 1224.76 316.647 C 1227.01 314.858 1229.22 313.231 1231.68 311.745 C 1231.72 312.803 1231.86 313.217 1231.39 314.198 C 1227.56 322.257 1220.23 324.8 1212.36 327.517 C 1212.42 327.841 1212.54 328.4 1212.51 328.763 C 1212.25 333.124 1202.78 350.666 1199.62 353.497 C 1199.68 353.93 1199.8 354.638 1199.76 355.114 C 1199.24 360.45 1189.95 376.307 1186.16 379.711 C 1186.1 379.464 1186.04 379.214 1185.97 378.97 C 1184.39 373.609 1174.87 367.26 1170.25 364.552 C 1173.81 361.86 1176.68 358.091 1179.55 354.696 C 1194.4 337.096 1195.42 326.788 1205.93 309.945 C 1208.74 305.448 1213.01 301.465 1216.5 297.487 z"/>
<path transform="translate(0,0)" fill="rgb(246,137,116)" d="M 900.604 753.803 A 570.874 570.874 0 0 1 924.521 774.543 C 923.023 776.909 921.67 779.121 919.56 781.012 C 916.32 779.64 912.925 777.877 909.374 777.676 L 908.621 778.505 C 910.627 780.549 915.454 781.888 918.185 783.016 C 915.82 783.373 913.448 783.737 911.103 784.21 C 908.157 784.805 906.129 785.719 904.456 788.245 C 907.847 789.228 912.957 787.165 916.503 786.353 C 918.32 787.399 918.827 788.164 919.689 790.056 C 916.924 792.22 913.1 791.035 909.765 791.954 C 907.323 792.626 907.07 793.444 905.982 795.52 L 906.717 797.577 C 909.4 799.373 913.099 799.194 916.229 799.406 C 910.714 800.942 908.078 801.149 904.901 806.063 C 904.127 807.45 903.505 808.548 902.275 809.602 C 891.458 796.922 881.036 783.872 870.465 770.984 A 1161.67 1161.67 0 0 1 900.604 753.803 z"/>
<path transform="translate(0,0)" fill="rgb(247,242,225)" d="M 1103.31 464.495 L 1105.11 465.43 C 1107.45 469.598 1109.57 474.185 1110.08 478.989 C 1111.93 496.376 1109.25 514.662 1110.66 532.343 C 1111.39 541.358 1116.89 552.947 1115.76 561.538 C 1107.9 567.521 1094.82 570.037 1085.23 571.632 C 1081.11 572.66 1076.8 572.966 1072.57 573.425 C 1072.66 573.284 1072.76 573.147 1072.85 573.001 C 1075.62 568.237 1075.59 551.462 1076.54 545.12 C 1078.6 531.266 1092.87 480.776 1090.46 472.211 C 1095.11 470.417 1099.34 467.438 1103.31 464.495 z"/>
<path transform="translate(0,0)" fill="rgb(244,121,104)" d="M 1031.64 441.251 L 1034.36 442.097 C 1034.48 442.684 1034.58 443.303 1034.59 443.901 C 1034.67 450.895 1031.35 459.303 1030.77 466.698 C 1030.07 475.526 1029.99 484.961 1027.89 493.588 C 1023.9 510.004 1011.77 515.707 1000.09 525.85 C 994.501 530.703 989.64 536.251 984.762 541.803 C 979.305 539.428 973.971 536.338 968.67 533.608 C 964.396 530.653 961.073 527.55 958.208 523.203 C 971.545 503.506 985.882 483.127 1003.08 466.598 C 1012.1 457.934 1023.51 450.603 1031.64 441.251 z"/>
<path transform="translate(0,0)" fill="rgb(247,242,225)" d="M 1074.82 425.963 C 1089.2 417.309 1151.4 389.173 1155.49 376.757 C 1163 379.81 1173.77 390.025 1176.86 397.58 C 1176.92 397.715 1176.95 397.856 1177 397.994 C 1174.83 409.415 1121.51 448.675 1109.05 457.154 C 1102.66 461.504 1094.33 468.474 1086.78 470.169 C 1086.59 466.274 1076.27 427.782 1074.82 425.963 z"/>
<path transform="translate(0,0)" fill="rgb(244,121,104)" d="M 1048.69 452.911 C 1049.69 455.577 1051.21 458.374 1050.45 461.226 C 1054.54 468.795 1050.62 479.331 1057.76 486.845 C 1059.52 488.7 1061.55 489.716 1064.14 489.772 C 1071.55 489.932 1081.22 482.721 1086.44 477.763 C 1087.88 490.966 1073.67 536.672 1071.69 556.75 C 1070.79 565.805 1074.86 586.491 1073.73 591.38 C 1068.97 591.308 1064.06 591.084 1059.34 590.382 C 1036.52 586.983 1016.43 575.669 1002.64 557.172 C 1007.49 552.694 1012.1 548.122 1016.37 543.08 C 1035.01 521.062 1043.78 500.759 1047.13 472.3 C 1047.87 466.067 1049.2 459.166 1048.69 452.911 z"/>
<path transform="translate(0,0)" fill="rgb(10,107,118)" d="M 1386.74 125.993 C 1387.05 125.077 1387.29 124.478 1387.21 123.492 C 1386.09 109.668 1368.89 79.4115 1359.9 68.6818 C 1355.08 62.9133 1348.37 57.7498 1342.77 52.6749 L 1343.16 51.1181 C 1343.78 51.1011 1344.13 51.046 1344.71 51.1699 C 1353.3 53.0168 1368.62 73.8317 1373.12 81.3398 C 1377.36 88.4029 1392.41 117.02 1390.42 125.019 C 1394.82 131.096 1396.51 139.304 1398.24 146.497 C 1420.75 153.008 1443.41 163.227 1464.68 173.053 C 1466.96 174.105 1483.97 182.621 1484.96 182.524 C 1485.53 182.467 1486.03 182.109 1486.56 181.901 C 1487.36 179.286 1487.49 177.926 1486.54 175.34 C 1487.56 174.351 1488.55 173.076 1489.11 171.759 C 1498 151.043 1497.53 110.503 1490.6 89.2284 C 1487.72 80.4041 1482.38 72.5873 1479.1 63.9367 L 1479.95 63.5299 C 1480.93 63.8497 1481.92 64.2369 1482.75 64.8741 C 1491.21 71.412 1496.99 99.8854 1498.16 110.616 C 1499.5 122.903 1499.72 160.625 1492.09 170.168 C 1492.81 174.338 1490.89 179.773 1488.43 183.168 C 1487.98 183.78 1487.51 184.223 1486.95 184.722 C 1499.97 188.466 1567.75 229.724 1573.62 239.641 C 1573.7 239.777 1573.77 239.919 1573.84 240.058 C 1577.42 236.879 1583.71 225.948 1584.25 221.188 C 1584.29 220.851 1584.24 220.404 1584.22 220.084 C 1584.36 219.993 1584.5 219.908 1584.63 219.812 C 1588.07 217.376 1590.51 211.77 1592.53 208.142 C 1605.66 184.554 1615.75 158.212 1619.51 131.4 C 1620.37 125.276 1619.71 107.97 1621.99 103.587 L 1623.33 103.77 C 1628.87 115.368 1618.74 155.394 1614.25 168.139 C 1609.36 182.006 1594.31 218.156 1584.15 228.077 C 1583.78 232.42 1580.35 238.564 1577.02 241.377 C 1576.86 241.517 1576.69 241.647 1576.52 241.782 C 1592.52 249.438 1692.04 340.604 1696.76 353.232 C 1696.96 353.779 1697.04 354.438 1697.09 355.018 C 1700.31 351.343 1705.27 344.253 1705.12 339.125 C 1705.1 338.715 1704.99 338.355 1704.9 337.956 C 1706.94 333.878 1706.45 327.49 1706.57 322.991 C 1707.62 283.24 1683.25 216.089 1705.97 184.997 C 1711.64 177.243 1719.69 172.123 1729.3 171.07 C 1748.84 168.929 1785.68 186.094 1802.85 195.664 C 1807.79 198.42 1822.24 208.758 1827.01 208.032 C 1827 207.615 1827.01 206.892 1826.91 206.444 C 1825.99 202.605 1811.45 181.839 1807.9 179.862 C 1808.28 175.056 1800.37 166.591 1797.34 162.909 C 1781.39 155.291 1765.03 148.59 1747.96 143.934 C 1738.99 141.489 1729.3 140.856 1720.72 137.254 L 1720.77 136.382 C 1733.99 135.569 1781.85 147.928 1791.38 157.006 C 1791.73 157.343 1792.09 157.878 1792.37 158.251 C 1792.37 158.057 1792.38 157.862 1792.37 157.668 C 1791.92 146.641 1746.62 100.711 1746.22 92.3899 L 1747.73 91.6745 C 1756.52 98.937 1817.15 179.616 1818.63 188.996 C 1818.75 188.754 1818.87 188.514 1818.99 188.27 C 1823.42 178.77 1822.93 130.126 1827.86 126.451 L 1829.36 127.019 C 1830.82 133.201 1824.18 183.135 1823.48 194.919 C 1824.75 196.129 1825.51 196.867 1826.16 198.527 C 1828.09 203.502 1833.35 209.49 1836.32 214.102 C 1841.07 221.465 1869.84 266.067 1868.91 272.009 L 1869.13 271.203 C 1871.28 262.991 1871.13 253.73 1872.41 245.277 C 1873.76 236.314 1881.93 194.985 1889.28 190.305 C 1890.18 192.241 1890.26 193.301 1889.54 195.374 C 1880.12 222.567 1866.35 259.635 1878.73 287.854 C 1883.4 298.51 1905.38 339.801 1904.68 348.104 C 1904.8 347.955 1904.93 347.809 1905.05 347.655 C 1909.35 341.937 1911.47 329.707 1914 322.73 C 1917.73 312.433 1934.37 272.044 1944.28 267.331 L 1946.28 267.629 C 1945.53 272.999 1937.69 281.353 1934.54 286.142 C 1930.46 292.344 1927.28 299.819 1924.18 306.577 A 236.128 236.128 0 0 0 1913.3 335.699 C 1911.77 340.789 1910.83 347.273 1908.58 352.001 C 1911.76 360.65 1928.44 400.059 1926.18 407.089 C 1945.17 407.316 2031.96 410.684 2043.93 418.941 C 2029.36 420.384 2011.62 415.646 1996.99 413.96 A 531.332 531.332 0 0 0 1927.01 410.101 C 1934.19 417.066 1944.61 475.129 1944.46 486.989 C 1944.45 488.215 1944.18 489.407 1943.81 490.57 C 1978.22 493.356 2013.55 503.269 2045.12 517.099 L 2045.8 518.865 C 2048.76 529.459 2046.87 574.903 2046.88 588.29 L 2046.84 896.892 L 2047.03 982.783 C 2047.08 995.946 2048.67 1011.08 2046.61 1024 L 1963.55 1024 L 1949.37 1024 C 1949.72 1023.38 1949.85 1023.22 1950.1 1022.62 C 1955.49 1009.88 1917.37 892.076 1910.41 873.622 C 1902.79 853.406 1871.3 776.745 1858.7 763.359 C 1853.84 758.195 1839.32 750.926 1832.68 747.921 C 1832.66 751.599 1829.39 756.143 1827.12 758.857 C 1811.24 777.868 1778.62 789.624 1754.62 791.605 C 1699.65 796.141 1662.99 760.193 1636.77 716.098 C 1631.93 707.964 1624.34 691.087 1617.4 685.549 C 1617.2 685.391 1617 685.24 1616.8 685.086 C 1626.11 683.29 1635.34 679.721 1644.58 677.409 C 1666.53 671.92 1690.03 670.419 1712.57 671.843 C 1752.69 674.379 1793.45 689.622 1820.42 720.429 C 1825.6 726.346 1832.41 734.82 1831.84 743.061 C 1839.19 746.979 1847.86 751.145 1853.95 756.807 C 1854.01 755.511 1853.93 754.292 1853.42 753.082 C 1847.94 740.172 1837.33 726.778 1829.36 715.238 C 1787.58 654.759 1736.86 600.2 1675.02 559.81 C 1662.35 551.536 1648.56 542.72 1634.53 537.037 C 1627.66 545.265 1608.49 550.984 1598.61 553.941 C 1565.96 563.716 1530.08 564.518 1499.26 548.59 C 1489.69 543.643 1481.33 536.828 1471.87 531.797 L 1471.03 531.358 C 1470.82 531.632 1470.42 532.179 1470.13 532.447 C 1465.34 537.001 1425.22 559.203 1416.16 564.659 C 1390.58 580.066 1201.61 697.931 1189.56 697.813 L 1189.41 696.389 C 1197.34 690.303 1207.54 685.934 1216.31 681.019 A 2722.08 2722.08 0 0 0 1261.85 654.589 A 10995.7 10995.7 0 0 0 1418.8 559.376 C 1428.85 553.26 1461.01 536.199 1467.24 529.63 C 1467.37 529.497 1467.49 529.356 1467.61 529.22 C 1467.51 528.977 1467.41 528.73 1467.3 528.491 C 1465.81 525.309 1412.4 486.354 1406.97 484.352 C 1416.94 480.993 1427.84 473.129 1437.31 468.15 C 1469.96 450.993 1509.48 437.748 1546.53 447.347 C 1551.99 445.221 1556.78 434.64 1560.82 429.952 C 1579.68 408.063 1607.43 396.583 1635.79 394.33 C 1645.88 393.529 1683.03 392.421 1690.61 398.908 C 1702.36 398.815 1714.19 396 1726.08 395.791 C 1726.04 395.346 1725.99 394.647 1725.85 394.185 C 1722.87 384.61 1672.51 328.376 1662.57 322.219 A 397.126 397.126 0 0 0 1635.77 322.272 C 1603.12 320.999 1563.86 328.829 1533.67 340.335 C 1525.81 343.33 1499.36 359.239 1494.59 359.343 L 1494.09 357.796 C 1504.6 344.458 1559.85 327.29 1577.69 324.089 C 1588.41 322.165 1601.08 322.562 1611.32 319.329 C 1611.48 319.279 1611.63 319.223 1611.79 319.171 C 1627.38 319.396 1642.77 317.777 1658.41 318.844 C 1658.3 318.419 1658.16 317.721 1657.96 317.292 C 1653.02 307.113 1568.74 235.875 1557.09 231.62 C 1548.8 232.221 1540.29 231.974 1531.98 232.109 C 1502.97 229.898 1464.35 237.791 1437.92 249.875 C 1432.54 252.338 1427.43 255.922 1422.17 258.732 L 1420.52 258.214 L 1420.7 256.656 C 1425.89 251.177 1434.55 247.663 1441.42 244.811 C 1475.33 230.738 1508.9 229.446 1544.99 227.889 C 1547.84 228.12 1550.17 227.999 1552.97 227.484 C 1514.95 202.365 1477.01 180.924 1434.84 163.465 C 1422.75 158.461 1409.86 152.921 1397.12 149.972 C 1394.73 154.715 1381.63 163.245 1376.83 166.005 C 1372.16 172.045 1361.25 178.761 1354.75 182.942 C 1340.84 191.9 1314.37 205.396 1297.27 201.69 L 1297.46 200.887 C 1304.15 197.906 1312.09 197.245 1319.21 195.546 C 1327.9 193.475 1337.06 189.32 1344.86 185.023 C 1350.36 181.989 1381.52 160.715 1382.88 156.017 C 1386.44 154.776 1390.61 152.127 1392.47 148.778 C 1392.38 148.673 1392.31 148.558 1392.21 148.464 C 1386.23 142.718 1320.27 127.3 1308.96 127.158 C 1296.81 122.476 1254.16 126.162 1249.36 123.72 L 1249.72 122.015 C 1259.64 117.217 1303.24 122.57 1315.77 123.846 C 1328.26 126.348 1386.69 139.161 1393.19 145.373 C 1393.47 140.553 1390.86 130.097 1387.41 126.618 C 1387.19 126.401 1386.96 126.202 1386.74 125.993 z"/>
<path transform="translate(0,0)" fill="rgb(247,242,225)" d="M 1722.75 399.377 C 1726.04 399.214 1728.36 398.498 1731.05 400.841 C 1735.73 404.917 1744.86 416.163 1745.08 422.275 C 1745.08 422.439 1745.07 422.603 1745.07 422.767 C 1731.86 427.676 1716.23 429.42 1702.46 432.894 C 1689.34 436.2 1674.11 442.493 1661.09 444.059 C 1662.79 440.626 1698.32 413.322 1704.01 409.694 C 1709.81 405.996 1716.26 403.645 1721.99 399.88 L 1722.75 399.377 z"/>
<path transform="translate(0,0)" fill="rgb(251,199,124)" d="M 1546.53 447.347 C 1551.99 445.221 1556.78 434.64 1560.82 429.952 C 1579.68 408.063 1607.43 396.583 1635.79 394.33 C 1645.88 393.529 1683.03 392.421 1690.61 398.908 C 1690.48 398.97 1690.36 399.033 1690.24 399.092 C 1683.64 402.181 1674.11 403.056 1666.95 405.179 C 1652.65 409.418 1611.82 425.335 1604.88 438.84 L 1605.39 440.346 C 1608.57 440.281 1615.5 433.004 1618.67 430.855 C 1627.75 424.687 1637.67 419.984 1647.74 415.691 C 1671.05 405.757 1697.47 400.498 1722.75 399.377 L 1721.99 399.88 C 1716.26 403.645 1709.81 405.996 1704.01 409.694 C 1698.32 413.322 1662.79 440.626 1661.09 444.059 C 1654.78 447.177 1597.74 468.042 1593.47 468.822 C 1586.56 460.07 1558.23 448.727 1547.2 447.42 L 1546.53 447.347 z"/>
<path transform="translate(0,0)" fill="rgb(247,242,225)" d="M 1909.45 410.5 L 1923.86 410.275 C 1924.85 411.545 1925.61 412.829 1926.17 414.338 C 1930.37 425.559 1944.53 481.259 1940.59 490.22 C 1907.01 487.048 1874.03 486.996 1840.46 490.47 C 1824.66 492.104 1808.51 495.616 1792.73 496.398 L 1789.21 492.992 C 1789.29 492.134 1789.32 491.679 1789.16 490.858 C 1787.42 481.846 1757.81 429.986 1751.03 425.373 C 1770.32 423.181 1789.46 419.505 1808.77 417.292 A 1264.57 1264.57 0 0 1 1909.45 410.5 z"/>
<path transform="translate(0,0)" fill="rgb(251,199,124)" d="M 1704.9 337.956 C 1706.94 333.878 1706.45 327.49 1706.57 322.991 C 1707.62 283.24 1683.25 216.089 1705.97 184.997 C 1711.64 177.243 1719.69 172.123 1729.3 171.07 C 1748.84 168.929 1785.68 186.094 1802.85 195.664 C 1807.79 198.42 1822.24 208.758 1827.01 208.032 C 1830.53 210.101 1834.21 215.474 1835.17 219.476 C 1835.37 220.322 1835.32 221.064 1835.27 221.923 C 1823.57 211.12 1778.02 203.016 1761.85 203.469 C 1759.95 203.523 1758.08 203.772 1756.22 204.169 L 1755.66 204.872 C 1763.89 208.368 1774.45 207.513 1783.24 208.788 C 1796.49 210.71 1832.94 219.019 1841.77 229.179 C 1842.2 230.379 1842.82 231.613 1842.65 232.908 C 1846.82 236.058 1863.04 263.288 1863.86 268.499 C 1863.94 269.031 1863.97 269.535 1863.99 270.071 C 1867.54 272.728 1873.93 283.068 1874.29 287.482 C 1874.33 287.869 1874.23 288.389 1874.18 288.75 C 1854.71 274.892 1807 268.507 1783.59 271.18 L 1782.39 272.504 L 1783.57 273.941 C 1814.84 276.171 1834.56 275.346 1864.75 287.509 C 1868.68 289.091 1875.58 291.72 1878.17 295.061 C 1879.56 296.843 1879.56 298.004 1879.44 300.09 C 1827.42 274.747 1791.15 307.441 1749.52 291.993 C 1745.9 299.713 1717.16 334.249 1709.96 337.698 C 1709.75 337.798 1709.55 337.908 1709.34 338.006 C 1709.21 338.065 1709.08 338.115 1708.96 338.169 C 1715.56 331.503 1727.99 296.575 1731.65 285.96 C 1735.36 275.206 1747.47 231.15 1742.81 221.561 L 1741.35 221.303 C 1739.51 224.4 1739.9 229.516 1739.7 233.12 C 1739.12 243.553 1736.8 254.827 1734.21 264.938 C 1730.95 277.611 1713.98 330.318 1705.35 337.606 C 1705.2 337.729 1705.05 337.839 1704.9 337.956 z"/>
<path transform="translate(0,0)" fill="rgb(247,242,225)" d="M 1766.68 228.112 C 1793.1 225.306 1816.88 225.798 1842.65 232.908 C 1846.82 236.058 1863.04 263.288 1863.86 268.499 C 1863.94 269.031 1863.97 269.535 1863.99 270.071 C 1863.18 270.305 1862.29 270.407 1861.48 270.155 C 1856.14 268.491 1850.25 264.357 1845.13 261.856 C 1839.07 258.898 1832.52 256.646 1826.19 254.327 C 1806.97 247.281 1786.97 244.083 1766.55 243.531 C 1766.65 243.313 1766.77 243.101 1766.85 242.876 C 1768.51 238.673 1768.67 232.181 1766.68 228.112 z"/>
<path transform="translate(0,0)" fill="rgb(247,242,225)" d="M 1749.52 291.993 C 1791.15 307.441 1827.42 274.747 1879.44 300.09 C 1883.89 303.833 1891.6 319.413 1892.14 325.39 C 1892.18 325.865 1892.08 326.561 1892.04 327 C 1895.8 330.436 1903.03 345.351 1903.05 350.64 C 1903.05 351.321 1902.98 351.98 1902.85 352.647 C 1892.82 342.683 1853.42 339.859 1839.76 339.931 C 1835.04 339.955 1830.5 340.335 1825.88 341.337 L 1825.47 342.346 C 1833.91 344.946 1843.44 343.561 1852.16 344.055 C 1863.63 344.705 1899.32 349.309 1906.47 358.747 L 1906.5 360.163 C 1907.45 361.047 1908.12 362.089 1908.77 363.204 C 1912.74 370.041 1924.26 400.827 1922.67 407.177 C 1864.29 408.591 1807.33 413.732 1749.58 422.327 C 1749.56 422.022 1749.57 421.467 1749.49 421.137 C 1747.52 413.423 1707.42 362.11 1699.87 357.376 C 1700.3 357.015 1700.66 356.746 1701.02 356.335 C 1703.81 353.194 1709.21 342.28 1708.96 338.169 C 1709.08 338.115 1709.21 338.065 1709.34 338.006 C 1709.55 337.908 1709.75 337.798 1709.96 337.698 C 1717.16 334.249 1745.9 299.713 1749.52 291.993 z"/>
<path transform="translate(0,0)" fill="rgb(251,199,124)" d="M 1906.5 360.163 C 1900.13 359.887 1893.69 357.949 1887.12 357.702 C 1872.88 357.168 1858.58 360.9 1844.6 363.4 C 1829.17 366.159 1805.99 370.374 1792.31 360.51 C 1787.87 357.305 1785.24 352.618 1784.48 347.223 C 1783.6 340.9 1784.87 333.596 1788.82 328.458 C 1803.12 309.843 1848.7 316.171 1868.37 320.893 C 1872.73 321.939 1888.19 327.704 1891.28 327.161 C 1891.54 327.116 1891.79 327.053 1892.04 327 C 1895.8 330.436 1903.03 345.351 1903.05 350.64 C 1903.05 351.321 1902.98 351.98 1902.85 352.647 C 1892.82 342.683 1853.42 339.859 1839.76 339.931 C 1835.04 339.955 1830.5 340.335 1825.88 341.337 L 1825.47 342.346 C 1833.91 344.946 1843.44 343.561 1852.16 344.055 C 1863.63 344.705 1899.32 349.309 1906.47 358.747 L 1906.5 360.163 z"/>
<path transform="translate(0,0)" fill="rgb(247,242,225)" d="M 1596.73 470.968 C 1611.73 467.278 1627.05 459.645 1641.72 454.523 A 644.357 644.357 0 0 1 1726.22 430.841 C 1732.89 429.403 1741.08 428.551 1747.28 425.765 C 1748.68 426.644 1749.83 427.616 1750.85 428.932 C 1758.13 438.382 1788.23 488.012 1787.1 497.557 C 1768.12 503.038 1685.92 516.99 1675.23 526.922 L 1675.92 528.308 L 1677.44 528.391 L 1676.46 527.771 C 1677.47 528.043 1678.5 528.394 1679.54 528.096 C 1695.38 523.544 1710.76 517.824 1726.78 513.681 C 1813.05 491.379 1908.49 480.373 1995.85 502.991 C 2012.55 507.315 2027.84 514.013 2044.03 519.721 L 2045.8 518.865 C 2048.76 529.459 2046.87 574.903 2046.88 588.29 L 2046.84 896.892 L 2047.03 982.783 C 2047.08 995.946 2048.67 1011.08 2046.61 1024 L 1963.55 1024 C 1963.86 1023.03 1964.09 1022.04 1964.02 1021.01 C 1963.28 1010.11 1959.15 997.828 1956.56 987.183 A 907.128 907.128 0 0 0 1910.73 844.923 C 1908.17 838.743 1904.34 826.385 1899.45 822.085 C 1902.81 813.61 1902.5 799.805 1902.96 790.556 C 1925.38 787.415 1942.84 780.1 1959.44 764.347 C 1982.5 742.458 1994.89 714.347 1995.63 682.498 C 1996.15 659.952 1984.61 602.835 1969.37 586.915 C 1959.88 593.471 1949.62 598.968 1940.38 605.876 C 1912.55 626.675 1885.12 657.598 1874.61 691.301 A 97.0876 97.0876 0 0 0 1885.71 772.154 C 1888.94 777.203 1896.83 784.917 1898.76 788.819 C 1898.83 788.942 1898.88 789.069 1898.94 789.195 C 1899.13 789.785 1899.28 790.373 1899.38 790.986 C 1900.32 796.555 1897.76 810.378 1894.3 814.768 C 1894.44 813.737 1894.54 812.737 1894.42 811.697 C 1892.63 796.601 1835.65 702.307 1823.98 692.804 C 1824.04 692.654 1824.09 692.506 1824.14 692.355 C 1825.76 687.388 1826.38 674.345 1824.05 669.591 A 58.8948 58.8948 0 0 0 1851.21 644.13 C 1859.28 628.984 1859.89 611.232 1854.84 595.038 C 1849.06 576.511 1830.52 549.964 1813.34 540.898 C 1813.29 544.898 1799.48 564.825 1796.87 570.187 C 1793.76 576.584 1791.16 583.23 1789.58 590.18 C 1784.63 612.003 1791.14 633.998 1805.62 650.755 C 1810.08 655.903 1816.74 661.026 1820.21 666.726 C 1820.3 666.867 1820.37 667.013 1820.46 667.156 C 1820.68 667.511 1821.02 667.995 1821.18 668.409 C 1823.16 673.455 1821.95 683.764 1820.03 688.676 C 1820.05 687.803 1819.92 686.984 1819.65 686.156 C 1816.83 677.722 1804.72 666.546 1798.77 659.624 C 1754.19 607.833 1700.77 558.758 1638.14 529.749 A 56.997 56.997 0 0 0 1636.21 521.843 C 1630.23 503.71 1614.09 479.771 1596.73 470.968 z"/>
<path transform="translate(0,0)" fill="rgb(10,107,118)" d="M 455.32 237.377 C 466.365 227.141 476.616 210.038 483.822 196.859 C 486.811 191.394 489.165 185.559 492.506 180.293 C 493.447 178.81 494.422 177.893 496.005 177.096 L 496.481 178.16 C 493.204 187.227 484.19 202.925 478.708 210.969 C 474.297 217.442 468.615 223.836 465.519 231.066 C 467.845 231.771 469.321 230.879 471.556 230.148 C 473.201 231.84 474.888 234.037 477.085 234.969 C 475.075 235.784 472.927 236.17 471.706 237.995 C 476.069 240.838 482.746 241.753 487.767 243.341 C 496.351 246.056 522.782 254.632 528.174 261.036 L 527.001 261.925 C 520.359 260.994 513.853 256.77 507.735 254.096 C 498.616 250.11 469.605 238.179 460.852 241.188 L 460.429 241.466 C 438.36 252.201 417.326 262.842 396.932 276.609 A 634.087 634.087 0 0 0 371.892 293.601 C 394.668 290.443 420.173 290.833 442.312 297.662 C 444.813 298.433 449.066 299.392 451.07 301.044 C 451.283 301.219 451.484 301.409 451.691 301.591 L 451.44 302.894 C 448.133 303.669 427.716 297.56 422.214 296.779 C 405.868 294.462 385.171 293.375 368.895 297.13 C 348.635 313.165 328.137 330.121 310.991 349.518 C 306.97 353.22 303.21 357.089 299.466 361.066 C 319.532 356.195 361.565 348.413 380.295 357.434 C 371.96 359.764 351.429 356.433 340.91 357.041 C 330.983 357.615 321.294 359.201 311.608 361.419 C 306.611 362.563 301.347 364.411 296.282 365.022 C 280.812 377.8 257.291 412.191 245.208 429.81 C 240.826 434.599 237.349 440.44 233.724 445.824 C 259.8 434.808 290.391 424.907 318.852 423.838 C 321.287 423.747 325.848 423.177 328.023 424.066 C 328.204 424.14 328.363 424.258 328.533 424.353 C 316.192 429.208 301.335 428.2 288.403 431.395 C 278.455 433.852 268.615 436.544 258.917 439.864 C 250.9 442.608 241.398 447.077 233.159 448.38 C 222.797 458.439 199.847 506.35 193.35 521.664 L 187.796 533.578 C 212.225 522.257 237.421 513.122 264.016 508.473 C 266.621 508.017 272.037 506.545 274.478 507.455 C 274.777 507.566 275.066 507.701 275.36 507.825 L 275.505 509.079 C 270.446 511.948 260.741 512.013 254.811 513.335 C 238.391 516.994 194.858 528.301 184.442 541.133 C 175.357 568.891 162.98 595.526 155.539 623.884 L 150.973 637.587 C 173.729 621.204 198.651 609.971 225.824 602.969 C 230.77 601.694 237.977 599.446 243.078 600.142 C 243.228 600.163 243.376 600.193 243.525 600.218 L 243.749 601.321 C 236.018 605.368 225.39 606.633 216.911 608.875 C 194.068 614.913 166.265 626.585 149.371 643.607 C 146.048 659.301 141.716 674.762 138.199 690.412 C 134.441 707.139 131.567 724.112 128.483 740.976 C 133.792 732.265 139.382 723.833 146.355 716.343 C 165.311 695.983 194.466 684.78 221.973 683.785 C 266.852 613.413 349.442 570.322 429.213 552.636 C 464.899 544.725 503.385 539.81 539.916 542.03 C 531.742 570.818 523.526 599.101 513.506 627.319 C 574.703 600.981 638.624 586.684 704.456 577.812 A 2269.81 2269.81 0 0 1 632.642 776.844 C 621.942 803.204 610.352 829.21 599.662 855.557 C 610.423 850.766 621.828 847.461 632.474 842.603 C 623.794 865.137 615.702 885.97 613.648 910.254 C 613.31 914.252 612.456 919.593 614.021 923.378 L 616.748 924.495 C 619.811 922.84 621.711 921.135 623.974 918.497 C 627.583 890.938 632.344 864.786 646.731 840.495 C 659.419 837.716 672.284 836.099 684.953 833.411 C 678.364 844.775 662.52 872.327 665.865 885.31 C 666.304 887.015 666.994 887.217 668.348 888.227 C 671.598 888.277 674.979 884.754 677.419 882.764 C 680.78 864.103 689.55 846.849 701.508 832.215 C 709.464 831.205 717.433 830.512 725.424 829.841 C 713.133 842.08 705.73 853.949 701.513 870.902 L 710.952 866.184 C 717.544 853.738 723.464 840.824 732.977 830.295 C 737.882 830.291 742.815 830.396 747.715 830.159 C 741.545 837.185 738.096 843.182 735.045 852.011 C 750.158 841.332 753.536 829.367 774.24 829.956 C 771.92 840.107 769.591 850.194 766.597 860.175 C 754.73 863.848 740.399 862.405 730.079 869.185 L 729.559 870.632 C 739.036 874.166 756.447 867.865 765.446 864.08 C 763.375 871.631 759.299 881.551 759.315 889.269 C 750.578 891.109 741.89 892.62 732.985 893.381 C 726.333 893.95 702.895 892.479 698.61 895.539 L 698.711 896.964 C 708.497 904.033 727.889 902.479 739.342 900.6 C 745.305 899.622 750.863 898.003 756.457 895.726 L 747.489 924.439 C 718.613 927.644 692.272 924.791 664.015 919.104 C 660.721 918.441 658.863 917.402 655.883 919.219 C 654.798 921.692 654.803 921.679 655.666 924.239 C 665.753 934.786 699.703 939.114 713.846 939.443 C 722.915 939.653 732.854 939.352 741.796 937.781 C 737.155 949.99 730.847 960.72 722.415 970.698 C 688.02 976.483 647.324 963.199 616.916 947.89 C 614.335 950.348 611.486 952.764 609.215 955.505 C 627.696 977.014 657.226 983.088 684.33 985.133 C 692.915 985.781 701.585 985.859 710.194 985.836 C 701.101 995.701 691.437 1003.95 680.767 1012.06 C 650.432 1011.02 622.711 1002.48 595.465 989.506 C 589.988 986.898 579.218 978.607 573.88 981.495 C 572.632 983.825 571.665 985.081 572.331 987.828 C 574.484 996.702 594.17 1007.53 601.977 1011.41 C 612.996 1016.9 625.333 1021.18 637.3 1024 L 626.214 1024 L 591.9 1024 L 564.253 1024 L 469.957 1024 L 467.12 1024 L 374.062 1024 L 371.676 1024 L 370.679 1024 L 291.656 1024 L 290.002 1024 L 289.168 1024 L 224.969 1024 L 223.005 1024 L 153.926 1024 L 124.406 1024 L 108.156 1024 L 0 1024 L 0 782.332 L 0 778.938 C 33.5665 795.735 67.2679 809.797 103.123 821.002 C 105.053 803.561 108.524 786.15 104.297 768.885 C 101.133 742.521 85.583 706.527 71.8053 683.97 C 67.0637 676.206 60.6588 669.617 56.1032 661.758 L 56.76 661.018 C 57.5351 661.19 58.1417 661.321 58.8053 661.784 C 62.8595 664.615 66.4105 670.965 69.1926 674.983 C 90.4854 705.732 100.427 739.975 109.031 775.868 L 114.781 732.15 A 834.449 834.449 0 0 1 125.284 683.346 C 127.954 672.839 133.029 660.723 133.88 650.043 C 133.951 649.146 133.131 648.554 132.57 647.88 C 126.15 622.855 120.474 598.786 107.931 575.843 A 199.839 199.839 0 0 0 92.7106 552.175 C 90.8939 549.775 84.8883 543.739 84.1622 541.324 C 83.998 540.777 84.0656 540.187 84.0173 539.618 L 85.3756 539.262 C 103.342 554.108 120.208 591.215 126.516 613.408 C 129.688 624.567 131.239 636.236 134.828 647.237 C 138.203 638.455 140.464 629.063 142.467 619.881 C 150.453 592.022 160.859 563.15 173.604 537.113 C 168.554 513.09 163.699 492.095 152.889 469.804 C 148.796 461.363 141.767 452.847 138.727 444.221 L 140.015 444.374 C 157.931 460.716 172.585 507.852 174.67 531.29 C 178.422 525.057 182.401 517.213 184.641 510.303 C 196.821 486.591 209.885 464.04 223.446 441.109 C 221.853 434.639 222.286 426.816 221.885 420.122 C 221.054 406.275 218.718 392.561 214.069 379.463 C 212.262 374.373 202.204 356.092 202.809 352.356 C 203.631 352.838 204.219 353.195 204.888 353.883 C 220.916 370.336 225.935 417.626 224.784 439.812 C 228.724 434.281 232.389 428.736 235.794 422.859 C 250.831 401.087 266.317 380.915 283.677 360.919 C 285.743 359.328 287.652 357.116 289.516 355.27 C 291.641 337.045 294.02 317.513 291.868 299.211 C 291.44 295.57 289.021 285.012 291.046 282.184 L 292.615 283.604 C 298.618 301.711 295.503 335.29 291.799 353.718 L 308.368 335.098 C 315.963 329.103 322.864 321.669 330.069 315.161 C 339.726 306.438 349.925 298.379 360.138 290.322 C 363.087 287.279 367.394 285.129 370.986 282.896 C 378.123 260.154 383.692 238.356 387.713 214.864 L 388.968 214.113 L 389.868 215.386 C 391.383 231.976 380.537 263.683 374.539 280.18 A 2072.35 2072.35 0 0 1 404.314 260.588 C 420.862 251.667 436.85 243.681 454.152 236.292 L 455.32 237.377 z"/>
<path transform="translate(0,0)" fill="rgb(51,130,142)" d="M 591.712 1023.04 C 602.399 1022.79 615.875 1021.38 626.214 1024 L 591.9 1024 L 591.712 1023.04 z"/>
<path transform="translate(0,0)" fill="rgb(51,130,142)" d="M 560.869 1022.16 L 564.253 1024 L 469.957 1024 C 485.957 1021.56 553.873 1025.52 560.869 1022.16 z"/>
<path transform="translate(0,0)" fill="rgb(247,242,225)" d="M 560.869 1022.16 L 559.283 1020.29 L 559.694 1018.63 C 566.251 1016.74 582.947 1023.13 591.712 1023.04 L 591.9 1024 L 564.253 1024 L 560.869 1022.16 z"/>
<path transform="translate(0,0)" fill="rgb(247,242,225)" d="M 501.233 545.586 C 512.996 544.444 525.018 544.873 536.824 544.96 C 528.665 548.306 520.714 552.498 512.75 556.298 C 504.563 559.777 496.508 563.658 488.412 567.348 C 489.748 560.373 490.845 553.342 492.026 546.339 L 501.233 545.586 z"/>
<path transform="translate(0,0)" fill="rgb(247,242,225)" d="M 368.739 655.667 C 387.961 659.541 407.967 667.797 426.745 673.801 L 417.406 680.216 C 417.289 680.296 417.18 680.389 417.055 680.456 C 413.419 682.42 369.188 666.959 360.971 664.962 C 363.511 661.827 366.149 658.762 368.739 655.667 z"/>
<path transform="translate(0,0)" fill="rgb(247,242,225)" d="M 513.897 912.615 C 517.859 907.682 523.021 903.287 527.587 898.89 C 527.943 908.665 529.022 917.814 531.616 927.266 C 533.973 935.856 550.251 971.671 548.635 976.883 C 547.37 977.69 547.078 978.193 545.528 977.858 C 542.91 977.293 541.576 975.719 540.262 973.525 C 528.941 954.628 520.334 933.621 513.897 912.615 z"/>
<path transform="translate(0,0)" fill="rgb(247,242,225)" d="M 532.742 550.078 L 532.994 550.349 C 534.628 554.31 525.574 581.337 523.893 586.9 C 504.995 587.466 485.647 585.645 466.749 584.702 L 464.819 584.321 C 467.79 578.974 523.185 554.854 532.742 550.078 z"/>
<path transform="translate(0,0)" fill="rgb(247,242,225)" d="M 456.929 587.322 C 478.325 589.808 501.163 589.941 522.726 590.089 L 515.491 612.231 L 505.234 609.836 C 482.457 606.63 459.73 602.774 437.004 599.21 L 456.929 587.322 z"/>
<path transform="translate(0,0)" fill="rgb(247,242,225)" d="M 333.491 700.6 A 1507.36 1507.36 0 0 0 374.924 711.813 A 736.476 736.476 0 0 0 326.264 755.144 C 325.148 741.349 324.72 724.117 327.468 710.636 C 329.452 707.286 331.367 703.861 333.491 700.6 z"/>
<path transform="translate(0,0)" fill="rgb(247,242,225)" d="M 200.42 739.319 C 211.586 749.433 221.64 760.912 231.498 772.281 C 219.784 785.403 207.576 798.25 195.766 811.332 C 193.334 786.984 193.704 762.991 200.42 739.319 z"/>
<path transform="translate(0,0)" fill="rgb(247,242,225)" d="M 380.164 570.018 C 381.219 570.083 381.437 570.366 382.307 570.918 C 385.26 591.301 384.824 612.854 386.601 633.462 C 382.671 637.415 375.666 646.438 370.622 648.219 L 369.509 645.744 C 365.311 623.632 361.101 601.584 355.699 579.728 C 363.558 575.888 371.971 573.066 380.164 570.018 z"/>
<path transform="translate(0,0)" fill="rgb(247,242,225)" d="M 572.822 868.487 C 578.663 864.338 585.761 861.77 592.308 858.961 C 582.321 888.285 580.287 915.89 585.386 946.472 L 575.933 954.309 C 563.257 934.442 559.798 913.037 564.942 889.995 C 566.61 882.522 569.077 875.189 572.822 868.487 z"/>
<path transform="translate(0,0)" fill="rgb(247,242,225)" d="M 487.96 546.61 C 489.559 550.696 485.87 563.979 485.07 568.914 C 467.165 578.44 449.343 587.525 431.995 598.081 L 431.32 597.479 C 429.922 590.874 435.457 563.47 436.544 554.301 C 453.267 550.493 470.891 548.165 487.96 546.61 z"/>
<path transform="translate(0,0)" fill="rgb(244,121,104)" d="M 128.483 740.976 C 133.792 732.265 139.382 723.833 146.355 716.343 C 165.311 695.983 194.466 684.78 221.973 683.785 C 218.451 689.806 215.08 695.84 211.943 702.071 C 175.183 712.281 148.601 729.271 124.913 759.585 C 126.182 753.482 127.842 747.168 128.483 740.976 z"/>
<path transform="translate(0,0)" fill="rgb(247,242,225)" d="M 358.804 667.645 C 376.612 671.014 395.085 678.399 412.46 683.788 C 403.284 689.397 394.62 696.139 386.344 702.976 L 378.282 709.433 L 335.738 698.013 C 343.197 687.743 350.551 677.297 358.804 667.645 z"/>
<path transform="translate(0,0)" fill="rgb(244,121,104)" d="M 123.376 775.696 C 123.628 772.381 123.659 768.676 125.272 765.695 C 141.751 735.234 177.508 715.517 209.512 706.026 C 205.119 716.571 199.728 727.7 197.567 738.932 C 170.79 747.33 145.635 758.213 123.376 775.696 z"/>
<path transform="translate(0,0)" fill="rgb(247,242,225)" d="M 431.419 555.315 L 432.277 555.405 C 434.29 559.494 427.415 595.569 426.186 601.791 C 413.564 610.464 401.881 619.941 390.299 629.923 C 386.096 610.517 386.763 587.935 385.668 568.039 C 400.816 563.241 415.852 558.602 431.419 555.315 z"/>
<path transform="translate(0,0)" fill="rgb(247,242,225)" d="M 400.932 624.975 A 1650.18 1650.18 0 0 1 475.569 646.228 C 463.846 651.484 452.511 658.658 441.288 664.959 L 430.712 671.436 A 2158.69 2158.69 0 0 0 371.6 653.142 A 323.992 323.992 0 0 1 400.932 624.975 z"/>
<path transform="translate(0,0)" fill="rgb(247,242,225)" d="M 432.155 601.74 C 440.808 602.233 449.872 604.449 458.466 605.806 L 514.805 614.676 L 509.807 628.953 C 501.924 632.123 494.21 636.323 486.535 640.002 C 483.964 641.325 481.502 642.74 478.528 642.666 C 467.298 642.388 418.203 626.212 403.983 622.401 C 413.204 615.207 422.403 608.211 432.155 601.74 z"/>
<path transform="translate(0,0)" fill="rgb(247,242,225)" d="M 352.762 581.081 C 356.103 585.529 365.237 641.724 367.643 652.016 A 442.45 442.45 0 0 0 344.251 680.849 L 341.625 672.272 C 332.828 648.358 325.984 623.742 316.418 600.096 C 327.813 592.671 340.493 586.909 352.762 581.081 z"/>
<path transform="translate(0,0)" fill="rgb(247,242,225)" d="M 236.077 668.789 C 244.77 658.719 253.639 649.003 263.043 639.591 C 270.016 656.014 283.707 715.639 291.284 725.311 C 282.007 730.209 272.569 736.727 264.908 743.903 A 2738.24 2738.24 0 0 0 236.077 668.789 z"/>
<path transform="translate(0,0)" fill="rgb(244,121,104)" d="M 639.091 715.599 C 643.911 715.062 648.826 714.903 653.668 714.578 L 643.787 740.887 C 605.321 743.428 566.707 745.218 528.334 748.909 L 515.148 749.816 A 431.628 431.628 0 0 1 539.043 722.177 C 550.818 722.173 562.857 720.799 574.619 719.988 L 639.091 715.599 z"/>
<path transform="translate(0,0)" fill="rgb(247,242,225)" d="M 201.642 735.123 C 209.514 712.111 219.544 691.775 233.842 672.064 C 244.188 696.192 253.699 721.184 262.15 746.048 L 256.114 750.653 C 249.073 756.831 241.417 765.227 233.461 769.987 C 223.373 757.926 211.878 747.078 201.642 735.123 z"/>
<path transform="translate(0,0)" fill="rgb(244,121,104)" d="M 324.136 828.202 C 349.596 863.691 376.721 898.239 400.875 934.634 A 920.268 920.268 0 0 0 387.047 970.108 C 370.704 949.402 355.649 927.565 340.173 906.203 C 334.008 897.693 328.038 887.938 321.035 880.135 A 1016.44 1016.44 0 0 0 324.136 828.202 z"/>
<path transform="translate(0,0)" fill="rgb(244,121,104)" d="M 693.58 582.298 L 694.651 582.87 C 692.577 585.584 654.919 610.74 647.901 616.267 A 866.25 866.25 0 0 0 577.224 678.125 L 576.562 678.409 C 574.348 675.087 576.086 616.172 576.137 607.746 C 615.16 596.324 653.468 588.612 693.58 582.298 z"/>
<path transform="translate(0,0)" fill="rgb(244,121,104)" d="M 476.777 648.843 C 479.191 650.888 479.122 655.97 479.471 658.906 C 482.704 686.151 484.423 713.74 486.5 741.098 C 487.333 752.072 489.571 764.171 489.317 775.043 C 489.272 776.953 489.03 778.657 487.748 780.171 C 487.258 780.749 486.505 780.538 485.785 780.57 C 477.931 771.675 472.118 759.554 465.535 749.501 A 5530.3 5530.3 0 0 0 421.253 681.382 C 438.77 669.229 458.146 659.201 476.777 648.843 z"/>
<path transform="translate(0,0)" fill="rgb(244,121,104)" d="M 436.664 867.131 C 458.329 865.177 587.979 850.753 596.186 853.278 L 596.467 855.1 C 595.277 856.967 594.222 857.86 592.308 858.961 C 585.761 861.77 578.663 864.338 572.822 868.487 C 561.238 873.359 551.742 883.062 540.239 887.328 C 526.719 892.342 497.122 892.856 481.75 894.281 C 460.986 896.207 440.237 898.75 419.435 900.171 C 424.965 889.027 430.459 877.919 436.664 867.131 z"/>
<path transform="translate(0,0)" fill="rgb(247,242,225)" d="M 311.388 603.595 C 303.664 612.162 294.247 621.047 287.935 630.664 C 286.831 632.347 285.833 633.577 286.255 635.594 C 289.783 634.422 309.898 609.873 314.995 604.733 C 324.614 630.784 333.907 657.331 341.752 683.969 L 324.983 707.29 L 323.048 706.357 C 311.945 710.288 303.009 718.777 292.549 723.798 C 283.663 694.964 275.899 665.475 265.487 637.157 C 280.008 624.349 294.822 613.557 311.388 603.595 z"/>
<path transform="translate(0,0)" fill="rgb(244,121,104)" d="M 697.097 585.82 L 697.964 586.126 L 698.473 587.317 C 685.333 628.958 671.816 671.158 654.86 711.416 C 632.883 712.588 610.91 714.378 588.951 715.886 C 574.295 716.893 559.461 717.324 544.889 719.178 L 543.415 718.716 L 543.462 717.145 C 550.647 706.692 561.704 697.453 570.799 688.587 C 610.142 650.238 650.815 615.628 697.097 585.82 z"/>
<path transform="translate(0,0)" fill="rgb(244,121,104)" d="M 571.866 609.325 C 575.132 614.572 572.31 671.527 572.581 682.59 A 742.626 742.626 0 0 0 511.7 748.99 C 507.932 753.723 496.301 771.532 492.299 772.976 L 491.724 767.757 C 488.858 727.255 484.063 686.796 481.916 646.263 C 510.99 631.879 540.329 617.564 571.866 609.325 z"/>
<path transform="translate(0,0)" fill="rgb(244,121,104)" d="M 417.525 683.935 C 422.009 684.916 477.201 773.133 484.521 784.545 C 480.445 790.44 445.022 846.032 443.259 846.651 L 441.076 843.707 C 415.211 804.217 391.58 762.545 367.268 722.062 C 383.428 708.876 399.719 694.859 417.525 683.935 z"/>
<path transform="translate(0,0)" fill="rgb(244,121,104)" d="M 417.703 904.138 C 430.819 901.48 444.862 900.889 458.198 899.611 A 3960.96 3960.96 0 0 0 536.026 891.863 L 527.587 898.89 C 523.021 903.287 517.859 907.682 513.897 912.615 C 486.674 937.739 468.278 969.864 466.734 1007.46 C 466.518 1012.72 466.718 1017.8 467.314 1023.03 L 467.12 1024 L 374.062 1024 L 374.41 1022.97 A 673.125 673.125 0 0 1 417.703 904.138 z"/>
<path transform="translate(0,0)" fill="rgb(246,137,116)" d="M 374.41 1022.97 L 467.314 1023.03 L 467.12 1024 L 374.062 1024 L 374.41 1022.97 z"/>
<path transform="translate(0,0)" fill="rgb(247,242,225)" d="M 123.376 775.696 C 145.635 758.213 170.79 747.33 197.567 738.932 C 191.158 758.53 188.033 793.872 193.451 813.741 C 155.644 874.642 127.82 921.79 145.292 996.461 A 212.479 212.479 0 0 0 153.324 1022.33 L 153.926 1024 L 124.406 1024 C 114.973 958.975 113.495 894.402 117.247 828.88 C 128.708 831.728 141.117 836.94 152.935 837.247 C 145.704 830.941 127.204 828.066 117.893 825.625 C 118.526 809.31 120.193 791.721 123.376 775.696 z"/>
<path transform="translate(0,0)" fill="rgb(244,121,104)" d="M 638.661 744.481 L 640.478 744.372 L 641.611 745.471 C 639.01 756.646 632.715 768.434 628.344 779.163 C 619.017 802.052 610.251 825.593 599.449 847.823 C 579.355 852.241 556.647 852.713 536.058 854.559 L 442.245 863.503 C 441.105 863.672 440.604 863.447 439.526 863.108 C 440.355 858.573 444.688 852.689 447.013 848.615 C 466.349 814.742 489.013 783.837 512.618 752.881 A 5705.86 5705.86 0 0 1 638.661 744.481 z"/>
<path transform="translate(0,0)" fill="rgb(247,242,225)" d="M 0 782.332 C 32.4457 798.799 67.7631 815.147 103.101 824.167 C 96.7539 878.4 97.5999 969.688 108.156 1024 L 0 1024 L 0 782.332 z"/>
<path transform="translate(0,0)" fill="rgb(244,121,104)" d="M 292.549 723.798 C 303.009 718.777 311.945 710.288 323.048 706.357 L 324.983 707.29 C 325.726 708.474 326.384 709.728 327.468 710.636 C 324.72 724.117 325.148 741.349 326.264 755.144 L 326.096 758.052 C 332.191 755.872 357.082 730.375 364.732 724.056 L 411.203 800.721 C 421.472 817.498 432.631 834.143 442.05 851.401 A 695.411 695.411 0 0 0 402.105 930.965 A 3642.96 3642.96 0 0 0 349.518 857.451 C 341.312 846.345 333.268 834.217 324.161 823.863 L 324.136 828.202 A 1016.44 1016.44 0 0 1 321.035 880.135 L 320.942 882.524 L 320.848 884.089 C 341.855 914.743 364.907 943.984 385.926 974.6 C 380.872 989.942 373.081 1008.01 371.676 1024 L 370.679 1024 L 291.656 1024 L 290.002 1024 L 289.168 1024 L 224.969 1024 L 223.005 1024 L 153.926 1024 L 153.324 1022.33 A 212.479 212.479 0 0 1 145.292 996.461 C 127.82 921.79 155.644 874.642 193.451 813.741 L 194.757 815.178 L 195.783 814.055 L 195.766 811.332 C 207.576 798.25 219.784 785.403 231.498 772.281 L 233.461 769.987 C 241.417 765.227 249.073 756.831 256.114 750.653 L 262.15 746.048 L 264.908 743.903 C 272.569 736.727 282.007 730.209 291.284 725.311 L 292.549 723.798 z"/>
<path transform="translate(0,0)" fill="rgb(246,137,116)" d="M 291.656 1024 C 298.615 1022.28 366.369 1021.48 370.679 1024 L 291.656 1024 z"/>
<path transform="translate(0,0)" fill="rgb(251,189,122)" d="M 324.156 792.322 C 326.3 795.977 325.064 806.376 325.001 810.928 C 303.272 816.945 281.688 823.524 259.935 829.44 L 259.48 828.534 C 260.864 822.998 263.573 817.752 265.903 812.56 C 285.444 807.591 305.121 799.113 324.156 792.322 z"/>
<path transform="translate(0,0)" fill="rgb(251,189,122)" d="M 320.942 882.524 L 320.848 884.089 C 319.82 889.9 320.011 896.101 319.827 901.996 C 309.627 906.73 239.799 936.337 233.912 936.575 C 233.167 936.21 231.851 935.854 231.574 935.066 C 230.549 932.151 233.23 922.253 234.821 919.394 C 235.743 917.736 239.4 916.119 241.059 915.372 C 257.322 908.052 274.438 901.975 290.954 895.171 C 300.951 891.052 310.632 885.707 320.942 882.524 z"/>
<path transform="translate(0,0)" fill="rgb(251,189,122)" d="M 256.114 750.653 C 256.082 750.869 256.045 751.084 256.019 751.301 C 255.438 756.121 256.55 761.375 257.198 766.187 C 259.136 780.578 265.6 800.351 262.068 814.477 C 260.888 819.198 258.603 822.979 256.69 827.361 C 255.165 830.855 254.814 835.613 252.087 838.334 C 244.656 834.309 216.779 797.558 211.671 798.122 L 211.598 798.085 L 211.713 797.441 L 210.382 796.729 C 211.148 797.312 211.444 797.303 211.696 798.251 C 213.567 805.295 250.449 836.853 251.295 841.961 C 251.423 842.735 246.685 859.652 245.978 861.311 C 245.656 862.066 245.223 862.408 244.627 862.945 C 233.9 859.709 209.207 820.185 195.783 814.055 L 195.766 811.332 C 207.576 798.25 219.784 785.403 231.498 772.281 L 233.461 769.987 C 241.417 765.227 249.073 756.831 256.114 750.653 z"/>
<path transform="translate(0,0)" fill="rgb(251,189,122)" d="M 292.549 723.798 C 303.009 718.777 311.945 710.288 323.048 706.357 L 324.983 707.29 C 325.726 708.474 326.384 709.728 327.468 710.636 C 324.72 724.117 325.148 741.349 326.264 755.144 L 326.096 758.052 L 325.307 789.369 C 306.296 795.889 285.583 801.498 267.54 810.284 C 273.25 793.272 283.616 775.747 292.804 760.315 C 297.527 752.383 324.503 714.563 325.077 709.929 C 322.076 711.259 319.738 716.365 317.762 719.023 C 297.235 746.638 280.773 775.574 265.902 806.562 C 264.026 797.853 259.775 756.187 257.953 752.632 C 257.641 752.023 256.609 751.187 256.114 750.653 L 262.15 746.048 L 264.908 743.903 C 272.569 736.727 282.007 730.209 291.284 725.311 L 292.549 723.798 z"/>
<path transform="translate(0,0)" fill="rgb(251,189,122)" d="M 258.308 832.918 A 2859.41 2859.41 0 0 1 324.844 813.392 C 324.536 816.871 324.384 820.377 324.161 823.863 L 324.136 828.202 A 1016.44 1016.44 0 0 1 321.035 880.135 C 299.563 887.186 277.996 897.52 257.051 906.196 C 249.908 909.154 243.414 912.86 235.858 914.749 C 235.788 914.598 235.7 914.455 235.65 914.296 C 233.35 906.954 253.298 843.109 258.308 832.918 z"/>
<path transform="translate(0,0)" fill="rgb(251,189,122)" d="M 193.451 813.741 L 194.757 815.178 C 211.081 832.245 226.837 850.338 243.759 866.749 C 238.462 889.065 233.382 911.33 228.806 933.807 L 187.806 894.405 C 179.475 886.392 171.22 877.778 162.195 870.56 C 164.677 878.176 206.595 915.787 215.783 924.496 C 219.233 927.767 225.505 932.374 227.934 936.228 C 228.671 937.398 228.237 939.503 228.067 940.809 L 229.481 941.943 C 229.593 941.824 229.701 941.7 229.819 941.586 C 230.795 940.643 310.441 908.596 319.334 904.733 A 335.498 335.498 0 0 1 290.002 1024 L 289.168 1024 L 224.969 1024 L 223.005 1024 L 153.926 1024 L 153.324 1022.33 A 212.479 212.479 0 0 1 145.292 996.461 C 127.82 921.79 155.644 874.642 193.451 813.741 z"/>
<path transform="translate(0,0)" fill="rgb(251,199,124)" d="M 224.969 1024 C 233.449 1021.38 281.763 1021.15 289.168 1024 L 224.969 1024 z"/>
<path transform="translate(0,0)" fill="rgb(251,199,124)" d="M 153.324 1022.33 C 165.983 1024.95 216.573 1019.11 223.005 1024 L 153.926 1024 L 153.324 1022.33 z"/>
</svg>