<svg xmlns="http://www.w3.org/2000/svg" display="block" viewBox="0 0 2048 1024"><path fill="#f7f2e1" d="M0 0h2047.67c1.05 18.23.37 36.747.36 55.02l-.02 96.512-.02 299.373-.01 378.835.03 124.367c.01 23.257.58 46.663-.26 69.893H0z"/><path fill="#fcfaed" d="M2046.67 0h1c1.05 18.23.37 36.747.36 55.02l-.02 96.512-.02 299.373-.01 378.835.03 124.367c.01 23.257.58 46.663-.26 69.893h-1.14c2.06-12.92.47-28.054.42-41.217l-.19-85.891.04-308.602c-.01-13.387 1.88-58.831-1.08-69.425l-.68-1.766c1.16-1.69 1.36-3.68 1.43-5.684.71-19.1.23-38.322.34-57.439l-.08-153.831c.07-99.975 1.71-200.2-.14-300.145"/><path fill="#0a6b76" d="M554.583 208.068c9.146-11.299 33.069-40.901 45-46.181l1.267.778c-2.716 5.06-18.64 18.639-23.971 24.232a289 289 0 0 0-18.034 20.739c9.404-2.069 19.135-3.233 28.65-4.741 19.834-3.391 40.262-4.765 60.341-5.798 13.619.299 47.756-3.254 58.013-.167-5.687 4.893-49.563 2.768-61.12 4.796-20.642 1.544-40.655 3.688-61.05 7.184a1054 1054 0 0 0-30.484 4.297c10.406 4.098 48.158 16.552 52.969 24.3l-1.438.968c-16.186-6.568-45.418-24.405-62.371-22.498l-.766.157c-7.435 2.143-14.946 3.87-22.489 5.59a596 596 0 0 0-23.774 6.37c-6.073 2.231-12.314 4.291-18.241 6.875-2.197-.932-3.884-3.129-5.529-4.821l22.323-7.647c7.744-2.576 15.579-4.766 23.438-6.954a1515 1515 0 0 1 19.487-4.255l6.702-1.314c3.83-.019 7.381-.993 11.077-1.91"/><path fill="#f47968" d="M647.836 197.097c26.585-15.396 53.579-20.119 83.525-12.118 5.672 1.516 11.709 3.239 15.331 8.158.37 1.612 1.078 3.011.154 4.555-4.163 6.959-26.298 13.58-34.213 14.897-17.497 2.912-53.167-1.831-67.904-10.863 11.557-2.028 55.433.097 61.12-4.796-10.257-3.087-44.394.466-58.013.167m-94.641 16.11a1054 1054 0 0 1 30.484-4.297c18.265 5.499 42.125 12.679 51.782 30.966 1.583 2.999 2.545 6.449 1.626 9.817-.822 3.011-3.325 5.303-6.021 6.689-9.219 4.739-21.973 2.556-31.422-.698-20.63-7.107-43.034-23.375-57.289-39.707 16.953-1.907 46.185 15.93 62.371 22.498l1.438-.968c-4.811-7.748-42.563-20.202-52.969-24.3"/><path fill="#fbc77c" d="m1308.96 127.158-.42.927c-12.55 8.816-56.3 13.796-71.5 12.821-8.9-.572-21.32-2.349-27.36-9.504-2.16-2.567-3.01-5.624-2.73-8.944.37-4.273 2.65-7.819 5.88-10.545 13.1-11.057 37.49-11.718 53.67-10.285 15.36 1.36 39.3 7.489 49.68 19.857l-.41 2.361c-12.53-1.276-56.13-6.629-66.05-1.831l-.36 1.705c4.8 2.442 47.45-1.244 59.6 3.438"/><path fill="#f47968" d="M477.085 234.969c5.927-2.584 12.168-4.644 18.241-6.875 21.373 6.217 53.892 16.692 65.163 37.805 1.541 2.886 2.538 6.521 1.544 9.746-.907 2.943-3.359 5.061-6.073 6.327-11.644 5.43-28.999 1.214-40.478-3.241-10.866-4.216-49.975-24.697-54.509-35.399a8.4 8.4 0 0 1-.544-1.866l.423-.278c8.753-3.009 37.764 8.922 46.883 12.908 6.118 2.674 12.624 6.898 19.266 7.829l1.173-.889c-5.392-6.404-31.823-14.98-40.407-17.695-5.021-1.588-11.698-2.503-16.061-5.346 1.221-1.825 3.369-2.211 5.379-3.026m66.421-24.991q.037-.754.108-1.504c1.741-17.915 16.488-38.076 30.027-49.158 12.278-10.051 29.864-18.981 46.178-17.177 3.404.377 7.234 1.437 9.356 4.339 1.954 2.672 1.976 6.137 1.398 9.258-3.602 19.458-28.025 36.472-43.078 47.159-9.515 1.508-19.246 2.672-28.65 4.741a289 289 0 0 1 18.034-20.739c5.331-5.593 21.255-19.172 23.971-24.232l-1.267-.778c-11.931 5.28-35.854 34.882-45 46.181-3.696.917-7.247 1.891-11.077 1.91m-232.515 139.54c27.774-9.45 62.499-21.641 91.093-7.73 5.126 2.493 10.393 6.34 12.252 11.977 1.133 3.434.754 7.016-.947 10.197-3.548 6.634-11.338 10.357-18.281 12.255-23.649 6.465-77.502 1.186-98.826-11.195 5.065-.611 10.329-2.459 15.326-3.603 9.686-2.218 19.375-3.804 29.302-4.378 10.519-.608 31.05 2.723 39.385.393-18.73-9.021-60.763-1.239-80.829 3.632 3.744-3.977 7.504-7.846 11.525-11.548m143.161-113.226a45 45 0 0 1-.357-4.784c-.542-23.915 5.386-45.047 22.427-62.458 8.551-8.736 20.892-15.936 33.416-15.835 5.02.041 10.074 1.444 13.646 5.134 3.135 3.239 4.272 7.562 4.132 11.975-.641 20.072-19.743 39.592-33.537 52.177l-22.323 7.647c-2.235.731-3.711 1.623-6.037.918 3.096-7.23 8.778-13.624 13.189-20.097 5.482-8.044 14.496-23.742 17.773-32.809l-.476-1.064c-1.583.797-2.558 1.714-3.499 3.197-3.341 5.266-5.695 11.101-8.684 16.566-7.206 13.179-17.457 30.282-28.502 40.518zm-57.22 40.317c26.37-1.045 60.546-4.839 81.752 14.666 3.31 3.044 5.992 6.761 6.109 11.411.1 3.96-1.888 7.533-4.631 10.27-7.943 7.925-21.159 9.77-31.943 9.587-17.788-.302-64.282-15.368-79.324-25.413 16.276-3.755 36.973-2.668 53.319-.351 5.502.781 25.919 6.89 29.226 6.115l.251-1.303c-.207-.182-.408-.372-.621-.547-2.004-1.652-6.257-2.611-8.758-3.382-22.139-6.829-47.644-7.219-70.42-4.061a634 634 0 0 1 25.04-16.992"/><path fill="#fbc77c" d="M1376.83 166.005c.53 1.338.82 2.671.5 4.1-3.96 17.966-24.15 37.227-39.65 45.963-15.14 8.527-36.64 13.228-53.62 8.321-6.56-1.898-13.03-5.789-16.28-12.01-2.02-3.862-2.6-8.206-1.23-12.382 6.87-20.989 38.46-19.196 56-21.15a138 138 0 0 0 21.86-4.46c14.3-4.166 25.48-11.791 38.47-18.37-1.36 4.698-32.52 25.972-38.02 29.006-7.8 4.297-16.96 8.452-25.65 10.523-7.12 1.699-15.06 2.36-21.75 5.341l-.19.803c17.1 3.706 43.57-9.79 57.48-18.748 6.5-4.181 17.41-10.897 22.08-16.937"/><path fill="#f47968" d="m283.677 360.919-1.429-2.634c-13.787-25.496-23.77-52.125-14.962-81.259 2.385-7.888 8.483-21.917 16.107-25.508 2.778-1.309 6.122-1.108 8.952-.028 7.534 2.873 12.68 11.73 15.873 18.757 9.978 21.961 8.457 42.846.15 64.851l-16.569 18.62c3.704-18.428 6.819-52.007.816-70.114l-1.569-1.42c-2.025 2.828.394 13.386.822 17.027 2.152 18.302-.227 37.834-2.352 56.059-1.864 1.846-3.773 4.058-5.839 5.649m76.461-70.597c-6.576-23.478-8.407-47.472 1.563-70.384 5.208-11.968 14.808-24.234 27.263-29.006 4.605-1.764 9.8-2.447 14.406-.286 4.728 2.218 7.608 6.767 9.254 11.564 6.642 19.355.234 40.805-8.31 58.378a2072 2072 0 0 0-29.775 19.592c5.998-16.497 16.844-48.204 15.329-64.794l-.9-1.273-1.255.751c-4.021 23.492-9.59 45.29-16.727 68.032-3.592 2.233-7.899 4.383-10.848 7.426"/><path fill="#fbc77c" d="M1386.74 125.993c-6.81-16.716-38.87-38.704-53.2-50.315-9.82-7.955-20.53-19.374-21.7-32.507-.42-4.76.61-9.485 3.76-13.183 4.06-4.779 10.85-7.413 17.01-7.735 12.4-.647 24.17 6.925 32.94 15.074 15.81 14.694 28.02 36.692 28.78 58.558.25 7.177.89 23.966-3.91 29.134 1.99-7.999-13.06-36.616-17.3-43.68-4.5-7.507-19.82-28.322-28.41-30.17-.58-.123-.93-.068-1.55-.05l-.39 1.556c5.6 5.075 12.31 10.238 17.13 16.007 8.99 10.73 26.19 40.986 27.31 54.81.08.986-.16 1.585-.47 2.501"/><path fill="#f47968" d="M245.208 429.81c27.573-14.954 65.489-32.655 97.597-23.117 6.257 1.859 11.633 5.447 14.743 11.316 2.327 4.391 3.543 9.809 1.976 14.649-1.789 5.522-6.71 9.155-11.742 11.569-26.217 12.574-85.339 8.676-114.623 4.153 8.239-1.303 17.741-5.772 25.758-8.516 9.698-3.32 19.538-6.012 29.486-8.469 12.932-3.195 27.789-2.187 40.13-7.042-.17-.095-.329-.213-.51-.287-2.175-.889-6.736-.319-9.171-.228-28.461 1.069-59.052 10.97-85.128 21.986 3.625-5.384 7.102-11.225 11.484-16.014m-21.762 11.299c-10.593-11.406-20.931-24.144-29.843-36.915-11.49-16.465-16.963-33.069-13.312-53.166 1.481-8.151 5.798-23.12 12.953-27.787 2.218-1.447 4.074-1.672 6.609-1.005 10.514 2.768 22.036 16.705 27.657 25.66 14.938 23.795 14.393 48.529 8.284 74.963-3.405 5.877-7.07 11.422-11.01 16.953 1.151-22.186-3.868-69.476-19.896-85.929-.669-.688-1.257-1.045-2.079-1.527-.605 3.736 9.453 22.017 11.26 27.107 4.649 13.098 6.985 26.812 7.816 40.659.401 6.694-.032 14.517 1.561 20.987m-30.096 80.555c22.195-20.126 56.441-34.577 86.731-32.986 9.058.476 19.157 3.094 25.48 10.048 3.264 3.59 5.429 8.318 5.133 13.24-.352 5.858-3.933 10.854-8.26 14.564-23.658 20.28-87.359 17.308-117.992 14.603 10.416-12.832 53.949-24.139 70.369-27.798 5.93-1.322 15.635-1.387 20.694-4.256l-.145-1.254c-.294-.124-.583-.259-.882-.37-2.441-.91-7.857.562-10.462 1.018-26.595 4.649-51.791 13.784-76.22 25.105zm-19.746 15.449c-16.104-15.715-48.659-47.265-55.868-67.31-5.914-16.446-4.849-37.132 2.951-52.842 2.141-4.312 4.75-7.302 9.403-8.803 9.635.568 22.564 12.321 29.1 19.177 22.369 23.466 26.268 51.857 25.451 82.968-2.24 6.91-6.219 14.754-9.971 20.987-2.085-23.438-16.739-70.574-34.655-86.916l-1.288-.153c3.04 8.626 10.069 17.142 14.162 25.583 10.81 22.291 15.665 43.286 20.715 67.309"/><path fill="#fbc77c" d="M1486.54 175.34c.01-8.4-1.41-17.079-2.65-25.377-5.29-35.474-13.55-39.987-27.53-69.744-4.94-10.512-8.81-22.735-4.51-34.144 1.88-4.992 6.06-9.195 10.89-11.387 6.56-2.976 14.67-2.111 21.2.541 13.58 5.52 23.31 19.188 28.93 32.277 9.32 21.696 10.02 45.976 1.18 67.893-2.95 7.293-14.33 31.872-21.43 34.596-.17.067-.35.115-.53.173 7.63-9.543 7.41-47.265 6.07-59.552-1.17-10.73-6.95-39.204-15.41-45.742-.83-.637-1.82-1.024-2.8-1.344l-.85.407c3.28 8.65 8.62 16.467 11.5 25.291 6.93 21.275 7.4 61.815-1.49 82.531-.56 1.317-1.55 2.592-2.57 3.581"/><path fill="#f47968" d="M132.57 647.88c-21.03-34.148-61.215-51.495-67.571-91.134-1.679-10.466-1.671-30.521 4.873-39.119 1.627-2.138 3.941-3.674 6.665-3.926 9.28-.858 20.819 7.474 27.541 13.448 25.433 22.605 36.352 59.867 38.389 92.732-2.003 9.182-4.264 18.574-7.639 27.356-3.589-11.001-5.14-22.67-8.312-33.829-6.308-22.193-23.174-59.3-41.14-74.146l-1.359.356c.049.569-.019 1.159.145 1.706.726 2.415 6.732 8.451 8.549 10.851a200 200 0 0 1 15.22 23.668c12.543 22.943 18.219 47.012 24.639 72.037m22.969-23.996c20.326-25.239 48.868-42.283 81.504-45.809 12.417-1.342 25.6-.555 35.65 7.746 4.716 3.895 8.483 9.292 8.945 15.539.432 5.822-2.239 11.103-6.071 15.317-23.271 25.592-92.794 25.266-125.756 26.915q-.22.009-.44.015c16.894-17.022 44.697-28.694 67.54-34.732 8.479-2.242 19.107-3.507 26.838-7.554l-.224-1.103c-.149-.025-.297-.055-.447-.076-5.101-.696-12.308 1.552-17.254 2.827-27.173 7.002-52.095 18.235-74.851 34.618zm-51.242 145.001c-5.451-9.346-11.492-17.972-18.94-25.851-19.194-20.306-44.772-36.634-50.572-65.822-2.357-11.862-2.82-31.373 4.38-41.638 1.61-2.295 4.028-4.27 6.897-4.575 7.107-.756 19.183 7.8 24.783 12.156 28.831 22.422 39.576 54.002 43.936 88.995l-5.75 43.718c-8.604-35.893-18.546-70.136-39.838-100.885-2.782-4.018-6.334-10.368-10.388-13.199-.663-.463-1.27-.594-2.045-.766l-.657.74c4.556 7.859 10.96 14.448 15.702 22.212 13.778 22.557 29.328 58.551 32.492 84.915"/><path fill="#fbc77c" d="m1531.98 232.109-.49 1.33c-13.6 2.671-25.42 7.053-37.41 14.061-26.21 15.304-56.96 49.364-89.52 46.233-9.52-.916-20.3-5.307-26.46-12.903-4.25-5.236-5.28-12.046-4.44-18.588 1.4-10.895 7.66-19.633 16.19-26.242 32.98-25.539 84.77-20.817 123.56-14.974 10.26 1.546 20.28 4.096 30.58 5.443l1 1.42c-36.09 1.557-69.66 2.849-103.57 16.922-6.87 2.852-15.53 6.366-20.72 11.845l-.18 1.558 1.65.518c5.26-2.81 10.37-6.394 15.75-8.857 26.43-12.084 65.05-19.977 94.06-17.766m52.24-12.025.27-.744c6.22-17.641 6.14-48.82 5-67.199-1.66-26.643-13.67-72.144 17.27-87.441 7.29-3.605 15.79-3.74 23.38-.991 10.75 3.89 18.55 12.86 23.14 23.107 9.72 21.711 4.71 48.333-3.52 69.692-10.43 27.1-36.33 58.928-63.29 70.783-.78.342-1.5.604-2.32.786 10.16-9.921 25.21-46.071 30.1-59.938 4.49-12.745 14.62-52.771 9.08-64.369l-1.34-.183c-2.28 4.383-1.62 21.689-2.48 27.813-3.76 26.812-13.85 53.154-26.98 76.742-2.02 3.628-4.46 9.234-7.9 11.67-.13.096-.27.181-.41.272"/><path fill="#f47968" d="M193.374 139.332c12.972-1.023 25.781 1.822 36.664 9.148a53.4 53.4 0 0 1 22.631 34.021c2.499 12.885.214 26.26-7.226 37.167-9.515 13.95-23.514 20.773-39.614 23.732-14.061.813-27.268-1.687-39.136-9.799-11.171-7.636-19.101-19.173-21.548-32.546-2.439-13.328.973-27.11 8.684-38.168 9.734-13.962 23.147-20.558 39.545-23.555"/><path fill="#fbc77c" d="M1635.77 322.272c-2.8 1.423-6.87 1.948-9.93 2.916-7.35 2.329-14.93 5.325-21.54 9.346-8.72 5.31-16.72 12.241-24.79 18.501-21.79 16.905-45.41 34.169-72.06 42.262-15.54 4.719-35.62 7.316-50.45-.892-6.8-3.762-12.32-10.19-14.4-17.743-2.46-8.925.41-18.837 4.97-26.59 11.47-19.453 36.55-29.999 57.42-35.372 29.52-7.598 60.88-6.347 90.57-.271 4.32.884 11.69 1.788 15.42 4.19.27.176.54.368.81.552-.16.052-.31.108-.47.158-10.24 3.233-22.91 2.836-33.63 4.76-17.84 3.201-73.09 20.369-83.6 33.707l.5 1.547c4.77-.104 31.22-16.013 39.08-19.008 30.19-11.506 69.45-19.336 102.1-18.063m131.22-187.974c-.04-.167-.06-.337-.11-.501-1.65-5.89-32.88-28.714-39.07-34.385-14.13-12.95-43.24-44.52-32.65-65.04 1.67-3.232 4.46-5.695 7.98-6.721 7.35-2.15 15.66.968 22.01 4.616 32.03 18.415 43.13 56.427 60.15 86.608 3.48 6.189 11.68 14.147 13.27 20.855.2.836.25 1.687.25 2.543.1-.221.21-.439.31-.662 5.94-13.385-3.87-38.519 11.35-56.576 1.86-2.212 4.52-5.138 7.26-6.244 3.76-1.524 9.09-.94 12.64.903 7.5 3.895 12 11.456 14.4 19.31 7.81 25.599-.84 53.041 1.93 78.48.85 7.884 8.74 26.619 8.11 31.396.15-.181.29-.36.43-.544 3.73-4.933 4.4-13.363 6.37-19.257 5.36-16.097 19.68-51.007 38.94-53.995 5.71-.885 11.75.998 16.35 4.399 5.57 4.125 8.33 10.422 9.15 17.168 3.81 31.321-23.98 65.549-30.65 96.255-2.99 13.775 3.42 34.267 2.06 39.169.2-.209.4-.415.6-.627 5.87-6.246 9.7-16.448 13.72-24.033 8.88-16.752 26.86-48.008 48.35-49.332 7.05-.434 13.37 3.064 18.4 7.734 6.48 6.027 9.48 13.841 9.74 22.627.77 26.633-26.46 52.401-43.82 70.394-7.93 8.227-25.63 29.733-35.88 33.163 2.25-4.728 3.19-11.212 4.72-16.302a236 236 0 0 1 10.88-29.122c3.1-6.758 6.28-14.233 10.36-20.435 3.15-4.789 10.99-13.143 11.74-18.513l-2-.298c-9.91 4.713-26.55 45.102-30.28 55.399-2.53 6.977-4.65 19.207-8.95 24.925-.12.154-.25.3-.37.449.7-8.303-21.28-49.594-25.95-60.25-12.38-28.219 1.39-65.287 10.81-92.48.72-2.073.64-3.133-.26-5.069-7.35 4.68-15.52 46.009-16.87 54.972-1.28 8.453-1.13 17.714-3.28 25.926l-.22.806c.93-5.942-27.84-50.544-32.59-57.907-2.97-4.612-8.23-10.6-10.16-15.575-.65-1.66-1.41-2.398-2.68-3.608.7-11.784 7.34-61.718 5.88-67.9l-1.5-.568c-4.93 3.675-4.44 52.319-8.87 61.819l-.36.726c-1.48-9.38-62.11-90.059-70.9-97.322l-1.51.716c.4 8.321 45.7 54.251 46.15 65.278.01.194 0 .389 0 .583-.28-.373-.64-.908-.99-1.245-9.53-9.078-57.39-21.437-70.61-20.624l-.05.872c8.58 3.602 18.27 4.235 27.24 6.68 17.07 4.656 33.43 11.357 49.38 18.975 3.03 3.682 10.94 12.147 10.56 16.953-10.61-5.457-20.99-10.305-32.6-13.341-20.08-5.255-72.67-7.692-80.39-30.445-1.24-3.664-.99-7.421.82-10.85 2.17-4.121 6.28-6.823 10.65-8.133 17.48-5.233 45.17 9.314 60.61 17.205"/><path fill="#f47968" d="M1674.79 1024c8.84-5.39 30.36-18.27 34.37-27.873 1.25-2.999.83-5.096-.45-7.98-4.5-4.748-11.35-2.794-17.05-1.641a153.4 153.4 0 0 0-27.62 8.088c-14.39 5.816-45.83 24.886-60.94 20.106-2.89-.91-5.26-2.59-6.62-5.37-10.85-22.064 33.9-33.621 38.58-51.223.68-2.578-.09-5.171-1.55-7.326-10.92-16.172-95.34 51.809-119.81 46.278-3.54-.802-6.94-2.908-8.72-6.167-10.87-19.955 44.4-43.31 49.59-61.038-.36-2.654-.22-2.836-2.22-4.562-14.98-3.477-61.58 23.708-76.82 30.653a186.6 186.6 0 0 1-25.08 9.357c-8.4 2.443-19.65 2.861-27.49-1.667-3.27-1.884-5.62-4.55-6.58-8.236-7.52-28.969 46.38-36.394 55.16-51.982-.03-.812.17-2.251-.35-2.866-2.15-2.565-6.5-3.095-9.68-3.196-7.13-.227-14.92 1.626-22.07 2.341-18.62 1.861-37.57 3.336-56.24 1.676-15.19-1.35-40.41-5.174-50.71-17.866-3.01-3.698-4.13-8.15-3.58-12.859.77-6.54 4.2-11.226 9.33-15.175 24.33-18.717 74.93-14.752 103.69-10.231 9.08 1.427 17.93 4.164 27.09 5.323 3.62.456 9.4 1.479 12.45-.902.04-8.024-29-25.501-35.12-34.488-2.18-3.206-4.2-7.545-3.23-11.521.72-2.955 2.59-5.295 5.14-6.896 5.01-3.151 11.95-2.396 17.42-1.072 38.17 9.24 76.75 67.791 93.01 70.591 3.15.543 5.65.215 8.33-1.62 6.02-11.783-27.87-36.988-29.58-54.127-.31-3.134.19-6.115 2.41-8.518 2.62-2.839 6.81-3.79 10.53-3.779 30.73.088 52 52.777 71.39 71.356 3.45 3.301 6.16 4.109 10.86 3.963.81-.435 2.27-.921 2.61-1.764 3.33-8.253-11.95-28.559-15.28-37.105-2.34-5.986-4.11-13.304-1.26-19.439 1.45-3.134 4.77-6.233 8.09-7.275 26.76-8.395 47.17 63.086 55.05 77.887 2.06 3.867 4.37 6.947 8.27 9.044.89.064 2.25.38 3.07.018 14.56-6.482-10.3-42.382-3.51-57.333 1.07-2.356 2.89-4.231 5.39-5.027 4.03-1.28 8.96-.441 12.6 1.596 18.55 10.388 24.69 55.75 30.5 75.253 1.41 4.71 3.32 9.924 7.86 12.38 2.73.253 3.26.426 5.63-.868 7.06-10.419-2.34-45.697-.35-60.299.71-5.211 2.4-11.027 6.84-14.288 3.28-2.401 7.8-2.861 11.71-2.195 3.78.645 7.14 3.117 9.3 6.231 18.33 26.446 20.65 92.917 32.67 128.014 2.41 7.055 18.85 36.829 17.99 41.409l1.83 1.83-.05 2.38z"/><path fill="#f68974" d="m1819.81 1021.93 1.59 2.07h-143.68c12.51-2.02 26.34-1.05 39.05-1.07l72.36.04c9.04 0 22.04 1.39 30.68-1.04"/><path fill="#08223b" d="M1529.37 883.669c1.36-16.087-39.14-44.68-46.08-56.955 5.49.335 16.46 10.924 20.12 14.803 7.09 7.506 31.15 33.055 30.88 42.448 11.28 2.03 60.2 11.515 67.82 18.155 2.81-11.676-17.9-47.247-24.6-57.285-3.62-5.42-9.53-11.274-12.2-17.022l1.19-.956c6.02 2.487 13.07 14.57 16.46 20.05 5.63 9.096 26.12 46.322 23.8 56.194 9.69 1.729 51.29 16.391 57.77 22.252l.18-.693c3.74-12.795-14.03-55.163-19.98-68.068-2.78-6.027-8.81-14.347-9.52-20.646l1.26-.801c4.77 2.767 16.41 30.09 18.77 36.578 3.06 8.431 17.21 48.091 13.91 55.191 5.78 1.221 25.12 9.358 28.77 13.935 7.02 1.563 25.7 10.589 30.58 15.64.07-.15.14-.297.2-.45 3.84-9.867-16.03-75.655-20.35-88.16-.86-2.485-4.23-9.151-1.67-10.487 8.89 9.362 26.72 85.236 26.32 99.373-.02.599-.13 1.095-.26 1.674 15.13 6.137 32.24 16.863 45.2 26.802.04-.131.1-.261.14-.395 2.85-8.711-14.93-100.158-8.45-105.538 4.13 5.614 3.22 24.908 3.98 32.394 1.16 11.53 9.44 68.666 8.57 74.808-.06.424-.14.845-.23 1.264 17.78 7.419 31.1 23.126 47.86 32.016l1.83 1.83-.05 2.38h-10.19l-1.59-2.07c-.02-.19-.03-.39-.08-.57-1.2-4.46-31.68-23.819-37.39-27.014-5.98 2.522-13.92 2.574-20.31 4.654-9.63 3.14-41.1 17.17-46.99 17.56.12-.28.3-.74.49-1.01 7.17-9.77 48.12-20.741 60.87-24.155-3.33-5.587-47.69-30.126-56.01-33.971a324 324 0 0 0-61.25 18.145c-8.91 3.602-17.77 9.564-27.03 11.895l-.97-.819c1.72-2.865 7.31-5.203 10.34-6.771 15.73-8.146 32.24-14.255 49.27-19.036 7.34-2.061 15.24-3.323 22.34-5.987.18-.067.36-.138.53-.207-2.95-4.732-15.41-9.126-20.68-11.616-13.12-6.482-26.94-13.875-41.03-17.907-21.54 4.166-43.68 10.631-63.57 19.816-6.42 2.962-37.04 20.73-38.48 20.819l-.65-1.097.86-2.349c9.53-10.131 48.93-26.048 62.15-30.297 10.91-3.507 22.12-5.766 33.08-9.028-6.72-5.96-43.86-16.557-54.97-20.054-9.07-2.856-19.52-6.391-29.16-6.202-19.57.383-63 21.152-80.67 30.713-5.67 3.071-10.77 7.372-16.54 10.217-1.44.71-2.96 1.534-4.49.975l.56-2.031c3.63-3.774 9.34-6.52 13.84-9.215a286.8 286.8 0 0 1 54.71-25.301c8.17-2.802 16.71-4.699 24.76-7.777l.75-.291c-4.94-2.557-12.08-3.448-17.56-4.701-35.95-8.232-71.89-11.079-108.33-15.56l-1.13-2.011-1.95.805.17.316.45-.908c12.81-3.613 91.9 6.426 103.07 11.441.19.085.37.179.56.268m-298.5-603.175c2.15-.403 3.34-.448 5.35.445.87 5.028-9.24 12.047-12.04 16.511 2.69 2.518 6 .349 9.27 3.305 1.41 5.503 2.5 11.433.02 16.81-3.4 7.347-12.23 10.222-19.3 12.79 1.34 8.887-21.71 41.515-24.79 52.236.73 1.515 1.07 2.555 1.15 4.238-18.2 26.505-45.98 50.086-72.93 67.631 1.92 1.377 3.62 3.103 5.07 4.968 4.33 5.582 5.79 13.395 4.8 20.292-1.05 7.31-4.6 13.537-10.51 17.916 6.19 9.395 34.21 67.171 32.95 74.84-10.61-2.691-21.72-4.164-32.5-6.083 7.38 5.438 12.49 20.586 16.19 28.851 19.37 43.206 34.67 86.368 46.75 132.147 3.98 15.088 5.24 35.595 11.79 49.062.52.422.91 1.132 1.57 1.266.17.035 5.98-3.574 6.58-3.932a1173 1173 0 0 1 29.08-16.748c74.41-41.733 358.37-199.152 430.28-181.281 1.66.411 1.93.387 2.79 1.816-6.8 2.195-19.92-.06-27.8.924-19.98 2.493-39.84 8.326-58.95 14.612-46.81 15.405-92.18 36.334-136.62 57.519a3580 3580 0 0 0-195.35 101.715c-9.42 5.27-40.72 20.952-46.94 26.665-1.46 1.34-1.48 1.36-1.53 3.331.11.098.2.201.31.293 2.37 2.032 6.07 2.094 9 2.88 11.21 3.01 21.12 5.637 32.93 4.532 5.09-.477 10.06-1.754 15.2-1.883 2.5-.063 5.64.281 7.4 2.267 1.89 2.127 2.51 5.307 2.29 8.038-2.12 2.498-4.73 4.173-7.52 5.822-7.27 4.289-66.97 35.669-70.54 36.01-.99-.5-2.15-1.083-2.93-1.903-3.81-4.043-3.51-10.92-5.64-15.907-3.09-7.266-15.12-20.099-16.14-26.55-.44-2.768 1.03-6.343.95-9.261-.13-4.263-4.76-10.369-7.75-13.198l-.55-.515c-.38.579-.45.769-1.05 1.267-6.94 5.726-26.72 13.851-35.44 18.201-101.72 50.689-206.295 97.16-314.884 131.116-9.656 3.02-30.22 11.649-39.865 10.233 2.733-2.938 67.853-22.432 78.642-26.097a1909 1909 0 0 0 177.717-71.656c13.1-6.093 28.1-11.161 40.11-19.027.17-.112.34-.23.51-.345 11.87-4.45 87.02-40.177 93.47-46.123 0-.882-.05-1.761-.21-2.63-1.23-6.787-6.51-15.115-9.5-21.354-10.61-22.067-49.01-99.2-65.23-110.987.65 6.915-19.36 43.267-23.82 50.396-25.67 40.971-65.905 58.897-107.363 79.68-5.618 2.816-12.502 9.929-18.138 11.046-1.449.287-3.779 3.808-4.845 5.064l-.12.783-1.576 1.111c1.881 18.387 1.99 37.131 2.547 55.607l.397-.348-7.215 9.109c-5.748-5.817-10.872-12.413-16.145-18.668-24.326 8.981-50.257 15.055-75.432 21.208-3.825.935-14.343 4.432-17.757 2.362 1.281-1.774 2.25-1.795 4.268-2.366 29.223-8.271 58.631-13.735 87.463-23.826-10.844-14.118-31.129-34.374-38.862-48.867-.274-10.125 30.755-18.445 36.985-25.864 1.022-1.218 1.598-4.518 2.333-6.153 1.192-2.652 3.442-4.295 6.127-5.268 1.767.807 3.319 1.414 5.227 1.796 10.297-7.57 19.293-17.524 28.953-25.958 14.001-12.223 28.873-23.266 43.925-34.146 5.186 2.693 10.622 5.647 16.457 6.491l.731-.728c-3.945-3.495-9.602-5.305-14.413-7.361a120 120 0 0 1 1.082-.764c7.758-5.402 9.981-1.523 17.981-.302 2.43.37 4.06.698 6.08-.788-.98-1.592-13.211-4.013-16.15-5.061 4.249-11.375 6.19-24.147 8.54-36.034a4851 4851 0 0 0 11.62-62.71c-6.52-5.803-11.58-11.057-15.885-18.769 8.875-9.206 17.515-17.968 24.875-28.512 19.98-28.627 15.59-44.936 22.11-76.222 1.5-7.217 6.79-17.844 5.53-24.948-2.16 4.365-9 7.404-13.25 9.628.05.202.11.4.14.604.74 5.923-2.95 15.863-4 22.078-2.13 12.699-1.47 25.79-5.09 38.288-1.57 5.432-4.03 10.441-7.82 14.679-6 6.701-14.55 11.616-21.25 17.72-4.321 3.941-10.031 12.458-14.788 15.107-1.483.826-4.596-1.223-6.819-1.071-9.912 11.122-17.598 25.018-24.2 38.297-3.437 6.915-6.484 14.545-11.152 20.737-4.617 6.125-11.918 5.971-17.212 10.366-.991.822-2.152 3.061-3.033 4.167-2.949-.006-3.503-.685-5.796-2.371-.87 1.258-1.387 1.627-2.711 2.274-1.955-1.047-3.133-1.636-4.028-3.842-1.667-4.111.895-10.321 2.591-14.02 4.186-9.13 10.867-17.218 16.191-25.716 5.873-9.375 10.996-19.295 16.66-28.815 3.417-5.743 7.483-11.356 9.757-17.667-.203-1.508-.431-3.123-.334-4.65.42-6.611 34.275-46.364 40.528-52.869 8.266-8.602 17.446-17.189 26.706-24.708 10.45-8.473 23.13-14.531 33.15-23.443.47-.494.86-1.009 1.26-1.558 2.42-3.281 5.39-8.283 4.72-12.48-21.44-3.683-30.23-6.14-47.75-19.192l-1.41.852c-2.98 7.056 1.68 17.404 1.88 24.909.14 5.225-1.02 10.517-4.76 14.363-6.52 6.719-18.119 7.653-26.967 7.791-5.963.093-22.355.938-26.771-3.349 2.072-1.363 6.9-.629 9.577-1.12 4.31-.79 8.711-3.307 12.653-5.195-13.619-2.111-27.457-.08-41.025-2.956-17.233-3.653-28.462-12.913-37.925-27.395 3.508 2.413 7.103 4.948 11.196 6.241 29.286 9.252 32.251-23.49 52.322-33.518 14.239-7.114 31.398-2.382 45.59 2.252 1.26-4.996 3-9.797 5.93-14.07 8.2-11.955 21.73-18.921 35.75-21.46 10.38-1.883 24.42-1.852 32.4 6.095 3.53 3.517 7.02 8.272 11.03 11.157 2.66 1.912 6.23 1.703 9.05 3.674-.21 3.546-1.93 6.574-4.15 9.25 3.1 3.458 6.19 6.969 8.29 11.153 1.22 2.448 1.18 3.952.36 6.433-2.27 2.427-4.97 2.929-8.04 3.862-15.63 4.745-3.67 16.215-9.11 26.405 35.03-10.66 79.47-47.185 99.64-77.971 6.45-9.847 8.8-21.902 15.91-31.295 6.81-8.996 18.73-14.613 24.94-23.71"/><path fill="#fbc77c" d="m1056.93 375.415 2.62.055a50 50 0 0 0 1.29 1.128c2.96 2.49 4.83 3.144 8.66 2.764 1.31-.13 1.24.156 2.25.921l-1.59.544.33.345-3.05 1.558-.49 1.849c-1.64.966-3.02.873-4.88.584-3.11-.488-4.92-1.806-6.76-4.307-.23-2.937-.09-3.013 1.62-5.441"/><path fill="#f47968" d="M1220.93 797.945c1.11-2.285 1.36-3.834 3.99-4.713 5.16-1.72 12.9-.892 18.35-.858-2.79 5.536-10.04 8.947-15.74 10.765-.62.199-1.25.367-1.89.523-2.51-1.364-3.4-3.327-4.71-5.717"/><path fill="#f68974" d="M904.901 806.063c6.087-.122 9.542 1.289 14.573 4.548l.547 20.38c-5.617-7.289-11.2-14.903-17.746-21.389 1.23-1.054 1.852-2.152 2.626-3.539m143.789-353.152.32-.803c3.45-8.782 5.49-29.458 14.62-33.489 3.42-1.512 8.59.585 11.91 1.988.14.061.27.145.41.217-12.32 10.552-16.9 14.328-21.96 29.981-1.12 3.48-1.51 7.33-3.54 10.421.76-2.852-.76-5.649-1.76-8.315"/><path fill="#fcfaed" d="M905.671 743.622c8.505 3.638 22.514 17.786 27.594 25.488-.822 2.443-2.924 3.656-4.852 5.323-9.766-7.913-19.061-16.69-28.355-25.156.624-2.187 3.851-4.148 5.613-5.655"/><path fill="#f47968" d="M1165.32 367.496c4.02-.011 6.99 2.443 9.99 4.851 3.72 2.989 10.63 9.069 11.16 14.028-1.41 3.656-3.82 5.684-6.75 8.131-.6-.149-15.3-17.054-21.66-20.38 3.1-1.774 5.25-3.706 7.26-6.63"/><path fill="#f68974" d="M1186.58 779.491c1.72.03 3.1-.397 4.34.896 1.82 1.882 3.53 5.446 3.45 8.089-6.46 6.254-17.7 10.898-26.01 14.093-2.77-.605-5.45-6.402-8.32-8.509 9.09-4.394 18.07-9.043 26.54-14.569"/><path fill="#fbc77c" d="M1075.46 341.322c.38.124.76.252 1.13.405 5.62 2.35 11.66 8.067 14 13.669 2.43.558 5.73.943 7.57 2.727 1.1 1.067.75 1.815.72 3.262-1.56 2.085-2.88 3.483-5.05 4.973-.71-2.401-2.05-3.936-3.59-5.844l-.46-.101c-1.11-1.571-2.12-3.174-3.11-4.831-2.03.33-2.4.301-3.74 2.024-5.05 6.465-2.45 19.028-8.07 24.591.13-.644.19-.823.18-1.566-.07-4.949-4.74-5.45-4.63-10.617.16-7.821 5.29-25.916 5.05-28.692"/><path fill="#fbbd7a" d="M1073.75 388.478c4.22-.235 9.04 1.148 13.14 2.048 1.25 5.137 3.06 19.964.87 24.615-2.22 2.846-7.17 3.796-10.45 4.671-3.87-4.368-8.99-4.787-14.4-5.627.34-.362.68-.734 1.01-1.115 3.99-4.683 10.29-18.572 9.83-24.592m1.11-6.281c5.62-5.563 3.02-18.126 8.07-24.591 1.34-1.723 1.71-1.694 3.74-2.024.99 1.657 2 3.26 3.11 4.831l.46.101c1.54 1.908 2.88 3.443 3.59 5.844 4.28 3.156 8.79 6.11 10.05 11.583-.58 2.73-.97 4.376-3.49 5.979-5.14 3.262-13.47 3.239-19.17 1.83-2.49-.618-4.37-1.989-6.36-3.553"/><path fill="#f68974" d="M1120.99 515.482c.12.054.23.11.34.161.14.066.29.119.44.19 5.03 2.533 21.3 44.291 23.98 51.938-2.44.717-7.66-.832-10.3-1.283-5.59-1.667-11.37-2.441-17.11-3.367 1.34-3.287-.74-7.282-.8-10.821 3.24-2.129 6.24 1.136 9.1-.854-.15-11.546-3.09-24.677-5.65-35.964"/><path fill="#fcfaed" d="M865.983 772.461c.211.02.426.013.631.061 3.937.915 48.889 56.771 54.255 63.882-.485 2.677-2.841 4.902-4.524 6.97-.374-.278-.47-.334-.848-.707-4.919-4.852-52.763-64.32-52.894-65.2-.1-.671.058-1.356.087-2.035zm383.627 19.035c1.19-.253 2.56-.636 3.78-.658 2.83-.051 3.26.57 5.21 2.431.41 1.293 1.33 2.839.68 4.07-1.65 3.112-64.01 36.052-72.15 38.692l-1 .918-1.75-.206-4.68-6.458c13.57-5.073 50.15-23.092 61.64-31.206 3.02-2.13 5.69-4.952 8.27-7.583"/><path fill="#f68974" d="M1168.53 806.298c10.56-2.995 18.85-12.114 29.01-14.722 1.39 1.698-1.75 5.387-1.64 8.13l1.05.367c2.51-1.054 3.44-5.627 5.27-8.014l1.74.088c.85 2.615-3.29 4.94-3.13 8.317l1.68.604c2.6-1.354 4.08-6.369 5.85-8.895 1.7.806 1.54 1.086 2.19 2.777-.55 4.217-3.78 8.11-6.07 11.6 5.6-3.036 8.04-6.509 11.46-11.669l1.2.445a300 300 0 0 0 1.77 6.373l1.45-2.12-.11 2.717c.42-1.451.54-2.857.68-4.351 1.31 2.39 2.2 4.353 4.71 5.717-4.13 5.021-38.25 20.372-46.08 22.871.03-.313.09-.778.05-1.112-.55-4.877-7.38-15.814-11.08-19.123"/><path fill="#f47968" d="m1086.78 470.169.88 2.902c-.28.77-.45 1.37-1.05 1.964-4.53 4.519-14.18 10.009-20.55 10.242-2.91.106-5.78-.814-7.83-2.958-3.26-3.413-3.87-8.755-3.86-13.248.02-11.448 2.8-25.029 10.44-33.814 2.89-3.322 6.52-5.771 9.61-8.885l.4-.409c1.45 1.819 11.77 40.311 11.96 44.206"/><path fill="#fbbd7a" d="M959.186 530.118c5.655 4.674 11.646 8.214 18.188 11.479-6.818 8.011-12.742 16.831-18.085 25.884-4.785 8.107-14.218 31.808-20.32 36.652l-1.736-.2c-.504-3.971 1.336-8.194 2.348-12.004.719-2.704 1.572-5.401.145-7.869-3.115.401-6.679 3.663-9.258 5.5-10.393 5.71-10.214 8.679-15.587 18.179l-.205.352 1.293-.071-1.966 3.497-.277-.608c-.177-4.383 2.473-9.518 4.429-13.346 4.474-8.754 10.703-16.739 15.742-25.193 8.453-14.184 15.815-28.656 25.289-42.252M1216.5 297.487l1.03.129.56.783-4.97 6.86.34 1.218c3.64.139 5.83-2.566 8.98-4.212 2.42-1.268 3.56-1.02 5.99-.23-2.43 2.196-4.71 4.512-7.01 6.845l.24.947c3.76-.808 6.36-3.152 9.31-5.485 1.39 5.372-6.93 6.809-7.72 11.69l1.51.615c2.25-1.789 4.46-3.416 6.92-4.902.04 1.058.18 1.472-.29 2.453-3.83 8.059-11.16 10.602-19.03 13.319.06.324.18.883.15 1.246-.26 4.361-9.73 21.903-12.89 24.734.06.433.18 1.141.14 1.617-.52 5.336-9.81 21.193-13.6 24.597-.06-.247-.12-.497-.19-.741-1.58-5.361-11.1-11.71-15.72-14.418 3.56-2.692 6.43-6.461 9.3-9.856 14.85-17.6 15.87-27.908 26.38-44.751 2.81-4.497 7.08-8.48 10.57-12.458"/><path fill="#f68974" d="M900.604 753.803a571 571 0 0 1 23.917 20.74c-1.498 2.366-2.851 4.578-4.961 6.469-3.24-1.372-6.635-3.135-10.186-3.336l-.753.829c2.006 2.044 6.833 3.383 9.564 4.511-2.365.357-4.737.721-7.082 1.194-2.946.595-4.974 1.509-6.647 4.035 3.391.983 8.501-1.08 12.047-1.892 1.817 1.046 2.324 1.811 3.186 3.703-2.765 2.164-6.589.979-9.924 1.898-2.442.672-2.695 1.49-3.783 3.566l.735 2.057c2.683 1.796 6.382 1.617 9.512 1.829-5.515 1.536-8.151 1.743-11.328 6.657-.774 1.387-1.396 2.485-2.626 3.539-10.817-12.68-21.239-25.73-31.81-38.618a1162 1162 0 0 1 30.139-17.181"/><path fill="#f7f2e1" d="m1103.31 464.495 1.8.935c2.34 4.168 4.46 8.755 4.97 13.559 1.85 17.387-.83 35.673.58 53.354.73 9.015 6.23 20.604 5.1 29.195-7.86 5.983-20.94 8.499-30.53 10.094-4.12 1.028-8.43 1.334-12.66 1.793.09-.141.19-.278.28-.424 2.77-4.764 2.74-21.539 3.69-27.881 2.06-13.854 16.33-64.344 13.92-72.909 4.65-1.794 8.88-4.773 12.85-7.716"/><path fill="#f47968" d="m1031.64 441.251 2.72.846c.12.587.22 1.206.23 1.804.08 6.994-3.24 15.402-3.82 22.797-.7 8.828-.78 18.263-2.88 26.89-3.99 16.416-16.12 22.119-27.8 32.262-5.589 4.853-10.45 10.401-15.328 15.953-5.457-2.375-10.791-5.465-16.092-8.195-4.274-2.955-7.597-6.058-10.462-10.405 13.337-19.697 27.674-40.076 44.872-56.605 9.02-8.664 20.43-15.995 28.56-25.347"/><path fill="#f7f2e1" d="M1074.82 425.963c14.38-8.654 76.58-36.79 80.67-49.206 7.51 3.053 18.28 13.268 21.37 20.823.06.135.09.276.14.414-2.17 11.421-55.49 50.681-67.95 59.16-6.39 4.35-14.72 11.32-22.27 13.015-.19-3.895-10.51-42.387-11.96-44.206"/><path fill="#f47968" d="M1048.69 452.911c1 2.666 2.52 5.463 1.76 8.315 4.09 7.569.17 18.105 7.31 25.619 1.76 1.855 3.79 2.871 6.38 2.927 7.41.16 17.08-7.051 22.3-12.009 1.44 13.203-12.77 58.909-14.75 78.987-.9 9.055 3.17 29.741 2.04 34.63-4.76-.072-9.67-.296-14.39-.998-22.82-3.399-42.91-14.713-56.7-33.21 4.85-4.478 9.46-9.05 13.73-14.092 18.64-22.018 27.41-42.321 30.76-70.78.74-6.233 2.07-13.134 1.56-19.389"/><path fill="#0a6b76" d="M1386.74 125.993c.31-.916.55-1.515.47-2.501-1.12-13.824-18.32-44.08-27.31-54.81-4.82-5.769-11.53-10.932-17.13-16.007l.39-1.557c.62-.017.97-.072 1.55.052 8.59 1.847 23.91 22.662 28.41 30.17 4.24 7.063 19.29 35.68 17.3 43.679 4.4 6.077 6.09 14.285 7.82 21.478 22.51 6.511 45.17 16.73 66.44 26.556 2.28 1.052 19.29 9.568 20.28 9.471.57-.057 1.07-.415 1.6-.623.8-2.615.93-3.975-.02-6.561 1.02-.989 2.01-2.264 2.57-3.581 8.89-20.716 8.42-61.256 1.49-82.53-2.88-8.825-8.22-16.642-11.5-25.292l.85-.407c.98.32 1.97.707 2.8 1.344 8.46 6.538 14.24 35.011 15.41 45.742 1.34 12.287 1.56 50.009-6.07 59.552.72 4.17-1.2 9.605-3.66 13-.45.612-.92 1.055-1.48 1.554 13.02 3.744 80.8 45.002 86.67 54.919.08.136.15.278.22.417 3.58-3.179 9.87-14.11 10.41-18.87.04-.337-.01-.784-.03-1.104.14-.091.28-.176.41-.272 3.44-2.436 5.88-8.042 7.9-11.67 13.13-23.588 23.22-49.93 26.98-76.742.86-6.124.2-23.43 2.48-27.813l1.34.183c5.54 11.598-4.59 51.624-9.08 64.369-4.89 13.867-19.94 50.017-30.1 59.938-.37 4.343-3.8 10.487-7.13 13.3-.16.14-.33.27-.5.405 16 7.656 115.52 98.822 120.24 111.45.2.547.28 1.206.33 1.786 3.22-3.675 8.18-10.765 8.03-15.893-.02-.41-.13-.77-.22-1.169 2.04-4.078 1.55-10.466 1.67-14.965 1.05-39.751-23.32-106.902-.6-137.994 5.67-7.754 13.72-12.874 23.33-13.927 19.54-2.141 56.38 15.024 73.55 24.594 4.94 2.756 19.39 13.094 24.16 12.368-.01-.417 0-1.14-.1-1.588-.92-3.839-15.46-24.605-19.01-26.582.38-4.806-7.53-13.271-10.56-16.953-15.95-7.618-32.31-14.319-49.38-18.975-8.97-2.445-18.66-3.078-27.24-6.68l.05-.872c13.22-.813 61.08 11.546 70.61 20.624.35.337.71.872.99 1.245 0-.194.01-.389 0-.583-.45-11.027-45.75-56.957-46.15-65.278l1.51-.716c8.79 7.263 69.42 87.942 70.9 97.322l.36-.726c4.43-9.5 3.94-58.144 8.87-61.819l1.5.568c1.46 6.182-5.18 56.116-5.88 67.9 1.27 1.21 2.03 1.948 2.68 3.608 1.93 4.975 7.19 10.963 10.16 15.575 4.75 7.363 33.52 51.965 32.59 57.907l.22-.806c2.15-8.212 2-17.473 3.28-25.926 1.35-8.963 9.52-50.292 16.87-54.972.9 1.936.98 2.996.26 5.069-9.42 27.193-23.19 64.261-10.81 92.48 4.67 10.656 26.65 51.947 25.95 60.25.12-.149.25-.295.37-.449 4.3-5.718 6.42-17.948 8.95-24.925 3.73-10.297 20.37-50.686 30.28-55.399l2 .298c-.75 5.37-8.59 13.724-11.74 18.513-4.08 6.202-7.26 13.677-10.36 20.435a236 236 0 0 0-10.88 29.122c-1.53 5.09-2.47 11.574-4.72 16.302 3.18 8.649 19.86 48.058 17.6 55.088 18.99.227 105.78 3.595 117.75 11.852-14.57 1.443-32.31-3.295-46.94-4.981a531 531 0 0 0-69.98-3.859c7.18 6.965 17.6 65.028 17.45 76.888-.01 1.226-.28 2.418-.65 3.581 34.41 2.786 69.74 12.699 101.31 26.529l.68 1.766c2.96 10.594 1.07 56.038 1.08 69.425l-.04 308.602.19 85.891c.05 13.163 1.64 28.297-.42 41.217h-97.24c.35-.62.48-.78.73-1.38 5.39-12.74-32.73-130.544-39.69-148.998-7.62-20.216-39.11-96.877-51.71-110.263-4.86-5.164-19.38-12.433-26.02-15.438-.02 3.678-3.29 8.222-5.56 10.936-15.88 19.011-48.5 30.767-72.5 32.748-54.97 4.536-91.63-31.412-117.85-75.507-4.84-8.134-12.43-25.011-19.37-30.549-.2-.158-.4-.309-.6-.463 9.31-1.796 18.54-5.365 27.78-7.677 21.95-5.489 45.45-6.99 67.99-5.566 40.12 2.536 80.88 17.779 107.85 48.586 5.18 5.917 11.99 14.391 11.42 22.632 7.35 3.918 16.02 8.084 22.11 13.746.06-1.296-.02-2.515-.53-3.725-5.48-12.91-16.09-26.304-24.06-37.844-41.78-60.479-92.5-115.038-154.34-155.428-12.67-8.274-26.46-17.09-40.49-22.773-6.87 8.228-26.04 13.947-35.92 16.904-32.65 9.775-68.53 10.577-99.35-5.351-9.57-4.947-17.93-11.762-27.39-16.793l-.84-.439c-.21.274-.61.821-.9 1.089-4.79 4.554-44.91 26.756-53.97 32.212-25.58 15.407-214.55 133.272-226.6 133.154l-.15-1.424c7.93-6.086 18.13-10.455 26.9-15.37a2722 2722 0 0 0 45.54-26.43 10996 10996 0 0 0 156.95-95.213c10.05-6.116 42.21-23.177 48.44-29.746.13-.133.25-.274.37-.41-.1-.243-.2-.49-.31-.729-1.49-3.182-54.9-42.137-60.33-44.139 9.97-3.359 20.87-11.223 30.34-16.202 32.65-17.157 72.17-30.402 109.22-20.803 5.46-2.126 10.25-12.707 14.29-17.395 18.86-21.889 46.61-33.369 74.97-35.622 10.09-.801 47.24-1.909 54.82 4.578 11.75-.093 23.58-2.908 35.47-3.117-.04-.445-.09-1.144-.23-1.606-2.98-9.575-53.34-65.809-63.28-71.966a397 397 0 0 0-26.8.053c-32.65-1.273-71.91 6.557-102.1 18.063-7.86 2.995-34.31 18.904-39.08 19.008l-.5-1.547c10.51-13.338 65.76-30.506 83.6-33.707 10.72-1.924 23.39-1.527 33.63-4.76.16-.05.31-.106.47-.158 15.59.225 30.98-1.394 46.62-.327-.11-.425-.25-1.123-.45-1.552-4.94-10.179-89.22-81.417-100.87-85.672-8.29.601-16.8.354-25.11.489-29.01-2.211-67.63 5.682-94.06 17.766-5.38 2.463-10.49 6.047-15.75 8.857l-1.65-.518.18-1.558c5.19-5.479 13.85-8.993 20.72-11.845 33.91-14.073 67.48-15.365 103.57-16.922 2.85.231 5.18.11 7.98-.405-38.02-25.119-75.96-46.56-118.13-64.019-12.09-5.004-24.98-10.544-37.72-13.493-2.39 4.743-15.49 13.273-20.29 16.033-4.67 6.04-15.58 12.756-22.08 16.937-13.91 8.958-40.38 22.454-57.48 18.748l.19-.803c6.69-2.981 14.63-3.642 21.75-5.341 8.69-2.071 17.85-6.226 25.65-10.523 5.5-3.034 36.66-24.308 38.02-29.006 3.56-1.241 7.73-3.89 9.59-7.239-.09-.105-.16-.22-.26-.314-5.98-5.746-71.94-21.164-83.25-21.306-12.15-4.682-54.8-.996-59.6-3.438l.36-1.705c9.92-4.798 53.52.555 66.05 1.831 12.49 2.502 70.92 15.315 77.42 21.527.28-4.82-2.33-15.276-5.78-18.755-.22-.217-.45-.416-.67-.625"/><path fill="#f7f2e1" d="M1722.75 399.377c3.29-.163 5.61-.879 8.3 1.464 4.68 4.076 13.81 15.322 14.03 21.434 0 .164-.01.328-.01.492-13.21 4.909-28.84 6.653-42.61 10.127-13.12 3.306-28.35 9.599-41.37 11.165 1.7-3.433 37.23-30.737 42.92-34.365 5.8-3.698 12.25-6.049 17.98-9.814z"/><path fill="#fbc77c" d="M1546.53 447.347c5.46-2.126 10.25-12.707 14.29-17.395 18.86-21.889 46.61-33.369 74.97-35.622 10.09-.801 47.24-1.909 54.82 4.578-.13.062-.25.125-.37.184-6.6 3.089-16.13 3.964-23.29 6.087-14.3 4.239-55.13 20.156-62.07 33.661l.51 1.506c3.18-.065 10.11-7.342 13.28-9.491 9.08-6.168 19-10.871 29.07-15.164 23.31-9.934 49.73-15.193 75.01-16.314l-.76.503c-5.73 3.765-12.18 6.116-17.98 9.814-5.69 3.628-41.22 30.932-42.92 34.365-6.31 3.118-63.35 23.983-67.62 24.763-6.91-8.752-35.24-20.095-46.27-21.402z"/><path fill="#f7f2e1" d="m1909.45 410.5 14.41-.225c.99 1.27 1.75 2.554 2.31 4.063 4.2 11.221 18.36 66.921 14.42 75.882-33.58-3.172-66.56-3.224-100.13.25-15.8 1.634-31.95 5.146-47.73 5.928l-3.52-3.406c.08-.858.11-1.313-.05-2.134-1.74-9.012-31.35-60.872-38.13-65.485 19.29-2.192 38.43-5.868 57.74-8.081a1265 1265 0 0 1 100.68-6.792"/><path fill="#fbc77c" d="M1704.9 337.956c2.04-4.078 1.55-10.466 1.67-14.965 1.05-39.751-23.32-106.902-.6-137.994 5.67-7.754 13.72-12.874 23.33-13.927 19.54-2.141 56.38 15.024 73.55 24.594 4.94 2.756 19.39 13.094 24.16 12.368 3.52 2.069 7.2 7.442 8.16 11.444.2.846.15 1.588.1 2.447-11.7-10.803-57.25-18.907-73.42-18.454-1.9.054-3.77.303-5.63.7l-.56.703c8.23 3.496 18.79 2.641 27.58 3.916 13.25 1.922 49.7 10.231 58.53 20.391.43 1.2 1.05 2.434.88 3.729 4.17 3.15 20.39 30.38 21.21 35.591.08.532.11 1.036.13 1.572 3.55 2.657 9.94 12.997 10.3 17.411.04.387-.06.907-.11 1.268-19.47-13.858-67.18-20.243-90.59-17.57l-1.2 1.324 1.18 1.437c31.27 2.23 50.99 1.405 81.18 13.568 3.93 1.582 10.83 4.211 13.42 7.552 1.39 1.782 1.39 2.943 1.27 5.029-52.02-25.343-88.29 7.351-129.92-8.097-3.62 7.72-32.36 42.256-39.56 45.705-.21.1-.41.21-.62.308-.13.059-.26.109-.38.163 6.6-6.666 19.03-41.594 22.69-52.209 3.71-10.754 15.82-54.81 11.16-64.399l-1.46-.258c-1.84 3.097-1.45 8.213-1.65 11.817-.58 10.433-2.9 21.707-5.49 31.818-3.26 12.673-20.23 65.38-28.86 72.668-.15.123-.3.233-.45.35"/><path fill="#f7f2e1" d="M1766.68 228.112c26.42-2.806 50.2-2.314 75.97 4.796 4.17 3.15 20.39 30.38 21.21 35.591.08.532.11 1.036.13 1.572-.81.234-1.7.336-2.51.084-5.34-1.664-11.23-5.798-16.35-8.299-6.06-2.958-12.61-5.21-18.94-7.529-19.22-7.046-39.22-10.244-59.64-10.796.1-.218.22-.43.3-.655 1.66-4.203 1.82-10.695-.17-14.764m-17.16 63.881c41.63 15.448 77.9-17.246 129.92 8.097 4.45 3.743 12.16 19.323 12.7 25.3.04.475-.06 1.171-.1 1.61 3.76 3.436 10.99 18.351 11.01 23.64 0 .681-.07 1.34-.2 2.007-10.03-9.964-49.43-12.788-63.09-12.716-4.72.024-9.26.404-13.88 1.406l-.41 1.009c8.44 2.6 17.97 1.215 26.69 1.709 11.47.65 47.16 5.254 54.31 14.692l.03 1.416c.95.884 1.62 1.926 2.27 3.041 3.97 6.837 15.49 37.623 13.9 43.973-58.38 1.414-115.34 6.555-173.09 15.15-.02-.305-.01-.86-.09-1.19-1.97-7.714-42.07-59.027-49.62-63.761.43-.361.79-.63 1.15-1.041 2.79-3.141 8.19-14.055 7.94-18.166.12-.054.25-.104.38-.163.21-.098.41-.208.62-.308 7.2-3.449 35.94-37.985 39.56-45.705"/><path fill="#fbc77c" d="M1906.5 360.163c-6.37-.276-12.81-2.214-19.38-2.461-14.24-.534-28.54 3.198-42.52 5.698-15.43 2.759-38.61 6.974-52.29-2.89-4.44-3.205-7.07-7.892-7.83-13.287-.88-6.323.39-13.627 4.34-18.765 14.3-18.615 59.88-12.287 79.55-7.565 4.36 1.046 19.82 6.811 22.91 6.268.26-.045.51-.108.76-.161 3.76 3.436 10.99 18.351 11.01 23.64 0 .681-.07 1.34-.2 2.007-10.03-9.964-49.43-12.788-63.09-12.716-4.72.024-9.26.404-13.88 1.406l-.41 1.009c8.44 2.6 17.97 1.215 26.69 1.709 11.47.65 47.16 5.254 54.31 14.692z"/><path fill="#f7f2e1" d="M1596.73 470.968c15-3.69 30.32-11.323 44.99-16.445a644 644 0 0 1 84.5-23.682c6.67-1.438 14.86-2.29 21.06-5.076 1.4.879 2.55 1.851 3.57 3.167 7.28 9.45 37.38 59.08 36.25 68.625-18.98 5.481-101.18 19.433-111.87 29.365l.69 1.386 1.52.083-.98-.62c1.01.272 2.04.623 3.08.325 15.84-4.552 31.22-10.272 47.24-14.415 86.27-22.302 181.71-33.308 269.07-10.69 16.7 4.324 31.99 11.022 48.18 16.73l1.77-.856c2.96 10.594 1.07 56.038 1.08 69.425l-.04 308.602.19 85.891c.05 13.163 1.64 28.297-.42 41.217h-83.06c.31-.97.54-1.96.47-2.99-.74-10.9-4.87-23.182-7.46-33.827a907 907 0 0 0-45.83-142.26c-2.56-6.18-6.39-18.538-11.28-22.838 3.36-8.475 3.05-22.28 3.51-31.529 22.42-3.141 39.88-10.456 56.48-26.209 23.06-21.889 35.45-50 36.19-81.849.52-22.546-11.02-79.663-26.26-95.583-9.49 6.556-19.75 12.053-28.99 18.961-27.83 20.799-55.26 51.722-65.77 85.425a97.09 97.09 0 0 0 11.1 80.853c3.23 5.049 11.12 12.763 13.05 16.665.07.123.12.25.18.376.19.59.34 1.178.44 1.791.94 5.569-1.62 19.392-5.08 23.782.14-1.031.24-2.031.12-3.071-1.79-15.096-58.77-109.39-70.44-118.893.06-.15.11-.298.16-.449 1.62-4.967 2.24-18.01-.09-22.764a58.9 58.9 0 0 0 27.16-25.461c8.07-15.146 8.68-32.898 3.63-49.092-5.78-18.527-24.32-45.074-41.5-54.14-.05 4-13.86 23.927-16.47 29.289-3.11 6.397-5.71 13.043-7.29 19.993-4.95 21.823 1.56 43.818 16.04 60.575 4.46 5.148 11.12 10.271 14.59 15.971.09.141.16.287.25.43.22.355.56.839.72 1.253 1.98 5.046.77 15.355-1.15 20.267a7.4 7.4 0 0 0-.38-2.52c-2.82-8.434-14.93-19.61-20.88-26.532-44.58-51.791-98-100.866-160.63-129.875a57 57 0 0 0-1.93-7.906c-5.98-18.133-22.12-42.072-39.48-50.875"/><path fill="#0a6b76" d="M455.32 237.377c11.045-10.236 21.296-27.339 28.502-40.518 2.989-5.465 5.343-11.3 8.684-16.566.941-1.483 1.916-2.4 3.499-3.197l.476 1.064c-3.277 9.067-12.291 24.765-17.773 32.809-4.411 6.473-10.093 12.867-13.189 20.097 2.326.705 3.802-.187 6.037-.918 1.645 1.692 3.332 3.889 5.529 4.821-2.01.815-4.158 1.201-5.379 3.026 4.363 2.843 11.04 3.758 16.061 5.346 8.584 2.715 35.015 11.291 40.407 17.695l-1.173.889c-6.642-.931-13.148-5.155-19.266-7.829-9.119-3.986-38.13-15.917-46.883-12.908l-.423.278c-22.069 10.735-43.103 21.376-63.497 35.143a634 634 0 0 0-25.04 16.992c22.776-3.158 48.281-2.768 70.42 4.061 2.501.771 6.754 1.73 8.758 3.382.213.175.414.365.621.547l-.251 1.303c-3.307.775-23.724-5.334-29.226-6.115-16.346-2.317-37.043-3.404-53.319.351-20.26 16.035-40.758 32.991-57.904 52.388-4.021 3.702-7.781 7.571-11.525 11.548 20.066-4.871 62.099-12.653 80.829-3.632-8.335 2.33-28.866-1.001-39.385-.393-9.927.574-19.616 2.16-29.302 4.378-4.997 1.144-10.261 2.992-15.326 3.603-15.47 12.778-38.991 47.169-51.074 64.788-4.382 4.789-7.859 10.63-11.484 16.014 26.076-11.016 56.667-20.917 85.128-21.986 2.435-.091 6.996-.661 9.171.228.181.074.34.192.51.287-12.341 4.855-27.198 3.847-40.13 7.042-9.948 2.457-19.788 5.149-29.486 8.469-8.017 2.744-17.519 7.213-25.758 8.516-10.362 10.059-33.312 57.97-39.809 73.284l-5.554 11.914c24.429-11.321 49.625-20.456 76.22-25.105 2.605-.456 8.021-1.928 10.462-1.018.299.111.588.246.882.37l.145 1.254c-5.059 2.869-14.764 2.934-20.694 4.256-16.42 3.659-59.953 14.966-70.369 27.798-9.085 27.758-21.462 54.393-28.903 82.751l-4.566 13.703c22.756-16.383 47.678-27.616 74.851-34.618 4.946-1.275 12.153-3.523 17.254-2.827.15.021.298.051.447.076l.224 1.103c-7.731 4.047-18.359 5.312-26.838 7.554-22.843 6.038-50.646 17.71-67.54 34.732-3.323 15.694-7.655 31.155-11.172 46.805-3.758 16.727-6.632 33.7-9.716 50.564 5.309-8.711 10.899-17.143 17.872-24.633 18.956-20.36 48.111-31.563 75.618-32.558 44.879-70.372 127.469-113.463 207.24-131.149 35.686-7.911 74.172-12.826 110.703-10.606-8.174 28.788-16.39 57.071-26.41 85.289 61.197-26.338 125.118-40.635 190.95-49.507a2270 2270 0 0 1-71.814 199.032c-10.7 26.36-22.29 52.366-32.98 78.713 10.761-4.791 22.166-8.096 32.812-12.954-8.68 22.534-16.772 43.367-18.826 67.651-.338 3.998-1.192 9.339.373 13.124l2.727 1.117c3.063-1.655 4.963-3.36 7.226-5.998 3.609-27.559 8.37-53.711 22.757-78.002 12.688-2.779 25.553-4.396 38.222-7.084-6.589 11.364-22.433 38.916-19.088 51.899.439 1.705 1.129 1.907 2.483 2.917 3.25.05 6.631-3.473 9.071-5.463 3.361-18.661 12.131-35.915 24.089-50.549 7.956-1.01 15.925-1.703 23.916-2.374-12.291 12.239-19.694 24.108-23.911 41.061l9.439-4.718c6.592-12.446 12.512-25.36 22.025-35.889 4.905-.004 9.838.101 14.738-.136-6.17 7.026-9.619 13.023-12.67 21.852 15.113-10.679 18.491-22.644 39.195-22.055-2.32 10.151-4.649 20.238-7.643 30.219-11.867 3.673-26.198 2.23-36.518 9.01l-.52 1.447c9.477 3.534 26.888-2.767 35.887-6.552-2.071 7.551-6.147 17.471-6.131 25.189-8.737 1.84-17.425 3.351-26.33 4.112-6.652.569-30.09-.902-34.375 2.158l.101 1.425c9.786 7.069 29.178 5.515 40.631 3.636 5.963-.978 11.521-2.597 17.115-4.874l-8.968 28.713c-28.876 3.205-55.217.352-83.474-5.335-3.294-.663-5.152-1.702-8.132.115-1.085 2.473-1.08 2.46-.217 5.02 10.087 10.547 44.037 14.875 58.18 15.204 9.069.21 19.008-.091 27.95-1.662-4.641 12.209-10.949 22.939-19.381 32.917-34.395 5.785-75.091-7.499-105.499-22.808-2.581 2.458-5.43 4.874-7.701 7.615 18.481 21.509 48.011 27.583 75.115 29.628 8.585.648 17.255.726 25.864.703-9.093 9.865-18.757 18.114-29.427 26.224-30.335-1.04-58.056-9.58-85.302-22.554-5.477-2.608-16.247-10.899-21.585-8.011-1.248 2.33-2.215 3.586-1.549 6.333 2.153 8.874 21.839 19.702 29.646 23.582 11.019 5.49 23.356 9.77 35.323 12.59H0V778.938c33.567 16.797 67.268 30.859 103.123 42.064 1.93-17.441 5.401-34.852 1.174-52.117-3.164-26.364-18.714-62.358-32.492-84.915-4.741-7.764-11.146-14.353-15.702-22.212l.657-.74c.775.172 1.382.303 2.045.766 4.054 2.831 7.605 9.181 10.388 13.199 21.292 30.749 31.234 64.992 39.838 100.885l5.75-43.718a835 835 0 0 1 10.503-48.804c2.67-10.507 7.745-22.623 8.596-33.303.071-.897-.749-1.489-1.31-2.163-6.42-25.025-12.096-49.094-24.639-72.037a200 200 0 0 0-15.22-23.668c-1.817-2.4-7.823-8.436-8.549-10.851-.164-.547-.096-1.137-.145-1.706l1.359-.356c17.966 14.846 34.832 51.953 41.14 74.146 3.172 11.159 4.723 22.828 8.312 33.829 3.375-8.782 5.636-18.174 7.639-27.356 7.986-27.859 18.392-56.731 31.137-82.768-5.05-24.023-9.905-45.018-20.715-67.309-4.093-8.441-11.122-16.957-14.162-25.583l1.288.153c17.916 16.342 32.57 63.478 34.655 86.916 3.752-6.233 7.731-14.077 9.971-20.987 12.18-23.712 25.244-46.263 38.805-69.194-1.593-6.47-1.16-14.293-1.561-20.987-.831-13.847-3.167-27.561-7.816-40.659-1.807-5.09-11.865-23.371-11.26-27.107.822.482 1.41.839 2.079 1.527 16.028 16.453 21.047 63.743 19.896 85.929 3.94-5.531 7.605-11.076 11.01-16.953 15.037-21.772 30.523-41.944 47.883-61.94 2.066-1.591 3.975-3.803 5.839-5.649 2.125-18.225 4.504-37.757 2.352-56.059-.428-3.641-2.847-14.199-.822-17.027l1.569 1.42c6.003 18.107 2.888 51.686-.816 70.114l16.569-18.62c7.595-5.995 14.496-13.429 21.701-19.937 9.657-8.723 19.856-16.782 30.069-24.839 2.949-3.043 7.256-5.193 10.848-7.426 7.137-22.742 12.706-44.54 16.727-68.032l1.255-.751.9 1.273c1.515 16.59-9.331 48.297-15.329 64.794a2072 2072 0 0 1 29.775-19.592c16.548-8.921 32.536-16.907 49.838-24.296z"/><path fill="#33828e" d="M591.712 1023.04c10.687-.25 24.163-1.66 34.502.96H591.9zm-30.843-.88 3.384 1.84h-94.296c16-2.44 83.916 1.52 90.912-1.84"/><path fill="#f7f2e1" d="m560.869 1022.16-1.586-1.87.411-1.66c6.557-1.89 23.253 4.5 32.018 4.41l.188.96h-27.647zm-59.636-476.574c11.763-1.142 23.785-.713 35.591-.626-8.159 3.346-16.11 7.538-24.074 11.338-8.187 3.479-16.242 7.36-24.338 11.05 1.336-6.975 2.433-14.006 3.614-21.009zM368.739 655.667c19.222 3.874 39.228 12.13 58.006 18.134l-9.339 6.415c-.117.08-.226.173-.351.24-3.636 1.964-47.867-13.497-56.084-15.494 2.54-3.135 5.178-6.2 7.768-9.295m145.158 256.948c3.962-4.933 9.124-9.328 13.69-13.725.356 9.775 1.435 18.924 4.029 28.376 2.357 8.59 18.635 44.405 17.019 49.617-1.265.807-1.557 1.31-3.107.975-2.618-.565-3.952-2.139-5.266-4.333-11.321-18.897-19.928-39.904-26.365-60.91m18.845-362.537.252.271c1.634 3.961-7.42 30.988-9.101 36.551-18.898.566-38.246-1.255-57.144-2.198l-1.93-.381c2.971-5.347 58.366-29.467 67.923-34.243m-75.813 37.244c21.396 2.486 44.234 2.619 65.797 2.767l-7.235 22.142-10.257-2.395c-22.777-3.206-45.504-7.062-68.23-10.626zM333.491 700.6a1507 1507 0 0 0 41.433 11.213 737 737 0 0 0-48.66 43.331c-1.116-13.795-1.544-31.027 1.204-44.508 1.984-3.35 3.899-6.775 6.023-10.036M200.42 739.319c11.166 10.114 21.22 21.593 31.078 32.962-11.714 13.122-23.922 25.969-35.732 39.051-2.432-24.348-2.062-48.341 4.654-72.013m179.744-169.301c1.055.065 1.273.348 2.143.9 2.953 20.383 2.517 41.936 4.294 62.544-3.93 3.953-10.935 12.976-15.979 14.757l-1.113-2.475c-4.198-22.112-8.408-44.16-13.81-66.016 7.859-3.84 16.272-6.662 24.465-9.71m192.658 298.469c5.841-4.149 12.939-6.717 19.486-9.526-9.987 29.324-12.021 56.929-6.922 87.511l-9.453 7.837c-12.676-19.867-16.135-41.272-10.991-64.314 1.668-7.473 4.135-14.806 7.88-21.508M487.96 546.61c1.599 4.086-2.09 17.369-2.89 22.304-17.905 9.526-35.727 18.611-53.075 29.167l-.675-.602c-1.398-6.605 4.137-34.009 5.224-43.178 16.723-3.808 34.347-6.136 51.416-7.691"/><path fill="#f47968" d="M128.483 740.976c5.309-8.711 10.899-17.143 17.872-24.633 18.956-20.36 48.111-31.563 75.618-32.558-3.522 6.021-6.893 12.055-10.03 18.286-36.76 10.21-63.342 27.2-87.03 57.514 1.269-6.103 2.929-12.417 3.57-18.609"/><path fill="#f7f2e1" d="M358.804 667.645c17.808 3.369 36.281 10.754 53.656 16.143-9.176 5.609-17.84 12.351-26.116 19.188l-8.062 6.457-42.544-11.42c7.459-10.27 14.813-20.716 23.066-30.368"/><path fill="#f47968" d="M123.376 775.696c.252-3.315.283-7.02 1.896-10.001 16.479-30.461 52.236-50.178 84.24-59.669-4.393 10.545-9.784 21.674-11.945 32.906-26.777 8.398-51.932 19.281-74.191 36.764"/><path fill="#f7f2e1" d="m431.419 555.315.858.09c2.013 4.089-4.862 40.164-6.091 46.386-12.622 8.673-24.305 18.15-35.887 28.132-4.203-19.406-3.536-41.988-4.631-61.884 15.148-4.798 30.184-9.437 45.751-12.724m-30.487 69.66a1650 1650 0 0 1 74.637 21.253c-11.723 5.256-23.058 12.43-34.281 18.731l-10.576 6.477a2159 2159 0 0 0-59.112-18.294 324 324 0 0 1 29.332-28.167m31.223-23.235c8.653.493 17.717 2.709 26.311 4.066l56.339 8.87-4.998 14.277c-7.883 3.17-15.597 7.37-23.272 11.049-2.571 1.323-5.033 2.738-8.007 2.664-11.23-.278-60.325-16.454-74.545-20.265 9.221-7.194 18.42-14.19 28.172-20.661m-79.393-20.659c3.341 4.448 12.475 60.643 14.881 70.935a443 443 0 0 0-23.392 28.833l-2.626-8.577c-8.797-23.914-15.641-48.53-25.207-72.176 11.395-7.425 24.075-13.187 36.344-19.015m-116.685 87.708c8.693-10.07 17.562-19.786 26.966-29.198 6.973 16.423 20.664 76.048 28.241 85.72-9.277 4.898-18.715 11.416-26.376 18.592a2738 2738 0 0 0-28.831-75.114"/><path fill="#f47968" d="M639.091 715.599c4.82-.537 9.735-.696 14.577-1.021l-9.881 26.309c-38.466 2.541-77.08 4.331-115.453 8.022l-13.186.907a432 432 0 0 1 23.895-27.639c11.775-.004 23.814-1.378 35.576-2.189z"/><path fill="#f7f2e1" d="M201.642 735.123c7.872-23.012 17.902-43.348 32.2-63.059 10.346 24.128 19.857 49.12 28.308 73.984l-6.036 4.605c-7.041 6.178-14.697 14.574-22.653 19.334-10.088-12.061-21.583-22.909-31.819-34.864"/><path fill="#f47968" d="M324.136 828.202c25.46 35.489 52.585 70.037 76.739 106.432a920 920 0 0 0-13.828 35.474c-16.343-20.706-31.398-42.543-46.874-63.905-6.165-8.51-12.135-18.265-19.138-26.068a1016 1016 0 0 0 3.101-51.933M693.58 582.298l1.071.572c-2.074 2.714-39.732 27.87-46.75 33.397a866 866 0 0 0-70.677 61.858l-.662.284c-2.214-3.322-.476-62.237-.425-70.663 39.023-11.422 77.331-19.134 117.443-25.448m-216.803 66.545c2.414 2.045 2.345 7.127 2.694 10.063 3.233 27.245 4.952 54.834 7.029 82.192.833 10.974 3.071 23.073 2.817 33.945-.045 1.91-.287 3.614-1.569 5.128-.49.578-1.243.367-1.963.399-7.854-8.895-13.667-21.016-20.25-31.069a5530 5530 0 0 0-44.282-68.119c17.517-12.153 36.893-22.181 55.524-32.539m-40.113 218.288c21.665-1.954 151.315-16.378 159.522-13.853l.281 1.822c-1.19 1.867-2.245 2.76-4.159 3.861-6.547 2.809-13.645 5.377-19.486 9.526-11.584 4.872-21.08 14.575-32.583 18.841-13.52 5.014-43.117 5.528-58.489 6.953-20.764 1.926-41.513 4.469-62.315 5.89 5.53-11.144 11.024-22.252 17.229-33.04"/><path fill="#f7f2e1" d="M311.388 603.595c-7.724 8.567-17.141 17.452-23.453 27.069-1.104 1.683-2.102 2.913-1.68 4.93 3.528-1.172 23.643-25.721 28.74-30.861 9.619 26.051 18.912 52.598 26.757 79.236l-16.769 23.321-1.935-.933c-11.103 3.931-20.039 12.42-30.499 17.441-8.886-28.834-16.65-58.323-27.062-86.641 14.521-12.808 29.335-23.6 45.901-33.562"/><path fill="#f47968" d="m697.097 585.82.867.306.509 1.191c-13.14 41.641-26.657 83.841-43.613 124.099-21.977 1.172-43.95 2.962-65.909 4.47-14.656 1.007-29.49 1.438-44.062 3.292l-1.474-.462.047-1.571c7.185-10.453 18.242-19.692 27.337-28.558 39.343-38.349 80.016-72.959 126.298-102.767m-125.231 23.505c3.266 5.247.444 62.202.715 73.265a743 743 0 0 0-60.881 66.4c-3.768 4.733-15.399 22.542-19.401 23.986l-.575-5.219c-2.866-40.502-7.661-80.961-9.808-121.494 29.074-14.384 58.413-28.699 89.95-36.938m-154.341 74.61c4.484.981 59.676 89.198 66.996 100.61-4.076 5.895-39.499 61.487-41.262 62.106l-2.183-2.944c-25.865-39.49-49.496-81.162-73.808-121.645 16.16-13.186 32.451-27.203 50.257-38.127m.178 220.203c13.116-2.658 27.159-3.249 40.495-4.527a3961 3961 0 0 0 77.828-7.748l-8.439 7.027c-4.566 4.397-9.728 8.792-13.69 13.725-27.223 25.124-45.619 57.249-47.163 94.845a100 100 0 0 0 .58 15.57l-.194.97h-93.058l.348-1.03a673 673 0 0 1 43.293-118.832"/><path fill="#f68974" d="m374.41 1022.97 92.904.06-.194.97h-93.058z"/><path fill="#f7f2e1" d="M123.376 775.696c22.259-17.483 47.414-28.366 74.191-36.764-6.409 19.598-9.534 54.94-4.116 74.809-37.807 60.901-65.631 108.049-48.159 182.72a212.5 212.5 0 0 0 8.032 25.869l.602 1.67h-29.52c-9.433-65.025-10.911-129.598-7.159-195.12 11.461 2.848 23.87 8.06 35.688 8.367-7.231-6.306-25.731-9.181-35.042-11.622.633-16.315 2.3-33.904 5.483-49.929"/><path fill="#f47968" d="m638.661 744.481 1.817-.109 1.133 1.099c-2.601 11.175-8.896 22.963-13.267 33.692-9.327 22.889-18.093 46.43-28.895 68.66-20.094 4.418-42.802 4.89-63.391 6.736l-93.813 8.944c-1.14.169-1.641-.056-2.719-.395.829-4.535 5.162-10.419 7.487-14.493 19.336-33.873 42-64.778 65.605-95.734a5706 5706 0 0 1 126.043-8.4"/><path fill="#f7f2e1" d="M0 782.332c32.446 16.467 67.763 32.815 103.101 41.835C96.754 878.4 97.6 969.688 108.156 1024H0z"/><path fill="#f47968" d="M292.549 723.798c10.46-5.021 19.396-13.51 30.499-17.441l1.935.933c.743 1.184 1.401 2.438 2.485 3.346-2.748 13.481-2.32 30.713-1.204 44.508l-.168 2.908c6.095-2.18 30.986-27.677 38.636-33.996l46.471 76.665c10.269 16.777 21.428 33.422 30.847 50.68a695 695 0 0 0-39.945 79.564 3643 3643 0 0 0-52.587-73.514c-8.206-11.106-16.25-23.234-25.357-33.588l-.025 4.339a1016 1016 0 0 1-3.101 51.933l-.093 2.389-.094 1.565c21.007 30.654 44.059 59.895 65.078 90.511-5.054 15.342-12.845 33.41-14.25 49.4h-217.75l-.602-1.67a212.5 212.5 0 0 1-8.032-25.869c-17.472-74.671 10.352-121.819 48.159-182.72l1.306 1.437 1.026-1.123-.017-2.723c11.81-13.082 24.018-25.929 35.732-39.051l1.963-2.294c7.956-4.76 15.612-13.156 22.653-19.334l6.036-4.605 2.758-2.145c7.661-7.176 17.099-13.694 26.376-18.592z"/><path fill="#f68974" d="M291.656 1024c6.959-1.72 74.713-2.52 79.023 0z"/><path fill="#fbbd7a" d="M324.156 792.322c2.144 3.655.908 14.054.845 18.606-21.729 6.017-43.313 12.596-65.066 18.512l-.455-.906c1.384-5.536 4.093-10.782 6.423-15.974 19.541-4.969 39.218-13.447 58.253-20.238m-3.214 90.202-.094 1.565c-1.028 5.811-.837 12.012-1.021 17.907-10.2 4.734-80.028 34.341-85.915 34.579-.745-.365-2.061-.721-2.338-1.509-1.025-2.915 1.656-12.813 3.247-15.672.922-1.658 4.579-3.275 6.238-4.022 16.263-7.32 33.379-13.397 49.895-20.201 9.997-4.119 19.678-9.464 29.988-12.647m-64.828-131.871c-.032.216-.069.431-.095.648-.581 4.82.531 10.074 1.179 14.886 1.938 14.391 8.402 34.164 4.87 48.29-1.18 4.721-3.465 8.502-5.378 12.884-1.525 3.494-1.876 8.252-4.603 10.973-7.431-4.025-35.308-40.776-40.416-40.212l-.073-.037.115-.644-1.331-.712c.766.583 1.062.574 1.314 1.522 1.871 7.044 38.753 38.602 39.599 43.71.128.774-4.61 17.691-5.317 19.35-.322.755-.755 1.097-1.351 1.634-10.727-3.236-35.42-42.76-48.844-48.89l-.017-2.723c11.81-13.082 24.018-25.929 35.732-39.051l1.963-2.294c7.956-4.76 15.612-13.156 22.653-19.334m36.435-26.855c10.46-5.021 19.396-13.51 30.499-17.441l1.935.933c.743 1.184 1.401 2.438 2.485 3.346-2.748 13.481-2.32 30.713-1.204 44.508l-.168 2.908-.789 31.317c-19.011 6.52-39.724 12.129-57.767 20.915 5.71-17.012 16.076-34.537 25.264-49.969 4.723-7.932 31.699-45.752 32.273-50.386-3.001 1.33-5.339 6.436-7.315 9.094-20.527 27.615-36.989 56.551-51.86 87.539-1.876-8.709-6.127-50.375-7.949-53.93-.312-.609-1.344-1.445-1.839-1.979l6.036-4.605 2.758-2.145c7.661-7.176 17.099-13.694 26.376-18.592zm-34.241 109.12a2859 2859 0 0 1 66.536-19.526c-.308 3.479-.46 6.985-.683 10.471l-.025 4.339a1016 1016 0 0 1-3.101 51.933c-21.472 7.051-43.039 17.385-63.984 26.061-7.143 2.958-13.637 6.664-21.193 8.553-.07-.151-.158-.294-.208-.453-2.3-7.342 17.648-71.187 22.658-81.378"/><path fill="#fbbd7a" d="m193.451 813.741 1.306 1.437c16.324 17.067 32.08 35.16 49.002 51.571-5.297 22.316-10.377 44.581-14.953 67.058l-41-39.402c-8.331-8.013-16.586-16.627-25.611-23.845 2.482 7.616 44.4 45.227 53.588 53.936 3.45 3.271 9.722 7.878 12.151 11.732.737 1.17.303 3.275.133 4.581l1.414 1.134c.112-.119.22-.243.338-.357.976-.943 80.622-32.99 89.515-36.853A335.5 335.5 0 0 1 290.002 1024H153.926l-.602-1.67a212.5 212.5 0 0 1-8.032-25.869c-17.472-74.671 10.352-121.819 48.159-182.72"/><path fill="#fbc77c" d="M224.969 1024c8.48-2.62 56.794-2.85 64.199 0zm-71.645-1.67c12.659 2.62 63.249-3.22 69.681 1.67h-69.079z"/></svg>