<svg viewBox="0 0 200 200" xmlns="http://www.w3.org/2000/svg">
  <!-- Butterfly silhouette -->
  <defs>
    <linearGradient id="wingGrad" x1="0%" y1="0%" x2="100%" y2="100%">
      <stop offset="0%" style="stop-color:#ff6347;stop-opacity:1" />
      <stop offset="50%" style="stop-color:#ffa500;stop-opacity:1" />
      <stop offset="100%" style="stop-color:#ffd700;stop-opacity:1" />
    </linearGradient>
  </defs>
  <!-- Body -->
  <ellipse cx="100" cy="100" rx="5" ry="25" fill="#000"/>
  <circle cx="100" cy="80" r="8" fill="#000"/>
  <!-- Antennae -->
  <path d="M95 80 Q90 70 85 65" fill="none" stroke="#000" stroke-width="2" stroke-linecap="round"/>
  <path d="M105 80 Q110 70 115 65" fill="none" stroke="#000" stroke-width="2" stroke-linecap="round"/>
  <circle cx="85" cy="65" r="3" fill="#000"/>
  <circle cx="115" cy="65" r="3" fill="#000"/>
  <!-- Left wings -->
  <!-- Upper left wing -->
  <path d="M95 90 Q60 70 40 60 Q20 50 15 70 Q10 90 20 100 Q40 110 60 100 Q80 90 95 90 Z" 
        fill="url(#wingGrad)" stroke="#000" stroke-width="2"/>
  <!-- Lower left wing -->
  <path d="M95 110 Q70 120 50 130 Q30 140 25 125 Q20 110 30 105 Q50 100 70 105 Q85 110 95 110 Z" 
        fill="url(#wingGrad)" stroke="#000" stroke-width="2"/>
  <!-- Right wings -->
  <!-- Upper right wing -->
  <path d="M105 90 Q140 70 160 60 Q180 50 185 70 Q190 90 180 100 Q160 110 140 100 Q120 90 105 90 Z" 
        fill="url(#wingGrad)" stroke="#000" stroke-width="2"/>
  <!-- Lower right wing -->
  <path d="M105 110 Q130 120 150 130 Q170 140 175 125 Q180 110 170 105 Q150 100 130 105 Q115 110 105 110 Z" 
        fill="url(#wingGrad)" stroke="#000" stroke-width="2"/>
  <!-- Wing patterns -->
  <circle cx="50" cy="85" r="8" fill="#000" opacity="0.3"/>
  <circle cx="150" cy="85" r="8" fill="#000" opacity="0.3"/>
  <circle cx="60" cy="115" r="5" fill="#fff" opacity="0.5"/>
  <circle cx="140" cy="115" r="5" fill="#fff" opacity="0.5"/>
  <!-- Small dots -->
  <circle cx="40" cy="75" r="3" fill="#fff" opacity="0.7"/>
  <circle cx="160" cy="75" r="3" fill="#fff" opacity="0.7"/>
</svg>