<svg viewBox="0 0 200 200" xmlns="http://www.w3.org/2000/svg">
  <!-- Jumping dolphin -->
  <defs>
    <linearGradient id="dolphinGrad" x1="0%" y1="0%" x2="0%" y2="100%">
      <stop offset="0%" style="stop-color:#4682b4;stop-opacity:1" />
      <stop offset="100%" style="stop-color:#87ceeb;stop-opacity:1" />
    </linearGradient>
  </defs>
  <!-- Water splashes -->
  <ellipse cx="100" cy="170" rx="40" ry="10" fill="#87ceeb" opacity="0.5"/>
  <ellipse cx="100" cy="175" rx="30" ry="8" fill="#4682b4" opacity="0.3"/>
  <!-- Dolphin body -->
  <g transform="translate(100, 100) rotate(-30)">
    <!-- Main body -->
    <ellipse cx="0" cy="0" rx="25" ry="60" fill="url(#dolphinGrad)" stroke="#000" stroke-width="2"/>
    <!-- Head/snout -->
    <ellipse cx="0" cy="-50" rx="15" ry="20" fill="#4682b4" stroke="#000" stroke-width="2"/>
    <path d="M-15 -50 Q-20 -55 -18 -60 Q-10 -65 0 -65 Q10 -65 18 -60 Q20 -55 15 -50" 
          fill="#4682b4" stroke="#000" stroke-width="2"/>
    <!-- Dorsal fin -->
    <path d="M-10 0 Q-15 -10 -10 -20 Q-5 -15 0 -10 Q5 -5 0 0" 
          fill="#2e5984" stroke="#000" stroke-width="2"/>
    <!-- Pectoral fins -->
    <ellipse cx="-20" cy="-20" rx="8" ry="20" fill="#4682b4" stroke="#000" stroke-width="2" transform="rotate(-45 -20 -20)"/>
    <ellipse cx="20" cy="-20" rx="8" ry="20" fill="#4682b4" stroke="#000" stroke-width="2" transform="rotate(45 20 -20)"/>
    <!-- Tail -->
    <path d="M-15 50 Q-25 55 -30 65 Q-20 60 -10 60 Q0 60 0 50" fill="#2e5984" stroke="#000" stroke-width="2"/>
    <path d="M15 50 Q25 55 30 65 Q20 60 10 60 Q0 60 0 50" fill="#2e5984" stroke="#000" stroke-width="2"/>
    <!-- Eye -->
    <circle cx="-8" cy="-45" r="3" fill="#000"/>
    <circle cx="-7" cy="-46" r="1" fill="#fff"/>
    <!-- Smile -->
    <path d="M-10 -40 Q0 -35 10 -40" fill="none" stroke="#000" stroke-width="1" stroke-linecap="round"/>
  </g>
  <!-- Water droplets -->
  <circle cx="70" cy="140" r="3" fill="#87ceeb" opacity="0.8"/>
  <circle cx="130" cy="135" r="4" fill="#87ceeb" opacity="0.8"/>
  <circle cx="85" cy="150" r="2" fill="#4682b4" opacity="0.6"/>
  <circle cx="115" cy="145" r="3" fill="#4682b4" opacity="0.6"/>
</svg>