<svg viewBox="0 0 200 200" xmlns="http://www.w3.org/2000/svg">
  <!-- Simple elephant outline -->
  <!-- Body -->
  <ellipse cx="100" cy="120" rx="60" ry="45" fill="#808080" stroke="#000" stroke-width="3"/>
  <!-- Head -->
  <circle cx="100" cy="80" r="35" fill="#808080" stroke="#000" stroke-width="3"/>
  <!-- Trunk -->
  <path d="M100 100 Q90 120 85 140 Q82 155 90 160 Q95 162 98 158 Q100 150 95 145 Q92 130 100 115" 
        fill="#808080" stroke="#000" stroke-width="3"/>
  <!-- Ears -->
  <ellipse cx="70" cy="80" rx="25" ry="35" fill="#696969" stroke="#000" stroke-width="3"/>
  <ellipse cx="130" cy="80" rx="25" ry="35" fill="#696969" stroke="#000" stroke-width="3"/>
  <!-- Legs -->
  <rect x="60" y="140" width="20" height="40" rx="5" fill="#808080" stroke="#000" stroke-width="3"/>
  <rect x="120" y="140" width="20" height="40" rx="5" fill="#808080" stroke="#000" stroke-width="3"/>
  <!-- Eyes -->
  <circle cx="85" cy="75" r="5" fill="#000"/>
  <circle cx="115" cy="75" r="5" fill="#000"/>
  <circle cx="86" cy="73" r="2" fill="#fff"/>
  <circle cx="116" cy="73" r="2" fill="#fff"/>
  <!-- Tail -->
  <path d="M40 110 Q30 120 25 130 Q20 140 25 145" fill="none" stroke="#000" stroke-width="3" stroke-linecap="round"/>
  <!-- Tusks -->
  <path d="M90 95 L88 105" stroke="#fff" stroke-width="3" stroke-linecap="round"/>
  <path d="M110 95 L112 105" stroke="#fff" stroke-width="3" stroke-linecap="round"/>
</svg>