<svg viewBox="0 0 200 200" xmlns="http://www.w3.org/2000/svg">
  <!-- Lion face design -->
  <!-- Mane -->
  <circle cx="100" cy="100" r="70" fill="#ff8c00" stroke="#000" stroke-width="3"/>
  <path d="M30 100 Q40 80 30 60 Q50 70 60 50 Q70 70 80 40 Q90 65 100 35 Q110 65 120 40 Q130 70 140 50 Q150 70 170 60 Q160 80 170 100 Q160 120 170 140 Q150 130 140 150 Q130 130 120 160 Q110 135 100 165 Q90 135 80 160 Q70 130 60 150 Q50 130 30 140 Q40 120 30 100 Z" 
        fill="#ffa500" stroke="#000" stroke-width="2"/>
  <!-- Face -->
  <ellipse cx="100" cy="105" rx="45" ry="50" fill="#f4a460" stroke="#000" stroke-width="3"/>
  <!-- Ears -->
  <circle cx="65" cy="90" r="15" fill="#f4a460" stroke="#000" stroke-width="2"/>
  <circle cx="135" cy="90" r="15" fill="#f4a460" stroke="#000" stroke-width="2"/>
  <circle cx="65" cy="90" r="8" fill="#8b4513"/>
  <circle cx="135" cy="90" r="8" fill="#8b4513"/>
  <!-- Eyes -->
  <ellipse cx="80" cy="95" rx="10" ry="12" fill="#000"/>
  <ellipse cx="120" cy="95" rx="10" ry="12" fill="#000"/>
  <circle cx="82" cy="93" r="4" fill="#ffa500"/>
  <circle cx="122" cy="93" r="4" fill="#ffa500"/>
  <circle cx="82" cy="93" r="2" fill="#000"/>
  <circle cx="122" cy="93" r="2" fill="#000"/>
  <!-- Nose -->
  <path d="M90 115 Q100 120 110 115 Q105 125 100 125 Q95 125 90 115 Z" fill="#000"/>
  <!-- Mouth -->
  <path d="M100 125 Q90 130 85 125" fill="none" stroke="#000" stroke-width="3" stroke-linecap="round"/>
  <path d="M100 125 Q110 130 115 125" fill="none" stroke="#000" stroke-width="3" stroke-linecap="round"/>
  <!-- Whiskers -->
  <line x1="50" y1="110" x2="30" y2="105" stroke="#000" stroke-width="2"/>
  <line x1="50" y1="120" x2="30" y2="120" stroke="#000" stroke-width="2"/>
  <line x1="150" y1="110" x2="170" y2="105" stroke="#000" stroke-width="2"/>
  <line x1="150" y1="120" x2="170" y2="120" stroke="#000" stroke-width="2"/>
</svg>