<svg viewBox="0 0 200 200" xmlns="http://www.w3.org/2000/svg">
  <!-- Cute turtle design -->
  <!-- Shell -->
  <ellipse cx="100" cy="110" rx="60" ry="45" fill="#228b22" stroke="#000" stroke-width="3"/>
  <!-- Shell pattern -->
  <path d="M100 65 L120 85 L120 110 L100 130 L80 110 L80 85 Z" fill="#32cd32" stroke="#000" stroke-width="2"/>
  <path d="M80 85 L60 95 L60 115 L80 125 L80 85 Z" fill="#2e8b57" stroke="#000" stroke-width="2"/>
  <path d="M120 85 L140 95 L140 115 L120 125 L120 85 Z" fill="#2e8b57" stroke="#000" stroke-width="2"/>
  <path d="M100 130 L115 140 L100 150 L85 140 Z" fill="#2e8b57" stroke="#000" stroke-width="2"/>
  <path d="M100 65 L115 55 L100 45 L85 55 Z" fill="#2e8b57" stroke="#000" stroke-width="2"/>
  <!-- Head -->
  <ellipse cx="100" cy="50" rx="25" ry="20" fill="#90ee90" stroke="#000" stroke-width="3"/>
  <!-- Eyes -->
  <circle cx="90" cy="45" r="5" fill="#000"/>
  <circle cx="110" cy="45" r="5" fill="#000"/>
  <circle cx="91" cy="43" r="2" fill="#fff"/>
  <circle cx="111" cy="43" r="2" fill="#fff"/>
  <!-- Smile -->
  <path d="M90 55 Q100 60 110 55" fill="none" stroke="#000" stroke-width="2" stroke-linecap="round"/>
  <!-- Legs -->
  <ellipse cx="65" cy="120" rx="15" ry="12" fill="#90ee90" stroke="#000" stroke-width="2"/>
  <ellipse cx="135" cy="120" rx="15" ry="12" fill="#90ee90" stroke="#000" stroke-width="2"/>
  <ellipse cx="75" cy="90" rx="12" ry="15" fill="#90ee90" stroke="#000" stroke-width="2"/>
  <ellipse cx="125" cy="90" rx="12" ry="15" fill="#90ee90" stroke="#000" stroke-width="2"/>
  <!-- Tail -->
  <path d="M100 155 L100 165 Q100 170 95 170 Q90 170 90 165 Q90 160 95 160 Q100 160 100 165" 
        fill="#90ee90" stroke="#000" stroke-width="2"/>
  <!-- Decorative spots on shell -->
  <circle cx="90" cy="100" r="3" fill="#228b22"/>
  <circle cx="110" cy="100" r="3" fill="#228b22"/>
  <circle cx="100" cy="85" r="3" fill="#228b22"/>
  <circle cx="100" cy="115" r="3" fill="#228b22"/>
</svg>