<?xml version="1.0" encoding="UTF-8"?>
<svg width="600" height="200" xmlns="http://www.w3.org/2000/svg">
  <!-- SVG Path Commands Demonstration -->
  <defs>
    <style>
      .path-demo { fill: none; stroke: #4CAF50; stroke-width: 2; }
      .label { font-family: monospace; font-size: 12px; fill: #333; }
      .point { fill: #ff5722; }
    </style>
  </defs>
  
  <!-- Background -->
  <rect width="600" height="200" fill="#fafafa"/>
  
  <!-- M (Move) and L (Line) -->
  <g transform="translate(50, 50)">
    <path d="M 10 10 L 50 10 L 50 50 L 10 50 Z" class="path-demo"/>
    <circle cx="10" cy="10" r="3" class="point"/>
    <text x="30" y="80" class="label">M: Move to</text>
    <text x="30" y="95" class="label">L: Line to</text>
    <text x="30" y="110" class="label">Z: Close path</text>
  </g>
  
  <!-- Q (Quadratic Bezier) -->
  <g transform="translate(200, 50)">
    <path d="M 10 50 Q 40 10 70 50" class="path-demo"/>
    <circle cx="10" cy="50" r="3" class="point"/>
    <circle cx="40" cy="10" r="3" fill="#2196F3"/>
    <circle cx="70" cy="50" r="3" class="point"/>
    <line x1="10" y1="50" x2="40" y2="10" stroke="#ccc" stroke-dasharray="2,2"/>
    <line x1="40" y1="10" x2="70" y2="50" stroke="#ccc" stroke-dasharray="2,2"/>
    <text x="25" y="80" class="label">Q: Quadratic</text>
    <text x="25" y="95" class="label">Bezier curve</text>
  </g>
  
  <!-- C (Cubic Bezier) -->
  <g transform="translate(350, 50)">
    <path d="M 10 50 C 20 10, 60 10, 70 50" class="path-demo"/>
    <circle cx="10" cy="50" r="3" class="point"/>
    <circle cx="20" cy="10" r="3" fill="#2196F3"/>
    <circle cx="60" cy="10" r="3" fill="#2196F3"/>
    <circle cx="70" cy="50" r="3" class="point"/>
    <line x1="10" y1="50" x2="20" y2="10" stroke="#ccc" stroke-dasharray="2,2"/>
    <line x1="60" y1="10" x2="70" y2="50" stroke="#ccc" stroke-dasharray="2,2"/>
    <text x="25" y="80" class="label">C: Cubic</text>
    <text x="25" y="95" class="label">Bezier curve</text>
  </g>
  
  <!-- A (Arc) -->
  <g transform="translate(500, 50)">
    <path d="M 10 50 A 30 30 0 0 1 70 50" class="path-demo"/>
    <circle cx="10" cy="50" r="3" class="point"/>
    <circle cx="70" cy="50" r="3" class="point"/>
    <text x="25" y="80" class="label">A: Arc</text>
  </g>
</svg>