<svg viewBox="0 0 48 48" xmlns="http://www.w3.org/2000/svg">
  <defs>
    <linearGradient id="bookGrad" x1="0%" y1="0%" x2="100%" y2="100%">
      <stop offset="0%" style="stop-color:#8B4513;stop-opacity:1" />
      <stop offset="100%" style="stop-color:#654321;stop-opacity:1" />
    </linearGradient>
  </defs>
  <rect width="48" height="48" fill="#87CEEB" opacity="0.1"/>
  <g transform="translate(24, 24)">
    <!-- Book base -->
    <rect x="-12" y="-8" width="24" height="16" rx="1" fill="url(#bookGrad)" stroke="#663399" stroke-width="0.5"/>
    <!-- Book spine -->
    <line x1="0" y1="-8" x2="0" y2="8" stroke="#654321" stroke-width="2"/>
    <!-- Pages -->
    <rect x="-11" y="-7" width="10" height="14" fill="#FFFACD" stroke="#8B4513" stroke-width="0.5"/>
    <rect x="1" y="-7" width="10" height="14" fill="#FFFACD" stroke="#8B4513" stroke-width="0.5"/>
    <!-- Page lines -->
    <g stroke="#663399" stroke-width="0.3" opacity="0.5">
      <line x1="-10" y1="-4" x2="-2" y2="-4"/>
      <line x1="-10" y1="-2" x2="-2" y2="-2"/>
      <line x1="-10" y1="0" x2="-2" y2="0"/>
      <line x1="2" y1="-4" x2="10" y2="-4"/>
      <line x1="2" y1="-2" x2="10" y2="-2"/>
      <line x1="2" y1="0" x2="10" y2="0"/>
    </g>
    <!-- Cross on cover -->
    <g transform="translate(0, -10)">
      <path d="M0,-4 L0,4 M-3,0 L3,0" 
            stroke="#FFD700" stroke-width="2" stroke-linecap="round"/>
    </g>
    <!-- Bookmark ribbon -->
    <path d="M4,-8 L4,12 L6,10 L8,12 L8,-8 Z" fill="#FF0000" opacity="0.8"/>
  </g>
</svg>