<svg viewBox="0 0 48 48" xmlns="http://www.w3.org/2000/svg">
  <defs>
    <linearGradient id="heartGrad" x1="0%" y1="0%" x2="0%" y2="100%">
      <stop offset="0%" style="stop-color:#FF69B4;stop-opacity:1" />
      <stop offset="100%" style="stop-color:#FF1493;stop-opacity:1" />
    </linearGradient>
    <filter id="glow">
      <feGaussianBlur stdDeviation="2" result="coloredBlur"/>
      <feMerge>
        <feMergeNode in="coloredBlur"/>
        <feMergeNode in="SourceGraphic"/>
      </feMerge>
    </filter>
  </defs>
  <rect width="48" height="48" fill="#FFFFFF"/>
  <g transform="translate(24, 24)">
    <!-- Heart shape -->
    <path d="M0,6 C-12,-6 -12,-14 -6,-14 C-3,-14 0,-12 0,-9 C0,-12 3,-14 6,-14 C12,-14 12,-6 0,6 Z" 
          fill="url(#heartGrad)" stroke="#663399" stroke-width="1" filter="url(#glow)"/>
    <!-- Cross inside heart -->
    <g>
      <path d="M0,-8 L0,2 M-4,-4 L4,-4" 
            stroke="#FFFFFF" stroke-width="3" stroke-linecap="round"/>
      <path d="M0,-8 L0,2 M-4,-4 L4,-4" 
            stroke="#FFD700" stroke-width="1.5" stroke-linecap="round"/>
    </g>
  </g>
  <!-- Corner decorations -->
  <circle cx="6" cy="6" r="2" fill="#FFD700" opacity="0.5"/>
  <circle cx="42" cy="6" r="2" fill="#FFD700" opacity="0.5"/>
  <circle cx="6" cy="42" r="2" fill="#FFD700" opacity="0.5"/>
  <circle cx="42" cy="42" r="2" fill="#FFD700" opacity="0.5"/>
</svg>