<svg viewBox="0 0 48 48" xmlns="http://www.w3.org/2000/svg">
  <defs>
    <linearGradient id="goldGrad" x1="0%" y1="0%" x2="100%" y2="100%">
      <stop offset="0%" style="stop-color:#FFD700;stop-opacity:1" />
      <stop offset="100%" style="stop-color:#FFA500;stop-opacity:1" />
    </linearGradient>
  </defs>
  <rect width="48" height="48" fill="#87CEEB" opacity="0.2"/>
  <g transform="translate(24, 24)">
    <!-- Left hand -->
    <path d="M-8,-12 L-8,8 C-8,10 -7,12 -5,12 L-2,12 L-2,-8 C-2,-10 -4,-12 -6,-12 Z" 
          fill="url(#goldGrad)" stroke="#663399" stroke-width="0.5"/>
    <!-- Right hand -->
    <path d="M8,-12 L8,8 C8,10 7,12 5,12 L2,12 L2,-8 C2,-10 4,-12 6,-12 Z" 
          fill="url(#goldGrad)" stroke="#663399" stroke-width="0.5"/>
    <!-- Fingers touching -->
    <path d="M-2,-8 L0,-10 L2,-8" fill="none" stroke="#663399" stroke-width="1" stroke-linecap="round"/>
    <!-- Light rays -->
    <path d="M0,-10 L0,-16 M-4,-8 L-6,-10 M4,-8 L6,-10" 
          stroke="#FFFFFF" stroke-width="1.5" stroke-linecap="round" opacity="0.8"/>
  </g>
</svg>