<svg viewBox="0 0 100 100" xmlns="http://www.w3.org/2000/svg">
  <!-- Scalloped Flower Center - Scalloped edge center design -->
  <title>Scalloped Flower Center Template</title>
  
  <!-- Scalloped circle path -->
  <path d="M 50 10
           a 5 5 0 0 0 7 0
           a 5 5 0 0 0 7 0
           a 5 5 0 0 0 7 0
           a 5 5 0 0 0 7 0
           a 5 5 0 0 0 7 0
           a 5 5 0 0 0 7 0
           a 5 5 0 0 0 0 7
           a 5 5 0 0 0 0 7
           a 5 5 0 0 0 0 7
           a 5 5 0 0 0 0 7
           a 5 5 0 0 0 0 7
           a 5 5 0 0 0 0 7
           a 5 5 0 0 0 -7 0
           a 5 5 0 0 0 -7 0
           a 5 5 0 0 0 -7 0
           a 5 5 0 0 0 -7 0
           a 5 5 0 0 0 -7 0
           a 5 5 0 0 0 -7 0
           a 5 5 0 0 0 0 -7
           a 5 5 0 0 0 0 -7
           a 5 5 0 0 0 0 -7
           a 5 5 0 0 0 0 -7
           a 5 5 0 0 0 0 -7
           a 5 5 0 0 0 0 -7
           z"
        fill="none" 
        stroke="#000000" 
        stroke-width="0.5"/>
  
  <!-- Inner guide circle -->
  <circle cx="50" cy="50" r="30" fill="none" stroke="#000000" stroke-width="0.3" stroke-dasharray="2,2"/>
  
  <!-- Center point -->
  <circle cx="50" cy="50" r="1" fill="#000000"/>
  
  <!-- Size indicator -->
  <text x="5" y="95" font-size="3" font-family="Arial, sans-serif" fill="#000000">3" diameter</text>
</svg>