<svg viewBox="0 0 200 200" xmlns="http://www.w3.org/2000/svg">
  <!-- Cartoon knife with smile -->
  <!-- Handle -->
  <rect x="70" y="120" width="60" height="70" rx="10" fill="#8b4513" stroke="#000" stroke-width="3"/>
  <rect x="80" y="130" width="40" height="50" rx="5" fill="#a0522d"/>
  <!-- Blade -->
  <path d="M100 120 L80 30 Q80 20 90 20 L100 20 L110 20 Q120 20 120 30 L100 120 Z" 
        fill="#c0c0c0" stroke="#000" stroke-width="3"/>
  <!-- Shine on blade -->
  <path d="M95 30 L95 100 L90 100 L90 30 Q90 25 95 25 Z" fill="#e0e0e0" opacity="0.7"/>
  <!-- Face -->
  <!-- Eyes -->
  <circle cx="85" cy="150" r="5" fill="#000"/>
  <circle cx="115" cy="150" r="5" fill="#000"/>
  <circle cx="87" cy="148" r="2" fill="#fff"/>
  <circle cx="117" cy="148" r="2" fill="#fff"/>
  <!-- Smile -->
  <path d="M85 165 Q100 175 115 165" fill="none" stroke="#000" stroke-width="3" stroke-linecap="round"/>
  <!-- Rosy cheeks -->
  <circle cx="70" cy="160" r="8" fill="#ff9999" opacity="0.5"/>
  <circle cx="130" cy="160" r="8" fill="#ff9999" opacity="0.5"/>
</svg>