<svg viewBox="0 0 200 200" xmlns="http://www.w3.org/2000/svg">
  <!-- "Stability Ability" text design -->
  <defs>
    <pattern id="wobble" patternUnits="userSpaceOnUse" width="4" height="4">
      <rect width="2" height="2" fill="#ff6b6b"/>
      <rect x="2" y="2" width="2" height="2" fill="#4ecdc4"/>
    </pattern>
  </defs>
  <!-- Background burst -->
  <g transform="translate(100, 100)">
    <path d="M0,-80 L10,-40 L40,-35 L15,-20 L20,0 L0,-15 L-20,0 L-15,-20 L-40,-35 L-10,-40 Z" 
          fill="#ffd93d" stroke="#000" stroke-width="2" transform="scale(2)"/>
  </g>
  <!-- Main text -->
  <text x="100" y="90" font-family="Comic Sans MS, cursive" font-size="24" font-weight="bold" text-anchor="middle" fill="url(#wobble)" stroke="#000" stroke-width="1" transform="rotate(-5 100 90)">
    STABILITY
  </text>
  <text x="100" y="120" font-family="Comic Sans MS, cursive" font-size="24" font-weight="bold" text-anchor="middle" fill="#6c5ce7" stroke="#000" stroke-width="1" transform="rotate(5 100 120)">
    ABILITY
  </text>
  <!-- Quotation marks -->
  <text x="30" y="70" font-family="Arial" font-size="36" font-weight="bold" fill="#000" opacity="0.3">"</text>
  <text x="160" y="140" font-family="Arial" font-size="36" font-weight="bold" fill="#000" opacity="0.3">"</text>
  <!-- Decorative swirls -->
  <path d="M20 150 Q30 140 40 150 T60 150" fill="none" stroke="#000" stroke-width="2" opacity="0.5"/>
  <path d="M140 50 Q150 40 160 50 T180 50" fill="none" stroke="#000" stroke-width="2" opacity="0.5"/>
</svg>