<svg viewBox="0 0 48 48" xmlns="http://www.w3.org/2000/svg">
  <defs>
    <linearGradient id="crossBg" x1="0%" y1="0%" x2="100%" y2="100%">
      <stop offset="0%" style="stop-color:#87CEEB;stop-opacity:0.3" />
      <stop offset="100%" style="stop-color:#663399;stop-opacity:0.3" />
    </linearGradient>
  </defs>
  <rect width="48" height="48" fill="url(#crossBg)"/>
  <!-- Background cross -->
  <g transform="translate(24, 24)" opacity="0.3">
    <path d="M0,-20 L0,20 M-12,0 L12,0" stroke="#FFD700" stroke-width="8" stroke-linecap="round"/>
  </g>
  <g transform="translate(24, 24)">
    <!-- Lion silhouette -->
    <g fill="#FFD700" stroke="#8B4513" stroke-width="0.5">
      <!-- Mane -->
      <path d="M0,-12 Q-6,-14 -10,-10 Q-12,-4 -10,2 Q-6,8 0,10 Q6,8 10,2 Q12,-4 10,-10 Q6,-14 0,-12 Z"/>
      <!-- Face -->
      <ellipse cx="0" cy="0" rx="8" ry="10" fill="#FFA500"/>
      <!-- Eyes -->
      <circle cx="-3" cy="-2" r="1" fill="#FFFFFF"/>
      <circle cx="3" cy="-2" r="1" fill="#FFFFFF"/>
      <!-- Nose and mouth -->
      <path d="M-1.5,2 L0,3 L1.5,2 Q0,1.5 -1.5,2 Z" fill="#8B4513"/>
      <path d="M0,3 C-2,4 -2,3.5 -3,2 M0,3 C2,4 2,3.5 3,2" 
            fill="none" stroke="#8B4513" stroke-width="0.8" stroke-linecap="round"/>
    </g>
    <!-- Small cross on forehead -->
    <g transform="translate(0, -6)">
      <path d="M0,-2 L0,2 M-2,0 L2,0" stroke="#FFFFFF" stroke-width="1.5" stroke-linecap="round"/>
    </g>
  </g>
</svg>