<svg viewBox="0 0 48 48" xmlns="http://www.w3.org/2000/svg">
  <title>Apple for Teacher</title>
  <!-- Apple body -->
  <path d="M24,40 C18,40 12,36 12,28 C12,20 16,16 20,16 C22,16 23,17 24,17 C25,17 26,16 28,16 C32,16 36,20 36,28 C36,36 30,40 24,40 Z" fill="#FF6B6B" stroke="#D63447" stroke-width="1"/>
  <!-- Apple highlight -->
  <ellipse cx="20" cy="24" rx="4" ry="6" fill="#FF8E8E" opacity="0.6"/>
  <!-- Stem -->
  <rect x="23" y="14" width="2" height="6" fill="#8B6B47"/>
  <!-- Leaf -->
  <path d="M25,16 Q28,14 30,16 Q28,18 25,16" fill="#4CAF50"/>
  <!-- Shine -->
  <ellipse cx="18" cy="22" rx="2" ry="3" fill="#FFF" opacity="0.4"/>
  <!-- Heart on apple -->
  <path d="M24,26 C24,26 22,24 20,26 C18,28 20,30 24,32 C28,30 30,28 28,26 C26,24 24,26 24,26 Z" fill="#FFF" opacity="0.8"/>
</svg>