<svg viewBox="0 0 48 48" xmlns="http://www.w3.org/2000/svg">
  <title>Notebook and Pen</title>
  <!-- Notebook -->
  <rect x="8" y="8" width="24" height="32" rx="2" fill="#4ECDC4" stroke="#3CBBB1" stroke-width="1"/>
  <!-- Spiral binding -->
  <circle cx="6" cy="12" r="1.5" fill="#333"/>
  <circle cx="6" cy="18" r="1.5" fill="#333"/>
  <circle cx="6" cy="24" r="1.5" fill="#333"/>
  <circle cx="6" cy="30" r="1.5" fill="#333"/>
  <circle cx="6" cy="36" r="1.5" fill="#333"/>
  <!-- Lines on notebook -->
  <line x1="12" y1="16" x2="28" y2="16" stroke="#333" stroke-width="0.5" opacity="0.3"/>
  <line x1="12" y1="20" x2="28" y2="20" stroke="#333" stroke-width="0.5" opacity="0.3"/>
  <line x1="12" y1="24" x2="28" y2="24" stroke="#333" stroke-width="0.5" opacity="0.3"/>
  <line x1="12" y1="28" x2="28" y2="28" stroke="#333" stroke-width="0.5" opacity="0.3"/>
  <line x1="12" y1="32" x2="28" y2="32" stroke="#333" stroke-width="0.5" opacity="0.3"/>
  
  <!-- Pen -->
  <g transform="rotate(45 36 24)">
    <rect x="32" y="16" width="8" height="24" fill="#2C3E50"/>
    <polygon points="32,40 36,44 40,40" fill="#E74C3C"/>
    <rect x="32" y="14" width="8" height="2" fill="#BDC3C7"/>
    <circle cx="36" cy="20" r="1" fill="#BDC3C7"/>
  </g>
</svg>