<svg viewBox="0 0 48 48" xmlns="http://www.w3.org/2000/svg">
  <title>School Bell</title>
  <!-- Bell body -->
  <path d="M24,8 C30,8 34,12 34,18 L34,28 C34,30 36,32 36,34 L12,34 C12,32 14,30 14,28 L14,18 C14,12 18,8 24,8 Z" fill="#FFD93D" stroke="#F39C12" stroke-width="1"/>
  <!-- Bell top -->
  <rect x="22" y="4" width="4" height="4" rx="1" fill="#333"/>
  <!-- Clapper -->
  <circle cx="24" cy="32" r="3" fill="#333"/>
  <line x1="24" y1="28" x2="24" y2="32" stroke="#333" stroke-width="1"/>
  <!-- Sound waves -->
  <path d="M38,20 Q40,22 38,24" stroke="#F39C12" stroke-width="2" fill="none" stroke-linecap="round"/>
  <path d="M40,18 Q43,22 40,26" stroke="#F39C12" stroke-width="1.5" fill="none" stroke-linecap="round" opacity="0.6"/>
  <path d="M10,20 Q8,22 10,24" stroke="#F39C12" stroke-width="2" fill="none" stroke-linecap="round"/>
  <path d="M8,18 Q5,22 8,26" stroke="#F39C12" stroke-width="1.5" fill="none" stroke-linecap="round" opacity="0.6"/>
  <!-- Base platform -->
  <rect x="10" y="34" width="28" height="2" fill="#333"/>
</svg>