<svg viewBox="0 0 200 200" xmlns="http://www.w3.org/2000/svg">
  <!-- Traditional fan design -->
  <defs>
    <linearGradient id="fanGrad" x1="0%" y1="0%" x2="100%" y2="0%">
      <stop offset="0%" style="stop-color:#ff69b4;stop-opacity:1" />
      <stop offset="50%" style="stop-color:#fff;stop-opacity:1" />
      <stop offset="100%" style="stop-color:#ff69b4;stop-opacity:1" />
    </linearGradient>
  </defs>
  <!-- Fan handle -->
  <rect x="90" y="140" width="20" height="50" rx="5" fill="#8b4513" stroke="#000" stroke-width="2"/>
  <rect x="92" y="142" width="16" height="20" fill="#a0522d"/>
  <!-- Fan sections -->
  <g transform="translate(100, 140)">
    <!-- Center section -->
    <path d="M0 0 L-5 -90 Q0 -95 5 -90 Z" fill="url(#fanGrad)" stroke="#000" stroke-width="2"/>
    <!-- Left sections -->
    <path d="M-5 -90 L-25 -85 Q-28 -88 -25 -92 L0 -95 Q0 -95 -5 -90 Z" fill="#ff69b4" stroke="#000" stroke-width="2"/>
    <path d="M-25 -85 L-45 -75 Q-48 -78 -45 -82 L-25 -92 Q-28 -88 -25 -85 Z" fill="#fff" stroke="#000" stroke-width="2"/>
    <path d="M-45 -75 L-60 -60 Q-63 -63 -60 -67 L-45 -82 Q-48 -78 -45 -75 Z" fill="#ff69b4" stroke="#000" stroke-width="2"/>
    <path d="M-60 -60 L-70 -40 Q-72 -42 -70 -47 L-60 -67 Q-63 -63 -60 -60 Z" fill="#fff" stroke="#000" stroke-width="2"/>
    <!-- Right sections -->
    <path d="M5 -90 L25 -85 Q28 -88 25 -92 L0 -95 Q0 -95 5 -90 Z" fill="#ff69b4" stroke="#000" stroke-width="2"/>
    <path d="M25 -85 L45 -75 Q48 -78 45 -82 L25 -92 Q28 -88 25 -85 Z" fill="#fff" stroke="#000" stroke-width="2"/>
    <path d="M45 -75 L60 -60 Q63 -63 60 -67 L45 -82 Q48 -78 45 -75 Z" fill="#ff69b4" stroke="#000" stroke-width="2"/>
    <path d="M60 -60 L70 -40 Q72 -42 70 -47 L60 -67 Q63 -63 60 -60 Z" fill="#fff" stroke="#000" stroke-width="2"/>
  </g>
  <!-- Decorative elements -->
  <g transform="translate(100, 80)">
    <!-- Cherry blossom on fan -->
    <circle cx="0" cy="0" r="8" fill="#ffb6c1" stroke="#ff69b4" stroke-width="1"/>
    <circle cx="0" cy="0" r="3" fill="#ff1493"/>
    <!-- Petals -->
    <ellipse cx="-8" cy="0" rx="4" ry="2" fill="#ffb6c1" transform="rotate(-45 -8 0)"/>
    <ellipse cx="8" cy="0" rx="4" ry="2" fill="#ffb6c1" transform="rotate(45 8 0)"/>
    <ellipse cx="0" cy="-8" rx="4" ry="2" fill="#ffb6c1"/>
    <ellipse cx="0" cy="8" rx="4" ry="2" fill="#ffb6c1"/>
  </g>
  <!-- Tassel -->
  <circle cx="100" cy="185" r="3" fill="#ff1493" stroke="#000" stroke-width="1"/>
  <line x1="100" y1="185" x2="100" y2="195" stroke="#ff1493" stroke-width="2"/>
  <line x1="98" y1="185" x2="96" y2="195" stroke="#ff1493" stroke-width="1"/>
  <line x1="102" y1="185" x2="104" y2="195" stroke="#ff1493" stroke-width="1"/>
</svg>