<svg viewBox="0 0 200 200" xmlns="http://www.w3.org/2000/svg">
  <!-- Manga effect sparkles -->
  <defs>
    <linearGradient id="sparkleGrad" x1="0%" y1="0%" x2="100%" y2="100%">
      <stop offset="0%" style="stop-color:#fff;stop-opacity:1" />
      <stop offset="50%" style="stop-color:#ffd700;stop-opacity:1" />
      <stop offset="100%" style="stop-color:#ffed4e;stop-opacity:1" />
    </linearGradient>
  </defs>
  <!-- Large center sparkle -->
  <g transform="translate(100, 100)">
    <path d="M0,-30 L5,-10 L20,-8 L5,-5 L0,20 L-5,-5 L-20,-8 L-5,-10 Z" fill="url(#sparkleGrad)" stroke="#ffd700" stroke-width="1"/>
    <circle cx="0" cy="0" r="3" fill="#fff" opacity="0.9"/>
  </g>
  <!-- Medium sparkles -->
  <g transform="translate(50, 50)">
    <path d="M0,-20 L3,-7 L15,-5 L3,-3 L0,15 L-3,-3 L-15,-5 L-3,-7 Z" fill="#ffd700" stroke="#ff9500" stroke-width="1" opacity="0.9"/>
  </g>
  <g transform="translate(150, 60)">
    <path d="M0,-20 L3,-7 L15,-5 L3,-3 L0,15 L-3,-3 L-15,-5 L-3,-7 Z" fill="#ffd700" stroke="#ff9500" stroke-width="1" opacity="0.9"/>
  </g>
  <g transform="translate(70, 140)">
    <path d="M0,-20 L3,-7 L15,-5 L3,-3 L0,15 L-3,-3 L-15,-5 L-3,-7 Z" fill="#ffd700" stroke="#ff9500" stroke-width="1" opacity="0.9"/>
  </g>
  <g transform="translate(130, 150)">
    <path d="M0,-20 L3,-7 L15,-5 L3,-3 L0,15 L-3,-3 L-15,-5 L-3,-7 Z" fill="#ffd700" stroke="#ff9500" stroke-width="1" opacity="0.9"/>
  </g>
  <!-- Small sparkles -->
  <g fill="#fff" opacity="0.8">
    <circle cx="30" cy="80" r="2"/>
    <circle cx="170" cy="90" r="2"/>
    <circle cx="40" cy="160" r="2"/>
    <circle cx="160" cy="30" r="2"/>
    <circle cx="90" cy="40" r="2"/>
    <circle cx="110" cy="170" r="2"/>
  </g>
  <!-- Tiny dots -->
  <g fill="#ffd700" opacity="0.6">
    <circle cx="25" cy="120" r="1"/>
    <circle cx="175" cy="120" r="1"/>
    <circle cx="60" cy="20" r="1"/>
    <circle cx="140" cy="180" r="1"/>
    <circle cx="80" cy="180" r="1"/>
    <circle cx="120" cy="20" r="1"/>
  </g>
</svg>