<svg viewBox="0 0 200 200" xmlns="http://www.w3.org/2000/svg">
  <!-- Manga speech bubble -->
  <!-- Main bubble with dramatic shape -->
  <path d="M30 40 L30 30 Q30 20 40 20 L160 20 Q170 20 170 30 L170 40 L175 50 L170 60 L170 100 L175 110 L170 120 Q170 130 160 130 L70 130 L50 140 L40 150 L30 160 L35 140 L40 130 Q30 130 30 120 L25 110 L30 100 L30 60 L25 50 Z" 
        fill="#fff" stroke="#000" stroke-width="4"/>
  <!-- Action lines for emphasis -->
  <g stroke="#000" stroke-width="2" opacity="0.7">
    <line x1="10" y1="35" x2="25" y2="40"/>
    <line x1="15" y1="55" x2="25" y2="55"/>
    <line x1="10" y1="75" x2="25" y2="70"/>
    <line x1="175" y1="35" x2="185" y2="30"/>
    <line x1="175" y1="55" x2="190" y2="55"/>
    <line x1="175" y1="75" x2="185" y2="80"/>
  </g>
  <!-- Japanese-style text placeholder -->
  <text x="100" y="60" font-family="Arial" font-size="24" font-weight="bold" text-anchor="middle" fill="#000">
    なに!?
  </text>
  <text x="100" y="90" font-family="Arial" font-size="16" text-anchor="middle" fill="#000">
    (NANI!?)
  </text>
  <!-- Emotion indicators -->
  <path d="M140 35 L145 25 L150 35" fill="none" stroke="#000" stroke-width="2"/>
  <path d="M150 40 L155 30 L160 40" fill="none" stroke="#000" stroke-width="2"/>
  <!-- Small effect bubbles -->
  <circle cx="180" cy="120" r="5" fill="#fff" stroke="#000" stroke-width="2"/>
  <circle cx="185" cy="135" r="4" fill="#fff" stroke="#000" stroke-width="2"/>
  <circle cx="180" cy="145" r="3" fill="#fff" stroke="#000" stroke-width="2"/>
</svg>