<svg viewBox="0 0 200 200" xmlns="http://www.w3.org/2000/svg">
  <!-- Cherry blossom petals -->
  <defs>
    <radialGradient id="petalGrad">
      <stop offset="0%" style="stop-color:#ffb6c1;stop-opacity:1" />
      <stop offset="100%" style="stop-color:#ff69b4;stop-opacity:1" />
    </radialGradient>
  </defs>
  <!-- Falling petals at different angles and sizes -->
  <!-- Petal 1 -->
  <g transform="translate(50, 40) rotate(25)">
    <ellipse cx="0" cy="0" rx="15" ry="8" fill="url(#petalGrad)"/>
    <path d="M-15 0 Q-10 -3 0 0 Q10 -3 15 0" fill="#ff1493" opacity="0.3"/>
  </g>
  <!-- Petal 2 -->
  <g transform="translate(120, 60) rotate(-45)">
    <ellipse cx="0" cy="0" rx="18" ry="10" fill="url(#petalGrad)"/>
    <path d="M-18 0 Q-12 -4 0 0 Q12 -4 18 0" fill="#ff1493" opacity="0.3"/>
  </g>
  <!-- Petal 3 -->
  <g transform="translate(80, 100) rotate(70)">
    <ellipse cx="0" cy="0" rx="12" ry="7" fill="url(#petalGrad)"/>
    <path d="M-12 0 Q-8 -2 0 0 Q8 -2 12 0" fill="#ff1493" opacity="0.3"/>
  </g>
  <!-- Petal 4 -->
  <g transform="translate(150, 120) rotate(-20)">
    <ellipse cx="0" cy="0" rx="20" ry="11" fill="url(#petalGrad)"/>
    <path d="M-20 0 Q-13 -5 0 0 Q13 -5 20 0" fill="#ff1493" opacity="0.3"/>
  </g>
  <!-- Petal 5 -->
  <g transform="translate(40, 150) rotate(110)">
    <ellipse cx="0" cy="0" rx="16" ry="9" fill="url(#petalGrad)"/>
    <path d="M-16 0 Q-11 -3 0 0 Q11 -3 16 0" fill="#ff1493" opacity="0.3"/>
  </g>
  <!-- Petal 6 -->
  <g transform="translate(110, 160) rotate(-60)">
    <ellipse cx="0" cy="0" rx="14" ry="8" fill="url(#petalGrad)"/>
    <path d="M-14 0 Q-9 -3 0 0 Q9 -3 14 0" fill="#ff1493" opacity="0.3"/>
  </g>
  <!-- Small floating petals -->
  <g opacity="0.6">
    <ellipse cx="30" cy="90" rx="8" ry="5" fill="#ffb6c1" transform="rotate(45 30 90)"/>
    <ellipse cx="170" cy="50" rx="8" ry="5" fill="#ffb6c1" transform="rotate(-30 170 50)"/>
    <ellipse cx="160" cy="170" rx="8" ry="5" fill="#ffb6c1" transform="rotate(80 160 170)"/>
  </g>
  <!-- Tiny detail petals -->
  <g opacity="0.4">
    <ellipse cx="60" cy="20" rx="5" ry="3" fill="#ff69b4" transform="rotate(20 60 20)"/>
    <ellipse cx="140" cy="30" rx="5" ry="3" fill="#ff69b4" transform="rotate(-50 140 30)"/>
    <ellipse cx="90" cy="180" rx="5" ry="3" fill="#ff69b4" transform="rotate(60 90 180)"/>
  </g>
</svg>