<svg viewBox="0 0 200 200" xmlns="http://www.w3.org/2000/svg">
  <defs>
    <linearGradient id="veilGradient" x1="0%" y1="0%" x2="0%" y2="100%">
      <stop offset="0%" style="stop-color:#FFF;stop-opacity:0.9" />
      <stop offset="100%" style="stop-color:#FFF;stop-opacity:0.3" />
    </linearGradient>
  </defs>
  <path d="M 100 30 Q 70 30, 50 50 Q 40 70, 40 100 Q 40 140, 60 170 L 60 180 Q 80 170, 100 170 Q 120 170, 140 180 L 140 170 Q 160 140, 160 100 Q 160 70, 150 50 Q 130 30, 100 30 Z" fill="url(#veilGradient)"/>
  <path d="M 60 40 Q 100 30, 140 40" stroke="#FFB6C1" stroke-width="3" fill="none"/>
  <circle cx="60" cy="40" r="4" fill="#FFB6C1"/>
  <circle cx="80" cy="35" r="3" fill="#FFB6C1"/>
  <circle cx="100" cy="33" r="4" fill="#FFB6C1"/>
  <circle cx="120" cy="35" r="3" fill="#FFB6C1"/>
  <circle cx="140" cy="40" r="4" fill="#FFB6C1"/>
  <circle cx="70" cy="38" r="2" fill="#FFF"/>
  <circle cx="90" cy="34" r="2" fill="#FFF"/>
  <circle cx="110" cy="34" r="2" fill="#FFF"/>
  <circle cx="130" cy="38" r="2" fill="#FFF"/>
  <path d="M 50 80 Q 60 70, 70 80" stroke="#FFF" stroke-width="1" fill="none" opacity="0.5"/>
  <path d="M 130 80 Q 140 70, 150 80" stroke="#FFF" stroke-width="1" fill="none" opacity="0.5"/>
  <path d="M 60 120 Q 70 110, 80 120" stroke="#FFF" stroke-width="1" fill="none" opacity="0.4"/>
  <path d="M 120 120 Q 130 110, 140 120" stroke="#FFF" stroke-width="1" fill="none" opacity="0.4"/>
</svg>