<svg viewBox="0 0 200 200" xmlns="http://www.w3.org/2000/svg">
  <defs>
    <linearGradient id="heartBrideGradient" x1="0%" y1="0%" x2="100%" y2="100%">
      <stop offset="0%" style="stop-color:#FFB6C1;stop-opacity:1" />
      <stop offset="50%" style="stop-color:#FFF;stop-opacity:1" />
      <stop offset="100%" style="stop-color:#FFB6C1;stop-opacity:1" />
    </linearGradient>
  </defs>
  <path d="M 100 50 C 75 25, 25 25, 25 65 C 25 85, 40 100, 100 160 C 160 100, 175 85, 175 65 C 175 25, 125 25, 100 50 Z" fill="url(#heartBrideGradient)"/>
  <path d="M 100 50 C 85 35, 45 35, 45 65 C 45 75, 50 85, 100 140 C 150 85, 155 75, 155 65 C 155 35, 115 35, 100 50 Z" fill="#FFB6C1" opacity="0.5"/>
  <text x="100" y="95" font-family="Brush Script MT, cursive" font-size="28" font-weight="400" text-anchor="middle" fill="#FF69B4">Bride</text>
  <circle cx="60" cy="60" r="4" fill="#FFF" opacity="0.7"/>
  <circle cx="140" cy="60" r="4" fill="#FFF" opacity="0.7"/>
  <circle cx="70" cy="70" r="3" fill="#FFF" opacity="0.6"/>
  <circle cx="130" cy="70" r="3" fill="#FFF" opacity="0.6"/>
  <circle cx="80" cy="80" r="2" fill="#FFF" opacity="0.5"/>
  <circle cx="120" cy="80" r="2" fill="#FFF" opacity="0.5"/>
  <path d="M 85 100 Q 100 110, 115 100" stroke="#FF69B4" stroke-width="1.5" fill="none"/>
</svg>