<svg viewBox="0 0 200 200" xmlns="http://www.w3.org/2000/svg">
  <defs>
    <linearGradient id="diamondGradient" x1="0%" y1="0%" x2="100%" y2="100%">
      <stop offset="0%" style="stop-color:#E6E6FA;stop-opacity:1" />
      <stop offset="50%" style="stop-color:#FFF;stop-opacity:1" />
      <stop offset="100%" style="stop-color:#E6E6FA;stop-opacity:1" />
    </linearGradient>
    <linearGradient id="bandGradient" x1="0%" y1="0%" x2="0%" y2="100%">
      <stop offset="0%" style="stop-color:#FFD700;stop-opacity:1" />
      <stop offset="50%" style="stop-color:#FFA500;stop-opacity:1" />
      <stop offset="100%" style="stop-color:#FFD700;stop-opacity:1" />
    </linearGradient>
  </defs>
  <ellipse cx="100" cy="120" rx="60" ry="20" fill="none" stroke="url(#bandGradient)" stroke-width="15"/>
  <path d="M 100 60 L 80 80 L 85 100 L 115 100 L 120 80 Z" fill="url(#diamondGradient)"/>
  <path d="M 100 60 L 80 80 L 120 80 Z" fill="#FFF" opacity="0.7"/>
  <path d="M 80 80 L 85 100 L 90 80 Z" fill="#E6E6FA" opacity="0.5"/>
  <path d="M 120 80 L 115 100 L 110 80 Z" fill="#E6E6FA" opacity="0.5"/>
  <path d="M 90 80 L 85 100 L 100 100 Z" fill="#DDD" opacity="0.3"/>
  <path d="M 110 80 L 115 100 L 100 100 Z" fill="#DDD" opacity="0.3"/>
  <circle cx="100" cy="60" r="3" fill="#FFF" opacity="0.9"/>
  <circle cx="90" cy="70" r="2" fill="#FFF" opacity="0.7"/>
  <circle cx="110" cy="70" r="2" fill="#FFF" opacity="0.7"/>
</svg>