<svg viewBox="0 0 200 200" xmlns="http://www.w3.org/2000/svg">
  <!-- 90s TV set -->
  <rect x="20" y="30" width="160" height="120" rx="10" fill="#2d2d2d" stroke="#000" stroke-width="3"/>
  <rect x="30" y="40" width="140" height="100" rx="5" fill="#4a4a4a"/>
  <!-- Screen -->
  <rect x="35" y="45" width="130" height="90" fill="#333" stroke="#222" stroke-width="2"/>
  <!-- Static lines -->
  <g opacity="0.3">
    <line x1="35" y1="55" x2="165" y2="55" stroke="#666" stroke-width="1"/>
    <line x1="35" y1="70" x2="165" y2="70" stroke="#666" stroke-width="1"/>
    <line x1="35" y1="85" x2="165" y2="85" stroke="#666" stroke-width="1"/>
    <line x1="35" y1="100" x2="165" y2="100" stroke="#666" stroke-width="1"/>
    <line x1="35" y1="115" x2="165" y2="115" stroke="#666" stroke-width="1"/>
  </g>
  <!-- Antenna -->
  <line x1="80" y1="30" x2="70" y2="10" stroke="#000" stroke-width="3"/>
  <line x1="120" y1="30" x2="130" y2="10" stroke="#000" stroke-width="3"/>
  <circle cx="70" cy="10" r="3" fill="#000"/>
  <circle cx="130" cy="10" r="3" fill="#000"/>
  <!-- Control knobs -->
  <circle cx="50" cy="165" r="8" fill="#222" stroke="#000" stroke-width="2"/>
  <circle cx="100" cy="165" r="8" fill="#222" stroke="#000" stroke-width="2"/>
  <circle cx="150" cy="165" r="8" fill="#222" stroke="#000" stroke-width="2"/>
  <!-- Speaker grilles -->
  <circle cx="170" cy="60" r="2" fill="#000"/>
  <circle cx="170" cy="70" r="2" fill="#000"/>
  <circle cx="170" cy="80" r="2" fill="#000"/>
  <circle cx="170" cy="90" r="2" fill="#000"/>
</svg>