<svg xmlns="http://www.w3.org/2000/svg" viewBox="0 0 100 100" width="100" height="100">
  <defs>
    <pattern id="dots" x="0" y="0" width="10" height="10" patternUnits="userSpaceOnUse">
      <circle cx="2" cy="2" r="1" fill="#fff" opacity="0.5"/>
    </pattern>
  </defs>
  <path d="M50 85 C30 65 10 50 10 30 C10 20 20 10 30 10 C40 10 45 15 50 20 C55 15 60 10 70 10 C80 10 90 20 90 30 C90 50 70 65 50 85z" fill="#e63946" stroke="#2d3436" stroke-width="2"/>
  <path d="M50 85 C30 65 10 50 10 30 C10 20 20 10 30 10 C40 10 45 15 50 20 C55 15 60 10 70 10 C80 10 90 20 90 30 C90 50 70 65 50 85z" fill="url(#dots)"/>
  <circle cx="35" cy="30" r="3" fill="#fff" opacity="0.8"/>
</svg>