<?xml version="1.0" encoding="UTF-8"?>
<svg width="1200" height="630" viewBox="0 0 1200 630" xmlns="http://www.w3.org/2000/svg">
  <!-- Background -->
  <rect x="0" y="0" width="1200" height="630" fill="#f8f9fa"/>
  
  <!-- Title -->
  <text x="600" y="80" font-family="Arial, sans-serif" font-size="42" font-weight="bold" text-anchor="middle" fill="#333">
    Best AI Icon Generators Compared
  </text>
  
  <!-- Platform cards -->
  <g id="platform-1">
    <rect x="100" y="150" width="280" height="200" rx="10" fill="#fff" stroke="#ccc" stroke-width="2"/>
    <circle cx="140" cy="190" r="30" fill="#FF7043"/>
    <text x="190" y="200" font-family="Arial, sans-serif" font-size="24" font-weight="bold" fill="#333">SVGAI.org</text>
    
    <text x="140" y="250" font-family="Arial, sans-serif" font-size="18" fill="#555">• Free</text>
    <text x="140" y="280" font-family="Arial, sans-serif" font-size="18" fill="#555">• SVG Output</text>
    <text x="140" y="310" font-family="Arial, sans-serif" font-size="18" fill="#555">• No Signup Required</text>
  </g>
  
  <g id="platform-2">
    <rect x="460" y="150" width="280" height="200" rx="10" fill="#fff" stroke="#ccc" stroke-width="2"/>
    <circle cx="500" cy="190" r="30" fill="#2196F3"/>
    <text x="550" y="200" font-family="Arial, sans-serif" font-size="24" font-weight="bold" fill="#333">IconifyAI</text>
    
    <text x="500" y="250" font-family="Arial, sans-serif" font-size="18" fill="#555">• Credit-based</text>
    <text x="500" y="280" font-family="Arial, sans-serif" font-size="18" fill="#555">• PNG/JPG</text>
    <text x="500" y="310" font-family="Arial, sans-serif" font-size="18" fill="#555">• App-focused styles</text>
  </g>
  
  <g id="platform-3">
    <rect x="820" y="150" width="280" height="200" rx="10" fill="#fff" stroke="#ccc" stroke-width="2"/>
    <circle cx="860" cy="190" r="30" fill="#673AB7"/>
    <text x="910" y="200" font-family="Arial, sans-serif" font-size="24" font-weight="bold" fill="#333">Recraft</text>
    
    <text x="860" y="250" font-family="Arial, sans-serif" font-size="18" fill="#555">• Free tier</text>
    <text x="860" y="280" font-family="Arial, sans-serif" font-size="18" fill="#555">• PNG/JPG/SVG</text>
    <text x="860" y="310" font-family="Arial, sans-serif" font-size="18" fill="#555">• Icon sets focus</text>
  </g>
  
  <!-- Output icons -->
  <g id="output-examples">
    <text x="600" y="400" font-family="Arial, sans-serif" font-size="30" font-weight="bold" text-anchor="middle" fill="#333">
      Sample Icon Outputs
    </text>
    
    <!-- First icon example -->
    <circle cx="300" cy="500" r="60" fill="#f5f5f5" stroke="#e0e0e0" stroke-width="2"/>
    <g transform="translate(270, 470)">
      <path d="M30,0 L60,30 L30,60 L0,30 Z" fill="#FF7043" />
      <circle cx="30" cy="30" r="10" fill="white" />
    </g>
    
    <!-- Second icon example -->
    <circle cx="600" cy="500" r="60" fill="#f5f5f5" stroke="#e0e0e0" stroke-width="2"/>
    <g transform="translate(570, 470)">
      <rect x="15" y="10" width="30" height="40" rx="5" fill="#2196F3" />
      <circle cx="30" cy="20" r="5" fill="white" />
      <rect x="20" y="35" width="20" height="10" rx="2" fill="white" />
    </g>
    
    <!-- Third icon example -->
    <circle cx="900" cy="500" r="60" fill="#f5f5f5" stroke="#e0e0e0" stroke-width="2"/>
    <g transform="translate(870, 470)">
      <path d="M30,10 L50,30 L30,50 L10,30 Z" fill="#673AB7" />
      <circle cx="30" cy="30" r="10" fill="white" />
      <circle cx="30" cy="30" r="5" fill="#673AB7" />
    </g>
  </g>
  
  <!-- Footer -->
  <text x="600" y="600" font-family="Arial, sans-serif" font-size="16" fill="#666" text-anchor="middle">
    SVGAI.org - Comparison of the Best AI Icon Generator Tools (2025)
  </text>
</svg>