<svg width="800" height="250" xmlns="http://www.w3.org/2000/svg">
  <!-- Background -->
  <rect width="800" height="250" fill="#ecfdf5" rx="8" ry="8" />
  
  <!-- Vector editor mockup -->
  <rect x="100" y="50" width="600" height="160" fill="#d1fae5" stroke="#10b981" stroke-width="2" rx="5" ry="5" />
  
  <!-- Toolbar -->
  <rect x="100" y="50" width="600" height="30" fill="#a7f3d0" stroke="#10b981" stroke-width="2" rx="5" ry="5" />
  <circle cx="120" cy="65" r="8" fill="#059669" />
  <circle cx="145" cy="65" r="8" fill="#047857" />
  <circle cx="170" cy="65" r="8" fill="#065f46" />
  <rect x="200" y="60" width="40" height="10" fill="#047857" rx="2" ry="2" />
  <rect x="250" y="60" width="40" height="10" fill="#047857" rx="2" ry="2" />
  <rect x="300" y="60" width="40" height="10" fill="#047857" rx="2" ry="2" />
  
  <!-- Canvas area -->
  <rect x="120" y="100" width="200" height="90" fill="#ffffff" stroke="#10b981" stroke-width="1" />
  
  <!-- Simple SVG being edited -->
  <circle cx="220" cy="145" r="30" fill="#34d399" stroke="#059669" stroke-width="2" />
  <rect x="205" y="130" width="30" height="30" fill="#a7f3d0" stroke="#059669" stroke-width="1" />
  
  <!-- Selection handles -->
  <rect x="200" y="125" width="6" height="6" fill="#047857" />
  <rect x="234" y="125" width="6" height="6" fill="#047857" />
  <rect x="200" y="159" width="6" height="6" fill="#047857" />
  <rect x="234" y="159" width="6" height="6" fill="#047857" />
  
  <!-- Properties panel -->
  <rect x="350" y="100" width="330" height="90" fill="#f0fdfa" stroke="#10b981" stroke-width="1" />
  <text x="370" y="120" font-family="Arial, sans-serif" font-size="14" fill="#059669">Fill: #34d399</text>
  <text x="370" y="145" font-family="Arial, sans-serif" font-size="14" fill="#059669">Stroke: #059669</text>
  <text x="370" y="170" font-family="Arial, sans-serif" font-size="14" fill="#059669">Width: 30px</text>
  <rect x="500" y="110" width="40" height="15" fill="#34d399" rx="2" ry="2" />
  <rect x="500" y="135" width="40" height="15" fill="#059669" rx="2" ry="2" />
  
  <!-- Title -->
  <text x="400" y="30" font-family="Arial, sans-serif" font-size="20" font-weight="bold" text-anchor="middle" fill="#059669">
    Editing AI-Generated SVGs
  </text>
</svg>
